<?xml version="1.0" encoding="UTF-8" standalone="no"?>
<!DOCTYPE svg PUBLIC "-//W3C//DTD SVG 1.1//EN"
 "http://www.w3.org/Graphics/SVG/1.1/DTD/svg11.dtd">
<!-- Generated by graphviz version 2.26.3 (20100126.1600)
 -->
<!-- Title: remote&#45;processor/AnswerMessage.h Pages: 1 -->
<svg width="200pt" height="146pt"
 viewBox="0.00 0.00 200.00 146.00" xmlns="http://www.w3.org/2000/svg" xmlns:xlink="http://www.w3.org/1999/xlink">
<g id="graph1" class="graph" transform="scale(1 1) rotate(0) translate(4 142)">
<title>remote&#45;processor/AnswerMessage.h</title>
<polygon fill="white" stroke="white" points="-4,5 -4,-142 197,-142 197,5 -4,5"/>
<!-- Node1 -->
<g id="node1" class="node"><title>Node1</title>
<polygon fill="#bfbfbf" stroke="black" points="0,-116.5 0,-137.5 192,-137.5 192,-116.5 0,-116.5"/>
<text text-anchor="middle" x="96" y="-124.5" font-family="Verdana" font-size="10.00">remote&#45;processor/AnswerMessage.h</text>
</g>
<!-- Node2 -->
<g id="node3" class="node"><title>Node2</title>
<a xlink:href="Message_8h.html" target="_top" xlink:title="Message.h">
<polygon fill="white" stroke="black" points="62,-58.5 62,-79.5 130,-79.5 130,-58.5 62,-58.5"/>
<text text-anchor="middle" x="96" y="-66.5" font-family="Verdana" font-size="10.00">Message.h</text>
</a>
</g>
<!-- Node1&#45;&gt;Node2 -->
<g id="edge2" class="edge"><title>Node1&#45;&gt;Node2</title>
<path fill="none" stroke="midnightblue" d="M96,-116.362C96,-108.922 96,-98.7427 96,-89.7276"/>
<polygon fill="midnightblue" stroke="midnightblue" points="99.5001,-89.5706 96,-79.5707 92.5001,-89.5707 99.5001,-89.5706"/>
</g>
<!-- Node3 -->
<g id="node5" class="node"><title>Node3</title>
<polygon fill="white" stroke="#bfbfbf" points="36.5,-0.5 36.5,-21.5 89.5,-21.5 89.5,-0.5 36.5,-0.5"/>
<text text-anchor="middle" x="63" y="-8.5" font-family="Verdana" font-size="10.00">stdint.h</text>
</g>
<!-- Node2&#45;&gt;Node3 -->
<g id="edge4" class="edge"><title>Node2&#45;&gt;Node3</title>
<path fill="none" stroke="midnightblue" d="M89.9473,-58.3619C85.5281,-50.5949 79.4104,-39.8426 74.1209,-30.5458"/>
<polygon fill="midnightblue" stroke="midnightblue" points="77.0017,-28.5315 69.0143,-21.5707 70.9176,-31.9932 77.0017,-28.5315"/>
</g>
<!-- Node4 -->
<g id="node7" class="node"><title>Node4</title>
<polygon fill="white" stroke="#bfbfbf" points="107,-0.5 107,-21.5 151,-21.5 151,-0.5 107,-0.5"/>
<text text-anchor="middle" x="129" y="-8.5" font-family="Verdana" font-size="10.00">string</text>
</g>
<!-- Node2&#45;&gt;Node4 -->
<g id="edge6" class="edge"><title>Node2&#45;&gt;Node4</title>
<path fill="none" stroke="midnightblue" d="M102.053,-58.3619C106.472,-50.5949 112.59,-39.8426 117.879,-30.5458"/>
<polygon fill="midnightblue" stroke="midnightblue" points="121.082,-31.9932 122.986,-21.5707 114.998,-28.5315 121.082,-31.9932"/>
</g>
</g>
</svg>
