<?xml version="1.0" encoding="UTF-8" standalone="no"?>
<!DOCTYPE svg PUBLIC "-//W3C//DTD SVG 1.1//EN"
 "http://www.w3.org/Graphics/SVG/1.1/DTD/svg11.dtd">
<!-- Generated by graphviz version 2.26.3 (20100126.1600)
 -->
<!-- Title: remote&#45;processor/AnswerMessage.h Pages: 1 -->
<svg width="576pt" height="102pt"
 viewBox="0.00 0.00 576.00 102.00" xmlns="http://www.w3.org/2000/svg" xmlns:xlink="http://www.w3.org/1999/xlink">
<g id="graph1" class="graph" transform="scale(1 1) rotate(0) translate(4 98)">
<title>remote&#45;processor/AnswerMessage.h</title>
<polygon fill="white" stroke="white" points="-4,5 -4,-98 573,-98 573,5 -4,5"/>
<!-- Node1 -->
<g id="node1" class="node"><title>Node1</title>
<polygon fill="#bfbfbf" stroke="black" points="163,-72.5 163,-93.5 355,-93.5 355,-72.5 163,-72.5"/>
<text text-anchor="middle" x="259" y="-80.5" font-family="Verdana" font-size="10.00">remote&#45;processor/AnswerMessage.h</text>
</g>
<!-- Node2 -->
<g id="node3" class="node"><title>Node2</title>
<a xlink:href="main_8cpp.html" target="_top" xlink:title="remote&#45;process/main.cpp">
<polygon fill="white" stroke="black" points="0,-7.5 0,-28.5 140,-28.5 140,-7.5 0,-7.5"/>
<text text-anchor="middle" x="70" y="-15.5" font-family="Verdana" font-size="10.00">remote&#45;process/main.cpp</text>
</a>
</g>
<!-- Node1&#45;&gt;Node2 -->
<g id="edge2" class="edge"><title>Node1&#45;&gt;Node2</title>
<path fill="none" stroke="midnightblue" d="M218.693,-69.1377C183.407,-57.0023 132.894,-39.6302 100.774,-28.5835"/>
<polygon fill="midnightblue" stroke="midnightblue" points="217.619,-72.4694 228.213,-72.412 219.895,-65.85 217.619,-72.4694"/>
</g>
<!-- Node3 -->
<g id="node5" class="node"><title>Node3</title>
<a xlink:href="AnswerMessage_8cpp.html" target="_top" xlink:title="remote&#45;processor/AnswerMessage.cpp">
<polygon fill="white" stroke="black" points="157.5,-7.5 157.5,-28.5 360.5,-28.5 360.5,-7.5 157.5,-7.5"/>
<text text-anchor="middle" x="259" y="-15.5" font-family="Verdana" font-size="10.00">remote&#45;processor/AnswerMessage.cpp</text>
</a>
</g>
<!-- Node1&#45;&gt;Node3 -->
<g id="edge4" class="edge"><title>Node1&#45;&gt;Node3</title>
<path fill="none" stroke="midnightblue" d="M259,-62.0142C259,-50.8307 259,-37.5583 259,-28.5337"/>
<polygon fill="midnightblue" stroke="midnightblue" points="255.5,-62.2665 259,-72.2666 262.5,-62.2666 255.5,-62.2665"/>
</g>
<!-- Node4 -->
<g id="node7" class="node"><title>Node4</title>
<a xlink:href="RemoteProcessorServer_8cpp.html" target="_top" xlink:title="remote&#45;processor/RemoteProcessor\lServer.cpp">
<polygon fill="white" stroke="black" points="378,-1 378,-35 568,-35 568,-1 378,-1"/>
<text text-anchor="start" x="386" y="-22" font-family="Verdana" font-size="10.00">remote&#45;processor/RemoteProcessor</text>
<text text-anchor="middle" x="473" y="-9" font-family="Verdana" font-size="10.00">Server.cpp</text>
</a>
</g>
<!-- Node1&#45;&gt;Node4 -->
<g id="edge6" class="edge"><title>Node1&#45;&gt;Node4</title>
<path fill="none" stroke="midnightblue" d="M303.655,-69.4366C336.545,-59.4467 381.504,-45.7909 416.832,-35.0604"/>
<polygon fill="midnightblue" stroke="midnightblue" points="302.41,-66.1567 293.859,-72.412 304.445,-72.8545 302.41,-66.1567"/>
</g>
</g>
</svg>
