<?xml version="1.0" encoding="UTF-8" standalone="no"?>
<!DOCTYPE svg PUBLIC "-//W3C//DTD SVG 1.1//EN"
 "http://www.w3.org/Graphics/SVG/1.1/DTD/svg11.dtd">
<!-- Generated by graphviz version 2.26.3 (20100126.1600)
 -->
<!-- Title: remote&#45;processor/AnswerMessage.cpp Pages: 1 -->
<svg width="358pt" height="204pt"
 viewBox="0.00 0.00 358.00 204.00" xmlns="http://www.w3.org/2000/svg" xmlns:xlink="http://www.w3.org/1999/xlink">
<g id="graph1" class="graph" transform="scale(1 1) rotate(0) translate(4 200)">
<title>remote&#45;processor/AnswerMessage.cpp</title>
<polygon fill="white" stroke="white" points="-4,5 -4,-200 355,-200 355,5 -4,5"/>
<!-- Node1 -->
<g id="node1" class="node"><title>Node1</title>
<polygon fill="#bfbfbf" stroke="black" points="100.5,-174.5 100.5,-195.5 303.5,-195.5 303.5,-174.5 100.5,-174.5"/>
<text text-anchor="middle" x="202" y="-182.5" font-family="Verdana" font-size="10.00">remote&#45;processor/AnswerMessage.cpp</text>
</g>
<!-- Node2 -->
<g id="node3" class="node"><title>Node2</title>
<a xlink:href="AnswerMessage_8h.html" target="_top" xlink:title="AnswerMessage.h">
<polygon fill="white" stroke="black" points="7.5,-116.5 7.5,-137.5 110.5,-137.5 110.5,-116.5 7.5,-116.5"/>
<text text-anchor="middle" x="59" y="-124.5" font-family="Verdana" font-size="10.00">AnswerMessage.h</text>
</a>
</g>
<!-- Node1&#45;&gt;Node2 -->
<g id="edge2" class="edge"><title>Node1&#45;&gt;Node2</title>
<path fill="none" stroke="midnightblue" d="M176.104,-174.497C153.367,-165.275 120.07,-151.769 94.7877,-141.515"/>
<polygon fill="midnightblue" stroke="midnightblue" points="95.7691,-138.136 85.1868,-137.621 93.1381,-144.623 95.7691,-138.136"/>
</g>
<!-- Node6 -->
<g id="node11" class="node"><title>Node6</title>
<a xlink:href="RemoteProcessorProtocol_8h.html" target="_top" xlink:title="RemoteProcessorProtocol.h">
<polygon fill="white" stroke="black" points="127.5,-116.5 127.5,-137.5 276.5,-137.5 276.5,-116.5 127.5,-116.5"/>
<text text-anchor="middle" x="202" y="-124.5" font-family="Verdana" font-size="10.00">RemoteProcessorProtocol.h</text>
</a>
</g>
<!-- Node1&#45;&gt;Node6 -->
<g id="edge10" class="edge"><title>Node1&#45;&gt;Node6</title>
<path fill="none" stroke="midnightblue" d="M202,-174.362C202,-166.922 202,-156.743 202,-147.728"/>
<polygon fill="midnightblue" stroke="midnightblue" points="205.5,-147.571 202,-137.571 198.5,-147.571 205.5,-147.571"/>
</g>
<!-- Node7 -->
<g id="node13" class="node"><title>Node7</title>
<polygon fill="white" stroke="#bfbfbf" points="294,-116.5 294,-137.5 350,-137.5 350,-116.5 294,-116.5"/>
<text text-anchor="middle" x="322" y="-124.5" font-family="Verdana" font-size="10.00">assert.h</text>
</g>
<!-- Node1&#45;&gt;Node7 -->
<g id="edge12" class="edge"><title>Node1&#45;&gt;Node7</title>
<path fill="none" stroke="midnightblue" d="M223.731,-174.497C242.474,-165.438 269.767,-152.246 290.836,-142.063"/>
<polygon fill="midnightblue" stroke="midnightblue" points="292.545,-145.124 300.025,-137.621 289.498,-138.822 292.545,-145.124"/>
</g>
<!-- Node3 -->
<g id="node5" class="node"><title>Node3</title>
<a xlink:href="Message_8h.html" target="_top" xlink:title="Message.h">
<polygon fill="white" stroke="black" points="25,-58.5 25,-79.5 93,-79.5 93,-58.5 25,-58.5"/>
<text text-anchor="middle" x="59" y="-66.5" font-family="Verdana" font-size="10.00">Message.h</text>
</a>
</g>
<!-- Node2&#45;&gt;Node3 -->
<g id="edge4" class="edge"><title>Node2&#45;&gt;Node3</title>
<path fill="none" stroke="midnightblue" d="M59,-116.362C59,-108.922 59,-98.7427 59,-89.7276"/>
<polygon fill="midnightblue" stroke="midnightblue" points="62.5001,-89.5706 59,-79.5707 55.5001,-89.5707 62.5001,-89.5706"/>
</g>
<!-- Node4 -->
<g id="node7" class="node"><title>Node4</title>
<polygon fill="white" stroke="#bfbfbf" points="-0.5,-0.5 -0.5,-21.5 52.5,-21.5 52.5,-0.5 -0.5,-0.5"/>
<text text-anchor="middle" x="26" y="-8.5" font-family="Verdana" font-size="10.00">stdint.h</text>
</g>
<!-- Node3&#45;&gt;Node4 -->
<g id="edge6" class="edge"><title>Node3&#45;&gt;Node4</title>
<path fill="none" stroke="midnightblue" d="M52.9473,-58.3619C48.5281,-50.5949 42.4104,-39.8426 37.1209,-30.5458"/>
<polygon fill="midnightblue" stroke="midnightblue" points="40.0017,-28.5315 32.0143,-21.5707 33.9176,-31.9932 40.0017,-28.5315"/>
</g>
<!-- Node5 -->
<g id="node9" class="node"><title>Node5</title>
<polygon fill="white" stroke="#bfbfbf" points="70,-0.5 70,-21.5 114,-21.5 114,-0.5 70,-0.5"/>
<text text-anchor="middle" x="92" y="-8.5" font-family="Verdana" font-size="10.00">string</text>
</g>
<!-- Node3&#45;&gt;Node5 -->
<g id="edge8" class="edge"><title>Node3&#45;&gt;Node5</title>
<path fill="none" stroke="midnightblue" d="M65.0527,-58.3619C69.4719,-50.5949 75.5896,-39.8426 80.8791,-30.5458"/>
<polygon fill="midnightblue" stroke="midnightblue" points="84.0824,-31.9932 85.9857,-21.5707 77.9983,-28.5315 84.0824,-31.9932"/>
</g>
</g>
</svg>
