<?xml version="1.0" encoding="UTF-8" standalone="no"?>
<!DOCTYPE svg PUBLIC "-//W3C//DTD SVG 1.1//EN"
 "http://www.w3.org/Graphics/SVG/1.1/DTD/svg11.dtd">
<!-- Generated by graphviz version 2.26.3 (20100126.1600)
 -->
<!-- Title: parameter/AreaConfiguration.h Pages: 1 -->
<svg width="311pt" height="204pt"
 viewBox="0.00 0.00 311.00 204.00" xmlns="http://www.w3.org/2000/svg" xmlns:xlink="http://www.w3.org/1999/xlink">
<g id="graph1" class="graph" transform="scale(1 1) rotate(0) translate(4 200)">
<title>parameter/AreaConfiguration.h</title>
<polygon fill="white" stroke="white" points="-4,5 -4,-200 308,-200 308,5 -4,5"/>
<!-- Node1 -->
<g id="node1" class="node"><title>Node1</title>
<polygon fill="#bfbfbf" stroke="black" points="73,-174.5 73,-195.5 239,-195.5 239,-174.5 73,-174.5"/>
<text text-anchor="middle" x="156" y="-182.5" font-family="Verdana" font-size="10.00">parameter/AreaConfiguration.h</text>
</g>
<!-- Node2 -->
<g id="node3" class="node"><title>Node2</title>
<a xlink:href="ParameterBlackboard_8h.html" target="_top" xlink:title="ParameterBlackboard.h">
<polygon fill="white" stroke="black" points="-0.5,-116.5 -0.5,-137.5 128.5,-137.5 128.5,-116.5 -0.5,-116.5"/>
<text text-anchor="middle" x="64" y="-124.5" font-family="Verdana" font-size="10.00">ParameterBlackboard.h</text>
</a>
</g>
<!-- Node1&#45;&gt;Node2 -->
<g id="edge2" class="edge"><title>Node1&#45;&gt;Node2</title>
<path fill="none" stroke="midnightblue" d="M139.126,-174.362C125.249,-165.614 105.366,-153.079 89.5403,-143.101"/>
<polygon fill="midnightblue" stroke="midnightblue" points="91.0931,-139.943 80.7672,-137.571 87.3599,-145.864 91.0931,-139.943"/>
</g>
<!-- Node4 -->
<g id="node7" class="node"><title>Node4</title>
<a xlink:href="BinaryStream_8h.html" target="_top" xlink:title="BinaryStream.h">
<polygon fill="white" stroke="black" points="75,-58.5 75,-79.5 167,-79.5 167,-58.5 75,-58.5"/>
<text text-anchor="middle" x="121" y="-66.5" font-family="Verdana" font-size="10.00">BinaryStream.h</text>
</a>
</g>
<!-- Node1&#45;&gt;Node4 -->
<g id="edge14" class="edge"><title>Node1&#45;&gt;Node4</title>
<path fill="none" stroke="midnightblue" d="M153.235,-174.186C149.7,-160.553 143.283,-136.427 137,-116 134.292,-107.195 131.056,-97.5502 128.205,-89.3014"/>
<polygon fill="midnightblue" stroke="midnightblue" points="131.476,-88.0506 124.869,-79.7679 124.869,-90.3627 131.476,-88.0506"/>
</g>
<!-- Node7 -->
<g id="node15" class="node"><title>Node7</title>
<a xlink:href="SyncerSet_8h.html" target="_top" xlink:title="SyncerSet.h">
<polygon fill="white" stroke="black" points="192.5,-116.5 192.5,-137.5 267.5,-137.5 267.5,-116.5 192.5,-116.5"/>
<text text-anchor="middle" x="230" y="-124.5" font-family="Verdana" font-size="10.00">SyncerSet.h</text>
</a>
</g>
<!-- Node1&#45;&gt;Node7 -->
<g id="edge16" class="edge"><title>Node1&#45;&gt;Node7</title>
<path fill="none" stroke="midnightblue" d="M169.573,-174.362C180.421,-165.859 195.834,-153.779 208.379,-143.947"/>
<polygon fill="midnightblue" stroke="midnightblue" points="210.802,-146.494 216.513,-137.571 206.484,-140.985 210.802,-146.494"/>
</g>
<!-- Node3 -->
<g id="node5" class="node"><title>Node3</title>
<polygon fill="white" stroke="#bfbfbf" points="22.5,-0.5 22.5,-21.5 75.5,-21.5 75.5,-0.5 22.5,-0.5"/>
<text text-anchor="middle" x="49" y="-8.5" font-family="Verdana" font-size="10.00">stdint.h</text>
</g>
<!-- Node2&#45;&gt;Node3 -->
<g id="edge4" class="edge"><title>Node2&#45;&gt;Node3</title>
<path fill="none" stroke="midnightblue" d="M62.6157,-116.295C60.1377,-97.1314 54.9035,-56.654 51.6953,-31.8434"/>
<polygon fill="midnightblue" stroke="midnightblue" points="55.1345,-31.1478 50.3809,-21.6792 48.1923,-32.0455 55.1345,-31.1478"/>
</g>
<!-- Node2&#45;&gt;Node4 -->
<g id="edge6" class="edge"><title>Node2&#45;&gt;Node4</title>
<path fill="none" stroke="midnightblue" d="M74.4547,-116.362C82.5699,-108.104 94.0012,-96.4725 103.504,-86.8029"/>
<polygon fill="midnightblue" stroke="midnightblue" points="106.099,-89.1562 110.612,-79.5707 101.106,-84.2497 106.099,-89.1562"/>
</g>
<!-- Node4&#45;&gt;Node3 -->
<g id="edge8" class="edge"><title>Node4&#45;&gt;Node3</title>
<path fill="none" stroke="midnightblue" d="M107.794,-58.3619C97.2388,-49.859 82.2423,-37.7785 70.0371,-27.9466"/>
<polygon fill="midnightblue" stroke="midnightblue" points="72.1054,-25.1183 62.1222,-21.5707 67.7141,-30.5696 72.1054,-25.1183"/>
</g>
<!-- Node5 -->
<g id="node10" class="node"><title>Node5</title>
<polygon fill="white" stroke="#bfbfbf" points="169,-0.5 169,-21.5 213,-21.5 213,-0.5 169,-0.5"/>
<text text-anchor="middle" x="191" y="-8.5" font-family="Verdana" font-size="10.00">string</text>
</g>
<!-- Node4&#45;&gt;Node5 -->
<g id="edge10" class="edge"><title>Node4&#45;&gt;Node5</title>
<path fill="none" stroke="midnightblue" d="M133.839,-58.3619C144.002,-49.9408 158.401,-38.0105 170.204,-28.2308"/>
<polygon fill="midnightblue" stroke="midnightblue" points="172.775,-30.6459 178.242,-21.5707 168.309,-25.2558 172.775,-30.6459"/>
</g>
<!-- Node6 -->
<g id="node12" class="node"><title>Node6</title>
<polygon fill="white" stroke="#bfbfbf" points="94,-0.5 94,-21.5 148,-21.5 148,-0.5 94,-0.5"/>
<text text-anchor="middle" x="121" y="-8.5" font-family="Verdana" font-size="10.00">fstream</text>
</g>
<!-- Node4&#45;&gt;Node6 -->
<g id="edge12" class="edge"><title>Node4&#45;&gt;Node6</title>
<path fill="none" stroke="midnightblue" d="M121,-58.3619C121,-50.9219 121,-40.7427 121,-31.7276"/>
<polygon fill="midnightblue" stroke="midnightblue" points="124.5,-31.5706 121,-21.5707 117.5,-31.5707 124.5,-31.5706"/>
</g>
<!-- Node7&#45;&gt;Node5 -->
<g id="edge20" class="edge"><title>Node7&#45;&gt;Node5</title>
<path fill="none" stroke="midnightblue" d="M226.295,-116.179C223.039,-106.657 218.183,-92.4162 214,-80 208.529,-63.7594 202.394,-45.3455 197.838,-31.6274"/>
<polygon fill="midnightblue" stroke="midnightblue" points="201.036,-30.1522 194.564,-21.7636 194.392,-32.357 201.036,-30.1522"/>
</g>
<!-- Node8 -->
<g id="node17" class="node"><title>Node8</title>
<polygon fill="white" stroke="#bfbfbf" points="223,-58.5 223,-79.5 255,-79.5 255,-58.5 223,-58.5"/>
<text text-anchor="middle" x="239" y="-66.5" font-family="Verdana" font-size="10.00">set</text>
</g>
<!-- Node7&#45;&gt;Node8 -->
<g id="edge18" class="edge"><title>Node7&#45;&gt;Node8</title>
<path fill="none" stroke="midnightblue" d="M231.651,-116.362C232.805,-108.922 234.385,-98.7427 235.784,-89.7276"/>
<polygon fill="midnightblue" stroke="midnightblue" points="239.285,-89.9891 237.36,-79.5707 232.368,-88.9157 239.285,-89.9891"/>
</g>
<!-- Node9 -->
<g id="node20" class="node"><title>Node9</title>
<polygon fill="white" stroke="#bfbfbf" points="273,-58.5 273,-79.5 303,-79.5 303,-58.5 273,-58.5"/>
<text text-anchor="middle" x="288" y="-66.5" font-family="Verdana" font-size="10.00">list</text>
</g>
<!-- Node7&#45;&gt;Node9 -->
<g id="edge22" class="edge"><title>Node7&#45;&gt;Node9</title>
<path fill="none" stroke="midnightblue" d="M240.638,-116.362C248.896,-108.104 260.528,-96.4725 270.197,-86.8029"/>
<polygon fill="midnightblue" stroke="midnightblue" points="272.833,-89.1166 277.429,-79.5707 267.883,-84.1669 272.833,-89.1166"/>
</g>
</g>
</svg>
