<?xml version="1.0" encoding="UTF-8" standalone="no"?>
<!DOCTYPE svg PUBLIC "-//W3C//DTD SVG 1.1//EN"
 "http://www.w3.org/Graphics/SVG/1.1/DTD/svg11.dtd">
<!-- Generated by graphviz version 2.26.3 (20100126.1600)
 -->
<!-- Title: parameter/AreaConfiguration.h Pages: 1 -->
<svg width="818pt" height="146pt"
 viewBox="0.00 0.00 818.00 146.00" xmlns="http://www.w3.org/2000/svg" xmlns:xlink="http://www.w3.org/1999/xlink">
<g id="graph1" class="graph" transform="scale(1 1) rotate(0) translate(4 142)">
<title>parameter/AreaConfiguration.h</title>
<polygon fill="white" stroke="white" points="-4,5 -4,-142 815,-142 815,5 -4,5"/>
<!-- Node1 -->
<g id="node1" class="node"><title>Node1</title>
<polygon fill="#bfbfbf" stroke="black" points="316,-116.5 316,-137.5 482,-137.5 482,-116.5 316,-116.5"/>
<text text-anchor="middle" x="399" y="-124.5" font-family="Verdana" font-size="10.00">parameter/AreaConfiguration.h</text>
</g>
<!-- Node2 -->
<g id="node3" class="node"><title>Node2</title>
<a xlink:href="AreaConfiguration_8cpp.html" target="_top" xlink:title="parameter/AreaConfiguration.cpp">
<polygon fill="white" stroke="black" points="-0.5,-58.5 -0.5,-79.5 176.5,-79.5 176.5,-58.5 -0.5,-58.5"/>
<text text-anchor="middle" x="88" y="-66.5" font-family="Verdana" font-size="10.00">parameter/AreaConfiguration.cpp</text>
</a>
</g>
<!-- Node1&#45;&gt;Node2 -->
<g id="edge2" class="edge"><title>Node1&#45;&gt;Node2</title>
<path fill="none" stroke="midnightblue" d="M332.51,-114.6C276.534,-104.161 197.357,-89.3945 144.425,-79.5231"/>
<polygon fill="midnightblue" stroke="midnightblue" points="332.208,-118.104 342.68,-116.497 333.491,-111.223 332.208,-118.104"/>
</g>
<!-- Node3 -->
<g id="node5" class="node"><title>Node3</title>
<a xlink:href="BitwiseAreaConfiguration_8h.html" target="_top" xlink:title="parameter/BitwiseAreaConfiguration.h">
<polygon fill="white" stroke="black" points="193.5,-58.5 193.5,-79.5 392.5,-79.5 392.5,-58.5 193.5,-58.5"/>
<text text-anchor="middle" x="293" y="-66.5" font-family="Verdana" font-size="10.00">parameter/BitwiseAreaConfiguration.h</text>
</a>
</g>
<!-- Node1&#45;&gt;Node3 -->
<g id="edge4" class="edge"><title>Node1&#45;&gt;Node3</title>
<path fill="none" stroke="midnightblue" d="M370.704,-111.517C352.248,-101.419 328.644,-88.5032 312.319,-79.5707"/>
<polygon fill="midnightblue" stroke="midnightblue" points="369.105,-114.632 379.558,-116.362 372.465,-108.491 369.105,-114.632"/>
</g>
<!-- Node6 -->
<g id="node11" class="node"><title>Node6</title>
<a xlink:href="ConfigurableElement_8cpp.html" target="_top" xlink:title="parameter/ConfigurableElement.cpp">
<polygon fill="white" stroke="black" points="409.5,-58.5 409.5,-79.5 600.5,-79.5 600.5,-58.5 409.5,-58.5"/>
<text text-anchor="middle" x="505" y="-66.5" font-family="Verdana" font-size="10.00">parameter/ConfigurableElement.cpp</text>
</a>
</g>
<!-- Node1&#45;&gt;Node6 -->
<g id="edge10" class="edge"><title>Node1&#45;&gt;Node6</title>
<path fill="none" stroke="midnightblue" d="M427.296,-111.517C445.752,-101.419 469.356,-88.5032 485.681,-79.5707"/>
<polygon fill="midnightblue" stroke="midnightblue" points="425.535,-108.491 418.442,-116.362 428.895,-114.632 425.535,-108.491"/>
</g>
<!-- Node7 -->
<g id="node13" class="node"><title>Node7</title>
<a xlink:href="DomainConfiguration_8cpp.html" target="_top" xlink:title="parameter/DomainConfiguration.cpp">
<polygon fill="white" stroke="black" points="618,-58.5 618,-79.5 810,-79.5 810,-58.5 618,-58.5"/>
<text text-anchor="middle" x="714" y="-66.5" font-family="Verdana" font-size="10.00">parameter/DomainConfiguration.cpp</text>
</a>
</g>
<!-- Node1&#45;&gt;Node7 -->
<g id="edge12" class="edge"><title>Node1&#45;&gt;Node7</title>
<path fill="none" stroke="midnightblue" d="M465.993,-114.665C522.708,-104.222 603.126,-89.415 656.849,-79.5231"/>
<polygon fill="midnightblue" stroke="midnightblue" points="465.245,-111.244 456.044,-116.497 466.513,-118.128 465.245,-111.244"/>
</g>
<!-- Node4 -->
<g id="node7" class="node"><title>Node4</title>
<a xlink:href="BitParameter_8cpp.html" target="_top" xlink:title="parameter/BitParameter.cpp">
<polygon fill="white" stroke="black" points="116.5,-0.5 116.5,-21.5 269.5,-21.5 269.5,-0.5 116.5,-0.5"/>
<text text-anchor="middle" x="193" y="-8.5" font-family="Verdana" font-size="10.00">parameter/BitParameter.cpp</text>
</a>
</g>
<!-- Node3&#45;&gt;Node4 -->
<g id="edge6" class="edge"><title>Node3&#45;&gt;Node4</title>
<path fill="none" stroke="midnightblue" d="M265.588,-53.1009C248.286,-43.0658 226.415,-30.3808 211.225,-21.5707"/>
<polygon fill="midnightblue" stroke="midnightblue" points="264.252,-56.3723 274.658,-58.3619 267.764,-50.3171 264.252,-56.3723"/>
</g>
<!-- Node5 -->
<g id="node9" class="node"><title>Node5</title>
<a xlink:href="BitwiseAreaConfiguration_8cpp.html" target="_top" xlink:title="parameter/BitwiseAreaConfiguration.cpp">
<polygon fill="white" stroke="black" points="287,-0.5 287,-21.5 497,-21.5 497,-0.5 287,-0.5"/>
<text text-anchor="middle" x="392" y="-8.5" font-family="Verdana" font-size="10.00">parameter/BitwiseAreaConfiguration.cpp</text>
</a>
</g>
<!-- Node3&#45;&gt;Node5 -->
<g id="edge8" class="edge"><title>Node3&#45;&gt;Node5</title>
<path fill="none" stroke="midnightblue" d="M320.138,-53.1009C337.267,-43.0658 358.919,-30.3808 373.957,-21.5707"/>
<polygon fill="midnightblue" stroke="midnightblue" points="318.017,-50.287 311.158,-58.3619 321.556,-56.3268 318.017,-50.287"/>
</g>
</g>
</svg>
