<?xml version="1.0" encoding="UTF-8" standalone="no"?>
<!DOCTYPE svg PUBLIC "-//W3C//DTD SVG 1.1//EN"
 "http://www.w3.org/Graphics/SVG/1.1/DTD/svg11.dtd">
<!-- Generated by graphviz version 2.26.3 (20100126.1600)
 -->
<!-- Title: parameter/ArrayParameter.h Pages: 1 -->
<svg width="684pt" height="494pt"
 viewBox="0.00 0.00 684.00 494.00" xmlns="http://www.w3.org/2000/svg" xmlns:xlink="http://www.w3.org/1999/xlink">
<g id="graph1" class="graph" transform="scale(1 1) rotate(0) translate(4 490)">
<title>parameter/ArrayParameter.h</title>
<polygon fill="white" stroke="white" points="-4,5 -4,-490 681,-490 681,5 -4,5"/>
<!-- Node1 -->
<g id="node1" class="node"><title>Node1</title>
<polygon fill="#bfbfbf" stroke="black" points="280.5,-464.5 280.5,-485.5 435.5,-485.5 435.5,-464.5 280.5,-464.5"/>
<text text-anchor="middle" x="358" y="-472.5" font-family="Verdana" font-size="10.00">parameter/ArrayParameter.h</text>
</g>
<!-- Node2 -->
<g id="node3" class="node"><title>Node2</title>
<a xlink:href="Parameter_8h.html" target="_top" xlink:title="Parameter.h">
<polygon fill="white" stroke="black" points="320.5,-406.5 320.5,-427.5 395.5,-427.5 395.5,-406.5 320.5,-406.5"/>
<text text-anchor="middle" x="358" y="-414.5" font-family="Verdana" font-size="10.00">Parameter.h</text>
</a>
</g>
<!-- Node1&#45;&gt;Node2 -->
<g id="edge2" class="edge"><title>Node1&#45;&gt;Node2</title>
<path fill="none" stroke="midnightblue" d="M358,-464.362C358,-456.922 358,-446.743 358,-437.728"/>
<polygon fill="midnightblue" stroke="midnightblue" points="361.5,-437.571 358,-427.571 354.5,-437.571 361.5,-437.571"/>
</g>
<!-- Node3 -->
<g id="node5" class="node"><title>Node3</title>
<polygon fill="white" stroke="#bfbfbf" points="54.5,-0.5 54.5,-21.5 107.5,-21.5 107.5,-0.5 54.5,-0.5"/>
<text text-anchor="middle" x="81" y="-8.5" font-family="Verdana" font-size="10.00">stdint.h</text>
</g>
<!-- Node2&#45;&gt;Node3 -->
<g id="edge4" class="edge"><title>Node2&#45;&gt;Node3</title>
<path fill="none" stroke="midnightblue" d="M320.364,-412.916C228.449,-401.901 0,-367.804 0,-301 0,-301 0,-301 0,-127 0,-85.9121 34.5843,-48.9919 58.5563,-28.336"/>
<polygon fill="midnightblue" stroke="midnightblue" points="61.0588,-30.8075 66.5188,-21.7279 56.5884,-25.4209 61.0588,-30.8075"/>
</g>
<!-- Node4 -->
<g id="node7" class="node"><title>Node4</title>
<a xlink:href="BaseParameter_8h.html" target="_top" xlink:title="BaseParameter.h">
<polygon fill="white" stroke="black" points="308.5,-348.5 308.5,-369.5 407.5,-369.5 407.5,-348.5 308.5,-348.5"/>
<text text-anchor="middle" x="358" y="-356.5" font-family="Verdana" font-size="10.00">BaseParameter.h</text>
</a>
</g>
<!-- Node2&#45;&gt;Node4 -->
<g id="edge6" class="edge"><title>Node2&#45;&gt;Node4</title>
<path fill="none" stroke="midnightblue" d="M358,-406.362C358,-398.922 358,-388.743 358,-379.728"/>
<polygon fill="midnightblue" stroke="midnightblue" points="361.5,-379.571 358,-369.571 354.5,-379.571 361.5,-379.571"/>
</g>
<!-- Node10 -->
<g id="node20" class="node"><title>Node10</title>
<polygon fill="white" stroke="#bfbfbf" points="559,-0.5 559,-21.5 603,-21.5 603,-0.5 559,-0.5"/>
<text text-anchor="middle" x="581" y="-8.5" font-family="Verdana" font-size="10.00">string</text>
</g>
<!-- Node2&#45;&gt;Node10 -->
<g id="edge54" class="edge"><title>Node2&#45;&gt;Node10</title>
<path fill="none" stroke="midnightblue" d="M395.728,-411.416C479.962,-397.888 676,-360.061 676,-301 676,-301 676,-301 676,-127 676,-83.5461 635.605,-47.4386 607.496,-27.5737"/>
<polygon fill="midnightblue" stroke="midnightblue" points="609.106,-24.4357 598.869,-21.7061 605.169,-30.224 609.106,-24.4357"/>
</g>
<!-- Node4&#45;&gt;Node3 -->
<g id="edge8" class="edge"><title>Node4&#45;&gt;Node3</title>
<path fill="none" stroke="midnightblue" d="M308.351,-351.57C218.469,-336.711 38,-299.803 38,-243 38,-243 38,-243 38,-127 38,-91.2651 56.1629,-52.9821 68.8799,-30.5573"/>
<polygon fill="midnightblue" stroke="midnightblue" points="72.0351,-32.0967 74.0913,-21.7033 66.0025,-28.5459 72.0351,-32.0967"/>
</g>
<!-- Node5 -->
<g id="node10" class="node"><title>Node5</title>
<polygon fill="white" stroke="#bfbfbf" points="248.5,-0.5 248.5,-21.5 295.5,-21.5 295.5,-0.5 248.5,-0.5"/>
<text text-anchor="middle" x="272" y="-8.5" font-family="Verdana" font-size="10.00">vector</text>
</g>
<!-- Node4&#45;&gt;Node5 -->
<g id="edge10" class="edge"><title>Node4&#45;&gt;Node5</title>
<path fill="none" stroke="midnightblue" d="M358.218,-348.466C358.968,-326.281 362.289,-273.382 377,-232 406.162,-149.963 520.871,-126.398 467,-58 447.286,-32.9703 356.126,-19.7092 305.729,-14.1808"/>
<polygon fill="midnightblue" stroke="midnightblue" points="305.946,-10.6843 295.634,-13.117 305.212,-17.6458 305.946,-10.6843"/>
</g>
<!-- Node6 -->
<g id="node12" class="node"><title>Node6</title>
<a xlink:href="InstanceConfigurableElement_8h.html" target="_top" xlink:title="InstanceConfigurableElement.h">
<polygon fill="white" stroke="black" points="396,-290.5 396,-311.5 562,-311.5 562,-290.5 396,-290.5"/>
<text text-anchor="middle" x="479" y="-298.5" font-family="Verdana" font-size="10.00">InstanceConfigurableElement.h</text>
</a>
</g>
<!-- Node4&#45;&gt;Node6 -->
<g id="edge12" class="edge"><title>Node4&#45;&gt;Node6</title>
<path fill="none" stroke="midnightblue" d="M379.912,-348.497C398.811,-339.438 426.331,-326.246 447.576,-316.063"/>
<polygon fill="midnightblue" stroke="midnightblue" points="449.337,-319.1 456.842,-311.621 446.311,-312.788 449.337,-319.1"/>
</g>
<!-- Node7 -->
<g id="node14" class="node"><title>Node7</title>
<a xlink:href="ConfigurableElementWithMapping_8h.html" target="_top" xlink:title="ConfigurableElementWithMapping.h">
<polygon fill="white" stroke="black" points="386,-232.5 386,-253.5 572,-253.5 572,-232.5 386,-232.5"/>
<text text-anchor="middle" x="479" y="-240.5" font-family="Verdana" font-size="10.00">ConfigurableElementWithMapping.h</text>
</a>
</g>
<!-- Node6&#45;&gt;Node7 -->
<g id="edge14" class="edge"><title>Node6&#45;&gt;Node7</title>
<path fill="none" stroke="midnightblue" d="M479,-290.362C479,-282.922 479,-272.743 479,-263.728"/>
<polygon fill="midnightblue" stroke="midnightblue" points="482.5,-263.571 479,-253.571 475.5,-263.571 482.5,-263.571"/>
</g>
<!-- Node6&#45;&gt;Node10 -->
<g id="edge52" class="edge"><title>Node6&#45;&gt;Node10</title>
<path fill="none" stroke="midnightblue" d="M519.946,-290.452C567.057,-275.558 638,-243.43 638,-185 638,-185 638,-185 638,-127 638,-89.5289 613.746,-51.5841 596.88,-29.7281"/>
<polygon fill="midnightblue" stroke="midnightblue" points="599.396,-27.2705 590.412,-21.6538 593.933,-31.6467 599.396,-27.2705"/>
</g>
<!-- Node11 -->
<g id="node24" class="node"><title>Node11</title>
<polygon fill="white" stroke="#bfbfbf" points="66,-58.5 66,-79.5 96,-79.5 96,-58.5 66,-58.5"/>
<text text-anchor="middle" x="81" y="-66.5" font-family="Verdana" font-size="10.00">list</text>
</g>
<!-- Node6&#45;&gt;Node11 -->
<g id="edge50" class="edge"><title>Node6&#45;&gt;Node11</title>
<path fill="none" stroke="midnightblue" d="M446.636,-290.496C398.344,-274.093 305.458,-239.698 234,-196 180.658,-163.38 126.21,-113.346 98.921,-86.8677"/>
<polygon fill="midnightblue" stroke="midnightblue" points="101.253,-84.2529 91.6611,-79.7543 96.3544,-89.2529 101.253,-84.2529"/>
</g>
<!-- Node15 -->
<g id="node37" class="node"><title>Node15</title>
<a xlink:href="TypeElement_8h.html" target="_top" xlink:title="TypeElement.h">
<polygon fill="white" stroke="black" points="486,-174.5 486,-195.5 572,-195.5 572,-174.5 486,-174.5"/>
<text text-anchor="middle" x="529" y="-182.5" font-family="Verdana" font-size="10.00">TypeElement.h</text>
</a>
</g>
<!-- Node6&#45;&gt;Node15 -->
<g id="edge44" class="edge"><title>Node6&#45;&gt;Node15</title>
<path fill="none" stroke="midnightblue" d="M528.602,-290.481C548.417,-283.585 569.277,-272.309 581,-254 592.994,-235.267 573.645,-215.085 555.24,-201.417"/>
<polygon fill="midnightblue" stroke="midnightblue" points="557.165,-198.493 546.966,-195.625 553.15,-204.227 557.165,-198.493"/>
</g>
<!-- Node8 -->
<g id="node16" class="node"><title>Node8</title>
<a xlink:href="ConfigurableElement_8h.html" target="_top" xlink:title="ConfigurableElement.h">
<polygon fill="white" stroke="black" points="242.5,-174.5 242.5,-195.5 367.5,-195.5 367.5,-174.5 242.5,-174.5"/>
<text text-anchor="middle" x="305" y="-182.5" font-family="Verdana" font-size="10.00">ConfigurableElement.h</text>
</a>
</g>
<!-- Node7&#45;&gt;Node8 -->
<g id="edge16" class="edge"><title>Node7&#45;&gt;Node8</title>
<path fill="none" stroke="midnightblue" d="M447.49,-232.497C419.123,-223.041 377.249,-209.083 346.228,-198.743"/>
<polygon fill="midnightblue" stroke="midnightblue" points="347.163,-195.365 336.569,-195.523 344.949,-202.006 347.163,-195.365"/>
</g>
<!-- Node7&#45;&gt;Node10 -->
<g id="edge42" class="edge"><title>Node7&#45;&gt;Node10</title>
<path fill="none" stroke="midnightblue" d="M528.602,-232.481C548.417,-225.585 569.277,-214.309 581,-196 613.802,-144.768 598.066,-68.0759 587.659,-31.6426"/>
<polygon fill="midnightblue" stroke="midnightblue" points="590.899,-30.2641 584.66,-21.701 584.197,-32.2857 590.899,-30.2641"/>
</g>
<!-- Node9 -->
<g id="node18" class="node"><title>Node9</title>
<a xlink:href="Element_8h.html" target="_top" xlink:title="Element.h">
<polygon fill="white" stroke="black" points="272.5,-116.5 272.5,-137.5 337.5,-137.5 337.5,-116.5 272.5,-116.5"/>
<text text-anchor="middle" x="305" y="-124.5" font-family="Verdana" font-size="10.00">Element.h</text>
</a>
</g>
<!-- Node8&#45;&gt;Node9 -->
<g id="edge18" class="edge"><title>Node8&#45;&gt;Node9</title>
<path fill="none" stroke="midnightblue" d="M305,-174.362C305,-166.922 305,-156.743 305,-147.728"/>
<polygon fill="midnightblue" stroke="midnightblue" points="308.5,-147.571 305,-137.571 301.5,-147.571 308.5,-147.571"/>
</g>
<!-- Node8&#45;&gt;Node11 -->
<g id="edge40" class="edge"><title>Node8&#45;&gt;Node11</title>
<path fill="none" stroke="midnightblue" d="M285.08,-174.374C259.451,-160.734 213.519,-136.392 174,-116 150.727,-103.991 124.036,-90.5343 105.234,-81.1075"/>
<polygon fill="midnightblue" stroke="midnightblue" points="106.69,-77.9223 96.1817,-76.5742 103.556,-84.1814 106.69,-77.9223"/>
</g>
<!-- Node9&#45;&gt;Node3 -->
<g id="edge24" class="edge"><title>Node9&#45;&gt;Node3</title>
<path fill="none" stroke="midnightblue" d="M272.401,-122.947C238.05,-117.494 183.428,-105.379 143,-80 122.476,-67.1162 104.66,-45.5402 93.4583,-29.941"/>
<polygon fill="midnightblue" stroke="midnightblue" points="96.2256,-27.7893 87.657,-21.558 90.4695,-31.7727 96.2256,-27.7893"/>
</g>
<!-- Node9&#45;&gt;Node5 -->
<g id="edge22" class="edge"><title>Node9&#45;&gt;Node5</title>
<path fill="none" stroke="midnightblue" d="M301.711,-116.191C298.832,-106.677 294.565,-92.4405 291,-80 286.354,-63.7895 281.294,-45.3738 277.565,-31.6473"/>
<polygon fill="midnightblue" stroke="midnightblue" points="280.884,-30.514 274.893,-21.7759 274.127,-32.3431 280.884,-30.514"/>
</g>
<!-- Node9&#45;&gt;Node10 -->
<g id="edge20" class="edge"><title>Node9&#45;&gt;Node10</title>
<path fill="none" stroke="midnightblue" d="M337.532,-120.21C370.879,-112.645 423.822,-98.9375 467,-80 500.145,-65.4628 535.354,-42.9246 557.726,-27.5935"/>
<polygon fill="midnightblue" stroke="midnightblue" points="559.985,-30.2856 566.203,-21.7069 555.992,-24.536 559.985,-30.2856"/>
</g>
<!-- Node9&#45;&gt;Node11 -->
<g id="edge26" class="edge"><title>Node9&#45;&gt;Node11</title>
<path fill="none" stroke="midnightblue" d="M272.227,-120.422C233.202,-112.286 166.232,-97.3655 110,-80 108.585,-79.5631 107.14,-79.0931 105.686,-78.6021"/>
<polygon fill="midnightblue" stroke="midnightblue" points="106.82,-75.2905 96.226,-75.1877 104.444,-81.8748 106.82,-75.2905"/>
</g>
<!-- Node12 -->
<g id="node26" class="node"><title>Node12</title>
<polygon fill="white" stroke="#bfbfbf" points="394,-58.5 394,-79.5 458,-79.5 458,-58.5 394,-58.5"/>
<text text-anchor="middle" x="426" y="-66.5" font-family="Verdana" font-size="10.00">XmlSink.h</text>
</g>
<!-- Node9&#45;&gt;Node12 -->
<g id="edge28" class="edge"><title>Node9&#45;&gt;Node12</title>
<path fill="none" stroke="midnightblue" d="M326.912,-116.497C345.811,-107.438 373.331,-94.2462 394.576,-84.0628"/>
<polygon fill="midnightblue" stroke="midnightblue" points="396.337,-87.0999 403.842,-79.6212 393.311,-80.7876 396.337,-87.0999"/>
</g>
<!-- Node13 -->
<g id="node28" class="node"><title>Node13</title>
<polygon fill="white" stroke="#bfbfbf" points="299.5,-58.5 299.5,-79.5 376.5,-79.5 376.5,-58.5 299.5,-58.5"/>
<text text-anchor="middle" x="338" y="-66.5" font-family="Verdana" font-size="10.00">XmlSource.h</text>
</g>
<!-- Node9&#45;&gt;Node13 -->
<g id="edge30" class="edge"><title>Node9&#45;&gt;Node13</title>
<path fill="none" stroke="midnightblue" d="M311.053,-116.362C315.472,-108.595 321.59,-97.8426 326.879,-88.5458"/>
<polygon fill="midnightblue" stroke="midnightblue" points="330.082,-89.9932 331.986,-79.5707 323.998,-86.5315 330.082,-89.9932"/>
</g>
<!-- Node14 -->
<g id="node30" class="node"><title>Node14</title>
<a xlink:href="PathNavigator_8h.html" target="_top" xlink:title="PathNavigator.h">
<polygon fill="white" stroke="black" points="152,-58.5 152,-79.5 244,-79.5 244,-58.5 152,-58.5"/>
<text text-anchor="middle" x="198" y="-66.5" font-family="Verdana" font-size="10.00">PathNavigator.h</text>
</a>
</g>
<!-- Node9&#45;&gt;Node14 -->
<g id="edge32" class="edge"><title>Node9&#45;&gt;Node14</title>
<path fill="none" stroke="midnightblue" d="M285.375,-116.362C268.859,-107.409 245.026,-94.4908 226.422,-84.4064"/>
<polygon fill="midnightblue" stroke="midnightblue" points="227.96,-81.2592 217.501,-79.5707 224.625,-87.4132 227.96,-81.2592"/>
</g>
<!-- Node14&#45;&gt;Node3 -->
<g id="edge38" class="edge"><title>Node14&#45;&gt;Node3</title>
<path fill="none" stroke="midnightblue" d="M176.812,-58.4966C158.538,-49.4378 131.928,-36.2462 111.385,-26.0628"/>
<polygon fill="midnightblue" stroke="midnightblue" points="112.94,-22.9269 102.426,-21.6212 109.831,-29.1986 112.94,-22.9269"/>
</g>
<!-- Node14&#45;&gt;Node5 -->
<g id="edge34" class="edge"><title>Node14&#45;&gt;Node5</title>
<path fill="none" stroke="midnightblue" d="M211.573,-58.3619C222.421,-49.859 237.834,-37.7785 250.379,-27.9466"/>
<polygon fill="midnightblue" stroke="midnightblue" points="252.802,-30.4942 258.513,-21.5707 248.484,-24.9848 252.802,-30.4942"/>
</g>
<!-- Node14&#45;&gt;Node10 -->
<g id="edge36" class="edge"><title>Node14&#45;&gt;Node10</title>
<path fill="none" stroke="midnightblue" d="M244.199,-62.0038C322.762,-50.1065 480.476,-26.2229 548.522,-15.9183"/>
<polygon fill="midnightblue" stroke="midnightblue" points="549.284,-19.3429 558.648,-14.385 548.236,-12.4218 549.284,-19.3429"/>
</g>
<!-- Node15&#45;&gt;Node9 -->
<g id="edge46" class="edge"><title>Node15&#45;&gt;Node9</title>
<path fill="none" stroke="midnightblue" d="M488.435,-174.497C448.57,-164.174 387.981,-148.486 347.47,-137.997"/>
<polygon fill="midnightblue" stroke="midnightblue" points="348.187,-134.567 337.629,-135.448 346.432,-141.343 348.187,-134.567"/>
</g>
<!-- Node15&#45;&gt;Node10 -->
<g id="edge48" class="edge"><title>Node15&#45;&gt;Node10</title>
<path fill="none" stroke="midnightblue" d="M532.175,-174.377C540.604,-146.172 563.663,-69.0121 574.808,-31.7203"/>
<polygon fill="midnightblue" stroke="midnightblue" points="578.224,-32.5112 577.734,-21.9277 571.517,-30.5068 578.224,-32.5112"/>
</g>
</g>
</svg>
