<?xml version="1.0" encoding="UTF-8" standalone="no"?>
<!DOCTYPE svg PUBLIC "-//W3C//DTD SVG 1.1//EN"
 "http://www.w3.org/Graphics/SVG/1.1/DTD/svg11.dtd">
<!-- Generated by graphviz version 2.26.3 (20100126.1600)
 -->
<!-- Title: parameter/AutoLog.h Pages: 1 -->
<svg width="1048pt" height="102pt"
 viewBox="0.00 0.00 1048.00 102.00" xmlns="http://www.w3.org/2000/svg" xmlns:xlink="http://www.w3.org/1999/xlink">
<g id="graph1" class="graph" transform="scale(1 1) rotate(0) translate(4 98)">
<title>parameter/AutoLog.h</title>
<polygon fill="white" stroke="white" points="-4,5 -4,-98 1045,-98 1045,5 -4,5"/>
<!-- Node1 -->
<g id="node1" class="node"><title>Node1</title>
<polygon fill="#bfbfbf" stroke="black" points="471.5,-72.5 471.5,-93.5 590.5,-93.5 590.5,-72.5 471.5,-72.5"/>
<text text-anchor="middle" x="531" y="-80.5" font-family="Verdana" font-size="10.00">parameter/AutoLog.h</text>
</g>
<!-- Node2 -->
<g id="node3" class="node"><title>Node2</title>
<a xlink:href="AutoLog_8cpp.html" target="_top" xlink:title="parameter/AutoLog.cpp">
<polygon fill="white" stroke="black" points="-0.5,-7.5 -0.5,-28.5 130.5,-28.5 130.5,-7.5 -0.5,-7.5"/>
<text text-anchor="middle" x="65" y="-15.5" font-family="Verdana" font-size="10.00">parameter/AutoLog.cpp</text>
</a>
</g>
<!-- Node1&#45;&gt;Node2 -->
<g id="edge2" class="edge"><title>Node1&#45;&gt;Node2</title>
<path fill="none" stroke="midnightblue" d="M460.955,-77.1425C382.241,-69.9716 250.833,-56.2311 139,-36 127.811,-33.9758 115.788,-31.2803 104.755,-28.5929"/>
<polygon fill="midnightblue" stroke="midnightblue" points="460.959,-80.6569 471.233,-78.0686 461.587,-73.6851 460.959,-80.6569"/>
</g>
<!-- Node3 -->
<g id="node5" class="node"><title>Node3</title>
<a xlink:href="ConfigurableDomains_8cpp.html" target="_top" xlink:title="parameter/ConfigurableDomains.cpp">
<polygon fill="white" stroke="black" points="148,-7.5 148,-28.5 342,-28.5 342,-7.5 148,-7.5"/>
<text text-anchor="middle" x="245" y="-15.5" font-family="Verdana" font-size="10.00">parameter/ConfigurableDomains.cpp</text>
</a>
</g>
<!-- Node1&#45;&gt;Node3 -->
<g id="edge4" class="edge"><title>Node1&#45;&gt;Node3</title>
<path fill="none" stroke="midnightblue" d="M474.698,-70.2041C421.042,-58.0095 341.228,-39.8699 291.202,-28.5005"/>
<polygon fill="midnightblue" stroke="midnightblue" points="474.204,-73.6811 484.731,-72.4844 475.756,-66.8551 474.204,-73.6811"/>
</g>
<!-- Node4 -->
<g id="node7" class="node"><title>Node4</title>
<a xlink:href="ParameterMgr_8cpp.html" target="_top" xlink:title="parameter/ParameterMgr.cpp">
<polygon fill="white" stroke="black" points="360,-7.5 360,-28.5 518,-28.5 518,-7.5 360,-7.5"/>
<text text-anchor="middle" x="439" y="-15.5" font-family="Verdana" font-size="10.00">parameter/ParameterMgr.cpp</text>
</a>
</g>
<!-- Node1&#45;&gt;Node4 -->
<g id="edge6" class="edge"><title>Node1&#45;&gt;Node4</title>
<path fill="none" stroke="midnightblue" d="M507.543,-66.4268C490.666,-54.5032 468.412,-38.7803 453.909,-28.5337"/>
<polygon fill="midnightblue" stroke="midnightblue" points="505.621,-69.3547 515.808,-72.2666 509.66,-63.6377 505.621,-69.3547"/>
</g>
<!-- Node5 -->
<g id="node9" class="node"><title>Node5</title>
<a xlink:href="SelectionCriterion_8cpp.html" target="_top" xlink:title="parameter/SelectionCriterion.cpp">
<polygon fill="white" stroke="black" points="536,-7.5 536,-28.5 712,-28.5 712,-7.5 536,-7.5"/>
<text text-anchor="middle" x="624" y="-15.5" font-family="Verdana" font-size="10.00">parameter/SelectionCriterion.cpp</text>
</a>
</g>
<!-- Node1&#45;&gt;Node5 -->
<g id="edge8" class="edge"><title>Node1&#45;&gt;Node5</title>
<path fill="none" stroke="midnightblue" d="M554.712,-66.4268C571.772,-54.5032 594.268,-38.7803 608.929,-28.5337"/>
<polygon fill="midnightblue" stroke="midnightblue" points="552.548,-63.6691 546.357,-72.2666 556.559,-69.4066 552.548,-63.6691"/>
</g>
<!-- Node6 -->
<g id="node11" class="node"><title>Node6</title>
<a xlink:href="SystemClass_8cpp.html" target="_top" xlink:title="parameter/SystemClass.cpp">
<polygon fill="white" stroke="black" points="729.5,-7.5 729.5,-28.5 882.5,-28.5 882.5,-7.5 729.5,-7.5"/>
<text text-anchor="middle" x="806" y="-15.5" font-family="Verdana" font-size="10.00">parameter/SystemClass.cpp</text>
</a>
</g>
<!-- Node1&#45;&gt;Node6 -->
<g id="edge10" class="edge"><title>Node1&#45;&gt;Node6</title>
<path fill="none" stroke="midnightblue" d="M585.459,-70.128C637.048,-57.9341 713.573,-39.8463 761.575,-28.5005"/>
<polygon fill="midnightblue" stroke="midnightblue" points="584.416,-66.7779 575.489,-72.4844 586.026,-73.5902 584.416,-66.7779"/>
</g>
<!-- Node7 -->
<g id="node13" class="node"><title>Node7</title>
<a xlink:href="XmlFileIncluderElement_8cpp.html" target="_top" xlink:title="parameter/XmlFileIncluder\lElement.cpp">
<polygon fill="white" stroke="black" points="899.5,-1 899.5,-35 1040.5,-35 1040.5,-1 899.5,-1"/>
<text text-anchor="start" x="907.5" y="-22" font-family="Verdana" font-size="10.00">parameter/XmlFileIncluder</text>
<text text-anchor="middle" x="970" y="-9" font-family="Verdana" font-size="10.00">Element.cpp</text>
</a>
</g>
<!-- Node1&#45;&gt;Node7 -->
<g id="edge12" class="edge"><title>Node1&#45;&gt;Node7</title>
<path fill="none" stroke="midnightblue" d="M600.465,-75.8954C673.187,-67.9991 790.556,-53.9586 891,-36 893.769,-35.5048 896.588,-34.9772 899.432,-34.4252"/>
<polygon fill="midnightblue" stroke="midnightblue" points="600.074,-72.4172 590.507,-76.9686 600.824,-79.3769 600.074,-72.4172"/>
</g>
</g>
</svg>
