<?xml version="1.0" encoding="UTF-8" standalone="no"?>
<!DOCTYPE svg PUBLIC "-//W3C//DTD SVG 1.1//EN"
 "http://www.w3.org/Graphics/SVG/1.1/DTD/svg11.dtd">
<!-- Generated by graphviz version 2.26.3 (20100126.1600)
 -->
<!-- Title: parameter/AutoLock.h Pages: 1 -->
<svg width="358pt" height="88pt"
 viewBox="0.00 0.00 358.00 88.00" xmlns="http://www.w3.org/2000/svg" xmlns:xlink="http://www.w3.org/1999/xlink">
<g id="graph1" class="graph" transform="scale(1 1) rotate(0) translate(4 84)">
<title>parameter/AutoLock.h</title>
<polygon fill="white" stroke="white" points="-4,5 -4,-84 355,-84 355,5 -4,5"/>
<!-- Node1 -->
<g id="node1" class="node"><title>Node1</title>
<polygon fill="#bfbfbf" stroke="black" points="117,-58.5 117,-79.5 241,-79.5 241,-58.5 117,-58.5"/>
<text text-anchor="middle" x="179" y="-66.5" font-family="Verdana" font-size="10.00">parameter/AutoLock.h</text>
</g>
<!-- Node2 -->
<g id="node3" class="node"><title>Node2</title>
<a xlink:href="ParameterHandle_8cpp.html" target="_top" xlink:title="parameter/ParameterHandle.cpp">
<polygon fill="white" stroke="black" points="-0.5,-0.5 -0.5,-21.5 174.5,-21.5 174.5,-0.5 -0.5,-0.5"/>
<text text-anchor="middle" x="87" y="-8.5" font-family="Verdana" font-size="10.00">parameter/ParameterHandle.cpp</text>
</a>
</g>
<!-- Node1&#45;&gt;Node2 -->
<g id="edge2" class="edge"><title>Node1&#45;&gt;Node2</title>
<path fill="none" stroke="midnightblue" d="M153.338,-52.8215C137.491,-42.8312 117.613,-30.2993 103.767,-21.5707"/>
<polygon fill="midnightblue" stroke="midnightblue" points="151.8,-55.9896 162.126,-58.3619 155.533,-50.0681 151.8,-55.9896"/>
</g>
<!-- Node3 -->
<g id="node5" class="node"><title>Node3</title>
<a xlink:href="ParameterMgr_8cpp.html" target="_top" xlink:title="parameter/ParameterMgr.cpp">
<polygon fill="white" stroke="black" points="192,-0.5 192,-21.5 350,-21.5 350,-0.5 192,-0.5"/>
<text text-anchor="middle" x="271" y="-8.5" font-family="Verdana" font-size="10.00">parameter/ParameterMgr.cpp</text>
</a>
</g>
<!-- Node1&#45;&gt;Node3 -->
<g id="edge4" class="edge"><title>Node1&#45;&gt;Node3</title>
<path fill="none" stroke="midnightblue" d="M204.662,-52.8215C220.509,-42.8312 240.387,-30.2993 254.233,-21.5707"/>
<polygon fill="midnightblue" stroke="midnightblue" points="202.467,-50.0681 195.874,-58.3619 206.2,-55.9896 202.467,-50.0681"/>
</g>
</g>
</svg>
