<?xml version="1.0" encoding="UTF-8" standalone="no"?>
<!DOCTYPE svg PUBLIC "-//W3C//DTD SVG 1.1//EN"
 "http://www.w3.org/Graphics/SVG/1.1/DTD/svg11.dtd">
<!-- Generated by graphviz version 2.26.3 (20100126.1600)
 -->
<!-- Title: parameter/BackSynchronizer.h Pages: 1 -->
<svg width="646pt" height="146pt"
 viewBox="0.00 0.00 646.00 146.00" xmlns="http://www.w3.org/2000/svg" xmlns:xlink="http://www.w3.org/1999/xlink">
<g id="graph1" class="graph" transform="scale(1 1) rotate(0) translate(4 142)">
<title>parameter/BackSynchronizer.h</title>
<polygon fill="white" stroke="white" points="-4,5 -4,-142 643,-142 643,5 -4,5"/>
<!-- Node1 -->
<g id="node1" class="node"><title>Node1</title>
<polygon fill="#bfbfbf" stroke="black" points="235,-116.5 235,-137.5 399,-137.5 399,-116.5 235,-116.5"/>
<text text-anchor="middle" x="317" y="-124.5" font-family="Verdana" font-size="10.00">parameter/BackSynchronizer.h</text>
</g>
<!-- Node2 -->
<g id="node3" class="node"><title>Node2</title>
<a xlink:href="HardwareBackSynchronizer_8h.html" target="_top" xlink:title="parameter/HardwareBackSynchronizer.h">
<polygon fill="white" stroke="black" points="98,-58.5 98,-79.5 308,-79.5 308,-58.5 98,-58.5"/>
<text text-anchor="middle" x="203" y="-66.5" font-family="Verdana" font-size="10.00">parameter/HardwareBackSynchronizer.h</text>
</a>
</g>
<!-- Node1&#45;&gt;Node2 -->
<g id="edge2" class="edge"><title>Node1&#45;&gt;Node2</title>
<path fill="none" stroke="midnightblue" d="M287.383,-111.932C267.456,-101.793 241.671,-88.6748 223.876,-79.6212"/>
<polygon fill="midnightblue" stroke="midnightblue" points="285.856,-115.081 296.355,-116.497 289.03,-108.843 285.856,-115.081"/>
</g>
<!-- Node5 -->
<g id="node9" class="node"><title>Node5</title>
<a xlink:href="SimulatedBackSynchronizer_8h.html" target="_top" xlink:title="parameter/SimulatedBackSynchronizer.h">
<polygon fill="white" stroke="black" points="325.5,-58.5 325.5,-79.5 538.5,-79.5 538.5,-58.5 325.5,-58.5"/>
<text text-anchor="middle" x="432" y="-66.5" font-family="Verdana" font-size="10.00">parameter/SimulatedBackSynchronizer.h</text>
</a>
</g>
<!-- Node1&#45;&gt;Node5 -->
<g id="edge8" class="edge"><title>Node1&#45;&gt;Node5</title>
<path fill="none" stroke="midnightblue" d="M346.876,-111.932C366.979,-101.793 392.99,-88.6748 410.941,-79.6212"/>
<polygon fill="midnightblue" stroke="midnightblue" points="345.178,-108.868 337.826,-116.497 348.33,-115.118 345.178,-108.868"/>
</g>
<!-- Node3 -->
<g id="node5" class="node"><title>Node3</title>
<a xlink:href="HardwareBackSynchronizer_8cpp.html" target="_top" xlink:title="parameter/HardwareBackSynchronizer.cpp">
<polygon fill="white" stroke="black" points="-0.5,-0.5 -0.5,-21.5 220.5,-21.5 220.5,-0.5 -0.5,-0.5"/>
<text text-anchor="middle" x="110" y="-8.5" font-family="Verdana" font-size="10.00">parameter/HardwareBackSynchronizer.cpp</text>
</a>
</g>
<!-- Node2&#45;&gt;Node3 -->
<g id="edge4" class="edge"><title>Node2&#45;&gt;Node3</title>
<path fill="none" stroke="midnightblue" d="M177.059,-52.8215C161.04,-42.8312 140.945,-30.2993 126.949,-21.5707"/>
<polygon fill="midnightblue" stroke="midnightblue" points="175.605,-56.0399 185.942,-58.3619 179.309,-50.1003 175.605,-56.0399"/>
</g>
<!-- Node4 -->
<g id="node7" class="node"><title>Node4</title>
<a xlink:href="ParameterMgr_8cpp.html" target="_top" xlink:title="parameter/ParameterMgr.cpp">
<polygon fill="white" stroke="black" points="238,-0.5 238,-21.5 396,-21.5 396,-0.5 238,-0.5"/>
<text text-anchor="middle" x="317" y="-8.5" font-family="Verdana" font-size="10.00">parameter/ParameterMgr.cpp</text>
</a>
</g>
<!-- Node2&#45;&gt;Node4 -->
<g id="edge6" class="edge"><title>Node2&#45;&gt;Node4</title>
<path fill="none" stroke="midnightblue" d="M232.617,-53.9319C252.544,-43.7932 278.329,-30.6748 296.124,-21.6212"/>
<polygon fill="midnightblue" stroke="midnightblue" points="230.97,-50.8425 223.645,-58.4966 234.144,-57.0815 230.97,-50.8425"/>
</g>
<!-- Node5&#45;&gt;Node4 -->
<g id="edge10" class="edge"><title>Node5&#45;&gt;Node4</title>
<path fill="none" stroke="midnightblue" d="M402.124,-53.9319C382.021,-43.7932 356.01,-30.6748 338.059,-21.6212"/>
<polygon fill="midnightblue" stroke="midnightblue" points="400.67,-57.1185 411.174,-58.4966 403.822,-50.8684 400.67,-57.1185"/>
</g>
<!-- Node6 -->
<g id="node12" class="node"><title>Node6</title>
<a xlink:href="SimulatedBackSynchronizer_8cpp.html" target="_top" xlink:title="parameter/SimulatedBackSynchronizer.cpp">
<polygon fill="white" stroke="black" points="414,-0.5 414,-21.5 638,-21.5 638,-0.5 414,-0.5"/>
<text text-anchor="middle" x="526" y="-8.5" font-family="Verdana" font-size="10.00">parameter/SimulatedBackSynchronizer.cpp</text>
</a>
</g>
<!-- Node5&#45;&gt;Node6 -->
<g id="edge12" class="edge"><title>Node5&#45;&gt;Node6</title>
<path fill="none" stroke="midnightblue" d="M457.767,-53.1009C474.031,-43.0658 494.59,-30.3808 508.868,-21.5707"/>
<polygon fill="midnightblue" stroke="midnightblue" points="455.914,-50.1322 449.241,-58.3619 459.589,-56.0894 455.914,-50.1322"/>
</g>
</g>
</svg>
