<?xml version="1.0" encoding="UTF-8" standalone="no"?>
<!DOCTYPE svg PUBLIC "-//W3C//DTD SVG 1.1//EN"
 "http://www.w3.org/Graphics/SVG/1.1/DTD/svg11.dtd">
<!-- Generated by graphviz version 2.26.3 (20100126.1600)
 -->
<!-- Title: parameter/BackSynchronizer.h Pages: 1 -->
<svg width="528pt" height="262pt"
 viewBox="0.00 0.00 528.11 262.00" xmlns="http://www.w3.org/2000/svg" xmlns:xlink="http://www.w3.org/1999/xlink">
<g id="graph1" class="graph" transform="scale(1 1) rotate(0) translate(4 258)">
<title>parameter/BackSynchronizer.h</title>
<polygon fill="white" stroke="white" points="-4,5 -4,-258 525.114,-258 525.114,5 -4,5"/>
<!-- Node1 -->
<g id="node1" class="node"><title>Node1</title>
<polygon fill="#bfbfbf" stroke="black" points="23.1139,-232.5 23.1139,-253.5 187.114,-253.5 187.114,-232.5 23.1139,-232.5"/>
<text text-anchor="middle" x="105.114" y="-240.5" font-family="Verdana" font-size="10.00">parameter/BackSynchronizer.h</text>
</g>
<!-- Node2 -->
<g id="node3" class="node"><title>Node2</title>
<a xlink:href="ConfigurableElementAggregator_8h.html" target="_top" xlink:title="ConfigurableElementAggregator.h">
<polygon fill="white" stroke="black" points="15.6139,-116.5 15.6139,-137.5 194.614,-137.5 194.614,-116.5 15.6139,-116.5"/>
<text text-anchor="middle" x="105.114" y="-124.5" font-family="Verdana" font-size="10.00">ConfigurableElementAggregator.h</text>
</a>
</g>
<!-- Node1&#45;&gt;Node2 -->
<g id="edge2" class="edge"><title>Node1&#45;&gt;Node2</title>
<path fill="none" stroke="midnightblue" d="M105.114,-232.295C105.114,-213.131 105.114,-172.654 105.114,-147.843"/>
<polygon fill="midnightblue" stroke="midnightblue" points="108.614,-147.679 105.114,-137.679 101.614,-147.679 108.614,-147.679"/>
</g>
<!-- Node3 -->
<g id="node5" class="node"><title>Node3</title>
<polygon fill="white" stroke="#bfbfbf" points="90.1139,-58.5 90.1139,-79.5 120.114,-79.5 120.114,-58.5 90.1139,-58.5"/>
<text text-anchor="middle" x="105.114" y="-66.5" font-family="Verdana" font-size="10.00">list</text>
</g>
<!-- Node1&#45;&gt;Node3 -->
<g id="edge34" class="edge"><title>Node1&#45;&gt;Node3</title>
<path fill="none" stroke="midnightblue" d="M85.8678,-232.47C49.8193,-211.336 -21.7421,-161.842 7.11387,-116 22.9787,-90.7963 56.5307,-78.8053 79.9309,-73.315"/>
<polygon fill="midnightblue" stroke="midnightblue" points="80.8021,-76.7084 89.868,-71.2257 79.3618,-69.8582 80.8021,-76.7084"/>
</g>
<!-- Node5 -->
<g id="node9" class="node"><title>Node5</title>
<a xlink:href="ConfigurableElement_8h.html" target="_top" xlink:title="ConfigurableElement.h">
<polygon fill="white" stroke="black" points="159.614,-174.5 159.614,-195.5 284.614,-195.5 284.614,-174.5 159.614,-174.5"/>
<text text-anchor="middle" x="222.114" y="-182.5" font-family="Verdana" font-size="10.00">ConfigurableElement.h</text>
</a>
</g>
<!-- Node1&#45;&gt;Node5 -->
<g id="edge8" class="edge"><title>Node1&#45;&gt;Node5</title>
<path fill="none" stroke="midnightblue" d="M126.302,-232.497C144.576,-223.438 171.186,-210.246 191.729,-200.063"/>
<polygon fill="midnightblue" stroke="midnightblue" points="193.283,-203.199 200.688,-195.621 190.174,-196.927 193.283,-203.199"/>
</g>
<!-- Node2&#45;&gt;Node3 -->
<g id="edge4" class="edge"><title>Node2&#45;&gt;Node3</title>
<path fill="none" stroke="midnightblue" d="M105.114,-116.362C105.114,-108.922 105.114,-98.7427 105.114,-89.7276"/>
<polygon fill="midnightblue" stroke="midnightblue" points="108.614,-89.5706 105.114,-79.5707 101.614,-89.5707 108.614,-89.5706"/>
</g>
<!-- Node4 -->
<g id="node7" class="node"><title>Node4</title>
<polygon fill="white" stroke="#bfbfbf" points="126.114,-0.5 126.114,-21.5 170.114,-21.5 170.114,-0.5 126.114,-0.5"/>
<text text-anchor="middle" x="148.114" y="-8.5" font-family="Verdana" font-size="10.00">string</text>
</g>
<!-- Node2&#45;&gt;Node4 -->
<g id="edge6" class="edge"><title>Node2&#45;&gt;Node4</title>
<path fill="none" stroke="midnightblue" d="M96.1702,-116.324C85.6786,-102.419 70.9321,-77.5795 81.1139,-58 88.7304,-43.3534 103.234,-32.3204 116.805,-24.6378"/>
<polygon fill="midnightblue" stroke="midnightblue" points="118.717,-27.5879 125.955,-19.8512 115.472,-21.3854 118.717,-27.5879"/>
</g>
<!-- Node5&#45;&gt;Node3 -->
<g id="edge32" class="edge"><title>Node5&#45;&gt;Node3</title>
<path fill="none" stroke="midnightblue" d="M221.847,-174.413C220.942,-159.7 217.297,-132.97 203.114,-116 197.995,-109.875 156.824,-91.3113 129.499,-79.4295"/>
<polygon fill="midnightblue" stroke="midnightblue" points="130.718,-76.1438 120.15,-75.3897 127.942,-82.5695 130.718,-76.1438"/>
</g>
<!-- Node6 -->
<g id="node11" class="node"><title>Node6</title>
<a xlink:href="Element_8h.html" target="_top" xlink:title="Element.h">
<polygon fill="white" stroke="black" points="256.614,-116.5 256.614,-137.5 321.614,-137.5 321.614,-116.5 256.614,-116.5"/>
<text text-anchor="middle" x="289.114" y="-124.5" font-family="Verdana" font-size="10.00">Element.h</text>
</a>
</g>
<!-- Node5&#45;&gt;Node6 -->
<g id="edge10" class="edge"><title>Node5&#45;&gt;Node6</title>
<path fill="none" stroke="midnightblue" d="M234.403,-174.362C244.131,-165.941 257.912,-154.011 269.209,-144.231"/>
<polygon fill="midnightblue" stroke="midnightblue" points="271.633,-146.762 276.903,-137.571 267.052,-141.469 271.633,-146.762"/>
</g>
<!-- Node6&#45;&gt;Node3 -->
<g id="edge18" class="edge"><title>Node6&#45;&gt;Node3</title>
<path fill="none" stroke="midnightblue" d="M256.55,-117.826C225.043,-108.785 176.034,-94.2876 134.114,-80 132.712,-79.5223 131.277,-79.0203 129.832,-78.5047"/>
<polygon fill="midnightblue" stroke="midnightblue" points="130.988,-75.2006 120.395,-75.0192 128.563,-81.7671 130.988,-75.2006"/>
</g>
<!-- Node6&#45;&gt;Node4 -->
<g id="edge12" class="edge"><title>Node6&#45;&gt;Node4</title>
<path fill="none" stroke="midnightblue" d="M256.535,-122.694C228.94,-117.348 190.272,-105.573 167.114,-80 155.284,-66.9364 150.73,-47.1662 149.022,-32.1318"/>
<polygon fill="midnightblue" stroke="midnightblue" points="152.478,-31.4388 148.196,-21.7477 145.5,-31.9936 152.478,-31.4388"/>
</g>
<!-- Node7 -->
<g id="node14" class="node"><title>Node7</title>
<polygon fill="white" stroke="#bfbfbf" points="209.614,-0.5 209.614,-21.5 256.614,-21.5 256.614,-0.5 209.614,-0.5"/>
<text text-anchor="middle" x="233.114" y="-8.5" font-family="Verdana" font-size="10.00">vector</text>
</g>
<!-- Node6&#45;&gt;Node7 -->
<g id="edge14" class="edge"><title>Node6&#45;&gt;Node7</title>
<path fill="none" stroke="midnightblue" d="M289.114,-116.125C288.703,-102.007 286.55,-76.9356 277.114,-58 271.618,-46.9706 262.695,-36.724 254.316,-28.6315"/>
<polygon fill="midnightblue" stroke="midnightblue" points="256.631,-26.0062 246.888,-21.8447 251.91,-31.1739 256.631,-26.0062"/>
</g>
<!-- Node8 -->
<g id="node16" class="node"><title>Node8</title>
<polygon fill="white" stroke="#bfbfbf" points="295.614,-0.5 295.614,-21.5 348.614,-21.5 348.614,-0.5 295.614,-0.5"/>
<text text-anchor="middle" x="322.114" y="-8.5" font-family="Verdana" font-size="10.00">stdint.h</text>
</g>
<!-- Node6&#45;&gt;Node8 -->
<g id="edge16" class="edge"><title>Node6&#45;&gt;Node8</title>
<path fill="none" stroke="midnightblue" d="M294.732,-116.465C299.489,-107.126 306.149,-92.993 310.114,-80 314.931,-64.2166 318.013,-45.7752 319.846,-31.9302"/>
<polygon fill="midnightblue" stroke="midnightblue" points="323.327,-32.2997 321.057,-21.9508 316.378,-31.456 323.327,-32.2997"/>
</g>
<!-- Node9 -->
<g id="node19" class="node"><title>Node9</title>
<polygon fill="white" stroke="#bfbfbf" points="362.114,-58.5 362.114,-79.5 426.114,-79.5 426.114,-58.5 362.114,-58.5"/>
<text text-anchor="middle" x="394.114" y="-66.5" font-family="Verdana" font-size="10.00">XmlSink.h</text>
</g>
<!-- Node6&#45;&gt;Node9 -->
<g id="edge20" class="edge"><title>Node6&#45;&gt;Node9</title>
<path fill="none" stroke="midnightblue" d="M308.372,-116.362C324.58,-107.409 347.967,-94.4908 366.223,-84.4064"/>
<polygon fill="midnightblue" stroke="midnightblue" points="367.916,-87.4696 374.977,-79.5707 364.532,-81.3422 367.916,-87.4696"/>
</g>
<!-- Node10 -->
<g id="node21" class="node"><title>Node10</title>
<polygon fill="white" stroke="#bfbfbf" points="443.614,-58.5 443.614,-79.5 520.614,-79.5 520.614,-58.5 443.614,-58.5"/>
<text text-anchor="middle" x="482.114" y="-66.5" font-family="Verdana" font-size="10.00">XmlSource.h</text>
</g>
<!-- Node6&#45;&gt;Node10 -->
<g id="edge22" class="edge"><title>Node6&#45;&gt;Node10</title>
<path fill="none" stroke="midnightblue" d="M321.854,-117.161C353.606,-107.619 402.028,-93.0672 437.337,-82.4563"/>
<polygon fill="midnightblue" stroke="midnightblue" points="438.354,-85.8054 446.923,-79.5754 436.339,-79.1016 438.354,-85.8054"/>
</g>
<!-- Node11 -->
<g id="node23" class="node"><title>Node11</title>
<a xlink:href="PathNavigator_8h.html" target="_top" xlink:title="PathNavigator.h">
<polygon fill="white" stroke="black" points="176.114,-58.5 176.114,-79.5 268.114,-79.5 268.114,-58.5 176.114,-58.5"/>
<text text-anchor="middle" x="222.114" y="-66.5" font-family="Verdana" font-size="10.00">PathNavigator.h</text>
</a>
</g>
<!-- Node6&#45;&gt;Node11 -->
<g id="edge24" class="edge"><title>Node6&#45;&gt;Node11</title>
<path fill="none" stroke="midnightblue" d="M276.825,-116.362C267.097,-107.941 253.316,-96.0105 242.018,-86.2308"/>
<polygon fill="midnightblue" stroke="midnightblue" points="244.176,-83.4695 234.325,-79.5707 239.595,-88.7619 244.176,-83.4695"/>
</g>
<!-- Node11&#45;&gt;Node4 -->
<g id="edge28" class="edge"><title>Node11&#45;&gt;Node4</title>
<path fill="none" stroke="midnightblue" d="M208.541,-58.3619C197.693,-49.859 182.28,-37.7785 169.735,-27.9466"/>
<polygon fill="midnightblue" stroke="midnightblue" points="171.63,-24.9848 161.601,-21.5707 167.312,-30.4942 171.63,-24.9848"/>
</g>
<!-- Node11&#45;&gt;Node7 -->
<g id="edge26" class="edge"><title>Node11&#45;&gt;Node7</title>
<path fill="none" stroke="midnightblue" d="M224.131,-58.3619C225.558,-50.8401 227.515,-40.5187 229.239,-31.4308"/>
<polygon fill="midnightblue" stroke="midnightblue" points="232.684,-32.0477 231.109,-21.5707 225.807,-30.7433 232.684,-32.0477"/>
</g>
<!-- Node11&#45;&gt;Node8 -->
<g id="edge30" class="edge"><title>Node11&#45;&gt;Node8</title>
<path fill="none" stroke="midnightblue" d="M240.455,-58.3619C255.679,-49.532 277.555,-36.844 294.834,-26.8224"/>
<polygon fill="midnightblue" stroke="midnightblue" points="296.994,-29.6155 303.889,-21.5707 293.482,-23.5603 296.994,-29.6155"/>
</g>
</g>
</svg>
