<?xml version="1.0" encoding="UTF-8" standalone="no"?>
<!DOCTYPE svg PUBLIC "-//W3C//DTD SVG 1.1//EN"
 "http://www.w3.org/Graphics/SVG/1.1/DTD/svg11.dtd">
<!-- Generated by graphviz version 2.26.3 (20100126.1600)
 -->
<!-- Title: parameter/BaseParameter.h Pages: 1 -->
<svg width="658pt" height="378pt"
 viewBox="0.00 0.00 658.00 378.00" xmlns="http://www.w3.org/2000/svg" xmlns:xlink="http://www.w3.org/1999/xlink">
<g id="graph1" class="graph" transform="scale(1 1) rotate(0) translate(4 374)">
<title>parameter/BaseParameter.h</title>
<polygon fill="white" stroke="white" points="-4,5 -4,-374 655,-374 655,5 -4,5"/>
<!-- Node1 -->
<g id="node1" class="node"><title>Node1</title>
<polygon fill="#bfbfbf" stroke="black" points="203.5,-348.5 203.5,-369.5 356.5,-369.5 356.5,-348.5 203.5,-348.5"/>
<text text-anchor="middle" x="280" y="-356.5" font-family="Verdana" font-size="10.00">parameter/BaseParameter.h</text>
</g>
<!-- Node2 -->
<g id="node3" class="node"><title>Node2</title>
<polygon fill="white" stroke="#bfbfbf" points="213.5,-0.5 213.5,-21.5 266.5,-21.5 266.5,-0.5 213.5,-0.5"/>
<text text-anchor="middle" x="240" y="-8.5" font-family="Verdana" font-size="10.00">stdint.h</text>
</g>
<!-- Node1&#45;&gt;Node2 -->
<g id="edge2" class="edge"><title>Node1&#45;&gt;Node2</title>
<path fill="none" stroke="midnightblue" d="M278.467,-348.402C272.086,-304.163 247.748,-134.028 243,-80 241.59,-63.9496 240.833,-45.738 240.433,-32.0562"/>
<polygon fill="midnightblue" stroke="midnightblue" points="243.925,-31.6844 240.174,-21.7758 236.927,-31.8608 243.925,-31.6844"/>
</g>
<!-- Node3 -->
<g id="node5" class="node"><title>Node3</title>
<polygon fill="white" stroke="#bfbfbf" points="540.5,-0.5 540.5,-21.5 587.5,-21.5 587.5,-0.5 540.5,-0.5"/>
<text text-anchor="middle" x="564" y="-8.5" font-family="Verdana" font-size="10.00">vector</text>
</g>
<!-- Node1&#45;&gt;Node3 -->
<g id="edge4" class="edge"><title>Node1&#45;&gt;Node3</title>
<path fill="none" stroke="midnightblue" d="M356.664,-350.652C465.04,-336.685 650,-303.924 650,-243 650,-243 650,-243 650,-127 650,-95.1919 649.323,-84.0004 631,-58 621.911,-45.1027 608.1,-34.5509 595.374,-26.7365"/>
<polygon fill="midnightblue" stroke="midnightblue" points="596.792,-23.5129 586.383,-21.5358 593.287,-29.5723 596.792,-23.5129"/>
</g>
<!-- Node4 -->
<g id="node7" class="node"><title>Node4</title>
<a xlink:href="InstanceConfigurableElement_8h.html" target="_top" xlink:title="InstanceConfigurableElement.h">
<polygon fill="white" stroke="black" points="76,-290.5 76,-311.5 242,-311.5 242,-290.5 76,-290.5"/>
<text text-anchor="middle" x="159" y="-298.5" font-family="Verdana" font-size="10.00">InstanceConfigurableElement.h</text>
</a>
</g>
<!-- Node1&#45;&gt;Node4 -->
<g id="edge6" class="edge"><title>Node1&#45;&gt;Node4</title>
<path fill="none" stroke="midnightblue" d="M258.088,-348.497C239.189,-339.438 211.669,-326.246 190.424,-316.063"/>
<polygon fill="midnightblue" stroke="midnightblue" points="191.689,-312.788 181.158,-311.621 188.663,-319.1 191.689,-312.788"/>
</g>
<!-- Node5 -->
<g id="node9" class="node"><title>Node5</title>
<a xlink:href="ConfigurableElementWithMapping_8h.html" target="_top" xlink:title="ConfigurableElementWithMapping.h">
<polygon fill="white" stroke="black" points="66,-232.5 66,-253.5 252,-253.5 252,-232.5 66,-232.5"/>
<text text-anchor="middle" x="159" y="-240.5" font-family="Verdana" font-size="10.00">ConfigurableElementWithMapping.h</text>
</a>
</g>
<!-- Node4&#45;&gt;Node5 -->
<g id="edge8" class="edge"><title>Node4&#45;&gt;Node5</title>
<path fill="none" stroke="midnightblue" d="M159,-290.362C159,-282.922 159,-272.743 159,-263.728"/>
<polygon fill="midnightblue" stroke="midnightblue" points="162.5,-263.571 159,-253.571 155.5,-263.571 162.5,-263.571"/>
</g>
<!-- Node8 -->
<g id="node15" class="node"><title>Node8</title>
<polygon fill="white" stroke="#bfbfbf" points="104,-0.5 104,-21.5 148,-21.5 148,-0.5 104,-0.5"/>
<text text-anchor="middle" x="126" y="-8.5" font-family="Verdana" font-size="10.00">string</text>
</g>
<!-- Node4&#45;&gt;Node8 -->
<g id="edge46" class="edge"><title>Node4&#45;&gt;Node8</title>
<path fill="none" stroke="midnightblue" d="M118.054,-290.452C70.943,-275.558 0,-243.43 0,-185 0,-185 0,-185 0,-127 0,-75.8227 56.9572,-41.0257 94.2824,-23.717"/>
<polygon fill="midnightblue" stroke="midnightblue" points="96.0513,-26.7608 103.764,-19.4965 93.2046,-20.3657 96.0513,-26.7608"/>
</g>
<!-- Node9 -->
<g id="node19" class="node"><title>Node9</title>
<polygon fill="white" stroke="#bfbfbf" points="592,-58.5 592,-79.5 622,-79.5 622,-58.5 592,-58.5"/>
<text text-anchor="middle" x="607" y="-66.5" font-family="Verdana" font-size="10.00">list</text>
</g>
<!-- Node4&#45;&gt;Node9 -->
<g id="edge44" class="edge"><title>Node4&#45;&gt;Node9</title>
<path fill="none" stroke="midnightblue" d="M193.591,-290.423C245.808,-273.806 347.142,-238.999 427,-196 488.515,-162.878 553.893,-112.359 586.298,-86.1363"/>
<polygon fill="midnightblue" stroke="midnightblue" points="588.631,-88.7503 594.169,-79.7183 584.207,-83.3251 588.631,-88.7503"/>
</g>
<!-- Node13 -->
<g id="node32" class="node"><title>Node13</title>
<a xlink:href="TypeElement_8h.html" target="_top" xlink:title="TypeElement.h">
<polygon fill="white" stroke="black" points="116,-174.5 116,-195.5 202,-195.5 202,-174.5 116,-174.5"/>
<text text-anchor="middle" x="159" y="-182.5" font-family="Verdana" font-size="10.00">TypeElement.h</text>
</a>
</g>
<!-- Node4&#45;&gt;Node13 -->
<g id="edge38" class="edge"><title>Node4&#45;&gt;Node13</title>
<path fill="none" stroke="midnightblue" d="M109.398,-290.481C89.5832,-283.585 68.7226,-272.309 57,-254 40.6318,-228.435 73.7963,-210.003 106.584,-198.656"/>
<polygon fill="midnightblue" stroke="midnightblue" points="107.817,-201.935 116.235,-195.503 105.643,-195.282 107.817,-201.935"/>
</g>
<!-- Node6 -->
<g id="node11" class="node"><title>Node6</title>
<a xlink:href="ConfigurableElement_8h.html" target="_top" xlink:title="ConfigurableElement.h">
<polygon fill="white" stroke="black" points="293.5,-174.5 293.5,-195.5 418.5,-195.5 418.5,-174.5 293.5,-174.5"/>
<text text-anchor="middle" x="356" y="-182.5" font-family="Verdana" font-size="10.00">ConfigurableElement.h</text>
</a>
</g>
<!-- Node5&#45;&gt;Node6 -->
<g id="edge10" class="edge"><title>Node5&#45;&gt;Node6</title>
<path fill="none" stroke="midnightblue" d="M194.675,-232.497C227.07,-222.959 275.023,-208.841 310.231,-198.475"/>
<polygon fill="midnightblue" stroke="midnightblue" points="311.654,-201.705 320.258,-195.523 309.676,-194.99 311.654,-201.705"/>
</g>
<!-- Node5&#45;&gt;Node8 -->
<g id="edge36" class="edge"><title>Node5&#45;&gt;Node8</title>
<path fill="none" stroke="midnightblue" d="M140.905,-232.386C128.818,-224.167 113.915,-211.57 107,-196 82.2984,-140.377 104.275,-66.3646 117.582,-31.2015"/>
<polygon fill="midnightblue" stroke="midnightblue" points="120.956,-32.1861 121.372,-21.5994 114.445,-29.616 120.956,-32.1861"/>
</g>
<!-- Node7 -->
<g id="node13" class="node"><title>Node7</title>
<a xlink:href="Element_8h.html" target="_top" xlink:title="Element.h">
<polygon fill="white" stroke="black" points="323.5,-116.5 323.5,-137.5 388.5,-137.5 388.5,-116.5 323.5,-116.5"/>
<text text-anchor="middle" x="356" y="-124.5" font-family="Verdana" font-size="10.00">Element.h</text>
</a>
</g>
<!-- Node6&#45;&gt;Node7 -->
<g id="edge12" class="edge"><title>Node6&#45;&gt;Node7</title>
<path fill="none" stroke="midnightblue" d="M356,-174.362C356,-166.922 356,-156.743 356,-147.728"/>
<polygon fill="midnightblue" stroke="midnightblue" points="359.5,-147.571 356,-137.571 352.5,-147.571 359.5,-147.571"/>
</g>
<!-- Node6&#45;&gt;Node9 -->
<g id="edge34" class="edge"><title>Node6&#45;&gt;Node9</title>
<path fill="none" stroke="midnightblue" d="M379.164,-174.295C426.623,-152.361 534.498,-102.507 582.812,-80.1784"/>
<polygon fill="midnightblue" stroke="midnightblue" points="584.302,-83.3459 591.911,-75.9735 581.365,-76.9916 584.302,-83.3459"/>
</g>
<!-- Node7&#45;&gt;Node2 -->
<g id="edge18" class="edge"><title>Node7&#45;&gt;Node2</title>
<path fill="none" stroke="midnightblue" d="M323.238,-118.748C302.028,-111.779 275.401,-99.7044 259,-80 247.725,-66.4541 243.112,-46.7361 241.239,-31.8442"/>
<polygon fill="midnightblue" stroke="midnightblue" points="244.695,-31.2086 240.276,-21.5791 237.725,-31.8623 244.695,-31.2086"/>
</g>
<!-- Node7&#45;&gt;Node3 -->
<g id="edge16" class="edge"><title>Node7&#45;&gt;Node3</title>
<path fill="none" stroke="midnightblue" d="M388.725,-122.874C436.739,-116.175 522.973,-101.483 545,-80 557.884,-67.4342 562.271,-46.9991 563.651,-31.6222"/>
<polygon fill="midnightblue" stroke="midnightblue" points="567.153,-31.6803 564.204,-21.5042 560.164,-31.2985 567.153,-31.6803"/>
</g>
<!-- Node7&#45;&gt;Node8 -->
<g id="edge14" class="edge"><title>Node7&#45;&gt;Node8</title>
<path fill="none" stroke="midnightblue" d="M327.653,-116.47C304.501,-107.571 271.128,-94.059 243,-80 210.226,-63.6188 174.136,-41.7048 150.828,-27.0084"/>
<polygon fill="midnightblue" stroke="midnightblue" points="152.578,-23.9733 142.26,-21.5672 148.825,-29.8825 152.578,-23.9733"/>
</g>
<!-- Node7&#45;&gt;Node9 -->
<g id="edge20" class="edge"><title>Node7&#45;&gt;Node9</title>
<path fill="none" stroke="midnightblue" d="M388.743,-121.695C432.398,-114.254 511.85,-99.4227 578,-80 579.421,-79.5828 580.871,-79.1283 582.328,-78.6494"/>
<polygon fill="midnightblue" stroke="midnightblue" points="583.557,-81.9271 591.799,-75.2694 581.204,-75.3344 583.557,-81.9271"/>
</g>
<!-- Node10 -->
<g id="node21" class="node"><title>Node10</title>
<polygon fill="white" stroke="#bfbfbf" points="378,-58.5 378,-79.5 442,-79.5 442,-58.5 378,-58.5"/>
<text text-anchor="middle" x="410" y="-66.5" font-family="Verdana" font-size="10.00">XmlSink.h</text>
</g>
<!-- Node7&#45;&gt;Node10 -->
<g id="edge22" class="edge"><title>Node7&#45;&gt;Node10</title>
<path fill="none" stroke="midnightblue" d="M365.904,-116.362C373.516,-108.186 384.208,-96.7025 393.157,-87.0907"/>
<polygon fill="midnightblue" stroke="midnightblue" points="395.906,-89.2746 400.158,-79.5707 390.783,-84.5046 395.906,-89.2746"/>
</g>
<!-- Node11 -->
<g id="node23" class="node"><title>Node11</title>
<polygon fill="white" stroke="#bfbfbf" points="459.5,-58.5 459.5,-79.5 536.5,-79.5 536.5,-58.5 459.5,-58.5"/>
<text text-anchor="middle" x="498" y="-66.5" font-family="Verdana" font-size="10.00">XmlSource.h</text>
</g>
<!-- Node7&#45;&gt;Node11 -->
<g id="edge24" class="edge"><title>Node7&#45;&gt;Node11</title>
<path fill="none" stroke="midnightblue" d="M381.715,-116.497C404.293,-107.275 437.358,-93.7695 462.463,-83.5153"/>
<polygon fill="midnightblue" stroke="midnightblue" points="464.062,-86.6427 471.996,-79.6212 461.415,-80.1624 464.062,-86.6427"/>
</g>
<!-- Node12 -->
<g id="node25" class="node"><title>Node12</title>
<a xlink:href="PathNavigator_8h.html" target="_top" xlink:title="PathNavigator.h">
<polygon fill="white" stroke="black" points="268,-58.5 268,-79.5 360,-79.5 360,-58.5 268,-58.5"/>
<text text-anchor="middle" x="314" y="-66.5" font-family="Verdana" font-size="10.00">PathNavigator.h</text>
</a>
</g>
<!-- Node7&#45;&gt;Node12 -->
<g id="edge26" class="edge"><title>Node7&#45;&gt;Node12</title>
<path fill="none" stroke="midnightblue" d="M348.297,-116.362C342.554,-108.431 334.557,-97.3885 327.73,-87.9606"/>
<polygon fill="midnightblue" stroke="midnightblue" points="330.355,-85.6173 321.655,-79.5707 324.685,-89.7229 330.355,-85.6173"/>
</g>
<!-- Node12&#45;&gt;Node2 -->
<g id="edge32" class="edge"><title>Node12&#45;&gt;Node2</title>
<path fill="none" stroke="midnightblue" d="M300.427,-58.3619C289.579,-49.859 274.166,-37.7785 261.621,-27.9466"/>
<polygon fill="midnightblue" stroke="midnightblue" points="263.516,-24.9848 253.487,-21.5707 259.198,-30.4942 263.516,-24.9848"/>
</g>
<!-- Node12&#45;&gt;Node3 -->
<g id="edge28" class="edge"><title>Node12&#45;&gt;Node3</title>
<path fill="none" stroke="midnightblue" d="M359.273,-58.4966C408.514,-47.0728 486.083,-29.0768 530.253,-18.8293"/>
<polygon fill="midnightblue" stroke="midnightblue" points="531.25,-22.191 540.201,-16.5215 529.668,-15.3721 531.25,-22.191"/>
</g>
<!-- Node12&#45;&gt;Node8 -->
<g id="edge30" class="edge"><title>Node12&#45;&gt;Node8</title>
<path fill="none" stroke="midnightblue" d="M279.955,-58.4966C245.241,-47.7872 191.806,-31.3018 157.892,-20.8391"/>
<polygon fill="midnightblue" stroke="midnightblue" points="158.624,-17.4021 148.036,-17.7985 156.56,-24.091 158.624,-17.4021"/>
</g>
<!-- Node13&#45;&gt;Node7 -->
<g id="edge40" class="edge"><title>Node13&#45;&gt;Node7</title>
<path fill="none" stroke="midnightblue" d="M194.675,-174.497C227.978,-164.692 277.725,-150.046 313.162,-139.612"/>
<polygon fill="midnightblue" stroke="midnightblue" points="314.604,-142.836 323.209,-136.654 312.627,-136.121 314.604,-142.836"/>
</g>
<!-- Node13&#45;&gt;Node8 -->
<g id="edge42" class="edge"><title>Node13&#45;&gt;Node8</title>
<path fill="none" stroke="midnightblue" d="M156.985,-174.377C151.659,-146.293 137.128,-69.6735 130.021,-32.2027"/>
<polygon fill="midnightblue" stroke="midnightblue" points="133.375,-31.1004 128.072,-21.9277 126.497,-32.4048 133.375,-31.1004"/>
</g>
</g>
</svg>
