<?xml version="1.0" encoding="UTF-8" standalone="no"?>
<!DOCTYPE svg PUBLIC "-//W3C//DTD SVG 1.1//EN"
 "http://www.w3.org/Graphics/SVG/1.1/DTD/svg11.dtd">
<!-- Generated by graphviz version 2.26.3 (20100126.1600)
 -->
<!-- Title: parameter/BaseParameter.cpp Pages: 1 -->
<svg width="1080pt" height="436pt"
 viewBox="0.00 0.00 1080.00 436.00" xmlns="http://www.w3.org/2000/svg" xmlns:xlink="http://www.w3.org/1999/xlink">
<g id="graph1" class="graph" transform="scale(1 1) rotate(0) translate(4 432)">
<title>parameter/BaseParameter.cpp</title>
<polygon fill="white" stroke="white" points="-4,5 -4,-432 1077,-432 1077,5 -4,5"/>
<!-- Node1 -->
<g id="node1" class="node"><title>Node1</title>
<polygon fill="#bfbfbf" stroke="black" points="737,-406.5 737,-427.5 901,-427.5 901,-406.5 737,-406.5"/>
<text text-anchor="middle" x="819" y="-414.5" font-family="Verdana" font-size="10.00">parameter/BaseParameter.cpp</text>
</g>
<!-- Node2 -->
<g id="node3" class="node"><title>Node2</title>
<a xlink:href="BaseParameter_8h.html" target="_top" xlink:title="BaseParameter.h">
<polygon fill="white" stroke="black" points="503.5,-348.5 503.5,-369.5 602.5,-369.5 602.5,-348.5 503.5,-348.5"/>
<text text-anchor="middle" x="553" y="-356.5" font-family="Verdana" font-size="10.00">BaseParameter.h</text>
</a>
</g>
<!-- Node1&#45;&gt;Node2 -->
<g id="edge2" class="edge"><title>Node1&#45;&gt;Node2</title>
<path fill="none" stroke="midnightblue" d="M770.829,-406.497C725.962,-396.714 658.99,-382.111 611.162,-371.682"/>
<polygon fill="midnightblue" stroke="midnightblue" points="611.777,-368.234 601.261,-369.523 610.286,-375.073 611.777,-368.234"/>
</g>
<!-- Node15 -->
<g id="node40" class="node"><title>Node15</title>
<a xlink:href="ParameterType_8h.html" target="_top" xlink:title="ParameterType.h">
<polygon fill="white" stroke="black" points="562.5,-232.5 562.5,-253.5 659.5,-253.5 659.5,-232.5 562.5,-232.5"/>
<text text-anchor="middle" x="611" y="-240.5" font-family="Verdana" font-size="10.00">ParameterType.h</text>
</a>
</g>
<!-- Node1&#45;&gt;Node15 -->
<g id="edge50" class="edge"><title>Node1&#45;&gt;Node15</title>
<path fill="none" stroke="midnightblue" d="M806.302,-406.377C771.489,-377.255 674.291,-295.946 631.578,-260.214"/>
<polygon fill="midnightblue" stroke="midnightblue" points="633.712,-257.436 623.796,-253.705 629.221,-262.806 633.712,-257.436"/>
</g>
<!-- Node17 -->
<g id="node47" class="node"><title>Node17</title>
<a xlink:href="ParameterAccessContext_8h.html" target="_top" xlink:title="ParameterAccessContext.h">
<polygon fill="white" stroke="black" points="701.5,-116.5 701.5,-137.5 848.5,-137.5 848.5,-116.5 701.5,-116.5"/>
<text text-anchor="middle" x="775" y="-124.5" font-family="Verdana" font-size="10.00">ParameterAccessContext.h</text>
</a>
</g>
<!-- Node1&#45;&gt;Node17 -->
<g id="edge60" class="edge"><title>Node1&#45;&gt;Node17</title>
<path fill="none" stroke="midnightblue" d="M821.969,-406.222C827.312,-385.841 838,-340.182 838,-301 838,-301 838,-301 838,-243 838,-211.192 834.544,-201.751 819,-174 812.894,-163.099 803.732,-152.757 795.346,-144.564"/>
<polygon fill="midnightblue" stroke="midnightblue" points="797.674,-141.949 787.973,-137.689 792.9,-147.069 797.674,-141.949"/>
</g>
<!-- Node19 -->
<g id="node54" class="node"><title>Node19</title>
<a xlink:href="ConfigurationAccessContext_8h.html" target="_top" xlink:title="ConfigurationAccessContext.h">
<polygon fill="white" stroke="black" points="649.5,-174.5 649.5,-195.5 810.5,-195.5 810.5,-174.5 649.5,-174.5"/>
<text text-anchor="middle" x="730" y="-182.5" font-family="Verdana" font-size="10.00">ConfigurationAccessContext.h</text>
</a>
</g>
<!-- Node1&#45;&gt;Node19 -->
<g id="edge70" class="edge"><title>Node1&#45;&gt;Node19</title>
<path fill="none" stroke="midnightblue" d="M814.945,-406.429C801.161,-370.497 755.961,-252.674 737.728,-205.145"/>
<polygon fill="midnightblue" stroke="midnightblue" points="740.929,-203.716 734.079,-195.634 734.393,-206.224 740.929,-203.716"/>
</g>
<!-- Node20 -->
<g id="node58" class="node"><title>Node20</title>
<a xlink:href="ParameterBlackboard_8h.html" target="_top" xlink:title="ParameterBlackboard.h">
<polygon fill="white" stroke="black" points="941.5,-116.5 941.5,-137.5 1070.5,-137.5 1070.5,-116.5 941.5,-116.5"/>
<text text-anchor="middle" x="1006" y="-124.5" font-family="Verdana" font-size="10.00">ParameterBlackboard.h</text>
</a>
</g>
<!-- Node1&#45;&gt;Node20 -->
<g id="edge76" class="edge"><title>Node1&#45;&gt;Node20</title>
<path fill="none" stroke="midnightblue" d="M848.517,-406.445C887.7,-390.315 952,-355.537 952,-301 952,-301 952,-301 952,-243 952,-205.904 974.978,-167.845 990.956,-145.864"/>
<polygon fill="midnightblue" stroke="midnightblue" points="993.857,-147.831 997.083,-137.739 988.268,-143.616 993.857,-147.831"/>
</g>
<!-- Node23 -->
<g id="node67" class="node"><title>Node23</title>
<polygon fill="white" stroke="#bfbfbf" points="980,-348.5 980,-369.5 1036,-369.5 1036,-348.5 980,-348.5"/>
<text text-anchor="middle" x="1008" y="-356.5" font-family="Verdana" font-size="10.00">assert.h</text>
</g>
<!-- Node1&#45;&gt;Node23 -->
<g id="edge88" class="edge"><title>Node1&#45;&gt;Node23</title>
<path fill="none" stroke="midnightblue" d="M853.226,-406.497C886.242,-396.365 936.103,-381.064 970.255,-370.583"/>
<polygon fill="midnightblue" stroke="midnightblue" points="971.345,-373.91 979.878,-367.63 969.291,-367.218 971.345,-373.91"/>
</g>
<!-- Node3 -->
<g id="node5" class="node"><title>Node3</title>
<polygon fill="white" stroke="#bfbfbf" points="849.5,-0.5 849.5,-21.5 902.5,-21.5 902.5,-0.5 849.5,-0.5"/>
<text text-anchor="middle" x="876" y="-8.5" font-family="Verdana" font-size="10.00">stdint.h</text>
</g>
<!-- Node2&#45;&gt;Node3 -->
<g id="edge4" class="edge"><title>Node2&#45;&gt;Node3</title>
<path fill="none" stroke="midnightblue" d="M582.699,-348.46C639.328,-327.157 764.202,-274.247 844,-196 883.484,-157.283 883.825,-135.056 889,-80 889.915,-70.2651 890.315,-67.6889 889,-58 887.796,-49.1337 885.371,-39.5776 882.938,-31.4123"/>
<polygon fill="midnightblue" stroke="midnightblue" points="886.201,-30.1247 879.836,-21.6546 879.53,-32.245 886.201,-30.1247"/>
</g>
<!-- Node4 -->
<g id="node7" class="node"><title>Node4</title>
<polygon fill="white" stroke="#bfbfbf" points="100.5,-0.5 100.5,-21.5 147.5,-21.5 147.5,-0.5 100.5,-0.5"/>
<text text-anchor="middle" x="124" y="-8.5" font-family="Verdana" font-size="10.00">vector</text>
</g>
<!-- Node2&#45;&gt;Node4 -->
<g id="edge6" class="edge"><title>Node2&#45;&gt;Node4</title>
<path fill="none" stroke="midnightblue" d="M503.438,-353.836C367.704,-339.029 0,-294.194 0,-243 0,-243 0,-243 0,-127 0,-77.0726 54.2738,-42.4351 91.0082,-24.7093"/>
<polygon fill="midnightblue" stroke="midnightblue" points="92.7835,-27.7442 100.385,-20.3636 89.84,-21.3932 92.7835,-27.7442"/>
</g>
<!-- Node5 -->
<g id="node9" class="node"><title>Node5</title>
<a xlink:href="InstanceConfigurableElement_8h.html" target="_top" xlink:title="InstanceConfigurableElement.h">
<polygon fill="white" stroke="black" points="337,-290.5 337,-311.5 503,-311.5 503,-290.5 337,-290.5"/>
<text text-anchor="middle" x="420" y="-298.5" font-family="Verdana" font-size="10.00">InstanceConfigurableElement.h</text>
</a>
</g>
<!-- Node2&#45;&gt;Node5 -->
<g id="edge8" class="edge"><title>Node2&#45;&gt;Node5</title>
<path fill="none" stroke="midnightblue" d="M528.915,-348.497C507.861,-339.315 477.073,-325.889 453.598,-315.652"/>
<polygon fill="midnightblue" stroke="midnightblue" points="454.921,-312.41 444.356,-311.621 452.123,-318.827 454.921,-312.41"/>
</g>
<!-- Node6 -->
<g id="node11" class="node"><title>Node6</title>
<a xlink:href="ConfigurableElementWithMapping_8h.html" target="_top" xlink:title="ConfigurableElementWithMapping.h">
<polygon fill="white" stroke="black" points="140,-232.5 140,-253.5 326,-253.5 326,-232.5 140,-232.5"/>
<text text-anchor="middle" x="233" y="-240.5" font-family="Verdana" font-size="10.00">ConfigurableElementWithMapping.h</text>
</a>
</g>
<!-- Node5&#45;&gt;Node6 -->
<g id="edge10" class="edge"><title>Node5&#45;&gt;Node6</title>
<path fill="none" stroke="midnightblue" d="M386.136,-290.497C355.518,-281 310.257,-266.962 276.876,-256.609"/>
<polygon fill="midnightblue" stroke="midnightblue" points="277.516,-253.143 266.928,-253.523 275.442,-259.828 277.516,-253.143"/>
</g>
<!-- Node9 -->
<g id="node17" class="node"><title>Node9</title>
<polygon fill="white" stroke="#bfbfbf" points="521,-0.5 521,-21.5 565,-21.5 565,-0.5 521,-0.5"/>
<text text-anchor="middle" x="543" y="-8.5" font-family="Verdana" font-size="10.00">string</text>
</g>
<!-- Node5&#45;&gt;Node9 -->
<g id="edge48" class="edge"><title>Node5&#45;&gt;Node9</title>
<path fill="none" stroke="midnightblue" d="M420.109,-290.426C420.651,-268.166 423.602,-215.131 439,-174 460.438,-116.735 504.023,-58.4366 527.383,-29.5687"/>
<polygon fill="midnightblue" stroke="midnightblue" points="530.295,-31.5377 533.937,-21.5883 524.886,-27.0952 530.295,-31.5377"/>
</g>
<!-- Node10 -->
<g id="node21" class="node"><title>Node10</title>
<polygon fill="white" stroke="#bfbfbf" points="66,-58.5 66,-79.5 96,-79.5 96,-58.5 66,-58.5"/>
<text text-anchor="middle" x="81" y="-66.5" font-family="Verdana" font-size="10.00">list</text>
</g>
<!-- Node5&#45;&gt;Node10 -->
<g id="edge46" class="edge"><title>Node5&#45;&gt;Node10</title>
<path fill="none" stroke="midnightblue" d="M336.704,-297.318C262.288,-292.314 160.581,-280.688 131,-254 83.5601,-211.2 79.1584,-128.505 79.92,-89.8571"/>
<polygon fill="midnightblue" stroke="midnightblue" points="83.4207,-89.8926 80.2601,-79.7803 76.4247,-89.6565 83.4207,-89.8926"/>
</g>
<!-- Node14 -->
<g id="node34" class="node"><title>Node14</title>
<a xlink:href="TypeElement_8h.html" target="_top" xlink:title="TypeElement.h">
<polygon fill="white" stroke="black" points="448,-174.5 448,-195.5 534,-195.5 534,-174.5 448,-174.5"/>
<text text-anchor="middle" x="491" y="-182.5" font-family="Verdana" font-size="10.00">TypeElement.h</text>
</a>
</g>
<!-- Node5&#45;&gt;Node14 -->
<g id="edge40" class="edge"><title>Node5&#45;&gt;Node14</title>
<path fill="none" stroke="midnightblue" d="M426.552,-290.295C438.493,-270.786 463.954,-229.188 479.054,-204.518"/>
<polygon fill="midnightblue" stroke="midnightblue" points="482.228,-206.036 484.464,-195.679 476.258,-202.381 482.228,-206.036"/>
</g>
<!-- Node7 -->
<g id="node13" class="node"><title>Node7</title>
<a xlink:href="ConfigurableElement_8h.html" target="_top" xlink:title="ConfigurableElement.h">
<polygon fill="white" stroke="black" points="170.5,-174.5 170.5,-195.5 295.5,-195.5 295.5,-174.5 170.5,-174.5"/>
<text text-anchor="middle" x="233" y="-182.5" font-family="Verdana" font-size="10.00">ConfigurableElement.h</text>
</a>
</g>
<!-- Node6&#45;&gt;Node7 -->
<g id="edge12" class="edge"><title>Node6&#45;&gt;Node7</title>
<path fill="none" stroke="midnightblue" d="M233,-232.362C233,-224.922 233,-214.743 233,-205.728"/>
<polygon fill="midnightblue" stroke="midnightblue" points="236.5,-205.571 233,-195.571 229.5,-205.571 236.5,-205.571"/>
</g>
<!-- Node6&#45;&gt;Node9 -->
<g id="edge38" class="edge"><title>Node6&#45;&gt;Node9</title>
<path fill="none" stroke="midnightblue" d="M208.456,-232.323C146.984,-204.202 -4.38736,-125.61 57,-58 87.51,-24.3971 407.125,-14.1232 510.758,-11.663"/>
<polygon fill="midnightblue" stroke="midnightblue" points="511.009,-15.1582 520.927,-11.4304 510.849,-8.16007 511.009,-15.1582"/>
</g>
<!-- Node8 -->
<g id="node15" class="node"><title>Node8</title>
<a xlink:href="Element_8h.html" target="_top" xlink:title="Element.h">
<polygon fill="white" stroke="black" points="259.5,-116.5 259.5,-137.5 324.5,-137.5 324.5,-116.5 259.5,-116.5"/>
<text text-anchor="middle" x="292" y="-124.5" font-family="Verdana" font-size="10.00">Element.h</text>
</a>
</g>
<!-- Node7&#45;&gt;Node8 -->
<g id="edge14" class="edge"><title>Node7&#45;&gt;Node8</title>
<path fill="none" stroke="midnightblue" d="M243.822,-174.362C252.221,-166.104 264.054,-154.472 273.89,-144.803"/>
<polygon fill="midnightblue" stroke="midnightblue" points="276.569,-147.077 281.247,-137.571 271.662,-142.085 276.569,-147.077"/>
</g>
<!-- Node7&#45;&gt;Node10 -->
<g id="edge36" class="edge"><title>Node7&#45;&gt;Node10</title>
<path fill="none" stroke="midnightblue" d="M218.973,-174.295C192.504,-154.096 135.007,-110.216 103.228,-85.9632"/>
<polygon fill="midnightblue" stroke="midnightblue" points="105.066,-82.9636 94.9934,-79.6792 100.82,-88.5283 105.066,-82.9636"/>
</g>
<!-- Node8&#45;&gt;Node3 -->
<g id="edge20" class="edge"><title>Node8&#45;&gt;Node3</title>
<path fill="none" stroke="midnightblue" d="M324.65,-120.515C425.773,-100.429 733.35,-39.3346 839.51,-18.248"/>
<polygon fill="midnightblue" stroke="midnightblue" points="840.304,-21.6588 849.43,-16.2775 838.94,-14.7929 840.304,-21.6588"/>
</g>
<!-- Node8&#45;&gt;Node4 -->
<g id="edge18" class="edge"><title>Node8&#45;&gt;Node4</title>
<path fill="none" stroke="midnightblue" d="M259.291,-120.492C220.526,-112.149 159.141,-96.747 143,-80 130.58,-67.114 126.122,-46.8848 124.597,-31.6551"/>
<polygon fill="midnightblue" stroke="midnightblue" points="128.086,-31.3729 123.934,-21.6257 121.101,-31.8349 128.086,-31.3729"/>
</g>
<!-- Node8&#45;&gt;Node9 -->
<g id="edge16" class="edge"><title>Node8&#45;&gt;Node9</title>
<path fill="none" stroke="midnightblue" d="M324.597,-117.965C352.846,-109.634 394.491,-96.136 429,-80 461.602,-64.7559 496.678,-42.5588 519.182,-27.4884"/>
<polygon fill="midnightblue" stroke="midnightblue" points="521.411,-30.2067 527.729,-21.702 517.486,-24.4102 521.411,-30.2067"/>
</g>
<!-- Node8&#45;&gt;Node10 -->
<g id="edge22" class="edge"><title>Node8&#45;&gt;Node10</title>
<path fill="none" stroke="midnightblue" d="M259.476,-119.74C222.827,-111.296 161.629,-96.4035 110,-80 108.589,-79.5516 107.146,-79.0726 105.695,-78.5748"/>
<polygon fill="midnightblue" stroke="midnightblue" points="106.835,-75.2652 96.2408,-75.1404 104.445,-81.8445 106.835,-75.2652"/>
</g>
<!-- Node11 -->
<g id="node23" class="node"><title>Node11</title>
<polygon fill="white" stroke="#bfbfbf" points="356,-58.5 356,-79.5 420,-79.5 420,-58.5 356,-58.5"/>
<text text-anchor="middle" x="388" y="-66.5" font-family="Verdana" font-size="10.00">XmlSink.h</text>
</g>
<!-- Node8&#45;&gt;Node11 -->
<g id="edge24" class="edge"><title>Node8&#45;&gt;Node11</title>
<path fill="none" stroke="midnightblue" d="M309.608,-116.362C324.223,-107.532 345.224,-94.844 361.811,-84.8224"/>
<polygon fill="midnightblue" stroke="midnightblue" points="363.754,-87.7376 370.504,-79.5707 360.135,-81.7461 363.754,-87.7376"/>
</g>
<!-- Node12 -->
<g id="node25" class="node"><title>Node12</title>
<polygon fill="white" stroke="#bfbfbf" points="151.5,-58.5 151.5,-79.5 228.5,-79.5 228.5,-58.5 151.5,-58.5"/>
<text text-anchor="middle" x="190" y="-66.5" font-family="Verdana" font-size="10.00">XmlSource.h</text>
</g>
<!-- Node8&#45;&gt;Node12 -->
<g id="edge26" class="edge"><title>Node8&#45;&gt;Node12</title>
<path fill="none" stroke="midnightblue" d="M273.292,-116.362C257.619,-107.45 235.036,-94.6087 217.337,-84.5447"/>
<polygon fill="midnightblue" stroke="midnightblue" points="219.013,-81.4712 208.59,-79.5707 215.553,-87.5562 219.013,-81.4712"/>
</g>
<!-- Node13 -->
<g id="node27" class="node"><title>Node13</title>
<a xlink:href="PathNavigator_8h.html" target="_top" xlink:title="PathNavigator.h">
<polygon fill="white" stroke="black" points="246,-58.5 246,-79.5 338,-79.5 338,-58.5 246,-58.5"/>
<text text-anchor="middle" x="292" y="-66.5" font-family="Verdana" font-size="10.00">PathNavigator.h</text>
</a>
</g>
<!-- Node8&#45;&gt;Node13 -->
<g id="edge28" class="edge"><title>Node8&#45;&gt;Node13</title>
<path fill="none" stroke="midnightblue" d="M292,-116.362C292,-108.922 292,-98.7427 292,-89.7276"/>
<polygon fill="midnightblue" stroke="midnightblue" points="295.5,-89.5706 292,-79.5707 288.5,-89.5707 295.5,-89.5706"/>
</g>
<!-- Node13&#45;&gt;Node3 -->
<g id="edge34" class="edge"><title>Node13&#45;&gt;Node3</title>
<path fill="none" stroke="midnightblue" d="M338.151,-59.3912C341.139,-58.8862 344.109,-58.4163 347,-58 530.974,-31.5099 753.237,-17.5951 839.403,-12.8769"/>
<polygon fill="midnightblue" stroke="midnightblue" points="839.664,-16.3679 849.461,-12.3343 839.287,-9.37811 839.664,-16.3679"/>
</g>
<!-- Node13&#45;&gt;Node4 -->
<g id="edge30" class="edge"><title>Node13&#45;&gt;Node4</title>
<path fill="none" stroke="midnightblue" d="M261.576,-58.4966C232.183,-48.3488 187.767,-33.0148 157.406,-22.533"/>
<polygon fill="midnightblue" stroke="midnightblue" points="158.285,-19.1339 147.69,-19.1788 156.001,-25.7507 158.285,-19.1339"/>
</g>
<!-- Node13&#45;&gt;Node9 -->
<g id="edge32" class="edge"><title>Node13&#45;&gt;Node9</title>
<path fill="none" stroke="midnightblue" d="M337.454,-58.4966C387.546,-46.9217 466.836,-28.5996 510.86,-18.4267"/>
<polygon fill="midnightblue" stroke="midnightblue" points="511.78,-21.8066 520.735,-16.1449 510.204,-14.9863 511.78,-21.8066"/>
</g>
<!-- Node14&#45;&gt;Node8 -->
<g id="edge42" class="edge"><title>Node14&#45;&gt;Node8</title>
<path fill="none" stroke="midnightblue" d="M454.963,-174.497C421.075,-164.62 370.332,-149.83 334.487,-139.383"/>
<polygon fill="midnightblue" stroke="midnightblue" points="335.379,-135.998 324.799,-136.559 333.42,-142.718 335.379,-135.998"/>
</g>
<!-- Node14&#45;&gt;Node9 -->
<g id="edge44" class="edge"><title>Node14&#45;&gt;Node9</title>
<path fill="none" stroke="midnightblue" d="M494.175,-174.377C502.604,-146.172 525.663,-69.0121 536.808,-31.7203"/>
<polygon fill="midnightblue" stroke="midnightblue" points="540.224,-32.5112 539.734,-21.9277 533.517,-30.5068 540.224,-32.5112"/>
</g>
<!-- Node15&#45;&gt;Node3 -->
<g id="edge52" class="edge"><title>Node15&#45;&gt;Node3</title>
<path fill="none" stroke="midnightblue" d="M659.73,-236.297C712.825,-228.253 793.601,-213.621 819,-196 872.396,-158.957 877.648,-72.3245 877.022,-32.1508"/>
<polygon fill="midnightblue" stroke="midnightblue" points="880.514,-31.808 876.715,-21.9175 873.517,-32.0179 880.514,-31.808"/>
</g>
<!-- Node15&#45;&gt;Node9 -->
<g id="edge58" class="edge"><title>Node15&#45;&gt;Node9</title>
<path fill="none" stroke="midnightblue" d="M602.636,-232.42C595.82,-223.279 586.458,-209.456 581,-196 557.98,-139.247 548.322,-66.8248 544.783,-31.8119"/>
<polygon fill="midnightblue" stroke="midnightblue" points="548.265,-31.4523 543.84,-21.8258 541.296,-32.1107 548.265,-31.4523"/>
</g>
<!-- Node15&#45;&gt;Node14 -->
<g id="edge56" class="edge"><title>Node15&#45;&gt;Node14</title>
<path fill="none" stroke="midnightblue" d="M589.269,-232.497C570.526,-223.438 543.233,-210.246 522.164,-200.063"/>
<polygon fill="midnightblue" stroke="midnightblue" points="523.502,-196.822 512.975,-195.621 520.455,-203.124 523.502,-196.822"/>
</g>
<!-- Node16 -->
<g id="node43" class="node"><title>Node16</title>
<polygon fill="white" stroke="#bfbfbf" points="590,-174.5 590,-195.5 632,-195.5 632,-174.5 590,-174.5"/>
<text text-anchor="middle" x="611" y="-182.5" font-family="Verdana" font-size="10.00">limits</text>
</g>
<!-- Node15&#45;&gt;Node16 -->
<g id="edge54" class="edge"><title>Node15&#45;&gt;Node16</title>
<path fill="none" stroke="midnightblue" d="M611,-232.362C611,-224.922 611,-214.743 611,-205.728"/>
<polygon fill="midnightblue" stroke="midnightblue" points="614.5,-205.571 611,-195.571 607.5,-205.571 614.5,-205.571"/>
</g>
<!-- Node17&#45;&gt;Node3 -->
<g id="edge62" class="edge"><title>Node17&#45;&gt;Node3</title>
<path fill="none" stroke="midnightblue" d="M784.321,-116.295C801.608,-96.4408 838.814,-53.709 860.133,-29.2239"/>
<polygon fill="midnightblue" stroke="midnightblue" points="862.775,-31.5194 866.702,-21.6792 857.495,-26.9228 862.775,-31.5194"/>
</g>
<!-- Node17&#45;&gt;Node9 -->
<g id="edge68" class="edge"><title>Node17&#45;&gt;Node9</title>
<path fill="none" stroke="midnightblue" d="M776.136,-116.253C777.095,-101.098 776.377,-73.5651 761,-58 735.363,-32.0494 629.351,-18.8369 575.181,-13.6704"/>
<polygon fill="midnightblue" stroke="midnightblue" points="575.355,-10.1718 565.077,-12.743 574.715,-17.1425 575.355,-10.1718"/>
</g>
<!-- Node18 -->
<g id="node50" class="node"><title>Node18</title>
<a xlink:href="ErrorContext_8h.html" target="_top" xlink:title="ErrorContext.h">
<polygon fill="white" stroke="black" points="666,-58.5 666,-79.5 752,-79.5 752,-58.5 666,-58.5"/>
<text text-anchor="middle" x="709" y="-66.5" font-family="Verdana" font-size="10.00">ErrorContext.h</text>
</a>
</g>
<!-- Node17&#45;&gt;Node18 -->
<g id="edge64" class="edge"><title>Node17&#45;&gt;Node18</title>
<path fill="none" stroke="midnightblue" d="M762.895,-116.362C753.312,-107.941 739.736,-96.0105 728.607,-86.2308"/>
<polygon fill="midnightblue" stroke="midnightblue" points="730.851,-83.5427 721.029,-79.5707 726.23,-88.8009 730.851,-83.5427"/>
</g>
<!-- Node18&#45;&gt;Node9 -->
<g id="edge66" class="edge"><title>Node18&#45;&gt;Node9</title>
<path fill="none" stroke="midnightblue" d="M678.939,-58.4966C649.475,-48.2021 604.736,-32.5706 574.716,-22.0817"/>
<polygon fill="midnightblue" stroke="midnightblue" points="575.738,-18.7312 565.143,-18.7369 573.429,-25.3395 575.738,-18.7312"/>
</g>
<!-- Node19&#45;&gt;Node9 -->
<g id="edge74" class="edge"><title>Node19&#45;&gt;Node9</title>
<path fill="none" stroke="midnightblue" d="M718.584,-174.377C687.49,-145.446 601.041,-65.0057 562.259,-28.9202"/>
<polygon fill="midnightblue" stroke="midnightblue" points="564.449,-26.1774 554.744,-21.9277 559.681,-31.3021 564.449,-26.1774"/>
</g>
<!-- Node19&#45;&gt;Node17 -->
<g id="edge72" class="edge"><title>Node19&#45;&gt;Node17</title>
<path fill="none" stroke="midnightblue" d="M738.254,-174.362C744.47,-166.35 753.151,-155.161 760.515,-145.67"/>
<polygon fill="midnightblue" stroke="midnightblue" points="763.434,-147.617 766.799,-137.571 757.903,-143.326 763.434,-147.617"/>
</g>
<!-- Node20&#45;&gt;Node3 -->
<g id="edge78" class="edge"><title>Node20&#45;&gt;Node3</title>
<path fill="none" stroke="midnightblue" d="M994.003,-116.295C971.559,-96.2682 923.029,-52.9641 895.712,-28.5893"/>
<polygon fill="midnightblue" stroke="midnightblue" points="897.76,-25.7256 887.968,-21.6792 893.099,-30.9486 897.76,-25.7256"/>
</g>
<!-- Node21 -->
<g id="node61" class="node"><title>Node21</title>
<a xlink:href="BinaryStream_8h.html" target="_top" xlink:title="BinaryStream.h">
<polygon fill="white" stroke="black" points="980,-58.5 980,-79.5 1072,-79.5 1072,-58.5 980,-58.5"/>
<text text-anchor="middle" x="1026" y="-66.5" font-family="Verdana" font-size="10.00">BinaryStream.h</text>
</a>
</g>
<!-- Node20&#45;&gt;Node21 -->
<g id="edge80" class="edge"><title>Node20&#45;&gt;Node21</title>
<path fill="none" stroke="midnightblue" d="M1009.67,-116.362C1012.29,-108.758 1015.9,-98.294 1019.06,-89.1349"/>
<polygon fill="midnightblue" stroke="midnightblue" points="1022.4,-90.1654 1022.35,-79.5707 1015.79,-87.8834 1022.4,-90.1654"/>
</g>
<!-- Node21&#45;&gt;Node3 -->
<g id="edge82" class="edge"><title>Node21&#45;&gt;Node3</title>
<path fill="none" stroke="midnightblue" d="M998.836,-58.4966C974.549,-49.1057 938.776,-35.2735 912.092,-24.9554"/>
<polygon fill="midnightblue" stroke="midnightblue" points="913.299,-21.6698 902.71,-21.3277 910.774,-28.1987 913.299,-21.6698"/>
</g>
<!-- Node21&#45;&gt;Node9 -->
<g id="edge84" class="edge"><title>Node21&#45;&gt;Node9</title>
<path fill="none" stroke="midnightblue" d="M979.688,-63.4387C882.422,-51.7587 658.985,-24.9278 575.37,-14.887"/>
<polygon fill="midnightblue" stroke="midnightblue" points="575.549,-11.3835 565.203,-13.6662 574.714,-18.3335 575.549,-11.3835"/>
</g>
<!-- Node22 -->
<g id="node65" class="node"><title>Node22</title>
<polygon fill="white" stroke="#bfbfbf" points="999,-0.5 999,-21.5 1053,-21.5 1053,-0.5 999,-0.5"/>
<text text-anchor="middle" x="1026" y="-8.5" font-family="Verdana" font-size="10.00">fstream</text>
</g>
<!-- Node21&#45;&gt;Node22 -->
<g id="edge86" class="edge"><title>Node21&#45;&gt;Node22</title>
<path fill="none" stroke="midnightblue" d="M1026,-58.3619C1026,-50.9219 1026,-40.7427 1026,-31.7276"/>
<polygon fill="midnightblue" stroke="midnightblue" points="1029.5,-31.5706 1026,-21.5707 1022.5,-31.5707 1029.5,-31.5706"/>
</g>
</g>
</svg>
