<?xml version="1.0" encoding="UTF-8" standalone="no"?>
<!DOCTYPE svg PUBLIC "-//W3C//DTD SVG 1.1//EN"
 "http://www.w3.org/Graphics/SVG/1.1/DTD/svg11.dtd">
<!-- Generated by graphviz version 2.26.3 (20100126.1600)
 -->
<!-- Title: parameter/BinaryStream.cpp Pages: 1 -->
<svg width="290pt" height="146pt"
 viewBox="0.00 0.00 290.00 146.00" xmlns="http://www.w3.org/2000/svg" xmlns:xlink="http://www.w3.org/1999/xlink">
<g id="graph1" class="graph" transform="scale(1 1) rotate(0) translate(4 142)">
<title>parameter/BinaryStream.cpp</title>
<polygon fill="white" stroke="white" points="-4,5 -4,-142 287,-142 287,5 -4,5"/>
<!-- Node1 -->
<g id="node1" class="node"><title>Node1</title>
<polygon fill="#bfbfbf" stroke="black" points="103.5,-116.5 103.5,-137.5 260.5,-137.5 260.5,-116.5 103.5,-116.5"/>
<text text-anchor="middle" x="182" y="-124.5" font-family="Verdana" font-size="10.00">parameter/BinaryStream.cpp</text>
</g>
<!-- Node2 -->
<g id="node3" class="node"><title>Node2</title>
<a xlink:href="BinaryStream_8h.html" target="_top" xlink:title="BinaryStream.h">
<polygon fill="white" stroke="black" points="46,-58.5 46,-79.5 138,-79.5 138,-58.5 46,-58.5"/>
<text text-anchor="middle" x="92" y="-66.5" font-family="Verdana" font-size="10.00">BinaryStream.h</text>
</a>
</g>
<!-- Node1&#45;&gt;Node2 -->
<g id="edge2" class="edge"><title>Node1&#45;&gt;Node2</title>
<path fill="none" stroke="midnightblue" d="M165.493,-116.362C151.918,-107.614 132.467,-95.0786 116.985,-85.1015"/>
<polygon fill="midnightblue" stroke="midnightblue" points="118.704,-82.0457 108.403,-79.5707 114.912,-87.9297 118.704,-82.0457"/>
</g>
<!-- Node6 -->
<g id="node11" class="node"><title>Node6</title>
<polygon fill="white" stroke="#bfbfbf" points="155.5,-58.5 155.5,-79.5 208.5,-79.5 208.5,-58.5 155.5,-58.5"/>
<text text-anchor="middle" x="182" y="-66.5" font-family="Verdana" font-size="10.00">string.h</text>
</g>
<!-- Node1&#45;&gt;Node6 -->
<g id="edge10" class="edge"><title>Node1&#45;&gt;Node6</title>
<path fill="none" stroke="midnightblue" d="M182,-116.362C182,-108.922 182,-98.7427 182,-89.7276"/>
<polygon fill="midnightblue" stroke="midnightblue" points="185.5,-89.5706 182,-79.5707 178.5,-89.5707 185.5,-89.5706"/>
</g>
<!-- Node7 -->
<g id="node13" class="node"><title>Node7</title>
<polygon fill="white" stroke="#bfbfbf" points="226,-58.5 226,-79.5 282,-79.5 282,-58.5 226,-58.5"/>
<text text-anchor="middle" x="254" y="-66.5" font-family="Verdana" font-size="10.00">assert.h</text>
</g>
<!-- Node1&#45;&gt;Node7 -->
<g id="edge12" class="edge"><title>Node1&#45;&gt;Node7</title>
<path fill="none" stroke="midnightblue" d="M195.206,-116.362C205.761,-107.859 220.758,-95.7785 232.963,-85.9466"/>
<polygon fill="midnightblue" stroke="midnightblue" points="235.286,-88.5696 240.878,-79.5707 230.895,-83.1183 235.286,-88.5696"/>
</g>
<!-- Node3 -->
<g id="node5" class="node"><title>Node3</title>
<polygon fill="white" stroke="#bfbfbf" points="-0.5,-0.5 -0.5,-21.5 52.5,-21.5 52.5,-0.5 -0.5,-0.5"/>
<text text-anchor="middle" x="26" y="-8.5" font-family="Verdana" font-size="10.00">stdint.h</text>
</g>
<!-- Node2&#45;&gt;Node3 -->
<g id="edge4" class="edge"><title>Node2&#45;&gt;Node3</title>
<path fill="none" stroke="midnightblue" d="M79.8946,-58.3619C70.3119,-49.9408 56.7361,-38.0105 45.6074,-28.2308"/>
<polygon fill="midnightblue" stroke="midnightblue" points="47.8508,-25.5427 38.0287,-21.5707 43.2299,-30.8009 47.8508,-25.5427"/>
</g>
<!-- Node4 -->
<g id="node7" class="node"><title>Node4</title>
<polygon fill="white" stroke="#bfbfbf" points="70,-0.5 70,-21.5 114,-21.5 114,-0.5 70,-0.5"/>
<text text-anchor="middle" x="92" y="-8.5" font-family="Verdana" font-size="10.00">string</text>
</g>
<!-- Node2&#45;&gt;Node4 -->
<g id="edge6" class="edge"><title>Node2&#45;&gt;Node4</title>
<path fill="none" stroke="midnightblue" d="M92,-58.3619C92,-50.9219 92,-40.7427 92,-31.7276"/>
<polygon fill="midnightblue" stroke="midnightblue" points="95.5001,-31.5706 92,-21.5707 88.5001,-31.5707 95.5001,-31.5706"/>
</g>
<!-- Node5 -->
<g id="node9" class="node"><title>Node5</title>
<polygon fill="white" stroke="#bfbfbf" points="132,-0.5 132,-21.5 186,-21.5 186,-0.5 132,-0.5"/>
<text text-anchor="middle" x="159" y="-8.5" font-family="Verdana" font-size="10.00">fstream</text>
</g>
<!-- Node2&#45;&gt;Node5 -->
<g id="edge8" class="edge"><title>Node2&#45;&gt;Node5</title>
<path fill="none" stroke="midnightblue" d="M104.289,-58.3619C114.017,-49.9408 127.798,-38.0105 139.095,-28.2308"/>
<polygon fill="midnightblue" stroke="midnightblue" points="141.519,-30.7619 146.789,-21.5707 136.938,-25.4695 141.519,-30.7619"/>
</g>
</g>
</svg>
