<?xml version="1.0" encoding="UTF-8" standalone="no"?>
<!DOCTYPE svg PUBLIC "-//W3C//DTD SVG 1.1//EN"
 "http://www.w3.org/Graphics/SVG/1.1/DTD/svg11.dtd">
<!-- Generated by graphviz version 2.26.3 (20100126.1600)
 -->
<!-- Title: parameter/BinarySerializableElement.h Pages: 1 -->
<svg width="1002pt" height="174pt"
 viewBox="0.00 0.00 1002.00 174.00" xmlns="http://www.w3.org/2000/svg" xmlns:xlink="http://www.w3.org/1999/xlink">
<g id="graph1" class="graph" transform="scale(1 1) rotate(0) translate(4 170)">
<title>parameter/BinarySerializableElement.h</title>
<polygon fill="white" stroke="white" points="-4,5 -4,-170 999,-170 999,5 -4,5"/>
<!-- Node1 -->
<g id="node1" class="node"><title>Node1</title>
<polygon fill="#bfbfbf" stroke="black" points="335.5,-131 335.5,-165 490.5,-165 490.5,-131 335.5,-131"/>
<text text-anchor="start" x="343.5" y="-152" font-family="Verdana" font-size="10.00">parameter/BinarySerializable</text>
<text text-anchor="middle" x="413" y="-139" font-family="Verdana" font-size="10.00">Element.h</text>
</g>
<!-- Node2 -->
<g id="node3" class="node"><title>Node2</title>
<a xlink:href="BinarySerializableElement_8cpp.html" target="_top" xlink:title="parameter/BinarySerializable\lElement.cpp">
<polygon fill="white" stroke="black" points="52.5,-59 52.5,-93 207.5,-93 207.5,-59 52.5,-59"/>
<text text-anchor="start" x="60.5" y="-80" font-family="Verdana" font-size="10.00">parameter/BinarySerializable</text>
<text text-anchor="middle" x="130" y="-67" font-family="Verdana" font-size="10.00">Element.cpp</text>
</a>
</g>
<!-- Node1&#45;&gt;Node2 -->
<g id="edge2" class="edge"><title>Node1&#45;&gt;Node2</title>
<path fill="none" stroke="midnightblue" d="M335.979,-128.405C292.536,-117.352 238.778,-103.675 197.075,-93.0651"/>
<polygon fill="midnightblue" stroke="midnightblue" points="335.379,-131.863 345.933,-130.937 337.105,-125.079 335.379,-131.863"/>
</g>
<!-- Node3 -->
<g id="node5" class="node"><title>Node3</title>
<a xlink:href="ConfigurableDomain_8h.html" target="_top" xlink:title="parameter/ConfigurableDomain.h">
<polygon fill="white" stroke="black" points="422.5,-65.5 422.5,-86.5 599.5,-86.5 599.5,-65.5 422.5,-65.5"/>
<text text-anchor="middle" x="511" y="-73.5" font-family="Verdana" font-size="10.00">parameter/ConfigurableDomain.h</text>
</a>
</g>
<!-- Node1&#45;&gt;Node3 -->
<g id="edge4" class="edge"><title>Node1&#45;&gt;Node3</title>
<path fill="none" stroke="midnightblue" d="M444.472,-124.877C461.928,-112.053 482.801,-96.7177 496.452,-86.688"/>
<polygon fill="midnightblue" stroke="midnightblue" points="442.211,-122.196 436.225,-130.937 446.356,-127.837 442.211,-122.196"/>
</g>
<!-- Node8 -->
<g id="node15" class="node"><title>Node8</title>
<a xlink:href="DomainConfiguration_8h.html" target="_top" xlink:title="parameter/DomainConfiguration.h">
<polygon fill="white" stroke="black" points="224.5,-65.5 224.5,-86.5 405.5,-86.5 405.5,-65.5 224.5,-65.5"/>
<text text-anchor="middle" x="315" y="-73.5" font-family="Verdana" font-size="10.00">parameter/DomainConfiguration.h</text>
</a>
</g>
<!-- Node1&#45;&gt;Node8 -->
<g id="edge14" class="edge"><title>Node1&#45;&gt;Node8</title>
<path fill="none" stroke="midnightblue" d="M381.528,-124.877C364.072,-112.053 343.199,-96.7177 329.548,-86.688"/>
<polygon fill="midnightblue" stroke="midnightblue" points="379.644,-127.837 389.775,-130.937 383.789,-122.196 379.644,-127.837"/>
</g>
<!-- Node10 -->
<g id="node21" class="node"><title>Node10</title>
<a xlink:href="ConfigurableDomains_8h.html" target="_top" xlink:title="parameter/ConfigurableDomains.h">
<polygon fill="white" stroke="black" points="617,-65.5 617,-86.5 799,-86.5 799,-65.5 617,-65.5"/>
<text text-anchor="middle" x="708" y="-73.5" font-family="Verdana" font-size="10.00">parameter/ConfigurableDomains.h</text>
</a>
</g>
<!-- Node1&#45;&gt;Node10 -->
<g id="edge22" class="edge"><title>Node1&#45;&gt;Node10</title>
<path fill="none" stroke="midnightblue" d="M492.688,-128.551C547.997,-115.052 619.566,-97.584 664.643,-86.5821"/>
<polygon fill="midnightblue" stroke="midnightblue" points="491.796,-125.166 482.911,-130.937 493.456,-131.966 491.796,-125.166"/>
</g>
<!-- Node4 -->
<g id="node7" class="node"><title>Node4</title>
<a xlink:href="ConfigurableDomain_8cpp.html" target="_top" xlink:title="parameter/ConfigurableDomain.cpp">
<polygon fill="white" stroke="black" points="210,-0.5 210,-21.5 398,-21.5 398,-0.5 210,-0.5"/>
<text text-anchor="middle" x="304" y="-8.5" font-family="Verdana" font-size="10.00">parameter/ConfigurableDomain.cpp</text>
</a>
</g>
<!-- Node3&#45;&gt;Node4 -->
<g id="edge6" class="edge"><title>Node3&#45;&gt;Node4</title>
<path fill="none" stroke="midnightblue" d="M467.348,-62.293C428.681,-50.1509 373.034,-32.6774 337.704,-21.5835"/>
<polygon fill="midnightblue" stroke="midnightblue" points="466.692,-65.7553 477.281,-65.412 468.789,-59.0768 466.692,-65.7553"/>
</g>
<!-- Node5 -->
<g id="node9" class="node"><title>Node5</title>
<a xlink:href="ConfigurableDomains_8cpp.html" target="_top" xlink:title="parameter/ConfigurableDomains.cpp">
<polygon fill="white" stroke="black" points="800,-0.5 800,-21.5 994,-21.5 994,-0.5 800,-0.5"/>
<text text-anchor="middle" x="897" y="-8.5" font-family="Verdana" font-size="10.00">parameter/ConfigurableDomains.cpp</text>
</a>
</g>
<!-- Node3&#45;&gt;Node5 -->
<g id="edge8" class="edge"><title>Node3&#45;&gt;Node5</title>
<path fill="none" stroke="midnightblue" d="M576.58,-63.6257C587.081,-61.7033 597.834,-59.7696 608,-58 683.746,-44.8145 770.868,-30.8033 829.483,-21.5447"/>
<polygon fill="midnightblue" stroke="midnightblue" points="575.817,-60.2071 566.616,-65.4597 577.085,-67.0915 575.817,-60.2071"/>
</g>
<!-- Node6 -->
<g id="node11" class="node"><title>Node6</title>
<a xlink:href="ConfigurableElement_8cpp.html" target="_top" xlink:title="parameter/ConfigurableElement.cpp">
<polygon fill="white" stroke="black" points="415.5,-0.5 415.5,-21.5 606.5,-21.5 606.5,-0.5 415.5,-0.5"/>
<text text-anchor="middle" x="511" y="-8.5" font-family="Verdana" font-size="10.00">parameter/ConfigurableElement.cpp</text>
</a>
</g>
<!-- Node3&#45;&gt;Node6 -->
<g id="edge10" class="edge"><title>Node3&#45;&gt;Node6</title>
<path fill="none" stroke="midnightblue" d="M511,-55.0142C511,-43.8307 511,-30.5583 511,-21.5337"/>
<polygon fill="midnightblue" stroke="midnightblue" points="507.5,-55.2665 511,-65.2666 514.5,-55.2666 507.5,-55.2665"/>
</g>
<!-- Node7 -->
<g id="node13" class="node"><title>Node7</title>
<a xlink:href="ParameterMgr_8cpp.html" target="_top" xlink:title="parameter/ParameterMgr.cpp">
<polygon fill="white" stroke="black" points="624,-0.5 624,-21.5 782,-21.5 782,-0.5 624,-0.5"/>
<text text-anchor="middle" x="703" y="-8.5" font-family="Verdana" font-size="10.00">parameter/ParameterMgr.cpp</text>
</a>
</g>
<!-- Node3&#45;&gt;Node7 -->
<g id="edge12" class="edge"><title>Node3&#45;&gt;Node7</title>
<path fill="none" stroke="midnightblue" d="M551.947,-62.1377C587.793,-50.0023 639.108,-32.6302 671.738,-21.5835"/>
<polygon fill="midnightblue" stroke="midnightblue" points="550.625,-58.8901 542.275,-65.412 552.87,-65.5204 550.625,-58.8901"/>
</g>
<!-- Node8&#45;&gt;Node4 -->
<g id="edge16" class="edge"><title>Node8&#45;&gt;Node4</title>
<path fill="none" stroke="midnightblue" d="M311.508,-55.363C309.603,-44.1077 307.326,-30.6523 305.783,-21.5337"/>
<polygon fill="midnightblue" stroke="midnightblue" points="308.064,-55.9908 313.184,-65.2666 314.966,-54.8227 308.064,-55.9908"/>
</g>
<!-- Node8&#45;&gt;Node7 -->
<g id="edge20" class="edge"><title>Node8&#45;&gt;Node7</title>
<path fill="none" stroke="midnightblue" d="M381.938,-63.6546C392.655,-61.7285 403.628,-59.7861 414,-58 490.02,-44.9087 577.463,-30.8229 636.076,-21.5216"/>
<polygon fill="midnightblue" stroke="midnightblue" points="380.989,-60.2694 371.77,-65.4907 382.233,-67.158 380.989,-60.2694"/>
</g>
<!-- Node9 -->
<g id="node18" class="node"><title>Node9</title>
<a xlink:href="DomainConfiguration_8cpp.html" target="_top" xlink:title="parameter/DomainConfiguration.cpp">
<polygon fill="white" stroke="black" points="0,-0.5 0,-21.5 192,-21.5 192,-0.5 0,-0.5"/>
<text text-anchor="middle" x="96" y="-8.5" font-family="Verdana" font-size="10.00">parameter/DomainConfiguration.cpp</text>
</a>
</g>
<!-- Node8&#45;&gt;Node9 -->
<g id="edge18" class="edge"><title>Node8&#45;&gt;Node9</title>
<path fill="none" stroke="midnightblue" d="M269.599,-62.5248C228.661,-50.3743 169.275,-32.7482 131.658,-21.5835"/>
<polygon fill="midnightblue" stroke="midnightblue" points="268.744,-65.9219 279.326,-65.412 270.736,-59.2112 268.744,-65.9219"/>
</g>
<!-- Node10&#45;&gt;Node5 -->
<g id="edge24" class="edge"><title>Node10&#45;&gt;Node5</title>
<path fill="none" stroke="midnightblue" d="M748.307,-62.1377C783.593,-50.0023 834.106,-32.6302 866.226,-21.5835"/>
<polygon fill="midnightblue" stroke="midnightblue" points="747.105,-58.85 738.787,-65.412 749.381,-65.4694 747.105,-58.85"/>
</g>
<!-- Node10&#45;&gt;Node7 -->
<g id="edge26" class="edge"><title>Node10&#45;&gt;Node7</title>
<path fill="none" stroke="midnightblue" d="M706.386,-55.0142C705.525,-43.8307 704.504,-30.5583 703.81,-21.5337"/>
<polygon fill="midnightblue" stroke="midnightblue" points="702.918,-55.5645 707.174,-65.2666 709.897,-55.0276 702.918,-55.5645"/>
</g>
</g>
</svg>
