<?xml version="1.0" encoding="UTF-8" standalone="no"?>
<!DOCTYPE svg PUBLIC "-//W3C//DTD SVG 1.1//EN"
 "http://www.w3.org/Graphics/SVG/1.1/DTD/svg11.dtd">
<!-- Generated by graphviz version 2.26.3 (20100126.1600)
 -->
<!-- Title: parameter/BinaryStream.h Pages: 1 -->
<svg width="2816pt" height="290pt"
 viewBox="0.00 0.00 2816.00 290.00" xmlns="http://www.w3.org/2000/svg" xmlns:xlink="http://www.w3.org/1999/xlink">
<g id="graph1" class="graph" transform="scale(1 1) rotate(0) translate(4 286)">
<title>parameter/BinaryStream.h</title>
<polygon fill="white" stroke="white" points="-4,5 -4,-286 2813,-286 2813,5 -4,5"/>
<!-- Node1 -->
<g id="node1" class="node"><title>Node1</title>
<polygon fill="#bfbfbf" stroke="black" points="1567,-260.5 1567,-281.5 1713,-281.5 1713,-260.5 1567,-260.5"/>
<text text-anchor="middle" x="1640" y="-268.5" font-family="Verdana" font-size="10.00">parameter/BinaryStream.h</text>
</g>
<!-- Node2 -->
<g id="node3" class="node"><title>Node2</title>
<a xlink:href="ParameterBlackboard_8h.html" target="_top" xlink:title="parameter/ParameterBlackboard.h">
<polygon fill="white" stroke="black" points="1052.5,-195.5 1052.5,-216.5 1235.5,-216.5 1235.5,-195.5 1052.5,-195.5"/>
<text text-anchor="middle" x="1144" y="-203.5" font-family="Verdana" font-size="10.00">parameter/ParameterBlackboard.h</text>
</a>
</g>
<!-- Node1&#45;&gt;Node2 -->
<g id="edge2" class="edge"><title>Node1&#45;&gt;Node2</title>
<path fill="none" stroke="midnightblue" d="M1556.65,-260.077C1464.13,-247.952 1315.84,-228.519 1224.49,-216.548"/>
<polygon fill="midnightblue" stroke="midnightblue" points="1556.44,-263.58 1566.81,-261.409 1557.35,-256.639 1556.44,-263.58"/>
</g>
<!-- Node3 -->
<g id="node5" class="node"><title>Node3</title>
<a xlink:href="AreaConfiguration_8h.html" target="_top" xlink:title="parameter/AreaConfiguration.h">
<polygon fill="white" stroke="black" points="278,-123.5 278,-144.5 444,-144.5 444,-123.5 278,-123.5"/>
<text text-anchor="middle" x="361" y="-131.5" font-family="Verdana" font-size="10.00">parameter/AreaConfiguration.h</text>
</a>
</g>
<!-- Node1&#45;&gt;Node3 -->
<g id="edge36" class="edge"><title>Node1&#45;&gt;Node3</title>
<path fill="none" stroke="midnightblue" d="M1556.55,-265.936C1362.17,-253.421 864.464,-217.229 453,-152 439.498,-149.859 424.951,-147.186 411.499,-144.559"/>
<polygon fill="midnightblue" stroke="midnightblue" points="1556.48,-269.439 1566.69,-266.585 1556.93,-262.453 1556.48,-269.439"/>
</g>
<!-- Node4 -->
<g id="node7" class="node"><title>Node4</title>
<a xlink:href="AreaConfiguration_8cpp.html" target="_top" xlink:title="parameter/AreaConfiguration.cpp">
<polygon fill="white" stroke="black" points="-0.5,-58.5 -0.5,-79.5 176.5,-79.5 176.5,-58.5 -0.5,-58.5"/>
<text text-anchor="middle" x="88" y="-66.5" font-family="Verdana" font-size="10.00">parameter/AreaConfiguration.cpp</text>
</a>
</g>
<!-- Node1&#45;&gt;Node4 -->
<g id="edge38" class="edge"><title>Node1&#45;&gt;Node4</title>
<path fill="none" stroke="midnightblue" d="M1556.43,-269.941C1392.89,-267.173 1019.24,-257.421 707,-224 510.841,-203.004 457.674,-209.629 269,-152 207.009,-133.065 138.729,-97.3423 106.627,-79.5806"/>
<polygon fill="midnightblue" stroke="midnightblue" points="1556.84,-273.448 1566.9,-270.114 1556.96,-266.449 1556.84,-273.448"/>
</g>
<!-- Node18 -->
<g id="node38" class="node"><title>Node18</title>
<a xlink:href="BinarySerializableElement_8h.html" target="_top" xlink:title="parameter/BinarySerializable\lElement.h">
<polygon fill="white" stroke="black" points="2058.5,-189 2058.5,-223 2213.5,-223 2213.5,-189 2058.5,-189"/>
<text text-anchor="start" x="2066.5" y="-210" font-family="Verdana" font-size="10.00">parameter/BinarySerializable</text>
<text text-anchor="middle" x="2136" y="-197" font-family="Verdana" font-size="10.00">Element.h</text>
</a>
</g>
<!-- Node1&#45;&gt;Node18 -->
<g id="edge40" class="edge"><title>Node1&#45;&gt;Node18</title>
<path fill="none" stroke="midnightblue" d="M1723.17,-260.1C1816.67,-247.848 1967.28,-228.11 2058.42,-216.166"/>
<polygon fill="midnightblue" stroke="midnightblue" points="1722.65,-256.639 1713.19,-261.409 1723.56,-263.58 1722.65,-256.639"/>
</g>
<!-- Node22 -->
<g id="node46" class="node"><title>Node22</title>
<a xlink:href="ConfigurableDomains_8cpp.html" target="_top" xlink:title="parameter/ConfigurableDomains.cpp">
<polygon fill="white" stroke="black" points="2408,-58.5 2408,-79.5 2602,-79.5 2602,-58.5 2408,-58.5"/>
<text text-anchor="middle" x="2505" y="-66.5" font-family="Verdana" font-size="10.00">parameter/ConfigurableDomains.cpp</text>
</a>
</g>
<!-- Node1&#45;&gt;Node22 -->
<g id="edge70" class="edge"><title>Node1&#45;&gt;Node22</title>
<path fill="none" stroke="midnightblue" d="M1723.37,-267.132C1947.34,-255.869 2548.98,-219.536 2605,-152 2615.22,-139.685 2613.58,-129.507 2605,-116 2593.43,-97.7813 2572.72,-86.4985 2553.13,-79.574"/>
<polygon fill="midnightblue" stroke="midnightblue" points="1723.13,-263.64 1713.32,-267.634 1723.48,-270.631 1723.13,-263.64"/>
</g>
<!-- Node25 -->
<g id="node59" class="node"><title>Node25</title>
<a xlink:href="BinaryStream_8cpp.html" target="_top" xlink:title="parameter/BinaryStream.cpp">
<polygon fill="white" stroke="black" points="2651.5,-195.5 2651.5,-216.5 2808.5,-216.5 2808.5,-195.5 2651.5,-195.5"/>
<text text-anchor="middle" x="2730" y="-203.5" font-family="Verdana" font-size="10.00">parameter/BinaryStream.cpp</text>
</a>
</g>
<!-- Node1&#45;&gt;Node25 -->
<g id="edge68" class="edge"><title>Node1&#45;&gt;Node25</title>
<path fill="none" stroke="midnightblue" d="M1723.4,-268.644C1930.06,-262.552 2461.88,-245.261 2638,-224 2652.7,-222.225 2668.58,-219.438 2682.93,-216.582"/>
<polygon fill="midnightblue" stroke="midnightblue" points="1723.1,-265.151 1713.21,-268.943 1723.31,-272.148 1723.1,-265.151"/>
</g>
<!-- Node2&#45;&gt;Node3 -->
<g id="edge4" class="edge"><title>Node2&#45;&gt;Node3</title>
<path fill="none" stroke="midnightblue" d="M1041.93,-201.705C906.748,-195.177 661.142,-180.398 453,-152 438.809,-150.064 423.504,-147.332 409.526,-144.58"/>
<polygon fill="midnightblue" stroke="midnightblue" points="1042.11,-205.218 1052.26,-202.199 1042.44,-198.226 1042.11,-205.218"/>
</g>
<!-- Node6 -->
<g id="node11" class="node"><title>Node6</title>
<a xlink:href="BitParameter_8cpp.html" target="_top" xlink:title="parameter/BitParameter.cpp">
<polygon fill="white" stroke="black" points="484.5,-0.5 484.5,-21.5 637.5,-21.5 637.5,-0.5 484.5,-0.5"/>
<text text-anchor="middle" x="561" y="-8.5" font-family="Verdana" font-size="10.00">parameter/BitParameter.cpp</text>
</a>
</g>
<!-- Node2&#45;&gt;Node6 -->
<g id="edge22" class="edge"><title>Node2&#45;&gt;Node6</title>
<path fill="none" stroke="midnightblue" d="M1041.97,-197.552C901.629,-185.544 664.47,-163.703 649,-152 613.062,-124.813 636.453,-95.1854 611,-58 601.175,-43.6467 586.294,-30.378 575.319,-21.6254"/>
<polygon fill="midnightblue" stroke="midnightblue" points="1042.06,-201.072 1052.32,-198.435 1042.66,-194.098 1042.06,-201.072"/>
</g>
<!-- Node10 -->
<g id="node19" class="node"><title>Node10</title>
<a xlink:href="ArrayParameter_8cpp.html" target="_top" xlink:title="parameter/ArrayParameter.cpp">
<polygon fill="white" stroke="black" points="1250,-123.5 1250,-144.5 1416,-144.5 1416,-123.5 1250,-123.5"/>
<text text-anchor="middle" x="1333" y="-131.5" font-family="Verdana" font-size="10.00">parameter/ArrayParameter.cpp</text>
</a>
</g>
<!-- Node2&#45;&gt;Node10 -->
<g id="edge18" class="edge"><title>Node2&#45;&gt;Node10</title>
<path fill="none" stroke="midnightblue" d="M1181.67,-191.65C1218.16,-177.749 1272.64,-156.996 1305.31,-144.55"/>
<polygon fill="midnightblue" stroke="midnightblue" points="1179.99,-188.545 1171.89,-195.376 1182.48,-195.087 1179.99,-188.545"/>
</g>
<!-- Node11 -->
<g id="node21" class="node"><title>Node11</title>
<a xlink:href="BaseParameter_8cpp.html" target="_top" xlink:title="parameter/BaseParameter.cpp">
<polygon fill="white" stroke="black" points="1434,-123.5 1434,-144.5 1598,-144.5 1598,-123.5 1434,-123.5"/>
<text text-anchor="middle" x="1516" y="-131.5" font-family="Verdana" font-size="10.00">parameter/BaseParameter.cpp</text>
</a>
</g>
<!-- Node2&#45;&gt;Node11 -->
<g id="edge20" class="edge"><title>Node2&#45;&gt;Node11</title>
<path fill="none" stroke="midnightblue" d="M1209.15,-193.583C1266.12,-182.702 1351.06,-166.417 1425,-152 1437.33,-149.596 1450.59,-146.986 1463.08,-144.518"/>
<polygon fill="midnightblue" stroke="midnightblue" points="1208.37,-190.17 1199.2,-195.483 1209.68,-197.046 1208.37,-190.17"/>
</g>
<!-- Node12 -->
<g id="node24" class="node"><title>Node12</title>
<a xlink:href="BitParameterBlock_8cpp.html" target="_top" xlink:title="parameter/BitParameterBlock.cpp">
<polygon fill="white" stroke="black" points="1615.5,-123.5 1615.5,-144.5 1794.5,-144.5 1794.5,-123.5 1615.5,-123.5"/>
<text text-anchor="middle" x="1705" y="-131.5" font-family="Verdana" font-size="10.00">parameter/BitParameterBlock.cpp</text>
</a>
</g>
<!-- Node2&#45;&gt;Node12 -->
<g id="edge24" class="edge"><title>Node2&#45;&gt;Node12</title>
<path fill="none" stroke="midnightblue" d="M1245.67,-196.078C1339.65,-186.448 1483.07,-170.589 1607,-152 1621.37,-149.845 1636.86,-147.166 1651.19,-144.539"/>
<polygon fill="midnightblue" stroke="midnightblue" points="1245.19,-192.609 1235.6,-197.106 1245.9,-199.572 1245.19,-192.609"/>
</g>
<!-- Node13 -->
<g id="node26" class="node"><title>Node13</title>
<a xlink:href="Parameter_8cpp.html" target="_top" xlink:title="parameter/Parameter.cpp">
<polygon fill="white" stroke="black" points="462,-123.5 462,-144.5 602,-144.5 602,-123.5 462,-123.5"/>
<text text-anchor="middle" x="532" y="-131.5" font-family="Verdana" font-size="10.00">parameter/Parameter.cpp</text>
</a>
</g>
<!-- Node2&#45;&gt;Node13 -->
<g id="edge26" class="edge"><title>Node2&#45;&gt;Node13</title>
<path fill="none" stroke="midnightblue" d="M1041.92,-198.883C935.257,-190.669 763.251,-175.236 616,-152 603.183,-149.978 589.376,-147.251 576.732,-144.532"/>
<polygon fill="midnightblue" stroke="midnightblue" points="1041.8,-202.383 1052.04,-199.655 1042.33,-195.404 1041.8,-202.383"/>
</g>
<!-- Node14 -->
<g id="node28" class="node"><title>Node14</title>
<a xlink:href="ParameterBlackboard_8cpp.html" target="_top" xlink:title="parameter/ParameterBlackboard.cpp">
<polygon fill="white" stroke="black" points="658,-123.5 658,-144.5 852,-144.5 852,-123.5 658,-123.5"/>
<text text-anchor="middle" x="755" y="-131.5" font-family="Verdana" font-size="10.00">parameter/ParameterBlackboard.cpp</text>
</a>
</g>
<!-- Node2&#45;&gt;Node14 -->
<g id="edge28" class="edge"><title>Node2&#45;&gt;Node14</title>
<path fill="none" stroke="midnightblue" d="M1076.76,-193.555C1001.89,-179.697 882.182,-157.54 811.816,-144.516"/>
<polygon fill="midnightblue" stroke="midnightblue" points="1076.55,-197.075 1087.02,-195.453 1077.82,-190.192 1076.55,-197.075"/>
</g>
<!-- Node15 -->
<g id="node30" class="node"><title>Node15</title>
<a xlink:href="ParameterMgr_8cpp.html" target="_top" xlink:title="parameter/ParameterMgr.cpp">
<polygon fill="white" stroke="black" points="2036,-58.5 2036,-79.5 2194,-79.5 2194,-58.5 2036,-58.5"/>
<text text-anchor="middle" x="2115" y="-66.5" font-family="Verdana" font-size="10.00">parameter/ParameterMgr.cpp</text>
</a>
</g>
<!-- Node2&#45;&gt;Node15 -->
<g id="edge30" class="edge"><title>Node2&#45;&gt;Node15</title>
<path fill="none" stroke="midnightblue" d="M1245.99,-203.467C1458.24,-197.633 1933.38,-181.442 2001,-152 2022.33,-142.713 2020.57,-130.192 2039,-116 2057.19,-101.993 2079.75,-88.4731 2095.55,-79.5583"/>
<polygon fill="midnightblue" stroke="midnightblue" points="1245.68,-199.974 1235.78,-203.745 1245.87,-206.971 1245.68,-199.974"/>
</g>
<!-- Node16 -->
<g id="node32" class="node"><title>Node16</title>
<a xlink:href="StringParameter_8cpp.html" target="_top" xlink:title="parameter/StringParameter.cpp">
<polygon fill="white" stroke="black" points="869.5,-123.5 869.5,-144.5 1038.5,-144.5 1038.5,-123.5 869.5,-123.5"/>
<text text-anchor="middle" x="954" y="-131.5" font-family="Verdana" font-size="10.00">parameter/StringParameter.cpp</text>
</a>
</g>
<!-- Node2&#45;&gt;Node16 -->
<g id="edge32" class="edge"><title>Node2&#45;&gt;Node16</title>
<path fill="none" stroke="midnightblue" d="M1106.6,-191.827C1069.92,-177.926 1014.82,-157.049 981.841,-144.55"/>
<polygon fill="midnightblue" stroke="midnightblue" points="1105.37,-195.105 1115.96,-195.376 1107.85,-188.56 1105.37,-195.105"/>
</g>
<!-- Node17 -->
<g id="node34" class="node"><title>Node17</title>
<a xlink:href="SubsystemObject_8cpp.html" target="_top" xlink:title="parameter/SubsystemObject.cpp">
<polygon fill="white" stroke="black" points="1056,-123.5 1056,-144.5 1232,-144.5 1232,-123.5 1056,-123.5"/>
<text text-anchor="middle" x="1144" y="-131.5" font-family="Verdana" font-size="10.00">parameter/SubsystemObject.cpp</text>
</a>
</g>
<!-- Node2&#45;&gt;Node17 -->
<g id="edge34" class="edge"><title>Node2&#45;&gt;Node17</title>
<path fill="none" stroke="midnightblue" d="M1144,-185.235C1144,-171.969 1144,-155.319 1144,-144.667"/>
<polygon fill="midnightblue" stroke="midnightblue" points="1140.5,-185.376 1144,-195.376 1147.5,-185.376 1140.5,-185.376"/>
</g>
<!-- Node3&#45;&gt;Node4 -->
<g id="edge6" class="edge"><title>Node3&#45;&gt;Node4</title>
<path fill="none" stroke="midnightblue" d="M306.937,-121.128C255.723,-108.934 179.754,-90.8463 132.102,-79.5005"/>
<polygon fill="midnightblue" stroke="midnightblue" points="306.296,-124.573 316.834,-123.484 307.917,-117.763 306.296,-124.573"/>
</g>
<!-- Node5 -->
<g id="node9" class="node"><title>Node5</title>
<a xlink:href="BitwiseAreaConfiguration_8h.html" target="_top" xlink:title="parameter/BitwiseAreaConfiguration.h">
<polygon fill="white" stroke="black" points="193.5,-58.5 193.5,-79.5 392.5,-79.5 392.5,-58.5 193.5,-58.5"/>
<text text-anchor="middle" x="293" y="-66.5" font-family="Verdana" font-size="10.00">parameter/BitwiseAreaConfiguration.h</text>
</a>
</g>
<!-- Node3&#45;&gt;Node5 -->
<g id="edge8" class="edge"><title>Node3&#45;&gt;Node5</title>
<path fill="none" stroke="midnightblue" d="M342.273,-116.099C329.988,-104.357 314.346,-89.4043 304.02,-79.5337"/>
<polygon fill="midnightblue" stroke="midnightblue" points="340.124,-118.887 349.771,-123.267 344.961,-113.827 340.124,-118.887"/>
</g>
<!-- Node8 -->
<g id="node15" class="node"><title>Node8</title>
<a xlink:href="ConfigurableElement_8cpp.html" target="_top" xlink:title="parameter/ConfigurableElement.cpp">
<polygon fill="white" stroke="black" points="1139.5,-58.5 1139.5,-79.5 1330.5,-79.5 1330.5,-58.5 1139.5,-58.5"/>
<text text-anchor="middle" x="1235" y="-66.5" font-family="Verdana" font-size="10.00">parameter/ConfigurableElement.cpp</text>
</a>
</g>
<!-- Node3&#45;&gt;Node8 -->
<g id="edge14" class="edge"><title>Node3&#45;&gt;Node8</title>
<path fill="none" stroke="midnightblue" d="M418.42,-121.544C429.833,-119.414 441.762,-117.431 453,-116 699.06,-84.6761 991.411,-74.1293 1139.22,-70.6538"/>
<polygon fill="midnightblue" stroke="midnightblue" points="417.712,-118.116 408.554,-123.443 419.035,-124.99 417.712,-118.116"/>
</g>
<!-- Node9 -->
<g id="node17" class="node"><title>Node9</title>
<a xlink:href="DomainConfiguration_8cpp.html" target="_top" xlink:title="parameter/DomainConfiguration.cpp">
<polygon fill="white" stroke="black" points="410,-58.5 410,-79.5 602,-79.5 602,-58.5 410,-58.5"/>
<text text-anchor="middle" x="506" y="-66.5" font-family="Verdana" font-size="10.00">parameter/DomainConfiguration.cpp</text>
</a>
</g>
<!-- Node3&#45;&gt;Node9 -->
<g id="edge16" class="edge"><title>Node3&#45;&gt;Node9</title>
<path fill="none" stroke="midnightblue" d="M394.029,-119.194C420.973,-107.116 458.38,-90.3469 482.391,-79.5835"/>
<polygon fill="midnightblue" stroke="midnightblue" points="392.313,-116.128 384.619,-123.412 395.176,-122.515 392.313,-116.128"/>
</g>
<!-- Node5&#45;&gt;Node6 -->
<g id="edge10" class="edge"><title>Node5&#45;&gt;Node6</title>
<path fill="none" stroke="midnightblue" d="M351.502,-56.3391C399.664,-45.9159 467.142,-31.3126 512.376,-21.5231"/>
<polygon fill="midnightblue" stroke="midnightblue" points="350.566,-52.9605 341.533,-58.4966 352.047,-59.8022 350.566,-52.9605"/>
</g>
<!-- Node7 -->
<g id="node13" class="node"><title>Node7</title>
<a xlink:href="BitwiseAreaConfiguration_8cpp.html" target="_top" xlink:title="parameter/BitwiseAreaConfiguration.cpp">
<polygon fill="white" stroke="black" points="188,-0.5 188,-21.5 398,-21.5 398,-0.5 188,-0.5"/>
<text text-anchor="middle" x="293" y="-8.5" font-family="Verdana" font-size="10.00">parameter/BitwiseAreaConfiguration.cpp</text>
</a>
</g>
<!-- Node5&#45;&gt;Node7 -->
<g id="edge12" class="edge"><title>Node5&#45;&gt;Node7</title>
<path fill="none" stroke="midnightblue" d="M293,-48.1906C293,-39.1684 293,-28.9941 293,-21.5707"/>
<polygon fill="midnightblue" stroke="midnightblue" points="289.5,-48.3619 293,-58.3619 296.5,-48.3619 289.5,-48.3619"/>
</g>
<!-- Node19 -->
<g id="node40" class="node"><title>Node19</title>
<a xlink:href="BinarySerializableElement_8cpp.html" target="_top" xlink:title="parameter/BinarySerializable\lElement.cpp">
<polygon fill="white" stroke="black" points="2241.5,-117 2241.5,-151 2396.5,-151 2396.5,-117 2241.5,-117"/>
<text text-anchor="start" x="2249.5" y="-138" font-family="Verdana" font-size="10.00">parameter/BinarySerializable</text>
<text text-anchor="middle" x="2319" y="-125" font-family="Verdana" font-size="10.00">Element.cpp</text>
</a>
</g>
<!-- Node18&#45;&gt;Node19 -->
<g id="edge42" class="edge"><title>Node18&#45;&gt;Node19</title>
<path fill="none" stroke="midnightblue" d="M2188.85,-185.208C2216.38,-174.377 2249.62,-161.295 2275.63,-151.065"/>
<polygon fill="midnightblue" stroke="midnightblue" points="2187.39,-182.019 2179.37,-188.937 2189.96,-188.533 2187.39,-182.019"/>
</g>
<!-- Node20 -->
<g id="node42" class="node"><title>Node20</title>
<a xlink:href="ConfigurableDomain_8h.html" target="_top" xlink:title="parameter/ConfigurableDomain.h">
<polygon fill="white" stroke="black" points="2047.5,-123.5 2047.5,-144.5 2224.5,-144.5 2224.5,-123.5 2047.5,-123.5"/>
<text text-anchor="middle" x="2136" y="-131.5" font-family="Verdana" font-size="10.00">parameter/ConfigurableDomain.h</text>
</a>
</g>
<!-- Node18&#45;&gt;Node20 -->
<g id="edge44" class="edge"><title>Node18&#45;&gt;Node20</title>
<path fill="none" stroke="midnightblue" d="M2136,-178.667C2136,-166.913 2136,-153.848 2136,-144.901"/>
<polygon fill="midnightblue" stroke="midnightblue" points="2132.5,-178.937 2136,-188.937 2139.5,-178.937 2132.5,-178.937"/>
</g>
<!-- Node23 -->
<g id="node50" class="node"><title>Node23</title>
<a xlink:href="DomainConfiguration_8h.html" target="_top" xlink:title="parameter/DomainConfiguration.h">
<polygon fill="white" stroke="black" points="1811.5,-123.5 1811.5,-144.5 1992.5,-144.5 1992.5,-123.5 1811.5,-123.5"/>
<text text-anchor="middle" x="1902" y="-131.5" font-family="Verdana" font-size="10.00">parameter/DomainConfiguration.h</text>
</a>
</g>
<!-- Node18&#45;&gt;Node23 -->
<g id="edge54" class="edge"><title>Node18&#45;&gt;Node23</title>
<path fill="none" stroke="midnightblue" d="M2070.87,-185.961C2027.28,-172.547 1971.63,-155.425 1936.39,-144.582"/>
<polygon fill="midnightblue" stroke="midnightblue" points="2069.96,-189.341 2080.55,-188.937 2072.02,-182.651 2069.96,-189.341"/>
</g>
<!-- Node24 -->
<g id="node55" class="node"><title>Node24</title>
<a xlink:href="ConfigurableDomains_8h.html" target="_top" xlink:title="parameter/ConfigurableDomains.h">
<polygon fill="white" stroke="black" points="2414,-123.5 2414,-144.5 2596,-144.5 2596,-123.5 2414,-123.5"/>
<text text-anchor="middle" x="2505" y="-131.5" font-family="Verdana" font-size="10.00">parameter/ConfigurableDomains.h</text>
</a>
</g>
<!-- Node18&#45;&gt;Node24 -->
<g id="edge62" class="edge"><title>Node18&#45;&gt;Node24</title>
<path fill="none" stroke="midnightblue" d="M2224.03,-188.823C2294.68,-175.037 2391.6,-156.127 2451.17,-144.503"/>
<polygon fill="midnightblue" stroke="midnightblue" points="2222.95,-185.468 2213.8,-190.819 2224.29,-192.339 2222.95,-185.468"/>
</g>
<!-- Node20&#45;&gt;Node8 -->
<g id="edge50" class="edge"><title>Node20&#45;&gt;Node8</title>
<path fill="none" stroke="midnightblue" d="M2054.11,-122.13C2036.61,-119.86 2018.21,-117.674 2001,-116 1760.31,-92.6 1475.87,-78.7555 1330.71,-72.6793"/>
<polygon fill="midnightblue" stroke="midnightblue" points="2053.92,-125.636 2064.3,-123.473 2054.84,-118.696 2053.92,-125.636"/>
</g>
<!-- Node20&#45;&gt;Node15 -->
<g id="edge52" class="edge"><title>Node20&#45;&gt;Node15</title>
<path fill="none" stroke="midnightblue" d="M2129.44,-113.71C2125.79,-102.386 2121.38,-88.7463 2118.4,-79.5337"/>
<polygon fill="midnightblue" stroke="midnightblue" points="2126.13,-114.827 2132.53,-123.267 2132.79,-112.675 2126.13,-114.827"/>
</g>
<!-- Node21 -->
<g id="node44" class="node"><title>Node21</title>
<a xlink:href="ConfigurableDomain_8cpp.html" target="_top" xlink:title="parameter/ConfigurableDomain.cpp">
<polygon fill="white" stroke="black" points="1819,-58.5 1819,-79.5 2007,-79.5 2007,-58.5 1819,-58.5"/>
<text text-anchor="middle" x="1913" y="-66.5" font-family="Verdana" font-size="10.00">parameter/ConfigurableDomain.cpp</text>
</a>
</g>
<!-- Node20&#45;&gt;Node21 -->
<g id="edge46" class="edge"><title>Node20&#45;&gt;Node21</title>
<path fill="none" stroke="midnightblue" d="M2090.03,-120.602C2048.34,-108.449 1987.69,-90.7718 1949.31,-79.5835"/>
<polygon fill="midnightblue" stroke="midnightblue" points="2089.09,-123.974 2099.67,-123.412 2091.05,-117.253 2089.09,-123.974"/>
</g>
<!-- Node20&#45;&gt;Node22 -->
<g id="edge48" class="edge"><title>Node20&#45;&gt;Node22</title>
<path fill="none" stroke="midnightblue" d="M2201.99,-121.641C2212.36,-119.731 2222.97,-117.797 2233,-116 2304.94,-103.111 2387.69,-88.8996 2442.84,-79.515"/>
<polygon fill="midnightblue" stroke="midnightblue" points="2201.34,-118.201 2192.14,-123.46 2202.61,-125.085 2201.34,-118.201"/>
</g>
<!-- Node23&#45;&gt;Node9 -->
<g id="edge58" class="edge"><title>Node23&#45;&gt;Node9</title>
<path fill="none" stroke="midnightblue" d="M1841.99,-121.663C1829.17,-119.429 1815.68,-117.375 1803,-116 1570.31,-90.7627 861.122,-75.5339 602.056,-70.6899"/>
<polygon fill="midnightblue" stroke="midnightblue" points="1841.63,-125.155 1852.09,-123.484 1842.87,-118.266 1841.63,-125.155"/>
</g>
<!-- Node23&#45;&gt;Node15 -->
<g id="edge60" class="edge"><title>Node23&#45;&gt;Node15</title>
<path fill="none" stroke="midnightblue" d="M1946.41,-120.448C1986.22,-108.3 2043.81,-90.7246 2080.32,-79.5835"/>
<polygon fill="midnightblue" stroke="midnightblue" points="1945.24,-117.146 1936.7,-123.412 1947.28,-123.841 1945.24,-117.146"/>
</g>
<!-- Node23&#45;&gt;Node21 -->
<g id="edge56" class="edge"><title>Node23&#45;&gt;Node21</title>
<path fill="none" stroke="midnightblue" d="M1905.49,-113.363C1907.4,-102.108 1909.67,-88.6523 1911.22,-79.5337"/>
<polygon fill="midnightblue" stroke="midnightblue" points="1902.03,-112.823 1903.82,-123.267 1908.94,-113.991 1902.03,-112.823"/>
</g>
<!-- Node24&#45;&gt;Node15 -->
<g id="edge66" class="edge"><title>Node24&#45;&gt;Node15</title>
<path fill="none" stroke="midnightblue" d="M2437.51,-121.687C2426.65,-119.752 2415.52,-117.799 2405,-116 2328.71,-102.953 2240.96,-88.8586 2182.15,-79.5434"/>
<polygon fill="midnightblue" stroke="midnightblue" points="2436.93,-125.138 2447.39,-123.454 2438.16,-118.248 2436.93,-125.138"/>
</g>
<!-- Node24&#45;&gt;Node22 -->
<g id="edge64" class="edge"><title>Node24&#45;&gt;Node22</title>
<path fill="none" stroke="midnightblue" d="M2505,-113.014C2505,-101.831 2505,-88.5583 2505,-79.5337"/>
<polygon fill="midnightblue" stroke="midnightblue" points="2501.5,-113.267 2505,-123.267 2508.5,-113.267 2501.5,-113.267"/>
</g>
</g>
</svg>
