<?xml version="1.0" encoding="UTF-8" standalone="no"?>
<!DOCTYPE svg PUBLIC "-//W3C//DTD SVG 1.1//EN"
 "http://www.w3.org/Graphics/SVG/1.1/DTD/svg11.dtd">
<!-- Generated by graphviz version 2.26.3 (20100126.1600)
 -->
<!-- Title: parameter/BitParameterBlockType.h Pages: 1 -->
<svg width="549pt" height="276pt"
 viewBox="0.00 0.00 549.00 276.00" xmlns="http://www.w3.org/2000/svg" xmlns:xlink="http://www.w3.org/1999/xlink">
<g id="graph1" class="graph" transform="scale(1 1) rotate(0) translate(4 272)">
<title>parameter/BitParameterBlockType.h</title>
<polygon fill="white" stroke="white" points="-4,5 -4,-272 546,-272 546,5 -4,5"/>
<!-- Node1 -->
<g id="node1" class="node"><title>Node1</title>
<polygon fill="#bfbfbf" stroke="black" points="-0.5,-233 -0.5,-267 158.5,-267 158.5,-233 -0.5,-233"/>
<text text-anchor="start" x="7.5" y="-254" font-family="Verdana" font-size="10.00">parameter/BitParameterBlock</text>
<text text-anchor="middle" x="79" y="-241" font-family="Verdana" font-size="10.00">Type.h</text>
</g>
<!-- Node2 -->
<g id="node3" class="node"><title>Node2</title>
<a xlink:href="TypeElement_8h.html" target="_top" xlink:title="TypeElement.h">
<polygon fill="white" stroke="black" points="72,-174.5 72,-195.5 158,-195.5 158,-174.5 72,-174.5"/>
<text text-anchor="middle" x="115" y="-182.5" font-family="Verdana" font-size="10.00">TypeElement.h</text>
</a>
</g>
<!-- Node1&#45;&gt;Node2 -->
<g id="edge2" class="edge"><title>Node1&#45;&gt;Node2</title>
<path fill="none" stroke="midnightblue" d="M88.4586,-232.922C93.2318,-224.304 99.0482,-213.802 104.018,-204.828"/>
<polygon fill="midnightblue" stroke="midnightblue" points="107.206,-206.296 108.99,-195.852 101.083,-202.904 107.206,-206.296"/>
</g>
<!-- Node4 -->
<g id="node7" class="node"><title>Node4</title>
<polygon fill="white" stroke="#bfbfbf" points="79,-0.5 79,-21.5 123,-21.5 123,-0.5 79,-0.5"/>
<text text-anchor="middle" x="101" y="-8.5" font-family="Verdana" font-size="10.00">string</text>
</g>
<!-- Node1&#45;&gt;Node4 -->
<g id="edge28" class="edge"><title>Node1&#45;&gt;Node4</title>
<path fill="none" stroke="midnightblue" d="M72.5134,-232.775C68.9219,-222.308 64.8244,-208.58 63,-196 54.2142,-135.422 78.451,-64.813 92.2193,-31.019"/>
<polygon fill="midnightblue" stroke="midnightblue" points="95.4606,-32.3401 96.108,-21.765 89.0072,-29.6282 95.4606,-32.3401"/>
</g>
<!-- Node3 -->
<g id="node5" class="node"><title>Node3</title>
<a xlink:href="Element_8h.html" target="_top" xlink:title="Element.h">
<polygon fill="white" stroke="black" points="239.5,-116.5 239.5,-137.5 304.5,-137.5 304.5,-116.5 239.5,-116.5"/>
<text text-anchor="middle" x="272" y="-124.5" font-family="Verdana" font-size="10.00">Element.h</text>
</a>
</g>
<!-- Node2&#45;&gt;Node3 -->
<g id="edge4" class="edge"><title>Node2&#45;&gt;Node3</title>
<path fill="none" stroke="midnightblue" d="M143.432,-174.497C168.805,-165.123 206.157,-151.324 234.07,-141.012"/>
<polygon fill="midnightblue" stroke="midnightblue" points="235.348,-144.272 243.515,-137.523 232.922,-137.705 235.348,-144.272"/>
</g>
<!-- Node2&#45;&gt;Node4 -->
<g id="edge26" class="edge"><title>Node2&#45;&gt;Node4</title>
<path fill="none" stroke="midnightblue" d="M114.145,-174.377C111.886,-146.293 105.721,-69.6735 102.706,-32.2027"/>
<polygon fill="midnightblue" stroke="midnightblue" points="106.17,-31.6148 101.879,-21.9277 99.1926,-32.1762 106.17,-31.6148"/>
</g>
<!-- Node3&#45;&gt;Node4 -->
<g id="edge6" class="edge"><title>Node3&#45;&gt;Node4</title>
<path fill="none" stroke="midnightblue" d="M239.463,-122.237C210.322,-116.529 167.852,-104.477 139,-80 123.833,-67.133 113.635,-46.6158 107.654,-31.2937"/>
<polygon fill="midnightblue" stroke="midnightblue" points="110.869,-29.8897 104.179,-21.6739 104.285,-32.2682 110.869,-29.8897"/>
</g>
<!-- Node5 -->
<g id="node9" class="node"><title>Node5</title>
<polygon fill="white" stroke="#bfbfbf" points="494.5,-0.5 494.5,-21.5 541.5,-21.5 541.5,-0.5 494.5,-0.5"/>
<text text-anchor="middle" x="518" y="-8.5" font-family="Verdana" font-size="10.00">vector</text>
</g>
<!-- Node3&#45;&gt;Node5 -->
<g id="edge8" class="edge"><title>Node3&#45;&gt;Node5</title>
<path fill="none" stroke="midnightblue" d="M304.753,-123.616C358.266,-117.492 461.275,-103.028 489,-80 503.479,-67.9745 510.857,-47.4683 514.535,-31.9278"/>
<polygon fill="midnightblue" stroke="midnightblue" points="518.055,-32.1772 516.607,-21.6818 511.194,-30.7893 518.055,-32.1772"/>
</g>
<!-- Node6 -->
<g id="node11" class="node"><title>Node6</title>
<polygon fill="white" stroke="#bfbfbf" points="402.5,-0.5 402.5,-21.5 455.5,-21.5 455.5,-0.5 402.5,-0.5"/>
<text text-anchor="middle" x="429" y="-8.5" font-family="Verdana" font-size="10.00">stdint.h</text>
</g>
<!-- Node3&#45;&gt;Node6 -->
<g id="edge10" class="edge"><title>Node3&#45;&gt;Node6</title>
<path fill="none" stroke="midnightblue" d="M304.636,-124.195C356.087,-119.021 452.345,-106.042 473,-80 486.278,-63.2595 468.77,-42.3751 452.065,-27.9929"/>
<polygon fill="midnightblue" stroke="midnightblue" points="454.038,-25.086 444.068,-21.5015 449.626,-30.5211 454.038,-25.086"/>
</g>
<!-- Node7 -->
<g id="node13" class="node"><title>Node7</title>
<polygon fill="white" stroke="#bfbfbf" points="148,-58.5 148,-79.5 178,-79.5 178,-58.5 148,-58.5"/>
<text text-anchor="middle" x="163" y="-66.5" font-family="Verdana" font-size="10.00">list</text>
</g>
<!-- Node3&#45;&gt;Node7 -->
<g id="edge12" class="edge"><title>Node3&#45;&gt;Node7</title>
<path fill="none" stroke="midnightblue" d="M252.261,-116.497C233.914,-106.734 206.546,-92.1712 186.955,-81.7468"/>
<polygon fill="midnightblue" stroke="midnightblue" points="188.508,-78.6086 178.036,-77.0009 185.22,-84.7882 188.508,-78.6086"/>
</g>
<!-- Node8 -->
<g id="node15" class="node"><title>Node8</title>
<polygon fill="white" stroke="#bfbfbf" points="196,-58.5 196,-79.5 260,-79.5 260,-58.5 196,-58.5"/>
<text text-anchor="middle" x="228" y="-66.5" font-family="Verdana" font-size="10.00">XmlSink.h</text>
</g>
<!-- Node3&#45;&gt;Node8 -->
<g id="edge14" class="edge"><title>Node3&#45;&gt;Node8</title>
<path fill="none" stroke="midnightblue" d="M263.93,-116.362C257.851,-108.35 249.363,-97.1605 242.163,-87.6696"/>
<polygon fill="midnightblue" stroke="midnightblue" points="244.851,-85.4222 236.019,-79.5707 239.275,-89.653 244.851,-85.4222"/>
</g>
<!-- Node9 -->
<g id="node17" class="node"><title>Node9</title>
<polygon fill="white" stroke="#bfbfbf" points="277.5,-58.5 277.5,-79.5 354.5,-79.5 354.5,-58.5 277.5,-58.5"/>
<text text-anchor="middle" x="316" y="-66.5" font-family="Verdana" font-size="10.00">XmlSource.h</text>
</g>
<!-- Node3&#45;&gt;Node9 -->
<g id="edge16" class="edge"><title>Node3&#45;&gt;Node9</title>
<path fill="none" stroke="midnightblue" d="M280.07,-116.362C286.149,-108.35 294.637,-97.1605 301.837,-87.6696"/>
<polygon fill="midnightblue" stroke="midnightblue" points="304.725,-89.653 307.981,-79.5707 299.149,-85.4222 304.725,-89.653"/>
</g>
<!-- Node10 -->
<g id="node19" class="node"><title>Node10</title>
<a xlink:href="PathNavigator_8h.html" target="_top" xlink:title="PathNavigator.h">
<polygon fill="white" stroke="black" points="372,-58.5 372,-79.5 464,-79.5 464,-58.5 372,-58.5"/>
<text text-anchor="middle" x="418" y="-66.5" font-family="Verdana" font-size="10.00">PathNavigator.h</text>
</a>
</g>
<!-- Node3&#45;&gt;Node10 -->
<g id="edge18" class="edge"><title>Node3&#45;&gt;Node10</title>
<path fill="none" stroke="midnightblue" d="M298.439,-116.497C321.756,-107.234 355.95,-93.6499 381.804,-83.3793"/>
<polygon fill="midnightblue" stroke="midnightblue" points="383.263,-86.566 391.264,-79.6212 380.678,-80.0605 383.263,-86.566"/>
</g>
<!-- Node10&#45;&gt;Node4 -->
<g id="edge22" class="edge"><title>Node10&#45;&gt;Node4</title>
<path fill="none" stroke="midnightblue" d="M371.8,-59.6906C368.823,-59.1123 365.87,-58.5444 363,-58 280.305,-42.3149 182.659,-25.1579 133.195,-16.563"/>
<polygon fill="midnightblue" stroke="midnightblue" points="133.561,-13.0743 123.11,-14.8133 132.365,-19.9713 133.561,-13.0743"/>
</g>
<!-- Node10&#45;&gt;Node5 -->
<g id="edge20" class="edge"><title>Node10&#45;&gt;Node5</title>
<path fill="none" stroke="midnightblue" d="M436.342,-58.3619C451.566,-49.532 473.441,-36.844 490.72,-26.8224"/>
<polygon fill="midnightblue" stroke="midnightblue" points="492.88,-29.6155 499.775,-21.5707 489.368,-23.5603 492.88,-29.6155"/>
</g>
<!-- Node10&#45;&gt;Node6 -->
<g id="edge24" class="edge"><title>Node10&#45;&gt;Node6</title>
<path fill="none" stroke="midnightblue" d="M420.018,-58.3619C421.444,-50.8401 423.402,-40.5187 425.125,-31.4308"/>
<polygon fill="midnightblue" stroke="midnightblue" points="428.571,-32.0477 426.995,-21.5707 421.693,-30.7433 428.571,-32.0477"/>
</g>
</g>
</svg>
