<?xml version="1.0" encoding="UTF-8" standalone="no"?>
<!DOCTYPE svg PUBLIC "-//W3C//DTD SVG 1.1//EN"
 "http://www.w3.org/Graphics/SVG/1.1/DTD/svg11.dtd">
<!-- Generated by graphviz version 2.26.3 (20100126.1600)
 -->
<!-- Title: parameter/BitParameterType.cpp Pages: 1 -->
<svg width="951pt" height="494pt"
 viewBox="0.00 0.00 951.11 494.00" xmlns="http://www.w3.org/2000/svg" xmlns:xlink="http://www.w3.org/1999/xlink">
<g id="graph1" class="graph" transform="scale(1 1) rotate(0) translate(4 490)">
<title>parameter/BitParameterType.cpp</title>
<polygon fill="white" stroke="white" points="-4,5 -4,-490 948.115,-490 948.115,5 -4,5"/>
<!-- Node1 -->
<g id="node1" class="node"><title>Node1</title>
<polygon fill="#bfbfbf" stroke="black" points="261.5,-464.5 261.5,-485.5 436.5,-485.5 436.5,-464.5 261.5,-464.5"/>
<text text-anchor="middle" x="349" y="-472.5" font-family="Verdana" font-size="10.00">parameter/BitParameterType.cpp</text>
</g>
<!-- Node2 -->
<g id="node3" class="node"><title>Node2</title>
<a xlink:href="BitParameterType_8h.html" target="_top" xlink:title="BitParameterType.h">
<polygon fill="white" stroke="black" points="258,-232.5 258,-253.5 368,-253.5 368,-232.5 258,-232.5"/>
<text text-anchor="middle" x="313" y="-240.5" font-family="Verdana" font-size="10.00">BitParameterType.h</text>
</a>
</g>
<!-- Node1&#45;&gt;Node2 -->
<g id="edge2" class="edge"><title>Node1&#45;&gt;Node2</title>
<path fill="none" stroke="midnightblue" d="M344.318,-464.398C340.381,-455.016 334.939,-440.858 332,-428 318.621,-369.463 314.653,-298.341 313.484,-263.813"/>
<polygon fill="midnightblue" stroke="midnightblue" points="316.976,-263.471 313.185,-253.578 309.979,-263.675 316.976,-263.471"/>
</g>
<!-- Node12 -->
<g id="node29" class="node"><title>Node12</title>
<a xlink:href="BitParameter_8h.html" target="_top" xlink:title="BitParameter.h">
<polygon fill="white" stroke="black" points="341,-406.5 341,-427.5 429,-427.5 429,-406.5 341,-406.5"/>
<text text-anchor="middle" x="385" y="-414.5" font-family="Verdana" font-size="10.00">BitParameter.h</text>
</a>
</g>
<!-- Node1&#45;&gt;Node12 -->
<g id="edge34" class="edge"><title>Node1&#45;&gt;Node12</title>
<path fill="none" stroke="midnightblue" d="M355.603,-464.362C360.475,-456.513 367.238,-445.616 373.05,-436.253"/>
<polygon fill="midnightblue" stroke="midnightblue" points="376.139,-437.913 378.439,-427.571 370.191,-434.221 376.139,-437.913"/>
</g>
<!-- Node17 -->
<g id="node48" class="node"><title>Node17</title>
<polygon fill="white" stroke="#bfbfbf" points="446.5,-406.5 446.5,-427.5 497.5,-427.5 497.5,-406.5 446.5,-406.5"/>
<text text-anchor="middle" x="472" y="-414.5" font-family="Verdana" font-size="10.00">stdlib.h</text>
</g>
<!-- Node1&#45;&gt;Node17 -->
<g id="edge62" class="edge"><title>Node1&#45;&gt;Node17</title>
<path fill="none" stroke="midnightblue" d="M371.274,-464.497C390.572,-455.397 418.713,-442.127 440.348,-431.925"/>
<polygon fill="midnightblue" stroke="midnightblue" points="441.924,-435.052 449.476,-427.621 438.938,-428.721 441.924,-435.052"/>
</g>
<!-- Node18 -->
<g id="node50" class="node"><title>Node18</title>
<polygon fill="white" stroke="#bfbfbf" points="515,-406.5 515,-427.5 571,-427.5 571,-406.5 515,-406.5"/>
<text text-anchor="middle" x="543" y="-414.5" font-family="Verdana" font-size="10.00">sstream</text>
</g>
<!-- Node1&#45;&gt;Node18 -->
<g id="edge64" class="edge"><title>Node1&#45;&gt;Node18</title>
<path fill="none" stroke="midnightblue" d="M384.132,-464.497C418.219,-454.306 469.801,-438.884 504.871,-428.399"/>
<polygon fill="midnightblue" stroke="midnightblue" points="506.163,-431.666 514.741,-425.448 504.158,-424.96 506.163,-431.666"/>
</g>
<!-- Node19 -->
<g id="node52" class="node"><title>Node19</title>
<a xlink:href="ParameterAccessContext_8h.html" target="_top" xlink:title="ParameterAccessContext.h">
<polygon fill="white" stroke="black" points="-0.5,-116.5 -0.5,-137.5 146.5,-137.5 146.5,-116.5 -0.5,-116.5"/>
<text text-anchor="middle" x="73" y="-124.5" font-family="Verdana" font-size="10.00">ParameterAccessContext.h</text>
</a>
</g>
<!-- Node1&#45;&gt;Node19 -->
<g id="edge66" class="edge"><title>Node1&#45;&gt;Node19</title>
<path fill="none" stroke="midnightblue" d="M298.744,-464.5C219.643,-446.508 75,-407.041 75,-359 75,-359 75,-359 75,-243 75,-209.593 74.1605,-170.782 73.5693,-147.592"/>
<polygon fill="midnightblue" stroke="midnightblue" points="77.0671,-147.459 73.3038,-137.555 70.0695,-147.644 77.0671,-147.459"/>
</g>
<!-- Node21 -->
<g id="node59" class="node"><title>Node21</title>
<a xlink:href="BitParameterBlockType_8h.html" target="_top" xlink:title="BitParameterBlockType.h">
<polygon fill="white" stroke="black" points="105.5,-232.5 105.5,-253.5 240.5,-253.5 240.5,-232.5 105.5,-232.5"/>
<text text-anchor="middle" x="173" y="-240.5" font-family="Verdana" font-size="10.00">BitParameterBlockType.h</text>
</a>
</g>
<!-- Node1&#45;&gt;Node21 -->
<g id="edge76" class="edge"><title>Node1&#45;&gt;Node21</title>
<path fill="none" stroke="midnightblue" d="M340.98,-464.429C313.436,-428.12 222.454,-308.19 187.164,-261.671"/>
<polygon fill="midnightblue" stroke="midnightblue" points="189.899,-259.485 181.067,-253.634 184.322,-263.716 189.899,-259.485"/>
</g>
<!-- Node3 -->
<g id="node5" class="node"><title>Node3</title>
<polygon fill="white" stroke="#bfbfbf" points="685.5,-0.5 685.5,-21.5 738.5,-21.5 738.5,-0.5 685.5,-0.5"/>
<text text-anchor="middle" x="712" y="-8.5" font-family="Verdana" font-size="10.00">stdint.h</text>
</g>
<!-- Node2&#45;&gt;Node3 -->
<g id="edge4" class="edge"><title>Node2&#45;&gt;Node3</title>
<path fill="none" stroke="midnightblue" d="M309.707,-232.068C306.077,-217.887 301.873,-192.749 311,-174 347.578,-98.8554 382.834,-92.4005 459,-58 497.025,-40.8261 614.248,-23.6925 674.856,-15.683"/>
<polygon fill="midnightblue" stroke="midnightblue" points="675.669,-19.1067 685.132,-14.341 674.763,-12.1657 675.669,-19.1067"/>
</g>
<!-- Node4 -->
<g id="node7" class="node"><title>Node4</title>
<a xlink:href="TypeElement_8h.html" target="_top" xlink:title="TypeElement.h">
<polygon fill="white" stroke="black" points="320,-174.5 320,-195.5 406,-195.5 406,-174.5 320,-174.5"/>
<text text-anchor="middle" x="363" y="-182.5" font-family="Verdana" font-size="10.00">TypeElement.h</text>
</a>
</g>
<!-- Node2&#45;&gt;Node4 -->
<g id="edge6" class="edge"><title>Node2&#45;&gt;Node4</title>
<path fill="none" stroke="midnightblue" d="M322.171,-232.362C329.148,-224.268 338.921,-212.932 347.156,-203.38"/>
<polygon fill="midnightblue" stroke="midnightblue" points="350.009,-205.43 353.887,-195.571 344.707,-200.859 350.009,-205.43"/>
</g>
<!-- Node6 -->
<g id="node11" class="node"><title>Node6</title>
<polygon fill="white" stroke="#bfbfbf" points="228,-0.5 228,-21.5 272,-21.5 272,-0.5 228,-0.5"/>
<text text-anchor="middle" x="250" y="-8.5" font-family="Verdana" font-size="10.00">string</text>
</g>
<!-- Node2&#45;&gt;Node6 -->
<g id="edge32" class="edge"><title>Node2&#45;&gt;Node6</title>
<path fill="none" stroke="midnightblue" d="M302.663,-232.383C294.588,-223.434 283.796,-209.897 278,-196 254.643,-140.001 250.464,-67.2324 249.912,-31.9772"/>
<polygon fill="midnightblue" stroke="midnightblue" points="253.411,-31.8924 249.84,-21.9176 246.411,-31.9424 253.411,-31.8924"/>
</g>
<!-- Node5 -->
<g id="node9" class="node"><title>Node5</title>
<a xlink:href="Element_8h.html" target="_top" xlink:title="Element.h">
<polygon fill="white" stroke="black" points="581.5,-116.5 581.5,-137.5 646.5,-137.5 646.5,-116.5 581.5,-116.5"/>
<text text-anchor="middle" x="614" y="-124.5" font-family="Verdana" font-size="10.00">Element.h</text>
</a>
</g>
<!-- Node4&#45;&gt;Node5 -->
<g id="edge8" class="edge"><title>Node4&#45;&gt;Node5</title>
<path fill="none" stroke="midnightblue" d="M406.148,-175.029C452.408,-164.34 525.396,-147.474 571.431,-136.837"/>
<polygon fill="midnightblue" stroke="midnightblue" points="572.435,-140.197 581.39,-134.535 570.859,-133.377 572.435,-140.197"/>
</g>
<!-- Node4&#45;&gt;Node6 -->
<g id="edge30" class="edge"><title>Node4&#45;&gt;Node6</title>
<path fill="none" stroke="midnightblue" d="M352.263,-174.373C343.312,-165.203 330.531,-151.364 321,-138 295.492,-102.233 271.874,-56.45 259.35,-30.7667"/>
<polygon fill="midnightblue" stroke="midnightblue" points="262.463,-29.1634 254.971,-21.6719 256.156,-32.2003 262.463,-29.1634"/>
</g>
<!-- Node5&#45;&gt;Node3 -->
<g id="edge14" class="edge"><title>Node5&#45;&gt;Node3</title>
<path fill="none" stroke="midnightblue" d="M646.595,-119.815C681.492,-111.384 733.425,-96.451 745,-80 756.218,-64.0565 743.716,-43.7066 731.011,-29.2479"/>
<polygon fill="midnightblue" stroke="midnightblue" points="733.484,-26.7687 724.081,-21.8868 728.387,-31.567 733.484,-26.7687"/>
</g>
<!-- Node5&#45;&gt;Node6 -->
<g id="edge10" class="edge"><title>Node5&#45;&gt;Node6</title>
<path fill="none" stroke="midnightblue" d="M581.27,-117.329C549.85,-107.985 501.088,-93.3266 459,-80 396.033,-60.0625 322.814,-35.5918 281.894,-21.7989"/>
<polygon fill="midnightblue" stroke="midnightblue" points="282.807,-18.413 272.213,-18.5316 280.569,-25.0455 282.807,-18.413"/>
</g>
<!-- Node7 -->
<g id="node13" class="node"><title>Node7</title>
<polygon fill="white" stroke="#bfbfbf" points="778.5,-0.5 778.5,-21.5 825.5,-21.5 825.5,-0.5 778.5,-0.5"/>
<text text-anchor="middle" x="802" y="-8.5" font-family="Verdana" font-size="10.00">vector</text>
</g>
<!-- Node5&#45;&gt;Node7 -->
<g id="edge12" class="edge"><title>Node5&#45;&gt;Node7</title>
<path fill="none" stroke="midnightblue" d="M646.589,-119.452C684.202,-110.253 743.178,-94.1793 761,-80 776.948,-67.3121 788.055,-46.6015 794.648,-31.1758"/>
<polygon fill="midnightblue" stroke="midnightblue" points="798.051,-32.0898 798.495,-21.5042 791.546,-29.5026 798.051,-32.0898"/>
</g>
<!-- Node8 -->
<g id="node16" class="node"><title>Node8</title>
<polygon fill="white" stroke="#bfbfbf" points="830,-58.5 830,-79.5 860,-79.5 860,-58.5 830,-58.5"/>
<text text-anchor="middle" x="845" y="-66.5" font-family="Verdana" font-size="10.00">list</text>
</g>
<!-- Node5&#45;&gt;Node8 -->
<g id="edge16" class="edge"><title>Node5&#45;&gt;Node8</title>
<path fill="none" stroke="midnightblue" d="M646.54,-120.828C686.758,-112.88 757.099,-97.9349 816,-80 817.417,-79.5687 818.863,-79.1031 820.318,-78.6155"/>
<polygon fill="midnightblue" stroke="midnightblue" points="821.556,-81.8896 829.781,-75.2109 819.187,-75.3029 821.556,-81.8896"/>
</g>
<!-- Node9 -->
<g id="node18" class="node"><title>Node9</title>
<polygon fill="white" stroke="#bfbfbf" points="562,-58.5 562,-79.5 626,-79.5 626,-58.5 562,-58.5"/>
<text text-anchor="middle" x="594" y="-66.5" font-family="Verdana" font-size="10.00">XmlSink.h</text>
</g>
<!-- Node5&#45;&gt;Node9 -->
<g id="edge18" class="edge"><title>Node5&#45;&gt;Node9</title>
<path fill="none" stroke="midnightblue" d="M610.332,-116.362C607.71,-108.758 604.101,-98.294 600.943,-89.1349"/>
<polygon fill="midnightblue" stroke="midnightblue" points="604.214,-87.8834 597.645,-79.5707 597.596,-90.1654 604.214,-87.8834"/>
</g>
<!-- Node10 -->
<g id="node20" class="node"><title>Node10</title>
<polygon fill="white" stroke="#bfbfbf" points="467.5,-58.5 467.5,-79.5 544.5,-79.5 544.5,-58.5 467.5,-58.5"/>
<text text-anchor="middle" x="506" y="-66.5" font-family="Verdana" font-size="10.00">XmlSource.h</text>
</g>
<!-- Node5&#45;&gt;Node10 -->
<g id="edge20" class="edge"><title>Node5&#45;&gt;Node10</title>
<path fill="none" stroke="midnightblue" d="M594.442,-116.497C577.802,-107.56 553.673,-94.602 534.82,-84.4772"/>
<polygon fill="midnightblue" stroke="midnightblue" points="536.243,-81.2691 525.777,-79.6212 532.931,-87.436 536.243,-81.2691"/>
</g>
<!-- Node11 -->
<g id="node22" class="node"><title>Node11</title>
<a xlink:href="PathNavigator_8h.html" target="_top" xlink:title="PathNavigator.h">
<polygon fill="white" stroke="black" points="644,-58.5 644,-79.5 736,-79.5 736,-58.5 644,-58.5"/>
<text text-anchor="middle" x="690" y="-66.5" font-family="Verdana" font-size="10.00">PathNavigator.h</text>
</a>
</g>
<!-- Node5&#45;&gt;Node11 -->
<g id="edge22" class="edge"><title>Node5&#45;&gt;Node11</title>
<path fill="none" stroke="midnightblue" d="M627.94,-116.362C639.188,-107.777 655.216,-95.5459 668.165,-85.6636"/>
<polygon fill="midnightblue" stroke="midnightblue" points="670.323,-88.4198 676.149,-79.5707 666.076,-82.8551 670.323,-88.4198"/>
</g>
<!-- Node11&#45;&gt;Node3 -->
<g id="edge28" class="edge"><title>Node11&#45;&gt;Node3</title>
<path fill="none" stroke="midnightblue" d="M694.035,-58.3619C696.919,-50.7584 700.888,-40.294 704.363,-31.1349"/>
<polygon fill="midnightblue" stroke="midnightblue" points="707.716,-32.1619 707.99,-21.5707 701.171,-29.6793 707.716,-32.1619"/>
</g>
<!-- Node11&#45;&gt;Node6 -->
<g id="edge26" class="edge"><title>Node11&#45;&gt;Node6</title>
<path fill="none" stroke="midnightblue" d="M643.833,-59.5022C640.848,-58.9699 637.884,-58.4638 635,-58 504.953,-37.0884 348.861,-20.6929 282.455,-14.1213"/>
<polygon fill="midnightblue" stroke="midnightblue" points="282.512,-10.6102 272.218,-13.116 281.828,-17.5767 282.512,-10.6102"/>
</g>
<!-- Node11&#45;&gt;Node7 -->
<g id="edge24" class="edge"><title>Node11&#45;&gt;Node7</title>
<path fill="none" stroke="midnightblue" d="M710.282,-58.4966C727.618,-49.5194 752.79,-36.4835 772.38,-26.3387"/>
<polygon fill="midnightblue" stroke="midnightblue" points="774.22,-29.3278 781.49,-21.6212 771.001,-23.1118 774.22,-29.3278"/>
</g>
<!-- Node12&#45;&gt;Node3 -->
<g id="edge36" class="edge"><title>Node12&#45;&gt;Node3</title>
<path fill="none" stroke="midnightblue" d="M429.183,-407.467C432.161,-406.937 435.12,-406.441 438,-406 633.515,-376.047 748.952,-466.063 873,-312 943.957,-223.874 967.809,-140.139 890,-58 880.201,-47.6559 797.691,-28.9187 748.518,-18.4995"/>
<polygon fill="midnightblue" stroke="midnightblue" points="749.075,-15.0402 738.569,-16.4085 747.635,-21.8906 749.075,-15.0402"/>
</g>
<!-- Node13 -->
<g id="node32" class="node"><title>Node13</title>
<a xlink:href="BaseParameter_8h.html" target="_top" xlink:title="BaseParameter.h">
<polygon fill="white" stroke="black" points="691.5,-348.5 691.5,-369.5 790.5,-369.5 790.5,-348.5 691.5,-348.5"/>
<text text-anchor="middle" x="741" y="-356.5" font-family="Verdana" font-size="10.00">BaseParameter.h</text>
</a>
</g>
<!-- Node12&#45;&gt;Node13 -->
<g id="edge38" class="edge"><title>Node12&#45;&gt;Node13</title>
<path fill="none" stroke="midnightblue" d="M429.214,-407.649C432.184,-407.074 435.133,-406.519 438,-406 522.053,-390.769 619.784,-376.165 681.021,-367.387"/>
<polygon fill="midnightblue" stroke="midnightblue" points="681.868,-370.802 691.273,-365.923 680.878,-363.872 681.868,-370.802"/>
</g>
<!-- Node13&#45;&gt;Node3 -->
<g id="edge40" class="edge"><title>Node13&#45;&gt;Node3</title>
<path fill="none" stroke="midnightblue" d="M776.21,-348.464C819.699,-333.018 888,-299.73 888,-243 888,-243 888,-243 888,-127 888,-95.1919 891.241,-80.7396 869,-58 852.219,-40.8425 789.374,-25.8875 748.464,-17.6832"/>
<polygon fill="midnightblue" stroke="midnightblue" points="749.064,-14.2342 738.578,-15.7456 747.718,-21.1035 749.064,-14.2342"/>
</g>
<!-- Node13&#45;&gt;Node7 -->
<g id="edge42" class="edge"><title>Node13&#45;&gt;Node7</title>
<path fill="none" stroke="midnightblue" d="M790.581,-350.868C817.602,-344.274 850.101,-332.557 873,-312 922.607,-267.468 936.847,-108.487 940,-80 941.076,-70.2816 945.691,-65.9507 940,-58 927.645,-40.7402 872.239,-25.9212 835.499,-17.754"/>
<polygon fill="midnightblue" stroke="midnightblue" points="836.197,-14.3241 825.683,-15.6303 834.717,-21.1658 836.197,-14.3241"/>
</g>
<!-- Node14 -->
<g id="node36" class="node"><title>Node14</title>
<a xlink:href="InstanceConfigurableElement_8h.html" target="_top" xlink:title="InstanceConfigurableElement.h">
<polygon fill="white" stroke="black" points="512,-290.5 512,-311.5 678,-311.5 678,-290.5 512,-290.5"/>
<text text-anchor="middle" x="595" y="-298.5" font-family="Verdana" font-size="10.00">InstanceConfigurableElement.h</text>
</a>
</g>
<!-- Node13&#45;&gt;Node14 -->
<g id="edge44" class="edge"><title>Node13&#45;&gt;Node14</title>
<path fill="none" stroke="midnightblue" d="M714.561,-348.497C691.244,-339.234 657.05,-325.65 631.196,-315.379"/>
<polygon fill="midnightblue" stroke="midnightblue" points="632.322,-312.06 621.736,-311.621 629.737,-318.566 632.322,-312.06"/>
</g>
<!-- Node14&#45;&gt;Node4 -->
<g id="edge56" class="edge"><title>Node14&#45;&gt;Node4</title>
<path fill="none" stroke="midnightblue" d="M515.815,-290.46C484.19,-283.609 448.579,-272.373 420,-254 400.518,-241.475 384.398,-220.142 374.33,-204.505"/>
<polygon fill="midnightblue" stroke="midnightblue" points="377.092,-202.314 368.868,-195.634 371.131,-205.984 377.092,-202.314"/>
</g>
<!-- Node14&#45;&gt;Node6 -->
<g id="edge60" class="edge"><title>Node14&#45;&gt;Node6</title>
<path fill="none" stroke="midnightblue" d="M564.885,-290.495C543.712,-282.328 515.297,-269.747 493,-254 452.438,-225.352 449.999,-209.229 415,-174 362.116,-120.768 298.794,-58.6648 268.252,-28.8114"/>
<polygon fill="midnightblue" stroke="midnightblue" points="270.48,-26.0943 260.881,-21.6101 265.588,-31.1017 270.48,-26.0943"/>
</g>
<!-- Node14&#45;&gt;Node8 -->
<g id="edge58" class="edge"><title>Node14&#45;&gt;Node8</title>
<path fill="none" stroke="midnightblue" d="M627.458,-290.471C648.634,-282.583 676.116,-270.34 697,-254 759.447,-205.141 811.768,-124.963 833.804,-88.339"/>
<polygon fill="midnightblue" stroke="midnightblue" points="836.885,-90.0049 838.971,-79.6174 830.862,-86.4367 836.885,-90.0049"/>
</g>
<!-- Node15 -->
<g id="node38" class="node"><title>Node15</title>
<a xlink:href="ConfigurableElementWithMapping_8h.html" target="_top" xlink:title="ConfigurableElementWithMapping.h">
<polygon fill="white" stroke="black" points="502,-232.5 502,-253.5 688,-253.5 688,-232.5 502,-232.5"/>
<text text-anchor="middle" x="595" y="-240.5" font-family="Verdana" font-size="10.00">ConfigurableElementWithMapping.h</text>
</a>
</g>
<!-- Node14&#45;&gt;Node15 -->
<g id="edge46" class="edge"><title>Node14&#45;&gt;Node15</title>
<path fill="none" stroke="midnightblue" d="M595,-290.362C595,-282.922 595,-272.743 595,-263.728"/>
<polygon fill="midnightblue" stroke="midnightblue" points="598.5,-263.571 595,-253.571 591.5,-263.571 598.5,-263.571"/>
</g>
<!-- Node15&#45;&gt;Node6 -->
<g id="edge54" class="edge"><title>Node15&#45;&gt;Node6</title>
<path fill="none" stroke="midnightblue" d="M581.934,-232.457C545.129,-202.996 436.954,-118.038 340,-58 321.159,-46.3329 299.118,-34.7901 281.564,-26.0632"/>
<polygon fill="midnightblue" stroke="midnightblue" points="282.841,-22.7908 272.322,-21.5217 279.753,-29.0733 282.841,-22.7908"/>
</g>
<!-- Node16 -->
<g id="node40" class="node"><title>Node16</title>
<a xlink:href="ConfigurableElement_8h.html" target="_top" xlink:title="ConfigurableElement.h">
<polygon fill="white" stroke="black" points="551.5,-174.5 551.5,-195.5 676.5,-195.5 676.5,-174.5 551.5,-174.5"/>
<text text-anchor="middle" x="614" y="-182.5" font-family="Verdana" font-size="10.00">ConfigurableElement.h</text>
</a>
</g>
<!-- Node15&#45;&gt;Node16 -->
<g id="edge48" class="edge"><title>Node15&#45;&gt;Node16</title>
<path fill="none" stroke="midnightblue" d="M598.485,-232.362C600.976,-224.758 604.404,-214.294 607.404,-205.135"/>
<polygon fill="midnightblue" stroke="midnightblue" points="610.75,-206.163 610.537,-195.571 604.098,-203.984 610.75,-206.163"/>
</g>
<!-- Node16&#45;&gt;Node5 -->
<g id="edge50" class="edge"><title>Node16&#45;&gt;Node5</title>
<path fill="none" stroke="midnightblue" d="M614,-174.362C614,-166.922 614,-156.743 614,-147.728"/>
<polygon fill="midnightblue" stroke="midnightblue" points="617.5,-147.571 614,-137.571 610.5,-147.571 617.5,-147.571"/>
</g>
<!-- Node16&#45;&gt;Node8 -->
<g id="edge52" class="edge"><title>Node16&#45;&gt;Node8</title>
<path fill="none" stroke="midnightblue" d="M635.318,-174.295C678.397,-152.662 775.564,-103.868 820.881,-81.1118"/>
<polygon fill="midnightblue" stroke="midnightblue" points="822.611,-84.1595 829.977,-76.544 819.47,-77.9039 822.611,-84.1595"/>
</g>
<!-- Node19&#45;&gt;Node3 -->
<g id="edge68" class="edge"><title>Node19&#45;&gt;Node3</title>
<path fill="none" stroke="midnightblue" d="M124.354,-116.458C192.983,-102.485 318.448,-77.3443 426,-58 515.329,-41.9333 620.761,-25.1745 675.257,-16.6751"/>
<polygon fill="midnightblue" stroke="midnightblue" points="675.798,-20.1331 685.141,-15.1371 674.722,-13.2164 675.798,-20.1331"/>
</g>
<!-- Node19&#45;&gt;Node6 -->
<g id="edge74" class="edge"><title>Node19&#45;&gt;Node6</title>
<path fill="none" stroke="midnightblue" d="M84.8414,-116.41C101.094,-102.162 131.544,-76.4773 160,-58 178.711,-45.8506 200.919,-34.2265 218.592,-25.578"/>
<polygon fill="midnightblue" stroke="midnightblue" points="220.405,-28.5897 227.893,-21.0949 217.366,-22.2839 220.405,-28.5897"/>
</g>
<!-- Node20 -->
<g id="node55" class="node"><title>Node20</title>
<a xlink:href="ErrorContext_8h.html" target="_top" xlink:title="ErrorContext.h">
<polygon fill="white" stroke="black" points="22,-58.5 22,-79.5 108,-79.5 108,-58.5 22,-58.5"/>
<text text-anchor="middle" x="65" y="-66.5" font-family="Verdana" font-size="10.00">ErrorContext.h</text>
</a>
</g>
<!-- Node19&#45;&gt;Node20 -->
<g id="edge70" class="edge"><title>Node19&#45;&gt;Node20</title>
<path fill="none" stroke="midnightblue" d="M71.5327,-116.362C70.5065,-108.922 69.1024,-98.7427 67.859,-89.7276"/>
<polygon fill="midnightblue" stroke="midnightblue" points="71.2917,-88.9986 66.458,-79.5707 64.3573,-89.9551 71.2917,-88.9986"/>
</g>
<!-- Node20&#45;&gt;Node6 -->
<g id="edge72" class="edge"><title>Node20&#45;&gt;Node6</title>
<path fill="none" stroke="midnightblue" d="M98.5021,-58.4966C132.473,-47.8464 184.664,-31.4837 218.062,-21.013"/>
<polygon fill="midnightblue" stroke="midnightblue" points="219.287,-24.2969 227.782,-17.9655 217.193,-17.6174 219.287,-24.2969"/>
</g>
<!-- Node21&#45;&gt;Node4 -->
<g id="edge78" class="edge"><title>Node21&#45;&gt;Node4</title>
<path fill="none" stroke="midnightblue" d="M207.408,-232.497C238.651,-222.959 284.901,-208.841 318.858,-198.475"/>
<polygon fill="midnightblue" stroke="midnightblue" points="319.985,-201.79 328.528,-195.523 317.942,-195.095 319.985,-201.79"/>
</g>
<!-- Node21&#45;&gt;Node6 -->
<g id="edge80" class="edge"><title>Node21&#45;&gt;Node6</title>
<path fill="none" stroke="midnightblue" d="M176.509,-232.429C188.434,-196.497 227.539,-78.6742 243.314,-31.1453"/>
<polygon fill="midnightblue" stroke="midnightblue" points="246.643,-32.227 246.471,-21.6335 239.999,-30.0219 246.643,-32.227"/>
</g>
</g>
</svg>
