<?xml version="1.0" encoding="UTF-8" standalone="no"?>
<!DOCTYPE svg PUBLIC "-//W3C//DTD SVG 1.1//EN"
 "http://www.w3.org/Graphics/SVG/1.1/DTD/svg11.dtd">
<!-- Generated by graphviz version 2.26.3 (20100126.1600)
 -->
<!-- Title: parameter/BitParameterBlock.h Pages: 1 -->
<svg width="543pt" height="378pt"
 viewBox="0.00 0.00 542.83 378.00" xmlns="http://www.w3.org/2000/svg" xmlns:xlink="http://www.w3.org/1999/xlink">
<g id="graph1" class="graph" transform="scale(1 1) rotate(0) translate(4 374)">
<title>parameter/BitParameterBlock.h</title>
<polygon fill="white" stroke="white" points="-4,5 -4,-374 539.834,-374 539.834,5 -4,5"/>
<!-- Node1 -->
<g id="node1" class="node"><title>Node1</title>
<polygon fill="#bfbfbf" stroke="black" points="97.8344,-348.5 97.8344,-369.5 265.834,-369.5 265.834,-348.5 97.8344,-348.5"/>
<text text-anchor="middle" x="181.834" y="-356.5" font-family="Verdana" font-size="10.00">parameter/BitParameterBlock.h</text>
</g>
<!-- Node2 -->
<g id="node3" class="node"><title>Node2</title>
<a xlink:href="InstanceConfigurableElement_8h.html" target="_top" xlink:title="InstanceConfigurableElement.h">
<polygon fill="white" stroke="black" points="98.8344,-290.5 98.8344,-311.5 264.834,-311.5 264.834,-290.5 98.8344,-290.5"/>
<text text-anchor="middle" x="181.834" y="-298.5" font-family="Verdana" font-size="10.00">InstanceConfigurableElement.h</text>
</a>
</g>
<!-- Node1&#45;&gt;Node2 -->
<g id="edge2" class="edge"><title>Node1&#45;&gt;Node2</title>
<path fill="none" stroke="midnightblue" d="M181.834,-348.362C181.834,-340.922 181.834,-330.743 181.834,-321.728"/>
<polygon fill="midnightblue" stroke="midnightblue" points="185.334,-321.571 181.834,-311.571 178.334,-321.571 185.334,-321.571"/>
</g>
<!-- Node3 -->
<g id="node5" class="node"><title>Node3</title>
<a xlink:href="ConfigurableElementWithMapping_8h.html" target="_top" xlink:title="ConfigurableElementWithMapping.h">
<polygon fill="white" stroke="black" points="28.8344,-232.5 28.8344,-253.5 214.834,-253.5 214.834,-232.5 28.8344,-232.5"/>
<text text-anchor="middle" x="121.834" y="-240.5" font-family="Verdana" font-size="10.00">ConfigurableElementWithMapping.h</text>
</a>
</g>
<!-- Node2&#45;&gt;Node3 -->
<g id="edge4" class="edge"><title>Node2&#45;&gt;Node3</title>
<path fill="none" stroke="midnightblue" d="M170.829,-290.362C162.287,-282.104 150.254,-270.472 140.251,-260.803"/>
<polygon fill="midnightblue" stroke="midnightblue" points="142.392,-258.004 132.77,-253.571 137.527,-263.037 142.392,-258.004"/>
</g>
<!-- Node6 -->
<g id="node11" class="node"><title>Node6</title>
<polygon fill="white" stroke="#bfbfbf" points="54.8344,-0.5 54.8344,-21.5 98.8344,-21.5 98.8344,-0.5 54.8344,-0.5"/>
<text text-anchor="middle" x="76.8344" y="-8.5" font-family="Verdana" font-size="10.00">string</text>
</g>
<!-- Node2&#45;&gt;Node6 -->
<g id="edge42" class="edge"><title>Node2&#45;&gt;Node6</title>
<path fill="none" stroke="midnightblue" d="M124.024,-290.414C83.7057,-281.915 34.5901,-268.959 19.8344,-254 -2.5031,-231.355 0.834366,-216.808 0.834366,-185 0.834366,-185 0.834366,-185 0.834366,-127 0.834366,-86.5104 33.6318,-49.1585 56.1361,-28.2949"/>
<polygon fill="midnightblue" stroke="midnightblue" points="58.4743,-30.8993 63.5962,-21.6247 53.8085,-25.681 58.4743,-30.8993"/>
</g>
<!-- Node9 -->
<g id="node17" class="node"><title>Node9</title>
<polygon fill="white" stroke="#bfbfbf" points="504.834,-58.5 504.834,-79.5 534.834,-79.5 534.834,-58.5 504.834,-58.5"/>
<text text-anchor="middle" x="519.834" y="-66.5" font-family="Verdana" font-size="10.00">list</text>
</g>
<!-- Node2&#45;&gt;Node9 -->
<g id="edge40" class="edge"><title>Node2&#45;&gt;Node9</title>
<path fill="none" stroke="midnightblue" d="M211.072,-290.481C254.158,-274.178 336.154,-240.043 396.834,-196 441.247,-163.764 483.618,-114.61 505.137,-87.8922"/>
<polygon fill="midnightblue" stroke="midnightblue" points="508.127,-89.755 511.608,-79.7483 502.647,-85.4002 508.127,-89.755"/>
</g>
<!-- Node13 -->
<g id="node30" class="node"><title>Node13</title>
<a xlink:href="TypeElement_8h.html" target="_top" xlink:title="TypeElement.h">
<polygon fill="white" stroke="black" points="159.834,-174.5 159.834,-195.5 245.834,-195.5 245.834,-174.5 159.834,-174.5"/>
<text text-anchor="middle" x="202.834" y="-182.5" font-family="Verdana" font-size="10.00">TypeElement.h</text>
</a>
</g>
<!-- Node2&#45;&gt;Node13 -->
<g id="edge34" class="edge"><title>Node2&#45;&gt;Node13</title>
<path fill="none" stroke="midnightblue" d="M195.691,-290.337C205.628,-281.753 218.215,-268.722 223.834,-254 230.075,-237.651 223.244,-218.59 215.753,-204.649"/>
<polygon fill="midnightblue" stroke="midnightblue" points="218.701,-202.758 210.614,-195.912 212.667,-206.307 218.701,-202.758"/>
</g>
<!-- Node4 -->
<g id="node7" class="node"><title>Node4</title>
<a xlink:href="ConfigurableElement_8h.html" target="_top" xlink:title="ConfigurableElement.h">
<polygon fill="white" stroke="black" points="263.334,-174.5 263.334,-195.5 388.334,-195.5 388.334,-174.5 263.334,-174.5"/>
<text text-anchor="middle" x="325.834" y="-182.5" font-family="Verdana" font-size="10.00">ConfigurableElement.h</text>
</a>
</g>
<!-- Node3&#45;&gt;Node4 -->
<g id="edge6" class="edge"><title>Node3&#45;&gt;Node4</title>
<path fill="none" stroke="midnightblue" d="M158.777,-232.497C192.467,-222.918 242.407,-208.72 278.908,-198.342"/>
<polygon fill="midnightblue" stroke="midnightblue" points="280.161,-201.624 288.822,-195.523 278.246,-194.891 280.161,-201.624"/>
</g>
<!-- Node3&#45;&gt;Node6 -->
<g id="edge32" class="edge"><title>Node3&#45;&gt;Node6</title>
<path fill="none" stroke="midnightblue" d="M119.784,-232.429C112.844,-196.648 90.1526,-79.6628 80.8588,-31.7481"/>
<polygon fill="midnightblue" stroke="midnightblue" points="84.2371,-30.7841 78.8969,-21.6335 77.3652,-32.117 84.2371,-30.7841"/>
</g>
<!-- Node5 -->
<g id="node9" class="node"><title>Node5</title>
<a xlink:href="Element_8h.html" target="_top" xlink:title="Element.h">
<polygon fill="white" stroke="black" points="268.334,-116.5 268.334,-137.5 333.334,-137.5 333.334,-116.5 268.334,-116.5"/>
<text text-anchor="middle" x="300.834" y="-124.5" font-family="Verdana" font-size="10.00">Element.h</text>
</a>
</g>
<!-- Node4&#45;&gt;Node5 -->
<g id="edge8" class="edge"><title>Node4&#45;&gt;Node5</title>
<path fill="none" stroke="midnightblue" d="M321.249,-174.362C317.936,-166.677 313.364,-156.069 309.386,-146.84"/>
<polygon fill="midnightblue" stroke="midnightblue" points="312.563,-145.368 305.391,-137.571 306.135,-148.139 312.563,-145.368"/>
</g>
<!-- Node4&#45;&gt;Node9 -->
<g id="edge30" class="edge"><title>Node4&#45;&gt;Node9</title>
<path fill="none" stroke="midnightblue" d="M339.989,-174.289C358.995,-160.129 394.057,-134.782 425.834,-116 438.466,-108.534 472.331,-91.8968 495.761,-80.5598"/>
<polygon fill="midnightblue" stroke="midnightblue" points="497.284,-83.7115 504.769,-76.2135 494.242,-77.407 497.284,-83.7115"/>
</g>
<!-- Node5&#45;&gt;Node6 -->
<g id="edge10" class="edge"><title>Node5&#45;&gt;Node6</title>
<path fill="none" stroke="midnightblue" d="M268.316,-123.688C232.814,-118.809 175.476,-107.125 133.834,-80 114.427,-67.3585 98.2951,-46.0446 88.204,-30.4438"/>
<polygon fill="midnightblue" stroke="midnightblue" points="90.9664,-28.2566 82.7263,-21.597 85.0149,-31.9417 90.9664,-28.2566"/>
</g>
<!-- Node7 -->
<g id="node13" class="node"><title>Node7</title>
<polygon fill="white" stroke="#bfbfbf" points="176.334,-0.5 176.334,-21.5 223.334,-21.5 223.334,-0.5 176.334,-0.5"/>
<text text-anchor="middle" x="199.834" y="-8.5" font-family="Verdana" font-size="10.00">vector</text>
</g>
<!-- Node5&#45;&gt;Node7 -->
<g id="edge12" class="edge"><title>Node5&#45;&gt;Node7</title>
<path fill="none" stroke="midnightblue" d="M292.152,-116.07C281.149,-102.317 261.486,-78.0667 243.834,-58 235.243,-48.2332 225.37,-37.6335 217.156,-28.9765"/>
<polygon fill="midnightblue" stroke="midnightblue" points="219.601,-26.4682 210.164,-21.652 214.537,-31.3019 219.601,-26.4682"/>
</g>
<!-- Node8 -->
<g id="node15" class="node"><title>Node8</title>
<polygon fill="white" stroke="#bfbfbf" points="262.334,-0.5 262.334,-21.5 315.334,-21.5 315.334,-0.5 262.334,-0.5"/>
<text text-anchor="middle" x="288.834" y="-8.5" font-family="Verdana" font-size="10.00">stdint.h</text>
</g>
<!-- Node5&#45;&gt;Node8 -->
<g id="edge14" class="edge"><title>Node5&#45;&gt;Node8</title>
<path fill="none" stroke="midnightblue" d="M299.727,-116.295C297.745,-97.1314 293.557,-56.654 290.991,-31.8434"/>
<polygon fill="midnightblue" stroke="midnightblue" points="294.45,-31.2659 289.939,-21.6792 287.487,-31.9863 294.45,-31.2659"/>
</g>
<!-- Node5&#45;&gt;Node9 -->
<g id="edge16" class="edge"><title>Node5&#45;&gt;Node9</title>
<path fill="none" stroke="midnightblue" d="M333.473,-121.139C370.74,-114.014 433.539,-100.687 495.283,-79.7239"/>
<polygon fill="midnightblue" stroke="midnightblue" points="496.476,-83.0148 504.78,-76.4349 494.185,-76.4002 496.476,-83.0148"/>
</g>
<!-- Node10 -->
<g id="node19" class="node"><title>Node10</title>
<polygon fill="white" stroke="#bfbfbf" points="328.834,-58.5 328.834,-79.5 392.834,-79.5 392.834,-58.5 328.834,-58.5"/>
<text text-anchor="middle" x="360.834" y="-66.5" font-family="Verdana" font-size="10.00">XmlSink.h</text>
</g>
<!-- Node5&#45;&gt;Node10 -->
<g id="edge18" class="edge"><title>Node5&#45;&gt;Node10</title>
<path fill="none" stroke="midnightblue" d="M311.839,-116.362C320.382,-108.104 332.415,-96.4725 342.418,-86.8029"/>
<polygon fill="midnightblue" stroke="midnightblue" points="345.142,-89.0374 349.899,-79.5707 340.277,-84.0044 345.142,-89.0374"/>
</g>
<!-- Node11 -->
<g id="node21" class="node"><title>Node11</title>
<polygon fill="white" stroke="#bfbfbf" points="410.334,-58.5 410.334,-79.5 487.334,-79.5 487.334,-58.5 410.334,-58.5"/>
<text text-anchor="middle" x="448.834" y="-66.5" font-family="Verdana" font-size="10.00">XmlSource.h</text>
</g>
<!-- Node5&#45;&gt;Node11 -->
<g id="edge20" class="edge"><title>Node5&#45;&gt;Node11</title>
<path fill="none" stroke="midnightblue" d="M327.636,-116.497C351.272,-107.234 385.935,-93.6499 412.142,-83.3793"/>
<polygon fill="midnightblue" stroke="midnightblue" points="413.698,-86.5287 421.732,-79.6212 411.144,-80.0113 413.698,-86.5287"/>
</g>
<!-- Node12 -->
<g id="node23" class="node"><title>Node12</title>
<a xlink:href="PathNavigator_8h.html" target="_top" xlink:title="PathNavigator.h">
<polygon fill="white" stroke="black" points="142.834,-58.5 142.834,-79.5 234.834,-79.5 234.834,-58.5 142.834,-58.5"/>
<text text-anchor="middle" x="188.834" y="-66.5" font-family="Verdana" font-size="10.00">PathNavigator.h</text>
</a>
</g>
<!-- Node5&#45;&gt;Node12 -->
<g id="edge22" class="edge"><title>Node5&#45;&gt;Node12</title>
<path fill="none" stroke="midnightblue" d="M280.552,-116.497C263.217,-107.519 238.044,-94.4835 218.454,-84.3387"/>
<polygon fill="midnightblue" stroke="midnightblue" points="219.834,-81.1118 209.344,-79.6212 216.615,-87.3278 219.834,-81.1118"/>
</g>
<!-- Node12&#45;&gt;Node6 -->
<g id="edge26" class="edge"><title>Node12&#45;&gt;Node6</title>
<path fill="none" stroke="midnightblue" d="M168.552,-58.4966C151.217,-49.5194 126.044,-36.4835 106.454,-26.3387"/>
<polygon fill="midnightblue" stroke="midnightblue" points="107.834,-23.1118 97.3443,-21.6212 104.615,-29.3278 107.834,-23.1118"/>
</g>
<!-- Node12&#45;&gt;Node7 -->
<g id="edge24" class="edge"><title>Node12&#45;&gt;Node7</title>
<path fill="none" stroke="midnightblue" d="M190.852,-58.3619C192.278,-50.8401 194.236,-40.5187 195.96,-31.4308"/>
<polygon fill="midnightblue" stroke="midnightblue" points="199.405,-32.0477 197.83,-21.5707 192.527,-30.7433 199.405,-32.0477"/>
</g>
<!-- Node12&#45;&gt;Node8 -->
<g id="edge28" class="edge"><title>Node12&#45;&gt;Node8</title>
<path fill="none" stroke="midnightblue" d="M207.176,-58.3619C222.4,-49.532 244.276,-36.844 261.554,-26.8224"/>
<polygon fill="midnightblue" stroke="midnightblue" points="263.715,-29.6155 270.609,-21.5707 260.203,-23.5603 263.715,-29.6155"/>
</g>
<!-- Node13&#45;&gt;Node5 -->
<g id="edge36" class="edge"><title>Node13&#45;&gt;Node5</title>
<path fill="none" stroke="midnightblue" d="M220.809,-174.362C235.729,-165.532 257.167,-152.844 274.1,-142.822"/>
<polygon fill="midnightblue" stroke="midnightblue" points="276.15,-145.676 282.974,-137.571 272.585,-139.652 276.15,-145.676"/>
</g>
<!-- Node13&#45;&gt;Node6 -->
<g id="edge38" class="edge"><title>Node13&#45;&gt;Node6</title>
<path fill="none" stroke="midnightblue" d="M190.834,-174.387C171.184,-156.508 131.834,-118.544 106.834,-80 96.9786,-64.8045 88.9983,-45.8278 83.7532,-31.6236"/>
<polygon fill="midnightblue" stroke="midnightblue" points="86.9246,-30.0936 80.2896,-21.8336 80.3254,-32.4283 86.9246,-30.0936"/>
</g>
</g>
</svg>
