<?xml version="1.0" encoding="UTF-8" standalone="no"?>
<!DOCTYPE svg PUBLIC "-//W3C//DTD SVG 1.1//EN"
 "http://www.w3.org/Graphics/SVG/1.1/DTD/svg11.dtd">
<!-- Generated by graphviz version 2.26.3 (20100126.1600)
 -->
<!-- Title: parameter/BitParameter.cpp Pages: 1 -->
<svg width="1250pt" height="494pt"
 viewBox="0.00 0.00 1250.00 494.00" xmlns="http://www.w3.org/2000/svg" xmlns:xlink="http://www.w3.org/1999/xlink">
<g id="graph1" class="graph" transform="scale(1 1) rotate(0) translate(4 490)">
<title>parameter/BitParameter.cpp</title>
<polygon fill="white" stroke="white" points="-4,5 -4,-490 1247,-490 1247,5 -4,5"/>
<!-- Node1 -->
<g id="node1" class="node"><title>Node1</title>
<polygon fill="#bfbfbf" stroke="black" points="719.5,-464.5 719.5,-485.5 872.5,-485.5 872.5,-464.5 719.5,-464.5"/>
<text text-anchor="middle" x="796" y="-472.5" font-family="Verdana" font-size="10.00">parameter/BitParameter.cpp</text>
</g>
<!-- Node2 -->
<g id="node3" class="node"><title>Node2</title>
<a xlink:href="BitParameter_8h.html" target="_top" xlink:title="BitParameter.h">
<polygon fill="white" stroke="black" points="82,-406.5 82,-427.5 170,-427.5 170,-406.5 82,-406.5"/>
<text text-anchor="middle" x="126" y="-414.5" font-family="Verdana" font-size="10.00">BitParameter.h</text>
</a>
</g>
<!-- Node1&#45;&gt;Node2 -->
<g id="edge2" class="edge"><title>Node1&#45;&gt;Node2</title>
<path fill="none" stroke="midnightblue" d="M719.469,-468.375C582.651,-456.531 299.33,-432.005 180.414,-421.71"/>
<polygon fill="midnightblue" stroke="midnightblue" points="180.37,-418.194 170.105,-420.818 179.766,-425.168 180.37,-418.194"/>
</g>
<!-- Node16 -->
<g id="node43" class="node"><title>Node16</title>
<a xlink:href="BitParameterType_8h.html" target="_top" xlink:title="BitParameterType.h">
<polygon fill="white" stroke="black" points="336,-232.5 336,-253.5 446,-253.5 446,-232.5 336,-232.5"/>
<text text-anchor="middle" x="391" y="-240.5" font-family="Verdana" font-size="10.00">BitParameterType.h</text>
</a>
</g>
<!-- Node1&#45;&gt;Node16 -->
<g id="edge54" class="edge"><title>Node1&#45;&gt;Node16</title>
<path fill="none" stroke="midnightblue" d="M740.151,-464.473C707.495,-456.998 666.118,-445.198 632,-428 539.657,-381.452 447.405,-297.697 409.265,-261.024"/>
<polygon fill="midnightblue" stroke="midnightblue" points="411.581,-258.395 401.967,-253.944 406.707,-263.419 411.581,-258.395"/>
</g>
<!-- Node17 -->
<g id="node48" class="node"><title>Node17</title>
<a xlink:href="ParameterAccessContext_8h.html" target="_top" xlink:title="ParameterAccessContext.h">
<polygon fill="white" stroke="black" points="781.5,-116.5 781.5,-137.5 928.5,-137.5 928.5,-116.5 781.5,-116.5"/>
<text text-anchor="middle" x="855" y="-124.5" font-family="Verdana" font-size="10.00">ParameterAccessContext.h</text>
</a>
</g>
<!-- Node1&#45;&gt;Node17 -->
<g id="edge62" class="edge"><title>Node1&#45;&gt;Node17</title>
<path fill="none" stroke="midnightblue" d="M796,-464.444C796,-444.062 796,-397.868 796,-359 796,-359 796,-359 796,-243 796,-211.192 800.117,-202.111 815,-174 820.623,-163.379 828.996,-153.043 836.631,-144.781"/>
<polygon fill="midnightblue" stroke="midnightblue" points="839.182,-147.179 843.611,-137.554 834.147,-142.316 839.182,-147.179"/>
</g>
<!-- Node19 -->
<g id="node55" class="node"><title>Node19</title>
<a xlink:href="ConfigurationAccessContext_8h.html" target="_top" xlink:title="ConfigurationAccessContext.h">
<polygon fill="white" stroke="black" points="823.5,-174.5 823.5,-195.5 984.5,-195.5 984.5,-174.5 823.5,-174.5"/>
<text text-anchor="middle" x="904" y="-182.5" font-family="Verdana" font-size="10.00">ConfigurationAccessContext.h</text>
</a>
</g>
<!-- Node1&#45;&gt;Node19 -->
<g id="edge72" class="edge"><title>Node1&#45;&gt;Node19</title>
<path fill="none" stroke="midnightblue" d="M808.716,-464.263C829.631,-445.325 869,-403.734 869,-359 869,-359 869,-359 869,-301 869,-265.976 883.805,-227.441 894.157,-204.778"/>
<polygon fill="midnightblue" stroke="midnightblue" points="897.41,-206.088 898.531,-195.552 891.085,-203.089 897.41,-206.088"/>
</g>
<!-- Node20 -->
<g id="node59" class="node"><title>Node20</title>
<a xlink:href="ParameterBlackboard_8h.html" target="_top" xlink:title="ParameterBlackboard.h">
<polygon fill="white" stroke="black" points="983.5,-116.5 983.5,-137.5 1112.5,-137.5 1112.5,-116.5 983.5,-116.5"/>
<text text-anchor="middle" x="1048" y="-124.5" font-family="Verdana" font-size="10.00">ParameterBlackboard.h</text>
</a>
</g>
<!-- Node1&#45;&gt;Node20 -->
<g id="edge78" class="edge"><title>Node1&#45;&gt;Node20</title>
<path fill="none" stroke="midnightblue" d="M872.552,-465.813C935.367,-453.497 1014,-424.915 1014,-359 1014,-359 1014,-359 1014,-243 1014,-208.058 1028.38,-169.499 1038.44,-146.809"/>
<polygon fill="midnightblue" stroke="midnightblue" points="1041.69,-148.118 1042.69,-137.57 1035.33,-145.193 1041.69,-148.118"/>
</g>
<!-- Node23 -->
<g id="node68" class="node"><title>Node23</title>
<a xlink:href="BitParameterBlock_8h.html" target="_top" xlink:title="BitParameterBlock.h">
<polygon fill="white" stroke="black" points="641,-406.5 641,-427.5 755,-427.5 755,-406.5 641,-406.5"/>
<text text-anchor="middle" x="698" y="-414.5" font-family="Verdana" font-size="10.00">BitParameterBlock.h</text>
</a>
</g>
<!-- Node1&#45;&gt;Node23 -->
<g id="edge90" class="edge"><title>Node1&#45;&gt;Node23</title>
<path fill="none" stroke="midnightblue" d="M778.025,-464.362C763.106,-455.532 741.667,-442.844 724.734,-432.822"/>
<polygon fill="midnightblue" stroke="midnightblue" points="726.249,-429.652 715.861,-427.571 722.684,-435.676 726.249,-429.652"/>
</g>
<!-- Node24 -->
<g id="node71" class="node"><title>Node24</title>
<a xlink:href="BitwiseAreaConfiguration_8h.html" target="_top" xlink:title="BitwiseAreaConfiguration.h">
<polygon fill="white" stroke="black" points="1057.5,-348.5 1057.5,-369.5 1202.5,-369.5 1202.5,-348.5 1057.5,-348.5"/>
<text text-anchor="middle" x="1130" y="-356.5" font-family="Verdana" font-size="10.00">BitwiseAreaConfiguration.h</text>
</a>
</g>
<!-- Node1&#45;&gt;Node24 -->
<g id="edge94" class="edge"><title>Node1&#45;&gt;Node24</title>
<path fill="none" stroke="midnightblue" d="M872.681,-467.188C918.998,-460.606 978.453,-448.792 1028,-428 1058.91,-415.029 1090.22,-392.062 1109.85,-376.21"/>
<polygon fill="midnightblue" stroke="midnightblue" points="1112.26,-378.756 1117.75,-369.696 1107.81,-373.354 1112.26,-378.756"/>
</g>
<!-- Node3 -->
<g id="node5" class="node"><title>Node3</title>
<polygon fill="white" stroke="#bfbfbf" points="212.5,-0.5 212.5,-21.5 265.5,-21.5 265.5,-0.5 212.5,-0.5"/>
<text text-anchor="middle" x="239" y="-8.5" font-family="Verdana" font-size="10.00">stdint.h</text>
</g>
<!-- Node2&#45;&gt;Node3 -->
<g id="edge4" class="edge"><title>Node2&#45;&gt;Node3</title>
<path fill="none" stroke="midnightblue" d="M126,-406.444C126,-386.062 126,-339.868 126,-301 126,-301 126,-301 126,-127 126,-80.0999 173.982,-45.0669 207.413,-26.3498"/>
<polygon fill="midnightblue" stroke="midnightblue" points="209.26,-29.3304 216.404,-21.5069 205.94,-23.1675 209.26,-29.3304"/>
</g>
<!-- Node4 -->
<g id="node7" class="node"><title>Node4</title>
<a xlink:href="BaseParameter_8h.html" target="_top" xlink:title="BaseParameter.h">
<polygon fill="white" stroke="black" points="-0.5,-348.5 -0.5,-369.5 98.5,-369.5 98.5,-348.5 -0.5,-348.5"/>
<text text-anchor="middle" x="49" y="-356.5" font-family="Verdana" font-size="10.00">BaseParameter.h</text>
</a>
</g>
<!-- Node2&#45;&gt;Node4 -->
<g id="edge6" class="edge"><title>Node2&#45;&gt;Node4</title>
<path fill="none" stroke="midnightblue" d="M111.877,-406.362C100.48,-397.777 84.2419,-385.546 71.1223,-375.664"/>
<polygon fill="midnightblue" stroke="midnightblue" points="73.1268,-372.792 63.0335,-369.571 68.9152,-378.383 73.1268,-372.792"/>
</g>
<!-- Node4&#45;&gt;Node3 -->
<g id="edge8" class="edge"><title>Node4&#45;&gt;Node3</title>
<path fill="none" stroke="midnightblue" d="M49.1519,-348.444C49.4316,-328.063 50,-281.869 50,-243 50,-243 50,-243 50,-127 50,-56.2901 147.28,-27.333 202.257,-16.6142"/>
<polygon fill="midnightblue" stroke="midnightblue" points="203.12,-20.0142 212.322,-14.7627 201.854,-13.1297 203.12,-20.0142"/>
</g>
<!-- Node5 -->
<g id="node10" class="node"><title>Node5</title>
<polygon fill="white" stroke="#bfbfbf" points="64.5,-0.5 64.5,-21.5 111.5,-21.5 111.5,-0.5 64.5,-0.5"/>
<text text-anchor="middle" x="88" y="-8.5" font-family="Verdana" font-size="10.00">vector</text>
</g>
<!-- Node4&#45;&gt;Node5 -->
<g id="edge10" class="edge"><title>Node4&#45;&gt;Node5</title>
<path fill="none" stroke="midnightblue" d="M43.2188,-348.485C32.8125,-328.543 12,-283.586 12,-243 12,-243 12,-243 12,-127 12,-94.5312 18.0627,-85.0643 36,-58 43.563,-46.5887 54.521,-36.1303 64.4296,-27.991"/>
<polygon fill="midnightblue" stroke="midnightblue" points="66.7024,-30.6565 72.4084,-21.7294 62.3808,-25.1497 66.7024,-30.6565"/>
</g>
<!-- Node6 -->
<g id="node12" class="node"><title>Node6</title>
<a xlink:href="InstanceConfigurableElement_8h.html" target="_top" xlink:title="InstanceConfigurableElement.h">
<polygon fill="white" stroke="black" points="559,-290.5 559,-311.5 725,-311.5 725,-290.5 559,-290.5"/>
<text text-anchor="middle" x="642" y="-298.5" font-family="Verdana" font-size="10.00">InstanceConfigurableElement.h</text>
</a>
</g>
<!-- Node4&#45;&gt;Node6 -->
<g id="edge12" class="edge"><title>Node4&#45;&gt;Node6</title>
<path fill="none" stroke="midnightblue" d="M98.5389,-354.155C197.598,-344.466 421.495,-322.567 548.84,-310.112"/>
<polygon fill="midnightblue" stroke="midnightblue" points="549.357,-313.578 558.969,-309.121 548.676,-306.611 549.357,-313.578"/>
</g>
<!-- Node7 -->
<g id="node14" class="node"><title>Node7</title>
<a xlink:href="ConfigurableElementWithMapping_8h.html" target="_top" xlink:title="ConfigurableElementWithMapping.h">
<polygon fill="white" stroke="black" points="502,-232.5 502,-253.5 688,-253.5 688,-232.5 502,-232.5"/>
<text text-anchor="middle" x="595" y="-240.5" font-family="Verdana" font-size="10.00">ConfigurableElementWithMapping.h</text>
</a>
</g>
<!-- Node6&#45;&gt;Node7 -->
<g id="edge14" class="edge"><title>Node6&#45;&gt;Node7</title>
<path fill="none" stroke="midnightblue" d="M633.379,-290.362C626.82,-282.268 617.634,-270.932 609.894,-261.38"/>
<polygon fill="midnightblue" stroke="midnightblue" points="612.581,-259.136 603.566,-253.571 607.142,-263.544 612.581,-259.136"/>
</g>
<!-- Node10 -->
<g id="node20" class="node"><title>Node10</title>
<polygon fill="white" stroke="#bfbfbf" points="704,-0.5 704,-21.5 748,-21.5 748,-0.5 704,-0.5"/>
<text text-anchor="middle" x="726" y="-8.5" font-family="Verdana" font-size="10.00">string</text>
</g>
<!-- Node6&#45;&gt;Node10 -->
<g id="edge52" class="edge"><title>Node6&#45;&gt;Node10</title>
<path fill="none" stroke="midnightblue" d="M668.435,-290.428C684.22,-282.715 703.233,-270.68 714,-254 759.509,-183.499 741.612,-76.0792 731.312,-31.4985"/>
<polygon fill="midnightblue" stroke="midnightblue" points="734.664,-30.4692 728.901,-21.5791 727.862,-32.1229 734.664,-30.4692"/>
</g>
<!-- Node11 -->
<g id="node24" class="node"><title>Node11</title>
<polygon fill="white" stroke="#bfbfbf" points="668,-58.5 668,-79.5 698,-79.5 698,-58.5 668,-58.5"/>
<text text-anchor="middle" x="683" y="-66.5" font-family="Verdana" font-size="10.00">list</text>
</g>
<!-- Node6&#45;&gt;Node11 -->
<g id="edge50" class="edge"><title>Node6&#45;&gt;Node11</title>
<path fill="none" stroke="midnightblue" d="M661.385,-290.458C674.106,-282.35 689.693,-269.856 697,-254 722.412,-198.858 702.81,-124.618 690.707,-89.3018"/>
<polygon fill="midnightblue" stroke="midnightblue" points="693.918,-87.8881 687.249,-79.6554 687.329,-90.2499 693.918,-87.8881"/>
</g>
<!-- Node15 -->
<g id="node37" class="node"><title>Node15</title>
<a xlink:href="TypeElement_8h.html" target="_top" xlink:title="TypeElement.h">
<polygon fill="white" stroke="black" points="419,-174.5 419,-195.5 505,-195.5 505,-174.5 419,-174.5"/>
<text text-anchor="middle" x="462" y="-182.5" font-family="Verdana" font-size="10.00">TypeElement.h</text>
</a>
</g>
<!-- Node6&#45;&gt;Node15 -->
<g id="edge44" class="edge"><title>Node6&#45;&gt;Node15</title>
<path fill="none" stroke="midnightblue" d="M567.554,-290.402C541.524,-283.586 513.671,-272.389 493,-254 478.867,-241.427 470.824,-221.159 466.492,-205.835"/>
<polygon fill="midnightblue" stroke="midnightblue" points="469.786,-204.58 463.96,-195.731 462.996,-206.282 469.786,-204.58"/>
</g>
<!-- Node8 -->
<g id="node16" class="node"><title>Node8</title>
<a xlink:href="ConfigurableElement_8h.html" target="_top" xlink:title="ConfigurableElement.h">
<polygon fill="white" stroke="black" points="522.5,-174.5 522.5,-195.5 647.5,-195.5 647.5,-174.5 522.5,-174.5"/>
<text text-anchor="middle" x="585" y="-182.5" font-family="Verdana" font-size="10.00">ConfigurableElement.h</text>
</a>
</g>
<!-- Node7&#45;&gt;Node8 -->
<g id="edge16" class="edge"><title>Node7&#45;&gt;Node8</title>
<path fill="none" stroke="midnightblue" d="M593.166,-232.362C591.869,-224.84 590.089,-214.519 588.523,-205.431"/>
<polygon fill="midnightblue" stroke="midnightblue" points="591.971,-204.831 586.823,-195.571 585.073,-206.02 591.971,-204.831"/>
</g>
<!-- Node7&#45;&gt;Node10 -->
<g id="edge42" class="edge"><title>Node7&#45;&gt;Node10</title>
<path fill="none" stroke="midnightblue" d="M617.238,-232.397C631.094,-224.477 647.798,-212.227 656,-196 683.675,-141.249 630.106,-112.118 659,-58 666.775,-43.4371 681.294,-32.4118 694.833,-24.7127"/>
<polygon fill="midnightblue" stroke="midnightblue" points="696.736,-27.6663 703.955,-19.9114 693.476,-21.4719 696.736,-27.6663"/>
</g>
<!-- Node9 -->
<g id="node18" class="node"><title>Node9</title>
<a xlink:href="Element_8h.html" target="_top" xlink:title="Element.h">
<polygon fill="white" stroke="black" points="427.5,-116.5 427.5,-137.5 492.5,-137.5 492.5,-116.5 427.5,-116.5"/>
<text text-anchor="middle" x="460" y="-124.5" font-family="Verdana" font-size="10.00">Element.h</text>
</a>
</g>
<!-- Node8&#45;&gt;Node9 -->
<g id="edge18" class="edge"><title>Node8&#45;&gt;Node9</title>
<path fill="none" stroke="midnightblue" d="M562.363,-174.497C542.752,-165.397 514.154,-152.127 492.167,-141.925"/>
<polygon fill="midnightblue" stroke="midnightblue" points="493.435,-138.655 482.891,-137.621 490.488,-145.005 493.435,-138.655"/>
</g>
<!-- Node8&#45;&gt;Node11 -->
<g id="edge40" class="edge"><title>Node8&#45;&gt;Node11</title>
<path fill="none" stroke="midnightblue" d="M594.044,-174.295C610.744,-154.527 646.605,-112.08 667.333,-87.5443"/>
<polygon fill="midnightblue" stroke="midnightblue" points="670.198,-89.5768 673.978,-79.6792 664.851,-85.0593 670.198,-89.5768"/>
</g>
<!-- Node9&#45;&gt;Node3 -->
<g id="edge24" class="edge"><title>Node9&#45;&gt;Node3</title>
<path fill="none" stroke="midnightblue" d="M427.492,-125.535C368.332,-122.114 246.788,-111.353 221,-80 209.408,-65.9059 217.133,-45.1657 225.773,-30.1059"/>
<polygon fill="midnightblue" stroke="midnightblue" points="228.774,-31.9083 231.107,-21.5734 222.838,-28.198 228.774,-31.9083"/>
</g>
<!-- Node9&#45;&gt;Node5 -->
<g id="edge22" class="edge"><title>Node9&#45;&gt;Node5</title>
<path fill="none" stroke="midnightblue" d="M427.417,-124.177C379.156,-119.256 286.37,-106.94 212,-80 175.029,-66.6076 135.958,-43.0931 111.776,-27.2842"/>
<polygon fill="midnightblue" stroke="midnightblue" points="113.54,-24.2542 103.273,-21.6397 109.669,-30.0863 113.54,-24.2542"/>
</g>
<!-- Node9&#45;&gt;Node10 -->
<g id="edge20" class="edge"><title>Node9&#45;&gt;Node10</title>
<path fill="none" stroke="midnightblue" d="M470.947,-116.253C486.978,-101.099 518.382,-73.5675 550,-58 597.259,-34.7316 657.524,-21.8456 693.867,-15.6816"/>
<polygon fill="midnightblue" stroke="midnightblue" points="694.587,-19.1106 703.894,-14.0492 693.462,-12.2016 694.587,-19.1106"/>
</g>
<!-- Node9&#45;&gt;Node11 -->
<g id="edge26" class="edge"><title>Node9&#45;&gt;Node11</title>
<path fill="none" stroke="midnightblue" d="M492.904,-118.442C537.947,-106.727 617.806,-85.9562 658.17,-75.4579"/>
<polygon fill="midnightblue" stroke="midnightblue" points="659.195,-78.8079 667.992,-72.9034 657.433,-72.0333 659.195,-78.8079"/>
</g>
<!-- Node12 -->
<g id="node26" class="node"><title>Node12</title>
<polygon fill="white" stroke="#bfbfbf" points="340,-58.5 340,-79.5 404,-79.5 404,-58.5 340,-58.5"/>
<text text-anchor="middle" x="372" y="-66.5" font-family="Verdana" font-size="10.00">XmlSink.h</text>
</g>
<!-- Node9&#45;&gt;Node12 -->
<g id="edge28" class="edge"><title>Node9&#45;&gt;Node12</title>
<path fill="none" stroke="midnightblue" d="M443.859,-116.362C430.586,-107.614 411.568,-95.0786 396.43,-85.1015"/>
<polygon fill="midnightblue" stroke="midnightblue" points="398.314,-82.1515 388.038,-79.5707 394.462,-87.9962 398.314,-82.1515"/>
</g>
<!-- Node13 -->
<g id="node28" class="node"><title>Node13</title>
<polygon fill="white" stroke="#bfbfbf" points="421.5,-58.5 421.5,-79.5 498.5,-79.5 498.5,-58.5 421.5,-58.5"/>
<text text-anchor="middle" x="460" y="-66.5" font-family="Verdana" font-size="10.00">XmlSource.h</text>
</g>
<!-- Node9&#45;&gt;Node13 -->
<g id="edge30" class="edge"><title>Node9&#45;&gt;Node13</title>
<path fill="none" stroke="midnightblue" d="M460,-116.362C460,-108.922 460,-98.7427 460,-89.7276"/>
<polygon fill="midnightblue" stroke="midnightblue" points="463.5,-89.5706 460,-79.5707 456.5,-89.5707 463.5,-89.5706"/>
</g>
<!-- Node14 -->
<g id="node30" class="node"><title>Node14</title>
<a xlink:href="PathNavigator_8h.html" target="_top" xlink:title="PathNavigator.h">
<polygon fill="white" stroke="black" points="230,-58.5 230,-79.5 322,-79.5 322,-58.5 230,-58.5"/>
<text text-anchor="middle" x="276" y="-66.5" font-family="Verdana" font-size="10.00">PathNavigator.h</text>
</a>
</g>
<!-- Node9&#45;&gt;Node14 -->
<g id="edge32" class="edge"><title>Node9&#45;&gt;Node14</title>
<path fill="none" stroke="midnightblue" d="M427.104,-116.631C397.034,-107.152 352.354,-93.0681 319.373,-82.6721"/>
<polygon fill="midnightblue" stroke="midnightblue" points="320.132,-79.2416 309.543,-79.5733 318.028,-85.9178 320.132,-79.2416"/>
</g>
<!-- Node14&#45;&gt;Node3 -->
<g id="edge38" class="edge"><title>Node14&#45;&gt;Node3</title>
<path fill="none" stroke="midnightblue" d="M269.214,-58.3619C264.207,-50.5131 257.255,-39.6159 251.282,-30.2527"/>
<polygon fill="midnightblue" stroke="midnightblue" points="254.072,-28.1189 245.743,-21.5707 248.171,-31.8837 254.072,-28.1189"/>
</g>
<!-- Node14&#45;&gt;Node5 -->
<g id="edge34" class="edge"><title>Node14&#45;&gt;Node5</title>
<path fill="none" stroke="midnightblue" d="M241.955,-58.4966C207.817,-47.9647 155.572,-31.8467 121.594,-21.3642"/>
<polygon fill="midnightblue" stroke="midnightblue" points="122.264,-17.908 111.676,-18.3044 120.2,-24.597 122.264,-17.908"/>
</g>
<!-- Node14&#45;&gt;Node10 -->
<g id="edge36" class="edge"><title>Node14&#45;&gt;Node10</title>
<path fill="none" stroke="midnightblue" d="M322.166,-59.4919C325.151,-58.9622 328.115,-58.4594 331,-58 465.007,-36.6609 626.001,-20.3907 693.611,-13.9793"/>
<polygon fill="midnightblue" stroke="midnightblue" points="694.014,-17.457 703.642,-13.0357 693.358,-10.4878 694.014,-17.457"/>
</g>
<!-- Node15&#45;&gt;Node9 -->
<g id="edge46" class="edge"><title>Node15&#45;&gt;Node9</title>
<path fill="none" stroke="midnightblue" d="M461.633,-174.362C461.377,-166.922 461.026,-156.743 460.715,-147.728"/>
<polygon fill="midnightblue" stroke="midnightblue" points="464.207,-147.444 460.365,-137.571 457.211,-147.685 464.207,-147.444"/>
</g>
<!-- Node15&#45;&gt;Node10 -->
<g id="edge48" class="edge"><title>Node15&#45;&gt;Node10</title>
<path fill="none" stroke="midnightblue" d="M489.959,-174.415C509.568,-166.209 535.786,-153.617 556,-138 593.387,-109.115 588.265,-86.4287 626,-58 646.804,-42.3268 673.671,-30.0576 694.317,-21.9906"/>
<polygon fill="midnightblue" stroke="midnightblue" points="695.781,-25.1792 703.899,-18.3715 693.307,-18.6307 695.781,-25.1792"/>
</g>
<!-- Node16&#45;&gt;Node3 -->
<g id="edge56" class="edge"><title>Node16&#45;&gt;Node3</title>
<path fill="none" stroke="midnightblue" d="M370.996,-232.415C331.645,-210.301 245.126,-154.967 212,-80 204.664,-63.3987 213.616,-44.1372 223.131,-30.1908"/>
<polygon fill="midnightblue" stroke="midnightblue" points="226.152,-31.9918 229.298,-21.8749 220.53,-27.8218 226.152,-31.9918"/>
</g>
<!-- Node16&#45;&gt;Node10 -->
<g id="edge60" class="edge"><title>Node16&#45;&gt;Node10</title>
<path fill="none" stroke="midnightblue" d="M391.103,-232.271C391.813,-217.389 395.228,-190.46 410,-174 439.05,-141.63 463.433,-159.919 501,-138 549.861,-109.491 550.861,-86.0271 600,-58 630.078,-40.8445 667.596,-27.7918 693.838,-19.8461"/>
<polygon fill="midnightblue" stroke="midnightblue" points="695.046,-23.1389 703.648,-16.9542 693.066,-16.4246 695.046,-23.1389"/>
</g>
<!-- Node16&#45;&gt;Node15 -->
<g id="edge58" class="edge"><title>Node16&#45;&gt;Node15</title>
<path fill="none" stroke="midnightblue" d="M404.022,-232.362C414.431,-223.859 429.219,-211.779 441.255,-201.947"/>
<polygon fill="midnightblue" stroke="midnightblue" points="443.53,-204.608 449.06,-195.571 439.101,-199.187 443.53,-204.608"/>
</g>
<!-- Node17&#45;&gt;Node3 -->
<g id="edge64" class="edge"><title>Node17&#45;&gt;Node3</title>
<path fill="none" stroke="midnightblue" d="M837.521,-116.464C810.567,-100.779 756.752,-71.6716 707,-58 625.698,-35.6586 371.026,-18.7777 275.595,-13.0856"/>
<polygon fill="midnightblue" stroke="midnightblue" points="275.741,-9.58823 265.552,-12.493 275.328,-16.5761 275.741,-9.58823"/>
</g>
<!-- Node17&#45;&gt;Node10 -->
<g id="edge70" class="edge"><title>Node17&#45;&gt;Node10</title>
<path fill="none" stroke="midnightblue" d="M843.095,-116.295C820.824,-96.2682 772.667,-52.9641 745.561,-28.5893"/>
<polygon fill="midnightblue" stroke="midnightblue" points="747.652,-25.7632 737.876,-21.6792 742.972,-30.9682 747.652,-25.7632"/>
</g>
<!-- Node18 -->
<g id="node51" class="node"><title>Node18</title>
<a xlink:href="ErrorContext_8h.html" target="_top" xlink:title="ErrorContext.h">
<polygon fill="white" stroke="black" points="868,-58.5 868,-79.5 954,-79.5 954,-58.5 868,-58.5"/>
<text text-anchor="middle" x="911" y="-66.5" font-family="Verdana" font-size="10.00">ErrorContext.h</text>
</a>
</g>
<!-- Node17&#45;&gt;Node18 -->
<g id="edge66" class="edge"><title>Node17&#45;&gt;Node18</title>
<path fill="none" stroke="midnightblue" d="M865.271,-116.362C873.244,-108.104 884.475,-96.4725 893.811,-86.8029"/>
<polygon fill="midnightblue" stroke="midnightblue" points="896.366,-89.1958 900.794,-79.5707 891.33,-84.3336 896.366,-89.1958"/>
</g>
<!-- Node18&#45;&gt;Node10 -->
<g id="edge68" class="edge"><title>Node18&#45;&gt;Node10</title>
<path fill="none" stroke="midnightblue" d="M877.498,-58.4966C843.527,-47.8464 791.336,-31.4837 757.938,-21.013"/>
<polygon fill="midnightblue" stroke="midnightblue" points="758.807,-17.6174 748.218,-17.9655 756.713,-24.2969 758.807,-17.6174"/>
</g>
<!-- Node19&#45;&gt;Node10 -->
<g id="edge76" class="edge"><title>Node19&#45;&gt;Node10</title>
<path fill="none" stroke="midnightblue" d="M916.039,-174.476C941.021,-151.392 993.703,-95.3897 963,-58 937.438,-26.8712 816.851,-15.9966 758.197,-12.506"/>
<polygon fill="midnightblue" stroke="midnightblue" points="758.182,-8.99979 748.002,-11.9369 757.792,-15.9889 758.182,-8.99979"/>
</g>
<!-- Node19&#45;&gt;Node17 -->
<g id="edge74" class="edge"><title>Node19&#45;&gt;Node17</title>
<path fill="none" stroke="midnightblue" d="M895.013,-174.362C888.175,-166.268 878.598,-154.932 870.528,-145.38"/>
<polygon fill="midnightblue" stroke="midnightblue" points="873.058,-142.951 863.93,-137.571 867.71,-147.468 873.058,-142.951"/>
</g>
<!-- Node20&#45;&gt;Node3 -->
<g id="edge80" class="edge"><title>Node20&#45;&gt;Node3</title>
<path fill="none" stroke="midnightblue" d="M1005.69,-116.454C935.799,-99.1605 799.087,-65.9029 750,-58 573.71,-29.6179 360.237,-16.8683 275.863,-12.6704"/>
<polygon fill="midnightblue" stroke="midnightblue" points="275.917,-9.16902 265.759,-12.1782 275.577,-16.1607 275.917,-9.16902"/>
</g>
<!-- Node21 -->
<g id="node62" class="node"><title>Node21</title>
<a xlink:href="BinaryStream_8h.html" target="_top" xlink:title="BinaryStream.h">
<polygon fill="white" stroke="black" points="1010,-58.5 1010,-79.5 1102,-79.5 1102,-58.5 1010,-58.5"/>
<text text-anchor="middle" x="1056" y="-66.5" font-family="Verdana" font-size="10.00">BinaryStream.h</text>
</a>
</g>
<!-- Node20&#45;&gt;Node21 -->
<g id="edge82" class="edge"><title>Node20&#45;&gt;Node21</title>
<path fill="none" stroke="midnightblue" d="M1049.47,-116.362C1050.49,-108.922 1051.9,-98.7427 1053.14,-89.7276"/>
<polygon fill="midnightblue" stroke="midnightblue" points="1056.64,-89.9551 1054.54,-79.5707 1049.71,-88.9986 1056.64,-89.9551"/>
</g>
<!-- Node21&#45;&gt;Node3 -->
<g id="edge84" class="edge"><title>Node21&#45;&gt;Node3</title>
<path fill="none" stroke="midnightblue" d="M1009.69,-63.0337C994.801,-61.2462 978.219,-59.3931 963,-58 700.148,-33.9401 382.502,-17.777 275.892,-12.704"/>
<polygon fill="midnightblue" stroke="midnightblue" points="275.819,-9.19678 265.665,-12.2207 275.489,-16.189 275.819,-9.19678"/>
</g>
<!-- Node21&#45;&gt;Node10 -->
<g id="edge86" class="edge"><title>Node21&#45;&gt;Node10</title>
<path fill="none" stroke="midnightblue" d="M1009.82,-60.4905C1005.15,-59.6434 1000.48,-58.8011 996,-58 910.075,-42.6453 808.647,-25.1615 758.06,-16.4851"/>
<polygon fill="midnightblue" stroke="midnightblue" points="758.508,-13.0109 748.061,-14.7712 757.326,-19.9103 758.508,-13.0109"/>
</g>
<!-- Node22 -->
<g id="node66" class="node"><title>Node22</title>
<polygon fill="white" stroke="#bfbfbf" points="1029,-0.5 1029,-21.5 1083,-21.5 1083,-0.5 1029,-0.5"/>
<text text-anchor="middle" x="1056" y="-8.5" font-family="Verdana" font-size="10.00">fstream</text>
</g>
<!-- Node21&#45;&gt;Node22 -->
<g id="edge88" class="edge"><title>Node21&#45;&gt;Node22</title>
<path fill="none" stroke="midnightblue" d="M1056,-58.3619C1056,-50.9219 1056,-40.7427 1056,-31.7276"/>
<polygon fill="midnightblue" stroke="midnightblue" points="1059.5,-31.5706 1056,-21.5707 1052.5,-31.5707 1059.5,-31.5706"/>
</g>
<!-- Node23&#45;&gt;Node6 -->
<g id="edge92" class="edge"><title>Node23&#45;&gt;Node6</title>
<path fill="none" stroke="midnightblue" d="M692.832,-406.295C683.456,-386.872 663.51,-345.556 651.581,-320.846"/>
<polygon fill="midnightblue" stroke="midnightblue" points="654.655,-319.163 647.155,-311.679 648.351,-322.206 654.655,-319.163"/>
</g>
<!-- Node25 -->
<g id="node73" class="node"><title>Node25</title>
<a xlink:href="AreaConfiguration_8h.html" target="_top" xlink:title="AreaConfiguration.h">
<polygon fill="white" stroke="black" points="1083,-174.5 1083,-195.5 1195,-195.5 1195,-174.5 1083,-174.5"/>
<text text-anchor="middle" x="1139" y="-182.5" font-family="Verdana" font-size="10.00">AreaConfiguration.h</text>
</a>
</g>
<!-- Node24&#45;&gt;Node25 -->
<g id="edge96" class="edge"><title>Node24&#45;&gt;Node25</title>
<path fill="none" stroke="midnightblue" d="M1130.55,-348.377C1132,-320.293 1135.97,-243.673 1137.9,-206.203"/>
<polygon fill="midnightblue" stroke="midnightblue" points="1141.41,-206.095 1138.43,-195.928 1134.42,-205.734 1141.41,-206.095"/>
</g>
<!-- Node25&#45;&gt;Node20 -->
<g id="edge98" class="edge"><title>Node25&#45;&gt;Node20</title>
<path fill="none" stroke="midnightblue" d="M1122.31,-174.362C1108.58,-165.614 1088.92,-153.079 1073.26,-143.101"/>
<polygon fill="midnightblue" stroke="midnightblue" points="1074.9,-139.994 1064.58,-137.571 1071.14,-145.897 1074.9,-139.994"/>
</g>
<!-- Node25&#45;&gt;Node21 -->
<g id="edge100" class="edge"><title>Node25&#45;&gt;Node21</title>
<path fill="none" stroke="midnightblue" d="M1138.43,-174.265C1137.2,-159.853 1133.3,-133.984 1121,-116 1112.27,-103.237 1098.88,-92.7025 1086.52,-84.8653"/>
<polygon fill="midnightblue" stroke="midnightblue" points="1088.16,-81.7688 1077.78,-79.6419 1084.57,-87.7771 1088.16,-81.7688"/>
</g>
<!-- Node26 -->
<g id="node77" class="node"><title>Node26</title>
<a xlink:href="SyncerSet_8h.html" target="_top" xlink:title="SyncerSet.h">
<polygon fill="white" stroke="black" points="1167.5,-116.5 1167.5,-137.5 1242.5,-137.5 1242.5,-116.5 1167.5,-116.5"/>
<text text-anchor="middle" x="1205" y="-124.5" font-family="Verdana" font-size="10.00">SyncerSet.h</text>
</a>
</g>
<!-- Node25&#45;&gt;Node26 -->
<g id="edge102" class="edge"><title>Node25&#45;&gt;Node26</title>
<path fill="none" stroke="midnightblue" d="M1151.11,-174.362C1160.69,-165.941 1174.26,-154.011 1185.39,-144.231"/>
<polygon fill="midnightblue" stroke="midnightblue" points="1187.77,-146.801 1192.97,-137.571 1183.15,-141.543 1187.77,-146.801"/>
</g>
<!-- Node26&#45;&gt;Node10 -->
<g id="edge106" class="edge"><title>Node26&#45;&gt;Node10</title>
<path fill="none" stroke="midnightblue" d="M1194.56,-116.44C1178.31,-100.723 1145.25,-71.5754 1111,-58 1046.9,-32.5937 838.95,-17.757 758.342,-12.839"/>
<polygon fill="midnightblue" stroke="midnightblue" points="758.471,-9.3405 748.28,-12.2365 758.052,-16.328 758.471,-9.3405"/>
</g>
<!-- Node26&#45;&gt;Node11 -->
<g id="edge108" class="edge"><title>Node26&#45;&gt;Node11</title>
<path fill="none" stroke="midnightblue" d="M1167.39,-121.885C1152.9,-119.964 1136.19,-117.809 1121,-116 964.178,-97.3205 775.355,-78.1943 708.202,-71.4966"/>
<polygon fill="midnightblue" stroke="midnightblue" points="708.441,-68.0033 698.144,-70.4958 707.748,-74.9689 708.441,-68.0033"/>
</g>
<!-- Node27 -->
<g id="node79" class="node"><title>Node27</title>
<polygon fill="white" stroke="#bfbfbf" points="1189,-58.5 1189,-79.5 1221,-79.5 1221,-58.5 1189,-58.5"/>
<text text-anchor="middle" x="1205" y="-66.5" font-family="Verdana" font-size="10.00">set</text>
</g>
<!-- Node26&#45;&gt;Node27 -->
<g id="edge104" class="edge"><title>Node26&#45;&gt;Node27</title>
<path fill="none" stroke="midnightblue" d="M1205,-116.362C1205,-108.922 1205,-98.7427 1205,-89.7276"/>
<polygon fill="midnightblue" stroke="midnightblue" points="1208.5,-89.5706 1205,-79.5707 1201.5,-89.5707 1208.5,-89.5706"/>
</g>
</g>
</svg>
