<?xml version="1.0" encoding="UTF-8" standalone="no"?>
<!DOCTYPE svg PUBLIC "-//W3C//DTD SVG 1.1//EN"
 "http://www.w3.org/Graphics/SVG/1.1/DTD/svg11.dtd">
<!-- Generated by graphviz version 2.26.3 (20100126.1600)
 -->
<!-- Title: parameter/BitParameterType.h Pages: 1 -->
<svg width="482pt" height="262pt"
 viewBox="0.00 0.00 482.36 262.00" xmlns="http://www.w3.org/2000/svg" xmlns:xlink="http://www.w3.org/1999/xlink">
<g id="graph1" class="graph" transform="scale(1 1) rotate(0) translate(4 258)">
<title>parameter/BitParameterType.h</title>
<polygon fill="white" stroke="white" points="-4,5 -4,-258 479.362,-258 479.362,5 -4,5"/>
<!-- Node1 -->
<g id="node1" class="node"><title>Node1</title>
<polygon fill="#bfbfbf" stroke="black" points="16,-232.5 16,-253.5 180,-253.5 180,-232.5 16,-232.5"/>
<text text-anchor="middle" x="98" y="-240.5" font-family="Verdana" font-size="10.00">parameter/BitParameterType.h</text>
</g>
<!-- Node2 -->
<g id="node3" class="node"><title>Node2</title>
<polygon fill="white" stroke="#bfbfbf" points="248.5,-0.5 248.5,-21.5 301.5,-21.5 301.5,-0.5 248.5,-0.5"/>
<text text-anchor="middle" x="275" y="-8.5" font-family="Verdana" font-size="10.00">stdint.h</text>
</g>
<!-- Node1&#45;&gt;Node2 -->
<g id="edge2" class="edge"><title>Node1&#45;&gt;Node2</title>
<path fill="none" stroke="midnightblue" d="M180.261,-232.985C268.971,-217.308 406.058,-177.829 470,-80 475.35,-71.8154 476.05,-65.6814 470,-58 450.648,-33.4298 362.449,-20.2001 311.545,-14.4931"/>
<polygon fill="midnightblue" stroke="midnightblue" points="311.908,-11.012 301.59,-13.4194 311.157,-17.9716 311.908,-11.012"/>
</g>
<!-- Node3 -->
<g id="node5" class="node"><title>Node3</title>
<a xlink:href="TypeElement_8h.html" target="_top" xlink:title="TypeElement.h">
<polygon fill="white" stroke="black" points="55,-174.5 55,-195.5 141,-195.5 141,-174.5 55,-174.5"/>
<text text-anchor="middle" x="98" y="-182.5" font-family="Verdana" font-size="10.00">TypeElement.h</text>
</a>
</g>
<!-- Node1&#45;&gt;Node3 -->
<g id="edge4" class="edge"><title>Node1&#45;&gt;Node3</title>
<path fill="none" stroke="midnightblue" d="M98,-232.362C98,-224.922 98,-214.743 98,-205.728"/>
<polygon fill="midnightblue" stroke="midnightblue" points="101.5,-205.571 98,-195.571 94.5001,-205.571 101.5,-205.571"/>
</g>
<!-- Node5 -->
<g id="node9" class="node"><title>Node5</title>
<polygon fill="white" stroke="#bfbfbf" points="0,-0.5 0,-21.5 44,-21.5 44,-0.5 0,-0.5"/>
<text text-anchor="middle" x="22" y="-8.5" font-family="Verdana" font-size="10.00">string</text>
</g>
<!-- Node1&#45;&gt;Node5 -->
<g id="edge30" class="edge"><title>Node1&#45;&gt;Node5</title>
<path fill="none" stroke="midnightblue" d="M81.0179,-232.447C69.1392,-224.094 54.0168,-211.308 46,-196 17.7988,-142.151 18.0489,-67.8209 20.1905,-31.986"/>
<polygon fill="midnightblue" stroke="midnightblue" points="23.6981,-32.0024 20.9186,-21.7787 16.7159,-31.5043 23.6981,-32.0024"/>
</g>
<!-- Node4 -->
<g id="node7" class="node"><title>Node4</title>
<a xlink:href="Element_8h.html" target="_top" xlink:title="Element.h">
<polygon fill="white" stroke="black" points="128.5,-116.5 128.5,-137.5 193.5,-137.5 193.5,-116.5 128.5,-116.5"/>
<text text-anchor="middle" x="161" y="-124.5" font-family="Verdana" font-size="10.00">Element.h</text>
</a>
</g>
<!-- Node3&#45;&gt;Node4 -->
<g id="edge6" class="edge"><title>Node3&#45;&gt;Node4</title>
<path fill="none" stroke="midnightblue" d="M109.555,-174.362C118.613,-166.023 131.41,-154.242 141.974,-144.516"/>
<polygon fill="midnightblue" stroke="midnightblue" points="144.532,-146.919 149.518,-137.571 139.79,-141.769 144.532,-146.919"/>
</g>
<!-- Node3&#45;&gt;Node5 -->
<g id="edge28" class="edge"><title>Node3&#45;&gt;Node5</title>
<path fill="none" stroke="midnightblue" d="M93.3603,-174.377C80.9877,-146.051 47.0489,-68.3488 30.8415,-31.2424"/>
<polygon fill="midnightblue" stroke="midnightblue" points="33.9831,-29.6908 26.773,-21.9277 27.5683,-32.4927 33.9831,-29.6908"/>
</g>
<!-- Node4&#45;&gt;Node2 -->
<g id="edge12" class="edge"><title>Node4&#45;&gt;Node2</title>
<path fill="none" stroke="midnightblue" d="M193.552,-118.423C214.254,-111.359 240.07,-99.3003 256,-80 267.219,-66.4079 271.839,-46.6948 273.728,-31.8166"/>
<polygon fill="midnightblue" stroke="midnightblue" points="277.24,-31.8498 274.704,-21.563 270.272,-31.1861 277.24,-31.8498"/>
</g>
<!-- Node4&#45;&gt;Node5 -->
<g id="edge8" class="edge"><title>Node4&#45;&gt;Node5</title>
<path fill="none" stroke="midnightblue" d="M143.364,-116.493C128.794,-107.504 107.844,-93.8554 91,-80 71.7917,-64.2 51.9216,-43.829 38.4661,-29.3262"/>
<polygon fill="midnightblue" stroke="midnightblue" points="41.0327,-26.9464 31.6958,-21.9391 35.8722,-31.6761 41.0327,-26.9464"/>
</g>
<!-- Node6 -->
<g id="node11" class="node"><title>Node6</title>
<polygon fill="white" stroke="#bfbfbf" points="116.5,-0.5 116.5,-21.5 163.5,-21.5 163.5,-0.5 116.5,-0.5"/>
<text text-anchor="middle" x="140" y="-8.5" font-family="Verdana" font-size="10.00">vector</text>
</g>
<!-- Node4&#45;&gt;Node6 -->
<g id="edge10" class="edge"><title>Node4&#45;&gt;Node6</title>
<path fill="none" stroke="midnightblue" d="M137.617,-116.462C123.328,-108.636 106.259,-96.4666 98,-80 88.9281,-61.9139 103.423,-42.297 117.802,-28.6197"/>
<polygon fill="midnightblue" stroke="midnightblue" points="120.468,-30.9333 125.628,-21.6798 115.824,-25.696 120.468,-30.9333"/>
</g>
<!-- Node7 -->
<g id="node14" class="node"><title>Node7</title>
<polygon fill="white" stroke="#bfbfbf" points="107,-58.5 107,-79.5 137,-79.5 137,-58.5 107,-58.5"/>
<text text-anchor="middle" x="122" y="-66.5" font-family="Verdana" font-size="10.00">list</text>
</g>
<!-- Node4&#45;&gt;Node7 -->
<g id="edge14" class="edge"><title>Node4&#45;&gt;Node7</title>
<path fill="none" stroke="midnightblue" d="M153.847,-116.362C148.514,-108.431 141.089,-97.3885 134.749,-87.9606"/>
<polygon fill="midnightblue" stroke="midnightblue" points="137.592,-85.9161 129.108,-79.5707 131.783,-89.8221 137.592,-85.9161"/>
</g>
<!-- Node8 -->
<g id="node16" class="node"><title>Node8</title>
<polygon fill="white" stroke="#bfbfbf" points="303,-58.5 303,-79.5 367,-79.5 367,-58.5 303,-58.5"/>
<text text-anchor="middle" x="335" y="-66.5" font-family="Verdana" font-size="10.00">XmlSink.h</text>
</g>
<!-- Node4&#45;&gt;Node8 -->
<g id="edge16" class="edge"><title>Node4&#45;&gt;Node8</title>
<path fill="none" stroke="midnightblue" d="M192.51,-116.497C220.877,-107.041 262.751,-93.0829 293.772,-82.7428"/>
<polygon fill="midnightblue" stroke="midnightblue" points="295.051,-86.0058 303.431,-79.5231 292.837,-79.365 295.051,-86.0058"/>
</g>
<!-- Node9 -->
<g id="node18" class="node"><title>Node9</title>
<polygon fill="white" stroke="#bfbfbf" points="384.5,-58.5 384.5,-79.5 461.5,-79.5 461.5,-58.5 384.5,-58.5"/>
<text text-anchor="middle" x="423" y="-66.5" font-family="Verdana" font-size="10.00">XmlSource.h</text>
</g>
<!-- Node4&#45;&gt;Node9 -->
<g id="edge18" class="edge"><title>Node4&#45;&gt;Node9</title>
<path fill="none" stroke="midnightblue" d="M193.815,-119.983C234.114,-111.332 304.813,-96.043 374.464,-80.3287"/>
<polygon fill="midnightblue" stroke="midnightblue" points="375.3,-83.7282 384.282,-78.1092 373.756,-76.9005 375.3,-83.7282"/>
</g>
<!-- Node10 -->
<g id="node20" class="node"><title>Node10</title>
<a xlink:href="PathNavigator_8h.html" target="_top" xlink:title="PathNavigator.h">
<polygon fill="white" stroke="black" points="155,-58.5 155,-79.5 247,-79.5 247,-58.5 155,-58.5"/>
<text text-anchor="middle" x="201" y="-66.5" font-family="Verdana" font-size="10.00">PathNavigator.h</text>
</a>
</g>
<!-- Node4&#45;&gt;Node10 -->
<g id="edge20" class="edge"><title>Node4&#45;&gt;Node10</title>
<path fill="none" stroke="midnightblue" d="M168.337,-116.362C173.806,-108.431 181.422,-97.3885 187.924,-87.9606"/>
<polygon fill="midnightblue" stroke="midnightblue" points="190.914,-89.7899 193.71,-79.5707 185.151,-85.8157 190.914,-89.7899"/>
</g>
<!-- Node10&#45;&gt;Node2 -->
<g id="edge26" class="edge"><title>Node10&#45;&gt;Node2</title>
<path fill="none" stroke="midnightblue" d="M214.573,-58.3619C225.421,-49.859 240.834,-37.7785 253.379,-27.9466"/>
<polygon fill="midnightblue" stroke="midnightblue" points="255.802,-30.4942 261.513,-21.5707 251.484,-24.9848 255.802,-30.4942"/>
</g>
<!-- Node10&#45;&gt;Node5 -->
<g id="edge24" class="edge"><title>Node10&#45;&gt;Node5</title>
<path fill="none" stroke="midnightblue" d="M168.584,-58.4966C136.039,-47.9512 86.2094,-31.8053 53.8617,-21.3239"/>
<polygon fill="midnightblue" stroke="midnightblue" points="54.6095,-17.8871 44.0176,-18.1342 52.4518,-24.5463 54.6095,-17.8871"/>
</g>
<!-- Node10&#45;&gt;Node6 -->
<g id="edge22" class="edge"><title>Node10&#45;&gt;Node6</title>
<path fill="none" stroke="midnightblue" d="M189.812,-58.3619C181.041,-50.0226 168.651,-38.2418 158.422,-28.5162"/>
<polygon fill="midnightblue" stroke="midnightblue" points="160.776,-25.9248 151.117,-21.5707 155.953,-30.9978 160.776,-25.9248"/>
</g>
</g>
</svg>
