<?xml version="1.0" encoding="UTF-8" standalone="no"?>
<!DOCTYPE svg PUBLIC "-//W3C//DTD SVG 1.1//EN"
 "http://www.w3.org/Graphics/SVG/1.1/DTD/svg11.dtd">
<!-- Generated by graphviz version 2.26.3 (20100126.1600)
 -->
<!-- Title: parameter/BitParameterBlockType.cpp Pages: 1 -->
<svg width="704pt" height="450pt"
 viewBox="0.00 0.00 704.00 450.00" xmlns="http://www.w3.org/2000/svg" xmlns:xlink="http://www.w3.org/1999/xlink">
<g id="graph1" class="graph" transform="scale(1 1) rotate(0) translate(4 446)">
<title>parameter/BitParameterBlockType.cpp</title>
<polygon fill="white" stroke="white" points="-4,5 -4,-446 701,-446 701,5 -4,5"/>
<!-- Node1 -->
<g id="node1" class="node"><title>Node1</title>
<polygon fill="#bfbfbf" stroke="black" points="52.5,-407 52.5,-441 211.5,-441 211.5,-407 52.5,-407"/>
<text text-anchor="start" x="60.5" y="-428" font-family="Verdana" font-size="10.00">parameter/BitParameterBlock</text>
<text text-anchor="middle" x="132" y="-415" font-family="Verdana" font-size="10.00">Type.cpp</text>
</g>
<!-- Node2 -->
<g id="node3" class="node"><title>Node2</title>
<a xlink:href="BitParameterBlockType_8h.html" target="_top" xlink:title="BitParameterBlockType.h">
<polygon fill="white" stroke="black" points="-0.5,-232.5 -0.5,-253.5 134.5,-253.5 134.5,-232.5 -0.5,-232.5"/>
<text text-anchor="middle" x="67" y="-240.5" font-family="Verdana" font-size="10.00">BitParameterBlockType.h</text>
</a>
</g>
<!-- Node1&#45;&gt;Node2 -->
<g id="edge2" class="edge"><title>Node1&#45;&gt;Node2</title>
<path fill="none" stroke="midnightblue" d="M125.885,-406.972C113.862,-373.492 87.194,-299.232 74.2836,-263.282"/>
<polygon fill="midnightblue" stroke="midnightblue" points="77.5638,-262.06 70.8898,-253.832 70.9757,-264.426 77.5638,-262.06"/>
</g>
<!-- Node12 -->
<g id="node28" class="node"><title>Node12</title>
<a xlink:href="BitParameterBlock_8h.html" target="_top" xlink:title="BitParameterBlock.h">
<polygon fill="white" stroke="black" points="130,-348.5 130,-369.5 244,-369.5 244,-348.5 130,-348.5"/>
<text text-anchor="middle" x="187" y="-356.5" font-family="Verdana" font-size="10.00">BitParameterBlock.h</text>
</a>
</g>
<!-- Node1&#45;&gt;Node12 -->
<g id="edge32" class="edge"><title>Node1&#45;&gt;Node12</title>
<path fill="none" stroke="midnightblue" d="M146.451,-406.922C154.053,-397.937 163.388,-386.905 171.184,-377.691"/>
<polygon fill="midnightblue" stroke="midnightblue" points="174.03,-379.747 177.817,-369.852 168.686,-375.225 174.03,-379.747"/>
</g>
<!-- Node3 -->
<g id="node5" class="node"><title>Node3</title>
<a xlink:href="TypeElement_8h.html" target="_top" xlink:title="TypeElement.h">
<polygon fill="white" stroke="black" points="86,-174.5 86,-195.5 172,-195.5 172,-174.5 86,-174.5"/>
<text text-anchor="middle" x="129" y="-182.5" font-family="Verdana" font-size="10.00">TypeElement.h</text>
</a>
</g>
<!-- Node2&#45;&gt;Node3 -->
<g id="edge4" class="edge"><title>Node2&#45;&gt;Node3</title>
<path fill="none" stroke="midnightblue" d="M78.3718,-232.362C87.2862,-224.023 99.8794,-212.242 110.276,-202.516"/>
<polygon fill="midnightblue" stroke="midnightblue" points="112.789,-204.958 117.7,-195.571 108.007,-199.846 112.789,-204.958"/>
</g>
<!-- Node5 -->
<g id="node9" class="node"><title>Node5</title>
<polygon fill="white" stroke="#bfbfbf" points="197,-0.5 197,-21.5 241,-21.5 241,-0.5 197,-0.5"/>
<text text-anchor="middle" x="219" y="-8.5" font-family="Verdana" font-size="10.00">string</text>
</g>
<!-- Node2&#45;&gt;Node5 -->
<g id="edge30" class="edge"><title>Node2&#45;&gt;Node5</title>
<path fill="none" stroke="midnightblue" d="M66.8375,-232.243C67.0038,-218.251 68.6074,-193.317 77,-174 104.182,-111.434 164.347,-55.5446 196.957,-28.3896"/>
<polygon fill="midnightblue" stroke="midnightblue" points="199.472,-30.8545 204.996,-21.8139 195.04,-25.4362 199.472,-30.8545"/>
</g>
<!-- Node4 -->
<g id="node7" class="node"><title>Node4</title>
<a xlink:href="Element_8h.html" target="_top" xlink:title="Element.h">
<polygon fill="white" stroke="black" points="411.5,-116.5 411.5,-137.5 476.5,-137.5 476.5,-116.5 411.5,-116.5"/>
<text text-anchor="middle" x="444" y="-124.5" font-family="Verdana" font-size="10.00">Element.h</text>
</a>
</g>
<!-- Node3&#45;&gt;Node4 -->
<g id="edge6" class="edge"><title>Node3&#45;&gt;Node4</title>
<path fill="none" stroke="midnightblue" d="M172.139,-177.057C232.507,-165.942 341.507,-145.872 401.52,-134.822"/>
<polygon fill="midnightblue" stroke="midnightblue" points="402.223,-138.251 411.424,-132.998 400.956,-131.367 402.223,-138.251"/>
</g>
<!-- Node3&#45;&gt;Node5 -->
<g id="edge28" class="edge"><title>Node3&#45;&gt;Node5</title>
<path fill="none" stroke="midnightblue" d="M132.937,-174.467C141.399,-152.284 162.467,-99.3874 186,-58 191.429,-48.4527 198.296,-38.4194 204.358,-30.0861"/>
<polygon fill="midnightblue" stroke="midnightblue" points="207.351,-31.9261 210.514,-21.8143 201.736,-27.7467 207.351,-31.9261"/>
</g>
<!-- Node4&#45;&gt;Node5 -->
<g id="edge8" class="edge"><title>Node4&#45;&gt;Node5</title>
<path fill="none" stroke="midnightblue" d="M411.252,-120.93C379.906,-114.164 332.045,-101.278 295,-80 271.444,-66.4704 248.995,-44.5897 234.687,-29.0996"/>
<polygon fill="midnightblue" stroke="midnightblue" points="237.277,-26.7462 227.983,-21.6598 232.077,-31.4319 237.277,-26.7462"/>
</g>
<!-- Node6 -->
<g id="node11" class="node"><title>Node6</title>
<polygon fill="white" stroke="#bfbfbf" points="513.5,-0.5 513.5,-21.5 560.5,-21.5 560.5,-0.5 513.5,-0.5"/>
<text text-anchor="middle" x="537" y="-8.5" font-family="Verdana" font-size="10.00">vector</text>
</g>
<!-- Node4&#45;&gt;Node6 -->
<g id="edge10" class="edge"><title>Node4&#45;&gt;Node6</title>
<path fill="none" stroke="midnightblue" d="M476.759,-120.323C513.231,-112.147 568.688,-97.2401 581,-80 593.347,-62.7114 576.258,-42.0781 559.908,-27.906"/>
<polygon fill="midnightblue" stroke="midnightblue" points="562.033,-25.1229 552.073,-21.5107 557.607,-30.5457 562.033,-25.1229"/>
</g>
<!-- Node7 -->
<g id="node13" class="node"><title>Node7</title>
<polygon fill="white" stroke="#bfbfbf" points="599.5,-0.5 599.5,-21.5 652.5,-21.5 652.5,-0.5 599.5,-0.5"/>
<text text-anchor="middle" x="626" y="-8.5" font-family="Verdana" font-size="10.00">stdint.h</text>
</g>
<!-- Node4&#45;&gt;Node7 -->
<g id="edge12" class="edge"><title>Node4&#45;&gt;Node7</title>
<path fill="none" stroke="midnightblue" d="M476.542,-120.393C515.938,-111.83 579.228,-96.0803 597,-80 610.879,-67.4421 618.32,-47.1718 622.175,-31.8435"/>
<polygon fill="midnightblue" stroke="midnightblue" points="625.668,-32.2537 624.388,-21.7364 618.83,-30.7561 625.668,-32.2537"/>
</g>
<!-- Node8 -->
<g id="node15" class="node"><title>Node8</title>
<polygon fill="white" stroke="#bfbfbf" points="666,-58.5 666,-79.5 696,-79.5 696,-58.5 666,-58.5"/>
<text text-anchor="middle" x="681" y="-66.5" font-family="Verdana" font-size="10.00">list</text>
</g>
<!-- Node4&#45;&gt;Node8 -->
<g id="edge14" class="edge"><title>Node4&#45;&gt;Node8</title>
<path fill="none" stroke="midnightblue" d="M476.793,-121.068C518.091,-113.261 591.026,-98.3542 652,-80 653.418,-79.5732 654.866,-79.1111 656.321,-78.6263"/>
<polygon fill="midnightblue" stroke="midnightblue" points="657.557,-81.9016 665.787,-75.2295 655.192,-75.3129 657.557,-81.9016"/>
</g>
<!-- Node9 -->
<g id="node17" class="node"><title>Node9</title>
<polygon fill="white" stroke="#bfbfbf" points="304,-58.5 304,-79.5 368,-79.5 368,-58.5 304,-58.5"/>
<text text-anchor="middle" x="336" y="-66.5" font-family="Verdana" font-size="10.00">XmlSink.h</text>
</g>
<!-- Node4&#45;&gt;Node9 -->
<g id="edge16" class="edge"><title>Node4&#45;&gt;Node9</title>
<path fill="none" stroke="midnightblue" d="M424.442,-116.497C407.802,-107.56 383.673,-94.602 364.82,-84.4772"/>
<polygon fill="midnightblue" stroke="midnightblue" points="366.243,-81.2691 355.777,-79.6212 362.931,-87.436 366.243,-81.2691"/>
</g>
<!-- Node10 -->
<g id="node19" class="node"><title>Node10</title>
<polygon fill="white" stroke="#bfbfbf" points="385.5,-58.5 385.5,-79.5 462.5,-79.5 462.5,-58.5 385.5,-58.5"/>
<text text-anchor="middle" x="424" y="-66.5" font-family="Verdana" font-size="10.00">XmlSource.h</text>
</g>
<!-- Node4&#45;&gt;Node10 -->
<g id="edge18" class="edge"><title>Node4&#45;&gt;Node10</title>
<path fill="none" stroke="midnightblue" d="M440.332,-116.362C437.71,-108.758 434.101,-98.294 430.943,-89.1349"/>
<polygon fill="midnightblue" stroke="midnightblue" points="434.214,-87.8834 427.645,-79.5707 427.596,-90.1654 434.214,-87.8834"/>
</g>
<!-- Node11 -->
<g id="node21" class="node"><title>Node11</title>
<a xlink:href="PathNavigator_8h.html" target="_top" xlink:title="PathNavigator.h">
<polygon fill="white" stroke="black" points="480,-58.5 480,-79.5 572,-79.5 572,-58.5 480,-58.5"/>
<text text-anchor="middle" x="526" y="-66.5" font-family="Verdana" font-size="10.00">PathNavigator.h</text>
</a>
</g>
<!-- Node4&#45;&gt;Node11 -->
<g id="edge20" class="edge"><title>Node4&#45;&gt;Node11</title>
<path fill="none" stroke="midnightblue" d="M459.04,-116.362C471.293,-107.696 488.799,-95.3126 502.839,-85.3819"/>
<polygon fill="midnightblue" stroke="midnightblue" points="504.912,-88.2028 511.055,-79.5707 500.87,-82.4879 504.912,-88.2028"/>
</g>
<!-- Node11&#45;&gt;Node5 -->
<g id="edge24" class="edge"><title>Node11&#45;&gt;Node5</title>
<path fill="none" stroke="midnightblue" d="M479.795,-59.7137C476.82,-59.1297 473.868,-58.5543 471,-58 392.19,-42.7704 299.345,-25.6712 251.359,-16.8962"/>
<polygon fill="midnightblue" stroke="midnightblue" points="251.733,-13.4066 241.267,-15.0525 250.475,-20.2927 251.733,-13.4066"/>
</g>
<!-- Node11&#45;&gt;Node6 -->
<g id="edge22" class="edge"><title>Node11&#45;&gt;Node6</title>
<path fill="none" stroke="midnightblue" d="M528.018,-58.3619C529.444,-50.8401 531.402,-40.5187 533.125,-31.4308"/>
<polygon fill="midnightblue" stroke="midnightblue" points="536.571,-32.0477 534.995,-21.5707 529.693,-30.7433 536.571,-32.0477"/>
</g>
<!-- Node11&#45;&gt;Node7 -->
<g id="edge26" class="edge"><title>Node11&#45;&gt;Node7</title>
<path fill="none" stroke="midnightblue" d="M544.342,-58.3619C559.566,-49.532 581.441,-36.844 598.72,-26.8224"/>
<polygon fill="midnightblue" stroke="midnightblue" points="600.88,-29.6155 607.775,-21.5707 597.368,-23.5603 600.88,-29.6155"/>
</g>
<!-- Node13 -->
<g id="node30" class="node"><title>Node13</title>
<a xlink:href="InstanceConfigurableElement_8h.html" target="_top" xlink:title="InstanceConfigurableElement.h">
<polygon fill="white" stroke="black" points="117,-290.5 117,-311.5 283,-311.5 283,-290.5 117,-290.5"/>
<text text-anchor="middle" x="200" y="-298.5" font-family="Verdana" font-size="10.00">InstanceConfigurableElement.h</text>
</a>
</g>
<!-- Node12&#45;&gt;Node13 -->
<g id="edge34" class="edge"><title>Node12&#45;&gt;Node13</title>
<path fill="none" stroke="midnightblue" d="M189.384,-348.362C191.07,-340.84 193.384,-330.519 195.421,-321.431"/>
<polygon fill="midnightblue" stroke="midnightblue" points="198.859,-322.094 197.631,-311.571 192.028,-320.563 198.859,-322.094"/>
</g>
<!-- Node13&#45;&gt;Node3 -->
<g id="edge46" class="edge"><title>Node13&#45;&gt;Node3</title>
<path fill="none" stroke="midnightblue" d="M193.448,-290.295C181.507,-270.786 156.046,-229.188 140.946,-204.518"/>
<polygon fill="midnightblue" stroke="midnightblue" points="143.742,-202.381 135.536,-195.679 137.772,-206.036 143.742,-202.381"/>
</g>
<!-- Node13&#45;&gt;Node5 -->
<g id="edge50" class="edge"><title>Node13&#45;&gt;Node5</title>
<path fill="none" stroke="midnightblue" d="M200,-290.444C200,-270.062 200,-223.868 200,-185 200,-185 200,-185 200,-127 200,-93.175 207.965,-54.5229 213.581,-31.474"/>
<polygon fill="midnightblue" stroke="midnightblue" points="216.974,-32.3312 216.031,-21.7784 210.188,-30.6159 216.974,-32.3312"/>
</g>
<!-- Node13&#45;&gt;Node8 -->
<g id="edge48" class="edge"><title>Node13&#45;&gt;Node8</title>
<path fill="none" stroke="midnightblue" d="M283.093,-290.666C325.954,-283.563 378.449,-272.059 423,-254 524.31,-212.934 623.501,-124.456 663.047,-86.68"/>
<polygon fill="midnightblue" stroke="midnightblue" points="665.589,-89.0905 670.352,-79.6265 660.727,-84.0547 665.589,-89.0905"/>
</g>
<!-- Node14 -->
<g id="node32" class="node"><title>Node14</title>
<a xlink:href="ConfigurableElementWithMapping_8h.html" target="_top" xlink:title="ConfigurableElementWithMapping.h">
<polygon fill="white" stroke="black" points="228,-232.5 228,-253.5 414,-253.5 414,-232.5 228,-232.5"/>
<text text-anchor="middle" x="321" y="-240.5" font-family="Verdana" font-size="10.00">ConfigurableElementWithMapping.h</text>
</a>
</g>
<!-- Node13&#45;&gt;Node14 -->
<g id="edge36" class="edge"><title>Node13&#45;&gt;Node14</title>
<path fill="none" stroke="midnightblue" d="M221.912,-290.497C240.811,-281.438 268.331,-268.246 289.576,-258.063"/>
<polygon fill="midnightblue" stroke="midnightblue" points="291.337,-261.1 298.842,-253.621 288.311,-254.788 291.337,-261.1"/>
</g>
<!-- Node14&#45;&gt;Node5 -->
<g id="edge44" class="edge"><title>Node14&#45;&gt;Node5</title>
<path fill="none" stroke="midnightblue" d="M316.352,-232.429C300.522,-196.422 248.535,-78.1788 227.726,-30.8467"/>
<polygon fill="midnightblue" stroke="midnightblue" points="230.904,-29.3791 223.675,-21.6335 224.496,-32.1965 230.904,-29.3791"/>
</g>
<!-- Node15 -->
<g id="node34" class="node"><title>Node15</title>
<a xlink:href="ConfigurableElement_8h.html" target="_top" xlink:title="ConfigurableElement.h">
<polygon fill="white" stroke="black" points="381.5,-174.5 381.5,-195.5 506.5,-195.5 506.5,-174.5 381.5,-174.5"/>
<text text-anchor="middle" x="444" y="-182.5" font-family="Verdana" font-size="10.00">ConfigurableElement.h</text>
</a>
</g>
<!-- Node14&#45;&gt;Node15 -->
<g id="edge38" class="edge"><title>Node14&#45;&gt;Node15</title>
<path fill="none" stroke="midnightblue" d="M343.274,-232.497C362.572,-223.397 390.713,-210.127 412.348,-199.925"/>
<polygon fill="midnightblue" stroke="midnightblue" points="413.924,-203.052 421.476,-195.621 410.938,-196.721 413.924,-203.052"/>
</g>
<!-- Node15&#45;&gt;Node4 -->
<g id="edge40" class="edge"><title>Node15&#45;&gt;Node4</title>
<path fill="none" stroke="midnightblue" d="M444,-174.362C444,-166.922 444,-156.743 444,-147.728"/>
<polygon fill="midnightblue" stroke="midnightblue" points="447.5,-147.571 444,-137.571 440.5,-147.571 447.5,-147.571"/>
</g>
<!-- Node15&#45;&gt;Node8 -->
<g id="edge42" class="edge"><title>Node15&#45;&gt;Node8</title>
<path fill="none" stroke="midnightblue" d="M465.872,-174.295C510.269,-152.564 610.662,-103.427 656.881,-80.805"/>
<polygon fill="midnightblue" stroke="midnightblue" points="658.439,-83.9394 665.882,-76.3996 655.361,-77.6521 658.439,-83.9394"/>
</g>
</g>
</svg>
