<?xml version="1.0" encoding="UTF-8" standalone="no"?>
<!DOCTYPE svg PUBLIC "-//W3C//DTD SVG 1.1//EN"
 "http://www.w3.org/Graphics/SVG/1.1/DTD/svg11.dtd">
<!-- Generated by graphviz version 2.26.3 (20100126.1600)
 -->
<!-- Title: parameter/BitParameterBlock.cpp Pages: 1 -->
<svg width="903pt" height="436pt"
 viewBox="0.00 0.00 903.29 436.00" xmlns="http://www.w3.org/2000/svg" xmlns:xlink="http://www.w3.org/1999/xlink">
<g id="graph1" class="graph" transform="scale(1 1) rotate(0) translate(4 432)">
<title>parameter/BitParameterBlock.cpp</title>
<polygon fill="white" stroke="white" points="-4,5 -4,-432 900.289,-432 900.289,5 -4,5"/>
<!-- Node1 -->
<g id="node1" class="node"><title>Node1</title>
<polygon fill="#bfbfbf" stroke="black" points="532.789,-406.5 532.789,-427.5 711.789,-427.5 711.789,-406.5 532.789,-406.5"/>
<text text-anchor="middle" x="622.289" y="-414.5" font-family="Verdana" font-size="10.00">parameter/BitParameterBlock.cpp</text>
</g>
<!-- Node2 -->
<g id="node3" class="node"><title>Node2</title>
<a xlink:href="BitParameterBlock_8h.html" target="_top" xlink:title="BitParameterBlock.h">
<polygon fill="white" stroke="black" points="403.289,-348.5 403.289,-369.5 517.289,-369.5 517.289,-348.5 403.289,-348.5"/>
<text text-anchor="middle" x="460.289" y="-356.5" font-family="Verdana" font-size="10.00">BitParameterBlock.h</text>
</a>
</g>
<!-- Node1&#45;&gt;Node2 -->
<g id="edge2" class="edge"><title>Node1&#45;&gt;Node2</title>
<path fill="none" stroke="midnightblue" d="M592.952,-406.497C566.771,-397.123 528.23,-383.324 499.427,-373.012"/>
<polygon fill="midnightblue" stroke="midnightblue" points="500.276,-369.599 489.681,-369.523 497.916,-376.189 500.276,-369.599"/>
</g>
<!-- Node15 -->
<g id="node38" class="node"><title>Node15</title>
<a xlink:href="BitParameterBlockType_8h.html" target="_top" xlink:title="BitParameterBlockType.h">
<polygon fill="white" stroke="black" points="489.789,-232.5 489.789,-253.5 624.789,-253.5 624.789,-232.5 489.789,-232.5"/>
<text text-anchor="middle" x="557.289" y="-240.5" font-family="Verdana" font-size="10.00">BitParameterBlockType.h</text>
</a>
</g>
<!-- Node1&#45;&gt;Node15 -->
<g id="edge46" class="edge"><title>Node1&#45;&gt;Node15</title>
<path fill="none" stroke="midnightblue" d="M618.321,-406.377C607.785,-378.172 578.961,-301.012 565.03,-263.72"/>
<polygon fill="midnightblue" stroke="midnightblue" points="568.15,-262.071 561.372,-253.928 561.592,-264.52 568.15,-262.071"/>
</g>
<!-- Node16 -->
<g id="node42" class="node"><title>Node16</title>
<a xlink:href="ParameterAccessContext_8h.html" target="_top" xlink:title="ParameterAccessContext.h">
<polygon fill="white" stroke="black" points="584.789,-116.5 584.789,-137.5 731.789,-137.5 731.789,-116.5 584.789,-116.5"/>
<text text-anchor="middle" x="658.289" y="-124.5" font-family="Verdana" font-size="10.00">ParameterAccessContext.h</text>
</a>
</g>
<!-- Node1&#45;&gt;Node16 -->
<g id="edge52" class="edge"><title>Node1&#45;&gt;Node16</title>
<path fill="none" stroke="midnightblue" d="M627.446,-406.413C636.727,-386.35 655.289,-341.201 655.289,-301 655.289,-301 655.289,-301 655.289,-243 655.289,-209.587 656.549,-170.777 657.435,-147.59"/>
<polygon fill="midnightblue" stroke="midnightblue" points="660.934,-147.685 657.834,-137.554 653.94,-147.407 660.934,-147.685"/>
</g>
<!-- Node18 -->
<g id="node49" class="node"><title>Node18</title>
<a xlink:href="ParameterBlackboard_8h.html" target="_top" xlink:title="ParameterBlackboard.h">
<polygon fill="white" stroke="black" points="748.789,-116.5 748.789,-137.5 877.789,-137.5 877.789,-116.5 748.789,-116.5"/>
<text text-anchor="middle" x="813.289" y="-124.5" font-family="Verdana" font-size="10.00">ParameterBlackboard.h</text>
</a>
</g>
<!-- Node1&#45;&gt;Node18 -->
<g id="edge62" class="edge"><title>Node1&#45;&gt;Node18</title>
<path fill="none" stroke="midnightblue" d="M651.038,-406.452C689.6,-390.228 753.289,-355.225 753.289,-301 753.289,-301 753.289,-301 753.289,-243 753.289,-204.969 779.048,-166.976 796.81,-145.297"/>
<polygon fill="midnightblue" stroke="midnightblue" points="799.572,-147.451 803.382,-137.565 794.239,-142.918 799.572,-147.451"/>
</g>
<!-- Node3 -->
<g id="node5" class="node"><title>Node3</title>
<a xlink:href="InstanceConfigurableElement_8h.html" target="_top" xlink:title="InstanceConfigurableElement.h">
<polygon fill="white" stroke="black" points="332.289,-290.5 332.289,-311.5 498.289,-311.5 498.289,-290.5 332.289,-290.5"/>
<text text-anchor="middle" x="415.289" y="-298.5" font-family="Verdana" font-size="10.00">InstanceConfigurableElement.h</text>
</a>
</g>
<!-- Node2&#45;&gt;Node3 -->
<g id="edge4" class="edge"><title>Node2&#45;&gt;Node3</title>
<path fill="none" stroke="midnightblue" d="M452.036,-348.362C445.819,-340.35 437.138,-329.161 429.774,-319.67"/>
<polygon fill="midnightblue" stroke="midnightblue" points="432.386,-317.326 423.491,-311.571 426.855,-321.617 432.386,-317.326"/>
</g>
<!-- Node4 -->
<g id="node7" class="node"><title>Node4</title>
<a xlink:href="ConfigurableElementWithMapping_8h.html" target="_top" xlink:title="ConfigurableElementWithMapping.h">
<polygon fill="white" stroke="black" points="77.2894,-232.5 77.2894,-253.5 263.289,-253.5 263.289,-232.5 77.2894,-232.5"/>
<text text-anchor="middle" x="170.289" y="-240.5" font-family="Verdana" font-size="10.00">ConfigurableElementWithMapping.h</text>
</a>
</g>
<!-- Node3&#45;&gt;Node4 -->
<g id="edge6" class="edge"><title>Node3&#45;&gt;Node4</title>
<path fill="none" stroke="midnightblue" d="M370.922,-290.497C329.856,-280.775 268.686,-266.294 224.691,-255.879"/>
<polygon fill="midnightblue" stroke="midnightblue" points="225.278,-252.421 214.74,-253.523 223.665,-259.233 225.278,-252.421"/>
</g>
<!-- Node7 -->
<g id="node13" class="node"><title>Node7</title>
<polygon fill="white" stroke="#bfbfbf" points="459.289,-0.5 459.289,-21.5 503.289,-21.5 503.289,-0.5 459.289,-0.5"/>
<text text-anchor="middle" x="481.289" y="-8.5" font-family="Verdana" font-size="10.00">string</text>
</g>
<!-- Node3&#45;&gt;Node7 -->
<g id="edge44" class="edge"><title>Node3&#45;&gt;Node7</title>
<path fill="none" stroke="midnightblue" d="M416.398,-290.377C418.79,-268.458 424.983,-216.694 434.289,-174 445.679,-121.746 464.559,-61.6087 474.572,-31.0638"/>
<polygon fill="midnightblue" stroke="midnightblue" points="477.9,-32.1486 477.717,-21.5553 471.254,-29.9503 477.9,-32.1486"/>
</g>
<!-- Node10 -->
<g id="node19" class="node"><title>Node10</title>
<polygon fill="white" stroke="#bfbfbf" points="23.2894,-58.5 23.2894,-79.5 53.2894,-79.5 53.2894,-58.5 23.2894,-58.5"/>
<text text-anchor="middle" x="38.2894" y="-66.5" font-family="Verdana" font-size="10.00">list</text>
</g>
<!-- Node3&#45;&gt;Node10 -->
<g id="edge42" class="edge"><title>Node3&#45;&gt;Node10</title>
<path fill="none" stroke="midnightblue" d="M332.085,-294.894C235.477,-287.014 86.905,-272.135 68.2894,-254 23.5314,-210.397 29.0429,-128.104 34.5904,-89.7067"/>
<polygon fill="midnightblue" stroke="midnightblue" points="38.0678,-90.1248 36.1859,-79.6984 31.1551,-89.0227 38.0678,-90.1248"/>
</g>
<!-- Node14 -->
<g id="node32" class="node"><title>Node14</title>
<a xlink:href="TypeElement_8h.html" target="_top" xlink:title="TypeElement.h">
<polygon fill="white" stroke="black" points="443.289,-174.5 443.289,-195.5 529.289,-195.5 529.289,-174.5 443.289,-174.5"/>
<text text-anchor="middle" x="486.289" y="-182.5" font-family="Verdana" font-size="10.00">TypeElement.h</text>
</a>
</g>
<!-- Node3&#45;&gt;Node14 -->
<g id="edge36" class="edge"><title>Node3&#45;&gt;Node14</title>
<path fill="none" stroke="midnightblue" d="M421.842,-290.295C433.782,-270.786 459.243,-229.188 474.343,-204.518"/>
<polygon fill="midnightblue" stroke="midnightblue" points="477.518,-206.036 479.753,-195.679 471.547,-202.381 477.518,-206.036"/>
</g>
<!-- Node5 -->
<g id="node9" class="node"><title>Node5</title>
<a xlink:href="ConfigurableElement_8h.html" target="_top" xlink:title="ConfigurableElement.h">
<polygon fill="white" stroke="black" points="107.789,-174.5 107.789,-195.5 232.789,-195.5 232.789,-174.5 107.789,-174.5"/>
<text text-anchor="middle" x="170.289" y="-182.5" font-family="Verdana" font-size="10.00">ConfigurableElement.h</text>
</a>
</g>
<!-- Node4&#45;&gt;Node5 -->
<g id="edge8" class="edge"><title>Node4&#45;&gt;Node5</title>
<path fill="none" stroke="midnightblue" d="M170.289,-232.362C170.289,-224.922 170.289,-214.743 170.289,-205.728"/>
<polygon fill="midnightblue" stroke="midnightblue" points="173.789,-205.571 170.289,-195.571 166.789,-205.571 173.789,-205.571"/>
</g>
<!-- Node4&#45;&gt;Node7 -->
<g id="edge34" class="edge"><title>Node4&#45;&gt;Node7</title>
<path fill="none" stroke="midnightblue" d="M148.92,-232.351C93.9547,-203.649 -44.0451,-122.5 14.2894,-58 28.9221,-41.8207 345.928,-19.8171 449.132,-13.0585"/>
<polygon fill="midnightblue" stroke="midnightblue" points="449.511,-16.5413 459.262,-12.3992 449.056,-9.5561 449.511,-16.5413"/>
</g>
<!-- Node6 -->
<g id="node11" class="node"><title>Node6</title>
<a xlink:href="Element_8h.html" target="_top" xlink:title="Element.h">
<polygon fill="white" stroke="black" points="146.789,-116.5 146.789,-137.5 211.789,-137.5 211.789,-116.5 146.789,-116.5"/>
<text text-anchor="middle" x="179.289" y="-124.5" font-family="Verdana" font-size="10.00">Element.h</text>
</a>
</g>
<!-- Node5&#45;&gt;Node6 -->
<g id="edge10" class="edge"><title>Node5&#45;&gt;Node6</title>
<path fill="none" stroke="midnightblue" d="M171.94,-174.362C173.095,-166.922 174.674,-156.743 176.073,-147.728"/>
<polygon fill="midnightblue" stroke="midnightblue" points="179.574,-147.989 177.649,-137.571 172.657,-146.916 179.574,-147.989"/>
</g>
<!-- Node5&#45;&gt;Node10 -->
<g id="edge32" class="edge"><title>Node5&#45;&gt;Node10</title>
<path fill="none" stroke="midnightblue" d="M158.108,-174.295C135.319,-154.268 86.0416,-110.964 58.3048,-86.5893"/>
<polygon fill="midnightblue" stroke="midnightblue" points="60.2637,-83.6513 50.4416,-79.6792 55.6428,-88.9095 60.2637,-83.6513"/>
</g>
<!-- Node6&#45;&gt;Node7 -->
<g id="edge12" class="edge"><title>Node6&#45;&gt;Node7</title>
<path fill="none" stroke="midnightblue" d="M165.057,-116.411C147.592,-102.164 122.168,-76.4811 138.289,-58 158.59,-34.7278 367.367,-18.5299 448.91,-13.0469"/>
<polygon fill="midnightblue" stroke="midnightblue" points="449.348,-16.5257 459.095,-12.3735 448.886,-9.54095 449.348,-16.5257"/>
</g>
<!-- Node8 -->
<g id="node15" class="node"><title>Node8</title>
<polygon fill="white" stroke="#bfbfbf" points="201.789,-0.5 201.789,-21.5 248.789,-21.5 248.789,-0.5 201.789,-0.5"/>
<text text-anchor="middle" x="225.289" y="-8.5" font-family="Verdana" font-size="10.00">vector</text>
</g>
<!-- Node6&#45;&gt;Node8 -->
<g id="edge14" class="edge"><title>Node6&#45;&gt;Node8</title>
<path fill="none" stroke="midnightblue" d="M152.188,-116.343C124.849,-103.948 88.8552,-82.0865 105.289,-58 115.417,-43.1573 160.073,-28.4382 191.945,-19.5304"/>
<polygon fill="midnightblue" stroke="midnightblue" points="193.055,-22.8555 201.783,-16.8497 191.215,-16.1018 193.055,-22.8555"/>
</g>
<!-- Node9 -->
<g id="node17" class="node"><title>Node9</title>
<polygon fill="white" stroke="#bfbfbf" points="710.789,-0.5 710.789,-21.5 763.789,-21.5 763.789,-0.5 710.789,-0.5"/>
<text text-anchor="middle" x="737.289" y="-8.5" font-family="Verdana" font-size="10.00">stdint.h</text>
</g>
<!-- Node6&#45;&gt;Node9 -->
<g id="edge16" class="edge"><title>Node6&#45;&gt;Node9</title>
<path fill="none" stroke="midnightblue" d="M211.843,-121.049C258.831,-112.393 348.36,-95.6492 424.289,-80 524.544,-59.3374 642.335,-32.7419 700.694,-19.4091"/>
<polygon fill="midnightblue" stroke="midnightblue" points="701.579,-22.7972 710.546,-17.1552 700.017,-15.9735 701.579,-22.7972"/>
</g>
<!-- Node6&#45;&gt;Node10 -->
<g id="edge18" class="edge"><title>Node6&#45;&gt;Node10</title>
<path fill="none" stroke="midnightblue" d="M153.755,-116.497C127.973,-105.891 88.4211,-89.6216 62.9541,-79.1458"/>
<polygon fill="midnightblue" stroke="midnightblue" points="64.2017,-75.8745 53.622,-75.307 61.5387,-82.3482 64.2017,-75.8745"/>
</g>
<!-- Node11 -->
<g id="node21" class="node"><title>Node11</title>
<polygon fill="white" stroke="#bfbfbf" points="147.289,-58.5 147.289,-79.5 211.289,-79.5 211.289,-58.5 147.289,-58.5"/>
<text text-anchor="middle" x="179.289" y="-66.5" font-family="Verdana" font-size="10.00">XmlSink.h</text>
</g>
<!-- Node6&#45;&gt;Node11 -->
<g id="edge20" class="edge"><title>Node6&#45;&gt;Node11</title>
<path fill="none" stroke="midnightblue" d="M179.289,-116.362C179.289,-108.922 179.289,-98.7427 179.289,-89.7276"/>
<polygon fill="midnightblue" stroke="midnightblue" points="182.789,-89.5706 179.289,-79.5707 175.789,-89.5707 182.789,-89.5706"/>
</g>
<!-- Node12 -->
<g id="node23" class="node"><title>Node12</title>
<polygon fill="white" stroke="#bfbfbf" points="228.789,-58.5 228.789,-79.5 305.789,-79.5 305.789,-58.5 228.789,-58.5"/>
<text text-anchor="middle" x="267.289" y="-66.5" font-family="Verdana" font-size="10.00">XmlSource.h</text>
</g>
<!-- Node6&#45;&gt;Node12 -->
<g id="edge22" class="edge"><title>Node6&#45;&gt;Node12</title>
<path fill="none" stroke="midnightblue" d="M195.43,-116.362C208.703,-107.614 227.722,-95.0786 242.86,-85.1015"/>
<polygon fill="midnightblue" stroke="midnightblue" points="244.828,-87.9962 251.251,-79.5707 240.975,-82.1515 244.828,-87.9962"/>
</g>
<!-- Node13 -->
<g id="node25" class="node"><title>Node13</title>
<a xlink:href="PathNavigator_8h.html" target="_top" xlink:title="PathNavigator.h">
<polygon fill="white" stroke="black" points="323.289,-58.5 323.289,-79.5 415.289,-79.5 415.289,-58.5 323.289,-58.5"/>
<text text-anchor="middle" x="369.289" y="-66.5" font-family="Verdana" font-size="10.00">PathNavigator.h</text>
</a>
</g>
<!-- Node6&#45;&gt;Node13 -->
<g id="edge24" class="edge"><title>Node6&#45;&gt;Node13</title>
<path fill="none" stroke="midnightblue" d="M211.952,-117.029C243.143,-107.508 290.387,-93.0859 324.966,-82.5302"/>
<polygon fill="midnightblue" stroke="midnightblue" points="326.266,-85.7929 334.809,-79.5257 324.222,-79.0979 326.266,-85.7929"/>
</g>
<!-- Node13&#45;&gt;Node7 -->
<g id="edge28" class="edge"><title>Node13&#45;&gt;Node7</title>
<path fill="none" stroke="midnightblue" d="M389.572,-58.4966C406.907,-49.5194 432.08,-36.4835 451.67,-26.3387"/>
<polygon fill="midnightblue" stroke="midnightblue" points="453.509,-29.3278 460.779,-21.6212 450.29,-23.1118 453.509,-29.3278"/>
</g>
<!-- Node13&#45;&gt;Node8 -->
<g id="edge26" class="edge"><title>Node13&#45;&gt;Node8</title>
<path fill="none" stroke="midnightblue" d="M343.212,-58.4966C319.496,-48.9443 284.371,-34.7967 258.624,-24.4264"/>
<polygon fill="midnightblue" stroke="midnightblue" points="259.842,-21.144 249.259,-20.6543 257.227,-27.6371 259.842,-21.144"/>
</g>
<!-- Node13&#45;&gt;Node9 -->
<g id="edge30" class="edge"><title>Node13&#45;&gt;Node9</title>
<path fill="none" stroke="midnightblue" d="M415.524,-61.713C489.553,-50.0455 633.195,-27.4062 700.641,-16.7761"/>
<polygon fill="midnightblue" stroke="midnightblue" points="701.456,-20.191 710.789,-15.1767 700.366,-13.2763 701.456,-20.191"/>
</g>
<!-- Node14&#45;&gt;Node6 -->
<g id="edge38" class="edge"><title>Node14&#45;&gt;Node6</title>
<path fill="none" stroke="midnightblue" d="M443.279,-176.874C384.746,-165.816 280.614,-146.143 222.155,-135.098"/>
<polygon fill="midnightblue" stroke="midnightblue" points="222.615,-131.623 212.139,-133.206 221.316,-138.502 222.615,-131.623"/>
</g>
<!-- Node14&#45;&gt;Node7 -->
<g id="edge40" class="edge"><title>Node14&#45;&gt;Node7</title>
<path fill="none" stroke="midnightblue" d="M485.984,-174.377C485.177,-146.293 482.975,-69.6735 481.899,-32.2027"/>
<polygon fill="midnightblue" stroke="midnightblue" points="485.389,-31.823 481.603,-21.9277 478.392,-32.0242 485.389,-31.823"/>
</g>
<!-- Node15&#45;&gt;Node7 -->
<g id="edge50" class="edge"><title>Node15&#45;&gt;Node7</title>
<path fill="none" stroke="midnightblue" d="M554.552,-232.178C551.045,-218.535 544.657,-194.4 538.289,-174 522.069,-122.034 500.18,-61.776 488.826,-31.1368"/>
<polygon fill="midnightblue" stroke="midnightblue" points="492.044,-29.7481 485.276,-21.5967 485.483,-32.1895 492.044,-29.7481"/>
</g>
<!-- Node15&#45;&gt;Node14 -->
<g id="edge48" class="edge"><title>Node15&#45;&gt;Node14</title>
<path fill="none" stroke="midnightblue" d="M544.267,-232.362C533.858,-223.859 519.07,-211.779 507.034,-201.947"/>
<polygon fill="midnightblue" stroke="midnightblue" points="509.188,-199.187 499.229,-195.571 504.76,-204.608 509.188,-199.187"/>
</g>
<!-- Node16&#45;&gt;Node7 -->
<g id="edge60" class="edge"><title>Node16&#45;&gt;Node7</title>
<path fill="none" stroke="midnightblue" d="M646.448,-116.41C630.196,-102.162 599.746,-76.4773 571.289,-58 552.578,-45.8506 530.371,-34.2265 512.697,-25.578"/>
<polygon fill="midnightblue" stroke="midnightblue" points="513.924,-22.2839 503.396,-21.0949 510.884,-28.5897 513.924,-22.2839"/>
</g>
<!-- Node16&#45;&gt;Node9 -->
<g id="edge54" class="edge"><title>Node16&#45;&gt;Node9</title>
<path fill="none" stroke="midnightblue" d="M677.474,-116.469C690.797,-108.21 707.948,-95.5289 718.289,-80 727.948,-65.4958 732.727,-46.1741 735.073,-31.6668"/>
<polygon fill="midnightblue" stroke="midnightblue" points="738.553,-32.0517 736.434,-21.671 731.617,-31.1075 738.553,-32.0517"/>
</g>
<!-- Node17 -->
<g id="node45" class="node"><title>Node17</title>
<a xlink:href="ErrorContext_8h.html" target="_top" xlink:title="ErrorContext.h">
<polygon fill="white" stroke="black" points="623.289,-58.5 623.289,-79.5 709.289,-79.5 709.289,-58.5 623.289,-58.5"/>
<text text-anchor="middle" x="666.289" y="-66.5" font-family="Verdana" font-size="10.00">ErrorContext.h</text>
</a>
</g>
<!-- Node16&#45;&gt;Node17 -->
<g id="edge56" class="edge"><title>Node16&#45;&gt;Node17</title>
<path fill="none" stroke="midnightblue" d="M659.757,-116.362C660.783,-108.922 662.187,-98.7427 663.43,-89.7276"/>
<polygon fill="midnightblue" stroke="midnightblue" points="666.932,-89.9551 664.831,-79.5707 659.998,-88.9986 666.932,-89.9551"/>
</g>
<!-- Node17&#45;&gt;Node7 -->
<g id="edge58" class="edge"><title>Node17&#45;&gt;Node7</title>
<path fill="none" stroke="midnightblue" d="M632.787,-58.4966C598.817,-47.8464 546.625,-31.4837 513.228,-21.013"/>
<polygon fill="midnightblue" stroke="midnightblue" points="514.096,-17.6174 503.507,-17.9655 512.002,-24.2969 514.096,-17.6174"/>
</g>
<!-- Node18&#45;&gt;Node9 -->
<g id="edge64" class="edge"><title>Node18&#45;&gt;Node9</title>
<path fill="none" stroke="midnightblue" d="M806.276,-116.295C793.438,-96.6998 765.999,-54.8198 749.863,-30.1913"/>
<polygon fill="midnightblue" stroke="midnightblue" points="752.694,-28.1257 744.286,-21.6792 746.839,-31.9619 752.694,-28.1257"/>
</g>
<!-- Node19 -->
<g id="node52" class="node"><title>Node19</title>
<a xlink:href="BinaryStream_8h.html" target="_top" xlink:title="BinaryStream.h">
<polygon fill="white" stroke="black" points="803.289,-58.5 803.289,-79.5 895.289,-79.5 895.289,-58.5 803.289,-58.5"/>
<text text-anchor="middle" x="849.289" y="-66.5" font-family="Verdana" font-size="10.00">BinaryStream.h</text>
</a>
</g>
<!-- Node18&#45;&gt;Node19 -->
<g id="edge66" class="edge"><title>Node18&#45;&gt;Node19</title>
<path fill="none" stroke="midnightblue" d="M819.892,-116.362C824.764,-108.513 831.528,-97.6159 837.339,-88.2527"/>
<polygon fill="midnightblue" stroke="midnightblue" points="840.428,-89.9129 842.728,-79.5707 834.481,-86.2213 840.428,-89.9129"/>
</g>
<!-- Node19&#45;&gt;Node7 -->
<g id="edge70" class="edge"><title>Node19&#45;&gt;Node7</title>
<path fill="none" stroke="midnightblue" d="M803.055,-61.713C727.35,-49.7813 578.843,-26.3753 513.475,-16.0727"/>
<polygon fill="midnightblue" stroke="midnightblue" points="513.781,-12.5778 503.358,-14.4782 512.691,-19.4924 513.781,-12.5778"/>
</g>
<!-- Node19&#45;&gt;Node9 -->
<g id="edge68" class="edge"><title>Node19&#45;&gt;Node9</title>
<path fill="none" stroke="midnightblue" d="M829.007,-58.4966C811.672,-49.5194 786.499,-36.4835 766.909,-26.3387"/>
<polygon fill="midnightblue" stroke="midnightblue" points="768.289,-23.1118 757.799,-21.6212 765.07,-29.3278 768.289,-23.1118"/>
</g>
<!-- Node20 -->
<g id="node56" class="node"><title>Node20</title>
<polygon fill="white" stroke="#bfbfbf" points="822.289,-0.5 822.289,-21.5 876.289,-21.5 876.289,-0.5 822.289,-0.5"/>
<text text-anchor="middle" x="849.289" y="-8.5" font-family="Verdana" font-size="10.00">fstream</text>
</g>
<!-- Node19&#45;&gt;Node20 -->
<g id="edge72" class="edge"><title>Node19&#45;&gt;Node20</title>
<path fill="none" stroke="midnightblue" d="M849.289,-58.3619C849.289,-50.9219 849.289,-40.7427 849.289,-31.7276"/>
<polygon fill="midnightblue" stroke="midnightblue" points="852.789,-31.5706 849.289,-21.5707 845.789,-31.5707 852.789,-31.5706"/>
</g>
</g>
</svg>
