<?xml version="1.0" encoding="UTF-8" standalone="no"?>
<!DOCTYPE svg PUBLIC "-//W3C//DTD SVG 1.1//EN"
 "http://www.w3.org/Graphics/SVG/1.1/DTD/svg11.dtd">
<!-- Generated by graphviz version 2.26.3 (20100126.1600)
 -->
<!-- Title: parameter/BitParameterBlockType.h Pages: 1 -->
<svg width="730pt" height="116pt"
 viewBox="0.00 0.00 730.00 116.00" xmlns="http://www.w3.org/2000/svg" xmlns:xlink="http://www.w3.org/1999/xlink">
<g id="graph1" class="graph" transform="scale(1 1) rotate(0) translate(4 112)">
<title>parameter/BitParameterBlockType.h</title>
<polygon fill="white" stroke="white" points="-4,5 -4,-112 727,-112 727,5 -4,5"/>
<!-- Node1 -->
<g id="node1" class="node"><title>Node1</title>
<polygon fill="#bfbfbf" stroke="black" points="287.5,-73 287.5,-107 446.5,-107 446.5,-73 287.5,-73"/>
<text text-anchor="start" x="295.5" y="-94" font-family="Verdana" font-size="10.00">parameter/BitParameterBlock</text>
<text text-anchor="middle" x="367" y="-81" font-family="Verdana" font-size="10.00">Type.h</text>
</g>
<!-- Node2 -->
<g id="node3" class="node"><title>Node2</title>
<a xlink:href="BitParameterBlock_8cpp.html" target="_top" xlink:title="parameter/BitParameterBlock.cpp">
<polygon fill="white" stroke="black" points="-0.5,-7.5 -0.5,-28.5 178.5,-28.5 178.5,-7.5 -0.5,-7.5"/>
<text text-anchor="middle" x="89" y="-15.5" font-family="Verdana" font-size="10.00">parameter/BitParameterBlock.cpp</text>
</a>
</g>
<!-- Node1&#45;&gt;Node2 -->
<g id="edge2" class="edge"><title>Node1&#45;&gt;Node2</title>
<path fill="none" stroke="midnightblue" d="M291.256,-70.3828C239.224,-56.907 172.162,-39.5384 129.859,-28.5821"/>
<polygon fill="midnightblue" stroke="midnightblue" points="290.56,-73.8179 301.118,-72.937 292.315,-67.0415 290.56,-73.8179"/>
</g>
<!-- Node3 -->
<g id="node5" class="node"><title>Node3</title>
<a xlink:href="BitParameterBlockType_8cpp.html" target="_top" xlink:title="parameter/BitParameterBlock\lType.cpp">
<polygon fill="white" stroke="black" points="195.5,-1 195.5,-35 354.5,-35 354.5,-1 195.5,-1"/>
<text text-anchor="start" x="203.5" y="-22" font-family="Verdana" font-size="10.00">parameter/BitParameterBlock</text>
<text text-anchor="middle" x="275" y="-9" font-family="Verdana" font-size="10.00">Type.cpp</text>
</a>
</g>
<!-- Node1&#45;&gt;Node3 -->
<g id="edge4" class="edge"><title>Node1&#45;&gt;Node3</title>
<path fill="none" stroke="midnightblue" d="M336.963,-66.493C323.926,-56.2899 308.936,-44.5583 296.965,-35.19"/>
<polygon fill="midnightblue" stroke="midnightblue" points="335.165,-69.5302 345.197,-72.937 339.479,-64.0176 335.165,-69.5302"/>
</g>
<!-- Node4 -->
<g id="node7" class="node"><title>Node4</title>
<a xlink:href="BitParameterType_8cpp.html" target="_top" xlink:title="parameter/BitParameterType.cpp">
<polygon fill="white" stroke="black" points="371.5,-7.5 371.5,-28.5 546.5,-28.5 546.5,-7.5 371.5,-7.5"/>
<text text-anchor="middle" x="459" y="-15.5" font-family="Verdana" font-size="10.00">parameter/BitParameterType.cpp</text>
</a>
</g>
<!-- Node1&#45;&gt;Node4 -->
<g id="edge6" class="edge"><title>Node1&#45;&gt;Node4</title>
<path fill="none" stroke="midnightblue" d="M396.993,-66.527C413.288,-53.7747 432.644,-38.6265 445.343,-28.688"/>
<polygon fill="midnightblue" stroke="midnightblue" points="394.521,-64.0176 388.803,-72.937 398.835,-69.5302 394.521,-64.0176"/>
</g>
<!-- Node5 -->
<g id="node9" class="node"><title>Node5</title>
<a xlink:href="ParameterMgr_8cpp.html" target="_top" xlink:title="parameter/ParameterMgr.cpp">
<polygon fill="white" stroke="black" points="564,-7.5 564,-28.5 722,-28.5 722,-7.5 564,-7.5"/>
<text text-anchor="middle" x="643" y="-15.5" font-family="Verdana" font-size="10.00">parameter/ParameterMgr.cpp</text>
</a>
</g>
<!-- Node1&#45;&gt;Node5 -->
<g id="edge8" class="edge"><title>Node1&#45;&gt;Node5</title>
<path fill="none" stroke="midnightblue" d="M442.199,-70.3828C493.856,-56.907 560.436,-39.5384 602.435,-28.5821"/>
<polygon fill="midnightblue" stroke="midnightblue" points="441.201,-67.0261 432.408,-72.937 442.968,-73.7994 441.201,-67.0261"/>
</g>
</g>
</svg>
