<?xml version="1.0" encoding="UTF-8" standalone="no"?>
<!DOCTYPE svg PUBLIC "-//W3C//DTD SVG 1.1//EN"
 "http://www.w3.org/Graphics/SVG/1.1/DTD/svg11.dtd">
<!-- Generated by graphviz version 2.26.3 (20100126.1600)
 -->
<!-- Title: parameter/BitParameterBlock.h Pages: 1 -->
<svg width="532pt" height="102pt"
 viewBox="0.00 0.00 532.00 102.00" xmlns="http://www.w3.org/2000/svg" xmlns:xlink="http://www.w3.org/1999/xlink">
<g id="graph1" class="graph" transform="scale(1 1) rotate(0) translate(4 98)">
<title>parameter/BitParameterBlock.h</title>
<polygon fill="white" stroke="white" points="-4,5 -4,-98 529,-98 529,5 -4,5"/>
<!-- Node1 -->
<g id="node1" class="node"><title>Node1</title>
<polygon fill="#bfbfbf" stroke="black" points="175,-72.5 175,-93.5 343,-93.5 343,-72.5 175,-72.5"/>
<text text-anchor="middle" x="259" y="-80.5" font-family="Verdana" font-size="10.00">parameter/BitParameterBlock.h</text>
</g>
<!-- Node2 -->
<g id="node3" class="node"><title>Node2</title>
<a xlink:href="BitParameter_8cpp.html" target="_top" xlink:title="parameter/BitParameter.cpp">
<polygon fill="white" stroke="black" points="-0.5,-7.5 -0.5,-28.5 152.5,-28.5 152.5,-7.5 -0.5,-7.5"/>
<text text-anchor="middle" x="76" y="-15.5" font-family="Verdana" font-size="10.00">parameter/BitParameter.cpp</text>
</a>
</g>
<!-- Node1&#45;&gt;Node2 -->
<g id="edge2" class="edge"><title>Node1&#45;&gt;Node2</title>
<path fill="none" stroke="midnightblue" d="M219.533,-68.9818C185.389,-56.854 136.764,-39.583 105.797,-28.5835"/>
<polygon fill="midnightblue" stroke="midnightblue" points="218.596,-72.363 229.191,-72.412 220.939,-65.7667 218.596,-72.363"/>
</g>
<!-- Node3 -->
<g id="node5" class="node"><title>Node3</title>
<a xlink:href="BitParameterBlock_8cpp.html" target="_top" xlink:title="parameter/BitParameterBlock.cpp">
<polygon fill="white" stroke="black" points="169.5,-7.5 169.5,-28.5 348.5,-28.5 348.5,-7.5 169.5,-7.5"/>
<text text-anchor="middle" x="259" y="-15.5" font-family="Verdana" font-size="10.00">parameter/BitParameterBlock.cpp</text>
</a>
</g>
<!-- Node1&#45;&gt;Node3 -->
<g id="edge4" class="edge"><title>Node1&#45;&gt;Node3</title>
<path fill="none" stroke="midnightblue" d="M259,-62.0142C259,-50.8307 259,-37.5583 259,-28.5337"/>
<polygon fill="midnightblue" stroke="midnightblue" points="255.5,-62.2665 259,-72.2666 262.5,-62.2666 255.5,-62.2665"/>
</g>
<!-- Node4 -->
<g id="node7" class="node"><title>Node4</title>
<a xlink:href="BitParameterBlockType_8cpp.html" target="_top" xlink:title="parameter/BitParameterBlock\lType.cpp">
<polygon fill="white" stroke="black" points="365.5,-1 365.5,-35 524.5,-35 524.5,-1 365.5,-1"/>
<text text-anchor="start" x="373.5" y="-22" font-family="Verdana" font-size="10.00">parameter/BitParameterBlock</text>
<text text-anchor="middle" x="445" y="-9" font-family="Verdana" font-size="10.00">Type.cpp</text>
</a>
</g>
<!-- Node1&#45;&gt;Node4 -->
<g id="edge6" class="edge"><title>Node1&#45;&gt;Node4</title>
<path fill="none" stroke="midnightblue" d="M298.926,-69.0473C327.408,-59.094 365.872,-45.6522 396.181,-35.0604"/>
<polygon fill="midnightblue" stroke="midnightblue" points="297.584,-65.8089 289.298,-72.412 299.893,-72.417 297.584,-65.8089"/>
</g>
</g>
</svg>
