<?xml version="1.0" encoding="UTF-8" standalone="no"?>
<!DOCTYPE svg PUBLIC "-//W3C//DTD SVG 1.1//EN"
 "http://www.w3.org/Graphics/SVG/1.1/DTD/svg11.dtd">
<!-- Generated by graphviz version 2.26.3 (20100126.1600)
 -->
<!-- Title: parameter/BitwiseAreaConfiguration.cpp Pages: 1 -->
<svg width="1201pt" height="494pt"
 viewBox="0.00 0.00 1200.55 494.00" xmlns="http://www.w3.org/2000/svg" xmlns:xlink="http://www.w3.org/1999/xlink">
<g id="graph1" class="graph" transform="scale(1 1) rotate(0) translate(4 490)">
<title>parameter/BitwiseAreaConfiguration.cpp</title>
<polygon fill="white" stroke="white" points="-4,5 -4,-490 1197.55,-490 1197.55,5 -4,5"/>
<!-- Node1 -->
<g id="node1" class="node"><title>Node1</title>
<polygon fill="#bfbfbf" stroke="black" points="253.551,-464.5 253.551,-485.5 463.551,-485.5 463.551,-464.5 253.551,-464.5"/>
<text text-anchor="middle" x="358.551" y="-472.5" font-family="Verdana" font-size="10.00">parameter/BitwiseAreaConfiguration.cpp</text>
</g>
<!-- Node2 -->
<g id="node3" class="node"><title>Node2</title>
<a xlink:href="BitwiseAreaConfiguration_8h.html" target="_top" xlink:title="BitwiseAreaConfiguration.h">
<polygon fill="white" stroke="black" points="118.051,-406.5 118.051,-427.5 263.051,-427.5 263.051,-406.5 118.051,-406.5"/>
<text text-anchor="middle" x="190.551" y="-414.5" font-family="Verdana" font-size="10.00">BitwiseAreaConfiguration.h</text>
</a>
</g>
<!-- Node1&#45;&gt;Node2 -->
<g id="edge2" class="edge"><title>Node1&#45;&gt;Node2</title>
<path fill="none" stroke="midnightblue" d="M328.127,-464.497C300.857,-455.082 260.658,-441.204 230.747,-430.877"/>
<polygon fill="midnightblue" stroke="midnightblue" points="231.626,-427.478 221.031,-427.523 229.342,-434.095 231.626,-427.478"/>
</g>
<!-- Node12 -->
<g id="node26" class="node"><title>Node12</title>
<a xlink:href="BitParameter_8h.html" target="_top" xlink:title="BitParameter.h">
<polygon fill="white" stroke="black" points="314.551,-406.5 314.551,-427.5 402.551,-427.5 402.551,-406.5 314.551,-406.5"/>
<text text-anchor="middle" x="358.551" y="-414.5" font-family="Verdana" font-size="10.00">BitParameter.h</text>
</a>
</g>
<!-- Node1&#45;&gt;Node12 -->
<g id="edge28" class="edge"><title>Node1&#45;&gt;Node12</title>
<path fill="none" stroke="midnightblue" d="M358.551,-464.362C358.551,-456.922 358.551,-446.743 358.551,-437.728"/>
<polygon fill="midnightblue" stroke="midnightblue" points="362.051,-437.571 358.551,-427.571 355.051,-437.571 362.051,-437.571"/>
</g>
<!-- Node23 -->
<g id="node63" class="node"><title>Node23</title>
<a xlink:href="Subsystem_8h.html" target="_top" xlink:title="Subsystem.h">
<polygon fill="white" stroke="black" points="900.551,-290.5 900.551,-311.5 980.551,-311.5 980.551,-290.5 900.551,-290.5"/>
<text text-anchor="middle" x="940.551" y="-298.5" font-family="Verdana" font-size="10.00">Subsystem.h</text>
</a>
</g>
<!-- Node1&#45;&gt;Node23 -->
<g id="edge80" class="edge"><title>Node1&#45;&gt;Node23</title>
<path fill="none" stroke="midnightblue" d="M394.081,-464.377C495.059,-434.188 783.624,-347.916 895.481,-314.474"/>
<polygon fill="midnightblue" stroke="midnightblue" points="896.538,-317.812 905.116,-311.594 894.533,-311.105 896.538,-317.812"/>
</g>
<!-- Node3 -->
<g id="node5" class="node"><title>Node3</title>
<a xlink:href="AreaConfiguration_8h.html" target="_top" xlink:title="AreaConfiguration.h">
<polygon fill="white" stroke="black" points="24.5506,-174.5 24.5506,-195.5 136.551,-195.5 136.551,-174.5 24.5506,-174.5"/>
<text text-anchor="middle" x="80.5506" y="-182.5" font-family="Verdana" font-size="10.00">AreaConfiguration.h</text>
</a>
</g>
<!-- Node2&#45;&gt;Node3 -->
<g id="edge4" class="edge"><title>Node2&#45;&gt;Node3</title>
<path fill="none" stroke="midnightblue" d="M181.066,-406.392C173.222,-397.235 162.172,-383.402 154.551,-370 122.472,-313.591 97.6705,-240.512 86.7066,-205.486"/>
<polygon fill="midnightblue" stroke="midnightblue" points="90.0424,-204.425 83.7556,-195.897 83.3521,-206.484 90.0424,-204.425"/>
</g>
<!-- Node4 -->
<g id="node7" class="node"><title>Node4</title>
<a xlink:href="ParameterBlackboard_8h.html" target="_top" xlink:title="ParameterBlackboard.h">
<polygon fill="white" stroke="black" points="12.0506,-116.5 12.0506,-137.5 141.051,-137.5 141.051,-116.5 12.0506,-116.5"/>
<text text-anchor="middle" x="76.5506" y="-124.5" font-family="Verdana" font-size="10.00">ParameterBlackboard.h</text>
</a>
</g>
<!-- Node3&#45;&gt;Node4 -->
<g id="edge6" class="edge"><title>Node3&#45;&gt;Node4</title>
<path fill="none" stroke="midnightblue" d="M79.817,-174.362C79.3039,-166.922 78.6019,-156.743 77.9801,-147.728"/>
<polygon fill="midnightblue" stroke="midnightblue" points="81.4595,-147.306 77.2796,-137.571 74.476,-147.788 81.4595,-147.306"/>
</g>
<!-- Node6 -->
<g id="node11" class="node"><title>Node6</title>
<a xlink:href="BinaryStream_8h.html" target="_top" xlink:title="BinaryStream.h">
<polygon fill="white" stroke="black" points="10.5506,-58.5 10.5506,-79.5 102.551,-79.5 102.551,-58.5 10.5506,-58.5"/>
<text text-anchor="middle" x="56.5506" y="-66.5" font-family="Verdana" font-size="10.00">BinaryStream.h</text>
</a>
</g>
<!-- Node3&#45;&gt;Node6 -->
<g id="edge18" class="edge"><title>Node3&#45;&gt;Node6</title>
<path fill="none" stroke="midnightblue" d="M49.0145,-174.438C32.3111,-167.048 13.2847,-155.346 3.55063,-138 -7.249,-118.755 11.5383,-99.0043 29.6605,-85.5922"/>
<polygon fill="midnightblue" stroke="midnightblue" points="32.1509,-88.1242 38.3708,-79.5473 28.1599,-82.3734 32.1509,-88.1242"/>
</g>
<!-- Node9 -->
<g id="node19" class="node"><title>Node9</title>
<a xlink:href="SyncerSet_8h.html" target="_top" xlink:title="SyncerSet.h">
<polygon fill="white" stroke="black" points="384.051,-116.5 384.051,-137.5 459.051,-137.5 459.051,-116.5 384.051,-116.5"/>
<text text-anchor="middle" x="421.551" y="-124.5" font-family="Verdana" font-size="10.00">SyncerSet.h</text>
</a>
</g>
<!-- Node3&#45;&gt;Node9 -->
<g id="edge20" class="edge"><title>Node3&#45;&gt;Node9</title>
<path fill="none" stroke="midnightblue" d="M136.86,-175.422C202.982,-164.176 311.508,-145.717 373.723,-135.135"/>
<polygon fill="midnightblue" stroke="midnightblue" points="374.396,-138.571 383.668,-133.443 373.222,-131.67 374.396,-138.571"/>
</g>
<!-- Node5 -->
<g id="node9" class="node"><title>Node5</title>
<polygon fill="white" stroke="#bfbfbf" points="180.051,-0.5 180.051,-21.5 233.051,-21.5 233.051,-0.5 180.051,-0.5"/>
<text text-anchor="middle" x="206.551" y="-8.5" font-family="Verdana" font-size="10.00">stdint.h</text>
</g>
<!-- Node4&#45;&gt;Node5 -->
<g id="edge8" class="edge"><title>Node4&#45;&gt;Node5</title>
<path fill="none" stroke="midnightblue" d="M88.5477,-116.295C110.991,-96.2682 159.522,-52.9641 186.838,-28.5893"/>
<polygon fill="midnightblue" stroke="midnightblue" points="189.451,-30.9486 194.583,-21.6792 184.791,-25.7256 189.451,-30.9486"/>
</g>
<!-- Node4&#45;&gt;Node6 -->
<g id="edge10" class="edge"><title>Node4&#45;&gt;Node6</title>
<path fill="none" stroke="midnightblue" d="M72.8823,-116.362C70.2604,-108.758 66.652,-98.294 63.4937,-89.1349"/>
<polygon fill="midnightblue" stroke="midnightblue" points="66.7645,-87.8834 60.1957,-79.5707 60.1469,-90.1654 66.7645,-87.8834"/>
</g>
<!-- Node6&#45;&gt;Node5 -->
<g id="edge12" class="edge"><title>Node6&#45;&gt;Node5</title>
<path fill="none" stroke="midnightblue" d="M83.7145,-58.4966C108.001,-49.1057 143.774,-35.2735 170.459,-24.9554"/>
<polygon fill="midnightblue" stroke="midnightblue" points="171.776,-28.1987 179.841,-21.3277 169.252,-21.6698 171.776,-28.1987"/>
</g>
<!-- Node7 -->
<g id="node14" class="node"><title>Node7</title>
<polygon fill="white" stroke="#bfbfbf" points="527.551,-0.5 527.551,-21.5 571.551,-21.5 571.551,-0.5 527.551,-0.5"/>
<text text-anchor="middle" x="549.551" y="-8.5" font-family="Verdana" font-size="10.00">string</text>
</g>
<!-- Node6&#45;&gt;Node7 -->
<g id="edge14" class="edge"><title>Node6&#45;&gt;Node7</title>
<path fill="none" stroke="midnightblue" d="M102.931,-63.5435C202.004,-51.8879 432.175,-24.8089 517.217,-14.804"/>
<polygon fill="midnightblue" stroke="midnightblue" points="517.788,-18.2611 527.31,-13.6165 516.97,-11.309 517.788,-18.2611"/>
</g>
<!-- Node8 -->
<g id="node16" class="node"><title>Node8</title>
<polygon fill="white" stroke="#bfbfbf" points="29.5506,-0.5 29.5506,-21.5 83.5506,-21.5 83.5506,-0.5 29.5506,-0.5"/>
<text text-anchor="middle" x="56.5506" y="-8.5" font-family="Verdana" font-size="10.00">fstream</text>
</g>
<!-- Node6&#45;&gt;Node8 -->
<g id="edge16" class="edge"><title>Node6&#45;&gt;Node8</title>
<path fill="none" stroke="midnightblue" d="M56.5506,-58.3619C56.5506,-50.9219 56.5506,-40.7427 56.5506,-31.7276"/>
<polygon fill="midnightblue" stroke="midnightblue" points="60.0507,-31.5706 56.5506,-21.5707 53.0507,-31.5707 60.0507,-31.5706"/>
</g>
<!-- Node9&#45;&gt;Node7 -->
<g id="edge24" class="edge"><title>Node9&#45;&gt;Node7</title>
<path fill="none" stroke="midnightblue" d="M428.814,-116.355C438.902,-102.044 458.219,-76.2886 478.551,-58 491.588,-46.2727 507.788,-35.322 521.42,-26.9461"/>
<polygon fill="midnightblue" stroke="midnightblue" points="523.597,-29.7222 530.377,-21.581 520,-23.717 523.597,-29.7222"/>
</g>
<!-- Node10 -->
<g id="node21" class="node"><title>Node10</title>
<polygon fill="white" stroke="#bfbfbf" points="356.551,-58.5 356.551,-79.5 388.551,-79.5 388.551,-58.5 356.551,-58.5"/>
<text text-anchor="middle" x="372.551" y="-66.5" font-family="Verdana" font-size="10.00">set</text>
</g>
<!-- Node9&#45;&gt;Node10 -->
<g id="edge22" class="edge"><title>Node9&#45;&gt;Node10</title>
<path fill="none" stroke="midnightblue" d="M412.563,-116.362C405.725,-108.268 396.148,-96.9318 388.078,-87.3796"/>
<polygon fill="midnightblue" stroke="midnightblue" points="390.608,-84.9508 381.481,-79.5707 385.261,-89.4683 390.608,-84.9508"/>
</g>
<!-- Node11 -->
<g id="node24" class="node"><title>Node11</title>
<polygon fill="white" stroke="#bfbfbf" points="920.551,-58.5 920.551,-79.5 950.551,-79.5 950.551,-58.5 920.551,-58.5"/>
<text text-anchor="middle" x="935.551" y="-66.5" font-family="Verdana" font-size="10.00">list</text>
</g>
<!-- Node9&#45;&gt;Node11 -->
<g id="edge26" class="edge"><title>Node9&#45;&gt;Node11</title>
<path fill="none" stroke="midnightblue" d="M459.164,-124.011C536.817,-117.637 720.42,-101.517 873.551,-80 885.692,-78.2939 899.095,-75.9714 910.324,-73.9"/>
<polygon fill="midnightblue" stroke="midnightblue" points="911.132,-77.3095 920.312,-72.0194 909.837,-70.4304 911.132,-77.3095"/>
</g>
<!-- Node12&#45;&gt;Node5 -->
<g id="edge30" class="edge"><title>Node12&#45;&gt;Node5</title>
<path fill="none" stroke="midnightblue" d="M314.483,-410.024C258.355,-398.341 168.551,-369.02 168.551,-301 168.551,-301 168.551,-301 168.551,-127 168.551,-91.7411 184.602,-53.3154 195.84,-30.7323"/>
<polygon fill="midnightblue" stroke="midnightblue" points="198.969,-32.3005 200.445,-21.809 192.749,-29.0901 198.969,-32.3005"/>
</g>
<!-- Node13 -->
<g id="node29" class="node"><title>Node13</title>
<a xlink:href="BaseParameter_8h.html" target="_top" xlink:title="BaseParameter.h">
<polygon fill="white" stroke="black" points="446.051,-348.5 446.051,-369.5 545.051,-369.5 545.051,-348.5 446.051,-348.5"/>
<text text-anchor="middle" x="495.551" y="-356.5" font-family="Verdana" font-size="10.00">BaseParameter.h</text>
</a>
</g>
<!-- Node12&#45;&gt;Node13 -->
<g id="edge32" class="edge"><title>Node12&#45;&gt;Node13</title>
<path fill="none" stroke="midnightblue" d="M383.36,-406.497C405.047,-397.315 436.761,-383.889 460.943,-373.652"/>
<polygon fill="midnightblue" stroke="midnightblue" points="462.618,-376.743 470.463,-369.621 459.889,-370.297 462.618,-376.743"/>
</g>
<!-- Node13&#45;&gt;Node5 -->
<g id="edge34" class="edge"><title>Node13&#45;&gt;Node5</title>
<path fill="none" stroke="midnightblue" d="M445.87,-349.687C363.24,-332.764 206.551,-293.956 206.551,-243 206.551,-243 206.551,-243 206.551,-127 206.551,-93.5978 206.551,-54.7853 206.551,-31.5939"/>
<polygon fill="midnightblue" stroke="midnightblue" points="210.051,-31.5561 206.551,-21.5561 203.051,-31.5561 210.051,-31.5561"/>
</g>
<!-- Node14 -->
<g id="node32" class="node"><title>Node14</title>
<polygon fill="white" stroke="#bfbfbf" points="1000.05,-0.5 1000.05,-21.5 1047.05,-21.5 1047.05,-0.5 1000.05,-0.5"/>
<text text-anchor="middle" x="1023.55" y="-8.5" font-family="Verdana" font-size="10.00">vector</text>
</g>
<!-- Node13&#45;&gt;Node14 -->
<g id="edge36" class="edge"><title>Node13&#45;&gt;Node14</title>
<path fill="none" stroke="midnightblue" d="M545.211,-358.083C634.91,-355.587 829.502,-346.323 989.551,-312 1082.72,-292.019 1192.55,-338.292 1192.55,-243 1192.55,-243 1192.55,-243 1192.55,-127 1192.55,-62.0477 1106.65,-30.748 1057.33,-18.131"/>
<polygon fill="midnightblue" stroke="midnightblue" points="1057.95,-14.6798 1047.41,-15.7169 1056.3,-21.4815 1057.95,-14.6798"/>
</g>
<!-- Node15 -->
<g id="node34" class="node"><title>Node15</title>
<a xlink:href="InstanceConfigurableElement_8h.html" target="_top" xlink:title="InstanceConfigurableElement.h">
<polygon fill="white" stroke="black" points="447.551,-290.5 447.551,-311.5 613.551,-311.5 613.551,-290.5 447.551,-290.5"/>
<text text-anchor="middle" x="530.551" y="-298.5" font-family="Verdana" font-size="10.00">InstanceConfigurableElement.h</text>
</a>
</g>
<!-- Node13&#45;&gt;Node15 -->
<g id="edge38" class="edge"><title>Node13&#45;&gt;Node15</title>
<path fill="none" stroke="midnightblue" d="M501.97,-348.362C506.707,-340.513 513.282,-329.616 518.933,-320.253"/>
<polygon fill="midnightblue" stroke="midnightblue" points="522.002,-321.941 524.172,-311.571 516.008,-318.324 522.002,-321.941"/>
</g>
<!-- Node15&#45;&gt;Node7 -->
<g id="edge78" class="edge"><title>Node15&#45;&gt;Node7</title>
<path fill="none" stroke="midnightblue" d="M530.551,-290.444C530.551,-270.062 530.551,-223.868 530.551,-185 530.551,-185 530.551,-185 530.551,-127 530.551,-93.175 538.516,-54.5229 544.131,-31.474"/>
<polygon fill="midnightblue" stroke="midnightblue" points="547.525,-32.3312 546.582,-21.7784 540.738,-30.6159 547.525,-32.3312"/>
</g>
<!-- Node15&#45;&gt;Node11 -->
<g id="edge76" class="edge"><title>Node15&#45;&gt;Node11</title>
<path fill="none" stroke="midnightblue" d="M548.009,-290.458C584.498,-268.474 671.59,-216.269 745.551,-174 804.724,-140.182 875.108,-101.747 911.336,-82.0927"/>
<polygon fill="midnightblue" stroke="midnightblue" points="913.074,-85.1322 920.198,-77.2904 909.738,-78.9778 913.074,-85.1322"/>
</g>
<!-- Node16 -->
<g id="node36" class="node"><title>Node16</title>
<a xlink:href="ConfigurableElementWithMapping_8h.html" target="_top" xlink:title="ConfigurableElementWithMapping.h">
<polygon fill="white" stroke="black" points="688.551,-232.5 688.551,-253.5 874.551,-253.5 874.551,-232.5 688.551,-232.5"/>
<text text-anchor="middle" x="781.551" y="-240.5" font-family="Verdana" font-size="10.00">ConfigurableElementWithMapping.h</text>
</a>
</g>
<!-- Node15&#45;&gt;Node16 -->
<g id="edge40" class="edge"><title>Node15&#45;&gt;Node16</title>
<path fill="none" stroke="midnightblue" d="M576.005,-290.497C618.165,-280.755 681.009,-266.233 726.101,-255.813"/>
<polygon fill="midnightblue" stroke="midnightblue" points="727.056,-259.185 736.011,-253.523 725.48,-252.364 727.056,-259.185"/>
</g>
<!-- Node22 -->
<g id="node57" class="node"><title>Node22</title>
<a xlink:href="TypeElement_8h.html" target="_top" xlink:title="TypeElement.h">
<polygon fill="white" stroke="black" points="416.551,-174.5 416.551,-195.5 502.551,-195.5 502.551,-174.5 416.551,-174.5"/>
<text text-anchor="middle" x="459.551" y="-182.5" font-family="Verdana" font-size="10.00">TypeElement.h</text>
</a>
</g>
<!-- Node15&#45;&gt;Node22 -->
<g id="edge70" class="edge"><title>Node15&#45;&gt;Node22</title>
<path fill="none" stroke="midnightblue" d="M523.998,-290.295C512.058,-270.786 486.597,-229.188 471.497,-204.518"/>
<polygon fill="midnightblue" stroke="midnightblue" points="474.293,-202.381 466.087,-195.679 468.322,-206.036 474.293,-202.381"/>
</g>
<!-- Node16&#45;&gt;Node7 -->
<g id="edge68" class="edge"><title>Node16&#45;&gt;Node7</title>
<path fill="none" stroke="midnightblue" d="M819.216,-232.452C840.994,-224.944 867.889,-213.118 887.551,-196 939.727,-150.576 1005.6,-109.628 959.551,-58 934.492,-29.9049 674.218,-16.2619 581.846,-12.278"/>
<polygon fill="midnightblue" stroke="midnightblue" points="581.828,-8.77418 571.689,-11.8499 581.533,-15.768 581.828,-8.77418"/>
</g>
<!-- Node17 -->
<g id="node38" class="node"><title>Node17</title>
<a xlink:href="ConfigurableElement_8h.html" target="_top" xlink:title="ConfigurableElement.h">
<polygon fill="white" stroke="black" points="754.051,-174.5 754.051,-195.5 879.051,-195.5 879.051,-174.5 754.051,-174.5"/>
<text text-anchor="middle" x="816.551" y="-182.5" font-family="Verdana" font-size="10.00">ConfigurableElement.h</text>
</a>
</g>
<!-- Node16&#45;&gt;Node17 -->
<g id="edge42" class="edge"><title>Node16&#45;&gt;Node17</title>
<path fill="none" stroke="midnightblue" d="M787.97,-232.362C792.707,-224.513 799.282,-213.616 804.933,-204.253"/>
<polygon fill="midnightblue" stroke="midnightblue" points="808.002,-205.941 810.172,-195.571 802.008,-202.324 808.002,-205.941"/>
</g>
<!-- Node17&#45;&gt;Node11 -->
<g id="edge66" class="edge"><title>Node17&#45;&gt;Node11</title>
<path fill="none" stroke="midnightblue" d="M827.533,-174.295C847.989,-154.355 892.119,-111.337 917.182,-86.9056"/>
<polygon fill="midnightblue" stroke="midnightblue" points="919.878,-89.1657 924.595,-79.6792 914.991,-84.1532 919.878,-89.1657"/>
</g>
<!-- Node18 -->
<g id="node40" class="node"><title>Node18</title>
<a xlink:href="Element_8h.html" target="_top" xlink:title="Element.h">
<polygon fill="white" stroke="black" points="589.051,-116.5 589.051,-137.5 654.051,-137.5 654.051,-116.5 589.051,-116.5"/>
<text text-anchor="middle" x="621.551" y="-124.5" font-family="Verdana" font-size="10.00">Element.h</text>
</a>
</g>
<!-- Node17&#45;&gt;Node18 -->
<g id="edge44" class="edge"><title>Node17&#45;&gt;Node18</title>
<path fill="none" stroke="midnightblue" d="M781.238,-174.497C748.373,-164.722 699.33,-150.134 664.273,-139.707"/>
<polygon fill="midnightblue" stroke="midnightblue" points="664.912,-136.246 654.329,-136.75 662.916,-142.955 664.912,-136.246"/>
</g>
<!-- Node18&#45;&gt;Node5 -->
<g id="edge50" class="edge"><title>Node18&#45;&gt;Node5</title>
<path fill="none" stroke="midnightblue" d="M589.449,-116.474C546.11,-102.41 466.377,-77.0517 397.551,-58 344.304,-43.2608 282.072,-28.3794 243.48,-19.4225"/>
<polygon fill="midnightblue" stroke="midnightblue" points="243.78,-15.8997 233.249,-17.0583 242.204,-22.72 243.78,-15.8997"/>
</g>
<!-- Node18&#45;&gt;Node7 -->
<g id="edge46" class="edge"><title>Node18&#45;&gt;Node7</title>
<path fill="none" stroke="midnightblue" d="M613.333,-116.434C606.194,-107.075 595.744,-92.9302 587.551,-80 577.301,-63.826 566.896,-44.7037 559.572,-30.6964"/>
<polygon fill="midnightblue" stroke="midnightblue" points="562.528,-28.7942 554.829,-21.5163 556.309,-32.0072 562.528,-28.7942"/>
</g>
<!-- Node18&#45;&gt;Node11 -->
<g id="edge52" class="edge"><title>Node18&#45;&gt;Node11</title>
<path fill="none" stroke="midnightblue" d="M654.144,-118.843C658.635,-117.826 663.198,-116.847 667.551,-116 772.995,-95.4898 802.632,-107.203 906.551,-80 907.983,-79.625 909.443,-79.2036 910.907,-78.7502"/>
<polygon fill="midnightblue" stroke="midnightblue" points="912.106,-82.0388 920.398,-75.4438 909.803,-75.4285 912.106,-82.0388"/>
</g>
<!-- Node18&#45;&gt;Node14 -->
<g id="edge48" class="edge"><title>Node18&#45;&gt;Node14</title>
<path fill="none" stroke="midnightblue" d="M654.163,-118.939C658.651,-117.906 663.208,-116.898 667.551,-116 758.569,-97.183 786.208,-111.774 873.551,-80 891.89,-73.3284 894.073,-66.6822 911.551,-58 937.543,-45.0878 967.96,-32.4745 990.531,-23.5708"/>
<polygon fill="midnightblue" stroke="midnightblue" points="991.955,-26.772 999.996,-19.8728 989.408,-20.252 991.955,-26.772"/>
</g>
<!-- Node19 -->
<g id="node46" class="node"><title>Node19</title>
<polygon fill="white" stroke="#bfbfbf" points="596.551,-58.5 596.551,-79.5 660.551,-79.5 660.551,-58.5 596.551,-58.5"/>
<text text-anchor="middle" x="628.551" y="-66.5" font-family="Verdana" font-size="10.00">XmlSink.h</text>
</g>
<!-- Node18&#45;&gt;Node19 -->
<g id="edge54" class="edge"><title>Node18&#45;&gt;Node19</title>
<path fill="none" stroke="midnightblue" d="M622.835,-116.362C623.732,-108.922 624.961,-98.7427 626.049,-89.7276"/>
<polygon fill="midnightblue" stroke="midnightblue" points="629.551,-89.918 627.275,-79.5707 622.602,-89.0792 629.551,-89.918"/>
</g>
<!-- Node20 -->
<g id="node48" class="node"><title>Node20</title>
<polygon fill="white" stroke="#bfbfbf" points="678.051,-58.5 678.051,-79.5 755.051,-79.5 755.051,-58.5 678.051,-58.5"/>
<text text-anchor="middle" x="716.551" y="-66.5" font-family="Verdana" font-size="10.00">XmlSource.h</text>
</g>
<!-- Node18&#45;&gt;Node20 -->
<g id="edge56" class="edge"><title>Node18&#45;&gt;Node20</title>
<path fill="none" stroke="midnightblue" d="M638.975,-116.362C653.438,-107.532 674.22,-94.844 690.635,-84.8224"/>
<polygon fill="midnightblue" stroke="midnightblue" points="692.525,-87.7688 699.237,-79.5707 688.878,-81.7943 692.525,-87.7688"/>
</g>
<!-- Node21 -->
<g id="node50" class="node"><title>Node21</title>
<a xlink:href="PathNavigator_8h.html" target="_top" xlink:title="PathNavigator.h">
<polygon fill="white" stroke="black" points="772.551,-58.5 772.551,-79.5 864.551,-79.5 864.551,-58.5 772.551,-58.5"/>
<text text-anchor="middle" x="818.551" y="-66.5" font-family="Verdana" font-size="10.00">PathNavigator.h</text>
</a>
</g>
<!-- Node18&#45;&gt;Node21 -->
<g id="edge58" class="edge"><title>Node18&#45;&gt;Node21</title>
<path fill="none" stroke="midnightblue" d="M654.081,-117.422C686.446,-107.894 736.398,-93.1871 772.762,-82.4809"/>
<polygon fill="midnightblue" stroke="midnightblue" points="774.028,-85.7567 782.633,-79.5749 772.051,-79.0417 774.028,-85.7567"/>
</g>
<!-- Node21&#45;&gt;Node5 -->
<g id="edge64" class="edge"><title>Node21&#45;&gt;Node5</title>
<path fill="none" stroke="midnightblue" d="M772.402,-59.3762C769.413,-58.8748 766.443,-58.4099 763.551,-58 568.5,-30.3563 332.55,-17.0003 243.209,-12.6549"/>
<polygon fill="midnightblue" stroke="midnightblue" points="243.209,-9.15099 233.053,-12.1693 242.875,-16.143 243.209,-9.15099"/>
</g>
<!-- Node21&#45;&gt;Node7 -->
<g id="edge62" class="edge"><title>Node21&#45;&gt;Node7</title>
<path fill="none" stroke="midnightblue" d="M772.308,-59.0294C717.982,-47.3161 629.263,-28.1871 581.842,-17.9625"/>
<polygon fill="midnightblue" stroke="midnightblue" points="582.337,-14.4889 571.824,-15.8025 580.862,-21.3316 582.337,-14.4889"/>
</g>
<!-- Node21&#45;&gt;Node14 -->
<g id="edge60" class="edge"><title>Node21&#45;&gt;Node14</title>
<path fill="none" stroke="midnightblue" d="M855.675,-58.4966C893.959,-47.665 953.126,-30.9249 990.032,-20.4834"/>
<polygon fill="midnightblue" stroke="midnightblue" points="991.145,-23.8058 999.815,-17.7155 989.24,-17.0702 991.145,-23.8058"/>
</g>
<!-- Node22&#45;&gt;Node7 -->
<g id="edge74" class="edge"><title>Node22&#45;&gt;Node7</title>
<path fill="none" stroke="midnightblue" d="M463.488,-174.467C471.949,-152.284 493.018,-99.3874 516.551,-58 521.979,-48.4527 528.846,-38.4194 534.908,-30.0861"/>
<polygon fill="midnightblue" stroke="midnightblue" points="537.902,-31.9261 541.065,-21.8143 532.287,-27.7467 537.902,-31.9261"/>
</g>
<!-- Node22&#45;&gt;Node18 -->
<g id="edge72" class="edge"><title>Node22&#45;&gt;Node18</title>
<path fill="none" stroke="midnightblue" d="M488.888,-174.497C515.069,-165.123 553.611,-151.324 582.413,-141.012"/>
<polygon fill="midnightblue" stroke="midnightblue" points="583.924,-144.189 592.159,-137.523 581.564,-137.599 583.924,-144.189"/>
</g>
<!-- Node23&#45;&gt;Node7 -->
<g id="edge100" class="edge"><title>Node23&#45;&gt;Node7</title>
<path fill="none" stroke="midnightblue" d="M947.46,-290.349C970.714,-253.051 1041.31,-126.873 979.551,-58 953.06,-28.4567 677.214,-15.6593 581.806,-12.0942"/>
<polygon fill="midnightblue" stroke="midnightblue" points="581.725,-8.58901 571.604,-11.7227 581.47,-15.5844 581.725,-8.58901"/>
</g>
<!-- Node23&#45;&gt;Node11 -->
<g id="edge96" class="edge"><title>Node23&#45;&gt;Node11</title>
<path fill="none" stroke="midnightblue" d="M940.323,-290.429C939.552,-254.648 937.03,-137.663 935.998,-89.7481"/>
<polygon fill="midnightblue" stroke="midnightblue" points="939.495,-89.5557 935.78,-79.6335 932.496,-89.7066 939.495,-89.5557"/>
</g>
<!-- Node23&#45;&gt;Node14 -->
<g id="edge102" class="edge"><title>Node23&#45;&gt;Node14</title>
<path fill="none" stroke="midnightblue" d="M980.621,-296.169C1031.05,-289.295 1113.72,-275.136 1135.55,-254 1158.4,-231.873 1154.55,-216.808 1154.55,-185 1154.55,-185 1154.55,-185 1154.55,-127 1154.55,-74.7712 1095.46,-40.3747 1056.66,-23.4158"/>
<polygon fill="midnightblue" stroke="midnightblue" points="1057.85,-20.1213 1047.27,-19.4797 1055.14,-26.5761 1057.85,-20.1213"/>
</g>
<!-- Node23&#45;&gt;Node16 -->
<g id="edge84" class="edge"><title>Node23&#45;&gt;Node16</title>
<path fill="none" stroke="midnightblue" d="M911.757,-290.497C886.06,-281.123 848.233,-267.324 819.963,-257.012"/>
<polygon fill="midnightblue" stroke="midnightblue" points="820.992,-253.662 810.398,-253.523 818.593,-260.238 820.992,-253.662"/>
</g>
<!-- Node23&#45;&gt;Node17 -->
<g id="edge82" class="edge"><title>Node23&#45;&gt;Node17</title>
<path fill="none" stroke="midnightblue" d="M933.214,-290.434C923.044,-276.214 903.634,-250.561 883.551,-232 871.088,-220.482 855.67,-209.481 842.768,-201.021"/>
<polygon fill="midnightblue" stroke="midnightblue" points="844.612,-198.046 834.304,-195.596 840.834,-203.939 844.612,-198.046"/>
</g>
<!-- Node24 -->
<g id="node67" class="node"><title>Node24</title>
<a xlink:href="Mapper_8h.html" target="_top" xlink:title="Mapper.h">
<polygon fill="white" stroke="black" points="1006.05,-232.5 1006.05,-253.5 1067.05,-253.5 1067.05,-232.5 1006.05,-232.5"/>
<text text-anchor="middle" x="1036.55" y="-240.5" font-family="Verdana" font-size="10.00">Mapper.h</text>
</a>
</g>
<!-- Node23&#45;&gt;Node24 -->
<g id="edge86" class="edge"><title>Node23&#45;&gt;Node24</title>
<path fill="none" stroke="midnightblue" d="M958.159,-290.362C972.774,-281.532 993.774,-268.844 1010.36,-258.822"/>
<polygon fill="midnightblue" stroke="midnightblue" points="1012.31,-261.738 1019.05,-253.571 1008.69,-255.746 1012.31,-261.738"/>
</g>
<!-- Node25 -->
<g id="node70" class="node"><title>Node25</title>
<a xlink:href="MappingContext_8h.html" target="_top" xlink:title="MappingContext.h">
<polygon fill="white" stroke="black" points="234.551,-58.5 234.551,-79.5 338.551,-79.5 338.551,-58.5 234.551,-58.5"/>
<text text-anchor="middle" x="286.551" y="-66.5" font-family="Verdana" font-size="10.00">MappingContext.h</text>
</a>
</g>
<!-- Node23&#45;&gt;Node25 -->
<g id="edge90" class="edge"><title>Node23&#45;&gt;Node25</title>
<path fill="none" stroke="midnightblue" d="M900.392,-296.359C791.518,-283.267 493.162,-243.869 407.551,-196 359.311,-169.027 318.656,-116.471 299.076,-88.1604"/>
<polygon fill="midnightblue" stroke="midnightblue" points="301.764,-85.8858 293.264,-79.561 295.964,-89.8059 301.764,-85.8858"/>
</g>
<!-- Node26 -->
<g id="node75" class="node"><title>Node26</title>
<polygon fill="white" stroke="#bfbfbf" points="1084.55,-232.5 1084.55,-253.5 1126.55,-253.5 1126.55,-232.5 1084.55,-232.5"/>
<text text-anchor="middle" x="1105.55" y="-240.5" font-family="Verdana" font-size="10.00">stack</text>
</g>
<!-- Node23&#45;&gt;Node26 -->
<g id="edge98" class="edge"><title>Node23&#45;&gt;Node26</title>
<path fill="none" stroke="midnightblue" d="M971.431,-290.41C996.847,-281.659 1034.05,-268.77 1074.7,-254.271"/>
<polygon fill="midnightblue" stroke="midnightblue" points="1076.02,-257.516 1084.26,-250.855 1073.67,-250.924 1076.02,-257.516"/>
</g>
<!-- Node24&#45;&gt;Node7 -->
<g id="edge88" class="edge"><title>Node24&#45;&gt;Node7</title>
<path fill="none" stroke="midnightblue" d="M1040.36,-232.447C1050.93,-201.072 1076.91,-107.477 1030.55,-58 999.867,-25.2551 684.569,-14.416 581.766,-11.7378"/>
<polygon fill="midnightblue" stroke="midnightblue" points="581.758,-8.23653 571.673,-11.4835 581.581,-15.2343 581.758,-8.23653"/>
</g>
<!-- Node25&#45;&gt;Node5 -->
<g id="edge92" class="edge"><title>Node25&#45;&gt;Node5</title>
<path fill="none" stroke="midnightblue" d="M271.877,-58.3619C260.037,-49.7773 243.166,-37.5459 229.535,-27.6636"/>
<polygon fill="midnightblue" stroke="midnightblue" points="231.281,-24.6067 221.131,-21.5707 227.173,-30.274 231.281,-24.6067"/>
</g>
<!-- Node25&#45;&gt;Node7 -->
<g id="edge94" class="edge"><title>Node25&#45;&gt;Node7</title>
<path fill="none" stroke="midnightblue" d="M334.178,-58.4966C387.187,-46.8064 471.404,-28.234 517.241,-18.1253"/>
<polygon fill="midnightblue" stroke="midnightblue" points="518.21,-21.4959 527.221,-15.9243 516.702,-14.6601 518.21,-21.4959"/>
</g>
</g>
</svg>
