<?xml version="1.0" encoding="UTF-8" standalone="no"?>
<!DOCTYPE svg PUBLIC "-//W3C//DTD SVG 1.1//EN"
 "http://www.w3.org/Graphics/SVG/1.1/DTD/svg11.dtd">
<!-- Generated by graphviz version 2.26.3 (20100126.1600)
 -->
<!-- Title: parameter/BitwiseAreaConfiguration.h Pages: 1 -->
<svg width="388pt" height="88pt"
 viewBox="0.00 0.00 388.00 88.00" xmlns="http://www.w3.org/2000/svg" xmlns:xlink="http://www.w3.org/1999/xlink">
<g id="graph1" class="graph" transform="scale(1 1) rotate(0) translate(4 84)">
<title>parameter/BitwiseAreaConfiguration.h</title>
<polygon fill="white" stroke="white" points="-4,5 -4,-84 385,-84 385,5 -4,5"/>
<!-- Node1 -->
<g id="node1" class="node"><title>Node1</title>
<polygon fill="#bfbfbf" stroke="black" points="75.5,-58.5 75.5,-79.5 274.5,-79.5 274.5,-58.5 75.5,-58.5"/>
<text text-anchor="middle" x="175" y="-66.5" font-family="Verdana" font-size="10.00">parameter/BitwiseAreaConfiguration.h</text>
</g>
<!-- Node2 -->
<g id="node3" class="node"><title>Node2</title>
<a xlink:href="BitParameter_8cpp.html" target="_top" xlink:title="parameter/BitParameter.cpp">
<polygon fill="white" stroke="black" points="-0.5,-0.5 -0.5,-21.5 152.5,-21.5 152.5,-0.5 -0.5,-0.5"/>
<text text-anchor="middle" x="76" y="-8.5" font-family="Verdana" font-size="10.00">parameter/BitParameter.cpp</text>
</a>
</g>
<!-- Node1&#45;&gt;Node2 -->
<g id="edge2" class="edge"><title>Node1&#45;&gt;Node2</title>
<path fill="none" stroke="midnightblue" d="M147.862,-53.1009C130.733,-43.0658 109.081,-30.3808 94.043,-21.5707"/>
<polygon fill="midnightblue" stroke="midnightblue" points="146.444,-56.3268 156.842,-58.3619 149.983,-50.287 146.444,-56.3268"/>
</g>
<!-- Node3 -->
<g id="node5" class="node"><title>Node3</title>
<a xlink:href="BitwiseAreaConfiguration_8cpp.html" target="_top" xlink:title="parameter/BitwiseAreaConfiguration.cpp">
<polygon fill="white" stroke="black" points="170,-0.5 170,-21.5 380,-21.5 380,-0.5 170,-0.5"/>
<text text-anchor="middle" x="275" y="-8.5" font-family="Verdana" font-size="10.00">parameter/BitwiseAreaConfiguration.cpp</text>
</a>
</g>
<!-- Node1&#45;&gt;Node3 -->
<g id="edge4" class="edge"><title>Node1&#45;&gt;Node3</title>
<path fill="none" stroke="midnightblue" d="M202.412,-53.1009C219.714,-43.0658 241.585,-30.3808 256.775,-21.5707"/>
<polygon fill="midnightblue" stroke="midnightblue" points="200.236,-50.3171 193.342,-58.3619 203.748,-56.3723 200.236,-50.3171"/>
</g>
</g>
</svg>
