<?xml version="1.0" encoding="UTF-8" standalone="no"?>
<!DOCTYPE svg PUBLIC "-//W3C//DTD SVG 1.1//EN"
 "http://www.w3.org/Graphics/SVG/1.1/DTD/svg11.dtd">
<!-- Generated by graphviz version 2.26.3 (20100126.1600)
 -->
<!-- Title: parameter/BooleanParameterType.cpp Pages: 1 -->
<svg width="747pt" height="392pt"
 viewBox="0.00 0.00 746.75 392.00" xmlns="http://www.w3.org/2000/svg" xmlns:xlink="http://www.w3.org/1999/xlink">
<g id="graph1" class="graph" transform="scale(1 1) rotate(0) translate(4 388)">
<title>parameter/BooleanParameterType.cpp</title>
<polygon fill="white" stroke="white" points="-4,5 -4,-388 743.753,-388 743.753,5 -4,5"/>
<!-- Node1 -->
<g id="node1" class="node"><title>Node1</title>
<polygon fill="#bfbfbf" stroke="black" points="45,-349 45,-383 205,-383 205,-349 45,-349"/>
<text text-anchor="start" x="53" y="-370" font-family="Verdana" font-size="10.00">parameter/BooleanParameter</text>
<text text-anchor="middle" x="125" y="-357" font-family="Verdana" font-size="10.00">Type.cpp</text>
</g>
<!-- Node2 -->
<g id="node3" class="node"><title>Node2</title>
<a xlink:href="BooleanParameterType_8h.html" target="_top" xlink:title="BooleanParameterType.h">
<polygon fill="white" stroke="black" points="106,-290.5 106,-311.5 242,-311.5 242,-290.5 106,-290.5"/>
<text text-anchor="middle" x="174" y="-298.5" font-family="Verdana" font-size="10.00">BooleanParameterType.h</text>
</a>
</g>
<!-- Node1&#45;&gt;Node2 -->
<g id="edge2" class="edge"><title>Node1&#45;&gt;Node2</title>
<path fill="none" stroke="midnightblue" d="M137.874,-348.922C144.578,-340.029 152.795,-329.13 159.697,-319.974"/>
<polygon fill="midnightblue" stroke="midnightblue" points="162.594,-321.944 165.819,-311.852 157.005,-317.73 162.594,-321.944"/>
</g>
<!-- Node14 -->
<g id="node34" class="node"><title>Node14</title>
<a xlink:href="ParameterAccessContext_8h.html" target="_top" xlink:title="ParameterAccessContext.h">
<polygon fill="white" stroke="black" points="-0.5,-116.5 -0.5,-137.5 146.5,-137.5 146.5,-116.5 -0.5,-116.5"/>
<text text-anchor="middle" x="73" y="-124.5" font-family="Verdana" font-size="10.00">ParameterAccessContext.h</text>
</a>
</g>
<!-- Node1&#45;&gt;Node14 -->
<g id="edge40" class="edge"><title>Node1&#45;&gt;Node14</title>
<path fill="none" stroke="midnightblue" d="M114.032,-348.674C108.042,-338.399 101.042,-324.899 97,-312 78.9884,-254.524 74.4803,-182.921 73.3618,-148.051"/>
<polygon fill="midnightblue" stroke="midnightblue" points="76.8519,-147.615 73.0978,-137.707 69.8542,-147.793 76.8519,-147.615"/>
</g>
<!-- Node3 -->
<g id="node5" class="node"><title>Node3</title>
<a xlink:href="ParameterType_8h.html" target="_top" xlink:title="ParameterType.h">
<polygon fill="white" stroke="black" points="234.5,-232.5 234.5,-253.5 331.5,-253.5 331.5,-232.5 234.5,-232.5"/>
<text text-anchor="middle" x="283" y="-240.5" font-family="Verdana" font-size="10.00">ParameterType.h</text>
</a>
</g>
<!-- Node2&#45;&gt;Node3 -->
<g id="edge4" class="edge"><title>Node2&#45;&gt;Node3</title>
<path fill="none" stroke="midnightblue" d="M193.739,-290.497C210.61,-281.519 235.109,-268.484 254.174,-258.339"/>
<polygon fill="midnightblue" stroke="midnightblue" points="255.856,-261.409 263.039,-253.621 252.567,-255.229 255.856,-261.409"/>
</g>
<!-- Node8 -->
<g id="node15" class="node"><title>Node8</title>
<polygon fill="white" stroke="#bfbfbf" points="190,-0.5 190,-21.5 234,-21.5 234,-0.5 190,-0.5"/>
<text text-anchor="middle" x="212" y="-8.5" font-family="Verdana" font-size="10.00">string</text>
</g>
<!-- Node2&#45;&gt;Node8 -->
<g id="edge38" class="edge"><title>Node2&#45;&gt;Node8</title>
<path fill="none" stroke="midnightblue" d="M174,-290.444C174,-270.062 174,-223.868 174,-185 174,-185 174,-185 174,-127 174,-91.7411 190.051,-53.3154 201.289,-30.7323"/>
<polygon fill="midnightblue" stroke="midnightblue" points="204.418,-32.3005 205.895,-21.809 198.198,-29.0901 204.418,-32.3005"/>
</g>
<!-- Node4 -->
<g id="node7" class="node"><title>Node4</title>
<polygon fill="white" stroke="#bfbfbf" points="578.5,-0.5 578.5,-21.5 631.5,-21.5 631.5,-0.5 578.5,-0.5"/>
<text text-anchor="middle" x="605" y="-8.5" font-family="Verdana" font-size="10.00">stdint.h</text>
</g>
<!-- Node3&#45;&gt;Node4 -->
<g id="edge6" class="edge"><title>Node3&#45;&gt;Node4</title>
<path fill="none" stroke="midnightblue" d="M331.728,-232.69C438.087,-209.097 685.347,-147.943 733,-80 758.606,-43.4909 687.934,-24.5134 641.658,-16.2559"/>
<polygon fill="midnightblue" stroke="midnightblue" points="642.072,-12.7764 631.629,-14.5634 640.907,-19.6788 642.072,-12.7764"/>
</g>
<!-- Node5 -->
<g id="node9" class="node"><title>Node5</title>
<polygon fill="white" stroke="#bfbfbf" points="344,-174.5 344,-195.5 386,-195.5 386,-174.5 344,-174.5"/>
<text text-anchor="middle" x="365" y="-182.5" font-family="Verdana" font-size="10.00">limits</text>
</g>
<!-- Node3&#45;&gt;Node5 -->
<g id="edge8" class="edge"><title>Node3&#45;&gt;Node5</title>
<path fill="none" stroke="midnightblue" d="M298.04,-232.362C310.293,-223.696 327.799,-211.313 341.839,-201.382"/>
<polygon fill="midnightblue" stroke="midnightblue" points="343.912,-204.203 350.055,-195.571 339.87,-198.488 343.912,-204.203"/>
</g>
<!-- Node6 -->
<g id="node11" class="node"><title>Node6</title>
<a xlink:href="TypeElement_8h.html" target="_top" xlink:title="TypeElement.h">
<polygon fill="white" stroke="black" points="240,-174.5 240,-195.5 326,-195.5 326,-174.5 240,-174.5"/>
<text text-anchor="middle" x="283" y="-182.5" font-family="Verdana" font-size="10.00">TypeElement.h</text>
</a>
</g>
<!-- Node3&#45;&gt;Node6 -->
<g id="edge10" class="edge"><title>Node3&#45;&gt;Node6</title>
<path fill="none" stroke="midnightblue" d="M283,-232.362C283,-224.922 283,-214.743 283,-205.728"/>
<polygon fill="midnightblue" stroke="midnightblue" points="286.5,-205.571 283,-195.571 279.5,-205.571 286.5,-205.571"/>
</g>
<!-- Node3&#45;&gt;Node8 -->
<g id="edge36" class="edge"><title>Node3&#45;&gt;Node8</title>
<path fill="none" stroke="midnightblue" d="M265.643,-232.333C253.744,-224.008 238.757,-211.305 231,-196 203.604,-141.948 206.166,-67.7123 209.484,-31.9426"/>
<polygon fill="midnightblue" stroke="midnightblue" points="212.991,-32.0651 210.551,-21.7549 206.029,-31.336 212.991,-32.0651"/>
</g>
<!-- Node7 -->
<g id="node13" class="node"><title>Node7</title>
<a xlink:href="Element_8h.html" target="_top" xlink:title="Element.h">
<polygon fill="white" stroke="black" points="434.5,-116.5 434.5,-137.5 499.5,-137.5 499.5,-116.5 434.5,-116.5"/>
<text text-anchor="middle" x="467" y="-124.5" font-family="Verdana" font-size="10.00">Element.h</text>
</a>
</g>
<!-- Node6&#45;&gt;Node7 -->
<g id="edge12" class="edge"><title>Node6&#45;&gt;Node7</title>
<path fill="none" stroke="midnightblue" d="M316.321,-174.497C346.636,-164.941 391.538,-150.787 424.44,-140.416"/>
<polygon fill="midnightblue" stroke="midnightblue" points="425.751,-143.672 434.236,-137.328 423.647,-136.996 425.751,-143.672"/>
</g>
<!-- Node6&#45;&gt;Node8 -->
<g id="edge34" class="edge"><title>Node6&#45;&gt;Node8</title>
<path fill="none" stroke="midnightblue" d="M278.666,-174.377C267.107,-146.051 235.401,-68.3488 220.26,-31.2424"/>
<polygon fill="midnightblue" stroke="midnightblue" points="223.478,-29.8642 216.459,-21.9277 216.997,-32.5089 223.478,-29.8642"/>
</g>
<!-- Node7&#45;&gt;Node4 -->
<g id="edge18" class="edge"><title>Node7&#45;&gt;Node4</title>
<path fill="none" stroke="midnightblue" d="M499.55,-125.844C560.849,-122.91 689.72,-112.886 717,-80 742.055,-49.7957 683.015,-29.0519 641.485,-18.6766"/>
<polygon fill="midnightblue" stroke="midnightblue" points="642.165,-15.2408 631.626,-16.3221 640.539,-22.0493 642.165,-15.2408"/>
</g>
<!-- Node7&#45;&gt;Node8 -->
<g id="edge14" class="edge"><title>Node7&#45;&gt;Node8</title>
<path fill="none" stroke="midnightblue" d="M434.39,-117.092C407.299,-108.46 367.997,-94.9993 335,-80 300.016,-64.0975 261.696,-41.759 237.28,-26.8534"/>
<polygon fill="midnightblue" stroke="midnightblue" points="238.99,-23.7958 228.639,-21.5336 235.32,-29.7567 238.99,-23.7958"/>
</g>
<!-- Node9 -->
<g id="node17" class="node"><title>Node9</title>
<polygon fill="white" stroke="#bfbfbf" points="339.5,-0.5 339.5,-21.5 386.5,-21.5 386.5,-0.5 339.5,-0.5"/>
<text text-anchor="middle" x="363" y="-8.5" font-family="Verdana" font-size="10.00">vector</text>
</g>
<!-- Node7&#45;&gt;Node9 -->
<g id="edge16" class="edge"><title>Node7&#45;&gt;Node9</title>
<path fill="none" stroke="midnightblue" d="M434.241,-118.856C401.781,-110.044 355.437,-95.2049 345,-80 334.885,-65.2637 341.904,-45.203 349.948,-30.5105"/>
<polygon fill="midnightblue" stroke="midnightblue" points="353.067,-32.1157 355.213,-21.7405 347.065,-28.513 353.067,-32.1157"/>
</g>
<!-- Node10 -->
<g id="node20" class="node"><title>Node10</title>
<polygon fill="white" stroke="#bfbfbf" points="678,-58.5 678,-79.5 708,-79.5 708,-58.5 678,-58.5"/>
<text text-anchor="middle" x="693" y="-66.5" font-family="Verdana" font-size="10.00">list</text>
</g>
<!-- Node7&#45;&gt;Node10 -->
<g id="edge20" class="edge"><title>Node7&#45;&gt;Node10</title>
<path fill="none" stroke="midnightblue" d="M499.75,-121.479C538.285,-114.53 604.187,-101.228 668.481,-79.6913"/>
<polygon fill="midnightblue" stroke="midnightblue" points="669.622,-83.0003 677.952,-76.4538 667.358,-76.3766 669.622,-83.0003"/>
</g>
<!-- Node11 -->
<g id="node22" class="node"><title>Node11</title>
<polygon fill="white" stroke="#bfbfbf" points="502,-58.5 502,-79.5 566,-79.5 566,-58.5 502,-58.5"/>
<text text-anchor="middle" x="534" y="-66.5" font-family="Verdana" font-size="10.00">XmlSink.h</text>
</g>
<!-- Node7&#45;&gt;Node11 -->
<g id="edge22" class="edge"><title>Node7&#45;&gt;Node11</title>
<path fill="none" stroke="midnightblue" d="M479.289,-116.362C489.017,-107.941 502.798,-96.0105 514.095,-86.2308"/>
<polygon fill="midnightblue" stroke="midnightblue" points="516.519,-88.7619 521.789,-79.5707 511.938,-83.4695 516.519,-88.7619"/>
</g>
<!-- Node12 -->
<g id="node24" class="node"><title>Node12</title>
<polygon fill="white" stroke="#bfbfbf" points="583.5,-58.5 583.5,-79.5 660.5,-79.5 660.5,-58.5 583.5,-58.5"/>
<text text-anchor="middle" x="622" y="-66.5" font-family="Verdana" font-size="10.00">XmlSource.h</text>
</g>
<!-- Node7&#45;&gt;Node12 -->
<g id="edge24" class="edge"><title>Node7&#45;&gt;Node12</title>
<path fill="none" stroke="midnightblue" d="M495.069,-116.497C520.01,-107.164 556.674,-93.4447 584.192,-83.1475"/>
<polygon fill="midnightblue" stroke="midnightblue" points="585.739,-86.3058 593.878,-79.5231 583.286,-79.7497 585.739,-86.3058"/>
</g>
<!-- Node13 -->
<g id="node26" class="node"><title>Node13</title>
<a xlink:href="PathNavigator_8h.html" target="_top" xlink:title="PathNavigator.h">
<polygon fill="white" stroke="black" points="354,-58.5 354,-79.5 446,-79.5 446,-58.5 354,-58.5"/>
<text text-anchor="middle" x="400" y="-66.5" font-family="Verdana" font-size="10.00">PathNavigator.h</text>
</a>
</g>
<!-- Node7&#45;&gt;Node13 -->
<g id="edge26" class="edge"><title>Node7&#45;&gt;Node13</title>
<path fill="none" stroke="midnightblue" d="M454.711,-116.362C444.983,-107.941 431.202,-96.0105 419.905,-86.2308"/>
<polygon fill="midnightblue" stroke="midnightblue" points="422.062,-83.4695 412.211,-79.5707 417.481,-88.7619 422.062,-83.4695"/>
</g>
<!-- Node13&#45;&gt;Node4 -->
<g id="edge32" class="edge"><title>Node13&#45;&gt;Node4</title>
<path fill="none" stroke="midnightblue" d="M437.124,-58.4966C474.353,-47.9634 531.332,-31.8428 568.381,-21.3604"/>
<polygon fill="midnightblue" stroke="midnightblue" points="569.6,-24.653 578.27,-18.5627 567.695,-17.9174 569.6,-24.653"/>
</g>
<!-- Node13&#45;&gt;Node8 -->
<g id="edge30" class="edge"><title>Node13&#45;&gt;Node8</title>
<path fill="none" stroke="midnightblue" d="M365.955,-58.4966C331.241,-47.7872 277.806,-31.3018 243.892,-20.8391"/>
<polygon fill="midnightblue" stroke="midnightblue" points="244.624,-17.4021 234.036,-17.7985 242.56,-24.091 244.624,-17.4021"/>
</g>
<!-- Node13&#45;&gt;Node9 -->
<g id="edge28" class="edge"><title>Node13&#45;&gt;Node9</title>
<path fill="none" stroke="midnightblue" d="M393.214,-58.3619C388.207,-50.5131 381.255,-39.6159 375.282,-30.2527"/>
<polygon fill="midnightblue" stroke="midnightblue" points="378.072,-28.1189 369.743,-21.5707 372.171,-31.8837 378.072,-28.1189"/>
</g>
<!-- Node14&#45;&gt;Node4 -->
<g id="edge42" class="edge"><title>Node14&#45;&gt;Node4</title>
<path fill="none" stroke="midnightblue" d="M146.88,-121.446C241.413,-113.728 399.568,-98.5919 455,-80 473.502,-73.7944 475.523,-66.6822 493,-58 517.841,-45.6599 546.723,-33.5927 568.935,-24.7758"/>
<polygon fill="midnightblue" stroke="midnightblue" points="570.297,-28.001 578.323,-21.0847 567.736,-21.4864 570.297,-28.001"/>
</g>
<!-- Node14&#45;&gt;Node8 -->
<g id="edge48" class="edge"><title>Node14&#45;&gt;Node8</title>
<path fill="none" stroke="midnightblue" d="M64.0082,-116.184C53.1014,-101.679 37.7247,-75.7048 51,-58 66.4592,-37.3826 137.506,-22.8072 179.883,-15.7748"/>
<polygon fill="midnightblue" stroke="midnightblue" points="180.67,-19.1933 189.988,-14.1504 179.559,-12.282 180.67,-19.1933"/>
</g>
<!-- Node15 -->
<g id="node37" class="node"><title>Node15</title>
<a xlink:href="ErrorContext_8h.html" target="_top" xlink:title="ErrorContext.h">
<polygon fill="white" stroke="black" points="60,-58.5 60,-79.5 146,-79.5 146,-58.5 60,-58.5"/>
<text text-anchor="middle" x="103" y="-66.5" font-family="Verdana" font-size="10.00">ErrorContext.h</text>
</a>
</g>
<!-- Node14&#45;&gt;Node15 -->
<g id="edge44" class="edge"><title>Node14&#45;&gt;Node15</title>
<path fill="none" stroke="midnightblue" d="M78.5025,-116.362C82.5199,-108.595 88.0814,-97.8426 92.8901,-88.5458"/>
<polygon fill="midnightblue" stroke="midnightblue" points="96.0469,-90.0608 97.5324,-79.5707 89.8294,-86.8448 96.0469,-90.0608"/>
</g>
<!-- Node15&#45;&gt;Node8 -->
<g id="edge46" class="edge"><title>Node15&#45;&gt;Node8</title>
<path fill="none" stroke="midnightblue" d="M122.739,-58.4966C139.61,-49.5194 164.109,-36.4835 183.174,-26.3387"/>
<polygon fill="midnightblue" stroke="midnightblue" points="184.856,-29.4086 192.039,-21.6212 181.567,-23.2289 184.856,-29.4086"/>
</g>
</g>
</svg>
