<?xml version="1.0" encoding="UTF-8" standalone="no"?>
<!DOCTYPE svg PUBLIC "-//W3C//DTD SVG 1.1//EN"
 "http://www.w3.org/Graphics/SVG/1.1/DTD/svg11.dtd">
<!-- Generated by graphviz version 2.26.3 (20100126.1600)
 -->
<!-- Title: parameter/BooleanParameterType.h Pages: 1 -->
<svg width="344pt" height="116pt"
 viewBox="0.00 0.00 344.00 116.00" xmlns="http://www.w3.org/2000/svg" xmlns:xlink="http://www.w3.org/1999/xlink">
<g id="graph1" class="graph" transform="scale(1 1) rotate(0) translate(4 112)">
<title>parameter/BooleanParameterType.h</title>
<polygon fill="white" stroke="white" points="-4,5 -4,-112 341,-112 341,5 -4,5"/>
<!-- Node1 -->
<g id="node1" class="node"><title>Node1</title>
<polygon fill="#bfbfbf" stroke="black" points="88,-73 88,-107 248,-107 248,-73 88,-73"/>
<text text-anchor="start" x="96" y="-94" font-family="Verdana" font-size="10.00">parameter/BooleanParameter</text>
<text text-anchor="middle" x="168" y="-81" font-family="Verdana" font-size="10.00">Type.h</text>
</g>
<!-- Node2 -->
<g id="node3" class="node"><title>Node2</title>
<a xlink:href="BooleanParameterType_8cpp.html" target="_top" xlink:title="parameter/BooleanParameter\lType.cpp">
<polygon fill="white" stroke="black" points="0,-1 0,-35 160,-35 160,-1 0,-1"/>
<text text-anchor="start" x="8" y="-22" font-family="Verdana" font-size="10.00">parameter/BooleanParameter</text>
<text text-anchor="middle" x="80" y="-9" font-family="Verdana" font-size="10.00">Type.cpp</text>
</a>
</g>
<!-- Node1&#45;&gt;Node2 -->
<g id="edge2" class="edge"><title>Node1&#45;&gt;Node2</title>
<path fill="none" stroke="midnightblue" d="M139.269,-66.493C126.799,-56.2899 112.46,-44.5583 101.01,-35.19"/>
<polygon fill="midnightblue" stroke="midnightblue" points="137.189,-69.3134 147.145,-72.937 141.622,-63.8957 137.189,-69.3134"/>
</g>
<!-- Node3 -->
<g id="node5" class="node"><title>Node3</title>
<a xlink:href="ParameterMgr_8cpp.html" target="_top" xlink:title="parameter/ParameterMgr.cpp">
<polygon fill="white" stroke="black" points="178,-7.5 178,-28.5 336,-28.5 336,-7.5 178,-7.5"/>
<text text-anchor="middle" x="257" y="-15.5" font-family="Verdana" font-size="10.00">parameter/ParameterMgr.cpp</text>
</a>
</g>
<!-- Node1&#45;&gt;Node3 -->
<g id="edge4" class="edge"><title>Node1&#45;&gt;Node3</title>
<path fill="none" stroke="midnightblue" d="M197.015,-66.527C212.778,-53.7747 231.503,-38.6265 243.788,-28.688"/>
<polygon fill="midnightblue" stroke="midnightblue" points="194.665,-63.9264 189.092,-72.937 199.068,-69.3686 194.665,-63.9264"/>
</g>
</g>
</svg>
