<?xml version="1.0" encoding="UTF-8" standalone="no"?>
<!DOCTYPE svg PUBLIC "-//W3C//DTD SVG 1.1//EN"
 "http://www.w3.org/Graphics/SVG/1.1/DTD/svg11.dtd">
<!-- Generated by graphviz version 2.26.3 (20100126.1600)
 -->
<!-- Title: CErrorContext::setError Pages: 1 -->
<svg width="768pt" height="1054pt"
 viewBox="0.00 0.00 768.00 1054.00" xmlns="http://www.w3.org/2000/svg" xmlns:xlink="http://www.w3.org/1999/xlink">
<g id="graph1" class="graph" transform="scale(1 1) rotate(0) translate(4 1050)">
<title>CErrorContext::setError</title>
<polygon fill="white" stroke="white" points="-4,5 -4,-1050 765,-1050 765,5 -4,5"/>
<!-- Node1 -->
<g id="node1" class="node"><title>Node1</title>
<polygon fill="#bfbfbf" stroke="black" points="0,-512.5 0,-533.5 128,-533.5 128,-512.5 0,-512.5"/>
<text text-anchor="middle" x="64" y="-520.5" font-family="Verdana" font-size="10.00">CErrorContext::setError</text>
</g>
<!-- Node2 -->
<g id="node3" class="node"><title>Node2</title>
<a xlink:href="classCBaseParameter.html#ad6c3b121c92cabe717272fba5ccb6956" target="_top" xlink:title="Value access. ">
<polygon fill="white" stroke="black" points="177.5,-1012 177.5,-1046 326.5,-1046 326.5,-1012 177.5,-1012"/>
<text text-anchor="start" x="185.5" y="-1033" font-family="Verdana" font-size="10.00">CBaseParameter::accessAs</text>
<text text-anchor="middle" x="252" y="-1020" font-family="Verdana" font-size="10.00">Boolean</text>
</a>
</g>
<!-- Node1&#45;&gt;Node2 -->
<g id="edge2" class="edge"><title>Node1&#45;&gt;Node2</title>
<path fill="none" stroke="midnightblue" d="M65.5361,-543.754C72.0863,-626.783 100.311,-933.87 164,-1003 167.886,-1007.22 172.419,-1010.76 177.341,-1013.74"/>
<polygon fill="midnightblue" stroke="midnightblue" points="69.0248,-543.473 64.7688,-533.77 62.0454,-544.009 69.0248,-543.473"/>
</g>
<!-- Node3 -->
<g id="node5" class="node"><title>Node3</title>
<a xlink:href="classCBaseParameter.html#abdb59be3eb6674e99c37360f2bde79dd" target="_top" xlink:title="CBaseParameter::accessAs\lBooleanArray">
<polygon fill="white" stroke="black" points="177.5,-960 177.5,-994 326.5,-994 326.5,-960 177.5,-960"/>
<text text-anchor="start" x="185.5" y="-981" font-family="Verdana" font-size="10.00">CBaseParameter::accessAs</text>
<text text-anchor="middle" x="252" y="-968" font-family="Verdana" font-size="10.00">BooleanArray</text>
</a>
</g>
<!-- Node1&#45;&gt;Node3 -->
<g id="edge4" class="edge"><title>Node1&#45;&gt;Node3</title>
<path fill="none" stroke="midnightblue" d="M66.1486,-544.178C74.4481,-621.952 106.832,-890.432 164,-951 167.937,-955.171 172.506,-958.683 177.453,-961.638"/>
<polygon fill="midnightblue" stroke="midnightblue" points="69.5806,-543.344 65.0607,-533.762 62.6185,-544.072 69.5806,-543.344"/>
</g>
<!-- Node4 -->
<g id="node7" class="node"><title>Node4</title>
<a xlink:href="classCBaseParameter.html#a8386194eb61f9dcdf1fee382f4517dd2" target="_top" xlink:title="CBaseParameter::accessAs\lInteger">
<polygon fill="white" stroke="black" points="177.5,-908 177.5,-942 326.5,-942 326.5,-908 177.5,-908"/>
<text text-anchor="start" x="185.5" y="-929" font-family="Verdana" font-size="10.00">CBaseParameter::accessAs</text>
<text text-anchor="middle" x="252" y="-916" font-family="Verdana" font-size="10.00">Integer</text>
</a>
</g>
<!-- Node1&#45;&gt;Node4 -->
<g id="edge6" class="edge"><title>Node1&#45;&gt;Node4</title>
<path fill="none" stroke="midnightblue" d="M66.8384,-543.864C76.9183,-615.032 113.132,-846.721 164,-899 167.888,-902.996 172.358,-906.386 177.178,-909.26"/>
<polygon fill="midnightblue" stroke="midnightblue" points="70.2452,-542.952 65.3999,-533.53 63.3121,-543.917 70.2452,-542.952"/>
</g>
<!-- Node5 -->
<g id="node9" class="node"><title>Node5</title>
<a xlink:href="classCBaseParameter.html#af569644b1f1e795de4e98bef7a4c484a" target="_top" xlink:title="CBaseParameter::accessAs\lIntegerArray">
<polygon fill="white" stroke="black" points="177.5,-856 177.5,-890 326.5,-890 326.5,-856 177.5,-856"/>
<text text-anchor="start" x="185.5" y="-877" font-family="Verdana" font-size="10.00">CBaseParameter::accessAs</text>
<text text-anchor="middle" x="252" y="-864" font-family="Verdana" font-size="10.00">IntegerArray</text>
</a>
</g>
<!-- Node1&#45;&gt;Node5 -->
<g id="edge8" class="edge"><title>Node1&#45;&gt;Node5</title>
<path fill="none" stroke="midnightblue" d="M67.7878,-543.87C79.8913,-608.399 119.458,-802.993 164,-847 167.966,-850.919 172.493,-854.252 177.353,-857.086"/>
<polygon fill="midnightblue" stroke="midnightblue" points="71.1698,-542.911 65.9095,-533.715 64.2866,-544.184 71.1698,-542.911"/>
</g>
<!-- Node6 -->
<g id="node11" class="node"><title>Node6</title>
<a xlink:href="classCBaseParameter.html#a231e9def106391b96fb0671f4214f105" target="_top" xlink:title="CBaseParameter::accessAs\lSignedInteger">
<polygon fill="white" stroke="black" points="177.5,-804 177.5,-838 326.5,-838 326.5,-804 177.5,-804"/>
<text text-anchor="start" x="185.5" y="-825" font-family="Verdana" font-size="10.00">CBaseParameter::accessAs</text>
<text text-anchor="middle" x="252" y="-812" font-family="Verdana" font-size="10.00">SignedInteger</text>
</a>
</g>
<!-- Node1&#45;&gt;Node6 -->
<g id="edge10" class="edge"><title>Node1&#45;&gt;Node6</title>
<path fill="none" stroke="midnightblue" d="M65.4585,-543.718C70.1468,-594.279 89.2497,-724.959 164,-795 167.952,-798.703 172.407,-801.882 177.161,-804.609"/>
<polygon fill="midnightblue" stroke="midnightblue" points="68.9407,-543.358 64.6242,-533.682 61.9647,-543.938 68.9407,-543.358"/>
</g>
<!-- Node7 -->
<g id="node13" class="node"><title>Node7</title>
<a xlink:href="classCBaseParameter.html#a4fb0984d60996ba29e646b9080aee070" target="_top" xlink:title="CBaseParameter::accessAs\lSignedIntegerArray">
<polygon fill="white" stroke="black" points="177.5,-752 177.5,-786 326.5,-786 326.5,-752 177.5,-752"/>
<text text-anchor="start" x="185.5" y="-773" font-family="Verdana" font-size="10.00">CBaseParameter::accessAs</text>
<text text-anchor="middle" x="252" y="-760" font-family="Verdana" font-size="10.00">SignedIntegerArray</text>
</a>
</g>
<!-- Node1&#45;&gt;Node7 -->
<g id="edge12" class="edge"><title>Node1&#45;&gt;Node7</title>
<path fill="none" stroke="midnightblue" d="M67.4475,-543.51C75.8305,-586.919 101.382,-688.551 164,-743 168.087,-746.554 172.641,-749.623 177.466,-752.272"/>
<polygon fill="midnightblue" stroke="midnightblue" points="70.8718,-542.777 65.6355,-533.567 63.9852,-544.032 70.8718,-542.777"/>
</g>
<!-- Node8 -->
<g id="node15" class="node"><title>Node8</title>
<a xlink:href="classCBaseParameter.html#a6082bac12d32dbf326cb7799ad7596d6" target="_top" xlink:title="CBaseParameter::accessAs\lDouble">
<polygon fill="white" stroke="black" points="177.5,-700 177.5,-734 326.5,-734 326.5,-700 177.5,-700"/>
<text text-anchor="start" x="185.5" y="-721" font-family="Verdana" font-size="10.00">CBaseParameter::accessAs</text>
<text text-anchor="middle" x="252" y="-708" font-family="Verdana" font-size="10.00">Double</text>
</a>
</g>
<!-- Node1&#45;&gt;Node8 -->
<g id="edge14" class="edge"><title>Node1&#45;&gt;Node8</title>
<path fill="none" stroke="midnightblue" d="M70.4744,-543.183C82.8482,-578.513 113.235,-651.553 164,-691 168.403,-694.421 173.247,-697.393 178.329,-699.974"/>
<polygon fill="midnightblue" stroke="midnightblue" points="73.7233,-541.864 67.2099,-533.507 67.0907,-544.102 73.7233,-541.864"/>
</g>
<!-- Node9 -->
<g id="node17" class="node"><title>Node9</title>
<a xlink:href="classCBaseParameter.html#a3cadd88844f27bfeb36c1c410e5a3c4c" target="_top" xlink:title="CBaseParameter::accessAs\lDoubleArray">
<polygon fill="white" stroke="black" points="177.5,-648 177.5,-682 326.5,-682 326.5,-648 177.5,-648"/>
<text text-anchor="start" x="185.5" y="-669" font-family="Verdana" font-size="10.00">CBaseParameter::accessAs</text>
<text text-anchor="middle" x="252" y="-656" font-family="Verdana" font-size="10.00">DoubleArray</text>
</a>
</g>
<!-- Node1&#45;&gt;Node9 -->
<g id="edge16" class="edge"><title>Node1&#45;&gt;Node9</title>
<path fill="none" stroke="midnightblue" d="M76.7093,-542.249C93.8235,-566.779 126.494,-608.991 164,-634 172.221,-639.482 181.52,-644.111 190.918,-647.983"/>
<polygon fill="midnightblue" stroke="midnightblue" points="79.4619,-540.073 70.9342,-533.786 73.6798,-544.019 79.4619,-540.073"/>
</g>
<!-- Node10 -->
<g id="node19" class="node"><title>Node10</title>
<a xlink:href="classCBitParameter.html#a2e0ed93baec3479a9b92314818433a31" target="_top" xlink:title="Value access. ">
<polygon fill="white" stroke="black" points="584,-435.5 584,-456.5 760,-456.5 760,-435.5 584,-435.5"/>
<text text-anchor="middle" x="672" y="-443.5" font-family="Verdana" font-size="10.00">CBitParameter::accessAsBoolean</text>
</a>
</g>
<!-- Node1&#45;&gt;Node10 -->
<g id="edge18" class="edge"><title>Node1&#45;&gt;Node10</title>
<path fill="none" stroke="midnightblue" d="M80.0663,-541.257C98.2254,-560.374 129.749,-589.222 164,-601 237.971,-626.437 263.636,-617.948 340,-601 470.1,-572.126 609.607,-486.705 655.995,-456.626"/>
<polygon fill="midnightblue" stroke="midnightblue" points="82.4851,-538.716 73.1331,-533.737 77.3388,-543.462 82.4851,-538.716"/>
</g>
<!-- Node11 -->
<g id="node21" class="node"><title>Node11</title>
<a xlink:href="classCBitParameterType.html#a0398ded8b86ec6471305ac9cafa1b378" target="_top" xlink:title="Conversion. ">
<polygon fill="white" stroke="black" points="195.5,-558 195.5,-592 308.5,-592 308.5,-558 195.5,-558"/>
<text text-anchor="start" x="203.5" y="-579" font-family="Verdana" font-size="10.00">CBitParameterType::</text>
<text text-anchor="middle" x="252" y="-566" font-family="Verdana" font-size="10.00">toBlackboard</text>
</a>
</g>
<!-- Node1&#45;&gt;Node11 -->
<g id="edge20" class="edge"><title>Node1&#45;&gt;Node11</title>
<path fill="none" stroke="midnightblue" d="M111.843,-536.233C137.31,-543.277 168.789,-551.984 195.458,-559.361"/>
<polygon fill="midnightblue" stroke="midnightblue" points="112.616,-532.816 102.045,-533.523 110.75,-539.562 112.616,-532.816"/>
</g>
<!-- Node12 -->
<g id="node23" class="node"><title>Node12</title>
<a xlink:href="classCBooleanParameterType.html#a3984c73c19bf9ba8511152983b60f834" target="_top" xlink:title="Conversion. ">
<polygon fill="white" stroke="black" points="185,-506 185,-540 319,-540 319,-506 185,-506"/>
<text text-anchor="start" x="193" y="-527" font-family="Verdana" font-size="10.00">CBooleanParameterType</text>
<text text-anchor="middle" x="252" y="-514" font-family="Verdana" font-size="10.00">::toBlackboard</text>
</a>
</g>
<!-- Node1&#45;&gt;Node12 -->
<g id="edge22" class="edge"><title>Node1&#45;&gt;Node12</title>
<path fill="none" stroke="midnightblue" d="M138.18,-523C153.6,-523 169.765,-523 184.911,-523"/>
<polygon fill="midnightblue" stroke="midnightblue" points="138.173,-519.5 128.173,-523 138.173,-526.5 138.173,-519.5"/>
</g>
<!-- Node13 -->
<g id="node25" class="node"><title>Node13</title>
<a xlink:href="classCConfigurableElement.html#a0e3feb8a7b18a3291ec960c9726b4eaf" target="_top" xlink:title="CConfigurableElement\l::serializeXmlSettings">
<polygon fill="white" stroke="black" points="190.5,-436 190.5,-470 313.5,-470 313.5,-436 190.5,-436"/>
<text text-anchor="start" x="198.5" y="-457" font-family="Verdana" font-size="10.00">CConfigurableElement</text>
<text text-anchor="middle" x="252" y="-444" font-family="Verdana" font-size="10.00">::serializeXmlSettings</text>
</a>
</g>
<!-- Node1&#45;&gt;Node13 -->
<g id="edge24" class="edge"><title>Node1&#45;&gt;Node13</title>
<path fill="none" stroke="midnightblue" d="M102.276,-508.748C132.391,-497.535 174.447,-481.876 206.322,-470.008"/>
<polygon fill="midnightblue" stroke="midnightblue" points="100.703,-505.599 92.5532,-512.369 103.146,-512.159 100.703,-505.599"/>
</g>
<!-- Node15 -->
<g id="node30" class="node"><title>Node15</title>
<a xlink:href="classCConfigurableElement.html#a1dae2debee4a443ce572f15e75247808" target="_top" xlink:title="CConfigurableElement\l::accessValue">
<polygon fill="white" stroke="black" points="190.5,-366 190.5,-400 313.5,-400 313.5,-366 190.5,-366"/>
<text text-anchor="start" x="198.5" y="-387" font-family="Verdana" font-size="10.00">CConfigurableElement</text>
<text text-anchor="middle" x="252" y="-374" font-family="Verdana" font-size="10.00">::accessValue</text>
</a>
</g>
<!-- Node1&#45;&gt;Node15 -->
<g id="edge30" class="edge"><title>Node1&#45;&gt;Node15</title>
<path fill="none" stroke="midnightblue" d="M79.9497,-504.656C98.612,-483.958 131.159,-450.165 164,-427 178.656,-416.662 196.094,-407.403 211.565,-400.076"/>
<polygon fill="midnightblue" stroke="midnightblue" points="77.0905,-502.604 73.0622,-512.403 82.3221,-507.255 77.0905,-502.604"/>
</g>
<!-- Node16 -->
<g id="node33" class="node"><title>Node16</title>
<a xlink:href="classCEnumParameterType.html#a843bba6b2e2b5b516b7939f8bc4641ab" target="_top" xlink:title="Conversion. ">
<polygon fill="white" stroke="black" points="191,-314 191,-348 313,-348 313,-314 191,-314"/>
<text text-anchor="start" x="199" y="-335" font-family="Verdana" font-size="10.00">CEnumParameterType</text>
<text text-anchor="middle" x="252" y="-322" font-family="Verdana" font-size="10.00">::toBlackboard</text>
</a>
</g>
<!-- Node1&#45;&gt;Node16 -->
<g id="edge34" class="edge"><title>Node1&#45;&gt;Node16</title>
<path fill="none" stroke="midnightblue" d="M70.7243,-502.552C83.3192,-467.453 113.819,-395.781 164,-357 171.941,-350.863 181.303,-346.172 190.906,-342.587"/>
<polygon fill="midnightblue" stroke="midnightblue" points="67.3505,-501.599 67.3884,-512.194 73.9658,-503.888 67.3505,-501.599"/>
</g>
<!-- Node17 -->
<g id="node35" class="node"><title>Node17</title>
<a xlink:href="classCFixedPointParameterType.html#a8082571fa9099a8eb25820ce259b2d1d" target="_top" xlink:title="Conversion. ">
<polygon fill="white" stroke="black" points="180.5,-262 180.5,-296 323.5,-296 323.5,-262 180.5,-262"/>
<text text-anchor="start" x="188.5" y="-283" font-family="Verdana" font-size="10.00">CFixedPointParameterType</text>
<text text-anchor="middle" x="252" y="-270" font-family="Verdana" font-size="10.00">::toBlackboard</text>
</a>
</g>
<!-- Node1&#45;&gt;Node17 -->
<g id="edge36" class="edge"><title>Node1&#45;&gt;Node17</title>
<path fill="none" stroke="midnightblue" d="M67.6259,-502.069C76.2429,-458.716 102.05,-358.68 164,-305 168.936,-300.723 174.549,-297.149 180.494,-294.162"/>
<polygon fill="midnightblue" stroke="midnightblue" points="64.1604,-501.56 65.7538,-512.034 71.0401,-502.852 64.1604,-501.56"/>
</g>
<!-- Node18 -->
<g id="node37" class="node"><title>Node18</title>
<a xlink:href="classCInstanceConfigurableElement.html#a2e6e7782de8e4d7e844a869917f2f037" target="_top" xlink:title="Performs the sync if the AutoSync is enabled. ">
<polygon fill="white" stroke="black" points="170,-210 170,-244 334,-244 334,-210 170,-210"/>
<text text-anchor="start" x="178" y="-231" font-family="Verdana" font-size="10.00">CInstanceConfigurableElement</text>
<text text-anchor="middle" x="252" y="-218" font-family="Verdana" font-size="10.00">::sync</text>
</a>
</g>
<!-- Node1&#45;&gt;Node18 -->
<g id="edge38" class="edge"><title>Node1&#45;&gt;Node18</title>
<path fill="none" stroke="midnightblue" d="M65.5088,-502.431C70.3108,-452.234 89.6503,-322.498 164,-253 167.608,-249.628 171.632,-246.691 175.919,-244.133"/>
<polygon fill="midnightblue" stroke="midnightblue" points="62.0217,-502.131 64.6512,-512.395 68.9959,-502.732 62.0217,-502.131"/>
</g>
<!-- Node23 -->
<g id="node48" class="node"><title>Node23</title>
<a xlink:href="classCInstanceConfigurableElement.html#a4355916fa36efbe5fb62894d0a5dc95f" target="_top" xlink:title="CInstanceConfigurableElement\l::checkPathExhausted">
<polygon fill="white" stroke="black" points="380,-158 380,-192 544,-192 544,-158 380,-158"/>
<text text-anchor="start" x="388" y="-179" font-family="Verdana" font-size="10.00">CInstanceConfigurableElement</text>
<text text-anchor="middle" x="462" y="-166" font-family="Verdana" font-size="10.00">::checkPathExhausted</text>
</a>
</g>
<!-- Node1&#45;&gt;Node23 -->
<g id="edge50" class="edge"><title>Node1&#45;&gt;Node23</title>
<path fill="none" stroke="midnightblue" d="M67.3769,-502.291C78.397,-437.423 115.415,-240.157 164,-201 196.146,-175.092 303.316,-171.337 379.916,-172.211"/>
<polygon fill="midnightblue" stroke="midnightblue" points="63.8703,-502.041 65.6762,-512.48 70.7748,-503.193 63.8703,-502.041"/>
</g>
<!-- Node24 -->
<g id="node51" class="node"><title>Node24</title>
<a xlink:href="classCIntegerParameterType.html#a82c7004851a017781f8bec9a1f175e73" target="_top" xlink:title="CIntegerParameterType\l::toBlackboard">
<polygon fill="white" stroke="black" points="188,-120 188,-154 316,-154 316,-120 188,-120"/>
<text text-anchor="start" x="196" y="-141" font-family="Verdana" font-size="10.00">CIntegerParameterType</text>
<text text-anchor="middle" x="252" y="-128" font-family="Verdana" font-size="10.00">::toBlackboard</text>
</a>
</g>
<!-- Node1&#45;&gt;Node24 -->
<g id="edge54" class="edge"><title>Node1&#45;&gt;Node24</title>
<path fill="none" stroke="midnightblue" d="M67.2455,-502.491C78.3732,-434.536 116.907,-218.214 164,-168 170.648,-160.911 179.014,-155.442 187.928,-151.223"/>
<polygon fill="midnightblue" stroke="midnightblue" points="63.7833,-501.976 65.6451,-512.406 70.6939,-503.092 63.7833,-501.976"/>
</g>
<!-- Node25 -->
<g id="node53" class="node"><title>Node25</title>
<a xlink:href="classCParameterType.html#a04a0fd09f23eba9e4295109b080be04f" target="_top" xlink:title="CParameterType::toBlackboard">
<polygon fill="white" stroke="black" points="170,-80.5 170,-101.5 334,-101.5 334,-80.5 170,-80.5"/>
<text text-anchor="middle" x="252" y="-88.5" font-family="Verdana" font-size="10.00">CParameterType::toBlackboard</text>
</a>
</g>
<!-- Node1&#45;&gt;Node25 -->
<g id="edge56" class="edge"><title>Node1&#45;&gt;Node25</title>
<path fill="none" stroke="midnightblue" d="M66.1996,-501.994C74.5734,-426.052 106.904,-167.267 164,-111 167.794,-107.261 172.133,-104.162 176.804,-101.6"/>
<polygon fill="midnightblue" stroke="midnightblue" points="62.6923,-501.874 65.0993,-512.192 69.6519,-502.625 62.6923,-501.874"/>
</g>
<!-- Node26 -->
<g id="node55" class="node"><title>Node26</title>
<a xlink:href="classCParameterType.html#a149691bdd9d67a12d736e0c756b1ee56" target="_top" xlink:title="CParameterType::fromBlackboard">
<polygon fill="white" stroke="black" points="164,-40.5 164,-61.5 340,-61.5 340,-40.5 164,-40.5"/>
<text text-anchor="middle" x="252" y="-48.5" font-family="Verdana" font-size="10.00">CParameterType::fromBlackboard</text>
</a>
</g>
<!-- Node1&#45;&gt;Node26 -->
<g id="edge58" class="edge"><title>Node1&#45;&gt;Node26</title>
<path fill="none" stroke="midnightblue" d="M65.7074,-502.084C72.6968,-421.646 101.753,-133.605 164,-71 167.756,-67.2225 172.066,-64.0956 176.718,-61.5132"/>
<polygon fill="midnightblue" stroke="midnightblue" points="62.1907,-502.135 64.835,-512.394 69.1658,-502.725 62.1907,-502.135"/>
</g>
<!-- Node27 -->
<g id="node57" class="node"><title>Node27</title>
<a xlink:href="classCStringParameter.html#a6a9db60ee5c1b4c620441d6e0d82bd08" target="_top" xlink:title="CStringParameter::doSetValue">
<polygon fill="white" stroke="black" points="170.5,-0.5 170.5,-21.5 333.5,-21.5 333.5,-0.5 170.5,-0.5"/>
<text text-anchor="middle" x="252" y="-8.5" font-family="Verdana" font-size="10.00">CStringParameter::doSetValue</text>
</a>
</g>
<!-- Node1&#45;&gt;Node27 -->
<g id="edge60" class="edge"><title>Node1&#45;&gt;Node27</title>
<path fill="none" stroke="midnightblue" d="M65.2962,-502.165C70.9914,-417.437 96.5815,-99.9842 164,-31 167.614,-27.3024 171.758,-24.2257 176.236,-21.6713"/>
<polygon fill="midnightblue" stroke="midnightblue" points="61.7917,-502.12 64.6348,-512.326 68.777,-502.575 61.7917,-502.12"/>
</g>
<!-- Node13&#45;&gt;Node13 -->
<g id="edge28" class="edge"><title>Node13&#45;&gt;Node13</title>
<path fill="none" stroke="midnightblue" d="M219.26,-480.318C223.858,-484.864 234.771,-488 252,-488 280.273,-488 291.539,-479.556 285.796,-470.288"/>
<polygon fill="midnightblue" stroke="midnightblue" points="222.732,-479.866 218.204,-470.288 215.77,-480.599 222.732,-479.866"/>
</g>
<!-- Node14 -->
<g id="node27" class="node"><title>Node14</title>
<a xlink:href="classCAreaConfiguration.html#a6b8c95a79343ee9823b026d74184e798" target="_top" xlink:title="CAreaConfiguration\l::serializeXmlSettings">
<polygon fill="white" stroke="black" points="402.5,-436 402.5,-470 521.5,-470 521.5,-436 402.5,-436"/>
<text text-anchor="start" x="410.5" y="-457" font-family="Verdana" font-size="10.00">CAreaConfiguration</text>
<text text-anchor="middle" x="462" y="-444" font-family="Verdana" font-size="10.00">::serializeXmlSettings</text>
</a>
</g>
<!-- Node13&#45;&gt;Node14 -->
<g id="edge26" class="edge"><title>Node13&#45;&gt;Node14</title>
<path fill="none" stroke="midnightblue" d="M323.605,-453C349.194,-453 377.736,-453 402.221,-453"/>
<polygon fill="midnightblue" stroke="midnightblue" points="323.588,-449.5 313.588,-453 323.588,-456.5 323.588,-449.5"/>
</g>
<!-- Node15&#45;&gt;Node15 -->
<g id="edge32" class="edge"><title>Node15&#45;&gt;Node15</title>
<path fill="none" stroke="midnightblue" d="M219.26,-410.318C223.858,-414.864 234.771,-418 252,-418 280.273,-418 291.539,-409.556 285.796,-400.288"/>
<polygon fill="midnightblue" stroke="midnightblue" points="222.732,-409.866 218.204,-400.288 215.77,-410.599 222.732,-409.866"/>
</g>
<!-- Node19 -->
<g id="node39" class="node"><title>Node19</title>
<a xlink:href="classCArrayParameter.html#a07b3af958a03b2295be159f69b22d42d" target="_top" xlink:title="CArrayParameter::accessValue">
<polygon fill="white" stroke="black" points="380,-302.5 380,-323.5 544,-323.5 544,-302.5 380,-302.5"/>
<text text-anchor="middle" x="462" y="-310.5" font-family="Verdana" font-size="10.00">CArrayParameter::accessValue</text>
</a>
</g>
<!-- Node18&#45;&gt;Node19 -->
<g id="edge40" class="edge"><title>Node18&#45;&gt;Node19</title>
<path fill="none" stroke="midnightblue" d="M331.872,-248.356C334.67,-249.807 337.389,-251.354 340,-253 360.231,-265.758 355.403,-280.842 376,-293 382.468,-296.818 389.611,-299.907 396.934,-302.407"/>
<polygon fill="midnightblue" stroke="midnightblue" points="333.252,-245.137 322.714,-244.035 330.265,-251.467 333.252,-245.137"/>
</g>
<!-- Node20 -->
<g id="node41" class="node"><title>Node20</title>
<a xlink:href="classCBaseParameter.html#a2b425561e193a3d54e7225d896a3d39b" target="_top" xlink:title="CBaseParameter::accessAs\lString">
<polygon fill="white" stroke="black" points="387.5,-210 387.5,-244 536.5,-244 536.5,-210 387.5,-210"/>
<text text-anchor="start" x="395.5" y="-231" font-family="Verdana" font-size="10.00">CBaseParameter::accessAs</text>
<text text-anchor="middle" x="462" y="-218" font-family="Verdana" font-size="10.00">String</text>
</a>
</g>
<!-- Node18&#45;&gt;Node20 -->
<g id="edge42" class="edge"><title>Node18&#45;&gt;Node20</title>
<path fill="none" stroke="midnightblue" d="M344.494,-227C358.876,-227 373.576,-227 387.492,-227"/>
<polygon fill="midnightblue" stroke="midnightblue" points="344.094,-223.5 334.094,-227 344.094,-230.5 344.094,-223.5"/>
</g>
<!-- Node22 -->
<g id="node45" class="node"><title>Node22</title>
<a xlink:href="classCBitParameter.html#a6f4d06e327fb0b816c08e383177a82fc" target="_top" xlink:title="CBitParameter::accessAsInteger">
<polygon fill="white" stroke="black" points="376.5,-262.5 376.5,-283.5 547.5,-283.5 547.5,-262.5 376.5,-262.5"/>
<text text-anchor="middle" x="462" y="-270.5" font-family="Verdana" font-size="10.00">CBitParameter::accessAsInteger</text>
</a>
</g>
<!-- Node18&#45;&gt;Node22 -->
<g id="edge46" class="edge"><title>Node18&#45;&gt;Node22</title>
<path fill="none" stroke="midnightblue" d="M339.888,-246.252C365.192,-251.794 391.858,-257.636 413.793,-262.44"/>
<polygon fill="midnightblue" stroke="midnightblue" points="340.415,-242.784 329.898,-244.063 338.917,-249.622 340.415,-242.784"/>
</g>
<!-- Node21 -->
<g id="node43" class="node"><title>Node21</title>
<a xlink:href="classCBaseParameter.html#a4a9b3e3a2d1ea65a8dc7048559db8dc2" target="_top" xlink:title="CBaseParameter::accessValue">
<polygon fill="white" stroke="black" points="590.5,-190.5 590.5,-211.5 753.5,-211.5 753.5,-190.5 590.5,-190.5"/>
<text text-anchor="middle" x="672" y="-198.5" font-family="Verdana" font-size="10.00">CBaseParameter::accessValue</text>
</a>
</g>
<!-- Node20&#45;&gt;Node21 -->
<g id="edge44" class="edge"><title>Node20&#45;&gt;Node21</title>
<path fill="none" stroke="midnightblue" d="M546.559,-216.531C561.046,-214.737 576.074,-212.877 590.48,-211.093"/>
<polygon fill="midnightblue" stroke="midnightblue" points="546.124,-213.058 536.629,-217.76 546.984,-220.005 546.124,-213.058"/>
</g>
<!-- Node22&#45;&gt;Node10 -->
<g id="edge48" class="edge"><title>Node22&#45;&gt;Node10</title>
<path fill="none" stroke="midnightblue" d="M537.464,-287.362C541.124,-289.038 544.66,-290.91 548,-293 607.998,-330.541 652.042,-407.406 666.705,-435.456"/>
<polygon fill="midnightblue" stroke="midnightblue" points="538.738,-284.101 528.156,-283.584 536.105,-290.588 538.738,-284.101"/>
</g>
<!-- Node23&#45;&gt;Node21 -->
<g id="edge52" class="edge"><title>Node23&#45;&gt;Node21</title>
<path fill="none" stroke="midnightblue" d="M554.141,-186.408C566.183,-187.899 578.454,-189.418 590.308,-190.886"/>
<polygon fill="midnightblue" stroke="midnightblue" points="554.448,-182.919 544.094,-185.164 553.588,-189.866 554.448,-182.919"/>
</g>
</g>
</svg>
