<?xml version="1.0" encoding="UTF-8" standalone="no"?>
<!DOCTYPE svg PUBLIC "-//W3C//DTD SVG 1.1//EN"
 "http://www.w3.org/Graphics/SVG/1.1/DTD/svg11.dtd">
<!-- Generated by graphviz version 2.26.3 (20100126.1600)
 -->
<!-- Title: CSelectionCriteria::createSelectionCriterion Pages: 1 -->
<svg width="490pt" height="94pt"
 viewBox="0.00 0.00 490.00 94.00" xmlns="http://www.w3.org/2000/svg" xmlns:xlink="http://www.w3.org/1999/xlink">
<g id="graph1" class="graph" transform="scale(1 1) rotate(0) translate(4 90)">
<title>CSelectionCriteria::createSelectionCriterion</title>
<polygon fill="white" stroke="white" points="-4,5 -4,-90 487,-90 487,5 -4,5"/>
<!-- Node1 -->
<g id="node1" class="node"><title>Node1</title>
<polygon fill="#bfbfbf" stroke="black" points="0,-26 0,-60 138,-60 138,-26 0,-26"/>
<text text-anchor="start" x="8" y="-47" font-family="Verdana" font-size="10.00">CSelectionCriteria</text>
<text text-anchor="middle" x="69" y="-34" font-family="Verdana" font-size="10.00">::createSelectionCriterion</text>
</g>
<!-- Node2 -->
<g id="node3" class="node"><title>Node2</title>
<a xlink:href="classCSelectionCriteria.html#aa87e3488047e305e72d84d5aa0ed3e08" target="_top" xlink:title="CSelectionCriteria\l::getSelectionCriteriaDefinition">
<polygon fill="white" stroke="black" points="174,-52 174,-86 336,-86 336,-52 174,-52"/>
<text text-anchor="start" x="182" y="-73" font-family="Verdana" font-size="10.00">CSelectionCriteria</text>
<text text-anchor="middle" x="255" y="-60" font-family="Verdana" font-size="10.00">::getSelectionCriteriaDefinition</text>
</a>
</g>
<!-- Node1&#45;&gt;Node2 -->
<g id="edge2" class="edge"><title>Node1&#45;&gt;Node2</title>
<path fill="none" stroke="midnightblue" d="M138.26,-52.6814C146.574,-53.8437 155.16,-55.0439 163.726,-56.2413"/>
<polygon fill="midnightblue" stroke="midnightblue" points="163.368,-59.7251 173.756,-57.6433 164.337,-52.7925 163.368,-59.7251"/>
</g>
<!-- Node4 -->
<g id="node7" class="node"><title>Node4</title>
<a xlink:href="classCSelectionCriteriaDefinition.html#ad6447026bd630fa502212eeb6f419146" target="_top" xlink:title="CSelectionCriteriaDefinition\l::createSelectionCriterion">
<polygon fill="white" stroke="black" points="181.5,-0 181.5,-34 328.5,-34 328.5,-0 181.5,-0"/>
<text text-anchor="start" x="189.5" y="-21" font-family="Verdana" font-size="10.00">CSelectionCriteriaDefinition</text>
<text text-anchor="middle" x="255" y="-8" font-family="Verdana" font-size="10.00">::createSelectionCriterion</text>
</a>
</g>
<!-- Node1&#45;&gt;Node4 -->
<g id="edge6" class="edge"><title>Node1&#45;&gt;Node4</title>
<path fill="none" stroke="midnightblue" d="M138.26,-33.3186C149.014,-31.8152 160.223,-30.2484 171.256,-28.7062"/>
<polygon fill="midnightblue" stroke="midnightblue" points="171.902,-32.15 181.321,-27.2992 170.933,-25.2174 171.902,-32.15"/>
</g>
<!-- Node3 -->
<g id="node5" class="node"><title>Node3</title>
<a xlink:href="classCElement.html#a41bf126c3fdbb5bec0c2c3dcf35e9079" target="_top" xlink:title="CElement::getChild">
<polygon fill="white" stroke="black" points="373,-58.5 373,-79.5 481,-79.5 481,-58.5 373,-58.5"/>
<text text-anchor="middle" x="427" y="-66.5" font-family="Verdana" font-size="10.00">CElement::getChild</text>
</a>
</g>
<!-- Node2&#45;&gt;Node3 -->
<g id="edge4" class="edge"><title>Node2&#45;&gt;Node3</title>
<path fill="none" stroke="midnightblue" d="M336.215,-69C344.996,-69 353.844,-69 362.391,-69"/>
<polygon fill="midnightblue" stroke="midnightblue" points="362.642,-72.5001 372.642,-69 362.642,-65.5001 362.642,-72.5001"/>
</g>
<!-- Node5 -->
<g id="node9" class="node"><title>Node5</title>
<a xlink:href="classCElement.html#ac2ad66ee438a4a0c1390b7388874fe72" target="_top" xlink:title="CElement::addChild">
<polygon fill="white" stroke="black" points="372,-6.5 372,-27.5 482,-27.5 482,-6.5 372,-6.5"/>
<text text-anchor="middle" x="427" y="-14.5" font-family="Verdana" font-size="10.00">CElement::addChild</text>
</a>
</g>
<!-- Node4&#45;&gt;Node5 -->
<g id="edge8" class="edge"><title>Node4&#45;&gt;Node5</title>
<path fill="none" stroke="midnightblue" d="M328.942,-17C339.844,-17 351.009,-17 361.719,-17"/>
<polygon fill="midnightblue" stroke="midnightblue" points="361.824,-20.5001 371.824,-17 361.824,-13.5001 361.824,-20.5001"/>
</g>
</g>
</svg>
