<?xml version="1.0" encoding="UTF-8" standalone="no"?>
<!DOCTYPE svg PUBLIC "-//W3C//DTD SVG 1.1//EN"
 "http://www.w3.org/Graphics/SVG/1.1/DTD/svg11.dtd">
<!-- Generated by graphviz version 2.26.3 (20100126.1600)
 -->
<!-- Title: CSelectionCriterion::getFormattedDescription Pages: 1 -->
<svg width="484pt" height="226pt"
 viewBox="0.00 0.00 484.00 226.00" xmlns="http://www.w3.org/2000/svg" xmlns:xlink="http://www.w3.org/1999/xlink">
<g id="graph1" class="graph" transform="scale(1 1) rotate(0) translate(4 222)">
<title>CSelectionCriterion::getFormattedDescription</title>
<polygon fill="white" stroke="white" points="-4,5 -4,-222 481,-222 481,5 -4,5"/>
<!-- Node1 -->
<g id="node1" class="node"><title>Node1</title>
<polygon fill="#bfbfbf" stroke="black" points="0.5,-104 0.5,-138 143.5,-138 143.5,-104 0.5,-104"/>
<text text-anchor="start" x="8.5" y="-125" font-family="Verdana" font-size="10.00">CSelectionCriterion</text>
<text text-anchor="middle" x="72" y="-112" font-family="Verdana" font-size="10.00">::getFormattedDescription</text>
</g>
<!-- Node2 -->
<g id="node3" class="node"><title>Node2</title>
<a xlink:href="classCElement.html#a834a32898950ca2ce9b629aa3367101e" target="_top" xlink:title="CElement::appendTitle">
<polygon fill="white" stroke="black" points="182.5,-196.5 182.5,-217.5 307.5,-217.5 307.5,-196.5 182.5,-196.5"/>
<text text-anchor="middle" x="245" y="-204.5" font-family="Verdana" font-size="10.00">CElement::appendTitle</text>
</a>
</g>
<!-- Node1&#45;&gt;Node2 -->
<g id="edge2" class="edge"><title>Node1&#45;&gt;Node2</title>
<path fill="none" stroke="midnightblue" d="M95.9145,-138.031C117.186,-152.579 149.551,-173.273 180,-187 184.978,-189.244 190.279,-191.33 195.624,-193.242"/>
<polygon fill="midnightblue" stroke="midnightblue" points="194.637,-196.603 205.231,-196.492 196.88,-189.972 194.637,-196.603"/>
</g>
<!-- Node3 -->
<g id="node5" class="node"><title>Node3</title>
<a xlink:href="classCElement.html#a49581fb6412e29e932962acd82d52d6a" target="_top" xlink:title="CElement::getName">
<polygon fill="white" stroke="black" points="188,-156.5 188,-177.5 302,-177.5 302,-156.5 188,-156.5"/>
<text text-anchor="middle" x="245" y="-164.5" font-family="Verdana" font-size="10.00">CElement::getName</text>
</a>
</g>
<!-- Node1&#45;&gt;Node3 -->
<g id="edge4" class="edge"><title>Node1&#45;&gt;Node3</title>
<path fill="none" stroke="midnightblue" d="M136.419,-138.129C155.953,-143.323 177.098,-148.945 195.493,-153.836"/>
<polygon fill="midnightblue" stroke="midnightblue" points="194.838,-157.284 205.402,-156.471 196.637,-150.519 194.838,-157.284"/>
</g>
<!-- Node4 -->
<g id="node7" class="node"><title>Node4</title>
<a xlink:href="classCSelectionCriterionType.html#ae88c284c1f002d7237f25e9c21dcf44f" target="_top" xlink:title="CSelectionCriterionType\l::isTypeInclusive">
<polygon fill="white" stroke="black" points="180.5,-104 180.5,-138 309.5,-138 309.5,-104 180.5,-104"/>
<text text-anchor="start" x="188.5" y="-125" font-family="Verdana" font-size="10.00">CSelectionCriterionType</text>
<text text-anchor="middle" x="245" y="-112" font-family="Verdana" font-size="10.00">::isTypeInclusive</text>
</a>
</g>
<!-- Node1&#45;&gt;Node4 -->
<g id="edge6" class="edge"><title>Node1&#45;&gt;Node4</title>
<path fill="none" stroke="midnightblue" d="M143.615,-121C152.367,-121 161.329,-121 170.127,-121"/>
<polygon fill="midnightblue" stroke="midnightblue" points="170.359,-124.5 180.359,-121 170.359,-117.5 170.359,-124.5"/>
</g>
<!-- Node5 -->
<g id="node9" class="node"><title>Node5</title>
<a xlink:href="classCSelectionCriterionType.html#a31f9a40404c9564b2c54658a679db628" target="_top" xlink:title="CSelectionCriterionType\l::listPossibleValues">
<polygon fill="white" stroke="black" points="180.5,-52 180.5,-86 309.5,-86 309.5,-52 180.5,-52"/>
<text text-anchor="start" x="188.5" y="-73" font-family="Verdana" font-size="10.00">CSelectionCriterionType</text>
<text text-anchor="middle" x="245" y="-60" font-family="Verdana" font-size="10.00">::listPossibleValues</text>
</a>
</g>
<!-- Node1&#45;&gt;Node5 -->
<g id="edge8" class="edge"><title>Node1&#45;&gt;Node5</title>
<path fill="none" stroke="midnightblue" d="M128.647,-103.973C144.478,-99.2146 161.831,-93.9989 178.19,-89.0815"/>
<polygon fill="midnightblue" stroke="midnightblue" points="179.657,-92.2955 188.226,-86.065 177.642,-85.5918 179.657,-92.2955"/>
</g>
<!-- Node6 -->
<g id="node11" class="node"><title>Node6</title>
<a xlink:href="classCSelectionCriterionType.html#acf1d7bbd1dc0b21897cdf7cf3d362bb3" target="_top" xlink:title="CSelectionCriterionType\l::getFormattedState">
<polygon fill="white" stroke="black" points="180.5,-0 180.5,-34 309.5,-34 309.5,-0 180.5,-0"/>
<text text-anchor="start" x="188.5" y="-21" font-family="Verdana" font-size="10.00">CSelectionCriterionType</text>
<text text-anchor="middle" x="245" y="-8" font-family="Verdana" font-size="10.00">::getFormattedState</text>
</a>
</g>
<!-- Node1&#45;&gt;Node6 -->
<g id="edge10" class="edge"><title>Node1&#45;&gt;Node6</title>
<path fill="none" stroke="midnightblue" d="M92.4936,-103.846C113.496,-86.8479 147.577,-60.8388 180,-43 182.875,-41.4181 185.867,-39.8807 188.919,-38.3959"/>
<polygon fill="midnightblue" stroke="midnightblue" points="190.588,-41.4802 198.197,-34.108 187.651,-35.126 190.588,-41.4802"/>
</g>
<!-- Node7 -->
<g id="node13" class="node"><title>Node7</title>
<a xlink:href="classCSelectionCriterionType.html#ae526e3679a02dd85be47abe8a548f1ee" target="_top" xlink:title="CSelectionCriterionType\l::getLiteralValue">
<polygon fill="white" stroke="black" points="346.5,-0 346.5,-34 475.5,-34 475.5,-0 346.5,-0"/>
<text text-anchor="start" x="354.5" y="-21" font-family="Verdana" font-size="10.00">CSelectionCriterionType</text>
<text text-anchor="middle" x="411" y="-8" font-family="Verdana" font-size="10.00">::getLiteralValue</text>
</a>
</g>
<!-- Node6&#45;&gt;Node7 -->
<g id="edge12" class="edge"><title>Node6&#45;&gt;Node7</title>
<path fill="none" stroke="midnightblue" d="M309.655,-17C318.292,-17 327.208,-17 336.003,-17"/>
<polygon fill="midnightblue" stroke="midnightblue" points="336.248,-20.5001 346.248,-17 336.248,-13.5001 336.248,-20.5001"/>
</g>
</g>
</svg>
