<?xml version="1.0" encoding="UTF-8" standalone="no"?>
<!DOCTYPE svg PUBLIC "-//W3C//DTD SVG 1.1//EN"
 "http://www.w3.org/Graphics/SVG/1.1/DTD/svg11.dtd">
<!-- Generated by graphviz version 2.26.3 (20100126.1600)
 -->
<!-- Title: CElement::createChild Pages: 1 -->
<svg width="610pt" height="208pt"
 viewBox="0.00 0.00 610.00 208.00" xmlns="http://www.w3.org/2000/svg" xmlns:xlink="http://www.w3.org/1999/xlink">
<g id="graph1" class="graph" transform="scale(1 1) rotate(0) translate(4 204)">
<title>CElement::createChild</title>
<polygon fill="white" stroke="white" points="-4,5 -4,-204 607,-204 607,5 -4,5"/>
<!-- Node1 -->
<g id="node1" class="node"><title>Node1</title>
<polygon fill="#bfbfbf" stroke="black" points="0.5,-86.5 0.5,-107.5 123.5,-107.5 123.5,-86.5 0.5,-86.5"/>
<text text-anchor="middle" x="62" y="-94.5" font-family="Verdana" font-size="10.00">CElement::createChild</text>
</g>
<!-- Node2 -->
<g id="node3" class="node"><title>Node2</title>
<a xlink:href="classCComponentLibrary.html#ad4cc928cda43371fb31f20394e8e04e5" target="_top" xlink:title="CComponentLibrary::\lfromXml">
<polygon fill="white" stroke="black" points="323.5,-45 323.5,-79 440.5,-79 440.5,-45 323.5,-45"/>
<text text-anchor="start" x="331.5" y="-66" font-family="Verdana" font-size="10.00">CComponentLibrary::</text>
<text text-anchor="middle" x="382" y="-53" font-family="Verdana" font-size="10.00">fromXml</text>
</a>
</g>
<!-- Node1&#45;&gt;Node2 -->
<g id="edge2" class="edge"><title>Node1&#45;&gt;Node2</title>
<path fill="none" stroke="midnightblue" d="M134.018,-105.895C178.268,-109.488 235.888,-110.79 286,-101 307.893,-96.7227 331.101,-87.4389 349.213,-79.0022"/>
<polygon fill="midnightblue" stroke="midnightblue" points="134.196,-102.398 123.93,-105.018 133.589,-109.371 134.196,-102.398"/>
</g>
<!-- Node4 -->
<g id="node7" class="node"><title>Node4</title>
<a xlink:href="classCConfigurableElement.html#a0e3feb8a7b18a3291ec960c9726b4eaf" target="_top" xlink:title="CConfigurableElement\l::serializeXmlSettings">
<polygon fill="white" stroke="black" points="161.5,-148 161.5,-182 284.5,-182 284.5,-148 161.5,-148"/>
<text text-anchor="start" x="169.5" y="-169" font-family="Verdana" font-size="10.00">CConfigurableElement</text>
<text text-anchor="middle" x="223" y="-156" font-family="Verdana" font-size="10.00">::serializeXmlSettings</text>
</a>
</g>
<!-- Node1&#45;&gt;Node4 -->
<g id="edge6" class="edge"><title>Node1&#45;&gt;Node4</title>
<path fill="none" stroke="midnightblue" d="M96.6969,-111.655C121.95,-122.32 156.215,-136.793 182.685,-147.972"/>
<polygon fill="midnightblue" stroke="midnightblue" points="97.7301,-108.292 87.1562,-107.625 95.0065,-114.74 97.7301,-108.292"/>
</g>
<!-- Node6 -->
<g id="node12" class="node"><title>Node6</title>
<a xlink:href="classCDomainConfiguration.html#a97554abea0968d2e55151302b0260b63" target="_top" xlink:title="CDomainConfiguration\l::composeSettings">
<polygon fill="white" stroke="black" points="160.5,-58 160.5,-92 285.5,-92 285.5,-58 160.5,-58"/>
<text text-anchor="start" x="168.5" y="-79" font-family="Verdana" font-size="10.00">CDomainConfiguration</text>
<text text-anchor="middle" x="223" y="-66" font-family="Verdana" font-size="10.00">::composeSettings</text>
</a>
</g>
<!-- Node1&#45;&gt;Node6 -->
<g id="edge12" class="edge"><title>Node1&#45;&gt;Node6</title>
<path fill="none" stroke="midnightblue" d="M133.714,-87.2005C142.583,-85.9887 151.595,-84.7572 160.314,-83.5658"/>
<polygon fill="midnightblue" stroke="midnightblue" points="133.22,-83.7354 123.786,-88.5571 134.168,-90.671 133.22,-83.7354"/>
</g>
<!-- Node7 -->
<g id="node14" class="node"><title>Node7</title>
<a xlink:href="classCElement.html#a1978d50e2db432e7b8f0928f33d3f01a" target="_top" xlink:title="CElement::fromXml">
<polygon fill="white" stroke="black" points="168,-0.5 168,-21.5 278,-21.5 278,-0.5 168,-0.5"/>
<text text-anchor="middle" x="223" y="-8.5" font-family="Verdana" font-size="10.00">CElement::fromXml</text>
</a>
</g>
<!-- Node1&#45;&gt;Node7 -->
<g id="edge14" class="edge"><title>Node1&#45;&gt;Node7</title>
<path fill="none" stroke="midnightblue" d="M90.7205,-81.6586C123.096,-64.365 174.882,-36.7025 203.097,-21.6315"/>
<polygon fill="midnightblue" stroke="midnightblue" points="88.9132,-78.6559 81.7418,-86.4547 92.2113,-84.8303 88.9132,-78.6559"/>
</g>
<!-- Node3 -->
<g id="node5" class="node"><title>Node3</title>
<a xlink:href="classCSubsystem.html#aa114a31f4aa4b0f47b3c616b721854d4" target="_top" xlink:title="CSubsystem::fromXml">
<polygon fill="white" stroke="black" points="478,-51.5 478,-72.5 602,-72.5 602,-51.5 478,-51.5"/>
<text text-anchor="middle" x="540" y="-59.5" font-family="Verdana" font-size="10.00">CSubsystem::fromXml</text>
</a>
</g>
<!-- Node2&#45;&gt;Node3 -->
<g id="edge4" class="edge"><title>Node2&#45;&gt;Node3</title>
<path fill="none" stroke="midnightblue" d="M450.892,-62C459.891,-62 469.067,-62 477.944,-62"/>
<polygon fill="midnightblue" stroke="midnightblue" points="450.833,-58.5001 440.833,-62 450.833,-65.5001 450.833,-58.5001"/>
</g>
<!-- Node4&#45;&gt;Node4 -->
<g id="edge10" class="edge"><title>Node4&#45;&gt;Node4</title>
<path fill="none" stroke="midnightblue" d="M195.484,-192.318C199.348,-196.864 208.52,-200 223,-200 246.762,-200 256.229,-191.556 251.403,-182.288"/>
<polygon fill="midnightblue" stroke="midnightblue" points="198.965,-191.94 194.597,-182.288 191.992,-192.557 198.965,-191.94"/>
</g>
<!-- Node5 -->
<g id="node9" class="node"><title>Node5</title>
<a xlink:href="classCAreaConfiguration.html#a6b8c95a79343ee9823b026d74184e798" target="_top" xlink:title="CAreaConfiguration\l::serializeXmlSettings">
<polygon fill="white" stroke="black" points="322.5,-148 322.5,-182 441.5,-182 441.5,-148 322.5,-148"/>
<text text-anchor="start" x="330.5" y="-169" font-family="Verdana" font-size="10.00">CAreaConfiguration</text>
<text text-anchor="middle" x="382" y="-156" font-family="Verdana" font-size="10.00">::serializeXmlSettings</text>
</a>
</g>
<!-- Node4&#45;&gt;Node5 -->
<g id="edge8" class="edge"><title>Node4&#45;&gt;Node5</title>
<path fill="none" stroke="midnightblue" d="M295.121,-165C304.22,-165 313.449,-165 322.326,-165"/>
<polygon fill="midnightblue" stroke="midnightblue" points="294.929,-161.5 284.929,-165 294.929,-168.5 294.929,-161.5"/>
</g>
<!-- Node7&#45;&gt;Node2 -->
<g id="edge16" class="edge"><title>Node7&#45;&gt;Node2</title>
<path fill="none" stroke="midnightblue" d="M265.711,-24.6997C285.104,-30.9201 308.244,-38.3423 328.756,-44.9219"/>
<polygon fill="midnightblue" stroke="midnightblue" points="266.536,-21.2888 255.945,-21.5672 264.398,-27.9543 266.536,-21.2888"/>
</g>
<!-- Node7&#45;&gt;Node7 -->
<g id="edge18" class="edge"><title>Node7&#45;&gt;Node7</title>
<path fill="none" stroke="midnightblue" d="M193.728,-31.0551C195.648,-36.164 205.405,-40 223,-40 250.465,-40 258.833,-30.6531 248.105,-21.7079"/>
<polygon fill="midnightblue" stroke="midnightblue" points="197.02,-32.2665 197.895,-21.7079 190.626,-29.4159 197.02,-32.2665"/>
</g>
</g>
</svg>
