<?xml version="1.0" encoding="UTF-8" standalone="no"?>
<!DOCTYPE svg PUBLIC "-//W3C//DTD SVG 1.1//EN"
 "http://www.w3.org/Graphics/SVG/1.1/DTD/svg11.dtd">
<!-- Generated by graphviz version 2.26.3 (20100126.1600)
 -->
<!-- Title: CConfigurableDomain::restoreConfiguration Pages: 1 -->
<svg width="714pt" height="161pt"
 viewBox="0.00 0.00 714.00 161.00" xmlns="http://www.w3.org/2000/svg" xmlns:xlink="http://www.w3.org/1999/xlink">
<g id="graph1" class="graph" transform="scale(1 1) rotate(0) translate(4 157)">
<title>CConfigurableDomain::restoreConfiguration</title>
<polygon fill="white" stroke="white" points="-4,5 -4,-157 711,-157 711,5 -4,5"/>
<!-- Node1 -->
<g id="node1" class="node"><title>Node1</title>
<polygon fill="#bfbfbf" stroke="black" points="0.5,-62 0.5,-96 121.5,-96 121.5,-62 0.5,-62"/>
<text text-anchor="start" x="8.5" y="-83" font-family="Verdana" font-size="10.00">CConfigurableDomain</text>
<text text-anchor="middle" x="61" y="-70" font-family="Verdana" font-size="10.00">::restoreConfiguration</text>
</g>
<!-- Node2 -->
<g id="node3" class="node"><title>Node2</title>
<a xlink:href="classCElement.html#aaa4df1b13a53263f8cc2b668172873d9" target="_top" xlink:title="CElement::log_info">
<polygon fill="white" stroke="black" points="168,-131.5 168,-152.5 274,-152.5 274,-131.5 168,-131.5"/>
<text text-anchor="middle" x="221" y="-139.5" font-family="Verdana" font-size="10.00">CElement::log_info</text>
</a>
</g>
<!-- Node1&#45;&gt;Node2 -->
<g id="edge2" class="edge"><title>Node1&#45;&gt;Node2</title>
<path fill="none" stroke="midnightblue" d="M96.9959,-96.0881C115.102,-104.392 137.503,-114.23 158,-122 163.637,-124.137 169.613,-126.239 175.552,-128.23"/>
<polygon fill="midnightblue" stroke="midnightblue" points="174.853,-131.684 185.445,-131.464 177.028,-125.03 174.853,-131.684"/>
</g>
<!-- Node3 -->
<g id="node5" class="node"><title>Node3</title>
<a xlink:href="classCElement.html#a49581fb6412e29e932962acd82d52d6a" target="_top" xlink:title="CElement::getName">
<polygon fill="white" stroke="black" points="164,-91.5 164,-112.5 278,-112.5 278,-91.5 164,-91.5"/>
<text text-anchor="middle" x="221" y="-99.5" font-family="Verdana" font-size="10.00">CElement::getName</text>
</a>
</g>
<!-- Node1&#45;&gt;Node3 -->
<g id="edge4" class="edge"><title>Node1&#45;&gt;Node3</title>
<path fill="none" stroke="midnightblue" d="M121.946,-87.7609C132.386,-89.2617 143.286,-90.8286 153.876,-92.351"/>
<polygon fill="midnightblue" stroke="midnightblue" points="153.514,-95.8348 163.91,-93.7934 154.51,-88.906 153.514,-95.8348"/>
</g>
<!-- Node4 -->
<g id="node7" class="node"><title>Node4</title>
<a xlink:href="classCDomainConfiguration.html#a1e837621d00a5ed2282c525c25a484e7" target="_top" xlink:title="CDomainConfiguration\l::restore">
<polygon fill="white" stroke="black" points="158.5,-39 158.5,-73 283.5,-73 283.5,-39 158.5,-39"/>
<text text-anchor="start" x="166.5" y="-60" font-family="Verdana" font-size="10.00">CDomainConfiguration</text>
<text text-anchor="middle" x="221" y="-47" font-family="Verdana" font-size="10.00">::restore</text>
</a>
</g>
<!-- Node1&#45;&gt;Node4 -->
<g id="edge6" class="edge"><title>Node1&#45;&gt;Node4</title>
<path fill="none" stroke="midnightblue" d="M121.946,-70.2391C130.608,-68.9939 139.586,-67.7032 148.442,-66.4302"/>
<polygon fill="midnightblue" stroke="midnightblue" points="148.965,-69.8911 158.365,-65.0037 147.969,-62.9623 148.965,-69.8911"/>
</g>
<!-- Node7 -->
<g id="node13" class="node"><title>Node7</title>
<a xlink:href="classCSyncerSet.html#a6ee2b3a5edcccc64b8694df736312e4b" target="_top" xlink:title="CSyncerSet::sync">
<polygon fill="white" stroke="black" points="477.5,-0.5 477.5,-21.5 578.5,-21.5 578.5,-0.5 477.5,-0.5"/>
<text text-anchor="middle" x="528" y="-8.5" font-family="Verdana" font-size="10.00">CSyncerSet::sync</text>
</a>
</g>
<!-- Node1&#45;&gt;Node7 -->
<g id="edge16" class="edge"><title>Node1&#45;&gt;Node7</title>
<path fill="none" stroke="midnightblue" d="M87.3803,-61.8678C106.234,-50.5977 132.653,-36.7302 158,-30 263.983,-1.85917 392.896,-2.7726 467.198,-6.52322"/>
<polygon fill="midnightblue" stroke="midnightblue" points="467.138,-10.025 477.312,-7.06856 467.515,-3.03513 467.138,-10.025"/>
</g>
<!-- Node5 -->
<g id="node9" class="node"><title>Node5</title>
<a xlink:href="classCAreaConfiguration.html#a5f72a0349e2309a77459650ba10918a1" target="_top" xlink:title="CAreaConfiguration\l::restore">
<polygon fill="white" stroke="black" points="320,-39 320,-73 430,-73 430,-39 320,-39"/>
<text text-anchor="start" x="328" y="-60" font-family="Verdana" font-size="10.00">CAreaConfiguration</text>
<text text-anchor="middle" x="375" y="-47" font-family="Verdana" font-size="10.00">::restore</text>
</a>
</g>
<!-- Node4&#45;&gt;Node5 -->
<g id="edge8" class="edge"><title>Node4&#45;&gt;Node5</title>
<path fill="none" stroke="midnightblue" d="M283.638,-56C292.256,-56 301.124,-56 309.788,-56"/>
<polygon fill="midnightblue" stroke="midnightblue" points="309.837,-59.5001 319.837,-56 309.837,-52.5001 309.837,-59.5001"/>
</g>
<!-- Node6 -->
<g id="node11" class="node"><title>Node6</title>
<a xlink:href="classCConfigurableElement.html#a29d61e6d09ff508ebb87aea802f2704e" target="_top" xlink:title="CConfigurableElement\l::getOffset">
<polygon fill="white" stroke="black" points="466.5,-40 466.5,-74 589.5,-74 589.5,-40 466.5,-40"/>
<text text-anchor="start" x="474.5" y="-61" font-family="Verdana" font-size="10.00">CConfigurableElement</text>
<text text-anchor="middle" x="528" y="-48" font-family="Verdana" font-size="10.00">::getOffset</text>
</a>
</g>
<!-- Node5&#45;&gt;Node6 -->
<g id="edge10" class="edge"><title>Node5&#45;&gt;Node6</title>
<path fill="none" stroke="midnightblue" d="M430.237,-56.361C438.665,-56.4161 447.468,-56.4736 456.189,-56.5306"/>
<polygon fill="midnightblue" stroke="midnightblue" points="456.339,-60.0316 466.362,-56.5971 456.385,-53.0318 456.339,-60.0316"/>
</g>
<!-- Node5&#45;&gt;Node7 -->
<g id="edge12" class="edge"><title>Node5&#45;&gt;Node7</title>
<path fill="none" stroke="midnightblue" d="M430.237,-39.754C447.249,-34.7504 465.785,-29.2986 482.098,-24.5005"/>
<polygon fill="midnightblue" stroke="midnightblue" points="483.329,-27.7869 491.935,-21.6074 481.354,-21.0713 483.329,-27.7869"/>
</g>
<!-- Node8 -->
<g id="node15" class="node"><title>Node8</title>
<a xlink:href="classISyncer.html#a16844aac52fb0caf4aed4f68d4b038d9" target="_top" xlink:title="ISyncer::sync">
<polygon fill="white" stroke="black" points="626,-0.5 626,-21.5 706,-21.5 706,-0.5 626,-0.5"/>
<text text-anchor="middle" x="666" y="-8.5" font-family="Verdana" font-size="10.00">ISyncer::sync</text>
</a>
</g>
<!-- Node7&#45;&gt;Node8 -->
<g id="edge14" class="edge"><title>Node7&#45;&gt;Node8</title>
<path fill="none" stroke="midnightblue" d="M578.603,-11C590.621,-11 603.442,-11 615.458,-11"/>
<polygon fill="midnightblue" stroke="midnightblue" points="615.769,-14.5001 625.769,-11 615.769,-7.5001 615.769,-14.5001"/>
</g>
</g>
</svg>
