<?xml version="1.0" encoding="UTF-8" standalone="no"?>
<!DOCTYPE svg PUBLIC "-//W3C//DTD SVG 1.1//EN"
 "http://www.w3.org/Graphics/SVG/1.1/DTD/svg11.dtd">
<!-- Generated by graphviz version 2.26.3 (20100126.1600)
 -->
<!-- Title: CSubsystemObject::accessHW Pages: 1 -->
<svg width="372pt" height="82pt"
 viewBox="0.00 0.00 372.00 82.00" xmlns="http://www.w3.org/2000/svg" xmlns:xlink="http://www.w3.org/1999/xlink">
<g id="graph1" class="graph" transform="scale(1 1) rotate(0) translate(4 78)">
<title>CSubsystemObject::accessHW</title>
<polygon fill="white" stroke="white" points="-4,5 -4,-78 369,-78 369,5 -4,5"/>
<!-- Node1 -->
<g id="node1" class="node"><title>Node1</title>
<polygon fill="#bfbfbf" stroke="black" points="0.5,-23.5 0.5,-44.5 163.5,-44.5 163.5,-23.5 0.5,-23.5"/>
<text text-anchor="middle" x="82" y="-31.5" font-family="Verdana" font-size="10.00">CSubsystemObject::accessHW</text>
</g>
<!-- Node2 -->
<g id="node3" class="node"><title>Node2</title>
<a xlink:href="classCSubsystemObject.html#acc72dd9fbfe6ea8a16baca26dee83f97" target="_top" xlink:title="CSubsystemObject::receive\lFromHW">
<polygon fill="white" stroke="black" points="207.5,-40 207.5,-74 356.5,-74 356.5,-40 207.5,-40"/>
<text text-anchor="start" x="215.5" y="-61" font-family="Verdana" font-size="10.00">CSubsystemObject::receive</text>
<text text-anchor="middle" x="282" y="-48" font-family="Verdana" font-size="10.00">FromHW</text>
</a>
</g>
<!-- Node1&#45;&gt;Node2 -->
<g id="edge2" class="edge"><title>Node1&#45;&gt;Node2</title>
<path fill="none" stroke="midnightblue" d="M163.636,-43.3882C174.717,-44.6625 186.11,-45.9727 197.245,-47.2532"/>
<polygon fill="midnightblue" stroke="midnightblue" points="197.047,-50.7534 207.382,-48.4189 197.847,-43.7993 197.047,-50.7534"/>
</g>
<!-- Node3 -->
<g id="node5" class="node"><title>Node3</title>
<a xlink:href="classCSubsystemObject.html#ae2f006c1b6385b15a165aa164347242a" target="_top" xlink:title="CSubsystemObject::sendToHW">
<polygon fill="white" stroke="black" points="200.5,-0.5 200.5,-21.5 363.5,-21.5 363.5,-0.5 200.5,-0.5"/>
<text text-anchor="middle" x="282" y="-8.5" font-family="Verdana" font-size="10.00">CSubsystemObject::sendToHW</text>
</a>
</g>
<!-- Node1&#45;&gt;Node3 -->
<g id="edge4" class="edge"><title>Node1&#45;&gt;Node3</title>
<path fill="none" stroke="midnightblue" d="M163.636,-24.6118C172.426,-23.6011 181.411,-22.5677 190.308,-21.5446"/>
<polygon fill="midnightblue" stroke="midnightblue" points="190.766,-25.0151 200.301,-20.3954 189.966,-18.0609 190.766,-25.0151"/>
</g>
</g>
</svg>
