<?xml version="1.0" encoding="UTF-8" standalone="no"?>
<!DOCTYPE svg PUBLIC "-//W3C//DTD SVG 1.1//EN"
 "http://www.w3.org/Graphics/SVG/1.1/DTD/svg11.dtd">
<!-- Generated by graphviz version 2.26.3 (20100126.1600)
 -->
<!-- Title: CElement::getKind Pages: 1 -->
<svg width="818pt" height="440pt"
 viewBox="0.00 0.00 818.00 440.00" xmlns="http://www.w3.org/2000/svg" xmlns:xlink="http://www.w3.org/1999/xlink">
<g id="graph1" class="graph" transform="scale(1 1) rotate(0) translate(4 436)">
<title>CElement::getKind</title>
<polygon fill="white" stroke="white" points="-4,5 -4,-436 815,-436 815,5 -4,5"/>
<!-- Node1 -->
<g id="node1" class="node"><title>Node1</title>
<polygon fill="#bfbfbf" stroke="black" points="0.5,-202.5 0.5,-223.5 105.5,-223.5 105.5,-202.5 0.5,-202.5"/>
<text text-anchor="middle" x="53" y="-210.5" font-family="Verdana" font-size="10.00">CElement::getKind</text>
</g>
<!-- Node2 -->
<g id="node3" class="node"><title>Node2</title>
<a xlink:href="classCConfigurableElement.html#a0e3feb8a7b18a3291ec960c9726b4eaf" target="_top" xlink:title="CConfigurableElement\l::serializeXmlSettings">
<polygon fill="white" stroke="black" points="164.5,-380 164.5,-414 287.5,-414 287.5,-380 164.5,-380"/>
<text text-anchor="start" x="172.5" y="-401" font-family="Verdana" font-size="10.00">CConfigurableElement</text>
<text text-anchor="middle" x="226" y="-388" font-family="Verdana" font-size="10.00">::serializeXmlSettings</text>
</a>
</g>
<!-- Node1&#45;&gt;Node2 -->
<g id="edge2" class="edge"><title>Node1&#45;&gt;Node2</title>
<path fill="none" stroke="midnightblue" d="M58.9639,-233.305C69.8741,-266.918 96.237,-334.07 142,-371 148.653,-376.369 156.415,-380.633 164.482,-384.019"/>
<polygon fill="midnightblue" stroke="midnightblue" points="62.273,-232.16 55.9596,-223.651 55.5892,-234.24 62.273,-232.16"/>
</g>
<!-- Node4 -->
<g id="node8" class="node"><title>Node4</title>
<a xlink:href="classCElement.html#a49563131c5e78cc693b5c7e9b08dc787" target="_top" xlink:title="CElement::dumpContent">
<polygon fill="white" stroke="black" points="158.5,-340.5 158.5,-361.5 293.5,-361.5 293.5,-340.5 158.5,-340.5"/>
<text text-anchor="middle" x="226" y="-348.5" font-family="Verdana" font-size="10.00">CElement::dumpContent</text>
</a>
</g>
<!-- Node1&#45;&gt;Node4 -->
<g id="edge8" class="edge"><title>Node1&#45;&gt;Node4</title>
<path fill="none" stroke="midnightblue" d="M62.4622,-232.919C76.1661,-259.536 104.106,-306.218 142,-331 147.897,-334.856 154.46,-337.971 161.245,-340.486"/>
<polygon fill="midnightblue" stroke="midnightblue" points="65.5061,-231.18 57.9159,-223.788 59.2398,-234.3 65.5061,-231.18"/>
</g>
<!-- Node5 -->
<g id="node10" class="node"><title>Node5</title>
<a xlink:href="classCElement.html#a8c87fea54766f49f45346713d9d09880" target="_top" xlink:title="CElement::showProperties">
<polygon fill="white" stroke="black" points="155,-300.5 155,-321.5 297,-321.5 297,-300.5 155,-300.5"/>
<text text-anchor="middle" x="226" y="-308.5" font-family="Verdana" font-size="10.00">CElement::showProperties</text>
</a>
</g>
<!-- Node1&#45;&gt;Node5 -->
<g id="edge10" class="edge"><title>Node1&#45;&gt;Node5</title>
<path fill="none" stroke="midnightblue" d="M68.7053,-231.172C85.1806,-249.075 112.713,-275.876 142,-291 149.326,-294.783 157.381,-297.864 165.514,-300.369"/>
<polygon fill="midnightblue" stroke="midnightblue" points="71.2327,-228.748 61.947,-223.647 66.0245,-233.426 71.2327,-228.748"/>
</g>
<!-- Node6 -->
<g id="node12" class="node"><title>Node6</title>
<a xlink:href="classCElement.html#aee22d6b038603b6481a8f029bf59ff3d" target="_top" xlink:title="Serialize the children to XML. ">
<polygon fill="white" stroke="black" points="159,-260.5 159,-281.5 293,-281.5 293,-260.5 159,-260.5"/>
<text text-anchor="middle" x="226" y="-268.5" font-family="Verdana" font-size="10.00">CElement::childrenToXml</text>
</a>
</g>
<!-- Node1&#45;&gt;Node6 -->
<g id="edge12" class="edge"><title>Node1&#45;&gt;Node6</title>
<path fill="none" stroke="midnightblue" d="M84.2633,-227.892C101.104,-235.518 122.394,-244.532 142,-251 152.677,-254.522 164.308,-257.697 175.417,-260.426"/>
<polygon fill="midnightblue" stroke="midnightblue" points="85.4565,-224.589 74.9086,-223.593 82.5331,-230.949 85.4565,-224.589"/>
</g>
<!-- Node8 -->
<g id="node17" class="node"><title>Node8</title>
<a xlink:href="classCElement.html#a3ff0037c4b4a11d37cf53d7a818e4f81" target="_top" xlink:title="CElement::findAscendantOfKind">
<polygon fill="white" stroke="black" points="142,-202.5 142,-223.5 310,-223.5 310,-202.5 142,-202.5"/>
<text text-anchor="middle" x="226" y="-210.5" font-family="Verdana" font-size="10.00">CElement::findAscendantOfKind</text>
</a>
</g>
<!-- Node1&#45;&gt;Node8 -->
<g id="edge18" class="edge"><title>Node1&#45;&gt;Node8</title>
<path fill="none" stroke="midnightblue" d="M115.964,-213C124.411,-213 133.181,-213 141.919,-213"/>
<polygon fill="midnightblue" stroke="midnightblue" points="115.846,-209.5 105.846,-213 115.846,-216.5 115.846,-209.5"/>
</g>
<!-- Node9 -->
<g id="node20" class="node"><title>Node9</title>
<a xlink:href="classCElement.html#acee1af3e8516a211731a59b85727c6b9" target="_top" xlink:title="CElement::findChildOfKind">
<polygon fill="white" stroke="black" points="156,-162.5 156,-183.5 296,-183.5 296,-162.5 156,-162.5"/>
<text text-anchor="middle" x="226" y="-170.5" font-family="Verdana" font-size="10.00">CElement::findChildOfKind</text>
</a>
</g>
<!-- Node1&#45;&gt;Node9 -->
<g id="edge22" class="edge"><title>Node1&#45;&gt;Node9</title>
<path fill="none" stroke="midnightblue" d="M108.214,-200.234C131.546,-194.839 158.388,-188.633 180.55,-183.509"/>
<polygon fill="midnightblue" stroke="midnightblue" points="107.408,-196.828 98.4537,-202.49 108.985,-203.648 107.408,-196.828"/>
</g>
<!-- Node13 -->
<g id="node29" class="node"><title>Node13</title>
<a xlink:href="classCElement.html#a893e7d2d24391fd0279245c7bda1e468" target="_top" xlink:title="CElement::getQualifiedPath">
<polygon fill="white" stroke="black" points="152.5,-122.5 152.5,-143.5 299.5,-143.5 299.5,-122.5 152.5,-122.5"/>
<text text-anchor="middle" x="226" y="-130.5" font-family="Verdana" font-size="10.00">CElement::getQualifiedPath</text>
</a>
</g>
<!-- Node1&#45;&gt;Node13 -->
<g id="edge32" class="edge"><title>Node1&#45;&gt;Node13</title>
<path fill="none" stroke="midnightblue" d="M73.6103,-195.937C90.8844,-182.446 116.715,-164.094 142,-153 150.511,-149.266 159.827,-146.167 169.058,-143.615"/>
<polygon fill="midnightblue" stroke="midnightblue" points="71.0381,-193.512 65.4051,-202.486 75.4045,-198.983 71.0381,-193.512"/>
</g>
<!-- Node15 -->
<g id="node34" class="node"><title>Node15</title>
<a xlink:href="classCElement.html#af07c1b866509eb33bd8019d6ff8fef21" target="_top" xlink:title="CElement::computeStructure\lChecksum">
<polygon fill="white" stroke="black" points="147.5,-52 147.5,-86 304.5,-86 304.5,-52 147.5,-52"/>
<text text-anchor="start" x="155.5" y="-73" font-family="Verdana" font-size="10.00">CElement::computeStructure</text>
<text text-anchor="middle" x="226" y="-60" font-family="Verdana" font-size="10.00">Checksum</text>
</a>
</g>
<!-- Node1&#45;&gt;Node15 -->
<g id="edge38" class="edge"><title>Node1&#45;&gt;Node15</title>
<path fill="none" stroke="midnightblue" d="M66.448,-194.144C82.5586,-172.534 111.251,-137.014 142,-113 155.364,-102.563 171.572,-93.4019 186.173,-86.1794"/>
<polygon fill="midnightblue" stroke="midnightblue" points="63.6197,-192.082 60.5329,-202.218 69.2664,-196.219 63.6197,-192.082"/>
</g>
<!-- Node16 -->
<g id="node37" class="node"><title>Node16</title>
<a xlink:href="classCInstanceConfigurableElement.html#aa5e8dc0766c8bb045e61c577e114af10" target="_top" xlink:title="CInstanceConfigurableElement\l::getKind">
<polygon fill="white" stroke="black" points="144,-0 144,-34 308,-34 308,-0 144,-0"/>
<text text-anchor="start" x="152" y="-21" font-family="Verdana" font-size="10.00">CInstanceConfigurableElement</text>
<text text-anchor="middle" x="226" y="-8" font-family="Verdana" font-size="10.00">::getKind</text>
</a>
</g>
<!-- Node1&#45;&gt;Node16 -->
<g id="edge42" class="edge"><title>Node1&#45;&gt;Node16</title>
<path fill="none" stroke="midnightblue" d="M58.0905,-192.67C68.0534,-157.065 93.5101,-83.3753 142,-43 146.106,-39.5811 150.659,-36.611 155.461,-34.031"/>
<polygon fill="midnightblue" stroke="midnightblue" points="54.6858,-191.854 55.4876,-202.419 61.4489,-193.66 54.6858,-191.854"/>
</g>
<!-- Node2&#45;&gt;Node2 -->
<g id="edge6" class="edge"><title>Node2&#45;&gt;Node2</title>
<path fill="none" stroke="midnightblue" d="M196.046,-424.318C200.253,-428.864 210.237,-432 226,-432 251.867,-432 262.174,-423.556 256.919,-414.288"/>
<polygon fill="midnightblue" stroke="midnightblue" points="199.523,-423.906 195.081,-414.288 192.555,-424.577 199.523,-423.906"/>
</g>
<!-- Node3 -->
<g id="node5" class="node"><title>Node3</title>
<a xlink:href="classCAreaConfiguration.html#a6b8c95a79343ee9823b026d74184e798" target="_top" xlink:title="CAreaConfiguration\l::serializeXmlSettings">
<polygon fill="white" stroke="black" points="361.5,-380 361.5,-414 480.5,-414 480.5,-380 361.5,-380"/>
<text text-anchor="start" x="369.5" y="-401" font-family="Verdana" font-size="10.00">CAreaConfiguration</text>
<text text-anchor="middle" x="421" y="-388" font-family="Verdana" font-size="10.00">::serializeXmlSettings</text>
</a>
</g>
<!-- Node2&#45;&gt;Node3 -->
<g id="edge4" class="edge"><title>Node2&#45;&gt;Node3</title>
<path fill="none" stroke="midnightblue" d="M297.805,-397C318.706,-397 341.303,-397 361.368,-397"/>
<polygon fill="midnightblue" stroke="midnightblue" points="297.699,-393.5 287.699,-397 297.699,-400.5 297.699,-393.5"/>
</g>
<!-- Node7 -->
<g id="node14" class="node"><title>Node7</title>
<a xlink:href="classCElement.html#a7ce1bde0fda5cf412b652000cab473e4" target="_top" xlink:title="CElement::toXml">
<polygon fill="white" stroke="black" points="372.5,-260.5 372.5,-281.5 469.5,-281.5 469.5,-260.5 372.5,-260.5"/>
<text text-anchor="middle" x="421" y="-268.5" font-family="Verdana" font-size="10.00">CElement::toXml</text>
</a>
</g>
<!-- Node6&#45;&gt;Node7 -->
<g id="edge14" class="edge"><title>Node6&#45;&gt;Node7</title>
<path fill="none" stroke="midnightblue" d="M303.304,-264.38C326.549,-264.076 351.396,-264.304 372.241,-265.064"/>
<polygon fill="midnightblue" stroke="midnightblue" points="303.048,-260.884 293.108,-264.55 303.165,-267.883 303.048,-260.884"/>
</g>
<!-- Node7&#45;&gt;Node6 -->
<g id="edge16" class="edge"><title>Node7&#45;&gt;Node6</title>
<path fill="none" stroke="midnightblue" d="M362.152,-277.255C340.386,-277.842 315.553,-277.907 293.108,-277.45"/>
<polygon fill="midnightblue" stroke="midnightblue" points="362.357,-280.75 372.241,-276.936 362.136,-273.753 362.357,-280.75"/>
</g>
<!-- Node8&#45;&gt;Node8 -->
<g id="edge20" class="edge"><title>Node8&#45;&gt;Node8</title>
<path fill="none" stroke="midnightblue" d="M193.996,-232.679C195.711,-237.975 206.379,-242 226,-242 255.898,-242 265.008,-232.653 253.329,-223.708"/>
<polygon fill="midnightblue" stroke="midnightblue" points="197.154,-234.194 198.671,-223.708 190.946,-230.959 197.154,-234.194"/>
</g>
<!-- Node10 -->
<g id="node22" class="node"><title>Node10</title>
<a xlink:href="classCElement.html#a1978d50e2db432e7b8f0928f33d3f01a" target="_top" xlink:title="CElement::fromXml">
<polygon fill="white" stroke="black" points="366,-171.5 366,-192.5 476,-192.5 476,-171.5 366,-171.5"/>
<text text-anchor="middle" x="421" y="-179.5" font-family="Verdana" font-size="10.00">CElement::fromXml</text>
</a>
</g>
<!-- Node9&#45;&gt;Node10 -->
<g id="edge24" class="edge"><title>Node9&#45;&gt;Node10</title>
<path fill="none" stroke="midnightblue" d="M306.187,-176.701C326.245,-177.627 347.313,-178.599 365.847,-179.454"/>
<polygon fill="midnightblue" stroke="midnightblue" points="306.275,-173.201 296.124,-176.236 305.952,-180.194 306.275,-173.201"/>
</g>
<!-- Node10&#45;&gt;Node10 -->
<g id="edge30" class="edge"><title>Node10&#45;&gt;Node10</title>
<path fill="none" stroke="midnightblue" d="M389.368,-201.679C391.063,-206.975 401.607,-211 421,-211 450.551,-211 459.555,-201.653 448.011,-192.708"/>
<polygon fill="midnightblue" stroke="midnightblue" points="392.522,-203.201 393.989,-192.708 386.299,-199.996 392.522,-203.201"/>
</g>
<!-- Node11 -->
<g id="node24" class="node"><title>Node11</title>
<a xlink:href="classCComponentLibrary.html#ad4cc928cda43371fb31f20394e8e04e5" target="_top" xlink:title="CComponentLibrary::\lfromXml">
<polygon fill="white" stroke="black" points="532.5,-165 532.5,-199 649.5,-199 649.5,-165 532.5,-165"/>
<text text-anchor="start" x="540.5" y="-186" font-family="Verdana" font-size="10.00">CComponentLibrary::</text>
<text text-anchor="middle" x="591" y="-173" font-family="Verdana" font-size="10.00">fromXml</text>
</a>
</g>
<!-- Node10&#45;&gt;Node11 -->
<g id="edge26" class="edge"><title>Node10&#45;&gt;Node11</title>
<path fill="none" stroke="midnightblue" d="M486.472,-182C501.554,-182 517.503,-182 532.277,-182"/>
<polygon fill="midnightblue" stroke="midnightblue" points="486.194,-178.5 476.194,-182 486.194,-185.5 486.194,-178.5"/>
</g>
<!-- Node12 -->
<g id="node26" class="node"><title>Node12</title>
<a xlink:href="classCSubsystem.html#aa114a31f4aa4b0f47b3c616b721854d4" target="_top" xlink:title="CSubsystem::fromXml">
<polygon fill="white" stroke="black" points="686,-171.5 686,-192.5 810,-192.5 810,-171.5 686,-171.5"/>
<text text-anchor="middle" x="748" y="-179.5" font-family="Verdana" font-size="10.00">CSubsystem::fromXml</text>
</a>
</g>
<!-- Node11&#45;&gt;Node12 -->
<g id="edge28" class="edge"><title>Node11&#45;&gt;Node12</title>
<path fill="none" stroke="midnightblue" d="M659.942,-182C668.572,-182 677.359,-182 685.876,-182"/>
<polygon fill="midnightblue" stroke="midnightblue" points="659.908,-178.5 649.908,-182 659.908,-185.5 659.908,-178.5"/>
</g>
<!-- Node14 -->
<g id="node31" class="node"><title>Node14</title>
<a xlink:href="classCElement.html#a740c0b65f45d681c3d87196d72dd578c" target="_top" xlink:title="CElement::listQualifiedPaths">
<polygon fill="white" stroke="black" points="346,-113.5 346,-134.5 496,-134.5 496,-113.5 346,-113.5"/>
<text text-anchor="middle" x="421" y="-121.5" font-family="Verdana" font-size="10.00">CElement::listQualifiedPaths</text>
</a>
</g>
<!-- Node13&#45;&gt;Node14 -->
<g id="edge34" class="edge"><title>Node13&#45;&gt;Node14</title>
<path fill="none" stroke="midnightblue" d="M309.73,-129.136C321.745,-128.581 334.044,-128.013 345.878,-127.467"/>
<polygon fill="midnightblue" stroke="midnightblue" points="309.549,-125.64 299.721,-129.597 309.872,-132.633 309.549,-125.64"/>
</g>
<!-- Node14&#45;&gt;Node14 -->
<g id="edge36" class="edge"><title>Node14&#45;&gt;Node14</title>
<path fill="none" stroke="midnightblue" d="M389.368,-143.679C391.063,-148.975 401.607,-153 421,-153 450.551,-153 459.555,-143.653 448.011,-134.708"/>
<polygon fill="midnightblue" stroke="midnightblue" points="392.522,-145.201 393.989,-134.708 386.299,-141.996 392.522,-145.201"/>
</g>
<!-- Node15&#45;&gt;Node15 -->
<g id="edge40" class="edge"><title>Node15&#45;&gt;Node15</title>
<path fill="none" stroke="midnightblue" d="M196.046,-96.3176C200.253,-100.864 210.237,-104 226,-104 251.867,-104 262.174,-95.5562 256.919,-86.2878"/>
<polygon fill="midnightblue" stroke="midnightblue" points="199.523,-95.9063 195.081,-86.2878 192.555,-96.5773 199.523,-95.9063"/>
</g>
</g>
</svg>
