<?xml version="1.0" encoding="UTF-8" standalone="no"?>
<!DOCTYPE svg PUBLIC "-//W3C//DTD SVG 1.1//EN"
 "http://www.w3.org/Graphics/SVG/1.1/DTD/svg11.dtd">
<!-- Generated by graphviz version 2.26.3 (20100126.1600)
 -->
<!-- Title: CBinaryStream::open Pages: 1 -->
<svg width="498pt" height="94pt"
 viewBox="0.00 0.00 498.00 94.00" xmlns="http://www.w3.org/2000/svg" xmlns:xlink="http://www.w3.org/1999/xlink">
<g id="graph1" class="graph" transform="scale(1 1) rotate(0) translate(4 90)">
<title>CBinaryStream::open</title>
<polygon fill="white" stroke="white" points="-4,5 -4,-90 495,-90 495,5 -4,5"/>
<!-- Node1 -->
<g id="node1" class="node"><title>Node1</title>
<polygon fill="#bfbfbf" stroke="black" points="0.5,-32.5 0.5,-53.5 119.5,-53.5 119.5,-32.5 0.5,-32.5"/>
<text text-anchor="middle" x="60" y="-40.5" font-family="Verdana" font-size="10.00">CBinaryStream::open</text>
</g>
<!-- Node2 -->
<g id="node3" class="node"><title>Node2</title>
<a xlink:href="classCConfigurableDomains.html#ae9bf3db3133286cb842a613185b7145c" target="_top" xlink:title="CConfigurableDomains\l::serializeSettings">
<polygon fill="white" stroke="black" points="156,-26 156,-60 282,-60 282,-26 156,-26"/>
<text text-anchor="start" x="164" y="-47" font-family="Verdana" font-size="10.00">CConfigurableDomains</text>
<text text-anchor="middle" x="219" y="-34" font-family="Verdana" font-size="10.00">::serializeSettings</text>
</a>
</g>
<!-- Node1&#45;&gt;Node2 -->
<g id="edge2" class="edge"><title>Node1&#45;&gt;Node2</title>
<path fill="none" stroke="midnightblue" d="M129.744,-43C138.418,-43 147.25,-43 155.818,-43"/>
<polygon fill="midnightblue" stroke="midnightblue" points="129.658,-39.5001 119.658,-43 129.658,-46.5001 129.658,-39.5001"/>
</g>
<!-- Node3 -->
<g id="node5" class="node"><title>Node3</title>
<a xlink:href="classCParameterMgr.html#a119c70bbe044eceb5e8cae6cc72ca690" target="_top" xlink:title="CParameterMgr::importDomains\lBinary">
<polygon fill="white" stroke="black" points="318,-52 318,-86 490,-86 490,-52 318,-52"/>
<text text-anchor="start" x="326" y="-73" font-family="Verdana" font-size="10.00">CParameterMgr::importDomains</text>
<text text-anchor="middle" x="404" y="-60" font-family="Verdana" font-size="10.00">Binary</text>
</a>
</g>
<!-- Node2&#45;&gt;Node3 -->
<g id="edge4" class="edge"><title>Node2&#45;&gt;Node3</title>
<path fill="none" stroke="midnightblue" d="M292.284,-53.2993C300.699,-54.482 309.336,-55.6959 317.9,-56.8994"/>
<polygon fill="midnightblue" stroke="midnightblue" points="292.539,-49.8009 282.149,-51.875 291.565,-56.7328 292.539,-49.8009"/>
</g>
<!-- Node4 -->
<g id="node7" class="node"><title>Node4</title>
<a xlink:href="classCParameterMgr.html#a4ba2047e2257649af8a544d5b80396e2" target="_top" xlink:title="CParameterMgr::exportDomains\lBinary">
<polygon fill="white" stroke="black" points="318.5,-0 318.5,-34 489.5,-34 489.5,-0 318.5,-0"/>
<text text-anchor="start" x="326.5" y="-21" font-family="Verdana" font-size="10.00">CParameterMgr::exportDomains</text>
<text text-anchor="middle" x="404" y="-8" font-family="Verdana" font-size="10.00">Binary</text>
</a>
</g>
<!-- Node2&#45;&gt;Node4 -->
<g id="edge6" class="edge"><title>Node2&#45;&gt;Node4</title>
<path fill="none" stroke="midnightblue" d="M292.097,-32.7269C300.679,-31.5208 309.494,-30.282 318.228,-29.0544"/>
<polygon fill="midnightblue" stroke="midnightblue" points="291.565,-29.2672 282.149,-34.125 292.539,-36.1991 291.565,-29.2672"/>
</g>
</g>
</svg>
