<?xml version="1.0" encoding="UTF-8" standalone="no"?>
<!DOCTYPE svg PUBLIC "-//W3C//DTD SVG 1.1//EN"
 "http://www.w3.org/Graphics/SVG/1.1/DTD/svg11.dtd">
<!-- Generated by graphviz version 2.26.3 (20100126.1600)
 -->
<!-- Title: CElement::setName Pages: 1 -->
<svg width="908pt" height="122pt"
 viewBox="0.00 0.00 908.00 122.00" xmlns="http://www.w3.org/2000/svg" xmlns:xlink="http://www.w3.org/1999/xlink">
<g id="graph1" class="graph" transform="scale(1 1) rotate(0) translate(4 118)">
<title>CElement::setName</title>
<polygon fill="white" stroke="white" points="-4,5 -4,-118 905,-118 905,5 -4,5"/>
<!-- Node1 -->
<g id="node1" class="node"><title>Node1</title>
<polygon fill="#bfbfbf" stroke="black" points="0.5,-40.5 0.5,-61.5 113.5,-61.5 113.5,-40.5 0.5,-40.5"/>
<text text-anchor="middle" x="57" y="-48.5" font-family="Verdana" font-size="10.00">CElement::setName</text>
</g>
<!-- Node2 -->
<g id="node3" class="node"><title>Node2</title>
<a xlink:href="classCConfigurableDomain.html#aa1fdeb04cae19531f2588e0419b53b84" target="_top" xlink:title="CConfigurableDomain\l::fromXml">
<polygon fill="white" stroke="black" points="160.5,-80 160.5,-114 281.5,-114 281.5,-80 160.5,-80"/>
<text text-anchor="start" x="168.5" y="-101" font-family="Verdana" font-size="10.00">CConfigurableDomain</text>
<text text-anchor="middle" x="221" y="-88" font-family="Verdana" font-size="10.00">::fromXml</text>
</a>
</g>
<!-- Node1&#45;&gt;Node2 -->
<g id="edge2" class="edge"><title>Node1&#45;&gt;Node2</title>
<path fill="none" stroke="midnightblue" d="M104.568,-64.3423C122.007,-69.2337 141.985,-74.8372 160.411,-80.0056"/>
<polygon fill="midnightblue" stroke="midnightblue" points="105.199,-60.8841 94.6249,-61.5533 103.308,-67.624 105.199,-60.8841"/>
</g>
<!-- Node3 -->
<g id="node5" class="node"><title>Node3</title>
<a xlink:href="classCElement.html#aa09118f89e5b3208ee92d0ec51151ccf" target="_top" xlink:title="CElement::rename">
<polygon fill="white" stroke="black" points="167.5,-40.5 167.5,-61.5 274.5,-61.5 274.5,-40.5 167.5,-40.5"/>
<text text-anchor="middle" x="221" y="-48.5" font-family="Verdana" font-size="10.00">CElement::rename</text>
</a>
</g>
<!-- Node1&#45;&gt;Node3 -->
<g id="edge4" class="edge"><title>Node1&#45;&gt;Node3</title>
<path fill="none" stroke="midnightblue" d="M124.198,-51C138.53,-51 153.486,-51 167.236,-51"/>
<polygon fill="midnightblue" stroke="midnightblue" points="123.899,-47.5001 113.899,-51 123.899,-54.5001 123.899,-47.5001"/>
</g>
<!-- Node9 -->
<g id="node17" class="node"><title>Node9</title>
<a xlink:href="classCEnumValuePair.html#a75b1589707a64d5cf13145acde4dad03" target="_top" xlink:title="CEnumValuePair::fromXml">
<polygon fill="white" stroke="black" points="150.5,-0.5 150.5,-21.5 291.5,-21.5 291.5,-0.5 150.5,-0.5"/>
<text text-anchor="middle" x="221" y="-8.5" font-family="Verdana" font-size="10.00">CEnumValuePair::fromXml</text>
</a>
</g>
<!-- Node1&#45;&gt;Node9 -->
<g id="edge16" class="edge"><title>Node1&#45;&gt;Node9</title>
<path fill="none" stroke="midnightblue" d="M109.935,-38.089C131.914,-32.7282 157.093,-26.587 177.914,-21.5087"/>
<polygon fill="midnightblue" stroke="midnightblue" points="108.975,-34.7205 100.089,-40.4905 110.634,-41.5212 108.975,-34.7205"/>
</g>
<!-- Node4 -->
<g id="node7" class="node"><title>Node4</title>
<a xlink:href="classCConfigurableDomain.html#a647386b073c9dd776f9cd9dcb24088a7" target="_top" xlink:title="CConfigurableDomain\l::renameConfiguration">
<polygon fill="white" stroke="black" points="329,-60 329,-94 453,-94 453,-60 329,-60"/>
<text text-anchor="start" x="337" y="-81" font-family="Verdana" font-size="10.00">CConfigurableDomain</text>
<text text-anchor="middle" x="391" y="-68" font-family="Verdana" font-size="10.00">::renameConfiguration</text>
</a>
</g>
<!-- Node3&#45;&gt;Node4 -->
<g id="edge6" class="edge"><title>Node3&#45;&gt;Node4</title>
<path fill="none" stroke="midnightblue" d="M285.079,-60.8003C299.452,-62.9986 314.676,-65.327 328.965,-67.5122"/>
<polygon fill="midnightblue" stroke="midnightblue" points="285.203,-57.2787 274.789,-59.2266 284.145,-64.1982 285.203,-57.2787"/>
</g>
<!-- Node7 -->
<g id="node13" class="node"><title>Node7</title>
<a xlink:href="classCConfigurableDomains.html#a5191495863bf95f1fc3beb545b410269" target="_top" xlink:title="CConfigurableDomains\l::renameDomain">
<polygon fill="white" stroke="black" points="328,-8 328,-42 454,-42 454,-8 328,-8"/>
<text text-anchor="start" x="336" y="-29" font-family="Verdana" font-size="10.00">CConfigurableDomains</text>
<text text-anchor="middle" x="391" y="-16" font-family="Verdana" font-size="10.00">::renameDomain</text>
</a>
</g>
<!-- Node3&#45;&gt;Node7 -->
<g id="edge12" class="edge"><title>Node3&#45;&gt;Node7</title>
<path fill="none" stroke="midnightblue" d="M284.843,-41.2358C298.882,-39.0887 313.743,-36.8157 327.759,-34.6722"/>
<polygon fill="midnightblue" stroke="midnightblue" points="284.145,-37.8018 274.789,-42.7734 285.203,-44.7213 284.145,-37.8018"/>
</g>
<!-- Node5 -->
<g id="node9" class="node"><title>Node5</title>
<a xlink:href="classCConfigurableDomains.html#a052bfda8fb27ff5a1eeb0a53444031e8" target="_top" xlink:title="CConfigurableDomains\l::renameConfiguration">
<polygon fill="white" stroke="black" points="514,-60 514,-94 640,-94 640,-60 514,-60"/>
<text text-anchor="start" x="522" y="-81" font-family="Verdana" font-size="10.00">CConfigurableDomains</text>
<text text-anchor="middle" x="577" y="-68" font-family="Verdana" font-size="10.00">::renameConfiguration</text>
</a>
</g>
<!-- Node4&#45;&gt;Node5 -->
<g id="edge8" class="edge"><title>Node4&#45;&gt;Node5</title>
<path fill="none" stroke="midnightblue" d="M463.429,-77C480.092,-77 497.683,-77 513.913,-77"/>
<polygon fill="midnightblue" stroke="midnightblue" points="463.194,-73.5001 453.194,-77 463.194,-80.5001 463.194,-73.5001"/>
</g>
<!-- Node6 -->
<g id="node11" class="node"><title>Node6</title>
<a xlink:href="classCParameterMgr.html#af73dc2735e178eb3571400b76172b03e" target="_top" xlink:title="CParameterMgr::renameConfiguration">
<polygon fill="white" stroke="black" points="700.5,-66.5 700.5,-87.5 899.5,-87.5 899.5,-66.5 700.5,-66.5"/>
<text text-anchor="middle" x="800" y="-74.5" font-family="Verdana" font-size="10.00">CParameterMgr::renameConfiguration</text>
</a>
</g>
<!-- Node5&#45;&gt;Node6 -->
<g id="edge10" class="edge"><title>Node5&#45;&gt;Node6</title>
<path fill="none" stroke="midnightblue" d="M650.35,-77C666.374,-77 683.594,-77 700.445,-77"/>
<polygon fill="midnightblue" stroke="midnightblue" points="650.009,-73.5001 640.009,-77 650.009,-80.5001 650.009,-73.5001"/>
</g>
<!-- Node8 -->
<g id="node15" class="node"><title>Node8</title>
<a xlink:href="classCParameterMgr.html#a7d8898361dc42076dccb72489e3e7a43" target="_top" xlink:title="CParameterMgr::renameDomain">
<polygon fill="white" stroke="black" points="490.5,-14.5 490.5,-35.5 663.5,-35.5 663.5,-14.5 490.5,-14.5"/>
<text text-anchor="middle" x="577" y="-22.5" font-family="Verdana" font-size="10.00">CParameterMgr::renameDomain</text>
</a>
</g>
<!-- Node7&#45;&gt;Node8 -->
<g id="edge14" class="edge"><title>Node7&#45;&gt;Node8</title>
<path fill="none" stroke="midnightblue" d="M464.429,-25C472.899,-25 481.596,-25 490.221,-25"/>
<polygon fill="midnightblue" stroke="midnightblue" points="464.231,-21.5001 454.231,-25 464.231,-28.5001 464.231,-21.5001"/>
</g>
</g>
</svg>
