<?xml version="1.0" encoding="UTF-8" standalone="no"?>
<!DOCTYPE svg PUBLIC "-//W3C//DTD SVG 1.1//EN"
 "http://www.w3.org/Graphics/SVG/1.1/DTD/svg11.dtd">
<!-- Generated by graphviz version 2.26.3 (20100126.1600)
 -->
<!-- Title: CParameterType::signExtend Pages: 1 -->
<svg width="342pt" height="354pt"
 viewBox="0.00 0.00 342.00 354.00" xmlns="http://www.w3.org/2000/svg" xmlns:xlink="http://www.w3.org/1999/xlink">
<g id="graph1" class="graph" transform="scale(1 1) rotate(0) translate(4 350)">
<title>CParameterType::signExtend</title>
<polygon fill="white" stroke="white" points="-4,5 -4,-350 339,-350 339,5 -4,5"/>
<!-- Node1 -->
<g id="node1" class="node"><title>Node1</title>
<polygon fill="#bfbfbf" stroke="black" points="0.5,-162.5 0.5,-183.5 153.5,-183.5 153.5,-162.5 0.5,-162.5"/>
<text text-anchor="middle" x="77" y="-170.5" font-family="Verdana" font-size="10.00">CParameterType::signExtend</text>
</g>
<!-- Node2 -->
<g id="node3" class="node"><title>Node2</title>
<a xlink:href="classCEnumParameterType.html#a843bba6b2e2b5b516b7939f8bc4641ab" target="_top" xlink:title="Conversion. ">
<polygon fill="white" stroke="black" points="201,-312 201,-346 323,-346 323,-312 201,-312"/>
<text text-anchor="start" x="209" y="-333" font-family="Verdana" font-size="10.00">CEnumParameterType</text>
<text text-anchor="middle" x="262" y="-320" font-family="Verdana" font-size="10.00">::toBlackboard</text>
</a>
</g>
<!-- Node1&#45;&gt;Node2 -->
<g id="edge2" class="edge"><title>Node1&#45;&gt;Node2</title>
<path fill="none" stroke="midnightblue" d="M89.0448,-192.249C107.527,-220.322 145.457,-272.468 190,-303 194.823,-306.306 200.116,-309.244 205.573,-311.842"/>
<polygon fill="midnightblue" stroke="midnightblue" points="91.9031,-190.223 83.5411,-183.717 86.0208,-194.018 91.9031,-190.223"/>
</g>
<!-- Node3 -->
<g id="node5" class="node"><title>Node3</title>
<a xlink:href="classCEnumParameterType.html#a0bd3061022ff86f0a244575b89ab8a48" target="_top" xlink:title="CEnumParameterType\l::fromBlackboard">
<polygon fill="white" stroke="black" points="201,-260 201,-294 323,-294 323,-260 201,-260"/>
<text text-anchor="start" x="209" y="-281" font-family="Verdana" font-size="10.00">CEnumParameterType</text>
<text text-anchor="middle" x="262" y="-268" font-family="Verdana" font-size="10.00">::fromBlackboard</text>
</a>
</g>
<!-- Node1&#45;&gt;Node3 -->
<g id="edge4" class="edge"><title>Node1&#45;&gt;Node3</title>
<path fill="none" stroke="midnightblue" d="M97.8105,-189.819C119.732,-206.932 155.758,-233.375 190,-251 196.263,-254.224 203.018,-257.227 209.794,-259.963"/>
<polygon fill="midnightblue" stroke="midnightblue" points="99.8797,-186.993 89.8634,-183.54 95.54,-192.486 99.8797,-186.993"/>
</g>
<!-- Node4 -->
<g id="node7" class="node"><title>Node4</title>
<a xlink:href="classCFixedPointParameterType.html#a915d48511911653dc8ddf03cf39dc0ec" target="_top" xlink:title="CFixedPointParameterType\l::fromBlackboard">
<polygon fill="white" stroke="black" points="190.5,-208 190.5,-242 333.5,-242 333.5,-208 190.5,-208"/>
<text text-anchor="start" x="198.5" y="-229" font-family="Verdana" font-size="10.00">CFixedPointParameterType</text>
<text text-anchor="middle" x="262" y="-216" font-family="Verdana" font-size="10.00">::fromBlackboard</text>
</a>
</g>
<!-- Node1&#45;&gt;Node4 -->
<g id="edge6" class="edge"><title>Node1&#45;&gt;Node4</title>
<path fill="none" stroke="midnightblue" d="M124.149,-186.253C147.607,-192.846 176.235,-200.893 201.312,-207.942"/>
<polygon fill="midnightblue" stroke="midnightblue" points="125.012,-182.86 114.438,-183.523 123.117,-189.598 125.012,-182.86"/>
</g>
<!-- Node5 -->
<g id="node9" class="node"><title>Node5</title>
<a xlink:href="classCIntegerParameterType.html#a8d8e329f5f61b6e50108e7fe1a7f7446" target="_top" xlink:title="CIntegerParameterType\l::fromXml">
<polygon fill="white" stroke="black" points="198,-156 198,-190 326,-190 326,-156 198,-156"/>
<text text-anchor="start" x="206" y="-177" font-family="Verdana" font-size="10.00">CIntegerParameterType</text>
<text text-anchor="middle" x="262" y="-164" font-family="Verdana" font-size="10.00">::fromXml</text>
</a>
</g>
<!-- Node1&#45;&gt;Node5 -->
<g id="edge8" class="edge"><title>Node1&#45;&gt;Node5</title>
<path fill="none" stroke="midnightblue" d="M163.649,-173C175.16,-173 186.792,-173 197.829,-173"/>
<polygon fill="midnightblue" stroke="midnightblue" points="163.582,-169.5 153.582,-173 163.582,-176.5 163.582,-169.5"/>
</g>
<!-- Node6 -->
<g id="node11" class="node"><title>Node6</title>
<a xlink:href="classCIntegerParameterType.html#aac12d359362c7ab46915cadb574bca76" target="_top" xlink:title="Conversion. ">
<polygon fill="white" stroke="black" points="198,-104 198,-138 326,-138 326,-104 198,-104"/>
<text text-anchor="start" x="206" y="-125" font-family="Verdana" font-size="10.00">CIntegerParameterType</text>
<text text-anchor="middle" x="262" y="-112" font-family="Verdana" font-size="10.00">::toBlackboard</text>
</a>
</g>
<!-- Node1&#45;&gt;Node6 -->
<g id="edge10" class="edge"><title>Node1&#45;&gt;Node6</title>
<path fill="none" stroke="midnightblue" d="M124.149,-159.747C147.607,-153.154 176.235,-145.107 201.312,-138.058"/>
<polygon fill="midnightblue" stroke="midnightblue" points="123.117,-156.402 114.438,-162.477 125.012,-163.14 123.117,-156.402"/>
</g>
<!-- Node7 -->
<g id="node13" class="node"><title>Node7</title>
<a xlink:href="classCIntegerParameterType.html#a20f5eb6c8e4cea3d1f0ccdb92e1d008c" target="_top" xlink:title="CIntegerParameterType\l::fromBlackboard">
<polygon fill="white" stroke="black" points="198,-52 198,-86 326,-86 326,-52 198,-52"/>
<text text-anchor="start" x="206" y="-73" font-family="Verdana" font-size="10.00">CIntegerParameterType</text>
<text text-anchor="middle" x="262" y="-60" font-family="Verdana" font-size="10.00">::fromBlackboard</text>
</a>
</g>
<!-- Node1&#45;&gt;Node7 -->
<g id="edge12" class="edge"><title>Node1&#45;&gt;Node7</title>
<path fill="none" stroke="midnightblue" d="M97.8105,-156.181C119.732,-139.068 155.758,-112.625 190,-95 196.263,-91.7764 203.018,-88.7732 209.794,-86.0373"/>
<polygon fill="midnightblue" stroke="midnightblue" points="95.54,-153.514 89.8634,-162.46 99.8797,-159.007 95.54,-153.514"/>
</g>
<!-- Node8 -->
<g id="node15" class="node"><title>Node8</title>
<a xlink:href="classCIntegerParameterType.html#ae884925dcc3a114c6a2e4531e2c9e9b1" target="_top" xlink:title="Converts size optimized integer input data (int8, int16, int32) to plain int. ">
<polygon fill="white" stroke="black" points="198,-0 198,-34 326,-34 326,-0 198,-0"/>
<text text-anchor="start" x="206" y="-21" font-family="Verdana" font-size="10.00">CIntegerParameterType</text>
<text text-anchor="middle" x="262" y="-8" font-family="Verdana" font-size="10.00">::toPlainInteger</text>
</a>
</g>
<!-- Node1&#45;&gt;Node8 -->
<g id="edge14" class="edge"><title>Node1&#45;&gt;Node8</title>
<path fill="none" stroke="midnightblue" d="M89.0448,-153.751C107.527,-125.678 145.457,-73.5317 190,-43 194.823,-39.6939 200.116,-36.7562 205.573,-34.1579"/>
<polygon fill="midnightblue" stroke="midnightblue" points="86.0208,-151.982 83.5411,-162.283 91.9031,-155.777 86.0208,-151.982"/>
</g>
</g>
</svg>
