<?xml version="1.0" encoding="UTF-8" standalone="no"?>
<!DOCTYPE svg PUBLIC "-//W3C//DTD SVG 1.1//EN"
 "http://www.w3.org/Graphics/SVG/1.1/DTD/svg11.dtd">
<!-- Generated by graphviz version 2.26.3 (20100126.1600)
 -->
<!-- Title: CSocket::read Pages: 1 -->
<svg width="498pt" height="30pt"
 viewBox="0.00 0.00 498.00 30.00" xmlns="http://www.w3.org/2000/svg" xmlns:xlink="http://www.w3.org/1999/xlink">
<g id="graph1" class="graph" transform="scale(1 1) rotate(0) translate(4 26)">
<title>CSocket::read</title>
<polygon fill="white" stroke="white" points="-4,5 -4,-26 495,-26 495,5 -4,5"/>
<!-- Node1 -->
<g id="node1" class="node"><title>Node1</title>
<polygon fill="#bfbfbf" stroke="black" points="0,-0.5 0,-21.5 84,-21.5 84,-0.5 0,-0.5"/>
<text text-anchor="middle" x="42" y="-8.5" font-family="Verdana" font-size="10.00">CSocket::read</text>
</g>
<!-- Node2 -->
<g id="node3" class="node"><title>Node2</title>
<a xlink:href="classCMessage.html#a934d70aff67a456a92124664d6e78e84" target="_top" xlink:title="Write or read the message on pSocket. ">
<polygon fill="white" stroke="black" points="120.5,-0.5 120.5,-21.5 231.5,-21.5 231.5,-0.5 120.5,-0.5"/>
<text text-anchor="middle" x="176" y="-8.5" font-family="Verdana" font-size="10.00">CMessage::serialize</text>
</a>
</g>
<!-- Node1&#45;&gt;Node2 -->
<g id="edge2" class="edge"><title>Node1&#45;&gt;Node2</title>
<path fill="none" stroke="midnightblue" d="M94.2624,-11C102.821,-11 111.716,-11 120.353,-11"/>
<polygon fill="midnightblue" stroke="midnightblue" points="94.0308,-7.5001 84.0308,-11 94.0307,-14.5001 94.0308,-7.5001"/>
</g>
<!-- Node3 -->
<g id="node5" class="node"><title>Node3</title>
<a xlink:href="main_8cpp.html#af14c089a76390ab8b7424bb69fad6352" target="_top" xlink:title="sendAndDisplayCommand">
<polygon fill="white" stroke="black" points="268.5,-0.5 268.5,-21.5 411.5,-21.5 411.5,-0.5 268.5,-0.5"/>
<text text-anchor="middle" x="340" y="-8.5" font-family="Verdana" font-size="10.00">sendAndDisplayCommand</text>
</a>
</g>
<!-- Node2&#45;&gt;Node3 -->
<g id="edge4" class="edge"><title>Node2&#45;&gt;Node3</title>
<path fill="none" stroke="midnightblue" d="M241.65,-11C250.399,-11 259.407,-11 268.254,-11"/>
<polygon fill="midnightblue" stroke="midnightblue" points="241.523,-7.5001 231.523,-11 241.523,-14.5001 241.523,-7.5001"/>
</g>
<!-- Node4 -->
<g id="node7" class="node"><title>Node4</title>
<a xlink:href="main_8cpp.html#a0ddf1224851353fc92bfbff6f499fa97" target="_top" xlink:title="main">
<polygon fill="white" stroke="black" points="448.5,-0.5 448.5,-21.5 489.5,-21.5 489.5,-0.5 448.5,-0.5"/>
<text text-anchor="middle" x="469" y="-8.5" font-family="Verdana" font-size="10.00">main</text>
</a>
</g>
<!-- Node3&#45;&gt;Node4 -->
<g id="edge6" class="edge"><title>Node3&#45;&gt;Node4</title>
<path fill="none" stroke="midnightblue" d="M421.949,-11C431.656,-11 440.792,-11 448.386,-11"/>
<polygon fill="midnightblue" stroke="midnightblue" points="421.668,-7.5001 411.667,-11 421.667,-14.5001 421.668,-7.5001"/>
</g>
</g>
</svg>
