<?xml version="1.0" encoding="UTF-8" standalone="no"?>
<!DOCTYPE svg PUBLIC "-//W3C//DTD SVG 1.1//EN"
 "http://www.w3.org/Graphics/SVG/1.1/DTD/svg11.dtd">
<!-- Generated by graphviz version 2.26.3 (20100126.1600)
 -->
<!-- Title: CBooleanParameterType::toBlackboard Pages: 1 -->
<svg width="338pt" height="122pt"
 viewBox="0.00 0.00 338.00 122.00" xmlns="http://www.w3.org/2000/svg" xmlns:xlink="http://www.w3.org/1999/xlink">
<g id="graph1" class="graph" transform="scale(1 1) rotate(0) translate(4 118)">
<title>CBooleanParameterType::toBlackboard</title>
<polygon fill="white" stroke="white" points="-4,5 -4,-118 335,-118 335,5 -4,5"/>
<!-- Node1 -->
<g id="node1" class="node"><title>Node1</title>
<polygon fill="#bfbfbf" stroke="black" points="0,-46 0,-80 134,-80 134,-46 0,-46"/>
<text text-anchor="start" x="8" y="-67" font-family="Verdana" font-size="10.00">CBooleanParameterType</text>
<text text-anchor="middle" x="67" y="-54" font-family="Verdana" font-size="10.00">::toBlackboard</text>
</g>
<!-- Node2 -->
<g id="node3" class="node"><title>Node2</title>
<a xlink:href="classCErrorContext.html#a9d58b281c0d0fc9a6d3b83714cf812ef" target="_top" xlink:title="CErrorContext::setError">
<polygon fill="white" stroke="black" points="186,-92.5 186,-113.5 314,-113.5 314,-92.5 186,-92.5"/>
<text text-anchor="middle" x="250" y="-100.5" font-family="Verdana" font-size="10.00">CErrorContext::setError</text>
</a>
</g>
<!-- Node1&#45;&gt;Node2 -->
<g id="edge2" class="edge"><title>Node1&#45;&gt;Node2</title>
<path fill="none" stroke="midnightblue" d="M134.103,-77.6674C153.039,-81.8062 173.478,-86.2738 191.841,-90.2877"/>
<polygon fill="midnightblue" stroke="midnightblue" points="191.29,-93.7498 201.807,-92.466 192.785,-86.9112 191.29,-93.7498"/>
</g>
<!-- Node3 -->
<g id="node5" class="node"><title>Node3</title>
<a xlink:href="classCErrorContext.html#afdd38e8aaaf045faaf575cf3ccbbc37b" target="_top" xlink:title="CErrorContext::appendToError">
<polygon fill="white" stroke="black" points="170.5,-52.5 170.5,-73.5 329.5,-73.5 329.5,-52.5 170.5,-52.5"/>
<text text-anchor="middle" x="250" y="-60.5" font-family="Verdana" font-size="10.00">CErrorContext::appendToError</text>
</a>
</g>
<!-- Node1&#45;&gt;Node3 -->
<g id="edge4" class="edge"><title>Node1&#45;&gt;Node3</title>
<path fill="none" stroke="midnightblue" d="M134.103,-63C142.608,-63 151.417,-63 160.204,-63"/>
<polygon fill="midnightblue" stroke="midnightblue" points="160.49,-66.5001 170.49,-63 160.49,-59.5001 160.49,-66.5001"/>
</g>
<!-- Node4 -->
<g id="node7" class="node"><title>Node4</title>
<a xlink:href="classCBooleanParameterType.html#a0e8c0863335cdca9486f53a12fd98f47" target="_top" xlink:title="CBooleanParameterType\l::getKind">
<polygon fill="white" stroke="black" points="183,-0 183,-34 317,-34 317,-0 183,-0"/>
<text text-anchor="start" x="191" y="-21" font-family="Verdana" font-size="10.00">CBooleanParameterType</text>
<text text-anchor="middle" x="250" y="-8" font-family="Verdana" font-size="10.00">::getKind</text>
</a>
</g>
<!-- Node1&#45;&gt;Node4 -->
<g id="edge6" class="edge"><title>Node1&#45;&gt;Node4</title>
<path fill="none" stroke="midnightblue" d="M134.103,-46.1325C146.784,-42.945 160.139,-39.5879 173.094,-36.3315"/>
<polygon fill="midnightblue" stroke="midnightblue" points="174.06,-39.6978 182.905,-33.8655 172.353,-32.909 174.06,-39.6978"/>
</g>
</g>
</svg>
