<?xml version="1.0" encoding="UTF-8" standalone="no"?>
<!DOCTYPE svg PUBLIC "-//W3C//DTD SVG 1.1//EN"
 "http://www.w3.org/Graphics/SVG/1.1/DTD/svg11.dtd">
<!-- Generated by graphviz version 2.26.3 (20100126.1600)
 -->
<!-- Title: CBaseParameter Pages: 1 -->
<svg width="306pt" height="450pt"
 viewBox="0.00 0.00 306.00 450.00" xmlns="http://www.w3.org/2000/svg" xmlns:xlink="http://www.w3.org/1999/xlink">
<g id="graph1" class="graph" transform="scale(1 1) rotate(0) translate(4 446)">
<title>CBaseParameter</title>
<polygon fill="white" stroke="white" points="-4,5 -4,-446 303,-446 303,5 -4,5"/>
<!-- Node1 -->
<g id="node1" class="node"><title>Node1</title>
<polygon fill="#bfbfbf" stroke="black" points="92,-116.5 92,-137.5 190,-137.5 190,-116.5 92,-116.5"/>
<text text-anchor="middle" x="141" y="-124.5" font-family="Verdana" font-size="10.00">CBaseParameter</text>
</g>
<!-- Node8 -->
<g id="node15" class="node"><title>Node8</title>
<a xlink:href="classCBitParameter.html" target="_top" xlink:title="CBitParameter">
<polygon fill="white" stroke="black" points="0,-58.5 0,-79.5 86,-79.5 86,-58.5 0,-58.5"/>
<text text-anchor="middle" x="43" y="-66.5" font-family="Verdana" font-size="10.00">CBitParameter</text>
</a>
</g>
<!-- Node1&#45;&gt;Node8 -->
<g id="edge14" class="edge"><title>Node1&#45;&gt;Node8</title>
<path fill="none" stroke="midnightblue" d="M114.136,-111.101C97.1802,-101.066 75.7469,-88.3808 60.8608,-79.5707"/>
<polygon fill="midnightblue" stroke="midnightblue" points="112.637,-114.281 123.025,-116.362 116.202,-108.257 112.637,-114.281"/>
</g>
<!-- Node9 -->
<g id="node17" class="node"><title>Node9</title>
<a xlink:href="classCParameter.html" target="_top" xlink:title="CParameter">
<polygon fill="white" stroke="black" points="104,-58.5 104,-79.5 178,-79.5 178,-58.5 104,-58.5"/>
<text text-anchor="middle" x="141" y="-66.5" font-family="Verdana" font-size="10.00">CParameter</text>
</a>
</g>
<!-- Node1&#45;&gt;Node9 -->
<g id="edge16" class="edge"><title>Node1&#45;&gt;Node9</title>
<path fill="none" stroke="midnightblue" d="M141,-106.191C141,-97.1684 141,-86.9941 141,-79.5707"/>
<polygon fill="midnightblue" stroke="midnightblue" points="137.5,-106.362 141,-116.362 144.5,-106.362 137.5,-106.362"/>
</g>
<!-- Node11 -->
<g id="node21" class="node"><title>Node11</title>
<a xlink:href="classCStringParameter.html" target="_top" xlink:title="CStringParameter">
<polygon fill="white" stroke="black" points="196,-58.5 196,-79.5 298,-79.5 298,-58.5 196,-58.5"/>
<text text-anchor="middle" x="247" y="-66.5" font-family="Verdana" font-size="10.00">CStringParameter</text>
</a>
</g>
<!-- Node1&#45;&gt;Node11 -->
<g id="edge20" class="edge"><title>Node1&#45;&gt;Node11</title>
<path fill="none" stroke="midnightblue" d="M169.296,-111.517C187.752,-101.419 211.356,-88.5032 227.681,-79.5707"/>
<polygon fill="midnightblue" stroke="midnightblue" points="167.535,-108.491 160.442,-116.362 170.895,-114.632 167.535,-108.491"/>
</g>
<!-- Node2 -->
<g id="node2" class="node"><title>Node2</title>
<a xlink:href="classCInstanceConfigurableElement.html" target="_top" xlink:title="CInstanceConfigurableElement">
<polygon fill="white" stroke="black" points="59,-174.5 59,-195.5 223,-195.5 223,-174.5 59,-174.5"/>
<text text-anchor="middle" x="141" y="-182.5" font-family="Verdana" font-size="10.00">CInstanceConfigurableElement</text>
</a>
</g>
<!-- Node2&#45;&gt;Node1 -->
<g id="edge2" class="edge"><title>Node2&#45;&gt;Node1</title>
<path fill="none" stroke="midnightblue" d="M141,-164.191C141,-155.168 141,-144.994 141,-137.571"/>
<polygon fill="midnightblue" stroke="midnightblue" points="137.5,-164.362 141,-174.362 144.5,-164.362 137.5,-164.362"/>
</g>
<!-- Node3 -->
<g id="node4" class="node"><title>Node3</title>
<a xlink:href="classCConfigurableElementWithMapping.html" target="_top" xlink:title="Base class for all Configurable Elements that can have a Mapping attribute. ">
<polygon fill="white" stroke="black" points="69.5,-233 69.5,-267 212.5,-267 212.5,-233 69.5,-233"/>
<text text-anchor="start" x="77.5" y="-254" font-family="Verdana" font-size="10.00">CConfigurableElementWith</text>
<text text-anchor="middle" x="141" y="-241" font-family="Verdana" font-size="10.00">Mapping</text>
</a>
</g>
<!-- Node3&#45;&gt;Node2 -->
<g id="edge4" class="edge"><title>Node3&#45;&gt;Node2</title>
<path fill="none" stroke="midnightblue" d="M141,-222.688C141,-213.242 141,-203.195 141,-195.852"/>
<polygon fill="midnightblue" stroke="midnightblue" points="137.5,-222.922 141,-232.922 144.5,-222.922 137.5,-222.922"/>
</g>
<!-- Node4 -->
<g id="node6" class="node"><title>Node4</title>
<a xlink:href="classCConfigurableElement.html" target="_top" xlink:title="CConfigurableElement">
<polygon fill="white" stroke="black" points="79.5,-304.5 79.5,-325.5 202.5,-325.5 202.5,-304.5 79.5,-304.5"/>
<text text-anchor="middle" x="141" y="-312.5" font-family="Verdana" font-size="10.00">CConfigurableElement</text>
</a>
</g>
<!-- Node4&#45;&gt;Node3 -->
<g id="edge6" class="edge"><title>Node4&#45;&gt;Node3</title>
<path fill="none" stroke="midnightblue" d="M141,-294.131C141,-285.405 141,-275.391 141,-267.11"/>
<polygon fill="midnightblue" stroke="midnightblue" points="137.5,-294.267 141,-304.267 144.5,-294.267 137.5,-294.267"/>
</g>
<!-- Node5 -->
<g id="node8" class="node"><title>Node5</title>
<a xlink:href="classCElement.html" target="_top" xlink:title="CElement">
<polygon fill="white" stroke="black" points="109.5,-362.5 109.5,-383.5 172.5,-383.5 172.5,-362.5 109.5,-362.5"/>
<text text-anchor="middle" x="141" y="-370.5" font-family="Verdana" font-size="10.00">CElement</text>
</a>
</g>
<!-- Node5&#45;&gt;Node4 -->
<g id="edge8" class="edge"><title>Node5&#45;&gt;Node4</title>
<path fill="none" stroke="midnightblue" d="M141,-352.191C141,-343.168 141,-332.994 141,-325.571"/>
<polygon fill="midnightblue" stroke="midnightblue" points="137.5,-352.362 141,-362.362 144.5,-352.362 137.5,-352.362"/>
</g>
<!-- Node6 -->
<g id="node10" class="node"><title>Node6</title>
<polygon fill="white" stroke="#bfbfbf" points="72.5,-420.5 72.5,-441.5 129.5,-441.5 129.5,-420.5 72.5,-420.5"/>
<text text-anchor="middle" x="101" y="-428.5" font-family="Verdana" font-size="10.00">IXmlSink</text>
</g>
<!-- Node6&#45;&gt;Node5 -->
<g id="edge10" class="edge"><title>Node6&#45;&gt;Node5</title>
<path fill="none" stroke="midnightblue" d="M114.132,-411.959C120.64,-402.522 128.253,-391.484 133.71,-383.571"/>
<polygon fill="midnightblue" stroke="midnightblue" points="111.133,-410.143 108.337,-420.362 116.895,-414.117 111.133,-410.143"/>
</g>
<!-- Node7 -->
<g id="node12" class="node"><title>Node7</title>
<polygon fill="white" stroke="#bfbfbf" points="146.5,-420.5 146.5,-441.5 217.5,-441.5 217.5,-420.5 146.5,-420.5"/>
<text text-anchor="middle" x="182" y="-428.5" font-family="Verdana" font-size="10.00">IXmlSource</text>
</g>
<!-- Node7&#45;&gt;Node5 -->
<g id="edge12" class="edge"><title>Node7&#45;&gt;Node5</title>
<path fill="none" stroke="midnightblue" d="M168.54,-411.959C161.869,-402.522 154.066,-391.484 148.472,-383.571"/>
<polygon fill="midnightblue" stroke="midnightblue" points="165.85,-414.216 174.48,-420.362 171.566,-410.176 165.85,-414.216"/>
</g>
<!-- Node10 -->
<g id="node19" class="node"><title>Node10</title>
<a xlink:href="classCArrayParameter.html" target="_top" xlink:title="CArrayParameter">
<polygon fill="white" stroke="black" points="91.5,-0.5 91.5,-21.5 190.5,-21.5 190.5,-0.5 91.5,-0.5"/>
<text text-anchor="middle" x="141" y="-8.5" font-family="Verdana" font-size="10.00">CArrayParameter</text>
</a>
</g>
<!-- Node9&#45;&gt;Node10 -->
<g id="edge18" class="edge"><title>Node9&#45;&gt;Node10</title>
<path fill="none" stroke="midnightblue" d="M141,-48.1906C141,-39.1684 141,-28.9941 141,-21.5707"/>
<polygon fill="midnightblue" stroke="midnightblue" points="137.5,-48.3619 141,-58.3619 144.5,-48.3619 137.5,-48.3619"/>
</g>
</g>
</svg>
