<?xml version="1.0" encoding="UTF-8" standalone="no"?>
<!DOCTYPE svg PUBLIC "-//W3C//DTD SVG 1.1//EN"
 "http://www.w3.org/Graphics/SVG/1.1/DTD/svg11.dtd">
<!-- Generated by graphviz version 2.26.3 (20100126.1600)
 -->
<!-- Title: CBitParameterBlockType::getSize Pages: 1 -->
<svg width="292pt" height="42pt"
 viewBox="0.00 0.00 292.00 42.00" xmlns="http://www.w3.org/2000/svg" xmlns:xlink="http://www.w3.org/1999/xlink">
<g id="graph1" class="graph" transform="scale(1 1) rotate(0) translate(4 38)">
<title>CBitParameterBlockType::getSize</title>
<polygon fill="white" stroke="white" points="-4,5 -4,-38 289,-38 289,5 -4,5"/>
<!-- Node1 -->
<g id="node1" class="node"><title>Node1</title>
<polygon fill="#bfbfbf" stroke="black" points="0.5,-0 0.5,-34 133.5,-34 133.5,-0 0.5,-0"/>
<text text-anchor="start" x="8.5" y="-21" font-family="Verdana" font-size="10.00">CBitParameterBlockType</text>
<text text-anchor="middle" x="67" y="-8" font-family="Verdana" font-size="10.00">::getSize</text>
</g>
<!-- Node2 -->
<g id="node3" class="node"><title>Node2</title>
<a xlink:href="classCBitParameterType.html#a76b208c42677a4a7a90494f348924403" target="_top" xlink:title="CBitParameterType::\lfromXml">
<polygon fill="white" stroke="black" points="170.5,-0 170.5,-34 283.5,-34 283.5,-0 170.5,-0"/>
<text text-anchor="start" x="178.5" y="-21" font-family="Verdana" font-size="10.00">CBitParameterType::</text>
<text text-anchor="middle" x="227" y="-8" font-family="Verdana" font-size="10.00">fromXml</text>
</a>
</g>
<!-- Node1&#45;&gt;Node2 -->
<g id="edge2" class="edge"><title>Node1&#45;&gt;Node2</title>
<path fill="none" stroke="midnightblue" d="M143.971,-17C152.908,-17 161.894,-17 170.484,-17"/>
<polygon fill="midnightblue" stroke="midnightblue" points="143.927,-13.5001 133.927,-17 143.927,-20.5001 143.927,-13.5001"/>
</g>
</g>
</svg>
