<?xml version="1.0" encoding="UTF-8" standalone="no"?>
<!DOCTYPE svg PUBLIC "-//W3C//DTD SVG 1.1//EN"
 "http://www.w3.org/Graphics/SVG/1.1/DTD/svg11.dtd">
<!-- Generated by graphviz version 2.26.3 (20100126.1600)
 -->
<!-- Title: CEnumParameterType::toXml Pages: 1 -->
<svg width="304pt" height="70pt"
 viewBox="0.00 0.00 304.00 70.00" xmlns="http://www.w3.org/2000/svg" xmlns:xlink="http://www.w3.org/1999/xlink">
<g id="graph1" class="graph" transform="scale(1 1) rotate(0) translate(4 66)">
<title>CEnumParameterType::toXml</title>
<polygon fill="white" stroke="white" points="-4,5 -4,-66 301,-66 301,5 -4,5"/>
<!-- Node1 -->
<g id="node1" class="node"><title>Node1</title>
<polygon fill="#bfbfbf" stroke="black" points="0,-14 0,-48 122,-48 122,-14 0,-14"/>
<text text-anchor="start" x="8" y="-35" font-family="Verdana" font-size="10.00">CEnumParameterType</text>
<text text-anchor="middle" x="61" y="-22" font-family="Verdana" font-size="10.00">::toXml</text>
</g>
<!-- Node2 -->
<g id="node3" class="node"><title>Node2</title>
<a xlink:href="classCElement.html#aacdd6d54c10cd1494a820d78be779362" target="_top" xlink:title="CElement::toString">
<polygon fill="white" stroke="black" points="173.5,-40.5 173.5,-61.5 280.5,-61.5 280.5,-40.5 173.5,-40.5"/>
<text text-anchor="middle" x="227" y="-48.5" font-family="Verdana" font-size="10.00">CElement::toString</text>
</a>
</g>
<!-- Node1&#45;&gt;Node2 -->
<g id="edge2" class="edge"><title>Node1&#45;&gt;Node2</title>
<path fill="none" stroke="midnightblue" d="M122.341,-38.3904C135.662,-39.9954 149.783,-41.6968 163.197,-43.3129"/>
<polygon fill="midnightblue" stroke="midnightblue" points="162.945,-46.8077 173.292,-44.5291 163.782,-39.858 162.945,-46.8077"/>
</g>
<!-- Node3 -->
<g id="node5" class="node"><title>Node3</title>
<a xlink:href="classCParameterType.html#adfe9fe947066e58a062f8126f246f71a" target="_top" xlink:title="CParameterType::getSize">
<polygon fill="white" stroke="black" points="158.5,-0.5 158.5,-21.5 295.5,-21.5 295.5,-0.5 158.5,-0.5"/>
<text text-anchor="middle" x="227" y="-8.5" font-family="Verdana" font-size="10.00">CParameterType::getSize</text>
</a>
</g>
<!-- Node1&#45;&gt;Node3 -->
<g id="edge4" class="edge"><title>Node1&#45;&gt;Node3</title>
<path fill="none" stroke="midnightblue" d="M122.341,-23.6096C130.771,-22.5938 139.522,-21.5395 148.212,-20.4926"/>
<polygon fill="midnightblue" stroke="midnightblue" points="148.851,-23.9409 158.361,-19.2698 148.014,-16.9911 148.851,-23.9409"/>
</g>
</g>
</svg>
