<?xml version="1.0" encoding="UTF-8" standalone="no"?>
<!DOCTYPE svg PUBLIC "-//W3C//DTD SVG 1.1//EN"
 "http://www.w3.org/Graphics/SVG/1.1/DTD/svg11.dtd">
<!-- Generated by graphviz version 2.26.3 (20100126.1600)
 -->
<!-- Title: CDomainConfiguration::isValid Pages: 1 -->
<svg width="516pt" height="56pt"
 viewBox="0.00 0.00 516.00 56.00" xmlns="http://www.w3.org/2000/svg" xmlns:xlink="http://www.w3.org/1999/xlink">
<g id="graph1" class="graph" transform="scale(1 1) rotate(0) translate(4 52)">
<title>CDomainConfiguration::isValid</title>
<polygon fill="white" stroke="white" points="-4,5 -4,-52 513,-52 513,5 -4,5"/>
<!-- Node1 -->
<g id="node1" class="node"><title>Node1</title>
<polygon fill="#bfbfbf" stroke="black" points="0.5,-7 0.5,-41 125.5,-41 125.5,-7 0.5,-7"/>
<text text-anchor="start" x="8.5" y="-28" font-family="Verdana" font-size="10.00">CDomainConfiguration</text>
<text text-anchor="middle" x="63" y="-15" font-family="Verdana" font-size="10.00">::isValid</text>
</g>
<!-- Node2 -->
<g id="node3" class="node"><title>Node2</title>
<a xlink:href="classCConfigurableDomain.html#ace240c416bae0554c2168c1b6e5d0d79" target="_top" xlink:title="CConfigurableDomain\l::isApplicableConfiguration\lValid">
<polygon fill="white" stroke="black" points="162.5,-0.5 162.5,-47.5 305.5,-47.5 305.5,-0.5 162.5,-0.5"/>
<text text-anchor="start" x="170.5" y="-34.5" font-family="Verdana" font-size="10.00">CConfigurableDomain</text>
<text text-anchor="start" x="170.5" y="-21.5" font-family="Verdana" font-size="10.00">::isApplicableConfiguration</text>
<text text-anchor="middle" x="234" y="-8.5" font-family="Verdana" font-size="10.00">Valid</text>
</a>
</g>
<!-- Node1&#45;&gt;Node2 -->
<g id="edge2" class="edge"><title>Node1&#45;&gt;Node2</title>
<path fill="none" stroke="midnightblue" d="M135.885,-24C144.648,-24 153.592,-24 162.338,-24"/>
<polygon fill="midnightblue" stroke="midnightblue" points="135.703,-20.5001 125.703,-24 135.703,-27.5001 135.703,-20.5001"/>
</g>
<!-- Node3 -->
<g id="node5" class="node"><title>Node3</title>
<a xlink:href="classCConfigurableElement.html#a711b8af1b9aac12e57244f2edbe916e9" target="_top" xlink:title="CConfigurableElement\l::hasNoValidDomainAssociated">
<polygon fill="white" stroke="black" points="342,-7 342,-41 508,-41 508,-7 342,-7"/>
<text text-anchor="start" x="350" y="-28" font-family="Verdana" font-size="10.00">CConfigurableElement</text>
<text text-anchor="middle" x="425" y="-15" font-family="Verdana" font-size="10.00">::hasNoValidDomainAssociated</text>
</a>
</g>
<!-- Node2&#45;&gt;Node3 -->
<g id="edge4" class="edge"><title>Node2&#45;&gt;Node3</title>
<path fill="none" stroke="midnightblue" d="M315.683,-24C324.292,-24 333.054,-24 341.682,-24"/>
<polygon fill="midnightblue" stroke="midnightblue" points="315.665,-20.5001 305.665,-24 315.665,-27.5001 315.665,-20.5001"/>
</g>
</g>
</svg>
