<?xml version="1.0" encoding="UTF-8" standalone="no"?>
<!DOCTYPE svg PUBLIC "-//W3C//DTD SVG 1.1//EN"
 "http://www.w3.org/Graphics/SVG/1.1/DTD/svg11.dtd">
<!-- Generated by graphviz version 2.26.3 (20100126.1600)
 -->
<!-- Title: TRemoteCommandHandlerTemplate::addCommandParser Pages: 1 -->
<svg width="430pt" height="82pt"
 viewBox="0.00 0.00 430.00 82.00" xmlns="http://www.w3.org/2000/svg" xmlns:xlink="http://www.w3.org/1999/xlink">
<g id="graph1" class="graph" transform="scale(1 1) rotate(0) translate(4 78)">
<title>TRemoteCommandHandlerTemplate::addCommandParser</title>
<polygon fill="white" stroke="white" points="-4,5 -4,-78 427,-78 427,5 -4,5"/>
<!-- Node1 -->
<g id="node1" class="node"><title>Node1</title>
<polygon fill="#bfbfbf" stroke="black" points="0,-23 0,-57 190,-57 190,-23 0,-23"/>
<text text-anchor="start" x="8" y="-44" font-family="Verdana" font-size="10.00">TRemoteCommandHandlerTemplate</text>
<text text-anchor="middle" x="95" y="-31" font-family="Verdana" font-size="10.00">::addCommandParser</text>
</g>
<!-- Node2 -->
<g id="node3" class="node"><title>Node2</title>
<a xlink:href="classCParameterMgr.html#a62ac187a0a8c321c3a312d4b2eeb9da2" target="_top" xlink:title="CParameterMgr::CParameterMgr">
<polygon fill="white" stroke="black" points="237.5,-52.5 237.5,-73.5 410.5,-73.5 410.5,-52.5 237.5,-52.5"/>
<text text-anchor="middle" x="324" y="-60.5" font-family="Verdana" font-size="10.00">CParameterMgr::CParameterMgr</text>
</a>
</g>
<!-- Node1&#45;&gt;Node2 -->
<g id="edge2" class="edge"><title>Node1&#45;&gt;Node2</title>
<path fill="none" stroke="midnightblue" d="M200.427,-50.5888C212.744,-51.8258 225.201,-53.077 237.225,-54.2846"/>
<polygon fill="midnightblue" stroke="midnightblue" points="200.427,-47.0712 190.127,-49.5543 199.727,-54.0362 200.427,-47.0712"/>
</g>
<!-- Node3 -->
<g id="node5" class="node"><title>Node3</title>
<a xlink:href="classTRemoteCommandHandlerTemplate.html#ac49d209322cdf4872f0fb9b3209588cc" target="_top" xlink:title="TRemoteCommandHandlerTemplate\l::TRemoteCommandHandlerTemplate">
<polygon fill="white" stroke="black" points="226,-0 226,-34 422,-34 422,-0 226,-0"/>
<text text-anchor="start" x="234" y="-21" font-family="Verdana" font-size="10.00">TRemoteCommandHandlerTemplate</text>
<text text-anchor="middle" x="324" y="-8" font-family="Verdana" font-size="10.00">::TRemoteCommandHandlerTemplate</text>
</a>
</g>
<!-- Node1&#45;&gt;Node3 -->
<g id="edge4" class="edge"><title>Node1&#45;&gt;Node3</title>
<path fill="none" stroke="midnightblue" d="M200.136,-29.4405C208.7,-28.5803 217.334,-27.7132 225.845,-26.8583"/>
<polygon fill="midnightblue" stroke="midnightblue" points="199.727,-25.9638 190.127,-30.4457 200.427,-32.9288 199.727,-25.9638"/>
</g>
</g>
</svg>
