<?xml version="1.0" encoding="UTF-8" standalone="no"?>
<!DOCTYPE svg PUBLIC "-//W3C//DTD SVG 1.1//EN"
 "http://www.w3.org/Graphics/SVG/1.1/DTD/svg11.dtd">
<!-- Generated by graphviz version 2.26.3 (20100126.1600)
 -->
<!-- Title: CConfigurableDomain::setSequenceAwareness Pages: 1 -->
<svg width="518pt" height="42pt"
 viewBox="0.00 0.00 518.00 42.00" xmlns="http://www.w3.org/2000/svg" xmlns:xlink="http://www.w3.org/1999/xlink">
<g id="graph1" class="graph" transform="scale(1 1) rotate(0) translate(4 38)">
<title>CConfigurableDomain::setSequenceAwareness</title>
<polygon fill="white" stroke="white" points="-4,5 -4,-38 515,-38 515,5 -4,5"/>
<!-- Node1 -->
<g id="node1" class="node"><title>Node1</title>
<polygon fill="#bfbfbf" stroke="black" points="0.5,-0 0.5,-34 137.5,-34 137.5,-0 0.5,-0"/>
<text text-anchor="start" x="8.5" y="-21" font-family="Verdana" font-size="10.00">CConfigurableDomain</text>
<text text-anchor="middle" x="69" y="-8" font-family="Verdana" font-size="10.00">::setSequenceAwareness</text>
</g>
<!-- Node2 -->
<g id="node3" class="node"><title>Node2</title>
<a xlink:href="classCConfigurableDomains.html#aa41f38a45f556c4b6c3c80609d8ad2b1" target="_top" xlink:title="CConfigurableDomains\l::setSequenceAwareness">
<polygon fill="white" stroke="black" points="174.5,-0 174.5,-34 311.5,-34 311.5,-0 174.5,-0"/>
<text text-anchor="start" x="182.5" y="-21" font-family="Verdana" font-size="10.00">CConfigurableDomains</text>
<text text-anchor="middle" x="243" y="-8" font-family="Verdana" font-size="10.00">::setSequenceAwareness</text>
</a>
</g>
<!-- Node1&#45;&gt;Node2 -->
<g id="edge2" class="edge"><title>Node1&#45;&gt;Node2</title>
<path fill="none" stroke="midnightblue" d="M148.043,-17C156.856,-17 165.778,-17 174.445,-17"/>
<polygon fill="midnightblue" stroke="midnightblue" points="147.769,-13.5001 137.769,-17 147.769,-20.5001 147.769,-13.5001"/>
</g>
<!-- Node3 -->
<g id="node5" class="node"><title>Node3</title>
<a xlink:href="classCParameterMgr.html#a8392607ed686806362c9a8882a471553" target="_top" xlink:title="CParameterMgr::setSequence\lAwareness">
<polygon fill="white" stroke="black" points="348.5,-0 348.5,-34 509.5,-34 509.5,-0 348.5,-0"/>
<text text-anchor="start" x="356.5" y="-21" font-family="Verdana" font-size="10.00">CParameterMgr::setSequence</text>
<text text-anchor="middle" x="429" y="-8" font-family="Verdana" font-size="10.00">Awareness</text>
</a>
</g>
<!-- Node2&#45;&gt;Node3 -->
<g id="edge4" class="edge"><title>Node2&#45;&gt;Node3</title>
<path fill="none" stroke="midnightblue" d="M321.889,-17C330.624,-17 339.53,-17 348.287,-17"/>
<polygon fill="midnightblue" stroke="midnightblue" points="321.731,-13.5001 311.731,-17 321.731,-20.5001 321.731,-13.5001"/>
</g>
</g>
</svg>
