<?xml version="1.0" encoding="UTF-8" standalone="no"?>
<!DOCTYPE svg PUBLIC "-//W3C//DTD SVG 1.1//EN"
 "http://www.w3.org/Graphics/SVG/1.1/DTD/svg11.dtd">
<!-- Generated by graphviz version 2.26.3 (20100126.1600)
 -->
<!-- Title: CEnumValuePair::toXml Pages: 1 -->
<svg width="482pt" height="82pt"
 viewBox="0.00 0.00 482.00 82.00" xmlns="http://www.w3.org/2000/svg" xmlns:xlink="http://www.w3.org/1999/xlink">
<g id="graph1" class="graph" transform="scale(1 1) rotate(0) translate(4 78)">
<title>CEnumValuePair::toXml</title>
<polygon fill="white" stroke="white" points="-4,5 -4,-78 479,-78 479,5 -4,5"/>
<!-- Node1 -->
<g id="node1" class="node"><title>Node1</title>
<polygon fill="#bfbfbf" stroke="black" points="0,-29.5 0,-50.5 128,-50.5 128,-29.5 0,-29.5"/>
<text text-anchor="middle" x="64" y="-37.5" font-family="Verdana" font-size="10.00">CEnumValuePair::toXml</text>
</g>
<!-- Node2 -->
<g id="node3" class="node"><title>Node2</title>
<a xlink:href="classCElement.html#a49581fb6412e29e932962acd82d52d6a" target="_top" xlink:title="CElement::getName">
<polygon fill="white" stroke="black" points="190,-52.5 190,-73.5 304,-73.5 304,-52.5 190,-52.5"/>
<text text-anchor="middle" x="247" y="-60.5" font-family="Verdana" font-size="10.00">CElement::getName</text>
</a>
</g>
<!-- Node1&#45;&gt;Node2 -->
<g id="edge2" class="edge"><title>Node1&#45;&gt;Node2</title>
<path fill="none" stroke="midnightblue" d="M128.005,-48.0443C144.649,-50.1362 162.631,-52.3963 179.452,-54.5103"/>
<polygon fill="midnightblue" stroke="midnightblue" points="179.394,-58.0305 189.753,-55.805 180.267,-51.0852 179.394,-58.0305"/>
</g>
<!-- Node3 -->
<g id="node5" class="node"><title>Node3</title>
<a xlink:href="classCEnumValuePair.html#a8936c702786702895a231eac2137f518" target="_top" xlink:title="CEnumValuePair::getNumerical\lAsString">
<polygon fill="white" stroke="black" points="164.5,-0 164.5,-34 329.5,-34 329.5,-0 164.5,-0"/>
<text text-anchor="start" x="172.5" y="-21" font-family="Verdana" font-size="10.00">CEnumValuePair::getNumerical</text>
<text text-anchor="middle" x="247" y="-8" font-family="Verdana" font-size="10.00">AsString</text>
</a>
</g>
<!-- Node1&#45;&gt;Node3 -->
<g id="edge4" class="edge"><title>Node1&#45;&gt;Node3</title>
<path fill="none" stroke="midnightblue" d="M128.005,-31.9557C136.542,-30.8827 145.431,-29.7655 154.335,-28.6465"/>
<polygon fill="midnightblue" stroke="midnightblue" points="154.89,-32.1043 164.376,-27.3845 154.017,-25.1589 154.89,-32.1043"/>
</g>
<!-- Node4 -->
<g id="node7" class="node"><title>Node4</title>
<a xlink:href="classCElement.html#aacdd6d54c10cd1494a820d78be779362" target="_top" xlink:title="CElement::toString">
<polygon fill="white" stroke="black" points="366.5,-6.5 366.5,-27.5 473.5,-27.5 473.5,-6.5 366.5,-6.5"/>
<text text-anchor="middle" x="420" y="-14.5" font-family="Verdana" font-size="10.00">CElement::toString</text>
</a>
</g>
<!-- Node3&#45;&gt;Node4 -->
<g id="edge6" class="edge"><title>Node3&#45;&gt;Node4</title>
<path fill="none" stroke="midnightblue" d="M329.7,-17C338.691,-17 347.737,-17 356.449,-17"/>
<polygon fill="midnightblue" stroke="midnightblue" points="356.498,-20.5001 366.498,-17 356.498,-13.5001 356.498,-20.5001"/>
</g>
</g>
</svg>
