<?xml version="1.0" encoding="UTF-8" standalone="no"?>
<!DOCTYPE svg PUBLIC "-//W3C//DTD SVG 1.1//EN"
 "http://www.w3.org/Graphics/SVG/1.1/DTD/svg11.dtd">
<!-- Generated by graphviz version 2.26.3 (20100126.1600)
 -->
<!-- Title: CRuleParser::getSelectionCriteriaDefinition Pages: 1 -->
<svg width="1158pt" height="42pt"
 viewBox="0.00 0.00 1158.00 42.00" xmlns="http://www.w3.org/2000/svg" xmlns:xlink="http://www.w3.org/1999/xlink">
<g id="graph1" class="graph" transform="scale(1 1) rotate(0) translate(4 38)">
<title>CRuleParser::getSelectionCriteriaDefinition</title>
<polygon fill="white" stroke="white" points="-4,5 -4,-38 1155,-38 1155,5 -4,5"/>
<!-- Node1 -->
<g id="node1" class="node"><title>Node1</title>
<polygon fill="#bfbfbf" stroke="black" points="0.5,-0 0.5,-34 139.5,-34 139.5,-0 0.5,-0"/>
<text text-anchor="start" x="8.5" y="-21" font-family="Verdana" font-size="10.00">CRuleParser::getSelection</text>
<text text-anchor="middle" x="70" y="-8" font-family="Verdana" font-size="10.00">CriteriaDefinition</text>
</g>
<!-- Node2 -->
<g id="node3" class="node"><title>Node2</title>
<a xlink:href="classCSelectionCriterionRule.html#a4ee8e0274ac8c7bf5a2452002aa7ae0e" target="_top" xlink:title="CSelectionCriterionRule\l::parse">
<polygon fill="white" stroke="black" points="176,-0 176,-34 304,-34 304,-0 176,-0"/>
<text text-anchor="start" x="184" y="-21" font-family="Verdana" font-size="10.00">CSelectionCriterionRule</text>
<text text-anchor="middle" x="240" y="-8" font-family="Verdana" font-size="10.00">::parse</text>
</a>
</g>
<!-- Node1&#45;&gt;Node2 -->
<g id="edge2" class="edge"><title>Node1&#45;&gt;Node2</title>
<path fill="none" stroke="midnightblue" d="M149.849,-17C158.597,-17 167.418,-17 175.939,-17"/>
<polygon fill="midnightblue" stroke="midnightblue" points="149.636,-13.5001 139.636,-17 149.636,-20.5001 149.636,-13.5001"/>
</g>
<!-- Node3 -->
<g id="node5" class="node"><title>Node3</title>
<a xlink:href="classCRuleParser.html#acbce516a22f0dca0af620e751d298f7a" target="_top" xlink:title="CRuleParser::parse">
<polygon fill="white" stroke="black" points="340,-6.5 340,-27.5 446,-27.5 446,-6.5 340,-6.5"/>
<text text-anchor="middle" x="393" y="-14.5" font-family="Verdana" font-size="10.00">CRuleParser::parse</text>
</a>
</g>
<!-- Node2&#45;&gt;Node3 -->
<g id="edge4" class="edge"><title>Node2&#45;&gt;Node3</title>
<path fill="none" stroke="midnightblue" d="M314.711,-17C323.163,-17 331.645,-17 339.743,-17"/>
<polygon fill="midnightblue" stroke="midnightblue" points="314.442,-13.5001 304.442,-17 314.442,-20.5001 314.442,-13.5001"/>
</g>
<!-- Node4 -->
<g id="node7" class="node"><title>Node4</title>
<a xlink:href="classCDomainConfiguration.html#a3b12c8d561b1e468bd03214326bdf450" target="_top" xlink:title="CDomainConfiguration\l::setApplicationRule">
<polygon fill="white" stroke="black" points="482.5,-0 482.5,-34 607.5,-34 607.5,-0 482.5,-0"/>
<text text-anchor="start" x="490.5" y="-21" font-family="Verdana" font-size="10.00">CDomainConfiguration</text>
<text text-anchor="middle" x="545" y="-8" font-family="Verdana" font-size="10.00">::setApplicationRule</text>
</a>
</g>
<!-- Node3&#45;&gt;Node4 -->
<g id="edge6" class="edge"><title>Node3&#45;&gt;Node4</title>
<path fill="none" stroke="midnightblue" d="M456.22,-17C464.901,-17 473.811,-17 482.48,-17"/>
<polygon fill="midnightblue" stroke="midnightblue" points="456.162,-13.5001 446.162,-17 456.162,-20.5001 456.162,-13.5001"/>
</g>
<!-- Node5 -->
<g id="node9" class="node"><title>Node5</title>
<a xlink:href="classCConfigurableDomain.html#ab28e6a66ae7197d4fa131193f32891f4" target="_top" xlink:title="CConfigurableDomain\l::setApplicationRule">
<polygon fill="white" stroke="black" points="644.5,-0 644.5,-34 765.5,-34 765.5,-0 644.5,-0"/>
<text text-anchor="start" x="652.5" y="-21" font-family="Verdana" font-size="10.00">CConfigurableDomain</text>
<text text-anchor="middle" x="705" y="-8" font-family="Verdana" font-size="10.00">::setApplicationRule</text>
</a>
</g>
<!-- Node4&#45;&gt;Node5 -->
<g id="edge8" class="edge"><title>Node4&#45;&gt;Node5</title>
<path fill="none" stroke="midnightblue" d="M617.787,-17C626.72,-17 635.774,-17 644.498,-17"/>
<polygon fill="midnightblue" stroke="midnightblue" points="617.777,-13.5001 607.777,-17 617.777,-20.5001 617.777,-13.5001"/>
</g>
<!-- Node6 -->
<g id="node11" class="node"><title>Node6</title>
<a xlink:href="classCConfigurableDomains.html#ac2b2354eecc80c7ca4a71fe2f40606ed" target="_top" xlink:title="CConfigurableDomains\l::setApplicationRule">
<polygon fill="white" stroke="black" points="802,-0 802,-34 928,-34 928,-0 802,-0"/>
<text text-anchor="start" x="810" y="-21" font-family="Verdana" font-size="10.00">CConfigurableDomains</text>
<text text-anchor="middle" x="865" y="-8" font-family="Verdana" font-size="10.00">::setApplicationRule</text>
</a>
</g>
<!-- Node5&#45;&gt;Node6 -->
<g id="edge10" class="edge"><title>Node5&#45;&gt;Node6</title>
<path fill="none" stroke="midnightblue" d="M775.97,-17C784.585,-17 793.341,-17 801.833,-17"/>
<polygon fill="midnightblue" stroke="midnightblue" points="775.946,-13.5001 765.946,-17 775.946,-20.5001 775.946,-13.5001"/>
</g>
<!-- Node7 -->
<g id="node13" class="node"><title>Node7</title>
<a xlink:href="classCParameterMgr.html#af63f9ad7f792b2bf226afd791c1db70e" target="_top" xlink:title="CParameterMgr::setApplicationRule">
<polygon fill="white" stroke="black" points="964.5,-6.5 964.5,-27.5 1149.5,-27.5 1149.5,-6.5 964.5,-6.5"/>
<text text-anchor="middle" x="1057" y="-14.5" font-family="Verdana" font-size="10.00">CParameterMgr::setApplicationRule</text>
</a>
</g>
<!-- Node6&#45;&gt;Node7 -->
<g id="edge12" class="edge"><title>Node6&#45;&gt;Node7</title>
<path fill="none" stroke="midnightblue" d="M938.344,-17C946.831,-17 955.57,-17 964.272,-17"/>
<polygon fill="midnightblue" stroke="midnightblue" points="938.134,-13.5001 928.134,-17 938.134,-20.5001 938.134,-13.5001"/>
</g>
</g>
</svg>
