<?xml version="1.0" encoding="UTF-8" standalone="no"?>
<!DOCTYPE svg PUBLIC "-//W3C//DTD SVG 1.1//EN"
 "http://www.w3.org/Graphics/SVG/1.1/DTD/svg11.dtd">
<!-- Generated by graphviz version 2.26.3 (20100126.1600)
 -->
<!-- Title: CConfigurableDomains::getApplicationRule Pages: 1 -->
<svg width="810pt" height="128pt"
 viewBox="0.00 0.00 810.00 128.00" xmlns="http://www.w3.org/2000/svg" xmlns:xlink="http://www.w3.org/1999/xlink">
<g id="graph1" class="graph" transform="scale(1 1) rotate(0) translate(4 124)">
<title>CConfigurableDomains::getApplicationRule</title>
<polygon fill="white" stroke="white" points="-4,5 -4,-124 807,-124 807,5 -4,5"/>
<!-- Node1 -->
<g id="node1" class="node"><title>Node1</title>
<polygon fill="#bfbfbf" stroke="black" points="0,-60 0,-94 126,-94 126,-60 0,-60"/>
<text text-anchor="start" x="8" y="-81" font-family="Verdana" font-size="10.00">CConfigurableDomains</text>
<text text-anchor="middle" x="63" y="-68" font-family="Verdana" font-size="10.00">::getApplicationRule</text>
</g>
<!-- Node2 -->
<g id="node3" class="node"><title>Node2</title>
<a xlink:href="classCConfigurableDomains.html#a4dce38a1560b6e33871d3fa2d85cc449" target="_top" xlink:title="CConfigurableDomains\l::findConfigurableDomain">
<polygon fill="white" stroke="black" points="162.5,-86 162.5,-120 299.5,-120 299.5,-86 162.5,-86"/>
<text text-anchor="start" x="170.5" y="-107" font-family="Verdana" font-size="10.00">CConfigurableDomains</text>
<text text-anchor="middle" x="231" y="-94" font-family="Verdana" font-size="10.00">::findConfigurableDomain</text>
</a>
</g>
<!-- Node1&#45;&gt;Node2 -->
<g id="edge2" class="edge"><title>Node1&#45;&gt;Node2</title>
<path fill="none" stroke="midnightblue" d="M126.035,-86.7554C134.626,-88.085 143.53,-89.463 152.355,-90.8287"/>
<polygon fill="midnightblue" stroke="midnightblue" points="151.846,-94.2916 162.264,-92.3622 152.917,-87.3739 151.846,-94.2916"/>
</g>
<!-- Node4 -->
<g id="node7" class="node"><title>Node4</title>
<a xlink:href="classCConfigurableDomain.html#a172bcb617227f40d21b29e91b2424ee0" target="_top" xlink:title="CConfigurableDomain\l::getApplicationRule">
<polygon fill="white" stroke="black" points="170.5,-34 170.5,-68 291.5,-68 291.5,-34 170.5,-34"/>
<text text-anchor="start" x="178.5" y="-55" font-family="Verdana" font-size="10.00">CConfigurableDomain</text>
<text text-anchor="middle" x="231" y="-42" font-family="Verdana" font-size="10.00">::getApplicationRule</text>
</a>
</g>
<!-- Node1&#45;&gt;Node4 -->
<g id="edge6" class="edge"><title>Node1&#45;&gt;Node4</title>
<path fill="none" stroke="midnightblue" d="M126.035,-67.2446C137.269,-65.506 149.037,-63.6847 160.464,-61.9162"/>
<polygon fill="midnightblue" stroke="midnightblue" points="161.049,-65.3675 170.396,-60.3791 159.979,-58.4498 161.049,-65.3675"/>
</g>
<!-- Node3 -->
<g id="node5" class="node"><title>Node3</title>
<a xlink:href="classCElement.html#a8595814a3159f32f874269907e70b260" target="_top" xlink:title="CElement::findChild">
<polygon fill="white" stroke="black" points="344,-92.5 344,-113.5 454,-113.5 454,-92.5 344,-92.5"/>
<text text-anchor="middle" x="399" y="-100.5" font-family="Verdana" font-size="10.00">CElement::findChild</text>
</a>
</g>
<!-- Node2&#45;&gt;Node3 -->
<g id="edge4" class="edge"><title>Node2&#45;&gt;Node3</title>
<path fill="none" stroke="midnightblue" d="M299.817,-103C311.056,-103 322.67,-103 333.819,-103"/>
<polygon fill="midnightblue" stroke="midnightblue" points="333.902,-106.5 343.901,-103 333.901,-99.5001 333.902,-106.5"/>
</g>
<!-- Node5 -->
<g id="node9" class="node"><title>Node5</title>
<a xlink:href="classCDomainConfiguration.html#a0f9e4ae6ceadd57ec7d5e7a570939d38" target="_top" xlink:title="CDomainConfiguration\l::getApplicationRule">
<polygon fill="white" stroke="black" points="336.5,-34 336.5,-68 461.5,-68 461.5,-34 336.5,-34"/>
<text text-anchor="start" x="344.5" y="-55" font-family="Verdana" font-size="10.00">CDomainConfiguration</text>
<text text-anchor="middle" x="399" y="-42" font-family="Verdana" font-size="10.00">::getApplicationRule</text>
</a>
</g>
<!-- Node4&#45;&gt;Node5 -->
<g id="edge8" class="edge"><title>Node4&#45;&gt;Node5</title>
<path fill="none" stroke="midnightblue" d="M291.652,-51C302.919,-51 314.796,-51 326.378,-51"/>
<polygon fill="midnightblue" stroke="midnightblue" points="326.458,-54.5001 336.458,-51 326.458,-47.5001 326.458,-54.5001"/>
</g>
<!-- Node6 -->
<g id="node11" class="node"><title>Node6</title>
<a xlink:href="classCCompoundRule.html#a4852b10618c0cf75059018ae60fb6eab" target="_top" xlink:title="CCompoundRule::dump">
<polygon fill="white" stroke="black" points="498.5,-40.5 498.5,-61.5 627.5,-61.5 627.5,-40.5 498.5,-40.5"/>
<text text-anchor="middle" x="563" y="-48.5" font-family="Verdana" font-size="10.00">CCompoundRule::dump</text>
</a>
</g>
<!-- Node5&#45;&gt;Node6 -->
<g id="edge10" class="edge"><title>Node5&#45;&gt;Node6</title>
<path fill="none" stroke="midnightblue" d="M461.938,-51C470.508,-51 479.372,-51 488.127,-51"/>
<polygon fill="midnightblue" stroke="midnightblue" points="488.33,-54.5001 498.33,-51 488.33,-47.5001 488.33,-54.5001"/>
</g>
<!-- Node7 -->
<g id="node13" class="node"><title>Node7</title>
<a xlink:href="classCElement.html#a25f58d9d8b35e770806d669fb2a378e4" target="_top" xlink:title="CElement::getNbChildren">
<polygon fill="white" stroke="black" points="664.5,-80.5 664.5,-101.5 801.5,-101.5 801.5,-80.5 664.5,-80.5"/>
<text text-anchor="middle" x="733" y="-88.5" font-family="Verdana" font-size="10.00">CElement::getNbChildren</text>
</a>
</g>
<!-- Node6&#45;&gt;Node7 -->
<g id="edge12" class="edge"><title>Node6&#45;&gt;Node7</title>
<path fill="none" stroke="midnightblue" d="M607.665,-61.5095C629.346,-66.6108 655.584,-72.7845 678.439,-78.1622"/>
<polygon fill="midnightblue" stroke="midnightblue" points="677.802,-81.6078 688.338,-80.4913 679.405,-74.7939 677.802,-81.6078"/>
</g>
<!-- Node8 -->
<g id="node15" class="node"><title>Node8</title>
<a xlink:href="classCElement.html#a41bf126c3fdbb5bec0c2c3dcf35e9079" target="_top" xlink:title="CElement::getChild">
<polygon fill="white" stroke="black" points="679,-40.5 679,-61.5 787,-61.5 787,-40.5 679,-40.5"/>
<text text-anchor="middle" x="733" y="-48.5" font-family="Verdana" font-size="10.00">CElement::getChild</text>
</a>
</g>
<!-- Node6&#45;&gt;Node8 -->
<g id="edge14" class="edge"><title>Node6&#45;&gt;Node8</title>
<path fill="none" stroke="midnightblue" d="M627.755,-51C641.214,-51 655.392,-51 668.83,-51"/>
<polygon fill="midnightblue" stroke="midnightblue" points="668.937,-54.5001 678.937,-51 668.937,-47.5001 668.937,-54.5001"/>
</g>
<!-- Node9 -->
<g id="node17" class="node"><title>Node9</title>
<a xlink:href="classCRule.html#aa4a929f43c17c8b7b1992062f019f530" target="_top" xlink:title="CRule::dump">
<polygon fill="white" stroke="black" points="694.5,-0.5 694.5,-21.5 771.5,-21.5 771.5,-0.5 694.5,-0.5"/>
<text text-anchor="middle" x="733" y="-8.5" font-family="Verdana" font-size="10.00">CRule::dump</text>
</a>
</g>
<!-- Node6&#45;&gt;Node9 -->
<g id="edge16" class="edge"><title>Node6&#45;&gt;Node9</title>
<path fill="none" stroke="midnightblue" d="M607.665,-40.4905C631.251,-34.941 660.23,-28.1223 684.38,-22.44"/>
<polygon fill="midnightblue" stroke="midnightblue" points="685.472,-25.7787 694.404,-20.0813 683.869,-18.9648 685.472,-25.7787"/>
</g>
</g>
</svg>
