<?xml version="1.0" encoding="UTF-8" standalone="no"?>
<!DOCTYPE svg PUBLIC "-//W3C//DTD SVG 1.1//EN"
 "http://www.w3.org/Graphics/SVG/1.1/DTD/svg11.dtd">
<!-- Generated by graphviz version 2.26.3 (20100126.1600)
 -->
<!-- Title: CBackSynchronizer Pages: 1 -->
<svg width="338pt" height="88pt"
 viewBox="0.00 0.00 338.00 88.00" xmlns="http://www.w3.org/2000/svg" xmlns:xlink="http://www.w3.org/1999/xlink">
<g id="graph1" class="graph" transform="scale(1 1) rotate(0) translate(4 84)">
<title>CBackSynchronizer</title>
<polygon fill="white" stroke="white" points="-4,5 -4,-84 335,-84 335,5 -4,5"/>
<!-- Node1 -->
<g id="node1" class="node"><title>Node1</title>
<polygon fill="#bfbfbf" stroke="black" points="109.5,-58.5 109.5,-79.5 218.5,-79.5 218.5,-58.5 109.5,-58.5"/>
<text text-anchor="middle" x="164" y="-66.5" font-family="Verdana" font-size="10.00">CBackSynchronizer</text>
</g>
<!-- Node2 -->
<g id="node3" class="node"><title>Node2</title>
<a xlink:href="classCHardwareBackSynchronizer.html" target="_top" xlink:title="CHardwareBackSynchronizer">
<polygon fill="white" stroke="black" points="-0.5,-0.5 -0.5,-21.5 154.5,-21.5 154.5,-0.5 -0.5,-0.5"/>
<text text-anchor="middle" x="77" y="-8.5" font-family="Verdana" font-size="10.00">CHardwareBackSynchronizer</text>
</a>
</g>
<!-- Node1&#45;&gt;Node2 -->
<g id="edge2" class="edge"><title>Node1&#45;&gt;Node2</title>
<path fill="none" stroke="midnightblue" d="M139.311,-52.5407C124.396,-42.5973 105.827,-30.2177 92.856,-21.5707"/>
<polygon fill="midnightblue" stroke="midnightblue" points="137.781,-55.727 148.043,-58.3619 141.664,-49.9027 137.781,-55.727"/>
</g>
<!-- Node3 -->
<g id="node5" class="node"><title>Node3</title>
<a xlink:href="classCSimulatedBackSynchronizer.html" target="_top" xlink:title="CSimulatedBackSynchronizer">
<polygon fill="white" stroke="black" points="172,-0.5 172,-21.5 330,-21.5 330,-0.5 172,-0.5"/>
<text text-anchor="middle" x="251" y="-8.5" font-family="Verdana" font-size="10.00">CSimulatedBackSynchronizer</text>
</a>
</g>
<!-- Node1&#45;&gt;Node3 -->
<g id="edge4" class="edge"><title>Node1&#45;&gt;Node3</title>
<path fill="none" stroke="midnightblue" d="M188.689,-52.5407C203.604,-42.5973 222.173,-30.2177 235.144,-21.5707"/>
<polygon fill="midnightblue" stroke="midnightblue" points="186.336,-49.9027 179.957,-58.3619 190.219,-55.727 186.336,-49.9027"/>
</g>
</g>
</svg>
