<?xml version="1.0" encoding="UTF-8" standalone="no"?>
<!DOCTYPE svg PUBLIC "-//W3C//DTD SVG 1.1//EN"
 "http://www.w3.org/Graphics/SVG/1.1/DTD/svg11.dtd">
<!-- Generated by graphviz version 2.26.3 (20100126.1600)
 -->
<!-- Title: CConfigurableDomain::listAssociatedToElements Pages: 1 -->
<svg width="294pt" height="54pt"
 viewBox="0.00 0.00 294.00 54.00" xmlns="http://www.w3.org/2000/svg" xmlns:xlink="http://www.w3.org/1999/xlink">
<g id="graph1" class="graph" transform="scale(1 1) rotate(0) translate(4 50)">
<title>CConfigurableDomain::listAssociatedToElements</title>
<polygon fill="white" stroke="white" points="-4,5 -4,-50 291,-50 291,5 -4,5"/>
<!-- Node1 -->
<g id="node1" class="node"><title>Node1</title>
<polygon fill="#bfbfbf" stroke="black" points="0.5,-0 0.5,-34 143.5,-34 143.5,-0 0.5,-0"/>
<text text-anchor="start" x="8.5" y="-21" font-family="Verdana" font-size="10.00">CConfigurableDomain</text>
<text text-anchor="middle" x="72" y="-8" font-family="Verdana" font-size="10.00">::listAssociatedToElements</text>
</g>
<!-- Node2 -->
<g id="node3" class="node"><title>Node2</title>
<a xlink:href="classCElement.html#a7022c0fc8063f0aae9d97b06e74d4ac1" target="_top" xlink:title="CElement::getPath">
<polygon fill="white" stroke="black" points="180,-6.5 180,-27.5 286,-27.5 286,-6.5 180,-6.5"/>
<text text-anchor="middle" x="233" y="-14.5" font-family="Verdana" font-size="10.00">CElement::getPath</text>
</a>
</g>
<!-- Node1&#45;&gt;Node2 -->
<g id="edge2" class="edge"><title>Node1&#45;&gt;Node2</title>
<path fill="none" stroke="midnightblue" d="M143.555,-17C152.152,-17 160.888,-17 169.362,-17"/>
<polygon fill="midnightblue" stroke="midnightblue" points="169.543,-20.5001 179.543,-17 169.543,-13.5001 169.543,-20.5001"/>
</g>
<!-- Node2&#45;&gt;Node2 -->
<g id="edge4" class="edge"><title>Node2&#45;&gt;Node2</title>
<path fill="none" stroke="midnightblue" d="M207.578,-27.7079C196.713,-36.6531 205.188,-46 233,-46 250.817,-46 260.698,-42.164 262.643,-37.0551"/>
<polygon fill="midnightblue" stroke="midnightblue" points="265.727,-35.3816 258.422,-27.7079 259.348,-38.2622 265.727,-35.3816"/>
</g>
</g>
</svg>
