<?xml version="1.0" encoding="UTF-8" standalone="no"?>
<!DOCTYPE svg PUBLIC "-//W3C//DTD SVG 1.1//EN"
 "http://www.w3.org/Graphics/SVG/1.1/DTD/svg11.dtd">
<!-- Generated by graphviz version 2.26.3 (20100126.1600)
 -->
<!-- Title: CDomainConfiguration::save Pages: 1 -->
<svg width="440pt" height="42pt"
 viewBox="0.00 0.00 440.00 42.00" xmlns="http://www.w3.org/2000/svg" xmlns:xlink="http://www.w3.org/1999/xlink">
<g id="graph1" class="graph" transform="scale(1 1) rotate(0) translate(4 38)">
<title>CDomainConfiguration::save</title>
<polygon fill="white" stroke="white" points="-4,5 -4,-38 437,-38 437,5 -4,5"/>
<!-- Node1 -->
<g id="node1" class="node"><title>Node1</title>
<polygon fill="#bfbfbf" stroke="black" points="0.5,-0 0.5,-34 125.5,-34 125.5,-0 0.5,-0"/>
<text text-anchor="start" x="8.5" y="-21" font-family="Verdana" font-size="10.00">CDomainConfiguration</text>
<text text-anchor="middle" x="63" y="-8" font-family="Verdana" font-size="10.00">::save</text>
</g>
<!-- Node2 -->
<g id="node3" class="node"><title>Node2</title>
<a xlink:href="classCAreaConfiguration.html#a0ab61255d58c402f059aceb6668b943d" target="_top" xlink:title="CAreaConfiguration\l::save">
<polygon fill="white" stroke="black" points="162,-0 162,-34 272,-34 272,-0 162,-0"/>
<text text-anchor="start" x="170" y="-21" font-family="Verdana" font-size="10.00">CAreaConfiguration</text>
<text text-anchor="middle" x="217" y="-8" font-family="Verdana" font-size="10.00">::save</text>
</a>
</g>
<!-- Node1&#45;&gt;Node2 -->
<g id="edge2" class="edge"><title>Node1&#45;&gt;Node2</title>
<path fill="none" stroke="midnightblue" d="M125.638,-17C134.256,-17 143.124,-17 151.788,-17"/>
<polygon fill="midnightblue" stroke="midnightblue" points="151.837,-20.5001 161.837,-17 151.837,-13.5001 151.837,-20.5001"/>
</g>
<!-- Node3 -->
<g id="node5" class="node"><title>Node3</title>
<a xlink:href="classCConfigurableElement.html#a29d61e6d09ff508ebb87aea802f2704e" target="_top" xlink:title="CConfigurableElement\l::getOffset">
<polygon fill="white" stroke="black" points="308.5,-0 308.5,-34 431.5,-34 431.5,-0 308.5,-0"/>
<text text-anchor="start" x="316.5" y="-21" font-family="Verdana" font-size="10.00">CConfigurableElement</text>
<text text-anchor="middle" x="370" y="-8" font-family="Verdana" font-size="10.00">::getOffset</text>
</a>
</g>
<!-- Node2&#45;&gt;Node3 -->
<g id="edge4" class="edge"><title>Node2&#45;&gt;Node3</title>
<path fill="none" stroke="midnightblue" d="M272.237,-17C280.665,-17 289.468,-17 298.189,-17"/>
<polygon fill="midnightblue" stroke="midnightblue" points="298.362,-20.5001 308.362,-17 298.362,-13.5001 298.362,-20.5001"/>
</g>
</g>
</svg>
