<?xml version="1.0" encoding="UTF-8" standalone="no"?>
<!DOCTYPE svg PUBLIC "-//W3C//DTD SVG 1.1//EN"
 "http://www.w3.org/Graphics/SVG/1.1/DTD/svg11.dtd">
<!-- Generated by graphviz version 2.26.3 (20100126.1600)
 -->
<!-- Title: CElement::findDescendant Pages: 1 -->
<svg width="592pt" height="290pt"
 viewBox="0.00 0.00 592.00 290.00" xmlns="http://www.w3.org/2000/svg" xmlns:xlink="http://www.w3.org/1999/xlink">
<g id="graph1" class="graph" transform="scale(1 1) rotate(0) translate(4 286)">
<title>CElement::findDescendant</title>
<polygon fill="white" stroke="white" points="-4,5 -4,-286 589,-286 589,5 -4,5"/>
<!-- Node1 -->
<g id="node1" class="node"><title>Node1</title>
<polygon fill="#bfbfbf" stroke="black" points="0,-104.5 0,-125.5 144,-125.5 144,-104.5 0,-104.5"/>
<text text-anchor="middle" x="72" y="-112.5" font-family="Verdana" font-size="10.00">CElement::findDescendant</text>
</g>
<!-- Node1&#45;&gt;Node1 -->
<g id="edge2" class="edge"><title>Node1&#45;&gt;Node1</title>
<path fill="none" stroke="midnightblue" d="M35.7819,-134.299C37.2699,-139.781 49.3426,-144 72,-144 105.723,-144 115.998,-134.653 102.825,-125.708"/>
<polygon fill="midnightblue" stroke="midnightblue" points="38.8224,-136.038 41.1754,-125.708 32.8939,-132.316 38.8224,-136.038"/>
</g>
<!-- Node2 -->
<g id="node4" class="node"><title>Node2</title>
<a xlink:href="classCElementLocator.html#a94ddc34b50d96cd1cc78f43e3014ce36" target="_top" xlink:title="CElementLocator::locate">
<polygon fill="white" stroke="black" points="200,-150.5 200,-171.5 334,-171.5 334,-150.5 200,-150.5"/>
<text text-anchor="middle" x="267" y="-158.5" font-family="Verdana" font-size="10.00">CElementLocator::locate</text>
</a>
</g>
<!-- Node1&#45;&gt;Node2 -->
<g id="edge4" class="edge"><title>Node1&#45;&gt;Node2</title>
<path fill="none" stroke="midnightblue" d="M126.706,-127.905C156.94,-135.037 194.025,-143.785 222.471,-150.496"/>
<polygon fill="midnightblue" stroke="midnightblue" points="127.273,-124.443 116.737,-125.553 125.666,-131.256 127.273,-124.443"/>
</g>
<!-- Node7 -->
<g id="node14" class="node"><title>Node7</title>
<a xlink:href="classCParameterMgr.html#ad3ee51d6a9f2e0d0ea143a238120b5af" target="_top" xlink:title="Returns the CConfigurableElement corresponding to the path given in argument. ">
<polygon fill="white" stroke="black" points="180.5,-52 180.5,-86 353.5,-86 353.5,-52 180.5,-52"/>
<text text-anchor="start" x="188.5" y="-73" font-family="Verdana" font-size="10.00">CParameterMgr::getConfigurable</text>
<text text-anchor="middle" x="267" y="-60" font-family="Verdana" font-size="10.00">Element</text>
</a>
</g>
<!-- Node1&#45;&gt;Node7 -->
<g id="edge14" class="edge"><title>Node1&#45;&gt;Node7</title>
<path fill="none" stroke="midnightblue" d="M126.486,-102.147C147.582,-97.1704 172.038,-91.4012 194.576,-86.0845"/>
<polygon fill="midnightblue" stroke="midnightblue" points="125.666,-98.7441 116.737,-104.447 127.273,-105.557 125.666,-98.7441"/>
</g>
<!-- Node3 -->
<g id="node6" class="node"><title>Node3</title>
<a xlink:href="classCParameterMgr.html#a25055f536c2d537e86852c87a4e1a061" target="_top" xlink:title="CParameterMgr::accessConfiguration\lValue">
<polygon fill="white" stroke="black" points="390,-248 390,-282 584,-282 584,-248 390,-248"/>
<text text-anchor="start" x="398" y="-269" font-family="Verdana" font-size="10.00">CParameterMgr::accessConfiguration</text>
<text text-anchor="middle" x="487" y="-256" font-family="Verdana" font-size="10.00">Value</text>
</a>
</g>
<!-- Node2&#45;&gt;Node3 -->
<g id="edge6" class="edge"><title>Node2&#45;&gt;Node3</title>
<path fill="none" stroke="midnightblue" d="M288.893,-177.795C312.637,-195.293 352.222,-222.422 390,-239 397.583,-242.328 405.692,-245.316 413.87,-247.975"/>
<polygon fill="midnightblue" stroke="midnightblue" points="290.711,-174.784 280.605,-171.603 286.521,-180.392 290.711,-174.784"/>
</g>
<!-- Node4 -->
<g id="node8" class="node"><title>Node4</title>
<a xlink:href="classCParameterMgr.html#ae9941471fb32f02b3620cf46cd13ebbb" target="_top" xlink:title="CParameterMgr::addConfigurable\lElementToDomain">
<polygon fill="white" stroke="black" points="399,-196 399,-230 575,-230 575,-196 399,-196"/>
<text text-anchor="start" x="407" y="-217" font-family="Verdana" font-size="10.00">CParameterMgr::addConfigurable</text>
<text text-anchor="middle" x="487" y="-204" font-family="Verdana" font-size="10.00">ElementToDomain</text>
</a>
</g>
<!-- Node2&#45;&gt;Node4 -->
<g id="edge8" class="edge"><title>Node2&#45;&gt;Node4</title>
<path fill="none" stroke="midnightblue" d="M321.58,-173.901C349.748,-180.559 384.477,-188.767 414.83,-195.942"/>
<polygon fill="midnightblue" stroke="midnightblue" points="322.057,-170.417 311.52,-171.523 320.447,-177.229 322.057,-170.417"/>
</g>
<!-- Node5 -->
<g id="node10" class="node"><title>Node5</title>
<a xlink:href="classCParameterMgr.html#a4f307490c67f2dde0b08e638500dd5d4" target="_top" xlink:title="CParameterMgr::removeConfigurable\lElementFromDomain">
<polygon fill="white" stroke="black" points="390,-144 390,-178 584,-178 584,-144 390,-144"/>
<text text-anchor="start" x="398" y="-165" font-family="Verdana" font-size="10.00">CParameterMgr::removeConfigurable</text>
<text text-anchor="middle" x="487" y="-152" font-family="Verdana" font-size="10.00">ElementFromDomain</text>
</a>
</g>
<!-- Node2&#45;&gt;Node5 -->
<g id="edge10" class="edge"><title>Node2&#45;&gt;Node5</title>
<path fill="none" stroke="midnightblue" d="M344.25,-161C358.983,-161 374.578,-161 389.839,-161"/>
<polygon fill="midnightblue" stroke="midnightblue" points="344.203,-157.5 334.203,-161 344.203,-164.5 344.203,-157.5"/>
</g>
<!-- Node6 -->
<g id="node12" class="node"><title>Node6</title>
<a xlink:href="classCParameterMgr.html#a042735242f31241743085d2d9d7edcc5" target="_top" xlink:title="CParameterMgr::split">
<polygon fill="white" stroke="black" points="428.5,-104.5 428.5,-125.5 545.5,-125.5 545.5,-104.5 428.5,-104.5"/>
<text text-anchor="middle" x="487" y="-112.5" font-family="Verdana" font-size="10.00">CParameterMgr::split</text>
</a>
</g>
<!-- Node2&#45;&gt;Node6 -->
<g id="edge12" class="edge"><title>Node2&#45;&gt;Node6</title>
<path fill="none" stroke="midnightblue" d="M326.629,-148.333C346.753,-144.075 369.347,-139.312 390,-135 404.812,-131.908 420.902,-128.578 435.642,-125.54"/>
<polygon fill="midnightblue" stroke="midnightblue" points="325.719,-144.948 316.661,-150.444 327.17,-151.796 325.719,-144.948"/>
</g>
<!-- Node8 -->
<g id="node16" class="node"><title>Node8</title>
<a xlink:href="classCParameterMgr.html#ada6dd503a49385c74029b7c0e8e1ba0e" target="_top" xlink:title="CParameterMgr::createParameter\lHandle">
<polygon fill="white" stroke="black" points="397.5,-52 397.5,-86 576.5,-86 576.5,-52 397.5,-52"/>
<text text-anchor="start" x="405.5" y="-73" font-family="Verdana" font-size="10.00">CParameterMgr::createParameter</text>
<text text-anchor="middle" x="487" y="-60" font-family="Verdana" font-size="10.00">Handle</text>
</a>
</g>
<!-- Node7&#45;&gt;Node8 -->
<g id="edge16" class="edge"><title>Node7&#45;&gt;Node8</title>
<path fill="none" stroke="midnightblue" d="M363.773,-69C374.883,-69 386.176,-69 397.19,-69"/>
<polygon fill="midnightblue" stroke="midnightblue" points="363.634,-65.5001 353.634,-69 363.634,-72.5001 363.634,-65.5001"/>
</g>
<!-- Node9 -->
<g id="node18" class="node"><title>Node9</title>
<a xlink:href="classCParameterMgr.html#a00467972dcf35bd3036a536f5c328436" target="_top" xlink:title="Returns the element mapping corresponding to the path given in parameter. ">
<polygon fill="white" stroke="black" points="405,-0 405,-34 569,-34 569,-0 405,-0"/>
<text text-anchor="start" x="413" y="-21" font-family="Verdana" font-size="10.00">CParameterMgr::getParameter</text>
<text text-anchor="middle" x="487" y="-8" font-family="Verdana" font-size="10.00">Mapping</text>
</a>
</g>
<!-- Node7&#45;&gt;Node9 -->
<g id="edge18" class="edge"><title>Node7&#45;&gt;Node9</title>
<path fill="none" stroke="midnightblue" d="M348.859,-49.6516C370.504,-44.5353 393.709,-39.0506 414.802,-34.065"/>
<polygon fill="midnightblue" stroke="midnightblue" points="347.963,-46.2668 339.036,-51.9733 349.573,-53.0791 347.963,-46.2668"/>
</g>
</g>
</svg>
