<?xml version="1.0" encoding="UTF-8" standalone="no"?>
<!DOCTYPE svg PUBLIC "-//W3C//DTD SVG 1.1//EN"
 "http://www.w3.org/Graphics/SVG/1.1/DTD/svg11.dtd">
<!-- Generated by graphviz version 2.26.3 (20100126.1600)
 -->
<!-- Title: CParameterMgr::importDomainsBinary Pages: 1 -->
<svg width="700pt" height="210pt"
 viewBox="0.00 0.00 700.00 210.00" xmlns="http://www.w3.org/2000/svg" xmlns:xlink="http://www.w3.org/1999/xlink">
<g id="graph1" class="graph" transform="scale(1 1) rotate(0) translate(4 206)">
<title>CParameterMgr::importDomainsBinary</title>
<polygon fill="white" stroke="white" points="-4,5 -4,-206 697,-206 697,5 -4,5"/>
<!-- Node1 -->
<g id="node1" class="node"><title>Node1</title>
<polygon fill="#bfbfbf" stroke="black" points="0,-57 0,-91 172,-91 172,-57 0,-57"/>
<text text-anchor="start" x="8" y="-78" font-family="Verdana" font-size="10.00">CParameterMgr::importDomains</text>
<text text-anchor="middle" x="86" y="-65" font-family="Verdana" font-size="10.00">Binary</text>
</g>
<!-- Node2 -->
<g id="node3" class="node"><title>Node2</title>
<a xlink:href="classCConfigurableDomains.html#ae9bf3db3133286cb842a613185b7145c" target="_top" xlink:title="CConfigurableDomains\l::serializeSettings">
<polygon fill="white" stroke="black" points="208,-57 208,-91 334,-91 334,-57 208,-57"/>
<text text-anchor="start" x="216" y="-78" font-family="Verdana" font-size="10.00">CConfigurableDomains</text>
<text text-anchor="middle" x="271" y="-65" font-family="Verdana" font-size="10.00">::serializeSettings</text>
</a>
</g>
<!-- Node1&#45;&gt;Node2 -->
<g id="edge2" class="edge"><title>Node1&#45;&gt;Node2</title>
<path fill="none" stroke="midnightblue" d="M172.001,-74C180.587,-74 189.249,-74 197.688,-74"/>
<polygon fill="midnightblue" stroke="midnightblue" points="197.851,-77.5001 207.851,-74 197.851,-70.5001 197.851,-77.5001"/>
</g>
<!-- Node3 -->
<g id="node5" class="node"><title>Node3</title>
<a xlink:href="classCBinarySerializableElement.html#af291be4ac902bdc4b0401cc7f9298618" target="_top" xlink:title="CBinarySerializableElement\l::getDataSize">
<polygon fill="white" stroke="black" points="370,-150 370,-184 518,-184 518,-150 370,-150"/>
<text text-anchor="start" x="378" y="-171" font-family="Verdana" font-size="10.00">CBinarySerializableElement</text>
<text text-anchor="middle" x="444" y="-158" font-family="Verdana" font-size="10.00">::getDataSize</text>
</a>
</g>
<!-- Node2&#45;&gt;Node3 -->
<g id="edge4" class="edge"><title>Node2&#45;&gt;Node3</title>
<path fill="none" stroke="midnightblue" d="M292.791,-91.1649C312.206,-105.854 341.824,-126.814 370,-141 373.36,-142.692 376.856,-144.321 380.421,-145.882"/>
<polygon fill="midnightblue" stroke="midnightblue" points="379.39,-149.243 389.968,-149.849 382.076,-142.779 379.39,-149.243"/>
</g>
<!-- Node6 -->
<g id="node12" class="node"><title>Node6</title>
<a xlink:href="classCBinaryStream.html#aee075f204ff985610b57848cebe30a47" target="_top" xlink:title="CBinaryStream::open">
<polygon fill="white" stroke="black" points="384.5,-40.5 384.5,-61.5 503.5,-61.5 503.5,-40.5 384.5,-40.5"/>
<text text-anchor="middle" x="444" y="-48.5" font-family="Verdana" font-size="10.00">CBinaryStream::open</text>
</a>
</g>
<!-- Node2&#45;&gt;Node6 -->
<g id="edge12" class="edge"><title>Node2&#45;&gt;Node6</title>
<path fill="none" stroke="midnightblue" d="M334.436,-65.5662C347.423,-63.8397 361.159,-62.0136 374.35,-60.2598"/>
<polygon fill="midnightblue" stroke="midnightblue" points="374.858,-63.7231 384.31,-58.9357 373.936,-56.7842 374.858,-63.7231"/>
</g>
<!-- Node7 -->
<g id="node14" class="node"><title>Node7</title>
<a xlink:href="classCBinarySerializableElement.html#a1b023138703ff0807ae1a25724f1f7d4" target="_top" xlink:title="CBinarySerializableElement\l::binarySerialize">
<polygon fill="white" stroke="black" points="370,-80 370,-114 518,-114 518,-80 370,-80"/>
<text text-anchor="start" x="378" y="-101" font-family="Verdana" font-size="10.00">CBinarySerializableElement</text>
<text text-anchor="middle" x="444" y="-88" font-family="Verdana" font-size="10.00">::binarySerialize</text>
</a>
</g>
<!-- Node2&#45;&gt;Node7 -->
<g id="edge14" class="edge"><title>Node2&#45;&gt;Node7</title>
<path fill="none" stroke="midnightblue" d="M334.436,-82.4338C342.685,-83.5303 351.235,-84.667 359.755,-85.7998"/>
<polygon fill="midnightblue" stroke="midnightblue" points="359.351,-89.2767 369.725,-87.1252 360.273,-82.3378 359.351,-89.2767"/>
</g>
<!-- Node8 -->
<g id="node19" class="node"><title>Node8</title>
<a xlink:href="classCBinaryStream.html#aafcf30671f90cecb81901ba557a288a5" target="_top" xlink:title="CBinaryStream::close">
<polygon fill="white" stroke="black" points="384,-0.5 384,-21.5 504,-21.5 504,-0.5 384,-0.5"/>
<text text-anchor="middle" x="444" y="-8.5" font-family="Verdana" font-size="10.00">CBinaryStream::close</text>
</a>
</g>
<!-- Node2&#45;&gt;Node8 -->
<g id="edge22" class="edge"><title>Node2&#45;&gt;Node8</title>
<path fill="none" stroke="midnightblue" d="M306.703,-56.9904C325.313,-48.5105 348.6,-38.4943 370,-31 376.735,-28.6412 383.896,-26.393 391.008,-24.3126"/>
<polygon fill="midnightblue" stroke="midnightblue" points="391.966,-27.6793 400.632,-21.5851 390.057,-20.9445 391.966,-27.6793"/>
</g>
<!-- Node3&#45;&gt;Node3 -->
<g id="edge10" class="edge"><title>Node3&#45;&gt;Node3</title>
<path fill="none" stroke="midnightblue" d="M413.081,-184.288C407.826,-193.556 418.133,-202 444,-202 459.763,-202 469.747,-198.864 473.954,-194.318"/>
<polygon fill="midnightblue" stroke="midnightblue" points="477.445,-194.577 474.919,-184.288 470.477,-193.906 477.445,-194.577"/>
</g>
<!-- Node4 -->
<g id="node7" class="node"><title>Node4</title>
<a xlink:href="classCElement.html#a25f58d9d8b35e770806d669fb2a378e4" target="_top" xlink:title="CElement::getNbChildren">
<polygon fill="white" stroke="black" points="554.5,-148.5 554.5,-169.5 691.5,-169.5 691.5,-148.5 554.5,-148.5"/>
<text text-anchor="middle" x="623" y="-156.5" font-family="Verdana" font-size="10.00">CElement::getNbChildren</text>
</a>
</g>
<!-- Node3&#45;&gt;Node4 -->
<g id="edge6" class="edge"><title>Node3&#45;&gt;Node4</title>
<path fill="none" stroke="midnightblue" d="M518.098,-163.688C526.739,-163.302 535.578,-162.907 544.279,-162.518"/>
<polygon fill="midnightblue" stroke="midnightblue" points="544.576,-166.009 554.409,-162.066 544.263,-159.016 544.576,-166.009"/>
</g>
<!-- Node5 -->
<g id="node9" class="node"><title>Node5</title>
<a xlink:href="classCElement.html#a41bf126c3fdbb5bec0c2c3dcf35e9079" target="_top" xlink:title="CElement::getChild">
<polygon fill="white" stroke="black" points="569,-101.5 569,-122.5 677,-122.5 677,-101.5 569,-101.5"/>
<text text-anchor="middle" x="623" y="-109.5" font-family="Verdana" font-size="10.00">CElement::getChild</text>
</a>
</g>
<!-- Node3&#45;&gt;Node5 -->
<g id="edge8" class="edge"><title>Node3&#45;&gt;Node5</title>
<path fill="none" stroke="midnightblue" d="M499.656,-149.899C525.159,-142.063 554.962,-132.906 578.883,-125.556"/>
<polygon fill="midnightblue" stroke="midnightblue" points="580.214,-128.808 588.745,-122.525 578.158,-122.117 580.214,-128.808"/>
</g>
<!-- Node7&#45;&gt;Node4 -->
<g id="edge16" class="edge"><title>Node7&#45;&gt;Node4</title>
<path fill="none" stroke="midnightblue" d="M493.386,-114.106C521.557,-123.863 556.412,-135.936 582.88,-145.104"/>
<polygon fill="midnightblue" stroke="midnightblue" points="581.987,-148.498 592.582,-148.464 584.278,-141.884 581.987,-148.498"/>
</g>
<!-- Node7&#45;&gt;Node5 -->
<g id="edge18" class="edge"><title>Node7&#45;&gt;Node5</title>
<path fill="none" stroke="midnightblue" d="M518.098,-103.209C531.531,-104.335 545.441,-105.501 558.569,-106.601"/>
<polygon fill="midnightblue" stroke="midnightblue" points="558.647,-110.12 568.905,-107.467 559.232,-103.144 558.647,-110.12"/>
</g>
<!-- Node7&#45;&gt;Node7 -->
<g id="edge20" class="edge"><title>Node7&#45;&gt;Node7</title>
<path fill="none" stroke="midnightblue" d="M413.081,-114.288C407.826,-123.556 418.133,-132 444,-132 459.763,-132 469.747,-128.864 473.954,-124.318"/>
<polygon fill="midnightblue" stroke="midnightblue" points="477.445,-124.577 474.919,-114.288 470.477,-123.906 477.445,-124.577"/>
</g>
</g>
</svg>
