<?xml version="1.0" encoding="UTF-8" standalone="no"?>
<!DOCTYPE svg PUBLIC "-//W3C//DTD SVG 1.1//EN"
 "http://www.w3.org/Graphics/SVG/1.1/DTD/svg11.dtd">
<!-- Generated by graphviz version 2.26.3 (20100126.1600)
 -->
<!-- Title: CConfigurableDomains::listDomains Pages: 1 -->
<svg width="308pt" height="162pt"
 viewBox="0.00 0.00 308.00 162.00" xmlns="http://www.w3.org/2000/svg" xmlns:xlink="http://www.w3.org/1999/xlink">
<g id="graph1" class="graph" transform="scale(1 1) rotate(0) translate(4 158)">
<title>CConfigurableDomains::listDomains</title>
<polygon fill="white" stroke="white" points="-4,5 -4,-158 305,-158 305,5 -4,5"/>
<!-- Node1 -->
<g id="node1" class="node"><title>Node1</title>
<polygon fill="#bfbfbf" stroke="black" points="0,-66 0,-100 126,-100 126,-66 0,-66"/>
<text text-anchor="start" x="8" y="-87" font-family="Verdana" font-size="10.00">CConfigurableDomains</text>
<text text-anchor="middle" x="63" y="-74" font-family="Verdana" font-size="10.00">::listDomains</text>
</g>
<!-- Node2 -->
<g id="node3" class="node"><title>Node2</title>
<a xlink:href="classCElement.html#a25f58d9d8b35e770806d669fb2a378e4" target="_top" xlink:title="CElement::getNbChildren">
<polygon fill="white" stroke="black" points="162.5,-132.5 162.5,-153.5 299.5,-153.5 299.5,-132.5 162.5,-132.5"/>
<text text-anchor="middle" x="231" y="-140.5" font-family="Verdana" font-size="10.00">CElement::getNbChildren</text>
</a>
</g>
<!-- Node1&#45;&gt;Node2 -->
<g id="edge2" class="edge"><title>Node1&#45;&gt;Node2</title>
<path fill="none" stroke="midnightblue" d="M102.631,-100.089C120.595,-107.556 142.204,-116.152 162,-123 168.494,-125.246 175.388,-127.452 182.21,-129.531"/>
<polygon fill="midnightblue" stroke="midnightblue" points="181.515,-132.976 192.098,-132.475 183.513,-126.267 181.515,-132.976"/>
</g>
<!-- Node3 -->
<g id="node5" class="node"><title>Node3</title>
<a xlink:href="classCElement.html#a41bf126c3fdbb5bec0c2c3dcf35e9079" target="_top" xlink:title="CElement::getChild">
<polygon fill="white" stroke="black" points="177,-92.5 177,-113.5 285,-113.5 285,-92.5 177,-92.5"/>
<text text-anchor="middle" x="231" y="-100.5" font-family="Verdana" font-size="10.00">CElement::getChild</text>
</a>
</g>
<!-- Node1&#45;&gt;Node3 -->
<g id="edge4" class="edge"><title>Node1&#45;&gt;Node3</title>
<path fill="none" stroke="midnightblue" d="M126.035,-90.5042C139.39,-92.094 153.5,-93.7738 166.895,-95.3684"/>
<polygon fill="midnightblue" stroke="midnightblue" points="166.63,-98.8615 176.973,-96.5682 167.457,-91.9106 166.63,-98.8615"/>
</g>
<!-- Node4 -->
<g id="node7" class="node"><title>Node4</title>
<a xlink:href="classCElement.html#a49581fb6412e29e932962acd82d52d6a" target="_top" xlink:title="CElement::getName">
<polygon fill="white" stroke="black" points="174,-52.5 174,-73.5 288,-73.5 288,-52.5 174,-52.5"/>
<text text-anchor="middle" x="231" y="-60.5" font-family="Verdana" font-size="10.00">CElement::getName</text>
</a>
</g>
<!-- Node1&#45;&gt;Node4 -->
<g id="edge6" class="edge"><title>Node1&#45;&gt;Node4</title>
<path fill="none" stroke="midnightblue" d="M126.035,-75.4958C138.328,-74.0324 151.261,-72.4927 163.686,-71.0135"/>
<polygon fill="midnightblue" stroke="midnightblue" points="164.463,-74.4459 173.979,-69.7882 163.635,-67.495 164.463,-74.4459"/>
</g>
<!-- Node5 -->
<g id="node9" class="node"><title>Node5</title>
<a xlink:href="classCConfigurableDomain.html#a641075b0516177e468168bcf732b0f73" target="_top" xlink:title="CConfigurableDomain\l::getSequenceAwareness">
<polygon fill="white" stroke="black" points="162.5,-0 162.5,-34 299.5,-34 299.5,-0 162.5,-0"/>
<text text-anchor="start" x="170.5" y="-21" font-family="Verdana" font-size="10.00">CConfigurableDomain</text>
<text text-anchor="middle" x="231" y="-8" font-family="Verdana" font-size="10.00">::getSequenceAwareness</text>
</a>
</g>
<!-- Node1&#45;&gt;Node5 -->
<g id="edge8" class="edge"><title>Node1&#45;&gt;Node5</title>
<path fill="none" stroke="midnightblue" d="M104.822,-65.8477C122.436,-58.6899 143.178,-50.3476 162,-43 166.461,-41.2587 171.091,-39.4712 175.746,-37.6881"/>
<polygon fill="midnightblue" stroke="midnightblue" points="177.192,-40.8826 185.29,-34.0505 174.699,-34.3416 177.192,-40.8826"/>
</g>
</g>
</svg>
