<?xml version="1.0" encoding="UTF-8" standalone="no"?>
<!DOCTYPE svg PUBLIC "-//W3C//DTD SVG 1.1//EN"
 "http://www.w3.org/Graphics/SVG/1.1/DTD/svg11.dtd">
<!-- Generated by graphviz version 2.26.3 (20100126.1600)
 -->
<!-- Title: CBaseParameter::accessAsString Pages: 1 -->
<svg width="584pt" height="393pt"
 viewBox="0.00 0.00 584.00 393.00" xmlns="http://www.w3.org/2000/svg" xmlns:xlink="http://www.w3.org/1999/xlink">
<g id="graph1" class="graph" transform="scale(1 1) rotate(0) translate(4 389)">
<title>CBaseParameter::accessAsString</title>
<polygon fill="white" stroke="white" points="-4,5 -4,-389 581,-389 581,5 -4,5"/>
<!-- Node1 -->
<g id="node1" class="node"><title>Node1</title>
<polygon fill="#bfbfbf" stroke="black" points="0.5,-233 0.5,-267 149.5,-267 149.5,-233 0.5,-233"/>
<text text-anchor="start" x="8.5" y="-254" font-family="Verdana" font-size="10.00">CBaseParameter::accessAs</text>
<text text-anchor="middle" x="75" y="-241" font-family="Verdana" font-size="10.00">String</text>
</g>
<!-- Node2 -->
<g id="node3" class="node"><title>Node2</title>
<a xlink:href="classCBaseParameter.html#a00d311bf1da2353a1b27d523b4a76f59" target="_top" xlink:title="CBaseParameter::doSetValue">
<polygon fill="white" stroke="black" points="202,-363.5 202,-384.5 360,-384.5 360,-363.5 202,-363.5"/>
<text text-anchor="middle" x="281" y="-371.5" font-family="Verdana" font-size="10.00">CBaseParameter::doSetValue</text>
</a>
</g>
<!-- Node1&#45;&gt;Node2 -->
<g id="edge2" class="edge"><title>Node1&#45;&gt;Node2</title>
<path fill="none" stroke="midnightblue" d="M88.0237,-267.034C106.931,-290.489 144.31,-332.286 186,-354 190.349,-356.265 194.937,-358.274 199.652,-360.055"/>
<polygon fill="midnightblue" stroke="midnightblue" points="198.882,-363.49 209.476,-363.401 201.139,-356.864 198.882,-363.49"/>
</g>
<!-- Node3 -->
<g id="node5" class="node"><title>Node3</title>
<a xlink:href="classCConfigurableElement.html#a29d61e6d09ff508ebb87aea802f2704e" target="_top" xlink:title="CConfigurableElement\l::getOffset">
<polygon fill="white" stroke="black" points="219.5,-311 219.5,-345 342.5,-345 342.5,-311 219.5,-311"/>
<text text-anchor="start" x="227.5" y="-332" font-family="Verdana" font-size="10.00">CConfigurableElement</text>
<text text-anchor="middle" x="281" y="-319" font-family="Verdana" font-size="10.00">::getOffset</text>
</a>
</g>
<!-- Node1&#45;&gt;Node3 -->
<g id="edge4" class="edge"><title>Node1&#45;&gt;Node3</title>
<path fill="none" stroke="midnightblue" d="M107.882,-267.22C129.645,-278.16 159.039,-292.078 186,-302 193.587,-304.792 201.611,-307.439 209.653,-309.901"/>
<polygon fill="midnightblue" stroke="midnightblue" points="208.861,-313.316 219.443,-312.807 210.853,-306.606 208.861,-313.316"/>
</g>
<!-- Node4 -->
<g id="node7" class="node"><title>Node4</title>
<a xlink:href="classCParameterAccessContext.html#a8373a015bb145386732483ee3f6bdf63" target="_top" xlink:title="CParameterAccessContext\l::getBaseOffset">
<polygon fill="white" stroke="black" points="208.5,-259 208.5,-293 353.5,-293 353.5,-259 208.5,-259"/>
<text text-anchor="start" x="216.5" y="-280" font-family="Verdana" font-size="10.00">CParameterAccessContext</text>
<text text-anchor="middle" x="281" y="-267" font-family="Verdana" font-size="10.00">::getBaseOffset</text>
</a>
</g>
<!-- Node1&#45;&gt;Node4 -->
<g id="edge6" class="edge"><title>Node1&#45;&gt;Node4</title>
<path fill="none" stroke="midnightblue" d="M149.662,-259.423C165.491,-261.421 182.288,-263.541 198.392,-265.574"/>
<polygon fill="midnightblue" stroke="midnightblue" points="197.955,-269.046 208.314,-266.826 198.831,-262.101 197.955,-269.046"/>
</g>
<!-- Node5 -->
<g id="node9" class="node"><title>Node5</title>
<a xlink:href="classCBaseParameter.html#a911cbd2df0c950a79863fdd689731f88" target="_top" xlink:title="Append the parameter path to the error. ">
<polygon fill="white" stroke="black" points="186,-207 186,-241 376,-241 376,-207 186,-207"/>
<text text-anchor="start" x="194" y="-228" font-family="Verdana" font-size="10.00">CBaseParameter::appendParameter</text>
<text text-anchor="middle" x="281" y="-215" font-family="Verdana" font-size="10.00">PathToError</text>
</a>
</g>
<!-- Node1&#45;&gt;Node5 -->
<g id="edge8" class="edge"><title>Node1&#45;&gt;Node5</title>
<path fill="none" stroke="midnightblue" d="M149.662,-240.577C158.195,-239.5 167.01,-238.387 175.846,-237.272"/>
<polygon fill="midnightblue" stroke="midnightblue" points="176.334,-240.738 185.817,-236.013 175.457,-233.793 176.334,-240.738"/>
</g>
<!-- Node8 -->
<g id="node16" class="node"><title>Node8</title>
<a xlink:href="classCInstanceConfigurableElement.html#a2e6e7782de8e4d7e844a869917f2f037" target="_top" xlink:title="Performs the sync if the AutoSync is enabled. ">
<polygon fill="white" stroke="black" points="199,-132 199,-166 363,-166 363,-132 199,-132"/>
<text text-anchor="start" x="207" y="-153" font-family="Verdana" font-size="10.00">CInstanceConfigurableElement</text>
<text text-anchor="middle" x="281" y="-140" font-family="Verdana" font-size="10.00">::sync</text>
</a>
</g>
<!-- Node1&#45;&gt;Node8 -->
<g id="edge16" class="edge"><title>Node1&#45;&gt;Node8</title>
<path fill="none" stroke="midnightblue" d="M109.945,-232.867C144.972,-215.693 199.006,-189.201 236.949,-170.598"/>
<polygon fill="midnightblue" stroke="midnightblue" points="238.79,-173.593 246.228,-166.048 235.708,-167.308 238.79,-173.593"/>
</g>
<!-- Node14 -->
<g id="node28" class="node"><title>Node14</title>
<a xlink:href="classCBaseParameter.html#aea4a2e14dbd4588fbe837bbe5cae5076" target="_top" xlink:title="CBaseParameter::doGetValue">
<polygon fill="white" stroke="black" points="201.5,-92.5 201.5,-113.5 360.5,-113.5 360.5,-92.5 201.5,-92.5"/>
<text text-anchor="middle" x="281" y="-100.5" font-family="Verdana" font-size="10.00">CBaseParameter::doGetValue</text>
</a>
</g>
<!-- Node1&#45;&gt;Node14 -->
<g id="edge28" class="edge"><title>Node1&#45;&gt;Node14</title>
<path fill="none" stroke="midnightblue" d="M84.8182,-232.883C101.704,-205.101 139.006,-150.535 186,-123 189.681,-120.843 193.563,-118.917 197.57,-117.198"/>
<polygon fill="midnightblue" stroke="midnightblue" points="199.021,-120.39 207.111,-113.549 196.52,-113.852 199.021,-120.39"/>
</g>
<!-- Node6 -->
<g id="node11" class="node"><title>Node6</title>
<a xlink:href="classCErrorContext.html#afdd38e8aaaf045faaf575cf3ccbbc37b" target="_top" xlink:title="CErrorContext::appendToError">
<polygon fill="white" stroke="black" points="414.5,-294.5 414.5,-315.5 573.5,-315.5 573.5,-294.5 414.5,-294.5"/>
<text text-anchor="middle" x="494" y="-302.5" font-family="Verdana" font-size="10.00">CErrorContext::appendToError</text>
</a>
</g>
<!-- Node5&#45;&gt;Node6 -->
<g id="edge10" class="edge"><title>Node5&#45;&gt;Node6</title>
<path fill="none" stroke="midnightblue" d="M357.084,-241.045C363.66,-243.638 370.062,-246.606 376,-250 395.374,-261.073 392.473,-274.198 412,-285 416.003,-287.214 420.249,-289.186 424.62,-290.941"/>
<polygon fill="midnightblue" stroke="midnightblue" points="423.745,-294.347 434.34,-294.449 426.121,-287.762 423.745,-294.347"/>
</g>
<!-- Node7 -->
<g id="node13" class="node"><title>Node7</title>
<a xlink:href="classCElement.html#a7022c0fc8063f0aae9d97b06e74d4ac1" target="_top" xlink:title="CElement::getPath">
<polygon fill="white" stroke="black" points="441,-236.5 441,-257.5 547,-257.5 547,-236.5 441,-236.5"/>
<text text-anchor="middle" x="494" y="-244.5" font-family="Verdana" font-size="10.00">CElement::getPath</text>
</a>
</g>
<!-- Node5&#45;&gt;Node7 -->
<g id="edge12" class="edge"><title>Node5&#45;&gt;Node7</title>
<path fill="none" stroke="midnightblue" d="M376.286,-234.289C394.632,-236.27 413.426,-238.3 430.459,-240.139"/>
<polygon fill="midnightblue" stroke="midnightblue" points="430.5,-243.663 440.818,-241.257 431.251,-236.704 430.5,-243.663"/>
</g>
<!-- Node7&#45;&gt;Node7 -->
<g id="edge14" class="edge"><title>Node7&#45;&gt;Node7</title>
<path fill="none" stroke="midnightblue" d="M460.315,-257.708C445.92,-266.653 457.148,-276 494,-276 519.335,-276 532.56,-271.582 533.673,-265.914"/>
<polygon fill="midnightblue" stroke="midnightblue" points="536.407,-263.722 527.685,-257.708 530.752,-267.849 536.407,-263.722"/>
</g>
<!-- Node9 -->
<g id="node18" class="node"><title>Node9</title>
<a xlink:href="classCParameterAccessContext.html#ad073ad9ca128b5504f8a4a1d844c4e00" target="_top" xlink:title="CParameterAccessContext\l::getAutoSync">
<polygon fill="white" stroke="black" points="421.5,-184 421.5,-218 566.5,-218 566.5,-184 421.5,-184"/>
<text text-anchor="start" x="429.5" y="-205" font-family="Verdana" font-size="10.00">CParameterAccessContext</text>
<text text-anchor="middle" x="494" y="-192" font-family="Verdana" font-size="10.00">::getAutoSync</text>
</a>
</g>
<!-- Node8&#45;&gt;Node9 -->
<g id="edge18" class="edge"><title>Node8&#45;&gt;Node9</title>
<path fill="none" stroke="midnightblue" d="M350.744,-166.027C371.064,-170.987 393.418,-176.445 414.302,-181.543"/>
<polygon fill="midnightblue" stroke="midnightblue" points="413.554,-184.963 424.099,-183.935 415.215,-178.163 413.554,-184.963"/>
</g>
<!-- Node10 -->
<g id="node20" class="node"><title>Node10</title>
<a xlink:href="classCInstanceConfigurableElement.html#a4a613634c5012d4f32c310ccf2fc9fb4" target="_top" xlink:title="CInstanceConfigurableElement\l::getSyncer">
<polygon fill="white" stroke="black" points="412,-132 412,-166 576,-166 576,-132 412,-132"/>
<text text-anchor="start" x="420" y="-153" font-family="Verdana" font-size="10.00">CInstanceConfigurableElement</text>
<text text-anchor="middle" x="494" y="-140" font-family="Verdana" font-size="10.00">::getSyncer</text>
</a>
</g>
<!-- Node8&#45;&gt;Node10 -->
<g id="edge20" class="edge"><title>Node8&#45;&gt;Node10</title>
<path fill="none" stroke="midnightblue" d="M363.047,-149C375.715,-149 388.872,-149 401.746,-149"/>
<polygon fill="midnightblue" stroke="midnightblue" points="401.996,-152.5 411.996,-149 401.996,-145.5 401.996,-152.5"/>
</g>
<!-- Node11 -->
<g id="node22" class="node"><title>Node11</title>
<a xlink:href="classCErrorContext.html#a9d58b281c0d0fc9a6d3b83714cf812ef" target="_top" xlink:title="CErrorContext::setError">
<polygon fill="white" stroke="black" points="430,-92.5 430,-113.5 558,-113.5 558,-92.5 430,-92.5"/>
<text text-anchor="middle" x="494" y="-100.5" font-family="Verdana" font-size="10.00">CErrorContext::setError</text>
</a>
</g>
<!-- Node8&#45;&gt;Node11 -->
<g id="edge22" class="edge"><title>Node8&#45;&gt;Node11</title>
<path fill="none" stroke="midnightblue" d="M360.011,-131.937C384.865,-126.569 411.865,-120.738 435.071,-115.726"/>
<polygon fill="midnightblue" stroke="midnightblue" points="436.069,-119.092 445.105,-113.56 434.591,-112.249 436.069,-119.092"/>
</g>
<!-- Node12 -->
<g id="node24" class="node"><title>Node12</title>
<a xlink:href="classISyncer.html#a16844aac52fb0caf4aed4f68d4b038d9" target="_top" xlink:title="ISyncer::sync">
<polygon fill="white" stroke="black" points="454,-52.5 454,-73.5 534,-73.5 534,-52.5 454,-52.5"/>
<text text-anchor="middle" x="494" y="-60.5" font-family="Verdana" font-size="10.00">ISyncer::sync</text>
</a>
</g>
<!-- Node8&#45;&gt;Node12 -->
<g id="edge24" class="edge"><title>Node8&#45;&gt;Node12</title>
<path fill="none" stroke="midnightblue" d="M358.31,-131.968C364.487,-129.381 370.469,-126.411 376,-123 396.358,-110.446 391.469,-95.2683 412,-83 421.631,-77.2453 432.835,-73.1439 443.811,-70.2215"/>
<polygon fill="midnightblue" stroke="midnightblue" points="444.854,-73.5713 453.774,-67.8556 443.236,-66.7607 444.854,-73.5713"/>
</g>
<!-- Node13 -->
<g id="node26" class="node"><title>Node13</title>
<a xlink:href="classCParameterAccessContext.html#ad354dd5bf2a88f4ed4197be9a59fda20" target="_top" xlink:title="CParameterAccessContext\l::getParameterBlackboard">
<polygon fill="white" stroke="black" points="421.5,-0 421.5,-34 566.5,-34 566.5,-0 421.5,-0"/>
<text text-anchor="start" x="429.5" y="-21" font-family="Verdana" font-size="10.00">CParameterAccessContext</text>
<text text-anchor="middle" x="494" y="-8" font-family="Verdana" font-size="10.00">::getParameterBlackboard</text>
</a>
</g>
<!-- Node8&#45;&gt;Node13 -->
<g id="edge26" class="edge"><title>Node8&#45;&gt;Node13</title>
<path fill="none" stroke="midnightblue" d="M363.277,-131.783C367.812,-129.244 372.101,-126.334 376,-123 405.631,-97.6579 382.881,-68.9282 412,-43 413.304,-41.8393 414.659,-40.7303 416.059,-39.6708"/>
<polygon fill="midnightblue" stroke="midnightblue" points="418.068,-42.5389 424.511,-34.128 414.229,-36.6854 418.068,-42.5389"/>
</g>
</g>
</svg>
