<?xml version="1.0" encoding="UTF-8" standalone="no"?>
<!DOCTYPE svg PUBLIC "-//W3C//DTD SVG 1.1//EN"
 "http://www.w3.org/Graphics/SVG/1.1/DTD/svg11.dtd">
<!-- Generated by graphviz version 2.26.3 (20100126.1600)
 -->
<!-- Title: CStringParameter::setDefaultValues Pages: 1 -->
<svg width="348pt" height="146pt"
 viewBox="0.00 0.00 348.00 146.00" xmlns="http://www.w3.org/2000/svg" xmlns:xlink="http://www.w3.org/1999/xlink">
<g id="graph1" class="graph" transform="scale(1 1) rotate(0) translate(4 142)">
<title>CStringParameter::setDefaultValues</title>
<polygon fill="white" stroke="white" points="-4,5 -4,-142 345,-142 345,5 -4,5"/>
<!-- Node1 -->
<g id="node1" class="node"><title>Node1</title>
<polygon fill="#bfbfbf" stroke="black" points="0,-52 0,-86 158,-86 158,-52 0,-52"/>
<text text-anchor="start" x="8" y="-73" font-family="Verdana" font-size="10.00">CStringParameter::setDefault</text>
<text text-anchor="middle" x="79" y="-60" font-family="Verdana" font-size="10.00">Values</text>
</g>
<!-- Node2 -->
<g id="node3" class="node"><title>Node2</title>
<a xlink:href="classCParameterAccessContext.html#ad354dd5bf2a88f4ed4197be9a59fda20" target="_top" xlink:title="CParameterAccessContext\l::getParameterBlackboard">
<polygon fill="white" stroke="black" points="194.5,-104 194.5,-138 339.5,-138 339.5,-104 194.5,-104"/>
<text text-anchor="start" x="202.5" y="-125" font-family="Verdana" font-size="10.00">CParameterAccessContext</text>
<text text-anchor="middle" x="267" y="-112" font-family="Verdana" font-size="10.00">::getParameterBlackboard</text>
</a>
</g>
<!-- Node1&#45;&gt;Node2 -->
<g id="edge2" class="edge"><title>Node1&#45;&gt;Node2</title>
<path fill="none" stroke="midnightblue" d="M140.558,-86.0267C158.168,-90.8976 177.51,-96.2474 195.654,-101.266"/>
<polygon fill="midnightblue" stroke="midnightblue" points="194.732,-104.642 205.303,-103.935 196.598,-97.8957 194.732,-104.642"/>
</g>
<!-- Node3 -->
<g id="node5" class="node"><title>Node3</title>
<a xlink:href="classCParameterBlackboard.html#a8b3fc6d721104f252219e1d4e99bd5b2" target="_top" xlink:title="CParameterBlackboard\l::writeString">
<polygon fill="white" stroke="black" points="203.5,-52 203.5,-86 330.5,-86 330.5,-52 203.5,-52"/>
<text text-anchor="start" x="211.5" y="-73" font-family="Verdana" font-size="10.00">CParameterBlackboard</text>
<text text-anchor="middle" x="267" y="-60" font-family="Verdana" font-size="10.00">::writeString</text>
</a>
</g>
<!-- Node1&#45;&gt;Node3 -->
<g id="edge4" class="edge"><title>Node1&#45;&gt;Node3</title>
<path fill="none" stroke="midnightblue" d="M158.184,-69C169.709,-69 181.538,-69 192.955,-69"/>
<polygon fill="midnightblue" stroke="midnightblue" points="193.305,-72.5001 203.305,-69 193.305,-65.5001 193.305,-72.5001"/>
</g>
<!-- Node4 -->
<g id="node7" class="node"><title>Node4</title>
<a xlink:href="classCConfigurableElement.html#a29d61e6d09ff508ebb87aea802f2704e" target="_top" xlink:title="CConfigurableElement\l::getOffset">
<polygon fill="white" stroke="black" points="205.5,-0 205.5,-34 328.5,-34 328.5,-0 205.5,-0"/>
<text text-anchor="start" x="213.5" y="-21" font-family="Verdana" font-size="10.00">CConfigurableElement</text>
<text text-anchor="middle" x="267" y="-8" font-family="Verdana" font-size="10.00">::getOffset</text>
</a>
</g>
<!-- Node1&#45;&gt;Node4 -->
<g id="edge6" class="edge"><title>Node1&#45;&gt;Node4</title>
<path fill="none" stroke="midnightblue" d="M140.558,-51.9733C158.168,-47.1024 177.51,-41.7526 195.654,-36.7341"/>
<polygon fill="midnightblue" stroke="midnightblue" points="196.598,-40.1043 205.303,-34.065 194.732,-33.3576 196.598,-40.1043"/>
</g>
</g>
</svg>
