<?xml version="1.0" encoding="UTF-8" standalone="no"?>
<!DOCTYPE svg PUBLIC "-//W3C//DTD SVG 1.1//EN"
 "http://www.w3.org/Graphics/SVG/1.1/DTD/svg11.dtd">
<!-- Generated by graphviz version 2.26.3 (20100126.1600)
 -->
<!-- Title: CBinaryStream::isOut Pages: 1 -->
<svg width="600pt" height="80pt"
 viewBox="0.00 0.00 600.00 79.82" xmlns="http://www.w3.org/2000/svg" xmlns:xlink="http://www.w3.org/1999/xlink">
<g id="graph1" class="graph" transform="scale(1 1) rotate(0) translate(4 75.8206)">
<title>CBinaryStream::isOut</title>
<polygon fill="white" stroke="white" points="-4,5 -4,-75.8206 597,-75.8206 597,5 -4,5"/>
<!-- Node1 -->
<g id="node1" class="node"><title>Node1</title>
<polygon fill="#bfbfbf" stroke="black" points="0,-29.5 0,-50.5 120,-50.5 120,-29.5 0,-29.5"/>
<text text-anchor="middle" x="60" y="-37.5" font-family="Verdana" font-size="10.00">CBinaryStream::isOut</text>
</g>
<!-- Node2 -->
<g id="node3" class="node"><title>Node2</title>
<a xlink:href="classCAreaConfiguration.html#af6fe64c1853ab6ecc7be1a7348a43aed" target="_top" xlink:title="CAreaConfiguration\l::serialize">
<polygon fill="white" stroke="black" points="320,-23 320,-57 430,-57 430,-23 320,-23"/>
<text text-anchor="start" x="328" y="-44" font-family="Verdana" font-size="10.00">CAreaConfiguration</text>
<text text-anchor="middle" x="375" y="-31" font-family="Verdana" font-size="10.00">::serialize</text>
</a>
</g>
<!-- Node1&#45;&gt;Node2 -->
<g id="edge2" class="edge"><title>Node1&#45;&gt;Node2</title>
<path fill="none" stroke="midnightblue" d="M100.308,-53.4637C117.291,-58.4669 137.399,-63.5257 156,-66 212.392,-73.5013 227.661,-73.8906 284,-66 297.343,-64.1312 311.475,-60.7921 324.521,-57.1162"/>
<polygon fill="midnightblue" stroke="midnightblue" points="101.29,-50.1041 90.7041,-50.5443 99.2538,-56.8015 101.29,-50.1041"/>
</g>
<!-- Node3 -->
<g id="node5" class="node"><title>Node3</title>
<a xlink:href="classCDomainConfiguration.html#adb2fabd61808402a177681611b84701c" target="_top" xlink:title="CDomainConfiguration\l::binarySerialize">
<polygon fill="white" stroke="black" points="466.5,-0 466.5,-34 591.5,-34 591.5,-0 466.5,-0"/>
<text text-anchor="start" x="474.5" y="-21" font-family="Verdana" font-size="10.00">CDomainConfiguration</text>
<text text-anchor="middle" x="529" y="-8" font-family="Verdana" font-size="10.00">::binarySerialize</text>
</a>
</g>
<!-- Node1&#45;&gt;Node3 -->
<g id="edge6" class="edge"><title>Node1&#45;&gt;Node3</title>
<path fill="none" stroke="midnightblue" d="M100.308,-26.5363C117.291,-21.5331 137.399,-16.4743 156,-14 264.327,0.409675 391.915,-5.48133 466.301,-11.1707"/>
<polygon fill="midnightblue" stroke="midnightblue" points="99.2538,-23.1985 90.7041,-29.4557 101.29,-29.8959 99.2538,-23.1985"/>
</g>
<!-- Node4 -->
<g id="node8" class="node"><title>Node4</title>
<a xlink:href="classCParameterBlackboard.html#ad96ba821eb1035b06a5a30ef7377da39" target="_top" xlink:title="CParameterBlackboard\l::serialize">
<polygon fill="white" stroke="black" points="156.5,-23 156.5,-57 283.5,-57 283.5,-23 156.5,-23"/>
<text text-anchor="start" x="164.5" y="-44" font-family="Verdana" font-size="10.00">CParameterBlackboard</text>
<text text-anchor="middle" x="220" y="-31" font-family="Verdana" font-size="10.00">::serialize</text>
</a>
</g>
<!-- Node1&#45;&gt;Node4 -->
<g id="edge8" class="edge"><title>Node1&#45;&gt;Node4</title>
<path fill="none" stroke="midnightblue" d="M130.182,-40C138.912,-40 147.799,-40 156.421,-40"/>
<polygon fill="midnightblue" stroke="midnightblue" points="130.033,-36.5001 120.033,-40 130.033,-43.5001 130.033,-36.5001"/>
</g>
<!-- Node2&#45;&gt;Node3 -->
<g id="edge4" class="edge"><title>Node2&#45;&gt;Node3</title>
<path fill="none" stroke="midnightblue" d="M440.214,-30.2602C448.88,-28.966 457.749,-27.6414 466.369,-26.3539"/>
<polygon fill="midnightblue" stroke="midnightblue" points="439.536,-26.8226 430.163,-31.7614 440.57,-33.7458 439.536,-26.8226"/>
</g>
<!-- Node4&#45;&gt;Node2 -->
<g id="edge10" class="edge"><title>Node4&#45;&gt;Node2</title>
<path fill="none" stroke="midnightblue" d="M294.008,-40C302.63,-40 311.31,-40 319.619,-40"/>
<polygon fill="midnightblue" stroke="midnightblue" points="293.939,-36.5001 283.939,-40 293.939,-43.5001 293.939,-36.5001"/>
</g>
</g>
</svg>
