<?xml version="1.0" encoding="UTF-8" standalone="no"?>
<!DOCTYPE svg PUBLIC "-//W3C//DTD SVG 1.1//EN"
 "http://www.w3.org/Graphics/SVG/1.1/DTD/svg11.dtd">
<!-- Generated by graphviz version 2.26.3 (20100126.1600)
 -->
<!-- Title: CBitParameterBlock::getSize Pages: 1 -->
<svg width="320pt" height="42pt"
 viewBox="0.00 0.00 320.00 42.00" xmlns="http://www.w3.org/2000/svg" xmlns:xlink="http://www.w3.org/1999/xlink">
<g id="graph1" class="graph" transform="scale(1 1) rotate(0) translate(4 38)">
<title>CBitParameterBlock::getSize</title>
<polygon fill="white" stroke="white" points="-4,5 -4,-38 317,-38 317,5 -4,5"/>
<!-- Node1 -->
<g id="node1" class="node"><title>Node1</title>
<polygon fill="#bfbfbf" stroke="black" points="0,-0 0,-34 112,-34 112,-0 0,-0"/>
<text text-anchor="start" x="8" y="-21" font-family="Verdana" font-size="10.00">CBitParameterBlock</text>
<text text-anchor="middle" x="56" y="-8" font-family="Verdana" font-size="10.00">::getSize</text>
</g>
<!-- Node2 -->
<g id="node3" class="node"><title>Node2</title>
<a xlink:href="classCInstanceConfigurableElement.html#ae2d941df411f8ec4c025cbd04d3ba421" target="_top" xlink:title="CInstanceConfigurableElement\l::getTypeElement">
<polygon fill="white" stroke="black" points="148,-0 148,-34 312,-34 312,-0 148,-0"/>
<text text-anchor="start" x="156" y="-21" font-family="Verdana" font-size="10.00">CInstanceConfigurableElement</text>
<text text-anchor="middle" x="230" y="-8" font-family="Verdana" font-size="10.00">::getTypeElement</text>
</a>
</g>
<!-- Node1&#45;&gt;Node2 -->
<g id="edge2" class="edge"><title>Node1&#45;&gt;Node2</title>
<path fill="none" stroke="midnightblue" d="M112.012,-17C120.224,-17 128.859,-17 137.568,-17"/>
<polygon fill="midnightblue" stroke="midnightblue" points="137.803,-20.5001 147.803,-17 137.803,-13.5001 137.803,-20.5001"/>
</g>
</g>
</svg>
