<?xml version="1.0" encoding="UTF-8" standalone="no"?>
<!DOCTYPE svg PUBLIC "-//W3C//DTD SVG 1.1//EN"
 "http://www.w3.org/Graphics/SVG/1.1/DTD/svg11.dtd">
<!-- Generated by graphviz version 2.26.3 (20100126.1600)
 -->
<!-- Title: CEnumValuePair::getNumericalAsString Pages: 1 -->
<svg width="352pt" height="122pt"
 viewBox="0.00 0.00 352.00 122.00" xmlns="http://www.w3.org/2000/svg" xmlns:xlink="http://www.w3.org/1999/xlink">
<g id="graph1" class="graph" transform="scale(1 1) rotate(0) translate(4 118)">
<title>CEnumValuePair::getNumericalAsString</title>
<polygon fill="white" stroke="white" points="-4,5 -4,-118 349,-118 349,5 -4,5"/>
<!-- Node1 -->
<g id="node1" class="node"><title>Node1</title>
<polygon fill="#bfbfbf" stroke="black" points="0.5,-34 0.5,-68 165.5,-68 165.5,-34 0.5,-34"/>
<text text-anchor="start" x="8.5" y="-55" font-family="Verdana" font-size="10.00">CEnumValuePair::getNumerical</text>
<text text-anchor="middle" x="83" y="-42" font-family="Verdana" font-size="10.00">AsString</text>
</g>
<!-- Node2 -->
<g id="node3" class="node"><title>Node2</title>
<a xlink:href="classCEnumParameterType.html#ad36c8d4e9a04060581ba68f744fd41e7" target="_top" xlink:title="CEnumParameterType\l::showProperties">
<polygon fill="white" stroke="black" points="212,-80 212,-114 334,-114 334,-80 212,-80"/>
<text text-anchor="start" x="220" y="-101" font-family="Verdana" font-size="10.00">CEnumParameterType</text>
<text text-anchor="middle" x="273" y="-88" font-family="Verdana" font-size="10.00">::showProperties</text>
</a>
</g>
<!-- Node1&#45;&gt;Node2 -->
<g id="edge2" class="edge"><title>Node1&#45;&gt;Node2</title>
<path fill="none" stroke="midnightblue" d="M163.444,-70.4759C179.596,-74.3863 196.322,-78.4359 211.696,-82.158"/>
<polygon fill="midnightblue" stroke="midnightblue" points="164.022,-67.0148 153.479,-68.0633 162.375,-73.8182 164.022,-67.0148"/>
</g>
<!-- Node3 -->
<g id="node5" class="node"><title>Node3</title>
<a xlink:href="classCEnumValuePair.html#ac9f2ee3c41d428efb8ce394442d1b4b9" target="_top" xlink:title="CEnumValuePair::logValue">
<polygon fill="white" stroke="black" points="202.5,-40.5 202.5,-61.5 343.5,-61.5 343.5,-40.5 202.5,-40.5"/>
<text text-anchor="middle" x="273" y="-48.5" font-family="Verdana" font-size="10.00">CEnumValuePair::logValue</text>
</a>
</g>
<!-- Node1&#45;&gt;Node3 -->
<g id="edge4" class="edge"><title>Node1&#45;&gt;Node3</title>
<path fill="none" stroke="midnightblue" d="M175.659,-51C184.676,-51 193.722,-51 202.47,-51"/>
<polygon fill="midnightblue" stroke="midnightblue" points="175.508,-47.5001 165.508,-51 175.508,-54.5001 175.508,-47.5001"/>
</g>
<!-- Node4 -->
<g id="node7" class="node"><title>Node4</title>
<a xlink:href="classCEnumValuePair.html#af7f3d59a079b449b72e6e0eb5dd8fedc" target="_top" xlink:title="CEnumValuePair::toXml">
<polygon fill="white" stroke="black" points="209,-0.5 209,-21.5 337,-21.5 337,-0.5 209,-0.5"/>
<text text-anchor="middle" x="273" y="-8.5" font-family="Verdana" font-size="10.00">CEnumValuePair::toXml</text>
</a>
</g>
<!-- Node1&#45;&gt;Node4 -->
<g id="edge6" class="edge"><title>Node1&#45;&gt;Node4</title>
<path fill="none" stroke="midnightblue" d="M173.799,-31.8845C190.754,-28.3149 207.889,-24.7077 223.036,-21.5188"/>
<polygon fill="midnightblue" stroke="midnightblue" points="172.917,-28.4933 163.853,-33.9784 174.359,-35.3431 172.917,-28.4933"/>
</g>
</g>
</svg>
