<?xml version="1.0" encoding="UTF-8" standalone="no"?>
<!DOCTYPE svg PUBLIC "-//W3C//DTD SVG 1.1//EN"
 "http://www.w3.org/Graphics/SVG/1.1/DTD/svg11.dtd">
<!-- Generated by graphviz version 2.26.3 (20100126.1600)
 -->
<!-- Title: CPathNavigator::isPathValid Pages: 1 -->
<svg width="556pt" height="186pt"
 viewBox="0.00 0.00 556.00 186.00" xmlns="http://www.w3.org/2000/svg" xmlns:xlink="http://www.w3.org/1999/xlink">
<g id="graph1" class="graph" transform="scale(1 1) rotate(0) translate(4 182)">
<title>CPathNavigator::isPathValid</title>
<polygon fill="white" stroke="white" points="-4,5 -4,-182 553,-182 553,5 -4,5"/>
<!-- Node1 -->
<g id="node1" class="node"><title>Node1</title>
<polygon fill="#bfbfbf" stroke="black" points="0,-72.5 0,-93.5 148,-93.5 148,-72.5 0,-72.5"/>
<text text-anchor="middle" x="74" y="-80.5" font-family="Verdana" font-size="10.00">CPathNavigator::isPathValid</text>
</g>
<!-- Node2 -->
<g id="node3" class="node"><title>Node2</title>
<a xlink:href="classCElementLocator.html#a94ddc34b50d96cd1cc78f43e3014ce36" target="_top" xlink:title="CElementLocator::locate">
<polygon fill="white" stroke="black" points="184,-72.5 184,-93.5 318,-93.5 318,-72.5 184,-72.5"/>
<text text-anchor="middle" x="251" y="-80.5" font-family="Verdana" font-size="10.00">CElementLocator::locate</text>
</a>
</g>
<!-- Node1&#45;&gt;Node2 -->
<g id="edge2" class="edge"><title>Node1&#45;&gt;Node2</title>
<path fill="none" stroke="midnightblue" d="M158.094,-83C166.699,-83 175.359,-83 183.749,-83"/>
<polygon fill="midnightblue" stroke="midnightblue" points="158.038,-79.5001 148.038,-83 158.038,-86.5001 158.038,-79.5001"/>
</g>
<!-- Node3 -->
<g id="node5" class="node"><title>Node3</title>
<a xlink:href="classCParameterMgr.html#a25055f536c2d537e86852c87a4e1a061" target="_top" xlink:title="CParameterMgr::accessConfiguration\lValue">
<polygon fill="white" stroke="black" points="354,-144 354,-178 548,-178 548,-144 354,-144"/>
<text text-anchor="start" x="362" y="-165" font-family="Verdana" font-size="10.00">CParameterMgr::accessConfiguration</text>
<text text-anchor="middle" x="451" y="-152" font-family="Verdana" font-size="10.00">Value</text>
</a>
</g>
<!-- Node2&#45;&gt;Node3 -->
<g id="edge4" class="edge"><title>Node2&#45;&gt;Node3</title>
<path fill="none" stroke="midnightblue" d="M278.086,-98.6109C298.463,-109.872 327.343,-124.823 354,-135 362.47,-138.234 371.501,-141.226 380.516,-143.943"/>
<polygon fill="midnightblue" stroke="midnightblue" points="279.522,-95.4038 269.087,-93.5717 276.102,-101.511 279.522,-95.4038"/>
</g>
<!-- Node4 -->
<g id="node7" class="node"><title>Node4</title>
<a xlink:href="classCParameterMgr.html#ae9941471fb32f02b3620cf46cd13ebbb" target="_top" xlink:title="CParameterMgr::addConfigurable\lElementToDomain">
<polygon fill="white" stroke="black" points="363,-92 363,-126 539,-126 539,-92 363,-92"/>
<text text-anchor="start" x="371" y="-113" font-family="Verdana" font-size="10.00">CParameterMgr::addConfigurable</text>
<text text-anchor="middle" x="451" y="-100" font-family="Verdana" font-size="10.00">ElementToDomain</text>
</a>
</g>
<!-- Node2&#45;&gt;Node4 -->
<g id="edge6" class="edge"><title>Node2&#45;&gt;Node4</title>
<path fill="none" stroke="midnightblue" d="M328.356,-93.0562C339.607,-94.519 351.263,-96.0342 362.711,-97.5224"/>
<polygon fill="midnightblue" stroke="midnightblue" points="328.521,-89.5484 318.153,-91.73 327.619,-96.49 328.521,-89.5484"/>
</g>
<!-- Node5 -->
<g id="node9" class="node"><title>Node5</title>
<a xlink:href="classCParameterMgr.html#a4f307490c67f2dde0b08e638500dd5d4" target="_top" xlink:title="CParameterMgr::removeConfigurable\lElementFromDomain">
<polygon fill="white" stroke="black" points="354,-40 354,-74 548,-74 548,-40 354,-40"/>
<text text-anchor="start" x="362" y="-61" font-family="Verdana" font-size="10.00">CParameterMgr::removeConfigurable</text>
<text text-anchor="middle" x="451" y="-48" font-family="Verdana" font-size="10.00">ElementFromDomain</text>
</a>
</g>
<!-- Node2&#45;&gt;Node5 -->
<g id="edge8" class="edge"><title>Node2&#45;&gt;Node5</title>
<path fill="none" stroke="midnightblue" d="M328.238,-72.959C336.611,-71.8706 345.209,-70.7528 353.779,-69.6387"/>
<polygon fill="midnightblue" stroke="midnightblue" points="327.619,-69.51 318.153,-74.27 328.521,-76.4516 327.619,-69.51"/>
</g>
<!-- Node6 -->
<g id="node11" class="node"><title>Node6</title>
<a xlink:href="classCParameterMgr.html#a042735242f31241743085d2d9d7edcc5" target="_top" xlink:title="CParameterMgr::split">
<polygon fill="white" stroke="black" points="392.5,-0.5 392.5,-21.5 509.5,-21.5 509.5,-0.5 392.5,-0.5"/>
<text text-anchor="middle" x="451" y="-8.5" font-family="Verdana" font-size="10.00">CParameterMgr::split</text>
</a>
</g>
<!-- Node2&#45;&gt;Node6 -->
<g id="edge10" class="edge"><title>Node2&#45;&gt;Node6</title>
<path fill="none" stroke="midnightblue" d="M277.273,-67.2907C297.596,-55.7515 326.771,-40.4921 354,-31 366.177,-26.755 379.545,-23.2807 392.36,-20.4898"/>
<polygon fill="midnightblue" stroke="midnightblue" points="275.51,-64.2672 268.598,-72.2966 279.008,-70.3303 275.51,-64.2672"/>
</g>
</g>
</svg>
