<?xml version="1.0" encoding="UTF-8" standalone="no"?>
<!DOCTYPE svg PUBLIC "-//W3C//DTD SVG 1.1//EN"
 "http://www.w3.org/Graphics/SVG/1.1/DTD/svg11.dtd">
<!-- Generated by graphviz version 2.26.3 (20100126.1600)
 -->
<!-- Title: CInstanceConfigurableElement::getMappingData Pages: 1 -->
<svg width="550pt" height="100pt"
 viewBox="0.00 0.00 550.00 100.00" xmlns="http://www.w3.org/2000/svg" xmlns:xlink="http://www.w3.org/1999/xlink">
<g id="graph1" class="graph" transform="scale(1 1) rotate(0) translate(4 96)">
<title>CInstanceConfigurableElement::getMappingData</title>
<polygon fill="white" stroke="white" points="-4,5 -4,-96 547,-96 547,5 -4,5"/>
<!-- Node1 -->
<g id="node1" class="node"><title>Node1</title>
<polygon fill="#bfbfbf" stroke="black" points="0,-26 0,-60 164,-60 164,-26 0,-26"/>
<text text-anchor="start" x="8" y="-47" font-family="Verdana" font-size="10.00">CInstanceConfigurableElement</text>
<text text-anchor="middle" x="82" y="-34" font-family="Verdana" font-size="10.00">::getMappingData</text>
</g>
<!-- Node2 -->
<g id="node3" class="node"><title>Node2</title>
<a xlink:href="classCInstanceConfigurableElement.html#ae2d941df411f8ec4c025cbd04d3ba421" target="_top" xlink:title="CInstanceConfigurableElement\l::getTypeElement">
<polygon fill="white" stroke="black" points="203,-58 203,-92 367,-92 367,-58 203,-58"/>
<text text-anchor="start" x="211" y="-79" font-family="Verdana" font-size="10.00">CInstanceConfigurableElement</text>
<text text-anchor="middle" x="285" y="-66" font-family="Verdana" font-size="10.00">::getTypeElement</text>
</a>
</g>
<!-- Node1&#45;&gt;Node2 -->
<g id="edge2" class="edge"><title>Node1&#45;&gt;Node2</title>
<path fill="none" stroke="midnightblue" d="M164.275,-55.9695C173.737,-57.4611 183.431,-58.9891 193.01,-60.4991"/>
<polygon fill="midnightblue" stroke="midnightblue" points="192.514,-63.9641 202.937,-62.064 193.604,-57.0495 192.514,-63.9641"/>
</g>
<!-- Node3 -->
<g id="node5" class="node"><title>Node3</title>
<a xlink:href="classCTypeElement.html#aa8d910c6cf51c03d03f183a6a81a8372" target="_top" xlink:title="CTypeElement::getMappingData">
<polygon fill="white" stroke="black" points="200,-0.5 200,-21.5 370,-21.5 370,-0.5 200,-0.5"/>
<text text-anchor="middle" x="285" y="-8.5" font-family="Verdana" font-size="10.00">CTypeElement::getMappingData</text>
</a>
</g>
<!-- Node1&#45;&gt;Node3 -->
<g id="edge4" class="edge"><title>Node1&#45;&gt;Node3</title>
<path fill="none" stroke="midnightblue" d="M164.275,-30.0305C178.691,-27.7581 193.643,-25.4011 207.912,-23.1519"/>
<polygon fill="midnightblue" stroke="midnightblue" points="208.83,-26.5504 218.163,-21.5359 207.74,-19.6358 208.83,-26.5504"/>
</g>
<!-- Node3&#45;&gt;Node3 -->
<g id="edge6" class="edge"><title>Node3&#45;&gt;Node3</title>
<path fill="none" stroke="midnightblue" d="M255.129,-21.7079C242.363,-30.6531 252.32,-40 285,-40 306.957,-40 318.656,-35.7807 320.098,-30.2987"/>
<polygon fill="midnightblue" stroke="midnightblue" points="323.059,-28.4318 314.871,-21.7079 317.079,-32.0702 323.059,-28.4318"/>
</g>
<!-- Node4 -->
<g id="node8" class="node"><title>Node4</title>
<a xlink:href="classCMappingData.html#a7a2d5172201c72ab434175fadc1f3053" target="_top" xlink:title="CMappingData::getValue">
<polygon fill="white" stroke="black" points="406.5,-0.5 406.5,-21.5 541.5,-21.5 541.5,-0.5 406.5,-0.5"/>
<text text-anchor="middle" x="474" y="-8.5" font-family="Verdana" font-size="10.00">CMappingData::getValue</text>
</a>
</g>
<!-- Node3&#45;&gt;Node4 -->
<g id="edge8" class="edge"><title>Node3&#45;&gt;Node4</title>
<path fill="none" stroke="midnightblue" d="M370.101,-11C378.833,-11 387.674,-11 396.32,-11"/>
<polygon fill="midnightblue" stroke="midnightblue" points="396.363,-14.5001 406.363,-11 396.363,-7.5001 396.363,-14.5001"/>
</g>
</g>
</svg>
