<?xml version="1.0" encoding="UTF-8" standalone="no"?>
<!DOCTYPE svg PUBLIC "-//W3C//DTD SVG 1.1//EN"
 "http://www.w3.org/Graphics/SVG/1.1/DTD/svg11.dtd">
<!-- Generated by graphviz version 2.26.3 (20100126.1600)
 -->
<!-- Title: CInstanceConfigurableElement::getSyncer Pages: 1 -->
<svg width="792pt" height="122pt"
 viewBox="0.00 0.00 792.00 122.00" xmlns="http://www.w3.org/2000/svg" xmlns:xlink="http://www.w3.org/1999/xlink">
<g id="graph1" class="graph" transform="scale(1 1) rotate(0) translate(4 118)">
<title>CInstanceConfigurableElement::getSyncer</title>
<polygon fill="white" stroke="white" points="-4,5 -4,-118 789,-118 789,5 -4,5"/>
<!-- Node1 -->
<g id="node1" class="node"><title>Node1</title>
<polygon fill="#bfbfbf" stroke="black" points="0,-40 0,-74 164,-74 164,-40 0,-40"/>
<text text-anchor="start" x="8" y="-61" font-family="Verdana" font-size="10.00">CInstanceConfigurableElement</text>
<text text-anchor="middle" x="82" y="-48" font-family="Verdana" font-size="10.00">::getSyncer</text>
</g>
<!-- Node2 -->
<g id="node3" class="node"><title>Node2</title>
<a xlink:href="classCInstanceConfigurableElement.html#a2e6e7782de8e4d7e844a869917f2f037" target="_top" xlink:title="Performs the sync if the AutoSync is enabled. ">
<polygon fill="white" stroke="black" points="200,-40 200,-74 364,-74 364,-40 200,-40"/>
<text text-anchor="start" x="208" y="-61" font-family="Verdana" font-size="10.00">CInstanceConfigurableElement</text>
<text text-anchor="middle" x="282" y="-48" font-family="Verdana" font-size="10.00">::sync</text>
</a>
</g>
<!-- Node1&#45;&gt;Node2 -->
<g id="edge2" class="edge"><title>Node1&#45;&gt;Node2</title>
<path fill="none" stroke="midnightblue" d="M174.466,-57C182.914,-57 191.434,-57 199.783,-57"/>
<polygon fill="midnightblue" stroke="midnightblue" points="174.213,-53.5001 164.213,-57 174.213,-60.5001 174.213,-53.5001"/>
</g>
<!-- Node3 -->
<g id="node5" class="node"><title>Node3</title>
<a xlink:href="classCArrayParameter.html#a07b3af958a03b2295be159f69b22d42d" target="_top" xlink:title="CArrayParameter::accessValue">
<polygon fill="white" stroke="black" points="404,-92.5 404,-113.5 568,-113.5 568,-92.5 404,-92.5"/>
<text text-anchor="middle" x="486" y="-100.5" font-family="Verdana" font-size="10.00">CArrayParameter::accessValue</text>
</a>
</g>
<!-- Node2&#45;&gt;Node3 -->
<g id="edge4" class="edge"><title>Node2&#45;&gt;Node3</title>
<path fill="none" stroke="midnightblue" d="M367.703,-76.3253C392.187,-81.846 417.956,-87.6568 439.171,-92.4405"/>
<polygon fill="midnightblue" stroke="midnightblue" points="368.197,-72.8488 357.672,-74.0633 366.657,-79.6774 368.197,-72.8488"/>
</g>
<!-- Node4 -->
<g id="node7" class="node"><title>Node4</title>
<a xlink:href="classCBaseParameter.html#a2b425561e193a3d54e7225d896a3d39b" target="_top" xlink:title="CBaseParameter::accessAs\lString">
<polygon fill="white" stroke="black" points="411.5,-40 411.5,-74 560.5,-74 560.5,-40 411.5,-40"/>
<text text-anchor="start" x="419.5" y="-61" font-family="Verdana" font-size="10.00">CBaseParameter::accessAs</text>
<text text-anchor="middle" x="486" y="-48" font-family="Verdana" font-size="10.00">String</text>
</a>
</g>
<!-- Node2&#45;&gt;Node4 -->
<g id="edge6" class="edge"><title>Node2&#45;&gt;Node4</title>
<path fill="none" stroke="midnightblue" d="M374.414,-57C386.774,-57 399.323,-57 411.327,-57"/>
<polygon fill="midnightblue" stroke="midnightblue" points="374.093,-53.5001 364.093,-57 374.093,-60.5001 374.093,-53.5001"/>
</g>
<!-- Node6 -->
<g id="node11" class="node"><title>Node6</title>
<a xlink:href="classCBitParameter.html#a6f4d06e327fb0b816c08e383177a82fc" target="_top" xlink:title="CBitParameter::accessAsInteger">
<polygon fill="white" stroke="black" points="400.5,-0.5 400.5,-21.5 571.5,-21.5 571.5,-0.5 400.5,-0.5"/>
<text text-anchor="middle" x="486" y="-8.5" font-family="Verdana" font-size="10.00">CBitParameter::accessAsInteger</text>
</a>
</g>
<!-- Node2&#45;&gt;Node6 -->
<g id="edge10" class="edge"><title>Node2&#45;&gt;Node6</title>
<path fill="none" stroke="midnightblue" d="M367.703,-37.6747C392.187,-32.154 417.956,-26.3432 439.171,-21.5595"/>
<polygon fill="midnightblue" stroke="midnightblue" points="366.657,-34.3226 357.672,-39.9367 368.197,-41.1512 366.657,-34.3226"/>
</g>
<!-- Node5 -->
<g id="node9" class="node"><title>Node5</title>
<a xlink:href="classCBaseParameter.html#a4a9b3e3a2d1ea65a8dc7048559db8dc2" target="_top" xlink:title="CBaseParameter::accessValue">
<polygon fill="white" stroke="black" points="614.5,-46.5 614.5,-67.5 777.5,-67.5 777.5,-46.5 614.5,-46.5"/>
<text text-anchor="middle" x="696" y="-54.5" font-family="Verdana" font-size="10.00">CBaseParameter::accessValue</text>
</a>
</g>
<!-- Node4&#45;&gt;Node5 -->
<g id="edge8" class="edge"><title>Node4&#45;&gt;Node5</title>
<path fill="none" stroke="midnightblue" d="M570.977,-57C585.335,-57 600.212,-57 614.48,-57"/>
<polygon fill="midnightblue" stroke="midnightblue" points="570.629,-53.5001 560.629,-57 570.629,-60.5001 570.629,-53.5001"/>
</g>
<!-- Node7 -->
<g id="node13" class="node"><title>Node7</title>
<a xlink:href="classCBitParameter.html#a2e0ed93baec3479a9b92314818433a31" target="_top" xlink:title="Value access. ">
<polygon fill="white" stroke="black" points="608,-0.5 608,-21.5 784,-21.5 784,-0.5 608,-0.5"/>
<text text-anchor="middle" x="696" y="-8.5" font-family="Verdana" font-size="10.00">CBitParameter::accessAsBoolean</text>
</a>
</g>
<!-- Node6&#45;&gt;Node7 -->
<g id="edge12" class="edge"><title>Node6&#45;&gt;Node7</title>
<path fill="none" stroke="midnightblue" d="M581.833,-11C590.494,-11 599.239,-11 607.83,-11"/>
<polygon fill="midnightblue" stroke="midnightblue" points="581.718,-7.5001 571.718,-11 581.718,-14.5001 581.718,-7.5001"/>
</g>
</g>
</svg>
