<?xml version="1.0" encoding="UTF-8" standalone="no"?>
<!DOCTYPE svg PUBLIC "-//W3C//DTD SVG 1.1//EN"
 "http://www.w3.org/Graphics/SVG/1.1/DTD/svg11.dtd">
<!-- Generated by graphviz version 2.26.3 (20100126.1600)
 -->
<!-- Title: CParameter::getFootPrint Pages: 1 -->
<svg width="498pt" height="42pt"
 viewBox="0.00 0.00 498.00 42.00" xmlns="http://www.w3.org/2000/svg" xmlns:xlink="http://www.w3.org/1999/xlink">
<g id="graph1" class="graph" transform="scale(1 1) rotate(0) translate(4 38)">
<title>CParameter::getFootPrint</title>
<polygon fill="white" stroke="white" points="-4,5 -4,-38 495,-38 495,5 -4,5"/>
<!-- Node1 -->
<g id="node1" class="node"><title>Node1</title>
<polygon fill="#bfbfbf" stroke="black" points="0,-6.5 0,-27.5 138,-27.5 138,-6.5 0,-6.5"/>
<text text-anchor="middle" x="69" y="-14.5" font-family="Verdana" font-size="10.00">CParameter::getFootPrint</text>
</g>
<!-- Node2 -->
<g id="node3" class="node"><title>Node2</title>
<a xlink:href="classCParameter.html#a3658a7f1281f902fe3b271fa01037398" target="_top" xlink:title="CParameter::getSize">
<polygon fill="white" stroke="black" points="174,-6.5 174,-27.5 290,-27.5 290,-6.5 174,-6.5"/>
<text text-anchor="middle" x="232" y="-14.5" font-family="Verdana" font-size="10.00">CParameter::getSize</text>
</a>
</g>
<!-- Node1&#45;&gt;Node2 -->
<g id="edge2" class="edge"><title>Node1&#45;&gt;Node2</title>
<path fill="none" stroke="midnightblue" d="M138.127,-17C146.578,-17 155.211,-17 163.65,-17"/>
<polygon fill="midnightblue" stroke="midnightblue" points="163.824,-20.5001 173.824,-17 163.824,-13.5001 163.824,-20.5001"/>
</g>
<!-- Node3 -->
<g id="node5" class="node"><title>Node3</title>
<a xlink:href="classCInstanceConfigurableElement.html#ae2d941df411f8ec4c025cbd04d3ba421" target="_top" xlink:title="CInstanceConfigurableElement\l::getTypeElement">
<polygon fill="white" stroke="black" points="326,-0 326,-34 490,-34 490,-0 326,-0"/>
<text text-anchor="start" x="334" y="-21" font-family="Verdana" font-size="10.00">CInstanceConfigurableElement</text>
<text text-anchor="middle" x="408" y="-8" font-family="Verdana" font-size="10.00">::getTypeElement</text>
</a>
</g>
<!-- Node2&#45;&gt;Node3 -->
<g id="edge4" class="edge"><title>Node2&#45;&gt;Node3</title>
<path fill="none" stroke="midnightblue" d="M290.117,-17C298.321,-17 306.918,-17 315.573,-17"/>
<polygon fill="midnightblue" stroke="midnightblue" points="315.739,-20.5001 325.739,-17 315.739,-13.5001 315.739,-20.5001"/>
</g>
</g>
</svg>
