<?xml version="1.0" encoding="UTF-8" standalone="no"?>
<!DOCTYPE svg PUBLIC "-//W3C//DTD SVG 1.1//EN"
 "http://www.w3.org/Graphics/SVG/1.1/DTD/svg11.dtd">
<!-- Generated by graphviz version 2.26.3 (20100126.1600)
 -->
<!-- Title: CDomainConfiguration::validate Pages: 1 -->
<svg width="680pt" height="70pt"
 viewBox="0.00 0.00 680.00 70.00" xmlns="http://www.w3.org/2000/svg" xmlns:xlink="http://www.w3.org/1999/xlink">
<g id="graph1" class="graph" transform="scale(1 1) rotate(0) translate(4 66)">
<title>CDomainConfiguration::validate</title>
<polygon fill="white" stroke="white" points="-4,5 -4,-66 677,-66 677,5 -4,5"/>
<!-- Node1 -->
<g id="node1" class="node"><title>Node1</title>
<polygon fill="#bfbfbf" stroke="black" points="0.5,-14 0.5,-48 125.5,-48 125.5,-14 0.5,-14"/>
<text text-anchor="start" x="8.5" y="-35" font-family="Verdana" font-size="10.00">CDomainConfiguration</text>
<text text-anchor="middle" x="63" y="-22" font-family="Verdana" font-size="10.00">::validate</text>
</g>
<!-- Node2 -->
<g id="node3" class="node"><title>Node2</title>
<a xlink:href="classCConfigurableDomain.html#a2df6f85b21fa2ccbecc4a1c6d01ae2ed" target="_top" xlink:title="CConfigurableDomain\l::validate">
<polygon fill="white" stroke="black" points="162.5,-14 162.5,-48 283.5,-48 283.5,-14 162.5,-14"/>
<text text-anchor="start" x="170.5" y="-35" font-family="Verdana" font-size="10.00">CConfigurableDomain</text>
<text text-anchor="middle" x="223" y="-22" font-family="Verdana" font-size="10.00">::validate</text>
</a>
</g>
<!-- Node1&#45;&gt;Node2 -->
<g id="edge2" class="edge"><title>Node1&#45;&gt;Node2</title>
<path fill="none" stroke="midnightblue" d="M135.787,-31C144.72,-31 153.774,-31 162.498,-31"/>
<polygon fill="midnightblue" stroke="midnightblue" points="135.777,-27.5001 125.777,-31 135.777,-34.5001 135.777,-27.5001"/>
</g>
<!-- Node3 -->
<g id="node5" class="node"><title>Node3</title>
<a xlink:href="classCConfigurableDomains.html#a6fd812eea1fd18c0d4fa14ec33b57fd5" target="_top" xlink:title="CConfigurableDomains\l::validate">
<polygon fill="white" stroke="black" points="320,-14 320,-48 446,-48 446,-14 320,-14"/>
<text text-anchor="start" x="328" y="-35" font-family="Verdana" font-size="10.00">CConfigurableDomains</text>
<text text-anchor="middle" x="383" y="-22" font-family="Verdana" font-size="10.00">::validate</text>
</a>
</g>
<!-- Node2&#45;&gt;Node3 -->
<g id="edge4" class="edge"><title>Node2&#45;&gt;Node3</title>
<path fill="none" stroke="midnightblue" d="M293.97,-31C302.585,-31 311.341,-31 319.833,-31"/>
<polygon fill="midnightblue" stroke="midnightblue" points="293.946,-27.5001 283.946,-31 293.946,-34.5001 293.946,-27.5001"/>
</g>
<!-- Node4 -->
<g id="node7" class="node"><title>Node4</title>
<a xlink:href="classCParameterMgr.html#aad4830a40d67cfae091cbf1a15ff29d0" target="_top" xlink:title="Load plugins, structures and settings from the config file given. ">
<polygon fill="white" stroke="black" points="518,-40.5 518,-61.5 636,-61.5 636,-40.5 518,-40.5"/>
<text text-anchor="middle" x="577" y="-48.5" font-family="Verdana" font-size="10.00">CParameterMgr::load</text>
</a>
</g>
<!-- Node3&#45;&gt;Node4 -->
<g id="edge6" class="edge"><title>Node3&#45;&gt;Node4</title>
<path fill="none" stroke="midnightblue" d="M456.389,-38.5659C476.669,-40.6566 498.416,-42.8985 517.781,-44.8949"/>
<polygon fill="midnightblue" stroke="midnightblue" points="456.561,-35.0651 446.254,-37.5211 455.843,-42.0282 456.561,-35.0651"/>
</g>
<!-- Node5 -->
<g id="node9" class="node"><title>Node5</title>
<a xlink:href="classCParameterMgr.html#ab17dc57a1b642c10df433c2c971f93c0" target="_top" xlink:title="Method that imports Configurable Domains from an Xml source. ">
<polygon fill="white" stroke="black" points="482,-0.5 482,-21.5 672,-21.5 672,-0.5 482,-0.5"/>
<text text-anchor="middle" x="577" y="-8.5" font-family="Verdana" font-size="10.00">CParameterMgr::importDomainsXml</text>
</a>
</g>
<!-- Node3&#45;&gt;Node5 -->
<g id="edge8" class="edge"><title>Node3&#45;&gt;Node5</title>
<path fill="none" stroke="midnightblue" d="M456.29,-23.4443C464.634,-22.5841 473.228,-21.6982 481.802,-20.8142"/>
<polygon fill="midnightblue" stroke="midnightblue" points="455.843,-19.9718 446.254,-24.4789 456.561,-26.9349 455.843,-19.9718"/>
</g>
</g>
</svg>
