<?xml version="1.0" encoding="UTF-8" standalone="no"?>
<!DOCTYPE svg PUBLIC "-//W3C//DTD SVG 1.1//EN"
 "http://www.w3.org/Graphics/SVG/1.1/DTD/svg11.dtd">
<!-- Generated by graphviz version 2.26.3 (20100126.1600)
 -->
<!-- Title: CIntegerParameterType::fromBlackboard Pages: 1 -->
<svg width="330pt" height="214pt"
 viewBox="0.00 0.00 330.00 214.00" xmlns="http://www.w3.org/2000/svg" xmlns:xlink="http://www.w3.org/1999/xlink">
<g id="graph1" class="graph" transform="scale(1 1) rotate(0) translate(4 210)">
<title>CIntegerParameterType::fromBlackboard</title>
<polygon fill="white" stroke="white" points="-4,5 -4,-210 327,-210 327,5 -4,5"/>
<!-- Node1 -->
<g id="node1" class="node"><title>Node1</title>
<polygon fill="#bfbfbf" stroke="black" points="0,-80 0,-114 128,-114 128,-80 0,-80"/>
<text text-anchor="start" x="8" y="-101" font-family="Verdana" font-size="10.00">CIntegerParameterType</text>
<text text-anchor="middle" x="64" y="-88" font-family="Verdana" font-size="10.00">::fromBlackboard</text>
</g>
<!-- Node2 -->
<g id="node3" class="node"><title>Node2</title>
<a xlink:href="classCParameterType.html#af5e79e641e4cd7929b60395d9ffd761a" target="_top" xlink:title="CParameterType::isEncodable">
<polygon fill="white" stroke="black" points="164,-184.5 164,-205.5 322,-205.5 322,-184.5 164,-184.5"/>
<text text-anchor="middle" x="243" y="-192.5" font-family="Verdana" font-size="10.00">CParameterType::isEncodable</text>
</a>
</g>
<!-- Node1&#45;&gt;Node2 -->
<g id="edge2" class="edge"><title>Node1&#45;&gt;Node2</title>
<path fill="none" stroke="midnightblue" d="M81.2409,-114.156C100.038,-131.914 131.765,-159.222 164,-175 168.845,-177.371 173.999,-179.48 179.262,-181.352"/>
<polygon fill="midnightblue" stroke="midnightblue" points="178.219,-184.693 188.811,-184.47 180.392,-178.039 178.219,-184.693"/>
</g>
<!-- Node3 -->
<g id="node5" class="node"><title>Node3</title>
<a xlink:href="classCParameterAccessContext.html#aa36964a7a0cc063c1a5589adb29ed5a7" target="_top" xlink:title="CParameterAccessContext\l::valueSpaceIsRaw">
<polygon fill="white" stroke="black" points="170.5,-132 170.5,-166 315.5,-166 315.5,-132 170.5,-132"/>
<text text-anchor="start" x="178.5" y="-153" font-family="Verdana" font-size="10.00">CParameterAccessContext</text>
<text text-anchor="middle" x="243" y="-140" font-family="Verdana" font-size="10.00">::valueSpaceIsRaw</text>
</a>
</g>
<!-- Node1&#45;&gt;Node3 -->
<g id="edge4" class="edge"><title>Node1&#45;&gt;Node3</title>
<path fill="none" stroke="midnightblue" d="M122.611,-114.027C139.146,-118.83 157.285,-124.1 174.352,-129.058"/>
<polygon fill="midnightblue" stroke="midnightblue" points="173.678,-132.506 184.257,-131.935 175.63,-125.784 173.678,-132.506"/>
</g>
<!-- Node4 -->
<g id="node7" class="node"><title>Node4</title>
<a xlink:href="classCParameterAccessContext.html#adc2c2dabdfb9af278c0f5237ddcd3643" target="_top" xlink:title="Returns Output Raw Format for user get value interpretation. ">
<polygon fill="white" stroke="black" points="170.5,-80 170.5,-114 315.5,-114 315.5,-80 170.5,-80"/>
<text text-anchor="start" x="178.5" y="-101" font-family="Verdana" font-size="10.00">CParameterAccessContext</text>
<text text-anchor="middle" x="243" y="-88" font-family="Verdana" font-size="10.00">::outputRawFormatIsHex</text>
</a>
</g>
<!-- Node1&#45;&gt;Node4 -->
<g id="edge6" class="edge"><title>Node1&#45;&gt;Node4</title>
<path fill="none" stroke="midnightblue" d="M128.118,-97C138.456,-97 149.288,-97 159.995,-97"/>
<polygon fill="midnightblue" stroke="midnightblue" points="160.202,-100.5 170.202,-97 160.202,-93.5001 160.202,-100.5"/>
</g>
<!-- Node5 -->
<g id="node9" class="node"><title>Node5</title>
<a xlink:href="classCParameterType.html#adfe9fe947066e58a062f8126f246f71a" target="_top" xlink:title="CParameterType::getSize">
<polygon fill="white" stroke="black" points="174.5,-40.5 174.5,-61.5 311.5,-61.5 311.5,-40.5 174.5,-40.5"/>
<text text-anchor="middle" x="243" y="-48.5" font-family="Verdana" font-size="10.00">CParameterType::getSize</text>
</a>
</g>
<!-- Node1&#45;&gt;Node5 -->
<g id="edge8" class="edge"><title>Node1&#45;&gt;Node5</title>
<path fill="none" stroke="midnightblue" d="M128,-80.2948C139.961,-77.1914 152.358,-73.987 164,-71 172.856,-68.7277 182.276,-66.3281 191.409,-64.0103"/>
<polygon fill="midnightblue" stroke="midnightblue" points="192.334,-67.3866 201.168,-61.5372 190.615,-60.6011 192.334,-67.3866"/>
</g>
<!-- Node6 -->
<g id="node11" class="node"><title>Node6</title>
<a xlink:href="classCParameterType.html#ac32b37965ef213b6a8df9656b37596df" target="_top" xlink:title="Sign extension (32 bits) ">
<polygon fill="white" stroke="black" points="166.5,-0.5 166.5,-21.5 319.5,-21.5 319.5,-0.5 166.5,-0.5"/>
<text text-anchor="middle" x="243" y="-8.5" font-family="Verdana" font-size="10.00">CParameterType::signExtend</text>
</a>
</g>
<!-- Node1&#45;&gt;Node6 -->
<g id="edge10" class="edge"><title>Node1&#45;&gt;Node6</title>
<path fill="none" stroke="midnightblue" d="M85.3978,-79.7862C104.851,-64.9161 134.884,-43.8514 164,-31 169.39,-28.6211 175.116,-26.487 180.927,-24.5809"/>
<polygon fill="midnightblue" stroke="midnightblue" points="182.2,-27.852 190.742,-21.5854 180.156,-21.1569 182.2,-27.852"/>
</g>
</g>
</svg>
