<?xml version="1.0" encoding="UTF-8" standalone="no"?>
<!DOCTYPE svg PUBLIC "-//W3C//DTD SVG 1.1//EN"
 "http://www.w3.org/Graphics/SVG/1.1/DTD/svg11.dtd">
<!-- Generated by graphviz version 2.26.3 (20100126.1600)
 -->
<!-- Title: CIntegerParameterType::toXml Pages: 1 -->
<svg width="310pt" height="70pt"
 viewBox="0.00 0.00 310.00 70.00" xmlns="http://www.w3.org/2000/svg" xmlns:xlink="http://www.w3.org/1999/xlink">
<g id="graph1" class="graph" transform="scale(1 1) rotate(0) translate(4 66)">
<title>CIntegerParameterType::toXml</title>
<polygon fill="white" stroke="white" points="-4,5 -4,-66 307,-66 307,5 -4,5"/>
<!-- Node1 -->
<g id="node1" class="node"><title>Node1</title>
<polygon fill="#bfbfbf" stroke="black" points="0,-14 0,-48 128,-48 128,-14 0,-14"/>
<text text-anchor="start" x="8" y="-35" font-family="Verdana" font-size="10.00">CIntegerParameterType</text>
<text text-anchor="middle" x="64" y="-22" font-family="Verdana" font-size="10.00">::toXml</text>
</g>
<!-- Node2 -->
<g id="node3" class="node"><title>Node2</title>
<a xlink:href="classCElement.html#aacdd6d54c10cd1494a820d78be779362" target="_top" xlink:title="CElement::toString">
<polygon fill="white" stroke="black" points="179.5,-40.5 179.5,-61.5 286.5,-61.5 286.5,-40.5 179.5,-40.5"/>
<text text-anchor="middle" x="233" y="-48.5" font-family="Verdana" font-size="10.00">CElement::toString</text>
</a>
</g>
<!-- Node1&#45;&gt;Node2 -->
<g id="edge2" class="edge"><title>Node1&#45;&gt;Node2</title>
<path fill="none" stroke="midnightblue" d="M128.374,-38.6182C141.754,-40.2016 155.848,-41.8696 169.207,-43.4505"/>
<polygon fill="midnightblue" stroke="midnightblue" points="168.913,-46.9401 179.255,-44.6397 169.736,-39.9886 168.913,-46.9401"/>
</g>
<!-- Node3 -->
<g id="node5" class="node"><title>Node3</title>
<a xlink:href="classCParameterType.html#adfe9fe947066e58a062f8126f246f71a" target="_top" xlink:title="CParameterType::getSize">
<polygon fill="white" stroke="black" points="164.5,-0.5 164.5,-21.5 301.5,-21.5 301.5,-0.5 164.5,-0.5"/>
<text text-anchor="middle" x="233" y="-8.5" font-family="Verdana" font-size="10.00">CParameterType::getSize</text>
</a>
</g>
<!-- Node1&#45;&gt;Node3 -->
<g id="edge4" class="edge"><title>Node1&#45;&gt;Node3</title>
<path fill="none" stroke="midnightblue" d="M128.374,-23.3818C136.821,-22.3821 145.554,-21.3486 154.206,-20.3247"/>
<polygon fill="midnightblue" stroke="midnightblue" points="154.786,-23.7806 164.305,-19.1296 153.963,-16.8292 154.786,-23.7806"/>
</g>
</g>
</svg>
