<?xml version="1.0" encoding="UTF-8" standalone="no"?>
<!DOCTYPE svg PUBLIC "-//W3C//DTD SVG 1.1//EN"
 "http://www.w3.org/Graphics/SVG/1.1/DTD/svg11.dtd">
<!-- Generated by graphviz version 2.26.3 (20100126.1600)
 -->
<!-- Title: CSubsystem::serializeXmlSettings Pages: 1 -->
<svg width="330pt" height="42pt"
 viewBox="0.00 0.00 330.00 42.00" xmlns="http://www.w3.org/2000/svg" xmlns:xlink="http://www.w3.org/1999/xlink">
<g id="graph1" class="graph" transform="scale(1 1) rotate(0) translate(4 38)">
<title>CSubsystem::serializeXmlSettings</title>
<polygon fill="white" stroke="white" points="-4,5 -4,-38 327,-38 327,5 -4,5"/>
<!-- Node1 -->
<g id="node1" class="node"><title>Node1</title>
<polygon fill="#bfbfbf" stroke="black" points="0,-0 0,-34 140,-34 140,-0 0,-0"/>
<text text-anchor="start" x="8" y="-21" font-family="Verdana" font-size="10.00">CSubsystem::serializeXml</text>
<text text-anchor="middle" x="70" y="-8" font-family="Verdana" font-size="10.00">Settings</text>
</g>
<!-- Node2 -->
<g id="node3" class="node"><title>Node2</title>
<a xlink:href="classCParameterAccessContext.html#afd3f54728dee0e195208b3be8108df9e" target="_top" xlink:title="CParameterAccessContext\l::setBigEndianSubsystem">
<polygon fill="white" stroke="black" points="176.5,-0 176.5,-34 321.5,-34 321.5,-0 176.5,-0"/>
<text text-anchor="start" x="184.5" y="-21" font-family="Verdana" font-size="10.00">CParameterAccessContext</text>
<text text-anchor="middle" x="249" y="-8" font-family="Verdana" font-size="10.00">::setBigEndianSubsystem</text>
</a>
</g>
<!-- Node1&#45;&gt;Node2 -->
<g id="edge2" class="edge"><title>Node1&#45;&gt;Node2</title>
<path fill="none" stroke="midnightblue" d="M140.232,-17C148.75,-17 157.513,-17 166.191,-17"/>
<polygon fill="midnightblue" stroke="midnightblue" points="166.32,-20.5001 176.32,-17 166.32,-13.5001 166.32,-20.5001"/>
</g>
</g>
</svg>
