<?xml version="1.0" encoding="UTF-8" standalone="no"?>
<!DOCTYPE svg PUBLIC "-//W3C//DTD SVG 1.1//EN"
 "http://www.w3.org/Graphics/SVG/1.1/DTD/svg11.dtd">
<!-- Generated by graphviz version 2.26.3 (20100126.1600)
 -->
<!-- Title: CConfigurableDomains::deleteAllDomains Pages: 1 -->
<svg width="310pt" height="42pt"
 viewBox="0.00 0.00 310.00 42.00" xmlns="http://www.w3.org/2000/svg" xmlns:xlink="http://www.w3.org/1999/xlink">
<g id="graph1" class="graph" transform="scale(1 1) rotate(0) translate(4 38)">
<title>CConfigurableDomains::deleteAllDomains</title>
<polygon fill="white" stroke="white" points="-4,5 -4,-38 307,-38 307,5 -4,5"/>
<!-- Node1 -->
<g id="node1" class="node"><title>Node1</title>
<polygon fill="#bfbfbf" stroke="black" points="0,-0 0,-34 126,-34 126,-0 0,-0"/>
<text text-anchor="start" x="8" y="-21" font-family="Verdana" font-size="10.00">CConfigurableDomains</text>
<text text-anchor="middle" x="63" y="-8" font-family="Verdana" font-size="10.00">::deleteAllDomains</text>
</g>
<!-- Node2 -->
<g id="node3" class="node"><title>Node2</title>
<a xlink:href="classCParameterMgr.html#a927c41273e23d3303f456d3c01907391" target="_top" xlink:title="CParameterMgr::deleteAll\lDomains">
<polygon fill="white" stroke="black" points="162.5,-0 162.5,-34 301.5,-34 301.5,-0 162.5,-0"/>
<text text-anchor="start" x="170.5" y="-21" font-family="Verdana" font-size="10.00">CParameterMgr::deleteAll</text>
<text text-anchor="middle" x="232" y="-8" font-family="Verdana" font-size="10.00">Domains</text>
</a>
</g>
<!-- Node1&#45;&gt;Node2 -->
<g id="edge2" class="edge"><title>Node1&#45;&gt;Node2</title>
<path fill="none" stroke="midnightblue" d="M136.684,-17C145.186,-17 153.837,-17 162.285,-17"/>
<polygon fill="midnightblue" stroke="midnightblue" points="136.41,-13.5001 126.41,-17 136.41,-20.5001 136.41,-13.5001"/>
</g>
</g>
</svg>
