<?xml version="1.0" encoding="UTF-8" standalone="no"?>
<!DOCTYPE svg PUBLIC "-//W3C//DTD SVG 1.1//EN"
 "http://www.w3.org/Graphics/SVG/1.1/DTD/svg11.dtd">
<!-- Generated by graphviz version 2.26.3 (20100126.1600)
 -->
<!-- Title: CElement::rename Pages: 1 -->
<svg width="724pt" height="94pt"
 viewBox="0.00 0.00 724.00 94.00" xmlns="http://www.w3.org/2000/svg" xmlns:xlink="http://www.w3.org/1999/xlink">
<g id="graph1" class="graph" transform="scale(1 1) rotate(0) translate(4 90)">
<title>CElement::rename</title>
<polygon fill="white" stroke="white" points="-4,5 -4,-90 721,-90 721,5 -4,5"/>
<!-- Node1 -->
<g id="node1" class="node"><title>Node1</title>
<polygon fill="#bfbfbf" stroke="black" points="0.5,-32.5 0.5,-53.5 107.5,-53.5 107.5,-32.5 0.5,-32.5"/>
<text text-anchor="middle" x="54" y="-40.5" font-family="Verdana" font-size="10.00">CElement::rename</text>
</g>
<!-- Node2 -->
<g id="node3" class="node"><title>Node2</title>
<a xlink:href="classCConfigurableDomain.html#a647386b073c9dd776f9cd9dcb24088a7" target="_top" xlink:title="CConfigurableDomain\l::renameConfiguration">
<polygon fill="white" stroke="black" points="145,-52 145,-86 269,-86 269,-52 145,-52"/>
<text text-anchor="start" x="153" y="-73" font-family="Verdana" font-size="10.00">CConfigurableDomain</text>
<text text-anchor="middle" x="207" y="-60" font-family="Verdana" font-size="10.00">::renameConfiguration</text>
</a>
</g>
<!-- Node1&#45;&gt;Node2 -->
<g id="edge2" class="edge"><title>Node1&#45;&gt;Node2</title>
<path fill="none" stroke="midnightblue" d="M117.569,-53.8026C126.595,-55.3364 135.868,-56.9122 144.866,-58.4412"/>
<polygon fill="midnightblue" stroke="midnightblue" points="117.957,-50.3184 107.512,-52.0935 116.784,-57.2195 117.957,-50.3184"/>
</g>
<!-- Node5 -->
<g id="node9" class="node"><title>Node5</title>
<a xlink:href="classCConfigurableDomains.html#a5191495863bf95f1fc3beb545b410269" target="_top" xlink:title="CConfigurableDomains\l::renameDomain">
<polygon fill="white" stroke="black" points="144,-0 144,-34 270,-34 270,-0 144,-0"/>
<text text-anchor="start" x="152" y="-21" font-family="Verdana" font-size="10.00">CConfigurableDomains</text>
<text text-anchor="middle" x="207" y="-8" font-family="Verdana" font-size="10.00">::renameDomain</text>
</a>
</g>
<!-- Node1&#45;&gt;Node5 -->
<g id="edge8" class="edge"><title>Node1&#45;&gt;Node5</title>
<path fill="none" stroke="midnightblue" d="M117.561,-32.1988C126.234,-30.7249 135.136,-29.2122 143.803,-27.7394"/>
<polygon fill="midnightblue" stroke="midnightblue" points="116.784,-28.7805 107.512,-33.9065 117.957,-35.6816 116.784,-28.7805"/>
</g>
<!-- Node3 -->
<g id="node5" class="node"><title>Node3</title>
<a xlink:href="classCConfigurableDomains.html#a052bfda8fb27ff5a1eeb0a53444031e8" target="_top" xlink:title="CConfigurableDomains\l::renameConfiguration">
<polygon fill="white" stroke="black" points="330,-52 330,-86 456,-86 456,-52 330,-52"/>
<text text-anchor="start" x="338" y="-73" font-family="Verdana" font-size="10.00">CConfigurableDomains</text>
<text text-anchor="middle" x="393" y="-60" font-family="Verdana" font-size="10.00">::renameConfiguration</text>
</a>
</g>
<!-- Node2&#45;&gt;Node3 -->
<g id="edge4" class="edge"><title>Node2&#45;&gt;Node3</title>
<path fill="none" stroke="midnightblue" d="M279.429,-69C296.092,-69 313.683,-69 329.913,-69"/>
<polygon fill="midnightblue" stroke="midnightblue" points="279.194,-65.5001 269.194,-69 279.194,-72.5001 279.194,-65.5001"/>
</g>
<!-- Node4 -->
<g id="node7" class="node"><title>Node4</title>
<a xlink:href="classCParameterMgr.html#af73dc2735e178eb3571400b76172b03e" target="_top" xlink:title="CParameterMgr::renameConfiguration">
<polygon fill="white" stroke="black" points="516.5,-58.5 516.5,-79.5 715.5,-79.5 715.5,-58.5 516.5,-58.5"/>
<text text-anchor="middle" x="616" y="-66.5" font-family="Verdana" font-size="10.00">CParameterMgr::renameConfiguration</text>
</a>
</g>
<!-- Node3&#45;&gt;Node4 -->
<g id="edge6" class="edge"><title>Node3&#45;&gt;Node4</title>
<path fill="none" stroke="midnightblue" d="M466.35,-69C482.374,-69 499.594,-69 516.445,-69"/>
<polygon fill="midnightblue" stroke="midnightblue" points="466.009,-65.5001 456.009,-69 466.009,-72.5001 466.009,-65.5001"/>
</g>
<!-- Node6 -->
<g id="node11" class="node"><title>Node6</title>
<a xlink:href="classCParameterMgr.html#a7d8898361dc42076dccb72489e3e7a43" target="_top" xlink:title="CParameterMgr::renameDomain">
<polygon fill="white" stroke="black" points="306.5,-6.5 306.5,-27.5 479.5,-27.5 479.5,-6.5 306.5,-6.5"/>
<text text-anchor="middle" x="393" y="-14.5" font-family="Verdana" font-size="10.00">CParameterMgr::renameDomain</text>
</a>
</g>
<!-- Node5&#45;&gt;Node6 -->
<g id="edge10" class="edge"><title>Node5&#45;&gt;Node6</title>
<path fill="none" stroke="midnightblue" d="M280.429,-17C288.899,-17 297.596,-17 306.221,-17"/>
<polygon fill="midnightblue" stroke="midnightblue" points="280.231,-13.5001 270.231,-17 280.231,-20.5001 280.231,-13.5001"/>
</g>
</g>
</svg>
