<?xml version="1.0" encoding="UTF-8" standalone="no"?>
<!DOCTYPE svg PUBLIC "-//W3C//DTD SVG 1.1//EN"
 "http://www.w3.org/Graphics/SVG/1.1/DTD/svg11.dtd">
<!-- Generated by graphviz version 2.26.3 (20100126.1600)
 -->
<!-- Title: CBaseParameter::doGetValue Pages: 1 -->
<svg width="554pt" height="134pt"
 viewBox="0.00 0.00 554.00 134.00" xmlns="http://www.w3.org/2000/svg" xmlns:xlink="http://www.w3.org/1999/xlink">
<g id="graph1" class="graph" transform="scale(1 1) rotate(0) translate(4 130)">
<title>CBaseParameter::doGetValue</title>
<polygon fill="white" stroke="white" points="-4,5 -4,-130 551,-130 551,5 -4,5"/>
<!-- Node1 -->
<g id="node1" class="node"><title>Node1</title>
<polygon fill="#bfbfbf" stroke="black" points="0.5,-52.5 0.5,-73.5 159.5,-73.5 159.5,-52.5 0.5,-52.5"/>
<text text-anchor="middle" x="80" y="-60.5" font-family="Verdana" font-size="10.00">CBaseParameter::doGetValue</text>
</g>
<!-- Node2 -->
<g id="node3" class="node"><title>Node2</title>
<a xlink:href="classCBaseParameter.html#a97e096908df72fa729a62c3f5c362ddd" target="_top" xlink:title="CBaseParameter::serialize\lXmlSettings">
<polygon fill="white" stroke="black" points="199.5,-92 199.5,-126 342.5,-126 342.5,-92 199.5,-92"/>
<text text-anchor="start" x="207.5" y="-113" font-family="Verdana" font-size="10.00">CBaseParameter::serialize</text>
<text text-anchor="middle" x="271" y="-100" font-family="Verdana" font-size="10.00">XmlSettings</text>
</a>
</g>
<!-- Node1&#45;&gt;Node2 -->
<g id="edge2" class="edge"><title>Node1&#45;&gt;Node2</title>
<path fill="none" stroke="midnightblue" d="M133.649,-75.9207C154.248,-80.8818 178.086,-86.6228 200.062,-91.9155"/>
<polygon fill="midnightblue" stroke="midnightblue" points="134.361,-72.4921 123.819,-73.5533 132.722,-79.2975 134.361,-72.4921"/>
</g>
<!-- Node3 -->
<g id="node5" class="node"><title>Node3</title>
<a xlink:href="classCBaseParameter.html#ae5d6b8ea62a7007c41c14d22dbabcf31" target="_top" xlink:title="CBaseParameter::logValue">
<polygon fill="white" stroke="black" points="199,-52.5 199,-73.5 343,-73.5 343,-52.5 199,-52.5"/>
<text text-anchor="middle" x="271" y="-60.5" font-family="Verdana" font-size="10.00">CBaseParameter::logValue</text>
</a>
</g>
<!-- Node1&#45;&gt;Node3 -->
<g id="edge4" class="edge"><title>Node1&#45;&gt;Node3</title>
<path fill="none" stroke="midnightblue" d="M169.736,-63C179.489,-63 189.323,-63 198.829,-63"/>
<polygon fill="midnightblue" stroke="midnightblue" points="169.618,-59.5001 159.618,-63 169.618,-66.5001 169.618,-59.5001"/>
</g>
<!-- Node4 -->
<g id="node7" class="node"><title>Node4</title>
<a xlink:href="classCBaseParameter.html#a2b425561e193a3d54e7225d896a3d39b" target="_top" xlink:title="CBaseParameter::accessAs\lString">
<polygon fill="white" stroke="black" points="196.5,-0 196.5,-34 345.5,-34 345.5,-0 196.5,-0"/>
<text text-anchor="start" x="204.5" y="-21" font-family="Verdana" font-size="10.00">CBaseParameter::accessAs</text>
<text text-anchor="middle" x="271" y="-8" font-family="Verdana" font-size="10.00">String</text>
</a>
</g>
<!-- Node1&#45;&gt;Node4 -->
<g id="edge6" class="edge"><title>Node1&#45;&gt;Node4</title>
<path fill="none" stroke="midnightblue" d="M133.649,-50.0793C154.248,-45.1182 178.086,-39.3772 200.062,-34.0845"/>
<polygon fill="midnightblue" stroke="midnightblue" points="132.722,-46.7025 123.819,-52.4467 134.361,-53.5079 132.722,-46.7025"/>
</g>
<!-- Node5 -->
<g id="node9" class="node"><title>Node5</title>
<a xlink:href="classCBaseParameter.html#a4a9b3e3a2d1ea65a8dc7048559db8dc2" target="_top" xlink:title="CBaseParameter::accessValue">
<polygon fill="white" stroke="black" points="382.5,-6.5 382.5,-27.5 545.5,-27.5 545.5,-6.5 382.5,-6.5"/>
<text text-anchor="middle" x="464" y="-14.5" font-family="Verdana" font-size="10.00">CBaseParameter::accessValue</text>
</a>
</g>
<!-- Node4&#45;&gt;Node5 -->
<g id="edge8" class="edge"><title>Node4&#45;&gt;Node5</title>
<path fill="none" stroke="midnightblue" d="M355.828,-17C364.59,-17 373.483,-17 382.211,-17"/>
<polygon fill="midnightblue" stroke="midnightblue" points="355.619,-13.5001 345.619,-17 355.619,-20.5001 355.619,-13.5001"/>
</g>
</g>
</svg>
