<?xml version="1.0" encoding="UTF-8" standalone="no"?>
<!DOCTYPE svg PUBLIC "-//W3C//DTD SVG 1.1//EN"
 "http://www.w3.org/Graphics/SVG/1.1/DTD/svg11.dtd">
<!-- Generated by graphviz version 2.26.3 (20100126.1600)
 -->
<!-- Title: CConfigurableDomain::getSequenceAwareness Pages: 1 -->
<svg width="518pt" height="94pt"
 viewBox="0.00 0.00 518.00 94.00" xmlns="http://www.w3.org/2000/svg" xmlns:xlink="http://www.w3.org/1999/xlink">
<g id="graph1" class="graph" transform="scale(1 1) rotate(0) translate(4 90)">
<title>CConfigurableDomain::getSequenceAwareness</title>
<polygon fill="white" stroke="white" points="-4,5 -4,-90 515,-90 515,5 -4,5"/>
<!-- Node1 -->
<g id="node1" class="node"><title>Node1</title>
<polygon fill="#bfbfbf" stroke="black" points="0.5,-26 0.5,-60 137.5,-60 137.5,-26 0.5,-26"/>
<text text-anchor="start" x="8.5" y="-47" font-family="Verdana" font-size="10.00">CConfigurableDomain</text>
<text text-anchor="middle" x="69" y="-34" font-family="Verdana" font-size="10.00">::getSequenceAwareness</text>
</g>
<!-- Node2 -->
<g id="node3" class="node"><title>Node2</title>
<a xlink:href="classCConfigurableDomains.html#a7079463f456c5dc7a58e0809b8c39fa4" target="_top" xlink:title="CConfigurableDomains\l::getSequenceAwareness">
<polygon fill="white" stroke="black" points="174.5,-52 174.5,-86 311.5,-86 311.5,-52 174.5,-52"/>
<text text-anchor="start" x="182.5" y="-73" font-family="Verdana" font-size="10.00">CConfigurableDomains</text>
<text text-anchor="middle" x="243" y="-60" font-family="Verdana" font-size="10.00">::getSequenceAwareness</text>
</a>
</g>
<!-- Node1&#45;&gt;Node2 -->
<g id="edge2" class="edge"><title>Node1&#45;&gt;Node2</title>
<path fill="none" stroke="midnightblue" d="M147.755,-54.768C156.662,-56.0989 165.684,-57.4471 174.445,-58.7562"/>
<polygon fill="midnightblue" stroke="midnightblue" points="148.177,-51.2922 137.769,-53.2759 147.142,-58.2154 148.177,-51.2922"/>
</g>
<!-- Node4 -->
<g id="node7" class="node"><title>Node4</title>
<a xlink:href="classCConfigurableDomains.html#a066886372cfbdda37f4b74f144585e3d" target="_top" xlink:title="CConfigurableDomains\l::listDomains">
<polygon fill="white" stroke="black" points="180,-0 180,-34 306,-34 306,-0 180,-0"/>
<text text-anchor="start" x="188" y="-21" font-family="Verdana" font-size="10.00">CConfigurableDomains</text>
<text text-anchor="middle" x="243" y="-8" font-family="Verdana" font-size="10.00">::listDomains</text>
</a>
</g>
<!-- Node1&#45;&gt;Node4 -->
<g id="edge6" class="edge"><title>Node1&#45;&gt;Node4</title>
<path fill="none" stroke="midnightblue" d="M147.939,-31.2046C158.62,-29.6086 169.464,-27.9881 179.821,-26.4406"/>
<polygon fill="midnightblue" stroke="midnightblue" points="147.142,-27.7846 137.769,-32.7241 148.177,-34.7078 147.142,-27.7846"/>
</g>
<!-- Node3 -->
<g id="node5" class="node"><title>Node3</title>
<a xlink:href="classCParameterMgr.html#ae43b3dc52cf33a344ca0c70aae2e1306" target="_top" xlink:title="CParameterMgr::getSequence\lAwareness">
<polygon fill="white" stroke="black" points="348.5,-52 348.5,-86 509.5,-86 509.5,-52 348.5,-52"/>
<text text-anchor="start" x="356.5" y="-73" font-family="Verdana" font-size="10.00">CParameterMgr::getSequence</text>
<text text-anchor="middle" x="429" y="-60" font-family="Verdana" font-size="10.00">Awareness</text>
</a>
</g>
<!-- Node2&#45;&gt;Node3 -->
<g id="edge4" class="edge"><title>Node2&#45;&gt;Node3</title>
<path fill="none" stroke="midnightblue" d="M321.889,-69C330.624,-69 339.53,-69 348.287,-69"/>
<polygon fill="midnightblue" stroke="midnightblue" points="321.731,-65.5001 311.731,-69 321.731,-72.5001 321.731,-65.5001"/>
</g>
</g>
</svg>
