<?xml version="1.0" encoding="UTF-8" standalone="no"?>
<!DOCTYPE svg PUBLIC "-//W3C//DTD SVG 1.1//EN"
 "http://www.w3.org/Graphics/SVG/1.1/DTD/svg11.dtd">
<!-- Generated by graphviz version 2.26.3 (20100126.1600)
 -->
<!-- Title: CSelectionCriterionType Pages: 1 -->
<svg width="291pt" height="146pt"
 viewBox="0.00 0.00 291.00 146.00" xmlns="http://www.w3.org/2000/svg" xmlns:xlink="http://www.w3.org/1999/xlink">
<g id="graph1" class="graph" transform="scale(1 1) rotate(0) translate(4 142)">
<title>CSelectionCriterionType</title>
<polygon fill="white" stroke="white" points="-4,5 -4,-142 288,-142 288,5 -4,5"/>
<!-- Node1 -->
<g id="node1" class="node"><title>Node1</title>
<polygon fill="#bfbfbf" stroke="black" points="69.5,-0.5 69.5,-21.5 198.5,-21.5 198.5,-0.5 69.5,-0.5"/>
<text text-anchor="middle" x="134" y="-8.5" font-family="Verdana" font-size="10.00">CSelectionCriterionType</text>
</g>
<!-- Node2 -->
<g id="node2" class="node"><title>Node2</title>
<a xlink:href="classCElement.html" target="_top" xlink:title="CElement">
<polygon fill="white" stroke="black" points="36.5,-58.5 36.5,-79.5 99.5,-79.5 99.5,-58.5 36.5,-58.5"/>
<text text-anchor="middle" x="68" y="-66.5" font-family="Verdana" font-size="10.00">CElement</text>
</a>
</g>
<!-- Node2&#45;&gt;Node1 -->
<g id="edge2" class="edge"><title>Node2&#45;&gt;Node1</title>
<path fill="none" stroke="midnightblue" d="M87.6967,-51.6908C98.8384,-41.8996 112.41,-29.973 121.971,-21.5707"/>
<polygon fill="midnightblue" stroke="midnightblue" points="85.3067,-49.1316 80.1054,-58.3619 89.9275,-54.3898 85.3067,-49.1316"/>
</g>
<!-- Node3 -->
<g id="node4" class="node"><title>Node3</title>
<polygon fill="white" stroke="#bfbfbf" points="-0.5,-116.5 -0.5,-137.5 56.5,-137.5 56.5,-116.5 -0.5,-116.5"/>
<text text-anchor="middle" x="28" y="-124.5" font-family="Verdana" font-size="10.00">IXmlSink</text>
</g>
<!-- Node3&#45;&gt;Node2 -->
<g id="edge4" class="edge"><title>Node3&#45;&gt;Node2</title>
<path fill="none" stroke="midnightblue" d="M41.1317,-107.959C47.64,-98.522 55.2528,-87.4835 60.7099,-79.5707"/>
<polygon fill="midnightblue" stroke="midnightblue" points="38.1327,-106.143 35.3366,-116.362 43.8952,-110.117 38.1327,-106.143"/>
</g>
<!-- Node4 -->
<g id="node6" class="node"><title>Node4</title>
<polygon fill="white" stroke="#bfbfbf" points="73.5,-116.5 73.5,-137.5 144.5,-137.5 144.5,-116.5 73.5,-116.5"/>
<text text-anchor="middle" x="109" y="-124.5" font-family="Verdana" font-size="10.00">IXmlSource</text>
</g>
<!-- Node4&#45;&gt;Node2 -->
<g id="edge6" class="edge"><title>Node4&#45;&gt;Node2</title>
<path fill="none" stroke="midnightblue" d="M95.54,-107.959C88.869,-98.522 81.0659,-87.4835 75.4724,-79.5707"/>
<polygon fill="midnightblue" stroke="midnightblue" points="92.8495,-110.216 101.48,-116.362 98.5656,-106.176 92.8495,-110.216"/>
</g>
<!-- Node5 -->
<g id="node8" class="node"><title>Node5</title>
<polygon fill="white" stroke="#bfbfbf" points="116.5,-58.5 116.5,-79.5 283.5,-79.5 283.5,-58.5 116.5,-58.5"/>
<text text-anchor="middle" x="200" y="-66.5" font-family="Verdana" font-size="10.00">ISelectionCriterionTypeInterface</text>
</g>
<!-- Node5&#45;&gt;Node1 -->
<g id="edge8" class="edge"><title>Node5&#45;&gt;Node1</title>
<path fill="none" stroke="midnightblue" d="M180.303,-51.6908C169.162,-41.8996 155.59,-29.973 146.029,-21.5707"/>
<polygon fill="midnightblue" stroke="midnightblue" points="178.072,-54.3898 187.895,-58.3619 182.693,-49.1316 178.072,-54.3898"/>
</g>
</g>
</svg>
