<?xml version="1.0" encoding="UTF-8" standalone="no"?>
<!DOCTYPE svg PUBLIC "-//W3C//DTD SVG 1.1//EN"
 "http://www.w3.org/Graphics/SVG/1.1/DTD/svg11.dtd">
<!-- Generated by graphviz version 2.26.3 (20100126.1600)
 -->
<!-- Title: CSubsystemObject::getSubsystem Pages: 1 -->
<svg width="520pt" height="42pt"
 viewBox="0.00 0.00 520.00 42.00" xmlns="http://www.w3.org/2000/svg" xmlns:xlink="http://www.w3.org/1999/xlink">
<g id="graph1" class="graph" transform="scale(1 1) rotate(0) translate(4 38)">
<title>CSubsystemObject::getSubsystem</title>
<polygon fill="white" stroke="white" points="-4,5 -4,-38 517,-38 517,5 -4,5"/>
<!-- Node1 -->
<g id="node1" class="node"><title>Node1</title>
<polygon fill="#bfbfbf" stroke="black" points="0,-6.5 0,-27.5 184,-27.5 184,-6.5 0,-6.5"/>
<text text-anchor="middle" x="92" y="-14.5" font-family="Verdana" font-size="10.00">CSubsystemObject::getSubsystem</text>
</g>
<!-- Node2 -->
<g id="node3" class="node"><title>Node2</title>
<a xlink:href="classCConfigurableElement.html#a1e30831c0d3ce07df6d0f6730ba04654" target="_top" xlink:title="CConfigurableElement\l::getBelongingSubsystem">
<polygon fill="white" stroke="black" points="220,-0 220,-34 360,-34 360,-0 220,-0"/>
<text text-anchor="start" x="228" y="-21" font-family="Verdana" font-size="10.00">CConfigurableElement</text>
<text text-anchor="middle" x="290" y="-8" font-family="Verdana" font-size="10.00">::getBelongingSubsystem</text>
</a>
</g>
<!-- Node1&#45;&gt;Node2 -->
<g id="edge2" class="edge"><title>Node1&#45;&gt;Node2</title>
<path fill="none" stroke="midnightblue" d="M184.044,-17C192.588,-17 201.201,-17 209.628,-17"/>
<polygon fill="midnightblue" stroke="midnightblue" points="209.796,-20.5001 219.796,-17 209.796,-13.5001 209.796,-20.5001"/>
</g>
<!-- Node3 -->
<g id="node5" class="node"><title>Node3</title>
<a xlink:href="classCElement.html#a7987056bec3cbc71bed07cc88b060cf0" target="_top" xlink:title="CElement::getParent">
<polygon fill="white" stroke="black" points="396,-6.5 396,-27.5 512,-27.5 512,-6.5 396,-6.5"/>
<text text-anchor="middle" x="454" y="-14.5" font-family="Verdana" font-size="10.00">CElement::getParent</text>
</a>
</g>
<!-- Node2&#45;&gt;Node3 -->
<g id="edge4" class="edge"><title>Node2&#45;&gt;Node3</title>
<path fill="none" stroke="midnightblue" d="M360.026,-17C368.506,-17 377.16,-17 385.615,-17"/>
<polygon fill="midnightblue" stroke="midnightblue" points="385.806,-20.5001 395.806,-17 385.805,-13.5001 385.806,-20.5001"/>
</g>
</g>
</svg>
