<?xml version="1.0" encoding="UTF-8" standalone="no"?>
<!DOCTYPE svg PUBLIC "-//W3C//DTD SVG 1.1//EN"
 "http://www.w3.org/Graphics/SVG/1.1/DTD/svg11.dtd">
<!-- Generated by graphviz version 2.26.3 (20100126.1600)
 -->
<!-- Title: CRuleParser::iterate Pages: 1 -->
<svg width="964pt" height="42pt"
 viewBox="0.00 0.00 964.00 42.00" xmlns="http://www.w3.org/2000/svg" xmlns:xlink="http://www.w3.org/1999/xlink">
<g id="graph1" class="graph" transform="scale(1 1) rotate(0) translate(4 38)">
<title>CRuleParser::iterate</title>
<polygon fill="white" stroke="white" points="-4,5 -4,-38 961,-38 961,5 -4,5"/>
<!-- Node1 -->
<g id="node1" class="node"><title>Node1</title>
<polygon fill="#bfbfbf" stroke="black" points="0,-6.5 0,-27.5 110,-27.5 110,-6.5 0,-6.5"/>
<text text-anchor="middle" x="55" y="-14.5" font-family="Verdana" font-size="10.00">CRuleParser::iterate</text>
</g>
<!-- Node2 -->
<g id="node3" class="node"><title>Node2</title>
<a xlink:href="classCRuleParser.html#acbce516a22f0dca0af620e751d298f7a" target="_top" xlink:title="CRuleParser::parse">
<polygon fill="white" stroke="black" points="146,-6.5 146,-27.5 252,-27.5 252,-6.5 146,-6.5"/>
<text text-anchor="middle" x="199" y="-14.5" font-family="Verdana" font-size="10.00">CRuleParser::parse</text>
</a>
</g>
<!-- Node1&#45;&gt;Node2 -->
<g id="edge2" class="edge"><title>Node1&#45;&gt;Node2</title>
<path fill="none" stroke="midnightblue" d="M120.426,-17C128.834,-17 137.361,-17 145.546,-17"/>
<polygon fill="midnightblue" stroke="midnightblue" points="120.262,-13.5001 110.262,-17 120.262,-20.5001 120.262,-13.5001"/>
</g>
<!-- Node3 -->
<g id="node5" class="node"><title>Node3</title>
<a xlink:href="classCDomainConfiguration.html#a3b12c8d561b1e468bd03214326bdf450" target="_top" xlink:title="CDomainConfiguration\l::setApplicationRule">
<polygon fill="white" stroke="black" points="288.5,-0 288.5,-34 413.5,-34 413.5,-0 288.5,-0"/>
<text text-anchor="start" x="296.5" y="-21" font-family="Verdana" font-size="10.00">CDomainConfiguration</text>
<text text-anchor="middle" x="351" y="-8" font-family="Verdana" font-size="10.00">::setApplicationRule</text>
</a>
</g>
<!-- Node2&#45;&gt;Node3 -->
<g id="edge4" class="edge"><title>Node2&#45;&gt;Node3</title>
<path fill="none" stroke="midnightblue" d="M262.22,-17C270.901,-17 279.811,-17 288.48,-17"/>
<polygon fill="midnightblue" stroke="midnightblue" points="262.162,-13.5001 252.162,-17 262.162,-20.5001 262.162,-13.5001"/>
</g>
<!-- Node4 -->
<g id="node7" class="node"><title>Node4</title>
<a xlink:href="classCConfigurableDomain.html#ab28e6a66ae7197d4fa131193f32891f4" target="_top" xlink:title="CConfigurableDomain\l::setApplicationRule">
<polygon fill="white" stroke="black" points="450.5,-0 450.5,-34 571.5,-34 571.5,-0 450.5,-0"/>
<text text-anchor="start" x="458.5" y="-21" font-family="Verdana" font-size="10.00">CConfigurableDomain</text>
<text text-anchor="middle" x="511" y="-8" font-family="Verdana" font-size="10.00">::setApplicationRule</text>
</a>
</g>
<!-- Node3&#45;&gt;Node4 -->
<g id="edge6" class="edge"><title>Node3&#45;&gt;Node4</title>
<path fill="none" stroke="midnightblue" d="M423.787,-17C432.72,-17 441.774,-17 450.498,-17"/>
<polygon fill="midnightblue" stroke="midnightblue" points="423.777,-13.5001 413.777,-17 423.777,-20.5001 423.777,-13.5001"/>
</g>
<!-- Node5 -->
<g id="node9" class="node"><title>Node5</title>
<a xlink:href="classCConfigurableDomains.html#ac2b2354eecc80c7ca4a71fe2f40606ed" target="_top" xlink:title="CConfigurableDomains\l::setApplicationRule">
<polygon fill="white" stroke="black" points="608,-0 608,-34 734,-34 734,-0 608,-0"/>
<text text-anchor="start" x="616" y="-21" font-family="Verdana" font-size="10.00">CConfigurableDomains</text>
<text text-anchor="middle" x="671" y="-8" font-family="Verdana" font-size="10.00">::setApplicationRule</text>
</a>
</g>
<!-- Node4&#45;&gt;Node5 -->
<g id="edge8" class="edge"><title>Node4&#45;&gt;Node5</title>
<path fill="none" stroke="midnightblue" d="M581.97,-17C590.585,-17 599.341,-17 607.833,-17"/>
<polygon fill="midnightblue" stroke="midnightblue" points="581.946,-13.5001 571.946,-17 581.946,-20.5001 581.946,-13.5001"/>
</g>
<!-- Node6 -->
<g id="node11" class="node"><title>Node6</title>
<a xlink:href="classCParameterMgr.html#af63f9ad7f792b2bf226afd791c1db70e" target="_top" xlink:title="CParameterMgr::setApplicationRule">
<polygon fill="white" stroke="black" points="770.5,-6.5 770.5,-27.5 955.5,-27.5 955.5,-6.5 770.5,-6.5"/>
<text text-anchor="middle" x="863" y="-14.5" font-family="Verdana" font-size="10.00">CParameterMgr::setApplicationRule</text>
</a>
</g>
<!-- Node5&#45;&gt;Node6 -->
<g id="edge10" class="edge"><title>Node5&#45;&gt;Node6</title>
<path fill="none" stroke="midnightblue" d="M744.344,-17C752.831,-17 761.57,-17 770.272,-17"/>
<polygon fill="midnightblue" stroke="midnightblue" points="744.134,-13.5001 734.134,-17 744.134,-20.5001 744.134,-13.5001"/>
</g>
</g>
</svg>
