<?xml version="1.0" encoding="UTF-8" standalone="no"?>
<!DOCTYPE svg PUBLIC "-//W3C//DTD SVG 1.1//EN"
 "http://www.w3.org/Graphics/SVG/1.1/DTD/svg11.dtd">
<!-- Generated by graphviz version 2.26.3 (20100126.1600)
 -->
<!-- Title: CConfigurableDomains::renameConfiguration Pages: 1 -->
<svg width="628pt" height="228pt"
 viewBox="0.00 0.00 628.00 228.00" xmlns="http://www.w3.org/2000/svg" xmlns:xlink="http://www.w3.org/1999/xlink">
<g id="graph1" class="graph" transform="scale(1 1) rotate(0) translate(4 224)">
<title>CConfigurableDomains::renameConfiguration</title>
<polygon fill="white" stroke="white" points="-4,5 -4,-224 625,-224 625,5 -4,5"/>
<!-- Node1 -->
<g id="node1" class="node"><title>Node1</title>
<polygon fill="#bfbfbf" stroke="black" points="0,-152 0,-186 126,-186 126,-152 0,-152"/>
<text text-anchor="start" x="8" y="-173" font-family="Verdana" font-size="10.00">CConfigurableDomains</text>
<text text-anchor="middle" x="63" y="-160" font-family="Verdana" font-size="10.00">::renameConfiguration</text>
</g>
<!-- Node2 -->
<g id="node3" class="node"><title>Node2</title>
<a xlink:href="classCConfigurableDomains.html#a4dce38a1560b6e33871d3fa2d85cc449" target="_top" xlink:title="CConfigurableDomains\l::findConfigurableDomain">
<polygon fill="white" stroke="black" points="162.5,-185 162.5,-219 299.5,-219 299.5,-185 162.5,-185"/>
<text text-anchor="start" x="170.5" y="-206" font-family="Verdana" font-size="10.00">CConfigurableDomains</text>
<text text-anchor="middle" x="231" y="-193" font-family="Verdana" font-size="10.00">::findConfigurableDomain</text>
</a>
</g>
<!-- Node1&#45;&gt;Node2 -->
<g id="edge2" class="edge"><title>Node1&#45;&gt;Node2</title>
<path fill="none" stroke="midnightblue" d="M126.035,-181.382C134.626,-183.069 143.53,-184.818 152.355,-186.552"/>
<polygon fill="midnightblue" stroke="midnightblue" points="151.777,-190.005 162.264,-188.498 153.126,-183.136 151.777,-190.005"/>
</g>
<!-- Node4 -->
<g id="node7" class="node"><title>Node4</title>
<a xlink:href="classCConfigurableDomain.html#a647386b073c9dd776f9cd9dcb24088a7" target="_top" xlink:title="CConfigurableDomain\l::renameConfiguration">
<polygon fill="white" stroke="black" points="169,-120 169,-154 293,-154 293,-120 169,-120"/>
<text text-anchor="start" x="177" y="-141" font-family="Verdana" font-size="10.00">CConfigurableDomain</text>
<text text-anchor="middle" x="231" y="-128" font-family="Verdana" font-size="10.00">::renameConfiguration</text>
</a>
</g>
<!-- Node1&#45;&gt;Node4 -->
<g id="edge6" class="edge"><title>Node1&#45;&gt;Node4</title>
<path fill="none" stroke="midnightblue" d="M126.035,-156.993C136.728,-154.957 147.905,-152.828 158.811,-150.75"/>
<polygon fill="midnightblue" stroke="midnightblue" points="159.56,-154.171 168.728,-148.861 158.25,-147.294 159.56,-154.171"/>
</g>
<!-- Node3 -->
<g id="node5" class="node"><title>Node3</title>
<a xlink:href="classCElement.html#a8595814a3159f32f874269907e70b260" target="_top" xlink:title="CElement::findChild">
<polygon fill="white" stroke="black" points="336,-198.5 336,-219.5 446,-219.5 446,-198.5 336,-198.5"/>
<text text-anchor="middle" x="391" y="-206.5" font-family="Verdana" font-size="10.00">CElement::findChild</text>
</a>
</g>
<!-- Node2&#45;&gt;Node3 -->
<g id="edge4" class="edge"><title>Node2&#45;&gt;Node3</title>
<path fill="none" stroke="midnightblue" d="M299.783,-205.009C308.334,-205.383 317.058,-205.765 325.557,-206.137"/>
<polygon fill="midnightblue" stroke="midnightblue" points="325.64,-209.644 335.783,-206.584 325.946,-202.65 325.64,-209.644"/>
</g>
<!-- Node5 -->
<g id="node9" class="node"><title>Node5</title>
<a xlink:href="classCElement.html#aaa4df1b13a53263f8cc2b668172873d9" target="_top" xlink:title="CElement::log_info">
<polygon fill="white" stroke="black" points="338,-158.5 338,-179.5 444,-179.5 444,-158.5 338,-158.5"/>
<text text-anchor="middle" x="391" y="-166.5" font-family="Verdana" font-size="10.00">CElement::log_info</text>
</a>
</g>
<!-- Node4&#45;&gt;Node5 -->
<g id="edge8" class="edge"><title>Node4&#45;&gt;Node5</title>
<path fill="none" stroke="midnightblue" d="M293.318,-149.464C304.855,-151.771 316.909,-154.182 328.453,-156.491"/>
<polygon fill="midnightblue" stroke="midnightblue" points="327.948,-159.959 338.44,-158.488 329.321,-153.095 327.948,-159.959"/>
</g>
<!-- Node6 -->
<g id="node11" class="node"><title>Node6</title>
<a xlink:href="classCElement.html#a49581fb6412e29e932962acd82d52d6a" target="_top" xlink:title="CElement::getName">
<polygon fill="white" stroke="black" points="494,-120.5 494,-141.5 608,-141.5 608,-120.5 494,-120.5"/>
<text text-anchor="middle" x="551" y="-128.5" font-family="Verdana" font-size="10.00">CElement::getName</text>
</a>
</g>
<!-- Node4&#45;&gt;Node6 -->
<g id="edge10" class="edge"><title>Node4&#45;&gt;Node6</title>
<path fill="none" stroke="midnightblue" d="M293.079,-135.836C347.832,-134.809 427.444,-133.317 483.706,-132.262"/>
<polygon fill="midnightblue" stroke="midnightblue" points="483.996,-135.757 493.929,-132.07 483.865,-128.758 483.996,-135.757"/>
</g>
<!-- Node7 -->
<g id="node13" class="node"><title>Node7</title>
<a xlink:href="classCElement.html#aa09118f89e5b3208ee92d0ec51151ccf" target="_top" xlink:title="CElement::rename">
<polygon fill="white" stroke="black" points="337.5,-80.5 337.5,-101.5 444.5,-101.5 444.5,-80.5 337.5,-80.5"/>
<text text-anchor="middle" x="391" y="-88.5" font-family="Verdana" font-size="10.00">CElement::rename</text>
</a>
</g>
<!-- Node4&#45;&gt;Node7 -->
<g id="edge12" class="edge"><title>Node4&#45;&gt;Node7</title>
<path fill="none" stroke="midnightblue" d="M290.578,-119.871C308.403,-114.747 327.678,-109.205 344.53,-104.36"/>
<polygon fill="midnightblue" stroke="midnightblue" points="345.499,-107.724 354.142,-101.597 343.564,-100.996 345.499,-107.724"/>
</g>
<!-- Node7&#45;&gt;Node6 -->
<g id="edge18" class="edge"><title>Node7&#45;&gt;Node6</title>
<path fill="none" stroke="midnightblue" d="M433.038,-101.51C453.26,-106.565 477.696,-112.674 499.069,-118.017"/>
<polygon fill="midnightblue" stroke="midnightblue" points="498.415,-121.461 508.965,-120.491 500.113,-114.67 498.415,-121.461"/>
</g>
<!-- Node8 -->
<g id="node15" class="node"><title>Node8</title>
<a xlink:href="classCElement.html#a25f58d9d8b35e770806d669fb2a378e4" target="_top" xlink:title="CElement::getNbChildren">
<polygon fill="white" stroke="black" points="482.5,-80.5 482.5,-101.5 619.5,-101.5 619.5,-80.5 482.5,-80.5"/>
<text text-anchor="middle" x="551" y="-88.5" font-family="Verdana" font-size="10.00">CElement::getNbChildren</text>
</a>
</g>
<!-- Node7&#45;&gt;Node8 -->
<g id="edge14" class="edge"><title>Node7&#45;&gt;Node8</title>
<path fill="none" stroke="midnightblue" d="M444.723,-91C453.59,-91 462.941,-91 472.27,-91"/>
<polygon fill="midnightblue" stroke="midnightblue" points="472.36,-94.5001 482.359,-91 472.359,-87.5001 472.36,-94.5001"/>
</g>
<!-- Node9 -->
<g id="node17" class="node"><title>Node9</title>
<a xlink:href="classCElement.html#a41bf126c3fdbb5bec0c2c3dcf35e9079" target="_top" xlink:title="CElement::getChild">
<polygon fill="white" stroke="black" points="497,-40.5 497,-61.5 605,-61.5 605,-40.5 497,-40.5"/>
<text text-anchor="middle" x="551" y="-48.5" font-family="Verdana" font-size="10.00">CElement::getChild</text>
</a>
</g>
<!-- Node7&#45;&gt;Node9 -->
<g id="edge16" class="edge"><title>Node7&#45;&gt;Node9</title>
<path fill="none" stroke="midnightblue" d="M433.038,-80.4905C453.26,-75.4349 477.696,-69.3261 499.069,-63.9827"/>
<polygon fill="midnightblue" stroke="midnightblue" points="500.113,-67.3296 508.965,-61.5087 498.415,-60.5386 500.113,-67.3296"/>
</g>
<!-- Node10 -->
<g id="node20" class="node"><title>Node10</title>
<a xlink:href="classCElement.html#a9018d33125b066d6cd791659af95c6fe" target="_top" xlink:title="CElement::setName">
<polygon fill="white" stroke="black" points="494.5,-0.5 494.5,-21.5 607.5,-21.5 607.5,-0.5 494.5,-0.5"/>
<text text-anchor="middle" x="551" y="-8.5" font-family="Verdana" font-size="10.00">CElement::setName</text>
</a>
</g>
<!-- Node7&#45;&gt;Node10 -->
<g id="edge20" class="edge"><title>Node7&#45;&gt;Node10</title>
<path fill="none" stroke="midnightblue" d="M404.121,-80.4959C421.169,-67.2989 452.277,-44.7224 482,-31 486.954,-28.7128 492.23,-26.6233 497.573,-24.7306"/>
<polygon fill="midnightblue" stroke="midnightblue" points="498.818,-28.0053 507.209,-21.5362 496.615,-21.3609 498.818,-28.0053"/>
</g>
</g>
</svg>
