<?xml version="1.0" encoding="UTF-8" standalone="no"?>
<!DOCTYPE svg PUBLIC "-//W3C//DTD SVG 1.1//EN"
 "http://www.w3.org/Graphics/SVG/1.1/DTD/svg11.dtd">
<!-- Generated by graphviz version 2.26.3 (20100126.1600)
 -->
<!-- Title: CXmlDomainImportContext::autoValidationRequired Pages: 1 -->
<svg width="314pt" height="42pt"
 viewBox="0.00 0.00 314.00 42.00" xmlns="http://www.w3.org/2000/svg" xmlns:xlink="http://www.w3.org/1999/xlink">
<g id="graph1" class="graph" transform="scale(1 1) rotate(0) translate(4 38)">
<title>CXmlDomainImportContext::autoValidationRequired</title>
<polygon fill="white" stroke="white" points="-4,5 -4,-38 311,-38 311,5 -4,5"/>
<!-- Node1 -->
<g id="node1" class="node"><title>Node1</title>
<polygon fill="#bfbfbf" stroke="black" points="0,-0 0,-34 148,-34 148,-0 0,-0"/>
<text text-anchor="start" x="8" y="-21" font-family="Verdana" font-size="10.00">CXmlDomainImportContext</text>
<text text-anchor="middle" x="74" y="-8" font-family="Verdana" font-size="10.00">::autoValidationRequired</text>
</g>
<!-- Node2 -->
<g id="node3" class="node"><title>Node2</title>
<a xlink:href="classCConfigurableDomain.html#aa1fdeb04cae19531f2588e0419b53b84" target="_top" xlink:title="CConfigurableDomain\l::fromXml">
<polygon fill="white" stroke="black" points="184.5,-0 184.5,-34 305.5,-34 305.5,-0 184.5,-0"/>
<text text-anchor="start" x="192.5" y="-21" font-family="Verdana" font-size="10.00">CConfigurableDomain</text>
<text text-anchor="middle" x="245" y="-8" font-family="Verdana" font-size="10.00">::fromXml</text>
</a>
</g>
<!-- Node1&#45;&gt;Node2 -->
<g id="edge2" class="edge"><title>Node1&#45;&gt;Node2</title>
<path fill="none" stroke="midnightblue" d="M158.266,-17C167.029,-17 175.81,-17 184.24,-17"/>
<polygon fill="midnightblue" stroke="midnightblue" points="158.009,-13.5001 148.009,-17 158.009,-20.5001 158.009,-13.5001"/>
</g>
</g>
</svg>
