<?xml version="1.0" encoding="UTF-8" standalone="no"?>
<!DOCTYPE svg PUBLIC "-//W3C//DTD SVG 1.1//EN"
 "http://www.w3.org/Graphics/SVG/1.1/DTD/svg11.dtd">
<!-- Generated by graphviz version 2.26.3 (20100126.1600)
 -->
<!-- Title: CParameterType::showProperties Pages: 1 -->
<svg width="356pt" height="70pt"
 viewBox="0.00 0.00 356.00 70.00" xmlns="http://www.w3.org/2000/svg" xmlns:xlink="http://www.w3.org/1999/xlink">
<g id="graph1" class="graph" transform="scale(1 1) rotate(0) translate(4 66)">
<title>CParameterType::showProperties</title>
<polygon fill="white" stroke="white" points="-4,5 -4,-66 353,-66 353,5 -4,5"/>
<!-- Node1 -->
<g id="node1" class="node"><title>Node1</title>
<polygon fill="#bfbfbf" stroke="black" points="0.5,-20.5 0.5,-41.5 173.5,-41.5 173.5,-20.5 0.5,-20.5"/>
<text text-anchor="middle" x="87" y="-28.5" font-family="Verdana" font-size="10.00">CParameterType::showProperties</text>
</g>
<!-- Node2 -->
<g id="node3" class="node"><title>Node2</title>
<a xlink:href="classCElement.html#aacdd6d54c10cd1494a820d78be779362" target="_top" xlink:title="CElement::toString">
<polygon fill="white" stroke="black" points="225.5,-40.5 225.5,-61.5 332.5,-61.5 332.5,-40.5 225.5,-40.5"/>
<text text-anchor="middle" x="279" y="-48.5" font-family="Verdana" font-size="10.00">CElement::toString</text>
</a>
</g>
<!-- Node1&#45;&gt;Node2 -->
<g id="edge2" class="edge"><title>Node1&#45;&gt;Node2</title>
<path fill="none" stroke="midnightblue" d="M173.732,-40.0345C187.749,-41.4946 202.032,-42.9824 215.37,-44.3719"/>
<polygon fill="midnightblue" stroke="midnightblue" points="215.057,-47.8582 225.366,-45.4132 215.783,-40.8958 215.057,-47.8582"/>
</g>
<!-- Node3 -->
<g id="node5" class="node"><title>Node3</title>
<a xlink:href="classCParameterType.html#adfe9fe947066e58a062f8126f246f71a" target="_top" xlink:title="CParameterType::getSize">
<polygon fill="white" stroke="black" points="210.5,-0.5 210.5,-21.5 347.5,-21.5 347.5,-0.5 210.5,-0.5"/>
<text text-anchor="middle" x="279" y="-8.5" font-family="Verdana" font-size="10.00">CParameterType::getSize</text>
</a>
</g>
<!-- Node1&#45;&gt;Node3 -->
<g id="edge4" class="edge"><title>Node1&#45;&gt;Node3</title>
<path fill="none" stroke="midnightblue" d="M173.732,-21.9655C182.589,-21.0428 191.552,-20.1092 200.316,-19.1962"/>
<polygon fill="midnightblue" stroke="midnightblue" points="200.911,-22.6533 210.495,-18.136 200.186,-15.691 200.911,-22.6533"/>
</g>
</g>
</svg>
