<?xml version="1.0" encoding="UTF-8" standalone="no"?>
<!DOCTYPE svg PUBLIC "-//W3C//DTD SVG 1.1//EN"
 "http://www.w3.org/Graphics/SVG/1.1/DTD/svg11.dtd">
<!-- Generated by graphviz version 2.26.3 (20100126.1600)
 -->
<!-- Title: CElement::findDescendant Pages: 1 -->
<svg width="306pt" height="70pt"
 viewBox="0.00 0.00 306.00 70.00" xmlns="http://www.w3.org/2000/svg" xmlns:xlink="http://www.w3.org/1999/xlink">
<g id="graph1" class="graph" transform="scale(1 1) rotate(0) translate(4 66)">
<title>CElement::findDescendant</title>
<polygon fill="white" stroke="white" points="-4,5 -4,-66 303,-66 303,5 -4,5"/>
<!-- Node1 -->
<g id="node1" class="node"><title>Node1</title>
<polygon fill="#bfbfbf" stroke="black" points="0,-20.5 0,-41.5 144,-41.5 144,-20.5 0,-20.5"/>
<text text-anchor="middle" x="72" y="-28.5" font-family="Verdana" font-size="10.00">CElement::findDescendant</text>
</g>
<!-- Node1&#45;&gt;Node1 -->
<g id="edge6" class="edge"><title>Node1&#45;&gt;Node1</title>
<path fill="none" stroke="midnightblue" d="M45.6243,-41.7079C34.3526,-50.6531 43.1445,-60 72,-60 90.9364,-60 101.232,-55.9746 102.887,-50.6791"/>
<polygon fill="midnightblue" stroke="midnightblue" points="105.995,-49.0693 98.3757,-41.7079 99.7417,-52.2143 105.995,-49.0693"/>
</g>
<!-- Node2 -->
<g id="node3" class="node"><title>Node2</title>
<a xlink:href="classCPathNavigator.html#a06f35d45c0bf392e11de0bf1197cc589" target="_top" xlink:title="CPathNavigator::next">
<polygon fill="white" stroke="black" points="180,-40.5 180,-61.5 298,-61.5 298,-40.5 180,-40.5"/>
<text text-anchor="middle" x="239" y="-48.5" font-family="Verdana" font-size="10.00">CPathNavigator::next</text>
</a>
</g>
<!-- Node1&#45;&gt;Node2 -->
<g id="edge2" class="edge"><title>Node1&#45;&gt;Node2</title>
<path fill="none" stroke="midnightblue" d="M144.277,-39.656C152.738,-40.6692 161.355,-41.7012 169.773,-42.7093"/>
<polygon fill="midnightblue" stroke="midnightblue" points="169.572,-46.2102 179.917,-43.9242 170.405,-39.2599 169.572,-46.2102"/>
</g>
<!-- Node3 -->
<g id="node5" class="node"><title>Node3</title>
<a xlink:href="classCElement.html#a8595814a3159f32f874269907e70b260" target="_top" xlink:title="CElement::findChild">
<polygon fill="white" stroke="black" points="184,-0.5 184,-21.5 294,-21.5 294,-0.5 184,-0.5"/>
<text text-anchor="middle" x="239" y="-8.5" font-family="Verdana" font-size="10.00">CElement::findChild</text>
</a>
</g>
<!-- Node1&#45;&gt;Node3 -->
<g id="edge4" class="edge"><title>Node1&#45;&gt;Node3</title>
<path fill="none" stroke="midnightblue" d="M144.277,-22.344C154.157,-21.1609 164.249,-19.9522 173.989,-18.7858"/>
<polygon fill="midnightblue" stroke="midnightblue" points="174.473,-22.2528 183.986,-17.5885 173.641,-15.3025 174.473,-22.2528"/>
</g>
</g>
</svg>
