<?xml version="1.0" encoding="UTF-8" standalone="no"?>
<!DOCTYPE svg PUBLIC "-//W3C//DTD SVG 1.1//EN"
 "http://www.w3.org/Graphics/SVG/1.1/DTD/svg11.dtd">
<!-- Generated by graphviz version 2.26.3 (20100126.1600)
 -->
<!-- Title: CSelectionCriteria::getSelectionCriterion Pages: 1 -->
<svg width="476pt" height="94pt"
 viewBox="0.00 0.00 476.00 94.00" xmlns="http://www.w3.org/2000/svg" xmlns:xlink="http://www.w3.org/1999/xlink">
<g id="graph1" class="graph" transform="scale(1 1) rotate(0) translate(4 90)">
<title>CSelectionCriteria::getSelectionCriterion</title>
<polygon fill="white" stroke="white" points="-4,5 -4,-90 473,-90 473,5 -4,5"/>
<!-- Node1 -->
<g id="node1" class="node"><title>Node1</title>
<polygon fill="#bfbfbf" stroke="black" points="0.5,-26 0.5,-60 123.5,-60 123.5,-26 0.5,-26"/>
<text text-anchor="start" x="8.5" y="-47" font-family="Verdana" font-size="10.00">CSelectionCriteria</text>
<text text-anchor="middle" x="62" y="-34" font-family="Verdana" font-size="10.00">::getSelectionCriterion</text>
</g>
<!-- Node2 -->
<g id="node3" class="node"><title>Node2</title>
<a xlink:href="classCSelectionCriteria.html#aa87e3488047e305e72d84d5aa0ed3e08" target="_top" xlink:title="CSelectionCriteria\l::getSelectionCriteriaDefinition">
<polygon fill="white" stroke="black" points="160,-52 160,-86 322,-86 322,-52 160,-52"/>
<text text-anchor="start" x="168" y="-73" font-family="Verdana" font-size="10.00">CSelectionCriteria</text>
<text text-anchor="middle" x="241" y="-60" font-family="Verdana" font-size="10.00">::getSelectionCriteriaDefinition</text>
</a>
</g>
<!-- Node1&#45;&gt;Node2 -->
<g id="edge2" class="edge"><title>Node1&#45;&gt;Node2</title>
<path fill="none" stroke="midnightblue" d="M123.602,-51.9477C132.051,-53.1751 140.87,-54.456 149.712,-55.7403"/>
<polygon fill="midnightblue" stroke="midnightblue" points="149.287,-59.2151 159.686,-57.189 150.293,-52.2878 149.287,-59.2151"/>
</g>
<!-- Node4 -->
<g id="node7" class="node"><title>Node4</title>
<a xlink:href="classCSelectionCriteriaDefinition.html#ade9c9f7fe7806988d3d922bf615e5994" target="_top" xlink:title="CSelectionCriteriaDefinition\l::getSelectionCriterion">
<polygon fill="white" stroke="black" points="167.5,-0 167.5,-34 314.5,-34 314.5,-0 167.5,-0"/>
<text text-anchor="start" x="175.5" y="-21" font-family="Verdana" font-size="10.00">CSelectionCriteriaDefinition</text>
<text text-anchor="middle" x="241" y="-8" font-family="Verdana" font-size="10.00">::getSelectionCriterion</text>
</a>
</g>
<!-- Node1&#45;&gt;Node4 -->
<g id="edge6" class="edge"><title>Node1&#45;&gt;Node4</title>
<path fill="none" stroke="midnightblue" d="M123.602,-34.0523C134.474,-32.4731 145.956,-30.8052 157.313,-29.1556"/>
<polygon fill="midnightblue" stroke="midnightblue" points="157.85,-32.6144 167.243,-27.7133 156.844,-25.6871 157.85,-32.6144"/>
</g>
<!-- Node3 -->
<g id="node5" class="node"><title>Node3</title>
<a xlink:href="classCElement.html#a41bf126c3fdbb5bec0c2c3dcf35e9079" target="_top" xlink:title="CElement::getChild">
<polygon fill="white" stroke="black" points="359,-58.5 359,-79.5 467,-79.5 467,-58.5 359,-58.5"/>
<text text-anchor="middle" x="413" y="-66.5" font-family="Verdana" font-size="10.00">CElement::getChild</text>
</a>
</g>
<!-- Node2&#45;&gt;Node3 -->
<g id="edge4" class="edge"><title>Node2&#45;&gt;Node3</title>
<path fill="none" stroke="midnightblue" d="M322.215,-69C330.996,-69 339.844,-69 348.391,-69"/>
<polygon fill="midnightblue" stroke="midnightblue" points="348.642,-72.5001 358.642,-69 348.642,-65.5001 348.642,-72.5001"/>
</g>
<!-- Node5 -->
<g id="node9" class="node"><title>Node5</title>
<a xlink:href="classCElement.html#a8595814a3159f32f874269907e70b260" target="_top" xlink:title="CElement::findChild">
<polygon fill="white" stroke="black" points="358,-6.5 358,-27.5 468,-27.5 468,-6.5 358,-6.5"/>
<text text-anchor="middle" x="413" y="-14.5" font-family="Verdana" font-size="10.00">CElement::findChild</text>
</a>
</g>
<!-- Node4&#45;&gt;Node5 -->
<g id="edge8" class="edge"><title>Node4&#45;&gt;Node5</title>
<path fill="none" stroke="midnightblue" d="M314.942,-17C325.844,-17 337.009,-17 347.719,-17"/>
<polygon fill="midnightblue" stroke="midnightblue" points="347.824,-20.5001 357.824,-17 347.824,-13.5001 347.824,-20.5001"/>
</g>
</g>
</svg>
