<?xml version="1.0" encoding="UTF-8" standalone="no"?>
<!DOCTYPE svg PUBLIC "-//W3C//DTD SVG 1.1//EN"
 "http://www.w3.org/Graphics/SVG/1.1/DTD/svg11.dtd">
<!-- Generated by graphviz version 2.26.3 (20100126.1600)
 -->
<!-- Title: CTypeElement::getMappingData Pages: 1 -->
<svg width="350pt" height="48pt"
 viewBox="0.00 0.00 350.00 48.00" xmlns="http://www.w3.org/2000/svg" xmlns:xlink="http://www.w3.org/1999/xlink">
<g id="graph1" class="graph" transform="scale(1 1) rotate(0) translate(4 44)">
<title>CTypeElement::getMappingData</title>
<polygon fill="white" stroke="white" points="-4,5 -4,-44 347,-44 347,5 -4,5"/>
<!-- Node1 -->
<g id="node1" class="node"><title>Node1</title>
<polygon fill="#bfbfbf" stroke="black" points="0,-0.5 0,-21.5 170,-21.5 170,-0.5 0,-0.5"/>
<text text-anchor="middle" x="85" y="-8.5" font-family="Verdana" font-size="10.00">CTypeElement::getMappingData</text>
</g>
<!-- Node1&#45;&gt;Node1 -->
<g id="edge2" class="edge"><title>Node1&#45;&gt;Node1</title>
<path fill="none" stroke="midnightblue" d="M55.1287,-21.7079C42.3632,-30.6531 52.3203,-40 85,-40 106.957,-40 118.656,-35.7807 120.098,-30.2987"/>
<polygon fill="midnightblue" stroke="midnightblue" points="123.059,-28.4318 114.871,-21.7079 117.079,-32.0702 123.059,-28.4318"/>
</g>
<!-- Node2 -->
<g id="node4" class="node"><title>Node2</title>
<a xlink:href="classCMappingData.html#a7a2d5172201c72ab434175fadc1f3053" target="_top" xlink:title="CMappingData::getValue">
<polygon fill="white" stroke="black" points="206.5,-0.5 206.5,-21.5 341.5,-21.5 341.5,-0.5 206.5,-0.5"/>
<text text-anchor="middle" x="274" y="-8.5" font-family="Verdana" font-size="10.00">CMappingData::getValue</text>
</a>
</g>
<!-- Node1&#45;&gt;Node2 -->
<g id="edge4" class="edge"><title>Node1&#45;&gt;Node2</title>
<path fill="none" stroke="midnightblue" d="M170.101,-11C178.833,-11 187.674,-11 196.32,-11"/>
<polygon fill="midnightblue" stroke="midnightblue" points="196.363,-14.5001 206.363,-11 196.363,-7.5001 196.363,-14.5001"/>
</g>
</g>
</svg>
