<?xml version="1.0" encoding="UTF-8" standalone="no"?>
<!DOCTYPE svg PUBLIC "-//W3C//DTD SVG 1.1//EN"
 "http://www.w3.org/Graphics/SVG/1.1/DTD/svg11.dtd">
<!-- Generated by graphviz version 2.26.3 (20100126.1600)
 -->
<!-- Title: CAreaConfiguration::serializeXmlSettings Pages: 1 -->
<svg width="712pt" height="455pt"
 viewBox="0.00 0.00 712.00 455.00" xmlns="http://www.w3.org/2000/svg" xmlns:xlink="http://www.w3.org/1999/xlink">
<g id="graph1" class="graph" transform="scale(1 1) rotate(0) translate(4 451)">
<title>CAreaConfiguration::serializeXmlSettings</title>
<polygon fill="white" stroke="white" points="-4,5 -4,-451 709,-451 709,5 -4,5"/>
<!-- Node1 -->
<g id="node1" class="node"><title>Node1</title>
<polygon fill="#bfbfbf" stroke="black" points="0.5,-309 0.5,-343 119.5,-343 119.5,-309 0.5,-309"/>
<text text-anchor="start" x="8.5" y="-330" font-family="Verdana" font-size="10.00">CAreaConfiguration</text>
<text text-anchor="middle" x="60" y="-317" font-family="Verdana" font-size="10.00">::serializeXmlSettings</text>
</g>
<!-- Node2 -->
<g id="node3" class="node"><title>Node2</title>
<a xlink:href="classCParameterAccessContext.html#a5c8a052ad42c4e93476715cd85f1d6e3" target="_top" xlink:title="CParameterAccessContext\l::setParameterBlackboard">
<polygon fill="white" stroke="black" points="156.5,-413 156.5,-447 301.5,-447 301.5,-413 156.5,-413"/>
<text text-anchor="start" x="164.5" y="-434" font-family="Verdana" font-size="10.00">CParameterAccessContext</text>
<text text-anchor="middle" x="229" y="-421" font-family="Verdana" font-size="10.00">::setParameterBlackboard</text>
</a>
</g>
<!-- Node1&#45;&gt;Node2 -->
<g id="edge2" class="edge"><title>Node1&#45;&gt;Node2</title>
<path fill="none" stroke="midnightblue" d="M77.3985,-343.251C95.6629,-360.572 125.864,-387.054 156,-404 159.023,-405.7 162.178,-407.321 165.407,-408.862"/>
<polygon fill="midnightblue" stroke="midnightblue" points="164.098,-412.111 174.656,-412.993 166.952,-405.719 164.098,-412.111"/>
</g>
<!-- Node3 -->
<g id="node5" class="node"><title>Node3</title>
<a xlink:href="classCParameterAccessContext.html#a17213d6a90130c62faf41761549e64a6" target="_top" xlink:title="CParameterAccessContext\l::setBaseOffset">
<polygon fill="white" stroke="black" points="156.5,-361 156.5,-395 301.5,-395 301.5,-361 156.5,-361"/>
<text text-anchor="start" x="164.5" y="-382" font-family="Verdana" font-size="10.00">CParameterAccessContext</text>
<text text-anchor="middle" x="229" y="-369" font-family="Verdana" font-size="10.00">::setBaseOffset</text>
</a>
</g>
<!-- Node1&#45;&gt;Node3 -->
<g id="edge4" class="edge"><title>Node1&#45;&gt;Node3</title>
<path fill="none" stroke="midnightblue" d="M115.337,-343.027C130.802,-347.785 147.754,-353.001 163.735,-357.919"/>
<polygon fill="midnightblue" stroke="midnightblue" points="162.952,-361.339 173.539,-360.935 165.01,-354.649 162.952,-361.339"/>
</g>
<!-- Node4 -->
<g id="node7" class="node"><title>Node4</title>
<a xlink:href="classCConfigurableElement.html#a29d61e6d09ff508ebb87aea802f2704e" target="_top" xlink:title="CConfigurableElement\l::getOffset">
<polygon fill="white" stroke="black" points="167.5,-309 167.5,-343 290.5,-343 290.5,-309 167.5,-309"/>
<text text-anchor="start" x="175.5" y="-330" font-family="Verdana" font-size="10.00">CConfigurableElement</text>
<text text-anchor="middle" x="229" y="-317" font-family="Verdana" font-size="10.00">::getOffset</text>
</a>
</g>
<!-- Node1&#45;&gt;Node4 -->
<g id="edge6" class="edge"><title>Node1&#45;&gt;Node4</title>
<path fill="none" stroke="midnightblue" d="M119.583,-326C131.685,-326 144.535,-326 157.013,-326"/>
<polygon fill="midnightblue" stroke="midnightblue" points="157.383,-329.5 167.383,-326 157.383,-322.5 157.383,-329.5"/>
</g>
<!-- Node5 -->
<g id="node9" class="node"><title>Node5</title>
<a xlink:href="classCConfigurableElement.html#a0e3feb8a7b18a3291ec960c9726b4eaf" target="_top" xlink:title="CConfigurableElement\l::serializeXmlSettings">
<polygon fill="white" stroke="black" points="167.5,-170 167.5,-204 290.5,-204 290.5,-170 167.5,-170"/>
<text text-anchor="start" x="175.5" y="-191" font-family="Verdana" font-size="10.00">CConfigurableElement</text>
<text text-anchor="middle" x="229" y="-178" font-family="Verdana" font-size="10.00">::serializeXmlSettings</text>
</a>
</g>
<!-- Node1&#45;&gt;Node5 -->
<g id="edge8" class="edge"><title>Node1&#45;&gt;Node5</title>
<path fill="none" stroke="midnightblue" d="M80.7227,-308.956C110.624,-284.362 165.999,-238.817 199.963,-210.883"/>
<polygon fill="midnightblue" stroke="midnightblue" points="202.608,-213.239 208.108,-204.184 198.161,-207.833 202.608,-213.239"/>
</g>
<!-- Node7 -->
<g id="node13" class="node"><title>Node7</title>
<a xlink:href="classCConfigurationAccessContext.html#ac0a975afc840488e5e82345441de56cc" target="_top" xlink:title="CConfigurationAccessContext\l::serializeOut">
<polygon fill="white" stroke="black" points="338,-280 338,-314 496,-314 496,-280 338,-280"/>
<text text-anchor="start" x="346" y="-301" font-family="Verdana" font-size="10.00">CConfigurationAccessContext</text>
<text text-anchor="middle" x="417" y="-288" font-family="Verdana" font-size="10.00">::serializeOut</text>
</a>
</g>
<!-- Node1&#45;&gt;Node7 -->
<g id="edge32" class="edge"><title>Node1&#45;&gt;Node7</title>
<path fill="none" stroke="midnightblue" d="M113.324,-308.993C127.086,-305.315 141.976,-301.948 156,-300 212.689,-292.127 276.969,-291.293 327.553,-292.467"/>
<polygon fill="midnightblue" stroke="midnightblue" points="327.717,-295.973 337.805,-292.737 327.901,-288.975 327.717,-295.973"/>
</g>
<!-- Node5&#45;&gt;Node5 -->
<g id="edge22" class="edge"><title>Node5&#45;&gt;Node5</title>
<path fill="none" stroke="midnightblue" d="M198.8,-204.288C193.668,-213.556 203.734,-222 229,-222 244.396,-222 254.149,-218.864 258.257,-214.318"/>
<polygon fill="midnightblue" stroke="midnightblue" points="261.748,-214.572 259.2,-204.288 254.779,-213.916 261.748,-214.572"/>
</g>
<!-- Node6 -->
<g id="node11" class="node"><title>Node6</title>
<a xlink:href="classCElement.html#a25f58d9d8b35e770806d669fb2a378e4" target="_top" xlink:title="CElement::getNbChildren">
<polygon fill="white" stroke="black" points="348.5,-240.5 348.5,-261.5 485.5,-261.5 485.5,-240.5 348.5,-240.5"/>
<text text-anchor="middle" x="417" y="-248.5" font-family="Verdana" font-size="10.00">CElement::getNbChildren</text>
</a>
</g>
<!-- Node5&#45;&gt;Node6 -->
<g id="edge10" class="edge"><title>Node5&#45;&gt;Node6</title>
<path fill="none" stroke="midnightblue" d="M267.624,-204.083C288.258,-212.827 314.237,-223.236 338,-231 345.376,-233.41 353.217,-235.705 360.985,-237.824"/>
<polygon fill="midnightblue" stroke="midnightblue" points="360.184,-241.233 370.747,-240.41 361.976,-234.466 360.184,-241.233"/>
</g>
<!-- Node5&#45;&gt;Node7 -->
<g id="edge12" class="edge"><title>Node5&#45;&gt;Node7</title>
<path fill="none" stroke="midnightblue" d="M247.323,-204.3C267.956,-222.983 303.168,-252.543 338,-271 341.321,-272.76 344.784,-274.431 348.325,-276.012"/>
<polygon fill="midnightblue" stroke="midnightblue" points="347.261,-279.361 357.837,-279.991 349.962,-272.903 347.261,-279.361"/>
</g>
<!-- Node8 -->
<g id="node15" class="node"><title>Node8</title>
<a xlink:href="classCElement.html#a41bf126c3fdbb5bec0c2c3dcf35e9079" target="_top" xlink:title="CElement::getChild">
<polygon fill="white" stroke="black" points="363,-200.5 363,-221.5 471,-221.5 471,-200.5 363,-200.5"/>
<text text-anchor="middle" x="417" y="-208.5" font-family="Verdana" font-size="10.00">CElement::getChild</text>
</a>
</g>
<!-- Node5&#45;&gt;Node8 -->
<g id="edge14" class="edge"><title>Node5&#45;&gt;Node8</title>
<path fill="none" stroke="midnightblue" d="M290.558,-194.858C310.529,-197.408 332.727,-200.242 352.88,-202.814"/>
<polygon fill="midnightblue" stroke="midnightblue" points="352.536,-206.299 362.898,-204.093 353.422,-199.355 352.536,-206.299"/>
</g>
<!-- Node9 -->
<g id="node17" class="node"><title>Node9</title>
<a xlink:href="classCErrorContext.html#a9d58b281c0d0fc9a6d3b83714cf812ef" target="_top" xlink:title="CErrorContext::setError">
<polygon fill="white" stroke="black" points="353,-160.5 353,-181.5 481,-181.5 481,-160.5 353,-160.5"/>
<text text-anchor="middle" x="417" y="-168.5" font-family="Verdana" font-size="10.00">CErrorContext::setError</text>
</a>
</g>
<!-- Node5&#45;&gt;Node9 -->
<g id="edge16" class="edge"><title>Node5&#45;&gt;Node9</title>
<path fill="none" stroke="midnightblue" d="M290.558,-181.761C307.209,-180.344 325.407,-178.795 342.677,-177.325"/>
<polygon fill="midnightblue" stroke="midnightblue" points="343.053,-180.806 352.72,-176.471 342.459,-173.831 343.053,-180.806"/>
</g>
<!-- Node10 -->
<g id="node19" class="node"><title>Node10</title>
<a xlink:href="classCElement.html#a49581fb6412e29e932962acd82d52d6a" target="_top" xlink:title="CElement::getName">
<polygon fill="white" stroke="black" points="360,-120.5 360,-141.5 474,-141.5 474,-120.5 360,-120.5"/>
<text text-anchor="middle" x="417" y="-128.5" font-family="Verdana" font-size="10.00">CElement::getName</text>
</a>
</g>
<!-- Node5&#45;&gt;Node10 -->
<g id="edge18" class="edge"><title>Node5&#45;&gt;Node10</title>
<path fill="none" stroke="midnightblue" d="M278.145,-169.946C296.798,-163.69 318.292,-156.741 338,-151 346.103,-148.639 354.72,-146.293 363.171,-144.082"/>
<polygon fill="midnightblue" stroke="midnightblue" points="364.164,-147.441 372.974,-141.556 362.417,-140.662 364.164,-147.441"/>
</g>
<!-- Node11 -->
<g id="node21" class="node"><title>Node11</title>
<a xlink:href="classCElement.html#aed2ca7f2a56dbf2edcd82167859535ee" target="_top" xlink:title="CElement::getKind">
<polygon fill="white" stroke="black" points="364.5,-80.5 364.5,-101.5 469.5,-101.5 469.5,-80.5 364.5,-80.5"/>
<text text-anchor="middle" x="417" y="-88.5" font-family="Verdana" font-size="10.00">CElement::getKind</text>
</a>
</g>
<!-- Node5&#45;&gt;Node11 -->
<g id="edge20" class="edge"><title>Node5&#45;&gt;Node11</title>
<path fill="none" stroke="midnightblue" d="M248.933,-169.744C269.813,-152.512 304.215,-126.43 338,-111 343.276,-108.59 348.889,-106.439 354.595,-104.526"/>
<polygon fill="midnightblue" stroke="midnightblue" points="355.732,-107.838 364.243,-101.527 353.654,-101.153 355.732,-107.838"/>
</g>
<!-- Node12 -->
<g id="node24" class="node"><title>Node12</title>
<a xlink:href="classCElement.html#a0b4cdc10e6df8fd3740255c5faf3b596" target="_top" xlink:title="Creates a child CElement from a child XML Element. ">
<polygon fill="white" stroke="black" points="355.5,-40.5 355.5,-61.5 478.5,-61.5 478.5,-40.5 355.5,-40.5"/>
<text text-anchor="middle" x="417" y="-48.5" font-family="Verdana" font-size="10.00">CElement::createChild</text>
</a>
</g>
<!-- Node5&#45;&gt;Node12 -->
<g id="edge24" class="edge"><title>Node5&#45;&gt;Node12</title>
<path fill="none" stroke="midnightblue" d="M240.194,-169.923C257.853,-144.385 294.662,-96.5225 338,-71 341.634,-68.8596 345.494,-66.9465 349.476,-65.2368"/>
<polygon fill="midnightblue" stroke="midnightblue" points="350.861,-68.4543 358.945,-61.6053 348.354,-61.9185 350.861,-68.4543"/>
</g>
<!-- Node13 -->
<g id="node26" class="node"><title>Node13</title>
<a xlink:href="classCXmlElementSerializingContext.html#a6c36b7e23b9968c6ea898612d2a55ee9" target="_top" xlink:title="CXmlElementSerializingContext\l::getElementLibrary">
<polygon fill="white" stroke="black" points="534.5,-80 534.5,-114 701.5,-114 701.5,-80 534.5,-80"/>
<text text-anchor="start" x="542.5" y="-101" font-family="Verdana" font-size="10.00">CXmlElementSerializingContext</text>
<text text-anchor="middle" x="618" y="-88" font-family="Verdana" font-size="10.00">::getElementLibrary</text>
</a>
</g>
<!-- Node12&#45;&gt;Node13 -->
<g id="edge26" class="edge"><title>Node12&#45;&gt;Node13</title>
<path fill="none" stroke="midnightblue" d="M463.113,-61.5533C483.996,-66.3325 509.362,-72.1376 533.47,-77.6549"/>
<polygon fill="midnightblue" stroke="midnightblue" points="532.819,-81.0963 543.348,-79.9155 534.381,-74.2727 532.819,-81.0963"/>
</g>
<!-- Node14 -->
<g id="node28" class="node"><title>Node14</title>
<a xlink:href="classCElementLibrary.html#a5ad95964216e50fc59f0c803370fb4de" target="_top" xlink:title="CElementLibrary::createElement">
<polygon fill="white" stroke="black" points="532.5,-40.5 532.5,-61.5 703.5,-61.5 703.5,-40.5 532.5,-40.5"/>
<text text-anchor="middle" x="618" y="-48.5" font-family="Verdana" font-size="10.00">CElementLibrary::createElement</text>
</a>
</g>
<!-- Node12&#45;&gt;Node14 -->
<g id="edge28" class="edge"><title>Node12&#45;&gt;Node14</title>
<path fill="none" stroke="midnightblue" d="M478.673,-51C492.456,-51 507.39,-51 522.189,-51"/>
<polygon fill="midnightblue" stroke="midnightblue" points="522.396,-54.5001 532.396,-51 522.396,-47.5001 522.396,-54.5001"/>
</g>
<!-- Node15 -->
<g id="node30" class="node"><title>Node15</title>
<a xlink:href="classCElement.html#ac2ad66ee438a4a0c1390b7388874fe72" target="_top" xlink:title="CElement::addChild">
<polygon fill="white" stroke="black" points="563,-0.5 563,-21.5 673,-21.5 673,-0.5 563,-0.5"/>
<text text-anchor="middle" x="618" y="-8.5" font-family="Verdana" font-size="10.00">CElement::addChild</text>
</a>
</g>
<!-- Node12&#45;&gt;Node15 -->
<g id="edge30" class="edge"><title>Node12&#45;&gt;Node15</title>
<path fill="none" stroke="midnightblue" d="M469.81,-40.4905C496.019,-35.2748 527.861,-28.9381 555.302,-23.4773"/>
<polygon fill="midnightblue" stroke="midnightblue" points="556.069,-26.8933 565.194,-21.5087 554.703,-20.0279 556.069,-26.8933"/>
</g>
</g>
</svg>
