<?xml version="1.0" encoding="UTF-8" standalone="no"?>
<!DOCTYPE svg PUBLIC "-//W3C//DTD SVG 1.1//EN"
 "http://www.w3.org/Graphics/SVG/1.1/DTD/svg11.dtd">
<!-- Generated by graphviz version 2.26.3 (20100126.1600)
 -->
<!-- Title: CElement::isDescendantOf Pages: 1 -->
<svg width="984pt" height="146pt"
 viewBox="0.00 0.00 984.00 146.00" xmlns="http://www.w3.org/2000/svg" xmlns:xlink="http://www.w3.org/1999/xlink">
<g id="graph1" class="graph" transform="scale(1 1) rotate(0) translate(4 142)">
<title>CElement::isDescendantOf</title>
<polygon fill="white" stroke="white" points="-4,5 -4,-142 981,-142 981,5 -4,5"/>
<!-- Node1 -->
<g id="node1" class="node"><title>Node1</title>
<polygon fill="#bfbfbf" stroke="black" points="0.5,-58.5 0.5,-79.5 145.5,-79.5 145.5,-58.5 0.5,-58.5"/>
<text text-anchor="middle" x="73" y="-66.5" font-family="Verdana" font-size="10.00">CElement::isDescendantOf</text>
</g>
<!-- Node1&#45;&gt;Node1 -->
<g id="edge18" class="edge"><title>Node1&#45;&gt;Node1</title>
<path fill="none" stroke="midnightblue" d="M37.902,-88.2987C39.344,-93.7807 51.0433,-98 73,-98 105.68,-98 115.637,-88.6531 102.871,-79.7079"/>
<polygon fill="midnightblue" stroke="midnightblue" points="40.9211,-90.0702 43.1287,-79.7079 34.9409,-86.4318 40.9211,-90.0702"/>
</g>
<!-- Node2 -->
<g id="node3" class="node"><title>Node2</title>
<a xlink:href="classCAreaConfiguration.html#ae84c6459b7b261fb81026c9ebe9140f8" target="_top" xlink:title="CAreaConfiguration\l::copyToOuter">
<polygon fill="white" stroke="black" points="206,-104 206,-138 316,-138 316,-104 206,-104"/>
<text text-anchor="start" x="214" y="-125" font-family="Verdana" font-size="10.00">CAreaConfiguration</text>
<text text-anchor="middle" x="261" y="-112" font-family="Verdana" font-size="10.00">::copyToOuter</text>
</a>
</g>
<!-- Node1&#45;&gt;Node2 -->
<g id="edge2" class="edge"><title>Node1&#45;&gt;Node2</title>
<path fill="none" stroke="midnightblue" d="M121.005,-82.2781C146.906,-89.442 178.988,-98.3159 205.904,-105.761"/>
<polygon fill="midnightblue" stroke="midnightblue" points="121.616,-78.8156 111.045,-79.523 119.75,-85.5622 121.616,-78.8156"/>
</g>
<!-- Node4 -->
<g id="node7" class="node"><title>Node4</title>
<a xlink:href="classCAreaConfiguration.html#aa66ebde5e339fbea35c7a5f46403c770" target="_top" xlink:title="CAreaConfiguration\l::copyFromOuter">
<polygon fill="white" stroke="black" points="206,-52 206,-86 316,-86 316,-52 206,-52"/>
<text text-anchor="start" x="214" y="-73" font-family="Verdana" font-size="10.00">CAreaConfiguration</text>
<text text-anchor="middle" x="261" y="-60" font-family="Verdana" font-size="10.00">::copyFromOuter</text>
</a>
</g>
<!-- Node1&#45;&gt;Node4 -->
<g id="edge6" class="edge"><title>Node1&#45;&gt;Node4</title>
<path fill="none" stroke="midnightblue" d="M156.068,-69C172.873,-69 190.151,-69 205.713,-69"/>
<polygon fill="midnightblue" stroke="midnightblue" points="155.686,-65.5001 145.686,-69 155.686,-72.5001 155.686,-65.5001"/>
</g>
<!-- Node9 -->
<g id="node17" class="node"><title>Node9</title>
<a xlink:href="classCConfigurableDomain.html#a0fec7c3bd4cf280eb64db3803d226836" target="_top" xlink:title="Blackboard Configuration and Base Offset retrieval. ">
<polygon fill="white" stroke="black" points="182.5,-0 182.5,-34 339.5,-34 339.5,-0 182.5,-0"/>
<text text-anchor="start" x="190.5" y="-21" font-family="Verdana" font-size="10.00">CConfigurableDomain</text>
<text text-anchor="middle" x="261" y="-8" font-family="Verdana" font-size="10.00">::findConfigurationBlackboard</text>
</a>
</g>
<!-- Node1&#45;&gt;Node9 -->
<g id="edge16" class="edge"><title>Node1&#45;&gt;Node9</title>
<path fill="none" stroke="midnightblue" d="M120.913,-55.7473C144.752,-49.1538 173.845,-41.1068 199.328,-34.0582"/>
<polygon fill="midnightblue" stroke="midnightblue" points="119.75,-52.4378 111.045,-58.477 121.616,-59.1844 119.75,-52.4378"/>
</g>
<!-- Node3 -->
<g id="node5" class="node"><title>Node3</title>
<a xlink:href="classCDomainConfiguration.html#ade8c66e62cc6a64ad6e1066f4a57eaa2" target="_top" xlink:title="CDomainConfiguration\l::merge">
<polygon fill="white" stroke="black" points="376.5,-104 376.5,-138 501.5,-138 501.5,-104 376.5,-104"/>
<text text-anchor="start" x="384.5" y="-125" font-family="Verdana" font-size="10.00">CDomainConfiguration</text>
<text text-anchor="middle" x="439" y="-112" font-family="Verdana" font-size="10.00">::merge</text>
</a>
</g>
<!-- Node2&#45;&gt;Node3 -->
<g id="edge4" class="edge"><title>Node2&#45;&gt;Node3</title>
<path fill="none" stroke="midnightblue" d="M326.785,-121C342.95,-121 360.213,-121 376.232,-121"/>
<polygon fill="midnightblue" stroke="midnightblue" points="326.345,-117.5 316.345,-121 326.345,-124.5 326.345,-117.5"/>
</g>
<!-- Node5 -->
<g id="node9" class="node"><title>Node5</title>
<a xlink:href="classCDomainConfiguration.html#acd4e91173fa488a4b4d31be157067eae" target="_top" xlink:title="CDomainConfiguration\l::split">
<polygon fill="white" stroke="black" points="376.5,-52 376.5,-86 501.5,-86 501.5,-52 376.5,-52"/>
<text text-anchor="start" x="384.5" y="-73" font-family="Verdana" font-size="10.00">CDomainConfiguration</text>
<text text-anchor="middle" x="439" y="-60" font-family="Verdana" font-size="10.00">::split</text>
</a>
</g>
<!-- Node4&#45;&gt;Node5 -->
<g id="edge8" class="edge"><title>Node4&#45;&gt;Node5</title>
<path fill="none" stroke="midnightblue" d="M326.785,-69C342.95,-69 360.213,-69 376.232,-69"/>
<polygon fill="midnightblue" stroke="midnightblue" points="326.345,-65.5001 316.345,-69 326.345,-72.5001 326.345,-65.5001"/>
</g>
<!-- Node6 -->
<g id="node11" class="node"><title>Node6</title>
<a xlink:href="classCConfigurableDomain.html#aea88fe7f6e3f02217f5d9f0e2e820da2" target="_top" xlink:title="CConfigurableDomain\l::split">
<polygon fill="white" stroke="black" points="538.5,-52 538.5,-86 659.5,-86 659.5,-52 538.5,-52"/>
<text text-anchor="start" x="546.5" y="-73" font-family="Verdana" font-size="10.00">CConfigurableDomain</text>
<text text-anchor="middle" x="599" y="-60" font-family="Verdana" font-size="10.00">::split</text>
</a>
</g>
<!-- Node5&#45;&gt;Node6 -->
<g id="edge10" class="edge"><title>Node5&#45;&gt;Node6</title>
<path fill="none" stroke="midnightblue" d="M511.787,-69C520.72,-69 529.774,-69 538.498,-69"/>
<polygon fill="midnightblue" stroke="midnightblue" points="511.777,-65.5001 501.777,-69 511.777,-72.5001 511.777,-65.5001"/>
</g>
<!-- Node7 -->
<g id="node13" class="node"><title>Node7</title>
<a xlink:href="classCConfigurableDomains.html#ae01182802f0ce424d239ea19f9365330" target="_top" xlink:title="CConfigurableDomains\l::split">
<polygon fill="white" stroke="black" points="696,-52 696,-86 822,-86 822,-52 696,-52"/>
<text text-anchor="start" x="704" y="-73" font-family="Verdana" font-size="10.00">CConfigurableDomains</text>
<text text-anchor="middle" x="759" y="-60" font-family="Verdana" font-size="10.00">::split</text>
</a>
</g>
<!-- Node6&#45;&gt;Node7 -->
<g id="edge12" class="edge"><title>Node6&#45;&gt;Node7</title>
<path fill="none" stroke="midnightblue" d="M669.97,-69C678.585,-69 687.341,-69 695.833,-69"/>
<polygon fill="midnightblue" stroke="midnightblue" points="669.946,-65.5001 659.946,-69 669.946,-72.5001 669.946,-65.5001"/>
</g>
<!-- Node8 -->
<g id="node15" class="node"><title>Node8</title>
<a xlink:href="classCParameterMgr.html#a042735242f31241743085d2d9d7edcc5" target="_top" xlink:title="CParameterMgr::split">
<polygon fill="white" stroke="black" points="858.5,-58.5 858.5,-79.5 975.5,-79.5 975.5,-58.5 858.5,-58.5"/>
<text text-anchor="middle" x="917" y="-66.5" font-family="Verdana" font-size="10.00">CParameterMgr::split</text>
</a>
</g>
<!-- Node7&#45;&gt;Node8 -->
<g id="edge14" class="edge"><title>Node7&#45;&gt;Node8</title>
<path fill="none" stroke="midnightblue" d="M832.515,-69C841.228,-69 850.03,-69 858.495,-69"/>
<polygon fill="midnightblue" stroke="midnightblue" points="832.354,-65.5001 822.354,-69 832.354,-72.5001 832.354,-65.5001"/>
</g>
</g>
</svg>
