<?xml version="1.0" encoding="UTF-8" standalone="no"?>
<!DOCTYPE svg PUBLIC "-//W3C//DTD SVG 1.1//EN"
 "http://www.w3.org/Graphics/SVG/1.1/DTD/svg11.dtd">
<!-- Generated by graphviz version 2.26.3 (20100126.1600)
 -->
<!-- Title: CSelectionCriteriaDefinition::listSelectionCriteria Pages: 1 -->
<svg width="668pt" height="226pt"
 viewBox="0.00 0.00 668.00 226.00" xmlns="http://www.w3.org/2000/svg" xmlns:xlink="http://www.w3.org/1999/xlink">
<g id="graph1" class="graph" transform="scale(1 1) rotate(0) translate(4 222)">
<title>CSelectionCriteriaDefinition::listSelectionCriteria</title>
<polygon fill="white" stroke="white" points="-4,5 -4,-222 665,-222 665,5 -4,5"/>
<!-- Node1 -->
<g id="node1" class="node"><title>Node1</title>
<polygon fill="#bfbfbf" stroke="black" points="0.5,-150 0.5,-184 147.5,-184 147.5,-150 0.5,-150"/>
<text text-anchor="start" x="8.5" y="-171" font-family="Verdana" font-size="10.00">CSelectionCriteriaDefinition</text>
<text text-anchor="middle" x="74" y="-158" font-family="Verdana" font-size="10.00">::listSelectionCriteria</text>
</g>
<!-- Node2 -->
<g id="node3" class="node"><title>Node2</title>
<a xlink:href="classCElement.html#a25f58d9d8b35e770806d669fb2a378e4" target="_top" xlink:title="CElement::getNbChildren">
<polygon fill="white" stroke="black" points="187.5,-196.5 187.5,-217.5 324.5,-217.5 324.5,-196.5 187.5,-196.5"/>
<text text-anchor="middle" x="256" y="-204.5" font-family="Verdana" font-size="10.00">CElement::getNbChildren</text>
</a>
</g>
<!-- Node1&#45;&gt;Node2 -->
<g id="edge2" class="edge"><title>Node1&#45;&gt;Node2</title>
<path fill="none" stroke="midnightblue" d="M147.502,-183.154C164.413,-186.871 182.163,-190.772 198.294,-194.317"/>
<polygon fill="midnightblue" stroke="midnightblue" points="197.588,-197.746 208.106,-196.474 199.091,-190.909 197.588,-197.746"/>
</g>
<!-- Node3 -->
<g id="node5" class="node"><title>Node3</title>
<a xlink:href="classCElement.html#a41bf126c3fdbb5bec0c2c3dcf35e9079" target="_top" xlink:title="CElement::getChild">
<polygon fill="white" stroke="black" points="202,-156.5 202,-177.5 310,-177.5 310,-156.5 202,-156.5"/>
<text text-anchor="middle" x="256" y="-164.5" font-family="Verdana" font-size="10.00">CElement::getChild</text>
</a>
</g>
<!-- Node1&#45;&gt;Node3 -->
<g id="edge4" class="edge"><title>Node1&#45;&gt;Node3</title>
<path fill="none" stroke="midnightblue" d="M147.502,-167C162.109,-167 177.341,-167 191.616,-167"/>
<polygon fill="midnightblue" stroke="midnightblue" points="191.818,-170.5 201.818,-167 191.818,-163.5 191.818,-170.5"/>
</g>
<!-- Node4 -->
<g id="node7" class="node"><title>Node4</title>
<a xlink:href="classCSelectionCriterion.html#a10a460a1ee7b1a38b34ab8eb90ea74f9" target="_top" xlink:title="User request. ">
<polygon fill="white" stroke="black" points="184.5,-104 184.5,-138 327.5,-138 327.5,-104 184.5,-104"/>
<text text-anchor="start" x="192.5" y="-125" font-family="Verdana" font-size="10.00">CSelectionCriterion</text>
<text text-anchor="middle" x="256" y="-112" font-family="Verdana" font-size="10.00">::getFormattedDescription</text>
</a>
</g>
<!-- Node1&#45;&gt;Node4 -->
<g id="edge6" class="edge"><title>Node1&#45;&gt;Node4</title>
<path fill="none" stroke="midnightblue" d="M141.511,-149.937C153.645,-146.87 166.376,-143.652 178.759,-140.522"/>
<polygon fill="midnightblue" stroke="midnightblue" points="179.76,-143.88 188.598,-138.036 178.045,-137.093 179.76,-143.88"/>
</g>
<!-- Node5 -->
<g id="node9" class="node"><title>Node5</title>
<a xlink:href="classCElement.html#a834a32898950ca2ce9b629aa3367101e" target="_top" xlink:title="CElement::appendTitle">
<polygon fill="white" stroke="black" points="366.5,-196.5 366.5,-217.5 491.5,-217.5 491.5,-196.5 366.5,-196.5"/>
<text text-anchor="middle" x="429" y="-204.5" font-family="Verdana" font-size="10.00">CElement::appendTitle</text>
</a>
</g>
<!-- Node4&#45;&gt;Node5 -->
<g id="edge8" class="edge"><title>Node4&#45;&gt;Node5</title>
<path fill="none" stroke="midnightblue" d="M311.995,-138.068C317.596,-140.693 323.038,-143.661 328,-147 347.844,-160.352 343.841,-174.129 364,-187 367.172,-189.025 370.562,-190.856 374.066,-192.51"/>
<polygon fill="midnightblue" stroke="midnightblue" points="372.963,-195.843 383.538,-196.485 375.671,-189.388 372.963,-195.843"/>
</g>
<!-- Node6 -->
<g id="node11" class="node"><title>Node6</title>
<a xlink:href="classCElement.html#a49581fb6412e29e932962acd82d52d6a" target="_top" xlink:title="CElement::getName">
<polygon fill="white" stroke="black" points="372,-156.5 372,-177.5 486,-177.5 486,-156.5 372,-156.5"/>
<text text-anchor="middle" x="429" y="-164.5" font-family="Verdana" font-size="10.00">CElement::getName</text>
</a>
</g>
<!-- Node4&#45;&gt;Node6 -->
<g id="edge10" class="edge"><title>Node4&#45;&gt;Node6</title>
<path fill="none" stroke="midnightblue" d="M320.419,-138.129C339.953,-143.323 361.098,-148.945 379.493,-153.836"/>
<polygon fill="midnightblue" stroke="midnightblue" points="378.838,-157.284 389.402,-156.471 380.637,-150.519 378.838,-157.284"/>
</g>
<!-- Node7 -->
<g id="node13" class="node"><title>Node7</title>
<a xlink:href="classCSelectionCriterionType.html#ae88c284c1f002d7237f25e9c21dcf44f" target="_top" xlink:title="CSelectionCriterionType\l::isTypeInclusive">
<polygon fill="white" stroke="black" points="364.5,-104 364.5,-138 493.5,-138 493.5,-104 364.5,-104"/>
<text text-anchor="start" x="372.5" y="-125" font-family="Verdana" font-size="10.00">CSelectionCriterionType</text>
<text text-anchor="middle" x="429" y="-112" font-family="Verdana" font-size="10.00">::isTypeInclusive</text>
</a>
</g>
<!-- Node4&#45;&gt;Node7 -->
<g id="edge12" class="edge"><title>Node4&#45;&gt;Node7</title>
<path fill="none" stroke="midnightblue" d="M327.615,-121C336.367,-121 345.329,-121 354.127,-121"/>
<polygon fill="midnightblue" stroke="midnightblue" points="354.359,-124.5 364.359,-121 354.359,-117.5 354.359,-124.5"/>
</g>
<!-- Node8 -->
<g id="node15" class="node"><title>Node8</title>
<a xlink:href="classCSelectionCriterionType.html#a31f9a40404c9564b2c54658a679db628" target="_top" xlink:title="CSelectionCriterionType\l::listPossibleValues">
<polygon fill="white" stroke="black" points="364.5,-52 364.5,-86 493.5,-86 493.5,-52 364.5,-52"/>
<text text-anchor="start" x="372.5" y="-73" font-family="Verdana" font-size="10.00">CSelectionCriterionType</text>
<text text-anchor="middle" x="429" y="-60" font-family="Verdana" font-size="10.00">::listPossibleValues</text>
</a>
</g>
<!-- Node4&#45;&gt;Node8 -->
<g id="edge14" class="edge"><title>Node4&#45;&gt;Node8</title>
<path fill="none" stroke="midnightblue" d="M312.647,-103.973C328.478,-99.2146 345.831,-93.9989 362.19,-89.0815"/>
<polygon fill="midnightblue" stroke="midnightblue" points="363.657,-92.2955 372.226,-86.065 361.642,-85.5918 363.657,-92.2955"/>
</g>
<!-- Node9 -->
<g id="node17" class="node"><title>Node9</title>
<a xlink:href="classCSelectionCriterionType.html#acf1d7bbd1dc0b21897cdf7cf3d362bb3" target="_top" xlink:title="CSelectionCriterionType\l::getFormattedState">
<polygon fill="white" stroke="black" points="364.5,-0 364.5,-34 493.5,-34 493.5,-0 364.5,-0"/>
<text text-anchor="start" x="372.5" y="-21" font-family="Verdana" font-size="10.00">CSelectionCriterionType</text>
<text text-anchor="middle" x="429" y="-8" font-family="Verdana" font-size="10.00">::getFormattedState</text>
</a>
</g>
<!-- Node4&#45;&gt;Node9 -->
<g id="edge16" class="edge"><title>Node4&#45;&gt;Node9</title>
<path fill="none" stroke="midnightblue" d="M276.494,-103.846C297.496,-86.8479 331.577,-60.8388 364,-43 366.875,-41.4181 369.867,-39.8807 372.919,-38.3959"/>
<polygon fill="midnightblue" stroke="midnightblue" points="374.588,-41.4802 382.197,-34.108 371.651,-35.126 374.588,-41.4802"/>
</g>
<!-- Node10 -->
<g id="node19" class="node"><title>Node10</title>
<a xlink:href="classCSelectionCriterionType.html#ae526e3679a02dd85be47abe8a548f1ee" target="_top" xlink:title="CSelectionCriterionType\l::getLiteralValue">
<polygon fill="white" stroke="black" points="530.5,-0 530.5,-34 659.5,-34 659.5,-0 530.5,-0"/>
<text text-anchor="start" x="538.5" y="-21" font-family="Verdana" font-size="10.00">CSelectionCriterionType</text>
<text text-anchor="middle" x="595" y="-8" font-family="Verdana" font-size="10.00">::getLiteralValue</text>
</a>
</g>
<!-- Node9&#45;&gt;Node10 -->
<g id="edge18" class="edge"><title>Node9&#45;&gt;Node10</title>
<path fill="none" stroke="midnightblue" d="M493.655,-17C502.292,-17 511.208,-17 520.003,-17"/>
<polygon fill="midnightblue" stroke="midnightblue" points="520.248,-20.5001 530.248,-17 520.248,-13.5001 520.248,-20.5001"/>
</g>
</g>
</svg>
