<?xml version="1.0" encoding="UTF-8" standalone="no"?>
<!DOCTYPE svg PUBLIC "-//W3C//DTD SVG 1.1//EN"
 "http://www.w3.org/Graphics/SVG/1.1/DTD/svg11.dtd">
<!-- Generated by graphviz version 2.26.3 (20100126.1600)
 -->
<!-- Title: CConfigurableElementAggregator::aggegate Pages: 1 -->
<svg width="346pt" height="94pt"
 viewBox="0.00 0.00 346.00 94.00" xmlns="http://www.w3.org/2000/svg" xmlns:xlink="http://www.w3.org/1999/xlink">
<g id="graph1" class="graph" transform="scale(1 1) rotate(0) translate(4 90)">
<title>CConfigurableElementAggregator::aggegate</title>
<polygon fill="white" stroke="white" points="-4,5 -4,-90 343,-90 343,5 -4,5"/>
<!-- Node1 -->
<g id="node1" class="node"><title>Node1</title>
<polygon fill="#bfbfbf" stroke="black" points="0.5,-26 0.5,-60 177.5,-60 177.5,-26 0.5,-26"/>
<text text-anchor="start" x="8.5" y="-47" font-family="Verdana" font-size="10.00">CConfigurableElementAggregator</text>
<text text-anchor="middle" x="89" y="-34" font-family="Verdana" font-size="10.00">::aggegate</text>
</g>
<!-- Node2 -->
<g id="node3" class="node"><title>Node2</title>
<a xlink:href="classCBackSynchronizer.html#a8f1d4835d14d4c2a89a093c72ed140b7" target="_top" xlink:title="CBackSynchronizer::\lCBackSynchronizer">
<polygon fill="white" stroke="black" points="218.5,-52 218.5,-86 333.5,-86 333.5,-52 218.5,-52"/>
<text text-anchor="start" x="226.5" y="-73" font-family="Verdana" font-size="10.00">CBackSynchronizer::</text>
<text text-anchor="middle" x="276" y="-60" font-family="Verdana" font-size="10.00">CBackSynchronizer</text>
</a>
</g>
<!-- Node1&#45;&gt;Node2 -->
<g id="edge2" class="edge"><title>Node1&#45;&gt;Node2</title>
<path fill="none" stroke="midnightblue" d="M187.662,-56.7177C198.177,-58.1797 208.605,-59.6295 218.411,-60.9929"/>
<polygon fill="midnightblue" stroke="midnightblue" points="187.958,-53.2253 177.571,-55.3147 186.994,-60.1586 187.958,-53.2253"/>
</g>
<!-- Node3 -->
<g id="node5" class="node"><title>Node3</title>
<a xlink:href="classCConfigurableElement.html#a1b28dbdb4a01edd94c1ae8b5e42d76b2" target="_top" xlink:title="CConfigurableElement\l::listRogueElements">
<polygon fill="white" stroke="black" points="214.5,-0 214.5,-34 337.5,-34 337.5,-0 214.5,-0"/>
<text text-anchor="start" x="222.5" y="-21" font-family="Verdana" font-size="10.00">CConfigurableElement</text>
<text text-anchor="middle" x="276" y="-8" font-family="Verdana" font-size="10.00">::listRogueElements</text>
</a>
</g>
<!-- Node1&#45;&gt;Node3 -->
<g id="edge4" class="edge"><title>Node1&#45;&gt;Node3</title>
<path fill="none" stroke="midnightblue" d="M187.509,-29.3035C196.66,-28.0312 205.747,-26.7678 214.417,-25.5623"/>
<polygon fill="midnightblue" stroke="midnightblue" points="186.994,-25.8414 177.571,-30.6853 187.958,-32.7747 186.994,-25.8414"/>
</g>
</g>
</svg>
