<?xml version="1.0" encoding="UTF-8" standalone="no"?>
<!DOCTYPE svg PUBLIC "-//W3C//DTD SVG 1.1//EN"
 "http://www.w3.org/Graphics/SVG/1.1/DTD/svg11.dtd">
<!-- Generated by graphviz version 2.26.3 (20100126.1600)
 -->
<!-- Title: CFixedPointParameterType::getKind Pages: 1 -->
<svg width="332pt" height="94pt"
 viewBox="0.00 0.00 332.00 94.00" xmlns="http://www.w3.org/2000/svg" xmlns:xlink="http://www.w3.org/1999/xlink">
<g id="graph1" class="graph" transform="scale(1 1) rotate(0) translate(4 90)">
<title>CFixedPointParameterType::getKind</title>
<polygon fill="white" stroke="white" points="-4,5 -4,-90 329,-90 329,5 -4,5"/>
<!-- Node1 -->
<g id="node1" class="node"><title>Node1</title>
<polygon fill="#bfbfbf" stroke="black" points="0.5,-26 0.5,-60 143.5,-60 143.5,-26 0.5,-26"/>
<text text-anchor="start" x="8.5" y="-47" font-family="Verdana" font-size="10.00">CFixedPointParameterType</text>
<text text-anchor="middle" x="72" y="-34" font-family="Verdana" font-size="10.00">::getKind</text>
</g>
<!-- Node2 -->
<g id="node3" class="node"><title>Node2</title>
<a xlink:href="classCFixedPointParameterType.html#a58d031a099f032135417110023dad31e" target="_top" xlink:title="CFixedPointParameterType\l::fromXml">
<polygon fill="white" stroke="black" points="180.5,-52 180.5,-86 323.5,-86 323.5,-52 180.5,-52"/>
<text text-anchor="start" x="188.5" y="-73" font-family="Verdana" font-size="10.00">CFixedPointParameterType</text>
<text text-anchor="middle" x="252" y="-60" font-family="Verdana" font-size="10.00">::fromXml</text>
</a>
</g>
<!-- Node1&#45;&gt;Node2 -->
<g id="edge2" class="edge"><title>Node1&#45;&gt;Node2</title>
<path fill="none" stroke="midnightblue" d="M153.634,-54.7916C162.528,-56.0763 171.532,-57.3769 180.295,-58.6425"/>
<polygon fill="midnightblue" stroke="midnightblue" points="154.056,-51.3162 143.658,-53.3506 153.055,-58.2443 154.056,-51.3162"/>
</g>
<!-- Node3 -->
<g id="node5" class="node"><title>Node3</title>
<a xlink:href="classCFixedPointParameterType.html#a8082571fa9099a8eb25820ce259b2d1d" target="_top" xlink:title="Conversion. ">
<polygon fill="white" stroke="black" points="180.5,-0 180.5,-34 323.5,-34 323.5,-0 180.5,-0"/>
<text text-anchor="start" x="188.5" y="-21" font-family="Verdana" font-size="10.00">CFixedPointParameterType</text>
<text text-anchor="middle" x="252" y="-8" font-family="Verdana" font-size="10.00">::toBlackboard</text>
</a>
</g>
<!-- Node1&#45;&gt;Node3 -->
<g id="edge4" class="edge"><title>Node1&#45;&gt;Node3</title>
<path fill="none" stroke="midnightblue" d="M153.634,-31.2084C162.528,-29.9237 171.532,-28.6231 180.295,-27.3575"/>
<polygon fill="midnightblue" stroke="midnightblue" points="153.055,-27.7557 143.658,-32.6494 154.056,-34.6838 153.055,-27.7557"/>
</g>
</g>
</svg>
