<?xml version="1.0" encoding="UTF-8" standalone="no"?>
<!DOCTYPE svg PUBLIC "-//W3C//DTD SVG 1.1//EN"
 "http://www.w3.org/Graphics/SVG/1.1/DTD/svg11.dtd">
<!-- Generated by graphviz version 2.26.3 (20100126.1600)
 -->
<!-- Title: CConfigurableElement::fillSyncerSetFromDescendant Pages: 1 -->
<svg width="346pt" height="74pt"
 viewBox="0.00 0.00 346.00 74.00" xmlns="http://www.w3.org/2000/svg" xmlns:xlink="http://www.w3.org/1999/xlink">
<g id="graph1" class="graph" transform="scale(1 1) rotate(0) translate(4 70)">
<title>CConfigurableElement::fillSyncerSetFromDescendant</title>
<polygon fill="white" stroke="white" points="-4,5 -4,-70 343,-70 343,5 -4,5"/>
<!-- Node1 -->
<g id="node1" class="node"><title>Node1</title>
<polygon fill="#bfbfbf" stroke="black" points="0,-14 0,-48 164,-48 164,-14 0,-14"/>
<text text-anchor="start" x="8" y="-35" font-family="Verdana" font-size="10.00">CConfigurableElement</text>
<text text-anchor="middle" x="82" y="-22" font-family="Verdana" font-size="10.00">::fillSyncerSetFromDescendant</text>
</g>
<!-- Node1&#45;&gt;Node1 -->
<g id="edge6" class="edge"><title>Node1&#45;&gt;Node1</title>
<path fill="none" stroke="midnightblue" d="M48.5639,-48.2878C42.882,-57.5562 54.0273,-66 82,-66 99.0458,-66 109.843,-62.8645 114.392,-58.3176"/>
<polygon fill="midnightblue" stroke="midnightblue" points="117.881,-58.5965 115.436,-48.2878 110.919,-57.8715 117.881,-58.5965"/>
</g>
<!-- Node2 -->
<g id="node3" class="node"><title>Node2</title>
<a xlink:href="classCElement.html#a25f58d9d8b35e770806d669fb2a378e4" target="_top" xlink:title="CElement::getNbChildren">
<polygon fill="white" stroke="black" points="200.5,-40.5 200.5,-61.5 337.5,-61.5 337.5,-40.5 200.5,-40.5"/>
<text text-anchor="middle" x="269" y="-48.5" font-family="Verdana" font-size="10.00">CElement::getNbChildren</text>
</a>
</g>
<!-- Node1&#45;&gt;Node2 -->
<g id="edge2" class="edge"><title>Node1&#45;&gt;Node2</title>
<path fill="none" stroke="midnightblue" d="M164.021,-39.7723C172.767,-40.7077 181.649,-41.6577 190.355,-42.5888"/>
<polygon fill="midnightblue" stroke="midnightblue" points="190.16,-46.0878 200.476,-43.6712 190.904,-39.1275 190.16,-46.0878"/>
</g>
<!-- Node3 -->
<g id="node5" class="node"><title>Node3</title>
<a xlink:href="classCElement.html#a41bf126c3fdbb5bec0c2c3dcf35e9079" target="_top" xlink:title="CElement::getChild">
<polygon fill="white" stroke="black" points="215,-0.5 215,-21.5 323,-21.5 323,-0.5 215,-0.5"/>
<text text-anchor="middle" x="269" y="-8.5" font-family="Verdana" font-size="10.00">CElement::getChild</text>
</a>
</g>
<!-- Node1&#45;&gt;Node3 -->
<g id="edge4" class="edge"><title>Node1&#45;&gt;Node3</title>
<path fill="none" stroke="midnightblue" d="M164.021,-22.2277C177.572,-20.7784 191.449,-19.2942 204.492,-17.8993"/>
<polygon fill="midnightblue" stroke="midnightblue" points="205.179,-21.3458 214.75,-16.8021 204.434,-14.3855 205.179,-21.3458"/>
</g>
</g>
</svg>
