<?xml version="1.0" encoding="UTF-8" standalone="no"?>
<!DOCTYPE svg PUBLIC "-//W3C//DTD SVG 1.1//EN"
 "http://www.w3.org/Graphics/SVG/1.1/DTD/svg11.dtd">
<!-- Generated by graphviz version 2.26.3 (20100126.1600)
 -->
<!-- Title: CSocket::write Pages: 1 -->
<svg width="500pt" height="30pt"
 viewBox="0.00 0.00 500.00 30.00" xmlns="http://www.w3.org/2000/svg" xmlns:xlink="http://www.w3.org/1999/xlink">
<g id="graph1" class="graph" transform="scale(1 1) rotate(0) translate(4 26)">
<title>CSocket::write</title>
<polygon fill="white" stroke="white" points="-4,5 -4,-26 497,-26 497,5 -4,5"/>
<!-- Node1 -->
<g id="node1" class="node"><title>Node1</title>
<polygon fill="#bfbfbf" stroke="black" points="0.5,-0.5 0.5,-21.5 85.5,-21.5 85.5,-0.5 0.5,-0.5"/>
<text text-anchor="middle" x="43" y="-8.5" font-family="Verdana" font-size="10.00">CSocket::write</text>
</g>
<!-- Node2 -->
<g id="node3" class="node"><title>Node2</title>
<a xlink:href="classCMessage.html#a934d70aff67a456a92124664d6e78e84" target="_top" xlink:title="Write or read the message on pSocket. ">
<polygon fill="white" stroke="black" points="122.5,-0.5 122.5,-21.5 233.5,-21.5 233.5,-0.5 122.5,-0.5"/>
<text text-anchor="middle" x="178" y="-8.5" font-family="Verdana" font-size="10.00">CMessage::serialize</text>
</a>
</g>
<!-- Node1&#45;&gt;Node2 -->
<g id="edge2" class="edge"><title>Node1&#45;&gt;Node2</title>
<path fill="none" stroke="midnightblue" d="M95.7231,-11C104.415,-11 113.45,-11 122.213,-11"/>
<polygon fill="midnightblue" stroke="midnightblue" points="95.7149,-7.5001 85.7148,-11 95.7148,-14.5001 95.7149,-7.5001"/>
</g>
<!-- Node3 -->
<g id="node5" class="node"><title>Node3</title>
<a xlink:href="main_8cpp.html#af14c089a76390ab8b7424bb69fad6352" target="_top" xlink:title="sendAndDisplayCommand">
<polygon fill="white" stroke="black" points="270.5,-0.5 270.5,-21.5 413.5,-21.5 413.5,-0.5 270.5,-0.5"/>
<text text-anchor="middle" x="342" y="-8.5" font-family="Verdana" font-size="10.00">sendAndDisplayCommand</text>
</a>
</g>
<!-- Node2&#45;&gt;Node3 -->
<g id="edge4" class="edge"><title>Node2&#45;&gt;Node3</title>
<path fill="none" stroke="midnightblue" d="M243.65,-11C252.399,-11 261.407,-11 270.254,-11"/>
<polygon fill="midnightblue" stroke="midnightblue" points="243.523,-7.5001 233.523,-11 243.523,-14.5001 243.523,-7.5001"/>
</g>
<!-- Node4 -->
<g id="node7" class="node"><title>Node4</title>
<a xlink:href="main_8cpp.html#a0ddf1224851353fc92bfbff6f499fa97" target="_top" xlink:title="main">
<polygon fill="white" stroke="black" points="450.5,-0.5 450.5,-21.5 491.5,-21.5 491.5,-0.5 450.5,-0.5"/>
<text text-anchor="middle" x="471" y="-8.5" font-family="Verdana" font-size="10.00">main</text>
</a>
</g>
<!-- Node3&#45;&gt;Node4 -->
<g id="edge6" class="edge"><title>Node3&#45;&gt;Node4</title>
<path fill="none" stroke="midnightblue" d="M423.949,-11C433.656,-11 442.792,-11 450.386,-11"/>
<polygon fill="midnightblue" stroke="midnightblue" points="423.668,-7.5001 413.667,-11 423.667,-14.5001 423.668,-7.5001"/>
</g>
</g>
</svg>
