<?xml version="1.0" encoding="UTF-8" standalone="no"?>
<!DOCTYPE svg PUBLIC "-//W3C//DTD SVG 1.1//EN"
 "http://www.w3.org/Graphics/SVG/1.1/DTD/svg11.dtd">
<!-- Generated by graphviz version 2.26.3 (20100126.1600)
 -->
<!-- Title: CParameter Pages: 1 -->
<svg width="172pt" height="450pt"
 viewBox="0.00 0.00 172.00 450.00" xmlns="http://www.w3.org/2000/svg" xmlns:xlink="http://www.w3.org/1999/xlink">
<g id="graph1" class="graph" transform="scale(1 1) rotate(0) translate(4 446)">
<title>CParameter</title>
<polygon fill="white" stroke="white" points="-4,5 -4,-446 169,-446 169,5 -4,5"/>
<!-- Node1 -->
<g id="node1" class="node"><title>Node1</title>
<polygon fill="#bfbfbf" stroke="black" points="45,-58.5 45,-79.5 119,-79.5 119,-58.5 45,-58.5"/>
<text text-anchor="middle" x="82" y="-66.5" font-family="Verdana" font-size="10.00">CParameter</text>
</g>
<!-- Node9 -->
<g id="node17" class="node"><title>Node9</title>
<a xlink:href="classCArrayParameter.html" target="_top" xlink:title="CArrayParameter">
<polygon fill="white" stroke="black" points="32.5,-0.5 32.5,-21.5 131.5,-21.5 131.5,-0.5 32.5,-0.5"/>
<text text-anchor="middle" x="82" y="-8.5" font-family="Verdana" font-size="10.00">CArrayParameter</text>
</a>
</g>
<!-- Node1&#45;&gt;Node9 -->
<g id="edge16" class="edge"><title>Node1&#45;&gt;Node9</title>
<path fill="none" stroke="midnightblue" d="M82,-48.1906C82,-39.1684 82,-28.9941 82,-21.5707"/>
<polygon fill="midnightblue" stroke="midnightblue" points="78.5001,-48.3619 82,-58.3619 85.5001,-48.3619 78.5001,-48.3619"/>
</g>
<!-- Node2 -->
<g id="node2" class="node"><title>Node2</title>
<a xlink:href="classCBaseParameter.html" target="_top" xlink:title="CBaseParameter">
<polygon fill="white" stroke="black" points="33,-116.5 33,-137.5 131,-137.5 131,-116.5 33,-116.5"/>
<text text-anchor="middle" x="82" y="-124.5" font-family="Verdana" font-size="10.00">CBaseParameter</text>
</a>
</g>
<!-- Node2&#45;&gt;Node1 -->
<g id="edge2" class="edge"><title>Node2&#45;&gt;Node1</title>
<path fill="none" stroke="midnightblue" d="M82,-106.191C82,-97.1684 82,-86.9941 82,-79.5707"/>
<polygon fill="midnightblue" stroke="midnightblue" points="78.5001,-106.362 82,-116.362 85.5001,-106.362 78.5001,-106.362"/>
</g>
<!-- Node3 -->
<g id="node4" class="node"><title>Node3</title>
<a xlink:href="classCInstanceConfigurableElement.html" target="_top" xlink:title="CInstanceConfigurableElement">
<polygon fill="white" stroke="black" points="0,-174.5 0,-195.5 164,-195.5 164,-174.5 0,-174.5"/>
<text text-anchor="middle" x="82" y="-182.5" font-family="Verdana" font-size="10.00">CInstanceConfigurableElement</text>
</a>
</g>
<!-- Node3&#45;&gt;Node2 -->
<g id="edge4" class="edge"><title>Node3&#45;&gt;Node2</title>
<path fill="none" stroke="midnightblue" d="M82,-164.191C82,-155.168 82,-144.994 82,-137.571"/>
<polygon fill="midnightblue" stroke="midnightblue" points="78.5001,-164.362 82,-174.362 85.5001,-164.362 78.5001,-164.362"/>
</g>
<!-- Node4 -->
<g id="node6" class="node"><title>Node4</title>
<a xlink:href="classCConfigurableElementWithMapping.html" target="_top" xlink:title="Base class for all Configurable Elements that can have a Mapping attribute. ">
<polygon fill="white" stroke="black" points="10.5,-233 10.5,-267 153.5,-267 153.5,-233 10.5,-233"/>
<text text-anchor="start" x="18.5" y="-254" font-family="Verdana" font-size="10.00">CConfigurableElementWith</text>
<text text-anchor="middle" x="82" y="-241" font-family="Verdana" font-size="10.00">Mapping</text>
</a>
</g>
<!-- Node4&#45;&gt;Node3 -->
<g id="edge6" class="edge"><title>Node4&#45;&gt;Node3</title>
<path fill="none" stroke="midnightblue" d="M82,-222.688C82,-213.242 82,-203.195 82,-195.852"/>
<polygon fill="midnightblue" stroke="midnightblue" points="78.5001,-222.922 82,-232.922 85.5001,-222.922 78.5001,-222.922"/>
</g>
<!-- Node5 -->
<g id="node8" class="node"><title>Node5</title>
<a xlink:href="classCConfigurableElement.html" target="_top" xlink:title="CConfigurableElement">
<polygon fill="white" stroke="black" points="20.5,-304.5 20.5,-325.5 143.5,-325.5 143.5,-304.5 20.5,-304.5"/>
<text text-anchor="middle" x="82" y="-312.5" font-family="Verdana" font-size="10.00">CConfigurableElement</text>
</a>
</g>
<!-- Node5&#45;&gt;Node4 -->
<g id="edge8" class="edge"><title>Node5&#45;&gt;Node4</title>
<path fill="none" stroke="midnightblue" d="M82,-294.131C82,-285.405 82,-275.391 82,-267.11"/>
<polygon fill="midnightblue" stroke="midnightblue" points="78.5001,-294.267 82,-304.267 85.5001,-294.267 78.5001,-294.267"/>
</g>
<!-- Node6 -->
<g id="node10" class="node"><title>Node6</title>
<a xlink:href="classCElement.html" target="_top" xlink:title="CElement">
<polygon fill="white" stroke="black" points="50.5,-362.5 50.5,-383.5 113.5,-383.5 113.5,-362.5 50.5,-362.5"/>
<text text-anchor="middle" x="82" y="-370.5" font-family="Verdana" font-size="10.00">CElement</text>
</a>
</g>
<!-- Node6&#45;&gt;Node5 -->
<g id="edge10" class="edge"><title>Node6&#45;&gt;Node5</title>
<path fill="none" stroke="midnightblue" d="M82,-352.191C82,-343.168 82,-332.994 82,-325.571"/>
<polygon fill="midnightblue" stroke="midnightblue" points="78.5001,-352.362 82,-362.362 85.5001,-352.362 78.5001,-352.362"/>
</g>
<!-- Node7 -->
<g id="node12" class="node"><title>Node7</title>
<polygon fill="white" stroke="#bfbfbf" points="13.5,-420.5 13.5,-441.5 70.5,-441.5 70.5,-420.5 13.5,-420.5"/>
<text text-anchor="middle" x="42" y="-428.5" font-family="Verdana" font-size="10.00">IXmlSink</text>
</g>
<!-- Node7&#45;&gt;Node6 -->
<g id="edge12" class="edge"><title>Node7&#45;&gt;Node6</title>
<path fill="none" stroke="midnightblue" d="M55.1317,-411.959C61.64,-402.522 69.2528,-391.484 74.7099,-383.571"/>
<polygon fill="midnightblue" stroke="midnightblue" points="52.1327,-410.143 49.3366,-420.362 57.8952,-414.117 52.1327,-410.143"/>
</g>
<!-- Node8 -->
<g id="node14" class="node"><title>Node8</title>
<polygon fill="white" stroke="#bfbfbf" points="87.5,-420.5 87.5,-441.5 158.5,-441.5 158.5,-420.5 87.5,-420.5"/>
<text text-anchor="middle" x="123" y="-428.5" font-family="Verdana" font-size="10.00">IXmlSource</text>
</g>
<!-- Node8&#45;&gt;Node6 -->
<g id="edge14" class="edge"><title>Node8&#45;&gt;Node6</title>
<path fill="none" stroke="midnightblue" d="M109.54,-411.959C102.869,-402.522 95.0659,-391.484 89.4724,-383.571"/>
<polygon fill="midnightblue" stroke="midnightblue" points="106.85,-414.216 115.48,-420.362 112.566,-410.176 106.85,-414.216"/>
</g>
</g>
</svg>
