<?xml version="1.0" encoding="UTF-8" standalone="no"?>
<!DOCTYPE svg PUBLIC "-//W3C//DTD SVG 1.1//EN"
 "http://www.w3.org/Graphics/SVG/1.1/DTD/svg11.dtd">
<!-- Generated by graphviz version 2.26.3 (20100126.1600)
 -->
<!-- Title: CAreaConfiguration::CAreaConfiguration Pages: 1 -->
<svg width="288pt" height="42pt"
 viewBox="0.00 0.00 288.00 42.00" xmlns="http://www.w3.org/2000/svg" xmlns:xlink="http://www.w3.org/1999/xlink">
<g id="graph1" class="graph" transform="scale(1 1) rotate(0) translate(4 38)">
<title>CAreaConfiguration::CAreaConfiguration</title>
<polygon fill="white" stroke="white" points="-4,5 -4,-38 285,-38 285,5 -4,5"/>
<!-- Node1 -->
<g id="node1" class="node"><title>Node1</title>
<polygon fill="#bfbfbf" stroke="black" points="0,-0 0,-34 116,-34 116,-0 0,-0"/>
<text text-anchor="start" x="8" y="-21" font-family="Verdana" font-size="10.00">CAreaConfiguration</text>
<text text-anchor="middle" x="58" y="-8" font-family="Verdana" font-size="10.00">::CAreaConfiguration</text>
</g>
<!-- Node2 -->
<g id="node3" class="node"><title>Node2</title>
<a xlink:href="classCParameterBlackboard.html#ac03b75ea7a07a5f8d1fcdb3e1ded11dd" target="_top" xlink:title="CParameterBlackboard\l::setSize">
<polygon fill="white" stroke="black" points="152.5,-0 152.5,-34 279.5,-34 279.5,-0 152.5,-0"/>
<text text-anchor="start" x="160.5" y="-21" font-family="Verdana" font-size="10.00">CParameterBlackboard</text>
<text text-anchor="middle" x="216" y="-8" font-family="Verdana" font-size="10.00">::setSize</text>
</a>
</g>
<!-- Node1&#45;&gt;Node2 -->
<g id="edge2" class="edge"><title>Node1&#45;&gt;Node2</title>
<path fill="none" stroke="midnightblue" d="M116.384,-17C124.788,-17 133.526,-17 142.18,-17"/>
<polygon fill="midnightblue" stroke="midnightblue" points="142.277,-20.5001 152.277,-17 142.277,-13.5001 142.277,-20.5001"/>
</g>
</g>
</svg>
