<?xml version="1.0" encoding="UTF-8" standalone="no"?>
<!DOCTYPE svg PUBLIC "-//W3C//DTD SVG 1.1//EN"
 "http://www.w3.org/Graphics/SVG/1.1/DTD/svg11.dtd">
<!-- Generated by graphviz version 2.26.3 (20100126.1600)
 -->
<!-- Title: CStringParameter::getFootPrint Pages: 1 -->
<svg width="534pt" height="42pt"
 viewBox="0.00 0.00 534.00 42.00" xmlns="http://www.w3.org/2000/svg" xmlns:xlink="http://www.w3.org/1999/xlink">
<g id="graph1" class="graph" transform="scale(1 1) rotate(0) translate(4 38)">
<title>CStringParameter::getFootPrint</title>
<polygon fill="white" stroke="white" points="-4,5 -4,-38 531,-38 531,5 -4,5"/>
<!-- Node1 -->
<g id="node1" class="node"><title>Node1</title>
<polygon fill="#bfbfbf" stroke="black" points="0.5,-0 0.5,-34 145.5,-34 145.5,-0 0.5,-0"/>
<text text-anchor="start" x="8.5" y="-21" font-family="Verdana" font-size="10.00">CStringParameter::getFoot</text>
<text text-anchor="middle" x="73" y="-8" font-family="Verdana" font-size="10.00">Print</text>
</g>
<!-- Node2 -->
<g id="node3" class="node"><title>Node2</title>
<a xlink:href="classCStringParameter.html#af2990a24d1de91c5cfd760eb8b7ecffd" target="_top" xlink:title="CStringParameter::getSize">
<polygon fill="white" stroke="black" points="182,-6.5 182,-27.5 326,-27.5 326,-6.5 182,-6.5"/>
<text text-anchor="middle" x="254" y="-14.5" font-family="Verdana" font-size="10.00">CStringParameter::getSize</text>
</a>
</g>
<!-- Node1&#45;&gt;Node2 -->
<g id="edge2" class="edge"><title>Node1&#45;&gt;Node2</title>
<path fill="none" stroke="midnightblue" d="M145.577,-17C154.201,-17 163.051,-17 171.797,-17"/>
<polygon fill="midnightblue" stroke="midnightblue" points="171.997,-20.5001 181.997,-17 171.997,-13.5001 171.997,-20.5001"/>
</g>
<!-- Node3 -->
<g id="node5" class="node"><title>Node3</title>
<a xlink:href="classCInstanceConfigurableElement.html#ae2d941df411f8ec4c025cbd04d3ba421" target="_top" xlink:title="CInstanceConfigurableElement\l::getTypeElement">
<polygon fill="white" stroke="black" points="362,-0 362,-34 526,-34 526,-0 362,-0"/>
<text text-anchor="start" x="370" y="-21" font-family="Verdana" font-size="10.00">CInstanceConfigurableElement</text>
<text text-anchor="middle" x="444" y="-8" font-family="Verdana" font-size="10.00">::getTypeElement</text>
</a>
</g>
<!-- Node2&#45;&gt;Node3 -->
<g id="edge4" class="edge"><title>Node2&#45;&gt;Node3</title>
<path fill="none" stroke="midnightblue" d="M326.102,-17C334.477,-17 343.105,-17 351.703,-17"/>
<polygon fill="midnightblue" stroke="midnightblue" points="351.767,-20.5001 361.767,-17 351.767,-13.5001 351.767,-20.5001"/>
</g>
</g>
</svg>
