<?xml version="1.0" encoding="UTF-8" standalone="no"?>
<!DOCTYPE svg PUBLIC "-//W3C//DTD SVG 1.1//EN"
 "http://www.w3.org/Graphics/SVG/1.1/DTD/svg11.dtd">
<!-- Generated by graphviz version 2.26.3 (20100126.1600)
 -->
<!-- Title: CParameterMgr::split Pages: 1 -->
<svg width="998pt" height="384pt"
 viewBox="0.00 0.00 998.00 384.00" xmlns="http://www.w3.org/2000/svg" xmlns:xlink="http://www.w3.org/1999/xlink">
<g id="graph1" class="graph" transform="scale(1 1) rotate(0) translate(4 380)">
<title>CParameterMgr::split</title>
<polygon fill="white" stroke="white" points="-4,5 -4,-380 995,-380 995,5 -4,5"/>
<!-- Node1 -->
<g id="node1" class="node"><title>Node1</title>
<polygon fill="#bfbfbf" stroke="black" points="0.5,-223.5 0.5,-244.5 117.5,-244.5 117.5,-223.5 0.5,-223.5"/>
<text text-anchor="middle" x="59" y="-231.5" font-family="Verdana" font-size="10.00">CParameterMgr::split</text>
</g>
<!-- Node2 -->
<g id="node3" class="node"><title>Node2</title>
<a xlink:href="classCElementLocator.html#a94ddc34b50d96cd1cc78f43e3014ce36" target="_top" xlink:title="CElementLocator::locate">
<polygon fill="white" stroke="black" points="154,-265.5 154,-286.5 288,-286.5 288,-265.5 154,-265.5"/>
<text text-anchor="middle" x="221" y="-273.5" font-family="Verdana" font-size="10.00">CElementLocator::locate</text>
</a>
</g>
<!-- Node1&#45;&gt;Node2 -->
<g id="edge2" class="edge"><title>Node1&#45;&gt;Node2</title>
<path fill="none" stroke="midnightblue" d="M99.8794,-244.598C121.353,-250.166 147.86,-257.038 170.597,-262.933"/>
<polygon fill="midnightblue" stroke="midnightblue" points="169.856,-266.356 180.415,-265.478 171.613,-259.58 169.856,-266.356"/>
</g>
<!-- Node8 -->
<g id="node17" class="node"><title>Node8</title>
<a xlink:href="classCConfigurableDomains.html#ae01182802f0ce424d239ea19f9365330" target="_top" xlink:title="CConfigurableDomains\l::split">
<polygon fill="white" stroke="black" points="158,-175 158,-209 284,-209 284,-175 158,-175"/>
<text text-anchor="start" x="166" y="-196" font-family="Verdana" font-size="10.00">CConfigurableDomains</text>
<text text-anchor="middle" x="221" y="-183" font-family="Verdana" font-size="10.00">::split</text>
</a>
</g>
<!-- Node1&#45;&gt;Node8 -->
<g id="edge18" class="edge"><title>Node1&#45;&gt;Node8</title>
<path fill="none" stroke="midnightblue" d="M99.8794,-223.402C114.395,-219.638 131.21,-215.279 147.606,-211.028"/>
<polygon fill="midnightblue" stroke="midnightblue" points="148.934,-214.299 157.736,-208.402 147.177,-207.524 148.934,-214.299"/>
</g>
<!-- Node3 -->
<g id="node5" class="node"><title>Node3</title>
<a xlink:href="classCPathNavigator.html#ac63504ec6203e15a9ca4a15e9775bfe8" target="_top" xlink:title="CPathNavigator::isPathValid">
<polygon fill="white" stroke="black" points="324,-265.5 324,-286.5 472,-286.5 472,-265.5 324,-265.5"/>
<text text-anchor="middle" x="398" y="-273.5" font-family="Verdana" font-size="10.00">CPathNavigator::isPathValid</text>
</a>
</g>
<!-- Node2&#45;&gt;Node3 -->
<g id="edge4" class="edge"><title>Node2&#45;&gt;Node3</title>
<path fill="none" stroke="midnightblue" d="M288.168,-276C296.533,-276 305.168,-276 313.75,-276"/>
<polygon fill="midnightblue" stroke="midnightblue" points="313.78,-279.5 323.78,-276 313.78,-272.5 313.78,-279.5"/>
</g>
<!-- Node4 -->
<g id="node7" class="node"><title>Node4</title>
<a xlink:href="classCPathNavigator.html#a06f35d45c0bf392e11de0bf1197cc589" target="_top" xlink:title="CPathNavigator::next">
<polygon fill="white" stroke="black" points="512,-354.5 512,-375.5 630,-375.5 630,-354.5 512,-354.5"/>
<text text-anchor="middle" x="571" y="-362.5" font-family="Verdana" font-size="10.00">CPathNavigator::next</text>
</a>
</g>
<!-- Node2&#45;&gt;Node4 -->
<g id="edge6" class="edge"><title>Node2&#45;&gt;Node4</title>
<path fill="none" stroke="midnightblue" d="M230.545,-286.557C247.379,-304.33 284.334,-339.686 324,-354 381.321,-374.686 451.029,-375.811 501.756,-372.709"/>
<polygon fill="midnightblue" stroke="midnightblue" points="502.222,-376.186 511.96,-372.013 501.745,-369.202 502.222,-376.186"/>
</g>
<!-- Node5 -->
<g id="node9" class="node"><title>Node5</title>
<a xlink:href="classCElement.html#a49581fb6412e29e932962acd82d52d6a" target="_top" xlink:title="CElement::getName">
<polygon fill="white" stroke="black" points="514,-226.5 514,-247.5 628,-247.5 628,-226.5 514,-226.5"/>
<text text-anchor="middle" x="571" y="-234.5" font-family="Verdana" font-size="10.00">CElement::getName</text>
</a>
</g>
<!-- Node2&#45;&gt;Node5 -->
<g id="edge8" class="edge"><title>Node2&#45;&gt;Node5</title>
<path fill="none" stroke="midnightblue" d="M269.019,-265.488C286.283,-262.024 305.948,-258.439 324,-256 384.609,-247.812 454.098,-242.858 503.9,-240.072"/>
<polygon fill="midnightblue" stroke="midnightblue" points="504.109,-243.565 513.903,-239.526 503.728,-236.576 504.109,-243.565"/>
</g>
<!-- Node6 -->
<g id="node11" class="node"><title>Node6</title>
<a xlink:href="classCElement.html#a182dcfb7ab154cc97cff047c5f5539f5" target="_top" xlink:title="CElement::findDescendant">
<polygon fill="white" stroke="black" points="326,-305.5 326,-326.5 470,-326.5 470,-305.5 326,-305.5"/>
<text text-anchor="middle" x="398" y="-313.5" font-family="Verdana" font-size="10.00">CElement::findDescendant</text>
</a>
</g>
<!-- Node2&#45;&gt;Node6 -->
<g id="edge10" class="edge"><title>Node2&#45;&gt;Node6</title>
<path fill="none" stroke="midnightblue" d="M267.505,-286.51C290.179,-291.634 317.642,-297.84 341.513,-303.235"/>
<polygon fill="midnightblue" stroke="midnightblue" points="340.973,-306.701 351.499,-305.491 342.516,-299.873 340.973,-306.701"/>
</g>
<!-- Node6&#45;&gt;Node4 -->
<g id="edge12" class="edge"><title>Node6&#45;&gt;Node4</title>
<path fill="none" stroke="midnightblue" d="M435.113,-326.512C461.021,-333.85 495.819,-343.706 523.715,-351.607"/>
<polygon fill="midnightblue" stroke="midnightblue" points="523.075,-355.064 533.65,-354.421 524.983,-348.328 523.075,-355.064"/>
</g>
<!-- Node6&#45;&gt;Node6 -->
<g id="edge16" class="edge"><title>Node6&#45;&gt;Node6</title>
<path fill="none" stroke="midnightblue" d="M370.671,-326.708C358.992,-335.653 368.102,-345 398,-345 417.621,-345 428.289,-340.975 430.004,-335.679"/>
<polygon fill="midnightblue" stroke="midnightblue" points="433.054,-333.959 425.329,-326.708 426.846,-337.194 433.054,-333.959"/>
</g>
<!-- Node7 -->
<g id="node14" class="node"><title>Node7</title>
<a xlink:href="classCElement.html#a8595814a3159f32f874269907e70b260" target="_top" xlink:title="CElement::findChild">
<polygon fill="white" stroke="black" points="516,-286.5 516,-307.5 626,-307.5 626,-286.5 516,-286.5"/>
<text text-anchor="middle" x="571" y="-294.5" font-family="Verdana" font-size="10.00">CElement::findChild</text>
</a>
</g>
<!-- Node6&#45;&gt;Node7 -->
<g id="edge14" class="edge"><title>Node6&#45;&gt;Node7</title>
<path fill="none" stroke="midnightblue" d="M470.115,-308.08C481.947,-306.78 494.148,-305.44 505.799,-304.161"/>
<polygon fill="midnightblue" stroke="midnightblue" points="506.316,-307.625 515.874,-303.054 505.552,-300.667 506.316,-307.625"/>
</g>
<!-- Node9 -->
<g id="node19" class="node"><title>Node9</title>
<a xlink:href="classCConfigurableDomains.html#a4dce38a1560b6e33871d3fa2d85cc449" target="_top" xlink:title="CConfigurableDomains\l::findConfigurableDomain">
<polygon fill="white" stroke="black" points="329.5,-175 329.5,-209 466.5,-209 466.5,-175 329.5,-175"/>
<text text-anchor="start" x="337.5" y="-196" font-family="Verdana" font-size="10.00">CConfigurableDomains</text>
<text text-anchor="middle" x="398" y="-183" font-family="Verdana" font-size="10.00">::findConfigurableDomain</text>
</a>
</g>
<!-- Node8&#45;&gt;Node9 -->
<g id="edge20" class="edge"><title>Node8&#45;&gt;Node9</title>
<path fill="none" stroke="midnightblue" d="M284.401,-192C295.679,-192 307.55,-192 319.195,-192"/>
<polygon fill="midnightblue" stroke="midnightblue" points="319.349,-195.5 329.348,-192 319.348,-188.5 319.349,-195.5"/>
</g>
<!-- Node10 -->
<g id="node22" class="node"><title>Node10</title>
<a xlink:href="classCConfigurableDomain.html#aea88fe7f6e3f02217f5d9f0e2e820da2" target="_top" xlink:title="CConfigurableDomain\l::split">
<polygon fill="white" stroke="black" points="337.5,-123 337.5,-157 458.5,-157 458.5,-123 337.5,-123"/>
<text text-anchor="start" x="345.5" y="-144" font-family="Verdana" font-size="10.00">CConfigurableDomain</text>
<text text-anchor="middle" x="398" y="-131" font-family="Verdana" font-size="10.00">::split</text>
</a>
</g>
<!-- Node8&#45;&gt;Node10 -->
<g id="edge24" class="edge"><title>Node8&#45;&gt;Node10</title>
<path fill="none" stroke="midnightblue" d="M278.956,-174.973C295.307,-170.17 313.243,-164.9 330.119,-159.942"/>
<polygon fill="midnightblue" stroke="midnightblue" points="331.305,-163.242 339.913,-157.065 329.332,-156.526 331.305,-163.242"/>
</g>
<!-- Node9&#45;&gt;Node7 -->
<g id="edge22" class="edge"><title>Node9&#45;&gt;Node7</title>
<path fill="none" stroke="midnightblue" d="M426.18,-209.104C458.946,-228.991 512.61,-261.561 544.597,-280.975"/>
<polygon fill="midnightblue" stroke="midnightblue" points="543.03,-284.118 553.395,-286.315 546.662,-278.134 543.03,-284.118"/>
</g>
<!-- Node10&#45;&gt;Node5 -->
<g id="edge30" class="edge"><title>Node10&#45;&gt;Node5</title>
<path fill="none" stroke="midnightblue" d="M457.488,-157.092C462.619,-159.68 467.545,-162.635 472,-166 494.137,-182.725 485.61,-200.615 508,-217 510.512,-218.838 513.199,-220.512 515.995,-222.034"/>
<polygon fill="midnightblue" stroke="midnightblue" points="514.685,-225.286 525.221,-226.402 517.68,-218.959 514.685,-225.286"/>
</g>
<!-- Node11 -->
<g id="node24" class="node"><title>Node11</title>
<a xlink:href="classCElement.html#a7022c0fc8063f0aae9d97b06e74d4ac1" target="_top" xlink:title="CElement::getPath">
<polygon fill="white" stroke="black" points="518,-0.5 518,-21.5 624,-21.5 624,-0.5 518,-0.5"/>
<text text-anchor="middle" x="571" y="-8.5" font-family="Verdana" font-size="10.00">CElement::getPath</text>
</a>
</g>
<!-- Node10&#45;&gt;Node11 -->
<g id="edge26" class="edge"><title>Node10&#45;&gt;Node11</title>
<path fill="none" stroke="midnightblue" d="M419.185,-122.776C441.108,-105.109 476.493,-77.032 508,-54 520.523,-44.8456 534.776,-35.0657 546.554,-27.1493"/>
<polygon fill="midnightblue" stroke="midnightblue" points="548.639,-29.966 555.009,-21.5002 544.75,-24.1457 548.639,-29.966"/>
</g>
<!-- Node12 -->
<g id="node28" class="node"><title>Node12</title>
<a xlink:href="classCElement.html#aaa4df1b13a53263f8cc2b668172873d9" target="_top" xlink:title="CElement::log_info">
<polygon fill="white" stroke="black" points="518,-186.5 518,-207.5 624,-207.5 624,-186.5 518,-186.5"/>
<text text-anchor="middle" x="571" y="-194.5" font-family="Verdana" font-size="10.00">CElement::log_info</text>
</a>
</g>
<!-- Node10&#45;&gt;Node12 -->
<g id="edge32" class="edge"><title>Node10&#45;&gt;Node12</title>
<path fill="none" stroke="midnightblue" d="M449.906,-157.102C475.248,-165.452 505.333,-175.364 529.176,-183.22"/>
<polygon fill="midnightblue" stroke="midnightblue" points="528.388,-186.645 538.981,-186.45 530.578,-179.997 528.388,-186.645"/>
</g>
<!-- Node13 -->
<g id="node30" class="node"><title>Node13</title>
<a xlink:href="classCElement.html#a25f58d9d8b35e770806d669fb2a378e4" target="_top" xlink:title="CElement::getNbChildren">
<polygon fill="white" stroke="black" points="670.5,-148.5 670.5,-169.5 807.5,-169.5 807.5,-148.5 670.5,-148.5"/>
<text text-anchor="middle" x="739" y="-156.5" font-family="Verdana" font-size="10.00">CElement::getNbChildren</text>
</a>
</g>
<!-- Node10&#45;&gt;Node13 -->
<g id="edge34" class="edge"><title>Node10&#45;&gt;Node13</title>
<path fill="none" stroke="midnightblue" d="M458.571,-143.375C514.863,-146.511 599.024,-151.201 660.457,-154.624"/>
<polygon fill="midnightblue" stroke="midnightblue" points="660.318,-158.121 670.497,-155.183 660.707,-151.132 660.318,-158.121"/>
</g>
<!-- Node14 -->
<g id="node32" class="node"><title>Node14</title>
<a xlink:href="classCElement.html#a41bf126c3fdbb5bec0c2c3dcf35e9079" target="_top" xlink:title="CElement::getChild">
<polygon fill="white" stroke="black" points="685,-56.5 685,-77.5 793,-77.5 793,-56.5 685,-56.5"/>
<text text-anchor="middle" x="739" y="-64.5" font-family="Verdana" font-size="10.00">CElement::getChild</text>
</a>
</g>
<!-- Node10&#45;&gt;Node14 -->
<g id="edge36" class="edge"><title>Node10&#45;&gt;Node14</title>
<path fill="none" stroke="midnightblue" d="M426.288,-122.823C447.869,-110.616 478.766,-95.0178 508,-87 562.974,-71.9228 627.812,-67.4061 674.78,-66.38"/>
<polygon fill="midnightblue" stroke="midnightblue" points="674.881,-69.8789 684.819,-66.2077 674.761,-62.8799 674.881,-69.8789"/>
</g>
<!-- Node15 -->
<g id="node34" class="node"><title>Node15</title>
<a xlink:href="classCDomainConfiguration.html#acd4e91173fa488a4b4d31be157067eae" target="_top" xlink:title="CDomainConfiguration\l::split">
<polygon fill="white" stroke="black" points="508.5,-96 508.5,-130 633.5,-130 633.5,-96 508.5,-96"/>
<text text-anchor="start" x="516.5" y="-117" font-family="Verdana" font-size="10.00">CDomainConfiguration</text>
<text text-anchor="middle" x="571" y="-104" font-family="Verdana" font-size="10.00">::split</text>
</a>
</g>
<!-- Node10&#45;&gt;Node15 -->
<g id="edge38" class="edge"><title>Node10&#45;&gt;Node15</title>
<path fill="none" stroke="midnightblue" d="M458.507,-130.557C471.396,-128.545 485.134,-126.401 498.422,-124.327"/>
<polygon fill="midnightblue" stroke="midnightblue" points="499.134,-127.759 508.474,-122.758 498.054,-120.842 499.134,-127.759"/>
</g>
<!-- Node11&#45;&gt;Node11 -->
<g id="edge28" class="edge"><title>Node11&#45;&gt;Node11</title>
<path fill="none" stroke="midnightblue" d="M544.307,-21.7079C532.899,-30.6531 541.797,-40 571,-40 590.165,-40 600.584,-35.9746 602.259,-30.6791"/>
<polygon fill="midnightblue" stroke="midnightblue" points="605.349,-29.0325 597.693,-21.7079 599.11,-32.2076 605.349,-29.0325"/>
</g>
<!-- Node15&#45;&gt;Node13 -->
<g id="edge40" class="edge"><title>Node15&#45;&gt;Node13</title>
<path fill="none" stroke="midnightblue" d="M633.557,-130.129C652.273,-135.253 672.512,-140.795 690.206,-145.64"/>
<polygon fill="midnightblue" stroke="midnightblue" points="689.73,-149.138 700.299,-148.403 691.579,-142.387 689.73,-149.138"/>
</g>
<!-- Node15&#45;&gt;Node14 -->
<g id="edge42" class="edge"><title>Node15&#45;&gt;Node14</title>
<path fill="none" stroke="midnightblue" d="M633.557,-95.8713C652.273,-90.7466 672.512,-85.2051 690.206,-80.3603"/>
<polygon fill="midnightblue" stroke="midnightblue" points="691.579,-83.6133 700.299,-77.5966 689.73,-76.8619 691.579,-83.6133"/>
</g>
<!-- Node16 -->
<g id="node38" class="node"><title>Node16</title>
<a xlink:href="classCAreaConfiguration.html#aa66ebde5e339fbea35c7a5f46403c770" target="_top" xlink:title="CAreaConfiguration\l::copyFromOuter">
<polygon fill="white" stroke="black" points="684,-96 684,-130 794,-130 794,-96 684,-96"/>
<text text-anchor="start" x="692" y="-117" font-family="Verdana" font-size="10.00">CAreaConfiguration</text>
<text text-anchor="middle" x="739" y="-104" font-family="Verdana" font-size="10.00">::copyFromOuter</text>
</a>
</g>
<!-- Node15&#45;&gt;Node16 -->
<g id="edge44" class="edge"><title>Node15&#45;&gt;Node16</title>
<path fill="none" stroke="midnightblue" d="M633.557,-113C646.586,-113 660.353,-113 673.486,-113"/>
<polygon fill="midnightblue" stroke="midnightblue" points="673.856,-116.5 683.856,-113 673.856,-109.5 673.856,-116.5"/>
</g>
<!-- Node17 -->
<g id="node40" class="node"><title>Node17</title>
<a xlink:href="classCElement.html#a7653fbad5491138533ac0fa889ffecd9" target="_top" xlink:title="CElement::isDescendantOf">
<polygon fill="white" stroke="black" points="844.5,-148.5 844.5,-169.5 989.5,-169.5 989.5,-148.5 844.5,-148.5"/>
<text text-anchor="middle" x="917" y="-156.5" font-family="Verdana" font-size="10.00">CElement::isDescendantOf</text>
</a>
</g>
<!-- Node16&#45;&gt;Node17 -->
<g id="edge46" class="edge"><title>Node16&#45;&gt;Node17</title>
<path fill="none" stroke="midnightblue" d="M794.345,-127.303C817.37,-133.253 843.919,-140.114 866.416,-145.928"/>
<polygon fill="midnightblue" stroke="midnightblue" points="865.555,-149.32 876.113,-148.434 867.306,-142.543 865.555,-149.32"/>
</g>
<!-- Node18 -->
<g id="node43" class="node"><title>Node18</title>
<a xlink:href="classCAreaConfiguration.html#a1f85dedf12591c3f43830a00e5c352df" target="_top" xlink:title="CAreaConfiguration\l::getConfigurableElement">
<polygon fill="white" stroke="black" points="848,-96 848,-130 986,-130 986,-96 848,-96"/>
<text text-anchor="start" x="856" y="-117" font-family="Verdana" font-size="10.00">CAreaConfiguration</text>
<text text-anchor="middle" x="917" y="-104" font-family="Verdana" font-size="10.00">::getConfigurableElement</text>
</a>
</g>
<!-- Node16&#45;&gt;Node18 -->
<g id="edge50" class="edge"><title>Node16&#45;&gt;Node18</title>
<path fill="none" stroke="midnightblue" d="M794.345,-113C808.109,-113 823.134,-113 837.799,-113"/>
<polygon fill="midnightblue" stroke="midnightblue" points="837.874,-116.5 847.874,-113 837.874,-109.5 837.874,-116.5"/>
</g>
<!-- Node19 -->
<g id="node45" class="node"><title>Node19</title>
<a xlink:href="classCConfigurableElement.html#a29d61e6d09ff508ebb87aea802f2704e" target="_top" xlink:title="CConfigurableElement\l::getOffset">
<polygon fill="white" stroke="black" points="855.5,-44 855.5,-78 978.5,-78 978.5,-44 855.5,-44"/>
<text text-anchor="start" x="863.5" y="-65" font-family="Verdana" font-size="10.00">CConfigurableElement</text>
<text text-anchor="middle" x="917" y="-52" font-family="Verdana" font-size="10.00">::getOffset</text>
</a>
</g>
<!-- Node16&#45;&gt;Node19 -->
<g id="edge52" class="edge"><title>Node16&#45;&gt;Node19</title>
<path fill="none" stroke="midnightblue" d="M794.345,-96.8319C811.566,-91.8008 830.76,-86.1937 848.755,-80.9368"/>
<polygon fill="midnightblue" stroke="midnightblue" points="849.991,-84.222 858.608,-78.0582 848.028,-77.5029 849.991,-84.222"/>
</g>
<!-- Node17&#45;&gt;Node17 -->
<g id="edge48" class="edge"><title>Node17&#45;&gt;Node17</title>
<path fill="none" stroke="midnightblue" d="M888.718,-169.708C876.631,-178.653 886.059,-188 917,-188 937.305,-188 948.345,-183.975 950.12,-178.679"/>
<polygon fill="midnightblue" stroke="midnightblue" points="953.109,-176.848 945.282,-169.708 946.948,-180.171 953.109,-176.848"/>
</g>
</g>
</svg>
