<?xml version="1.0" encoding="UTF-8" standalone="no"?>
<!DOCTYPE svg PUBLIC "-//W3C//DTD SVG 1.1//EN"
 "http://www.w3.org/Graphics/SVG/1.1/DTD/svg11.dtd">
<!-- Generated by graphviz version 2.26.3 (20100126.1600)
 -->
<!-- Title: CSelectionCriterion::toXml Pages: 1 -->
<svg width="448pt" height="94pt"
 viewBox="0.00 0.00 448.00 94.00" xmlns="http://www.w3.org/2000/svg" xmlns:xlink="http://www.w3.org/1999/xlink">
<g id="graph1" class="graph" transform="scale(1 1) rotate(0) translate(4 90)">
<title>CSelectionCriterion::toXml</title>
<polygon fill="white" stroke="white" points="-4,5 -4,-90 445,-90 445,5 -4,5"/>
<!-- Node1 -->
<g id="node1" class="node"><title>Node1</title>
<polygon fill="#bfbfbf" stroke="black" points="0,-26 0,-60 108,-60 108,-26 0,-26"/>
<text text-anchor="start" x="8" y="-47" font-family="Verdana" font-size="10.00">CSelectionCriterion</text>
<text text-anchor="middle" x="54" y="-34" font-family="Verdana" font-size="10.00">::toXml</text>
</g>
<!-- Node2 -->
<g id="node3" class="node"><title>Node2</title>
<a xlink:href="classCSelectionCriterionType.html#acf1d7bbd1dc0b21897cdf7cf3d362bb3" target="_top" xlink:title="CSelectionCriterionType\l::getFormattedState">
<polygon fill="white" stroke="black" points="144.5,-52 144.5,-86 273.5,-86 273.5,-52 144.5,-52"/>
<text text-anchor="start" x="152.5" y="-73" font-family="Verdana" font-size="10.00">CSelectionCriterionType</text>
<text text-anchor="middle" x="209" y="-60" font-family="Verdana" font-size="10.00">::getFormattedState</text>
</a>
</g>
<!-- Node1&#45;&gt;Node2 -->
<g id="edge2" class="edge"><title>Node1&#45;&gt;Node2</title>
<path fill="none" stroke="midnightblue" d="M108.211,-52.0935C116.711,-53.5193 125.622,-55.0141 134.482,-56.5002"/>
<polygon fill="midnightblue" stroke="midnightblue" points="133.996,-59.9675 144.437,-58.1702 135.154,-53.064 133.996,-59.9675"/>
</g>
<!-- Node4 -->
<g id="node7" class="node"><title>Node4</title>
<a xlink:href="classCSelectionCriterionType.html#a95813f4b14f06857afaf8a50d0d62600" target="_top" xlink:title="Export to XML. ">
<polygon fill="white" stroke="black" points="144.5,-0 144.5,-34 273.5,-34 273.5,-0 144.5,-0"/>
<text text-anchor="start" x="152.5" y="-21" font-family="Verdana" font-size="10.00">CSelectionCriterionType</text>
<text text-anchor="middle" x="209" y="-8" font-family="Verdana" font-size="10.00">::toXml</text>
</a>
</g>
<!-- Node1&#45;&gt;Node4 -->
<g id="edge6" class="edge"><title>Node1&#45;&gt;Node4</title>
<path fill="none" stroke="midnightblue" d="M108.211,-33.9065C116.711,-32.4807 125.622,-30.9859 134.482,-29.4998"/>
<polygon fill="midnightblue" stroke="midnightblue" points="135.154,-32.936 144.437,-27.8298 133.996,-26.0325 135.154,-32.936"/>
</g>
<!-- Node3 -->
<g id="node5" class="node"><title>Node3</title>
<a xlink:href="classCSelectionCriterionType.html#ae526e3679a02dd85be47abe8a548f1ee" target="_top" xlink:title="CSelectionCriterionType\l::getLiteralValue">
<polygon fill="white" stroke="black" points="310.5,-52 310.5,-86 439.5,-86 439.5,-52 310.5,-52"/>
<text text-anchor="start" x="318.5" y="-73" font-family="Verdana" font-size="10.00">CSelectionCriterionType</text>
<text text-anchor="middle" x="375" y="-60" font-family="Verdana" font-size="10.00">::getLiteralValue</text>
</a>
</g>
<!-- Node2&#45;&gt;Node3 -->
<g id="edge4" class="edge"><title>Node2&#45;&gt;Node3</title>
<path fill="none" stroke="midnightblue" d="M273.655,-69C282.292,-69 291.208,-69 300.003,-69"/>
<polygon fill="midnightblue" stroke="midnightblue" points="300.248,-72.5001 310.248,-69 300.248,-65.5001 300.248,-72.5001"/>
</g>
<!-- Node5 -->
<g id="node9" class="node"><title>Node5</title>
<a xlink:href="classCSelectionCriterionType.html#ae88c284c1f002d7237f25e9c21dcf44f" target="_top" xlink:title="CSelectionCriterionType\l::isTypeInclusive">
<polygon fill="white" stroke="black" points="310.5,-0 310.5,-34 439.5,-34 439.5,-0 310.5,-0"/>
<text text-anchor="start" x="318.5" y="-21" font-family="Verdana" font-size="10.00">CSelectionCriterionType</text>
<text text-anchor="middle" x="375" y="-8" font-family="Verdana" font-size="10.00">::isTypeInclusive</text>
</a>
</g>
<!-- Node4&#45;&gt;Node5 -->
<g id="edge8" class="edge"><title>Node4&#45;&gt;Node5</title>
<path fill="none" stroke="midnightblue" d="M273.655,-17C282.292,-17 291.208,-17 300.003,-17"/>
<polygon fill="midnightblue" stroke="midnightblue" points="300.248,-20.5001 310.248,-17 300.248,-13.5001 300.248,-20.5001"/>
</g>
</g>
</svg>
