<?xml version="1.0" encoding="UTF-8" standalone="no"?>
<!DOCTYPE svg PUBLIC "-//W3C//DTD SVG 1.1//EN"
 "http://www.w3.org/Graphics/SVG/1.1/DTD/svg11.dtd">
<!-- Generated by graphviz version 2.26.3 (20100126.1600)
 -->
<!-- Title: CConfigurableDomain::getApplicationRule Pages: 1 -->
<svg width="514pt" height="42pt"
 viewBox="0.00 0.00 514.00 42.00" xmlns="http://www.w3.org/2000/svg" xmlns:xlink="http://www.w3.org/1999/xlink">
<g id="graph1" class="graph" transform="scale(1 1) rotate(0) translate(4 38)">
<title>CConfigurableDomain::getApplicationRule</title>
<polygon fill="white" stroke="white" points="-4,5 -4,-38 511,-38 511,5 -4,5"/>
<!-- Node1 -->
<g id="node1" class="node"><title>Node1</title>
<polygon fill="#bfbfbf" stroke="black" points="0.5,-0 0.5,-34 121.5,-34 121.5,-0 0.5,-0"/>
<text text-anchor="start" x="8.5" y="-21" font-family="Verdana" font-size="10.00">CConfigurableDomain</text>
<text text-anchor="middle" x="61" y="-8" font-family="Verdana" font-size="10.00">::getApplicationRule</text>
</g>
<!-- Node2 -->
<g id="node3" class="node"><title>Node2</title>
<a xlink:href="classCConfigurableDomains.html#a2c09cdf7f3d0ce257831c2df930cb60b" target="_top" xlink:title="CConfigurableDomains\l::getApplicationRule">
<polygon fill="white" stroke="black" points="158,-0 158,-34 284,-34 284,-0 158,-0"/>
<text text-anchor="start" x="166" y="-21" font-family="Verdana" font-size="10.00">CConfigurableDomains</text>
<text text-anchor="middle" x="221" y="-8" font-family="Verdana" font-size="10.00">::getApplicationRule</text>
</a>
</g>
<!-- Node1&#45;&gt;Node2 -->
<g id="edge2" class="edge"><title>Node1&#45;&gt;Node2</title>
<path fill="none" stroke="midnightblue" d="M131.97,-17C140.585,-17 149.341,-17 157.833,-17"/>
<polygon fill="midnightblue" stroke="midnightblue" points="131.946,-13.5001 121.946,-17 131.946,-20.5001 131.946,-13.5001"/>
</g>
<!-- Node3 -->
<g id="node5" class="node"><title>Node3</title>
<a xlink:href="classCParameterMgr.html#a001de36ae98f163d21ec23f2d8a626d3" target="_top" xlink:title="CParameterMgr::getApplicationRule">
<polygon fill="white" stroke="black" points="320.5,-6.5 320.5,-27.5 505.5,-27.5 505.5,-6.5 320.5,-6.5"/>
<text text-anchor="middle" x="413" y="-14.5" font-family="Verdana" font-size="10.00">CParameterMgr::getApplicationRule</text>
</a>
</g>
<!-- Node2&#45;&gt;Node3 -->
<g id="edge4" class="edge"><title>Node2&#45;&gt;Node3</title>
<path fill="none" stroke="midnightblue" d="M294.344,-17C302.831,-17 311.57,-17 320.272,-17"/>
<polygon fill="midnightblue" stroke="midnightblue" points="294.134,-13.5001 284.134,-17 294.134,-20.5001 294.134,-13.5001"/>
</g>
</g>
</svg>
