<?xml version="1.0" encoding="UTF-8" standalone="no"?>
<!DOCTYPE svg PUBLIC "-//W3C//DTD SVG 1.1//EN"
 "http://www.w3.org/Graphics/SVG/1.1/DTD/svg11.dtd">
<!-- Generated by graphviz version 2.26.3 (20100126.1600)
 -->
<!-- Title: CComponentLibrary::fromXml Pages: 1 -->
<svg width="656pt" height="162pt"
 viewBox="0.00 0.00 656.00 162.00" xmlns="http://www.w3.org/2000/svg" xmlns:xlink="http://www.w3.org/1999/xlink">
<g id="graph1" class="graph" transform="scale(1 1) rotate(0) translate(4 158)">
<title>CComponentLibrary::fromXml</title>
<polygon fill="white" stroke="white" points="-4,5 -4,-158 653,-158 653,5 -4,5"/>
<!-- Node1 -->
<g id="node1" class="node"><title>Node1</title>
<polygon fill="#bfbfbf" stroke="black" points="0.5,-39 0.5,-73 117.5,-73 117.5,-39 0.5,-39"/>
<text text-anchor="start" x="8.5" y="-60" font-family="Verdana" font-size="10.00">CComponentLibrary::</text>
<text text-anchor="middle" x="59" y="-47" font-family="Verdana" font-size="10.00">fromXml</text>
</g>
<!-- Node2 -->
<g id="node3" class="node"><title>Node2</title>
<a xlink:href="classCElement.html#a0b4cdc10e6df8fd3740255c5faf3b596" target="_top" xlink:title="Creates a child CElement from a child XML Element. ">
<polygon fill="white" stroke="black" points="308.5,-74.5 308.5,-95.5 431.5,-95.5 431.5,-74.5 308.5,-74.5"/>
<text text-anchor="middle" x="370" y="-82.5" font-family="Verdana" font-size="10.00">CElement::createChild</text>
</a>
</g>
<!-- Node1&#45;&gt;Node2 -->
<g id="edge2" class="edge"><title>Node1&#45;&gt;Node2</title>
<path fill="none" stroke="midnightblue" d="M117.516,-62.3188C129.577,-63.5764 142.197,-64.8598 154,-66 201.943,-70.6316 255.92,-75.3797 297.922,-78.9709"/>
<polygon fill="midnightblue" stroke="midnightblue" points="297.797,-82.4727 308.058,-79.8349 298.391,-75.498 297.797,-82.4727"/>
</g>
<!-- Node6 -->
<g id="node11" class="node"><title>Node6</title>
<a xlink:href="classCElement.html#a1978d50e2db432e7b8f0928f33d3f01a" target="_top" xlink:title="CElement::fromXml">
<polygon fill="white" stroke="black" points="154,-17.5 154,-38.5 264,-38.5 264,-17.5 154,-17.5"/>
<text text-anchor="middle" x="209" y="-25.5" font-family="Verdana" font-size="10.00">CElement::fromXml</text>
</a>
</g>
<!-- Node1&#45;&gt;Node6 -->
<g id="edge10" class="edge"><title>Node1&#45;&gt;Node6</title>
<path fill="none" stroke="midnightblue" d="M117.853,-45.014C126.348,-43.4283 135.133,-41.7884 143.744,-40.1811"/>
<polygon fill="midnightblue" stroke="midnightblue" points="144.557,-43.59 153.745,-38.3143 143.272,-36.7088 144.557,-43.59"/>
</g>
<!-- Node3 -->
<g id="node5" class="node"><title>Node3</title>
<a xlink:href="classCXmlElementSerializingContext.html#a6c36b7e23b9968c6ea898612d2a55ee9" target="_top" xlink:title="CXmlElementSerializingContext\l::getElementLibrary">
<polygon fill="white" stroke="black" points="478.5,-120 478.5,-154 645.5,-154 645.5,-120 478.5,-120"/>
<text text-anchor="start" x="486.5" y="-141" font-family="Verdana" font-size="10.00">CXmlElementSerializingContext</text>
<text text-anchor="middle" x="562" y="-128" font-family="Verdana" font-size="10.00">::getElementLibrary</text>
</a>
</g>
<!-- Node2&#45;&gt;Node3 -->
<g id="edge4" class="edge"><title>Node2&#45;&gt;Node3</title>
<path fill="none" stroke="midnightblue" d="M408.854,-95.523C431.886,-101.761 461.817,-109.867 489.101,-117.257"/>
<polygon fill="midnightblue" stroke="midnightblue" points="488.448,-120.706 499.016,-119.942 490.278,-113.949 488.448,-120.706"/>
</g>
<!-- Node4 -->
<g id="node7" class="node"><title>Node4</title>
<a xlink:href="classCElementLibrary.html#a5ad95964216e50fc59f0c803370fb4de" target="_top" xlink:title="CElementLibrary::createElement">
<polygon fill="white" stroke="black" points="476.5,-80.5 476.5,-101.5 647.5,-101.5 647.5,-80.5 476.5,-80.5"/>
<text text-anchor="middle" x="562" y="-88.5" font-family="Verdana" font-size="10.00">CElementLibrary::createElement</text>
</a>
</g>
<!-- Node2&#45;&gt;Node4 -->
<g id="edge6" class="edge"><title>Node2&#45;&gt;Node4</title>
<path fill="none" stroke="midnightblue" d="M431.542,-86.9232C442.571,-87.2678 454.299,-87.6343 466.027,-88.0008"/>
<polygon fill="midnightblue" stroke="midnightblue" points="466.21,-91.5082 476.315,-88.3223 466.429,-84.5116 466.21,-91.5082"/>
</g>
<!-- Node5 -->
<g id="node9" class="node"><title>Node5</title>
<a xlink:href="classCElement.html#ac2ad66ee438a4a0c1390b7388874fe72" target="_top" xlink:title="CElement::addChild">
<polygon fill="white" stroke="black" points="507,-40.5 507,-61.5 617,-61.5 617,-40.5 507,-40.5"/>
<text text-anchor="middle" x="562" y="-48.5" font-family="Verdana" font-size="10.00">CElement::addChild</text>
</a>
</g>
<!-- Node2&#45;&gt;Node5 -->
<g id="edge8" class="edge"><title>Node2&#45;&gt;Node5</title>
<path fill="none" stroke="midnightblue" d="M429.435,-74.475C450.829,-70.6866 475.07,-66.3938 496.92,-62.5246"/>
<polygon fill="midnightblue" stroke="midnightblue" points="497.535,-65.9702 506.771,-60.78 496.314,-59.0775 497.535,-65.9702"/>
</g>
<!-- Node6&#45;&gt;Node2 -->
<g id="edge16" class="edge"><title>Node6&#45;&gt;Node2</title>
<path fill="none" stroke="midnightblue" d="M238.906,-38.5877C264.774,-47.746 302.364,-61.0542 330.666,-71.0742"/>
<polygon fill="midnightblue" stroke="midnightblue" points="329.66,-74.4309 340.255,-74.469 331.996,-67.8322 329.66,-74.4309"/>
</g>
<!-- Node6&#45;&gt;Node6 -->
<g id="edge18" class="edge"><title>Node6&#45;&gt;Node6</title>
<path fill="none" stroke="midnightblue" d="M185.167,-38.7079C174.981,-47.6531 182.926,-57 209,-57 225.704,-57 234.967,-53.164 236.79,-48.0551"/>
<polygon fill="midnightblue" stroke="midnightblue" points="239.955,-46.5525 232.833,-38.7079 233.508,-49.2812 239.955,-46.5525"/>
</g>
<!-- Node7 -->
<g id="node13" class="node"><title>Node7</title>
<a xlink:href="classCElement.html#acee1af3e8516a211731a59b85727c6b9" target="_top" xlink:title="CElement::findChildOfKind">
<polygon fill="white" stroke="black" points="300,-11.5 300,-32.5 440,-32.5 440,-11.5 300,-11.5"/>
<text text-anchor="middle" x="370" y="-19.5" font-family="Verdana" font-size="10.00">CElement::findChildOfKind</text>
</a>
</g>
<!-- Node6&#45;&gt;Node7 -->
<g id="edge12" class="edge"><title>Node6&#45;&gt;Node7</title>
<path fill="none" stroke="midnightblue" d="M264.407,-25.9351C272.645,-25.6282 281.272,-25.3066 289.893,-24.9854"/>
<polygon fill="midnightblue" stroke="midnightblue" points="290.124,-28.4793 299.987,-24.6092 289.863,-21.4841 290.124,-28.4793"/>
</g>
<!-- Node8 -->
<g id="node15" class="node"><title>Node8</title>
<a xlink:href="classCElement.html#aed2ca7f2a56dbf2edcd82167859535ee" target="_top" xlink:title="CElement::getKind">
<polygon fill="white" stroke="black" points="509.5,-0.5 509.5,-21.5 614.5,-21.5 614.5,-0.5 509.5,-0.5"/>
<text text-anchor="middle" x="562" y="-8.5" font-family="Verdana" font-size="10.00">CElement::getKind</text>
</a>
</g>
<!-- Node7&#45;&gt;Node8 -->
<g id="edge14" class="edge"><title>Node7&#45;&gt;Node8</title>
<path fill="none" stroke="midnightblue" d="M440.131,-17.9821C459.384,-16.8791 480.136,-15.6901 498.963,-14.6115"/>
<polygon fill="midnightblue" stroke="midnightblue" points="499.419,-18.0912 509.202,-14.0249 499.018,-11.1027 499.419,-18.0912"/>
</g>
</g>
</svg>
