<?xml version="1.0" encoding="UTF-8" standalone="no"?>
<!DOCTYPE svg PUBLIC "-//W3C//DTD SVG 1.1//EN"
 "http://www.w3.org/Graphics/SVG/1.1/DTD/svg11.dtd">
<!-- Generated by graphviz version 2.26.3 (20100126.1600)
 -->
<!-- Title: CTypeElement::hasMappingData Pages: 1 -->
<svg width="408pt" height="100pt"
 viewBox="0.00 0.00 408.00 100.00" xmlns="http://www.w3.org/2000/svg" xmlns:xlink="http://www.w3.org/1999/xlink">
<g id="graph1" class="graph" transform="scale(1 1) rotate(0) translate(4 96)">
<title>CTypeElement::hasMappingData</title>
<polygon fill="white" stroke="white" points="-4,5 -4,-96 405,-96 405,5 -4,5"/>
<!-- Node1 -->
<g id="node1" class="node"><title>Node1</title>
<polygon fill="#bfbfbf" stroke="black" points="0.5,-29.5 0.5,-50.5 171.5,-50.5 171.5,-29.5 0.5,-29.5"/>
<text text-anchor="middle" x="86" y="-37.5" font-family="Verdana" font-size="10.00">CTypeElement::hasMappingData</text>
</g>
<!-- Node2 -->
<g id="node3" class="node"><title>Node2</title>
<a xlink:href="classCInstanceConfigurableElement.html#a43d2ce5dbc487aa8de02d39af1b1c2d3" target="_top" xlink:title="CInstanceConfigurableElement::map">
<polygon fill="white" stroke="black" points="208.5,-52.5 208.5,-73.5 399.5,-73.5 399.5,-52.5 208.5,-52.5"/>
<text text-anchor="middle" x="304" y="-60.5" font-family="Verdana" font-size="10.00">CInstanceConfigurableElement::map</text>
</a>
</g>
<!-- Node1&#45;&gt;Node2 -->
<g id="edge2" class="edge"><title>Node1&#45;&gt;Node2</title>
<path fill="none" stroke="midnightblue" d="M181.494,-50.075C190.373,-51.0118 199.373,-51.9614 208.254,-52.8984"/>
<polygon fill="midnightblue" stroke="midnightblue" points="181.846,-46.5928 171.534,-49.0242 181.111,-53.5542 181.846,-46.5928"/>
</g>
<!-- Node3 -->
<g id="node6" class="node"><title>Node3</title>
<a xlink:href="classCInstanceConfigurableElement.html#abc77a2dd814b6696ce9c0a9a6e8af7a7" target="_top" xlink:title="Get the list of all the ancestors that have a mapping. ">
<polygon fill="white" stroke="black" points="218.5,-0 218.5,-34 389.5,-34 389.5,-0 218.5,-0"/>
<text text-anchor="start" x="226.5" y="-21" font-family="Verdana" font-size="10.00">CInstanceConfigurableElement</text>
<text text-anchor="middle" x="304" y="-8" font-family="Verdana" font-size="10.00">::getListOfElementsWithMapping</text>
</a>
</g>
<!-- Node1&#45;&gt;Node3 -->
<g id="edge6" class="edge"><title>Node1&#45;&gt;Node3</title>
<path fill="none" stroke="midnightblue" d="M181.712,-29.9019C193.909,-28.6151 206.331,-27.3045 218.355,-26.0359"/>
<polygon fill="midnightblue" stroke="midnightblue" points="181.111,-26.4458 171.534,-30.9758 181.846,-33.4072 181.111,-26.4458"/>
</g>
<!-- Node2&#45;&gt;Node2 -->
<g id="edge4" class="edge"><title>Node2&#45;&gt;Node2</title>
<path fill="none" stroke="midnightblue" d="M263.136,-81.4271C263.585,-87.327 277.206,-92 304,-92 342.107,-92 353.569,-82.5478 338.386,-73.5571"/>
<polygon fill="midnightblue" stroke="midnightblue" points="265.961,-83.5024 269.614,-73.5571 260.557,-79.0539 265.961,-83.5024"/>
</g>
</g>
</svg>
