<?xml version="1.0" encoding="UTF-8" standalone="no"?>
<!DOCTYPE svg PUBLIC "-//W3C//DTD SVG 1.1//EN"
 "http://www.w3.org/Graphics/SVG/1.1/DTD/svg11.dtd">
<!-- Generated by graphviz version 2.26.3 (20100126.1600)
 -->
<!-- Title: CMessage Pages: 1 -->
<svg width="230pt" height="88pt"
 viewBox="0.00 0.00 230.00 88.00" xmlns="http://www.w3.org/2000/svg" xmlns:xlink="http://www.w3.org/1999/xlink">
<g id="graph1" class="graph" transform="scale(1 1) rotate(0) translate(4 84)">
<title>CMessage</title>
<polygon fill="white" stroke="white" points="-4,5 -4,-84 227,-84 227,5 -4,5"/>
<!-- Node1 -->
<g id="node1" class="node"><title>Node1</title>
<polygon fill="#bfbfbf" stroke="black" points="77,-58.5 77,-79.5 143,-79.5 143,-58.5 77,-58.5"/>
<text text-anchor="middle" x="110" y="-66.5" font-family="Verdana" font-size="10.00">CMessage</text>
</g>
<!-- Node2 -->
<g id="node3" class="node"><title>Node2</title>
<a xlink:href="classCAnswerMessage.html" target="_top" xlink:title="CAnswerMessage">
<polygon fill="white" stroke="black" points="-0.5,-0.5 -0.5,-21.5 100.5,-21.5 100.5,-0.5 -0.5,-0.5"/>
<text text-anchor="middle" x="50" y="-8.5" font-family="Verdana" font-size="10.00">CAnswerMessage</text>
</a>
</g>
<!-- Node1&#45;&gt;Node2 -->
<g id="edge2" class="edge"><title>Node1&#45;&gt;Node2</title>
<path fill="none" stroke="midnightblue" d="M91.7983,-51.405C81.7259,-41.6683 69.5428,-29.8914 60.9352,-21.5707"/>
<polygon fill="midnightblue" stroke="midnightblue" points="89.3726,-53.9281 98.9951,-58.3619 94.2378,-48.8952 89.3726,-53.9281"/>
</g>
<!-- Node3 -->
<g id="node5" class="node"><title>Node3</title>
<a xlink:href="classCRequestMessage.html" target="_top" xlink:title="CRequestMessage">
<polygon fill="white" stroke="black" points="118,-0.5 118,-21.5 222,-21.5 222,-0.5 118,-0.5"/>
<text text-anchor="middle" x="170" y="-8.5" font-family="Verdana" font-size="10.00">CRequestMessage</text>
</a>
</g>
<!-- Node1&#45;&gt;Node3 -->
<g id="edge4" class="edge"><title>Node1&#45;&gt;Node3</title>
<path fill="none" stroke="midnightblue" d="M128.202,-51.405C138.274,-41.6683 150.457,-29.8914 159.065,-21.5707"/>
<polygon fill="midnightblue" stroke="midnightblue" points="125.762,-48.8952 121.005,-58.3619 130.627,-53.9281 125.762,-48.8952"/>
</g>
</g>
</svg>
