<?xml version="1.0" encoding="UTF-8" standalone="no"?>
<!DOCTYPE svg PUBLIC "-//W3C//DTD SVG 1.1//EN"
 "http://www.w3.org/Graphics/SVG/1.1/DTD/svg11.dtd">
<!-- Generated by graphviz version 2.26.3 (20100126.1600)
 -->
<!-- Title: CConfigurableDomain::addConfigurableElement Pages: 1 -->
<svg width="506pt" height="140pt"
 viewBox="0.00 0.00 506.00 140.00" xmlns="http://www.w3.org/2000/svg" xmlns:xlink="http://www.w3.org/1999/xlink">
<g id="graph1" class="graph" transform="scale(1 1) rotate(0) translate(4 136)">
<title>CConfigurableDomain::addConfigurableElement</title>
<polygon fill="white" stroke="white" points="-4,5 -4,-136 503,-136 503,5 -4,5"/>
<!-- Node1 -->
<g id="node1" class="node"><title>Node1</title>
<polygon fill="#bfbfbf" stroke="black" points="0,-46 0,-80 140,-80 140,-46 0,-46"/>
<text text-anchor="start" x="8" y="-67" font-family="Verdana" font-size="10.00">CConfigurableDomain</text>
<text text-anchor="middle" x="70" y="-54" font-family="Verdana" font-size="10.00">::addConfigurableElement</text>
</g>
<!-- Node2 -->
<g id="node3" class="node"><title>Node2</title>
<a xlink:href="classCElement.html#a7022c0fc8063f0aae9d97b06e74d4ac1" target="_top" xlink:title="CElement::getPath">
<polygon fill="white" stroke="black" points="185,-92.5 185,-113.5 291,-113.5 291,-92.5 185,-92.5"/>
<text text-anchor="middle" x="238" y="-100.5" font-family="Verdana" font-size="10.00">CElement::getPath</text>
</a>
</g>
<!-- Node1&#45;&gt;Node2 -->
<g id="edge2" class="edge"><title>Node1&#45;&gt;Node2</title>
<path fill="none" stroke="midnightblue" d="M140.274,-79.7318C154.889,-83.2117 170.074,-86.8272 183.994,-90.1415"/>
<polygon fill="midnightblue" stroke="midnightblue" points="183.342,-93.5839 193.881,-92.4954 184.963,-86.7743 183.342,-93.5839"/>
</g>
<!-- Node3 -->
<g id="node6" class="node"><title>Node3</title>
<a xlink:href="classCElement.html#a49581fb6412e29e932962acd82d52d6a" target="_top" xlink:title="CElement::getName">
<polygon fill="white" stroke="black" points="181,-52.5 181,-73.5 295,-73.5 295,-52.5 181,-52.5"/>
<text text-anchor="middle" x="238" y="-60.5" font-family="Verdana" font-size="10.00">CElement::getName</text>
</a>
</g>
<!-- Node1&#45;&gt;Node3 -->
<g id="edge6" class="edge"><title>Node1&#45;&gt;Node3</title>
<path fill="none" stroke="midnightblue" d="M140.274,-63C150.284,-63 160.561,-63 170.516,-63"/>
<polygon fill="midnightblue" stroke="midnightblue" points="170.749,-66.5001 180.749,-63 170.749,-59.5001 170.749,-66.5001"/>
</g>
<!-- Node4 -->
<g id="node8" class="node"><title>Node4</title>
<a xlink:href="classCConfigurableElement.html#ac5508cd538517568bebc5448179d9d76" target="_top" xlink:title="CConfigurableElement\l::belongsTo">
<polygon fill="white" stroke="black" points="176.5,-0 176.5,-34 299.5,-34 299.5,-0 176.5,-0"/>
<text text-anchor="start" x="184.5" y="-21" font-family="Verdana" font-size="10.00">CConfigurableElement</text>
<text text-anchor="middle" x="238" y="-8" font-family="Verdana" font-size="10.00">::belongsTo</text>
</a>
</g>
<!-- Node1&#45;&gt;Node4 -->
<g id="edge8" class="edge"><title>Node1&#45;&gt;Node4</title>
<path fill="none" stroke="midnightblue" d="M132.557,-45.8713C143.597,-42.8485 155.166,-39.6808 166.43,-36.5965"/>
<polygon fill="midnightblue" stroke="midnightblue" points="167.509,-39.9301 176.229,-33.9134 165.66,-33.1786 167.509,-39.9301"/>
</g>
<!-- Node2&#45;&gt;Node2 -->
<g id="edge4" class="edge"><title>Node2&#45;&gt;Node2</title>
<path fill="none" stroke="midnightblue" d="M211.307,-113.708C199.899,-122.653 208.797,-132 238,-132 257.165,-132 267.584,-127.975 269.259,-122.679"/>
<polygon fill="midnightblue" stroke="midnightblue" points="272.349,-121.032 264.693,-113.708 266.11,-124.208 272.349,-121.032"/>
</g>
<!-- Node5 -->
<g id="node10" class="node"><title>Node5</title>
<a xlink:href="classCConfigurableElement.html#a4ff038351f85bcb55768f3fef206866c" target="_top" xlink:title="CConfigurableElement\l::containsConfigurableDomain">
<polygon fill="white" stroke="black" points="336.5,-0 336.5,-34 497.5,-34 497.5,-0 336.5,-0"/>
<text text-anchor="start" x="344.5" y="-21" font-family="Verdana" font-size="10.00">CConfigurableElement</text>
<text text-anchor="middle" x="417" y="-8" font-family="Verdana" font-size="10.00">::containsConfigurableDomain</text>
</a>
</g>
<!-- Node4&#45;&gt;Node5 -->
<g id="edge10" class="edge"><title>Node4&#45;&gt;Node5</title>
<path fill="none" stroke="midnightblue" d="M299.602,-17C308.198,-17 317.177,-17 326.173,-17"/>
<polygon fill="midnightblue" stroke="midnightblue" points="326.318,-20.5001 336.318,-17 326.318,-13.5001 326.318,-20.5001"/>
</g>
</g>
</svg>
