<?xml version="1.0" encoding="UTF-8" standalone="no"?>
<!DOCTYPE svg PUBLIC "-//W3C//DTD SVG 1.1//EN"
 "http://www.w3.org/Graphics/SVG/1.1/DTD/svg11.dtd">
<!-- Generated by graphviz version 2.26.3 (20100126.1600)
 -->
<!-- Title: CInstanceConfigurableElement Pages: 1 -->
<svg width="542pt" height="450pt"
 viewBox="0.00 0.00 542.00 450.00" xmlns="http://www.w3.org/2000/svg" xmlns:xlink="http://www.w3.org/1999/xlink">
<g id="graph1" class="graph" transform="scale(1 1) rotate(0) translate(4 446)">
<title>CInstanceConfigurableElement</title>
<polygon fill="white" stroke="white" points="-4,5 -4,-446 539,-446 539,5 -4,5"/>
<!-- Node1 -->
<g id="node1" class="node"><title>Node1</title>
<polygon fill="#bfbfbf" stroke="black" points="239,-174.5 239,-195.5 403,-195.5 403,-174.5 239,-174.5"/>
<text text-anchor="middle" x="321" y="-182.5" font-family="Verdana" font-size="10.00">CInstanceConfigurableElement</text>
</g>
<!-- Node7 -->
<g id="node13" class="node"><title>Node7</title>
<a xlink:href="classCBaseParameter.html" target="_top" xlink:title="CBaseParameter">
<polygon fill="white" stroke="black" points="92,-116.5 92,-137.5 190,-137.5 190,-116.5 92,-116.5"/>
<text text-anchor="middle" x="141" y="-124.5" font-family="Verdana" font-size="10.00">CBaseParameter</text>
</a>
</g>
<!-- Node1&#45;&gt;Node7 -->
<g id="edge12" class="edge"><title>Node1&#45;&gt;Node7</title>
<path fill="none" stroke="midnightblue" d="M278.833,-171.413C246.718,-161.065 203.149,-147.026 173.658,-137.523"/>
<polygon fill="midnightblue" stroke="midnightblue" points="277.812,-174.761 288.403,-174.497 279.959,-168.098 277.812,-174.761"/>
</g>
<!-- Node12 -->
<g id="node23" class="node"><title>Node12</title>
<a xlink:href="classCBitParameterBlock.html" target="_top" xlink:title="CBitParameterBlock">
<polygon fill="white" stroke="black" points="208,-116.5 208,-137.5 320,-137.5 320,-116.5 208,-116.5"/>
<text text-anchor="middle" x="264" y="-124.5" font-family="Verdana" font-size="10.00">CBitParameterBlock</text>
</a>
</g>
<!-- Node1&#45;&gt;Node12 -->
<g id="edge22" class="edge"><title>Node1&#45;&gt;Node12</title>
<path fill="none" stroke="midnightblue" d="M303.426,-167.118C293.913,-157.438 282.486,-145.81 274.388,-137.571"/>
<polygon fill="midnightblue" stroke="midnightblue" points="301.04,-169.683 310.545,-174.362 306.032,-164.776 301.04,-169.683"/>
</g>
<!-- Node13 -->
<g id="node25" class="node"><title>Node13</title>
<a xlink:href="classCComponent.html" target="_top" xlink:title="CComponent">
<polygon fill="white" stroke="black" points="338,-116.5 338,-137.5 418,-137.5 418,-116.5 338,-116.5"/>
<text text-anchor="middle" x="378" y="-124.5" font-family="Verdana" font-size="10.00">CComponent</text>
</a>
</g>
<!-- Node1&#45;&gt;Node13 -->
<g id="edge24" class="edge"><title>Node1&#45;&gt;Node13</title>
<path fill="none" stroke="midnightblue" d="M338.574,-167.118C348.087,-157.438 359.514,-145.81 367.612,-137.571"/>
<polygon fill="midnightblue" stroke="midnightblue" points="335.968,-164.776 331.455,-174.362 340.96,-169.683 335.968,-164.776"/>
</g>
<!-- Node14 -->
<g id="node27" class="node"><title>Node14</title>
<a xlink:href="classCParameterBlock.html" target="_top" xlink:title="CParameterBlock">
<polygon fill="white" stroke="black" points="435.5,-116.5 435.5,-137.5 534.5,-137.5 534.5,-116.5 435.5,-116.5"/>
<text text-anchor="middle" x="485" y="-124.5" font-family="Verdana" font-size="10.00">CParameterBlock</text>
</a>
</g>
<!-- Node1&#45;&gt;Node14 -->
<g id="edge26" class="edge"><title>Node1&#45;&gt;Node14</title>
<path fill="none" stroke="midnightblue" d="M360.178,-171.144C389.363,-160.823 428.607,-146.944 455.245,-137.523"/>
<polygon fill="midnightblue" stroke="midnightblue" points="358.96,-167.863 350.699,-174.497 361.294,-174.462 358.96,-167.863"/>
</g>
<!-- Node2 -->
<g id="node2" class="node"><title>Node2</title>
<a xlink:href="classCConfigurableElementWithMapping.html" target="_top" xlink:title="Base class for all Configurable Elements that can have a Mapping attribute. ">
<polygon fill="white" stroke="black" points="249.5,-233 249.5,-267 392.5,-267 392.5,-233 249.5,-233"/>
<text text-anchor="start" x="257.5" y="-254" font-family="Verdana" font-size="10.00">CConfigurableElementWith</text>
<text text-anchor="middle" x="321" y="-241" font-family="Verdana" font-size="10.00">Mapping</text>
</a>
</g>
<!-- Node2&#45;&gt;Node1 -->
<g id="edge2" class="edge"><title>Node2&#45;&gt;Node1</title>
<path fill="none" stroke="midnightblue" d="M321,-222.688C321,-213.242 321,-203.195 321,-195.852"/>
<polygon fill="midnightblue" stroke="midnightblue" points="317.5,-222.922 321,-232.922 324.5,-222.922 317.5,-222.922"/>
</g>
<!-- Node3 -->
<g id="node4" class="node"><title>Node3</title>
<a xlink:href="classCConfigurableElement.html" target="_top" xlink:title="CConfigurableElement">
<polygon fill="white" stroke="black" points="259.5,-304.5 259.5,-325.5 382.5,-325.5 382.5,-304.5 259.5,-304.5"/>
<text text-anchor="middle" x="321" y="-312.5" font-family="Verdana" font-size="10.00">CConfigurableElement</text>
</a>
</g>
<!-- Node3&#45;&gt;Node2 -->
<g id="edge4" class="edge"><title>Node3&#45;&gt;Node2</title>
<path fill="none" stroke="midnightblue" d="M321,-294.131C321,-285.405 321,-275.391 321,-267.11"/>
<polygon fill="midnightblue" stroke="midnightblue" points="317.5,-294.267 321,-304.267 324.5,-294.267 317.5,-294.267"/>
</g>
<!-- Node4 -->
<g id="node6" class="node"><title>Node4</title>
<a xlink:href="classCElement.html" target="_top" xlink:title="CElement">
<polygon fill="white" stroke="black" points="289.5,-362.5 289.5,-383.5 352.5,-383.5 352.5,-362.5 289.5,-362.5"/>
<text text-anchor="middle" x="321" y="-370.5" font-family="Verdana" font-size="10.00">CElement</text>
</a>
</g>
<!-- Node4&#45;&gt;Node3 -->
<g id="edge6" class="edge"><title>Node4&#45;&gt;Node3</title>
<path fill="none" stroke="midnightblue" d="M321,-352.191C321,-343.168 321,-332.994 321,-325.571"/>
<polygon fill="midnightblue" stroke="midnightblue" points="317.5,-352.362 321,-362.362 324.5,-352.362 317.5,-352.362"/>
</g>
<!-- Node5 -->
<g id="node8" class="node"><title>Node5</title>
<polygon fill="white" stroke="#bfbfbf" points="252.5,-420.5 252.5,-441.5 309.5,-441.5 309.5,-420.5 252.5,-420.5"/>
<text text-anchor="middle" x="281" y="-428.5" font-family="Verdana" font-size="10.00">IXmlSink</text>
</g>
<!-- Node5&#45;&gt;Node4 -->
<g id="edge8" class="edge"><title>Node5&#45;&gt;Node4</title>
<path fill="none" stroke="midnightblue" d="M294.132,-411.959C300.64,-402.522 308.253,-391.484 313.71,-383.571"/>
<polygon fill="midnightblue" stroke="midnightblue" points="291.133,-410.143 288.337,-420.362 296.895,-414.117 291.133,-410.143"/>
</g>
<!-- Node6 -->
<g id="node10" class="node"><title>Node6</title>
<polygon fill="white" stroke="#bfbfbf" points="326.5,-420.5 326.5,-441.5 397.5,-441.5 397.5,-420.5 326.5,-420.5"/>
<text text-anchor="middle" x="362" y="-428.5" font-family="Verdana" font-size="10.00">IXmlSource</text>
</g>
<!-- Node6&#45;&gt;Node4 -->
<g id="edge10" class="edge"><title>Node6&#45;&gt;Node4</title>
<path fill="none" stroke="midnightblue" d="M348.54,-411.959C341.869,-402.522 334.066,-391.484 328.472,-383.571"/>
<polygon fill="midnightblue" stroke="midnightblue" points="345.85,-414.216 354.48,-420.362 351.566,-410.176 345.85,-414.216"/>
</g>
<!-- Node8 -->
<g id="node15" class="node"><title>Node8</title>
<a xlink:href="classCBitParameter.html" target="_top" xlink:title="CBitParameter">
<polygon fill="white" stroke="black" points="0,-58.5 0,-79.5 86,-79.5 86,-58.5 0,-58.5"/>
<text text-anchor="middle" x="43" y="-66.5" font-family="Verdana" font-size="10.00">CBitParameter</text>
</a>
</g>
<!-- Node7&#45;&gt;Node8 -->
<g id="edge14" class="edge"><title>Node7&#45;&gt;Node8</title>
<path fill="none" stroke="midnightblue" d="M114.136,-111.101C97.1802,-101.066 75.7469,-88.3808 60.8608,-79.5707"/>
<polygon fill="midnightblue" stroke="midnightblue" points="112.637,-114.281 123.025,-116.362 116.202,-108.257 112.637,-114.281"/>
</g>
<!-- Node9 -->
<g id="node17" class="node"><title>Node9</title>
<a xlink:href="classCParameter.html" target="_top" xlink:title="CParameter">
<polygon fill="white" stroke="black" points="104,-58.5 104,-79.5 178,-79.5 178,-58.5 104,-58.5"/>
<text text-anchor="middle" x="141" y="-66.5" font-family="Verdana" font-size="10.00">CParameter</text>
</a>
</g>
<!-- Node7&#45;&gt;Node9 -->
<g id="edge16" class="edge"><title>Node7&#45;&gt;Node9</title>
<path fill="none" stroke="midnightblue" d="M141,-106.191C141,-97.1684 141,-86.9941 141,-79.5707"/>
<polygon fill="midnightblue" stroke="midnightblue" points="137.5,-106.362 141,-116.362 144.5,-106.362 137.5,-106.362"/>
</g>
<!-- Node11 -->
<g id="node21" class="node"><title>Node11</title>
<a xlink:href="classCStringParameter.html" target="_top" xlink:title="CStringParameter">
<polygon fill="white" stroke="black" points="196,-58.5 196,-79.5 298,-79.5 298,-58.5 196,-58.5"/>
<text text-anchor="middle" x="247" y="-66.5" font-family="Verdana" font-size="10.00">CStringParameter</text>
</a>
</g>
<!-- Node7&#45;&gt;Node11 -->
<g id="edge20" class="edge"><title>Node7&#45;&gt;Node11</title>
<path fill="none" stroke="midnightblue" d="M169.296,-111.517C187.752,-101.419 211.356,-88.5032 227.681,-79.5707"/>
<polygon fill="midnightblue" stroke="midnightblue" points="167.535,-108.491 160.442,-116.362 170.895,-114.632 167.535,-108.491"/>
</g>
<!-- Node10 -->
<g id="node19" class="node"><title>Node10</title>
<a xlink:href="classCArrayParameter.html" target="_top" xlink:title="CArrayParameter">
<polygon fill="white" stroke="black" points="91.5,-0.5 91.5,-21.5 190.5,-21.5 190.5,-0.5 91.5,-0.5"/>
<text text-anchor="middle" x="141" y="-8.5" font-family="Verdana" font-size="10.00">CArrayParameter</text>
</a>
</g>
<!-- Node9&#45;&gt;Node10 -->
<g id="edge18" class="edge"><title>Node9&#45;&gt;Node10</title>
<path fill="none" stroke="midnightblue" d="M141,-48.1906C141,-39.1684 141,-28.9941 141,-21.5707"/>
<polygon fill="midnightblue" stroke="midnightblue" points="137.5,-48.3619 141,-58.3619 144.5,-48.3619 137.5,-48.3619"/>
</g>
</g>
</svg>
