<?xml version="1.0" encoding="UTF-8" standalone="no"?>
<!DOCTYPE svg PUBLIC "-//W3C//DTD SVG 1.1//EN"
 "http://www.w3.org/Graphics/SVG/1.1/DTD/svg11.dtd">
<!-- Generated by graphviz version 2.26.3 (20100126.1600)
 -->
<!-- Title: CConfigurableDomain::validate Pages: 1 -->
<svg width="518pt" height="70pt"
 viewBox="0.00 0.00 518.00 70.00" xmlns="http://www.w3.org/2000/svg" xmlns:xlink="http://www.w3.org/1999/xlink">
<g id="graph1" class="graph" transform="scale(1 1) rotate(0) translate(4 66)">
<title>CConfigurableDomain::validate</title>
<polygon fill="white" stroke="white" points="-4,5 -4,-66 515,-66 515,5 -4,5"/>
<!-- Node1 -->
<g id="node1" class="node"><title>Node1</title>
<polygon fill="#bfbfbf" stroke="black" points="0.5,-14 0.5,-48 121.5,-48 121.5,-14 0.5,-14"/>
<text text-anchor="start" x="8.5" y="-35" font-family="Verdana" font-size="10.00">CConfigurableDomain</text>
<text text-anchor="middle" x="61" y="-22" font-family="Verdana" font-size="10.00">::validate</text>
</g>
<!-- Node2 -->
<g id="node3" class="node"><title>Node2</title>
<a xlink:href="classCConfigurableDomains.html#a6fd812eea1fd18c0d4fa14ec33b57fd5" target="_top" xlink:title="CConfigurableDomains\l::validate">
<polygon fill="white" stroke="black" points="158,-14 158,-48 284,-48 284,-14 158,-14"/>
<text text-anchor="start" x="166" y="-35" font-family="Verdana" font-size="10.00">CConfigurableDomains</text>
<text text-anchor="middle" x="221" y="-22" font-family="Verdana" font-size="10.00">::validate</text>
</a>
</g>
<!-- Node1&#45;&gt;Node2 -->
<g id="edge2" class="edge"><title>Node1&#45;&gt;Node2</title>
<path fill="none" stroke="midnightblue" d="M131.97,-31C140.585,-31 149.341,-31 157.833,-31"/>
<polygon fill="midnightblue" stroke="midnightblue" points="131.946,-27.5001 121.946,-31 131.946,-34.5001 131.946,-27.5001"/>
</g>
<!-- Node3 -->
<g id="node5" class="node"><title>Node3</title>
<a xlink:href="classCParameterMgr.html#aad4830a40d67cfae091cbf1a15ff29d0" target="_top" xlink:title="Load plugins, structures and settings from the config file given. ">
<polygon fill="white" stroke="black" points="356,-40.5 356,-61.5 474,-61.5 474,-40.5 356,-40.5"/>
<text text-anchor="middle" x="415" y="-48.5" font-family="Verdana" font-size="10.00">CParameterMgr::load</text>
</a>
</g>
<!-- Node2&#45;&gt;Node3 -->
<g id="edge4" class="edge"><title>Node2&#45;&gt;Node3</title>
<path fill="none" stroke="midnightblue" d="M294.389,-38.5659C314.669,-40.6566 336.416,-42.8985 355.781,-44.8949"/>
<polygon fill="midnightblue" stroke="midnightblue" points="294.561,-35.0651 284.254,-37.5211 293.843,-42.0282 294.561,-35.0651"/>
</g>
<!-- Node4 -->
<g id="node7" class="node"><title>Node4</title>
<a xlink:href="classCParameterMgr.html#ab17dc57a1b642c10df433c2c971f93c0" target="_top" xlink:title="Method that imports Configurable Domains from an Xml source. ">
<polygon fill="white" stroke="black" points="320,-0.5 320,-21.5 510,-21.5 510,-0.5 320,-0.5"/>
<text text-anchor="middle" x="415" y="-8.5" font-family="Verdana" font-size="10.00">CParameterMgr::importDomainsXml</text>
</a>
</g>
<!-- Node2&#45;&gt;Node4 -->
<g id="edge6" class="edge"><title>Node2&#45;&gt;Node4</title>
<path fill="none" stroke="midnightblue" d="M294.29,-23.4443C302.634,-22.5841 311.228,-21.6982 319.802,-20.8142"/>
<polygon fill="midnightblue" stroke="midnightblue" points="293.843,-19.9718 284.254,-24.4789 294.561,-26.9349 293.843,-19.9718"/>
</g>
</g>
</svg>
