<?xml version="1.0" encoding="UTF-8" standalone="no"?>
<!DOCTYPE svg PUBLIC "-//W3C//DTD SVG 1.1//EN"
 "http://www.w3.org/Graphics/SVG/1.1/DTD/svg11.dtd">
<!-- Generated by graphviz version 2.26.3 (20100126.1600)
 -->
<!-- Title: CConfigurableDomain::validate Pages: 1 -->
<svg width="756pt" height="122pt"
 viewBox="0.00 0.00 756.00 122.00" xmlns="http://www.w3.org/2000/svg" xmlns:xlink="http://www.w3.org/1999/xlink">
<g id="graph1" class="graph" transform="scale(1 1) rotate(0) translate(4 118)">
<title>CConfigurableDomain::validate</title>
<polygon fill="white" stroke="white" points="-4,5 -4,-118 753,-118 753,5 -4,5"/>
<!-- Node1 -->
<g id="node1" class="node"><title>Node1</title>
<polygon fill="#bfbfbf" stroke="black" points="0.5,-46 0.5,-80 121.5,-80 121.5,-46 0.5,-46"/>
<text text-anchor="start" x="8.5" y="-67" font-family="Verdana" font-size="10.00">CConfigurableDomain</text>
<text text-anchor="middle" x="61" y="-54" font-family="Verdana" font-size="10.00">::validate</text>
</g>
<!-- Node2 -->
<g id="node3" class="node"><title>Node2</title>
<a xlink:href="classCElement.html#a25f58d9d8b35e770806d669fb2a378e4" target="_top" xlink:title="CElement::getNbChildren">
<polygon fill="white" stroke="black" points="158.5,-92.5 158.5,-113.5 295.5,-113.5 295.5,-92.5 158.5,-92.5"/>
<text text-anchor="middle" x="227" y="-100.5" font-family="Verdana" font-size="10.00">CElement::getNbChildren</text>
</a>
</g>
<!-- Node1&#45;&gt;Node2 -->
<g id="edge2" class="edge"><title>Node1&#45;&gt;Node2</title>
<path fill="none" stroke="midnightblue" d="M121.87,-77.6674C138.728,-81.7296 156.9,-86.1084 173.316,-90.0642"/>
<polygon fill="midnightblue" stroke="midnightblue" points="172.742,-93.5259 183.284,-92.466 174.382,-86.7207 172.742,-93.5259"/>
</g>
<!-- Node3 -->
<g id="node5" class="node"><title>Node3</title>
<a xlink:href="classCElement.html#a41bf126c3fdbb5bec0c2c3dcf35e9079" target="_top" xlink:title="CElement::getChild">
<polygon fill="white" stroke="black" points="173,-52.5 173,-73.5 281,-73.5 281,-52.5 173,-52.5"/>
<text text-anchor="middle" x="227" y="-60.5" font-family="Verdana" font-size="10.00">CElement::getChild</text>
</a>
</g>
<!-- Node1&#45;&gt;Node3 -->
<g id="edge4" class="edge"><title>Node1&#45;&gt;Node3</title>
<path fill="none" stroke="midnightblue" d="M121.87,-63C135.216,-63 149.386,-63 162.856,-63"/>
<polygon fill="midnightblue" stroke="midnightblue" points="162.995,-66.5001 172.995,-63 162.995,-59.5001 162.995,-66.5001"/>
</g>
<!-- Node4 -->
<g id="node7" class="node"><title>Node4</title>
<a xlink:href="classCDomainConfiguration.html#a10c3a1e0899400ecd23a90fb7dc4e4e6" target="_top" xlink:title="CDomainConfiguration\l::validate">
<polygon fill="white" stroke="black" points="164.5,-0 164.5,-34 289.5,-34 289.5,-0 164.5,-0"/>
<text text-anchor="start" x="172.5" y="-21" font-family="Verdana" font-size="10.00">CDomainConfiguration</text>
<text text-anchor="middle" x="227" y="-8" font-family="Verdana" font-size="10.00">::validate</text>
</a>
</g>
<!-- Node1&#45;&gt;Node4 -->
<g id="edge6" class="edge"><title>Node1&#45;&gt;Node4</title>
<path fill="none" stroke="midnightblue" d="M121.87,-46.1325C132.891,-43.0784 144.474,-39.8686 155.761,-36.7409"/>
<polygon fill="midnightblue" stroke="midnightblue" points="156.88,-40.0629 165.582,-34.0194 155.011,-33.3171 156.88,-40.0629"/>
</g>
<!-- Node5 -->
<g id="node9" class="node"><title>Node5</title>
<a xlink:href="classCAreaConfiguration.html#a9c0ddade93f42f2ed315dd3a0719933c" target="_top" xlink:title="CAreaConfiguration\l::validate">
<polygon fill="white" stroke="black" points="332,-0 332,-34 442,-34 442,-0 332,-0"/>
<text text-anchor="start" x="340" y="-21" font-family="Verdana" font-size="10.00">CAreaConfiguration</text>
<text text-anchor="middle" x="387" y="-8" font-family="Verdana" font-size="10.00">::validate</text>
</a>
</g>
<!-- Node4&#45;&gt;Node5 -->
<g id="edge8" class="edge"><title>Node4&#45;&gt;Node5</title>
<path fill="none" stroke="midnightblue" d="M289.777,-17C300.326,-17 311.294,-17 321.9,-17"/>
<polygon fill="midnightblue" stroke="midnightblue" points="321.933,-20.5001 331.933,-17 321.933,-13.5001 321.933,-20.5001"/>
</g>
<!-- Node6 -->
<g id="node11" class="node"><title>Node6</title>
<a xlink:href="classCAreaConfiguration.html#a0ab61255d58c402f059aceb6668b943d" target="_top" xlink:title="CAreaConfiguration\l::save">
<polygon fill="white" stroke="black" points="478,-0 478,-34 588,-34 588,-0 478,-0"/>
<text text-anchor="start" x="486" y="-21" font-family="Verdana" font-size="10.00">CAreaConfiguration</text>
<text text-anchor="middle" x="533" y="-8" font-family="Verdana" font-size="10.00">::save</text>
</a>
</g>
<!-- Node5&#45;&gt;Node6 -->
<g id="edge10" class="edge"><title>Node5&#45;&gt;Node6</title>
<path fill="none" stroke="midnightblue" d="M442.196,-17C450.463,-17 459.055,-17 467.51,-17"/>
<polygon fill="midnightblue" stroke="midnightblue" points="467.726,-20.5001 477.726,-17 467.726,-13.5001 467.726,-20.5001"/>
</g>
<!-- Node7 -->
<g id="node13" class="node"><title>Node7</title>
<a xlink:href="classCConfigurableElement.html#a29d61e6d09ff508ebb87aea802f2704e" target="_top" xlink:title="CConfigurableElement\l::getOffset">
<polygon fill="white" stroke="black" points="624.5,-0 624.5,-34 747.5,-34 747.5,-0 624.5,-0"/>
<text text-anchor="start" x="632.5" y="-21" font-family="Verdana" font-size="10.00">CConfigurableElement</text>
<text text-anchor="middle" x="686" y="-8" font-family="Verdana" font-size="10.00">::getOffset</text>
</a>
</g>
<!-- Node6&#45;&gt;Node7 -->
<g id="edge12" class="edge"><title>Node6&#45;&gt;Node7</title>
<path fill="none" stroke="midnightblue" d="M588.237,-17C596.665,-17 605.468,-17 614.189,-17"/>
<polygon fill="midnightblue" stroke="midnightblue" points="614.362,-20.5001 624.362,-17 614.362,-13.5001 614.362,-20.5001"/>
</g>
</g>
</svg>
