<?xml version="1.0" encoding="UTF-8" standalone="no"?>
<!DOCTYPE svg PUBLIC "-//W3C//DTD SVG 1.1//EN"
 "http://www.w3.org/Graphics/SVG/1.1/DTD/svg11.dtd">
<!-- Generated by graphviz version 2.26.3 (20100126.1600)
 -->
<!-- Title: CConfigurableElement::listRogueElements Pages: 1 -->
<svg width="346pt" height="152pt"
 viewBox="0.00 0.00 346.00 152.00" xmlns="http://www.w3.org/2000/svg" xmlns:xlink="http://www.w3.org/1999/xlink">
<g id="graph1" class="graph" transform="scale(1 1) rotate(0) translate(4 148)">
<title>CConfigurableElement::listRogueElements</title>
<polygon fill="white" stroke="white" points="-4,5 -4,-148 343,-148 343,5 -4,5"/>
<!-- Node1 -->
<g id="node1" class="node"><title>Node1</title>
<polygon fill="#bfbfbf" stroke="black" points="0.5,-58 0.5,-92 123.5,-92 123.5,-58 0.5,-58"/>
<text text-anchor="start" x="8.5" y="-79" font-family="Verdana" font-size="10.00">CConfigurableElement</text>
<text text-anchor="middle" x="62" y="-66" font-family="Verdana" font-size="10.00">::listRogueElements</text>
</g>
<!-- Node2 -->
<g id="node3" class="node"><title>Node2</title>
<a xlink:href="classCConfigurableElement.html#a08cbc876b52d1e58ade956a8191b1ee3" target="_top" xlink:title="CConfigurableElement\l::hasNoDomainAssociated">
<polygon fill="white" stroke="black" points="177.5,-110 177.5,-144 320.5,-144 320.5,-110 177.5,-110"/>
<text text-anchor="start" x="185.5" y="-131" font-family="Verdana" font-size="10.00">CConfigurableElement</text>
<text text-anchor="middle" x="249" y="-118" font-family="Verdana" font-size="10.00">::hasNoDomainAssociated</text>
</a>
</g>
<!-- Node1&#45;&gt;Node2 -->
<g id="edge2" class="edge"><title>Node1&#45;&gt;Node2</title>
<path fill="none" stroke="midnightblue" d="M123.231,-92.0267C140.666,-96.8752 159.808,-102.198 177.784,-107.197"/>
<polygon fill="midnightblue" stroke="midnightblue" points="177.059,-110.628 187.632,-109.935 178.935,-103.884 177.059,-110.628"/>
</g>
<!-- Node3 -->
<g id="node5" class="node"><title>Node3</title>
<a xlink:href="classCConfigurableElementAggregator.html#a2cc804d11a5ec48d098ecb34be7c9c36" target="_top" xlink:title="CConfigurableElementAggregator\l::aggegate">
<polygon fill="white" stroke="black" points="160.5,-58 160.5,-92 337.5,-92 337.5,-58 160.5,-58"/>
<text text-anchor="start" x="168.5" y="-79" font-family="Verdana" font-size="10.00">CConfigurableElementAggregator</text>
<text text-anchor="middle" x="249" y="-66" font-family="Verdana" font-size="10.00">::aggegate</text>
</a>
</g>
<!-- Node1&#45;&gt;Node3 -->
<g id="edge4" class="edge"><title>Node1&#45;&gt;Node3</title>
<path fill="none" stroke="midnightblue" d="M123.749,-75C132.252,-75 141.151,-75 150.118,-75"/>
<polygon fill="midnightblue" stroke="midnightblue" points="150.251,-78.5001 160.251,-75 150.251,-71.5001 150.251,-78.5001"/>
</g>
<!-- Node4 -->
<g id="node7" class="node"><title>Node4</title>
<a xlink:href="classCElement.html#a7022c0fc8063f0aae9d97b06e74d4ac1" target="_top" xlink:title="CElement::getPath">
<polygon fill="white" stroke="black" points="196,-0.5 196,-21.5 302,-21.5 302,-0.5 196,-0.5"/>
<text text-anchor="middle" x="249" y="-8.5" font-family="Verdana" font-size="10.00">CElement::getPath</text>
</a>
</g>
<!-- Node1&#45;&gt;Node4 -->
<g id="edge6" class="edge"><title>Node1&#45;&gt;Node4</title>
<path fill="none" stroke="midnightblue" d="M112.113,-57.8492C142.307,-47.5153 180.258,-34.5268 208.537,-24.8483"/>
<polygon fill="midnightblue" stroke="midnightblue" points="209.78,-28.1224 218.108,-21.5728 207.513,-21.4995 209.78,-28.1224"/>
</g>
<!-- Node4&#45;&gt;Node4 -->
<g id="edge8" class="edge"><title>Node4&#45;&gt;Node4</title>
<path fill="none" stroke="midnightblue" d="M219.447,-21.7079C206.817,-30.6531 216.668,-40 249,-40 270.723,-40 282.298,-35.7807 283.725,-30.2987"/>
<polygon fill="midnightblue" stroke="midnightblue" points="286.709,-28.4705 278.553,-21.7079 280.712,-32.0805 286.709,-28.4705"/>
</g>
</g>
</svg>
