<?xml version="1.0" encoding="UTF-8" standalone="no"?>
<!DOCTYPE svg PUBLIC "-//W3C//DTD SVG 1.1//EN"
 "http://www.w3.org/Graphics/SVG/1.1/DTD/svg11.dtd">
<!-- Generated by graphviz version 2.26.3 (20100126.1600)
 -->
<!-- Title: CRemoteProcessorServer::start Pages: 1 -->
<svg width="484pt" height="70pt"
 viewBox="0.00 0.00 484.00 70.00" xmlns="http://www.w3.org/2000/svg" xmlns:xlink="http://www.w3.org/1999/xlink">
<g id="graph1" class="graph" transform="scale(1 1) rotate(0) translate(4 66)">
<title>CRemoteProcessorServer::start</title>
<polygon fill="white" stroke="white" points="-4,5 -4,-66 481,-66 481,5 -4,5"/>
<!-- Node1 -->
<g id="node1" class="node"><title>Node1</title>
<polygon fill="#bfbfbf" stroke="black" points="0.5,-14 0.5,-48 139.5,-48 139.5,-14 0.5,-14"/>
<text text-anchor="start" x="8.5" y="-35" font-family="Verdana" font-size="10.00">CRemoteProcessorServer</text>
<text text-anchor="middle" x="70" y="-22" font-family="Verdana" font-size="10.00">::start</text>
</g>
<!-- Node2 -->
<g id="node3" class="node"><title>Node2</title>
<a xlink:href="classCListeningSocket.html#acff2692663749656e0ba960cb5726154" target="_top" xlink:title="CListeningSocket::listen">
<polygon fill="white" stroke="black" points="176.5,-20.5 176.5,-41.5 307.5,-41.5 307.5,-20.5 176.5,-20.5"/>
<text text-anchor="middle" x="242" y="-28.5" font-family="Verdana" font-size="10.00">CListeningSocket::listen</text>
</a>
</g>
<!-- Node1&#45;&gt;Node2 -->
<g id="edge2" class="edge"><title>Node1&#45;&gt;Node2</title>
<path fill="none" stroke="midnightblue" d="M139.959,-31C148.582,-31 157.429,-31 166.135,-31"/>
<polygon fill="midnightblue" stroke="midnightblue" points="166.269,-34.5001 176.269,-31 166.269,-27.5001 166.269,-34.5001"/>
</g>
<!-- Node3 -->
<g id="node5" class="node"><title>Node3</title>
<a xlink:href="classCSocket.html#a489715f4b7fc3e5b5efd832766208acd" target="_top" xlink:title="CSocket::initSockAddrIn">
<polygon fill="white" stroke="black" points="344.5,-40.5 344.5,-61.5 475.5,-61.5 475.5,-40.5 344.5,-40.5"/>
<text text-anchor="middle" x="410" y="-48.5" font-family="Verdana" font-size="10.00">CSocket::initSockAddrIn</text>
</a>
</g>
<!-- Node2&#45;&gt;Node3 -->
<g id="edge4" class="edge"><title>Node2&#45;&gt;Node3</title>
<path fill="none" stroke="midnightblue" d="M307.916,-38.8471C316.505,-39.8697 325.359,-40.9237 334.096,-41.9638"/>
<polygon fill="midnightblue" stroke="midnightblue" points="333.931,-45.4687 344.274,-43.1755 334.758,-38.5178 333.931,-45.4687"/>
</g>
<!-- Node4 -->
<g id="node7" class="node"><title>Node4</title>
<a xlink:href="classCSocket.html#aa925e6f828f6084610bb19c80709ff0a" target="_top" xlink:title="CSocket::getFd">
<polygon fill="white" stroke="black" points="365.5,-0.5 365.5,-21.5 454.5,-21.5 454.5,-0.5 365.5,-0.5"/>
<text text-anchor="middle" x="410" y="-8.5" font-family="Verdana" font-size="10.00">CSocket::getFd</text>
</a>
</g>
<!-- Node2&#45;&gt;Node4 -->
<g id="edge6" class="edge"><title>Node2&#45;&gt;Node4</title>
<path fill="none" stroke="midnightblue" d="M307.916,-23.1529C323.601,-21.2856 340.169,-19.3132 355.289,-17.5132"/>
<polygon fill="midnightblue" stroke="midnightblue" points="355.981,-20.9556 365.498,-16.2979 355.154,-14.0047 355.981,-20.9556"/>
</g>
</g>
</svg>
