<?xml version="1.0" encoding="UTF-8" standalone="no"?>
<!DOCTYPE svg PUBLIC "-//W3C//DTD SVG 1.1//EN"
 "http://www.w3.org/Graphics/SVG/1.1/DTD/svg11.dtd">
<!-- Generated by graphviz version 2.26.3 (20100126.1600)
 -->
<!-- Title: CConfigurableDomains::validate Pages: 1 -->
<svg width="918pt" height="122pt"
 viewBox="0.00 0.00 918.00 122.00" xmlns="http://www.w3.org/2000/svg" xmlns:xlink="http://www.w3.org/1999/xlink">
<g id="graph1" class="graph" transform="scale(1 1) rotate(0) translate(4 118)">
<title>CConfigurableDomains::validate</title>
<polygon fill="white" stroke="white" points="-4,5 -4,-118 915,-118 915,5 -4,5"/>
<!-- Node1 -->
<g id="node1" class="node"><title>Node1</title>
<polygon fill="#bfbfbf" stroke="black" points="0,-40 0,-74 126,-74 126,-40 0,-40"/>
<text text-anchor="start" x="8" y="-61" font-family="Verdana" font-size="10.00">CConfigurableDomains</text>
<text text-anchor="middle" x="63" y="-48" font-family="Verdana" font-size="10.00">::validate</text>
</g>
<!-- Node2 -->
<g id="node3" class="node"><title>Node2</title>
<a xlink:href="classCElement.html#a25f58d9d8b35e770806d669fb2a378e4" target="_top" xlink:title="CElement::getNbChildren">
<polygon fill="white" stroke="black" points="320.5,-92.5 320.5,-113.5 457.5,-113.5 457.5,-92.5 320.5,-92.5"/>
<text text-anchor="middle" x="389" y="-100.5" font-family="Verdana" font-size="10.00">CElement::getNbChildren</text>
</a>
</g>
<!-- Node1&#45;&gt;Node2 -->
<g id="edge2" class="edge"><title>Node1&#45;&gt;Node2</title>
<path fill="none" stroke="midnightblue" d="M121.271,-74.0508C134.564,-77.4513 148.695,-80.6838 162,-83 210.906,-91.5135 266.404,-96.4862 310.284,-99.3437"/>
<polygon fill="midnightblue" stroke="midnightblue" points="310.118,-102.84 320.317,-99.9736 310.556,-95.8538 310.118,-102.84"/>
</g>
<!-- Node3 -->
<g id="node5" class="node"><title>Node3</title>
<a xlink:href="classCElement.html#a41bf126c3fdbb5bec0c2c3dcf35e9079" target="_top" xlink:title="CElement::getChild">
<polygon fill="white" stroke="black" points="335,-0.5 335,-21.5 443,-21.5 443,-0.5 335,-0.5"/>
<text text-anchor="middle" x="389" y="-8.5" font-family="Verdana" font-size="10.00">CElement::getChild</text>
</a>
</g>
<!-- Node1&#45;&gt;Node3 -->
<g id="edge4" class="edge"><title>Node1&#45;&gt;Node3</title>
<path fill="none" stroke="midnightblue" d="M121.271,-39.9492C134.564,-36.5487 148.695,-33.3162 162,-31 216.354,-21.5381 278.85,-16.45 324.489,-13.7781"/>
<polygon fill="midnightblue" stroke="midnightblue" points="324.757,-17.2687 334.544,-13.2126 324.364,-10.2798 324.757,-17.2687"/>
</g>
<!-- Node4 -->
<g id="node7" class="node"><title>Node4</title>
<a xlink:href="classCConfigurableDomain.html#a2df6f85b21fa2ccbecc4a1c6d01ae2ed" target="_top" xlink:title="CConfigurableDomain\l::validate">
<polygon fill="white" stroke="black" points="162.5,-40 162.5,-74 283.5,-74 283.5,-40 162.5,-40"/>
<text text-anchor="start" x="170.5" y="-61" font-family="Verdana" font-size="10.00">CConfigurableDomain</text>
<text text-anchor="middle" x="223" y="-48" font-family="Verdana" font-size="10.00">::validate</text>
</a>
</g>
<!-- Node1&#45;&gt;Node4 -->
<g id="edge6" class="edge"><title>Node1&#45;&gt;Node4</title>
<path fill="none" stroke="midnightblue" d="M126.236,-57C134.775,-57 143.58,-57 152.239,-57"/>
<polygon fill="midnightblue" stroke="midnightblue" points="152.311,-60.5001 162.311,-57 152.311,-53.5001 152.311,-60.5001"/>
</g>
<!-- Node4&#45;&gt;Node2 -->
<g id="edge8" class="edge"><title>Node4&#45;&gt;Node2</title>
<path fill="none" stroke="midnightblue" d="M283.87,-73.8675C302.589,-79.0547 322.928,-84.6908 340.684,-89.6113"/>
<polygon fill="midnightblue" stroke="midnightblue" points="340.237,-93.1193 350.809,-92.4169 342.107,-86.3735 340.237,-93.1193"/>
</g>
<!-- Node4&#45;&gt;Node3 -->
<g id="edge10" class="edge"><title>Node4&#45;&gt;Node3</title>
<path fill="none" stroke="midnightblue" d="M283.87,-40.1325C302.589,-34.9453 322.928,-29.3092 340.684,-24.3887"/>
<polygon fill="midnightblue" stroke="midnightblue" points="342.107,-27.6265 350.809,-21.5831 340.237,-20.8807 342.107,-27.6265"/>
</g>
<!-- Node5 -->
<g id="node11" class="node"><title>Node5</title>
<a xlink:href="classCDomainConfiguration.html#a10c3a1e0899400ecd23a90fb7dc4e4e6" target="_top" xlink:title="CDomainConfiguration\l::validate">
<polygon fill="white" stroke="black" points="326.5,-40 326.5,-74 451.5,-74 451.5,-40 326.5,-40"/>
<text text-anchor="start" x="334.5" y="-61" font-family="Verdana" font-size="10.00">CDomainConfiguration</text>
<text text-anchor="middle" x="389" y="-48" font-family="Verdana" font-size="10.00">::validate</text>
</a>
</g>
<!-- Node4&#45;&gt;Node5 -->
<g id="edge12" class="edge"><title>Node4&#45;&gt;Node5</title>
<path fill="none" stroke="midnightblue" d="M283.87,-57C294.388,-57 305.418,-57 316.213,-57"/>
<polygon fill="midnightblue" stroke="midnightblue" points="316.468,-60.5001 326.468,-57 316.468,-53.5001 316.468,-60.5001"/>
</g>
<!-- Node6 -->
<g id="node13" class="node"><title>Node6</title>
<a xlink:href="classCAreaConfiguration.html#a9c0ddade93f42f2ed315dd3a0719933c" target="_top" xlink:title="CAreaConfiguration\l::validate">
<polygon fill="white" stroke="black" points="494,-40 494,-74 604,-74 604,-40 494,-40"/>
<text text-anchor="start" x="502" y="-61" font-family="Verdana" font-size="10.00">CAreaConfiguration</text>
<text text-anchor="middle" x="549" y="-48" font-family="Verdana" font-size="10.00">::validate</text>
</a>
</g>
<!-- Node5&#45;&gt;Node6 -->
<g id="edge14" class="edge"><title>Node5&#45;&gt;Node6</title>
<path fill="none" stroke="midnightblue" d="M451.777,-57C462.326,-57 473.294,-57 483.9,-57"/>
<polygon fill="midnightblue" stroke="midnightblue" points="483.933,-60.5001 493.933,-57 483.933,-53.5001 483.933,-60.5001"/>
</g>
<!-- Node7 -->
<g id="node15" class="node"><title>Node7</title>
<a xlink:href="classCAreaConfiguration.html#a0ab61255d58c402f059aceb6668b943d" target="_top" xlink:title="CAreaConfiguration\l::save">
<polygon fill="white" stroke="black" points="640,-40 640,-74 750,-74 750,-40 640,-40"/>
<text text-anchor="start" x="648" y="-61" font-family="Verdana" font-size="10.00">CAreaConfiguration</text>
<text text-anchor="middle" x="695" y="-48" font-family="Verdana" font-size="10.00">::save</text>
</a>
</g>
<!-- Node6&#45;&gt;Node7 -->
<g id="edge16" class="edge"><title>Node6&#45;&gt;Node7</title>
<path fill="none" stroke="midnightblue" d="M604.196,-57C612.463,-57 621.055,-57 629.51,-57"/>
<polygon fill="midnightblue" stroke="midnightblue" points="629.726,-60.5001 639.726,-57 629.726,-53.5001 629.726,-60.5001"/>
</g>
<!-- Node8 -->
<g id="node17" class="node"><title>Node8</title>
<a xlink:href="classCConfigurableElement.html#a29d61e6d09ff508ebb87aea802f2704e" target="_top" xlink:title="CConfigurableElement\l::getOffset">
<polygon fill="white" stroke="black" points="786.5,-40 786.5,-74 909.5,-74 909.5,-40 786.5,-40"/>
<text text-anchor="start" x="794.5" y="-61" font-family="Verdana" font-size="10.00">CConfigurableElement</text>
<text text-anchor="middle" x="848" y="-48" font-family="Verdana" font-size="10.00">::getOffset</text>
</a>
</g>
<!-- Node7&#45;&gt;Node8 -->
<g id="edge18" class="edge"><title>Node7&#45;&gt;Node8</title>
<path fill="none" stroke="midnightblue" d="M750.237,-57C758.665,-57 767.468,-57 776.189,-57"/>
<polygon fill="midnightblue" stroke="midnightblue" points="776.362,-60.5001 786.362,-57 776.362,-53.5001 776.362,-60.5001"/>
</g>
</g>
</svg>
