<?xml version="1.0" encoding="UTF-8" standalone="no"?>
<!DOCTYPE svg PUBLIC "-//W3C//DTD SVG 1.1//EN"
 "http://www.w3.org/Graphics/SVG/1.1/DTD/svg11.dtd">
<!-- Generated by graphviz version 2.26.3 (20100126.1600)
 -->
<!-- Title: CMappingData::asString Pages: 1 -->
<svg width="534pt" height="42pt"
 viewBox="0.00 0.00 534.00 42.00" xmlns="http://www.w3.org/2000/svg" xmlns:xlink="http://www.w3.org/1999/xlink">
<g id="graph1" class="graph" transform="scale(1 1) rotate(0) translate(4 38)">
<title>CMappingData::asString</title>
<polygon fill="white" stroke="white" points="-4,5 -4,-38 531,-38 531,5 -4,5"/>
<!-- Node1 -->
<g id="node1" class="node"><title>Node1</title>
<polygon fill="#bfbfbf" stroke="black" points="0.5,-6.5 0.5,-27.5 133.5,-27.5 133.5,-6.5 0.5,-6.5"/>
<text text-anchor="middle" x="67" y="-14.5" font-family="Verdana" font-size="10.00">CMappingData::asString</text>
</g>
<!-- Node2 -->
<g id="node3" class="node"><title>Node2</title>
<a xlink:href="classCTypeElement.html#a2d4fd9d4443f521e563ef1b6188aeeba" target="_top" xlink:title="Returns the mapping associated to the current TypeElement instance. ">
<polygon fill="white" stroke="black" points="170,-0 170,-34 326,-34 326,-0 170,-0"/>
<text text-anchor="start" x="178" y="-21" font-family="Verdana" font-size="10.00">CTypeElement::getFormatted</text>
<text text-anchor="middle" x="248" y="-8" font-family="Verdana" font-size="10.00">Mapping</text>
</a>
</g>
<!-- Node1&#45;&gt;Node2 -->
<g id="edge2" class="edge"><title>Node1&#45;&gt;Node2</title>
<path fill="none" stroke="midnightblue" d="M143.696,-17C152.358,-17 161.193,-17 169.873,-17"/>
<polygon fill="midnightblue" stroke="midnightblue" points="143.627,-13.5001 133.627,-17 143.627,-20.5001 143.627,-13.5001"/>
</g>
<!-- Node3 -->
<g id="node5" class="node"><title>Node3</title>
<a xlink:href="classCInstanceConfigurableElement.html#ab64a2df11be985c8f1deecbf26681594" target="_top" xlink:title="Returns the mapping data associated to the type element of the current InstanceConfigurableElement, as a formatted std::string. ">
<polygon fill="white" stroke="black" points="362,-0 362,-34 526,-34 526,-0 362,-0"/>
<text text-anchor="start" x="370" y="-21" font-family="Verdana" font-size="10.00">CInstanceConfigurableElement</text>
<text text-anchor="middle" x="444" y="-8" font-family="Verdana" font-size="10.00">::getFormattedMapping</text>
</a>
</g>
<!-- Node2&#45;&gt;Node3 -->
<g id="edge4" class="edge"><title>Node2&#45;&gt;Node3</title>
<path fill="none" stroke="midnightblue" d="M336.294,-17C344.764,-17 353.332,-17 361.741,-17"/>
<polygon fill="midnightblue" stroke="midnightblue" points="336.028,-13.5001 326.028,-17 336.028,-20.5001 336.028,-13.5001"/>
</g>
</g>
</svg>
