<?xml version="1.0" encoding="UTF-8" standalone="no"?>
<!DOCTYPE svg PUBLIC "-//W3C//DTD SVG 1.1//EN"
 "http://www.w3.org/Graphics/SVG/1.1/DTD/svg11.dtd">
<!-- Generated by graphviz version 2.26.3 (20100126.1600)
 -->
<!-- Title: CSelectionCriterionRule::logValue Pages: 1 -->
<svg width="450pt" height="82pt"
 viewBox="0.00 0.00 450.00 82.00" xmlns="http://www.w3.org/2000/svg" xmlns:xlink="http://www.w3.org/1999/xlink">
<g id="graph1" class="graph" transform="scale(1 1) rotate(0) translate(4 78)">
<title>CSelectionCriterionRule::logValue</title>
<polygon fill="white" stroke="white" points="-4,5 -4,-78 447,-78 447,5 -4,5"/>
<!-- Node1 -->
<g id="node1" class="node"><title>Node1</title>
<polygon fill="#bfbfbf" stroke="black" points="0,-23 0,-57 128,-57 128,-23 0,-23"/>
<text text-anchor="start" x="8" y="-44" font-family="Verdana" font-size="10.00">CSelectionCriterionRule</text>
<text text-anchor="middle" x="64" y="-31" font-family="Verdana" font-size="10.00">::logValue</text>
</g>
<!-- Node2 -->
<g id="node3" class="node"><title>Node2</title>
<a xlink:href="classCSelectionCriterionRule.html#a0c1b3650a362380978983d23b6e9ec17" target="_top" xlink:title="CSelectionCriterionRule\l::dump">
<polygon fill="white" stroke="black" points="164,-23 164,-57 292,-57 292,-23 164,-23"/>
<text text-anchor="start" x="172" y="-44" font-family="Verdana" font-size="10.00">CSelectionCriterionRule</text>
<text text-anchor="middle" x="228" y="-31" font-family="Verdana" font-size="10.00">::dump</text>
</a>
</g>
<!-- Node1&#45;&gt;Node2 -->
<g id="edge2" class="edge"><title>Node1&#45;&gt;Node2</title>
<path fill="none" stroke="midnightblue" d="M128.346,-40C136.64,-40 145.187,-40 153.625,-40"/>
<polygon fill="midnightblue" stroke="midnightblue" points="153.839,-43.5001 163.839,-40 153.839,-36.5001 153.839,-43.5001"/>
</g>
<!-- Node3 -->
<g id="node5" class="node"><title>Node3</title>
<a xlink:href="classCElement.html#a49581fb6412e29e932962acd82d52d6a" target="_top" xlink:title="CElement::getName">
<polygon fill="white" stroke="black" points="328,-52.5 328,-73.5 442,-73.5 442,-52.5 328,-52.5"/>
<text text-anchor="middle" x="385" y="-60.5" font-family="Verdana" font-size="10.00">CElement::getName</text>
</a>
</g>
<!-- Node2&#45;&gt;Node3 -->
<g id="edge4" class="edge"><title>Node2&#45;&gt;Node3</title>
<path fill="none" stroke="midnightblue" d="M292.311,-49.4213C300.619,-50.6385 309.147,-51.8877 317.504,-53.1121"/>
<polygon fill="midnightblue" stroke="midnightblue" points="317.187,-56.6029 327.589,-54.5894 318.202,-49.6768 317.187,-56.6029"/>
</g>
<!-- Node4 -->
<g id="node7" class="node"><title>Node4</title>
<a xlink:href="classCSelectionCriterion.html#a3551b612a002f7cc311f21be1685f794" target="_top" xlink:title="CSelectionCriterion\l::getCriterionType">
<polygon fill="white" stroke="black" points="331,-0 331,-34 439,-34 439,-0 331,-0"/>
<text text-anchor="start" x="339" y="-21" font-family="Verdana" font-size="10.00">CSelectionCriterion</text>
<text text-anchor="middle" x="385" y="-8" font-family="Verdana" font-size="10.00">::getCriterionType</text>
</a>
</g>
<!-- Node2&#45;&gt;Node4 -->
<g id="edge6" class="edge"><title>Node2&#45;&gt;Node4</title>
<path fill="none" stroke="midnightblue" d="M292.311,-30.5787C301.639,-29.2121 311.244,-27.805 320.575,-26.4381"/>
<polygon fill="midnightblue" stroke="midnightblue" points="321.179,-29.8871 330.566,-24.9744 320.164,-22.961 321.179,-29.8871"/>
</g>
</g>
</svg>
