<?xml version="1.0" encoding="UTF-8" standalone="no"?>
<!DOCTYPE svg PUBLIC "-//W3C//DTD SVG 1.1//EN"
 "http://www.w3.org/Graphics/SVG/1.1/DTD/svg11.dtd">
<!-- Generated by graphviz version 2.26.3 (20100126.1600)
 -->
<!-- Title: CParameterMgr::setApplicationRule Pages: 1 -->
<svg width="1364pt" height="323pt"
 viewBox="0.00 0.00 1364.00 323.04" xmlns="http://www.w3.org/2000/svg" xmlns:xlink="http://www.w3.org/1999/xlink">
<g id="graph1" class="graph" transform="scale(1 1) rotate(0) translate(4 319.041)">
<title>CParameterMgr::setApplicationRule</title>
<polygon fill="white" stroke="white" points="-4,5 -4,-319.041 1361,-319.041 1361,5 -4,5"/>
<!-- Node1 -->
<g id="node1" class="node"><title>Node1</title>
<polygon fill="#bfbfbf" stroke="black" points="0.5,-257.5 0.5,-278.5 185.5,-278.5 185.5,-257.5 0.5,-257.5"/>
<text text-anchor="middle" x="93" y="-265.5" font-family="Verdana" font-size="10.00">CParameterMgr::setApplicationRule</text>
</g>
<!-- Node2 -->
<g id="node3" class="node"><title>Node2</title>
<a xlink:href="classCConfigurableDomains.html#ac2b2354eecc80c7ca4a71fe2f40606ed" target="_top" xlink:title="CConfigurableDomains\l::setApplicationRule">
<polygon fill="white" stroke="black" points="222,-251 222,-285 348,-285 348,-251 222,-251"/>
<text text-anchor="start" x="230" y="-272" font-family="Verdana" font-size="10.00">CConfigurableDomains</text>
<text text-anchor="middle" x="285" y="-259" font-family="Verdana" font-size="10.00">::setApplicationRule</text>
</a>
</g>
<!-- Node1&#45;&gt;Node2 -->
<g id="edge2" class="edge"><title>Node1&#45;&gt;Node2</title>
<path fill="none" stroke="midnightblue" d="M185.626,-268C194.352,-268 203.116,-268 211.628,-268"/>
<polygon fill="midnightblue" stroke="midnightblue" points="211.866,-271.5 221.866,-268 211.866,-264.5 211.866,-271.5"/>
</g>
<!-- Node3 -->
<g id="node5" class="node"><title>Node3</title>
<a xlink:href="classCConfigurableDomains.html#a4dce38a1560b6e33871d3fa2d85cc449" target="_top" xlink:title="CConfigurableDomains\l::findConfigurableDomain">
<polygon fill="white" stroke="black" points="542.5,-281 542.5,-315 679.5,-315 679.5,-281 542.5,-281"/>
<text text-anchor="start" x="550.5" y="-302" font-family="Verdana" font-size="10.00">CConfigurableDomains</text>
<text text-anchor="middle" x="611" y="-289" font-family="Verdana" font-size="10.00">::findConfigurableDomain</text>
</a>
</g>
<!-- Node2&#45;&gt;Node3 -->
<g id="edge4" class="edge"><title>Node2&#45;&gt;Node3</title>
<path fill="none" stroke="midnightblue" d="M348.243,-273.82C400.711,-278.648 475.585,-285.538 531.994,-290.729"/>
<polygon fill="midnightblue" stroke="midnightblue" points="532.023,-294.247 542.302,-291.678 532.665,-287.276 532.023,-294.247"/>
</g>
<!-- Node5 -->
<g id="node9" class="node"><title>Node5</title>
<a xlink:href="classCConfigurableDomain.html#ab28e6a66ae7197d4fa131193f32891f4" target="_top" xlink:title="CConfigurableDomain\l::setApplicationRule">
<polygon fill="white" stroke="black" points="384.5,-226 384.5,-260 505.5,-260 505.5,-226 384.5,-226"/>
<text text-anchor="start" x="392.5" y="-247" font-family="Verdana" font-size="10.00">CConfigurableDomain</text>
<text text-anchor="middle" x="445" y="-234" font-family="Verdana" font-size="10.00">::setApplicationRule</text>
</a>
</g>
<!-- Node2&#45;&gt;Node5 -->
<g id="edge8" class="edge"><title>Node2&#45;&gt;Node5</title>
<path fill="none" stroke="midnightblue" d="M348.236,-258.119C356.775,-256.785 365.58,-255.409 374.239,-254.056"/>
<polygon fill="midnightblue" stroke="midnightblue" points="374.971,-257.485 384.311,-252.483 373.891,-250.568 374.971,-257.485"/>
</g>
<!-- Node4 -->
<g id="node7" class="node"><title>Node4</title>
<a xlink:href="classCElement.html#a8595814a3159f32f874269907e70b260" target="_top" xlink:title="CElement::findChild">
<polygon fill="white" stroke="black" points="1244,-225.5 1244,-246.5 1354,-246.5 1354,-225.5 1244,-225.5"/>
<text text-anchor="middle" x="1299" y="-233.5" font-family="Verdana" font-size="10.00">CElement::findChild</text>
</a>
</g>
<!-- Node3&#45;&gt;Node4 -->
<g id="edge6" class="edge"><title>Node3&#45;&gt;Node4</title>
<path fill="none" stroke="midnightblue" d="M679.76,-305.494C792.015,-315.594 1020.71,-327.205 1206,-279 1229.46,-272.898 1254.29,-261.111 1272.39,-251.419"/>
<polygon fill="midnightblue" stroke="midnightblue" points="1274.11,-254.463 1281.19,-246.582 1270.74,-248.327 1274.11,-254.463"/>
</g>
<!-- Node6 -->
<g id="node11" class="node"><title>Node6</title>
<a xlink:href="classCDomainConfiguration.html#a3b12c8d561b1e468bd03214326bdf450" target="_top" xlink:title="CDomainConfiguration\l::setApplicationRule">
<polygon fill="white" stroke="black" points="548.5,-216 548.5,-250 673.5,-250 673.5,-216 548.5,-216"/>
<text text-anchor="start" x="556.5" y="-237" font-family="Verdana" font-size="10.00">CDomainConfiguration</text>
<text text-anchor="middle" x="611" y="-224" font-family="Verdana" font-size="10.00">::setApplicationRule</text>
</a>
</g>
<!-- Node5&#45;&gt;Node6 -->
<g id="edge10" class="edge"><title>Node5&#45;&gt;Node6</title>
<path fill="none" stroke="midnightblue" d="M505.87,-239.333C516.388,-238.7 527.418,-238.035 538.213,-237.385"/>
<polygon fill="midnightblue" stroke="midnightblue" points="538.697,-240.862 548.468,-236.767 538.276,-233.875 538.697,-240.862"/>
</g>
<!-- Node7 -->
<g id="node13" class="node"><title>Node7</title>
<a xlink:href="classCRuleParser.html#acbce516a22f0dca0af620e751d298f7a" target="_top" xlink:title="CRuleParser::parse">
<polygon fill="white" stroke="black" points="734,-222.5 734,-243.5 840,-243.5 840,-222.5 734,-222.5"/>
<text text-anchor="middle" x="787" y="-230.5" font-family="Verdana" font-size="10.00">CRuleParser::parse</text>
</a>
</g>
<!-- Node6&#45;&gt;Node7 -->
<g id="edge12" class="edge"><title>Node6&#45;&gt;Node7</title>
<path fill="none" stroke="midnightblue" d="M673.547,-233C689.911,-233 707.56,-233 723.951,-233"/>
<polygon fill="midnightblue" stroke="midnightblue" points="723.97,-236.5 733.97,-233 723.97,-229.5 723.97,-236.5"/>
</g>
<!-- Node19 -->
<g id="node39" class="node"><title>Node19</title>
<a xlink:href="classCRuleParser.html#a89407cd2535589d81d1d5beba1e51544" target="_top" xlink:title="CRuleParser::grabRootRule">
<polygon fill="white" stroke="black" points="716.5,-182.5 716.5,-203.5 857.5,-203.5 857.5,-182.5 716.5,-182.5"/>
<text text-anchor="middle" x="787" y="-190.5" font-family="Verdana" font-size="10.00">CRuleParser::grabRootRule</text>
</a>
</g>
<!-- Node6&#45;&gt;Node19 -->
<g id="edge40" class="edge"><title>Node6&#45;&gt;Node19</title>
<path fill="none" stroke="midnightblue" d="M673.547,-218.785C692.22,-214.541 712.567,-209.916 730.808,-205.771"/>
<polygon fill="midnightblue" stroke="midnightblue" points="731.725,-209.152 740.701,-203.523 730.174,-202.326 731.725,-209.152"/>
</g>
<!-- Node8 -->
<g id="node15" class="node"><title>Node8</title>
<a xlink:href="classCRuleParser.html#ac7faca228556fb47a33ccb95e15ce6d6" target="_top" xlink:title="CRuleParser::iterate">
<polygon fill="white" stroke="black" points="903,-262.5 903,-283.5 1013,-283.5 1013,-262.5 903,-262.5"/>
<text text-anchor="middle" x="958" y="-270.5" font-family="Verdana" font-size="10.00">CRuleParser::iterate</text>
</a>
</g>
<!-- Node7&#45;&gt;Node8 -->
<g id="edge14" class="edge"><title>Node7&#45;&gt;Node8</title>
<path fill="none" stroke="midnightblue" d="M831.928,-243.51C853.736,-248.611 880.129,-254.785 903.119,-260.162"/>
<polygon fill="midnightblue" stroke="midnightblue" points="902.541,-263.622 913.075,-262.491 904.135,-256.806 902.541,-263.622"/>
</g>
<!-- Node9 -->
<g id="node17" class="node"><title>Node9</title>
<a xlink:href="classCCompoundRule.html#a127d40590afcf25e9fcf9b18234249f8" target="_top" xlink:title="CCompoundRule::parse">
<polygon fill="white" stroke="black" points="894,-222.5 894,-243.5 1022,-243.5 1022,-222.5 894,-222.5"/>
<text text-anchor="middle" x="958" y="-230.5" font-family="Verdana" font-size="10.00">CCompoundRule::parse</text>
</a>
</g>
<!-- Node7&#45;&gt;Node9 -->
<g id="edge16" class="edge"><title>Node7&#45;&gt;Node9</title>
<path fill="none" stroke="midnightblue" d="M840.168,-233C853.949,-233 869.044,-233 883.694,-233"/>
<polygon fill="midnightblue" stroke="midnightblue" points="883.742,-236.5 893.742,-233 883.742,-229.5 883.742,-236.5"/>
</g>
<!-- Node11 -->
<g id="node21" class="node"><title>Node11</title>
<a xlink:href="classCElement.html#ac2ad66ee438a4a0c1390b7388874fe72" target="_top" xlink:title="CElement::addChild">
<polygon fill="white" stroke="black" points="903,-182.5 903,-203.5 1013,-203.5 1013,-182.5 903,-182.5"/>
<text text-anchor="middle" x="958" y="-190.5" font-family="Verdana" font-size="10.00">CElement::addChild</text>
</a>
</g>
<!-- Node7&#45;&gt;Node11 -->
<g id="edge20" class="edge"><title>Node7&#45;&gt;Node11</title>
<path fill="none" stroke="midnightblue" d="M831.928,-222.49C853.736,-217.389 880.129,-211.215 903.119,-205.838"/>
<polygon fill="midnightblue" stroke="midnightblue" points="904.135,-209.194 913.075,-203.509 902.541,-202.378 904.135,-209.194"/>
</g>
<!-- Node12 -->
<g id="node23" class="node"><title>Node12</title>
<a xlink:href="classCSelectionCriterionRule.html#a4ee8e0274ac8c7bf5a2452002aa7ae0e" target="_top" xlink:title="CSelectionCriterionRule\l::parse">
<polygon fill="white" stroke="black" points="894,-130 894,-164 1022,-164 1022,-130 894,-130"/>
<text text-anchor="start" x="902" y="-151" font-family="Verdana" font-size="10.00">CSelectionCriterionRule</text>
<text text-anchor="middle" x="958" y="-138" font-family="Verdana" font-size="10.00">::parse</text>
</a>
</g>
<!-- Node7&#45;&gt;Node12 -->
<g id="edge22" class="edge"><title>Node7&#45;&gt;Node12</title>
<path fill="none" stroke="midnightblue" d="M838.143,-222.386C845.087,-219.874 851.91,-216.787 858,-213 878.311,-200.371 874.423,-186.739 894,-173 896.062,-171.553 898.215,-170.169 900.433,-168.846"/>
<polygon fill="midnightblue" stroke="midnightblue" points="902.13,-171.908 909.238,-164.051 898.782,-165.76 902.13,-171.908"/>
</g>
<!-- Node10 -->
<g id="node19" class="node"><title>Node10</title>
<a xlink:href="classCRuleParser.html#ae574ae0109f76cc624590bd4899e0a91" target="_top" xlink:title="CRuleParser::getType">
<polygon fill="white" stroke="black" points="1074,-248.5 1074,-269.5 1190,-269.5 1190,-248.5 1074,-248.5"/>
<text text-anchor="middle" x="1132" y="-256.5" font-family="Verdana" font-size="10.00">CRuleParser::getType</text>
</a>
</g>
<!-- Node9&#45;&gt;Node10 -->
<g id="edge18" class="edge"><title>Node9&#45;&gt;Node10</title>
<path fill="none" stroke="midnightblue" d="M1022.3,-242.608C1035.72,-244.613 1049.92,-246.735 1063.49,-248.763"/>
<polygon fill="midnightblue" stroke="midnightblue" points="1063.31,-252.275 1073.72,-250.291 1064.35,-245.352 1063.31,-252.275"/>
</g>
<!-- Node12&#45;&gt;Node10 -->
<g id="edge30" class="edge"><title>Node12&#45;&gt;Node10</title>
<path fill="none" stroke="midnightblue" d="M1009.52,-164.099C1013.99,-166.693 1018.24,-169.646 1022,-173 1046.93,-195.249 1031.76,-218.311 1058,-239 1060.1,-240.658 1062.33,-242.18 1064.66,-243.575"/>
<polygon fill="midnightblue" stroke="midnightblue" points="1063.52,-246.923 1074.01,-248.357 1066.7,-240.69 1063.52,-246.923"/>
</g>
<!-- Node13 -->
<g id="node25" class="node"><title>Node13</title>
<a xlink:href="classCRuleParser.html#af179ac22a54025386da02a5bdb33b253" target="_top" xlink:title="CRuleParser::getSelection\lCriteriaDefinition">
<polygon fill="white" stroke="black" points="1062.5,-196 1062.5,-230 1201.5,-230 1201.5,-196 1062.5,-196"/>
<text text-anchor="start" x="1070.5" y="-217" font-family="Verdana" font-size="10.00">CRuleParser::getSelection</text>
<text text-anchor="middle" x="1132" y="-204" font-family="Verdana" font-size="10.00">CriteriaDefinition</text>
</a>
</g>
<!-- Node12&#45;&gt;Node13 -->
<g id="edge24" class="edge"><title>Node12&#45;&gt;Node13</title>
<path fill="none" stroke="midnightblue" d="M1000.12,-164.055C1022.19,-172.949 1046.88,-182.826 1058,-187 1062.82,-188.808 1067.82,-190.649 1072.86,-192.474"/>
<polygon fill="midnightblue" stroke="midnightblue" points="1071.94,-195.863 1082.54,-195.949 1074.31,-189.275 1071.94,-195.863"/>
</g>
<!-- Node14 -->
<g id="node27" class="node"><title>Node14</title>
<a xlink:href="classCSelectionCriteriaDefinition.html#ade9c9f7fe7806988d3d922bf615e5994" target="_top" xlink:title="CSelectionCriteriaDefinition\l::getSelectionCriterion">
<polygon fill="white" stroke="black" points="1058.5,-144 1058.5,-178 1205.5,-178 1205.5,-144 1058.5,-144"/>
<text text-anchor="start" x="1066.5" y="-165" font-family="Verdana" font-size="10.00">CSelectionCriteriaDefinition</text>
<text text-anchor="middle" x="1132" y="-152" font-family="Verdana" font-size="10.00">::getSelectionCriterion</text>
</a>
</g>
<!-- Node12&#45;&gt;Node14 -->
<g id="edge26" class="edge"><title>Node12&#45;&gt;Node14</title>
<path fill="none" stroke="midnightblue" d="M1022.3,-152.173C1030.72,-152.851 1039.44,-153.553 1048.12,-154.251"/>
<polygon fill="midnightblue" stroke="midnightblue" points="1048.03,-157.755 1058.28,-155.068 1048.59,-150.777 1048.03,-157.755"/>
</g>
<!-- Node15 -->
<g id="node31" class="node"><title>Node15</title>
<a xlink:href="classCRuleParser.html#a7f6198bd3656599e15aee6860c1bf4d7" target="_top" xlink:title="CRuleParser::next">
<polygon fill="white" stroke="black" points="1082,-104.5 1082,-125.5 1182,-125.5 1182,-104.5 1082,-104.5"/>
<text text-anchor="middle" x="1132" y="-112.5" font-family="Verdana" font-size="10.00">CRuleParser::next</text>
</a>
</g>
<!-- Node12&#45;&gt;Node15 -->
<g id="edge32" class="edge"><title>Node12&#45;&gt;Node15</title>
<path fill="none" stroke="midnightblue" d="M1022.3,-135.175C1038.42,-132.211 1055.66,-129.04 1071.58,-126.111"/>
<polygon fill="midnightblue" stroke="midnightblue" points="1072.63,-129.477 1081.83,-124.226 1071.36,-122.593 1072.63,-129.477"/>
</g>
<!-- Node16 -->
<g id="node33" class="node"><title>Node16</title>
<a xlink:href="classCSelectionCriterion.html#a3551b612a002f7cc311f21be1685f794" target="_top" xlink:title="CSelectionCriterion\l::getCriterionType">
<polygon fill="white" stroke="black" points="1078,-52 1078,-86 1186,-86 1186,-52 1078,-52"/>
<text text-anchor="start" x="1086" y="-73" font-family="Verdana" font-size="10.00">CSelectionCriterion</text>
<text text-anchor="middle" x="1132" y="-60" font-family="Verdana" font-size="10.00">::getCriterionType</text>
</a>
</g>
<!-- Node12&#45;&gt;Node16 -->
<g id="edge34" class="edge"><title>Node12&#45;&gt;Node16</title>
<path fill="none" stroke="midnightblue" d="M988.093,-129.927C1007.67,-119.18 1033.94,-105.421 1058,-95 1062.12,-93.2167 1066.4,-91.4617 1070.74,-89.7572"/>
<polygon fill="midnightblue" stroke="midnightblue" points="1072.19,-92.9507 1080.28,-86.1153 1069.69,-86.4107 1072.19,-92.9507"/>
</g>
<!-- Node17 -->
<g id="node35" class="node"><title>Node17</title>
<a xlink:href="classCSelectionCriterion.html#a1570d99b016390cca5b5d6f3c1d405c1" target="_top" xlink:title="CSelectionCriterion\l::getCriterionName">
<polygon fill="white" stroke="black" points="1078,-0 1078,-34 1186,-34 1186,-0 1078,-0"/>
<text text-anchor="start" x="1086" y="-21" font-family="Verdana" font-size="10.00">CSelectionCriterion</text>
<text text-anchor="middle" x="1132" y="-8" font-family="Verdana" font-size="10.00">::getCriterionName</text>
</a>
</g>
<!-- Node12&#45;&gt;Node17 -->
<g id="edge36" class="edge"><title>Node12&#45;&gt;Node17</title>
<path fill="none" stroke="midnightblue" d="M970.33,-129.864C987.559,-107.058 1020.92,-66.843 1058,-43 1061.32,-40.8654 1064.84,-38.8808 1068.46,-37.0397"/>
<polygon fill="midnightblue" stroke="midnightblue" points="1070.07,-40.1527 1077.65,-32.755 1067.11,-33.8083 1070.07,-40.1527"/>
</g>
<!-- Node14&#45;&gt;Node4 -->
<g id="edge28" class="edge"><title>Node14&#45;&gt;Node4</title>
<path fill="none" stroke="midnightblue" d="M1183.73,-178.08C1191.27,-180.885 1198.89,-183.896 1206,-187 1228.79,-196.943 1253.67,-210.183 1271.95,-220.393"/>
<polygon fill="midnightblue" stroke="midnightblue" points="1270.44,-223.557 1280.87,-225.422 1273.88,-217.46 1270.44,-223.557"/>
</g>
<!-- Node18 -->
<g id="node37" class="node"><title>Node18</title>
<a xlink:href="classCElement.html#a49581fb6412e29e932962acd82d52d6a" target="_top" xlink:title="CElement::getName">
<polygon fill="white" stroke="black" points="1242,-6.5 1242,-27.5 1356,-27.5 1356,-6.5 1242,-6.5"/>
<text text-anchor="middle" x="1299" y="-14.5" font-family="Verdana" font-size="10.00">CElement::getName</text>
</a>
</g>
<!-- Node17&#45;&gt;Node18 -->
<g id="edge38" class="edge"><title>Node17&#45;&gt;Node18</title>
<path fill="none" stroke="midnightblue" d="M1186.22,-17C1200.69,-17 1216.5,-17 1231.59,-17"/>
<polygon fill="midnightblue" stroke="midnightblue" points="1231.89,-20.5001 1241.89,-17 1231.89,-13.5001 1231.89,-20.5001"/>
</g>
</g>
</svg>
