<?xml version="1.0" encoding="UTF-8" standalone="no"?>
<!DOCTYPE svg PUBLIC "-//W3C//DTD SVG 1.1//EN"
 "http://www.w3.org/Graphics/SVG/1.1/DTD/svg11.dtd">
<!-- Generated by graphviz version 2.26.3 (20100126.1600)
 -->
<!-- Title: CConfigurableElement::setDefaultValues Pages: 1 -->
<svg width="306pt" height="74pt"
 viewBox="0.00 0.00 306.00 74.00" xmlns="http://www.w3.org/2000/svg" xmlns:xlink="http://www.w3.org/1999/xlink">
<g id="graph1" class="graph" transform="scale(1 1) rotate(0) translate(4 70)">
<title>CConfigurableElement::setDefaultValues</title>
<polygon fill="white" stroke="white" points="-4,5 -4,-70 303,-70 303,5 -4,5"/>
<!-- Node1 -->
<g id="node1" class="node"><title>Node1</title>
<polygon fill="#bfbfbf" stroke="black" points="0.5,-14 0.5,-48 123.5,-48 123.5,-14 0.5,-14"/>
<text text-anchor="start" x="8.5" y="-35" font-family="Verdana" font-size="10.00">CConfigurableElement</text>
<text text-anchor="middle" x="62" y="-22" font-family="Verdana" font-size="10.00">::setDefaultValues</text>
</g>
<!-- Node1&#45;&gt;Node1 -->
<g id="edge6" class="edge"><title>Node1&#45;&gt;Node1</title>
<path fill="none" stroke="midnightblue" d="M32.1592,-48.2878C27.0882,-57.5562 37.0352,-66 62,-66 77.213,-66 86.8492,-62.8645 90.9087,-58.3176"/>
<polygon fill="midnightblue" stroke="midnightblue" points="94.4003,-58.5688 91.8408,-48.2878 87.4304,-57.921 94.4003,-58.5688"/>
</g>
<!-- Node2 -->
<g id="node3" class="node"><title>Node2</title>
<a xlink:href="classCElement.html#a25f58d9d8b35e770806d669fb2a378e4" target="_top" xlink:title="CElement::getNbChildren">
<polygon fill="white" stroke="black" points="160.5,-40.5 160.5,-61.5 297.5,-61.5 297.5,-40.5 160.5,-40.5"/>
<text text-anchor="middle" x="229" y="-48.5" font-family="Verdana" font-size="10.00">CElement::getNbChildren</text>
</a>
</g>
<!-- Node1&#45;&gt;Node2 -->
<g id="edge2" class="edge"><title>Node1&#45;&gt;Node2</title>
<path fill="none" stroke="midnightblue" d="M123.71,-38.3904C132.351,-39.4253 141.327,-40.5002 150.231,-41.5666"/>
<polygon fill="midnightblue" stroke="midnightblue" points="149.886,-45.0502 160.231,-42.7642 150.718,-38.0998 149.886,-45.0502"/>
</g>
<!-- Node3 -->
<g id="node5" class="node"><title>Node3</title>
<a xlink:href="classCElement.html#a41bf126c3fdbb5bec0c2c3dcf35e9079" target="_top" xlink:title="CElement::getChild">
<polygon fill="white" stroke="black" points="175,-0.5 175,-21.5 283,-21.5 283,-0.5 175,-0.5"/>
<text text-anchor="middle" x="229" y="-8.5" font-family="Verdana" font-size="10.00">CElement::getChild</text>
</a>
</g>
<!-- Node1&#45;&gt;Node3 -->
<g id="edge4" class="edge"><title>Node1&#45;&gt;Node3</title>
<path fill="none" stroke="midnightblue" d="M123.71,-23.6096C137.112,-22.0046 151.318,-20.3032 164.813,-18.6871"/>
<polygon fill="midnightblue" stroke="midnightblue" points="165.455,-22.1352 174.968,-17.4709 164.623,-15.1849 165.455,-22.1352"/>
</g>
</g>
</svg>
