<?xml version="1.0" encoding="UTF-8" standalone="no"?>
<!DOCTYPE svg PUBLIC "-//W3C//DTD SVG 1.1//EN"
 "http://www.w3.org/Graphics/SVG/1.1/DTD/svg11.dtd">
<!-- Generated by graphviz version 2.26.3 (20100126.1600)
 -->
<!-- Title: CParameterAccessContext::setBaseOffset Pages: 1 -->
<svg width="310pt" height="42pt"
 viewBox="0.00 0.00 310.00 42.00" xmlns="http://www.w3.org/2000/svg" xmlns:xlink="http://www.w3.org/1999/xlink">
<g id="graph1" class="graph" transform="scale(1 1) rotate(0) translate(4 38)">
<title>CParameterAccessContext::setBaseOffset</title>
<polygon fill="white" stroke="white" points="-4,5 -4,-38 307,-38 307,5 -4,5"/>
<!-- Node1 -->
<g id="node1" class="node"><title>Node1</title>
<polygon fill="#bfbfbf" stroke="black" points="0.5,-0 0.5,-34 145.5,-34 145.5,-0 0.5,-0"/>
<text text-anchor="start" x="8.5" y="-21" font-family="Verdana" font-size="10.00">CParameterAccessContext</text>
<text text-anchor="middle" x="73" y="-8" font-family="Verdana" font-size="10.00">::setBaseOffset</text>
</g>
<!-- Node2 -->
<g id="node3" class="node"><title>Node2</title>
<a xlink:href="classCAreaConfiguration.html#a6b8c95a79343ee9823b026d74184e798" target="_top" xlink:title="CAreaConfiguration\l::serializeXmlSettings">
<polygon fill="white" stroke="black" points="182.5,-0 182.5,-34 301.5,-34 301.5,-0 182.5,-0"/>
<text text-anchor="start" x="190.5" y="-21" font-family="Verdana" font-size="10.00">CAreaConfiguration</text>
<text text-anchor="middle" x="242" y="-8" font-family="Verdana" font-size="10.00">::serializeXmlSettings</text>
</a>
</g>
<!-- Node1&#45;&gt;Node2 -->
<g id="edge2" class="edge"><title>Node1&#45;&gt;Node2</title>
<path fill="none" stroke="midnightblue" d="M155.76,-17C164.743,-17 173.751,-17 182.38,-17"/>
<polygon fill="midnightblue" stroke="midnightblue" points="155.652,-13.5001 145.652,-17 155.652,-20.5001 155.652,-13.5001"/>
</g>
</g>
</svg>
