<?xml version="1.0" encoding="UTF-8" standalone="no"?>
<!DOCTYPE svg PUBLIC "-//W3C//DTD SVG 1.1//EN"
 "http://www.w3.org/Graphics/SVG/1.1/DTD/svg11.dtd">
<!-- Generated by graphviz version 2.26.3 (20100126.1600)
 -->
<!-- Title: CConfigurableElement::getFootPrint Pages: 1 -->
<svg width="452pt" height="164pt"
 viewBox="0.00 0.00 452.00 164.00" xmlns="http://www.w3.org/2000/svg" xmlns:xlink="http://www.w3.org/1999/xlink">
<g id="graph1" class="graph" transform="scale(1 1) rotate(0) translate(4 160)">
<title>CConfigurableElement::getFootPrint</title>
<polygon fill="white" stroke="white" points="-4,5 -4,-160 449,-160 449,5 -4,5"/>
<!-- Node1 -->
<g id="node1" class="node"><title>Node1</title>
<polygon fill="#bfbfbf" stroke="black" points="0.5,-52 0.5,-86 123.5,-86 123.5,-52 0.5,-52"/>
<text text-anchor="start" x="8.5" y="-73" font-family="Verdana" font-size="10.00">CConfigurableElement</text>
<text text-anchor="middle" x="62" y="-60" font-family="Verdana" font-size="10.00">::getFootPrint</text>
</g>
<!-- Node1&#45;&gt;Node1 -->
<g id="edge8" class="edge"><title>Node1&#45;&gt;Node1</title>
<path fill="none" stroke="midnightblue" d="M34.1362,-96.3176C38.049,-100.864 47.3369,-104 62,-104 86.0625,-104 95.6499,-95.5562 90.7622,-86.2878"/>
<polygon fill="midnightblue" stroke="midnightblue" points="37.6161,-95.9356 33.2378,-86.2878 30.644,-96.5602 37.6161,-95.9356"/>
</g>
<!-- Node2 -->
<g id="node3" class="node"><title>Node2</title>
<a xlink:href="classCAreaConfiguration.html#ab7057b4cf2482e15666f538211ac65c5" target="_top" xlink:title="CAreaConfiguration\l::CAreaConfiguration">
<polygon fill="white" stroke="black" points="164,-122 164,-156 280,-156 280,-122 164,-122"/>
<text text-anchor="start" x="172" y="-143" font-family="Verdana" font-size="10.00">CAreaConfiguration</text>
<text text-anchor="middle" x="222" y="-130" font-family="Verdana" font-size="10.00">::CAreaConfiguration</text>
</a>
</g>
<!-- Node1&#45;&gt;Node2 -->
<g id="edge2" class="edge"><title>Node1&#45;&gt;Node2</title>
<path fill="none" stroke="midnightblue" d="M108.849,-90.3197C125.016,-97.601 143.268,-105.737 160,-113 166.745,-115.928 173.925,-118.99 180.918,-121.942"/>
<polygon fill="midnightblue" stroke="midnightblue" points="110.152,-87.068 99.5977,-86.1443 107.273,-93.4482 110.152,-87.068"/>
</g>
<!-- Node3 -->
<g id="node5" class="node"><title>Node3</title>
<a xlink:href="classCConfigurableElement.html#a450b0ccf5de682eb39949fa43438a7f5" target="_top" xlink:title="CConfigurableElement\l::setOffset">
<polygon fill="white" stroke="black" points="160.5,-52 160.5,-86 283.5,-86 283.5,-52 160.5,-52"/>
<text text-anchor="start" x="168.5" y="-73" font-family="Verdana" font-size="10.00">CConfigurableElement</text>
<text text-anchor="middle" x="222" y="-60" font-family="Verdana" font-size="10.00">::setOffset</text>
</a>
</g>
<!-- Node1&#45;&gt;Node3 -->
<g id="edge4" class="edge"><title>Node1&#45;&gt;Node3</title>
<path fill="none" stroke="midnightblue" d="M134.061,-69C142.822,-69 151.712,-69 160.304,-69"/>
<polygon fill="midnightblue" stroke="midnightblue" points="133.86,-65.5001 123.86,-69 133.86,-72.5001 133.86,-65.5001"/>
</g>
<!-- Node4 -->
<g id="node9" class="node"><title>Node4</title>
<a xlink:href="classCConfigurableElement.html#a0282019ab1caa1ada2b637562a1d8479" target="_top" xlink:title="CConfigurableElement\l::getFootprintAsString">
<polygon fill="white" stroke="black" points="160.5,-0 160.5,-34 283.5,-34 283.5,-0 160.5,-0"/>
<text text-anchor="start" x="168.5" y="-21" font-family="Verdana" font-size="10.00">CConfigurableElement</text>
<text text-anchor="middle" x="222" y="-8" font-family="Verdana" font-size="10.00">::getFootprintAsString</text>
</a>
</g>
<!-- Node1&#45;&gt;Node4 -->
<g id="edge10" class="edge"><title>Node1&#45;&gt;Node4</title>
<path fill="none" stroke="midnightblue" d="M124.096,-48.8188C139.096,-43.9438 154.981,-38.7811 169.492,-34.065"/>
<polygon fill="midnightblue" stroke="midnightblue" points="122.819,-45.5537 114.39,-51.9733 124.982,-52.2109 122.819,-45.5537"/>
</g>
<!-- Node3&#45;&gt;Node3 -->
<g id="edge6" class="edge"><title>Node3&#45;&gt;Node3</title>
<path fill="none" stroke="midnightblue" d="M194.136,-96.3176C198.049,-100.864 207.337,-104 222,-104 246.062,-104 255.65,-95.5562 250.762,-86.2878"/>
<polygon fill="midnightblue" stroke="midnightblue" points="197.616,-95.9356 193.238,-86.2878 190.644,-96.5602 197.616,-95.9356"/>
</g>
<!-- Node5 -->
<g id="node11" class="node"><title>Node5</title>
<a xlink:href="classCConfigurableElement.html#a0497959fbd4ecdcc9911ed6548f73fa1" target="_top" xlink:title="CConfigurableElement\l::showProperties">
<polygon fill="white" stroke="black" points="320.5,-0 320.5,-34 443.5,-34 443.5,-0 320.5,-0"/>
<text text-anchor="start" x="328.5" y="-21" font-family="Verdana" font-size="10.00">CConfigurableElement</text>
<text text-anchor="middle" x="382" y="-8" font-family="Verdana" font-size="10.00">::showProperties</text>
</a>
</g>
<!-- Node4&#45;&gt;Node5 -->
<g id="edge12" class="edge"><title>Node4&#45;&gt;Node5</title>
<path fill="none" stroke="midnightblue" d="M294.061,-17C302.822,-17 311.712,-17 320.304,-17"/>
<polygon fill="midnightblue" stroke="midnightblue" points="293.86,-13.5001 283.86,-17 293.86,-20.5001 293.86,-13.5001"/>
</g>
</g>
</svg>
