<?xml version="1.0" encoding="UTF-8" standalone="no"?>
<!DOCTYPE svg PUBLIC "-//W3C//DTD SVG 1.1//EN"
 "http://www.w3.org/Graphics/SVG/1.1/DTD/svg11.dtd">
<!-- Generated by graphviz version 2.26.3 (20100126.1600)
 -->
<!-- Title: CConfigurableDomains::setElementSequence Pages: 1 -->
<svg width="470pt" height="94pt"
 viewBox="0.00 0.00 470.00 94.00" xmlns="http://www.w3.org/2000/svg" xmlns:xlink="http://www.w3.org/1999/xlink">
<g id="graph1" class="graph" transform="scale(1 1) rotate(0) translate(4 90)">
<title>CConfigurableDomains::setElementSequence</title>
<polygon fill="white" stroke="white" points="-4,5 -4,-90 467,-90 467,5 -4,5"/>
<!-- Node1 -->
<g id="node1" class="node"><title>Node1</title>
<polygon fill="#bfbfbf" stroke="black" points="0,-26 0,-60 126,-60 126,-26 0,-26"/>
<text text-anchor="start" x="8" y="-47" font-family="Verdana" font-size="10.00">CConfigurableDomains</text>
<text text-anchor="middle" x="63" y="-34" font-family="Verdana" font-size="10.00">::setElementSequence</text>
</g>
<!-- Node2 -->
<g id="node3" class="node"><title>Node2</title>
<a xlink:href="classCConfigurableDomains.html#a4dce38a1560b6e33871d3fa2d85cc449" target="_top" xlink:title="CConfigurableDomains\l::findConfigurableDomain">
<polygon fill="white" stroke="black" points="162.5,-52 162.5,-86 299.5,-86 299.5,-52 162.5,-52"/>
<text text-anchor="start" x="170.5" y="-73" font-family="Verdana" font-size="10.00">CConfigurableDomains</text>
<text text-anchor="middle" x="231" y="-60" font-family="Verdana" font-size="10.00">::findConfigurableDomain</text>
</a>
</g>
<!-- Node1&#45;&gt;Node2 -->
<g id="edge2" class="edge"><title>Node1&#45;&gt;Node2</title>
<path fill="none" stroke="midnightblue" d="M126.035,-52.7554C134.626,-54.085 143.53,-55.463 152.355,-56.8287"/>
<polygon fill="midnightblue" stroke="midnightblue" points="151.846,-60.2916 162.264,-58.3622 152.917,-53.3739 151.846,-60.2916"/>
</g>
<!-- Node4 -->
<g id="node7" class="node"><title>Node4</title>
<a xlink:href="classCConfigurableDomain.html#a1778bfe42d19352dac62ae88f907b6d2" target="_top" xlink:title="CConfigurableDomain\l::setElementSequence">
<polygon fill="white" stroke="black" points="168.5,-0 168.5,-34 293.5,-34 293.5,-0 168.5,-0"/>
<text text-anchor="start" x="176.5" y="-21" font-family="Verdana" font-size="10.00">CConfigurableDomain</text>
<text text-anchor="middle" x="231" y="-8" font-family="Verdana" font-size="10.00">::setElementSequence</text>
</a>
</g>
<!-- Node1&#45;&gt;Node4 -->
<g id="edge6" class="edge"><title>Node1&#45;&gt;Node4</title>
<path fill="none" stroke="midnightblue" d="M126.035,-33.2446C136.548,-31.6176 147.529,-29.9181 158.261,-28.2573"/>
<polygon fill="midnightblue" stroke="midnightblue" points="159.102,-31.6687 168.45,-26.6804 158.032,-24.7511 159.102,-31.6687"/>
</g>
<!-- Node3 -->
<g id="node5" class="node"><title>Node3</title>
<a xlink:href="classCElement.html#a8595814a3159f32f874269907e70b260" target="_top" xlink:title="CElement::findChild">
<polygon fill="white" stroke="black" points="344,-58.5 344,-79.5 454,-79.5 454,-58.5 344,-58.5"/>
<text text-anchor="middle" x="399" y="-66.5" font-family="Verdana" font-size="10.00">CElement::findChild</text>
</a>
</g>
<!-- Node2&#45;&gt;Node3 -->
<g id="edge4" class="edge"><title>Node2&#45;&gt;Node3</title>
<path fill="none" stroke="midnightblue" d="M299.817,-69C311.056,-69 322.67,-69 333.819,-69"/>
<polygon fill="midnightblue" stroke="midnightblue" points="333.902,-72.5001 343.901,-69 333.901,-65.5001 333.902,-72.5001"/>
</g>
<!-- Node5 -->
<g id="node9" class="node"><title>Node5</title>
<a xlink:href="classCDomainConfiguration.html#a44b4473a304bddf0a51eb3bfef412832" target="_top" xlink:title="CDomainConfiguration\l::setElementSequence">
<polygon fill="white" stroke="black" points="336.5,-0 336.5,-34 461.5,-34 461.5,-0 336.5,-0"/>
<text text-anchor="start" x="344.5" y="-21" font-family="Verdana" font-size="10.00">CDomainConfiguration</text>
<text text-anchor="middle" x="399" y="-8" font-family="Verdana" font-size="10.00">::setElementSequence</text>
</a>
</g>
<!-- Node4&#45;&gt;Node5 -->
<g id="edge8" class="edge"><title>Node4&#45;&gt;Node5</title>
<path fill="none" stroke="midnightblue" d="M293.557,-17C304.162,-17 315.255,-17 326.097,-17"/>
<polygon fill="midnightblue" stroke="midnightblue" points="326.391,-20.5001 336.391,-17 326.391,-13.5001 326.391,-20.5001"/>
</g>
</g>
</svg>
