<?xml version="1.0" encoding="UTF-8" standalone="no"?>
<!DOCTYPE svg PUBLIC "-//W3C//DTD SVG 1.1//EN"
 "http://www.w3.org/Graphics/SVG/1.1/DTD/svg11.dtd">
<!-- Generated by graphviz version 2.26.3 (20100126.1600)
 -->
<!-- Title: CConfigurableDomain::setSequenceAwareness Pages: 1 -->
<svg width="296pt" height="70pt"
 viewBox="0.00 0.00 296.00 70.00" xmlns="http://www.w3.org/2000/svg" xmlns:xlink="http://www.w3.org/1999/xlink">
<g id="graph1" class="graph" transform="scale(1 1) rotate(0) translate(4 66)">
<title>CConfigurableDomain::setSequenceAwareness</title>
<polygon fill="white" stroke="white" points="-4,5 -4,-66 293,-66 293,5 -4,5"/>
<!-- Node1 -->
<g id="node1" class="node"><title>Node1</title>
<polygon fill="#bfbfbf" stroke="black" points="0.5,-14 0.5,-48 137.5,-48 137.5,-14 0.5,-14"/>
<text text-anchor="start" x="8.5" y="-35" font-family="Verdana" font-size="10.00">CConfigurableDomain</text>
<text text-anchor="middle" x="69" y="-22" font-family="Verdana" font-size="10.00">::setSequenceAwareness</text>
</g>
<!-- Node2 -->
<g id="node3" class="node"><title>Node2</title>
<a xlink:href="classCElement.html#aaa4df1b13a53263f8cc2b668172873d9" target="_top" xlink:title="CElement::log_info">
<polygon fill="white" stroke="black" points="178,-40.5 178,-61.5 284,-61.5 284,-40.5 178,-40.5"/>
<text text-anchor="middle" x="231" y="-48.5" font-family="Verdana" font-size="10.00">CElement::log_info</text>
</a>
</g>
<!-- Node1&#45;&gt;Node2 -->
<g id="edge2" class="edge"><title>Node1&#45;&gt;Node2</title>
<path fill="none" stroke="midnightblue" d="M137.703,-39.4818C147.687,-40.7145 157.927,-41.9786 167.796,-43.197"/>
<polygon fill="midnightblue" stroke="midnightblue" points="167.567,-46.6952 177.92,-44.4469 168.424,-39.7479 167.567,-46.6952"/>
</g>
<!-- Node3 -->
<g id="node5" class="node"><title>Node3</title>
<a xlink:href="classCElement.html#a49581fb6412e29e932962acd82d52d6a" target="_top" xlink:title="CElement::getName">
<polygon fill="white" stroke="black" points="174,-0.5 174,-21.5 288,-21.5 288,-0.5 174,-0.5"/>
<text text-anchor="middle" x="231" y="-8.5" font-family="Verdana" font-size="10.00">CElement::getName</text>
</a>
</g>
<!-- Node1&#45;&gt;Node3 -->
<g id="edge4" class="edge"><title>Node1&#45;&gt;Node3</title>
<path fill="none" stroke="midnightblue" d="M137.703,-22.5182C146.38,-21.4469 155.25,-20.3518 163.903,-19.2836"/>
<polygon fill="midnightblue" stroke="midnightblue" points="164.439,-22.7441 173.935,-18.0451 163.581,-15.7968 164.439,-22.7441"/>
</g>
</g>
</svg>
