<?xml version="1.0" encoding="UTF-8" standalone="no"?>
<!DOCTYPE svg PUBLIC "-//W3C//DTD SVG 1.1//EN"
 "http://www.w3.org/Graphics/SVG/1.1/DTD/svg11.dtd">
<!-- Generated by graphviz version 2.26.3 (20100126.1600)
 -->
<!-- Title: CParameterAccessContext::setAutoSync Pages: 1 -->
<svg width="372pt" height="42pt"
 viewBox="0.00 0.00 372.00 42.00" xmlns="http://www.w3.org/2000/svg" xmlns:xlink="http://www.w3.org/1999/xlink">
<g id="graph1" class="graph" transform="scale(1 1) rotate(0) translate(4 38)">
<title>CParameterAccessContext::setAutoSync</title>
<polygon fill="white" stroke="white" points="-4,5 -4,-38 369,-38 369,5 -4,5"/>
<!-- Node1 -->
<g id="node1" class="node"><title>Node1</title>
<polygon fill="#bfbfbf" stroke="black" points="0.5,-0 0.5,-34 145.5,-34 145.5,-0 0.5,-0"/>
<text text-anchor="start" x="8.5" y="-21" font-family="Verdana" font-size="10.00">CParameterAccessContext</text>
<text text-anchor="middle" x="73" y="-8" font-family="Verdana" font-size="10.00">::setAutoSync</text>
</g>
<!-- Node2 -->
<g id="node3" class="node"><title>Node2</title>
<a xlink:href="classCParameterMgr.html#ad718888b2d13a3c6ebad7e0c97d92d20" target="_top" xlink:title="CParameterMgr::accessParameter\lValue">
<polygon fill="white" stroke="black" points="182.5,-0 182.5,-34 363.5,-34 363.5,-0 182.5,-0"/>
<text text-anchor="start" x="190.5" y="-21" font-family="Verdana" font-size="10.00">CParameterMgr::accessParameter</text>
<text text-anchor="middle" x="273" y="-8" font-family="Verdana" font-size="10.00">Value</text>
</a>
</g>
<!-- Node1&#45;&gt;Node2 -->
<g id="edge2" class="edge"><title>Node1&#45;&gt;Node2</title>
<path fill="none" stroke="midnightblue" d="M155.874,-17C164.564,-17 173.433,-17 182.205,-17"/>
<polygon fill="midnightblue" stroke="midnightblue" points="155.77,-13.5001 145.77,-17 155.77,-20.5001 155.77,-13.5001"/>
</g>
</g>
</svg>
