<?xml version="1.0" encoding="UTF-8" standalone="no"?>
<!DOCTYPE svg PUBLIC "-//W3C//DTD SVG 1.1//EN"
 "http://www.w3.org/Graphics/SVG/1.1/DTD/svg11.dtd">
<!-- Generated by graphviz version 2.26.3 (20100126.1600)
 -->
<!-- Title: CConfigurableDomain::deleteConfiguration Pages: 1 -->
<svg width="296pt" height="110pt"
 viewBox="0.00 0.00 296.00 110.00" xmlns="http://www.w3.org/2000/svg" xmlns:xlink="http://www.w3.org/1999/xlink">
<g id="graph1" class="graph" transform="scale(1 1) rotate(0) translate(4 106)">
<title>CConfigurableDomain::deleteConfiguration</title>
<polygon fill="white" stroke="white" points="-4,5 -4,-106 293,-106 293,5 -4,5"/>
<!-- Node1 -->
<g id="node1" class="node"><title>Node1</title>
<polygon fill="#bfbfbf" stroke="black" points="0.5,-34 0.5,-68 121.5,-68 121.5,-34 0.5,-34"/>
<text text-anchor="start" x="8.5" y="-55" font-family="Verdana" font-size="10.00">CConfigurableDomain</text>
<text text-anchor="middle" x="61" y="-42" font-family="Verdana" font-size="10.00">::deleteConfiguration</text>
</g>
<!-- Node2 -->
<g id="node3" class="node"><title>Node2</title>
<a xlink:href="classCElement.html#aaa4df1b13a53263f8cc2b668172873d9" target="_top" xlink:title="CElement::log_info">
<polygon fill="white" stroke="black" points="170,-80.5 170,-101.5 276,-101.5 276,-80.5 170,-80.5"/>
<text text-anchor="middle" x="223" y="-88.5" font-family="Verdana" font-size="10.00">CElement::log_info</text>
</a>
</g>
<!-- Node1&#45;&gt;Node2 -->
<g id="edge2" class="edge"><title>Node1&#45;&gt;Node2</title>
<path fill="none" stroke="midnightblue" d="M121.784,-66.0083C137.692,-69.9363 154.711,-74.1386 170.168,-77.9551"/>
<polygon fill="midnightblue" stroke="midnightblue" points="169.525,-81.4012 180.072,-80.4005 171.203,-74.6053 169.525,-81.4012"/>
</g>
<!-- Node3 -->
<g id="node5" class="node"><title>Node3</title>
<a xlink:href="classCElement.html#a49581fb6412e29e932962acd82d52d6a" target="_top" xlink:title="CElement::getName">
<polygon fill="white" stroke="black" points="166,-40.5 166,-61.5 280,-61.5 280,-40.5 166,-40.5"/>
<text text-anchor="middle" x="223" y="-48.5" font-family="Verdana" font-size="10.00">CElement::getName</text>
</a>
</g>
<!-- Node1&#45;&gt;Node3 -->
<g id="edge4" class="edge"><title>Node1&#45;&gt;Node3</title>
<path fill="none" stroke="midnightblue" d="M121.784,-51C132.851,-51 144.456,-51 155.698,-51"/>
<polygon fill="midnightblue" stroke="midnightblue" points="155.895,-54.5001 165.895,-51 155.895,-47.5001 155.895,-54.5001"/>
</g>
<!-- Node4 -->
<g id="node7" class="node"><title>Node4</title>
<a xlink:href="classCElement.html#a4aec98bde47367325cf332a5dc471eb9" target="_top" xlink:title="CElement::removeChild">
<polygon fill="white" stroke="black" points="158.5,-0.5 158.5,-21.5 287.5,-21.5 287.5,-0.5 158.5,-0.5"/>
<text text-anchor="middle" x="223" y="-8.5" font-family="Verdana" font-size="10.00">CElement::removeChild</text>
</a>
</g>
<!-- Node1&#45;&gt;Node4 -->
<g id="edge6" class="edge"><title>Node1&#45;&gt;Node4</title>
<path fill="none" stroke="midnightblue" d="M121.784,-35.9917C137.692,-32.0637 154.711,-27.8614 170.168,-24.0449"/>
<polygon fill="midnightblue" stroke="midnightblue" points="171.203,-27.3947 180.072,-21.5995 169.525,-20.5988 171.203,-27.3947"/>
</g>
</g>
</svg>
