<?xml version="1.0" encoding="UTF-8" standalone="no"?>
<!DOCTYPE svg PUBLIC "-//W3C//DTD SVG 1.1//EN"
 "http://www.w3.org/Graphics/SVG/1.1/DTD/svg11.dtd">
<!-- Generated by graphviz version 2.26.3 (20100126.1600)
 -->
<!-- Title: CConfigurableDomain::isApplicableConfigurationValid Pages: 1 -->
<svg width="354pt" height="56pt"
 viewBox="0.00 0.00 354.00 56.00" xmlns="http://www.w3.org/2000/svg" xmlns:xlink="http://www.w3.org/1999/xlink">
<g id="graph1" class="graph" transform="scale(1 1) rotate(0) translate(4 52)">
<title>CConfigurableDomain::isApplicableConfigurationValid</title>
<polygon fill="white" stroke="white" points="-4,5 -4,-52 351,-52 351,5 -4,5"/>
<!-- Node1 -->
<g id="node1" class="node"><title>Node1</title>
<polygon fill="#bfbfbf" stroke="black" points="0.5,-0.5 0.5,-47.5 143.5,-47.5 143.5,-0.5 0.5,-0.5"/>
<text text-anchor="start" x="8.5" y="-34.5" font-family="Verdana" font-size="10.00">CConfigurableDomain</text>
<text text-anchor="start" x="8.5" y="-21.5" font-family="Verdana" font-size="10.00">::isApplicableConfiguration</text>
<text text-anchor="middle" x="72" y="-8.5" font-family="Verdana" font-size="10.00">Valid</text>
</g>
<!-- Node2 -->
<g id="node3" class="node"><title>Node2</title>
<a xlink:href="classCConfigurableElement.html#a711b8af1b9aac12e57244f2edbe916e9" target="_top" xlink:title="CConfigurableElement\l::hasNoValidDomainAssociated">
<polygon fill="white" stroke="black" points="180,-7 180,-41 346,-41 346,-7 180,-7"/>
<text text-anchor="start" x="188" y="-28" font-family="Verdana" font-size="10.00">CConfigurableElement</text>
<text text-anchor="middle" x="263" y="-15" font-family="Verdana" font-size="10.00">::hasNoValidDomainAssociated</text>
</a>
</g>
<!-- Node1&#45;&gt;Node2 -->
<g id="edge2" class="edge"><title>Node1&#45;&gt;Node2</title>
<path fill="none" stroke="midnightblue" d="M153.683,-24C162.292,-24 171.054,-24 179.682,-24"/>
<polygon fill="midnightblue" stroke="midnightblue" points="153.665,-20.5001 143.665,-24 153.665,-27.5001 153.665,-20.5001"/>
</g>
</g>
</svg>
