<?xml version="1.0" encoding="UTF-8" standalone="no"?>
<!DOCTYPE svg PUBLIC "-//W3C//DTD SVG 1.1//EN"
 "http://www.w3.org/Graphics/SVG/1.1/DTD/svg11.dtd">
<!-- Generated by graphviz version 2.26.3 (20100126.1600)
 -->
<!-- Title: ISyncer::sync Pages: 1 -->
<svg width="1260pt" height="354pt"
 viewBox="0.00 0.00 1260.00 354.35" xmlns="http://www.w3.org/2000/svg" xmlns:xlink="http://www.w3.org/1999/xlink">
<g id="graph1" class="graph" transform="scale(1 1) rotate(0) translate(4 350.353)">
<title>ISyncer::sync</title>
<polygon fill="white" stroke="white" points="-4,5 -4,-350.353 1257,-350.353 1257,5 -4,5"/>
<!-- Node1 -->
<g id="node1" class="node"><title>Node1</title>
<polygon fill="#bfbfbf" stroke="black" points="0,-200.853 0,-221.853 80,-221.853 80,-200.853 0,-200.853"/>
<text text-anchor="middle" x="40" y="-208.853" font-family="Verdana" font-size="10.00">ISyncer::sync</text>
</g>
<!-- Node2 -->
<g id="node3" class="node"><title>Node2</title>
<a xlink:href="classCInstanceConfigurableElement.html#a2e6e7782de8e4d7e844a869917f2f037" target="_top" xlink:title="Performs the sync if the AutoSync is enabled. ">
<polygon fill="white" stroke="black" points="116,-246.353 116,-280.353 280,-280.353 280,-246.353 116,-246.353"/>
<text text-anchor="start" x="124" y="-267.353" font-family="Verdana" font-size="10.00">CInstanceConfigurableElement</text>
<text text-anchor="middle" x="198" y="-254.353" font-family="Verdana" font-size="10.00">::sync</text>
</a>
</g>
<!-- Node1&#45;&gt;Node2 -->
<g id="edge2" class="edge"><title>Node1&#45;&gt;Node2</title>
<path fill="none" stroke="midnightblue" d="M81.6158,-225.05C101.392,-231.558 125.23,-239.404 146.169,-246.295"/>
<polygon fill="midnightblue" stroke="midnightblue" points="82.5666,-221.678 71.9737,-221.876 80.3783,-228.327 82.5666,-221.678"/>
</g>
<!-- Node8 -->
<g id="node15" class="node"><title>Node8</title>
<a xlink:href="classCSyncerSet.html#a6ee2b3a5edcccc64b8694df736312e4b" target="_top" xlink:title="CSyncerSet::sync">
<polygon fill="white" stroke="black" points="147.5,-125.853 147.5,-146.853 248.5,-146.853 248.5,-125.853 147.5,-125.853"/>
<text text-anchor="middle" x="198" y="-133.853" font-family="Verdana" font-size="10.00">CSyncerSet::sync</text>
</a>
</g>
<!-- Node1&#45;&gt;Node8 -->
<g id="edge14" class="edge"><title>Node1&#45;&gt;Node8</title>
<path fill="none" stroke="midnightblue" d="M71.3458,-196.474C102.212,-181.822 148.574,-159.815 175.811,-146.886"/>
<polygon fill="midnightblue" stroke="midnightblue" points="69.8354,-193.316 62.3024,-200.767 72.8372,-199.64 69.8354,-193.316"/>
</g>
<!-- Node3 -->
<g id="node5" class="node"><title>Node3</title>
<a xlink:href="classCArrayParameter.html#a07b3af958a03b2295be159f69b22d42d" target="_top" xlink:title="CArrayParameter::accessValue">
<polygon fill="white" stroke="black" points="320,-232.853 320,-253.853 484,-253.853 484,-232.853 320,-232.853"/>
<text text-anchor="middle" x="402" y="-240.853" font-family="Verdana" font-size="10.00">CArrayParameter::accessValue</text>
</a>
</g>
<!-- Node2&#45;&gt;Node3 -->
<g id="edge4" class="edge"><title>Node2&#45;&gt;Node3</title>
<path fill="none" stroke="midnightblue" d="M290.272,-254.307C300.097,-253.344 310.044,-252.369 319.743,-251.418"/>
<polygon fill="midnightblue" stroke="midnightblue" points="289.704,-250.846 280.093,-255.305 290.387,-257.812 289.704,-250.846"/>
</g>
<!-- Node4 -->
<g id="node7" class="node"><title>Node4</title>
<a xlink:href="classCBaseParameter.html#a2b425561e193a3d54e7225d896a3d39b" target="_top" xlink:title="CBaseParameter::accessAs\lString">
<polygon fill="white" stroke="black" points="327.5,-312.353 327.5,-346.353 476.5,-346.353 476.5,-312.353 327.5,-312.353"/>
<text text-anchor="start" x="335.5" y="-333.353" font-family="Verdana" font-size="10.00">CBaseParameter::accessAs</text>
<text text-anchor="middle" x="402" y="-320.353" font-family="Verdana" font-size="10.00">String</text>
</a>
</g>
<!-- Node2&#45;&gt;Node4 -->
<g id="edge6" class="edge"><title>Node2&#45;&gt;Node4</title>
<path fill="none" stroke="midnightblue" d="M256.635,-283.658C275.541,-290.09 296.617,-297.14 316,-303.353 325.209,-306.305 335.002,-309.352 344.555,-312.276"/>
<polygon fill="midnightblue" stroke="midnightblue" points="257.561,-280.276 246.966,-280.358 255.3,-286.901 257.561,-280.276"/>
</g>
<!-- Node6 -->
<g id="node11" class="node"><title>Node6</title>
<a xlink:href="classCBitParameter.html#a6f4d06e327fb0b816c08e383177a82fc" target="_top" xlink:title="CBitParameter::accessAsInteger">
<polygon fill="white" stroke="black" points="316.5,-272.853 316.5,-293.853 487.5,-293.853 487.5,-272.853 316.5,-272.853"/>
<text text-anchor="middle" x="402" y="-280.853" font-family="Verdana" font-size="10.00">CBitParameter::accessAsInteger</text>
</a>
</g>
<!-- Node2&#45;&gt;Node6 -->
<g id="edge10" class="edge"><title>Node2&#45;&gt;Node6</title>
<path fill="none" stroke="midnightblue" d="M290.256,-272.398C298.965,-273.252 307.769,-274.115 316.412,-274.962"/>
<polygon fill="midnightblue" stroke="midnightblue" points="290.387,-268.894 280.093,-271.402 289.704,-275.861 290.387,-268.894"/>
</g>
<!-- Node5 -->
<g id="node9" class="node"><title>Node5</title>
<a xlink:href="classCBaseParameter.html#a4a9b3e3a2d1ea65a8dc7048559db8dc2" target="_top" xlink:title="CBaseParameter::accessValue">
<polygon fill="white" stroke="black" points="530.5,-318.853 530.5,-339.853 693.5,-339.853 693.5,-318.853 530.5,-318.853"/>
<text text-anchor="middle" x="612" y="-326.853" font-family="Verdana" font-size="10.00">CBaseParameter::accessValue</text>
</a>
</g>
<!-- Node4&#45;&gt;Node5 -->
<g id="edge8" class="edge"><title>Node4&#45;&gt;Node5</title>
<path fill="none" stroke="midnightblue" d="M486.977,-329.353C501.335,-329.353 516.212,-329.353 530.48,-329.353"/>
<polygon fill="midnightblue" stroke="midnightblue" points="486.629,-325.853 476.629,-329.353 486.629,-332.853 486.629,-325.853"/>
</g>
<!-- Node7 -->
<g id="node13" class="node"><title>Node7</title>
<a xlink:href="classCBitParameter.html#a2e0ed93baec3479a9b92314818433a31" target="_top" xlink:title="Value access. ">
<polygon fill="white" stroke="black" points="524,-272.853 524,-293.853 700,-293.853 700,-272.853 524,-272.853"/>
<text text-anchor="middle" x="612" y="-280.853" font-family="Verdana" font-size="10.00">CBitParameter::accessAsBoolean</text>
</a>
</g>
<!-- Node6&#45;&gt;Node7 -->
<g id="edge12" class="edge"><title>Node6&#45;&gt;Node7</title>
<path fill="none" stroke="midnightblue" d="M497.833,-283.353C506.494,-283.353 515.239,-283.353 523.83,-283.353"/>
<polygon fill="midnightblue" stroke="midnightblue" points="497.718,-279.853 487.718,-283.353 497.718,-286.853 497.718,-279.853"/>
</g>
<!-- Node9 -->
<g id="node17" class="node"><title>Node9</title>
<a xlink:href="classCAreaConfiguration.html#a5f72a0349e2309a77459650ba10918a1" target="_top" xlink:title="CAreaConfiguration\l::restore">
<polygon fill="white" stroke="black" points="347,-50.3532 347,-84.3532 457,-84.3532 457,-50.3532 347,-50.3532"/>
<text text-anchor="start" x="355" y="-71.3532" font-family="Verdana" font-size="10.00">CAreaConfiguration</text>
<text text-anchor="middle" x="402" y="-58.3532" font-family="Verdana" font-size="10.00">::restore</text>
</a>
</g>
<!-- Node8&#45;&gt;Node9 -->
<g id="edge16" class="edge"><title>Node8&#45;&gt;Node9</title>
<path fill="none" stroke="midnightblue" d="M234.95,-122.287C258.117,-113.618 288.668,-102.457 316,-93.3532 325.915,-90.0507 336.531,-86.696 346.802,-83.5425"/>
<polygon fill="midnightblue" stroke="midnightblue" points="233.634,-119.042 225.504,-125.837 236.096,-125.595 233.634,-119.042"/>
</g>
<!-- Node12 -->
<g id="node23" class="node"><title>Node12</title>
<a xlink:href="classCConfigurableDomains.html#ab8f2aa74fe0ed3e98fa052587d6c417d" target="_top" xlink:title="CConfigurableDomains\l::apply">
<polygon fill="white" stroke="black" points="894,-28.3532 894,-62.3532 1020,-62.3532 1020,-28.3532 894,-28.3532"/>
<text text-anchor="start" x="902" y="-49.3532" font-family="Verdana" font-size="10.00">CConfigurableDomains</text>
<text text-anchor="middle" x="957" y="-36.3532" font-family="Verdana" font-size="10.00">::apply</text>
</a>
</g>
<!-- Node8&#45;&gt;Node12 -->
<g id="edge32" class="edge"><title>Node8&#45;&gt;Node12</title>
<path fill="none" stroke="midnightblue" d="M213.397,-117.909C233.985,-94.8428 272.922,-56.5389 316,-41.3532 516.991,29.5 775.968,-7.88812 893.709,-31.226"/>
<polygon fill="midnightblue" stroke="midnightblue" points="210.589,-115.804 206.668,-125.646 215.871,-120.397 210.589,-115.804"/>
</g>
<!-- Node13 -->
<g id="node25" class="node"><title>Node13</title>
<a xlink:href="classCConfigurableDomain.html#aa9e776e80956f8cc956b77213aae96ec" target="_top" xlink:title="CConfigurableDomain\l::restoreConfiguration">
<polygon fill="white" stroke="black" points="736.5,-102.353 736.5,-136.353 857.5,-136.353 857.5,-102.353 736.5,-102.353"/>
<text text-anchor="start" x="744.5" y="-123.353" font-family="Verdana" font-size="10.00">CConfigurableDomain</text>
<text text-anchor="middle" x="797" y="-110.353" font-family="Verdana" font-size="10.00">::restoreConfiguration</text>
</a>
</g>
<!-- Node8&#45;&gt;Node13 -->
<g id="edge30" class="edge"><title>Node8&#45;&gt;Node13</title>
<path fill="none" stroke="midnightblue" d="M225.842,-151.602C249.147,-163.449 283.688,-178.911 316,-185.353 473.265,-216.708 662.436,-165.008 749.233,-136.383"/>
<polygon fill="midnightblue" stroke="midnightblue" points="227.371,-148.453 216.884,-146.945 224.141,-154.663 227.371,-148.453"/>
</g>
<!-- Node16 -->
<g id="node33" class="node"><title>Node16</title>
<a xlink:href="classCHardwareBackSynchronizer.html#abc01484c03230247c0a8a3982140b652" target="_top" xlink:title="CHardwareBackSynchronizer\l::sync">
<polygon fill="white" stroke="black" points="324.5,-142.353 324.5,-176.353 479.5,-176.353 479.5,-142.353 324.5,-142.353"/>
<text text-anchor="start" x="332.5" y="-163.353" font-family="Verdana" font-size="10.00">CHardwareBackSynchronizer</text>
<text text-anchor="middle" x="402" y="-150.353" font-family="Verdana" font-size="10.00">::sync</text>
</a>
</g>
<!-- Node8&#45;&gt;Node16 -->
<g id="edge34" class="edge"><title>Node8&#45;&gt;Node16</title>
<path fill="none" stroke="midnightblue" d="M258.833,-143.212C279.337,-145.524 302.508,-148.136 324.141,-150.575"/>
<polygon fill="midnightblue" stroke="midnightblue" points="259.018,-139.711 248.689,-142.068 258.234,-146.667 259.018,-139.711"/>
</g>
<!-- Node17 -->
<g id="node35" class="node"><title>Node17</title>
<a xlink:href="classCParameterMgr.html#a3c23f1ef6dbe73de230fe429af194937" target="_top" xlink:title="CParameterMgr::sync">
<polygon fill="white" stroke="black" points="342.5,-102.853 342.5,-123.853 461.5,-123.853 461.5,-102.853 342.5,-102.853"/>
<text text-anchor="middle" x="402" y="-110.853" font-family="Verdana" font-size="10.00">CParameterMgr::sync</text>
</a>
</g>
<!-- Node8&#45;&gt;Node17 -->
<g id="edge36" class="edge"><title>Node8&#45;&gt;Node17</title>
<path fill="none" stroke="midnightblue" d="M258.919,-129.485C285.24,-126.517 315.944,-123.056 342.146,-120.101"/>
<polygon fill="midnightblue" stroke="midnightblue" points="258.234,-126.04 248.689,-130.638 259.018,-132.996 258.234,-126.04"/>
</g>
<!-- Node10 -->
<g id="node19" class="node"><title>Node10</title>
<a xlink:href="classCDomainConfiguration.html#a1e837621d00a5ed2282c525c25a484e7" target="_top" xlink:title="CDomainConfiguration\l::restore">
<polygon fill="white" stroke="black" points="549.5,-50.3532 549.5,-84.3532 674.5,-84.3532 674.5,-50.3532 549.5,-50.3532"/>
<text text-anchor="start" x="557.5" y="-71.3532" font-family="Verdana" font-size="10.00">CDomainConfiguration</text>
<text text-anchor="middle" x="612" y="-58.3532" font-family="Verdana" font-size="10.00">::restore</text>
</a>
</g>
<!-- Node9&#45;&gt;Node10 -->
<g id="edge18" class="edge"><title>Node9&#45;&gt;Node10</title>
<path fill="none" stroke="midnightblue" d="M467.37,-67.3532C493.528,-67.3532 523.532,-67.3532 549.406,-67.3532"/>
<polygon fill="midnightblue" stroke="midnightblue" points="467.175,-63.8533 457.175,-67.3532 467.175,-70.8533 467.175,-63.8533"/>
</g>
<!-- Node11 -->
<g id="node21" class="node"><title>Node11</title>
<a xlink:href="classCConfigurableDomain.html#a928805e163719f902c207c061ab3b1c2" target="_top" xlink:title="CConfigurableDomain\l::apply">
<polygon fill="white" stroke="black" points="736.5,-50.3532 736.5,-84.3532 857.5,-84.3532 857.5,-50.3532 736.5,-50.3532"/>
<text text-anchor="start" x="744.5" y="-71.3532" font-family="Verdana" font-size="10.00">CConfigurableDomain</text>
<text text-anchor="middle" x="797" y="-58.3532" font-family="Verdana" font-size="10.00">::apply</text>
</a>
</g>
<!-- Node10&#45;&gt;Node11 -->
<g id="edge20" class="edge"><title>Node10&#45;&gt;Node11</title>
<path fill="none" stroke="midnightblue" d="M685.064,-67.3532C702.042,-67.3532 719.934,-67.3532 736.312,-67.3532"/>
<polygon fill="midnightblue" stroke="midnightblue" points="684.633,-63.8533 674.633,-67.3532 684.633,-70.8533 684.633,-63.8533"/>
</g>
<!-- Node10&#45;&gt;Node13 -->
<g id="edge24" class="edge"><title>Node10&#45;&gt;Node13</title>
<path fill="none" stroke="midnightblue" d="M682.314,-87.1173C700.091,-92.114 719.03,-97.4373 736.288,-102.288"/>
<polygon fill="midnightblue" stroke="midnightblue" points="683.15,-83.7166 672.576,-84.38 681.256,-90.4554 683.15,-83.7166"/>
</g>
<!-- Node11&#45;&gt;Node12 -->
<g id="edge22" class="edge"><title>Node11&#45;&gt;Node12</title>
<path fill="none" stroke="midnightblue" d="M867.97,-57.5949C876.585,-56.4103 885.341,-55.2063 893.833,-54.0387"/>
<polygon fill="midnightblue" stroke="midnightblue" points="867.376,-54.1436 857.946,-58.9732 868.329,-61.0783 867.376,-54.1436"/>
</g>
<!-- Node14 -->
<g id="node27" class="node"><title>Node14</title>
<a xlink:href="classCConfigurableDomains.html#a9fa62075b2521f79af18240367662cc7" target="_top" xlink:title="CConfigurableDomains\l::restoreConfiguration">
<polygon fill="white" stroke="black" points="894,-102.353 894,-136.353 1020,-136.353 1020,-102.353 894,-102.353"/>
<text text-anchor="start" x="902" y="-123.353" font-family="Verdana" font-size="10.00">CConfigurableDomains</text>
<text text-anchor="middle" x="957" y="-110.353" font-family="Verdana" font-size="10.00">::restoreConfiguration</text>
</a>
</g>
<!-- Node13&#45;&gt;Node14 -->
<g id="edge26" class="edge"><title>Node13&#45;&gt;Node14</title>
<path fill="none" stroke="midnightblue" d="M867.97,-119.353C876.585,-119.353 885.341,-119.353 893.833,-119.353"/>
<polygon fill="midnightblue" stroke="midnightblue" points="867.946,-115.853 857.946,-119.353 867.946,-122.853 867.946,-115.853"/>
</g>
<!-- Node15 -->
<g id="node29" class="node"><title>Node15</title>
<a xlink:href="classCParameterMgr.html#a04786772b59275eef5f1af23dc9a639d" target="_top" xlink:title="CParameterMgr::restoreConfiguration">
<polygon fill="white" stroke="black" points="1056,-108.853 1056,-129.853 1252,-129.853 1252,-108.853 1056,-108.853"/>
<text text-anchor="middle" x="1154" y="-116.853" font-family="Verdana" font-size="10.00">CParameterMgr::restoreConfiguration</text>
</a>
</g>
<!-- Node14&#45;&gt;Node15 -->
<g id="edge28" class="edge"><title>Node14&#45;&gt;Node15</title>
<path fill="none" stroke="midnightblue" d="M1030.17,-119.353C1038.5,-119.353 1047.1,-119.353 1055.69,-119.353"/>
<polygon fill="midnightblue" stroke="midnightblue" points="1030.14,-115.853 1020.14,-119.353 1030.14,-122.853 1030.14,-115.853"/>
</g>
<!-- Node18 -->
<g id="node37" class="node"><title>Node18</title>
<a xlink:href="classCParameterMgr.html#acdcc1016dc61898195e8855979803572" target="_top" xlink:title="Sync. ">
<polygon fill="white" stroke="black" points="533,-102.853 533,-123.853 691,-123.853 691,-102.853 533,-102.853"/>
<text text-anchor="middle" x="612" y="-110.853" font-family="Verdana" font-size="10.00">CParameterMgr::setAutoSync</text>
</a>
</g>
<!-- Node17&#45;&gt;Node18 -->
<g id="edge38" class="edge"><title>Node17&#45;&gt;Node18</title>
<path fill="none" stroke="midnightblue" d="M471.646,-113.353C491.18,-113.353 512.563,-113.353 532.617,-113.353"/>
<polygon fill="midnightblue" stroke="midnightblue" points="471.616,-109.853 461.616,-113.353 471.616,-116.853 471.616,-109.853"/>
</g>
</g>
</svg>
