<?xml version="1.0" encoding="UTF-8" standalone="no"?>
<!DOCTYPE svg PUBLIC "-//W3C//DTD SVG 1.1//EN"
 "http://www.w3.org/Graphics/SVG/1.1/DTD/svg11.dtd">
<!-- Generated by graphviz version 2.26.3 (20100126.1600)
 -->
<!-- Title: CAreaConfiguration::copyToOuter Pages: 1 -->
<svg width="300pt" height="152pt"
 viewBox="0.00 0.00 300.00 152.00" xmlns="http://www.w3.org/2000/svg" xmlns:xlink="http://www.w3.org/1999/xlink">
<g id="graph1" class="graph" transform="scale(1 1) rotate(0) translate(4 148)">
<title>CAreaConfiguration::copyToOuter</title>
<polygon fill="white" stroke="white" points="-4,5 -4,-148 297,-148 297,5 -4,5"/>
<!-- Node1 -->
<g id="node1" class="node"><title>Node1</title>
<polygon fill="#bfbfbf" stroke="black" points="0,-52 0,-86 110,-86 110,-52 0,-52"/>
<text text-anchor="start" x="8" y="-73" font-family="Verdana" font-size="10.00">CAreaConfiguration</text>
<text text-anchor="middle" x="55" y="-60" font-family="Verdana" font-size="10.00">::copyToOuter</text>
</g>
<!-- Node2 -->
<g id="node3" class="node"><title>Node2</title>
<a xlink:href="classCElement.html#a7653fbad5491138533ac0fa889ffecd9" target="_top" xlink:title="CElement::isDescendantOf">
<polygon fill="white" stroke="black" points="146.5,-104.5 146.5,-125.5 291.5,-125.5 291.5,-104.5 146.5,-104.5"/>
<text text-anchor="middle" x="219" y="-112.5" font-family="Verdana" font-size="10.00">CElement::isDescendantOf</text>
</a>
</g>
<!-- Node1&#45;&gt;Node2 -->
<g id="edge2" class="edge"><title>Node1&#45;&gt;Node2</title>
<path fill="none" stroke="midnightblue" d="M110.314,-84.9081C122.086,-88.2647 134.449,-91.7677 146,-95 153.917,-97.2154 162.324,-99.5425 170.509,-101.794"/>
<polygon fill="midnightblue" stroke="midnightblue" points="169.765,-105.22 180.335,-104.491 171.618,-98.4692 169.765,-105.22"/>
</g>
<!-- Node3 -->
<g id="node6" class="node"><title>Node3</title>
<a xlink:href="classCAreaConfiguration.html#a1f85dedf12591c3f43830a00e5c352df" target="_top" xlink:title="CAreaConfiguration\l::getConfigurableElement">
<polygon fill="white" stroke="black" points="150,-52 150,-86 288,-86 288,-52 150,-52"/>
<text text-anchor="start" x="158" y="-73" font-family="Verdana" font-size="10.00">CAreaConfiguration</text>
<text text-anchor="middle" x="219" y="-60" font-family="Verdana" font-size="10.00">::getConfigurableElement</text>
</a>
</g>
<!-- Node1&#45;&gt;Node3 -->
<g id="edge6" class="edge"><title>Node1&#45;&gt;Node3</title>
<path fill="none" stroke="midnightblue" d="M110.066,-69C119.627,-69 129.738,-69 139.793,-69"/>
<polygon fill="midnightblue" stroke="midnightblue" points="139.807,-72.5001 149.807,-69 139.807,-65.5001 139.807,-72.5001"/>
</g>
<!-- Node4 -->
<g id="node8" class="node"><title>Node4</title>
<a xlink:href="classCConfigurableElement.html#a29d61e6d09ff508ebb87aea802f2704e" target="_top" xlink:title="CConfigurableElement\l::getOffset">
<polygon fill="white" stroke="black" points="157.5,-0 157.5,-34 280.5,-34 280.5,-0 157.5,-0"/>
<text text-anchor="start" x="165.5" y="-21" font-family="Verdana" font-size="10.00">CConfigurableElement</text>
<text text-anchor="middle" x="219" y="-8" font-family="Verdana" font-size="10.00">::getOffset</text>
</a>
</g>
<!-- Node1&#45;&gt;Node4 -->
<g id="edge8" class="edge"><title>Node1&#45;&gt;Node4</title>
<path fill="none" stroke="midnightblue" d="M108.7,-51.9733C123.566,-47.2595 139.847,-42.0973 155.227,-37.2207"/>
<polygon fill="midnightblue" stroke="midnightblue" points="156.705,-40.4238 165.18,-34.065 154.589,-33.7512 156.705,-40.4238"/>
</g>
<!-- Node2&#45;&gt;Node2 -->
<g id="edge4" class="edge"><title>Node2&#45;&gt;Node2</title>
<path fill="none" stroke="midnightblue" d="M192.942,-125.708C181.806,-134.653 190.492,-144 219,-144 237.708,-144 247.88,-139.975 249.515,-134.679"/>
<polygon fill="midnightblue" stroke="midnightblue" points="252.642,-133.106 245.058,-125.708 246.373,-136.221 252.642,-133.106"/>
</g>
</g>
</svg>
