<?xml version="1.0" encoding="UTF-8" standalone="no"?>
<!DOCTYPE svg PUBLIC "-//W3C//DTD SVG 1.1//EN"
 "http://www.w3.org/Graphics/SVG/1.1/DTD/svg11.dtd">
<!-- Generated by graphviz version 2.26.3 (20100126.1600)
 -->
<!-- Title: CSelectionCriterion::excludes Pages: 1 -->
<svg width="280pt" height="42pt"
 viewBox="0.00 0.00 280.00 42.00" xmlns="http://www.w3.org/2000/svg" xmlns:xlink="http://www.w3.org/1999/xlink">
<g id="graph1" class="graph" transform="scale(1 1) rotate(0) translate(4 38)">
<title>CSelectionCriterion::excludes</title>
<polygon fill="white" stroke="white" points="-4,5 -4,-38 277,-38 277,5 -4,5"/>
<!-- Node1 -->
<g id="node1" class="node"><title>Node1</title>
<polygon fill="#bfbfbf" stroke="black" points="0,-0 0,-34 108,-34 108,-0 0,-0"/>
<text text-anchor="start" x="8" y="-21" font-family="Verdana" font-size="10.00">CSelectionCriterion</text>
<text text-anchor="middle" x="54" y="-8" font-family="Verdana" font-size="10.00">::excludes</text>
</g>
<!-- Node2 -->
<g id="node3" class="node"><title>Node2</title>
<a xlink:href="classCSelectionCriterionRule.html#ab0a5ffe0188207742a55f443493b08a0" target="_top" xlink:title="CSelectionCriterionRule\l::matches">
<polygon fill="white" stroke="black" points="144,-0 144,-34 272,-34 272,-0 144,-0"/>
<text text-anchor="start" x="152" y="-21" font-family="Verdana" font-size="10.00">CSelectionCriterionRule</text>
<text text-anchor="middle" x="208" y="-8" font-family="Verdana" font-size="10.00">::matches</text>
</a>
</g>
<!-- Node1&#45;&gt;Node2 -->
<g id="edge2" class="edge"><title>Node1&#45;&gt;Node2</title>
<path fill="none" stroke="midnightblue" d="M118.441,-17C126.866,-17 135.497,-17 143.916,-17"/>
<polygon fill="midnightblue" stroke="midnightblue" points="118.295,-13.5001 108.295,-17 118.295,-20.5001 118.295,-13.5001"/>
</g>
</g>
</svg>
