<?xml version="1.0" encoding="UTF-8" standalone="no"?>
<!DOCTYPE svg PUBLIC "-//W3C//DTD SVG 1.1//EN"
 "http://www.w3.org/Graphics/SVG/1.1/DTD/svg11.dtd">
<!-- Generated by graphviz version 2.26.3 (20100126.1600)
 -->
<!-- Title: CConfigurableDomains Pages: 1 -->
<svg width="158pt" height="204pt"
 viewBox="0.00 0.00 158.00 204.00" xmlns="http://www.w3.org/2000/svg" xmlns:xlink="http://www.w3.org/1999/xlink">
<g id="graph1" class="graph" transform="scale(1 1) rotate(0) translate(4 200)">
<title>CConfigurableDomains</title>
<polygon fill="white" stroke="white" points="-4,5 -4,-200 155,-200 155,5 -4,5"/>
<!-- Node1 -->
<g id="node1" class="node"><title>Node1</title>
<polygon fill="#bfbfbf" stroke="black" points="11,-0.5 11,-21.5 137,-21.5 137,-0.5 11,-0.5"/>
<text text-anchor="middle" x="74" y="-8.5" font-family="Verdana" font-size="10.00">CConfigurableDomains</text>
</g>
<!-- Node2 -->
<g id="node2" class="node"><title>Node2</title>
<a xlink:href="classCBinarySerializableElement.html" target="_top" xlink:title="CBinarySerializableElement">
<polygon fill="white" stroke="black" points="0,-58.5 0,-79.5 148,-79.5 148,-58.5 0,-58.5"/>
<text text-anchor="middle" x="74" y="-66.5" font-family="Verdana" font-size="10.00">CBinarySerializableElement</text>
</a>
</g>
<!-- Node2&#45;&gt;Node1 -->
<g id="edge2" class="edge"><title>Node2&#45;&gt;Node1</title>
<path fill="none" stroke="midnightblue" d="M74,-48.1906C74,-39.1684 74,-28.9941 74,-21.5707"/>
<polygon fill="midnightblue" stroke="midnightblue" points="70.5001,-48.3619 74,-58.3619 77.5001,-48.3619 70.5001,-48.3619"/>
</g>
<!-- Node3 -->
<g id="node4" class="node"><title>Node3</title>
<a xlink:href="classCElement.html" target="_top" xlink:title="CElement">
<polygon fill="white" stroke="black" points="42.5,-116.5 42.5,-137.5 105.5,-137.5 105.5,-116.5 42.5,-116.5"/>
<text text-anchor="middle" x="74" y="-124.5" font-family="Verdana" font-size="10.00">CElement</text>
</a>
</g>
<!-- Node3&#45;&gt;Node2 -->
<g id="edge4" class="edge"><title>Node3&#45;&gt;Node2</title>
<path fill="none" stroke="midnightblue" d="M74,-106.191C74,-97.1684 74,-86.9941 74,-79.5707"/>
<polygon fill="midnightblue" stroke="midnightblue" points="70.5001,-106.362 74,-116.362 77.5001,-106.362 70.5001,-106.362"/>
</g>
<!-- Node4 -->
<g id="node6" class="node"><title>Node4</title>
<polygon fill="white" stroke="#bfbfbf" points="5.5,-174.5 5.5,-195.5 62.5,-195.5 62.5,-174.5 5.5,-174.5"/>
<text text-anchor="middle" x="34" y="-182.5" font-family="Verdana" font-size="10.00">IXmlSink</text>
</g>
<!-- Node4&#45;&gt;Node3 -->
<g id="edge6" class="edge"><title>Node4&#45;&gt;Node3</title>
<path fill="none" stroke="midnightblue" d="M47.1317,-165.959C53.64,-156.522 61.2528,-145.484 66.7099,-137.571"/>
<polygon fill="midnightblue" stroke="midnightblue" points="44.1327,-164.143 41.3366,-174.362 49.8952,-168.117 44.1327,-164.143"/>
</g>
<!-- Node5 -->
<g id="node8" class="node"><title>Node5</title>
<polygon fill="white" stroke="#bfbfbf" points="79.5,-174.5 79.5,-195.5 150.5,-195.5 150.5,-174.5 79.5,-174.5"/>
<text text-anchor="middle" x="115" y="-182.5" font-family="Verdana" font-size="10.00">IXmlSource</text>
</g>
<!-- Node5&#45;&gt;Node3 -->
<g id="edge8" class="edge"><title>Node5&#45;&gt;Node3</title>
<path fill="none" stroke="midnightblue" d="M101.54,-165.959C94.869,-156.522 87.0659,-145.484 81.4724,-137.571"/>
<polygon fill="midnightblue" stroke="midnightblue" points="98.8495,-168.216 107.48,-174.362 104.566,-164.176 98.8495,-168.216"/>
</g>
</g>
</svg>
