<?xml version="1.0" encoding="UTF-8" standalone="no"?>
<!DOCTYPE svg PUBLIC "-//W3C//DTD SVG 1.1//EN"
 "http://www.w3.org/Graphics/SVG/1.1/DTD/svg11.dtd">
<!-- Generated by graphviz version 2.26.3 (20100126.1600)
 -->
<!-- Title: CRemoteProcessorServer::stop Pages: 1 -->
<svg width="338pt" height="42pt"
 viewBox="0.00 0.00 338.00 42.00" xmlns="http://www.w3.org/2000/svg" xmlns:xlink="http://www.w3.org/1999/xlink">
<g id="graph1" class="graph" transform="scale(1 1) rotate(0) translate(4 38)">
<title>CRemoteProcessorServer::stop</title>
<polygon fill="white" stroke="white" points="-4,5 -4,-38 335,-38 335,5 -4,5"/>
<!-- Node1 -->
<g id="node1" class="node"><title>Node1</title>
<polygon fill="#bfbfbf" stroke="black" points="0.5,-0 0.5,-34 139.5,-34 139.5,-0 0.5,-0"/>
<text text-anchor="start" x="8.5" y="-21" font-family="Verdana" font-size="10.00">CRemoteProcessorServer</text>
<text text-anchor="middle" x="70" y="-8" font-family="Verdana" font-size="10.00">::stop</text>
</g>
<!-- Node2 -->
<g id="node3" class="node"><title>Node2</title>
<a xlink:href="classCRemoteProcessorServer.html#a36dfb20db5e7228937a04bf2ba41a0c8" target="_top" xlink:title="CRemoteProcessorServer\l::~CRemoteProcessorServer">
<polygon fill="white" stroke="black" points="176.5,-0 176.5,-34 329.5,-34 329.5,-0 176.5,-0"/>
<text text-anchor="start" x="184.5" y="-21" font-family="Verdana" font-size="10.00">CRemoteProcessorServer</text>
<text text-anchor="middle" x="253" y="-8" font-family="Verdana" font-size="10.00">::~CRemoteProcessorServer</text>
</a>
</g>
<!-- Node1&#45;&gt;Node2 -->
<g id="edge2" class="edge"><title>Node1&#45;&gt;Node2</title>
<path fill="none" stroke="midnightblue" d="M149.955,-17C158.758,-17 167.707,-17 176.467,-17"/>
<polygon fill="midnightblue" stroke="midnightblue" points="149.707,-13.5001 139.706,-17 149.706,-20.5001 149.707,-13.5001"/>
</g>
</g>
</svg>
