<?xml version="1.0" encoding="UTF-8" standalone="no"?>
<!DOCTYPE svg PUBLIC "-//W3C//DTD SVG 1.1//EN"
 "http://www.w3.org/Graphics/SVG/1.1/DTD/svg11.dtd">
<!-- Generated by graphviz version 2.26.3 (20100126.1600)
 -->
<!-- Title: CConfigurableDomain::saveConfiguration Pages: 1 -->
<svg width="598pt" height="122pt"
 viewBox="0.00 0.00 598.00 122.00" xmlns="http://www.w3.org/2000/svg" xmlns:xlink="http://www.w3.org/1999/xlink">
<g id="graph1" class="graph" transform="scale(1 1) rotate(0) translate(4 118)">
<title>CConfigurableDomain::saveConfiguration</title>
<polygon fill="white" stroke="white" points="-4,5 -4,-118 595,-118 595,5 -4,5"/>
<!-- Node1 -->
<g id="node1" class="node"><title>Node1</title>
<polygon fill="#bfbfbf" stroke="black" points="0.5,-46 0.5,-80 121.5,-80 121.5,-46 0.5,-46"/>
<text text-anchor="start" x="8.5" y="-67" font-family="Verdana" font-size="10.00">CConfigurableDomain</text>
<text text-anchor="middle" x="61" y="-54" font-family="Verdana" font-size="10.00">::saveConfiguration</text>
</g>
<!-- Node2 -->
<g id="node3" class="node"><title>Node2</title>
<a xlink:href="classCElement.html#aaa4df1b13a53263f8cc2b668172873d9" target="_top" xlink:title="CElement::log_info">
<polygon fill="white" stroke="black" points="168,-92.5 168,-113.5 274,-113.5 274,-92.5 168,-92.5"/>
<text text-anchor="middle" x="221" y="-100.5" font-family="Verdana" font-size="10.00">CElement::log_info</text>
</a>
</g>
<!-- Node1&#45;&gt;Node2 -->
<g id="edge2" class="edge"><title>Node1&#45;&gt;Node2</title>
<path fill="none" stroke="midnightblue" d="M121.946,-78.2364C137.301,-82.0752 153.651,-86.1627 168.548,-89.8871"/>
<polygon fill="midnightblue" stroke="midnightblue" points="168.05,-93.3702 178.6,-92.4001 169.748,-86.5792 168.05,-93.3702"/>
</g>
<!-- Node3 -->
<g id="node5" class="node"><title>Node3</title>
<a xlink:href="classCElement.html#a49581fb6412e29e932962acd82d52d6a" target="_top" xlink:title="CElement::getName">
<polygon fill="white" stroke="black" points="164,-52.5 164,-73.5 278,-73.5 278,-52.5 164,-52.5"/>
<text text-anchor="middle" x="221" y="-60.5" font-family="Verdana" font-size="10.00">CElement::getName</text>
</a>
</g>
<!-- Node1&#45;&gt;Node3 -->
<g id="edge4" class="edge"><title>Node1&#45;&gt;Node3</title>
<path fill="none" stroke="midnightblue" d="M121.946,-63C132.386,-63 143.286,-63 153.876,-63"/>
<polygon fill="midnightblue" stroke="midnightblue" points="153.91,-66.5001 163.91,-63 153.91,-59.5001 153.91,-66.5001"/>
</g>
<!-- Node4 -->
<g id="node7" class="node"><title>Node4</title>
<a xlink:href="classCDomainConfiguration.html#aff0adeb0eb6645ef3ae8a4b75c4a7892" target="_top" xlink:title="CDomainConfiguration\l::save">
<polygon fill="white" stroke="black" points="158.5,-0 158.5,-34 283.5,-34 283.5,-0 158.5,-0"/>
<text text-anchor="start" x="166.5" y="-21" font-family="Verdana" font-size="10.00">CDomainConfiguration</text>
<text text-anchor="middle" x="221" y="-8" font-family="Verdana" font-size="10.00">::save</text>
</a>
</g>
<!-- Node1&#45;&gt;Node4 -->
<g id="edge6" class="edge"><title>Node1&#45;&gt;Node4</title>
<path fill="none" stroke="midnightblue" d="M120.578,-45.8713C130.745,-42.9483 141.383,-39.8898 151.775,-36.9022"/>
<polygon fill="midnightblue" stroke="midnightblue" points="152.995,-40.1933 161.639,-34.0664 151.061,-33.4658 152.995,-40.1933"/>
</g>
<!-- Node5 -->
<g id="node9" class="node"><title>Node5</title>
<a xlink:href="classCAreaConfiguration.html#a0ab61255d58c402f059aceb6668b943d" target="_top" xlink:title="CAreaConfiguration\l::save">
<polygon fill="white" stroke="black" points="320,-0 320,-34 430,-34 430,-0 320,-0"/>
<text text-anchor="start" x="328" y="-21" font-family="Verdana" font-size="10.00">CAreaConfiguration</text>
<text text-anchor="middle" x="375" y="-8" font-family="Verdana" font-size="10.00">::save</text>
</a>
</g>
<!-- Node4&#45;&gt;Node5 -->
<g id="edge8" class="edge"><title>Node4&#45;&gt;Node5</title>
<path fill="none" stroke="midnightblue" d="M283.638,-17C292.256,-17 301.124,-17 309.788,-17"/>
<polygon fill="midnightblue" stroke="midnightblue" points="309.837,-20.5001 319.837,-17 309.837,-13.5001 309.837,-20.5001"/>
</g>
<!-- Node6 -->
<g id="node11" class="node"><title>Node6</title>
<a xlink:href="classCConfigurableElement.html#a29d61e6d09ff508ebb87aea802f2704e" target="_top" xlink:title="CConfigurableElement\l::getOffset">
<polygon fill="white" stroke="black" points="466.5,-0 466.5,-34 589.5,-34 589.5,-0 466.5,-0"/>
<text text-anchor="start" x="474.5" y="-21" font-family="Verdana" font-size="10.00">CConfigurableElement</text>
<text text-anchor="middle" x="528" y="-8" font-family="Verdana" font-size="10.00">::getOffset</text>
</a>
</g>
<!-- Node5&#45;&gt;Node6 -->
<g id="edge10" class="edge"><title>Node5&#45;&gt;Node6</title>
<path fill="none" stroke="midnightblue" d="M430.237,-17C438.665,-17 447.468,-17 456.189,-17"/>
<polygon fill="midnightblue" stroke="midnightblue" points="456.362,-20.5001 466.362,-17 456.362,-13.5001 456.362,-20.5001"/>
</g>
</g>
</svg>
