<?xml version="1.0" encoding="UTF-8" standalone="no"?>
<!DOCTYPE svg PUBLIC "-//W3C//DTD SVG 1.1//EN"
 "http://www.w3.org/Graphics/SVG/1.1/DTD/svg11.dtd">
<!-- Generated by graphviz version 2.26.3 (20100126.1600)
 -->
<!-- Title: CElementLocator::locate Pages: 1 -->
<svg width="372pt" height="186pt"
 viewBox="0.00 0.00 372.00 186.00" xmlns="http://www.w3.org/2000/svg" xmlns:xlink="http://www.w3.org/1999/xlink">
<g id="graph1" class="graph" transform="scale(1 1) rotate(0) translate(4 182)">
<title>CElementLocator::locate</title>
<polygon fill="white" stroke="white" points="-4,5 -4,-182 369,-182 369,5 -4,5"/>
<!-- Node1 -->
<g id="node1" class="node"><title>Node1</title>
<polygon fill="#bfbfbf" stroke="black" points="0,-72.5 0,-93.5 134,-93.5 134,-72.5 0,-72.5"/>
<text text-anchor="middle" x="67" y="-80.5" font-family="Verdana" font-size="10.00">CElementLocator::locate</text>
</g>
<!-- Node2 -->
<g id="node3" class="node"><title>Node2</title>
<a xlink:href="classCParameterMgr.html#a25055f536c2d537e86852c87a4e1a061" target="_top" xlink:title="CParameterMgr::accessConfiguration\lValue">
<polygon fill="white" stroke="black" points="170,-144 170,-178 364,-178 364,-144 170,-144"/>
<text text-anchor="start" x="178" y="-165" font-family="Verdana" font-size="10.00">CParameterMgr::accessConfiguration</text>
<text text-anchor="middle" x="267" y="-152" font-family="Verdana" font-size="10.00">Value</text>
</a>
</g>
<!-- Node1&#45;&gt;Node2 -->
<g id="edge2" class="edge"><title>Node1&#45;&gt;Node2</title>
<path fill="none" stroke="midnightblue" d="M94.0856,-98.6109C114.463,-109.872 143.343,-124.823 170,-135 178.47,-138.234 187.501,-141.226 196.516,-143.943"/>
<polygon fill="midnightblue" stroke="midnightblue" points="95.522,-95.4038 85.0867,-93.5717 92.1018,-101.511 95.522,-95.4038"/>
</g>
<!-- Node3 -->
<g id="node5" class="node"><title>Node3</title>
<a xlink:href="classCParameterMgr.html#ae9941471fb32f02b3620cf46cd13ebbb" target="_top" xlink:title="CParameterMgr::addConfigurable\lElementToDomain">
<polygon fill="white" stroke="black" points="179,-92 179,-126 355,-126 355,-92 179,-92"/>
<text text-anchor="start" x="187" y="-113" font-family="Verdana" font-size="10.00">CParameterMgr::addConfigurable</text>
<text text-anchor="middle" x="267" y="-100" font-family="Verdana" font-size="10.00">ElementToDomain</text>
</a>
</g>
<!-- Node1&#45;&gt;Node3 -->
<g id="edge4" class="edge"><title>Node1&#45;&gt;Node3</title>
<path fill="none" stroke="midnightblue" d="M144.356,-93.0562C155.607,-94.519 167.263,-96.0342 178.711,-97.5224"/>
<polygon fill="midnightblue" stroke="midnightblue" points="144.521,-89.5484 134.153,-91.73 143.619,-96.49 144.521,-89.5484"/>
</g>
<!-- Node4 -->
<g id="node7" class="node"><title>Node4</title>
<a xlink:href="classCParameterMgr.html#a4f307490c67f2dde0b08e638500dd5d4" target="_top" xlink:title="CParameterMgr::removeConfigurable\lElementFromDomain">
<polygon fill="white" stroke="black" points="170,-40 170,-74 364,-74 364,-40 170,-40"/>
<text text-anchor="start" x="178" y="-61" font-family="Verdana" font-size="10.00">CParameterMgr::removeConfigurable</text>
<text text-anchor="middle" x="267" y="-48" font-family="Verdana" font-size="10.00">ElementFromDomain</text>
</a>
</g>
<!-- Node1&#45;&gt;Node4 -->
<g id="edge6" class="edge"><title>Node1&#45;&gt;Node4</title>
<path fill="none" stroke="midnightblue" d="M144.238,-72.959C152.611,-71.8706 161.209,-70.7528 169.779,-69.6387"/>
<polygon fill="midnightblue" stroke="midnightblue" points="143.619,-69.51 134.153,-74.27 144.521,-76.4516 143.619,-69.51"/>
</g>
<!-- Node5 -->
<g id="node9" class="node"><title>Node5</title>
<a xlink:href="classCParameterMgr.html#a042735242f31241743085d2d9d7edcc5" target="_top" xlink:title="CParameterMgr::split">
<polygon fill="white" stroke="black" points="208.5,-0.5 208.5,-21.5 325.5,-21.5 325.5,-0.5 208.5,-0.5"/>
<text text-anchor="middle" x="267" y="-8.5" font-family="Verdana" font-size="10.00">CParameterMgr::split</text>
</a>
</g>
<!-- Node1&#45;&gt;Node5 -->
<g id="edge8" class="edge"><title>Node1&#45;&gt;Node5</title>
<path fill="none" stroke="midnightblue" d="M93.2734,-67.2907C113.596,-55.7515 142.771,-40.4921 170,-31 182.177,-26.755 195.545,-23.2807 208.36,-20.4898"/>
<polygon fill="midnightblue" stroke="midnightblue" points="91.51,-64.2672 84.5977,-72.2966 95.0085,-70.3303 91.51,-64.2672"/>
</g>
</g>
</svg>
