<?xml version="1.0" encoding="UTF-8" standalone="no"?>
<!DOCTYPE svg PUBLIC "-//W3C//DTD SVG 1.1//EN"
 "http://www.w3.org/Graphics/SVG/1.1/DTD/svg11.dtd">
<!-- Generated by graphviz version 2.26.3 (20100126.1600)
 -->
<!-- Title: CParameter::setDefaultValues Pages: 1 -->
<svg width="552pt" height="312pt"
 viewBox="0.00 0.00 552.00 311.94" xmlns="http://www.w3.org/2000/svg" xmlns:xlink="http://www.w3.org/1999/xlink">
<g id="graph1" class="graph" transform="scale(1 1) rotate(0) translate(4 307.937)">
<title>CParameter::setDefaultValues</title>
<polygon fill="white" stroke="white" points="-4,5 -4,-307.937 549,-307.937 549,5 -4,5"/>
<!-- Node1 -->
<g id="node1" class="node"><title>Node1</title>
<polygon fill="#bfbfbf" stroke="black" points="0.5,-156.5 0.5,-177.5 161.5,-177.5 161.5,-156.5 0.5,-156.5"/>
<text text-anchor="middle" x="81" y="-164.5" font-family="Verdana" font-size="10.00">CParameter::setDefaultValues</text>
</g>
<!-- Node2 -->
<g id="node3" class="node"><title>Node2</title>
<a xlink:href="classCInstanceConfigurableElement.html#ae2d941df411f8ec4c025cbd04d3ba421" target="_top" xlink:title="CInstanceConfigurableElement\l::getTypeElement">
<polygon fill="white" stroke="black" points="380,-221 380,-255 544,-255 544,-221 380,-221"/>
<text text-anchor="start" x="388" y="-242" font-family="Verdana" font-size="10.00">CInstanceConfigurableElement</text>
<text text-anchor="middle" x="462" y="-229" font-family="Verdana" font-size="10.00">::getTypeElement</text>
</a>
</g>
<!-- Node1&#45;&gt;Node2 -->
<g id="edge2" class="edge"><title>Node1&#45;&gt;Node2</title>
<path fill="none" stroke="midnightblue" d="M86.8739,-177.684C101.586,-203.176 142.829,-267.203 198,-291 273.723,-323.662 370.446,-286.142 423.27,-259.655"/>
<polygon fill="midnightblue" stroke="midnightblue" points="424.999,-262.702 432.296,-255.021 421.802,-256.475 424.999,-262.702"/>
</g>
<!-- Node3 -->
<g id="node5" class="node"><title>Node3</title>
<a xlink:href="classCParameterAccessContext.html#ad354dd5bf2a88f4ed4197be9a59fda20" target="_top" xlink:title="CParameterAccessContext\l::getParameterBlackboard">
<polygon fill="white" stroke="black" points="198.5,-248 198.5,-282 343.5,-282 343.5,-248 198.5,-248"/>
<text text-anchor="start" x="206.5" y="-269" font-family="Verdana" font-size="10.00">CParameterAccessContext</text>
<text text-anchor="middle" x="271" y="-256" font-family="Verdana" font-size="10.00">::getParameterBlackboard</text>
</a>
</g>
<!-- Node1&#45;&gt;Node3 -->
<g id="edge4" class="edge"><title>Node1&#45;&gt;Node3</title>
<path fill="none" stroke="midnightblue" d="M95.9382,-177.615C117.638,-192.699 159.5,-220.549 198,-239 201.753,-240.799 205.666,-242.543 209.644,-244.218"/>
<polygon fill="midnightblue" stroke="midnightblue" points="208.418,-247.498 219.001,-247.999 211.04,-241.008 208.418,-247.498"/>
</g>
<!-- Node4 -->
<g id="node7" class="node"><title>Node4</title>
<a xlink:href="classCParameterBlackboard.html#acebc8035bb3e73be7ece4fcb5169b474" target="_top" xlink:title="CParameterBlackboard\l::writeInteger">
<polygon fill="white" stroke="black" points="207.5,-196 207.5,-230 334.5,-230 334.5,-196 207.5,-196"/>
<text text-anchor="start" x="215.5" y="-217" font-family="Verdana" font-size="10.00">CParameterBlackboard</text>
<text text-anchor="middle" x="271" y="-204" font-family="Verdana" font-size="10.00">::writeInteger</text>
</a>
</g>
<!-- Node1&#45;&gt;Node4 -->
<g id="edge6" class="edge"><title>Node1&#45;&gt;Node4</title>
<path fill="none" stroke="midnightblue" d="M124.59,-177.553C146.159,-182.775 172.789,-189.223 197.398,-195.18"/>
<polygon fill="midnightblue" stroke="midnightblue" points="196.893,-198.659 207.436,-197.611 198.54,-191.856 196.893,-198.659"/>
</g>
<!-- Node5 -->
<g id="node9" class="node"><title>Node5</title>
<a xlink:href="classCParameter.html#a3658a7f1281f902fe3b271fa01037398" target="_top" xlink:title="CParameter::getSize">
<polygon fill="white" stroke="black" points="213,-156.5 213,-177.5 329,-177.5 329,-156.5 213,-156.5"/>
<text text-anchor="middle" x="271" y="-164.5" font-family="Verdana" font-size="10.00">CParameter::getSize</text>
</a>
</g>
<!-- Node1&#45;&gt;Node5 -->
<g id="edge8" class="edge"><title>Node1&#45;&gt;Node5</title>
<path fill="none" stroke="midnightblue" d="M161.577,-167C175.279,-167 189.39,-167 202.735,-167"/>
<polygon fill="midnightblue" stroke="midnightblue" points="202.771,-170.5 212.771,-167 202.771,-163.5 202.771,-170.5"/>
</g>
<!-- Node6 -->
<g id="node12" class="node"><title>Node6</title>
<a xlink:href="classCConfigurableElement.html#a29d61e6d09ff508ebb87aea802f2704e" target="_top" xlink:title="CConfigurableElement\l::getOffset">
<polygon fill="white" stroke="black" points="209.5,-104 209.5,-138 332.5,-138 332.5,-104 209.5,-104"/>
<text text-anchor="start" x="217.5" y="-125" font-family="Verdana" font-size="10.00">CConfigurableElement</text>
<text text-anchor="middle" x="271" y="-112" font-family="Verdana" font-size="10.00">::getOffset</text>
</a>
</g>
<!-- Node1&#45;&gt;Node6 -->
<g id="edge12" class="edge"><title>Node1&#45;&gt;Node6</title>
<path fill="none" stroke="midnightblue" d="M124.59,-156.447C146.739,-151.084 174.223,-144.43 199.376,-138.34"/>
<polygon fill="midnightblue" stroke="midnightblue" points="200.356,-141.704 209.252,-135.95 198.709,-134.901 200.356,-141.704"/>
</g>
<!-- Node7 -->
<g id="node14" class="node"><title>Node7</title>
<a xlink:href="classCParameterAccessContext.html#a8373a015bb145386732483ee3f6bdf63" target="_top" xlink:title="CParameterAccessContext\l::getBaseOffset">
<polygon fill="white" stroke="black" points="198.5,-52 198.5,-86 343.5,-86 343.5,-52 198.5,-52"/>
<text text-anchor="start" x="206.5" y="-73" font-family="Verdana" font-size="10.00">CParameterAccessContext</text>
<text text-anchor="middle" x="271" y="-60" font-family="Verdana" font-size="10.00">::getBaseOffset</text>
</a>
</g>
<!-- Node1&#45;&gt;Node7 -->
<g id="edge14" class="edge"><title>Node1&#45;&gt;Node7</title>
<path fill="none" stroke="midnightblue" d="M95.9382,-156.385C117.638,-141.301 159.5,-113.451 198,-95 201.753,-93.2012 205.666,-91.4575 209.644,-89.7817"/>
<polygon fill="midnightblue" stroke="midnightblue" points="211.04,-92.9924 219.001,-86.0012 208.418,-86.502 211.04,-92.9924"/>
</g>
<!-- Node8 -->
<g id="node16" class="node"><title>Node8</title>
<a xlink:href="classCParameterAccessContext.html#aedfc1595e099d7a4cf5318e3013147c9" target="_top" xlink:title="CParameterAccessContext\l::isBigEndianSubsystem">
<polygon fill="white" stroke="black" points="198.5,-0 198.5,-34 343.5,-34 343.5,-0 198.5,-0"/>
<text text-anchor="start" x="206.5" y="-21" font-family="Verdana" font-size="10.00">CParameterAccessContext</text>
<text text-anchor="middle" x="271" y="-8" font-family="Verdana" font-size="10.00">::isBigEndianSubsystem</text>
</a>
</g>
<!-- Node1&#45;&gt;Node8 -->
<g id="edge16" class="edge"><title>Node1&#45;&gt;Node8</title>
<path fill="none" stroke="midnightblue" d="M88.2304,-156.44C104.902,-132.84 148.43,-75.3564 198,-43 200.297,-41.5005 202.692,-40.075 205.153,-38.7211"/>
<polygon fill="midnightblue" stroke="midnightblue" points="206.938,-41.7415 214.306,-34.1283 203.798,-35.4851 206.938,-41.7415"/>
</g>
<!-- Node5&#45;&gt;Node2 -->
<g id="edge10" class="edge"><title>Node5&#45;&gt;Node2</title>
<path fill="none" stroke="midnightblue" d="M313.388,-177.529C323.504,-180.34 334.205,-183.561 344,-187 368.488,-195.598 395.077,-206.909 416.806,-216.693"/>
<polygon fill="midnightblue" stroke="midnightblue" points="415.559,-219.971 426.111,-220.923 418.456,-213.599 415.559,-219.971"/>
</g>
</g>
</svg>
