<?xml version="1.0" encoding="UTF-8" standalone="no"?>
<!DOCTYPE svg PUBLIC "-//W3C//DTD SVG 1.1//EN"
 "http://www.w3.org/Graphics/SVG/1.1/DTD/svg11.dtd">
<!-- Generated by graphviz version 2.26.3 (20100126.1600)
 -->
<!-- Title: CSubsystemObject::~CSubsystemObject Pages: 1 -->
<svg width="324pt" height="42pt"
 viewBox="0.00 0.00 324.00 42.00" xmlns="http://www.w3.org/2000/svg" xmlns:xlink="http://www.w3.org/1999/xlink">
<g id="graph1" class="graph" transform="scale(1 1) rotate(0) translate(4 38)">
<title>CSubsystemObject::~CSubsystemObject</title>
<polygon fill="white" stroke="white" points="-4,5 -4,-38 321,-38 321,5 -4,5"/>
<!-- Node1 -->
<g id="node1" class="node"><title>Node1</title>
<polygon fill="#bfbfbf" stroke="black" points="0,-0 0,-34 116,-34 116,-0 0,-0"/>
<text text-anchor="start" x="8" y="-21" font-family="Verdana" font-size="10.00">CSubsystemObject::</text>
<text text-anchor="middle" x="58" y="-8" font-family="Verdana" font-size="10.00">~CSubsystemObject</text>
</g>
<!-- Node2 -->
<g id="node3" class="node"><title>Node2</title>
<a xlink:href="classCInstanceConfigurableElement.html#aa9ecf181a3917f82a82439e432849f61" target="_top" xlink:title="CInstanceConfigurableElement\l::unsetSyncer">
<polygon fill="white" stroke="black" points="152,-0 152,-34 316,-34 316,-0 152,-0"/>
<text text-anchor="start" x="160" y="-21" font-family="Verdana" font-size="10.00">CInstanceConfigurableElement</text>
<text text-anchor="middle" x="234" y="-8" font-family="Verdana" font-size="10.00">::unsetSyncer</text>
</a>
</g>
<!-- Node1&#45;&gt;Node2 -->
<g id="edge2" class="edge"><title>Node1&#45;&gt;Node2</title>
<path fill="none" stroke="midnightblue" d="M116.117,-17C124.321,-17 132.918,-17 141.573,-17"/>
<polygon fill="midnightblue" stroke="midnightblue" points="141.739,-20.5001 151.739,-17 141.739,-13.5001 141.739,-20.5001"/>
</g>
</g>
</svg>
