<?xml version="1.0" encoding="UTF-8" standalone="no"?>
<!DOCTYPE svg PUBLIC "-//W3C//DTD SVG 1.1//EN"
 "http://www.w3.org/Graphics/SVG/1.1/DTD/svg11.dtd">
<!-- Generated by graphviz version 2.26.3 (20100126.1600)
 -->
<!-- Title: CParameterMgr::load Pages: 1 -->
<svg width="1184pt" height="302pt"
 viewBox="0.00 0.00 1184.00 302.00" xmlns="http://www.w3.org/2000/svg" xmlns:xlink="http://www.w3.org/1999/xlink">
<g id="graph1" class="graph" transform="scale(1 1) rotate(0) translate(4 298)">
<title>CParameterMgr::load</title>
<polygon fill="white" stroke="white" points="-4,5 -4,-298 1181,-298 1181,5 -4,5"/>
<!-- Node1 -->
<g id="node1" class="node"><title>Node1</title>
<polygon fill="#bfbfbf" stroke="black" points="0,-171.5 0,-192.5 118,-192.5 118,-171.5 0,-171.5"/>
<text text-anchor="middle" x="59" y="-179.5" font-family="Verdana" font-size="10.00">CParameterMgr::load</text>
</g>
<!-- Node2 -->
<g id="node3" class="node"><title>Node2</title>
<a xlink:href="classCBackSynchronizer.html#aee2e5654fab65e762bb294bc1d3cbc05" target="_top" xlink:title="CBackSynchronizer::sync">
<polygon fill="white" stroke="black" points="154.5,-262.5 154.5,-283.5 291.5,-283.5 291.5,-262.5 154.5,-262.5"/>
<text text-anchor="middle" x="223" y="-270.5" font-family="Verdana" font-size="10.00">CBackSynchronizer::sync</text>
</a>
</g>
<!-- Node1&#45;&gt;Node2 -->
<g id="edge2" class="edge"><title>Node1&#45;&gt;Node2</title>
<path fill="none" stroke="midnightblue" d="M70.3748,-192.69C87.3343,-208.09 120.822,-236.481 154,-253 158.558,-255.27 163.418,-257.324 168.366,-259.174"/>
<polygon fill="midnightblue" stroke="midnightblue" points="167.342,-262.523 177.937,-262.483 169.629,-255.907 167.342,-262.523"/>
</g>
<!-- Node3 -->
<g id="node5" class="node"><title>Node3</title>
<a xlink:href="classCConfigurableDomains.html#a6fd812eea1fd18c0d4fa14ec33b57fd5" target="_top" xlink:title="CConfigurableDomains\l::validate">
<polygon fill="white" stroke="black" points="160,-210 160,-244 286,-244 286,-210 160,-210"/>
<text text-anchor="start" x="168" y="-231" font-family="Verdana" font-size="10.00">CConfigurableDomains</text>
<text text-anchor="middle" x="223" y="-218" font-family="Verdana" font-size="10.00">::validate</text>
</a>
</g>
<!-- Node1&#45;&gt;Node3 -->
<g id="edge4" class="edge"><title>Node1&#45;&gt;Node3</title>
<path fill="none" stroke="midnightblue" d="M97.4507,-192.551C113.421,-196.933 132.495,-202.166 150.896,-207.215"/>
<polygon fill="midnightblue" stroke="midnightblue" points="150.159,-210.643 160.729,-209.913 152.012,-203.892 150.159,-210.643"/>
</g>
<!-- Node11 -->
<g id="node23" class="node"><title>Node11</title>
<a xlink:href="classCSelectionCriteria.html#a25ca6671e46d02c906f512f6b33a44e4" target="_top" xlink:title="CSelectionCriteria\l::listSelectionCriteria">
<polygon fill="white" stroke="black" points="165.5,-109 165.5,-143 280.5,-143 280.5,-109 165.5,-109"/>
<text text-anchor="start" x="173.5" y="-130" font-family="Verdana" font-size="10.00">CSelectionCriteria</text>
<text text-anchor="middle" x="223" y="-117" font-family="Verdana" font-size="10.00">::listSelectionCriteria</text>
</a>
</g>
<!-- Node1&#45;&gt;Node11 -->
<g id="edge24" class="edge"><title>Node1&#45;&gt;Node11</title>
<path fill="none" stroke="midnightblue" d="M89.8471,-171.467C110.489,-164.418 138.332,-154.911 163.221,-146.412"/>
<polygon fill="midnightblue" stroke="midnightblue" points="164.62,-149.633 172.952,-143.089 162.358,-143.009 164.62,-149.633"/>
</g>
<!-- Node21 -->
<g id="node46" class="node"><title>Node21</title>
<a xlink:href="classCElement.html#a6fadaf69d17a61c431422ed6d8a1f8f0" target="_top" xlink:title="CElement::log_table">
<polygon fill="white" stroke="black" points="166.5,-69.5 166.5,-90.5 279.5,-90.5 279.5,-69.5 166.5,-69.5"/>
<text text-anchor="middle" x="223" y="-77.5" font-family="Verdana" font-size="10.00">CElement::log_table</text>
</a>
</g>
<!-- Node1&#45;&gt;Node21 -->
<g id="edge50" class="edge"><title>Node1&#45;&gt;Node21</title>
<path fill="none" stroke="midnightblue" d="M68.4348,-171.295C84.3707,-153.856 118.38,-119.325 154,-100 157.993,-97.8337 162.246,-95.879 166.605,-94.1195"/>
<polygon fill="midnightblue" stroke="midnightblue" points="168.077,-97.3076 176.256,-90.5732 165.662,-90.7371 168.077,-97.3076"/>
</g>
<!-- Node22 -->
<g id="node48" class="node"><title>Node22</title>
<a xlink:href="classCSystemClass.html#ae6f4699f2c40ce3a72bde018aa4453ad" target="_top" xlink:title="Reset subsystems need to resync flag. ">
<polygon fill="white" stroke="black" points="328,-177 328,-211 504,-211 504,-177 328,-177"/>
<text text-anchor="start" x="336" y="-198" font-family="Verdana" font-size="10.00">CSystemClass::cleanSubsystems</text>
<text text-anchor="middle" x="416" y="-185" font-family="Verdana" font-size="10.00">NeedToResync</text>
</a>
</g>
<!-- Node1&#45;&gt;Node22 -->
<g id="edge52" class="edge"><title>Node1&#45;&gt;Node22</title>
<path fill="none" stroke="midnightblue" d="M118.352,-183.995C172.554,-185.817 253.731,-188.546 317.625,-190.693"/>
<polygon fill="midnightblue" stroke="midnightblue" points="317.612,-194.195 327.724,-191.033 317.847,-187.199 317.612,-194.195"/>
</g>
<!-- Node4 -->
<g id="node7" class="node"><title>Node4</title>
<a xlink:href="classCElement.html#a25f58d9d8b35e770806d669fb2a378e4" target="_top" xlink:title="CElement::getNbChildren">
<polygon fill="white" stroke="black" points="543.5,-220.5 543.5,-241.5 680.5,-241.5 680.5,-220.5 543.5,-220.5"/>
<text text-anchor="middle" x="612" y="-228.5" font-family="Verdana" font-size="10.00">CElement::getNbChildren</text>
</a>
</g>
<!-- Node3&#45;&gt;Node4 -->
<g id="edge6" class="edge"><title>Node3&#45;&gt;Node4</title>
<path fill="none" stroke="midnightblue" d="M270.829,-244.131C277.985,-246.951 285.23,-249.952 292,-253 308.497,-260.426 310.439,-267.65 328,-272 403.928,-290.807 428.489,-292.414 504,-272 521.881,-267.166 522.935,-258.205 540,-251 545.513,-248.672 551.376,-246.534 557.285,-244.593"/>
<polygon fill="midnightblue" stroke="midnightblue" points="558.704,-247.818 567.219,-241.513 556.631,-241.132 558.704,-247.818"/>
</g>
<!-- Node5 -->
<g id="node9" class="node"><title>Node5</title>
<a xlink:href="classCElement.html#a41bf126c3fdbb5bec0c2c3dcf35e9079" target="_top" xlink:title="CElement::getChild">
<polygon fill="white" stroke="black" points="558,-138.5 558,-159.5 666,-159.5 666,-138.5 558,-138.5"/>
<text text-anchor="middle" x="612" y="-146.5" font-family="Verdana" font-size="10.00">CElement::getChild</text>
</a>
</g>
<!-- Node3&#45;&gt;Node5 -->
<g id="edge8" class="edge"><title>Node3&#45;&gt;Node5</title>
<path fill="none" stroke="midnightblue" d="M246.23,-209.913C266.645,-195.918 297.739,-177.01 328,-168 401.05,-146.251 489.168,-143.813 547.68,-145.31"/>
<polygon fill="midnightblue" stroke="midnightblue" points="547.788,-148.815 557.889,-145.619 548,-141.818 547.788,-148.815"/>
</g>
<!-- Node6 -->
<g id="node11" class="node"><title>Node6</title>
<a xlink:href="classCConfigurableDomain.html#a2df6f85b21fa2ccbecc4a1c6d01ae2ed" target="_top" xlink:title="CConfigurableDomain\l::validate">
<polygon fill="white" stroke="black" points="355.5,-229 355.5,-263 476.5,-263 476.5,-229 355.5,-229"/>
<text text-anchor="start" x="363.5" y="-250" font-family="Verdana" font-size="10.00">CConfigurableDomain</text>
<text text-anchor="middle" x="416" y="-237" font-family="Verdana" font-size="10.00">::validate</text>
</a>
</g>
<!-- Node3&#45;&gt;Node6 -->
<g id="edge10" class="edge"><title>Node3&#45;&gt;Node6</title>
<path fill="none" stroke="midnightblue" d="M286.195,-233.221C305.106,-235.083 325.962,-237.136 345.321,-239.042"/>
<polygon fill="midnightblue" stroke="midnightblue" points="344.995,-242.527 355.289,-240.023 345.681,-235.56 344.995,-242.527"/>
</g>
<!-- Node6&#45;&gt;Node4 -->
<g id="edge12" class="edge"><title>Node6&#45;&gt;Node4</title>
<path fill="none" stroke="midnightblue" d="M476.673,-241.357C494.59,-239.985 514.463,-238.465 533.34,-237.02"/>
<polygon fill="midnightblue" stroke="midnightblue" points="533.7,-240.503 543.404,-236.25 533.166,-233.523 533.7,-240.503"/>
</g>
<!-- Node6&#45;&gt;Node5 -->
<g id="edge14" class="edge"><title>Node6&#45;&gt;Node5</title>
<path fill="none" stroke="midnightblue" d="M476.63,-233.784C486.286,-230.271 495.787,-225.768 504,-220 526.115,-204.47 517.957,-186.632 540,-171 543.988,-168.172 548.348,-165.7 552.886,-163.542"/>
<polygon fill="midnightblue" stroke="midnightblue" points="554.533,-166.646 562.388,-159.537 551.814,-160.195 554.533,-166.646"/>
</g>
<!-- Node7 -->
<g id="node15" class="node"><title>Node7</title>
<a xlink:href="classCDomainConfiguration.html#a10c3a1e0899400ecd23a90fb7dc4e4e6" target="_top" xlink:title="CDomainConfiguration\l::validate">
<polygon fill="white" stroke="black" points="549.5,-260 549.5,-294 674.5,-294 674.5,-260 549.5,-260"/>
<text text-anchor="start" x="557.5" y="-281" font-family="Verdana" font-size="10.00">CDomainConfiguration</text>
<text text-anchor="middle" x="612" y="-268" font-family="Verdana" font-size="10.00">::validate</text>
</a>
</g>
<!-- Node6&#45;&gt;Node7 -->
<g id="edge16" class="edge"><title>Node6&#45;&gt;Node7</title>
<path fill="none" stroke="midnightblue" d="M476.673,-255.596C496.48,-258.729 518.678,-262.24 539.277,-265.498"/>
<polygon fill="midnightblue" stroke="midnightblue" points="538.82,-268.969 549.244,-267.074 539.913,-262.055 538.82,-268.969"/>
</g>
<!-- Node8 -->
<g id="node17" class="node"><title>Node8</title>
<a xlink:href="classCAreaConfiguration.html#a9c0ddade93f42f2ed315dd3a0719933c" target="_top" xlink:title="CAreaConfiguration\l::validate">
<polygon fill="white" stroke="black" points="730,-260 730,-294 840,-294 840,-260 730,-260"/>
<text text-anchor="start" x="738" y="-281" font-family="Verdana" font-size="10.00">CAreaConfiguration</text>
<text text-anchor="middle" x="785" y="-268" font-family="Verdana" font-size="10.00">::validate</text>
</a>
</g>
<!-- Node7&#45;&gt;Node8 -->
<g id="edge18" class="edge"><title>Node7&#45;&gt;Node8</title>
<path fill="none" stroke="midnightblue" d="M674.946,-277C689.547,-277 705.116,-277 719.811,-277"/>
<polygon fill="midnightblue" stroke="midnightblue" points="719.821,-280.5 729.821,-277 719.821,-273.5 719.821,-280.5"/>
</g>
<!-- Node9 -->
<g id="node19" class="node"><title>Node9</title>
<a xlink:href="classCAreaConfiguration.html#a0ab61255d58c402f059aceb6668b943d" target="_top" xlink:title="CAreaConfiguration\l::save">
<polygon fill="white" stroke="black" points="896,-260 896,-294 1006,-294 1006,-260 896,-260"/>
<text text-anchor="start" x="904" y="-281" font-family="Verdana" font-size="10.00">CAreaConfiguration</text>
<text text-anchor="middle" x="951" y="-268" font-family="Verdana" font-size="10.00">::save</text>
</a>
</g>
<!-- Node8&#45;&gt;Node9 -->
<g id="edge20" class="edge"><title>Node8&#45;&gt;Node9</title>
<path fill="none" stroke="midnightblue" d="M840.276,-277C854.836,-277 870.681,-277 885.714,-277"/>
<polygon fill="midnightblue" stroke="midnightblue" points="885.966,-280.5 895.966,-277 885.966,-273.5 885.966,-280.5"/>
</g>
<!-- Node10 -->
<g id="node21" class="node"><title>Node10</title>
<a xlink:href="classCConfigurableElement.html#a29d61e6d09ff508ebb87aea802f2704e" target="_top" xlink:title="CConfigurableElement\l::getOffset">
<polygon fill="white" stroke="black" points="1052.5,-260 1052.5,-294 1175.5,-294 1175.5,-260 1052.5,-260"/>
<text text-anchor="start" x="1060.5" y="-281" font-family="Verdana" font-size="10.00">CConfigurableElement</text>
<text text-anchor="middle" x="1114" y="-268" font-family="Verdana" font-size="10.00">::getOffset</text>
</a>
</g>
<!-- Node9&#45;&gt;Node10 -->
<g id="edge22" class="edge"><title>Node9&#45;&gt;Node10</title>
<path fill="none" stroke="midnightblue" d="M1006.18,-277C1017.8,-277 1030.22,-277 1042.34,-277"/>
<polygon fill="midnightblue" stroke="midnightblue" points="1042.43,-280.5 1052.43,-277 1042.43,-273.5 1042.43,-280.5"/>
</g>
<!-- Node12 -->
<g id="node25" class="node"><title>Node12</title>
<a xlink:href="classCSelectionCriteria.html#aa87e3488047e305e72d84d5aa0ed3e08" target="_top" xlink:title="CSelectionCriteria\l::getSelectionCriteriaDefinition">
<polygon fill="white" stroke="black" points="335,-35 335,-69 497,-69 497,-35 335,-35"/>
<text text-anchor="start" x="343" y="-56" font-family="Verdana" font-size="10.00">CSelectionCriteria</text>
<text text-anchor="middle" x="416" y="-43" font-family="Verdana" font-size="10.00">::getSelectionCriteriaDefinition</text>
</a>
</g>
<!-- Node11&#45;&gt;Node12 -->
<g id="edge26" class="edge"><title>Node11&#45;&gt;Node12</title>
<path fill="none" stroke="midnightblue" d="M271.745,-108.95C278.634,-106.161 285.559,-103.147 292,-100 308.848,-91.7688 310.863,-85.6103 328,-78 332.322,-76.0805 336.826,-74.2566 341.41,-72.5319"/>
<polygon fill="midnightblue" stroke="midnightblue" points="342.667,-75.7994 350.901,-69.1321 340.306,-69.2094 342.667,-75.7994"/>
</g>
<!-- Node13 -->
<g id="node28" class="node"><title>Node13</title>
<a xlink:href="classCSelectionCriteriaDefinition.html#a24f1eb22f90ddb42ee971bdfc5f99aa5" target="_top" xlink:title="CSelectionCriteriaDefinition\l::listSelectionCriteria">
<polygon fill="white" stroke="black" points="342.5,-87 342.5,-121 489.5,-121 489.5,-87 342.5,-87"/>
<text text-anchor="start" x="350.5" y="-108" font-family="Verdana" font-size="10.00">CSelectionCriteriaDefinition</text>
<text text-anchor="middle" x="416" y="-95" font-family="Verdana" font-size="10.00">::listSelectionCriteria</text>
</a>
</g>
<!-- Node11&#45;&gt;Node13 -->
<g id="edge30" class="edge"><title>Node11&#45;&gt;Node13</title>
<path fill="none" stroke="midnightblue" d="M280.645,-119.429C296.801,-117.587 314.702,-115.547 332.052,-113.569"/>
<polygon fill="midnightblue" stroke="midnightblue" points="332.647,-117.024 342.186,-112.414 331.854,-110.069 332.647,-117.024"/>
</g>
<!-- Node12&#45;&gt;Node5 -->
<g id="edge28" class="edge"><title>Node12&#45;&gt;Node5</title>
<path fill="none" stroke="midnightblue" d="M488.94,-69.2016C494.247,-71.7448 499.338,-74.6598 504,-78 526.553,-94.1593 517.315,-113.025 540,-129 542.705,-130.905 545.585,-132.628 548.579,-134.188"/>
<polygon fill="midnightblue" stroke="midnightblue" points="547.289,-137.446 557.841,-138.394 550.183,-131.072 547.289,-137.446"/>
</g>
<!-- Node13&#45;&gt;Node4 -->
<g id="edge32" class="edge"><title>Node13&#45;&gt;Node4</title>
<path fill="none" stroke="midnightblue" d="M443.106,-121.179C461.214,-133.247 485.086,-150.334 504,-168 522.215,-185.013 519.048,-197.5 540,-211 543.129,-213.016 546.46,-214.831 549.91,-216.465"/>
<polygon fill="midnightblue" stroke="midnightblue" points="548.683,-219.746 559.259,-220.382 551.388,-213.29 548.683,-219.746"/>
</g>
<!-- Node13&#45;&gt;Node5 -->
<g id="edge34" class="edge"><title>Node13&#45;&gt;Node5</title>
<path fill="none" stroke="midnightblue" d="M489.541,-120.884C511.665,-125.964 535.565,-131.451 556.328,-136.218"/>
<polygon fill="midnightblue" stroke="midnightblue" points="555.717,-139.669 566.247,-138.495 557.284,-132.846 555.717,-139.669"/>
</g>
<!-- Node14 -->
<g id="node32" class="node"><title>Node14</title>
<a xlink:href="classCSelectionCriterion.html#a10a460a1ee7b1a38b34ab8eb90ea74f9" target="_top" xlink:title="User request. ">
<polygon fill="white" stroke="black" points="540.5,-86 540.5,-120 683.5,-120 683.5,-86 540.5,-86"/>
<text text-anchor="start" x="548.5" y="-107" font-family="Verdana" font-size="10.00">CSelectionCriterion</text>
<text text-anchor="middle" x="612" y="-94" font-family="Verdana" font-size="10.00">::getFormattedDescription</text>
</a>
</g>
<!-- Node13&#45;&gt;Node14 -->
<g id="edge36" class="edge"><title>Node13&#45;&gt;Node14</title>
<path fill="none" stroke="midnightblue" d="M489.541,-103.625C502.785,-103.557 516.665,-103.486 530.128,-103.418"/>
<polygon fill="midnightblue" stroke="midnightblue" points="530.342,-106.917 540.324,-103.366 530.306,-99.9169 530.342,-106.917"/>
</g>
<!-- Node15 -->
<g id="node34" class="node"><title>Node15</title>
<a xlink:href="classCElement.html#a834a32898950ca2ce9b629aa3367101e" target="_top" xlink:title="CElement::appendTitle">
<polygon fill="white" stroke="black" points="722.5,-92.5 722.5,-113.5 847.5,-113.5 847.5,-92.5 722.5,-92.5"/>
<text text-anchor="middle" x="785" y="-100.5" font-family="Verdana" font-size="10.00">CElement::appendTitle</text>
</a>
</g>
<!-- Node14&#45;&gt;Node15 -->
<g id="edge38" class="edge"><title>Node14&#45;&gt;Node15</title>
<path fill="none" stroke="midnightblue" d="M683.615,-103C693.035,-103 702.698,-103 712.139,-103"/>
<polygon fill="midnightblue" stroke="midnightblue" points="712.275,-106.5 722.275,-103 712.274,-99.5001 712.275,-106.5"/>
</g>
<!-- Node16 -->
<g id="node36" class="node"><title>Node16</title>
<a xlink:href="classCElement.html#a49581fb6412e29e932962acd82d52d6a" target="_top" xlink:title="CElement::getName">
<polygon fill="white" stroke="black" points="728,-52.5 728,-73.5 842,-73.5 842,-52.5 728,-52.5"/>
<text text-anchor="middle" x="785" y="-60.5" font-family="Verdana" font-size="10.00">CElement::getName</text>
</a>
</g>
<!-- Node14&#45;&gt;Node16 -->
<g id="edge40" class="edge"><title>Node14&#45;&gt;Node16</title>
<path fill="none" stroke="midnightblue" d="M683.615,-86.4417C698.946,-82.8968 714.922,-79.2031 729.535,-75.8244"/>
<polygon fill="midnightblue" stroke="midnightblue" points="730.454,-79.2041 739.409,-73.5413 728.877,-72.384 730.454,-79.2041"/>
</g>
<!-- Node17 -->
<g id="node38" class="node"><title>Node17</title>
<a xlink:href="classCSelectionCriterionType.html#ae88c284c1f002d7237f25e9c21dcf44f" target="_top" xlink:title="CSelectionCriterionType\l::isTypeInclusive">
<polygon fill="white" stroke="black" points="720.5,-0 720.5,-34 849.5,-34 849.5,-0 720.5,-0"/>
<text text-anchor="start" x="728.5" y="-21" font-family="Verdana" font-size="10.00">CSelectionCriterionType</text>
<text text-anchor="middle" x="785" y="-8" font-family="Verdana" font-size="10.00">::isTypeInclusive</text>
</a>
</g>
<!-- Node14&#45;&gt;Node17 -->
<g id="edge42" class="edge"><title>Node14&#45;&gt;Node17</title>
<path fill="none" stroke="midnightblue" d="M640.36,-85.9474C661.846,-73.3483 692.299,-56.17 720,-43 723.542,-41.3162 727.223,-39.6438 730.953,-38.0067"/>
<polygon fill="midnightblue" stroke="midnightblue" points="732.452,-41.1724 740.271,-34.0236 729.7,-34.7357 732.452,-41.1724"/>
</g>
<!-- Node18 -->
<g id="node40" class="node"><title>Node18</title>
<a xlink:href="classCSelectionCriterionType.html#a31f9a40404c9564b2c54658a679db628" target="_top" xlink:title="CSelectionCriterionType\l::listPossibleValues">
<polygon fill="white" stroke="black" points="720.5,-184 720.5,-218 849.5,-218 849.5,-184 720.5,-184"/>
<text text-anchor="start" x="728.5" y="-205" font-family="Verdana" font-size="10.00">CSelectionCriterionType</text>
<text text-anchor="middle" x="785" y="-192" font-family="Verdana" font-size="10.00">::listPossibleValues</text>
</a>
</g>
<!-- Node14&#45;&gt;Node18 -->
<g id="edge44" class="edge"><title>Node14&#45;&gt;Node18</title>
<path fill="none" stroke="midnightblue" d="M668.975,-120.086C674.266,-122.69 679.371,-125.649 684,-129 705.028,-144.224 699.233,-159.421 720,-175 721.817,-176.363 723.715,-177.666 725.672,-178.909"/>
<polygon fill="midnightblue" stroke="midnightblue" points="724.151,-182.071 734.57,-183.99 727.622,-175.992 724.151,-182.071"/>
</g>
<!-- Node19 -->
<g id="node42" class="node"><title>Node19</title>
<a xlink:href="classCSelectionCriterionType.html#acf1d7bbd1dc0b21897cdf7cf3d362bb3" target="_top" xlink:title="CSelectionCriterionType\l::getFormattedState">
<polygon fill="white" stroke="black" points="720.5,-132 720.5,-166 849.5,-166 849.5,-132 720.5,-132"/>
<text text-anchor="start" x="728.5" y="-153" font-family="Verdana" font-size="10.00">CSelectionCriterionType</text>
<text text-anchor="middle" x="785" y="-140" font-family="Verdana" font-size="10.00">::getFormattedState</text>
</a>
</g>
<!-- Node14&#45;&gt;Node19 -->
<g id="edge46" class="edge"><title>Node14&#45;&gt;Node19</title>
<path fill="none" stroke="midnightblue" d="M676.419,-120.129C687.638,-123.112 699.389,-126.236 710.845,-129.282"/>
<polygon fill="midnightblue" stroke="midnightblue" points="710.252,-132.746 720.816,-131.934 712.051,-125.981 710.252,-132.746"/>
</g>
<!-- Node20 -->
<g id="node44" class="node"><title>Node20</title>
<a xlink:href="classCSelectionCriterionType.html#ae526e3679a02dd85be47abe8a548f1ee" target="_top" xlink:title="CSelectionCriterionType\l::getLiteralValue">
<polygon fill="white" stroke="black" points="886.5,-132 886.5,-166 1015.5,-166 1015.5,-132 886.5,-132"/>
<text text-anchor="start" x="894.5" y="-153" font-family="Verdana" font-size="10.00">CSelectionCriterionType</text>
<text text-anchor="middle" x="951" y="-140" font-family="Verdana" font-size="10.00">::getLiteralValue</text>
</a>
</g>
<!-- Node19&#45;&gt;Node20 -->
<g id="edge48" class="edge"><title>Node19&#45;&gt;Node20</title>
<path fill="none" stroke="midnightblue" d="M849.655,-149C858.292,-149 867.208,-149 876.003,-149"/>
<polygon fill="midnightblue" stroke="midnightblue" points="876.248,-152.5 886.248,-149 876.248,-145.5 876.248,-152.5"/>
</g>
<!-- Node22&#45;&gt;Node4 -->
<g id="edge54" class="edge"><title>Node22&#45;&gt;Node4</title>
<path fill="none" stroke="midnightblue" d="M504.253,-210.66C518.341,-213.32 532.701,-216.03 546.152,-218.57"/>
<polygon fill="midnightblue" stroke="midnightblue" points="545.766,-222.058 556.242,-220.474 547.065,-215.18 545.766,-222.058"/>
</g>
<!-- Node22&#45;&gt;Node5 -->
<g id="edge56" class="edge"><title>Node22&#45;&gt;Node5</title>
<path fill="none" stroke="midnightblue" d="M490.099,-176.987C512.085,-171.94 535.781,-166.499 556.381,-161.77"/>
<polygon fill="midnightblue" stroke="midnightblue" points="557.261,-165.159 566.225,-159.51 555.695,-158.336 557.261,-165.159"/>
</g>
<!-- Node23 -->
<g id="node52" class="node"><title>Node23</title>
<a xlink:href="classCSubsystem.html#a4cb6e87e55f40b52408e42285e504be4" target="_top" xlink:title="CSubsystem::needResync">
<polygon fill="white" stroke="black" points="542,-180.5 542,-201.5 682,-201.5 682,-180.5 542,-180.5"/>
<text text-anchor="middle" x="612" y="-188.5" font-family="Verdana" font-size="10.00">CSubsystem::needResync</text>
</a>
</g>
<!-- Node22&#45;&gt;Node23 -->
<g id="edge58" class="edge"><title>Node22&#45;&gt;Node23</title>
<path fill="none" stroke="midnightblue" d="M504.253,-192.649C513.407,-192.509 522.676,-192.367 531.735,-192.229"/>
<polygon fill="midnightblue" stroke="midnightblue" points="531.913,-195.726 541.858,-192.074 531.806,-188.727 531.913,-195.726"/>
</g>
</g>
</svg>
