<?xml version="1.0" encoding="UTF-8" standalone="no"?>
<!DOCTYPE svg PUBLIC "-//W3C//DTD SVG 1.1//EN"
 "http://www.w3.org/Graphics/SVG/1.1/DTD/svg11.dtd">
<!-- Generated by graphviz version 2.26.3 (20100126.1600)
 -->
<!-- Title: CEnumParameterType::showProperties Pages: 1 -->
<svg width="476pt" height="162pt"
 viewBox="0.00 0.00 476.00 162.00" xmlns="http://www.w3.org/2000/svg" xmlns:xlink="http://www.w3.org/1999/xlink">
<g id="graph1" class="graph" transform="scale(1 1) rotate(0) translate(4 158)">
<title>CEnumParameterType::showProperties</title>
<polygon fill="white" stroke="white" points="-4,5 -4,-158 473,-158 473,5 -4,5"/>
<!-- Node1 -->
<g id="node1" class="node"><title>Node1</title>
<polygon fill="#bfbfbf" stroke="black" points="0,-66 0,-100 122,-100 122,-66 0,-66"/>
<text text-anchor="start" x="8" y="-87" font-family="Verdana" font-size="10.00">CEnumParameterType</text>
<text text-anchor="middle" x="61" y="-74" font-family="Verdana" font-size="10.00">::showProperties</text>
</g>
<!-- Node2 -->
<g id="node3" class="node"><title>Node2</title>
<a xlink:href="classCElement.html#a25f58d9d8b35e770806d669fb2a378e4" target="_top" xlink:title="CElement::getNbChildren">
<polygon fill="white" stroke="black" points="172.5,-132.5 172.5,-153.5 309.5,-153.5 309.5,-132.5 172.5,-132.5"/>
<text text-anchor="middle" x="241" y="-140.5" font-family="Verdana" font-size="10.00">CElement::getNbChildren</text>
</a>
</g>
<!-- Node1&#45;&gt;Node2 -->
<g id="edge2" class="edge"><title>Node1&#45;&gt;Node2</title>
<path fill="none" stroke="midnightblue" d="M98.7295,-100.152C116.477,-107.805 138.075,-116.534 158,-123 165.618,-125.472 173.717,-127.791 181.755,-129.913"/>
<polygon fill="midnightblue" stroke="midnightblue" points="180.939,-133.316 191.494,-132.399 182.67,-126.534 180.939,-133.316"/>
</g>
<!-- Node3 -->
<g id="node5" class="node"><title>Node3</title>
<a xlink:href="classCElement.html#a41bf126c3fdbb5bec0c2c3dcf35e9079" target="_top" xlink:title="CElement::getChild">
<polygon fill="white" stroke="black" points="187,-92.5 187,-113.5 295,-113.5 295,-92.5 187,-92.5"/>
<text text-anchor="middle" x="241" y="-100.5" font-family="Verdana" font-size="10.00">CElement::getChild</text>
</a>
</g>
<!-- Node1&#45;&gt;Node3 -->
<g id="edge4" class="edge"><title>Node1&#45;&gt;Node3</title>
<path fill="none" stroke="midnightblue" d="M122.191,-89.799C139.742,-91.7491 158.926,-93.8807 176.66,-95.8512"/>
<polygon fill="midnightblue" stroke="midnightblue" points="176.586,-99.3643 186.911,-96.9901 177.359,-92.4071 176.586,-99.3643"/>
</g>
<!-- Node4 -->
<g id="node7" class="node"><title>Node4</title>
<a xlink:href="classCElement.html#a49581fb6412e29e932962acd82d52d6a" target="_top" xlink:title="CElement::getName">
<polygon fill="white" stroke="black" points="184,-52.5 184,-73.5 298,-73.5 298,-52.5 184,-52.5"/>
<text text-anchor="middle" x="241" y="-60.5" font-family="Verdana" font-size="10.00">CElement::getName</text>
</a>
</g>
<!-- Node1&#45;&gt;Node4 -->
<g id="edge6" class="edge"><title>Node1&#45;&gt;Node4</title>
<path fill="none" stroke="midnightblue" d="M122.191,-76.201C138.734,-74.3629 156.728,-72.3636 173.591,-70.4899"/>
<polygon fill="midnightblue" stroke="midnightblue" points="174.369,-73.9251 183.921,-69.3421 173.596,-66.9679 174.369,-73.9251"/>
</g>
<!-- Node5 -->
<g id="node9" class="node"><title>Node5</title>
<a xlink:href="classCEnumValuePair.html#a8936c702786702895a231eac2137f518" target="_top" xlink:title="CEnumValuePair::getNumerical\lAsString">
<polygon fill="white" stroke="black" points="158.5,-0 158.5,-34 323.5,-34 323.5,-0 158.5,-0"/>
<text text-anchor="start" x="166.5" y="-21" font-family="Verdana" font-size="10.00">CEnumValuePair::getNumerical</text>
<text text-anchor="middle" x="241" y="-8" font-family="Verdana" font-size="10.00">AsString</text>
</a>
</g>
<!-- Node1&#45;&gt;Node5 -->
<g id="edge8" class="edge"><title>Node1&#45;&gt;Node5</title>
<path fill="none" stroke="midnightblue" d="M100.337,-65.8618C117.852,-58.4693 138.817,-49.9449 158,-43 163.236,-41.1046 168.685,-39.2157 174.178,-37.3709"/>
<polygon fill="midnightblue" stroke="midnightblue" points="175.676,-40.5624 184.076,-34.1058 173.483,-33.9148 175.676,-40.5624"/>
</g>
<!-- Node6 -->
<g id="node11" class="node"><title>Node6</title>
<a xlink:href="classCElement.html#aacdd6d54c10cd1494a820d78be779362" target="_top" xlink:title="CElement::toString">
<polygon fill="white" stroke="black" points="360.5,-6.5 360.5,-27.5 467.5,-27.5 467.5,-6.5 360.5,-6.5"/>
<text text-anchor="middle" x="414" y="-14.5" font-family="Verdana" font-size="10.00">CElement::toString</text>
</a>
</g>
<!-- Node5&#45;&gt;Node6 -->
<g id="edge10" class="edge"><title>Node5&#45;&gt;Node6</title>
<path fill="none" stroke="midnightblue" d="M323.7,-17C332.691,-17 341.737,-17 350.449,-17"/>
<polygon fill="midnightblue" stroke="midnightblue" points="350.498,-20.5001 360.498,-17 350.498,-13.5001 350.498,-20.5001"/>
</g>
</g>
</svg>
