<?xml version="1.0" encoding="UTF-8" standalone="no"?>
<!DOCTYPE svg PUBLIC "-//W3C//DTD SVG 1.1//EN"
 "http://www.w3.org/Graphics/SVG/1.1/DTD/svg11.dtd">
<!-- Generated by graphviz version 2.26.3 (20100126.1600)
 -->
<!-- Title: CParameterMgr::accessParameterValue Pages: 1 -->
<svg width="372pt" height="42pt"
 viewBox="0.00 0.00 372.00 42.00" xmlns="http://www.w3.org/2000/svg" xmlns:xlink="http://www.w3.org/1999/xlink">
<g id="graph1" class="graph" transform="scale(1 1) rotate(0) translate(4 38)">
<title>CParameterMgr::accessParameterValue</title>
<polygon fill="white" stroke="white" points="-4,5 -4,-38 369,-38 369,5 -4,5"/>
<!-- Node1 -->
<g id="node1" class="node"><title>Node1</title>
<polygon fill="#bfbfbf" stroke="black" points="0.5,-0 0.5,-34 181.5,-34 181.5,-0 0.5,-0"/>
<text text-anchor="start" x="8.5" y="-21" font-family="Verdana" font-size="10.00">CParameterMgr::accessParameter</text>
<text text-anchor="middle" x="91" y="-8" font-family="Verdana" font-size="10.00">Value</text>
</g>
<!-- Node2 -->
<g id="node3" class="node"><title>Node2</title>
<a xlink:href="classCParameterAccessContext.html#a07eda176f4ae601bd26a6d0c9e0cc6e2" target="_top" xlink:title="CParameterAccessContext\l::setAutoSync">
<polygon fill="white" stroke="black" points="218.5,-0 218.5,-34 363.5,-34 363.5,-0 218.5,-0"/>
<text text-anchor="start" x="226.5" y="-21" font-family="Verdana" font-size="10.00">CParameterAccessContext</text>
<text text-anchor="middle" x="291" y="-8" font-family="Verdana" font-size="10.00">::setAutoSync</text>
</a>
</g>
<!-- Node1&#45;&gt;Node2 -->
<g id="edge2" class="edge"><title>Node1&#45;&gt;Node2</title>
<path fill="none" stroke="midnightblue" d="M181.637,-17C190.477,-17 199.416,-17 208.173,-17"/>
<polygon fill="midnightblue" stroke="midnightblue" points="208.354,-20.5001 218.353,-17 208.353,-13.5001 208.354,-20.5001"/>
</g>
</g>
</svg>
