<?xml version="1.0" encoding="UTF-8" standalone="no"?>
<!DOCTYPE svg PUBLIC "-//W3C//DTD SVG 1.1//EN"
 "http://www.w3.org/Graphics/SVG/1.1/DTD/svg11.dtd">
<!-- Generated by graphviz version 2.26.3 (20100126.1600)
 -->
<!-- Title: CConfigurableDomain::getApplicationRule Pages: 1 -->
<svg width="632pt" height="110pt"
 viewBox="0.00 0.00 632.00 110.00" xmlns="http://www.w3.org/2000/svg" xmlns:xlink="http://www.w3.org/1999/xlink">
<g id="graph1" class="graph" transform="scale(1 1) rotate(0) translate(4 106)">
<title>CConfigurableDomain::getApplicationRule</title>
<polygon fill="white" stroke="white" points="-4,5 -4,-106 629,-106 629,5 -4,5"/>
<!-- Node1 -->
<g id="node1" class="node"><title>Node1</title>
<polygon fill="#bfbfbf" stroke="black" points="0.5,-34 0.5,-68 121.5,-68 121.5,-34 0.5,-34"/>
<text text-anchor="start" x="8.5" y="-55" font-family="Verdana" font-size="10.00">CConfigurableDomain</text>
<text text-anchor="middle" x="61" y="-42" font-family="Verdana" font-size="10.00">::getApplicationRule</text>
</g>
<!-- Node2 -->
<g id="node3" class="node"><title>Node2</title>
<a xlink:href="classCDomainConfiguration.html#a0f9e4ae6ceadd57ec7d5e7a570939d38" target="_top" xlink:title="CDomainConfiguration\l::getApplicationRule">
<polygon fill="white" stroke="black" points="158.5,-34 158.5,-68 283.5,-68 283.5,-34 158.5,-34"/>
<text text-anchor="start" x="166.5" y="-55" font-family="Verdana" font-size="10.00">CDomainConfiguration</text>
<text text-anchor="middle" x="221" y="-42" font-family="Verdana" font-size="10.00">::getApplicationRule</text>
</a>
</g>
<!-- Node1&#45;&gt;Node2 -->
<g id="edge2" class="edge"><title>Node1&#45;&gt;Node2</title>
<path fill="none" stroke="midnightblue" d="M121.946,-51C130.515,-51 139.393,-51 148.157,-51"/>
<polygon fill="midnightblue" stroke="midnightblue" points="148.366,-54.5001 158.365,-51 148.365,-47.5001 148.366,-54.5001"/>
</g>
<!-- Node3 -->
<g id="node5" class="node"><title>Node3</title>
<a xlink:href="classCCompoundRule.html#a4852b10618c0cf75059018ae60fb6eab" target="_top" xlink:title="CCompoundRule::dump">
<polygon fill="white" stroke="black" points="320.5,-40.5 320.5,-61.5 449.5,-61.5 449.5,-40.5 320.5,-40.5"/>
<text text-anchor="middle" x="385" y="-48.5" font-family="Verdana" font-size="10.00">CCompoundRule::dump</text>
</a>
</g>
<!-- Node2&#45;&gt;Node3 -->
<g id="edge4" class="edge"><title>Node2&#45;&gt;Node3</title>
<path fill="none" stroke="midnightblue" d="M283.938,-51C292.508,-51 301.372,-51 310.127,-51"/>
<polygon fill="midnightblue" stroke="midnightblue" points="310.33,-54.5001 320.33,-51 310.33,-47.5001 310.33,-54.5001"/>
</g>
<!-- Node4 -->
<g id="node7" class="node"><title>Node4</title>
<a xlink:href="classCElement.html#a25f58d9d8b35e770806d669fb2a378e4" target="_top" xlink:title="CElement::getNbChildren">
<polygon fill="white" stroke="black" points="486.5,-80.5 486.5,-101.5 623.5,-101.5 623.5,-80.5 486.5,-80.5"/>
<text text-anchor="middle" x="555" y="-88.5" font-family="Verdana" font-size="10.00">CElement::getNbChildren</text>
</a>
</g>
<!-- Node3&#45;&gt;Node4 -->
<g id="edge6" class="edge"><title>Node3&#45;&gt;Node4</title>
<path fill="none" stroke="midnightblue" d="M429.665,-61.5095C451.346,-66.6108 477.584,-72.7845 500.439,-78.1622"/>
<polygon fill="midnightblue" stroke="midnightblue" points="499.802,-81.6078 510.338,-80.4913 501.405,-74.7939 499.802,-81.6078"/>
</g>
<!-- Node5 -->
<g id="node9" class="node"><title>Node5</title>
<a xlink:href="classCElement.html#a41bf126c3fdbb5bec0c2c3dcf35e9079" target="_top" xlink:title="CElement::getChild">
<polygon fill="white" stroke="black" points="501,-40.5 501,-61.5 609,-61.5 609,-40.5 501,-40.5"/>
<text text-anchor="middle" x="555" y="-48.5" font-family="Verdana" font-size="10.00">CElement::getChild</text>
</a>
</g>
<!-- Node3&#45;&gt;Node5 -->
<g id="edge8" class="edge"><title>Node3&#45;&gt;Node5</title>
<path fill="none" stroke="midnightblue" d="M449.755,-51C463.214,-51 477.392,-51 490.83,-51"/>
<polygon fill="midnightblue" stroke="midnightblue" points="490.937,-54.5001 500.937,-51 490.937,-47.5001 490.937,-54.5001"/>
</g>
<!-- Node6 -->
<g id="node11" class="node"><title>Node6</title>
<a xlink:href="classCRule.html#aa4a929f43c17c8b7b1992062f019f530" target="_top" xlink:title="CRule::dump">
<polygon fill="white" stroke="black" points="516.5,-0.5 516.5,-21.5 593.5,-21.5 593.5,-0.5 516.5,-0.5"/>
<text text-anchor="middle" x="555" y="-8.5" font-family="Verdana" font-size="10.00">CRule::dump</text>
</a>
</g>
<!-- Node3&#45;&gt;Node6 -->
<g id="edge10" class="edge"><title>Node3&#45;&gt;Node6</title>
<path fill="none" stroke="midnightblue" d="M429.665,-40.4905C453.251,-34.941 482.23,-28.1223 506.38,-22.44"/>
<polygon fill="midnightblue" stroke="midnightblue" points="507.472,-25.7787 516.404,-20.0813 505.869,-18.9648 507.472,-25.7787"/>
</g>
</g>
</svg>
