<?xml version="1.0" encoding="UTF-8" standalone="no"?>
<!DOCTYPE svg PUBLIC "-//W3C//DTD SVG 1.1//EN"
 "http://www.w3.org/Graphics/SVG/1.1/DTD/svg11.dtd">
<!-- Generated by graphviz version 2.26.3 (20100126.1600)
 -->
<!-- Title: CConfigurableDomain::addConfigurableElement Pages: 1 -->
<svg width="584pt" height="42pt"
 viewBox="0.00 0.00 584.00 42.00" xmlns="http://www.w3.org/2000/svg" xmlns:xlink="http://www.w3.org/1999/xlink">
<g id="graph1" class="graph" transform="scale(1 1) rotate(0) translate(4 38)">
<title>CConfigurableDomain::addConfigurableElement</title>
<polygon fill="white" stroke="white" points="-4,5 -4,-38 581,-38 581,5 -4,5"/>
<!-- Node1 -->
<g id="node1" class="node"><title>Node1</title>
<polygon fill="#bfbfbf" stroke="black" points="0,-0 0,-34 140,-34 140,-0 0,-0"/>
<text text-anchor="start" x="8" y="-21" font-family="Verdana" font-size="10.00">CConfigurableDomain</text>
<text text-anchor="middle" x="70" y="-8" font-family="Verdana" font-size="10.00">::addConfigurableElement</text>
</g>
<!-- Node2 -->
<g id="node3" class="node"><title>Node2</title>
<a xlink:href="classCConfigurableDomains.html#a5ef1a732092a341b147eca23da2f9476" target="_top" xlink:title="CConfigurableDomains\l::addConfigurableElementToDomain">
<polygon fill="white" stroke="black" points="176,-0 176,-34 364,-34 364,-0 176,-0"/>
<text text-anchor="start" x="184" y="-21" font-family="Verdana" font-size="10.00">CConfigurableDomains</text>
<text text-anchor="middle" x="270" y="-8" font-family="Verdana" font-size="10.00">::addConfigurableElementToDomain</text>
</a>
</g>
<!-- Node1&#45;&gt;Node2 -->
<g id="edge2" class="edge"><title>Node1&#45;&gt;Node2</title>
<path fill="none" stroke="midnightblue" d="M150.315,-17C158.673,-17 167.222,-17 175.716,-17"/>
<polygon fill="midnightblue" stroke="midnightblue" points="150.231,-13.5001 140.231,-17 150.231,-20.5001 150.231,-13.5001"/>
</g>
<!-- Node3 -->
<g id="node5" class="node"><title>Node3</title>
<a xlink:href="classCParameterMgr.html#ae9941471fb32f02b3620cf46cd13ebbb" target="_top" xlink:title="CParameterMgr::addConfigurable\lElementToDomain">
<polygon fill="white" stroke="black" points="400,-0 400,-34 576,-34 576,-0 400,-0"/>
<text text-anchor="start" x="408" y="-21" font-family="Verdana" font-size="10.00">CParameterMgr::addConfigurable</text>
<text text-anchor="middle" x="488" y="-8" font-family="Verdana" font-size="10.00">ElementToDomain</text>
</a>
</g>
<!-- Node2&#45;&gt;Node3 -->
<g id="edge4" class="edge"><title>Node2&#45;&gt;Node3</title>
<path fill="none" stroke="midnightblue" d="M374.093,-17C382.689,-17 391.325,-17 399.788,-17"/>
<polygon fill="midnightblue" stroke="midnightblue" points="374.033,-13.5001 364.033,-17 374.033,-20.5001 374.033,-13.5001"/>
</g>
</g>
</svg>
