<?xml version="1.0" encoding="UTF-8" standalone="no"?>
<!DOCTYPE svg PUBLIC "-//W3C//DTD SVG 1.1//EN"
 "http://www.w3.org/Graphics/SVG/1.1/DTD/svg11.dtd">
<!-- Generated by graphviz version 2.26.3 (20100126.1600)
 -->
<!-- Title: CErrorContext::appendToError Pages: 1 -->
<svg width="814pt" height="212pt"
 viewBox="0.00 0.00 814.00 212.00" xmlns="http://www.w3.org/2000/svg" xmlns:xlink="http://www.w3.org/1999/xlink">
<g id="graph1" class="graph" transform="scale(1 1) rotate(0) translate(4 208)">
<title>CErrorContext::appendToError</title>
<polygon fill="white" stroke="white" points="-4,5 -4,-208 811,-208 811,5 -4,5"/>
<!-- Node1 -->
<g id="node1" class="node"><title>Node1</title>
<polygon fill="#bfbfbf" stroke="black" points="0.5,-58.5 0.5,-79.5 159.5,-79.5 159.5,-58.5 0.5,-58.5"/>
<text text-anchor="middle" x="80" y="-66.5" font-family="Verdana" font-size="10.00">CErrorContext::appendToError</text>
</g>
<!-- Node2 -->
<g id="node3" class="node"><title>Node2</title>
<a xlink:href="classCBaseParameter.html#a911cbd2df0c950a79863fdd689731f88" target="_top" xlink:title="Append the parameter path to the error. ">
<polygon fill="white" stroke="black" points="196,-78 196,-112 386,-112 386,-78 196,-78"/>
<text text-anchor="start" x="204" y="-99" font-family="Verdana" font-size="10.00">CBaseParameter::appendParameter</text>
<text text-anchor="middle" x="291" y="-86" font-family="Verdana" font-size="10.00">PathToError</text>
</a>
</g>
<!-- Node1&#45;&gt;Node2 -->
<g id="edge2" class="edge"><title>Node1&#45;&gt;Node2</title>
<path fill="none" stroke="midnightblue" d="M169.809,-80.0666C178.429,-81.1287 187.192,-82.2085 195.861,-83.2767"/>
<polygon fill="midnightblue" stroke="midnightblue" points="170.123,-76.5788 159.77,-78.8295 169.267,-83.5263 170.123,-76.5788"/>
</g>
<!-- Node9 -->
<g id="node18" class="node"><title>Node9</title>
<a xlink:href="classCBooleanParameterType.html#a3984c73c19bf9ba8511152983b60f834" target="_top" xlink:title="Conversion. ">
<polygon fill="white" stroke="black" points="224,-26 224,-60 358,-60 358,-26 224,-26"/>
<text text-anchor="start" x="232" y="-47" font-family="Verdana" font-size="10.00">CBooleanParameterType</text>
<text text-anchor="middle" x="291" y="-34" font-family="Verdana" font-size="10.00">::toBlackboard</text>
</a>
</g>
<!-- Node1&#45;&gt;Node9 -->
<g id="edge18" class="edge"><title>Node1&#45;&gt;Node9</title>
<path fill="none" stroke="midnightblue" d="M169.765,-57.9389C187.898,-55.7045 206.666,-53.3919 223.86,-51.2732"/>
<polygon fill="midnightblue" stroke="midnightblue" points="169.267,-54.4737 159.77,-59.1705 170.123,-61.4212 169.267,-54.4737"/>
</g>
<!-- Node3 -->
<g id="node5" class="node"><title>Node3</title>
<a xlink:href="classCArrayParameter.html#a07b3af958a03b2295be159f69b22d42d" target="_top" xlink:title="CArrayParameter::accessValue">
<polygon fill="white" stroke="black" points="426,-182.5 426,-203.5 590,-203.5 590,-182.5 426,-182.5"/>
<text text-anchor="middle" x="508" y="-190.5" font-family="Verdana" font-size="10.00">CArrayParameter::accessValue</text>
</a>
</g>
<!-- Node2&#45;&gt;Node3 -->
<g id="edge4" class="edge"><title>Node2&#45;&gt;Node3</title>
<path fill="none" stroke="midnightblue" d="M323.019,-117.901C348.683,-135.287 386.198,-158.585 422,-173 431.243,-176.721 441.336,-179.842 451.253,-182.428"/>
<polygon fill="midnightblue" stroke="midnightblue" points="324.683,-114.798 314.459,-112.023 320.721,-120.569 324.683,-114.798"/>
</g>
<!-- Node4 -->
<g id="node7" class="node"><title>Node4</title>
<a xlink:href="classCBaseParameter.html#a97e096908df72fa729a62c3f5c362ddd" target="_top" xlink:title="CBaseParameter::serialize\lXmlSettings">
<polygon fill="white" stroke="black" points="436.5,-130 436.5,-164 579.5,-164 579.5,-130 436.5,-130"/>
<text text-anchor="start" x="444.5" y="-151" font-family="Verdana" font-size="10.00">CBaseParameter::serialize</text>
<text text-anchor="middle" x="508" y="-138" font-family="Verdana" font-size="10.00">XmlSettings</text>
</a>
</g>
<!-- Node2&#45;&gt;Node4 -->
<g id="edge6" class="edge"><title>Node2&#45;&gt;Node4</title>
<path fill="none" stroke="midnightblue" d="M372.031,-114.418C393.299,-119.514 416.075,-124.972 436.786,-129.935"/>
<polygon fill="midnightblue" stroke="midnightblue" points="372.594,-110.954 362.054,-112.027 370.963,-117.761 372.594,-110.954"/>
</g>
<!-- Node5 -->
<g id="node9" class="node"><title>Node5</title>
<a xlink:href="classCBaseParameter.html#a2b425561e193a3d54e7225d896a3d39b" target="_top" xlink:title="CBaseParameter::accessAs\lString">
<polygon fill="white" stroke="black" points="433.5,-78 433.5,-112 582.5,-112 582.5,-78 433.5,-78"/>
<text text-anchor="start" x="441.5" y="-99" font-family="Verdana" font-size="10.00">CBaseParameter::accessAs</text>
<text text-anchor="middle" x="508" y="-86" font-family="Verdana" font-size="10.00">String</text>
</a>
</g>
<!-- Node2&#45;&gt;Node5 -->
<g id="edge8" class="edge"><title>Node2&#45;&gt;Node5</title>
<path fill="none" stroke="midnightblue" d="M396.234,-95C408.804,-95 421.432,-95 433.443,-95"/>
<polygon fill="midnightblue" stroke="midnightblue" points="396.179,-91.5001 386.179,-95 396.179,-98.5001 396.179,-91.5001"/>
</g>
<!-- Node7 -->
<g id="node13" class="node"><title>Node7</title>
<a xlink:href="classCBitParameter.html#a2e0ed93baec3479a9b92314818433a31" target="_top" xlink:title="Value access. ">
<polygon fill="white" stroke="black" points="630,-20.5 630,-41.5 806,-41.5 806,-20.5 630,-20.5"/>
<text text-anchor="middle" x="718" y="-28.5" font-family="Verdana" font-size="10.00">CBitParameter::accessAsBoolean</text>
</a>
</g>
<!-- Node2&#45;&gt;Node7 -->
<g id="edge12" class="edge"><title>Node2&#45;&gt;Node7</title>
<path fill="none" stroke="midnightblue" d="M382.345,-76.0424C395.622,-73.5281 409.144,-71.0985 422,-69 491.542,-57.6486 570.735,-47.6335 629.698,-40.7385"/>
<polygon fill="midnightblue" stroke="midnightblue" points="381.416,-72.6566 372.254,-77.9776 382.735,-79.5313 381.416,-72.6566"/>
</g>
<!-- Node8 -->
<g id="node15" class="node"><title>Node8</title>
<a xlink:href="classCBitParameter.html#a6f4d06e327fb0b816c08e383177a82fc" target="_top" xlink:title="CBitParameter::accessAsInteger">
<polygon fill="white" stroke="black" points="422.5,-0.5 422.5,-21.5 593.5,-21.5 593.5,-0.5 422.5,-0.5"/>
<text text-anchor="middle" x="508" y="-8.5" font-family="Verdana" font-size="10.00">CBitParameter::accessAsInteger</text>
</a>
</g>
<!-- Node2&#45;&gt;Node8 -->
<g id="edge14" class="edge"><title>Node2&#45;&gt;Node8</title>
<path fill="none" stroke="midnightblue" d="M375.866,-74.054C379.346,-72.4828 382.74,-70.8005 386,-69 405.001,-58.5076 403.083,-46.6418 422,-36 432.841,-29.9013 445.305,-25.1729 457.319,-21.5539"/>
<polygon fill="midnightblue" stroke="midnightblue" points="374.372,-70.885 366.484,-77.9585 377.061,-77.3477 374.372,-70.885"/>
</g>
<!-- Node6 -->
<g id="node11" class="node"><title>Node6</title>
<a xlink:href="classCBaseParameter.html#a4a9b3e3a2d1ea65a8dc7048559db8dc2" target="_top" xlink:title="CBaseParameter::accessValue">
<polygon fill="white" stroke="black" points="636.5,-84.5 636.5,-105.5 799.5,-105.5 799.5,-84.5 636.5,-84.5"/>
<text text-anchor="middle" x="718" y="-92.5" font-family="Verdana" font-size="10.00">CBaseParameter::accessValue</text>
</a>
</g>
<!-- Node5&#45;&gt;Node6 -->
<g id="edge10" class="edge"><title>Node5&#45;&gt;Node6</title>
<path fill="none" stroke="midnightblue" d="M592.977,-95C607.335,-95 622.212,-95 636.48,-95"/>
<polygon fill="midnightblue" stroke="midnightblue" points="592.629,-91.5001 582.629,-95 592.629,-98.5001 592.629,-91.5001"/>
</g>
<!-- Node8&#45;&gt;Node7 -->
<g id="edge16" class="edge"><title>Node8&#45;&gt;Node7</title>
<path fill="none" stroke="midnightblue" d="M603.833,-20.1269C612.494,-20.9518 621.239,-21.7846 629.83,-22.6028"/>
<polygon fill="midnightblue" stroke="midnightblue" points="604.005,-16.6276 593.718,-19.1636 603.341,-23.596 604.005,-16.6276"/>
</g>
</g>
</svg>
