<?xml version="1.0" encoding="UTF-8" standalone="no"?>
<!DOCTYPE svg PUBLIC "-//W3C//DTD SVG 1.1//EN"
 "http://www.w3.org/Graphics/SVG/1.1/DTD/svg11.dtd">
<!-- Generated by graphviz version 2.26.3 (20100126.1600)
 -->
<!-- Title: CSelectionCriterionRule::parse Pages: 1 -->
<svg width="470pt" height="278pt"
 viewBox="0.00 0.00 470.00 278.00" xmlns="http://www.w3.org/2000/svg" xmlns:xlink="http://www.w3.org/1999/xlink">
<g id="graph1" class="graph" transform="scale(1 1) rotate(0) translate(4 274)">
<title>CSelectionCriterionRule::parse</title>
<polygon fill="white" stroke="white" points="-4,5 -4,-274 467,-274 467,5 -4,5"/>
<!-- Node1 -->
<g id="node1" class="node"><title>Node1</title>
<polygon fill="#bfbfbf" stroke="black" points="0,-118 0,-152 128,-152 128,-118 0,-118"/>
<text text-anchor="start" x="8" y="-139" font-family="Verdana" font-size="10.00">CSelectionCriterionRule</text>
<text text-anchor="middle" x="64" y="-126" font-family="Verdana" font-size="10.00">::parse</text>
</g>
<!-- Node2 -->
<g id="node3" class="node"><title>Node2</title>
<a xlink:href="classCRuleParser.html#af179ac22a54025386da02a5bdb33b253" target="_top" xlink:title="CRuleParser::getSelection\lCriteriaDefinition">
<polygon fill="white" stroke="black" points="168.5,-236 168.5,-270 307.5,-270 307.5,-236 168.5,-236"/>
<text text-anchor="start" x="176.5" y="-257" font-family="Verdana" font-size="10.00">CRuleParser::getSelection</text>
<text text-anchor="middle" x="238" y="-244" font-family="Verdana" font-size="10.00">CriteriaDefinition</text>
</a>
</g>
<!-- Node1&#45;&gt;Node2 -->
<g id="edge2" class="edge"><title>Node1&#45;&gt;Node2</title>
<path fill="none" stroke="midnightblue" d="M78.6338,-152.182C96.8025,-172.558 129.619,-206.353 164,-227 166.658,-228.596 169.428,-230.114 172.269,-231.555"/>
<polygon fill="midnightblue" stroke="midnightblue" points="170.998,-234.824 181.538,-235.896 173.967,-228.485 170.998,-234.824"/>
</g>
<!-- Node3 -->
<g id="node5" class="node"><title>Node3</title>
<a xlink:href="classCSelectionCriteriaDefinition.html#ade9c9f7fe7806988d3d922bf615e5994" target="_top" xlink:title="CSelectionCriteriaDefinition\l::getSelectionCriterion">
<polygon fill="white" stroke="black" points="164.5,-184 164.5,-218 311.5,-218 311.5,-184 164.5,-184"/>
<text text-anchor="start" x="172.5" y="-205" font-family="Verdana" font-size="10.00">CSelectionCriteriaDefinition</text>
<text text-anchor="middle" x="238" y="-192" font-family="Verdana" font-size="10.00">::getSelectionCriterion</text>
</a>
</g>
<!-- Node1&#45;&gt;Node3 -->
<g id="edge4" class="edge"><title>Node1&#45;&gt;Node3</title>
<path fill="none" stroke="midnightblue" d="M105.688,-152.136C123.573,-159.368 144.744,-167.77 164,-175 168.816,-176.808 173.823,-178.649 178.859,-180.474"/>
<polygon fill="midnightblue" stroke="midnightblue" points="177.941,-183.863 188.536,-183.949 180.307,-177.275 177.941,-183.863"/>
</g>
<!-- Node5 -->
<g id="node9" class="node"><title>Node5</title>
<a xlink:href="classCRuleParser.html#ae574ae0109f76cc624590bd4899e0a91" target="_top" xlink:title="CRuleParser::getType">
<polygon fill="white" stroke="black" points="180,-144.5 180,-165.5 296,-165.5 296,-144.5 180,-144.5"/>
<text text-anchor="middle" x="238" y="-152.5" font-family="Verdana" font-size="10.00">CRuleParser::getType</text>
</a>
</g>
<!-- Node1&#45;&gt;Node5 -->
<g id="edge8" class="edge"><title>Node1&#45;&gt;Node5</title>
<path fill="none" stroke="midnightblue" d="M128.297,-142.39C141.72,-143.933 155.918,-145.565 169.488,-147.125"/>
<polygon fill="midnightblue" stroke="midnightblue" points="169.384,-150.636 179.718,-148.301 170.183,-143.682 169.384,-150.636"/>
</g>
<!-- Node6 -->
<g id="node11" class="node"><title>Node6</title>
<a xlink:href="classCRuleParser.html#a7f6198bd3656599e15aee6860c1bf4d7" target="_top" xlink:title="CRuleParser::next">
<polygon fill="white" stroke="black" points="188,-104.5 188,-125.5 288,-125.5 288,-104.5 188,-104.5"/>
<text text-anchor="middle" x="238" y="-112.5" font-family="Verdana" font-size="10.00">CRuleParser::next</text>
</a>
</g>
<!-- Node1&#45;&gt;Node6 -->
<g id="edge10" class="edge"><title>Node1&#45;&gt;Node6</title>
<path fill="none" stroke="midnightblue" d="M128.297,-127.61C144.418,-125.757 161.657,-123.775 177.582,-121.945"/>
<polygon fill="midnightblue" stroke="midnightblue" points="178.297,-125.386 187.832,-120.766 177.497,-118.431 178.297,-125.386"/>
</g>
<!-- Node7 -->
<g id="node13" class="node"><title>Node7</title>
<a xlink:href="classCSelectionCriterion.html#a3551b612a002f7cc311f21be1685f794" target="_top" xlink:title="CSelectionCriterion\l::getCriterionType">
<polygon fill="white" stroke="black" points="184,-52 184,-86 292,-86 292,-52 184,-52"/>
<text text-anchor="start" x="192" y="-73" font-family="Verdana" font-size="10.00">CSelectionCriterion</text>
<text text-anchor="middle" x="238" y="-60" font-family="Verdana" font-size="10.00">::getCriterionType</text>
</a>
</g>
<!-- Node1&#45;&gt;Node7 -->
<g id="edge12" class="edge"><title>Node1&#45;&gt;Node7</title>
<path fill="none" stroke="midnightblue" d="M105.688,-117.864C123.573,-110.632 144.744,-102.23 164,-95 168.816,-93.1915 173.823,-91.3506 178.859,-89.5261"/>
<polygon fill="midnightblue" stroke="midnightblue" points="180.307,-92.7247 188.536,-86.0507 177.941,-86.1366 180.307,-92.7247"/>
</g>
<!-- Node8 -->
<g id="node15" class="node"><title>Node8</title>
<a xlink:href="classCSelectionCriterion.html#a1570d99b016390cca5b5d6f3c1d405c1" target="_top" xlink:title="CSelectionCriterion\l::getCriterionName">
<polygon fill="white" stroke="black" points="184,-0 184,-34 292,-34 292,-0 184,-0"/>
<text text-anchor="start" x="192" y="-21" font-family="Verdana" font-size="10.00">CSelectionCriterion</text>
<text text-anchor="middle" x="238" y="-8" font-family="Verdana" font-size="10.00">::getCriterionName</text>
</a>
</g>
<!-- Node1&#45;&gt;Node8 -->
<g id="edge14" class="edge"><title>Node1&#45;&gt;Node8</title>
<path fill="none" stroke="midnightblue" d="M78.6338,-117.818C96.8025,-97.4423 129.619,-63.6471 164,-43 167.384,-40.968 170.95,-39.0629 174.613,-37.2819"/>
<polygon fill="midnightblue" stroke="midnightblue" points="176.194,-40.4085 183.873,-33.1091 173.318,-34.0265 176.194,-40.4085"/>
</g>
<!-- Node4 -->
<g id="node7" class="node"><title>Node4</title>
<a xlink:href="classCElement.html#a8595814a3159f32f874269907e70b260" target="_top" xlink:title="CElement::findChild">
<polygon fill="white" stroke="black" points="350,-190.5 350,-211.5 460,-211.5 460,-190.5 350,-190.5"/>
<text text-anchor="middle" x="405" y="-198.5" font-family="Verdana" font-size="10.00">CElement::findChild</text>
</a>
</g>
<!-- Node3&#45;&gt;Node4 -->
<g id="edge6" class="edge"><title>Node3&#45;&gt;Node4</title>
<path fill="none" stroke="midnightblue" d="M311.735,-201C321.004,-201 330.435,-201 339.564,-201"/>
<polygon fill="midnightblue" stroke="midnightblue" points="339.718,-204.5 349.718,-201 339.718,-197.5 339.718,-204.5"/>
</g>
<!-- Node9 -->
<g id="node17" class="node"><title>Node9</title>
<a xlink:href="classCElement.html#a49581fb6412e29e932962acd82d52d6a" target="_top" xlink:title="CElement::getName">
<polygon fill="white" stroke="black" points="348,-6.5 348,-27.5 462,-27.5 462,-6.5 348,-6.5"/>
<text text-anchor="middle" x="405" y="-14.5" font-family="Verdana" font-size="10.00">CElement::getName</text>
</a>
</g>
<!-- Node8&#45;&gt;Node9 -->
<g id="edge16" class="edge"><title>Node8&#45;&gt;Node9</title>
<path fill="none" stroke="midnightblue" d="M292.22,-17C306.691,-17 322.505,-17 337.59,-17"/>
<polygon fill="midnightblue" stroke="midnightblue" points="337.892,-20.5001 347.892,-17 337.892,-13.5001 337.892,-20.5001"/>
</g>
</g>
</svg>
