<?xml version="1.0" encoding="UTF-8" standalone="no"?>
<!DOCTYPE svg PUBLIC "-//W3C//DTD SVG 1.1//EN"
 "http://www.w3.org/Graphics/SVG/1.1/DTD/svg11.dtd">
<!-- Generated by graphviz version 2.26.3 (20100126.1600)
 -->
<!-- Title: CSocket Pages: 1 -->
<svg width="234pt" height="88pt"
 viewBox="0.00 0.00 234.00 88.00" xmlns="http://www.w3.org/2000/svg" xmlns:xlink="http://www.w3.org/1999/xlink">
<g id="graph1" class="graph" transform="scale(1 1) rotate(0) translate(4 84)">
<title>CSocket</title>
<polygon fill="white" stroke="white" points="-4,5 -4,-84 231,-84 231,5 -4,5"/>
<!-- Node1 -->
<g id="node1" class="node"><title>Node1</title>
<polygon fill="#bfbfbf" stroke="black" points="88,-58.5 88,-79.5 144,-79.5 144,-58.5 88,-58.5"/>
<text text-anchor="middle" x="116" y="-66.5" font-family="Verdana" font-size="10.00">CSocket</text>
</g>
<!-- Node2 -->
<g id="node3" class="node"><title>Node2</title>
<a xlink:href="classCConnectionSocket.html" target="_top" xlink:title="CConnectionSocket">
<polygon fill="white" stroke="black" points="0,-0.5 0,-21.5 110,-21.5 110,-0.5 0,-0.5"/>
<text text-anchor="middle" x="55" y="-8.5" font-family="Verdana" font-size="10.00">CConnectionSocket</text>
</a>
</g>
<!-- Node1&#45;&gt;Node2 -->
<g id="edge2" class="edge"><title>Node1&#45;&gt;Node2</title>
<path fill="none" stroke="midnightblue" d="M97.4949,-51.405C87.2546,-41.6683 74.8685,-29.8914 66.1174,-21.5707"/>
<polygon fill="midnightblue" stroke="midnightblue" points="95.1529,-54.0077 104.812,-58.3619 99.9763,-48.9348 95.1529,-54.0077"/>
</g>
<!-- Node3 -->
<g id="node5" class="node"><title>Node3</title>
<a xlink:href="classCListeningSocket.html" target="_top" xlink:title="CListeningSocket">
<polygon fill="white" stroke="black" points="127.5,-0.5 127.5,-21.5 226.5,-21.5 226.5,-0.5 127.5,-0.5"/>
<text text-anchor="middle" x="177" y="-8.5" font-family="Verdana" font-size="10.00">CListeningSocket</text>
</a>
</g>
<!-- Node1&#45;&gt;Node3 -->
<g id="edge4" class="edge"><title>Node1&#45;&gt;Node3</title>
<path fill="none" stroke="midnightblue" d="M134.505,-51.405C144.745,-41.6683 157.131,-29.8914 165.883,-21.5707"/>
<polygon fill="midnightblue" stroke="midnightblue" points="132.024,-48.9348 127.188,-58.3619 136.847,-54.0077 132.024,-48.9348"/>
</g>
</g>
</svg>
