<?xml version="1.0" encoding="UTF-8" standalone="no"?>
<!DOCTYPE svg PUBLIC "-//W3C//DTD SVG 1.1//EN"
 "http://www.w3.org/Graphics/SVG/1.1/DTD/svg11.dtd">
<!-- Generated by graphviz version 2.26.3 (20100126.1600)
 -->
<!-- Title: CRequestMessageGenerator::next Pages: 1 -->
<svg width="374pt" height="70pt"
 viewBox="0.00 0.00 374.00 70.00" xmlns="http://www.w3.org/2000/svg" xmlns:xlink="http://www.w3.org/1999/xlink">
<g id="graph1" class="graph" transform="scale(1 1) rotate(0) translate(4 66)">
<title>CRequestMessageGenerator::next</title>
<polygon fill="white" stroke="white" points="-4,5 -4,-66 371,-66 371,5 -4,5"/>
<!-- Node1 -->
<g id="node1" class="node"><title>Node1</title>
<polygon fill="#bfbfbf" stroke="black" points="0.5,-14 0.5,-48 153.5,-48 153.5,-14 0.5,-14"/>
<text text-anchor="start" x="8.5" y="-35" font-family="Verdana" font-size="10.00">CRequestMessageGenerator</text>
<text text-anchor="middle" x="77" y="-22" font-family="Verdana" font-size="10.00">::next</text>
</g>
<!-- Node2 -->
<g id="node3" class="node"><title>Node2</title>
<a xlink:href="classCRequestMessage.html#a399c6f1c96ed942b4632841e20a28555" target="_top" xlink:title="CRequestMessage::setCommand">
<polygon fill="white" stroke="black" points="190,-40.5 190,-61.5 366,-61.5 366,-40.5 190,-40.5"/>
<text text-anchor="middle" x="278" y="-48.5" font-family="Verdana" font-size="10.00">CRequestMessage::setCommand</text>
</a>
</g>
<!-- Node1&#45;&gt;Node2 -->
<g id="edge2" class="edge"><title>Node1&#45;&gt;Node2</title>
<path fill="none" stroke="midnightblue" d="M153.563,-38.6182C162.188,-39.4764 171.062,-40.3594 179.912,-41.24"/>
<polygon fill="midnightblue" stroke="midnightblue" points="179.581,-44.7243 189.878,-42.2317 180.274,-37.7587 179.581,-44.7243"/>
</g>
<!-- Node3 -->
<g id="node5" class="node"><title>Node3</title>
<a xlink:href="classCRequestMessage.html#acabef458b313a1e9a9c1c31239c0cbd3" target="_top" xlink:title="CRequestMessage::addArgument">
<polygon fill="white" stroke="black" points="190,-0.5 190,-21.5 366,-21.5 366,-0.5 190,-0.5"/>
<text text-anchor="middle" x="278" y="-8.5" font-family="Verdana" font-size="10.00">CRequestMessage::addArgument</text>
</a>
</g>
<!-- Node1&#45;&gt;Node3 -->
<g id="edge4" class="edge"><title>Node1&#45;&gt;Node3</title>
<path fill="none" stroke="midnightblue" d="M153.563,-23.3818C162.188,-22.5236 171.062,-21.6406 179.912,-20.76"/>
<polygon fill="midnightblue" stroke="midnightblue" points="180.274,-24.2413 189.878,-19.7683 179.581,-17.2757 180.274,-24.2413"/>
</g>
</g>
</svg>
