<?xml version="1.0" encoding="UTF-8" standalone="no"?>
<!DOCTYPE svg PUBLIC "-//W3C//DTD SVG 1.1//EN"
 "http://www.w3.org/Graphics/SVG/1.1/DTD/svg11.dtd">
<!-- Generated by graphviz version 2.26.3 (20100126.1600)
 -->
<!-- Title: CConfigurableDomains::setApplicationRule Pages: 1 -->
<svg width="1142pt" height="323pt"
 viewBox="0.00 0.00 1142.00 323.04" xmlns="http://www.w3.org/2000/svg" xmlns:xlink="http://www.w3.org/1999/xlink">
<g id="graph1" class="graph" transform="scale(1 1) rotate(0) translate(4 319.041)">
<title>CConfigurableDomains::setApplicationRule</title>
<polygon fill="white" stroke="white" points="-4,5 -4,-319.041 1139,-319.041 1139,5 -4,5"/>
<!-- Node1 -->
<g id="node1" class="node"><title>Node1</title>
<polygon fill="#bfbfbf" stroke="black" points="0,-251 0,-285 126,-285 126,-251 0,-251"/>
<text text-anchor="start" x="8" y="-272" font-family="Verdana" font-size="10.00">CConfigurableDomains</text>
<text text-anchor="middle" x="63" y="-259" font-family="Verdana" font-size="10.00">::setApplicationRule</text>
</g>
<!-- Node2 -->
<g id="node3" class="node"><title>Node2</title>
<a xlink:href="classCConfigurableDomains.html#a4dce38a1560b6e33871d3fa2d85cc449" target="_top" xlink:title="CConfigurableDomains\l::findConfigurableDomain">
<polygon fill="white" stroke="black" points="320.5,-281 320.5,-315 457.5,-315 457.5,-281 320.5,-281"/>
<text text-anchor="start" x="328.5" y="-302" font-family="Verdana" font-size="10.00">CConfigurableDomains</text>
<text text-anchor="middle" x="389" y="-289" font-family="Verdana" font-size="10.00">::findConfigurableDomain</text>
</a>
</g>
<!-- Node1&#45;&gt;Node2 -->
<g id="edge2" class="edge"><title>Node1&#45;&gt;Node2</title>
<path fill="none" stroke="midnightblue" d="M126.243,-273.82C178.711,-278.648 253.585,-285.538 309.994,-290.729"/>
<polygon fill="midnightblue" stroke="midnightblue" points="310.023,-294.247 320.302,-291.678 310.665,-287.276 310.023,-294.247"/>
</g>
<!-- Node4 -->
<g id="node7" class="node"><title>Node4</title>
<a xlink:href="classCConfigurableDomain.html#ab28e6a66ae7197d4fa131193f32891f4" target="_top" xlink:title="CConfigurableDomain\l::setApplicationRule">
<polygon fill="white" stroke="black" points="162.5,-226 162.5,-260 283.5,-260 283.5,-226 162.5,-226"/>
<text text-anchor="start" x="170.5" y="-247" font-family="Verdana" font-size="10.00">CConfigurableDomain</text>
<text text-anchor="middle" x="223" y="-234" font-family="Verdana" font-size="10.00">::setApplicationRule</text>
</a>
</g>
<!-- Node1&#45;&gt;Node4 -->
<g id="edge6" class="edge"><title>Node1&#45;&gt;Node4</title>
<path fill="none" stroke="midnightblue" d="M126.236,-258.119C134.775,-256.785 143.58,-255.409 152.239,-254.056"/>
<polygon fill="midnightblue" stroke="midnightblue" points="152.971,-257.485 162.311,-252.483 151.891,-250.568 152.971,-257.485"/>
</g>
<!-- Node3 -->
<g id="node5" class="node"><title>Node3</title>
<a xlink:href="classCElement.html#a8595814a3159f32f874269907e70b260" target="_top" xlink:title="CElement::findChild">
<polygon fill="white" stroke="black" points="1022,-225.5 1022,-246.5 1132,-246.5 1132,-225.5 1022,-225.5"/>
<text text-anchor="middle" x="1077" y="-233.5" font-family="Verdana" font-size="10.00">CElement::findChild</text>
</a>
</g>
<!-- Node2&#45;&gt;Node3 -->
<g id="edge4" class="edge"><title>Node2&#45;&gt;Node3</title>
<path fill="none" stroke="midnightblue" d="M457.76,-305.494C570.015,-315.594 798.71,-327.205 984,-279 1007.46,-272.898 1032.29,-261.111 1050.39,-251.419"/>
<polygon fill="midnightblue" stroke="midnightblue" points="1052.11,-254.463 1059.19,-246.582 1048.74,-248.327 1052.11,-254.463"/>
</g>
<!-- Node5 -->
<g id="node9" class="node"><title>Node5</title>
<a xlink:href="classCDomainConfiguration.html#a3b12c8d561b1e468bd03214326bdf450" target="_top" xlink:title="CDomainConfiguration\l::setApplicationRule">
<polygon fill="white" stroke="black" points="326.5,-216 326.5,-250 451.5,-250 451.5,-216 326.5,-216"/>
<text text-anchor="start" x="334.5" y="-237" font-family="Verdana" font-size="10.00">CDomainConfiguration</text>
<text text-anchor="middle" x="389" y="-224" font-family="Verdana" font-size="10.00">::setApplicationRule</text>
</a>
</g>
<!-- Node4&#45;&gt;Node5 -->
<g id="edge8" class="edge"><title>Node4&#45;&gt;Node5</title>
<path fill="none" stroke="midnightblue" d="M283.87,-239.333C294.388,-238.7 305.418,-238.035 316.213,-237.385"/>
<polygon fill="midnightblue" stroke="midnightblue" points="316.697,-240.862 326.468,-236.767 316.276,-233.875 316.697,-240.862"/>
</g>
<!-- Node6 -->
<g id="node11" class="node"><title>Node6</title>
<a xlink:href="classCRuleParser.html#acbce516a22f0dca0af620e751d298f7a" target="_top" xlink:title="CRuleParser::parse">
<polygon fill="white" stroke="black" points="512,-222.5 512,-243.5 618,-243.5 618,-222.5 512,-222.5"/>
<text text-anchor="middle" x="565" y="-230.5" font-family="Verdana" font-size="10.00">CRuleParser::parse</text>
</a>
</g>
<!-- Node5&#45;&gt;Node6 -->
<g id="edge10" class="edge"><title>Node5&#45;&gt;Node6</title>
<path fill="none" stroke="midnightblue" d="M451.547,-233C467.911,-233 485.56,-233 501.951,-233"/>
<polygon fill="midnightblue" stroke="midnightblue" points="501.97,-236.5 511.97,-233 501.97,-229.5 501.97,-236.5"/>
</g>
<!-- Node18 -->
<g id="node37" class="node"><title>Node18</title>
<a xlink:href="classCRuleParser.html#a89407cd2535589d81d1d5beba1e51544" target="_top" xlink:title="CRuleParser::grabRootRule">
<polygon fill="white" stroke="black" points="494.5,-182.5 494.5,-203.5 635.5,-203.5 635.5,-182.5 494.5,-182.5"/>
<text text-anchor="middle" x="565" y="-190.5" font-family="Verdana" font-size="10.00">CRuleParser::grabRootRule</text>
</a>
</g>
<!-- Node5&#45;&gt;Node18 -->
<g id="edge38" class="edge"><title>Node5&#45;&gt;Node18</title>
<path fill="none" stroke="midnightblue" d="M451.547,-218.785C470.22,-214.541 490.567,-209.916 508.808,-205.771"/>
<polygon fill="midnightblue" stroke="midnightblue" points="509.725,-209.152 518.701,-203.523 508.174,-202.326 509.725,-209.152"/>
</g>
<!-- Node7 -->
<g id="node13" class="node"><title>Node7</title>
<a xlink:href="classCRuleParser.html#ac7faca228556fb47a33ccb95e15ce6d6" target="_top" xlink:title="CRuleParser::iterate">
<polygon fill="white" stroke="black" points="681,-262.5 681,-283.5 791,-283.5 791,-262.5 681,-262.5"/>
<text text-anchor="middle" x="736" y="-270.5" font-family="Verdana" font-size="10.00">CRuleParser::iterate</text>
</a>
</g>
<!-- Node6&#45;&gt;Node7 -->
<g id="edge12" class="edge"><title>Node6&#45;&gt;Node7</title>
<path fill="none" stroke="midnightblue" d="M609.928,-243.51C631.736,-248.611 658.129,-254.785 681.119,-260.162"/>
<polygon fill="midnightblue" stroke="midnightblue" points="680.541,-263.622 691.075,-262.491 682.135,-256.806 680.541,-263.622"/>
</g>
<!-- Node8 -->
<g id="node15" class="node"><title>Node8</title>
<a xlink:href="classCCompoundRule.html#a127d40590afcf25e9fcf9b18234249f8" target="_top" xlink:title="CCompoundRule::parse">
<polygon fill="white" stroke="black" points="672,-222.5 672,-243.5 800,-243.5 800,-222.5 672,-222.5"/>
<text text-anchor="middle" x="736" y="-230.5" font-family="Verdana" font-size="10.00">CCompoundRule::parse</text>
</a>
</g>
<!-- Node6&#45;&gt;Node8 -->
<g id="edge14" class="edge"><title>Node6&#45;&gt;Node8</title>
<path fill="none" stroke="midnightblue" d="M618.168,-233C631.949,-233 647.044,-233 661.694,-233"/>
<polygon fill="midnightblue" stroke="midnightblue" points="661.742,-236.5 671.742,-233 661.742,-229.5 661.742,-236.5"/>
</g>
<!-- Node10 -->
<g id="node19" class="node"><title>Node10</title>
<a xlink:href="classCElement.html#ac2ad66ee438a4a0c1390b7388874fe72" target="_top" xlink:title="CElement::addChild">
<polygon fill="white" stroke="black" points="681,-182.5 681,-203.5 791,-203.5 791,-182.5 681,-182.5"/>
<text text-anchor="middle" x="736" y="-190.5" font-family="Verdana" font-size="10.00">CElement::addChild</text>
</a>
</g>
<!-- Node6&#45;&gt;Node10 -->
<g id="edge18" class="edge"><title>Node6&#45;&gt;Node10</title>
<path fill="none" stroke="midnightblue" d="M609.928,-222.49C631.736,-217.389 658.129,-211.215 681.119,-205.838"/>
<polygon fill="midnightblue" stroke="midnightblue" points="682.135,-209.194 691.075,-203.509 680.541,-202.378 682.135,-209.194"/>
</g>
<!-- Node11 -->
<g id="node21" class="node"><title>Node11</title>
<a xlink:href="classCSelectionCriterionRule.html#a4ee8e0274ac8c7bf5a2452002aa7ae0e" target="_top" xlink:title="CSelectionCriterionRule\l::parse">
<polygon fill="white" stroke="black" points="672,-130 672,-164 800,-164 800,-130 672,-130"/>
<text text-anchor="start" x="680" y="-151" font-family="Verdana" font-size="10.00">CSelectionCriterionRule</text>
<text text-anchor="middle" x="736" y="-138" font-family="Verdana" font-size="10.00">::parse</text>
</a>
</g>
<!-- Node6&#45;&gt;Node11 -->
<g id="edge20" class="edge"><title>Node6&#45;&gt;Node11</title>
<path fill="none" stroke="midnightblue" d="M616.143,-222.386C623.087,-219.874 629.91,-216.787 636,-213 656.311,-200.371 652.423,-186.739 672,-173 674.062,-171.553 676.215,-170.169 678.433,-168.846"/>
<polygon fill="midnightblue" stroke="midnightblue" points="680.13,-171.908 687.238,-164.051 676.782,-165.76 680.13,-171.908"/>
</g>
<!-- Node9 -->
<g id="node17" class="node"><title>Node9</title>
<a xlink:href="classCRuleParser.html#ae574ae0109f76cc624590bd4899e0a91" target="_top" xlink:title="CRuleParser::getType">
<polygon fill="white" stroke="black" points="852,-248.5 852,-269.5 968,-269.5 968,-248.5 852,-248.5"/>
<text text-anchor="middle" x="910" y="-256.5" font-family="Verdana" font-size="10.00">CRuleParser::getType</text>
</a>
</g>
<!-- Node8&#45;&gt;Node9 -->
<g id="edge16" class="edge"><title>Node8&#45;&gt;Node9</title>
<path fill="none" stroke="midnightblue" d="M800.297,-242.608C813.72,-244.613 827.918,-246.735 841.488,-248.763"/>
<polygon fill="midnightblue" stroke="midnightblue" points="841.311,-252.275 851.718,-250.291 842.345,-245.352 841.311,-252.275"/>
</g>
<!-- Node11&#45;&gt;Node9 -->
<g id="edge28" class="edge"><title>Node11&#45;&gt;Node9</title>
<path fill="none" stroke="midnightblue" d="M787.519,-164.099C791.994,-166.693 796.242,-169.646 800,-173 824.928,-195.249 809.762,-218.311 836,-239 838.103,-240.658 840.333,-242.18 842.656,-243.575"/>
<polygon fill="midnightblue" stroke="midnightblue" points="841.516,-246.923 852.013,-248.357 844.702,-240.69 841.516,-246.923"/>
</g>
<!-- Node12 -->
<g id="node23" class="node"><title>Node12</title>
<a xlink:href="classCRuleParser.html#af179ac22a54025386da02a5bdb33b253" target="_top" xlink:title="CRuleParser::getSelection\lCriteriaDefinition">
<polygon fill="white" stroke="black" points="840.5,-196 840.5,-230 979.5,-230 979.5,-196 840.5,-196"/>
<text text-anchor="start" x="848.5" y="-217" font-family="Verdana" font-size="10.00">CRuleParser::getSelection</text>
<text text-anchor="middle" x="910" y="-204" font-family="Verdana" font-size="10.00">CriteriaDefinition</text>
</a>
</g>
<!-- Node11&#45;&gt;Node12 -->
<g id="edge22" class="edge"><title>Node11&#45;&gt;Node12</title>
<path fill="none" stroke="midnightblue" d="M778.118,-164.055C800.186,-172.949 824.884,-182.826 836,-187 840.816,-188.808 845.823,-190.649 850.859,-192.474"/>
<polygon fill="midnightblue" stroke="midnightblue" points="849.941,-195.863 860.536,-195.949 852.307,-189.275 849.941,-195.863"/>
</g>
<!-- Node13 -->
<g id="node25" class="node"><title>Node13</title>
<a xlink:href="classCSelectionCriteriaDefinition.html#ade9c9f7fe7806988d3d922bf615e5994" target="_top" xlink:title="CSelectionCriteriaDefinition\l::getSelectionCriterion">
<polygon fill="white" stroke="black" points="836.5,-144 836.5,-178 983.5,-178 983.5,-144 836.5,-144"/>
<text text-anchor="start" x="844.5" y="-165" font-family="Verdana" font-size="10.00">CSelectionCriteriaDefinition</text>
<text text-anchor="middle" x="910" y="-152" font-family="Verdana" font-size="10.00">::getSelectionCriterion</text>
</a>
</g>
<!-- Node11&#45;&gt;Node13 -->
<g id="edge24" class="edge"><title>Node11&#45;&gt;Node13</title>
<path fill="none" stroke="midnightblue" d="M800.297,-152.173C808.716,-152.851 817.44,-153.553 826.123,-154.251"/>
<polygon fill="midnightblue" stroke="midnightblue" points="826.028,-157.755 836.276,-155.068 826.589,-150.777 826.028,-157.755"/>
</g>
<!-- Node14 -->
<g id="node29" class="node"><title>Node14</title>
<a xlink:href="classCRuleParser.html#a7f6198bd3656599e15aee6860c1bf4d7" target="_top" xlink:title="CRuleParser::next">
<polygon fill="white" stroke="black" points="860,-104.5 860,-125.5 960,-125.5 960,-104.5 860,-104.5"/>
<text text-anchor="middle" x="910" y="-112.5" font-family="Verdana" font-size="10.00">CRuleParser::next</text>
</a>
</g>
<!-- Node11&#45;&gt;Node14 -->
<g id="edge30" class="edge"><title>Node11&#45;&gt;Node14</title>
<path fill="none" stroke="midnightblue" d="M800.297,-135.175C816.418,-132.211 833.657,-129.04 849.582,-126.111"/>
<polygon fill="midnightblue" stroke="midnightblue" points="850.63,-129.477 859.832,-124.226 849.363,-122.593 850.63,-129.477"/>
</g>
<!-- Node15 -->
<g id="node31" class="node"><title>Node15</title>
<a xlink:href="classCSelectionCriterion.html#a3551b612a002f7cc311f21be1685f794" target="_top" xlink:title="CSelectionCriterion\l::getCriterionType">
<polygon fill="white" stroke="black" points="856,-52 856,-86 964,-86 964,-52 856,-52"/>
<text text-anchor="start" x="864" y="-73" font-family="Verdana" font-size="10.00">CSelectionCriterion</text>
<text text-anchor="middle" x="910" y="-60" font-family="Verdana" font-size="10.00">::getCriterionType</text>
</a>
</g>
<!-- Node11&#45;&gt;Node15 -->
<g id="edge32" class="edge"><title>Node11&#45;&gt;Node15</title>
<path fill="none" stroke="midnightblue" d="M766.093,-129.927C785.668,-119.18 811.938,-105.421 836,-95 840.118,-93.2167 844.401,-91.4617 848.74,-89.7572"/>
<polygon fill="midnightblue" stroke="midnightblue" points="850.189,-92.9507 858.284,-86.1153 847.693,-86.4107 850.189,-92.9507"/>
</g>
<!-- Node16 -->
<g id="node33" class="node"><title>Node16</title>
<a xlink:href="classCSelectionCriterion.html#a1570d99b016390cca5b5d6f3c1d405c1" target="_top" xlink:title="CSelectionCriterion\l::getCriterionName">
<polygon fill="white" stroke="black" points="856,-0 856,-34 964,-34 964,-0 856,-0"/>
<text text-anchor="start" x="864" y="-21" font-family="Verdana" font-size="10.00">CSelectionCriterion</text>
<text text-anchor="middle" x="910" y="-8" font-family="Verdana" font-size="10.00">::getCriterionName</text>
</a>
</g>
<!-- Node11&#45;&gt;Node16 -->
<g id="edge34" class="edge"><title>Node11&#45;&gt;Node16</title>
<path fill="none" stroke="midnightblue" d="M748.33,-129.864C765.559,-107.058 798.919,-66.843 836,-43 839.32,-40.8654 842.836,-38.8808 846.463,-37.0397"/>
<polygon fill="midnightblue" stroke="midnightblue" points="848.069,-40.1527 855.653,-32.755 845.111,-33.8083 848.069,-40.1527"/>
</g>
<!-- Node13&#45;&gt;Node3 -->
<g id="edge26" class="edge"><title>Node13&#45;&gt;Node3</title>
<path fill="none" stroke="midnightblue" d="M961.731,-178.08C969.271,-180.885 976.886,-183.896 984,-187 1006.79,-196.943 1031.67,-210.183 1049.95,-220.393"/>
<polygon fill="midnightblue" stroke="midnightblue" points="1048.44,-223.557 1058.87,-225.422 1051.88,-217.46 1048.44,-223.557"/>
</g>
<!-- Node17 -->
<g id="node35" class="node"><title>Node17</title>
<a xlink:href="classCElement.html#a49581fb6412e29e932962acd82d52d6a" target="_top" xlink:title="CElement::getName">
<polygon fill="white" stroke="black" points="1020,-6.5 1020,-27.5 1134,-27.5 1134,-6.5 1020,-6.5"/>
<text text-anchor="middle" x="1077" y="-14.5" font-family="Verdana" font-size="10.00">CElement::getName</text>
</a>
</g>
<!-- Node16&#45;&gt;Node17 -->
<g id="edge36" class="edge"><title>Node16&#45;&gt;Node17</title>
<path fill="none" stroke="midnightblue" d="M964.22,-17C978.691,-17 994.505,-17 1009.59,-17"/>
<polygon fill="midnightblue" stroke="midnightblue" points="1009.89,-20.5001 1019.89,-17 1009.89,-13.5001 1009.89,-20.5001"/>
</g>
</g>
</svg>
