<?xml version="1.0" encoding="UTF-8" standalone="no"?>
<!DOCTYPE svg PUBLIC "-//W3C//DTD SVG 1.1//EN"
 "http://www.w3.org/Graphics/SVG/1.1/DTD/svg11.dtd">
<!-- Generated by graphviz version 2.26.3 (20100126.1600)
 -->
<!-- Title: CSubsystem::fromXml Pages: 1 -->
<svg width="924pt" height="320pt"
 viewBox="0.00 0.00 924.00 320.00" xmlns="http://www.w3.org/2000/svg" xmlns:xlink="http://www.w3.org/1999/xlink">
<g id="graph1" class="graph" transform="scale(1 1) rotate(0) translate(4 316)">
<title>CSubsystem::fromXml</title>
<polygon fill="white" stroke="white" points="-4,5 -4,-316 921,-316 921,5 -4,5"/>
<!-- Node1 -->
<g id="node1" class="node"><title>Node1</title>
<polygon fill="#bfbfbf" stroke="black" points="0,-174.5 0,-195.5 124,-195.5 124,-174.5 0,-174.5"/>
<text text-anchor="middle" x="62" y="-182.5" font-family="Verdana" font-size="10.00">CSubsystem::fromXml</text>
</g>
<!-- Node2 -->
<g id="node3" class="node"><title>Node2</title>
<a xlink:href="classCXmlParameterSerializingContext.html#a6aa9745f2951dc85c1a5d44f5e5e785c" target="_top" xlink:title="CXmlParameterSerializing\lContext::setComponentLibrary">
<polygon fill="white" stroke="black" points="160,-260 160,-294 324,-294 324,-260 160,-260"/>
<text text-anchor="start" x="168" y="-281" font-family="Verdana" font-size="10.00">CXmlParameterSerializing</text>
<text text-anchor="middle" x="242" y="-268" font-family="Verdana" font-size="10.00">Context::setComponentLibrary</text>
</a>
</g>
<!-- Node1&#45;&gt;Node2 -->
<g id="edge2" class="edge"><title>Node1&#45;&gt;Node2</title>
<path fill="none" stroke="midnightblue" d="M75.2051,-195.708C93.3609,-209.993 127.49,-235.301 160,-251 163.782,-252.827 167.723,-254.566 171.743,-256.214"/>
<polygon fill="midnightblue" stroke="midnightblue" points="170.636,-259.539 181.225,-259.896 173.17,-253.014 170.636,-259.539"/>
</g>
<!-- Node3 -->
<g id="node5" class="node"><title>Node3</title>
<a xlink:href="classCMappingData.html#af6c3dc0a3f49fa81435761978f842bc8" target="_top" xlink:title="CMappingData::fromXml">
<polygon fill="white" stroke="black" points="175,-220.5 175,-241.5 309,-241.5 309,-220.5 175,-220.5"/>
<text text-anchor="middle" x="242" y="-228.5" font-family="Verdana" font-size="10.00">CMappingData::fromXml</text>
</a>
</g>
<!-- Node1&#45;&gt;Node3 -->
<g id="edge4" class="edge"><title>Node1&#45;&gt;Node3</title>
<path fill="none" stroke="midnightblue" d="M101.057,-195.555C118.993,-200.352 140.553,-206.049 160,-211 169.169,-213.334 178.93,-215.763 188.4,-218.091"/>
<polygon fill="midnightblue" stroke="midnightblue" points="187.582,-221.494 198.127,-220.472 189.246,-214.695 187.582,-221.494"/>
</g>
<!-- Node4 -->
<g id="node7" class="node"><title>Node4</title>
<a xlink:href="classCComponentLibrary.html#ad4cc928cda43371fb31f20394e8e04e5" target="_top" xlink:title="CComponentLibrary::\lfromXml">
<polygon fill="white" stroke="black" points="183.5,-168 183.5,-202 300.5,-202 300.5,-168 183.5,-168"/>
<text text-anchor="start" x="191.5" y="-189" font-family="Verdana" font-size="10.00">CComponentLibrary::</text>
<text text-anchor="middle" x="242" y="-176" font-family="Verdana" font-size="10.00">fromXml</text>
</a>
</g>
<!-- Node1&#45;&gt;Node4 -->
<g id="edge6" class="edge"><title>Node1&#45;&gt;Node4</title>
<path fill="none" stroke="midnightblue" d="M124.198,-185C139.953,-185 156.968,-185 173.035,-185"/>
<polygon fill="midnightblue" stroke="midnightblue" points="173.434,-188.5 183.434,-185 173.434,-181.5 173.434,-188.5"/>
</g>
<!-- Node12 -->
<g id="node25" class="node"><title>Node12</title>
<a xlink:href="classCTypeElement.html#a8f3a08cd11a7db4fde3bd69dde5c8b66" target="_top" xlink:title="CTypeElement::fromXml">
<polygon fill="white" stroke="black" points="176.5,-28.5 176.5,-49.5 307.5,-49.5 307.5,-28.5 176.5,-28.5"/>
<text text-anchor="middle" x="242" y="-36.5" font-family="Verdana" font-size="10.00">CTypeElement::fromXml</text>
</a>
</g>
<!-- Node1&#45;&gt;Node12 -->
<g id="edge26" class="edge"><title>Node1&#45;&gt;Node12</title>
<path fill="none" stroke="midnightblue" d="M70.269,-174.405C86.0923,-154.622 122.435,-111.495 160,-83 174.817,-71.7609 192.888,-61.7331 208.291,-54.0995"/>
<polygon fill="midnightblue" stroke="midnightblue" points="209.997,-57.1628 217.484,-49.6666 206.956,-50.8576 209.997,-57.1628"/>
</g>
<!-- Node15 -->
<g id="node32" class="node"><title>Node15</title>
<a xlink:href="classCInstanceDefinition.html#aa29d3b10a23894522cfaa937cf385d10" target="_top" xlink:title="CInstanceDefinition\l::createInstances">
<polygon fill="white" stroke="black" points="187.5,-92 187.5,-126 296.5,-126 296.5,-92 187.5,-92"/>
<text text-anchor="start" x="195.5" y="-113" font-family="Verdana" font-size="10.00">CInstanceDefinition</text>
<text text-anchor="middle" x="242" y="-100" font-family="Verdana" font-size="10.00">::createInstances</text>
</a>
</g>
<!-- Node1&#45;&gt;Node15 -->
<g id="edge34" class="edge"><title>Node1&#45;&gt;Node15</title>
<path fill="none" stroke="midnightblue" d="M87.0282,-174.433C114.136,-162.987 158.081,-144.432 192.265,-129.999"/>
<polygon fill="midnightblue" stroke="midnightblue" points="193.774,-133.161 201.626,-126.047 191.052,-126.712 193.774,-133.161"/>
</g>
<!-- Node5 -->
<g id="node9" class="node"><title>Node5</title>
<a xlink:href="classCElement.html#a0b4cdc10e6df8fd3740255c5faf3b596" target="_top" xlink:title="Creates a child CElement from a child XML Element. ">
<polygon fill="white" stroke="black" points="575.5,-238.5 575.5,-259.5 698.5,-259.5 698.5,-238.5 575.5,-238.5"/>
<text text-anchor="middle" x="637" y="-246.5" font-family="Verdana" font-size="10.00">CElement::createChild</text>
</a>
</g>
<!-- Node4&#45;&gt;Node5 -->
<g id="edge8" class="edge"><title>Node4&#45;&gt;Node5</title>
<path fill="none" stroke="midnightblue" d="M300.258,-202.051C308.316,-204.821 316.423,-207.829 324,-211 340.689,-217.984 342.598,-225.052 360,-230 427.655,-249.239 508.179,-252.719 564.921,-252.154"/>
<polygon fill="midnightblue" stroke="midnightblue" points="565.283,-255.649 575.231,-252.004 565.181,-248.65 565.283,-255.649"/>
</g>
<!-- Node9 -->
<g id="node17" class="node"><title>Node9</title>
<a xlink:href="classCElement.html#a1978d50e2db432e7b8f0928f33d3f01a" target="_top" xlink:title="CElement::fromXml">
<polygon fill="white" stroke="black" points="390,-181.5 390,-202.5 500,-202.5 500,-181.5 390,-181.5"/>
<text text-anchor="middle" x="445" y="-189.5" font-family="Verdana" font-size="10.00">CElement::fromXml</text>
</a>
</g>
<!-- Node4&#45;&gt;Node9 -->
<g id="edge16" class="edge"><title>Node4&#45;&gt;Node9</title>
<path fill="none" stroke="midnightblue" d="M300.716,-187.025C325.416,-187.876 354.254,-188.871 379.627,-189.746"/>
<polygon fill="midnightblue" stroke="midnightblue" points="379.783,-193.253 389.898,-190.1 380.025,-186.257 379.783,-193.253"/>
</g>
<!-- Node6 -->
<g id="node11" class="node"><title>Node6</title>
<a xlink:href="classCXmlElementSerializingContext.html#a6c36b7e23b9968c6ea898612d2a55ee9" target="_top" xlink:title="CXmlElementSerializingContext\l::getElementLibrary">
<polygon fill="white" stroke="black" points="746.5,-278 746.5,-312 913.5,-312 913.5,-278 746.5,-278"/>
<text text-anchor="start" x="754.5" y="-299" font-family="Verdana" font-size="10.00">CXmlElementSerializingContext</text>
<text text-anchor="middle" x="830" y="-286" font-family="Verdana" font-size="10.00">::getElementLibrary</text>
</a>
</g>
<!-- Node5&#45;&gt;Node6 -->
<g id="edge10" class="edge"><title>Node5&#45;&gt;Node6</title>
<path fill="none" stroke="midnightblue" d="M681.278,-259.553C701.241,-264.311 725.47,-270.086 748.526,-275.581"/>
<polygon fill="midnightblue" stroke="midnightblue" points="747.78,-279.002 758.319,-277.915 749.403,-272.192 747.78,-279.002"/>
</g>
<!-- Node7 -->
<g id="node13" class="node"><title>Node7</title>
<a xlink:href="classCElementLibrary.html#a5ad95964216e50fc59f0c803370fb4de" target="_top" xlink:title="CElementLibrary::createElement">
<polygon fill="white" stroke="black" points="744.5,-238.5 744.5,-259.5 915.5,-259.5 915.5,-238.5 744.5,-238.5"/>
<text text-anchor="middle" x="830" y="-246.5" font-family="Verdana" font-size="10.00">CElementLibrary::createElement</text>
</a>
</g>
<!-- Node5&#45;&gt;Node7 -->
<g id="edge12" class="edge"><title>Node5&#45;&gt;Node7</title>
<path fill="none" stroke="midnightblue" d="M698.597,-249C709.974,-249 722.098,-249 734.208,-249"/>
<polygon fill="midnightblue" stroke="midnightblue" points="734.36,-252.5 744.36,-249 734.36,-245.5 734.36,-252.5"/>
</g>
<!-- Node8 -->
<g id="node15" class="node"><title>Node8</title>
<a xlink:href="classCElement.html#ac2ad66ee438a4a0c1390b7388874fe72" target="_top" xlink:title="CElement::addChild">
<polygon fill="white" stroke="black" points="775,-198.5 775,-219.5 885,-219.5 885,-198.5 775,-198.5"/>
<text text-anchor="middle" x="830" y="-206.5" font-family="Verdana" font-size="10.00">CElement::addChild</text>
</a>
</g>
<!-- Node5&#45;&gt;Node8 -->
<g id="edge14" class="edge"><title>Node5&#45;&gt;Node8</title>
<path fill="none" stroke="midnightblue" d="M687.708,-238.49C712.764,-233.298 743.181,-226.994 769.45,-221.549"/>
<polygon fill="midnightblue" stroke="midnightblue" points="770.214,-224.965 779.295,-219.509 768.793,-218.111 770.214,-224.965"/>
</g>
<!-- Node9&#45;&gt;Node5 -->
<g id="edge22" class="edge"><title>Node9&#45;&gt;Node5</title>
<path fill="none" stroke="midnightblue" d="M478.841,-202.568C503.071,-210.08 536.492,-220.334 566,-229 573.516,-231.208 581.494,-233.502 589.285,-235.716"/>
<polygon fill="midnightblue" stroke="midnightblue" points="588.428,-239.111 599.003,-238.464 590.333,-232.375 588.428,-239.111"/>
</g>
<!-- Node9&#45;&gt;Node9 -->
<g id="edge24" class="edge"><title>Node9&#45;&gt;Node9</title>
<path fill="none" stroke="midnightblue" d="M414.493,-202.708C401.456,-211.653 411.625,-221 445,-221 467.424,-221 479.372,-216.781 480.845,-211.299"/>
<polygon fill="midnightblue" stroke="midnightblue" points="483.757,-209.355 475.507,-202.708 477.812,-213.049 483.757,-209.355"/>
</g>
<!-- Node10 -->
<g id="node19" class="node"><title>Node10</title>
<a xlink:href="classCElement.html#acee1af3e8516a211731a59b85727c6b9" target="_top" xlink:title="CElement::findChildOfKind">
<polygon fill="white" stroke="black" points="567,-198.5 567,-219.5 707,-219.5 707,-198.5 567,-198.5"/>
<text text-anchor="middle" x="637" y="-206.5" font-family="Verdana" font-size="10.00">CElement::findChildOfKind</text>
</a>
</g>
<!-- Node9&#45;&gt;Node10 -->
<g id="edge18" class="edge"><title>Node9&#45;&gt;Node10</title>
<path fill="none" stroke="midnightblue" d="M500.019,-196.872C517.678,-198.435 537.615,-200.2 556.7,-201.89"/>
<polygon fill="midnightblue" stroke="midnightblue" points="556.62,-205.397 566.89,-202.792 557.238,-198.424 556.62,-205.397"/>
</g>
<!-- Node11 -->
<g id="node21" class="node"><title>Node11</title>
<a xlink:href="classCElement.html#aed2ca7f2a56dbf2edcd82167859535ee" target="_top" xlink:title="CElement::getKind">
<polygon fill="white" stroke="black" points="777.5,-158.5 777.5,-179.5 882.5,-179.5 882.5,-158.5 777.5,-158.5"/>
<text text-anchor="middle" x="830" y="-166.5" font-family="Verdana" font-size="10.00">CElement::getKind</text>
</a>
</g>
<!-- Node10&#45;&gt;Node11 -->
<g id="edge20" class="edge"><title>Node10&#45;&gt;Node11</title>
<path fill="none" stroke="midnightblue" d="M687.708,-198.49C712.764,-193.298 743.181,-186.994 769.45,-181.549"/>
<polygon fill="midnightblue" stroke="midnightblue" points="770.214,-184.965 779.295,-179.509 768.793,-178.111 770.214,-184.965"/>
</g>
<!-- Node13 -->
<g id="node27" class="node"><title>Node13</title>
<a xlink:href="classCTypeElement.html#aa8d910c6cf51c03d03f183a6a81a8372" target="_top" xlink:title="CTypeElement::getMappingData">
<polygon fill="white" stroke="black" points="360,-17.5 360,-38.5 530,-38.5 530,-17.5 360,-17.5"/>
<text text-anchor="middle" x="445" y="-25.5" font-family="Verdana" font-size="10.00">CTypeElement::getMappingData</text>
</a>
</g>
<!-- Node12&#45;&gt;Node13 -->
<g id="edge28" class="edge"><title>Node12&#45;&gt;Node13</title>
<path fill="none" stroke="midnightblue" d="M307.628,-35.4438C321.051,-34.7165 335.434,-33.9371 349.656,-33.1664"/>
<polygon fill="midnightblue" stroke="midnightblue" points="350.171,-36.6438 359.967,-32.6077 349.792,-29.654 350.171,-36.6438"/>
</g>
<!-- Node13&#45;&gt;Node13 -->
<g id="edge30" class="edge"><title>Node13&#45;&gt;Node13</title>
<path fill="none" stroke="midnightblue" d="M414.493,-38.7079C401.456,-47.6531 411.625,-57 445,-57 467.424,-57 479.372,-52.7807 480.845,-47.2987"/>
<polygon fill="midnightblue" stroke="midnightblue" points="483.757,-45.3546 475.507,-38.7079 477.812,-49.049 483.757,-45.3546"/>
</g>
<!-- Node14 -->
<g id="node30" class="node"><title>Node14</title>
<a xlink:href="classCMappingData.html#a7a2d5172201c72ab434175fadc1f3053" target="_top" xlink:title="CMappingData::getValue">
<polygon fill="white" stroke="black" points="569.5,-0.5 569.5,-21.5 704.5,-21.5 704.5,-0.5 569.5,-0.5"/>
<text text-anchor="middle" x="637" y="-8.5" font-family="Verdana" font-size="10.00">CMappingData::getValue</text>
</a>
</g>
<!-- Node13&#45;&gt;Node14 -->
<g id="edge32" class="edge"><title>Node13&#45;&gt;Node14</title>
<path fill="none" stroke="midnightblue" d="M530.052,-20.4693C539.702,-19.6149 549.501,-18.7473 559.053,-17.9015"/>
<polygon fill="midnightblue" stroke="midnightblue" points="559.65,-21.3625 569.302,-16.9941 559.032,-14.3898 559.65,-21.3625"/>
</g>
<!-- Node16 -->
<g id="node34" class="node"><title>Node16</title>
<a xlink:href="classCTypeElement.html#a7cdfd91a35b67d17fb2c92f8a2883854" target="_top" xlink:title="CTypeElement::populate">
<polygon fill="white" stroke="black" points="379,-86.5 379,-107.5 511,-107.5 511,-86.5 379,-86.5"/>
<text text-anchor="middle" x="445" y="-94.5" font-family="Verdana" font-size="10.00">CTypeElement::populate</text>
</a>
</g>
<!-- Node15&#45;&gt;Node16 -->
<g id="edge36" class="edge"><title>Node15&#45;&gt;Node16</title>
<path fill="none" stroke="midnightblue" d="M296.667,-105.768C318.759,-104.463 344.643,-102.932 368.548,-101.519"/>
<polygon fill="midnightblue" stroke="midnightblue" points="368.88,-105.006 378.656,-100.922 368.467,-98.0181 368.88,-105.006"/>
</g>
<!-- Node16&#45;&gt;Node8 -->
<g id="edge46" class="edge"><title>Node16&#45;&gt;Node8</title>
<path fill="none" stroke="midnightblue" d="M465.474,-107.687C489.136,-119.668 529.51,-138.988 566,-151 632.267,-172.814 710.602,-188.852 764.639,-198.466"/>
<polygon fill="midnightblue" stroke="midnightblue" points="764.32,-201.964 774.775,-200.245 765.53,-195.069 764.32,-201.964"/>
</g>
<!-- Node17 -->
<g id="node36" class="node"><title>Node17</title>
<a xlink:href="classCElement.html#a25f58d9d8b35e770806d669fb2a378e4" target="_top" xlink:title="CElement::getNbChildren">
<polygon fill="white" stroke="black" points="568.5,-120.5 568.5,-141.5 705.5,-141.5 705.5,-120.5 568.5,-120.5"/>
<text text-anchor="middle" x="637" y="-128.5" font-family="Verdana" font-size="10.00">CElement::getNbChildren</text>
</a>
</g>
<!-- Node16&#45;&gt;Node17 -->
<g id="edge38" class="edge"><title>Node16&#45;&gt;Node17</title>
<path fill="none" stroke="midnightblue" d="M504.435,-107.525C524.405,-111.061 546.858,-115.037 567.529,-118.698"/>
<polygon fill="midnightblue" stroke="midnightblue" points="567.058,-122.169 577.515,-120.466 568.279,-115.276 567.058,-122.169"/>
</g>
<!-- Node18 -->
<g id="node38" class="node"><title>Node18</title>
<a xlink:href="classCElement.html#a41bf126c3fdbb5bec0c2c3dcf35e9079" target="_top" xlink:title="CElement::getChild">
<polygon fill="white" stroke="black" points="583,-80.5 583,-101.5 691,-101.5 691,-80.5 583,-80.5"/>
<text text-anchor="middle" x="637" y="-88.5" font-family="Verdana" font-size="10.00">CElement::getChild</text>
</a>
</g>
<!-- Node16&#45;&gt;Node18 -->
<g id="edge40" class="edge"><title>Node16&#45;&gt;Node18</title>
<path fill="none" stroke="midnightblue" d="M511.076,-94.9351C531.028,-94.3116 552.897,-93.6282 572.73,-93.0085"/>
<polygon fill="midnightblue" stroke="midnightblue" points="573.009,-96.5015 582.894,-92.6908 572.79,-89.505 573.009,-96.5015"/>
</g>
<!-- Node19 -->
<g id="node40" class="node"><title>Node19</title>
<a xlink:href="classCTypeElement.html#a0fd0b5dfb3e3515ff5b54eda3d7e0a45" target="_top" xlink:title="CTypeElement::instantiate">
<polygon fill="white" stroke="black" points="566.5,-40.5 566.5,-61.5 707.5,-61.5 707.5,-40.5 566.5,-40.5"/>
<text text-anchor="middle" x="637" y="-48.5" font-family="Verdana" font-size="10.00">CTypeElement::instantiate</text>
</a>
</g>
<!-- Node16&#45;&gt;Node19 -->
<g id="edge42" class="edge"><title>Node16&#45;&gt;Node19</title>
<path fill="none" stroke="midnightblue" d="M469.708,-86.3782C491.641,-79.4974 524.95,-70.8595 556.087,-63.7101"/>
<polygon fill="midnightblue" stroke="midnightblue" points="557.121,-67.0647 566.103,-61.4452 555.577,-60.237 557.121,-67.0647"/>
</g>
<!-- Node19&#45;&gt;Node16 -->
<g id="edge44" class="edge"><title>Node19&#45;&gt;Node16</title>
<path fill="none" stroke="midnightblue" d="M612.277,-61.6266C589.193,-68.8673 553.52,-78.0525 521.037,-85.4015"/>
<polygon fill="midnightblue" stroke="midnightblue" points="520.076,-82.0296 511.076,-87.6191 521.597,-88.8623 520.076,-82.0296"/>
</g>
</g>
</svg>
