<?xml version="1.0" encoding="UTF-8" standalone="no"?>
<!DOCTYPE svg PUBLIC "-//W3C//DTD SVG 1.1//EN"
 "http://www.w3.org/Graphics/SVG/1.1/DTD/svg11.dtd">
<!-- Generated by graphviz version 2.26.3 (20100126.1600)
 -->
<!-- Title: CDomainConfiguration::binarySerialize Pages: 1 -->
<svg width="600pt" height="147pt"
 viewBox="0.00 0.00 600.00 147.00" xmlns="http://www.w3.org/2000/svg" xmlns:xlink="http://www.w3.org/1999/xlink">
<g id="graph1" class="graph" transform="scale(1 1) rotate(0) translate(4 143)">
<title>CDomainConfiguration::binarySerialize</title>
<polygon fill="white" stroke="white" points="-4,5 -4,-143 597,-143 597,5 -4,5"/>
<!-- Node1 -->
<g id="node1" class="node"><title>Node1</title>
<polygon fill="#bfbfbf" stroke="black" points="0.5,-43 0.5,-77 125.5,-77 125.5,-43 0.5,-43"/>
<text text-anchor="start" x="8.5" y="-64" font-family="Verdana" font-size="10.00">CDomainConfiguration</text>
<text text-anchor="middle" x="63" y="-51" font-family="Verdana" font-size="10.00">::binarySerialize</text>
</g>
<!-- Node2 -->
<g id="node3" class="node"><title>Node2</title>
<a xlink:href="classCBinaryStream.html#a362955618d8b9cbb753d59ea9e85a124" target="_top" xlink:title="CBinaryStream::isOut">
<polygon fill="white" stroke="black" points="472,-117.5 472,-138.5 592,-138.5 592,-117.5 472,-117.5"/>
<text text-anchor="middle" x="532" y="-125.5" font-family="Verdana" font-size="10.00">CBinaryStream::isOut</text>
</a>
</g>
<!-- Node1&#45;&gt;Node2 -->
<g id="edge2" class="edge"><title>Node1&#45;&gt;Node2</title>
<path fill="none" stroke="midnightblue" d="M91.4472,-77.1053C110.709,-87.9164 137.093,-101.262 162,-109 262.464,-140.212 385.585,-139.297 461.405,-134.567"/>
<polygon fill="midnightblue" stroke="midnightblue" points="462.036,-138.033 471.782,-133.877 461.572,-131.048 462.036,-138.033"/>
</g>
<!-- Node3 -->
<g id="node5" class="node"><title>Node3</title>
<a xlink:href="classCBinaryStream.html#aae22e30790460521f9967d2a480d9ee8" target="_top" xlink:title="CBinaryStream::write">
<polygon fill="white" stroke="black" points="473,-61.5 473,-82.5 591,-82.5 591,-61.5 473,-61.5"/>
<text text-anchor="middle" x="532" y="-69.5" font-family="Verdana" font-size="10.00">CBinaryStream::write</text>
</a>
</g>
<!-- Node1&#45;&gt;Node3 -->
<g id="edge4" class="edge"><title>Node1&#45;&gt;Node3</title>
<path fill="none" stroke="midnightblue" d="M125.81,-56.2273C200.036,-52.5246 327.209,-48.5519 436,-57 445.078,-57.7049 454.596,-58.7794 463.964,-60.0363"/>
<polygon fill="midnightblue" stroke="midnightblue" points="463.651,-63.5269 474.043,-61.4629 464.632,-56.596 463.651,-63.5269"/>
</g>
<!-- Node4 -->
<g id="node7" class="node"><title>Node4</title>
<a xlink:href="classCBinaryStream.html#a3dbd7c97a6564a16f8097a863f068f59" target="_top" xlink:title="CBinaryStream::read">
<polygon fill="white" stroke="black" points="473.5,-0.5 473.5,-21.5 590.5,-21.5 590.5,-0.5 473.5,-0.5"/>
<text text-anchor="middle" x="532" y="-8.5" font-family="Verdana" font-size="10.00">CBinaryStream::read</text>
</a>
</g>
<!-- Node1&#45;&gt;Node4 -->
<g id="edge6" class="edge"><title>Node1&#45;&gt;Node4</title>
<path fill="none" stroke="midnightblue" d="M125.558,-52.2157C137.645,-50.7688 150.212,-49.3037 162,-48 266.947,-36.3935 388.823,-24.5148 463.158,-17.4493"/>
<polygon fill="midnightblue" stroke="midnightblue" points="463.7,-20.9137 473.325,-16.4848 463.039,-13.9449 463.7,-20.9137"/>
</g>
<!-- Node5 -->
<g id="node9" class="node"><title>Node5</title>
<a xlink:href="classCAreaConfiguration.html#af6fe64c1853ab6ecc7be1a7348a43aed" target="_top" xlink:title="CAreaConfiguration\l::serialize">
<polygon fill="white" stroke="black" points="162,-66 162,-100 272,-100 272,-66 162,-66"/>
<text text-anchor="start" x="170" y="-87" font-family="Verdana" font-size="10.00">CAreaConfiguration</text>
<text text-anchor="middle" x="217" y="-74" font-family="Verdana" font-size="10.00">::serialize</text>
</a>
</g>
<!-- Node1&#45;&gt;Node5 -->
<g id="edge8" class="edge"><title>Node1&#45;&gt;Node5</title>
<path fill="none" stroke="midnightblue" d="M125.638,-69.355C134.256,-70.6422 143.124,-71.9666 151.788,-73.2605"/>
<polygon fill="midnightblue" stroke="midnightblue" points="151.43,-76.7458 161.837,-74.7614 152.464,-69.8226 151.43,-76.7458"/>
</g>
<!-- Node5&#45;&gt;Node2 -->
<g id="edge18" class="edge"><title>Node5&#45;&gt;Node2</title>
<path fill="none" stroke="midnightblue" d="M270.002,-100.01C282.365,-103.455 295.556,-106.717 308,-109 358.927,-118.344 417.228,-123.106 461.583,-125.526"/>
<polygon fill="midnightblue" stroke="midnightblue" points="461.516,-129.027 471.684,-126.049 461.879,-122.036 461.516,-129.027"/>
</g>
<!-- Node6 -->
<g id="node11" class="node"><title>Node6</title>
<a xlink:href="classCParameterBlackboard.html#ad96ba821eb1035b06a5a30ef7377da39" target="_top" xlink:title="CParameterBlackboard\l::serialize">
<polygon fill="white" stroke="black" points="308.5,-66 308.5,-100 435.5,-100 435.5,-66 308.5,-66"/>
<text text-anchor="start" x="316.5" y="-87" font-family="Verdana" font-size="10.00">CParameterBlackboard</text>
<text text-anchor="middle" x="372" y="-74" font-family="Verdana" font-size="10.00">::serialize</text>
</a>
</g>
<!-- Node5&#45;&gt;Node6 -->
<g id="edge10" class="edge"><title>Node5&#45;&gt;Node6</title>
<path fill="none" stroke="midnightblue" d="M272.084,-83C280.527,-83 289.358,-83 298.128,-83"/>
<polygon fill="midnightblue" stroke="midnightblue" points="298.367,-86.5001 308.367,-83 298.367,-79.5001 298.367,-86.5001"/>
</g>
<!-- Node6&#45;&gt;Node2 -->
<g id="edge12" class="edge"><title>Node6&#45;&gt;Node2</title>
<path fill="none" stroke="midnightblue" d="M432.489,-100.013C449.784,-104.877 468.375,-110.106 484.752,-114.712"/>
<polygon fill="midnightblue" stroke="midnightblue" points="484.058,-118.152 494.632,-117.49 485.953,-111.414 484.058,-118.152"/>
</g>
<!-- Node6&#45;&gt;Node3 -->
<g id="edge14" class="edge"><title>Node6&#45;&gt;Node3</title>
<path fill="none" stroke="midnightblue" d="M435.696,-78.6209C444.624,-78.0071 453.834,-77.3739 462.857,-76.7536"/>
<polygon fill="midnightblue" stroke="midnightblue" points="463.203,-80.2381 472.939,-76.0604 462.723,-73.2546 463.203,-80.2381"/>
</g>
<!-- Node6&#45;&gt;Node4 -->
<g id="edge16" class="edge"><title>Node6&#45;&gt;Node4</title>
<path fill="none" stroke="midnightblue" d="M409.918,-65.937C436.959,-53.7686 472.967,-37.5649 498.86,-25.913"/>
<polygon fill="midnightblue" stroke="midnightblue" points="500.566,-28.9835 508.249,-21.688 497.693,-22.6 500.566,-28.9835"/>
</g>
</g>
</svg>
