<?xml version="1.0" encoding="UTF-8" standalone="no"?>
<!DOCTYPE svg PUBLIC "-//W3C//DTD SVG 1.1//EN"
 "http://www.w3.org/Graphics/SVG/1.1/DTD/svg11.dtd">
<!-- Generated by graphviz version 2.26.3 (20100126.1600)
 -->
<!-- Title: CParameterMgr::getSelectionCriterion Pages: 1 -->
<svg width="670pt" height="94pt"
 viewBox="0.00 0.00 670.00 94.00" xmlns="http://www.w3.org/2000/svg" xmlns:xlink="http://www.w3.org/1999/xlink">
<g id="graph1" class="graph" transform="scale(1 1) rotate(0) translate(4 90)">
<title>CParameterMgr::getSelectionCriterion</title>
<polygon fill="white" stroke="white" points="-4,5 -4,-90 667,-90 667,5 -4,5"/>
<!-- Node1 -->
<g id="node1" class="node"><title>Node1</title>
<polygon fill="#bfbfbf" stroke="black" points="0,-26 0,-60 158,-60 158,-26 0,-26"/>
<text text-anchor="start" x="8" y="-47" font-family="Verdana" font-size="10.00">CParameterMgr::getSelection</text>
<text text-anchor="middle" x="79" y="-34" font-family="Verdana" font-size="10.00">Criterion</text>
</g>
<!-- Node2 -->
<g id="node3" class="node"><title>Node2</title>
<a xlink:href="classCSelectionCriteria.html#ad95866d8f8615b75a6b68daeddb561ad" target="_top" xlink:title="CSelectionCriteria\l::getSelectionCriterion">
<polygon fill="white" stroke="black" points="194.5,-26 194.5,-60 317.5,-60 317.5,-26 194.5,-26"/>
<text text-anchor="start" x="202.5" y="-47" font-family="Verdana" font-size="10.00">CSelectionCriteria</text>
<text text-anchor="middle" x="256" y="-34" font-family="Verdana" font-size="10.00">::getSelectionCriterion</text>
</a>
</g>
<!-- Node1&#45;&gt;Node2 -->
<g id="edge2" class="edge"><title>Node1&#45;&gt;Node2</title>
<path fill="none" stroke="midnightblue" d="M158.181,-43C166.914,-43 175.769,-43 184.402,-43"/>
<polygon fill="midnightblue" stroke="midnightblue" points="184.412,-46.5001 194.412,-43 184.412,-39.5001 184.412,-46.5001"/>
</g>
<!-- Node3 -->
<g id="node5" class="node"><title>Node3</title>
<a xlink:href="classCSelectionCriteria.html#aa87e3488047e305e72d84d5aa0ed3e08" target="_top" xlink:title="CSelectionCriteria\l::getSelectionCriteriaDefinition">
<polygon fill="white" stroke="black" points="354,-52 354,-86 516,-86 516,-52 354,-52"/>
<text text-anchor="start" x="362" y="-73" font-family="Verdana" font-size="10.00">CSelectionCriteria</text>
<text text-anchor="middle" x="435" y="-60" font-family="Verdana" font-size="10.00">::getSelectionCriteriaDefinition</text>
</a>
</g>
<!-- Node2&#45;&gt;Node3 -->
<g id="edge4" class="edge"><title>Node2&#45;&gt;Node3</title>
<path fill="none" stroke="midnightblue" d="M317.602,-51.9477C326.051,-53.1751 334.87,-54.456 343.712,-55.7403"/>
<polygon fill="midnightblue" stroke="midnightblue" points="343.287,-59.2151 353.686,-57.189 344.293,-52.2878 343.287,-59.2151"/>
</g>
<!-- Node5 -->
<g id="node9" class="node"><title>Node5</title>
<a xlink:href="classCSelectionCriteriaDefinition.html#ade9c9f7fe7806988d3d922bf615e5994" target="_top" xlink:title="CSelectionCriteriaDefinition\l::getSelectionCriterion">
<polygon fill="white" stroke="black" points="361.5,-0 361.5,-34 508.5,-34 508.5,-0 361.5,-0"/>
<text text-anchor="start" x="369.5" y="-21" font-family="Verdana" font-size="10.00">CSelectionCriteriaDefinition</text>
<text text-anchor="middle" x="435" y="-8" font-family="Verdana" font-size="10.00">::getSelectionCriterion</text>
</a>
</g>
<!-- Node2&#45;&gt;Node5 -->
<g id="edge8" class="edge"><title>Node2&#45;&gt;Node5</title>
<path fill="none" stroke="midnightblue" d="M317.602,-34.0523C328.474,-32.4731 339.956,-30.8052 351.313,-29.1556"/>
<polygon fill="midnightblue" stroke="midnightblue" points="351.85,-32.6144 361.243,-27.7133 350.844,-25.6871 351.85,-32.6144"/>
</g>
<!-- Node4 -->
<g id="node7" class="node"><title>Node4</title>
<a xlink:href="classCElement.html#a41bf126c3fdbb5bec0c2c3dcf35e9079" target="_top" xlink:title="CElement::getChild">
<polygon fill="white" stroke="black" points="553,-58.5 553,-79.5 661,-79.5 661,-58.5 553,-58.5"/>
<text text-anchor="middle" x="607" y="-66.5" font-family="Verdana" font-size="10.00">CElement::getChild</text>
</a>
</g>
<!-- Node3&#45;&gt;Node4 -->
<g id="edge6" class="edge"><title>Node3&#45;&gt;Node4</title>
<path fill="none" stroke="midnightblue" d="M516.215,-69C524.996,-69 533.844,-69 542.391,-69"/>
<polygon fill="midnightblue" stroke="midnightblue" points="542.642,-72.5001 552.642,-69 542.642,-65.5001 542.642,-72.5001"/>
</g>
<!-- Node6 -->
<g id="node11" class="node"><title>Node6</title>
<a xlink:href="classCElement.html#a8595814a3159f32f874269907e70b260" target="_top" xlink:title="CElement::findChild">
<polygon fill="white" stroke="black" points="552,-6.5 552,-27.5 662,-27.5 662,-6.5 552,-6.5"/>
<text text-anchor="middle" x="607" y="-14.5" font-family="Verdana" font-size="10.00">CElement::findChild</text>
</a>
</g>
<!-- Node5&#45;&gt;Node6 -->
<g id="edge10" class="edge"><title>Node5&#45;&gt;Node6</title>
<path fill="none" stroke="midnightblue" d="M508.942,-17C519.844,-17 531.009,-17 541.719,-17"/>
<polygon fill="midnightblue" stroke="midnightblue" points="541.824,-20.5001 551.824,-17 541.824,-13.5001 541.824,-20.5001"/>
</g>
</g>
</svg>
