<?xml version="1.0" encoding="UTF-8" standalone="no"?>
<!DOCTYPE svg PUBLIC "-//W3C//DTD SVG 1.1//EN"
 "http://www.w3.org/Graphics/SVG/1.1/DTD/svg11.dtd">
<!-- Generated by graphviz version 2.26.3 (20100126.1600)
 -->
<!-- Title: CConfigurableElement::fillSyncerSet Pages: 1 -->
<svg width="556pt" height="134pt"
 viewBox="0.00 0.00 556.00 134.00" xmlns="http://www.w3.org/2000/svg" xmlns:xlink="http://www.w3.org/1999/xlink">
<g id="graph1" class="graph" transform="scale(1 1) rotate(0) translate(4 130)">
<title>CConfigurableElement::fillSyncerSet</title>
<polygon fill="white" stroke="white" points="-4,5 -4,-130 553,-130 553,5 -4,5"/>
<!-- Node1 -->
<g id="node1" class="node"><title>Node1</title>
<polygon fill="#bfbfbf" stroke="black" points="0.5,-46 0.5,-80 123.5,-80 123.5,-46 0.5,-46"/>
<text text-anchor="start" x="8.5" y="-67" font-family="Verdana" font-size="10.00">CConfigurableElement</text>
<text text-anchor="middle" x="62" y="-54" font-family="Verdana" font-size="10.00">::fillSyncerSet</text>
</g>
<!-- Node2 -->
<g id="node3" class="node"><title>Node2</title>
<a xlink:href="classCHardwareBackSynchronizer.html#ad06f7ec68fcd8ce9b878963a39300839" target="_top" xlink:title="CHardwareBackSynchronizer\l::CHardwareBackSynchronizer">
<polygon fill="white" stroke="black" points="176.5,-92 176.5,-126 337.5,-126 337.5,-92 176.5,-92"/>
<text text-anchor="start" x="184.5" y="-113" font-family="Verdana" font-size="10.00">CHardwareBackSynchronizer</text>
<text text-anchor="middle" x="257" y="-100" font-family="Verdana" font-size="10.00">::CHardwareBackSynchronizer</text>
</a>
</g>
<!-- Node1&#45;&gt;Node2 -->
<g id="edge2" class="edge"><title>Node1&#45;&gt;Node2</title>
<path fill="none" stroke="midnightblue" d="M133.886,-79.9577C150.499,-83.8766 168.179,-88.0474 184.805,-91.9693"/>
<polygon fill="midnightblue" stroke="midnightblue" points="134.236,-76.4442 123.699,-77.5547 132.628,-83.2572 134.236,-76.4442"/>
</g>
<!-- Node3 -->
<g id="node5" class="node"><title>Node3</title>
<a xlink:href="classCParameterMgr.html#a3c23f1ef6dbe73de230fe429af194937" target="_top" xlink:title="CParameterMgr::sync">
<polygon fill="white" stroke="black" points="197.5,-52.5 197.5,-73.5 316.5,-73.5 316.5,-52.5 197.5,-52.5"/>
<text text-anchor="middle" x="257" y="-60.5" font-family="Verdana" font-size="10.00">CParameterMgr::sync</text>
</a>
</g>
<!-- Node1&#45;&gt;Node3 -->
<g id="edge4" class="edge"><title>Node1&#45;&gt;Node3</title>
<path fill="none" stroke="midnightblue" d="M133.805,-63C154.706,-63 177.303,-63 197.368,-63"/>
<polygon fill="midnightblue" stroke="midnightblue" points="133.699,-59.5001 123.699,-63 133.699,-66.5001 133.699,-59.5001"/>
</g>
<!-- Node5 -->
<g id="node9" class="node"><title>Node5</title>
<a xlink:href="classCSystemClass.html#ab71ea33fad4ce8978ad2577314146fec" target="_top" xlink:title="Look for subsystems that need to be resynchronized. ">
<polygon fill="white" stroke="black" points="160,-0 160,-34 354,-34 354,-0 160,-0"/>
<text text-anchor="start" x="168" y="-21" font-family="Verdana" font-size="10.00">CSystemClass::checkForSubsystems</text>
<text text-anchor="middle" x="257" y="-8" font-family="Verdana" font-size="10.00">ToResync</text>
</a>
</g>
<!-- Node1&#45;&gt;Node5 -->
<g id="edge8" class="edge"><title>Node1&#45;&gt;Node5</title>
<path fill="none" stroke="midnightblue" d="M133.886,-46.0423C150.499,-42.1234 168.179,-37.9526 184.805,-34.0307"/>
<polygon fill="midnightblue" stroke="midnightblue" points="132.628,-42.7428 123.699,-48.4453 134.236,-49.5558 132.628,-42.7428"/>
</g>
<!-- Node4 -->
<g id="node7" class="node"><title>Node4</title>
<a xlink:href="classCParameterMgr.html#acdcc1016dc61898195e8855979803572" target="_top" xlink:title="Sync. ">
<polygon fill="white" stroke="black" points="390,-52.5 390,-73.5 548,-73.5 548,-52.5 390,-52.5"/>
<text text-anchor="middle" x="469" y="-60.5" font-family="Verdana" font-size="10.00">CParameterMgr::setAutoSync</text>
</a>
</g>
<!-- Node3&#45;&gt;Node4 -->
<g id="edge6" class="edge"><title>Node3&#45;&gt;Node4</title>
<path fill="none" stroke="midnightblue" d="M326.646,-63C346.801,-63 368.95,-63 389.65,-63"/>
<polygon fill="midnightblue" stroke="midnightblue" points="326.618,-59.5001 316.618,-63 326.618,-66.5001 326.618,-59.5001"/>
</g>
</g>
</svg>
