<?xml version="1.0" encoding="UTF-8" standalone="no"?>
<!DOCTYPE svg PUBLIC "-//W3C//DTD SVG 1.1//EN"
 "http://www.w3.org/Graphics/SVG/1.1/DTD/svg11.dtd">
<!-- Generated by graphviz version 2.26.3 (20100126.1600)
 -->
<!-- Title: CConfigurableDomains::createDomain Pages: 1 -->
<svg width="280pt" height="110pt"
 viewBox="0.00 0.00 280.00 110.00" xmlns="http://www.w3.org/2000/svg" xmlns:xlink="http://www.w3.org/1999/xlink">
<g id="graph1" class="graph" transform="scale(1 1) rotate(0) translate(4 106)">
<title>CConfigurableDomains::createDomain</title>
<polygon fill="white" stroke="white" points="-4,5 -4,-106 277,-106 277,5 -4,5"/>
<!-- Node1 -->
<g id="node1" class="node"><title>Node1</title>
<polygon fill="#bfbfbf" stroke="black" points="0,-34 0,-68 126,-68 126,-34 0,-34"/>
<text text-anchor="start" x="8" y="-55" font-family="Verdana" font-size="10.00">CConfigurableDomains</text>
<text text-anchor="middle" x="63" y="-42" font-family="Verdana" font-size="10.00">::createDomain</text>
</g>
<!-- Node2 -->
<g id="node3" class="node"><title>Node2</title>
<a xlink:href="classCElement.html#a8595814a3159f32f874269907e70b260" target="_top" xlink:title="CElement::findChild">
<polygon fill="white" stroke="black" points="162,-80.5 162,-101.5 272,-101.5 272,-80.5 162,-80.5"/>
<text text-anchor="middle" x="217" y="-88.5" font-family="Verdana" font-size="10.00">CElement::findChild</text>
</a>
</g>
<!-- Node1&#45;&gt;Node2 -->
<g id="edge2" class="edge"><title>Node1&#45;&gt;Node2</title>
<path fill="none" stroke="midnightblue" d="M126.082,-67.3849C139.453,-70.8579 153.403,-74.4813 166.246,-77.8172"/>
<polygon fill="midnightblue" stroke="midnightblue" points="165.718,-81.2961 176.277,-80.4226 167.478,-74.521 165.718,-81.2961"/>
</g>
<!-- Node3 -->
<g id="node5" class="node"><title>Node3</title>
<a xlink:href="classCElement.html#aaa4df1b13a53263f8cc2b668172873d9" target="_top" xlink:title="CElement::log_info">
<polygon fill="white" stroke="black" points="164,-40.5 164,-61.5 270,-61.5 270,-40.5 164,-40.5"/>
<text text-anchor="middle" x="217" y="-48.5" font-family="Verdana" font-size="10.00">CElement::log_info</text>
</a>
</g>
<!-- Node1&#45;&gt;Node3 -->
<g id="edge4" class="edge"><title>Node1&#45;&gt;Node3</title>
<path fill="none" stroke="midnightblue" d="M126.082,-51C135.135,-51 144.453,-51 153.514,-51"/>
<polygon fill="midnightblue" stroke="midnightblue" points="153.606,-54.5001 163.606,-51 153.606,-47.5001 153.606,-54.5001"/>
</g>
<!-- Node4 -->
<g id="node7" class="node"><title>Node4</title>
<a xlink:href="classCElement.html#ac2ad66ee438a4a0c1390b7388874fe72" target="_top" xlink:title="CElement::addChild">
<polygon fill="white" stroke="black" points="162,-0.5 162,-21.5 272,-21.5 272,-0.5 162,-0.5"/>
<text text-anchor="middle" x="217" y="-8.5" font-family="Verdana" font-size="10.00">CElement::addChild</text>
</a>
</g>
<!-- Node1&#45;&gt;Node4 -->
<g id="edge6" class="edge"><title>Node1&#45;&gt;Node4</title>
<path fill="none" stroke="midnightblue" d="M126.082,-34.6151C139.453,-31.1421 153.403,-27.5187 166.246,-24.1828"/>
<polygon fill="midnightblue" stroke="midnightblue" points="167.478,-27.479 176.277,-21.5774 165.718,-20.7039 167.478,-27.479"/>
</g>
</g>
</svg>
