<?xml version="1.0" encoding="UTF-8" standalone="no"?>
<!DOCTYPE svg PUBLIC "-//W3C//DTD SVG 1.1//EN"
 "http://www.w3.org/Graphics/SVG/1.1/DTD/svg11.dtd">
<!-- Generated by graphviz version 2.26.3 (20100126.1600)
 -->
<!-- Title: CBitParameterType::toBlackboard Pages: 1 -->
<svg width="286pt" height="82pt"
 viewBox="0.00 0.00 286.00 82.00" xmlns="http://www.w3.org/2000/svg" xmlns:xlink="http://www.w3.org/1999/xlink">
<g id="graph1" class="graph" transform="scale(1 1) rotate(0) translate(4 78)">
<title>CBitParameterType::toBlackboard</title>
<polygon fill="white" stroke="white" points="-4,5 -4,-78 283,-78 283,5 -4,5"/>
<!-- Node1 -->
<g id="node1" class="node"><title>Node1</title>
<polygon fill="#bfbfbf" stroke="black" points="0.5,-17 0.5,-51 113.5,-51 113.5,-17 0.5,-17"/>
<text text-anchor="start" x="8.5" y="-38" font-family="Verdana" font-size="10.00">CBitParameterType::</text>
<text text-anchor="middle" x="57" y="-25" font-family="Verdana" font-size="10.00">toBlackboard</text>
</g>
<!-- Node2 -->
<g id="node3" class="node"><title>Node2</title>
<a xlink:href="classCBitParameterType.html#a869a8ec74c4c3566ea658a01dde70824" target="_top" xlink:title="CBitParameterType::\lgetKind">
<polygon fill="white" stroke="black" points="157.5,-40 157.5,-74 270.5,-74 270.5,-40 157.5,-40"/>
<text text-anchor="start" x="165.5" y="-61" font-family="Verdana" font-size="10.00">CBitParameterType::</text>
<text text-anchor="middle" x="214" y="-48" font-family="Verdana" font-size="10.00">getKind</text>
</a>
</g>
<!-- Node1&#45;&gt;Node2 -->
<g id="edge2" class="edge"><title>Node1&#45;&gt;Node2</title>
<path fill="none" stroke="midnightblue" d="M113.681,-42.3035C124.575,-43.8995 136.078,-45.5846 147.256,-47.2222"/>
<polygon fill="midnightblue" stroke="midnightblue" points="147.001,-50.7221 157.403,-48.7087 148.016,-43.796 147.001,-50.7221"/>
</g>
<!-- Node3 -->
<g id="node5" class="node"><title>Node3</title>
<a xlink:href="classCErrorContext.html#a9d58b281c0d0fc9a6d3b83714cf812ef" target="_top" xlink:title="CErrorContext::setError">
<polygon fill="white" stroke="black" points="150,-0.5 150,-21.5 278,-21.5 278,-0.5 150,-0.5"/>
<text text-anchor="middle" x="214" y="-8.5" font-family="Verdana" font-size="10.00">CErrorContext::setError</text>
</a>
</g>
<!-- Node1&#45;&gt;Node3 -->
<g id="edge4" class="edge"><title>Node1&#45;&gt;Node3</title>
<path fill="none" stroke="midnightblue" d="M113.681,-25.6965C122.232,-24.4437 131.159,-23.136 140.009,-21.8395"/>
<polygon fill="midnightblue" stroke="midnightblue" points="140.557,-25.2966 149.944,-20.384 139.542,-18.3706 140.557,-25.2966"/>
</g>
</g>
</svg>
