<?xml version="1.0" encoding="UTF-8" standalone="no"?>
<!DOCTYPE svg PUBLIC "-//W3C//DTD SVG 1.1//EN"
 "http://www.w3.org/Graphics/SVG/1.1/DTD/svg11.dtd">
<!-- Generated by graphviz version 2.26.3 (20100126.1600)
 -->
<!-- Title: CElement::createChild Pages: 1 -->
<svg width="340pt" height="122pt"
 viewBox="0.00 0.00 340.00 122.00" xmlns="http://www.w3.org/2000/svg" xmlns:xlink="http://www.w3.org/1999/xlink">
<g id="graph1" class="graph" transform="scale(1 1) rotate(0) translate(4 118)">
<title>CElement::createChild</title>
<polygon fill="white" stroke="white" points="-4,5 -4,-118 337,-118 337,5 -4,5"/>
<!-- Node1 -->
<g id="node1" class="node"><title>Node1</title>
<polygon fill="#bfbfbf" stroke="black" points="0.5,-40.5 0.5,-61.5 123.5,-61.5 123.5,-40.5 0.5,-40.5"/>
<text text-anchor="middle" x="62" y="-48.5" font-family="Verdana" font-size="10.00">CElement::createChild</text>
</g>
<!-- Node2 -->
<g id="node3" class="node"><title>Node2</title>
<a xlink:href="classCXmlElementSerializingContext.html#a6c36b7e23b9968c6ea898612d2a55ee9" target="_top" xlink:title="CXmlElementSerializingContext\l::getElementLibrary">
<polygon fill="white" stroke="black" points="162.5,-80 162.5,-114 329.5,-114 329.5,-80 162.5,-80"/>
<text text-anchor="start" x="170.5" y="-101" font-family="Verdana" font-size="10.00">CXmlElementSerializingContext</text>
<text text-anchor="middle" x="246" y="-88" font-family="Verdana" font-size="10.00">::getElementLibrary</text>
</a>
</g>
<!-- Node1&#45;&gt;Node2 -->
<g id="edge2" class="edge"><title>Node1&#45;&gt;Node2</title>
<path fill="none" stroke="midnightblue" d="M104.213,-61.5533C123.075,-66.2688 145.932,-71.983 167.736,-77.434"/>
<polygon fill="midnightblue" stroke="midnightblue" points="167.112,-80.8855 177.662,-79.9155 168.809,-74.0945 167.112,-80.8855"/>
</g>
<!-- Node3 -->
<g id="node5" class="node"><title>Node3</title>
<a xlink:href="classCElementLibrary.html#a5ad95964216e50fc59f0c803370fb4de" target="_top" xlink:title="CElementLibrary::createElement">
<polygon fill="white" stroke="black" points="160.5,-40.5 160.5,-61.5 331.5,-61.5 331.5,-40.5 160.5,-40.5"/>
<text text-anchor="middle" x="246" y="-48.5" font-family="Verdana" font-size="10.00">CElementLibrary::createElement</text>
</a>
</g>
<!-- Node1&#45;&gt;Node3 -->
<g id="edge4" class="edge"><title>Node1&#45;&gt;Node3</title>
<path fill="none" stroke="midnightblue" d="M123.525,-51C132.103,-51 141.078,-51 150.104,-51"/>
<polygon fill="midnightblue" stroke="midnightblue" points="150.298,-54.5001 160.297,-51 150.297,-47.5001 150.298,-54.5001"/>
</g>
<!-- Node4 -->
<g id="node7" class="node"><title>Node4</title>
<a xlink:href="classCElement.html#ac2ad66ee438a4a0c1390b7388874fe72" target="_top" xlink:title="CElement::addChild">
<polygon fill="white" stroke="black" points="191,-0.5 191,-21.5 301,-21.5 301,-0.5 191,-0.5"/>
<text text-anchor="middle" x="246" y="-8.5" font-family="Verdana" font-size="10.00">CElement::addChild</text>
</a>
</g>
<!-- Node1&#45;&gt;Node4 -->
<g id="edge6" class="edge"><title>Node1&#45;&gt;Node4</title>
<path fill="none" stroke="midnightblue" d="M110.344,-40.4905C134.02,-35.3434 162.719,-29.1046 187.611,-23.6933"/>
<polygon fill="midnightblue" stroke="midnightblue" points="188.632,-27.0532 197.66,-21.5087 187.145,-20.213 188.632,-27.0532"/>
</g>
</g>
</svg>
