<?xml version="1.0" encoding="UTF-8" standalone="no"?>
<!DOCTYPE svg PUBLIC "-//W3C//DTD SVG 1.1//EN"
 "http://www.w3.org/Graphics/SVG/1.1/DTD/svg11.dtd">
<!-- Generated by graphviz version 2.26.3 (20100126.1600)
 -->
<!-- Title: CParameterAccessContext::setParameterBlackboard Pages: 1 -->
<svg width="354pt" height="94pt"
 viewBox="0.00 0.00 354.00 94.00" xmlns="http://www.w3.org/2000/svg" xmlns:xlink="http://www.w3.org/1999/xlink">
<g id="graph1" class="graph" transform="scale(1 1) rotate(0) translate(4 90)">
<title>CParameterAccessContext::setParameterBlackboard</title>
<polygon fill="white" stroke="white" points="-4,5 -4,-90 351,-90 351,5 -4,5"/>
<!-- Node1 -->
<g id="node1" class="node"><title>Node1</title>
<polygon fill="#bfbfbf" stroke="black" points="0.5,-26 0.5,-60 145.5,-60 145.5,-26 0.5,-26"/>
<text text-anchor="start" x="8.5" y="-47" font-family="Verdana" font-size="10.00">CParameterAccessContext</text>
<text text-anchor="middle" x="73" y="-34" font-family="Verdana" font-size="10.00">::setParameterBlackboard</text>
</g>
<!-- Node2 -->
<g id="node3" class="node"><title>Node2</title>
<a xlink:href="classCAreaConfiguration.html#a6b8c95a79343ee9823b026d74184e798" target="_top" xlink:title="CAreaConfiguration\l::serializeXmlSettings">
<polygon fill="white" stroke="black" points="204.5,-52 204.5,-86 323.5,-86 323.5,-52 204.5,-52"/>
<text text-anchor="start" x="212.5" y="-73" font-family="Verdana" font-size="10.00">CAreaConfiguration</text>
<text text-anchor="middle" x="264" y="-60" font-family="Verdana" font-size="10.00">::serializeXmlSettings</text>
</a>
</g>
<!-- Node1&#45;&gt;Node2 -->
<g id="edge2" class="edge"><title>Node1&#45;&gt;Node2</title>
<path fill="none" stroke="midnightblue" d="M155.856,-54.2788C172.214,-56.5055 189.075,-58.8008 204.475,-60.8971"/>
<polygon fill="midnightblue" stroke="midnightblue" points="156.135,-50.7845 145.754,-52.9037 155.19,-57.7206 156.135,-50.7845"/>
</g>
<!-- Node3 -->
<g id="node5" class="node"><title>Node3</title>
<a xlink:href="classCSimulatedBackSynchronizer.html#a29b298407c7bccc21caa811d04813bcf" target="_top" xlink:title="CSimulatedBackSynchronizer\l::CSimulatedBackSynchronizer">
<polygon fill="white" stroke="black" points="182,-0 182,-34 346,-34 346,-0 182,-0"/>
<text text-anchor="start" x="190" y="-21" font-family="Verdana" font-size="10.00">CSimulatedBackSynchronizer</text>
<text text-anchor="middle" x="264" y="-8" font-family="Verdana" font-size="10.00">::CSimulatedBackSynchronizer</text>
</a>
</g>
<!-- Node1&#45;&gt;Node3 -->
<g id="edge4" class="edge"><title>Node1&#45;&gt;Node3</title>
<path fill="none" stroke="midnightblue" d="M155.816,-31.7267C164.457,-30.5503 173.239,-29.3548 181.873,-28.1796"/>
<polygon fill="midnightblue" stroke="midnightblue" points="155.19,-28.2794 145.754,-33.0963 156.135,-35.2155 155.19,-28.2794"/>
</g>
</g>
</svg>
