<?xml version="1.0" encoding="UTF-8" standalone="no"?>
<!DOCTYPE svg PUBLIC "-//W3C//DTD SVG 1.1//EN"
 "http://www.w3.org/Graphics/SVG/1.1/DTD/svg11.dtd">
<!-- Generated by graphviz version 2.26.3 (20100126.1600)
 -->
<!-- Title: CElement::removeChild Pages: 1 -->
<svg width="698pt" height="94pt"
 viewBox="0.00 0.00 698.00 94.00" xmlns="http://www.w3.org/2000/svg" xmlns:xlink="http://www.w3.org/1999/xlink">
<g id="graph1" class="graph" transform="scale(1 1) rotate(0) translate(4 90)">
<title>CElement::removeChild</title>
<polygon fill="white" stroke="white" points="-4,5 -4,-90 695,-90 695,5 -4,5"/>
<!-- Node1 -->
<g id="node1" class="node"><title>Node1</title>
<polygon fill="#bfbfbf" stroke="black" points="0.5,-32.5 0.5,-53.5 129.5,-53.5 129.5,-32.5 0.5,-32.5"/>
<text text-anchor="middle" x="65" y="-40.5" font-family="Verdana" font-size="10.00">CElement::removeChild</text>
</g>
<!-- Node2 -->
<g id="node3" class="node"><title>Node2</title>
<a xlink:href="classCConfigurableDomain.html#a5029ae23af30ac7b4f5ba526ac50508f" target="_top" xlink:title="CConfigurableDomain\l::deleteConfiguration">
<polygon fill="white" stroke="black" points="172.5,-52 172.5,-86 293.5,-86 293.5,-52 172.5,-52"/>
<text text-anchor="start" x="180.5" y="-73" font-family="Verdana" font-size="10.00">CConfigurableDomain</text>
<text text-anchor="middle" x="233" y="-60" font-family="Verdana" font-size="10.00">::deleteConfiguration</text>
</a>
</g>
<!-- Node1&#45;&gt;Node2 -->
<g id="edge2" class="edge"><title>Node1&#45;&gt;Node2</title>
<path fill="none" stroke="midnightblue" d="M139.857,-54.585C150.728,-56.2674 161.805,-57.9817 172.349,-59.6135"/>
<polygon fill="midnightblue" stroke="midnightblue" points="140.371,-51.123 129.953,-53.0523 139.3,-58.0406 140.371,-51.123"/>
</g>
<!-- Node5 -->
<g id="node9" class="node"><title>Node5</title>
<a xlink:href="classCXmlFileIncluderElement.html#a754298eb75aacfe300ed3942d51611aa" target="_top" xlink:title="CXmlFileIncluderElement\l::fromXml">
<polygon fill="white" stroke="black" points="166,-0 166,-34 300,-34 300,-0 166,-0"/>
<text text-anchor="start" x="174" y="-21" font-family="Verdana" font-size="10.00">CXmlFileIncluderElement</text>
<text text-anchor="middle" x="233" y="-8" font-family="Verdana" font-size="10.00">::fromXml</text>
</a>
</g>
<!-- Node1&#45;&gt;Node5 -->
<g id="edge8" class="edge"><title>Node1&#45;&gt;Node5</title>
<path fill="none" stroke="midnightblue" d="M140.029,-31.3884C148.681,-30.0493 157.462,-28.6904 165.998,-27.3693"/>
<polygon fill="midnightblue" stroke="midnightblue" points="139.3,-27.9594 129.953,-32.9477 140.371,-34.8771 139.3,-27.9594"/>
</g>
<!-- Node3 -->
<g id="node5" class="node"><title>Node3</title>
<a xlink:href="classCConfigurableDomains.html#a911e0a0a3af2b8cfb630edb899038bbe" target="_top" xlink:title="CConfigurableDomains\l::deleteConfiguration">
<polygon fill="white" stroke="black" points="336,-52 336,-86 462,-86 462,-52 336,-52"/>
<text text-anchor="start" x="344" y="-73" font-family="Verdana" font-size="10.00">CConfigurableDomains</text>
<text text-anchor="middle" x="399" y="-60" font-family="Verdana" font-size="10.00">::deleteConfiguration</text>
</a>
</g>
<!-- Node2&#45;&gt;Node3 -->
<g id="edge4" class="edge"><title>Node2&#45;&gt;Node3</title>
<path fill="none" stroke="midnightblue" d="M303.949,-69C314.572,-69 325.464,-69 335.91,-69"/>
<polygon fill="midnightblue" stroke="midnightblue" points="303.87,-65.5001 293.87,-69 303.87,-72.5001 303.87,-65.5001"/>
</g>
<!-- Node4 -->
<g id="node7" class="node"><title>Node4</title>
<a xlink:href="classCParameterMgr.html#a1bb4638a89187ef50cf3a1aaea566244" target="_top" xlink:title="CParameterMgr::deleteConfiguration">
<polygon fill="white" stroke="black" points="498.5,-58.5 498.5,-79.5 689.5,-79.5 689.5,-58.5 498.5,-58.5"/>
<text text-anchor="middle" x="594" y="-66.5" font-family="Verdana" font-size="10.00">CParameterMgr::deleteConfiguration</text>
</a>
</g>
<!-- Node3&#45;&gt;Node4 -->
<g id="edge6" class="edge"><title>Node3&#45;&gt;Node4</title>
<path fill="none" stroke="midnightblue" d="M472.245,-69C480.731,-69 489.479,-69 498.209,-69"/>
<polygon fill="midnightblue" stroke="midnightblue" points="472.042,-65.5001 462.042,-69 472.042,-72.5001 472.042,-65.5001"/>
</g>
</g>
</svg>
