<?xml version="1.0" encoding="UTF-8" standalone="no"?>
<!DOCTYPE svg PUBLIC "-//W3C//DTD SVG 1.1//EN"
 "http://www.w3.org/Graphics/SVG/1.1/DTD/svg11.dtd">
<!-- Generated by graphviz version 2.26.3 (20100126.1600)
 -->
<!-- Title: CSelectionCriteriaDefinition::resetModifiedStatus Pages: 1 -->
<svg width="312pt" height="42pt"
 viewBox="0.00 0.00 312.00 42.00" xmlns="http://www.w3.org/2000/svg" xmlns:xlink="http://www.w3.org/1999/xlink">
<g id="graph1" class="graph" transform="scale(1 1) rotate(0) translate(4 38)">
<title>CSelectionCriteriaDefinition::resetModifiedStatus</title>
<polygon fill="white" stroke="white" points="-4,5 -4,-38 309,-38 309,5 -4,5"/>
<!-- Node1 -->
<g id="node1" class="node"><title>Node1</title>
<polygon fill="#bfbfbf" stroke="black" points="0.5,-0 0.5,-34 147.5,-34 147.5,-0 0.5,-0"/>
<text text-anchor="start" x="8.5" y="-21" font-family="Verdana" font-size="10.00">CSelectionCriteriaDefinition</text>
<text text-anchor="middle" x="74" y="-8" font-family="Verdana" font-size="10.00">::resetModifiedStatus</text>
</g>
<!-- Node2 -->
<g id="node3" class="node"><title>Node2</title>
<a xlink:href="classCSelectionCriteria.html#a8470a08d025d7d9f06e7f2193bb57a49" target="_top" xlink:title="CSelectionCriteria\l::resetModifiedStatus">
<polygon fill="white" stroke="black" points="184.5,-0 184.5,-34 303.5,-34 303.5,-0 184.5,-0"/>
<text text-anchor="start" x="192.5" y="-21" font-family="Verdana" font-size="10.00">CSelectionCriteria</text>
<text text-anchor="middle" x="244" y="-8" font-family="Verdana" font-size="10.00">::resetModifiedStatus</text>
</a>
</g>
<!-- Node1&#45;&gt;Node2 -->
<g id="edge2" class="edge"><title>Node1&#45;&gt;Node2</title>
<path fill="none" stroke="midnightblue" d="M157.712,-17C166.716,-17 175.739,-17 184.377,-17"/>
<polygon fill="midnightblue" stroke="midnightblue" points="157.576,-13.5001 147.576,-17 157.576,-20.5001 157.576,-13.5001"/>
</g>
</g>
</svg>
