<?xml version="1.0" encoding="UTF-8" standalone="no"?>
<!DOCTYPE svg PUBLIC "-//W3C//DTD SVG 1.1//EN"
 "http://www.w3.org/Graphics/SVG/1.1/DTD/svg11.dtd">
<!-- Generated by graphviz version 2.26.3 (20100126.1600)
 -->
<!-- Title: CElement::getPath Pages: 1 -->
<svg width="800pt" height="871pt"
 viewBox="0.00 0.00 800.00 871.00" xmlns="http://www.w3.org/2000/svg" xmlns:xlink="http://www.w3.org/1999/xlink">
<g id="graph1" class="graph" transform="scale(1 1) rotate(0) translate(4 867)">
<title>CElement::getPath</title>
<polygon fill="white" stroke="white" points="-4,5 -4,-867 797,-867 797,5 -4,5"/>
<!-- Node1 -->
<g id="node1" class="node"><title>Node1</title>
<polygon fill="#bfbfbf" stroke="black" points="0,-320.5 0,-341.5 106,-341.5 106,-320.5 0,-320.5"/>
<text text-anchor="middle" x="53" y="-328.5" font-family="Verdana" font-size="10.00">CElement::getPath</text>
</g>
<!-- Node1&#45;&gt;Node1 -->
<g id="edge62" class="edge"><title>Node1&#45;&gt;Node1</title>
<path fill="none" stroke="midnightblue" d="M18.7636,-350.679C20.5981,-355.975 32.0103,-360 53,-360 84.9844,-360 94.7296,-350.653 82.2357,-341.708"/>
<polygon fill="midnightblue" stroke="midnightblue" points="21.9525,-352.147 23.7643,-341.708 15.8382,-348.738 21.9525,-352.147"/>
</g>
<!-- Node2 -->
<g id="node3" class="node"><title>Node2</title>
<a xlink:href="classCBaseParameter.html#a911cbd2df0c950a79863fdd689731f88" target="_top" xlink:title="Append the parameter path to the error. ">
<polygon fill="white" stroke="black" points="142,-715 142,-749 332,-749 332,-715 142,-715"/>
<text text-anchor="start" x="150" y="-736" font-family="Verdana" font-size="10.00">CBaseParameter::appendParameter</text>
<text text-anchor="middle" x="237" y="-723" font-family="Verdana" font-size="10.00">PathToError</text>
</a>
</g>
<!-- Node1&#45;&gt;Node2 -->
<g id="edge2" class="edge"><title>Node1&#45;&gt;Node2</title>
<path fill="none" stroke="midnightblue" d="M54.8298,-351.854C60.2977,-404.92 80.1739,-547.883 142,-647 159.569,-675.166 189.165,-699.508 210.662,-714.836"/>
<polygon fill="midnightblue" stroke="midnightblue" points="58.2922,-351.295 53.848,-341.678 51.3246,-351.968 58.2922,-351.295"/>
</g>
<!-- Node9 -->
<g id="node18" class="node"><title>Node9</title>
<a xlink:href="classCConfigurableDomain.html#ac200b397f14de19463146c5f75d57020" target="_top" xlink:title="CConfigurableDomain\l::addConfigurableElement">
<polygon fill="white" stroke="black" points="167,-604 167,-638 307,-638 307,-604 167,-604"/>
<text text-anchor="start" x="175" y="-625" font-family="Verdana" font-size="10.00">CConfigurableDomain</text>
<text text-anchor="middle" x="237" y="-612" font-family="Verdana" font-size="10.00">::addConfigurableElement</text>
</a>
</g>
<!-- Node1&#45;&gt;Node9 -->
<g id="edge18" class="edge"><title>Node1&#45;&gt;Node9</title>
<path fill="none" stroke="midnightblue" d="M54.0141,-351.969C57.5231,-400.934 73.1038,-523.733 142,-591 149.054,-597.887 157.676,-603.195 166.819,-607.285"/>
<polygon fill="midnightblue" stroke="midnightblue" points="57.4888,-351.449 53.3816,-341.683 50.502,-351.879 57.4888,-351.449"/>
</g>
<!-- Node12 -->
<g id="node24" class="node"><title>Node12</title>
<a xlink:href="classCConfigurableDomain.html#acf2423f10f9c85b255fb9bade2664801" target="_top" xlink:title="CConfigurableDomain\l::removeConfigurableElement">
<polygon fill="white" stroke="black" points="157.5,-548 157.5,-582 316.5,-582 316.5,-548 157.5,-548"/>
<text text-anchor="start" x="165.5" y="-569" font-family="Verdana" font-size="10.00">CConfigurableDomain</text>
<text text-anchor="middle" x="237" y="-556" font-family="Verdana" font-size="10.00">::removeConfigurableElement</text>
</a>
</g>
<!-- Node1&#45;&gt;Node12 -->
<g id="edge24" class="edge"><title>Node1&#45;&gt;Node12</title>
<path fill="none" stroke="midnightblue" d="M55.8601,-351.89C62.7271,-393.824 84.1009,-488.544 142,-539 146.641,-543.044 151.855,-546.465 157.39,-549.358"/>
<polygon fill="midnightblue" stroke="midnightblue" points="59.3169,-351.34 54.3509,-341.982 52.3967,-352.395 59.3169,-351.34"/>
</g>
<!-- Node15 -->
<g id="node30" class="node"><title>Node15</title>
<a xlink:href="classCConfigurableDomain.html#aea88fe7f6e3f02217f5d9f0e2e820da2" target="_top" xlink:title="CConfigurableDomain\l::split">
<polygon fill="white" stroke="black" points="176.5,-496 176.5,-530 297.5,-530 297.5,-496 176.5,-496"/>
<text text-anchor="start" x="184.5" y="-517" font-family="Verdana" font-size="10.00">CConfigurableDomain</text>
<text text-anchor="middle" x="237" y="-504" font-family="Verdana" font-size="10.00">::split</text>
</a>
</g>
<!-- Node1&#45;&gt;Node15 -->
<g id="edge30" class="edge"><title>Node1&#45;&gt;Node15</title>
<path fill="none" stroke="midnightblue" d="M58.9076,-351.216C69.7354,-384.649 95.9805,-451.303 142,-487 151.998,-494.756 164.154,-500.2 176.385,-504.021"/>
<polygon fill="midnightblue" stroke="midnightblue" points="62.2336,-350.124 55.9283,-341.61 55.5477,-352.198 62.2336,-350.124"/>
</g>
<!-- Node18 -->
<g id="node36" class="node"><title>Node18</title>
<a xlink:href="classCConfigurableDomain.html#ad9a458a6d15b8d7269bef13ffde421eb" target="_top" xlink:title="CConfigurableDomain\l::listAssociatedToElements">
<polygon fill="white" stroke="black" points="165.5,-444 165.5,-478 308.5,-478 308.5,-444 165.5,-444"/>
<text text-anchor="start" x="173.5" y="-465" font-family="Verdana" font-size="10.00">CConfigurableDomain</text>
<text text-anchor="middle" x="237" y="-452" font-family="Verdana" font-size="10.00">::listAssociatedToElements</text>
</a>
</g>
<!-- Node1&#45;&gt;Node18 -->
<g id="edge36" class="edge"><title>Node1&#45;&gt;Node18</title>
<path fill="none" stroke="midnightblue" d="M64.4676,-350.426C79.3713,-373.97 107.602,-413.191 142,-435 149.221,-439.578 157.245,-443.36 165.483,-446.481"/>
<polygon fill="midnightblue" stroke="midnightblue" points="67.305,-348.359 59.0851,-341.674 61.3423,-352.026 67.305,-348.359"/>
</g>
<!-- Node20 -->
<g id="node40" class="node"><title>Node20</title>
<a xlink:href="classCConfigurableDomains.html#ace9ba0ee47d0534f84c0a39451686a48" target="_top" xlink:title="CConfigurableDomains\l::listAssociatedElements">
<polygon fill="white" stroke="black" points="170,-392 170,-426 304,-426 304,-392 170,-392"/>
<text text-anchor="start" x="178" y="-413" font-family="Verdana" font-size="10.00">CConfigurableDomains</text>
<text text-anchor="middle" x="237" y="-400" font-family="Verdana" font-size="10.00">::listAssociatedElements</text>
</a>
</g>
<!-- Node1&#45;&gt;Node20 -->
<g id="edge40" class="edge"><title>Node1&#45;&gt;Node20</title>
<path fill="none" stroke="midnightblue" d="M76.845,-347.251C94.2746,-358.543 118.82,-373.256 142,-383 150.827,-386.711 160.339,-390.043 169.812,-392.983"/>
<polygon fill="midnightblue" stroke="midnightblue" points="78.7001,-344.282 68.4241,-341.703 74.8487,-350.127 78.7001,-344.282"/>
</g>
<!-- Node21 -->
<g id="node42" class="node"><title>Node21</title>
<a xlink:href="classCConfigurableDomains.html#a8aa98ddd65e7d28bbe559ea7a23985d0" target="_top" xlink:title="CConfigurableDomains\l::listConflictingElements">
<polygon fill="white" stroke="black" points="171.5,-340 171.5,-374 302.5,-374 302.5,-340 171.5,-340"/>
<text text-anchor="start" x="179.5" y="-361" font-family="Verdana" font-size="10.00">CConfigurableDomains</text>
<text text-anchor="middle" x="237" y="-348" font-family="Verdana" font-size="10.00">::listConflictingElements</text>
</a>
</g>
<!-- Node1&#45;&gt;Node21 -->
<g id="edge42" class="edge"><title>Node1&#45;&gt;Node21</title>
<path fill="none" stroke="midnightblue" d="M116.478,-339.97C134.249,-342.481 153.595,-345.214 171.481,-347.742"/>
<polygon fill="midnightblue" stroke="midnightblue" points="116.612,-336.454 106.22,-338.52 115.632,-343.385 116.612,-336.454"/>
</g>
<!-- Node22 -->
<g id="node44" class="node"><title>Node22</title>
<a xlink:href="classCConfigurableDomains.html#a181ae71432b21ee3fedb82abb05872e3" target="_top" xlink:title="CConfigurableDomains\l::findConfigurationBlackboard">
<polygon fill="white" stroke="black" points="158.5,-288 158.5,-322 315.5,-322 315.5,-288 158.5,-288"/>
<text text-anchor="start" x="166.5" y="-309" font-family="Verdana" font-size="10.00">CConfigurableDomains</text>
<text text-anchor="middle" x="237" y="-296" font-family="Verdana" font-size="10.00">::findConfigurationBlackboard</text>
</a>
</g>
<!-- Node1&#45;&gt;Node22 -->
<g id="edge44" class="edge"><title>Node1&#45;&gt;Node22</title>
<path fill="none" stroke="midnightblue" d="M116.338,-322.05C129.831,-320.143 144.237,-318.108 158.227,-316.131"/>
<polygon fill="midnightblue" stroke="midnightblue" points="115.632,-318.615 106.22,-323.48 116.612,-325.546 115.632,-318.615"/>
</g>
<!-- Node24 -->
<g id="node48" class="node"><title>Node24</title>
<a xlink:href="classCConfigurableElement.html#a1b28dbdb4a01edd94c1ae8b5e42d76b2" target="_top" xlink:title="CConfigurableElement\l::listRogueElements">
<polygon fill="white" stroke="black" points="175.5,-236 175.5,-270 298.5,-270 298.5,-236 175.5,-236"/>
<text text-anchor="start" x="183.5" y="-257" font-family="Verdana" font-size="10.00">CConfigurableElement</text>
<text text-anchor="middle" x="237" y="-244" font-family="Verdana" font-size="10.00">::listRogueElements</text>
</a>
</g>
<!-- Node1&#45;&gt;Node24 -->
<g id="edge48" class="edge"><title>Node1&#45;&gt;Node24</title>
<path fill="none" stroke="midnightblue" d="M76.845,-314.749C94.2746,-303.457 118.82,-288.744 142,-279 152.561,-274.56 164.102,-270.663 175.385,-267.329"/>
<polygon fill="midnightblue" stroke="midnightblue" points="74.8487,-311.873 68.4241,-320.297 78.7001,-317.718 74.8487,-311.873"/>
</g>
<!-- Node25 -->
<g id="node50" class="node"><title>Node25</title>
<a xlink:href="classCDomainConfiguration.html#afbcd309cfae933c862f24368b5c9eab5" target="_top" xlink:title="CDomainConfiguration\l::parseSettings">
<polygon fill="white" stroke="black" points="174.5,-184 174.5,-218 299.5,-218 299.5,-184 174.5,-184"/>
<text text-anchor="start" x="182.5" y="-205" font-family="Verdana" font-size="10.00">CDomainConfiguration</text>
<text text-anchor="middle" x="237" y="-192" font-family="Verdana" font-size="10.00">::parseSettings</text>
</a>
</g>
<!-- Node1&#45;&gt;Node25 -->
<g id="edge50" class="edge"><title>Node1&#45;&gt;Node25</title>
<path fill="none" stroke="midnightblue" d="M64.4676,-311.574C79.3713,-288.03 107.602,-248.809 142,-227 151.82,-220.774 163.126,-216.021 174.436,-212.398"/>
<polygon fill="midnightblue" stroke="midnightblue" points="61.3423,-309.974 59.0851,-320.326 67.305,-313.641 61.3423,-309.974"/>
</g>
<!-- Node26 -->
<g id="node52" class="node"><title>Node26</title>
<a xlink:href="classCDomainConfiguration.html#a97554abea0968d2e55151302b0260b63" target="_top" xlink:title="CDomainConfiguration\l::composeSettings">
<polygon fill="white" stroke="black" points="174.5,-132 174.5,-166 299.5,-166 299.5,-132 174.5,-132"/>
<text text-anchor="start" x="182.5" y="-153" font-family="Verdana" font-size="10.00">CDomainConfiguration</text>
<text text-anchor="middle" x="237" y="-140" font-family="Verdana" font-size="10.00">::composeSettings</text>
</a>
</g>
<!-- Node1&#45;&gt;Node26 -->
<g id="edge52" class="edge"><title>Node1&#45;&gt;Node26</title>
<path fill="none" stroke="midnightblue" d="M58.9076,-310.784C69.7354,-277.351 95.9805,-210.697 142,-175 151.458,-167.664 162.846,-162.395 174.403,-158.613"/>
<polygon fill="midnightblue" stroke="midnightblue" points="55.5477,-309.802 55.9283,-320.39 62.2336,-311.876 55.5477,-309.802"/>
</g>
<!-- Node27 -->
<g id="node54" class="node"><title>Node27</title>
<a xlink:href="classCDomainConfiguration.html#a144544d874a578524147e8beeeb51047" target="_top" xlink:title="CDomainConfiguration\l::getElementSequence">
<polygon fill="white" stroke="black" points="174,-80 174,-114 300,-114 300,-80 174,-80"/>
<text text-anchor="start" x="182" y="-101" font-family="Verdana" font-size="10.00">CDomainConfiguration</text>
<text text-anchor="middle" x="237" y="-88" font-family="Verdana" font-size="10.00">::getElementSequence</text>
</a>
</g>
<!-- Node1&#45;&gt;Node27 -->
<g id="edge54" class="edge"><title>Node1&#45;&gt;Node27</title>
<path fill="none" stroke="midnightblue" d="M55.8601,-310.11C62.7271,-268.176 84.1009,-173.456 142,-123 151.024,-115.136 162.216,-109.629 173.716,-105.777"/>
<polygon fill="midnightblue" stroke="midnightblue" points="52.3967,-309.605 54.3509,-320.018 59.3169,-310.66 52.3967,-309.605"/>
</g>
<!-- Node30 -->
<g id="node60" class="node"><title>Node30</title>
<a xlink:href="classCElement.html#a1565e8418977482b9b054a93980c2242" target="_top" xlink:title="CElement::listChildrenPaths">
<polygon fill="white" stroke="black" points="163,-40.5 163,-61.5 311,-61.5 311,-40.5 163,-40.5"/>
<text text-anchor="middle" x="237" y="-48.5" font-family="Verdana" font-size="10.00">CElement::listChildrenPaths</text>
</a>
</g>
<!-- Node1&#45;&gt;Node30 -->
<g id="edge60" class="edge"><title>Node1&#45;&gt;Node30</title>
<path fill="none" stroke="midnightblue" d="M57.3473,-310.226C69.4149,-254.521 104.891,-103.827 142,-71 148.06,-65.6397 155.187,-61.5864 162.768,-58.5384"/>
<polygon fill="midnightblue" stroke="midnightblue" points="53.8581,-309.806 55.1936,-320.316 60.7039,-311.267 53.8581,-309.806"/>
</g>
<!-- Node31 -->
<g id="node63" class="node"><title>Node31</title>
<a xlink:href="classCElement.html#a893e7d2d24391fd0279245c7bda1e468" target="_top" xlink:title="CElement::getQualifiedPath">
<polygon fill="white" stroke="black" points="163.5,-0.5 163.5,-21.5 310.5,-21.5 310.5,-0.5 163.5,-0.5"/>
<text text-anchor="middle" x="237" y="-8.5" font-family="Verdana" font-size="10.00">CElement::getQualifiedPath</text>
</a>
</g>
<!-- Node1&#45;&gt;Node31 -->
<g id="edge64" class="edge"><title>Node1&#45;&gt;Node31</title>
<path fill="none" stroke="midnightblue" d="M56.3269,-310.353C66.6179,-249.047 99.7974,-69.9194 142,-31 148.195,-25.2869 155.594,-21.0425 163.491,-17.911"/>
<polygon fill="midnightblue" stroke="midnightblue" points="52.8491,-309.933 54.6747,-320.369 59.7557,-311.072 52.8491,-309.933"/>
</g>
<!-- Node3 -->
<g id="node5" class="node"><title>Node3</title>
<a xlink:href="classCArrayParameter.html#a07b3af958a03b2295be159f69b22d42d" target="_top" xlink:title="CArrayParameter::accessValue">
<polygon fill="white" stroke="black" points="383,-841.5 383,-862.5 547,-862.5 547,-841.5 383,-841.5"/>
<text text-anchor="middle" x="465" y="-849.5" font-family="Verdana" font-size="10.00">CArrayParameter::accessValue</text>
</a>
</g>
<!-- Node2&#45;&gt;Node3 -->
<g id="edge4" class="edge"><title>Node2&#45;&gt;Node3</title>
<path fill="none" stroke="midnightblue" d="M261.428,-756.146C286.191,-779.206 326.653,-813.154 368,-832 376.449,-835.851 385.649,-838.967 394.908,-841.487"/>
<polygon fill="midnightblue" stroke="midnightblue" points="263.627,-753.408 253.959,-749.075 258.815,-758.491 263.627,-753.408"/>
</g>
<!-- Node4 -->
<g id="node7" class="node"><title>Node4</title>
<a xlink:href="classCBaseParameter.html#a97e096908df72fa729a62c3f5c362ddd" target="_top" xlink:title="CBaseParameter::serialize\lXmlSettings">
<polygon fill="white" stroke="black" points="393.5,-789 393.5,-823 536.5,-823 536.5,-789 393.5,-789"/>
<text text-anchor="start" x="401.5" y="-810" font-family="Verdana" font-size="10.00">CBaseParameter::serialize</text>
<text text-anchor="middle" x="465" y="-797" font-family="Verdana" font-size="10.00">XmlSettings</text>
</a>
</g>
<!-- Node2&#45;&gt;Node4 -->
<g id="edge6" class="edge"><title>Node2&#45;&gt;Node4</title>
<path fill="none" stroke="midnightblue" d="M290.129,-752.691C313.799,-761.592 342.122,-771.809 368,-780 377.724,-783.078 388.069,-786.107 398.243,-788.948"/>
<polygon fill="midnightblue" stroke="midnightblue" points="291.22,-749.362 280.629,-749.096 288.743,-755.909 291.22,-749.362"/>
</g>
<!-- Node5 -->
<g id="node9" class="node"><title>Node5</title>
<a xlink:href="classCBaseParameter.html#a2b425561e193a3d54e7225d896a3d39b" target="_top" xlink:title="CBaseParameter::accessAs\lString">
<polygon fill="white" stroke="black" points="390.5,-737 390.5,-771 539.5,-771 539.5,-737 390.5,-737"/>
<text text-anchor="start" x="398.5" y="-758" font-family="Verdana" font-size="10.00">CBaseParameter::accessAs</text>
<text text-anchor="middle" x="465" y="-745" font-family="Verdana" font-size="10.00">String</text>
</a>
</g>
<!-- Node2&#45;&gt;Node5 -->
<g id="edge8" class="edge"><title>Node2&#45;&gt;Node5</title>
<path fill="none" stroke="midnightblue" d="M342.114,-742.143C358.361,-743.71 374.85,-745.301 390.25,-746.787"/>
<polygon fill="midnightblue" stroke="midnightblue" points="342.331,-738.647 332.042,-741.171 341.659,-745.615 342.331,-738.647"/>
</g>
<!-- Node7 -->
<g id="node13" class="node"><title>Node7</title>
<a xlink:href="classCBitParameter.html#a2e0ed93baec3479a9b92314818433a31" target="_top" xlink:title="Value access. ">
<polygon fill="white" stroke="black" points="607,-679.5 607,-700.5 783,-700.5 783,-679.5 607,-679.5"/>
<text text-anchor="middle" x="695" y="-687.5" font-family="Verdana" font-size="10.00">CBitParameter::accessAsBoolean</text>
</a>
</g>
<!-- Node2&#45;&gt;Node7 -->
<g id="edge12" class="edge"><title>Node2&#45;&gt;Node7</title>
<path fill="none" stroke="midnightblue" d="M342.293,-722.344C422.414,-714.997 531.403,-705.002 606.93,-698.076"/>
<polygon fill="midnightblue" stroke="midnightblue" points="341.815,-718.873 332.176,-723.272 342.454,-725.844 341.815,-718.873"/>
</g>
<!-- Node8 -->
<g id="node15" class="node"><title>Node8</title>
<a xlink:href="classCBitParameter.html#a6f4d06e327fb0b816c08e383177a82fc" target="_top" xlink:title="CBitParameter::accessAsInteger">
<polygon fill="white" stroke="black" points="379.5,-659.5 379.5,-680.5 550.5,-680.5 550.5,-659.5 379.5,-659.5"/>
<text text-anchor="middle" x="465" y="-667.5" font-family="Verdana" font-size="10.00">CBitParameter::accessAsInteger</text>
</a>
</g>
<!-- Node2&#45;&gt;Node8 -->
<g id="edge14" class="edge"><title>Node2&#45;&gt;Node8</title>
<path fill="none" stroke="midnightblue" d="M305.914,-712.214C325.914,-706.559 347.805,-700.454 368,-695 385.964,-690.149 405.857,-684.985 422.928,-680.618"/>
<polygon fill="midnightblue" stroke="midnightblue" points="304.93,-708.855 296.263,-714.949 306.839,-715.59 304.93,-708.855"/>
</g>
<!-- Node6 -->
<g id="node11" class="node"><title>Node6</title>
<a xlink:href="classCBaseParameter.html#a4a9b3e3a2d1ea65a8dc7048559db8dc2" target="_top" xlink:title="CBaseParameter::accessValue">
<polygon fill="white" stroke="black" points="613.5,-743.5 613.5,-764.5 776.5,-764.5 776.5,-743.5 613.5,-743.5"/>
<text text-anchor="middle" x="695" y="-751.5" font-family="Verdana" font-size="10.00">CBaseParameter::accessValue</text>
</a>
</g>
<!-- Node5&#45;&gt;Node6 -->
<g id="edge10" class="edge"><title>Node5&#45;&gt;Node6</title>
<path fill="none" stroke="midnightblue" d="M549.719,-754C570.438,-754 592.569,-754 613.15,-754"/>
<polygon fill="midnightblue" stroke="midnightblue" points="549.674,-750.5 539.674,-754 549.674,-757.5 549.674,-750.5"/>
</g>
<!-- Node8&#45;&gt;Node7 -->
<g id="edge16" class="edge"><title>Node8&#45;&gt;Node7</title>
<path fill="none" stroke="midnightblue" d="M560.65,-678.317C575.999,-679.652 591.821,-681.028 606.98,-682.346"/>
<polygon fill="midnightblue" stroke="midnightblue" points="560.909,-674.827 550.644,-677.447 560.303,-681.8 560.909,-674.827"/>
</g>
<!-- Node10 -->
<g id="node20" class="node"><title>Node10</title>
<a xlink:href="classCConfigurableDomains.html#a5ef1a732092a341b147eca23da2f9476" target="_top" xlink:title="CConfigurableDomains\l::addConfigurableElementToDomain">
<polygon fill="white" stroke="black" points="371,-607 371,-641 559,-641 559,-607 371,-607"/>
<text text-anchor="start" x="379" y="-628" font-family="Verdana" font-size="10.00">CConfigurableDomains</text>
<text text-anchor="middle" x="465" y="-615" font-family="Verdana" font-size="10.00">::addConfigurableElementToDomain</text>
</a>
</g>
<!-- Node9&#45;&gt;Node10 -->
<g id="edge20" class="edge"><title>Node9&#45;&gt;Node10</title>
<path fill="none" stroke="midnightblue" d="M317.279,-622.056C334.526,-622.283 352.906,-622.525 370.632,-622.758"/>
<polygon fill="midnightblue" stroke="midnightblue" points="317.313,-618.557 307.268,-621.925 317.221,-625.556 317.313,-618.557"/>
</g>
<!-- Node11 -->
<g id="node22" class="node"><title>Node11</title>
<a xlink:href="classCParameterMgr.html#ae9941471fb32f02b3620cf46cd13ebbb" target="_top" xlink:title="CParameterMgr::addConfigurable\lElementToDomain">
<polygon fill="white" stroke="black" points="607,-607 607,-641 783,-641 783,-607 607,-607"/>
<text text-anchor="start" x="615" y="-628" font-family="Verdana" font-size="10.00">CParameterMgr::addConfigurable</text>
<text text-anchor="middle" x="695" y="-615" font-family="Verdana" font-size="10.00">ElementToDomain</text>
</a>
</g>
<!-- Node10&#45;&gt;Node11 -->
<g id="edge22" class="edge"><title>Node10&#45;&gt;Node11</title>
<path fill="none" stroke="midnightblue" d="M569.244,-624C581.812,-624 594.552,-624 606.858,-624"/>
<polygon fill="midnightblue" stroke="midnightblue" points="569.213,-620.5 559.213,-624 569.213,-627.5 569.213,-620.5"/>
</g>
<!-- Node13 -->
<g id="node26" class="node"><title>Node13</title>
<a xlink:href="classCConfigurableDomains.html#ac5e3f505c51b2b016614aa460597fd59" target="_top" xlink:title="CConfigurableDomains\l::removeConfigurableElement\lFromDomain">
<polygon fill="white" stroke="black" points="385.5,-541.5 385.5,-588.5 544.5,-588.5 544.5,-541.5 385.5,-541.5"/>
<text text-anchor="start" x="393.5" y="-575.5" font-family="Verdana" font-size="10.00">CConfigurableDomains</text>
<text text-anchor="start" x="393.5" y="-562.5" font-family="Verdana" font-size="10.00">::removeConfigurableElement</text>
<text text-anchor="middle" x="465" y="-549.5" font-family="Verdana" font-size="10.00">FromDomain</text>
</a>
</g>
<!-- Node12&#45;&gt;Node13 -->
<g id="edge26" class="edge"><title>Node12&#45;&gt;Node13</title>
<path fill="none" stroke="midnightblue" d="M326.75,-565C346.08,-565 366.386,-565 385.302,-565"/>
<polygon fill="midnightblue" stroke="midnightblue" points="326.743,-561.5 316.743,-565 326.743,-568.5 326.743,-561.5"/>
</g>
<!-- Node14 -->
<g id="node28" class="node"><title>Node14</title>
<a xlink:href="classCParameterMgr.html#a4f307490c67f2dde0b08e638500dd5d4" target="_top" xlink:title="CParameterMgr::removeConfigurable\lElementFromDomain">
<polygon fill="white" stroke="black" points="598,-548 598,-582 792,-582 792,-548 598,-548"/>
<text text-anchor="start" x="606" y="-569" font-family="Verdana" font-size="10.00">CParameterMgr::removeConfigurable</text>
<text text-anchor="middle" x="695" y="-556" font-family="Verdana" font-size="10.00">ElementFromDomain</text>
</a>
</g>
<!-- Node13&#45;&gt;Node14 -->
<g id="edge28" class="edge"><title>Node13&#45;&gt;Node14</title>
<path fill="none" stroke="midnightblue" d="M554.951,-565C569.042,-565 583.66,-565 597.902,-565"/>
<polygon fill="midnightblue" stroke="midnightblue" points="554.797,-561.5 544.797,-565 554.797,-568.5 554.797,-561.5"/>
</g>
<!-- Node16 -->
<g id="node32" class="node"><title>Node16</title>
<a xlink:href="classCConfigurableDomains.html#ae01182802f0ce424d239ea19f9365330" target="_top" xlink:title="CConfigurableDomains\l::split">
<polygon fill="white" stroke="black" points="402,-489 402,-523 528,-523 528,-489 402,-489"/>
<text text-anchor="start" x="410" y="-510" font-family="Verdana" font-size="10.00">CConfigurableDomains</text>
<text text-anchor="middle" x="465" y="-497" font-family="Verdana" font-size="10.00">::split</text>
</a>
</g>
<!-- Node15&#45;&gt;Node16 -->
<g id="edge32" class="edge"><title>Node15&#45;&gt;Node16</title>
<path fill="none" stroke="midnightblue" d="M307.522,-510.835C337.653,-509.91 372.55,-508.838 401.825,-507.94"/>
<polygon fill="midnightblue" stroke="midnightblue" points="307.389,-507.337 297.501,-511.143 307.604,-514.334 307.389,-507.337"/>
</g>
<!-- Node17 -->
<g id="node34" class="node"><title>Node17</title>
<a xlink:href="classCParameterMgr.html#a042735242f31241743085d2d9d7edcc5" target="_top" xlink:title="CParameterMgr::split">
<polygon fill="white" stroke="black" points="636.5,-495.5 636.5,-516.5 753.5,-516.5 753.5,-495.5 636.5,-495.5"/>
<text text-anchor="middle" x="695" y="-503.5" font-family="Verdana" font-size="10.00">CParameterMgr::split</text>
</a>
</g>
<!-- Node16&#45;&gt;Node17 -->
<g id="edge34" class="edge"><title>Node16&#45;&gt;Node17</title>
<path fill="none" stroke="midnightblue" d="M538.25,-506C569.924,-506 606.488,-506 636.33,-506"/>
<polygon fill="midnightblue" stroke="midnightblue" points="538.153,-502.5 528.153,-506 538.153,-509.5 538.153,-502.5"/>
</g>
<!-- Node19 -->
<g id="node38" class="node"><title>Node19</title>
<a xlink:href="classCConfigurableDomains.html#a9bd88d865d285a699d7b03d558ce9ea2" target="_top" xlink:title="CConfigurableDomains\l::listDomainElements">
<polygon fill="white" stroke="black" points="402,-437 402,-471 528,-471 528,-437 402,-437"/>
<text text-anchor="start" x="410" y="-458" font-family="Verdana" font-size="10.00">CConfigurableDomains</text>
<text text-anchor="middle" x="465" y="-445" font-family="Verdana" font-size="10.00">::listDomainElements</text>
</a>
</g>
<!-- Node18&#45;&gt;Node19 -->
<g id="edge38" class="edge"><title>Node18&#45;&gt;Node19</title>
<path fill="none" stroke="midnightblue" d="M318.839,-458.487C346.158,-457.649 376.16,-456.728 401.836,-455.939"/>
<polygon fill="midnightblue" stroke="midnightblue" points="318.403,-454.999 308.515,-458.804 318.618,-461.996 318.403,-454.999"/>
</g>
<!-- Node23 -->
<g id="node46" class="node"><title>Node23</title>
<a xlink:href="classCParameterMgr.html#a25055f536c2d537e86852c87a4e1a061" target="_top" xlink:title="CParameterMgr::accessConfiguration\lValue">
<polygon fill="white" stroke="black" points="368,-288 368,-322 562,-322 562,-288 368,-288"/>
<text text-anchor="start" x="376" y="-309" font-family="Verdana" font-size="10.00">CParameterMgr::accessConfiguration</text>
<text text-anchor="middle" x="465" y="-296" font-family="Verdana" font-size="10.00">Value</text>
</a>
</g>
<!-- Node22&#45;&gt;Node23 -->
<g id="edge46" class="edge"><title>Node22&#45;&gt;Node23</title>
<path fill="none" stroke="midnightblue" d="M326.106,-305C339.749,-305 353.892,-305 367.702,-305"/>
<polygon fill="midnightblue" stroke="midnightblue" points="325.784,-301.5 315.784,-305 325.784,-308.5 325.784,-301.5"/>
</g>
<!-- Node28 -->
<g id="node56" class="node"><title>Node28</title>
<a xlink:href="classCConfigurableDomain.html#ac8d7bf149040aabe342c300b3f2683a6" target="_top" xlink:title="CConfigurableDomain\l::getElementSequence">
<polygon fill="white" stroke="black" points="402,-80 402,-114 528,-114 528,-80 402,-80"/>
<text text-anchor="start" x="410" y="-101" font-family="Verdana" font-size="10.00">CConfigurableDomain</text>
<text text-anchor="middle" x="465" y="-88" font-family="Verdana" font-size="10.00">::getElementSequence</text>
</a>
</g>
<!-- Node27&#45;&gt;Node28 -->
<g id="edge56" class="edge"><title>Node27&#45;&gt;Node28</title>
<path fill="none" stroke="midnightblue" d="M310.419,-97C339.819,-97 373.361,-97 401.669,-97"/>
<polygon fill="midnightblue" stroke="midnightblue" points="310.208,-93.5001 300.208,-97 310.208,-100.5 310.208,-93.5001"/>
</g>
<!-- Node29 -->
<g id="node58" class="node"><title>Node29</title>
<a xlink:href="classCConfigurableDomains.html#a0ed279dec1b574701cd94a6449a295e6" target="_top" xlink:title="CConfigurableDomains\l::getElementSequence">
<polygon fill="white" stroke="black" points="632,-80 632,-114 758,-114 758,-80 632,-80"/>
<text text-anchor="start" x="640" y="-101" font-family="Verdana" font-size="10.00">CConfigurableDomains</text>
<text text-anchor="middle" x="695" y="-88" font-family="Verdana" font-size="10.00">::getElementSequence</text>
</a>
</g>
<!-- Node28&#45;&gt;Node29 -->
<g id="edge58" class="edge"><title>Node28&#45;&gt;Node29</title>
<path fill="none" stroke="midnightblue" d="M538.198,-97C568.364,-97 602.973,-97 631.988,-97"/>
<polygon fill="midnightblue" stroke="midnightblue" points="538.153,-93.5001 528.153,-97 538.153,-100.5 538.153,-93.5001"/>
</g>
<!-- Node32 -->
<g id="node65" class="node"><title>Node32</title>
<a xlink:href="classCElement.html#a740c0b65f45d681c3d87196d72dd578c" target="_top" xlink:title="CElement::listQualifiedPaths">
<polygon fill="white" stroke="black" points="390,-0.5 390,-21.5 540,-21.5 540,-0.5 390,-0.5"/>
<text text-anchor="middle" x="465" y="-8.5" font-family="Verdana" font-size="10.00">CElement::listQualifiedPaths</text>
</a>
</g>
<!-- Node31&#45;&gt;Node32 -->
<g id="edge66" class="edge"><title>Node31&#45;&gt;Node32</title>
<path fill="none" stroke="midnightblue" d="M320.966,-11C343.579,-11 367.889,-11 389.98,-11"/>
<polygon fill="midnightblue" stroke="midnightblue" points="320.71,-7.5001 310.71,-11 320.71,-14.5001 320.71,-7.5001"/>
</g>
<!-- Node32&#45;&gt;Node32 -->
<g id="edge68" class="edge"><title>Node32&#45;&gt;Node32</title>
<path fill="none" stroke="midnightblue" d="M422.251,-29.032C422.104,-35.117 436.354,-40 465,-40 504.855,-40 516.843,-30.5478 500.963,-21.5571"/>
<polygon fill="midnightblue" stroke="midnightblue" points="424.907,-31.3139 429.037,-21.5571 419.724,-26.6089 424.907,-31.3139"/>
</g>
</g>
</svg>
