<?xml version="1.0" encoding="UTF-8" standalone="no"?>
<!DOCTYPE svg PUBLIC "-//W3C//DTD SVG 1.1//EN"
 "http://www.w3.org/Graphics/SVG/1.1/DTD/svg11.dtd">
<!-- Generated by graphviz version 2.26.3 (20100126.1600)
 -->
<!-- Title: CConfigurableElement::belongsTo Pages: 1 -->
<svg width="768pt" height="94pt"
 viewBox="0.00 0.00 768.00 94.00" xmlns="http://www.w3.org/2000/svg" xmlns:xlink="http://www.w3.org/1999/xlink">
<g id="graph1" class="graph" transform="scale(1 1) rotate(0) translate(4 90)">
<title>CConfigurableElement::belongsTo</title>
<polygon fill="white" stroke="white" points="-4,5 -4,-90 765,-90 765,5 -4,5"/>
<!-- Node1 -->
<g id="node1" class="node"><title>Node1</title>
<polygon fill="#bfbfbf" stroke="black" points="0.5,-26 0.5,-60 123.5,-60 123.5,-26 0.5,-26"/>
<text text-anchor="start" x="8.5" y="-47" font-family="Verdana" font-size="10.00">CConfigurableElement</text>
<text text-anchor="middle" x="62" y="-34" font-family="Verdana" font-size="10.00">::belongsTo</text>
</g>
<!-- Node2 -->
<g id="node3" class="node"><title>Node2</title>
<a xlink:href="classCConfigurableDomain.html#ac200b397f14de19463146c5f75d57020" target="_top" xlink:title="CConfigurableDomain\l::addConfigurableElement">
<polygon fill="white" stroke="black" points="169,-52 169,-86 309,-86 309,-52 169,-52"/>
<text text-anchor="start" x="177" y="-73" font-family="Verdana" font-size="10.00">CConfigurableDomain</text>
<text text-anchor="middle" x="239" y="-60" font-family="Verdana" font-size="10.00">::addConfigurableElement</text>
</a>
</g>
<!-- Node1&#45;&gt;Node2 -->
<g id="edge2" class="edge"><title>Node1&#45;&gt;Node2</title>
<path fill="none" stroke="midnightblue" d="M133.941,-53.5676C145.498,-55.2652 157.446,-57.0203 168.958,-58.7113"/>
<polygon fill="midnightblue" stroke="midnightblue" points="134.309,-50.0841 123.906,-52.0935 133.291,-57.0098 134.309,-50.0841"/>
</g>
<!-- Node5 -->
<g id="node9" class="node"><title>Node5</title>
<a xlink:href="classCConfigurableDomains.html#a181ae71432b21ee3fedb82abb05872e3" target="_top" xlink:title="CConfigurableDomains\l::findConfigurationBlackboard">
<polygon fill="white" stroke="black" points="160.5,-0 160.5,-34 317.5,-34 317.5,-0 160.5,-0"/>
<text text-anchor="start" x="168.5" y="-21" font-family="Verdana" font-size="10.00">CConfigurableDomains</text>
<text text-anchor="middle" x="239" y="-8" font-family="Verdana" font-size="10.00">::findConfigurationBlackboard</text>
</a>
</g>
<!-- Node1&#45;&gt;Node5 -->
<g id="edge8" class="edge"><title>Node1&#45;&gt;Node5</title>
<path fill="none" stroke="midnightblue" d="M133.974,-32.4275C142.655,-31.1523 151.556,-29.8449 160.326,-28.5566"/>
<polygon fill="midnightblue" stroke="midnightblue" points="133.291,-28.9902 123.906,-33.9065 134.309,-35.9159 133.291,-28.9902"/>
</g>
<!-- Node3 -->
<g id="node5" class="node"><title>Node3</title>
<a xlink:href="classCConfigurableDomains.html#a5ef1a732092a341b147eca23da2f9476" target="_top" xlink:title="CConfigurableDomains\l::addConfigurableElementToDomain">
<polygon fill="white" stroke="black" points="357,-52 357,-86 545,-86 545,-52 357,-52"/>
<text text-anchor="start" x="365" y="-73" font-family="Verdana" font-size="10.00">CConfigurableDomains</text>
<text text-anchor="middle" x="451" y="-60" font-family="Verdana" font-size="10.00">::addConfigurableElementToDomain</text>
</a>
</g>
<!-- Node2&#45;&gt;Node3 -->
<g id="edge4" class="edge"><title>Node2&#45;&gt;Node3</title>
<path fill="none" stroke="midnightblue" d="M319.204,-69C331.503,-69 344.295,-69 356.862,-69"/>
<polygon fill="midnightblue" stroke="midnightblue" points="319.004,-65.5001 309.004,-69 319.004,-72.5001 319.004,-65.5001"/>
</g>
<!-- Node4 -->
<g id="node7" class="node"><title>Node4</title>
<a xlink:href="classCParameterMgr.html#ae9941471fb32f02b3620cf46cd13ebbb" target="_top" xlink:title="CParameterMgr::addConfigurable\lElementToDomain">
<polygon fill="white" stroke="black" points="584,-52 584,-86 760,-86 760,-52 584,-52"/>
<text text-anchor="start" x="592" y="-73" font-family="Verdana" font-size="10.00">CParameterMgr::addConfigurable</text>
<text text-anchor="middle" x="672" y="-60" font-family="Verdana" font-size="10.00">ElementToDomain</text>
</a>
</g>
<!-- Node3&#45;&gt;Node4 -->
<g id="edge6" class="edge"><title>Node3&#45;&gt;Node4</title>
<path fill="none" stroke="midnightblue" d="M555.299,-69C564.784,-69 574.33,-69 583.657,-69"/>
<polygon fill="midnightblue" stroke="midnightblue" points="555.044,-65.5001 545.044,-69 555.044,-72.5001 555.044,-65.5001"/>
</g>
<!-- Node6 -->
<g id="node11" class="node"><title>Node6</title>
<a xlink:href="classCParameterMgr.html#a25055f536c2d537e86852c87a4e1a061" target="_top" xlink:title="CParameterMgr::accessConfiguration\lValue">
<polygon fill="white" stroke="black" points="354,-0 354,-34 548,-34 548,-0 354,-0"/>
<text text-anchor="start" x="362" y="-21" font-family="Verdana" font-size="10.00">CParameterMgr::accessConfiguration</text>
<text text-anchor="middle" x="451" y="-8" font-family="Verdana" font-size="10.00">Value</text>
</a>
</g>
<!-- Node5&#45;&gt;Node6 -->
<g id="edge10" class="edge"><title>Node5&#45;&gt;Node6</title>
<path fill="none" stroke="midnightblue" d="M327.683,-17C336.312,-17 345.099,-17 353.805,-17"/>
<polygon fill="midnightblue" stroke="midnightblue" points="327.64,-13.5001 317.64,-17 327.64,-20.5001 327.64,-13.5001"/>
</g>
</g>
</svg>
