<?xml version="1.0" encoding="UTF-8" standalone="no"?>
<!DOCTYPE svg PUBLIC "-//W3C//DTD SVG 1.1//EN"
 "http://www.w3.org/Graphics/SVG/1.1/DTD/svg11.dtd">
<!-- Generated by graphviz version 2.26.3 (20100126.1600)
 -->
<!-- Title: CInstanceDefinition::createInstances Pages: 1 -->
<svg width="464pt" height="150pt"
 viewBox="0.00 0.00 464.00 150.00" xmlns="http://www.w3.org/2000/svg" xmlns:xlink="http://www.w3.org/1999/xlink">
<g id="graph1" class="graph" transform="scale(1 1) rotate(0) translate(4 146)">
<title>CInstanceDefinition::createInstances</title>
<polygon fill="white" stroke="white" points="-4,5 -4,-146 461,-146 461,5 -4,5"/>
<!-- Node1 -->
<g id="node1" class="node"><title>Node1</title>
<polygon fill="#bfbfbf" stroke="black" points="0.5,-34 0.5,-68 109.5,-68 109.5,-34 0.5,-34"/>
<text text-anchor="start" x="8.5" y="-55" font-family="Verdana" font-size="10.00">CInstanceDefinition</text>
<text text-anchor="middle" x="55" y="-42" font-family="Verdana" font-size="10.00">::createInstances</text>
</g>
<!-- Node2 -->
<g id="node3" class="node"><title>Node2</title>
<a xlink:href="classCTypeElement.html#a7cdfd91a35b67d17fb2c92f8a2883854" target="_top" xlink:title="CTypeElement::populate">
<polygon fill="white" stroke="black" points="146,-40.5 146,-61.5 278,-61.5 278,-40.5 146,-40.5"/>
<text text-anchor="middle" x="212" y="-48.5" font-family="Verdana" font-size="10.00">CTypeElement::populate</text>
</a>
</g>
<!-- Node1&#45;&gt;Node2 -->
<g id="edge2" class="edge"><title>Node1&#45;&gt;Node2</title>
<path fill="none" stroke="midnightblue" d="M109.911,-51C118.237,-51 126.953,-51 135.634,-51"/>
<polygon fill="midnightblue" stroke="midnightblue" points="135.784,-54.5001 145.784,-51 135.784,-47.5001 135.784,-54.5001"/>
</g>
<!-- Node3 -->
<g id="node5" class="node"><title>Node3</title>
<a xlink:href="classCElement.html#a25f58d9d8b35e770806d669fb2a378e4" target="_top" xlink:title="CElement::getNbChildren">
<polygon fill="white" stroke="black" points="316.5,-120.5 316.5,-141.5 453.5,-141.5 453.5,-120.5 316.5,-120.5"/>
<text text-anchor="middle" x="385" y="-128.5" font-family="Verdana" font-size="10.00">CElement::getNbChildren</text>
</a>
</g>
<!-- Node2&#45;&gt;Node3 -->
<g id="edge4" class="edge"><title>Node2&#45;&gt;Node3</title>
<path fill="none" stroke="midnightblue" d="M227.24,-61.6627C246.625,-74.8172 281.496,-97.1366 314,-111 319.433,-113.317 325.214,-115.449 331.039,-117.386"/>
<polygon fill="midnightblue" stroke="midnightblue" points="330.244,-120.805 340.834,-120.462 332.342,-114.127 330.244,-120.805"/>
</g>
<!-- Node4 -->
<g id="node7" class="node"><title>Node4</title>
<a xlink:href="classCElement.html#a41bf126c3fdbb5bec0c2c3dcf35e9079" target="_top" xlink:title="CElement::getChild">
<polygon fill="white" stroke="black" points="331,-80.5 331,-101.5 439,-101.5 439,-80.5 331,-80.5"/>
<text text-anchor="middle" x="385" y="-88.5" font-family="Verdana" font-size="10.00">CElement::getChild</text>
</a>
</g>
<!-- Node2&#45;&gt;Node4 -->
<g id="edge6" class="edge"><title>Node2&#45;&gt;Node4</title>
<path fill="none" stroke="midnightblue" d="M257.454,-61.5095C279.616,-66.6337 306.458,-72.8399 329.789,-78.2345"/>
<polygon fill="midnightblue" stroke="midnightblue" points="329.018,-81.6485 339.55,-80.4913 330.595,-74.8285 329.018,-81.6485"/>
</g>
<!-- Node5 -->
<g id="node9" class="node"><title>Node5</title>
<a xlink:href="classCTypeElement.html#a0fd0b5dfb3e3515ff5b54eda3d7e0a45" target="_top" xlink:title="CTypeElement::instantiate">
<polygon fill="white" stroke="black" points="314.5,-40.5 314.5,-61.5 455.5,-61.5 455.5,-40.5 314.5,-40.5"/>
<text text-anchor="middle" x="385" y="-48.5" font-family="Verdana" font-size="10.00">CTypeElement::instantiate</text>
</a>
</g>
<!-- Node2&#45;&gt;Node5 -->
<g id="edge8" class="edge"><title>Node2&#45;&gt;Node5</title>
<path fill="none" stroke="midnightblue" d="M278.392,-44.4148C286.884,-44.2733 295.65,-44.2229 304.338,-44.2637"/>
<polygon fill="midnightblue" stroke="midnightblue" points="304.448,-47.7647 314.478,-44.3534 304.51,-40.765 304.448,-47.7647"/>
</g>
<!-- Node6 -->
<g id="node12" class="node"><title>Node6</title>
<a xlink:href="classCElement.html#ac2ad66ee438a4a0c1390b7388874fe72" target="_top" xlink:title="CElement::addChild">
<polygon fill="white" stroke="black" points="330,-0.5 330,-21.5 440,-21.5 440,-0.5 330,-0.5"/>
<text text-anchor="middle" x="385" y="-8.5" font-family="Verdana" font-size="10.00">CElement::addChild</text>
</a>
</g>
<!-- Node2&#45;&gt;Node6 -->
<g id="edge12" class="edge"><title>Node2&#45;&gt;Node6</title>
<path fill="none" stroke="midnightblue" d="M257.454,-40.4905C279.616,-35.3663 306.458,-29.1601 329.789,-23.7655"/>
<polygon fill="midnightblue" stroke="midnightblue" points="330.595,-27.1715 339.55,-21.5087 329.018,-20.3515 330.595,-27.1715"/>
</g>
<!-- Node5&#45;&gt;Node2 -->
<g id="edge10" class="edge"><title>Node5&#45;&gt;Node2</title>
<path fill="none" stroke="midnightblue" d="M314.478,-57.6466C305.907,-57.7587 297.118,-57.7797 288.466,-57.7095"/>
<polygon fill="midnightblue" stroke="midnightblue" points="288.434,-54.2089 278.392,-57.5852 288.348,-61.2084 288.434,-54.2089"/>
</g>
</g>
</svg>
