<?xml version="1.0" encoding="UTF-8" standalone="no"?>
<!DOCTYPE svg PUBLIC "-//W3C//DTD SVG 1.1//EN"
 "http://www.w3.org/Graphics/SVG/1.1/DTD/svg11.dtd">
<!-- Generated by graphviz version 2.26.3 (20100126.1600)
 -->
<!-- Title: CAreaConfiguration::isValid Pages: 1 -->
<svg width="662pt" height="108pt"
 viewBox="0.00 0.00 662.00 108.00" xmlns="http://www.w3.org/2000/svg" xmlns:xlink="http://www.w3.org/1999/xlink">
<g id="graph1" class="graph" transform="scale(1 1) rotate(0) translate(4 104)">
<title>CAreaConfiguration::isValid</title>
<polygon fill="white" stroke="white" points="-4,5 -4,-104 659,-104 659,5 -4,5"/>
<!-- Node1 -->
<g id="node1" class="node"><title>Node1</title>
<polygon fill="#bfbfbf" stroke="black" points="0,-37 0,-71 110,-71 110,-37 0,-37"/>
<text text-anchor="start" x="8" y="-58" font-family="Verdana" font-size="10.00">CAreaConfiguration</text>
<text text-anchor="middle" x="55" y="-45" font-family="Verdana" font-size="10.00">::isValid</text>
</g>
<!-- Node2 -->
<g id="node3" class="node"><title>Node2</title>
<a xlink:href="classCAreaConfiguration.html#ad655f6277ec602be7fb9ce0f586555df" target="_top" xlink:title="CAreaConfiguration\l::validateAgainst">
<polygon fill="white" stroke="black" points="154,-64 154,-98 264,-98 264,-64 154,-64"/>
<text text-anchor="start" x="162" y="-85" font-family="Verdana" font-size="10.00">CAreaConfiguration</text>
<text text-anchor="middle" x="209" y="-72" font-family="Verdana" font-size="10.00">::validateAgainst</text>
</a>
</g>
<!-- Node1&#45;&gt;Node2 -->
<g id="edge2" class="edge"><title>Node1&#45;&gt;Node2</title>
<path fill="none" stroke="midnightblue" d="M120.326,-65.4533C131.527,-67.4172 143.066,-69.4401 153.964,-71.3508"/>
<polygon fill="midnightblue" stroke="midnightblue" points="120.617,-61.9509 110.163,-63.6714 119.408,-68.8458 120.617,-61.9509"/>
</g>
<!-- Node4 -->
<g id="node7" class="node"><title>Node4</title>
<a xlink:href="classCDomainConfiguration.html#ad5929cbe47434a4b6c9195c0a27723f6" target="_top" xlink:title="CDomainConfiguration\l::isValid">
<polygon fill="white" stroke="black" points="146.5,-10 146.5,-44 271.5,-44 271.5,-10 146.5,-10"/>
<text text-anchor="start" x="154.5" y="-31" font-family="Verdana" font-size="10.00">CDomainConfiguration</text>
<text text-anchor="middle" x="209" y="-18" font-family="Verdana" font-size="10.00">::isValid</text>
</a>
</g>
<!-- Node1&#45;&gt;Node4 -->
<g id="edge6" class="edge"><title>Node1&#45;&gt;Node4</title>
<path fill="none" stroke="midnightblue" d="M120.214,-42.5663C128.88,-41.0471 137.749,-39.4921 146.369,-37.9807"/>
<polygon fill="midnightblue" stroke="midnightblue" points="119.408,-39.1542 110.163,-44.3286 120.617,-46.0491 119.408,-39.1542"/>
</g>
<!-- Node3 -->
<g id="node5" class="node"><title>Node3</title>
<a xlink:href="classCDomainConfiguration.html#aecafa324a80383a35a5fb9a52b9b01c0" target="_top" xlink:title="CDomainConfiguration\l::validateAgainst">
<polygon fill="white" stroke="black" points="317.5,-66 317.5,-100 442.5,-100 442.5,-66 317.5,-66"/>
<text text-anchor="start" x="325.5" y="-87" font-family="Verdana" font-size="10.00">CDomainConfiguration</text>
<text text-anchor="middle" x="380" y="-74" font-family="Verdana" font-size="10.00">::validateAgainst</text>
</a>
</g>
<!-- Node2&#45;&gt;Node3 -->
<g id="edge4" class="edge"><title>Node2&#45;&gt;Node3</title>
<path fill="none" stroke="midnightblue" d="M274.188,-81.7624C288.34,-81.9279 303.279,-82.1027 317.331,-82.267"/>
<polygon fill="midnightblue" stroke="midnightblue" points="274.087,-78.2611 264.047,-81.6438 274.005,-85.2606 274.087,-78.2611"/>
</g>
<!-- Node5 -->
<g id="node9" class="node"><title>Node5</title>
<a xlink:href="classCConfigurableDomain.html#ace240c416bae0554c2168c1b6e5d0d79" target="_top" xlink:title="CConfigurableDomain\l::isApplicableConfiguration\lValid">
<polygon fill="white" stroke="black" points="308.5,-0.5 308.5,-47.5 451.5,-47.5 451.5,-0.5 308.5,-0.5"/>
<text text-anchor="start" x="316.5" y="-34.5" font-family="Verdana" font-size="10.00">CConfigurableDomain</text>
<text text-anchor="start" x="316.5" y="-21.5" font-family="Verdana" font-size="10.00">::isApplicableConfiguration</text>
<text text-anchor="middle" x="380" y="-8.5" font-family="Verdana" font-size="10.00">Valid</text>
</a>
</g>
<!-- Node4&#45;&gt;Node5 -->
<g id="edge8" class="edge"><title>Node4&#45;&gt;Node5</title>
<path fill="none" stroke="midnightblue" d="M281.885,-25.7213C290.648,-25.5676 299.592,-25.4107 308.338,-25.2572"/>
<polygon fill="midnightblue" stroke="midnightblue" points="281.64,-22.225 271.703,-25.8999 281.763,-29.2239 281.64,-22.225"/>
</g>
<!-- Node6 -->
<g id="node11" class="node"><title>Node6</title>
<a xlink:href="classCConfigurableElement.html#a711b8af1b9aac12e57244f2edbe916e9" target="_top" xlink:title="CConfigurableElement\l::hasNoValidDomainAssociated">
<polygon fill="white" stroke="black" points="488,-7 488,-41 654,-41 654,-7 488,-7"/>
<text text-anchor="start" x="496" y="-28" font-family="Verdana" font-size="10.00">CConfigurableElement</text>
<text text-anchor="middle" x="571" y="-15" font-family="Verdana" font-size="10.00">::hasNoValidDomainAssociated</text>
</a>
</g>
<!-- Node5&#45;&gt;Node6 -->
<g id="edge10" class="edge"><title>Node5&#45;&gt;Node6</title>
<path fill="none" stroke="midnightblue" d="M461.683,-24C470.292,-24 479.054,-24 487.682,-24"/>
<polygon fill="midnightblue" stroke="midnightblue" points="461.665,-20.5001 451.665,-24 461.665,-27.5001 461.665,-20.5001"/>
</g>
</g>
</svg>
