<?xml version="1.0" encoding="UTF-8" standalone="no"?>
<!DOCTYPE svg PUBLIC "-//W3C//DTD SVG 1.1//EN"
 "http://www.w3.org/Graphics/SVG/1.1/DTD/svg11.dtd">
<!-- Generated by graphviz version 2.26.3 (20100126.1600)
 -->
<!-- Title: CParameterAccessContext Pages: 1 -->
<svg width="166pt" height="146pt"
 viewBox="0.00 0.00 166.00 146.00" xmlns="http://www.w3.org/2000/svg" xmlns:xlink="http://www.w3.org/1999/xlink">
<g id="graph1" class="graph" transform="scale(1 1) rotate(0) translate(4 142)">
<title>CParameterAccessContext</title>
<polygon fill="white" stroke="white" points="-4,5 -4,-142 163,-142 163,5 -4,5"/>
<!-- Node1 -->
<g id="node1" class="node"><title>Node1</title>
<polygon fill="#bfbfbf" stroke="black" points="6.5,-58.5 6.5,-79.5 151.5,-79.5 151.5,-58.5 6.5,-58.5"/>
<text text-anchor="middle" x="79" y="-66.5" font-family="Verdana" font-size="10.00">CParameterAccessContext</text>
</g>
<!-- Node3 -->
<g id="node5" class="node"><title>Node3</title>
<a xlink:href="classCConfigurationAccessContext.html" target="_top" xlink:title="CConfigurationAccessContext">
<polygon fill="white" stroke="black" points="0,-0.5 0,-21.5 158,-21.5 158,-0.5 0,-0.5"/>
<text text-anchor="middle" x="79" y="-8.5" font-family="Verdana" font-size="10.00">CConfigurationAccessContext</text>
</a>
</g>
<!-- Node1&#45;&gt;Node3 -->
<g id="edge4" class="edge"><title>Node1&#45;&gt;Node3</title>
<path fill="none" stroke="midnightblue" d="M79,-48.1906C79,-39.1684 79,-28.9941 79,-21.5707"/>
<polygon fill="midnightblue" stroke="midnightblue" points="75.5001,-48.3619 79,-58.3619 82.5001,-48.3619 75.5001,-48.3619"/>
</g>
<!-- Node2 -->
<g id="node2" class="node"><title>Node2</title>
<a xlink:href="classCErrorContext.html" target="_top" xlink:title="CErrorContext">
<polygon fill="white" stroke="black" points="37,-116.5 37,-137.5 121,-137.5 121,-116.5 37,-116.5"/>
<text text-anchor="middle" x="79" y="-124.5" font-family="Verdana" font-size="10.00">CErrorContext</text>
</a>
</g>
<!-- Node2&#45;&gt;Node1 -->
<g id="edge2" class="edge"><title>Node2&#45;&gt;Node1</title>
<path fill="none" stroke="midnightblue" d="M79,-106.191C79,-97.1684 79,-86.9941 79,-79.5707"/>
<polygon fill="midnightblue" stroke="midnightblue" points="75.5001,-106.362 79,-116.362 82.5001,-106.362 75.5001,-106.362"/>
</g>
</g>
</svg>
