<?xml version="1.0" encoding="UTF-8" standalone="no"?>
<!DOCTYPE svg PUBLIC "-//W3C//DTD SVG 1.1//EN"
 "http://www.w3.org/Graphics/SVG/1.1/DTD/svg11.dtd">
<!-- Generated by graphviz version 2.26.3 (20100126.1600)
 -->
<!-- Title: CConfigurableDomains::deleteConfiguration Pages: 1 -->
<svg width="474pt" height="150pt"
 viewBox="0.00 0.00 474.00 150.00" xmlns="http://www.w3.org/2000/svg" xmlns:xlink="http://www.w3.org/1999/xlink">
<g id="graph1" class="graph" transform="scale(1 1) rotate(0) translate(4 146)">
<title>CConfigurableDomains::deleteConfiguration</title>
<polygon fill="white" stroke="white" points="-4,5 -4,-146 471,-146 471,5 -4,5"/>
<!-- Node1 -->
<g id="node1" class="node"><title>Node1</title>
<polygon fill="#bfbfbf" stroke="black" points="0,-74 0,-108 126,-108 126,-74 0,-74"/>
<text text-anchor="start" x="8" y="-95" font-family="Verdana" font-size="10.00">CConfigurableDomains</text>
<text text-anchor="middle" x="63" y="-82" font-family="Verdana" font-size="10.00">::deleteConfiguration</text>
</g>
<!-- Node2 -->
<g id="node3" class="node"><title>Node2</title>
<a xlink:href="classCConfigurableDomains.html#a4dce38a1560b6e33871d3fa2d85cc449" target="_top" xlink:title="CConfigurableDomains\l::findConfigurableDomain">
<polygon fill="white" stroke="black" points="162.5,-107 162.5,-141 299.5,-141 299.5,-107 162.5,-107"/>
<text text-anchor="start" x="170.5" y="-128" font-family="Verdana" font-size="10.00">CConfigurableDomains</text>
<text text-anchor="middle" x="231" y="-115" font-family="Verdana" font-size="10.00">::findConfigurableDomain</text>
</a>
</g>
<!-- Node1&#45;&gt;Node2 -->
<g id="edge2" class="edge"><title>Node1&#45;&gt;Node2</title>
<path fill="none" stroke="midnightblue" d="M126.035,-103.382C134.626,-105.069 143.53,-106.818 152.355,-108.552"/>
<polygon fill="midnightblue" stroke="midnightblue" points="151.777,-112.005 162.264,-110.498 153.126,-105.136 151.777,-112.005"/>
</g>
<!-- Node4 -->
<g id="node7" class="node"><title>Node4</title>
<a xlink:href="classCConfigurableDomain.html#a5029ae23af30ac7b4f5ba526ac50508f" target="_top" xlink:title="CConfigurableDomain\l::deleteConfiguration">
<polygon fill="white" stroke="black" points="170.5,-41 170.5,-75 291.5,-75 291.5,-41 170.5,-41"/>
<text text-anchor="start" x="178.5" y="-62" font-family="Verdana" font-size="10.00">CConfigurableDomain</text>
<text text-anchor="middle" x="231" y="-49" font-family="Verdana" font-size="10.00">::deleteConfiguration</text>
</a>
</g>
<!-- Node1&#45;&gt;Node4 -->
<g id="edge6" class="edge"><title>Node1&#45;&gt;Node4</title>
<path fill="none" stroke="midnightblue" d="M126.035,-78.6181C137.269,-76.4115 149.037,-74.0998 160.464,-71.8552"/>
<polygon fill="midnightblue" stroke="midnightblue" points="161.259,-75.2662 170.396,-69.9043 159.909,-68.3974 161.259,-75.2662"/>
</g>
<!-- Node3 -->
<g id="node5" class="node"><title>Node3</title>
<a xlink:href="classCElement.html#a8595814a3159f32f874269907e70b260" target="_top" xlink:title="CElement::findChild">
<polygon fill="white" stroke="black" points="346,-120.5 346,-141.5 456,-141.5 456,-120.5 346,-120.5"/>
<text text-anchor="middle" x="401" y="-128.5" font-family="Verdana" font-size="10.00">CElement::findChild</text>
</a>
</g>
<!-- Node2&#45;&gt;Node3 -->
<g id="edge4" class="edge"><title>Node2&#45;&gt;Node3</title>
<path fill="none" stroke="midnightblue" d="M299.655,-126.827C311.558,-127.317 323.905,-127.826 335.715,-128.312"/>
<polygon fill="midnightblue" stroke="midnightblue" points="335.794,-131.818 345.93,-128.732 336.082,-124.824 335.794,-131.818"/>
</g>
<!-- Node5 -->
<g id="node9" class="node"><title>Node5</title>
<a xlink:href="classCElement.html#aaa4df1b13a53263f8cc2b668172873d9" target="_top" xlink:title="CElement::log_info">
<polygon fill="white" stroke="black" points="348,-80.5 348,-101.5 454,-101.5 454,-80.5 348,-80.5"/>
<text text-anchor="middle" x="401" y="-88.5" font-family="Verdana" font-size="10.00">CElement::log_info</text>
</a>
</g>
<!-- Node4&#45;&gt;Node5 -->
<g id="edge8" class="edge"><title>Node4&#45;&gt;Node5</title>
<path fill="none" stroke="midnightblue" d="M291.894,-69.8205C306.756,-72.7056 322.691,-75.7988 337.664,-78.7054"/>
<polygon fill="midnightblue" stroke="midnightblue" points="337.368,-82.2132 347.852,-80.683 338.702,-75.3415 337.368,-82.2132"/>
</g>
<!-- Node6 -->
<g id="node11" class="node"><title>Node6</title>
<a xlink:href="classCElement.html#a49581fb6412e29e932962acd82d52d6a" target="_top" xlink:title="CElement::getName">
<polygon fill="white" stroke="black" points="344,-40.5 344,-61.5 458,-61.5 458,-40.5 344,-40.5"/>
<text text-anchor="middle" x="401" y="-48.5" font-family="Verdana" font-size="10.00">CElement::getName</text>
</a>
</g>
<!-- Node4&#45;&gt;Node6 -->
<g id="edge10" class="edge"><title>Node4&#45;&gt;Node6</title>
<path fill="none" stroke="midnightblue" d="M291.894,-55.4926C305.408,-54.9362 319.808,-54.3432 333.566,-53.7767"/>
<polygon fill="midnightblue" stroke="midnightblue" points="334.089,-57.2582 343.936,-53.3497 333.801,-50.2642 334.089,-57.2582"/>
</g>
<!-- Node7 -->
<g id="node13" class="node"><title>Node7</title>
<a xlink:href="classCElement.html#a4aec98bde47367325cf332a5dc471eb9" target="_top" xlink:title="CElement::removeChild">
<polygon fill="white" stroke="black" points="336.5,-0.5 336.5,-21.5 465.5,-21.5 465.5,-0.5 336.5,-0.5"/>
<text text-anchor="middle" x="401" y="-8.5" font-family="Verdana" font-size="10.00">CElement::removeChild</text>
</a>
</g>
<!-- Node4&#45;&gt;Node7 -->
<g id="edge12" class="edge"><title>Node4&#45;&gt;Node7</title>
<path fill="none" stroke="midnightblue" d="M291.894,-41.1647C312.095,-35.5795 334.277,-29.4469 353.335,-24.1781"/>
<polygon fill="midnightblue" stroke="midnightblue" points="354.283,-27.5473 362.988,-21.5091 352.417,-20.8005 354.283,-27.5473"/>
</g>
</g>
</svg>
