<?xml version="1.0" encoding="UTF-8" standalone="no"?>
<!DOCTYPE svg PUBLIC "-//W3C//DTD SVG 1.1//EN"
 "http://www.w3.org/Graphics/SVG/1.1/DTD/svg11.dtd">
<!-- Generated by graphviz version 2.26.3 (20100126.1600)
 -->
<!-- Title: CConfigurableDomain::getPendingConfigurationName Pages: 1 -->
<svg width="376pt" height="42pt"
 viewBox="0.00 0.00 376.00 42.00" xmlns="http://www.w3.org/2000/svg" xmlns:xlink="http://www.w3.org/1999/xlink">
<g id="graph1" class="graph" transform="scale(1 1) rotate(0) translate(4 38)">
<title>CConfigurableDomain::getPendingConfigurationName</title>
<polygon fill="white" stroke="white" points="-4,5 -4,-38 373,-38 373,5 -4,5"/>
<!-- Node1 -->
<g id="node1" class="node"><title>Node1</title>
<polygon fill="#bfbfbf" stroke="black" points="0,-0 0,-34 170,-34 170,-0 0,-0"/>
<text text-anchor="start" x="8" y="-21" font-family="Verdana" font-size="10.00">CConfigurableDomain</text>
<text text-anchor="middle" x="85" y="-8" font-family="Verdana" font-size="10.00">::getPendingConfigurationName</text>
</g>
<!-- Node2 -->
<g id="node3" class="node"><title>Node2</title>
<a xlink:href="classCConfigurableDomains.html#a46ceaaf62295c80f621e2476a83352b1" target="_top" xlink:title="CConfigurableDomains\l::listLastAppliedConfigurations">
<polygon fill="white" stroke="black" points="206.5,-0 206.5,-34 367.5,-34 367.5,-0 206.5,-0"/>
<text text-anchor="start" x="214.5" y="-21" font-family="Verdana" font-size="10.00">CConfigurableDomains</text>
<text text-anchor="middle" x="287" y="-8" font-family="Verdana" font-size="10.00">::listLastAppliedConfigurations</text>
</a>
</g>
<!-- Node1&#45;&gt;Node2 -->
<g id="edge2" class="edge"><title>Node1&#45;&gt;Node2</title>
<path fill="none" stroke="midnightblue" d="M180.236,-17C188.923,-17 197.666,-17 206.208,-17"/>
<polygon fill="midnightblue" stroke="midnightblue" points="180.081,-13.5001 170.081,-17 180.081,-20.5001 180.081,-13.5001"/>
</g>
</g>
</svg>
