<?xml version="1.0" encoding="UTF-8" standalone="no"?>
<!DOCTYPE svg PUBLIC "-//W3C//DTD SVG 1.1//EN"
 "http://www.w3.org/Graphics/SVG/1.1/DTD/svg11.dtd">
<!-- Generated by graphviz version 2.26.3 (20100126.1600)
 -->
<!-- Title: CSelectionCriterionRule::dump Pages: 1 -->
<svg width="286pt" height="82pt"
 viewBox="0.00 0.00 286.00 82.00" xmlns="http://www.w3.org/2000/svg" xmlns:xlink="http://www.w3.org/1999/xlink">
<g id="graph1" class="graph" transform="scale(1 1) rotate(0) translate(4 78)">
<title>CSelectionCriterionRule::dump</title>
<polygon fill="white" stroke="white" points="-4,5 -4,-78 283,-78 283,5 -4,5"/>
<!-- Node1 -->
<g id="node1" class="node"><title>Node1</title>
<polygon fill="#bfbfbf" stroke="black" points="0,-23 0,-57 128,-57 128,-23 0,-23"/>
<text text-anchor="start" x="8" y="-44" font-family="Verdana" font-size="10.00">CSelectionCriterionRule</text>
<text text-anchor="middle" x="64" y="-31" font-family="Verdana" font-size="10.00">::dump</text>
</g>
<!-- Node2 -->
<g id="node3" class="node"><title>Node2</title>
<a xlink:href="classCElement.html#a49581fb6412e29e932962acd82d52d6a" target="_top" xlink:title="CElement::getName">
<polygon fill="white" stroke="black" points="164,-52.5 164,-73.5 278,-73.5 278,-52.5 164,-52.5"/>
<text text-anchor="middle" x="221" y="-60.5" font-family="Verdana" font-size="10.00">CElement::getName</text>
</a>
</g>
<!-- Node1&#45;&gt;Node2 -->
<g id="edge2" class="edge"><title>Node1&#45;&gt;Node2</title>
<path fill="none" stroke="midnightblue" d="M128.311,-49.4213C136.619,-50.6385 145.147,-51.8877 153.504,-53.1121"/>
<polygon fill="midnightblue" stroke="midnightblue" points="153.187,-56.6029 163.589,-54.5894 154.202,-49.6768 153.187,-56.6029"/>
</g>
<!-- Node3 -->
<g id="node5" class="node"><title>Node3</title>
<a xlink:href="classCSelectionCriterion.html#a3551b612a002f7cc311f21be1685f794" target="_top" xlink:title="CSelectionCriterion\l::getCriterionType">
<polygon fill="white" stroke="black" points="167,-0 167,-34 275,-34 275,-0 167,-0"/>
<text text-anchor="start" x="175" y="-21" font-family="Verdana" font-size="10.00">CSelectionCriterion</text>
<text text-anchor="middle" x="221" y="-8" font-family="Verdana" font-size="10.00">::getCriterionType</text>
</a>
</g>
<!-- Node1&#45;&gt;Node3 -->
<g id="edge4" class="edge"><title>Node1&#45;&gt;Node3</title>
<path fill="none" stroke="midnightblue" d="M128.311,-30.5787C137.639,-29.2121 147.244,-27.805 156.575,-26.4381"/>
<polygon fill="midnightblue" stroke="midnightblue" points="157.179,-29.8871 166.566,-24.9744 156.164,-22.961 157.179,-29.8871"/>
</g>
</g>
</svg>
