<?xml version="1.0" encoding="UTF-8" standalone="no"?>
<!DOCTYPE svg PUBLIC "-//W3C//DTD SVG 1.1//EN"
 "http://www.w3.org/Graphics/SVG/1.1/DTD/svg11.dtd">
<!-- Generated by graphviz version 2.26.3 (20100126.1600)
 -->
<!-- Title: CSubsystemElementBuilder::createElement Pages: 1 -->
<svg width="532pt" height="42pt"
 viewBox="0.00 0.00 532.00 42.00" xmlns="http://www.w3.org/2000/svg" xmlns:xlink="http://www.w3.org/1999/xlink">
<g id="graph1" class="graph" transform="scale(1 1) rotate(0) translate(4 38)">
<title>CSubsystemElementBuilder::createElement</title>
<polygon fill="white" stroke="white" points="-4,5 -4,-38 529,-38 529,5 -4,5"/>
<!-- Node1 -->
<g id="node1" class="node"><title>Node1</title>
<polygon fill="#bfbfbf" stroke="black" points="0,-0 0,-34 150,-34 150,-0 0,-0"/>
<text text-anchor="start" x="8" y="-21" font-family="Verdana" font-size="10.00">CSubsystemElementBuilder</text>
<text text-anchor="middle" x="75" y="-8" font-family="Verdana" font-size="10.00">::createElement</text>
</g>
<!-- Node2 -->
<g id="node3" class="node"><title>Node2</title>
<a xlink:href="classCDefaultElementLibrary.html#a77f617162a83a4129d8355b4299b13ec" target="_top" xlink:title="Create and return an element instanciated depending on an xmlElement. ">
<polygon fill="white" stroke="black" points="186,-0 186,-34 316,-34 316,-0 186,-0"/>
<text text-anchor="start" x="194" y="-21" font-family="Verdana" font-size="10.00">CDefaultElementLibrary</text>
<text text-anchor="middle" x="251" y="-8" font-family="Verdana" font-size="10.00">::createElement</text>
</a>
</g>
<!-- Node1&#45;&gt;Node2 -->
<g id="edge2" class="edge"><title>Node1&#45;&gt;Node2</title>
<path fill="none" stroke="midnightblue" d="M150.15,-17C158.586,-17 167.183,-17 175.621,-17"/>
<polygon fill="midnightblue" stroke="midnightblue" points="175.815,-20.5001 185.815,-17 175.815,-13.5001 175.815,-20.5001"/>
</g>
<!-- Node3 -->
<g id="node5" class="node"><title>Node3</title>
<a xlink:href="classCElementLibrary.html#a5ad95964216e50fc59f0c803370fb4de" target="_top" xlink:title="CElementLibrary::createElement">
<polygon fill="white" stroke="black" points="352.5,-6.5 352.5,-27.5 523.5,-27.5 523.5,-6.5 352.5,-6.5"/>
<text text-anchor="middle" x="438" y="-14.5" font-family="Verdana" font-size="10.00">CElementLibrary::createElement</text>
</a>
</g>
<!-- Node2&#45;&gt;Node3 -->
<g id="edge4" class="edge"><title>Node2&#45;&gt;Node3</title>
<path fill="none" stroke="midnightblue" d="M316.141,-17C324.642,-17 333.488,-17 342.36,-17"/>
<polygon fill="midnightblue" stroke="midnightblue" points="342.371,-20.5001 352.371,-17 342.371,-13.5001 342.371,-20.5001"/>
</g>
</g>
</svg>
