<?xml version="1.0" encoding="UTF-8" standalone="no"?>
<!DOCTYPE svg PUBLIC "-//W3C//DTD SVG 1.1//EN"
 "http://www.w3.org/Graphics/SVG/1.1/DTD/svg11.dtd">
<!-- Generated by graphviz version 2.26.3 (20100126.1600)
 -->
<!-- Title: CAreaConfiguration::copyToOuter Pages: 1 -->
<svg width="280pt" height="42pt"
 viewBox="0.00 0.00 280.00 42.00" xmlns="http://www.w3.org/2000/svg" xmlns:xlink="http://www.w3.org/1999/xlink">
<g id="graph1" class="graph" transform="scale(1 1) rotate(0) translate(4 38)">
<title>CAreaConfiguration::copyToOuter</title>
<polygon fill="white" stroke="white" points="-4,5 -4,-38 277,-38 277,5 -4,5"/>
<!-- Node1 -->
<g id="node1" class="node"><title>Node1</title>
<polygon fill="#bfbfbf" stroke="black" points="0,-0 0,-34 110,-34 110,-0 0,-0"/>
<text text-anchor="start" x="8" y="-21" font-family="Verdana" font-size="10.00">CAreaConfiguration</text>
<text text-anchor="middle" x="55" y="-8" font-family="Verdana" font-size="10.00">::copyToOuter</text>
</g>
<!-- Node2 -->
<g id="node3" class="node"><title>Node2</title>
<a xlink:href="classCDomainConfiguration.html#ade8c66e62cc6a64ad6e1066f4a57eaa2" target="_top" xlink:title="CDomainConfiguration\l::merge">
<polygon fill="white" stroke="black" points="146.5,-0 146.5,-34 271.5,-34 271.5,-0 146.5,-0"/>
<text text-anchor="start" x="154.5" y="-21" font-family="Verdana" font-size="10.00">CDomainConfiguration</text>
<text text-anchor="middle" x="209" y="-8" font-family="Verdana" font-size="10.00">::merge</text>
</a>
</g>
<!-- Node1&#45;&gt;Node2 -->
<g id="edge2" class="edge"><title>Node1&#45;&gt;Node2</title>
<path fill="none" stroke="midnightblue" d="M120.214,-17C128.88,-17 137.749,-17 146.369,-17"/>
<polygon fill="midnightblue" stroke="midnightblue" points="120.163,-13.5001 110.163,-17 120.163,-20.5001 120.163,-13.5001"/>
</g>
</g>
</svg>
