<?xml version="1.0" encoding="UTF-8" standalone="no"?>
<!DOCTYPE svg PUBLIC "-//W3C//DTD SVG 1.1//EN"
 "http://www.w3.org/Graphics/SVG/1.1/DTD/svg11.dtd">
<!-- Generated by graphviz version 2.26.3 (20100126.1600)
 -->
<!-- Title: CAreaConfiguration::restore Pages: 1 -->
<svg width="394pt" height="82pt"
 viewBox="0.00 0.00 394.00 82.00" xmlns="http://www.w3.org/2000/svg" xmlns:xlink="http://www.w3.org/1999/xlink">
<g id="graph1" class="graph" transform="scale(1 1) rotate(0) translate(4 78)">
<title>CAreaConfiguration::restore</title>
<polygon fill="white" stroke="white" points="-4,5 -4,-78 391,-78 391,5 -4,5"/>
<!-- Node1 -->
<g id="node1" class="node"><title>Node1</title>
<polygon fill="#bfbfbf" stroke="black" points="0,-17 0,-51 110,-51 110,-17 0,-17"/>
<text text-anchor="start" x="8" y="-38" font-family="Verdana" font-size="10.00">CAreaConfiguration</text>
<text text-anchor="middle" x="55" y="-25" font-family="Verdana" font-size="10.00">::restore</text>
</g>
<!-- Node2 -->
<g id="node3" class="node"><title>Node2</title>
<a xlink:href="classCConfigurableElement.html#a29d61e6d09ff508ebb87aea802f2704e" target="_top" xlink:title="CConfigurableElement\l::getOffset">
<polygon fill="white" stroke="black" points="146.5,-40 146.5,-74 269.5,-74 269.5,-40 146.5,-40"/>
<text text-anchor="start" x="154.5" y="-61" font-family="Verdana" font-size="10.00">CConfigurableElement</text>
<text text-anchor="middle" x="208" y="-48" font-family="Verdana" font-size="10.00">::getOffset</text>
</a>
</g>
<!-- Node1&#45;&gt;Node2 -->
<g id="edge2" class="edge"><title>Node1&#45;&gt;Node2</title>
<path fill="none" stroke="midnightblue" d="M110.237,-42.3035C118.665,-43.5706 127.468,-44.8938 136.189,-46.2048"/>
<polygon fill="midnightblue" stroke="midnightblue" points="135.952,-49.7086 146.362,-47.7341 136.993,-42.7863 135.952,-49.7086"/>
</g>
<!-- Node3 -->
<g id="node5" class="node"><title>Node3</title>
<a xlink:href="classCSyncerSet.html#a6ee2b3a5edcccc64b8694df736312e4b" target="_top" xlink:title="CSyncerSet::sync">
<polygon fill="white" stroke="black" points="157.5,-0.5 157.5,-21.5 258.5,-21.5 258.5,-0.5 157.5,-0.5"/>
<text text-anchor="middle" x="208" y="-8.5" font-family="Verdana" font-size="10.00">CSyncerSet::sync</text>
</a>
</g>
<!-- Node1&#45;&gt;Node3 -->
<g id="edge4" class="edge"><title>Node1&#45;&gt;Node3</title>
<path fill="none" stroke="midnightblue" d="M110.237,-25.6965C122.273,-23.887 135.073,-21.9628 147.309,-20.1235"/>
<polygon fill="midnightblue" stroke="midnightblue" points="148.056,-23.5505 157.425,-18.6028 147.016,-16.6283 148.056,-23.5505"/>
</g>
<!-- Node4 -->
<g id="node7" class="node"><title>Node4</title>
<a xlink:href="classISyncer.html#a16844aac52fb0caf4aed4f68d4b038d9" target="_top" xlink:title="ISyncer::sync">
<polygon fill="white" stroke="black" points="306,-0.5 306,-21.5 386,-21.5 386,-0.5 306,-0.5"/>
<text text-anchor="middle" x="346" y="-8.5" font-family="Verdana" font-size="10.00">ISyncer::sync</text>
</a>
</g>
<!-- Node3&#45;&gt;Node4 -->
<g id="edge6" class="edge"><title>Node3&#45;&gt;Node4</title>
<path fill="none" stroke="midnightblue" d="M258.603,-11C270.621,-11 283.442,-11 295.458,-11"/>
<polygon fill="midnightblue" stroke="midnightblue" points="295.769,-14.5001 305.769,-11 295.769,-7.5001 295.769,-14.5001"/>
</g>
</g>
</svg>
