<?xml version="1.0" encoding="UTF-8" standalone="no"?>
<!DOCTYPE svg PUBLIC "-//W3C//DTD SVG 1.1//EN"
 "http://www.w3.org/Graphics/SVG/1.1/DTD/svg11.dtd">
<!-- Generated by graphviz version 2.26.3 (20100126.1600)
 -->
<!-- Title: CElement::getQualifiedPath Pages: 1 -->
<svg width="342pt" height="48pt"
 viewBox="0.00 0.00 342.00 48.00" xmlns="http://www.w3.org/2000/svg" xmlns:xlink="http://www.w3.org/1999/xlink">
<g id="graph1" class="graph" transform="scale(1 1) rotate(0) translate(4 44)">
<title>CElement::getQualifiedPath</title>
<polygon fill="white" stroke="white" points="-4,5 -4,-44 339,-44 339,5 -4,5"/>
<!-- Node1 -->
<g id="node1" class="node"><title>Node1</title>
<polygon fill="#bfbfbf" stroke="black" points="0.5,-0.5 0.5,-21.5 147.5,-21.5 147.5,-0.5 0.5,-0.5"/>
<text text-anchor="middle" x="74" y="-8.5" font-family="Verdana" font-size="10.00">CElement::getQualifiedPath</text>
</g>
<!-- Node2 -->
<g id="node3" class="node"><title>Node2</title>
<a xlink:href="classCElement.html#a740c0b65f45d681c3d87196d72dd578c" target="_top" xlink:title="CElement::listQualifiedPaths">
<polygon fill="white" stroke="black" points="184,-0.5 184,-21.5 334,-21.5 334,-0.5 184,-0.5"/>
<text text-anchor="middle" x="259" y="-8.5" font-family="Verdana" font-size="10.00">CElement::listQualifiedPaths</text>
</a>
</g>
<!-- Node1&#45;&gt;Node2 -->
<g id="edge2" class="edge"><title>Node1&#45;&gt;Node2</title>
<path fill="none" stroke="midnightblue" d="M157.765,-11C166.439,-11 175.217,-11 183.789,-11"/>
<polygon fill="midnightblue" stroke="midnightblue" points="157.649,-7.5001 147.648,-11 157.648,-14.5001 157.649,-7.5001"/>
</g>
<!-- Node2&#45;&gt;Node2 -->
<g id="edge4" class="edge"><title>Node2&#45;&gt;Node2</title>
<path fill="none" stroke="midnightblue" d="M224.764,-30.6791C226.598,-35.9746 238.01,-40 259,-40 290.984,-40 300.73,-30.6531 288.236,-21.7079"/>
<polygon fill="midnightblue" stroke="midnightblue" points="227.952,-32.1466 229.764,-21.7079 221.838,-28.7384 227.952,-32.1466"/>
</g>
</g>
</svg>
