<?xml version="1.0" encoding="UTF-8" standalone="no"?>
<!DOCTYPE svg PUBLIC "-//W3C//DTD SVG 1.1//EN"
 "http://www.w3.org/Graphics/SVG/1.1/DTD/svg11.dtd">
<!-- Generated by graphviz version 2.26.3 (20100126.1600)
 -->
<!-- Title: CParameterMgr::renameDomain Pages: 1 -->
<svg width="692pt" height="199pt"
 viewBox="0.00 0.00 692.00 199.00" xmlns="http://www.w3.org/2000/svg" xmlns:xlink="http://www.w3.org/1999/xlink">
<g id="graph1" class="graph" transform="scale(1 1) rotate(0) translate(4 195)">
<title>CParameterMgr::renameDomain</title>
<polygon fill="white" stroke="white" points="-4,5 -4,-195 689,-195 689,5 -4,5"/>
<!-- Node1 -->
<g id="node1" class="node"><title>Node1</title>
<polygon fill="#bfbfbf" stroke="black" points="0.5,-117.5 0.5,-138.5 173.5,-138.5 173.5,-117.5 0.5,-117.5"/>
<text text-anchor="middle" x="87" y="-125.5" font-family="Verdana" font-size="10.00">CParameterMgr::renameDomain</text>
</g>
<!-- Node2 -->
<g id="node3" class="node"><title>Node2</title>
<a xlink:href="classCConfigurableDomains.html#a5191495863bf95f1fc3beb545b410269" target="_top" xlink:title="CConfigurableDomains\l::renameDomain">
<polygon fill="white" stroke="black" points="210,-111 210,-145 336,-145 336,-111 210,-111"/>
<text text-anchor="start" x="218" y="-132" font-family="Verdana" font-size="10.00">CConfigurableDomains</text>
<text text-anchor="middle" x="273" y="-119" font-family="Verdana" font-size="10.00">::renameDomain</text>
</a>
</g>
<!-- Node1&#45;&gt;Node2 -->
<g id="edge2" class="edge"><title>Node1&#45;&gt;Node2</title>
<path fill="none" stroke="midnightblue" d="M173.738,-128C182.423,-128 191.182,-128 199.71,-128"/>
<polygon fill="midnightblue" stroke="midnightblue" points="199.976,-131.5 209.976,-128 199.976,-124.5 199.976,-131.5"/>
</g>
<!-- Node3 -->
<g id="node5" class="node"><title>Node3</title>
<a xlink:href="classCConfigurableDomains.html#a4dce38a1560b6e33871d3fa2d85cc449" target="_top" xlink:title="CConfigurableDomains\l::findConfigurableDomain">
<polygon fill="white" stroke="black" points="372.5,-157 372.5,-191 509.5,-191 509.5,-157 372.5,-157"/>
<text text-anchor="start" x="380.5" y="-178" font-family="Verdana" font-size="10.00">CConfigurableDomains</text>
<text text-anchor="middle" x="441" y="-165" font-family="Verdana" font-size="10.00">::findConfigurableDomain</text>
</a>
</g>
<!-- Node2&#45;&gt;Node3 -->
<g id="edge4" class="edge"><title>Node2&#45;&gt;Node3</title>
<path fill="none" stroke="midnightblue" d="M335.557,-145.129C346.452,-148.112 357.863,-151.236 368.988,-154.282"/>
<polygon fill="midnightblue" stroke="midnightblue" points="368.101,-157.668 378.671,-156.934 369.95,-150.917 368.101,-157.668"/>
</g>
<!-- Node5 -->
<g id="node9" class="node"><title>Node5</title>
<a xlink:href="classCElement.html#aaa4df1b13a53263f8cc2b668172873d9" target="_top" xlink:title="CElement::log_info">
<polygon fill="white" stroke="black" points="388,-117.5 388,-138.5 494,-138.5 494,-117.5 388,-117.5"/>
<text text-anchor="middle" x="441" y="-125.5" font-family="Verdana" font-size="10.00">CElement::log_info</text>
</a>
</g>
<!-- Node2&#45;&gt;Node5 -->
<g id="edge8" class="edge"><title>Node2&#45;&gt;Node5</title>
<path fill="none" stroke="midnightblue" d="M336.035,-128C349.613,-128 363.971,-128 377.564,-128"/>
<polygon fill="midnightblue" stroke="midnightblue" points="377.783,-131.5 387.783,-128 377.783,-124.5 377.783,-131.5"/>
</g>
<!-- Node6 -->
<g id="node11" class="node"><title>Node6</title>
<a xlink:href="classCElement.html#aa09118f89e5b3208ee92d0ec51151ccf" target="_top" xlink:title="CElement::rename">
<polygon fill="white" stroke="black" points="387.5,-77.5 387.5,-98.5 494.5,-98.5 494.5,-77.5 387.5,-77.5"/>
<text text-anchor="middle" x="441" y="-85.5" font-family="Verdana" font-size="10.00">CElement::rename</text>
</a>
</g>
<!-- Node2&#45;&gt;Node6 -->
<g id="edge10" class="edge"><title>Node2&#45;&gt;Node6</title>
<path fill="none" stroke="midnightblue" d="M336.035,-112.992C352.767,-109.008 370.684,-104.742 386.893,-100.883"/>
<polygon fill="midnightblue" stroke="midnightblue" points="387.822,-104.259 396.739,-98.5383 386.2,-97.4498 387.822,-104.259"/>
</g>
<!-- Node4 -->
<g id="node7" class="node"><title>Node4</title>
<a xlink:href="classCElement.html#a8595814a3159f32f874269907e70b260" target="_top" xlink:title="CElement::findChild">
<polygon fill="white" stroke="black" points="560,-163.5 560,-184.5 670,-184.5 670,-163.5 560,-163.5"/>
<text text-anchor="middle" x="615" y="-171.5" font-family="Verdana" font-size="10.00">CElement::findChild</text>
</a>
</g>
<!-- Node3&#45;&gt;Node4 -->
<g id="edge6" class="edge"><title>Node3&#45;&gt;Node4</title>
<path fill="none" stroke="midnightblue" d="M509.769,-174C522.886,-174 536.582,-174 549.591,-174"/>
<polygon fill="midnightblue" stroke="midnightblue" points="549.852,-177.5 559.852,-174 549.852,-170.5 549.852,-177.5"/>
</g>
<!-- Node7 -->
<g id="node13" class="node"><title>Node7</title>
<a xlink:href="classCElement.html#a25f58d9d8b35e770806d669fb2a378e4" target="_top" xlink:title="CElement::getNbChildren">
<polygon fill="white" stroke="black" points="546.5,-120.5 546.5,-141.5 683.5,-141.5 683.5,-120.5 546.5,-120.5"/>
<text text-anchor="middle" x="615" y="-128.5" font-family="Verdana" font-size="10.00">CElement::getNbChildren</text>
</a>
</g>
<!-- Node6&#45;&gt;Node7 -->
<g id="edge12" class="edge"><title>Node6&#45;&gt;Node7</title>
<path fill="none" stroke="midnightblue" d="M483.565,-98.519C507.369,-104.402 537.239,-111.783 562.486,-118.022"/>
<polygon fill="midnightblue" stroke="midnightblue" points="561.724,-121.439 572.271,-120.441 563.403,-114.644 561.724,-121.439"/>
</g>
<!-- Node8 -->
<g id="node15" class="node"><title>Node8</title>
<a xlink:href="classCElement.html#a41bf126c3fdbb5bec0c2c3dcf35e9079" target="_top" xlink:title="CElement::getChild">
<polygon fill="white" stroke="black" points="561,-80.5 561,-101.5 669,-101.5 669,-80.5 561,-80.5"/>
<text text-anchor="middle" x="615" y="-88.5" font-family="Verdana" font-size="10.00">CElement::getChild</text>
</a>
</g>
<!-- Node6&#45;&gt;Node8 -->
<g id="edge14" class="edge"><title>Node6&#45;&gt;Node8</title>
<path fill="none" stroke="midnightblue" d="M494.626,-88.9246C512.403,-89.2311 532.371,-89.5754 550.858,-89.8941"/>
<polygon fill="midnightblue" stroke="midnightblue" points="550.893,-93.3951 560.952,-90.0681 551.014,-86.3962 550.893,-93.3951"/>
</g>
<!-- Node9 -->
<g id="node17" class="node"><title>Node9</title>
<a xlink:href="classCElement.html#a49581fb6412e29e932962acd82d52d6a" target="_top" xlink:title="CElement::getName">
<polygon fill="white" stroke="black" points="558,-40.5 558,-61.5 672,-61.5 672,-40.5 558,-40.5"/>
<text text-anchor="middle" x="615" y="-48.5" font-family="Verdana" font-size="10.00">CElement::getName</text>
</a>
</g>
<!-- Node6&#45;&gt;Node9 -->
<g id="edge16" class="edge"><title>Node6&#45;&gt;Node9</title>
<path fill="none" stroke="midnightblue" d="M490.396,-77.4963C510.692,-73.1804 534.37,-68.1455 555.601,-63.6309"/>
<polygon fill="midnightblue" stroke="midnightblue" points="556.427,-67.0335 565.48,-61.53 554.971,-60.1866 556.427,-67.0335"/>
</g>
<!-- Node10 -->
<g id="node19" class="node"><title>Node10</title>
<a xlink:href="classCElement.html#a9018d33125b066d6cd791659af95c6fe" target="_top" xlink:title="CElement::setName">
<polygon fill="white" stroke="black" points="558.5,-0.5 558.5,-21.5 671.5,-21.5 671.5,-0.5 558.5,-0.5"/>
<text text-anchor="middle" x="615" y="-8.5" font-family="Verdana" font-size="10.00">CElement::setName</text>
</a>
</g>
<!-- Node6&#45;&gt;Node10 -->
<g id="edge18" class="edge"><title>Node6&#45;&gt;Node10</title>
<path fill="none" stroke="midnightblue" d="M457.903,-77.3396C478.201,-64.8933 513.575,-44.3185 546,-31 551.543,-28.7232 557.436,-26.5965 563.352,-24.6438"/>
<polygon fill="midnightblue" stroke="midnightblue" points="564.782,-27.8632 573.273,-21.5261 562.684,-21.1852 564.782,-27.8632"/>
</g>
</g>
</svg>
