<?xml version="1.0" encoding="UTF-8" standalone="no"?>
<!DOCTYPE svg PUBLIC "-//W3C//DTD SVG 1.1//EN"
 "http://www.w3.org/Graphics/SVG/1.1/DTD/svg11.dtd">
<!-- Generated by graphviz version 2.26.3 (20100126.1600)
 -->
<!-- Title: CConfigurableDomain::renameConfiguration Pages: 1 -->
<svg width="530pt" height="42pt"
 viewBox="0.00 0.00 530.00 42.00" xmlns="http://www.w3.org/2000/svg" xmlns:xlink="http://www.w3.org/1999/xlink">
<g id="graph1" class="graph" transform="scale(1 1) rotate(0) translate(4 38)">
<title>CConfigurableDomain::renameConfiguration</title>
<polygon fill="white" stroke="white" points="-4,5 -4,-38 527,-38 527,5 -4,5"/>
<!-- Node1 -->
<g id="node1" class="node"><title>Node1</title>
<polygon fill="#bfbfbf" stroke="black" points="0,-0 0,-34 124,-34 124,-0 0,-0"/>
<text text-anchor="start" x="8" y="-21" font-family="Verdana" font-size="10.00">CConfigurableDomain</text>
<text text-anchor="middle" x="62" y="-8" font-family="Verdana" font-size="10.00">::renameConfiguration</text>
</g>
<!-- Node2 -->
<g id="node3" class="node"><title>Node2</title>
<a xlink:href="classCConfigurableDomains.html#a052bfda8fb27ff5a1eeb0a53444031e8" target="_top" xlink:title="CConfigurableDomains\l::renameConfiguration">
<polygon fill="white" stroke="black" points="160,-0 160,-34 286,-34 286,-0 160,-0"/>
<text text-anchor="start" x="168" y="-21" font-family="Verdana" font-size="10.00">CConfigurableDomains</text>
<text text-anchor="middle" x="223" y="-8" font-family="Verdana" font-size="10.00">::renameConfiguration</text>
</a>
</g>
<!-- Node1&#45;&gt;Node2 -->
<g id="edge2" class="edge"><title>Node1&#45;&gt;Node2</title>
<path fill="none" stroke="midnightblue" d="M134.486,-17C142.95,-17 151.533,-17 159.856,-17"/>
<polygon fill="midnightblue" stroke="midnightblue" points="134.247,-13.5001 124.247,-17 134.247,-20.5001 134.247,-13.5001"/>
</g>
<!-- Node3 -->
<g id="node5" class="node"><title>Node3</title>
<a xlink:href="classCParameterMgr.html#af73dc2735e178eb3571400b76172b03e" target="_top" xlink:title="CParameterMgr::renameConfiguration">
<polygon fill="white" stroke="black" points="322.5,-6.5 322.5,-27.5 521.5,-27.5 521.5,-6.5 322.5,-6.5"/>
<text text-anchor="middle" x="422" y="-14.5" font-family="Verdana" font-size="10.00">CParameterMgr::renameConfiguration</text>
</a>
</g>
<!-- Node2&#45;&gt;Node3 -->
<g id="edge4" class="edge"><title>Node2&#45;&gt;Node3</title>
<path fill="none" stroke="midnightblue" d="M296.376,-17C304.811,-17 313.516,-17 322.224,-17"/>
<polygon fill="midnightblue" stroke="midnightblue" points="296.238,-13.5001 286.238,-17 296.238,-20.5001 296.238,-13.5001"/>
</g>
</g>
</svg>
