<?xml version="1.0" encoding="UTF-8" standalone="no"?>
<!DOCTYPE svg PUBLIC "-//W3C//DTD SVG 1.1//EN"
 "http://www.w3.org/Graphics/SVG/1.1/DTD/svg11.dtd">
<!-- Generated by graphviz version 2.26.3 (20100126.1600)
 -->
<!-- Title: CComponentInstance::getFormattedMapping Pages: 1 -->
<svg width="348pt" height="60pt"
 viewBox="0.00 0.00 348.00 60.00" xmlns="http://www.w3.org/2000/svg" xmlns:xlink="http://www.w3.org/1999/xlink">
<g id="graph1" class="graph" transform="scale(1 1) rotate(0) translate(4 56)">
<title>CComponentInstance::getFormattedMapping</title>
<polygon fill="white" stroke="white" points="-4,5 -4,-56 345,-56 345,5 -4,5"/>
<!-- Node1 -->
<g id="node1" class="node"><title>Node1</title>
<polygon fill="#bfbfbf" stroke="black" points="0.5,-0 0.5,-34 129.5,-34 129.5,-0 0.5,-0"/>
<text text-anchor="start" x="8.5" y="-21" font-family="Verdana" font-size="10.00">CComponentInstance</text>
<text text-anchor="middle" x="65" y="-8" font-family="Verdana" font-size="10.00">::getFormattedMapping</text>
</g>
<!-- Node2 -->
<g id="node3" class="node"><title>Node2</title>
<a xlink:href="classCComponentType.html#a37b20ab2ead51d728c5a7e7804eaeb2e" target="_top" xlink:title="Returns the mapping associated to the current TypeElement instance. ">
<polygon fill="white" stroke="black" points="166.5,-0 166.5,-34 339.5,-34 339.5,-0 166.5,-0"/>
<text text-anchor="start" x="174.5" y="-21" font-family="Verdana" font-size="10.00">CComponentType::getFormatted</text>
<text text-anchor="middle" x="253" y="-8" font-family="Verdana" font-size="10.00">Mapping</text>
</a>
</g>
<!-- Node1&#45;&gt;Node2 -->
<g id="edge2" class="edge"><title>Node1&#45;&gt;Node2</title>
<path fill="none" stroke="midnightblue" d="M129.699,-17C138.265,-17 147.192,-17 156.153,-17"/>
<polygon fill="midnightblue" stroke="midnightblue" points="156.268,-20.5001 166.268,-17 156.268,-13.5001 156.268,-20.5001"/>
</g>
<!-- Node2&#45;&gt;Node2 -->
<g id="edge4" class="edge"><title>Node2&#45;&gt;Node2</title>
<path fill="none" stroke="midnightblue" d="M219.204,-34.2878C213.461,-43.5562 224.727,-52 253,-52 270.229,-52 281.142,-48.8645 285.74,-44.3176"/>
<polygon fill="midnightblue" stroke="midnightblue" points="289.23,-44.5992 286.796,-34.2878 282.268,-43.8665 289.23,-44.5992"/>
</g>
</g>
</svg>
