<?xml version="1.0" encoding="UTF-8" standalone="no"?>
<!DOCTYPE svg PUBLIC "-//W3C//DTD SVG 1.1//EN"
 "http://www.w3.org/Graphics/SVG/1.1/DTD/svg11.dtd">
<!-- Generated by graphviz version 2.26.3 (20100126.1600)
 -->
<!-- Title: CParameterMgr::setSequenceAwareness Pages: 1 -->
<svg width="668pt" height="122pt"
 viewBox="0.00 0.00 668.00 122.00" xmlns="http://www.w3.org/2000/svg" xmlns:xlink="http://www.w3.org/1999/xlink">
<g id="graph1" class="graph" transform="scale(1 1) rotate(0) translate(4 118)">
<title>CParameterMgr::setSequenceAwareness</title>
<polygon fill="white" stroke="white" points="-4,5 -4,-118 665,-118 665,5 -4,5"/>
<!-- Node1 -->
<g id="node1" class="node"><title>Node1</title>
<polygon fill="#bfbfbf" stroke="black" points="0.5,-54 0.5,-88 161.5,-88 161.5,-54 0.5,-54"/>
<text text-anchor="start" x="8.5" y="-75" font-family="Verdana" font-size="10.00">CParameterMgr::setSequence</text>
<text text-anchor="middle" x="81" y="-62" font-family="Verdana" font-size="10.00">Awareness</text>
</g>
<!-- Node2 -->
<g id="node3" class="node"><title>Node2</title>
<a xlink:href="classCConfigurableDomains.html#aa41f38a45f556c4b6c3c80609d8ad2b1" target="_top" xlink:title="CConfigurableDomains\l::setSequenceAwareness">
<polygon fill="white" stroke="black" points="198.5,-54 198.5,-88 335.5,-88 335.5,-54 198.5,-54"/>
<text text-anchor="start" x="206.5" y="-75" font-family="Verdana" font-size="10.00">CConfigurableDomains</text>
<text text-anchor="middle" x="267" y="-62" font-family="Verdana" font-size="10.00">::setSequenceAwareness</text>
</a>
</g>
<!-- Node1&#45;&gt;Node2 -->
<g id="edge2" class="edge"><title>Node1&#45;&gt;Node2</title>
<path fill="none" stroke="midnightblue" d="M161.501,-71C170.321,-71 179.295,-71 188.097,-71"/>
<polygon fill="midnightblue" stroke="midnightblue" points="188.33,-74.5001 198.33,-71 188.33,-67.5001 188.33,-74.5001"/>
</g>
<!-- Node3 -->
<g id="node5" class="node"><title>Node3</title>
<a xlink:href="classCConfigurableDomains.html#a4dce38a1560b6e33871d3fa2d85cc449" target="_top" xlink:title="CConfigurableDomains\l::findConfigurableDomain">
<polygon fill="white" stroke="black" points="372.5,-80 372.5,-114 509.5,-114 509.5,-80 372.5,-80"/>
<text text-anchor="start" x="380.5" y="-101" font-family="Verdana" font-size="10.00">CConfigurableDomains</text>
<text text-anchor="middle" x="441" y="-88" font-family="Verdana" font-size="10.00">::findConfigurableDomain</text>
</a>
</g>
<!-- Node2&#45;&gt;Node3 -->
<g id="edge4" class="edge"><title>Node2&#45;&gt;Node3</title>
<path fill="none" stroke="midnightblue" d="M335.769,-81.2759C344.535,-82.5856 353.558,-83.934 362.463,-85.2646"/>
<polygon fill="midnightblue" stroke="midnightblue" points="362.038,-88.7398 372.445,-86.7562 363.072,-81.8167 362.038,-88.7398"/>
</g>
<!-- Node5 -->
<g id="node9" class="node"><title>Node5</title>
<a xlink:href="classCConfigurableDomain.html#a3a77775be8a0df31842b5857a238789e" target="_top" xlink:title="CConfigurableDomain\l::setSequenceAwareness">
<polygon fill="white" stroke="black" points="372.5,-28 372.5,-62 509.5,-62 509.5,-28 372.5,-28"/>
<text text-anchor="start" x="380.5" y="-49" font-family="Verdana" font-size="10.00">CConfigurableDomain</text>
<text text-anchor="middle" x="441" y="-36" font-family="Verdana" font-size="10.00">::setSequenceAwareness</text>
</a>
</g>
<!-- Node2&#45;&gt;Node5 -->
<g id="edge8" class="edge"><title>Node2&#45;&gt;Node5</title>
<path fill="none" stroke="midnightblue" d="M335.769,-60.7241C344.535,-59.4144 353.558,-58.066 362.463,-56.7354"/>
<polygon fill="midnightblue" stroke="midnightblue" points="363.072,-60.1833 372.445,-55.2438 362.038,-53.2602 363.072,-60.1833"/>
</g>
<!-- Node4 -->
<g id="node7" class="node"><title>Node4</title>
<a xlink:href="classCElement.html#a8595814a3159f32f874269907e70b260" target="_top" xlink:title="CElement::findChild">
<polygon fill="white" stroke="black" points="548,-86.5 548,-107.5 658,-107.5 658,-86.5 548,-86.5"/>
<text text-anchor="middle" x="603" y="-94.5" font-family="Verdana" font-size="10.00">CElement::findChild</text>
</a>
</g>
<!-- Node3&#45;&gt;Node4 -->
<g id="edge6" class="edge"><title>Node3&#45;&gt;Node4</title>
<path fill="none" stroke="midnightblue" d="M509.703,-97C518.976,-97 528.469,-97 537.681,-97"/>
<polygon fill="midnightblue" stroke="midnightblue" points="537.935,-100.5 547.935,-97 537.935,-93.5001 537.935,-100.5"/>
</g>
<!-- Node6 -->
<g id="node11" class="node"><title>Node6</title>
<a xlink:href="classCElement.html#aaa4df1b13a53263f8cc2b668172873d9" target="_top" xlink:title="CElement::log_info">
<polygon fill="white" stroke="black" points="550,-40.5 550,-61.5 656,-61.5 656,-40.5 550,-40.5"/>
<text text-anchor="middle" x="603" y="-48.5" font-family="Verdana" font-size="10.00">CElement::log_info</text>
</a>
</g>
<!-- Node5&#45;&gt;Node6 -->
<g id="edge10" class="edge"><title>Node5&#45;&gt;Node6</title>
<path fill="none" stroke="midnightblue" d="M509.703,-47.5445C519.687,-47.9143 529.927,-48.2936 539.796,-48.6591"/>
<polygon fill="midnightblue" stroke="midnightblue" points="539.797,-52.1615 549.92,-49.0341 540.057,-45.1663 539.797,-52.1615"/>
</g>
<!-- Node7 -->
<g id="node13" class="node"><title>Node7</title>
<a xlink:href="classCElement.html#a49581fb6412e29e932962acd82d52d6a" target="_top" xlink:title="CElement::getName">
<polygon fill="white" stroke="black" points="546,-0.5 546,-21.5 660,-21.5 660,-0.5 546,-0.5"/>
<text text-anchor="middle" x="603" y="-8.5" font-family="Verdana" font-size="10.00">CElement::getName</text>
</a>
</g>
<!-- Node5&#45;&gt;Node7 -->
<g id="edge12" class="edge"><title>Node5&#45;&gt;Node7</title>
<path fill="none" stroke="midnightblue" d="M509.703,-30.5809C520.795,-28.253 532.202,-25.8589 543.066,-23.5788"/>
<polygon fill="midnightblue" stroke="midnightblue" points="543.798,-27.0015 552.865,-21.5221 542.36,-20.1508 543.798,-27.0015"/>
</g>
</g>
</svg>
