<?xml version="1.0" encoding="UTF-8" standalone="no"?>
<!DOCTYPE svg PUBLIC "-//W3C//DTD SVG 1.1//EN"
 "http://www.w3.org/Graphics/SVG/1.1/DTD/svg11.dtd">
<!-- Generated by graphviz version 2.26.3 (20100126.1600)
 -->
<!-- Title: CConnectionSocket::connect Pages: 1 -->
<svg width="292pt" height="70pt"
 viewBox="0.00 0.00 292.00 70.00" xmlns="http://www.w3.org/2000/svg" xmlns:xlink="http://www.w3.org/1999/xlink">
<g id="graph1" class="graph" transform="scale(1 1) rotate(0) translate(4 66)">
<title>CConnectionSocket::connect</title>
<polygon fill="white" stroke="white" points="-4,5 -4,-66 289,-66 289,5 -4,5"/>
<!-- Node1 -->
<g id="node1" class="node"><title>Node1</title>
<polygon fill="#bfbfbf" stroke="black" points="0,-14 0,-48 116,-48 116,-14 0,-14"/>
<text text-anchor="start" x="8" y="-35" font-family="Verdana" font-size="10.00">CConnectionSocket::</text>
<text text-anchor="middle" x="58" y="-22" font-family="Verdana" font-size="10.00">connect</text>
</g>
<!-- Node2 -->
<g id="node3" class="node"><title>Node2</title>
<a xlink:href="classCSocket.html#a489715f4b7fc3e5b5efd832766208acd" target="_top" xlink:title="CSocket::initSockAddrIn">
<polygon fill="white" stroke="black" points="152.5,-40.5 152.5,-61.5 283.5,-61.5 283.5,-40.5 152.5,-40.5"/>
<text text-anchor="middle" x="218" y="-48.5" font-family="Verdana" font-size="10.00">CSocket::initSockAddrIn</text>
</a>
</g>
<!-- Node1&#45;&gt;Node2 -->
<g id="edge2" class="edge"><title>Node1&#45;&gt;Node2</title>
<path fill="none" stroke="midnightblue" d="M116.216,-38.277C124.629,-39.3287 133.39,-40.4238 142.087,-41.5108"/>
<polygon fill="midnightblue" stroke="midnightblue" points="141.884,-45.0127 152.241,-42.7801 142.752,-38.0667 141.884,-45.0127"/>
</g>
<!-- Node3 -->
<g id="node5" class="node"><title>Node3</title>
<a xlink:href="classCSocket.html#aa925e6f828f6084610bb19c80709ff0a" target="_top" xlink:title="CSocket::getFd">
<polygon fill="white" stroke="black" points="173.5,-0.5 173.5,-21.5 262.5,-21.5 262.5,-0.5 173.5,-0.5"/>
<text text-anchor="middle" x="218" y="-8.5" font-family="Verdana" font-size="10.00">CSocket::getFd</text>
</a>
</g>
<!-- Node1&#45;&gt;Node3 -->
<g id="edge4" class="edge"><title>Node1&#45;&gt;Node3</title>
<path fill="none" stroke="midnightblue" d="M116.216,-23.723C131.534,-21.8082 148.006,-19.7492 163.141,-17.8573"/>
<polygon fill="midnightblue" stroke="midnightblue" points="163.887,-21.2915 173.375,-16.5781 163.018,-14.3455 163.887,-21.2915"/>
</g>
</g>
</svg>
