<?xml version="1.0" encoding="UTF-8" standalone="no"?>
<!DOCTYPE svg PUBLIC "-//W3C//DTD SVG 1.1//EN"
 "http://www.w3.org/Graphics/SVG/1.1/DTD/svg11.dtd">
<!-- Generated by graphviz version 2.26.3 (20100126.1600)
 -->
<!-- Title: CConfigurableDomain::renameConfiguration Pages: 1 -->
<svg width="450pt" height="188pt"
 viewBox="0.00 0.00 450.00 188.00" xmlns="http://www.w3.org/2000/svg" xmlns:xlink="http://www.w3.org/1999/xlink">
<g id="graph1" class="graph" transform="scale(1 1) rotate(0) translate(4 184)">
<title>CConfigurableDomain::renameConfiguration</title>
<polygon fill="white" stroke="white" points="-4,5 -4,-184 447,-184 447,5 -4,5"/>
<!-- Node1 -->
<g id="node1" class="node"><title>Node1</title>
<polygon fill="#bfbfbf" stroke="black" points="0,-113 0,-147 124,-147 124,-113 0,-113"/>
<text text-anchor="start" x="8" y="-134" font-family="Verdana" font-size="10.00">CConfigurableDomain</text>
<text text-anchor="middle" x="62" y="-121" font-family="Verdana" font-size="10.00">::renameConfiguration</text>
</g>
<!-- Node2 -->
<g id="node3" class="node"><title>Node2</title>
<a xlink:href="classCElement.html#aaa4df1b13a53263f8cc2b668172873d9" target="_top" xlink:title="CElement::log_info">
<polygon fill="white" stroke="black" points="161,-158.5 161,-179.5 267,-179.5 267,-158.5 161,-158.5"/>
<text text-anchor="middle" x="214" y="-166.5" font-family="Verdana" font-size="10.00">CElement::log_info</text>
</a>
</g>
<!-- Node1&#45;&gt;Node2 -->
<g id="edge2" class="edge"><title>Node1&#45;&gt;Node2</title>
<path fill="none" stroke="midnightblue" d="M124.263,-145.975C137.201,-149.295 150.689,-152.756 163.159,-155.955"/>
<polygon fill="midnightblue" stroke="midnightblue" points="162.354,-159.362 172.91,-158.457 164.094,-152.582 162.354,-159.362"/>
</g>
<!-- Node3 -->
<g id="node5" class="node"><title>Node3</title>
<a xlink:href="classCElement.html#a49581fb6412e29e932962acd82d52d6a" target="_top" xlink:title="CElement::getName">
<polygon fill="white" stroke="black" points="316,-120.5 316,-141.5 430,-141.5 430,-120.5 316,-120.5"/>
<text text-anchor="middle" x="373" y="-128.5" font-family="Verdana" font-size="10.00">CElement::getName</text>
</a>
</g>
<!-- Node1&#45;&gt;Node3 -->
<g id="edge4" class="edge"><title>Node1&#45;&gt;Node3</title>
<path fill="none" stroke="midnightblue" d="M124.188,-130.2C176.728,-130.369 251.82,-130.61 305.747,-130.784"/>
<polygon fill="midnightblue" stroke="midnightblue" points="305.886,-134.284 315.898,-130.816 305.909,-127.284 305.886,-134.284"/>
</g>
<!-- Node4 -->
<g id="node7" class="node"><title>Node4</title>
<a xlink:href="classCElement.html#aa09118f89e5b3208ee92d0ec51151ccf" target="_top" xlink:title="CElement::rename">
<polygon fill="white" stroke="black" points="160.5,-80.5 160.5,-101.5 267.5,-101.5 267.5,-80.5 160.5,-80.5"/>
<text text-anchor="middle" x="214" y="-88.5" font-family="Verdana" font-size="10.00">CElement::rename</text>
</a>
</g>
<!-- Node1&#45;&gt;Node4 -->
<g id="edge6" class="edge"><title>Node1&#45;&gt;Node4</title>
<path fill="none" stroke="midnightblue" d="M124.263,-114.025C137.201,-110.705 150.689,-107.244 163.159,-104.045"/>
<polygon fill="midnightblue" stroke="midnightblue" points="164.094,-107.418 172.91,-101.543 162.354,-100.638 164.094,-107.418"/>
</g>
<!-- Node4&#45;&gt;Node3 -->
<g id="edge12" class="edge"><title>Node4&#45;&gt;Node3</title>
<path fill="none" stroke="midnightblue" d="M255.775,-101.51C275.871,-106.565 300.154,-112.674 321.394,-118.017"/>
<polygon fill="midnightblue" stroke="midnightblue" points="320.676,-121.446 331.228,-120.491 322.384,-114.657 320.676,-121.446"/>
</g>
<!-- Node5 -->
<g id="node9" class="node"><title>Node5</title>
<a xlink:href="classCElement.html#a25f58d9d8b35e770806d669fb2a378e4" target="_top" xlink:title="CElement::getNbChildren">
<polygon fill="white" stroke="black" points="304.5,-80.5 304.5,-101.5 441.5,-101.5 441.5,-80.5 304.5,-80.5"/>
<text text-anchor="middle" x="373" y="-88.5" font-family="Verdana" font-size="10.00">CElement::getNbChildren</text>
</a>
</g>
<!-- Node4&#45;&gt;Node5 -->
<g id="edge8" class="edge"><title>Node4&#45;&gt;Node5</title>
<path fill="none" stroke="midnightblue" d="M267.83,-91C276.34,-91 285.289,-91 294.225,-91"/>
<polygon fill="midnightblue" stroke="midnightblue" points="294.286,-94.5001 304.286,-91 294.286,-87.5001 294.286,-94.5001"/>
</g>
<!-- Node6 -->
<g id="node11" class="node"><title>Node6</title>
<a xlink:href="classCElement.html#a41bf126c3fdbb5bec0c2c3dcf35e9079" target="_top" xlink:title="CElement::getChild">
<polygon fill="white" stroke="black" points="319,-40.5 319,-61.5 427,-61.5 427,-40.5 319,-40.5"/>
<text text-anchor="middle" x="373" y="-48.5" font-family="Verdana" font-size="10.00">CElement::getChild</text>
</a>
</g>
<!-- Node4&#45;&gt;Node6 -->
<g id="edge10" class="edge"><title>Node4&#45;&gt;Node6</title>
<path fill="none" stroke="midnightblue" d="M255.775,-80.4905C275.871,-75.4349 300.154,-69.3261 321.394,-63.9827"/>
<polygon fill="midnightblue" stroke="midnightblue" points="322.384,-67.3427 331.228,-61.5087 320.676,-60.5543 322.384,-67.3427"/>
</g>
<!-- Node7 -->
<g id="node14" class="node"><title>Node7</title>
<a xlink:href="classCElement.html#a9018d33125b066d6cd791659af95c6fe" target="_top" xlink:title="CElement::setName">
<polygon fill="white" stroke="black" points="316.5,-0.5 316.5,-21.5 429.5,-21.5 429.5,-0.5 316.5,-0.5"/>
<text text-anchor="middle" x="373" y="-8.5" font-family="Verdana" font-size="10.00">CElement::setName</text>
</a>
</g>
<!-- Node4&#45;&gt;Node7 -->
<g id="edge14" class="edge"><title>Node4&#45;&gt;Node7</title>
<path fill="none" stroke="midnightblue" d="M226.957,-80.4865C243.795,-67.2795 274.539,-44.6924 304,-31 308.948,-28.7002 314.22,-26.6024 319.561,-24.7046"/>
<polygon fill="midnightblue" stroke="midnightblue" points="320.808,-27.9787 329.194,-21.5043 318.601,-21.3358 320.808,-27.9787"/>
</g>
</g>
</svg>
