<?xml version="1.0" encoding="UTF-8" standalone="no"?>
<!DOCTYPE svg PUBLIC "-//W3C//DTD SVG 1.1//EN"
 "http://www.w3.org/Graphics/SVG/1.1/DTD/svg11.dtd">
<!-- Generated by graphviz version 2.26.3 (20100126.1600)
 -->
<!-- Title: CSelectionCriteria::resetModifiedStatus Pages: 1 -->
<svg width="500pt" height="137pt"
 viewBox="0.00 0.00 500.00 137.00" xmlns="http://www.w3.org/2000/svg" xmlns:xlink="http://www.w3.org/1999/xlink">
<g id="graph1" class="graph" transform="scale(1 1) rotate(0) translate(4 133)">
<title>CSelectionCriteria::resetModifiedStatus</title>
<polygon fill="white" stroke="white" points="-4,5 -4,-133 497,-133 497,5 -4,5"/>
<!-- Node1 -->
<g id="node1" class="node"><title>Node1</title>
<polygon fill="#bfbfbf" stroke="black" points="0.5,-69 0.5,-103 119.5,-103 119.5,-69 0.5,-69"/>
<text text-anchor="start" x="8.5" y="-90" font-family="Verdana" font-size="10.00">CSelectionCriteria</text>
<text text-anchor="middle" x="60" y="-77" font-family="Verdana" font-size="10.00">::resetModifiedStatus</text>
</g>
<!-- Node2 -->
<g id="node3" class="node"><title>Node2</title>
<a xlink:href="classCSelectionCriteria.html#aa87e3488047e305e72d84d5aa0ed3e08" target="_top" xlink:title="CSelectionCriteria\l::getSelectionCriteriaDefinition">
<polygon fill="white" stroke="black" points="156,-95 156,-129 318,-129 318,-95 156,-95"/>
<text text-anchor="start" x="164" y="-116" font-family="Verdana" font-size="10.00">CSelectionCriteria</text>
<text text-anchor="middle" x="237" y="-103" font-family="Verdana" font-size="10.00">::getSelectionCriteriaDefinition</text>
</a>
</g>
<!-- Node1&#45;&gt;Node2 -->
<g id="edge2" class="edge"><title>Node1&#45;&gt;Node2</title>
<path fill="none" stroke="midnightblue" d="M119.924,-94.8024C128.304,-96.0333 137.067,-97.3205 145.864,-98.6128"/>
<polygon fill="midnightblue" stroke="midnightblue" points="145.39,-102.081 155.793,-100.071 146.408,-95.155 145.39,-102.081"/>
</g>
<!-- Node4 -->
<g id="node7" class="node"><title>Node4</title>
<a xlink:href="classCSelectionCriteriaDefinition.html#afd90c898acdd1251a4b5ffd931c46b2b" target="_top" xlink:title="CSelectionCriteriaDefinition\l::resetModifiedStatus">
<polygon fill="white" stroke="black" points="163.5,-43 163.5,-77 310.5,-77 310.5,-43 163.5,-43"/>
<text text-anchor="start" x="171.5" y="-64" font-family="Verdana" font-size="10.00">CSelectionCriteriaDefinition</text>
<text text-anchor="middle" x="237" y="-51" font-family="Verdana" font-size="10.00">::resetModifiedStatus</text>
</a>
</g>
<!-- Node1&#45;&gt;Node4 -->
<g id="edge6" class="edge"><title>Node1&#45;&gt;Node4</title>
<path fill="none" stroke="midnightblue" d="M119.924,-77.1976C130.597,-75.6298 141.892,-73.9707 153.088,-72.3261"/>
<polygon fill="midnightblue" stroke="midnightblue" points="153.937,-75.739 163.322,-70.8228 152.919,-68.8134 153.937,-75.739"/>
</g>
<!-- Node3 -->
<g id="node5" class="node"><title>Node3</title>
<a xlink:href="classCElement.html#a41bf126c3fdbb5bec0c2c3dcf35e9079" target="_top" xlink:title="CElement::getChild">
<polygon fill="white" stroke="black" points="369,-95.5 369,-116.5 477,-116.5 477,-95.5 369,-95.5"/>
<text text-anchor="middle" x="423" y="-103.5" font-family="Verdana" font-size="10.00">CElement::getChild</text>
</a>
</g>
<!-- Node2&#45;&gt;Node3 -->
<g id="edge4" class="edge"><title>Node2&#45;&gt;Node3</title>
<path fill="none" stroke="midnightblue" d="M318.041,-109.386C331.637,-108.947 345.579,-108.497 358.679,-108.075"/>
<polygon fill="midnightblue" stroke="midnightblue" points="359.101,-111.563 368.982,-107.743 358.875,-104.567 359.101,-111.563"/>
</g>
<!-- Node4&#45;&gt;Node3 -->
<g id="edge10" class="edge"><title>Node4&#45;&gt;Node3</title>
<path fill="none" stroke="midnightblue" d="M305.995,-77.0633C327.31,-82.3348 350.431,-88.0528 370.447,-93.003"/>
<polygon fill="midnightblue" stroke="midnightblue" points="369.755,-96.4372 380.303,-95.4405 371.436,-89.642 369.755,-96.4372"/>
</g>
<!-- Node5 -->
<g id="node9" class="node"><title>Node5</title>
<a xlink:href="classCElement.html#a25f58d9d8b35e770806d669fb2a378e4" target="_top" xlink:title="CElement::getNbChildren">
<polygon fill="white" stroke="black" points="354.5,-52.5 354.5,-73.5 491.5,-73.5 491.5,-52.5 354.5,-52.5"/>
<text text-anchor="middle" x="423" y="-60.5" font-family="Verdana" font-size="10.00">CElement::getNbChildren</text>
</a>
</g>
<!-- Node4&#45;&gt;Node5 -->
<g id="edge8" class="edge"><title>Node4&#45;&gt;Node5</title>
<path fill="none" stroke="midnightblue" d="M310.512,-61.1857C321.552,-61.3637 332.975,-61.548 344.121,-61.7278"/>
<polygon fill="midnightblue" stroke="midnightblue" points="344.205,-65.2295 354.261,-61.8913 344.318,-58.2304 344.205,-65.2295"/>
</g>
<!-- Node6 -->
<g id="node12" class="node"><title>Node6</title>
<a xlink:href="classCSelectionCriterion.html#a1faf6f53f52122588d3b012e29e7d635" target="_top" xlink:title="CSelectionCriterion\l::resetModifiedStatus">
<polygon fill="white" stroke="black" points="363.5,-0 363.5,-34 482.5,-34 482.5,-0 363.5,-0"/>
<text text-anchor="start" x="371.5" y="-21" font-family="Verdana" font-size="10.00">CSelectionCriterion</text>
<text text-anchor="middle" x="423" y="-8" font-family="Verdana" font-size="10.00">::resetModifiedStatus</text>
</a>
</g>
<!-- Node4&#45;&gt;Node6 -->
<g id="edge12" class="edge"><title>Node4&#45;&gt;Node6</title>
<path fill="none" stroke="midnightblue" d="M310.512,-43.0053C324.648,-39.7373 339.413,-36.3239 353.42,-33.0858"/>
<polygon fill="midnightblue" stroke="midnightblue" points="354.51,-36.426 363.465,-30.7635 352.934,-29.6059 354.51,-36.426"/>
</g>
</g>
</svg>
