<?xml version="1.0" encoding="UTF-8" standalone="no"?>
<!DOCTYPE svg PUBLIC "-//W3C//DTD SVG 1.1//EN"
 "http://www.w3.org/Graphics/SVG/1.1/DTD/svg11.dtd">
<!-- Generated by graphviz version 2.26.3 (20100126.1600)
 -->
<!-- Title: CArrayParameter::getFootPrint Pages: 1 -->
<svg width="502pt" height="42pt"
 viewBox="0.00 0.00 502.00 42.00" xmlns="http://www.w3.org/2000/svg" xmlns:xlink="http://www.w3.org/1999/xlink">
<g id="graph1" class="graph" transform="scale(1 1) rotate(0) translate(4 38)">
<title>CArrayParameter::getFootPrint</title>
<polygon fill="white" stroke="white" points="-4,5 -4,-38 499,-38 499,5 -4,5"/>
<!-- Node1 -->
<g id="node1" class="node"><title>Node1</title>
<polygon fill="#bfbfbf" stroke="black" points="0,-0 0,-34 142,-34 142,-0 0,-0"/>
<text text-anchor="start" x="8" y="-21" font-family="Verdana" font-size="10.00">CArrayParameter::getFoot</text>
<text text-anchor="middle" x="71" y="-8" font-family="Verdana" font-size="10.00">Print</text>
</g>
<!-- Node2 -->
<g id="node3" class="node"><title>Node2</title>
<a xlink:href="classCParameter.html#a3658a7f1281f902fe3b271fa01037398" target="_top" xlink:title="CParameter::getSize">
<polygon fill="white" stroke="black" points="178,-6.5 178,-27.5 294,-27.5 294,-6.5 178,-6.5"/>
<text text-anchor="middle" x="236" y="-14.5" font-family="Verdana" font-size="10.00">CParameter::getSize</text>
</a>
</g>
<!-- Node1&#45;&gt;Node2 -->
<g id="edge2" class="edge"><title>Node1&#45;&gt;Node2</title>
<path fill="none" stroke="midnightblue" d="M142.412,-17C150.833,-17 159.411,-17 167.786,-17"/>
<polygon fill="midnightblue" stroke="midnightblue" points="167.878,-20.5001 177.878,-17 167.878,-13.5001 167.878,-20.5001"/>
</g>
<!-- Node3 -->
<g id="node5" class="node"><title>Node3</title>
<a xlink:href="classCInstanceConfigurableElement.html#ae2d941df411f8ec4c025cbd04d3ba421" target="_top" xlink:title="CInstanceConfigurableElement\l::getTypeElement">
<polygon fill="white" stroke="black" points="330,-0 330,-34 494,-34 494,-0 330,-0"/>
<text text-anchor="start" x="338" y="-21" font-family="Verdana" font-size="10.00">CInstanceConfigurableElement</text>
<text text-anchor="middle" x="412" y="-8" font-family="Verdana" font-size="10.00">::getTypeElement</text>
</a>
</g>
<!-- Node2&#45;&gt;Node3 -->
<g id="edge4" class="edge"><title>Node2&#45;&gt;Node3</title>
<path fill="none" stroke="midnightblue" d="M294.117,-17C302.321,-17 310.918,-17 319.573,-17"/>
<polygon fill="midnightblue" stroke="midnightblue" points="319.739,-20.5001 329.739,-17 319.739,-13.5001 319.739,-20.5001"/>
</g>
</g>
</svg>
