<?xml version="1.0" encoding="UTF-8" standalone="no"?>
<!DOCTYPE svg PUBLIC "-//W3C//DTD SVG 1.1//EN"
 "http://www.w3.org/Graphics/SVG/1.1/DTD/svg11.dtd">
<!-- Generated by graphviz version 2.26.3 (20100126.1600)
 -->
<!-- Title: CConfigurableDomains::saveConfiguration Pages: 1 -->
<svg width="776pt" height="162pt"
 viewBox="0.00 0.00 776.00 162.00" xmlns="http://www.w3.org/2000/svg" xmlns:xlink="http://www.w3.org/1999/xlink">
<g id="graph1" class="graph" transform="scale(1 1) rotate(0) translate(4 158)">
<title>CConfigurableDomains::saveConfiguration</title>
<polygon fill="white" stroke="white" points="-4,5 -4,-158 773,-158 773,5 -4,5"/>
<!-- Node1 -->
<g id="node1" class="node"><title>Node1</title>
<polygon fill="#bfbfbf" stroke="black" points="0,-86 0,-120 126,-120 126,-86 0,-86"/>
<text text-anchor="start" x="8" y="-107" font-family="Verdana" font-size="10.00">CConfigurableDomains</text>
<text text-anchor="middle" x="63" y="-94" font-family="Verdana" font-size="10.00">::saveConfiguration</text>
</g>
<!-- Node2 -->
<g id="node3" class="node"><title>Node2</title>
<a xlink:href="classCConfigurableDomains.html#a4dce38a1560b6e33871d3fa2d85cc449" target="_top" xlink:title="CConfigurableDomains\l::findConfigurableDomain">
<polygon fill="white" stroke="black" points="162.5,-119 162.5,-153 299.5,-153 299.5,-119 162.5,-119"/>
<text text-anchor="start" x="170.5" y="-140" font-family="Verdana" font-size="10.00">CConfigurableDomains</text>
<text text-anchor="middle" x="231" y="-127" font-family="Verdana" font-size="10.00">::findConfigurableDomain</text>
</a>
</g>
<!-- Node1&#45;&gt;Node2 -->
<g id="edge2" class="edge"><title>Node1&#45;&gt;Node2</title>
<path fill="none" stroke="midnightblue" d="M126.035,-115.382C134.626,-117.069 143.53,-118.818 152.355,-120.552"/>
<polygon fill="midnightblue" stroke="midnightblue" points="151.777,-124.005 162.264,-122.498 153.126,-117.136 151.777,-124.005"/>
</g>
<!-- Node4 -->
<g id="node7" class="node"><title>Node4</title>
<a xlink:href="classCConfigurableDomain.html#a7656ea4134ae47e8a19e1565c16323f0" target="_top" xlink:title="CConfigurableDomain\l::saveConfiguration">
<polygon fill="white" stroke="black" points="170.5,-53 170.5,-87 291.5,-87 291.5,-53 170.5,-53"/>
<text text-anchor="start" x="178.5" y="-74" font-family="Verdana" font-size="10.00">CConfigurableDomain</text>
<text text-anchor="middle" x="231" y="-61" font-family="Verdana" font-size="10.00">::saveConfiguration</text>
</a>
</g>
<!-- Node1&#45;&gt;Node4 -->
<g id="edge6" class="edge"><title>Node1&#45;&gt;Node4</title>
<path fill="none" stroke="midnightblue" d="M126.035,-90.6181C137.269,-88.4115 149.037,-86.0998 160.464,-83.8552"/>
<polygon fill="midnightblue" stroke="midnightblue" points="161.259,-87.2662 170.396,-81.9043 159.909,-80.3974 161.259,-87.2662"/>
</g>
<!-- Node3 -->
<g id="node5" class="node"><title>Node3</title>
<a xlink:href="classCElement.html#a8595814a3159f32f874269907e70b260" target="_top" xlink:title="CElement::findChild">
<polygon fill="white" stroke="black" points="344,-132.5 344,-153.5 454,-153.5 454,-132.5 344,-132.5"/>
<text text-anchor="middle" x="399" y="-140.5" font-family="Verdana" font-size="10.00">CElement::findChild</text>
</a>
</g>
<!-- Node2&#45;&gt;Node3 -->
<g id="edge4" class="edge"><title>Node2&#45;&gt;Node3</title>
<path fill="none" stroke="midnightblue" d="M299.817,-138.867C311.056,-139.336 322.67,-139.82 333.819,-140.284"/>
<polygon fill="midnightblue" stroke="midnightblue" points="333.764,-143.785 343.901,-140.704 334.056,-136.791 333.764,-143.785"/>
</g>
<!-- Node5 -->
<g id="node9" class="node"><title>Node5</title>
<a xlink:href="classCElement.html#aaa4df1b13a53263f8cc2b668172873d9" target="_top" xlink:title="CElement::log_info">
<polygon fill="white" stroke="black" points="346,-92.5 346,-113.5 452,-113.5 452,-92.5 346,-92.5"/>
<text text-anchor="middle" x="399" y="-100.5" font-family="Verdana" font-size="10.00">CElement::log_info</text>
</a>
</g>
<!-- Node4&#45;&gt;Node5 -->
<g id="edge8" class="edge"><title>Node4&#45;&gt;Node5</title>
<path fill="none" stroke="midnightblue" d="M291.652,-81.9138C306.085,-84.7488 321.517,-87.7801 336.05,-90.6348"/>
<polygon fill="midnightblue" stroke="midnightblue" points="335.458,-94.0853 345.945,-92.5784 336.807,-87.2165 335.458,-94.0853"/>
</g>
<!-- Node6 -->
<g id="node11" class="node"><title>Node6</title>
<a xlink:href="classCElement.html#a49581fb6412e29e932962acd82d52d6a" target="_top" xlink:title="CElement::getName">
<polygon fill="white" stroke="black" points="342,-52.5 342,-73.5 456,-73.5 456,-52.5 342,-52.5"/>
<text text-anchor="middle" x="399" y="-60.5" font-family="Verdana" font-size="10.00">CElement::getName</text>
</a>
</g>
<!-- Node4&#45;&gt;Node6 -->
<g id="edge10" class="edge"><title>Node4&#45;&gt;Node6</title>
<path fill="none" stroke="midnightblue" d="M291.652,-67.4728C304.684,-66.9298 318.53,-66.3529 331.794,-65.8002"/>
<polygon fill="midnightblue" stroke="midnightblue" points="331.955,-69.2967 341.8,-65.3833 331.663,-62.3027 331.955,-69.2967"/>
</g>
<!-- Node7 -->
<g id="node13" class="node"><title>Node7</title>
<a xlink:href="classCDomainConfiguration.html#aff0adeb0eb6645ef3ae8a4b75c4a7892" target="_top" xlink:title="CDomainConfiguration\l::save">
<polygon fill="white" stroke="black" points="336.5,-0 336.5,-34 461.5,-34 461.5,-0 336.5,-0"/>
<text text-anchor="start" x="344.5" y="-21" font-family="Verdana" font-size="10.00">CDomainConfiguration</text>
<text text-anchor="middle" x="399" y="-8" font-family="Verdana" font-size="10.00">::save</text>
</a>
</g>
<!-- Node4&#45;&gt;Node7 -->
<g id="edge12" class="edge"><title>Node4&#45;&gt;Node7</title>
<path fill="none" stroke="midnightblue" d="M285.081,-52.9387C301.118,-47.8795 318.828,-42.2923 335.409,-37.0613"/>
<polygon fill="midnightblue" stroke="midnightblue" points="336.537,-40.3758 345.02,-34.0293 334.431,-33.7001 336.537,-40.3758"/>
</g>
<!-- Node8 -->
<g id="node15" class="node"><title>Node8</title>
<a xlink:href="classCAreaConfiguration.html#a0ab61255d58c402f059aceb6668b943d" target="_top" xlink:title="CAreaConfiguration\l::save">
<polygon fill="white" stroke="black" points="498,-0 498,-34 608,-34 608,-0 498,-0"/>
<text text-anchor="start" x="506" y="-21" font-family="Verdana" font-size="10.00">CAreaConfiguration</text>
<text text-anchor="middle" x="553" y="-8" font-family="Verdana" font-size="10.00">::save</text>
</a>
</g>
<!-- Node7&#45;&gt;Node8 -->
<g id="edge14" class="edge"><title>Node7&#45;&gt;Node8</title>
<path fill="none" stroke="midnightblue" d="M461.638,-17C470.256,-17 479.124,-17 487.788,-17"/>
<polygon fill="midnightblue" stroke="midnightblue" points="487.837,-20.5001 497.837,-17 487.837,-13.5001 487.837,-20.5001"/>
</g>
<!-- Node9 -->
<g id="node17" class="node"><title>Node9</title>
<a xlink:href="classCConfigurableElement.html#a29d61e6d09ff508ebb87aea802f2704e" target="_top" xlink:title="CConfigurableElement\l::getOffset">
<polygon fill="white" stroke="black" points="644.5,-0 644.5,-34 767.5,-34 767.5,-0 644.5,-0"/>
<text text-anchor="start" x="652.5" y="-21" font-family="Verdana" font-size="10.00">CConfigurableElement</text>
<text text-anchor="middle" x="706" y="-8" font-family="Verdana" font-size="10.00">::getOffset</text>
</a>
</g>
<!-- Node8&#45;&gt;Node9 -->
<g id="edge16" class="edge"><title>Node8&#45;&gt;Node9</title>
<path fill="none" stroke="midnightblue" d="M608.237,-17C616.665,-17 625.468,-17 634.189,-17"/>
<polygon fill="midnightblue" stroke="midnightblue" points="634.362,-20.5001 644.362,-17 634.362,-13.5001 634.362,-20.5001"/>
</g>
</g>
</svg>
