<?xml version="1.0" encoding="UTF-8" standalone="no"?>
<!DOCTYPE svg PUBLIC "-//W3C//DTD SVG 1.1//EN"
 "http://www.w3.org/Graphics/SVG/1.1/DTD/svg11.dtd">
<!-- Generated by graphviz version 2.26.3 (20100126.1600)
 -->
<!-- Title: CSyncerSet::sync Pages: 1 -->
<svg width="1048pt" height="222pt"
 viewBox="0.00 0.00 1048.00 221.64" xmlns="http://www.w3.org/2000/svg" xmlns:xlink="http://www.w3.org/1999/xlink">
<g id="graph1" class="graph" transform="scale(1 1) rotate(0) translate(4 217.64)">
<title>CSyncerSet::sync</title>
<polygon fill="white" stroke="white" points="-4,5 -4,-217.64 1045,-217.64 1045,5 -4,5"/>
<!-- Node1 -->
<g id="node1" class="node"><title>Node1</title>
<polygon fill="#bfbfbf" stroke="black" points="0.5,-91.5 0.5,-112.5 101.5,-112.5 101.5,-91.5 0.5,-91.5"/>
<text text-anchor="middle" x="51" y="-99.5" font-family="Verdana" font-size="10.00">CSyncerSet::sync</text>
</g>
<!-- Node2 -->
<g id="node3" class="node"><title>Node2</title>
<a xlink:href="classCAreaConfiguration.html#a5f72a0349e2309a77459650ba10918a1" target="_top" xlink:title="CAreaConfiguration\l::restore">
<polygon fill="white" stroke="black" points="161,-130 161,-164 271,-164 271,-130 161,-130"/>
<text text-anchor="start" x="169" y="-151" font-family="Verdana" font-size="10.00">CAreaConfiguration</text>
<text text-anchor="middle" x="216" y="-138" font-family="Verdana" font-size="10.00">::restore</text>
</a>
</g>
<!-- Node1&#45;&gt;Node2 -->
<g id="edge2" class="edge"><title>Node1&#45;&gt;Node2</title>
<path fill="none" stroke="midnightblue" d="M99.431,-115.208C118.643,-120.448 140.846,-126.503 160.686,-131.914"/>
<polygon fill="midnightblue" stroke="midnightblue" points="100.254,-111.805 89.6852,-112.551 98.4119,-118.558 100.254,-111.805"/>
</g>
<!-- Node5 -->
<g id="node9" class="node"><title>Node5</title>
<a xlink:href="classCConfigurableDomains.html#ab8f2aa74fe0ed3e98fa052587d6c417d" target="_top" xlink:title="CConfigurableDomains\l::apply">
<polygon fill="white" stroke="black" points="682,-155 682,-189 808,-189 808,-155 682,-155"/>
<text text-anchor="start" x="690" y="-176" font-family="Verdana" font-size="10.00">CConfigurableDomains</text>
<text text-anchor="middle" x="745" y="-163" font-family="Verdana" font-size="10.00">::apply</text>
</a>
</g>
<!-- Node1&#45;&gt;Node5 -->
<g id="edge18" class="edge"><title>Node1&#45;&gt;Node5</title>
<path fill="none" stroke="midnightblue" d="M66.4516,-120.331C82.3468,-137.647 108.843,-162.485 138,-173 326.104,-240.838 568.84,-207.562 681.878,-185.796"/>
<polygon fill="midnightblue" stroke="midnightblue" points="68.7883,-117.691 59.5349,-112.531 63.5508,-122.335 68.7883,-117.691"/>
</g>
<!-- Node6 -->
<g id="node11" class="node"><title>Node6</title>
<a xlink:href="classCConfigurableDomain.html#aa9e776e80956f8cc956b77213aae96ec" target="_top" xlink:title="CConfigurableDomain\l::restoreConfiguration">
<polygon fill="white" stroke="black" points="524.5,-81 524.5,-115 645.5,-115 645.5,-81 524.5,-81"/>
<text text-anchor="start" x="532.5" y="-102" font-family="Verdana" font-size="10.00">CConfigurableDomain</text>
<text text-anchor="middle" x="585" y="-89" font-family="Verdana" font-size="10.00">::restoreConfiguration</text>
</a>
</g>
<!-- Node1&#45;&gt;Node6 -->
<g id="edge16" class="edge"><title>Node1&#45;&gt;Node6</title>
<path fill="none" stroke="midnightblue" d="M111.932,-101.544C214.703,-100.774 421.322,-99.226 524.084,-98.4563"/>
<polygon fill="midnightblue" stroke="midnightblue" points="111.692,-98.0452 101.719,-101.62 111.745,-105.045 111.692,-98.0452"/>
</g>
<!-- Node9 -->
<g id="node19" class="node"><title>Node9</title>
<a xlink:href="classCHardwareBackSynchronizer.html#abc01484c03230247c0a8a3982140b652" target="_top" xlink:title="CHardwareBackSynchronizer\l::sync">
<polygon fill="white" stroke="black" points="138.5,-40 138.5,-74 293.5,-74 293.5,-40 138.5,-40"/>
<text text-anchor="start" x="146.5" y="-61" font-family="Verdana" font-size="10.00">CHardwareBackSynchronizer</text>
<text text-anchor="middle" x="216" y="-48" font-family="Verdana" font-size="10.00">::sync</text>
</a>
</g>
<!-- Node1&#45;&gt;Node9 -->
<g id="edge20" class="edge"><title>Node1&#45;&gt;Node9</title>
<path fill="none" stroke="midnightblue" d="M99.3381,-88.8169C116.235,-84.2085 135.455,-78.9669 153.349,-74.0865"/>
<polygon fill="midnightblue" stroke="midnightblue" points="98.4119,-85.4416 89.6852,-91.4495 100.254,-92.1949 98.4119,-85.4416"/>
</g>
<!-- Node10 -->
<g id="node21" class="node"><title>Node10</title>
<a xlink:href="classCParameterMgr.html#a3c23f1ef6dbe73de230fe429af194937" target="_top" xlink:title="CParameterMgr::sync">
<polygon fill="white" stroke="black" points="156.5,-0.5 156.5,-21.5 275.5,-21.5 275.5,-0.5 156.5,-0.5"/>
<text text-anchor="middle" x="216" y="-8.5" font-family="Verdana" font-size="10.00">CParameterMgr::sync</text>
</a>
</g>
<!-- Node1&#45;&gt;Node10 -->
<g id="edge22" class="edge"><title>Node1&#45;&gt;Node10</title>
<path fill="none" stroke="midnightblue" d="M68.1713,-84.0986C84.6387,-67.9421 110.932,-44.6725 138,-31 145.487,-27.2182 153.749,-24.1104 162.012,-21.5686"/>
<polygon fill="midnightblue" stroke="midnightblue" points="65.4916,-81.8294 60.9163,-91.3854 70.4522,-86.7683 65.4916,-81.8294"/>
</g>
<!-- Node3 -->
<g id="node5" class="node"><title>Node3</title>
<a xlink:href="classCDomainConfiguration.html#a1e837621d00a5ed2282c525c25a484e7" target="_top" xlink:title="CDomainConfiguration\l::restore">
<polygon fill="white" stroke="black" points="346.5,-130 346.5,-164 471.5,-164 471.5,-130 346.5,-130"/>
<text text-anchor="start" x="354.5" y="-151" font-family="Verdana" font-size="10.00">CDomainConfiguration</text>
<text text-anchor="middle" x="409" y="-138" font-family="Verdana" font-size="10.00">::restore</text>
</a>
</g>
<!-- Node2&#45;&gt;Node3 -->
<g id="edge4" class="edge"><title>Node2&#45;&gt;Node3</title>
<path fill="none" stroke="midnightblue" d="M281.186,-147C302.244,-147 325.533,-147 346.399,-147"/>
<polygon fill="midnightblue" stroke="midnightblue" points="281.048,-143.5 271.048,-147 281.048,-150.5 281.048,-143.5"/>
</g>
<!-- Node4 -->
<g id="node7" class="node"><title>Node4</title>
<a xlink:href="classCConfigurableDomain.html#a928805e163719f902c207c061ab3b1c2" target="_top" xlink:title="CConfigurableDomain\l::apply">
<polygon fill="white" stroke="black" points="524.5,-133 524.5,-167 645.5,-167 645.5,-133 524.5,-133"/>
<text text-anchor="start" x="532.5" y="-154" font-family="Verdana" font-size="10.00">CConfigurableDomain</text>
<text text-anchor="middle" x="585" y="-141" font-family="Verdana" font-size="10.00">::apply</text>
</a>
</g>
<!-- Node3&#45;&gt;Node4 -->
<g id="edge6" class="edge"><title>Node3&#45;&gt;Node4</title>
<path fill="none" stroke="midnightblue" d="M481.76,-148.24C495.949,-148.482 510.684,-148.733 524.427,-148.968"/>
<polygon fill="midnightblue" stroke="midnightblue" points="481.605,-144.737 471.547,-148.066 481.485,-151.736 481.605,-144.737"/>
</g>
<!-- Node3&#45;&gt;Node6 -->
<g id="edge10" class="edge"><title>Node3&#45;&gt;Node6</title>
<path fill="none" stroke="midnightblue" d="M480.093,-127.207C494.764,-123.123 510.085,-118.857 524.343,-114.887"/>
<polygon fill="midnightblue" stroke="midnightblue" points="478.757,-123.946 470.062,-130 480.635,-130.689 478.757,-123.946"/>
</g>
<!-- Node4&#45;&gt;Node5 -->
<g id="edge8" class="edge"><title>Node4&#45;&gt;Node5</title>
<path fill="none" stroke="midnightblue" d="M655.97,-159.758C664.585,-160.943 673.341,-162.147 681.833,-163.315"/>
<polygon fill="midnightblue" stroke="midnightblue" points="656.329,-156.275 645.946,-158.38 655.376,-163.21 656.329,-156.275"/>
</g>
<!-- Node7 -->
<g id="node13" class="node"><title>Node7</title>
<a xlink:href="classCConfigurableDomains.html#a9fa62075b2521f79af18240367662cc7" target="_top" xlink:title="CConfigurableDomains\l::restoreConfiguration">
<polygon fill="white" stroke="black" points="682,-81 682,-115 808,-115 808,-81 682,-81"/>
<text text-anchor="start" x="690" y="-102" font-family="Verdana" font-size="10.00">CConfigurableDomains</text>
<text text-anchor="middle" x="745" y="-89" font-family="Verdana" font-size="10.00">::restoreConfiguration</text>
</a>
</g>
<!-- Node6&#45;&gt;Node7 -->
<g id="edge12" class="edge"><title>Node6&#45;&gt;Node7</title>
<path fill="none" stroke="midnightblue" d="M655.97,-98C664.585,-98 673.341,-98 681.833,-98"/>
<polygon fill="midnightblue" stroke="midnightblue" points="655.946,-94.5001 645.946,-98 655.946,-101.5 655.946,-94.5001"/>
</g>
<!-- Node8 -->
<g id="node15" class="node"><title>Node8</title>
<a xlink:href="classCParameterMgr.html#a04786772b59275eef5f1af23dc9a639d" target="_top" xlink:title="CParameterMgr::restoreConfiguration">
<polygon fill="white" stroke="black" points="844,-87.5 844,-108.5 1040,-108.5 1040,-87.5 844,-87.5"/>
<text text-anchor="middle" x="942" y="-95.5" font-family="Verdana" font-size="10.00">CParameterMgr::restoreConfiguration</text>
</a>
</g>
<!-- Node7&#45;&gt;Node8 -->
<g id="edge14" class="edge"><title>Node7&#45;&gt;Node8</title>
<path fill="none" stroke="midnightblue" d="M818.166,-98C826.501,-98 835.097,-98 843.69,-98"/>
<polygon fill="midnightblue" stroke="midnightblue" points="818.145,-94.5001 808.145,-98 818.145,-101.5 818.145,-94.5001"/>
</g>
<!-- Node11 -->
<g id="node23" class="node"><title>Node11</title>
<a xlink:href="classCParameterMgr.html#acdcc1016dc61898195e8855979803572" target="_top" xlink:title="Sync. ">
<polygon fill="white" stroke="black" points="330,-0.5 330,-21.5 488,-21.5 488,-0.5 330,-0.5"/>
<text text-anchor="middle" x="409" y="-8.5" font-family="Verdana" font-size="10.00">CParameterMgr::setAutoSync</text>
</a>
</g>
<!-- Node10&#45;&gt;Node11 -->
<g id="edge24" class="edge"><title>Node10&#45;&gt;Node11</title>
<path fill="none" stroke="midnightblue" d="M285.921,-11C300.125,-11 315.162,-11 329.665,-11"/>
<polygon fill="midnightblue" stroke="midnightblue" points="285.745,-7.5001 275.745,-11 285.745,-14.5001 285.745,-7.5001"/>
</g>
</g>
</svg>
