<?xml version="1.0" encoding="UTF-8" standalone="no"?>
<!DOCTYPE svg PUBLIC "-//W3C//DTD SVG 1.1//EN"
 "http://www.w3.org/Graphics/SVG/1.1/DTD/svg11.dtd">
<!-- Generated by graphviz version 2.26.3 (20100126.1600)
 -->
<!-- Title: CRuleParser::next Pages: 1 -->
<svg width="1118pt" height="42pt"
 viewBox="0.00 0.00 1118.00 42.00" xmlns="http://www.w3.org/2000/svg" xmlns:xlink="http://www.w3.org/1999/xlink">
<g id="graph1" class="graph" transform="scale(1 1) rotate(0) translate(4 38)">
<title>CRuleParser::next</title>
<polygon fill="white" stroke="white" points="-4,5 -4,-38 1115,-38 1115,5 -4,5"/>
<!-- Node1 -->
<g id="node1" class="node"><title>Node1</title>
<polygon fill="#bfbfbf" stroke="black" points="0,-6.5 0,-27.5 100,-27.5 100,-6.5 0,-6.5"/>
<text text-anchor="middle" x="50" y="-14.5" font-family="Verdana" font-size="10.00">CRuleParser::next</text>
</g>
<!-- Node2 -->
<g id="node3" class="node"><title>Node2</title>
<a xlink:href="classCSelectionCriterionRule.html#a4ee8e0274ac8c7bf5a2452002aa7ae0e" target="_top" xlink:title="CSelectionCriterionRule\l::parse">
<polygon fill="white" stroke="black" points="136,-0 136,-34 264,-34 264,-0 136,-0"/>
<text text-anchor="start" x="144" y="-21" font-family="Verdana" font-size="10.00">CSelectionCriterionRule</text>
<text text-anchor="middle" x="200" y="-8" font-family="Verdana" font-size="10.00">::parse</text>
</a>
</g>
<!-- Node1&#45;&gt;Node2 -->
<g id="edge2" class="edge"><title>Node1&#45;&gt;Node2</title>
<path fill="none" stroke="midnightblue" d="M110.44,-17C118.826,-17 127.465,-17 135.916,-17"/>
<polygon fill="midnightblue" stroke="midnightblue" points="110.365,-13.5001 100.365,-17 110.365,-20.5001 110.365,-13.5001"/>
</g>
<!-- Node3 -->
<g id="node5" class="node"><title>Node3</title>
<a xlink:href="classCRuleParser.html#acbce516a22f0dca0af620e751d298f7a" target="_top" xlink:title="CRuleParser::parse">
<polygon fill="white" stroke="black" points="300,-6.5 300,-27.5 406,-27.5 406,-6.5 300,-6.5"/>
<text text-anchor="middle" x="353" y="-14.5" font-family="Verdana" font-size="10.00">CRuleParser::parse</text>
</a>
</g>
<!-- Node2&#45;&gt;Node3 -->
<g id="edge4" class="edge"><title>Node2&#45;&gt;Node3</title>
<path fill="none" stroke="midnightblue" d="M274.711,-17C283.163,-17 291.645,-17 299.743,-17"/>
<polygon fill="midnightblue" stroke="midnightblue" points="274.442,-13.5001 264.442,-17 274.442,-20.5001 274.442,-13.5001"/>
</g>
<!-- Node4 -->
<g id="node7" class="node"><title>Node4</title>
<a xlink:href="classCDomainConfiguration.html#a3b12c8d561b1e468bd03214326bdf450" target="_top" xlink:title="CDomainConfiguration\l::setApplicationRule">
<polygon fill="white" stroke="black" points="442.5,-0 442.5,-34 567.5,-34 567.5,-0 442.5,-0"/>
<text text-anchor="start" x="450.5" y="-21" font-family="Verdana" font-size="10.00">CDomainConfiguration</text>
<text text-anchor="middle" x="505" y="-8" font-family="Verdana" font-size="10.00">::setApplicationRule</text>
</a>
</g>
<!-- Node3&#45;&gt;Node4 -->
<g id="edge6" class="edge"><title>Node3&#45;&gt;Node4</title>
<path fill="none" stroke="midnightblue" d="M416.22,-17C424.901,-17 433.811,-17 442.48,-17"/>
<polygon fill="midnightblue" stroke="midnightblue" points="416.162,-13.5001 406.162,-17 416.162,-20.5001 416.162,-13.5001"/>
</g>
<!-- Node5 -->
<g id="node9" class="node"><title>Node5</title>
<a xlink:href="classCConfigurableDomain.html#ab28e6a66ae7197d4fa131193f32891f4" target="_top" xlink:title="CConfigurableDomain\l::setApplicationRule">
<polygon fill="white" stroke="black" points="604.5,-0 604.5,-34 725.5,-34 725.5,-0 604.5,-0"/>
<text text-anchor="start" x="612.5" y="-21" font-family="Verdana" font-size="10.00">CConfigurableDomain</text>
<text text-anchor="middle" x="665" y="-8" font-family="Verdana" font-size="10.00">::setApplicationRule</text>
</a>
</g>
<!-- Node4&#45;&gt;Node5 -->
<g id="edge8" class="edge"><title>Node4&#45;&gt;Node5</title>
<path fill="none" stroke="midnightblue" d="M577.787,-17C586.72,-17 595.774,-17 604.498,-17"/>
<polygon fill="midnightblue" stroke="midnightblue" points="577.777,-13.5001 567.777,-17 577.777,-20.5001 577.777,-13.5001"/>
</g>
<!-- Node6 -->
<g id="node11" class="node"><title>Node6</title>
<a xlink:href="classCConfigurableDomains.html#ac2b2354eecc80c7ca4a71fe2f40606ed" target="_top" xlink:title="CConfigurableDomains\l::setApplicationRule">
<polygon fill="white" stroke="black" points="762,-0 762,-34 888,-34 888,-0 762,-0"/>
<text text-anchor="start" x="770" y="-21" font-family="Verdana" font-size="10.00">CConfigurableDomains</text>
<text text-anchor="middle" x="825" y="-8" font-family="Verdana" font-size="10.00">::setApplicationRule</text>
</a>
</g>
<!-- Node5&#45;&gt;Node6 -->
<g id="edge10" class="edge"><title>Node5&#45;&gt;Node6</title>
<path fill="none" stroke="midnightblue" d="M735.97,-17C744.585,-17 753.341,-17 761.833,-17"/>
<polygon fill="midnightblue" stroke="midnightblue" points="735.946,-13.5001 725.946,-17 735.946,-20.5001 735.946,-13.5001"/>
</g>
<!-- Node7 -->
<g id="node13" class="node"><title>Node7</title>
<a xlink:href="classCParameterMgr.html#af63f9ad7f792b2bf226afd791c1db70e" target="_top" xlink:title="CParameterMgr::setApplicationRule">
<polygon fill="white" stroke="black" points="924.5,-6.5 924.5,-27.5 1109.5,-27.5 1109.5,-6.5 924.5,-6.5"/>
<text text-anchor="middle" x="1017" y="-14.5" font-family="Verdana" font-size="10.00">CParameterMgr::setApplicationRule</text>
</a>
</g>
<!-- Node6&#45;&gt;Node7 -->
<g id="edge12" class="edge"><title>Node6&#45;&gt;Node7</title>
<path fill="none" stroke="midnightblue" d="M898.344,-17C906.831,-17 915.57,-17 924.272,-17"/>
<polygon fill="midnightblue" stroke="midnightblue" points="898.134,-13.5001 888.134,-17 898.134,-20.5001 898.134,-13.5001"/>
</g>
</g>
</svg>
