<?xml version="1.0" encoding="UTF-8" standalone="no"?>
<!DOCTYPE svg PUBLIC "-//W3C//DTD SVG 1.1//EN"
 "http://www.w3.org/Graphics/SVG/1.1/DTD/svg11.dtd">
<!-- Generated by graphviz version 2.26.3 (20100126.1600)
 -->
<!-- Title: CPathNavigator::navigateThrough Pages: 1 -->
<svg width="352pt" height="70pt"
 viewBox="0.00 0.00 352.00 70.00" xmlns="http://www.w3.org/2000/svg" xmlns:xlink="http://www.w3.org/1999/xlink">
<g id="graph1" class="graph" transform="scale(1 1) rotate(0) translate(4 66)">
<title>CPathNavigator::navigateThrough</title>
<polygon fill="white" stroke="white" points="-4,5 -4,-66 349,-66 349,5 -4,5"/>
<!-- Node1 -->
<g id="node1" class="node"><title>Node1</title>
<polygon fill="#bfbfbf" stroke="black" points="0,-14 0,-48 138,-48 138,-14 0,-14"/>
<text text-anchor="start" x="8" y="-35" font-family="Verdana" font-size="10.00">CPathNavigator::navigate</text>
<text text-anchor="middle" x="69" y="-22" font-family="Verdana" font-size="10.00">Through</text>
</g>
<!-- Node2 -->
<g id="node3" class="node"><title>Node2</title>
<a xlink:href="classCPathNavigator.html#a0fbd92beb48fdfb2041788cf77d44cf1" target="_top" xlink:title="CPathNavigator::getCurrentPath">
<polygon fill="white" stroke="black" points="174,-40.5 174,-61.5 344,-61.5 344,-40.5 174,-40.5"/>
<text text-anchor="middle" x="259" y="-48.5" font-family="Verdana" font-size="10.00">CPathNavigator::getCurrentPath</text>
</a>
</g>
<!-- Node1&#45;&gt;Node2 -->
<g id="edge2" class="edge"><title>Node1&#45;&gt;Node2</title>
<path fill="none" stroke="midnightblue" d="M138.132,-38.277C146.444,-39.1521 155.043,-40.0572 163.646,-40.9627"/>
<polygon fill="midnightblue" stroke="midnightblue" points="163.418,-44.458 173.729,-42.0241 164.151,-37.4964 163.418,-44.458"/>
</g>
<!-- Node3 -->
<g id="node5" class="node"><title>Node3</title>
<a xlink:href="classCPathNavigator.html#a06f35d45c0bf392e11de0bf1197cc589" target="_top" xlink:title="CPathNavigator::next">
<polygon fill="white" stroke="black" points="200,-0.5 200,-21.5 318,-21.5 318,-0.5 200,-0.5"/>
<text text-anchor="middle" x="259" y="-8.5" font-family="Verdana" font-size="10.00">CPathNavigator::next</text>
</a>
</g>
<!-- Node1&#45;&gt;Node3 -->
<g id="edge4" class="edge"><title>Node1&#45;&gt;Node3</title>
<path fill="none" stroke="midnightblue" d="M138.132,-23.723C154.915,-21.9564 172.863,-20.067 189.656,-18.2994"/>
<polygon fill="midnightblue" stroke="midnightblue" points="190.363,-21.7444 199.942,-17.2167 189.63,-14.7828 190.363,-21.7444"/>
</g>
</g>
</svg>
