<?xml version="1.0" encoding="UTF-8" standalone="no"?>
<!DOCTYPE svg PUBLIC "-//W3C//DTD SVG 1.1//EN"
 "http://www.w3.org/Graphics/SVG/1.1/DTD/svg11.dtd">
<!-- Generated by graphviz version 2.26.3 (20100126.1600)
 -->
<!-- Title: CBaseParameter::appendParameterPathToError Pages: 1 -->
<svg width="394pt" height="88pt"
 viewBox="0.00 0.00 394.00 88.00" xmlns="http://www.w3.org/2000/svg" xmlns:xlink="http://www.w3.org/1999/xlink">
<g id="graph1" class="graph" transform="scale(1 1) rotate(0) translate(4 84)">
<title>CBaseParameter::appendParameterPathToError</title>
<polygon fill="white" stroke="white" points="-4,5 -4,-84 391,-84 391,5 -4,5"/>
<!-- Node1 -->
<g id="node1" class="node"><title>Node1</title>
<polygon fill="#bfbfbf" stroke="black" points="0,-23 0,-57 190,-57 190,-23 0,-23"/>
<text text-anchor="start" x="8" y="-44" font-family="Verdana" font-size="10.00">CBaseParameter::appendParameter</text>
<text text-anchor="middle" x="95" y="-31" font-family="Verdana" font-size="10.00">PathToError</text>
</g>
<!-- Node2 -->
<g id="node3" class="node"><title>Node2</title>
<a xlink:href="classCErrorContext.html#afdd38e8aaaf045faaf575cf3ccbbc37b" target="_top" xlink:title="CErrorContext::appendToError">
<polygon fill="white" stroke="black" points="226.5,-58.5 226.5,-79.5 385.5,-79.5 385.5,-58.5 226.5,-58.5"/>
<text text-anchor="middle" x="306" y="-66.5" font-family="Verdana" font-size="10.00">CErrorContext::appendToError</text>
</a>
</g>
<!-- Node1&#45;&gt;Node2 -->
<g id="edge2" class="edge"><title>Node1&#45;&gt;Node2</title>
<path fill="none" stroke="midnightblue" d="M190.007,-53.0578C199.83,-54.4079 209.776,-55.7749 219.499,-57.1112"/>
<polygon fill="midnightblue" stroke="midnightblue" points="219.153,-60.5965 229.536,-58.4908 220.106,-53.6617 219.153,-60.5965"/>
</g>
<!-- Node3 -->
<g id="node5" class="node"><title>Node3</title>
<a xlink:href="classCElement.html#a7022c0fc8063f0aae9d97b06e74d4ac1" target="_top" xlink:title="CElement::getPath">
<polygon fill="white" stroke="black" points="253,-0.5 253,-21.5 359,-21.5 359,-0.5 253,-0.5"/>
<text text-anchor="middle" x="306" y="-8.5" font-family="Verdana" font-size="10.00">CElement::getPath</text>
</a>
</g>
<!-- Node1&#45;&gt;Node3 -->
<g id="edge4" class="edge"><title>Node1&#45;&gt;Node3</title>
<path fill="none" stroke="midnightblue" d="M190.007,-26.9422C207.852,-24.4896 226.101,-21.9813 242.686,-19.702"/>
<polygon fill="midnightblue" stroke="midnightblue" points="243.348,-23.1439 252.778,-18.3149 242.395,-16.2091 243.348,-23.1439"/>
</g>
<!-- Node3&#45;&gt;Node3 -->
<g id="edge6" class="edge"><title>Node3&#45;&gt;Node3</title>
<path fill="none" stroke="midnightblue" d="M272.633,-21.7079C258.374,-30.6531 269.496,-40 306,-40 331.096,-40 344.196,-35.5821 345.299,-29.9142"/>
<polygon fill="midnightblue" stroke="midnightblue" points="348.062,-27.7617 339.367,-21.7079 342.389,-31.8626 348.062,-27.7617"/>
</g>
</g>
</svg>
