<?xml version="1.0" encoding="UTF-8" standalone="no"?>
<!DOCTYPE svg PUBLIC "-//W3C//DTD SVG 1.1//EN"
 "http://www.w3.org/Graphics/SVG/1.1/DTD/svg11.dtd">
<!-- Generated by graphviz version 2.26.3 (20100126.1600)
 -->
<!-- Title: CComponentInstance::getMappingData Pages: 1 -->
<svg width="350pt" height="60pt"
 viewBox="0.00 0.00 350.00 60.00" xmlns="http://www.w3.org/2000/svg" xmlns:xlink="http://www.w3.org/1999/xlink">
<g id="graph1" class="graph" transform="scale(1 1) rotate(0) translate(4 56)">
<title>CComponentInstance::getMappingData</title>
<polygon fill="white" stroke="white" points="-4,5 -4,-56 347,-56 347,5 -4,5"/>
<!-- Node1 -->
<g id="node1" class="node"><title>Node1</title>
<polygon fill="#bfbfbf" stroke="black" points="0,-0 0,-34 120,-34 120,-0 0,-0"/>
<text text-anchor="start" x="8" y="-21" font-family="Verdana" font-size="10.00">CComponentInstance</text>
<text text-anchor="middle" x="60" y="-8" font-family="Verdana" font-size="10.00">::getMappingData</text>
</g>
<!-- Node1&#45;&gt;Node1 -->
<g id="edge2" class="edge"><title>Node1&#45;&gt;Node1</title>
<path fill="none" stroke="midnightblue" d="M26.2044,-34.2878C20.4614,-43.5562 31.7266,-52 60,-52 77.2291,-52 88.1424,-48.8645 92.74,-44.3176"/>
<polygon fill="midnightblue" stroke="midnightblue" points="96.2296,-44.5992 93.7956,-34.2878 89.268,-43.8665 96.2296,-44.5992"/>
</g>
<!-- Node2 -->
<g id="node4" class="node"><title>Node2</title>
<a xlink:href="classCComponentType.html#aadf6bd9a839593915d9007d6833af19c" target="_top" xlink:title="CComponentType::getMappingData">
<polygon fill="white" stroke="black" points="156,-6.5 156,-27.5 342,-27.5 342,-6.5 156,-6.5"/>
<text text-anchor="middle" x="249" y="-14.5" font-family="Verdana" font-size="10.00">CComponentType::getMappingData</text>
</a>
</g>
<!-- Node1&#45;&gt;Node2 -->
<g id="edge4" class="edge"><title>Node1&#45;&gt;Node2</title>
<path fill="none" stroke="midnightblue" d="M120.06,-17C128.385,-17 137.123,-17 145.961,-17"/>
<polygon fill="midnightblue" stroke="midnightblue" points="145.965,-20.5001 155.965,-17 145.965,-13.5001 145.965,-20.5001"/>
</g>
<!-- Node2&#45;&gt;Node2 -->
<g id="edge6" class="edge"><title>Node2&#45;&gt;Node2</title>
<path fill="none" stroke="midnightblue" d="M219.129,-27.7079C206.363,-36.6531 216.32,-46 249,-46 270.957,-46 282.656,-41.7807 284.098,-36.2987"/>
<polygon fill="midnightblue" stroke="midnightblue" points="287.059,-34.4318 278.871,-27.7079 281.079,-38.0702 287.059,-34.4318"/>
</g>
</g>
</svg>
