<?xml version="1.0" encoding="UTF-8" standalone="no"?>
<!DOCTYPE svg PUBLIC "-//W3C//DTD SVG 1.1//EN"
 "http://www.w3.org/Graphics/SVG/1.1/DTD/svg11.dtd">
<!-- Generated by graphviz version 2.26.3 (20100126.1600)
 -->
<!-- Title: CCompoundRule Pages: 1 -->
<svg width="152pt" height="204pt"
 viewBox="0.00 0.00 152.00 204.00" xmlns="http://www.w3.org/2000/svg" xmlns:xlink="http://www.w3.org/1999/xlink">
<g id="graph1" class="graph" transform="scale(1 1) rotate(0) translate(4 200)">
<title>CCompoundRule</title>
<polygon fill="white" stroke="white" points="-4,5 -4,-200 149,-200 149,5 -4,5"/>
<!-- Node1 -->
<g id="node1" class="node"><title>Node1</title>
<polygon fill="#bfbfbf" stroke="black" points="20.5,-0.5 20.5,-21.5 115.5,-21.5 115.5,-0.5 20.5,-0.5"/>
<text text-anchor="middle" x="68" y="-8.5" font-family="Verdana" font-size="10.00">CCompoundRule</text>
</g>
<!-- Node2 -->
<g id="node2" class="node"><title>Node2</title>
<a xlink:href="classCRule.html" target="_top" xlink:title="CRule">
<polygon fill="white" stroke="black" points="46.5,-58.5 46.5,-79.5 89.5,-79.5 89.5,-58.5 46.5,-58.5"/>
<text text-anchor="middle" x="68" y="-66.5" font-family="Verdana" font-size="10.00">CRule</text>
</a>
</g>
<!-- Node2&#45;&gt;Node1 -->
<g id="edge2" class="edge"><title>Node2&#45;&gt;Node1</title>
<path fill="none" stroke="midnightblue" d="M68,-48.1906C68,-39.1684 68,-28.9941 68,-21.5707"/>
<polygon fill="midnightblue" stroke="midnightblue" points="64.5001,-48.3619 68,-58.3619 71.5001,-48.3619 64.5001,-48.3619"/>
</g>
<!-- Node3 -->
<g id="node4" class="node"><title>Node3</title>
<a xlink:href="classCElement.html" target="_top" xlink:title="CElement">
<polygon fill="white" stroke="black" points="36.5,-116.5 36.5,-137.5 99.5,-137.5 99.5,-116.5 36.5,-116.5"/>
<text text-anchor="middle" x="68" y="-124.5" font-family="Verdana" font-size="10.00">CElement</text>
</a>
</g>
<!-- Node3&#45;&gt;Node2 -->
<g id="edge4" class="edge"><title>Node3&#45;&gt;Node2</title>
<path fill="none" stroke="midnightblue" d="M68,-106.191C68,-97.1684 68,-86.9941 68,-79.5707"/>
<polygon fill="midnightblue" stroke="midnightblue" points="64.5001,-106.362 68,-116.362 71.5001,-106.362 64.5001,-106.362"/>
</g>
<!-- Node4 -->
<g id="node6" class="node"><title>Node4</title>
<polygon fill="white" stroke="#bfbfbf" points="-0.5,-174.5 -0.5,-195.5 56.5,-195.5 56.5,-174.5 -0.5,-174.5"/>
<text text-anchor="middle" x="28" y="-182.5" font-family="Verdana" font-size="10.00">IXmlSink</text>
</g>
<!-- Node4&#45;&gt;Node3 -->
<g id="edge6" class="edge"><title>Node4&#45;&gt;Node3</title>
<path fill="none" stroke="midnightblue" d="M41.1317,-165.959C47.64,-156.522 55.2528,-145.484 60.7099,-137.571"/>
<polygon fill="midnightblue" stroke="midnightblue" points="38.1327,-164.143 35.3366,-174.362 43.8952,-168.117 38.1327,-164.143"/>
</g>
<!-- Node5 -->
<g id="node8" class="node"><title>Node5</title>
<polygon fill="white" stroke="#bfbfbf" points="73.5,-174.5 73.5,-195.5 144.5,-195.5 144.5,-174.5 73.5,-174.5"/>
<text text-anchor="middle" x="109" y="-182.5" font-family="Verdana" font-size="10.00">IXmlSource</text>
</g>
<!-- Node5&#45;&gt;Node3 -->
<g id="edge8" class="edge"><title>Node5&#45;&gt;Node3</title>
<path fill="none" stroke="midnightblue" d="M95.54,-165.959C88.869,-156.522 81.0659,-145.484 75.4724,-137.571"/>
<polygon fill="midnightblue" stroke="midnightblue" points="92.8495,-168.216 101.48,-174.362 98.5656,-164.176 92.8495,-168.216"/>
</g>
</g>
</svg>
