<?xml version="1.0" encoding="UTF-8" standalone="no"?>
<!DOCTYPE svg PUBLIC "-//W3C//DTD SVG 1.1//EN"
 "http://www.w3.org/Graphics/SVG/1.1/DTD/svg11.dtd">
<!-- Generated by graphviz version 2.26.3 (20100126.1600)
 -->
<!-- Title: CDefaultElementLibrary&lt; CDefaultElementBuilder &gt; Pages: 1 -->
<svg width="272pt" height="274pt"
 viewBox="0.00 0.00 272.00 274.00" xmlns="http://www.w3.org/2000/svg" xmlns:xlink="http://www.w3.org/1999/xlink">
<g id="graph1" class="graph" transform="scale(1 1) rotate(0) translate(4 270)">
<title>CDefaultElementLibrary&lt; CDefaultElementBuilder &gt;</title>
<polygon fill="white" stroke="white" points="-4,5 -4,-270 269,-270 269,5 -4,5"/>
<!-- Node1 -->
<g id="node1" class="node"><title>Node1</title>
<polygon fill="#bfbfbf" stroke="black" points="15.5,-171 15.5,-205 168.5,-205 168.5,-171 15.5,-171"/>
<text text-anchor="start" x="23.5" y="-192" font-family="Verdana" font-size="10.00">CDefaultElementLibrary</text>
<text text-anchor="middle" x="92" y="-179" font-family="Verdana" font-size="10.00">&lt; CDefaultElementBuilder &gt;</text>
</g>
<!-- Node3 -->
<g id="node5" class="node"><title>Node3</title>
<a xlink:href="classCDefaultElementLibrary.html" target="_top" xlink:title="CDefaultElementLibrary\l\&lt; TNamedElementBuilderTemplate\l\&lt; CVirtualSubsystem \&gt; \&gt;">
<polygon fill="white" stroke="black" points="-0.5,-60.5 -0.5,-107.5 184.5,-107.5 184.5,-60.5 -0.5,-60.5"/>
<text text-anchor="start" x="7.5" y="-94.5" font-family="Verdana" font-size="10.00">CDefaultElementLibrary</text>
<text text-anchor="start" x="7.5" y="-81.5" font-family="Verdana" font-size="10.00">&lt; TNamedElementBuilderTemplate</text>
<text text-anchor="middle" x="92" y="-68.5" font-family="Verdana" font-size="10.00">&lt; CVirtualSubsystem &gt; &gt;</text>
</a>
</g>
<!-- Node1&#45;&gt;Node3 -->
<g id="edge4" class="edge"><title>Node1&#45;&gt;Node3</title>
<path fill="none" stroke="orange" stroke-dasharray="5,2" d="M92,-160.745C92,-144.315 92,-123.586 92,-107.815"/>
<polygon fill="orange" stroke="orange" points="88.5001,-160.826 92,-170.827 95.5001,-160.827 88.5001,-160.826"/>
<text text-anchor="start" x="92" y="-143" font-family="Verdana" font-size="10.00"> &lt; TNamedElementBuilderTemplate</text>
<text text-anchor="middle" x="178" y="-130" font-family="Verdana" font-size="10.00">&lt; CVirtualSubsystem &gt; &gt;</text>
</g>
<!-- Node2 -->
<g id="node2" class="node"><title>Node2</title>
<a xlink:href="classCElementLibrary.html" target="_top" xlink:title="CElementLibrary">
<polygon fill="white" stroke="black" points="44.5,-244.5 44.5,-265.5 139.5,-265.5 139.5,-244.5 44.5,-244.5"/>
<text text-anchor="middle" x="92" y="-252.5" font-family="Verdana" font-size="10.00">CElementLibrary</text>
</a>
</g>
<!-- Node2&#45;&gt;Node1 -->
<g id="edge2" class="edge"><title>Node2&#45;&gt;Node1</title>
<path fill="none" stroke="midnightblue" d="M92,-234.165C92,-224.797 92,-213.88 92,-205.014"/>
<polygon fill="midnightblue" stroke="midnightblue" points="88.5001,-234.235 92,-244.235 95.5001,-234.235 88.5001,-234.235"/>
</g>
<!-- Node4 -->
<g id="node7" class="node"><title>Node4</title>
<a xlink:href="classCSubsystemLibrary.html" target="_top" xlink:title="CSubsystemLibrary">
<polygon fill="white" stroke="black" points="37,-0.5 37,-21.5 147,-21.5 147,-0.5 37,-0.5"/>
<text text-anchor="middle" x="92" y="-8.5" font-family="Verdana" font-size="10.00">CSubsystemLibrary</text>
</a>
</g>
<!-- Node3&#45;&gt;Node4 -->
<g id="edge6" class="edge"><title>Node3&#45;&gt;Node4</title>
<path fill="none" stroke="midnightblue" d="M92,-50.0345C92,-39.7609 92,-29.2182 92,-21.6832"/>
<polygon fill="midnightblue" stroke="midnightblue" points="88.5001,-50.097 92,-60.0971 95.5001,-50.0971 88.5001,-50.097"/>
</g>
</g>
</svg>
