<?xml version="1.0" encoding="UTF-8" standalone="no"?>
<!DOCTYPE svg PUBLIC "-//W3C//DTD SVG 1.1//EN"
 "http://www.w3.org/Graphics/SVG/1.1/DTD/svg11.dtd">
<!-- Generated by graphviz version 2.26.3 (20100126.1600)
 -->
<!-- Title: CBinarySerializableElement::getDataSize Pages: 1 -->
<svg width="526pt" height="94pt"
 viewBox="0.00 0.00 526.00 94.00" xmlns="http://www.w3.org/2000/svg" xmlns:xlink="http://www.w3.org/1999/xlink">
<g id="graph1" class="graph" transform="scale(1 1) rotate(0) translate(4 90)">
<title>CBinarySerializableElement::getDataSize</title>
<polygon fill="white" stroke="white" points="-4,5 -4,-90 523,-90 523,5 -4,5"/>
<!-- Node1 -->
<g id="node1" class="node"><title>Node1</title>
<polygon fill="#bfbfbf" stroke="black" points="0,-26 0,-60 148,-60 148,-26 0,-26"/>
<text text-anchor="start" x="8" y="-47" font-family="Verdana" font-size="10.00">CBinarySerializableElement</text>
<text text-anchor="middle" x="74" y="-34" font-family="Verdana" font-size="10.00">::getDataSize</text>
</g>
<!-- Node1&#45;&gt;Node1 -->
<g id="edge2" class="edge"><title>Node1&#45;&gt;Node1</title>
<path fill="none" stroke="midnightblue" d="M44.0464,-70.3176C48.2527,-74.8645 58.2372,-78 74,-78 99.8672,-78 110.174,-69.5562 104.919,-60.2878"/>
<polygon fill="midnightblue" stroke="midnightblue" points="47.5231,-69.9063 43.0806,-60.2878 40.5553,-70.5773 47.5231,-69.9063"/>
</g>
<!-- Node2 -->
<g id="node4" class="node"><title>Node2</title>
<a xlink:href="classCConfigurableDomains.html#ae9bf3db3133286cb842a613185b7145c" target="_top" xlink:title="CConfigurableDomains\l::serializeSettings">
<polygon fill="white" stroke="black" points="184,-26 184,-60 310,-60 310,-26 184,-26"/>
<text text-anchor="start" x="192" y="-47" font-family="Verdana" font-size="10.00">CConfigurableDomains</text>
<text text-anchor="middle" x="247" y="-34" font-family="Verdana" font-size="10.00">::serializeSettings</text>
</a>
</g>
<!-- Node1&#45;&gt;Node2 -->
<g id="edge4" class="edge"><title>Node1&#45;&gt;Node2</title>
<path fill="none" stroke="midnightblue" d="M158.235,-43C166.881,-43 175.557,-43 183.917,-43"/>
<polygon fill="midnightblue" stroke="midnightblue" points="158.12,-39.5001 148.12,-43 158.12,-46.5001 158.12,-39.5001"/>
</g>
<!-- Node3 -->
<g id="node6" class="node"><title>Node3</title>
<a xlink:href="classCParameterMgr.html#a119c70bbe044eceb5e8cae6cc72ca690" target="_top" xlink:title="CParameterMgr::importDomains\lBinary">
<polygon fill="white" stroke="black" points="346,-52 346,-86 518,-86 518,-52 346,-52"/>
<text text-anchor="start" x="354" y="-73" font-family="Verdana" font-size="10.00">CParameterMgr::importDomains</text>
<text text-anchor="middle" x="432" y="-60" font-family="Verdana" font-size="10.00">Binary</text>
</a>
</g>
<!-- Node2&#45;&gt;Node3 -->
<g id="edge6" class="edge"><title>Node2&#45;&gt;Node3</title>
<path fill="none" stroke="midnightblue" d="M320.284,-53.2993C328.699,-54.482 337.336,-55.6959 345.9,-56.8994"/>
<polygon fill="midnightblue" stroke="midnightblue" points="320.539,-49.8009 310.149,-51.875 319.565,-56.7328 320.539,-49.8009"/>
</g>
<!-- Node4 -->
<g id="node8" class="node"><title>Node4</title>
<a xlink:href="classCParameterMgr.html#a4ba2047e2257649af8a544d5b80396e2" target="_top" xlink:title="CParameterMgr::exportDomains\lBinary">
<polygon fill="white" stroke="black" points="346.5,-0 346.5,-34 517.5,-34 517.5,-0 346.5,-0"/>
<text text-anchor="start" x="354.5" y="-21" font-family="Verdana" font-size="10.00">CParameterMgr::exportDomains</text>
<text text-anchor="middle" x="432" y="-8" font-family="Verdana" font-size="10.00">Binary</text>
</a>
</g>
<!-- Node2&#45;&gt;Node4 -->
<g id="edge8" class="edge"><title>Node2&#45;&gt;Node4</title>
<path fill="none" stroke="midnightblue" d="M320.097,-32.7269C328.679,-31.5208 337.494,-30.282 346.228,-29.0544"/>
<polygon fill="midnightblue" stroke="midnightblue" points="319.565,-29.2672 310.149,-34.125 320.539,-36.1991 319.565,-29.2672"/>
</g>
</g>
</svg>
