<?xml version="1.0" encoding="UTF-8" standalone="no"?>
<!DOCTYPE svg PUBLIC "-//W3C//DTD SVG 1.1//EN"
 "http://www.w3.org/Graphics/SVG/1.1/DTD/svg11.dtd">
<!-- Generated by graphviz version 2.26.3 (20100126.1600)
 -->
<!-- Title: CSelectionCriterionRule::fromXml Pages: 1 -->
<svg width="480pt" height="198pt"
 viewBox="0.00 0.00 480.00 198.00" xmlns="http://www.w3.org/2000/svg" xmlns:xlink="http://www.w3.org/1999/xlink">
<g id="graph1" class="graph" transform="scale(1 1) rotate(0) translate(4 194)">
<title>CSelectionCriterionRule::fromXml</title>
<polygon fill="white" stroke="white" points="-4,5 -4,-194 477,-194 477,5 -4,5"/>
<!-- Node1 -->
<g id="node1" class="node"><title>Node1</title>
<polygon fill="#bfbfbf" stroke="black" points="0,-78 0,-112 128,-112 128,-78 0,-78"/>
<text text-anchor="start" x="8" y="-99" font-family="Verdana" font-size="10.00">CSelectionCriterionRule</text>
<text text-anchor="middle" x="64" y="-86" font-family="Verdana" font-size="10.00">::fromXml</text>
</g>
<!-- Node2 -->
<g id="node3" class="node"><title>Node2</title>
<a xlink:href="classCXmlDomainImportContext.html#a6846a8b738626da74a630624f3635730" target="_top" xlink:title="CXmlDomainImportContext\l::getSelectionCriteriaDefinition">
<polygon fill="white" stroke="black" points="164,-156 164,-190 326,-190 326,-156 164,-156"/>
<text text-anchor="start" x="172" y="-177" font-family="Verdana" font-size="10.00">CXmlDomainImportContext</text>
<text text-anchor="middle" x="245" y="-164" font-family="Verdana" font-size="10.00">::getSelectionCriteriaDefinition</text>
</a>
</g>
<!-- Node1&#45;&gt;Node2 -->
<g id="edge2" class="edge"><title>Node1&#45;&gt;Node2</title>
<path fill="none" stroke="midnightblue" d="M93.5614,-112.055C113.142,-122.928 139.618,-136.833 164,-147 168.452,-148.856 173.085,-150.662 177.783,-152.4"/>
<polygon fill="midnightblue" stroke="midnightblue" points="176.881,-155.794 187.476,-155.866 179.238,-149.203 176.881,-155.794"/>
</g>
<!-- Node3 -->
<g id="node5" class="node"><title>Node3</title>
<a xlink:href="classCSelectionCriteriaDefinition.html#ade9c9f7fe7806988d3d922bf615e5994" target="_top" xlink:title="CSelectionCriteriaDefinition\l::getSelectionCriterion">
<polygon fill="white" stroke="black" points="171.5,-104 171.5,-138 318.5,-138 318.5,-104 171.5,-104"/>
<text text-anchor="start" x="179.5" y="-125" font-family="Verdana" font-size="10.00">CSelectionCriteriaDefinition</text>
<text text-anchor="middle" x="245" y="-112" font-family="Verdana" font-size="10.00">::getSelectionCriterion</text>
</a>
</g>
<!-- Node1&#45;&gt;Node3 -->
<g id="edge4" class="edge"><title>Node1&#45;&gt;Node3</title>
<path fill="none" stroke="midnightblue" d="M128.069,-104.203C138.813,-105.747 150.103,-107.368 161.255,-108.97"/>
<polygon fill="midnightblue" stroke="midnightblue" points="161.042,-112.476 171.438,-110.433 162.038,-105.547 161.042,-112.476"/>
</g>
<!-- Node5 -->
<g id="node9" class="node"><title>Node5</title>
<a xlink:href="classCSelectionCriterionRule.html#abe9fe67a6a2eae27e239070d173d04e0" target="_top" xlink:title="CSelectionCriterionRule\l::getKind">
<polygon fill="white" stroke="black" points="181,-52 181,-86 309,-86 309,-52 181,-52"/>
<text text-anchor="start" x="189" y="-73" font-family="Verdana" font-size="10.00">CSelectionCriterionRule</text>
<text text-anchor="middle" x="245" y="-60" font-family="Verdana" font-size="10.00">::getKind</text>
</a>
</g>
<!-- Node1&#45;&gt;Node5 -->
<g id="edge8" class="edge"><title>Node1&#45;&gt;Node5</title>
<path fill="none" stroke="midnightblue" d="M128.069,-85.7968C141.816,-83.8219 156.456,-81.719 170.559,-79.6932"/>
<polygon fill="midnightblue" stroke="midnightblue" points="171.312,-83.1211 180.712,-78.2347 170.316,-76.1922 171.312,-83.1211"/>
</g>
<!-- Node6 -->
<g id="node11" class="node"><title>Node6</title>
<a xlink:href="classCSelectionCriterion.html#a3551b612a002f7cc311f21be1685f794" target="_top" xlink:title="CSelectionCriterion\l::getCriterionType">
<polygon fill="white" stroke="black" points="191,-0 191,-34 299,-34 299,-0 191,-0"/>
<text text-anchor="start" x="199" y="-21" font-family="Verdana" font-size="10.00">CSelectionCriterion</text>
<text text-anchor="middle" x="245" y="-8" font-family="Verdana" font-size="10.00">::getCriterionType</text>
</a>
</g>
<!-- Node1&#45;&gt;Node6 -->
<g id="edge10" class="edge"><title>Node1&#45;&gt;Node6</title>
<path fill="none" stroke="midnightblue" d="M93.5614,-77.9446C113.142,-67.0716 139.618,-53.1669 164,-43 169.502,-40.7059 175.282,-38.489 181.116,-36.3818"/>
<polygon fill="midnightblue" stroke="midnightblue" points="182.661,-39.5494 190.946,-32.9451 180.351,-32.9417 182.661,-39.5494"/>
</g>
<!-- Node4 -->
<g id="node7" class="node"><title>Node4</title>
<a xlink:href="classCElement.html#a8595814a3159f32f874269907e70b260" target="_top" xlink:title="CElement::findChild">
<polygon fill="white" stroke="black" points="362,-110.5 362,-131.5 472,-131.5 472,-110.5 362,-110.5"/>
<text text-anchor="middle" x="417" y="-118.5" font-family="Verdana" font-size="10.00">CElement::findChild</text>
</a>
</g>
<!-- Node3&#45;&gt;Node4 -->
<g id="edge6" class="edge"><title>Node3&#45;&gt;Node4</title>
<path fill="none" stroke="midnightblue" d="M318.942,-121C329.844,-121 341.009,-121 351.719,-121"/>
<polygon fill="midnightblue" stroke="midnightblue" points="351.824,-124.5 361.824,-121 351.824,-117.5 351.824,-124.5"/>
</g>
</g>
</svg>
