<?xml version="1.0" encoding="UTF-8" standalone="no"?>
<!DOCTYPE svg PUBLIC "-//W3C//DTD SVG 1.1//EN"
 "http://www.w3.org/Graphics/SVG/1.1/DTD/svg11.dtd">
<!-- Generated by graphviz version 2.26.3 (20100126.1600)
 -->
<!-- Title: CParameterAccessContext::isBigEndianSubsystem Pages: 1 -->
<svg width="352pt" height="134pt"
 viewBox="0.00 0.00 352.00 134.00" xmlns="http://www.w3.org/2000/svg" xmlns:xlink="http://www.w3.org/1999/xlink">
<g id="graph1" class="graph" transform="scale(1 1) rotate(0) translate(4 130)">
<title>CParameterAccessContext::isBigEndianSubsystem</title>
<polygon fill="white" stroke="white" points="-4,5 -4,-130 349,-130 349,5 -4,5"/>
<!-- Node1 -->
<g id="node1" class="node"><title>Node1</title>
<polygon fill="#bfbfbf" stroke="black" points="0.5,-40 0.5,-74 145.5,-74 145.5,-40 0.5,-40"/>
<text text-anchor="start" x="8.5" y="-61" font-family="Verdana" font-size="10.00">CParameterAccessContext</text>
<text text-anchor="middle" x="73" y="-48" font-family="Verdana" font-size="10.00">::isBigEndianSubsystem</text>
</g>
<!-- Node2 -->
<g id="node3" class="node"><title>Node2</title>
<a xlink:href="classCArrayParameter.html#a92c36813ec9f475880d47409c01e52db" target="_top" xlink:title="CArrayParameter::setDefault\lValues">
<polygon fill="white" stroke="black" points="185.5,-92 185.5,-126 340.5,-126 340.5,-92 185.5,-92"/>
<text text-anchor="start" x="193.5" y="-113" font-family="Verdana" font-size="10.00">CArrayParameter::setDefault</text>
<text text-anchor="middle" x="263" y="-100" font-family="Verdana" font-size="10.00">Values</text>
</a>
</g>
<!-- Node1&#45;&gt;Node2 -->
<g id="edge2" class="edge"><title>Node1&#45;&gt;Node2</title>
<path fill="none" stroke="midnightblue" d="M144.961,-76.6947C163.292,-81.7115 182.841,-87.0616 200.647,-91.935"/>
<polygon fill="midnightblue" stroke="midnightblue" points="145.782,-73.2907 135.213,-74.0267 143.934,-80.0424 145.782,-73.2907"/>
</g>
<!-- Node3 -->
<g id="node5" class="node"><title>Node3</title>
<a xlink:href="classCBitParameterBlock.html#a74485c7734eb44648b1182cf8e884d40" target="_top" xlink:title="CBitParameterBlock\l::setDefaultValues">
<polygon fill="white" stroke="black" points="207,-40 207,-74 319,-74 319,-40 207,-40"/>
<text text-anchor="start" x="215" y="-61" font-family="Verdana" font-size="10.00">CBitParameterBlock</text>
<text text-anchor="middle" x="263" y="-48" font-family="Verdana" font-size="10.00">::setDefaultValues</text>
</a>
</g>
<!-- Node1&#45;&gt;Node3 -->
<g id="edge4" class="edge"><title>Node1&#45;&gt;Node3</title>
<path fill="none" stroke="midnightblue" d="M155.746,-57C173.042,-57 190.889,-57 206.942,-57"/>
<polygon fill="midnightblue" stroke="midnightblue" points="155.644,-53.5001 145.644,-57 155.644,-60.5001 155.644,-53.5001"/>
</g>
<!-- Node4 -->
<g id="node7" class="node"><title>Node4</title>
<a xlink:href="classCParameter.html#a26fa5e3c97be1577ad15d04295ada708" target="_top" xlink:title="CParameter::setDefaultValues">
<polygon fill="white" stroke="black" points="182.5,-0.5 182.5,-21.5 343.5,-21.5 343.5,-0.5 182.5,-0.5"/>
<text text-anchor="middle" x="263" y="-8.5" font-family="Verdana" font-size="10.00">CParameter::setDefaultValues</text>
</a>
</g>
<!-- Node1&#45;&gt;Node4 -->
<g id="edge6" class="edge"><title>Node1&#45;&gt;Node4</title>
<path fill="none" stroke="midnightblue" d="M153.43,-37.5274C176.051,-32.0507 199.801,-26.3007 219.385,-21.5595"/>
<polygon fill="midnightblue" stroke="midnightblue" points="152.375,-34.1818 143.479,-39.9367 154.022,-40.9852 152.375,-34.1818"/>
</g>
</g>
</svg>
