<?xml version="1.0" encoding="UTF-8" standalone="no"?>
<!DOCTYPE svg PUBLIC "-//W3C//DTD SVG 1.1//EN"
 "http://www.w3.org/Graphics/SVG/1.1/DTD/svg11.dtd">
<!-- Generated by graphviz version 2.26.3 (20100126.1600)
 -->
<!-- Title: CParameterBlackboard::setSize Pages: 1 -->
<svg width="288pt" height="42pt"
 viewBox="0.00 0.00 288.00 42.00" xmlns="http://www.w3.org/2000/svg" xmlns:xlink="http://www.w3.org/1999/xlink">
<g id="graph1" class="graph" transform="scale(1 1) rotate(0) translate(4 38)">
<title>CParameterBlackboard::setSize</title>
<polygon fill="white" stroke="white" points="-4,5 -4,-38 285,-38 285,5 -4,5"/>
<!-- Node1 -->
<g id="node1" class="node"><title>Node1</title>
<polygon fill="#bfbfbf" stroke="black" points="0.5,-0 0.5,-34 127.5,-34 127.5,-0 0.5,-0"/>
<text text-anchor="start" x="8.5" y="-21" font-family="Verdana" font-size="10.00">CParameterBlackboard</text>
<text text-anchor="middle" x="64" y="-8" font-family="Verdana" font-size="10.00">::setSize</text>
</g>
<!-- Node2 -->
<g id="node3" class="node"><title>Node2</title>
<a xlink:href="classCAreaConfiguration.html#ab7057b4cf2482e15666f538211ac65c5" target="_top" xlink:title="CAreaConfiguration\l::CAreaConfiguration">
<polygon fill="white" stroke="black" points="164,-0 164,-34 280,-34 280,-0 164,-0"/>
<text text-anchor="start" x="172" y="-21" font-family="Verdana" font-size="10.00">CAreaConfiguration</text>
<text text-anchor="middle" x="222" y="-8" font-family="Verdana" font-size="10.00">::CAreaConfiguration</text>
</a>
</g>
<!-- Node1&#45;&gt;Node2 -->
<g id="edge2" class="edge"><title>Node1&#45;&gt;Node2</title>
<path fill="none" stroke="midnightblue" d="M137.942,-17C146.627,-17 155.395,-17 163.821,-17"/>
<polygon fill="midnightblue" stroke="midnightblue" points="137.809,-13.5001 127.809,-17 137.809,-20.5001 137.809,-13.5001"/>
</g>
</g>
</svg>
