<?xml version="1.0" encoding="UTF-8" standalone="no"?>
<!DOCTYPE svg PUBLIC "-//W3C//DTD SVG 1.1//EN"
 "http://www.w3.org/Graphics/SVG/1.1/DTD/svg11.dtd">
<!-- Generated by graphviz version 2.26.3 (20100126.1600)
 -->
<!-- Title: CDomainConfiguration::getBlackboard Pages: 1 -->
<svg width="328pt" height="42pt"
 viewBox="0.00 0.00 328.00 42.00" xmlns="http://www.w3.org/2000/svg" xmlns:xlink="http://www.w3.org/1999/xlink">
<g id="graph1" class="graph" transform="scale(1 1) rotate(0) translate(4 38)">
<title>CDomainConfiguration::getBlackboard</title>
<polygon fill="white" stroke="white" points="-4,5 -4,-38 325,-38 325,5 -4,5"/>
<!-- Node1 -->
<g id="node1" class="node"><title>Node1</title>
<polygon fill="#bfbfbf" stroke="black" points="0.5,-0 0.5,-34 125.5,-34 125.5,-0 0.5,-0"/>
<text text-anchor="start" x="8.5" y="-21" font-family="Verdana" font-size="10.00">CDomainConfiguration</text>
<text text-anchor="middle" x="63" y="-8" font-family="Verdana" font-size="10.00">::getBlackboard</text>
</g>
<!-- Node2 -->
<g id="node3" class="node"><title>Node2</title>
<a xlink:href="classCConfigurableDomain.html#a0fec7c3bd4cf280eb64db3803d226836" target="_top" xlink:title="Blackboard Configuration and Base Offset retrieval. ">
<polygon fill="white" stroke="black" points="162.5,-0 162.5,-34 319.5,-34 319.5,-0 162.5,-0"/>
<text text-anchor="start" x="170.5" y="-21" font-family="Verdana" font-size="10.00">CConfigurableDomain</text>
<text text-anchor="middle" x="241" y="-8" font-family="Verdana" font-size="10.00">::findConfigurationBlackboard</text>
</a>
</g>
<!-- Node1&#45;&gt;Node2 -->
<g id="edge2" class="edge"><title>Node1&#45;&gt;Node2</title>
<path fill="none" stroke="midnightblue" d="M135.708,-17C144.503,-17 153.518,-17 162.393,-17"/>
<polygon fill="midnightblue" stroke="midnightblue" points="135.506,-13.5001 125.506,-17 135.506,-20.5001 135.506,-13.5001"/>
</g>
</g>
</svg>
