<?xml version="1.0" encoding="UTF-8" standalone="no"?>
<!DOCTYPE svg PUBLIC "-//W3C//DTD SVG 1.1//EN"
 "http://www.w3.org/Graphics/SVG/1.1/DTD/svg11.dtd">
<!-- Generated by graphviz version 2.26.3 (20100126.1600)
 -->
<!-- Title: CConfigurableDomain::getLastAppliedConfigurationName Pages: 1 -->
<svg width="394pt" height="42pt"
 viewBox="0.00 0.00 394.00 42.00" xmlns="http://www.w3.org/2000/svg" xmlns:xlink="http://www.w3.org/1999/xlink">
<g id="graph1" class="graph" transform="scale(1 1) rotate(0) translate(4 38)">
<title>CConfigurableDomain::getLastAppliedConfigurationName</title>
<polygon fill="white" stroke="white" points="-4,5 -4,-38 391,-38 391,5 -4,5"/>
<!-- Node1 -->
<g id="node1" class="node"><title>Node1</title>
<polygon fill="#bfbfbf" stroke="black" points="0.5,-0 0.5,-34 187.5,-34 187.5,-0 0.5,-0"/>
<text text-anchor="start" x="8.5" y="-21" font-family="Verdana" font-size="10.00">CConfigurableDomain</text>
<text text-anchor="middle" x="94" y="-8" font-family="Verdana" font-size="10.00">::getLastAppliedConfigurationName</text>
</g>
<!-- Node2 -->
<g id="node3" class="node"><title>Node2</title>
<a xlink:href="classCConfigurableDomains.html#a46ceaaf62295c80f621e2476a83352b1" target="_top" xlink:title="CConfigurableDomains\l::listLastAppliedConfigurations">
<polygon fill="white" stroke="black" points="224.5,-0 224.5,-34 385.5,-34 385.5,-0 224.5,-0"/>
<text text-anchor="start" x="232.5" y="-21" font-family="Verdana" font-size="10.00">CConfigurableDomains</text>
<text text-anchor="middle" x="305" y="-8" font-family="Verdana" font-size="10.00">::listLastAppliedConfigurations</text>
</a>
</g>
<!-- Node1&#45;&gt;Node2 -->
<g id="edge2" class="edge"><title>Node1&#45;&gt;Node2</title>
<path fill="none" stroke="midnightblue" d="M197.832,-17C206.757,-17 215.698,-17 224.399,-17"/>
<polygon fill="midnightblue" stroke="midnightblue" points="197.776,-13.5001 187.776,-17 197.776,-20.5001 197.776,-13.5001"/>
</g>
</g>
</svg>
