<?xml version="1.0" encoding="UTF-8" standalone="no"?>
<!DOCTYPE svg PUBLIC "-//W3C//DTD SVG 1.1//EN"
 "http://www.w3.org/Graphics/SVG/1.1/DTD/svg11.dtd">
<!-- Generated by graphviz version 2.26.3 (20100126.1600)
 -->
<!-- Title: CDomainConfiguration::clearApplicationRule Pages: 1 -->
<svg width="684pt" height="42pt"
 viewBox="0.00 0.00 684.00 42.00" xmlns="http://www.w3.org/2000/svg" xmlns:xlink="http://www.w3.org/1999/xlink">
<g id="graph1" class="graph" transform="scale(1 1) rotate(0) translate(4 38)">
<title>CDomainConfiguration::clearApplicationRule</title>
<polygon fill="white" stroke="white" points="-4,5 -4,-38 681,-38 681,5 -4,5"/>
<!-- Node1 -->
<g id="node1" class="node"><title>Node1</title>
<polygon fill="#bfbfbf" stroke="black" points="0.5,-0 0.5,-34 125.5,-34 125.5,-0 0.5,-0"/>
<text text-anchor="start" x="8.5" y="-21" font-family="Verdana" font-size="10.00">CDomainConfiguration</text>
<text text-anchor="middle" x="63" y="-8" font-family="Verdana" font-size="10.00">::clearApplicationRule</text>
</g>
<!-- Node2 -->
<g id="node3" class="node"><title>Node2</title>
<a xlink:href="classCConfigurableDomain.html#aa6c2f539bef4c64d1751e6454c6114ee" target="_top" xlink:title="CConfigurableDomain\l::clearApplicationRule">
<polygon fill="white" stroke="black" points="162.5,-0 162.5,-34 283.5,-34 283.5,-0 162.5,-0"/>
<text text-anchor="start" x="170.5" y="-21" font-family="Verdana" font-size="10.00">CConfigurableDomain</text>
<text text-anchor="middle" x="223" y="-8" font-family="Verdana" font-size="10.00">::clearApplicationRule</text>
</a>
</g>
<!-- Node1&#45;&gt;Node2 -->
<g id="edge2" class="edge"><title>Node1&#45;&gt;Node2</title>
<path fill="none" stroke="midnightblue" d="M135.787,-17C144.72,-17 153.774,-17 162.498,-17"/>
<polygon fill="midnightblue" stroke="midnightblue" points="135.777,-13.5001 125.777,-17 135.777,-20.5001 135.777,-13.5001"/>
</g>
<!-- Node3 -->
<g id="node5" class="node"><title>Node3</title>
<a xlink:href="classCConfigurableDomains.html#a72aa8a377bbb1a887e9d753195f59603" target="_top" xlink:title="CConfigurableDomains\l::clearApplicationRule">
<polygon fill="white" stroke="black" points="320,-0 320,-34 446,-34 446,-0 320,-0"/>
<text text-anchor="start" x="328" y="-21" font-family="Verdana" font-size="10.00">CConfigurableDomains</text>
<text text-anchor="middle" x="383" y="-8" font-family="Verdana" font-size="10.00">::clearApplicationRule</text>
</a>
</g>
<!-- Node2&#45;&gt;Node3 -->
<g id="edge4" class="edge"><title>Node2&#45;&gt;Node3</title>
<path fill="none" stroke="midnightblue" d="M293.97,-17C302.585,-17 311.341,-17 319.833,-17"/>
<polygon fill="midnightblue" stroke="midnightblue" points="293.946,-13.5001 283.946,-17 293.946,-20.5001 293.946,-13.5001"/>
</g>
<!-- Node4 -->
<g id="node7" class="node"><title>Node4</title>
<a xlink:href="classCParameterMgr.html#a5773905f5b49566fca22f6f30d0d9d54" target="_top" xlink:title="CParameterMgr::clearApplicationRule">
<polygon fill="white" stroke="black" points="482.5,-6.5 482.5,-27.5 675.5,-27.5 675.5,-6.5 482.5,-6.5"/>
<text text-anchor="middle" x="579" y="-14.5" font-family="Verdana" font-size="10.00">CParameterMgr::clearApplicationRule</text>
</a>
</g>
<!-- Node3&#45;&gt;Node4 -->
<g id="edge6" class="edge"><title>Node3&#45;&gt;Node4</title>
<path fill="none" stroke="midnightblue" d="M456.358,-17C464.896,-17 473.7,-17 482.489,-17"/>
<polygon fill="midnightblue" stroke="midnightblue" points="456.095,-13.5001 446.095,-17 456.094,-20.5001 456.095,-13.5001"/>
</g>
</g>
</svg>
