<?xml version="1.0" encoding="UTF-8" standalone="no"?>
<!DOCTYPE svg PUBLIC "-//W3C//DTD SVG 1.1//EN"
 "http://www.w3.org/Graphics/SVG/1.1/DTD/svg11.dtd">
<!-- Generated by graphviz version 2.26.3 (20100126.1600)
 -->
<!-- Title: CConfigurableElement::getListOfElementsWithMapping Pages: 1 -->
<svg width="332pt" height="60pt"
 viewBox="0.00 0.00 332.00 60.00" xmlns="http://www.w3.org/2000/svg" xmlns:xlink="http://www.w3.org/1999/xlink">
<g id="graph1" class="graph" transform="scale(1 1) rotate(0) translate(4 56)">
<title>CConfigurableElement::getListOfElementsWithMapping</title>
<polygon fill="white" stroke="white" points="-4,5 -4,-56 329,-56 329,5 -4,5"/>
<!-- Node1 -->
<g id="node1" class="node"><title>Node1</title>
<polygon fill="#bfbfbf" stroke="black" points="0.5,-0 0.5,-34 171.5,-34 171.5,-0 0.5,-0"/>
<text text-anchor="start" x="8.5" y="-21" font-family="Verdana" font-size="10.00">CConfigurableElement</text>
<text text-anchor="middle" x="86" y="-8" font-family="Verdana" font-size="10.00">::getListOfElementsWithMapping</text>
</g>
<!-- Node1&#45;&gt;Node1 -->
<g id="edge4" class="edge"><title>Node1&#45;&gt;Node1</title>
<path fill="none" stroke="midnightblue" d="M53.6425,-34.2878C48.1439,-43.5562 58.9297,-52 86,-52 102.496,-52 112.945,-48.8645 117.347,-44.3176"/>
<polygon fill="midnightblue" stroke="midnightblue" points="120.837,-44.5884 118.357,-34.2878 113.872,-43.8865 120.837,-44.5884"/>
</g>
<!-- Node2 -->
<g id="node3" class="node"><title>Node2</title>
<a xlink:href="classCElement.html#a7987056bec3cbc71bed07cc88b060cf0" target="_top" xlink:title="CElement::getParent">
<polygon fill="white" stroke="black" points="208,-6.5 208,-27.5 324,-27.5 324,-6.5 208,-6.5"/>
<text text-anchor="middle" x="266" y="-14.5" font-family="Verdana" font-size="10.00">CElement::getParent</text>
</a>
</g>
<!-- Node1&#45;&gt;Node2 -->
<g id="edge2" class="edge"><title>Node1&#45;&gt;Node2</title>
<path fill="none" stroke="midnightblue" d="M171.519,-17C180.29,-17 189.117,-17 197.667,-17"/>
<polygon fill="midnightblue" stroke="midnightblue" points="197.936,-20.5001 207.936,-17 197.936,-13.5001 197.936,-20.5001"/>
</g>
</g>
</svg>
