<?xml version="1.0" encoding="UTF-8" standalone="no"?>
<!DOCTYPE svg PUBLIC "-//W3C//DTD SVG 1.1//EN"
 "http://www.w3.org/Graphics/SVG/1.1/DTD/svg11.dtd">
<!-- Generated by graphviz version 2.26.3 (20100126.1600)
 -->
<!-- Title: CElement::getQualifiedPath Pages: 1 -->
<svg width="298pt" height="88pt"
 viewBox="0.00 0.00 298.00 88.00" xmlns="http://www.w3.org/2000/svg" xmlns:xlink="http://www.w3.org/1999/xlink">
<g id="graph1" class="graph" transform="scale(1 1) rotate(0) translate(4 84)">
<title>CElement::getQualifiedPath</title>
<polygon fill="white" stroke="white" points="-4,5 -4,-84 295,-84 295,5 -4,5"/>
<!-- Node1 -->
<g id="node1" class="node"><title>Node1</title>
<polygon fill="#bfbfbf" stroke="black" points="0.5,-20.5 0.5,-41.5 147.5,-41.5 147.5,-20.5 0.5,-20.5"/>
<text text-anchor="middle" x="74" y="-28.5" font-family="Verdana" font-size="10.00">CElement::getQualifiedPath</text>
</g>
<!-- Node2 -->
<g id="node3" class="node"><title>Node2</title>
<a xlink:href="classCElement.html#a7022c0fc8063f0aae9d97b06e74d4ac1" target="_top" xlink:title="CElement::getPath">
<polygon fill="white" stroke="black" points="184,-40.5 184,-61.5 290,-61.5 290,-40.5 184,-40.5"/>
<text text-anchor="middle" x="237" y="-48.5" font-family="Verdana" font-size="10.00">CElement::getPath</text>
</a>
</g>
<!-- Node1&#45;&gt;Node2 -->
<g id="edge2" class="edge"><title>Node1&#45;&gt;Node2</title>
<path fill="none" stroke="midnightblue" d="M147.869,-40.0637C156.493,-41.1218 165.231,-42.194 173.694,-43.2324"/>
<polygon fill="midnightblue" stroke="midnightblue" points="173.501,-46.7349 183.853,-44.4789 174.354,-39.787 173.501,-46.7349"/>
</g>
<!-- Node3 -->
<g id="node6" class="node"><title>Node3</title>
<a xlink:href="classCElement.html#aed2ca7f2a56dbf2edcd82167859535ee" target="_top" xlink:title="CElement::getKind">
<polygon fill="white" stroke="black" points="184.5,-0.5 184.5,-21.5 289.5,-21.5 289.5,-0.5 184.5,-0.5"/>
<text text-anchor="middle" x="237" y="-8.5" font-family="Verdana" font-size="10.00">CElement::getKind</text>
</a>
</g>
<!-- Node1&#45;&gt;Node3 -->
<g id="edge6" class="edge"><title>Node1&#45;&gt;Node3</title>
<path fill="none" stroke="midnightblue" d="M147.869,-21.9363C156.709,-20.8517 165.669,-19.7523 174.329,-18.6897"/>
<polygon fill="midnightblue" stroke="midnightblue" points="174.833,-22.1543 184.332,-17.4624 173.98,-15.2064 174.833,-22.1543"/>
</g>
<!-- Node2&#45;&gt;Node2 -->
<g id="edge4" class="edge"><title>Node2&#45;&gt;Node2</title>
<path fill="none" stroke="midnightblue" d="M211.26,-61.7079C200.26,-70.6531 208.84,-80 237,-80 255.04,-80 265.045,-76.164 267.013,-71.0551"/>
<polygon fill="midnightblue" stroke="midnightblue" points="270.081,-69.3474 262.74,-61.7079 263.715,-72.2578 270.081,-69.3474"/>
</g>
</g>
</svg>
