<?xml version="1.0" encoding="UTF-8" standalone="no"?>
<!DOCTYPE svg PUBLIC "-//W3C//DTD SVG 1.1//EN"
 "http://www.w3.org/Graphics/SVG/1.1/DTD/svg11.dtd">
<!-- Generated by graphviz version 2.26.3 (20100126.1600)
 -->
<!-- Title: CSelectionCriterion::getCriterionName Pages: 1 -->
<svg width="1126pt" height="42pt"
 viewBox="0.00 0.00 1126.00 42.00" xmlns="http://www.w3.org/2000/svg" xmlns:xlink="http://www.w3.org/1999/xlink">
<g id="graph1" class="graph" transform="scale(1 1) rotate(0) translate(4 38)">
<title>CSelectionCriterion::getCriterionName</title>
<polygon fill="white" stroke="white" points="-4,5 -4,-38 1123,-38 1123,5 -4,5"/>
<!-- Node1 -->
<g id="node1" class="node"><title>Node1</title>
<polygon fill="#bfbfbf" stroke="black" points="0,-0 0,-34 108,-34 108,-0 0,-0"/>
<text text-anchor="start" x="8" y="-21" font-family="Verdana" font-size="10.00">CSelectionCriterion</text>
<text text-anchor="middle" x="54" y="-8" font-family="Verdana" font-size="10.00">::getCriterionName</text>
</g>
<!-- Node2 -->
<g id="node3" class="node"><title>Node2</title>
<a xlink:href="classCSelectionCriterionRule.html#a4ee8e0274ac8c7bf5a2452002aa7ae0e" target="_top" xlink:title="CSelectionCriterionRule\l::parse">
<polygon fill="white" stroke="black" points="144,-0 144,-34 272,-34 272,-0 144,-0"/>
<text text-anchor="start" x="152" y="-21" font-family="Verdana" font-size="10.00">CSelectionCriterionRule</text>
<text text-anchor="middle" x="208" y="-8" font-family="Verdana" font-size="10.00">::parse</text>
</a>
</g>
<!-- Node1&#45;&gt;Node2 -->
<g id="edge2" class="edge"><title>Node1&#45;&gt;Node2</title>
<path fill="none" stroke="midnightblue" d="M118.441,-17C126.866,-17 135.497,-17 143.916,-17"/>
<polygon fill="midnightblue" stroke="midnightblue" points="118.295,-13.5001 108.295,-17 118.295,-20.5001 118.295,-13.5001"/>
</g>
<!-- Node3 -->
<g id="node5" class="node"><title>Node3</title>
<a xlink:href="classCRuleParser.html#acbce516a22f0dca0af620e751d298f7a" target="_top" xlink:title="CRuleParser::parse">
<polygon fill="white" stroke="black" points="308,-6.5 308,-27.5 414,-27.5 414,-6.5 308,-6.5"/>
<text text-anchor="middle" x="361" y="-14.5" font-family="Verdana" font-size="10.00">CRuleParser::parse</text>
</a>
</g>
<!-- Node2&#45;&gt;Node3 -->
<g id="edge4" class="edge"><title>Node2&#45;&gt;Node3</title>
<path fill="none" stroke="midnightblue" d="M282.711,-17C291.163,-17 299.645,-17 307.743,-17"/>
<polygon fill="midnightblue" stroke="midnightblue" points="282.442,-13.5001 272.442,-17 282.442,-20.5001 282.442,-13.5001"/>
</g>
<!-- Node4 -->
<g id="node7" class="node"><title>Node4</title>
<a xlink:href="classCDomainConfiguration.html#a3b12c8d561b1e468bd03214326bdf450" target="_top" xlink:title="CDomainConfiguration\l::setApplicationRule">
<polygon fill="white" stroke="black" points="450.5,-0 450.5,-34 575.5,-34 575.5,-0 450.5,-0"/>
<text text-anchor="start" x="458.5" y="-21" font-family="Verdana" font-size="10.00">CDomainConfiguration</text>
<text text-anchor="middle" x="513" y="-8" font-family="Verdana" font-size="10.00">::setApplicationRule</text>
</a>
</g>
<!-- Node3&#45;&gt;Node4 -->
<g id="edge6" class="edge"><title>Node3&#45;&gt;Node4</title>
<path fill="none" stroke="midnightblue" d="M424.22,-17C432.901,-17 441.811,-17 450.48,-17"/>
<polygon fill="midnightblue" stroke="midnightblue" points="424.162,-13.5001 414.162,-17 424.162,-20.5001 424.162,-13.5001"/>
</g>
<!-- Node5 -->
<g id="node9" class="node"><title>Node5</title>
<a xlink:href="classCConfigurableDomain.html#ab28e6a66ae7197d4fa131193f32891f4" target="_top" xlink:title="CConfigurableDomain\l::setApplicationRule">
<polygon fill="white" stroke="black" points="612.5,-0 612.5,-34 733.5,-34 733.5,-0 612.5,-0"/>
<text text-anchor="start" x="620.5" y="-21" font-family="Verdana" font-size="10.00">CConfigurableDomain</text>
<text text-anchor="middle" x="673" y="-8" font-family="Verdana" font-size="10.00">::setApplicationRule</text>
</a>
</g>
<!-- Node4&#45;&gt;Node5 -->
<g id="edge8" class="edge"><title>Node4&#45;&gt;Node5</title>
<path fill="none" stroke="midnightblue" d="M585.787,-17C594.72,-17 603.774,-17 612.498,-17"/>
<polygon fill="midnightblue" stroke="midnightblue" points="585.777,-13.5001 575.777,-17 585.777,-20.5001 585.777,-13.5001"/>
</g>
<!-- Node6 -->
<g id="node11" class="node"><title>Node6</title>
<a xlink:href="classCConfigurableDomains.html#ac2b2354eecc80c7ca4a71fe2f40606ed" target="_top" xlink:title="CConfigurableDomains\l::setApplicationRule">
<polygon fill="white" stroke="black" points="770,-0 770,-34 896,-34 896,-0 770,-0"/>
<text text-anchor="start" x="778" y="-21" font-family="Verdana" font-size="10.00">CConfigurableDomains</text>
<text text-anchor="middle" x="833" y="-8" font-family="Verdana" font-size="10.00">::setApplicationRule</text>
</a>
</g>
<!-- Node5&#45;&gt;Node6 -->
<g id="edge10" class="edge"><title>Node5&#45;&gt;Node6</title>
<path fill="none" stroke="midnightblue" d="M743.97,-17C752.585,-17 761.341,-17 769.833,-17"/>
<polygon fill="midnightblue" stroke="midnightblue" points="743.946,-13.5001 733.946,-17 743.946,-20.5001 743.946,-13.5001"/>
</g>
<!-- Node7 -->
<g id="node13" class="node"><title>Node7</title>
<a xlink:href="classCParameterMgr.html#af63f9ad7f792b2bf226afd791c1db70e" target="_top" xlink:title="CParameterMgr::setApplicationRule">
<polygon fill="white" stroke="black" points="932.5,-6.5 932.5,-27.5 1117.5,-27.5 1117.5,-6.5 932.5,-6.5"/>
<text text-anchor="middle" x="1025" y="-14.5" font-family="Verdana" font-size="10.00">CParameterMgr::setApplicationRule</text>
</a>
</g>
<!-- Node6&#45;&gt;Node7 -->
<g id="edge12" class="edge"><title>Node6&#45;&gt;Node7</title>
<path fill="none" stroke="midnightblue" d="M906.344,-17C914.831,-17 923.57,-17 932.272,-17"/>
<polygon fill="midnightblue" stroke="midnightblue" points="906.134,-13.5001 896.134,-17 906.134,-20.5001 906.134,-13.5001"/>
</g>
</g>
</svg>
