<?xml version="1.0" encoding="UTF-8" standalone="no"?>
<!DOCTYPE svg PUBLIC "-//W3C//DTD SVG 1.1//EN"
 "http://www.w3.org/Graphics/SVG/1.1/DTD/svg11.dtd">
<!-- Generated by graphviz version 2.26.3 (20100126.1600)
 -->
<!-- Title: CDomainConfiguration::getApplicationRule Pages: 1 -->
<svg width="474pt" height="110pt"
 viewBox="0.00 0.00 474.00 110.00" xmlns="http://www.w3.org/2000/svg" xmlns:xlink="http://www.w3.org/1999/xlink">
<g id="graph1" class="graph" transform="scale(1 1) rotate(0) translate(4 106)">
<title>CDomainConfiguration::getApplicationRule</title>
<polygon fill="white" stroke="white" points="-4,5 -4,-106 471,-106 471,5 -4,5"/>
<!-- Node1 -->
<g id="node1" class="node"><title>Node1</title>
<polygon fill="#bfbfbf" stroke="black" points="0.5,-34 0.5,-68 125.5,-68 125.5,-34 0.5,-34"/>
<text text-anchor="start" x="8.5" y="-55" font-family="Verdana" font-size="10.00">CDomainConfiguration</text>
<text text-anchor="middle" x="63" y="-42" font-family="Verdana" font-size="10.00">::getApplicationRule</text>
</g>
<!-- Node2 -->
<g id="node3" class="node"><title>Node2</title>
<a xlink:href="classCCompoundRule.html#a4852b10618c0cf75059018ae60fb6eab" target="_top" xlink:title="CCompoundRule::dump">
<polygon fill="white" stroke="black" points="162.5,-40.5 162.5,-61.5 291.5,-61.5 291.5,-40.5 162.5,-40.5"/>
<text text-anchor="middle" x="227" y="-48.5" font-family="Verdana" font-size="10.00">CCompoundRule::dump</text>
</a>
</g>
<!-- Node1&#45;&gt;Node2 -->
<g id="edge2" class="edge"><title>Node1&#45;&gt;Node2</title>
<path fill="none" stroke="midnightblue" d="M125.938,-51C134.508,-51 143.372,-51 152.127,-51"/>
<polygon fill="midnightblue" stroke="midnightblue" points="152.33,-54.5001 162.33,-51 152.33,-47.5001 152.33,-54.5001"/>
</g>
<!-- Node3 -->
<g id="node5" class="node"><title>Node3</title>
<a xlink:href="classCElement.html#a25f58d9d8b35e770806d669fb2a378e4" target="_top" xlink:title="CElement::getNbChildren">
<polygon fill="white" stroke="black" points="328.5,-80.5 328.5,-101.5 465.5,-101.5 465.5,-80.5 328.5,-80.5"/>
<text text-anchor="middle" x="397" y="-88.5" font-family="Verdana" font-size="10.00">CElement::getNbChildren</text>
</a>
</g>
<!-- Node2&#45;&gt;Node3 -->
<g id="edge4" class="edge"><title>Node2&#45;&gt;Node3</title>
<path fill="none" stroke="midnightblue" d="M271.665,-61.5095C293.346,-66.6108 319.584,-72.7845 342.439,-78.1622"/>
<polygon fill="midnightblue" stroke="midnightblue" points="341.802,-81.6078 352.338,-80.4913 343.405,-74.7939 341.802,-81.6078"/>
</g>
<!-- Node4 -->
<g id="node7" class="node"><title>Node4</title>
<a xlink:href="classCElement.html#a41bf126c3fdbb5bec0c2c3dcf35e9079" target="_top" xlink:title="CElement::getChild">
<polygon fill="white" stroke="black" points="343,-40.5 343,-61.5 451,-61.5 451,-40.5 343,-40.5"/>
<text text-anchor="middle" x="397" y="-48.5" font-family="Verdana" font-size="10.00">CElement::getChild</text>
</a>
</g>
<!-- Node2&#45;&gt;Node4 -->
<g id="edge6" class="edge"><title>Node2&#45;&gt;Node4</title>
<path fill="none" stroke="midnightblue" d="M291.755,-51C305.214,-51 319.392,-51 332.83,-51"/>
<polygon fill="midnightblue" stroke="midnightblue" points="332.937,-54.5001 342.937,-51 332.937,-47.5001 332.937,-54.5001"/>
</g>
<!-- Node5 -->
<g id="node9" class="node"><title>Node5</title>
<a xlink:href="classCRule.html#aa4a929f43c17c8b7b1992062f019f530" target="_top" xlink:title="CRule::dump">
<polygon fill="white" stroke="black" points="358.5,-0.5 358.5,-21.5 435.5,-21.5 435.5,-0.5 358.5,-0.5"/>
<text text-anchor="middle" x="397" y="-8.5" font-family="Verdana" font-size="10.00">CRule::dump</text>
</a>
</g>
<!-- Node2&#45;&gt;Node5 -->
<g id="edge8" class="edge"><title>Node2&#45;&gt;Node5</title>
<path fill="none" stroke="midnightblue" d="M271.665,-40.4905C295.251,-34.941 324.23,-28.1223 348.38,-22.44"/>
<polygon fill="midnightblue" stroke="midnightblue" points="349.472,-25.7787 358.404,-20.0813 347.869,-18.9648 349.472,-25.7787"/>
</g>
</g>
</svg>
