<?xml version="1.0" encoding="UTF-8" standalone="no"?>
<!DOCTYPE svg PUBLIC "-//W3C//DTD SVG 1.1//EN"
 "http://www.w3.org/Graphics/SVG/1.1/DTD/svg11.dtd">
<!-- Generated by graphviz version 2.26.3 (20100126.1600)
 -->
<!-- Title: CFixedPointParameterType::toBlackboard Pages: 1 -->
<svg width="334pt" height="134pt"
 viewBox="0.00 0.00 334.00 134.00" xmlns="http://www.w3.org/2000/svg" xmlns:xlink="http://www.w3.org/1999/xlink">
<g id="graph1" class="graph" transform="scale(1 1) rotate(0) translate(4 130)">
<title>CFixedPointParameterType::toBlackboard</title>
<polygon fill="white" stroke="white" points="-4,5 -4,-130 331,-130 331,5 -4,5"/>
<!-- Node1 -->
<g id="node1" class="node"><title>Node1</title>
<polygon fill="#bfbfbf" stroke="black" points="0.5,-46 0.5,-80 143.5,-80 143.5,-46 0.5,-46"/>
<text text-anchor="start" x="8.5" y="-67" font-family="Verdana" font-size="10.00">CFixedPointParameterType</text>
<text text-anchor="middle" x="72" y="-54" font-family="Verdana" font-size="10.00">::toBlackboard</text>
</g>
<!-- Node2 -->
<g id="node3" class="node"><title>Node2</title>
<a xlink:href="classCParameterAccessContext.html#aa36964a7a0cc063c1a5589adb29ed5a7" target="_top" xlink:title="CParameterAccessContext\l::valueSpaceIsRaw">
<polygon fill="white" stroke="black" points="180.5,-92 180.5,-126 325.5,-126 325.5,-92 180.5,-92"/>
<text text-anchor="start" x="188.5" y="-113" font-family="Verdana" font-size="10.00">CParameterAccessContext</text>
<text text-anchor="middle" x="253" y="-100" font-family="Verdana" font-size="10.00">::valueSpaceIsRaw</text>
</a>
</g>
<!-- Node1&#45;&gt;Node2 -->
<g id="edge2" class="edge"><title>Node1&#45;&gt;Node2</title>
<path fill="none" stroke="midnightblue" d="M139.141,-80.0633C151.207,-83.13 163.868,-86.3478 176.184,-89.4776"/>
<polygon fill="midnightblue" stroke="midnightblue" points="175.414,-92.8932 185.968,-91.9642 177.138,-86.1089 175.414,-92.8932"/>
</g>
<!-- Node3 -->
<g id="node5" class="node"><title>Node3</title>
<a xlink:href="classCErrorContext.html#a9d58b281c0d0fc9a6d3b83714cf812ef" target="_top" xlink:title="CErrorContext::setError">
<polygon fill="white" stroke="black" points="189,-52.5 189,-73.5 317,-73.5 317,-52.5 189,-52.5"/>
<text text-anchor="middle" x="253" y="-60.5" font-family="Verdana" font-size="10.00">CErrorContext::setError</text>
</a>
</g>
<!-- Node1&#45;&gt;Node3 -->
<g id="edge4" class="edge"><title>Node1&#45;&gt;Node3</title>
<path fill="none" stroke="midnightblue" d="M143.536,-63C155.076,-63 167.047,-63 178.652,-63"/>
<polygon fill="midnightblue" stroke="midnightblue" points="178.736,-66.5001 188.736,-63 178.736,-59.5001 178.736,-66.5001"/>
</g>
<!-- Node4 -->
<g id="node7" class="node"><title>Node4</title>
<a xlink:href="classCFixedPointParameterType.html#ae9b48934e686faecefd25163ba3921f3" target="_top" xlink:title="CFixedPointParameterType\l::getKind">
<polygon fill="white" stroke="black" points="181.5,-0 181.5,-34 324.5,-34 324.5,-0 181.5,-0"/>
<text text-anchor="start" x="189.5" y="-21" font-family="Verdana" font-size="10.00">CFixedPointParameterType</text>
<text text-anchor="middle" x="253" y="-8" font-family="Verdana" font-size="10.00">::getKind</text>
</a>
</g>
<!-- Node1&#45;&gt;Node4 -->
<g id="edge6" class="edge"><title>Node1&#45;&gt;Node4</title>
<path fill="none" stroke="midnightblue" d="M139.141,-45.9367C151.207,-42.87 163.868,-39.6522 176.184,-36.5224"/>
<polygon fill="midnightblue" stroke="midnightblue" points="177.138,-39.8911 185.968,-34.0358 175.414,-33.1068 177.138,-39.8911"/>
</g>
</g>
</svg>
