<?xml version="1.0" encoding="UTF-8" standalone="no"?>
<!DOCTYPE svg PUBLIC "-//W3C//DTD SVG 1.1//EN"
 "http://www.w3.org/Graphics/SVG/1.1/DTD/svg11.dtd">
<!-- Generated by graphviz version 2.26.3 (20100126.1600)
 -->
<!-- Title: CSystemClass::loadSubsystems Pages: 1 -->
<svg width="374pt" height="214pt"
 viewBox="0.00 0.00 374.00 214.00" xmlns="http://www.w3.org/2000/svg" xmlns:xlink="http://www.w3.org/1999/xlink">
<g id="graph1" class="graph" transform="scale(1 1) rotate(0) translate(4 210)">
<title>CSystemClass::loadSubsystems</title>
<polygon fill="white" stroke="white" points="-4,5 -4,-210 371,-210 371,5 -4,5"/>
<!-- Node1 -->
<g id="node1" class="node"><title>Node1</title>
<polygon fill="#bfbfbf" stroke="black" points="0.5,-86.5 0.5,-107.5 171.5,-107.5 171.5,-86.5 0.5,-86.5"/>
<text text-anchor="middle" x="86" y="-94.5" font-family="Verdana" font-size="10.00">CSystemClass::loadSubsystems</text>
</g>
<!-- Node2 -->
<g id="node3" class="node"><title>Node2</title>
<a xlink:href="classCElementLibrary.html#a3b7e9918b93da30066b5dc21c92623f3" target="_top" xlink:title="CElementLibrary::clean">
<polygon fill="white" stroke="black" points="224,-184.5 224,-205.5 350,-205.5 350,-184.5 224,-184.5"/>
<text text-anchor="middle" x="287" y="-192.5" font-family="Verdana" font-size="10.00">CElementLibrary::clean</text>
</a>
</g>
<!-- Node1&#45;&gt;Node2 -->
<g id="edge2" class="edge"><title>Node1&#45;&gt;Node2</title>
<path fill="none" stroke="midnightblue" d="M99.4487,-107.68C121.095,-124.372 165.548,-156.63 208,-175 213.49,-177.376 219.321,-179.512 225.232,-181.424"/>
<polygon fill="midnightblue" stroke="midnightblue" points="224.622,-184.895 235.207,-184.431 226.643,-178.193 224.622,-184.895"/>
</g>
<!-- Node3 -->
<g id="node5" class="node"><title>Node3</title>
<a xlink:href="classCElementLibrary.html#a4c445bfb8eee5e5f4534499760add2d0" target="_top" xlink:title="Add a xml tag and it&#39;s corresponding builder in the library. ">
<polygon fill="white" stroke="black" points="208,-132 208,-166 366,-166 366,-132 208,-132"/>
<text text-anchor="start" x="216" y="-153" font-family="Verdana" font-size="10.00">CElementLibrary::addElement</text>
<text text-anchor="middle" x="287" y="-140" font-family="Verdana" font-size="10.00">Builder</text>
</a>
</g>
<!-- Node1&#45;&gt;Node3 -->
<g id="edge4" class="edge"><title>Node1&#45;&gt;Node3</title>
<path fill="none" stroke="midnightblue" d="M126.675,-107.523C150.892,-113.788 182.396,-121.938 211.06,-129.354"/>
<polygon fill="midnightblue" stroke="midnightblue" points="210.505,-132.826 221.063,-131.942 212.259,-126.049 210.505,-132.826"/>
</g>
<!-- Node4 -->
<g id="node7" class="node"><title>Node4</title>
<a xlink:href="classCDefaultElementLibrary.html#aff3b8240cb76aa7e63f59d2471b9aa6e" target="_top" xlink:title="Enable the default builder fallback mechanism. ">
<polygon fill="white" stroke="black" points="215,-80 215,-114 359,-114 359,-80 215,-80"/>
<text text-anchor="start" x="223" y="-101" font-family="Verdana" font-size="10.00">CDefaultElementLibrary</text>
<text text-anchor="middle" x="287" y="-88" font-family="Verdana" font-size="10.00">::enableDefaultMechanism</text>
</a>
</g>
<!-- Node1&#45;&gt;Node4 -->
<g id="edge6" class="edge"><title>Node1&#45;&gt;Node4</title>
<path fill="none" stroke="midnightblue" d="M171.534,-97C182.465,-97 193.638,-97 204.519,-97"/>
<polygon fill="midnightblue" stroke="midnightblue" points="204.845,-100.5 214.845,-97 204.845,-93.5001 204.845,-100.5"/>
</g>
<!-- Node5 -->
<g id="node9" class="node"><title>Node5</title>
<a xlink:href="classCElement.html#aaa4df1b13a53263f8cc2b668172873d9" target="_top" xlink:title="CElement::log_info">
<polygon fill="white" stroke="black" points="234,-40.5 234,-61.5 340,-61.5 340,-40.5 234,-40.5"/>
<text text-anchor="middle" x="287" y="-48.5" font-family="Verdana" font-size="10.00">CElement::log_info</text>
</a>
</g>
<!-- Node1&#45;&gt;Node5 -->
<g id="edge8" class="edge"><title>Node1&#45;&gt;Node5</title>
<path fill="none" stroke="midnightblue" d="M132.113,-86.4467C161.606,-79.6971 200.041,-70.9011 231.245,-63.7599"/>
<polygon fill="midnightblue" stroke="midnightblue" points="232.134,-67.147 241.101,-61.5042 230.572,-60.3234 232.134,-67.147"/>
</g>
<!-- Node6 -->
<g id="node11" class="node"><title>Node6</title>
<a xlink:href="classCElement.html#a6fadaf69d17a61c431422ed6d8a1f8f0" target="_top" xlink:title="CElement::log_table">
<polygon fill="white" stroke="black" points="230.5,-0.5 230.5,-21.5 343.5,-21.5 343.5,-0.5 230.5,-0.5"/>
<text text-anchor="middle" x="287" y="-8.5" font-family="Verdana" font-size="10.00">CElement::log_table</text>
</a>
</g>
<!-- Node1&#45;&gt;Node6 -->
<g id="edge10" class="edge"><title>Node1&#45;&gt;Node6</title>
<path fill="none" stroke="midnightblue" d="M102.339,-86.4489C125.17,-72.111 168.29,-46.4899 208,-31 214.288,-28.5473 220.975,-26.3143 227.695,-24.3042"/>
<polygon fill="midnightblue" stroke="midnightblue" points="228.854,-27.6135 237.521,-21.519 226.945,-20.8788 228.854,-27.6135"/>
</g>
</g>
</svg>
