<?xml version="1.0" encoding="UTF-8" standalone="no"?>
<!DOCTYPE svg PUBLIC "-//W3C//DTD SVG 1.1//EN"
 "http://www.w3.org/Graphics/SVG/1.1/DTD/svg11.dtd">
<!-- Generated by graphviz version 2.26.3 (20100126.1600)
 -->
<!-- Title: CFixedPointParameterType::fromBlackboard Pages: 1 -->
<svg width="346pt" height="214pt"
 viewBox="0.00 0.00 346.00 214.00" xmlns="http://www.w3.org/2000/svg" xmlns:xlink="http://www.w3.org/1999/xlink">
<g id="graph1" class="graph" transform="scale(1 1) rotate(0) translate(4 210)">
<title>CFixedPointParameterType::fromBlackboard</title>
<polygon fill="white" stroke="white" points="-4,5 -4,-210 343,-210 343,5 -4,5"/>
<!-- Node1 -->
<g id="node1" class="node"><title>Node1</title>
<polygon fill="#bfbfbf" stroke="black" points="0.5,-80 0.5,-114 143.5,-114 143.5,-80 0.5,-80"/>
<text text-anchor="start" x="8.5" y="-101" font-family="Verdana" font-size="10.00">CFixedPointParameterType</text>
<text text-anchor="middle" x="72" y="-88" font-family="Verdana" font-size="10.00">::fromBlackboard</text>
</g>
<!-- Node2 -->
<g id="node3" class="node"><title>Node2</title>
<a xlink:href="classCParameterType.html#af5e79e641e4cd7929b60395d9ffd761a" target="_top" xlink:title="CParameterType::isEncodable">
<polygon fill="white" stroke="black" points="180,-184.5 180,-205.5 338,-205.5 338,-184.5 180,-184.5"/>
<text text-anchor="middle" x="259" y="-192.5" font-family="Verdana" font-size="10.00">CParameterType::isEncodable</text>
</a>
</g>
<!-- Node1&#45;&gt;Node2 -->
<g id="edge2" class="edge"><title>Node1&#45;&gt;Node2</title>
<path fill="none" stroke="midnightblue" d="M90.8783,-114.089C111.395,-131.792 145.838,-159.054 180,-175 185.048,-177.356 190.412,-179.461 195.875,-181.335"/>
<polygon fill="midnightblue" stroke="midnightblue" points="195.18,-184.786 205.77,-184.466 197.292,-178.112 195.18,-184.786"/>
</g>
<!-- Node3 -->
<g id="node5" class="node"><title>Node3</title>
<a xlink:href="classCParameterAccessContext.html#aa36964a7a0cc063c1a5589adb29ed5a7" target="_top" xlink:title="CParameterAccessContext\l::valueSpaceIsRaw">
<polygon fill="white" stroke="black" points="186.5,-132 186.5,-166 331.5,-166 331.5,-132 186.5,-132"/>
<text text-anchor="start" x="194.5" y="-153" font-family="Verdana" font-size="10.00">CParameterAccessContext</text>
<text text-anchor="middle" x="259" y="-140" font-family="Verdana" font-size="10.00">::valueSpaceIsRaw</text>
</a>
</g>
<!-- Node1&#45;&gt;Node3 -->
<g id="edge4" class="edge"><title>Node1&#45;&gt;Node3</title>
<path fill="none" stroke="midnightblue" d="M133.231,-114.027C150.666,-118.875 169.808,-124.198 187.784,-129.197"/>
<polygon fill="midnightblue" stroke="midnightblue" points="187.059,-132.628 197.632,-131.935 188.935,-125.884 187.059,-132.628"/>
</g>
<!-- Node4 -->
<g id="node7" class="node"><title>Node4</title>
<a xlink:href="classCParameterAccessContext.html#adc2c2dabdfb9af278c0f5237ddcd3643" target="_top" xlink:title="Returns Output Raw Format for user get value interpretation. ">
<polygon fill="white" stroke="black" points="186.5,-80 186.5,-114 331.5,-114 331.5,-80 186.5,-80"/>
<text text-anchor="start" x="194.5" y="-101" font-family="Verdana" font-size="10.00">CParameterAccessContext</text>
<text text-anchor="middle" x="259" y="-88" font-family="Verdana" font-size="10.00">::outputRawFormatIsHex</text>
</a>
</g>
<!-- Node1&#45;&gt;Node4 -->
<g id="edge6" class="edge"><title>Node1&#45;&gt;Node4</title>
<path fill="none" stroke="midnightblue" d="M143.764,-97C154.301,-97 165.229,-97 175.969,-97"/>
<polygon fill="midnightblue" stroke="midnightblue" points="176.191,-100.5 186.191,-97 176.191,-93.5001 176.191,-100.5"/>
</g>
<!-- Node5 -->
<g id="node9" class="node"><title>Node5</title>
<a xlink:href="classCParameterType.html#adfe9fe947066e58a062f8126f246f71a" target="_top" xlink:title="CParameterType::getSize">
<polygon fill="white" stroke="black" points="190.5,-40.5 190.5,-61.5 327.5,-61.5 327.5,-40.5 190.5,-40.5"/>
<text text-anchor="middle" x="259" y="-48.5" font-family="Verdana" font-size="10.00">CParameterType::getSize</text>
</a>
</g>
<!-- Node1&#45;&gt;Node5 -->
<g id="edge8" class="edge"><title>Node1&#45;&gt;Node5</title>
<path fill="none" stroke="midnightblue" d="M141.366,-79.9367C162.796,-74.6652 186.041,-68.9472 206.165,-63.997"/>
<polygon fill="midnightblue" stroke="midnightblue" points="207.199,-67.347 216.073,-61.5595 205.527,-60.5496 207.199,-67.347"/>
</g>
<!-- Node6 -->
<g id="node11" class="node"><title>Node6</title>
<a xlink:href="classCParameterType.html#ac32b37965ef213b6a8df9656b37596df" target="_top" xlink:title="Sign extension (32 bits) ">
<polygon fill="white" stroke="black" points="182.5,-0.5 182.5,-21.5 335.5,-21.5 335.5,-0.5 182.5,-0.5"/>
<text text-anchor="middle" x="259" y="-8.5" font-family="Verdana" font-size="10.00">CParameterType::signExtend</text>
</a>
</g>
<!-- Node1&#45;&gt;Node6 -->
<g id="edge10" class="edge"><title>Node1&#45;&gt;Node6</title>
<path fill="none" stroke="midnightblue" d="M95.3313,-79.8769C116.487,-65.0664 149.011,-44.0382 180,-31 185.734,-28.5876 191.829,-26.4138 197.991,-24.468"/>
<polygon fill="midnightblue" stroke="midnightblue" points="199.094,-27.7917 207.688,-21.5962 197.106,-21.0798 199.094,-27.7917"/>
</g>
</g>
</svg>
