<?xml version="1.0" encoding="UTF-8" standalone="no"?>
<!DOCTYPE svg PUBLIC "-//W3C//DTD SVG 1.1//EN"
 "http://www.w3.org/Graphics/SVG/1.1/DTD/svg11.dtd">
<!-- Generated by graphviz version 2.26.3 (20100126.1600)
 -->
<!-- Title: CXmlDomainExportContext::setOutputRawFormat Pages: 1 -->
<svg width="382pt" height="82pt"
 viewBox="0.00 0.00 382.00 82.00" xmlns="http://www.w3.org/2000/svg" xmlns:xlink="http://www.w3.org/1999/xlink">
<g id="graph1" class="graph" transform="scale(1 1) rotate(0) translate(4 78)">
<title>CXmlDomainExportContext::setOutputRawFormat</title>
<polygon fill="white" stroke="white" points="-4,5 -4,-78 379,-78 379,5 -4,5"/>
<!-- Node1 -->
<g id="node1" class="node"><title>Node1</title>
<polygon fill="#bfbfbf" stroke="black" points="0.5,-23 0.5,-57 147.5,-57 147.5,-23 0.5,-23"/>
<text text-anchor="start" x="8.5" y="-44" font-family="Verdana" font-size="10.00">CXmlDomainExportContext</text>
<text text-anchor="middle" x="74" y="-31" font-family="Verdana" font-size="10.00">::setOutputRawFormat</text>
</g>
<!-- Node2 -->
<g id="node3" class="node"><title>Node2</title>
<a xlink:href="classCParameterMgr.html#a32d7ccfeb5faad330c03f733c6875e7c" target="_top" xlink:title="Method that exports Configurable Domains to an Xml destination. ">
<polygon fill="white" stroke="black" points="184.5,-52.5 184.5,-73.5 373.5,-73.5 373.5,-52.5 184.5,-52.5"/>
<text text-anchor="middle" x="279" y="-60.5" font-family="Verdana" font-size="10.00">CParameterMgr::exportDomainsXml</text>
</a>
</g>
<!-- Node1&#45;&gt;Node2 -->
<g id="edge2" class="edge"><title>Node1&#45;&gt;Node2</title>
<path fill="none" stroke="midnightblue" d="M157.818,-49.4039C166.851,-50.4174 176.084,-51.4533 185.224,-52.4788"/>
<polygon fill="midnightblue" stroke="midnightblue" points="158.048,-45.9079 147.72,-48.271 157.267,-52.8643 158.048,-45.9079"/>
</g>
<!-- Node3 -->
<g id="node5" class="node"><title>Node3</title>
<a xlink:href="classCParameterMgr.html#a8e67dde1f6a678bad4002f31480107be" target="_top" xlink:title="Method that exports a given Configurable Domain to an Xml destination. ">
<polygon fill="white" stroke="black" points="200,-0 200,-34 358,-34 358,-0 200,-0"/>
<text text-anchor="start" x="208" y="-21" font-family="Verdana" font-size="10.00">CParameterMgr::exportSingle</text>
<text text-anchor="middle" x="279" y="-8" font-family="Verdana" font-size="10.00">DomainXml</text>
</a>
</g>
<!-- Node1&#45;&gt;Node3 -->
<g id="edge4" class="edge"><title>Node1&#45;&gt;Node3</title>
<path fill="none" stroke="midnightblue" d="M157.721,-30.6069C171.593,-29.0505 185.939,-27.4409 199.698,-25.8974"/>
<polygon fill="midnightblue" stroke="midnightblue" points="157.267,-27.1357 147.72,-31.729 158.048,-34.0921 157.267,-27.1357"/>
</g>
</g>
</svg>
