<?xml version="1.0" encoding="UTF-8" standalone="no"?>
<!DOCTYPE svg PUBLIC "-//W3C//DTD SVG 1.1//EN"
 "http://www.w3.org/Graphics/SVG/1.1/DTD/svg11.dtd">
<!-- Generated by graphviz version 2.26.3 (20100126.1600)
 -->
<!-- Title: CKindElement Pages: 1 -->
<svg width="516pt" height="190pt"
 viewBox="0.00 0.00 516.00 190.00" xmlns="http://www.w3.org/2000/svg" xmlns:xlink="http://www.w3.org/1999/xlink">
<g id="graph1" class="graph" transform="scale(1 1) rotate(0) translate(4 186)">
<title>CKindElement</title>
<polygon fill="white" stroke="white" points="-4,5 -4,-186 513,-186 513,5 -4,5"/>
<!-- Node1 -->
<g id="node1" class="node"><title>Node1</title>
<polygon fill="#bfbfbf" stroke="black" points="208.5,-80.5 208.5,-101.5 291.5,-101.5 291.5,-80.5 208.5,-80.5"/>
<text text-anchor="middle" x="250" y="-88.5" font-family="Verdana" font-size="10.00">CKindElement</text>
</g>
<!-- Node5 -->
<g id="node9" class="node"><title>Node5</title>
<a xlink:href="classCFrameworkConfigurationGroup.html" target="_top" xlink:title="CFrameworkConfigurationGroup">
<polygon fill="white" stroke="black" points="334,-160.5 334,-181.5 502,-181.5 502,-160.5 334,-160.5"/>
<text text-anchor="middle" x="418" y="-168.5" font-family="Verdana" font-size="10.00">CFrameworkConfigurationGroup</text>
</a>
</g>
<!-- Node1&#45;&gt;Node5 -->
<g id="edge8" class="edge"><title>Node1&#45;&gt;Node5</title>
<path fill="none" stroke="midnightblue" d="M268.063,-108.638C282.963,-122.208 305.277,-140.38 328,-151 336.12,-154.795 344.995,-157.887 353.905,-160.401"/>
<polygon fill="midnightblue" stroke="midnightblue" points="270.286,-105.925 260.592,-101.65 265.504,-111.038 270.286,-105.925"/>
</g>
<!-- Node6 -->
<g id="node11" class="node"><title>Node6</title>
<a xlink:href="classCFrameworkConfigurationLocation.html" target="_top" xlink:title="CFrameworkConfigurationLocation">
<polygon fill="white" stroke="black" points="328.5,-120.5 328.5,-141.5 507.5,-141.5 507.5,-120.5 328.5,-120.5"/>
<text text-anchor="middle" x="418" y="-128.5" font-family="Verdana" font-size="10.00">CFrameworkConfigurationLocation</text>
</a>
</g>
<!-- Node1&#45;&gt;Node6 -->
<g id="edge10" class="edge"><title>Node1&#45;&gt;Node6</title>
<path fill="none" stroke="midnightblue" d="M299.945,-104.062C309.256,-106.424 318.914,-108.826 328,-111 341.387,-114.203 355.937,-117.511 369.357,-120.492"/>
<polygon fill="midnightblue" stroke="midnightblue" points="300.575,-100.61 290.02,-101.526 298.842,-107.393 300.575,-100.61"/>
</g>
<!-- Node7 -->
<g id="node13" class="node"><title>Node7</title>
<a xlink:href="classCPluginLocation.html" target="_top" xlink:title="CPluginLocation">
<polygon fill="white" stroke="black" points="372,-80.5 372,-101.5 464,-101.5 464,-80.5 372,-80.5"/>
<text text-anchor="middle" x="418" y="-88.5" font-family="Verdana" font-size="10.00">CPluginLocation</text>
</a>
</g>
<!-- Node1&#45;&gt;Node7 -->
<g id="edge12" class="edge"><title>Node1&#45;&gt;Node7</title>
<path fill="none" stroke="midnightblue" d="M301.56,-91C324.016,-91 350.127,-91 371.925,-91"/>
<polygon fill="midnightblue" stroke="midnightblue" points="301.528,-87.5001 291.528,-91 301.528,-94.5001 301.528,-87.5001"/>
</g>
<!-- Node8 -->
<g id="node15" class="node"><title>Node8</title>
<a xlink:href="classCSubsystemPlugins.html" target="_top" xlink:title="CSubsystemPlugins">
<polygon fill="white" stroke="black" points="362.5,-40.5 362.5,-61.5 473.5,-61.5 473.5,-40.5 362.5,-40.5"/>
<text text-anchor="middle" x="418" y="-48.5" font-family="Verdana" font-size="10.00">CSubsystemPlugins</text>
</a>
</g>
<!-- Node1&#45;&gt;Node8 -->
<g id="edge14" class="edge"><title>Node1&#45;&gt;Node8</title>
<path fill="none" stroke="midnightblue" d="M299.945,-77.9382C309.256,-75.5756 318.914,-73.1738 328,-71 341.387,-67.797 355.937,-64.489 369.357,-61.5079"/>
<polygon fill="midnightblue" stroke="midnightblue" points="298.842,-74.6074 290.02,-80.4739 300.575,-81.3895 298.842,-74.6074"/>
</g>
<!-- Node9 -->
<g id="node17" class="node"><title>Node9</title>
<a xlink:href="classCXmlFileIncluderElement.html" target="_top" xlink:title="CXmlFileIncluderElement">
<polygon fill="white" stroke="black" points="351,-0.5 351,-21.5 485,-21.5 485,-0.5 351,-0.5"/>
<text text-anchor="middle" x="418" y="-8.5" font-family="Verdana" font-size="10.00">CXmlFileIncluderElement</text>
</a>
</g>
<!-- Node1&#45;&gt;Node9 -->
<g id="edge16" class="edge"><title>Node1&#45;&gt;Node9</title>
<path fill="none" stroke="midnightblue" d="M268.063,-73.3617C282.963,-59.792 305.277,-41.6196 328,-31 336.12,-27.205 344.995,-24.1133 353.905,-21.5987"/>
<polygon fill="midnightblue" stroke="midnightblue" points="265.504,-70.9624 260.592,-80.3497 270.286,-76.0746 265.504,-70.9624"/>
</g>
<!-- Node2 -->
<g id="node2" class="node"><title>Node2</title>
<a xlink:href="classCElement.html" target="_top" xlink:title="CElement">
<polygon fill="white" stroke="black" points="108.5,-80.5 108.5,-101.5 171.5,-101.5 171.5,-80.5 108.5,-80.5"/>
<text text-anchor="middle" x="140" y="-88.5" font-family="Verdana" font-size="10.00">CElement</text>
</a>
</g>
<!-- Node2&#45;&gt;Node1 -->
<g id="edge2" class="edge"><title>Node2&#45;&gt;Node1</title>
<path fill="none" stroke="midnightblue" d="M181.786,-91C190.441,-91 199.56,-91 208.215,-91"/>
<polygon fill="midnightblue" stroke="midnightblue" points="181.522,-87.5001 171.522,-91 181.522,-94.5001 181.522,-87.5001"/>
</g>
<!-- Node3 -->
<g id="node4" class="node"><title>Node3</title>
<polygon fill="white" stroke="#bfbfbf" points="7.5,-100.5 7.5,-121.5 64.5,-121.5 64.5,-100.5 7.5,-100.5"/>
<text text-anchor="middle" x="36" y="-108.5" font-family="Verdana" font-size="10.00">IXmlSink</text>
</g>
<!-- Node3&#45;&gt;Node2 -->
<g id="edge4" class="edge"><title>Node3&#45;&gt;Node2</title>
<path fill="none" stroke="midnightblue" d="M74.6244,-103.572C85.7777,-101.427 97.8118,-99.1131 108.478,-97.0619"/>
<polygon fill="midnightblue" stroke="midnightblue" points="73.8528,-100.156 64.6938,-105.482 75.1748,-107.03 73.8528,-100.156"/>
</g>
<!-- Node4 -->
<g id="node6" class="node"><title>Node4</title>
<polygon fill="white" stroke="#bfbfbf" points="0.5,-60.5 0.5,-81.5 71.5,-81.5 71.5,-60.5 0.5,-60.5"/>
<text text-anchor="middle" x="36" y="-68.5" font-family="Verdana" font-size="10.00">IXmlSource</text>
</g>
<!-- Node4&#45;&gt;Node2 -->
<g id="edge6" class="edge"><title>Node4&#45;&gt;Node2</title>
<path fill="none" stroke="midnightblue" d="M81.5804,-79.7655C90.662,-81.5119 100.009,-83.3094 108.49,-84.9404"/>
<polygon fill="midnightblue" stroke="midnightblue" points="81.9811,-76.2785 71.5,-77.8269 80.6591,-83.1525 81.9811,-76.2785"/>
</g>
</g>
</svg>
