<?xml version="1.0" encoding="UTF-8" standalone="no"?>
<!DOCTYPE svg PUBLIC "-//W3C//DTD SVG 1.1//EN"
 "http://www.w3.org/Graphics/SVG/1.1/DTD/svg11.dtd">
<!-- Generated by graphviz version 2.26.3 (20100126.1600)
 -->
<!-- Title: CConfigurableDomains::addConfigurableElementToDomain Pages: 1 -->
<svg width="408pt" height="42pt"
 viewBox="0.00 0.00 408.00 42.00" xmlns="http://www.w3.org/2000/svg" xmlns:xlink="http://www.w3.org/1999/xlink">
<g id="graph1" class="graph" transform="scale(1 1) rotate(0) translate(4 38)">
<title>CConfigurableDomains::addConfigurableElementToDomain</title>
<polygon fill="white" stroke="white" points="-4,5 -4,-38 405,-38 405,5 -4,5"/>
<!-- Node1 -->
<g id="node1" class="node"><title>Node1</title>
<polygon fill="#bfbfbf" stroke="black" points="0,-0 0,-34 188,-34 188,-0 0,-0"/>
<text text-anchor="start" x="8" y="-21" font-family="Verdana" font-size="10.00">CConfigurableDomains</text>
<text text-anchor="middle" x="94" y="-8" font-family="Verdana" font-size="10.00">::addConfigurableElementToDomain</text>
</g>
<!-- Node2 -->
<g id="node3" class="node"><title>Node2</title>
<a xlink:href="classCParameterMgr.html#ae9941471fb32f02b3620cf46cd13ebbb" target="_top" xlink:title="CParameterMgr::addConfigurable\lElementToDomain">
<polygon fill="white" stroke="black" points="224,-0 224,-34 400,-34 400,-0 224,-0"/>
<text text-anchor="start" x="232" y="-21" font-family="Verdana" font-size="10.00">CParameterMgr::addConfigurable</text>
<text text-anchor="middle" x="312" y="-8" font-family="Verdana" font-size="10.00">ElementToDomain</text>
</a>
</g>
<!-- Node1&#45;&gt;Node2 -->
<g id="edge2" class="edge"><title>Node1&#45;&gt;Node2</title>
<path fill="none" stroke="midnightblue" d="M198.093,-17C206.689,-17 215.325,-17 223.788,-17"/>
<polygon fill="midnightblue" stroke="midnightblue" points="198.033,-13.5001 188.033,-17 198.033,-20.5001 198.033,-13.5001"/>
</g>
</g>
</svg>
