<?xml version="1.0" encoding="UTF-8" standalone="no"?>
<!DOCTYPE svg PUBLIC "-//W3C//DTD SVG 1.1//EN"
 "http://www.w3.org/Graphics/SVG/1.1/DTD/svg11.dtd">
<!-- Generated by graphviz version 2.26.3 (20100126.1600)
 -->
<!-- Title: CFixedPointParameterType::fromXml Pages: 1 -->
<svg width="332pt" height="82pt"
 viewBox="0.00 0.00 332.00 82.00" xmlns="http://www.w3.org/2000/svg" xmlns:xlink="http://www.w3.org/1999/xlink">
<g id="graph1" class="graph" transform="scale(1 1) rotate(0) translate(4 78)">
<title>CFixedPointParameterType::fromXml</title>
<polygon fill="white" stroke="white" points="-4,5 -4,-78 329,-78 329,5 -4,5"/>
<!-- Node1 -->
<g id="node1" class="node"><title>Node1</title>
<polygon fill="#bfbfbf" stroke="black" points="0.5,-17 0.5,-51 143.5,-51 143.5,-17 0.5,-17"/>
<text text-anchor="start" x="8.5" y="-38" font-family="Verdana" font-size="10.00">CFixedPointParameterType</text>
<text text-anchor="middle" x="72" y="-25" font-family="Verdana" font-size="10.00">::fromXml</text>
</g>
<!-- Node2 -->
<g id="node3" class="node"><title>Node2</title>
<a xlink:href="classCFixedPointParameterType.html#ae9b48934e686faecefd25163ba3921f3" target="_top" xlink:title="CFixedPointParameterType\l::getKind">
<polygon fill="white" stroke="black" points="180.5,-40 180.5,-74 323.5,-74 323.5,-40 180.5,-40"/>
<text text-anchor="start" x="188.5" y="-61" font-family="Verdana" font-size="10.00">CFixedPointParameterType</text>
<text text-anchor="middle" x="252" y="-48" font-family="Verdana" font-size="10.00">::getKind</text>
</a>
</g>
<!-- Node1&#45;&gt;Node2 -->
<g id="edge2" class="edge"><title>Node1&#45;&gt;Node2</title>
<path fill="none" stroke="midnightblue" d="M143.658,-43.1563C152.419,-44.2758 161.423,-45.4263 170.318,-46.5628"/>
<polygon fill="midnightblue" stroke="midnightblue" points="169.932,-50.0418 180.295,-47.8376 170.819,-43.0983 169.932,-50.0418"/>
</g>
<!-- Node3 -->
<g id="node5" class="node"><title>Node3</title>
<a xlink:href="classCParameterType.html#a001697bcc5a0c57d1e8021cd3898313a" target="_top" xlink:title="CParameterType::setSize">
<polygon fill="white" stroke="black" points="184,-0.5 184,-21.5 320,-21.5 320,-0.5 184,-0.5"/>
<text text-anchor="middle" x="252" y="-8.5" font-family="Verdana" font-size="10.00">CParameterType::setSize</text>
</a>
</g>
<!-- Node1&#45;&gt;Node3 -->
<g id="edge4" class="edge"><title>Node1&#45;&gt;Node3</title>
<path fill="none" stroke="midnightblue" d="M143.658,-24.8437C153.584,-23.5753 163.822,-22.2672 173.859,-20.9847"/>
<polygon fill="midnightblue" stroke="midnightblue" points="174.335,-24.4525 183.81,-19.7131 173.447,-17.5089 174.335,-24.4525"/>
</g>
</g>
</svg>
