<?xml version="1.0" encoding="UTF-8" standalone="no"?>
<!DOCTYPE svg PUBLIC "-//W3C//DTD SVG 1.1//EN"
 "http://www.w3.org/Graphics/SVG/1.1/DTD/svg11.dtd">
<!-- Generated by graphviz version 2.26.3 (20100126.1600)
 -->
<!-- Title: CPathNavigator::next Pages: 1 -->
<svg width="766pt" height="316pt"
 viewBox="0.00 0.00 766.00 316.00" xmlns="http://www.w3.org/2000/svg" xmlns:xlink="http://www.w3.org/1999/xlink">
<g id="graph1" class="graph" transform="scale(1 1) rotate(0) translate(4 312)">
<title>CPathNavigator::next</title>
<polygon fill="white" stroke="white" points="-4,5 -4,-312 763,-312 763,5 -4,5"/>
<!-- Node1 -->
<g id="node1" class="node"><title>Node1</title>
<polygon fill="#bfbfbf" stroke="black" points="0,-122.5 0,-143.5 118,-143.5 118,-122.5 0,-122.5"/>
<text text-anchor="middle" x="59" y="-130.5" font-family="Verdana" font-size="10.00">CPathNavigator::next</text>
</g>
<!-- Node2 -->
<g id="node3" class="node"><title>Node2</title>
<a xlink:href="classCConfigurableElement.html#a1dae2debee4a443ce572f15e75247808" target="_top" xlink:title="CConfigurableElement\l::accessValue">
<polygon fill="white" stroke="black" points="174.5,-218 174.5,-252 297.5,-252 297.5,-218 174.5,-218"/>
<text text-anchor="start" x="182.5" y="-239" font-family="Verdana" font-size="10.00">CConfigurableElement</text>
<text text-anchor="middle" x="236" y="-226" font-family="Verdana" font-size="10.00">::accessValue</text>
</a>
</g>
<!-- Node1&#45;&gt;Node2 -->
<g id="edge2" class="edge"><title>Node1&#45;&gt;Node2</title>
<path fill="none" stroke="midnightblue" d="M78.5456,-150.2C97.0088,-165.796 125.976,-188.631 154,-204 163.475,-209.196 174.001,-213.894 184.267,-217.971"/>
<polygon fill="midnightblue" stroke="midnightblue" points="80.7128,-147.447 70.8428,-143.596 76.1567,-152.762 80.7128,-147.447"/>
</g>
<!-- Node3 -->
<g id="node6" class="node"><title>Node3</title>
<a xlink:href="classCElement.html#a182dcfb7ab154cc97cff047c5f5539f5" target="_top" xlink:title="CElement::findDescendant">
<polygon fill="white" stroke="black" points="164,-122.5 164,-143.5 308,-143.5 308,-122.5 164,-122.5"/>
<text text-anchor="middle" x="236" y="-130.5" font-family="Verdana" font-size="10.00">CElement::findDescendant</text>
</a>
</g>
<!-- Node1&#45;&gt;Node3 -->
<g id="edge6" class="edge"><title>Node1&#45;&gt;Node3</title>
<path fill="none" stroke="midnightblue" d="M128.489,-133C140.093,-133 152.155,-133 163.825,-133"/>
<polygon fill="midnightblue" stroke="midnightblue" points="128.431,-129.5 118.431,-133 128.431,-136.5 128.431,-129.5"/>
</g>
<!-- Node4 -->
<g id="node9" class="node"><title>Node4</title>
<a xlink:href="classCElementLocator.html#a94ddc34b50d96cd1cc78f43e3014ce36" target="_top" xlink:title="CElementLocator::locate">
<polygon fill="white" stroke="black" points="374,-183.5 374,-204.5 508,-204.5 508,-183.5 374,-183.5"/>
<text text-anchor="middle" x="441" y="-191.5" font-family="Verdana" font-size="10.00">CElementLocator::locate</text>
</a>
</g>
<!-- Node1&#45;&gt;Node4 -->
<g id="edge26" class="edge"><title>Node1&#45;&gt;Node4</title>
<path fill="none" stroke="midnightblue" d="M89.5375,-147.946C107.799,-156.186 131.717,-165.777 154,-171 227.852,-188.311 314.995,-193.18 373.722,-194.276"/>
<polygon fill="midnightblue" stroke="midnightblue" points="90.8272,-144.687 80.2815,-143.668 87.8903,-151.041 90.8272,-144.687"/>
</g>
<!-- Node12 -->
<g id="node26" class="node"><title>Node12</title>
<a xlink:href="classCInstanceConfigurableElement.html#a4355916fa36efbe5fb62894d0a5dc95f" target="_top" xlink:title="CInstanceConfigurableElement\l::checkPathExhausted">
<polygon fill="white" stroke="black" points="154,-10 154,-44 318,-44 318,-10 154,-10"/>
<text text-anchor="start" x="162" y="-31" font-family="Verdana" font-size="10.00">CInstanceConfigurableElement</text>
<text text-anchor="middle" x="236" y="-18" font-family="Verdana" font-size="10.00">::checkPathExhausted</text>
</a>
</g>
<!-- Node1&#45;&gt;Node12 -->
<g id="edge28" class="edge"><title>Node1&#45;&gt;Node12</title>
<path fill="none" stroke="midnightblue" d="M78.6196,-115.743C97.1341,-100.056 126.135,-76.9838 154,-61 164.962,-54.712 177.315,-48.9639 189.042,-44.0549"/>
<polygon fill="midnightblue" stroke="midnightblue" points="76.1985,-113.209 70.8926,-122.38 80.7592,-118.519 76.1985,-113.209"/>
</g>
<!-- Node14 -->
<g id="node30" class="node"><title>Node14</title>
<a xlink:href="classCPathNavigator.html#ad588f1802ca5e196e96972273f36a80d" target="_top" xlink:title="CPathNavigator::navigate\lThrough">
<polygon fill="white" stroke="black" points="167,-70 167,-104 305,-104 305,-70 167,-70"/>
<text text-anchor="start" x="175" y="-91" font-family="Verdana" font-size="10.00">CPathNavigator::navigate</text>
<text text-anchor="middle" x="236" y="-78" font-family="Verdana" font-size="10.00">Through</text>
</a>
</g>
<!-- Node1&#45;&gt;Node14 -->
<g id="edge32" class="edge"><title>Node1&#45;&gt;Node14</title>
<path fill="none" stroke="midnightblue" d="M109.499,-119.876C128.408,-114.962 150.174,-109.305 170.262,-104.085"/>
<polygon fill="midnightblue" stroke="midnightblue" points="108.405,-116.544 99.6074,-122.447 110.166,-123.319 108.405,-116.544"/>
</g>
<!-- Node2&#45;&gt;Node2 -->
<g id="edge4" class="edge"><title>Node2&#45;&gt;Node2</title>
<path fill="none" stroke="midnightblue" d="M205.35,-262.318C209.654,-266.864 219.871,-270 236,-270 262.469,-270 273.015,-261.556 267.638,-252.288"/>
<polygon fill="midnightblue" stroke="midnightblue" points="208.825,-261.896 204.362,-252.288 201.859,-262.583 208.825,-261.896"/>
</g>
<!-- Node3&#45;&gt;Node3 -->
<g id="edge8" class="edge"><title>Node3&#45;&gt;Node3</title>
<path fill="none" stroke="midnightblue" d="M203.252,-152.679C205.007,-157.975 215.923,-162 236,-162 266.594,-162 275.915,-152.653 263.965,-143.708"/>
<polygon fill="midnightblue" stroke="midnightblue" points="206.419,-154.179 208.035,-143.708 200.242,-150.885 206.419,-154.179"/>
</g>
<!-- Node3&#45;&gt;Node4 -->
<g id="edge10" class="edge"><title>Node3&#45;&gt;Node4</title>
<path fill="none" stroke="midnightblue" d="M281.374,-146.501C318.853,-157.654 371.303,-173.261 405.701,-183.496"/>
<polygon fill="midnightblue" stroke="midnightblue" points="282.291,-143.123 271.708,-143.625 280.295,-149.832 282.291,-143.123"/>
</g>
<!-- Node9 -->
<g id="node19" class="node"><title>Node9</title>
<a xlink:href="classCParameterMgr.html#ad3ee51d6a9f2e0d0ea143a238120b5af" target="_top" xlink:title="Returns the CConfigurableElement corresponding to the path given in argument. ">
<polygon fill="white" stroke="black" points="354.5,-78 354.5,-112 527.5,-112 527.5,-78 354.5,-78"/>
<text text-anchor="start" x="362.5" y="-99" font-family="Verdana" font-size="10.00">CParameterMgr::getConfigurable</text>
<text text-anchor="middle" x="441" y="-86" font-family="Verdana" font-size="10.00">Element</text>
</a>
</g>
<!-- Node3&#45;&gt;Node9 -->
<g id="edge20" class="edge"><title>Node3&#45;&gt;Node9</title>
<path fill="none" stroke="midnightblue" d="M302.886,-120.602C319.352,-117.549 337.22,-114.237 354.468,-111.04"/>
<polygon fill="midnightblue" stroke="midnightblue" points="302.026,-117.201 292.832,-122.465 303.302,-124.084 302.026,-117.201"/>
</g>
<!-- Node5 -->
<g id="node11" class="node"><title>Node5</title>
<a xlink:href="classCParameterMgr.html#a25055f536c2d537e86852c87a4e1a061" target="_top" xlink:title="CParameterMgr::accessConfiguration\lValue">
<polygon fill="white" stroke="black" points="564,-182 564,-216 758,-216 758,-182 564,-182"/>
<text text-anchor="start" x="572" y="-203" font-family="Verdana" font-size="10.00">CParameterMgr::accessConfiguration</text>
<text text-anchor="middle" x="661" y="-190" font-family="Verdana" font-size="10.00">Value</text>
</a>
</g>
<!-- Node4&#45;&gt;Node5 -->
<g id="edge12" class="edge"><title>Node4&#45;&gt;Node5</title>
<path fill="none" stroke="midnightblue" d="M518.25,-195.756C532.983,-196.091 548.578,-196.445 563.839,-196.792"/>
<polygon fill="midnightblue" stroke="midnightblue" points="518.28,-192.256 508.203,-195.527 518.121,-199.254 518.28,-192.256"/>
</g>
<!-- Node6 -->
<g id="node13" class="node"><title>Node6</title>
<a xlink:href="classCParameterMgr.html#ae9941471fb32f02b3620cf46cd13ebbb" target="_top" xlink:title="CParameterMgr::addConfigurable\lElementToDomain">
<polygon fill="white" stroke="black" points="573,-130 573,-164 749,-164 749,-130 573,-130"/>
<text text-anchor="start" x="581" y="-151" font-family="Verdana" font-size="10.00">CParameterMgr::addConfigurable</text>
<text text-anchor="middle" x="661" y="-138" font-family="Verdana" font-size="10.00">ElementToDomain</text>
</a>
</g>
<!-- Node4&#45;&gt;Node6 -->
<g id="edge14" class="edge"><title>Node4&#45;&gt;Node6</title>
<path fill="none" stroke="midnightblue" d="M500.37,-181.316C525.211,-176.01 554.456,-169.762 581.139,-164.061"/>
<polygon fill="midnightblue" stroke="midnightblue" points="499.42,-177.94 490.372,-183.452 500.883,-184.786 499.42,-177.94"/>
</g>
<!-- Node7 -->
<g id="node15" class="node"><title>Node7</title>
<a xlink:href="classCParameterMgr.html#a4f307490c67f2dde0b08e638500dd5d4" target="_top" xlink:title="CParameterMgr::removeConfigurable\lElementFromDomain">
<polygon fill="white" stroke="black" points="564,-274 564,-308 758,-308 758,-274 564,-274"/>
<text text-anchor="start" x="572" y="-295" font-family="Verdana" font-size="10.00">CParameterMgr::removeConfigurable</text>
<text text-anchor="middle" x="661" y="-282" font-family="Verdana" font-size="10.00">ElementFromDomain</text>
</a>
</g>
<!-- Node4&#45;&gt;Node7 -->
<g id="edge16" class="edge"><title>Node4&#45;&gt;Node7</title>
<path fill="none" stroke="midnightblue" d="M464.718,-210.212C488.808,-226.06 527.642,-249.94 564,-265 571.973,-268.303 580.49,-271.3 589.041,-273.987"/>
<polygon fill="midnightblue" stroke="midnightblue" points="466.507,-207.198 456.244,-204.567 462.626,-213.024 466.507,-207.198"/>
</g>
<!-- Node8 -->
<g id="node17" class="node"><title>Node8</title>
<a xlink:href="classCParameterMgr.html#a042735242f31241743085d2d9d7edcc5" target="_top" xlink:title="CParameterMgr::split">
<polygon fill="white" stroke="black" points="602.5,-234.5 602.5,-255.5 719.5,-255.5 719.5,-234.5 602.5,-234.5"/>
<text text-anchor="middle" x="661" y="-242.5" font-family="Verdana" font-size="10.00">CParameterMgr::split</text>
</a>
</g>
<!-- Node4&#45;&gt;Node8 -->
<g id="edge18" class="edge"><title>Node4&#45;&gt;Node8</title>
<path fill="none" stroke="midnightblue" d="M490.971,-207.119C513.267,-212.837 539.893,-219.48 564,-225 578.163,-228.243 593.544,-231.524 607.797,-234.465"/>
<polygon fill="midnightblue" stroke="midnightblue" points="491.613,-203.67 481.056,-204.564 489.866,-210.449 491.613,-203.67"/>
</g>
<!-- Node10 -->
<g id="node21" class="node"><title>Node10</title>
<a xlink:href="classCParameterMgr.html#ada6dd503a49385c74029b7c0e8e1ba0e" target="_top" xlink:title="CParameterMgr::createParameter\lHandle">
<polygon fill="white" stroke="black" points="571.5,-78 571.5,-112 750.5,-112 750.5,-78 571.5,-78"/>
<text text-anchor="start" x="579.5" y="-99" font-family="Verdana" font-size="10.00">CParameterMgr::createParameter</text>
<text text-anchor="middle" x="661" y="-86" font-family="Verdana" font-size="10.00">Handle</text>
</a>
</g>
<!-- Node9&#45;&gt;Node10 -->
<g id="edge22" class="edge"><title>Node9&#45;&gt;Node10</title>
<path fill="none" stroke="midnightblue" d="M537.773,-95C548.883,-95 560.176,-95 571.19,-95"/>
<polygon fill="midnightblue" stroke="midnightblue" points="537.634,-91.5001 527.634,-95 537.634,-98.5001 537.634,-91.5001"/>
</g>
<!-- Node11 -->
<g id="node23" class="node"><title>Node11</title>
<a xlink:href="classCParameterMgr.html#a00467972dcf35bd3036a536f5c328436" target="_top" xlink:title="Returns the element mapping corresponding to the path given in parameter. ">
<polygon fill="white" stroke="black" points="579,-26 579,-60 743,-60 743,-26 579,-26"/>
<text text-anchor="start" x="587" y="-47" font-family="Verdana" font-size="10.00">CParameterMgr::getParameter</text>
<text text-anchor="middle" x="661" y="-34" font-family="Verdana" font-size="10.00">Mapping</text>
</a>
</g>
<!-- Node9&#45;&gt;Node11 -->
<g id="edge24" class="edge"><title>Node9&#45;&gt;Node11</title>
<path fill="none" stroke="midnightblue" d="M522.859,-75.6516C544.504,-70.5353 567.709,-65.0506 588.802,-60.065"/>
<polygon fill="midnightblue" stroke="midnightblue" points="521.963,-72.2668 513.036,-77.9733 523.573,-79.0791 521.963,-72.2668"/>
</g>
<!-- Node13 -->
<g id="node28" class="node"><title>Node13</title>
<a xlink:href="classCBaseParameter.html#a4a9b3e3a2d1ea65a8dc7048559db8dc2" target="_top" xlink:title="CBaseParameter::accessValue">
<polygon fill="white" stroke="black" points="359.5,-0.5 359.5,-21.5 522.5,-21.5 522.5,-0.5 359.5,-0.5"/>
<text text-anchor="middle" x="441" y="-8.5" font-family="Verdana" font-size="10.00">CBaseParameter::accessValue</text>
</a>
</g>
<!-- Node12&#45;&gt;Node13 -->
<g id="edge30" class="edge"><title>Node12&#45;&gt;Node13</title>
<path fill="none" stroke="midnightblue" d="M328.47,-19.7829C338.801,-18.9765 349.269,-18.1595 359.449,-17.3649"/>
<polygon fill="midnightblue" stroke="midnightblue" points="327.897,-16.3168 318.2,-20.5844 328.442,-23.2956 327.897,-16.3168"/>
</g>
<!-- Node14&#45;&gt;Node9 -->
<g id="edge34" class="edge"><title>Node14&#45;&gt;Node9</title>
<path fill="none" stroke="midnightblue" d="M315.264,-90.0932C328.072,-90.5931 341.391,-91.1128 354.363,-91.6191"/>
<polygon fill="midnightblue" stroke="midnightblue" points="315.247,-86.59 305.118,-89.6973 314.974,-93.5847 315.247,-86.59"/>
</g>
<!-- Node14&#45;&gt;Node11 -->
<g id="edge36" class="edge"><title>Node14&#45;&gt;Node11</title>
<path fill="none" stroke="midnightblue" d="M315.397,-74.1455C328.281,-72.2736 341.497,-70.4814 354,-69 429.959,-60.0003 516.849,-52.9422 578.758,-48.4648"/>
<polygon fill="midnightblue" stroke="midnightblue" points="314.535,-70.7348 305.154,-75.6594 315.559,-77.6595 314.535,-70.7348"/>
</g>
</g>
</svg>
