<?xml version="1.0" encoding="UTF-8" standalone="no"?>
<!DOCTYPE svg PUBLIC "-//W3C//DTD SVG 1.1//EN"
 "http://www.w3.org/Graphics/SVG/1.1/DTD/svg11.dtd">
<!-- Generated by graphviz version 2.26.3 (20100126.1600)
 -->
<!-- Title: CElement::getParent Pages: 1 -->
<svg width="976pt" height="372pt"
 viewBox="0.00 0.00 976.00 372.00" xmlns="http://www.w3.org/2000/svg" xmlns:xlink="http://www.w3.org/1999/xlink">
<g id="graph1" class="graph" transform="scale(1 1) rotate(0) translate(4 368)">
<title>CElement::getParent</title>
<polygon fill="white" stroke="white" points="-4,5 -4,-368 973,-368 973,5 -4,5"/>
<!-- Node1 -->
<g id="node1" class="node"><title>Node1</title>
<polygon fill="#bfbfbf" stroke="black" points="0,-180.5 0,-201.5 116,-201.5 116,-180.5 0,-180.5"/>
<text text-anchor="middle" x="58" y="-188.5" font-family="Verdana" font-size="10.00">CElement::getParent</text>
</g>
<!-- Node2 -->
<g id="node3" class="node"><title>Node2</title>
<a xlink:href="classCBitParameter.html#a5fcbaa6052e15453764a1a83da160c10" target="_top" xlink:title="CBitParameter::getBelonging\lBlockSize">
<polygon fill="white" stroke="black" points="160.5,-330 160.5,-364 315.5,-364 315.5,-330 160.5,-330"/>
<text text-anchor="start" x="168.5" y="-351" font-family="Verdana" font-size="10.00">CBitParameter::getBelonging</text>
<text text-anchor="middle" x="238" y="-338" font-family="Verdana" font-size="10.00">BlockSize</text>
</a>
</g>
<!-- Node1&#45;&gt;Node2 -->
<g id="edge2" class="edge"><title>Node1&#45;&gt;Node2</title>
<path fill="none" stroke="midnightblue" d="M67.1625,-210.922C81.3185,-239.509 111.195,-291.92 152,-321 156.7,-324.349 161.838,-327.274 167.189,-329.826"/>
<polygon fill="midnightblue" stroke="midnightblue" points="70.1493,-209.056 62.6673,-201.554 63.8384,-212.084 70.1493,-209.056"/>
</g>
<!-- Node3 -->
<g id="node5" class="node"><title>Node3</title>
<a xlink:href="classCBitParameterType.html#a76b208c42677a4a7a90494f348924403" target="_top" xlink:title="CBitParameterType::\lfromXml">
<polygon fill="white" stroke="black" points="181.5,-278 181.5,-312 294.5,-312 294.5,-278 181.5,-278"/>
<text text-anchor="start" x="189.5" y="-299" font-family="Verdana" font-size="10.00">CBitParameterType::</text>
<text text-anchor="middle" x="238" y="-286" font-family="Verdana" font-size="10.00">fromXml</text>
</a>
</g>
<!-- Node1&#45;&gt;Node3 -->
<g id="edge4" class="edge"><title>Node1&#45;&gt;Node3</title>
<path fill="none" stroke="midnightblue" d="M75.2791,-209.048C93.0256,-226.63 122.194,-252.982 152,-269 161.068,-273.873 171.177,-277.962 181.187,-281.346"/>
<polygon fill="midnightblue" stroke="midnightblue" points="77.4884,-206.305 67.9678,-201.656 72.5115,-211.227 77.4884,-206.305"/>
</g>
<!-- Node4 -->
<g id="node7" class="node"><title>Node4</title>
<a xlink:href="classCComponentInstance.html#a1943a2510a8a326f0fedd9cc8f07b193" target="_top" xlink:title="CComponentInstance\l::fromXml">
<polygon fill="white" stroke="black" points="178,-226 178,-260 298,-260 298,-226 178,-226"/>
<text text-anchor="start" x="186" y="-247" font-family="Verdana" font-size="10.00">CComponentInstance</text>
<text text-anchor="middle" x="238" y="-234" font-family="Verdana" font-size="10.00">::fromXml</text>
</a>
</g>
<!-- Node1&#45;&gt;Node4 -->
<g id="edge6" class="edge"><title>Node1&#45;&gt;Node4</title>
<path fill="none" stroke="midnightblue" d="M104.181,-204.341C126.947,-210.918 154.662,-218.925 178.952,-225.942"/>
<polygon fill="midnightblue" stroke="midnightblue" points="105.004,-200.936 94.4257,-201.523 103.061,-207.661 105.004,-200.936"/>
</g>
<!-- Node5 -->
<g id="node9" class="node"><title>Node5</title>
<a xlink:href="classCConfigurableElement.html#a78722d8443df22565bf41d01308368ab" target="_top" xlink:title="Get the list of all the ancestors that have a mapping. ">
<polygon fill="white" stroke="black" points="152.5,-104 152.5,-138 323.5,-138 323.5,-104 152.5,-104"/>
<text text-anchor="start" x="160.5" y="-125" font-family="Verdana" font-size="10.00">CConfigurableElement</text>
<text text-anchor="middle" x="238" y="-112" font-family="Verdana" font-size="10.00">::getListOfElementsWithMapping</text>
</a>
</g>
<!-- Node1&#45;&gt;Node5 -->
<g id="edge8" class="edge"><title>Node1&#45;&gt;Node5</title>
<path fill="none" stroke="midnightblue" d="M95.0242,-176.602C123.831,-165.399 163.88,-149.824 194.265,-138.008"/>
<polygon fill="midnightblue" stroke="midnightblue" points="93.3896,-173.482 85.3381,-180.369 95.9268,-180.006 93.3896,-173.482"/>
</g>
<!-- Node7 -->
<g id="node14" class="node"><title>Node7</title>
<a xlink:href="classCConfigurableElement.html#ace18ab1044203825e43ce44126c9322d" target="_top" xlink:title="CConfigurableElement\l::getSyncer">
<polygon fill="white" stroke="black" points="176.5,-174 176.5,-208 299.5,-208 299.5,-174 176.5,-174"/>
<text text-anchor="start" x="184.5" y="-195" font-family="Verdana" font-size="10.00">CConfigurableElement</text>
<text text-anchor="middle" x="238" y="-182" font-family="Verdana" font-size="10.00">::getSyncer</text>
</a>
</g>
<!-- Node1&#45;&gt;Node7 -->
<g id="edge14" class="edge"><title>Node1&#45;&gt;Node7</title>
<path fill="none" stroke="midnightblue" d="M126.512,-191C142.932,-191 160.364,-191 176.447,-191"/>
<polygon fill="midnightblue" stroke="midnightblue" points="126.441,-187.5 116.441,-191 126.441,-194.5 126.441,-187.5"/>
</g>
<!-- Node13 -->
<g id="node26" class="node"><title>Node13</title>
<a xlink:href="classCConfigurableElement.html#a1e30831c0d3ce07df6d0f6730ba04654" target="_top" xlink:title="CConfigurableElement\l::getBelongingSubsystem">
<polygon fill="white" stroke="black" points="168,-52 168,-86 308,-86 308,-52 168,-52"/>
<text text-anchor="start" x="176" y="-73" font-family="Verdana" font-size="10.00">CConfigurableElement</text>
<text text-anchor="middle" x="238" y="-60" font-family="Verdana" font-size="10.00">::getBelongingSubsystem</text>
</a>
</g>
<!-- Node1&#45;&gt;Node13 -->
<g id="edge26" class="edge"><title>Node1&#45;&gt;Node13</title>
<path fill="none" stroke="midnightblue" d="M71.5825,-172.256C88.2079,-150.618 118.335,-115.398 152,-95 157.603,-91.6051 163.682,-88.6244 169.931,-86.0132"/>
<polygon fill="midnightblue" stroke="midnightblue" points="68.7096,-170.253 65.5056,-180.352 74.308,-174.455 68.7096,-170.253"/>
</g>
<!-- Node15 -->
<g id="node31" class="node"><title>Node15</title>
<a xlink:href="classCXmlFileIncluderElement.html#a754298eb75aacfe300ed3942d51611aa" target="_top" xlink:title="CXmlFileIncluderElement\l::fromXml">
<polygon fill="white" stroke="black" points="171,-0 171,-34 305,-34 305,-0 171,-0"/>
<text text-anchor="start" x="179" y="-21" font-family="Verdana" font-size="10.00">CXmlFileIncluderElement</text>
<text text-anchor="middle" x="238" y="-8" font-family="Verdana" font-size="10.00">::fromXml</text>
</a>
</g>
<!-- Node1&#45;&gt;Node15 -->
<g id="edge32" class="edge"><title>Node1&#45;&gt;Node15</title>
<path fill="none" stroke="midnightblue" d="M65.5001,-170.593C78.2887,-138.625 107.345,-76.8954 152,-43 157.715,-38.6619 164.153,-35.0434 170.87,-32.0259"/>
<polygon fill="midnightblue" stroke="midnightblue" points="62.1237,-169.621 61.7877,-180.211 68.6541,-172.142 62.1237,-169.621"/>
</g>
<!-- Node5&#45;&gt;Node5 -->
<g id="edge10" class="edge"><title>Node5&#45;&gt;Node5</title>
<path fill="none" stroke="midnightblue" d="M206.653,-148.318C211.055,-152.864 221.504,-156 238,-156 265.07,-156 275.856,-147.556 270.357,-138.288"/>
<polygon fill="midnightblue" stroke="midnightblue" points="210.128,-147.886 205.643,-138.288 203.163,-148.588 210.128,-147.886"/>
</g>
<!-- Node6 -->
<g id="node12" class="node"><title>Node6</title>
<a xlink:href="classCParameterMgr.html#a00467972dcf35bd3036a536f5c328436" target="_top" xlink:title="Returns the element mapping corresponding to the path given in parameter. ">
<polygon fill="white" stroke="black" points="370,-101 370,-135 534,-135 534,-101 370,-101"/>
<text text-anchor="start" x="378" y="-122" font-family="Verdana" font-size="10.00">CParameterMgr::getParameter</text>
<text text-anchor="middle" x="452" y="-109" font-family="Verdana" font-size="10.00">Mapping</text>
</a>
</g>
<!-- Node5&#45;&gt;Node6 -->
<g id="edge12" class="edge"><title>Node5&#45;&gt;Node6</title>
<path fill="none" stroke="midnightblue" d="M333.583,-119.66C345.657,-119.491 357.927,-119.319 369.768,-119.153"/>
<polygon fill="midnightblue" stroke="midnightblue" points="333.451,-116.161 323.501,-119.801 333.549,-123.161 333.451,-116.161"/>
</g>
<!-- Node8 -->
<g id="node16" class="node"><title>Node8</title>
<a xlink:href="classCConfigurableElement.html#a0b3d6d2477e5ea7c23905604fabdb7bf" target="_top" xlink:title="CConfigurableElement\l::fillSyncerSet">
<polygon fill="white" stroke="black" points="390.5,-174 390.5,-208 513.5,-208 513.5,-174 390.5,-174"/>
<text text-anchor="start" x="398.5" y="-195" font-family="Verdana" font-size="10.00">CConfigurableElement</text>
<text text-anchor="middle" x="452" y="-182" font-family="Verdana" font-size="10.00">::fillSyncerSet</text>
</a>
</g>
<!-- Node7&#45;&gt;Node8 -->
<g id="edge16" class="edge"><title>Node7&#45;&gt;Node8</title>
<path fill="none" stroke="midnightblue" d="M309.839,-191C335.984,-191 365.28,-191 390.454,-191"/>
<polygon fill="midnightblue" stroke="midnightblue" points="309.611,-187.5 299.611,-191 309.611,-194.5 309.611,-187.5"/>
</g>
<!-- Node9 -->
<g id="node18" class="node"><title>Node9</title>
<a xlink:href="classCHardwareBackSynchronizer.html#ad06f7ec68fcd8ce9b878963a39300839" target="_top" xlink:title="CHardwareBackSynchronizer\l::CHardwareBackSynchronizer">
<polygon fill="white" stroke="black" points="596.5,-220 596.5,-254 757.5,-254 757.5,-220 596.5,-220"/>
<text text-anchor="start" x="604.5" y="-241" font-family="Verdana" font-size="10.00">CHardwareBackSynchronizer</text>
<text text-anchor="middle" x="677" y="-228" font-family="Verdana" font-size="10.00">::CHardwareBackSynchronizer</text>
</a>
</g>
<!-- Node8&#45;&gt;Node9 -->
<g id="edge18" class="edge"><title>Node8&#45;&gt;Node9</title>
<path fill="none" stroke="midnightblue" d="M523.845,-205.688C546.941,-210.41 572.679,-215.672 596.363,-220.514"/>
<polygon fill="midnightblue" stroke="midnightblue" points="524.278,-202.205 513.78,-203.631 522.876,-209.063 524.278,-202.205"/>
</g>
<!-- Node10 -->
<g id="node20" class="node"><title>Node10</title>
<a xlink:href="classCParameterMgr.html#a3c23f1ef6dbe73de230fe429af194937" target="_top" xlink:title="CParameterMgr::sync">
<polygon fill="white" stroke="black" points="617.5,-180.5 617.5,-201.5 736.5,-201.5 736.5,-180.5 617.5,-180.5"/>
<text text-anchor="middle" x="677" y="-188.5" font-family="Verdana" font-size="10.00">CParameterMgr::sync</text>
</a>
</g>
<!-- Node8&#45;&gt;Node10 -->
<g id="edge20" class="edge"><title>Node8&#45;&gt;Node10</title>
<path fill="none" stroke="midnightblue" d="M523.813,-191C553.951,-191 588.592,-191 617.299,-191"/>
<polygon fill="midnightblue" stroke="midnightblue" points="523.78,-187.5 513.78,-191 523.78,-194.5 523.78,-187.5"/>
</g>
<!-- Node12 -->
<g id="node24" class="node"><title>Node12</title>
<a xlink:href="classCSystemClass.html#ab71ea33fad4ce8978ad2577314146fec" target="_top" xlink:title="Look for subsystems that need to be resynchronized. ">
<polygon fill="white" stroke="black" points="580,-128 580,-162 774,-162 774,-128 580,-128"/>
<text text-anchor="start" x="588" y="-149" font-family="Verdana" font-size="10.00">CSystemClass::checkForSubsystems</text>
<text text-anchor="middle" x="677" y="-136" font-family="Verdana" font-size="10.00">ToResync</text>
</a>
</g>
<!-- Node8&#45;&gt;Node12 -->
<g id="edge24" class="edge"><title>Node8&#45;&gt;Node12</title>
<path fill="none" stroke="midnightblue" d="M523.778,-176.325C545.945,-171.794 570.55,-166.763 593.44,-162.083"/>
<polygon fill="midnightblue" stroke="midnightblue" points="522.876,-172.937 513.78,-178.369 524.278,-179.795 522.876,-172.937"/>
</g>
<!-- Node11 -->
<g id="node22" class="node"><title>Node11</title>
<a xlink:href="classCParameterMgr.html#acdcc1016dc61898195e8855979803572" target="_top" xlink:title="Sync. ">
<polygon fill="white" stroke="black" points="810,-180.5 810,-201.5 968,-201.5 968,-180.5 810,-180.5"/>
<text text-anchor="middle" x="889" y="-188.5" font-family="Verdana" font-size="10.00">CParameterMgr::setAutoSync</text>
</a>
</g>
<!-- Node10&#45;&gt;Node11 -->
<g id="edge22" class="edge"><title>Node10&#45;&gt;Node11</title>
<path fill="none" stroke="midnightblue" d="M746.646,-191C766.801,-191 788.95,-191 809.65,-191"/>
<polygon fill="midnightblue" stroke="midnightblue" points="746.618,-187.5 736.618,-191 746.618,-194.5 746.618,-187.5"/>
</g>
<!-- Node13&#45;&gt;Node6 -->
<g id="edge28" class="edge"><title>Node13&#45;&gt;Node6</title>
<path fill="none" stroke="midnightblue" d="M317.883,-87.291C337.488,-91.7799 358.392,-96.5665 377.721,-100.992"/>
<polygon fill="midnightblue" stroke="midnightblue" points="318.601,-83.8648 308.072,-85.0444 317.038,-90.6882 318.601,-83.8648"/>
</g>
<!-- Node14 -->
<g id="node29" class="node"><title>Node14</title>
<a xlink:href="classCSubsystemObject.html#ae18b34938c86c5eca33f8b5036404a7c" target="_top" xlink:title="CSubsystemObject::getSubsystem">
<polygon fill="white" stroke="black" points="360,-58.5 360,-79.5 544,-79.5 544,-58.5 360,-58.5"/>
<text text-anchor="middle" x="452" y="-66.5" font-family="Verdana" font-size="10.00">CSubsystemObject::getSubsystem</text>
</a>
</g>
<!-- Node13&#45;&gt;Node14 -->
<g id="edge30" class="edge"><title>Node13&#45;&gt;Node14</title>
<path fill="none" stroke="midnightblue" d="M318.325,-69C331.91,-69 346.108,-69 359.964,-69"/>
<polygon fill="midnightblue" stroke="midnightblue" points="318.072,-65.5001 308.072,-69 318.072,-72.5001 318.072,-65.5001"/>
</g>
</g>
</svg>
