<?xml version="1.0" encoding="UTF-8" standalone="no"?>
<!DOCTYPE svg PUBLIC "-//W3C//DTD SVG 1.1//EN"
 "http://www.w3.org/Graphics/SVG/1.1/DTD/svg11.dtd">
<!-- Generated by graphviz version 2.26.3 (20100126.1600)
 -->
<!-- Title: CIntegerParameterType::fromXml Pages: 1 -->
<svg width="326pt" height="70pt"
 viewBox="0.00 0.00 326.00 70.00" xmlns="http://www.w3.org/2000/svg" xmlns:xlink="http://www.w3.org/1999/xlink">
<g id="graph1" class="graph" transform="scale(1 1) rotate(0) translate(4 66)">
<title>CIntegerParameterType::fromXml</title>
<polygon fill="white" stroke="white" points="-4,5 -4,-66 323,-66 323,5 -4,5"/>
<!-- Node1 -->
<g id="node1" class="node"><title>Node1</title>
<polygon fill="#bfbfbf" stroke="black" points="0,-14 0,-48 128,-48 128,-14 0,-14"/>
<text text-anchor="start" x="8" y="-35" font-family="Verdana" font-size="10.00">CIntegerParameterType</text>
<text text-anchor="middle" x="64" y="-22" font-family="Verdana" font-size="10.00">::fromXml</text>
</g>
<!-- Node2 -->
<g id="node3" class="node"><title>Node2</title>
<a xlink:href="classCParameterType.html#a001697bcc5a0c57d1e8021cd3898313a" target="_top" xlink:title="CParameterType::setSize">
<polygon fill="white" stroke="black" points="173,-40.5 173,-61.5 309,-61.5 309,-40.5 173,-40.5"/>
<text text-anchor="middle" x="241" y="-48.5" font-family="Verdana" font-size="10.00">CParameterType::setSize</text>
</a>
</g>
<!-- Node1&#45;&gt;Node2 -->
<g id="edge2" class="edge"><title>Node1&#45;&gt;Node2</title>
<path fill="none" stroke="midnightblue" d="M128.151,-38.2487C139.4,-39.5197 151.217,-40.855 162.796,-42.1634"/>
<polygon fill="midnightblue" stroke="midnightblue" points="162.56,-45.6589 172.89,-43.304 163.346,-38.7032 162.56,-45.6589"/>
</g>
<!-- Node3 -->
<g id="node5" class="node"><title>Node3</title>
<a xlink:href="classCParameterType.html#ac32b37965ef213b6a8df9656b37596df" target="_top" xlink:title="Sign extension (32 bits) ">
<polygon fill="white" stroke="black" points="164.5,-0.5 164.5,-21.5 317.5,-21.5 317.5,-0.5 164.5,-0.5"/>
<text text-anchor="middle" x="241" y="-8.5" font-family="Verdana" font-size="10.00">CParameterType::signExtend</text>
</a>
</g>
<!-- Node1&#45;&gt;Node3 -->
<g id="edge4" class="edge"><title>Node1&#45;&gt;Node3</title>
<path fill="none" stroke="midnightblue" d="M128.151,-23.7513C136.705,-22.7847 145.588,-21.781 154.445,-20.7802"/>
<polygon fill="midnightblue" stroke="midnightblue" points="154.872,-24.2544 164.415,-19.6536 154.085,-17.2987 154.872,-24.2544"/>
</g>
</g>
</svg>
