<?xml version="1.0" encoding="UTF-8" standalone="no"?>
<!DOCTYPE svg PUBLIC "-//W3C//DTD SVG 1.1//EN"
 "http://www.w3.org/Graphics/SVG/1.1/DTD/svg11.dtd">
<!-- Generated by graphviz version 2.26.3 (20100126.1600)
 -->
<!-- Title: CSelectionCriterionLibrary Pages: 1 -->
<svg width="154pt" height="146pt"
 viewBox="0.00 0.00 154.00 146.00" xmlns="http://www.w3.org/2000/svg" xmlns:xlink="http://www.w3.org/1999/xlink">
<g id="graph1" class="graph" transform="scale(1 1) rotate(0) translate(4 142)">
<title>CSelectionCriterionLibrary</title>
<polygon fill="white" stroke="white" points="-4,5 -4,-142 151,-142 151,5 -4,5"/>
<!-- Node1 -->
<g id="node1" class="node"><title>Node1</title>
<polygon fill="#bfbfbf" stroke="black" points="0,-0.5 0,-21.5 140,-21.5 140,-0.5 0,-0.5"/>
<text text-anchor="middle" x="70" y="-8.5" font-family="Verdana" font-size="10.00">CSelectionCriterionLibrary</text>
</g>
<!-- Node2 -->
<g id="node2" class="node"><title>Node2</title>
<a xlink:href="classCElement.html" target="_top" xlink:title="CElement">
<polygon fill="white" stroke="black" points="38.5,-58.5 38.5,-79.5 101.5,-79.5 101.5,-58.5 38.5,-58.5"/>
<text text-anchor="middle" x="70" y="-66.5" font-family="Verdana" font-size="10.00">CElement</text>
</a>
</g>
<!-- Node2&#45;&gt;Node1 -->
<g id="edge2" class="edge"><title>Node2&#45;&gt;Node1</title>
<path fill="none" stroke="midnightblue" d="M70,-48.1906C70,-39.1684 70,-28.9941 70,-21.5707"/>
<polygon fill="midnightblue" stroke="midnightblue" points="66.5001,-48.3619 70,-58.3619 73.5001,-48.3619 66.5001,-48.3619"/>
</g>
<!-- Node3 -->
<g id="node4" class="node"><title>Node3</title>
<polygon fill="white" stroke="#bfbfbf" points="1.5,-116.5 1.5,-137.5 58.5,-137.5 58.5,-116.5 1.5,-116.5"/>
<text text-anchor="middle" x="30" y="-124.5" font-family="Verdana" font-size="10.00">IXmlSink</text>
</g>
<!-- Node3&#45;&gt;Node2 -->
<g id="edge4" class="edge"><title>Node3&#45;&gt;Node2</title>
<path fill="none" stroke="midnightblue" d="M43.1317,-107.959C49.64,-98.522 57.2528,-87.4835 62.7099,-79.5707"/>
<polygon fill="midnightblue" stroke="midnightblue" points="40.1327,-106.143 37.3366,-116.362 45.8952,-110.117 40.1327,-106.143"/>
</g>
<!-- Node4 -->
<g id="node6" class="node"><title>Node4</title>
<polygon fill="white" stroke="#bfbfbf" points="75.5,-116.5 75.5,-137.5 146.5,-137.5 146.5,-116.5 75.5,-116.5"/>
<text text-anchor="middle" x="111" y="-124.5" font-family="Verdana" font-size="10.00">IXmlSource</text>
</g>
<!-- Node4&#45;&gt;Node2 -->
<g id="edge6" class="edge"><title>Node4&#45;&gt;Node2</title>
<path fill="none" stroke="midnightblue" d="M97.54,-107.959C90.869,-98.522 83.0659,-87.4835 77.4724,-79.5707"/>
<polygon fill="midnightblue" stroke="midnightblue" points="94.8495,-110.216 103.48,-116.362 100.566,-106.176 94.8495,-110.216"/>
</g>
</g>
</svg>
