<?xml version="1.0" encoding="UTF-8" standalone="no"?>
<!DOCTYPE svg PUBLIC "-//W3C//DTD SVG 1.1//EN"
 "http://www.w3.org/Graphics/SVG/1.1/DTD/svg11.dtd">
<!-- Generated by graphviz version 2.26.3 (20100126.1600)
 -->
<!-- Title: CParameterMgr::sync Pages: 1 -->
<svg width="662pt" height="152pt"
 viewBox="0.00 0.00 662.00 152.00" xmlns="http://www.w3.org/2000/svg" xmlns:xlink="http://www.w3.org/1999/xlink">
<g id="graph1" class="graph" transform="scale(1 1) rotate(0) translate(4 148)">
<title>CParameterMgr::sync</title>
<polygon fill="white" stroke="white" points="-4,5 -4,-148 659,-148 659,5 -4,5"/>
<!-- Node1 -->
<g id="node1" class="node"><title>Node1</title>
<polygon fill="#bfbfbf" stroke="black" points="0.5,-23.5 0.5,-44.5 119.5,-44.5 119.5,-23.5 0.5,-23.5"/>
<text text-anchor="middle" x="60" y="-31.5" font-family="Verdana" font-size="10.00">CParameterMgr::sync</text>
</g>
<!-- Node2 -->
<g id="node3" class="node"><title>Node2</title>
<a xlink:href="classCConfigurableElement.html#a0b3d6d2477e5ea7c23905604fabdb7bf" target="_top" xlink:title="CConfigurableElement\l::fillSyncerSet">
<polygon fill="white" stroke="black" points="156.5,-40 156.5,-74 279.5,-74 279.5,-40 156.5,-40"/>
<text text-anchor="start" x="164.5" y="-61" font-family="Verdana" font-size="10.00">CConfigurableElement</text>
<text text-anchor="middle" x="218" y="-48" font-family="Verdana" font-size="10.00">::fillSyncerSet</text>
</a>
</g>
<!-- Node1&#45;&gt;Node2 -->
<g id="edge2" class="edge"><title>Node1&#45;&gt;Node2</title>
<path fill="none" stroke="midnightblue" d="M119.733,-42.6953C128.432,-43.9616 137.462,-45.2761 146.367,-46.5723"/>
<polygon fill="midnightblue" stroke="midnightblue" points="145.942,-50.0474 156.342,-48.0245 146.951,-43.1204 145.942,-50.0474"/>
</g>
<!-- Node8 -->
<g id="node16" class="node"><title>Node8</title>
<a xlink:href="classCSyncerSet.html#a6ee2b3a5edcccc64b8694df736312e4b" target="_top" xlink:title="CSyncerSet::sync">
<polygon fill="white" stroke="black" points="167.5,-0.5 167.5,-21.5 268.5,-21.5 268.5,-0.5 167.5,-0.5"/>
<text text-anchor="middle" x="218" y="-8.5" font-family="Verdana" font-size="10.00">CSyncerSet::sync</text>
</a>
</g>
<!-- Node1&#45;&gt;Node8 -->
<g id="edge16" class="edge"><title>Node1&#45;&gt;Node8</title>
<path fill="none" stroke="midnightblue" d="M119.733,-25.3047C132.022,-23.5158 144.973,-21.6304 157.296,-19.8366"/>
<polygon fill="midnightblue" stroke="midnightblue" points="158.08,-23.2595 167.471,-18.3554 157.072,-16.3325 158.08,-23.2595"/>
</g>
<!-- Node3 -->
<g id="node5" class="node"><title>Node3</title>
<a xlink:href="classCConfigurableElement.html#ace18ab1044203825e43ce44126c9322d" target="_top" xlink:title="CConfigurableElement\l::getSyncer">
<polygon fill="white" stroke="black" points="336.5,-110 336.5,-144 459.5,-144 459.5,-110 336.5,-110"/>
<text text-anchor="start" x="344.5" y="-131" font-family="Verdana" font-size="10.00">CConfigurableElement</text>
<text text-anchor="middle" x="398" y="-118" font-family="Verdana" font-size="10.00">::getSyncer</text>
</a>
</g>
<!-- Node2&#45;&gt;Node3 -->
<g id="edge4" class="edge"><title>Node2&#45;&gt;Node3</title>
<path fill="none" stroke="midnightblue" d="M253.426,-74.0911C271.87,-82.6851 294.916,-92.9549 316,-101 321.058,-102.93 326.328,-104.835 331.648,-106.683"/>
<polygon fill="midnightblue" stroke="midnightblue" points="330.649,-110.04 341.244,-109.941 332.9,-103.412 330.649,-110.04"/>
</g>
<!-- Node5 -->
<g id="node9" class="node"><title>Node5</title>
<a xlink:href="classCConfigurableElement.html#a9f29ba1f8a319c22896deda2cf826e78" target="_top" xlink:title="CConfigurableElement\l::fillSyncerSetFromDescendant">
<polygon fill="white" stroke="black" points="316,-40 316,-74 480,-74 480,-40 316,-40"/>
<text text-anchor="start" x="324" y="-61" font-family="Verdana" font-size="10.00">CConfigurableElement</text>
<text text-anchor="middle" x="398" y="-48" font-family="Verdana" font-size="10.00">::fillSyncerSetFromDescendant</text>
</a>
</g>
<!-- Node2&#45;&gt;Node5 -->
<g id="edge8" class="edge"><title>Node2&#45;&gt;Node5</title>
<path fill="none" stroke="midnightblue" d="M279.694,-57C288.033,-57 296.733,-57 305.464,-57"/>
<polygon fill="midnightblue" stroke="midnightblue" points="305.709,-60.5001 315.709,-57 305.709,-53.5001 305.709,-60.5001"/>
</g>
<!-- Node4 -->
<g id="node7" class="node"><title>Node4</title>
<a xlink:href="classCElement.html#a7987056bec3cbc71bed07cc88b060cf0" target="_top" xlink:title="CElement::getParent">
<polygon fill="white" stroke="black" points="527,-116.5 527,-137.5 643,-137.5 643,-116.5 527,-116.5"/>
<text text-anchor="middle" x="585" y="-124.5" font-family="Verdana" font-size="10.00">CElement::getParent</text>
</a>
</g>
<!-- Node3&#45;&gt;Node4 -->
<g id="edge6" class="edge"><title>Node3&#45;&gt;Node4</title>
<path fill="none" stroke="midnightblue" d="M459.749,-127C477.971,-127 498.018,-127 516.63,-127"/>
<polygon fill="midnightblue" stroke="midnightblue" points="516.802,-130.5 526.802,-127 516.802,-123.5 516.802,-130.5"/>
</g>
<!-- Node5&#45;&gt;Node5 -->
<g id="edge14" class="edge"><title>Node5&#45;&gt;Node5</title>
<path fill="none" stroke="midnightblue" d="M365.643,-74.2878C360.144,-83.5562 370.93,-92 398,-92 414.496,-92 424.945,-88.8645 429.347,-84.3176"/>
<polygon fill="midnightblue" stroke="midnightblue" points="432.837,-84.5884 430.357,-74.2878 425.872,-83.8865 432.837,-84.5884"/>
</g>
<!-- Node6 -->
<g id="node11" class="node"><title>Node6</title>
<a xlink:href="classCElement.html#a25f58d9d8b35e770806d669fb2a378e4" target="_top" xlink:title="CElement::getNbChildren">
<polygon fill="white" stroke="black" points="516.5,-61.5 516.5,-82.5 653.5,-82.5 653.5,-61.5 516.5,-61.5"/>
<text text-anchor="middle" x="585" y="-69.5" font-family="Verdana" font-size="10.00">CElement::getNbChildren</text>
</a>
</g>
<!-- Node5&#45;&gt;Node6 -->
<g id="edge10" class="edge"><title>Node5&#45;&gt;Node6</title>
<path fill="none" stroke="midnightblue" d="M480.021,-63.5792C488.767,-64.2808 497.649,-64.9933 506.355,-65.6916"/>
<polygon fill="midnightblue" stroke="midnightblue" points="506.228,-69.1925 516.476,-66.5034 506.787,-62.2149 506.228,-69.1925"/>
</g>
<!-- Node7 -->
<g id="node13" class="node"><title>Node7</title>
<a xlink:href="classCElement.html#a41bf126c3fdbb5bec0c2c3dcf35e9079" target="_top" xlink:title="CElement::getChild">
<polygon fill="white" stroke="black" points="531,-21.5 531,-42.5 639,-42.5 639,-21.5 531,-21.5"/>
<text text-anchor="middle" x="585" y="-29.5" font-family="Verdana" font-size="10.00">CElement::getChild</text>
</a>
</g>
<!-- Node5&#45;&gt;Node7 -->
<g id="edge12" class="edge"><title>Node5&#45;&gt;Node7</title>
<path fill="none" stroke="midnightblue" d="M480.021,-46.0346C493.572,-44.223 507.449,-42.3677 520.492,-40.6241"/>
<polygon fill="midnightblue" stroke="midnightblue" points="521.302,-44.047 530.75,-39.2527 520.374,-37.1087 521.302,-44.047"/>
</g>
<!-- Node9 -->
<g id="node18" class="node"><title>Node9</title>
<a xlink:href="classISyncer.html#a16844aac52fb0caf4aed4f68d4b038d9" target="_top" xlink:title="ISyncer::sync">
<polygon fill="white" stroke="black" points="358,-0.5 358,-21.5 438,-21.5 438,-0.5 358,-0.5"/>
<text text-anchor="middle" x="398" y="-8.5" font-family="Verdana" font-size="10.00">ISyncer::sync</text>
</a>
</g>
<!-- Node8&#45;&gt;Node9 -->
<g id="edge18" class="edge"><title>Node8&#45;&gt;Node9</title>
<path fill="none" stroke="midnightblue" d="M268.619,-11C293.276,-11 322.846,-11 347.488,-11"/>
<polygon fill="midnightblue" stroke="midnightblue" points="347.719,-14.5001 357.719,-11 347.719,-7.5001 347.719,-14.5001"/>
</g>
</g>
</svg>
