<?xml version="1.0" encoding="UTF-8" standalone="no"?>
<!DOCTYPE svg PUBLIC "-//W3C//DTD SVG 1.1//EN"
 "http://www.w3.org/Graphics/SVG/1.1/DTD/svg11.dtd">
<!-- Generated by graphviz version 2.26.3 (20100126.1600)
 -->
<!-- Title: CParameterAccessContext::setValueSpaceRaw Pages: 1 -->
<svg width="344pt" height="42pt"
 viewBox="0.00 0.00 344.00 42.00" xmlns="http://www.w3.org/2000/svg" xmlns:xlink="http://www.w3.org/1999/xlink">
<g id="graph1" class="graph" transform="scale(1 1) rotate(0) translate(4 38)">
<title>CParameterAccessContext::setValueSpaceRaw</title>
<polygon fill="white" stroke="white" points="-4,5 -4,-38 341,-38 341,5 -4,5"/>
<!-- Node1 -->
<g id="node1" class="node"><title>Node1</title>
<polygon fill="#bfbfbf" stroke="black" points="0.5,-0 0.5,-34 145.5,-34 145.5,-0 0.5,-0"/>
<text text-anchor="start" x="8.5" y="-21" font-family="Verdana" font-size="10.00">CParameterAccessContext</text>
<text text-anchor="middle" x="73" y="-8" font-family="Verdana" font-size="10.00">::setValueSpaceRaw</text>
</g>
<!-- Node2 -->
<g id="node3" class="node"><title>Node2</title>
<a xlink:href="classCFixedPointParameterType.html#ac5dd869d9846a4e999fe9715b397c17d" target="_top" xlink:title="CFixedPointParameterType\l::handleValueSpaceAttribute">
<polygon fill="white" stroke="black" points="182.5,-0 182.5,-34 335.5,-34 335.5,-0 182.5,-0"/>
<text text-anchor="start" x="190.5" y="-21" font-family="Verdana" font-size="10.00">CFixedPointParameterType</text>
<text text-anchor="middle" x="259" y="-8" font-family="Verdana" font-size="10.00">::handleValueSpaceAttribute</text>
</a>
</g>
<!-- Node1&#45;&gt;Node2 -->
<g id="edge2" class="edge"><title>Node1&#45;&gt;Node2</title>
<path fill="none" stroke="midnightblue" d="M155.95,-17C164.735,-17 173.641,-17 182.349,-17"/>
<polygon fill="midnightblue" stroke="midnightblue" points="155.712,-13.5001 145.712,-17 155.712,-20.5001 155.712,-13.5001"/>
</g>
</g>
</svg>
