<?xml version="1.0" encoding="UTF-8" standalone="no"?>
<!DOCTYPE svg PUBLIC "-//W3C//DTD SVG 1.1//EN"
 "http://www.w3.org/Graphics/SVG/1.1/DTD/svg11.dtd">
<!-- Generated by graphviz version 2.26.3 (20100126.1600)
 -->
<!-- Title: CSelectionCriteriaDefinition Pages: 1 -->
<svg width="157pt" height="146pt"
 viewBox="0.00 0.00 157.00 146.00" xmlns="http://www.w3.org/2000/svg" xmlns:xlink="http://www.w3.org/1999/xlink">
<g id="graph1" class="graph" transform="scale(1 1) rotate(0) translate(4 142)">
<title>CSelectionCriteriaDefinition</title>
<polygon fill="white" stroke="white" points="-4,5 -4,-142 154,-142 154,5 -4,5"/>
<!-- Node1 -->
<g id="node1" class="node"><title>Node1</title>
<polygon fill="#bfbfbf" stroke="black" points="-0.5,-0.5 -0.5,-21.5 146.5,-21.5 146.5,-0.5 -0.5,-0.5"/>
<text text-anchor="middle" x="73" y="-8.5" font-family="Verdana" font-size="10.00">CSelectionCriteriaDefinition</text>
</g>
<!-- Node2 -->
<g id="node2" class="node"><title>Node2</title>
<a xlink:href="classCElement.html" target="_top" xlink:title="CElement">
<polygon fill="white" stroke="black" points="41.5,-58.5 41.5,-79.5 104.5,-79.5 104.5,-58.5 41.5,-58.5"/>
<text text-anchor="middle" x="73" y="-66.5" font-family="Verdana" font-size="10.00">CElement</text>
</a>
</g>
<!-- Node2&#45;&gt;Node1 -->
<g id="edge2" class="edge"><title>Node2&#45;&gt;Node1</title>
<path fill="none" stroke="midnightblue" d="M73,-48.1906C73,-39.1684 73,-28.9941 73,-21.5707"/>
<polygon fill="midnightblue" stroke="midnightblue" points="69.5001,-48.3619 73,-58.3619 76.5001,-48.3619 69.5001,-48.3619"/>
</g>
<!-- Node3 -->
<g id="node4" class="node"><title>Node3</title>
<polygon fill="white" stroke="#bfbfbf" points="4.5,-116.5 4.5,-137.5 61.5,-137.5 61.5,-116.5 4.5,-116.5"/>
<text text-anchor="middle" x="33" y="-124.5" font-family="Verdana" font-size="10.00">IXmlSink</text>
</g>
<!-- Node3&#45;&gt;Node2 -->
<g id="edge4" class="edge"><title>Node3&#45;&gt;Node2</title>
<path fill="none" stroke="midnightblue" d="M46.1317,-107.959C52.64,-98.522 60.2528,-87.4835 65.7099,-79.5707"/>
<polygon fill="midnightblue" stroke="midnightblue" points="43.1327,-106.143 40.3366,-116.362 48.8952,-110.117 43.1327,-106.143"/>
</g>
<!-- Node4 -->
<g id="node6" class="node"><title>Node4</title>
<polygon fill="white" stroke="#bfbfbf" points="78.5,-116.5 78.5,-137.5 149.5,-137.5 149.5,-116.5 78.5,-116.5"/>
<text text-anchor="middle" x="114" y="-124.5" font-family="Verdana" font-size="10.00">IXmlSource</text>
</g>
<!-- Node4&#45;&gt;Node2 -->
<g id="edge6" class="edge"><title>Node4&#45;&gt;Node2</title>
<path fill="none" stroke="midnightblue" d="M100.54,-107.959C93.869,-98.522 86.0659,-87.4835 80.4724,-79.5707"/>
<polygon fill="midnightblue" stroke="midnightblue" points="97.8495,-110.216 106.48,-116.362 103.566,-106.176 97.8495,-110.216"/>
</g>
</g>
</svg>
