<?xml version="1.0" encoding="UTF-8" standalone="no"?>
<!DOCTYPE svg PUBLIC "-//W3C//DTD SVG 1.1//EN"
 "http://www.w3.org/Graphics/SVG/1.1/DTD/svg11.dtd">
<!-- Generated by graphviz version 2.26.3 (20100126.1600)
 -->
<!-- Title: CTypeElement::populate Pages: 1 -->
<svg width="478pt" height="82pt"
 viewBox="0.00 0.00 478.00 82.00" xmlns="http://www.w3.org/2000/svg" xmlns:xlink="http://www.w3.org/1999/xlink">
<g id="graph1" class="graph" transform="scale(1 1) rotate(0) translate(4 78)">
<title>CTypeElement::populate</title>
<polygon fill="white" stroke="white" points="-4,5 -4,-78 475,-78 475,5 -4,5"/>
<!-- Node1 -->
<g id="node1" class="node"><title>Node1</title>
<polygon fill="#bfbfbf" stroke="black" points="0,-0.5 0,-21.5 132,-21.5 132,-0.5 0,-0.5"/>
<text text-anchor="middle" x="66" y="-8.5" font-family="Verdana" font-size="10.00">CTypeElement::populate</text>
</g>
<!-- Node2 -->
<g id="node3" class="node"><title>Node2</title>
<a xlink:href="classCInstanceDefinition.html#aa29d3b10a23894522cfaa937cf385d10" target="_top" xlink:title="CInstanceDefinition\l::createInstances">
<polygon fill="white" stroke="black" points="184.5,-40 184.5,-74 293.5,-74 293.5,-40 184.5,-40"/>
<text text-anchor="start" x="192.5" y="-61" font-family="Verdana" font-size="10.00">CInstanceDefinition</text>
<text text-anchor="middle" x="239" y="-48" font-family="Verdana" font-size="10.00">::createInstances</text>
</a>
</g>
<!-- Node1&#45;&gt;Node2 -->
<g id="edge2" class="edge"><title>Node1&#45;&gt;Node2</title>
<path fill="none" stroke="midnightblue" d="M115.601,-24.1888C137.115,-29.9091 162.376,-36.6259 184.419,-42.4872"/>
<polygon fill="midnightblue" stroke="midnightblue" points="116.253,-20.7406 105.69,-21.5533 114.454,-27.5055 116.253,-20.7406"/>
</g>
<!-- Node4 -->
<g id="node7" class="node"><title>Node4</title>
<a xlink:href="classCTypeElement.html#a0fd0b5dfb3e3515ff5b54eda3d7e0a45" target="_top" xlink:title="CTypeElement::instantiate">
<polygon fill="white" stroke="black" points="168.5,-0.5 168.5,-21.5 309.5,-21.5 309.5,-0.5 168.5,-0.5"/>
<text text-anchor="middle" x="239" y="-8.5" font-family="Verdana" font-size="10.00">CTypeElement::instantiate</text>
</a>
</g>
<!-- Node1&#45;&gt;Node4 -->
<g id="edge6" class="edge"><title>Node1&#45;&gt;Node4</title>
<path fill="none" stroke="midnightblue" d="M142.466,-4.29053C151.118,-4.22035 159.907,-4.24131 168.478,-4.35342"/>
<polygon fill="midnightblue" stroke="midnightblue" points="142.348,-0.791624 132.392,-4.41479 142.434,-7.79109 142.348,-0.791624"/>
</g>
<!-- Node3 -->
<g id="node5" class="node"><title>Node3</title>
<a xlink:href="classCSubsystem.html#aa114a31f4aa4b0f47b3c616b721854d4" target="_top" xlink:title="CSubsystem::fromXml">
<polygon fill="white" stroke="black" points="346,-46.5 346,-67.5 470,-67.5 470,-46.5 346,-46.5"/>
<text text-anchor="middle" x="408" y="-54.5" font-family="Verdana" font-size="10.00">CSubsystem::fromXml</text>
</a>
</g>
<!-- Node2&#45;&gt;Node3 -->
<g id="edge4" class="edge"><title>Node2&#45;&gt;Node3</title>
<path fill="none" stroke="midnightblue" d="M304.162,-57C317.836,-57 332.224,-57 345.787,-57"/>
<polygon fill="midnightblue" stroke="midnightblue" points="303.869,-53.5001 293.869,-57 303.869,-60.5001 303.869,-53.5001"/>
</g>
<!-- Node4&#45;&gt;Node1 -->
<g id="edge8" class="edge"><title>Node4&#45;&gt;Node1</title>
<path fill="none" stroke="midnightblue" d="M158.338,-17.7363C149.65,-17.7771 140.884,-17.7267 132.392,-17.5852"/>
<polygon fill="midnightblue" stroke="midnightblue" points="158.51,-21.235 168.478,-17.6466 158.448,-14.2353 158.51,-21.235"/>
</g>
</g>
</svg>
