<?xml version="1.0" encoding="UTF-8" standalone="no"?>
<!DOCTYPE svg PUBLIC "-//W3C//DTD SVG 1.1//EN"
 "http://www.w3.org/Graphics/SVG/1.1/DTD/svg11.dtd">
<!-- Generated by graphviz version 2.26.3 (20100126.1600)
 -->
<!-- Title: CConfigurableDomains::createConfiguration Pages: 1 -->
<svg width="458pt" height="156pt"
 viewBox="0.00 0.00 458.00 156.00" xmlns="http://www.w3.org/2000/svg" xmlns:xlink="http://www.w3.org/1999/xlink">
<g id="graph1" class="graph" transform="scale(1 1) rotate(0) translate(4 152)">
<title>CConfigurableDomains::createConfiguration</title>
<polygon fill="white" stroke="white" points="-4,5 -4,-152 455,-152 455,5 -4,5"/>
<!-- Node1 -->
<g id="node1" class="node"><title>Node1</title>
<polygon fill="#bfbfbf" stroke="black" points="0,-88 0,-122 126,-122 126,-88 0,-88"/>
<text text-anchor="start" x="8" y="-109" font-family="Verdana" font-size="10.00">CConfigurableDomains</text>
<text text-anchor="middle" x="63" y="-96" font-family="Verdana" font-size="10.00">::createConfiguration</text>
</g>
<!-- Node2 -->
<g id="node3" class="node"><title>Node2</title>
<a xlink:href="classCConfigurableDomains.html#a4dce38a1560b6e33871d3fa2d85cc449" target="_top" xlink:title="CConfigurableDomains\l::findConfigurableDomain">
<polygon fill="white" stroke="black" points="162.5,-114 162.5,-148 299.5,-148 299.5,-114 162.5,-114"/>
<text text-anchor="start" x="170.5" y="-135" font-family="Verdana" font-size="10.00">CConfigurableDomains</text>
<text text-anchor="middle" x="231" y="-122" font-family="Verdana" font-size="10.00">::findConfigurableDomain</text>
</a>
</g>
<!-- Node1&#45;&gt;Node2 -->
<g id="edge2" class="edge"><title>Node1&#45;&gt;Node2</title>
<path fill="none" stroke="midnightblue" d="M126.035,-114.755C134.626,-116.085 143.53,-117.463 152.355,-118.829"/>
<polygon fill="midnightblue" stroke="midnightblue" points="151.846,-122.292 162.264,-120.362 152.917,-115.374 151.846,-122.292"/>
</g>
<!-- Node4 -->
<g id="node7" class="node"><title>Node4</title>
<a xlink:href="classCConfigurableDomain.html#a82e376a127b18da449923829825bcbed" target="_top" xlink:title="CConfigurableDomain\l::createConfiguration">
<polygon fill="white" stroke="black" points="170.5,-62 170.5,-96 291.5,-96 291.5,-62 170.5,-62"/>
<text text-anchor="start" x="178.5" y="-83" font-family="Verdana" font-size="10.00">CConfigurableDomain</text>
<text text-anchor="middle" x="231" y="-70" font-family="Verdana" font-size="10.00">::createConfiguration</text>
</a>
</g>
<!-- Node1&#45;&gt;Node4 -->
<g id="edge6" class="edge"><title>Node1&#45;&gt;Node4</title>
<path fill="none" stroke="midnightblue" d="M126.035,-95.2446C137.269,-93.506 149.037,-91.6847 160.464,-89.9162"/>
<polygon fill="midnightblue" stroke="midnightblue" points="161.049,-93.3675 170.396,-88.3791 159.979,-86.4498 161.049,-93.3675"/>
</g>
<!-- Node3 -->
<g id="node5" class="node"><title>Node3</title>
<a xlink:href="classCElement.html#a8595814a3159f32f874269907e70b260" target="_top" xlink:title="CElement::findChild">
<polygon fill="white" stroke="black" points="338,-120.5 338,-141.5 448,-141.5 448,-120.5 338,-120.5"/>
<text text-anchor="middle" x="393" y="-128.5" font-family="Verdana" font-size="10.00">CElement::findChild</text>
</a>
</g>
<!-- Node2&#45;&gt;Node3 -->
<g id="edge4" class="edge"><title>Node2&#45;&gt;Node3</title>
<path fill="none" stroke="midnightblue" d="M299.703,-131C308.976,-131 318.469,-131 327.681,-131"/>
<polygon fill="midnightblue" stroke="midnightblue" points="327.935,-134.5 337.935,-131 327.935,-127.5 327.935,-134.5"/>
</g>
<!-- Node4&#45;&gt;Node3 -->
<g id="edge8" class="edge"><title>Node4&#45;&gt;Node3</title>
<path fill="none" stroke="midnightblue" d="M284.045,-96.0267C305.615,-102.95 330.199,-110.842 350.55,-117.374"/>
<polygon fill="midnightblue" stroke="midnightblue" points="349.577,-120.738 360.168,-120.461 351.716,-114.072 349.577,-120.738"/>
</g>
<!-- Node5 -->
<g id="node10" class="node"><title>Node5</title>
<a xlink:href="classCElement.html#aaa4df1b13a53263f8cc2b668172873d9" target="_top" xlink:title="CElement::log_info">
<polygon fill="white" stroke="black" points="340,-80.5 340,-101.5 446,-101.5 446,-80.5 340,-80.5"/>
<text text-anchor="middle" x="393" y="-88.5" font-family="Verdana" font-size="10.00">CElement::log_info</text>
</a>
</g>
<!-- Node4&#45;&gt;Node5 -->
<g id="edge10" class="edge"><title>Node4&#45;&gt;Node5</title>
<path fill="none" stroke="midnightblue" d="M291.784,-83.5025C304.129,-84.4169 317.143,-85.381 329.577,-86.302"/>
<polygon fill="midnightblue" stroke="midnightblue" points="329.626,-89.8151 339.857,-87.0635 330.143,-82.8342 329.626,-89.8151"/>
</g>
<!-- Node6 -->
<g id="node12" class="node"><title>Node6</title>
<a xlink:href="classCElement.html#a49581fb6412e29e932962acd82d52d6a" target="_top" xlink:title="CElement::getName">
<polygon fill="white" stroke="black" points="336,-40.5 336,-61.5 450,-61.5 450,-40.5 336,-40.5"/>
<text text-anchor="middle" x="393" y="-48.5" font-family="Verdana" font-size="10.00">CElement::getName</text>
</a>
</g>
<!-- Node4&#45;&gt;Node6 -->
<g id="edge12" class="edge"><title>Node4&#45;&gt;Node6</title>
<path fill="none" stroke="midnightblue" d="M291.784,-68.4942C302.851,-66.5814 314.456,-64.5756 325.698,-62.6325"/>
<polygon fill="midnightblue" stroke="midnightblue" points="326.637,-66.0221 335.895,-60.8701 325.445,-59.1244 326.637,-66.0221"/>
</g>
<!-- Node7 -->
<g id="node14" class="node"><title>Node7</title>
<a xlink:href="classCElement.html#ac2ad66ee438a4a0c1390b7388874fe72" target="_top" xlink:title="CElement::addChild">
<polygon fill="white" stroke="black" points="338,-0.5 338,-21.5 448,-21.5 448,-0.5 338,-0.5"/>
<text text-anchor="middle" x="393" y="-8.5" font-family="Verdana" font-size="10.00">CElement::addChild</text>
</a>
</g>
<!-- Node4&#45;&gt;Node7 -->
<g id="edge14" class="edge"><title>Node4&#45;&gt;Node7</title>
<path fill="none" stroke="midnightblue" d="M266.13,-61.9674C286.364,-52.4031 312.39,-40.5156 336,-31 341.046,-28.9663 346.387,-26.9356 351.697,-24.9902"/>
<polygon fill="midnightblue" stroke="midnightblue" points="352.92,-28.2699 361.151,-21.5983 350.556,-21.6812 352.92,-28.2699"/>
</g>
</g>
</svg>
