<?xml version="1.0" encoding="UTF-8" standalone="no"?>
<!DOCTYPE svg PUBLIC "-//W3C//DTD SVG 1.1//EN"
 "http://www.w3.org/Graphics/SVG/1.1/DTD/svg11.dtd">
<!-- Generated by graphviz version 2.26.3 (20100126.1600)
 -->
<!-- Title: CBinarySerializableElement::binarySerialize Pages: 1 -->
<svg width="330pt" height="74pt"
 viewBox="0.00 0.00 330.00 74.00" xmlns="http://www.w3.org/2000/svg" xmlns:xlink="http://www.w3.org/1999/xlink">
<g id="graph1" class="graph" transform="scale(1 1) rotate(0) translate(4 70)">
<title>CBinarySerializableElement::binarySerialize</title>
<polygon fill="white" stroke="white" points="-4,5 -4,-70 327,-70 327,5 -4,5"/>
<!-- Node1 -->
<g id="node1" class="node"><title>Node1</title>
<polygon fill="#bfbfbf" stroke="black" points="0,-14 0,-48 148,-48 148,-14 0,-14"/>
<text text-anchor="start" x="8" y="-35" font-family="Verdana" font-size="10.00">CBinarySerializableElement</text>
<text text-anchor="middle" x="74" y="-22" font-family="Verdana" font-size="10.00">::binarySerialize</text>
</g>
<!-- Node1&#45;&gt;Node1 -->
<g id="edge6" class="edge"><title>Node1&#45;&gt;Node1</title>
<path fill="none" stroke="midnightblue" d="M42.002,-48.2878C36.5645,-57.5562 47.2305,-66 74,-66 90.3127,-66 100.646,-62.8645 104.998,-58.3176"/>
<polygon fill="midnightblue" stroke="midnightblue" points="108.489,-58.5856 105.998,-48.2878 101.524,-57.8914 108.489,-58.5856"/>
</g>
<!-- Node2 -->
<g id="node3" class="node"><title>Node2</title>
<a xlink:href="classCElement.html#a25f58d9d8b35e770806d669fb2a378e4" target="_top" xlink:title="CElement::getNbChildren">
<polygon fill="white" stroke="black" points="184.5,-40.5 184.5,-61.5 321.5,-61.5 321.5,-40.5 184.5,-40.5"/>
<text text-anchor="middle" x="253" y="-48.5" font-family="Verdana" font-size="10.00">CElement::getNbChildren</text>
</a>
</g>
<!-- Node1&#45;&gt;Node2 -->
<g id="edge2" class="edge"><title>Node1&#45;&gt;Node2</title>
<path fill="none" stroke="midnightblue" d="M148.098,-39.2791C156.739,-40.2446 165.578,-41.2322 174.279,-42.2043"/>
<polygon fill="midnightblue" stroke="midnightblue" points="174.082,-45.7041 184.409,-43.3362 174.86,-38.7474 174.082,-45.7041"/>
</g>
<!-- Node3 -->
<g id="node5" class="node"><title>Node3</title>
<a xlink:href="classCElement.html#a41bf126c3fdbb5bec0c2c3dcf35e9079" target="_top" xlink:title="CElement::getChild">
<polygon fill="white" stroke="black" points="199,-0.5 199,-21.5 307,-21.5 307,-0.5 199,-0.5"/>
<text text-anchor="middle" x="253" y="-8.5" font-family="Verdana" font-size="10.00">CElement::getChild</text>
</a>
</g>
<!-- Node1&#45;&gt;Node3 -->
<g id="edge4" class="edge"><title>Node1&#45;&gt;Node3</title>
<path fill="none" stroke="midnightblue" d="M148.098,-22.7209C161.664,-21.2051 175.717,-19.635 188.958,-18.1555"/>
<polygon fill="midnightblue" stroke="midnightblue" points="189.355,-21.633 198.905,-17.0442 188.578,-14.6763 189.355,-21.633"/>
</g>
</g>
</svg>
