<?xml version="1.0" encoding="UTF-8" standalone="no"?>
<!DOCTYPE svg PUBLIC "-//W3C//DTD SVG 1.1//EN"
 "http://www.w3.org/Graphics/SVG/1.1/DTD/svg11.dtd">
<!-- Generated by graphviz version 2.26.3 (20100126.1600)
 -->
<!-- Title: CElement::toXml Pages: 1 -->
<svg width="450pt" height="70pt"
 viewBox="0.00 0.00 450.00 70.00" xmlns="http://www.w3.org/2000/svg" xmlns:xlink="http://www.w3.org/1999/xlink">
<g id="graph1" class="graph" transform="scale(1 1) rotate(0) translate(4 66)">
<title>CElement::toXml</title>
<polygon fill="white" stroke="white" points="-4,5 -4,-66 447,-66 447,5 -4,5"/>
<!-- Node1 -->
<g id="node1" class="node"><title>Node1</title>
<polygon fill="#bfbfbf" stroke="black" points="0.5,-20.5 0.5,-41.5 97.5,-41.5 97.5,-20.5 0.5,-20.5"/>
<text text-anchor="middle" x="49" y="-28.5" font-family="Verdana" font-size="10.00">CElement::toXml</text>
</g>
<!-- Node2 -->
<g id="node3" class="node"><title>Node2</title>
<a xlink:href="classCElement.html#aee22d6b038603b6481a8f029bf59ff3d" target="_top" xlink:title="Serialize the children to XML. ">
<polygon fill="white" stroke="black" points="134,-20.5 134,-41.5 268,-41.5 268,-20.5 134,-20.5"/>
<text text-anchor="middle" x="201" y="-28.5" font-family="Verdana" font-size="10.00">CElement::childrenToXml</text>
</a>
</g>
<!-- Node1&#45;&gt;Node2 -->
<g id="edge2" class="edge"><title>Node1&#45;&gt;Node2</title>
<path fill="none" stroke="midnightblue" d="M97.5117,-24.6588C105.907,-24.3983 114.82,-24.2624 123.756,-24.2508"/>
<polygon fill="midnightblue" stroke="midnightblue" points="123.815,-27.751 133.828,-24.2906 123.842,-20.751 123.815,-27.751"/>
</g>
<!-- Node2&#45;&gt;Node1 -->
<g id="edge8" class="edge"><title>Node2&#45;&gt;Node1</title>
<path fill="none" stroke="midnightblue" d="M133.828,-37.7094C125.136,-37.7897 116.288,-37.7509 107.747,-37.593"/>
<polygon fill="midnightblue" stroke="midnightblue" points="107.595,-34.0883 97.5117,-37.3412 107.423,-41.0861 107.595,-34.0883"/>
</g>
<!-- Node3 -->
<g id="node5" class="node"><title>Node3</title>
<a xlink:href="classCElement.html#a25f58d9d8b35e770806d669fb2a378e4" target="_top" xlink:title="CElement::getNbChildren">
<polygon fill="white" stroke="black" points="304.5,-40.5 304.5,-61.5 441.5,-61.5 441.5,-40.5 304.5,-40.5"/>
<text text-anchor="middle" x="373" y="-48.5" font-family="Verdana" font-size="10.00">CElement::getNbChildren</text>
</a>
</g>
<!-- Node2&#45;&gt;Node3 -->
<g id="edge4" class="edge"><title>Node2&#45;&gt;Node3</title>
<path fill="none" stroke="midnightblue" d="M268.485,-38.8471C276.941,-39.8303 285.647,-40.8427 294.256,-41.8437"/>
<polygon fill="midnightblue" stroke="midnightblue" points="293.959,-45.3326 304.296,-43.0112 294.767,-38.3795 293.959,-45.3326"/>
</g>
<!-- Node4 -->
<g id="node7" class="node"><title>Node4</title>
<a xlink:href="classCElement.html#aed2ca7f2a56dbf2edcd82167859535ee" target="_top" xlink:title="CElement::getKind">
<polygon fill="white" stroke="black" points="320.5,-0.5 320.5,-21.5 425.5,-21.5 425.5,-0.5 320.5,-0.5"/>
<text text-anchor="middle" x="373" y="-8.5" font-family="Verdana" font-size="10.00">CElement::getKind</text>
</a>
</g>
<!-- Node2&#45;&gt;Node4 -->
<g id="edge6" class="edge"><title>Node2&#45;&gt;Node4</title>
<path fill="none" stroke="midnightblue" d="M268.485,-23.1529C282.21,-21.557 296.595,-19.8843 310.151,-18.3081"/>
<polygon fill="midnightblue" stroke="midnightblue" points="310.802,-21.756 320.331,-17.1243 309.993,-14.8029 310.802,-21.756"/>
</g>
</g>
</svg>
