<?xml version="1.0" encoding="UTF-8" standalone="no"?>
<!DOCTYPE svg PUBLIC "-//W3C//DTD SVG 1.1//EN"
 "http://www.w3.org/Graphics/SVG/1.1/DTD/svg11.dtd">
<!-- Generated by graphviz version 2.26.3 (20100126.1600)
 -->
<!-- Title: CTypeElement::instantiate Pages: 1 -->
<svg width="492pt" height="110pt"
 viewBox="0.00 0.00 492.00 110.00" xmlns="http://www.w3.org/2000/svg" xmlns:xlink="http://www.w3.org/1999/xlink">
<g id="graph1" class="graph" transform="scale(1 1) rotate(0) translate(4 106)">
<title>CTypeElement::instantiate</title>
<polygon fill="white" stroke="white" points="-4,5 -4,-106 489,-106 489,5 -4,5"/>
<!-- Node1 -->
<g id="node1" class="node"><title>Node1</title>
<polygon fill="#bfbfbf" stroke="black" points="0.5,-40.5 0.5,-61.5 141.5,-61.5 141.5,-40.5 0.5,-40.5"/>
<text text-anchor="middle" x="71" y="-48.5" font-family="Verdana" font-size="10.00">CTypeElement::instantiate</text>
</g>
<!-- Node2 -->
<g id="node3" class="node"><title>Node2</title>
<a xlink:href="classCTypeElement.html#a7cdfd91a35b67d17fb2c92f8a2883854" target="_top" xlink:title="CTypeElement::populate">
<polygon fill="white" stroke="black" points="178,-40.5 178,-61.5 310,-61.5 310,-40.5 178,-40.5"/>
<text text-anchor="middle" x="244" y="-48.5" font-family="Verdana" font-size="10.00">CTypeElement::populate</text>
</a>
</g>
<!-- Node1&#45;&gt;Node2 -->
<g id="edge2" class="edge"><title>Node1&#45;&gt;Node2</title>
<path fill="none" stroke="midnightblue" d="M141.865,-44.349C150.45,-44.2392 159.247,-44.2207 167.903,-44.2936"/>
<polygon fill="midnightblue" stroke="midnightblue" points="167.936,-47.7942 177.979,-44.421 168.024,-40.7947 167.936,-47.7942"/>
</g>
<!-- Node2&#45;&gt;Node1 -->
<g id="edge8" class="edge"><title>Node2&#45;&gt;Node1</title>
<path fill="none" stroke="midnightblue" d="M177.979,-57.579C169.487,-57.7233 160.716,-57.7763 152.019,-57.7379"/>
<polygon fill="midnightblue" stroke="midnightblue" points="151.895,-54.2368 141.865,-57.651 151.835,-61.2366 151.895,-54.2368"/>
</g>
<!-- Node3 -->
<g id="node5" class="node"><title>Node3</title>
<a xlink:href="classCElement.html#a25f58d9d8b35e770806d669fb2a378e4" target="_top" xlink:title="CElement::getNbChildren">
<polygon fill="white" stroke="black" points="346.5,-80.5 346.5,-101.5 483.5,-101.5 483.5,-80.5 346.5,-80.5"/>
<text text-anchor="middle" x="415" y="-88.5" font-family="Verdana" font-size="10.00">CElement::getNbChildren</text>
</a>
</g>
<!-- Node2&#45;&gt;Node3 -->
<g id="edge4" class="edge"><title>Node2&#45;&gt;Node3</title>
<path fill="none" stroke="midnightblue" d="M288.928,-61.5095C310.736,-66.6108 337.129,-72.7845 360.119,-78.1622"/>
<polygon fill="midnightblue" stroke="midnightblue" points="359.541,-81.6215 370.075,-80.4913 361.135,-74.8055 359.541,-81.6215"/>
</g>
<!-- Node4 -->
<g id="node7" class="node"><title>Node4</title>
<a xlink:href="classCElement.html#a41bf126c3fdbb5bec0c2c3dcf35e9079" target="_top" xlink:title="CElement::getChild">
<polygon fill="white" stroke="black" points="361,-40.5 361,-61.5 469,-61.5 469,-40.5 361,-40.5"/>
<text text-anchor="middle" x="415" y="-48.5" font-family="Verdana" font-size="10.00">CElement::getChild</text>
</a>
</g>
<!-- Node2&#45;&gt;Node4 -->
<g id="edge6" class="edge"><title>Node2&#45;&gt;Node4</title>
<path fill="none" stroke="midnightblue" d="M310.113,-51C323.519,-51 337.596,-51 350.93,-51"/>
<polygon fill="midnightblue" stroke="midnightblue" points="350.958,-54.5001 360.958,-51 350.958,-47.5001 350.958,-54.5001"/>
</g>
<!-- Node5 -->
<g id="node10" class="node"><title>Node5</title>
<a xlink:href="classCElement.html#ac2ad66ee438a4a0c1390b7388874fe72" target="_top" xlink:title="CElement::addChild">
<polygon fill="white" stroke="black" points="360,-0.5 360,-21.5 470,-21.5 470,-0.5 360,-0.5"/>
<text text-anchor="middle" x="415" y="-8.5" font-family="Verdana" font-size="10.00">CElement::addChild</text>
</a>
</g>
<!-- Node2&#45;&gt;Node5 -->
<g id="edge10" class="edge"><title>Node2&#45;&gt;Node5</title>
<path fill="none" stroke="midnightblue" d="M288.928,-40.4905C310.736,-35.3892 337.129,-29.2155 360.119,-23.8378"/>
<polygon fill="midnightblue" stroke="midnightblue" points="361.135,-27.1945 370.075,-21.5087 359.541,-20.3785 361.135,-27.1945"/>
</g>
</g>
</svg>
