<?xml version="1.0" encoding="UTF-8" standalone="no"?>
<!DOCTYPE svg PUBLIC "-//W3C//DTD SVG 1.1//EN"
 "http://www.w3.org/Graphics/SVG/1.1/DTD/svg11.dtd">
<!-- Generated by graphviz version 2.26.3 (20100126.1600)
 -->
<!-- Title: CParameterMgr::saveConfiguration Pages: 1 -->
<svg width="996pt" height="162pt"
 viewBox="0.00 0.00 996.00 162.00" xmlns="http://www.w3.org/2000/svg" xmlns:xlink="http://www.w3.org/1999/xlink">
<g id="graph1" class="graph" transform="scale(1 1) rotate(0) translate(4 158)">
<title>CParameterMgr::saveConfiguration</title>
<polygon fill="white" stroke="white" points="-4,5 -4,-158 993,-158 993,5 -4,5"/>
<!-- Node1 -->
<g id="node1" class="node"><title>Node1</title>
<polygon fill="#bfbfbf" stroke="black" points="0,-92.5 0,-113.5 184,-113.5 184,-92.5 0,-92.5"/>
<text text-anchor="middle" x="92" y="-100.5" font-family="Verdana" font-size="10.00">CParameterMgr::saveConfiguration</text>
</g>
<!-- Node2 -->
<g id="node3" class="node"><title>Node2</title>
<a xlink:href="classCConfigurableDomains.html#a1be81268a7220733d7aed82e75e8253c" target="_top" xlink:title="CConfigurableDomains\l::saveConfiguration">
<polygon fill="white" stroke="black" points="220,-86 220,-120 346,-120 346,-86 220,-86"/>
<text text-anchor="start" x="228" y="-107" font-family="Verdana" font-size="10.00">CConfigurableDomains</text>
<text text-anchor="middle" x="283" y="-94" font-family="Verdana" font-size="10.00">::saveConfiguration</text>
</a>
</g>
<!-- Node1&#45;&gt;Node2 -->
<g id="edge2" class="edge"><title>Node1&#45;&gt;Node2</title>
<path fill="none" stroke="midnightblue" d="M184.143,-103C192.756,-103 201.406,-103 209.811,-103"/>
<polygon fill="midnightblue" stroke="midnightblue" points="209.924,-106.5 219.924,-103 209.924,-99.5001 209.924,-106.5"/>
</g>
<!-- Node3 -->
<g id="node5" class="node"><title>Node3</title>
<a xlink:href="classCConfigurableDomains.html#a4dce38a1560b6e33871d3fa2d85cc449" target="_top" xlink:title="CConfigurableDomains\l::findConfigurableDomain">
<polygon fill="white" stroke="black" points="382.5,-119 382.5,-153 519.5,-153 519.5,-119 382.5,-119"/>
<text text-anchor="start" x="390.5" y="-140" font-family="Verdana" font-size="10.00">CConfigurableDomains</text>
<text text-anchor="middle" x="451" y="-127" font-family="Verdana" font-size="10.00">::findConfigurableDomain</text>
</a>
</g>
<!-- Node2&#45;&gt;Node3 -->
<g id="edge4" class="edge"><title>Node2&#45;&gt;Node3</title>
<path fill="none" stroke="midnightblue" d="M346.035,-115.382C354.626,-117.069 363.53,-118.818 372.355,-120.552"/>
<polygon fill="midnightblue" stroke="midnightblue" points="371.777,-124.005 382.264,-122.498 373.126,-117.136 371.777,-124.005"/>
</g>
<!-- Node5 -->
<g id="node9" class="node"><title>Node5</title>
<a xlink:href="classCConfigurableDomain.html#a7656ea4134ae47e8a19e1565c16323f0" target="_top" xlink:title="CConfigurableDomain\l::saveConfiguration">
<polygon fill="white" stroke="black" points="390.5,-53 390.5,-87 511.5,-87 511.5,-53 390.5,-53"/>
<text text-anchor="start" x="398.5" y="-74" font-family="Verdana" font-size="10.00">CConfigurableDomain</text>
<text text-anchor="middle" x="451" y="-61" font-family="Verdana" font-size="10.00">::saveConfiguration</text>
</a>
</g>
<!-- Node2&#45;&gt;Node5 -->
<g id="edge8" class="edge"><title>Node2&#45;&gt;Node5</title>
<path fill="none" stroke="midnightblue" d="M346.035,-90.6181C357.269,-88.4115 369.037,-86.0998 380.464,-83.8552"/>
<polygon fill="midnightblue" stroke="midnightblue" points="381.259,-87.2662 390.396,-81.9043 379.909,-80.3974 381.259,-87.2662"/>
</g>
<!-- Node4 -->
<g id="node7" class="node"><title>Node4</title>
<a xlink:href="classCElement.html#a8595814a3159f32f874269907e70b260" target="_top" xlink:title="CElement::findChild">
<polygon fill="white" stroke="black" points="564,-132.5 564,-153.5 674,-153.5 674,-132.5 564,-132.5"/>
<text text-anchor="middle" x="619" y="-140.5" font-family="Verdana" font-size="10.00">CElement::findChild</text>
</a>
</g>
<!-- Node3&#45;&gt;Node4 -->
<g id="edge6" class="edge"><title>Node3&#45;&gt;Node4</title>
<path fill="none" stroke="midnightblue" d="M519.817,-138.867C531.056,-139.336 542.67,-139.82 553.819,-140.284"/>
<polygon fill="midnightblue" stroke="midnightblue" points="553.764,-143.785 563.901,-140.704 554.056,-136.791 553.764,-143.785"/>
</g>
<!-- Node6 -->
<g id="node11" class="node"><title>Node6</title>
<a xlink:href="classCElement.html#aaa4df1b13a53263f8cc2b668172873d9" target="_top" xlink:title="CElement::log_info">
<polygon fill="white" stroke="black" points="566,-92.5 566,-113.5 672,-113.5 672,-92.5 566,-92.5"/>
<text text-anchor="middle" x="619" y="-100.5" font-family="Verdana" font-size="10.00">CElement::log_info</text>
</a>
</g>
<!-- Node5&#45;&gt;Node6 -->
<g id="edge10" class="edge"><title>Node5&#45;&gt;Node6</title>
<path fill="none" stroke="midnightblue" d="M511.652,-81.9138C526.085,-84.7488 541.517,-87.7801 556.05,-90.6348"/>
<polygon fill="midnightblue" stroke="midnightblue" points="555.458,-94.0853 565.945,-92.5784 556.807,-87.2165 555.458,-94.0853"/>
</g>
<!-- Node7 -->
<g id="node13" class="node"><title>Node7</title>
<a xlink:href="classCElement.html#a49581fb6412e29e932962acd82d52d6a" target="_top" xlink:title="CElement::getName">
<polygon fill="white" stroke="black" points="562,-52.5 562,-73.5 676,-73.5 676,-52.5 562,-52.5"/>
<text text-anchor="middle" x="619" y="-60.5" font-family="Verdana" font-size="10.00">CElement::getName</text>
</a>
</g>
<!-- Node5&#45;&gt;Node7 -->
<g id="edge12" class="edge"><title>Node5&#45;&gt;Node7</title>
<path fill="none" stroke="midnightblue" d="M511.652,-67.4728C524.684,-66.9298 538.53,-66.3529 551.794,-65.8002"/>
<polygon fill="midnightblue" stroke="midnightblue" points="551.955,-69.2967 561.8,-65.3833 551.663,-62.3027 551.955,-69.2967"/>
</g>
<!-- Node8 -->
<g id="node15" class="node"><title>Node8</title>
<a xlink:href="classCDomainConfiguration.html#aff0adeb0eb6645ef3ae8a4b75c4a7892" target="_top" xlink:title="CDomainConfiguration\l::save">
<polygon fill="white" stroke="black" points="556.5,-0 556.5,-34 681.5,-34 681.5,-0 556.5,-0"/>
<text text-anchor="start" x="564.5" y="-21" font-family="Verdana" font-size="10.00">CDomainConfiguration</text>
<text text-anchor="middle" x="619" y="-8" font-family="Verdana" font-size="10.00">::save</text>
</a>
</g>
<!-- Node5&#45;&gt;Node8 -->
<g id="edge14" class="edge"><title>Node5&#45;&gt;Node8</title>
<path fill="none" stroke="midnightblue" d="M505.081,-52.9387C521.118,-47.8795 538.828,-42.2923 555.409,-37.0613"/>
<polygon fill="midnightblue" stroke="midnightblue" points="556.537,-40.3758 565.02,-34.0293 554.431,-33.7001 556.537,-40.3758"/>
</g>
<!-- Node9 -->
<g id="node17" class="node"><title>Node9</title>
<a xlink:href="classCAreaConfiguration.html#a0ab61255d58c402f059aceb6668b943d" target="_top" xlink:title="CAreaConfiguration\l::save">
<polygon fill="white" stroke="black" points="718,-0 718,-34 828,-34 828,-0 718,-0"/>
<text text-anchor="start" x="726" y="-21" font-family="Verdana" font-size="10.00">CAreaConfiguration</text>
<text text-anchor="middle" x="773" y="-8" font-family="Verdana" font-size="10.00">::save</text>
</a>
</g>
<!-- Node8&#45;&gt;Node9 -->
<g id="edge16" class="edge"><title>Node8&#45;&gt;Node9</title>
<path fill="none" stroke="midnightblue" d="M681.638,-17C690.256,-17 699.124,-17 707.788,-17"/>
<polygon fill="midnightblue" stroke="midnightblue" points="707.837,-20.5001 717.837,-17 707.837,-13.5001 707.837,-20.5001"/>
</g>
<!-- Node10 -->
<g id="node19" class="node"><title>Node10</title>
<a xlink:href="classCConfigurableElement.html#a29d61e6d09ff508ebb87aea802f2704e" target="_top" xlink:title="CConfigurableElement\l::getOffset">
<polygon fill="white" stroke="black" points="864.5,-0 864.5,-34 987.5,-34 987.5,-0 864.5,-0"/>
<text text-anchor="start" x="872.5" y="-21" font-family="Verdana" font-size="10.00">CConfigurableElement</text>
<text text-anchor="middle" x="926" y="-8" font-family="Verdana" font-size="10.00">::getOffset</text>
</a>
</g>
<!-- Node9&#45;&gt;Node10 -->
<g id="edge18" class="edge"><title>Node9&#45;&gt;Node10</title>
<path fill="none" stroke="midnightblue" d="M828.237,-17C836.665,-17 845.468,-17 854.189,-17"/>
<polygon fill="midnightblue" stroke="midnightblue" points="854.362,-20.5001 864.362,-17 854.362,-13.5001 854.362,-20.5001"/>
</g>
</g>
</svg>
