<?xml version="1.0" encoding="UTF-8" standalone="no"?>
<!DOCTYPE svg PUBLIC "-//W3C//DTD SVG 1.1//EN"
 "http://www.w3.org/Graphics/SVG/1.1/DTD/svg11.dtd">
<!-- Generated by graphviz version 2.26.3 (20100126.1600)
 -->
<!-- Title: CConfigurableDomains::listLastAppliedConfigurations Pages: 1 -->
<svg width="544pt" height="212pt"
 viewBox="0.00 0.00 544.00 212.00" xmlns="http://www.w3.org/2000/svg" xmlns:xlink="http://www.w3.org/1999/xlink">
<g id="graph1" class="graph" transform="scale(1 1) rotate(0) translate(4 208)">
<title>CConfigurableDomains::listLastAppliedConfigurations</title>
<polygon fill="white" stroke="white" points="-4,5 -4,-208 541,-208 541,5 -4,5"/>
<!-- Node1 -->
<g id="node1" class="node"><title>Node1</title>
<polygon fill="#bfbfbf" stroke="black" points="0.5,-97 0.5,-131 161.5,-131 161.5,-97 0.5,-97"/>
<text text-anchor="start" x="8.5" y="-118" font-family="Verdana" font-size="10.00">CConfigurableDomains</text>
<text text-anchor="middle" x="81" y="-105" font-family="Verdana" font-size="10.00">::listLastAppliedConfigurations</text>
</g>
<!-- Node2 -->
<g id="node3" class="node"><title>Node2</title>
<a xlink:href="classCElement.html#a25f58d9d8b35e770806d669fb2a378e4" target="_top" xlink:title="CElement::getNbChildren">
<polygon fill="white" stroke="black" points="223.5,-182.5 223.5,-203.5 360.5,-203.5 360.5,-182.5 223.5,-182.5"/>
<text text-anchor="middle" x="292" y="-190.5" font-family="Verdana" font-size="10.00">CElement::getNbChildren</text>
</a>
</g>
<!-- Node1&#45;&gt;Node2 -->
<g id="edge2" class="edge"><title>Node1&#45;&gt;Node2</title>
<path fill="none" stroke="midnightblue" d="M109.888,-131.212C133.02,-144.336 166.67,-161.975 198,-173 205.497,-175.638 213.458,-177.987 221.452,-180.062"/>
<polygon fill="midnightblue" stroke="midnightblue" points="220.642,-183.468 231.189,-182.46 222.316,-176.671 220.642,-183.468"/>
</g>
<!-- Node3 -->
<g id="node5" class="node"><title>Node3</title>
<a xlink:href="classCElement.html#a41bf126c3fdbb5bec0c2c3dcf35e9079" target="_top" xlink:title="CElement::getChild">
<polygon fill="white" stroke="black" points="238,-142.5 238,-163.5 346,-163.5 346,-142.5 238,-142.5"/>
<text text-anchor="middle" x="292" y="-150.5" font-family="Verdana" font-size="10.00">CElement::getChild</text>
</a>
</g>
<!-- Node1&#45;&gt;Node3 -->
<g id="edge4" class="edge"><title>Node1&#45;&gt;Node3</title>
<path fill="none" stroke="midnightblue" d="M161.673,-128.911C183.569,-132.958 206.977,-137.285 227.827,-141.139"/>
<polygon fill="midnightblue" stroke="midnightblue" points="227.37,-144.613 237.839,-142.989 228.642,-137.73 227.37,-144.613"/>
</g>
<!-- Node4 -->
<g id="node7" class="node"><title>Node4</title>
<a xlink:href="classCElement.html#a49581fb6412e29e932962acd82d52d6a" target="_top" xlink:title="CElement::getName">
<polygon fill="white" stroke="black" points="422,-58.5 422,-79.5 536,-79.5 536,-58.5 422,-58.5"/>
<text text-anchor="middle" x="479" y="-66.5" font-family="Verdana" font-size="10.00">CElement::getName</text>
</a>
</g>
<!-- Node1&#45;&gt;Node4 -->
<g id="edge6" class="edge"><title>Node1&#45;&gt;Node4</title>
<path fill="none" stroke="midnightblue" d="M161.799,-113.582C223.583,-112.151 310.67,-107.73 386,-95 403.249,-92.0851 421.887,-87.2269 437.916,-82.4939"/>
<polygon fill="midnightblue" stroke="midnightblue" points="438.969,-85.8321 447.524,-79.5816 436.938,-79.1331 438.969,-85.8321"/>
</g>
<!-- Node5 -->
<g id="node9" class="node"><title>Node5</title>
<a xlink:href="classCConfigurableDomain.html#a319bbabf57d30c7a11cec87d4448e2df" target="_top" xlink:title="CConfigurableDomain\l::getLastAppliedConfigurationName">
<polygon fill="white" stroke="black" points="198.5,-52 198.5,-86 385.5,-86 385.5,-52 198.5,-52"/>
<text text-anchor="start" x="206.5" y="-73" font-family="Verdana" font-size="10.00">CConfigurableDomain</text>
<text text-anchor="middle" x="292" y="-60" font-family="Verdana" font-size="10.00">::getLastAppliedConfigurationName</text>
</a>
</g>
<!-- Node1&#45;&gt;Node5 -->
<g id="edge8" class="edge"><title>Node1&#45;&gt;Node5</title>
<path fill="none" stroke="midnightblue" d="M160.77,-96.9874C174.293,-94.1034 188.416,-91.0913 202.176,-88.1568"/>
<polygon fill="midnightblue" stroke="midnightblue" points="203.067,-91.5455 212.117,-86.0366 201.607,-84.6995 203.067,-91.5455"/>
</g>
<!-- Node6 -->
<g id="node12" class="node"><title>Node6</title>
<a xlink:href="classCConfigurableDomain.html#a86f912937878b161c334f50175c91d30" target="_top" xlink:title="CConfigurableDomain\l::getPendingConfigurationName">
<polygon fill="white" stroke="black" points="207,-0 207,-34 377,-34 377,-0 207,-0"/>
<text text-anchor="start" x="215" y="-21" font-family="Verdana" font-size="10.00">CConfigurableDomain</text>
<text text-anchor="middle" x="292" y="-8" font-family="Verdana" font-size="10.00">::getPendingConfigurationName</text>
</a>
</g>
<!-- Node1&#45;&gt;Node6 -->
<g id="edge12" class="edge"><title>Node1&#45;&gt;Node6</title>
<path fill="none" stroke="midnightblue" d="M104.594,-96.993C127.507,-81.1422 163.753,-57.7886 198,-43 202.642,-40.9956 207.479,-39.1051 212.404,-37.3292"/>
<polygon fill="midnightblue" stroke="midnightblue" points="213.629,-40.6092 221.954,-34.0553 211.359,-33.9876 213.629,-40.6092"/>
</g>
<!-- Node5&#45;&gt;Node4 -->
<g id="edge10" class="edge"><title>Node5&#45;&gt;Node4</title>
<path fill="none" stroke="midnightblue" d="M385.774,-69C394.52,-69 403.263,-69 411.697,-69"/>
<polygon fill="midnightblue" stroke="midnightblue" points="411.811,-72.5001 421.811,-69 411.811,-65.5001 411.811,-72.5001"/>
</g>
<!-- Node6&#45;&gt;Node4 -->
<g id="edge14" class="edge"><title>Node6&#45;&gt;Node4</title>
<path fill="none" stroke="midnightblue" d="M353.694,-34.0382C364.464,-37.02 375.56,-40.0967 386,-43 400.83,-47.1238 416.984,-51.634 431.606,-55.7228"/>
<polygon fill="midnightblue" stroke="midnightblue" points="430.876,-59.1528 441.449,-58.4764 432.761,-52.4116 430.876,-59.1528"/>
</g>
</g>
</svg>
