<?xml version="1.0" encoding="UTF-8" standalone="no"?>
<!DOCTYPE svg PUBLIC "-//W3C//DTD SVG 1.1//EN"
 "http://www.w3.org/Graphics/SVG/1.1/DTD/svg11.dtd">
<!-- Generated by graphviz version 2.26.3 (20100126.1600)
 -->
<!-- Title: CParameterMgr::accessConfigurationValue Pages: 1 -->
<svg width="778pt" height="368pt"
 viewBox="0.00 0.00 778.00 368.00" xmlns="http://www.w3.org/2000/svg" xmlns:xlink="http://www.w3.org/1999/xlink">
<g id="graph1" class="graph" transform="scale(1 1) rotate(0) translate(4 364)">
<title>CParameterMgr::accessConfigurationValue</title>
<polygon fill="white" stroke="white" points="-4,5 -4,-364 775,-364 775,5 -4,5"/>
<!-- Node1 -->
<g id="node1" class="node"><title>Node1</title>
<polygon fill="#bfbfbf" stroke="black" points="0,-127 0,-161 194,-161 194,-127 0,-127"/>
<text text-anchor="start" x="8" y="-148" font-family="Verdana" font-size="10.00">CParameterMgr::accessConfiguration</text>
<text text-anchor="middle" x="97" y="-135" font-family="Verdana" font-size="10.00">Value</text>
</g>
<!-- Node2 -->
<g id="node3" class="node"><title>Node2</title>
<a xlink:href="classCElementLocator.html#a94ddc34b50d96cd1cc78f43e3014ce36" target="_top" xlink:title="CElementLocator::locate">
<polygon fill="white" stroke="black" points="242,-260.5 242,-281.5 376,-281.5 376,-260.5 242,-260.5"/>
<text text-anchor="middle" x="309" y="-268.5" font-family="Verdana" font-size="10.00">CElementLocator::locate</text>
</a>
</g>
<!-- Node1&#45;&gt;Node2 -->
<g id="edge2" class="edge"><title>Node1&#45;&gt;Node2</title>
<path fill="none" stroke="midnightblue" d="M125.591,-161.128C166.904,-185.876 242.709,-231.288 282.7,-255.245"/>
<polygon fill="midnightblue" stroke="midnightblue" points="280.983,-258.296 291.36,-260.433 284.581,-252.291 280.983,-258.296"/>
</g>
<!-- Node8 -->
<g id="node17" class="node"><title>Node8</title>
<a xlink:href="classCConfigurableDomains.html#a181ae71432b21ee3fedb82abb05872e3" target="_top" xlink:title="CConfigurableDomains\l::findConfigurationBlackboard">
<polygon fill="white" stroke="black" points="230.5,-101 230.5,-135 387.5,-135 387.5,-101 230.5,-101"/>
<text text-anchor="start" x="238.5" y="-122" font-family="Verdana" font-size="10.00">CConfigurableDomains</text>
<text text-anchor="middle" x="309" y="-109" font-family="Verdana" font-size="10.00">::findConfigurationBlackboard</text>
</a>
</g>
<!-- Node1&#45;&gt;Node8 -->
<g id="edge18" class="edge"><title>Node1&#45;&gt;Node8</title>
<path fill="none" stroke="midnightblue" d="M194.004,-132.103C202.781,-131.027 211.64,-129.94 220.34,-128.873"/>
<polygon fill="midnightblue" stroke="midnightblue" points="220.964,-132.323 230.464,-127.632 220.112,-125.375 220.964,-132.323"/>
</g>
<!-- Node9 -->
<g id="node19" class="node"><title>Node9</title>
<a xlink:href="classCElement.html#aaa4df1b13a53263f8cc2b668172873d9" target="_top" xlink:title="CElement::log_info">
<polygon fill="white" stroke="black" points="445,-162.5 445,-183.5 551,-183.5 551,-162.5 445,-162.5"/>
<text text-anchor="middle" x="498" y="-170.5" font-family="Verdana" font-size="10.00">CElement::log_info</text>
</a>
</g>
<!-- Node1&#45;&gt;Node9 -->
<g id="edge34" class="edge"><title>Node1&#45;&gt;Node9</title>
<path fill="none" stroke="midnightblue" d="M194.071,-151.02C268.878,-156.43 370.137,-163.753 434.778,-168.428"/>
<polygon fill="midnightblue" stroke="midnightblue" points="434.601,-171.924 444.828,-169.155 435.106,-164.942 434.601,-171.924"/>
</g>
<!-- Node14 -->
<g id="node32" class="node"><title>Node14</title>
<a xlink:href="classCConfigurableElement.html#a29d61e6d09ff508ebb87aea802f2704e" target="_top" xlink:title="CConfigurableElement\l::getOffset">
<polygon fill="white" stroke="black" points="247.5,-49 247.5,-83 370.5,-83 370.5,-49 247.5,-49"/>
<text text-anchor="start" x="255.5" y="-70" font-family="Verdana" font-size="10.00">CConfigurableElement</text>
<text text-anchor="middle" x="309" y="-57" font-family="Verdana" font-size="10.00">::getOffset</text>
</a>
</g>
<!-- Node1&#45;&gt;Node14 -->
<g id="edge36" class="edge"><title>Node1&#45;&gt;Node14</title>
<path fill="none" stroke="midnightblue" d="M139.006,-126.897C165.068,-116.455 199.323,-103.036 230,-92 235.18,-90.1366 240.569,-88.2515 245.99,-86.3926"/>
<polygon fill="midnightblue" stroke="midnightblue" points="247.398,-89.611 255.745,-83.0852 245.151,-82.9817 247.398,-89.611"/>
</g>
<!-- Node3 -->
<g id="node5" class="node"><title>Node3</title>
<a xlink:href="classCPathNavigator.html#ac63504ec6203e15a9ca4a15e9775bfe8" target="_top" xlink:title="CPathNavigator::isPathValid">
<polygon fill="white" stroke="black" points="424,-338.5 424,-359.5 572,-359.5 572,-338.5 424,-338.5"/>
<text text-anchor="middle" x="498" y="-346.5" font-family="Verdana" font-size="10.00">CPathNavigator::isPathValid</text>
</a>
</g>
<!-- Node2&#45;&gt;Node3 -->
<g id="edge4" class="edge"><title>Node2&#45;&gt;Node3</title>
<path fill="none" stroke="midnightblue" d="M330.323,-281.655C353.189,-292.885 390.707,-310.748 424,-324 433.834,-327.915 444.551,-331.766 454.698,-335.229"/>
<polygon fill="midnightblue" stroke="midnightblue" points="453.61,-338.556 464.204,-338.42 455.837,-331.92 453.61,-338.556"/>
</g>
<!-- Node4 -->
<g id="node7" class="node"><title>Node4</title>
<a xlink:href="classCPathNavigator.html#a06f35d45c0bf392e11de0bf1197cc589" target="_top" xlink:title="CPathNavigator::next">
<polygon fill="white" stroke="black" points="630,-250.5 630,-271.5 748,-271.5 748,-250.5 630,-250.5"/>
<text text-anchor="middle" x="689" y="-258.5" font-family="Verdana" font-size="10.00">CPathNavigator::next</text>
</a>
</g>
<!-- Node2&#45;&gt;Node4 -->
<g id="edge6" class="edge"><title>Node2&#45;&gt;Node4</title>
<path fill="none" stroke="midnightblue" d="M358.569,-281.544C378.762,-285.336 402.397,-289.135 424,-291 489.534,-296.656 506.74,-299.234 572,-291 597.258,-287.813 624.873,-280.902 646.929,-274.515"/>
<polygon fill="midnightblue" stroke="midnightblue" points="648.052,-277.833 656.643,-271.633 646.061,-271.122 648.052,-277.833"/>
</g>
<!-- Node5 -->
<g id="node9" class="node"><title>Node5</title>
<a xlink:href="classCElement.html#a49581fb6412e29e932962acd82d52d6a" target="_top" xlink:title="CElement::getName">
<polygon fill="white" stroke="black" points="441,-260.5 441,-281.5 555,-281.5 555,-260.5 441,-260.5"/>
<text text-anchor="middle" x="498" y="-268.5" font-family="Verdana" font-size="10.00">CElement::getName</text>
</a>
</g>
<!-- Node2&#45;&gt;Node5 -->
<g id="edge8" class="edge"><title>Node2&#45;&gt;Node5</title>
<path fill="none" stroke="midnightblue" d="M376.166,-271C393.817,-271 412.859,-271 430.525,-271"/>
<polygon fill="midnightblue" stroke="midnightblue" points="430.747,-274.5 440.747,-271 430.747,-267.5 430.747,-274.5"/>
</g>
<!-- Node6 -->
<g id="node11" class="node"><title>Node6</title>
<a xlink:href="classCElement.html#a182dcfb7ab154cc97cff047c5f5539f5" target="_top" xlink:title="CElement::findDescendant">
<polygon fill="white" stroke="black" points="426,-202.5 426,-223.5 570,-223.5 570,-202.5 426,-202.5"/>
<text text-anchor="middle" x="498" y="-210.5" font-family="Verdana" font-size="10.00">CElement::findDescendant</text>
</a>
</g>
<!-- Node2&#45;&gt;Node6 -->
<g id="edge10" class="edge"><title>Node2&#45;&gt;Node6</title>
<path fill="none" stroke="midnightblue" d="M343.226,-260.497C374.305,-250.959 420.312,-236.841 454.09,-226.475"/>
<polygon fill="midnightblue" stroke="midnightblue" points="455.176,-229.803 463.709,-223.523 453.123,-223.111 455.176,-229.803"/>
</g>
<!-- Node6&#45;&gt;Node4 -->
<g id="edge12" class="edge"><title>Node6&#45;&gt;Node4</title>
<path fill="none" stroke="midnightblue" d="M539.916,-223.534C568.527,-230.724 606.626,-240.299 637.147,-247.969"/>
<polygon fill="midnightblue" stroke="midnightblue" points="636.631,-251.448 647.182,-250.491 638.337,-244.659 636.631,-251.448"/>
</g>
<!-- Node6&#45;&gt;Node6 -->
<g id="edge16" class="edge"><title>Node6&#45;&gt;Node6</title>
<path fill="none" stroke="midnightblue" d="M468.129,-223.708C455.363,-232.653 465.32,-242 498,-242 519.957,-242 531.656,-237.781 533.098,-232.299"/>
<polygon fill="midnightblue" stroke="midnightblue" points="536.059,-230.432 527.871,-223.708 530.079,-234.07 536.059,-230.432"/>
</g>
<!-- Node7 -->
<g id="node14" class="node"><title>Node7</title>
<a xlink:href="classCElement.html#a8595814a3159f32f874269907e70b260" target="_top" xlink:title="CElement::findChild">
<polygon fill="white" stroke="black" points="634,-130.5 634,-151.5 744,-151.5 744,-130.5 634,-130.5"/>
<text text-anchor="middle" x="689" y="-138.5" font-family="Verdana" font-size="10.00">CElement::findChild</text>
</a>
</g>
<!-- Node6&#45;&gt;Node7 -->
<g id="edge14" class="edge"><title>Node6&#45;&gt;Node7</title>
<path fill="none" stroke="midnightblue" d="M541.389,-202.475C551.527,-199.686 562.218,-196.472 572,-193 602.194,-182.282 635.479,-167.148 658.801,-155.969"/>
<polygon fill="midnightblue" stroke="midnightblue" points="660.363,-159.102 667.84,-151.596 657.313,-152.801 660.363,-159.102"/>
</g>
<!-- Node8&#45;&gt;Node9 -->
<g id="edge20" class="edge"><title>Node8&#45;&gt;Node9</title>
<path fill="none" stroke="midnightblue" d="M363.881,-135.087C382.883,-140.901 404.343,-147.354 424,-153 431.82,-155.246 440.126,-157.56 448.24,-159.782"/>
<polygon fill="midnightblue" stroke="midnightblue" points="447.427,-163.188 457.995,-162.435 449.264,-156.433 447.427,-163.188"/>
</g>
<!-- Node10 -->
<g id="node21" class="node"><title>Node10</title>
<a xlink:href="classCElement.html#a7022c0fc8063f0aae9d97b06e74d4ac1" target="_top" xlink:title="CElement::getPath">
<polygon fill="white" stroke="black" points="445,-104.5 445,-125.5 551,-125.5 551,-104.5 445,-104.5"/>
<text text-anchor="middle" x="498" y="-112.5" font-family="Verdana" font-size="10.00">CElement::getPath</text>
</a>
</g>
<!-- Node8&#45;&gt;Node10 -->
<g id="edge22" class="edge"><title>Node8&#45;&gt;Node10</title>
<path fill="none" stroke="midnightblue" d="M387.511,-116.754C403.168,-116.505 419.428,-116.247 434.504,-116.008"/>
<polygon fill="midnightblue" stroke="midnightblue" points="434.787,-119.504 444.73,-115.846 434.676,-112.505 434.787,-119.504"/>
</g>
<!-- Node11 -->
<g id="node24" class="node"><title>Node11</title>
<a xlink:href="classCConfigurableDomains.html#a4dce38a1560b6e33871d3fa2d85cc449" target="_top" xlink:title="CConfigurableDomains\l::findConfigurableDomain">
<polygon fill="white" stroke="black" points="429.5,-52 429.5,-86 566.5,-86 566.5,-52 429.5,-52"/>
<text text-anchor="start" x="437.5" y="-73" font-family="Verdana" font-size="10.00">CConfigurableDomains</text>
<text text-anchor="middle" x="498" y="-60" font-family="Verdana" font-size="10.00">::findConfigurableDomain</text>
</a>
</g>
<!-- Node8&#45;&gt;Node11 -->
<g id="edge26" class="edge"><title>Node8&#45;&gt;Node11</title>
<path fill="none" stroke="midnightblue" d="M374.573,-101C390.024,-96.9939 406.617,-92.692 422.467,-88.5826"/>
<polygon fill="midnightblue" stroke="midnightblue" points="423.422,-91.9509 432.223,-86.0532 421.665,-85.1749 423.422,-91.9509"/>
</g>
<!-- Node12 -->
<g id="node27" class="node"><title>Node12</title>
<a xlink:href="classCConfigurableElement.html#ac5508cd538517568bebc5448179d9d76" target="_top" xlink:title="CConfigurableElement\l::belongsTo">
<polygon fill="white" stroke="black" points="436.5,-0 436.5,-34 559.5,-34 559.5,-0 436.5,-0"/>
<text text-anchor="start" x="444.5" y="-21" font-family="Verdana" font-size="10.00">CConfigurableElement</text>
<text text-anchor="middle" x="498" y="-8" font-family="Verdana" font-size="10.00">::belongsTo</text>
</a>
</g>
<!-- Node8&#45;&gt;Node12 -->
<g id="edge30" class="edge"><title>Node8&#45;&gt;Node12</title>
<path fill="none" stroke="midnightblue" d="M372.832,-100.949C378.182,-98.3575 383.325,-95.3912 388,-92 409.875,-76.1326 402.285,-59.0845 424,-43 425.823,-41.65 427.721,-40.3656 429.678,-39.144"/>
<polygon fill="midnightblue" stroke="midnightblue" points="431.55,-42.108 438.58,-34.1813 428.141,-35.994 431.55,-42.108"/>
</g>
<!-- Node10&#45;&gt;Node10 -->
<g id="edge24" class="edge"><title>Node10&#45;&gt;Node10</title>
<path fill="none" stroke="midnightblue" d="M468.129,-125.708C455.363,-134.653 465.32,-144 498,-144 519.957,-144 531.656,-139.781 533.098,-134.299"/>
<polygon fill="midnightblue" stroke="midnightblue" points="536.059,-132.432 527.871,-125.708 530.079,-136.07 536.059,-132.432"/>
</g>
<!-- Node11&#45;&gt;Node7 -->
<g id="edge28" class="edge"><title>Node11&#45;&gt;Node7</title>
<path fill="none" stroke="midnightblue" d="M547.449,-86.0909C555.667,-89.0124 564.087,-92.0556 572,-95 599.564,-105.257 630.527,-117.461 653.673,-126.72"/>
<polygon fill="midnightblue" stroke="midnightblue" points="652.498,-130.02 663.082,-130.494 655.104,-123.523 652.498,-130.02"/>
</g>
<!-- Node13 -->
<g id="node29" class="node"><title>Node13</title>
<a xlink:href="classCConfigurableElement.html#a4ff038351f85bcb55768f3fef206866c" target="_top" xlink:title="CConfigurableElement\l::containsConfigurableDomain">
<polygon fill="white" stroke="black" points="608.5,-0 608.5,-34 769.5,-34 769.5,-0 608.5,-0"/>
<text text-anchor="start" x="616.5" y="-21" font-family="Verdana" font-size="10.00">CConfigurableElement</text>
<text text-anchor="middle" x="689" y="-8" font-family="Verdana" font-size="10.00">::containsConfigurableDomain</text>
</a>
</g>
<!-- Node12&#45;&gt;Node13 -->
<g id="edge32" class="edge"><title>Node12&#45;&gt;Node13</title>
<path fill="none" stroke="midnightblue" d="M559.748,-17C571.961,-17 585.018,-17 597.965,-17"/>
<polygon fill="midnightblue" stroke="midnightblue" points="598.307,-20.5001 608.307,-17 598.307,-13.5001 598.307,-20.5001"/>
</g>
</g>
</svg>
