<?xml version="1.0" encoding="UTF-8" standalone="no"?>
<!DOCTYPE svg PUBLIC "-//W3C//DTD SVG 1.1//EN"
 "http://www.w3.org/Graphics/SVG/1.1/DTD/svg11.dtd">
<!-- Generated by graphviz version 2.26.3 (20100126.1600)
 -->
<!-- Title: CSelectionCriteria::listSelectionCriteria Pages: 1 -->
<svg width="834pt" height="241pt"
 viewBox="0.00 0.00 834.00 241.00" xmlns="http://www.w3.org/2000/svg" xmlns:xlink="http://www.w3.org/1999/xlink">
<g id="graph1" class="graph" transform="scale(1 1) rotate(0) translate(4 237)">
<title>CSelectionCriteria::listSelectionCriteria</title>
<polygon fill="white" stroke="white" points="-4,5 -4,-237 831,-237 831,5 -4,5"/>
<!-- Node1 -->
<g id="node1" class="node"><title>Node1</title>
<polygon fill="#bfbfbf" stroke="black" points="0.5,-173 0.5,-207 115.5,-207 115.5,-173 0.5,-173"/>
<text text-anchor="start" x="8.5" y="-194" font-family="Verdana" font-size="10.00">CSelectionCriteria</text>
<text text-anchor="middle" x="58" y="-181" font-family="Verdana" font-size="10.00">::listSelectionCriteria</text>
</g>
<!-- Node2 -->
<g id="node3" class="node"><title>Node2</title>
<a xlink:href="classCSelectionCriteria.html#aa87e3488047e305e72d84d5aa0ed3e08" target="_top" xlink:title="CSelectionCriteria\l::getSelectionCriteriaDefinition">
<polygon fill="white" stroke="black" points="152,-199 152,-233 314,-233 314,-199 152,-199"/>
<text text-anchor="start" x="160" y="-220" font-family="Verdana" font-size="10.00">CSelectionCriteria</text>
<text text-anchor="middle" x="233" y="-207" font-family="Verdana" font-size="10.00">::getSelectionCriteriaDefinition</text>
</a>
</g>
<!-- Node1&#45;&gt;Node2 -->
<g id="edge2" class="edge"><title>Node1&#45;&gt;Node2</title>
<path fill="none" stroke="midnightblue" d="M115.787,-198.585C124.177,-199.832 132.982,-201.14 141.837,-202.456"/>
<polygon fill="midnightblue" stroke="midnightblue" points="141.43,-205.934 151.836,-203.941 142.459,-199.01 141.43,-205.934"/>
</g>
<!-- Node4 -->
<g id="node7" class="node"><title>Node4</title>
<a xlink:href="classCSelectionCriteriaDefinition.html#a24f1eb22f90ddb42ee971bdfc5f99aa5" target="_top" xlink:title="CSelectionCriteriaDefinition\l::listSelectionCriteria">
<polygon fill="white" stroke="black" points="159.5,-147 159.5,-181 306.5,-181 306.5,-147 159.5,-147"/>
<text text-anchor="start" x="167.5" y="-168" font-family="Verdana" font-size="10.00">CSelectionCriteriaDefinition</text>
<text text-anchor="middle" x="233" y="-155" font-family="Verdana" font-size="10.00">::listSelectionCriteria</text>
</a>
</g>
<!-- Node1&#45;&gt;Node4 -->
<g id="edge6" class="edge"><title>Node1&#45;&gt;Node4</title>
<path fill="none" stroke="midnightblue" d="M115.787,-181.415C126.567,-179.813 138.03,-178.11 149.405,-176.42"/>
<polygon fill="midnightblue" stroke="midnightblue" points="149.982,-179.873 159.359,-174.941 148.953,-172.949 149.982,-179.873"/>
</g>
<!-- Node3 -->
<g id="node5" class="node"><title>Node3</title>
<a xlink:href="classCElement.html#a41bf126c3fdbb5bec0c2c3dcf35e9079" target="_top" xlink:title="CElement::getChild">
<polygon fill="white" stroke="black" points="368,-202.5 368,-223.5 476,-223.5 476,-202.5 368,-202.5"/>
<text text-anchor="middle" x="422" y="-210.5" font-family="Verdana" font-size="10.00">CElement::getChild</text>
</a>
</g>
<!-- Node2&#45;&gt;Node3 -->
<g id="edge4" class="edge"><title>Node2&#45;&gt;Node3</title>
<path fill="none" stroke="midnightblue" d="M314.25,-214.71C328.822,-214.479 343.823,-214.241 357.829,-214.019"/>
<polygon fill="midnightblue" stroke="midnightblue" points="357.889,-217.518 367.832,-213.86 357.778,-210.519 357.889,-217.518"/>
</g>
<!-- Node4&#45;&gt;Node3 -->
<g id="edge10" class="edge"><title>Node4&#45;&gt;Node3</title>
<path fill="none" stroke="midnightblue" d="M298.573,-181C322.426,-187.185 349.002,-194.075 371.365,-199.872"/>
<polygon fill="midnightblue" stroke="midnightblue" points="370.76,-203.331 381.319,-202.453 372.517,-196.555 370.76,-203.331"/>
</g>
<!-- Node5 -->
<g id="node9" class="node"><title>Node5</title>
<a xlink:href="classCElement.html#a25f58d9d8b35e770806d669fb2a378e4" target="_top" xlink:title="CElement::getNbChildren">
<polygon fill="white" stroke="black" points="353.5,-156.5 353.5,-177.5 490.5,-177.5 490.5,-156.5 353.5,-156.5"/>
<text text-anchor="middle" x="422" y="-164.5" font-family="Verdana" font-size="10.00">CElement::getNbChildren</text>
</a>
</g>
<!-- Node4&#45;&gt;Node5 -->
<g id="edge8" class="edge"><title>Node4&#45;&gt;Node5</title>
<path fill="none" stroke="midnightblue" d="M306.614,-165.168C318.598,-165.359 331.054,-165.556 343.158,-165.749"/>
<polygon fill="midnightblue" stroke="midnightblue" points="343.169,-169.249 353.224,-165.908 343.28,-162.25 343.169,-169.249"/>
</g>
<!-- Node6 -->
<g id="node12" class="node"><title>Node6</title>
<a xlink:href="classCSelectionCriterion.html#a10a460a1ee7b1a38b34ab8eb90ea74f9" target="_top" xlink:title="User request. ">
<polygon fill="white" stroke="black" points="350.5,-104 350.5,-138 493.5,-138 493.5,-104 350.5,-104"/>
<text text-anchor="start" x="358.5" y="-125" font-family="Verdana" font-size="10.00">CSelectionCriterion</text>
<text text-anchor="middle" x="422" y="-112" font-family="Verdana" font-size="10.00">::getFormattedDescription</text>
</a>
</g>
<!-- Node4&#45;&gt;Node6 -->
<g id="edge12" class="edge"><title>Node4&#45;&gt;Node6</title>
<path fill="none" stroke="midnightblue" d="M306.614,-147.252C317.757,-144.717 329.307,-142.089 340.604,-139.519"/>
<polygon fill="midnightblue" stroke="midnightblue" points="341.474,-142.91 350.448,-137.279 339.921,-136.085 341.474,-142.91"/>
</g>
<!-- Node7 -->
<g id="node14" class="node"><title>Node7</title>
<a xlink:href="classCElement.html#a834a32898950ca2ce9b629aa3367101e" target="_top" xlink:title="CElement::appendTitle">
<polygon fill="white" stroke="black" points="532.5,-196.5 532.5,-217.5 657.5,-217.5 657.5,-196.5 532.5,-196.5"/>
<text text-anchor="middle" x="595" y="-204.5" font-family="Verdana" font-size="10.00">CElement::appendTitle</text>
</a>
</g>
<!-- Node6&#45;&gt;Node7 -->
<g id="edge14" class="edge"><title>Node6&#45;&gt;Node7</title>
<path fill="none" stroke="midnightblue" d="M477.995,-138.068C483.596,-140.693 489.038,-143.661 494,-147 513.844,-160.352 509.841,-174.129 530,-187 533.172,-189.025 536.562,-190.856 540.066,-192.51"/>
<polygon fill="midnightblue" stroke="midnightblue" points="538.963,-195.843 549.538,-196.485 541.671,-189.388 538.963,-195.843"/>
</g>
<!-- Node8 -->
<g id="node16" class="node"><title>Node8</title>
<a xlink:href="classCElement.html#a49581fb6412e29e932962acd82d52d6a" target="_top" xlink:title="CElement::getName">
<polygon fill="white" stroke="black" points="538,-156.5 538,-177.5 652,-177.5 652,-156.5 538,-156.5"/>
<text text-anchor="middle" x="595" y="-164.5" font-family="Verdana" font-size="10.00">CElement::getName</text>
</a>
</g>
<!-- Node6&#45;&gt;Node8 -->
<g id="edge16" class="edge"><title>Node6&#45;&gt;Node8</title>
<path fill="none" stroke="midnightblue" d="M486.419,-138.129C505.953,-143.323 527.098,-148.945 545.493,-153.836"/>
<polygon fill="midnightblue" stroke="midnightblue" points="544.838,-157.284 555.402,-156.471 546.637,-150.519 544.838,-157.284"/>
</g>
<!-- Node9 -->
<g id="node18" class="node"><title>Node9</title>
<a xlink:href="classCSelectionCriterionType.html#ae88c284c1f002d7237f25e9c21dcf44f" target="_top" xlink:title="CSelectionCriterionType\l::isTypeInclusive">
<polygon fill="white" stroke="black" points="530.5,-104 530.5,-138 659.5,-138 659.5,-104 530.5,-104"/>
<text text-anchor="start" x="538.5" y="-125" font-family="Verdana" font-size="10.00">CSelectionCriterionType</text>
<text text-anchor="middle" x="595" y="-112" font-family="Verdana" font-size="10.00">::isTypeInclusive</text>
</a>
</g>
<!-- Node6&#45;&gt;Node9 -->
<g id="edge18" class="edge"><title>Node6&#45;&gt;Node9</title>
<path fill="none" stroke="midnightblue" d="M493.615,-121C502.367,-121 511.329,-121 520.127,-121"/>
<polygon fill="midnightblue" stroke="midnightblue" points="520.359,-124.5 530.359,-121 520.359,-117.5 520.359,-124.5"/>
</g>
<!-- Node10 -->
<g id="node20" class="node"><title>Node10</title>
<a xlink:href="classCSelectionCriterionType.html#a31f9a40404c9564b2c54658a679db628" target="_top" xlink:title="CSelectionCriterionType\l::listPossibleValues">
<polygon fill="white" stroke="black" points="530.5,-52 530.5,-86 659.5,-86 659.5,-52 530.5,-52"/>
<text text-anchor="start" x="538.5" y="-73" font-family="Verdana" font-size="10.00">CSelectionCriterionType</text>
<text text-anchor="middle" x="595" y="-60" font-family="Verdana" font-size="10.00">::listPossibleValues</text>
</a>
</g>
<!-- Node6&#45;&gt;Node10 -->
<g id="edge20" class="edge"><title>Node6&#45;&gt;Node10</title>
<path fill="none" stroke="midnightblue" d="M478.647,-103.973C494.478,-99.2146 511.831,-93.9989 528.19,-89.0815"/>
<polygon fill="midnightblue" stroke="midnightblue" points="529.657,-92.2955 538.226,-86.065 527.642,-85.5918 529.657,-92.2955"/>
</g>
<!-- Node11 -->
<g id="node22" class="node"><title>Node11</title>
<a xlink:href="classCSelectionCriterionType.html#acf1d7bbd1dc0b21897cdf7cf3d362bb3" target="_top" xlink:title="CSelectionCriterionType\l::getFormattedState">
<polygon fill="white" stroke="black" points="530.5,-0 530.5,-34 659.5,-34 659.5,-0 530.5,-0"/>
<text text-anchor="start" x="538.5" y="-21" font-family="Verdana" font-size="10.00">CSelectionCriterionType</text>
<text text-anchor="middle" x="595" y="-8" font-family="Verdana" font-size="10.00">::getFormattedState</text>
</a>
</g>
<!-- Node6&#45;&gt;Node11 -->
<g id="edge22" class="edge"><title>Node6&#45;&gt;Node11</title>
<path fill="none" stroke="midnightblue" d="M442.494,-103.846C463.496,-86.8479 497.577,-60.8388 530,-43 532.875,-41.4181 535.867,-39.8807 538.919,-38.3959"/>
<polygon fill="midnightblue" stroke="midnightblue" points="540.588,-41.4802 548.197,-34.108 537.651,-35.126 540.588,-41.4802"/>
</g>
<!-- Node12 -->
<g id="node24" class="node"><title>Node12</title>
<a xlink:href="classCSelectionCriterionType.html#ae526e3679a02dd85be47abe8a548f1ee" target="_top" xlink:title="CSelectionCriterionType\l::getLiteralValue">
<polygon fill="white" stroke="black" points="696.5,-0 696.5,-34 825.5,-34 825.5,-0 696.5,-0"/>
<text text-anchor="start" x="704.5" y="-21" font-family="Verdana" font-size="10.00">CSelectionCriterionType</text>
<text text-anchor="middle" x="761" y="-8" font-family="Verdana" font-size="10.00">::getLiteralValue</text>
</a>
</g>
<!-- Node11&#45;&gt;Node12 -->
<g id="edge24" class="edge"><title>Node11&#45;&gt;Node12</title>
<path fill="none" stroke="midnightblue" d="M659.655,-17C668.292,-17 677.208,-17 686.003,-17"/>
<polygon fill="midnightblue" stroke="midnightblue" points="686.248,-20.5001 696.248,-17 686.248,-13.5001 686.248,-20.5001"/>
</g>
</g>
</svg>
