<?xml version="1.0" encoding="UTF-8" standalone="no"?>
<!DOCTYPE svg PUBLIC "-//W3C//DTD SVG 1.1//EN"
 "http://www.w3.org/Graphics/SVG/1.1/DTD/svg11.dtd">
<!-- Generated by graphviz version 2.26.3 (20100126.1600)
 -->
<!-- Title: CParameterAccessContext::getParameterBlackboard Pages: 1 -->
<svg width="774pt" height="318pt"
 viewBox="0.00 0.00 774.00 318.00" xmlns="http://www.w3.org/2000/svg" xmlns:xlink="http://www.w3.org/1999/xlink">
<g id="graph1" class="graph" transform="scale(1 1) rotate(0) translate(4 314)">
<title>CParameterAccessContext::getParameterBlackboard</title>
<polygon fill="white" stroke="white" points="-4,5 -4,-314 771,-314 771,5 -4,5"/>
<!-- Node1 -->
<g id="node1" class="node"><title>Node1</title>
<polygon fill="#bfbfbf" stroke="black" points="0.5,-126 0.5,-160 145.5,-160 145.5,-126 0.5,-126"/>
<text text-anchor="start" x="8.5" y="-147" font-family="Verdana" font-size="10.00">CParameterAccessContext</text>
<text text-anchor="middle" x="73" y="-134" font-family="Verdana" font-size="10.00">::getParameterBlackboard</text>
</g>
<!-- Node2 -->
<g id="node3" class="node"><title>Node2</title>
<a xlink:href="classCArrayParameter.html#a92c36813ec9f475880d47409c01e52db" target="_top" xlink:title="CArrayParameter::setDefault\lValues">
<polygon fill="white" stroke="black" points="186.5,-276 186.5,-310 341.5,-310 341.5,-276 186.5,-276"/>
<text text-anchor="start" x="194.5" y="-297" font-family="Verdana" font-size="10.00">CArrayParameter::setDefault</text>
<text text-anchor="middle" x="264" y="-284" font-family="Verdana" font-size="10.00">Values</text>
</a>
</g>
<!-- Node1&#45;&gt;Node2 -->
<g id="edge2" class="edge"><title>Node1&#45;&gt;Node2</title>
<path fill="none" stroke="midnightblue" d="M89.16,-168.542C108.142,-196.557 142.151,-240.985 182,-267 187.127,-270.347 192.716,-273.289 198.486,-275.87"/>
<polygon fill="midnightblue" stroke="midnightblue" points="91.9819,-166.464 83.5365,-160.067 86.1492,-170.335 91.9819,-166.464"/>
</g>
<!-- Node3 -->
<g id="node5" class="node"><title>Node3</title>
<a xlink:href="classCBitParameterBlock.html#a74485c7734eb44648b1182cf8e884d40" target="_top" xlink:title="CBitParameterBlock\l::setDefaultValues">
<polygon fill="white" stroke="black" points="208,-224 208,-258 320,-258 320,-224 208,-224"/>
<text text-anchor="start" x="216" y="-245" font-family="Verdana" font-size="10.00">CBitParameterBlock</text>
<text text-anchor="middle" x="264" y="-232" font-family="Verdana" font-size="10.00">::setDefaultValues</text>
</a>
</g>
<!-- Node1&#45;&gt;Node3 -->
<g id="edge4" class="edge"><title>Node1&#45;&gt;Node3</title>
<path fill="none" stroke="midnightblue" d="M103.129,-166.199C124.293,-181.651 153.758,-201.518 182,-215 190.087,-218.86 198.887,-222.34 207.622,-225.404"/>
<polygon fill="midnightblue" stroke="midnightblue" points="104.999,-163.229 94.8789,-160.093 100.834,-168.855 104.999,-163.229"/>
</g>
<!-- Node4 -->
<g id="node7" class="node"><title>Node4</title>
<a xlink:href="classCInstanceConfigurableElement.html#a2e6e7782de8e4d7e844a869917f2f037" target="_top" xlink:title="Performs the sync if the AutoSync is enabled. ">
<polygon fill="white" stroke="black" points="182,-172 182,-206 346,-206 346,-172 182,-172"/>
<text text-anchor="start" x="190" y="-193" font-family="Verdana" font-size="10.00">CInstanceConfigurableElement</text>
<text text-anchor="middle" x="264" y="-180" font-family="Verdana" font-size="10.00">::sync</text>
</a>
</g>
<!-- Node1&#45;&gt;Node4 -->
<g id="edge6" class="edge"><title>Node1&#45;&gt;Node4</title>
<path fill="none" stroke="midnightblue" d="M153.791,-162.458C166.91,-165.617 180.409,-168.868 193.265,-171.964"/>
<polygon fill="midnightblue" stroke="midnightblue" points="154.391,-159.002 143.85,-160.063 152.752,-165.808 154.391,-159.002"/>
</g>
<!-- Node10 -->
<g id="node19" class="node"><title>Node10</title>
<a xlink:href="classCParameter.html#a26fa5e3c97be1577ad15d04295ada708" target="_top" xlink:title="CParameter::setDefaultValues">
<polygon fill="white" stroke="black" points="183.5,-132.5 183.5,-153.5 344.5,-153.5 344.5,-132.5 183.5,-132.5"/>
<text text-anchor="middle" x="264" y="-140.5" font-family="Verdana" font-size="10.00">CParameter::setDefaultValues</text>
</a>
</g>
<!-- Node1&#45;&gt;Node10 -->
<g id="edge18" class="edge"><title>Node1&#45;&gt;Node10</title>
<path fill="none" stroke="midnightblue" d="M155.974,-143C165.101,-143 174.384,-143 183.48,-143"/>
<polygon fill="midnightblue" stroke="midnightblue" points="155.754,-139.5 145.754,-143 155.754,-146.5 155.754,-139.5"/>
</g>
<!-- Node11 -->
<g id="node21" class="node"><title>Node11</title>
<a xlink:href="classCStringParameter.html#a76f587f59ddcfd51704f55fd2fa88485" target="_top" xlink:title="CStringParameter::setDefault\lValues">
<polygon fill="white" stroke="black" points="185,-80 185,-114 343,-114 343,-80 185,-80"/>
<text text-anchor="start" x="193" y="-101" font-family="Verdana" font-size="10.00">CStringParameter::setDefault</text>
<text text-anchor="middle" x="264" y="-88" font-family="Verdana" font-size="10.00">Values</text>
</a>
</g>
<!-- Node1&#45;&gt;Node11 -->
<g id="edge20" class="edge"><title>Node1&#45;&gt;Node11</title>
<path fill="none" stroke="midnightblue" d="M153.791,-123.542C166.91,-120.383 180.409,-117.132 193.265,-114.036"/>
<polygon fill="midnightblue" stroke="midnightblue" points="152.752,-120.192 143.85,-125.937 154.391,-126.998 152.752,-120.192"/>
</g>
<!-- Node12 -->
<g id="node23" class="node"><title>Node12</title>
<a xlink:href="classCStringParameter.html#a6a9db60ee5c1b4c620441d6e0d82bd08" target="_top" xlink:title="CStringParameter::doSetValue">
<polygon fill="white" stroke="black" points="182.5,-40.5 182.5,-61.5 345.5,-61.5 345.5,-40.5 182.5,-40.5"/>
<text text-anchor="middle" x="264" y="-48.5" font-family="Verdana" font-size="10.00">CStringParameter::doSetValue</text>
</a>
</g>
<!-- Node1&#45;&gt;Node12 -->
<g id="edge22" class="edge"><title>Node1&#45;&gt;Node12</title>
<path fill="none" stroke="midnightblue" d="M102.447,-119.485C123.512,-103.714 153.135,-83.597 182,-71 190.595,-67.2489 200.018,-64.1234 209.317,-61.545"/>
<polygon fill="midnightblue" stroke="midnightblue" points="100.088,-116.883 94.2521,-125.726 104.328,-122.452 100.088,-116.883"/>
</g>
<!-- Node13 -->
<g id="node25" class="node"><title>Node13</title>
<a xlink:href="classCStringParameter.html#a4e52ebcdfe2da9b4e9089545d539e9fb" target="_top" xlink:title="CStringParameter::doGetValue">
<polygon fill="white" stroke="black" points="182,-0.5 182,-21.5 346,-21.5 346,-0.5 182,-0.5"/>
<text text-anchor="middle" x="264" y="-8.5" font-family="Verdana" font-size="10.00">CStringParameter::doGetValue</text>
</a>
</g>
<!-- Node1&#45;&gt;Node13 -->
<g id="edge24" class="edge"><title>Node1&#45;&gt;Node13</title>
<path fill="none" stroke="midnightblue" d="M90.9605,-117.474C110.44,-91.7289 143.902,-52.7683 182,-31 188.743,-27.1471 196.209,-24.0323 203.809,-21.5152"/>
<polygon fill="midnightblue" stroke="midnightblue" points="88.0415,-115.534 84.904,-125.654 93.6674,-119.7 88.0415,-115.534"/>
</g>
<!-- Node5 -->
<g id="node9" class="node"><title>Node5</title>
<a xlink:href="classCArrayParameter.html#a07b3af958a03b2295be159f69b22d42d" target="_top" xlink:title="CArrayParameter::accessValue">
<polygon fill="white" stroke="black" points="386,-224.5 386,-245.5 550,-245.5 550,-224.5 386,-224.5"/>
<text text-anchor="middle" x="468" y="-232.5" font-family="Verdana" font-size="10.00">CArrayParameter::accessValue</text>
</a>
</g>
<!-- Node4&#45;&gt;Node5 -->
<g id="edge8" class="edge"><title>Node4&#45;&gt;Node5</title>
<path fill="none" stroke="midnightblue" d="M349.703,-208.325C374.187,-213.846 399.956,-219.657 421.171,-224.44"/>
<polygon fill="midnightblue" stroke="midnightblue" points="350.197,-204.849 339.672,-206.063 348.657,-211.677 350.197,-204.849"/>
</g>
<!-- Node6 -->
<g id="node11" class="node"><title>Node6</title>
<a xlink:href="classCBaseParameter.html#a2b425561e193a3d54e7225d896a3d39b" target="_top" xlink:title="CBaseParameter::accessAs\lString">
<polygon fill="white" stroke="black" points="393.5,-172 393.5,-206 542.5,-206 542.5,-172 393.5,-172"/>
<text text-anchor="start" x="401.5" y="-193" font-family="Verdana" font-size="10.00">CBaseParameter::accessAs</text>
<text text-anchor="middle" x="468" y="-180" font-family="Verdana" font-size="10.00">String</text>
</a>
</g>
<!-- Node4&#45;&gt;Node6 -->
<g id="edge10" class="edge"><title>Node4&#45;&gt;Node6</title>
<path fill="none" stroke="midnightblue" d="M356.414,-189C368.774,-189 381.323,-189 393.327,-189"/>
<polygon fill="midnightblue" stroke="midnightblue" points="356.093,-185.5 346.093,-189 356.093,-192.5 356.093,-185.5"/>
</g>
<!-- Node8 -->
<g id="node15" class="node"><title>Node8</title>
<a xlink:href="classCBitParameter.html#a6f4d06e327fb0b816c08e383177a82fc" target="_top" xlink:title="CBitParameter::accessAsInteger">
<polygon fill="white" stroke="black" points="382.5,-132.5 382.5,-153.5 553.5,-153.5 553.5,-132.5 382.5,-132.5"/>
<text text-anchor="middle" x="468" y="-140.5" font-family="Verdana" font-size="10.00">CBitParameter::accessAsInteger</text>
</a>
</g>
<!-- Node4&#45;&gt;Node8 -->
<g id="edge14" class="edge"><title>Node4&#45;&gt;Node8</title>
<path fill="none" stroke="midnightblue" d="M349.703,-169.675C374.187,-164.154 399.956,-158.343 421.171,-153.56"/>
<polygon fill="midnightblue" stroke="midnightblue" points="348.657,-166.323 339.672,-171.937 350.197,-173.151 348.657,-166.323"/>
</g>
<!-- Node7 -->
<g id="node13" class="node"><title>Node7</title>
<a xlink:href="classCBaseParameter.html#a4a9b3e3a2d1ea65a8dc7048559db8dc2" target="_top" xlink:title="CBaseParameter::accessValue">
<polygon fill="white" stroke="black" points="596.5,-178.5 596.5,-199.5 759.5,-199.5 759.5,-178.5 596.5,-178.5"/>
<text text-anchor="middle" x="678" y="-186.5" font-family="Verdana" font-size="10.00">CBaseParameter::accessValue</text>
</a>
</g>
<!-- Node6&#45;&gt;Node7 -->
<g id="edge12" class="edge"><title>Node6&#45;&gt;Node7</title>
<path fill="none" stroke="midnightblue" d="M552.977,-189C567.335,-189 582.212,-189 596.48,-189"/>
<polygon fill="midnightblue" stroke="midnightblue" points="552.629,-185.5 542.629,-189 552.629,-192.5 552.629,-185.5"/>
</g>
<!-- Node9 -->
<g id="node17" class="node"><title>Node9</title>
<a xlink:href="classCBitParameter.html#a2e0ed93baec3479a9b92314818433a31" target="_top" xlink:title="Value access. ">
<polygon fill="white" stroke="black" points="590,-132.5 590,-153.5 766,-153.5 766,-132.5 590,-132.5"/>
<text text-anchor="middle" x="678" y="-140.5" font-family="Verdana" font-size="10.00">CBitParameter::accessAsBoolean</text>
</a>
</g>
<!-- Node8&#45;&gt;Node9 -->
<g id="edge16" class="edge"><title>Node8&#45;&gt;Node9</title>
<path fill="none" stroke="midnightblue" d="M563.833,-143C572.494,-143 581.239,-143 589.83,-143"/>
<polygon fill="midnightblue" stroke="midnightblue" points="563.718,-139.5 553.718,-143 563.718,-146.5 563.718,-139.5"/>
</g>
</g>
</svg>
