<?xml version="1.0" encoding="UTF-8" standalone="no"?>
<!DOCTYPE svg PUBLIC "-//W3C//DTD SVG 1.1//EN"
 "http://www.w3.org/Graphics/SVG/1.1/DTD/svg11.dtd">
<!-- Generated by graphviz version 2.26.3 (20100126.1600)
 -->
<!-- Title: CXmlDomainImportContext::getSelectionCriteriaDefinition Pages: 1 -->
<svg width="334pt" height="42pt"
 viewBox="0.00 0.00 334.00 42.00" xmlns="http://www.w3.org/2000/svg" xmlns:xlink="http://www.w3.org/1999/xlink">
<g id="graph1" class="graph" transform="scale(1 1) rotate(0) translate(4 38)">
<title>CXmlDomainImportContext::getSelectionCriteriaDefinition</title>
<polygon fill="white" stroke="white" points="-4,5 -4,-38 331,-38 331,5 -4,5"/>
<!-- Node1 -->
<g id="node1" class="node"><title>Node1</title>
<polygon fill="#bfbfbf" stroke="black" points="0,-0 0,-34 162,-34 162,-0 0,-0"/>
<text text-anchor="start" x="8" y="-21" font-family="Verdana" font-size="10.00">CXmlDomainImportContext</text>
<text text-anchor="middle" x="81" y="-8" font-family="Verdana" font-size="10.00">::getSelectionCriteriaDefinition</text>
</g>
<!-- Node2 -->
<g id="node3" class="node"><title>Node2</title>
<a xlink:href="classCSelectionCriterionRule.html#aa3536258af1e5f9cc1db535e7629d42c" target="_top" xlink:title="CSelectionCriterionRule\l::fromXml">
<polygon fill="white" stroke="black" points="198,-0 198,-34 326,-34 326,-0 198,-0"/>
<text text-anchor="start" x="206" y="-21" font-family="Verdana" font-size="10.00">CSelectionCriterionRule</text>
<text text-anchor="middle" x="262" y="-8" font-family="Verdana" font-size="10.00">::fromXml</text>
</a>
</g>
<!-- Node1&#45;&gt;Node2 -->
<g id="edge2" class="edge"><title>Node1&#45;&gt;Node2</title>
<path fill="none" stroke="midnightblue" d="M172.338,-17C180.956,-17 189.565,-17 197.85,-17"/>
<polygon fill="midnightblue" stroke="midnightblue" points="172.235,-13.5001 162.235,-17 172.235,-20.5001 172.235,-13.5001"/>
</g>
</g>
</svg>
