<?xml version="1.0" encoding="UTF-8" standalone="no"?>
<!DOCTYPE svg PUBLIC "-//W3C//DTD SVG 1.1//EN"
 "http://www.w3.org/Graphics/SVG/1.1/DTD/svg11.dtd">
<!-- Generated by graphviz version 2.26.3 (20100126.1600)
 -->
<!-- Title: CSelectionCriterionLibrary::createSelectionCriterionType Pages: 1 -->
<svg width="574pt" height="42pt"
 viewBox="0.00 0.00 574.00 42.00" xmlns="http://www.w3.org/2000/svg" xmlns:xlink="http://www.w3.org/1999/xlink">
<g id="graph1" class="graph" transform="scale(1 1) rotate(0) translate(4 38)">
<title>CSelectionCriterionLibrary::createSelectionCriterionType</title>
<polygon fill="white" stroke="white" points="-4,5 -4,-38 571,-38 571,5 -4,5"/>
<!-- Node1 -->
<g id="node1" class="node"><title>Node1</title>
<polygon fill="#bfbfbf" stroke="black" points="0.5,-0 0.5,-34 159.5,-34 159.5,-0 0.5,-0"/>
<text text-anchor="start" x="8.5" y="-21" font-family="Verdana" font-size="10.00">CSelectionCriterionLibrary</text>
<text text-anchor="middle" x="80" y="-8" font-family="Verdana" font-size="10.00">::createSelectionCriterionType</text>
</g>
<!-- Node2 -->
<g id="node3" class="node"><title>Node2</title>
<a xlink:href="classCSelectionCriteria.html#a450f1208de1f19ad99740510b896a3af" target="_top" xlink:title="CSelectionCriteria\l::createSelectionCriterionType">
<polygon fill="white" stroke="black" points="196.5,-0 196.5,-34 355.5,-34 355.5,-0 196.5,-0"/>
<text text-anchor="start" x="204.5" y="-21" font-family="Verdana" font-size="10.00">CSelectionCriteria</text>
<text text-anchor="middle" x="276" y="-8" font-family="Verdana" font-size="10.00">::createSelectionCriterionType</text>
</a>
</g>
<!-- Node1&#45;&gt;Node2 -->
<g id="edge2" class="edge"><title>Node1&#45;&gt;Node2</title>
<path fill="none" stroke="midnightblue" d="M169.989,-17C178.785,-17 187.667,-17 196.35,-17"/>
<polygon fill="midnightblue" stroke="midnightblue" points="169.721,-13.5001 159.721,-17 169.721,-20.5001 169.721,-13.5001"/>
</g>
<!-- Node3 -->
<g id="node5" class="node"><title>Node3</title>
<a xlink:href="classCParameterMgr.html#a4d2a54a91f937ac71a1f7bbea2ffa1c2" target="_top" xlink:title="CParameterMgr::createSelection\lCriterionType">
<polygon fill="white" stroke="black" points="392.5,-0 392.5,-34 565.5,-34 565.5,-0 392.5,-0"/>
<text text-anchor="start" x="400.5" y="-21" font-family="Verdana" font-size="10.00">CParameterMgr::createSelection</text>
<text text-anchor="middle" x="479" y="-8" font-family="Verdana" font-size="10.00">CriterionType</text>
</a>
</g>
<!-- Node2&#45;&gt;Node3 -->
<g id="edge4" class="edge"><title>Node2&#45;&gt;Node3</title>
<path fill="none" stroke="midnightblue" d="M365.856,-17C374.61,-17 383.482,-17 392.206,-17"/>
<polygon fill="midnightblue" stroke="midnightblue" points="365.648,-13.5001 355.648,-17 365.648,-20.5001 365.648,-13.5001"/>
</g>
</g>
</svg>
