<?xml version="1.0" encoding="UTF-8" standalone="no"?>
<!DOCTYPE svg PUBLIC "-//W3C//DTD SVG 1.1//EN"
 "http://www.w3.org/Graphics/SVG/1.1/DTD/svg11.dtd">
<!-- Generated by graphviz version 2.26.3 (20100126.1600)
 -->
<!-- Title: CSelectionCriterionType::getLiteralValue Pages: 1 -->
<svg width="974pt" height="120pt"
 viewBox="0.00 0.00 974.00 120.00" xmlns="http://www.w3.org/2000/svg" xmlns:xlink="http://www.w3.org/1999/xlink">
<g id="graph1" class="graph" transform="scale(1 1) rotate(0) translate(4 116)">
<title>CSelectionCriterionType::getLiteralValue</title>
<polygon fill="white" stroke="white" points="-4,5 -4,-116 971,-116 971,5 -4,5"/>
<!-- Node1 -->
<g id="node1" class="node"><title>Node1</title>
<polygon fill="#bfbfbf" stroke="black" points="0.5,-26 0.5,-60 129.5,-60 129.5,-26 0.5,-26"/>
<text text-anchor="start" x="8.5" y="-47" font-family="Verdana" font-size="10.00">CSelectionCriterionType</text>
<text text-anchor="middle" x="65" y="-34" font-family="Verdana" font-size="10.00">::getLiteralValue</text>
</g>
<!-- Node2 -->
<g id="node3" class="node"><title>Node2</title>
<a xlink:href="classCSelectionCriterionType.html#acf1d7bbd1dc0b21897cdf7cf3d362bb3" target="_top" xlink:title="CSelectionCriterionType\l::getFormattedState">
<polygon fill="white" stroke="black" points="166.5,-26 166.5,-60 295.5,-60 295.5,-26 166.5,-26"/>
<text text-anchor="start" x="174.5" y="-47" font-family="Verdana" font-size="10.00">CSelectionCriterionType</text>
<text text-anchor="middle" x="231" y="-34" font-family="Verdana" font-size="10.00">::getFormattedState</text>
</a>
</g>
<!-- Node1&#45;&gt;Node2 -->
<g id="edge2" class="edge"><title>Node1&#45;&gt;Node2</title>
<path fill="none" stroke="midnightblue" d="M139.898,-43C148.693,-43 157.609,-43 166.248,-43"/>
<polygon fill="midnightblue" stroke="midnightblue" points="139.655,-39.5001 129.655,-43 139.655,-46.5001 139.655,-39.5001"/>
</g>
<!-- Node3 -->
<g id="node5" class="node"><title>Node3</title>
<a xlink:href="classCSelectionCriterion.html#a10a460a1ee7b1a38b34ab8eb90ea74f9" target="_top" xlink:title="User request. ">
<polygon fill="white" stroke="black" points="332.5,-52 332.5,-86 475.5,-86 475.5,-52 332.5,-52"/>
<text text-anchor="start" x="340.5" y="-73" font-family="Verdana" font-size="10.00">CSelectionCriterion</text>
<text text-anchor="middle" x="404" y="-60" font-family="Verdana" font-size="10.00">::getFormattedDescription</text>
</a>
</g>
<!-- Node2&#45;&gt;Node3 -->
<g id="edge4" class="edge"><title>Node2&#45;&gt;Node3</title>
<path fill="none" stroke="midnightblue" d="M306.058,-54.2805C314.783,-55.5916 323.665,-56.9266 332.342,-58.2307"/>
<polygon fill="midnightblue" stroke="midnightblue" points="306.32,-50.7806 295.911,-52.7554 305.28,-57.7028 306.32,-50.7806"/>
</g>
<!-- Node8 -->
<g id="node15" class="node"><title>Node8</title>
<a xlink:href="classCSelectionCriterion.html#a3942150fa9e5980d89268672fff31032" target="_top" xlink:title="Export to XML. ">
<polygon fill="white" stroke="black" points="350,-0 350,-34 458,-34 458,-0 350,-0"/>
<text text-anchor="start" x="358" y="-21" font-family="Verdana" font-size="10.00">CSelectionCriterion</text>
<text text-anchor="middle" x="404" y="-8" font-family="Verdana" font-size="10.00">::toXml</text>
</a>
</g>
<!-- Node2&#45;&gt;Node8 -->
<g id="edge14" class="edge"><title>Node2&#45;&gt;Node8</title>
<path fill="none" stroke="midnightblue" d="M306.003,-31.7278C320.716,-29.5166 335.881,-27.2375 349.754,-25.1526"/>
<polygon fill="midnightblue" stroke="midnightblue" points="305.28,-28.2972 295.911,-33.2446 306.32,-35.2194 305.28,-28.2972"/>
</g>
<!-- Node4 -->
<g id="node7" class="node"><title>Node4</title>
<a xlink:href="classCSelectionCriteriaDefinition.html#a24f1eb22f90ddb42ee971bdfc5f99aa5" target="_top" xlink:title="CSelectionCriteriaDefinition\l::listSelectionCriteria">
<polygon fill="white" stroke="black" points="512.5,-78 512.5,-112 659.5,-112 659.5,-78 512.5,-78"/>
<text text-anchor="start" x="520.5" y="-99" font-family="Verdana" font-size="10.00">CSelectionCriteriaDefinition</text>
<text text-anchor="middle" x="586" y="-86" font-family="Verdana" font-size="10.00">::listSelectionCriteria</text>
</a>
</g>
<!-- Node3&#45;&gt;Node4 -->
<g id="edge6" class="edge"><title>Node3&#45;&gt;Node4</title>
<path fill="none" stroke="midnightblue" d="M485.631,-80.6616C494.516,-81.9308 503.52,-83.2172 512.302,-84.4717"/>
<polygon fill="midnightblue" stroke="midnightblue" points="486.064,-77.188 475.67,-79.2386 485.074,-84.1177 486.064,-77.188"/>
</g>
<!-- Node7 -->
<g id="node13" class="node"><title>Node7</title>
<a xlink:href="classCSelectionCriterion.html#a83e33a27a1094e00154018756c0be2dc" target="_top" xlink:title="From ISelectionCriterionInterface. ">
<polygon fill="white" stroke="black" points="532,-26 532,-60 640,-60 640,-26 532,-26"/>
<text text-anchor="start" x="540" y="-47" font-family="Verdana" font-size="10.00">CSelectionCriterion</text>
<text text-anchor="middle" x="586" y="-34" font-family="Verdana" font-size="10.00">::setCriterionState</text>
</a>
</g>
<!-- Node3&#45;&gt;Node7 -->
<g id="edge12" class="edge"><title>Node3&#45;&gt;Node7</title>
<path fill="none" stroke="midnightblue" d="M485.842,-57.3083C501.43,-55.0814 517.381,-52.8027 531.839,-50.7373"/>
<polygon fill="midnightblue" stroke="midnightblue" points="485.074,-53.8823 475.67,-58.7614 486.064,-60.812 485.074,-53.8823"/>
</g>
<!-- Node5 -->
<g id="node9" class="node"><title>Node5</title>
<a xlink:href="classCSelectionCriteria.html#a25ca6671e46d02c906f512f6b33a44e4" target="_top" xlink:title="CSelectionCriteria\l::listSelectionCriteria">
<polygon fill="white" stroke="black" points="696.5,-78 696.5,-112 811.5,-112 811.5,-78 696.5,-78"/>
<text text-anchor="start" x="704.5" y="-99" font-family="Verdana" font-size="10.00">CSelectionCriteria</text>
<text text-anchor="middle" x="754" y="-86" font-family="Verdana" font-size="10.00">::listSelectionCriteria</text>
</a>
</g>
<!-- Node4&#45;&gt;Node5 -->
<g id="edge8" class="edge"><title>Node4&#45;&gt;Node5</title>
<path fill="none" stroke="midnightblue" d="M669.785,-95C678.749,-95 687.716,-95 696.279,-95"/>
<polygon fill="midnightblue" stroke="midnightblue" points="669.687,-91.5001 659.687,-95 669.687,-98.5001 669.687,-91.5001"/>
</g>
<!-- Node6 -->
<g id="node11" class="node"><title>Node6</title>
<a xlink:href="classCParameterMgr.html#aad4830a40d67cfae091cbf1a15ff29d0" target="_top" xlink:title="Load plugins, structures and settings from the config file given. ">
<polygon fill="white" stroke="black" points="848,-84.5 848,-105.5 966,-105.5 966,-84.5 848,-84.5"/>
<text text-anchor="middle" x="907" y="-92.5" font-family="Verdana" font-size="10.00">CParameterMgr::load</text>
</a>
</g>
<!-- Node5&#45;&gt;Node6 -->
<g id="edge10" class="edge"><title>Node5&#45;&gt;Node6</title>
<path fill="none" stroke="midnightblue" d="M821.889,-95C830.528,-95 839.316,-95 847.803,-95"/>
<polygon fill="midnightblue" stroke="midnightblue" points="821.843,-91.5001 811.843,-95 821.843,-98.5001 821.843,-91.5001"/>
</g>
</g>
</svg>
