<?xml version="1.0" encoding="UTF-8" standalone="no"?>
<!DOCTYPE svg PUBLIC "-//W3C//DTD SVG 1.1//EN"
 "http://www.w3.org/Graphics/SVG/1.1/DTD/svg11.dtd">
<!-- Generated by graphviz version 2.26.3 (20100126.1600)
 -->
<!-- Title: CElement::log_table Pages: 1 -->
<svg width="330pt" height="70pt"
 viewBox="0.00 0.00 330.00 70.00" xmlns="http://www.w3.org/2000/svg" xmlns:xlink="http://www.w3.org/1999/xlink">
<g id="graph1" class="graph" transform="scale(1 1) rotate(0) translate(4 66)">
<title>CElement::log_table</title>
<polygon fill="white" stroke="white" points="-4,5 -4,-66 327,-66 327,5 -4,5"/>
<!-- Node1 -->
<g id="node1" class="node"><title>Node1</title>
<polygon fill="#bfbfbf" stroke="black" points="0.5,-20.5 0.5,-41.5 113.5,-41.5 113.5,-20.5 0.5,-20.5"/>
<text text-anchor="middle" x="57" y="-28.5" font-family="Verdana" font-size="10.00">CElement::log_table</text>
</g>
<!-- Node2 -->
<g id="node3" class="node"><title>Node2</title>
<a xlink:href="classCParameterMgr.html#aad4830a40d67cfae091cbf1a15ff29d0" target="_top" xlink:title="Load plugins, structures and settings from the config file given. ">
<polygon fill="white" stroke="black" points="177,-40.5 177,-61.5 295,-61.5 295,-40.5 177,-40.5"/>
<text text-anchor="middle" x="236" y="-48.5" font-family="Verdana" font-size="10.00">CParameterMgr::load</text>
</a>
</g>
<!-- Node1&#45;&gt;Node2 -->
<g id="edge2" class="edge"><title>Node1&#45;&gt;Node2</title>
<path fill="none" stroke="midnightblue" d="M123.755,-38.4586C141.22,-40.4101 159.923,-42.4997 176.955,-44.4028"/>
<polygon fill="midnightblue" stroke="midnightblue" points="123.964,-34.9603 113.637,-37.3281 123.186,-41.917 123.964,-34.9603"/>
</g>
<!-- Node3 -->
<g id="node5" class="node"><title>Node3</title>
<a xlink:href="classCSystemClass.html#a3264a476e689e33f8c30c6596e3f0d16" target="_top" xlink:title="Load subsystem plugin and fill the corresponding libraries. ">
<polygon fill="white" stroke="black" points="150.5,-0.5 150.5,-21.5 321.5,-21.5 321.5,-0.5 150.5,-0.5"/>
<text text-anchor="middle" x="236" y="-8.5" font-family="Verdana" font-size="10.00">CSystemClass::loadSubsystems</text>
</a>
</g>
<!-- Node1&#45;&gt;Node3 -->
<g id="edge4" class="edge"><title>Node1&#45;&gt;Node3</title>
<path fill="none" stroke="midnightblue" d="M123.673,-23.5505C132.361,-22.5798 141.356,-21.5747 150.301,-20.5753"/>
<polygon fill="midnightblue" stroke="midnightblue" points="123.186,-20.083 113.637,-24.6719 123.964,-27.0397 123.186,-20.083"/>
</g>
</g>
</svg>
