<?xml version="1.0" encoding="UTF-8" standalone="no"?>
<!DOCTYPE svg PUBLIC "-//W3C//DTD SVG 1.1//EN"
 "http://www.w3.org/Graphics/SVG/1.1/DTD/svg11.dtd">
<!-- Generated by graphviz version 2.26.3 (20100126.1600)
 -->
<!-- Title: CSelectionCriteria::createSelectionCriterionType Pages: 1 -->
<svg width="510pt" height="42pt"
 viewBox="0.00 0.00 510.00 42.00" xmlns="http://www.w3.org/2000/svg" xmlns:xlink="http://www.w3.org/1999/xlink">
<g id="graph1" class="graph" transform="scale(1 1) rotate(0) translate(4 38)">
<title>CSelectionCriteria::createSelectionCriterionType</title>
<polygon fill="white" stroke="white" points="-4,5 -4,-38 507,-38 507,5 -4,5"/>
<!-- Node1 -->
<g id="node1" class="node"><title>Node1</title>
<polygon fill="#bfbfbf" stroke="black" points="0.5,-0 0.5,-34 159.5,-34 159.5,-0 0.5,-0"/>
<text text-anchor="start" x="8.5" y="-21" font-family="Verdana" font-size="10.00">CSelectionCriteria</text>
<text text-anchor="middle" x="80" y="-8" font-family="Verdana" font-size="10.00">::createSelectionCriterionType</text>
</g>
<!-- Node2 -->
<g id="node3" class="node"><title>Node2</title>
<a xlink:href="classCSelectionCriterionLibrary.html#a84be6fc12a809170fb6d114285997b1c" target="_top" xlink:title="CSelectionCriterionLibrary\l::createSelectionCriterionType">
<polygon fill="white" stroke="black" points="196.5,-0 196.5,-34 355.5,-34 355.5,-0 196.5,-0"/>
<text text-anchor="start" x="204.5" y="-21" font-family="Verdana" font-size="10.00">CSelectionCriterionLibrary</text>
<text text-anchor="middle" x="276" y="-8" font-family="Verdana" font-size="10.00">::createSelectionCriterionType</text>
</a>
</g>
<!-- Node1&#45;&gt;Node2 -->
<g id="edge2" class="edge"><title>Node1&#45;&gt;Node2</title>
<path fill="none" stroke="midnightblue" d="M159.721,-17C168.405,-17 177.287,-17 186.082,-17"/>
<polygon fill="midnightblue" stroke="midnightblue" points="186.35,-20.5001 196.35,-17 186.35,-13.5001 186.35,-20.5001"/>
</g>
<!-- Node3 -->
<g id="node5" class="node"><title>Node3</title>
<a xlink:href="classCElement.html#ac2ad66ee438a4a0c1390b7388874fe72" target="_top" xlink:title="CElement::addChild">
<polygon fill="white" stroke="black" points="392,-6.5 392,-27.5 502,-27.5 502,-6.5 392,-6.5"/>
<text text-anchor="middle" x="447" y="-14.5" font-family="Verdana" font-size="10.00">CElement::addChild</text>
</a>
</g>
<!-- Node2&#45;&gt;Node3 -->
<g id="edge4" class="edge"><title>Node2&#45;&gt;Node3</title>
<path fill="none" stroke="midnightblue" d="M355.743,-17C364.409,-17 373.154,-17 381.621,-17"/>
<polygon fill="midnightblue" stroke="midnightblue" points="381.786,-20.5001 391.786,-17 381.786,-13.5001 381.786,-20.5001"/>
</g>
</g>
</svg>
