<?xml version="1.0" encoding="UTF-8" standalone="no"?>
<!DOCTYPE svg PUBLIC "-//W3C//DTD SVG 1.1//EN"
 "http://www.w3.org/Graphics/SVG/1.1/DTD/svg11.dtd">
<!-- Generated by graphviz version 2.26.3 (20100126.1600)
 -->
<!-- Title: CStringParameter::getSize Pages: 1 -->
<svg width="352pt" height="122pt"
 viewBox="0.00 0.00 352.00 122.00" xmlns="http://www.w3.org/2000/svg" xmlns:xlink="http://www.w3.org/1999/xlink">
<g id="graph1" class="graph" transform="scale(1 1) rotate(0) translate(4 118)">
<title>CStringParameter::getSize</title>
<polygon fill="white" stroke="white" points="-4,5 -4,-118 349,-118 349,5 -4,5"/>
<!-- Node1 -->
<g id="node1" class="node"><title>Node1</title>
<polygon fill="#bfbfbf" stroke="black" points="0,-40.5 0,-61.5 144,-61.5 144,-40.5 0,-40.5"/>
<text text-anchor="middle" x="72" y="-48.5" font-family="Verdana" font-size="10.00">CStringParameter::getSize</text>
</g>
<!-- Node2 -->
<g id="node3" class="node"><title>Node2</title>
<a xlink:href="classCStringParameter.html#a9cdd05f362999b935a820c544069638e" target="_top" xlink:title="CStringParameter::getFoot\lPrint">
<polygon fill="white" stroke="black" points="189.5,-80 189.5,-114 334.5,-114 334.5,-80 189.5,-80"/>
<text text-anchor="start" x="197.5" y="-101" font-family="Verdana" font-size="10.00">CStringParameter::getFoot</text>
<text text-anchor="middle" x="262" y="-88" font-family="Verdana" font-size="10.00">Print</text>
</a>
</g>
<!-- Node1&#45;&gt;Node2 -->
<g id="edge2" class="edge"><title>Node1&#45;&gt;Node2</title>
<path fill="none" stroke="midnightblue" d="M125.368,-63.9207C145.86,-68.8818 169.573,-74.6228 191.433,-79.9155"/>
<polygon fill="midnightblue" stroke="midnightblue" points="126.133,-60.5048 115.59,-61.5533 124.485,-67.3082 126.133,-60.5048"/>
</g>
<!-- Node3 -->
<g id="node5" class="node"><title>Node3</title>
<a xlink:href="classCStringParameter.html#a6a9db60ee5c1b4c620441d6e0d82bd08" target="_top" xlink:title="CStringParameter::doSetValue">
<polygon fill="white" stroke="black" points="180.5,-40.5 180.5,-61.5 343.5,-61.5 343.5,-40.5 180.5,-40.5"/>
<text text-anchor="middle" x="262" y="-48.5" font-family="Verdana" font-size="10.00">CStringParameter::doSetValue</text>
</a>
</g>
<!-- Node1&#45;&gt;Node3 -->
<g id="edge4" class="edge"><title>Node1&#45;&gt;Node3</title>
<path fill="none" stroke="midnightblue" d="M154.213,-51C162.899,-51 171.73,-51 180.408,-51"/>
<polygon fill="midnightblue" stroke="midnightblue" points="154.102,-47.5001 144.102,-51 154.102,-54.5001 154.102,-47.5001"/>
</g>
<!-- Node4 -->
<g id="node7" class="node"><title>Node4</title>
<a xlink:href="classCStringParameter.html#a4e52ebcdfe2da9b4e9089545d539e9fb" target="_top" xlink:title="CStringParameter::doGetValue">
<polygon fill="white" stroke="black" points="180,-0.5 180,-21.5 344,-21.5 344,-0.5 180,-0.5"/>
<text text-anchor="middle" x="262" y="-8.5" font-family="Verdana" font-size="10.00">CStringParameter::doGetValue</text>
</a>
</g>
<!-- Node1&#45;&gt;Node4 -->
<g id="edge6" class="edge"><title>Node1&#45;&gt;Node4</title>
<path fill="none" stroke="midnightblue" d="M131.955,-38.378C157.738,-32.9499 187.527,-26.6785 212.084,-21.5087"/>
<polygon fill="midnightblue" stroke="midnightblue" points="130.985,-35.0054 121.92,-40.4905 132.427,-41.8552 130.985,-35.0054"/>
</g>
</g>
</svg>
