<?xml version="1.0" encoding="UTF-8" standalone="no"?>
<!DOCTYPE svg PUBLIC "-//W3C//DTD SVG 1.1//EN"
 "http://www.w3.org/Graphics/SVG/1.1/DTD/svg11.dtd">
<!-- Generated by graphviz version 2.26.3 (20100126.1600)
 -->
<!-- Title: CSubsystemObject::toPlainInteger Pages: 1 -->
<svg width="354pt" height="82pt"
 viewBox="0.00 0.00 354.00 82.00" xmlns="http://www.w3.org/2000/svg" xmlns:xlink="http://www.w3.org/1999/xlink">
<g id="graph1" class="graph" transform="scale(1 1) rotate(0) translate(4 78)">
<title>CSubsystemObject::toPlainInteger</title>
<polygon fill="white" stroke="white" points="-4,5 -4,-78 351,-78 351,5 -4,5"/>
<!-- Node1 -->
<g id="node1" class="node"><title>Node1</title>
<polygon fill="#bfbfbf" stroke="black" points="0,-17 0,-51 146,-51 146,-17 0,-17"/>
<text text-anchor="start" x="8" y="-38" font-family="Verdana" font-size="10.00">CSubsystemObject::toPlain</text>
<text text-anchor="middle" x="73" y="-25" font-family="Verdana" font-size="10.00">Integer</text>
</g>
<!-- Node2 -->
<g id="node3" class="node"><title>Node2</title>
<a xlink:href="classCInstanceConfigurableElement.html#ae2d941df411f8ec4c025cbd04d3ba421" target="_top" xlink:title="CInstanceConfigurableElement\l::getTypeElement">
<polygon fill="white" stroke="black" points="182,-40 182,-74 346,-74 346,-40 182,-40"/>
<text text-anchor="start" x="190" y="-61" font-family="Verdana" font-size="10.00">CInstanceConfigurableElement</text>
<text text-anchor="middle" x="264" y="-48" font-family="Verdana" font-size="10.00">::getTypeElement</text>
</a>
</g>
<!-- Node1&#45;&gt;Node2 -->
<g id="edge2" class="edge"><title>Node1&#45;&gt;Node2</title>
<path fill="none" stroke="midnightblue" d="M146.026,-42.7938C154.428,-43.8055 163.076,-44.8469 171.69,-45.8841"/>
<polygon fill="midnightblue" stroke="midnightblue" points="171.422,-49.377 181.768,-47.0978 172.259,-42.4272 171.422,-49.377"/>
</g>
<!-- Node3 -->
<g id="node5" class="node"><title>Node3</title>
<a xlink:href="classCTypeElement.html#a9719eade46d3c80c55d0a269d93a4554" target="_top" xlink:title="Converts size optimized integer input data (int8, int16, int32) to plain int. ">
<polygon fill="white" stroke="black" points="186,-0.5 186,-21.5 342,-21.5 342,-0.5 186,-0.5"/>
<text text-anchor="middle" x="264" y="-8.5" font-family="Verdana" font-size="10.00">CTypeElement::toPlainInteger</text>
</a>
</g>
<!-- Node1&#45;&gt;Node3 -->
<g id="edge4" class="edge"><title>Node1&#45;&gt;Node3</title>
<path fill="none" stroke="midnightblue" d="M146.026,-25.2062C155.821,-24.0268 165.949,-22.8072 175.967,-21.6008"/>
<polygon fill="midnightblue" stroke="midnightblue" points="176.422,-25.0714 185.932,-20.4009 175.585,-18.1216 176.422,-25.0714"/>
</g>
</g>
</svg>
