<?xml version="1.0" encoding="UTF-8" standalone="no"?>
<!DOCTYPE svg PUBLIC "-//W3C//DTD SVG 1.1//EN"
 "http://www.w3.org/Graphics/SVG/1.1/DTD/svg11.dtd">
<!-- Generated by graphviz version 2.26.3 (20100126.1600)
 -->
<!-- Title: CAreaConfiguration::validate Pages: 1 -->
<svg width="424pt" height="42pt"
 viewBox="0.00 0.00 424.00 42.00" xmlns="http://www.w3.org/2000/svg" xmlns:xlink="http://www.w3.org/1999/xlink">
<g id="graph1" class="graph" transform="scale(1 1) rotate(0) translate(4 38)">
<title>CAreaConfiguration::validate</title>
<polygon fill="white" stroke="white" points="-4,5 -4,-38 421,-38 421,5 -4,5"/>
<!-- Node1 -->
<g id="node1" class="node"><title>Node1</title>
<polygon fill="#bfbfbf" stroke="black" points="0,-0 0,-34 110,-34 110,-0 0,-0"/>
<text text-anchor="start" x="8" y="-21" font-family="Verdana" font-size="10.00">CAreaConfiguration</text>
<text text-anchor="middle" x="55" y="-8" font-family="Verdana" font-size="10.00">::validate</text>
</g>
<!-- Node2 -->
<g id="node3" class="node"><title>Node2</title>
<a xlink:href="classCAreaConfiguration.html#a0ab61255d58c402f059aceb6668b943d" target="_top" xlink:title="CAreaConfiguration\l::save">
<polygon fill="white" stroke="black" points="146,-0 146,-34 256,-34 256,-0 146,-0"/>
<text text-anchor="start" x="154" y="-21" font-family="Verdana" font-size="10.00">CAreaConfiguration</text>
<text text-anchor="middle" x="201" y="-8" font-family="Verdana" font-size="10.00">::save</text>
</a>
</g>
<!-- Node1&#45;&gt;Node2 -->
<g id="edge2" class="edge"><title>Node1&#45;&gt;Node2</title>
<path fill="none" stroke="midnightblue" d="M110.196,-17C118.463,-17 127.055,-17 135.51,-17"/>
<polygon fill="midnightblue" stroke="midnightblue" points="135.726,-20.5001 145.726,-17 135.726,-13.5001 135.726,-20.5001"/>
</g>
<!-- Node3 -->
<g id="node5" class="node"><title>Node3</title>
<a xlink:href="classCConfigurableElement.html#a29d61e6d09ff508ebb87aea802f2704e" target="_top" xlink:title="CConfigurableElement\l::getOffset">
<polygon fill="white" stroke="black" points="292.5,-0 292.5,-34 415.5,-34 415.5,-0 292.5,-0"/>
<text text-anchor="start" x="300.5" y="-21" font-family="Verdana" font-size="10.00">CConfigurableElement</text>
<text text-anchor="middle" x="354" y="-8" font-family="Verdana" font-size="10.00">::getOffset</text>
</a>
</g>
<!-- Node2&#45;&gt;Node3 -->
<g id="edge4" class="edge"><title>Node2&#45;&gt;Node3</title>
<path fill="none" stroke="midnightblue" d="M256.237,-17C264.665,-17 273.468,-17 282.189,-17"/>
<polygon fill="midnightblue" stroke="midnightblue" points="282.362,-20.5001 292.362,-17 282.362,-13.5001 282.362,-20.5001"/>
</g>
</g>
</svg>
