<?xml version="1.0" encoding="UTF-8" standalone="no"?>
<!DOCTYPE svg PUBLIC "-//W3C//DTD SVG 1.1//EN"
 "http://www.w3.org/Graphics/SVG/1.1/DTD/svg11.dtd">
<!-- Generated by graphviz version 2.26.3 (20100126.1600)
 -->
<!-- Title: CSystemClass::cleanSubsystemsNeedToResync Pages: 1 -->
<svg width="360pt" height="110pt"
 viewBox="0.00 0.00 360.00 110.00" xmlns="http://www.w3.org/2000/svg" xmlns:xlink="http://www.w3.org/1999/xlink">
<g id="graph1" class="graph" transform="scale(1 1) rotate(0) translate(4 106)">
<title>CSystemClass::cleanSubsystemsNeedToResync</title>
<polygon fill="white" stroke="white" points="-4,5 -4,-106 357,-106 357,5 -4,5"/>
<!-- Node1 -->
<g id="node1" class="node"><title>Node1</title>
<polygon fill="#bfbfbf" stroke="black" points="0,-34 0,-68 176,-68 176,-34 0,-34"/>
<text text-anchor="start" x="8" y="-55" font-family="Verdana" font-size="10.00">CSystemClass::cleanSubsystems</text>
<text text-anchor="middle" x="88" y="-42" font-family="Verdana" font-size="10.00">NeedToResync</text>
</g>
<!-- Node2 -->
<g id="node3" class="node"><title>Node2</title>
<a xlink:href="classCElement.html#a25f58d9d8b35e770806d669fb2a378e4" target="_top" xlink:title="CElement::getNbChildren">
<polygon fill="white" stroke="black" points="213.5,-80.5 213.5,-101.5 350.5,-101.5 350.5,-80.5 213.5,-80.5"/>
<text text-anchor="middle" x="282" y="-88.5" font-family="Verdana" font-size="10.00">CElement::getNbChildren</text>
</a>
</g>
<!-- Node1&#45;&gt;Node2 -->
<g id="edge2" class="edge"><title>Node1&#45;&gt;Node2</title>
<path fill="none" stroke="midnightblue" d="M170.555,-68.0216C187.39,-71.4927 204.818,-75.0863 220.751,-78.3714"/>
<polygon fill="midnightblue" stroke="midnightblue" points="220.483,-81.8896 230.984,-80.4812 221.897,-75.0338 220.483,-81.8896"/>
</g>
<!-- Node3 -->
<g id="node5" class="node"><title>Node3</title>
<a xlink:href="classCElement.html#a41bf126c3fdbb5bec0c2c3dcf35e9079" target="_top" xlink:title="CElement::getChild">
<polygon fill="white" stroke="black" points="228,-40.5 228,-61.5 336,-61.5 336,-40.5 228,-40.5"/>
<text text-anchor="middle" x="282" y="-48.5" font-family="Verdana" font-size="10.00">CElement::getChild</text>
</a>
</g>
<!-- Node1&#45;&gt;Node3 -->
<g id="edge4" class="edge"><title>Node1&#45;&gt;Node3</title>
<path fill="none" stroke="midnightblue" d="M176.201,-51C190.239,-51 204.525,-51 217.87,-51"/>
<polygon fill="midnightblue" stroke="midnightblue" points="217.872,-54.5001 227.872,-51 217.872,-47.5001 217.872,-54.5001"/>
</g>
<!-- Node4 -->
<g id="node7" class="node"><title>Node4</title>
<a xlink:href="classCSubsystem.html#a4cb6e87e55f40b52408e42285e504be4" target="_top" xlink:title="CSubsystem::needResync">
<polygon fill="white" stroke="black" points="212,-0.5 212,-21.5 352,-21.5 352,-0.5 212,-0.5"/>
<text text-anchor="middle" x="282" y="-8.5" font-family="Verdana" font-size="10.00">CSubsystem::needResync</text>
</a>
</g>
<!-- Node1&#45;&gt;Node4 -->
<g id="edge6" class="edge"><title>Node1&#45;&gt;Node4</title>
<path fill="none" stroke="midnightblue" d="M170.555,-33.9784C187.39,-30.5073 204.818,-26.9137 220.751,-23.6286"/>
<polygon fill="midnightblue" stroke="midnightblue" points="221.897,-26.9662 230.984,-21.5188 220.483,-20.1104 221.897,-26.9662"/>
</g>
</g>
</svg>
