<?xml version="1.0" encoding="UTF-8" standalone="no"?>
<!DOCTYPE svg PUBLIC "-//W3C//DTD SVG 1.1//EN"
 "http://www.w3.org/Graphics/SVG/1.1/DTD/svg11.dtd">
<!-- Generated by graphviz version 2.26.3 (20100126.1600)
 -->
<!-- Title: CSelectionCriterionType::listPossibleValues Pages: 1 -->
<svg width="808pt" height="94pt"
 viewBox="0.00 0.00 808.00 94.00" xmlns="http://www.w3.org/2000/svg" xmlns:xlink="http://www.w3.org/1999/xlink">
<g id="graph1" class="graph" transform="scale(1 1) rotate(0) translate(4 90)">
<title>CSelectionCriterionType::listPossibleValues</title>
<polygon fill="white" stroke="white" points="-4,5 -4,-90 805,-90 805,5 -4,5"/>
<!-- Node1 -->
<g id="node1" class="node"><title>Node1</title>
<polygon fill="#bfbfbf" stroke="black" points="0.5,-26 0.5,-60 129.5,-60 129.5,-26 0.5,-26"/>
<text text-anchor="start" x="8.5" y="-47" font-family="Verdana" font-size="10.00">CSelectionCriterionType</text>
<text text-anchor="middle" x="65" y="-34" font-family="Verdana" font-size="10.00">::listPossibleValues</text>
</g>
<!-- Node2 -->
<g id="node3" class="node"><title>Node2</title>
<a xlink:href="classCSelectionCriterion.html#a10a460a1ee7b1a38b34ab8eb90ea74f9" target="_top" xlink:title="User request. ">
<polygon fill="white" stroke="black" points="166.5,-26 166.5,-60 309.5,-60 309.5,-26 166.5,-26"/>
<text text-anchor="start" x="174.5" y="-47" font-family="Verdana" font-size="10.00">CSelectionCriterion</text>
<text text-anchor="middle" x="238" y="-34" font-family="Verdana" font-size="10.00">::getFormattedDescription</text>
</a>
</g>
<!-- Node1&#45;&gt;Node2 -->
<g id="edge2" class="edge"><title>Node1&#45;&gt;Node2</title>
<path fill="none" stroke="midnightblue" d="M140.058,-43C148.783,-43 157.665,-43 166.342,-43"/>
<polygon fill="midnightblue" stroke="midnightblue" points="139.911,-39.5001 129.911,-43 139.911,-46.5001 139.911,-39.5001"/>
</g>
<!-- Node3 -->
<g id="node5" class="node"><title>Node3</title>
<a xlink:href="classCSelectionCriteriaDefinition.html#a24f1eb22f90ddb42ee971bdfc5f99aa5" target="_top" xlink:title="CSelectionCriteriaDefinition\l::listSelectionCriteria">
<polygon fill="white" stroke="black" points="346.5,-52 346.5,-86 493.5,-86 493.5,-52 346.5,-52"/>
<text text-anchor="start" x="354.5" y="-73" font-family="Verdana" font-size="10.00">CSelectionCriteriaDefinition</text>
<text text-anchor="middle" x="420" y="-60" font-family="Verdana" font-size="10.00">::listSelectionCriteria</text>
</a>
</g>
<!-- Node2&#45;&gt;Node3 -->
<g id="edge4" class="edge"><title>Node2&#45;&gt;Node3</title>
<path fill="none" stroke="midnightblue" d="M319.631,-54.6616C328.516,-55.9308 337.52,-57.2172 346.302,-58.4717"/>
<polygon fill="midnightblue" stroke="midnightblue" points="320.064,-51.188 309.67,-53.2386 319.074,-58.1177 320.064,-51.188"/>
</g>
<!-- Node6 -->
<g id="node11" class="node"><title>Node6</title>
<a xlink:href="classCSelectionCriterion.html#a83e33a27a1094e00154018756c0be2dc" target="_top" xlink:title="From ISelectionCriterionInterface. ">
<polygon fill="white" stroke="black" points="366,-0 366,-34 474,-34 474,-0 366,-0"/>
<text text-anchor="start" x="374" y="-21" font-family="Verdana" font-size="10.00">CSelectionCriterion</text>
<text text-anchor="middle" x="420" y="-8" font-family="Verdana" font-size="10.00">::setCriterionState</text>
</a>
</g>
<!-- Node2&#45;&gt;Node6 -->
<g id="edge10" class="edge"><title>Node2&#45;&gt;Node6</title>
<path fill="none" stroke="midnightblue" d="M319.842,-31.3083C335.43,-29.0814 351.381,-26.8027 365.839,-24.7373"/>
<polygon fill="midnightblue" stroke="midnightblue" points="319.074,-27.8823 309.67,-32.7614 320.064,-34.812 319.074,-27.8823"/>
</g>
<!-- Node4 -->
<g id="node7" class="node"><title>Node4</title>
<a xlink:href="classCSelectionCriteria.html#a25ca6671e46d02c906f512f6b33a44e4" target="_top" xlink:title="CSelectionCriteria\l::listSelectionCriteria">
<polygon fill="white" stroke="black" points="530.5,-52 530.5,-86 645.5,-86 645.5,-52 530.5,-52"/>
<text text-anchor="start" x="538.5" y="-73" font-family="Verdana" font-size="10.00">CSelectionCriteria</text>
<text text-anchor="middle" x="588" y="-60" font-family="Verdana" font-size="10.00">::listSelectionCriteria</text>
</a>
</g>
<!-- Node3&#45;&gt;Node4 -->
<g id="edge6" class="edge"><title>Node3&#45;&gt;Node4</title>
<path fill="none" stroke="midnightblue" d="M503.785,-69C512.749,-69 521.716,-69 530.279,-69"/>
<polygon fill="midnightblue" stroke="midnightblue" points="503.687,-65.5001 493.687,-69 503.687,-72.5001 503.687,-65.5001"/>
</g>
<!-- Node5 -->
<g id="node9" class="node"><title>Node5</title>
<a xlink:href="classCParameterMgr.html#aad4830a40d67cfae091cbf1a15ff29d0" target="_top" xlink:title="Load plugins, structures and settings from the config file given. ">
<polygon fill="white" stroke="black" points="682,-58.5 682,-79.5 800,-79.5 800,-58.5 682,-58.5"/>
<text text-anchor="middle" x="741" y="-66.5" font-family="Verdana" font-size="10.00">CParameterMgr::load</text>
</a>
</g>
<!-- Node4&#45;&gt;Node5 -->
<g id="edge8" class="edge"><title>Node4&#45;&gt;Node5</title>
<path fill="none" stroke="midnightblue" d="M655.889,-69C664.528,-69 673.316,-69 681.803,-69"/>
<polygon fill="midnightblue" stroke="midnightblue" points="655.843,-65.5001 645.843,-69 655.843,-72.5001 655.843,-65.5001"/>
</g>
</g>
</svg>
