<?xml version="1.0" encoding="UTF-8" standalone="no"?>
<!DOCTYPE svg PUBLIC "-//W3C//DTD SVG 1.1//EN"
 "http://www.w3.org/Graphics/SVG/1.1/DTD/svg11.dtd">
<!-- Generated by graphviz version 2.26.3 (20100126.1600)
 -->
<!-- Title: CDomainConfiguration::isApplicable Pages: 1 -->
<svg width="488pt" height="110pt"
 viewBox="0.00 0.00 488.00 110.00" xmlns="http://www.w3.org/2000/svg" xmlns:xlink="http://www.w3.org/1999/xlink">
<g id="graph1" class="graph" transform="scale(1 1) rotate(0) translate(4 106)">
<title>CDomainConfiguration::isApplicable</title>
<polygon fill="white" stroke="white" points="-4,5 -4,-106 485,-106 485,5 -4,5"/>
<!-- Node1 -->
<g id="node1" class="node"><title>Node1</title>
<polygon fill="#bfbfbf" stroke="black" points="0.5,-34 0.5,-68 125.5,-68 125.5,-34 0.5,-34"/>
<text text-anchor="start" x="8.5" y="-55" font-family="Verdana" font-size="10.00">CDomainConfiguration</text>
<text text-anchor="middle" x="63" y="-42" font-family="Verdana" font-size="10.00">::isApplicable</text>
</g>
<!-- Node2 -->
<g id="node3" class="node"><title>Node2</title>
<a xlink:href="classCCompoundRule.html#a92c9b3e8a2c0b240af3bf85e4b2630d8" target="_top" xlink:title="CCompoundRule::matches">
<polygon fill="white" stroke="black" points="162.5,-40.5 162.5,-61.5 305.5,-61.5 305.5,-40.5 162.5,-40.5"/>
<text text-anchor="middle" x="234" y="-48.5" font-family="Verdana" font-size="10.00">CCompoundRule::matches</text>
</a>
</g>
<!-- Node1&#45;&gt;Node2 -->
<g id="edge2" class="edge"><title>Node1&#45;&gt;Node2</title>
<path fill="none" stroke="midnightblue" d="M125.703,-51C134.36,-51 143.353,-51 152.291,-51"/>
<polygon fill="midnightblue" stroke="midnightblue" points="152.338,-54.5001 162.338,-51 152.338,-47.5001 152.338,-54.5001"/>
</g>
<!-- Node3 -->
<g id="node5" class="node"><title>Node3</title>
<a xlink:href="classCElement.html#a25f58d9d8b35e770806d669fb2a378e4" target="_top" xlink:title="CElement::getNbChildren">
<polygon fill="white" stroke="black" points="342.5,-80.5 342.5,-101.5 479.5,-101.5 479.5,-80.5 342.5,-80.5"/>
<text text-anchor="middle" x="411" y="-88.5" font-family="Verdana" font-size="10.00">CElement::getNbChildren</text>
</a>
</g>
<!-- Node2&#45;&gt;Node3 -->
<g id="edge4" class="edge"><title>Node2&#45;&gt;Node3</title>
<path fill="none" stroke="midnightblue" d="M280.505,-61.5095C303.179,-66.6337 330.642,-72.8399 354.513,-78.2345"/>
<polygon fill="midnightblue" stroke="midnightblue" points="353.973,-81.7008 364.499,-80.4913 355.516,-74.873 353.973,-81.7008"/>
</g>
<!-- Node4 -->
<g id="node7" class="node"><title>Node4</title>
<a xlink:href="classCElement.html#a41bf126c3fdbb5bec0c2c3dcf35e9079" target="_top" xlink:title="CElement::getChild">
<polygon fill="white" stroke="black" points="357,-40.5 357,-61.5 465,-61.5 465,-40.5 357,-40.5"/>
<text text-anchor="middle" x="411" y="-48.5" font-family="Verdana" font-size="10.00">CElement::getChild</text>
</a>
</g>
<!-- Node2&#45;&gt;Node4 -->
<g id="edge6" class="edge"><title>Node2&#45;&gt;Node4</title>
<path fill="none" stroke="midnightblue" d="M305.738,-51C319.33,-51 333.47,-51 346.811,-51"/>
<polygon fill="midnightblue" stroke="midnightblue" points="346.835,-54.5001 356.835,-51 346.835,-47.5001 346.835,-54.5001"/>
</g>
<!-- Node5 -->
<g id="node9" class="node"><title>Node5</title>
<a xlink:href="classCRule.html#aaeeed8a6ca4a3e87ee75282df22fa01a" target="_top" xlink:title="CRule::matches">
<polygon fill="white" stroke="black" points="365.5,-0.5 365.5,-21.5 456.5,-21.5 456.5,-0.5 365.5,-0.5"/>
<text text-anchor="middle" x="411" y="-8.5" font-family="Verdana" font-size="10.00">CRule::matches</text>
</a>
</g>
<!-- Node2&#45;&gt;Node5 -->
<g id="edge8" class="edge"><title>Node2&#45;&gt;Node5</title>
<path fill="none" stroke="midnightblue" d="M280.505,-40.4905C303.448,-35.3055 331.294,-29.0127 355.36,-23.5739"/>
<polygon fill="midnightblue" stroke="midnightblue" points="356.436,-26.9193 365.418,-21.301 354.893,-20.0915 356.436,-26.9193"/>
</g>
</g>
</svg>
