<?xml version="1.0" encoding="UTF-8" standalone="no"?>
<!DOCTYPE svg PUBLIC "-//W3C//DTD SVG 1.1//EN"
 "http://www.w3.org/Graphics/SVG/1.1/DTD/svg11.dtd">
<!-- Generated by graphviz version 2.26.3 (20100126.1600)
 -->
<!-- Title: CParameterMgr::deleteDomain Pages: 1 -->
<svg width="656pt" height="42pt"
 viewBox="0.00 0.00 656.00 42.00" xmlns="http://www.w3.org/2000/svg" xmlns:xlink="http://www.w3.org/1999/xlink">
<g id="graph1" class="graph" transform="scale(1 1) rotate(0) translate(4 38)">
<title>CParameterMgr::deleteDomain</title>
<polygon fill="white" stroke="white" points="-4,5 -4,-38 653,-38 653,5 -4,5"/>
<!-- Node1 -->
<g id="node1" class="node"><title>Node1</title>
<polygon fill="#bfbfbf" stroke="black" points="0.5,-6.5 0.5,-27.5 165.5,-27.5 165.5,-6.5 0.5,-6.5"/>
<text text-anchor="middle" x="83" y="-14.5" font-family="Verdana" font-size="10.00">CParameterMgr::deleteDomain</text>
</g>
<!-- Node2 -->
<g id="node3" class="node"><title>Node2</title>
<a xlink:href="classCConfigurableDomains.html#a26ae82c8fd65751062ea4fcffa69944f" target="_top" xlink:title="Delete a domain by name. ">
<polygon fill="white" stroke="black" points="202,-0 202,-34 328,-34 328,-0 202,-0"/>
<text text-anchor="start" x="210" y="-21" font-family="Verdana" font-size="10.00">CConfigurableDomains</text>
<text text-anchor="middle" x="265" y="-8" font-family="Verdana" font-size="10.00">::deleteDomain</text>
</a>
</g>
<!-- Node1&#45;&gt;Node2 -->
<g id="edge2" class="edge"><title>Node1&#45;&gt;Node2</title>
<path fill="none" stroke="midnightblue" d="M165.745,-17C174.357,-17 183.069,-17 191.567,-17"/>
<polygon fill="midnightblue" stroke="midnightblue" points="191.808,-20.5001 201.808,-17 191.808,-13.5001 191.808,-20.5001"/>
</g>
<!-- Node3 -->
<g id="node5" class="node"><title>Node3</title>
<a xlink:href="classCConfigurableDomains.html#a4dce38a1560b6e33871d3fa2d85cc449" target="_top" xlink:title="CConfigurableDomains\l::findConfigurableDomain">
<polygon fill="white" stroke="black" points="364.5,-0 364.5,-34 501.5,-34 501.5,-0 364.5,-0"/>
<text text-anchor="start" x="372.5" y="-21" font-family="Verdana" font-size="10.00">CConfigurableDomains</text>
<text text-anchor="middle" x="433" y="-8" font-family="Verdana" font-size="10.00">::findConfigurableDomain</text>
</a>
</g>
<!-- Node2&#45;&gt;Node3 -->
<g id="edge4" class="edge"><title>Node2&#45;&gt;Node3</title>
<path fill="none" stroke="midnightblue" d="M328.035,-17C336.534,-17 345.339,-17 354.07,-17"/>
<polygon fill="midnightblue" stroke="midnightblue" points="354.264,-20.5001 364.264,-17 354.264,-13.5001 354.264,-20.5001"/>
</g>
<!-- Node4 -->
<g id="node7" class="node"><title>Node4</title>
<a xlink:href="classCElement.html#a8595814a3159f32f874269907e70b260" target="_top" xlink:title="CElement::findChild">
<polygon fill="white" stroke="black" points="538,-6.5 538,-27.5 648,-27.5 648,-6.5 538,-6.5"/>
<text text-anchor="middle" x="593" y="-14.5" font-family="Verdana" font-size="10.00">CElement::findChild</text>
</a>
</g>
<!-- Node3&#45;&gt;Node4 -->
<g id="edge6" class="edge"><title>Node3&#45;&gt;Node4</title>
<path fill="none" stroke="midnightblue" d="M501.783,-17C510.334,-17 519.058,-17 527.557,-17"/>
<polygon fill="midnightblue" stroke="midnightblue" points="527.783,-20.5001 537.783,-17 527.783,-13.5001 527.783,-20.5001"/>
</g>
</g>
</svg>
