<?xml version="1.0" encoding="UTF-8" standalone="no"?>
<!DOCTYPE svg PUBLIC "-//W3C//DTD SVG 1.1//EN"
 "http://www.w3.org/Graphics/SVG/1.1/DTD/svg11.dtd">
<!-- Generated by graphviz version 2.26.3 (20100126.1600)
 -->
<!-- Title: CParameter::handleValueSpaceAttribute Pages: 1 -->
<svg width="356pt" height="94pt"
 viewBox="0.00 0.00 356.00 94.00" xmlns="http://www.w3.org/2000/svg" xmlns:xlink="http://www.w3.org/1999/xlink">
<g id="graph1" class="graph" transform="scale(1 1) rotate(0) translate(4 90)">
<title>CParameter::handleValueSpaceAttribute</title>
<polygon fill="white" stroke="white" points="-4,5 -4,-90 353,-90 353,5 -4,5"/>
<!-- Node1 -->
<g id="node1" class="node"><title>Node1</title>
<polygon fill="#bfbfbf" stroke="black" points="0,-26 0,-60 168,-60 168,-26 0,-26"/>
<text text-anchor="start" x="8" y="-47" font-family="Verdana" font-size="10.00">CParameter::handleValueSpace</text>
<text text-anchor="middle" x="84" y="-34" font-family="Verdana" font-size="10.00">Attribute</text>
</g>
<!-- Node2 -->
<g id="node3" class="node"><title>Node2</title>
<a xlink:href="classCArrayParameter.html#a192ed81d047795b1823cab20337ad283" target="_top" xlink:title="CArrayParameter::serialize\lXmlSettings">
<polygon fill="white" stroke="black" points="204,-52 204,-86 348,-86 348,-52 204,-52"/>
<text text-anchor="start" x="212" y="-73" font-family="Verdana" font-size="10.00">CArrayParameter::serialize</text>
<text text-anchor="middle" x="276" y="-60" font-family="Verdana" font-size="10.00">XmlSettings</text>
</a>
</g>
<!-- Node1&#45;&gt;Node2 -->
<g id="edge2" class="edge"><title>Node1&#45;&gt;Node2</title>
<path fill="none" stroke="midnightblue" d="M178.287,-55.7681C186.889,-56.9329 195.51,-58.1003 203.872,-59.2327"/>
<polygon fill="midnightblue" stroke="midnightblue" points="178.593,-52.2776 168.214,-54.404 177.654,-59.2143 178.593,-52.2776"/>
</g>
<!-- Node3 -->
<g id="node5" class="node"><title>Node3</title>
<a xlink:href="classCParameter.html#a74e2c5c9292fcd85c6a78181ab865cfe" target="_top" xlink:title="CParameter::serializeXml\lSettings">
<polygon fill="white" stroke="black" points="207.5,-0 207.5,-34 344.5,-34 344.5,-0 207.5,-0"/>
<text text-anchor="start" x="215.5" y="-21" font-family="Verdana" font-size="10.00">CParameter::serializeXml</text>
<text text-anchor="middle" x="276" y="-8" font-family="Verdana" font-size="10.00">Settings</text>
</a>
</g>
<!-- Node1&#45;&gt;Node3 -->
<g id="edge4" class="edge"><title>Node1&#45;&gt;Node3</title>
<path fill="none" stroke="midnightblue" d="M178.387,-30.2184C188.173,-28.8932 197.982,-27.565 207.406,-26.2888"/>
<polygon fill="midnightblue" stroke="midnightblue" points="177.654,-26.7857 168.214,-31.596 178.593,-33.7224 177.654,-26.7857"/>
</g>
</g>
</svg>
