<?xml version="1.0" encoding="UTF-8" standalone="no"?>
<!DOCTYPE svg PUBLIC "-//W3C//DTD SVG 1.1//EN"
 "http://www.w3.org/Graphics/SVG/1.1/DTD/svg11.dtd">
<!-- Generated by graphviz version 2.26.3 (20100126.1600)
 -->
<!-- Title: CParameterMgr::renameConfiguration Pages: 1 -->
<svg width="864pt" height="228pt"
 viewBox="0.00 0.00 864.00 228.00" xmlns="http://www.w3.org/2000/svg" xmlns:xlink="http://www.w3.org/1999/xlink">
<g id="graph1" class="graph" transform="scale(1 1) rotate(0) translate(4 224)">
<title>CParameterMgr::renameConfiguration</title>
<polygon fill="white" stroke="white" points="-4,5 -4,-224 861,-224 861,5 -4,5"/>
<!-- Node1 -->
<g id="node1" class="node"><title>Node1</title>
<polygon fill="#bfbfbf" stroke="black" points="0.5,-158.5 0.5,-179.5 199.5,-179.5 199.5,-158.5 0.5,-158.5"/>
<text text-anchor="middle" x="100" y="-166.5" font-family="Verdana" font-size="10.00">CParameterMgr::renameConfiguration</text>
</g>
<!-- Node2 -->
<g id="node3" class="node"><title>Node2</title>
<a xlink:href="classCConfigurableDomains.html#a052bfda8fb27ff5a1eeb0a53444031e8" target="_top" xlink:title="CConfigurableDomains\l::renameConfiguration">
<polygon fill="white" stroke="black" points="236,-152 236,-186 362,-186 362,-152 236,-152"/>
<text text-anchor="start" x="244" y="-173" font-family="Verdana" font-size="10.00">CConfigurableDomains</text>
<text text-anchor="middle" x="299" y="-160" font-family="Verdana" font-size="10.00">::renameConfiguration</text>
</a>
</g>
<!-- Node1&#45;&gt;Node2 -->
<g id="edge2" class="edge"><title>Node1&#45;&gt;Node2</title>
<path fill="none" stroke="midnightblue" d="M199.792,-169C208.548,-169 217.301,-169 225.779,-169"/>
<polygon fill="midnightblue" stroke="midnightblue" points="225.967,-172.5 235.967,-169 225.967,-165.5 225.967,-172.5"/>
</g>
<!-- Node3 -->
<g id="node5" class="node"><title>Node3</title>
<a xlink:href="classCConfigurableDomains.html#a4dce38a1560b6e33871d3fa2d85cc449" target="_top" xlink:title="CConfigurableDomains\l::findConfigurableDomain">
<polygon fill="white" stroke="black" points="398.5,-185 398.5,-219 535.5,-219 535.5,-185 398.5,-185"/>
<text text-anchor="start" x="406.5" y="-206" font-family="Verdana" font-size="10.00">CConfigurableDomains</text>
<text text-anchor="middle" x="467" y="-193" font-family="Verdana" font-size="10.00">::findConfigurableDomain</text>
</a>
</g>
<!-- Node2&#45;&gt;Node3 -->
<g id="edge4" class="edge"><title>Node2&#45;&gt;Node3</title>
<path fill="none" stroke="midnightblue" d="M362.035,-181.382C370.626,-183.069 379.53,-184.818 388.355,-186.552"/>
<polygon fill="midnightblue" stroke="midnightblue" points="387.777,-190.005 398.264,-188.498 389.126,-183.136 387.777,-190.005"/>
</g>
<!-- Node5 -->
<g id="node9" class="node"><title>Node5</title>
<a xlink:href="classCConfigurableDomain.html#a647386b073c9dd776f9cd9dcb24088a7" target="_top" xlink:title="CConfigurableDomain\l::renameConfiguration">
<polygon fill="white" stroke="black" points="405,-120 405,-154 529,-154 529,-120 405,-120"/>
<text text-anchor="start" x="413" y="-141" font-family="Verdana" font-size="10.00">CConfigurableDomain</text>
<text text-anchor="middle" x="467" y="-128" font-family="Verdana" font-size="10.00">::renameConfiguration</text>
</a>
</g>
<!-- Node2&#45;&gt;Node5 -->
<g id="edge8" class="edge"><title>Node2&#45;&gt;Node5</title>
<path fill="none" stroke="midnightblue" d="M362.035,-156.993C372.728,-154.957 383.905,-152.828 394.811,-150.75"/>
<polygon fill="midnightblue" stroke="midnightblue" points="395.56,-154.171 404.728,-148.861 394.25,-147.294 395.56,-154.171"/>
</g>
<!-- Node4 -->
<g id="node7" class="node"><title>Node4</title>
<a xlink:href="classCElement.html#a8595814a3159f32f874269907e70b260" target="_top" xlink:title="CElement::findChild">
<polygon fill="white" stroke="black" points="572,-198.5 572,-219.5 682,-219.5 682,-198.5 572,-198.5"/>
<text text-anchor="middle" x="627" y="-206.5" font-family="Verdana" font-size="10.00">CElement::findChild</text>
</a>
</g>
<!-- Node3&#45;&gt;Node4 -->
<g id="edge6" class="edge"><title>Node3&#45;&gt;Node4</title>
<path fill="none" stroke="midnightblue" d="M535.783,-205.009C544.334,-205.383 553.058,-205.765 561.557,-206.137"/>
<polygon fill="midnightblue" stroke="midnightblue" points="561.64,-209.644 571.783,-206.584 561.946,-202.65 561.64,-209.644"/>
</g>
<!-- Node6 -->
<g id="node11" class="node"><title>Node6</title>
<a xlink:href="classCElement.html#aaa4df1b13a53263f8cc2b668172873d9" target="_top" xlink:title="CElement::log_info">
<polygon fill="white" stroke="black" points="574,-158.5 574,-179.5 680,-179.5 680,-158.5 574,-158.5"/>
<text text-anchor="middle" x="627" y="-166.5" font-family="Verdana" font-size="10.00">CElement::log_info</text>
</a>
</g>
<!-- Node5&#45;&gt;Node6 -->
<g id="edge10" class="edge"><title>Node5&#45;&gt;Node6</title>
<path fill="none" stroke="midnightblue" d="M529.318,-149.464C540.855,-151.771 552.909,-154.182 564.453,-156.491"/>
<polygon fill="midnightblue" stroke="midnightblue" points="563.948,-159.959 574.44,-158.488 565.321,-153.095 563.948,-159.959"/>
</g>
<!-- Node7 -->
<g id="node13" class="node"><title>Node7</title>
<a xlink:href="classCElement.html#a49581fb6412e29e932962acd82d52d6a" target="_top" xlink:title="CElement::getName">
<polygon fill="white" stroke="black" points="730,-120.5 730,-141.5 844,-141.5 844,-120.5 730,-120.5"/>
<text text-anchor="middle" x="787" y="-128.5" font-family="Verdana" font-size="10.00">CElement::getName</text>
</a>
</g>
<!-- Node5&#45;&gt;Node7 -->
<g id="edge12" class="edge"><title>Node5&#45;&gt;Node7</title>
<path fill="none" stroke="midnightblue" d="M529.079,-135.836C583.832,-134.809 663.444,-133.317 719.706,-132.262"/>
<polygon fill="midnightblue" stroke="midnightblue" points="719.996,-135.757 729.929,-132.07 719.865,-128.758 719.996,-135.757"/>
</g>
<!-- Node8 -->
<g id="node15" class="node"><title>Node8</title>
<a xlink:href="classCElement.html#aa09118f89e5b3208ee92d0ec51151ccf" target="_top" xlink:title="CElement::rename">
<polygon fill="white" stroke="black" points="573.5,-80.5 573.5,-101.5 680.5,-101.5 680.5,-80.5 573.5,-80.5"/>
<text text-anchor="middle" x="627" y="-88.5" font-family="Verdana" font-size="10.00">CElement::rename</text>
</a>
</g>
<!-- Node5&#45;&gt;Node8 -->
<g id="edge14" class="edge"><title>Node5&#45;&gt;Node8</title>
<path fill="none" stroke="midnightblue" d="M526.578,-119.871C544.403,-114.747 563.678,-109.205 580.53,-104.36"/>
<polygon fill="midnightblue" stroke="midnightblue" points="581.499,-107.724 590.142,-101.597 579.564,-100.996 581.499,-107.724"/>
</g>
<!-- Node8&#45;&gt;Node7 -->
<g id="edge20" class="edge"><title>Node8&#45;&gt;Node7</title>
<path fill="none" stroke="midnightblue" d="M669.038,-101.51C689.26,-106.565 713.696,-112.674 735.069,-118.017"/>
<polygon fill="midnightblue" stroke="midnightblue" points="734.415,-121.461 744.965,-120.491 736.113,-114.67 734.415,-121.461"/>
</g>
<!-- Node9 -->
<g id="node17" class="node"><title>Node9</title>
<a xlink:href="classCElement.html#a25f58d9d8b35e770806d669fb2a378e4" target="_top" xlink:title="CElement::getNbChildren">
<polygon fill="white" stroke="black" points="718.5,-80.5 718.5,-101.5 855.5,-101.5 855.5,-80.5 718.5,-80.5"/>
<text text-anchor="middle" x="787" y="-88.5" font-family="Verdana" font-size="10.00">CElement::getNbChildren</text>
</a>
</g>
<!-- Node8&#45;&gt;Node9 -->
<g id="edge16" class="edge"><title>Node8&#45;&gt;Node9</title>
<path fill="none" stroke="midnightblue" d="M680.723,-91C689.59,-91 698.941,-91 708.27,-91"/>
<polygon fill="midnightblue" stroke="midnightblue" points="708.36,-94.5001 718.359,-91 708.359,-87.5001 708.36,-94.5001"/>
</g>
<!-- Node10 -->
<g id="node19" class="node"><title>Node10</title>
<a xlink:href="classCElement.html#a41bf126c3fdbb5bec0c2c3dcf35e9079" target="_top" xlink:title="CElement::getChild">
<polygon fill="white" stroke="black" points="733,-40.5 733,-61.5 841,-61.5 841,-40.5 733,-40.5"/>
<text text-anchor="middle" x="787" y="-48.5" font-family="Verdana" font-size="10.00">CElement::getChild</text>
</a>
</g>
<!-- Node8&#45;&gt;Node10 -->
<g id="edge18" class="edge"><title>Node8&#45;&gt;Node10</title>
<path fill="none" stroke="midnightblue" d="M669.038,-80.4905C689.26,-75.4349 713.696,-69.3261 735.069,-63.9827"/>
<polygon fill="midnightblue" stroke="midnightblue" points="736.113,-67.3296 744.965,-61.5087 734.415,-60.5386 736.113,-67.3296"/>
</g>
<!-- Node11 -->
<g id="node22" class="node"><title>Node11</title>
<a xlink:href="classCElement.html#a9018d33125b066d6cd791659af95c6fe" target="_top" xlink:title="CElement::setName">
<polygon fill="white" stroke="black" points="730.5,-0.5 730.5,-21.5 843.5,-21.5 843.5,-0.5 730.5,-0.5"/>
<text text-anchor="middle" x="787" y="-8.5" font-family="Verdana" font-size="10.00">CElement::setName</text>
</a>
</g>
<!-- Node8&#45;&gt;Node11 -->
<g id="edge22" class="edge"><title>Node8&#45;&gt;Node11</title>
<path fill="none" stroke="midnightblue" d="M640.121,-80.4959C657.169,-67.2989 688.277,-44.7224 718,-31 722.954,-28.7128 728.23,-26.6233 733.573,-24.7306"/>
<polygon fill="midnightblue" stroke="midnightblue" points="734.818,-28.0053 743.209,-21.5362 732.615,-21.3609 734.818,-28.0053"/>
</g>
</g>
</svg>
