<?xml version="1.0" encoding="UTF-8" standalone="no"?>
<!DOCTYPE svg PUBLIC "-//W3C//DTD SVG 1.1//EN"
 "http://www.w3.org/Graphics/SVG/1.1/DTD/svg11.dtd">
<!-- Generated by graphviz version 2.26.3 (20100126.1600)
 -->
<!-- Title: CConfigurableDomains::restoreConfiguration Pages: 1 -->
<svg width="892pt" height="201pt"
 viewBox="0.00 0.00 892.00 201.00" xmlns="http://www.w3.org/2000/svg" xmlns:xlink="http://www.w3.org/1999/xlink">
<g id="graph1" class="graph" transform="scale(1 1) rotate(0) translate(4 197)">
<title>CConfigurableDomains::restoreConfiguration</title>
<polygon fill="white" stroke="white" points="-4,5 -4,-197 889,-197 889,5 -4,5"/>
<!-- Node1 -->
<g id="node1" class="node"><title>Node1</title>
<polygon fill="#bfbfbf" stroke="black" points="0,-118 0,-152 126,-152 126,-118 0,-118"/>
<text text-anchor="start" x="8" y="-139" font-family="Verdana" font-size="10.00">CConfigurableDomains</text>
<text text-anchor="middle" x="63" y="-126" font-family="Verdana" font-size="10.00">::restoreConfiguration</text>
</g>
<!-- Node2 -->
<g id="node3" class="node"><title>Node2</title>
<a xlink:href="classCConfigurableDomains.html#a4dce38a1560b6e33871d3fa2d85cc449" target="_top" xlink:title="CConfigurableDomains\l::findConfigurableDomain">
<polygon fill="white" stroke="black" points="162.5,-151 162.5,-185 299.5,-185 299.5,-151 162.5,-151"/>
<text text-anchor="start" x="170.5" y="-172" font-family="Verdana" font-size="10.00">CConfigurableDomains</text>
<text text-anchor="middle" x="231" y="-159" font-family="Verdana" font-size="10.00">::findConfigurableDomain</text>
</a>
</g>
<!-- Node1&#45;&gt;Node2 -->
<g id="edge2" class="edge"><title>Node1&#45;&gt;Node2</title>
<path fill="none" stroke="midnightblue" d="M126.035,-147.382C134.626,-149.069 143.53,-150.818 152.355,-152.552"/>
<polygon fill="midnightblue" stroke="midnightblue" points="151.777,-156.005 162.264,-154.498 153.126,-149.136 151.777,-156.005"/>
</g>
<!-- Node4 -->
<g id="node7" class="node"><title>Node4</title>
<a xlink:href="classCConfigurableDomain.html#aa9e776e80956f8cc956b77213aae96ec" target="_top" xlink:title="CConfigurableDomain\l::restoreConfiguration">
<polygon fill="white" stroke="black" points="170.5,-85 170.5,-119 291.5,-119 291.5,-85 170.5,-85"/>
<text text-anchor="start" x="178.5" y="-106" font-family="Verdana" font-size="10.00">CConfigurableDomain</text>
<text text-anchor="middle" x="231" y="-93" font-family="Verdana" font-size="10.00">::restoreConfiguration</text>
</a>
</g>
<!-- Node1&#45;&gt;Node4 -->
<g id="edge6" class="edge"><title>Node1&#45;&gt;Node4</title>
<path fill="none" stroke="midnightblue" d="M126.035,-122.618C137.269,-120.411 149.037,-118.1 160.464,-115.855"/>
<polygon fill="midnightblue" stroke="midnightblue" points="161.259,-119.266 170.396,-113.904 159.909,-112.397 161.259,-119.266"/>
</g>
<!-- Node3 -->
<g id="node5" class="node"><title>Node3</title>
<a xlink:href="classCElement.html#a8595814a3159f32f874269907e70b260" target="_top" xlink:title="CElement::findChild">
<polygon fill="white" stroke="black" points="344,-171.5 344,-192.5 454,-192.5 454,-171.5 344,-171.5"/>
<text text-anchor="middle" x="399" y="-179.5" font-family="Verdana" font-size="10.00">CElement::findChild</text>
</a>
</g>
<!-- Node2&#45;&gt;Node3 -->
<g id="edge4" class="edge"><title>Node2&#45;&gt;Node3</title>
<path fill="none" stroke="midnightblue" d="M299.817,-173.735C311.056,-174.671 322.67,-175.639 333.819,-176.568"/>
<polygon fill="midnightblue" stroke="midnightblue" points="333.645,-180.066 343.901,-177.408 334.227,-173.09 333.645,-180.066"/>
</g>
<!-- Node5 -->
<g id="node9" class="node"><title>Node5</title>
<a xlink:href="classCElement.html#aaa4df1b13a53263f8cc2b668172873d9" target="_top" xlink:title="CElement::log_info">
<polygon fill="white" stroke="black" points="346,-131.5 346,-152.5 452,-152.5 452,-131.5 346,-131.5"/>
<text text-anchor="middle" x="399" y="-139.5" font-family="Verdana" font-size="10.00">CElement::log_info</text>
</a>
</g>
<!-- Node4&#45;&gt;Node5 -->
<g id="edge8" class="edge"><title>Node4&#45;&gt;Node5</title>
<path fill="none" stroke="midnightblue" d="M291.652,-116.441C309.094,-120.594 327.995,-125.094 345.006,-129.144"/>
<polygon fill="midnightblue" stroke="midnightblue" points="344.239,-132.559 354.778,-131.471 345.86,-125.75 344.239,-132.559"/>
</g>
<!-- Node6 -->
<g id="node11" class="node"><title>Node6</title>
<a xlink:href="classCElement.html#a49581fb6412e29e932962acd82d52d6a" target="_top" xlink:title="CElement::getName">
<polygon fill="white" stroke="black" points="342,-91.5 342,-112.5 456,-112.5 456,-91.5 342,-91.5"/>
<text text-anchor="middle" x="399" y="-99.5" font-family="Verdana" font-size="10.00">CElement::getName</text>
</a>
</g>
<!-- Node4&#45;&gt;Node6 -->
<g id="edge10" class="edge"><title>Node4&#45;&gt;Node6</title>
<path fill="none" stroke="midnightblue" d="M291.652,-102C304.684,-102 318.53,-102 331.794,-102"/>
<polygon fill="midnightblue" stroke="midnightblue" points="331.801,-105.5 341.8,-102 331.8,-98.5001 331.801,-105.5"/>
</g>
<!-- Node7 -->
<g id="node13" class="node"><title>Node7</title>
<a xlink:href="classCDomainConfiguration.html#a1e837621d00a5ed2282c525c25a484e7" target="_top" xlink:title="CDomainConfiguration\l::restore">
<polygon fill="white" stroke="black" points="336.5,-39 336.5,-73 461.5,-73 461.5,-39 336.5,-39"/>
<text text-anchor="start" x="344.5" y="-60" font-family="Verdana" font-size="10.00">CDomainConfiguration</text>
<text text-anchor="middle" x="399" y="-47" font-family="Verdana" font-size="10.00">::restore</text>
</a>
</g>
<!-- Node4&#45;&gt;Node7 -->
<g id="edge12" class="edge"><title>Node4&#45;&gt;Node7</title>
<path fill="none" stroke="midnightblue" d="M291.652,-85.3929C303.107,-82.2565 315.191,-78.9478 326.955,-75.7266"/>
<polygon fill="midnightblue" stroke="midnightblue" points="328.021,-79.0637 336.741,-73.047 326.172,-72.3122 328.021,-79.0637"/>
</g>
<!-- Node10 -->
<g id="node19" class="node"><title>Node10</title>
<a xlink:href="classCSyncerSet.html#a6ee2b3a5edcccc64b8694df736312e4b" target="_top" xlink:title="CSyncerSet::sync">
<polygon fill="white" stroke="black" points="655.5,-0.5 655.5,-21.5 756.5,-21.5 756.5,-0.5 655.5,-0.5"/>
<text text-anchor="middle" x="706" y="-8.5" font-family="Verdana" font-size="10.00">CSyncerSet::sync</text>
</a>
</g>
<!-- Node4&#45;&gt;Node10 -->
<g id="edge22" class="edge"><title>Node4&#45;&gt;Node10</title>
<path fill="none" stroke="midnightblue" d="M248.991,-84.9684C268.635,-67.5776 301.872,-41.5448 336,-30 440.164,5.23585 570.213,1.88349 645.121,-4.23207"/>
<polygon fill="midnightblue" stroke="midnightblue" points="645.053,-7.73908 655.316,-5.10962 645.653,-0.764867 645.053,-7.73908"/>
</g>
<!-- Node8 -->
<g id="node15" class="node"><title>Node8</title>
<a xlink:href="classCAreaConfiguration.html#a5f72a0349e2309a77459650ba10918a1" target="_top" xlink:title="CAreaConfiguration\l::restore">
<polygon fill="white" stroke="black" points="498,-39 498,-73 608,-73 608,-39 498,-39"/>
<text text-anchor="start" x="506" y="-60" font-family="Verdana" font-size="10.00">CAreaConfiguration</text>
<text text-anchor="middle" x="553" y="-47" font-family="Verdana" font-size="10.00">::restore</text>
</a>
</g>
<!-- Node7&#45;&gt;Node8 -->
<g id="edge14" class="edge"><title>Node7&#45;&gt;Node8</title>
<path fill="none" stroke="midnightblue" d="M461.638,-56C470.256,-56 479.124,-56 487.788,-56"/>
<polygon fill="midnightblue" stroke="midnightblue" points="487.837,-59.5001 497.837,-56 487.837,-52.5001 487.837,-59.5001"/>
</g>
<!-- Node9 -->
<g id="node17" class="node"><title>Node9</title>
<a xlink:href="classCConfigurableElement.html#a29d61e6d09ff508ebb87aea802f2704e" target="_top" xlink:title="CConfigurableElement\l::getOffset">
<polygon fill="white" stroke="black" points="644.5,-40 644.5,-74 767.5,-74 767.5,-40 644.5,-40"/>
<text text-anchor="start" x="652.5" y="-61" font-family="Verdana" font-size="10.00">CConfigurableElement</text>
<text text-anchor="middle" x="706" y="-48" font-family="Verdana" font-size="10.00">::getOffset</text>
</a>
</g>
<!-- Node8&#45;&gt;Node9 -->
<g id="edge16" class="edge"><title>Node8&#45;&gt;Node9</title>
<path fill="none" stroke="midnightblue" d="M608.237,-56.361C616.665,-56.4161 625.468,-56.4736 634.189,-56.5306"/>
<polygon fill="midnightblue" stroke="midnightblue" points="634.339,-60.0316 644.362,-56.5971 634.385,-53.0318 634.339,-60.0316"/>
</g>
<!-- Node8&#45;&gt;Node10 -->
<g id="edge18" class="edge"><title>Node8&#45;&gt;Node10</title>
<path fill="none" stroke="midnightblue" d="M608.237,-39.754C625.249,-34.7504 643.785,-29.2986 660.098,-24.5005"/>
<polygon fill="midnightblue" stroke="midnightblue" points="661.329,-27.7869 669.935,-21.6074 659.354,-21.0713 661.329,-27.7869"/>
</g>
<!-- Node11 -->
<g id="node21" class="node"><title>Node11</title>
<a xlink:href="classISyncer.html#a16844aac52fb0caf4aed4f68d4b038d9" target="_top" xlink:title="ISyncer::sync">
<polygon fill="white" stroke="black" points="804,-0.5 804,-21.5 884,-21.5 884,-0.5 804,-0.5"/>
<text text-anchor="middle" x="844" y="-8.5" font-family="Verdana" font-size="10.00">ISyncer::sync</text>
</a>
</g>
<!-- Node10&#45;&gt;Node11 -->
<g id="edge20" class="edge"><title>Node10&#45;&gt;Node11</title>
<path fill="none" stroke="midnightblue" d="M756.603,-11C768.621,-11 781.442,-11 793.458,-11"/>
<polygon fill="midnightblue" stroke="midnightblue" points="793.769,-14.5001 803.769,-11 793.769,-7.5001 793.769,-14.5001"/>
</g>
</g>
</svg>
