<?xml version="1.0" encoding="UTF-8" standalone="no"?>
<!DOCTYPE svg PUBLIC "-//W3C//DTD SVG 1.1//EN"
 "http://www.w3.org/Graphics/SVG/1.1/DTD/svg11.dtd">
<!-- Generated by graphviz version 2.26.3 (20100126.1600)
 -->
<!-- Title: CElement::findAscendantOfKind Pages: 1 -->
<svg width="318pt" height="48pt"
 viewBox="0.00 0.00 318.00 48.00" xmlns="http://www.w3.org/2000/svg" xmlns:xlink="http://www.w3.org/1999/xlink">
<g id="graph1" class="graph" transform="scale(1 1) rotate(0) translate(4 44)">
<title>CElement::findAscendantOfKind</title>
<polygon fill="white" stroke="white" points="-4,5 -4,-44 315,-44 315,5 -4,5"/>
<!-- Node1 -->
<g id="node1" class="node"><title>Node1</title>
<polygon fill="#bfbfbf" stroke="black" points="0,-0.5 0,-21.5 168,-21.5 168,-0.5 0,-0.5"/>
<text text-anchor="middle" x="84" y="-8.5" font-family="Verdana" font-size="10.00">CElement::findAscendantOfKind</text>
</g>
<!-- Node1&#45;&gt;Node1 -->
<g id="edge4" class="edge"><title>Node1&#45;&gt;Node1</title>
<path fill="none" stroke="midnightblue" d="M56.671,-21.7079C44.9919,-30.6531 54.1016,-40 84,-40 103.621,-40 114.289,-35.9746 116.004,-30.6791"/>
<polygon fill="midnightblue" stroke="midnightblue" points="119.054,-28.9588 111.329,-21.7079 112.846,-32.1935 119.054,-28.9588"/>
</g>
<!-- Node2 -->
<g id="node3" class="node"><title>Node2</title>
<a xlink:href="classCElement.html#aed2ca7f2a56dbf2edcd82167859535ee" target="_top" xlink:title="CElement::getKind">
<polygon fill="white" stroke="black" points="204.5,-0.5 204.5,-21.5 309.5,-21.5 309.5,-0.5 204.5,-0.5"/>
<text text-anchor="middle" x="257" y="-8.5" font-family="Verdana" font-size="10.00">CElement::getKind</text>
</a>
</g>
<!-- Node1&#45;&gt;Node2 -->
<g id="edge2" class="edge"><title>Node1&#45;&gt;Node2</title>
<path fill="none" stroke="midnightblue" d="M168.219,-11C176.894,-11 185.6,-11 193.987,-11"/>
<polygon fill="midnightblue" stroke="midnightblue" points="194.036,-14.5001 204.036,-11 194.036,-7.5001 194.036,-14.5001"/>
</g>
</g>
</svg>
