<?xml version="1.0" encoding="UTF-8" standalone="no"?>
<!DOCTYPE svg PUBLIC "-//W3C//DTD SVG 1.1//EN"
 "http://www.w3.org/Graphics/SVG/1.1/DTD/svg11.dtd">
<!-- Generated by graphviz version 2.26.3 (20100126.1600)
 -->
<!-- Title: CConfigurableDomain::restoreConfiguration Pages: 1 -->
<svg width="524pt" height="42pt"
 viewBox="0.00 0.00 524.00 42.00" xmlns="http://www.w3.org/2000/svg" xmlns:xlink="http://www.w3.org/1999/xlink">
<g id="graph1" class="graph" transform="scale(1 1) rotate(0) translate(4 38)">
<title>CConfigurableDomain::restoreConfiguration</title>
<polygon fill="white" stroke="white" points="-4,5 -4,-38 521,-38 521,5 -4,5"/>
<!-- Node1 -->
<g id="node1" class="node"><title>Node1</title>
<polygon fill="#bfbfbf" stroke="black" points="0.5,-0 0.5,-34 121.5,-34 121.5,-0 0.5,-0"/>
<text text-anchor="start" x="8.5" y="-21" font-family="Verdana" font-size="10.00">CConfigurableDomain</text>
<text text-anchor="middle" x="61" y="-8" font-family="Verdana" font-size="10.00">::restoreConfiguration</text>
</g>
<!-- Node2 -->
<g id="node3" class="node"><title>Node2</title>
<a xlink:href="classCConfigurableDomains.html#a9fa62075b2521f79af18240367662cc7" target="_top" xlink:title="CConfigurableDomains\l::restoreConfiguration">
<polygon fill="white" stroke="black" points="158,-0 158,-34 284,-34 284,-0 158,-0"/>
<text text-anchor="start" x="166" y="-21" font-family="Verdana" font-size="10.00">CConfigurableDomains</text>
<text text-anchor="middle" x="221" y="-8" font-family="Verdana" font-size="10.00">::restoreConfiguration</text>
</a>
</g>
<!-- Node1&#45;&gt;Node2 -->
<g id="edge2" class="edge"><title>Node1&#45;&gt;Node2</title>
<path fill="none" stroke="midnightblue" d="M131.97,-17C140.585,-17 149.341,-17 157.833,-17"/>
<polygon fill="midnightblue" stroke="midnightblue" points="131.946,-13.5001 121.946,-17 131.946,-20.5001 131.946,-13.5001"/>
</g>
<!-- Node3 -->
<g id="node5" class="node"><title>Node3</title>
<a xlink:href="classCParameterMgr.html#a04786772b59275eef5f1af23dc9a639d" target="_top" xlink:title="CParameterMgr::restoreConfiguration">
<polygon fill="white" stroke="black" points="320,-6.5 320,-27.5 516,-27.5 516,-6.5 320,-6.5"/>
<text text-anchor="middle" x="418" y="-14.5" font-family="Verdana" font-size="10.00">CParameterMgr::restoreConfiguration</text>
</a>
</g>
<!-- Node2&#45;&gt;Node3 -->
<g id="edge4" class="edge"><title>Node2&#45;&gt;Node3</title>
<path fill="none" stroke="midnightblue" d="M294.166,-17C302.501,-17 311.097,-17 319.69,-17"/>
<polygon fill="midnightblue" stroke="midnightblue" points="294.145,-13.5001 284.145,-17 294.145,-20.5001 294.145,-13.5001"/>
</g>
</g>
</svg>
