<?xml version="1.0" encoding="UTF-8" standalone="no"?>
<!DOCTYPE svg PUBLIC "-//W3C//DTD SVG 1.1//EN"
 "http://www.w3.org/Graphics/SVG/1.1/DTD/svg11.dtd">
<!-- Generated by graphviz version 2.26.3 (20100126.1600)
 -->
<!-- Title: CAnswerMessage::getAnswer Pages: 1 -->
<svg width="424pt" height="30pt"
 viewBox="0.00 0.00 424.00 30.00" xmlns="http://www.w3.org/2000/svg" xmlns:xlink="http://www.w3.org/1999/xlink">
<g id="graph1" class="graph" transform="scale(1 1) rotate(0) translate(4 26)">
<title>CAnswerMessage::getAnswer</title>
<polygon fill="white" stroke="white" points="-4,5 -4,-26 421,-26 421,5 -4,5"/>
<!-- Node1 -->
<g id="node1" class="node"><title>Node1</title>
<polygon fill="#bfbfbf" stroke="black" points="0.5,-0.5 0.5,-21.5 157.5,-21.5 157.5,-0.5 0.5,-0.5"/>
<text text-anchor="middle" x="79" y="-8.5" font-family="Verdana" font-size="10.00">CAnswerMessage::getAnswer</text>
</g>
<!-- Node2 -->
<g id="node3" class="node"><title>Node2</title>
<a xlink:href="main_8cpp.html#af14c089a76390ab8b7424bb69fad6352" target="_top" xlink:title="sendAndDisplayCommand">
<polygon fill="white" stroke="black" points="194.5,-0.5 194.5,-21.5 337.5,-21.5 337.5,-0.5 194.5,-0.5"/>
<text text-anchor="middle" x="266" y="-8.5" font-family="Verdana" font-size="10.00">sendAndDisplayCommand</text>
</a>
</g>
<!-- Node1&#45;&gt;Node2 -->
<g id="edge2" class="edge"><title>Node1&#45;&gt;Node2</title>
<path fill="none" stroke="midnightblue" d="M167.812,-11C176.749,-11 185.743,-11 194.467,-11"/>
<polygon fill="midnightblue" stroke="midnightblue" points="167.763,-7.5001 157.763,-11 167.763,-14.5001 167.763,-7.5001"/>
</g>
<!-- Node3 -->
<g id="node5" class="node"><title>Node3</title>
<a xlink:href="main_8cpp.html#a0ddf1224851353fc92bfbff6f499fa97" target="_top" xlink:title="main">
<polygon fill="white" stroke="black" points="374.5,-0.5 374.5,-21.5 415.5,-21.5 415.5,-0.5 374.5,-0.5"/>
<text text-anchor="middle" x="395" y="-8.5" font-family="Verdana" font-size="10.00">main</text>
</a>
</g>
<!-- Node2&#45;&gt;Node3 -->
<g id="edge4" class="edge"><title>Node2&#45;&gt;Node3</title>
<path fill="none" stroke="midnightblue" d="M347.949,-11C357.656,-11 366.792,-11 374.386,-11"/>
<polygon fill="midnightblue" stroke="midnightblue" points="347.668,-7.5001 337.667,-11 347.667,-14.5001 347.668,-7.5001"/>
</g>
</g>
</svg>
