<?xml version="1.0" encoding="UTF-8" standalone="no"?>
<!DOCTYPE svg PUBLIC "-//W3C//DTD SVG 1.1//EN"
 "http://www.w3.org/Graphics/SVG/1.1/DTD/svg11.dtd">
<!-- Generated by graphviz version 2.26.3 (20100126.1600)
 -->
<!-- Title: CElement::findChildOfKind Pages: 1 -->
<svg width="608pt" height="54pt"
 viewBox="0.00 0.00 608.00 54.00" xmlns="http://www.w3.org/2000/svg" xmlns:xlink="http://www.w3.org/1999/xlink">
<g id="graph1" class="graph" transform="scale(1 1) rotate(0) translate(4 50)">
<title>CElement::findChildOfKind</title>
<polygon fill="white" stroke="white" points="-4,5 -4,-50 605,-50 605,5 -4,5"/>
<!-- Node1 -->
<g id="node1" class="node"><title>Node1</title>
<polygon fill="#bfbfbf" stroke="black" points="0,-6.5 0,-27.5 140,-27.5 140,-6.5 0,-6.5"/>
<text text-anchor="middle" x="70" y="-14.5" font-family="Verdana" font-size="10.00">CElement::findChildOfKind</text>
</g>
<!-- Node2 -->
<g id="node3" class="node"><title>Node2</title>
<a xlink:href="classCElement.html#a1978d50e2db432e7b8f0928f33d3f01a" target="_top" xlink:title="CElement::fromXml">
<polygon fill="white" stroke="black" points="176,-6.5 176,-27.5 286,-27.5 286,-6.5 176,-6.5"/>
<text text-anchor="middle" x="231" y="-14.5" font-family="Verdana" font-size="10.00">CElement::fromXml</text>
</a>
</g>
<!-- Node1&#45;&gt;Node2 -->
<g id="edge2" class="edge"><title>Node1&#45;&gt;Node2</title>
<path fill="none" stroke="midnightblue" d="M150.207,-17C158.797,-17 167.392,-17 175.6,-17"/>
<polygon fill="midnightblue" stroke="midnightblue" points="150.149,-13.5001 140.149,-17 150.149,-20.5001 150.149,-13.5001"/>
</g>
<!-- Node2&#45;&gt;Node2 -->
<g id="edge8" class="edge"><title>Node2&#45;&gt;Node2</title>
<path fill="none" stroke="midnightblue" d="M203.21,-37.0551C205.033,-42.164 214.296,-46 231,-46 257.074,-46 265.019,-36.6531 254.833,-27.7079"/>
<polygon fill="midnightblue" stroke="midnightblue" points="206.492,-38.2812 207.167,-27.7079 200.045,-35.5525 206.492,-38.2812"/>
</g>
<!-- Node3 -->
<g id="node5" class="node"><title>Node3</title>
<a xlink:href="classCComponentLibrary.html#ad4cc928cda43371fb31f20394e8e04e5" target="_top" xlink:title="CComponentLibrary::\lfromXml">
<polygon fill="white" stroke="black" points="322.5,-0 322.5,-34 439.5,-34 439.5,-0 322.5,-0"/>
<text text-anchor="start" x="330.5" y="-21" font-family="Verdana" font-size="10.00">CComponentLibrary::</text>
<text text-anchor="middle" x="381" y="-8" font-family="Verdana" font-size="10.00">fromXml</text>
</a>
</g>
<!-- Node2&#45;&gt;Node3 -->
<g id="edge4" class="edge"><title>Node2&#45;&gt;Node3</title>
<path fill="none" stroke="midnightblue" d="M296.163,-17C304.913,-17 313.846,-17 322.472,-17"/>
<polygon fill="midnightblue" stroke="midnightblue" points="296.003,-13.5001 286.003,-17 296.003,-20.5001 296.003,-13.5001"/>
</g>
<!-- Node4 -->
<g id="node7" class="node"><title>Node4</title>
<a xlink:href="classCSubsystem.html#aa114a31f4aa4b0f47b3c616b721854d4" target="_top" xlink:title="CSubsystem::fromXml">
<polygon fill="white" stroke="black" points="476,-6.5 476,-27.5 600,-27.5 600,-6.5 476,-6.5"/>
<text text-anchor="middle" x="538" y="-14.5" font-family="Verdana" font-size="10.00">CSubsystem::fromXml</text>
</a>
</g>
<!-- Node3&#45;&gt;Node4 -->
<g id="edge6" class="edge"><title>Node3&#45;&gt;Node4</title>
<path fill="none" stroke="midnightblue" d="M449.942,-17C458.572,-17 467.359,-17 475.876,-17"/>
<polygon fill="midnightblue" stroke="midnightblue" points="449.908,-13.5001 439.908,-17 449.908,-20.5001 449.908,-13.5001"/>
</g>
</g>
</svg>
