<?xml version="1.0" encoding="UTF-8" standalone="no"?>
<!DOCTYPE svg PUBLIC "-//W3C//DTD SVG 1.1//EN"
 "http://www.w3.org/Graphics/SVG/1.1/DTD/svg11.dtd">
<!-- Generated by graphviz version 2.26.3 (20100126.1600)
 -->
<!-- Title: CListeningSocket::accept Pages: 1 -->
<svg width="284pt" height="70pt"
 viewBox="0.00 0.00 284.00 70.00" xmlns="http://www.w3.org/2000/svg" xmlns:xlink="http://www.w3.org/1999/xlink">
<g id="graph1" class="graph" transform="scale(1 1) rotate(0) translate(4 66)">
<title>CListeningSocket::accept</title>
<polygon fill="white" stroke="white" points="-4,5 -4,-66 281,-66 281,5 -4,5"/>
<!-- Node1 -->
<g id="node1" class="node"><title>Node1</title>
<polygon fill="#bfbfbf" stroke="black" points="0.5,-20.5 0.5,-41.5 137.5,-41.5 137.5,-20.5 0.5,-20.5"/>
<text text-anchor="middle" x="69" y="-28.5" font-family="Verdana" font-size="10.00">CListeningSocket::accept</text>
</g>
<!-- Node2 -->
<g id="node3" class="node"><title>Node2</title>
<a xlink:href="classCSocket.html#aa925e6f828f6084610bb19c80709ff0a" target="_top" xlink:title="CSocket::getFd">
<polygon fill="white" stroke="black" points="180.5,-40.5 180.5,-61.5 269.5,-61.5 269.5,-40.5 180.5,-40.5"/>
<text text-anchor="middle" x="225" y="-48.5" font-family="Verdana" font-size="10.00">CSocket::getFd</text>
</a>
</g>
<!-- Node1&#45;&gt;Node2 -->
<g id="edge2" class="edge"><title>Node1&#45;&gt;Node2</title>
<path fill="none" stroke="midnightblue" d="M137.878,-39.8305C148.652,-41.2118 159.661,-42.6233 170.069,-43.9575"/>
<polygon fill="midnightblue" stroke="midnightblue" points="169.881,-47.462 180.244,-45.2621 170.771,-40.5188 169.881,-47.462"/>
</g>
<!-- Node3 -->
<g id="node5" class="node"><title>Node3</title>
<a xlink:href="classCSocket.html#a3f5f8efaa44309a1991e72b985a49a33" target="_top" xlink:title="CSocket::CSocket">
<polygon fill="white" stroke="black" points="174,-0.5 174,-21.5 276,-21.5 276,-0.5 174,-0.5"/>
<text text-anchor="middle" x="225" y="-8.5" font-family="Verdana" font-size="10.00">CSocket::CSocket</text>
</a>
</g>
<!-- Node1&#45;&gt;Node3 -->
<g id="edge4" class="edge"><title>Node1&#45;&gt;Node3</title>
<path fill="none" stroke="midnightblue" d="M137.878,-22.1695C146.466,-21.0684 155.204,-19.9482 163.667,-18.8632"/>
<polygon fill="midnightblue" stroke="midnightblue" points="164.352,-22.3042 173.825,-17.5609 163.461,-15.361 164.352,-22.3042"/>
</g>
</g>
</svg>
