<?xml version="1.0" encoding="UTF-8" standalone="no"?>
<!DOCTYPE svg PUBLIC "-//W3C//DTD SVG 1.1//EN"
 "http://www.w3.org/Graphics/SVG/1.1/DTD/svg11.dtd">
<!-- Generated by graphviz version 2.26.3 (20100126.1600)
 -->
<!-- Title: CXmlDomainSerializingContext Pages: 1 -->
<svg width="320pt" height="204pt"
 viewBox="0.00 0.00 320.00 204.00" xmlns="http://www.w3.org/2000/svg" xmlns:xlink="http://www.w3.org/1999/xlink">
<g id="graph1" class="graph" transform="scale(1 1) rotate(0) translate(4 200)">
<title>CXmlDomainSerializingContext</title>
<polygon fill="white" stroke="white" points="-4,5 -4,-200 317,-200 317,5 -4,5"/>
<!-- Node1 -->
<g id="node1" class="node"><title>Node1</title>
<polygon fill="#bfbfbf" stroke="black" points="72.5,-58.5 72.5,-79.5 237.5,-79.5 237.5,-58.5 72.5,-58.5"/>
<text text-anchor="middle" x="155" y="-66.5" font-family="Verdana" font-size="10.00">CXmlDomainSerializingContext</text>
</g>
<!-- Node4 -->
<g id="node7" class="node"><title>Node4</title>
<a xlink:href="classCXmlDomainExportContext.html" target="_top" xlink:title="CXmlDomainExportContext">
<polygon fill="white" stroke="black" points="-0.5,-0.5 -0.5,-21.5 146.5,-21.5 146.5,-0.5 -0.5,-0.5"/>
<text text-anchor="middle" x="73" y="-8.5" font-family="Verdana" font-size="10.00">CXmlDomainExportContext</text>
</a>
</g>
<!-- Node1&#45;&gt;Node4 -->
<g id="edge6" class="edge"><title>Node1&#45;&gt;Node4</title>
<path fill="none" stroke="midnightblue" d="M131.73,-52.5407C117.672,-42.5973 100.17,-30.2177 87.9447,-21.5707"/>
<polygon fill="midnightblue" stroke="midnightblue" points="129.775,-55.4447 139.96,-58.3619 133.817,-49.7298 129.775,-55.4447"/>
</g>
<!-- Node5 -->
<g id="node9" class="node"><title>Node5</title>
<a xlink:href="classCXmlDomainImportContext.html" target="_top" xlink:title="CXmlDomainImportContext">
<polygon fill="white" stroke="black" points="164,-0.5 164,-21.5 312,-21.5 312,-0.5 164,-0.5"/>
<text text-anchor="middle" x="238" y="-8.5" font-family="Verdana" font-size="10.00">CXmlDomainImportContext</text>
</a>
</g>
<!-- Node1&#45;&gt;Node5 -->
<g id="edge8" class="edge"><title>Node1&#45;&gt;Node5</title>
<path fill="none" stroke="midnightblue" d="M178.554,-52.5407C192.783,-42.5973 210.499,-30.2177 222.873,-21.5707"/>
<polygon fill="midnightblue" stroke="midnightblue" points="176.416,-49.7649 170.223,-58.3619 180.425,-55.5028 176.416,-49.7649"/>
</g>
<!-- Node2 -->
<g id="node2" class="node"><title>Node2</title>
<a xlink:href="classCXmlElementSerializingContext.html" target="_top" xlink:title="CXmlElementSerializingContext">
<polygon fill="white" stroke="black" points="71.5,-116.5 71.5,-137.5 238.5,-137.5 238.5,-116.5 71.5,-116.5"/>
<text text-anchor="middle" x="155" y="-124.5" font-family="Verdana" font-size="10.00">CXmlElementSerializingContext</text>
</a>
</g>
<!-- Node2&#45;&gt;Node1 -->
<g id="edge2" class="edge"><title>Node2&#45;&gt;Node1</title>
<path fill="none" stroke="midnightblue" d="M155,-106.191C155,-97.1684 155,-86.9941 155,-79.5707"/>
<polygon fill="midnightblue" stroke="midnightblue" points="151.5,-106.362 155,-116.362 158.5,-106.362 151.5,-106.362"/>
</g>
<!-- Node3 -->
<g id="node4" class="node"><title>Node3</title>
<polygon fill="white" stroke="#bfbfbf" points="91,-174.5 91,-195.5 219,-195.5 219,-174.5 91,-174.5"/>
<text text-anchor="middle" x="155" y="-182.5" font-family="Verdana" font-size="10.00">CXmlSerializingContext</text>
</g>
<!-- Node3&#45;&gt;Node2 -->
<g id="edge4" class="edge"><title>Node3&#45;&gt;Node2</title>
<path fill="none" stroke="midnightblue" d="M155,-164.191C155,-155.168 155,-144.994 155,-137.571"/>
<polygon fill="midnightblue" stroke="midnightblue" points="151.5,-164.362 155,-174.362 158.5,-164.362 151.5,-164.362"/>
</g>
</g>
</svg>
