<?xml version="1.0" encoding="UTF-8" standalone="no"?>
<!DOCTYPE svg PUBLIC "-//W3C//DTD SVG 1.1//EN"
 "http://www.w3.org/Graphics/SVG/1.1/DTD/svg11.dtd">
<!-- Generated by graphviz version 2.26.3 (20100126.1600)
 -->
<!-- Title: CTypeElement::populate Pages: 1 -->
<svg width="318pt" height="150pt"
 viewBox="0.00 0.00 318.00 150.00" xmlns="http://www.w3.org/2000/svg" xmlns:xlink="http://www.w3.org/1999/xlink">
<g id="graph1" class="graph" transform="scale(1 1) rotate(0) translate(4 146)">
<title>CTypeElement::populate</title>
<polygon fill="white" stroke="white" points="-4,5 -4,-146 315,-146 315,5 -4,5"/>
<!-- Node1 -->
<g id="node1" class="node"><title>Node1</title>
<polygon fill="#bfbfbf" stroke="black" points="0,-40.5 0,-61.5 132,-61.5 132,-40.5 0,-40.5"/>
<text text-anchor="middle" x="66" y="-48.5" font-family="Verdana" font-size="10.00">CTypeElement::populate</text>
</g>
<!-- Node2 -->
<g id="node3" class="node"><title>Node2</title>
<a xlink:href="classCElement.html#a25f58d9d8b35e770806d669fb2a378e4" target="_top" xlink:title="CElement::getNbChildren">
<polygon fill="white" stroke="black" points="170.5,-120.5 170.5,-141.5 307.5,-141.5 307.5,-120.5 170.5,-120.5"/>
<text text-anchor="middle" x="239" y="-128.5" font-family="Verdana" font-size="10.00">CElement::getNbChildren</text>
</a>
</g>
<!-- Node1&#45;&gt;Node2 -->
<g id="edge2" class="edge"><title>Node1&#45;&gt;Node2</title>
<path fill="none" stroke="midnightblue" d="M81.2401,-61.6627C100.625,-74.8172 135.496,-97.1366 168,-111 173.433,-113.317 179.214,-115.449 185.039,-117.386"/>
<polygon fill="midnightblue" stroke="midnightblue" points="184.244,-120.805 194.834,-120.462 186.342,-114.127 184.244,-120.805"/>
</g>
<!-- Node3 -->
<g id="node5" class="node"><title>Node3</title>
<a xlink:href="classCElement.html#a41bf126c3fdbb5bec0c2c3dcf35e9079" target="_top" xlink:title="CElement::getChild">
<polygon fill="white" stroke="black" points="185,-80.5 185,-101.5 293,-101.5 293,-80.5 185,-80.5"/>
<text text-anchor="middle" x="239" y="-88.5" font-family="Verdana" font-size="10.00">CElement::getChild</text>
</a>
</g>
<!-- Node1&#45;&gt;Node3 -->
<g id="edge4" class="edge"><title>Node1&#45;&gt;Node3</title>
<path fill="none" stroke="midnightblue" d="M111.454,-61.5095C133.616,-66.6337 160.458,-72.8399 183.789,-78.2345"/>
<polygon fill="midnightblue" stroke="midnightblue" points="183.018,-81.6485 193.55,-80.4913 184.595,-74.8285 183.018,-81.6485"/>
</g>
<!-- Node4 -->
<g id="node7" class="node"><title>Node4</title>
<a xlink:href="classCTypeElement.html#a0fd0b5dfb3e3515ff5b54eda3d7e0a45" target="_top" xlink:title="CTypeElement::instantiate">
<polygon fill="white" stroke="black" points="168.5,-40.5 168.5,-61.5 309.5,-61.5 309.5,-40.5 168.5,-40.5"/>
<text text-anchor="middle" x="239" y="-48.5" font-family="Verdana" font-size="10.00">CTypeElement::instantiate</text>
</a>
</g>
<!-- Node1&#45;&gt;Node4 -->
<g id="edge6" class="edge"><title>Node1&#45;&gt;Node4</title>
<path fill="none" stroke="midnightblue" d="M132.392,-44.4148C140.884,-44.2733 149.65,-44.2229 158.338,-44.2637"/>
<polygon fill="midnightblue" stroke="midnightblue" points="158.448,-47.7647 168.478,-44.3534 158.51,-40.765 158.448,-47.7647"/>
</g>
<!-- Node5 -->
<g id="node10" class="node"><title>Node5</title>
<a xlink:href="classCElement.html#ac2ad66ee438a4a0c1390b7388874fe72" target="_top" xlink:title="CElement::addChild">
<polygon fill="white" stroke="black" points="184,-0.5 184,-21.5 294,-21.5 294,-0.5 184,-0.5"/>
<text text-anchor="middle" x="239" y="-8.5" font-family="Verdana" font-size="10.00">CElement::addChild</text>
</a>
</g>
<!-- Node1&#45;&gt;Node5 -->
<g id="edge10" class="edge"><title>Node1&#45;&gt;Node5</title>
<path fill="none" stroke="midnightblue" d="M111.454,-40.4905C133.616,-35.3663 160.458,-29.1601 183.789,-23.7655"/>
<polygon fill="midnightblue" stroke="midnightblue" points="184.595,-27.1715 193.55,-21.5087 183.018,-20.3515 184.595,-27.1715"/>
</g>
<!-- Node4&#45;&gt;Node1 -->
<g id="edge8" class="edge"><title>Node4&#45;&gt;Node1</title>
<path fill="none" stroke="midnightblue" d="M168.478,-57.6466C159.907,-57.7587 151.118,-57.7797 142.466,-57.7095"/>
<polygon fill="midnightblue" stroke="midnightblue" points="142.434,-54.2089 132.392,-57.5852 142.348,-61.2084 142.434,-54.2089"/>
</g>
</g>
</svg>
