<?xml version="1.0" encoding="UTF-8" standalone="no"?>
<!DOCTYPE svg PUBLIC "-//W3C//DTD SVG 1.1//EN"
 "http://www.w3.org/Graphics/SVG/1.1/DTD/svg11.dtd">
<!-- Generated by graphviz version 2.26.3 (20100126.1600)
 -->
<!-- Title: CParameterBlackboard::serialize Pages: 1 -->
<svg width="292pt" height="110pt"
 viewBox="0.00 0.00 292.00 110.00" xmlns="http://www.w3.org/2000/svg" xmlns:xlink="http://www.w3.org/1999/xlink">
<g id="graph1" class="graph" transform="scale(1 1) rotate(0) translate(4 106)">
<title>CParameterBlackboard::serialize</title>
<polygon fill="white" stroke="white" points="-4,5 -4,-106 289,-106 289,5 -4,5"/>
<!-- Node1 -->
<g id="node1" class="node"><title>Node1</title>
<polygon fill="#bfbfbf" stroke="black" points="0.5,-34 0.5,-68 127.5,-68 127.5,-34 0.5,-34"/>
<text text-anchor="start" x="8.5" y="-55" font-family="Verdana" font-size="10.00">CParameterBlackboard</text>
<text text-anchor="middle" x="64" y="-42" font-family="Verdana" font-size="10.00">::serialize</text>
</g>
<!-- Node2 -->
<g id="node3" class="node"><title>Node2</title>
<a xlink:href="classCBinaryStream.html#a362955618d8b9cbb753d59ea9e85a124" target="_top" xlink:title="CBinaryStream::isOut">
<polygon fill="white" stroke="black" points="164,-80.5 164,-101.5 284,-101.5 284,-80.5 164,-80.5"/>
<text text-anchor="middle" x="224" y="-88.5" font-family="Verdana" font-size="10.00">CBinaryStream::isOut</text>
</a>
</g>
<!-- Node1&#45;&gt;Node2 -->
<g id="edge2" class="edge"><title>Node1&#45;&gt;Node2</title>
<path fill="none" stroke="midnightblue" d="M127.696,-66.924C142.282,-70.5705 157.623,-74.4058 171.667,-77.9168"/>
<polygon fill="midnightblue" stroke="midnightblue" points="171.084,-81.3788 181.635,-80.4087 172.782,-74.5878 171.084,-81.3788"/>
</g>
<!-- Node3 -->
<g id="node5" class="node"><title>Node3</title>
<a xlink:href="classCBinaryStream.html#aae22e30790460521f9967d2a480d9ee8" target="_top" xlink:title="CBinaryStream::write">
<polygon fill="white" stroke="black" points="165,-40.5 165,-61.5 283,-61.5 283,-40.5 165,-40.5"/>
<text text-anchor="middle" x="224" y="-48.5" font-family="Verdana" font-size="10.00">CBinaryStream::write</text>
</a>
</g>
<!-- Node1&#45;&gt;Node3 -->
<g id="edge4" class="edge"><title>Node1&#45;&gt;Node3</title>
<path fill="none" stroke="midnightblue" d="M127.696,-51C136.624,-51 145.834,-51 154.857,-51"/>
<polygon fill="midnightblue" stroke="midnightblue" points="154.94,-54.5001 164.939,-51 154.939,-47.5001 154.94,-54.5001"/>
</g>
<!-- Node4 -->
<g id="node7" class="node"><title>Node4</title>
<a xlink:href="classCBinaryStream.html#a3dbd7c97a6564a16f8097a863f068f59" target="_top" xlink:title="CBinaryStream::read">
<polygon fill="white" stroke="black" points="165.5,-0.5 165.5,-21.5 282.5,-21.5 282.5,-0.5 165.5,-0.5"/>
<text text-anchor="middle" x="224" y="-8.5" font-family="Verdana" font-size="10.00">CBinaryStream::read</text>
</a>
</g>
<!-- Node1&#45;&gt;Node4 -->
<g id="edge6" class="edge"><title>Node1&#45;&gt;Node4</title>
<path fill="none" stroke="midnightblue" d="M127.696,-35.076C142.282,-31.4295 157.623,-27.5942 171.667,-24.0832"/>
<polygon fill="midnightblue" stroke="midnightblue" points="172.782,-27.4122 181.635,-21.5913 171.084,-20.6212 172.782,-27.4122"/>
</g>
</g>
</svg>
