<?xml version="1.0" encoding="UTF-8" standalone="no"?>
<!DOCTYPE svg PUBLIC "-//W3C//DTD SVG 1.1//EN"
 "http://www.w3.org/Graphics/SVG/1.1/DTD/svg11.dtd">
<!-- Generated by graphviz version 2.26.3 (20100126.1600)
 -->
<!-- Title: CInstanceConfigurableElement::setSyncer Pages: 1 -->
<svg width="384pt" height="42pt"
 viewBox="0.00 0.00 384.00 42.00" xmlns="http://www.w3.org/2000/svg" xmlns:xlink="http://www.w3.org/1999/xlink">
<g id="graph1" class="graph" transform="scale(1 1) rotate(0) translate(4 38)">
<title>CInstanceConfigurableElement::setSyncer</title>
<polygon fill="white" stroke="white" points="-4,5 -4,-38 381,-38 381,5 -4,5"/>
<!-- Node1 -->
<g id="node1" class="node"><title>Node1</title>
<polygon fill="#bfbfbf" stroke="black" points="0,-0 0,-34 164,-34 164,-0 0,-0"/>
<text text-anchor="start" x="8" y="-21" font-family="Verdana" font-size="10.00">CInstanceConfigurableElement</text>
<text text-anchor="middle" x="82" y="-8" font-family="Verdana" font-size="10.00">::setSyncer</text>
</g>
<!-- Node2 -->
<g id="node3" class="node"><title>Node2</title>
<a xlink:href="classCSubsystemObject.html#a82013f3d46a655a9f5790b188d25be74" target="_top" xlink:title="CSubsystemObject::CSubsystem\lObject">
<polygon fill="white" stroke="black" points="200.5,-0 200.5,-34 375.5,-34 375.5,-0 200.5,-0"/>
<text text-anchor="start" x="208.5" y="-21" font-family="Verdana" font-size="10.00">CSubsystemObject::CSubsystem</text>
<text text-anchor="middle" x="288" y="-8" font-family="Verdana" font-size="10.00">Object</text>
</a>
</g>
<!-- Node1&#45;&gt;Node2 -->
<g id="edge2" class="edge"><title>Node1&#45;&gt;Node2</title>
<path fill="none" stroke="midnightblue" d="M174.121,-17C182.789,-17 191.561,-17 200.187,-17"/>
<polygon fill="midnightblue" stroke="midnightblue" points="174.009,-13.5001 164.009,-17 174.009,-20.5001 174.009,-13.5001"/>
</g>
</g>
</svg>
