<?xml version="1.0" encoding="UTF-8" standalone="no"?>
<!DOCTYPE svg PUBLIC "-//W3C//DTD SVG 1.1//EN"
 "http://www.w3.org/Graphics/SVG/1.1/DTD/svg11.dtd">
<!-- Generated by graphviz version 2.26.3 (20100126.1600)
 -->
<!-- Title: CParameterMgr::exportDomainsXml Pages: 1 -->
<svg width="382pt" height="94pt"
 viewBox="0.00 0.00 382.00 94.00" xmlns="http://www.w3.org/2000/svg" xmlns:xlink="http://www.w3.org/1999/xlink">
<g id="graph1" class="graph" transform="scale(1 1) rotate(0) translate(4 90)">
<title>CParameterMgr::exportDomainsXml</title>
<polygon fill="white" stroke="white" points="-4,5 -4,-90 379,-90 379,5 -4,5"/>
<!-- Node1 -->
<g id="node1" class="node"><title>Node1</title>
<polygon fill="#bfbfbf" stroke="black" points="0.5,-32.5 0.5,-53.5 189.5,-53.5 189.5,-32.5 0.5,-32.5"/>
<text text-anchor="middle" x="95" y="-40.5" font-family="Verdana" font-size="10.00">CParameterMgr::exportDomainsXml</text>
</g>
<!-- Node2 -->
<g id="node3" class="node"><title>Node2</title>
<a xlink:href="classCXmlDomainExportContext.html#af96234ea49123b30efa51a7023f07c8f" target="_top" xlink:title="CXmlDomainExportContext\l::setValueSpaceRaw">
<polygon fill="white" stroke="black" points="226.5,-52 226.5,-86 373.5,-86 373.5,-52 226.5,-52"/>
<text text-anchor="start" x="234.5" y="-73" font-family="Verdana" font-size="10.00">CXmlDomainExportContext</text>
<text text-anchor="middle" x="300" y="-60" font-family="Verdana" font-size="10.00">::setValueSpaceRaw</text>
</a>
</g>
<!-- Node1&#45;&gt;Node2 -->
<g id="edge2" class="edge"><title>Node1&#45;&gt;Node2</title>
<path fill="none" stroke="midnightblue" d="M177.79,-53.5003C190.504,-55.1128 203.639,-56.7786 216.371,-58.3934"/>
<polygon fill="midnightblue" stroke="midnightblue" points="216.119,-61.8894 226.48,-59.6755 217,-54.945 216.119,-61.8894"/>
</g>
<!-- Node3 -->
<g id="node5" class="node"><title>Node3</title>
<a xlink:href="classCXmlDomainExportContext.html#a76304ae01cb688634fb64dab8717fb7d" target="_top" xlink:title="CXmlDomainExportContext\l::setOutputRawFormat">
<polygon fill="white" stroke="black" points="226.5,-0 226.5,-34 373.5,-34 373.5,-0 226.5,-0"/>
<text text-anchor="start" x="234.5" y="-21" font-family="Verdana" font-size="10.00">CXmlDomainExportContext</text>
<text text-anchor="middle" x="300" y="-8" font-family="Verdana" font-size="10.00">::setOutputRawFormat</text>
</a>
</g>
<!-- Node1&#45;&gt;Node3 -->
<g id="edge4" class="edge"><title>Node1&#45;&gt;Node3</title>
<path fill="none" stroke="midnightblue" d="M177.79,-32.4997C190.504,-30.8872 203.639,-29.2214 216.371,-27.6066"/>
<polygon fill="midnightblue" stroke="midnightblue" points="217,-31.055 226.48,-26.3245 216.119,-24.1106 217,-31.055"/>
</g>
</g>
</svg>
