<?xml version="1.0" encoding="UTF-8" standalone="no"?>
<!DOCTYPE svg PUBLIC "-//W3C//DTD SVG 1.1//EN"
 "http://www.w3.org/Graphics/SVG/1.1/DTD/svg11.dtd">
<!-- Generated by graphviz version 2.26.3 (20100126.1600)
 -->
<!-- Title: CParameterMgr::getConfigurableElement Pages: 1 -->
<svg width="398pt" height="94pt"
 viewBox="0.00 0.00 398.00 94.00" xmlns="http://www.w3.org/2000/svg" xmlns:xlink="http://www.w3.org/1999/xlink">
<g id="graph1" class="graph" transform="scale(1 1) rotate(0) translate(4 90)">
<title>CParameterMgr::getConfigurableElement</title>
<polygon fill="white" stroke="white" points="-4,5 -4,-90 395,-90 395,5 -4,5"/>
<!-- Node1 -->
<g id="node1" class="node"><title>Node1</title>
<polygon fill="#bfbfbf" stroke="black" points="0.5,-26 0.5,-60 173.5,-60 173.5,-26 0.5,-26"/>
<text text-anchor="start" x="8.5" y="-47" font-family="Verdana" font-size="10.00">CParameterMgr::getConfigurable</text>
<text text-anchor="middle" x="87" y="-34" font-family="Verdana" font-size="10.00">Element</text>
</g>
<!-- Node2 -->
<g id="node3" class="node"><title>Node2</title>
<a xlink:href="classCParameterMgr.html#ada6dd503a49385c74029b7c0e8e1ba0e" target="_top" xlink:title="CParameterMgr::createParameter\lHandle">
<polygon fill="white" stroke="black" points="210.5,-52 210.5,-86 389.5,-86 389.5,-52 210.5,-52"/>
<text text-anchor="start" x="218.5" y="-73" font-family="Verdana" font-size="10.00">CParameterMgr::createParameter</text>
<text text-anchor="middle" x="300" y="-60" font-family="Verdana" font-size="10.00">Handle</text>
</a>
</g>
<!-- Node1&#45;&gt;Node2 -->
<g id="edge2" class="edge"><title>Node1&#45;&gt;Node2</title>
<path fill="none" stroke="midnightblue" d="M183.622,-54.7942C192.514,-55.8796 201.498,-56.9763 210.325,-58.0537"/>
<polygon fill="midnightblue" stroke="midnightblue" points="183.986,-51.3127 173.635,-53.5752 183.137,-58.2612 183.986,-51.3127"/>
</g>
<!-- Node3 -->
<g id="node5" class="node"><title>Node3</title>
<a xlink:href="classCParameterMgr.html#a00467972dcf35bd3036a536f5c328436" target="_top" xlink:title="Returns the element mapping corresponding to the path given in parameter. ">
<polygon fill="white" stroke="black" points="218,-0 218,-34 382,-34 382,-0 218,-0"/>
<text text-anchor="start" x="226" y="-21" font-family="Verdana" font-size="10.00">CParameterMgr::getParameter</text>
<text text-anchor="middle" x="300" y="-8" font-family="Verdana" font-size="10.00">Mapping</text>
</a>
</g>
<!-- Node1&#45;&gt;Node3 -->
<g id="edge4" class="edge"><title>Node1&#45;&gt;Node3</title>
<path fill="none" stroke="midnightblue" d="M183.644,-31.2031C195.093,-29.8056 206.695,-28.3893 217.915,-27.0197"/>
<polygon fill="midnightblue" stroke="midnightblue" points="183.137,-27.7388 173.635,-32.4248 183.986,-34.6873 183.137,-27.7388"/>
</g>
</g>
</svg>
