<?xml version="1.0" encoding="UTF-8" standalone="no"?>
<!DOCTYPE svg PUBLIC "-//W3C//DTD SVG 1.1//EN"
 "http://www.w3.org/Graphics/SVG/1.1/DTD/svg11.dtd">
<!-- Generated by graphviz version 2.26.3 (20100126.1600)
 -->
<!-- Title: CPathNavigator::getCurrentPath Pages: 1 -->
<svg width="804pt" height="206pt"
 viewBox="0.00 0.00 804.00 206.00" xmlns="http://www.w3.org/2000/svg" xmlns:xlink="http://www.w3.org/1999/xlink">
<g id="graph1" class="graph" transform="scale(1 1) rotate(0) translate(4 202)">
<title>CPathNavigator::getCurrentPath</title>
<polygon fill="white" stroke="white" points="-4,5 -4,-202 801,-202 801,5 -4,5"/>
<!-- Node1 -->
<g id="node1" class="node"><title>Node1</title>
<polygon fill="#bfbfbf" stroke="black" points="0,-100.5 0,-121.5 170,-121.5 170,-100.5 0,-100.5"/>
<text text-anchor="middle" x="85" y="-108.5" font-family="Verdana" font-size="10.00">CPathNavigator::getCurrentPath</text>
</g>
<!-- Node2 -->
<g id="node3" class="node"><title>Node2</title>
<a xlink:href="classCConfigurableElement.html#a1dae2debee4a443ce572f15e75247808" target="_top" xlink:title="CConfigurableElement\l::accessValue">
<polygon fill="white" stroke="black" points="226.5,-146 226.5,-180 349.5,-180 349.5,-146 226.5,-146"/>
<text text-anchor="start" x="234.5" y="-167" font-family="Verdana" font-size="10.00">CConfigurableElement</text>
<text text-anchor="middle" x="288" y="-154" font-family="Verdana" font-size="10.00">::accessValue</text>
</a>
</g>
<!-- Node1&#45;&gt;Node2 -->
<g id="edge2" class="edge"><title>Node1&#45;&gt;Node2</title>
<path fill="none" stroke="midnightblue" d="M135.85,-124.026C163.242,-131.042 197.25,-139.754 226.163,-147.16"/>
<polygon fill="midnightblue" stroke="midnightblue" points="136.636,-120.614 126.08,-121.523 134.899,-127.395 136.636,-120.614"/>
</g>
<!-- Node3 -->
<g id="node6" class="node"><title>Node3</title>
<a xlink:href="classCInstanceConfigurableElement.html#a4355916fa36efbe5fb62894d0a5dc95f" target="_top" xlink:title="CInstanceConfigurableElement\l::checkPathExhausted">
<polygon fill="white" stroke="black" points="206,-94 206,-128 370,-128 370,-94 206,-94"/>
<text text-anchor="start" x="214" y="-115" font-family="Verdana" font-size="10.00">CInstanceConfigurableElement</text>
<text text-anchor="middle" x="288" y="-102" font-family="Verdana" font-size="10.00">::checkPathExhausted</text>
</a>
</g>
<!-- Node1&#45;&gt;Node3 -->
<g id="edge6" class="edge"><title>Node1&#45;&gt;Node3</title>
<path fill="none" stroke="midnightblue" d="M180.244,-111C188.829,-111 197.474,-111 205.932,-111"/>
<polygon fill="midnightblue" stroke="midnightblue" points="180.208,-107.5 170.208,-111 180.208,-114.5 180.208,-107.5"/>
</g>
<!-- Node5 -->
<g id="node10" class="node"><title>Node5</title>
<a xlink:href="classCPathNavigator.html#ad588f1802ca5e196e96972273f36a80d" target="_top" xlink:title="CPathNavigator::navigate\lThrough">
<polygon fill="white" stroke="black" points="219,-42 219,-76 357,-76 357,-42 219,-42"/>
<text text-anchor="start" x="227" y="-63" font-family="Verdana" font-size="10.00">CPathNavigator::navigate</text>
<text text-anchor="middle" x="288" y="-50" font-family="Verdana" font-size="10.00">Through</text>
</a>
</g>
<!-- Node1&#45;&gt;Node5 -->
<g id="edge10" class="edge"><title>Node1&#45;&gt;Node5</title>
<path fill="none" stroke="midnightblue" d="M136.048,-97.9236C161.915,-91.2976 193.645,-83.1698 221.407,-76.0582"/>
<polygon fill="midnightblue" stroke="midnightblue" points="134.899,-94.605 126.08,-100.477 136.636,-101.386 134.899,-94.605"/>
</g>
<!-- Node2&#45;&gt;Node2 -->
<g id="edge4" class="edge"><title>Node2&#45;&gt;Node2</title>
<path fill="none" stroke="midnightblue" d="M252.822,-190.318C257.762,-194.864 269.488,-198 288,-198 318.379,-198 330.483,-189.556 324.312,-180.288"/>
<polygon fill="midnightblue" stroke="midnightblue" points="256.289,-189.831 251.688,-180.288 249.334,-190.618 256.289,-189.831"/>
</g>
<!-- Node4 -->
<g id="node8" class="node"><title>Node4</title>
<a xlink:href="classCBaseParameter.html#a4a9b3e3a2d1ea65a8dc7048559db8dc2" target="_top" xlink:title="CBaseParameter::accessValue">
<polygon fill="white" stroke="black" points="411.5,-100.5 411.5,-121.5 574.5,-121.5 574.5,-100.5 411.5,-100.5"/>
<text text-anchor="middle" x="493" y="-108.5" font-family="Verdana" font-size="10.00">CBaseParameter::accessValue</text>
</a>
</g>
<!-- Node3&#45;&gt;Node4 -->
<g id="edge8" class="edge"><title>Node3&#45;&gt;Node4</title>
<path fill="none" stroke="midnightblue" d="M380.47,-111C390.801,-111 401.269,-111 411.449,-111"/>
<polygon fill="midnightblue" stroke="midnightblue" points="380.2,-107.5 370.2,-111 380.2,-114.5 380.2,-107.5"/>
</g>
<!-- Node6 -->
<g id="node12" class="node"><title>Node6</title>
<a xlink:href="classCParameterMgr.html#ad3ee51d6a9f2e0d0ea143a238120b5af" target="_top" xlink:title="Returns the CConfigurableElement corresponding to the path given in argument. ">
<polygon fill="white" stroke="black" points="406.5,-45 406.5,-79 579.5,-79 579.5,-45 406.5,-45"/>
<text text-anchor="start" x="414.5" y="-66" font-family="Verdana" font-size="10.00">CParameterMgr::getConfigurable</text>
<text text-anchor="middle" x="493" y="-53" font-family="Verdana" font-size="10.00">Element</text>
</a>
</g>
<!-- Node5&#45;&gt;Node6 -->
<g id="edge12" class="edge"><title>Node5&#45;&gt;Node6</title>
<path fill="none" stroke="midnightblue" d="M367.264,-60.16C380.072,-60.3474 393.391,-60.5423 406.363,-60.7321"/>
<polygon fill="midnightblue" stroke="midnightblue" points="367.168,-56.6583 357.118,-60.0115 367.066,-63.6575 367.168,-56.6583"/>
</g>
<!-- Node8 -->
<g id="node16" class="node"><title>Node8</title>
<a xlink:href="classCParameterMgr.html#a00467972dcf35bd3036a536f5c328436" target="_top" xlink:title="Returns the element mapping corresponding to the path given in parameter. ">
<polygon fill="white" stroke="black" points="624,-0 624,-34 788,-34 788,-0 624,-0"/>
<text text-anchor="start" x="632" y="-21" font-family="Verdana" font-size="10.00">CParameterMgr::getParameter</text>
<text text-anchor="middle" x="706" y="-8" font-family="Verdana" font-size="10.00">Mapping</text>
</a>
</g>
<!-- Node5&#45;&gt;Node8 -->
<g id="edge18" class="edge"><title>Node5&#45;&gt;Node8</title>
<path fill="none" stroke="midnightblue" d="M366.884,-42.1629C379.906,-39.8048 393.298,-37.6332 406,-36 479.372,-26.5661 563.469,-21.7541 623.918,-19.3381"/>
<polygon fill="midnightblue" stroke="midnightblue" points="366.208,-38.7285 357.016,-43.9967 367.487,-45.6107 366.208,-38.7285"/>
</g>
<!-- Node7 -->
<g id="node14" class="node"><title>Node7</title>
<a xlink:href="classCParameterMgr.html#ada6dd503a49385c74029b7c0e8e1ba0e" target="_top" xlink:title="CParameterMgr::createParameter\lHandle">
<polygon fill="white" stroke="black" points="616.5,-52 616.5,-86 795.5,-86 795.5,-52 616.5,-52"/>
<text text-anchor="start" x="624.5" y="-73" font-family="Verdana" font-size="10.00">CParameterMgr::createParameter</text>
<text text-anchor="middle" x="706" y="-60" font-family="Verdana" font-size="10.00">Handle</text>
</a>
</g>
<!-- Node6&#45;&gt;Node7 -->
<g id="edge14" class="edge"><title>Node6&#45;&gt;Node7</title>
<path fill="none" stroke="midnightblue" d="M589.909,-65.1848C598.707,-65.4739 607.593,-65.766 616.325,-66.0529"/>
<polygon fill="midnightblue" stroke="midnightblue" points="589.745,-61.6776 579.635,-64.8472 589.515,-68.6738 589.745,-61.6776"/>
</g>
<!-- Node6&#45;&gt;Node8 -->
<g id="edge16" class="edge"><title>Node6&#45;&gt;Node8</title>
<path fill="none" stroke="midnightblue" d="M583.559,-42.8677C597.448,-39.9336 611.706,-36.9214 625.36,-34.0366"/>
<polygon fill="midnightblue" stroke="midnightblue" points="582.587,-39.4959 573.526,-44.9874 584.034,-46.3447 582.587,-39.4959"/>
</g>
</g>
</svg>
