<?xml version="1.0" encoding="UTF-8" standalone="no"?>
<!DOCTYPE svg PUBLIC "-//W3C//DTD SVG 1.1//EN"
 "http://www.w3.org/Graphics/SVG/1.1/DTD/svg11.dtd">
<!-- Generated by graphviz version 2.26.3 (20100126.1600)
 -->
<!-- Title: CAreaConfiguration::serialize Pages: 1 -->
<svg width="438pt" height="111pt"
 viewBox="0.00 0.00 438.00 111.00" xmlns="http://www.w3.org/2000/svg" xmlns:xlink="http://www.w3.org/1999/xlink">
<g id="graph1" class="graph" transform="scale(1 1) rotate(0) translate(4 107)">
<title>CAreaConfiguration::serialize</title>
<polygon fill="white" stroke="white" points="-4,5 -4,-107 435,-107 435,5 -4,5"/>
<!-- Node1 -->
<g id="node1" class="node"><title>Node1</title>
<polygon fill="#bfbfbf" stroke="black" points="0,-54 0,-88 110,-88 110,-54 0,-54"/>
<text text-anchor="start" x="8" y="-75" font-family="Verdana" font-size="10.00">CAreaConfiguration</text>
<text text-anchor="middle" x="55" y="-62" font-family="Verdana" font-size="10.00">::serialize</text>
</g>
<!-- Node2 -->
<g id="node3" class="node"><title>Node2</title>
<a xlink:href="classCParameterBlackboard.html#ad96ba821eb1035b06a5a30ef7377da39" target="_top" xlink:title="CParameterBlackboard\l::serialize">
<polygon fill="white" stroke="black" points="146.5,-32 146.5,-66 273.5,-66 273.5,-32 146.5,-32"/>
<text text-anchor="start" x="154.5" y="-53" font-family="Verdana" font-size="10.00">CParameterBlackboard</text>
<text text-anchor="middle" x="210" y="-40" font-family="Verdana" font-size="10.00">::serialize</text>
</a>
</g>
<!-- Node1&#45;&gt;Node2 -->
<g id="edge2" class="edge"><title>Node1&#45;&gt;Node2</title>
<path fill="none" stroke="midnightblue" d="M110.084,-63.1817C118.619,-61.9703 127.55,-60.7025 136.414,-59.4445"/>
<polygon fill="midnightblue" stroke="midnightblue" points="136.958,-62.9024 146.367,-58.0318 135.974,-55.9719 136.958,-62.9024"/>
</g>
<!-- Node3 -->
<g id="node5" class="node"><title>Node3</title>
<a xlink:href="classCBinaryStream.html#a362955618d8b9cbb753d59ea9e85a124" target="_top" xlink:title="CBinaryStream::isOut">
<polygon fill="white" stroke="black" points="310,-81.5 310,-102.5 430,-102.5 430,-81.5 310,-81.5"/>
<text text-anchor="middle" x="370" y="-89.5" font-family="Verdana" font-size="10.00">CBinaryStream::isOut</text>
</a>
</g>
<!-- Node1&#45;&gt;Node3 -->
<g id="edge10" class="edge"><title>Node1&#45;&gt;Node3</title>
<path fill="none" stroke="midnightblue" d="M110.229,-74.682C162.911,-78.1941 242.489,-83.4993 299.679,-87.3119"/>
<polygon fill="midnightblue" stroke="midnightblue" points="299.517,-90.8088 309.727,-87.9818 299.982,-83.8243 299.517,-90.8088"/>
</g>
<!-- Node2&#45;&gt;Node3 -->
<g id="edge4" class="edge"><title>Node2&#45;&gt;Node3</title>
<path fill="none" stroke="midnightblue" d="M273.696,-66.1183C289.273,-70.3047 305.712,-74.7226 320.512,-78.7001"/>
<polygon fill="midnightblue" stroke="midnightblue" points="319.9,-82.1597 330.465,-81.3751 321.717,-75.3996 319.9,-82.1597"/>
</g>
<!-- Node4 -->
<g id="node7" class="node"><title>Node4</title>
<a xlink:href="classCBinaryStream.html#aae22e30790460521f9967d2a480d9ee8" target="_top" xlink:title="CBinaryStream::write">
<polygon fill="white" stroke="black" points="311,-40.5 311,-61.5 429,-61.5 429,-40.5 311,-40.5"/>
<text text-anchor="middle" x="370" y="-48.5" font-family="Verdana" font-size="10.00">CBinaryStream::write</text>
</a>
</g>
<!-- Node2&#45;&gt;Node4 -->
<g id="edge6" class="edge"><title>Node2&#45;&gt;Node4</title>
<path fill="none" stroke="midnightblue" d="M273.696,-49.7962C282.624,-49.9078 291.834,-50.0229 300.857,-50.1357"/>
<polygon fill="midnightblue" stroke="midnightblue" points="300.896,-53.6364 310.939,-50.2617 300.984,-46.6369 300.896,-53.6364"/>
</g>
<!-- Node5 -->
<g id="node9" class="node"><title>Node5</title>
<a xlink:href="classCBinaryStream.html#a3dbd7c97a6564a16f8097a863f068f59" target="_top" xlink:title="CBinaryStream::read">
<polygon fill="white" stroke="black" points="311.5,-0.5 311.5,-21.5 428.5,-21.5 428.5,-0.5 311.5,-0.5"/>
<text text-anchor="middle" x="370" y="-8.5" font-family="Verdana" font-size="10.00">CBinaryStream::read</text>
</a>
</g>
<!-- Node2&#45;&gt;Node5 -->
<g id="edge8" class="edge"><title>Node2&#45;&gt;Node5</title>
<path fill="none" stroke="midnightblue" d="M273.696,-33.8722C287.585,-30.5736 302.159,-27.1124 315.645,-23.9094"/>
<polygon fill="midnightblue" stroke="midnightblue" points="316.796,-27.2334 325.717,-21.5173 315.178,-20.4228 316.796,-27.2334"/>
</g>
</g>
</svg>
