<?xml version="1.0" encoding="UTF-8" standalone="no"?>
<!DOCTYPE svg PUBLIC "-//W3C//DTD SVG 1.1//EN"
 "http://www.w3.org/Graphics/SVG/1.1/DTD/svg11.dtd">
<!-- Generated by graphviz version 2.26.3 (20100126.1600)
 -->
<!-- Title: CFixedPointParameterType::handleValueSpaceAttribute Pages: 1 -->
<svg width="356pt" height="146pt"
 viewBox="0.00 0.00 356.00 146.00" xmlns="http://www.w3.org/2000/svg" xmlns:xlink="http://www.w3.org/1999/xlink">
<g id="graph1" class="graph" transform="scale(1 1) rotate(0) translate(4 142)">
<title>CFixedPointParameterType::handleValueSpaceAttribute</title>
<polygon fill="white" stroke="white" points="-4,5 -4,-142 353,-142 353,5 -4,5"/>
<!-- Node1 -->
<g id="node1" class="node"><title>Node1</title>
<polygon fill="#bfbfbf" stroke="black" points="0.5,-52 0.5,-86 153.5,-86 153.5,-52 0.5,-52"/>
<text text-anchor="start" x="8.5" y="-73" font-family="Verdana" font-size="10.00">CFixedPointParameterType</text>
<text text-anchor="middle" x="77" y="-60" font-family="Verdana" font-size="10.00">::handleValueSpaceAttribute</text>
</g>
<!-- Node2 -->
<g id="node3" class="node"><title>Node2</title>
<a xlink:href="classCConfigurationAccessContext.html#ac0a975afc840488e5e82345441de56cc" target="_top" xlink:title="CConfigurationAccessContext\l::serializeOut">
<polygon fill="white" stroke="black" points="190,-104 190,-138 348,-138 348,-104 190,-104"/>
<text text-anchor="start" x="198" y="-125" font-family="Verdana" font-size="10.00">CConfigurationAccessContext</text>
<text text-anchor="middle" x="269" y="-112" font-family="Verdana" font-size="10.00">::serializeOut</text>
</a>
</g>
<!-- Node1&#45;&gt;Node2 -->
<g id="edge2" class="edge"><title>Node1&#45;&gt;Node2</title>
<path fill="none" stroke="midnightblue" d="M139.868,-86.0267C157.853,-90.8976 177.606,-96.2474 196.136,-101.266"/>
<polygon fill="midnightblue" stroke="midnightblue" points="195.424,-104.699 205.991,-103.935 197.253,-97.9425 195.424,-104.699"/>
</g>
<!-- Node3 -->
<g id="node5" class="node"><title>Node3</title>
<a xlink:href="classCParameterAccessContext.html#a506d83c2a6d876c61a3a21880f3302da" target="_top" xlink:title="CParameterAccessContext\l::setValueSpaceRaw">
<polygon fill="white" stroke="black" points="196.5,-52 196.5,-86 341.5,-86 341.5,-52 196.5,-52"/>
<text text-anchor="start" x="204.5" y="-73" font-family="Verdana" font-size="10.00">CParameterAccessContext</text>
<text text-anchor="middle" x="269" y="-60" font-family="Verdana" font-size="10.00">::setValueSpaceRaw</text>
</a>
</g>
<!-- Node1&#45;&gt;Node3 -->
<g id="edge4" class="edge"><title>Node1&#45;&gt;Node3</title>
<path fill="none" stroke="midnightblue" d="M153.711,-69C164.397,-69 175.416,-69 186.207,-69"/>
<polygon fill="midnightblue" stroke="midnightblue" points="186.466,-72.5001 196.466,-69 186.466,-65.5001 186.466,-72.5001"/>
</g>
<!-- Node4 -->
<g id="node7" class="node"><title>Node4</title>
<a xlink:href="classCParameterAccessContext.html#aa36964a7a0cc063c1a5589adb29ed5a7" target="_top" xlink:title="CParameterAccessContext\l::valueSpaceIsRaw">
<polygon fill="white" stroke="black" points="196.5,-0 196.5,-34 341.5,-34 341.5,-0 196.5,-0"/>
<text text-anchor="start" x="204.5" y="-21" font-family="Verdana" font-size="10.00">CParameterAccessContext</text>
<text text-anchor="middle" x="269" y="-8" font-family="Verdana" font-size="10.00">::valueSpaceIsRaw</text>
</a>
</g>
<!-- Node1&#45;&gt;Node4 -->
<g id="edge6" class="edge"><title>Node1&#45;&gt;Node4</title>
<path fill="none" stroke="midnightblue" d="M139.868,-51.9733C157.853,-47.1024 177.606,-41.7526 196.136,-36.7341"/>
<polygon fill="midnightblue" stroke="midnightblue" points="197.253,-40.0575 205.991,-34.065 195.424,-33.3009 197.253,-40.0575"/>
</g>
</g>
</svg>
