<?xml version="1.0" encoding="UTF-8" standalone="no"?>
<!DOCTYPE svg PUBLIC "-//W3C//DTD SVG 1.1//EN"
 "http://www.w3.org/Graphics/SVG/1.1/DTD/svg11.dtd">
<!-- Generated by graphviz version 2.26.3 (20100126.1600)
 -->
<!-- Title: CMessage::serialize Pages: 1 -->
<svg width="324pt" height="110pt"
 viewBox="0.00 0.00 324.00 110.00" xmlns="http://www.w3.org/2000/svg" xmlns:xlink="http://www.w3.org/1999/xlink">
<g id="graph1" class="graph" transform="scale(1 1) rotate(0) translate(4 106)">
<title>CMessage::serialize</title>
<polygon fill="white" stroke="white" points="-4,5 -4,-106 321,-106 321,5 -4,5"/>
<!-- Node1 -->
<g id="node1" class="node"><title>Node1</title>
<polygon fill="#bfbfbf" stroke="black" points="0.5,-40.5 0.5,-61.5 111.5,-61.5 111.5,-40.5 0.5,-40.5"/>
<text text-anchor="middle" x="56" y="-48.5" font-family="Verdana" font-size="10.00">CMessage::serialize</text>
</g>
<!-- Node2 -->
<g id="node3" class="node"><title>Node2</title>
<a xlink:href="classCSocket.html#a56781c4ee49b861a1177cf72bca4b058" target="_top" xlink:title="CSocket::write">
<polygon fill="white" stroke="black" points="189.5,-80.5 189.5,-101.5 274.5,-101.5 274.5,-80.5 189.5,-80.5"/>
<text text-anchor="middle" x="232" y="-88.5" font-family="Verdana" font-size="10.00">CSocket::write</text>
</a>
</g>
<!-- Node1&#45;&gt;Node2 -->
<g id="edge2" class="edge"><title>Node1&#45;&gt;Node2</title>
<path fill="none" stroke="midnightblue" d="M102.242,-61.5095C125.963,-66.9007 154.954,-73.4896 179.512,-79.0709"/>
<polygon fill="midnightblue" stroke="midnightblue" points="178.858,-82.5114 189.385,-81.3147 180.409,-75.6855 178.858,-82.5114"/>
</g>
<!-- Node3 -->
<g id="node5" class="node"><title>Node3</title>
<a xlink:href="classCSocket.html#a33d4c0e9b69e048b3ca73e435e890af2" target="_top" xlink:title="CSocket::hasPeerDisconnected">
<polygon fill="white" stroke="black" points="148.5,-40.5 148.5,-61.5 315.5,-61.5 315.5,-40.5 148.5,-40.5"/>
<text text-anchor="middle" x="232" y="-48.5" font-family="Verdana" font-size="10.00">CSocket::hasPeerDisconnected</text>
</a>
</g>
<!-- Node1&#45;&gt;Node3 -->
<g id="edge4" class="edge"><title>Node1&#45;&gt;Node3</title>
<path fill="none" stroke="midnightblue" d="M111.688,-51C120.175,-51 129.129,-51 138.165,-51"/>
<polygon fill="midnightblue" stroke="midnightblue" points="138.381,-54.5001 148.381,-51 138.381,-47.5001 138.381,-54.5001"/>
</g>
<!-- Node4 -->
<g id="node7" class="node"><title>Node4</title>
<a xlink:href="classCSocket.html#a476a64ffeb8843cbce048dd89a62e38c" target="_top" xlink:title="CSocket::read">
<polygon fill="white" stroke="black" points="190,-0.5 190,-21.5 274,-21.5 274,-0.5 190,-0.5"/>
<text text-anchor="middle" x="232" y="-8.5" font-family="Verdana" font-size="10.00">CSocket::read</text>
</a>
</g>
<!-- Node1&#45;&gt;Node4 -->
<g id="edge6" class="edge"><title>Node1&#45;&gt;Node4</title>
<path fill="none" stroke="midnightblue" d="M102.242,-40.4905C126.142,-35.0586 155.392,-28.4108 180.067,-22.8029"/>
<polygon fill="midnightblue" stroke="midnightblue" points="181.004,-26.1793 189.98,-20.55 179.453,-19.3533 181.004,-26.1793"/>
</g>
</g>
</svg>
