<?xml version="1.0" encoding="UTF-8" standalone="no"?>
<!DOCTYPE svg PUBLIC "-//W3C//DTD SVG 1.1//EN"
 "http://www.w3.org/Graphics/SVG/1.1/DTD/svg11.dtd">
<!-- Generated by graphviz version 2.26.3 (20100126.1600)
 -->
<!-- Title: CConfigurableElement::setDefaultValues Pages: 1 -->
<svg width="326pt" height="82pt"
 viewBox="0.00 0.00 326.00 82.00" xmlns="http://www.w3.org/2000/svg" xmlns:xlink="http://www.w3.org/1999/xlink">
<g id="graph1" class="graph" transform="scale(1 1) rotate(0) translate(4 78)">
<title>CConfigurableElement::setDefaultValues</title>
<polygon fill="white" stroke="white" points="-4,5 -4,-78 323,-78 323,5 -4,5"/>
<!-- Node1 -->
<g id="node1" class="node"><title>Node1</title>
<polygon fill="#bfbfbf" stroke="black" points="0.5,-17 0.5,-51 123.5,-51 123.5,-17 0.5,-17"/>
<text text-anchor="start" x="8.5" y="-38" font-family="Verdana" font-size="10.00">CConfigurableElement</text>
<text text-anchor="middle" x="62" y="-25" font-family="Verdana" font-size="10.00">::setDefaultValues</text>
</g>
<!-- Node1&#45;&gt;Node1 -->
<g id="edge2" class="edge"><title>Node1&#45;&gt;Node1</title>
<path fill="none" stroke="midnightblue" d="M31.3498,-61.3176C35.6539,-65.8645 45.8706,-69 62,-69 88.4688,-69 99.0149,-60.5562 93.6384,-51.2878"/>
<polygon fill="midnightblue" stroke="midnightblue" points="34.8254,-60.8964 30.3616,-51.2878 27.8591,-61.5828 34.8254,-60.8964"/>
</g>
<!-- Node2 -->
<g id="node4" class="node"><title>Node2</title>
<a xlink:href="classCSimulatedBackSynchronizer.html#a0908a34ec39880bd941f3c336e2baf74" target="_top" xlink:title="CSimulatedBackSynchronizer\l::sync">
<polygon fill="white" stroke="black" points="160,-40 160,-74 318,-74 318,-40 160,-40"/>
<text text-anchor="start" x="168" y="-61" font-family="Verdana" font-size="10.00">CSimulatedBackSynchronizer</text>
<text text-anchor="middle" x="239" y="-48" font-family="Verdana" font-size="10.00">::sync</text>
</a>
</g>
<!-- Node1&#45;&gt;Node2 -->
<g id="edge4" class="edge"><title>Node1&#45;&gt;Node2</title>
<path fill="none" stroke="midnightblue" d="M134.08,-43.3663C142.523,-44.4634 151.172,-45.5873 159.706,-46.6962"/>
<polygon fill="midnightblue" stroke="midnightblue" points="134.274,-39.8622 123.906,-42.0443 133.372,-46.8038 134.274,-39.8622"/>
</g>
<!-- Node3 -->
<g id="node6" class="node"><title>Node3</title>
<a xlink:href="classCVirtualSyncer.html#a7dbef9e770ef4433cb113fd466c3995e" target="_top" xlink:title="CVirtualSyncer::sync">
<polygon fill="white" stroke="black" points="181.5,-0.5 181.5,-21.5 296.5,-21.5 296.5,-0.5 181.5,-0.5"/>
<text text-anchor="middle" x="239" y="-8.5" font-family="Verdana" font-size="10.00">CVirtualSyncer::sync</text>
</a>
</g>
<!-- Node1&#45;&gt;Node3 -->
<g id="edge6" class="edge"><title>Node1&#45;&gt;Node3</title>
<path fill="none" stroke="midnightblue" d="M134.102,-24.6309C149.806,-22.5901 166.225,-20.4567 181.285,-18.4997"/>
<polygon fill="midnightblue" stroke="midnightblue" points="133.372,-21.1962 123.906,-25.9557 134.274,-28.1379 133.372,-21.1962"/>
</g>
</g>
</svg>
