<?xml version="1.0" encoding="UTF-8" standalone="no"?>
<!DOCTYPE svg PUBLIC "-//W3C//DTD SVG 1.1//EN"
 "http://www.w3.org/Graphics/SVG/1.1/DTD/svg11.dtd">
<!-- Generated by graphviz version 2.26.3 (20100126.1600)
 -->
<!-- Title: CParameterAdaptation::showProperties Pages: 1 -->
<svg width="284pt" height="70pt"
 viewBox="0.00 0.00 284.00 70.00" xmlns="http://www.w3.org/2000/svg" xmlns:xlink="http://www.w3.org/1999/xlink">
<g id="graph1" class="graph" transform="scale(1 1) rotate(0) translate(4 66)">
<title>CParameterAdaptation::showProperties</title>
<polygon fill="white" stroke="white" points="-4,5 -4,-66 281,-66 281,5 -4,5"/>
<!-- Node1 -->
<g id="node1" class="node"><title>Node1</title>
<polygon fill="#bfbfbf" stroke="black" points="0,-14 0,-48 126,-48 126,-14 0,-14"/>
<text text-anchor="start" x="8" y="-35" font-family="Verdana" font-size="10.00">CParameterAdaptation</text>
<text text-anchor="middle" x="63" y="-22" font-family="Verdana" font-size="10.00">::showProperties</text>
</g>
<!-- Node2 -->
<g id="node3" class="node"><title>Node2</title>
<a xlink:href="classCElement.html#a49581fb6412e29e932962acd82d52d6a" target="_top" xlink:title="CElement::getName">
<polygon fill="white" stroke="black" points="162,-40.5 162,-61.5 276,-61.5 276,-40.5 162,-40.5"/>
<text text-anchor="middle" x="219" y="-48.5" font-family="Verdana" font-size="10.00">CElement::getName</text>
</a>
</g>
<!-- Node1&#45;&gt;Node2 -->
<g id="edge2" class="edge"><title>Node1&#45;&gt;Node2</title>
<path fill="none" stroke="midnightblue" d="M126.002,-39.0771C134.511,-40.168 143.267,-41.2907 151.845,-42.3904"/>
<polygon fill="midnightblue" stroke="midnightblue" points="151.444,-45.8675 161.808,-43.6676 152.334,-38.9243 151.444,-45.8675"/>
</g>
<!-- Node3 -->
<g id="node5" class="node"><title>Node3</title>
<a xlink:href="classCElement.html#aacdd6d54c10cd1494a820d78be779362" target="_top" xlink:title="CElement::toString">
<polygon fill="white" stroke="black" points="165.5,-0.5 165.5,-21.5 272.5,-21.5 272.5,-0.5 165.5,-0.5"/>
<text text-anchor="middle" x="219" y="-8.5" font-family="Verdana" font-size="10.00">CElement::toString</text>
</a>
</g>
<!-- Node1&#45;&gt;Node3 -->
<g id="edge4" class="edge"><title>Node1&#45;&gt;Node3</title>
<path fill="none" stroke="midnightblue" d="M126.002,-22.9229C135.667,-21.6838 145.651,-20.4037 155.331,-19.1627"/>
<polygon fill="midnightblue" stroke="midnightblue" points="155.808,-22.6303 165.281,-17.887 154.917,-15.6872 155.808,-22.6303"/>
</g>
</g>
</svg>
