<?xml version="1.0" encoding="UTF-8" standalone="no"?>
<!DOCTYPE svg PUBLIC "-//W3C//DTD SVG 1.1//EN"
 "http://www.w3.org/Graphics/SVG/1.1/DTD/svg11.dtd">
<!-- Generated by graphviz version 2.26.3 (20100126.1600)
 -->
<!-- Title: CConfigurableElement::getSyncer Pages: 1 -->
<svg width="716pt" height="134pt"
 viewBox="0.00 0.00 716.00 134.00" xmlns="http://www.w3.org/2000/svg" xmlns:xlink="http://www.w3.org/1999/xlink">
<g id="graph1" class="graph" transform="scale(1 1) rotate(0) translate(4 130)">
<title>CConfigurableElement::getSyncer</title>
<polygon fill="white" stroke="white" points="-4,5 -4,-130 713,-130 713,5 -4,5"/>
<!-- Node1 -->
<g id="node1" class="node"><title>Node1</title>
<polygon fill="#bfbfbf" stroke="black" points="0.5,-46 0.5,-80 123.5,-80 123.5,-46 0.5,-46"/>
<text text-anchor="start" x="8.5" y="-67" font-family="Verdana" font-size="10.00">CConfigurableElement</text>
<text text-anchor="middle" x="62" y="-54" font-family="Verdana" font-size="10.00">::getSyncer</text>
</g>
<!-- Node2 -->
<g id="node3" class="node"><title>Node2</title>
<a xlink:href="classCConfigurableElement.html#a0b3d6d2477e5ea7c23905604fabdb7bf" target="_top" xlink:title="CConfigurableElement\l::fillSyncerSet">
<polygon fill="white" stroke="black" points="160.5,-46 160.5,-80 283.5,-80 283.5,-46 160.5,-46"/>
<text text-anchor="start" x="168.5" y="-67" font-family="Verdana" font-size="10.00">CConfigurableElement</text>
<text text-anchor="middle" x="222" y="-54" font-family="Verdana" font-size="10.00">::fillSyncerSet</text>
</a>
</g>
<!-- Node1&#45;&gt;Node2 -->
<g id="edge2" class="edge"><title>Node1&#45;&gt;Node2</title>
<path fill="none" stroke="midnightblue" d="M134.061,-63C142.822,-63 151.712,-63 160.304,-63"/>
<polygon fill="midnightblue" stroke="midnightblue" points="133.86,-59.5001 123.86,-63 133.86,-66.5001 133.86,-59.5001"/>
</g>
<!-- Node3 -->
<g id="node5" class="node"><title>Node3</title>
<a xlink:href="classCHardwareBackSynchronizer.html#ad06f7ec68fcd8ce9b878963a39300839" target="_top" xlink:title="CHardwareBackSynchronizer\l::CHardwareBackSynchronizer">
<polygon fill="white" stroke="black" points="336.5,-92 336.5,-126 497.5,-126 497.5,-92 336.5,-92"/>
<text text-anchor="start" x="344.5" y="-113" font-family="Verdana" font-size="10.00">CHardwareBackSynchronizer</text>
<text text-anchor="middle" x="417" y="-100" font-family="Verdana" font-size="10.00">::CHardwareBackSynchronizer</text>
</a>
</g>
<!-- Node2&#45;&gt;Node3 -->
<g id="edge4" class="edge"><title>Node2&#45;&gt;Node3</title>
<path fill="none" stroke="midnightblue" d="M293.886,-79.9577C310.499,-83.8766 328.179,-88.0474 344.805,-91.9693"/>
<polygon fill="midnightblue" stroke="midnightblue" points="294.236,-76.4442 283.699,-77.5547 292.628,-83.2572 294.236,-76.4442"/>
</g>
<!-- Node4 -->
<g id="node7" class="node"><title>Node4</title>
<a xlink:href="classCParameterMgr.html#a3c23f1ef6dbe73de230fe429af194937" target="_top" xlink:title="CParameterMgr::sync">
<polygon fill="white" stroke="black" points="357.5,-52.5 357.5,-73.5 476.5,-73.5 476.5,-52.5 357.5,-52.5"/>
<text text-anchor="middle" x="417" y="-60.5" font-family="Verdana" font-size="10.00">CParameterMgr::sync</text>
</a>
</g>
<!-- Node2&#45;&gt;Node4 -->
<g id="edge6" class="edge"><title>Node2&#45;&gt;Node4</title>
<path fill="none" stroke="midnightblue" d="M293.805,-63C314.706,-63 337.303,-63 357.368,-63"/>
<polygon fill="midnightblue" stroke="midnightblue" points="293.699,-59.5001 283.699,-63 293.699,-66.5001 293.699,-59.5001"/>
</g>
<!-- Node6 -->
<g id="node11" class="node"><title>Node6</title>
<a xlink:href="classCSystemClass.html#ab71ea33fad4ce8978ad2577314146fec" target="_top" xlink:title="Look for subsystems that need to be resynchronized. ">
<polygon fill="white" stroke="black" points="320,-0 320,-34 514,-34 514,-0 320,-0"/>
<text text-anchor="start" x="328" y="-21" font-family="Verdana" font-size="10.00">CSystemClass::checkForSubsystems</text>
<text text-anchor="middle" x="417" y="-8" font-family="Verdana" font-size="10.00">ToResync</text>
</a>
</g>
<!-- Node2&#45;&gt;Node6 -->
<g id="edge10" class="edge"><title>Node2&#45;&gt;Node6</title>
<path fill="none" stroke="midnightblue" d="M293.886,-46.0423C310.499,-42.1234 328.179,-37.9526 344.805,-34.0307"/>
<polygon fill="midnightblue" stroke="midnightblue" points="292.628,-42.7428 283.699,-48.4453 294.236,-49.5558 292.628,-42.7428"/>
</g>
<!-- Node5 -->
<g id="node9" class="node"><title>Node5</title>
<a xlink:href="classCParameterMgr.html#acdcc1016dc61898195e8855979803572" target="_top" xlink:title="Sync. ">
<polygon fill="white" stroke="black" points="550,-52.5 550,-73.5 708,-73.5 708,-52.5 550,-52.5"/>
<text text-anchor="middle" x="629" y="-60.5" font-family="Verdana" font-size="10.00">CParameterMgr::setAutoSync</text>
</a>
</g>
<!-- Node4&#45;&gt;Node5 -->
<g id="edge8" class="edge"><title>Node4&#45;&gt;Node5</title>
<path fill="none" stroke="midnightblue" d="M486.646,-63C506.801,-63 528.95,-63 549.65,-63"/>
<polygon fill="midnightblue" stroke="midnightblue" points="486.618,-59.5001 476.618,-63 486.618,-66.5001 486.618,-59.5001"/>
</g>
</g>
</svg>
