<?xml version="1.0" encoding="UTF-8" standalone="no"?>
<!DOCTYPE svg PUBLIC "-//W3C//DTD SVG 1.1//EN"
 "http://www.w3.org/Graphics/SVG/1.1/DTD/svg11.dtd">
<!-- Generated by graphviz version 2.26.3 (20100126.1600)
 -->
<!-- Title: CBitParameterBlock::setDefaultValues Pages: 1 -->
<svg width="502pt" height="302pt"
 viewBox="0.00 0.00 502.00 302.00" xmlns="http://www.w3.org/2000/svg" xmlns:xlink="http://www.w3.org/1999/xlink">
<g id="graph1" class="graph" transform="scale(1 1) rotate(0) translate(4 298)">
<title>CBitParameterBlock::setDefaultValues</title>
<polygon fill="white" stroke="white" points="-4,5 -4,-298 499,-298 499,5 -4,5"/>
<!-- Node1 -->
<g id="node1" class="node"><title>Node1</title>
<polygon fill="#bfbfbf" stroke="black" points="0,-130 0,-164 112,-164 112,-130 0,-130"/>
<text text-anchor="start" x="8" y="-151" font-family="Verdana" font-size="10.00">CBitParameterBlock</text>
<text text-anchor="middle" x="56" y="-138" font-family="Verdana" font-size="10.00">::setDefaultValues</text>
</g>
<!-- Node2 -->
<g id="node3" class="node"><title>Node2</title>
<a xlink:href="classCParameterAccessContext.html#ad354dd5bf2a88f4ed4197be9a59fda20" target="_top" xlink:title="CParameterAccessContext\l::getParameterBlackboard">
<polygon fill="white" stroke="black" points="148.5,-260 148.5,-294 293.5,-294 293.5,-260 148.5,-260"/>
<text text-anchor="start" x="156.5" y="-281" font-family="Verdana" font-size="10.00">CParameterAccessContext</text>
<text text-anchor="middle" x="221" y="-268" font-family="Verdana" font-size="10.00">::getParameterBlackboard</text>
</a>
</g>
<!-- Node1&#45;&gt;Node2 -->
<g id="edge2" class="edge"><title>Node1&#45;&gt;Node2</title>
<path fill="none" stroke="midnightblue" d="M67.0396,-164.161C82.546,-186.995 112.849,-227.242 148,-251 150.146,-252.45 152.381,-253.829 154.682,-255.14"/>
<polygon fill="midnightblue" stroke="midnightblue" points="153.327,-258.38 163.818,-259.86 156.54,-252.161 153.327,-258.38"/>
</g>
<!-- Node3 -->
<g id="node5" class="node"><title>Node3</title>
<a xlink:href="classCParameterBlackboard.html#acebc8035bb3e73be7ece4fcb5169b474" target="_top" xlink:title="CParameterBlackboard\l::writeInteger">
<polygon fill="white" stroke="black" points="157.5,-208 157.5,-242 284.5,-242 284.5,-208 157.5,-208"/>
<text text-anchor="start" x="165.5" y="-229" font-family="Verdana" font-size="10.00">CParameterBlackboard</text>
<text text-anchor="middle" x="221" y="-216" font-family="Verdana" font-size="10.00">::writeInteger</text>
</a>
</g>
<!-- Node1&#45;&gt;Node3 -->
<g id="edge4" class="edge"><title>Node1&#45;&gt;Node3</title>
<path fill="none" stroke="midnightblue" d="M83.5304,-164.216C101.477,-175.02 125.636,-188.789 148,-199 151.855,-200.76 155.867,-202.481 159.938,-204.145"/>
<polygon fill="midnightblue" stroke="midnightblue" points="158.913,-207.503 169.5,-207.918 161.483,-200.992 158.913,-207.503"/>
</g>
<!-- Node4 -->
<g id="node7" class="node"><title>Node4</title>
<a xlink:href="classCBitParameterBlock.html#aad6b4447beb278e093a1c6eedab9f87a" target="_top" xlink:title="CBitParameterBlock\l::getSize">
<polygon fill="white" stroke="black" points="165,-156 165,-190 277,-190 277,-156 165,-156"/>
<text text-anchor="start" x="173" y="-177" font-family="Verdana" font-size="10.00">CBitParameterBlock</text>
<text text-anchor="middle" x="221" y="-164" font-family="Verdana" font-size="10.00">::getSize</text>
</a>
</g>
<!-- Node1&#45;&gt;Node4 -->
<g id="edge6" class="edge"><title>Node1&#45;&gt;Node4</title>
<path fill="none" stroke="midnightblue" d="M112.322,-155.875C125.995,-158.029 140.737,-160.353 154.819,-162.572"/>
<polygon fill="midnightblue" stroke="midnightblue" points="154.509,-166.066 164.932,-164.165 155.598,-159.151 154.509,-166.066"/>
</g>
<!-- Node6 -->
<g id="node11" class="node"><title>Node6</title>
<a xlink:href="classCConfigurableElement.html#a29d61e6d09ff508ebb87aea802f2704e" target="_top" xlink:title="CConfigurableElement\l::getOffset">
<polygon fill="white" stroke="black" points="159.5,-104 159.5,-138 282.5,-138 282.5,-104 159.5,-104"/>
<text text-anchor="start" x="167.5" y="-125" font-family="Verdana" font-size="10.00">CConfigurableElement</text>
<text text-anchor="middle" x="221" y="-112" font-family="Verdana" font-size="10.00">::getOffset</text>
</a>
</g>
<!-- Node1&#45;&gt;Node6 -->
<g id="edge10" class="edge"><title>Node1&#45;&gt;Node6</title>
<path fill="none" stroke="midnightblue" d="M112.322,-138.125C124.138,-136.263 136.753,-134.275 149.049,-132.338"/>
<polygon fill="midnightblue" stroke="midnightblue" points="149.946,-135.74 159.28,-130.726 148.857,-128.825 149.946,-135.74"/>
</g>
<!-- Node7 -->
<g id="node13" class="node"><title>Node7</title>
<a xlink:href="classCParameterAccessContext.html#a8373a015bb145386732483ee3f6bdf63" target="_top" xlink:title="CParameterAccessContext\l::getBaseOffset">
<polygon fill="white" stroke="black" points="148.5,-52 148.5,-86 293.5,-86 293.5,-52 148.5,-52"/>
<text text-anchor="start" x="156.5" y="-73" font-family="Verdana" font-size="10.00">CParameterAccessContext</text>
<text text-anchor="middle" x="221" y="-60" font-family="Verdana" font-size="10.00">::getBaseOffset</text>
</a>
</g>
<!-- Node1&#45;&gt;Node7 -->
<g id="edge12" class="edge"><title>Node1&#45;&gt;Node7</title>
<path fill="none" stroke="midnightblue" d="M83.5304,-129.784C101.477,-118.98 125.636,-105.211 148,-95 151.855,-93.2399 155.867,-91.5193 159.938,-89.8551"/>
<polygon fill="midnightblue" stroke="midnightblue" points="161.483,-93.0083 169.5,-86.0824 158.913,-86.4968 161.483,-93.0083"/>
</g>
<!-- Node8 -->
<g id="node15" class="node"><title>Node8</title>
<a xlink:href="classCParameterAccessContext.html#aedfc1595e099d7a4cf5318e3013147c9" target="_top" xlink:title="CParameterAccessContext\l::isBigEndianSubsystem">
<polygon fill="white" stroke="black" points="148.5,-0 148.5,-34 293.5,-34 293.5,-0 148.5,-0"/>
<text text-anchor="start" x="156.5" y="-21" font-family="Verdana" font-size="10.00">CParameterAccessContext</text>
<text text-anchor="middle" x="221" y="-8" font-family="Verdana" font-size="10.00">::isBigEndianSubsystem</text>
</a>
</g>
<!-- Node1&#45;&gt;Node8 -->
<g id="edge14" class="edge"><title>Node1&#45;&gt;Node8</title>
<path fill="none" stroke="midnightblue" d="M67.0396,-129.839C82.546,-107.005 112.849,-66.758 148,-43 150.146,-41.5498 152.381,-40.1707 154.682,-38.8601"/>
<polygon fill="midnightblue" stroke="midnightblue" points="156.54,-41.8395 163.818,-34.1401 153.327,-35.6203 156.54,-41.8395"/>
</g>
<!-- Node5 -->
<g id="node9" class="node"><title>Node5</title>
<a xlink:href="classCInstanceConfigurableElement.html#ae2d941df411f8ec4c025cbd04d3ba421" target="_top" xlink:title="CInstanceConfigurableElement\l::getTypeElement">
<polygon fill="white" stroke="black" points="330,-156 330,-190 494,-190 494,-156 330,-156"/>
<text text-anchor="start" x="338" y="-177" font-family="Verdana" font-size="10.00">CInstanceConfigurableElement</text>
<text text-anchor="middle" x="412" y="-164" font-family="Verdana" font-size="10.00">::getTypeElement</text>
</a>
</g>
<!-- Node4&#45;&gt;Node5 -->
<g id="edge8" class="edge"><title>Node4&#45;&gt;Node5</title>
<path fill="none" stroke="midnightblue" d="M277.016,-173C290.431,-173 305.108,-173 319.686,-173"/>
<polygon fill="midnightblue" stroke="midnightblue" points="319.746,-176.5 329.746,-173 319.746,-169.5 319.746,-176.5"/>
</g>
</g>
</svg>
