<?xml version="1.0" encoding="UTF-8" standalone="no"?>
<!DOCTYPE svg PUBLIC "-//W3C//DTD SVG 1.1//EN"
 "http://www.w3.org/Graphics/SVG/1.1/DTD/svg11.dtd">
<!-- Generated by graphviz version 2.26.3 (20100126.1600)
 -->
<!-- Title: CParameterMgr::exportSingleDomainXml Pages: 1 -->
<svg width="496pt" height="146pt"
 viewBox="0.00 0.00 496.00 146.00" xmlns="http://www.w3.org/2000/svg" xmlns:xlink="http://www.w3.org/1999/xlink">
<g id="graph1" class="graph" transform="scale(1 1) rotate(0) translate(4 142)">
<title>CParameterMgr::exportSingleDomainXml</title>
<polygon fill="white" stroke="white" points="-4,5 -4,-142 493,-142 493,5 -4,5"/>
<!-- Node1 -->
<g id="node1" class="node"><title>Node1</title>
<polygon fill="#bfbfbf" stroke="black" points="0,-52 0,-86 158,-86 158,-52 0,-52"/>
<text text-anchor="start" x="8" y="-73" font-family="Verdana" font-size="10.00">CParameterMgr::exportSingle</text>
<text text-anchor="middle" x="79" y="-60" font-family="Verdana" font-size="10.00">DomainXml</text>
</g>
<!-- Node2 -->
<g id="node3" class="node"><title>Node2</title>
<a xlink:href="classCConfigurableDomains.html#a4dce38a1560b6e33871d3fa2d85cc449" target="_top" xlink:title="CConfigurableDomains\l::findConfigurableDomain">
<polygon fill="white" stroke="black" points="199.5,-104 199.5,-138 336.5,-138 336.5,-104 199.5,-104"/>
<text text-anchor="start" x="207.5" y="-125" font-family="Verdana" font-size="10.00">CConfigurableDomains</text>
<text text-anchor="middle" x="268" y="-112" font-family="Verdana" font-size="10.00">::findConfigurableDomain</text>
</a>
</g>
<!-- Node1&#45;&gt;Node2 -->
<g id="edge2" class="edge"><title>Node1&#45;&gt;Node2</title>
<path fill="none" stroke="midnightblue" d="M140.886,-86.0267C158.589,-90.8976 178.034,-96.2474 196.274,-101.266"/>
<polygon fill="midnightblue" stroke="midnightblue" points="195.405,-104.657 205.975,-103.935 197.262,-97.9076 195.405,-104.657"/>
</g>
<!-- Node4 -->
<g id="node7" class="node"><title>Node4</title>
<a xlink:href="classCXmlDomainExportContext.html#af96234ea49123b30efa51a7023f07c8f" target="_top" xlink:title="CXmlDomainExportContext\l::setValueSpaceRaw">
<polygon fill="white" stroke="black" points="194.5,-52 194.5,-86 341.5,-86 341.5,-52 194.5,-52"/>
<text text-anchor="start" x="202.5" y="-73" font-family="Verdana" font-size="10.00">CXmlDomainExportContext</text>
<text text-anchor="middle" x="268" y="-60" font-family="Verdana" font-size="10.00">::setValueSpaceRaw</text>
</a>
</g>
<!-- Node1&#45;&gt;Node4 -->
<g id="edge6" class="edge"><title>Node1&#45;&gt;Node4</title>
<path fill="none" stroke="midnightblue" d="M158.058,-69C166.71,-69 175.539,-69 184.245,-69"/>
<polygon fill="midnightblue" stroke="midnightblue" points="184.391,-72.5001 194.391,-69 184.391,-65.5001 184.391,-72.5001"/>
</g>
<!-- Node5 -->
<g id="node9" class="node"><title>Node5</title>
<a xlink:href="classCXmlDomainExportContext.html#a76304ae01cb688634fb64dab8717fb7d" target="_top" xlink:title="CXmlDomainExportContext\l::setOutputRawFormat">
<polygon fill="white" stroke="black" points="194.5,-0 194.5,-34 341.5,-34 341.5,-0 194.5,-0"/>
<text text-anchor="start" x="202.5" y="-21" font-family="Verdana" font-size="10.00">CXmlDomainExportContext</text>
<text text-anchor="middle" x="268" y="-8" font-family="Verdana" font-size="10.00">::setOutputRawFormat</text>
</a>
</g>
<!-- Node1&#45;&gt;Node5 -->
<g id="edge8" class="edge"><title>Node1&#45;&gt;Node5</title>
<path fill="none" stroke="midnightblue" d="M140.886,-51.9733C158.589,-47.1024 178.034,-41.7526 196.274,-36.7341"/>
<polygon fill="midnightblue" stroke="midnightblue" points="197.262,-40.0924 205.975,-34.065 195.405,-33.3432 197.262,-40.0924"/>
</g>
<!-- Node3 -->
<g id="node5" class="node"><title>Node3</title>
<a xlink:href="classCElement.html#a8595814a3159f32f874269907e70b260" target="_top" xlink:title="CElement::findChild">
<polygon fill="white" stroke="black" points="378,-110.5 378,-131.5 488,-131.5 488,-110.5 378,-110.5"/>
<text text-anchor="middle" x="433" y="-118.5" font-family="Verdana" font-size="10.00">CElement::findChild</text>
</a>
</g>
<!-- Node2&#45;&gt;Node3 -->
<g id="edge4" class="edge"><title>Node2&#45;&gt;Node3</title>
<path fill="none" stroke="midnightblue" d="M336.541,-121C346.901,-121 357.563,-121 367.848,-121"/>
<polygon fill="midnightblue" stroke="midnightblue" points="367.982,-124.5 377.982,-121 367.982,-117.5 367.982,-124.5"/>
</g>
</g>
</svg>
