<?xml version="1.0" encoding="UTF-8" standalone="no"?>
<!DOCTYPE svg PUBLIC "-//W3C//DTD SVG 1.1//EN"
 "http://www.w3.org/Graphics/SVG/1.1/DTD/svg11.dtd">
<!-- Generated by graphviz version 2.26.3 (20100126.1600)
 -->
<!-- Title: CCompoundRule::matches Pages: 1 -->
<svg width="326pt" height="110pt"
 viewBox="0.00 0.00 326.00 110.00" xmlns="http://www.w3.org/2000/svg" xmlns:xlink="http://www.w3.org/1999/xlink">
<g id="graph1" class="graph" transform="scale(1 1) rotate(0) translate(4 106)">
<title>CCompoundRule::matches</title>
<polygon fill="white" stroke="white" points="-4,5 -4,-106 323,-106 323,5 -4,5"/>
<!-- Node1 -->
<g id="node1" class="node"><title>Node1</title>
<polygon fill="#bfbfbf" stroke="black" points="0.5,-40.5 0.5,-61.5 143.5,-61.5 143.5,-40.5 0.5,-40.5"/>
<text text-anchor="middle" x="72" y="-48.5" font-family="Verdana" font-size="10.00">CCompoundRule::matches</text>
</g>
<!-- Node2 -->
<g id="node3" class="node"><title>Node2</title>
<a xlink:href="classCElement.html#a25f58d9d8b35e770806d669fb2a378e4" target="_top" xlink:title="CElement::getNbChildren">
<polygon fill="white" stroke="black" points="180.5,-80.5 180.5,-101.5 317.5,-101.5 317.5,-80.5 180.5,-80.5"/>
<text text-anchor="middle" x="249" y="-88.5" font-family="Verdana" font-size="10.00">CElement::getNbChildren</text>
</a>
</g>
<!-- Node1&#45;&gt;Node2 -->
<g id="edge2" class="edge"><title>Node1&#45;&gt;Node2</title>
<path fill="none" stroke="midnightblue" d="M118.505,-61.5095C141.179,-66.6337 168.642,-72.8399 192.513,-78.2345"/>
<polygon fill="midnightblue" stroke="midnightblue" points="191.973,-81.7008 202.499,-80.4913 193.516,-74.873 191.973,-81.7008"/>
</g>
<!-- Node3 -->
<g id="node5" class="node"><title>Node3</title>
<a xlink:href="classCElement.html#a41bf126c3fdbb5bec0c2c3dcf35e9079" target="_top" xlink:title="CElement::getChild">
<polygon fill="white" stroke="black" points="195,-40.5 195,-61.5 303,-61.5 303,-40.5 195,-40.5"/>
<text text-anchor="middle" x="249" y="-48.5" font-family="Verdana" font-size="10.00">CElement::getChild</text>
</a>
</g>
<!-- Node1&#45;&gt;Node3 -->
<g id="edge4" class="edge"><title>Node1&#45;&gt;Node3</title>
<path fill="none" stroke="midnightblue" d="M143.738,-51C157.33,-51 171.47,-51 184.811,-51"/>
<polygon fill="midnightblue" stroke="midnightblue" points="184.835,-54.5001 194.835,-51 184.835,-47.5001 184.835,-54.5001"/>
</g>
<!-- Node4 -->
<g id="node7" class="node"><title>Node4</title>
<a xlink:href="classCRule.html#aaeeed8a6ca4a3e87ee75282df22fa01a" target="_top" xlink:title="CRule::matches">
<polygon fill="white" stroke="black" points="203.5,-0.5 203.5,-21.5 294.5,-21.5 294.5,-0.5 203.5,-0.5"/>
<text text-anchor="middle" x="249" y="-8.5" font-family="Verdana" font-size="10.00">CRule::matches</text>
</a>
</g>
<!-- Node1&#45;&gt;Node4 -->
<g id="edge6" class="edge"><title>Node1&#45;&gt;Node4</title>
<path fill="none" stroke="midnightblue" d="M118.505,-40.4905C141.448,-35.3055 169.294,-29.0127 193.36,-23.5739"/>
<polygon fill="midnightblue" stroke="midnightblue" points="194.436,-26.9193 203.418,-21.301 192.893,-20.0915 194.436,-26.9193"/>
</g>
</g>
</svg>
