<?xml version="1.0" encoding="UTF-8" standalone="no"?>
<!DOCTYPE svg PUBLIC "-//W3C//DTD SVG 1.1//EN"
 "http://www.w3.org/Graphics/SVG/1.1/DTD/svg11.dtd">
<!-- Generated by graphviz version 2.26.3 (20100126.1600)
 -->
<!-- Title: CParameterAccessContext::valueSpaceIsRaw Pages: 1 -->
<svg width="344pt" height="354pt"
 viewBox="0.00 0.00 344.00 354.00" xmlns="http://www.w3.org/2000/svg" xmlns:xlink="http://www.w3.org/1999/xlink">
<g id="graph1" class="graph" transform="scale(1 1) rotate(0) translate(4 350)">
<title>CParameterAccessContext::valueSpaceIsRaw</title>
<polygon fill="white" stroke="white" points="-4,5 -4,-350 341,-350 341,5 -4,5"/>
<!-- Node1 -->
<g id="node1" class="node"><title>Node1</title>
<polygon fill="#bfbfbf" stroke="black" points="0.5,-156 0.5,-190 145.5,-190 145.5,-156 0.5,-156"/>
<text text-anchor="start" x="8.5" y="-177" font-family="Verdana" font-size="10.00">CParameterAccessContext</text>
<text text-anchor="middle" x="73" y="-164" font-family="Verdana" font-size="10.00">::valueSpaceIsRaw</text>
</g>
<!-- Node2 -->
<g id="node3" class="node"><title>Node2</title>
<a xlink:href="classCBitParameterType.html#ac5ad1a455f0963dc23020bc989105039" target="_top" xlink:title="CBitParameterType::\lfromBlackboard">
<polygon fill="white" stroke="black" points="202.5,-312 202.5,-346 315.5,-346 315.5,-312 202.5,-312"/>
<text text-anchor="start" x="210.5" y="-333" font-family="Verdana" font-size="10.00">CBitParameterType::</text>
<text text-anchor="middle" x="259" y="-320" font-family="Verdana" font-size="10.00">fromBlackboard</text>
</a>
</g>
<!-- Node1&#45;&gt;Node2 -->
<g id="edge2" class="edge"><title>Node1&#45;&gt;Node2</title>
<path fill="none" stroke="midnightblue" d="M88.6586,-199.187C107.403,-228.423 141.402,-275.265 182,-303 188.175,-307.218 195.093,-310.804 202.183,-313.839"/>
<polygon fill="midnightblue" stroke="midnightblue" points="91.3996,-196.97 83.1199,-190.359 85.4701,-200.69 91.3996,-196.97"/>
</g>
<!-- Node3 -->
<g id="node5" class="node"><title>Node3</title>
<a xlink:href="classCBooleanParameterType.html#a3e0df35be7e20a21a8401765160eb5f0" target="_top" xlink:title="CBooleanParameterType\l::fromBlackboard">
<polygon fill="white" stroke="black" points="192,-260 192,-294 326,-294 326,-260 192,-260"/>
<text text-anchor="start" x="200" y="-281" font-family="Verdana" font-size="10.00">CBooleanParameterType</text>
<text text-anchor="middle" x="259" y="-268" font-family="Verdana" font-size="10.00">::fromBlackboard</text>
</a>
</g>
<!-- Node1&#45;&gt;Node3 -->
<g id="edge4" class="edge"><title>Node1&#45;&gt;Node3</title>
<path fill="none" stroke="midnightblue" d="M101.039,-196.618C122.214,-213.543 152.563,-235.922 182,-251 188.405,-254.281 195.313,-257.286 202.271,-259.996"/>
<polygon fill="midnightblue" stroke="midnightblue" points="103.088,-193.773 93.1152,-190.196 98.6804,-199.211 103.088,-193.773"/>
</g>
<!-- Node4 -->
<g id="node7" class="node"><title>Node4</title>
<a xlink:href="classCEnumParameterType.html#a0bd3061022ff86f0a244575b89ab8a48" target="_top" xlink:title="CEnumParameterType\l::fromBlackboard">
<polygon fill="white" stroke="black" points="198,-208 198,-242 320,-242 320,-208 198,-208"/>
<text text-anchor="start" x="206" y="-229" font-family="Verdana" font-size="10.00">CEnumParameterType</text>
<text text-anchor="middle" x="259" y="-216" font-family="Verdana" font-size="10.00">::fromBlackboard</text>
</a>
</g>
<!-- Node1&#45;&gt;Node4 -->
<g id="edge6" class="edge"><title>Node1&#45;&gt;Node4</title>
<path fill="none" stroke="midnightblue" d="M143.694,-192.764C161.567,-197.761 180.609,-203.084 197.96,-207.935"/>
<polygon fill="midnightblue" stroke="midnightblue" points="144.476,-189.349 133.903,-190.027 142.592,-196.09 144.476,-189.349"/>
</g>
<!-- Node5 -->
<g id="node9" class="node"><title>Node5</title>
<a xlink:href="classCFixedPointParameterType.html#ac5dd869d9846a4e999fe9715b397c17d" target="_top" xlink:title="CFixedPointParameterType\l::handleValueSpaceAttribute">
<polygon fill="white" stroke="black" points="182.5,-156 182.5,-190 335.5,-190 335.5,-156 182.5,-156"/>
<text text-anchor="start" x="190.5" y="-177" font-family="Verdana" font-size="10.00">CFixedPointParameterType</text>
<text text-anchor="middle" x="259" y="-164" font-family="Verdana" font-size="10.00">::handleValueSpaceAttribute</text>
</a>
</g>
<!-- Node1&#45;&gt;Node5 -->
<g id="edge8" class="edge"><title>Node1&#45;&gt;Node5</title>
<path fill="none" stroke="midnightblue" d="M155.95,-173C164.735,-173 173.641,-173 182.349,-173"/>
<polygon fill="midnightblue" stroke="midnightblue" points="155.712,-169.5 145.712,-173 155.712,-176.5 155.712,-169.5"/>
</g>
<!-- Node6 -->
<g id="node11" class="node"><title>Node6</title>
<a xlink:href="classCFixedPointParameterType.html#a8082571fa9099a8eb25820ce259b2d1d" target="_top" xlink:title="Conversion. ">
<polygon fill="white" stroke="black" points="187.5,-104 187.5,-138 330.5,-138 330.5,-104 187.5,-104"/>
<text text-anchor="start" x="195.5" y="-125" font-family="Verdana" font-size="10.00">CFixedPointParameterType</text>
<text text-anchor="middle" x="259" y="-112" font-family="Verdana" font-size="10.00">::toBlackboard</text>
</a>
</g>
<!-- Node1&#45;&gt;Node6 -->
<g id="edge10" class="edge"><title>Node1&#45;&gt;Node6</title>
<path fill="none" stroke="midnightblue" d="M143.694,-153.236C161.567,-148.239 180.609,-142.916 197.96,-138.065"/>
<polygon fill="midnightblue" stroke="midnightblue" points="142.592,-149.91 133.903,-155.973 144.476,-156.651 142.592,-149.91"/>
</g>
<!-- Node7 -->
<g id="node13" class="node"><title>Node7</title>
<a xlink:href="classCFixedPointParameterType.html#a915d48511911653dc8ddf03cf39dc0ec" target="_top" xlink:title="CFixedPointParameterType\l::fromBlackboard">
<polygon fill="white" stroke="black" points="187.5,-52 187.5,-86 330.5,-86 330.5,-52 187.5,-52"/>
<text text-anchor="start" x="195.5" y="-73" font-family="Verdana" font-size="10.00">CFixedPointParameterType</text>
<text text-anchor="middle" x="259" y="-60" font-family="Verdana" font-size="10.00">::fromBlackboard</text>
</a>
</g>
<!-- Node1&#45;&gt;Node7 -->
<g id="edge12" class="edge"><title>Node1&#45;&gt;Node7</title>
<path fill="none" stroke="midnightblue" d="M101.039,-149.382C122.214,-132.457 152.563,-110.078 182,-95 188.405,-91.7194 195.313,-88.7141 202.271,-86.0045"/>
<polygon fill="midnightblue" stroke="midnightblue" points="98.6804,-146.789 93.1152,-155.804 103.088,-152.227 98.6804,-146.789"/>
</g>
<!-- Node8 -->
<g id="node15" class="node"><title>Node8</title>
<a xlink:href="classCIntegerParameterType.html#a20f5eb6c8e4cea3d1f0ccdb92e1d008c" target="_top" xlink:title="CIntegerParameterType\l::fromBlackboard">
<polygon fill="white" stroke="black" points="195,-0 195,-34 323,-34 323,-0 195,-0"/>
<text text-anchor="start" x="203" y="-21" font-family="Verdana" font-size="10.00">CIntegerParameterType</text>
<text text-anchor="middle" x="259" y="-8" font-family="Verdana" font-size="10.00">::fromBlackboard</text>
</a>
</g>
<!-- Node1&#45;&gt;Node8 -->
<g id="edge14" class="edge"><title>Node1&#45;&gt;Node8</title>
<path fill="none" stroke="midnightblue" d="M88.6586,-146.813C107.403,-117.577 141.402,-70.735 182,-43 186.893,-39.6571 192.253,-36.7113 197.796,-34.1223"/>
<polygon fill="midnightblue" stroke="midnightblue" points="85.4701,-145.31 83.1199,-155.641 91.3996,-149.03 85.4701,-145.31"/>
</g>
</g>
</svg>
