<?xml version="1.0" encoding="UTF-8" standalone="no"?>
<!DOCTYPE svg PUBLIC "-//W3C//DTD SVG 1.1//EN"
 "http://www.w3.org/Graphics/SVG/1.1/DTD/svg11.dtd">
<!-- Generated by graphviz version 2.26.3 (20100126.1600)
 -->
<!-- Title: CSelectionCriterionRule::matches Pages: 1 -->
<svg width="294pt" height="186pt"
 viewBox="0.00 0.00 294.00 186.00" xmlns="http://www.w3.org/2000/svg" xmlns:xlink="http://www.w3.org/1999/xlink">
<g id="graph1" class="graph" transform="scale(1 1) rotate(0) translate(4 182)">
<title>CSelectionCriterionRule::matches</title>
<polygon fill="white" stroke="white" points="-4,5 -4,-182 291,-182 291,5 -4,5"/>
<!-- Node1 -->
<g id="node1" class="node"><title>Node1</title>
<polygon fill="#bfbfbf" stroke="black" points="0,-78 0,-112 128,-112 128,-78 0,-78"/>
<text text-anchor="start" x="8" y="-99" font-family="Verdana" font-size="10.00">CSelectionCriterionRule</text>
<text text-anchor="middle" x="64" y="-86" font-family="Verdana" font-size="10.00">::matches</text>
</g>
<!-- Node2 -->
<g id="node3" class="node"><title>Node2</title>
<a xlink:href="classCSelectionCriterion.html#abbab920fc981b01017600a2635b7d336" target="_top" xlink:title="Match methods. ">
<polygon fill="white" stroke="black" points="164,-156.5 164,-177.5 286,-177.5 286,-156.5 164,-156.5"/>
<text text-anchor="middle" x="225" y="-164.5" font-family="Verdana" font-size="10.00">CSelectionCriterion::is</text>
</a>
</g>
<!-- Node1&#45;&gt;Node2 -->
<g id="edge2" class="edge"><title>Node1&#45;&gt;Node2</title>
<path fill="none" stroke="midnightblue" d="M93.5827,-112.005C113.172,-122.857 139.65,-136.757 164,-147 169.072,-149.134 174.457,-151.188 179.845,-153.115"/>
<polygon fill="midnightblue" stroke="midnightblue" points="178.886,-156.486 189.481,-156.434 181.166,-149.868 178.886,-156.486"/>
</g>
<!-- Node3 -->
<g id="node5" class="node"><title>Node3</title>
<a xlink:href="classCSelectionCriterion.html#a5200b3e9783e61aef340562c5cc6c386" target="_top" xlink:title="CSelectionCriterion\l::isNot">
<polygon fill="white" stroke="black" points="171,-104 171,-138 279,-138 279,-104 171,-104"/>
<text text-anchor="start" x="179" y="-125" font-family="Verdana" font-size="10.00">CSelectionCriterion</text>
<text text-anchor="middle" x="225" y="-112" font-family="Verdana" font-size="10.00">::isNot</text>
</a>
</g>
<!-- Node1&#45;&gt;Node3 -->
<g id="edge4" class="edge"><title>Node1&#45;&gt;Node3</title>
<path fill="none" stroke="midnightblue" d="M128.094,-105.351C138.859,-107.089 150.034,-108.894 160.802,-110.633"/>
<polygon fill="midnightblue" stroke="midnightblue" points="160.545,-114.136 170.975,-112.275 161.661,-107.226 160.545,-114.136"/>
</g>
<!-- Node4 -->
<g id="node7" class="node"><title>Node4</title>
<a xlink:href="classCSelectionCriterion.html#ad4fe81eefb06a2f59152ec1f8464f376" target="_top" xlink:title="CSelectionCriterion\l::includes">
<polygon fill="white" stroke="black" points="171,-52 171,-86 279,-86 279,-52 171,-52"/>
<text text-anchor="start" x="179" y="-73" font-family="Verdana" font-size="10.00">CSelectionCriterion</text>
<text text-anchor="middle" x="225" y="-60" font-family="Verdana" font-size="10.00">::includes</text>
</a>
</g>
<!-- Node1&#45;&gt;Node4 -->
<g id="edge6" class="edge"><title>Node1&#45;&gt;Node4</title>
<path fill="none" stroke="midnightblue" d="M128.094,-84.6494C138.859,-82.9109 150.034,-81.1064 160.802,-79.3674"/>
<polygon fill="midnightblue" stroke="midnightblue" points="161.661,-82.7741 170.975,-77.7246 160.545,-75.8637 161.661,-82.7741"/>
</g>
<!-- Node5 -->
<g id="node9" class="node"><title>Node5</title>
<a xlink:href="classCSelectionCriterion.html#a4346a1fe3e5b52ae98213f696998675f" target="_top" xlink:title="CSelectionCriterion\l::excludes">
<polygon fill="white" stroke="black" points="171,-0 171,-34 279,-34 279,-0 171,-0"/>
<text text-anchor="start" x="179" y="-21" font-family="Verdana" font-size="10.00">CSelectionCriterion</text>
<text text-anchor="middle" x="225" y="-8" font-family="Verdana" font-size="10.00">::excludes</text>
</a>
</g>
<!-- Node1&#45;&gt;Node5 -->
<g id="edge8" class="edge"><title>Node1&#45;&gt;Node5</title>
<path fill="none" stroke="midnightblue" d="M95.2176,-77.9821C114.787,-67.5108 140.644,-54.0303 164,-43 167.373,-41.4069 170.87,-39.8004 174.405,-38.2096"/>
<polygon fill="midnightblue" stroke="midnightblue" points="176.065,-41.3026 183.793,-34.0549 173.232,-34.9015 176.065,-41.3026"/>
</g>
</g>
</svg>
