<?xml version="1.0" encoding="UTF-8" standalone="no"?>
<!DOCTYPE svg PUBLIC "-//W3C//DTD SVG 1.1//EN"
 "http://www.w3.org/Graphics/SVG/1.1/DTD/svg11.dtd">
<!-- Generated by graphviz version 2.26.3 (20100126.1600)
 -->
<!-- Title: CTypeElement::instantiate Pages: 1 -->
<svg width="624pt" height="42pt"
 viewBox="0.00 0.00 624.00 42.00" xmlns="http://www.w3.org/2000/svg" xmlns:xlink="http://www.w3.org/1999/xlink">
<g id="graph1" class="graph" transform="scale(1 1) rotate(0) translate(4 38)">
<title>CTypeElement::instantiate</title>
<polygon fill="white" stroke="white" points="-4,5 -4,-38 621,-38 621,5 -4,5"/>
<!-- Node1 -->
<g id="node1" class="node"><title>Node1</title>
<polygon fill="#bfbfbf" stroke="black" points="0.5,-6.5 0.5,-27.5 141.5,-27.5 141.5,-6.5 0.5,-6.5"/>
<text text-anchor="middle" x="71" y="-14.5" font-family="Verdana" font-size="10.00">CTypeElement::instantiate</text>
</g>
<!-- Node2 -->
<g id="node3" class="node"><title>Node2</title>
<a xlink:href="classCTypeElement.html#a7cdfd91a35b67d17fb2c92f8a2883854" target="_top" xlink:title="CTypeElement::populate">
<polygon fill="white" stroke="black" points="178,-6.5 178,-27.5 310,-27.5 310,-6.5 178,-6.5"/>
<text text-anchor="middle" x="244" y="-14.5" font-family="Verdana" font-size="10.00">CTypeElement::populate</text>
</a>
</g>
<!-- Node1&#45;&gt;Node2 -->
<g id="edge2" class="edge"><title>Node1&#45;&gt;Node2</title>
<path fill="none" stroke="midnightblue" d="M152.019,-10.2621C160.716,-10.2237 169.487,-10.2767 177.979,-10.421"/>
<polygon fill="midnightblue" stroke="midnightblue" points="151.835,-6.76341 141.865,-10.349 151.895,-13.7632 151.835,-6.76341"/>
</g>
<!-- Node2&#45;&gt;Node1 -->
<g id="edge8" class="edge"><title>Node2&#45;&gt;Node1</title>
<path fill="none" stroke="midnightblue" d="M167.903,-23.7064C159.247,-23.7793 150.45,-23.7608 141.865,-23.651"/>
<polygon fill="midnightblue" stroke="midnightblue" points="168.024,-27.2053 177.979,-23.579 167.936,-20.2058 168.024,-27.2053"/>
</g>
<!-- Node3 -->
<g id="node5" class="node"><title>Node3</title>
<a xlink:href="classCInstanceDefinition.html#aa29d3b10a23894522cfaa937cf385d10" target="_top" xlink:title="CInstanceDefinition\l::createInstances">
<polygon fill="white" stroke="black" points="346.5,-0 346.5,-34 455.5,-34 455.5,-0 346.5,-0"/>
<text text-anchor="start" x="354.5" y="-21" font-family="Verdana" font-size="10.00">CInstanceDefinition</text>
<text text-anchor="middle" x="401" y="-8" font-family="Verdana" font-size="10.00">::createInstances</text>
</a>
</g>
<!-- Node2&#45;&gt;Node3 -->
<g id="edge4" class="edge"><title>Node2&#45;&gt;Node3</title>
<path fill="none" stroke="midnightblue" d="M320.378,-17C329.146,-17 337.95,-17 346.351,-17"/>
<polygon fill="midnightblue" stroke="midnightblue" points="320.127,-13.5001 310.127,-17 320.127,-20.5001 320.127,-13.5001"/>
</g>
<!-- Node4 -->
<g id="node7" class="node"><title>Node4</title>
<a xlink:href="classCSubsystem.html#aa114a31f4aa4b0f47b3c616b721854d4" target="_top" xlink:title="CSubsystem::fromXml">
<polygon fill="white" stroke="black" points="492,-6.5 492,-27.5 616,-27.5 616,-6.5 492,-6.5"/>
<text text-anchor="middle" x="554" y="-14.5" font-family="Verdana" font-size="10.00">CSubsystem::fromXml</text>
</a>
</g>
<!-- Node3&#45;&gt;Node4 -->
<g id="edge6" class="edge"><title>Node3&#45;&gt;Node4</title>
<path fill="none" stroke="midnightblue" d="M466.071,-17C474.591,-17 483.305,-17 491.776,-17"/>
<polygon fill="midnightblue" stroke="midnightblue" points="465.804,-13.5001 455.804,-17 465.804,-20.5001 465.804,-13.5001"/>
</g>
</g>
</svg>
