<?xml version="1.0" encoding="UTF-8" standalone="no"?>
<!DOCTYPE svg PUBLIC "-//W3C//DTD SVG 1.1//EN"
 "http://www.w3.org/Graphics/SVG/1.1/DTD/svg11.dtd">
<!-- Generated by graphviz version 2.26.3 (20100126.1600)
 -->
<!-- Title: CDomainConfiguration::setElementSequence Pages: 1 -->
<svg width="646pt" height="42pt"
 viewBox="0.00 0.00 646.00 42.00" xmlns="http://www.w3.org/2000/svg" xmlns:xlink="http://www.w3.org/1999/xlink">
<g id="graph1" class="graph" transform="scale(1 1) rotate(0) translate(4 38)">
<title>CDomainConfiguration::setElementSequence</title>
<polygon fill="white" stroke="white" points="-4,5 -4,-38 643,-38 643,5 -4,5"/>
<!-- Node1 -->
<g id="node1" class="node"><title>Node1</title>
<polygon fill="#bfbfbf" stroke="black" points="0.5,-0 0.5,-34 125.5,-34 125.5,-0 0.5,-0"/>
<text text-anchor="start" x="8.5" y="-21" font-family="Verdana" font-size="10.00">CDomainConfiguration</text>
<text text-anchor="middle" x="63" y="-8" font-family="Verdana" font-size="10.00">::setElementSequence</text>
</g>
<!-- Node2 -->
<g id="node3" class="node"><title>Node2</title>
<a xlink:href="classCConfigurableDomain.html#a1778bfe42d19352dac62ae88f907b6d2" target="_top" xlink:title="CConfigurableDomain\l::setElementSequence">
<polygon fill="white" stroke="black" points="162.5,-0 162.5,-34 287.5,-34 287.5,-0 162.5,-0"/>
<text text-anchor="start" x="170.5" y="-21" font-family="Verdana" font-size="10.00">CConfigurableDomain</text>
<text text-anchor="middle" x="225" y="-8" font-family="Verdana" font-size="10.00">::setElementSequence</text>
</a>
</g>
<!-- Node1&#45;&gt;Node2 -->
<g id="edge2" class="edge"><title>Node1&#45;&gt;Node2</title>
<path fill="none" stroke="midnightblue" d="M135.885,-17C144.69,-17 153.624,-17 162.266,-17"/>
<polygon fill="midnightblue" stroke="midnightblue" points="135.633,-13.5001 125.633,-17 135.633,-20.5001 135.633,-13.5001"/>
</g>
<!-- Node3 -->
<g id="node5" class="node"><title>Node3</title>
<a xlink:href="classCConfigurableDomains.html#abad5c37e114fa09153d08c3fe2589235" target="_top" xlink:title="CConfigurableDomains\l::setElementSequence">
<polygon fill="white" stroke="black" points="324,-0 324,-34 450,-34 450,-0 324,-0"/>
<text text-anchor="start" x="332" y="-21" font-family="Verdana" font-size="10.00">CConfigurableDomains</text>
<text text-anchor="middle" x="387" y="-8" font-family="Verdana" font-size="10.00">::setElementSequence</text>
</a>
</g>
<!-- Node2&#45;&gt;Node3 -->
<g id="edge4" class="edge"><title>Node2&#45;&gt;Node3</title>
<path fill="none" stroke="midnightblue" d="M297.809,-17C306.548,-17 315.415,-17 323.999,-17"/>
<polygon fill="midnightblue" stroke="midnightblue" points="297.633,-13.5001 287.633,-17 297.633,-20.5001 297.633,-13.5001"/>
</g>
<!-- Node4 -->
<g id="node7" class="node"><title>Node4</title>
<a xlink:href="classCParameterMgr.html#aa57a75f10ccb35c8ea0b72e089bc5fc8" target="_top" xlink:title="CParameterMgr::setElement\lSequence">
<polygon fill="white" stroke="black" points="486,-0 486,-34 638,-34 638,-0 486,-0"/>
<text text-anchor="start" x="494" y="-21" font-family="Verdana" font-size="10.00">CParameterMgr::setElement</text>
<text text-anchor="middle" x="562" y="-8" font-family="Verdana" font-size="10.00">Sequence</text>
</a>
</g>
<!-- Node3&#45;&gt;Node4 -->
<g id="edge6" class="edge"><title>Node3&#45;&gt;Node4</title>
<path fill="none" stroke="midnightblue" d="M460.33,-17C468.742,-17 477.334,-17 485.783,-17"/>
<polygon fill="midnightblue" stroke="midnightblue" points="460.179,-13.5001 450.179,-17 460.179,-20.5001 460.179,-13.5001"/>
</g>
</g>
</svg>
