<?xml version="1.0" encoding="UTF-8" standalone="no"?>
<!DOCTYPE svg PUBLIC "-//W3C//DTD SVG 1.1//EN"
 "http://www.w3.org/Graphics/SVG/1.1/DTD/svg11.dtd">
<!-- Generated by graphviz version 2.26.3 (20100126.1600)
 -->
<!-- Title: CConfigurableDomains::listConfigurations Pages: 1 -->
<svg width="482pt" height="119pt"
 viewBox="0.00 0.00 482.00 119.00" xmlns="http://www.w3.org/2000/svg" xmlns:xlink="http://www.w3.org/1999/xlink">
<g id="graph1" class="graph" transform="scale(1 1) rotate(0) translate(4 115)">
<title>CConfigurableDomains::listConfigurations</title>
<polygon fill="white" stroke="white" points="-4,5 -4,-115 479,-115 479,5 -4,5"/>
<!-- Node1 -->
<g id="node1" class="node"><title>Node1</title>
<polygon fill="#bfbfbf" stroke="black" points="0,-54 0,-88 126,-88 126,-54 0,-54"/>
<text text-anchor="start" x="8" y="-75" font-family="Verdana" font-size="10.00">CConfigurableDomains</text>
<text text-anchor="middle" x="63" y="-62" font-family="Verdana" font-size="10.00">::listConfigurations</text>
</g>
<!-- Node2 -->
<g id="node3" class="node"><title>Node2</title>
<a xlink:href="classCConfigurableDomains.html#a4dce38a1560b6e33871d3fa2d85cc449" target="_top" xlink:title="CConfigurableDomains\l::findConfigurableDomain">
<polygon fill="white" stroke="black" points="162.5,-77 162.5,-111 299.5,-111 299.5,-77 162.5,-77"/>
<text text-anchor="start" x="170.5" y="-98" font-family="Verdana" font-size="10.00">CConfigurableDomains</text>
<text text-anchor="middle" x="231" y="-85" font-family="Verdana" font-size="10.00">::findConfigurableDomain</text>
</a>
</g>
<!-- Node1&#45;&gt;Node2 -->
<g id="edge2" class="edge"><title>Node1&#45;&gt;Node2</title>
<path fill="none" stroke="midnightblue" d="M126.035,-79.6298C134.626,-80.806 143.53,-82.025 152.355,-83.2331"/>
<polygon fill="midnightblue" stroke="midnightblue" points="151.881,-86.7009 162.264,-84.5897 152.831,-79.7655 151.881,-86.7009"/>
</g>
<!-- Node4 -->
<g id="node7" class="node"><title>Node4</title>
<a xlink:href="classCElement.html#af5b93310000754358a178340f6269d51" target="_top" xlink:title="CElement::listChildren">
<polygon fill="white" stroke="black" points="170,-37.5 170,-58.5 292,-58.5 292,-37.5 170,-37.5"/>
<text text-anchor="middle" x="231" y="-45.5" font-family="Verdana" font-size="10.00">CElement::listChildren</text>
</a>
</g>
<!-- Node1&#45;&gt;Node4 -->
<g id="edge6" class="edge"><title>Node1&#45;&gt;Node4</title>
<path fill="none" stroke="midnightblue" d="M126.035,-62.3702C137.013,-60.8673 148.501,-59.2945 159.682,-57.7637"/>
<polygon fill="midnightblue" stroke="midnightblue" points="160.409,-61.197 169.841,-56.3729 159.459,-54.2617 160.409,-61.197"/>
</g>
<!-- Node3 -->
<g id="node5" class="node"><title>Node3</title>
<a xlink:href="classCElement.html#a8595814a3159f32f874269907e70b260" target="_top" xlink:title="CElement::findChild">
<polygon fill="white" stroke="black" points="350,-83.5 350,-104.5 460,-104.5 460,-83.5 350,-83.5"/>
<text text-anchor="middle" x="405" y="-91.5" font-family="Verdana" font-size="10.00">CElement::findChild</text>
</a>
</g>
<!-- Node2&#45;&gt;Node3 -->
<g id="edge4" class="edge"><title>Node2&#45;&gt;Node3</title>
<path fill="none" stroke="midnightblue" d="M299.769,-94C312.886,-94 326.582,-94 339.591,-94"/>
<polygon fill="midnightblue" stroke="midnightblue" points="339.852,-97.5001 349.852,-94 339.852,-90.5001 339.852,-97.5001"/>
</g>
<!-- Node5 -->
<g id="node9" class="node"><title>Node5</title>
<a xlink:href="classCElement.html#a25f58d9d8b35e770806d669fb2a378e4" target="_top" xlink:title="CElement::getNbChildren">
<polygon fill="white" stroke="black" points="336.5,-40.5 336.5,-61.5 473.5,-61.5 473.5,-40.5 336.5,-40.5"/>
<text text-anchor="middle" x="405" y="-48.5" font-family="Verdana" font-size="10.00">CElement::getNbChildren</text>
</a>
</g>
<!-- Node4&#45;&gt;Node5 -->
<g id="edge8" class="edge"><title>Node4&#45;&gt;Node5</title>
<path fill="none" stroke="midnightblue" d="M292.346,-49.0577C303.208,-49.245 314.656,-49.4423 325.925,-49.6366"/>
<polygon fill="midnightblue" stroke="midnightblue" points="326.143,-53.1408 336.202,-49.8138 326.264,-46.1419 326.143,-53.1408"/>
</g>
<!-- Node6 -->
<g id="node11" class="node"><title>Node6</title>
<a xlink:href="classCElement.html#a49581fb6412e29e932962acd82d52d6a" target="_top" xlink:title="CElement::getName">
<polygon fill="white" stroke="black" points="348,-0.5 348,-21.5 462,-21.5 462,-0.5 348,-0.5"/>
<text text-anchor="middle" x="405" y="-8.5" font-family="Verdana" font-size="10.00">CElement::getName</text>
</a>
</g>
<!-- Node4&#45;&gt;Node6 -->
<g id="edge10" class="edge"><title>Node4&#45;&gt;Node6</title>
<path fill="none" stroke="midnightblue" d="M280.396,-37.4963C300.692,-33.1804 324.37,-28.1455 345.601,-23.6309"/>
<polygon fill="midnightblue" stroke="midnightblue" points="346.427,-27.0335 355.48,-21.53 344.971,-20.1866 346.427,-27.0335"/>
</g>
</g>
</svg>
