<?xml version="1.0" encoding="UTF-8" standalone="no"?>
<!DOCTYPE svg PUBLIC "-//W3C//DTD SVG 1.1//EN"
 "http://www.w3.org/Graphics/SVG/1.1/DTD/svg11.dtd">
<!-- Generated by graphviz version 2.26.3 (20100126.1600)
 -->
<!-- Title: CElement::toString Pages: 1 -->
<svg width="512pt" height="784pt"
 viewBox="0.00 0.00 512.00 784.00" xmlns="http://www.w3.org/2000/svg" xmlns:xlink="http://www.w3.org/1999/xlink">
<g id="graph1" class="graph" transform="scale(1 1) rotate(0) translate(4 780)">
<title>CElement::toString</title>
<polygon fill="white" stroke="white" points="-4,5 -4,-780 509,-780 509,5 -4,5"/>
<!-- Node1 -->
<g id="node1" class="node"><title>Node1</title>
<polygon fill="#bfbfbf" stroke="black" points="0.5,-370.5 0.5,-391.5 107.5,-391.5 107.5,-370.5 0.5,-370.5"/>
<text text-anchor="middle" x="54" y="-378.5" font-family="Verdana" font-size="10.00">CElement::toString</text>
</g>
<!-- Node2 -->
<g id="node3" class="node"><title>Node2</title>
<a xlink:href="classCArrayParameter.html#ad5d8e73cb182854db6fa4fd3ca5fe691" target="_top" xlink:title="CArrayParameter::showProperties">
<polygon fill="white" stroke="black" points="146,-754.5 146,-775.5 324,-775.5 324,-754.5 146,-754.5"/>
<text text-anchor="middle" x="235" y="-762.5" font-family="Verdana" font-size="10.00">CArrayParameter::showProperties</text>
</a>
</g>
<!-- Node1&#45;&gt;Node2 -->
<g id="edge2" class="edge"><title>Node1&#45;&gt;Node2</title>
<path fill="none" stroke="midnightblue" d="M56.2723,-401.77C64.327,-471.568 93.7593,-696.051 144,-745 147.823,-748.725 152.173,-751.822 156.85,-754.391"/>
<polygon fill="midnightblue" stroke="midnightblue" points="59.725,-401.153 55.126,-391.608 52.7691,-401.938 59.725,-401.153"/>
</g>
<!-- Node3 -->
<g id="node5" class="node"><title>Node3</title>
<a xlink:href="classCBitParameterBlockType.html#a4d3f66cff415a8f8ef825092b92ed787" target="_top" xlink:title="CBitParameterBlockType\l::toXml">
<polygon fill="white" stroke="black" points="168.5,-702 168.5,-736 301.5,-736 301.5,-702 168.5,-702"/>
<text text-anchor="start" x="176.5" y="-723" font-family="Verdana" font-size="10.00">CBitParameterBlockType</text>
<text text-anchor="middle" x="235" y="-710" font-family="Verdana" font-size="10.00">::toXml</text>
</a>
</g>
<!-- Node1&#45;&gt;Node3 -->
<g id="edge4" class="edge"><title>Node1&#45;&gt;Node3</title>
<path fill="none" stroke="midnightblue" d="M57.3398,-401.905C67.794,-464.849 101.728,-650.835 144,-693 150.864,-699.846 159.397,-704.918 168.466,-708.669"/>
<polygon fill="midnightblue" stroke="midnightblue" points="60.7305,-400.952 55.6642,-391.647 53.822,-402.08 60.7305,-400.952"/>
</g>
<!-- Node4 -->
<g id="node7" class="node"><title>Node4</title>
<a xlink:href="classCBitParameterType.html#adbdd6083b3160709a994864d4b93c809" target="_top" xlink:title="CBitParameterType::\lshowProperties">
<polygon fill="white" stroke="black" points="178.5,-650 178.5,-684 291.5,-684 291.5,-650 178.5,-650"/>
<text text-anchor="start" x="186.5" y="-671" font-family="Verdana" font-size="10.00">CBitParameterType::</text>
<text text-anchor="middle" x="235" y="-658" font-family="Verdana" font-size="10.00">showProperties</text>
</a>
</g>
<!-- Node1&#45;&gt;Node4 -->
<g id="edge6" class="edge"><title>Node1&#45;&gt;Node4</title>
<path fill="none" stroke="midnightblue" d="M54.9576,-401.792C58.3631,-450.836 73.8384,-574.591 144,-641 153.427,-649.923 165.702,-655.815 178.169,-659.696"/>
<polygon fill="midnightblue" stroke="midnightblue" points="58.4482,-401.529 54.3614,-391.754 51.4605,-401.944 58.4482,-401.529"/>
</g>
<!-- Node5 -->
<g id="node9" class="node"><title>Node5</title>
<a xlink:href="classCBitParameterType.html#aec2c699920b9ab28fa560721b0fb9e05" target="_top" xlink:title="CBitParameterType::\ltoXml">
<polygon fill="white" stroke="black" points="178.5,-598 178.5,-632 291.5,-632 291.5,-598 178.5,-598"/>
<text text-anchor="start" x="186.5" y="-619" font-family="Verdana" font-size="10.00">CBitParameterType::</text>
<text text-anchor="middle" x="235" y="-606" font-family="Verdana" font-size="10.00">toXml</text>
</a>
</g>
<!-- Node1&#45;&gt;Node5 -->
<g id="edge8" class="edge"><title>Node1&#45;&gt;Node5</title>
<path fill="none" stroke="midnightblue" d="M57.0143,-401.841C64.181,-443.685 86.1796,-538.25 144,-589 153.632,-597.454 165.843,-603.17 178.166,-607.032"/>
<polygon fill="midnightblue" stroke="midnightblue" points="60.4686,-401.276 55.4333,-391.954 53.5564,-402.382 60.4686,-401.276"/>
</g>
<!-- Node6 -->
<g id="node11" class="node"><title>Node6</title>
<a xlink:href="classCConfigurableElement.html#a0282019ab1caa1ada2b637562a1d8479" target="_top" xlink:title="CConfigurableElement\l::getFootprintAsString">
<polygon fill="white" stroke="black" points="173.5,-546 173.5,-580 296.5,-580 296.5,-546 173.5,-546"/>
<text text-anchor="start" x="181.5" y="-567" font-family="Verdana" font-size="10.00">CConfigurableElement</text>
<text text-anchor="middle" x="235" y="-554" font-family="Verdana" font-size="10.00">::getFootprintAsString</text>
</a>
</g>
<!-- Node1&#45;&gt;Node6 -->
<g id="edge10" class="edge"><title>Node1&#45;&gt;Node6</title>
<path fill="none" stroke="midnightblue" d="M60.0844,-401.162C71.1955,-434.517 97.9666,-501.058 144,-537 152.548,-543.674 162.736,-548.634 173.152,-552.322"/>
<polygon fill="midnightblue" stroke="midnightblue" points="63.4002,-400.04 57.0225,-391.58 56.7323,-402.171 63.4002,-400.04"/>
</g>
<!-- Node8 -->
<g id="node15" class="node"><title>Node8</title>
<a xlink:href="classCEnumParameterType.html#a657fc941f16df1059a7f1377aa85b258" target="_top" xlink:title="CEnumParameterType\l::toXml">
<polygon fill="white" stroke="black" points="174,-494 174,-528 296,-528 296,-494 174,-494"/>
<text text-anchor="start" x="182" y="-515" font-family="Verdana" font-size="10.00">CEnumParameterType</text>
<text text-anchor="middle" x="235" y="-502" font-family="Verdana" font-size="10.00">::toXml</text>
</a>
</g>
<!-- Node1&#45;&gt;Node8 -->
<g id="edge14" class="edge"><title>Node1&#45;&gt;Node8</title>
<path fill="none" stroke="midnightblue" d="M65.6897,-400.36C80.8557,-423.837 109.5,-462.99 144,-485 153.004,-490.744 163.302,-495.247 173.657,-498.77"/>
<polygon fill="midnightblue" stroke="midnightblue" points="68.4918,-398.241 60.2086,-391.635 62.5643,-401.965 68.4918,-398.241"/>
</g>
<!-- Node9 -->
<g id="node17" class="node"><title>Node9</title>
<a xlink:href="classCEnumValuePair.html#a8936c702786702895a231eac2137f518" target="_top" xlink:title="CEnumValuePair::getNumerical\lAsString">
<polygon fill="white" stroke="black" points="152.5,-442 152.5,-476 317.5,-476 317.5,-442 152.5,-442"/>
<text text-anchor="start" x="160.5" y="-463" font-family="Verdana" font-size="10.00">CEnumValuePair::getNumerical</text>
<text text-anchor="middle" x="235" y="-450" font-family="Verdana" font-size="10.00">AsString</text>
</a>
</g>
<!-- Node1&#45;&gt;Node9 -->
<g id="edge16" class="edge"><title>Node1&#45;&gt;Node9</title>
<path fill="none" stroke="midnightblue" d="M78.1722,-397.157C95.826,-408.403 120.657,-423.1 144,-433 151.715,-436.272 159.967,-439.272 168.237,-441.979"/>
<polygon fill="midnightblue" stroke="midnightblue" points="79.9372,-394.13 69.6406,-391.634 76.1333,-400.006 79.9372,-394.13"/>
</g>
<!-- Node13 -->
<g id="node25" class="node"><title>Node13</title>
<a xlink:href="classCFixedPointParameterType.html#ace60f1f5bc61cbe400eccdd59f820c80" target="_top" xlink:title="CFixedPointParameterType\l::showProperties">
<polygon fill="white" stroke="black" points="163.5,-390 163.5,-424 306.5,-424 306.5,-390 163.5,-390"/>
<text text-anchor="start" x="171.5" y="-411" font-family="Verdana" font-size="10.00">CFixedPointParameterType</text>
<text text-anchor="middle" x="235" y="-398" font-family="Verdana" font-size="10.00">::showProperties</text>
</a>
</g>
<!-- Node1&#45;&gt;Node13 -->
<g id="edge24" class="edge"><title>Node1&#45;&gt;Node13</title>
<path fill="none" stroke="midnightblue" d="M117.813,-390.167C132.523,-392.28 148.266,-394.541 163.286,-396.699"/>
<polygon fill="midnightblue" stroke="midnightblue" points="118.212,-386.688 107.816,-388.73 117.217,-393.617 118.212,-386.688"/>
</g>
<!-- Node14 -->
<g id="node27" class="node"><title>Node14</title>
<a xlink:href="classCFixedPointParameterType.html#ac9e0de762e60d0cfce00122bdbef137e" target="_top" xlink:title="CFixedPointParameterType\l::toXml">
<polygon fill="white" stroke="black" points="163.5,-338 163.5,-372 306.5,-372 306.5,-338 163.5,-338"/>
<text text-anchor="start" x="171.5" y="-359" font-family="Verdana" font-size="10.00">CFixedPointParameterType</text>
<text text-anchor="middle" x="235" y="-346" font-family="Verdana" font-size="10.00">::toXml</text>
</a>
</g>
<!-- Node1&#45;&gt;Node14 -->
<g id="edge26" class="edge"><title>Node1&#45;&gt;Node14</title>
<path fill="none" stroke="midnightblue" d="M117.813,-371.833C132.523,-369.72 148.266,-367.459 163.286,-365.301"/>
<polygon fill="midnightblue" stroke="midnightblue" points="117.217,-368.383 107.816,-373.27 118.212,-375.312 117.217,-368.383"/>
</g>
<!-- Node15 -->
<g id="node29" class="node"><title>Node15</title>
<a xlink:href="classCIntegerParameterType.html#a7043b81bb621777fc119865daef56ca3" target="_top" xlink:title="CIntegerParameterType\l::showProperties">
<polygon fill="white" stroke="black" points="369,-193 369,-227 497,-227 497,-193 369,-193"/>
<text text-anchor="start" x="377" y="-214" font-family="Verdana" font-size="10.00">CIntegerParameterType</text>
<text text-anchor="middle" x="433" y="-201" font-family="Verdana" font-size="10.00">::showProperties</text>
</a>
</g>
<!-- Node1&#45;&gt;Node15 -->
<g id="edge28" class="edge"><title>Node1&#45;&gt;Node15</title>
<path fill="none" stroke="midnightblue" d="M77.3275,-364.74C94.9149,-353.187 120.027,-338.157 144,-329 221.193,-299.514 250.783,-325.215 326,-291 361.205,-274.986 395.744,-245.682 415.678,-227.057"/>
<polygon fill="midnightblue" stroke="midnightblue" points="75.2198,-361.939 68.8622,-370.414 79.1175,-367.753 75.2198,-361.939"/>
</g>
<!-- Node16 -->
<g id="node31" class="node"><title>Node16</title>
<a xlink:href="classCIntegerParameterType.html#a26c10292fad5a8e6603dc0673f813d69" target="_top" xlink:title="CIntegerParameterType\l::toXml">
<polygon fill="white" stroke="black" points="171,-248 171,-282 299,-282 299,-248 171,-248"/>
<text text-anchor="start" x="179" y="-269" font-family="Verdana" font-size="10.00">CIntegerParameterType</text>
<text text-anchor="middle" x="235" y="-256" font-family="Verdana" font-size="10.00">::toXml</text>
</a>
</g>
<!-- Node1&#45;&gt;Node16 -->
<g id="edge30" class="edge"><title>Node1&#45;&gt;Node16</title>
<path fill="none" stroke="midnightblue" d="M69.1573,-362.622C85.7523,-343.564 114.019,-314.077 144,-296 153.005,-290.571 163.088,-285.936 173.175,-282.034"/>
<polygon fill="midnightblue" stroke="midnightblue" points="66.4132,-360.446 62.5891,-370.326 71.7402,-364.987 66.4132,-360.446"/>
</g>
<!-- Node17 -->
<g id="node33" class="node"><title>Node17</title>
<a xlink:href="classCLinearParameterAdaptation.html#a572f6d34392375d3c51ea131a6f5e6f4" target="_top" xlink:title="CLinearParameterAdaptation\l::showProperties">
<polygon fill="white" stroke="black" points="157.5,-196 157.5,-230 312.5,-230 312.5,-196 157.5,-196"/>
<text text-anchor="start" x="165.5" y="-217" font-family="Verdana" font-size="10.00">CLinearParameterAdaptation</text>
<text text-anchor="middle" x="235" y="-204" font-family="Verdana" font-size="10.00">::showProperties</text>
</a>
</g>
<!-- Node1&#45;&gt;Node17 -->
<g id="edge32" class="edge"><title>Node1&#45;&gt;Node17</title>
<path fill="none" stroke="midnightblue" d="M61.4505,-360.486C73.7703,-329.474 101.345,-270.897 144,-239 148.474,-235.654 153.365,-232.739 158.482,-230.198"/>
<polygon fill="midnightblue" stroke="midnightblue" points="58.032,-359.627 57.7293,-370.217 64.5703,-362.127 58.032,-359.627"/>
</g>
<!-- Node18 -->
<g id="node35" class="node"><title>Node18</title>
<a xlink:href="classCLogarithmicParameterAdaptation.html#a7f714e7074a0c83dbad88b8594563c1d" target="_top" xlink:title="CLogarithmicParameterAdaptation\l::showProperties">
<polygon fill="white" stroke="black" points="144,-144 144,-178 326,-178 326,-144 144,-144"/>
<text text-anchor="start" x="152" y="-165" font-family="Verdana" font-size="10.00">CLogarithmicParameterAdaptation</text>
<text text-anchor="middle" x="235" y="-152" font-family="Verdana" font-size="10.00">::showProperties</text>
</a>
</g>
<!-- Node1&#45;&gt;Node18 -->
<g id="edge34" class="edge"><title>Node1&#45;&gt;Node18</title>
<path fill="none" stroke="midnightblue" d="M57.6738,-360.477C65.8493,-320.886 89.314,-233.754 144,-187 147.996,-183.583 152.416,-180.614 157.089,-178.035"/>
<polygon fill="midnightblue" stroke="midnightblue" points="54.235,-359.826 55.7601,-370.31 61.106,-361.163 54.235,-359.826"/>
</g>
<!-- Node19 -->
<g id="node37" class="node"><title>Node19</title>
<a xlink:href="classCParameterAdaptation.html#a834e99e4cda9f48eb02c506e21a49f40" target="_top" xlink:title="CParameterAdaptation\l::showProperties">
<polygon fill="white" stroke="black" points="172,-92 172,-126 298,-126 298,-92 172,-92"/>
<text text-anchor="start" x="180" y="-113" font-family="Verdana" font-size="10.00">CParameterAdaptation</text>
<text text-anchor="middle" x="235" y="-100" font-family="Verdana" font-size="10.00">::showProperties</text>
</a>
</g>
<!-- Node1&#45;&gt;Node19 -->
<g id="edge36" class="edge"><title>Node1&#45;&gt;Node19</title>
<path fill="none" stroke="midnightblue" d="M55.4437,-360.062C59.8488,-312.79 77.2429,-197.089 144,-135 151.82,-127.726 161.536,-122.47 171.681,-118.676"/>
<polygon fill="midnightblue" stroke="midnightblue" points="51.934,-360.037 54.5986,-370.291 58.9102,-360.613 51.934,-360.037"/>
</g>
<!-- Node20 -->
<g id="node40" class="node"><title>Node20</title>
<a xlink:href="classCParameterType.html#aa7af90f44722bc279f98bcc94f7f69c0" target="_top" xlink:title="CParameterType::showProperties">
<polygon fill="white" stroke="black" points="148.5,-52.5 148.5,-73.5 321.5,-73.5 321.5,-52.5 148.5,-52.5"/>
<text text-anchor="middle" x="235" y="-60.5" font-family="Verdana" font-size="10.00">CParameterType::showProperties</text>
</a>
</g>
<!-- Node1&#45;&gt;Node20 -->
<g id="edge40" class="edge"><title>Node1&#45;&gt;Node20</title>
<path fill="none" stroke="midnightblue" d="M57.4346,-360.504C68.0396,-299.642 102.093,-121.799 144,-83 148.036,-79.2636 152.604,-76.1669 157.494,-73.6059"/>
<polygon fill="midnightblue" stroke="midnightblue" points="53.9701,-359.999 55.7307,-370.447 60.8695,-361.182 53.9701,-359.999"/>
</g>
<!-- Node21 -->
<g id="node42" class="node"><title>Node21</title>
<a xlink:href="classCStringParameterType.html#a0c40b42d73bd6f3ced36f4516ad999e3" target="_top" xlink:title="CStringParameterType\l::showProperties">
<polygon fill="white" stroke="black" points="173.5,-0 173.5,-34 296.5,-34 296.5,-0 173.5,-0"/>
<text text-anchor="start" x="181.5" y="-21" font-family="Verdana" font-size="10.00">CStringParameterType</text>
<text text-anchor="middle" x="235" y="-8" font-family="Verdana" font-size="10.00">::showProperties</text>
</a>
</g>
<!-- Node1&#45;&gt;Node21 -->
<g id="edge42" class="edge"><title>Node1&#45;&gt;Node21</title>
<path fill="none" stroke="midnightblue" d="M56.8436,-360.101C66.2784,-293.715 98.5484,-89.2802 144,-43 152.059,-34.794 162.515,-29.1317 173.454,-25.2356"/>
<polygon fill="midnightblue" stroke="midnightblue" points="53.353,-359.792 55.4373,-370.18 60.2858,-360.759 53.353,-359.792"/>
</g>
<!-- Node7 -->
<g id="node13" class="node"><title>Node7</title>
<a xlink:href="classCConfigurableElement.html#a0497959fbd4ecdcc9911ed6548f73fa1" target="_top" xlink:title="CConfigurableElement\l::showProperties">
<polygon fill="white" stroke="black" points="371.5,-546 371.5,-580 494.5,-580 494.5,-546 371.5,-546"/>
<text text-anchor="start" x="379.5" y="-567" font-family="Verdana" font-size="10.00">CConfigurableElement</text>
<text text-anchor="middle" x="433" y="-554" font-family="Verdana" font-size="10.00">::showProperties</text>
</a>
</g>
<!-- Node6&#45;&gt;Node7 -->
<g id="edge12" class="edge"><title>Node6&#45;&gt;Node7</title>
<path fill="none" stroke="midnightblue" d="M306.803,-563C327.996,-563 350.991,-563 371.475,-563"/>
<polygon fill="midnightblue" stroke="midnightblue" points="306.563,-559.5 296.563,-563 306.563,-566.5 306.563,-559.5"/>
</g>
<!-- Node10 -->
<g id="node19" class="node"><title>Node10</title>
<a xlink:href="classCEnumParameterType.html#ad36c8d4e9a04060581ba68f744fd41e7" target="_top" xlink:title="CEnumParameterType\l::showProperties">
<polygon fill="white" stroke="black" points="372,-488 372,-522 494,-522 494,-488 372,-488"/>
<text text-anchor="start" x="380" y="-509" font-family="Verdana" font-size="10.00">CEnumParameterType</text>
<text text-anchor="middle" x="433" y="-496" font-family="Verdana" font-size="10.00">::showProperties</text>
</a>
</g>
<!-- Node9&#45;&gt;Node10 -->
<g id="edge18" class="edge"><title>Node9&#45;&gt;Node10</title>
<path fill="none" stroke="midnightblue" d="M318.352,-478.365C336.342,-482.544 355.039,-486.888 371.985,-490.825"/>
<polygon fill="midnightblue" stroke="midnightblue" points="318.979,-474.917 308.447,-476.063 317.395,-481.736 318.979,-474.917"/>
</g>
<!-- Node11 -->
<g id="node21" class="node"><title>Node11</title>
<a xlink:href="classCEnumValuePair.html#ac9f2ee3c41d428efb8ce394442d1b4b9" target="_top" xlink:title="CEnumValuePair::logValue">
<polygon fill="white" stroke="black" points="362.5,-448.5 362.5,-469.5 503.5,-469.5 503.5,-448.5 362.5,-448.5"/>
<text text-anchor="middle" x="433" y="-456.5" font-family="Verdana" font-size="10.00">CEnumValuePair::logValue</text>
</a>
</g>
<!-- Node9&#45;&gt;Node11 -->
<g id="edge20" class="edge"><title>Node9&#45;&gt;Node11</title>
<path fill="none" stroke="midnightblue" d="M327.695,-459C339.308,-459 351.038,-459 362.24,-459"/>
<polygon fill="midnightblue" stroke="midnightblue" points="327.536,-455.5 317.536,-459 327.536,-462.5 327.536,-455.5"/>
</g>
<!-- Node12 -->
<g id="node23" class="node"><title>Node12</title>
<a xlink:href="classCEnumValuePair.html#af7f3d59a079b449b72e6e0eb5dd8fedc" target="_top" xlink:title="CEnumValuePair::toXml">
<polygon fill="white" stroke="black" points="369,-408.5 369,-429.5 497,-429.5 497,-408.5 369,-408.5"/>
<text text-anchor="middle" x="433" y="-416.5" font-family="Verdana" font-size="10.00">CEnumValuePair::toXml</text>
</a>
</g>
<!-- Node9&#45;&gt;Node12 -->
<g id="edge22" class="edge"><title>Node9&#45;&gt;Node12</title>
<path fill="none" stroke="midnightblue" d="M327.391,-440.335C345.752,-436.626 364.417,-432.855 380.845,-429.536"/>
<polygon fill="midnightblue" stroke="midnightblue" points="326.645,-436.915 317.536,-442.326 328.031,-443.776 326.645,-436.915"/>
</g>
<!-- Node19&#45;&gt;Node15 -->
<g id="edge38" class="edge"><title>Node19&#45;&gt;Node15</title>
<path fill="none" stroke="midnightblue" d="M307.974,-127.48C314.17,-129.758 320.257,-132.263 326,-135 358.764,-150.618 392.37,-176.011 412.967,-192.859"/>
<polygon fill="midnightblue" stroke="midnightblue" points="308.776,-124.053 298.181,-124.083 306.482,-130.667 308.776,-124.053"/>
</g>
</g>
</svg>
