<?xml version="1.0" encoding="UTF-8" standalone="no"?>
<!DOCTYPE svg PUBLIC "-//W3C//DTD SVG 1.1//EN"
 "http://www.w3.org/Graphics/SVG/1.1/DTD/svg11.dtd">
<!-- Generated by graphviz version 2.26.3 (20100126.1600)
 -->
<!-- Title: CSelectionCriterionRule::parse Pages: 1 -->
<svg width="982pt" height="42pt"
 viewBox="0.00 0.00 982.00 42.00" xmlns="http://www.w3.org/2000/svg" xmlns:xlink="http://www.w3.org/1999/xlink">
<g id="graph1" class="graph" transform="scale(1 1) rotate(0) translate(4 38)">
<title>CSelectionCriterionRule::parse</title>
<polygon fill="white" stroke="white" points="-4,5 -4,-38 979,-38 979,5 -4,5"/>
<!-- Node1 -->
<g id="node1" class="node"><title>Node1</title>
<polygon fill="#bfbfbf" stroke="black" points="0,-0 0,-34 128,-34 128,-0 0,-0"/>
<text text-anchor="start" x="8" y="-21" font-family="Verdana" font-size="10.00">CSelectionCriterionRule</text>
<text text-anchor="middle" x="64" y="-8" font-family="Verdana" font-size="10.00">::parse</text>
</g>
<!-- Node2 -->
<g id="node3" class="node"><title>Node2</title>
<a xlink:href="classCRuleParser.html#acbce516a22f0dca0af620e751d298f7a" target="_top" xlink:title="CRuleParser::parse">
<polygon fill="white" stroke="black" points="164,-6.5 164,-27.5 270,-27.5 270,-6.5 164,-6.5"/>
<text text-anchor="middle" x="217" y="-14.5" font-family="Verdana" font-size="10.00">CRuleParser::parse</text>
</a>
</g>
<!-- Node1&#45;&gt;Node2 -->
<g id="edge2" class="edge"><title>Node1&#45;&gt;Node2</title>
<path fill="none" stroke="midnightblue" d="M138.711,-17C147.163,-17 155.645,-17 163.743,-17"/>
<polygon fill="midnightblue" stroke="midnightblue" points="138.442,-13.5001 128.442,-17 138.442,-20.5001 138.442,-13.5001"/>
</g>
<!-- Node3 -->
<g id="node5" class="node"><title>Node3</title>
<a xlink:href="classCDomainConfiguration.html#a3b12c8d561b1e468bd03214326bdf450" target="_top" xlink:title="CDomainConfiguration\l::setApplicationRule">
<polygon fill="white" stroke="black" points="306.5,-0 306.5,-34 431.5,-34 431.5,-0 306.5,-0"/>
<text text-anchor="start" x="314.5" y="-21" font-family="Verdana" font-size="10.00">CDomainConfiguration</text>
<text text-anchor="middle" x="369" y="-8" font-family="Verdana" font-size="10.00">::setApplicationRule</text>
</a>
</g>
<!-- Node2&#45;&gt;Node3 -->
<g id="edge4" class="edge"><title>Node2&#45;&gt;Node3</title>
<path fill="none" stroke="midnightblue" d="M280.22,-17C288.901,-17 297.811,-17 306.48,-17"/>
<polygon fill="midnightblue" stroke="midnightblue" points="280.162,-13.5001 270.162,-17 280.162,-20.5001 280.162,-13.5001"/>
</g>
<!-- Node4 -->
<g id="node7" class="node"><title>Node4</title>
<a xlink:href="classCConfigurableDomain.html#ab28e6a66ae7197d4fa131193f32891f4" target="_top" xlink:title="CConfigurableDomain\l::setApplicationRule">
<polygon fill="white" stroke="black" points="468.5,-0 468.5,-34 589.5,-34 589.5,-0 468.5,-0"/>
<text text-anchor="start" x="476.5" y="-21" font-family="Verdana" font-size="10.00">CConfigurableDomain</text>
<text text-anchor="middle" x="529" y="-8" font-family="Verdana" font-size="10.00">::setApplicationRule</text>
</a>
</g>
<!-- Node3&#45;&gt;Node4 -->
<g id="edge6" class="edge"><title>Node3&#45;&gt;Node4</title>
<path fill="none" stroke="midnightblue" d="M441.787,-17C450.72,-17 459.774,-17 468.498,-17"/>
<polygon fill="midnightblue" stroke="midnightblue" points="441.777,-13.5001 431.777,-17 441.777,-20.5001 441.777,-13.5001"/>
</g>
<!-- Node5 -->
<g id="node9" class="node"><title>Node5</title>
<a xlink:href="classCConfigurableDomains.html#ac2b2354eecc80c7ca4a71fe2f40606ed" target="_top" xlink:title="CConfigurableDomains\l::setApplicationRule">
<polygon fill="white" stroke="black" points="626,-0 626,-34 752,-34 752,-0 626,-0"/>
<text text-anchor="start" x="634" y="-21" font-family="Verdana" font-size="10.00">CConfigurableDomains</text>
<text text-anchor="middle" x="689" y="-8" font-family="Verdana" font-size="10.00">::setApplicationRule</text>
</a>
</g>
<!-- Node4&#45;&gt;Node5 -->
<g id="edge8" class="edge"><title>Node4&#45;&gt;Node5</title>
<path fill="none" stroke="midnightblue" d="M599.97,-17C608.585,-17 617.341,-17 625.833,-17"/>
<polygon fill="midnightblue" stroke="midnightblue" points="599.946,-13.5001 589.946,-17 599.946,-20.5001 599.946,-13.5001"/>
</g>
<!-- Node6 -->
<g id="node11" class="node"><title>Node6</title>
<a xlink:href="classCParameterMgr.html#af63f9ad7f792b2bf226afd791c1db70e" target="_top" xlink:title="CParameterMgr::setApplicationRule">
<polygon fill="white" stroke="black" points="788.5,-6.5 788.5,-27.5 973.5,-27.5 973.5,-6.5 788.5,-6.5"/>
<text text-anchor="middle" x="881" y="-14.5" font-family="Verdana" font-size="10.00">CParameterMgr::setApplicationRule</text>
</a>
</g>
<!-- Node5&#45;&gt;Node6 -->
<g id="edge10" class="edge"><title>Node5&#45;&gt;Node6</title>
<path fill="none" stroke="midnightblue" d="M762.344,-17C770.831,-17 779.57,-17 788.272,-17"/>
<polygon fill="midnightblue" stroke="midnightblue" points="762.134,-13.5001 752.134,-17 762.134,-20.5001 762.134,-13.5001"/>
</g>
</g>
</svg>
