<?xml version="1.0" encoding="UTF-8" standalone="no"?>
<!DOCTYPE svg PUBLIC "-//W3C//DTD SVG 1.1//EN"
 "http://www.w3.org/Graphics/SVG/1.1/DTD/svg11.dtd">
<!-- Generated by graphviz version 2.26.3 (20100126.1600)
 -->
<!-- Title: CArrayParameter::accessValue Pages: 1 -->
<svg width="598pt" height="393pt"
 viewBox="0.00 0.00 598.00 393.00" xmlns="http://www.w3.org/2000/svg" xmlns:xlink="http://www.w3.org/1999/xlink">
<g id="graph1" class="graph" transform="scale(1 1) rotate(0) translate(4 389)">
<title>CArrayParameter::accessValue</title>
<polygon fill="white" stroke="white" points="-4,5 -4,-389 595,-389 595,5 -4,5"/>
<!-- Node1 -->
<g id="node1" class="node"><title>Node1</title>
<polygon fill="#bfbfbf" stroke="black" points="0,-121.5 0,-142.5 164,-142.5 164,-121.5 0,-121.5"/>
<text text-anchor="middle" x="82" y="-129.5" font-family="Verdana" font-size="10.00">CArrayParameter::accessValue</text>
</g>
<!-- Node2 -->
<g id="node3" class="node"><title>Node2</title>
<a xlink:href="classCParameterAccessContext.html#a8373a015bb145386732483ee3f6bdf63" target="_top" xlink:title="CParameterAccessContext\l::getBaseOffset">
<polygon fill="white" stroke="black" points="222.5,-265 222.5,-299 367.5,-299 367.5,-265 222.5,-265"/>
<text text-anchor="start" x="230.5" y="-286" font-family="Verdana" font-size="10.00">CParameterAccessContext</text>
<text text-anchor="middle" x="295" y="-273" font-family="Verdana" font-size="10.00">::getBaseOffset</text>
</a>
</g>
<!-- Node1&#45;&gt;Node2 -->
<g id="edge2" class="edge"><title>Node1&#45;&gt;Node2</title>
<path fill="none" stroke="midnightblue" d="M89.1452,-142.828C105.658,-166.977 148.981,-225.511 200,-256 204.096,-258.448 208.428,-260.671 212.896,-262.689"/>
<polygon fill="midnightblue" stroke="midnightblue" points="211.647,-265.96 222.225,-266.551 214.324,-259.493 211.647,-265.96"/>
</g>
<!-- Node3 -->
<g id="node5" class="node"><title>Node3</title>
<a xlink:href="classCInstanceConfigurableElement.html#a2e6e7782de8e4d7e844a869917f2f037" target="_top" xlink:title="Performs the sync if the AutoSync is enabled. ">
<polygon fill="white" stroke="black" points="213,-213 213,-247 377,-247 377,-213 213,-213"/>
<text text-anchor="start" x="221" y="-234" font-family="Verdana" font-size="10.00">CInstanceConfigurableElement</text>
<text text-anchor="middle" x="295" y="-221" font-family="Verdana" font-size="10.00">::sync</text>
</a>
</g>
<!-- Node1&#45;&gt;Node3 -->
<g id="edge4" class="edge"><title>Node1&#45;&gt;Node3</title>
<path fill="none" stroke="midnightblue" d="M105.2,-142.674C139.526,-158.467 204.545,-188.382 248.818,-208.752"/>
<polygon fill="midnightblue" stroke="midnightblue" points="247.384,-211.945 257.932,-212.945 250.31,-205.586 247.384,-211.945"/>
</g>
<!-- Node9 -->
<g id="node17" class="node"><title>Node9</title>
<a xlink:href="classCBaseParameter.html#a911cbd2df0c950a79863fdd689731f88" target="_top" xlink:title="Append the parameter path to the error. ">
<polygon fill="white" stroke="black" points="200,-138 200,-172 390,-172 390,-138 200,-138"/>
<text text-anchor="start" x="208" y="-159" font-family="Verdana" font-size="10.00">CBaseParameter::appendParameter</text>
<text text-anchor="middle" x="295" y="-146" font-family="Verdana" font-size="10.00">PathToError</text>
</a>
</g>
<!-- Node1&#45;&gt;Node9 -->
<g id="edge16" class="edge"><title>Node1&#45;&gt;Node9</title>
<path fill="none" stroke="midnightblue" d="M164.047,-140.86C172.47,-141.769 181.109,-142.702 189.737,-143.634"/>
<polygon fill="midnightblue" stroke="midnightblue" points="189.529,-147.131 199.847,-144.725 190.281,-140.172 189.529,-147.131"/>
</g>
<!-- Node12 -->
<g id="node24" class="node"><title>Node12</title>
<a xlink:href="classCParameter.html#aa98d0171e3e7304331245cc55181ce50" target="_top" xlink:title="CParameter::doGetValue">
<polygon fill="white" stroke="black" points="227.5,-98.5 227.5,-119.5 362.5,-119.5 362.5,-98.5 227.5,-98.5"/>
<text text-anchor="middle" x="295" y="-106.5" font-family="Verdana" font-size="10.00">CParameter::doGetValue</text>
</a>
</g>
<!-- Node1&#45;&gt;Node12 -->
<g id="edge24" class="edge"><title>Node1&#45;&gt;Node12</title>
<path fill="none" stroke="midnightblue" d="M164.047,-123.14C181.583,-121.247 200.054,-119.252 217.415,-117.378"/>
<polygon fill="midnightblue" stroke="midnightblue" points="217.928,-120.843 227.494,-116.289 217.176,-113.883 217.928,-120.843"/>
</g>
<!-- Node13 -->
<g id="node26" class="node"><title>Node13</title>
<a xlink:href="classCConfigurableElement.html#a29d61e6d09ff508ebb87aea802f2704e" target="_top" xlink:title="CConfigurableElement\l::getOffset">
<polygon fill="white" stroke="black" points="233.5,-46 233.5,-80 356.5,-80 356.5,-46 233.5,-46"/>
<text text-anchor="start" x="241.5" y="-67" font-family="Verdana" font-size="10.00">CConfigurableElement</text>
<text text-anchor="middle" x="295" y="-54" font-family="Verdana" font-size="10.00">::getOffset</text>
</a>
</g>
<!-- Node1&#45;&gt;Node13 -->
<g id="edge26" class="edge"><title>Node1&#45;&gt;Node13</title>
<path fill="none" stroke="midnightblue" d="M108.965,-121.455C132.742,-112.33 168.421,-99.0565 200,-89 207.645,-86.5654 215.679,-84.1498 223.703,-81.828"/>
<polygon fill="midnightblue" stroke="midnightblue" points="224.8,-85.1547 233.458,-79.0476 222.882,-78.4228 224.8,-85.1547"/>
</g>
<!-- Node14 -->
<g id="node28" class="node"><title>Node14</title>
<a xlink:href="classCParameter.html#a3658a7f1281f902fe3b271fa01037398" target="_top" xlink:title="CParameter::getSize">
<polygon fill="white" stroke="black" points="237,-6.5 237,-27.5 353,-27.5 353,-6.5 237,-6.5"/>
<text text-anchor="middle" x="295" y="-14.5" font-family="Verdana" font-size="10.00">CParameter::getSize</text>
</a>
</g>
<!-- Node1&#45;&gt;Node14 -->
<g id="edge28" class="edge"><title>Node1&#45;&gt;Node14</title>
<path fill="none" stroke="midnightblue" d="M91.882,-121.212C110.81,-101.253 154.371,-58.6301 200,-37 208.478,-32.9813 217.76,-29.7646 227.097,-27.1912"/>
<polygon fill="midnightblue" stroke="midnightblue" points="227.976,-30.5789 236.814,-24.7356 226.261,-23.7922 227.976,-30.5789"/>
</g>
<!-- Node4 -->
<g id="node7" class="node"><title>Node4</title>
<a xlink:href="classCParameterAccessContext.html#ad073ad9ca128b5504f8a4a1d844c4e00" target="_top" xlink:title="CParameterAccessContext\l::getAutoSync">
<polygon fill="white" stroke="black" points="435.5,-351 435.5,-385 580.5,-385 580.5,-351 435.5,-351"/>
<text text-anchor="start" x="443.5" y="-372" font-family="Verdana" font-size="10.00">CParameterAccessContext</text>
<text text-anchor="middle" x="508" y="-359" font-family="Verdana" font-size="10.00">::getAutoSync</text>
</a>
</g>
<!-- Node3&#45;&gt;Node4 -->
<g id="edge6" class="edge"><title>Node3&#45;&gt;Node4</title>
<path fill="none" stroke="midnightblue" d="M377.381,-247.097C381.89,-249.666 386.146,-252.615 390,-256 421.131,-283.346 395.42,-314.039 426,-342 427.288,-343.178 428.63,-344.302 430.017,-345.376"/>
<polygon fill="midnightblue" stroke="midnightblue" points="428.15,-348.338 438.409,-350.984 432.04,-342.518 428.15,-348.338"/>
</g>
<!-- Node5 -->
<g id="node9" class="node"><title>Node5</title>
<a xlink:href="classCInstanceConfigurableElement.html#a4a613634c5012d4f32c310ccf2fc9fb4" target="_top" xlink:title="CInstanceConfigurableElement\l::getSyncer">
<polygon fill="white" stroke="black" points="426,-299 426,-333 590,-333 590,-299 426,-299"/>
<text text-anchor="start" x="434" y="-320" font-family="Verdana" font-size="10.00">CInstanceConfigurableElement</text>
<text text-anchor="middle" x="508" y="-307" font-family="Verdana" font-size="10.00">::getSyncer</text>
</a>
</g>
<!-- Node3&#45;&gt;Node5 -->
<g id="edge8" class="edge"><title>Node3&#45;&gt;Node5</title>
<path fill="none" stroke="midnightblue" d="M371.032,-247.137C377.618,-249.711 384.037,-252.649 390,-256 409.186,-266.782 407.033,-278.837 426,-290 428.832,-291.666 431.782,-293.239 434.81,-294.72"/>
<polygon fill="midnightblue" stroke="midnightblue" points="433.531,-297.982 444.086,-298.897 436.405,-291.6 433.531,-297.982"/>
</g>
<!-- Node6 -->
<g id="node11" class="node"><title>Node6</title>
<a xlink:href="classCErrorContext.html#a9d58b281c0d0fc9a6d3b83714cf812ef" target="_top" xlink:title="CErrorContext::setError">
<polygon fill="white" stroke="black" points="444,-259.5 444,-280.5 572,-280.5 572,-259.5 444,-259.5"/>
<text text-anchor="middle" x="508" y="-267.5" font-family="Verdana" font-size="10.00">CErrorContext::setError</text>
</a>
</g>
<!-- Node3&#45;&gt;Node6 -->
<g id="edge10" class="edge"><title>Node3&#45;&gt;Node6</title>
<path fill="none" stroke="midnightblue" d="M377.047,-245.408C398.599,-249.455 421.564,-253.768 442.146,-257.633"/>
<polygon fill="midnightblue" stroke="midnightblue" points="441.568,-261.086 452.042,-259.491 442.86,-254.206 441.568,-261.086"/>
</g>
<!-- Node7 -->
<g id="node13" class="node"><title>Node7</title>
<a xlink:href="classISyncer.html#a16844aac52fb0caf4aed4f68d4b038d9" target="_top" xlink:title="ISyncer::sync">
<polygon fill="white" stroke="black" points="468,-219.5 468,-240.5 548,-240.5 548,-219.5 468,-219.5"/>
<text text-anchor="middle" x="508" y="-227.5" font-family="Verdana" font-size="10.00">ISyncer::sync</text>
</a>
</g>
<!-- Node3&#45;&gt;Node7 -->
<g id="edge12" class="edge"><title>Node3&#45;&gt;Node7</title>
<path fill="none" stroke="midnightblue" d="M377.047,-230C404.202,-230 433.599,-230 457.647,-230"/>
<polygon fill="midnightblue" stroke="midnightblue" points="457.947,-233.5 467.947,-230 457.947,-226.5 457.947,-233.5"/>
</g>
<!-- Node8 -->
<g id="node15" class="node"><title>Node8</title>
<a xlink:href="classCParameterAccessContext.html#ad354dd5bf2a88f4ed4197be9a59fda20" target="_top" xlink:title="CParameterAccessContext\l::getParameterBlackboard">
<polygon fill="white" stroke="black" points="435.5,-167 435.5,-201 580.5,-201 580.5,-167 435.5,-167"/>
<text text-anchor="start" x="443.5" y="-188" font-family="Verdana" font-size="10.00">CParameterAccessContext</text>
<text text-anchor="middle" x="508" y="-175" font-family="Verdana" font-size="10.00">::getParameterBlackboard</text>
</a>
</g>
<!-- Node3&#45;&gt;Node8 -->
<g id="edge14" class="edge"><title>Node3&#45;&gt;Node8</title>
<path fill="none" stroke="midnightblue" d="M374.011,-212.937C390.836,-209.303 408.643,-205.457 425.591,-201.797"/>
<polygon fill="midnightblue" stroke="midnightblue" points="426.421,-205.199 435.457,-199.667 424.944,-198.356 426.421,-205.199"/>
</g>
<!-- Node10 -->
<g id="node19" class="node"><title>Node10</title>
<a xlink:href="classCErrorContext.html#afdd38e8aaaf045faaf575cf3ccbbc37b" target="_top" xlink:title="CErrorContext::appendToError">
<polygon fill="white" stroke="black" points="428.5,-127.5 428.5,-148.5 587.5,-148.5 587.5,-127.5 428.5,-127.5"/>
<text text-anchor="middle" x="508" y="-135.5" font-family="Verdana" font-size="10.00">CErrorContext::appendToError</text>
</a>
</g>
<!-- Node9&#45;&gt;Node10 -->
<g id="edge18" class="edge"><title>Node9&#45;&gt;Node10</title>
<path fill="none" stroke="midnightblue" d="M390.286,-147.395C399.641,-146.648 409.112,-145.892 418.407,-145.151"/>
<polygon fill="midnightblue" stroke="midnightblue" points="418.72,-148.637 428.41,-144.352 418.163,-141.659 418.72,-148.637"/>
</g>
<!-- Node11 -->
<g id="node21" class="node"><title>Node11</title>
<a xlink:href="classCElement.html#a7022c0fc8063f0aae9d97b06e74d4ac1" target="_top" xlink:title="CElement::getPath">
<polygon fill="white" stroke="black" points="455,-69.5 455,-90.5 561,-90.5 561,-69.5 455,-69.5"/>
<text text-anchor="middle" x="508" y="-77.5" font-family="Verdana" font-size="10.00">CElement::getPath</text>
</a>
</g>
<!-- Node9&#45;&gt;Node11 -->
<g id="edge20" class="edge"><title>Node9&#45;&gt;Node11</title>
<path fill="none" stroke="midnightblue" d="M361.51,-137.95C371.129,-135.151 380.861,-132.134 390,-129 419.507,-118.881 452.203,-105.094 475.681,-94.7211"/>
<polygon fill="midnightblue" stroke="midnightblue" points="477.117,-97.913 484.827,-90.6469 474.268,-91.5187 477.117,-97.913"/>
</g>
<!-- Node11&#45;&gt;Node11 -->
<g id="edge22" class="edge"><title>Node11&#45;&gt;Node11</title>
<path fill="none" stroke="midnightblue" d="M474.315,-90.7079C459.92,-99.6531 471.148,-109 508,-109 533.335,-109 546.56,-104.582 547.673,-98.9142"/>
<polygon fill="midnightblue" stroke="midnightblue" points="550.407,-96.7225 541.685,-90.7079 544.752,-100.849 550.407,-96.7225"/>
</g>
<!-- Node15 -->
<g id="node30" class="node"><title>Node15</title>
<a xlink:href="classCInstanceConfigurableElement.html#ae2d941df411f8ec4c025cbd04d3ba421" target="_top" xlink:title="CInstanceConfigurableElement\l::getTypeElement">
<polygon fill="white" stroke="black" points="426,-0 426,-34 590,-34 590,-0 426,-0"/>
<text text-anchor="start" x="434" y="-21" font-family="Verdana" font-size="10.00">CInstanceConfigurableElement</text>
<text text-anchor="middle" x="508" y="-8" font-family="Verdana" font-size="10.00">::getTypeElement</text>
</a>
</g>
<!-- Node14&#45;&gt;Node15 -->
<g id="edge30" class="edge"><title>Node14&#45;&gt;Node15</title>
<path fill="none" stroke="midnightblue" d="M353.203,-17C372.556,-17 394.608,-17 415.881,-17"/>
<polygon fill="midnightblue" stroke="midnightblue" points="415.915,-20.5001 425.915,-17 415.915,-13.5001 415.915,-20.5001"/>
</g>
</g>
</svg>
