<?xml version="1.0" encoding="UTF-8" standalone="no"?>
<!DOCTYPE svg PUBLIC "-//W3C//DTD SVG 1.1//EN"
 "http://www.w3.org/Graphics/SVG/1.1/DTD/svg11.dtd">
<!-- Generated by graphviz version 2.26.3 (20100126.1600)
 -->
<!-- Title: CParameterMgr::setElementSequence Pages: 1 -->
<svg width="658pt" height="94pt"
 viewBox="0.00 0.00 658.00 94.00" xmlns="http://www.w3.org/2000/svg" xmlns:xlink="http://www.w3.org/1999/xlink">
<g id="graph1" class="graph" transform="scale(1 1) rotate(0) translate(4 90)">
<title>CParameterMgr::setElementSequence</title>
<polygon fill="white" stroke="white" points="-4,5 -4,-90 655,-90 655,5 -4,5"/>
<!-- Node1 -->
<g id="node1" class="node"><title>Node1</title>
<polygon fill="#bfbfbf" stroke="black" points="0,-26 0,-60 152,-60 152,-26 0,-26"/>
<text text-anchor="start" x="8" y="-47" font-family="Verdana" font-size="10.00">CParameterMgr::setElement</text>
<text text-anchor="middle" x="76" y="-34" font-family="Verdana" font-size="10.00">Sequence</text>
</g>
<!-- Node2 -->
<g id="node3" class="node"><title>Node2</title>
<a xlink:href="classCConfigurableDomains.html#abad5c37e114fa09153d08c3fe2589235" target="_top" xlink:title="CConfigurableDomains\l::setElementSequence">
<polygon fill="white" stroke="black" points="188,-26 188,-60 314,-60 314,-26 188,-26"/>
<text text-anchor="start" x="196" y="-47" font-family="Verdana" font-size="10.00">CConfigurableDomains</text>
<text text-anchor="middle" x="251" y="-34" font-family="Verdana" font-size="10.00">::setElementSequence</text>
</a>
</g>
<!-- Node1&#45;&gt;Node2 -->
<g id="edge2" class="edge"><title>Node1&#45;&gt;Node2</title>
<path fill="none" stroke="midnightblue" d="M152.248,-43C160.696,-43 169.285,-43 177.695,-43"/>
<polygon fill="midnightblue" stroke="midnightblue" points="177.842,-46.5001 187.842,-43 177.842,-39.5001 177.842,-46.5001"/>
</g>
<!-- Node3 -->
<g id="node5" class="node"><title>Node3</title>
<a xlink:href="classCConfigurableDomains.html#a4dce38a1560b6e33871d3fa2d85cc449" target="_top" xlink:title="CConfigurableDomains\l::findConfigurableDomain">
<polygon fill="white" stroke="black" points="350.5,-52 350.5,-86 487.5,-86 487.5,-52 350.5,-52"/>
<text text-anchor="start" x="358.5" y="-73" font-family="Verdana" font-size="10.00">CConfigurableDomains</text>
<text text-anchor="middle" x="419" y="-60" font-family="Verdana" font-size="10.00">::findConfigurableDomain</text>
</a>
</g>
<!-- Node2&#45;&gt;Node3 -->
<g id="edge4" class="edge"><title>Node2&#45;&gt;Node3</title>
<path fill="none" stroke="midnightblue" d="M314.035,-52.7554C322.626,-54.085 331.53,-55.463 340.355,-56.8287"/>
<polygon fill="midnightblue" stroke="midnightblue" points="339.846,-60.2916 350.264,-58.3622 340.917,-53.3739 339.846,-60.2916"/>
</g>
<!-- Node5 -->
<g id="node9" class="node"><title>Node5</title>
<a xlink:href="classCConfigurableDomain.html#a1778bfe42d19352dac62ae88f907b6d2" target="_top" xlink:title="CConfigurableDomain\l::setElementSequence">
<polygon fill="white" stroke="black" points="356.5,-0 356.5,-34 481.5,-34 481.5,-0 356.5,-0"/>
<text text-anchor="start" x="364.5" y="-21" font-family="Verdana" font-size="10.00">CConfigurableDomain</text>
<text text-anchor="middle" x="419" y="-8" font-family="Verdana" font-size="10.00">::setElementSequence</text>
</a>
</g>
<!-- Node2&#45;&gt;Node5 -->
<g id="edge8" class="edge"><title>Node2&#45;&gt;Node5</title>
<path fill="none" stroke="midnightblue" d="M314.035,-33.2446C324.548,-31.6176 335.529,-29.9181 346.261,-28.2573"/>
<polygon fill="midnightblue" stroke="midnightblue" points="347.102,-31.6687 356.45,-26.6804 346.032,-24.7511 347.102,-31.6687"/>
</g>
<!-- Node4 -->
<g id="node7" class="node"><title>Node4</title>
<a xlink:href="classCElement.html#a8595814a3159f32f874269907e70b260" target="_top" xlink:title="CElement::findChild">
<polygon fill="white" stroke="black" points="532,-58.5 532,-79.5 642,-79.5 642,-58.5 532,-58.5"/>
<text text-anchor="middle" x="587" y="-66.5" font-family="Verdana" font-size="10.00">CElement::findChild</text>
</a>
</g>
<!-- Node3&#45;&gt;Node4 -->
<g id="edge6" class="edge"><title>Node3&#45;&gt;Node4</title>
<path fill="none" stroke="midnightblue" d="M487.817,-69C499.056,-69 510.67,-69 521.819,-69"/>
<polygon fill="midnightblue" stroke="midnightblue" points="521.902,-72.5001 531.901,-69 521.901,-65.5001 521.902,-72.5001"/>
</g>
<!-- Node6 -->
<g id="node11" class="node"><title>Node6</title>
<a xlink:href="classCDomainConfiguration.html#a44b4473a304bddf0a51eb3bfef412832" target="_top" xlink:title="CDomainConfiguration\l::setElementSequence">
<polygon fill="white" stroke="black" points="524.5,-0 524.5,-34 649.5,-34 649.5,-0 524.5,-0"/>
<text text-anchor="start" x="532.5" y="-21" font-family="Verdana" font-size="10.00">CDomainConfiguration</text>
<text text-anchor="middle" x="587" y="-8" font-family="Verdana" font-size="10.00">::setElementSequence</text>
</a>
</g>
<!-- Node5&#45;&gt;Node6 -->
<g id="edge10" class="edge"><title>Node5&#45;&gt;Node6</title>
<path fill="none" stroke="midnightblue" d="M481.557,-17C492.162,-17 503.255,-17 514.097,-17"/>
<polygon fill="midnightblue" stroke="midnightblue" points="514.391,-20.5001 524.391,-17 514.391,-13.5001 514.391,-20.5001"/>
</g>
</g>
</svg>
