<?xml version="1.0" encoding="UTF-8" standalone="no"?>
<!DOCTYPE svg PUBLIC "-//W3C//DTD SVG 1.1//EN"
 "http://www.w3.org/Graphics/SVG/1.1/DTD/svg11.dtd">
<!-- Generated by graphviz version 2.26.3 (20100126.1600)
 -->
<!-- Title: CBaseParameter::accessValue Pages: 1 -->
<svg width="798pt" height="399pt"
 viewBox="0.00 0.00 798.00 399.00" xmlns="http://www.w3.org/2000/svg" xmlns:xlink="http://www.w3.org/1999/xlink">
<g id="graph1" class="graph" transform="scale(1 1) rotate(0) translate(4 395)">
<title>CBaseParameter::accessValue</title>
<polygon fill="white" stroke="white" points="-4,5 -4,-395 795,-395 795,5 -4,5"/>
<!-- Node1 -->
<g id="node1" class="node"><title>Node1</title>
<polygon fill="#bfbfbf" stroke="black" points="0.5,-230.5 0.5,-251.5 163.5,-251.5 163.5,-230.5 0.5,-230.5"/>
<text text-anchor="middle" x="82" y="-238.5" font-family="Verdana" font-size="10.00">CBaseParameter::accessValue</text>
</g>
<!-- Node2 -->
<g id="node3" class="node"><title>Node2</title>
<a xlink:href="classCInstanceConfigurableElement.html#a4355916fa36efbe5fb62894d0a5dc95f" target="_top" xlink:title="CInstanceConfigurableElement\l::checkPathExhausted">
<polygon fill="white" stroke="black" points="200,-304 200,-338 364,-338 364,-304 200,-304"/>
<text text-anchor="start" x="208" y="-325" font-family="Verdana" font-size="10.00">CInstanceConfigurableElement</text>
<text text-anchor="middle" x="282" y="-312" font-family="Verdana" font-size="10.00">::checkPathExhausted</text>
</a>
</g>
<!-- Node1&#45;&gt;Node2 -->
<g id="edge2" class="edge"><title>Node1&#45;&gt;Node2</title>
<path fill="none" stroke="midnightblue" d="M108.558,-251.623C139.317,-263.927 190.735,-284.494 229.62,-300.048"/>
<polygon fill="midnightblue" stroke="midnightblue" points="228.631,-303.422 239.216,-303.886 231.231,-296.923 228.631,-303.422"/>
</g>
<!-- Node6 -->
<g id="node11" class="node"><title>Node6</title>
<a xlink:href="classCBaseParameter.html#a2b425561e193a3d54e7225d896a3d39b" target="_top" xlink:title="CBaseParameter::accessAs\lString">
<polygon fill="white" stroke="black" points="207.5,-144 207.5,-178 356.5,-178 356.5,-144 207.5,-144"/>
<text text-anchor="start" x="215.5" y="-165" font-family="Verdana" font-size="10.00">CBaseParameter::accessAs</text>
<text text-anchor="middle" x="282" y="-152" font-family="Verdana" font-size="10.00">String</text>
</a>
</g>
<!-- Node1&#45;&gt;Node6 -->
<g id="edge10" class="edge"><title>Node1&#45;&gt;Node6</title>
<path fill="none" stroke="midnightblue" d="M108.558,-230.377C139.317,-218.073 190.735,-197.506 229.62,-181.952"/>
<polygon fill="midnightblue" stroke="midnightblue" points="231.231,-185.077 239.216,-178.114 228.631,-178.578 231.231,-185.077"/>
</g>
<!-- Node3 -->
<g id="node5" class="node"><title>Node3</title>
<a xlink:href="classCPathNavigator.html#a06f35d45c0bf392e11de0bf1197cc589" target="_top" xlink:title="CPathNavigator::next">
<polygon fill="white" stroke="black" points="436,-369.5 436,-390.5 554,-390.5 554,-369.5 436,-369.5"/>
<text text-anchor="middle" x="495" y="-377.5" font-family="Verdana" font-size="10.00">CPathNavigator::next</text>
</a>
</g>
<!-- Node2&#45;&gt;Node3 -->
<g id="edge4" class="edge"><title>Node2&#45;&gt;Node3</title>
<path fill="none" stroke="midnightblue" d="M340.142,-338.043C359.191,-343.549 380.474,-349.619 400,-355 414.156,-358.902 429.537,-363.007 443.716,-366.737"/>
<polygon fill="midnightblue" stroke="midnightblue" points="443.234,-370.229 453.794,-369.379 445.009,-363.458 443.234,-370.229"/>
</g>
<!-- Node4 -->
<g id="node7" class="node"><title>Node4</title>
<a xlink:href="classCErrorContext.html#a9d58b281c0d0fc9a6d3b83714cf812ef" target="_top" xlink:title="CErrorContext::setError">
<polygon fill="white" stroke="black" points="644,-336.5 644,-357.5 772,-357.5 772,-336.5 644,-336.5"/>
<text text-anchor="middle" x="708" y="-344.5" font-family="Verdana" font-size="10.00">CErrorContext::setError</text>
</a>
</g>
<!-- Node2&#45;&gt;Node4 -->
<g id="edge6" class="edge"><title>Node2&#45;&gt;Node4</title>
<path fill="none" stroke="midnightblue" d="M364.137,-326.013C442.072,-330.77 558.168,-337.855 633.486,-342.452"/>
<polygon fill="midnightblue" stroke="midnightblue" points="633.64,-345.968 643.834,-343.084 634.066,-338.981 633.64,-345.968"/>
</g>
<!-- Node5 -->
<g id="node9" class="node"><title>Node5</title>
<a xlink:href="classCPathNavigator.html#a0fbd92beb48fdfb2041788cf77d44cf1" target="_top" xlink:title="CPathNavigator::getCurrentPath">
<polygon fill="white" stroke="black" points="410,-291.5 410,-312.5 580,-312.5 580,-291.5 410,-291.5"/>
<text text-anchor="middle" x="495" y="-299.5" font-family="Verdana" font-size="10.00">CPathNavigator::getCurrentPath</text>
</a>
</g>
<!-- Node2&#45;&gt;Node5 -->
<g id="edge8" class="edge"><title>Node2&#45;&gt;Node5</title>
<path fill="none" stroke="midnightblue" d="M364.047,-313.681C375.766,-312.636 387.903,-311.553 399.847,-310.488"/>
<polygon fill="midnightblue" stroke="midnightblue" points="400.172,-313.973 409.822,-309.598 399.55,-307 400.172,-313.973"/>
</g>
<!-- Node7 -->
<g id="node13" class="node"><title>Node7</title>
<a xlink:href="classCBaseParameter.html#a00d311bf1da2353a1b27d523b4a76f59" target="_top" xlink:title="CBaseParameter::doSetValue">
<polygon fill="white" stroke="black" points="416,-196.5 416,-217.5 574,-217.5 574,-196.5 416,-196.5"/>
<text text-anchor="middle" x="495" y="-204.5" font-family="Verdana" font-size="10.00">CBaseParameter::doSetValue</text>
</a>
</g>
<!-- Node6&#45;&gt;Node7 -->
<g id="edge12" class="edge"><title>Node6&#45;&gt;Node7</title>
<path fill="none" stroke="midnightblue" d="M356.569,-177.541C370.974,-180.706 385.953,-183.974 400,-187 411.087,-189.388 422.909,-191.903 434.314,-194.313"/>
<polygon fill="midnightblue" stroke="midnightblue" points="433.693,-197.758 444.2,-196.397 435.137,-190.909 433.693,-197.758"/>
</g>
<!-- Node8 -->
<g id="node15" class="node"><title>Node8</title>
<a xlink:href="classCConfigurableElement.html#a29d61e6d09ff508ebb87aea802f2704e" target="_top" xlink:title="CConfigurableElement\l::getOffset">
<polygon fill="white" stroke="black" points="433.5,-144 433.5,-178 556.5,-178 556.5,-144 433.5,-144"/>
<text text-anchor="start" x="441.5" y="-165" font-family="Verdana" font-size="10.00">CConfigurableElement</text>
<text text-anchor="middle" x="495" y="-152" font-family="Verdana" font-size="10.00">::getOffset</text>
</a>
</g>
<!-- Node6&#45;&gt;Node8 -->
<g id="edge14" class="edge"><title>Node6&#45;&gt;Node8</title>
<path fill="none" stroke="midnightblue" d="M356.796,-161C378.424,-161 401.971,-161 423.399,-161"/>
<polygon fill="midnightblue" stroke="midnightblue" points="423.404,-164.5 433.404,-161 423.404,-157.5 423.404,-164.5"/>
</g>
<!-- Node9 -->
<g id="node17" class="node"><title>Node9</title>
<a xlink:href="classCParameterAccessContext.html#a8373a015bb145386732483ee3f6bdf63" target="_top" xlink:title="CParameterAccessContext\l::getBaseOffset">
<polygon fill="white" stroke="black" points="422.5,-92 422.5,-126 567.5,-126 567.5,-92 422.5,-92"/>
<text text-anchor="start" x="430.5" y="-113" font-family="Verdana" font-size="10.00">CParameterAccessContext</text>
<text text-anchor="middle" x="495" y="-100" font-family="Verdana" font-size="10.00">::getBaseOffset</text>
</a>
</g>
<!-- Node6&#45;&gt;Node9 -->
<g id="edge16" class="edge"><title>Node6&#45;&gt;Node9</title>
<path fill="none" stroke="midnightblue" d="M351.744,-143.973C372.064,-139.013 394.418,-133.555 415.302,-128.457"/>
<polygon fill="midnightblue" stroke="midnightblue" points="416.215,-131.837 425.099,-126.065 414.554,-125.037 416.215,-131.837"/>
</g>
<!-- Node10 -->
<g id="node19" class="node"><title>Node10</title>
<a xlink:href="classCBaseParameter.html#a911cbd2df0c950a79863fdd689731f88" target="_top" xlink:title="Append the parameter path to the error. ">
<polygon fill="white" stroke="black" points="400,-40 400,-74 590,-74 590,-40 400,-40"/>
<text text-anchor="start" x="408" y="-61" font-family="Verdana" font-size="10.00">CBaseParameter::appendParameter</text>
<text text-anchor="middle" x="495" y="-48" font-family="Verdana" font-size="10.00">PathToError</text>
</a>
</g>
<!-- Node6&#45;&gt;Node10 -->
<g id="edge18" class="edge"><title>Node6&#45;&gt;Node10</title>
<path fill="none" stroke="midnightblue" d="M303.389,-143.817C326.138,-126.298 363.766,-99.4254 400,-83 404.346,-81.0298 408.874,-79.1802 413.491,-77.4483"/>
<polygon fill="midnightblue" stroke="midnightblue" points="414.809,-80.6948 423.067,-74.0577 412.472,-74.0962 414.809,-80.6948"/>
</g>
<!-- Node13 -->
<g id="node26" class="node"><title>Node13</title>
<a xlink:href="classCInstanceConfigurableElement.html#a2e6e7782de8e4d7e844a869917f2f037" target="_top" xlink:title="Performs the sync if the AutoSync is enabled. ">
<polygon fill="white" stroke="black" points="413,-236 413,-270 577,-270 577,-236 413,-236"/>
<text text-anchor="start" x="421" y="-257" font-family="Verdana" font-size="10.00">CInstanceConfigurableElement</text>
<text text-anchor="middle" x="495" y="-244" font-family="Verdana" font-size="10.00">::sync</text>
</a>
</g>
<!-- Node6&#45;&gt;Node13 -->
<g id="edge26" class="edge"><title>Node6&#45;&gt;Node13</title>
<path fill="none" stroke="midnightblue" d="M308.252,-178.135C331.572,-192.75 366.981,-213.483 400,-227 404.995,-229.045 410.202,-230.98 415.493,-232.803"/>
<polygon fill="midnightblue" stroke="midnightblue" points="414.488,-236.157 425.081,-235.96 416.677,-229.508 414.488,-236.157"/>
</g>
<!-- Node18 -->
<g id="node37" class="node"><title>Node18</title>
<a xlink:href="classCBaseParameter.html#aea4a2e14dbd4588fbe837bbe5cae5076" target="_top" xlink:title="CBaseParameter::doGetValue">
<polygon fill="white" stroke="black" points="415.5,-0.5 415.5,-21.5 574.5,-21.5 574.5,-0.5 415.5,-0.5"/>
<text text-anchor="middle" x="495" y="-8.5" font-family="Verdana" font-size="10.00">CBaseParameter::doGetValue</text>
</a>
</g>
<!-- Node6&#45;&gt;Node18 -->
<g id="edge38" class="edge"><title>Node6&#45;&gt;Node18</title>
<path fill="none" stroke="midnightblue" d="M292.32,-143.938C310.382,-115.65 350.553,-59.3522 400,-31 403.888,-28.7704 407.994,-26.7883 412.23,-25.0261"/>
<polygon fill="midnightblue" stroke="midnightblue" points="413.527,-28.2782 421.677,-21.5094 411.085,-21.7179 413.527,-28.2782"/>
</g>
<!-- Node11 -->
<g id="node21" class="node"><title>Node11</title>
<a xlink:href="classCErrorContext.html#afdd38e8aaaf045faaf575cf3ccbbc37b" target="_top" xlink:title="CErrorContext::appendToError">
<polygon fill="white" stroke="black" points="628.5,-78.5 628.5,-99.5 787.5,-99.5 787.5,-78.5 628.5,-78.5"/>
<text text-anchor="middle" x="708" y="-86.5" font-family="Verdana" font-size="10.00">CErrorContext::appendToError</text>
</a>
</g>
<!-- Node10&#45;&gt;Node11 -->
<g id="edge20" class="edge"><title>Node10&#45;&gt;Node11</title>
<path fill="none" stroke="midnightblue" d="M590.286,-71.3153C602.834,-73.2004 615.592,-75.117 627.852,-76.959"/>
<polygon fill="midnightblue" stroke="midnightblue" points="627.609,-80.4617 638.018,-78.4863 628.649,-73.5394 627.609,-80.4617"/>
</g>
<!-- Node12 -->
<g id="node23" class="node"><title>Node12</title>
<a xlink:href="classCElement.html#a7022c0fc8063f0aae9d97b06e74d4ac1" target="_top" xlink:title="CElement::getPath">
<polygon fill="white" stroke="black" points="655,-20.5 655,-41.5 761,-41.5 761,-20.5 655,-20.5"/>
<text text-anchor="middle" x="708" y="-28.5" font-family="Verdana" font-size="10.00">CElement::getPath</text>
</a>
</g>
<!-- Node10&#45;&gt;Node12 -->
<g id="edge22" class="edge"><title>Node10&#45;&gt;Node12</title>
<path fill="none" stroke="midnightblue" d="M590.286,-45.3688C608.632,-43.1295 627.426,-40.8353 644.459,-38.7561"/>
<polygon fill="midnightblue" stroke="midnightblue" points="645.315,-42.1777 654.818,-37.4917 644.467,-35.2293 645.315,-42.1777"/>
</g>
<!-- Node12&#45;&gt;Node12 -->
<g id="edge24" class="edge"><title>Node12&#45;&gt;Node12</title>
<path fill="none" stroke="midnightblue" d="M674.315,-41.7079C659.92,-50.6531 671.148,-60 708,-60 733.335,-60 746.56,-55.5821 747.673,-49.9142"/>
<polygon fill="midnightblue" stroke="midnightblue" points="750.407,-47.7225 741.685,-41.7079 744.752,-51.8489 750.407,-47.7225"/>
</g>
<!-- Node13&#45;&gt;Node4 -->
<g id="edge32" class="edge"><title>Node13&#45;&gt;Node4</title>
<path fill="none" stroke="midnightblue" d="M567.668,-270.119C575.53,-273.428 583.151,-277.352 590,-282 611.194,-296.381 604.404,-313.23 626,-327 629.311,-329.111 632.827,-330.999 636.469,-332.688"/>
<polygon fill="midnightblue" stroke="midnightblue" points="635.157,-335.933 645.737,-336.49 637.814,-329.457 635.157,-335.933"/>
</g>
<!-- Node14 -->
<g id="node28" class="node"><title>Node14</title>
<a xlink:href="classCParameterAccessContext.html#ad073ad9ca128b5504f8a4a1d844c4e00" target="_top" xlink:title="CParameterAccessContext\l::getAutoSync">
<polygon fill="white" stroke="black" points="635.5,-284 635.5,-318 780.5,-318 780.5,-284 635.5,-284"/>
<text text-anchor="start" x="643.5" y="-305" font-family="Verdana" font-size="10.00">CParameterAccessContext</text>
<text text-anchor="middle" x="708" y="-292" font-family="Verdana" font-size="10.00">::getAutoSync</text>
</a>
</g>
<!-- Node13&#45;&gt;Node14 -->
<g id="edge28" class="edge"><title>Node13&#45;&gt;Node14</title>
<path fill="none" stroke="midnightblue" d="M570.696,-270.058C588.452,-274.06 607.459,-278.343 625.497,-282.408"/>
<polygon fill="midnightblue" stroke="midnightblue" points="624.88,-285.856 635.405,-284.641 626.419,-279.028 624.88,-285.856"/>
</g>
<!-- Node15 -->
<g id="node30" class="node"><title>Node15</title>
<a xlink:href="classCInstanceConfigurableElement.html#a4a613634c5012d4f32c310ccf2fc9fb4" target="_top" xlink:title="CInstanceConfigurableElement\l::getSyncer">
<polygon fill="white" stroke="black" points="626,-232 626,-266 790,-266 790,-232 626,-232"/>
<text text-anchor="start" x="634" y="-253" font-family="Verdana" font-size="10.00">CInstanceConfigurableElement</text>
<text text-anchor="middle" x="708" y="-240" font-family="Verdana" font-size="10.00">::getSyncer</text>
</a>
</g>
<!-- Node13&#45;&gt;Node15 -->
<g id="edge30" class="edge"><title>Node13&#45;&gt;Node15</title>
<path fill="none" stroke="midnightblue" d="M577.047,-251.459C589.715,-251.221 602.872,-250.974 615.746,-250.732"/>
<polygon fill="midnightblue" stroke="midnightblue" points="616.063,-254.227 625.996,-250.54 615.932,-247.228 616.063,-254.227"/>
</g>
<!-- Node16 -->
<g id="node33" class="node"><title>Node16</title>
<a xlink:href="classISyncer.html#a16844aac52fb0caf4aed4f68d4b038d9" target="_top" xlink:title="ISyncer::sync">
<polygon fill="white" stroke="black" points="668,-192.5 668,-213.5 748,-213.5 748,-192.5 668,-192.5"/>
<text text-anchor="middle" x="708" y="-200.5" font-family="Verdana" font-size="10.00">ISyncer::sync</text>
</a>
</g>
<!-- Node13&#45;&gt;Node16 -->
<g id="edge34" class="edge"><title>Node13&#45;&gt;Node16</title>
<path fill="none" stroke="midnightblue" d="M567.707,-235.933C597.415,-228.959 631.037,-221.066 657.918,-214.756"/>
<polygon fill="midnightblue" stroke="midnightblue" points="658.932,-218.113 667.868,-212.421 657.333,-211.299 658.932,-218.113"/>
</g>
<!-- Node17 -->
<g id="node35" class="node"><title>Node17</title>
<a xlink:href="classCParameterAccessContext.html#ad354dd5bf2a88f4ed4197be9a59fda20" target="_top" xlink:title="CParameterAccessContext\l::getParameterBlackboard">
<polygon fill="white" stroke="black" points="635.5,-140 635.5,-174 780.5,-174 780.5,-140 635.5,-140"/>
<text text-anchor="start" x="643.5" y="-161" font-family="Verdana" font-size="10.00">CParameterAccessContext</text>
<text text-anchor="middle" x="708" y="-148" font-family="Verdana" font-size="10.00">::getParameterBlackboard</text>
</a>
</g>
<!-- Node13&#45;&gt;Node17 -->
<g id="edge36" class="edge"><title>Node13&#45;&gt;Node17</title>
<path fill="none" stroke="midnightblue" d="M573.455,-235.828C579.249,-233.278 584.838,-230.353 590,-227 611.189,-213.236 605.09,-197.184 626,-183 628.163,-181.533 630.413,-180.145 632.729,-178.832"/>
<polygon fill="midnightblue" stroke="midnightblue" points="634.623,-181.795 641.939,-174.132 631.441,-175.56 634.623,-181.795"/>
</g>
</g>
</svg>
