<?xml version="1.0" encoding="UTF-8" standalone="no"?>
<!DOCTYPE svg PUBLIC "-//W3C//DTD SVG 1.1//EN"
 "http://www.w3.org/Graphics/SVG/1.1/DTD/svg11.dtd">
<!-- Generated by graphviz version 2.26.3 (20100126.1600)
 -->
<!-- Title: CMessage::getMsgId Pages: 1 -->
<svg width="564pt" height="30pt"
 viewBox="0.00 0.00 564.00 30.00" xmlns="http://www.w3.org/2000/svg" xmlns:xlink="http://www.w3.org/1999/xlink">
<g id="graph1" class="graph" transform="scale(1 1) rotate(0) translate(4 26)">
<title>CMessage::getMsgId</title>
<polygon fill="white" stroke="white" points="-4,5 -4,-26 561,-26 561,5 -4,5"/>
<!-- Node1 -->
<g id="node1" class="node"><title>Node1</title>
<polygon fill="#bfbfbf" stroke="black" points="0,-0.5 0,-21.5 116,-21.5 116,-0.5 0,-0.5"/>
<text text-anchor="middle" x="58" y="-8.5" font-family="Verdana" font-size="10.00">CMessage::getMsgId</text>
</g>
<!-- Node2 -->
<g id="node3" class="node"><title>Node2</title>
<a xlink:href="classCAnswerMessage.html#af22d01ea3de76ad0e82513eab0d7e7ce" target="_top" xlink:title="CAnswerMessage::success">
<polygon fill="white" stroke="black" points="152.5,-0.5 152.5,-21.5 297.5,-21.5 297.5,-0.5 152.5,-0.5"/>
<text text-anchor="middle" x="225" y="-8.5" font-family="Verdana" font-size="10.00">CAnswerMessage::success</text>
</a>
</g>
<!-- Node1&#45;&gt;Node2 -->
<g id="edge2" class="edge"><title>Node1&#45;&gt;Node2</title>
<path fill="none" stroke="midnightblue" d="M126.594,-11C135.051,-11 143.718,-11 152.233,-11"/>
<polygon fill="midnightblue" stroke="midnightblue" points="126.409,-7.5001 116.408,-11 126.408,-14.5001 126.409,-7.5001"/>
</g>
<!-- Node3 -->
<g id="node5" class="node"><title>Node3</title>
<a xlink:href="main_8cpp.html#af14c089a76390ab8b7424bb69fad6352" target="_top" xlink:title="sendAndDisplayCommand">
<polygon fill="white" stroke="black" points="334.5,-0.5 334.5,-21.5 477.5,-21.5 477.5,-0.5 334.5,-0.5"/>
<text text-anchor="middle" x="406" y="-8.5" font-family="Verdana" font-size="10.00">sendAndDisplayCommand</text>
</a>
</g>
<!-- Node2&#45;&gt;Node3 -->
<g id="edge4" class="edge"><title>Node2&#45;&gt;Node3</title>
<path fill="none" stroke="midnightblue" d="M307.581,-11C316.498,-11 325.518,-11 334.291,-11"/>
<polygon fill="midnightblue" stroke="midnightblue" points="307.577,-7.5001 297.577,-11 307.577,-14.5001 307.577,-7.5001"/>
</g>
<!-- Node4 -->
<g id="node7" class="node"><title>Node4</title>
<a xlink:href="main_8cpp.html#a0ddf1224851353fc92bfbff6f499fa97" target="_top" xlink:title="main">
<polygon fill="white" stroke="black" points="514.5,-0.5 514.5,-21.5 555.5,-21.5 555.5,-0.5 514.5,-0.5"/>
<text text-anchor="middle" x="535" y="-8.5" font-family="Verdana" font-size="10.00">main</text>
</a>
</g>
<!-- Node3&#45;&gt;Node4 -->
<g id="edge6" class="edge"><title>Node3&#45;&gt;Node4</title>
<path fill="none" stroke="midnightblue" d="M487.949,-11C497.656,-11 506.792,-11 514.386,-11"/>
<polygon fill="midnightblue" stroke="midnightblue" points="487.668,-7.5001 477.667,-11 487.667,-14.5001 487.668,-7.5001"/>
</g>
</g>
</svg>
