<?xml version="1.0" encoding="UTF-8" standalone="no"?>
<!DOCTYPE svg PUBLIC "-//W3C//DTD SVG 1.1//EN"
 "http://www.w3.org/Graphics/SVG/1.1/DTD/svg11.dtd">
<!-- Generated by graphviz version 2.26.3 (20100126.1600)
 -->
<!-- Title: CParameterMgr::getSequenceAwareness Pages: 1 -->
<svg width="664pt" height="94pt"
 viewBox="0.00 0.00 664.00 94.00" xmlns="http://www.w3.org/2000/svg" xmlns:xlink="http://www.w3.org/1999/xlink">
<g id="graph1" class="graph" transform="scale(1 1) rotate(0) translate(4 90)">
<title>CParameterMgr::getSequenceAwareness</title>
<polygon fill="white" stroke="white" points="-4,5 -4,-90 661,-90 661,5 -4,5"/>
<!-- Node1 -->
<g id="node1" class="node"><title>Node1</title>
<polygon fill="#bfbfbf" stroke="black" points="0.5,-26 0.5,-60 161.5,-60 161.5,-26 0.5,-26"/>
<text text-anchor="start" x="8.5" y="-47" font-family="Verdana" font-size="10.00">CParameterMgr::getSequence</text>
<text text-anchor="middle" x="81" y="-34" font-family="Verdana" font-size="10.00">Awareness</text>
</g>
<!-- Node2 -->
<g id="node3" class="node"><title>Node2</title>
<a xlink:href="classCConfigurableDomains.html#a7079463f456c5dc7a58e0809b8c39fa4" target="_top" xlink:title="CConfigurableDomains\l::getSequenceAwareness">
<polygon fill="white" stroke="black" points="198.5,-26 198.5,-60 335.5,-60 335.5,-26 198.5,-26"/>
<text text-anchor="start" x="206.5" y="-47" font-family="Verdana" font-size="10.00">CConfigurableDomains</text>
<text text-anchor="middle" x="267" y="-34" font-family="Verdana" font-size="10.00">::getSequenceAwareness</text>
</a>
</g>
<!-- Node1&#45;&gt;Node2 -->
<g id="edge2" class="edge"><title>Node1&#45;&gt;Node2</title>
<path fill="none" stroke="midnightblue" d="M161.501,-43C170.321,-43 179.295,-43 188.097,-43"/>
<polygon fill="midnightblue" stroke="midnightblue" points="188.33,-46.5001 198.33,-43 188.33,-39.5001 188.33,-46.5001"/>
</g>
<!-- Node3 -->
<g id="node5" class="node"><title>Node3</title>
<a xlink:href="classCConfigurableDomains.html#a4dce38a1560b6e33871d3fa2d85cc449" target="_top" xlink:title="CConfigurableDomains\l::findConfigurableDomain">
<polygon fill="white" stroke="black" points="372.5,-52 372.5,-86 509.5,-86 509.5,-52 372.5,-52"/>
<text text-anchor="start" x="380.5" y="-73" font-family="Verdana" font-size="10.00">CConfigurableDomains</text>
<text text-anchor="middle" x="441" y="-60" font-family="Verdana" font-size="10.00">::findConfigurableDomain</text>
</a>
</g>
<!-- Node2&#45;&gt;Node3 -->
<g id="edge4" class="edge"><title>Node2&#45;&gt;Node3</title>
<path fill="none" stroke="midnightblue" d="M335.769,-53.2759C344.535,-54.5856 353.558,-55.934 362.463,-57.2646"/>
<polygon fill="midnightblue" stroke="midnightblue" points="362.038,-60.7398 372.445,-58.7562 363.072,-53.8167 362.038,-60.7398"/>
</g>
<!-- Node5 -->
<g id="node9" class="node"><title>Node5</title>
<a xlink:href="classCConfigurableDomain.html#a641075b0516177e468168bcf732b0f73" target="_top" xlink:title="CConfigurableDomain\l::getSequenceAwareness">
<polygon fill="white" stroke="black" points="372.5,-0 372.5,-34 509.5,-34 509.5,-0 372.5,-0"/>
<text text-anchor="start" x="380.5" y="-21" font-family="Verdana" font-size="10.00">CConfigurableDomain</text>
<text text-anchor="middle" x="441" y="-8" font-family="Verdana" font-size="10.00">::getSequenceAwareness</text>
</a>
</g>
<!-- Node2&#45;&gt;Node5 -->
<g id="edge8" class="edge"><title>Node2&#45;&gt;Node5</title>
<path fill="none" stroke="midnightblue" d="M335.769,-32.7241C344.535,-31.4144 353.558,-30.066 362.463,-28.7354"/>
<polygon fill="midnightblue" stroke="midnightblue" points="363.072,-32.1833 372.445,-27.2438 362.038,-25.2602 363.072,-32.1833"/>
</g>
<!-- Node4 -->
<g id="node7" class="node"><title>Node4</title>
<a xlink:href="classCElement.html#a8595814a3159f32f874269907e70b260" target="_top" xlink:title="CElement::findChild">
<polygon fill="white" stroke="black" points="546,-58.5 546,-79.5 656,-79.5 656,-58.5 546,-58.5"/>
<text text-anchor="middle" x="601" y="-66.5" font-family="Verdana" font-size="10.00">CElement::findChild</text>
</a>
</g>
<!-- Node3&#45;&gt;Node4 -->
<g id="edge6" class="edge"><title>Node3&#45;&gt;Node4</title>
<path fill="none" stroke="midnightblue" d="M509.783,-69C518.334,-69 527.058,-69 535.557,-69"/>
<polygon fill="midnightblue" stroke="midnightblue" points="535.783,-72.5001 545.783,-69 535.783,-65.5001 535.783,-72.5001"/>
</g>
</g>
</svg>
