<?xml version="1.0" encoding="UTF-8" standalone="no"?>
<!DOCTYPE svg PUBLIC "-//W3C//DTD SVG 1.1//EN"
 "http://www.w3.org/Graphics/SVG/1.1/DTD/svg11.dtd">
<!-- Generated by graphviz version 2.26.3 (20100126.1600)
 -->
<!-- Title: CDomainConfiguration::getElementSequence Pages: 1 -->
<svg width="458pt" height="42pt"
 viewBox="0.00 0.00 458.00 42.00" xmlns="http://www.w3.org/2000/svg" xmlns:xlink="http://www.w3.org/1999/xlink">
<g id="graph1" class="graph" transform="scale(1 1) rotate(0) translate(4 38)">
<title>CDomainConfiguration::getElementSequence</title>
<polygon fill="white" stroke="white" points="-4,5 -4,-38 455,-38 455,5 -4,5"/>
<!-- Node1 -->
<g id="node1" class="node"><title>Node1</title>
<polygon fill="#bfbfbf" stroke="black" points="0,-0 0,-34 126,-34 126,-0 0,-0"/>
<text text-anchor="start" x="8" y="-21" font-family="Verdana" font-size="10.00">CDomainConfiguration</text>
<text text-anchor="middle" x="63" y="-8" font-family="Verdana" font-size="10.00">::getElementSequence</text>
</g>
<!-- Node2 -->
<g id="node3" class="node"><title>Node2</title>
<a xlink:href="classCConfigurableDomain.html#ac8d7bf149040aabe342c300b3f2683a6" target="_top" xlink:title="CConfigurableDomain\l::getElementSequence">
<polygon fill="white" stroke="black" points="162,-0 162,-34 288,-34 288,-0 162,-0"/>
<text text-anchor="start" x="170" y="-21" font-family="Verdana" font-size="10.00">CConfigurableDomain</text>
<text text-anchor="middle" x="225" y="-8" font-family="Verdana" font-size="10.00">::getElementSequence</text>
</a>
</g>
<!-- Node1&#45;&gt;Node2 -->
<g id="edge2" class="edge"><title>Node1&#45;&gt;Node2</title>
<path fill="none" stroke="midnightblue" d="M136.374,-17C144.865,-17 153.469,-17 161.808,-17"/>
<polygon fill="midnightblue" stroke="midnightblue" points="136.097,-13.5001 126.097,-17 136.097,-20.5001 136.097,-13.5001"/>
</g>
<!-- Node3 -->
<g id="node5" class="node"><title>Node3</title>
<a xlink:href="classCConfigurableDomains.html#a0ed279dec1b574701cd94a6449a295e6" target="_top" xlink:title="CConfigurableDomains\l::getElementSequence">
<polygon fill="white" stroke="black" points="324,-0 324,-34 450,-34 450,-0 324,-0"/>
<text text-anchor="start" x="332" y="-21" font-family="Verdana" font-size="10.00">CConfigurableDomains</text>
<text text-anchor="middle" x="387" y="-8" font-family="Verdana" font-size="10.00">::getElementSequence</text>
</a>
</g>
<!-- Node2&#45;&gt;Node3 -->
<g id="edge4" class="edge"><title>Node2&#45;&gt;Node3</title>
<path fill="none" stroke="midnightblue" d="M298.374,-17C306.865,-17 315.469,-17 323.808,-17"/>
<polygon fill="midnightblue" stroke="midnightblue" points="298.097,-13.5001 288.097,-17 298.097,-20.5001 298.097,-13.5001"/>
</g>
</g>
</svg>
