<?xml version="1.0" encoding="UTF-8" standalone="no"?>
<!DOCTYPE svg PUBLIC "-//W3C//DTD SVG 1.1//EN"
 "http://www.w3.org/Graphics/SVG/1.1/DTD/svg11.dtd">
<!-- Generated by graphviz version 2.26.3 (20100126.1600)
 -->
<!-- Title: CConfigurableDomains::addConfigurableElementToDomain Pages: 1 -->
<svg width="730pt" height="180pt"
 viewBox="0.00 0.00 730.00 180.00" xmlns="http://www.w3.org/2000/svg" xmlns:xlink="http://www.w3.org/1999/xlink">
<g id="graph1" class="graph" transform="scale(1 1) rotate(0) translate(4 176)">
<title>CConfigurableDomains::addConfigurableElementToDomain</title>
<polygon fill="white" stroke="white" points="-4,5 -4,-176 727,-176 727,5 -4,5"/>
<!-- Node1 -->
<g id="node1" class="node"><title>Node1</title>
<polygon fill="#bfbfbf" stroke="black" points="0,-94 0,-128 188,-128 188,-94 0,-94"/>
<text text-anchor="start" x="8" y="-115" font-family="Verdana" font-size="10.00">CConfigurableDomains</text>
<text text-anchor="middle" x="94" y="-102" font-family="Verdana" font-size="10.00">::addConfigurableElementToDomain</text>
</g>
<!-- Node2 -->
<g id="node3" class="node"><title>Node2</title>
<a xlink:href="classCConfigurableDomains.html#a4dce38a1560b6e33871d3fa2d85cc449" target="_top" xlink:title="CConfigurableDomains\l::findConfigurableDomain">
<polygon fill="white" stroke="black" points="225.5,-132 225.5,-166 362.5,-166 362.5,-132 225.5,-132"/>
<text text-anchor="start" x="233.5" y="-153" font-family="Verdana" font-size="10.00">CConfigurableDomains</text>
<text text-anchor="middle" x="294" y="-140" font-family="Verdana" font-size="10.00">::findConfigurableDomain</text>
</a>
</g>
<!-- Node1&#45;&gt;Node2 -->
<g id="edge2" class="edge"><title>Node1&#45;&gt;Node2</title>
<path fill="none" stroke="midnightblue" d="M183.762,-128.055C194.307,-130.058 205.006,-132.091 215.382,-134.063"/>
<polygon fill="midnightblue" stroke="midnightblue" points="214.739,-137.503 225.216,-135.931 216.045,-130.626 214.739,-137.503"/>
</g>
<!-- Node4 -->
<g id="node7" class="node"><title>Node4</title>
<a xlink:href="classCConfigurableDomain.html#ac200b397f14de19463146c5f75d57020" target="_top" xlink:title="CConfigurableDomain\l::addConfigurableElement">
<polygon fill="white" stroke="black" points="224,-57 224,-91 364,-91 364,-57 224,-57"/>
<text text-anchor="start" x="232" y="-78" font-family="Verdana" font-size="10.00">CConfigurableDomain</text>
<text text-anchor="middle" x="294" y="-65" font-family="Verdana" font-size="10.00">::addConfigurableElement</text>
</a>
</g>
<!-- Node1&#45;&gt;Node4 -->
<g id="edge6" class="edge"><title>Node1&#45;&gt;Node4</title>
<path fill="none" stroke="midnightblue" d="M186.097,-93.962C195.433,-92.2349 204.861,-90.4907 214.054,-88.7901"/>
<polygon fill="midnightblue" stroke="midnightblue" points="214.724,-92.2256 223.92,-86.9648 213.45,-85.3424 214.724,-92.2256"/>
</g>
<!-- Node3 -->
<g id="node5" class="node"><title>Node3</title>
<a xlink:href="classCElement.html#a8595814a3159f32f874269907e70b260" target="_top" xlink:title="CElement::findChild">
<polygon fill="white" stroke="black" points="407,-150.5 407,-171.5 517,-171.5 517,-150.5 407,-150.5"/>
<text text-anchor="middle" x="462" y="-158.5" font-family="Verdana" font-size="10.00">CElement::findChild</text>
</a>
</g>
<!-- Node2&#45;&gt;Node3 -->
<g id="edge4" class="edge"><title>Node2&#45;&gt;Node3</title>
<path fill="none" stroke="midnightblue" d="M362.817,-153.915C374.056,-154.718 385.67,-155.548 396.819,-156.344"/>
<polygon fill="midnightblue" stroke="midnightblue" points="396.677,-159.843 406.901,-157.064 397.176,-152.861 396.677,-159.843"/>
</g>
<!-- Node5 -->
<g id="node9" class="node"><title>Node5</title>
<a xlink:href="classCElement.html#a7022c0fc8063f0aae9d97b06e74d4ac1" target="_top" xlink:title="CElement::getPath">
<polygon fill="white" stroke="black" points="409,-92.5 409,-113.5 515,-113.5 515,-92.5 409,-92.5"/>
<text text-anchor="middle" x="462" y="-100.5" font-family="Verdana" font-size="10.00">CElement::getPath</text>
</a>
</g>
<!-- Node4&#45;&gt;Node5 -->
<g id="edge8" class="edge"><title>Node4&#45;&gt;Node5</title>
<path fill="none" stroke="midnightblue" d="M364.274,-86.1306C375.701,-88.1032 387.477,-90.136 398.725,-92.0774"/>
<polygon fill="midnightblue" stroke="midnightblue" points="398.43,-95.5783 408.88,-93.8304 399.621,-88.6803 398.43,-95.5783"/>
</g>
<!-- Node6 -->
<g id="node12" class="node"><title>Node6</title>
<a xlink:href="classCElement.html#a49581fb6412e29e932962acd82d52d6a" target="_top" xlink:title="CElement::getName">
<polygon fill="white" stroke="black" points="405,-52.5 405,-73.5 519,-73.5 519,-52.5 405,-52.5"/>
<text text-anchor="middle" x="462" y="-60.5" font-family="Verdana" font-size="10.00">CElement::getName</text>
</a>
</g>
<!-- Node4&#45;&gt;Node6 -->
<g id="edge12" class="edge"><title>Node4&#45;&gt;Node6</title>
<path fill="none" stroke="midnightblue" d="M364.274,-69.3987C374.284,-68.7433 384.561,-68.0704 394.516,-67.4186"/>
<polygon fill="midnightblue" stroke="midnightblue" points="394.999,-70.8945 404.749,-66.7486 394.542,-63.9095 394.999,-70.8945"/>
</g>
<!-- Node7 -->
<g id="node14" class="node"><title>Node7</title>
<a xlink:href="classCConfigurableElement.html#ac5508cd538517568bebc5448179d9d76" target="_top" xlink:title="CConfigurableElement\l::belongsTo">
<polygon fill="white" stroke="black" points="400.5,-0 400.5,-34 523.5,-34 523.5,-0 400.5,-0"/>
<text text-anchor="start" x="408.5" y="-21" font-family="Verdana" font-size="10.00">CConfigurableElement</text>
<text text-anchor="middle" x="462" y="-8" font-family="Verdana" font-size="10.00">::belongsTo</text>
</a>
</g>
<!-- Node4&#45;&gt;Node7 -->
<g id="edge14" class="edge"><title>Node4&#45;&gt;Node7</title>
<path fill="none" stroke="midnightblue" d="M344.406,-56.8981C362.513,-50.7547 383.113,-43.7652 401.958,-37.3714"/>
<polygon fill="midnightblue" stroke="midnightblue" points="403.285,-40.6173 411.63,-34.0898 401.036,-33.9884 403.285,-40.6173"/>
</g>
<!-- Node5&#45;&gt;Node5 -->
<g id="edge10" class="edge"><title>Node5&#45;&gt;Node5</title>
<path fill="none" stroke="midnightblue" d="M435.307,-113.708C423.899,-122.653 432.797,-132 462,-132 481.165,-132 491.584,-127.975 493.259,-122.679"/>
<polygon fill="midnightblue" stroke="midnightblue" points="496.349,-121.032 488.693,-113.708 490.11,-124.208 496.349,-121.032"/>
</g>
<!-- Node8 -->
<g id="node16" class="node"><title>Node8</title>
<a xlink:href="classCConfigurableElement.html#a4ff038351f85bcb55768f3fef206866c" target="_top" xlink:title="CConfigurableElement\l::containsConfigurableDomain">
<polygon fill="white" stroke="black" points="560.5,-0 560.5,-34 721.5,-34 721.5,-0 560.5,-0"/>
<text text-anchor="start" x="568.5" y="-21" font-family="Verdana" font-size="10.00">CConfigurableElement</text>
<text text-anchor="middle" x="641" y="-8" font-family="Verdana" font-size="10.00">::containsConfigurableDomain</text>
</a>
</g>
<!-- Node7&#45;&gt;Node8 -->
<g id="edge16" class="edge"><title>Node7&#45;&gt;Node8</title>
<path fill="none" stroke="midnightblue" d="M523.602,-17C532.198,-17 541.177,-17 550.173,-17"/>
<polygon fill="midnightblue" stroke="midnightblue" points="550.318,-20.5001 560.318,-17 550.318,-13.5001 550.318,-20.5001"/>
</g>
</g>
</svg>
