<?xml version="1.0" encoding="UTF-8" standalone="no"?>
<!DOCTYPE svg PUBLIC "-//W3C//DTD SVG 1.1//EN"
 "http://www.w3.org/Graphics/SVG/1.1/DTD/svg11.dtd">
<!-- Generated by graphviz version 2.26.3 (20100126.1600)
 -->
<!-- Title: CRequestMessage Pages: 1 -->
<svg width="198pt" height="88pt"
 viewBox="0.00 0.00 198.00 88.00" xmlns="http://www.w3.org/2000/svg" xmlns:xlink="http://www.w3.org/1999/xlink">
<g id="graph1" class="graph" transform="scale(1 1) rotate(0) translate(4 84)">
<title>CRequestMessage</title>
<polygon fill="white" stroke="white" points="-4,5 -4,-84 195,-84 195,5 -4,5"/>
<!-- Node1 -->
<g id="node1" class="node"><title>Node1</title>
<polygon fill="#bfbfbf" stroke="black" points="33,-0.5 33,-21.5 137,-21.5 137,-0.5 33,-0.5"/>
<text text-anchor="middle" x="85" y="-8.5" font-family="Verdana" font-size="10.00">CRequestMessage</text>
</g>
<!-- Node2 -->
<g id="node2" class="node"><title>Node2</title>
<a xlink:href="classCMessage.html" target="_top" xlink:title="CMessage">
<polygon fill="white" stroke="black" points="0,-58.5 0,-79.5 66,-79.5 66,-58.5 0,-58.5"/>
<text text-anchor="middle" x="33" y="-66.5" font-family="Verdana" font-size="10.00">CMessage</text>
</a>
</g>
<!-- Node2&#45;&gt;Node1 -->
<g id="edge2" class="edge"><title>Node2&#45;&gt;Node1</title>
<path fill="none" stroke="midnightblue" d="M49.2904,-50.8299C57.9171,-41.2078 68.2092,-29.7282 75.5229,-21.5707"/>
<polygon fill="midnightblue" stroke="midnightblue" points="46.6071,-48.5798 42.5376,-58.3619 51.8191,-53.2526 46.6071,-48.5798"/>
</g>
<!-- Node3 -->
<g id="node4" class="node"><title>Node3</title>
<a xlink:href="classIRemoteCommand.html" target="_top" xlink:title="IRemoteCommand">
<polygon fill="white" stroke="black" points="84,-58.5 84,-79.5 190,-79.5 190,-58.5 84,-58.5"/>
<text text-anchor="middle" x="137" y="-66.5" font-family="Verdana" font-size="10.00">IRemoteCommand</text>
</a>
</g>
<!-- Node3&#45;&gt;Node1 -->
<g id="edge4" class="edge"><title>Node3&#45;&gt;Node1</title>
<path fill="none" stroke="midnightblue" d="M120.71,-50.8299C112.083,-41.2078 101.791,-29.7282 94.4771,-21.5707"/>
<polygon fill="midnightblue" stroke="midnightblue" points="118.181,-53.2526 127.462,-58.3619 123.393,-48.5798 118.181,-53.2526"/>
</g>
</g>
</svg>
