<?xml version="1.0" encoding="UTF-8" standalone="no"?>
<!DOCTYPE svg PUBLIC "-//W3C//DTD SVG 1.1//EN"
 "http://www.w3.org/Graphics/SVG/1.1/DTD/svg11.dtd">
<!-- Generated by graphviz version 2.26.3 (20100126.1600)
 -->
<!-- Title: CSubsystemLibrary Pages: 1 -->
<svg width="329pt" height="274pt"
 viewBox="0.00 0.00 329.00 274.00" xmlns="http://www.w3.org/2000/svg" xmlns:xlink="http://www.w3.org/1999/xlink">
<g id="graph1" class="graph" transform="scale(1 1) rotate(0) translate(4 270)">
<title>CSubsystemLibrary</title>
<polygon fill="white" stroke="white" points="-4,5 -4,-270 326,-270 326,5 -4,5"/>
<!-- Node1 -->
<g id="node1" class="node"><title>Node1</title>
<polygon fill="#bfbfbf" stroke="black" points="37,-0.5 37,-21.5 147,-21.5 147,-0.5 37,-0.5"/>
<text text-anchor="middle" x="92" y="-8.5" font-family="Verdana" font-size="10.00">CSubsystemLibrary</text>
</g>
<!-- Node2 -->
<g id="node2" class="node"><title>Node2</title>
<a xlink:href="classCDefaultElementLibrary.html" target="_top" xlink:title="CDefaultElementLibrary\l\&lt; TNamedElementBuilderTemplate\l\&lt; CVirtualSubsystem \&gt; \&gt;">
<polygon fill="white" stroke="black" points="-0.5,-60.5 -0.5,-107.5 184.5,-107.5 184.5,-60.5 -0.5,-60.5"/>
<text text-anchor="start" x="7.5" y="-94.5" font-family="Verdana" font-size="10.00">CDefaultElementLibrary</text>
<text text-anchor="start" x="7.5" y="-81.5" font-family="Verdana" font-size="10.00">&lt; TNamedElementBuilderTemplate</text>
<text text-anchor="middle" x="92" y="-68.5" font-family="Verdana" font-size="10.00">&lt; CVirtualSubsystem &gt; &gt;</text>
</a>
</g>
<!-- Node2&#45;&gt;Node1 -->
<g id="edge2" class="edge"><title>Node2&#45;&gt;Node1</title>
<path fill="none" stroke="midnightblue" d="M92,-50.0345C92,-39.7609 92,-29.2182 92,-21.6832"/>
<polygon fill="midnightblue" stroke="midnightblue" points="88.5001,-50.097 92,-60.0971 95.5001,-50.0971 88.5001,-50.097"/>
</g>
<!-- Node3 -->
<g id="node4" class="node"><title>Node3</title>
<a xlink:href="classCElementLibrary.html" target="_top" xlink:title="CElementLibrary">
<polygon fill="white" stroke="black" points="60.5,-244.5 60.5,-265.5 155.5,-265.5 155.5,-244.5 60.5,-244.5"/>
<text text-anchor="middle" x="108" y="-252.5" font-family="Verdana" font-size="10.00">CElementLibrary</text>
</a>
</g>
<!-- Node3&#45;&gt;Node2 -->
<g id="edge4" class="edge"><title>Node3&#45;&gt;Node2</title>
<path fill="none" stroke="midnightblue" d="M101.439,-234.595C98.9383,-225.881 96.3633,-215.539 95,-206 90.1439,-172.022 90.2325,-132.193 90.9522,-107.524"/>
<polygon fill="midnightblue" stroke="midnightblue" points="98.1161,-235.698 104.367,-244.252 104.815,-233.667 98.1161,-235.698"/>
</g>
<!-- Node4 -->
<g id="node6" class="node"><title>Node4</title>
<a xlink:href="classCDefaultElementLibrary.html" target="_top" xlink:title="Factory that creates an element given an xml element. ">
<polygon fill="white" stroke="black" points="103.5,-171 103.5,-205 256.5,-205 256.5,-171 103.5,-171"/>
<text text-anchor="start" x="111.5" y="-192" font-family="Verdana" font-size="10.00">CDefaultElementLibrary</text>
<text text-anchor="middle" x="180" y="-179" font-family="Verdana" font-size="10.00">&lt; CDefaultElementBuilder &gt;</text>
</a>
</g>
<!-- Node3&#45;&gt;Node4 -->
<g id="edge8" class="edge"><title>Node3&#45;&gt;Node4</title>
<path fill="none" stroke="midnightblue" d="M127.17,-237.161C137.88,-227.195 151.154,-214.843 161.716,-205.014"/>
<polygon fill="midnightblue" stroke="midnightblue" points="124.504,-234.861 119.568,-244.235 129.273,-239.985 124.504,-234.861"/>
</g>
<!-- Node4&#45;&gt;Node2 -->
<g id="edge6" class="edge"><title>Node4&#45;&gt;Node2</title>
<path fill="none" stroke="orange" stroke-dasharray="5,2" d="M158.899,-163.062C144.716,-146.3 126.132,-124.338 112.151,-107.815"/>
<polygon fill="orange" stroke="orange" points="156.337,-165.453 165.469,-170.827 161.681,-160.932 156.337,-165.453"/>
<text text-anchor="start" x="149" y="-143" font-family="Verdana" font-size="10.00"> &lt; TNamedElementBuilderTemplate</text>
<text text-anchor="middle" x="235" y="-130" font-family="Verdana" font-size="10.00">&lt; CVirtualSubsystem &gt; &gt;</text>
</g>
</g>
</svg>
