<?xml version="1.0" encoding="UTF-8" standalone="no"?>
<!DOCTYPE svg PUBLIC "-//W3C//DTD SVG 1.1//EN"
 "http://www.w3.org/Graphics/SVG/1.1/DTD/svg11.dtd">
<!-- Generated by graphviz version 2.26.3 (20100126.1600)
 -->
<!-- Title: CBitParameter::accessAsBoolean Pages: 1 -->
<svg width="818pt" height="324pt"
 viewBox="0.00 0.00 818.00 324.00" xmlns="http://www.w3.org/2000/svg" xmlns:xlink="http://www.w3.org/1999/xlink">
<g id="graph1" class="graph" transform="scale(1 1) rotate(0) translate(4 320)">
<title>CBitParameter::accessAsBoolean</title>
<polygon fill="white" stroke="white" points="-4,5 -4,-320 815,-320 815,5 -4,5"/>
<!-- Node1 -->
<g id="node1" class="node"><title>Node1</title>
<polygon fill="#bfbfbf" stroke="black" points="0,-196.5 0,-217.5 176,-217.5 176,-196.5 0,-196.5"/>
<text text-anchor="middle" x="88" y="-204.5" font-family="Verdana" font-size="10.00">CBitParameter::accessAsBoolean</text>
</g>
<!-- Node2 -->
<g id="node3" class="node"><title>Node2</title>
<a xlink:href="classCInstanceConfigurableElement.html#ae2d941df411f8ec4c025cbd04d3ba421" target="_top" xlink:title="CInstanceConfigurableElement\l::getTypeElement">
<polygon fill="white" stroke="black" points="216,-271 216,-305 380,-305 380,-271 216,-271"/>
<text text-anchor="start" x="224" y="-292" font-family="Verdana" font-size="10.00">CInstanceConfigurableElement</text>
<text text-anchor="middle" x="298" y="-279" font-family="Verdana" font-size="10.00">::getTypeElement</text>
</a>
</g>
<!-- Node1&#45;&gt;Node2 -->
<g id="edge2" class="edge"><title>Node1&#45;&gt;Node2</title>
<path fill="none" stroke="midnightblue" d="M113.539,-217.622C138.533,-227.941 177.736,-243.922 212,-257 221.024,-260.444 230.618,-264.003 240,-267.427"/>
<polygon fill="midnightblue" stroke="midnightblue" points="239.075,-270.815 249.669,-270.936 241.463,-264.234 239.075,-270.815"/>
</g>
<!-- Node3 -->
<g id="node5" class="node"><title>Node3</title>
<a xlink:href="classCErrorContext.html#a9d58b281c0d0fc9a6d3b83714cf812ef" target="_top" xlink:title="CErrorContext::setError">
<polygon fill="white" stroke="black" points="664,-294.5 664,-315.5 792,-315.5 792,-294.5 664,-294.5"/>
<text text-anchor="middle" x="728" y="-302.5" font-family="Verdana" font-size="10.00">CErrorContext::setError</text>
</a>
</g>
<!-- Node1&#45;&gt;Node3 -->
<g id="edge4" class="edge"><title>Node1&#45;&gt;Node3</title>
<path fill="none" stroke="midnightblue" d="M156.795,-217.534C278.006,-236.095 528.597,-274.466 653.645,-293.614"/>
<polygon fill="midnightblue" stroke="midnightblue" points="653.473,-297.129 663.888,-295.183 654.533,-290.209 653.473,-297.129"/>
</g>
<!-- Node4 -->
<g id="node7" class="node"><title>Node4</title>
<a xlink:href="classCBaseParameter.html#a911cbd2df0c950a79863fdd689731f88" target="_top" xlink:title="Append the parameter path to the error. ">
<polygon fill="white" stroke="black" points="420,-60 420,-94 610,-94 610,-60 420,-60"/>
<text text-anchor="start" x="428" y="-81" font-family="Verdana" font-size="10.00">CBaseParameter::appendParameter</text>
<text text-anchor="middle" x="515" y="-68" font-family="Verdana" font-size="10.00">PathToError</text>
</a>
</g>
<!-- Node1&#45;&gt;Node4 -->
<g id="edge6" class="edge"><title>Node1&#45;&gt;Node4</title>
<path fill="none" stroke="midnightblue" d="M109.05,-196.301C133.362,-184.268 174.794,-164.747 212,-152 280.11,-128.666 359.131,-109.352 419.395,-96.1696"/>
<polygon fill="midnightblue" stroke="midnightblue" points="420.25,-99.5657 429.28,-94.0254 418.766,-92.7248 420.25,-99.5657"/>
</g>
<!-- Node7 -->
<g id="node14" class="node"><title>Node7</title>
<a xlink:href="classCBitParameter.html#a6f4d06e327fb0b816c08e383177a82fc" target="_top" xlink:title="CBitParameter::accessAsInteger">
<polygon fill="white" stroke="black" points="212.5,-161.5 212.5,-182.5 383.5,-182.5 383.5,-161.5 212.5,-161.5"/>
<text text-anchor="middle" x="298" y="-169.5" font-family="Verdana" font-size="10.00">CBitParameter::accessAsInteger</text>
</a>
</g>
<!-- Node1&#45;&gt;Node7 -->
<g id="edge14" class="edge"><title>Node1&#45;&gt;Node7</title>
<path fill="none" stroke="midnightblue" d="M151.007,-196.499C174.158,-192.64 200.57,-188.238 224.559,-184.24"/>
<polygon fill="midnightblue" stroke="midnightblue" points="225.386,-187.651 234.675,-182.554 224.236,-180.746 225.386,-187.651"/>
</g>
<!-- Node5 -->
<g id="node9" class="node"><title>Node5</title>
<a xlink:href="classCErrorContext.html#afdd38e8aaaf045faaf575cf3ccbbc37b" target="_top" xlink:title="CErrorContext::appendToError">
<polygon fill="white" stroke="black" points="648.5,-58.5 648.5,-79.5 807.5,-79.5 807.5,-58.5 648.5,-58.5"/>
<text text-anchor="middle" x="728" y="-66.5" font-family="Verdana" font-size="10.00">CErrorContext::appendToError</text>
</a>
</g>
<!-- Node4&#45;&gt;Node5 -->
<g id="edge8" class="edge"><title>Node4&#45;&gt;Node5</title>
<path fill="none" stroke="midnightblue" d="M610.286,-73.4212C619.641,-73.0698 629.112,-72.7141 638.407,-72.365"/>
<polygon fill="midnightblue" stroke="midnightblue" points="638.548,-75.8623 648.41,-71.9893 638.285,-68.8672 638.548,-75.8623"/>
</g>
<!-- Node6 -->
<g id="node11" class="node"><title>Node6</title>
<a xlink:href="classCElement.html#a7022c0fc8063f0aae9d97b06e74d4ac1" target="_top" xlink:title="CElement::getPath">
<polygon fill="white" stroke="black" points="675,-0.5 675,-21.5 781,-21.5 781,-0.5 675,-0.5"/>
<text text-anchor="middle" x="728" y="-8.5" font-family="Verdana" font-size="10.00">CElement::getPath</text>
</a>
</g>
<!-- Node4&#45;&gt;Node6 -->
<g id="edge10" class="edge"><title>Node4&#45;&gt;Node6</title>
<path fill="none" stroke="midnightblue" d="M570.13,-59.9175C605.653,-48.9104 651.203,-34.7964 684.237,-24.5602"/>
<polygon fill="midnightblue" stroke="midnightblue" points="685.547,-27.8188 694.063,-21.5158 683.475,-21.1324 685.547,-27.8188"/>
</g>
<!-- Node6&#45;&gt;Node6 -->
<g id="edge12" class="edge"><title>Node6&#45;&gt;Node6</title>
<path fill="none" stroke="midnightblue" d="M694.315,-21.7079C679.92,-30.6531 691.148,-40 728,-40 753.335,-40 766.56,-35.5821 767.673,-29.9142"/>
<polygon fill="midnightblue" stroke="midnightblue" points="770.407,-27.7225 761.685,-21.7079 764.752,-31.8489 770.407,-27.7225"/>
</g>
<!-- Node7&#45;&gt;Node4 -->
<g id="edge18" class="edge"><title>Node7&#45;&gt;Node4</title>
<path fill="none" stroke="midnightblue" d="M331.65,-161.458C347.767,-156.01 367.176,-148.859 384,-141 400.782,-133.16 403.541,-128.497 420,-120 434.516,-112.506 450.601,-104.953 465.347,-98.3131"/>
<polygon fill="midnightblue" stroke="midnightblue" points="467.106,-101.361 474.813,-94.0915 464.255,-94.968 467.106,-101.361"/>
</g>
<!-- Node8 -->
<g id="node16" class="node"><title>Node8</title>
<a xlink:href="classCConfigurableElement.html#a29d61e6d09ff508ebb87aea802f2704e" target="_top" xlink:title="CConfigurableElement\l::getOffset">
<polygon fill="white" stroke="black" points="453.5,-129 453.5,-163 576.5,-163 576.5,-129 453.5,-129"/>
<text text-anchor="start" x="461.5" y="-150" font-family="Verdana" font-size="10.00">CConfigurableElement</text>
<text text-anchor="middle" x="515" y="-137" font-family="Verdana" font-size="10.00">::getOffset</text>
</a>
</g>
<!-- Node7&#45;&gt;Node8 -->
<g id="edge16" class="edge"><title>Node7&#45;&gt;Node8</title>
<path fill="none" stroke="midnightblue" d="M383.764,-161.724C403.446,-159.366 424.174,-156.882 443.195,-154.603"/>
<polygon fill="midnightblue" stroke="midnightblue" points="443.758,-158.061 453.27,-153.396 442.925,-151.111 443.758,-158.061"/>
</g>
<!-- Node9 -->
<g id="node19" class="node"><title>Node9</title>
<a xlink:href="classCInstanceConfigurableElement.html#a2e6e7782de8e4d7e844a869917f2f037" target="_top" xlink:title="Performs the sync if the AutoSync is enabled. ">
<polygon fill="white" stroke="black" points="433,-181 433,-215 597,-215 597,-181 433,-181"/>
<text text-anchor="start" x="441" y="-202" font-family="Verdana" font-size="10.00">CInstanceConfigurableElement</text>
<text text-anchor="middle" x="515" y="-189" font-family="Verdana" font-size="10.00">::sync</text>
</a>
</g>
<!-- Node7&#45;&gt;Node9 -->
<g id="edge20" class="edge"><title>Node7&#45;&gt;Node9</title>
<path fill="none" stroke="midnightblue" d="M383.764,-182.276C396.477,-183.799 409.626,-185.375 422.47,-186.913"/>
<polygon fill="midnightblue" stroke="midnightblue" points="422.345,-190.423 432.691,-188.138 423.178,-183.473 422.345,-190.423"/>
</g>
<!-- Node9&#45;&gt;Node3 -->
<g id="edge26" class="edge"><title>Node9&#45;&gt;Node3</title>
<path fill="none" stroke="midnightblue" d="M586.229,-215.18C594.699,-218.935 602.859,-223.487 610,-229 633.421,-247.081 621.908,-267.824 646,-285 648.685,-286.914 651.531,-288.646 654.489,-290.213"/>
<polygon fill="midnightblue" stroke="midnightblue" points="653.106,-293.43 663.653,-294.438 656.037,-287.073 653.106,-293.43"/>
</g>
<!-- Node10 -->
<g id="node21" class="node"><title>Node10</title>
<a xlink:href="classCParameterAccessContext.html#ad073ad9ca128b5504f8a4a1d844c4e00" target="_top" xlink:title="CParameterAccessContext\l::getAutoSync">
<polygon fill="white" stroke="black" points="655.5,-242 655.5,-276 800.5,-276 800.5,-242 655.5,-242"/>
<text text-anchor="start" x="663.5" y="-263" font-family="Verdana" font-size="10.00">CParameterAccessContext</text>
<text text-anchor="middle" x="728" y="-250" font-family="Verdana" font-size="10.00">::getAutoSync</text>
</a>
</g>
<!-- Node9&#45;&gt;Node10 -->
<g id="edge22" class="edge"><title>Node9&#45;&gt;Node10</title>
<path fill="none" stroke="midnightblue" d="M574.616,-215.073C600.703,-222.544 631.48,-231.358 658.592,-239.122"/>
<polygon fill="midnightblue" stroke="midnightblue" points="657.822,-242.543 668.399,-241.931 659.749,-235.813 657.822,-242.543"/>
</g>
<!-- Node11 -->
<g id="node23" class="node"><title>Node11</title>
<a xlink:href="classCInstanceConfigurableElement.html#a4a613634c5012d4f32c310ccf2fc9fb4" target="_top" xlink:title="CInstanceConfigurableElement\l::getSyncer">
<polygon fill="white" stroke="black" points="646,-190 646,-224 810,-224 810,-190 646,-190"/>
<text text-anchor="start" x="654" y="-211" font-family="Verdana" font-size="10.00">CInstanceConfigurableElement</text>
<text text-anchor="middle" x="728" y="-198" font-family="Verdana" font-size="10.00">::getSyncer</text>
</a>
</g>
<!-- Node9&#45;&gt;Node11 -->
<g id="edge24" class="edge"><title>Node9&#45;&gt;Node11</title>
<path fill="none" stroke="midnightblue" d="M597.047,-201.467C609.715,-202.002 622.872,-202.558 635.746,-203.102"/>
<polygon fill="midnightblue" stroke="midnightblue" points="635.857,-206.61 645.996,-203.535 636.152,-199.616 635.857,-206.61"/>
</g>
<!-- Node12 -->
<g id="node26" class="node"><title>Node12</title>
<a xlink:href="classISyncer.html#a16844aac52fb0caf4aed4f68d4b038d9" target="_top" xlink:title="ISyncer::sync">
<polygon fill="white" stroke="black" points="688,-150.5 688,-171.5 768,-171.5 768,-150.5 688,-150.5"/>
<text text-anchor="middle" x="728" y="-158.5" font-family="Verdana" font-size="10.00">ISyncer::sync</text>
</a>
</g>
<!-- Node9&#45;&gt;Node12 -->
<g id="edge28" class="edge"><title>Node9&#45;&gt;Node12</title>
<path fill="none" stroke="midnightblue" d="M597.047,-183.748C624.323,-179.01 653.862,-173.878 677.97,-169.691"/>
<polygon fill="midnightblue" stroke="midnightblue" points="678.694,-173.117 687.947,-167.958 677.496,-166.221 678.694,-173.117"/>
</g>
<!-- Node13 -->
<g id="node28" class="node"><title>Node13</title>
<a xlink:href="classCParameterAccessContext.html#ad354dd5bf2a88f4ed4197be9a59fda20" target="_top" xlink:title="CParameterAccessContext\l::getParameterBlackboard">
<polygon fill="white" stroke="black" points="655.5,-98 655.5,-132 800.5,-132 800.5,-98 655.5,-98"/>
<text text-anchor="start" x="663.5" y="-119" font-family="Verdana" font-size="10.00">CParameterAccessContext</text>
<text text-anchor="middle" x="728" y="-106" font-family="Verdana" font-size="10.00">::getParameterBlackboard</text>
</a>
</g>
<!-- Node9&#45;&gt;Node13 -->
<g id="edge30" class="edge"><title>Node9&#45;&gt;Node13</title>
<path fill="none" stroke="midnightblue" d="M589.877,-180.943C596.843,-178.34 603.66,-175.374 610,-172 628.64,-162.081 627.562,-151.289 646,-141 649.093,-139.274 652.317,-137.644 655.621,-136.109"/>
<polygon fill="midnightblue" stroke="midnightblue" points="657.302,-139.196 665.102,-132.025 654.533,-132.766 657.302,-139.196"/>
</g>
</g>
</svg>
