<?xml version="1.0" encoding="UTF-8" standalone="no"?>
<!DOCTYPE svg PUBLIC "-//W3C//DTD SVG 1.1//EN"
 "http://www.w3.org/Graphics/SVG/1.1/DTD/svg11.dtd">
<!-- Generated by graphviz version 2.26.3 (20100126.1600)
 -->
<!-- Title: CConfigurableDomains::findConfigurableDomain Pages: 1 -->
<svg width="606pt" height="1153pt"
 viewBox="0.00 0.00 606.00 1152.76" xmlns="http://www.w3.org/2000/svg" xmlns:xlink="http://www.w3.org/1999/xlink">
<g id="graph1" class="graph" transform="scale(1 1) rotate(0) translate(4 1148.76)">
<title>CConfigurableDomains::findConfigurableDomain</title>
<polygon fill="white" stroke="white" points="-4,5 -4,-1148.76 603,-1148.76 603,5 -4,5"/>
<!-- Node1 -->
<g id="node1" class="node"><title>Node1</title>
<polygon fill="#bfbfbf" stroke="black" points="0.5,-560 0.5,-594 137.5,-594 137.5,-560 0.5,-560"/>
<text text-anchor="start" x="8.5" y="-581" font-family="Verdana" font-size="10.00">CConfigurableDomains</text>
<text text-anchor="middle" x="69" y="-568" font-family="Verdana" font-size="10.00">::findConfigurableDomain</text>
</g>
<!-- Node2 -->
<g id="node3" class="node"><title>Node2</title>
<a xlink:href="classCConfigurableDomains.html#a35d3b509ee35cb374fc7a2d1b678c203" target="_top" xlink:title="CConfigurableDomains\l::addDomain">
<polygon fill="white" stroke="black" points="435,-1099 435,-1133 561,-1133 561,-1099 435,-1099"/>
<text text-anchor="start" x="443" y="-1120" font-family="Verdana" font-size="10.00">CConfigurableDomains</text>
<text text-anchor="middle" x="498" y="-1107" font-family="Verdana" font-size="10.00">::addDomain</text>
</a>
</g>
<!-- Node1&#45;&gt;Node2 -->
<g id="edge2" class="edge"><title>Node1&#45;&gt;Node2</title>
<path fill="none" stroke="midnightblue" d="M70.288,-604.461C75.4875,-702.279 98.4194,-1031.37 174,-1097 245.475,-1159.07 362.674,-1147.85 434.803,-1132.81"/>
<polygon fill="midnightblue" stroke="midnightblue" points="73.77,-604.019 69.7638,-594.211 66.7792,-604.377 73.77,-604.019"/>
</g>
<!-- Node3 -->
<g id="node5" class="node"><title>Node3</title>
<a xlink:href="classCConfigurableDomains.html#a26ae82c8fd65751062ea4fcffa69944f" target="_top" xlink:title="Delete a domain by name. ">
<polygon fill="white" stroke="black" points="205,-1054 205,-1088 331,-1088 331,-1054 205,-1054"/>
<text text-anchor="start" x="213" y="-1075" font-family="Verdana" font-size="10.00">CConfigurableDomains</text>
<text text-anchor="middle" x="268" y="-1062" font-family="Verdana" font-size="10.00">::deleteDomain</text>
</a>
</g>
<!-- Node1&#45;&gt;Node3 -->
<g id="edge4" class="edge"><title>Node1&#45;&gt;Node3</title>
<path fill="none" stroke="midnightblue" d="M71.4663,-604.166C80.1662,-694.109 112.275,-980.164 174,-1045 182.289,-1053.71 193.211,-1059.58 204.668,-1063.53"/>
<polygon fill="midnightblue" stroke="midnightblue" points="74.9496,-603.823 70.521,-594.198 67.9808,-604.484 74.9496,-603.823"/>
</g>
<!-- Node5 -->
<g id="node10" class="node"><title>Node5</title>
<a xlink:href="classCConfigurableDomains.html#a5191495863bf95f1fc3beb545b410269" target="_top" xlink:title="CConfigurableDomains\l::renameDomain">
<polygon fill="white" stroke="black" points="205,-1002 205,-1036 331,-1036 331,-1002 205,-1002"/>
<text text-anchor="start" x="213" y="-1023" font-family="Verdana" font-size="10.00">CConfigurableDomains</text>
<text text-anchor="middle" x="268" y="-1010" font-family="Verdana" font-size="10.00">::renameDomain</text>
</a>
</g>
<!-- Node1&#45;&gt;Node5 -->
<g id="edge10" class="edge"><title>Node1&#45;&gt;Node5</title>
<path fill="none" stroke="midnightblue" d="M72.3176,-604.404C82.9513,-687.838 118.752,-936.489 174,-993 182.404,-1001.6 193.377,-1007.42 204.847,-1011.36"/>
<polygon fill="midnightblue" stroke="midnightblue" points="75.7821,-603.902 71.0648,-594.416 68.8365,-604.773 75.7821,-603.902"/>
</g>
<!-- Node7 -->
<g id="node14" class="node"><title>Node7</title>
<a xlink:href="classCConfigurableDomains.html#aa41f38a45f556c4b6c3c80609d8ad2b1" target="_top" xlink:title="CConfigurableDomains\l::setSequenceAwareness">
<polygon fill="white" stroke="black" points="199.5,-950 199.5,-984 336.5,-984 336.5,-950 199.5,-950"/>
<text text-anchor="start" x="207.5" y="-971" font-family="Verdana" font-size="10.00">CConfigurableDomains</text>
<text text-anchor="middle" x="268" y="-958" font-family="Verdana" font-size="10.00">::setSequenceAwareness</text>
</a>
</g>
<!-- Node1&#45;&gt;Node7 -->
<g id="edge14" class="edge"><title>Node1&#45;&gt;Node7</title>
<path fill="none" stroke="midnightblue" d="M73.4252,-604.706C86.1717,-681.179 125.196,-892.729 174,-941 181.103,-948.025 189.924,-953.193 199.295,-956.987"/>
<polygon fill="midnightblue" stroke="midnightblue" points="76.8132,-603.739 71.7372,-594.439 69.906,-604.875 76.8132,-603.739"/>
</g>
<!-- Node9 -->
<g id="node18" class="node"><title>Node9</title>
<a xlink:href="classCConfigurableDomains.html#a7079463f456c5dc7a58e0809b8c39fa4" target="_top" xlink:title="CConfigurableDomains\l::getSequenceAwareness">
<polygon fill="white" stroke="black" points="199.5,-898 199.5,-932 336.5,-932 336.5,-898 199.5,-898"/>
<text text-anchor="start" x="207.5" y="-919" font-family="Verdana" font-size="10.00">CConfigurableDomains</text>
<text text-anchor="middle" x="268" y="-906" font-family="Verdana" font-size="10.00">::getSequenceAwareness</text>
</a>
</g>
<!-- Node1&#45;&gt;Node9 -->
<g id="edge18" class="edge"><title>Node1&#45;&gt;Node9</title>
<path fill="none" stroke="midnightblue" d="M74.7693,-604.388C89.7058,-672.83 131.452,-848.721 174,-889 181.132,-895.751 189.857,-900.778 199.088,-904.515"/>
<polygon fill="midnightblue" stroke="midnightblue" points="78.1368,-603.4 72.6063,-594.363 71.2943,-604.877 78.1368,-603.4"/>
</g>
<!-- Node11 -->
<g id="node22" class="node"><title>Node11</title>
<a xlink:href="classCConfigurableDomains.html#a6179afd376df730b6cb59bce78d464bd" target="_top" xlink:title="Configurations. ">
<polygon fill="white" stroke="black" points="205,-846 205,-880 331,-880 331,-846 205,-846"/>
<text text-anchor="start" x="213" y="-867" font-family="Verdana" font-size="10.00">CConfigurableDomains</text>
<text text-anchor="middle" x="268" y="-854" font-family="Verdana" font-size="10.00">::listConfigurations</text>
</a>
</g>
<!-- Node1&#45;&gt;Node11 -->
<g id="edge22" class="edge"><title>Node1&#45;&gt;Node11</title>
<path fill="none" stroke="midnightblue" d="M72.0775,-604.198C79.5334,-657.084 103.48,-774.091 174,-837 182.718,-844.777 193.566,-850.251 204.761,-854.098"/>
<polygon fill="midnightblue" stroke="midnightblue" points="75.5391,-603.676 70.7615,-594.22 68.5992,-604.591 75.5391,-603.676"/>
</g>
<!-- Node12 -->
<g id="node24" class="node"><title>Node12</title>
<a xlink:href="classCConfigurableDomains.html#aa96eec13d9bdbb307e1dcfe6f057a685" target="_top" xlink:title="CConfigurableDomains\l::createConfiguration">
<polygon fill="white" stroke="black" points="205,-794 205,-828 331,-828 331,-794 205,-794"/>
<text text-anchor="start" x="213" y="-815" font-family="Verdana" font-size="10.00">CConfigurableDomains</text>
<text text-anchor="middle" x="268" y="-802" font-family="Verdana" font-size="10.00">::createConfiguration</text>
</a>
</g>
<!-- Node1&#45;&gt;Node12 -->
<g id="edge24" class="edge"><title>Node1&#45;&gt;Node12</title>
<path fill="none" stroke="midnightblue" d="M75.105,-604.061C86.5776,-648.598 115.638,-737.166 174,-785 182.905,-792.299 193.712,-797.554 204.781,-801.337"/>
<polygon fill="midnightblue" stroke="midnightblue" points="78.4755,-603.111 72.6788,-594.242 71.6798,-604.79 78.4755,-603.111"/>
</g>
<!-- Node14 -->
<g id="node28" class="node"><title>Node14</title>
<a xlink:href="classCConfigurableDomains.html#a911e0a0a3af2b8cfb630edb899038bbe" target="_top" xlink:title="CConfigurableDomains\l::deleteConfiguration">
<polygon fill="white" stroke="black" points="205,-742 205,-776 331,-776 331,-742 205,-742"/>
<text text-anchor="start" x="213" y="-763" font-family="Verdana" font-size="10.00">CConfigurableDomains</text>
<text text-anchor="middle" x="268" y="-750" font-family="Verdana" font-size="10.00">::deleteConfiguration</text>
</a>
</g>
<!-- Node1&#45;&gt;Node14 -->
<g id="edge28" class="edge"><title>Node1&#45;&gt;Node14</title>
<path fill="none" stroke="midnightblue" d="M79.7831,-603.547C95.3537,-638.516 127.464,-699.488 174,-733 183.206,-739.629 194.032,-744.57 204.999,-748.251"/>
<polygon fill="midnightblue" stroke="midnightblue" points="82.8382,-601.794 75.6576,-594.003 76.4128,-604.571 82.8382,-601.794"/>
</g>
<!-- Node16 -->
<g id="node32" class="node"><title>Node16</title>
<a xlink:href="classCConfigurableDomains.html#a052bfda8fb27ff5a1eeb0a53444031e8" target="_top" xlink:title="CConfigurableDomains\l::renameConfiguration">
<polygon fill="white" stroke="black" points="205,-690 205,-724 331,-724 331,-690 205,-690"/>
<text text-anchor="start" x="213" y="-711" font-family="Verdana" font-size="10.00">CConfigurableDomains</text>
<text text-anchor="middle" x="268" y="-698" font-family="Verdana" font-size="10.00">::renameConfiguration</text>
</a>
</g>
<!-- Node1&#45;&gt;Node16 -->
<g id="edge32" class="edge"><title>Node1&#45;&gt;Node16</title>
<path fill="none" stroke="midnightblue" d="M87.8401,-601.968C107.016,-625.675 138.852,-660.631 174,-681 183.376,-686.434 193.939,-690.775 204.509,-694.232"/>
<polygon fill="midnightblue" stroke="midnightblue" points="90.5545,-599.758 81.6007,-594.094 85.0681,-604.105 90.5545,-599.758"/>
</g>
<!-- Node18 -->
<g id="node36" class="node"><title>Node18</title>
<a xlink:href="classCConfigurableDomains.html#a9bd88d865d285a699d7b03d558ce9ea2" target="_top" xlink:title="CConfigurableDomains\l::listDomainElements">
<polygon fill="white" stroke="black" points="205,-638 205,-672 331,-672 331,-638 205,-638"/>
<text text-anchor="start" x="213" y="-659" font-family="Verdana" font-size="10.00">CConfigurableDomains</text>
<text text-anchor="middle" x="268" y="-646" font-family="Verdana" font-size="10.00">::listDomainElements</text>
</a>
</g>
<!-- Node1&#45;&gt;Node18 -->
<g id="edge36" class="edge"><title>Node1&#45;&gt;Node18</title>
<path fill="none" stroke="midnightblue" d="M108.648,-598.865C127.974,-608.941 151.79,-620.517 174,-629 183.807,-632.746 194.377,-636.202 204.766,-639.29"/>
<polygon fill="midnightblue" stroke="midnightblue" points="110.025,-595.634 99.5484,-594.059 106.756,-601.824 110.025,-595.634"/>
</g>
<!-- Node19 -->
<g id="node38" class="node"><title>Node19</title>
<a xlink:href="classCConfigurableDomains.html#ae01182802f0ce424d239ea19f9365330" target="_top" xlink:title="CConfigurableDomains\l::split">
<polygon fill="white" stroke="black" points="205,-586 205,-620 331,-620 331,-586 205,-586"/>
<text text-anchor="start" x="213" y="-607" font-family="Verdana" font-size="10.00">CConfigurableDomains</text>
<text text-anchor="middle" x="268" y="-594" font-family="Verdana" font-size="10.00">::split</text>
</a>
</g>
<!-- Node1&#45;&gt;Node19 -->
<g id="edge38" class="edge"><title>Node1&#45;&gt;Node19</title>
<path fill="none" stroke="midnightblue" d="M147.859,-587.303C166.803,-589.778 186.791,-592.39 204.91,-594.757"/>
<polygon fill="midnightblue" stroke="midnightblue" points="148.132,-583.809 137.763,-585.984 147.225,-590.75 148.132,-583.809"/>
</g>
<!-- Node21 -->
<g id="node42" class="node"><title>Node21</title>
<a xlink:href="classCConfigurableDomains.html#a9fa62075b2521f79af18240367662cc7" target="_top" xlink:title="CConfigurableDomains\l::restoreConfiguration">
<polygon fill="white" stroke="black" points="205,-534 205,-568 331,-568 331,-534 205,-534"/>
<text text-anchor="start" x="213" y="-555" font-family="Verdana" font-size="10.00">CConfigurableDomains</text>
<text text-anchor="middle" x="268" y="-542" font-family="Verdana" font-size="10.00">::restoreConfiguration</text>
</a>
</g>
<!-- Node1&#45;&gt;Node21 -->
<g id="edge42" class="edge"><title>Node1&#45;&gt;Node21</title>
<path fill="none" stroke="midnightblue" d="M147.859,-566.697C166.803,-564.222 186.791,-561.61 204.91,-559.243"/>
<polygon fill="midnightblue" stroke="midnightblue" points="147.225,-563.25 137.763,-568.016 148.132,-570.191 147.225,-563.25"/>
</g>
<!-- Node23 -->
<g id="node46" class="node"><title>Node23</title>
<a xlink:href="classCConfigurableDomains.html#a1be81268a7220733d7aed82e75e8253c" target="_top" xlink:title="CConfigurableDomains\l::saveConfiguration">
<polygon fill="white" stroke="black" points="205,-482 205,-516 331,-516 331,-482 205,-482"/>
<text text-anchor="start" x="213" y="-503" font-family="Verdana" font-size="10.00">CConfigurableDomains</text>
<text text-anchor="middle" x="268" y="-490" font-family="Verdana" font-size="10.00">::saveConfiguration</text>
</a>
</g>
<!-- Node1&#45;&gt;Node23 -->
<g id="edge46" class="edge"><title>Node1&#45;&gt;Node23</title>
<path fill="none" stroke="midnightblue" d="M108.648,-555.135C127.974,-545.059 151.79,-533.483 174,-525 183.807,-521.254 194.377,-517.798 204.766,-514.71"/>
<polygon fill="midnightblue" stroke="midnightblue" points="106.756,-552.176 99.5484,-559.941 110.025,-558.366 106.756,-552.176"/>
</g>
<!-- Node25 -->
<g id="node50" class="node"><title>Node25</title>
<a xlink:href="classCConfigurableDomains.html#abad5c37e114fa09153d08c3fe2589235" target="_top" xlink:title="CConfigurableDomains\l::setElementSequence">
<polygon fill="white" stroke="black" points="205,-430 205,-464 331,-464 331,-430 205,-430"/>
<text text-anchor="start" x="213" y="-451" font-family="Verdana" font-size="10.00">CConfigurableDomains</text>
<text text-anchor="middle" x="268" y="-438" font-family="Verdana" font-size="10.00">::setElementSequence</text>
</a>
</g>
<!-- Node1&#45;&gt;Node25 -->
<g id="edge50" class="edge"><title>Node1&#45;&gt;Node25</title>
<path fill="none" stroke="midnightblue" d="M87.8401,-552.032C107.016,-528.325 138.852,-493.369 174,-473 183.376,-467.566 193.939,-463.225 204.509,-459.768"/>
<polygon fill="midnightblue" stroke="midnightblue" points="85.0681,-549.895 81.6007,-559.906 90.5545,-554.242 85.0681,-549.895"/>
</g>
<!-- Node27 -->
<g id="node54" class="node"><title>Node27</title>
<a xlink:href="classCConfigurableDomains.html#a0ed279dec1b574701cd94a6449a295e6" target="_top" xlink:title="CConfigurableDomains\l::getElementSequence">
<polygon fill="white" stroke="black" points="205,-378 205,-412 331,-412 331,-378 205,-378"/>
<text text-anchor="start" x="213" y="-399" font-family="Verdana" font-size="10.00">CConfigurableDomains</text>
<text text-anchor="middle" x="268" y="-386" font-family="Verdana" font-size="10.00">::getElementSequence</text>
</a>
</g>
<!-- Node1&#45;&gt;Node27 -->
<g id="edge54" class="edge"><title>Node1&#45;&gt;Node27</title>
<path fill="none" stroke="midnightblue" d="M79.7831,-550.453C95.3537,-515.484 127.464,-454.512 174,-421 183.206,-414.371 194.032,-409.43 204.999,-405.749"/>
<polygon fill="midnightblue" stroke="midnightblue" points="76.4128,-549.429 75.6576,-559.997 82.8382,-552.206 76.4128,-549.429"/>
</g>
<!-- Node28 -->
<g id="node56" class="node"><title>Node28</title>
<a xlink:href="classCConfigurableDomains.html#ac2b2354eecc80c7ca4a71fe2f40606ed" target="_top" xlink:title="CConfigurableDomains\l::setApplicationRule">
<polygon fill="white" stroke="black" points="205,-326 205,-360 331,-360 331,-326 205,-326"/>
<text text-anchor="start" x="213" y="-347" font-family="Verdana" font-size="10.00">CConfigurableDomains</text>
<text text-anchor="middle" x="268" y="-334" font-family="Verdana" font-size="10.00">::setApplicationRule</text>
</a>
</g>
<!-- Node1&#45;&gt;Node28 -->
<g id="edge56" class="edge"><title>Node1&#45;&gt;Node28</title>
<path fill="none" stroke="midnightblue" d="M75.105,-549.939C86.5776,-505.402 115.638,-416.834 174,-369 182.905,-361.701 193.712,-356.446 204.781,-352.663"/>
<polygon fill="midnightblue" stroke="midnightblue" points="71.6798,-549.21 72.6788,-559.758 78.4755,-550.889 71.6798,-549.21"/>
</g>
<!-- Node30 -->
<g id="node60" class="node"><title>Node30</title>
<a xlink:href="classCConfigurableDomains.html#a72aa8a377bbb1a887e9d753195f59603" target="_top" xlink:title="CConfigurableDomains\l::clearApplicationRule">
<polygon fill="white" stroke="black" points="205,-274 205,-308 331,-308 331,-274 205,-274"/>
<text text-anchor="start" x="213" y="-295" font-family="Verdana" font-size="10.00">CConfigurableDomains</text>
<text text-anchor="middle" x="268" y="-282" font-family="Verdana" font-size="10.00">::clearApplicationRule</text>
</a>
</g>
<!-- Node1&#45;&gt;Node30 -->
<g id="edge60" class="edge"><title>Node1&#45;&gt;Node30</title>
<path fill="none" stroke="midnightblue" d="M72.0775,-549.802C79.5334,-496.916 103.48,-379.909 174,-317 182.718,-309.223 193.566,-303.749 204.761,-299.902"/>
<polygon fill="midnightblue" stroke="midnightblue" points="68.5992,-549.409 70.7615,-559.78 75.5391,-550.324 68.5992,-549.409"/>
</g>
<!-- Node32 -->
<g id="node64" class="node"><title>Node32</title>
<a xlink:href="classCConfigurableDomains.html#a2c09cdf7f3d0ce257831c2df930cb60b" target="_top" xlink:title="CConfigurableDomains\l::getApplicationRule">
<polygon fill="white" stroke="black" points="205,-222 205,-256 331,-256 331,-222 205,-222"/>
<text text-anchor="start" x="213" y="-243" font-family="Verdana" font-size="10.00">CConfigurableDomains</text>
<text text-anchor="middle" x="268" y="-230" font-family="Verdana" font-size="10.00">::getApplicationRule</text>
</a>
</g>
<!-- Node1&#45;&gt;Node32 -->
<g id="edge64" class="edge"><title>Node1&#45;&gt;Node32</title>
<path fill="none" stroke="midnightblue" d="M74.7693,-549.612C89.7058,-481.17 131.452,-305.279 174,-265 182.607,-256.852 193.536,-251.215 204.872,-247.327"/>
<polygon fill="midnightblue" stroke="midnightblue" points="71.2943,-549.123 72.6063,-559.637 78.1368,-550.6 71.2943,-549.123"/>
</g>
<!-- Node34 -->
<g id="node68" class="node"><title>Node34</title>
<a xlink:href="classCConfigurableDomains.html#a5ef1a732092a341b147eca23da2f9476" target="_top" xlink:title="CConfigurableDomains\l::addConfigurableElementToDomain">
<polygon fill="white" stroke="black" points="174,-170 174,-204 362,-204 362,-170 174,-170"/>
<text text-anchor="start" x="182" y="-191" font-family="Verdana" font-size="10.00">CConfigurableDomains</text>
<text text-anchor="middle" x="268" y="-178" font-family="Verdana" font-size="10.00">::addConfigurableElementToDomain</text>
</a>
</g>
<!-- Node1&#45;&gt;Node34 -->
<g id="edge68" class="edge"><title>Node1&#45;&gt;Node34</title>
<path fill="none" stroke="midnightblue" d="M73.4252,-549.294C86.1717,-472.821 125.196,-261.271 174,-213 177.371,-209.666 181.129,-206.75 185.149,-204.201"/>
<polygon fill="midnightblue" stroke="midnightblue" points="69.906,-549.125 71.7372,-559.561 76.8132,-550.261 69.906,-549.125"/>
</g>
<!-- Node36 -->
<g id="node72" class="node"><title>Node36</title>
<a xlink:href="classCConfigurableDomains.html#ac5e3f505c51b2b016614aa460597fd59" target="_top" xlink:title="CConfigurableDomains\l::removeConfigurableElement\lFromDomain">
<polygon fill="white" stroke="black" points="188.5,-104.5 188.5,-151.5 347.5,-151.5 347.5,-104.5 188.5,-104.5"/>
<text text-anchor="start" x="196.5" y="-138.5" font-family="Verdana" font-size="10.00">CConfigurableDomains</text>
<text text-anchor="start" x="196.5" y="-125.5" font-family="Verdana" font-size="10.00">::removeConfigurableElement</text>
<text text-anchor="middle" x="268" y="-112.5" font-family="Verdana" font-size="10.00">FromDomain</text>
</a>
</g>
<!-- Node1&#45;&gt;Node36 -->
<g id="edge72" class="edge"><title>Node1&#45;&gt;Node36</title>
<path fill="none" stroke="midnightblue" d="M72.4885,-549.757C83.6173,-466.792 120.699,-219.351 174,-161 178.199,-156.403 183.077,-152.446 188.358,-149.04"/>
<polygon fill="midnightblue" stroke="midnightblue" points="69.0164,-549.317 71.1755,-559.689 75.956,-550.234 69.0164,-549.317"/>
</g>
<!-- Node38 -->
<g id="node76" class="node"><title>Node38</title>
<a xlink:href="classCConfigurableDomains.html#a181ae71432b21ee3fedb82abb05872e3" target="_top" xlink:title="CConfigurableDomains\l::findConfigurationBlackboard">
<polygon fill="white" stroke="black" points="189.5,-52 189.5,-86 346.5,-86 346.5,-52 189.5,-52"/>
<text text-anchor="start" x="197.5" y="-73" font-family="Verdana" font-size="10.00">CConfigurableDomains</text>
<text text-anchor="middle" x="268" y="-60" font-family="Verdana" font-size="10.00">::findConfigurationBlackboard</text>
</a>
</g>
<!-- Node1&#45;&gt;Node38 -->
<g id="edge76" class="edge"><title>Node1&#45;&gt;Node38</title>
<path fill="none" stroke="midnightblue" d="M71.2915,-549.647C79.5306,-457.739 110.582,-162.03 174,-95 178.422,-90.3261 183.602,-86.4669 189.219,-83.2836"/>
<polygon fill="midnightblue" stroke="midnightblue" points="67.7868,-549.548 70.3992,-559.816 74.7601,-550.16 67.7868,-549.548"/>
</g>
<!-- Node40 -->
<g id="node80" class="node"><title>Node40</title>
<a xlink:href="classCParameterMgr.html#a8e67dde1f6a678bad4002f31480107be" target="_top" xlink:title="Method that exports a given Configurable Domain to an Xml destination. ">
<polygon fill="white" stroke="black" points="189,-0 189,-34 347,-34 347,-0 189,-0"/>
<text text-anchor="start" x="197" y="-21" font-family="Verdana" font-size="10.00">CParameterMgr::exportSingle</text>
<text text-anchor="middle" x="268" y="-8" font-family="Verdana" font-size="10.00">DomainXml</text>
</a>
</g>
<!-- Node1&#45;&gt;Node40 -->
<g id="edge80" class="edge"><title>Node1&#45;&gt;Node40</title>
<path fill="none" stroke="midnightblue" d="M70.6405,-549.964C77.1136,-452.148 104.038,-118.469 174,-43 178.259,-38.4056 183.251,-34.5961 188.674,-31.4407"/>
<polygon fill="midnightblue" stroke="midnightblue" points="67.1477,-549.74 69.9975,-559.944 74.1333,-550.19 67.1477,-549.74"/>
</g>
<!-- Node3&#45;&gt;Node2 -->
<g id="edge6" class="edge"><title>Node3&#45;&gt;Node2</title>
<path fill="none" stroke="midnightblue" d="M341.198,-1085.32C371.364,-1091.22 405.973,-1097.99 434.988,-1103.67"/>
<polygon fill="midnightblue" stroke="midnightblue" points="341.639,-1081.84 331.153,-1083.36 340.295,-1088.71 341.639,-1081.84"/>
</g>
<!-- Node4 -->
<g id="node8" class="node"><title>Node4</title>
<a xlink:href="classCParameterMgr.html#a9981826546c533325941986134d8bbfa" target="_top" xlink:title="CParameterMgr::deleteDomain">
<polygon fill="white" stroke="black" points="415.5,-1059.5 415.5,-1080.5 580.5,-1080.5 580.5,-1059.5 415.5,-1059.5"/>
<text text-anchor="middle" x="498" y="-1067.5" font-family="Verdana" font-size="10.00">CParameterMgr::deleteDomain</text>
</a>
</g>
<!-- Node3&#45;&gt;Node4 -->
<g id="edge8" class="edge"><title>Node3&#45;&gt;Node4</title>
<path fill="none" stroke="midnightblue" d="M341.388,-1070.68C364.873,-1070.58 391.034,-1070.47 415.146,-1070.36"/>
<polygon fill="midnightblue" stroke="midnightblue" points="341.137,-1067.18 331.153,-1070.73 341.168,-1074.18 341.137,-1067.18"/>
</g>
<!-- Node6 -->
<g id="node12" class="node"><title>Node6</title>
<a xlink:href="classCParameterMgr.html#a7d8898361dc42076dccb72489e3e7a43" target="_top" xlink:title="CParameterMgr::renameDomain">
<polygon fill="white" stroke="black" points="411.5,-1008.5 411.5,-1029.5 584.5,-1029.5 584.5,-1008.5 411.5,-1008.5"/>
<text text-anchor="middle" x="498" y="-1016.5" font-family="Verdana" font-size="10.00">CParameterMgr::renameDomain</text>
</a>
</g>
<!-- Node5&#45;&gt;Node6 -->
<g id="edge12" class="edge"><title>Node5&#45;&gt;Node6</title>
<path fill="none" stroke="midnightblue" d="M341.208,-1019C363.496,-1019 388.207,-1019 411.297,-1019"/>
<polygon fill="midnightblue" stroke="midnightblue" points="341.153,-1015.5 331.153,-1019 341.153,-1022.5 341.153,-1015.5"/>
</g>
<!-- Node8 -->
<g id="node16" class="node"><title>Node8</title>
<a xlink:href="classCParameterMgr.html#a8392607ed686806362c9a8882a471553" target="_top" xlink:title="CParameterMgr::setSequence\lAwareness">
<polygon fill="white" stroke="black" points="417.5,-950 417.5,-984 578.5,-984 578.5,-950 417.5,-950"/>
<text text-anchor="start" x="425.5" y="-971" font-family="Verdana" font-size="10.00">CParameterMgr::setSequence</text>
<text text-anchor="middle" x="498" y="-958" font-family="Verdana" font-size="10.00">Awareness</text>
</a>
</g>
<!-- Node7&#45;&gt;Node8 -->
<g id="edge16" class="edge"><title>Node7&#45;&gt;Node8</title>
<path fill="none" stroke="midnightblue" d="M346.945,-967C369.6,-967 394.333,-967 417.105,-967"/>
<polygon fill="midnightblue" stroke="midnightblue" points="346.696,-963.5 336.696,-967 346.696,-970.5 346.696,-963.5"/>
</g>
<!-- Node10 -->
<g id="node20" class="node"><title>Node10</title>
<a xlink:href="classCParameterMgr.html#ae43b3dc52cf33a344ca0c70aae2e1306" target="_top" xlink:title="CParameterMgr::getSequence\lAwareness">
<polygon fill="white" stroke="black" points="417.5,-898 417.5,-932 578.5,-932 578.5,-898 417.5,-898"/>
<text text-anchor="start" x="425.5" y="-919" font-family="Verdana" font-size="10.00">CParameterMgr::getSequence</text>
<text text-anchor="middle" x="498" y="-906" font-family="Verdana" font-size="10.00">Awareness</text>
</a>
</g>
<!-- Node9&#45;&gt;Node10 -->
<g id="edge20" class="edge"><title>Node9&#45;&gt;Node10</title>
<path fill="none" stroke="midnightblue" d="M346.945,-915C369.6,-915 394.333,-915 417.105,-915"/>
<polygon fill="midnightblue" stroke="midnightblue" points="346.696,-911.5 336.696,-915 346.696,-918.5 346.696,-911.5"/>
</g>
<!-- Node13 -->
<g id="node26" class="node"><title>Node13</title>
<a xlink:href="classCParameterMgr.html#ad60e8abcd5881a2833d24c3a531e16f0" target="_top" xlink:title="CParameterMgr::createConfiguration">
<polygon fill="white" stroke="black" points="402,-800.5 402,-821.5 594,-821.5 594,-800.5 402,-800.5"/>
<text text-anchor="middle" x="498" y="-808.5" font-family="Verdana" font-size="10.00">CParameterMgr::createConfiguration</text>
</a>
</g>
<!-- Node12&#45;&gt;Node13 -->
<g id="edge26" class="edge"><title>Node12&#45;&gt;Node13</title>
<path fill="none" stroke="midnightblue" d="M341.325,-811C360.541,-811 381.552,-811 401.769,-811"/>
<polygon fill="midnightblue" stroke="midnightblue" points="341.153,-807.5 331.153,-811 341.153,-814.5 341.153,-807.5"/>
</g>
<!-- Node15 -->
<g id="node30" class="node"><title>Node15</title>
<a xlink:href="classCParameterMgr.html#a1bb4638a89187ef50cf3a1aaea566244" target="_top" xlink:title="CParameterMgr::deleteConfiguration">
<polygon fill="white" stroke="black" points="402.5,-748.5 402.5,-769.5 593.5,-769.5 593.5,-748.5 402.5,-748.5"/>
<text text-anchor="middle" x="498" y="-756.5" font-family="Verdana" font-size="10.00">CParameterMgr::deleteConfiguration</text>
</a>
</g>
<!-- Node14&#45;&gt;Node15 -->
<g id="edge30" class="edge"><title>Node14&#45;&gt;Node15</title>
<path fill="none" stroke="midnightblue" d="M341.388,-759C360.725,-759 381.877,-759 402.205,-759"/>
<polygon fill="midnightblue" stroke="midnightblue" points="341.153,-755.5 331.153,-759 341.153,-762.5 341.153,-755.5"/>
</g>
<!-- Node17 -->
<g id="node34" class="node"><title>Node17</title>
<a xlink:href="classCParameterMgr.html#af73dc2735e178eb3571400b76172b03e" target="_top" xlink:title="CParameterMgr::renameConfiguration">
<polygon fill="white" stroke="black" points="398.5,-696.5 398.5,-717.5 597.5,-717.5 597.5,-696.5 398.5,-696.5"/>
<text text-anchor="middle" x="498" y="-704.5" font-family="Verdana" font-size="10.00">CParameterMgr::renameConfiguration</text>
</a>
</g>
<!-- Node16&#45;&gt;Node17 -->
<g id="edge34" class="edge"><title>Node16&#45;&gt;Node17</title>
<path fill="none" stroke="midnightblue" d="M341.325,-707C359.435,-707 379.14,-707 398.271,-707"/>
<polygon fill="midnightblue" stroke="midnightblue" points="341.153,-703.5 331.153,-707 341.153,-710.5 341.153,-703.5"/>
</g>
<!-- Node20 -->
<g id="node40" class="node"><title>Node20</title>
<a xlink:href="classCParameterMgr.html#a042735242f31241743085d2d9d7edcc5" target="_top" xlink:title="CParameterMgr::split">
<polygon fill="white" stroke="black" points="439.5,-592.5 439.5,-613.5 556.5,-613.5 556.5,-592.5 439.5,-592.5"/>
<text text-anchor="middle" x="498" y="-600.5" font-family="Verdana" font-size="10.00">CParameterMgr::split</text>
</a>
</g>
<!-- Node19&#45;&gt;Node20 -->
<g id="edge40" class="edge"><title>Node19&#45;&gt;Node20</title>
<path fill="none" stroke="midnightblue" d="M341.25,-603C372.924,-603 409.488,-603 439.33,-603"/>
<polygon fill="midnightblue" stroke="midnightblue" points="341.153,-599.5 331.153,-603 341.153,-606.5 341.153,-599.5"/>
</g>
<!-- Node22 -->
<g id="node44" class="node"><title>Node22</title>
<a xlink:href="classCParameterMgr.html#a04786772b59275eef5f1af23dc9a639d" target="_top" xlink:title="CParameterMgr::restoreConfiguration">
<polygon fill="white" stroke="black" points="400,-540.5 400,-561.5 596,-561.5 596,-540.5 400,-540.5"/>
<text text-anchor="middle" x="498" y="-548.5" font-family="Verdana" font-size="10.00">CParameterMgr::restoreConfiguration</text>
</a>
</g>
<!-- Node21&#45;&gt;Node22 -->
<g id="edge44" class="edge"><title>Node21&#45;&gt;Node22</title>
<path fill="none" stroke="midnightblue" d="M341.266,-551C359.807,-551 380.023,-551 399.584,-551"/>
<polygon fill="midnightblue" stroke="midnightblue" points="341.153,-547.5 331.153,-551 341.153,-554.5 341.153,-547.5"/>
</g>
<!-- Node24 -->
<g id="node48" class="node"><title>Node24</title>
<a xlink:href="classCParameterMgr.html#aabb760bc56ad6e76f32bf732005730cb" target="_top" xlink:title="CParameterMgr::saveConfiguration">
<polygon fill="white" stroke="black" points="406,-488.5 406,-509.5 590,-509.5 590,-488.5 406,-488.5"/>
<text text-anchor="middle" x="498" y="-496.5" font-family="Verdana" font-size="10.00">CParameterMgr::saveConfiguration</text>
</a>
</g>
<!-- Node23&#45;&gt;Node24 -->
<g id="edge48" class="edge"><title>Node23&#45;&gt;Node24</title>
<path fill="none" stroke="midnightblue" d="M341.333,-499C361.791,-499 384.283,-499 405.684,-499"/>
<polygon fill="midnightblue" stroke="midnightblue" points="341.153,-495.5 331.153,-499 341.153,-502.5 341.153,-495.5"/>
</g>
<!-- Node26 -->
<g id="node52" class="node"><title>Node26</title>
<a xlink:href="classCParameterMgr.html#aa57a75f10ccb35c8ea0b72e089bc5fc8" target="_top" xlink:title="CParameterMgr::setElement\lSequence">
<polygon fill="white" stroke="black" points="422,-430 422,-464 574,-464 574,-430 422,-430"/>
<text text-anchor="start" x="430" y="-451" font-family="Verdana" font-size="10.00">CParameterMgr::setElement</text>
<text text-anchor="middle" x="498" y="-438" font-family="Verdana" font-size="10.00">Sequence</text>
</a>
</g>
<!-- Node25&#45;&gt;Node26 -->
<g id="edge52" class="edge"><title>Node25&#45;&gt;Node26</title>
<path fill="none" stroke="midnightblue" d="M341.218,-447C366.957,-447 395.929,-447 421.901,-447"/>
<polygon fill="midnightblue" stroke="midnightblue" points="341.153,-443.5 331.153,-447 341.153,-450.5 341.153,-443.5"/>
</g>
<!-- Node29 -->
<g id="node58" class="node"><title>Node29</title>
<a xlink:href="classCParameterMgr.html#af63f9ad7f792b2bf226afd791c1db70e" target="_top" xlink:title="CParameterMgr::setApplicationRule">
<polygon fill="white" stroke="black" points="405.5,-332.5 405.5,-353.5 590.5,-353.5 590.5,-332.5 405.5,-332.5"/>
<text text-anchor="middle" x="498" y="-340.5" font-family="Verdana" font-size="10.00">CParameterMgr::setApplicationRule</text>
</a>
</g>
<!-- Node28&#45;&gt;Node29 -->
<g id="edge58" class="edge"><title>Node28&#45;&gt;Node29</title>
<path fill="none" stroke="midnightblue" d="M341.273,-343C361.609,-343 383.958,-343 405.25,-343"/>
<polygon fill="midnightblue" stroke="midnightblue" points="341.153,-339.5 331.153,-343 341.153,-346.5 341.153,-339.5"/>
</g>
<!-- Node31 -->
<g id="node62" class="node"><title>Node31</title>
<a xlink:href="classCParameterMgr.html#a5773905f5b49566fca22f6f30d0d9d54" target="_top" xlink:title="CParameterMgr::clearApplicationRule">
<polygon fill="white" stroke="black" points="401.5,-280.5 401.5,-301.5 594.5,-301.5 594.5,-280.5 401.5,-280.5"/>
<text text-anchor="middle" x="498" y="-288.5" font-family="Verdana" font-size="10.00">CParameterMgr::clearApplicationRule</text>
</a>
</g>
<!-- Node30&#45;&gt;Node31 -->
<g id="edge62" class="edge"><title>Node30&#45;&gt;Node31</title>
<path fill="none" stroke="midnightblue" d="M341.261,-291C360.356,-291 381.228,-291 401.332,-291"/>
<polygon fill="midnightblue" stroke="midnightblue" points="341.153,-287.5 331.153,-291 341.153,-294.5 341.153,-287.5"/>
</g>
<!-- Node33 -->
<g id="node66" class="node"><title>Node33</title>
<a xlink:href="classCParameterMgr.html#a001de36ae98f163d21ec23f2d8a626d3" target="_top" xlink:title="CParameterMgr::getApplicationRule">
<polygon fill="white" stroke="black" points="405.5,-228.5 405.5,-249.5 590.5,-249.5 590.5,-228.5 405.5,-228.5"/>
<text text-anchor="middle" x="498" y="-236.5" font-family="Verdana" font-size="10.00">CParameterMgr::getApplicationRule</text>
</a>
</g>
<!-- Node32&#45;&gt;Node33 -->
<g id="edge66" class="edge"><title>Node32&#45;&gt;Node33</title>
<path fill="none" stroke="midnightblue" d="M341.273,-239C361.609,-239 383.958,-239 405.25,-239"/>
<polygon fill="midnightblue" stroke="midnightblue" points="341.153,-235.5 331.153,-239 341.153,-242.5 341.153,-235.5"/>
</g>
<!-- Node35 -->
<g id="node70" class="node"><title>Node35</title>
<a xlink:href="classCParameterMgr.html#ae9941471fb32f02b3620cf46cd13ebbb" target="_top" xlink:title="CParameterMgr::addConfigurable\lElementToDomain">
<polygon fill="white" stroke="black" points="410,-170 410,-204 586,-204 586,-170 410,-170"/>
<text text-anchor="start" x="418" y="-191" font-family="Verdana" font-size="10.00">CParameterMgr::addConfigurable</text>
<text text-anchor="middle" x="498" y="-178" font-family="Verdana" font-size="10.00">ElementToDomain</text>
</a>
</g>
<!-- Node34&#45;&gt;Node35 -->
<g id="edge70" class="edge"><title>Node34&#45;&gt;Node35</title>
<path fill="none" stroke="midnightblue" d="M372.244,-187C384.812,-187 397.552,-187 409.858,-187"/>
<polygon fill="midnightblue" stroke="midnightblue" points="372.213,-183.5 362.213,-187 372.213,-190.5 372.213,-183.5"/>
</g>
<!-- Node37 -->
<g id="node74" class="node"><title>Node37</title>
<a xlink:href="classCParameterMgr.html#a4f307490c67f2dde0b08e638500dd5d4" target="_top" xlink:title="CParameterMgr::removeConfigurable\lElementFromDomain">
<polygon fill="white" stroke="black" points="401,-111 401,-145 595,-145 595,-111 401,-111"/>
<text text-anchor="start" x="409" y="-132" font-family="Verdana" font-size="10.00">CParameterMgr::removeConfigurable</text>
<text text-anchor="middle" x="498" y="-119" font-family="Verdana" font-size="10.00">ElementFromDomain</text>
</a>
</g>
<!-- Node36&#45;&gt;Node37 -->
<g id="edge74" class="edge"><title>Node36&#45;&gt;Node37</title>
<path fill="none" stroke="midnightblue" d="M357.951,-128C372.042,-128 386.66,-128 400.902,-128"/>
<polygon fill="midnightblue" stroke="midnightblue" points="357.797,-124.5 347.797,-128 357.797,-131.5 357.797,-124.5"/>
</g>
<!-- Node39 -->
<g id="node78" class="node"><title>Node39</title>
<a xlink:href="classCParameterMgr.html#a25055f536c2d537e86852c87a4e1a061" target="_top" xlink:title="CParameterMgr::accessConfiguration\lValue">
<polygon fill="white" stroke="black" points="401,-52 401,-86 595,-86 595,-52 401,-52"/>
<text text-anchor="start" x="409" y="-73" font-family="Verdana" font-size="10.00">CParameterMgr::accessConfiguration</text>
<text text-anchor="middle" x="498" y="-60" font-family="Verdana" font-size="10.00">Value</text>
</a>
</g>
<!-- Node38&#45;&gt;Node39 -->
<g id="edge78" class="edge"><title>Node38&#45;&gt;Node39</title>
<path fill="none" stroke="midnightblue" d="M356.856,-69C371.225,-69 386.167,-69 400.722,-69"/>
<polygon fill="midnightblue" stroke="midnightblue" points="356.51,-65.5001 346.51,-69 356.51,-72.5001 356.51,-65.5001"/>
</g>
</g>
</svg>
