<?xml version="1.0" encoding="UTF-8" standalone="no"?>
<!DOCTYPE svg PUBLIC "-//W3C//DTD SVG 1.1//EN"
 "http://www.w3.org/Graphics/SVG/1.1/DTD/svg11.dtd">
<!-- Generated by graphviz version 2.26.3 (20100126.1600)
 -->
<!-- Title: CRequestMessage::addArgument Pages: 1 -->
<svg width="452pt" height="59pt"
 viewBox="0.00 0.00 452.00 59.00" xmlns="http://www.w3.org/2000/svg" xmlns:xlink="http://www.w3.org/1999/xlink">
<g id="graph1" class="graph" transform="scale(1 1) rotate(0) translate(4 55)">
<title>CRequestMessage::addArgument</title>
<polygon fill="white" stroke="white" points="-4,5 -4,-55 449,-55 449,5 -4,5"/>
<!-- Node1 -->
<g id="node1" class="node"><title>Node1</title>
<polygon fill="#bfbfbf" stroke="black" points="0,-0.5 0,-21.5 176,-21.5 176,-0.5 0,-0.5"/>
<text text-anchor="middle" x="88" y="-8.5" font-family="Verdana" font-size="10.00">CRequestMessage::addArgument</text>
</g>
<!-- Node2 -->
<g id="node3" class="node"><title>Node2</title>
<a xlink:href="classCRequestMessageGenerator.html#ad81a727cb2c87141ea2304d7c842ebec" target="_top" xlink:title="CRequestMessageGenerator\l::next">
<polygon fill="white" stroke="black" points="212.5,-17 212.5,-51 365.5,-51 365.5,-17 212.5,-17"/>
<text text-anchor="start" x="220.5" y="-38" font-family="Verdana" font-size="10.00">CRequestMessageGenerator</text>
<text text-anchor="middle" x="289" y="-25" font-family="Verdana" font-size="10.00">::next</text>
</a>
</g>
<!-- Node1&#45;&gt;Node2 -->
<g id="edge2" class="edge"><title>Node1&#45;&gt;Node2</title>
<path fill="none" stroke="midnightblue" d="M186.349,-22.2538C195.048,-23.2493 203.769,-24.2472 212.251,-25.2178"/>
<polygon fill="midnightblue" stroke="midnightblue" points="186.495,-18.7478 176.162,-21.0881 185.699,-25.7024 186.495,-18.7478"/>
</g>
<!-- Node3 -->
<g id="node5" class="node"><title>Node3</title>
<a xlink:href="main_8cpp.html#a0ddf1224851353fc92bfbff6f499fa97" target="_top" xlink:title="main">
<polygon fill="white" stroke="black" points="402.5,-0.5 402.5,-21.5 443.5,-21.5 443.5,-0.5 402.5,-0.5"/>
<text text-anchor="middle" x="423" y="-8.5" font-family="Verdana" font-size="10.00">main</text>
</a>
</g>
<!-- Node1&#45;&gt;Node3 -->
<g id="edge6" class="edge"><title>Node1&#45;&gt;Node3</title>
<path fill="none" stroke="midnightblue" d="M186.389,-8.16257C239.576,-7.07646 306.393,-6.43248 366,-8 378.085,-8.31782 391.597,-9.01405 402.431,-9.65584"/>
<polygon fill="midnightblue" stroke="midnightblue" points="186.204,-4.66561 176.28,-8.3776 186.353,-11.664 186.204,-4.66561"/>
</g>
<!-- Node2&#45;&gt;Node3 -->
<g id="edge4" class="edge"><title>Node2&#45;&gt;Node3</title>
<path fill="none" stroke="midnightblue" d="M375.735,-19.1127C385.516,-17.4338 394.681,-15.8607 402.289,-14.5549"/>
<polygon fill="midnightblue" stroke="midnightblue" points="375.047,-15.6795 365.783,-20.8208 376.231,-22.5786 375.047,-15.6795"/>
</g>
</g>
</svg>
