<?xml version="1.0" encoding="UTF-8" standalone="no"?>
<!DOCTYPE svg PUBLIC "-//W3C//DTD SVG 1.1//EN"
 "http://www.w3.org/Graphics/SVG/1.1/DTD/svg11.dtd">
<!-- Generated by graphviz version 2.26.3 (20100126.1600)
 -->
<!-- Title: CBaseParameter::doSetValue Pages: 1 -->
<svg width="552pt" height="94pt"
 viewBox="0.00 0.00 552.00 94.00" xmlns="http://www.w3.org/2000/svg" xmlns:xlink="http://www.w3.org/1999/xlink">
<g id="graph1" class="graph" transform="scale(1 1) rotate(0) translate(4 90)">
<title>CBaseParameter::doSetValue</title>
<polygon fill="white" stroke="white" points="-4,5 -4,-90 549,-90 549,5 -4,5"/>
<!-- Node1 -->
<g id="node1" class="node"><title>Node1</title>
<polygon fill="#bfbfbf" stroke="black" points="0,-32.5 0,-53.5 158,-53.5 158,-32.5 0,-32.5"/>
<text text-anchor="middle" x="79" y="-40.5" font-family="Verdana" font-size="10.00">CBaseParameter::doSetValue</text>
</g>
<!-- Node2 -->
<g id="node3" class="node"><title>Node2</title>
<a xlink:href="classCBaseParameter.html#a97e096908df72fa729a62c3f5c362ddd" target="_top" xlink:title="CBaseParameter::serialize\lXmlSettings">
<polygon fill="white" stroke="black" points="197.5,-52 197.5,-86 340.5,-86 340.5,-52 197.5,-52"/>
<text text-anchor="start" x="205.5" y="-73" font-family="Verdana" font-size="10.00">CBaseParameter::serialize</text>
<text text-anchor="middle" x="269" y="-60" font-family="Verdana" font-size="10.00">XmlSettings</text>
</a>
</g>
<!-- Node1&#45;&gt;Node2 -->
<g id="edge2" class="edge"><title>Node1&#45;&gt;Node2</title>
<path fill="none" stroke="midnightblue" d="M165.761,-54.8725C176.281,-56.3122 186.938,-57.7704 197.208,-59.1759"/>
<polygon fill="midnightblue" stroke="midnightblue" points="166.115,-51.3884 155.733,-53.5003 165.166,-58.3238 166.115,-51.3884"/>
</g>
<!-- Node3 -->
<g id="node5" class="node"><title>Node3</title>
<a xlink:href="classCBaseParameter.html#a2b425561e193a3d54e7225d896a3d39b" target="_top" xlink:title="CBaseParameter::accessAs\lString">
<polygon fill="white" stroke="black" points="194.5,-0 194.5,-34 343.5,-34 343.5,-0 194.5,-0"/>
<text text-anchor="start" x="202.5" y="-21" font-family="Verdana" font-size="10.00">CBaseParameter::accessAs</text>
<text text-anchor="middle" x="269" y="-8" font-family="Verdana" font-size="10.00">String</text>
</a>
</g>
<!-- Node1&#45;&gt;Node3 -->
<g id="edge4" class="edge"><title>Node1&#45;&gt;Node3</title>
<path fill="none" stroke="midnightblue" d="M165.685,-31.1379C175.291,-29.8234 185.011,-28.4933 194.448,-27.2018"/>
<polygon fill="midnightblue" stroke="midnightblue" points="165.166,-27.6762 155.733,-32.4997 166.115,-34.6116 165.166,-27.6762"/>
</g>
<!-- Node4 -->
<g id="node7" class="node"><title>Node4</title>
<a xlink:href="classCBaseParameter.html#a4a9b3e3a2d1ea65a8dc7048559db8dc2" target="_top" xlink:title="CBaseParameter::accessValue">
<polygon fill="white" stroke="black" points="380.5,-6.5 380.5,-27.5 543.5,-27.5 543.5,-6.5 380.5,-6.5"/>
<text text-anchor="middle" x="462" y="-14.5" font-family="Verdana" font-size="10.00">CBaseParameter::accessValue</text>
</a>
</g>
<!-- Node3&#45;&gt;Node4 -->
<g id="edge6" class="edge"><title>Node3&#45;&gt;Node4</title>
<path fill="none" stroke="midnightblue" d="M353.828,-17C362.59,-17 371.483,-17 380.211,-17"/>
<polygon fill="midnightblue" stroke="midnightblue" points="353.619,-13.5001 343.619,-17 353.619,-20.5001 353.619,-13.5001"/>
</g>
</g>
</svg>
