<?xml version="1.0" encoding="UTF-8" standalone="no"?>
<!DOCTYPE svg PUBLIC "-//W3C//DTD SVG 1.1//EN"
 "http://www.w3.org/Graphics/SVG/1.1/DTD/svg11.dtd">
<!-- Generated by graphviz version 2.26.3 (20100126.1600)
 -->
<!-- Title: CElementBuilder Pages: 1 -->
<svg width="644pt" height="270pt"
 viewBox="0.00 0.00 644.00 269.94" xmlns="http://www.w3.org/2000/svg" xmlns:xlink="http://www.w3.org/1999/xlink">
<g id="graph1" class="graph" transform="scale(1 1) rotate(0) translate(4 265.944)">
<title>CElementBuilder</title>
<polygon fill="white" stroke="white" points="-4,5 -4,-265.944 641,-265.944 641,5 -4,5"/>
<!-- Node1 -->
<g id="node1" class="node"><title>Node1</title>
<polygon fill="#bfbfbf" stroke="black" points="0,-128.444 0,-149.444 96,-149.444 96,-128.444 0,-128.444"/>
<text text-anchor="middle" x="48" y="-136.444" font-family="Verdana" font-size="10.00">CElementBuilder</text>
</g>
<!-- Node2 -->
<g id="node3" class="node"><title>Node2</title>
<a xlink:href="classCFileIncluderElementBuilder.html" target="_top" xlink:title="This is the XmlFileIncluderElement builder class. ">
<polygon fill="white" stroke="black" points="146.5,-240.444 146.5,-261.444 295.5,-261.444 295.5,-240.444 146.5,-240.444"/>
<text text-anchor="middle" x="221" y="-248.444" font-family="Verdana" font-size="10.00">CFileIncluderElementBuilder</text>
</a>
</g>
<!-- Node1&#45;&gt;Node2 -->
<g id="edge2" class="edge"><title>Node1&#45;&gt;Node2</title>
<path fill="none" stroke="midnightblue" d="M60.65,-158.2C75.603,-179.372 102.477,-212.789 134,-230.944 140.581,-234.734 147.83,-237.806 155.25,-240.295"/>
<polygon fill="midnightblue" stroke="midnightblue" points="63.3599,-155.963 54.8185,-149.694 57.5865,-159.921 63.3599,-155.963"/>
</g>
<!-- Node3 -->
<g id="node5" class="node"><title>Node3</title>
<a xlink:href="classCSubsystemElementBuilder.html" target="_top" xlink:title="CSubsystemElementBuilder">
<polygon fill="white" stroke="black" points="146,-200.444 146,-221.444 296,-221.444 296,-200.444 146,-200.444"/>
<text text-anchor="middle" x="221" y="-208.444" font-family="Verdana" font-size="10.00">CSubsystemElementBuilder</text>
</a>
</g>
<!-- Node1&#45;&gt;Node3 -->
<g id="edge4" class="edge"><title>Node1&#45;&gt;Node3</title>
<path fill="none" stroke="midnightblue" d="M70.7014,-155.427C87.457,-166.89 111.214,-181.713 134,-190.944 143.193,-194.668 153.227,-197.78 163.107,-200.353"/>
<polygon fill="midnightblue" stroke="midnightblue" points="72.3655,-152.32 62.1636,-149.462 68.3562,-158.058 72.3655,-152.32"/>
</g>
<!-- Node4 -->
<g id="node7" class="node"><title>Node4</title>
<a xlink:href="classTElementBuilderTemplate.html" target="_top" xlink:title="TElementBuilderTemplate\l\&lt; ElementType \&gt;">
<polygon fill="white" stroke="black" points="152,-147.944 152,-181.944 290,-181.944 290,-147.944 152,-147.944"/>
<text text-anchor="start" x="160" y="-168.944" font-family="Verdana" font-size="10.00">TElementBuilderTemplate</text>
<text text-anchor="middle" x="221" y="-155.944" font-family="Verdana" font-size="10.00">&lt; ElementType &gt;</text>
</a>
</g>
<!-- Node1&#45;&gt;Node4 -->
<g id="edge6" class="edge"><title>Node1&#45;&gt;Node4</title>
<path fill="none" stroke="midnightblue" d="M106.106,-147.676C120.745,-149.877 136.605,-152.26 151.732,-154.534"/>
<polygon fill="midnightblue" stroke="midnightblue" points="106.599,-144.211 96.1901,-146.186 105.559,-151.134 106.599,-144.211"/>
</g>
<!-- Node5 -->
<g id="node9" class="node"><title>Node5</title>
<a xlink:href="classTKindElementBuilderTemplate.html" target="_top" xlink:title="TKindElementBuilderTemplate\l\&lt; ElementType \&gt;">
<polygon fill="white" stroke="black" points="142,-95.9437 142,-129.944 300,-129.944 300,-95.9437 142,-95.9437"/>
<text text-anchor="start" x="150" y="-116.944" font-family="Verdana" font-size="10.00">TKindElementBuilderTemplate</text>
<text text-anchor="middle" x="221" y="-103.944" font-family="Verdana" font-size="10.00">&lt; ElementType &gt;</text>
</a>
</g>
<!-- Node1&#45;&gt;Node5 -->
<g id="edge8" class="edge"><title>Node1&#45;&gt;Node5</title>
<path fill="none" stroke="midnightblue" d="M106.082,-130.215C117.585,-128.486 129.844,-126.643 141.908,-124.83"/>
<polygon fill="midnightblue" stroke="midnightblue" points="105.559,-126.754 96.1901,-131.701 106.599,-133.676 105.559,-126.754"/>
</g>
<!-- Node6 -->
<g id="node11" class="node"><title>Node6</title>
<a xlink:href="classTNamedElementBuilderTemplate.html" target="_top" xlink:title="TNamedElementBuilderTemplate\l\&lt; ElementType \&gt;">
<polygon fill="white" stroke="black" points="134.5,-43.9437 134.5,-77.9437 307.5,-77.9437 307.5,-43.9437 134.5,-43.9437"/>
<text text-anchor="start" x="142.5" y="-64.9437" font-family="Verdana" font-size="10.00">TNamedElementBuilderTemplate</text>
<text text-anchor="middle" x="221" y="-51.9437" font-family="Verdana" font-size="10.00">&lt; ElementType &gt;</text>
</a>
</g>
<!-- Node1&#45;&gt;Node6 -->
<g id="edge10" class="edge"><title>Node1&#45;&gt;Node6</title>
<path fill="none" stroke="midnightblue" d="M71.4971,-122.497C88.3047,-111.301 111.792,-96.7844 134,-86.9437 141.35,-83.6866 149.225,-80.6953 157.123,-77.9933"/>
<polygon fill="midnightblue" stroke="midnightblue" points="69.2122,-119.817 62.8974,-128.324 73.1391,-125.612 69.2122,-119.817"/>
</g>
<!-- Node7 -->
<g id="node13" class="node"><title>Node7</title>
<a xlink:href="classTNamedElementBuilderTemplate.html" target="_top" xlink:title="TNamedElementBuilderTemplate\l\&lt; CVirtualSubsystem \&gt;">
<polygon fill="white" stroke="black" points="462.5,-17.9437 462.5,-51.9437 635.5,-51.9437 635.5,-17.9437 462.5,-17.9437"/>
<text text-anchor="start" x="470.5" y="-38.9437" font-family="Verdana" font-size="10.00">TNamedElementBuilderTemplate</text>
<text text-anchor="middle" x="549" y="-25.9437" font-family="Verdana" font-size="10.00">&lt; CVirtualSubsystem &gt;</text>
</a>
</g>
<!-- Node1&#45;&gt;Node7 -->
<g id="edge14" class="edge"><title>Node1&#45;&gt;Node7</title>
<path fill="none" stroke="midnightblue" d="M57.2848,-119.454C70.3984,-94.4947 96.9461,-52.3847 134,-34.9437 246.124,17.832 394.919,-0.309635 480.494,-17.8972"/>
<polygon fill="midnightblue" stroke="midnightblue" points="54.1565,-117.885 52.7796,-128.39 60.407,-121.036 54.1565,-117.885"/>
</g>
<!-- Node6&#45;&gt;Node7 -->
<g id="edge12" class="edge"><title>Node6&#45;&gt;Node7</title>
<path fill="none" stroke="orange" stroke-dasharray="5,2" d="M317.857,-53.266C363.708,-49.6314 418.023,-45.326 462.477,-41.8023"/>
<polygon fill="orange" stroke="orange" points="317.299,-49.7991 307.607,-54.0785 317.853,-56.7773 317.299,-49.7991"/>
<text text-anchor="middle" x="385" y="-55.9437" font-family="Verdana" font-size="10.00"> &lt; CVirtualSubsystem &gt;</text>
</g>
</g>
</svg>
