<?xml version="1.0" encoding="UTF-8" standalone="no"?>
<!DOCTYPE svg PUBLIC "-//W3C//DTD SVG 1.1//EN"
 "http://www.w3.org/Graphics/SVG/1.1/DTD/svg11.dtd">
<!-- Generated by graphviz version 2.26.3 (20100126.1600)
 -->
<!-- Title: CInstanceConfigurableElement::unsetSyncer Pages: 1 -->
<svg width="324pt" height="42pt"
 viewBox="0.00 0.00 324.00 42.00" xmlns="http://www.w3.org/2000/svg" xmlns:xlink="http://www.w3.org/1999/xlink">
<g id="graph1" class="graph" transform="scale(1 1) rotate(0) translate(4 38)">
<title>CInstanceConfigurableElement::unsetSyncer</title>
<polygon fill="white" stroke="white" points="-4,5 -4,-38 321,-38 321,5 -4,5"/>
<!-- Node1 -->
<g id="node1" class="node"><title>Node1</title>
<polygon fill="#bfbfbf" stroke="black" points="0,-0 0,-34 164,-34 164,-0 0,-0"/>
<text text-anchor="start" x="8" y="-21" font-family="Verdana" font-size="10.00">CInstanceConfigurableElement</text>
<text text-anchor="middle" x="82" y="-8" font-family="Verdana" font-size="10.00">::unsetSyncer</text>
</g>
<!-- Node2 -->
<g id="node3" class="node"><title>Node2</title>
<a xlink:href="classCSubsystemObject.html#a8978ae4a58f1d2f6871734c1610cf6c1" target="_top" xlink:title="CSubsystemObject::\l~CSubsystemObject">
<polygon fill="white" stroke="black" points="200,-0 200,-34 316,-34 316,-0 200,-0"/>
<text text-anchor="start" x="208" y="-21" font-family="Verdana" font-size="10.00">CSubsystemObject::</text>
<text text-anchor="middle" x="258" y="-8" font-family="Verdana" font-size="10.00">~CSubsystemObject</text>
</a>
</g>
<!-- Node1&#45;&gt;Node2 -->
<g id="edge2" class="edge"><title>Node1&#45;&gt;Node2</title>
<path fill="none" stroke="midnightblue" d="M174.297,-17C183.001,-17 191.649,-17 199.899,-17"/>
<polygon fill="midnightblue" stroke="midnightblue" points="174.074,-13.5001 164.074,-17 174.074,-20.5001 174.074,-13.5001"/>
</g>
</g>
</svg>
