<?xml version="1.0" encoding="UTF-8" standalone="no"?>
<!DOCTYPE svg PUBLIC "-//W3C//DTD SVG 1.1//EN"
 "http://www.w3.org/Graphics/SVG/1.1/DTD/svg11.dtd">
<!-- Generated by graphviz version 2.26.3 (20100126.1600)
 -->
<!-- Title: CParameterMgr::getConfigurableElement Pages: 1 -->
<svg width="568pt" height="140pt"
 viewBox="0.00 0.00 568.00 140.00" xmlns="http://www.w3.org/2000/svg" xmlns:xlink="http://www.w3.org/1999/xlink">
<g id="graph1" class="graph" transform="scale(1 1) rotate(0) translate(4 136)">
<title>CParameterMgr::getConfigurableElement</title>
<polygon fill="white" stroke="white" points="-4,5 -4,-136 565,-136 565,5 -4,5"/>
<!-- Node1 -->
<g id="node1" class="node"><title>Node1</title>
<polygon fill="#bfbfbf" stroke="black" points="0.5,-52 0.5,-86 173.5,-86 173.5,-52 0.5,-52"/>
<text text-anchor="start" x="8.5" y="-73" font-family="Verdana" font-size="10.00">CParameterMgr::getConfigurable</text>
<text text-anchor="middle" x="87" y="-60" font-family="Verdana" font-size="10.00">Element</text>
</g>
<!-- Node2 -->
<g id="node3" class="node"><title>Node2</title>
<a xlink:href="classCPathNavigator.html#ad588f1802ca5e196e96972273f36a80d" target="_top" xlink:title="CPathNavigator::navigate\lThrough">
<polygon fill="white" stroke="black" points="213,-98 213,-132 351,-132 351,-98 213,-98"/>
<text text-anchor="start" x="221" y="-119" font-family="Verdana" font-size="10.00">CPathNavigator::navigate</text>
<text text-anchor="middle" x="282" y="-106" font-family="Verdana" font-size="10.00">Through</text>
</a>
</g>
<!-- Node1&#45;&gt;Node2 -->
<g id="edge2" class="edge"><title>Node1&#45;&gt;Node2</title>
<path fill="none" stroke="midnightblue" d="M159.334,-86.0633C173.512,-89.408 188.453,-92.9325 202.841,-96.3266"/>
<polygon fill="midnightblue" stroke="midnightblue" points="202.161,-99.7622 212.697,-98.6517 203.768,-92.9492 202.161,-99.7622"/>
</g>
<!-- Node5 -->
<g id="node9" class="node"><title>Node5</title>
<a xlink:href="classCElement.html#a49581fb6412e29e932962acd82d52d6a" target="_top" xlink:title="CElement::getName">
<polygon fill="white" stroke="black" points="225,-58.5 225,-79.5 339,-79.5 339,-58.5 225,-58.5"/>
<text text-anchor="middle" x="282" y="-66.5" font-family="Verdana" font-size="10.00">CElement::getName</text>
</a>
</g>
<!-- Node1&#45;&gt;Node5 -->
<g id="edge8" class="edge"><title>Node1&#45;&gt;Node5</title>
<path fill="none" stroke="midnightblue" d="M173.665,-69C187.39,-69 201.405,-69 214.604,-69"/>
<polygon fill="midnightblue" stroke="midnightblue" points="214.993,-72.5001 224.993,-69 214.993,-65.5001 214.993,-72.5001"/>
</g>
<!-- Node6 -->
<g id="node11" class="node"><title>Node6</title>
<a xlink:href="classCElement.html#a182dcfb7ab154cc97cff047c5f5539f5" target="_top" xlink:title="CElement::findDescendant">
<polygon fill="white" stroke="black" points="210,-0.5 210,-21.5 354,-21.5 354,-0.5 210,-0.5"/>
<text text-anchor="middle" x="282" y="-8.5" font-family="Verdana" font-size="10.00">CElement::findDescendant</text>
</a>
</g>
<!-- Node1&#45;&gt;Node6 -->
<g id="edge10" class="edge"><title>Node1&#45;&gt;Node6</title>
<path fill="none" stroke="midnightblue" d="M144.189,-51.99C173.715,-43.2078 209.228,-32.6451 236.808,-24.4418"/>
<polygon fill="midnightblue" stroke="midnightblue" points="237.997,-27.7397 246.584,-21.534 236.001,-21.0302 237.997,-27.7397"/>
</g>
<!-- Node3 -->
<g id="node5" class="node"><title>Node3</title>
<a xlink:href="classCPathNavigator.html#a0fbd92beb48fdfb2041788cf77d44cf1" target="_top" xlink:title="CPathNavigator::getCurrentPath">
<polygon fill="white" stroke="black" points="390,-104.5 390,-125.5 560,-125.5 560,-104.5 390,-104.5"/>
<text text-anchor="middle" x="475" y="-112.5" font-family="Verdana" font-size="10.00">CPathNavigator::getCurrentPath</text>
</a>
</g>
<!-- Node2&#45;&gt;Node3 -->
<g id="edge4" class="edge"><title>Node2&#45;&gt;Node3</title>
<path fill="none" stroke="midnightblue" d="M351.132,-115C360.444,-115 370.127,-115 379.793,-115"/>
<polygon fill="midnightblue" stroke="midnightblue" points="379.843,-118.5 389.843,-115 379.843,-111.5 379.843,-118.5"/>
</g>
<!-- Node4 -->
<g id="node7" class="node"><title>Node4</title>
<a xlink:href="classCPathNavigator.html#a06f35d45c0bf392e11de0bf1197cc589" target="_top" xlink:title="CPathNavigator::next">
<polygon fill="white" stroke="black" points="416,-52.5 416,-73.5 534,-73.5 534,-52.5 416,-52.5"/>
<text text-anchor="middle" x="475" y="-60.5" font-family="Verdana" font-size="10.00">CPathNavigator::next</text>
</a>
</g>
<!-- Node2&#45;&gt;Node4 -->
<g id="edge6" class="edge"><title>Node2&#45;&gt;Node4</title>
<path fill="none" stroke="midnightblue" d="M345.195,-97.9733C371.477,-90.8922 401.515,-82.7991 426.072,-76.1828"/>
<polygon fill="midnightblue" stroke="midnightblue" points="427.14,-79.5197 435.885,-73.5386 425.319,-72.7607 427.14,-79.5197"/>
</g>
<!-- Node6&#45;&gt;Node4 -->
<g id="edge12" class="edge"><title>Node6&#45;&gt;Node4</title>
<path fill="none" stroke="midnightblue" d="M321.056,-21.523C351.402,-29.699 393.663,-41.0853 426.23,-49.8598"/>
<polygon fill="midnightblue" stroke="midnightblue" points="425.435,-53.2706 436.002,-52.4927 427.257,-46.5116 425.435,-53.2706"/>
</g>
<!-- Node6&#45;&gt;Node6 -->
<g id="edge16" class="edge"><title>Node6&#45;&gt;Node6</title>
<path fill="none" stroke="midnightblue" d="M251.493,-21.7079C238.456,-30.6531 248.625,-40 282,-40 304.424,-40 316.372,-35.7807 317.845,-30.2987"/>
<polygon fill="midnightblue" stroke="midnightblue" points="320.757,-28.3546 312.507,-21.7079 314.812,-32.049 320.757,-28.3546"/>
</g>
<!-- Node7 -->
<g id="node14" class="node"><title>Node7</title>
<a xlink:href="classCElement.html#a8595814a3159f32f874269907e70b260" target="_top" xlink:title="CElement::findChild">
<polygon fill="white" stroke="black" points="420,-0.5 420,-21.5 530,-21.5 530,-0.5 420,-0.5"/>
<text text-anchor="middle" x="475" y="-8.5" font-family="Verdana" font-size="10.00">CElement::findChild</text>
</a>
</g>
<!-- Node6&#45;&gt;Node7 -->
<g id="edge14" class="edge"><title>Node6&#45;&gt;Node7</title>
<path fill="none" stroke="midnightblue" d="M354.141,-11C372.394,-11 391.892,-11 409.782,-11"/>
<polygon fill="midnightblue" stroke="midnightblue" points="409.822,-14.5001 419.822,-11 409.822,-7.5001 409.822,-14.5001"/>
</g>
</g>
</svg>
