<?xml version="1.0" encoding="UTF-8" standalone="no"?>
<!DOCTYPE svg PUBLIC "-//W3C//DTD SVG 1.1//EN"
 "http://www.w3.org/Graphics/SVG/1.1/DTD/svg11.dtd">
<!-- Generated by graphviz version 2.26.3 (20100126.1600)
 -->
<!-- Title: CElement::computeStructureChecksum Pages: 1 -->
<svg width="308pt" height="60pt"
 viewBox="0.00 0.00 308.00 60.00" xmlns="http://www.w3.org/2000/svg" xmlns:xlink="http://www.w3.org/1999/xlink">
<g id="graph1" class="graph" transform="scale(1 1) rotate(0) translate(4 56)">
<title>CElement::computeStructureChecksum</title>
<polygon fill="white" stroke="white" points="-4,5 -4,-56 305,-56 305,5 -4,5"/>
<!-- Node1 -->
<g id="node1" class="node"><title>Node1</title>
<polygon fill="#bfbfbf" stroke="black" points="0.5,-0 0.5,-34 157.5,-34 157.5,-0 0.5,-0"/>
<text text-anchor="start" x="8.5" y="-21" font-family="Verdana" font-size="10.00">CElement::computeStructure</text>
<text text-anchor="middle" x="79" y="-8" font-family="Verdana" font-size="10.00">Checksum</text>
</g>
<!-- Node1&#45;&gt;Node1 -->
<g id="edge4" class="edge"><title>Node1&#45;&gt;Node1</title>
<path fill="none" stroke="midnightblue" d="M48.7997,-34.2878C43.6676,-43.5562 53.7344,-52 79,-52 94.3962,-52 104.149,-48.8645 108.257,-44.3176"/>
<polygon fill="midnightblue" stroke="midnightblue" points="111.748,-44.5716 109.2,-34.2878 104.779,-43.9161 111.748,-44.5716"/>
</g>
<!-- Node2 -->
<g id="node3" class="node"><title>Node2</title>
<a xlink:href="classCElement.html#aed2ca7f2a56dbf2edcd82167859535ee" target="_top" xlink:title="CElement::getKind">
<polygon fill="white" stroke="black" points="194.5,-6.5 194.5,-27.5 299.5,-27.5 299.5,-6.5 194.5,-6.5"/>
<text text-anchor="middle" x="247" y="-14.5" font-family="Verdana" font-size="10.00">CElement::getKind</text>
</a>
</g>
<!-- Node1&#45;&gt;Node2 -->
<g id="edge2" class="edge"><title>Node1&#45;&gt;Node2</title>
<path fill="none" stroke="midnightblue" d="M157.589,-17C166.551,-17 175.595,-17 184.311,-17"/>
<polygon fill="midnightblue" stroke="midnightblue" points="184.368,-20.5001 194.368,-17 184.368,-13.5001 184.368,-20.5001"/>
</g>
</g>
</svg>
