<?xml version="1.0" encoding="UTF-8" standalone="no"?>
<!DOCTYPE svg PUBLIC "-//W3C//DTD SVG 1.1//EN"
 "http://www.w3.org/Graphics/SVG/1.1/DTD/svg11.dtd">
<!-- Generated by graphviz version 2.26.3 (20100126.1600)
 -->
<!-- Title: CInstanceConfigurableElement::sync Pages: 1 -->
<svg width="592pt" height="122pt"
 viewBox="0.00 0.00 592.00 122.00" xmlns="http://www.w3.org/2000/svg" xmlns:xlink="http://www.w3.org/1999/xlink">
<g id="graph1" class="graph" transform="scale(1 1) rotate(0) translate(4 118)">
<title>CInstanceConfigurableElement::sync</title>
<polygon fill="white" stroke="white" points="-4,5 -4,-118 589,-118 589,5 -4,5"/>
<!-- Node1 -->
<g id="node1" class="node"><title>Node1</title>
<polygon fill="#bfbfbf" stroke="black" points="0,-40 0,-74 164,-74 164,-40 0,-40"/>
<text text-anchor="start" x="8" y="-61" font-family="Verdana" font-size="10.00">CInstanceConfigurableElement</text>
<text text-anchor="middle" x="82" y="-48" font-family="Verdana" font-size="10.00">::sync</text>
</g>
<!-- Node2 -->
<g id="node3" class="node"><title>Node2</title>
<a xlink:href="classCArrayParameter.html#a07b3af958a03b2295be159f69b22d42d" target="_top" xlink:title="CArrayParameter::accessValue">
<polygon fill="white" stroke="black" points="204,-92.5 204,-113.5 368,-113.5 368,-92.5 204,-92.5"/>
<text text-anchor="middle" x="286" y="-100.5" font-family="Verdana" font-size="10.00">CArrayParameter::accessValue</text>
</a>
</g>
<!-- Node1&#45;&gt;Node2 -->
<g id="edge2" class="edge"><title>Node1&#45;&gt;Node2</title>
<path fill="none" stroke="midnightblue" d="M167.703,-76.3253C192.187,-81.846 217.956,-87.6568 239.171,-92.4405"/>
<polygon fill="midnightblue" stroke="midnightblue" points="168.197,-72.8488 157.672,-74.0633 166.657,-79.6774 168.197,-72.8488"/>
</g>
<!-- Node3 -->
<g id="node5" class="node"><title>Node3</title>
<a xlink:href="classCBaseParameter.html#a2b425561e193a3d54e7225d896a3d39b" target="_top" xlink:title="CBaseParameter::accessAs\lString">
<polygon fill="white" stroke="black" points="211.5,-40 211.5,-74 360.5,-74 360.5,-40 211.5,-40"/>
<text text-anchor="start" x="219.5" y="-61" font-family="Verdana" font-size="10.00">CBaseParameter::accessAs</text>
<text text-anchor="middle" x="286" y="-48" font-family="Verdana" font-size="10.00">String</text>
</a>
</g>
<!-- Node1&#45;&gt;Node3 -->
<g id="edge4" class="edge"><title>Node1&#45;&gt;Node3</title>
<path fill="none" stroke="midnightblue" d="M174.414,-57C186.774,-57 199.323,-57 211.327,-57"/>
<polygon fill="midnightblue" stroke="midnightblue" points="174.093,-53.5001 164.093,-57 174.093,-60.5001 174.093,-53.5001"/>
</g>
<!-- Node5 -->
<g id="node9" class="node"><title>Node5</title>
<a xlink:href="classCBitParameter.html#a6f4d06e327fb0b816c08e383177a82fc" target="_top" xlink:title="CBitParameter::accessAsInteger">
<polygon fill="white" stroke="black" points="200.5,-0.5 200.5,-21.5 371.5,-21.5 371.5,-0.5 200.5,-0.5"/>
<text text-anchor="middle" x="286" y="-8.5" font-family="Verdana" font-size="10.00">CBitParameter::accessAsInteger</text>
</a>
</g>
<!-- Node1&#45;&gt;Node5 -->
<g id="edge8" class="edge"><title>Node1&#45;&gt;Node5</title>
<path fill="none" stroke="midnightblue" d="M167.703,-37.6747C192.187,-32.154 217.956,-26.3432 239.171,-21.5595"/>
<polygon fill="midnightblue" stroke="midnightblue" points="166.657,-34.3226 157.672,-39.9367 168.197,-41.1512 166.657,-34.3226"/>
</g>
<!-- Node4 -->
<g id="node7" class="node"><title>Node4</title>
<a xlink:href="classCBaseParameter.html#a4a9b3e3a2d1ea65a8dc7048559db8dc2" target="_top" xlink:title="CBaseParameter::accessValue">
<polygon fill="white" stroke="black" points="414.5,-46.5 414.5,-67.5 577.5,-67.5 577.5,-46.5 414.5,-46.5"/>
<text text-anchor="middle" x="496" y="-54.5" font-family="Verdana" font-size="10.00">CBaseParameter::accessValue</text>
</a>
</g>
<!-- Node3&#45;&gt;Node4 -->
<g id="edge6" class="edge"><title>Node3&#45;&gt;Node4</title>
<path fill="none" stroke="midnightblue" d="M370.977,-57C385.335,-57 400.212,-57 414.48,-57"/>
<polygon fill="midnightblue" stroke="midnightblue" points="370.629,-53.5001 360.629,-57 370.629,-60.5001 370.629,-53.5001"/>
</g>
<!-- Node6 -->
<g id="node11" class="node"><title>Node6</title>
<a xlink:href="classCBitParameter.html#a2e0ed93baec3479a9b92314818433a31" target="_top" xlink:title="Value access. ">
<polygon fill="white" stroke="black" points="408,-0.5 408,-21.5 584,-21.5 584,-0.5 408,-0.5"/>
<text text-anchor="middle" x="496" y="-8.5" font-family="Verdana" font-size="10.00">CBitParameter::accessAsBoolean</text>
</a>
</g>
<!-- Node5&#45;&gt;Node6 -->
<g id="edge10" class="edge"><title>Node5&#45;&gt;Node6</title>
<path fill="none" stroke="midnightblue" d="M381.833,-11C390.494,-11 399.239,-11 407.83,-11"/>
<polygon fill="midnightblue" stroke="midnightblue" points="381.718,-7.5001 371.718,-11 381.718,-14.5001 381.718,-7.5001"/>
</g>
</g>
</svg>
