<?xml version="1.0" encoding="UTF-8" standalone="no"?>
<!DOCTYPE svg PUBLIC "-//W3C//DTD SVG 1.1//EN"
 "http://www.w3.org/Graphics/SVG/1.1/DTD/svg11.dtd">
<!-- Generated by graphviz version 2.26.3 (20100126.1600)
 -->
<!-- Title: CParameterType::getSize Pages: 1 -->
<svg width="518pt" height="408pt"
 viewBox="0.00 0.00 518.00 408.11" xmlns="http://www.w3.org/2000/svg" xmlns:xlink="http://www.w3.org/1999/xlink">
<g id="graph1" class="graph" transform="scale(1 1) rotate(0) translate(4 404.109)">
<title>CParameterType::getSize</title>
<polygon fill="white" stroke="white" points="-4,5 -4,-404.109 515,-404.109 515,5 -4,5"/>
<!-- Node1 -->
<g id="node1" class="node"><title>Node1</title>
<polygon fill="#bfbfbf" stroke="black" points="0.5,-178.5 0.5,-199.5 137.5,-199.5 137.5,-178.5 0.5,-178.5"/>
<text text-anchor="middle" x="69" y="-186.5" font-family="Verdana" font-size="10.00">CParameterType::getSize</text>
</g>
<!-- Node2 -->
<g id="node3" class="node"><title>Node2</title>
<a xlink:href="classCEnumParameterType.html#a0bd3061022ff86f0a244575b89ab8a48" target="_top" xlink:title="CEnumParameterType\l::fromBlackboard">
<polygon fill="white" stroke="black" points="388,-203 388,-237 510,-237 510,-203 388,-203"/>
<text text-anchor="start" x="396" y="-224" font-family="Verdana" font-size="10.00">CEnumParameterType</text>
<text text-anchor="middle" x="449" y="-211" font-family="Verdana" font-size="10.00">::fromBlackboard</text>
</a>
</g>
<!-- Node1&#45;&gt;Node2 -->
<g id="edge2" class="edge"><title>Node1&#45;&gt;Node2</title>
<path fill="none" stroke="midnightblue" d="M73.7447,-209.761C84.0821,-249.532 112.787,-335.646 174,-371 242.506,-410.567 282.57,-408.921 352,-371 405.05,-342.026 433.401,-270.249 444.022,-237.182"/>
<polygon fill="midnightblue" stroke="midnightblue" points="77.0944,-208.726 71.3043,-199.853 70.2976,-210.4 77.0944,-208.726"/>
</g>
<!-- Node3 -->
<g id="node5" class="node"><title>Node3</title>
<a xlink:href="classCEnumParameterType.html#a657fc941f16df1059a7f1377aa85b258" target="_top" xlink:title="CEnumParameterType\l::toXml">
<polygon fill="white" stroke="black" points="202,-328 202,-362 324,-362 324,-328 202,-328"/>
<text text-anchor="start" x="210" y="-349" font-family="Verdana" font-size="10.00">CEnumParameterType</text>
<text text-anchor="middle" x="263" y="-336" font-family="Verdana" font-size="10.00">::toXml</text>
</a>
</g>
<!-- Node1&#45;&gt;Node3 -->
<g id="edge4" class="edge"><title>Node1&#45;&gt;Node3</title>
<path fill="none" stroke="midnightblue" d="M79.5872,-208.582C96.0229,-237.13 130.376,-289.93 174,-319 182.439,-324.624 192.115,-329.054 201.907,-332.538"/>
<polygon fill="midnightblue" stroke="midnightblue" points="82.4796,-206.584 74.5351,-199.575 76.3744,-210.009 82.4796,-206.584"/>
</g>
<!-- Node4 -->
<g id="node7" class="node"><title>Node4</title>
<a xlink:href="classCFixedPointParameterType.html#a915d48511911653dc8ddf03cf39dc0ec" target="_top" xlink:title="CFixedPointParameterType\l::fromBlackboard">
<polygon fill="white" stroke="black" points="191.5,-276 191.5,-310 334.5,-310 334.5,-276 191.5,-276"/>
<text text-anchor="start" x="199.5" y="-297" font-family="Verdana" font-size="10.00">CFixedPointParameterType</text>
<text text-anchor="middle" x="263" y="-284" font-family="Verdana" font-size="10.00">::fromBlackboard</text>
</a>
</g>
<!-- Node1&#45;&gt;Node4 -->
<g id="edge6" class="edge"><title>Node1&#45;&gt;Node4</title>
<path fill="none" stroke="midnightblue" d="M87.8555,-206.291C107.879,-223.826 141.119,-250.645 174,-267 180.63,-270.298 187.751,-273.25 194.972,-275.874"/>
<polygon fill="midnightblue" stroke="midnightblue" points="90.1632,-203.659 80.3672,-199.623 85.5082,-208.887 90.1632,-203.659"/>
</g>
<!-- Node5 -->
<g id="node9" class="node"><title>Node5</title>
<a xlink:href="classCFixedPointParameterType.html#ac9e0de762e60d0cfce00122bdbef137e" target="_top" xlink:title="CFixedPointParameterType\l::toXml">
<polygon fill="white" stroke="black" points="191.5,-224 191.5,-258 334.5,-258 334.5,-224 191.5,-224"/>
<text text-anchor="start" x="199.5" y="-245" font-family="Verdana" font-size="10.00">CFixedPointParameterType</text>
<text text-anchor="middle" x="263" y="-232" font-family="Verdana" font-size="10.00">::toXml</text>
</a>
</g>
<!-- Node1&#45;&gt;Node5 -->
<g id="edge8" class="edge"><title>Node1&#45;&gt;Node5</title>
<path fill="none" stroke="midnightblue" d="M118.113,-202.164C142.774,-208.774 172.946,-216.862 199.36,-223.942"/>
<polygon fill="midnightblue" stroke="midnightblue" points="118.824,-198.731 108.259,-199.523 117.012,-205.493 118.824,-198.731"/>
</g>
<!-- Node6 -->
<g id="node11" class="node"><title>Node6</title>
<a xlink:href="classCIntegerParameterType.html#a20f5eb6c8e4cea3d1f0ccdb92e1d008c" target="_top" xlink:title="CIntegerParameterType\l::fromBlackboard">
<polygon fill="white" stroke="black" points="199,-172 199,-206 327,-206 327,-172 199,-172"/>
<text text-anchor="start" x="207" y="-193" font-family="Verdana" font-size="10.00">CIntegerParameterType</text>
<text text-anchor="middle" x="263" y="-180" font-family="Verdana" font-size="10.00">::fromBlackboard</text>
</a>
</g>
<!-- Node1&#45;&gt;Node6 -->
<g id="edge10" class="edge"><title>Node1&#45;&gt;Node6</title>
<path fill="none" stroke="midnightblue" d="M148.091,-189C165.016,-189 182.693,-189 198.966,-189"/>
<polygon fill="midnightblue" stroke="midnightblue" points="147.67,-185.5 137.67,-189 147.67,-192.5 147.67,-185.5"/>
</g>
<!-- Node7 -->
<g id="node13" class="node"><title>Node7</title>
<a xlink:href="classCIntegerParameterType.html#a26c10292fad5a8e6603dc0673f813d69" target="_top" xlink:title="CIntegerParameterType\l::toXml">
<polygon fill="white" stroke="black" points="199,-120 199,-154 327,-154 327,-120 199,-120"/>
<text text-anchor="start" x="207" y="-141" font-family="Verdana" font-size="10.00">CIntegerParameterType</text>
<text text-anchor="middle" x="263" y="-128" font-family="Verdana" font-size="10.00">::toXml</text>
</a>
</g>
<!-- Node1&#45;&gt;Node7 -->
<g id="edge12" class="edge"><title>Node1&#45;&gt;Node7</title>
<path fill="none" stroke="midnightblue" d="M118.113,-175.836C142.774,-169.226 172.946,-161.138 199.36,-154.058"/>
<polygon fill="midnightblue" stroke="midnightblue" points="117.012,-172.507 108.259,-178.477 118.824,-179.269 117.012,-172.507"/>
</g>
<!-- Node8 -->
<g id="node15" class="node"><title>Node8</title>
<a xlink:href="classCParameterType.html#aa7af90f44722bc279f98bcc94f7f69c0" target="_top" xlink:title="CParameterType::showProperties">
<polygon fill="white" stroke="black" points="176.5,-80.5 176.5,-101.5 349.5,-101.5 349.5,-80.5 176.5,-80.5"/>
<text text-anchor="middle" x="263" y="-88.5" font-family="Verdana" font-size="10.00">CParameterType::showProperties</text>
</a>
</g>
<!-- Node1&#45;&gt;Node8 -->
<g id="edge14" class="edge"><title>Node1&#45;&gt;Node8</title>
<path fill="none" stroke="midnightblue" d="M87.3294,-171.574C107.151,-153.698 140.437,-126.392 174,-111 182.349,-107.171 191.484,-104.051 200.619,-101.514"/>
<polygon fill="midnightblue" stroke="midnightblue" points="84.9303,-169.025 79.9378,-178.37 89.6681,-174.178 84.9303,-169.025"/>
</g>
<!-- Node9 -->
<g id="node17" class="node"><title>Node9</title>
<a xlink:href="classCParameterType.html#a5fe8903d0958345169b3ad4c0534ecf4" target="_top" xlink:title="CParameterType::makeEncodable">
<polygon fill="white" stroke="black" points="174.5,-40.5 174.5,-61.5 351.5,-61.5 351.5,-40.5 174.5,-40.5"/>
<text text-anchor="middle" x="263" y="-48.5" font-family="Verdana" font-size="10.00">CParameterType::makeEncodable</text>
</a>
</g>
<!-- Node1&#45;&gt;Node9 -->
<g id="edge16" class="edge"><title>Node1&#45;&gt;Node9</title>
<path fill="none" stroke="midnightblue" d="M80.8104,-169.368C97.9036,-142.738 132.124,-95.6678 174,-71 180.55,-67.1418 187.772,-64.0273 195.185,-61.5133"/>
<polygon fill="midnightblue" stroke="midnightblue" points="77.638,-167.84 75.3053,-178.175 83.5738,-171.55 77.638,-167.84"/>
</g>
<!-- Node10 -->
<g id="node20" class="node"><title>Node10</title>
<a xlink:href="classCParameterType.html#ae849a293ebb5b314db89e5f93fec3693" target="_top" xlink:title="Compute max value according to the parameter type. ">
<polygon fill="white" stroke="black" points="182,-0.5 182,-21.5 344,-21.5 344,-0.5 182,-0.5"/>
<text text-anchor="middle" x="263" y="-8.5" font-family="Verdana" font-size="10.00">CParameterType::getMaxValue</text>
</a>
</g>
<!-- Node1&#45;&gt;Node10 -->
<g id="edge20" class="edge"><title>Node1&#45;&gt;Node10</title>
<path fill="none" stroke="midnightblue" d="M76.5818,-168.686C90.4149,-134.559 123.1,-66.0213 174,-31 179.48,-27.2298 185.557,-24.1583 191.888,-21.6579"/>
<polygon fill="midnightblue" stroke="midnightblue" points="73.2837,-167.51 72.8947,-178.098 79.8014,-170.063 73.2837,-167.51"/>
</g>
<!-- Node9&#45;&gt;Node2 -->
<g id="edge18" class="edge"><title>Node9&#45;&gt;Node2</title>
<path fill="none" stroke="midnightblue" d="M343.398,-65.8201C346.387,-67.3807 349.269,-69.102 352,-71 400.411,-104.647 430.579,-171.028 442.778,-202.568"/>
<polygon fill="midnightblue" stroke="midnightblue" points="344.7,-62.5673 334.149,-61.6036 341.796,-68.9366 344.7,-62.5673"/>
</g>
</g>
</svg>
