<?xml version="1.0" encoding="UTF-8" standalone="no"?>
<!DOCTYPE svg PUBLIC "-//W3C//DTD SVG 1.1//EN"
 "http://www.w3.org/Graphics/SVG/1.1/DTD/svg11.dtd">
<!-- Generated by graphviz version 2.26.3 (20100126.1600)
 -->
<!-- Title: CRuleParser::grabRootRule Pages: 1 -->
<svg width="854pt" height="42pt"
 viewBox="0.00 0.00 854.00 42.00" xmlns="http://www.w3.org/2000/svg" xmlns:xlink="http://www.w3.org/1999/xlink">
<g id="graph1" class="graph" transform="scale(1 1) rotate(0) translate(4 38)">
<title>CRuleParser::grabRootRule</title>
<polygon fill="white" stroke="white" points="-4,5 -4,-38 851,-38 851,5 -4,5"/>
<!-- Node1 -->
<g id="node1" class="node"><title>Node1</title>
<polygon fill="#bfbfbf" stroke="black" points="0.5,-6.5 0.5,-27.5 141.5,-27.5 141.5,-6.5 0.5,-6.5"/>
<text text-anchor="middle" x="71" y="-14.5" font-family="Verdana" font-size="10.00">CRuleParser::grabRootRule</text>
</g>
<!-- Node2 -->
<g id="node3" class="node"><title>Node2</title>
<a xlink:href="classCDomainConfiguration.html#a3b12c8d561b1e468bd03214326bdf450" target="_top" xlink:title="CDomainConfiguration\l::setApplicationRule">
<polygon fill="white" stroke="black" points="178.5,-0 178.5,-34 303.5,-34 303.5,-0 178.5,-0"/>
<text text-anchor="start" x="186.5" y="-21" font-family="Verdana" font-size="10.00">CDomainConfiguration</text>
<text text-anchor="middle" x="241" y="-8" font-family="Verdana" font-size="10.00">::setApplicationRule</text>
</a>
</g>
<!-- Node1&#45;&gt;Node2 -->
<g id="edge2" class="edge"><title>Node1&#45;&gt;Node2</title>
<path fill="none" stroke="midnightblue" d="M151.716,-17C160.703,-17 169.754,-17 178.466,-17"/>
<polygon fill="midnightblue" stroke="midnightblue" points="151.618,-13.5001 141.618,-17 151.618,-20.5001 151.618,-13.5001"/>
</g>
<!-- Node3 -->
<g id="node5" class="node"><title>Node3</title>
<a xlink:href="classCConfigurableDomain.html#ab28e6a66ae7197d4fa131193f32891f4" target="_top" xlink:title="CConfigurableDomain\l::setApplicationRule">
<polygon fill="white" stroke="black" points="340.5,-0 340.5,-34 461.5,-34 461.5,-0 340.5,-0"/>
<text text-anchor="start" x="348.5" y="-21" font-family="Verdana" font-size="10.00">CConfigurableDomain</text>
<text text-anchor="middle" x="401" y="-8" font-family="Verdana" font-size="10.00">::setApplicationRule</text>
</a>
</g>
<!-- Node2&#45;&gt;Node3 -->
<g id="edge4" class="edge"><title>Node2&#45;&gt;Node3</title>
<path fill="none" stroke="midnightblue" d="M313.787,-17C322.72,-17 331.774,-17 340.498,-17"/>
<polygon fill="midnightblue" stroke="midnightblue" points="313.777,-13.5001 303.777,-17 313.777,-20.5001 313.777,-13.5001"/>
</g>
<!-- Node4 -->
<g id="node7" class="node"><title>Node4</title>
<a xlink:href="classCConfigurableDomains.html#ac2b2354eecc80c7ca4a71fe2f40606ed" target="_top" xlink:title="CConfigurableDomains\l::setApplicationRule">
<polygon fill="white" stroke="black" points="498,-0 498,-34 624,-34 624,-0 498,-0"/>
<text text-anchor="start" x="506" y="-21" font-family="Verdana" font-size="10.00">CConfigurableDomains</text>
<text text-anchor="middle" x="561" y="-8" font-family="Verdana" font-size="10.00">::setApplicationRule</text>
</a>
</g>
<!-- Node3&#45;&gt;Node4 -->
<g id="edge6" class="edge"><title>Node3&#45;&gt;Node4</title>
<path fill="none" stroke="midnightblue" d="M471.97,-17C480.585,-17 489.341,-17 497.833,-17"/>
<polygon fill="midnightblue" stroke="midnightblue" points="471.946,-13.5001 461.946,-17 471.946,-20.5001 471.946,-13.5001"/>
</g>
<!-- Node5 -->
<g id="node9" class="node"><title>Node5</title>
<a xlink:href="classCParameterMgr.html#af63f9ad7f792b2bf226afd791c1db70e" target="_top" xlink:title="CParameterMgr::setApplicationRule">
<polygon fill="white" stroke="black" points="660.5,-6.5 660.5,-27.5 845.5,-27.5 845.5,-6.5 660.5,-6.5"/>
<text text-anchor="middle" x="753" y="-14.5" font-family="Verdana" font-size="10.00">CParameterMgr::setApplicationRule</text>
</a>
</g>
<!-- Node4&#45;&gt;Node5 -->
<g id="edge8" class="edge"><title>Node4&#45;&gt;Node5</title>
<path fill="none" stroke="midnightblue" d="M634.344,-17C642.831,-17 651.57,-17 660.272,-17"/>
<polygon fill="midnightblue" stroke="midnightblue" points="634.134,-13.5001 624.134,-17 634.134,-20.5001 634.134,-13.5001"/>
</g>
</g>
</svg>
