<?xml version="1.0" encoding="UTF-8" standalone="no"?>
<!DOCTYPE svg PUBLIC "-//W3C//DTD SVG 1.1//EN"
 "http://www.w3.org/Graphics/SVG/1.1/DTD/svg11.dtd">
<!-- Generated by graphviz version 2.26.3 (20100126.1600)
 -->
<!-- Title: CParameterMgr::createSelectionCriterion Pages: 1 -->
<svg width="700pt" height="94pt"
 viewBox="0.00 0.00 700.00 94.00" xmlns="http://www.w3.org/2000/svg" xmlns:xlink="http://www.w3.org/1999/xlink">
<g id="graph1" class="graph" transform="scale(1 1) rotate(0) translate(4 90)">
<title>CParameterMgr::createSelectionCriterion</title>
<polygon fill="white" stroke="white" points="-4,5 -4,-90 697,-90 697,5 -4,5"/>
<!-- Node1 -->
<g id="node1" class="node"><title>Node1</title>
<polygon fill="#bfbfbf" stroke="black" points="0.5,-26 0.5,-60 173.5,-60 173.5,-26 0.5,-26"/>
<text text-anchor="start" x="8.5" y="-47" font-family="Verdana" font-size="10.00">CParameterMgr::createSelection</text>
<text text-anchor="middle" x="87" y="-34" font-family="Verdana" font-size="10.00">Criterion</text>
</g>
<!-- Node2 -->
<g id="node3" class="node"><title>Node2</title>
<a xlink:href="classCSelectionCriteria.html#af0f5289db594b0d2633c59cf8570fa50" target="_top" xlink:title="CSelectionCriteria\l::createSelectionCriterion">
<polygon fill="white" stroke="black" points="210,-26 210,-60 348,-60 348,-26 210,-26"/>
<text text-anchor="start" x="218" y="-47" font-family="Verdana" font-size="10.00">CSelectionCriteria</text>
<text text-anchor="middle" x="279" y="-34" font-family="Verdana" font-size="10.00">::createSelectionCriterion</text>
</a>
</g>
<!-- Node1&#45;&gt;Node2 -->
<g id="edge2" class="edge"><title>Node1&#45;&gt;Node2</title>
<path fill="none" stroke="midnightblue" d="M173.732,-43C182.446,-43 191.263,-43 199.892,-43"/>
<polygon fill="midnightblue" stroke="midnightblue" points="199.918,-46.5001 209.918,-43 199.918,-39.5001 199.918,-46.5001"/>
</g>
<!-- Node3 -->
<g id="node5" class="node"><title>Node3</title>
<a xlink:href="classCSelectionCriteria.html#aa87e3488047e305e72d84d5aa0ed3e08" target="_top" xlink:title="CSelectionCriteria\l::getSelectionCriteriaDefinition">
<polygon fill="white" stroke="black" points="384,-52 384,-86 546,-86 546,-52 384,-52"/>
<text text-anchor="start" x="392" y="-73" font-family="Verdana" font-size="10.00">CSelectionCriteria</text>
<text text-anchor="middle" x="465" y="-60" font-family="Verdana" font-size="10.00">::getSelectionCriteriaDefinition</text>
</a>
</g>
<!-- Node2&#45;&gt;Node3 -->
<g id="edge4" class="edge"><title>Node2&#45;&gt;Node3</title>
<path fill="none" stroke="midnightblue" d="M348.26,-52.6814C356.574,-53.8437 365.16,-55.0439 373.726,-56.2413"/>
<polygon fill="midnightblue" stroke="midnightblue" points="373.368,-59.7251 383.756,-57.6433 374.337,-52.7925 373.368,-59.7251"/>
</g>
<!-- Node5 -->
<g id="node9" class="node"><title>Node5</title>
<a xlink:href="classCSelectionCriteriaDefinition.html#ad6447026bd630fa502212eeb6f419146" target="_top" xlink:title="CSelectionCriteriaDefinition\l::createSelectionCriterion">
<polygon fill="white" stroke="black" points="391.5,-0 391.5,-34 538.5,-34 538.5,-0 391.5,-0"/>
<text text-anchor="start" x="399.5" y="-21" font-family="Verdana" font-size="10.00">CSelectionCriteriaDefinition</text>
<text text-anchor="middle" x="465" y="-8" font-family="Verdana" font-size="10.00">::createSelectionCriterion</text>
</a>
</g>
<!-- Node2&#45;&gt;Node5 -->
<g id="edge8" class="edge"><title>Node2&#45;&gt;Node5</title>
<path fill="none" stroke="midnightblue" d="M348.26,-33.3186C359.014,-31.8152 370.223,-30.2484 381.256,-28.7062"/>
<polygon fill="midnightblue" stroke="midnightblue" points="381.902,-32.15 391.321,-27.2992 380.933,-25.2174 381.902,-32.15"/>
</g>
<!-- Node4 -->
<g id="node7" class="node"><title>Node4</title>
<a xlink:href="classCElement.html#a41bf126c3fdbb5bec0c2c3dcf35e9079" target="_top" xlink:title="CElement::getChild">
<polygon fill="white" stroke="black" points="583,-58.5 583,-79.5 691,-79.5 691,-58.5 583,-58.5"/>
<text text-anchor="middle" x="637" y="-66.5" font-family="Verdana" font-size="10.00">CElement::getChild</text>
</a>
</g>
<!-- Node3&#45;&gt;Node4 -->
<g id="edge6" class="edge"><title>Node3&#45;&gt;Node4</title>
<path fill="none" stroke="midnightblue" d="M546.215,-69C554.996,-69 563.844,-69 572.391,-69"/>
<polygon fill="midnightblue" stroke="midnightblue" points="572.642,-72.5001 582.642,-69 572.642,-65.5001 572.642,-72.5001"/>
</g>
<!-- Node6 -->
<g id="node11" class="node"><title>Node6</title>
<a xlink:href="classCElement.html#ac2ad66ee438a4a0c1390b7388874fe72" target="_top" xlink:title="CElement::addChild">
<polygon fill="white" stroke="black" points="582,-6.5 582,-27.5 692,-27.5 692,-6.5 582,-6.5"/>
<text text-anchor="middle" x="637" y="-14.5" font-family="Verdana" font-size="10.00">CElement::addChild</text>
</a>
</g>
<!-- Node5&#45;&gt;Node6 -->
<g id="edge10" class="edge"><title>Node5&#45;&gt;Node6</title>
<path fill="none" stroke="midnightblue" d="M538.942,-17C549.844,-17 561.009,-17 571.719,-17"/>
<polygon fill="midnightblue" stroke="midnightblue" points="571.824,-20.5001 581.824,-17 571.824,-13.5001 571.824,-20.5001"/>
</g>
</g>
</svg>
