<?xml version="1.0" encoding="UTF-8" standalone="no"?>
<!DOCTYPE svg PUBLIC "-//W3C//DTD SVG 1.1//EN"
 "http://www.w3.org/Graphics/SVG/1.1/DTD/svg11.dtd">
<!-- Generated by graphviz version 2.26.3 (20100126.1600)
 -->
<!-- Title: CSelectionCriterionType::addValuePair Pages: 1 -->
<svg width="300pt" height="70pt"
 viewBox="0.00 0.00 300.00 70.00" xmlns="http://www.w3.org/2000/svg" xmlns:xlink="http://www.w3.org/1999/xlink">
<g id="graph1" class="graph" transform="scale(1 1) rotate(0) translate(4 66)">
<title>CSelectionCriterionType::addValuePair</title>
<polygon fill="white" stroke="white" points="-4,5 -4,-66 297,-66 297,5 -4,5"/>
<!-- Node1 -->
<g id="node1" class="node"><title>Node1</title>
<polygon fill="#bfbfbf" stroke="black" points="0.5,-14 0.5,-48 129.5,-48 129.5,-14 0.5,-14"/>
<text text-anchor="start" x="8.5" y="-35" font-family="Verdana" font-size="10.00">CSelectionCriterionType</text>
<text text-anchor="middle" x="65" y="-22" font-family="Verdana" font-size="10.00">::addValuePair</text>
</g>
<!-- Node2 -->
<g id="node3" class="node"><title>Node2</title>
<a xlink:href="classCElement.html#ab25bfe67bc33d21f561d69b9c705ca75" target="_top" xlink:title="CElement::log_warning">
<polygon fill="white" stroke="black" points="166.5,-40.5 166.5,-61.5 291.5,-61.5 291.5,-40.5 166.5,-40.5"/>
<text text-anchor="middle" x="229" y="-48.5" font-family="Verdana" font-size="10.00">CElement::log_warning</text>
</a>
</g>
<!-- Node1&#45;&gt;Node2 -->
<g id="edge2" class="edge"><title>Node1&#45;&gt;Node2</title>
<path fill="none" stroke="midnightblue" d="M129.817,-38.9045C138.44,-39.9561 147.329,-41.0401 156.078,-42.1071"/>
<polygon fill="midnightblue" stroke="midnightblue" points="155.91,-45.6124 166.26,-43.3488 156.757,-38.6639 155.91,-45.6124"/>
</g>
<!-- Node3 -->
<g id="node5" class="node"><title>Node3</title>
<a xlink:href="classCElement.html#a49581fb6412e29e932962acd82d52d6a" target="_top" xlink:title="CElement::getName">
<polygon fill="white" stroke="black" points="172,-0.5 172,-21.5 286,-21.5 286,-0.5 172,-0.5"/>
<text text-anchor="middle" x="229" y="-8.5" font-family="Verdana" font-size="10.00">CElement::getName</text>
</a>
</g>
<!-- Node1&#45;&gt;Node3 -->
<g id="edge4" class="edge"><title>Node1&#45;&gt;Node3</title>
<path fill="none" stroke="midnightblue" d="M129.817,-23.0955C140.334,-21.813 151.245,-20.4823 161.817,-19.1931"/>
<polygon fill="midnightblue" stroke="midnightblue" points="162.321,-22.6575 171.824,-17.9727 161.474,-15.709 162.321,-22.6575"/>
</g>
</g>
</svg>
