<?xml version="1.0" encoding="UTF-8" standalone="no"?>
<!DOCTYPE svg PUBLIC "-//W3C//DTD SVG 1.1//EN"
 "http://www.w3.org/Graphics/SVG/1.1/DTD/svg11.dtd">
<!-- Generated by graphviz version 2.26.3 (20100126.1600)
 -->
<!-- Title: CConfigurableElement::getFootprintAsString Pages: 1 -->
<svg width="466pt" height="114pt"
 viewBox="0.00 0.00 466.00 114.00" xmlns="http://www.w3.org/2000/svg" xmlns:xlink="http://www.w3.org/1999/xlink">
<g id="graph1" class="graph" transform="scale(1 1) rotate(0) translate(4 110)">
<title>CConfigurableElement::getFootprintAsString</title>
<polygon fill="white" stroke="white" points="-4,5 -4,-110 463,-110 463,5 -4,5"/>
<!-- Node1 -->
<g id="node1" class="node"><title>Node1</title>
<polygon fill="#bfbfbf" stroke="black" points="0.5,-46 0.5,-80 123.5,-80 123.5,-46 0.5,-46"/>
<text text-anchor="start" x="8.5" y="-67" font-family="Verdana" font-size="10.00">CConfigurableElement</text>
<text text-anchor="middle" x="62" y="-54" font-family="Verdana" font-size="10.00">::getFootprintAsString</text>
</g>
<!-- Node2 -->
<g id="node3" class="node"><title>Node2</title>
<a xlink:href="classCElement.html#aacdd6d54c10cd1494a820d78be779362" target="_top" xlink:title="CElement::toString">
<polygon fill="white" stroke="black" points="168.5,-84.5 168.5,-105.5 275.5,-105.5 275.5,-84.5 168.5,-84.5"/>
<text text-anchor="middle" x="222" y="-92.5" font-family="Verdana" font-size="10.00">CElement::toString</text>
</a>
</g>
<!-- Node1&#45;&gt;Node2 -->
<g id="edge2" class="edge"><title>Node1&#45;&gt;Node2</title>
<path fill="none" stroke="midnightblue" d="M123.86,-75.372C135.491,-77.6981 147.661,-80.1322 159.316,-82.4632"/>
<polygon fill="midnightblue" stroke="midnightblue" points="158.907,-85.9507 169.4,-84.4799 160.28,-79.0867 158.907,-85.9507"/>
</g>
<!-- Node3 -->
<g id="node5" class="node"><title>Node3</title>
<a xlink:href="classCConfigurableElement.html#a6bc3e14e1da435b74e38ea3e95a31e62" target="_top" xlink:title="CConfigurableElement\l::getFootPrint">
<polygon fill="white" stroke="black" points="160.5,-14 160.5,-48 283.5,-48 283.5,-14 160.5,-14"/>
<text text-anchor="start" x="168.5" y="-35" font-family="Verdana" font-size="10.00">CConfigurableElement</text>
<text text-anchor="middle" x="222" y="-22" font-family="Verdana" font-size="10.00">::getFootPrint</text>
</a>
</g>
<!-- Node1&#45;&gt;Node3 -->
<g id="edge4" class="edge"><title>Node1&#45;&gt;Node3</title>
<path fill="none" stroke="midnightblue" d="M123.86,-50.628C132.549,-48.8901 141.54,-47.092 150.392,-45.3215"/>
<polygon fill="midnightblue" stroke="midnightblue" points="151.185,-48.7324 160.304,-43.3391 149.812,-41.8683 151.185,-48.7324"/>
</g>
<!-- Node3&#45;&gt;Node3 -->
<g id="edge10" class="edge"><title>Node3&#45;&gt;Node3</title>
<path fill="none" stroke="midnightblue" d="M193.238,-48.2878C188.35,-57.5562 197.938,-66 222,-66 236.663,-66 245.951,-62.8645 249.864,-58.3176"/>
<polygon fill="midnightblue" stroke="midnightblue" points="253.356,-58.5602 250.762,-48.2878 246.384,-57.9356 253.356,-58.5602"/>
</g>
<!-- Node4 -->
<g id="node7" class="node"><title>Node4</title>
<a xlink:href="classCElement.html#a25f58d9d8b35e770806d669fb2a378e4" target="_top" xlink:title="CElement::getNbChildren">
<polygon fill="white" stroke="black" points="320.5,-40.5 320.5,-61.5 457.5,-61.5 457.5,-40.5 320.5,-40.5"/>
<text text-anchor="middle" x="389" y="-48.5" font-family="Verdana" font-size="10.00">CElement::getNbChildren</text>
</a>
</g>
<!-- Node3&#45;&gt;Node4 -->
<g id="edge6" class="edge"><title>Node3&#45;&gt;Node4</title>
<path fill="none" stroke="midnightblue" d="M283.71,-38.3904C292.351,-39.4253 301.327,-40.5002 310.231,-41.5666"/>
<polygon fill="midnightblue" stroke="midnightblue" points="309.886,-45.0502 320.231,-42.7642 310.718,-38.0998 309.886,-45.0502"/>
</g>
<!-- Node5 -->
<g id="node9" class="node"><title>Node5</title>
<a xlink:href="classCElement.html#a41bf126c3fdbb5bec0c2c3dcf35e9079" target="_top" xlink:title="CElement::getChild">
<polygon fill="white" stroke="black" points="335,-0.5 335,-21.5 443,-21.5 443,-0.5 335,-0.5"/>
<text text-anchor="middle" x="389" y="-8.5" font-family="Verdana" font-size="10.00">CElement::getChild</text>
</a>
</g>
<!-- Node3&#45;&gt;Node5 -->
<g id="edge8" class="edge"><title>Node3&#45;&gt;Node5</title>
<path fill="none" stroke="midnightblue" d="M283.71,-23.6096C297.112,-22.0046 311.318,-20.3032 324.813,-18.6871"/>
<polygon fill="midnightblue" stroke="midnightblue" points="325.455,-22.1352 334.968,-17.4709 324.623,-15.1849 325.455,-22.1352"/>
</g>
</g>
</svg>
