<?xml version="1.0" encoding="UTF-8" standalone="no"?>
<!DOCTYPE svg PUBLIC "-//W3C//DTD SVG 1.1//EN"
 "http://www.w3.org/Graphics/SVG/1.1/DTD/svg11.dtd">
<!-- Generated by graphviz version 2.26.3 (20100126.1600)
 -->
<!-- Title: CConfigurationAccessContext::serializeOut Pages: 1 -->
<svg width="512pt" height="240pt"
 viewBox="0.00 0.00 512.00 240.06" xmlns="http://www.w3.org/2000/svg" xmlns:xlink="http://www.w3.org/1999/xlink">
<g id="graph1" class="graph" transform="scale(1 1) rotate(0) translate(4 236.063)">
<title>CConfigurationAccessContext::serializeOut</title>
<polygon fill="white" stroke="white" points="-4,5 -4,-236.063 509,-236.063 509,5 -4,5"/>
<!-- Node1 -->
<g id="node1" class="node"><title>Node1</title>
<polygon fill="#bfbfbf" stroke="black" points="0,-122 0,-156 158,-156 158,-122 0,-122"/>
<text text-anchor="start" x="8" y="-143" font-family="Verdana" font-size="10.00">CConfigurationAccessContext</text>
<text text-anchor="middle" x="79" y="-130" font-family="Verdana" font-size="10.00">::serializeOut</text>
</g>
<!-- Node2 -->
<g id="node3" class="node"><title>Node2</title>
<a xlink:href="classCAreaConfiguration.html#a6b8c95a79343ee9823b026d74184e798" target="_top" xlink:title="CAreaConfiguration\l::serializeXmlSettings">
<polygon fill="white" stroke="black" points="384.5,-135 384.5,-169 503.5,-169 503.5,-135 384.5,-135"/>
<text text-anchor="start" x="392.5" y="-156" font-family="Verdana" font-size="10.00">CAreaConfiguration</text>
<text text-anchor="middle" x="444" y="-143" font-family="Verdana" font-size="10.00">::serializeXmlSettings</text>
</a>
</g>
<!-- Node1&#45;&gt;Node2 -->
<g id="edge2" class="edge"><title>Node1&#45;&gt;Node2</title>
<path fill="none" stroke="midnightblue" d="M104.194,-162.721C126.039,-181.547 159.495,-206.402 194,-217 259.428,-237.095 282.564,-237.069 348,-217 378.404,-207.675 407.846,-185.101 425.933,-169.184"/>
<polygon fill="midnightblue" stroke="midnightblue" points="106.503,-160.091 96.6902,-156.096 101.87,-165.338 106.503,-160.091"/>
</g>
<!-- Node3 -->
<g id="node5" class="node"><title>Node3</title>
<a xlink:href="classCArrayParameter.html#a192ed81d047795b1823cab20337ad283" target="_top" xlink:title="CArrayParameter::serialize\lXmlSettings">
<polygon fill="white" stroke="black" points="199,-174 199,-208 343,-208 343,-174 199,-174"/>
<text text-anchor="start" x="207" y="-195" font-family="Verdana" font-size="10.00">CArrayParameter::serialize</text>
<text text-anchor="middle" x="271" y="-182" font-family="Verdana" font-size="10.00">XmlSettings</text>
</a>
</g>
<!-- Node1&#45;&gt;Node3 -->
<g id="edge4" class="edge"><title>Node1&#45;&gt;Node3</title>
<path fill="none" stroke="midnightblue" d="M151.719,-158.695C170.242,-163.712 189.997,-169.062 207.991,-173.935"/>
<polygon fill="midnightblue" stroke="midnightblue" points="152.435,-155.263 141.868,-156.027 150.605,-162.019 152.435,-155.263"/>
</g>
<!-- Node4 -->
<g id="node7" class="node"><title>Node4</title>
<a xlink:href="classCBaseParameter.html#a97e096908df72fa729a62c3f5c362ddd" target="_top" xlink:title="CBaseParameter::serialize\lXmlSettings">
<polygon fill="white" stroke="black" points="199.5,-122 199.5,-156 342.5,-156 342.5,-122 199.5,-122"/>
<text text-anchor="start" x="207.5" y="-143" font-family="Verdana" font-size="10.00">CBaseParameter::serialize</text>
<text text-anchor="middle" x="271" y="-130" font-family="Verdana" font-size="10.00">XmlSettings</text>
</a>
</g>
<!-- Node1&#45;&gt;Node4 -->
<g id="edge6" class="edge"><title>Node1&#45;&gt;Node4</title>
<path fill="none" stroke="midnightblue" d="M168.498,-139C178.846,-139 189.295,-139 199.361,-139"/>
<polygon fill="midnightblue" stroke="midnightblue" points="168.202,-135.5 158.202,-139 168.202,-142.5 168.202,-135.5"/>
</g>
<!-- Node5 -->
<g id="node9" class="node"><title>Node5</title>
<a xlink:href="classCConfigurableElement.html#a0e3feb8a7b18a3291ec960c9726b4eaf" target="_top" xlink:title="CConfigurableElement\l::serializeXmlSettings">
<polygon fill="white" stroke="black" points="209.5,-52 209.5,-86 332.5,-86 332.5,-52 209.5,-52"/>
<text text-anchor="start" x="217.5" y="-73" font-family="Verdana" font-size="10.00">CConfigurableElement</text>
<text text-anchor="middle" x="271" y="-60" font-family="Verdana" font-size="10.00">::serializeXmlSettings</text>
</a>
</g>
<!-- Node1&#45;&gt;Node5 -->
<g id="edge8" class="edge"><title>Node1&#45;&gt;Node5</title>
<path fill="none" stroke="midnightblue" d="M135.686,-118.333C163.861,-108.061 197.496,-95.7982 224.184,-86.0683"/>
<polygon fill="midnightblue" stroke="midnightblue" points="134.165,-115.162 125.968,-121.876 136.562,-121.739 134.165,-115.162"/>
</g>
<!-- Node6 -->
<g id="node13" class="node"><title>Node6</title>
<a xlink:href="classCFixedPointParameterType.html#ac5dd869d9846a4e999fe9715b397c17d" target="_top" xlink:title="CFixedPointParameterType\l::handleValueSpaceAttribute">
<polygon fill="white" stroke="black" points="194.5,-0 194.5,-34 347.5,-34 347.5,-0 194.5,-0"/>
<text text-anchor="start" x="202.5" y="-21" font-family="Verdana" font-size="10.00">CFixedPointParameterType</text>
<text text-anchor="middle" x="271" y="-8" font-family="Verdana" font-size="10.00">::handleValueSpaceAttribute</text>
</a>
</g>
<!-- Node1&#45;&gt;Node6 -->
<g id="edge14" class="edge"><title>Node1&#45;&gt;Node6</title>
<path fill="none" stroke="midnightblue" d="M102.64,-114.687C124.602,-93.282 159.089,-62.556 194,-43 199.909,-39.6901 206.309,-36.7074 212.808,-34.0455"/>
<polygon fill="midnightblue" stroke="midnightblue" points="100.061,-112.315 95.4137,-121.836 104.984,-117.291 100.061,-112.315"/>
</g>
<!-- Node5&#45;&gt;Node2 -->
<g id="edge10" class="edge"><title>Node5&#45;&gt;Node2</title>
<path fill="none" stroke="midnightblue" d="M315.904,-90.5436C344.752,-104.384 381.702,-122.111 408.497,-134.967"/>
<polygon fill="midnightblue" stroke="midnightblue" points="317.376,-87.3677 306.846,-86.1977 314.348,-93.6789 317.376,-87.3677"/>
</g>
<!-- Node5&#45;&gt;Node5 -->
<g id="edge12" class="edge"><title>Node5&#45;&gt;Node5</title>
<path fill="none" stroke="midnightblue" d="M241.046,-96.3176C245.253,-100.864 255.237,-104 271,-104 296.867,-104 307.174,-95.5562 301.919,-86.2878"/>
<polygon fill="midnightblue" stroke="midnightblue" points="244.523,-95.9063 240.081,-86.2878 237.555,-96.5773 244.523,-95.9063"/>
</g>
</g>
</svg>
