<?xml version="1.0" encoding="UTF-8" standalone="no"?>
<!DOCTYPE svg PUBLIC "-//W3C//DTD SVG 1.1//EN"
 "http://www.w3.org/Graphics/SVG/1.1/DTD/svg11.dtd">
<!-- Generated by graphviz version 2.26.3 (20100126.1600)
 -->
<!-- Title: CElement::rename Pages: 1 -->
<svg width="290pt" height="150pt"
 viewBox="0.00 0.00 290.00 150.00" xmlns="http://www.w3.org/2000/svg" xmlns:xlink="http://www.w3.org/1999/xlink">
<g id="graph1" class="graph" transform="scale(1 1) rotate(0) translate(4 146)">
<title>CElement::rename</title>
<polygon fill="white" stroke="white" points="-4,5 -4,-146 287,-146 287,5 -4,5"/>
<!-- Node1 -->
<g id="node1" class="node"><title>Node1</title>
<polygon fill="#bfbfbf" stroke="black" points="0.5,-60.5 0.5,-81.5 107.5,-81.5 107.5,-60.5 0.5,-60.5"/>
<text text-anchor="middle" x="54" y="-68.5" font-family="Verdana" font-size="10.00">CElement::rename</text>
</g>
<!-- Node2 -->
<g id="node3" class="node"><title>Node2</title>
<a xlink:href="classCElement.html#a25f58d9d8b35e770806d669fb2a378e4" target="_top" xlink:title="CElement::getNbChildren">
<polygon fill="white" stroke="black" points="144.5,-120.5 144.5,-141.5 281.5,-141.5 281.5,-120.5 144.5,-120.5"/>
<text text-anchor="middle" x="213" y="-128.5" font-family="Verdana" font-size="10.00">CElement::getNbChildren</text>
</a>
</g>
<!-- Node1&#45;&gt;Node2 -->
<g id="edge2" class="edge"><title>Node1&#45;&gt;Node2</title>
<path fill="none" stroke="midnightblue" d="M75.4831,-81.5416C93.5068,-90.1433 120.069,-102.26 144,-111 150.297,-113.3 156.992,-115.516 163.639,-117.581"/>
<polygon fill="midnightblue" stroke="midnightblue" points="162.708,-120.956 173.293,-120.492 164.729,-114.254 162.708,-120.956"/>
</g>
<!-- Node3 -->
<g id="node5" class="node"><title>Node3</title>
<a xlink:href="classCElement.html#a41bf126c3fdbb5bec0c2c3dcf35e9079" target="_top" xlink:title="CElement::getChild">
<polygon fill="white" stroke="black" points="159,-80.5 159,-101.5 267,-101.5 267,-80.5 159,-80.5"/>
<text text-anchor="middle" x="213" y="-88.5" font-family="Verdana" font-size="10.00">CElement::getChild</text>
</a>
</g>
<!-- Node1&#45;&gt;Node3 -->
<g id="edge4" class="edge"><title>Node1&#45;&gt;Node3</title>
<path fill="none" stroke="midnightblue" d="M107.83,-77.7711C120.968,-79.4237 135.154,-81.208 148.725,-82.915"/>
<polygon fill="midnightblue" stroke="midnightblue" points="148.596,-86.4264 158.955,-84.2019 149.47,-79.4811 148.596,-86.4264"/>
</g>
<!-- Node4 -->
<g id="node7" class="node"><title>Node4</title>
<a xlink:href="classCElement.html#a49581fb6412e29e932962acd82d52d6a" target="_top" xlink:title="CElement::getName">
<polygon fill="white" stroke="black" points="156,-40.5 156,-61.5 270,-61.5 270,-40.5 156,-40.5"/>
<text text-anchor="middle" x="213" y="-48.5" font-family="Verdana" font-size="10.00">CElement::getName</text>
</a>
</g>
<!-- Node1&#45;&gt;Node4 -->
<g id="edge6" class="edge"><title>Node1&#45;&gt;Node4</title>
<path fill="none" stroke="midnightblue" d="M107.83,-64.2289C120.057,-62.6909 133.192,-61.0387 145.894,-59.441"/>
<polygon fill="midnightblue" stroke="midnightblue" points="146.477,-62.8953 155.962,-58.1746 145.604,-55.95 146.477,-62.8953"/>
</g>
<!-- Node5 -->
<g id="node9" class="node"><title>Node5</title>
<a xlink:href="classCElement.html#a9018d33125b066d6cd791659af95c6fe" target="_top" xlink:title="CElement::setName">
<polygon fill="white" stroke="black" points="156.5,-0.5 156.5,-21.5 269.5,-21.5 269.5,-0.5 156.5,-0.5"/>
<text text-anchor="middle" x="213" y="-8.5" font-family="Verdana" font-size="10.00">CElement::setName</text>
</a>
</g>
<!-- Node1&#45;&gt;Node5 -->
<g id="edge8" class="edge"><title>Node1&#45;&gt;Node5</title>
<path fill="none" stroke="midnightblue" d="M75.4831,-60.4584C93.5068,-51.8567 120.069,-39.7402 144,-31 150.297,-28.7002 156.992,-26.4844 163.639,-24.4188"/>
<polygon fill="midnightblue" stroke="midnightblue" points="164.729,-27.7458 173.293,-21.5076 162.708,-21.0439 164.729,-27.7458"/>
</g>
</g>
</svg>
