<?xml version="1.0" encoding="UTF-8" standalone="no"?>
<!DOCTYPE svg PUBLIC "-//W3C//DTD SVG 1.1//EN"
 "http://www.w3.org/Graphics/SVG/1.1/DTD/svg11.dtd">
<!-- Generated by graphviz version 2.26.3 (20100126.1600)
 -->
<!-- Title: CCompoundRule::dump Pages: 1 -->
<svg width="312pt" height="110pt"
 viewBox="0.00 0.00 312.00 110.00" xmlns="http://www.w3.org/2000/svg" xmlns:xlink="http://www.w3.org/1999/xlink">
<g id="graph1" class="graph" transform="scale(1 1) rotate(0) translate(4 106)">
<title>CCompoundRule::dump</title>
<polygon fill="white" stroke="white" points="-4,5 -4,-106 309,-106 309,5 -4,5"/>
<!-- Node1 -->
<g id="node1" class="node"><title>Node1</title>
<polygon fill="#bfbfbf" stroke="black" points="0.5,-40.5 0.5,-61.5 129.5,-61.5 129.5,-40.5 0.5,-40.5"/>
<text text-anchor="middle" x="65" y="-48.5" font-family="Verdana" font-size="10.00">CCompoundRule::dump</text>
</g>
<!-- Node2 -->
<g id="node3" class="node"><title>Node2</title>
<a xlink:href="classCElement.html#a25f58d9d8b35e770806d669fb2a378e4" target="_top" xlink:title="CElement::getNbChildren">
<polygon fill="white" stroke="black" points="166.5,-80.5 166.5,-101.5 303.5,-101.5 303.5,-80.5 166.5,-80.5"/>
<text text-anchor="middle" x="235" y="-88.5" font-family="Verdana" font-size="10.00">CElement::getNbChildren</text>
</a>
</g>
<!-- Node1&#45;&gt;Node2 -->
<g id="edge2" class="edge"><title>Node1&#45;&gt;Node2</title>
<path fill="none" stroke="midnightblue" d="M109.665,-61.5095C131.346,-66.6108 157.584,-72.7845 180.439,-78.1622"/>
<polygon fill="midnightblue" stroke="midnightblue" points="179.802,-81.6078 190.338,-80.4913 181.405,-74.7939 179.802,-81.6078"/>
</g>
<!-- Node3 -->
<g id="node5" class="node"><title>Node3</title>
<a xlink:href="classCElement.html#a41bf126c3fdbb5bec0c2c3dcf35e9079" target="_top" xlink:title="CElement::getChild">
<polygon fill="white" stroke="black" points="181,-40.5 181,-61.5 289,-61.5 289,-40.5 181,-40.5"/>
<text text-anchor="middle" x="235" y="-48.5" font-family="Verdana" font-size="10.00">CElement::getChild</text>
</a>
</g>
<!-- Node1&#45;&gt;Node3 -->
<g id="edge4" class="edge"><title>Node1&#45;&gt;Node3</title>
<path fill="none" stroke="midnightblue" d="M129.755,-51C143.214,-51 157.392,-51 170.83,-51"/>
<polygon fill="midnightblue" stroke="midnightblue" points="170.937,-54.5001 180.937,-51 170.937,-47.5001 170.937,-54.5001"/>
</g>
<!-- Node4 -->
<g id="node7" class="node"><title>Node4</title>
<a xlink:href="classCRule.html#aa4a929f43c17c8b7b1992062f019f530" target="_top" xlink:title="CRule::dump">
<polygon fill="white" stroke="black" points="196.5,-0.5 196.5,-21.5 273.5,-21.5 273.5,-0.5 196.5,-0.5"/>
<text text-anchor="middle" x="235" y="-8.5" font-family="Verdana" font-size="10.00">CRule::dump</text>
</a>
</g>
<!-- Node1&#45;&gt;Node4 -->
<g id="edge6" class="edge"><title>Node1&#45;&gt;Node4</title>
<path fill="none" stroke="midnightblue" d="M109.665,-40.4905C133.251,-34.941 162.23,-28.1223 186.38,-22.44"/>
<polygon fill="midnightblue" stroke="midnightblue" points="187.472,-25.7787 196.404,-20.0813 185.869,-18.9648 187.472,-25.7787"/>
</g>
</g>
</svg>
