<?xml version="1.0" encoding="UTF-8" standalone="no"?>
<!DOCTYPE svg PUBLIC "-//W3C//DTD SVG 1.1//EN"
 "http://www.w3.org/Graphics/SVG/1.1/DTD/svg11.dtd">
<!-- Generated by graphviz version 2.26.3 (20100126.1600)
 -->
<!-- Title: CRemoteProcessorServer::~CRemoteProcessorServer Pages: 1 -->
<svg width="338pt" height="42pt"
 viewBox="0.00 0.00 338.00 42.00" xmlns="http://www.w3.org/2000/svg" xmlns:xlink="http://www.w3.org/1999/xlink">
<g id="graph1" class="graph" transform="scale(1 1) rotate(0) translate(4 38)">
<title>CRemoteProcessorServer::~CRemoteProcessorServer</title>
<polygon fill="white" stroke="white" points="-4,5 -4,-38 335,-38 335,5 -4,5"/>
<!-- Node1 -->
<g id="node1" class="node"><title>Node1</title>
<polygon fill="#bfbfbf" stroke="black" points="0.5,-0 0.5,-34 153.5,-34 153.5,-0 0.5,-0"/>
<text text-anchor="start" x="8.5" y="-21" font-family="Verdana" font-size="10.00">CRemoteProcessorServer</text>
<text text-anchor="middle" x="77" y="-8" font-family="Verdana" font-size="10.00">::~CRemoteProcessorServer</text>
</g>
<!-- Node2 -->
<g id="node3" class="node"><title>Node2</title>
<a xlink:href="classCRemoteProcessorServer.html#a956635bc1ec4cda36307fb0be9dd9935" target="_top" xlink:title="CRemoteProcessorServer\l::stop">
<polygon fill="white" stroke="black" points="190.5,-0 190.5,-34 329.5,-34 329.5,-0 190.5,-0"/>
<text text-anchor="start" x="198.5" y="-21" font-family="Verdana" font-size="10.00">CRemoteProcessorServer</text>
<text text-anchor="middle" x="260" y="-8" font-family="Verdana" font-size="10.00">::stop</text>
</a>
</g>
<!-- Node1&#45;&gt;Node2 -->
<g id="edge2" class="edge"><title>Node1&#45;&gt;Node2</title>
<path fill="none" stroke="midnightblue" d="M153.548,-17C162.443,-17 171.532,-17 180.466,-17"/>
<polygon fill="midnightblue" stroke="midnightblue" points="180.469,-20.5001 190.469,-17 180.469,-13.5001 180.469,-20.5001"/>
</g>
</g>
</svg>
