<?xml version="1.0" encoding="UTF-8" standalone="no"?>
<!DOCTYPE svg PUBLIC "-//W3C//DTD SVG 1.1//EN"
 "http://www.w3.org/Graphics/SVG/1.1/DTD/svg11.dtd">
<!-- Generated by graphviz version 2.26.3 (20100126.1600)
 -->
<!-- Title: CParameterMgr::createConfiguration Pages: 1 -->
<svg width="686pt" height="156pt"
 viewBox="0.00 0.00 686.00 156.00" xmlns="http://www.w3.org/2000/svg" xmlns:xlink="http://www.w3.org/1999/xlink">
<g id="graph1" class="graph" transform="scale(1 1) rotate(0) translate(4 152)">
<title>CParameterMgr::createConfiguration</title>
<polygon fill="white" stroke="white" points="-4,5 -4,-152 683,-152 683,5 -4,5"/>
<!-- Node1 -->
<g id="node1" class="node"><title>Node1</title>
<polygon fill="#bfbfbf" stroke="black" points="0,-94.5 0,-115.5 192,-115.5 192,-94.5 0,-94.5"/>
<text text-anchor="middle" x="96" y="-102.5" font-family="Verdana" font-size="10.00">CParameterMgr::createConfiguration</text>
</g>
<!-- Node2 -->
<g id="node3" class="node"><title>Node2</title>
<a xlink:href="classCConfigurableDomains.html#aa96eec13d9bdbb307e1dcfe6f057a685" target="_top" xlink:title="CConfigurableDomains\l::createConfiguration">
<polygon fill="white" stroke="black" points="228,-88 228,-122 354,-122 354,-88 228,-88"/>
<text text-anchor="start" x="236" y="-109" font-family="Verdana" font-size="10.00">CConfigurableDomains</text>
<text text-anchor="middle" x="291" y="-96" font-family="Verdana" font-size="10.00">::createConfiguration</text>
</a>
</g>
<!-- Node1&#45;&gt;Node2 -->
<g id="edge2" class="edge"><title>Node1&#45;&gt;Node2</title>
<path fill="none" stroke="midnightblue" d="M192.072,-105C200.683,-105 209.31,-105 217.683,-105"/>
<polygon fill="midnightblue" stroke="midnightblue" points="217.751,-108.5 227.751,-105 217.751,-101.5 217.751,-108.5"/>
</g>
<!-- Node3 -->
<g id="node5" class="node"><title>Node3</title>
<a xlink:href="classCConfigurableDomains.html#a4dce38a1560b6e33871d3fa2d85cc449" target="_top" xlink:title="CConfigurableDomains\l::findConfigurableDomain">
<polygon fill="white" stroke="black" points="390.5,-114 390.5,-148 527.5,-148 527.5,-114 390.5,-114"/>
<text text-anchor="start" x="398.5" y="-135" font-family="Verdana" font-size="10.00">CConfigurableDomains</text>
<text text-anchor="middle" x="459" y="-122" font-family="Verdana" font-size="10.00">::findConfigurableDomain</text>
</a>
</g>
<!-- Node2&#45;&gt;Node3 -->
<g id="edge4" class="edge"><title>Node2&#45;&gt;Node3</title>
<path fill="none" stroke="midnightblue" d="M354.035,-114.755C362.626,-116.085 371.53,-117.463 380.355,-118.829"/>
<polygon fill="midnightblue" stroke="midnightblue" points="379.846,-122.292 390.264,-120.362 380.917,-115.374 379.846,-122.292"/>
</g>
<!-- Node5 -->
<g id="node9" class="node"><title>Node5</title>
<a xlink:href="classCConfigurableDomain.html#a82e376a127b18da449923829825bcbed" target="_top" xlink:title="CConfigurableDomain\l::createConfiguration">
<polygon fill="white" stroke="black" points="398.5,-62 398.5,-96 519.5,-96 519.5,-62 398.5,-62"/>
<text text-anchor="start" x="406.5" y="-83" font-family="Verdana" font-size="10.00">CConfigurableDomain</text>
<text text-anchor="middle" x="459" y="-70" font-family="Verdana" font-size="10.00">::createConfiguration</text>
</a>
</g>
<!-- Node2&#45;&gt;Node5 -->
<g id="edge8" class="edge"><title>Node2&#45;&gt;Node5</title>
<path fill="none" stroke="midnightblue" d="M354.035,-95.2446C365.269,-93.506 377.037,-91.6847 388.464,-89.9162"/>
<polygon fill="midnightblue" stroke="midnightblue" points="389.049,-93.3675 398.396,-88.3791 387.979,-86.4498 389.049,-93.3675"/>
</g>
<!-- Node4 -->
<g id="node7" class="node"><title>Node4</title>
<a xlink:href="classCElement.html#a8595814a3159f32f874269907e70b260" target="_top" xlink:title="CElement::findChild">
<polygon fill="white" stroke="black" points="566,-120.5 566,-141.5 676,-141.5 676,-120.5 566,-120.5"/>
<text text-anchor="middle" x="621" y="-128.5" font-family="Verdana" font-size="10.00">CElement::findChild</text>
</a>
</g>
<!-- Node3&#45;&gt;Node4 -->
<g id="edge6" class="edge"><title>Node3&#45;&gt;Node4</title>
<path fill="none" stroke="midnightblue" d="M527.703,-131C536.976,-131 546.469,-131 555.681,-131"/>
<polygon fill="midnightblue" stroke="midnightblue" points="555.935,-134.5 565.935,-131 555.935,-127.5 555.935,-134.5"/>
</g>
<!-- Node5&#45;&gt;Node4 -->
<g id="edge10" class="edge"><title>Node5&#45;&gt;Node4</title>
<path fill="none" stroke="midnightblue" d="M512.045,-96.0267C533.615,-102.95 558.199,-110.842 578.55,-117.374"/>
<polygon fill="midnightblue" stroke="midnightblue" points="577.577,-120.738 588.168,-120.461 579.716,-114.072 577.577,-120.738"/>
</g>
<!-- Node6 -->
<g id="node12" class="node"><title>Node6</title>
<a xlink:href="classCElement.html#aaa4df1b13a53263f8cc2b668172873d9" target="_top" xlink:title="CElement::log_info">
<polygon fill="white" stroke="black" points="568,-80.5 568,-101.5 674,-101.5 674,-80.5 568,-80.5"/>
<text text-anchor="middle" x="621" y="-88.5" font-family="Verdana" font-size="10.00">CElement::log_info</text>
</a>
</g>
<!-- Node5&#45;&gt;Node6 -->
<g id="edge12" class="edge"><title>Node5&#45;&gt;Node6</title>
<path fill="none" stroke="midnightblue" d="M519.784,-83.5025C532.129,-84.4169 545.143,-85.381 557.577,-86.302"/>
<polygon fill="midnightblue" stroke="midnightblue" points="557.626,-89.8151 567.857,-87.0635 558.143,-82.8342 557.626,-89.8151"/>
</g>
<!-- Node7 -->
<g id="node14" class="node"><title>Node7</title>
<a xlink:href="classCElement.html#a49581fb6412e29e932962acd82d52d6a" target="_top" xlink:title="CElement::getName">
<polygon fill="white" stroke="black" points="564,-40.5 564,-61.5 678,-61.5 678,-40.5 564,-40.5"/>
<text text-anchor="middle" x="621" y="-48.5" font-family="Verdana" font-size="10.00">CElement::getName</text>
</a>
</g>
<!-- Node5&#45;&gt;Node7 -->
<g id="edge14" class="edge"><title>Node5&#45;&gt;Node7</title>
<path fill="none" stroke="midnightblue" d="M519.784,-68.4942C530.851,-66.5814 542.456,-64.5756 553.698,-62.6325"/>
<polygon fill="midnightblue" stroke="midnightblue" points="554.637,-66.0221 563.895,-60.8701 553.445,-59.1244 554.637,-66.0221"/>
</g>
<!-- Node8 -->
<g id="node16" class="node"><title>Node8</title>
<a xlink:href="classCElement.html#ac2ad66ee438a4a0c1390b7388874fe72" target="_top" xlink:title="CElement::addChild">
<polygon fill="white" stroke="black" points="566,-0.5 566,-21.5 676,-21.5 676,-0.5 566,-0.5"/>
<text text-anchor="middle" x="621" y="-8.5" font-family="Verdana" font-size="10.00">CElement::addChild</text>
</a>
</g>
<!-- Node5&#45;&gt;Node8 -->
<g id="edge16" class="edge"><title>Node5&#45;&gt;Node8</title>
<path fill="none" stroke="midnightblue" d="M494.13,-61.9674C514.364,-52.4031 540.39,-40.5156 564,-31 569.046,-28.9663 574.387,-26.9356 579.697,-24.9902"/>
<polygon fill="midnightblue" stroke="midnightblue" points="580.92,-28.2699 589.151,-21.5983 578.556,-21.6812 580.92,-28.2699"/>
</g>
</g>
</svg>
