<?xml version="1.0" encoding="UTF-8" standalone="no"?>
<!DOCTYPE svg PUBLIC "-//W3C//DTD SVG 1.1//EN"
 "http://www.w3.org/Graphics/SVG/1.1/DTD/svg11.dtd">
<!-- Generated by graphviz version 2.26.3 (20100126.1600)
 -->
<!-- Title: CConfigurableElement::getBelongingDomainCount Pages: 1 -->
<svg width="328pt" height="94pt"
 viewBox="0.00 0.00 328.00 94.00" xmlns="http://www.w3.org/2000/svg" xmlns:xlink="http://www.w3.org/1999/xlink">
<g id="graph1" class="graph" transform="scale(1 1) rotate(0) translate(4 90)">
<title>CConfigurableElement::getBelongingDomainCount</title>
<polygon fill="white" stroke="white" points="-4,5 -4,-90 325,-90 325,5 -4,5"/>
<!-- Node1 -->
<g id="node1" class="node"><title>Node1</title>
<polygon fill="#bfbfbf" stroke="black" points="0,-26 0,-60 152,-60 152,-26 0,-26"/>
<text text-anchor="start" x="8" y="-47" font-family="Verdana" font-size="10.00">CConfigurableElement</text>
<text text-anchor="middle" x="76" y="-34" font-family="Verdana" font-size="10.00">::getBelongingDomainCount</text>
</g>
<!-- Node2 -->
<g id="node3" class="node"><title>Node2</title>
<a xlink:href="classCConfigurableDomains.html#a8aa98ddd65e7d28bbe559ea7a23985d0" target="_top" xlink:title="CConfigurableDomains\l::listConflictingElements">
<polygon fill="white" stroke="black" points="188.5,-52 188.5,-86 319.5,-86 319.5,-52 188.5,-52"/>
<text text-anchor="start" x="196.5" y="-73" font-family="Verdana" font-size="10.00">CConfigurableDomains</text>
<text text-anchor="middle" x="254" y="-60" font-family="Verdana" font-size="10.00">::listConflictingElements</text>
</a>
</g>
<!-- Node1&#45;&gt;Node2 -->
<g id="edge2" class="edge"><title>Node1&#45;&gt;Node2</title>
<path fill="none" stroke="midnightblue" d="M161.981,-55.559C170.848,-56.8543 179.756,-58.1554 188.351,-59.4109"/>
<polygon fill="midnightblue" stroke="midnightblue" points="162.405,-52.0839 152.004,-54.1018 161.393,-59.0104 162.405,-52.0839"/>
</g>
<!-- Node3 -->
<g id="node5" class="node"><title>Node3</title>
<a xlink:href="classCConfigurableElement.html#a67e6de36b68b0ff6c74c5a1a06f3046a" target="_top" xlink:title="CConfigurableElement\l::isRogue">
<polygon fill="white" stroke="black" points="192.5,-0 192.5,-34 315.5,-34 315.5,-0 192.5,-0"/>
<text text-anchor="start" x="200.5" y="-21" font-family="Verdana" font-size="10.00">CConfigurableElement</text>
<text text-anchor="middle" x="254" y="-8" font-family="Verdana" font-size="10.00">::isRogue</text>
</a>
</g>
<!-- Node1&#45;&gt;Node3 -->
<g id="edge4" class="edge"><title>Node1&#45;&gt;Node3</title>
<path fill="none" stroke="midnightblue" d="M162.195,-30.4097C172.422,-28.9158 182.699,-27.4147 192.484,-25.9854"/>
<polygon fill="midnightblue" stroke="midnightblue" points="161.393,-26.9896 152.004,-31.8982 162.405,-33.9161 161.393,-26.9896"/>
</g>
</g>
</svg>
