<?xml version="1.0" encoding="UTF-8" standalone="no"?>
<!DOCTYPE svg PUBLIC "-//W3C//DTD SVG 1.1//EN"
 "http://www.w3.org/Graphics/SVG/1.1/DTD/svg11.dtd">
<!-- Generated by graphviz version 2.26.3 (20100126.1600)
 -->
<!-- Title: CConfigurableDomains::listDomainElements Pages: 1 -->
<svg width="460pt" height="95pt"
 viewBox="0.00 0.00 460.00 95.00" xmlns="http://www.w3.org/2000/svg" xmlns:xlink="http://www.w3.org/1999/xlink">
<g id="graph1" class="graph" transform="scale(1 1) rotate(0) translate(4 91)">
<title>CConfigurableDomains::listDomainElements</title>
<polygon fill="white" stroke="white" points="-4,5 -4,-91 457,-91 457,5 -4,5"/>
<!-- Node1 -->
<g id="node1" class="node"><title>Node1</title>
<polygon fill="#bfbfbf" stroke="black" points="0,-26 0,-60 126,-60 126,-26 0,-26"/>
<text text-anchor="start" x="8" y="-47" font-family="Verdana" font-size="10.00">CConfigurableDomains</text>
<text text-anchor="middle" x="63" y="-34" font-family="Verdana" font-size="10.00">::listDomainElements</text>
</g>
<!-- Node2 -->
<g id="node3" class="node"><title>Node2</title>
<a xlink:href="classCConfigurableDomains.html#a4dce38a1560b6e33871d3fa2d85cc449" target="_top" xlink:title="CConfigurableDomains\l::findConfigurableDomain">
<polygon fill="white" stroke="black" points="165.5,-53 165.5,-87 302.5,-87 302.5,-53 165.5,-53"/>
<text text-anchor="start" x="173.5" y="-74" font-family="Verdana" font-size="10.00">CConfigurableDomains</text>
<text text-anchor="middle" x="234" y="-61" font-family="Verdana" font-size="10.00">::findConfigurableDomain</text>
</a>
</g>
<!-- Node1&#45;&gt;Node2 -->
<g id="edge2" class="edge"><title>Node1&#45;&gt;Node2</title>
<path fill="none" stroke="midnightblue" d="M126.188,-52.9771C135.65,-54.4711 145.504,-56.027 155.241,-57.5643"/>
<polygon fill="midnightblue" stroke="midnightblue" points="154.9,-61.0538 165.323,-59.1563 155.992,-54.1395 154.9,-61.0538"/>
</g>
<!-- Node4 -->
<g id="node7" class="node"><title>Node4</title>
<a xlink:href="classCConfigurableDomain.html#ad9a458a6d15b8d7269bef13ffde421eb" target="_top" xlink:title="CConfigurableDomain\l::listAssociatedToElements">
<polygon fill="white" stroke="black" points="162.5,-0 162.5,-34 305.5,-34 305.5,-0 162.5,-0"/>
<text text-anchor="start" x="170.5" y="-21" font-family="Verdana" font-size="10.00">CConfigurableDomain</text>
<text text-anchor="middle" x="234" y="-8" font-family="Verdana" font-size="10.00">::listAssociatedToElements</text>
</a>
</g>
<!-- Node1&#45;&gt;Node4 -->
<g id="edge6" class="edge"><title>Node1&#45;&gt;Node4</title>
<path fill="none" stroke="midnightblue" d="M126.188,-33.3924C134.76,-32.0892 143.653,-30.737 152.489,-29.3935"/>
<polygon fill="midnightblue" stroke="midnightblue" points="153.061,-32.8468 162.421,-27.8833 152.009,-25.9264 153.061,-32.8468"/>
</g>
<!-- Node3 -->
<g id="node5" class="node"><title>Node3</title>
<a xlink:href="classCElement.html#a8595814a3159f32f874269907e70b260" target="_top" xlink:title="CElement::findChild">
<polygon fill="white" stroke="black" points="342,-61.5 342,-82.5 452,-82.5 452,-61.5 342,-61.5"/>
<text text-anchor="middle" x="397" y="-69.5" font-family="Verdana" font-size="10.00">CElement::findChild</text>
</a>
</g>
<!-- Node2&#45;&gt;Node3 -->
<g id="edge4" class="edge"><title>Node2&#45;&gt;Node3</title>
<path fill="none" stroke="midnightblue" d="M302.654,-70.8424C312.238,-70.96 322.066,-71.0806 331.588,-71.1974"/>
<polygon fill="midnightblue" stroke="midnightblue" points="331.733,-74.6993 341.775,-71.3224 331.819,-67.6999 331.733,-74.6993"/>
</g>
<!-- Node5 -->
<g id="node9" class="node"><title>Node5</title>
<a xlink:href="classCElement.html#a7022c0fc8063f0aae9d97b06e74d4ac1" target="_top" xlink:title="CElement::getPath">
<polygon fill="white" stroke="black" points="344,-3.5 344,-24.5 450,-24.5 450,-3.5 344,-3.5"/>
<text text-anchor="middle" x="397" y="-11.5" font-family="Verdana" font-size="10.00">CElement::getPath</text>
</a>
</g>
<!-- Node4&#45;&gt;Node5 -->
<g id="edge8" class="edge"><title>Node4&#45;&gt;Node5</title>
<path fill="none" stroke="midnightblue" d="M305.969,-15.6754C315.139,-15.5066 324.473,-15.3348 333.497,-15.1688"/>
<polygon fill="midnightblue" stroke="midnightblue" points="333.595,-18.6677 343.529,-14.9841 333.466,-11.6688 333.595,-18.6677"/>
</g>
<!-- Node5&#45;&gt;Node5 -->
<g id="edge10" class="edge"><title>Node5&#45;&gt;Node5</title>
<path fill="none" stroke="midnightblue" d="M371.26,-24.7079C360.26,-33.6531 368.84,-43 397,-43 415.04,-43 425.045,-39.164 427.013,-34.0551"/>
<polygon fill="midnightblue" stroke="midnightblue" points="430.081,-32.3474 422.74,-24.7079 423.715,-35.2578 430.081,-32.3474"/>
</g>
</g>
</svg>
