<?xml version="1.0" encoding="UTF-8" standalone="no"?>
<!DOCTYPE svg PUBLIC "-//W3C//DTD SVG 1.1//EN"
 "http://www.w3.org/Graphics/SVG/1.1/DTD/svg11.dtd">
<!-- Generated by graphviz version 2.26.3 (20100126.1600)
 -->
<!-- Title: CDomainConfiguration::getBlackboard Pages: 1 -->
<svg width="308pt" height="94pt"
 viewBox="0.00 0.00 308.00 94.00" xmlns="http://www.w3.org/2000/svg" xmlns:xlink="http://www.w3.org/1999/xlink">
<g id="graph1" class="graph" transform="scale(1 1) rotate(0) translate(4 90)">
<title>CDomainConfiguration::getBlackboard</title>
<polygon fill="white" stroke="white" points="-4,5 -4,-90 305,-90 305,5 -4,5"/>
<!-- Node1 -->
<g id="node1" class="node"><title>Node1</title>
<polygon fill="#bfbfbf" stroke="black" points="0.5,-26 0.5,-60 125.5,-60 125.5,-26 0.5,-26"/>
<text text-anchor="start" x="8.5" y="-47" font-family="Verdana" font-size="10.00">CDomainConfiguration</text>
<text text-anchor="middle" x="63" y="-34" font-family="Verdana" font-size="10.00">::getBlackboard</text>
</g>
<!-- Node2 -->
<g id="node3" class="node"><title>Node2</title>
<a xlink:href="classCAreaConfiguration.html#a1f85dedf12591c3f43830a00e5c352df" target="_top" xlink:title="CAreaConfiguration\l::getConfigurableElement">
<polygon fill="white" stroke="black" points="162,-52 162,-86 300,-86 300,-52 162,-52"/>
<text text-anchor="start" x="170" y="-73" font-family="Verdana" font-size="10.00">CAreaConfiguration</text>
<text text-anchor="middle" x="231" y="-60" font-family="Verdana" font-size="10.00">::getConfigurableElement</text>
</a>
</g>
<!-- Node1&#45;&gt;Node2 -->
<g id="edge2" class="edge"><title>Node1&#45;&gt;Node2</title>
<path fill="none" stroke="midnightblue" d="M125.557,-52.6814C134.165,-54.0137 143.095,-55.3957 151.952,-56.7664"/>
<polygon fill="midnightblue" stroke="midnightblue" points="151.481,-60.2351 161.899,-58.3058 152.552,-53.3175 151.481,-60.2351"/>
</g>
<!-- Node3 -->
<g id="node5" class="node"><title>Node3</title>
<a xlink:href="classCAreaConfiguration.html#af01dc3ba15a4deb4a713cb2d4f9b1faa" target="_top" xlink:title="CAreaConfiguration\l::getBlackboard">
<polygon fill="white" stroke="black" points="176,-0 176,-34 286,-34 286,-0 176,-0"/>
<text text-anchor="start" x="184" y="-21" font-family="Verdana" font-size="10.00">CAreaConfiguration</text>
<text text-anchor="middle" x="231" y="-8" font-family="Verdana" font-size="10.00">::getBlackboard</text>
</a>
</g>
<!-- Node1&#45;&gt;Node3 -->
<g id="edge4" class="edge"><title>Node1&#45;&gt;Node3</title>
<path fill="none" stroke="midnightblue" d="M125.557,-33.3186C138.715,-31.2821 152.626,-29.1293 165.876,-27.0787"/>
<polygon fill="midnightblue" stroke="midnightblue" points="166.509,-30.5225 175.856,-25.5342 165.438,-23.6049 166.509,-30.5225"/>
</g>
</g>
</svg>
