<?xml version="1.0" encoding="UTF-8" standalone="no"?>
<!DOCTYPE svg PUBLIC "-//W3C//DTD SVG 1.1//EN"
 "http://www.w3.org/Graphics/SVG/1.1/DTD/svg11.dtd">
<!-- Generated by graphviz version 2.26.3 (20100126.1600)
 -->
<!-- Title: CIntegerParameterType Pages: 1 -->
<svg width="152pt" height="262pt"
 viewBox="0.00 0.00 152.00 262.00" xmlns="http://www.w3.org/2000/svg" xmlns:xlink="http://www.w3.org/1999/xlink">
<g id="graph1" class="graph" transform="scale(1 1) rotate(0) translate(4 258)">
<title>CIntegerParameterType</title>
<polygon fill="white" stroke="white" points="-4,5 -4,-258 149,-258 149,5 -4,5"/>
<!-- Node1 -->
<g id="node1" class="node"><title>Node1</title>
<polygon fill="#bfbfbf" stroke="black" points="4,-0.5 4,-21.5 132,-21.5 132,-0.5 4,-0.5"/>
<text text-anchor="middle" x="68" y="-8.5" font-family="Verdana" font-size="10.00">CIntegerParameterType</text>
</g>
<!-- Node2 -->
<g id="node2" class="node"><title>Node2</title>
<a xlink:href="classCParameterType.html" target="_top" xlink:title="CParameterType">
<polygon fill="white" stroke="black" points="20.5,-58.5 20.5,-79.5 115.5,-79.5 115.5,-58.5 20.5,-58.5"/>
<text text-anchor="middle" x="68" y="-66.5" font-family="Verdana" font-size="10.00">CParameterType</text>
</a>
</g>
<!-- Node2&#45;&gt;Node1 -->
<g id="edge2" class="edge"><title>Node2&#45;&gt;Node1</title>
<path fill="none" stroke="midnightblue" d="M68,-48.1906C68,-39.1684 68,-28.9941 68,-21.5707"/>
<polygon fill="midnightblue" stroke="midnightblue" points="64.5001,-48.3619 68,-58.3619 71.5001,-48.3619 64.5001,-48.3619"/>
</g>
<!-- Node3 -->
<g id="node4" class="node"><title>Node3</title>
<a xlink:href="classCTypeElement.html" target="_top" xlink:title="CTypeElement">
<polygon fill="white" stroke="black" points="26,-116.5 26,-137.5 110,-137.5 110,-116.5 26,-116.5"/>
<text text-anchor="middle" x="68" y="-124.5" font-family="Verdana" font-size="10.00">CTypeElement</text>
</a>
</g>
<!-- Node3&#45;&gt;Node2 -->
<g id="edge4" class="edge"><title>Node3&#45;&gt;Node2</title>
<path fill="none" stroke="midnightblue" d="M68,-106.191C68,-97.1684 68,-86.9941 68,-79.5707"/>
<polygon fill="midnightblue" stroke="midnightblue" points="64.5001,-106.362 68,-116.362 71.5001,-106.362 64.5001,-106.362"/>
</g>
<!-- Node4 -->
<g id="node6" class="node"><title>Node4</title>
<a xlink:href="classCElement.html" target="_top" xlink:title="CElement">
<polygon fill="white" stroke="black" points="36.5,-174.5 36.5,-195.5 99.5,-195.5 99.5,-174.5 36.5,-174.5"/>
<text text-anchor="middle" x="68" y="-182.5" font-family="Verdana" font-size="10.00">CElement</text>
</a>
</g>
<!-- Node4&#45;&gt;Node3 -->
<g id="edge6" class="edge"><title>Node4&#45;&gt;Node3</title>
<path fill="none" stroke="midnightblue" d="M68,-164.191C68,-155.168 68,-144.994 68,-137.571"/>
<polygon fill="midnightblue" stroke="midnightblue" points="64.5001,-164.362 68,-174.362 71.5001,-164.362 64.5001,-164.362"/>
</g>
<!-- Node5 -->
<g id="node8" class="node"><title>Node5</title>
<polygon fill="white" stroke="#bfbfbf" points="-0.5,-232.5 -0.5,-253.5 56.5,-253.5 56.5,-232.5 -0.5,-232.5"/>
<text text-anchor="middle" x="28" y="-240.5" font-family="Verdana" font-size="10.00">IXmlSink</text>
</g>
<!-- Node5&#45;&gt;Node4 -->
<g id="edge8" class="edge"><title>Node5&#45;&gt;Node4</title>
<path fill="none" stroke="midnightblue" d="M41.1317,-223.959C47.64,-214.522 55.2528,-203.484 60.7099,-195.571"/>
<polygon fill="midnightblue" stroke="midnightblue" points="38.1327,-222.143 35.3366,-232.362 43.8952,-226.117 38.1327,-222.143"/>
</g>
<!-- Node6 -->
<g id="node10" class="node"><title>Node6</title>
<polygon fill="white" stroke="#bfbfbf" points="73.5,-232.5 73.5,-253.5 144.5,-253.5 144.5,-232.5 73.5,-232.5"/>
<text text-anchor="middle" x="109" y="-240.5" font-family="Verdana" font-size="10.00">IXmlSource</text>
</g>
<!-- Node6&#45;&gt;Node4 -->
<g id="edge10" class="edge"><title>Node6&#45;&gt;Node4</title>
<path fill="none" stroke="midnightblue" d="M95.54,-223.959C88.869,-214.522 81.0659,-203.484 75.4724,-195.571"/>
<polygon fill="midnightblue" stroke="midnightblue" points="92.8495,-226.216 101.48,-232.362 98.5656,-222.176 92.8495,-226.216"/>
</g>
</g>
</svg>
