<?xml version="1.0" encoding="UTF-8" standalone="no"?>
<!DOCTYPE svg PUBLIC "-//W3C//DTD SVG 1.1//EN"
 "http://www.w3.org/Graphics/SVG/1.1/DTD/svg11.dtd">
<!-- Generated by graphviz version 2.26.3 (20100126.1600)
 -->
<!-- Title: CConfigurableDomain::findConfigurationBlackboard Pages: 1 -->
<svg width="522pt" height="218pt"
 viewBox="0.00 0.00 522.00 218.00" xmlns="http://www.w3.org/2000/svg" xmlns:xlink="http://www.w3.org/1999/xlink">
<g id="graph1" class="graph" transform="scale(1 1) rotate(0) translate(4 214)">
<title>CConfigurableDomain::findConfigurationBlackboard</title>
<polygon fill="white" stroke="white" points="-4,5 -4,-214 519,-214 519,5 -4,5"/>
<!-- Node1 -->
<g id="node1" class="node"><title>Node1</title>
<polygon fill="#bfbfbf" stroke="black" points="0.5,-101 0.5,-135 157.5,-135 157.5,-101 0.5,-101"/>
<text text-anchor="start" x="8.5" y="-122" font-family="Verdana" font-size="10.00">CConfigurableDomain</text>
<text text-anchor="middle" x="79" y="-109" font-family="Verdana" font-size="10.00">::findConfigurationBlackboard</text>
</g>
<!-- Node2 -->
<g id="node3" class="node"><title>Node2</title>
<a xlink:href="classCElement.html#a8595814a3159f32f874269907e70b260" target="_top" xlink:title="CElement::findChild">
<polygon fill="white" stroke="black" points="212,-188.5 212,-209.5 322,-209.5 322,-188.5 212,-188.5"/>
<text text-anchor="middle" x="267" y="-196.5" font-family="Verdana" font-size="10.00">CElement::findChild</text>
</a>
</g>
<!-- Node1&#45;&gt;Node2 -->
<g id="edge2" class="edge"><title>Node1&#45;&gt;Node2</title>
<path fill="none" stroke="midnightblue" d="M106.995,-135.098C129.783,-148.457 163.118,-166.753 194,-179 199.932,-181.353 206.24,-183.532 212.569,-185.52"/>
<polygon fill="midnightblue" stroke="midnightblue" points="211.895,-188.972 222.479,-188.483 213.9,-182.265 211.895,-188.972"/>
</g>
<!-- Node3 -->
<g id="node5" class="node"><title>Node3</title>
<a xlink:href="classCElement.html#a7653fbad5491138533ac0fa889ffecd9" target="_top" xlink:title="CElement::isDescendantOf">
<polygon fill="white" stroke="black" points="194.5,-130.5 194.5,-151.5 339.5,-151.5 339.5,-130.5 194.5,-130.5"/>
<text text-anchor="middle" x="267" y="-138.5" font-family="Verdana" font-size="10.00">CElement::isDescendantOf</text>
</a>
</g>
<!-- Node1&#45;&gt;Node3 -->
<g id="edge4" class="edge"><title>Node1&#45;&gt;Node3</title>
<path fill="none" stroke="midnightblue" d="M157.64,-127.621C166.485,-128.703 175.518,-129.808 184.412,-130.896"/>
<polygon fill="midnightblue" stroke="midnightblue" points="184.026,-134.375 194.377,-132.115 184.876,-127.427 184.026,-134.375"/>
</g>
<!-- Node4 -->
<g id="node8" class="node"><title>Node4</title>
<a xlink:href="classCConfigurableElement.html#a29d61e6d09ff508ebb87aea802f2704e" target="_top" xlink:title="CConfigurableElement\l::getOffset">
<polygon fill="white" stroke="black" points="205.5,-78 205.5,-112 328.5,-112 328.5,-78 205.5,-78"/>
<text text-anchor="start" x="213.5" y="-99" font-family="Verdana" font-size="10.00">CConfigurableElement</text>
<text text-anchor="middle" x="267" y="-86" font-family="Verdana" font-size="10.00">::getOffset</text>
</a>
</g>
<!-- Node1&#45;&gt;Node4 -->
<g id="edge8" class="edge"><title>Node1&#45;&gt;Node4</title>
<path fill="none" stroke="midnightblue" d="M157.64,-108.379C170.06,-106.86 182.848,-105.295 195.104,-103.796"/>
<polygon fill="midnightblue" stroke="midnightblue" points="195.754,-107.242 205.255,-102.554 194.904,-100.294 195.754,-107.242"/>
</g>
<!-- Node5 -->
<g id="node10" class="node"><title>Node5</title>
<a xlink:href="classCDomainConfiguration.html#af62bcfe2b30d19e292a8aa4ddba3cd89" target="_top" xlink:title="Get the Configuration Blackboard. ">
<polygon fill="white" stroke="black" points="204.5,-26 204.5,-60 329.5,-60 329.5,-26 204.5,-26"/>
<text text-anchor="start" x="212.5" y="-47" font-family="Verdana" font-size="10.00">CDomainConfiguration</text>
<text text-anchor="middle" x="267" y="-34" font-family="Verdana" font-size="10.00">::getBlackboard</text>
</a>
</g>
<!-- Node1&#45;&gt;Node5 -->
<g id="edge10" class="edge"><title>Node1&#45;&gt;Node5</title>
<path fill="none" stroke="midnightblue" d="M117.356,-100.968C139.601,-91.2636 168.227,-79.0697 194,-69 198.539,-67.2267 203.254,-65.4348 208.006,-63.665"/>
<polygon fill="midnightblue" stroke="midnightblue" points="209.587,-66.8127 217.764,-60.0763 207.171,-60.2429 209.587,-66.8127"/>
</g>
<!-- Node3&#45;&gt;Node3 -->
<g id="edge6" class="edge"><title>Node3&#45;&gt;Node3</title>
<path fill="none" stroke="midnightblue" d="M238.718,-151.708C226.631,-160.653 236.059,-170 267,-170 287.305,-170 298.345,-165.975 300.12,-160.679"/>
<polygon fill="midnightblue" stroke="midnightblue" points="303.109,-158.848 295.282,-151.708 296.948,-162.171 303.109,-158.848"/>
</g>
<!-- Node6 -->
<g id="node12" class="node"><title>Node6</title>
<a xlink:href="classCAreaConfiguration.html#a1f85dedf12591c3f43830a00e5c352df" target="_top" xlink:title="CAreaConfiguration\l::getConfigurableElement">
<polygon fill="white" stroke="black" points="376,-52 376,-86 514,-86 514,-52 376,-52"/>
<text text-anchor="start" x="384" y="-73" font-family="Verdana" font-size="10.00">CAreaConfiguration</text>
<text text-anchor="middle" x="445" y="-60" font-family="Verdana" font-size="10.00">::getConfigurableElement</text>
</a>
</g>
<!-- Node5&#45;&gt;Node6 -->
<g id="edge12" class="edge"><title>Node5&#45;&gt;Node6</title>
<path fill="none" stroke="midnightblue" d="M329.506,-52.1301C341.245,-53.8448 353.661,-55.6583 365.828,-57.4356"/>
<polygon fill="midnightblue" stroke="midnightblue" points="365.57,-60.9349 375.971,-58.9171 366.581,-54.0084 365.57,-60.9349"/>
</g>
<!-- Node7 -->
<g id="node14" class="node"><title>Node7</title>
<a xlink:href="classCAreaConfiguration.html#af01dc3ba15a4deb4a713cb2d4f9b1faa" target="_top" xlink:title="CAreaConfiguration\l::getBlackboard">
<polygon fill="white" stroke="black" points="390,-0 390,-34 500,-34 500,-0 390,-0"/>
<text text-anchor="start" x="398" y="-21" font-family="Verdana" font-size="10.00">CAreaConfiguration</text>
<text text-anchor="middle" x="445" y="-8" font-family="Verdana" font-size="10.00">::getBlackboard</text>
</a>
</g>
<!-- Node5&#45;&gt;Node7 -->
<g id="edge14" class="edge"><title>Node5&#45;&gt;Node7</title>
<path fill="none" stroke="midnightblue" d="M329.506,-33.8699C345.765,-31.495 363.323,-28.9304 379.721,-26.5351"/>
<polygon fill="midnightblue" stroke="midnightblue" points="380.371,-29.9774 389.76,-25.0688 379.359,-23.0509 380.371,-29.9774"/>
</g>
</g>
</svg>
