<?xml version="1.0" encoding="UTF-8" standalone="no"?>
<!DOCTYPE svg PUBLIC "-//W3C//DTD SVG 1.1//EN"
 "http://www.w3.org/Graphics/SVG/1.1/DTD/svg11.dtd">
<!-- Generated by graphviz version 2.26.3 (20100126.1600)
 -->
<!-- Title: CIntegerParameterType::showProperties Pages: 1 -->
<svg width="448pt" height="78pt"
 viewBox="0.00 0.00 448.00 78.00" xmlns="http://www.w3.org/2000/svg" xmlns:xlink="http://www.w3.org/1999/xlink">
<g id="graph1" class="graph" transform="scale(1 1) rotate(0) translate(4 74)">
<title>CIntegerParameterType::showProperties</title>
<polygon fill="white" stroke="white" points="-4,5 -4,-74 445,-74 445,5 -4,5"/>
<!-- Node1 -->
<g id="node1" class="node"><title>Node1</title>
<polygon fill="#bfbfbf" stroke="black" points="0,-22 0,-56 128,-56 128,-22 0,-22"/>
<text text-anchor="start" x="8" y="-43" font-family="Verdana" font-size="10.00">CIntegerParameterType</text>
<text text-anchor="middle" x="64" y="-30" font-family="Verdana" font-size="10.00">::showProperties</text>
</g>
<!-- Node2 -->
<g id="node3" class="node"><title>Node2</title>
<a xlink:href="classCElement.html#aacdd6d54c10cd1494a820d78be779362" target="_top" xlink:title="CElement::toString">
<polygon fill="white" stroke="black" points="329.5,-48.5 329.5,-69.5 436.5,-69.5 436.5,-48.5 329.5,-48.5"/>
<text text-anchor="middle" x="383" y="-56.5" font-family="Verdana" font-size="10.00">CElement::toString</text>
</a>
</g>
<!-- Node1&#45;&gt;Node2 -->
<g id="edge2" class="edge"><title>Node1&#45;&gt;Node2</title>
<path fill="none" stroke="midnightblue" d="M128.171,-43.0232C183.751,-46.5079 263.725,-51.5219 319.197,-54.9998"/>
<polygon fill="midnightblue" stroke="midnightblue" points="319.059,-58.4979 329.258,-55.6306 319.497,-51.5117 319.059,-58.4979"/>
</g>
<!-- Node3 -->
<g id="node5" class="node"><title>Node3</title>
<a xlink:href="classCParameterAdaptation.html#a834e99e4cda9f48eb02c506e21a49f40" target="_top" xlink:title="CParameterAdaptation\l::showProperties">
<polygon fill="white" stroke="black" points="164,-0 164,-34 290,-34 290,-0 164,-0"/>
<text text-anchor="start" x="172" y="-21" font-family="Verdana" font-size="10.00">CParameterAdaptation</text>
<text text-anchor="middle" x="227" y="-8" font-family="Verdana" font-size="10.00">::showProperties</text>
</a>
</g>
<!-- Node1&#45;&gt;Node3 -->
<g id="edge4" class="edge"><title>Node1&#45;&gt;Node3</title>
<path fill="none" stroke="midnightblue" d="M128.422,-30.305C136.71,-29.1864 145.244,-28.0346 153.661,-26.8985"/>
<polygon fill="midnightblue" stroke="midnightblue" points="154.403,-30.3302 163.845,-25.524 153.467,-23.3931 154.403,-30.3302"/>
</g>
<!-- Node3&#45;&gt;Node2 -->
<g id="edge8" class="edge"><title>Node3&#45;&gt;Node2</title>
<path fill="none" stroke="midnightblue" d="M290.002,-33.9619C304.563,-37.8824 319.85,-41.9981 333.727,-45.7341"/>
<polygon fill="midnightblue" stroke="midnightblue" points="332.985,-49.159 343.551,-48.3792 334.805,-42.3997 332.985,-49.159"/>
</g>
<!-- Node4 -->
<g id="node7" class="node"><title>Node4</title>
<a xlink:href="classCElement.html#a49581fb6412e29e932962acd82d52d6a" target="_top" xlink:title="CElement::getName">
<polygon fill="white" stroke="black" points="326,-6.5 326,-27.5 440,-27.5 440,-6.5 326,-6.5"/>
<text text-anchor="middle" x="383" y="-14.5" font-family="Verdana" font-size="10.00">CElement::getName</text>
</a>
</g>
<!-- Node3&#45;&gt;Node4 -->
<g id="edge6" class="edge"><title>Node3&#45;&gt;Node4</title>
<path fill="none" stroke="midnightblue" d="M290.002,-17C298.418,-17 307.077,-17 315.565,-17"/>
<polygon fill="midnightblue" stroke="midnightblue" points="315.808,-20.5001 325.808,-17 315.808,-13.5001 315.808,-20.5001"/>
</g>
</g>
</svg>
