<?xml version="1.0" encoding="UTF-8" standalone="no"?>
<!DOCTYPE svg PUBLIC "-//W3C//DTD SVG 1.1//EN"
 "http://www.w3.org/Graphics/SVG/1.1/DTD/svg11.dtd">
<!-- Generated by graphviz version 2.26.3 (20100126.1600)
 -->
<!-- Title: CIntegerParameterType::toBlackboard Pages: 1 -->
<svg width="300pt" height="82pt"
 viewBox="0.00 0.00 300.00 82.00" xmlns="http://www.w3.org/2000/svg" xmlns:xlink="http://www.w3.org/1999/xlink">
<g id="graph1" class="graph" transform="scale(1 1) rotate(0) translate(4 78)">
<title>CIntegerParameterType::toBlackboard</title>
<polygon fill="white" stroke="white" points="-4,5 -4,-78 297,-78 297,5 -4,5"/>
<!-- Node1 -->
<g id="node1" class="node"><title>Node1</title>
<polygon fill="#bfbfbf" stroke="black" points="0,-17 0,-51 128,-51 128,-17 0,-17"/>
<text text-anchor="start" x="8" y="-38" font-family="Verdana" font-size="10.00">CIntegerParameterType</text>
<text text-anchor="middle" x="64" y="-25" font-family="Verdana" font-size="10.00">::toBlackboard</text>
</g>
<!-- Node2 -->
<g id="node3" class="node"><title>Node2</title>
<a xlink:href="classCParameterAdaptation.html#ab04215618b616e4b3fc331bd66a90589" target="_top" xlink:title="CParameterAdaptation\l::fromUserValue">
<polygon fill="white" stroke="black" points="165,-40 165,-74 291,-74 291,-40 165,-40"/>
<text text-anchor="start" x="173" y="-61" font-family="Verdana" font-size="10.00">CParameterAdaptation</text>
<text text-anchor="middle" x="228" y="-48" font-family="Verdana" font-size="10.00">::fromUserValue</text>
</a>
</g>
<!-- Node1&#45;&gt;Node2 -->
<g id="edge2" class="edge"><title>Node1&#45;&gt;Node2</title>
<path fill="none" stroke="midnightblue" d="M128.346,-43.0242C137.083,-44.2495 146.101,-45.5141 154.976,-46.7589"/>
<polygon fill="midnightblue" stroke="midnightblue" points="154.525,-50.2297 164.914,-48.1526 155.497,-43.2976 154.525,-50.2297"/>
</g>
<!-- Node3 -->
<g id="node5" class="node"><title>Node3</title>
<a xlink:href="classCErrorContext.html#a9d58b281c0d0fc9a6d3b83714cf812ef" target="_top" xlink:title="CErrorContext::setError">
<polygon fill="white" stroke="black" points="164,-0.5 164,-21.5 292,-21.5 292,-0.5 164,-0.5"/>
<text text-anchor="middle" x="228" y="-8.5" font-family="Verdana" font-size="10.00">CErrorContext::setError</text>
</a>
</g>
<!-- Node1&#45;&gt;Node3 -->
<g id="edge4" class="edge"><title>Node1&#45;&gt;Node3</title>
<path fill="none" stroke="midnightblue" d="M128.346,-24.9758C136.731,-23.7999 145.375,-22.5877 153.903,-21.3917"/>
<polygon fill="midnightblue" stroke="midnightblue" points="154.422,-24.8532 163.839,-19.9982 153.45,-17.921 154.422,-24.8532"/>
</g>
</g>
</svg>
