<?xml version="1.0" encoding="UTF-8" standalone="no"?>
<!DOCTYPE svg PUBLIC "-//W3C//DTD SVG 1.1//EN"
 "http://www.w3.org/Graphics/SVG/1.1/DTD/svg11.dtd">
<!-- Generated by graphviz version 2.26.3 (20100126.1600)
 -->
<!-- Title: TNamedElementBuilderTemplate&lt; ElementType &gt; Pages: 1 -->
<svg width="212pt" height="190pt"
 viewBox="0.00 0.00 212.00 190.00" xmlns="http://www.w3.org/2000/svg" xmlns:xlink="http://www.w3.org/1999/xlink">
<g id="graph1" class="graph" transform="scale(1 1) rotate(0) translate(4 186)">
<title>TNamedElementBuilderTemplate&lt; ElementType &gt;</title>
<polygon fill="white" stroke="white" points="-4,5 -4,-186 209,-186 209,5 -4,5"/>
<!-- Node1 -->
<g id="node1" class="node"><title>Node1</title>
<polygon fill="#bfbfbf" stroke="black" points="-0.5,-87 -0.5,-121 172.5,-121 172.5,-87 -0.5,-87"/>
<text text-anchor="start" x="7.5" y="-108" font-family="Verdana" font-size="10.00">TNamedElementBuilderTemplate</text>
<text text-anchor="middle" x="86" y="-95" font-family="Verdana" font-size="10.00">&lt; ElementType &gt;</text>
</g>
<!-- Node3 -->
<g id="node5" class="node"><title>Node3</title>
<a xlink:href="classTNamedElementBuilderTemplate.html" target="_top" xlink:title="TNamedElementBuilderTemplate\l\&lt; CVirtualSubsystem \&gt;">
<polygon fill="white" stroke="black" points="-0.5,-1 -0.5,-35 172.5,-35 172.5,-1 -0.5,-1"/>
<text text-anchor="start" x="7.5" y="-22" font-family="Verdana" font-size="10.00">TNamedElementBuilderTemplate</text>
<text text-anchor="middle" x="86" y="-9" font-family="Verdana" font-size="10.00">&lt; CVirtualSubsystem &gt;</text>
</a>
</g>
<!-- Node1&#45;&gt;Node3 -->
<g id="edge4" class="edge"><title>Node1&#45;&gt;Node3</title>
<path fill="none" stroke="orange" stroke-dasharray="5,2" d="M86,-76.342C86,-62.7741 86,-46.8607 86,-35.084"/>
<polygon fill="orange" stroke="orange" points="82.5001,-76.5966 86,-86.5966 89.5001,-76.5967 82.5001,-76.5966"/>
<text text-anchor="middle" x="145" y="-58.5" font-family="Verdana" font-size="10.00"> &lt; CVirtualSubsystem &gt;</text>
</g>
<!-- Node2 -->
<g id="node2" class="node"><title>Node2</title>
<a xlink:href="classCElementBuilder.html" target="_top" xlink:title="CElementBuilder">
<polygon fill="white" stroke="black" points="38,-160.5 38,-181.5 134,-181.5 134,-160.5 38,-160.5"/>
<text text-anchor="middle" x="86" y="-168.5" font-family="Verdana" font-size="10.00">CElementBuilder</text>
</a>
</g>
<!-- Node2&#45;&gt;Node1 -->
<g id="edge2" class="edge"><title>Node2&#45;&gt;Node1</title>
<path fill="none" stroke="midnightblue" d="M86,-150.165C86,-140.797 86,-129.88 86,-121.014"/>
<polygon fill="midnightblue" stroke="midnightblue" points="82.5001,-150.235 86,-160.235 89.5001,-150.235 82.5001,-150.235"/>
</g>
</g>
</svg>
