<?xml version="1.0" encoding="UTF-8" standalone="no"?>
<!DOCTYPE svg PUBLIC "-//W3C//DTD SVG 1.1//EN"
 "http://www.w3.org/Graphics/SVG/1.1/DTD/svg11.dtd">
<!-- Generated by graphviz version 2.26.3 (20100126.1600)
 -->
<!-- Title: CAreaConfiguration::getBlackboard Pages: 1 -->
<svg width="474pt" height="42pt"
 viewBox="0.00 0.00 474.00 42.00" xmlns="http://www.w3.org/2000/svg" xmlns:xlink="http://www.w3.org/1999/xlink">
<g id="graph1" class="graph" transform="scale(1 1) rotate(0) translate(4 38)">
<title>CAreaConfiguration::getBlackboard</title>
<polygon fill="white" stroke="white" points="-4,5 -4,-38 471,-38 471,5 -4,5"/>
<!-- Node1 -->
<g id="node1" class="node"><title>Node1</title>
<polygon fill="#bfbfbf" stroke="black" points="0,-0 0,-34 110,-34 110,-0 0,-0"/>
<text text-anchor="start" x="8" y="-21" font-family="Verdana" font-size="10.00">CAreaConfiguration</text>
<text text-anchor="middle" x="55" y="-8" font-family="Verdana" font-size="10.00">::getBlackboard</text>
</g>
<!-- Node2 -->
<g id="node3" class="node"><title>Node2</title>
<a xlink:href="classCDomainConfiguration.html#af62bcfe2b30d19e292a8aa4ddba3cd89" target="_top" xlink:title="Get the Configuration Blackboard. ">
<polygon fill="white" stroke="black" points="146.5,-0 146.5,-34 271.5,-34 271.5,-0 146.5,-0"/>
<text text-anchor="start" x="154.5" y="-21" font-family="Verdana" font-size="10.00">CDomainConfiguration</text>
<text text-anchor="middle" x="209" y="-8" font-family="Verdana" font-size="10.00">::getBlackboard</text>
</a>
</g>
<!-- Node1&#45;&gt;Node2 -->
<g id="edge2" class="edge"><title>Node1&#45;&gt;Node2</title>
<path fill="none" stroke="midnightblue" d="M120.214,-17C128.88,-17 137.749,-17 146.369,-17"/>
<polygon fill="midnightblue" stroke="midnightblue" points="120.163,-13.5001 110.163,-17 120.163,-20.5001 120.163,-13.5001"/>
</g>
<!-- Node3 -->
<g id="node5" class="node"><title>Node3</title>
<a xlink:href="classCConfigurableDomain.html#a0fec7c3bd4cf280eb64db3803d226836" target="_top" xlink:title="Blackboard Configuration and Base Offset retrieval. ">
<polygon fill="white" stroke="black" points="308.5,-0 308.5,-34 465.5,-34 465.5,-0 308.5,-0"/>
<text text-anchor="start" x="316.5" y="-21" font-family="Verdana" font-size="10.00">CConfigurableDomain</text>
<text text-anchor="middle" x="387" y="-8" font-family="Verdana" font-size="10.00">::findConfigurationBlackboard</text>
</a>
</g>
<!-- Node2&#45;&gt;Node3 -->
<g id="edge4" class="edge"><title>Node2&#45;&gt;Node3</title>
<path fill="none" stroke="midnightblue" d="M281.708,-17C290.503,-17 299.518,-17 308.393,-17"/>
<polygon fill="midnightblue" stroke="midnightblue" points="281.506,-13.5001 271.506,-17 281.506,-20.5001 281.506,-13.5001"/>
</g>
</g>
</svg>
