<?xml version="1.0" encoding="UTF-8" standalone="no"?>
<!DOCTYPE svg PUBLIC "-//W3C//DTD SVG 1.1//EN"
 "http://www.w3.org/Graphics/SVG/1.1/DTD/svg11.dtd">
<!-- Generated by graphviz version 2.26.3 (20100126.1600)
 -->
<!-- Title: CRuleParser::parse Pages: 1 -->
<svg width="818pt" height="42pt"
 viewBox="0.00 0.00 818.00 42.00" xmlns="http://www.w3.org/2000/svg" xmlns:xlink="http://www.w3.org/1999/xlink">
<g id="graph1" class="graph" transform="scale(1 1) rotate(0) translate(4 38)">
<title>CRuleParser::parse</title>
<polygon fill="white" stroke="white" points="-4,5 -4,-38 815,-38 815,5 -4,5"/>
<!-- Node1 -->
<g id="node1" class="node"><title>Node1</title>
<polygon fill="#bfbfbf" stroke="black" points="0,-6.5 0,-27.5 106,-27.5 106,-6.5 0,-6.5"/>
<text text-anchor="middle" x="53" y="-14.5" font-family="Verdana" font-size="10.00">CRuleParser::parse</text>
</g>
<!-- Node2 -->
<g id="node3" class="node"><title>Node2</title>
<a xlink:href="classCDomainConfiguration.html#a3b12c8d561b1e468bd03214326bdf450" target="_top" xlink:title="CDomainConfiguration\l::setApplicationRule">
<polygon fill="white" stroke="black" points="142.5,-0 142.5,-34 267.5,-34 267.5,-0 142.5,-0"/>
<text text-anchor="start" x="150.5" y="-21" font-family="Verdana" font-size="10.00">CDomainConfiguration</text>
<text text-anchor="middle" x="205" y="-8" font-family="Verdana" font-size="10.00">::setApplicationRule</text>
</a>
</g>
<!-- Node1&#45;&gt;Node2 -->
<g id="edge2" class="edge"><title>Node1&#45;&gt;Node2</title>
<path fill="none" stroke="midnightblue" d="M116.22,-17C124.901,-17 133.811,-17 142.48,-17"/>
<polygon fill="midnightblue" stroke="midnightblue" points="116.162,-13.5001 106.162,-17 116.162,-20.5001 116.162,-13.5001"/>
</g>
<!-- Node3 -->
<g id="node5" class="node"><title>Node3</title>
<a xlink:href="classCConfigurableDomain.html#ab28e6a66ae7197d4fa131193f32891f4" target="_top" xlink:title="CConfigurableDomain\l::setApplicationRule">
<polygon fill="white" stroke="black" points="304.5,-0 304.5,-34 425.5,-34 425.5,-0 304.5,-0"/>
<text text-anchor="start" x="312.5" y="-21" font-family="Verdana" font-size="10.00">CConfigurableDomain</text>
<text text-anchor="middle" x="365" y="-8" font-family="Verdana" font-size="10.00">::setApplicationRule</text>
</a>
</g>
<!-- Node2&#45;&gt;Node3 -->
<g id="edge4" class="edge"><title>Node2&#45;&gt;Node3</title>
<path fill="none" stroke="midnightblue" d="M277.787,-17C286.72,-17 295.774,-17 304.498,-17"/>
<polygon fill="midnightblue" stroke="midnightblue" points="277.777,-13.5001 267.777,-17 277.777,-20.5001 277.777,-13.5001"/>
</g>
<!-- Node4 -->
<g id="node7" class="node"><title>Node4</title>
<a xlink:href="classCConfigurableDomains.html#ac2b2354eecc80c7ca4a71fe2f40606ed" target="_top" xlink:title="CConfigurableDomains\l::setApplicationRule">
<polygon fill="white" stroke="black" points="462,-0 462,-34 588,-34 588,-0 462,-0"/>
<text text-anchor="start" x="470" y="-21" font-family="Verdana" font-size="10.00">CConfigurableDomains</text>
<text text-anchor="middle" x="525" y="-8" font-family="Verdana" font-size="10.00">::setApplicationRule</text>
</a>
</g>
<!-- Node3&#45;&gt;Node4 -->
<g id="edge6" class="edge"><title>Node3&#45;&gt;Node4</title>
<path fill="none" stroke="midnightblue" d="M435.97,-17C444.585,-17 453.341,-17 461.833,-17"/>
<polygon fill="midnightblue" stroke="midnightblue" points="435.946,-13.5001 425.946,-17 435.946,-20.5001 435.946,-13.5001"/>
</g>
<!-- Node5 -->
<g id="node9" class="node"><title>Node5</title>
<a xlink:href="classCParameterMgr.html#af63f9ad7f792b2bf226afd791c1db70e" target="_top" xlink:title="CParameterMgr::setApplicationRule">
<polygon fill="white" stroke="black" points="624.5,-6.5 624.5,-27.5 809.5,-27.5 809.5,-6.5 624.5,-6.5"/>
<text text-anchor="middle" x="717" y="-14.5" font-family="Verdana" font-size="10.00">CParameterMgr::setApplicationRule</text>
</a>
</g>
<!-- Node4&#45;&gt;Node5 -->
<g id="edge8" class="edge"><title>Node4&#45;&gt;Node5</title>
<path fill="none" stroke="midnightblue" d="M598.344,-17C606.831,-17 615.57,-17 624.272,-17"/>
<polygon fill="midnightblue" stroke="midnightblue" points="598.134,-13.5001 588.134,-17 598.134,-20.5001 598.134,-13.5001"/>
</g>
</g>
</svg>
