<?xml version="1.0" encoding="UTF-8" standalone="no"?>
<!DOCTYPE svg PUBLIC "-//W3C//DTD SVG 1.1//EN"
 "http://www.w3.org/Graphics/SVG/1.1/DTD/svg11.dtd">
<!-- Generated by graphviz version 2.26.3 (20100126.1600)
 -->
<!-- Title: CSelectionCriterion::resetModifiedStatus Pages: 1 -->
<svg width="468pt" height="42pt"
 viewBox="0.00 0.00 468.00 42.00" xmlns="http://www.w3.org/2000/svg" xmlns:xlink="http://www.w3.org/1999/xlink">
<g id="graph1" class="graph" transform="scale(1 1) rotate(0) translate(4 38)">
<title>CSelectionCriterion::resetModifiedStatus</title>
<polygon fill="white" stroke="white" points="-4,5 -4,-38 465,-38 465,5 -4,5"/>
<!-- Node1 -->
<g id="node1" class="node"><title>Node1</title>
<polygon fill="#bfbfbf" stroke="black" points="0.5,-0 0.5,-34 119.5,-34 119.5,-0 0.5,-0"/>
<text text-anchor="start" x="8.5" y="-21" font-family="Verdana" font-size="10.00">CSelectionCriterion</text>
<text text-anchor="middle" x="60" y="-8" font-family="Verdana" font-size="10.00">::resetModifiedStatus</text>
</g>
<!-- Node2 -->
<g id="node3" class="node"><title>Node2</title>
<a xlink:href="classCSelectionCriteriaDefinition.html#afd90c898acdd1251a4b5ffd931c46b2b" target="_top" xlink:title="CSelectionCriteriaDefinition\l::resetModifiedStatus">
<polygon fill="white" stroke="black" points="156.5,-0 156.5,-34 303.5,-34 303.5,-0 156.5,-0"/>
<text text-anchor="start" x="164.5" y="-21" font-family="Verdana" font-size="10.00">CSelectionCriteriaDefinition</text>
<text text-anchor="middle" x="230" y="-8" font-family="Verdana" font-size="10.00">::resetModifiedStatus</text>
</a>
</g>
<!-- Node1&#45;&gt;Node2 -->
<g id="edge2" class="edge"><title>Node1&#45;&gt;Node2</title>
<path fill="none" stroke="midnightblue" d="M130.001,-17C138.678,-17 147.571,-17 156.302,-17"/>
<polygon fill="midnightblue" stroke="midnightblue" points="129.936,-13.5001 119.936,-17 129.936,-20.5001 129.936,-13.5001"/>
</g>
<!-- Node3 -->
<g id="node5" class="node"><title>Node3</title>
<a xlink:href="classCSelectionCriteria.html#a8470a08d025d7d9f06e7f2193bb57a49" target="_top" xlink:title="CSelectionCriteria\l::resetModifiedStatus">
<polygon fill="white" stroke="black" points="340.5,-0 340.5,-34 459.5,-34 459.5,-0 340.5,-0"/>
<text text-anchor="start" x="348.5" y="-21" font-family="Verdana" font-size="10.00">CSelectionCriteria</text>
<text text-anchor="middle" x="400" y="-8" font-family="Verdana" font-size="10.00">::resetModifiedStatus</text>
</a>
</g>
<!-- Node2&#45;&gt;Node3 -->
<g id="edge4" class="edge"><title>Node2&#45;&gt;Node3</title>
<path fill="none" stroke="midnightblue" d="M313.712,-17C322.716,-17 331.739,-17 340.377,-17"/>
<polygon fill="midnightblue" stroke="midnightblue" points="313.576,-13.5001 303.576,-17 313.576,-20.5001 313.576,-13.5001"/>
</g>
</g>
</svg>
