<?xml version="1.0" encoding="UTF-8" standalone="no"?>
<!DOCTYPE svg PUBLIC "-//W3C//DTD SVG 1.1//EN"
 "http://www.w3.org/Graphics/SVG/1.1/DTD/svg11.dtd">
<!-- Generated by graphviz version 2.26.3 (20100126.1600)
 -->
<!-- Title: CSelectionCriterionType::isTypeInclusive Pages: 1 -->
<svg width="808pt" height="146pt"
 viewBox="0.00 0.00 808.00 146.00" xmlns="http://www.w3.org/2000/svg" xmlns:xlink="http://www.w3.org/1999/xlink">
<g id="graph1" class="graph" transform="scale(1 1) rotate(0) translate(4 142)">
<title>CSelectionCriterionType::isTypeInclusive</title>
<polygon fill="white" stroke="white" points="-4,5 -4,-142 805,-142 805,5 -4,5"/>
<!-- Node1 -->
<g id="node1" class="node"><title>Node1</title>
<polygon fill="#bfbfbf" stroke="black" points="0.5,-26 0.5,-60 129.5,-60 129.5,-26 0.5,-26"/>
<text text-anchor="start" x="8.5" y="-47" font-family="Verdana" font-size="10.00">CSelectionCriterionType</text>
<text text-anchor="middle" x="65" y="-34" font-family="Verdana" font-size="10.00">::isTypeInclusive</text>
</g>
<!-- Node2 -->
<g id="node3" class="node"><title>Node2</title>
<a xlink:href="classCSelectionCriterion.html#a10a460a1ee7b1a38b34ab8eb90ea74f9" target="_top" xlink:title="User request. ">
<polygon fill="white" stroke="black" points="166.5,-52 166.5,-86 309.5,-86 309.5,-52 166.5,-52"/>
<text text-anchor="start" x="174.5" y="-73" font-family="Verdana" font-size="10.00">CSelectionCriterion</text>
<text text-anchor="middle" x="238" y="-60" font-family="Verdana" font-size="10.00">::getFormattedDescription</text>
</a>
</g>
<!-- Node1&#45;&gt;Node2 -->
<g id="edge2" class="edge"><title>Node1&#45;&gt;Node2</title>
<path fill="none" stroke="midnightblue" d="M140.058,-54.2805C148.783,-55.5916 157.665,-56.9266 166.342,-58.2307"/>
<polygon fill="midnightblue" stroke="midnightblue" points="140.32,-50.7806 129.911,-52.7554 139.28,-57.7028 140.32,-50.7806"/>
</g>
<!-- Node7 -->
<g id="node13" class="node"><title>Node7</title>
<a xlink:href="classCSelectionCriterionType.html#a95813f4b14f06857afaf8a50d0d62600" target="_top" xlink:title="Export to XML. ">
<polygon fill="white" stroke="black" points="173.5,-0 173.5,-34 302.5,-34 302.5,-0 173.5,-0"/>
<text text-anchor="start" x="181.5" y="-21" font-family="Verdana" font-size="10.00">CSelectionCriterionType</text>
<text text-anchor="middle" x="238" y="-8" font-family="Verdana" font-size="10.00">::toXml</text>
</a>
</g>
<!-- Node1&#45;&gt;Node7 -->
<g id="edge12" class="edge"><title>Node1&#45;&gt;Node7</title>
<path fill="none" stroke="midnightblue" d="M140.003,-31.7278C151.095,-30.0609 162.443,-28.3554 173.301,-26.7236"/>
<polygon fill="midnightblue" stroke="midnightblue" points="139.28,-28.2972 129.911,-33.2446 140.32,-35.2194 139.28,-28.2972"/>
</g>
<!-- Node3 -->
<g id="node5" class="node"><title>Node3</title>
<a xlink:href="classCSelectionCriteriaDefinition.html#a24f1eb22f90ddb42ee971bdfc5f99aa5" target="_top" xlink:title="CSelectionCriteriaDefinition\l::listSelectionCriteria">
<polygon fill="white" stroke="black" points="346.5,-104 346.5,-138 493.5,-138 493.5,-104 346.5,-104"/>
<text text-anchor="start" x="354.5" y="-125" font-family="Verdana" font-size="10.00">CSelectionCriteriaDefinition</text>
<text text-anchor="middle" x="420" y="-112" font-family="Verdana" font-size="10.00">::listSelectionCriteria</text>
</a>
</g>
<!-- Node2&#45;&gt;Node3 -->
<g id="edge4" class="edge"><title>Node2&#45;&gt;Node3</title>
<path fill="none" stroke="midnightblue" d="M307.66,-88.9029C325.008,-93.8593 343.452,-99.129 360.273,-103.935"/>
<polygon fill="midnightblue" stroke="midnightblue" points="308.17,-85.4087 297.594,-86.0267 306.247,-92.1394 308.17,-85.4087"/>
</g>
<!-- Node6 -->
<g id="node11" class="node"><title>Node6</title>
<a xlink:href="classCSelectionCriterion.html#a83e33a27a1094e00154018756c0be2dc" target="_top" xlink:title="From ISelectionCriterionInterface. ">
<polygon fill="white" stroke="black" points="366,-52 366,-86 474,-86 474,-52 366,-52"/>
<text text-anchor="start" x="374" y="-73" font-family="Verdana" font-size="10.00">CSelectionCriterion</text>
<text text-anchor="middle" x="420" y="-60" font-family="Verdana" font-size="10.00">::setCriterionState</text>
</a>
</g>
<!-- Node2&#45;&gt;Node6 -->
<g id="edge10" class="edge"><title>Node2&#45;&gt;Node6</title>
<path fill="none" stroke="midnightblue" d="M319.842,-69C335.43,-69 351.381,-69 365.839,-69"/>
<polygon fill="midnightblue" stroke="midnightblue" points="319.67,-65.5001 309.67,-69 319.67,-72.5001 319.67,-65.5001"/>
</g>
<!-- Node4 -->
<g id="node7" class="node"><title>Node4</title>
<a xlink:href="classCSelectionCriteria.html#a25ca6671e46d02c906f512f6b33a44e4" target="_top" xlink:title="CSelectionCriteria\l::listSelectionCriteria">
<polygon fill="white" stroke="black" points="530.5,-104 530.5,-138 645.5,-138 645.5,-104 530.5,-104"/>
<text text-anchor="start" x="538.5" y="-125" font-family="Verdana" font-size="10.00">CSelectionCriteria</text>
<text text-anchor="middle" x="588" y="-112" font-family="Verdana" font-size="10.00">::listSelectionCriteria</text>
</a>
</g>
<!-- Node3&#45;&gt;Node4 -->
<g id="edge6" class="edge"><title>Node3&#45;&gt;Node4</title>
<path fill="none" stroke="midnightblue" d="M503.785,-121C512.749,-121 521.716,-121 530.279,-121"/>
<polygon fill="midnightblue" stroke="midnightblue" points="503.687,-117.5 493.687,-121 503.687,-124.5 503.687,-117.5"/>
</g>
<!-- Node5 -->
<g id="node9" class="node"><title>Node5</title>
<a xlink:href="classCParameterMgr.html#aad4830a40d67cfae091cbf1a15ff29d0" target="_top" xlink:title="Load plugins, structures and settings from the config file given. ">
<polygon fill="white" stroke="black" points="682,-110.5 682,-131.5 800,-131.5 800,-110.5 682,-110.5"/>
<text text-anchor="middle" x="741" y="-118.5" font-family="Verdana" font-size="10.00">CParameterMgr::load</text>
</a>
</g>
<!-- Node4&#45;&gt;Node5 -->
<g id="edge8" class="edge"><title>Node4&#45;&gt;Node5</title>
<path fill="none" stroke="midnightblue" d="M655.889,-121C664.528,-121 673.316,-121 681.803,-121"/>
<polygon fill="midnightblue" stroke="midnightblue" points="655.843,-117.5 645.843,-121 655.843,-124.5 655.843,-117.5"/>
</g>
<!-- Node8 -->
<g id="node15" class="node"><title>Node8</title>
<a xlink:href="classCSelectionCriterion.html#a3942150fa9e5980d89268672fff31032" target="_top" xlink:title="Export to XML. ">
<polygon fill="white" stroke="black" points="366,-0 366,-34 474,-34 474,-0 366,-0"/>
<text text-anchor="start" x="374" y="-21" font-family="Verdana" font-size="10.00">CSelectionCriterion</text>
<text text-anchor="middle" x="420" y="-8" font-family="Verdana" font-size="10.00">::toXml</text>
</a>
</g>
<!-- Node7&#45;&gt;Node8 -->
<g id="edge14" class="edge"><title>Node7&#45;&gt;Node8</title>
<path fill="none" stroke="midnightblue" d="M312.975,-17C330.663,-17 349.184,-17 365.752,-17"/>
<polygon fill="midnightblue" stroke="midnightblue" points="312.679,-13.5001 302.679,-17 312.679,-20.5001 312.679,-13.5001"/>
</g>
</g>
</svg>
