<?xml version="1.0" encoding="UTF-8" standalone="no"?>
<!DOCTYPE svg PUBLIC "-//W3C//DTD SVG 1.1//EN"
 "http://www.w3.org/Graphics/SVG/1.1/DTD/svg11.dtd">
<!-- Generated by graphviz version 2.26.3 (20100126.1600)
 -->
<!-- Title: CElement::childrenToXml Pages: 1 -->
<svg width="316pt" height="110pt"
 viewBox="0.00 0.00 316.00 110.00" xmlns="http://www.w3.org/2000/svg" xmlns:xlink="http://www.w3.org/1999/xlink">
<g id="graph1" class="graph" transform="scale(1 1) rotate(0) translate(4 106)">
<title>CElement::childrenToXml</title>
<polygon fill="white" stroke="white" points="-4,5 -4,-106 313,-106 313,5 -4,5"/>
<!-- Node1 -->
<g id="node1" class="node"><title>Node1</title>
<polygon fill="#bfbfbf" stroke="black" points="0,-20.5 0,-41.5 134,-41.5 134,-20.5 0,-20.5"/>
<text text-anchor="middle" x="67" y="-28.5" font-family="Verdana" font-size="10.00">CElement::childrenToXml</text>
</g>
<!-- Node2 -->
<g id="node3" class="node"><title>Node2</title>
<a xlink:href="classCElement.html#a25f58d9d8b35e770806d669fb2a378e4" target="_top" xlink:title="CElement::getNbChildren">
<polygon fill="white" stroke="black" points="170.5,-80.5 170.5,-101.5 307.5,-101.5 307.5,-80.5 170.5,-80.5"/>
<text text-anchor="middle" x="239" y="-88.5" font-family="Verdana" font-size="10.00">CElement::getNbChildren</text>
</a>
</g>
<!-- Node1&#45;&gt;Node2 -->
<g id="edge2" class="edge"><title>Node1&#45;&gt;Node2</title>
<path fill="none" stroke="midnightblue" d="M92.5899,-41.664C113.292,-50.1143 143.289,-61.9618 170,-71 176.588,-73.2293 183.58,-75.4363 190.488,-77.5251"/>
<polygon fill="midnightblue" stroke="midnightblue" points="189.908,-81.0037 200.491,-80.4896 191.897,-74.2923 189.908,-81.0037"/>
</g>
<!-- Node3 -->
<g id="node5" class="node"><title>Node3</title>
<a xlink:href="classCElement.html#aed2ca7f2a56dbf2edcd82167859535ee" target="_top" xlink:title="CElement::getKind">
<polygon fill="white" stroke="black" points="186.5,-40.5 186.5,-61.5 291.5,-61.5 291.5,-40.5 186.5,-40.5"/>
<text text-anchor="middle" x="239" y="-48.5" font-family="Verdana" font-size="10.00">CElement::getKind</text>
</a>
</g>
<!-- Node1&#45;&gt;Node3 -->
<g id="edge4" class="edge"><title>Node1&#45;&gt;Node3</title>
<path fill="none" stroke="midnightblue" d="M134.485,-38.8471C148.21,-40.443 162.595,-42.1157 176.151,-43.6919"/>
<polygon fill="midnightblue" stroke="midnightblue" points="175.993,-47.1971 186.331,-44.8757 176.802,-40.244 175.993,-47.1971"/>
</g>
<!-- Node4 -->
<g id="node7" class="node"><title>Node4</title>
<a xlink:href="classCElement.html#a7ce1bde0fda5cf412b652000cab473e4" target="_top" xlink:title="CElement::toXml">
<polygon fill="white" stroke="black" points="190.5,-0.5 190.5,-21.5 287.5,-21.5 287.5,-0.5 190.5,-0.5"/>
<text text-anchor="middle" x="239" y="-8.5" font-family="Verdana" font-size="10.00">CElement::toXml</text>
</a>
</g>
<!-- Node1&#45;&gt;Node4 -->
<g id="edge6" class="edge"><title>Node1&#45;&gt;Node4</title>
<path fill="none" stroke="midnightblue" d="M107.326,-20.4904C129.047,-16.9866 156.243,-13.6181 180.271,-11.3901"/>
<polygon fill="midnightblue" stroke="midnightblue" points="180.693,-14.8667 190.349,-10.508 180.082,-7.89333 180.693,-14.8667"/>
</g>
<!-- Node4&#45;&gt;Node1 -->
<g id="edge8" class="edge"><title>Node4&#45;&gt;Node1</title>
<path fill="none" stroke="midnightblue" d="M198.509,-21.5361C182.329,-24.1424 163.13,-26.6723 144.472,-28.712"/>
<polygon fill="midnightblue" stroke="midnightblue" points="144.065,-25.2355 134.485,-29.7619 144.796,-32.1971 144.065,-25.2355"/>
</g>
</g>
</svg>
