<?xml version="1.0" encoding="UTF-8" standalone="no"?>
<!DOCTYPE svg PUBLIC "-//W3C//DTD SVG 1.1//EN"
 "http://www.w3.org/Graphics/SVG/1.1/DTD/svg11.dtd">
<!-- Generated by graphviz version 2.26.3 (20100126.1600)
 -->
<!-- Title: CParameterMgr::CParameterMgr Pages: 1 -->
<svg width="408pt" height="82pt"
 viewBox="0.00 0.00 408.00 82.00" xmlns="http://www.w3.org/2000/svg" xmlns:xlink="http://www.w3.org/1999/xlink">
<g id="graph1" class="graph" transform="scale(1 1) rotate(0) translate(4 78)">
<title>CParameterMgr::CParameterMgr</title>
<polygon fill="white" stroke="white" points="-4,5 -4,-78 405,-78 405,5 -4,5"/>
<!-- Node1 -->
<g id="node1" class="node"><title>Node1</title>
<polygon fill="#bfbfbf" stroke="black" points="0.5,-29.5 0.5,-50.5 173.5,-50.5 173.5,-29.5 0.5,-29.5"/>
<text text-anchor="middle" x="87" y="-37.5" font-family="Verdana" font-size="10.00">CParameterMgr::CParameterMgr</text>
</g>
<!-- Node2 -->
<g id="node3" class="node"><title>Node2</title>
<a xlink:href="classCElement.html#ac2ad66ee438a4a0c1390b7388874fe72" target="_top" xlink:title="CElement::addChild">
<polygon fill="white" stroke="black" points="250,-52.5 250,-73.5 360,-73.5 360,-52.5 250,-52.5"/>
<text text-anchor="middle" x="305" y="-60.5" font-family="Verdana" font-size="10.00">CElement::addChild</text>
</a>
</g>
<!-- Node1&#45;&gt;Node2 -->
<g id="edge2" class="edge"><title>Node1&#45;&gt;Node2</title>
<path fill="none" stroke="midnightblue" d="M173.786,-49.1563C195.826,-51.4817 219.132,-53.9406 239.889,-56.1305"/>
<polygon fill="midnightblue" stroke="midnightblue" points="239.545,-59.6136 249.857,-57.1822 240.28,-52.6522 239.545,-59.6136"/>
</g>
<!-- Node3 -->
<g id="node5" class="node"><title>Node3</title>
<a xlink:href="classTRemoteCommandHandlerTemplate.html#aac08c7501403c1777d9092bf8d29d478" target="_top" xlink:title="TRemoteCommandHandlerTemplate\l::addCommandParser">
<polygon fill="white" stroke="black" points="210,-0 210,-34 400,-34 400,-0 210,-0"/>
<text text-anchor="start" x="218" y="-21" font-family="Verdana" font-size="10.00">TRemoteCommandHandlerTemplate</text>
<text text-anchor="middle" x="305" y="-8" font-family="Verdana" font-size="10.00">::addCommandParser</text>
</a>
</g>
<!-- Node1&#45;&gt;Node3 -->
<g id="edge4" class="edge"><title>Node1&#45;&gt;Node3</title>
<path fill="none" stroke="midnightblue" d="M173.786,-30.8437C182.32,-29.9433 191.044,-29.0229 199.736,-28.1058"/>
<polygon fill="midnightblue" stroke="midnightblue" points="200.335,-31.5622 209.912,-27.0322 199.6,-24.6008 200.335,-31.5622"/>
</g>
</g>
</svg>
