<?xml version="1.0" encoding="UTF-8" standalone="no"?>
<!DOCTYPE svg PUBLIC "-//W3C//DTD SVG 1.1//EN"
 "http://www.w3.org/Graphics/SVG/1.1/DTD/svg11.dtd">
<!-- Generated by graphviz version 2.26.3 (20100126.1600)
 -->
<!-- Title: CConfigurableDomain::createConfiguration Pages: 1 -->
<svg width="280pt" height="150pt"
 viewBox="0.00 0.00 280.00 150.00" xmlns="http://www.w3.org/2000/svg" xmlns:xlink="http://www.w3.org/1999/xlink">
<g id="graph1" class="graph" transform="scale(1 1) rotate(0) translate(4 146)">
<title>CConfigurableDomain::createConfiguration</title>
<polygon fill="white" stroke="white" points="-4,5 -4,-146 277,-146 277,5 -4,5"/>
<!-- Node1 -->
<g id="node1" class="node"><title>Node1</title>
<polygon fill="#bfbfbf" stroke="black" points="0.5,-54 0.5,-88 121.5,-88 121.5,-54 0.5,-54"/>
<text text-anchor="start" x="8.5" y="-75" font-family="Verdana" font-size="10.00">CConfigurableDomain</text>
<text text-anchor="middle" x="61" y="-62" font-family="Verdana" font-size="10.00">::createConfiguration</text>
</g>
<!-- Node2 -->
<g id="node3" class="node"><title>Node2</title>
<a xlink:href="classCElement.html#a8595814a3159f32f874269907e70b260" target="_top" xlink:title="CElement::findChild">
<polygon fill="white" stroke="black" points="160,-120.5 160,-141.5 270,-141.5 270,-120.5 160,-120.5"/>
<text text-anchor="middle" x="215" y="-128.5" font-family="Verdana" font-size="10.00">CElement::findChild</text>
</a>
</g>
<!-- Node1&#45;&gt;Node2 -->
<g id="edge2" class="edge"><title>Node1&#45;&gt;Node2</title>
<path fill="none" stroke="midnightblue" d="M100.922,-88.0275C118.362,-95.3191 139.107,-103.796 158,-111 163.206,-112.985 168.706,-115.007 174.153,-116.966"/>
<polygon fill="midnightblue" stroke="midnightblue" points="173.233,-120.354 183.828,-120.402 175.576,-113.757 173.233,-120.354"/>
</g>
<!-- Node3 -->
<g id="node5" class="node"><title>Node3</title>
<a xlink:href="classCElement.html#aaa4df1b13a53263f8cc2b668172873d9" target="_top" xlink:title="CElement::log_info">
<polygon fill="white" stroke="black" points="162,-80.5 162,-101.5 268,-101.5 268,-80.5 162,-80.5"/>
<text text-anchor="middle" x="215" y="-88.5" font-family="Verdana" font-size="10.00">CElement::log_info</text>
</a>
</g>
<!-- Node1&#45;&gt;Node3 -->
<g id="edge4" class="edge"><title>Node1&#45;&gt;Node3</title>
<path fill="none" stroke="midnightblue" d="M121.865,-78.9045C131.599,-80.1687 141.693,-81.4797 151.487,-82.7516"/>
<polygon fill="midnightblue" stroke="midnightblue" points="151.189,-86.2422 161.557,-84.0593 152.091,-79.3005 151.189,-86.2422"/>
</g>
<!-- Node4 -->
<g id="node7" class="node"><title>Node4</title>
<a xlink:href="classCElement.html#a49581fb6412e29e932962acd82d52d6a" target="_top" xlink:title="CElement::getName">
<polygon fill="white" stroke="black" points="158,-40.5 158,-61.5 272,-61.5 272,-40.5 158,-40.5"/>
<text text-anchor="middle" x="215" y="-48.5" font-family="Verdana" font-size="10.00">CElement::getName</text>
</a>
</g>
<!-- Node1&#45;&gt;Node4 -->
<g id="edge6" class="edge"><title>Node1&#45;&gt;Node4</title>
<path fill="none" stroke="midnightblue" d="M121.865,-63.0955C130.325,-61.9968 139.057,-60.8628 147.627,-59.7497"/>
<polygon fill="midnightblue" stroke="midnightblue" points="148.122,-63.215 157.588,-58.4561 147.22,-56.2733 148.122,-63.215"/>
</g>
<!-- Node5 -->
<g id="node9" class="node"><title>Node5</title>
<a xlink:href="classCElement.html#ac2ad66ee438a4a0c1390b7388874fe72" target="_top" xlink:title="CElement::addChild">
<polygon fill="white" stroke="black" points="160,-0.5 160,-21.5 270,-21.5 270,-0.5 160,-0.5"/>
<text text-anchor="middle" x="215" y="-8.5" font-family="Verdana" font-size="10.00">CElement::addChild</text>
</a>
</g>
<!-- Node1&#45;&gt;Node5 -->
<g id="edge8" class="edge"><title>Node1&#45;&gt;Node5</title>
<path fill="none" stroke="midnightblue" d="M100.922,-53.9725C118.362,-46.6809 139.107,-38.204 158,-31 163.206,-29.015 168.706,-26.9925 174.153,-25.0337"/>
<polygon fill="midnightblue" stroke="midnightblue" points="175.576,-28.2428 183.828,-21.5983 173.233,-21.6463 175.576,-28.2428"/>
</g>
</g>
</svg>
