<?xml version="1.0" encoding="UTF-8" standalone="no"?>
<!DOCTYPE svg PUBLIC "-//W3C//DTD SVG 1.1//EN"
 "http://www.w3.org/Graphics/SVG/1.1/DTD/svg11.dtd">
<!-- Generated by graphviz version 2.26.3 (20100126.1600)
 -->
<!-- Title: CAreaConfiguration::restore Pages: 1 -->
<svg width="832pt" height="94pt"
 viewBox="0.00 0.00 832.00 94.00" xmlns="http://www.w3.org/2000/svg" xmlns:xlink="http://www.w3.org/1999/xlink">
<g id="graph1" class="graph" transform="scale(1 1) rotate(0) translate(4 90)">
<title>CAreaConfiguration::restore</title>
<polygon fill="white" stroke="white" points="-4,5 -4,-90 829,-90 829,5 -4,5"/>
<!-- Node1 -->
<g id="node1" class="node"><title>Node1</title>
<polygon fill="#bfbfbf" stroke="black" points="0,-26 0,-60 110,-60 110,-26 0,-26"/>
<text text-anchor="start" x="8" y="-47" font-family="Verdana" font-size="10.00">CAreaConfiguration</text>
<text text-anchor="middle" x="55" y="-34" font-family="Verdana" font-size="10.00">::restore</text>
</g>
<!-- Node2 -->
<g id="node3" class="node"><title>Node2</title>
<a xlink:href="classCDomainConfiguration.html#a1e837621d00a5ed2282c525c25a484e7" target="_top" xlink:title="CDomainConfiguration\l::restore">
<polygon fill="white" stroke="black" points="146.5,-26 146.5,-60 271.5,-60 271.5,-26 146.5,-26"/>
<text text-anchor="start" x="154.5" y="-47" font-family="Verdana" font-size="10.00">CDomainConfiguration</text>
<text text-anchor="middle" x="209" y="-34" font-family="Verdana" font-size="10.00">::restore</text>
</a>
</g>
<!-- Node1&#45;&gt;Node2 -->
<g id="edge2" class="edge"><title>Node1&#45;&gt;Node2</title>
<path fill="none" stroke="midnightblue" d="M120.214,-43C128.88,-43 137.749,-43 146.369,-43"/>
<polygon fill="midnightblue" stroke="midnightblue" points="120.163,-39.5001 110.163,-43 120.163,-46.5001 120.163,-39.5001"/>
</g>
<!-- Node3 -->
<g id="node5" class="node"><title>Node3</title>
<a xlink:href="classCConfigurableDomain.html#a928805e163719f902c207c061ab3b1c2" target="_top" xlink:title="CConfigurableDomain\l::apply">
<polygon fill="white" stroke="black" points="308.5,-52 308.5,-86 429.5,-86 429.5,-52 308.5,-52"/>
<text text-anchor="start" x="316.5" y="-73" font-family="Verdana" font-size="10.00">CConfigurableDomain</text>
<text text-anchor="middle" x="369" y="-60" font-family="Verdana" font-size="10.00">::apply</text>
</a>
</g>
<!-- Node2&#45;&gt;Node3 -->
<g id="edge4" class="edge"><title>Node2&#45;&gt;Node3</title>
<path fill="none" stroke="midnightblue" d="M281.787,-54.8279C290.72,-56.2795 299.774,-57.7508 308.498,-59.1685"/>
<polygon fill="midnightblue" stroke="midnightblue" points="282.209,-51.3506 271.777,-53.2013 281.086,-58.26 282.209,-51.3506"/>
</g>
<!-- Node5 -->
<g id="node9" class="node"><title>Node5</title>
<a xlink:href="classCConfigurableDomain.html#aa9e776e80956f8cc956b77213aae96ec" target="_top" xlink:title="CConfigurableDomain\l::restoreConfiguration">
<polygon fill="white" stroke="black" points="308.5,-0 308.5,-34 429.5,-34 429.5,-0 308.5,-0"/>
<text text-anchor="start" x="316.5" y="-21" font-family="Verdana" font-size="10.00">CConfigurableDomain</text>
<text text-anchor="middle" x="369" y="-8" font-family="Verdana" font-size="10.00">::restoreConfiguration</text>
</a>
</g>
<!-- Node2&#45;&gt;Node5 -->
<g id="edge8" class="edge"><title>Node2&#45;&gt;Node5</title>
<path fill="none" stroke="midnightblue" d="M281.787,-31.1721C290.72,-29.7205 299.774,-28.2492 308.498,-26.8315"/>
<polygon fill="midnightblue" stroke="midnightblue" points="281.086,-27.74 271.777,-32.7987 282.209,-34.6494 281.086,-27.74"/>
</g>
<!-- Node4 -->
<g id="node7" class="node"><title>Node4</title>
<a xlink:href="classCConfigurableDomains.html#ab8f2aa74fe0ed3e98fa052587d6c417d" target="_top" xlink:title="CConfigurableDomains\l::apply">
<polygon fill="white" stroke="black" points="466,-52 466,-86 592,-86 592,-52 466,-52"/>
<text text-anchor="start" x="474" y="-73" font-family="Verdana" font-size="10.00">CConfigurableDomains</text>
<text text-anchor="middle" x="529" y="-60" font-family="Verdana" font-size="10.00">::apply</text>
</a>
</g>
<!-- Node3&#45;&gt;Node4 -->
<g id="edge6" class="edge"><title>Node3&#45;&gt;Node4</title>
<path fill="none" stroke="midnightblue" d="M439.97,-69C448.585,-69 457.341,-69 465.833,-69"/>
<polygon fill="midnightblue" stroke="midnightblue" points="439.946,-65.5001 429.946,-69 439.946,-72.5001 439.946,-65.5001"/>
</g>
<!-- Node6 -->
<g id="node11" class="node"><title>Node6</title>
<a xlink:href="classCConfigurableDomains.html#a9fa62075b2521f79af18240367662cc7" target="_top" xlink:title="CConfigurableDomains\l::restoreConfiguration">
<polygon fill="white" stroke="black" points="466,-0 466,-34 592,-34 592,-0 466,-0"/>
<text text-anchor="start" x="474" y="-21" font-family="Verdana" font-size="10.00">CConfigurableDomains</text>
<text text-anchor="middle" x="529" y="-8" font-family="Verdana" font-size="10.00">::restoreConfiguration</text>
</a>
</g>
<!-- Node5&#45;&gt;Node6 -->
<g id="edge10" class="edge"><title>Node5&#45;&gt;Node6</title>
<path fill="none" stroke="midnightblue" d="M439.97,-17C448.585,-17 457.341,-17 465.833,-17"/>
<polygon fill="midnightblue" stroke="midnightblue" points="439.946,-13.5001 429.946,-17 439.946,-20.5001 439.946,-13.5001"/>
</g>
<!-- Node7 -->
<g id="node13" class="node"><title>Node7</title>
<a xlink:href="classCParameterMgr.html#a04786772b59275eef5f1af23dc9a639d" target="_top" xlink:title="CParameterMgr::restoreConfiguration">
<polygon fill="white" stroke="black" points="628,-6.5 628,-27.5 824,-27.5 824,-6.5 628,-6.5"/>
<text text-anchor="middle" x="726" y="-14.5" font-family="Verdana" font-size="10.00">CParameterMgr::restoreConfiguration</text>
</a>
</g>
<!-- Node6&#45;&gt;Node7 -->
<g id="edge12" class="edge"><title>Node6&#45;&gt;Node7</title>
<path fill="none" stroke="midnightblue" d="M602.166,-17C610.501,-17 619.097,-17 627.69,-17"/>
<polygon fill="midnightblue" stroke="midnightblue" points="602.145,-13.5001 592.145,-17 602.145,-20.5001 602.145,-13.5001"/>
</g>
</g>
</svg>
