<?xml version="1.0" encoding="UTF-8" standalone="no"?>
<!DOCTYPE svg PUBLIC "-//W3C//DTD SVG 1.1//EN"
 "http://www.w3.org/Graphics/SVG/1.1/DTD/svg11.dtd">
<!-- Generated by graphviz version 2.26.3 (20100126.1600)
 -->
<!-- Title: CTypeElement::getMappingData Pages: 1 -->
<svg width="538pt" height="82pt"
 viewBox="0.00 0.00 538.00 82.00" xmlns="http://www.w3.org/2000/svg" xmlns:xlink="http://www.w3.org/1999/xlink">
<g id="graph1" class="graph" transform="scale(1 1) rotate(0) translate(4 78)">
<title>CTypeElement::getMappingData</title>
<polygon fill="white" stroke="white" points="-4,5 -4,-78 535,-78 535,5 -4,5"/>
<!-- Node1 -->
<g id="node1" class="node"><title>Node1</title>
<polygon fill="#bfbfbf" stroke="black" points="0,-23.5 0,-44.5 170,-44.5 170,-23.5 0,-23.5"/>
<text text-anchor="middle" x="85" y="-31.5" font-family="Verdana" font-size="10.00">CTypeElement::getMappingData</text>
</g>
<!-- Node1&#45;&gt;Node1 -->
<g id="edge4" class="edge"><title>Node1&#45;&gt;Node1</title>
<path fill="none" stroke="midnightblue" d="M47.2884,-53.2987C48.8377,-58.7807 61.4083,-63 85,-63 120.113,-63 130.812,-53.6531 117.096,-44.7079"/>
<polygon fill="midnightblue" stroke="midnightblue" points="50.3621,-54.9932 52.9043,-44.7079 44.5029,-51.163 50.3621,-54.9932"/>
</g>
<!-- Node2 -->
<g id="node3" class="node"><title>Node2</title>
<a xlink:href="classCInstanceConfigurableElement.html#a73aace151a51fbd2a2c02bfd83b24f59" target="_top" xlink:title="Get the value associated to a mapping key in the object&#39;s mapping. ">
<polygon fill="white" stroke="black" points="206,-40 206,-74 370,-74 370,-40 206,-40"/>
<text text-anchor="start" x="214" y="-61" font-family="Verdana" font-size="10.00">CInstanceConfigurableElement</text>
<text text-anchor="middle" x="288" y="-48" font-family="Verdana" font-size="10.00">::getMappingData</text>
</a>
</g>
<!-- Node1&#45;&gt;Node2 -->
<g id="edge2" class="edge"><title>Node1&#45;&gt;Node2</title>
<path fill="none" stroke="midnightblue" d="M180.244,-44.7912C188.829,-45.7639 197.474,-46.7434 205.932,-47.7017"/>
<polygon fill="midnightblue" stroke="midnightblue" points="180.538,-41.3022 170.208,-43.6541 179.75,-48.2577 180.538,-41.3022"/>
</g>
<!-- Node3 -->
<g id="node6" class="node"><title>Node3</title>
<a xlink:href="classCTypeElement.html#a8f3a08cd11a7db4fde3bd69dde5c8b66" target="_top" xlink:title="CTypeElement::fromXml">
<polygon fill="white" stroke="black" points="222.5,-0.5 222.5,-21.5 353.5,-21.5 353.5,-0.5 222.5,-0.5"/>
<text text-anchor="middle" x="288" y="-8.5" font-family="Verdana" font-size="10.00">CTypeElement::fromXml</text>
</a>
</g>
<!-- Node1&#45;&gt;Node3 -->
<g id="edge6" class="edge"><title>Node1&#45;&gt;Node3</title>
<path fill="none" stroke="midnightblue" d="M180.503,-23.1794C194.702,-21.5707 209.058,-19.9441 222.455,-18.4263"/>
<polygon fill="midnightblue" stroke="midnightblue" points="179.75,-19.7423 170.208,-24.3459 180.538,-26.6978 179.75,-19.7423"/>
</g>
<!-- Node4 -->
<g id="node8" class="node"><title>Node4</title>
<a xlink:href="classCSubsystem.html#aa114a31f4aa4b0f47b3c616b721854d4" target="_top" xlink:title="CSubsystem::fromXml">
<polygon fill="white" stroke="black" points="406,-0.5 406,-21.5 530,-21.5 530,-0.5 406,-0.5"/>
<text text-anchor="middle" x="468" y="-8.5" font-family="Verdana" font-size="10.00">CSubsystem::fromXml</text>
</a>
</g>
<!-- Node3&#45;&gt;Node4 -->
<g id="edge8" class="edge"><title>Node3&#45;&gt;Node4</title>
<path fill="none" stroke="midnightblue" d="M363.815,-11C377.782,-11 392.216,-11 405.726,-11"/>
<polygon fill="midnightblue" stroke="midnightblue" points="363.748,-7.5001 353.748,-11 363.748,-14.5001 363.748,-7.5001"/>
</g>
</g>
</svg>
