<?xml version="1.0" encoding="UTF-8" standalone="no"?>
<!DOCTYPE svg PUBLIC "-//W3C//DTD SVG 1.1//EN"
 "http://www.w3.org/Graphics/SVG/1.1/DTD/svg11.dtd">
<!-- Generated by graphviz version 2.26.3 (20100126.1600)
 -->
<!-- Title: CConfigurableDomain::getElementSequence Pages: 1 -->
<svg width="470pt" height="100pt"
 viewBox="0.00 0.00 470.00 100.00" xmlns="http://www.w3.org/2000/svg" xmlns:xlink="http://www.w3.org/1999/xlink">
<g id="graph1" class="graph" transform="scale(1 1) rotate(0) translate(4 96)">
<title>CConfigurableDomain::getElementSequence</title>
<polygon fill="white" stroke="white" points="-4,5 -4,-96 467,-96 467,5 -4,5"/>
<!-- Node1 -->
<g id="node1" class="node"><title>Node1</title>
<polygon fill="#bfbfbf" stroke="black" points="0,-26 0,-60 126,-60 126,-26 0,-26"/>
<text text-anchor="start" x="8" y="-47" font-family="Verdana" font-size="10.00">CConfigurableDomain</text>
<text text-anchor="middle" x="63" y="-34" font-family="Verdana" font-size="10.00">::getElementSequence</text>
</g>
<!-- Node2 -->
<g id="node3" class="node"><title>Node2</title>
<a xlink:href="classCDomainConfiguration.html#a144544d874a578524147e8beeeb51047" target="_top" xlink:title="CDomainConfiguration\l::getElementSequence">
<polygon fill="white" stroke="black" points="162,-26 162,-60 288,-60 288,-26 162,-26"/>
<text text-anchor="start" x="170" y="-47" font-family="Verdana" font-size="10.00">CDomainConfiguration</text>
<text text-anchor="middle" x="225" y="-34" font-family="Verdana" font-size="10.00">::getElementSequence</text>
</a>
</g>
<!-- Node1&#45;&gt;Node2 -->
<g id="edge2" class="edge"><title>Node1&#45;&gt;Node2</title>
<path fill="none" stroke="midnightblue" d="M126.097,-43C134.435,-43 143.038,-43 151.53,-43"/>
<polygon fill="midnightblue" stroke="midnightblue" points="151.808,-46.5001 161.808,-43 151.808,-39.5001 151.808,-46.5001"/>
</g>
<!-- Node3 -->
<g id="node5" class="node"><title>Node3</title>
<a xlink:href="classCAreaConfiguration.html#a1f85dedf12591c3f43830a00e5c352df" target="_top" xlink:title="CAreaConfiguration\l::getConfigurableElement">
<polygon fill="white" stroke="black" points="324,-58 324,-92 462,-92 462,-58 324,-58"/>
<text text-anchor="start" x="332" y="-79" font-family="Verdana" font-size="10.00">CAreaConfiguration</text>
<text text-anchor="middle" x="393" y="-66" font-family="Verdana" font-size="10.00">::getConfigurableElement</text>
</a>
</g>
<!-- Node2&#45;&gt;Node3 -->
<g id="edge4" class="edge"><title>Node2&#45;&gt;Node3</title>
<path fill="none" stroke="midnightblue" d="M288.035,-55.0067C296.559,-56.6302 305.39,-58.3124 314.146,-59.9803"/>
<polygon fill="midnightblue" stroke="midnightblue" points="313.502,-63.4204 323.98,-61.8534 314.812,-56.544 313.502,-63.4204"/>
</g>
<!-- Node4 -->
<g id="node7" class="node"><title>Node4</title>
<a xlink:href="classCElement.html#a7022c0fc8063f0aae9d97b06e74d4ac1" target="_top" xlink:title="CElement::getPath">
<polygon fill="white" stroke="black" points="340,-0.5 340,-21.5 446,-21.5 446,-0.5 340,-0.5"/>
<text text-anchor="middle" x="393" y="-8.5" font-family="Verdana" font-size="10.00">CElement::getPath</text>
</a>
</g>
<!-- Node2&#45;&gt;Node4 -->
<g id="edge6" class="edge"><title>Node2&#45;&gt;Node4</title>
<path fill="none" stroke="midnightblue" d="M288.035,-30.9933C301.613,-28.4071 315.971,-25.6722 329.564,-23.0831"/>
<polygon fill="midnightblue" stroke="midnightblue" points="330.615,-26.4459 339.783,-21.1365 329.305,-19.5695 330.615,-26.4459"/>
</g>
<!-- Node4&#45;&gt;Node4 -->
<g id="edge8" class="edge"><title>Node4&#45;&gt;Node4</title>
<path fill="none" stroke="midnightblue" d="M366.307,-21.7079C354.899,-30.6531 363.797,-40 393,-40 412.165,-40 422.584,-35.9746 424.259,-30.6791"/>
<polygon fill="midnightblue" stroke="midnightblue" points="427.349,-29.0325 419.693,-21.7079 421.11,-32.2076 427.349,-29.0325"/>
</g>
</g>
</svg>
