<?xml version="1.0" encoding="UTF-8" standalone="no"?>
<!DOCTYPE svg PUBLIC "-//W3C//DTD SVG 1.1//EN"
 "http://www.w3.org/Graphics/SVG/1.1/DTD/svg11.dtd">
<!-- Generated by graphviz version 2.26.3 (20100126.1600)
 -->
<!-- Title: CBaseParameter::logValue Pages: 1 -->
<svg width="348pt" height="82pt"
 viewBox="0.00 0.00 348.00 82.00" xmlns="http://www.w3.org/2000/svg" xmlns:xlink="http://www.w3.org/1999/xlink">
<g id="graph1" class="graph" transform="scale(1 1) rotate(0) translate(4 78)">
<title>CBaseParameter::logValue</title>
<polygon fill="white" stroke="white" points="-4,5 -4,-78 345,-78 345,5 -4,5"/>
<!-- Node1 -->
<g id="node1" class="node"><title>Node1</title>
<polygon fill="#bfbfbf" stroke="black" points="0,-29.5 0,-50.5 144,-50.5 144,-29.5 0,-29.5"/>
<text text-anchor="middle" x="72" y="-37.5" font-family="Verdana" font-size="10.00">CBaseParameter::logValue</text>
</g>
<!-- Node2 -->
<g id="node3" class="node"><title>Node2</title>
<a xlink:href="classCBaseParameter.html#aea4a2e14dbd4588fbe837bbe5cae5076" target="_top" xlink:title="CBaseParameter::doGetValue">
<polygon fill="white" stroke="black" points="180.5,-52.5 180.5,-73.5 339.5,-73.5 339.5,-52.5 180.5,-52.5"/>
<text text-anchor="middle" x="260" y="-60.5" font-family="Verdana" font-size="10.00">CBaseParameter::doGetValue</text>
</a>
</g>
<!-- Node1&#45;&gt;Node2 -->
<g id="edge2" class="edge"><title>Node1&#45;&gt;Node2</title>
<path fill="none" stroke="midnightblue" d="M144.148,-48.8266C152.633,-49.8646 161.369,-50.9334 170.058,-51.9965"/>
<polygon fill="midnightblue" stroke="midnightblue" points="169.869,-55.4993 180.22,-53.2397 170.719,-48.5511 169.869,-55.4993"/>
</g>
<!-- Node3 -->
<g id="node5" class="node"><title>Node3</title>
<a xlink:href="classCConfigurableElement.html#a29d61e6d09ff508ebb87aea802f2704e" target="_top" xlink:title="CConfigurableElement\l::getOffset">
<polygon fill="white" stroke="black" points="198.5,-0 198.5,-34 321.5,-34 321.5,-0 198.5,-0"/>
<text text-anchor="start" x="206.5" y="-21" font-family="Verdana" font-size="10.00">CConfigurableElement</text>
<text text-anchor="middle" x="260" y="-8" font-family="Verdana" font-size="10.00">::getOffset</text>
</a>
</g>
<!-- Node1&#45;&gt;Node3 -->
<g id="edge4" class="edge"><title>Node1&#45;&gt;Node3</title>
<path fill="none" stroke="midnightblue" d="M144.148,-31.1734C158.563,-29.4098 173.704,-27.5575 188.111,-25.795"/>
<polygon fill="midnightblue" stroke="midnightblue" points="188.949,-29.2186 198.45,-24.5301 188.099,-22.2704 188.949,-29.2186"/>
</g>
</g>
</svg>
