<?xml version="1.0" encoding="UTF-8" standalone="no"?>
<!DOCTYPE svg PUBLIC "-//W3C//DTD SVG 1.1//EN"
 "http://www.w3.org/Graphics/SVG/1.1/DTD/svg11.dtd">
<!-- Generated by graphviz version 2.26.3 (20100126.1600)
 -->
<!-- Title: CInstanceConfigurableElement::checkPathExhausted Pages: 1 -->
<svg width="378pt" height="110pt"
 viewBox="0.00 0.00 378.00 110.00" xmlns="http://www.w3.org/2000/svg" xmlns:xlink="http://www.w3.org/1999/xlink">
<g id="graph1" class="graph" transform="scale(1 1) rotate(0) translate(4 106)">
<title>CInstanceConfigurableElement::checkPathExhausted</title>
<polygon fill="white" stroke="white" points="-4,5 -4,-106 375,-106 375,5 -4,5"/>
<!-- Node1 -->
<g id="node1" class="node"><title>Node1</title>
<polygon fill="#bfbfbf" stroke="black" points="0,-34 0,-68 164,-68 164,-34 0,-34"/>
<text text-anchor="start" x="8" y="-55" font-family="Verdana" font-size="10.00">CInstanceConfigurableElement</text>
<text text-anchor="middle" x="82" y="-42" font-family="Verdana" font-size="10.00">::checkPathExhausted</text>
</g>
<!-- Node2 -->
<g id="node3" class="node"><title>Node2</title>
<a xlink:href="classCPathNavigator.html#a06f35d45c0bf392e11de0bf1197cc589" target="_top" xlink:title="CPathNavigator::next">
<polygon fill="white" stroke="black" points="226,-80.5 226,-101.5 344,-101.5 344,-80.5 226,-80.5"/>
<text text-anchor="middle" x="285" y="-88.5" font-family="Verdana" font-size="10.00">CPathNavigator::next</text>
</a>
</g>
<!-- Node1&#45;&gt;Node2 -->
<g id="edge2" class="edge"><title>Node1&#45;&gt;Node2</title>
<path fill="none" stroke="midnightblue" d="M164.275,-67.2119C183.378,-70.976 203.424,-74.9259 221.571,-78.5016"/>
<polygon fill="midnightblue" stroke="midnightblue" points="220.951,-81.9467 231.439,-80.4461 222.304,-75.0788 220.951,-81.9467"/>
</g>
<!-- Node3 -->
<g id="node5" class="node"><title>Node3</title>
<a xlink:href="classCErrorContext.html#a9d58b281c0d0fc9a6d3b83714cf812ef" target="_top" xlink:title="CErrorContext::setError">
<polygon fill="white" stroke="black" points="221,-40.5 221,-61.5 349,-61.5 349,-40.5 221,-40.5"/>
<text text-anchor="middle" x="285" y="-48.5" font-family="Verdana" font-size="10.00">CErrorContext::setError</text>
</a>
</g>
<!-- Node1&#45;&gt;Node3 -->
<g id="edge4" class="edge"><title>Node1&#45;&gt;Node3</title>
<path fill="none" stroke="midnightblue" d="M164.275,-51C179.545,-51 195.417,-51 210.441,-51"/>
<polygon fill="midnightblue" stroke="midnightblue" points="210.688,-54.5001 220.688,-51 210.688,-47.5001 210.688,-54.5001"/>
</g>
<!-- Node4 -->
<g id="node7" class="node"><title>Node4</title>
<a xlink:href="classCPathNavigator.html#a0fbd92beb48fdfb2041788cf77d44cf1" target="_top" xlink:title="CPathNavigator::getCurrentPath">
<polygon fill="white" stroke="black" points="200,-0.5 200,-21.5 370,-21.5 370,-0.5 200,-0.5"/>
<text text-anchor="middle" x="285" y="-8.5" font-family="Verdana" font-size="10.00">CPathNavigator::getCurrentPath</text>
</a>
</g>
<!-- Node1&#45;&gt;Node4 -->
<g id="edge6" class="edge"><title>Node1&#45;&gt;Node4</title>
<path fill="none" stroke="midnightblue" d="M164.275,-34.7881C183.378,-31.024 203.424,-27.0741 221.571,-23.4984"/>
<polygon fill="midnightblue" stroke="midnightblue" points="222.304,-26.9212 231.439,-21.5539 220.951,-20.0533 222.304,-26.9212"/>
</g>
</g>
</svg>
