<?xml version="1.0" encoding="UTF-8" standalone="no"?>
<!DOCTYPE svg PUBLIC "-//W3C//DTD SVG 1.1//EN"
 "http://www.w3.org/Graphics/SVG/1.1/DTD/svg11.dtd">
<!-- Generated by graphviz version 2.26.3 (20100126.1600)
 -->
<!-- Title: CElement::listQualifiedPaths Pages: 1 -->
<svg width="484pt" height="90pt"
 viewBox="0.00 0.00 484.00 90.00" xmlns="http://www.w3.org/2000/svg" xmlns:xlink="http://www.w3.org/1999/xlink">
<g id="graph1" class="graph" transform="scale(1 1) rotate(0) translate(4 86)">
<title>CElement::listQualifiedPaths</title>
<polygon fill="white" stroke="white" points="-4,5 -4,-86 481,-86 481,5 -4,5"/>
<!-- Node1 -->
<g id="node1" class="node"><title>Node1</title>
<polygon fill="#bfbfbf" stroke="black" points="0,-40.5 0,-61.5 150,-61.5 150,-40.5 0,-40.5"/>
<text text-anchor="middle" x="75" y="-48.5" font-family="Verdana" font-size="10.00">CElement::listQualifiedPaths</text>
</g>
<!-- Node1&#45;&gt;Node1 -->
<g id="edge12" class="edge"><title>Node1&#45;&gt;Node1</title>
<path fill="none" stroke="midnightblue" d="M45.7643,-61.7079C33.2704,-70.6531 43.0156,-80 75,-80 95.9897,-80 107.402,-75.9746 109.236,-70.6791"/>
<polygon fill="midnightblue" stroke="midnightblue" points="112.162,-68.7384 104.236,-61.7079 106.048,-72.1466 112.162,-68.7384"/>
</g>
<!-- Node2 -->
<g id="node3" class="node"><title>Node2</title>
<a xlink:href="classCElement.html#a25f58d9d8b35e770806d669fb2a378e4" target="_top" xlink:title="CElement::getNbChildren">
<polygon fill="white" stroke="black" points="191.5,-60.5 191.5,-81.5 328.5,-81.5 328.5,-60.5 191.5,-60.5"/>
<text text-anchor="middle" x="260" y="-68.5" font-family="Verdana" font-size="10.00">CElement::getNbChildren</text>
</a>
</g>
<!-- Node1&#45;&gt;Node2 -->
<g id="edge2" class="edge"><title>Node1&#45;&gt;Node2</title>
<path fill="none" stroke="midnightblue" d="M150.247,-59.1348C160.45,-60.2379 170.944,-61.3724 181.208,-62.4819"/>
<polygon fill="midnightblue" stroke="midnightblue" points="181.057,-65.986 191.376,-63.5812 181.81,-59.0265 181.057,-65.986"/>
</g>
<!-- Node3 -->
<g id="node5" class="node"><title>Node3</title>
<a xlink:href="classCElement.html#a893e7d2d24391fd0279245c7bda1e468" target="_top" xlink:title="CElement::getQualifiedPath">
<polygon fill="white" stroke="black" points="186.5,-20.5 186.5,-41.5 333.5,-41.5 333.5,-20.5 186.5,-20.5"/>
<text text-anchor="middle" x="260" y="-28.5" font-family="Verdana" font-size="10.00">CElement::getQualifiedPath</text>
</a>
</g>
<!-- Node1&#45;&gt;Node3 -->
<g id="edge4" class="edge"><title>Node1&#45;&gt;Node3</title>
<path fill="none" stroke="midnightblue" d="M150.247,-42.8652C158.803,-41.9402 167.563,-40.9932 176.221,-40.0572"/>
<polygon fill="midnightblue" stroke="midnightblue" points="176.752,-43.5202 186.318,-38.9656 176,-36.5608 176.752,-43.5202"/>
</g>
<!-- Node4 -->
<g id="node7" class="node"><title>Node4</title>
<a xlink:href="classCElement.html#a7022c0fc8063f0aae9d97b06e74d4ac1" target="_top" xlink:title="CElement::getPath">
<polygon fill="white" stroke="black" points="370,-40.5 370,-61.5 476,-61.5 476,-40.5 370,-40.5"/>
<text text-anchor="middle" x="423" y="-48.5" font-family="Verdana" font-size="10.00">CElement::getPath</text>
</a>
</g>
<!-- Node3&#45;&gt;Node4 -->
<g id="edge6" class="edge"><title>Node3&#45;&gt;Node4</title>
<path fill="none" stroke="midnightblue" d="M333.869,-40.0637C342.493,-41.1218 351.231,-42.194 359.694,-43.2324"/>
<polygon fill="midnightblue" stroke="midnightblue" points="359.501,-46.7349 369.853,-44.4789 360.354,-39.787 359.501,-46.7349"/>
</g>
<!-- Node5 -->
<g id="node10" class="node"><title>Node5</title>
<a xlink:href="classCElement.html#aed2ca7f2a56dbf2edcd82167859535ee" target="_top" xlink:title="CElement::getKind">
<polygon fill="white" stroke="black" points="370.5,-0.5 370.5,-21.5 475.5,-21.5 475.5,-0.5 370.5,-0.5"/>
<text text-anchor="middle" x="423" y="-8.5" font-family="Verdana" font-size="10.00">CElement::getKind</text>
</a>
</g>
<!-- Node3&#45;&gt;Node5 -->
<g id="edge10" class="edge"><title>Node3&#45;&gt;Node5</title>
<path fill="none" stroke="midnightblue" d="M333.869,-21.9363C342.709,-20.8517 351.669,-19.7523 360.329,-18.6897"/>
<polygon fill="midnightblue" stroke="midnightblue" points="360.833,-22.1543 370.332,-17.4624 359.98,-15.2064 360.833,-22.1543"/>
</g>
<!-- Node4&#45;&gt;Node4 -->
<g id="edge8" class="edge"><title>Node4&#45;&gt;Node4</title>
<path fill="none" stroke="midnightblue" d="M397.26,-61.7079C386.26,-70.6531 394.84,-80 423,-80 441.04,-80 451.045,-76.164 453.013,-71.0551"/>
<polygon fill="midnightblue" stroke="midnightblue" points="456.081,-69.3474 448.74,-61.7079 449.715,-72.2578 456.081,-69.3474"/>
</g>
</g>
</svg>
