<?xml version="1.0" encoding="UTF-8" standalone="no"?>
<!DOCTYPE svg PUBLIC "-//W3C//DTD SVG 1.1//EN"
 "http://www.w3.org/Graphics/SVG/1.1/DTD/svg11.dtd">
<!-- Generated by graphviz version 2.26.3 (20100126.1600)
 -->
<!-- Title: CAreaConfiguration::save Pages: 1 -->
<svg width="1050pt" height="108pt"
 viewBox="0.00 0.00 1050.00 108.00" xmlns="http://www.w3.org/2000/svg" xmlns:xlink="http://www.w3.org/1999/xlink">
<g id="graph1" class="graph" transform="scale(1 1) rotate(0) translate(4 104)">
<title>CAreaConfiguration::save</title>
<polygon fill="white" stroke="white" points="-4,5 -4,-104 1047,-104 1047,5 -4,5"/>
<!-- Node1 -->
<g id="node1" class="node"><title>Node1</title>
<polygon fill="#bfbfbf" stroke="black" points="0,-26 0,-60 110,-60 110,-26 0,-26"/>
<text text-anchor="start" x="8" y="-47" font-family="Verdana" font-size="10.00">CAreaConfiguration</text>
<text text-anchor="middle" x="55" y="-34" font-family="Verdana" font-size="10.00">::save</text>
</g>
<!-- Node2 -->
<g id="node3" class="node"><title>Node2</title>
<a xlink:href="classCAreaConfiguration.html#a9c0ddade93f42f2ed315dd3a0719933c" target="_top" xlink:title="CAreaConfiguration\l::validate">
<polygon fill="white" stroke="black" points="154,-52 154,-86 264,-86 264,-52 154,-52"/>
<text text-anchor="start" x="162" y="-73" font-family="Verdana" font-size="10.00">CAreaConfiguration</text>
<text text-anchor="middle" x="209" y="-60" font-family="Verdana" font-size="10.00">::validate</text>
</a>
</g>
<!-- Node1&#45;&gt;Node2 -->
<g id="edge2" class="edge"><title>Node1&#45;&gt;Node2</title>
<path fill="none" stroke="midnightblue" d="M120.326,-54.0291C131.527,-55.9202 143.066,-57.8683 153.964,-59.7082"/>
<polygon fill="midnightblue" stroke="midnightblue" points="120.606,-50.5268 110.163,-52.3132 119.44,-57.4292 120.606,-50.5268"/>
</g>
<!-- Node8 -->
<g id="node15" class="node"><title>Node8</title>
<a xlink:href="classCDomainConfiguration.html#aff0adeb0eb6645ef3ae8a4b75c4a7892" target="_top" xlink:title="CDomainConfiguration\l::save">
<polygon fill="white" stroke="black" points="146.5,-0 146.5,-34 271.5,-34 271.5,-0 146.5,-0"/>
<text text-anchor="start" x="154.5" y="-21" font-family="Verdana" font-size="10.00">CDomainConfiguration</text>
<text text-anchor="middle" x="209" y="-8" font-family="Verdana" font-size="10.00">::save</text>
</a>
</g>
<!-- Node1&#45;&gt;Node8 -->
<g id="edge14" class="edge"><title>Node1&#45;&gt;Node8</title>
<path fill="none" stroke="midnightblue" d="M120.214,-31.9898C128.88,-30.5268 137.749,-29.0294 146.369,-27.574"/>
<polygon fill="midnightblue" stroke="midnightblue" points="119.44,-28.5708 110.163,-33.6868 120.606,-35.4732 119.44,-28.5708"/>
</g>
<!-- Node3 -->
<g id="node5" class="node"><title>Node3</title>
<a xlink:href="classCDomainConfiguration.html#a10c3a1e0899400ecd23a90fb7dc4e4e6" target="_top" xlink:title="CDomainConfiguration\l::validate">
<polygon fill="white" stroke="black" points="308.5,-52 308.5,-86 433.5,-86 433.5,-52 308.5,-52"/>
<text text-anchor="start" x="316.5" y="-73" font-family="Verdana" font-size="10.00">CDomainConfiguration</text>
<text text-anchor="middle" x="371" y="-60" font-family="Verdana" font-size="10.00">::validate</text>
</a>
</g>
<!-- Node2&#45;&gt;Node3 -->
<g id="edge4" class="edge"><title>Node2&#45;&gt;Node3</title>
<path fill="none" stroke="midnightblue" d="M274.456,-69C285.671,-69 297.299,-69 308.436,-69"/>
<polygon fill="midnightblue" stroke="midnightblue" points="274.298,-65.5001 264.298,-69 274.298,-72.5001 274.298,-65.5001"/>
</g>
<!-- Node4 -->
<g id="node7" class="node"><title>Node4</title>
<a xlink:href="classCConfigurableDomain.html#a2df6f85b21fa2ccbecc4a1c6d01ae2ed" target="_top" xlink:title="CConfigurableDomain\l::validate">
<polygon fill="white" stroke="black" points="472.5,-52 472.5,-86 593.5,-86 593.5,-52 472.5,-52"/>
<text text-anchor="start" x="480.5" y="-73" font-family="Verdana" font-size="10.00">CConfigurableDomain</text>
<text text-anchor="middle" x="533" y="-60" font-family="Verdana" font-size="10.00">::validate</text>
</a>
</g>
<!-- Node3&#45;&gt;Node4 -->
<g id="edge6" class="edge"><title>Node3&#45;&gt;Node4</title>
<path fill="none" stroke="midnightblue" d="M443.889,-69C453.419,-69 463.1,-69 472.397,-69"/>
<polygon fill="midnightblue" stroke="midnightblue" points="443.633,-65.5001 433.633,-69 443.633,-72.5001 443.633,-65.5001"/>
</g>
<!-- Node5 -->
<g id="node9" class="node"><title>Node5</title>
<a xlink:href="classCConfigurableDomains.html#a6fd812eea1fd18c0d4fa14ec33b57fd5" target="_top" xlink:title="CConfigurableDomains\l::validate">
<polygon fill="white" stroke="black" points="661,-52 661,-86 787,-86 787,-52 661,-52"/>
<text text-anchor="start" x="669" y="-73" font-family="Verdana" font-size="10.00">CConfigurableDomains</text>
<text text-anchor="middle" x="724" y="-60" font-family="Verdana" font-size="10.00">::validate</text>
</a>
</g>
<!-- Node4&#45;&gt;Node5 -->
<g id="edge8" class="edge"><title>Node4&#45;&gt;Node5</title>
<path fill="none" stroke="midnightblue" d="M603.91,-69C622.58,-69 642.596,-69 660.829,-69"/>
<polygon fill="midnightblue" stroke="midnightblue" points="603.696,-65.5001 593.696,-69 603.696,-72.5001 603.696,-65.5001"/>
</g>
<!-- Node6 -->
<g id="node11" class="node"><title>Node6</title>
<a xlink:href="classCParameterMgr.html#aad4830a40d67cfae091cbf1a15ff29d0" target="_top" xlink:title="Load plugins, structures and settings from the config file given. ">
<polygon fill="white" stroke="black" points="888,-78.5 888,-99.5 1006,-99.5 1006,-78.5 888,-78.5"/>
<text text-anchor="middle" x="947" y="-86.5" font-family="Verdana" font-size="10.00">CParameterMgr::load</text>
</a>
</g>
<!-- Node5&#45;&gt;Node6 -->
<g id="edge10" class="edge"><title>Node5&#45;&gt;Node6</title>
<path fill="none" stroke="midnightblue" d="M797.234,-75.5681C826.666,-78.2077 860.145,-81.2104 887.975,-83.7063"/>
<polygon fill="midnightblue" stroke="midnightblue" points="797.281,-72.0584 787.009,-74.651 796.656,-79.0304 797.281,-72.0584"/>
</g>
<!-- Node7 -->
<g id="node13" class="node"><title>Node7</title>
<a xlink:href="classCParameterMgr.html#ab17dc57a1b642c10df433c2c971f93c0" target="_top" xlink:title="Method that imports Configurable Domains from an Xml source. ">
<polygon fill="white" stroke="black" points="852,-38.5 852,-59.5 1042,-59.5 1042,-38.5 852,-38.5"/>
<text text-anchor="middle" x="947" y="-46.5" font-family="Verdana" font-size="10.00">CParameterMgr::importDomainsXml</text>
</a>
</g>
<!-- Node5&#45;&gt;Node7 -->
<g id="edge12" class="edge"><title>Node5&#45;&gt;Node7</title>
<path fill="none" stroke="midnightblue" d="M797.093,-62.4446C814.527,-60.881 833.388,-59.1894 851.657,-57.5509"/>
<polygon fill="midnightblue" stroke="midnightblue" points="796.656,-58.9696 787.009,-63.349 797.281,-65.9416 796.656,-58.9696"/>
</g>
<!-- Node9 -->
<g id="node17" class="node"><title>Node9</title>
<a xlink:href="classCConfigurableDomain.html#a7656ea4134ae47e8a19e1565c16323f0" target="_top" xlink:title="CConfigurableDomain\l::saveConfiguration">
<polygon fill="white" stroke="black" points="310.5,-0 310.5,-34 431.5,-34 431.5,-0 310.5,-0"/>
<text text-anchor="start" x="318.5" y="-21" font-family="Verdana" font-size="10.00">CConfigurableDomain</text>
<text text-anchor="middle" x="371" y="-8" font-family="Verdana" font-size="10.00">::saveConfiguration</text>
</a>
</g>
<!-- Node8&#45;&gt;Node9 -->
<g id="edge16" class="edge"><title>Node8&#45;&gt;Node9</title>
<path fill="none" stroke="midnightblue" d="M281.889,-17C291.419,-17 301.1,-17 310.397,-17"/>
<polygon fill="midnightblue" stroke="midnightblue" points="281.633,-13.5001 271.633,-17 281.633,-20.5001 281.633,-13.5001"/>
</g>
<!-- Node10 -->
<g id="node19" class="node"><title>Node10</title>
<a xlink:href="classCConfigurableDomains.html#a1be81268a7220733d7aed82e75e8253c" target="_top" xlink:title="CConfigurableDomains\l::saveConfiguration">
<polygon fill="white" stroke="black" points="470,-0 470,-34 596,-34 596,-0 470,-0"/>
<text text-anchor="start" x="478" y="-21" font-family="Verdana" font-size="10.00">CConfigurableDomains</text>
<text text-anchor="middle" x="533" y="-8" font-family="Verdana" font-size="10.00">::saveConfiguration</text>
</a>
</g>
<!-- Node9&#45;&gt;Node10 -->
<g id="edge18" class="edge"><title>Node9&#45;&gt;Node10</title>
<path fill="none" stroke="midnightblue" d="M441.849,-17C451.214,-17 460.762,-17 469.983,-17"/>
<polygon fill="midnightblue" stroke="midnightblue" points="441.784,-13.5001 431.784,-17 441.784,-20.5001 441.784,-13.5001"/>
</g>
<!-- Node11 -->
<g id="node21" class="node"><title>Node11</title>
<a xlink:href="classCParameterMgr.html#aabb760bc56ad6e76f32bf732005730cb" target="_top" xlink:title="CParameterMgr::saveConfiguration">
<polygon fill="white" stroke="black" points="632,-6.5 632,-27.5 816,-27.5 816,-6.5 632,-6.5"/>
<text text-anchor="middle" x="724" y="-14.5" font-family="Verdana" font-size="10.00">CParameterMgr::saveConfiguration</text>
</a>
</g>
<!-- Node10&#45;&gt;Node11 -->
<g id="edge20" class="edge"><title>Node10&#45;&gt;Node11</title>
<path fill="none" stroke="midnightblue" d="M606.218,-17C614.653,-17 623.334,-17 631.977,-17"/>
<polygon fill="midnightblue" stroke="midnightblue" points="606.07,-13.5001 596.07,-17 606.07,-20.5001 606.07,-13.5001"/>
</g>
</g>
</svg>
