<?xml version="1.0" encoding="UTF-8" standalone="no"?>
<!DOCTYPE svg PUBLIC "-//W3C//DTD SVG 1.1//EN"
 "http://www.w3.org/Graphics/SVG/1.1/DTD/svg11.dtd">
<!-- Generated by graphviz version 2.26.3 (20100126.1600)
 -->
<!-- Title: CIntegerParameterType::toBlackboard Pages: 1 -->
<svg width="330pt" height="70pt"
 viewBox="0.00 0.00 330.00 70.00" xmlns="http://www.w3.org/2000/svg" xmlns:xlink="http://www.w3.org/1999/xlink">
<g id="graph1" class="graph" transform="scale(1 1) rotate(0) translate(4 66)">
<title>CIntegerParameterType::toBlackboard</title>
<polygon fill="white" stroke="white" points="-4,5 -4,-66 327,-66 327,5 -4,5"/>
<!-- Node1 -->
<g id="node1" class="node"><title>Node1</title>
<polygon fill="#bfbfbf" stroke="black" points="0,-14 0,-48 128,-48 128,-14 0,-14"/>
<text text-anchor="start" x="8" y="-35" font-family="Verdana" font-size="10.00">CIntegerParameterType</text>
<text text-anchor="middle" x="64" y="-22" font-family="Verdana" font-size="10.00">::toBlackboard</text>
</g>
<!-- Node2 -->
<g id="node3" class="node"><title>Node2</title>
<a xlink:href="classCParameterType.html#af5e79e641e4cd7929b60395d9ffd761a" target="_top" xlink:title="CParameterType::isEncodable">
<polygon fill="white" stroke="black" points="164,-40.5 164,-61.5 322,-61.5 322,-40.5 164,-40.5"/>
<text text-anchor="middle" x="243" y="-48.5" font-family="Verdana" font-size="10.00">CParameterType::isEncodable</text>
</a>
</g>
<!-- Node1&#45;&gt;Node2 -->
<g id="edge2" class="edge"><title>Node1&#45;&gt;Node2</title>
<path fill="none" stroke="midnightblue" d="M128.118,-38.164C136.409,-39.0904 145.018,-40.0523 153.625,-41.014"/>
<polygon fill="midnightblue" stroke="midnightblue" points="153.383,-44.5086 163.709,-42.1407 154.16,-37.5519 153.383,-44.5086"/>
</g>
<!-- Node3 -->
<g id="node5" class="node"><title>Node3</title>
<a xlink:href="classCParameterType.html#ac32b37965ef213b6a8df9656b37596df" target="_top" xlink:title="Sign extension (32 bits) ">
<polygon fill="white" stroke="black" points="166.5,-0.5 166.5,-21.5 319.5,-21.5 319.5,-0.5 166.5,-0.5"/>
<text text-anchor="middle" x="243" y="-8.5" font-family="Verdana" font-size="10.00">CParameterType::signExtend</text>
</a>
</g>
<!-- Node1&#45;&gt;Node3 -->
<g id="edge4" class="edge"><title>Node1&#45;&gt;Node3</title>
<path fill="none" stroke="midnightblue" d="M128.118,-23.836C137.35,-22.8045 146.975,-21.7291 156.553,-20.6588"/>
<polygon fill="midnightblue" stroke="midnightblue" points="156.95,-24.1364 166.5,-19.5475 156.173,-17.1797 156.95,-24.1364"/>
</g>
</g>
</svg>
