<?xml version="1.0" encoding="UTF-8" standalone="no"?>
<!DOCTYPE svg PUBLIC "-//W3C//DTD SVG 1.1//EN"
 "http://www.w3.org/Graphics/SVG/1.1/DTD/svg11.dtd">
<!-- Generated by graphviz version 2.26.3 (20100126.1600)
 -->
<!-- Title: CConfigurableDomain::fromXml Pages: 1 -->
<svg width="314pt" height="82pt"
 viewBox="0.00 0.00 314.00 82.00" xmlns="http://www.w3.org/2000/svg" xmlns:xlink="http://www.w3.org/1999/xlink">
<g id="graph1" class="graph" transform="scale(1 1) rotate(0) translate(4 78)">
<title>CConfigurableDomain::fromXml</title>
<polygon fill="white" stroke="white" points="-4,5 -4,-78 311,-78 311,5 -4,5"/>
<!-- Node1 -->
<g id="node1" class="node"><title>Node1</title>
<polygon fill="#bfbfbf" stroke="black" points="0.5,-23 0.5,-57 121.5,-57 121.5,-23 0.5,-23"/>
<text text-anchor="start" x="8.5" y="-44" font-family="Verdana" font-size="10.00">CConfigurableDomain</text>
<text text-anchor="middle" x="61" y="-31" font-family="Verdana" font-size="10.00">::fromXml</text>
</g>
<!-- Node2 -->
<g id="node3" class="node"><title>Node2</title>
<a xlink:href="classCElement.html#a9018d33125b066d6cd791659af95c6fe" target="_top" xlink:title="CElement::setName">
<polygon fill="white" stroke="black" points="175.5,-52.5 175.5,-73.5 288.5,-73.5 288.5,-52.5 175.5,-52.5"/>
<text text-anchor="middle" x="232" y="-60.5" font-family="Verdana" font-size="10.00">CElement::setName</text>
</a>
</g>
<!-- Node1&#45;&gt;Node2 -->
<g id="edge2" class="edge"><title>Node1&#45;&gt;Node2</title>
<path fill="none" stroke="midnightblue" d="M121.77,-48.1737C135.829,-50.0647 150.864,-52.0869 165.166,-54.0107"/>
<polygon fill="midnightblue" stroke="midnightblue" points="165.049,-57.5264 175.427,-55.3907 165.983,-50.5889 165.049,-57.5264"/>
</g>
<!-- Node3 -->
<g id="node5" class="node"><title>Node3</title>
<a xlink:href="classCXmlDomainImportContext.html#a6131d7195b5c80cabcd9a0f0be5776bd" target="_top" xlink:title="CXmlDomainImportContext\l::autoValidationRequired">
<polygon fill="white" stroke="black" points="158,-0 158,-34 306,-34 306,-0 158,-0"/>
<text text-anchor="start" x="166" y="-21" font-family="Verdana" font-size="10.00">CXmlDomainImportContext</text>
<text text-anchor="middle" x="232" y="-8" font-family="Verdana" font-size="10.00">::autoValidationRequired</text>
</a>
</g>
<!-- Node1&#45;&gt;Node3 -->
<g id="edge4" class="edge"><title>Node1&#45;&gt;Node3</title>
<path fill="none" stroke="midnightblue" d="M121.77,-31.8263C130.279,-30.6818 139.146,-29.4892 147.991,-28.2994"/>
<polygon fill="midnightblue" stroke="midnightblue" points="148.505,-31.762 157.949,-26.9601 147.571,-24.8245 148.505,-31.762"/>
</g>
</g>
</svg>
