<?xml version="1.0" encoding="UTF-8" standalone="no"?>
<!DOCTYPE svg PUBLIC "-//W3C//DTD SVG 1.1//EN"
 "http://www.w3.org/Graphics/SVG/1.1/DTD/svg11.dtd">
<!-- Generated by graphviz version 2.26.3 (20100126.1600)
 -->
<!-- Title: CConfigurableDomains::listAssociatedElements Pages: 1 -->
<svg width="310pt" height="100pt"
 viewBox="0.00 0.00 310.00 100.00" xmlns="http://www.w3.org/2000/svg" xmlns:xlink="http://www.w3.org/1999/xlink">
<g id="graph1" class="graph" transform="scale(1 1) rotate(0) translate(4 96)">
<title>CConfigurableDomains::listAssociatedElements</title>
<polygon fill="white" stroke="white" points="-4,5 -4,-96 307,-96 307,5 -4,5"/>
<!-- Node1 -->
<g id="node1" class="node"><title>Node1</title>
<polygon fill="#bfbfbf" stroke="black" points="0,-26 0,-60 134,-60 134,-26 0,-26"/>
<text text-anchor="start" x="8" y="-47" font-family="Verdana" font-size="10.00">CConfigurableDomains</text>
<text text-anchor="middle" x="67" y="-34" font-family="Verdana" font-size="10.00">::listAssociatedElements</text>
</g>
<!-- Node2 -->
<g id="node3" class="node"><title>Node2</title>
<a xlink:href="classCConfigurableElement.html#a65f23dd6b625297444db48caff8c0e05" target="_top" xlink:title="CConfigurableElement\l::listAssociatedDomains">
<polygon fill="white" stroke="black" points="170.5,-58 170.5,-92 301.5,-92 301.5,-58 170.5,-58"/>
<text text-anchor="start" x="178.5" y="-79" font-family="Verdana" font-size="10.00">CConfigurableElement</text>
<text text-anchor="middle" x="236" y="-66" font-family="Verdana" font-size="10.00">::listAssociatedDomains</text>
</a>
</g>
<!-- Node1&#45;&gt;Node2 -->
<g id="edge2" class="edge"><title>Node1&#45;&gt;Node2</title>
<path fill="none" stroke="midnightblue" d="M134.279,-55.7392C142.813,-57.3552 151.593,-59.0176 160.248,-60.6565"/>
<polygon fill="midnightblue" stroke="midnightblue" points="159.854,-64.1439 170.33,-62.5655 161.156,-57.2661 159.854,-64.1439"/>
</g>
<!-- Node3 -->
<g id="node5" class="node"><title>Node3</title>
<a xlink:href="classCElement.html#a7022c0fc8063f0aae9d97b06e74d4ac1" target="_top" xlink:title="CElement::getPath">
<polygon fill="white" stroke="black" points="183,-0.5 183,-21.5 289,-21.5 289,-0.5 183,-0.5"/>
<text text-anchor="middle" x="236" y="-8.5" font-family="Verdana" font-size="10.00">CElement::getPath</text>
</a>
</g>
<!-- Node1&#45;&gt;Node3 -->
<g id="edge4" class="edge"><title>Node1&#45;&gt;Node3</title>
<path fill="none" stroke="midnightblue" d="M134.279,-30.2608C146.989,-27.8541 160.243,-25.3445 172.822,-22.9627"/>
<polygon fill="midnightblue" stroke="midnightblue" points="173.568,-26.3837 182.742,-21.0843 172.266,-19.506 173.568,-26.3837"/>
</g>
<!-- Node3&#45;&gt;Node3 -->
<g id="edge6" class="edge"><title>Node3&#45;&gt;Node3</title>
<path fill="none" stroke="midnightblue" d="M209.307,-21.7079C197.899,-30.6531 206.797,-40 236,-40 255.165,-40 265.584,-35.9746 267.259,-30.6791"/>
<polygon fill="midnightblue" stroke="midnightblue" points="270.349,-29.0325 262.693,-21.7079 264.11,-32.2076 270.349,-29.0325"/>
</g>
</g>
</svg>
