<?xml version="1.0" encoding="UTF-8" standalone="no"?>
<!DOCTYPE svg PUBLIC "-//W3C//DTD SVG 1.1//EN"
 "http://www.w3.org/Graphics/SVG/1.1/DTD/svg11.dtd">
<!-- Generated by graphviz version 2.26.3 (20100126.1600)
 -->
<!-- Title: CSelectionCriteriaDefinition::resetModifiedStatus Pages: 1 -->
<svg width="330pt" height="122pt"
 viewBox="0.00 0.00 330.00 122.00" xmlns="http://www.w3.org/2000/svg" xmlns:xlink="http://www.w3.org/1999/xlink">
<g id="graph1" class="graph" transform="scale(1 1) rotate(0) translate(4 118)">
<title>CSelectionCriteriaDefinition::resetModifiedStatus</title>
<polygon fill="white" stroke="white" points="-4,5 -4,-118 327,-118 327,5 -4,5"/>
<!-- Node1 -->
<g id="node1" class="node"><title>Node1</title>
<polygon fill="#bfbfbf" stroke="black" points="0.5,-46 0.5,-80 147.5,-80 147.5,-46 0.5,-46"/>
<text text-anchor="start" x="8.5" y="-67" font-family="Verdana" font-size="10.00">CSelectionCriteriaDefinition</text>
<text text-anchor="middle" x="74" y="-54" font-family="Verdana" font-size="10.00">::resetModifiedStatus</text>
</g>
<!-- Node2 -->
<g id="node3" class="node"><title>Node2</title>
<a xlink:href="classCElement.html#a25f58d9d8b35e770806d669fb2a378e4" target="_top" xlink:title="CElement::getNbChildren">
<polygon fill="white" stroke="black" points="184.5,-92.5 184.5,-113.5 321.5,-113.5 321.5,-92.5 184.5,-92.5"/>
<text text-anchor="middle" x="253" y="-100.5" font-family="Verdana" font-size="10.00">CElement::getNbChildren</text>
</a>
</g>
<!-- Node1&#45;&gt;Node2 -->
<g id="edge2" class="edge"><title>Node1&#45;&gt;Node2</title>
<path fill="none" stroke="midnightblue" d="M147.581,-79.4427C163.718,-83.0486 180.567,-86.8139 195.94,-90.2492"/>
<polygon fill="midnightblue" stroke="midnightblue" points="195.284,-93.6889 205.807,-92.4541 196.811,-86.8574 195.284,-93.6889"/>
</g>
<!-- Node3 -->
<g id="node5" class="node"><title>Node3</title>
<a xlink:href="classCElement.html#a41bf126c3fdbb5bec0c2c3dcf35e9079" target="_top" xlink:title="CElement::getChild">
<polygon fill="white" stroke="black" points="199,-52.5 199,-73.5 307,-73.5 307,-52.5 199,-52.5"/>
<text text-anchor="middle" x="253" y="-60.5" font-family="Verdana" font-size="10.00">CElement::getChild</text>
</a>
</g>
<!-- Node1&#45;&gt;Node3 -->
<g id="edge4" class="edge"><title>Node1&#45;&gt;Node3</title>
<path fill="none" stroke="midnightblue" d="M147.581,-63C161.259,-63 175.449,-63 188.818,-63"/>
<polygon fill="midnightblue" stroke="midnightblue" points="188.859,-66.5001 198.859,-63 188.859,-59.5001 188.859,-66.5001"/>
</g>
<!-- Node4 -->
<g id="node7" class="node"><title>Node4</title>
<a xlink:href="classCSelectionCriterion.html#a1faf6f53f52122588d3b012e29e7d635" target="_top" xlink:title="CSelectionCriterion\l::resetModifiedStatus">
<polygon fill="white" stroke="black" points="193.5,-0 193.5,-34 312.5,-34 312.5,-0 193.5,-0"/>
<text text-anchor="start" x="201.5" y="-21" font-family="Verdana" font-size="10.00">CSelectionCriterion</text>
<text text-anchor="middle" x="253" y="-8" font-family="Verdana" font-size="10.00">::resetModifiedStatus</text>
</a>
</g>
<!-- Node1&#45;&gt;Node4 -->
<g id="edge6" class="edge"><title>Node1&#45;&gt;Node4</title>
<path fill="none" stroke="midnightblue" d="M140.399,-45.9367C154.33,-42.3567 169.062,-38.5707 183.116,-34.9591"/>
<polygon fill="midnightblue" stroke="midnightblue" points="184.394,-38.2444 193.208,-32.3655 182.652,-31.4647 184.394,-38.2444"/>
</g>
</g>
</svg>
