<?xml version="1.0" encoding="UTF-8" standalone="no"?>
<!DOCTYPE svg PUBLIC "-//W3C//DTD SVG 1.1//EN"
 "http://www.w3.org/Graphics/SVG/1.1/DTD/svg11.dtd">
<!-- Generated by graphviz version 2.26.3 (20100126.1600)
 -->
<!-- Title: CElement::listChildren Pages: 1 -->
<svg width="304pt" height="70pt"
 viewBox="0.00 0.00 304.00 70.00" xmlns="http://www.w3.org/2000/svg" xmlns:xlink="http://www.w3.org/1999/xlink">
<g id="graph1" class="graph" transform="scale(1 1) rotate(0) translate(4 66)">
<title>CElement::listChildren</title>
<polygon fill="white" stroke="white" points="-4,5 -4,-66 301,-66 301,5 -4,5"/>
<!-- Node1 -->
<g id="node1" class="node"><title>Node1</title>
<polygon fill="#bfbfbf" stroke="black" points="0,-20.5 0,-41.5 122,-41.5 122,-20.5 0,-20.5"/>
<text text-anchor="middle" x="61" y="-28.5" font-family="Verdana" font-size="10.00">CElement::listChildren</text>
</g>
<!-- Node2 -->
<g id="node3" class="node"><title>Node2</title>
<a xlink:href="classCElement.html#a25f58d9d8b35e770806d669fb2a378e4" target="_top" xlink:title="CElement::getNbChildren">
<polygon fill="white" stroke="black" points="158.5,-40.5 158.5,-61.5 295.5,-61.5 295.5,-40.5 158.5,-40.5"/>
<text text-anchor="middle" x="227" y="-48.5" font-family="Verdana" font-size="10.00">CElement::getNbChildren</text>
</a>
</g>
<!-- Node1&#45;&gt;Node2 -->
<g id="edge2" class="edge"><title>Node1&#45;&gt;Node2</title>
<path fill="none" stroke="midnightblue" d="M122.341,-38.3904C130.771,-39.4062 139.522,-40.4605 148.212,-41.5074"/>
<polygon fill="midnightblue" stroke="midnightblue" points="148.014,-45.0089 158.361,-42.7302 148.851,-38.0591 148.014,-45.0089"/>
</g>
<!-- Node3 -->
<g id="node5" class="node"><title>Node3</title>
<a xlink:href="classCElement.html#a49581fb6412e29e932962acd82d52d6a" target="_top" xlink:title="CElement::getName">
<polygon fill="white" stroke="black" points="170,-0.5 170,-21.5 284,-21.5 284,-0.5 170,-0.5"/>
<text text-anchor="middle" x="227" y="-8.5" font-family="Verdana" font-size="10.00">CElement::getName</text>
</a>
</g>
<!-- Node1&#45;&gt;Node3 -->
<g id="edge4" class="edge"><title>Node1&#45;&gt;Node3</title>
<path fill="none" stroke="midnightblue" d="M122.341,-23.6096C134.463,-22.1491 147.247,-20.6088 159.558,-19.1255"/>
<polygon fill="midnightblue" stroke="midnightblue" points="160.254,-22.5671 169.763,-17.896 159.416,-15.6174 160.254,-22.5671"/>
</g>
</g>
</svg>
