<?xml version="1.0" encoding="UTF-8" standalone="no"?>
<!DOCTYPE svg PUBLIC "-//W3C//DTD SVG 1.1//EN"
 "http://www.w3.org/Graphics/SVG/1.1/DTD/svg11.dtd">
<!-- Generated by graphviz version 2.26.3 (20100126.1600)
 -->
<!-- Title: CConfigurableDomains::serializeSettings Pages: 1 -->
<svg width="342pt" height="94pt"
 viewBox="0.00 0.00 342.00 94.00" xmlns="http://www.w3.org/2000/svg" xmlns:xlink="http://www.w3.org/1999/xlink">
<g id="graph1" class="graph" transform="scale(1 1) rotate(0) translate(4 90)">
<title>CConfigurableDomains::serializeSettings</title>
<polygon fill="white" stroke="white" points="-4,5 -4,-90 339,-90 339,5 -4,5"/>
<!-- Node1 -->
<g id="node1" class="node"><title>Node1</title>
<polygon fill="#bfbfbf" stroke="black" points="0,-26 0,-60 126,-60 126,-26 0,-26"/>
<text text-anchor="start" x="8" y="-47" font-family="Verdana" font-size="10.00">CConfigurableDomains</text>
<text text-anchor="middle" x="63" y="-34" font-family="Verdana" font-size="10.00">::serializeSettings</text>
</g>
<!-- Node2 -->
<g id="node3" class="node"><title>Node2</title>
<a xlink:href="classCParameterMgr.html#a119c70bbe044eceb5e8cae6cc72ca690" target="_top" xlink:title="CParameterMgr::importDomains\lBinary">
<polygon fill="white" stroke="black" points="162,-52 162,-86 334,-86 334,-52 162,-52"/>
<text text-anchor="start" x="170" y="-73" font-family="Verdana" font-size="10.00">CParameterMgr::importDomains</text>
<text text-anchor="middle" x="248" y="-60" font-family="Verdana" font-size="10.00">Binary</text>
</a>
</g>
<!-- Node1&#45;&gt;Node2 -->
<g id="edge2" class="edge"><title>Node1&#45;&gt;Node2</title>
<path fill="none" stroke="midnightblue" d="M136.284,-53.2993C144.699,-54.482 153.336,-55.6959 161.9,-56.8994"/>
<polygon fill="midnightblue" stroke="midnightblue" points="136.539,-49.8009 126.149,-51.875 135.565,-56.7328 136.539,-49.8009"/>
</g>
<!-- Node3 -->
<g id="node5" class="node"><title>Node3</title>
<a xlink:href="classCParameterMgr.html#a4ba2047e2257649af8a544d5b80396e2" target="_top" xlink:title="CParameterMgr::exportDomains\lBinary">
<polygon fill="white" stroke="black" points="162.5,-0 162.5,-34 333.5,-34 333.5,-0 162.5,-0"/>
<text text-anchor="start" x="170.5" y="-21" font-family="Verdana" font-size="10.00">CParameterMgr::exportDomains</text>
<text text-anchor="middle" x="248" y="-8" font-family="Verdana" font-size="10.00">Binary</text>
</a>
</g>
<!-- Node1&#45;&gt;Node3 -->
<g id="edge4" class="edge"><title>Node1&#45;&gt;Node3</title>
<path fill="none" stroke="midnightblue" d="M136.097,-32.7269C144.679,-31.5208 153.494,-30.282 162.228,-29.0544"/>
<polygon fill="midnightblue" stroke="midnightblue" points="135.565,-29.2672 126.149,-34.125 136.539,-36.1991 135.565,-29.2672"/>
</g>
</g>
</svg>
