<?xml version="1.0" encoding="UTF-8" standalone="no"?>
<!DOCTYPE svg PUBLIC "-//W3C//DTD SVG 1.1//EN"
 "http://www.w3.org/Graphics/SVG/1.1/DTD/svg11.dtd">
<!-- Generated by graphviz version 2.26.3 (20100126.1600)
 -->
<!-- Title: CSimulatedBackSynchronizer::CSimulatedBackSynchronizer Pages: 1 -->
<svg width="354pt" height="42pt"
 viewBox="0.00 0.00 354.00 42.00" xmlns="http://www.w3.org/2000/svg" xmlns:xlink="http://www.w3.org/1999/xlink">
<g id="graph1" class="graph" transform="scale(1 1) rotate(0) translate(4 38)">
<title>CSimulatedBackSynchronizer::CSimulatedBackSynchronizer</title>
<polygon fill="white" stroke="white" points="-4,5 -4,-38 351,-38 351,5 -4,5"/>
<!-- Node1 -->
<g id="node1" class="node"><title>Node1</title>
<polygon fill="#bfbfbf" stroke="black" points="0,-0 0,-34 164,-34 164,-0 0,-0"/>
<text text-anchor="start" x="8" y="-21" font-family="Verdana" font-size="10.00">CSimulatedBackSynchronizer</text>
<text text-anchor="middle" x="82" y="-8" font-family="Verdana" font-size="10.00">::CSimulatedBackSynchronizer</text>
</g>
<!-- Node2 -->
<g id="node3" class="node"><title>Node2</title>
<a xlink:href="classCParameterAccessContext.html#a5c8a052ad42c4e93476715cd85f1d6e3" target="_top" xlink:title="CParameterAccessContext\l::setParameterBlackboard">
<polygon fill="white" stroke="black" points="200.5,-0 200.5,-34 345.5,-34 345.5,-0 200.5,-0"/>
<text text-anchor="start" x="208.5" y="-21" font-family="Verdana" font-size="10.00">CParameterAccessContext</text>
<text text-anchor="middle" x="273" y="-8" font-family="Verdana" font-size="10.00">::setParameterBlackboard</text>
</a>
</g>
<!-- Node1&#45;&gt;Node2 -->
<g id="edge2" class="edge"><title>Node1&#45;&gt;Node2</title>
<path fill="none" stroke="midnightblue" d="M164.11,-17C172.758,-17 181.555,-17 190.211,-17"/>
<polygon fill="midnightblue" stroke="midnightblue" points="190.289,-20.5001 200.289,-17 190.289,-13.5001 190.289,-20.5001"/>
</g>
</g>
</svg>
