<?xml version="1.0" encoding="UTF-8" standalone="no"?>
<!DOCTYPE svg PUBLIC "-//W3C//DTD SVG 1.1//EN"
 "http://www.w3.org/Graphics/SVG/1.1/DTD/svg11.dtd">
<!-- Generated by graphviz version 2.26.3 (20100126.1600)
 -->
<!-- Title: CAreaConfiguration::getSize Pages: 1 -->
<svg width="282pt" height="42pt"
 viewBox="0.00 0.00 282.00 42.00" xmlns="http://www.w3.org/2000/svg" xmlns:xlink="http://www.w3.org/1999/xlink">
<g id="graph1" class="graph" transform="scale(1 1) rotate(0) translate(4 38)">
<title>CAreaConfiguration::getSize</title>
<polygon fill="white" stroke="white" points="-4,5 -4,-38 279,-38 279,5 -4,5"/>
<!-- Node1 -->
<g id="node1" class="node"><title>Node1</title>
<polygon fill="#bfbfbf" stroke="black" points="0,-0 0,-34 110,-34 110,-0 0,-0"/>
<text text-anchor="start" x="8" y="-21" font-family="Verdana" font-size="10.00">CAreaConfiguration</text>
<text text-anchor="middle" x="55" y="-8" font-family="Verdana" font-size="10.00">::getSize</text>
</g>
<!-- Node2 -->
<g id="node3" class="node"><title>Node2</title>
<a xlink:href="classCParameterBlackboard.html#a1c0442d3a8907f740ce75d9b80cfa47f" target="_top" xlink:title="CParameterBlackboard\l::getSize">
<polygon fill="white" stroke="black" points="146.5,-0 146.5,-34 273.5,-34 273.5,-0 146.5,-0"/>
<text text-anchor="start" x="154.5" y="-21" font-family="Verdana" font-size="10.00">CParameterBlackboard</text>
<text text-anchor="middle" x="210" y="-8" font-family="Verdana" font-size="10.00">::getSize</text>
</a>
</g>
<!-- Node1&#45;&gt;Node2 -->
<g id="edge2" class="edge"><title>Node1&#45;&gt;Node2</title>
<path fill="none" stroke="midnightblue" d="M110.084,-17C118.527,-17 127.358,-17 136.128,-17"/>
<polygon fill="midnightblue" stroke="midnightblue" points="136.367,-20.5001 146.367,-17 136.367,-13.5001 136.367,-20.5001"/>
</g>
</g>
</svg>
