<?xml version="1.0" encoding="UTF-8" standalone="no"?>
<!DOCTYPE svg PUBLIC "-//W3C//DTD SVG 1.1//EN"
 "http://www.w3.org/Graphics/SVG/1.1/DTD/svg11.dtd">
<!-- Generated by graphviz version 2.26.3 (20100126.1600)
 -->
<!-- Title: CConfigurableElementWithMapping Pages: 1 -->
<svg width="668pt" height="450pt"
 viewBox="0.00 0.00 668.00 450.00" xmlns="http://www.w3.org/2000/svg" xmlns:xlink="http://www.w3.org/1999/xlink">
<g id="graph1" class="graph" transform="scale(1 1) rotate(0) translate(4 446)">
<title>CConfigurableElementWithMapping</title>
<polygon fill="white" stroke="white" points="-4,5 -4,-446 665,-446 665,5 -4,5"/>
<!-- Node1 -->
<g id="node1" class="node"><title>Node1</title>
<polygon fill="#bfbfbf" stroke="black" points="375.5,-233 375.5,-267 518.5,-267 518.5,-233 375.5,-233"/>
<text text-anchor="start" x="383.5" y="-254" font-family="Verdana" font-size="10.00">CConfigurableElementWith</text>
<text text-anchor="middle" x="447" y="-241" font-family="Verdana" font-size="10.00">Mapping</text>
</g>
<!-- Node6 -->
<g id="node11" class="node"><title>Node6</title>
<a xlink:href="classCInstanceConfigurableElement.html" target="_top" xlink:title="CInstanceConfigurableElement">
<polygon fill="white" stroke="black" points="296,-174.5 296,-195.5 460,-195.5 460,-174.5 296,-174.5"/>
<text text-anchor="middle" x="378" y="-182.5" font-family="Verdana" font-size="10.00">CInstanceConfigurableElement</text>
</a>
</g>
<!-- Node1&#45;&gt;Node6 -->
<g id="edge10" class="edge"><title>Node1&#45;&gt;Node6</title>
<path fill="none" stroke="midnightblue" d="M421.533,-226.009C410.542,-215.656 398.237,-204.063 389.52,-195.852"/>
<polygon fill="midnightblue" stroke="midnightblue" points="419.192,-228.613 428.871,-232.922 423.992,-223.517 419.192,-228.613"/>
</g>
<!-- Node15 -->
<g id="node29" class="node"><title>Node15</title>
<a xlink:href="classCSubsystem.html" target="_top" xlink:title="CSubsystem">
<polygon fill="white" stroke="black" points="522.5,-174.5 522.5,-195.5 599.5,-195.5 599.5,-174.5 522.5,-174.5"/>
<text text-anchor="middle" x="561" y="-182.5" font-family="Verdana" font-size="10.00">CSubsystem</text>
</a>
</g>
<!-- Node1&#45;&gt;Node15 -->
<g id="edge28" class="edge"><title>Node1&#45;&gt;Node15</title>
<path fill="none" stroke="midnightblue" d="M485.757,-227.902C504.855,-217.012 527.008,-204.381 542.307,-195.658"/>
<polygon fill="midnightblue" stroke="midnightblue" points="483.906,-224.928 476.952,-232.922 487.373,-231.009 483.906,-224.928"/>
</g>
<!-- Node2 -->
<g id="node2" class="node"><title>Node2</title>
<a xlink:href="classCConfigurableElement.html" target="_top" xlink:title="CConfigurableElement">
<polygon fill="white" stroke="black" points="385.5,-304.5 385.5,-325.5 508.5,-325.5 508.5,-304.5 385.5,-304.5"/>
<text text-anchor="middle" x="447" y="-312.5" font-family="Verdana" font-size="10.00">CConfigurableElement</text>
</a>
</g>
<!-- Node2&#45;&gt;Node1 -->
<g id="edge2" class="edge"><title>Node2&#45;&gt;Node1</title>
<path fill="none" stroke="midnightblue" d="M447,-294.131C447,-285.405 447,-275.391 447,-267.11"/>
<polygon fill="midnightblue" stroke="midnightblue" points="443.5,-294.267 447,-304.267 450.5,-294.267 443.5,-294.267"/>
</g>
<!-- Node3 -->
<g id="node4" class="node"><title>Node3</title>
<a xlink:href="classCElement.html" target="_top" xlink:title="CElement">
<polygon fill="white" stroke="black" points="415.5,-362.5 415.5,-383.5 478.5,-383.5 478.5,-362.5 415.5,-362.5"/>
<text text-anchor="middle" x="447" y="-370.5" font-family="Verdana" font-size="10.00">CElement</text>
</a>
</g>
<!-- Node3&#45;&gt;Node2 -->
<g id="edge4" class="edge"><title>Node3&#45;&gt;Node2</title>
<path fill="none" stroke="midnightblue" d="M447,-352.191C447,-343.168 447,-332.994 447,-325.571"/>
<polygon fill="midnightblue" stroke="midnightblue" points="443.5,-352.362 447,-362.362 450.5,-352.362 443.5,-352.362"/>
</g>
<!-- Node4 -->
<g id="node6" class="node"><title>Node4</title>
<polygon fill="white" stroke="#bfbfbf" points="378.5,-420.5 378.5,-441.5 435.5,-441.5 435.5,-420.5 378.5,-420.5"/>
<text text-anchor="middle" x="407" y="-428.5" font-family="Verdana" font-size="10.00">IXmlSink</text>
</g>
<!-- Node4&#45;&gt;Node3 -->
<g id="edge6" class="edge"><title>Node4&#45;&gt;Node3</title>
<path fill="none" stroke="midnightblue" d="M420.132,-411.959C426.64,-402.522 434.253,-391.484 439.71,-383.571"/>
<polygon fill="midnightblue" stroke="midnightblue" points="417.133,-410.143 414.337,-420.362 422.895,-414.117 417.133,-410.143"/>
</g>
<!-- Node5 -->
<g id="node8" class="node"><title>Node5</title>
<polygon fill="white" stroke="#bfbfbf" points="452.5,-420.5 452.5,-441.5 523.5,-441.5 523.5,-420.5 452.5,-420.5"/>
<text text-anchor="middle" x="488" y="-428.5" font-family="Verdana" font-size="10.00">IXmlSource</text>
</g>
<!-- Node5&#45;&gt;Node3 -->
<g id="edge8" class="edge"><title>Node5&#45;&gt;Node3</title>
<path fill="none" stroke="midnightblue" d="M474.54,-411.959C467.869,-402.522 460.066,-391.484 454.472,-383.571"/>
<polygon fill="midnightblue" stroke="midnightblue" points="471.85,-414.216 480.48,-420.362 477.566,-410.176 471.85,-414.216"/>
</g>
<!-- Node7 -->
<g id="node13" class="node"><title>Node7</title>
<a xlink:href="classCBaseParameter.html" target="_top" xlink:title="CBaseParameter">
<polygon fill="white" stroke="black" points="92,-116.5 92,-137.5 190,-137.5 190,-116.5 92,-116.5"/>
<text text-anchor="middle" x="141" y="-124.5" font-family="Verdana" font-size="10.00">CBaseParameter</text>
</a>
</g>
<!-- Node6&#45;&gt;Node7 -->
<g id="edge12" class="edge"><title>Node6&#45;&gt;Node7</title>
<path fill="none" stroke="midnightblue" d="M325.192,-172.077C282.676,-161.672 223.667,-147.231 183.999,-137.523"/>
<polygon fill="midnightblue" stroke="midnightblue" points="324.536,-175.519 335.081,-174.497 326.2,-168.72 324.536,-175.519"/>
</g>
<!-- Node12 -->
<g id="node23" class="node"><title>Node12</title>
<a xlink:href="classCBitParameterBlock.html" target="_top" xlink:title="CBitParameterBlock">
<polygon fill="white" stroke="black" points="208,-116.5 208,-137.5 320,-137.5 320,-116.5 208,-116.5"/>
<text text-anchor="middle" x="264" y="-124.5" font-family="Verdana" font-size="10.00">CBitParameterBlock</text>
</a>
</g>
<!-- Node6&#45;&gt;Node12 -->
<g id="edge22" class="edge"><title>Node6&#45;&gt;Node12</title>
<path fill="none" stroke="midnightblue" d="M348.383,-169.932C328.456,-159.793 302.671,-146.675 284.876,-137.621"/>
<polygon fill="midnightblue" stroke="midnightblue" points="346.856,-173.081 357.355,-174.497 350.03,-166.843 346.856,-173.081"/>
</g>
<!-- Node13 -->
<g id="node25" class="node"><title>Node13</title>
<a xlink:href="classCComponent.html" target="_top" xlink:title="CComponent">
<polygon fill="white" stroke="black" points="338,-116.5 338,-137.5 418,-137.5 418,-116.5 338,-116.5"/>
<text text-anchor="middle" x="378" y="-124.5" font-family="Verdana" font-size="10.00">CComponent</text>
</a>
</g>
<!-- Node6&#45;&gt;Node13 -->
<g id="edge24" class="edge"><title>Node6&#45;&gt;Node13</title>
<path fill="none" stroke="midnightblue" d="M378,-164.191C378,-155.168 378,-144.994 378,-137.571"/>
<polygon fill="midnightblue" stroke="midnightblue" points="374.5,-164.362 378,-174.362 381.5,-164.362 374.5,-164.362"/>
</g>
<!-- Node14 -->
<g id="node27" class="node"><title>Node14</title>
<a xlink:href="classCParameterBlock.html" target="_top" xlink:title="CParameterBlock">
<polygon fill="white" stroke="black" points="435.5,-116.5 435.5,-137.5 534.5,-137.5 534.5,-116.5 435.5,-116.5"/>
<text text-anchor="middle" x="485" y="-124.5" font-family="Verdana" font-size="10.00">CParameterBlock</text>
</a>
</g>
<!-- Node6&#45;&gt;Node14 -->
<g id="edge26" class="edge"><title>Node6&#45;&gt;Node14</title>
<path fill="none" stroke="midnightblue" d="M406.563,-169.517C425.193,-159.419 449.02,-146.503 465.499,-137.571"/>
<polygon fill="midnightblue" stroke="midnightblue" points="404.749,-166.519 397.625,-174.362 408.085,-172.673 404.749,-166.519"/>
</g>
<!-- Node8 -->
<g id="node15" class="node"><title>Node8</title>
<a xlink:href="classCBitParameter.html" target="_top" xlink:title="CBitParameter">
<polygon fill="white" stroke="black" points="0,-58.5 0,-79.5 86,-79.5 86,-58.5 0,-58.5"/>
<text text-anchor="middle" x="43" y="-66.5" font-family="Verdana" font-size="10.00">CBitParameter</text>
</a>
</g>
<!-- Node7&#45;&gt;Node8 -->
<g id="edge14" class="edge"><title>Node7&#45;&gt;Node8</title>
<path fill="none" stroke="midnightblue" d="M114.136,-111.101C97.1802,-101.066 75.7469,-88.3808 60.8608,-79.5707"/>
<polygon fill="midnightblue" stroke="midnightblue" points="112.637,-114.281 123.025,-116.362 116.202,-108.257 112.637,-114.281"/>
</g>
<!-- Node9 -->
<g id="node17" class="node"><title>Node9</title>
<a xlink:href="classCParameter.html" target="_top" xlink:title="CParameter">
<polygon fill="white" stroke="black" points="104,-58.5 104,-79.5 178,-79.5 178,-58.5 104,-58.5"/>
<text text-anchor="middle" x="141" y="-66.5" font-family="Verdana" font-size="10.00">CParameter</text>
</a>
</g>
<!-- Node7&#45;&gt;Node9 -->
<g id="edge16" class="edge"><title>Node7&#45;&gt;Node9</title>
<path fill="none" stroke="midnightblue" d="M141,-106.191C141,-97.1684 141,-86.9941 141,-79.5707"/>
<polygon fill="midnightblue" stroke="midnightblue" points="137.5,-106.362 141,-116.362 144.5,-106.362 137.5,-106.362"/>
</g>
<!-- Node11 -->
<g id="node21" class="node"><title>Node11</title>
<a xlink:href="classCStringParameter.html" target="_top" xlink:title="CStringParameter">
<polygon fill="white" stroke="black" points="196,-58.5 196,-79.5 298,-79.5 298,-58.5 196,-58.5"/>
<text text-anchor="middle" x="247" y="-66.5" font-family="Verdana" font-size="10.00">CStringParameter</text>
</a>
</g>
<!-- Node7&#45;&gt;Node11 -->
<g id="edge20" class="edge"><title>Node7&#45;&gt;Node11</title>
<path fill="none" stroke="midnightblue" d="M169.296,-111.517C187.752,-101.419 211.356,-88.5032 227.681,-79.5707"/>
<polygon fill="midnightblue" stroke="midnightblue" points="167.535,-108.491 160.442,-116.362 170.895,-114.632 167.535,-108.491"/>
</g>
<!-- Node10 -->
<g id="node19" class="node"><title>Node10</title>
<a xlink:href="classCArrayParameter.html" target="_top" xlink:title="CArrayParameter">
<polygon fill="white" stroke="black" points="91.5,-0.5 91.5,-21.5 190.5,-21.5 190.5,-0.5 91.5,-0.5"/>
<text text-anchor="middle" x="141" y="-8.5" font-family="Verdana" font-size="10.00">CArrayParameter</text>
</a>
</g>
<!-- Node9&#45;&gt;Node10 -->
<g id="edge18" class="edge"><title>Node9&#45;&gt;Node10</title>
<path fill="none" stroke="midnightblue" d="M141,-48.1906C141,-39.1684 141,-28.9941 141,-21.5707"/>
<polygon fill="midnightblue" stroke="midnightblue" points="137.5,-48.3619 141,-58.3619 144.5,-48.3619 137.5,-48.3619"/>
</g>
<!-- Node16 -->
<g id="node31" class="node"><title>Node16</title>
<a xlink:href="classCVirtualSubsystem.html" target="_top" xlink:title="CVirtualSubsystem">
<polygon fill="white" stroke="black" points="552,-116.5 552,-137.5 660,-137.5 660,-116.5 552,-116.5"/>
<text text-anchor="middle" x="606" y="-124.5" font-family="Verdana" font-size="10.00">CVirtualSubsystem</text>
</a>
</g>
<!-- Node15&#45;&gt;Node16 -->
<g id="edge30" class="edge"><title>Node15&#45;&gt;Node16</title>
<path fill="none" stroke="midnightblue" d="M575.547,-166.25C582.918,-156.75 591.596,-145.565 597.799,-137.571"/>
<polygon fill="midnightblue" stroke="midnightblue" points="572.618,-164.316 569.254,-174.362 578.149,-168.607 572.618,-164.316"/>
</g>
</g>
</svg>
