<?xml version="1.0" encoding="UTF-8" standalone="no"?>
<!DOCTYPE svg PUBLIC "-//W3C//DTD SVG 1.1//EN"
 "http://www.w3.org/Graphics/SVG/1.1/DTD/svg11.dtd">
<!-- Generated by graphviz version 2.26.3 (20100126.1600)
 -->
<!-- Title: CIntegerParameterType::fromBlackboard Pages: 1 -->
<svg width="326pt" height="82pt"
 viewBox="0.00 0.00 326.00 82.00" xmlns="http://www.w3.org/2000/svg" xmlns:xlink="http://www.w3.org/1999/xlink">
<g id="graph1" class="graph" transform="scale(1 1) rotate(0) translate(4 78)">
<title>CIntegerParameterType::fromBlackboard</title>
<polygon fill="white" stroke="white" points="-4,5 -4,-78 323,-78 323,5 -4,5"/>
<!-- Node1 -->
<g id="node1" class="node"><title>Node1</title>
<polygon fill="#bfbfbf" stroke="black" points="0,-23 0,-57 128,-57 128,-23 0,-23"/>
<text text-anchor="start" x="8" y="-44" font-family="Verdana" font-size="10.00">CIntegerParameterType</text>
<text text-anchor="middle" x="64" y="-31" font-family="Verdana" font-size="10.00">::fromBlackboard</text>
</g>
<!-- Node2 -->
<g id="node3" class="node"><title>Node2</title>
<a xlink:href="classCParameterType.html#ac32b37965ef213b6a8df9656b37596df" target="_top" xlink:title="Sign extension (32 bits) ">
<polygon fill="white" stroke="black" points="164.5,-52.5 164.5,-73.5 317.5,-73.5 317.5,-52.5 164.5,-52.5"/>
<text text-anchor="middle" x="241" y="-60.5" font-family="Verdana" font-size="10.00">CParameterType::signExtend</text>
</a>
</g>
<!-- Node1&#45;&gt;Node2 -->
<g id="edge2" class="edge"><title>Node1&#45;&gt;Node2</title>
<path fill="none" stroke="midnightblue" d="M128.151,-48.336C136.705,-49.4476 145.588,-50.6019 154.445,-51.7528"/>
<polygon fill="midnightblue" stroke="midnightblue" points="154.048,-55.2304 164.415,-53.0483 154.95,-48.2888 154.048,-55.2304"/>
</g>
<!-- Node3 -->
<g id="node5" class="node"><title>Node3</title>
<a xlink:href="classCParameterAdaptation.html#a6368917b37960db2463dd7d79ba6ee76" target="_top" xlink:title="CParameterAdaptation\l::toUserValue">
<polygon fill="white" stroke="black" points="178,-0 178,-34 304,-34 304,-0 178,-0"/>
<text text-anchor="start" x="186" y="-21" font-family="Verdana" font-size="10.00">CParameterAdaptation</text>
<text text-anchor="middle" x="241" y="-8" font-family="Verdana" font-size="10.00">::toUserValue</text>
</a>
</g>
<!-- Node1&#45;&gt;Node3 -->
<g id="edge4" class="edge"><title>Node1&#45;&gt;Node3</title>
<path fill="none" stroke="midnightblue" d="M128.151,-31.664C141.081,-29.9839 154.762,-28.2061 167.969,-26.4899"/>
<polygon fill="midnightblue" stroke="midnightblue" points="168.49,-29.9517 177.956,-25.1922 167.588,-23.0101 168.49,-29.9517"/>
</g>
</g>
</svg>
