<?xml version="1.0" encoding="UTF-8" standalone="no"?>
<!DOCTYPE svg PUBLIC "-//W3C//DTD SVG 1.1//EN"
 "http://www.w3.org/Graphics/SVG/1.1/DTD/svg11.dtd">
<!-- Generated by graphviz version 2.26.3 (20100126.1600)
 -->
<!-- Title: CMessage::serialize Pages: 1 -->
<svg width="378pt" height="30pt"
 viewBox="0.00 0.00 378.00 30.00" xmlns="http://www.w3.org/2000/svg" xmlns:xlink="http://www.w3.org/1999/xlink">
<g id="graph1" class="graph" transform="scale(1 1) rotate(0) translate(4 26)">
<title>CMessage::serialize</title>
<polygon fill="white" stroke="white" points="-4,5 -4,-26 375,-26 375,5 -4,5"/>
<!-- Node1 -->
<g id="node1" class="node"><title>Node1</title>
<polygon fill="#bfbfbf" stroke="black" points="0.5,-0.5 0.5,-21.5 111.5,-21.5 111.5,-0.5 0.5,-0.5"/>
<text text-anchor="middle" x="56" y="-8.5" font-family="Verdana" font-size="10.00">CMessage::serialize</text>
</g>
<!-- Node2 -->
<g id="node3" class="node"><title>Node2</title>
<a xlink:href="main_8cpp.html#af14c089a76390ab8b7424bb69fad6352" target="_top" xlink:title="sendAndDisplayCommand">
<polygon fill="white" stroke="black" points="148.5,-0.5 148.5,-21.5 291.5,-21.5 291.5,-0.5 148.5,-0.5"/>
<text text-anchor="middle" x="220" y="-8.5" font-family="Verdana" font-size="10.00">sendAndDisplayCommand</text>
</a>
</g>
<!-- Node1&#45;&gt;Node2 -->
<g id="edge2" class="edge"><title>Node1&#45;&gt;Node2</title>
<path fill="none" stroke="midnightblue" d="M121.65,-11C130.399,-11 139.407,-11 148.254,-11"/>
<polygon fill="midnightblue" stroke="midnightblue" points="121.523,-7.5001 111.523,-11 121.523,-14.5001 121.523,-7.5001"/>
</g>
<!-- Node3 -->
<g id="node5" class="node"><title>Node3</title>
<a xlink:href="main_8cpp.html#a0ddf1224851353fc92bfbff6f499fa97" target="_top" xlink:title="main">
<polygon fill="white" stroke="black" points="328.5,-0.5 328.5,-21.5 369.5,-21.5 369.5,-0.5 328.5,-0.5"/>
<text text-anchor="middle" x="349" y="-8.5" font-family="Verdana" font-size="10.00">main</text>
</a>
</g>
<!-- Node2&#45;&gt;Node3 -->
<g id="edge4" class="edge"><title>Node2&#45;&gt;Node3</title>
<path fill="none" stroke="midnightblue" d="M301.949,-11C311.656,-11 320.792,-11 328.386,-11"/>
<polygon fill="midnightblue" stroke="midnightblue" points="301.668,-7.5001 291.667,-11 301.667,-14.5001 301.668,-7.5001"/>
</g>
</g>
</svg>
