<?xml version="1.0" encoding="UTF-8" standalone="no"?>
<!DOCTYPE svg PUBLIC "-//W3C//DTD SVG 1.1//EN"
 "http://www.w3.org/Graphics/SVG/1.1/DTD/svg11.dtd">
<!-- Generated by graphviz version 2.26.3 (20100126.1600)
 -->
<!-- Title: CRequestMessage::setCommand Pages: 1 -->
<svg width="452pt" height="42pt"
 viewBox="0.00 0.00 452.00 42.00" xmlns="http://www.w3.org/2000/svg" xmlns:xlink="http://www.w3.org/1999/xlink">
<g id="graph1" class="graph" transform="scale(1 1) rotate(0) translate(4 38)">
<title>CRequestMessage::setCommand</title>
<polygon fill="white" stroke="white" points="-4,5 -4,-38 449,-38 449,5 -4,5"/>
<!-- Node1 -->
<g id="node1" class="node"><title>Node1</title>
<polygon fill="#bfbfbf" stroke="black" points="0,-6.5 0,-27.5 176,-27.5 176,-6.5 0,-6.5"/>
<text text-anchor="middle" x="88" y="-14.5" font-family="Verdana" font-size="10.00">CRequestMessage::setCommand</text>
</g>
<!-- Node2 -->
<g id="node3" class="node"><title>Node2</title>
<a xlink:href="classCRequestMessageGenerator.html#ad81a727cb2c87141ea2304d7c842ebec" target="_top" xlink:title="CRequestMessageGenerator\l::next">
<polygon fill="white" stroke="black" points="212.5,-0 212.5,-34 365.5,-34 365.5,-0 212.5,-0"/>
<text text-anchor="start" x="220.5" y="-21" font-family="Verdana" font-size="10.00">CRequestMessageGenerator</text>
<text text-anchor="middle" x="289" y="-8" font-family="Verdana" font-size="10.00">::next</text>
</a>
</g>
<!-- Node1&#45;&gt;Node2 -->
<g id="edge2" class="edge"><title>Node1&#45;&gt;Node2</title>
<path fill="none" stroke="midnightblue" d="M186.349,-17C195.048,-17 203.769,-17 212.251,-17"/>
<polygon fill="midnightblue" stroke="midnightblue" points="186.162,-13.5001 176.162,-17 186.161,-20.5001 186.162,-13.5001"/>
</g>
<!-- Node3 -->
<g id="node5" class="node"><title>Node3</title>
<a xlink:href="main_8cpp.html#a0ddf1224851353fc92bfbff6f499fa97" target="_top" xlink:title="main">
<polygon fill="white" stroke="black" points="402.5,-6.5 402.5,-27.5 443.5,-27.5 443.5,-6.5 402.5,-6.5"/>
<text text-anchor="middle" x="423" y="-14.5" font-family="Verdana" font-size="10.00">main</text>
</a>
</g>
<!-- Node2&#45;&gt;Node3 -->
<g id="edge4" class="edge"><title>Node2&#45;&gt;Node3</title>
<path fill="none" stroke="midnightblue" d="M376.04,-17C385.707,-17 394.76,-17 402.289,-17"/>
<polygon fill="midnightblue" stroke="midnightblue" points="375.783,-13.5001 365.783,-17 375.783,-20.5001 375.783,-13.5001"/>
</g>
</g>
</svg>
