<?xml version="1.0" encoding="UTF-8" standalone="no"?>
<!DOCTYPE svg PUBLIC "-//W3C//DTD SVG 1.1//EN"
 "http://www.w3.org/Graphics/SVG/1.1/DTD/svg11.dtd">
<!-- Generated by graphviz version 2.26.3 (20100126.1600)
 -->
<!-- Title: CHardwareBackSynchronizer::CHardwareBackSynchronizer Pages: 1 -->
<svg width="704pt" height="131pt"
 viewBox="0.00 0.00 704.00 131.00" xmlns="http://www.w3.org/2000/svg" xmlns:xlink="http://www.w3.org/1999/xlink">
<g id="graph1" class="graph" transform="scale(1 1) rotate(0) translate(4 127)">
<title>CHardwareBackSynchronizer::CHardwareBackSynchronizer</title>
<polygon fill="white" stroke="white" points="-4,5 -4,-127 701,-127 701,5 -4,5"/>
<!-- Node1 -->
<g id="node1" class="node"><title>Node1</title>
<polygon fill="#bfbfbf" stroke="black" points="0.5,-54 0.5,-88 161.5,-88 161.5,-54 0.5,-54"/>
<text text-anchor="start" x="8.5" y="-75" font-family="Verdana" font-size="10.00">CHardwareBackSynchronizer</text>
<text text-anchor="middle" x="81" y="-62" font-family="Verdana" font-size="10.00">::CHardwareBackSynchronizer</text>
</g>
<!-- Node2 -->
<g id="node3" class="node"><title>Node2</title>
<a xlink:href="classCConfigurableElement.html#a0b3d6d2477e5ea7c23905604fabdb7bf" target="_top" xlink:title="CConfigurableElement\l::fillSyncerSet">
<polygon fill="white" stroke="black" points="198.5,-54 198.5,-88 321.5,-88 321.5,-54 198.5,-54"/>
<text text-anchor="start" x="206.5" y="-75" font-family="Verdana" font-size="10.00">CConfigurableElement</text>
<text text-anchor="middle" x="260" y="-62" font-family="Verdana" font-size="10.00">::fillSyncerSet</text>
</a>
</g>
<!-- Node1&#45;&gt;Node2 -->
<g id="edge2" class="edge"><title>Node1&#45;&gt;Node2</title>
<path fill="none" stroke="midnightblue" d="M161.598,-71C170.469,-71 179.457,-71 188.21,-71"/>
<polygon fill="midnightblue" stroke="midnightblue" points="188.356,-74.5001 198.356,-71 188.356,-67.5001 188.356,-74.5001"/>
</g>
<!-- Node3 -->
<g id="node5" class="node"><title>Node3</title>
<a xlink:href="classCConfigurableElement.html#ace18ab1044203825e43ce44126c9322d" target="_top" xlink:title="CConfigurableElement\l::getSyncer">
<polygon fill="white" stroke="black" points="378.5,-89 378.5,-123 501.5,-123 501.5,-89 378.5,-89"/>
<text text-anchor="start" x="386.5" y="-110" font-family="Verdana" font-size="10.00">CConfigurableElement</text>
<text text-anchor="middle" x="440" y="-97" font-family="Verdana" font-size="10.00">::getSyncer</text>
</a>
</g>
<!-- Node2&#45;&gt;Node3 -->
<g id="edge4" class="edge"><title>Node2&#45;&gt;Node3</title>
<path fill="none" stroke="midnightblue" d="M321.694,-82.996C336.721,-85.918 352.92,-89.0678 368.366,-92.0711"/>
<polygon fill="midnightblue" stroke="midnightblue" points="367.902,-95.5465 378.387,-94.0196 369.239,-88.6752 367.902,-95.5465"/>
</g>
<!-- Node5 -->
<g id="node9" class="node"><title>Node5</title>
<a xlink:href="classCConfigurableElement.html#a9f29ba1f8a319c22896deda2cf826e78" target="_top" xlink:title="CConfigurableElement\l::fillSyncerSetFromDescendant">
<polygon fill="white" stroke="black" points="358,-19 358,-53 522,-53 522,-19 358,-19"/>
<text text-anchor="start" x="366" y="-40" font-family="Verdana" font-size="10.00">CConfigurableElement</text>
<text text-anchor="middle" x="440" y="-27" font-family="Verdana" font-size="10.00">::fillSyncerSetFromDescendant</text>
</a>
</g>
<!-- Node2&#45;&gt;Node5 -->
<g id="edge8" class="edge"><title>Node2&#45;&gt;Node5</title>
<path fill="none" stroke="midnightblue" d="M321.694,-59.004C330.123,-57.3649 338.922,-55.6541 347.749,-53.9377"/>
<polygon fill="midnightblue" stroke="midnightblue" points="348.561,-57.3454 357.709,-52.001 347.225,-50.4741 348.561,-57.3454"/>
</g>
<!-- Node4 -->
<g id="node7" class="node"><title>Node4</title>
<a xlink:href="classCElement.html#a7987056bec3cbc71bed07cc88b060cf0" target="_top" xlink:title="CElement::getParent">
<polygon fill="white" stroke="black" points="569,-95.5 569,-116.5 685,-116.5 685,-95.5 569,-95.5"/>
<text text-anchor="middle" x="627" y="-103.5" font-family="Verdana" font-size="10.00">CElement::getParent</text>
</a>
</g>
<!-- Node3&#45;&gt;Node4 -->
<g id="edge6" class="edge"><title>Node3&#45;&gt;Node4</title>
<path fill="none" stroke="midnightblue" d="M501.749,-106C519.971,-106 540.018,-106 558.63,-106"/>
<polygon fill="midnightblue" stroke="midnightblue" points="558.802,-109.5 568.802,-106 558.802,-102.5 558.802,-109.5"/>
</g>
<!-- Node5&#45;&gt;Node5 -->
<g id="edge14" class="edge"><title>Node5&#45;&gt;Node5</title>
<path fill="none" stroke="midnightblue" d="M407.643,-53.2878C402.144,-62.5562 412.93,-71 440,-71 456.496,-71 466.945,-67.8645 471.347,-63.3176"/>
<polygon fill="midnightblue" stroke="midnightblue" points="474.837,-63.5884 472.357,-53.2878 467.872,-62.8865 474.837,-63.5884"/>
</g>
<!-- Node6 -->
<g id="node11" class="node"><title>Node6</title>
<a xlink:href="classCElement.html#a25f58d9d8b35e770806d669fb2a378e4" target="_top" xlink:title="CElement::getNbChildren">
<polygon fill="white" stroke="black" points="558.5,-40.5 558.5,-61.5 695.5,-61.5 695.5,-40.5 558.5,-40.5"/>
<text text-anchor="middle" x="627" y="-48.5" font-family="Verdana" font-size="10.00">CElement::getNbChildren</text>
</a>
</g>
<!-- Node5&#45;&gt;Node6 -->
<g id="edge10" class="edge"><title>Node5&#45;&gt;Node6</title>
<path fill="none" stroke="midnightblue" d="M522.021,-42.5792C530.767,-43.2808 539.649,-43.9933 548.355,-44.6916"/>
<polygon fill="midnightblue" stroke="midnightblue" points="548.228,-48.1925 558.476,-45.5034 548.787,-41.2149 548.228,-48.1925"/>
</g>
<!-- Node7 -->
<g id="node13" class="node"><title>Node7</title>
<a xlink:href="classCElement.html#a41bf126c3fdbb5bec0c2c3dcf35e9079" target="_top" xlink:title="CElement::getChild">
<polygon fill="white" stroke="black" points="573,-0.5 573,-21.5 681,-21.5 681,-0.5 573,-0.5"/>
<text text-anchor="middle" x="627" y="-8.5" font-family="Verdana" font-size="10.00">CElement::getChild</text>
</a>
</g>
<!-- Node5&#45;&gt;Node7 -->
<g id="edge12" class="edge"><title>Node5&#45;&gt;Node7</title>
<path fill="none" stroke="midnightblue" d="M522.021,-25.0346C535.572,-23.223 549.449,-21.3677 562.492,-19.6241"/>
<polygon fill="midnightblue" stroke="midnightblue" points="563.302,-23.047 572.75,-18.2527 562.374,-16.1087 563.302,-23.047"/>
</g>
</g>
</svg>
