<?xml version="1.0" encoding="UTF-8" standalone="no"?>
<!DOCTYPE svg PUBLIC "-//W3C//DTD SVG 1.1//EN"
 "http://www.w3.org/Graphics/SVG/1.1/DTD/svg11.dtd">
<!-- Generated by graphviz version 2.26.3 (20100126.1600)
 -->
<!-- Title: CDomainConfiguration::parseSettings Pages: 1 -->
<svg width="276pt" height="54pt"
 viewBox="0.00 0.00 276.00 54.00" xmlns="http://www.w3.org/2000/svg" xmlns:xlink="http://www.w3.org/1999/xlink">
<g id="graph1" class="graph" transform="scale(1 1) rotate(0) translate(4 50)">
<title>CDomainConfiguration::parseSettings</title>
<polygon fill="white" stroke="white" points="-4,5 -4,-50 273,-50 273,5 -4,5"/>
<!-- Node1 -->
<g id="node1" class="node"><title>Node1</title>
<polygon fill="#bfbfbf" stroke="black" points="0.5,-0 0.5,-34 125.5,-34 125.5,-0 0.5,-0"/>
<text text-anchor="start" x="8.5" y="-21" font-family="Verdana" font-size="10.00">CDomainConfiguration</text>
<text text-anchor="middle" x="63" y="-8" font-family="Verdana" font-size="10.00">::parseSettings</text>
</g>
<!-- Node2 -->
<g id="node3" class="node"><title>Node2</title>
<a xlink:href="classCElement.html#a7022c0fc8063f0aae9d97b06e74d4ac1" target="_top" xlink:title="CElement::getPath">
<polygon fill="white" stroke="black" points="162,-6.5 162,-27.5 268,-27.5 268,-6.5 162,-6.5"/>
<text text-anchor="middle" x="215" y="-14.5" font-family="Verdana" font-size="10.00">CElement::getPath</text>
</a>
</g>
<!-- Node1&#45;&gt;Node2 -->
<g id="edge2" class="edge"><title>Node1&#45;&gt;Node2</title>
<path fill="none" stroke="midnightblue" d="M125.702,-17C134.19,-17 142.907,-17 151.41,-17"/>
<polygon fill="midnightblue" stroke="midnightblue" points="151.648,-20.5001 161.648,-17 151.648,-13.5001 151.648,-20.5001"/>
</g>
<!-- Node2&#45;&gt;Node2 -->
<g id="edge4" class="edge"><title>Node2&#45;&gt;Node2</title>
<path fill="none" stroke="midnightblue" d="M190.849,-27.7079C180.528,-36.6531 188.578,-46 215,-46 231.927,-46 241.313,-42.164 243.161,-37.0551"/>
<polygon fill="midnightblue" stroke="midnightblue" points="246.31,-35.5184 239.151,-27.7079 239.877,-38.2778 246.31,-35.5184"/>
</g>
</g>
</svg>
