<?xml version="1.0" encoding="UTF-8" standalone="no"?>
<!DOCTYPE svg PUBLIC "-//W3C//DTD SVG 1.1//EN"
 "http://www.w3.org/Graphics/SVG/1.1/DTD/svg11.dtd">
<!-- Generated by graphviz version 2.26.3 (20100126.1600)
 -->
<!-- Title: CDefaultElementLibrary::createElement Pages: 1 -->
<svg width="324pt" height="42pt"
 viewBox="0.00 0.00 324.00 42.00" xmlns="http://www.w3.org/2000/svg" xmlns:xlink="http://www.w3.org/1999/xlink">
<g id="graph1" class="graph" transform="scale(1 1) rotate(0) translate(4 38)">
<title>CDefaultElementLibrary::createElement</title>
<polygon fill="white" stroke="white" points="-4,5 -4,-38 321,-38 321,5 -4,5"/>
<!-- Node1 -->
<g id="node1" class="node"><title>Node1</title>
<polygon fill="#bfbfbf" stroke="black" points="0,-0 0,-34 130,-34 130,-0 0,-0"/>
<text text-anchor="start" x="8" y="-21" font-family="Verdana" font-size="10.00">CDefaultElementLibrary</text>
<text text-anchor="middle" x="65" y="-8" font-family="Verdana" font-size="10.00">::createElement</text>
</g>
<!-- Node2 -->
<g id="node3" class="node"><title>Node2</title>
<a xlink:href="classCSubsystemElementBuilder.html#ab93319cc2de998b9d0674c2530e01e35" target="_top" xlink:title="CSubsystemElementBuilder\l::createElement">
<polygon fill="white" stroke="black" points="166,-0 166,-34 316,-34 316,-0 166,-0"/>
<text text-anchor="start" x="174" y="-21" font-family="Verdana" font-size="10.00">CSubsystemElementBuilder</text>
<text text-anchor="middle" x="241" y="-8" font-family="Verdana" font-size="10.00">::createElement</text>
</a>
</g>
<!-- Node1&#45;&gt;Node2 -->
<g id="edge2" class="edge"><title>Node1&#45;&gt;Node2</title>
<path fill="none" stroke="midnightblue" d="M140.264,-17C148.732,-17 157.362,-17 165.829,-17"/>
<polygon fill="midnightblue" stroke="midnightblue" points="140.036,-13.5001 130.036,-17 140.036,-20.5001 140.036,-13.5001"/>
</g>
</g>
</svg>
