<?xml version="1.0" encoding="UTF-8" standalone="no"?>
<!DOCTYPE svg PUBLIC "-//W3C//DTD SVG 1.1//EN"
 "http://www.w3.org/Graphics/SVG/1.1/DTD/svg11.dtd">
<!-- Generated by graphviz version 2.26.3 (20100126.1600)
 -->
<!-- Title: CAreaConfiguration::validateAgainst Pages: 1 -->
<svg width="282pt" height="94pt"
 viewBox="0.00 0.00 282.00 94.00" xmlns="http://www.w3.org/2000/svg" xmlns:xlink="http://www.w3.org/1999/xlink">
<g id="graph1" class="graph" transform="scale(1 1) rotate(0) translate(4 90)">
<title>CAreaConfiguration::validateAgainst</title>
<polygon fill="white" stroke="white" points="-4,5 -4,-90 279,-90 279,5 -4,5"/>
<!-- Node1 -->
<g id="node1" class="node"><title>Node1</title>
<polygon fill="#bfbfbf" stroke="black" points="0,-26 0,-60 110,-60 110,-26 0,-26"/>
<text text-anchor="start" x="8" y="-47" font-family="Verdana" font-size="10.00">CAreaConfiguration</text>
<text text-anchor="middle" x="55" y="-34" font-family="Verdana" font-size="10.00">::validateAgainst</text>
</g>
<!-- Node2 -->
<g id="node3" class="node"><title>Node2</title>
<a xlink:href="classCAreaConfiguration.html#a0154cd24ffc0127b9038546ab2657917" target="_top" xlink:title="CAreaConfiguration\l::isValid">
<polygon fill="white" stroke="black" points="155,-52 155,-86 265,-86 265,-52 155,-52"/>
<text text-anchor="start" x="163" y="-73" font-family="Verdana" font-size="10.00">CAreaConfiguration</text>
<text text-anchor="middle" x="210" y="-60" font-family="Verdana" font-size="10.00">::isValid</text>
</a>
</g>
<!-- Node1&#45;&gt;Node2 -->
<g id="edge2" class="edge"><title>Node1&#45;&gt;Node2</title>
<path fill="none" stroke="midnightblue" d="M110.084,-52.2398C121.323,-54.1251 133.25,-56.1258 144.803,-58.0638"/>
<polygon fill="midnightblue" stroke="midnightblue" points="144.392,-61.5435 154.833,-59.7461 145.55,-54.64 144.392,-61.5435"/>
</g>
<!-- Node3 -->
<g id="node5" class="node"><title>Node3</title>
<a xlink:href="classCParameterBlackboard.html#ad6a2b3fd050432c1e050347222544915" target="_top" xlink:title="CParameterBlackboard\l::restoreFrom">
<polygon fill="white" stroke="black" points="146.5,-0 146.5,-34 273.5,-34 273.5,-0 146.5,-0"/>
<text text-anchor="start" x="154.5" y="-21" font-family="Verdana" font-size="10.00">CParameterBlackboard</text>
<text text-anchor="middle" x="210" y="-8" font-family="Verdana" font-size="10.00">::restoreFrom</text>
</a>
</g>
<!-- Node1&#45;&gt;Node3 -->
<g id="edge4" class="edge"><title>Node1&#45;&gt;Node3</title>
<path fill="none" stroke="midnightblue" d="M110.084,-33.7602C118.619,-32.3285 127.55,-30.8303 136.414,-29.3435"/>
<polygon fill="midnightblue" stroke="midnightblue" points="137.084,-32.7801 146.367,-27.674 135.925,-25.8766 137.084,-32.7801"/>
</g>
</g>
</svg>
