<?xml version="1.0" encoding="UTF-8" standalone="no"?>
<!DOCTYPE svg PUBLIC "-//W3C//DTD SVG 1.1//EN"
 "http://www.w3.org/Graphics/SVG/1.1/DTD/svg11.dtd">
<!-- Generated by graphviz version 2.26.3 (20100126.1600)
 -->
<!-- Title: CListeningSocket::listen Pages: 1 -->
<svg width="308pt" height="70pt"
 viewBox="0.00 0.00 308.00 70.00" xmlns="http://www.w3.org/2000/svg" xmlns:xlink="http://www.w3.org/1999/xlink">
<g id="graph1" class="graph" transform="scale(1 1) rotate(0) translate(4 66)">
<title>CListeningSocket::listen</title>
<polygon fill="white" stroke="white" points="-4,5 -4,-66 305,-66 305,5 -4,5"/>
<!-- Node1 -->
<g id="node1" class="node"><title>Node1</title>
<polygon fill="#bfbfbf" stroke="black" points="0.5,-20.5 0.5,-41.5 131.5,-41.5 131.5,-20.5 0.5,-20.5"/>
<text text-anchor="middle" x="66" y="-28.5" font-family="Verdana" font-size="10.00">CListeningSocket::listen</text>
</g>
<!-- Node2 -->
<g id="node3" class="node"><title>Node2</title>
<a xlink:href="classCSocket.html#a489715f4b7fc3e5b5efd832766208acd" target="_top" xlink:title="CSocket::initSockAddrIn">
<polygon fill="white" stroke="black" points="168.5,-40.5 168.5,-61.5 299.5,-61.5 299.5,-40.5 168.5,-40.5"/>
<text text-anchor="middle" x="234" y="-48.5" font-family="Verdana" font-size="10.00">CSocket::initSockAddrIn</text>
</a>
</g>
<!-- Node1&#45;&gt;Node2 -->
<g id="edge2" class="edge"><title>Node1&#45;&gt;Node2</title>
<path fill="none" stroke="midnightblue" d="M131.916,-38.8471C140.505,-39.8697 149.359,-40.9237 158.096,-41.9638"/>
<polygon fill="midnightblue" stroke="midnightblue" points="157.931,-45.4687 168.274,-43.1755 158.758,-38.5178 157.931,-45.4687"/>
</g>
<!-- Node3 -->
<g id="node5" class="node"><title>Node3</title>
<a xlink:href="classCSocket.html#aa925e6f828f6084610bb19c80709ff0a" target="_top" xlink:title="CSocket::getFd">
<polygon fill="white" stroke="black" points="189.5,-0.5 189.5,-21.5 278.5,-21.5 278.5,-0.5 189.5,-0.5"/>
<text text-anchor="middle" x="234" y="-8.5" font-family="Verdana" font-size="10.00">CSocket::getFd</text>
</a>
</g>
<!-- Node1&#45;&gt;Node3 -->
<g id="edge4" class="edge"><title>Node1&#45;&gt;Node3</title>
<path fill="none" stroke="midnightblue" d="M131.916,-23.1529C147.601,-21.2856 164.169,-19.3132 179.289,-17.5132"/>
<polygon fill="midnightblue" stroke="midnightblue" points="179.981,-20.9556 189.498,-16.2979 179.154,-14.0047 179.981,-20.9556"/>
</g>
</g>
</svg>
