<?xml version="1.0" encoding="UTF-8" standalone="no"?>
<!DOCTYPE svg PUBLIC "-//W3C//DTD SVG 1.1//EN"
 "http://www.w3.org/Graphics/SVG/1.1/DTD/svg11.dtd">
<!-- Generated by graphviz version 2.26.3 (20100126.1600)
 -->
<!-- Title: CConfigurableDomain::removeConfigurableElement Pages: 1 -->
<svg width="594pt" height="56pt"
 viewBox="0.00 0.00 594.00 56.00" xmlns="http://www.w3.org/2000/svg" xmlns:xlink="http://www.w3.org/1999/xlink">
<g id="graph1" class="graph" transform="scale(1 1) rotate(0) translate(4 52)">
<title>CConfigurableDomain::removeConfigurableElement</title>
<polygon fill="white" stroke="white" points="-4,5 -4,-52 591,-52 591,5 -4,5"/>
<!-- Node1 -->
<g id="node1" class="node"><title>Node1</title>
<polygon fill="#bfbfbf" stroke="black" points="0.5,-7 0.5,-41 159.5,-41 159.5,-7 0.5,-7"/>
<text text-anchor="start" x="8.5" y="-28" font-family="Verdana" font-size="10.00">CConfigurableDomain</text>
<text text-anchor="middle" x="80" y="-15" font-family="Verdana" font-size="10.00">::removeConfigurableElement</text>
</g>
<!-- Node2 -->
<g id="node3" class="node"><title>Node2</title>
<a xlink:href="classCConfigurableDomains.html#ac5e3f505c51b2b016614aa460597fd59" target="_top" xlink:title="CConfigurableDomains\l::removeConfigurableElement\lFromDomain">
<polygon fill="white" stroke="black" points="196.5,-0.5 196.5,-47.5 355.5,-47.5 355.5,-0.5 196.5,-0.5"/>
<text text-anchor="start" x="204.5" y="-34.5" font-family="Verdana" font-size="10.00">CConfigurableDomains</text>
<text text-anchor="start" x="204.5" y="-21.5" font-family="Verdana" font-size="10.00">::removeConfigurableElement</text>
<text text-anchor="middle" x="276" y="-8.5" font-family="Verdana" font-size="10.00">FromDomain</text>
</a>
</g>
<!-- Node1&#45;&gt;Node2 -->
<g id="edge2" class="edge"><title>Node1&#45;&gt;Node2</title>
<path fill="none" stroke="midnightblue" d="M169.989,-24C178.785,-24 187.667,-24 196.35,-24"/>
<polygon fill="midnightblue" stroke="midnightblue" points="169.721,-20.5001 159.721,-24 169.721,-27.5001 169.721,-20.5001"/>
</g>
<!-- Node3 -->
<g id="node5" class="node"><title>Node3</title>
<a xlink:href="classCParameterMgr.html#a4f307490c67f2dde0b08e638500dd5d4" target="_top" xlink:title="CParameterMgr::removeConfigurable\lElementFromDomain">
<polygon fill="white" stroke="black" points="392,-7 392,-41 586,-41 586,-7 392,-7"/>
<text text-anchor="start" x="400" y="-28" font-family="Verdana" font-size="10.00">CParameterMgr::removeConfigurable</text>
<text text-anchor="middle" x="489" y="-15" font-family="Verdana" font-size="10.00">ElementFromDomain</text>
</a>
</g>
<!-- Node2&#45;&gt;Node3 -->
<g id="edge4" class="edge"><title>Node2&#45;&gt;Node3</title>
<path fill="none" stroke="midnightblue" d="M365.684,-24C374.332,-24 383.132,-24 391.847,-24"/>
<polygon fill="midnightblue" stroke="midnightblue" points="365.616,-20.5001 355.616,-24 365.616,-27.5001 365.616,-20.5001"/>
</g>
</g>
</svg>
