<?xml version="1.0" encoding="UTF-8" standalone="no"?>
<!DOCTYPE svg PUBLIC "-//W3C//DTD SVG 1.1//EN"
 "http://www.w3.org/Graphics/SVG/1.1/DTD/svg11.dtd">
<!-- Generated by graphviz version 2.26.3 (20100126.1600)
 -->
<!-- Title: IMapper::mapBegin Pages: 1 -->
<svg width="346pt" height="48pt"
 viewBox="0.00 0.00 346.00 48.00" xmlns="http://www.w3.org/2000/svg" xmlns:xlink="http://www.w3.org/1999/xlink">
<g id="graph1" class="graph" transform="scale(1 1) rotate(0) translate(4 44)">
<title>IMapper::mapBegin</title>
<polygon fill="white" stroke="white" points="-4,5 -4,-44 343,-44 343,5 -4,5"/>
<!-- Node1 -->
<g id="node1" class="node"><title>Node1</title>
<polygon fill="#bfbfbf" stroke="black" points="0,-0.5 0,-21.5 110,-21.5 110,-0.5 0,-0.5"/>
<text text-anchor="middle" x="55" y="-8.5" font-family="Verdana" font-size="10.00">IMapper::mapBegin</text>
</g>
<!-- Node2 -->
<g id="node3" class="node"><title>Node2</title>
<a xlink:href="classCInstanceConfigurableElement.html#a43d2ce5dbc487aa8de02d39af1b1c2d3" target="_top" xlink:title="CInstanceConfigurableElement::map">
<polygon fill="white" stroke="black" points="146.5,-0.5 146.5,-21.5 337.5,-21.5 337.5,-0.5 146.5,-0.5"/>
<text text-anchor="middle" x="242" y="-8.5" font-family="Verdana" font-size="10.00">CInstanceConfigurableElement::map</text>
</a>
</g>
<!-- Node1&#45;&gt;Node2 -->
<g id="edge2" class="edge"><title>Node1&#45;&gt;Node2</title>
<path fill="none" stroke="midnightblue" d="M120.209,-11C128.656,-11 137.443,-11 146.257,-11"/>
<polygon fill="midnightblue" stroke="midnightblue" points="120.095,-7.5001 110.095,-11 120.095,-14.5001 120.095,-7.5001"/>
</g>
<!-- Node2&#45;&gt;Node2 -->
<g id="edge4" class="edge"><title>Node2&#45;&gt;Node2</title>
<path fill="none" stroke="midnightblue" d="M207.275,-30.2987C208.702,-35.7807 220.277,-40 242,-40 274.332,-40 284.183,-30.6531 271.553,-21.7079"/>
<polygon fill="midnightblue" stroke="midnightblue" points="210.288,-32.0805 212.447,-21.7079 204.291,-28.4705 210.288,-32.0805"/>
</g>
</g>
</svg>
