<?xml version="1.0" encoding="UTF-8" standalone="no"?>
<!DOCTYPE svg PUBLIC "-//W3C//DTD SVG 1.1//EN"
 "http://www.w3.org/Graphics/SVG/1.1/DTD/svg11.dtd">
<!-- Generated by graphviz version 2.26.3 (20100126.1600)
 -->
<!-- Title: CParameterBlackboard::writeString Pages: 1 -->
<svg width="336pt" height="82pt"
 viewBox="0.00 0.00 336.00 82.00" xmlns="http://www.w3.org/2000/svg" xmlns:xlink="http://www.w3.org/1999/xlink">
<g id="graph1" class="graph" transform="scale(1 1) rotate(0) translate(4 78)">
<title>CParameterBlackboard::writeString</title>
<polygon fill="white" stroke="white" points="-4,5 -4,-78 333,-78 333,5 -4,5"/>
<!-- Node1 -->
<g id="node1" class="node"><title>Node1</title>
<polygon fill="#bfbfbf" stroke="black" points="0.5,-17 0.5,-51 127.5,-51 127.5,-17 0.5,-17"/>
<text text-anchor="start" x="8.5" y="-38" font-family="Verdana" font-size="10.00">CParameterBlackboard</text>
<text text-anchor="middle" x="64" y="-25" font-family="Verdana" font-size="10.00">::writeString</text>
</g>
<!-- Node2 -->
<g id="node3" class="node"><title>Node2</title>
<a xlink:href="classCStringParameter.html#a76f587f59ddcfd51704f55fd2fa88485" target="_top" xlink:title="CStringParameter::setDefault\lValues">
<polygon fill="white" stroke="black" points="167,-40 167,-74 325,-74 325,-40 167,-40"/>
<text text-anchor="start" x="175" y="-61" font-family="Verdana" font-size="10.00">CStringParameter::setDefault</text>
<text text-anchor="middle" x="246" y="-48" font-family="Verdana" font-size="10.00">Values</text>
</a>
</g>
<!-- Node1&#45;&gt;Node2 -->
<g id="edge2" class="edge"><title>Node1&#45;&gt;Node2</title>
<path fill="none" stroke="midnightblue" d="M137.845,-43.332C147.348,-44.533 157.111,-45.7668 166.697,-46.9782"/>
<polygon fill="midnightblue" stroke="midnightblue" points="138.015,-39.8258 127.655,-42.0443 137.137,-46.7705 138.015,-39.8258"/>
</g>
<!-- Node3 -->
<g id="node5" class="node"><title>Node3</title>
<a xlink:href="classCStringParameter.html#a6a9db60ee5c1b4c620441d6e0d82bd08" target="_top" xlink:title="CStringParameter::doSetValue">
<polygon fill="white" stroke="black" points="164.5,-0.5 164.5,-21.5 327.5,-21.5 327.5,-0.5 164.5,-0.5"/>
<text text-anchor="middle" x="246" y="-8.5" font-family="Verdana" font-size="10.00">CStringParameter::doSetValue</text>
</a>
</g>
<!-- Node1&#45;&gt;Node3 -->
<g id="edge4" class="edge"><title>Node1&#45;&gt;Node3</title>
<path fill="none" stroke="midnightblue" d="M137.83,-24.6698C146.602,-23.5613 155.594,-22.4249 164.466,-21.3038"/>
<polygon fill="midnightblue" stroke="midnightblue" points="137.137,-21.2295 127.655,-25.9557 138.015,-28.1742 137.137,-21.2295"/>
</g>
</g>
</svg>
