<?xml version="1.0" encoding="UTF-8" standalone="no"?>
<!DOCTYPE svg PUBLIC "-//W3C//DTD SVG 1.1//EN"
 "http://www.w3.org/Graphics/SVG/1.1/DTD/svg11.dtd">
<!-- Generated by graphviz version 2.26.3 (20100126.1600)
 -->
<!-- Title: CParameterBlackboard::getSize Pages: 1 -->
<svg width="444pt" height="42pt"
 viewBox="0.00 0.00 444.00 42.00" xmlns="http://www.w3.org/2000/svg" xmlns:xlink="http://www.w3.org/1999/xlink">
<g id="graph1" class="graph" transform="scale(1 1) rotate(0) translate(4 38)">
<title>CParameterBlackboard::getSize</title>
<polygon fill="white" stroke="white" points="-4,5 -4,-38 441,-38 441,5 -4,5"/>
<!-- Node1 -->
<g id="node1" class="node"><title>Node1</title>
<polygon fill="#bfbfbf" stroke="black" points="0.5,-0 0.5,-34 127.5,-34 127.5,-0 0.5,-0"/>
<text text-anchor="start" x="8.5" y="-21" font-family="Verdana" font-size="10.00">CParameterBlackboard</text>
<text text-anchor="middle" x="64" y="-8" font-family="Verdana" font-size="10.00">::getSize</text>
</g>
<!-- Node2 -->
<g id="node3" class="node"><title>Node2</title>
<a xlink:href="classCAreaConfiguration.html#a8260adaf5e0b5c9801f9feee69316344" target="_top" xlink:title="CAreaConfiguration\l::getSize">
<polygon fill="white" stroke="black" points="164,-0 164,-34 274,-34 274,-0 164,-0"/>
<text text-anchor="start" x="172" y="-21" font-family="Verdana" font-size="10.00">CAreaConfiguration</text>
<text text-anchor="middle" x="219" y="-8" font-family="Verdana" font-size="10.00">::getSize</text>
</a>
</g>
<!-- Node1&#45;&gt;Node2 -->
<g id="edge2" class="edge"><title>Node1&#45;&gt;Node2</title>
<path fill="none" stroke="midnightblue" d="M138.008,-17C146.63,-17 155.31,-17 163.619,-17"/>
<polygon fill="midnightblue" stroke="midnightblue" points="137.939,-13.5001 127.939,-17 137.939,-20.5001 137.939,-13.5001"/>
</g>
<!-- Node3 -->
<g id="node5" class="node"><title>Node3</title>
<a xlink:href="classCDomainConfiguration.html#a5cdebfcc47c7e7571f9a726b619f374a" target="_top" xlink:title="CDomainConfiguration\l::getDataSize">
<polygon fill="white" stroke="black" points="310.5,-0 310.5,-34 435.5,-34 435.5,-0 310.5,-0"/>
<text text-anchor="start" x="318.5" y="-21" font-family="Verdana" font-size="10.00">CDomainConfiguration</text>
<text text-anchor="middle" x="373" y="-8" font-family="Verdana" font-size="10.00">::getDataSize</text>
</a>
</g>
<!-- Node2&#45;&gt;Node3 -->
<g id="edge4" class="edge"><title>Node2&#45;&gt;Node3</title>
<path fill="none" stroke="midnightblue" d="M284.214,-17C292.88,-17 301.749,-17 310.369,-17"/>
<polygon fill="midnightblue" stroke="midnightblue" points="284.163,-13.5001 274.163,-17 284.163,-20.5001 284.163,-13.5001"/>
</g>
</g>
</svg>
