<?xml version="1.0" encoding="UTF-8" standalone="no"?>
<!DOCTYPE svg PUBLIC "-//W3C//DTD SVG 1.1//EN"
 "http://www.w3.org/Graphics/SVG/1.1/DTD/svg11.dtd">
<!-- Generated by graphviz version 2.26.3 (20100126.1600)
 -->
<!-- Title: CFrameworkConfigurationGroup Pages: 1 -->
<svg width="176pt" height="204pt"
 viewBox="0.00 0.00 176.00 204.00" xmlns="http://www.w3.org/2000/svg" xmlns:xlink="http://www.w3.org/1999/xlink">
<g id="graph1" class="graph" transform="scale(1 1) rotate(0) translate(4 200)">
<title>CFrameworkConfigurationGroup</title>
<polygon fill="white" stroke="white" points="-4,5 -4,-200 173,-200 173,5 -4,5"/>
<!-- Node1 -->
<g id="node1" class="node"><title>Node1</title>
<polygon fill="#bfbfbf" stroke="black" points="0,-0.5 0,-21.5 168,-21.5 168,-0.5 0,-0.5"/>
<text text-anchor="middle" x="84" y="-8.5" font-family="Verdana" font-size="10.00">CFrameworkConfigurationGroup</text>
</g>
<!-- Node2 -->
<g id="node2" class="node"><title>Node2</title>
<a xlink:href="classCKindElement.html" target="_top" xlink:title="CKindElement">
<polygon fill="white" stroke="black" points="42.5,-58.5 42.5,-79.5 125.5,-79.5 125.5,-58.5 42.5,-58.5"/>
<text text-anchor="middle" x="84" y="-66.5" font-family="Verdana" font-size="10.00">CKindElement</text>
</a>
</g>
<!-- Node2&#45;&gt;Node1 -->
<g id="edge2" class="edge"><title>Node2&#45;&gt;Node1</title>
<path fill="none" stroke="midnightblue" d="M84,-48.1906C84,-39.1684 84,-28.9941 84,-21.5707"/>
<polygon fill="midnightblue" stroke="midnightblue" points="80.5001,-48.3619 84,-58.3619 87.5001,-48.3619 80.5001,-48.3619"/>
</g>
<!-- Node3 -->
<g id="node4" class="node"><title>Node3</title>
<a xlink:href="classCElement.html" target="_top" xlink:title="CElement">
<polygon fill="white" stroke="black" points="52.5,-116.5 52.5,-137.5 115.5,-137.5 115.5,-116.5 52.5,-116.5"/>
<text text-anchor="middle" x="84" y="-124.5" font-family="Verdana" font-size="10.00">CElement</text>
</a>
</g>
<!-- Node3&#45;&gt;Node2 -->
<g id="edge4" class="edge"><title>Node3&#45;&gt;Node2</title>
<path fill="none" stroke="midnightblue" d="M84,-106.191C84,-97.1684 84,-86.9941 84,-79.5707"/>
<polygon fill="midnightblue" stroke="midnightblue" points="80.5001,-106.362 84,-116.362 87.5001,-106.362 80.5001,-106.362"/>
</g>
<!-- Node4 -->
<g id="node6" class="node"><title>Node4</title>
<polygon fill="white" stroke="#bfbfbf" points="15.5,-174.5 15.5,-195.5 72.5,-195.5 72.5,-174.5 15.5,-174.5"/>
<text text-anchor="middle" x="44" y="-182.5" font-family="Verdana" font-size="10.00">IXmlSink</text>
</g>
<!-- Node4&#45;&gt;Node3 -->
<g id="edge6" class="edge"><title>Node4&#45;&gt;Node3</title>
<path fill="none" stroke="midnightblue" d="M57.1317,-165.959C63.64,-156.522 71.2528,-145.484 76.7099,-137.571"/>
<polygon fill="midnightblue" stroke="midnightblue" points="54.1327,-164.143 51.3366,-174.362 59.8952,-168.117 54.1327,-164.143"/>
</g>
<!-- Node5 -->
<g id="node8" class="node"><title>Node5</title>
<polygon fill="white" stroke="#bfbfbf" points="89.5,-174.5 89.5,-195.5 160.5,-195.5 160.5,-174.5 89.5,-174.5"/>
<text text-anchor="middle" x="125" y="-182.5" font-family="Verdana" font-size="10.00">IXmlSource</text>
</g>
<!-- Node5&#45;&gt;Node3 -->
<g id="edge8" class="edge"><title>Node5&#45;&gt;Node3</title>
<path fill="none" stroke="midnightblue" d="M111.54,-165.959C104.869,-156.522 97.0659,-145.484 91.4724,-137.571"/>
<polygon fill="midnightblue" stroke="midnightblue" points="108.85,-168.216 117.48,-174.362 114.566,-164.176 108.85,-168.216"/>
</g>
</g>
</svg>
