<?xml version="1.0" encoding="UTF-8" standalone="no"?>
<!DOCTYPE svg PUBLIC "-//W3C//DTD SVG 1.1//EN"
 "http://www.w3.org/Graphics/SVG/1.1/DTD/svg11.dtd">
<!-- Generated by graphviz version 2.26.3 (20100126.1600)
 -->
<!-- Title: CComponentType::getMappingData Pages: 1 -->
<svg width="350pt" height="60pt"
 viewBox="0.00 0.00 350.00 60.00" xmlns="http://www.w3.org/2000/svg" xmlns:xlink="http://www.w3.org/1999/xlink">
<g id="graph1" class="graph" transform="scale(1 1) rotate(0) translate(4 56)">
<title>CComponentType::getMappingData</title>
<polygon fill="white" stroke="white" points="-4,5 -4,-56 347,-56 347,5 -4,5"/>
<!-- Node1 -->
<g id="node1" class="node"><title>Node1</title>
<polygon fill="#bfbfbf" stroke="black" points="0,-6.5 0,-27.5 186,-27.5 186,-6.5 0,-6.5"/>
<text text-anchor="middle" x="93" y="-14.5" font-family="Verdana" font-size="10.00">CComponentType::getMappingData</text>
</g>
<!-- Node1&#45;&gt;Node1 -->
<g id="edge6" class="edge"><title>Node1&#45;&gt;Node1</title>
<path fill="none" stroke="midnightblue" d="M57.902,-36.2987C59.344,-41.7807 71.0433,-46 93,-46 125.68,-46 135.637,-36.6531 122.871,-27.7079"/>
<polygon fill="midnightblue" stroke="midnightblue" points="60.9211,-38.0702 63.1287,-27.7079 54.9409,-34.4318 60.9211,-38.0702"/>
</g>
<!-- Node2 -->
<g id="node3" class="node"><title>Node2</title>
<a xlink:href="classCComponentInstance.html#ad6743cf05a8a7ae191d61fcc127d6889" target="_top" xlink:title="CComponentInstance\l::getMappingData">
<polygon fill="white" stroke="black" points="222,-0 222,-34 342,-34 342,-0 222,-0"/>
<text text-anchor="start" x="230" y="-21" font-family="Verdana" font-size="10.00">CComponentInstance</text>
<text text-anchor="middle" x="282" y="-8" font-family="Verdana" font-size="10.00">::getMappingData</text>
</a>
</g>
<!-- Node1&#45;&gt;Node2 -->
<g id="edge2" class="edge"><title>Node1&#45;&gt;Node2</title>
<path fill="none" stroke="midnightblue" d="M196.326,-17C204.999,-17 213.572,-17 221.75,-17"/>
<polygon fill="midnightblue" stroke="midnightblue" points="196.116,-13.5001 186.116,-17 196.116,-20.5001 196.116,-13.5001"/>
</g>
<!-- Node2&#45;&gt;Node2 -->
<g id="edge4" class="edge"><title>Node2&#45;&gt;Node2</title>
<path fill="none" stroke="midnightblue" d="M249.26,-44.3176C253.858,-48.8645 264.771,-52 282,-52 310.273,-52 321.539,-43.5562 315.796,-34.2878"/>
<polygon fill="midnightblue" stroke="midnightblue" points="252.732,-43.8665 248.204,-34.2878 245.77,-44.5992 252.732,-43.8665"/>
</g>
</g>
</svg>
