<?xml version="1.0" encoding="UTF-8" standalone="no"?>
<!DOCTYPE svg PUBLIC "-//W3C//DTD SVG 1.1//EN"
 "http://www.w3.org/Graphics/SVG/1.1/DTD/svg11.dtd">
<!-- Generated by graphviz version 2.26.3 (20100126.1600)
 -->
<!-- Title: CSelectionCriteria::createSelectionCriterionType Pages: 1 -->
<svg width="378pt" height="42pt"
 viewBox="0.00 0.00 378.00 42.00" xmlns="http://www.w3.org/2000/svg" xmlns:xlink="http://www.w3.org/1999/xlink">
<g id="graph1" class="graph" transform="scale(1 1) rotate(0) translate(4 38)">
<title>CSelectionCriteria::createSelectionCriterionType</title>
<polygon fill="white" stroke="white" points="-4,5 -4,-38 375,-38 375,5 -4,5"/>
<!-- Node1 -->
<g id="node1" class="node"><title>Node1</title>
<polygon fill="#bfbfbf" stroke="black" points="0.5,-0 0.5,-34 159.5,-34 159.5,-0 0.5,-0"/>
<text text-anchor="start" x="8.5" y="-21" font-family="Verdana" font-size="10.00">CSelectionCriteria</text>
<text text-anchor="middle" x="80" y="-8" font-family="Verdana" font-size="10.00">::createSelectionCriterionType</text>
</g>
<!-- Node2 -->
<g id="node3" class="node"><title>Node2</title>
<a xlink:href="classCParameterMgr.html#a4d2a54a91f937ac71a1f7bbea2ffa1c2" target="_top" xlink:title="CParameterMgr::createSelection\lCriterionType">
<polygon fill="white" stroke="black" points="196.5,-0 196.5,-34 369.5,-34 369.5,-0 196.5,-0"/>
<text text-anchor="start" x="204.5" y="-21" font-family="Verdana" font-size="10.00">CParameterMgr::createSelection</text>
<text text-anchor="middle" x="283" y="-8" font-family="Verdana" font-size="10.00">CriterionType</text>
</a>
</g>
<!-- Node1&#45;&gt;Node2 -->
<g id="edge2" class="edge"><title>Node1&#45;&gt;Node2</title>
<path fill="none" stroke="midnightblue" d="M169.856,-17C178.61,-17 187.482,-17 196.206,-17"/>
<polygon fill="midnightblue" stroke="midnightblue" points="169.648,-13.5001 159.648,-17 169.648,-20.5001 169.648,-13.5001"/>
</g>
</g>
</svg>
