<?xml version="1.0" encoding="UTF-8" standalone="no"?>
<!DOCTYPE svg PUBLIC "-//W3C//DTD SVG 1.1//EN"
 "http://www.w3.org/Graphics/SVG/1.1/DTD/svg11.dtd">
<!-- Generated by graphviz version 2.26.3 (20100126.1600)
 -->
<!-- Title: CParameterMgr::restoreConfiguration Pages: 1 -->
<svg width="1124pt" height="201pt"
 viewBox="0.00 0.00 1124.00 201.00" xmlns="http://www.w3.org/2000/svg" xmlns:xlink="http://www.w3.org/1999/xlink">
<g id="graph1" class="graph" transform="scale(1 1) rotate(0) translate(4 197)">
<title>CParameterMgr::restoreConfiguration</title>
<polygon fill="white" stroke="white" points="-4,5 -4,-197 1121,-197 1121,5 -4,5"/>
<!-- Node1 -->
<g id="node1" class="node"><title>Node1</title>
<polygon fill="#bfbfbf" stroke="black" points="0,-124.5 0,-145.5 196,-145.5 196,-124.5 0,-124.5"/>
<text text-anchor="middle" x="98" y="-132.5" font-family="Verdana" font-size="10.00">CParameterMgr::restoreConfiguration</text>
</g>
<!-- Node2 -->
<g id="node3" class="node"><title>Node2</title>
<a xlink:href="classCConfigurableDomains.html#a9fa62075b2521f79af18240367662cc7" target="_top" xlink:title="CConfigurableDomains\l::restoreConfiguration">
<polygon fill="white" stroke="black" points="232,-118 232,-152 358,-152 358,-118 232,-118"/>
<text text-anchor="start" x="240" y="-139" font-family="Verdana" font-size="10.00">CConfigurableDomains</text>
<text text-anchor="middle" x="295" y="-126" font-family="Verdana" font-size="10.00">::restoreConfiguration</text>
</a>
</g>
<!-- Node1&#45;&gt;Node2 -->
<g id="edge2" class="edge"><title>Node1&#45;&gt;Node2</title>
<path fill="none" stroke="midnightblue" d="M196.211,-135C204.845,-135 213.481,-135 221.855,-135"/>
<polygon fill="midnightblue" stroke="midnightblue" points="221.922,-138.5 231.922,-135 221.922,-131.5 221.922,-138.5"/>
</g>
<!-- Node3 -->
<g id="node5" class="node"><title>Node3</title>
<a xlink:href="classCConfigurableDomains.html#a4dce38a1560b6e33871d3fa2d85cc449" target="_top" xlink:title="CConfigurableDomains\l::findConfigurableDomain">
<polygon fill="white" stroke="black" points="394.5,-151 394.5,-185 531.5,-185 531.5,-151 394.5,-151"/>
<text text-anchor="start" x="402.5" y="-172" font-family="Verdana" font-size="10.00">CConfigurableDomains</text>
<text text-anchor="middle" x="463" y="-159" font-family="Verdana" font-size="10.00">::findConfigurableDomain</text>
</a>
</g>
<!-- Node2&#45;&gt;Node3 -->
<g id="edge4" class="edge"><title>Node2&#45;&gt;Node3</title>
<path fill="none" stroke="midnightblue" d="M358.035,-147.382C366.626,-149.069 375.53,-150.818 384.355,-152.552"/>
<polygon fill="midnightblue" stroke="midnightblue" points="383.777,-156.005 394.264,-154.498 385.126,-149.136 383.777,-156.005"/>
</g>
<!-- Node5 -->
<g id="node9" class="node"><title>Node5</title>
<a xlink:href="classCConfigurableDomain.html#aa9e776e80956f8cc956b77213aae96ec" target="_top" xlink:title="CConfigurableDomain\l::restoreConfiguration">
<polygon fill="white" stroke="black" points="402.5,-85 402.5,-119 523.5,-119 523.5,-85 402.5,-85"/>
<text text-anchor="start" x="410.5" y="-106" font-family="Verdana" font-size="10.00">CConfigurableDomain</text>
<text text-anchor="middle" x="463" y="-93" font-family="Verdana" font-size="10.00">::restoreConfiguration</text>
</a>
</g>
<!-- Node2&#45;&gt;Node5 -->
<g id="edge8" class="edge"><title>Node2&#45;&gt;Node5</title>
<path fill="none" stroke="midnightblue" d="M358.035,-122.618C369.269,-120.411 381.037,-118.1 392.464,-115.855"/>
<polygon fill="midnightblue" stroke="midnightblue" points="393.259,-119.266 402.396,-113.904 391.909,-112.397 393.259,-119.266"/>
</g>
<!-- Node4 -->
<g id="node7" class="node"><title>Node4</title>
<a xlink:href="classCElement.html#a8595814a3159f32f874269907e70b260" target="_top" xlink:title="CElement::findChild">
<polygon fill="white" stroke="black" points="576,-171.5 576,-192.5 686,-192.5 686,-171.5 576,-171.5"/>
<text text-anchor="middle" x="631" y="-179.5" font-family="Verdana" font-size="10.00">CElement::findChild</text>
</a>
</g>
<!-- Node3&#45;&gt;Node4 -->
<g id="edge6" class="edge"><title>Node3&#45;&gt;Node4</title>
<path fill="none" stroke="midnightblue" d="M531.817,-173.735C543.056,-174.671 554.67,-175.639 565.819,-176.568"/>
<polygon fill="midnightblue" stroke="midnightblue" points="565.645,-180.066 575.901,-177.408 566.227,-173.09 565.645,-180.066"/>
</g>
<!-- Node6 -->
<g id="node11" class="node"><title>Node6</title>
<a xlink:href="classCElement.html#aaa4df1b13a53263f8cc2b668172873d9" target="_top" xlink:title="CElement::log_info">
<polygon fill="white" stroke="black" points="578,-131.5 578,-152.5 684,-152.5 684,-131.5 578,-131.5"/>
<text text-anchor="middle" x="631" y="-139.5" font-family="Verdana" font-size="10.00">CElement::log_info</text>
</a>
</g>
<!-- Node5&#45;&gt;Node6 -->
<g id="edge10" class="edge"><title>Node5&#45;&gt;Node6</title>
<path fill="none" stroke="midnightblue" d="M523.652,-116.441C541.094,-120.594 559.995,-125.094 577.006,-129.144"/>
<polygon fill="midnightblue" stroke="midnightblue" points="576.239,-132.559 586.778,-131.471 577.86,-125.75 576.239,-132.559"/>
</g>
<!-- Node7 -->
<g id="node13" class="node"><title>Node7</title>
<a xlink:href="classCElement.html#a49581fb6412e29e932962acd82d52d6a" target="_top" xlink:title="CElement::getName">
<polygon fill="white" stroke="black" points="574,-91.5 574,-112.5 688,-112.5 688,-91.5 574,-91.5"/>
<text text-anchor="middle" x="631" y="-99.5" font-family="Verdana" font-size="10.00">CElement::getName</text>
</a>
</g>
<!-- Node5&#45;&gt;Node7 -->
<g id="edge12" class="edge"><title>Node5&#45;&gt;Node7</title>
<path fill="none" stroke="midnightblue" d="M523.652,-102C536.684,-102 550.53,-102 563.794,-102"/>
<polygon fill="midnightblue" stroke="midnightblue" points="563.801,-105.5 573.8,-102 563.8,-98.5001 563.801,-105.5"/>
</g>
<!-- Node8 -->
<g id="node15" class="node"><title>Node8</title>
<a xlink:href="classCDomainConfiguration.html#a1e837621d00a5ed2282c525c25a484e7" target="_top" xlink:title="CDomainConfiguration\l::restore">
<polygon fill="white" stroke="black" points="568.5,-39 568.5,-73 693.5,-73 693.5,-39 568.5,-39"/>
<text text-anchor="start" x="576.5" y="-60" font-family="Verdana" font-size="10.00">CDomainConfiguration</text>
<text text-anchor="middle" x="631" y="-47" font-family="Verdana" font-size="10.00">::restore</text>
</a>
</g>
<!-- Node5&#45;&gt;Node8 -->
<g id="edge14" class="edge"><title>Node5&#45;&gt;Node8</title>
<path fill="none" stroke="midnightblue" d="M523.652,-85.3929C535.107,-82.2565 547.191,-78.9478 558.955,-75.7266"/>
<polygon fill="midnightblue" stroke="midnightblue" points="560.021,-79.0637 568.741,-73.047 558.172,-72.3122 560.021,-79.0637"/>
</g>
<!-- Node11 -->
<g id="node21" class="node"><title>Node11</title>
<a xlink:href="classCSyncerSet.html#a6ee2b3a5edcccc64b8694df736312e4b" target="_top" xlink:title="CSyncerSet::sync">
<polygon fill="white" stroke="black" points="887.5,-0.5 887.5,-21.5 988.5,-21.5 988.5,-0.5 887.5,-0.5"/>
<text text-anchor="middle" x="938" y="-8.5" font-family="Verdana" font-size="10.00">CSyncerSet::sync</text>
</a>
</g>
<!-- Node5&#45;&gt;Node11 -->
<g id="edge24" class="edge"><title>Node5&#45;&gt;Node11</title>
<path fill="none" stroke="midnightblue" d="M480.991,-84.9684C500.635,-67.5776 533.872,-41.5448 568,-30 672.164,5.23585 802.213,1.88349 877.121,-4.23207"/>
<polygon fill="midnightblue" stroke="midnightblue" points="877.053,-7.73908 887.316,-5.10962 877.653,-0.764867 877.053,-7.73908"/>
</g>
<!-- Node9 -->
<g id="node17" class="node"><title>Node9</title>
<a xlink:href="classCAreaConfiguration.html#a5f72a0349e2309a77459650ba10918a1" target="_top" xlink:title="CAreaConfiguration\l::restore">
<polygon fill="white" stroke="black" points="730,-39 730,-73 840,-73 840,-39 730,-39"/>
<text text-anchor="start" x="738" y="-60" font-family="Verdana" font-size="10.00">CAreaConfiguration</text>
<text text-anchor="middle" x="785" y="-47" font-family="Verdana" font-size="10.00">::restore</text>
</a>
</g>
<!-- Node8&#45;&gt;Node9 -->
<g id="edge16" class="edge"><title>Node8&#45;&gt;Node9</title>
<path fill="none" stroke="midnightblue" d="M693.638,-56C702.256,-56 711.124,-56 719.788,-56"/>
<polygon fill="midnightblue" stroke="midnightblue" points="719.837,-59.5001 729.837,-56 719.837,-52.5001 719.837,-59.5001"/>
</g>
<!-- Node10 -->
<g id="node19" class="node"><title>Node10</title>
<a xlink:href="classCConfigurableElement.html#a29d61e6d09ff508ebb87aea802f2704e" target="_top" xlink:title="CConfigurableElement\l::getOffset">
<polygon fill="white" stroke="black" points="876.5,-40 876.5,-74 999.5,-74 999.5,-40 876.5,-40"/>
<text text-anchor="start" x="884.5" y="-61" font-family="Verdana" font-size="10.00">CConfigurableElement</text>
<text text-anchor="middle" x="938" y="-48" font-family="Verdana" font-size="10.00">::getOffset</text>
</a>
</g>
<!-- Node9&#45;&gt;Node10 -->
<g id="edge18" class="edge"><title>Node9&#45;&gt;Node10</title>
<path fill="none" stroke="midnightblue" d="M840.237,-56.361C848.665,-56.4161 857.468,-56.4736 866.189,-56.5306"/>
<polygon fill="midnightblue" stroke="midnightblue" points="866.339,-60.0316 876.362,-56.5971 866.385,-53.0318 866.339,-60.0316"/>
</g>
<!-- Node9&#45;&gt;Node11 -->
<g id="edge20" class="edge"><title>Node9&#45;&gt;Node11</title>
<path fill="none" stroke="midnightblue" d="M840.237,-39.754C857.249,-34.7504 875.785,-29.2986 892.098,-24.5005"/>
<polygon fill="midnightblue" stroke="midnightblue" points="893.329,-27.7869 901.935,-21.6074 891.354,-21.0713 893.329,-27.7869"/>
</g>
<!-- Node12 -->
<g id="node23" class="node"><title>Node12</title>
<a xlink:href="classISyncer.html#a16844aac52fb0caf4aed4f68d4b038d9" target="_top" xlink:title="ISyncer::sync">
<polygon fill="white" stroke="black" points="1036,-0.5 1036,-21.5 1116,-21.5 1116,-0.5 1036,-0.5"/>
<text text-anchor="middle" x="1076" y="-8.5" font-family="Verdana" font-size="10.00">ISyncer::sync</text>
</a>
</g>
<!-- Node11&#45;&gt;Node12 -->
<g id="edge22" class="edge"><title>Node11&#45;&gt;Node12</title>
<path fill="none" stroke="midnightblue" d="M988.603,-11C1000.62,-11 1013.44,-11 1025.46,-11"/>
<polygon fill="midnightblue" stroke="midnightblue" points="1025.77,-14.5001 1035.77,-11 1025.77,-7.5001 1025.77,-14.5001"/>
</g>
</g>
</svg>
