<?xml version="1.0" encoding="UTF-8" standalone="no"?>
<!DOCTYPE svg PUBLIC "-//W3C//DTD SVG 1.1//EN"
 "http://www.w3.org/Graphics/SVG/1.1/DTD/svg11.dtd">
<!-- Generated by graphviz version 2.26.3 (20100126.1600)
 -->
<!-- Title: CSelectionCriterion::getFormattedDescription Pages: 1 -->
<svg width="642pt" height="94pt"
 viewBox="0.00 0.00 642.00 94.00" xmlns="http://www.w3.org/2000/svg" xmlns:xlink="http://www.w3.org/1999/xlink">
<g id="graph1" class="graph" transform="scale(1 1) rotate(0) translate(4 90)">
<title>CSelectionCriterion::getFormattedDescription</title>
<polygon fill="white" stroke="white" points="-4,5 -4,-90 639,-90 639,5 -4,5"/>
<!-- Node1 -->
<g id="node1" class="node"><title>Node1</title>
<polygon fill="#bfbfbf" stroke="black" points="0.5,-26 0.5,-60 143.5,-60 143.5,-26 0.5,-26"/>
<text text-anchor="start" x="8.5" y="-47" font-family="Verdana" font-size="10.00">CSelectionCriterion</text>
<text text-anchor="middle" x="72" y="-34" font-family="Verdana" font-size="10.00">::getFormattedDescription</text>
</g>
<!-- Node2 -->
<g id="node3" class="node"><title>Node2</title>
<a xlink:href="classCSelectionCriteriaDefinition.html#a24f1eb22f90ddb42ee971bdfc5f99aa5" target="_top" xlink:title="CSelectionCriteriaDefinition\l::listSelectionCriteria">
<polygon fill="white" stroke="black" points="180.5,-52 180.5,-86 327.5,-86 327.5,-52 180.5,-52"/>
<text text-anchor="start" x="188.5" y="-73" font-family="Verdana" font-size="10.00">CSelectionCriteriaDefinition</text>
<text text-anchor="middle" x="254" y="-60" font-family="Verdana" font-size="10.00">::listSelectionCriteria</text>
</a>
</g>
<!-- Node1&#45;&gt;Node2 -->
<g id="edge2" class="edge"><title>Node1&#45;&gt;Node2</title>
<path fill="none" stroke="midnightblue" d="M153.631,-54.6616C162.516,-55.9308 171.52,-57.2172 180.302,-58.4717"/>
<polygon fill="midnightblue" stroke="midnightblue" points="154.064,-51.188 143.67,-53.2386 153.074,-58.1177 154.064,-51.188"/>
</g>
<!-- Node5 -->
<g id="node9" class="node"><title>Node5</title>
<a xlink:href="classCSelectionCriterion.html#a83e33a27a1094e00154018756c0be2dc" target="_top" xlink:title="From ISelectionCriterionInterface. ">
<polygon fill="white" stroke="black" points="200,-0 200,-34 308,-34 308,-0 200,-0"/>
<text text-anchor="start" x="208" y="-21" font-family="Verdana" font-size="10.00">CSelectionCriterion</text>
<text text-anchor="middle" x="254" y="-8" font-family="Verdana" font-size="10.00">::setCriterionState</text>
</a>
</g>
<!-- Node1&#45;&gt;Node5 -->
<g id="edge8" class="edge"><title>Node1&#45;&gt;Node5</title>
<path fill="none" stroke="midnightblue" d="M153.842,-31.3083C169.43,-29.0814 185.381,-26.8027 199.839,-24.7373"/>
<polygon fill="midnightblue" stroke="midnightblue" points="153.074,-27.8823 143.67,-32.7614 154.064,-34.812 153.074,-27.8823"/>
</g>
<!-- Node3 -->
<g id="node5" class="node"><title>Node3</title>
<a xlink:href="classCSelectionCriteria.html#a25ca6671e46d02c906f512f6b33a44e4" target="_top" xlink:title="CSelectionCriteria\l::listSelectionCriteria">
<polygon fill="white" stroke="black" points="364.5,-52 364.5,-86 479.5,-86 479.5,-52 364.5,-52"/>
<text text-anchor="start" x="372.5" y="-73" font-family="Verdana" font-size="10.00">CSelectionCriteria</text>
<text text-anchor="middle" x="422" y="-60" font-family="Verdana" font-size="10.00">::listSelectionCriteria</text>
</a>
</g>
<!-- Node2&#45;&gt;Node3 -->
<g id="edge4" class="edge"><title>Node2&#45;&gt;Node3</title>
<path fill="none" stroke="midnightblue" d="M337.785,-69C346.749,-69 355.716,-69 364.279,-69"/>
<polygon fill="midnightblue" stroke="midnightblue" points="337.687,-65.5001 327.687,-69 337.687,-72.5001 337.687,-65.5001"/>
</g>
<!-- Node4 -->
<g id="node7" class="node"><title>Node4</title>
<a xlink:href="classCParameterMgr.html#aad4830a40d67cfae091cbf1a15ff29d0" target="_top" xlink:title="Load plugins, structures and settings from the config file given. ">
<polygon fill="white" stroke="black" points="516,-58.5 516,-79.5 634,-79.5 634,-58.5 516,-58.5"/>
<text text-anchor="middle" x="575" y="-66.5" font-family="Verdana" font-size="10.00">CParameterMgr::load</text>
</a>
</g>
<!-- Node3&#45;&gt;Node4 -->
<g id="edge6" class="edge"><title>Node3&#45;&gt;Node4</title>
<path fill="none" stroke="midnightblue" d="M489.889,-69C498.528,-69 507.316,-69 515.803,-69"/>
<polygon fill="midnightblue" stroke="midnightblue" points="489.843,-65.5001 479.843,-69 489.843,-72.5001 489.843,-65.5001"/>
</g>
</g>
</svg>
