<?xml version="1.0" encoding="UTF-8" standalone="no"?>
<!DOCTYPE svg PUBLIC "-//W3C//DTD SVG 1.1//EN"
 "http://www.w3.org/Graphics/SVG/1.1/DTD/svg11.dtd">
<!-- Generated by graphviz version 2.26.3 (20100126.1600)
 -->
<!-- Title: CTypeElement::getArrayLength Pages: 1 -->
<svg width="540pt" height="82pt"
 viewBox="0.00 0.00 540.00 82.00" xmlns="http://www.w3.org/2000/svg" xmlns:xlink="http://www.w3.org/1999/xlink">
<g id="graph1" class="graph" transform="scale(1 1) rotate(0) translate(4 78)">
<title>CTypeElement::getArrayLength</title>
<polygon fill="white" stroke="white" points="-4,5 -4,-78 537,-78 537,5 -4,5"/>
<!-- Node1 -->
<g id="node1" class="node"><title>Node1</title>
<polygon fill="#bfbfbf" stroke="black" points="0,-23.5 0,-44.5 164,-44.5 164,-23.5 0,-23.5"/>
<text text-anchor="middle" x="82" y="-31.5" font-family="Verdana" font-size="10.00">CTypeElement::getArrayLength</text>
</g>
<!-- Node2 -->
<g id="node3" class="node"><title>Node2</title>
<a xlink:href="classCInstanceConfigurableElement.html#a88419cbe46d3f8f92385605841b829fa" target="_top" xlink:title="CInstanceConfigurableElement\l::getArrayLength">
<polygon fill="white" stroke="black" points="200,-40 200,-74 364,-74 364,-40 200,-40"/>
<text text-anchor="start" x="208" y="-61" font-family="Verdana" font-size="10.00">CInstanceConfigurableElement</text>
<text text-anchor="middle" x="282" y="-48" font-family="Verdana" font-size="10.00">::getArrayLength</text>
</a>
</g>
<!-- Node1&#45;&gt;Node2 -->
<g id="edge2" class="edge"><title>Node1&#45;&gt;Node2</title>
<path fill="none" stroke="midnightblue" d="M174.187,-44.6015C182.726,-45.5835 191.342,-46.5743 199.783,-47.545"/>
<polygon fill="midnightblue" stroke="midnightblue" points="174.548,-41.12 164.213,-43.4545 173.748,-48.0742 174.548,-41.12"/>
</g>
<!-- Node3 -->
<g id="node5" class="node"><title>Node3</title>
<a xlink:href="classCTypeElement.html#ac4118594de3638c76ab40ccc4ecbb2a8" target="_top" xlink:title="CTypeElement::toXml">
<polygon fill="white" stroke="black" points="223,-0.5 223,-21.5 341,-21.5 341,-0.5 223,-0.5"/>
<text text-anchor="middle" x="282" y="-8.5" font-family="Verdana" font-size="10.00">CTypeElement::toXml</text>
</a>
</g>
<!-- Node1&#45;&gt;Node3 -->
<g id="edge4" class="edge"><title>Node1&#45;&gt;Node3</title>
<path fill="none" stroke="midnightblue" d="M174.392,-23.375C190.821,-21.4855 207.527,-19.5644 222.72,-17.8172"/>
<polygon fill="midnightblue" stroke="midnightblue" points="173.748,-19.9258 164.213,-24.5455 174.548,-26.88 173.748,-19.9258"/>
</g>
<!-- Node4 -->
<g id="node7" class="node"><title>Node4</title>
<a xlink:href="classCBaseParameter.html#a0fe540f46e1b69858e68b72fd7d383a8" target="_top" xlink:title="CBaseParameter::toXml">
<polygon fill="white" stroke="black" points="400.5,-0.5 400.5,-21.5 531.5,-21.5 531.5,-0.5 400.5,-0.5"/>
<text text-anchor="middle" x="466" y="-8.5" font-family="Verdana" font-size="10.00">CBaseParameter::toXml</text>
</a>
</g>
<!-- Node3&#45;&gt;Node4 -->
<g id="edge6" class="edge"><title>Node3&#45;&gt;Node4</title>
<path fill="none" stroke="midnightblue" d="M351.55,-11C367.496,-11 384.4,-11 400.183,-11"/>
<polygon fill="midnightblue" stroke="midnightblue" points="351.232,-7.5001 341.232,-11 351.232,-14.5001 351.232,-7.5001"/>
</g>
</g>
</svg>
