<?xml version="1.0" encoding="UTF-8" standalone="no"?>
<!DOCTYPE svg PUBLIC "-//W3C//DTD SVG 1.1//EN"
 "http://www.w3.org/Graphics/SVG/1.1/DTD/svg11.dtd">
<!-- Generated by graphviz version 2.26.3 (20100126.1600)
 -->
<!-- Title: CXmlElementSerializingContext::getElementLibrary Pages: 1 -->
<svg width="824pt" height="208pt"
 viewBox="0.00 0.00 824.00 208.00" xmlns="http://www.w3.org/2000/svg" xmlns:xlink="http://www.w3.org/1999/xlink">
<g id="graph1" class="graph" transform="scale(1 1) rotate(0) translate(4 204)">
<title>CXmlElementSerializingContext::getElementLibrary</title>
<polygon fill="white" stroke="white" points="-4,5 -4,-204 821,-204 821,5 -4,5"/>
<!-- Node1 -->
<g id="node1" class="node"><title>Node1</title>
<polygon fill="#bfbfbf" stroke="black" points="0.5,-57 0.5,-91 167.5,-91 167.5,-57 0.5,-57"/>
<text text-anchor="start" x="8.5" y="-78" font-family="Verdana" font-size="10.00">CXmlElementSerializingContext</text>
<text text-anchor="middle" x="84" y="-65" font-family="Verdana" font-size="10.00">::getElementLibrary</text>
</g>
<!-- Node2 -->
<g id="node3" class="node"><title>Node2</title>
<a xlink:href="classCElement.html#a0b4cdc10e6df8fd3740255c5faf3b596" target="_top" xlink:title="Creates a child CElement from a child XML Element. ">
<polygon fill="white" stroke="black" points="209.5,-86.5 209.5,-107.5 332.5,-107.5 332.5,-86.5 209.5,-86.5"/>
<text text-anchor="middle" x="271" y="-94.5" font-family="Verdana" font-size="10.00">CElement::createChild</text>
</a>
</g>
<!-- Node1&#45;&gt;Node2 -->
<g id="edge2" class="edge"><title>Node1&#45;&gt;Node2</title>
<path fill="none" stroke="midnightblue" d="M177.864,-85.5447C188.528,-86.8564 199.186,-88.1673 209.283,-89.4092"/>
<polygon fill="midnightblue" stroke="midnightblue" points="178.007,-82.0361 167.655,-84.2891 177.153,-88.9838 178.007,-82.0361"/>
</g>
<!-- Node9 -->
<g id="node20" class="node"><title>Node9</title>
<a xlink:href="classCXmlFileIncluderElement.html#a754298eb75aacfe300ed3942d51611aa" target="_top" xlink:title="CXmlFileIncluderElement\l::fromXml">
<polygon fill="white" stroke="black" points="204,-34 204,-68 338,-68 338,-34 204,-34"/>
<text text-anchor="start" x="212" y="-55" font-family="Verdana" font-size="10.00">CXmlFileIncluderElement</text>
<text text-anchor="middle" x="271" y="-42" font-family="Verdana" font-size="10.00">::fromXml</text>
</a>
</g>
<!-- Node1&#45;&gt;Node9 -->
<g id="edge22" class="edge"><title>Node1&#45;&gt;Node9</title>
<path fill="none" stroke="midnightblue" d="M177.66,-62.4804C186.535,-61.3887 195.409,-60.2973 203.961,-59.2454"/>
<polygon fill="midnightblue" stroke="midnightblue" points="177.153,-59.0162 167.655,-63.7109 178.007,-65.9639 177.153,-59.0162"/>
</g>
<!-- Node3 -->
<g id="node5" class="node"><title>Node3</title>
<a xlink:href="classCComponentLibrary.html#ad4cc928cda43371fb31f20394e8e04e5" target="_top" xlink:title="CComponentLibrary::\lfromXml">
<polygon fill="white" stroke="black" points="537.5,-45 537.5,-79 654.5,-79 654.5,-45 537.5,-45"/>
<text text-anchor="start" x="545.5" y="-66" font-family="Verdana" font-size="10.00">CComponentLibrary::</text>
<text text-anchor="middle" x="596" y="-53" font-family="Verdana" font-size="10.00">fromXml</text>
</a>
</g>
<!-- Node2&#45;&gt;Node3 -->
<g id="edge4" class="edge"><title>Node2&#45;&gt;Node3</title>
<path fill="none" stroke="midnightblue" d="M342.905,-105.91C388.363,-109.666 448.118,-111.136 500,-101 521.893,-96.7227 545.101,-87.4389 563.213,-79.0022"/>
<polygon fill="midnightblue" stroke="midnightblue" points="343.114,-102.415 332.846,-105.023 342.499,-109.388 343.114,-102.415"/>
</g>
<!-- Node5 -->
<g id="node9" class="node"><title>Node5</title>
<a xlink:href="classCConfigurableElement.html#a0e3feb8a7b18a3291ec960c9726b4eaf" target="_top" xlink:title="CConfigurableElement\l::serializeXmlSettings">
<polygon fill="white" stroke="black" points="375.5,-148 375.5,-182 498.5,-182 498.5,-148 375.5,-148"/>
<text text-anchor="start" x="383.5" y="-169" font-family="Verdana" font-size="10.00">CConfigurableElement</text>
<text text-anchor="middle" x="437" y="-156" font-family="Verdana" font-size="10.00">::serializeXmlSettings</text>
</a>
</g>
<!-- Node2&#45;&gt;Node5 -->
<g id="edge8" class="edge"><title>Node2&#45;&gt;Node5</title>
<path fill="none" stroke="midnightblue" d="M306.429,-111.513C332.499,-122.192 368.02,-136.743 395.432,-147.972"/>
<polygon fill="midnightblue" stroke="midnightblue" points="307.518,-108.177 296.938,-107.625 304.864,-114.655 307.518,-108.177"/>
</g>
<!-- Node7 -->
<g id="node14" class="node"><title>Node7</title>
<a xlink:href="classCDomainConfiguration.html#a97554abea0968d2e55151302b0260b63" target="_top" xlink:title="CDomainConfiguration\l::composeSettings">
<polygon fill="white" stroke="black" points="374.5,-58 374.5,-92 499.5,-92 499.5,-58 374.5,-58"/>
<text text-anchor="start" x="382.5" y="-79" font-family="Verdana" font-size="10.00">CDomainConfiguration</text>
<text text-anchor="middle" x="437" y="-66" font-family="Verdana" font-size="10.00">::composeSettings</text>
</a>
</g>
<!-- Node2&#45;&gt;Node7 -->
<g id="edge14" class="edge"><title>Node2&#45;&gt;Node7</title>
<path fill="none" stroke="midnightblue" d="M342.777,-87.4874C353.272,-86.0965 364.011,-84.6733 374.305,-83.3089"/>
<polygon fill="midnightblue" stroke="midnightblue" points="342.266,-84.0245 332.812,-88.808 343.185,-90.9638 342.266,-84.0245"/>
</g>
<!-- Node8 -->
<g id="node16" class="node"><title>Node8</title>
<a xlink:href="classCElement.html#a1978d50e2db432e7b8f0928f33d3f01a" target="_top" xlink:title="CElement::fromXml">
<polygon fill="white" stroke="black" points="382,-0.5 382,-21.5 492,-21.5 492,-0.5 382,-0.5"/>
<text text-anchor="middle" x="437" y="-8.5" font-family="Verdana" font-size="10.00">CElement::fromXml</text>
</a>
</g>
<!-- Node2&#45;&gt;Node8 -->
<g id="edge16" class="edge"><title>Node2&#45;&gt;Node8</title>
<path fill="none" stroke="midnightblue" d="M324.461,-83.0304C329.13,-81.2177 333.707,-79.211 338,-77 356.021,-67.7197 357.292,-60.4769 374,-49 388.424,-39.0919 405.452,-28.9056 418.167,-21.5765"/>
<polygon fill="midnightblue" stroke="midnightblue" points="323.048,-79.8186 314.811,-86.4817 325.405,-86.4098 323.048,-79.8186"/>
</g>
<!-- Node4 -->
<g id="node7" class="node"><title>Node4</title>
<a xlink:href="classCSubsystem.html#aa114a31f4aa4b0f47b3c616b721854d4" target="_top" xlink:title="CSubsystem::fromXml">
<polygon fill="white" stroke="black" points="692,-51.5 692,-72.5 816,-72.5 816,-51.5 692,-51.5"/>
<text text-anchor="middle" x="754" y="-59.5" font-family="Verdana" font-size="10.00">CSubsystem::fromXml</text>
</a>
</g>
<!-- Node3&#45;&gt;Node4 -->
<g id="edge6" class="edge"><title>Node3&#45;&gt;Node4</title>
<path fill="none" stroke="midnightblue" d="M664.892,-62C673.891,-62 683.067,-62 691.944,-62"/>
<polygon fill="midnightblue" stroke="midnightblue" points="664.833,-58.5001 654.833,-62 664.833,-65.5001 664.833,-58.5001"/>
</g>
<!-- Node5&#45;&gt;Node5 -->
<g id="edge12" class="edge"><title>Node5&#45;&gt;Node5</title>
<path fill="none" stroke="midnightblue" d="M409.484,-192.318C413.348,-196.864 422.52,-200 437,-200 460.762,-200 470.229,-191.556 465.403,-182.288"/>
<polygon fill="midnightblue" stroke="midnightblue" points="412.965,-191.94 408.597,-182.288 405.992,-192.557 412.965,-191.94"/>
</g>
<!-- Node6 -->
<g id="node11" class="node"><title>Node6</title>
<a xlink:href="classCAreaConfiguration.html#a6b8c95a79343ee9823b026d74184e798" target="_top" xlink:title="CAreaConfiguration\l::serializeXmlSettings">
<polygon fill="white" stroke="black" points="536.5,-148 536.5,-182 655.5,-182 655.5,-148 536.5,-148"/>
<text text-anchor="start" x="544.5" y="-169" font-family="Verdana" font-size="10.00">CAreaConfiguration</text>
<text text-anchor="middle" x="596" y="-156" font-family="Verdana" font-size="10.00">::serializeXmlSettings</text>
</a>
</g>
<!-- Node5&#45;&gt;Node6 -->
<g id="edge10" class="edge"><title>Node5&#45;&gt;Node6</title>
<path fill="none" stroke="midnightblue" d="M509.121,-165C518.22,-165 527.449,-165 536.326,-165"/>
<polygon fill="midnightblue" stroke="midnightblue" points="508.929,-161.5 498.929,-165 508.929,-168.5 508.929,-161.5"/>
</g>
<!-- Node8&#45;&gt;Node3 -->
<g id="edge18" class="edge"><title>Node8&#45;&gt;Node3</title>
<path fill="none" stroke="midnightblue" d="M479.711,-24.6997C499.104,-30.9201 522.244,-38.3423 542.756,-44.9219"/>
<polygon fill="midnightblue" stroke="midnightblue" points="480.536,-21.2888 469.945,-21.5672 478.398,-27.9543 480.536,-21.2888"/>
</g>
<!-- Node8&#45;&gt;Node8 -->
<g id="edge20" class="edge"><title>Node8&#45;&gt;Node8</title>
<path fill="none" stroke="midnightblue" d="M407.728,-31.0551C409.648,-36.164 419.405,-40 437,-40 464.465,-40 472.833,-30.6531 462.105,-21.7079"/>
<polygon fill="midnightblue" stroke="midnightblue" points="411.02,-32.2665 411.895,-21.7079 404.626,-29.4159 411.02,-32.2665"/>
</g>
</g>
</svg>
