<?xml version="1.0" encoding="UTF-8" standalone="no"?>
<!DOCTYPE svg PUBLIC "-//W3C//DTD SVG 1.1//EN"
 "http://www.w3.org/Graphics/SVG/1.1/DTD/svg11.dtd">
<!-- Generated by graphviz version 2.26.3 (20100126.1600)
 -->
<!-- Title: CParameterType::setSize Pages: 1 -->
<svg width="324pt" height="198pt"
 viewBox="0.00 0.00 324.00 198.00" xmlns="http://www.w3.org/2000/svg" xmlns:xlink="http://www.w3.org/1999/xlink">
<g id="graph1" class="graph" transform="scale(1 1) rotate(0) translate(4 194)">
<title>CParameterType::setSize</title>
<polygon fill="white" stroke="white" points="-4,5 -4,-194 321,-194 321,5 -4,5"/>
<!-- Node1 -->
<g id="node1" class="node"><title>Node1</title>
<polygon fill="#bfbfbf" stroke="black" points="0,-84.5 0,-105.5 136,-105.5 136,-84.5 0,-84.5"/>
<text text-anchor="middle" x="68" y="-92.5" font-family="Verdana" font-size="10.00">CParameterType::setSize</text>
</g>
<!-- Node2 -->
<g id="node3" class="node"><title>Node2</title>
<a xlink:href="classCBooleanParameterType.html#a7a6aff5356ac529edaed5ae1335f0fda" target="_top" xlink:title="CBooleanParameterType\l::CBooleanParameterType">
<polygon fill="white" stroke="black" points="174,-156 174,-190 314,-190 314,-156 174,-156"/>
<text text-anchor="start" x="182" y="-177" font-family="Verdana" font-size="10.00">CBooleanParameterType</text>
<text text-anchor="middle" x="244" y="-164" font-family="Verdana" font-size="10.00">::CBooleanParameterType</text>
</a>
</g>
<!-- Node1&#45;&gt;Node2 -->
<g id="edge2" class="edge"><title>Node1&#45;&gt;Node2</title>
<path fill="none" stroke="midnightblue" d="M96.4957,-110.381C117.159,-121.254 145.936,-135.824 172,-147 179.207,-150.09 186.916,-153.137 194.513,-155.996"/>
<polygon fill="midnightblue" stroke="midnightblue" points="98.0862,-107.263 87.6116,-105.671 94.8073,-113.448 98.0862,-107.263"/>
</g>
<!-- Node3 -->
<g id="node5" class="node"><title>Node3</title>
<a xlink:href="classCEnumParameterType.html#a9822e2ea066ea375f50bdc9c46808da2" target="_top" xlink:title="CEnumParameterType\l::fromXml">
<polygon fill="white" stroke="black" points="183,-104 183,-138 305,-138 305,-104 183,-104"/>
<text text-anchor="start" x="191" y="-125" font-family="Verdana" font-size="10.00">CEnumParameterType</text>
<text text-anchor="middle" x="244" y="-112" font-family="Verdana" font-size="10.00">::fromXml</text>
</a>
</g>
<!-- Node1&#45;&gt;Node3 -->
<g id="edge4" class="edge"><title>Node1&#45;&gt;Node3</title>
<path fill="none" stroke="midnightblue" d="M146.242,-106.558C158.475,-108.366 170.964,-110.211 182.746,-111.951"/>
<polygon fill="midnightblue" stroke="midnightblue" points="146.45,-103.051 136.046,-105.052 145.427,-109.976 146.45,-103.051"/>
</g>
<!-- Node4 -->
<g id="node7" class="node"><title>Node4</title>
<a xlink:href="classCFixedPointParameterType.html#a58d031a099f032135417110023dad31e" target="_top" xlink:title="CFixedPointParameterType\l::fromXml">
<polygon fill="white" stroke="black" points="172.5,-52 172.5,-86 315.5,-86 315.5,-52 172.5,-52"/>
<text text-anchor="start" x="180.5" y="-73" font-family="Verdana" font-size="10.00">CFixedPointParameterType</text>
<text text-anchor="middle" x="244" y="-60" font-family="Verdana" font-size="10.00">::fromXml</text>
</a>
</g>
<!-- Node1&#45;&gt;Node4 -->
<g id="edge6" class="edge"><title>Node1&#45;&gt;Node4</title>
<path fill="none" stroke="midnightblue" d="M146.186,-83.4498C154.892,-82.1636 163.728,-80.8583 172.348,-79.585"/>
<polygon fill="midnightblue" stroke="midnightblue" points="145.427,-80.0238 136.046,-84.9477 146.45,-86.9486 145.427,-80.0238"/>
</g>
<!-- Node5 -->
<g id="node9" class="node"><title>Node5</title>
<a xlink:href="classCIntegerParameterType.html#a8d8e329f5f61b6e50108e7fe1a7f7446" target="_top" xlink:title="CIntegerParameterType\l::fromXml">
<polygon fill="white" stroke="black" points="180,-0 180,-34 308,-34 308,-0 180,-0"/>
<text text-anchor="start" x="188" y="-21" font-family="Verdana" font-size="10.00">CIntegerParameterType</text>
<text text-anchor="middle" x="244" y="-8" font-family="Verdana" font-size="10.00">::fromXml</text>
</a>
</g>
<!-- Node1&#45;&gt;Node5 -->
<g id="edge8" class="edge"><title>Node1&#45;&gt;Node5</title>
<path fill="none" stroke="midnightblue" d="M96.4957,-79.6187C117.159,-68.746 145.936,-54.1765 172,-43 179.207,-39.9098 186.916,-36.8629 194.513,-34.0036"/>
<polygon fill="midnightblue" stroke="midnightblue" points="94.8073,-76.5524 87.6116,-84.3288 98.0862,-82.737 94.8073,-76.5524"/>
</g>
</g>
</svg>
