<?xml version="1.0" encoding="UTF-8" standalone="no"?>
<!DOCTYPE svg PUBLIC "-//W3C//DTD SVG 1.1//EN"
 "http://www.w3.org/Graphics/SVG/1.1/DTD/svg11.dtd">
<!-- Generated by graphviz version 2.26.3 (20100126.1600)
 -->
<!-- Title: CComponentInstance::hasMappingData Pages: 1 -->
<svg width="352pt" height="54pt"
 viewBox="0.00 0.00 352.00 54.00" xmlns="http://www.w3.org/2000/svg" xmlns:xlink="http://www.w3.org/1999/xlink">
<g id="graph1" class="graph" transform="scale(1 1) rotate(0) translate(4 50)">
<title>CComponentInstance::hasMappingData</title>
<polygon fill="white" stroke="white" points="-4,5 -4,-50 349,-50 349,5 -4,5"/>
<!-- Node1 -->
<g id="node1" class="node"><title>Node1</title>
<polygon fill="#bfbfbf" stroke="black" points="0,-0 0,-34 120,-34 120,-0 0,-0"/>
<text text-anchor="start" x="8" y="-21" font-family="Verdana" font-size="10.00">CComponentInstance</text>
<text text-anchor="middle" x="60" y="-8" font-family="Verdana" font-size="10.00">::hasMappingData</text>
</g>
<!-- Node2 -->
<g id="node3" class="node"><title>Node2</title>
<a xlink:href="classCComponentType.html#a9db6f70ee365a95a8e1d502e83c1a36e" target="_top" xlink:title="CComponentType::hasMappingData">
<polygon fill="white" stroke="black" points="156,-6.5 156,-27.5 344,-27.5 344,-6.5 156,-6.5"/>
<text text-anchor="middle" x="250" y="-14.5" font-family="Verdana" font-size="10.00">CComponentType::hasMappingData</text>
</a>
</g>
<!-- Node1&#45;&gt;Node2 -->
<g id="edge2" class="edge"><title>Node1&#45;&gt;Node2</title>
<path fill="none" stroke="midnightblue" d="M120.117,-17C128.322,-17 136.93,-17 145.644,-17"/>
<polygon fill="midnightblue" stroke="midnightblue" points="145.905,-20.5001 155.905,-17 145.904,-13.5001 145.905,-20.5001"/>
</g>
<!-- Node2&#45;&gt;Node2 -->
<g id="edge4" class="edge"><title>Node2&#45;&gt;Node2</title>
<path fill="none" stroke="midnightblue" d="M219.811,-27.7079C206.91,-36.6531 216.973,-46 250,-46 272.19,-46 284.014,-41.7807 285.471,-36.2987"/>
<polygon fill="midnightblue" stroke="midnightblue" points="288.408,-34.3931 280.189,-27.7079 282.445,-38.0596 288.408,-34.3931"/>
</g>
</g>
</svg>
