<?xml version="1.0" encoding="UTF-8" standalone="no"?>
<!DOCTYPE svg PUBLIC "-//W3C//DTD SVG 1.1//EN"
 "http://www.w3.org/Graphics/SVG/1.1/DTD/svg11.dtd">
<!-- Generated by graphviz version 2.26.3 (20100126.1600)
 -->
<!-- Title: CParameterMgr::clearApplicationRule Pages: 1 -->
<svg width="700pt" height="94pt"
 viewBox="0.00 0.00 700.00 94.00" xmlns="http://www.w3.org/2000/svg" xmlns:xlink="http://www.w3.org/1999/xlink">
<g id="graph1" class="graph" transform="scale(1 1) rotate(0) translate(4 90)">
<title>CParameterMgr::clearApplicationRule</title>
<polygon fill="white" stroke="white" points="-4,5 -4,-90 697,-90 697,5 -4,5"/>
<!-- Node1 -->
<g id="node1" class="node"><title>Node1</title>
<polygon fill="#bfbfbf" stroke="black" points="0.5,-32.5 0.5,-53.5 193.5,-53.5 193.5,-32.5 0.5,-32.5"/>
<text text-anchor="middle" x="97" y="-40.5" font-family="Verdana" font-size="10.00">CParameterMgr::clearApplicationRule</text>
</g>
<!-- Node2 -->
<g id="node3" class="node"><title>Node2</title>
<a xlink:href="classCConfigurableDomains.html#a72aa8a377bbb1a887e9d753195f59603" target="_top" xlink:title="CConfigurableDomains\l::clearApplicationRule">
<polygon fill="white" stroke="black" points="230,-26 230,-60 356,-60 356,-26 230,-26"/>
<text text-anchor="start" x="238" y="-47" font-family="Verdana" font-size="10.00">CConfigurableDomains</text>
<text text-anchor="middle" x="293" y="-34" font-family="Verdana" font-size="10.00">::clearApplicationRule</text>
</a>
</g>
<!-- Node1&#45;&gt;Node2 -->
<g id="edge2" class="edge"><title>Node1&#45;&gt;Node2</title>
<path fill="none" stroke="midnightblue" d="M193.564,-43C202.358,-43 211.166,-43 219.707,-43"/>
<polygon fill="midnightblue" stroke="midnightblue" points="219.973,-46.5001 229.973,-43 219.973,-39.5001 219.973,-46.5001"/>
</g>
<!-- Node3 -->
<g id="node5" class="node"><title>Node3</title>
<a xlink:href="classCConfigurableDomains.html#a4dce38a1560b6e33871d3fa2d85cc449" target="_top" xlink:title="CConfigurableDomains\l::findConfigurableDomain">
<polygon fill="white" stroke="black" points="392.5,-52 392.5,-86 529.5,-86 529.5,-52 392.5,-52"/>
<text text-anchor="start" x="400.5" y="-73" font-family="Verdana" font-size="10.00">CConfigurableDomains</text>
<text text-anchor="middle" x="461" y="-60" font-family="Verdana" font-size="10.00">::findConfigurableDomain</text>
</a>
</g>
<!-- Node2&#45;&gt;Node3 -->
<g id="edge4" class="edge"><title>Node2&#45;&gt;Node3</title>
<path fill="none" stroke="midnightblue" d="M356.035,-52.7554C364.626,-54.085 373.53,-55.463 382.355,-56.8287"/>
<polygon fill="midnightblue" stroke="midnightblue" points="381.846,-60.2916 392.264,-58.3622 382.917,-53.3739 381.846,-60.2916"/>
</g>
<!-- Node5 -->
<g id="node9" class="node"><title>Node5</title>
<a xlink:href="classCConfigurableDomain.html#aa6c2f539bef4c64d1751e6454c6114ee" target="_top" xlink:title="CConfigurableDomain\l::clearApplicationRule">
<polygon fill="white" stroke="black" points="400.5,-0 400.5,-34 521.5,-34 521.5,-0 400.5,-0"/>
<text text-anchor="start" x="408.5" y="-21" font-family="Verdana" font-size="10.00">CConfigurableDomain</text>
<text text-anchor="middle" x="461" y="-8" font-family="Verdana" font-size="10.00">::clearApplicationRule</text>
</a>
</g>
<!-- Node2&#45;&gt;Node5 -->
<g id="edge8" class="edge"><title>Node2&#45;&gt;Node5</title>
<path fill="none" stroke="midnightblue" d="M356.035,-33.2446C367.269,-31.506 379.037,-29.6847 390.464,-27.9162"/>
<polygon fill="midnightblue" stroke="midnightblue" points="391.049,-31.3675 400.396,-26.3791 389.979,-24.4498 391.049,-31.3675"/>
</g>
<!-- Node4 -->
<g id="node7" class="node"><title>Node4</title>
<a xlink:href="classCElement.html#a8595814a3159f32f874269907e70b260" target="_top" xlink:title="CElement::findChild">
<polygon fill="white" stroke="black" points="574,-58.5 574,-79.5 684,-79.5 684,-58.5 574,-58.5"/>
<text text-anchor="middle" x="629" y="-66.5" font-family="Verdana" font-size="10.00">CElement::findChild</text>
</a>
</g>
<!-- Node3&#45;&gt;Node4 -->
<g id="edge6" class="edge"><title>Node3&#45;&gt;Node4</title>
<path fill="none" stroke="midnightblue" d="M529.817,-69C541.056,-69 552.67,-69 563.819,-69"/>
<polygon fill="midnightblue" stroke="midnightblue" points="563.902,-72.5001 573.901,-69 563.901,-65.5001 563.902,-72.5001"/>
</g>
<!-- Node6 -->
<g id="node11" class="node"><title>Node6</title>
<a xlink:href="classCDomainConfiguration.html#ac733a8c164fc16fa94cc98eda37b255f" target="_top" xlink:title="CDomainConfiguration\l::clearApplicationRule">
<polygon fill="white" stroke="black" points="566.5,-0 566.5,-34 691.5,-34 691.5,-0 566.5,-0"/>
<text text-anchor="start" x="574.5" y="-21" font-family="Verdana" font-size="10.00">CDomainConfiguration</text>
<text text-anchor="middle" x="629" y="-8" font-family="Verdana" font-size="10.00">::clearApplicationRule</text>
</a>
</g>
<!-- Node5&#45;&gt;Node6 -->
<g id="edge10" class="edge"><title>Node5&#45;&gt;Node6</title>
<path fill="none" stroke="midnightblue" d="M521.652,-17C532.919,-17 544.796,-17 556.378,-17"/>
<polygon fill="midnightblue" stroke="midnightblue" points="556.458,-20.5001 566.458,-17 556.458,-13.5001 556.458,-20.5001"/>
</g>
</g>
</svg>
