<?xml version="1.0" encoding="UTF-8" standalone="no"?>
<!DOCTYPE svg PUBLIC "-//W3C//DTD SVG 1.1//EN"
 "http://www.w3.org/Graphics/SVG/1.1/DTD/svg11.dtd">
<!-- Generated by graphviz version 2.26.3 (20100126.1600)
 -->
<!-- Title: CSelectionCriteria::getSelectionCriterion Pages: 1 -->
<svg width="326pt" height="42pt"
 viewBox="0.00 0.00 326.00 42.00" xmlns="http://www.w3.org/2000/svg" xmlns:xlink="http://www.w3.org/1999/xlink">
<g id="graph1" class="graph" transform="scale(1 1) rotate(0) translate(4 38)">
<title>CSelectionCriteria::getSelectionCriterion</title>
<polygon fill="white" stroke="white" points="-4,5 -4,-38 323,-38 323,5 -4,5"/>
<!-- Node1 -->
<g id="node1" class="node"><title>Node1</title>
<polygon fill="#bfbfbf" stroke="black" points="0.5,-0 0.5,-34 123.5,-34 123.5,-0 0.5,-0"/>
<text text-anchor="start" x="8.5" y="-21" font-family="Verdana" font-size="10.00">CSelectionCriteria</text>
<text text-anchor="middle" x="62" y="-8" font-family="Verdana" font-size="10.00">::getSelectionCriterion</text>
</g>
<!-- Node2 -->
<g id="node3" class="node"><title>Node2</title>
<a xlink:href="classCParameterMgr.html#a06ce1937c480d46ff3b01bd7bb500b39" target="_top" xlink:title="CParameterMgr::getSelection\lCriterion">
<polygon fill="white" stroke="black" points="160,-0 160,-34 318,-34 318,-0 160,-0"/>
<text text-anchor="start" x="168" y="-21" font-family="Verdana" font-size="10.00">CParameterMgr::getSelection</text>
<text text-anchor="middle" x="239" y="-8" font-family="Verdana" font-size="10.00">Criterion</text>
</a>
</g>
<!-- Node1&#45;&gt;Node2 -->
<g id="edge2" class="edge"><title>Node1&#45;&gt;Node2</title>
<path fill="none" stroke="midnightblue" d="M134.08,-17C142.523,-17 151.172,-17 159.706,-17"/>
<polygon fill="midnightblue" stroke="midnightblue" points="133.906,-13.5001 123.906,-17 133.906,-20.5001 133.906,-13.5001"/>
</g>
</g>
</svg>
