<?xml version="1.0" encoding="UTF-8" standalone="no"?>
<!DOCTYPE svg PUBLIC "-//W3C//DTD SVG 1.1//EN"
 "http://www.w3.org/Graphics/SVG/1.1/DTD/svg11.dtd">
<!-- Generated by graphviz version 2.26.3 (20100126.1600)
 -->
<!-- Title: CConfigurableElement::showProperties Pages: 1 -->
<svg width="626pt" height="114pt"
 viewBox="0.00 0.00 626.00 114.00" xmlns="http://www.w3.org/2000/svg" xmlns:xlink="http://www.w3.org/1999/xlink">
<g id="graph1" class="graph" transform="scale(1 1) rotate(0) translate(4 110)">
<title>CConfigurableElement::showProperties</title>
<polygon fill="white" stroke="white" points="-4,5 -4,-110 623,-110 623,5 -4,5"/>
<!-- Node1 -->
<g id="node1" class="node"><title>Node1</title>
<polygon fill="#bfbfbf" stroke="black" points="0.5,-46 0.5,-80 123.5,-80 123.5,-46 0.5,-46"/>
<text text-anchor="start" x="8.5" y="-67" font-family="Verdana" font-size="10.00">CConfigurableElement</text>
<text text-anchor="middle" x="62" y="-54" font-family="Verdana" font-size="10.00">::showProperties</text>
</g>
<!-- Node2 -->
<g id="node3" class="node"><title>Node2</title>
<a xlink:href="classCConfigurableElement.html#a0282019ab1caa1ada2b637562a1d8479" target="_top" xlink:title="CConfigurableElement\l::getFootprintAsString">
<polygon fill="white" stroke="black" points="160.5,-46 160.5,-80 283.5,-80 283.5,-46 160.5,-46"/>
<text text-anchor="start" x="168.5" y="-67" font-family="Verdana" font-size="10.00">CConfigurableElement</text>
<text text-anchor="middle" x="222" y="-54" font-family="Verdana" font-size="10.00">::getFootprintAsString</text>
</a>
</g>
<!-- Node1&#45;&gt;Node2 -->
<g id="edge2" class="edge"><title>Node1&#45;&gt;Node2</title>
<path fill="none" stroke="midnightblue" d="M123.86,-63C132.456,-63 141.347,-63 150.107,-63"/>
<polygon fill="midnightblue" stroke="midnightblue" points="150.304,-66.5001 160.304,-63 150.304,-59.5001 150.304,-66.5001"/>
</g>
<!-- Node3 -->
<g id="node5" class="node"><title>Node3</title>
<a xlink:href="classCElement.html#aacdd6d54c10cd1494a820d78be779362" target="_top" xlink:title="CElement::toString">
<polygon fill="white" stroke="black" points="328.5,-84.5 328.5,-105.5 435.5,-105.5 435.5,-84.5 328.5,-84.5"/>
<text text-anchor="middle" x="382" y="-92.5" font-family="Verdana" font-size="10.00">CElement::toString</text>
</a>
</g>
<!-- Node2&#45;&gt;Node3 -->
<g id="edge4" class="edge"><title>Node2&#45;&gt;Node3</title>
<path fill="none" stroke="midnightblue" d="M283.86,-75.372C295.491,-77.6981 307.661,-80.1322 319.316,-82.4632"/>
<polygon fill="midnightblue" stroke="midnightblue" points="318.907,-85.9507 329.4,-84.4799 320.28,-79.0867 318.907,-85.9507"/>
</g>
<!-- Node4 -->
<g id="node7" class="node"><title>Node4</title>
<a xlink:href="classCConfigurableElement.html#a6bc3e14e1da435b74e38ea3e95a31e62" target="_top" xlink:title="CConfigurableElement\l::getFootPrint">
<polygon fill="white" stroke="black" points="320.5,-14 320.5,-48 443.5,-48 443.5,-14 320.5,-14"/>
<text text-anchor="start" x="328.5" y="-35" font-family="Verdana" font-size="10.00">CConfigurableElement</text>
<text text-anchor="middle" x="382" y="-22" font-family="Verdana" font-size="10.00">::getFootPrint</text>
</a>
</g>
<!-- Node2&#45;&gt;Node4 -->
<g id="edge6" class="edge"><title>Node2&#45;&gt;Node4</title>
<path fill="none" stroke="midnightblue" d="M283.86,-50.628C292.549,-48.8901 301.54,-47.092 310.392,-45.3215"/>
<polygon fill="midnightblue" stroke="midnightblue" points="311.185,-48.7324 320.304,-43.3391 309.812,-41.8683 311.185,-48.7324"/>
</g>
<!-- Node4&#45;&gt;Node4 -->
<g id="edge12" class="edge"><title>Node4&#45;&gt;Node4</title>
<path fill="none" stroke="midnightblue" d="M353.238,-48.2878C348.35,-57.5562 357.938,-66 382,-66 396.663,-66 405.951,-62.8645 409.864,-58.3176"/>
<polygon fill="midnightblue" stroke="midnightblue" points="413.356,-58.5602 410.762,-48.2878 406.384,-57.9356 413.356,-58.5602"/>
</g>
<!-- Node5 -->
<g id="node9" class="node"><title>Node5</title>
<a xlink:href="classCElement.html#a25f58d9d8b35e770806d669fb2a378e4" target="_top" xlink:title="CElement::getNbChildren">
<polygon fill="white" stroke="black" points="480.5,-40.5 480.5,-61.5 617.5,-61.5 617.5,-40.5 480.5,-40.5"/>
<text text-anchor="middle" x="549" y="-48.5" font-family="Verdana" font-size="10.00">CElement::getNbChildren</text>
</a>
</g>
<!-- Node4&#45;&gt;Node5 -->
<g id="edge8" class="edge"><title>Node4&#45;&gt;Node5</title>
<path fill="none" stroke="midnightblue" d="M443.71,-38.3904C452.351,-39.4253 461.327,-40.5002 470.231,-41.5666"/>
<polygon fill="midnightblue" stroke="midnightblue" points="469.886,-45.0502 480.231,-42.7642 470.718,-38.0998 469.886,-45.0502"/>
</g>
<!-- Node6 -->
<g id="node11" class="node"><title>Node6</title>
<a xlink:href="classCElement.html#a41bf126c3fdbb5bec0c2c3dcf35e9079" target="_top" xlink:title="CElement::getChild">
<polygon fill="white" stroke="black" points="495,-0.5 495,-21.5 603,-21.5 603,-0.5 495,-0.5"/>
<text text-anchor="middle" x="549" y="-8.5" font-family="Verdana" font-size="10.00">CElement::getChild</text>
</a>
</g>
<!-- Node4&#45;&gt;Node6 -->
<g id="edge10" class="edge"><title>Node4&#45;&gt;Node6</title>
<path fill="none" stroke="midnightblue" d="M443.71,-23.6096C457.112,-22.0046 471.318,-20.3032 484.813,-18.6871"/>
<polygon fill="midnightblue" stroke="midnightblue" points="485.455,-22.1352 494.968,-17.4709 484.623,-15.1849 485.455,-22.1352"/>
</g>
</g>
</svg>
