<?xml version="1.0" encoding="UTF-8" standalone="no"?>
<!DOCTYPE svg PUBLIC "-//W3C//DTD SVG 1.1//EN"
 "http://www.w3.org/Graphics/SVG/1.1/DTD/svg11.dtd">
<!-- Generated by graphviz version 2.26.3 (20100126.1600)
 -->
<!-- Title: CSocket::hasPeerDisconnected Pages: 1 -->
<svg width="582pt" height="30pt"
 viewBox="0.00 0.00 582.00 30.00" xmlns="http://www.w3.org/2000/svg" xmlns:xlink="http://www.w3.org/1999/xlink">
<g id="graph1" class="graph" transform="scale(1 1) rotate(0) translate(4 26)">
<title>CSocket::hasPeerDisconnected</title>
<polygon fill="white" stroke="white" points="-4,5 -4,-26 579,-26 579,5 -4,5"/>
<!-- Node1 -->
<g id="node1" class="node"><title>Node1</title>
<polygon fill="#bfbfbf" stroke="black" points="0.5,-0.5 0.5,-21.5 167.5,-21.5 167.5,-0.5 0.5,-0.5"/>
<text text-anchor="middle" x="84" y="-8.5" font-family="Verdana" font-size="10.00">CSocket::hasPeerDisconnected</text>
</g>
<!-- Node2 -->
<g id="node3" class="node"><title>Node2</title>
<a xlink:href="classCMessage.html#a934d70aff67a456a92124664d6e78e84" target="_top" xlink:title="Write or read the message on pSocket. ">
<polygon fill="white" stroke="black" points="204.5,-0.5 204.5,-21.5 315.5,-21.5 315.5,-0.5 204.5,-0.5"/>
<text text-anchor="middle" x="260" y="-8.5" font-family="Verdana" font-size="10.00">CMessage::serialize</text>
</a>
</g>
<!-- Node1&#45;&gt;Node2 -->
<g id="edge2" class="edge"><title>Node1&#45;&gt;Node2</title>
<path fill="none" stroke="midnightblue" d="M177.811,-11C186.825,-11 195.757,-11 204.228,-11"/>
<polygon fill="midnightblue" stroke="midnightblue" points="177.619,-7.5001 167.619,-11 177.619,-14.5001 177.619,-7.5001"/>
</g>
<!-- Node3 -->
<g id="node5" class="node"><title>Node3</title>
<a xlink:href="main_8cpp.html#af14c089a76390ab8b7424bb69fad6352" target="_top" xlink:title="sendAndDisplayCommand">
<polygon fill="white" stroke="black" points="352.5,-0.5 352.5,-21.5 495.5,-21.5 495.5,-0.5 352.5,-0.5"/>
<text text-anchor="middle" x="424" y="-8.5" font-family="Verdana" font-size="10.00">sendAndDisplayCommand</text>
</a>
</g>
<!-- Node2&#45;&gt;Node3 -->
<g id="edge4" class="edge"><title>Node2&#45;&gt;Node3</title>
<path fill="none" stroke="midnightblue" d="M325.65,-11C334.399,-11 343.407,-11 352.254,-11"/>
<polygon fill="midnightblue" stroke="midnightblue" points="325.523,-7.5001 315.523,-11 325.523,-14.5001 325.523,-7.5001"/>
</g>
<!-- Node4 -->
<g id="node7" class="node"><title>Node4</title>
<a xlink:href="main_8cpp.html#a0ddf1224851353fc92bfbff6f499fa97" target="_top" xlink:title="main">
<polygon fill="white" stroke="black" points="532.5,-0.5 532.5,-21.5 573.5,-21.5 573.5,-0.5 532.5,-0.5"/>
<text text-anchor="middle" x="553" y="-8.5" font-family="Verdana" font-size="10.00">main</text>
</a>
</g>
<!-- Node3&#45;&gt;Node4 -->
<g id="edge6" class="edge"><title>Node3&#45;&gt;Node4</title>
<path fill="none" stroke="midnightblue" d="M505.949,-11C515.656,-11 524.792,-11 532.386,-11"/>
<polygon fill="midnightblue" stroke="midnightblue" points="505.668,-7.5001 495.667,-11 505.667,-14.5001 505.668,-7.5001"/>
</g>
</g>
</svg>
