<?xml version="1.0" encoding="UTF-8" standalone="no"?>
<!DOCTYPE svg PUBLIC "-//W3C//DTD SVG 1.1//EN"
 "http://www.w3.org/Graphics/SVG/1.1/DTD/svg11.dtd">
<!-- Generated by graphviz version 2.26.3 (20100126.1600)
 -->
<!-- Title: CFixedPointParameterType::fromBlackboard Pages: 1 -->
<svg width="346pt" height="70pt"
 viewBox="0.00 0.00 346.00 70.00" xmlns="http://www.w3.org/2000/svg" xmlns:xlink="http://www.w3.org/1999/xlink">
<g id="graph1" class="graph" transform="scale(1 1) rotate(0) translate(4 66)">
<title>CFixedPointParameterType::fromBlackboard</title>
<polygon fill="white" stroke="white" points="-4,5 -4,-66 343,-66 343,5 -4,5"/>
<!-- Node1 -->
<g id="node1" class="node"><title>Node1</title>
<polygon fill="#bfbfbf" stroke="black" points="0.5,-14 0.5,-48 143.5,-48 143.5,-14 0.5,-14"/>
<text text-anchor="start" x="8.5" y="-35" font-family="Verdana" font-size="10.00">CFixedPointParameterType</text>
<text text-anchor="middle" x="72" y="-22" font-family="Verdana" font-size="10.00">::fromBlackboard</text>
</g>
<!-- Node2 -->
<g id="node3" class="node"><title>Node2</title>
<a xlink:href="classCParameterType.html#af5e79e641e4cd7929b60395d9ffd761a" target="_top" xlink:title="CParameterType::isEncodable">
<polygon fill="white" stroke="black" points="180,-40.5 180,-61.5 338,-61.5 338,-40.5 180,-40.5"/>
<text text-anchor="middle" x="259" y="-48.5" font-family="Verdana" font-size="10.00">CParameterType::isEncodable</text>
</a>
</g>
<!-- Node1&#45;&gt;Node2 -->
<g id="edge2" class="edge"><title>Node1&#45;&gt;Node2</title>
<path fill="none" stroke="midnightblue" d="M143.764,-38.6753C152.278,-39.5859 161.046,-40.5236 169.764,-41.456"/>
<polygon fill="midnightblue" stroke="midnightblue" points="169.642,-44.9629 179.958,-42.5463 170.387,-38.0026 169.642,-44.9629"/>
</g>
<!-- Node3 -->
<g id="node5" class="node"><title>Node3</title>
<a xlink:href="classCParameterType.html#ac32b37965ef213b6a8df9656b37596df" target="_top" xlink:title="Sign extension (32 bits) ">
<polygon fill="white" stroke="black" points="182.5,-0.5 182.5,-21.5 335.5,-21.5 335.5,-0.5 182.5,-0.5"/>
<text text-anchor="middle" x="259" y="-8.5" font-family="Verdana" font-size="10.00">CParameterType::signExtend</text>
</a>
</g>
<!-- Node1&#45;&gt;Node3 -->
<g id="edge4" class="edge"><title>Node1&#45;&gt;Node3</title>
<path fill="none" stroke="midnightblue" d="M143.764,-23.3247C153.167,-22.3191 162.88,-21.2802 172.494,-20.252"/>
<polygon fill="midnightblue" stroke="midnightblue" points="172.888,-23.7299 182.459,-19.1862 172.144,-16.7695 172.888,-23.7299"/>
</g>
</g>
</svg>
