<?xml version="1.0" encoding="UTF-8" standalone="no"?>
<!DOCTYPE svg PUBLIC "-//W3C//DTD SVG 1.1//EN"
 "http://www.w3.org/Graphics/SVG/1.1/DTD/svg11.dtd">
<!-- Generated by graphviz version 2.26.3 (20100126.1600)
 -->
<!-- Title: parameter/ComponentType.h Pages: 1 -->
<svg width="754pt" height="88pt"
 viewBox="0.00 0.00 754.00 88.00" xmlns="http://www.w3.org/2000/svg" xmlns:xlink="http://www.w3.org/1999/xlink">
<g id="graph1" class="graph" transform="scale(1 1) rotate(0) translate(4 84)">
<title>parameter/ComponentType.h</title>
<polygon fill="white" stroke="white" points="-4,5 -4,-84 751,-84 751,5 -4,5"/>
<!-- Node1 -->
<g id="node1" class="node"><title>Node1</title>
<polygon fill="#bfbfbf" stroke="black" points="311.5,-58.5 311.5,-79.5 468.5,-79.5 468.5,-58.5 311.5,-58.5"/>
<text text-anchor="middle" x="390" y="-66.5" font-family="Verdana" font-size="10.00">parameter/ComponentType.h</text>
</g>
<!-- Node2 -->
<g id="node3" class="node"><title>Node2</title>
<a xlink:href="ComponentInstance_8cpp.html" target="_top" xlink:title="parameter/ComponentInstance.cpp">
<polygon fill="white" stroke="black" points="0,-0.5 0,-21.5 188,-21.5 188,-0.5 0,-0.5"/>
<text text-anchor="middle" x="94" y="-8.5" font-family="Verdana" font-size="10.00">parameter/ComponentInstance.cpp</text>
</a>
</g>
<!-- Node1&#45;&gt;Node2 -->
<g id="edge2" class="edge"><title>Node1&#45;&gt;Node2</title>
<path fill="none" stroke="midnightblue" d="M326.385,-56.5349C273.128,-46.0994 197.978,-31.374 147.704,-21.5231"/>
<polygon fill="midnightblue" stroke="midnightblue" points="325.91,-60.0084 336.397,-58.4966 327.256,-53.139 325.91,-60.0084"/>
</g>
<!-- Node3 -->
<g id="node5" class="node"><title>Node3</title>
<a xlink:href="ComponentLibrary_8cpp.html" target="_top" xlink:title="parameter/ComponentLibrary.cpp">
<polygon fill="white" stroke="black" points="206,-0.5 206,-21.5 384,-21.5 384,-0.5 206,-0.5"/>
<text text-anchor="middle" x="295" y="-8.5" font-family="Verdana" font-size="10.00">parameter/ComponentLibrary.cpp</text>
</a>
</g>
<!-- Node1&#45;&gt;Node3 -->
<g id="edge4" class="edge"><title>Node1&#45;&gt;Node3</title>
<path fill="none" stroke="midnightblue" d="M363.958,-53.1009C347.522,-43.0658 326.744,-30.3808 312.314,-21.5707"/>
<polygon fill="midnightblue" stroke="midnightblue" points="362.217,-56.1383 372.576,-58.3619 365.864,-50.1637 362.217,-56.1383"/>
</g>
<!-- Node4 -->
<g id="node7" class="node"><title>Node4</title>
<a xlink:href="ComponentType_8cpp.html" target="_top" xlink:title="parameter/ComponentType.cpp">
<polygon fill="white" stroke="black" points="402,-0.5 402,-21.5 570,-21.5 570,-0.5 402,-0.5"/>
<text text-anchor="middle" x="486" y="-8.5" font-family="Verdana" font-size="10.00">parameter/ComponentType.cpp</text>
</a>
</g>
<!-- Node1&#45;&gt;Node4 -->
<g id="edge6" class="edge"><title>Node1&#45;&gt;Node4</title>
<path fill="none" stroke="midnightblue" d="M416.316,-53.1009C432.926,-43.0658 453.921,-30.3808 468.504,-21.5707"/>
<polygon fill="midnightblue" stroke="midnightblue" points="414.357,-50.195 407.608,-58.3619 417.977,-56.1864 414.357,-50.195"/>
</g>
<!-- Node5 -->
<g id="node9" class="node"><title>Node5</title>
<a xlink:href="ParameterMgr_8cpp.html" target="_top" xlink:title="parameter/ParameterMgr.cpp">
<polygon fill="white" stroke="black" points="588,-0.5 588,-21.5 746,-21.5 746,-0.5 588,-0.5"/>
<text text-anchor="middle" x="667" y="-8.5" font-family="Verdana" font-size="10.00">parameter/ParameterMgr.cpp</text>
</a>
</g>
<!-- Node1&#45;&gt;Node5 -->
<g id="edge8" class="edge"><title>Node1&#45;&gt;Node5</title>
<path fill="none" stroke="midnightblue" d="M450.154,-56.4045C499.954,-45.977 569.892,-31.333 616.743,-21.5231"/>
<polygon fill="midnightblue" stroke="midnightblue" points="449.233,-53.0214 440.163,-58.4966 450.668,-59.8729 449.233,-53.0214"/>
</g>
</g>
</svg>
