<?xml version="1.0" encoding="UTF-8" standalone="no"?>
<!DOCTYPE svg PUBLIC "-//W3C//DTD SVG 1.1//EN"
 "http://www.w3.org/Graphics/SVG/1.1/DTD/svg11.dtd">
<!-- Generated by graphviz version 2.26.3 (20100126.1600)
 -->
<!-- Title: parameter/ComponentLibrary.h Pages: 1 -->
<svg width="719pt" height="436pt"
 viewBox="0.00 0.00 719.02 436.00" xmlns="http://www.w3.org/2000/svg" xmlns:xlink="http://www.w3.org/1999/xlink">
<g id="graph1" class="graph" transform="scale(1 1) rotate(0) translate(4 432)">
<title>parameter/ComponentLibrary.h</title>
<polygon fill="white" stroke="white" points="-4,5 -4,-432 716.021,-432 716.021,5 -4,5"/>
<!-- Node1 -->
<g id="node1" class="node"><title>Node1</title>
<polygon fill="#bfbfbf" stroke="black" points="60.5,-406.5 60.5,-427.5 227.5,-427.5 227.5,-406.5 60.5,-406.5"/>
<text text-anchor="middle" x="144" y="-414.5" font-family="Verdana" font-size="10.00">parameter/ComponentLibrary.h</text>
</g>
<!-- Node2 -->
<g id="node3" class="node"><title>Node2</title>
<polygon fill="white" stroke="#bfbfbf" points="-0.5,-348.5 -0.5,-369.5 82.5,-369.5 82.5,-348.5 -0.5,-348.5"/>
<text text-anchor="middle" x="41" y="-356.5" font-family="Verdana" font-size="10.00">XmlElement.h</text>
</g>
<!-- Node1&#45;&gt;Node2 -->
<g id="edge2" class="edge"><title>Node1&#45;&gt;Node2</title>
<path fill="none" stroke="midnightblue" d="M125.108,-406.362C109.282,-397.45 86.4774,-384.609 68.6053,-374.545"/>
<polygon fill="midnightblue" stroke="midnightblue" points="70.2029,-371.428 59.772,-369.571 66.7682,-377.527 70.2029,-371.428"/>
</g>
<!-- Node3 -->
<g id="node5" class="node"><title>Node3</title>
<a xlink:href="Element_8h.html" target="_top" xlink:title="Element.h">
<polygon fill="white" stroke="black" points="459.5,-116.5 459.5,-137.5 524.5,-137.5 524.5,-116.5 459.5,-116.5"/>
<text text-anchor="middle" x="492" y="-124.5" font-family="Verdana" font-size="10.00">Element.h</text>
</a>
</g>
<!-- Node1&#45;&gt;Node3 -->
<g id="edge4" class="edge"><title>Node1&#45;&gt;Node3</title>
<path fill="none" stroke="midnightblue" d="M227.783,-409.84C345.598,-397.421 546,-366.648 546,-301 546,-301 546,-301 546,-243 546,-211.192 540.961,-202.58 527,-174 522.095,-163.959 514.956,-153.882 508.402,-145.648"/>
<polygon fill="midnightblue" stroke="midnightblue" points="510.982,-143.275 501.903,-137.813 505.594,-147.745 510.982,-143.275"/>
</g>
<!-- Node4 -->
<g id="node7" class="node"><title>Node4</title>
<polygon fill="white" stroke="#bfbfbf" points="202,-0.5 202,-21.5 246,-21.5 246,-0.5 202,-0.5"/>
<text text-anchor="middle" x="224" y="-8.5" font-family="Verdana" font-size="10.00">string</text>
</g>
<!-- Node1&#45;&gt;Node4 -->
<g id="edge52" class="edge"><title>Node1&#45;&gt;Node4</title>
<path fill="none" stroke="midnightblue" d="M138.688,-406.43C129.125,-386.397 110,-341.293 110,-301 110,-301 110,-301 110,-127 110,-79.6392 158.938,-44.5429 192.686,-25.9709"/>
<polygon fill="midnightblue" stroke="midnightblue" points="194.548,-28.9458 201.749,-21.1744 191.273,-22.7589 194.548,-28.9458"/>
</g>
<!-- Node11 -->
<g id="node24" class="node"><title>Node11</title>
<a xlink:href="Component_8h.html" target="_top" xlink:title="Component.h">
<polygon fill="white" stroke="black" points="138,-348.5 138,-369.5 220,-369.5 220,-348.5 138,-348.5"/>
<text text-anchor="middle" x="179" y="-356.5" font-family="Verdana" font-size="10.00">Component.h</text>
</a>
</g>
<!-- Node1&#45;&gt;Node11 -->
<g id="edge26" class="edge"><title>Node1&#45;&gt;Node11</title>
<path fill="none" stroke="midnightblue" d="M150.42,-406.362C155.156,-398.513 161.732,-387.616 167.382,-378.253"/>
<polygon fill="midnightblue" stroke="midnightblue" points="170.451,-379.941 172.621,-369.571 164.458,-376.324 170.451,-379.941"/>
</g>
<!-- Node3&#45;&gt;Node4 -->
<g id="edge6" class="edge"><title>Node3&#45;&gt;Node4</title>
<path fill="none" stroke="midnightblue" d="M465.298,-116.328C442.664,-107.131 409.445,-93.2773 381,-80 361.548,-70.92 357.495,-66.9876 338,-58 310.565,-45.3521 278.736,-32.3666 255.694,-23.2589"/>
<polygon fill="midnightblue" stroke="midnightblue" points="256.672,-19.8827 246.084,-19.484 254.112,-26.398 256.672,-19.8827"/>
</g>
<!-- Node5 -->
<g id="node9" class="node"><title>Node5</title>
<polygon fill="white" stroke="#bfbfbf" points="663.5,-0.5 663.5,-21.5 710.5,-21.5 710.5,-0.5 663.5,-0.5"/>
<text text-anchor="middle" x="687" y="-8.5" font-family="Verdana" font-size="10.00">vector</text>
</g>
<!-- Node3&#45;&gt;Node5 -->
<g id="edge8" class="edge"><title>Node3&#45;&gt;Node5</title>
<path fill="none" stroke="midnightblue" d="M524.814,-124.65C578.839,-120.024 682.765,-107.676 705,-80 716.43,-65.7735 708.729,-45.0533 700.139,-30.0345"/>
<polygon fill="midnightblue" stroke="midnightblue" points="703.098,-28.1649 694.839,-21.5289 697.157,-31.867 703.098,-28.1649"/>
</g>
<!-- Node6 -->
<g id="node11" class="node"><title>Node6</title>
<polygon fill="white" stroke="#bfbfbf" points="571.5,-0.5 571.5,-21.5 624.5,-21.5 624.5,-0.5 571.5,-0.5"/>
<text text-anchor="middle" x="598" y="-8.5" font-family="Verdana" font-size="10.00">stdint.h</text>
</g>
<!-- Node3&#45;&gt;Node6 -->
<g id="edge10" class="edge"><title>Node3&#45;&gt;Node6</title>
<path fill="none" stroke="midnightblue" d="M510.67,-116.383C524.596,-107.823 543.472,-94.8025 557,-80 570.443,-65.2912 581.66,-45.485 588.944,-30.8657"/>
<polygon fill="midnightblue" stroke="midnightblue" points="592.172,-32.2302 593.338,-21.6998 585.859,-29.2046 592.172,-32.2302"/>
</g>
<!-- Node7 -->
<g id="node13" class="node"><title>Node7</title>
<polygon fill="white" stroke="#bfbfbf" points="266,-58.5 266,-79.5 296,-79.5 296,-58.5 266,-58.5"/>
<text text-anchor="middle" x="281" y="-66.5" font-family="Verdana" font-size="10.00">list</text>
</g>
<!-- Node3&#45;&gt;Node7 -->
<g id="edge12" class="edge"><title>Node3&#45;&gt;Node7</title>
<path fill="none" stroke="midnightblue" d="M459.494,-118.065C417.227,-106.446 344.303,-86.4008 306.061,-75.8888"/>
<polygon fill="midnightblue" stroke="midnightblue" points="306.819,-72.4674 296.249,-73.1916 304.964,-79.217 306.819,-72.4674"/>
</g>
<!-- Node8 -->
<g id="node15" class="node"><title>Node8</title>
<polygon fill="white" stroke="#bfbfbf" points="390,-58.5 390,-79.5 454,-79.5 454,-58.5 390,-58.5"/>
<text text-anchor="middle" x="422" y="-66.5" font-family="Verdana" font-size="10.00">XmlSink.h</text>
</g>
<!-- Node3&#45;&gt;Node8 -->
<g id="edge14" class="edge"><title>Node3&#45;&gt;Node8</title>
<path fill="none" stroke="midnightblue" d="M479.161,-116.362C468.998,-107.941 454.599,-96.0105 442.796,-86.2308"/>
<polygon fill="midnightblue" stroke="midnightblue" points="444.691,-83.2558 434.758,-79.5707 440.225,-88.6459 444.691,-83.2558"/>
</g>
<!-- Node9 -->
<g id="node17" class="node"><title>Node9</title>
<polygon fill="white" stroke="#bfbfbf" points="471.5,-58.5 471.5,-79.5 548.5,-79.5 548.5,-58.5 471.5,-58.5"/>
<text text-anchor="middle" x="510" y="-66.5" font-family="Verdana" font-size="10.00">XmlSource.h</text>
</g>
<!-- Node3&#45;&gt;Node9 -->
<g id="edge16" class="edge"><title>Node3&#45;&gt;Node9</title>
<path fill="none" stroke="midnightblue" d="M495.301,-116.362C497.661,-108.758 500.909,-98.294 503.751,-89.1349"/>
<polygon fill="midnightblue" stroke="midnightblue" points="507.098,-90.1587 506.719,-79.5707 500.413,-88.0839 507.098,-90.1587"/>
</g>
<!-- Node10 -->
<g id="node19" class="node"><title>Node10</title>
<a xlink:href="PathNavigator_8h.html" target="_top" xlink:title="PathNavigator.h">
<polygon fill="white" stroke="black" points="604,-58.5 604,-79.5 696,-79.5 696,-58.5 604,-58.5"/>
<text text-anchor="middle" x="650" y="-66.5" font-family="Verdana" font-size="10.00">PathNavigator.h</text>
</a>
</g>
<!-- Node3&#45;&gt;Node10 -->
<g id="edge18" class="edge"><title>Node3&#45;&gt;Node10</title>
<path fill="none" stroke="midnightblue" d="M520.613,-116.497C546.148,-107.123 583.737,-93.3242 611.829,-83.0122"/>
<polygon fill="midnightblue" stroke="midnightblue" points="613.152,-86.2548 621.334,-79.5231 610.74,-79.6835 613.152,-86.2548"/>
</g>
<!-- Node10&#45;&gt;Node4 -->
<g id="edge22" class="edge"><title>Node10&#45;&gt;Node4</title>
<path fill="none" stroke="midnightblue" d="M603.6,-62.6826C516.658,-50.8454 331.262,-25.6037 256.376,-15.408"/>
<polygon fill="midnightblue" stroke="midnightblue" points="256.535,-11.8974 246.154,-14.0162 255.59,-18.8334 256.535,-11.8974"/>
</g>
<!-- Node10&#45;&gt;Node5 -->
<g id="edge20" class="edge"><title>Node10&#45;&gt;Node5</title>
<path fill="none" stroke="midnightblue" d="M656.786,-58.3619C661.793,-50.5131 668.745,-39.6159 674.718,-30.2527"/>
<polygon fill="midnightblue" stroke="midnightblue" points="677.829,-31.8837 680.257,-21.5707 671.928,-28.1189 677.829,-31.8837"/>
</g>
<!-- Node10&#45;&gt;Node6 -->
<g id="edge24" class="edge"><title>Node10&#45;&gt;Node6</title>
<path fill="none" stroke="midnightblue" d="M640.462,-58.3619C633.132,-50.1861 622.837,-38.7025 614.219,-29.0907"/>
<polygon fill="midnightblue" stroke="midnightblue" points="616.759,-26.68 607.477,-21.5707 611.547,-31.3528 616.759,-26.68"/>
</g>
<!-- Node11&#45;&gt;Node4 -->
<g id="edge50" class="edge"><title>Node11&#45;&gt;Node4</title>
<path fill="none" stroke="midnightblue" d="M174.156,-348.379C165.438,-328.262 148,-283.024 148,-243 148,-243 148,-243 148,-127 148,-86.5104 180.797,-49.1585 203.302,-28.2949"/>
<polygon fill="midnightblue" stroke="midnightblue" points="205.64,-30.8993 210.762,-21.6247 200.974,-25.681 205.64,-30.8993"/>
</g>
<!-- Node12 -->
<g id="node26" class="node"><title>Node12</title>
<a xlink:href="InstanceConfigurableElement_8h.html" target="_top" xlink:title="InstanceConfigurableElement.h">
<polygon fill="white" stroke="black" points="224,-290.5 224,-311.5 390,-311.5 390,-290.5 224,-290.5"/>
<text text-anchor="middle" x="307" y="-298.5" font-family="Verdana" font-size="10.00">InstanceConfigurableElement.h</text>
</a>
</g>
<!-- Node11&#45;&gt;Node12 -->
<g id="edge28" class="edge"><title>Node11&#45;&gt;Node12</title>
<path fill="none" stroke="midnightblue" d="M202.18,-348.497C222.352,-339.356 251.81,-326.008 274.364,-315.788"/>
<polygon fill="midnightblue" stroke="midnightblue" points="275.896,-318.937 283.56,-311.621 273.007,-312.561 275.896,-318.937"/>
</g>
<!-- Node12&#45;&gt;Node4 -->
<g id="edge48" class="edge"><title>Node12&#45;&gt;Node4</title>
<path fill="none" stroke="midnightblue" d="M264.302,-290.491C243.695,-283.374 220.205,-271.911 205,-254 184.415,-229.751 186,-216.808 186,-185 186,-185 186,-185 186,-127 186,-91.7411 202.051,-53.3154 213.289,-30.7323"/>
<polygon fill="midnightblue" stroke="midnightblue" points="216.418,-32.3005 217.895,-21.809 210.198,-29.0901 216.418,-32.3005"/>
</g>
<!-- Node12&#45;&gt;Node7 -->
<g id="edge46" class="edge"><title>Node12&#45;&gt;Node7</title>
<path fill="none" stroke="midnightblue" d="M348.676,-290.459C385.208,-279.151 429.527,-259.096 409,-232 373.315,-184.894 316.685,-243.106 281,-196 257.493,-164.969 266.411,-116.33 274.21,-89.1329"/>
<polygon fill="midnightblue" stroke="midnightblue" points="277.57,-90.1143 277.177,-79.5267 270.881,-88.048 277.57,-90.1143"/>
</g>
<!-- Node13 -->
<g id="node28" class="node"><title>Node13</title>
<a xlink:href="ConfigurableElementWithMapping_8h.html" target="_top" xlink:title="ConfigurableElementWithMapping.h">
<polygon fill="white" stroke="black" points="214,-232.5 214,-253.5 400,-253.5 400,-232.5 214,-232.5"/>
<text text-anchor="middle" x="307" y="-240.5" font-family="Verdana" font-size="10.00">ConfigurableElementWithMapping.h</text>
</a>
</g>
<!-- Node12&#45;&gt;Node13 -->
<g id="edge30" class="edge"><title>Node12&#45;&gt;Node13</title>
<path fill="none" stroke="midnightblue" d="M307,-290.362C307,-282.922 307,-272.743 307,-263.728"/>
<polygon fill="midnightblue" stroke="midnightblue" points="310.5,-263.571 307,-253.571 303.5,-263.571 310.5,-263.571"/>
</g>
<!-- Node15 -->
<g id="node35" class="node"><title>Node15</title>
<a xlink:href="TypeElement_8h.html" target="_top" xlink:title="TypeElement.h">
<polygon fill="white" stroke="black" points="432,-174.5 432,-195.5 518,-195.5 518,-174.5 432,-174.5"/>
<text text-anchor="middle" x="475" y="-182.5" font-family="Verdana" font-size="10.00">TypeElement.h</text>
</a>
</g>
<!-- Node12&#45;&gt;Node15 -->
<g id="edge40" class="edge"><title>Node12&#45;&gt;Node15</title>
<path fill="none" stroke="midnightblue" d="M368.451,-290.43C393.616,-283.541 421.562,-272.285 442,-254 456.393,-241.123 465.083,-220.607 469.905,-205.288"/>
<polygon fill="midnightblue" stroke="midnightblue" points="473.271,-206.247 472.647,-195.671 466.539,-204.327 473.271,-206.247"/>
</g>
<!-- Node13&#45;&gt;Node4 -->
<g id="edge38" class="edge"><title>Node13&#45;&gt;Node4</title>
<path fill="none" stroke="midnightblue" d="M294.764,-232.23C285.492,-223.398 273.164,-210.093 266,-196 237.989,-140.895 228.475,-67.1507 225.392,-31.7177"/>
<polygon fill="midnightblue" stroke="midnightblue" points="228.873,-31.3279 224.602,-21.6319 221.894,-31.8748 228.873,-31.3279"/>
</g>
<!-- Node14 -->
<g id="node30" class="node"><title>Node14</title>
<a xlink:href="ConfigurableElement_8h.html" target="_top" xlink:title="ConfigurableElement.h">
<polygon fill="white" stroke="black" points="289.5,-174.5 289.5,-195.5 414.5,-195.5 414.5,-174.5 289.5,-174.5"/>
<text text-anchor="middle" x="352" y="-182.5" font-family="Verdana" font-size="10.00">ConfigurableElement.h</text>
</a>
</g>
<!-- Node13&#45;&gt;Node14 -->
<g id="edge32" class="edge"><title>Node13&#45;&gt;Node14</title>
<path fill="none" stroke="midnightblue" d="M315.254,-232.362C321.47,-224.35 330.151,-213.161 337.515,-203.67"/>
<polygon fill="midnightblue" stroke="midnightblue" points="340.434,-205.617 343.799,-195.571 334.903,-201.326 340.434,-205.617"/>
</g>
<!-- Node14&#45;&gt;Node3 -->
<g id="edge34" class="edge"><title>Node14&#45;&gt;Node3</title>
<path fill="none" stroke="midnightblue" d="M377.353,-174.497C399.613,-165.275 432.212,-151.769 456.963,-141.515"/>
<polygon fill="midnightblue" stroke="midnightblue" points="458.464,-144.682 466.363,-137.621 455.784,-138.215 458.464,-144.682"/>
</g>
<!-- Node14&#45;&gt;Node7 -->
<g id="edge36" class="edge"><title>Node14&#45;&gt;Node7</title>
<path fill="none" stroke="midnightblue" d="M345.448,-174.295C333.507,-154.786 308.046,-113.188 292.946,-88.5177"/>
<polygon fill="midnightblue" stroke="midnightblue" points="295.742,-86.3812 287.536,-79.6792 289.772,-90.0356 295.742,-86.3812"/>
</g>
<!-- Node15&#45;&gt;Node3 -->
<g id="edge42" class="edge"><title>Node15&#45;&gt;Node3</title>
<path fill="none" stroke="midnightblue" d="M478.118,-174.362C480.323,-166.84 483.348,-156.519 486.012,-147.431"/>
<polygon fill="midnightblue" stroke="midnightblue" points="489.448,-148.151 488.902,-137.571 482.73,-146.182 489.448,-148.151"/>
</g>
<!-- Node15&#45;&gt;Node4 -->
<g id="edge44" class="edge"><title>Node15&#45;&gt;Node4</title>
<path fill="none" stroke="midnightblue" d="M461.723,-174.246C433.584,-151.643 365.559,-97.997 305,-58 287.989,-46.7648 268.209,-35.26 252.454,-26.4451"/>
<polygon fill="midnightblue" stroke="midnightblue" points="254.137,-23.3763 243.695,-21.5882 250.743,-29.4983 254.137,-23.3763"/>
</g>
</g>
</svg>
