<?xml version="1.0" encoding="UTF-8" standalone="no"?>
<!DOCTYPE svg PUBLIC "-//W3C//DTD SVG 1.1//EN"
 "http://www.w3.org/Graphics/SVG/1.1/DTD/svg11.dtd">
<!-- Generated by graphviz version 2.26.3 (20100126.1600)
 -->
<!-- Title: parameter/CompoundRule.h Pages: 1 -->
<svg width="714pt" height="88pt"
 viewBox="0.00 0.00 714.00 88.00" xmlns="http://www.w3.org/2000/svg" xmlns:xlink="http://www.w3.org/1999/xlink">
<g id="graph1" class="graph" transform="scale(1 1) rotate(0) translate(4 84)">
<title>parameter/CompoundRule.h</title>
<polygon fill="white" stroke="white" points="-4,5 -4,-84 711,-84 711,5 -4,5"/>
<!-- Node1 -->
<g id="node1" class="node"><title>Node1</title>
<polygon fill="#bfbfbf" stroke="black" points="296,-58.5 296,-79.5 448,-79.5 448,-58.5 296,-58.5"/>
<text text-anchor="middle" x="372" y="-66.5" font-family="Verdana" font-size="10.00">parameter/CompoundRule.h</text>
</g>
<!-- Node2 -->
<g id="node3" class="node"><title>Node2</title>
<a xlink:href="CompoundRule_8cpp.html" target="_top" xlink:title="parameter/CompoundRule.cpp">
<polygon fill="white" stroke="black" points="-0.5,-0.5 -0.5,-21.5 162.5,-21.5 162.5,-0.5 -0.5,-0.5"/>
<text text-anchor="middle" x="81" y="-8.5" font-family="Verdana" font-size="10.00">parameter/CompoundRule.cpp</text>
</a>
</g>
<!-- Node1&#45;&gt;Node2 -->
<g id="edge2" class="edge"><title>Node1&#45;&gt;Node2</title>
<path fill="none" stroke="midnightblue" d="M309.459,-56.5349C257.102,-46.0994 183.221,-31.374 133.797,-21.5231"/>
<polygon fill="midnightblue" stroke="midnightblue" points="308.811,-59.9744 319.302,-58.4966 310.179,-53.1094 308.811,-59.9744"/>
</g>
<!-- Node3 -->
<g id="node5" class="node"><title>Node3</title>
<a xlink:href="DomainConfiguration_8cpp.html" target="_top" xlink:title="parameter/DomainConfiguration.cpp">
<polygon fill="white" stroke="black" points="180,-0.5 180,-21.5 372,-21.5 372,-0.5 180,-0.5"/>
<text text-anchor="middle" x="276" y="-8.5" font-family="Verdana" font-size="10.00">parameter/DomainConfiguration.cpp</text>
</a>
</g>
<!-- Node1&#45;&gt;Node3 -->
<g id="edge4" class="edge"><title>Node1&#45;&gt;Node3</title>
<path fill="none" stroke="midnightblue" d="M345.684,-53.1009C329.074,-43.0658 308.079,-30.3808 293.496,-21.5707"/>
<polygon fill="midnightblue" stroke="midnightblue" points="344.023,-56.1864 354.392,-58.3619 347.643,-50.195 344.023,-56.1864"/>
</g>
<!-- Node4 -->
<g id="node7" class="node"><title>Node4</title>
<a xlink:href="ParameterMgr_8cpp.html" target="_top" xlink:title="parameter/ParameterMgr.cpp">
<polygon fill="white" stroke="black" points="390,-0.5 390,-21.5 548,-21.5 548,-0.5 390,-0.5"/>
<text text-anchor="middle" x="469" y="-8.5" font-family="Verdana" font-size="10.00">parameter/ParameterMgr.cpp</text>
</a>
</g>
<!-- Node1&#45;&gt;Node4 -->
<g id="edge6" class="edge"><title>Node1&#45;&gt;Node4</title>
<path fill="none" stroke="midnightblue" d="M398.59,-53.1009C415.373,-43.0658 436.587,-30.3808 451.321,-21.5707"/>
<polygon fill="midnightblue" stroke="midnightblue" points="396.578,-50.226 389.791,-58.3619 400.17,-56.2339 396.578,-50.226"/>
</g>
<!-- Node5 -->
<g id="node9" class="node"><title>Node5</title>
<a xlink:href="RuleParser_8cpp.html" target="_top" xlink:title="parameter/RuleParser.cpp">
<polygon fill="white" stroke="black" points="566,-0.5 566,-21.5 706,-21.5 706,-0.5 566,-0.5"/>
<text text-anchor="middle" x="636" y="-8.5" font-family="Verdana" font-size="10.00">parameter/RuleParser.cpp</text>
</a>
</g>
<!-- Node1&#45;&gt;Node5 -->
<g id="edge8" class="edge"><title>Node1&#45;&gt;Node5</title>
<path fill="none" stroke="midnightblue" d="M429.629,-56.3391C477.072,-45.9159 543.543,-31.3126 588.102,-21.5231"/>
<polygon fill="midnightblue" stroke="midnightblue" points="428.824,-52.9323 419.808,-58.4966 430.327,-59.7692 428.824,-52.9323"/>
</g>
</g>
</svg>
