<?xml version="1.0" encoding="UTF-8" standalone="no"?>
<!DOCTYPE svg PUBLIC "-//W3C//DTD SVG 1.1//EN"
 "http://www.w3.org/Graphics/SVG/1.1/DTD/svg11.dtd">
<!-- Generated by graphviz version 2.26.3 (20100126.1600)
 -->
<!-- Title: parameter/ComponentInstance.h Pages: 1 -->
<svg width="372pt" height="88pt"
 viewBox="0.00 0.00 372.00 88.00" xmlns="http://www.w3.org/2000/svg" xmlns:xlink="http://www.w3.org/1999/xlink">
<g id="graph1" class="graph" transform="scale(1 1) rotate(0) translate(4 84)">
<title>parameter/ComponentInstance.h</title>
<polygon fill="white" stroke="white" points="-4,5 -4,-84 369,-84 369,5 -4,5"/>
<!-- Node1 -->
<g id="node1" class="node"><title>Node1</title>
<polygon fill="#bfbfbf" stroke="black" points="101,-58.5 101,-79.5 277,-79.5 277,-58.5 101,-58.5"/>
<text text-anchor="middle" x="189" y="-66.5" font-family="Verdana" font-size="10.00">parameter/ComponentInstance.h</text>
</g>
<!-- Node2 -->
<g id="node3" class="node"><title>Node2</title>
<a xlink:href="ComponentInstance_8cpp.html" target="_top" xlink:title="parameter/ComponentInstance.cpp">
<polygon fill="white" stroke="black" points="0,-0.5 0,-21.5 188,-21.5 188,-0.5 0,-0.5"/>
<text text-anchor="middle" x="94" y="-8.5" font-family="Verdana" font-size="10.00">parameter/ComponentInstance.cpp</text>
</a>
</g>
<!-- Node1&#45;&gt;Node2 -->
<g id="edge2" class="edge"><title>Node1&#45;&gt;Node2</title>
<path fill="none" stroke="midnightblue" d="M162.958,-53.1009C146.522,-43.0658 125.744,-30.3808 111.314,-21.5707"/>
<polygon fill="midnightblue" stroke="midnightblue" points="161.217,-56.1383 171.576,-58.3619 164.864,-50.1637 161.217,-56.1383"/>
</g>
<!-- Node3 -->
<g id="node5" class="node"><title>Node3</title>
<a xlink:href="ParameterMgr_8cpp.html" target="_top" xlink:title="parameter/ParameterMgr.cpp">
<polygon fill="white" stroke="black" points="206,-0.5 206,-21.5 364,-21.5 364,-0.5 206,-0.5"/>
<text text-anchor="middle" x="285" y="-8.5" font-family="Verdana" font-size="10.00">parameter/ParameterMgr.cpp</text>
</a>
</g>
<!-- Node1&#45;&gt;Node3 -->
<g id="edge4" class="edge"><title>Node1&#45;&gt;Node3</title>
<path fill="none" stroke="midnightblue" d="M215.316,-53.1009C231.926,-43.0658 252.921,-30.3808 267.504,-21.5707"/>
<polygon fill="midnightblue" stroke="midnightblue" points="213.357,-50.195 206.608,-58.3619 216.977,-56.1864 213.357,-50.195"/>
</g>
</g>
</svg>
