<?xml version="1.0" encoding="UTF-8" standalone="no"?>
<!DOCTYPE svg PUBLIC "-//W3C//DTD SVG 1.1//EN"
 "http://www.w3.org/Graphics/SVG/1.1/DTD/svg11.dtd">
<!-- Generated by graphviz version 2.26.3 (20100126.1600)
 -->
<!-- Title: parameter/ComponentType.h Pages: 1 -->
<svg width="548pt" height="262pt"
 viewBox="0.00 0.00 548.00 262.00" xmlns="http://www.w3.org/2000/svg" xmlns:xlink="http://www.w3.org/1999/xlink">
<g id="graph1" class="graph" transform="scale(1 1) rotate(0) translate(4 258)">
<title>parameter/ComponentType.h</title>
<polygon fill="white" stroke="white" points="-4,5 -4,-258 545,-258 545,5 -4,5"/>
<!-- Node1 -->
<g id="node1" class="node"><title>Node1</title>
<polygon fill="#bfbfbf" stroke="black" points="-0.5,-232.5 -0.5,-253.5 156.5,-253.5 156.5,-232.5 -0.5,-232.5"/>
<text text-anchor="middle" x="78" y="-240.5" font-family="Verdana" font-size="10.00">parameter/ComponentType.h</text>
</g>
<!-- Node2 -->
<g id="node3" class="node"><title>Node2</title>
<a xlink:href="TypeElement_8h.html" target="_top" xlink:title="TypeElement.h">
<polygon fill="white" stroke="black" points="71,-174.5 71,-195.5 157,-195.5 157,-174.5 71,-174.5"/>
<text text-anchor="middle" x="114" y="-182.5" font-family="Verdana" font-size="10.00">TypeElement.h</text>
</a>
</g>
<!-- Node1&#45;&gt;Node2 -->
<g id="edge2" class="edge"><title>Node1&#45;&gt;Node2</title>
<path fill="none" stroke="midnightblue" d="M84.603,-232.362C89.4746,-224.513 96.2384,-213.616 102.05,-204.253"/>
<polygon fill="midnightblue" stroke="midnightblue" points="105.139,-205.913 107.439,-195.571 99.1915,-202.221 105.139,-205.913"/>
</g>
<!-- Node4 -->
<g id="node7" class="node"><title>Node4</title>
<polygon fill="white" stroke="#bfbfbf" points="78,-0.5 78,-21.5 122,-21.5 122,-0.5 78,-0.5"/>
<text text-anchor="middle" x="100" y="-8.5" font-family="Verdana" font-size="10.00">string</text>
</g>
<!-- Node1&#45;&gt;Node4 -->
<g id="edge28" class="edge"><title>Node1&#45;&gt;Node4</title>
<path fill="none" stroke="midnightblue" d="M73.2831,-232.432C69.3792,-223.072 64.1398,-208.926 62,-196 60.403,-186.354 60.8827,-183.714 62,-174 68.0031,-121.809 84.4803,-62.0368 93.643,-31.423"/>
<polygon fill="midnightblue" stroke="midnightblue" points="97.0902,-32.1174 96.6549,-21.5315 90.3937,-30.0783 97.0902,-32.1174"/>
</g>
<!-- Node3 -->
<g id="node5" class="node"><title>Node3</title>
<a xlink:href="Element_8h.html" target="_top" xlink:title="Element.h">
<polygon fill="white" stroke="black" points="238.5,-116.5 238.5,-137.5 303.5,-137.5 303.5,-116.5 238.5,-116.5"/>
<text text-anchor="middle" x="271" y="-124.5" font-family="Verdana" font-size="10.00">Element.h</text>
</a>
</g>
<!-- Node2&#45;&gt;Node3 -->
<g id="edge4" class="edge"><title>Node2&#45;&gt;Node3</title>
<path fill="none" stroke="midnightblue" d="M142.432,-174.497C167.805,-165.123 205.157,-151.324 233.07,-141.012"/>
<polygon fill="midnightblue" stroke="midnightblue" points="234.348,-144.272 242.515,-137.523 231.922,-137.705 234.348,-144.272"/>
</g>
<!-- Node2&#45;&gt;Node4 -->
<g id="edge26" class="edge"><title>Node2&#45;&gt;Node4</title>
<path fill="none" stroke="midnightblue" d="M113.145,-174.377C110.886,-146.293 104.721,-69.6735 101.706,-32.2027"/>
<polygon fill="midnightblue" stroke="midnightblue" points="105.17,-31.6148 100.879,-21.9277 98.1926,-32.1762 105.17,-31.6148"/>
</g>
<!-- Node3&#45;&gt;Node4 -->
<g id="edge6" class="edge"><title>Node3&#45;&gt;Node4</title>
<path fill="none" stroke="midnightblue" d="M238.463,-122.237C209.322,-116.529 166.852,-104.477 138,-80 122.833,-67.133 112.635,-46.6158 106.654,-31.2937"/>
<polygon fill="midnightblue" stroke="midnightblue" points="109.869,-29.8897 103.179,-21.6739 103.285,-32.2682 109.869,-29.8897"/>
</g>
<!-- Node5 -->
<g id="node9" class="node"><title>Node5</title>
<polygon fill="white" stroke="#bfbfbf" points="493.5,-0.5 493.5,-21.5 540.5,-21.5 540.5,-0.5 493.5,-0.5"/>
<text text-anchor="middle" x="517" y="-8.5" font-family="Verdana" font-size="10.00">vector</text>
</g>
<!-- Node3&#45;&gt;Node5 -->
<g id="edge8" class="edge"><title>Node3&#45;&gt;Node5</title>
<path fill="none" stroke="midnightblue" d="M303.753,-123.616C357.266,-117.492 460.275,-103.028 488,-80 502.479,-67.9745 509.857,-47.4683 513.535,-31.9278"/>
<polygon fill="midnightblue" stroke="midnightblue" points="517.055,-32.1772 515.607,-21.6818 510.194,-30.7893 517.055,-32.1772"/>
</g>
<!-- Node6 -->
<g id="node11" class="node"><title>Node6</title>
<polygon fill="white" stroke="#bfbfbf" points="401.5,-0.5 401.5,-21.5 454.5,-21.5 454.5,-0.5 401.5,-0.5"/>
<text text-anchor="middle" x="428" y="-8.5" font-family="Verdana" font-size="10.00">stdint.h</text>
</g>
<!-- Node3&#45;&gt;Node6 -->
<g id="edge10" class="edge"><title>Node3&#45;&gt;Node6</title>
<path fill="none" stroke="midnightblue" d="M303.636,-124.195C355.087,-119.021 451.345,-106.042 472,-80 485.278,-63.2595 467.77,-42.3751 451.065,-27.9929"/>
<polygon fill="midnightblue" stroke="midnightblue" points="453.038,-25.086 443.068,-21.5015 448.626,-30.5211 453.038,-25.086"/>
</g>
<!-- Node7 -->
<g id="node13" class="node"><title>Node7</title>
<polygon fill="white" stroke="#bfbfbf" points="147,-58.5 147,-79.5 177,-79.5 177,-58.5 147,-58.5"/>
<text text-anchor="middle" x="162" y="-66.5" font-family="Verdana" font-size="10.00">list</text>
</g>
<!-- Node3&#45;&gt;Node7 -->
<g id="edge12" class="edge"><title>Node3&#45;&gt;Node7</title>
<path fill="none" stroke="midnightblue" d="M251.261,-116.497C232.914,-106.734 205.546,-92.1712 185.955,-81.7468"/>
<polygon fill="midnightblue" stroke="midnightblue" points="187.508,-78.6086 177.036,-77.0009 184.22,-84.7882 187.508,-78.6086"/>
</g>
<!-- Node8 -->
<g id="node15" class="node"><title>Node8</title>
<polygon fill="white" stroke="#bfbfbf" points="195,-58.5 195,-79.5 259,-79.5 259,-58.5 195,-58.5"/>
<text text-anchor="middle" x="227" y="-66.5" font-family="Verdana" font-size="10.00">XmlSink.h</text>
</g>
<!-- Node3&#45;&gt;Node8 -->
<g id="edge14" class="edge"><title>Node3&#45;&gt;Node8</title>
<path fill="none" stroke="midnightblue" d="M262.93,-116.362C256.851,-108.35 248.363,-97.1605 241.163,-87.6696"/>
<polygon fill="midnightblue" stroke="midnightblue" points="243.851,-85.4222 235.019,-79.5707 238.275,-89.653 243.851,-85.4222"/>
</g>
<!-- Node9 -->
<g id="node17" class="node"><title>Node9</title>
<polygon fill="white" stroke="#bfbfbf" points="276.5,-58.5 276.5,-79.5 353.5,-79.5 353.5,-58.5 276.5,-58.5"/>
<text text-anchor="middle" x="315" y="-66.5" font-family="Verdana" font-size="10.00">XmlSource.h</text>
</g>
<!-- Node3&#45;&gt;Node9 -->
<g id="edge16" class="edge"><title>Node3&#45;&gt;Node9</title>
<path fill="none" stroke="midnightblue" d="M279.07,-116.362C285.149,-108.35 293.637,-97.1605 300.837,-87.6696"/>
<polygon fill="midnightblue" stroke="midnightblue" points="303.725,-89.653 306.981,-79.5707 298.149,-85.4222 303.725,-89.653"/>
</g>
<!-- Node10 -->
<g id="node19" class="node"><title>Node10</title>
<a xlink:href="PathNavigator_8h.html" target="_top" xlink:title="PathNavigator.h">
<polygon fill="white" stroke="black" points="371,-58.5 371,-79.5 463,-79.5 463,-58.5 371,-58.5"/>
<text text-anchor="middle" x="417" y="-66.5" font-family="Verdana" font-size="10.00">PathNavigator.h</text>
</a>
</g>
<!-- Node3&#45;&gt;Node10 -->
<g id="edge18" class="edge"><title>Node3&#45;&gt;Node10</title>
<path fill="none" stroke="midnightblue" d="M297.439,-116.497C320.756,-107.234 354.95,-93.6499 380.804,-83.3793"/>
<polygon fill="midnightblue" stroke="midnightblue" points="382.263,-86.566 390.264,-79.6212 379.678,-80.0605 382.263,-86.566"/>
</g>
<!-- Node10&#45;&gt;Node4 -->
<g id="edge22" class="edge"><title>Node10&#45;&gt;Node4</title>
<path fill="none" stroke="midnightblue" d="M370.8,-59.6906C367.823,-59.1123 364.87,-58.5444 362,-58 279.305,-42.3149 181.659,-25.1579 132.195,-16.563"/>
<polygon fill="midnightblue" stroke="midnightblue" points="132.561,-13.0743 122.11,-14.8133 131.365,-19.9713 132.561,-13.0743"/>
</g>
<!-- Node10&#45;&gt;Node5 -->
<g id="edge20" class="edge"><title>Node10&#45;&gt;Node5</title>
<path fill="none" stroke="midnightblue" d="M435.342,-58.3619C450.566,-49.532 472.441,-36.844 489.72,-26.8224"/>
<polygon fill="midnightblue" stroke="midnightblue" points="491.88,-29.6155 498.775,-21.5707 488.368,-23.5603 491.88,-29.6155"/>
</g>
<!-- Node10&#45;&gt;Node6 -->
<g id="edge24" class="edge"><title>Node10&#45;&gt;Node6</title>
<path fill="none" stroke="midnightblue" d="M419.018,-58.3619C420.444,-50.8401 422.402,-40.5187 424.125,-31.4308"/>
<polygon fill="midnightblue" stroke="midnightblue" points="427.571,-32.0477 425.995,-21.5707 420.693,-30.7433 427.571,-32.0477"/>
</g>
</g>
</svg>
