<?xml version="1.0" encoding="UTF-8" standalone="no"?>
<!DOCTYPE svg PUBLIC "-//W3C//DTD SVG 1.1//EN"
 "http://www.w3.org/Graphics/SVG/1.1/DTD/svg11.dtd">
<!-- Generated by graphviz version 2.26.3 (20100126.1600)
 -->
<!-- Title: parameter/ComponentInstance.h Pages: 1 -->
<svg width="558pt" height="262pt"
 viewBox="0.00 0.00 558.00 262.00" xmlns="http://www.w3.org/2000/svg" xmlns:xlink="http://www.w3.org/1999/xlink">
<g id="graph1" class="graph" transform="scale(1 1) rotate(0) translate(4 258)">
<title>parameter/ComponentInstance.h</title>
<polygon fill="white" stroke="white" points="-4,5 -4,-258 555,-258 555,5 -4,5"/>
<!-- Node1 -->
<g id="node1" class="node"><title>Node1</title>
<polygon fill="#bfbfbf" stroke="black" points="0,-232.5 0,-253.5 176,-253.5 176,-232.5 0,-232.5"/>
<text text-anchor="middle" x="88" y="-240.5" font-family="Verdana" font-size="10.00">parameter/ComponentInstance.h</text>
</g>
<!-- Node2 -->
<g id="node3" class="node"><title>Node2</title>
<a xlink:href="TypeElement_8h.html" target="_top" xlink:title="TypeElement.h">
<polygon fill="white" stroke="black" points="81,-174.5 81,-195.5 167,-195.5 167,-174.5 81,-174.5"/>
<text text-anchor="middle" x="124" y="-182.5" font-family="Verdana" font-size="10.00">TypeElement.h</text>
</a>
</g>
<!-- Node1&#45;&gt;Node2 -->
<g id="edge2" class="edge"><title>Node1&#45;&gt;Node2</title>
<path fill="none" stroke="midnightblue" d="M94.603,-232.362C99.4746,-224.513 106.238,-213.616 112.05,-204.253"/>
<polygon fill="midnightblue" stroke="midnightblue" points="115.139,-205.913 117.439,-195.571 109.191,-202.221 115.139,-205.913"/>
</g>
<!-- Node4 -->
<g id="node7" class="node"><title>Node4</title>
<polygon fill="white" stroke="#bfbfbf" points="88,-0.5 88,-21.5 132,-21.5 132,-0.5 88,-0.5"/>
<text text-anchor="middle" x="110" y="-8.5" font-family="Verdana" font-size="10.00">string</text>
</g>
<!-- Node1&#45;&gt;Node4 -->
<g id="edge28" class="edge"><title>Node1&#45;&gt;Node4</title>
<path fill="none" stroke="midnightblue" d="M83.2831,-232.432C79.3792,-223.072 74.1398,-208.926 72,-196 70.403,-186.354 70.8827,-183.714 72,-174 78.0031,-121.809 94.4803,-62.0368 103.643,-31.423"/>
<polygon fill="midnightblue" stroke="midnightblue" points="107.09,-32.1174 106.655,-21.5315 100.394,-30.0783 107.09,-32.1174"/>
</g>
<!-- Node3 -->
<g id="node5" class="node"><title>Node3</title>
<a xlink:href="Element_8h.html" target="_top" xlink:title="Element.h">
<polygon fill="white" stroke="black" points="248.5,-116.5 248.5,-137.5 313.5,-137.5 313.5,-116.5 248.5,-116.5"/>
<text text-anchor="middle" x="281" y="-124.5" font-family="Verdana" font-size="10.00">Element.h</text>
</a>
</g>
<!-- Node2&#45;&gt;Node3 -->
<g id="edge4" class="edge"><title>Node2&#45;&gt;Node3</title>
<path fill="none" stroke="midnightblue" d="M152.432,-174.497C177.805,-165.123 215.157,-151.324 243.07,-141.012"/>
<polygon fill="midnightblue" stroke="midnightblue" points="244.348,-144.272 252.515,-137.523 241.922,-137.705 244.348,-144.272"/>
</g>
<!-- Node2&#45;&gt;Node4 -->
<g id="edge26" class="edge"><title>Node2&#45;&gt;Node4</title>
<path fill="none" stroke="midnightblue" d="M123.145,-174.377C120.886,-146.293 114.721,-69.6735 111.706,-32.2027"/>
<polygon fill="midnightblue" stroke="midnightblue" points="115.17,-31.6148 110.879,-21.9277 108.193,-32.1762 115.17,-31.6148"/>
</g>
<!-- Node3&#45;&gt;Node4 -->
<g id="edge6" class="edge"><title>Node3&#45;&gt;Node4</title>
<path fill="none" stroke="midnightblue" d="M248.463,-122.237C219.322,-116.529 176.852,-104.477 148,-80 132.833,-67.133 122.635,-46.6158 116.654,-31.2937"/>
<polygon fill="midnightblue" stroke="midnightblue" points="119.869,-29.8897 113.179,-21.6739 113.285,-32.2682 119.869,-29.8897"/>
</g>
<!-- Node5 -->
<g id="node9" class="node"><title>Node5</title>
<polygon fill="white" stroke="#bfbfbf" points="503.5,-0.5 503.5,-21.5 550.5,-21.5 550.5,-0.5 503.5,-0.5"/>
<text text-anchor="middle" x="527" y="-8.5" font-family="Verdana" font-size="10.00">vector</text>
</g>
<!-- Node3&#45;&gt;Node5 -->
<g id="edge8" class="edge"><title>Node3&#45;&gt;Node5</title>
<path fill="none" stroke="midnightblue" d="M313.753,-123.616C367.266,-117.492 470.275,-103.028 498,-80 512.479,-67.9745 519.857,-47.4683 523.535,-31.9278"/>
<polygon fill="midnightblue" stroke="midnightblue" points="527.055,-32.1772 525.607,-21.6818 520.194,-30.7893 527.055,-32.1772"/>
</g>
<!-- Node6 -->
<g id="node11" class="node"><title>Node6</title>
<polygon fill="white" stroke="#bfbfbf" points="411.5,-0.5 411.5,-21.5 464.5,-21.5 464.5,-0.5 411.5,-0.5"/>
<text text-anchor="middle" x="438" y="-8.5" font-family="Verdana" font-size="10.00">stdint.h</text>
</g>
<!-- Node3&#45;&gt;Node6 -->
<g id="edge10" class="edge"><title>Node3&#45;&gt;Node6</title>
<path fill="none" stroke="midnightblue" d="M313.636,-124.195C365.087,-119.021 461.345,-106.042 482,-80 495.278,-63.2595 477.77,-42.3751 461.065,-27.9929"/>
<polygon fill="midnightblue" stroke="midnightblue" points="463.038,-25.086 453.068,-21.5015 458.626,-30.5211 463.038,-25.086"/>
</g>
<!-- Node7 -->
<g id="node13" class="node"><title>Node7</title>
<polygon fill="white" stroke="#bfbfbf" points="157,-58.5 157,-79.5 187,-79.5 187,-58.5 157,-58.5"/>
<text text-anchor="middle" x="172" y="-66.5" font-family="Verdana" font-size="10.00">list</text>
</g>
<!-- Node3&#45;&gt;Node7 -->
<g id="edge12" class="edge"><title>Node3&#45;&gt;Node7</title>
<path fill="none" stroke="midnightblue" d="M261.261,-116.497C242.914,-106.734 215.546,-92.1712 195.955,-81.7468"/>
<polygon fill="midnightblue" stroke="midnightblue" points="197.508,-78.6086 187.036,-77.0009 194.22,-84.7882 197.508,-78.6086"/>
</g>
<!-- Node8 -->
<g id="node15" class="node"><title>Node8</title>
<polygon fill="white" stroke="#bfbfbf" points="205,-58.5 205,-79.5 269,-79.5 269,-58.5 205,-58.5"/>
<text text-anchor="middle" x="237" y="-66.5" font-family="Verdana" font-size="10.00">XmlSink.h</text>
</g>
<!-- Node3&#45;&gt;Node8 -->
<g id="edge14" class="edge"><title>Node3&#45;&gt;Node8</title>
<path fill="none" stroke="midnightblue" d="M272.93,-116.362C266.851,-108.35 258.363,-97.1605 251.163,-87.6696"/>
<polygon fill="midnightblue" stroke="midnightblue" points="253.851,-85.4222 245.019,-79.5707 248.275,-89.653 253.851,-85.4222"/>
</g>
<!-- Node9 -->
<g id="node17" class="node"><title>Node9</title>
<polygon fill="white" stroke="#bfbfbf" points="286.5,-58.5 286.5,-79.5 363.5,-79.5 363.5,-58.5 286.5,-58.5"/>
<text text-anchor="middle" x="325" y="-66.5" font-family="Verdana" font-size="10.00">XmlSource.h</text>
</g>
<!-- Node3&#45;&gt;Node9 -->
<g id="edge16" class="edge"><title>Node3&#45;&gt;Node9</title>
<path fill="none" stroke="midnightblue" d="M289.07,-116.362C295.149,-108.35 303.637,-97.1605 310.837,-87.6696"/>
<polygon fill="midnightblue" stroke="midnightblue" points="313.725,-89.653 316.981,-79.5707 308.149,-85.4222 313.725,-89.653"/>
</g>
<!-- Node10 -->
<g id="node19" class="node"><title>Node10</title>
<a xlink:href="PathNavigator_8h.html" target="_top" xlink:title="PathNavigator.h">
<polygon fill="white" stroke="black" points="381,-58.5 381,-79.5 473,-79.5 473,-58.5 381,-58.5"/>
<text text-anchor="middle" x="427" y="-66.5" font-family="Verdana" font-size="10.00">PathNavigator.h</text>
</a>
</g>
<!-- Node3&#45;&gt;Node10 -->
<g id="edge18" class="edge"><title>Node3&#45;&gt;Node10</title>
<path fill="none" stroke="midnightblue" d="M307.439,-116.497C330.756,-107.234 364.95,-93.6499 390.804,-83.3793"/>
<polygon fill="midnightblue" stroke="midnightblue" points="392.263,-86.566 400.264,-79.6212 389.678,-80.0605 392.263,-86.566"/>
</g>
<!-- Node10&#45;&gt;Node4 -->
<g id="edge22" class="edge"><title>Node10&#45;&gt;Node4</title>
<path fill="none" stroke="midnightblue" d="M380.8,-59.6906C377.823,-59.1123 374.87,-58.5444 372,-58 289.305,-42.3149 191.659,-25.1579 142.195,-16.563"/>
<polygon fill="midnightblue" stroke="midnightblue" points="142.561,-13.0743 132.11,-14.8133 141.365,-19.9713 142.561,-13.0743"/>
</g>
<!-- Node10&#45;&gt;Node5 -->
<g id="edge20" class="edge"><title>Node10&#45;&gt;Node5</title>
<path fill="none" stroke="midnightblue" d="M445.342,-58.3619C460.566,-49.532 482.441,-36.844 499.72,-26.8224"/>
<polygon fill="midnightblue" stroke="midnightblue" points="501.88,-29.6155 508.775,-21.5707 498.368,-23.5603 501.88,-29.6155"/>
</g>
<!-- Node10&#45;&gt;Node6 -->
<g id="edge24" class="edge"><title>Node10&#45;&gt;Node6</title>
<path fill="none" stroke="midnightblue" d="M429.018,-58.3619C430.444,-50.8401 432.402,-40.5187 434.125,-31.4308"/>
<polygon fill="midnightblue" stroke="midnightblue" points="437.571,-32.0477 435.995,-21.5707 430.693,-30.7433 437.571,-32.0477"/>
</g>
</g>
</svg>
