<?xml version="1.0" encoding="UTF-8" standalone="no"?>
<!DOCTYPE svg PUBLIC "-//W3C//DTD SVG 1.1//EN"
 "http://www.w3.org/Graphics/SVG/1.1/DTD/svg11.dtd">
<!-- Generated by graphviz version 2.26.3 (20100126.1600)
 -->
<!-- Title: parameter/ComponentInstance.cpp Pages: 1 -->
<svg width="976pt" height="494pt"
 viewBox="0.00 0.00 976.25 494.00" xmlns="http://www.w3.org/2000/svg" xmlns:xlink="http://www.w3.org/1999/xlink">
<g id="graph1" class="graph" transform="scale(1 1) rotate(0) translate(4 490)">
<title>parameter/ComponentInstance.cpp</title>
<polygon fill="white" stroke="white" points="-4,5 -4,-490 973.248,-490 973.248,5 -4,5"/>
<!-- Node1 -->
<g id="node1" class="node"><title>Node1</title>
<polygon fill="#bfbfbf" stroke="black" points="278.248,-464.5 278.248,-485.5 466.248,-485.5 466.248,-464.5 278.248,-464.5"/>
<text text-anchor="middle" x="372.248" y="-472.5" font-family="Verdana" font-size="10.00">parameter/ComponentInstance.cpp</text>
</g>
<!-- Node2 -->
<g id="node3" class="node"><title>Node2</title>
<a xlink:href="ComponentInstance_8h.html" target="_top" xlink:title="ComponentInstance.h">
<polygon fill="white" stroke="black" points="264.248,-232.5 264.248,-253.5 386.248,-253.5 386.248,-232.5 264.248,-232.5"/>
<text text-anchor="middle" x="325.248" y="-240.5" font-family="Verdana" font-size="10.00">ComponentInstance.h</text>
</a>
</g>
<!-- Node1&#45;&gt;Node2 -->
<g id="edge2" class="edge"><title>Node1&#45;&gt;Node2</title>
<path fill="none" stroke="midnightblue" d="M370.106,-464.429C362.842,-428.573 339.058,-311.169 329.39,-263.446"/>
<polygon fill="midnightblue" stroke="midnightblue" points="332.818,-262.739 327.402,-253.634 325.957,-264.129 332.818,-262.739"/>
</g>
<!-- Node12 -->
<g id="node28" class="node"><title>Node12</title>
<a xlink:href="ComponentLibrary_8h.html" target="_top" xlink:title="ComponentLibrary.h">
<polygon fill="white" stroke="black" points="231.748,-406.5 231.748,-427.5 344.748,-427.5 344.748,-406.5 231.748,-406.5"/>
<text text-anchor="middle" x="288.248" y="-414.5" font-family="Verdana" font-size="10.00">ComponentLibrary.h</text>
</a>
</g>
<!-- Node1&#45;&gt;Node12 -->
<g id="edge32" class="edge"><title>Node1&#45;&gt;Node12</title>
<path fill="none" stroke="midnightblue" d="M356.841,-464.362C344.289,-455.696 326.355,-443.313 311.973,-433.382"/>
<polygon fill="midnightblue" stroke="midnightblue" points="313.775,-430.372 303.557,-427.571 309.797,-436.133 313.775,-430.372"/>
</g>
<!-- Node14 -->
<g id="node33" class="node"><title>Node14</title>
<a xlink:href="Component_8h.html" target="_top" xlink:title="Component.h">
<polygon fill="white" stroke="black" points="475.248,-348.5 475.248,-369.5 557.248,-369.5 557.248,-348.5 475.248,-348.5"/>
<text text-anchor="middle" x="516.248" y="-356.5" font-family="Verdana" font-size="10.00">Component.h</text>
</a>
</g>
<!-- Node1&#45;&gt;Node14 -->
<g id="edge68" class="edge"><title>Node1&#45;&gt;Node14</title>
<path fill="none" stroke="midnightblue" d="M385.537,-464.295C410.612,-444.096 465.083,-400.216 495.19,-375.963"/>
<polygon fill="midnightblue" stroke="midnightblue" points="497.399,-378.678 502.991,-369.679 493.007,-373.227 497.399,-378.678"/>
</g>
<!-- Node18 -->
<g id="node49" class="node"><title>Node18</title>
<a xlink:href="ComponentType_8h.html" target="_top" xlink:title="ComponentType.h">
<polygon fill="white" stroke="black" points="42.7476,-232.5 42.7476,-253.5 145.748,-253.5 145.748,-232.5 42.7476,-232.5"/>
<text text-anchor="middle" x="94.2476" y="-240.5" font-family="Verdana" font-size="10.00">ComponentType.h</text>
</a>
</g>
<!-- Node1&#45;&gt;Node18 -->
<g id="edge62" class="edge"><title>Node1&#45;&gt;Node18</title>
<path fill="none" stroke="midnightblue" d="M320.333,-464.459C290.612,-457.029 253.362,-445.279 223.248,-428 189.952,-408.896 182.595,-400.471 159.248,-370 133.032,-335.785 112.422,-289.401 101.91,-263.203"/>
<polygon fill="midnightblue" stroke="midnightblue" points="105.058,-261.643 98.1521,-253.608 98.5402,-264.196 105.058,-261.643"/>
</g>
<!-- Node19 -->
<g id="node54" class="node"><title>Node19</title>
<a xlink:href="XmlParameterSerializingContext_8h.html" target="_top" xlink:title="XmlParameterSerializingContext.h">
<polygon fill="white" stroke="black" points="760.248,-116.5 760.248,-137.5 940.248,-137.5 940.248,-116.5 760.248,-116.5"/>
<text text-anchor="middle" x="850.248" y="-124.5" font-family="Verdana" font-size="10.00">XmlParameterSerializingContext.h</text>
</a>
</g>
<!-- Node1&#45;&gt;Node19 -->
<g id="edge70" class="edge"><title>Node1&#45;&gt;Node19</title>
<path fill="none" stroke="midnightblue" d="M466.479,-469.006C595.208,-458.185 810.248,-429.551 810.248,-359 810.248,-359 810.248,-359 810.248,-243 810.248,-207.557 827.143,-169.186 838.973,-146.665"/>
<polygon fill="midnightblue" stroke="midnightblue" points="842.109,-148.224 843.821,-137.768 835.963,-144.874 842.109,-148.224"/>
</g>
<!-- Node3 -->
<g id="node5" class="node"><title>Node3</title>
<a xlink:href="TypeElement_8h.html" target="_top" xlink:title="TypeElement.h">
<polygon fill="white" stroke="black" points="315.248,-174.5 315.248,-195.5 401.248,-195.5 401.248,-174.5 315.248,-174.5"/>
<text text-anchor="middle" x="358.248" y="-182.5" font-family="Verdana" font-size="10.00">TypeElement.h</text>
</a>
</g>
<!-- Node2&#45;&gt;Node3 -->
<g id="edge4" class="edge"><title>Node2&#45;&gt;Node3</title>
<path fill="none" stroke="midnightblue" d="M331.3,-232.362C335.72,-224.595 341.837,-213.843 347.127,-204.546"/>
<polygon fill="midnightblue" stroke="midnightblue" points="350.33,-205.993 352.233,-195.571 344.246,-202.531 350.33,-205.993"/>
</g>
<!-- Node5 -->
<g id="node9" class="node"><title>Node5</title>
<polygon fill="white" stroke="#bfbfbf" points="479.248,-0.5 479.248,-21.5 523.248,-21.5 523.248,-0.5 479.248,-0.5"/>
<text text-anchor="middle" x="501.248" y="-8.5" font-family="Verdana" font-size="10.00">string</text>
</g>
<!-- Node2&#45;&gt;Node5 -->
<g id="edge30" class="edge"><title>Node2&#45;&gt;Node5</title>
<path fill="none" stroke="midnightblue" d="M315.691,-232.079C289.904,-201.265 223.761,-112.357 268.248,-58 293.283,-27.4106 411.333,-16.2831 469.163,-12.6198"/>
<polygon fill="midnightblue" stroke="midnightblue" points="469.451,-16.1089 479.224,-12.0196 469.034,-9.12134 469.451,-16.1089"/>
</g>
<!-- Node4 -->
<g id="node7" class="node"><title>Node4</title>
<a xlink:href="Element_8h.html" target="_top" xlink:title="Element.h">
<polygon fill="white" stroke="black" points="300.748,-116.5 300.748,-137.5 365.748,-137.5 365.748,-116.5 300.748,-116.5"/>
<text text-anchor="middle" x="333.248" y="-124.5" font-family="Verdana" font-size="10.00">Element.h</text>
</a>
</g>
<!-- Node3&#45;&gt;Node4 -->
<g id="edge6" class="edge"><title>Node3&#45;&gt;Node4</title>
<path fill="none" stroke="midnightblue" d="M353.662,-174.362C350.35,-166.677 345.777,-156.069 341.799,-146.84"/>
<polygon fill="midnightblue" stroke="midnightblue" points="344.976,-145.368 337.804,-137.571 338.548,-148.139 344.976,-145.368"/>
</g>
<!-- Node3&#45;&gt;Node5 -->
<g id="edge28" class="edge"><title>Node3&#45;&gt;Node5</title>
<path fill="none" stroke="midnightblue" d="M373.081,-174.227C396.361,-156.696 441.755,-119.915 470.248,-80 480.931,-65.0341 489.201,-45.7984 494.502,-31.4404"/>
<polygon fill="midnightblue" stroke="midnightblue" points="497.814,-32.5732 497.83,-21.9784 491.211,-30.251 497.814,-32.5732"/>
</g>
<!-- Node4&#45;&gt;Node5 -->
<g id="edge8" class="edge"><title>Node4&#45;&gt;Node5</title>
<path fill="none" stroke="midnightblue" d="M365.998,-117.742C389.318,-110.099 420.588,-97.6321 444.248,-80 462.613,-66.3138 478.727,-45.5117 489.093,-30.3261"/>
<polygon fill="midnightblue" stroke="midnightblue" points="492.191,-31.9858 494.774,-21.7106 486.347,-28.1326 492.191,-31.9858"/>
</g>
<!-- Node6 -->
<g id="node11" class="node"><title>Node6</title>
<polygon fill="white" stroke="#bfbfbf" points="2.74763,-0.5 2.74763,-21.5 49.7476,-21.5 49.7476,-0.5 2.74763,-0.5"/>
<text text-anchor="middle" x="26.2476" y="-8.5" font-family="Verdana" font-size="10.00">vector</text>
</g>
<!-- Node4&#45;&gt;Node6 -->
<g id="edge10" class="edge"><title>Node4&#45;&gt;Node6</title>
<path fill="none" stroke="midnightblue" d="M300.624,-124.706C221.678,-118.826 25.4033,-102.106 6.24763,-80 -5.79221,-66.1059 2.66421,-45.3353 12.005,-30.2139"/>
<polygon fill="midnightblue" stroke="midnightblue" points="15.0925,-31.8942 17.7599,-21.6407 9.28046,-27.9928 15.0925,-31.8942"/>
</g>
<!-- Node7 -->
<g id="node13" class="node"><title>Node7</title>
<polygon fill="white" stroke="#bfbfbf" points="69.7476,-0.5 69.7476,-21.5 122.748,-21.5 122.748,-0.5 69.7476,-0.5"/>
<text text-anchor="middle" x="96.2476" y="-8.5" font-family="Verdana" font-size="10.00">stdint.h</text>
</g>
<!-- Node4&#45;&gt;Node7 -->
<g id="edge12" class="edge"><title>Node4&#45;&gt;Node7</title>
<path fill="none" stroke="midnightblue" d="M311.376,-116.295C268.941,-95.525 175.353,-49.7182 126.805,-25.9562"/>
<polygon fill="midnightblue" stroke="midnightblue" points="128.245,-22.7642 117.724,-21.5117 125.167,-29.0515 128.245,-22.7642"/>
</g>
<!-- Node8 -->
<g id="node15" class="node"><title>Node8</title>
<polygon fill="white" stroke="#bfbfbf" points="529.248,-58.5 529.248,-79.5 559.248,-79.5 559.248,-58.5 529.248,-58.5"/>
<text text-anchor="middle" x="544.248" y="-66.5" font-family="Verdana" font-size="10.00">list</text>
</g>
<!-- Node4&#45;&gt;Node8 -->
<g id="edge14" class="edge"><title>Node4&#45;&gt;Node8</title>
<path fill="none" stroke="midnightblue" d="M365.754,-118.065C408.02,-106.446 480.945,-86.4008 519.187,-75.8888"/>
<polygon fill="midnightblue" stroke="midnightblue" points="520.284,-79.217 528.999,-73.1916 518.429,-72.4674 520.284,-79.217"/>
</g>
<!-- Node9 -->
<g id="node17" class="node"><title>Node9</title>
<polygon fill="white" stroke="#bfbfbf" points="277.248,-58.5 277.248,-79.5 341.248,-79.5 341.248,-58.5 277.248,-58.5"/>
<text text-anchor="middle" x="309.248" y="-66.5" font-family="Verdana" font-size="10.00">XmlSink.h</text>
</g>
<!-- Node4&#45;&gt;Node9 -->
<g id="edge16" class="edge"><title>Node4&#45;&gt;Node9</title>
<path fill="none" stroke="midnightblue" d="M328.846,-116.362C325.666,-108.677 321.276,-98.0686 317.457,-88.8399"/>
<polygon fill="midnightblue" stroke="midnightblue" points="320.679,-87.4726 313.622,-79.5707 314.211,-90.1491 320.679,-87.4726"/>
</g>
<!-- Node10 -->
<g id="node19" class="node"><title>Node10</title>
<polygon fill="white" stroke="#bfbfbf" points="358.748,-58.5 358.748,-79.5 435.748,-79.5 435.748,-58.5 358.748,-58.5"/>
<text text-anchor="middle" x="397.248" y="-66.5" font-family="Verdana" font-size="10.00">XmlSource.h</text>
</g>
<!-- Node4&#45;&gt;Node10 -->
<g id="edge18" class="edge"><title>Node4&#45;&gt;Node10</title>
<path fill="none" stroke="midnightblue" d="M344.986,-116.362C354.188,-108.023 367.188,-96.2418 377.919,-86.5162"/>
<polygon fill="midnightblue" stroke="midnightblue" points="380.524,-88.8793 385.583,-79.5707 375.823,-83.6924 380.524,-88.8793"/>
</g>
<!-- Node11 -->
<g id="node21" class="node"><title>Node11</title>
<a xlink:href="PathNavigator_8h.html" target="_top" xlink:title="PathNavigator.h">
<polygon fill="white" stroke="black" points="15.2476,-58.5 15.2476,-79.5 107.248,-79.5 107.248,-58.5 15.2476,-58.5"/>
<text text-anchor="middle" x="61.2476" y="-66.5" font-family="Verdana" font-size="10.00">PathNavigator.h</text>
</a>
</g>
<!-- Node4&#45;&gt;Node11 -->
<g id="edge20" class="edge"><title>Node4&#45;&gt;Node11</title>
<path fill="none" stroke="midnightblue" d="M300.708,-120.061C255.441,-110.409 172.802,-92.7873 117.45,-80.9843"/>
<polygon fill="midnightblue" stroke="midnightblue" points="117.957,-77.5139 107.447,-78.8514 116.497,-84.3599 117.957,-77.5139"/>
</g>
<!-- Node11&#45;&gt;Node5 -->
<g id="edge24" class="edge"><title>Node11&#45;&gt;Node5</title>
<path fill="none" stroke="midnightblue" d="M107.39,-60.2606C112.065,-59.4592 116.746,-58.6904 121.248,-58 249.465,-38.3346 403.006,-21.3408 468.766,-14.3719"/>
<polygon fill="midnightblue" stroke="midnightblue" points="469.335,-17.8315 478.913,-13.3025 468.601,-10.87 469.335,-17.8315"/>
</g>
<!-- Node11&#45;&gt;Node6 -->
<g id="edge22" class="edge"><title>Node11&#45;&gt;Node6</title>
<path fill="none" stroke="midnightblue" d="M54.8281,-58.3619C50.0917,-50.5131 43.5158,-39.6159 37.8657,-30.2527"/>
<polygon fill="midnightblue" stroke="midnightblue" points="40.7898,-28.3242 32.6265,-21.5707 34.7965,-31.9409 40.7898,-28.3242"/>
</g>
<!-- Node11&#45;&gt;Node7 -->
<g id="edge26" class="edge"><title>Node11&#45;&gt;Node7</title>
<path fill="none" stroke="midnightblue" d="M67.6672,-58.3619C72.4035,-50.5131 78.9794,-39.6159 84.6296,-30.2527"/>
<polygon fill="midnightblue" stroke="midnightblue" points="87.6988,-31.9409 89.8688,-21.5707 81.7054,-28.3242 87.6988,-31.9409"/>
</g>
<!-- Node12&#45;&gt;Node4 -->
<g id="edge36" class="edge"><title>Node12&#45;&gt;Node4</title>
<path fill="none" stroke="midnightblue" d="M290.5,-406.138C292.967,-392.455 296.095,-368.277 292.248,-348 282.161,-294.834 238.253,-283.377 255.248,-232 266.844,-196.945 295.175,-164.062 314.306,-144.733"/>
<polygon fill="midnightblue" stroke="midnightblue" points="316.941,-147.051 321.621,-137.546 312.035,-142.058 316.941,-147.051"/>
</g>
<!-- Node12&#45;&gt;Node5 -->
<g id="edge60" class="edge"><title>Node12&#45;&gt;Node5</title>
<path fill="none" stroke="midnightblue" d="M249.231,-406.353C229.544,-399.109 206.814,-387.573 192.248,-370 171.949,-345.511 173.248,-332.808 173.248,-301 173.248,-301 173.248,-301 173.248,-127 173.248,-80.0464 210.958,-78.4021 253.248,-58 290.961,-39.8055 410.571,-22.5839 468.789,-15.0219"/>
<polygon fill="midnightblue" stroke="midnightblue" points="469.437,-18.4674 478.911,-13.7242 468.547,-11.5243 469.437,-18.4674"/>
</g>
<!-- Node13 -->
<g id="node30" class="node"><title>Node13</title>
<polygon fill="white" stroke="#bfbfbf" points="200.748,-348.5 200.748,-369.5 283.748,-369.5 283.748,-348.5 200.748,-348.5"/>
<text text-anchor="middle" x="242.248" y="-356.5" font-family="Verdana" font-size="10.00">XmlElement.h</text>
</g>
<!-- Node12&#45;&gt;Node13 -->
<g id="edge34" class="edge"><title>Node12&#45;&gt;Node13</title>
<path fill="none" stroke="midnightblue" d="M279.811,-406.362C273.456,-398.35 264.582,-387.161 257.055,-377.67"/>
<polygon fill="midnightblue" stroke="midnightblue" points="259.587,-375.231 250.631,-369.571 254.103,-379.581 259.587,-375.231"/>
</g>
<!-- Node12&#45;&gt;Node14 -->
<g id="edge38" class="edge"><title>Node12&#45;&gt;Node14</title>
<path fill="none" stroke="midnightblue" d="M329.537,-406.497C367.592,-396.816 424.2,-382.416 465.103,-372.01"/>
<polygon fill="midnightblue" stroke="midnightblue" points="466.053,-375.38 474.881,-369.523 464.327,-368.597 466.053,-375.38"/>
</g>
<!-- Node14&#45;&gt;Node5 -->
<g id="edge58" class="edge"><title>Node14&#45;&gt;Node5</title>
<path fill="none" stroke="midnightblue" d="M557.384,-355.287C620.054,-347.12 732.248,-321.533 732.248,-243 732.248,-243 732.248,-243 732.248,-127 732.248,-39.1854 597.282,-17.8421 533.679,-12.6595"/>
<polygon fill="midnightblue" stroke="midnightblue" points="533.624,-9.14642 523.397,-11.9126 533.117,-16.128 533.624,-9.14642"/>
</g>
<!-- Node15 -->
<g id="node35" class="node"><title>Node15</title>
<a xlink:href="InstanceConfigurableElement_8h.html" target="_top" xlink:title="InstanceConfigurableElement.h">
<polygon fill="white" stroke="black" points="452.248,-290.5 452.248,-311.5 618.248,-311.5 618.248,-290.5 452.248,-290.5"/>
<text text-anchor="middle" x="535.248" y="-298.5" font-family="Verdana" font-size="10.00">InstanceConfigurableElement.h</text>
</a>
</g>
<!-- Node14&#45;&gt;Node15 -->
<g id="edge40" class="edge"><title>Node14&#45;&gt;Node15</title>
<path fill="none" stroke="midnightblue" d="M519.733,-348.362C522.223,-340.758 525.651,-330.294 528.652,-321.135"/>
<polygon fill="midnightblue" stroke="midnightblue" points="531.998,-322.163 531.785,-311.571 525.346,-319.984 531.998,-322.163"/>
</g>
<!-- Node15&#45;&gt;Node3 -->
<g id="edge52" class="edge"><title>Node15&#45;&gt;Node3</title>
<path fill="none" stroke="midnightblue" d="M506.288,-290.474C485.151,-282.134 456.288,-269.353 433.248,-254 411.383,-239.431 389.648,-218.546 375.249,-203.576"/>
<polygon fill="midnightblue" stroke="midnightblue" points="377.459,-200.817 368.051,-195.945 372.367,-205.621 377.459,-200.817"/>
</g>
<!-- Node15&#45;&gt;Node5 -->
<g id="edge56" class="edge"><title>Node15&#45;&gt;Node5</title>
<path fill="none" stroke="midnightblue" d="M582.813,-290.468C606.644,-283.311 634.717,-271.819 655.248,-254 681.851,-230.91 694.248,-220.226 694.248,-185 694.248,-185 694.248,-185 694.248,-127 694.248,-52.8127 588.193,-24.8708 533.317,-15.3785"/>
<polygon fill="midnightblue" stroke="midnightblue" points="533.819,-11.9142 523.387,-13.7656 532.697,-18.8236 533.819,-11.9142"/>
</g>
<!-- Node15&#45;&gt;Node8 -->
<g id="edge54" class="edge"><title>Node15&#45;&gt;Node8</title>
<path fill="none" stroke="midnightblue" d="M584.85,-290.481C604.664,-283.585 625.525,-272.309 637.248,-254 674.551,-195.739 603.214,-120.526 565.495,-86.7725"/>
<polygon fill="midnightblue" stroke="midnightblue" points="567.408,-83.7962 557.575,-79.8508 562.801,-89.0669 567.408,-83.7962"/>
</g>
<!-- Node16 -->
<g id="node37" class="node"><title>Node16</title>
<a xlink:href="ConfigurableElementWithMapping_8h.html" target="_top" xlink:title="ConfigurableElementWithMapping.h">
<polygon fill="white" stroke="black" points="442.248,-232.5 442.248,-253.5 628.248,-253.5 628.248,-232.5 442.248,-232.5"/>
<text text-anchor="middle" x="535.248" y="-240.5" font-family="Verdana" font-size="10.00">ConfigurableElementWithMapping.h</text>
</a>
</g>
<!-- Node15&#45;&gt;Node16 -->
<g id="edge42" class="edge"><title>Node15&#45;&gt;Node16</title>
<path fill="none" stroke="midnightblue" d="M535.248,-290.362C535.248,-282.922 535.248,-272.743 535.248,-263.728"/>
<polygon fill="midnightblue" stroke="midnightblue" points="538.748,-263.571 535.248,-253.571 531.748,-263.571 538.748,-263.571"/>
</g>
<!-- Node16&#45;&gt;Node5 -->
<g id="edge50" class="edge"><title>Node16&#45;&gt;Node5</title>
<path fill="none" stroke="midnightblue" d="M545.538,-232.475C553.467,-223.58 563.801,-210.07 568.248,-196 586.729,-137.517 596.545,-112.416 568.248,-58 560.631,-43.3534 546.127,-32.3204 532.556,-24.6378"/>
<polygon fill="midnightblue" stroke="midnightblue" points="533.89,-21.3854 523.407,-19.8512 530.645,-27.5879 533.89,-21.3854"/>
</g>
<!-- Node17 -->
<g id="node39" class="node"><title>Node17</title>
<a xlink:href="ConfigurableElement_8h.html" target="_top" xlink:title="ConfigurableElement.h">
<polygon fill="white" stroke="black" points="434.748,-174.5 434.748,-195.5 559.748,-195.5 559.748,-174.5 434.748,-174.5"/>
<text text-anchor="middle" x="497.248" y="-182.5" font-family="Verdana" font-size="10.00">ConfigurableElement.h</text>
</a>
</g>
<!-- Node16&#45;&gt;Node17 -->
<g id="edge44" class="edge"><title>Node16&#45;&gt;Node17</title>
<path fill="none" stroke="midnightblue" d="M528.278,-232.362C523.082,-224.431 515.847,-213.389 509.67,-203.961"/>
<polygon fill="midnightblue" stroke="midnightblue" points="512.581,-202.017 504.173,-195.571 506.726,-205.853 512.581,-202.017"/>
</g>
<!-- Node17&#45;&gt;Node4 -->
<g id="edge46" class="edge"><title>Node17&#45;&gt;Node4</title>
<path fill="none" stroke="midnightblue" d="M467.548,-174.497C440.928,-165.082 401.686,-151.204 372.487,-140.877"/>
<polygon fill="midnightblue" stroke="midnightblue" points="373.597,-137.558 363.002,-137.523 371.263,-144.157 373.597,-137.558"/>
</g>
<!-- Node17&#45;&gt;Node8 -->
<g id="edge48" class="edge"><title>Node17&#45;&gt;Node8</title>
<path fill="none" stroke="midnightblue" d="M501.585,-174.295C509.42,-154.959 526.046,-113.923 536.073,-89.1767"/>
<polygon fill="midnightblue" stroke="midnightblue" points="539.409,-90.2617 539.921,-79.6792 532.922,-87.633 539.409,-90.2617"/>
</g>
<!-- Node18&#45;&gt;Node3 -->
<g id="edge64" class="edge"><title>Node18&#45;&gt;Node3</title>
<path fill="none" stroke="midnightblue" d="M142.056,-232.497C188.112,-222.378 257.635,-207.104 305.335,-196.625"/>
<polygon fill="midnightblue" stroke="midnightblue" points="306.15,-200.029 315.166,-194.465 304.648,-193.192 306.15,-200.029"/>
</g>
<!-- Node18&#45;&gt;Node5 -->
<g id="edge66" class="edge"><title>Node18&#45;&gt;Node5</title>
<path fill="none" stroke="midnightblue" d="M94.4093,-232.072C95.5304,-199.649 103.609,-103.431 159.248,-58 183.072,-38.5462 388.602,-20.0698 469.102,-13.5125"/>
<polygon fill="midnightblue" stroke="midnightblue" points="469.475,-16.994 479.161,-12.7024 468.913,-10.0166 469.475,-16.994"/>
</g>
<!-- Node19&#45;&gt;Node5 -->
<g id="edge78" class="edge"><title>Node19&#45;&gt;Node5</title>
<path fill="none" stroke="midnightblue" d="M837.739,-116.265C819.103,-100.867 782.356,-72.7437 746.248,-58 673.743,-28.3951 581.429,-17.1634 533.464,-13.1198"/>
<polygon fill="midnightblue" stroke="midnightblue" points="533.615,-9.62086 523.37,-12.3208 533.063,-16.599 533.615,-9.62086"/>
</g>
<!-- Node20 -->
<g id="node56" class="node"><title>Node20</title>
<a xlink:href="XmlElementSerializingContext_8h.html" target="_top" xlink:title="XmlElementSerializingContext.h">
<polygon fill="white" stroke="black" points="798.248,-58.5 798.248,-79.5 968.248,-79.5 968.248,-58.5 798.248,-58.5"/>
<text text-anchor="middle" x="883.248" y="-66.5" font-family="Verdana" font-size="10.00">XmlElementSerializingContext.h</text>
</a>
</g>
<!-- Node19&#45;&gt;Node20 -->
<g id="edge72" class="edge"><title>Node19&#45;&gt;Node20</title>
<path fill="none" stroke="midnightblue" d="M856.3,-116.362C860.72,-108.595 866.837,-97.8426 872.127,-88.5458"/>
<polygon fill="midnightblue" stroke="midnightblue" points="875.33,-89.9932 877.233,-79.5707 869.246,-86.5315 875.33,-89.9932"/>
</g>
<!-- Node20&#45;&gt;Node5 -->
<g id="edge76" class="edge"><title>Node20&#45;&gt;Node5</title>
<path fill="none" stroke="midnightblue" d="M814.07,-58.4966C730.943,-45.8752 594.978,-25.2312 533.377,-15.8783"/>
<polygon fill="midnightblue" stroke="midnightblue" points="533.87,-12.413 523.457,-14.3722 532.819,-19.3337 533.87,-12.413"/>
</g>
<!-- Node21 -->
<g id="node58" class="node"><title>Node21</title>
<polygon fill="white" stroke="#bfbfbf" points="818.248,-0.5 818.248,-21.5 948.248,-21.5 948.248,-0.5 818.248,-0.5"/>
<text text-anchor="middle" x="883.248" y="-8.5" font-family="Verdana" font-size="10.00">XmlSerializingContext.h</text>
</g>
<!-- Node20&#45;&gt;Node21 -->
<g id="edge74" class="edge"><title>Node20&#45;&gt;Node21</title>
<path fill="none" stroke="midnightblue" d="M883.248,-58.3619C883.248,-50.9219 883.248,-40.7427 883.248,-31.7276"/>
<polygon fill="midnightblue" stroke="midnightblue" points="886.748,-31.5706 883.248,-21.5707 879.748,-31.5707 886.748,-31.5706"/>
</g>
</g>
</svg>
