<?xml version="1.0" encoding="UTF-8" standalone="no"?>
<!DOCTYPE svg PUBLIC "-//W3C//DTD SVG 1.1//EN"
 "http://www.w3.org/Graphics/SVG/1.1/DTD/svg11.dtd">
<!-- Generated by graphviz version 2.26.3 (20100126.1600)
 -->
<!-- Title: parameter/ComponentType.cpp Pages: 1 -->
<svg width="1025pt" height="494pt"
 viewBox="0.00 0.00 1025.17 494.00" xmlns="http://www.w3.org/2000/svg" xmlns:xlink="http://www.w3.org/1999/xlink">
<g id="graph1" class="graph" transform="scale(1 1) rotate(0) translate(4 490)">
<title>parameter/ComponentType.cpp</title>
<polygon fill="white" stroke="white" points="-4,5 -4,-490 1022.17,-490 1022.17,5 -4,5"/>
<!-- Node1 -->
<g id="node1" class="node"><title>Node1</title>
<polygon fill="#bfbfbf" stroke="black" points="543.166,-464.5 543.166,-485.5 711.166,-485.5 711.166,-464.5 543.166,-464.5"/>
<text text-anchor="middle" x="627.166" y="-472.5" font-family="Verdana" font-size="10.00">parameter/ComponentType.cpp</text>
</g>
<!-- Node2 -->
<g id="node3" class="node"><title>Node2</title>
<a xlink:href="ComponentType_8h.html" target="_top" xlink:title="ComponentType.h">
<polygon fill="white" stroke="black" points="340.666,-290.5 340.666,-311.5 443.666,-311.5 443.666,-290.5 340.666,-290.5"/>
<text text-anchor="middle" x="392.166" y="-298.5" font-family="Verdana" font-size="10.00">ComponentType.h</text>
</a>
</g>
<!-- Node1&#45;&gt;Node2 -->
<g id="edge2" class="edge"><title>Node1&#45;&gt;Node2</title>
<path fill="none" stroke="midnightblue" d="M571.227,-464.452C529.057,-455.594 475.611,-442.147 458.166,-428 423.92,-400.228 405.439,-349.939 397.322,-321.691"/>
<polygon fill="midnightblue" stroke="midnightblue" points="400.613,-320.451 394.625,-311.711 393.855,-322.278 400.613,-320.451"/>
</g>
<!-- Node3 -->
<g id="node5" class="node"><title>Node3</title>
<a xlink:href="TypeElement_8h.html" target="_top" xlink:title="TypeElement.h">
<polygon fill="white" stroke="black" points="349.166,-232.5 349.166,-253.5 435.166,-253.5 435.166,-232.5 349.166,-232.5"/>
<text text-anchor="middle" x="392.166" y="-240.5" font-family="Verdana" font-size="10.00">TypeElement.h</text>
</a>
</g>
<!-- Node1&#45;&gt;Node3 -->
<g id="edge62" class="edge"><title>Node1&#45;&gt;Node3</title>
<path fill="none" stroke="midnightblue" d="M609.905,-464.38C596.211,-455.531 576.977,-442.131 562.166,-428 505.419,-373.855 507.862,-345.226 452.166,-290 441.085,-279.012 427.479,-268.173 416.027,-259.678"/>
<polygon fill="midnightblue" stroke="midnightblue" points="417.914,-256.722 407.767,-253.675 413.799,-262.385 417.914,-256.722"/>
</g>
<!-- Node12 -->
<g id="node28" class="node"><title>Node12</title>
<a xlink:href="ComponentLibrary_8h.html" target="_top" xlink:title="ComponentLibrary.h">
<polygon fill="white" stroke="black" points="570.666,-406.5 570.666,-427.5 683.666,-427.5 683.666,-406.5 570.666,-406.5"/>
<text text-anchor="middle" x="627.166" y="-414.5" font-family="Verdana" font-size="10.00">ComponentLibrary.h</text>
</a>
</g>
<!-- Node1&#45;&gt;Node12 -->
<g id="edge32" class="edge"><title>Node1&#45;&gt;Node12</title>
<path fill="none" stroke="midnightblue" d="M627.166,-464.362C627.166,-456.922 627.166,-446.743 627.166,-437.728"/>
<polygon fill="midnightblue" stroke="midnightblue" points="630.666,-437.571 627.166,-427.571 623.666,-437.571 630.666,-437.571"/>
</g>
<!-- Node18 -->
<g id="node50" class="node"><title>Node18</title>
<a xlink:href="XmlParameterSerializingContext_8h.html" target="_top" xlink:title="XmlParameterSerializingContext.h">
<polygon fill="white" stroke="black" points="809.166,-116.5 809.166,-137.5 989.166,-137.5 989.166,-116.5 809.166,-116.5"/>
<text text-anchor="middle" x="899.166" y="-124.5" font-family="Verdana" font-size="10.00">XmlParameterSerializingContext.h</text>
</a>
</g>
<!-- Node1&#45;&gt;Node18 -->
<g id="edge64" class="edge"><title>Node1&#45;&gt;Node18</title>
<path fill="none" stroke="midnightblue" d="M688.444,-464.457C744.634,-450.86 819.166,-421.117 819.166,-359 819.166,-359 819.166,-359 819.166,-243 819.166,-202.078 853.324,-165.107 877,-144.396"/>
<polygon fill="midnightblue" stroke="midnightblue" points="879.473,-146.889 884.864,-137.768 874.962,-141.536 879.473,-146.889"/>
</g>
<!-- Node21 -->
<g id="node58" class="node"><title>Node21</title>
<polygon fill="white" stroke="#bfbfbf" points="847.166,-406.5 847.166,-427.5 903.166,-427.5 903.166,-406.5 847.166,-406.5"/>
<text text-anchor="middle" x="875.166" y="-414.5" font-family="Verdana" font-size="10.00">assert.h</text>
</g>
<!-- Node1&#45;&gt;Node21 -->
<g id="edge74" class="edge"><title>Node1&#45;&gt;Node21</title>
<path fill="none" stroke="midnightblue" d="M675.551,-464.417C717.362,-455.163 779.366,-441.179 833.166,-428 834.402,-427.697 835.657,-427.387 836.924,-427.071"/>
<polygon fill="midnightblue" stroke="midnightblue" points="837.901,-430.434 846.731,-424.578 836.177,-423.649 837.901,-430.434"/>
</g>
<!-- Node2&#45;&gt;Node3 -->
<g id="edge4" class="edge"><title>Node2&#45;&gt;Node3</title>
<path fill="none" stroke="midnightblue" d="M392.166,-290.362C392.166,-282.922 392.166,-272.743 392.166,-263.728"/>
<polygon fill="midnightblue" stroke="midnightblue" points="395.666,-263.571 392.166,-253.571 388.666,-263.571 395.666,-263.571"/>
</g>
<!-- Node5 -->
<g id="node9" class="node"><title>Node5</title>
<polygon fill="white" stroke="#bfbfbf" points="562.166,-0.5 562.166,-21.5 606.166,-21.5 606.166,-0.5 562.166,-0.5"/>
<text text-anchor="middle" x="584.166" y="-8.5" font-family="Verdana" font-size="10.00">string</text>
</g>
<!-- Node2&#45;&gt;Node5 -->
<g id="edge30" class="edge"><title>Node2&#45;&gt;Node5</title>
<path fill="none" stroke="midnightblue" d="M374.071,-290.386C361.984,-282.167 347.081,-269.57 340.166,-254 336.198,-245.064 337.898,-241.511 340.166,-232 360.27,-147.703 361.75,-113.669 428.166,-58 463.725,-28.1952 517.762,-17.2889 551.999,-13.2994"/>
<polygon fill="midnightblue" stroke="midnightblue" points="552.36,-16.7808 561.946,-12.27 551.639,-9.81801 552.36,-16.7808"/>
</g>
<!-- Node4 -->
<g id="node7" class="node"><title>Node4</title>
<a xlink:href="Element_8h.html" target="_top" xlink:title="Element.h">
<polygon fill="white" stroke="black" points="264.666,-116.5 264.666,-137.5 329.666,-137.5 329.666,-116.5 264.666,-116.5"/>
<text text-anchor="middle" x="297.166" y="-124.5" font-family="Verdana" font-size="10.00">Element.h</text>
</a>
</g>
<!-- Node3&#45;&gt;Node4 -->
<g id="edge6" class="edge"><title>Node3&#45;&gt;Node4</title>
<path fill="none" stroke="midnightblue" d="M383.399,-232.295C367.21,-212.527 332.447,-170.08 312.353,-145.544"/>
<polygon fill="midnightblue" stroke="midnightblue" points="314.956,-143.198 305.912,-137.679 309.54,-147.633 314.956,-143.198"/>
</g>
<!-- Node3&#45;&gt;Node5 -->
<g id="edge28" class="edge"><title>Node3&#45;&gt;Node5</title>
<path fill="none" stroke="midnightblue" d="M392.28,-232.148C393.203,-200.745 400.171,-108.799 449.166,-58 476.367,-29.7975 521.366,-18.5049 551.863,-13.9915"/>
<polygon fill="midnightblue" stroke="midnightblue" points="552.533,-17.4336 561.992,-12.6612 551.622,-10.4932 552.533,-17.4336"/>
</g>
<!-- Node4&#45;&gt;Node5 -->
<g id="edge8" class="edge"><title>Node4&#45;&gt;Node5</title>
<path fill="none" stroke="midnightblue" d="M305.754,-116.27C318.683,-100.877 344.686,-72.7608 373.166,-58 431.529,-27.7517 508.804,-16.893 551.79,-13.0514"/>
<polygon fill="midnightblue" stroke="midnightblue" points="552.267,-16.5241 561.948,-12.2184 551.695,-9.54755 552.267,-16.5241"/>
</g>
<!-- Node6 -->
<g id="node11" class="node"><title>Node6</title>
<polygon fill="white" stroke="#bfbfbf" points="72.6663,-0.5 72.6663,-21.5 119.666,-21.5 119.666,-0.5 72.6663,-0.5"/>
<text text-anchor="middle" x="96.1663" y="-8.5" font-family="Verdana" font-size="10.00">vector</text>
</g>
<!-- Node4&#45;&gt;Node6 -->
<g id="edge10" class="edge"><title>Node4&#45;&gt;Node6</title>
<path fill="none" stroke="midnightblue" d="M299.91,-116.226C303.015,-101.29 306.002,-74.2977 292.166,-58 271.446,-33.5937 180.208,-20.0649 129.848,-14.3329"/>
<polygon fill="midnightblue" stroke="midnightblue" points="130.084,-10.8379 119.762,-13.227 129.321,-17.7962 130.084,-10.8379"/>
</g>
<!-- Node7 -->
<g id="node13" class="node"><title>Node7</title>
<polygon fill="white" stroke="#bfbfbf" points="-0.333692,-0.5 -0.333692,-21.5 52.6663,-21.5 52.6663,-0.5 -0.333692,-0.5"/>
<text text-anchor="middle" x="26.1663" y="-8.5" font-family="Verdana" font-size="10.00">stdint.h</text>
</g>
<!-- Node4&#45;&gt;Node7 -->
<g id="edge12" class="edge"><title>Node4&#45;&gt;Node7</title>
<path fill="none" stroke="midnightblue" d="M264.41,-124.085C191.878,-117.299 22.796,-99.5311 6.16631,-80 -5.75237,-66.0019 2.68568,-45.247 11.9891,-30.1577"/>
<polygon fill="midnightblue" stroke="midnightblue" points="15.0605,-31.8615 17.7193,-21.6057 9.24523,-27.965 15.0605,-31.8615"/>
</g>
<!-- Node8 -->
<g id="node15" class="node"><title>Node8</title>
<polygon fill="white" stroke="#bfbfbf" points="550.166,-58.5 550.166,-79.5 580.166,-79.5 580.166,-58.5 550.166,-58.5"/>
<text text-anchor="middle" x="565.166" y="-66.5" font-family="Verdana" font-size="10.00">list</text>
</g>
<!-- Node4&#45;&gt;Node8 -->
<g id="edge14" class="edge"><title>Node4&#45;&gt;Node8</title>
<path fill="none" stroke="midnightblue" d="M329.76,-119.946C383.841,-108.242 490.989,-85.0533 539.834,-74.4823"/>
<polygon fill="midnightblue" stroke="midnightblue" points="540.835,-77.8468 549.868,-72.3107 539.354,-71.0052 540.835,-77.8468"/>
</g>
<!-- Node9 -->
<g id="node17" class="node"><title>Node9</title>
<polygon fill="white" stroke="#bfbfbf" points="125.166,-58.5 125.166,-79.5 189.166,-79.5 189.166,-58.5 125.166,-58.5"/>
<text text-anchor="middle" x="157.166" y="-66.5" font-family="Verdana" font-size="10.00">XmlSink.h</text>
</g>
<!-- Node4&#45;&gt;Node9 -->
<g id="edge16" class="edge"><title>Node4&#45;&gt;Node9</title>
<path fill="none" stroke="midnightblue" d="M271.813,-116.497C249.553,-107.275 216.955,-93.7695 192.203,-83.5153"/>
<polygon fill="midnightblue" stroke="midnightblue" points="193.382,-80.2152 182.804,-79.6212 190.703,-86.6822 193.382,-80.2152"/>
</g>
<!-- Node10 -->
<g id="node19" class="node"><title>Node10</title>
<polygon fill="white" stroke="#bfbfbf" points="206.666,-58.5 206.666,-79.5 283.666,-79.5 283.666,-58.5 206.666,-58.5"/>
<text text-anchor="middle" x="245.166" y="-66.5" font-family="Verdana" font-size="10.00">XmlSource.h</text>
</g>
<!-- Node4&#45;&gt;Node10 -->
<g id="edge18" class="edge"><title>Node4&#45;&gt;Node10</title>
<path fill="none" stroke="midnightblue" d="M287.629,-116.362C280.299,-108.186 270.003,-96.7025 261.386,-87.0907"/>
<polygon fill="midnightblue" stroke="midnightblue" points="263.925,-84.68 254.643,-79.5707 258.713,-89.3528 263.925,-84.68"/>
</g>
<!-- Node11 -->
<g id="node21" class="node"><title>Node11</title>
<a xlink:href="PathNavigator_8h.html" target="_top" xlink:title="PathNavigator.h">
<polygon fill="white" stroke="black" points="15.1663,-58.5 15.1663,-79.5 107.166,-79.5 107.166,-58.5 15.1663,-58.5"/>
<text text-anchor="middle" x="61.1663" y="-66.5" font-family="Verdana" font-size="10.00">PathNavigator.h</text>
</a>
</g>
<!-- Node4&#45;&gt;Node11 -->
<g id="edge20" class="edge"><title>Node4&#45;&gt;Node11</title>
<path fill="none" stroke="midnightblue" d="M264.352,-118.935C225.413,-109.366 159.976,-93.2837 113.903,-81.9608"/>
<polygon fill="midnightblue" stroke="midnightblue" points="114.639,-78.5374 104.092,-79.5496 112.968,-85.3352 114.639,-78.5374"/>
</g>
<!-- Node11&#45;&gt;Node5 -->
<g id="edge24" class="edge"><title>Node11&#45;&gt;Node5</title>
<path fill="none" stroke="midnightblue" d="M107.323,-59.43C110.31,-58.9154 113.277,-58.4329 116.166,-58 278.961,-33.6051 475.565,-18.4862 551.788,-13.1612"/>
<polygon fill="midnightblue" stroke="midnightblue" points="552.407,-16.6269 562.142,-12.4466 551.925,-9.64349 552.407,-16.6269"/>
</g>
<!-- Node11&#45;&gt;Node6 -->
<g id="edge22" class="edge"><title>Node11&#45;&gt;Node6</title>
<path fill="none" stroke="midnightblue" d="M67.5858,-58.3619C72.3222,-50.5131 78.8981,-39.6159 84.5483,-30.2527"/>
<polygon fill="midnightblue" stroke="midnightblue" points="87.6174,-31.9409 89.7875,-21.5707 81.6241,-28.3242 87.6174,-31.9409"/>
</g>
<!-- Node11&#45;&gt;Node7 -->
<g id="edge26" class="edge"><title>Node11&#45;&gt;Node7</title>
<path fill="none" stroke="midnightblue" d="M54.7468,-58.3619C50.0104,-50.5131 43.4345,-39.6159 37.7843,-30.2527"/>
<polygon fill="midnightblue" stroke="midnightblue" points="40.7085,-28.3242 32.5452,-21.5707 34.7152,-31.9409 40.7085,-28.3242"/>
</g>
<!-- Node12&#45;&gt;Node4 -->
<g id="edge36" class="edge"><title>Node12&#45;&gt;Node4</title>
<path fill="none" stroke="midnightblue" d="M570.362,-409.784C472.656,-395.771 283.166,-360.875 283.166,-301 283.166,-301 283.166,-301 283.166,-243 283.166,-209.355 289.043,-170.615 293.181,-147.504"/>
<polygon fill="midnightblue" stroke="midnightblue" points="296.653,-147.976 295.04,-137.505 289.771,-146.697 296.653,-147.976"/>
</g>
<!-- Node12&#45;&gt;Node5 -->
<g id="edge60" class="edge"><title>Node12&#45;&gt;Node5</title>
<path fill="none" stroke="midnightblue" d="M665.63,-406.456C711.243,-391.335 781.166,-358.74 781.166,-301 781.166,-301 781.166,-301 781.166,-127 781.166,-51.4937 672.377,-24.1495 616.486,-15.0836"/>
<polygon fill="midnightblue" stroke="midnightblue" points="616.794,-11.5903 606.382,-13.5505 615.744,-18.5111 616.794,-11.5903"/>
</g>
<!-- Node13 -->
<g id="node30" class="node"><title>Node13</title>
<polygon fill="white" stroke="#bfbfbf" points="535.666,-348.5 535.666,-369.5 618.666,-369.5 618.666,-348.5 535.666,-348.5"/>
<text text-anchor="middle" x="577.166" y="-356.5" font-family="Verdana" font-size="10.00">XmlElement.h</text>
</g>
<!-- Node12&#45;&gt;Node13 -->
<g id="edge34" class="edge"><title>Node12&#45;&gt;Node13</title>
<path fill="none" stroke="midnightblue" d="M617.996,-406.362C611.018,-398.268 601.245,-386.932 593.011,-377.38"/>
<polygon fill="midnightblue" stroke="midnightblue" points="595.459,-374.859 586.279,-369.571 590.157,-379.43 595.459,-374.859"/>
</g>
<!-- Node14 -->
<g id="node33" class="node"><title>Node14</title>
<a xlink:href="Component_8h.html" target="_top" xlink:title="Component.h">
<polygon fill="white" stroke="black" points="636.166,-348.5 636.166,-369.5 718.166,-369.5 718.166,-348.5 636.166,-348.5"/>
<text text-anchor="middle" x="677.166" y="-356.5" font-family="Verdana" font-size="10.00">Component.h</text>
</a>
</g>
<!-- Node12&#45;&gt;Node14 -->
<g id="edge38" class="edge"><title>Node12&#45;&gt;Node14</title>
<path fill="none" stroke="midnightblue" d="M636.337,-406.362C643.315,-398.268 653.087,-386.932 661.322,-377.38"/>
<polygon fill="midnightblue" stroke="midnightblue" points="664.175,-379.43 668.054,-369.571 658.873,-374.859 664.175,-379.43"/>
</g>
<!-- Node14&#45;&gt;Node5 -->
<g id="edge58" class="edge"><title>Node14&#45;&gt;Node5</title>
<path fill="none" stroke="midnightblue" d="M688.362,-348.321C707.192,-329.149 743.166,-286.792 743.166,-243 743.166,-243 743.166,-243 743.166,-127 743.166,-64.7365 662.609,-32.3392 616.175,-18.8367"/>
<polygon fill="midnightblue" stroke="midnightblue" points="616.846,-15.3908 606.275,-16.0926 614.976,-22.1365 616.846,-15.3908"/>
</g>
<!-- Node15 -->
<g id="node35" class="node"><title>Node15</title>
<a xlink:href="InstanceConfigurableElement_8h.html" target="_top" xlink:title="InstanceConfigurableElement.h">
<polygon fill="white" stroke="black" points="501.166,-290.5 501.166,-311.5 667.166,-311.5 667.166,-290.5 501.166,-290.5"/>
<text text-anchor="middle" x="584.166" y="-298.5" font-family="Verdana" font-size="10.00">InstanceConfigurableElement.h</text>
</a>
</g>
<!-- Node14&#45;&gt;Node15 -->
<g id="edge40" class="edge"><title>Node14&#45;&gt;Node15</title>
<path fill="none" stroke="midnightblue" d="M660.109,-348.362C646.081,-339.614 625.982,-327.079 609.984,-317.101"/>
<polygon fill="midnightblue" stroke="midnightblue" points="611.453,-313.893 601.116,-311.571 607.749,-319.832 611.453,-313.893"/>
</g>
<!-- Node15&#45;&gt;Node3 -->
<g id="edge52" class="edge"><title>Node15&#45;&gt;Node3</title>
<path fill="none" stroke="midnightblue" d="M549.397,-290.497C517.824,-280.959 471.088,-266.841 436.773,-256.475"/>
<polygon fill="midnightblue" stroke="midnightblue" points="437.586,-253.064 427.001,-253.523 435.562,-259.765 437.586,-253.064"/>
</g>
<!-- Node15&#45;&gt;Node5 -->
<g id="edge56" class="edge"><title>Node15&#45;&gt;Node5</title>
<path fill="none" stroke="midnightblue" d="M541.468,-290.491C520.862,-283.374 497.371,-271.911 482.166,-254 461.581,-229.751 463.166,-216.808 463.166,-185 463.166,-185 463.166,-185 463.166,-127 463.166,-77.3124 516.992,-42.303 552.844,-24.4952"/>
<polygon fill="midnightblue" stroke="midnightblue" points="554.458,-27.603 561.973,-20.1351 551.441,-21.2864 554.458,-27.603"/>
</g>
<!-- Node15&#45;&gt;Node8 -->
<g id="edge54" class="edge"><title>Node15&#45;&gt;Node8</title>
<path fill="none" stroke="midnightblue" d="M633.768,-290.481C653.583,-283.585 674.444,-272.309 686.166,-254 691.439,-245.765 689.235,-241.284 686.166,-232 666.044,-171.133 613.428,-114.469 584.654,-86.7656"/>
<polygon fill="midnightblue" stroke="midnightblue" points="586.89,-84.0632 577.217,-79.7403 582.083,-89.1517 586.89,-84.0632"/>
</g>
<!-- Node16 -->
<g id="node37" class="node"><title>Node16</title>
<a xlink:href="ConfigurableElementWithMapping_8h.html" target="_top" xlink:title="ConfigurableElementWithMapping.h">
<polygon fill="white" stroke="black" points="491.166,-232.5 491.166,-253.5 677.166,-253.5 677.166,-232.5 491.166,-232.5"/>
<text text-anchor="middle" x="584.166" y="-240.5" font-family="Verdana" font-size="10.00">ConfigurableElementWithMapping.h</text>
</a>
</g>
<!-- Node15&#45;&gt;Node16 -->
<g id="edge42" class="edge"><title>Node15&#45;&gt;Node16</title>
<path fill="none" stroke="midnightblue" d="M584.166,-290.362C584.166,-282.922 584.166,-272.743 584.166,-263.728"/>
<polygon fill="midnightblue" stroke="midnightblue" points="587.666,-263.571 584.166,-253.571 580.666,-263.571 587.666,-263.571"/>
</g>
<!-- Node16&#45;&gt;Node5 -->
<g id="edge50" class="edge"><title>Node16&#45;&gt;Node5</title>
<path fill="none" stroke="midnightblue" d="M602.262,-232.386C614.348,-224.167 629.252,-211.57 636.166,-196 661.787,-138.307 621.129,-64.8354 598.17,-30.4254"/>
<polygon fill="midnightblue" stroke="midnightblue" points="600.786,-28.054 592.233,-21.8015 595.02,-32.0231 600.786,-28.054"/>
</g>
<!-- Node17 -->
<g id="node39" class="node"><title>Node17</title>
<a xlink:href="ConfigurableElement_8h.html" target="_top" xlink:title="ConfigurableElement.h">
<polygon fill="white" stroke="black" points="502.666,-174.5 502.666,-195.5 627.666,-195.5 627.666,-174.5 502.666,-174.5"/>
<text text-anchor="middle" x="565.166" y="-182.5" font-family="Verdana" font-size="10.00">ConfigurableElement.h</text>
</a>
</g>
<!-- Node16&#45;&gt;Node17 -->
<g id="edge44" class="edge"><title>Node16&#45;&gt;Node17</title>
<path fill="none" stroke="midnightblue" d="M580.681,-232.362C578.191,-224.758 574.763,-214.294 571.762,-205.135"/>
<polygon fill="midnightblue" stroke="midnightblue" points="575.068,-203.984 568.629,-195.571 568.416,-206.163 575.068,-203.984"/>
</g>
<!-- Node17&#45;&gt;Node4 -->
<g id="edge46" class="edge"><title>Node17&#45;&gt;Node4</title>
<path fill="none" stroke="midnightblue" d="M516.634,-174.497C466.078,-163.555 387.666,-146.586 339.531,-136.169"/>
<polygon fill="midnightblue" stroke="midnightblue" points="340.255,-132.744 329.741,-134.05 338.774,-139.586 340.255,-132.744"/>
</g>
<!-- Node17&#45;&gt;Node8 -->
<g id="edge48" class="edge"><title>Node17&#45;&gt;Node8</title>
<path fill="none" stroke="midnightblue" d="M565.166,-174.295C565.166,-155.131 565.166,-114.654 565.166,-89.8434"/>
<polygon fill="midnightblue" stroke="midnightblue" points="568.666,-89.6792 565.166,-79.6792 561.666,-89.6792 568.666,-89.6792"/>
</g>
<!-- Node18&#45;&gt;Node5 -->
<g id="edge72" class="edge"><title>Node18&#45;&gt;Node5</title>
<path fill="none" stroke="midnightblue" d="M886.599,-116.406C867.89,-101.183 831.052,-73.2772 795.166,-58 734.842,-32.3193 658.592,-19.8011 616.242,-14.44"/>
<polygon fill="midnightblue" stroke="midnightblue" points="616.585,-10.9559 606.236,-13.2275 615.743,-17.9051 616.585,-10.9559"/>
</g>
<!-- Node19 -->
<g id="node52" class="node"><title>Node19</title>
<a xlink:href="XmlElementSerializingContext_8h.html" target="_top" xlink:title="XmlElementSerializingContext.h">
<polygon fill="white" stroke="black" points="847.166,-58.5 847.166,-79.5 1017.17,-79.5 1017.17,-58.5 847.166,-58.5"/>
<text text-anchor="middle" x="932.166" y="-66.5" font-family="Verdana" font-size="10.00">XmlElementSerializingContext.h</text>
</a>
</g>
<!-- Node18&#45;&gt;Node19 -->
<g id="edge66" class="edge"><title>Node18&#45;&gt;Node19</title>
<path fill="none" stroke="midnightblue" d="M905.219,-116.362C909.638,-108.595 915.756,-97.8426 921.045,-88.5458"/>
<polygon fill="midnightblue" stroke="midnightblue" points="924.249,-89.9932 926.152,-79.5707 918.165,-86.5315 924.249,-89.9932"/>
</g>
<!-- Node19&#45;&gt;Node5 -->
<g id="edge70" class="edge"><title>Node19&#45;&gt;Node5</title>
<path fill="none" stroke="midnightblue" d="M869.146,-58.4966C794.652,-46.081 673.581,-25.9024 616.235,-16.3448"/>
<polygon fill="midnightblue" stroke="midnightblue" points="616.734,-12.8797 606.294,-14.688 615.583,-19.7845 616.734,-12.8797"/>
</g>
<!-- Node20 -->
<g id="node54" class="node"><title>Node20</title>
<polygon fill="white" stroke="#bfbfbf" points="867.166,-0.5 867.166,-21.5 997.166,-21.5 997.166,-0.5 867.166,-0.5"/>
<text text-anchor="middle" x="932.166" y="-8.5" font-family="Verdana" font-size="10.00">XmlSerializingContext.h</text>
</g>
<!-- Node19&#45;&gt;Node20 -->
<g id="edge68" class="edge"><title>Node19&#45;&gt;Node20</title>
<path fill="none" stroke="midnightblue" d="M932.166,-58.3619C932.166,-50.9219 932.166,-40.7427 932.166,-31.7276"/>
<polygon fill="midnightblue" stroke="midnightblue" points="935.666,-31.5706 932.166,-21.5707 928.666,-31.5707 935.666,-31.5706"/>
</g>
</g>
</svg>
