<?xml version="1.0" encoding="UTF-8" standalone="no"?>
<!DOCTYPE svg PUBLIC "-//W3C//DTD SVG 1.1//EN"
 "http://www.w3.org/Graphics/SVG/1.1/DTD/svg11.dtd">
<!-- Generated by graphviz version 2.26.3 (20100126.1600)
 -->
<!-- Title: parameter/ComponentLibrary.cpp Pages: 1 -->
<svg width="784pt" height="494pt"
 viewBox="0.00 0.00 784.00 494.00" xmlns="http://www.w3.org/2000/svg" xmlns:xlink="http://www.w3.org/1999/xlink">
<g id="graph1" class="graph" transform="scale(1 1) rotate(0) translate(4 490)">
<title>parameter/ComponentLibrary.cpp</title>
<polygon fill="white" stroke="white" points="-4,5 -4,-490 781,-490 781,5 -4,5"/>
<!-- Node1 -->
<g id="node1" class="node"><title>Node1</title>
<polygon fill="#bfbfbf" stroke="black" points="598,-464.5 598,-485.5 776,-485.5 776,-464.5 598,-464.5"/>
<text text-anchor="middle" x="687" y="-472.5" font-family="Verdana" font-size="10.00">parameter/ComponentLibrary.cpp</text>
</g>
<!-- Node2 -->
<g id="node3" class="node"><title>Node2</title>
<a xlink:href="ComponentLibrary_8h.html" target="_top" xlink:title="ComponentLibrary.h">
<polygon fill="white" stroke="black" points="280.5,-406.5 280.5,-427.5 393.5,-427.5 393.5,-406.5 280.5,-406.5"/>
<text text-anchor="middle" x="337" y="-414.5" font-family="Verdana" font-size="10.00">ComponentLibrary.h</text>
</a>
</g>
<!-- Node1&#45;&gt;Node2 -->
<g id="edge2" class="edge"><title>Node1&#45;&gt;Node2</title>
<path fill="none" stroke="midnightblue" d="M623.618,-464.497C561.35,-454.178 466.725,-438.497 403.428,-428.008"/>
<polygon fill="midnightblue" stroke="midnightblue" points="403.986,-424.553 393.548,-426.371 402.841,-431.459 403.986,-424.553"/>
</g>
<!-- Node17 -->
<g id="node45" class="node"><title>Node17</title>
<a xlink:href="ComponentType_8h.html" target="_top" xlink:title="ComponentType.h">
<polygon fill="white" stroke="black" points="656.5,-232.5 656.5,-253.5 759.5,-253.5 759.5,-232.5 656.5,-232.5"/>
<text text-anchor="middle" x="708" y="-240.5" font-family="Verdana" font-size="10.00">ComponentType.h</text>
</a>
</g>
<!-- Node1&#45;&gt;Node17 -->
<g id="edge56" class="edge"><title>Node1&#45;&gt;Node17</title>
<path fill="none" stroke="midnightblue" d="M687.957,-464.429C691.196,-428.648 701.785,-311.663 706.122,-263.748"/>
<polygon fill="midnightblue" stroke="midnightblue" points="709.622,-263.908 707.037,-253.634 702.65,-263.277 709.622,-263.908"/>
</g>
<!-- Node18 -->
<g id="node49" class="node"><title>Node18</title>
<polygon fill="white" stroke="#bfbfbf" points="715,-406.5 715,-427.5 771,-427.5 771,-406.5 715,-406.5"/>
<text text-anchor="middle" x="743" y="-414.5" font-family="Verdana" font-size="10.00">assert.h</text>
</g>
<!-- Node1&#45;&gt;Node18 -->
<g id="edge62" class="edge"><title>Node1&#45;&gt;Node18</title>
<path fill="none" stroke="midnightblue" d="M697.271,-464.362C705.244,-456.104 716.475,-444.472 725.811,-434.803"/>
<polygon fill="midnightblue" stroke="midnightblue" points="728.366,-437.196 732.794,-427.571 723.33,-432.334 728.366,-437.196"/>
</g>
<!-- Node3 -->
<g id="node5" class="node"><title>Node3</title>
<polygon fill="white" stroke="#bfbfbf" points="295.5,-348.5 295.5,-369.5 378.5,-369.5 378.5,-348.5 295.5,-348.5"/>
<text text-anchor="middle" x="337" y="-356.5" font-family="Verdana" font-size="10.00">XmlElement.h</text>
</g>
<!-- Node2&#45;&gt;Node3 -->
<g id="edge4" class="edge"><title>Node2&#45;&gt;Node3</title>
<path fill="none" stroke="midnightblue" d="M337,-406.362C337,-398.922 337,-388.743 337,-379.728"/>
<polygon fill="midnightblue" stroke="midnightblue" points="340.5,-379.571 337,-369.571 333.5,-379.571 340.5,-379.571"/>
</g>
<!-- Node4 -->
<g id="node7" class="node"><title>Node4</title>
<a xlink:href="Element_8h.html" target="_top" xlink:title="Element.h">
<polygon fill="white" stroke="black" points="191.5,-116.5 191.5,-137.5 256.5,-137.5 256.5,-116.5 191.5,-116.5"/>
<text text-anchor="middle" x="224" y="-124.5" font-family="Verdana" font-size="10.00">Element.h</text>
</a>
</g>
<!-- Node2&#45;&gt;Node4 -->
<g id="edge6" class="edge"><title>Node2&#45;&gt;Node4</title>
<path fill="none" stroke="midnightblue" d="M282.911,-406.443C259.965,-399.512 234.53,-388.219 217,-370 194.488,-346.603 193,-333.469 193,-301 193,-301 193,-301 193,-243 193,-208.292 206.113,-169.663 215.282,-146.894"/>
<polygon fill="midnightblue" stroke="midnightblue" points="218.531,-148.197 219.156,-137.621 212.072,-145.499 218.531,-148.197"/>
</g>
<!-- Node5 -->
<g id="node9" class="node"><title>Node5</title>
<polygon fill="white" stroke="#bfbfbf" points="473,-0.5 473,-21.5 517,-21.5 517,-0.5 473,-0.5"/>
<text text-anchor="middle" x="495" y="-8.5" font-family="Verdana" font-size="10.00">string</text>
</g>
<!-- Node2&#45;&gt;Node5 -->
<g id="edge54" class="edge"><title>Node2&#45;&gt;Node5</title>
<path fill="none" stroke="midnightblue" d="M316.31,-406.404C285.463,-388.955 231,-351.06 231,-301 231,-301 231,-301 231,-243 231,-129.819 310.265,-118.372 406,-58 424.581,-46.2823 446.377,-34.7385 463.748,-26.0238"/>
<polygon fill="midnightblue" stroke="midnightblue" points="465.489,-29.0671 472.895,-21.4903 462.381,-22.7952 465.489,-29.0671"/>
</g>
<!-- Node12 -->
<g id="node26" class="node"><title>Node12</title>
<a xlink:href="Component_8h.html" target="_top" xlink:title="Component.h">
<polygon fill="white" stroke="black" points="455,-348.5 455,-369.5 537,-369.5 537,-348.5 455,-348.5"/>
<text text-anchor="middle" x="496" y="-356.5" font-family="Verdana" font-size="10.00">Component.h</text>
</a>
</g>
<!-- Node2&#45;&gt;Node12 -->
<g id="edge28" class="edge"><title>Node2&#45;&gt;Node12</title>
<path fill="none" stroke="midnightblue" d="M365.794,-406.497C391.491,-397.123 429.318,-383.324 457.587,-373.012"/>
<polygon fill="midnightblue" stroke="midnightblue" points="458.957,-376.238 467.152,-369.523 456.558,-369.662 458.957,-376.238"/>
</g>
<!-- Node4&#45;&gt;Node5 -->
<g id="edge8" class="edge"><title>Node4&#45;&gt;Node5</title>
<path fill="none" stroke="midnightblue" d="M249.022,-116.371C270.615,-107.088 302.565,-93.0883 330,-80 349.375,-70.7568 353.401,-66.7596 373,-58 403.051,-44.5685 438.206,-31.272 463.038,-22.2678"/>
<polygon fill="midnightblue" stroke="midnightblue" points="464.449,-25.4798 472.674,-18.8013 462.079,-18.8931 464.449,-25.4798"/>
</g>
<!-- Node6 -->
<g id="node11" class="node"><title>Node6</title>
<polygon fill="white" stroke="#bfbfbf" points="72.5,-0.5 72.5,-21.5 119.5,-21.5 119.5,-0.5 72.5,-0.5"/>
<text text-anchor="middle" x="96" y="-8.5" font-family="Verdana" font-size="10.00">vector</text>
</g>
<!-- Node4&#45;&gt;Node6 -->
<g id="edge10" class="edge"><title>Node4&#45;&gt;Node6</title>
<path fill="none" stroke="midnightblue" d="M205.143,-116.332C190.435,-107.556 169.903,-94.2766 154,-80 137.027,-64.7634 120.58,-44.5104 109.563,-29.8919"/>
<polygon fill="midnightblue" stroke="midnightblue" points="112.204,-27.5774 103.448,-21.6131 106.574,-31.7363 112.204,-27.5774"/>
</g>
<!-- Node7 -->
<g id="node13" class="node"><title>Node7</title>
<polygon fill="white" stroke="#bfbfbf" points="-0.5,-0.5 -0.5,-21.5 52.5,-21.5 52.5,-0.5 -0.5,-0.5"/>
<text text-anchor="middle" x="26" y="-8.5" font-family="Verdana" font-size="10.00">stdint.h</text>
</g>
<!-- Node4&#45;&gt;Node7 -->
<g id="edge12" class="edge"><title>Node4&#45;&gt;Node7</title>
<path fill="none" stroke="midnightblue" d="M191.305,-124.842C136.283,-120.455 28.9231,-108.392 6,-80 -5.54919,-65.6955 2.83284,-44.9871 12.0222,-29.9923"/>
<polygon fill="midnightblue" stroke="midnightblue" points="15.0464,-31.7656 17.6773,-21.5026 9.22053,-27.885 15.0464,-31.7656"/>
</g>
<!-- Node8 -->
<g id="node15" class="node"><title>Node8</title>
<polygon fill="white" stroke="#bfbfbf" points="415,-58.5 415,-79.5 445,-79.5 445,-58.5 415,-58.5"/>
<text text-anchor="middle" x="430" y="-66.5" font-family="Verdana" font-size="10.00">list</text>
</g>
<!-- Node4&#45;&gt;Node8 -->
<g id="edge14" class="edge"><title>Node4&#45;&gt;Node8</title>
<path fill="none" stroke="midnightblue" d="M256.641,-117.81C297.738,-106.239 367.459,-86.6086 404.73,-76.1149"/>
<polygon fill="midnightblue" stroke="midnightblue" points="406.082,-79.3703 414.76,-73.291 404.185,-72.6322 406.082,-79.3703"/>
</g>
<!-- Node9 -->
<g id="node17" class="node"><title>Node9</title>
<polygon fill="white" stroke="#bfbfbf" points="163,-58.5 163,-79.5 227,-79.5 227,-58.5 163,-58.5"/>
<text text-anchor="middle" x="195" y="-66.5" font-family="Verdana" font-size="10.00">XmlSink.h</text>
</g>
<!-- Node4&#45;&gt;Node9 -->
<g id="edge16" class="edge"><title>Node4&#45;&gt;Node9</title>
<path fill="none" stroke="midnightblue" d="M218.681,-116.362C214.797,-108.595 209.421,-97.8426 204.773,-88.5458"/>
<polygon fill="midnightblue" stroke="midnightblue" points="207.888,-86.9497 200.285,-79.5707 201.627,-90.0802 207.888,-86.9497"/>
</g>
<!-- Node10 -->
<g id="node19" class="node"><title>Node10</title>
<polygon fill="white" stroke="#bfbfbf" points="244.5,-58.5 244.5,-79.5 321.5,-79.5 321.5,-58.5 244.5,-58.5"/>
<text text-anchor="middle" x="283" y="-66.5" font-family="Verdana" font-size="10.00">XmlSource.h</text>
</g>
<!-- Node4&#45;&gt;Node10 -->
<g id="edge18" class="edge"><title>Node4&#45;&gt;Node10</title>
<path fill="none" stroke="midnightblue" d="M234.822,-116.362C243.221,-108.104 255.054,-96.4725 264.89,-86.8029"/>
<polygon fill="midnightblue" stroke="midnightblue" points="267.569,-89.077 272.247,-79.5707 262.662,-84.0851 267.569,-89.077"/>
</g>
<!-- Node11 -->
<g id="node21" class="node"><title>Node11</title>
<a xlink:href="PathNavigator_8h.html" target="_top" xlink:title="PathNavigator.h">
<polygon fill="white" stroke="black" points="15,-58.5 15,-79.5 107,-79.5 107,-58.5 15,-58.5"/>
<text text-anchor="middle" x="61" y="-66.5" font-family="Verdana" font-size="10.00">PathNavigator.h</text>
</a>
</g>
<!-- Node4&#45;&gt;Node11 -->
<g id="edge20" class="edge"><title>Node4&#45;&gt;Node11</title>
<path fill="none" stroke="midnightblue" d="M194.482,-116.497C168.024,-107.082 129.021,-93.2036 100,-82.8773"/>
<polygon fill="midnightblue" stroke="midnightblue" points="101.168,-79.578 90.5734,-79.5231 98.8214,-86.173 101.168,-79.578"/>
</g>
<!-- Node11&#45;&gt;Node5 -->
<g id="edge24" class="edge"><title>Node11&#45;&gt;Node5</title>
<path fill="none" stroke="midnightblue" d="M107.035,-62.8479C195.377,-51.0418 386.671,-25.4771 462.799,-15.3033"/>
<polygon fill="midnightblue" stroke="midnightblue" points="463.306,-18.7668 472.754,-13.9729 462.379,-11.8285 463.306,-18.7668"/>
</g>
<!-- Node11&#45;&gt;Node6 -->
<g id="edge22" class="edge"><title>Node11&#45;&gt;Node6</title>
<path fill="none" stroke="midnightblue" d="M67.4195,-58.3619C72.1559,-50.5131 78.7318,-39.6159 84.382,-30.2527"/>
<polygon fill="midnightblue" stroke="midnightblue" points="87.4511,-31.9409 89.6212,-21.5707 81.4578,-28.3242 87.4511,-31.9409"/>
</g>
<!-- Node11&#45;&gt;Node7 -->
<g id="edge26" class="edge"><title>Node11&#45;&gt;Node7</title>
<path fill="none" stroke="midnightblue" d="M54.5805,-58.3619C49.8441,-50.5131 43.2682,-39.6159 37.618,-30.2527"/>
<polygon fill="midnightblue" stroke="midnightblue" points="40.5422,-28.3242 32.3788,-21.5707 34.5489,-31.9409 40.5422,-28.3242"/>
</g>
<!-- Node12&#45;&gt;Node5 -->
<g id="edge52" class="edge"><title>Node12&#45;&gt;Node5</title>
<path fill="none" stroke="midnightblue" d="M525.517,-348.445C564.7,-332.315 629,-297.537 629,-243 629,-243 629,-243 629,-127 629,-73.1047 566.27,-38.6565 526.65,-22.2741"/>
<polygon fill="midnightblue" stroke="midnightblue" points="527.713,-18.9306 517.127,-18.4975 525.133,-25.4376 527.713,-18.9306"/>
</g>
<!-- Node13 -->
<g id="node28" class="node"><title>Node13</title>
<a xlink:href="InstanceConfigurableElement_8h.html" target="_top" xlink:title="InstanceConfigurableElement.h">
<polygon fill="white" stroke="black" points="413,-290.5 413,-311.5 579,-311.5 579,-290.5 413,-290.5"/>
<text text-anchor="middle" x="496" y="-298.5" font-family="Verdana" font-size="10.00">InstanceConfigurableElement.h</text>
</a>
</g>
<!-- Node12&#45;&gt;Node13 -->
<g id="edge30" class="edge"><title>Node12&#45;&gt;Node13</title>
<path fill="none" stroke="midnightblue" d="M496,-348.362C496,-340.922 496,-330.743 496,-321.728"/>
<polygon fill="midnightblue" stroke="midnightblue" points="499.5,-321.571 496,-311.571 492.5,-321.571 499.5,-321.571"/>
</g>
<!-- Node13&#45;&gt;Node5 -->
<g id="edge50" class="edge"><title>Node13&#45;&gt;Node5</title>
<path fill="none" stroke="midnightblue" d="M513.869,-290.294C541.388,-272.291 591,-233.157 591,-185 591,-185 591,-185 591,-127 591,-83.173 549.825,-46.9984 521.407,-27.2506"/>
<polygon fill="midnightblue" stroke="midnightblue" points="523.313,-24.3149 513.057,-21.659 519.419,-30.1313 523.313,-24.3149"/>
</g>
<!-- Node13&#45;&gt;Node8 -->
<g id="edge48" class="edge"><title>Node13&#45;&gt;Node8</title>
<path fill="none" stroke="midnightblue" d="M492.993,-290.429C482.792,-254.573 449.393,-137.169 435.816,-89.4458"/>
<polygon fill="midnightblue" stroke="midnightblue" points="439.128,-88.2942 433.025,-79.6335 432.395,-90.2096 439.128,-88.2942"/>
</g>
<!-- Node14 -->
<g id="node30" class="node"><title>Node14</title>
<a xlink:href="ConfigurableElementWithMapping_8h.html" target="_top" xlink:title="ConfigurableElementWithMapping.h">
<polygon fill="white" stroke="black" points="259,-232.5 259,-253.5 445,-253.5 445,-232.5 259,-232.5"/>
<text text-anchor="middle" x="352" y="-240.5" font-family="Verdana" font-size="10.00">ConfigurableElementWithMapping.h</text>
</a>
</g>
<!-- Node13&#45;&gt;Node14 -->
<g id="edge32" class="edge"><title>Node13&#45;&gt;Node14</title>
<path fill="none" stroke="midnightblue" d="M469.923,-290.497C446.925,-281.234 413.2,-267.65 387.7,-257.379"/>
<polygon fill="midnightblue" stroke="midnightblue" points="388.953,-254.111 378.37,-253.621 386.338,-260.604 388.953,-254.111"/>
</g>
<!-- Node16 -->
<g id="node37" class="node"><title>Node16</title>
<a xlink:href="TypeElement_8h.html" target="_top" xlink:title="TypeElement.h">
<polygon fill="white" stroke="black" points="477,-174.5 477,-195.5 563,-195.5 563,-174.5 477,-174.5"/>
<text text-anchor="middle" x="520" y="-182.5" font-family="Verdana" font-size="10.00">TypeElement.h</text>
</a>
</g>
<!-- Node13&#45;&gt;Node16 -->
<g id="edge42" class="edge"><title>Node13&#45;&gt;Node16</title>
<path fill="none" stroke="midnightblue" d="M498.215,-290.295C502.198,-271.045 510.63,-230.289 515.757,-205.509"/>
<polygon fill="midnightblue" stroke="midnightblue" points="519.192,-206.181 517.791,-195.679 512.337,-204.763 519.192,-206.181"/>
</g>
<!-- Node14&#45;&gt;Node5 -->
<g id="edge40" class="edge"><title>Node14&#45;&gt;Node5</title>
<path fill="none" stroke="midnightblue" d="M362.182,-232.291C370.68,-223.072 382.838,-209.205 392,-196 431.48,-139.097 468.636,-65.75 485.506,-30.9824"/>
<polygon fill="midnightblue" stroke="midnightblue" points="488.71,-32.3958 489.891,-21.8671 482.402,-29.361 488.71,-32.3958"/>
</g>
<!-- Node15 -->
<g id="node32" class="node"><title>Node15</title>
<a xlink:href="ConfigurableElement_8h.html" target="_top" xlink:title="ConfigurableElement.h">
<polygon fill="white" stroke="black" points="258.5,-174.5 258.5,-195.5 383.5,-195.5 383.5,-174.5 258.5,-174.5"/>
<text text-anchor="middle" x="321" y="-182.5" font-family="Verdana" font-size="10.00">ConfigurableElement.h</text>
</a>
</g>
<!-- Node14&#45;&gt;Node15 -->
<g id="edge34" class="edge"><title>Node14&#45;&gt;Node15</title>
<path fill="none" stroke="midnightblue" d="M346.314,-232.362C342.163,-224.595 336.416,-213.843 331.447,-204.546"/>
<polygon fill="midnightblue" stroke="midnightblue" points="334.45,-202.74 326.65,-195.571 328.277,-206.04 334.45,-202.74"/>
</g>
<!-- Node15&#45;&gt;Node4 -->
<g id="edge36" class="edge"><title>Node15&#45;&gt;Node4</title>
<path fill="none" stroke="midnightblue" d="M303.209,-174.362C288.441,-165.532 267.222,-152.844 250.462,-142.822"/>
<polygon fill="midnightblue" stroke="midnightblue" points="252.057,-139.699 241.679,-137.571 248.465,-145.707 252.057,-139.699"/>
</g>
<!-- Node15&#45;&gt;Node8 -->
<g id="edge38" class="edge"><title>Node15&#45;&gt;Node8</title>
<path fill="none" stroke="midnightblue" d="M331.059,-174.295C349.715,-154.441 389.868,-111.709 412.876,-87.2239"/>
<polygon fill="midnightblue" stroke="midnightblue" points="415.668,-89.3635 419.965,-79.6792 410.567,-84.57 415.668,-89.3635"/>
</g>
<!-- Node16&#45;&gt;Node4 -->
<g id="edge44" class="edge"><title>Node16&#45;&gt;Node4</title>
<path fill="none" stroke="midnightblue" d="M476.959,-176.566C420.656,-165.534 322.599,-146.32 266.543,-135.336"/>
<polygon fill="midnightblue" stroke="midnightblue" points="267.071,-131.873 256.585,-133.385 265.725,-138.743 267.071,-131.873"/>
</g>
<!-- Node16&#45;&gt;Node5 -->
<g id="edge46" class="edge"><title>Node16&#45;&gt;Node5</title>
<path fill="none" stroke="midnightblue" d="M518.474,-174.377C514.439,-146.293 503.43,-69.6735 498.046,-32.2027"/>
<polygon fill="midnightblue" stroke="midnightblue" points="501.457,-31.3283 496.57,-21.9277 494.528,-32.3239 501.457,-31.3283"/>
</g>
<!-- Node17&#45;&gt;Node5 -->
<g id="edge60" class="edge"><title>Node17&#45;&gt;Node5</title>
<path fill="none" stroke="midnightblue" d="M707.46,-232.497C705.283,-201.26 694.557,-108.014 643,-58 626.418,-41.9144 565.705,-26.3013 527.382,-17.7375"/>
<polygon fill="midnightblue" stroke="midnightblue" points="527.739,-14.233 517.222,-15.5145 526.243,-21.0712 527.739,-14.233"/>
</g>
<!-- Node17&#45;&gt;Node16 -->
<g id="edge58" class="edge"><title>Node17&#45;&gt;Node16</title>
<path fill="none" stroke="midnightblue" d="M673.955,-232.497C643.04,-222.959 597.277,-208.841 563.678,-198.475"/>
<polygon fill="midnightblue" stroke="midnightblue" points="564.697,-195.127 554.109,-195.523 562.633,-201.816 564.697,-195.127"/>
</g>
</g>
</svg>
