<?xml version="1.0" encoding="UTF-8" standalone="no"?>
<!DOCTYPE svg PUBLIC "-//W3C//DTD SVG 1.1//EN"
 "http://www.w3.org/Graphics/SVG/1.1/DTD/svg11.dtd">
<!-- Generated by graphviz version 2.26.3 (20100126.1600)
 -->
<!-- Title: parameter/ConfigurableElementWithMapping.h Pages: 1 -->
<svg width="2764pt" height="390pt"
 viewBox="0.00 0.00 2764.00 390.00" xmlns="http://www.w3.org/2000/svg" xmlns:xlink="http://www.w3.org/1999/xlink">
<g id="graph1" class="graph" transform="scale(1 1) rotate(0) translate(4 386)">
<title>parameter/ConfigurableElementWithMapping.h</title>
<polygon fill="white" stroke="white" points="-4,5 -4,-386 2761,-386 2761,5 -4,5"/>
<!-- Node1 -->
<g id="node1" class="node"><title>Node1</title>
<polygon fill="#bfbfbf" stroke="black" points="1193,-347 1193,-381 1363,-381 1363,-347 1193,-347"/>
<text text-anchor="start" x="1201" y="-368" font-family="Verdana" font-size="10.00">parameter/ConfigurableElement</text>
<text text-anchor="middle" x="1278" y="-355" font-family="Verdana" font-size="10.00">WithMapping.h</text>
</g>
<!-- Node2 -->
<g id="node3" class="node"><title>Node2</title>
<a xlink:href="InstanceConfigurableElement_8h.html" target="_top" xlink:title="parameter/InstanceConfigurable\lElement.h">
<polygon fill="white" stroke="black" points="1873.5,-275 1873.5,-309 2044.5,-309 2044.5,-275 1873.5,-275"/>
<text text-anchor="start" x="1881.5" y="-296" font-family="Verdana" font-size="10.00">parameter/InstanceConfigurable</text>
<text text-anchor="middle" x="1959" y="-283" font-family="Verdana" font-size="10.00">Element.h</text>
</a>
</g>
<!-- Node1&#45;&gt;Node2 -->
<g id="edge2" class="edge"><title>Node1&#45;&gt;Node2</title>
<path fill="none" stroke="midnightblue" d="M1373.4,-353.914C1506.47,-339.844 1745.82,-314.539 1873.42,-301.048"/>
<polygon fill="midnightblue" stroke="midnightblue" points="1372.79,-350.458 1363.22,-354.99 1373.53,-357.42 1372.79,-350.458"/>
</g>
<!-- Node35 -->
<g id="node72" class="node"><title>Node35</title>
<a xlink:href="Subsystem_8h.html" target="_top" xlink:title="parameter/Subsystem.h">
<polygon fill="white" stroke="black" points="511,-281.5 511,-302.5 645,-302.5 645,-281.5 511,-281.5"/>
<text text-anchor="middle" x="578" y="-289.5" font-family="Verdana" font-size="10.00">parameter/Subsystem.h</text>
</a>
</g>
<!-- Node1&#45;&gt;Node35 -->
<g id="edge74" class="edge"><title>Node1&#45;&gt;Node35</title>
<path fill="none" stroke="midnightblue" d="M1182.74,-354.202C1039.07,-339.424 770.446,-311.794 645.334,-298.926"/>
<polygon fill="midnightblue" stroke="midnightblue" points="1182.56,-357.702 1192.87,-355.243 1183.28,-350.738 1182.56,-357.702"/>
</g>
<!-- Node3 -->
<g id="node5" class="node"><title>Node3</title>
<a xlink:href="BaseParameter_8h.html" target="_top" xlink:title="parameter/BaseParameter.h">
<polygon fill="white" stroke="black" points="1418.5,-209.5 1418.5,-230.5 1571.5,-230.5 1571.5,-209.5 1418.5,-209.5"/>
<text text-anchor="middle" x="1495" y="-217.5" font-family="Verdana" font-size="10.00">parameter/BaseParameter.h</text>
</a>
</g>
<!-- Node2&#45;&gt;Node3 -->
<g id="edge4" class="edge"><title>Node2&#45;&gt;Node3</title>
<path fill="none" stroke="midnightblue" d="M1863.46,-277.175C1773.85,-263.27 1642.1,-242.825 1562.82,-230.523"/>
<polygon fill="midnightblue" stroke="midnightblue" points="1862.94,-280.635 1873.35,-278.71 1864.01,-273.718 1862.94,-280.635"/>
</g>
<!-- Node20 -->
<g id="node40" class="node"><title>Node20</title>
<a xlink:href="BitParameterBlock_8h.html" target="_top" xlink:title="parameter/BitParameterBlock.h">
<polygon fill="white" stroke="black" points="819,-209.5 819,-230.5 987,-230.5 987,-209.5 819,-209.5"/>
<text text-anchor="middle" x="903" y="-217.5" font-family="Verdana" font-size="10.00">parameter/BitParameterBlock.h</text>
</a>
</g>
<!-- Node2&#45;&gt;Node20 -->
<g id="edge40" class="edge"><title>Node2&#45;&gt;Node20</title>
<path fill="none" stroke="midnightblue" d="M1863.35,-285.478C1658.66,-271.522 1181.07,-238.959 987.114,-225.735"/>
<polygon fill="midnightblue" stroke="midnightblue" points="1863.26,-288.98 1873.48,-286.169 1863.74,-281.997 1863.26,-288.98"/>
</g>
<!-- Node23 -->
<g id="node47" class="node"><title>Node23</title>
<a xlink:href="Component_8h.html" target="_top" xlink:title="parameter/Component.h">
<polygon fill="white" stroke="black" points="1891,-209.5 1891,-230.5 2027,-230.5 2027,-209.5 1891,-209.5"/>
<text text-anchor="middle" x="1959" y="-217.5" font-family="Verdana" font-size="10.00">parameter/Component.h</text>
</a>
</g>
<!-- Node2&#45;&gt;Node23 -->
<g id="edge48" class="edge"><title>Node2&#45;&gt;Node23</title>
<path fill="none" stroke="midnightblue" d="M1959,-264.667C1959,-252.913 1959,-239.848 1959,-230.901"/>
<polygon fill="midnightblue" stroke="midnightblue" points="1955.5,-264.937 1959,-274.937 1962.5,-264.937 1955.5,-264.937"/>
</g>
<!-- Node29 -->
<g id="node60" class="node"><title>Node29</title>
<a xlink:href="FormattedSubsystemObject_8cpp.html" target="_top" xlink:title="parameter/FormattedSubsystem\lObject.cpp">
<polygon fill="white" stroke="black" points="2044.5,-203 2044.5,-237 2219.5,-237 2219.5,-203 2044.5,-203"/>
<text text-anchor="start" x="2052.5" y="-224" font-family="Verdana" font-size="10.00">parameter/FormattedSubsystem</text>
<text text-anchor="middle" x="2132" y="-211" font-family="Verdana" font-size="10.00">Object.cpp</text>
</a>
</g>
<!-- Node2&#45;&gt;Node29 -->
<g id="edge62" class="edge"><title>Node2&#45;&gt;Node29</title>
<path fill="none" stroke="midnightblue" d="M2009.3,-271.066C2035.26,-260.263 2066.52,-247.251 2091,-237.065"/>
<polygon fill="midnightblue" stroke="midnightblue" points="2007.89,-267.863 2000,-274.937 2010.58,-274.326 2007.89,-267.863"/>
</g>
<!-- Node30 -->
<g id="node62" class="node"><title>Node30</title>
<a xlink:href="InstanceConfigurableElement_8cpp.html" target="_top" xlink:title="parameter/InstanceConfigurable\lElement.cpp">
<polygon fill="white" stroke="black" points="2236.5,-203 2236.5,-237 2407.5,-237 2407.5,-203 2236.5,-203"/>
<text text-anchor="start" x="2244.5" y="-224" font-family="Verdana" font-size="10.00">parameter/InstanceConfigurable</text>
<text text-anchor="middle" x="2322" y="-211" font-family="Verdana" font-size="10.00">Element.cpp</text>
</a>
</g>
<!-- Node2&#45;&gt;Node30 -->
<g id="edge64" class="edge"><title>Node2&#45;&gt;Node30</title>
<path fill="none" stroke="midnightblue" d="M2054.57,-273.045C2110.98,-261.855 2181.79,-247.809 2236.38,-236.982"/>
<polygon fill="midnightblue" stroke="midnightblue" points="2053.69,-269.649 2044.57,-275.028 2055.06,-276.516 2053.69,-269.649"/>
</g>
<!-- Node31 -->
<g id="node64" class="node"><title>Node31</title>
<a xlink:href="ParameterBlock_8h.html" target="_top" xlink:title="parameter/ParameterBlock.h">
<polygon fill="white" stroke="black" points="2424.5,-209.5 2424.5,-230.5 2579.5,-230.5 2579.5,-209.5 2424.5,-209.5"/>
<text text-anchor="middle" x="2502" y="-217.5" font-family="Verdana" font-size="10.00">parameter/ParameterBlock.h</text>
</a>
</g>
<!-- Node2&#45;&gt;Node31 -->
<g id="edge66" class="edge"><title>Node2&#45;&gt;Node31</title>
<path fill="none" stroke="midnightblue" d="M2055.01,-283.155C2147.73,-274.025 2291.93,-258.273 2416,-238 2428.8,-235.909 2442.58,-233.222 2455.28,-230.566"/>
<polygon fill="midnightblue" stroke="midnightblue" points="2054.42,-279.696 2044.81,-284.154 2055.1,-286.663 2054.42,-279.696"/>
</g>
<!-- Node33 -->
<g id="node68" class="node"><title>Node33</title>
<a xlink:href="SubsystemObject_8cpp.html" target="_top" xlink:title="parameter/SubsystemObject.cpp">
<polygon fill="white" stroke="black" points="625,-209.5 625,-230.5 801,-230.5 801,-209.5 625,-209.5"/>
<text text-anchor="middle" x="713" y="-217.5" font-family="Verdana" font-size="10.00">parameter/SubsystemObject.cpp</text>
</a>
</g>
<!-- Node2&#45;&gt;Node33 -->
<g id="edge70" class="edge"><title>Node2&#45;&gt;Node33</title>
<path fill="none" stroke="midnightblue" d="M1863.48,-289.193C1625.93,-281.941 1013.02,-261.497 810,-238 794.517,-236.208 777.785,-233.416 762.648,-230.56"/>
<polygon fill="midnightblue" stroke="midnightblue" points="1863.38,-292.691 1873.48,-289.497 1863.59,-285.695 1863.38,-292.691"/>
</g>
<!-- Node34 -->
<g id="node70" class="node"><title>Node34</title>
<a xlink:href="TypeElement_8cpp.html" target="_top" xlink:title="parameter/TypeElement.cpp">
<polygon fill="white" stroke="black" points="2597,-209.5 2597,-230.5 2749,-230.5 2749,-209.5 2597,-209.5"/>
<text text-anchor="middle" x="2673" y="-217.5" font-family="Verdana" font-size="10.00">parameter/TypeElement.cpp</text>
</a>
</g>
<!-- Node2&#45;&gt;Node34 -->
<g id="edge72" class="edge"><title>Node2&#45;&gt;Node34</title>
<path fill="none" stroke="midnightblue" d="M2054.79,-287.449C2178.47,-280.733 2400.16,-265.844 2588,-238 2601.13,-236.054 2615.28,-233.318 2628.19,-230.567"/>
<polygon fill="midnightblue" stroke="midnightblue" points="2054.39,-283.965 2044.59,-287.996 2054.77,-290.955 2054.39,-283.965"/>
</g>
<!-- Node4 -->
<g id="node7" class="node"><title>Node4</title>
<a xlink:href="Parameter_8h.html" target="_top" xlink:title="parameter/Parameter.h">
<polygon fill="white" stroke="black" points="1348.5,-137.5 1348.5,-158.5 1477.5,-158.5 1477.5,-137.5 1348.5,-137.5"/>
<text text-anchor="middle" x="1413" y="-145.5" font-family="Verdana" font-size="10.00">parameter/Parameter.h</text>
</a>
</g>
<!-- Node3&#45;&gt;Node4 -->
<g id="edge6" class="edge"><title>Node3&#45;&gt;Node4</title>
<path fill="none" stroke="midnightblue" d="M1475.33,-202.728C1459.71,-189.015 1438.37,-170.277 1425.15,-158.667"/>
<polygon fill="midnightblue" stroke="midnightblue" points="1473.08,-205.408 1482.9,-209.376 1477.7,-200.148 1473.08,-205.408"/>
</g>
<!-- Node11 -->
<g id="node22" class="node"><title>Node11</title>
<a xlink:href="BaseParameter_8cpp.html" target="_top" xlink:title="parameter/BaseParameter.cpp">
<polygon fill="white" stroke="black" points="1495,-137.5 1495,-158.5 1659,-158.5 1659,-137.5 1495,-137.5"/>
<text text-anchor="middle" x="1577" y="-145.5" font-family="Verdana" font-size="10.00">parameter/BaseParameter.cpp</text>
</a>
</g>
<!-- Node3&#45;&gt;Node11 -->
<g id="edge22" class="edge"><title>Node3&#45;&gt;Node11</title>
<path fill="none" stroke="midnightblue" d="M1514.67,-202.728C1530.29,-189.015 1551.63,-170.277 1564.85,-158.667"/>
<polygon fill="midnightblue" stroke="midnightblue" points="1512.3,-200.148 1507.1,-209.376 1516.92,-205.408 1512.3,-200.148"/>
</g>
<!-- Node12 -->
<g id="node24" class="node"><title>Node12</title>
<a xlink:href="BitParameter_8h.html" target="_top" xlink:title="parameter/BitParameter.h">
<polygon fill="white" stroke="black" points="1189,-137.5 1189,-158.5 1331,-158.5 1331,-137.5 1189,-137.5"/>
<text text-anchor="middle" x="1260" y="-145.5" font-family="Verdana" font-size="10.00">parameter/BitParameter.h</text>
</a>
</g>
<!-- Node3&#45;&gt;Node12 -->
<g id="edge24" class="edge"><title>Node3&#45;&gt;Node12</title>
<path fill="none" stroke="midnightblue" d="M1450.73,-206.437C1405.41,-192.552 1335.92,-171.261 1294.51,-158.575"/>
<polygon fill="midnightblue" stroke="midnightblue" points="1449.99,-209.87 1460.58,-209.453 1452.04,-203.178 1449.99,-209.87"/>
</g>
<!-- Node16 -->
<g id="node32" class="node"><title>Node16</title>
<a xlink:href="ParameterHandle_8cpp.html" target="_top" xlink:title="parameter/ParameterHandle.cpp">
<polygon fill="white" stroke="black" points="996.5,-137.5 996.5,-158.5 1171.5,-158.5 1171.5,-137.5 996.5,-137.5"/>
<text text-anchor="middle" x="1084" y="-145.5" font-family="Verdana" font-size="10.00">parameter/ParameterHandle.cpp</text>
</a>
</g>
<!-- Node3&#45;&gt;Node16 -->
<g id="edge32" class="edge"><title>Node3&#45;&gt;Node16</title>
<path fill="none" stroke="midnightblue" d="M1421.92,-207.803C1358.04,-197.063 1262.81,-180.861 1180,-166 1166.81,-163.634 1152.62,-161.014 1139.31,-158.522"/>
<polygon fill="midnightblue" stroke="midnightblue" points="1421.46,-211.274 1431.9,-209.479 1422.62,-204.371 1421.46,-211.274"/>
</g>
<!-- Node17 -->
<g id="node34" class="node"><title>Node17</title>
<a xlink:href="StringParameter_8h.html" target="_top" xlink:title="parameter/StringParameter.h">
<polygon fill="white" stroke="black" points="1677,-137.5 1677,-158.5 1835,-158.5 1835,-137.5 1677,-137.5"/>
<text text-anchor="middle" x="1756" y="-145.5" font-family="Verdana" font-size="10.00">parameter/StringParameter.h</text>
</a>
</g>
<!-- Node3&#45;&gt;Node17 -->
<g id="edge34" class="edge"><title>Node3&#45;&gt;Node17</title>
<path fill="none" stroke="midnightblue" d="M1542.9,-206.786C1593.2,-192.91 1671.29,-171.368 1717.67,-158.575"/>
<polygon fill="midnightblue" stroke="midnightblue" points="1541.94,-203.42 1533.23,-209.453 1543.8,-210.168 1541.94,-203.42"/>
</g>
<!-- Node5 -->
<g id="node9" class="node"><title>Node5</title>
<a xlink:href="ArrayParameter_8h.html" target="_top" xlink:title="parameter/ArrayParameter.h">
<polygon fill="white" stroke="black" points="1499.5,-65.5 1499.5,-86.5 1654.5,-86.5 1654.5,-65.5 1499.5,-65.5"/>
<text text-anchor="middle" x="1577" y="-73.5" font-family="Verdana" font-size="10.00">parameter/ArrayParameter.h</text>
</a>
</g>
<!-- Node4&#45;&gt;Node5 -->
<g id="edge8" class="edge"><title>Node4&#45;&gt;Node5</title>
<path fill="none" stroke="midnightblue" d="M1446.5,-133.292C1478.16,-119.395 1524.86,-98.8898 1552.97,-86.5501"/>
<polygon fill="midnightblue" stroke="midnightblue" points="1444.95,-130.151 1437.2,-137.376 1447.76,-136.561 1444.95,-130.151"/>
</g>
<!-- Node7 -->
<g id="node13" class="node"><title>Node7</title>
<a xlink:href="ParameterType_8cpp.html" target="_top" xlink:title="parameter/ParameterType.cpp">
<polygon fill="white" stroke="black" points="1181,-0.5 1181,-21.5 1343,-21.5 1343,-0.5 1181,-0.5"/>
<text text-anchor="middle" x="1262" y="-8.5" font-family="Verdana" font-size="10.00">parameter/ParameterType.cpp</text>
</a>
</g>
<!-- Node4&#45;&gt;Node7 -->
<g id="edge20" class="edge"><title>Node4&#45;&gt;Node7</title>
<path fill="none" stroke="midnightblue" d="M1362.43,-135.133C1354.93,-133.34 1347.27,-131.574 1340,-130 1297.36,-120.774 1174.88,-127.56 1147,-94 1136.78,-81.6927 1138.08,-71.2825 1147,-58 1159.39,-39.5577 1180.42,-28.3474 1201.14,-21.5349"/>
<polygon fill="midnightblue" stroke="midnightblue" points="1361.63,-138.539 1372.17,-137.494 1363.28,-131.736 1361.63,-138.539"/>
</g>
<!-- Node8 -->
<g id="node15" class="node"><title>Node8</title>
<a xlink:href="FixedPointParameterType_8cpp.html" target="_top" xlink:title="parameter/FixedPointParameter\lType.cpp">
<polygon fill="white" stroke="black" points="1155.5,-59 1155.5,-93 1324.5,-93 1324.5,-59 1155.5,-59"/>
<text text-anchor="start" x="1163.5" y="-80" font-family="Verdana" font-size="10.00">parameter/FixedPointParameter</text>
<text text-anchor="middle" x="1240" y="-67" font-family="Verdana" font-size="10.00">Type.cpp</text>
</a>
</g>
<!-- Node4&#45;&gt;Node8 -->
<g id="edge14" class="edge"><title>Node4&#45;&gt;Node8</title>
<path fill="none" stroke="midnightblue" d="M1378.07,-133.461C1350.03,-121.794 1310.62,-105.39 1281.07,-93.0944"/>
<polygon fill="midnightblue" stroke="midnightblue" points="1376.9,-136.765 1387.47,-137.376 1379.59,-130.302 1376.9,-136.765"/>
</g>
<!-- Node9 -->
<g id="node17" class="node"><title>Node9</title>
<a xlink:href="Parameter_8cpp.html" target="_top" xlink:title="parameter/Parameter.cpp">
<polygon fill="white" stroke="black" points="1342,-65.5 1342,-86.5 1482,-86.5 1482,-65.5 1342,-65.5"/>
<text text-anchor="middle" x="1412" y="-73.5" font-family="Verdana" font-size="10.00">parameter/Parameter.cpp</text>
</a>
</g>
<!-- Node4&#45;&gt;Node9 -->
<g id="edge16" class="edge"><title>Node4&#45;&gt;Node9</title>
<path fill="none" stroke="midnightblue" d="M1412.71,-127.235C1412.53,-113.969 1412.3,-97.3188 1412.15,-86.6674"/>
<polygon fill="midnightblue" stroke="midnightblue" points="1409.21,-127.426 1412.85,-137.376 1416.21,-127.328 1409.21,-127.426"/>
</g>
<!-- Node10 -->
<g id="node19" class="node"><title>Node10</title>
<a xlink:href="ParameterMgr_8cpp.html" target="_top" xlink:title="parameter/ParameterMgr.cpp">
<polygon fill="white" stroke="black" points="352,-65.5 352,-86.5 510,-86.5 510,-65.5 352,-65.5"/>
<text text-anchor="middle" x="431" y="-73.5" font-family="Verdana" font-size="10.00">parameter/ParameterMgr.cpp</text>
</a>
</g>
<!-- Node4&#45;&gt;Node10 -->
<g id="edge18" class="edge"><title>Node4&#45;&gt;Node10</title>
<path fill="none" stroke="midnightblue" d="M1366.2,-135.01C1357.54,-133.023 1348.54,-131.228 1340,-130 978.477,-78.0256 881.489,-138.736 519,-94 504.761,-92.2428 489.392,-89.4239 475.543,-86.5333"/>
<polygon fill="midnightblue" stroke="midnightblue" points="1365.6,-138.466 1376.14,-137.407 1367.24,-131.661 1365.6,-138.466"/>
</g>
<!-- Node6 -->
<g id="node11" class="node"><title>Node6</title>
<a xlink:href="ArrayParameter_8cpp.html" target="_top" xlink:title="parameter/ArrayParameter.cpp">
<polygon fill="white" stroke="black" points="1494,-0.5 1494,-21.5 1660,-21.5 1660,-0.5 1494,-0.5"/>
<text text-anchor="middle" x="1577" y="-8.5" font-family="Verdana" font-size="10.00">parameter/ArrayParameter.cpp</text>
</a>
</g>
<!-- Node5&#45;&gt;Node6 -->
<g id="edge10" class="edge"><title>Node5&#45;&gt;Node6</title>
<path fill="none" stroke="midnightblue" d="M1577,-55.0142C1577,-43.8307 1577,-30.5583 1577,-21.5337"/>
<polygon fill="midnightblue" stroke="midnightblue" points="1573.5,-55.2665 1577,-65.2666 1580.5,-55.2666 1573.5,-55.2665"/>
</g>
<!-- Node5&#45;&gt;Node7 -->
<g id="edge12" class="edge"><title>Node5&#45;&gt;Node7</title>
<path fill="none" stroke="midnightblue" d="M1517.17,-63.4469C1508.4,-61.6143 1499.46,-59.7545 1491,-58 1430.2,-45.3972 1360.27,-31.0706 1313.85,-21.5823"/>
<polygon fill="midnightblue" stroke="midnightblue" points="1516.48,-66.8774 1526.98,-65.4972 1517.91,-60.0254 1516.48,-66.8774"/>
</g>
<!-- Node13 -->
<g id="node26" class="node"><title>Node13</title>
<a xlink:href="BitParameter_8cpp.html" target="_top" xlink:title="parameter/BitParameter.cpp">
<polygon fill="white" stroke="black" points="755.5,-65.5 755.5,-86.5 908.5,-86.5 908.5,-65.5 755.5,-65.5"/>
<text text-anchor="middle" x="832" y="-73.5" font-family="Verdana" font-size="10.00">parameter/BitParameter.cpp</text>
</a>
</g>
<!-- Node12&#45;&gt;Node13 -->
<g id="edge26" class="edge"><title>Node12&#45;&gt;Node13</title>
<path fill="none" stroke="midnightblue" d="M1206.35,-135.268C1197.57,-133.375 1188.55,-131.544 1180,-130 1063.9,-109.032 1033.23,-114.234 917,-94 904.517,-91.8269 891.074,-89.1419 878.646,-86.5149"/>
<polygon fill="midnightblue" stroke="midnightblue" points="1205.61,-138.688 1216.12,-137.42 1207.11,-131.852 1205.61,-138.688"/>
</g>
<!-- Node14 -->
<g id="node28" class="node"><title>Node14</title>
<a xlink:href="BitParameterType_8cpp.html" target="_top" xlink:title="parameter/BitParameterType.cpp">
<polygon fill="white" stroke="black" points="925.5,-65.5 925.5,-86.5 1100.5,-86.5 1100.5,-65.5 925.5,-65.5"/>
<text text-anchor="middle" x="1013" y="-73.5" font-family="Verdana" font-size="10.00">parameter/BitParameterType.cpp</text>
</a>
</g>
<!-- Node12&#45;&gt;Node14 -->
<g id="edge28" class="edge"><title>Node12&#45;&gt;Node14</title>
<path fill="none" stroke="midnightblue" d="M1214.07,-134.612C1166.45,-120.731 1092.98,-99.3142 1049.28,-86.5747"/>
<polygon fill="midnightblue" stroke="midnightblue" points="1213.24,-138.015 1223.82,-137.453 1215.2,-131.295 1213.24,-138.015"/>
</g>
<!-- Node15 -->
<g id="node30" class="node"><title>Node15</title>
<a xlink:href="BitwiseAreaConfiguration_8cpp.html" target="_top" xlink:title="parameter/BitwiseAreaConfiguration.cpp">
<polygon fill="white" stroke="black" points="528,-65.5 528,-86.5 738,-86.5 738,-65.5 528,-65.5"/>
<text text-anchor="middle" x="633" y="-73.5" font-family="Verdana" font-size="10.00">parameter/BitwiseAreaConfiguration.cpp</text>
</a>
</g>
<!-- Node12&#45;&gt;Node15 -->
<g id="edge30" class="edge"><title>Node12&#45;&gt;Node15</title>
<path fill="none" stroke="midnightblue" d="M1208.28,-135.267C1198.91,-133.273 1189.2,-131.41 1180,-130 989.122,-100.735 938.725,-117.074 747,-94 729.892,-91.941 711.413,-89.234 694.415,-86.5468"/>
<polygon fill="midnightblue" stroke="midnightblue" points="1207.75,-138.734 1218.27,-137.465 1209.26,-131.898 1207.75,-138.734"/>
</g>
<!-- Node18 -->
<g id="node36" class="node"><title>Node18</title>
<a xlink:href="StringParameter_8cpp.html" target="_top" xlink:title="parameter/StringParameter.cpp">
<polygon fill="white" stroke="black" points="1671.5,-65.5 1671.5,-86.5 1840.5,-86.5 1840.5,-65.5 1671.5,-65.5"/>
<text text-anchor="middle" x="1756" y="-73.5" font-family="Verdana" font-size="10.00">parameter/StringParameter.cpp</text>
</a>
</g>
<!-- Node17&#45;&gt;Node18 -->
<g id="edge36" class="edge"><title>Node17&#45;&gt;Node18</title>
<path fill="none" stroke="midnightblue" d="M1756,-127.235C1756,-113.969 1756,-97.3188 1756,-86.6674"/>
<polygon fill="midnightblue" stroke="midnightblue" points="1752.5,-127.376 1756,-137.376 1759.5,-127.376 1752.5,-127.376"/>
</g>
<!-- Node19 -->
<g id="node38" class="node"><title>Node19</title>
<a xlink:href="StringParameterType_8cpp.html" target="_top" xlink:title="parameter/StringParameter\lType.cpp">
<polygon fill="white" stroke="black" points="1857.5,-59 1857.5,-93 2006.5,-93 2006.5,-59 1857.5,-59"/>
<text text-anchor="start" x="1865.5" y="-80" font-family="Verdana" font-size="10.00">parameter/StringParameter</text>
<text text-anchor="middle" x="1932" y="-67" font-family="Verdana" font-size="10.00">Type.cpp</text>
</a>
</g>
<!-- Node17&#45;&gt;Node19 -->
<g id="edge38" class="edge"><title>Node17&#45;&gt;Node19</title>
<path fill="none" stroke="midnightblue" d="M1791.54,-133.461C1820.06,-121.794 1860.16,-105.39 1890.21,-93.0944"/>
<polygon fill="midnightblue" stroke="midnightblue" points="1789.9,-130.35 1781.97,-137.376 1792.55,-136.829 1789.9,-130.35"/>
</g>
<!-- Node20&#45;&gt;Node13 -->
<g id="edge42" class="edge"><title>Node20&#45;&gt;Node13</title>
<path fill="none" stroke="midnightblue" d="M838.921,-207.531C829.233,-205.665 819.354,-203.773 810,-202 766.92,-193.834 644.034,-199.715 616,-166 605.77,-153.697 606.153,-142.611 616,-130 621.241,-123.288 721.649,-100.222 783.7,-86.5023"/>
<polygon fill="midnightblue" stroke="midnightblue" points="838.437,-211.002 848.919,-209.46 839.763,-204.128 838.437,-211.002"/>
</g>
<!-- Node21 -->
<g id="node43" class="node"><title>Node21</title>
<a xlink:href="BitParameterBlock_8cpp.html" target="_top" xlink:title="parameter/BitParameterBlock.cpp">
<polygon fill="white" stroke="black" points="800.5,-137.5 800.5,-158.5 979.5,-158.5 979.5,-137.5 800.5,-137.5"/>
<text text-anchor="middle" x="890" y="-145.5" font-family="Verdana" font-size="10.00">parameter/BitParameterBlock.cpp</text>
</a>
</g>
<!-- Node20&#45;&gt;Node21 -->
<g id="edge44" class="edge"><title>Node20&#45;&gt;Node21</title>
<path fill="none" stroke="midnightblue" d="M899.251,-199.235C896.856,-185.969 893.849,-169.319 891.926,-158.667"/>
<polygon fill="midnightblue" stroke="midnightblue" points="895.861,-200.157 901.082,-209.376 902.749,-198.913 895.861,-200.157"/>
</g>
<!-- Node22 -->
<g id="node45" class="node"><title>Node22</title>
<a xlink:href="BitParameterBlockType_8cpp.html" target="_top" xlink:title="parameter/BitParameterBlock\lType.cpp">
<polygon fill="white" stroke="black" points="624.5,-131 624.5,-165 783.5,-165 783.5,-131 624.5,-131"/>
<text text-anchor="start" x="632.5" y="-152" font-family="Verdana" font-size="10.00">parameter/BitParameterBlock</text>
<text text-anchor="middle" x="704" y="-139" font-family="Verdana" font-size="10.00">Type.cpp</text>
</a>
</g>
<!-- Node20&#45;&gt;Node22 -->
<g id="edge46" class="edge"><title>Node20&#45;&gt;Node22</title>
<path fill="none" stroke="midnightblue" d="M864.077,-205.917C831.759,-194.224 785.676,-177.551 751.247,-165.094"/>
<polygon fill="midnightblue" stroke="midnightblue" points="863.043,-209.265 873.637,-209.376 865.424,-202.683 863.043,-209.265"/>
</g>
<!-- Node24 -->
<g id="node49" class="node"><title>Node24</title>
<a xlink:href="ComponentLibrary_8h.html" target="_top" xlink:title="parameter/ComponentLibrary.h">
<polygon fill="white" stroke="black" points="2191.5,-137.5 2191.5,-158.5 2358.5,-158.5 2358.5,-137.5 2191.5,-137.5"/>
<text text-anchor="middle" x="2275" y="-145.5" font-family="Verdana" font-size="10.00">parameter/ComponentLibrary.h</text>
</a>
</g>
<!-- Node23&#45;&gt;Node24 -->
<g id="edge50" class="edge"><title>Node23&#45;&gt;Node24</title>
<path fill="none" stroke="midnightblue" d="M2013.57,-207.189C2021.11,-205.437 2028.74,-203.668 2036,-202 2102.54,-186.706 2179.59,-169.363 2227.81,-158.553"/>
<polygon fill="midnightblue" stroke="midnightblue" points="2012.72,-203.795 2003.77,-209.474 2014.31,-210.612 2012.72,-203.795"/>
</g>
<!-- Node25 -->
<g id="node51" class="node"><title>Node25</title>
<a xlink:href="ComponentInstance_8cpp.html" target="_top" xlink:title="parameter/ComponentInstance.cpp">
<polygon fill="white" stroke="black" points="2568,-65.5 2568,-86.5 2756,-86.5 2756,-65.5 2568,-65.5"/>
<text text-anchor="middle" x="2662" y="-73.5" font-family="Verdana" font-size="10.00">parameter/ComponentInstance.cpp</text>
</a>
</g>
<!-- Node23&#45;&gt;Node25 -->
<g id="edge60" class="edge"><title>Node23&#45;&gt;Node25</title>
<path fill="none" stroke="midnightblue" d="M2009.96,-207.171C2018.62,-205.256 2027.54,-203.444 2036,-202 2181.87,-177.112 2228.12,-217.089 2367,-166 2393.72,-156.169 2393.86,-141.301 2420,-130 2452.35,-116.012 2542.33,-97.825 2602.98,-86.5336"/>
<polygon fill="midnightblue" stroke="midnightblue" points="2008.94,-203.814 1999.97,-209.45 2010.5,-210.638 2008.94,-203.814"/>
</g>
<!-- Node24&#45;&gt;Node25 -->
<g id="edge52" class="edge"><title>Node24&#45;&gt;Node25</title>
<path fill="none" stroke="midnightblue" d="M2341.89,-135.555C2416.38,-121.697 2535.47,-99.5402 2605.48,-86.5162"/>
<polygon fill="midnightblue" stroke="midnightblue" points="2340.88,-132.183 2331.69,-137.453 2342.16,-139.065 2340.88,-132.183"/>
</g>
<!-- Node26 -->
<g id="node53" class="node"><title>Node26</title>
<a xlink:href="ComponentLibrary_8cpp.html" target="_top" xlink:title="parameter/ComponentLibrary.cpp">
<polygon fill="white" stroke="black" points="2186,-65.5 2186,-86.5 2364,-86.5 2364,-65.5 2186,-65.5"/>
<text text-anchor="middle" x="2275" y="-73.5" font-family="Verdana" font-size="10.00">parameter/ComponentLibrary.cpp</text>
</a>
</g>
<!-- Node24&#45;&gt;Node26 -->
<g id="edge54" class="edge"><title>Node24&#45;&gt;Node26</title>
<path fill="none" stroke="midnightblue" d="M2275,-127.235C2275,-113.969 2275,-97.3188 2275,-86.6674"/>
<polygon fill="midnightblue" stroke="midnightblue" points="2271.5,-127.376 2275,-137.376 2278.5,-127.376 2271.5,-127.376"/>
</g>
<!-- Node27 -->
<g id="node55" class="node"><title>Node27</title>
<a xlink:href="ComponentType_8cpp.html" target="_top" xlink:title="parameter/ComponentType.cpp">
<polygon fill="white" stroke="black" points="2382,-65.5 2382,-86.5 2550,-86.5 2550,-65.5 2382,-65.5"/>
<text text-anchor="middle" x="2466" y="-73.5" font-family="Verdana" font-size="10.00">parameter/ComponentType.cpp</text>
</a>
</g>
<!-- Node24&#45;&gt;Node27 -->
<g id="edge56" class="edge"><title>Node24&#45;&gt;Node27</title>
<path fill="none" stroke="midnightblue" d="M2312.6,-133.827C2349.47,-119.926 2404.86,-99.0493 2438.01,-86.5501"/>
<polygon fill="midnightblue" stroke="midnightblue" points="2311.31,-130.574 2303.18,-137.376 2313.77,-137.124 2311.31,-130.574"/>
</g>
<!-- Node28 -->
<g id="node57" class="node"><title>Node28</title>
<a xlink:href="Subsystem_8cpp.html" target="_top" xlink:title="parameter/Subsystem.cpp">
<polygon fill="white" stroke="black" points="2023.5,-65.5 2023.5,-86.5 2168.5,-86.5 2168.5,-65.5 2023.5,-65.5"/>
<text text-anchor="middle" x="2096" y="-73.5" font-family="Verdana" font-size="10.00">parameter/Subsystem.cpp</text>
</a>
</g>
<!-- Node24&#45;&gt;Node28 -->
<g id="edge58" class="edge"><title>Node24&#45;&gt;Node28</title>
<path fill="none" stroke="midnightblue" d="M2238.88,-133.471C2204.32,-119.571 2153.04,-98.943 2122.23,-86.5501"/>
<polygon fill="midnightblue" stroke="midnightblue" points="2238,-136.891 2248.59,-137.376 2240.62,-130.397 2238,-136.891"/>
</g>
<!-- Node32 -->
<g id="node66" class="node"><title>Node32</title>
<a xlink:href="ParameterBlockType_8cpp.html" target="_top" xlink:title="parameter/ParameterBlock\lType.cpp">
<polygon fill="white" stroke="black" points="2429,-131 2429,-165 2575,-165 2575,-131 2429,-131"/>
<text text-anchor="start" x="2437" y="-152" font-family="Verdana" font-size="10.00">parameter/ParameterBlock</text>
<text text-anchor="middle" x="2502" y="-139" font-family="Verdana" font-size="10.00">Type.cpp</text>
</a>
</g>
<!-- Node31&#45;&gt;Node32 -->
<g id="edge68" class="edge"><title>Node31&#45;&gt;Node32</title>
<path fill="none" stroke="midnightblue" d="M2502,-199.132C2502,-188.326 2502,-175.296 2502,-165.094"/>
<polygon fill="midnightblue" stroke="midnightblue" points="2498.5,-199.376 2502,-209.376 2505.5,-199.376 2498.5,-199.376"/>
</g>
<!-- Node35&#45;&gt;Node10 -->
<g id="edge96" class="edge"><title>Node35&#45;&gt;Node10</title>
<path fill="none" stroke="midnightblue" d="M568.889,-272.001C553.96,-240.28 522.293,-177.197 486,-130 473.275,-113.452 455.635,-97.0193 443.795,-86.7067"/>
<polygon fill="midnightblue" stroke="midnightblue" points="565.746,-273.542 573.133,-281.137 572.095,-270.594 565.746,-273.542"/>
</g>
<!-- Node35&#45;&gt;Node15 -->
<g id="edge76" class="edge"><title>Node35&#45;&gt;Node15</title>
<path fill="none" stroke="midnightblue" d="M578.871,-271.221C580.758,-239.729 586.67,-178.453 605,-130 610.904,-114.394 620.186,-97.482 626.427,-86.8207"/>
<polygon fill="midnightblue" stroke="midnightblue" points="575.366,-271.229 578.342,-281.397 582.356,-271.592 575.366,-271.229"/>
</g>
<!-- Node35&#45;&gt;Node16 -->
<g id="edge80" class="edge"><title>Node35&#45;&gt;Node16</title>
<path fill="none" stroke="midnightblue" d="M580.607,-271.343C584.45,-250.246 593.773,-218.339 616,-202 682.919,-152.81 905.77,-177.664 988,-166 1002.44,-163.952 1018.01,-161.248 1032.32,-158.561"/>
<polygon fill="midnightblue" stroke="midnightblue" points="577.145,-270.83 579.057,-281.251 584.061,-271.912 577.145,-270.83"/>
</g>
<!-- Node35&#45;&gt;Node28 -->
<g id="edge98" class="edge"><title>Node35&#45;&gt;Node28</title>
<path fill="none" stroke="midnightblue" d="M655.52,-289.952C858.533,-284.248 1402.29,-266.687 1580,-238 1700.06,-218.618 1727.98,-202.479 1844,-166 1926.65,-140.012 2022.62,-104.123 2068.64,-86.5521"/>
<polygon fill="midnightblue" stroke="midnightblue" points="655.142,-286.461 645.244,-290.239 655.337,-293.458 655.142,-286.461"/>
</g>
<!-- Node35&#45;&gt;Node33 -->
<g id="edge100" class="edge"><title>Node35&#45;&gt;Node33</title>
<path fill="none" stroke="midnightblue" d="M606.909,-276.582C632.846,-262.749 670.231,-242.81 692.999,-230.667"/>
<polygon fill="midnightblue" stroke="midnightblue" points="605.096,-273.582 597.92,-281.376 608.39,-279.758 605.096,-273.582"/>
</g>
<!-- Node36 -->
<g id="node75" class="node"><title>Node36</title>
<a xlink:href="DomainConfiguration_8cpp.html" target="_top" xlink:title="parameter/DomainConfiguration.cpp">
<polygon fill="white" stroke="black" points="301,-209.5 301,-230.5 493,-230.5 493,-209.5 301,-209.5"/>
<text text-anchor="middle" x="397" y="-217.5" font-family="Verdana" font-size="10.00">parameter/DomainConfiguration.cpp</text>
</a>
</g>
<!-- Node35&#45;&gt;Node36 -->
<g id="edge78" class="edge"><title>Node35&#45;&gt;Node36</title>
<path fill="none" stroke="midnightblue" d="M541.925,-277.65C506.979,-263.749 454.81,-242.996 423.522,-230.55"/>
<polygon fill="midnightblue" stroke="midnightblue" points="540.707,-280.932 551.293,-281.376 543.295,-274.428 540.707,-280.932"/>
</g>
<!-- Node37 -->
<g id="node78" class="node"><title>Node37</title>
<a xlink:href="VirtualSubsystem_8h.html" target="_top" xlink:title="parameter/VirtualSubsystem.h">
<polygon fill="white" stroke="black" points="119,-209.5 119,-230.5 283,-230.5 283,-209.5 119,-209.5"/>
<text text-anchor="middle" x="201" y="-217.5" font-family="Verdana" font-size="10.00">parameter/VirtualSubsystem.h</text>
</a>
</g>
<!-- Node35&#45;&gt;Node37 -->
<g id="edge82" class="edge"><title>Node35&#45;&gt;Node37</title>
<path fill="none" stroke="midnightblue" d="M511.407,-279.595C453.423,-268.754 367.117,-252.52 292,-238 279.667,-235.616 266.401,-233.014 253.916,-230.547"/>
<polygon fill="midnightblue" stroke="midnightblue" points="511.063,-283.092 521.536,-281.488 512.349,-276.211 511.063,-283.092"/>
</g>
<!-- Node38 -->
<g id="node80" class="node"><title>Node38</title>
<a xlink:href="SubsystemLibrary_8h.html" target="_top" xlink:title="parameter/SubsystemLibrary.h">
<polygon fill="white" stroke="black" points="119,-137.5 119,-158.5 283,-158.5 283,-137.5 119,-137.5"/>
<text text-anchor="middle" x="201" y="-145.5" font-family="Verdana" font-size="10.00">parameter/SubsystemLibrary.h</text>
</a>
</g>
<!-- Node37&#45;&gt;Node38 -->
<g id="edge84" class="edge"><title>Node37&#45;&gt;Node38</title>
<path fill="none" stroke="midnightblue" d="M201,-199.235C201,-185.969 201,-169.319 201,-158.667"/>
<polygon fill="midnightblue" stroke="midnightblue" points="197.5,-199.376 201,-209.376 204.5,-199.376 197.5,-199.376"/>
</g>
<!-- Node40 -->
<g id="node85" class="node"><title>Node40</title>
<a xlink:href="SystemClass_8cpp.html" target="_top" xlink:title="parameter/SystemClass.cpp">
<polygon fill="white" stroke="black" points="-0.5,-65.5 -0.5,-86.5 152.5,-86.5 152.5,-65.5 -0.5,-65.5"/>
<text text-anchor="middle" x="76" y="-73.5" font-family="Verdana" font-size="10.00">parameter/SystemClass.cpp</text>
</a>
</g>
<!-- Node37&#45;&gt;Node40 -->
<g id="edge92" class="edge"><title>Node37&#45;&gt;Node40</title>
<path fill="none" stroke="midnightblue" d="M170.583,-204.753C147.654,-192.758 118.719,-176.389 110,-166 89.8135,-141.947 80.9395,-104.684 77.6495,-86.5855"/>
<polygon fill="midnightblue" stroke="midnightblue" points="169.159,-207.956 179.65,-209.434 172.371,-201.737 169.159,-207.956"/>
</g>
<!-- Node41 -->
<g id="node88" class="node"><title>Node41</title>
<a xlink:href="VirtualSubsystem_8cpp.html" target="_top" xlink:title="parameter/VirtualSubsystem.cpp">
<polygon fill="white" stroke="black" points="301,-137.5 301,-158.5 477,-158.5 477,-137.5 301,-137.5"/>
<text text-anchor="middle" x="389" y="-145.5" font-family="Verdana" font-size="10.00">parameter/VirtualSubsystem.cpp</text>
</a>
</g>
<!-- Node37&#45;&gt;Node41 -->
<g id="edge94" class="edge"><title>Node37&#45;&gt;Node41</title>
<path fill="none" stroke="midnightblue" d="M238.47,-205.65C274.767,-191.749 328.955,-170.996 361.452,-158.55"/>
<polygon fill="midnightblue" stroke="midnightblue" points="236.827,-202.531 228.74,-209.376 239.33,-209.068 236.827,-202.531"/>
</g>
<!-- Node38&#45;&gt;Node10 -->
<g id="edge86" class="edge"><title>Node38&#45;&gt;Node10</title>
<path fill="none" stroke="midnightblue" d="M244.584,-134.356C288.973,-120.461 356.86,-99.2089 397.298,-86.5501"/>
<polygon fill="midnightblue" stroke="midnightblue" points="243.435,-131.048 234.937,-137.376 245.526,-137.729 243.435,-131.048"/>
</g>
<!-- Node39 -->
<g id="node83" class="node"><title>Node39</title>
<a xlink:href="SubsystemElementBuilder_8cpp.html" target="_top" xlink:title="parameter/SubsystemElement\lBuilder.cpp">
<polygon fill="white" stroke="black" points="170,-59 170,-93 334,-93 334,-59 170,-59"/>
<text text-anchor="start" x="178" y="-80" font-family="Verdana" font-size="10.00">parameter/SubsystemElement</text>
<text text-anchor="middle" x="252" y="-67" font-family="Verdana" font-size="10.00">Builder.cpp</text>
</a>
</g>
<!-- Node38&#45;&gt;Node39 -->
<g id="edge88" class="edge"><title>Node38&#45;&gt;Node39</title>
<path fill="none" stroke="midnightblue" d="M214.351,-129.151C222.262,-117.983 232.209,-103.94 239.891,-93.0944"/>
<polygon fill="midnightblue" stroke="midnightblue" points="211.449,-127.193 208.525,-137.376 217.162,-131.239 211.449,-127.193"/>
</g>
<!-- Node38&#45;&gt;Node40 -->
<g id="edge90" class="edge"><title>Node38&#45;&gt;Node40</title>
<path fill="none" stroke="midnightblue" d="M173.598,-132.216C149.61,-118.399 115.416,-98.7035 94.5199,-86.6674"/>
<polygon fill="midnightblue" stroke="midnightblue" points="172.144,-135.418 182.556,-137.376 175.637,-129.352 172.144,-135.418"/>
</g>
</g>
</svg>
