<?xml version="1.0" encoding="UTF-8" standalone="no"?>
<!DOCTYPE svg PUBLIC "-//W3C//DTD SVG 1.1//EN"
 "http://www.w3.org/Graphics/SVG/1.1/DTD/svg11.dtd">
<!-- Generated by graphviz version 2.26.3 (20100126.1600)
 -->
<!-- Title: parameter/ConfigurableElementWithMapping.h Pages: 1 -->
<svg width="450pt" height="276pt"
 viewBox="0.00 0.00 450.00 276.00" xmlns="http://www.w3.org/2000/svg" xmlns:xlink="http://www.w3.org/1999/xlink">
<g id="graph1" class="graph" transform="scale(1 1) rotate(0) translate(4 272)">
<title>parameter/ConfigurableElementWithMapping.h</title>
<polygon fill="white" stroke="white" points="-4,5 -4,-272 447,-272 447,5 -4,5"/>
<!-- Node1 -->
<g id="node1" class="node"><title>Node1</title>
<polygon fill="#bfbfbf" stroke="black" points="261,-233 261,-267 431,-267 431,-233 261,-233"/>
<text text-anchor="start" x="269" y="-254" font-family="Verdana" font-size="10.00">parameter/ConfigurableElement</text>
<text text-anchor="middle" x="346" y="-241" font-family="Verdana" font-size="10.00">WithMapping.h</text>
</g>
<!-- Node2 -->
<g id="node3" class="node"><title>Node2</title>
<a xlink:href="ConfigurableElement_8h.html" target="_top" xlink:title="ConfigurableElement.h">
<polygon fill="white" stroke="black" points="171.5,-174.5 171.5,-195.5 296.5,-195.5 296.5,-174.5 171.5,-174.5"/>
<text text-anchor="middle" x="234" y="-182.5" font-family="Verdana" font-size="10.00">ConfigurableElement.h</text>
</a>
</g>
<!-- Node1&#45;&gt;Node2 -->
<g id="edge2" class="edge"><title>Node1&#45;&gt;Node2</title>
<path fill="none" stroke="midnightblue" d="M316.573,-232.922C299.402,-222.957 277.892,-210.473 261.131,-200.745"/>
<polygon fill="midnightblue" stroke="midnightblue" points="262.771,-197.651 252.365,-195.658 259.257,-203.705 262.771,-197.651"/>
</g>
<!-- Node4 -->
<g id="node7" class="node"><title>Node4</title>
<polygon fill="white" stroke="#bfbfbf" points="398,-0.5 398,-21.5 442,-21.5 442,-0.5 398,-0.5"/>
<text text-anchor="middle" x="420" y="-8.5" font-family="Verdana" font-size="10.00">string</text>
</g>
<!-- Node1&#45;&gt;Node4 -->
<g id="edge28" class="edge"><title>Node1&#45;&gt;Node4</title>
<path fill="none" stroke="midnightblue" d="M356.416,-232.949C373.907,-203.208 408.491,-139.342 421,-80 424.354,-64.0899 423.87,-45.6562 422.676,-31.8463"/>
<polygon fill="midnightblue" stroke="midnightblue" points="426.156,-31.4759 421.625,-21.8989 419.195,-32.2113 426.156,-31.4759"/>
</g>
<!-- Node3 -->
<g id="node5" class="node"><title>Node3</title>
<a xlink:href="Element_8h.html" target="_top" xlink:title="Element.h">
<polygon fill="white" stroke="black" points="201.5,-116.5 201.5,-137.5 266.5,-137.5 266.5,-116.5 201.5,-116.5"/>
<text text-anchor="middle" x="234" y="-124.5" font-family="Verdana" font-size="10.00">Element.h</text>
</a>
</g>
<!-- Node2&#45;&gt;Node3 -->
<g id="edge4" class="edge"><title>Node2&#45;&gt;Node3</title>
<path fill="none" stroke="midnightblue" d="M234,-174.362C234,-166.922 234,-156.743 234,-147.728"/>
<polygon fill="midnightblue" stroke="midnightblue" points="237.5,-147.571 234,-137.571 230.5,-147.571 237.5,-147.571"/>
</g>
<!-- Node7 -->
<g id="node13" class="node"><title>Node7</title>
<polygon fill="white" stroke="#bfbfbf" points="0,-58.5 0,-79.5 30,-79.5 30,-58.5 0,-58.5"/>
<text text-anchor="middle" x="15" y="-66.5" font-family="Verdana" font-size="10.00">list</text>
</g>
<!-- Node2&#45;&gt;Node7 -->
<g id="edge26" class="edge"><title>Node2&#45;&gt;Node7</title>
<path fill="none" stroke="midnightblue" d="M213.79,-174.295C173.329,-152.864 82.543,-104.776 39.0811,-81.7553"/>
<polygon fill="midnightblue" stroke="midnightblue" points="40.5495,-78.5724 30.0743,-76.9846 37.273,-84.7583 40.5495,-78.5724"/>
</g>
<!-- Node3&#45;&gt;Node4 -->
<g id="edge6" class="edge"><title>Node3&#45;&gt;Node4</title>
<path fill="none" stroke="midnightblue" d="M266.525,-121.735C309.567,-114.134 382.205,-98.9015 401,-80 413.619,-67.3094 418.053,-47.0557 419.517,-31.7673"/>
<polygon fill="midnightblue" stroke="midnightblue" points="423.017,-31.8866 420.134,-21.6916 416.03,-31.4593 423.017,-31.8866"/>
</g>
<!-- Node5 -->
<g id="node9" class="node"><title>Node5</title>
<polygon fill="white" stroke="#bfbfbf" points="221.5,-0.5 221.5,-21.5 268.5,-21.5 268.5,-0.5 221.5,-0.5"/>
<text text-anchor="middle" x="245" y="-8.5" font-family="Verdana" font-size="10.00">vector</text>
</g>
<!-- Node3&#45;&gt;Node5 -->
<g id="edge8" class="edge"><title>Node3&#45;&gt;Node5</title>
<path fill="none" stroke="midnightblue" d="M235.015,-116.295C236.832,-97.1314 240.671,-56.654 243.023,-31.8434"/>
<polygon fill="midnightblue" stroke="midnightblue" points="246.528,-31.965 243.987,-21.6792 239.559,-31.3041 246.528,-31.965"/>
</g>
<!-- Node6 -->
<g id="node11" class="node"><title>Node6</title>
<polygon fill="white" stroke="#bfbfbf" points="307.5,-0.5 307.5,-21.5 360.5,-21.5 360.5,-0.5 307.5,-0.5"/>
<text text-anchor="middle" x="334" y="-8.5" font-family="Verdana" font-size="10.00">stdint.h</text>
</g>
<!-- Node3&#45;&gt;Node6 -->
<g id="edge10" class="edge"><title>Node3&#45;&gt;Node6</title>
<path fill="none" stroke="midnightblue" d="M242.719,-116.102C253.761,-102.383 273.464,-78.1675 291,-58 299.445,-48.2877 309.098,-37.6929 317.116,-29.0252"/>
<polygon fill="midnightblue" stroke="midnightblue" points="319.692,-31.3944 323.937,-21.6873 314.565,-26.6282 319.692,-31.3944"/>
</g>
<!-- Node3&#45;&gt;Node7 -->
<g id="edge12" class="edge"><title>Node3&#45;&gt;Node7</title>
<path fill="none" stroke="midnightblue" d="M201.361,-121.139C164.095,-114.014 101.296,-100.687 39.5511,-79.7239"/>
<polygon fill="midnightblue" stroke="midnightblue" points="40.6489,-76.4002 30.0541,-76.4349 38.3581,-83.0148 40.6489,-76.4002"/>
</g>
<!-- Node8 -->
<g id="node15" class="node"><title>Node8</title>
<polygon fill="white" stroke="#bfbfbf" points="48,-58.5 48,-79.5 112,-79.5 112,-58.5 48,-58.5"/>
<text text-anchor="middle" x="80" y="-66.5" font-family="Verdana" font-size="10.00">XmlSink.h</text>
</g>
<!-- Node3&#45;&gt;Node8 -->
<g id="edge14" class="edge"><title>Node3&#45;&gt;Node8</title>
<path fill="none" stroke="midnightblue" d="M206.112,-116.497C181.332,-107.164 144.905,-93.4447 117.564,-83.1475"/>
<polygon fill="midnightblue" stroke="midnightblue" points="118.532,-79.7723 107.941,-79.5231 116.065,-86.3231 118.532,-79.7723"/>
</g>
<!-- Node9 -->
<g id="node17" class="node"><title>Node9</title>
<polygon fill="white" stroke="#bfbfbf" points="129.5,-58.5 129.5,-79.5 206.5,-79.5 206.5,-58.5 129.5,-58.5"/>
<text text-anchor="middle" x="168" y="-66.5" font-family="Verdana" font-size="10.00">XmlSource.h</text>
</g>
<!-- Node3&#45;&gt;Node9 -->
<g id="edge16" class="edge"><title>Node3&#45;&gt;Node9</title>
<path fill="none" stroke="midnightblue" d="M221.895,-116.362C212.312,-107.941 198.736,-96.0105 187.607,-86.2308"/>
<polygon fill="midnightblue" stroke="midnightblue" points="189.851,-83.5427 180.029,-79.5707 185.23,-88.8009 189.851,-83.5427"/>
</g>
<!-- Node10 -->
<g id="node19" class="node"><title>Node10</title>
<a xlink:href="PathNavigator_8h.html" target="_top" xlink:title="PathNavigator.h">
<polygon fill="white" stroke="black" points="300,-58.5 300,-79.5 392,-79.5 392,-58.5 300,-58.5"/>
<text text-anchor="middle" x="346" y="-66.5" font-family="Verdana" font-size="10.00">PathNavigator.h</text>
</a>
</g>
<!-- Node3&#45;&gt;Node10 -->
<g id="edge18" class="edge"><title>Node3&#45;&gt;Node10</title>
<path fill="none" stroke="midnightblue" d="M254.282,-116.497C271.618,-107.519 296.79,-94.4835 316.38,-84.3387"/>
<polygon fill="midnightblue" stroke="midnightblue" points="318.22,-87.3278 325.49,-79.6212 315.001,-81.1118 318.22,-87.3278"/>
</g>
<!-- Node10&#45;&gt;Node4 -->
<g id="edge22" class="edge"><title>Node10&#45;&gt;Node4</title>
<path fill="none" stroke="midnightblue" d="M359.573,-58.3619C370.421,-49.859 385.834,-37.7785 398.379,-27.9466"/>
<polygon fill="midnightblue" stroke="midnightblue" points="400.802,-30.4942 406.513,-21.5707 396.484,-24.9848 400.802,-30.4942"/>
</g>
<!-- Node10&#45;&gt;Node5 -->
<g id="edge20" class="edge"><title>Node10&#45;&gt;Node5</title>
<path fill="none" stroke="midnightblue" d="M327.475,-58.3619C312.099,-49.532 290.004,-36.844 272.553,-26.8224"/>
<polygon fill="midnightblue" stroke="midnightblue" points="273.822,-23.5154 263.408,-21.5707 270.336,-29.5857 273.822,-23.5154"/>
</g>
<!-- Node10&#45;&gt;Node6 -->
<g id="edge24" class="edge"><title>Node10&#45;&gt;Node6</title>
<path fill="none" stroke="midnightblue" d="M343.799,-58.3619C342.243,-50.8401 340.107,-40.5187 338.227,-31.4308"/>
<polygon fill="midnightblue" stroke="midnightblue" points="341.641,-30.6541 336.187,-21.5707 334.786,-32.0724 341.641,-30.6541"/>
</g>
</g>
</svg>
