<?xml version="1.0" encoding="UTF-8" standalone="no"?>
<!DOCTYPE svg PUBLIC "-//W3C//DTD SVG 1.1//EN"
 "http://www.w3.org/Graphics/SVG/1.1/DTD/svg11.dtd">
<!-- Generated by graphviz version 2.26.3 (20100126.1600)
 -->
<!-- Title: parameter/ConfigurableElementAggregator.cpp Pages: 1 -->
<svg width="534pt" height="276pt"
 viewBox="0.00 0.00 534.00 276.00" xmlns="http://www.w3.org/2000/svg" xmlns:xlink="http://www.w3.org/1999/xlink">
<g id="graph1" class="graph" transform="scale(1 1) rotate(0) translate(4 272)">
<title>parameter/ConfigurableElementAggregator.cpp</title>
<polygon fill="white" stroke="white" points="-4,5 -4,-272 531,-272 531,5 -4,5"/>
<!-- Node1 -->
<g id="node1" class="node"><title>Node1</title>
<polygon fill="#bfbfbf" stroke="black" points="69,-233 69,-267 239,-267 239,-233 69,-233"/>
<text text-anchor="start" x="77" y="-254" font-family="Verdana" font-size="10.00">parameter/ConfigurableElement</text>
<text text-anchor="middle" x="154" y="-241" font-family="Verdana" font-size="10.00">Aggregator.cpp</text>
</g>
<!-- Node2 -->
<g id="node3" class="node"><title>Node2</title>
<a xlink:href="ConfigurableElementAggregator_8h.html" target="_top" xlink:title="ConfigurableElementAggregator.h">
<polygon fill="white" stroke="black" points="-0.5,-116.5 -0.5,-137.5 178.5,-137.5 178.5,-116.5 -0.5,-116.5"/>
<text text-anchor="middle" x="89" y="-124.5" font-family="Verdana" font-size="10.00">ConfigurableElementAggregator.h</text>
</a>
</g>
<!-- Node1&#45;&gt;Node2 -->
<g id="edge2" class="edge"><title>Node1&#45;&gt;Node2</title>
<path fill="none" stroke="midnightblue" d="M144.962,-232.897C133.005,-210.271 111.976,-170.477 99.3805,-146.643"/>
<polygon fill="midnightblue" stroke="midnightblue" points="102.468,-144.994 94.7007,-137.787 96.2785,-148.264 102.468,-144.994"/>
</g>
<!-- Node5 -->
<g id="node9" class="node"><title>Node5</title>
<a xlink:href="ConfigurableElement_8h.html" target="_top" xlink:title="ConfigurableElement.h">
<polygon fill="white" stroke="black" points="143.5,-174.5 143.5,-195.5 268.5,-195.5 268.5,-174.5 143.5,-174.5"/>
<text text-anchor="middle" x="206" y="-182.5" font-family="Verdana" font-size="10.00">ConfigurableElement.h</text>
</a>
</g>
<!-- Node1&#45;&gt;Node5 -->
<g id="edge8" class="edge"><title>Node1&#45;&gt;Node5</title>
<path fill="none" stroke="midnightblue" d="M167.662,-232.922C174.85,-223.937 183.676,-212.905 191.047,-203.691"/>
<polygon fill="midnightblue" stroke="midnightblue" points="193.804,-205.847 197.318,-195.852 188.338,-201.474 193.804,-205.847"/>
</g>
<!-- Node3 -->
<g id="node5" class="node"><title>Node3</title>
<polygon fill="white" stroke="#bfbfbf" points="96,-58.5 96,-79.5 126,-79.5 126,-58.5 96,-58.5"/>
<text text-anchor="middle" x="111" y="-66.5" font-family="Verdana" font-size="10.00">list</text>
</g>
<!-- Node2&#45;&gt;Node3 -->
<g id="edge4" class="edge"><title>Node2&#45;&gt;Node3</title>
<path fill="none" stroke="midnightblue" d="M93.0351,-116.362C95.9192,-108.758 99.8885,-98.294 103.363,-89.1349"/>
<polygon fill="midnightblue" stroke="midnightblue" points="106.716,-90.1619 106.99,-79.5707 100.171,-87.6793 106.716,-90.1619"/>
</g>
<!-- Node4 -->
<g id="node7" class="node"><title>Node4</title>
<polygon fill="white" stroke="#bfbfbf" points="132,-0.5 132,-21.5 176,-21.5 176,-0.5 132,-0.5"/>
<text text-anchor="middle" x="154" y="-8.5" font-family="Verdana" font-size="10.00">string</text>
</g>
<!-- Node2&#45;&gt;Node4 -->
<g id="edge6" class="edge"><title>Node2&#45;&gt;Node4</title>
<path fill="none" stroke="midnightblue" d="M85.6852,-116.479C81.8633,-102.309 77.2688,-76.7132 87,-58 94.6165,-43.3534 109.12,-32.3204 122.691,-24.6378"/>
<polygon fill="midnightblue" stroke="midnightblue" points="124.603,-27.5879 131.841,-19.8512 121.358,-21.3854 124.603,-27.5879"/>
</g>
<!-- Node5&#45;&gt;Node3 -->
<g id="edge32" class="edge"><title>Node5&#45;&gt;Node3</title>
<path fill="none" stroke="midnightblue" d="M205.434,-174.125C204.174,-159.553 200.109,-133.503 187,-116 173.94,-98.5615 152.337,-86.1116 135.495,-78.4249"/>
<polygon fill="midnightblue" stroke="midnightblue" points="136.799,-75.1759 126.229,-74.4479 134.038,-81.6084 136.799,-75.1759"/>
</g>
<!-- Node6 -->
<g id="node11" class="node"><title>Node6</title>
<a xlink:href="Element_8h.html" target="_top" xlink:title="Element.h">
<polygon fill="white" stroke="black" points="251.5,-116.5 251.5,-137.5 316.5,-137.5 316.5,-116.5 251.5,-116.5"/>
<text text-anchor="middle" x="284" y="-124.5" font-family="Verdana" font-size="10.00">Element.h</text>
</a>
</g>
<!-- Node5&#45;&gt;Node6 -->
<g id="edge10" class="edge"><title>Node5&#45;&gt;Node6</title>
<path fill="none" stroke="midnightblue" d="M220.306,-174.362C231.851,-165.777 248.3,-153.546 261.59,-143.664"/>
<polygon fill="midnightblue" stroke="midnightblue" points="263.848,-146.346 269.784,-137.571 259.671,-140.729 263.848,-146.346"/>
</g>
<!-- Node6&#45;&gt;Node3 -->
<g id="edge18" class="edge"><title>Node6&#45;&gt;Node3</title>
<path fill="none" stroke="midnightblue" d="M251.254,-116.795C221.97,-107.555 177.946,-93.3808 140,-80 138.572,-79.4964 137.107,-78.9706 135.632,-78.4337"/>
<polygon fill="midnightblue" stroke="midnightblue" points="136.595,-75.0575 126.002,-74.8443 134.15,-81.6166 136.595,-75.0575"/>
</g>
<!-- Node6&#45;&gt;Node4 -->
<g id="edge12" class="edge"><title>Node6&#45;&gt;Node4</title>
<path fill="none" stroke="midnightblue" d="M251.282,-121.153C226.407,-115.036 193.135,-102.981 173,-80 161.386,-66.7441 156.809,-46.9947 155.036,-32.0171"/>
<polygon fill="midnightblue" stroke="midnightblue" points="158.492,-31.348 154.158,-21.6805 151.517,-31.941 158.492,-31.348"/>
</g>
<!-- Node7 -->
<g id="node14" class="node"><title>Node7</title>
<polygon fill="white" stroke="#bfbfbf" points="215.5,-0.5 215.5,-21.5 262.5,-21.5 262.5,-0.5 215.5,-0.5"/>
<text text-anchor="middle" x="239" y="-8.5" font-family="Verdana" font-size="10.00">vector</text>
</g>
<!-- Node6&#45;&gt;Node7 -->
<g id="edge14" class="edge"><title>Node6&#45;&gt;Node7</title>
<path fill="none" stroke="midnightblue" d="M286.159,-116.247C288.458,-102.261 290.799,-77.332 283,-58 278.389,-46.5719 269.589,-36.27 261.063,-28.2439"/>
<polygon fill="midnightblue" stroke="midnightblue" points="263.261,-25.516 253.439,-21.5456 258.641,-30.775 263.261,-25.516"/>
</g>
<!-- Node8 -->
<g id="node16" class="node"><title>Node8</title>
<polygon fill="white" stroke="#bfbfbf" points="301.5,-0.5 301.5,-21.5 354.5,-21.5 354.5,-0.5 301.5,-0.5"/>
<text text-anchor="middle" x="328" y="-8.5" font-family="Verdana" font-size="10.00">stdint.h</text>
</g>
<!-- Node6&#45;&gt;Node8 -->
<g id="edge16" class="edge"><title>Node6&#45;&gt;Node8</title>
<path fill="none" stroke="midnightblue" d="M293.351,-116.193C300.675,-107.133 310.514,-93.5404 316,-80 322.269,-64.528 325.265,-45.8049 326.696,-31.7683"/>
<polygon fill="midnightblue" stroke="midnightblue" points="330.195,-31.9244 327.541,-21.6676 323.22,-31.3412 330.195,-31.9244"/>
</g>
<!-- Node9 -->
<g id="node19" class="node"><title>Node9</title>
<polygon fill="white" stroke="#bfbfbf" points="368,-58.5 368,-79.5 432,-79.5 432,-58.5 368,-58.5"/>
<text text-anchor="middle" x="400" y="-66.5" font-family="Verdana" font-size="10.00">XmlSink.h</text>
</g>
<!-- Node6&#45;&gt;Node9 -->
<g id="edge20" class="edge"><title>Node6&#45;&gt;Node9</title>
<path fill="none" stroke="midnightblue" d="M305.007,-116.497C323.043,-107.479 349.27,-94.3649 369.599,-84.2006"/>
<polygon fill="midnightblue" stroke="midnightblue" points="371.379,-87.2239 378.758,-79.6212 368.248,-80.9629 371.379,-87.2239"/>
</g>
<!-- Node10 -->
<g id="node21" class="node"><title>Node10</title>
<polygon fill="white" stroke="#bfbfbf" points="449.5,-58.5 449.5,-79.5 526.5,-79.5 526.5,-58.5 449.5,-58.5"/>
<text text-anchor="middle" x="488" y="-66.5" font-family="Verdana" font-size="10.00">XmlSource.h</text>
</g>
<!-- Node6&#45;&gt;Node10 -->
<g id="edge22" class="edge"><title>Node6&#45;&gt;Node10</title>
<path fill="none" stroke="midnightblue" d="M316.776,-117.681C350.378,-108.128 402.957,-93.179 440.988,-82.3662"/>
<polygon fill="midnightblue" stroke="midnightblue" points="442.15,-85.6747 450.811,-79.5733 440.235,-78.9415 442.15,-85.6747"/>
</g>
<!-- Node11 -->
<g id="node23" class="node"><title>Node11</title>
<a xlink:href="PathNavigator_8h.html" target="_top" xlink:title="PathNavigator.h">
<polygon fill="white" stroke="black" points="182,-58.5 182,-79.5 274,-79.5 274,-58.5 182,-58.5"/>
<text text-anchor="middle" x="228" y="-66.5" font-family="Verdana" font-size="10.00">PathNavigator.h</text>
</a>
</g>
<!-- Node6&#45;&gt;Node11 -->
<g id="edge24" class="edge"><title>Node6&#45;&gt;Node11</title>
<path fill="none" stroke="midnightblue" d="M273.729,-116.362C265.756,-108.104 254.525,-96.4725 245.189,-86.8029"/>
<polygon fill="midnightblue" stroke="midnightblue" points="247.67,-84.3336 238.206,-79.5707 242.634,-89.1958 247.67,-84.3336"/>
</g>
<!-- Node11&#45;&gt;Node4 -->
<g id="edge28" class="edge"><title>Node11&#45;&gt;Node4</title>
<path fill="none" stroke="midnightblue" d="M214.427,-58.3619C203.579,-49.859 188.166,-37.7785 175.621,-27.9466"/>
<polygon fill="midnightblue" stroke="midnightblue" points="177.516,-24.9848 167.487,-21.5707 173.198,-30.4942 177.516,-24.9848"/>
</g>
<!-- Node11&#45;&gt;Node7 -->
<g id="edge26" class="edge"><title>Node11&#45;&gt;Node7</title>
<path fill="none" stroke="midnightblue" d="M230.018,-58.3619C231.444,-50.8401 233.402,-40.5187 235.125,-31.4308"/>
<polygon fill="midnightblue" stroke="midnightblue" points="238.571,-32.0477 236.995,-21.5707 231.693,-30.7433 238.571,-32.0477"/>
</g>
<!-- Node11&#45;&gt;Node8 -->
<g id="edge30" class="edge"><title>Node11&#45;&gt;Node8</title>
<path fill="none" stroke="midnightblue" d="M246.342,-58.3619C261.566,-49.532 283.441,-36.844 300.72,-26.8224"/>
<polygon fill="midnightblue" stroke="midnightblue" points="302.88,-29.6155 309.775,-21.5707 299.368,-23.5603 302.88,-29.6155"/>
</g>
</g>
</svg>
