<?xml version="1.0" encoding="UTF-8" standalone="no"?>
<!DOCTYPE svg PUBLIC "-//W3C//DTD SVG 1.1//EN"
 "http://www.w3.org/Graphics/SVG/1.1/DTD/svg11.dtd">
<!-- Generated by graphviz version 2.26.3 (20100126.1600)
 -->
<!-- Title: parameter/ConfigurableElement.h Pages: 1 -->
<svg width="414pt" height="204pt"
 viewBox="0.00 0.00 414.25 204.00" xmlns="http://www.w3.org/2000/svg" xmlns:xlink="http://www.w3.org/1999/xlink">
<g id="graph1" class="graph" transform="scale(1 1) rotate(0) translate(4 200)">
<title>parameter/ConfigurableElement.h</title>
<polygon fill="white" stroke="white" points="-4,5 -4,-200 411.245,-200 411.245,5 -4,5"/>
<!-- Node1 -->
<g id="node1" class="node"><title>Node1</title>
<polygon fill="#bfbfbf" stroke="black" points="205.745,-174.5 205.745,-195.5 384.745,-195.5 384.745,-174.5 205.745,-174.5"/>
<text text-anchor="middle" x="295.245" y="-182.5" font-family="Verdana" font-size="10.00">parameter/ConfigurableElement.h</text>
</g>
<!-- Node2 -->
<g id="node3" class="node"><title>Node2</title>
<a xlink:href="Element_8h.html" target="_top" xlink:title="Element.h">
<polygon fill="white" stroke="black" points="200.745,-116.5 200.745,-137.5 265.745,-137.5 265.745,-116.5 200.745,-116.5"/>
<text text-anchor="middle" x="233.245" y="-124.5" font-family="Verdana" font-size="10.00">Element.h</text>
</a>
</g>
<!-- Node1&#45;&gt;Node2 -->
<g id="edge2" class="edge"><title>Node1&#45;&gt;Node2</title>
<path fill="none" stroke="midnightblue" d="M283.873,-174.362C274.959,-166.023 262.366,-154.242 251.969,-144.516"/>
<polygon fill="midnightblue" stroke="midnightblue" points="254.238,-141.846 244.545,-137.571 249.456,-146.958 254.238,-141.846"/>
</g>
<!-- Node6 -->
<g id="node11" class="node"><title>Node6</title>
<polygon fill="white" stroke="#bfbfbf" points="376.245,-58.5 376.245,-79.5 406.245,-79.5 406.245,-58.5 376.245,-58.5"/>
<text text-anchor="middle" x="391.245" y="-66.5" font-family="Verdana" font-size="10.00">list</text>
</g>
<!-- Node1&#45;&gt;Node6 -->
<g id="edge24" class="edge"><title>Node1&#45;&gt;Node6</title>
<path fill="none" stroke="midnightblue" d="M304.104,-174.295C320.464,-154.527 355.592,-112.08 375.898,-87.5443"/>
<polygon fill="midnightblue" stroke="midnightblue" points="378.728,-89.6147 382.407,-79.6792 373.335,-85.1517 378.728,-89.6147"/>
</g>
<!-- Node3 -->
<g id="node5" class="node"><title>Node3</title>
<polygon fill="white" stroke="#bfbfbf" points="62.245,-0.5 62.245,-21.5 106.245,-21.5 106.245,-0.5 62.245,-0.5"/>
<text text-anchor="middle" x="84.245" y="-8.5" font-family="Verdana" font-size="10.00">string</text>
</g>
<!-- Node2&#45;&gt;Node3 -->
<g id="edge4" class="edge"><title>Node2&#45;&gt;Node3</title>
<path fill="none" stroke="midnightblue" d="M200.432,-125.174C143.343,-121.237 29.4992,-109.764 5.24501,-80 -13.3582,-57.1707 23.0683,-35.6493 52.4223,-22.8936"/>
<polygon fill="midnightblue" stroke="midnightblue" points="54.1201,-25.9786 62.0163,-18.9146 51.4384,-19.5127 54.1201,-25.9786"/>
</g>
<!-- Node4 -->
<g id="node7" class="node"><title>Node4</title>
<polygon fill="white" stroke="#bfbfbf" points="198.745,-0.5 198.745,-21.5 245.745,-21.5 245.745,-0.5 198.745,-0.5"/>
<text text-anchor="middle" x="222.245" y="-8.5" font-family="Verdana" font-size="10.00">vector</text>
</g>
<!-- Node2&#45;&gt;Node4 -->
<g id="edge6" class="edge"><title>Node2&#45;&gt;Node4</title>
<path fill="none" stroke="midnightblue" d="M229.115,-116.372C225.697,-106.974 221.112,-92.806 219.245,-80 216.921,-64.0563 217.863,-45.8393 219.283,-32.1284"/>
<polygon fill="midnightblue" stroke="midnightblue" points="222.804,-32.1672 220.527,-21.8199 215.854,-31.3285 222.804,-32.1672"/>
</g>
<!-- Node5 -->
<g id="node9" class="node"><title>Node5</title>
<polygon fill="white" stroke="#bfbfbf" points="284.745,-0.5 284.745,-21.5 337.745,-21.5 337.745,-0.5 284.745,-0.5"/>
<text text-anchor="middle" x="311.245" y="-8.5" font-family="Verdana" font-size="10.00">stdint.h</text>
</g>
<!-- Node2&#45;&gt;Node5 -->
<g id="edge8" class="edge"><title>Node2&#45;&gt;Node5</title>
<path fill="none" stroke="midnightblue" d="M266.045,-120.372C288.073,-114.032 315.494,-102.042 329.245,-80 338.705,-64.8352 331.77,-44.8293 323.923,-30.266"/>
<polygon fill="midnightblue" stroke="midnightblue" points="326.897,-28.4185 318.798,-21.5874 320.87,-31.9779 326.897,-28.4185"/>
</g>
<!-- Node2&#45;&gt;Node6 -->
<g id="edge10" class="edge"><title>Node2&#45;&gt;Node6</title>
<path fill="none" stroke="midnightblue" d="M262.488,-116.469C288.661,-107.015 328.062,-92.7094 362.245,-80 363.665,-79.4722 365.122,-78.9276 366.592,-78.3763"/>
<polygon fill="midnightblue" stroke="midnightblue" points="368.088,-81.5529 376.208,-74.7468 365.616,-75.0039 368.088,-81.5529"/>
</g>
<!-- Node7 -->
<g id="node13" class="node"><title>Node7</title>
<polygon fill="white" stroke="#bfbfbf" points="14.245,-58.5 14.245,-79.5 78.245,-79.5 78.245,-58.5 14.245,-58.5"/>
<text text-anchor="middle" x="46.245" y="-66.5" font-family="Verdana" font-size="10.00">XmlSink.h</text>
</g>
<!-- Node2&#45;&gt;Node7 -->
<g id="edge12" class="edge"><title>Node2&#45;&gt;Node7</title>
<path fill="none" stroke="midnightblue" d="M200.672,-116.897C169.433,-107.208 122.123,-92.5342 88.1025,-81.9825"/>
<polygon fill="midnightblue" stroke="midnightblue" points="89.0327,-78.6066 78.4447,-78.9871 86.9589,-85.2924 89.0327,-78.6066"/>
</g>
<!-- Node8 -->
<g id="node15" class="node"><title>Node8</title>
<polygon fill="white" stroke="#bfbfbf" points="95.745,-58.5 95.745,-79.5 172.745,-79.5 172.745,-58.5 95.745,-58.5"/>
<text text-anchor="middle" x="134.245" y="-66.5" font-family="Verdana" font-size="10.00">XmlSource.h</text>
</g>
<!-- Node2&#45;&gt;Node8 -->
<g id="edge14" class="edge"><title>Node2&#45;&gt;Node8</title>
<path fill="none" stroke="midnightblue" d="M215.087,-116.362C200.015,-107.532 178.358,-94.844 161.252,-84.8224"/>
<polygon fill="midnightblue" stroke="midnightblue" points="162.686,-81.6058 152.288,-79.5707 159.147,-87.6456 162.686,-81.6058"/>
</g>
<!-- Node9 -->
<g id="node17" class="node"><title>Node9</title>
<a xlink:href="PathNavigator_8h.html" target="_top" xlink:title="PathNavigator.h">
<polygon fill="white" stroke="black" points="228.245,-58.5 228.245,-79.5 320.245,-79.5 320.245,-58.5 228.245,-58.5"/>
<text text-anchor="middle" x="274.245" y="-66.5" font-family="Verdana" font-size="10.00">PathNavigator.h</text>
</a>
</g>
<!-- Node2&#45;&gt;Node9 -->
<g id="edge16" class="edge"><title>Node2&#45;&gt;Node9</title>
<path fill="none" stroke="midnightblue" d="M240.765,-116.362C246.371,-108.431 254.177,-97.3885 260.842,-87.9606"/>
<polygon fill="midnightblue" stroke="midnightblue" points="263.858,-89.7568 266.773,-79.5707 258.142,-85.7161 263.858,-89.7568"/>
</g>
<!-- Node9&#45;&gt;Node3 -->
<g id="edge20" class="edge"><title>Node9&#45;&gt;Node3</title>
<path fill="none" stroke="midnightblue" d="M239.837,-58.4966C204.755,-47.7872 150.751,-31.3018 116.476,-20.8391"/>
<polygon fill="midnightblue" stroke="midnightblue" points="117.102,-17.3707 106.516,-17.7985 115.058,-24.0657 117.102,-17.3707"/>
</g>
<!-- Node9&#45;&gt;Node4 -->
<g id="edge18" class="edge"><title>Node9&#45;&gt;Node4</title>
<path fill="none" stroke="midnightblue" d="M264.707,-58.3619C257.377,-50.1861 247.082,-38.7025 238.464,-29.0907"/>
<polygon fill="midnightblue" stroke="midnightblue" points="241.004,-26.68 231.722,-21.5707 235.792,-31.3528 241.004,-26.68"/>
</g>
<!-- Node9&#45;&gt;Node5 -->
<g id="edge22" class="edge"><title>Node9&#45;&gt;Node5</title>
<path fill="none" stroke="midnightblue" d="M281.031,-58.3619C286.038,-50.5131 292.99,-39.6159 298.963,-30.2527"/>
<polygon fill="midnightblue" stroke="midnightblue" points="302.074,-31.8837 304.502,-21.5707 296.173,-28.1189 302.074,-31.8837"/>
</g>
</g>
</svg>
