<?xml version="1.0" encoding="UTF-8" standalone="no"?>
<!DOCTYPE svg PUBLIC "-//W3C//DTD SVG 1.1//EN"
 "http://www.w3.org/Graphics/SVG/1.1/DTD/svg11.dtd">
<!-- Generated by graphviz version 2.26.3 (20100126.1600)
 -->
<!-- Title: parameter/ConfigurableDomain.cpp Pages: 1 -->
<svg width="1801pt" height="494pt"
 viewBox="0.00 0.00 1801.45 494.00" xmlns="http://www.w3.org/2000/svg" xmlns:xlink="http://www.w3.org/1999/xlink">
<g id="graph1" class="graph" transform="scale(1 1) rotate(0) translate(4 490)">
<title>parameter/ConfigurableDomain.cpp</title>
<polygon fill="white" stroke="white" points="-4,5 -4,-490 1798.45,-490 1798.45,5 -4,5"/>
<!-- Node1 -->
<g id="node1" class="node"><title>Node1</title>
<polygon fill="#bfbfbf" stroke="black" points="1250.45,-464.5 1250.45,-485.5 1438.45,-485.5 1438.45,-464.5 1250.45,-464.5"/>
<text text-anchor="middle" x="1344.45" y="-472.5" font-family="Verdana" font-size="10.00">parameter/ConfigurableDomain.cpp</text>
</g>
<!-- Node2 -->
<g id="node3" class="node"><title>Node2</title>
<a xlink:href="ConfigurableDomain_8h.html" target="_top" xlink:title="ConfigurableDomain.h">
<polygon fill="white" stroke="black" points="1206.95,-406.5 1206.95,-427.5 1329.95,-427.5 1329.95,-406.5 1206.95,-406.5"/>
<text text-anchor="middle" x="1268.45" y="-414.5" font-family="Verdana" font-size="10.00">ConfigurableDomain.h</text>
</a>
</g>
<!-- Node1&#45;&gt;Node2 -->
<g id="edge2" class="edge"><title>Node1&#45;&gt;Node2</title>
<path fill="none" stroke="midnightblue" d="M1330.52,-464.362C1319.27,-455.777 1303.24,-443.546 1290.29,-433.664"/>
<polygon fill="midnightblue" stroke="midnightblue" points="1292.38,-430.855 1282.31,-427.571 1288.13,-436.42 1292.38,-430.855"/>
</g>
<!-- Node15 -->
<g id="node35" class="node"><title>Node15</title>
<a xlink:href="XmlDomainImportContext_8h.html" target="_top" xlink:title="XmlDomainImportContext.h">
<polygon fill="white" stroke="black" points="956.455,-348.5 956.455,-369.5 1106.45,-369.5 1106.45,-348.5 956.455,-348.5"/>
<text text-anchor="middle" x="1031.45" y="-356.5" font-family="Verdana" font-size="10.00">XmlDomainImportContext.h</text>
</a>
</g>
<!-- Node1&#45;&gt;Node15 -->
<g id="edge140" class="edge"><title>Node1&#45;&gt;Node15</title>
<path fill="none" stroke="midnightblue" d="M1309.08,-464.484C1279.34,-455.437 1235.83,-441.711 1198.45,-428 1151.41,-410.741 1098.06,-388.157 1064.58,-373.612"/>
<polygon fill="midnightblue" stroke="midnightblue" points="1065.84,-370.342 1055.28,-369.552 1063.04,-376.759 1065.84,-370.342"/>
</g>
<!-- Node16 -->
<g id="node37" class="node"><title>Node16</title>
<a xlink:href="XmlDomainSerializingContext_8h.html" target="_top" xlink:title="XmlDomainSerializingContext.h">
<polygon fill="white" stroke="black" points="1449.95,-290.5 1449.95,-311.5 1616.95,-311.5 1616.95,-290.5 1449.95,-290.5"/>
<text text-anchor="middle" x="1533.45" y="-298.5" font-family="Verdana" font-size="10.00">XmlDomainSerializingContext.h</text>
</a>
</g>
<!-- Node1&#45;&gt;Node16 -->
<g id="edge138" class="edge"><title>Node1&#45;&gt;Node16</title>
<path fill="none" stroke="midnightblue" d="M1406.93,-464.472C1459.81,-451.904 1532.44,-425.194 1567.45,-370 1577.96,-353.445 1565.23,-333.185 1552.47,-318.914"/>
<polygon fill="midnightblue" stroke="midnightblue" points="1554.96,-316.461 1545.52,-311.664 1549.91,-321.305 1554.96,-316.461"/>
</g>
<!-- Node25 -->
<g id="node63" class="node"><title>Node25</title>
<a xlink:href="ConfigurableElement_8h.html" target="_top" xlink:title="ConfigurableElement.h">
<polygon fill="white" stroke="black" points="416.955,-232.5 416.955,-253.5 541.955,-253.5 541.955,-232.5 416.955,-232.5"/>
<text text-anchor="middle" x="479.455" y="-240.5" font-family="Verdana" font-size="10.00">ConfigurableElement.h</text>
</a>
</g>
<!-- Node1&#45;&gt;Node25 -->
<g id="edge122" class="edge"><title>Node1&#45;&gt;Node25</title>
<path fill="none" stroke="midnightblue" d="M1270.96,-464.483C1138.02,-444.154 849.931,-394.093 618.455,-312 577.797,-297.581 533.62,-274.205 506.233,-258.718"/>
<polygon fill="midnightblue" stroke="midnightblue" points="507.698,-255.524 497.28,-253.597 504.222,-261.6 507.698,-255.524"/>
</g>
<!-- Node30 -->
<g id="node87" class="node"><title>Node30</title>
<a xlink:href="DomainConfiguration_8h.html" target="_top" xlink:title="DomainConfiguration.h">
<polygon fill="white" stroke="black" points="196.955,-232.5 196.955,-253.5 323.955,-253.5 323.955,-232.5 196.955,-232.5"/>
<text text-anchor="middle" x="260.455" y="-240.5" font-family="Verdana" font-size="10.00">DomainConfiguration.h</text>
</a>
</g>
<!-- Node1&#45;&gt;Node30 -->
<g id="edge114" class="edge"><title>Node1&#45;&gt;Node30</title>
<path fill="none" stroke="midnightblue" d="M1250.15,-466.7C1172.53,-459.078 1059.83,-446.195 962.455,-428 708.957,-380.633 412.227,-290.801 303.314,-256.645"/>
<polygon fill="midnightblue" stroke="midnightblue" points="304.259,-253.273 293.67,-253.611 302.159,-259.951 304.259,-253.273"/>
</g>
<!-- Node31 -->
<g id="node93" class="node"><title>Node31</title>
<a xlink:href="ConfigurationAccessContext_8h.html" target="_top" xlink:title="ConfigurationAccessContext.h">
<polygon fill="white" stroke="black" points="1608.95,-174.5 1608.95,-195.5 1769.95,-195.5 1769.95,-174.5 1608.95,-174.5"/>
<text text-anchor="middle" x="1689.45" y="-182.5" font-family="Verdana" font-size="10.00">ConfigurationAccessContext.h</text>
</a>
</g>
<!-- Node1&#45;&gt;Node31 -->
<g id="edge124" class="edge"><title>Node1&#45;&gt;Node31</title>
<path fill="none" stroke="midnightblue" d="M1421.61,-464.447C1521.92,-448.519 1684.45,-414.196 1684.45,-359 1684.45,-359 1684.45,-359 1684.45,-301 1684.45,-267.567 1686.55,-228.763 1688.03,-205.582"/>
<polygon fill="midnightblue" stroke="midnightblue" points="1691.53,-205.759 1688.7,-195.55 1684.54,-205.297 1691.53,-205.759"/>
</g>
<!-- Node34 -->
<g id="node105" class="node"><title>Node34</title>
<a xlink:href="XmlDomainExportContext_8h.html" target="_top" xlink:title="XmlDomainExportContext.h">
<polygon fill="white" stroke="black" points="1409.95,-348.5 1409.95,-369.5 1558.95,-369.5 1558.95,-348.5 1409.95,-348.5"/>
<text text-anchor="middle" x="1484.45" y="-356.5" font-family="Verdana" font-size="10.00">XmlDomainExportContext.h</text>
</a>
</g>
<!-- Node1&#45;&gt;Node34 -->
<g id="edge142" class="edge"><title>Node1&#45;&gt;Node34</title>
<path fill="none" stroke="midnightblue" d="M1357.37,-464.295C1381.65,-444.182 1434.26,-400.59 1463.61,-376.275"/>
<polygon fill="midnightblue" stroke="midnightblue" points="1466.1,-378.755 1471.57,-369.679 1461.63,-373.364 1466.1,-378.755"/>
</g>
<!-- Node35 -->
<g id="node109" class="node"><title>Node35</title>
<polygon fill="white" stroke="#bfbfbf" points="1712.45,-406.5 1712.45,-427.5 1768.45,-427.5 1768.45,-406.5 1712.45,-406.5"/>
<text text-anchor="middle" x="1740.45" y="-414.5" font-family="Verdana" font-size="10.00">assert.h</text>
</g>
<!-- Node1&#45;&gt;Node35 -->
<g id="edge148" class="edge"><title>Node1&#45;&gt;Node35</title>
<path fill="none" stroke="midnightblue" d="M1438.51,-465.729C1510.15,-457.892 1611.01,-445.188 1698.45,-428 1699.7,-427.755 1700.97,-427.494 1702.24,-427.221"/>
<polygon fill="midnightblue" stroke="midnightblue" points="1703.15,-430.605 1712.1,-424.937 1701.57,-423.785 1703.15,-430.605"/>
</g>
<!-- Node3 -->
<g id="node5" class="node"><title>Node3</title>
<a xlink:href="BinarySerializableElement_8h.html" target="_top" xlink:title="BinarySerializableElement.h">
<polygon fill="white" stroke="black" points="187.455,-174.5 187.455,-195.5 337.455,-195.5 337.455,-174.5 187.455,-174.5"/>
<text text-anchor="middle" x="262.455" y="-182.5" font-family="Verdana" font-size="10.00">BinarySerializableElement.h</text>
</a>
</g>
<!-- Node2&#45;&gt;Node3 -->
<g id="edge4" class="edge"><title>Node2&#45;&gt;Node3</title>
<path fill="none" stroke="midnightblue" d="M1206.87,-413.566C1060.38,-403.714 681.607,-368.283 389.455,-254 352.364,-239.491 312.446,-216.449 287.465,-201.032"/>
<polygon fill="midnightblue" stroke="midnightblue" points="288.994,-197.861 278.659,-195.531 285.285,-203.798 288.994,-197.861"/>
</g>
<!-- Node5 -->
<g id="node9" class="node"><title>Node5</title>
<polygon fill="white" stroke="#bfbfbf" points="1145.45,-0.5 1145.45,-21.5 1189.45,-21.5 1189.45,-0.5 1145.45,-0.5"/>
<text text-anchor="middle" x="1167.45" y="-8.5" font-family="Verdana" font-size="10.00">string</text>
</g>
<!-- Node2&#45;&gt;Node5 -->
<g id="edge112" class="edge"><title>Node2&#45;&gt;Node5</title>
<path fill="none" stroke="midnightblue" d="M1280.33,-406.36C1289.16,-397.599 1300.49,-384.327 1305.45,-370 1308.91,-360.037 1312.05,-321.945 1304.45,-290 1279.5,-185.09 1210.02,-73.9578 1180.74,-30.2452"/>
<polygon fill="midnightblue" stroke="midnightblue" points="1183.48,-28.0554 1174.98,-21.7409 1177.69,-31.9826 1183.48,-28.0554"/>
</g>
<!-- Node8 -->
<g id="node15" class="node"><title>Node8</title>
<polygon fill="white" stroke="#bfbfbf" points="723.455,-58.5 723.455,-79.5 753.455,-79.5 753.455,-58.5 723.455,-58.5"/>
<text text-anchor="middle" x="738.455" y="-66.5" font-family="Verdana" font-size="10.00">list</text>
</g>
<!-- Node2&#45;&gt;Node8 -->
<g id="edge106" class="edge"><title>Node2&#45;&gt;Node8</title>
<path fill="none" stroke="midnightblue" d="M1223.41,-406.447C1201.22,-399.302 1175.44,-387.828 1157.45,-370 1090.02,-303.152 1133.14,-247.029 1072.45,-174 1042.99,-138.541 1029.09,-133.541 986.455,-116 909.33,-84.2686 809.82,-73.7412 763.829,-70.4279"/>
<polygon fill="midnightblue" stroke="midnightblue" points="763.797,-66.9181 753.587,-69.7476 763.333,-73.9027 763.797,-66.9181"/>
</g>
<!-- Node14 -->
<g id="node33" class="node"><title>Node14</title>
<polygon fill="white" stroke="#bfbfbf" points="1347.45,-174.5 1347.45,-195.5 1477.45,-195.5 1477.45,-174.5 1347.45,-174.5"/>
<text text-anchor="middle" x="1412.45" y="-182.5" font-family="Verdana" font-size="10.00">XmlSerializingContext.h</text>
</g>
<!-- Node2&#45;&gt;Node14 -->
<g id="edge38" class="edge"><title>Node2&#45;&gt;Node14</title>
<path fill="none" stroke="midnightblue" d="M1303.17,-406.412C1322,-399.014 1344.26,-387.312 1358.45,-370 1379.39,-344.468 1400.14,-248.346 1408.55,-205.653"/>
<polygon fill="midnightblue" stroke="midnightblue" points="1412.03,-206.058 1410.5,-195.576 1405.16,-204.729 1412.03,-206.058"/>
</g>
<!-- Node2&#45;&gt;Node15 -->
<g id="edge40" class="edge"><title>Node2&#45;&gt;Node15</title>
<path fill="none" stroke="midnightblue" d="M1225.54,-406.497C1185.89,-396.795 1126.89,-382.355 1084.35,-371.945"/>
<polygon fill="midnightblue" stroke="midnightblue" points="1085,-368.501 1074.45,-369.523 1083.34,-375.3 1085,-368.501"/>
</g>
<!-- Node21 -->
<g id="node53" class="node"><title>Node21</title>
<polygon fill="white" stroke="#bfbfbf" points="939.455,-116.5 939.455,-137.5 977.455,-137.5 977.455,-116.5 939.455,-116.5"/>
<text text-anchor="middle" x="958.455" y="-124.5" font-family="Verdana" font-size="10.00">map</text>
</g>
<!-- Node2&#45;&gt;Node21 -->
<g id="edge110" class="edge"><title>Node2&#45;&gt;Node21</title>
<path fill="none" stroke="midnightblue" d="M1274.42,-406.234C1286.34,-383.148 1310.07,-327.906 1287.45,-290 1221.57,-179.587 1055.26,-141.974 987.679,-130.986"/>
<polygon fill="midnightblue" stroke="midnightblue" points="988.129,-127.514 977.712,-129.444 987.059,-134.432 988.129,-127.514"/>
</g>
<!-- Node28 -->
<g id="node77" class="node"><title>Node28</title>
<a xlink:href="SyncerSet_8h.html" target="_top" xlink:title="SyncerSet.h">
<polygon fill="white" stroke="black" points="1165.95,-348.5 1165.95,-369.5 1240.95,-369.5 1240.95,-348.5 1165.95,-348.5"/>
<text text-anchor="middle" x="1203.45" y="-356.5" font-family="Verdana" font-size="10.00">SyncerSet.h</text>
</a>
</g>
<!-- Node2&#45;&gt;Node28 -->
<g id="edge98" class="edge"><title>Node2&#45;&gt;Node28</title>
<path fill="none" stroke="midnightblue" d="M1256.53,-406.362C1247.1,-397.941 1233.72,-386.011 1222.76,-376.231"/>
<polygon fill="midnightblue" stroke="midnightblue" points="1225.09,-373.617 1215.3,-369.571 1220.43,-378.84 1225.09,-373.617"/>
</g>
<!-- Node29 -->
<g id="node79" class="node"><title>Node29</title>
<polygon fill="white" stroke="#bfbfbf" points="1246.45,-290.5 1246.45,-311.5 1278.45,-311.5 1278.45,-290.5 1246.45,-290.5"/>
<text text-anchor="middle" x="1262.45" y="-298.5" font-family="Verdana" font-size="10.00">set</text>
</g>
<!-- Node2&#45;&gt;Node29 -->
<g id="edge108" class="edge"><title>Node2&#45;&gt;Node29</title>
<path fill="none" stroke="midnightblue" d="M1267.9,-406.295C1266.91,-387.131 1264.82,-346.654 1263.53,-321.843"/>
<polygon fill="midnightblue" stroke="midnightblue" points="1267.02,-321.485 1263.01,-311.679 1260.03,-321.847 1267.02,-321.485"/>
</g>
<!-- Node4 -->
<g id="node7" class="node"><title>Node4</title>
<a xlink:href="Element_8h.html" target="_top" xlink:title="Element.h">
<polygon fill="white" stroke="black" points="348.955,-116.5 348.955,-137.5 413.955,-137.5 413.955,-116.5 348.955,-116.5"/>
<text text-anchor="middle" x="381.455" y="-124.5" font-family="Verdana" font-size="10.00">Element.h</text>
</a>
</g>
<!-- Node3&#45;&gt;Node4 -->
<g id="edge6" class="edge"><title>Node3&#45;&gt;Node4</title>
<path fill="none" stroke="midnightblue" d="M284.005,-174.497C302.591,-165.438 329.656,-152.246 350.55,-142.063"/>
<polygon fill="midnightblue" stroke="midnightblue" points="352.207,-145.149 359.663,-137.621 349.14,-138.856 352.207,-145.149"/>
</g>
<!-- Node3&#45;&gt;Node5 -->
<g id="edge36" class="edge"><title>Node3&#45;&gt;Node5</title>
<path fill="none" stroke="midnightblue" d="M265.301,-174.387C272.736,-149.01 295.359,-84.9334 340.455,-58 375.121,-37.2952 985.682,-16.7388 1134.8,-12.0116"/>
<polygon fill="midnightblue" stroke="midnightblue" points="1135.23,-15.5 1145.11,-11.6867 1135.01,-8.50349 1135.23,-15.5"/>
</g>
<!-- Node12 -->
<g id="node26" class="node"><title>Node12</title>
<a xlink:href="BinaryStream_8h.html" target="_top" xlink:title="BinaryStream.h">
<polygon fill="white" stroke="black" points="163.455,-58.5 163.455,-79.5 255.455,-79.5 255.455,-58.5 163.455,-58.5"/>
<text text-anchor="middle" x="209.455" y="-66.5" font-family="Verdana" font-size="10.00">BinaryStream.h</text>
</a>
</g>
<!-- Node3&#45;&gt;Node12 -->
<g id="edge28" class="edge"><title>Node3&#45;&gt;Node12</title>
<path fill="none" stroke="midnightblue" d="M257.563,-174.295C248.689,-154.872 229.812,-113.556 218.522,-88.8462"/>
<polygon fill="midnightblue" stroke="midnightblue" points="221.673,-87.3203 214.334,-79.6792 215.306,-90.2293 221.673,-87.3203"/>
</g>
<!-- Node4&#45;&gt;Node5 -->
<g id="edge8" class="edge"><title>Node4&#45;&gt;Node5</title>
<path fill="none" stroke="midnightblue" d="M414.09,-119.046C418.574,-117.996 423.125,-116.955 427.455,-116 554.535,-87.9739 585.809,-77.6264 714.455,-58 871.276,-34.0751 1060.53,-18.7828 1135.06,-13.2871"/>
<polygon fill="midnightblue" stroke="midnightblue" points="1135.48,-16.7654 1145.2,-12.5475 1134.98,-9.78391 1135.48,-16.7654"/>
</g>
<!-- Node6 -->
<g id="node11" class="node"><title>Node6</title>
<polygon fill="white" stroke="#bfbfbf" points="0.954576,-0.5 0.954576,-21.5 47.9546,-21.5 47.9546,-0.5 0.954576,-0.5"/>
<text text-anchor="middle" x="24.4546" y="-8.5" font-family="Verdana" font-size="10.00">vector</text>
</g>
<!-- Node4&#45;&gt;Node6 -->
<g id="edge10" class="edge"><title>Node4&#45;&gt;Node6</title>
<path fill="none" stroke="midnightblue" d="M348.915,-125.344C261.918,-120.584 29.0033,-105.551 6.45458,-80 -5.62041,-66.3171 2.17823,-45.5145 10.9673,-30.3279"/>
<polygon fill="midnightblue" stroke="midnightblue" points="14.0269,-32.0376 16.3989,-21.7117 8.1053,-28.3047 14.0269,-32.0376"/>
</g>
<!-- Node7 -->
<g id="node13" class="node"><title>Node7</title>
<polygon fill="white" stroke="#bfbfbf" points="109.955,-0.5 109.955,-21.5 162.955,-21.5 162.955,-0.5 109.955,-0.5"/>
<text text-anchor="middle" x="136.455" y="-8.5" font-family="Verdana" font-size="10.00">stdint.h</text>
</g>
<!-- Node4&#45;&gt;Node7 -->
<g id="edge12" class="edge"><title>Node4&#45;&gt;Node7</title>
<path fill="none" stroke="midnightblue" d="M348.612,-124.411C292.614,-119.331 182.025,-106.198 154.455,-80 141.456,-67.6479 137.404,-47.1847 136.336,-31.7431"/>
<polygon fill="midnightblue" stroke="midnightblue" points="139.829,-31.4536 136.001,-21.5745 132.832,-31.6844 139.829,-31.4536"/>
</g>
<!-- Node4&#45;&gt;Node8 -->
<g id="edge14" class="edge"><title>Node4&#45;&gt;Node8</title>
<path fill="none" stroke="midnightblue" d="M414.048,-118.845C418.539,-117.827 423.102,-116.848 427.455,-116 532.788,-95.4847 659.674,-78.7697 712.949,-72.1101"/>
<polygon fill="midnightblue" stroke="midnightblue" points="713.673,-75.5473 723.166,-70.8439 712.812,-68.6005 713.673,-75.5473"/>
</g>
<!-- Node9 -->
<g id="node17" class="node"><title>Node9</title>
<polygon fill="white" stroke="#bfbfbf" points="349.455,-58.5 349.455,-79.5 413.455,-79.5 413.455,-58.5 349.455,-58.5"/>
<text text-anchor="middle" x="381.455" y="-66.5" font-family="Verdana" font-size="10.00">XmlSink.h</text>
</g>
<!-- Node4&#45;&gt;Node9 -->
<g id="edge16" class="edge"><title>Node4&#45;&gt;Node9</title>
<path fill="none" stroke="midnightblue" d="M381.455,-116.362C381.455,-108.922 381.455,-98.7427 381.455,-89.7276"/>
<polygon fill="midnightblue" stroke="midnightblue" points="384.955,-89.5706 381.455,-79.5707 377.955,-89.5707 384.955,-89.5706"/>
</g>
<!-- Node10 -->
<g id="node19" class="node"><title>Node10</title>
<polygon fill="white" stroke="#bfbfbf" points="430.955,-58.5 430.955,-79.5 507.955,-79.5 507.955,-58.5 430.955,-58.5"/>
<text text-anchor="middle" x="469.455" y="-66.5" font-family="Verdana" font-size="10.00">XmlSource.h</text>
</g>
<!-- Node4&#45;&gt;Node10 -->
<g id="edge18" class="edge"><title>Node4&#45;&gt;Node10</title>
<path fill="none" stroke="midnightblue" d="M397.595,-116.362C410.868,-107.614 429.887,-95.0786 445.025,-85.1015"/>
<polygon fill="midnightblue" stroke="midnightblue" points="446.993,-87.9962 453.416,-79.5707 443.141,-82.1515 446.993,-87.9962"/>
</g>
<!-- Node11 -->
<g id="node21" class="node"><title>Node11</title>
<a xlink:href="PathNavigator_8h.html" target="_top" xlink:title="PathNavigator.h">
<polygon fill="white" stroke="black" points="15.4546,-58.5 15.4546,-79.5 107.455,-79.5 107.455,-58.5 15.4546,-58.5"/>
<text text-anchor="middle" x="61.4546" y="-66.5" font-family="Verdana" font-size="10.00">PathNavigator.h</text>
</a>
</g>
<!-- Node4&#45;&gt;Node11 -->
<g id="edge20" class="edge"><title>Node4&#45;&gt;Node11</title>
<path fill="none" stroke="midnightblue" d="M348.615,-121.091C299.288,-112.208 203.138,-94.8705 121.455,-80 120.195,-79.7706 118.92,-79.5383 117.634,-79.304"/>
<polygon fill="midnightblue" stroke="midnightblue" points="118.106,-75.8324 107.64,-77.4793 116.849,-82.7186 118.106,-75.8324"/>
</g>
<!-- Node11&#45;&gt;Node5 -->
<g id="edge24" class="edge"><title>Node11&#45;&gt;Node5</title>
<path fill="none" stroke="midnightblue" d="M107.748,-62.8649C122.638,-61.0683 139.223,-59.2525 154.455,-58 539.775,-26.3141 1009.44,-14.4048 1135.21,-11.6586"/>
<polygon fill="midnightblue" stroke="midnightblue" points="1135.4,-15.1555 1145.32,-11.4416 1135.25,-8.15711 1135.4,-15.1555"/>
</g>
<!-- Node11&#45;&gt;Node6 -->
<g id="edge22" class="edge"><title>Node11&#45;&gt;Node6</title>
<path fill="none" stroke="midnightblue" d="M54.6682,-58.3619C49.6612,-50.5131 42.7095,-39.6159 36.7365,-30.2527"/>
<polygon fill="midnightblue" stroke="midnightblue" points="39.5268,-28.1189 31.1979,-21.5707 33.6254,-31.8837 39.5268,-28.1189"/>
</g>
<!-- Node11&#45;&gt;Node7 -->
<g id="edge26" class="edge"><title>Node11&#45;&gt;Node7</title>
<path fill="none" stroke="midnightblue" d="M75.2107,-58.3619C86.2058,-49.859 101.827,-37.7785 114.541,-27.9466"/>
<polygon fill="midnightblue" stroke="midnightblue" points="117.016,-30.4569 122.786,-21.5707 112.734,-24.9195 117.016,-30.4569"/>
</g>
<!-- Node12&#45;&gt;Node5 -->
<g id="edge32" class="edge"><title>Node12&#45;&gt;Node5</title>
<path fill="none" stroke="midnightblue" d="M255.552,-59.929C260.236,-59.1935 264.932,-58.5307 269.455,-58 606.257,-18.4797 1018.03,-12.1876 1135.06,-11.1882"/>
<polygon fill="midnightblue" stroke="midnightblue" points="1135.18,-14.6875 1145.15,-11.1092 1135.12,-7.68768 1135.18,-14.6875"/>
</g>
<!-- Node12&#45;&gt;Node7 -->
<g id="edge30" class="edge"><title>Node12&#45;&gt;Node7</title>
<path fill="none" stroke="midnightblue" d="M196.065,-58.3619C185.363,-49.859 170.159,-37.7785 157.784,-27.9466"/>
<polygon fill="midnightblue" stroke="midnightblue" points="159.766,-25.0511 149.759,-21.5707 155.411,-30.5318 159.766,-25.0511"/>
</g>
<!-- Node13 -->
<g id="node30" class="node"><title>Node13</title>
<polygon fill="white" stroke="#bfbfbf" points="182.455,-0.5 182.455,-21.5 236.455,-21.5 236.455,-0.5 182.455,-0.5"/>
<text text-anchor="middle" x="209.455" y="-8.5" font-family="Verdana" font-size="10.00">fstream</text>
</g>
<!-- Node12&#45;&gt;Node13 -->
<g id="edge34" class="edge"><title>Node12&#45;&gt;Node13</title>
<path fill="none" stroke="midnightblue" d="M209.455,-58.3619C209.455,-50.9219 209.455,-40.7427 209.455,-31.7276"/>
<polygon fill="midnightblue" stroke="midnightblue" points="212.955,-31.5706 209.455,-21.5707 205.955,-31.5707 212.955,-31.5706"/>
</g>
<!-- Node15&#45;&gt;Node5 -->
<g id="edge96" class="edge"><title>Node15&#45;&gt;Node5</title>
<path fill="none" stroke="midnightblue" d="M1011.68,-348.492C998.248,-340.323 981.219,-327.743 971.455,-312 939.119,-259.866 938.448,-227.509 968.455,-174 1008.12,-103.269 1091.64,-50.8695 1136.84,-26.3825"/>
<polygon fill="midnightblue" stroke="midnightblue" points="1138.68,-29.3658 1145.87,-21.5843 1135.4,-23.1836 1138.68,-29.3658"/>
</g>
<!-- Node15&#45;&gt;Node16 -->
<g id="edge42" class="edge"><title>Node15&#45;&gt;Node16</title>
<path fill="none" stroke="midnightblue" d="M1106.61,-350.317C1195.5,-340.046 1343.53,-322.944 1439.8,-311.821"/>
<polygon fill="midnightblue" stroke="midnightblue" points="1440.29,-315.287 1449.82,-310.663 1439.49,-308.334 1440.29,-315.287"/>
</g>
<!-- Node18 -->
<g id="node44" class="node"><title>Node18</title>
<a xlink:href="SelectionCriteriaDefinition_8h.html" target="_top" xlink:title="SelectionCriteriaDefinition.h">
<polygon fill="white" stroke="black" points="626.955,-290.5 626.955,-311.5 775.955,-311.5 775.955,-290.5 626.955,-290.5"/>
<text text-anchor="middle" x="701.455" y="-298.5" font-family="Verdana" font-size="10.00">SelectionCriteriaDefinition.h</text>
</a>
</g>
<!-- Node15&#45;&gt;Node18 -->
<g id="edge52" class="edge"><title>Node15&#45;&gt;Node18</title>
<path fill="none" stroke="midnightblue" d="M971.694,-348.497C915.333,-338.591 830.856,-323.743 771.387,-313.291"/>
<polygon fill="midnightblue" stroke="midnightblue" points="771.782,-309.807 761.327,-311.523 770.57,-316.701 771.782,-309.807"/>
</g>
<!-- Node24 -->
<g id="node61" class="node"><title>Node24</title>
<a xlink:href="SystemClass_8h.html" target="_top" xlink:title="SystemClass.h">
<polygon fill="white" stroke="black" points="980.455,-290.5 980.455,-311.5 1068.45,-311.5 1068.45,-290.5 980.455,-290.5"/>
<text text-anchor="middle" x="1024.45" y="-298.5" font-family="Verdana" font-size="10.00">SystemClass.h</text>
</a>
</g>
<!-- Node15&#45;&gt;Node24 -->
<g id="edge74" class="edge"><title>Node15&#45;&gt;Node24</title>
<path fill="none" stroke="midnightblue" d="M1030.17,-348.362C1029.27,-340.922 1028.04,-330.743 1026.96,-321.728"/>
<polygon fill="midnightblue" stroke="midnightblue" points="1030.4,-321.079 1025.73,-311.571 1023.45,-321.918 1030.4,-321.079"/>
</g>
<!-- Node16&#45;&gt;Node5 -->
<g id="edge50" class="edge"><title>Node16&#45;&gt;Node5</title>
<path fill="none" stroke="midnightblue" d="M1577.06,-290.359C1595.98,-283.342 1616.33,-272.004 1627.45,-254 1642.4,-229.813 1614.75,-220.579 1600.45,-196 1566.83,-138.188 1593.98,-98.1013 1540.45,-58 1513.37,-37.7101 1285.39,-19.4503 1199.78,-13.2463"/>
<polygon fill="midnightblue" stroke="midnightblue" points="1199.82,-9.74083 1189.6,-12.5173 1199.32,-16.7229 1199.82,-9.74083"/>
</g>
<!-- Node17 -->
<g id="node39" class="node"><title>Node17</title>
<a xlink:href="XmlElementSerializingContext_8h.html" target="_top" xlink:title="XmlElementSerializingContext.h">
<polygon fill="white" stroke="black" points="1448.45,-232.5 1448.45,-253.5 1618.45,-253.5 1618.45,-232.5 1448.45,-232.5"/>
<text text-anchor="middle" x="1533.45" y="-240.5" font-family="Verdana" font-size="10.00">XmlElementSerializingContext.h</text>
</a>
</g>
<!-- Node16&#45;&gt;Node17 -->
<g id="edge44" class="edge"><title>Node16&#45;&gt;Node17</title>
<path fill="none" stroke="midnightblue" d="M1533.45,-290.362C1533.45,-282.922 1533.45,-272.743 1533.45,-263.728"/>
<polygon fill="midnightblue" stroke="midnightblue" points="1536.95,-263.571 1533.45,-253.571 1529.95,-263.571 1536.95,-263.571"/>
</g>
<!-- Node17&#45;&gt;Node5 -->
<g id="edge48" class="edge"><title>Node17&#45;&gt;Node5</title>
<path fill="none" stroke="midnightblue" d="M1536.63,-232.441C1545.37,-201.049 1566.12,-107.412 1519.45,-58 1497.63,-34.8917 1282.57,-18.5155 1199.74,-13.0196"/>
<polygon fill="midnightblue" stroke="midnightblue" points="1199.85,-9.51909 1189.64,-12.36 1199.39,-16.5042 1199.85,-9.51909"/>
</g>
<!-- Node17&#45;&gt;Node14 -->
<g id="edge46" class="edge"><title>Node17&#45;&gt;Node14</title>
<path fill="none" stroke="midnightblue" d="M1511.54,-232.497C1492.64,-223.438 1465.12,-210.246 1443.88,-200.063"/>
<polygon fill="midnightblue" stroke="midnightblue" points="1445.14,-196.788 1434.61,-195.621 1442.12,-203.1 1445.14,-196.788"/>
</g>
<!-- Node18&#45;&gt;Node4 -->
<g id="edge54" class="edge"><title>Node18&#45;&gt;Node4</title>
<path fill="none" stroke="midnightblue" d="M626.642,-298.412C550.366,-294.177 439.023,-283.065 408.455,-254 379.467,-226.439 377.693,-176.068 379.333,-147.75"/>
<polygon fill="midnightblue" stroke="midnightblue" points="382.825,-147.985 380.111,-137.744 375.846,-147.443 382.825,-147.985"/>
</g>
<!-- Node19 -->
<g id="node47" class="node"><title>Node19</title>
<a xlink:href="SelectionCriterion_8h.html" target="_top" xlink:title="SelectionCriterion.h">
<polygon fill="white" stroke="black" points="646.455,-232.5 646.455,-253.5 756.455,-253.5 756.455,-232.5 646.455,-232.5"/>
<text text-anchor="middle" x="701.455" y="-240.5" font-family="Verdana" font-size="10.00">SelectionCriterion.h</text>
</a>
</g>
<!-- Node18&#45;&gt;Node19 -->
<g id="edge56" class="edge"><title>Node18&#45;&gt;Node19</title>
<path fill="none" stroke="midnightblue" d="M701.455,-290.362C701.455,-282.922 701.455,-272.743 701.455,-263.728"/>
<polygon fill="midnightblue" stroke="midnightblue" points="704.955,-263.571 701.455,-253.571 697.955,-263.571 704.955,-263.571"/>
</g>
<!-- Node19&#45;&gt;Node4 -->
<g id="edge58" class="edge"><title>Node19&#45;&gt;Node4</title>
<path fill="none" stroke="midnightblue" d="M658.191,-232.465C624.595,-223.856 577.052,-210.735 536.455,-196 492.232,-179.95 442.858,-157.069 411.973,-142.129"/>
<polygon fill="midnightblue" stroke="midnightblue" points="413.148,-138.808 402.625,-137.575 410.083,-145.101 413.148,-138.808"/>
</g>
<!-- Node19&#45;&gt;Node5 -->
<g id="edge72" class="edge"><title>Node19&#45;&gt;Node5</title>
<path fill="none" stroke="midnightblue" d="M756.72,-233.212C787.16,-226.109 824.689,-214.436 854.455,-196 927.928,-150.493 916.052,-100.234 991.455,-58 1037.54,-32.1879 1098.4,-20.051 1135.15,-14.7322"/>
<polygon fill="midnightblue" stroke="midnightblue" points="1135.85,-18.1688 1145.29,-13.3499 1134.9,-11.233 1135.85,-18.1688"/>
</g>
<!-- Node20 -->
<g id="node50" class="node"><title>Node20</title>
<a xlink:href="SelectionCriterionType_8h.html" target="_top" xlink:title="SelectionCriterionType.h">
<polygon fill="white" stroke="black" points="714.955,-174.5 714.955,-195.5 845.955,-195.5 845.955,-174.5 714.955,-174.5"/>
<text text-anchor="middle" x="780.455" y="-182.5" font-family="Verdana" font-size="10.00">SelectionCriterionType.h</text>
</a>
</g>
<!-- Node19&#45;&gt;Node20 -->
<g id="edge60" class="edge"><title>Node19&#45;&gt;Node20</title>
<path fill="none" stroke="midnightblue" d="M715.944,-232.362C727.637,-223.777 744.297,-211.546 757.758,-201.664"/>
<polygon fill="midnightblue" stroke="midnightblue" points="760.067,-204.31 766.057,-195.571 755.924,-198.667 760.067,-204.31"/>
</g>
<!-- Node23 -->
<g id="node58" class="node"><title>Node23</title>
<polygon fill="white" stroke="#bfbfbf" points="545.455,-174.5 545.455,-195.5 697.455,-195.5 697.455,-174.5 545.455,-174.5"/>
<text text-anchor="middle" x="621.455" y="-182.5" font-family="Verdana" font-size="10.00">SelectionCriterionInterface.h</text>
</g>
<!-- Node19&#45;&gt;Node23 -->
<g id="edge70" class="edge"><title>Node19&#45;&gt;Node23</title>
<path fill="none" stroke="midnightblue" d="M686.781,-232.362C674.94,-223.777 658.07,-211.546 644.439,-201.664"/>
<polygon fill="midnightblue" stroke="midnightblue" points="646.185,-198.607 636.035,-195.571 642.077,-204.274 646.185,-198.607"/>
</g>
<!-- Node20&#45;&gt;Node4 -->
<g id="edge62" class="edge"><title>Node20&#45;&gt;Node4</title>
<path fill="none" stroke="midnightblue" d="M714.689,-175.21C711.907,-174.801 709.153,-174.396 706.455,-174 605.408,-159.183 486.639,-142.089 424.428,-133.16"/>
<polygon fill="midnightblue" stroke="midnightblue" points="424.609,-129.65 414.214,-131.694 423.615,-136.579 424.609,-129.65"/>
</g>
<!-- Node20&#45;&gt;Node5 -->
<g id="edge66" class="edge"><title>Node20&#45;&gt;Node5</title>
<path fill="none" stroke="midnightblue" d="M788.679,-174.456C810.53,-146.723 870.215,-72.8581 897.455,-58 938.026,-35.8697 1072.5,-20.2619 1135,-14.0208"/>
<polygon fill="midnightblue" stroke="midnightblue" points="1135.48,-17.4905 1145.09,-13.0323 1134.8,-10.5239 1135.48,-17.4905"/>
</g>
<!-- Node20&#45;&gt;Node21 -->
<g id="edge64" class="edge"><title>Node20&#45;&gt;Node21</title>
<path fill="none" stroke="midnightblue" d="M812.689,-174.497C845.957,-163.657 897.386,-146.899 929.425,-136.459"/>
<polygon fill="midnightblue" stroke="midnightblue" points="930.675,-139.733 939.098,-133.307 928.506,-133.077 930.675,-139.733"/>
</g>
<!-- Node22 -->
<g id="node56" class="node"><title>Node22</title>
<polygon fill="white" stroke="#bfbfbf" points="634.955,-116.5 634.955,-137.5 807.955,-137.5 807.955,-116.5 634.955,-116.5"/>
<text text-anchor="middle" x="721.455" y="-124.5" font-family="Verdana" font-size="10.00">SelectionCriterionTypeInterface.h</text>
</g>
<!-- Node20&#45;&gt;Node22 -->
<g id="edge68" class="edge"><title>Node20&#45;&gt;Node22</title>
<path fill="none" stroke="midnightblue" d="M769.633,-174.362C761.233,-166.104 749.401,-154.472 739.564,-144.803"/>
<polygon fill="midnightblue" stroke="midnightblue" points="741.792,-142.085 732.207,-137.571 736.885,-147.077 741.792,-142.085"/>
</g>
<!-- Node24&#45;&gt;Node5 -->
<g id="edge94" class="edge"><title>Node24&#45;&gt;Node5</title>
<path fill="none" stroke="midnightblue" d="M1044.74,-290.468C1058.94,-282.209 1077.44,-269.528 1089.45,-254 1143.33,-184.39 1160.56,-76.4783 1165.58,-31.6326"/>
<polygon fill="midnightblue" stroke="midnightblue" points="1169.06,-31.9574 1166.6,-21.6516 1162.1,-31.2409 1169.06,-31.9574"/>
</g>
<!-- Node24&#45;&gt;Node8 -->
<g id="edge92" class="edge"><title>Node24&#45;&gt;Node8</title>
<path fill="none" stroke="midnightblue" d="M1008.49,-290.394C995.036,-281.238 975.474,-267.406 959.455,-254 891.721,-197.315 886.502,-169.8 816.455,-116 799.426,-102.921 778.512,-90.4911 762.628,-81.7027"/>
<polygon fill="midnightblue" stroke="midnightblue" points="763.926,-78.4248 753.468,-76.7281 760.585,-84.5762 763.926,-78.4248"/>
</g>
<!-- Node24&#45;&gt;Node25 -->
<g id="edge76" class="edge"><title>Node24&#45;&gt;Node25</title>
<path fill="none" stroke="midnightblue" d="M980.317,-296.303C886.596,-286.329 666.935,-262.952 552.177,-250.739"/>
<polygon fill="midnightblue" stroke="midnightblue" points="552.394,-247.243 542.08,-249.665 551.653,-254.203 552.394,-247.243"/>
</g>
<!-- Node26 -->
<g id="node67" class="node"><title>Node26</title>
<a xlink:href="SubsystemPlugins_8h.html" target="_top" xlink:title="SubsystemPlugins.h">
<polygon fill="white" stroke="black" points="967.955,-232.5 967.955,-253.5 1080.95,-253.5 1080.95,-232.5 967.955,-232.5"/>
<text text-anchor="middle" x="1024.45" y="-240.5" font-family="Verdana" font-size="10.00">SubsystemPlugins.h</text>
</a>
</g>
<!-- Node24&#45;&gt;Node26 -->
<g id="edge82" class="edge"><title>Node24&#45;&gt;Node26</title>
<path fill="none" stroke="midnightblue" d="M1024.45,-290.362C1024.45,-282.922 1024.45,-272.743 1024.45,-263.728"/>
<polygon fill="midnightblue" stroke="midnightblue" points="1027.95,-263.571 1024.45,-253.571 1020.95,-263.571 1027.95,-263.571"/>
</g>
<!-- Node25&#45;&gt;Node4 -->
<g id="edge78" class="edge"><title>Node25&#45;&gt;Node4</title>
<path fill="none" stroke="midnightblue" d="M470.411,-232.295C453.71,-212.527 417.85,-170.08 397.121,-145.544"/>
<polygon fill="midnightblue" stroke="midnightblue" points="399.604,-143.059 390.477,-137.679 394.257,-147.577 399.604,-143.059"/>
</g>
<!-- Node25&#45;&gt;Node8 -->
<g id="edge80" class="edge"><title>Node25&#45;&gt;Node8</title>
<path fill="none" stroke="midnightblue" d="M486.685,-232.318C496.736,-217.965 516.011,-192.163 536.455,-174 591.36,-125.218 672.989,-91.9315 713.617,-77.3477"/>
<polygon fill="midnightblue" stroke="midnightblue" points="714.973,-80.581 723.25,-73.9665 712.655,-73.976 714.973,-80.581"/>
</g>
<!-- Node26&#45;&gt;Node5 -->
<g id="edge90" class="edge"><title>Node26&#45;&gt;Node5</title>
<path fill="none" stroke="midnightblue" d="M1037.4,-232.374C1047.75,-223.42 1062.19,-209.88 1072.45,-196 1112.91,-141.274 1145.3,-66.8375 1159.56,-31.3885"/>
<polygon fill="midnightblue" stroke="midnightblue" points="1162.97,-32.29 1163.4,-21.7038 1156.46,-29.7134 1162.97,-32.29"/>
</g>
<!-- Node27 -->
<g id="node69" class="node"><title>Node27</title>
<a xlink:href="KindElement_8h.html" target="_top" xlink:title="KindElement.h">
<polygon fill="white" stroke="black" points="977.455,-174.5 977.455,-195.5 1063.45,-195.5 1063.45,-174.5 977.455,-174.5"/>
<text text-anchor="middle" x="1020.45" y="-182.5" font-family="Verdana" font-size="10.00">KindElement.h</text>
</a>
</g>
<!-- Node26&#45;&gt;Node27 -->
<g id="edge84" class="edge"><title>Node26&#45;&gt;Node27</title>
<path fill="none" stroke="midnightblue" d="M1023.72,-232.362C1023.21,-224.922 1022.51,-214.743 1021.88,-205.728"/>
<polygon fill="midnightblue" stroke="midnightblue" points="1025.36,-205.306 1021.18,-195.571 1018.38,-205.788 1025.36,-205.306"/>
</g>
<!-- Node27&#45;&gt;Node4 -->
<g id="edge86" class="edge"><title>Node27&#45;&gt;Node4</title>
<path fill="none" stroke="midnightblue" d="M977.036,-181.059C860.313,-170.464 540.765,-141.46 424.489,-130.906"/>
<polygon fill="midnightblue" stroke="midnightblue" points="424.481,-127.391 414.206,-129.973 423.848,-134.362 424.481,-127.391"/>
</g>
<!-- Node27&#45;&gt;Node5 -->
<g id="edge88" class="edge"><title>Node27&#45;&gt;Node5</title>
<path fill="none" stroke="midnightblue" d="M1029.43,-174.377C1053.67,-145.688 1120.69,-66.3484 1151.54,-29.8354"/>
<polygon fill="midnightblue" stroke="midnightblue" points="1154.44,-31.8253 1158.22,-21.9277 1149.1,-27.3079 1154.44,-31.8253"/>
</g>
<!-- Node28&#45;&gt;Node5 -->
<g id="edge102" class="edge"><title>Node28&#45;&gt;Node5</title>
<path fill="none" stroke="midnightblue" d="M1203.94,-348.24C1204.47,-334.663 1205.16,-310.594 1204.45,-290 1201.1,-192.556 1180.49,-77.506 1171.57,-31.5029"/>
<polygon fill="midnightblue" stroke="midnightblue" points="1174.98,-30.7163 1169.62,-21.5805 1168.11,-32.0682 1174.98,-30.7163"/>
</g>
<!-- Node28&#45;&gt;Node8 -->
<g id="edge104" class="edge"><title>Node28&#45;&gt;Node8</title>
<path fill="none" stroke="midnightblue" d="M1203.19,-348.279C1201.53,-308.468 1189.71,-168.719 1105.45,-116 1048.22,-80.1897 837.529,-71.4993 763.987,-69.5361"/>
<polygon fill="midnightblue" stroke="midnightblue" points="763.868,-66.0322 753.784,-69.2842 763.695,-73.03 763.868,-66.0322"/>
</g>
<!-- Node28&#45;&gt;Node29 -->
<g id="edge100" class="edge"><title>Node28&#45;&gt;Node29</title>
<path fill="none" stroke="midnightblue" d="M1214.28,-348.362C1222.68,-340.104 1234.51,-328.472 1244.34,-318.803"/>
<polygon fill="midnightblue" stroke="midnightblue" points="1247.02,-321.077 1251.7,-311.571 1242.12,-316.085 1247.02,-321.077"/>
</g>
<!-- Node30&#45;&gt;Node3 -->
<g id="edge116" class="edge"><title>Node30&#45;&gt;Node3</title>
<path fill="none" stroke="midnightblue" d="M260.821,-232.362C261.078,-224.922 261.429,-214.743 261.74,-205.728"/>
<polygon fill="midnightblue" stroke="midnightblue" points="265.243,-205.685 262.09,-195.571 258.247,-205.444 265.243,-205.685"/>
</g>
<!-- Node30&#45;&gt;Node5 -->
<g id="edge120" class="edge"><title>Node30&#45;&gt;Node5</title>
<path fill="none" stroke="midnightblue" d="M225.67,-232.441C208.213,-225.182 188.656,-213.605 178.455,-196 173.552,-187.54 174.424,-182.908 178.455,-174 194.553,-138.422 274.305,-72.7699 310.455,-58 387.833,-26.3848 987.963,-14.0831 1135.01,-11.5269"/>
<polygon fill="midnightblue" stroke="midnightblue" points="1135.25,-15.0235 1145.18,-11.3531 1135.13,-8.0245 1135.25,-15.0235"/>
</g>
<!-- Node30&#45;&gt;Node8 -->
<g id="edge118" class="edge"><title>Node30&#45;&gt;Node8</title>
<path fill="none" stroke="midnightblue" d="M285.328,-232.429C339.17,-209.721 470.762,-155.17 583.455,-116 628.835,-100.227 682.683,-84.5725 713.482,-75.9044"/>
<polygon fill="midnightblue" stroke="midnightblue" points="714.675,-79.2051 723.363,-73.141 712.79,-72.4637 714.675,-79.2051"/>
</g>
<!-- Node31&#45;&gt;Node5 -->
<g id="edge136" class="edge"><title>Node31&#45;&gt;Node5</title>
<path fill="none" stroke="midnightblue" d="M1675.71,-174.481C1664.72,-165.59 1649.38,-152.081 1638.45,-138 1613.72,-106.103 1628.92,-80.575 1595.45,-58 1562.79,-35.9608 1293.53,-18.3396 1199.62,-12.812"/>
<polygon fill="midnightblue" stroke="midnightblue" points="1199.75,-9.31391 1189.57,-12.2272 1199.35,-16.3021 1199.75,-9.31391"/>
</g>
<!-- Node32 -->
<g id="node95" class="node"><title>Node32</title>
<a xlink:href="ParameterAccessContext_8h.html" target="_top" xlink:title="ParameterAccessContext.h">
<polygon fill="white" stroke="black" points="1646.95,-116.5 1646.95,-137.5 1793.95,-137.5 1793.95,-116.5 1646.95,-116.5"/>
<text text-anchor="middle" x="1720.45" y="-124.5" font-family="Verdana" font-size="10.00">ParameterAccessContext.h</text>
</a>
</g>
<!-- Node31&#45;&gt;Node32 -->
<g id="edge126" class="edge"><title>Node31&#45;&gt;Node32</title>
<path fill="none" stroke="midnightblue" d="M1695.14,-174.362C1699.29,-166.595 1705.04,-155.843 1710.01,-146.546"/>
<polygon fill="midnightblue" stroke="midnightblue" points="1713.18,-148.04 1714.8,-137.571 1707,-144.74 1713.18,-148.04"/>
</g>
<!-- Node32&#45;&gt;Node5 -->
<g id="edge134" class="edge"><title>Node32&#45;&gt;Node5</title>
<path fill="none" stroke="midnightblue" d="M1711,-116.344C1696.22,-100.502 1665.97,-71.1937 1633.45,-58 1554.37,-25.9036 1291.6,-14.8416 1199.6,-11.8999"/>
<polygon fill="midnightblue" stroke="midnightblue" points="1199.6,-8.39838 1189.5,-11.5879 1199.39,-15.395 1199.6,-8.39838"/>
</g>
<!-- Node32&#45;&gt;Node7 -->
<g id="edge128" class="edge"><title>Node32&#45;&gt;Node7</title>
<path fill="none" stroke="midnightblue" d="M1646.86,-121.425C1486.3,-109.325 1092.51,-79.9724 762.455,-58 500.768,-40.5793 431.715,-67.6653 173.455,-22 173.24,-21.9621 173.025,-21.9233 172.81,-21.8838"/>
<polygon fill="midnightblue" stroke="midnightblue" points="173.482,-18.4477 162.958,-19.6669 171.945,-25.277 173.482,-18.4477"/>
</g>
<!-- Node33 -->
<g id="node98" class="node"><title>Node33</title>
<a xlink:href="ErrorContext_8h.html" target="_top" xlink:title="ErrorContext.h">
<polygon fill="white" stroke="black" points="1685.45,-58.5 1685.45,-79.5 1771.45,-79.5 1771.45,-58.5 1685.45,-58.5"/>
<text text-anchor="middle" x="1728.45" y="-66.5" font-family="Verdana" font-size="10.00">ErrorContext.h</text>
</a>
</g>
<!-- Node32&#45;&gt;Node33 -->
<g id="edge130" class="edge"><title>Node32&#45;&gt;Node33</title>
<path fill="none" stroke="midnightblue" d="M1721.92,-116.362C1722.95,-108.922 1724.35,-98.7427 1725.6,-89.7276"/>
<polygon fill="midnightblue" stroke="midnightblue" points="1729.1,-89.9551 1727,-79.5707 1722.16,-88.9986 1729.1,-89.9551"/>
</g>
<!-- Node33&#45;&gt;Node5 -->
<g id="edge132" class="edge"><title>Node33&#45;&gt;Node5</title>
<path fill="none" stroke="midnightblue" d="M1685.27,-60.2066C1680.62,-59.3965 1675.94,-58.641 1671.45,-58 1494.47,-32.7325 1280.51,-17.9435 1200.09,-12.9352"/>
<polygon fill="midnightblue" stroke="midnightblue" points="1199.85,-9.41357 1189.65,-12.2934 1199.42,-16.4004 1199.85,-9.41357"/>
</g>
<!-- Node34&#45;&gt;Node5 -->
<g id="edge146" class="edge"><title>Node34&#45;&gt;Node5</title>
<path fill="none" stroke="midnightblue" d="M1470.42,-348.349C1460.33,-339.772 1447.48,-326.743 1441.45,-312 1428.01,-279.073 1423.71,-263.892 1439.45,-232 1451.1,-208.406 1474.81,-219.594 1486.45,-196 1490.78,-187.232 1490.8,-182.757 1486.45,-174 1431.32,-63.0076 1268.73,-26.0454 1199.38,-15.1142"/>
<polygon fill="midnightblue" stroke="midnightblue" points="1199.88,-11.6489 1189.47,-13.6301 1198.84,-18.5718 1199.88,-11.6489"/>
</g>
<!-- Node34&#45;&gt;Node16 -->
<g id="edge144" class="edge"><title>Node34&#45;&gt;Node16</title>
<path fill="none" stroke="midnightblue" d="M1493.44,-348.362C1500.28,-340.268 1509.86,-328.932 1517.93,-319.38"/>
<polygon fill="midnightblue" stroke="midnightblue" points="1520.74,-321.468 1524.52,-311.571 1515.4,-316.951 1520.74,-321.468"/>
</g>
</g>
</svg>
