<?xml version="1.0" encoding="UTF-8" standalone="no"?>
<!DOCTYPE svg PUBLIC "-//W3C//DTD SVG 1.1//EN"
 "http://www.w3.org/Graphics/SVG/1.1/DTD/svg11.dtd">
<!-- Generated by graphviz version 2.26.3 (20100126.1600)
 -->
<!-- Title: parameter/ConfigurableElementAggregator.h Pages: 1 -->
<svg width="178pt" height="102pt"
 viewBox="0.00 0.00 178.00 102.00" xmlns="http://www.w3.org/2000/svg" xmlns:xlink="http://www.w3.org/1999/xlink">
<g id="graph1" class="graph" transform="scale(1 1) rotate(0) translate(4 98)">
<title>parameter/ConfigurableElementAggregator.h</title>
<polygon fill="white" stroke="white" points="-4,5 -4,-98 175,-98 175,5 -4,5"/>
<!-- Node1 -->
<g id="node1" class="node"><title>Node1</title>
<polygon fill="#bfbfbf" stroke="black" points="0,-59 0,-93 170,-93 170,-59 0,-59"/>
<text text-anchor="start" x="8" y="-80" font-family="Verdana" font-size="10.00">parameter/ConfigurableElement</text>
<text text-anchor="middle" x="85" y="-67" font-family="Verdana" font-size="10.00">Aggregator.h</text>
</g>
<!-- Node2 -->
<g id="node3" class="node"><title>Node2</title>
<polygon fill="white" stroke="#bfbfbf" points="43,-0.5 43,-21.5 73,-21.5 73,-0.5 43,-0.5"/>
<text text-anchor="middle" x="58" y="-8.5" font-family="Verdana" font-size="10.00">list</text>
</g>
<!-- Node1&#45;&gt;Node2 -->
<g id="edge2" class="edge"><title>Node1&#45;&gt;Node2</title>
<path fill="none" stroke="midnightblue" d="M77.9061,-58.922C74.3642,-50.3954 70.0566,-40.0251 66.3555,-31.1151"/>
<polygon fill="midnightblue" stroke="midnightblue" points="69.5762,-29.7444 62.5078,-21.8521 63.1117,-32.4297 69.5762,-29.7444"/>
</g>
<!-- Node3 -->
<g id="node5" class="node"><title>Node3</title>
<polygon fill="white" stroke="#bfbfbf" points="91,-0.5 91,-21.5 135,-21.5 135,-0.5 91,-0.5"/>
<text text-anchor="middle" x="113" y="-8.5" font-family="Verdana" font-size="10.00">string</text>
</g>
<!-- Node1&#45;&gt;Node3 -->
<g id="edge4" class="edge"><title>Node1&#45;&gt;Node3</title>
<path fill="none" stroke="midnightblue" d="M92.3567,-58.922C96.0297,-50.3954 100.497,-40.0251 104.335,-31.1151"/>
<polygon fill="midnightblue" stroke="midnightblue" points="107.583,-32.4209 108.325,-21.8521 101.155,-29.6515 107.583,-32.4209"/>
</g>
</g>
</svg>
