<?xml version="1.0" encoding="UTF-8" standalone="no"?>
<!DOCTYPE svg PUBLIC "-//W3C//DTD SVG 1.1//EN"
 "http://www.w3.org/Graphics/SVG/1.1/DTD/svg11.dtd">
<!-- Generated by graphviz version 2.26.3 (20100126.1600)
 -->
<!-- Title: parameter/ConfigurationAccessContext.h Pages: 1 -->
<svg width="263pt" height="218pt"
 viewBox="0.00 0.00 263.00 218.00" xmlns="http://www.w3.org/2000/svg" xmlns:xlink="http://www.w3.org/1999/xlink">
<g id="graph1" class="graph" transform="scale(1 1) rotate(0) translate(4 214)">
<title>parameter/ConfigurationAccessContext.h</title>
<polygon fill="white" stroke="white" points="-4,5 -4,-214 260,-214 260,5 -4,5"/>
<!-- Node1 -->
<g id="node1" class="node"><title>Node1</title>
<polygon fill="#bfbfbf" stroke="black" points="87,-175 87,-209 255,-209 255,-175 87,-175"/>
<text text-anchor="start" x="95" y="-196" font-family="Verdana" font-size="10.00">parameter/ConfigurationAccess</text>
<text text-anchor="middle" x="171" y="-183" font-family="Verdana" font-size="10.00">Context.h</text>
</g>
<!-- Node2 -->
<g id="node3" class="node"><title>Node2</title>
<a xlink:href="ParameterAccessContext_8h.html" target="_top" xlink:title="ParameterAccessContext.h">
<polygon fill="white" stroke="black" points="43.5,-116.5 43.5,-137.5 190.5,-137.5 190.5,-116.5 43.5,-116.5"/>
<text text-anchor="middle" x="117" y="-124.5" font-family="Verdana" font-size="10.00">ParameterAccessContext.h</text>
</a>
</g>
<!-- Node1&#45;&gt;Node2 -->
<g id="edge2" class="edge"><title>Node1&#45;&gt;Node2</title>
<path fill="none" stroke="midnightblue" d="M156.812,-174.922C149.348,-165.937 140.182,-154.905 132.528,-145.691"/>
<polygon fill="midnightblue" stroke="midnightblue" points="135.098,-143.307 126.016,-137.852 129.714,-147.781 135.098,-143.307"/>
</g>
<!-- Node5 -->
<g id="node9" class="node"><title>Node5</title>
<polygon fill="white" stroke="#bfbfbf" points="162,-0.5 162,-21.5 206,-21.5 206,-0.5 162,-0.5"/>
<text text-anchor="middle" x="184" y="-8.5" font-family="Verdana" font-size="10.00">string</text>
</g>
<!-- Node1&#45;&gt;Node5 -->
<g id="edge12" class="edge"><title>Node1&#45;&gt;Node5</title>
<path fill="none" stroke="midnightblue" d="M182.598,-174.849C188.798,-164.632 195.798,-151.132 199,-138 208.02,-101.008 198.223,-56.5823 190.772,-31.285"/>
<polygon fill="midnightblue" stroke="midnightblue" points="194.1,-30.1987 187.785,-21.6918 187.416,-32.2802 194.1,-30.1987"/>
</g>
<!-- Node3 -->
<g id="node5" class="node"><title>Node3</title>
<polygon fill="white" stroke="#bfbfbf" points="-0.5,-58.5 -0.5,-79.5 52.5,-79.5 52.5,-58.5 -0.5,-58.5"/>
<text text-anchor="middle" x="26" y="-66.5" font-family="Verdana" font-size="10.00">stdint.h</text>
</g>
<!-- Node2&#45;&gt;Node3 -->
<g id="edge4" class="edge"><title>Node2&#45;&gt;Node3</title>
<path fill="none" stroke="midnightblue" d="M100.309,-116.362C86.5837,-107.614 66.9164,-95.0786 51.2626,-85.1015"/>
<polygon fill="midnightblue" stroke="midnightblue" points="52.899,-81.994 42.585,-79.5707 49.1366,-87.8969 52.899,-81.994"/>
</g>
<!-- Node4 -->
<g id="node7" class="node"><title>Node4</title>
<a xlink:href="ErrorContext_8h.html" target="_top" xlink:title="ErrorContext.h">
<polygon fill="white" stroke="black" points="70,-58.5 70,-79.5 156,-79.5 156,-58.5 70,-58.5"/>
<text text-anchor="middle" x="113" y="-66.5" font-family="Verdana" font-size="10.00">ErrorContext.h</text>
</a>
</g>
<!-- Node2&#45;&gt;Node4 -->
<g id="edge6" class="edge"><title>Node2&#45;&gt;Node4</title>
<path fill="none" stroke="midnightblue" d="M116.266,-116.362C115.753,-108.922 115.051,-98.7427 114.429,-89.7276"/>
<polygon fill="midnightblue" stroke="midnightblue" points="117.909,-89.3061 113.729,-79.5707 110.925,-89.7878 117.909,-89.3061"/>
</g>
<!-- Node2&#45;&gt;Node5 -->
<g id="edge10" class="edge"><title>Node2&#45;&gt;Node5</title>
<path fill="none" stroke="midnightblue" d="M131.629,-116.193C142.354,-107.533 156.476,-94.4709 165,-80 173.744,-65.1557 178.59,-46.1498 181.195,-31.845"/>
<polygon fill="midnightblue" stroke="midnightblue" points="184.651,-32.3972 182.778,-21.9692 177.739,-31.2892 184.651,-32.3972"/>
</g>
<!-- Node4&#45;&gt;Node5 -->
<g id="edge8" class="edge"><title>Node4&#45;&gt;Node5</title>
<path fill="none" stroke="midnightblue" d="M126.022,-58.3619C136.431,-49.859 151.219,-37.7785 163.255,-27.9466"/>
<polygon fill="midnightblue" stroke="midnightblue" points="165.53,-30.6077 171.06,-21.5707 161.101,-25.1866 165.53,-30.6077"/>
</g>
</g>
</svg>
