<?xml version="1.0" encoding="UTF-8" standalone="no"?>
<!DOCTYPE svg PUBLIC "-//W3C//DTD SVG 1.1//EN"
 "http://www.w3.org/Graphics/SVG/1.1/DTD/svg11.dtd">
<!-- Generated by graphviz version 2.26.3 (20100126.1600)
 -->
<!-- Title: parameter/ConfigurableElement.cpp Pages: 1 -->
<svg width="1896pt" height="494pt"
 viewBox="0.00 0.00 1896.00 494.00" xmlns="http://www.w3.org/2000/svg" xmlns:xlink="http://www.w3.org/1999/xlink">
<g id="graph1" class="graph" transform="scale(1 1) rotate(0) translate(4 490)">
<title>parameter/ConfigurableElement.cpp</title>
<polygon fill="white" stroke="white" points="-4,5 -4,-490 1893,-490 1893,5 -4,5"/>
<!-- Node1 -->
<g id="node1" class="node"><title>Node1</title>
<polygon fill="#bfbfbf" stroke="black" points="1326.5,-464.5 1326.5,-485.5 1517.5,-485.5 1517.5,-464.5 1326.5,-464.5"/>
<text text-anchor="middle" x="1422" y="-472.5" font-family="Verdana" font-size="10.00">parameter/ConfigurableElement.cpp</text>
</g>
<!-- Node2 -->
<g id="node3" class="node"><title>Node2</title>
<a xlink:href="ConfigurableElement_8h.html" target="_top" xlink:title="ConfigurableElement.h">
<polygon fill="white" stroke="black" points="1016.5,-232.5 1016.5,-253.5 1141.5,-253.5 1141.5,-232.5 1016.5,-232.5"/>
<text text-anchor="middle" x="1079" y="-240.5" font-family="Verdana" font-size="10.00">ConfigurableElement.h</text>
</a>
</g>
<!-- Node1&#45;&gt;Node2 -->
<g id="edge2" class="edge"><title>Node1&#45;&gt;Node2</title>
<path fill="none" stroke="midnightblue" d="M1406.37,-464.429C1351.8,-427.516 1169.45,-304.177 1103.26,-259.412"/>
<polygon fill="midnightblue" stroke="midnightblue" points="1104.97,-256.337 1094.72,-253.634 1101.04,-262.135 1104.97,-256.337"/>
</g>
<!-- Node11 -->
<g id="node25" class="node"><title>Node11</title>
<a xlink:href="MappingData_8h.html" target="_top" xlink:title="MappingData.h">
<polygon fill="white" stroke="black" points="-0.5,-174.5 -0.5,-195.5 88.5,-195.5 88.5,-174.5 -0.5,-174.5"/>
<text text-anchor="middle" x="44" y="-182.5" font-family="Verdana" font-size="10.00">MappingData.h</text>
</a>
</g>
<!-- Node1&#45;&gt;Node11 -->
<g id="edge28" class="edge"><title>Node1&#45;&gt;Node11</title>
<path fill="none" stroke="midnightblue" d="M1326.47,-473.403C1059.8,-468.648 319.928,-453.318 213,-428 140.806,-410.906 61,-433.19 61,-359 61,-359 61,-359 61,-301 61,-267.416 53.9379,-228.935 48.9171,-205.821"/>
<polygon fill="midnightblue" stroke="midnightblue" points="52.2708,-204.782 46.6562,-195.798 45.4424,-206.323 52.2708,-204.782"/>
</g>
<!-- Node13 -->
<g id="node31" class="node"><title>Node13</title>
<a xlink:href="SyncerSet_8h.html" target="_top" xlink:title="SyncerSet.h">
<polygon fill="white" stroke="black" points="181.5,-174.5 181.5,-195.5 256.5,-195.5 256.5,-174.5 181.5,-174.5"/>
<text text-anchor="middle" x="219" y="-182.5" font-family="Verdana" font-size="10.00">SyncerSet.h</text>
</a>
</g>
<!-- Node1&#45;&gt;Node13 -->
<g id="edge36" class="edge"><title>Node1&#45;&gt;Node13</title>
<path fill="none" stroke="midnightblue" d="M1326.31,-473.97C1167.69,-471.317 840.57,-461.839 566,-428 405.177,-408.179 208,-521.039 208,-359 208,-359 208,-359 208,-301 208,-267.448 212.617,-228.68 215.869,-205.538"/>
<polygon fill="midnightblue" stroke="midnightblue" points="219.35,-205.925 217.329,-195.524 212.423,-204.915 219.35,-205.925"/>
</g>
<!-- Node15 -->
<g id="node37" class="node"><title>Node15</title>
<a xlink:href="ConfigurableDomain_8h.html" target="_top" xlink:title="ConfigurableDomain.h">
<polygon fill="white" stroke="black" points="574.5,-406.5 574.5,-427.5 697.5,-427.5 697.5,-406.5 574.5,-406.5"/>
<text text-anchor="middle" x="636" y="-414.5" font-family="Verdana" font-size="10.00">ConfigurableDomain.h</text>
</a>
</g>
<!-- Node1&#45;&gt;Node15 -->
<g id="edge44" class="edge"><title>Node1&#45;&gt;Node15</title>
<path fill="none" stroke="midnightblue" d="M1326.41,-467.946C1166.95,-456.18 850.195,-432.806 708.018,-422.314"/>
<polygon fill="midnightblue" stroke="midnightblue" points="707.907,-418.797 697.677,-421.551 707.392,-425.778 707.907,-418.797"/>
</g>
<!-- Node31 -->
<g id="node94" class="node"><title>Node31</title>
<a xlink:href="ConfigurationAccessContext_8h.html" target="_top" xlink:title="ConfigurationAccessContext.h">
<polygon fill="white" stroke="black" points="1727.5,-174.5 1727.5,-195.5 1888.5,-195.5 1888.5,-174.5 1727.5,-174.5"/>
<text text-anchor="middle" x="1808" y="-182.5" font-family="Verdana" font-size="10.00">ConfigurationAccessContext.h</text>
</a>
</g>
<!-- Node1&#45;&gt;Node31 -->
<g id="edge126" class="edge"><title>Node1&#45;&gt;Node31</title>
<path fill="none" stroke="midnightblue" d="M1462,-464.431C1530.04,-445.266 1661,-402.701 1661,-359 1661,-359 1661,-359 1661,-301 1661,-248.259 1720.03,-215.779 1763.28,-199.06"/>
<polygon fill="midnightblue" stroke="midnightblue" points="1764.63,-202.293 1772.79,-195.536 1762.2,-195.73 1764.63,-202.293"/>
</g>
<!-- Node34 -->
<g id="node104" class="node"><title>Node34</title>
<a xlink:href="ConfigurableElementAggregator_8h.html" target="_top" xlink:title="ConfigurableElementAggregator.h">
<polygon fill="white" stroke="black" points="1311.5,-116.5 1311.5,-137.5 1490.5,-137.5 1490.5,-116.5 1311.5,-116.5"/>
<text text-anchor="middle" x="1401" y="-124.5" font-family="Verdana" font-size="10.00">ConfigurableElementAggregator.h</text>
</a>
</g>
<!-- Node1&#45;&gt;Node34 -->
<g id="edge140" class="edge"><title>Node1&#45;&gt;Node34</title>
<path fill="none" stroke="midnightblue" d="M1434.04,-464.492C1454.3,-445.586 1493,-403.626 1493,-359 1493,-359 1493,-359 1493,-301 1493,-244.528 1526.89,-221.914 1497,-174 1487.56,-158.864 1471.67,-148.469 1455.51,-141.387"/>
<polygon fill="midnightblue" stroke="midnightblue" points="1456.59,-138.051 1446.01,-137.59 1453.99,-144.551 1456.59,-138.051"/>
</g>
<!-- Node35 -->
<g id="node108" class="node"><title>Node35</title>
<a xlink:href="AreaConfiguration_8h.html" target="_top" xlink:title="AreaConfiguration.h">
<polygon fill="white" stroke="black" points="1521,-232.5 1521,-253.5 1633,-253.5 1633,-232.5 1521,-232.5"/>
<text text-anchor="middle" x="1577" y="-240.5" font-family="Verdana" font-size="10.00">AreaConfiguration.h</text>
</a>
</g>
<!-- Node1&#45;&gt;Node35 -->
<g id="edge146" class="edge"><title>Node1&#45;&gt;Node35</title>
<path fill="none" stroke="midnightblue" d="M1452.25,-464.444C1470.28,-456.796 1492.43,-444.826 1507,-428 1549.58,-378.832 1567.47,-301.15 1573.9,-264.062"/>
<polygon fill="midnightblue" stroke="midnightblue" points="1577.39,-264.362 1575.54,-253.931 1570.48,-263.243 1577.39,-264.362"/>
</g>
<!-- Node37 -->
<g id="node116" class="node"><title>Node37</title>
<polygon fill="white" stroke="#bfbfbf" points="1689,-406.5 1689,-427.5 1745,-427.5 1745,-406.5 1689,-406.5"/>
<text text-anchor="middle" x="1717" y="-414.5" font-family="Verdana" font-size="10.00">assert.h</text>
</g>
<!-- Node1&#45;&gt;Node37 -->
<g id="edge158" class="edge"><title>Node1&#45;&gt;Node37</title>
<path fill="none" stroke="midnightblue" d="M1485.68,-464.486C1537,-455.697 1610.91,-442.326 1675,-428 1676.24,-427.723 1677.5,-427.434 1678.77,-427.137"/>
<polygon fill="midnightblue" stroke="midnightblue" points="1679.72,-430.509 1688.6,-424.736 1678.06,-423.709 1679.72,-430.509"/>
</g>
<!-- Node3 -->
<g id="node5" class="node"><title>Node3</title>
<a xlink:href="Element_8h.html" target="_top" xlink:title="Element.h">
<polygon fill="white" stroke="black" points="885.5,-116.5 885.5,-137.5 950.5,-137.5 950.5,-116.5 885.5,-116.5"/>
<text text-anchor="middle" x="918" y="-124.5" font-family="Verdana" font-size="10.00">Element.h</text>
</a>
</g>
<!-- Node2&#45;&gt;Node3 -->
<g id="edge4" class="edge"><title>Node2&#45;&gt;Node3</title>
<path fill="none" stroke="midnightblue" d="M1064.14,-232.295C1035.99,-212.009 974.683,-167.84 941.114,-143.653"/>
<polygon fill="midnightblue" stroke="midnightblue" points="942.981,-140.685 932.822,-137.679 938.889,-146.365 942.981,-140.685"/>
</g>
<!-- Node7 -->
<g id="node13" class="node"><title>Node7</title>
<polygon fill="white" stroke="#bfbfbf" points="1020,-58.5 1020,-79.5 1050,-79.5 1050,-58.5 1020,-58.5"/>
<text text-anchor="middle" x="1035" y="-66.5" font-family="Verdana" font-size="10.00">list</text>
</g>
<!-- Node2&#45;&gt;Node7 -->
<g id="edge26" class="edge"><title>Node2&#45;&gt;Node7</title>
<path fill="none" stroke="midnightblue" d="M1076.31,-232.377C1069.18,-204.172 1049.67,-127.012 1040.24,-89.7203"/>
<polygon fill="midnightblue" stroke="midnightblue" points="1043.61,-88.7645 1037.76,-79.9277 1036.82,-90.4806 1043.61,-88.7645"/>
</g>
<!-- Node4 -->
<g id="node7" class="node"><title>Node4</title>
<polygon fill="white" stroke="#bfbfbf" points="1108,-0.5 1108,-21.5 1152,-21.5 1152,-0.5 1108,-0.5"/>
<text text-anchor="middle" x="1130" y="-8.5" font-family="Verdana" font-size="10.00">string</text>
</g>
<!-- Node3&#45;&gt;Node4 -->
<g id="edge6" class="edge"><title>Node3&#45;&gt;Node4</title>
<path fill="none" stroke="midnightblue" d="M930.217,-116.281C947.345,-101.654 979.896,-75.2858 1011,-58 1039.16,-42.3522 1073.6,-29.3504 1098.17,-21.0182"/>
<polygon fill="midnightblue" stroke="midnightblue" points="1099.34,-24.3193 1107.72,-17.8454 1097.13,-17.6762 1099.34,-24.3193"/>
</g>
<!-- Node5 -->
<g id="node9" class="node"><title>Node5</title>
<polygon fill="white" stroke="#bfbfbf" points="704.5,-0.5 704.5,-21.5 751.5,-21.5 751.5,-0.5 704.5,-0.5"/>
<text text-anchor="middle" x="728" y="-8.5" font-family="Verdana" font-size="10.00">vector</text>
</g>
<!-- Node3&#45;&gt;Node5 -->
<g id="edge8" class="edge"><title>Node3&#45;&gt;Node5</title>
<path fill="none" stroke="midnightblue" d="M885.306,-119.58C847.199,-110.441 787.123,-94.3613 769,-80 753.028,-67.3432 741.924,-46.6282 735.339,-31.1929"/>
<polygon fill="midnightblue" stroke="midnightblue" points="738.44,-29.5179 731.497,-21.5144 731.933,-32.1002 738.44,-29.5179"/>
</g>
<!-- Node6 -->
<g id="node11" class="node"><title>Node6</title>
<polygon fill="white" stroke="#bfbfbf" points="1664.5,-0.5 1664.5,-21.5 1717.5,-21.5 1717.5,-0.5 1664.5,-0.5"/>
<text text-anchor="middle" x="1691" y="-8.5" font-family="Verdana" font-size="10.00">stdint.h</text>
</g>
<!-- Node3&#45;&gt;Node6 -->
<g id="edge10" class="edge"><title>Node3&#45;&gt;Node6</title>
<path fill="none" stroke="midnightblue" d="M950.721,-122.09C1075.78,-103.322 1523.12,-36.193 1654.48,-16.48"/>
<polygon fill="midnightblue" stroke="midnightblue" points="1655.08,-19.9301 1664.45,-14.9847 1654.04,-13.0076 1655.08,-19.9301"/>
</g>
<!-- Node3&#45;&gt;Node7 -->
<g id="edge12" class="edge"><title>Node3&#45;&gt;Node7</title>
<path fill="none" stroke="midnightblue" d="M939.188,-116.497C959.403,-106.475 989.821,-91.3963 1010.94,-80.9272"/>
<polygon fill="midnightblue" stroke="midnightblue" points="1012.51,-84.0536 1019.92,-76.4762 1009.4,-77.7819 1012.51,-84.0536"/>
</g>
<!-- Node8 -->
<g id="node15" class="node"><title>Node8</title>
<polygon fill="white" stroke="#bfbfbf" points="447,-58.5 447,-79.5 511,-79.5 511,-58.5 447,-58.5"/>
<text text-anchor="middle" x="479" y="-66.5" font-family="Verdana" font-size="10.00">XmlSink.h</text>
</g>
<!-- Node3&#45;&gt;Node8 -->
<g id="edge14" class="edge"><title>Node3&#45;&gt;Node8</title>
<path fill="none" stroke="midnightblue" d="M885.215,-120.061C877.615,-118.592 869.543,-117.142 862,-116 713.066,-93.4618 673.444,-105.569 525,-80 523.725,-79.7805 522.434,-79.5463 521.132,-79.3002"/>
<polygon fill="midnightblue" stroke="midnightblue" points="521.563,-75.8155 511.062,-77.222 520.148,-82.671 521.563,-75.8155"/>
</g>
<!-- Node9 -->
<g id="node17" class="node"><title>Node9</title>
<polygon fill="white" stroke="#bfbfbf" points="777.5,-58.5 777.5,-79.5 854.5,-79.5 854.5,-58.5 777.5,-58.5"/>
<text text-anchor="middle" x="816" y="-66.5" font-family="Verdana" font-size="10.00">XmlSource.h</text>
</g>
<!-- Node3&#45;&gt;Node9 -->
<g id="edge16" class="edge"><title>Node3&#45;&gt;Node9</title>
<path fill="none" stroke="midnightblue" d="M899.292,-116.362C883.619,-107.45 861.036,-94.6087 843.337,-84.5447"/>
<polygon fill="midnightblue" stroke="midnightblue" points="845.013,-81.4712 834.59,-79.5707 841.553,-87.5562 845.013,-81.4712"/>
</g>
<!-- Node10 -->
<g id="node19" class="node"><title>Node10</title>
<a xlink:href="PathNavigator_8h.html" target="_top" xlink:title="PathNavigator.h">
<polygon fill="white" stroke="black" points="872,-58.5 872,-79.5 964,-79.5 964,-58.5 872,-58.5"/>
<text text-anchor="middle" x="918" y="-66.5" font-family="Verdana" font-size="10.00">PathNavigator.h</text>
</a>
</g>
<!-- Node3&#45;&gt;Node10 -->
<g id="edge18" class="edge"><title>Node3&#45;&gt;Node10</title>
<path fill="none" stroke="midnightblue" d="M918,-116.362C918,-108.922 918,-98.7427 918,-89.7276"/>
<polygon fill="midnightblue" stroke="midnightblue" points="921.5,-89.5706 918,-79.5707 914.5,-89.5707 921.5,-89.5706"/>
</g>
<!-- Node10&#45;&gt;Node4 -->
<g id="edge22" class="edge"><title>Node10&#45;&gt;Node4</title>
<path fill="none" stroke="midnightblue" d="M956.392,-58.4966C996.856,-47.4263 1059.88,-30.1842 1097.83,-19.8024"/>
<polygon fill="midnightblue" stroke="midnightblue" points="1099.1,-23.0818 1107.82,-17.0669 1097.26,-16.3299 1099.1,-23.0818"/>
</g>
<!-- Node10&#45;&gt;Node5 -->
<g id="edge20" class="edge"><title>Node10&#45;&gt;Node5</title>
<path fill="none" stroke="midnightblue" d="M883.592,-58.4966C848.845,-47.8896 795.537,-31.6165 761.22,-21.1408"/>
<polygon fill="midnightblue" stroke="midnightblue" points="762.235,-17.7913 751.649,-18.2191 760.191,-24.4863 762.235,-17.7913"/>
</g>
<!-- Node10&#45;&gt;Node6 -->
<g id="edge24" class="edge"><title>Node10&#45;&gt;Node6</title>
<path fill="none" stroke="midnightblue" d="M964.311,-63.0719C979.203,-61.2865 995.784,-59.4249 1011,-58 1256.23,-35.0363 1552.19,-18.3453 1654.29,-12.9065"/>
<polygon fill="midnightblue" stroke="midnightblue" points="1654.59,-16.3956 1664.39,-12.3715 1654.22,-9.40539 1654.59,-16.3956"/>
</g>
<!-- Node11&#45;&gt;Node4 -->
<g id="edge32" class="edge"><title>Node11&#45;&gt;Node4</title>
<path fill="none" stroke="midnightblue" d="M45.3205,-174.325C47.7411,-159.258 54.2795,-131.831 71,-116 130.807,-59.3754 166.057,-73.2112 247,-58 331.727,-42.0778 947.612,-17.911 1097.29,-12.2271"/>
<polygon fill="midnightblue" stroke="midnightblue" points="1097.77,-15.7114 1107.63,-11.8355 1097.51,-8.71637 1097.77,-15.7114"/>
</g>
<!-- Node11&#45;&gt;Node8 -->
<g id="edge30" class="edge"><title>Node11&#45;&gt;Node8</title>
<path fill="none" stroke="midnightblue" d="M49.3207,-174.448C57.8588,-158.742 76.2103,-129.608 101,-116 157.971,-84.7265 350.286,-73.7695 436.532,-70.3671"/>
<polygon fill="midnightblue" stroke="midnightblue" points="436.892,-73.856 446.753,-69.9798 436.627,-66.861 436.892,-73.856"/>
</g>
<!-- Node12 -->
<g id="node29" class="node"><title>Node12</title>
<polygon fill="white" stroke="#bfbfbf" points="110,-116.5 110,-137.5 148,-137.5 148,-116.5 110,-116.5"/>
<text text-anchor="middle" x="129" y="-124.5" font-family="Verdana" font-size="10.00">map</text>
</g>
<!-- Node11&#45;&gt;Node12 -->
<g id="edge34" class="edge"><title>Node11&#45;&gt;Node12</title>
<path fill="none" stroke="midnightblue" d="M59.5903,-174.362C72.291,-165.696 90.4385,-153.313 104.992,-143.382"/>
<polygon fill="midnightblue" stroke="midnightblue" points="107.221,-146.098 113.509,-137.571 103.276,-140.316 107.221,-146.098"/>
</g>
<!-- Node13&#45;&gt;Node4 -->
<g id="edge40" class="edge"><title>Node13&#45;&gt;Node4</title>
<path fill="none" stroke="midnightblue" d="M219.643,-174.163C221.788,-148.867 230.987,-85.9558 270,-58 304.236,-33.4671 944.55,-15.7072 1097.42,-11.8052"/>
<polygon fill="midnightblue" stroke="midnightblue" points="1097.67,-15.3003 1107.57,-11.5483 1097.49,-8.30257 1097.67,-15.3003"/>
</g>
<!-- Node13&#45;&gt;Node7 -->
<g id="edge42" class="edge"><title>Node13&#45;&gt;Node7</title>
<path fill="none" stroke="midnightblue" d="M256.526,-178.867C334.036,-166.291 517.497,-137.001 672,-116 805.504,-97.8537 839.728,-99.7761 973,-80 985.128,-78.2003 998.53,-75.8662 1009.76,-73.8114"/>
<polygon fill="midnightblue" stroke="midnightblue" points="1010.56,-77.2228 1019.75,-71.9534 1009.28,-70.3408 1010.56,-77.2228"/>
</g>
<!-- Node14 -->
<g id="node33" class="node"><title>Node14</title>
<polygon fill="white" stroke="#bfbfbf" points="171,-116.5 171,-137.5 203,-137.5 203,-116.5 171,-116.5"/>
<text text-anchor="middle" x="187" y="-124.5" font-family="Verdana" font-size="10.00">set</text>
</g>
<!-- Node13&#45;&gt;Node14 -->
<g id="edge38" class="edge"><title>Node13&#45;&gt;Node14</title>
<path fill="none" stroke="midnightblue" d="M213.131,-174.362C208.845,-166.595 202.913,-155.843 197.784,-146.546"/>
<polygon fill="midnightblue" stroke="midnightblue" points="200.727,-144.636 192.832,-137.571 194.598,-148.017 200.727,-144.636"/>
</g>
<!-- Node15&#45;&gt;Node4 -->
<g id="edge124" class="edge"><title>Node15&#45;&gt;Node4</title>
<path fill="none" stroke="midnightblue" d="M697.613,-412.137C851.205,-398.572 1244.06,-354.512 1318,-254 1342.93,-220.118 1347.52,-218.638 1191,-58 1180.07,-46.7832 1166.37,-35.9908 1154.73,-27.5829"/>
<polygon fill="midnightblue" stroke="midnightblue" points="1156.49,-24.5457 1146.3,-21.6505 1152.46,-30.2694 1156.49,-24.5457"/>
</g>
<!-- Node15&#45;&gt;Node7 -->
<g id="edge118" class="edge"><title>Node15&#45;&gt;Node7</title>
<path fill="none" stroke="midnightblue" d="M655.531,-406.485C672.672,-397.159 698.198,-383.033 720,-370 798.196,-323.256 822.302,-316.056 889,-254 913.917,-230.817 917.616,-222.478 939,-196 969.314,-158.465 1002.92,-113.068 1021.24,-87.9839"/>
<polygon fill="midnightblue" stroke="midnightblue" points="1024.2,-89.8579 1027.26,-79.7136 1018.55,-85.7377 1024.2,-89.8579"/>
</g>
<!-- Node15&#45;&gt;Node12 -->
<g id="edge122" class="edge"><title>Node15&#45;&gt;Node12</title>
<path fill="none" stroke="midnightblue" d="M574.417,-415.183C468.996,-411.298 258.845,-399.956 192,-370 150.367,-351.342 116,-346.622 116,-301 116,-301 116,-301 116,-243 116,-209.389 121.457,-170.638 125.3,-147.516"/>
<polygon fill="midnightblue" stroke="midnightblue" points="128.775,-147.961 127.026,-137.512 121.876,-146.771 128.775,-147.961"/>
</g>
<!-- Node15&#45;&gt;Node13 -->
<g id="edge116" class="edge"><title>Node15&#45;&gt;Node13</title>
<path fill="none" stroke="midnightblue" d="M574.205,-408.257C534.407,-401.191 482.223,-389.192 439,-370 355.736,-333.03 335.536,-317.283 270,-254 254.529,-239.061 240.287,-219.026 230.809,-204.395"/>
<polygon fill="midnightblue" stroke="midnightblue" points="233.599,-202.258 225.303,-195.668 227.679,-205.993 233.599,-202.258"/>
</g>
<!-- Node15&#45;&gt;Node14 -->
<g id="edge120" class="edge"><title>Node15&#45;&gt;Node14</title>
<path fill="none" stroke="midnightblue" d="M574.465,-415.023C444.524,-409.174 154,-386.532 154,-301 154,-301 154,-301 154,-243 154,-208.138 167.959,-169.555 177.72,-146.838"/>
<polygon fill="midnightblue" stroke="midnightblue" points="180.969,-148.146 181.844,-137.587 174.575,-145.296 180.969,-148.146"/>
</g>
<!-- Node16 -->
<g id="node39" class="node"><title>Node16</title>
<a xlink:href="BinarySerializableElement_8h.html" target="_top" xlink:title="BinarySerializableElement.h">
<polygon fill="white" stroke="black" points="1338,-174.5 1338,-195.5 1488,-195.5 1488,-174.5 1338,-174.5"/>
<text text-anchor="middle" x="1413" y="-182.5" font-family="Verdana" font-size="10.00">BinarySerializableElement.h</text>
</a>
</g>
<!-- Node15&#45;&gt;Node16 -->
<g id="edge46" class="edge"><title>Node15&#45;&gt;Node16</title>
<path fill="none" stroke="midnightblue" d="M697.756,-414.801C866.636,-408.543 1325.3,-389.801 1351,-370 1402.77,-330.106 1411.72,-245.252 1412.99,-205.876"/>
<polygon fill="midnightblue" stroke="midnightblue" points="1416.5,-205.694 1413.18,-195.632 1409.5,-205.567 1416.5,-205.694"/>
</g>
<!-- Node19 -->
<g id="node49" class="node"><title>Node19</title>
<polygon fill="white" stroke="#bfbfbf" points="312,-174.5 312,-195.5 442,-195.5 442,-174.5 312,-174.5"/>
<text text-anchor="middle" x="377" y="-182.5" font-family="Verdana" font-size="10.00">XmlSerializingContext.h</text>
</g>
<!-- Node15&#45;&gt;Node19 -->
<g id="edge60" class="edge"><title>Node15&#45;&gt;Node19</title>
<path fill="none" stroke="midnightblue" d="M587.875,-406.492C518.964,-388.568 394.592,-344.84 341,-254 330.978,-237.013 344.09,-216.965 357.211,-202.869"/>
<polygon fill="midnightblue" stroke="midnightblue" points="359.771,-205.259 364.356,-195.707 354.815,-200.315 359.771,-205.259"/>
</g>
<!-- Node20 -->
<g id="node51" class="node"><title>Node20</title>
<a xlink:href="XmlDomainImportContext_8h.html" target="_top" xlink:title="XmlDomainImportContext.h">
<polygon fill="white" stroke="black" points="561,-348.5 561,-369.5 711,-369.5 711,-348.5 561,-348.5"/>
<text text-anchor="middle" x="636" y="-356.5" font-family="Verdana" font-size="10.00">XmlDomainImportContext.h</text>
</a>
</g>
<!-- Node15&#45;&gt;Node20 -->
<g id="edge62" class="edge"><title>Node15&#45;&gt;Node20</title>
<path fill="none" stroke="midnightblue" d="M636,-406.362C636,-398.922 636,-388.743 636,-379.728"/>
<polygon fill="midnightblue" stroke="midnightblue" points="639.5,-379.571 636,-369.571 632.5,-379.571 639.5,-379.571"/>
</g>
<!-- Node16&#45;&gt;Node3 -->
<g id="edge48" class="edge"><title>Node16&#45;&gt;Node3</title>
<path fill="none" stroke="midnightblue" d="M1337.82,-176.191C1232.54,-163.855 1044.68,-141.843 960.659,-131.998"/>
<polygon fill="midnightblue" stroke="midnightblue" points="961.041,-128.519 950.701,-130.832 960.226,-135.472 961.041,-128.519"/>
</g>
<!-- Node16&#45;&gt;Node4 -->
<g id="edge58" class="edge"><title>Node16&#45;&gt;Node4</title>
<path fill="none" stroke="midnightblue" d="M1371.12,-174.435C1348.83,-167.134 1322.16,-155.517 1303,-138 1273.21,-110.761 1290.55,-84.3811 1260,-58 1232.01,-33.8335 1190.62,-21.7316 1162.1,-15.9259"/>
<polygon fill="midnightblue" stroke="midnightblue" points="1162.7,-12.4772 1152.22,-14.0611 1161.4,-19.3557 1162.7,-12.4772"/>
</g>
<!-- Node17 -->
<g id="node42" class="node"><title>Node17</title>
<a xlink:href="BinaryStream_8h.html" target="_top" xlink:title="BinaryStream.h">
<polygon fill="white" stroke="black" points="1508,-116.5 1508,-137.5 1600,-137.5 1600,-116.5 1508,-116.5"/>
<text text-anchor="middle" x="1554" y="-124.5" font-family="Verdana" font-size="10.00">BinaryStream.h</text>
</a>
</g>
<!-- Node16&#45;&gt;Node17 -->
<g id="edge50" class="edge"><title>Node16&#45;&gt;Node17</title>
<path fill="none" stroke="midnightblue" d="M1438.53,-174.497C1460.95,-165.275 1493.78,-151.769 1518.71,-141.515"/>
<polygon fill="midnightblue" stroke="midnightblue" points="1520.26,-144.662 1528.18,-137.621 1517.6,-138.189 1520.26,-144.662"/>
</g>
<!-- Node17&#45;&gt;Node4 -->
<g id="edge54" class="edge"><title>Node17&#45;&gt;Node4</title>
<path fill="none" stroke="midnightblue" d="M1522.6,-116.447C1479.78,-102.24 1400.56,-76.6029 1332,-58 1272.51,-41.8566 1202.25,-26.2852 1162.23,-17.7406"/>
<polygon fill="midnightblue" stroke="midnightblue" points="1162.76,-14.276 1152.25,-15.6229 1161.31,-21.1234 1162.76,-14.276"/>
</g>
<!-- Node17&#45;&gt;Node6 -->
<g id="edge52" class="edge"><title>Node17&#45;&gt;Node6</title>
<path fill="none" stroke="midnightblue" d="M1600.04,-118.963C1624.59,-112.409 1653.47,-100.7 1672,-80 1683.76,-66.8696 1688.32,-47.1066 1690.05,-32.092"/>
<polygon fill="midnightblue" stroke="midnightblue" points="1693.57,-31.9753 1690.89,-21.7243 1686.59,-31.4074 1693.57,-31.9753"/>
</g>
<!-- Node18 -->
<g id="node46" class="node"><title>Node18</title>
<polygon fill="white" stroke="#bfbfbf" points="1467,-58.5 1467,-79.5 1521,-79.5 1521,-58.5 1467,-58.5"/>
<text text-anchor="middle" x="1494" y="-66.5" font-family="Verdana" font-size="10.00">fstream</text>
</g>
<!-- Node17&#45;&gt;Node18 -->
<g id="edge56" class="edge"><title>Node17&#45;&gt;Node18</title>
<path fill="none" stroke="midnightblue" d="M1543,-116.362C1534.45,-108.104 1522.42,-96.4725 1512.42,-86.8029"/>
<polygon fill="midnightblue" stroke="midnightblue" points="1514.56,-84.0044 1504.94,-79.5707 1509.69,-89.0374 1514.56,-84.0044"/>
</g>
<!-- Node20&#45;&gt;Node4 -->
<g id="edge114" class="edge"><title>Node20&#45;&gt;Node4</title>
<path fill="none" stroke="midnightblue" d="M570.433,-348.488C506.295,-335.459 408.656,-308.013 341,-254 309.914,-229.183 284,-224.777 284,-185 284,-185 284,-185 284,-127 284,-58.4272 355.82,-75.9577 422,-58 552.119,-22.6925 977.351,-13.4021 1097.89,-11.4507"/>
<polygon fill="midnightblue" stroke="midnightblue" points="1098.01,-14.9493 1107.95,-11.2936 1097.9,-7.9502 1098.01,-14.9493"/>
</g>
<!-- Node21 -->
<g id="node53" class="node"><title>Node21</title>
<a xlink:href="XmlDomainSerializingContext_8h.html" target="_top" xlink:title="XmlDomainSerializingContext.h">
<polygon fill="white" stroke="black" points="464.5,-290.5 464.5,-311.5 631.5,-311.5 631.5,-290.5 464.5,-290.5"/>
<text text-anchor="middle" x="548" y="-298.5" font-family="Verdana" font-size="10.00">XmlDomainSerializingContext.h</text>
</a>
</g>
<!-- Node20&#45;&gt;Node21 -->
<g id="edge64" class="edge"><title>Node20&#45;&gt;Node21</title>
<path fill="none" stroke="midnightblue" d="M619.859,-348.362C606.586,-339.614 587.568,-327.079 572.43,-317.101"/>
<polygon fill="midnightblue" stroke="midnightblue" points="574.314,-314.151 564.038,-311.571 570.462,-319.996 574.314,-314.151"/>
</g>
<!-- Node23 -->
<g id="node60" class="node"><title>Node23</title>
<a xlink:href="SelectionCriteriaDefinition_8h.html" target="_top" xlink:title="SelectionCriteriaDefinition.h">
<polygon fill="white" stroke="black" points="653.5,-290.5 653.5,-311.5 802.5,-311.5 802.5,-290.5 653.5,-290.5"/>
<text text-anchor="middle" x="728" y="-298.5" font-family="Verdana" font-size="10.00">SelectionCriteriaDefinition.h</text>
</a>
</g>
<!-- Node20&#45;&gt;Node23 -->
<g id="edge74" class="edge"><title>Node20&#45;&gt;Node23</title>
<path fill="none" stroke="midnightblue" d="M652.874,-348.362C666.751,-339.614 686.634,-327.079 702.46,-317.101"/>
<polygon fill="midnightblue" stroke="midnightblue" points="704.64,-319.864 711.233,-311.571 700.907,-313.943 704.64,-319.864"/>
</g>
<!-- Node28 -->
<g id="node76" class="node"><title>Node28</title>
<a xlink:href="SystemClass_8h.html" target="_top" xlink:title="SystemClass.h">
<polygon fill="white" stroke="black" points="1035,-290.5 1035,-311.5 1123,-311.5 1123,-290.5 1035,-290.5"/>
<text text-anchor="middle" x="1079" y="-298.5" font-family="Verdana" font-size="10.00">SystemClass.h</text>
</a>
</g>
<!-- Node20&#45;&gt;Node28 -->
<g id="edge96" class="edge"><title>Node20&#45;&gt;Node28</title>
<path fill="none" stroke="midnightblue" d="M711.149,-349.161C800.096,-337.516 946.035,-318.408 1024.7,-308.11"/>
<polygon fill="midnightblue" stroke="midnightblue" points="1025.41,-311.546 1034.87,-306.777 1024.5,-304.605 1025.41,-311.546"/>
</g>
<!-- Node21&#45;&gt;Node4 -->
<g id="edge72" class="edge"><title>Node21&#45;&gt;Node4</title>
<path fill="none" stroke="midnightblue" d="M547.673,-290.275C547.253,-268.169 547.579,-216.078 558,-174 574.225,-108.488 593.452,-83.3539 656,-58 736.539,-25.3535 1004.33,-14.6325 1097.62,-11.8405"/>
<polygon fill="midnightblue" stroke="midnightblue" points="1097.96,-15.3322 1107.86,-11.5453 1097.76,-8.33511 1097.96,-15.3322"/>
</g>
<!-- Node22 -->
<g id="node55" class="node"><title>Node22</title>
<a xlink:href="XmlElementSerializingContext_8h.html" target="_top" xlink:title="XmlElementSerializingContext.h">
<polygon fill="white" stroke="black" points="350,-232.5 350,-253.5 520,-253.5 520,-232.5 350,-232.5"/>
<text text-anchor="middle" x="435" y="-240.5" font-family="Verdana" font-size="10.00">XmlElementSerializingContext.h</text>
</a>
</g>
<!-- Node21&#45;&gt;Node22 -->
<g id="edge66" class="edge"><title>Node21&#45;&gt;Node22</title>
<path fill="none" stroke="midnightblue" d="M527.537,-290.497C509.967,-281.479 484.418,-268.365 464.615,-258.201"/>
<polygon fill="midnightblue" stroke="midnightblue" points="466.188,-255.074 455.693,-253.621 462.991,-261.301 466.188,-255.074"/>
</g>
<!-- Node22&#45;&gt;Node4 -->
<g id="edge70" class="edge"><title>Node22&#45;&gt;Node4</title>
<path fill="none" stroke="midnightblue" d="M439.717,-232.432C443.621,-223.072 448.86,-208.926 451,-196 461.062,-135.222 395.941,-103.013 438,-58 460.812,-33.5856 964.4,-16.1718 1097.81,-11.9756"/>
<polygon fill="midnightblue" stroke="midnightblue" points="1097.93,-15.4736 1107.82,-11.6638 1097.71,-8.47697 1097.93,-15.4736"/>
</g>
<!-- Node22&#45;&gt;Node19 -->
<g id="edge68" class="edge"><title>Node22&#45;&gt;Node19</title>
<path fill="none" stroke="midnightblue" d="M424.362,-232.362C416.104,-224.104 404.472,-212.472 394.803,-202.803"/>
<polygon fill="midnightblue" stroke="midnightblue" points="397.117,-200.167 387.571,-195.571 392.167,-205.117 397.117,-200.167"/>
</g>
<!-- Node23&#45;&gt;Node3 -->
<g id="edge76" class="edge"><title>Node23&#45;&gt;Node3</title>
<path fill="none" stroke="midnightblue" d="M774.185,-290.412C820.527,-277.057 889.427,-249.12 921,-196 929.592,-181.544 927.869,-162.218 924.555,-147.696"/>
<polygon fill="midnightblue" stroke="midnightblue" points="927.839,-146.432 921.855,-137.689 921.081,-148.255 927.839,-146.432"/>
</g>
<!-- Node24 -->
<g id="node63" class="node"><title>Node24</title>
<a xlink:href="SelectionCriterion_8h.html" target="_top" xlink:title="SelectionCriterion.h">
<polygon fill="white" stroke="black" points="673,-232.5 673,-253.5 783,-253.5 783,-232.5 673,-232.5"/>
<text text-anchor="middle" x="728" y="-240.5" font-family="Verdana" font-size="10.00">SelectionCriterion.h</text>
</a>
</g>
<!-- Node23&#45;&gt;Node24 -->
<g id="edge78" class="edge"><title>Node23&#45;&gt;Node24</title>
<path fill="none" stroke="midnightblue" d="M728,-290.362C728,-282.922 728,-272.743 728,-263.728"/>
<polygon fill="midnightblue" stroke="midnightblue" points="731.5,-263.571 728,-253.571 724.5,-263.571 731.5,-263.571"/>
</g>
<!-- Node24&#45;&gt;Node3 -->
<g id="edge80" class="edge"><title>Node24&#45;&gt;Node3</title>
<path fill="none" stroke="midnightblue" d="M728.551,-232.262C729.916,-217.118 734.643,-189.599 751,-174 760.138,-165.285 828.964,-147.82 875.359,-136.808"/>
<polygon fill="midnightblue" stroke="midnightblue" points="876.247,-140.195 885.177,-134.494 874.641,-133.382 876.247,-140.195"/>
</g>
<!-- Node24&#45;&gt;Node4 -->
<g id="edge94" class="edge"><title>Node24&#45;&gt;Node4</title>
<path fill="none" stroke="midnightblue" d="M672.867,-234.341C630.89,-226.491 578.147,-213.474 565,-196 559.121,-188.187 560.75,-182.806 565,-174 601.026,-99.3632 634.395,-89.6274 711,-58 781.075,-29.0684 1012.07,-16.1849 1097.7,-12.321"/>
<polygon fill="midnightblue" stroke="midnightblue" points="1098.02,-15.8101 1107.86,-11.8742 1097.72,-8.81681 1098.02,-15.8101"/>
</g>
<!-- Node25 -->
<g id="node66" class="node"><title>Node25</title>
<a xlink:href="SelectionCriterionType_8h.html" target="_top" xlink:title="SelectionCriterionType.h">
<polygon fill="white" stroke="black" points="573.5,-174.5 573.5,-195.5 704.5,-195.5 704.5,-174.5 573.5,-174.5"/>
<text text-anchor="middle" x="639" y="-182.5" font-family="Verdana" font-size="10.00">SelectionCriterionType.h</text>
</a>
</g>
<!-- Node24&#45;&gt;Node25 -->
<g id="edge82" class="edge"><title>Node24&#45;&gt;Node25</title>
<path fill="none" stroke="midnightblue" d="M711.676,-232.362C698.252,-223.614 679.017,-211.079 663.707,-201.101"/>
<polygon fill="midnightblue" stroke="midnightblue" points="665.509,-198.098 655.22,-195.571 661.688,-203.963 665.509,-198.098"/>
</g>
<!-- Node27 -->
<g id="node73" class="node"><title>Node27</title>
<polygon fill="white" stroke="#bfbfbf" points="760,-174.5 760,-195.5 912,-195.5 912,-174.5 760,-174.5"/>
<text text-anchor="middle" x="836" y="-182.5" font-family="Verdana" font-size="10.00">SelectionCriterionInterface.h</text>
</g>
<!-- Node24&#45;&gt;Node27 -->
<g id="edge92" class="edge"><title>Node24&#45;&gt;Node27</title>
<path fill="none" stroke="midnightblue" d="M747.558,-232.497C764.198,-223.56 788.327,-210.602 807.18,-200.477"/>
<polygon fill="midnightblue" stroke="midnightblue" points="809.069,-203.436 816.223,-195.621 805.757,-197.269 809.069,-203.436"/>
</g>
<!-- Node25&#45;&gt;Node3 -->
<g id="edge84" class="edge"><title>Node25&#45;&gt;Node3</title>
<path fill="none" stroke="midnightblue" d="M689.525,-174.497C742.706,-163.441 825.498,-146.23 875.459,-135.844"/>
<polygon fill="midnightblue" stroke="midnightblue" points="876.219,-139.261 885.297,-133.798 874.794,-132.407 876.219,-139.261"/>
</g>
<!-- Node25&#45;&gt;Node4 -->
<g id="edge88" class="edge"><title>Node25&#45;&gt;Node4</title>
<path fill="none" stroke="midnightblue" d="M642.042,-174.057C646.564,-159.41 656.259,-133.274 672,-116 705.832,-78.8728 721.549,-74.4754 769,-58 829.588,-36.9635 1021,-19.7418 1097.73,-13.508"/>
<polygon fill="midnightblue" stroke="midnightblue" points="1098.08,-16.9911 1107.77,-12.7021 1097.52,-10.0136 1098.08,-16.9911"/>
</g>
<!-- Node25&#45;&gt;Node12 -->
<g id="edge86" class="edge"><title>Node25&#45;&gt;Node12</title>
<path fill="none" stroke="midnightblue" d="M573.444,-180.363C461.66,-172.151 238.808,-154.37 162,-138 160.738,-137.731 159.456,-137.43 158.167,-137.105"/>
<polygon fill="midnightblue" stroke="midnightblue" points="158.923,-133.68 148.344,-134.248 156.969,-140.401 158.923,-133.68"/>
</g>
<!-- Node26 -->
<g id="node71" class="node"><title>Node26</title>
<polygon fill="white" stroke="#bfbfbf" points="680.5,-116.5 680.5,-137.5 853.5,-137.5 853.5,-116.5 680.5,-116.5"/>
<text text-anchor="middle" x="767" y="-124.5" font-family="Verdana" font-size="10.00">SelectionCriterionTypeInterface.h</text>
</g>
<!-- Node25&#45;&gt;Node26 -->
<g id="edge90" class="edge"><title>Node25&#45;&gt;Node26</title>
<path fill="none" stroke="midnightblue" d="M662.18,-174.497C682.352,-165.356 711.81,-152.008 734.364,-141.788"/>
<polygon fill="midnightblue" stroke="midnightblue" points="735.896,-144.937 743.56,-137.621 733.007,-138.561 735.896,-144.937"/>
</g>
<!-- Node28&#45;&gt;Node2 -->
<g id="edge98" class="edge"><title>Node28&#45;&gt;Node2</title>
<path fill="none" stroke="midnightblue" d="M1079,-290.362C1079,-282.922 1079,-272.743 1079,-263.728"/>
<polygon fill="midnightblue" stroke="midnightblue" points="1082.5,-263.571 1079,-253.571 1075.5,-263.571 1082.5,-263.571"/>
</g>
<!-- Node28&#45;&gt;Node4 -->
<g id="edge112" class="edge"><title>Node28&#45;&gt;Node4</title>
<path fill="none" stroke="midnightblue" d="M1107.06,-290.353C1122.74,-282.784 1140.9,-270.929 1150,-254 1155.24,-244.255 1138.58,-88.3656 1132.3,-31.5285"/>
<polygon fill="midnightblue" stroke="midnightblue" points="1135.77,-31.1065 1131.19,-21.5545 1128.82,-31.88 1135.77,-31.1065"/>
</g>
<!-- Node28&#45;&gt;Node7 -->
<g id="edge110" class="edge"><title>Node28&#45;&gt;Node7</title>
<path fill="none" stroke="midnightblue" d="M1050.94,-290.353C1035.26,-282.784 1017.1,-270.929 1008,-254 978.917,-199.87 1007.61,-124.629 1024.54,-89.1017"/>
<polygon fill="midnightblue" stroke="midnightblue" points="1027.84,-90.3155 1029.14,-79.8002 1021.57,-87.2119 1027.84,-90.3155"/>
</g>
<!-- Node29 -->
<g id="node79" class="node"><title>Node29</title>
<a xlink:href="SubsystemPlugins_8h.html" target="_top" xlink:title="SubsystemPlugins.h">
<polygon fill="white" stroke="black" points="1196.5,-232.5 1196.5,-253.5 1309.5,-253.5 1309.5,-232.5 1196.5,-232.5"/>
<text text-anchor="middle" x="1253" y="-240.5" font-family="Verdana" font-size="10.00">SubsystemPlugins.h</text>
</a>
</g>
<!-- Node28&#45;&gt;Node29 -->
<g id="edge100" class="edge"><title>Node28&#45;&gt;Node29</title>
<path fill="none" stroke="midnightblue" d="M1110.51,-290.497C1138.88,-281.041 1180.75,-267.083 1211.77,-256.743"/>
<polygon fill="midnightblue" stroke="midnightblue" points="1213.05,-260.006 1221.43,-253.523 1210.84,-253.365 1213.05,-260.006"/>
</g>
<!-- Node29&#45;&gt;Node4 -->
<g id="edge108" class="edge"><title>Node29&#45;&gt;Node4</title>
<path fill="none" stroke="midnightblue" d="M1254.99,-232.395C1257.15,-218.567 1259.48,-193.81 1253,-174 1248.03,-158.813 1177.75,-70.6608 1168,-58 1160.7,-48.5218 1152.37,-38.1649 1145.37,-29.5914"/>
<polygon fill="midnightblue" stroke="midnightblue" points="1147.95,-27.2206 1138.9,-21.711 1142.54,-31.6615 1147.95,-27.2206"/>
</g>
<!-- Node30 -->
<g id="node81" class="node"><title>Node30</title>
<a xlink:href="KindElement_8h.html" target="_top" xlink:title="KindElement.h">
<polygon fill="white" stroke="black" points="1158,-174.5 1158,-195.5 1244,-195.5 1244,-174.5 1158,-174.5"/>
<text text-anchor="middle" x="1201" y="-182.5" font-family="Verdana" font-size="10.00">KindElement.h</text>
</a>
</g>
<!-- Node29&#45;&gt;Node30 -->
<g id="edge102" class="edge"><title>Node29&#45;&gt;Node30</title>
<path fill="none" stroke="midnightblue" d="M1243.46,-232.362C1236.13,-224.186 1225.84,-212.702 1217.22,-203.091"/>
<polygon fill="midnightblue" stroke="midnightblue" points="1219.76,-200.68 1210.48,-195.571 1214.55,-205.353 1219.76,-200.68"/>
</g>
<!-- Node30&#45;&gt;Node3 -->
<g id="edge104" class="edge"><title>Node30&#45;&gt;Node3</title>
<path fill="none" stroke="midnightblue" d="M1157.71,-176.128C1104.29,-165.18 1014.02,-146.68 960.821,-135.776"/>
<polygon fill="midnightblue" stroke="midnightblue" points="961.196,-132.28 950.697,-133.701 959.791,-139.138 961.196,-132.28"/>
</g>
<!-- Node30&#45;&gt;Node4 -->
<g id="edge106" class="edge"><title>Node30&#45;&gt;Node4</title>
<path fill="none" stroke="midnightblue" d="M1196.67,-174.377C1185.11,-146.051 1153.4,-68.3488 1138.26,-31.2424"/>
<polygon fill="midnightblue" stroke="midnightblue" points="1141.48,-29.8642 1134.46,-21.9277 1135,-32.5089 1141.48,-29.8642"/>
</g>
<!-- Node31&#45;&gt;Node4 -->
<g id="edge138" class="edge"><title>Node31&#45;&gt;Node4</title>
<path fill="none" stroke="midnightblue" d="M1756.82,-174.433C1724.41,-166.691 1682.14,-154.624 1647,-138 1618.53,-124.53 1559.5,-69.047 1530,-58 1495.79,-45.186 1250.82,-21.9677 1162.03,-13.8748"/>
<polygon fill="midnightblue" stroke="midnightblue" points="1162.28,-10.3828 1152,-12.9645 1161.65,-17.3542 1162.28,-10.3828"/>
</g>
<!-- Node32 -->
<g id="node96" class="node"><title>Node32</title>
<a xlink:href="ParameterAccessContext_8h.html" target="_top" xlink:title="ParameterAccessContext.h">
<polygon fill="white" stroke="black" points="1655.5,-116.5 1655.5,-137.5 1802.5,-137.5 1802.5,-116.5 1655.5,-116.5"/>
<text text-anchor="middle" x="1729" y="-124.5" font-family="Verdana" font-size="10.00">ParameterAccessContext.h</text>
</a>
</g>
<!-- Node31&#45;&gt;Node32 -->
<g id="edge128" class="edge"><title>Node31&#45;&gt;Node32</title>
<path fill="none" stroke="midnightblue" d="M1793.51,-174.362C1781.82,-165.777 1765.16,-153.546 1751.7,-143.664"/>
<polygon fill="midnightblue" stroke="midnightblue" points="1753.53,-140.667 1743.4,-137.571 1749.39,-146.31 1753.53,-140.667"/>
</g>
<!-- Node32&#45;&gt;Node4 -->
<g id="edge136" class="edge"><title>Node32&#45;&gt;Node4</title>
<path fill="none" stroke="midnightblue" d="M1723.74,-116.332C1715.29,-100.474 1697.04,-71.1445 1672,-58 1626.83,-34.2869 1271.85,-17.1228 1162.17,-12.3438"/>
<polygon fill="midnightblue" stroke="midnightblue" points="1162.19,-8.84153 1152.05,-11.9078 1161.89,-15.835 1162.19,-8.84153"/>
</g>
<!-- Node32&#45;&gt;Node6 -->
<g id="edge130" class="edge"><title>Node32&#45;&gt;Node6</title>
<path fill="none" stroke="midnightblue" d="M1735.05,-116.28C1742.06,-102.329 1751.63,-77.4379 1743,-58 1737.6,-45.8358 1727.32,-35.4865 1717.32,-27.6217"/>
<polygon fill="midnightblue" stroke="midnightblue" points="1719.23,-24.6872 1709.1,-21.6143 1715.11,-30.3395 1719.23,-24.6872"/>
</g>
<!-- Node33 -->
<g id="node99" class="node"><title>Node33</title>
<a xlink:href="ErrorContext_8h.html" target="_top" xlink:title="ErrorContext.h">
<polygon fill="white" stroke="black" points="1577,-58.5 1577,-79.5 1663,-79.5 1663,-58.5 1577,-58.5"/>
<text text-anchor="middle" x="1620" y="-66.5" font-family="Verdana" font-size="10.00">ErrorContext.h</text>
</a>
</g>
<!-- Node32&#45;&gt;Node33 -->
<g id="edge132" class="edge"><title>Node32&#45;&gt;Node33</title>
<path fill="none" stroke="midnightblue" d="M1709.26,-116.497C1692.39,-107.519 1667.89,-94.4835 1648.83,-84.3387"/>
<polygon fill="midnightblue" stroke="midnightblue" points="1650.43,-81.2289 1639.96,-79.6212 1647.14,-87.4086 1650.43,-81.2289"/>
</g>
<!-- Node33&#45;&gt;Node4 -->
<g id="edge134" class="edge"><title>Node33&#45;&gt;Node4</title>
<path fill="none" stroke="midnightblue" d="M1576.8,-60.2758C1572.15,-59.4525 1567.48,-58.675 1563,-58 1414,-35.5752 1234.61,-19.5837 1162.41,-13.5975"/>
<polygon fill="midnightblue" stroke="midnightblue" points="1162.42,-10.0859 1152.16,-12.7552 1161.84,-17.0624 1162.42,-10.0859"/>
</g>
<!-- Node34&#45;&gt;Node4 -->
<g id="edge144" class="edge"><title>Node34&#45;&gt;Node4</title>
<path fill="none" stroke="midnightblue" d="M1388.15,-116.401C1369.41,-101.428 1333,-74.1139 1298,-58 1253,-37.2792 1196.91,-23.8489 1162.28,-16.8523"/>
<polygon fill="midnightblue" stroke="midnightblue" points="1162.75,-13.3767 1152.26,-14.8866 1161.4,-20.2459 1162.75,-13.3767"/>
</g>
<!-- Node34&#45;&gt;Node7 -->
<g id="edge142" class="edge"><title>Node34&#45;&gt;Node7</title>
<path fill="none" stroke="midnightblue" d="M1334.72,-116.497C1252.45,-103.459 1116.16,-81.8618 1060.18,-72.9911"/>
<polygon fill="midnightblue" stroke="midnightblue" points="1060.52,-69.5013 1050.1,-71.3929 1059.43,-76.415 1060.52,-69.5013"/>
</g>
<!-- Node35&#45;&gt;Node13 -->
<g id="edge156" class="edge"><title>Node35&#45;&gt;Node13</title>
<path fill="none" stroke="midnightblue" d="M1520.92,-240.505C1468.47,-238.198 1387.93,-234.725 1318,-232 866.948,-214.423 752.847,-233.347 303,-196 291.21,-195.021 278.536,-193.571 266.697,-192.043"/>
<polygon fill="midnightblue" stroke="midnightblue" points="266.927,-188.543 256.552,-190.69 266.002,-195.482 266.927,-188.543"/>
</g>
<!-- Node35&#45;&gt;Node17 -->
<g id="edge154" class="edge"><title>Node35&#45;&gt;Node17</title>
<path fill="none" stroke="midnightblue" d="M1574.88,-232.295C1571.06,-213.045 1562.98,-172.289 1558.07,-147.509"/>
<polygon fill="midnightblue" stroke="midnightblue" points="1561.5,-146.808 1556.12,-137.679 1554.63,-148.169 1561.5,-146.808"/>
</g>
<!-- Node36 -->
<g id="node110" class="node"><title>Node36</title>
<a xlink:href="ParameterBlackboard_8h.html" target="_top" xlink:title="ParameterBlackboard.h">
<polygon fill="white" stroke="black" points="1581.5,-174.5 1581.5,-195.5 1710.5,-195.5 1710.5,-174.5 1581.5,-174.5"/>
<text text-anchor="middle" x="1646" y="-182.5" font-family="Verdana" font-size="10.00">ParameterBlackboard.h</text>
</a>
</g>
<!-- Node35&#45;&gt;Node36 -->
<g id="edge148" class="edge"><title>Node35&#45;&gt;Node36</title>
<path fill="none" stroke="midnightblue" d="M1589.66,-232.362C1599.67,-223.941 1613.87,-212.011 1625.5,-202.231"/>
<polygon fill="midnightblue" stroke="midnightblue" points="1628.02,-204.684 1633.42,-195.571 1623.52,-199.326 1628.02,-204.684"/>
</g>
<!-- Node36&#45;&gt;Node6 -->
<g id="edge150" class="edge"><title>Node36&#45;&gt;Node6</title>
<path fill="none" stroke="midnightblue" d="M1710.52,-174.789C1751.3,-166.868 1798.57,-154.462 1811,-138 1844.09,-94.173 1770.37,-48.8235 1724.36,-26.0204"/>
<polygon fill="midnightblue" stroke="midnightblue" points="1725.82,-22.8364 1715.29,-21.6364 1722.77,-29.139 1725.82,-22.8364"/>
</g>
<!-- Node36&#45;&gt;Node17 -->
<g id="edge152" class="edge"><title>Node36&#45;&gt;Node17</title>
<path fill="none" stroke="midnightblue" d="M1629.13,-174.362C1615.25,-165.614 1595.37,-153.079 1579.54,-143.101"/>
<polygon fill="midnightblue" stroke="midnightblue" points="1581.09,-139.943 1570.77,-137.571 1577.36,-145.864 1581.09,-139.943"/>
</g>
</g>
</svg>
