<?xml version="1.0" encoding="UTF-8" standalone="no"?>
<!DOCTYPE svg PUBLIC "-//W3C//DTD SVG 1.1//EN"
 "http://www.w3.org/Graphics/SVG/1.1/DTD/svg11.dtd">
<!-- Generated by graphviz version 2.26.3 (20100126.1600)
 -->
<!-- Title: remote&#45;processor/ConnectionSocket.cpp Pages: 1 -->
<svg width="558pt" height="218pt"
 viewBox="0.00 0.00 558.00 218.00" xmlns="http://www.w3.org/2000/svg" xmlns:xlink="http://www.w3.org/1999/xlink">
<g id="graph1" class="graph" transform="scale(1 1) rotate(0) translate(4 214)">
<title>remote&#45;processor/ConnectionSocket.cpp</title>
<polygon fill="white" stroke="white" points="-4,5 -4,-214 555,-214 555,5 -4,5"/>
<!-- Node1 -->
<g id="node1" class="node"><title>Node1</title>
<polygon fill="#bfbfbf" stroke="black" points="227,-175 227,-209 387,-209 387,-175 227,-175"/>
<text text-anchor="start" x="235" y="-196" font-family="Verdana" font-size="10.00">remote&#45;processor/Connection</text>
<text text-anchor="middle" x="307" y="-183" font-family="Verdana" font-size="10.00">Socket.cpp</text>
</g>
<!-- Node2 -->
<g id="node3" class="node"><title>Node2</title>
<a xlink:href="ConnectionSocket_8h.html" target="_top" xlink:title="ConnectionSocket.h">
<polygon fill="white" stroke="black" points="-0.5,-116.5 -0.5,-137.5 112.5,-137.5 112.5,-116.5 -0.5,-116.5"/>
<text text-anchor="middle" x="56" y="-124.5" font-family="Verdana" font-size="10.00">ConnectionSocket.h</text>
</a>
</g>
<!-- Node1&#45;&gt;Node2 -->
<g id="edge2" class="edge"><title>Node1&#45;&gt;Node2</title>
<path fill="none" stroke="midnightblue" d="M241.053,-174.922C199.053,-164.046 145.469,-150.169 106.781,-140.151"/>
<polygon fill="midnightblue" stroke="midnightblue" points="107.344,-136.681 96.7855,-137.562 105.589,-143.457 107.344,-136.681"/>
</g>
<!-- Node6 -->
<g id="node12" class="node"><title>Node6</title>
<polygon fill="white" stroke="#bfbfbf" points="129.5,-116.5 129.5,-137.5 184.5,-137.5 184.5,-116.5 129.5,-116.5"/>
<text text-anchor="middle" x="157" y="-124.5" font-family="Verdana" font-size="10.00">unistd.h</text>
</g>
<!-- Node1&#45;&gt;Node6 -->
<g id="edge12" class="edge"><title>Node1&#45;&gt;Node6</title>
<path fill="none" stroke="midnightblue" d="M267.589,-174.922C243.741,-164.588 213.642,-151.545 190.868,-141.676"/>
<polygon fill="midnightblue" stroke="midnightblue" points="192.163,-138.423 181.596,-137.658 189.38,-144.846 192.163,-138.423"/>
</g>
<!-- Node7 -->
<g id="node14" class="node"><title>Node7</title>
<polygon fill="white" stroke="#bfbfbf" points="201.5,-116.5 201.5,-137.5 254.5,-137.5 254.5,-116.5 201.5,-116.5"/>
<text text-anchor="middle" x="228" y="-124.5" font-family="Verdana" font-size="10.00">netdb.h</text>
</g>
<!-- Node1&#45;&gt;Node7 -->
<g id="edge14" class="edge"><title>Node1&#45;&gt;Node7</title>
<path fill="none" stroke="midnightblue" d="M286.244,-174.922C274.766,-165.479 260.54,-153.774 249.021,-144.296"/>
<polygon fill="midnightblue" stroke="midnightblue" points="251.135,-141.503 241.189,-137.852 246.688,-146.909 251.135,-141.503"/>
</g>
<!-- Node8 -->
<g id="node16" class="node"><title>Node8</title>
<polygon fill="white" stroke="#bfbfbf" points="271.5,-116.5 271.5,-137.5 342.5,-137.5 342.5,-116.5 271.5,-116.5"/>
<text text-anchor="middle" x="307" y="-124.5" font-family="Verdana" font-size="10.00">netinet/in.h</text>
</g>
<!-- Node1&#45;&gt;Node8 -->
<g id="edge16" class="edge"><title>Node1&#45;&gt;Node8</title>
<path fill="none" stroke="midnightblue" d="M307,-174.922C307,-166.67 307,-156.692 307,-147.982"/>
<polygon fill="midnightblue" stroke="midnightblue" points="310.5,-147.852 307,-137.852 303.5,-147.852 310.5,-147.852"/>
</g>
<!-- Node9 -->
<g id="node18" class="node"><title>Node9</title>
<polygon fill="white" stroke="#bfbfbf" points="359.5,-116.5 359.5,-137.5 408.5,-137.5 408.5,-116.5 359.5,-116.5"/>
<text text-anchor="middle" x="384" y="-124.5" font-family="Verdana" font-size="10.00">stdio.h</text>
</g>
<!-- Node1&#45;&gt;Node9 -->
<g id="edge18" class="edge"><title>Node1&#45;&gt;Node9</title>
<path fill="none" stroke="midnightblue" d="M327.231,-174.922C338.309,-165.57 352.015,-154.001 363.184,-144.572"/>
<polygon fill="midnightblue" stroke="midnightblue" points="365.761,-146.977 371.144,-137.852 361.245,-141.628 365.761,-146.977"/>
</g>
<!-- Node10 -->
<g id="node20" class="node"><title>Node10</title>
<polygon fill="white" stroke="#bfbfbf" points="425.5,-116.5 425.5,-137.5 476.5,-137.5 476.5,-116.5 425.5,-116.5"/>
<text text-anchor="middle" x="451" y="-124.5" font-family="Verdana" font-size="10.00">errno.h</text>
</g>
<!-- Node1&#45;&gt;Node10 -->
<g id="edge20" class="edge"><title>Node1&#45;&gt;Node10</title>
<path fill="none" stroke="midnightblue" d="M344.834,-174.922C367.627,-164.634 396.366,-151.661 418.193,-141.809"/>
<polygon fill="midnightblue" stroke="midnightblue" points="419.713,-144.963 427.388,-137.658 416.833,-138.583 419.713,-144.963"/>
</g>
<!-- Node11 -->
<g id="node22" class="node"><title>Node11</title>
<polygon fill="white" stroke="#bfbfbf" points="494,-116.5 494,-137.5 550,-137.5 550,-116.5 494,-116.5"/>
<text text-anchor="middle" x="522" y="-124.5" font-family="Verdana" font-size="10.00">sstream</text>
</g>
<!-- Node1&#45;&gt;Node11 -->
<g id="edge22" class="edge"><title>Node1&#45;&gt;Node11</title>
<path fill="none" stroke="midnightblue" d="M363.489,-174.922C401.486,-163.434 450.552,-148.6 483.963,-138.5"/>
<polygon fill="midnightblue" stroke="midnightblue" points="485.24,-141.77 493.799,-135.526 483.214,-135.07 485.24,-141.77"/>
</g>
<!-- Node3 -->
<g id="node5" class="node"><title>Node3</title>
<a xlink:href="Socket_8h.html" target="_top" xlink:title="Socket.h">
<polygon fill="white" stroke="black" points="55.5,-58.5 55.5,-79.5 114.5,-79.5 114.5,-58.5 55.5,-58.5"/>
<text text-anchor="middle" x="85" y="-66.5" font-family="Verdana" font-size="10.00">Socket.h</text>
</a>
</g>
<!-- Node2&#45;&gt;Node3 -->
<g id="edge4" class="edge"><title>Node2&#45;&gt;Node3</title>
<path fill="none" stroke="midnightblue" d="M61.319,-116.362C65.2026,-108.595 70.5787,-97.8426 75.2271,-88.5458"/>
<polygon fill="midnightblue" stroke="midnightblue" points="78.373,-90.0802 79.7147,-79.5707 72.112,-86.9497 78.373,-90.0802"/>
</g>
<!-- Node4 -->
<g id="node7" class="node"><title>Node4</title>
<polygon fill="white" stroke="#bfbfbf" points="6,-0.5 6,-21.5 50,-21.5 50,-0.5 6,-0.5"/>
<text text-anchor="middle" x="28" y="-8.5" font-family="Verdana" font-size="10.00">string</text>
</g>
<!-- Node2&#45;&gt;Node4 -->
<g id="edge10" class="edge"><title>Node2&#45;&gt;Node4</title>
<path fill="none" stroke="midnightblue" d="M53.416,-116.295C48.7695,-97.0451 38.9318,-56.2889 32.9505,-31.5091"/>
<polygon fill="midnightblue" stroke="midnightblue" points="36.3265,-30.5788 30.5777,-21.6792 29.5219,-32.2213 36.3265,-30.5788"/>
</g>
<!-- Node3&#45;&gt;Node4 -->
<g id="edge6" class="edge"><title>Node3&#45;&gt;Node4</title>
<path fill="none" stroke="midnightblue" d="M74.5453,-58.3619C66.4301,-50.1043 54.9988,-38.4725 45.4959,-28.8029"/>
<polygon fill="midnightblue" stroke="midnightblue" points="47.8941,-26.2497 38.3884,-21.5707 42.9014,-31.1562 47.8941,-26.2497"/>
</g>
<!-- Node5 -->
<g id="node9" class="node"><title>Node5</title>
<polygon fill="white" stroke="#bfbfbf" points="67.5,-0.5 67.5,-21.5 120.5,-21.5 120.5,-0.5 67.5,-0.5"/>
<text text-anchor="middle" x="94" y="-8.5" font-family="Verdana" font-size="10.00">stdint.h</text>
</g>
<!-- Node3&#45;&gt;Node5 -->
<g id="edge8" class="edge"><title>Node3&#45;&gt;Node5</title>
<path fill="none" stroke="midnightblue" d="M86.6507,-58.3619C87.8052,-50.9219 89.3847,-40.7427 90.7837,-31.7276"/>
<polygon fill="midnightblue" stroke="midnightblue" points="94.2849,-31.9891 92.3597,-21.5707 87.3677,-30.9157 94.2849,-31.9891"/>
</g>
</g>
</svg>
