<?xml version="1.0" encoding="UTF-8" standalone="no"?>
<!DOCTYPE svg PUBLIC "-//W3C//DTD SVG 1.1//EN"
 "http://www.w3.org/Graphics/SVG/1.1/DTD/svg11.dtd">
<!-- Generated by graphviz version 2.26.3 (20100126.1600)
 -->
<!-- Title: remote&#45;processor/ConnectionSocket.h Pages: 1 -->
<svg width="168pt" height="160pt"
 viewBox="0.00 0.00 168.00 160.00" xmlns="http://www.w3.org/2000/svg" xmlns:xlink="http://www.w3.org/1999/xlink">
<g id="graph1" class="graph" transform="scale(1 1) rotate(0) translate(4 156)">
<title>remote&#45;processor/ConnectionSocket.h</title>
<polygon fill="white" stroke="white" points="-4,5 -4,-156 165,-156 165,5 -4,5"/>
<!-- Node1 -->
<g id="node1" class="node"><title>Node1</title>
<polygon fill="#bfbfbf" stroke="black" points="0,-117 0,-151 160,-151 160,-117 0,-117"/>
<text text-anchor="start" x="8" y="-138" font-family="Verdana" font-size="10.00">remote&#45;processor/Connection</text>
<text text-anchor="middle" x="80" y="-125" font-family="Verdana" font-size="10.00">Socket.h</text>
</g>
<!-- Node2 -->
<g id="node3" class="node"><title>Node2</title>
<a xlink:href="Socket_8h.html" target="_top" xlink:title="Socket.h">
<polygon fill="white" stroke="black" points="79.5,-58.5 79.5,-79.5 138.5,-79.5 138.5,-58.5 79.5,-58.5"/>
<text text-anchor="middle" x="109" y="-66.5" font-family="Verdana" font-size="10.00">Socket.h</text>
</a>
</g>
<!-- Node1&#45;&gt;Node2 -->
<g id="edge2" class="edge"><title>Node1&#45;&gt;Node2</title>
<path fill="none" stroke="midnightblue" d="M87.6194,-116.922C91.4236,-108.395 96.0504,-98.0251 100.026,-89.1151"/>
<polygon fill="midnightblue" stroke="midnightblue" points="103.28,-90.4105 104.158,-79.8521 96.8875,-87.5583 103.28,-90.4105"/>
</g>
<!-- Node3 -->
<g id="node5" class="node"><title>Node3</title>
<polygon fill="white" stroke="#bfbfbf" points="30,-0.5 30,-21.5 74,-21.5 74,-0.5 30,-0.5"/>
<text text-anchor="middle" x="52" y="-8.5" font-family="Verdana" font-size="10.00">string</text>
</g>
<!-- Node1&#45;&gt;Node3 -->
<g id="edge8" class="edge"><title>Node1&#45;&gt;Node3</title>
<path fill="none" stroke="midnightblue" d="M76.1067,-116.897C71.0247,-94.5726 62.1381,-55.535 56.6906,-31.605"/>
<polygon fill="midnightblue" stroke="midnightblue" points="60.0881,-30.7611 54.4557,-21.7875 53.2627,-32.3149 60.0881,-30.7611"/>
</g>
<!-- Node2&#45;&gt;Node3 -->
<g id="edge4" class="edge"><title>Node2&#45;&gt;Node3</title>
<path fill="none" stroke="midnightblue" d="M98.5453,-58.3619C90.4301,-50.1043 78.9988,-38.4725 69.4959,-28.8029"/>
<polygon fill="midnightblue" stroke="midnightblue" points="71.8941,-26.2497 62.3884,-21.5707 66.9014,-31.1562 71.8941,-26.2497"/>
</g>
<!-- Node4 -->
<g id="node7" class="node"><title>Node4</title>
<polygon fill="white" stroke="#bfbfbf" points="91.5,-0.5 91.5,-21.5 144.5,-21.5 144.5,-0.5 91.5,-0.5"/>
<text text-anchor="middle" x="118" y="-8.5" font-family="Verdana" font-size="10.00">stdint.h</text>
</g>
<!-- Node2&#45;&gt;Node4 -->
<g id="edge6" class="edge"><title>Node2&#45;&gt;Node4</title>
<path fill="none" stroke="midnightblue" d="M110.651,-58.3619C111.805,-50.9219 113.385,-40.7427 114.784,-31.7276"/>
<polygon fill="midnightblue" stroke="midnightblue" points="118.285,-31.9891 116.36,-21.5707 111.368,-30.9157 118.285,-31.9891"/>
</g>
</g>
</svg>
