<?xml version="1.0" encoding="UTF-8" standalone="no"?>
<!DOCTYPE svg PUBLIC "-//W3C//DTD SVG 1.1//EN"
 "http://www.w3.org/Graphics/SVG/1.1/DTD/svg11.dtd">
<!-- Generated by graphviz version 2.26.3 (20100126.1600)
 -->
<!-- Title: remote&#45;processor/ConnectionSocket.h Pages: 1 -->
<svg width="326pt" height="116pt"
 viewBox="0.00 0.00 326.00 116.00" xmlns="http://www.w3.org/2000/svg" xmlns:xlink="http://www.w3.org/1999/xlink">
<g id="graph1" class="graph" transform="scale(1 1) rotate(0) translate(4 112)">
<title>remote&#45;processor/ConnectionSocket.h</title>
<polygon fill="white" stroke="white" points="-4,5 -4,-112 323,-112 323,5 -4,5"/>
<!-- Node1 -->
<g id="node1" class="node"><title>Node1</title>
<polygon fill="#bfbfbf" stroke="black" points="74,-73 74,-107 234,-107 234,-73 74,-73"/>
<text text-anchor="start" x="82" y="-94" font-family="Verdana" font-size="10.00">remote&#45;processor/Connection</text>
<text text-anchor="middle" x="154" y="-81" font-family="Verdana" font-size="10.00">Socket.h</text>
</g>
<!-- Node2 -->
<g id="node3" class="node"><title>Node2</title>
<a xlink:href="main_8cpp.html" target="_top" xlink:title="remote&#45;process/main.cpp">
<polygon fill="white" stroke="black" points="0,-7.5 0,-28.5 140,-28.5 140,-7.5 0,-7.5"/>
<text text-anchor="middle" x="70" y="-15.5" font-family="Verdana" font-size="10.00">remote&#45;process/main.cpp</text>
</a>
</g>
<!-- Node1&#45;&gt;Node2 -->
<g id="edge2" class="edge"><title>Node1&#45;&gt;Node2</title>
<path fill="none" stroke="midnightblue" d="M126.254,-66.2181C111.559,-53.6218 94.2215,-38.7613 82.7179,-28.901"/>
<polygon fill="midnightblue" stroke="midnightblue" points="124.223,-69.0865 134.093,-72.937 128.778,-63.7717 124.223,-69.0865"/>
</g>
<!-- Node3 -->
<g id="node5" class="node"><title>Node3</title>
<a xlink:href="ConnectionSocket_8cpp.html" target="_top" xlink:title="remote&#45;processor/Connection\lSocket.cpp">
<polygon fill="white" stroke="black" points="158,-1 158,-35 318,-35 318,-1 158,-1"/>
<text text-anchor="start" x="166" y="-22" font-family="Verdana" font-size="10.00">remote&#45;processor/Connection</text>
<text text-anchor="middle" x="238" y="-9" font-family="Verdana" font-size="10.00">Socket.cpp</text>
</a>
</g>
<!-- Node1&#45;&gt;Node3 -->
<g id="edge4" class="edge"><title>Node1&#45;&gt;Node3</title>
<path fill="none" stroke="midnightblue" d="M181.765,-66.2011C193.589,-56.0666 207.119,-44.4691 217.945,-35.19"/>
<polygon fill="midnightblue" stroke="midnightblue" points="179.222,-63.7717 173.907,-72.937 183.777,-69.0865 179.222,-63.7717"/>
</g>
</g>
</svg>
