<?xml version="1.0" encoding="UTF-8" standalone="no"?>
<!DOCTYPE svg PUBLIC "-//W3C//DTD SVG 1.1//EN"
 "http://www.w3.org/Graphics/SVG/1.1/DTD/svg11.dtd">
<!-- Generated by graphviz version 2.26.3 (20100126.1600)
 -->
<!-- Title: parameter/DefaultElementLibrary.h Pages: 1 -->
<svg width="613pt" height="276pt"
 viewBox="0.00 0.00 613.00 276.00" xmlns="http://www.w3.org/2000/svg" xmlns:xlink="http://www.w3.org/1999/xlink">
<g id="graph1" class="graph" transform="scale(1 1) rotate(0) translate(4 272)">
<title>parameter/DefaultElementLibrary.h</title>
<polygon fill="white" stroke="white" points="-4,5 -4,-272 610,-272 610,5 -4,5"/>
<!-- Node1 -->
<g id="node1" class="node"><title>Node1</title>
<polygon fill="#bfbfbf" stroke="black" points="36.5,-233 36.5,-267 181.5,-267 181.5,-233 36.5,-233"/>
<text text-anchor="start" x="44.5" y="-254" font-family="Verdana" font-size="10.00">parameter/DefaultElement</text>
<text text-anchor="middle" x="109" y="-241" font-family="Verdana" font-size="10.00">Library.h</text>
</g>
<!-- Node2 -->
<g id="node3" class="node"><title>Node2</title>
<a xlink:href="ElementLibrary_8h.html" target="_top" xlink:title="ElementLibrary.h">
<polygon fill="white" stroke="black" points="23,-174.5 23,-195.5 119,-195.5 119,-174.5 23,-174.5"/>
<text text-anchor="middle" x="71" y="-182.5" font-family="Verdana" font-size="10.00">ElementLibrary.h</text>
</a>
</g>
<!-- Node1&#45;&gt;Node2 -->
<g id="edge2" class="edge"><title>Node1&#45;&gt;Node2</title>
<path fill="none" stroke="midnightblue" d="M99.0159,-232.922C93.9239,-224.212 87.7072,-213.578 82.4247,-204.542"/>
<polygon fill="midnightblue" stroke="midnightblue" points="85.4129,-202.719 77.3443,-195.852 79.3698,-206.252 85.4129,-202.719"/>
</g>
<!-- Node3 -->
<g id="node5" class="node"><title>Node3</title>
<polygon fill="white" stroke="#bfbfbf" points="0,-116.5 0,-137.5 38,-137.5 38,-116.5 0,-116.5"/>
<text text-anchor="middle" x="19" y="-124.5" font-family="Verdana" font-size="10.00">map</text>
</g>
<!-- Node1&#45;&gt;Node3 -->
<g id="edge34" class="edge"><title>Node1&#45;&gt;Node3</title>
<path fill="none" stroke="midnightblue" d="M57.5414,-232.921C40.6228,-224.578 23.684,-212.644 14,-196 5.44554,-181.298 7.8864,-161.745 11.775,-147.208"/>
<polygon fill="midnightblue" stroke="midnightblue" points="15.1199,-148.238 14.7258,-137.651 8.43146,-146.173 15.1199,-148.238"/>
</g>
<!-- Node4 -->
<g id="node7" class="node"><title>Node4</title>
<polygon fill="white" stroke="#bfbfbf" points="191,-0.5 191,-21.5 235,-21.5 235,-0.5 191,-0.5"/>
<text text-anchor="middle" x="213" y="-8.5" font-family="Verdana" font-size="10.00">string</text>
</g>
<!-- Node1&#45;&gt;Node4 -->
<g id="edge36" class="edge"><title>Node1&#45;&gt;Node4</title>
<path fill="none" stroke="midnightblue" d="M115.471,-232.593C119.299,-222.062 124.139,-208.329 128,-196 147.013,-135.292 134.002,-112.983 166,-58 172.554,-46.7376 182.471,-36.2661 191.509,-28.0791"/>
<polygon fill="midnightblue" stroke="midnightblue" points="193.836,-30.6942 199.118,-21.5101 189.261,-25.3955 193.836,-30.6942"/>
</g>
<!-- Node12 -->
<g id="node27" class="node"><title>Node12</title>
<a xlink:href="ElementBuilder_8h.html" target="_top" xlink:title="ElementBuilder.h">
<polygon fill="white" stroke="black" points="239,-174.5 239,-195.5 337,-195.5 337,-174.5 239,-174.5"/>
<text text-anchor="middle" x="288" y="-182.5" font-family="Verdana" font-size="10.00">ElementBuilder.h</text>
</a>
</g>
<!-- Node1&#45;&gt;Node12 -->
<g id="edge30" class="edge"><title>Node1&#45;&gt;Node12</title>
<path fill="none" stroke="midnightblue" d="M156.03,-232.922C185.09,-222.37 221.926,-208.993 249.292,-199.056"/>
<polygon fill="midnightblue" stroke="midnightblue" points="250.709,-202.265 258.914,-195.562 248.32,-195.685 250.709,-202.265"/>
</g>
<!-- Node2&#45;&gt;Node3 -->
<g id="edge4" class="edge"><title>Node2&#45;&gt;Node3</title>
<path fill="none" stroke="midnightblue" d="M61.4624,-174.362C54.1323,-166.186 43.8367,-154.702 35.2192,-145.091"/>
<polygon fill="midnightblue" stroke="midnightblue" points="37.7586,-142.68 28.4771,-137.571 32.5466,-147.353 37.7586,-142.68"/>
</g>
<!-- Node2&#45;&gt;Node4 -->
<g id="edge6" class="edge"><title>Node2&#45;&gt;Node4</title>
<path fill="none" stroke="midnightblue" d="M73.919,-174.244C80.7645,-150.697 99.8296,-93.829 133,-58 146.539,-43.3758 165.676,-31.9095 181.839,-23.9645"/>
<polygon fill="midnightblue" stroke="midnightblue" points="183.377,-27.109 190.946,-19.6962 180.406,-20.7706 183.377,-27.109"/>
</g>
<!-- Node5 -->
<g id="node9" class="node"><title>Node5</title>
<a xlink:href="Element_8h.html" target="_top" xlink:title="Element.h">
<polygon fill="white" stroke="black" points="320.5,-116.5 320.5,-137.5 385.5,-137.5 385.5,-116.5 320.5,-116.5"/>
<text text-anchor="middle" x="353" y="-124.5" font-family="Verdana" font-size="10.00">Element.h</text>
</a>
</g>
<!-- Node2&#45;&gt;Node5 -->
<g id="edge8" class="edge"><title>Node2&#45;&gt;Node5</title>
<path fill="none" stroke="midnightblue" d="M119.157,-175.095C172.874,-164.047 258.955,-146.343 310.336,-135.775"/>
<polygon fill="midnightblue" stroke="midnightblue" points="311.35,-139.14 320.44,-133.697 309.94,-132.283 311.35,-139.14"/>
</g>
<!-- Node5&#45;&gt;Node4 -->
<g id="edge10" class="edge"><title>Node5&#45;&gt;Node4</title>
<path fill="none" stroke="midnightblue" d="M340.08,-116.295C315.806,-96.1819 263.195,-52.5904 233.849,-28.2752"/>
<polygon fill="midnightblue" stroke="midnightblue" points="235.822,-25.3643 225.889,-21.6792 231.356,-30.7545 235.822,-25.3643"/>
</g>
<!-- Node6 -->
<g id="node12" class="node"><title>Node6</title>
<polygon fill="white" stroke="#bfbfbf" points="429.5,-0.5 429.5,-21.5 476.5,-21.5 476.5,-0.5 429.5,-0.5"/>
<text text-anchor="middle" x="453" y="-8.5" font-family="Verdana" font-size="10.00">vector</text>
</g>
<!-- Node5&#45;&gt;Node6 -->
<g id="edge12" class="edge"><title>Node5&#45;&gt;Node6</title>
<path fill="none" stroke="midnightblue" d="M375.011,-116.492C390.174,-108.323 409.879,-95.7423 423,-80 434.844,-65.7891 442.765,-46.1839 447.479,-31.5023"/>
<polygon fill="midnightblue" stroke="midnightblue" points="450.859,-32.4123 450.354,-21.8295 444.15,-30.4176 450.859,-32.4123"/>
</g>
<!-- Node7 -->
<g id="node14" class="node"><title>Node7</title>
<polygon fill="white" stroke="#bfbfbf" points="337.5,-0.5 337.5,-21.5 390.5,-21.5 390.5,-0.5 337.5,-0.5"/>
<text text-anchor="middle" x="364" y="-8.5" font-family="Verdana" font-size="10.00">stdint.h</text>
</g>
<!-- Node5&#45;&gt;Node7 -->
<g id="edge14" class="edge"><title>Node5&#45;&gt;Node7</title>
<path fill="none" stroke="midnightblue" d="M372.385,-116.458C385.106,-108.35 400.693,-95.8559 408,-80 416.529,-61.4919 401.687,-42.0623 386.986,-28.5542"/>
<polygon fill="midnightblue" stroke="midnightblue" points="388.856,-25.5471 378.983,-21.7024 384.303,-30.8646 388.856,-25.5471"/>
</g>
<!-- Node8 -->
<g id="node16" class="node"><title>Node8</title>
<polygon fill="white" stroke="#bfbfbf" points="493,-58.5 493,-79.5 523,-79.5 523,-58.5 493,-58.5"/>
<text text-anchor="middle" x="508" y="-66.5" font-family="Verdana" font-size="10.00">list</text>
</g>
<!-- Node5&#45;&gt;Node8 -->
<g id="edge16" class="edge"><title>Node5&#45;&gt;Node8</title>
<path fill="none" stroke="midnightblue" d="M381.541,-116.405C407.09,-106.908 445.566,-92.5766 479,-80 480.417,-79.4668 481.874,-78.918 483.343,-78.3634"/>
<polygon fill="midnightblue" stroke="midnightblue" points="484.841,-81.5386 492.954,-74.725 482.363,-74.9919 484.841,-81.5386"/>
</g>
<!-- Node9 -->
<g id="node18" class="node"><title>Node9</title>
<polygon fill="white" stroke="#bfbfbf" points="541,-58.5 541,-79.5 605,-79.5 605,-58.5 541,-58.5"/>
<text text-anchor="middle" x="573" y="-66.5" font-family="Verdana" font-size="10.00">XmlSink.h</text>
</g>
<!-- Node5&#45;&gt;Node9 -->
<g id="edge18" class="edge"><title>Node5&#45;&gt;Node9</title>
<path fill="none" stroke="midnightblue" d="M385.677,-118.476C419.609,-109.612 474.495,-95.2406 530.963,-80.2669"/>
<polygon fill="midnightblue" stroke="midnightblue" points="532.008,-83.6109 540.775,-77.6631 530.212,-76.8451 532.008,-83.6109"/>
</g>
<!-- Node10 -->
<g id="node20" class="node"><title>Node10</title>
<polygon fill="white" stroke="#bfbfbf" points="174.5,-58.5 174.5,-79.5 251.5,-79.5 251.5,-58.5 174.5,-58.5"/>
<text text-anchor="middle" x="213" y="-66.5" font-family="Verdana" font-size="10.00">XmlSource.h</text>
</g>
<!-- Node5&#45;&gt;Node10 -->
<g id="edge20" class="edge"><title>Node5&#45;&gt;Node10</title>
<path fill="none" stroke="midnightblue" d="M327.647,-116.497C305.387,-107.275 272.788,-93.7695 248.037,-83.5153"/>
<polygon fill="midnightblue" stroke="midnightblue" points="249.216,-80.2152 238.637,-79.6212 246.536,-86.6822 249.216,-80.2152"/>
</g>
<!-- Node11 -->
<g id="node22" class="node"><title>Node11</title>
<a xlink:href="PathNavigator_8h.html" target="_top" xlink:title="PathNavigator.h">
<polygon fill="white" stroke="black" points="307,-58.5 307,-79.5 399,-79.5 399,-58.5 307,-58.5"/>
<text text-anchor="middle" x="353" y="-66.5" font-family="Verdana" font-size="10.00">PathNavigator.h</text>
</a>
</g>
<!-- Node5&#45;&gt;Node11 -->
<g id="edge22" class="edge"><title>Node5&#45;&gt;Node11</title>
<path fill="none" stroke="midnightblue" d="M353,-116.362C353,-108.922 353,-98.7427 353,-89.7276"/>
<polygon fill="midnightblue" stroke="midnightblue" points="356.5,-89.5706 353,-79.5707 349.5,-89.5707 356.5,-89.5706"/>
</g>
<!-- Node11&#45;&gt;Node4 -->
<g id="edge26" class="edge"><title>Node11&#45;&gt;Node4</title>
<path fill="none" stroke="midnightblue" d="M327.647,-58.4966C304.413,-48.8711 269.916,-34.5796 244.835,-24.1887"/>
<polygon fill="midnightblue" stroke="midnightblue" points="245.971,-20.871 235.393,-20.277 243.292,-27.338 245.971,-20.871"/>
</g>
<!-- Node11&#45;&gt;Node6 -->
<g id="edge24" class="edge"><title>Node11&#45;&gt;Node6</title>
<path fill="none" stroke="midnightblue" d="M371.342,-58.3619C386.566,-49.532 408.441,-36.844 425.72,-26.8224"/>
<polygon fill="midnightblue" stroke="midnightblue" points="427.88,-29.6155 434.775,-21.5707 424.368,-23.5603 427.88,-29.6155"/>
</g>
<!-- Node11&#45;&gt;Node7 -->
<g id="edge28" class="edge"><title>Node11&#45;&gt;Node7</title>
<path fill="none" stroke="midnightblue" d="M355.018,-58.3619C356.444,-50.8401 358.402,-40.5187 360.125,-31.4308"/>
<polygon fill="midnightblue" stroke="midnightblue" points="363.571,-32.0477 361.995,-21.5707 356.693,-30.7433 363.571,-32.0477"/>
</g>
<!-- Node12&#45;&gt;Node5 -->
<g id="edge32" class="edge"><title>Node12&#45;&gt;Node5</title>
<path fill="none" stroke="midnightblue" d="M299.922,-174.362C309.359,-165.941 322.73,-154.011 333.69,-144.231"/>
<polygon fill="midnightblue" stroke="midnightblue" points="336.022,-146.84 341.154,-137.571 331.362,-141.617 336.022,-146.84"/>
</g>
</g>
</svg>
