<?xml version="1.0" encoding="UTF-8" standalone="no"?>
<!DOCTYPE svg PUBLIC "-//W3C//DTD SVG 1.1//EN"
 "http://www.w3.org/Graphics/SVG/1.1/DTD/svg11.dtd">
<!-- Generated by graphviz version 2.26.3 (20100126.1600)
 -->
<!-- Title: remote&#45;process Pages: 1 -->
<svg width="110pt" height="116pt"
 viewBox="0.00 0.00 110.00 116.00" xmlns="http://www.w3.org/2000/svg" xmlns:xlink="http://www.w3.org/1999/xlink">
<g id="graph1" class="graph" transform="scale(1 1) rotate(0) translate(4 112)">
<title>remote&#45;process</title>
<polygon fill="white" stroke="white" points="-4,5 -4,-112 107,-112 107,5 -4,5"/>
<!-- dir_15118cf1aa050a973860aeb6a6dd944e -->
<g id="node1" class="node"><title>dir_15118cf1aa050a973860aeb6a6dd944e</title>
<a xlink:href="dir_15118cf1aa050a973860aeb6a6dd944e.html" target="_top" xlink:title="remote&#45;process">
<polygon fill="#eeeeff" stroke="black" points="97,-108 5,-108 5,-72 97,-72 97,-108"/>
<text text-anchor="middle" x="51" y="-87.5" font-family="Verdana" font-size="10.00">remote&#45;process</text>
</a>
</g>
<!-- dir_a95bacb21791cc2565712fcafbd51a16 -->
<g id="node2" class="node"><title>dir_a95bacb21791cc2565712fcafbd51a16</title>
<a xlink:href="dir_a95bacb21791cc2565712fcafbd51a16.html" target="_top" xlink:title="remote&#45;processor">
<polygon fill="none" stroke="black" points="102,-36 4.26326e-14,-36 0,-1.77636e-14 102,-3.55271e-15 102,-36"/>
<text text-anchor="middle" x="51" y="-15.5" font-family="Verdana" font-size="10.00">remote&#45;processor</text>
</a>
</g>
<!-- dir_15118cf1aa050a973860aeb6a6dd944e&#45;&gt;dir_a95bacb21791cc2565712fcafbd51a16 -->
<g id="edge2" class="edge"><title>dir_15118cf1aa050a973860aeb6a6dd944e&#45;&gt;dir_a95bacb21791cc2565712fcafbd51a16</title>
<path fill="none" stroke="black" d="M51,-71.8314C51,-64.131 51,-54.9743 51,-46.4166"/>
<polygon fill="black" stroke="black" points="54.5001,-46.4132 51,-36.4133 47.5001,-46.4133 54.5001,-46.4132"/>
<a xlink:href="dir_000001_000002.html" target="_top" xlink:title="3">
<text text-anchor="middle" x="57.3393" y="-47.5079" font-family="Verdana" font-size="10.00">3</text>
</a>
</g>
</g>
</svg>
