<?xml version="1.0" encoding="UTF-8" standalone="no"?>
<!DOCTYPE svg PUBLIC "-//W3C//DTD SVG 1.1//EN"
 "http://www.w3.org/Graphics/SVG/1.1/DTD/svg11.dtd">
<!-- Generated by graphviz version 2.26.3 (20100126.1600)
 -->
<!-- Title: parameter/ElementLibrarySet.h Pages: 1 -->
<svg width="463pt" height="276pt"
 viewBox="0.00 0.00 463.00 276.00" xmlns="http://www.w3.org/2000/svg" xmlns:xlink="http://www.w3.org/1999/xlink">
<g id="graph1" class="graph" transform="scale(1 1) rotate(0) translate(4 272)">
<title>parameter/ElementLibrarySet.h</title>
<polygon fill="white" stroke="white" points="-4,5 -4,-272 460,-272 460,5 -4,5"/>
<!-- Node1 -->
<g id="node1" class="node"><title>Node1</title>
<polygon fill="#bfbfbf" stroke="black" points="269.5,-233 269.5,-267 412.5,-267 412.5,-233 269.5,-233"/>
<text text-anchor="start" x="277.5" y="-254" font-family="Verdana" font-size="10.00">parameter/ElementLibrary</text>
<text text-anchor="middle" x="341" y="-241" font-family="Verdana" font-size="10.00">Set.h</text>
</g>
<!-- Node2 -->
<g id="node3" class="node"><title>Node2</title>
<a xlink:href="ElementLibrary_8h.html" target="_top" xlink:title="ElementLibrary.h">
<polygon fill="white" stroke="black" points="130,-174.5 130,-195.5 226,-195.5 226,-174.5 130,-174.5"/>
<text text-anchor="middle" x="178" y="-182.5" font-family="Verdana" font-size="10.00">ElementLibrary.h</text>
</a>
</g>
<!-- Node1&#45;&gt;Node2 -->
<g id="edge2" class="edge"><title>Node1&#45;&gt;Node2</title>
<path fill="none" stroke="midnightblue" d="M298.174,-232.922C272.027,-222.495 238.966,-209.312 214.143,-199.413"/>
<polygon fill="midnightblue" stroke="midnightblue" points="215.313,-196.111 204.728,-195.658 212.72,-202.614 215.313,-196.111"/>
</g>
<!-- Node6 -->
<g id="node12" class="node"><title>Node6</title>
<polygon fill="white" stroke="#bfbfbf" points="408.5,-0.5 408.5,-21.5 455.5,-21.5 455.5,-0.5 408.5,-0.5"/>
<text text-anchor="middle" x="432" y="-8.5" font-family="Verdana" font-size="10.00">vector</text>
</g>
<!-- Node1&#45;&gt;Node6 -->
<g id="edge30" class="edge"><title>Node1&#45;&gt;Node6</title>
<path fill="none" stroke="midnightblue" d="M354.09,-232.866C375.606,-203.503 417.595,-140.834 433,-80 436.992,-64.2379 436.47,-45.7952 435.098,-31.9443"/>
<polygon fill="midnightblue" stroke="midnightblue" points="438.566,-31.4648 433.886,-21.9595 431.617,-32.3084 438.566,-31.4648"/>
</g>
<!-- Node3 -->
<g id="node5" class="node"><title>Node3</title>
<polygon fill="white" stroke="#bfbfbf" points="125,-116.5 125,-137.5 163,-137.5 163,-116.5 125,-116.5"/>
<text text-anchor="middle" x="144" y="-124.5" font-family="Verdana" font-size="10.00">map</text>
</g>
<!-- Node2&#45;&gt;Node3 -->
<g id="edge4" class="edge"><title>Node2&#45;&gt;Node3</title>
<path fill="none" stroke="midnightblue" d="M171.764,-174.362C167.163,-166.513 160.775,-155.616 155.286,-146.253"/>
<polygon fill="midnightblue" stroke="midnightblue" points="158.273,-144.428 150.197,-137.571 152.234,-147.968 158.273,-144.428"/>
</g>
<!-- Node4 -->
<g id="node7" class="node"><title>Node4</title>
<polygon fill="white" stroke="#bfbfbf" points="0,-0.5 0,-21.5 44,-21.5 44,-0.5 0,-0.5"/>
<text text-anchor="middle" x="22" y="-8.5" font-family="Verdana" font-size="10.00">string</text>
</g>
<!-- Node2&#45;&gt;Node4 -->
<g id="edge6" class="edge"><title>Node2&#45;&gt;Node4</title>
<path fill="none" stroke="midnightblue" d="M157.744,-174.258C128.605,-157.793 75.0655,-123.591 45,-80 34.9451,-65.4217 29.0041,-46.1071 25.6873,-31.6214"/>
<polygon fill="midnightblue" stroke="midnightblue" points="29.0784,-30.735 23.6378,-21.6437 22.2216,-32.1435 29.0784,-30.735"/>
</g>
<!-- Node5 -->
<g id="node9" class="node"><title>Node5</title>
<a xlink:href="Element_8h.html" target="_top" xlink:title="Element.h">
<polygon fill="white" stroke="black" points="180.5,-116.5 180.5,-137.5 245.5,-137.5 245.5,-116.5 180.5,-116.5"/>
<text text-anchor="middle" x="213" y="-124.5" font-family="Verdana" font-size="10.00">Element.h</text>
</a>
</g>
<!-- Node2&#45;&gt;Node5 -->
<g id="edge8" class="edge"><title>Node2&#45;&gt;Node5</title>
<path fill="none" stroke="midnightblue" d="M184.42,-174.362C189.156,-166.513 195.732,-155.616 201.382,-146.253"/>
<polygon fill="midnightblue" stroke="midnightblue" points="204.451,-147.941 206.621,-137.571 198.458,-144.324 204.451,-147.941"/>
</g>
<!-- Node5&#45;&gt;Node4 -->
<g id="edge10" class="edge"><title>Node5&#45;&gt;Node4</title>
<path fill="none" stroke="midnightblue" d="M180.168,-117.41C140.824,-105.732 79.0377,-86.7327 70,-80 52.8168,-67.1991 39.5538,-46.3824 31.3671,-30.9567"/>
<polygon fill="midnightblue" stroke="midnightblue" points="34.35,-29.0979 26.7301,-21.7367 28.0963,-32.2431 34.35,-29.0979"/>
</g>
<!-- Node5&#45;&gt;Node6 -->
<g id="edge12" class="edge"><title>Node5&#45;&gt;Node6</title>
<path fill="none" stroke="midnightblue" d="M245.542,-123.39C295.877,-117.16 389.297,-102.822 413,-80 425.965,-67.5177 430.341,-47.0716 431.697,-31.6694"/>
<polygon fill="midnightblue" stroke="midnightblue" points="435.2,-31.7018 432.23,-21.5317 428.21,-31.3339 435.2,-31.7018"/>
</g>
<!-- Node7 -->
<g id="node14" class="node"><title>Node7</title>
<polygon fill="white" stroke="#bfbfbf" points="84.5,-0.5 84.5,-21.5 137.5,-21.5 137.5,-0.5 84.5,-0.5"/>
<text text-anchor="middle" x="111" y="-8.5" font-family="Verdana" font-size="10.00">stdint.h</text>
</g>
<!-- Node5&#45;&gt;Node7 -->
<g id="edge14" class="edge"><title>Node5&#45;&gt;Node7</title>
<path fill="none" stroke="midnightblue" d="M180.177,-117.643C142.499,-106.574 85.0778,-88.5726 79,-80 67.7876,-64.1852 79.9599,-43.8164 92.3829,-29.3182"/>
<polygon fill="midnightblue" stroke="midnightblue" points="94.978,-31.6668 99.1634,-21.9337 89.8219,-26.9324 94.978,-31.6668"/>
</g>
<!-- Node8 -->
<g id="node16" class="node"><title>Node8</title>
<polygon fill="white" stroke="#bfbfbf" points="198,-58.5 198,-79.5 228,-79.5 228,-58.5 198,-58.5"/>
<text text-anchor="middle" x="213" y="-66.5" font-family="Verdana" font-size="10.00">list</text>
</g>
<!-- Node5&#45;&gt;Node8 -->
<g id="edge16" class="edge"><title>Node5&#45;&gt;Node8</title>
<path fill="none" stroke="midnightblue" d="M213,-116.362C213,-108.922 213,-98.7427 213,-89.7276"/>
<polygon fill="midnightblue" stroke="midnightblue" points="216.5,-89.5706 213,-79.5707 209.5,-89.5707 216.5,-89.5706"/>
</g>
<!-- Node9 -->
<g id="node18" class="node"><title>Node9</title>
<polygon fill="white" stroke="#bfbfbf" points="246,-58.5 246,-79.5 310,-79.5 310,-58.5 246,-58.5"/>
<text text-anchor="middle" x="278" y="-66.5" font-family="Verdana" font-size="10.00">XmlSink.h</text>
</g>
<!-- Node5&#45;&gt;Node9 -->
<g id="edge18" class="edge"><title>Node5&#45;&gt;Node9</title>
<path fill="none" stroke="midnightblue" d="M224.922,-116.362C234.359,-107.941 247.73,-96.0105 258.69,-86.2308"/>
<polygon fill="midnightblue" stroke="midnightblue" points="261.022,-88.8401 266.154,-79.5707 256.362,-83.6171 261.022,-88.8401"/>
</g>
<!-- Node10 -->
<g id="node20" class="node"><title>Node10</title>
<polygon fill="white" stroke="#bfbfbf" points="327.5,-58.5 327.5,-79.5 404.5,-79.5 404.5,-58.5 327.5,-58.5"/>
<text text-anchor="middle" x="366" y="-66.5" font-family="Verdana" font-size="10.00">XmlSource.h</text>
</g>
<!-- Node5&#45;&gt;Node10 -->
<g id="edge20" class="edge"><title>Node5&#45;&gt;Node10</title>
<path fill="none" stroke="midnightblue" d="M240.707,-116.497C265.326,-107.164 301.517,-93.4447 328.68,-83.1475"/>
<polygon fill="midnightblue" stroke="midnightblue" points="330.131,-86.3406 338.241,-79.5231 327.65,-79.7951 330.131,-86.3406"/>
</g>
<!-- Node11 -->
<g id="node22" class="node"><title>Node11</title>
<a xlink:href="PathNavigator_8h.html" target="_top" xlink:title="PathNavigator.h">
<polygon fill="white" stroke="black" points="88,-58.5 88,-79.5 180,-79.5 180,-58.5 88,-58.5"/>
<text text-anchor="middle" x="134" y="-66.5" font-family="Verdana" font-size="10.00">PathNavigator.h</text>
</a>
</g>
<!-- Node5&#45;&gt;Node11 -->
<g id="edge22" class="edge"><title>Node5&#45;&gt;Node11</title>
<path fill="none" stroke="midnightblue" d="M198.51,-116.362C186.817,-107.777 170.157,-95.5459 156.697,-85.6636"/>
<polygon fill="midnightblue" stroke="midnightblue" points="158.53,-82.6675 148.398,-79.5707 154.387,-88.31 158.53,-82.6675"/>
</g>
<!-- Node11&#45;&gt;Node4 -->
<g id="edge26" class="edge"><title>Node11&#45;&gt;Node4</title>
<path fill="none" stroke="midnightblue" d="M113.718,-58.4966C96.3823,-49.5194 71.2096,-36.4835 51.6196,-26.3387"/>
<polygon fill="midnightblue" stroke="midnightblue" points="52.9994,-23.1118 42.5099,-21.6212 49.7804,-29.3278 52.9994,-23.1118"/>
</g>
<!-- Node11&#45;&gt;Node6 -->
<g id="edge24" class="edge"><title>Node11&#45;&gt;Node6</title>
<path fill="none" stroke="midnightblue" d="M180.209,-59.7361C183.184,-59.1466 186.134,-58.5638 189,-58 263.67,-43.3119 351.327,-26.452 398.263,-17.4552"/>
<polygon fill="midnightblue" stroke="midnightblue" points="399.028,-20.8724 408.191,-15.5532 397.711,-13.9975 399.028,-20.8724"/>
</g>
<!-- Node11&#45;&gt;Node7 -->
<g id="edge28" class="edge"><title>Node11&#45;&gt;Node7</title>
<path fill="none" stroke="midnightblue" d="M129.781,-58.3619C126.766,-50.7584 122.617,-40.294 118.985,-31.1349"/>
<polygon fill="midnightblue" stroke="midnightblue" points="122.132,-29.5762 115.192,-21.5707 115.625,-32.1567 122.132,-29.5762"/>
</g>
</g>
</svg>
