<?xml version="1.0" encoding="UTF-8" standalone="no"?>
<!DOCTYPE svg PUBLIC "-//W3C//DTD SVG 1.1//EN"
 "http://www.w3.org/Graphics/SVG/1.1/DTD/svg11.dtd">
<!-- Generated by graphviz version 2.26.3 (20100126.1600)
 -->
<!-- Title: parameter/ElementLibrarySet.h Pages: 1 -->
<svg width="326pt" height="116pt"
 viewBox="0.00 0.00 326.00 116.00" xmlns="http://www.w3.org/2000/svg" xmlns:xlink="http://www.w3.org/1999/xlink">
<g id="graph1" class="graph" transform="scale(1 1) rotate(0) translate(4 112)">
<title>parameter/ElementLibrarySet.h</title>
<polygon fill="white" stroke="white" points="-4,5 -4,-112 323,-112 323,5 -4,5"/>
<!-- Node1 -->
<g id="node1" class="node"><title>Node1</title>
<polygon fill="#bfbfbf" stroke="black" points="83.5,-73 83.5,-107 226.5,-107 226.5,-73 83.5,-73"/>
<text text-anchor="start" x="91.5" y="-94" font-family="Verdana" font-size="10.00">parameter/ElementLibrary</text>
<text text-anchor="middle" x="155" y="-81" font-family="Verdana" font-size="10.00">Set.h</text>
</g>
<!-- Node2 -->
<g id="node3" class="node"><title>Node2</title>
<a xlink:href="ElementLibrarySet_8cpp.html" target="_top" xlink:title="parameter/ElementLibrary\lSet.cpp">
<polygon fill="white" stroke="black" points="-0.5,-1 -0.5,-35 142.5,-35 142.5,-1 -0.5,-1"/>
<text text-anchor="start" x="7.5" y="-22" font-family="Verdana" font-size="10.00">parameter/ElementLibrary</text>
<text text-anchor="middle" x="71" y="-9" font-family="Verdana" font-size="10.00">Set.cpp</text>
</a>
</g>
<!-- Node1&#45;&gt;Node2 -->
<g id="edge2" class="edge"><title>Node1&#45;&gt;Node2</title>
<path fill="none" stroke="midnightblue" d="M127.235,-66.2011C115.411,-56.0666 101.881,-44.4691 91.055,-35.19"/>
<polygon fill="midnightblue" stroke="midnightblue" points="125.223,-69.0865 135.093,-72.937 129.778,-63.7717 125.223,-69.0865"/>
</g>
<!-- Node3 -->
<g id="node5" class="node"><title>Node3</title>
<a xlink:href="ParameterMgr_8cpp.html" target="_top" xlink:title="parameter/ParameterMgr.cpp">
<polygon fill="white" stroke="black" points="160,-7.5 160,-28.5 318,-28.5 318,-7.5 160,-7.5"/>
<text text-anchor="middle" x="239" y="-15.5" font-family="Verdana" font-size="10.00">parameter/ParameterMgr.cpp</text>
</a>
</g>
<!-- Node1&#45;&gt;Node3 -->
<g id="edge4" class="edge"><title>Node1&#45;&gt;Node3</title>
<path fill="none" stroke="midnightblue" d="M182.746,-66.2181C197.441,-53.6218 214.779,-38.7613 226.282,-28.901"/>
<polygon fill="midnightblue" stroke="midnightblue" points="180.222,-63.7717 174.907,-72.937 184.777,-69.0865 180.222,-63.7717"/>
</g>
</g>
</svg>
