<?xml version="1.0" encoding="UTF-8" standalone="no"?>
<!DOCTYPE svg PUBLIC "-//W3C//DTD SVG 1.1//EN"
 "http://www.w3.org/Graphics/SVG/1.1/DTD/svg11.dtd">
<!-- Generated by graphviz version 2.26.3 (20100126.1600)
 -->
<!-- Title: parameter/ElementLibrary.cpp Pages: 1 -->
<svg width="454pt" height="262pt"
 viewBox="0.00 0.00 454.00 262.00" xmlns="http://www.w3.org/2000/svg" xmlns:xlink="http://www.w3.org/1999/xlink">
<g id="graph1" class="graph" transform="scale(1 1) rotate(0) translate(4 258)">
<title>parameter/ElementLibrary.cpp</title>
<polygon fill="white" stroke="white" points="-4,5 -4,-258 451,-258 451,5 -4,5"/>
<!-- Node1 -->
<g id="node1" class="node"><title>Node1</title>
<polygon fill="#bfbfbf" stroke="black" points="43.5,-232.5 43.5,-253.5 204.5,-253.5 204.5,-232.5 43.5,-232.5"/>
<text text-anchor="middle" x="124" y="-240.5" font-family="Verdana" font-size="10.00">parameter/ElementLibrary.cpp</text>
</g>
<!-- Node2 -->
<g id="node3" class="node"><title>Node2</title>
<a xlink:href="ElementLibrary_8h.html" target="_top" xlink:title="ElementLibrary.h">
<polygon fill="white" stroke="black" points="19,-174.5 19,-195.5 115,-195.5 115,-174.5 19,-174.5"/>
<text text-anchor="middle" x="67" y="-182.5" font-family="Verdana" font-size="10.00">ElementLibrary.h</text>
</a>
</g>
<!-- Node1&#45;&gt;Node2 -->
<g id="edge2" class="edge"><title>Node1&#45;&gt;Node2</title>
<path fill="none" stroke="midnightblue" d="M113.545,-232.362C105.43,-224.104 93.9988,-212.472 84.4959,-202.803"/>
<polygon fill="midnightblue" stroke="midnightblue" points="86.8941,-200.25 77.3884,-195.571 81.9014,-205.156 86.8941,-200.25"/>
</g>
<!-- Node12 -->
<g id="node27" class="node"><title>Node12</title>
<a xlink:href="ElementBuilder_8h.html" target="_top" xlink:title="ElementBuilder.h">
<polygon fill="white" stroke="black" points="133,-174.5 133,-195.5 231,-195.5 231,-174.5 133,-174.5"/>
<text text-anchor="middle" x="182" y="-182.5" font-family="Verdana" font-size="10.00">ElementBuilder.h</text>
</a>
</g>
<!-- Node1&#45;&gt;Node12 -->
<g id="edge30" class="edge"><title>Node1&#45;&gt;Node12</title>
<path fill="none" stroke="midnightblue" d="M134.638,-232.362C142.896,-224.104 154.528,-212.472 164.197,-202.803"/>
<polygon fill="midnightblue" stroke="midnightblue" points="166.833,-205.117 171.429,-195.571 161.883,-200.167 166.833,-205.117"/>
</g>
<!-- Node3 -->
<g id="node5" class="node"><title>Node3</title>
<polygon fill="white" stroke="#bfbfbf" points="48,-116.5 48,-137.5 86,-137.5 86,-116.5 48,-116.5"/>
<text text-anchor="middle" x="67" y="-124.5" font-family="Verdana" font-size="10.00">map</text>
</g>
<!-- Node2&#45;&gt;Node3 -->
<g id="edge4" class="edge"><title>Node2&#45;&gt;Node3</title>
<path fill="none" stroke="midnightblue" d="M67,-174.362C67,-166.922 67,-156.743 67,-147.728"/>
<polygon fill="midnightblue" stroke="midnightblue" points="70.5001,-147.571 67,-137.571 63.5001,-147.571 70.5001,-147.571"/>
</g>
<!-- Node4 -->
<g id="node7" class="node"><title>Node4</title>
<polygon fill="white" stroke="#bfbfbf" points="0,-0.5 0,-21.5 44,-21.5 44,-0.5 0,-0.5"/>
<text text-anchor="middle" x="22" y="-8.5" font-family="Verdana" font-size="10.00">string</text>
</g>
<!-- Node2&#45;&gt;Node4 -->
<g id="edge6" class="edge"><title>Node2&#45;&gt;Node4</title>
<path fill="none" stroke="midnightblue" d="M59.3399,-174.285C53.0666,-165.062 44.3779,-151.193 39,-138 24.5903,-102.65 21.8603,-57.6255 21.6264,-31.7812"/>
<polygon fill="midnightblue" stroke="midnightblue" points="25.1266,-31.6718 21.6568,-21.6613 18.1267,-31.6507 25.1266,-31.6718"/>
</g>
<!-- Node5 -->
<g id="node9" class="node"><title>Node5</title>
<a xlink:href="Element_8h.html" target="_top" xlink:title="Element.h">
<polygon fill="white" stroke="black" points="149.5,-116.5 149.5,-137.5 214.5,-137.5 214.5,-116.5 149.5,-116.5"/>
<text text-anchor="middle" x="182" y="-124.5" font-family="Verdana" font-size="10.00">Element.h</text>
</a>
</g>
<!-- Node2&#45;&gt;Node5 -->
<g id="edge8" class="edge"><title>Node2&#45;&gt;Node5</title>
<path fill="none" stroke="midnightblue" d="M87.8256,-174.497C105.706,-165.479 131.707,-152.365 151.861,-142.201"/>
<polygon fill="midnightblue" stroke="midnightblue" points="153.588,-145.249 160.941,-137.621 150.436,-138.999 153.588,-145.249"/>
</g>
<!-- Node5&#45;&gt;Node4 -->
<g id="edge10" class="edge"><title>Node5&#45;&gt;Node4</title>
<path fill="none" stroke="midnightblue" d="M149.413,-119.887C112.646,-111.236 56.0033,-95.8211 41,-80 28.6851,-67.0138 24.2132,-46.7972 22.6572,-31.5977"/>
<polygon fill="midnightblue" stroke="midnightblue" points="26.147,-31.3282 21.9691,-21.5919 19.1635,-31.8085 26.147,-31.3282"/>
</g>
<!-- Node6 -->
<g id="node12" class="node"><title>Node6</title>
<polygon fill="white" stroke="#bfbfbf" points="307.5,-0.5 307.5,-21.5 354.5,-21.5 354.5,-0.5 307.5,-0.5"/>
<text text-anchor="middle" x="331" y="-8.5" font-family="Verdana" font-size="10.00">vector</text>
</g>
<!-- Node5&#45;&gt;Node6 -->
<g id="edge12" class="edge"><title>Node5&#45;&gt;Node6</title>
<path fill="none" stroke="midnightblue" d="M214.561,-123.858C264.27,-118.313 355.398,-104.948 375,-80 388.125,-63.2948 370.905,-42.5634 354.312,-28.2087"/>
<polygon fill="midnightblue" stroke="midnightblue" points="356.315,-25.3256 346.352,-21.7197 351.892,-30.7512 356.315,-25.3256"/>
</g>
<!-- Node7 -->
<g id="node14" class="node"><title>Node7</title>
<polygon fill="white" stroke="#bfbfbf" points="393.5,-0.5 393.5,-21.5 446.5,-21.5 446.5,-0.5 393.5,-0.5"/>
<text text-anchor="middle" x="420" y="-8.5" font-family="Verdana" font-size="10.00">stdint.h</text>
</g>
<!-- Node5&#45;&gt;Node7 -->
<g id="edge14" class="edge"><title>Node5&#45;&gt;Node7</title>
<path fill="none" stroke="midnightblue" d="M214.804,-123.308C266.696,-116.874 364.552,-102.144 391,-80 405.431,-67.9174 412.816,-47.4187 416.508,-31.8955"/>
<polygon fill="midnightblue" stroke="midnightblue" points="420.026,-32.1603 418.592,-21.663 413.166,-30.7634 420.026,-32.1603"/>
</g>
<!-- Node8 -->
<g id="node16" class="node"><title>Node8</title>
<polygon fill="white" stroke="#bfbfbf" points="50,-58.5 50,-79.5 80,-79.5 80,-58.5 50,-58.5"/>
<text text-anchor="middle" x="65" y="-66.5" font-family="Verdana" font-size="10.00">list</text>
</g>
<!-- Node5&#45;&gt;Node8 -->
<g id="edge16" class="edge"><title>Node5&#45;&gt;Node8</title>
<path fill="none" stroke="midnightblue" d="M160.812,-116.497C140.597,-106.475 110.179,-91.3963 89.0601,-80.9272"/>
<polygon fill="midnightblue" stroke="midnightblue" points="90.5955,-77.7819 80.0814,-76.4762 87.4864,-84.0536 90.5955,-77.7819"/>
</g>
<!-- Node9 -->
<g id="node18" class="node"><title>Node9</title>
<polygon fill="white" stroke="#bfbfbf" points="98,-58.5 98,-79.5 162,-79.5 162,-58.5 98,-58.5"/>
<text text-anchor="middle" x="130" y="-66.5" font-family="Verdana" font-size="10.00">XmlSink.h</text>
</g>
<!-- Node5&#45;&gt;Node9 -->
<g id="edge18" class="edge"><title>Node5&#45;&gt;Node9</title>
<path fill="none" stroke="midnightblue" d="M172.462,-116.362C165.132,-108.186 154.837,-96.7025 146.219,-87.0907"/>
<polygon fill="midnightblue" stroke="midnightblue" points="148.759,-84.68 139.477,-79.5707 143.547,-89.3528 148.759,-84.68"/>
</g>
<!-- Node10 -->
<g id="node20" class="node"><title>Node10</title>
<polygon fill="white" stroke="#bfbfbf" points="179.5,-58.5 179.5,-79.5 256.5,-79.5 256.5,-58.5 179.5,-58.5"/>
<text text-anchor="middle" x="218" y="-66.5" font-family="Verdana" font-size="10.00">XmlSource.h</text>
</g>
<!-- Node5&#45;&gt;Node10 -->
<g id="edge20" class="edge"><title>Node5&#45;&gt;Node10</title>
<path fill="none" stroke="midnightblue" d="M188.603,-116.362C193.475,-108.513 200.238,-97.6159 206.05,-88.2527"/>
<polygon fill="midnightblue" stroke="midnightblue" points="209.139,-89.9129 211.439,-79.5707 203.191,-86.2213 209.139,-89.9129"/>
</g>
<!-- Node11 -->
<g id="node22" class="node"><title>Node11</title>
<a xlink:href="PathNavigator_8h.html" target="_top" xlink:title="PathNavigator.h">
<polygon fill="white" stroke="black" points="274,-58.5 274,-79.5 366,-79.5 366,-58.5 274,-58.5"/>
<text text-anchor="middle" x="320" y="-66.5" font-family="Verdana" font-size="10.00">PathNavigator.h</text>
</a>
</g>
<!-- Node5&#45;&gt;Node11 -->
<g id="edge22" class="edge"><title>Node5&#45;&gt;Node11</title>
<path fill="none" stroke="midnightblue" d="M206.991,-116.497C228.933,-107.275 261.066,-93.7695 285.464,-83.5153"/>
<polygon fill="midnightblue" stroke="midnightblue" points="286.866,-86.7225 294.729,-79.6212 284.154,-80.2693 286.866,-86.7225"/>
</g>
<!-- Node11&#45;&gt;Node4 -->
<g id="edge26" class="edge"><title>Node11&#45;&gt;Node4</title>
<path fill="none" stroke="midnightblue" d="M273.791,-59.7361C270.816,-59.1466 267.866,-58.5638 265,-58 189.509,-43.1504 100.744,-26.081 54.2034,-17.1613"/>
<polygon fill="midnightblue" stroke="midnightblue" points="54.6023,-13.6742 44.1224,-15.2302 53.2853,-20.5492 54.6023,-13.6742"/>
</g>
<!-- Node11&#45;&gt;Node6 -->
<g id="edge24" class="edge"><title>Node11&#45;&gt;Node6</title>
<path fill="none" stroke="midnightblue" d="M322.018,-58.3619C323.444,-50.8401 325.402,-40.5187 327.125,-31.4308"/>
<polygon fill="midnightblue" stroke="midnightblue" points="330.571,-32.0477 328.995,-21.5707 323.693,-30.7433 330.571,-32.0477"/>
</g>
<!-- Node11&#45;&gt;Node7 -->
<g id="edge28" class="edge"><title>Node11&#45;&gt;Node7</title>
<path fill="none" stroke="midnightblue" d="M338.342,-58.3619C353.566,-49.532 375.441,-36.844 392.72,-26.8224"/>
<polygon fill="midnightblue" stroke="midnightblue" points="394.88,-29.6155 401.775,-21.5707 391.368,-23.5603 394.88,-29.6155"/>
</g>
<!-- Node12&#45;&gt;Node5 -->
<g id="edge32" class="edge"><title>Node12&#45;&gt;Node5</title>
<path fill="none" stroke="midnightblue" d="M182,-174.362C182,-166.922 182,-156.743 182,-147.728"/>
<polygon fill="midnightblue" stroke="midnightblue" points="185.5,-147.571 182,-137.571 178.5,-147.571 185.5,-147.571"/>
</g>
</g>
</svg>
