<?xml version="1.0" encoding="UTF-8" standalone="no"?>
<!DOCTYPE svg PUBLIC "-//W3C//DTD SVG 1.1//EN"
 "http://www.w3.org/Graphics/SVG/1.1/DTD/svg11.dtd">
<!-- Generated by graphviz version 2.26.3 (20100126.1600)
 -->
<!-- Title: parameter/ElementLibrary.h Pages: 1 -->
<svg width="545pt" height="204pt"
 viewBox="0.00 0.00 545.00 204.00" xmlns="http://www.w3.org/2000/svg" xmlns:xlink="http://www.w3.org/1999/xlink">
<g id="graph1" class="graph" transform="scale(1 1) rotate(0) translate(4 200)">
<title>parameter/ElementLibrary.h</title>
<polygon fill="white" stroke="white" points="-4,5 -4,-200 542,-200 542,5 -4,5"/>
<!-- Node1 -->
<g id="node1" class="node"><title>Node1</title>
<polygon fill="#bfbfbf" stroke="black" points="0,-174.5 0,-195.5 150,-195.5 150,-174.5 0,-174.5"/>
<text text-anchor="middle" x="75" y="-182.5" font-family="Verdana" font-size="10.00">parameter/ElementLibrary.h</text>
</g>
<!-- Node2 -->
<g id="node3" class="node"><title>Node2</title>
<polygon fill="white" stroke="#bfbfbf" points="9,-116.5 9,-137.5 47,-137.5 47,-116.5 9,-116.5"/>
<text text-anchor="middle" x="28" y="-124.5" font-family="Verdana" font-size="10.00">map</text>
</g>
<!-- Node1&#45;&gt;Node2 -->
<g id="edge2" class="edge"><title>Node1&#45;&gt;Node2</title>
<path fill="none" stroke="midnightblue" d="M66.3795,-174.362C59.8205,-166.268 50.6344,-154.932 42.8938,-145.38"/>
<polygon fill="midnightblue" stroke="midnightblue" points="45.581,-143.136 36.5659,-137.571 40.1425,-147.544 45.581,-143.136"/>
</g>
<!-- Node3 -->
<g id="node5" class="node"><title>Node3</title>
<polygon fill="white" stroke="#bfbfbf" points="91,-0.5 91,-21.5 135,-21.5 135,-0.5 91,-0.5"/>
<text text-anchor="middle" x="113" y="-8.5" font-family="Verdana" font-size="10.00">string</text>
</g>
<!-- Node1&#45;&gt;Node3 -->
<g id="edge4" class="edge"><title>Node1&#45;&gt;Node3</title>
<path fill="none" stroke="midnightblue" d="M77.3199,-174.377C83.4797,-146.172 100.331,-69.0121 108.475,-31.7203"/>
<polygon fill="midnightblue" stroke="midnightblue" points="111.899,-32.4442 110.613,-21.9277 105.06,-30.9507 111.899,-32.4442"/>
</g>
<!-- Node4 -->
<g id="node7" class="node"><title>Node4</title>
<a xlink:href="Element_8h.html" target="_top" xlink:title="Element.h">
<polygon fill="white" stroke="black" points="232.5,-116.5 232.5,-137.5 297.5,-137.5 297.5,-116.5 232.5,-116.5"/>
<text text-anchor="middle" x="265" y="-124.5" font-family="Verdana" font-size="10.00">Element.h</text>
</a>
</g>
<!-- Node1&#45;&gt;Node4 -->
<g id="edge6" class="edge"><title>Node1&#45;&gt;Node4</title>
<path fill="none" stroke="midnightblue" d="M109.408,-174.497C141.235,-164.781 188.635,-150.311 222.749,-139.898"/>
<polygon fill="midnightblue" stroke="midnightblue" points="223.892,-143.208 232.435,-136.941 221.849,-136.513 223.892,-143.208"/>
</g>
<!-- Node4&#45;&gt;Node3 -->
<g id="edge8" class="edge"><title>Node4&#45;&gt;Node3</title>
<path fill="none" stroke="midnightblue" d="M232.47,-123.973C202.291,-119.438 158.206,-108.135 132,-80 119.802,-66.9039 115.315,-46.701 113.724,-31.5346"/>
<polygon fill="midnightblue" stroke="midnightblue" points="117.215,-31.2788 113.009,-21.5549 110.233,-31.7797 117.215,-31.2788"/>
</g>
<!-- Node5 -->
<g id="node10" class="node"><title>Node5</title>
<polygon fill="white" stroke="#bfbfbf" points="398.5,-0.5 398.5,-21.5 445.5,-21.5 445.5,-0.5 398.5,-0.5"/>
<text text-anchor="middle" x="422" y="-8.5" font-family="Verdana" font-size="10.00">vector</text>
</g>
<!-- Node4&#45;&gt;Node5 -->
<g id="edge10" class="edge"><title>Node4&#45;&gt;Node5</title>
<path fill="none" stroke="midnightblue" d="M297.636,-124.195C349.087,-119.021 445.345,-106.042 466,-80 479.278,-63.2595 461.77,-42.3751 445.065,-27.9929"/>
<polygon fill="midnightblue" stroke="midnightblue" points="447.038,-25.086 437.068,-21.5015 442.626,-30.5211 447.038,-25.086"/>
</g>
<!-- Node6 -->
<g id="node12" class="node"><title>Node6</title>
<polygon fill="white" stroke="#bfbfbf" points="484.5,-0.5 484.5,-21.5 537.5,-21.5 537.5,-0.5 484.5,-0.5"/>
<text text-anchor="middle" x="511" y="-8.5" font-family="Verdana" font-size="10.00">stdint.h</text>
</g>
<!-- Node4&#45;&gt;Node6 -->
<g id="edge12" class="edge"><title>Node4&#45;&gt;Node6</title>
<path fill="none" stroke="midnightblue" d="M297.753,-123.616C351.266,-117.492 454.275,-103.028 482,-80 496.479,-67.9745 503.857,-47.4683 507.535,-31.9278"/>
<polygon fill="midnightblue" stroke="midnightblue" points="511.055,-32.1772 509.607,-21.6818 504.194,-30.7893 511.055,-32.1772"/>
</g>
<!-- Node7 -->
<g id="node14" class="node"><title>Node7</title>
<polygon fill="white" stroke="#bfbfbf" points="141,-58.5 141,-79.5 171,-79.5 171,-58.5 141,-58.5"/>
<text text-anchor="middle" x="156" y="-66.5" font-family="Verdana" font-size="10.00">list</text>
</g>
<!-- Node4&#45;&gt;Node7 -->
<g id="edge14" class="edge"><title>Node4&#45;&gt;Node7</title>
<path fill="none" stroke="midnightblue" d="M245.261,-116.497C226.914,-106.734 199.546,-92.1712 179.955,-81.7468"/>
<polygon fill="midnightblue" stroke="midnightblue" points="181.508,-78.6086 171.036,-77.0009 178.22,-84.7882 181.508,-78.6086"/>
</g>
<!-- Node8 -->
<g id="node16" class="node"><title>Node8</title>
<polygon fill="white" stroke="#bfbfbf" points="189,-58.5 189,-79.5 253,-79.5 253,-58.5 189,-58.5"/>
<text text-anchor="middle" x="221" y="-66.5" font-family="Verdana" font-size="10.00">XmlSink.h</text>
</g>
<!-- Node4&#45;&gt;Node8 -->
<g id="edge16" class="edge"><title>Node4&#45;&gt;Node8</title>
<path fill="none" stroke="midnightblue" d="M256.93,-116.362C250.851,-108.35 242.363,-97.1605 235.163,-87.6696"/>
<polygon fill="midnightblue" stroke="midnightblue" points="237.851,-85.4222 229.019,-79.5707 232.275,-89.653 237.851,-85.4222"/>
</g>
<!-- Node9 -->
<g id="node18" class="node"><title>Node9</title>
<polygon fill="white" stroke="#bfbfbf" points="270.5,-58.5 270.5,-79.5 347.5,-79.5 347.5,-58.5 270.5,-58.5"/>
<text text-anchor="middle" x="309" y="-66.5" font-family="Verdana" font-size="10.00">XmlSource.h</text>
</g>
<!-- Node4&#45;&gt;Node9 -->
<g id="edge18" class="edge"><title>Node4&#45;&gt;Node9</title>
<path fill="none" stroke="midnightblue" d="M273.07,-116.362C279.149,-108.35 287.637,-97.1605 294.837,-87.6696"/>
<polygon fill="midnightblue" stroke="midnightblue" points="297.725,-89.653 300.981,-79.5707 292.149,-85.4222 297.725,-89.653"/>
</g>
<!-- Node10 -->
<g id="node20" class="node"><title>Node10</title>
<a xlink:href="PathNavigator_8h.html" target="_top" xlink:title="PathNavigator.h">
<polygon fill="white" stroke="black" points="365,-58.5 365,-79.5 457,-79.5 457,-58.5 365,-58.5"/>
<text text-anchor="middle" x="411" y="-66.5" font-family="Verdana" font-size="10.00">PathNavigator.h</text>
</a>
</g>
<!-- Node4&#45;&gt;Node10 -->
<g id="edge20" class="edge"><title>Node4&#45;&gt;Node10</title>
<path fill="none" stroke="midnightblue" d="M291.439,-116.497C314.756,-107.234 348.95,-93.6499 374.804,-83.3793"/>
<polygon fill="midnightblue" stroke="midnightblue" points="376.263,-86.566 384.264,-79.6212 373.678,-80.0605 376.263,-86.566"/>
</g>
<!-- Node10&#45;&gt;Node3 -->
<g id="edge24" class="edge"><title>Node10&#45;&gt;Node3</title>
<path fill="none" stroke="midnightblue" d="M364.791,-59.7361C361.816,-59.1466 358.866,-58.5638 356,-58 280.509,-43.1504 191.744,-26.081 145.203,-17.1613"/>
<polygon fill="midnightblue" stroke="midnightblue" points="145.602,-13.6742 135.122,-15.2302 144.285,-20.5492 145.602,-13.6742"/>
</g>
<!-- Node10&#45;&gt;Node5 -->
<g id="edge22" class="edge"><title>Node10&#45;&gt;Node5</title>
<path fill="none" stroke="midnightblue" d="M413.018,-58.3619C414.444,-50.8401 416.402,-40.5187 418.125,-31.4308"/>
<polygon fill="midnightblue" stroke="midnightblue" points="421.571,-32.0477 419.995,-21.5707 414.693,-30.7433 421.571,-32.0477"/>
</g>
<!-- Node10&#45;&gt;Node6 -->
<g id="edge26" class="edge"><title>Node10&#45;&gt;Node6</title>
<path fill="none" stroke="midnightblue" d="M429.342,-58.3619C444.566,-49.532 466.441,-36.844 483.72,-26.8224"/>
<polygon fill="midnightblue" stroke="midnightblue" points="485.88,-29.6155 492.775,-21.5707 482.368,-23.5603 485.88,-29.6155"/>
</g>
</g>
</svg>
