<?xml version="1.0" encoding="UTF-8" standalone="no"?>
<!DOCTYPE svg PUBLIC "-//W3C//DTD SVG 1.1//EN"
 "http://www.w3.org/Graphics/SVG/1.1/DTD/svg11.dtd">
<!-- Generated by graphviz version 2.26.3 (20100126.1600)
 -->
<!-- Title: parameter/ElementLibrary.h Pages: 1 -->
<svg width="825pt" height="246pt"
 viewBox="0.00 0.00 825.00 246.00" xmlns="http://www.w3.org/2000/svg" xmlns:xlink="http://www.w3.org/1999/xlink">
<g id="graph1" class="graph" transform="scale(1 1) rotate(0) translate(4 242)">
<title>parameter/ElementLibrary.h</title>
<polygon fill="white" stroke="white" points="-4,5 -4,-242 822,-242 822,5 -4,5"/>
<!-- Node1 -->
<g id="node1" class="node"><title>Node1</title>
<polygon fill="#bfbfbf" stroke="black" points="344,-216.5 344,-237.5 494,-237.5 494,-216.5 344,-216.5"/>
<text text-anchor="middle" x="419" y="-224.5" font-family="Verdana" font-size="10.00">parameter/ElementLibrary.h</text>
</g>
<!-- Node2 -->
<g id="node3" class="node"><title>Node2</title>
<a xlink:href="DefaultElementLibrary_8h.html" target="_top" xlink:title="parameter/DefaultElement\lLibrary.h">
<polygon fill="white" stroke="black" points="28.5,-145 28.5,-179 173.5,-179 173.5,-145 28.5,-145"/>
<text text-anchor="start" x="36.5" y="-166" font-family="Verdana" font-size="10.00">parameter/DefaultElement</text>
<text text-anchor="middle" x="101" y="-153" font-family="Verdana" font-size="10.00">Library.h</text>
</a>
</g>
<!-- Node1&#45;&gt;Node2 -->
<g id="edge2" class="edge"><title>Node1&#45;&gt;Node2</title>
<path fill="none" stroke="midnightblue" d="M353.976,-214.521C306.31,-205.272 240.061,-192.207 182,-180 179.322,-179.437 176.594,-178.858 173.841,-178.269"/>
<polygon fill="midnightblue" stroke="midnightblue" points="353.372,-217.969 363.855,-216.435 354.704,-211.097 353.372,-217.969"/>
</g>
<!-- Node7 -->
<g id="node13" class="node"><title>Node7</title>
<a xlink:href="Element_8cpp.html" target="_top" xlink:title="parameter/Element.cpp">
<polygon fill="white" stroke="black" points="190.5,-151.5 190.5,-172.5 321.5,-172.5 321.5,-151.5 190.5,-151.5"/>
<text text-anchor="middle" x="256" y="-159.5" font-family="Verdana" font-size="10.00">parameter/Element.cpp</text>
</a>
</g>
<!-- Node1&#45;&gt;Node7 -->
<g id="edge12" class="edge"><title>Node1&#45;&gt;Node7</title>
<path fill="none" stroke="midnightblue" d="M383.061,-212.668C352.691,-200.558 309.887,-183.489 282.54,-172.584"/>
<polygon fill="midnightblue" stroke="midnightblue" points="381.863,-215.959 392.448,-216.412 384.456,-209.457 381.863,-215.959"/>
</g>
<!-- Node8 -->
<g id="node15" class="node"><title>Node8</title>
<a xlink:href="ElementLibrary_8cpp.html" target="_top" xlink:title="parameter/ElementLibrary.cpp">
<polygon fill="white" stroke="black" points="338.5,-151.5 338.5,-172.5 499.5,-172.5 499.5,-151.5 338.5,-151.5"/>
<text text-anchor="middle" x="419" y="-159.5" font-family="Verdana" font-size="10.00">parameter/ElementLibrary.cpp</text>
</a>
</g>
<!-- Node1&#45;&gt;Node8 -->
<g id="edge14" class="edge"><title>Node1&#45;&gt;Node8</title>
<path fill="none" stroke="midnightblue" d="M419,-206.014C419,-194.831 419,-181.558 419,-172.534"/>
<polygon fill="midnightblue" stroke="midnightblue" points="415.5,-206.267 419,-216.267 422.5,-206.267 415.5,-206.267"/>
</g>
<!-- Node9 -->
<g id="node17" class="node"><title>Node9</title>
<a xlink:href="ElementLibrarySet_8h.html" target="_top" xlink:title="parameter/ElementLibrary\lSet.h">
<polygon fill="white" stroke="black" points="516.5,-145 516.5,-179 659.5,-179 659.5,-145 516.5,-145"/>
<text text-anchor="start" x="524.5" y="-166" font-family="Verdana" font-size="10.00">parameter/ElementLibrary</text>
<text text-anchor="middle" x="588" y="-153" font-family="Verdana" font-size="10.00">Set.h</text>
</a>
</g>
<!-- Node1&#45;&gt;Node9 -->
<g id="edge16" class="edge"><title>Node1&#45;&gt;Node9</title>
<path fill="none" stroke="midnightblue" d="M455.957,-212.786C481.765,-202.859 516.345,-189.56 543.643,-179.06"/>
<polygon fill="midnightblue" stroke="midnightblue" points="454.606,-209.555 446.529,-216.412 457.119,-216.089 454.606,-209.555"/>
</g>
<!-- Node11 -->
<g id="node22" class="node"><title>Node11</title>
<a xlink:href="XmlFileIncluderElement_8cpp.html" target="_top" xlink:title="parameter/XmlFileIncluder\lElement.cpp">
<polygon fill="white" stroke="black" points="676.5,-145 676.5,-179 817.5,-179 817.5,-145 676.5,-145"/>
<text text-anchor="start" x="684.5" y="-166" font-family="Verdana" font-size="10.00">parameter/XmlFileIncluder</text>
<text text-anchor="middle" x="747" y="-153" font-family="Verdana" font-size="10.00">Element.cpp</text>
</a>
</g>
<!-- Node1&#45;&gt;Node11 -->
<g id="edge22" class="edge"><title>Node1&#45;&gt;Node11</title>
<path fill="none" stroke="midnightblue" d="M488.298,-214.639C538.331,-205.539 607.46,-192.606 668,-180 670.754,-179.426 673.56,-178.833 676.393,-178.225"/>
<polygon fill="midnightblue" stroke="midnightblue" points="487.453,-211.235 478.238,-216.464 488.702,-218.122 487.453,-211.235"/>
</g>
<!-- Node3 -->
<g id="node5" class="node"><title>Node3</title>
<a xlink:href="SubsystemLibrary_8h.html" target="_top" xlink:title="parameter/SubsystemLibrary.h">
<polygon fill="white" stroke="black" points="88,-79.5 88,-100.5 252,-100.5 252,-79.5 88,-79.5"/>
<text text-anchor="middle" x="170" y="-87.5" font-family="Verdana" font-size="10.00">parameter/SubsystemLibrary.h</text>
</a>
</g>
<!-- Node2&#45;&gt;Node3 -->
<g id="edge4" class="edge"><title>Node2&#45;&gt;Node3</title>
<path fill="none" stroke="midnightblue" d="M124.464,-137.516C136.388,-125.073 150.279,-110.579 159.553,-100.901"/>
<polygon fill="midnightblue" stroke="midnightblue" points="121.744,-135.295 117.352,-144.937 126.798,-140.139 121.744,-135.295"/>
</g>
<!-- Node4 -->
<g id="node7" class="node"><title>Node4</title>
<a xlink:href="ParameterMgr_8cpp.html" target="_top" xlink:title="parameter/ParameterMgr.cpp">
<polygon fill="white" stroke="black" points="430,-7.5 430,-28.5 588,-28.5 588,-7.5 430,-7.5"/>
<text text-anchor="middle" x="509" y="-15.5" font-family="Verdana" font-size="10.00">parameter/ParameterMgr.cpp</text>
</a>
</g>
<!-- Node3&#45;&gt;Node4 -->
<g id="edge6" class="edge"><title>Node3&#45;&gt;Node4</title>
<path fill="none" stroke="midnightblue" d="M229.8,-77.299C295.119,-63.426 398.541,-41.4603 459.486,-28.5162"/>
<polygon fill="midnightblue" stroke="midnightblue" points="228.711,-73.9522 219.657,-79.4535 230.166,-80.7995 228.711,-73.9522"/>
</g>
<!-- Node5 -->
<g id="node9" class="node"><title>Node5</title>
<a xlink:href="SubsystemElementBuilder_8cpp.html" target="_top" xlink:title="parameter/SubsystemElement\lBuilder.cpp">
<polygon fill="white" stroke="black" points="0,-1 0,-35 164,-35 164,-1 0,-1"/>
<text text-anchor="start" x="8" y="-22" font-family="Verdana" font-size="10.00">parameter/SubsystemElement</text>
<text text-anchor="middle" x="82" y="-9" font-family="Verdana" font-size="10.00">Builder.cpp</text>
</a>
</g>
<!-- Node3&#45;&gt;Node5 -->
<g id="edge8" class="edge"><title>Node3&#45;&gt;Node5</title>
<path fill="none" stroke="midnightblue" d="M148.963,-72.7882C135.021,-61.3811 116.806,-46.4774 102.893,-35.0944"/>
<polygon fill="midnightblue" stroke="midnightblue" points="147.059,-75.7526 157.015,-79.3762 151.492,-70.3349 147.059,-75.7526"/>
</g>
<!-- Node6 -->
<g id="node11" class="node"><title>Node6</title>
<a xlink:href="SystemClass_8cpp.html" target="_top" xlink:title="parameter/SystemClass.cpp">
<polygon fill="white" stroke="black" points="181.5,-7.5 181.5,-28.5 334.5,-28.5 334.5,-7.5 181.5,-7.5"/>
<text text-anchor="middle" x="258" y="-15.5" font-family="Verdana" font-size="10.00">parameter/SystemClass.cpp</text>
</a>
</g>
<!-- Node3&#45;&gt;Node6 -->
<g id="edge10" class="edge"><title>Node3&#45;&gt;Node6</title>
<path fill="none" stroke="midnightblue" d="M191.111,-72.7275C207.871,-59.0146 230.772,-40.2774 244.962,-28.6674"/>
<polygon fill="midnightblue" stroke="midnightblue" points="188.508,-70.3349 182.985,-79.3762 192.941,-75.7526 188.508,-70.3349"/>
</g>
<!-- Node9&#45;&gt;Node4 -->
<g id="edge20" class="edge"><title>Node9&#45;&gt;Node4</title>
<path fill="none" stroke="midnightblue" d="M586.66,-134.742C584.721,-116.027 580.069,-91.1976 569,-72 558.43,-53.6675 539.454,-38.1742 525.667,-28.5489"/>
<polygon fill="midnightblue" stroke="midnightblue" points="583.193,-135.293 587.516,-144.966 590.169,-134.708 583.193,-135.293"/>
</g>
<!-- Node10 -->
<g id="node19" class="node"><title>Node10</title>
<a xlink:href="ElementLibrarySet_8cpp.html" target="_top" xlink:title="parameter/ElementLibrary\lSet.cpp">
<polygon fill="white" stroke="black" points="417.5,-73 417.5,-107 560.5,-107 560.5,-73 417.5,-73"/>
<text text-anchor="start" x="425.5" y="-94" font-family="Verdana" font-size="10.00">parameter/ElementLibrary</text>
<text text-anchor="middle" x="489" y="-81" font-family="Verdana" font-size="10.00">Set.cpp</text>
</a>
</g>
<!-- Node9&#45;&gt;Node10 -->
<g id="edge18" class="edge"><title>Node9&#45;&gt;Node10</title>
<path fill="none" stroke="midnightblue" d="M556.078,-138.784C541.956,-128.514 525.64,-116.648 512.636,-107.19"/>
<polygon fill="midnightblue" stroke="midnightblue" points="554.392,-141.886 564.538,-144.937 558.51,-136.225 554.392,-141.886"/>
</g>
</g>
</svg>
