<?xml version="1.0" encoding="UTF-8" standalone="no"?>
<!DOCTYPE svg PUBLIC "-//W3C//DTD SVG 1.1//EN"
 "http://www.w3.org/Graphics/SVG/1.1/DTD/svg11.dtd">
<!-- Generated by graphviz version 2.26.3 (20100126.1600)
 -->
<!-- Title: parameter/EnumParameterType.cpp Pages: 1 -->
<svg width="758pt" height="378pt"
 viewBox="0.00 0.00 758.00 378.00" xmlns="http://www.w3.org/2000/svg" xmlns:xlink="http://www.w3.org/1999/xlink">
<g id="graph1" class="graph" transform="scale(1 1) rotate(0) translate(4 374)">
<title>parameter/EnumParameterType.cpp</title>
<polygon fill="white" stroke="white" points="-4,5 -4,-374 755,-374 755,5 -4,5"/>
<!-- Node1 -->
<g id="node1" class="node"><title>Node1</title>
<polygon fill="#bfbfbf" stroke="black" points="343,-348.5 343,-369.5 533,-369.5 533,-348.5 343,-348.5"/>
<text text-anchor="middle" x="438" y="-356.5" font-family="Verdana" font-size="10.00">parameter/EnumParameterType.cpp</text>
</g>
<!-- Node2 -->
<g id="node3" class="node"><title>Node2</title>
<a xlink:href="EnumParameterType_8h.html" target="_top" xlink:title="EnumParameterType.h">
<polygon fill="white" stroke="black" points="123.5,-290.5 123.5,-311.5 248.5,-311.5 248.5,-290.5 123.5,-290.5"/>
<text text-anchor="middle" x="186" y="-298.5" font-family="Verdana" font-size="10.00">EnumParameterType.h</text>
</a>
</g>
<!-- Node1&#45;&gt;Node2 -->
<g id="edge2" class="edge"><title>Node1&#45;&gt;Node2</title>
<path fill="none" stroke="midnightblue" d="M392.365,-348.497C350.037,-338.755 286.942,-324.233 241.67,-313.813"/>
<polygon fill="midnightblue" stroke="midnightblue" points="242.251,-310.355 231.721,-311.523 240.681,-317.177 242.251,-310.355"/>
</g>
<!-- Node14 -->
<g id="node35" class="node"><title>Node14</title>
<polygon fill="white" stroke="#bfbfbf" points="341.5,-290.5 341.5,-311.5 392.5,-311.5 392.5,-290.5 341.5,-290.5"/>
<text text-anchor="middle" x="367" y="-298.5" font-family="Verdana" font-size="10.00">stdlib.h</text>
</g>
<!-- Node1&#45;&gt;Node14 -->
<g id="edge42" class="edge"><title>Node1&#45;&gt;Node14</title>
<path fill="none" stroke="midnightblue" d="M424.978,-348.362C414.569,-339.859 399.781,-327.779 387.745,-317.947"/>
<polygon fill="midnightblue" stroke="midnightblue" points="389.899,-315.187 379.94,-311.571 385.47,-320.608 389.899,-315.187"/>
</g>
<!-- Node15 -->
<g id="node37" class="node"><title>Node15</title>
<polygon fill="white" stroke="#bfbfbf" points="410,-290.5 410,-311.5 466,-311.5 466,-290.5 410,-290.5"/>
<text text-anchor="middle" x="438" y="-298.5" font-family="Verdana" font-size="10.00">sstream</text>
</g>
<!-- Node1&#45;&gt;Node15 -->
<g id="edge44" class="edge"><title>Node1&#45;&gt;Node15</title>
<path fill="none" stroke="midnightblue" d="M438,-348.362C438,-340.922 438,-330.743 438,-321.728"/>
<polygon fill="midnightblue" stroke="midnightblue" points="441.5,-321.571 438,-311.571 434.5,-321.571 441.5,-321.571"/>
</g>
<!-- Node16 -->
<g id="node39" class="node"><title>Node16</title>
<polygon fill="white" stroke="#bfbfbf" points="483.5,-290.5 483.5,-311.5 538.5,-311.5 538.5,-290.5 483.5,-290.5"/>
<text text-anchor="middle" x="511" y="-298.5" font-family="Verdana" font-size="10.00">iomanip</text>
</g>
<!-- Node1&#45;&gt;Node16 -->
<g id="edge46" class="edge"><title>Node1&#45;&gt;Node16</title>
<path fill="none" stroke="midnightblue" d="M451.389,-348.362C462.091,-339.859 477.296,-327.779 489.671,-317.947"/>
<polygon fill="midnightblue" stroke="midnightblue" points="492.043,-320.532 497.696,-311.571 487.689,-315.051 492.043,-320.532"/>
</g>
<!-- Node17 -->
<g id="node41" class="node"><title>Node17</title>
<polygon fill="white" stroke="#bfbfbf" points="556,-290.5 556,-311.5 608,-311.5 608,-290.5 556,-290.5"/>
<text text-anchor="middle" x="582" y="-298.5" font-family="Verdana" font-size="10.00">ctype.h</text>
</g>
<!-- Node1&#45;&gt;Node17 -->
<g id="edge48" class="edge"><title>Node1&#45;&gt;Node17</title>
<path fill="none" stroke="midnightblue" d="M464.077,-348.497C487.075,-339.234 520.8,-325.65 546.3,-315.379"/>
<polygon fill="midnightblue" stroke="midnightblue" points="547.662,-318.604 555.63,-311.621 545.047,-312.111 547.662,-318.604"/>
</g>
<!-- Node18 -->
<g id="node43" class="node"><title>Node18</title>
<polygon fill="white" stroke="#bfbfbf" points="626,-290.5 626,-311.5 682,-311.5 682,-290.5 626,-290.5"/>
<text text-anchor="middle" x="654" y="-298.5" font-family="Verdana" font-size="10.00">assert.h</text>
</g>
<!-- Node1&#45;&gt;Node18 -->
<g id="edge50" class="edge"><title>Node1&#45;&gt;Node18</title>
<path fill="none" stroke="midnightblue" d="M479.697,-348.457C513.911,-339.715 563.847,-326.749 615.987,-312.23"/>
<polygon fill="midnightblue" stroke="midnightblue" points="617.057,-315.565 625.745,-309.502 615.172,-308.824 617.057,-315.565"/>
</g>
<!-- Node19 -->
<g id="node45" class="node"><title>Node19</title>
<a xlink:href="ParameterAccessContext_8h.html" target="_top" xlink:title="ParameterAccessContext.h">
<polygon fill="white" stroke="black" points="156.5,-116.5 156.5,-137.5 303.5,-137.5 303.5,-116.5 156.5,-116.5"/>
<text text-anchor="middle" x="230" y="-124.5" font-family="Verdana" font-size="10.00">ParameterAccessContext.h</text>
</a>
</g>
<!-- Node1&#45;&gt;Node19 -->
<g id="edge52" class="edge"><title>Node1&#45;&gt;Node19</title>
<path fill="none" stroke="midnightblue" d="M392.763,-348.417C369.973,-341.229 343.183,-329.724 324,-312 297.721,-287.721 255.634,-189.751 238.089,-147.055"/>
<polygon fill="midnightblue" stroke="midnightblue" points="241.289,-145.632 234.272,-137.693 234.807,-148.275 241.289,-145.632"/>
</g>
<!-- Node21 -->
<g id="node52" class="node"><title>Node21</title>
<a xlink:href="EnumValuePair_8h.html" target="_top" xlink:title="EnumValuePair.h">
<polygon fill="white" stroke="black" points="313,-232.5 313,-253.5 409,-253.5 409,-232.5 313,-232.5"/>
<text text-anchor="middle" x="361" y="-240.5" font-family="Verdana" font-size="10.00">EnumValuePair.h</text>
</a>
</g>
<!-- Node1&#45;&gt;Node21 -->
<g id="edge62" class="edge"><title>Node1&#45;&gt;Node21</title>
<path fill="none" stroke="midnightblue" d="M385.882,-348.472C365.822,-341.605 344.893,-330.353 333,-312 322.774,-296.219 333.208,-276.096 344.125,-261.66"/>
<polygon fill="midnightblue" stroke="midnightblue" points="346.851,-263.855 350.457,-253.892 341.426,-259.432 346.851,-263.855"/>
</g>
<!-- Node22 -->
<g id="node55" class="node"><title>Node22</title>
<polygon fill="white" stroke="#bfbfbf" points="699.5,-290.5 699.5,-311.5 750.5,-311.5 750.5,-290.5 699.5,-290.5"/>
<text text-anchor="middle" x="725" y="-298.5" font-family="Verdana" font-size="10.00">errno.h</text>
</g>
<!-- Node1&#45;&gt;Node22 -->
<g id="edge66" class="edge"><title>Node1&#45;&gt;Node22</title>
<path fill="none" stroke="midnightblue" d="M508.058,-348.483C556.746,-340.598 623.247,-328.689 689.684,-312.124"/>
<polygon fill="midnightblue" stroke="midnightblue" points="690.646,-315.491 699.483,-309.646 688.93,-308.705 690.646,-315.491"/>
</g>
<!-- Node3 -->
<g id="node5" class="node"><title>Node3</title>
<a xlink:href="ParameterType_8h.html" target="_top" xlink:title="ParameterType.h">
<polygon fill="white" stroke="black" points="137.5,-232.5 137.5,-253.5 234.5,-253.5 234.5,-232.5 137.5,-232.5"/>
<text text-anchor="middle" x="186" y="-240.5" font-family="Verdana" font-size="10.00">ParameterType.h</text>
</a>
</g>
<!-- Node2&#45;&gt;Node3 -->
<g id="edge4" class="edge"><title>Node2&#45;&gt;Node3</title>
<path fill="none" stroke="midnightblue" d="M186,-290.362C186,-282.922 186,-272.743 186,-263.728"/>
<polygon fill="midnightblue" stroke="midnightblue" points="189.5,-263.571 186,-253.571 182.5,-263.571 189.5,-263.571"/>
</g>
<!-- Node8 -->
<g id="node15" class="node"><title>Node8</title>
<polygon fill="white" stroke="#bfbfbf" points="92,-0.5 92,-21.5 136,-21.5 136,-0.5 92,-0.5"/>
<text text-anchor="middle" x="114" y="-8.5" font-family="Verdana" font-size="10.00">string</text>
</g>
<!-- Node2&#45;&gt;Node8 -->
<g id="edge40" class="edge"><title>Node2&#45;&gt;Node8</title>
<path fill="none" stroke="midnightblue" d="M128.93,-290.439C74.2543,-276.635 0,-246.557 0,-185 0,-185 0,-185 0,-127 0,-79.6392 48.9383,-44.5429 82.6864,-25.9709"/>
<polygon fill="midnightblue" stroke="midnightblue" points="84.5479,-28.9458 91.749,-21.1744 81.2733,-22.7589 84.5479,-28.9458"/>
</g>
<!-- Node10 -->
<g id="node20" class="node"><title>Node10</title>
<polygon fill="white" stroke="#bfbfbf" points="684,-58.5 684,-79.5 714,-79.5 714,-58.5 684,-58.5"/>
<text text-anchor="middle" x="699" y="-66.5" font-family="Verdana" font-size="10.00">list</text>
</g>
<!-- Node2&#45;&gt;Node10 -->
<g id="edge38" class="edge"><title>Node2&#45;&gt;Node10</title>
<path fill="none" stroke="midnightblue" d="M248.947,-294.836C296.722,-288.608 363.289,-276.557 418,-254 525.293,-209.764 635.312,-122.75 679.191,-86.0104"/>
<polygon fill="midnightblue" stroke="midnightblue" points="681.45,-88.684 686.832,-79.5583 676.934,-83.3356 681.45,-88.684"/>
</g>
<!-- Node4 -->
<g id="node7" class="node"><title>Node4</title>
<polygon fill="white" stroke="#bfbfbf" points="550.5,-0.5 550.5,-21.5 603.5,-21.5 603.5,-0.5 550.5,-0.5"/>
<text text-anchor="middle" x="577" y="-8.5" font-family="Verdana" font-size="10.00">stdint.h</text>
</g>
<!-- Node3&#45;&gt;Node4 -->
<g id="edge6" class="edge"><title>Node3&#45;&gt;Node4</title>
<path fill="none" stroke="midnightblue" d="M234.806,-235.651C355.701,-216.348 663.59,-160.12 723,-80 753.449,-38.9368 666.449,-21.3639 613.866,-14.6511"/>
<polygon fill="midnightblue" stroke="midnightblue" points="614.199,-11.1661 603.853,-13.4496 613.365,-18.1162 614.199,-11.1661"/>
</g>
<!-- Node5 -->
<g id="node9" class="node"><title>Node5</title>
<polygon fill="white" stroke="#bfbfbf" points="93,-174.5 93,-195.5 135,-195.5 135,-174.5 93,-174.5"/>
<text text-anchor="middle" x="114" y="-182.5" font-family="Verdana" font-size="10.00">limits</text>
</g>
<!-- Node3&#45;&gt;Node5 -->
<g id="edge8" class="edge"><title>Node3&#45;&gt;Node5</title>
<path fill="none" stroke="midnightblue" d="M172.794,-232.362C162.239,-223.859 147.242,-211.779 135.037,-201.947"/>
<polygon fill="midnightblue" stroke="midnightblue" points="137.105,-199.118 127.122,-195.571 132.714,-204.57 137.105,-199.118"/>
</g>
<!-- Node6 -->
<g id="node11" class="node"><title>Node6</title>
<a xlink:href="TypeElement_8h.html" target="_top" xlink:title="TypeElement.h">
<polygon fill="white" stroke="black" points="153,-174.5 153,-195.5 239,-195.5 239,-174.5 153,-174.5"/>
<text text-anchor="middle" x="196" y="-182.5" font-family="Verdana" font-size="10.00">TypeElement.h</text>
</a>
</g>
<!-- Node3&#45;&gt;Node6 -->
<g id="edge10" class="edge"><title>Node3&#45;&gt;Node6</title>
<path fill="none" stroke="midnightblue" d="M187.834,-232.362C189.131,-224.84 190.911,-214.519 192.477,-205.431"/>
<polygon fill="midnightblue" stroke="midnightblue" points="195.927,-206.02 194.177,-195.571 189.029,-204.831 195.927,-206.02"/>
</g>
<!-- Node3&#45;&gt;Node8 -->
<g id="edge36" class="edge"><title>Node3&#45;&gt;Node8</title>
<path fill="none" stroke="midnightblue" d="M137.463,-232.848C117.335,-225.987 95.9329,-214.637 84,-196 50.4826,-143.651 83.6962,-66.4091 102.711,-30.579"/>
<polygon fill="midnightblue" stroke="midnightblue" points="105.882,-32.0759 107.63,-21.6263 99.7467,-28.705 105.882,-32.0759"/>
</g>
<!-- Node7 -->
<g id="node13" class="node"><title>Node7</title>
<a xlink:href="Element_8h.html" target="_top" xlink:title="Element.h">
<polygon fill="white" stroke="black" points="391.5,-116.5 391.5,-137.5 456.5,-137.5 456.5,-116.5 391.5,-116.5"/>
<text text-anchor="middle" x="424" y="-124.5" font-family="Verdana" font-size="10.00">Element.h</text>
</a>
</g>
<!-- Node6&#45;&gt;Node7 -->
<g id="edge12" class="edge"><title>Node6&#45;&gt;Node7</title>
<path fill="none" stroke="midnightblue" d="M237.289,-174.497C278.189,-164.092 340.521,-148.236 381.752,-137.747"/>
<polygon fill="midnightblue" stroke="midnightblue" points="382.668,-141.126 391.497,-135.268 380.943,-134.342 382.668,-141.126"/>
</g>
<!-- Node6&#45;&gt;Node8 -->
<g id="edge34" class="edge"><title>Node6&#45;&gt;Node8</title>
<path fill="none" stroke="midnightblue" d="M183.058,-174.374C172.701,-165.42 158.262,-151.88 148,-138 130.747,-114.663 125.675,-107.989 118,-80 113.687,-64.2691 112.826,-45.7889 112.968,-31.9147"/>
<polygon fill="midnightblue" stroke="midnightblue" points="116.478,-31.6023 113.269,-21.5053 109.481,-31.3999 116.478,-31.6023"/>
</g>
<!-- Node7&#45;&gt;Node4 -->
<g id="edge18" class="edge"><title>Node7&#45;&gt;Node4</title>
<path fill="none" stroke="midnightblue" d="M456.798,-123.786C506.341,-118.178 596.562,-104.77 616,-80 628.659,-63.8681 613.364,-43.1359 598.371,-28.6258"/>
<polygon fill="midnightblue" stroke="midnightblue" points="600.462,-25.797 590.707,-21.6624 595.755,-30.9778 600.462,-25.797"/>
</g>
<!-- Node7&#45;&gt;Node8 -->
<g id="edge14" class="edge"><title>Node7&#45;&gt;Node8</title>
<path fill="none" stroke="midnightblue" d="M391.28,-118.901C360.579,-110.787 313.719,-97.0675 275,-80 257.143,-72.1285 254.615,-66.3986 237,-58 206.894,-43.6464 171.153,-30.3877 145.978,-21.638"/>
<polygon fill="midnightblue" stroke="midnightblue" points="146.812,-18.2236 136.217,-18.2872 144.539,-24.8444 146.812,-18.2236"/>
</g>
<!-- Node9 -->
<g id="node17" class="node"><title>Node9</title>
<polygon fill="white" stroke="#bfbfbf" points="443.5,-0.5 443.5,-21.5 490.5,-21.5 490.5,-0.5 443.5,-0.5"/>
<text text-anchor="middle" x="467" y="-8.5" font-family="Verdana" font-size="10.00">vector</text>
</g>
<!-- Node7&#45;&gt;Node9 -->
<g id="edge16" class="edge"><title>Node7&#45;&gt;Node9</title>
<path fill="none" stroke="midnightblue" d="M456.558,-122.973C502.253,-116.576 581.771,-102.467 599,-80 627.661,-42.6263 548.722,-23.5061 500.784,-15.5839"/>
<polygon fill="midnightblue" stroke="midnightblue" points="501.208,-12.1078 490.787,-14.0181 500.125,-19.0234 501.208,-12.1078"/>
</g>
<!-- Node7&#45;&gt;Node10 -->
<g id="edge20" class="edge"><title>Node7&#45;&gt;Node10</title>
<path fill="none" stroke="midnightblue" d="M456.654,-122.608C504.171,-115.803 594.899,-101.244 670,-80 671.425,-79.5969 672.878,-79.1536 674.338,-78.6831"/>
<polygon fill="midnightblue" stroke="midnightblue" points="675.557,-81.9645 683.815,-75.3278 673.221,-75.3658 675.557,-81.9645"/>
</g>
<!-- Node11 -->
<g id="node22" class="node"><title>Node11</title>
<polygon fill="white" stroke="#bfbfbf" points="526,-58.5 526,-79.5 590,-79.5 590,-58.5 526,-58.5"/>
<text text-anchor="middle" x="558" y="-66.5" font-family="Verdana" font-size="10.00">XmlSink.h</text>
</g>
<!-- Node7&#45;&gt;Node11 -->
<g id="edge22" class="edge"><title>Node7&#45;&gt;Node11</title>
<path fill="none" stroke="midnightblue" d="M448.266,-116.497C469.478,-107.315 500.498,-93.8889 524.15,-83.6516"/>
<polygon fill="midnightblue" stroke="midnightblue" points="525.674,-86.8055 533.461,-79.6212 522.894,-80.3815 525.674,-86.8055"/>
</g>
<!-- Node12 -->
<g id="node24" class="node"><title>Node12</title>
<polygon fill="white" stroke="#bfbfbf" points="283.5,-58.5 283.5,-79.5 360.5,-79.5 360.5,-58.5 283.5,-58.5"/>
<text text-anchor="middle" x="322" y="-66.5" font-family="Verdana" font-size="10.00">XmlSource.h</text>
</g>
<!-- Node7&#45;&gt;Node12 -->
<g id="edge24" class="edge"><title>Node7&#45;&gt;Node12</title>
<path fill="none" stroke="midnightblue" d="M405.292,-116.362C389.619,-107.45 367.036,-94.6087 349.337,-84.5447"/>
<polygon fill="midnightblue" stroke="midnightblue" points="351.013,-81.4712 340.59,-79.5707 347.553,-87.5562 351.013,-81.4712"/>
</g>
<!-- Node13 -->
<g id="node26" class="node"><title>Node13</title>
<a xlink:href="PathNavigator_8h.html" target="_top" xlink:title="PathNavigator.h">
<polygon fill="white" stroke="black" points="378,-58.5 378,-79.5 470,-79.5 470,-58.5 378,-58.5"/>
<text text-anchor="middle" x="424" y="-66.5" font-family="Verdana" font-size="10.00">PathNavigator.h</text>
</a>
</g>
<!-- Node7&#45;&gt;Node13 -->
<g id="edge26" class="edge"><title>Node7&#45;&gt;Node13</title>
<path fill="none" stroke="midnightblue" d="M424,-116.362C424,-108.922 424,-98.7427 424,-89.7276"/>
<polygon fill="midnightblue" stroke="midnightblue" points="427.5,-89.5706 424,-79.5707 420.5,-89.5707 427.5,-89.5706"/>
</g>
<!-- Node13&#45;&gt;Node4 -->
<g id="edge32" class="edge"><title>Node13&#45;&gt;Node4</title>
<path fill="none" stroke="midnightblue" d="M451.707,-58.4966C476.633,-49.0476 513.42,-35.1021 540.691,-24.7641"/>
<polygon fill="midnightblue" stroke="midnightblue" points="542.158,-27.9512 550.268,-21.1337 539.677,-21.4057 542.158,-27.9512"/>
</g>
<!-- Node13&#45;&gt;Node8 -->
<g id="edge30" class="edge"><title>Node13&#45;&gt;Node8</title>
<path fill="none" stroke="midnightblue" d="M377.796,-59.7066C374.821,-59.1243 371.869,-58.5512 369,-58 288.894,-42.6079 194.43,-25.4577 146.069,-16.7501"/>
<polygon fill="midnightblue" stroke="midnightblue" points="146.654,-13.2992 136.192,-14.9737 145.415,-20.1886 146.654,-13.2992"/>
</g>
<!-- Node13&#45;&gt;Node9 -->
<g id="edge28" class="edge"><title>Node13&#45;&gt;Node9</title>
<path fill="none" stroke="midnightblue" d="M431.887,-58.3619C437.827,-50.3496 446.122,-39.1605 453.159,-29.6696"/>
<polygon fill="midnightblue" stroke="midnightblue" points="456.019,-31.6883 459.163,-21.5707 450.396,-27.5193 456.019,-31.6883"/>
</g>
<!-- Node19&#45;&gt;Node4 -->
<g id="edge54" class="edge"><title>Node19&#45;&gt;Node4</title>
<path fill="none" stroke="midnightblue" d="M303.747,-121.381C354.602,-115.538 422.88,-103.728 479,-80 494.96,-73.2522 531.632,-46.0803 555.311,-27.915"/>
<polygon fill="midnightblue" stroke="midnightblue" points="557.606,-30.5648 563.385,-21.6846 553.33,-25.023 557.606,-30.5648"/>
</g>
<!-- Node19&#45;&gt;Node8 -->
<g id="edge60" class="edge"><title>Node19&#45;&gt;Node8</title>
<path fill="none" stroke="midnightblue" d="M190.583,-116.449C170.692,-109.232 147.725,-97.6908 133,-80 121.725,-66.4541 117.112,-46.7361 115.239,-31.8442"/>
<polygon fill="midnightblue" stroke="midnightblue" points="118.695,-31.2086 114.276,-21.5791 111.725,-31.8623 118.695,-31.2086"/>
</g>
<!-- Node20 -->
<g id="node48" class="node"><title>Node20</title>
<a xlink:href="ErrorContext_8h.html" target="_top" xlink:title="ErrorContext.h">
<polygon fill="white" stroke="black" points="142,-58.5 142,-79.5 228,-79.5 228,-58.5 142,-58.5"/>
<text text-anchor="middle" x="185" y="-66.5" font-family="Verdana" font-size="10.00">ErrorContext.h</text>
</a>
</g>
<!-- Node19&#45;&gt;Node20 -->
<g id="edge56" class="edge"><title>Node19&#45;&gt;Node20</title>
<path fill="none" stroke="midnightblue" d="M221.746,-116.362C215.53,-108.35 206.849,-97.1605 199.485,-87.6696"/>
<polygon fill="midnightblue" stroke="midnightblue" points="202.097,-85.326 193.201,-79.5707 196.566,-89.617 202.097,-85.326"/>
</g>
<!-- Node20&#45;&gt;Node8 -->
<g id="edge58" class="edge"><title>Node20&#45;&gt;Node8</title>
<path fill="none" stroke="midnightblue" d="M171.978,-58.3619C161.569,-49.859 146.781,-37.7785 134.745,-27.9466"/>
<polygon fill="midnightblue" stroke="midnightblue" points="136.899,-25.1866 126.94,-21.5707 132.47,-30.6077 136.899,-25.1866"/>
</g>
<!-- Node21&#45;&gt;Node7 -->
<g id="edge64" class="edge"><title>Node21&#45;&gt;Node7</title>
<path fill="none" stroke="midnightblue" d="M366.814,-232.295C377.409,-212.786 400.001,-171.188 413.4,-146.518"/>
<polygon fill="midnightblue" stroke="midnightblue" points="416.503,-148.137 418.2,-137.679 410.352,-144.796 416.503,-148.137"/>
</g>
</g>
</svg>
