<?xml version="1.0" encoding="UTF-8" standalone="no"?>
<!DOCTYPE svg PUBLIC "-//W3C//DTD SVG 1.1//EN"
 "http://www.w3.org/Graphics/SVG/1.1/DTD/svg11.dtd">
<!-- Generated by graphviz version 2.26.3 (20100126.1600)
 -->
<!-- Title: parameter/EnumParameterType.h Pages: 1 -->
<svg width="633pt" height="320pt"
 viewBox="0.00 0.00 633.08 320.00" xmlns="http://www.w3.org/2000/svg" xmlns:xlink="http://www.w3.org/1999/xlink">
<g id="graph1" class="graph" transform="scale(1 1) rotate(0) translate(4 316)">
<title>parameter/EnumParameterType.h</title>
<polygon fill="white" stroke="white" points="-4,5 -4,-316 630.079,-316 630.079,5 -4,5"/>
<!-- Node1 -->
<g id="node1" class="node"><title>Node1</title>
<polygon fill="#bfbfbf" stroke="black" points="97.0613,-290.5 97.0613,-311.5 276.061,-311.5 276.061,-290.5 97.0613,-290.5"/>
<text text-anchor="middle" x="186.561" y="-298.5" font-family="Verdana" font-size="10.00">parameter/EnumParameterType.h</text>
</g>
<!-- Node2 -->
<g id="node3" class="node"><title>Node2</title>
<a xlink:href="ParameterType_8h.html" target="_top" xlink:title="ParameterType.h">
<polygon fill="white" stroke="black" points="62.0613,-232.5 62.0613,-253.5 159.061,-253.5 159.061,-232.5 62.0613,-232.5"/>
<text text-anchor="middle" x="110.561" y="-240.5" font-family="Verdana" font-size="10.00">ParameterType.h</text>
</a>
</g>
<!-- Node1&#45;&gt;Node2 -->
<g id="edge2" class="edge"><title>Node1&#45;&gt;Node2</title>
<path fill="none" stroke="midnightblue" d="M172.622,-290.362C161.373,-281.777 145.346,-269.546 132.396,-259.664"/>
<polygon fill="midnightblue" stroke="midnightblue" points="134.485,-256.855 124.412,-253.571 130.239,-262.42 134.485,-256.855"/>
</g>
<!-- Node7 -->
<g id="node13" class="node"><title>Node7</title>
<polygon fill="white" stroke="#bfbfbf" points="131.561,-0.5 131.561,-21.5 175.561,-21.5 175.561,-0.5 131.561,-0.5"/>
<text text-anchor="middle" x="153.561" y="-8.5" font-family="Verdana" font-size="10.00">string</text>
</g>
<!-- Node1&#45;&gt;Node7 -->
<g id="edge38" class="edge"><title>Node1&#45;&gt;Node7</title>
<path fill="none" stroke="midnightblue" d="M185.348,-290.335C180.497,-247.704 162.447,-89.0869 155.929,-31.8034"/>
<polygon fill="midnightblue" stroke="midnightblue" points="159.394,-31.3023 154.786,-21.7622 152.439,-32.0938 159.394,-31.3023"/>
</g>
<!-- Node9 -->
<g id="node18" class="node"><title>Node9</title>
<polygon fill="white" stroke="#bfbfbf" points="581.561,-58.5 581.561,-79.5 611.561,-79.5 611.561,-58.5 581.561,-58.5"/>
<text text-anchor="middle" x="596.561" y="-66.5" font-family="Verdana" font-size="10.00">list</text>
</g>
<!-- Node1&#45;&gt;Node9 -->
<g id="edge36" class="edge"><title>Node1&#45;&gt;Node9</title>
<path fill="none" stroke="midnightblue" d="M205.244,-290.429C271.81,-252.762 497.417,-125.101 572.231,-82.7675"/>
<polygon fill="midnightblue" stroke="midnightblue" points="574.388,-85.5682 581.368,-77.5972 570.941,-79.4759 574.388,-85.5682"/>
</g>
<!-- Node3 -->
<g id="node5" class="node"><title>Node3</title>
<polygon fill="white" stroke="#bfbfbf" points="527.061,-0.5 527.061,-21.5 580.061,-21.5 580.061,-0.5 527.061,-0.5"/>
<text text-anchor="middle" x="553.561" y="-8.5" font-family="Verdana" font-size="10.00">stdint.h</text>
</g>
<!-- Node2&#45;&gt;Node3 -->
<g id="edge4" class="edge"><title>Node2&#45;&gt;Node3</title>
<path fill="none" stroke="midnightblue" d="M159.077,-234.886C275.426,-214.338 564.813,-156.404 620.561,-80 635.31,-59.7867 609.833,-39.5944 586.171,-26.3248"/>
<polygon fill="midnightblue" stroke="midnightblue" points="587.751,-23.2008 577.279,-21.5925 584.462,-29.3803 587.751,-23.2008"/>
</g>
<!-- Node4 -->
<g id="node7" class="node"><title>Node4</title>
<polygon fill="white" stroke="#bfbfbf" points="12.5613,-174.5 12.5613,-195.5 54.5613,-195.5 54.5613,-174.5 12.5613,-174.5"/>
<text text-anchor="middle" x="33.5613" y="-182.5" font-family="Verdana" font-size="10.00">limits</text>
</g>
<!-- Node2&#45;&gt;Node4 -->
<g id="edge6" class="edge"><title>Node2&#45;&gt;Node4</title>
<path fill="none" stroke="midnightblue" d="M96.4383,-232.362C85.0415,-223.777 68.8032,-211.546 55.6836,-201.664"/>
<polygon fill="midnightblue" stroke="midnightblue" points="57.6881,-198.792 47.5947,-195.571 53.4765,-204.383 57.6881,-198.792"/>
</g>
<!-- Node5 -->
<g id="node9" class="node"><title>Node5</title>
<a xlink:href="TypeElement_8h.html" target="_top" xlink:title="TypeElement.h">
<polygon fill="white" stroke="black" points="72.5613,-174.5 72.5613,-195.5 158.561,-195.5 158.561,-174.5 72.5613,-174.5"/>
<text text-anchor="middle" x="115.561" y="-182.5" font-family="Verdana" font-size="10.00">TypeElement.h</text>
</a>
</g>
<!-- Node2&#45;&gt;Node5 -->
<g id="edge8" class="edge"><title>Node2&#45;&gt;Node5</title>
<path fill="none" stroke="midnightblue" d="M111.478,-232.362C112.12,-224.922 112.997,-214.743 113.774,-205.728"/>
<polygon fill="midnightblue" stroke="midnightblue" points="117.278,-205.834 114.65,-195.571 110.304,-205.233 117.278,-205.834"/>
</g>
<!-- Node2&#45;&gt;Node7 -->
<g id="edge34" class="edge"><title>Node2&#45;&gt;Node7</title>
<path fill="none" stroke="midnightblue" d="M61.9383,-234.143C40.206,-227.5 16.5955,-215.962 3.5613,-196 -1.78454,-187.813 0.00778482,-183.109 3.5613,-174 28.944,-108.933 93.8028,-54.1525 129.354,-27.8096"/>
<polygon fill="midnightblue" stroke="midnightblue" points="131.683,-30.4436 137.719,-21.736 127.571,-24.7792 131.683,-30.4436"/>
</g>
<!-- Node6 -->
<g id="node11" class="node"><title>Node6</title>
<a xlink:href="Element_8h.html" target="_top" xlink:title="Element.h">
<polygon fill="white" stroke="black" points="366.061,-116.5 366.061,-137.5 431.061,-137.5 431.061,-116.5 366.061,-116.5"/>
<text text-anchor="middle" x="398.561" y="-124.5" font-family="Verdana" font-size="10.00">Element.h</text>
</a>
</g>
<!-- Node5&#45;&gt;Node6 -->
<g id="edge10" class="edge"><title>Node5&#45;&gt;Node6</title>
<path fill="none" stroke="midnightblue" d="M158.851,-176.128C212.27,-165.18 302.538,-146.68 355.74,-135.776"/>
<polygon fill="midnightblue" stroke="midnightblue" points="356.771,-139.138 365.864,-133.701 355.365,-132.28 356.771,-139.138"/>
</g>
<!-- Node5&#45;&gt;Node7 -->
<g id="edge32" class="edge"><title>Node5&#45;&gt;Node7</title>
<path fill="none" stroke="midnightblue" d="M117.189,-174.384C120.63,-152.479 129.187,-100.739 139.561,-58 141.684,-49.2557 144.44,-39.7208 146.945,-31.5385"/>
<polygon fill="midnightblue" stroke="midnightblue" points="150.365,-32.3306 150.018,-21.7414 143.685,-30.2352 150.365,-32.3306"/>
</g>
<!-- Node6&#45;&gt;Node3 -->
<g id="edge16" class="edge"><title>Node6&#45;&gt;Node3</title>
<path fill="none" stroke="midnightblue" d="M431.283,-119.532C455.855,-112.597 489.16,-100.231 512.561,-80 527.807,-66.8204 538.912,-46.5102 545.69,-31.3326"/>
<polygon fill="midnightblue" stroke="midnightblue" points="549.049,-32.3713 549.688,-21.7957 542.594,-29.6648 549.049,-32.3713"/>
</g>
<!-- Node6&#45;&gt;Node7 -->
<g id="edge12" class="edge"><title>Node6&#45;&gt;Node7</title>
<path fill="none" stroke="midnightblue" d="M365.893,-125.014C326.363,-121.287 259.08,-110.599 210.561,-80 190.971,-67.6448 174.869,-46.2838 164.835,-30.5936"/>
<polygon fill="midnightblue" stroke="midnightblue" points="167.595,-28.3973 159.395,-21.6884 161.621,-32.0466 167.595,-28.3973"/>
</g>
<!-- Node8 -->
<g id="node15" class="node"><title>Node8</title>
<polygon fill="white" stroke="#bfbfbf" points="393.061,-0.5 393.061,-21.5 440.061,-21.5 440.061,-0.5 393.061,-0.5"/>
<text text-anchor="middle" x="416.561" y="-8.5" font-family="Verdana" font-size="10.00">vector</text>
</g>
<!-- Node6&#45;&gt;Node8 -->
<g id="edge14" class="edge"><title>Node6&#45;&gt;Node8</title>
<path fill="none" stroke="midnightblue" d="M431.063,-120.83C453.696,-114.657 482.287,-102.676 496.561,-80 512.011,-55.4556 477.853,-34.9071 449.476,-22.7824"/>
<polygon fill="midnightblue" stroke="midnightblue" points="450.736,-19.5166 440.154,-18.9998 448.104,-26.003 450.736,-19.5166"/>
</g>
<!-- Node6&#45;&gt;Node9 -->
<g id="edge18" class="edge"><title>Node6&#45;&gt;Node9</title>
<path fill="none" stroke="midnightblue" d="M431.224,-118.861C465.459,-110.111 520.683,-95.3738 567.561,-80 568.968,-79.5386 570.408,-79.0493 571.856,-78.5436"/>
<polygon fill="midnightblue" stroke="midnightblue" points="573.115,-81.81 581.303,-75.0864 570.709,-75.2364 573.115,-81.81"/>
</g>
<!-- Node10 -->
<g id="node20" class="node"><title>Node10</title>
<polygon fill="white" stroke="#bfbfbf" points="219.561,-58.5 219.561,-79.5 283.561,-79.5 283.561,-58.5 219.561,-58.5"/>
<text text-anchor="middle" x="251.561" y="-66.5" font-family="Verdana" font-size="10.00">XmlSink.h</text>
</g>
<!-- Node6&#45;&gt;Node10 -->
<g id="edge20" class="edge"><title>Node6&#45;&gt;Node10</title>
<path fill="none" stroke="midnightblue" d="M371.941,-116.497C348.464,-107.234 314.036,-93.6499 288.006,-83.3793"/>
<polygon fill="midnightblue" stroke="midnightblue" points="289.067,-80.0358 278.481,-79.6212 286.498,-86.5473 289.067,-80.0358"/>
</g>
<!-- Node11 -->
<g id="node22" class="node"><title>Node11</title>
<polygon fill="white" stroke="#bfbfbf" points="411.061,-58.5 411.061,-79.5 488.061,-79.5 488.061,-58.5 411.061,-58.5"/>
<text text-anchor="middle" x="449.561" y="-66.5" font-family="Verdana" font-size="10.00">XmlSource.h</text>
</g>
<!-- Node6&#45;&gt;Node11 -->
<g id="edge22" class="edge"><title>Node6&#45;&gt;Node11</title>
<path fill="none" stroke="midnightblue" d="M407.915,-116.362C415.105,-108.186 425.202,-96.7025 433.654,-87.0907"/>
<polygon fill="midnightblue" stroke="midnightblue" points="436.291,-89.3916 440.266,-79.5707 431.035,-84.7692 436.291,-89.3916"/>
</g>
<!-- Node12 -->
<g id="node24" class="node"><title>Node12</title>
<a xlink:href="PathNavigator_8h.html" target="_top" xlink:title="PathNavigator.h">
<polygon fill="white" stroke="black" points="301.561,-58.5 301.561,-79.5 393.561,-79.5 393.561,-58.5 301.561,-58.5"/>
<text text-anchor="middle" x="347.561" y="-66.5" font-family="Verdana" font-size="10.00">PathNavigator.h</text>
</a>
</g>
<!-- Node6&#45;&gt;Node12 -->
<g id="edge24" class="edge"><title>Node6&#45;&gt;Node12</title>
<path fill="none" stroke="midnightblue" d="M389.207,-116.362C382.018,-108.186 371.92,-96.7025 363.469,-87.0907"/>
<polygon fill="midnightblue" stroke="midnightblue" points="366.088,-84.7692 356.856,-79.5707 360.831,-89.3916 366.088,-84.7692"/>
</g>
<!-- Node12&#45;&gt;Node3 -->
<g id="edge30" class="edge"><title>Node12&#45;&gt;Node3</title>
<path fill="none" stroke="midnightblue" d="M384.866,-58.4966C422.383,-47.9336 479.858,-31.7514 517.08,-21.2715"/>
<polygon fill="midnightblue" stroke="midnightblue" points="518.331,-24.5555 527.008,-18.4762 516.433,-17.8175 518.331,-24.5555"/>
</g>
<!-- Node12&#45;&gt;Node7 -->
<g id="edge28" class="edge"><title>Node12&#45;&gt;Node7</title>
<path fill="none" stroke="midnightblue" d="M312.429,-58.4966C276.255,-47.6816 220.378,-30.9761 185.442,-20.5314"/>
<polygon fill="midnightblue" stroke="midnightblue" points="186.331,-17.1442 175.748,-17.633 184.326,-23.8509 186.331,-17.1442"/>
</g>
<!-- Node12&#45;&gt;Node8 -->
<g id="edge26" class="edge"><title>Node12&#45;&gt;Node8</title>
<path fill="none" stroke="midnightblue" d="M360.217,-58.3619C370.235,-49.9408 384.428,-38.0105 396.063,-28.2308"/>
<polygon fill="midnightblue" stroke="midnightblue" points="398.583,-30.6844 403.986,-21.5707 394.079,-25.326 398.583,-30.6844"/>
</g>
</g>
</svg>
