<?xml version="1.0" encoding="UTF-8" standalone="no"?>
<!DOCTYPE svg PUBLIC "-//W3C//DTD SVG 1.1//EN"
 "http://www.w3.org/Graphics/SVG/1.1/DTD/svg11.dtd">
<!-- Generated by graphviz version 2.26.3 (20100126.1600)
 -->
<!-- Title: parameter/EnumParameterType.h Pages: 1 -->
<svg width="374pt" height="88pt"
 viewBox="0.00 0.00 374.00 88.00" xmlns="http://www.w3.org/2000/svg" xmlns:xlink="http://www.w3.org/1999/xlink">
<g id="graph1" class="graph" transform="scale(1 1) rotate(0) translate(4 84)">
<title>parameter/EnumParameterType.h</title>
<polygon fill="white" stroke="white" points="-4,5 -4,-84 371,-84 371,5 -4,5"/>
<!-- Node1 -->
<g id="node1" class="node"><title>Node1</title>
<polygon fill="#bfbfbf" stroke="black" points="101.5,-58.5 101.5,-79.5 280.5,-79.5 280.5,-58.5 101.5,-58.5"/>
<text text-anchor="middle" x="191" y="-66.5" font-family="Verdana" font-size="10.00">parameter/EnumParameterType.h</text>
</g>
<!-- Node2 -->
<g id="node3" class="node"><title>Node2</title>
<a xlink:href="EnumParameterType_8cpp.html" target="_top" xlink:title="parameter/EnumParameterType.cpp">
<polygon fill="white" stroke="black" points="0,-0.5 0,-21.5 190,-21.5 190,-0.5 0,-0.5"/>
<text text-anchor="middle" x="95" y="-8.5" font-family="Verdana" font-size="10.00">parameter/EnumParameterType.cpp</text>
</a>
</g>
<!-- Node1&#45;&gt;Node2 -->
<g id="edge2" class="edge"><title>Node1&#45;&gt;Node2</title>
<path fill="none" stroke="midnightblue" d="M164.684,-53.1009C148.074,-43.0658 127.079,-30.3808 112.496,-21.5707"/>
<polygon fill="midnightblue" stroke="midnightblue" points="163.023,-56.1864 173.392,-58.3619 166.643,-50.195 163.023,-56.1864"/>
</g>
<!-- Node3 -->
<g id="node5" class="node"><title>Node3</title>
<a xlink:href="ParameterMgr_8cpp.html" target="_top" xlink:title="parameter/ParameterMgr.cpp">
<polygon fill="white" stroke="black" points="208,-0.5 208,-21.5 366,-21.5 366,-0.5 208,-0.5"/>
<text text-anchor="middle" x="287" y="-8.5" font-family="Verdana" font-size="10.00">parameter/ParameterMgr.cpp</text>
</a>
</g>
<!-- Node1&#45;&gt;Node3 -->
<g id="edge4" class="edge"><title>Node1&#45;&gt;Node3</title>
<path fill="none" stroke="midnightblue" d="M217.316,-53.1009C233.926,-43.0658 254.921,-30.3808 269.504,-21.5707"/>
<polygon fill="midnightblue" stroke="midnightblue" points="215.357,-50.195 208.608,-58.3619 218.977,-56.1864 215.357,-50.195"/>
</g>
</g>
</svg>
