<?xml version="1.0" encoding="UTF-8" standalone="no"?>
<!DOCTYPE svg PUBLIC "-//W3C//DTD SVG 1.1//EN"
 "http://www.w3.org/Graphics/SVG/1.1/DTD/svg11.dtd">
<!-- Generated by graphviz version 2.26.3 (20100126.1600)
 -->
<!-- Title: parameter/EnumValuePair.h Pages: 1 -->
<svg width="552pt" height="88pt"
 viewBox="0.00 0.00 552.00 88.00" xmlns="http://www.w3.org/2000/svg" xmlns:xlink="http://www.w3.org/1999/xlink">
<g id="graph1" class="graph" transform="scale(1 1) rotate(0) translate(4 84)">
<title>parameter/EnumValuePair.h</title>
<polygon fill="white" stroke="white" points="-4,5 -4,-84 549,-84 549,5 -4,5"/>
<!-- Node1 -->
<g id="node1" class="node"><title>Node1</title>
<polygon fill="#bfbfbf" stroke="black" points="213,-58.5 213,-79.5 363,-79.5 363,-58.5 213,-58.5"/>
<text text-anchor="middle" x="288" y="-66.5" font-family="Verdana" font-size="10.00">parameter/EnumValuePair.h</text>
</g>
<!-- Node2 -->
<g id="node3" class="node"><title>Node2</title>
<a xlink:href="EnumParameterType_8cpp.html" target="_top" xlink:title="parameter/EnumParameterType.cpp">
<polygon fill="white" stroke="black" points="0,-0.5 0,-21.5 190,-21.5 190,-0.5 0,-0.5"/>
<text text-anchor="middle" x="95" y="-8.5" font-family="Verdana" font-size="10.00">parameter/EnumParameterType.cpp</text>
</a>
</g>
<!-- Node1&#45;&gt;Node2 -->
<g id="edge2" class="edge"><title>Node1&#45;&gt;Node2</title>
<path fill="none" stroke="midnightblue" d="M243.232,-55.5464C208.756,-45.1857 161.774,-31.0668 130.016,-21.5231"/>
<polygon fill="midnightblue" stroke="midnightblue" points="242.465,-58.9705 253.049,-58.4966 244.48,-52.2666 242.465,-58.9705"/>
</g>
<!-- Node3 -->
<g id="node5" class="node"><title>Node3</title>
<a xlink:href="EnumValuePair_8cpp.html" target="_top" xlink:title="parameter/EnumValuePair.cpp">
<polygon fill="white" stroke="black" points="207.5,-0.5 207.5,-21.5 368.5,-21.5 368.5,-0.5 207.5,-0.5"/>
<text text-anchor="middle" x="288" y="-8.5" font-family="Verdana" font-size="10.00">parameter/EnumValuePair.cpp</text>
</a>
</g>
<!-- Node1&#45;&gt;Node3 -->
<g id="edge4" class="edge"><title>Node1&#45;&gt;Node3</title>
<path fill="none" stroke="midnightblue" d="M288,-48.1906C288,-39.1684 288,-28.9941 288,-21.5707"/>
<polygon fill="midnightblue" stroke="midnightblue" points="284.5,-48.3619 288,-58.3619 291.5,-48.3619 284.5,-48.3619"/>
</g>
<!-- Node4 -->
<g id="node7" class="node"><title>Node4</title>
<a xlink:href="ParameterMgr_8cpp.html" target="_top" xlink:title="parameter/ParameterMgr.cpp">
<polygon fill="white" stroke="black" points="386,-0.5 386,-21.5 544,-21.5 544,-0.5 386,-0.5"/>
<text text-anchor="middle" x="465" y="-8.5" font-family="Verdana" font-size="10.00">parameter/ParameterMgr.cpp</text>
</a>
</g>
<!-- Node1&#45;&gt;Node4 -->
<g id="edge6" class="edge"><title>Node1&#45;&gt;Node4</title>
<path fill="none" stroke="midnightblue" d="M329.874,-55.2787C361.413,-44.9437 404.012,-30.9849 432.887,-21.5231"/>
<polygon fill="midnightblue" stroke="midnightblue" points="328.466,-52.0567 320.053,-58.4966 330.646,-58.7086 328.466,-52.0567"/>
</g>
</g>
</svg>
