<?xml version="1.0" encoding="UTF-8" standalone="no"?>
<!DOCTYPE svg PUBLIC "-//W3C//DTD SVG 1.1//EN"
 "http://www.w3.org/Graphics/SVG/1.1/DTD/svg11.dtd">
<!-- Generated by graphviz version 2.26.3 (20100126.1600)
 -->
<!-- Title: parameter/FileIncluderElementBuilder.h Pages: 1 -->
<svg width="499pt" height="334pt"
 viewBox="0.00 0.00 499.00 334.00" xmlns="http://www.w3.org/2000/svg" xmlns:xlink="http://www.w3.org/1999/xlink">
<g id="graph1" class="graph" transform="scale(1 1) rotate(0) translate(4 330)">
<title>parameter/FileIncluderElementBuilder.h</title>
<polygon fill="white" stroke="white" points="-4,5 -4,-330 496,-330 496,5 -4,5"/>
<!-- Node1 -->
<g id="node1" class="node"><title>Node1</title>
<polygon fill="#bfbfbf" stroke="black" points="289.5,-291 289.5,-325 452.5,-325 452.5,-291 289.5,-291"/>
<text text-anchor="start" x="297.5" y="-312" font-family="Verdana" font-size="10.00">parameter/FileIncluderElement</text>
<text text-anchor="middle" x="371" y="-299" font-family="Verdana" font-size="10.00">Builder.h</text>
</g>
<!-- Node2 -->
<g id="node3" class="node"><title>Node2</title>
<a xlink:href="ElementBuilder_8h.html" target="_top" xlink:title="ElementBuilder.h">
<polygon fill="white" stroke="black" points="261,-174.5 261,-195.5 359,-195.5 359,-174.5 261,-174.5"/>
<text text-anchor="middle" x="310" y="-182.5" font-family="Verdana" font-size="10.00">ElementBuilder.h</text>
</a>
</g>
<!-- Node1&#45;&gt;Node2 -->
<g id="edge2" class="edge"><title>Node1&#45;&gt;Node2</title>
<path fill="none" stroke="midnightblue" d="M362.518,-290.897C351.347,-268.372 331.737,-228.83 319.9,-204.962"/>
<polygon fill="midnightblue" stroke="midnightblue" points="322.928,-203.191 315.35,-195.787 316.657,-206.301 322.928,-203.191"/>
</g>
<!-- Node11 -->
<g id="node24" class="node"><title>Node11</title>
<a xlink:href="XmlFileIncluderElement_8h.html" target="_top" xlink:title="XmlFileIncluderElement.h">
<polygon fill="white" stroke="black" points="355,-232.5 355,-253.5 491,-253.5 491,-232.5 355,-232.5"/>
<text text-anchor="middle" x="423" y="-240.5" font-family="Verdana" font-size="10.00">XmlFileIncluderElement.h</text>
</a>
</g>
<!-- Node1&#45;&gt;Node11 -->
<g id="edge26" class="edge"><title>Node1&#45;&gt;Node11</title>
<path fill="none" stroke="midnightblue" d="M384.662,-290.922C391.85,-281.937 400.676,-270.905 408.047,-261.691"/>
<polygon fill="midnightblue" stroke="midnightblue" points="410.804,-263.847 414.318,-253.852 405.338,-259.474 410.804,-263.847"/>
</g>
<!-- Node3 -->
<g id="node5" class="node"><title>Node3</title>
<a xlink:href="Element_8h.html" target="_top" xlink:title="Element.h">
<polygon fill="white" stroke="black" points="275.5,-116.5 275.5,-137.5 340.5,-137.5 340.5,-116.5 275.5,-116.5"/>
<text text-anchor="middle" x="308" y="-124.5" font-family="Verdana" font-size="10.00">Element.h</text>
</a>
</g>
<!-- Node2&#45;&gt;Node3 -->
<g id="edge4" class="edge"><title>Node2&#45;&gt;Node3</title>
<path fill="none" stroke="midnightblue" d="M309.633,-174.362C309.377,-166.922 309.026,-156.743 308.715,-147.728"/>
<polygon fill="midnightblue" stroke="midnightblue" points="312.207,-147.444 308.365,-137.571 305.211,-147.685 312.207,-147.444"/>
</g>
<!-- Node4 -->
<g id="node7" class="node"><title>Node4</title>
<polygon fill="white" stroke="#bfbfbf" points="417,-0.5 417,-21.5 461,-21.5 461,-0.5 417,-0.5"/>
<text text-anchor="middle" x="439" y="-8.5" font-family="Verdana" font-size="10.00">string</text>
</g>
<!-- Node3&#45;&gt;Node4 -->
<g id="edge6" class="edge"><title>Node3&#45;&gt;Node4</title>
<path fill="none" stroke="midnightblue" d="M326.459,-116.403C341.132,-107.567 361.81,-94.1736 378,-80 395.534,-64.6497 412.876,-44.4125 424.56,-29.8286"/>
<polygon fill="midnightblue" stroke="midnightblue" points="427.623,-31.5963 431.055,-21.5729 422.121,-27.2679 427.623,-31.5963"/>
</g>
<!-- Node5 -->
<g id="node9" class="node"><title>Node5</title>
<polygon fill="white" stroke="#bfbfbf" points="308.5,-0.5 308.5,-21.5 355.5,-21.5 355.5,-0.5 308.5,-0.5"/>
<text text-anchor="middle" x="332" y="-8.5" font-family="Verdana" font-size="10.00">vector</text>
</g>
<!-- Node3&#45;&gt;Node5 -->
<g id="edge8" class="edge"><title>Node3&#45;&gt;Node5</title>
<path fill="none" stroke="midnightblue" d="M327.385,-116.458C340.106,-108.35 355.693,-95.8559 363,-80 370.829,-63.0114 360.349,-43.5668 349.511,-29.6585"/>
<polygon fill="midnightblue" stroke="midnightblue" points="351.997,-27.1771 342.876,-21.7855 346.644,-31.6878 351.997,-27.1771"/>
</g>
<!-- Node6 -->
<g id="node11" class="node"><title>Node6</title>
<polygon fill="white" stroke="#bfbfbf" points="210.5,-0.5 210.5,-21.5 263.5,-21.5 263.5,-0.5 210.5,-0.5"/>
<text text-anchor="middle" x="237" y="-8.5" font-family="Verdana" font-size="10.00">stdint.h</text>
</g>
<!-- Node3&#45;&gt;Node6 -->
<g id="edge10" class="edge"><title>Node3&#45;&gt;Node6</title>
<path fill="none" stroke="midnightblue" d="M290.501,-116.409C278.168,-108.038 262.258,-95.2445 253,-80 244.136,-65.4033 240.18,-46.3378 238.416,-31.9476"/>
<polygon fill="midnightblue" stroke="midnightblue" points="241.861,-31.2029 237.42,-21.5839 234.893,-31.873 241.861,-31.2029"/>
</g>
<!-- Node7 -->
<g id="node13" class="node"><title>Node7</title>
<polygon fill="white" stroke="#bfbfbf" points="0,-58.5 0,-79.5 30,-79.5 30,-58.5 0,-58.5"/>
<text text-anchor="middle" x="15" y="-66.5" font-family="Verdana" font-size="10.00">list</text>
</g>
<!-- Node3&#45;&gt;Node7 -->
<g id="edge12" class="edge"><title>Node3&#45;&gt;Node7</title>
<path fill="none" stroke="midnightblue" d="M275.484,-124.04C226.066,-118.96 129.197,-106.724 39.7495,-79.6106"/>
<polygon fill="midnightblue" stroke="midnightblue" points="40.5922,-76.2075 30.0041,-76.5871 38.5179,-82.8931 40.5922,-76.2075"/>
</g>
<!-- Node8 -->
<g id="node15" class="node"><title>Node8</title>
<polygon fill="white" stroke="#bfbfbf" points="48,-58.5 48,-79.5 112,-79.5 112,-58.5 48,-58.5"/>
<text text-anchor="middle" x="80" y="-66.5" font-family="Verdana" font-size="10.00">XmlSink.h</text>
</g>
<!-- Node3&#45;&gt;Node8 -->
<g id="edge14" class="edge"><title>Node3&#45;&gt;Node8</title>
<path fill="none" stroke="midnightblue" d="M275.193,-118.922C239.793,-110.168 181.506,-95.6492 122.138,-80.2707"/>
<polygon fill="midnightblue" stroke="midnightblue" points="122.775,-76.8201 112.216,-77.6951 121.016,-83.5956 122.775,-76.8201"/>
</g>
<!-- Node9 -->
<g id="node17" class="node"><title>Node9</title>
<polygon fill="white" stroke="#bfbfbf" points="129.5,-58.5 129.5,-79.5 206.5,-79.5 206.5,-58.5 129.5,-58.5"/>
<text text-anchor="middle" x="168" y="-66.5" font-family="Verdana" font-size="10.00">XmlSource.h</text>
</g>
<!-- Node3&#45;&gt;Node9 -->
<g id="edge16" class="edge"><title>Node3&#45;&gt;Node9</title>
<path fill="none" stroke="midnightblue" d="M282.647,-116.497C260.387,-107.275 227.788,-93.7695 203.037,-83.5153"/>
<polygon fill="midnightblue" stroke="midnightblue" points="204.216,-80.2152 193.637,-79.6212 201.536,-86.6822 204.216,-80.2152"/>
</g>
<!-- Node10 -->
<g id="node19" class="node"><title>Node10</title>
<a xlink:href="PathNavigator_8h.html" target="_top" xlink:title="PathNavigator.h">
<polygon fill="white" stroke="black" points="262,-58.5 262,-79.5 354,-79.5 354,-58.5 262,-58.5"/>
<text text-anchor="middle" x="308" y="-66.5" font-family="Verdana" font-size="10.00">PathNavigator.h</text>
</a>
</g>
<!-- Node3&#45;&gt;Node10 -->
<g id="edge18" class="edge"><title>Node3&#45;&gt;Node10</title>
<path fill="none" stroke="midnightblue" d="M308,-116.362C308,-108.922 308,-98.7427 308,-89.7276"/>
<polygon fill="midnightblue" stroke="midnightblue" points="311.5,-89.5706 308,-79.5707 304.5,-89.5707 311.5,-89.5706"/>
</g>
<!-- Node10&#45;&gt;Node4 -->
<g id="edge22" class="edge"><title>Node10&#45;&gt;Node4</title>
<path fill="none" stroke="midnightblue" d="M331.723,-58.4966C352.884,-49.1277 384.029,-35.3381 407.317,-25.0278"/>
<polygon fill="midnightblue" stroke="midnightblue" points="409.037,-28.0939 416.764,-20.8451 406.203,-21.6932 409.037,-28.0939"/>
</g>
<!-- Node10&#45;&gt;Node5 -->
<g id="edge20" class="edge"><title>Node10&#45;&gt;Node5</title>
<path fill="none" stroke="midnightblue" d="M312.402,-58.3619C315.582,-50.6766 319.972,-40.0686 323.79,-30.8399"/>
<polygon fill="midnightblue" stroke="midnightblue" points="327.036,-32.1491 327.626,-21.5707 320.568,-29.4726 327.036,-32.1491"/>
</g>
<!-- Node10&#45;&gt;Node6 -->
<g id="edge24" class="edge"><title>Node10&#45;&gt;Node6</title>
<path fill="none" stroke="midnightblue" d="M294.978,-58.3619C284.569,-49.859 269.781,-37.7785 257.745,-27.9466"/>
<polygon fill="midnightblue" stroke="midnightblue" points="259.899,-25.1866 249.94,-21.5707 255.47,-30.6077 259.899,-25.1866"/>
</g>
<!-- Node11&#45;&gt;Node4 -->
<g id="edge34" class="edge"><title>Node11&#45;&gt;Node4</title>
<path fill="none" stroke="midnightblue" d="M441.095,-232.386C453.182,-224.167 468.085,-211.57 475,-196 500.141,-139.387 468.411,-65.3354 450.174,-30.5963"/>
<polygon fill="midnightblue" stroke="midnightblue" points="453.087,-28.6263 445.236,-21.5125 446.937,-31.9698 453.087,-28.6263"/>
</g>
<!-- Node12 -->
<g id="node26" class="node"><title>Node12</title>
<a xlink:href="KindElement_8h.html" target="_top" xlink:title="KindElement.h">
<polygon fill="white" stroke="black" points="380,-174.5 380,-195.5 466,-195.5 466,-174.5 380,-174.5"/>
<text text-anchor="middle" x="423" y="-182.5" font-family="Verdana" font-size="10.00">KindElement.h</text>
</a>
</g>
<!-- Node11&#45;&gt;Node12 -->
<g id="edge28" class="edge"><title>Node11&#45;&gt;Node12</title>
<path fill="none" stroke="midnightblue" d="M423,-232.362C423,-224.922 423,-214.743 423,-205.728"/>
<polygon fill="midnightblue" stroke="midnightblue" points="426.5,-205.571 423,-195.571 419.5,-205.571 426.5,-205.571"/>
</g>
<!-- Node12&#45;&gt;Node3 -->
<g id="edge30" class="edge"><title>Node12&#45;&gt;Node3</title>
<path fill="none" stroke="midnightblue" d="M402.174,-174.497C384.294,-165.479 358.293,-152.365 338.139,-142.201"/>
<polygon fill="midnightblue" stroke="midnightblue" points="339.564,-138.999 329.059,-137.621 336.412,-145.249 339.564,-138.999"/>
</g>
<!-- Node12&#45;&gt;Node4 -->
<g id="edge32" class="edge"><title>Node12&#45;&gt;Node4</title>
<path fill="none" stroke="midnightblue" d="M423.977,-174.377C426.559,-146.293 433.605,-69.6735 437.05,-32.2027"/>
<polygon fill="midnightblue" stroke="midnightblue" points="440.565,-32.2062 437.995,-21.9277 433.594,-31.5652 440.565,-32.2062"/>
</g>
</g>
</svg>
