<?xml version="1.0" encoding="UTF-8" standalone="no"?>
<!DOCTYPE svg PUBLIC "-//W3C//DTD SVG 1.1//EN"
 "http://www.w3.org/Graphics/SVG/1.1/DTD/svg11.dtd">
<!-- Generated by graphviz version 2.26.3 (20100126.1600)
 -->
<!-- Title: parameter/FormattedSubsystemObject.h Pages: 1 -->
<svg width="182pt" height="218pt"
 viewBox="0.00 0.00 182.00 218.00" xmlns="http://www.w3.org/2000/svg" xmlns:xlink="http://www.w3.org/1999/xlink">
<g id="graph1" class="graph" transform="scale(1 1) rotate(0) translate(4 214)">
<title>parameter/FormattedSubsystemObject.h</title>
<polygon fill="white" stroke="white" points="-4,5 -4,-214 179,-214 179,5 -4,5"/>
<!-- Node1 -->
<g id="node1" class="node"><title>Node1</title>
<polygon fill="#bfbfbf" stroke="black" points="-0.5,-175 -0.5,-209 174.5,-209 174.5,-175 -0.5,-175"/>
<text text-anchor="start" x="7.5" y="-196" font-family="Verdana" font-size="10.00">parameter/FormattedSubsystem</text>
<text text-anchor="middle" x="87" y="-183" font-family="Verdana" font-size="10.00">Object.h</text>
</g>
<!-- Node2 -->
<g id="node3" class="node"><title>Node2</title>
<a xlink:href="SubsystemObject_8h.html" target="_top" xlink:title="SubsystemObject.h">
<polygon fill="white" stroke="black" points="32,-116.5 32,-137.5 142,-137.5 142,-116.5 32,-116.5"/>
<text text-anchor="middle" x="87" y="-124.5" font-family="Verdana" font-size="10.00">SubsystemObject.h</text>
</a>
</g>
<!-- Node1&#45;&gt;Node2 -->
<g id="edge2" class="edge"><title>Node1&#45;&gt;Node2</title>
<path fill="none" stroke="midnightblue" d="M87,-174.922C87,-166.67 87,-156.692 87,-147.982"/>
<polygon fill="midnightblue" stroke="midnightblue" points="90.5001,-147.852 87,-137.852 83.5001,-147.852 90.5001,-147.852"/>
</g>
<!-- Node3 -->
<g id="node5" class="node"><title>Node3</title>
<a xlink:href="Syncer_8h.html" target="_top" xlink:title="Syncer.h">
<polygon fill="white" stroke="black" points="1,-58.5 1,-79.5 59,-79.5 59,-58.5 1,-58.5"/>
<text text-anchor="middle" x="30" y="-66.5" font-family="Verdana" font-size="10.00">Syncer.h</text>
</a>
</g>
<!-- Node2&#45;&gt;Node3 -->
<g id="edge4" class="edge"><title>Node2&#45;&gt;Node3</title>
<path fill="none" stroke="midnightblue" d="M76.5453,-116.362C68.4301,-108.104 56.9988,-96.4725 47.4959,-86.8029"/>
<polygon fill="midnightblue" stroke="midnightblue" points="49.8941,-84.2497 40.3884,-79.5707 44.9014,-89.1562 49.8941,-84.2497"/>
</g>
<!-- Node4 -->
<g id="node7" class="node"><title>Node4</title>
<polygon fill="white" stroke="#bfbfbf" points="36,-0.5 36,-21.5 80,-21.5 80,-0.5 36,-0.5"/>
<text text-anchor="middle" x="58" y="-8.5" font-family="Verdana" font-size="10.00">string</text>
</g>
<!-- Node2&#45;&gt;Node4 -->
<g id="edge10" class="edge"><title>Node2&#45;&gt;Node4</title>
<path fill="none" stroke="midnightblue" d="M84.3237,-116.295C79.5113,-97.0451 69.3222,-56.2889 63.1273,-31.5091"/>
<polygon fill="midnightblue" stroke="midnightblue" points="66.4907,-30.5317 60.6698,-21.6792 59.6997,-32.2295 66.4907,-30.5317"/>
</g>
<!-- Node5 -->
<g id="node9" class="node"><title>Node5</title>
<polygon fill="white" stroke="#bfbfbf" points="114.5,-58.5 114.5,-79.5 167.5,-79.5 167.5,-58.5 114.5,-58.5"/>
<text text-anchor="middle" x="141" y="-66.5" font-family="Verdana" font-size="10.00">stdint.h</text>
</g>
<!-- Node2&#45;&gt;Node5 -->
<g id="edge8" class="edge"><title>Node2&#45;&gt;Node5</title>
<path fill="none" stroke="midnightblue" d="M96.9044,-116.362C104.516,-108.186 115.208,-96.7025 124.157,-87.0907"/>
<polygon fill="midnightblue" stroke="midnightblue" points="126.906,-89.2746 131.158,-79.5707 121.783,-84.5046 126.906,-89.2746"/>
</g>
<!-- Node3&#45;&gt;Node4 -->
<g id="edge6" class="edge"><title>Node3&#45;&gt;Node4</title>
<path fill="none" stroke="midnightblue" d="M35.1356,-58.3619C38.8458,-50.6766 43.9669,-40.0686 48.4221,-30.8399"/>
<polygon fill="midnightblue" stroke="midnightblue" points="51.7013,-32.0978 52.8969,-21.5707 45.3974,-29.0545 51.7013,-32.0978"/>
</g>
</g>
</svg>
