<?xml version="1.0" encoding="UTF-8" standalone="no"?>
<!DOCTYPE svg PUBLIC "-//W3C//DTD SVG 1.1//EN"
 "http://www.w3.org/Graphics/SVG/1.1/DTD/svg11.dtd">
<!-- Generated by graphviz version 2.26.3 (20100126.1600)
 -->
<!-- Title: parameter/FormattedSubsystemObject.cpp Pages: 1 -->
<svg width="890pt" height="392pt"
 viewBox="0.00 0.00 890.00 392.00" xmlns="http://www.w3.org/2000/svg" xmlns:xlink="http://www.w3.org/1999/xlink">
<g id="graph1" class="graph" transform="scale(1 1) rotate(0) translate(4 388)">
<title>parameter/FormattedSubsystemObject.cpp</title>
<polygon fill="white" stroke="white" points="-4,5 -4,-388 887,-388 887,5 -4,5"/>
<!-- Node1 -->
<g id="node1" class="node"><title>Node1</title>
<polygon fill="#bfbfbf" stroke="black" points="324.5,-349 324.5,-383 499.5,-383 499.5,-349 324.5,-349"/>
<text text-anchor="start" x="332.5" y="-370" font-family="Verdana" font-size="10.00">parameter/FormattedSubsystem</text>
<text text-anchor="middle" x="412" y="-357" font-family="Verdana" font-size="10.00">Object.cpp</text>
</g>
<!-- Node2 -->
<g id="node3" class="node"><title>Node2</title>
<a xlink:href="FormattedSubsystemObject_8h.html" target="_top" xlink:title="FormattedSubsystemObject.h">
<polygon fill="white" stroke="black" points="-0.5,-232.5 -0.5,-253.5 160.5,-253.5 160.5,-232.5 -0.5,-232.5"/>
<text text-anchor="middle" x="80" y="-240.5" font-family="Verdana" font-size="10.00">FormattedSubsystemObject.h</text>
</a>
</g>
<!-- Node1&#45;&gt;Node2 -->
<g id="edge2" class="edge"><title>Node1&#45;&gt;Node2</title>
<path fill="none" stroke="midnightblue" d="M365.304,-348.913C336.4,-338.32 298.529,-324.411 265,-312 213.947,-293.102 155.042,-271.098 117.673,-257.113"/>
<polygon fill="midnightblue" stroke="midnightblue" points="118.784,-253.792 108.192,-253.564 116.33,-260.348 118.784,-253.792"/>
</g>
<!-- Node7 -->
<g id="node14" class="node"><title>Node7</title>
<a xlink:href="InstanceConfigurableElement_8h.html" target="_top" xlink:title="InstanceConfigurableElement.h">
<polygon fill="white" stroke="black" points="274,-290.5 274,-311.5 440,-311.5 440,-290.5 274,-290.5"/>
<text text-anchor="middle" x="357" y="-298.5" font-family="Verdana" font-size="10.00">InstanceConfigurableElement.h</text>
</a>
</g>
<!-- Node1&#45;&gt;Node7 -->
<g id="edge14" class="edge"><title>Node1&#45;&gt;Node7</title>
<path fill="none" stroke="midnightblue" d="M397.549,-348.922C389.947,-339.937 380.612,-328.905 372.816,-319.691"/>
<polygon fill="midnightblue" stroke="midnightblue" points="375.314,-317.225 366.183,-311.852 369.97,-321.747 375.314,-317.225"/>
</g>
<!-- Node17 -->
<g id="node45" class="node"><title>Node17</title>
<a xlink:href="MappingContext_8h.html" target="_top" xlink:title="MappingContext.h">
<polygon fill="white" stroke="black" points="330,-58.5 330,-79.5 434,-79.5 434,-58.5 330,-58.5"/>
<text text-anchor="middle" x="382" y="-66.5" font-family="Verdana" font-size="10.00">MappingContext.h</text>
</a>
</g>
<!-- Node1&#45;&gt;Node17 -->
<g id="edge56" class="edge"><title>Node1&#45;&gt;Node17</title>
<path fill="none" stroke="midnightblue" d="M425.905,-348.895C433.624,-338.694 442.874,-325.194 449,-312 462.396,-283.15 468,-274.808 468,-243 468,-243 468,-243 468,-185 468,-142.881 430.959,-106.084 405.496,-85.7644"/>
<polygon fill="midnightblue" stroke="midnightblue" points="407.436,-82.8411 397.375,-79.5213 403.17,-88.3908 407.436,-82.8411"/>
</g>
<!-- Node18 -->
<g id="node49" class="node"><title>Node18</title>
<polygon fill="white" stroke="#bfbfbf" points="496,-290.5 496,-311.5 552,-311.5 552,-290.5 496,-290.5"/>
<text text-anchor="middle" x="524" y="-298.5" font-family="Verdana" font-size="10.00">assert.h</text>
</g>
<!-- Node1&#45;&gt;Node18 -->
<g id="edge62" class="edge"><title>Node1&#45;&gt;Node18</title>
<path fill="none" stroke="midnightblue" d="M441.427,-348.922C458.598,-338.957 480.108,-326.473 496.869,-316.745"/>
<polygon fill="midnightblue" stroke="midnightblue" points="498.743,-319.705 505.635,-311.658 495.229,-313.651 498.743,-319.705"/>
</g>
<!-- Node3 -->
<g id="node5" class="node"><title>Node3</title>
<a xlink:href="SubsystemObject_8h.html" target="_top" xlink:title="SubsystemObject.h">
<polygon fill="white" stroke="black" points="44,-116.5 44,-137.5 154,-137.5 154,-116.5 44,-116.5"/>
<text text-anchor="middle" x="99" y="-124.5" font-family="Verdana" font-size="10.00">SubsystemObject.h</text>
</a>
</g>
<!-- Node2&#45;&gt;Node3 -->
<g id="edge4" class="edge"><title>Node2&#45;&gt;Node3</title>
<path fill="none" stroke="midnightblue" d="M81.7534,-232.295C84.8923,-213.131 91.5222,-172.654 95.586,-147.843"/>
<polygon fill="midnightblue" stroke="midnightblue" points="99.0883,-148.113 97.2508,-137.679 92.1804,-146.982 99.0883,-148.113"/>
</g>
<!-- Node4 -->
<g id="node7" class="node"><title>Node4</title>
<a xlink:href="Syncer_8h.html" target="_top" xlink:title="Syncer.h">
<polygon fill="white" stroke="black" points="102,-58.5 102,-79.5 160,-79.5 160,-58.5 102,-58.5"/>
<text text-anchor="middle" x="131" y="-66.5" font-family="Verdana" font-size="10.00">Syncer.h</text>
</a>
</g>
<!-- Node3&#45;&gt;Node4 -->
<g id="edge6" class="edge"><title>Node3&#45;&gt;Node4</title>
<path fill="none" stroke="midnightblue" d="M104.869,-116.362C109.155,-108.595 115.087,-97.8426 120.216,-88.5458"/>
<polygon fill="midnightblue" stroke="midnightblue" points="123.402,-90.0172 125.168,-79.5707 117.273,-86.6357 123.402,-90.0172"/>
</g>
<!-- Node5 -->
<g id="node9" class="node"><title>Node5</title>
<polygon fill="white" stroke="#bfbfbf" points="223,-0.5 223,-21.5 267,-21.5 267,-0.5 223,-0.5"/>
<text text-anchor="middle" x="245" y="-8.5" font-family="Verdana" font-size="10.00">string</text>
</g>
<!-- Node3&#45;&gt;Node5 -->
<g id="edge12" class="edge"><title>Node3&#45;&gt;Node5</title>
<path fill="none" stroke="midnightblue" d="M94.1303,-116.484C88.1593,-101.855 80.2961,-75.2255 93,-58 107.29,-38.6238 172.601,-23.8423 212.821,-16.3827"/>
<polygon fill="midnightblue" stroke="midnightblue" points="213.482,-19.82 222.703,-14.6029 212.241,-12.9308 213.482,-19.82"/>
</g>
<!-- Node6 -->
<g id="node11" class="node"><title>Node6</title>
<polygon fill="white" stroke="#bfbfbf" points="466.5,-0.5 466.5,-21.5 519.5,-21.5 519.5,-0.5 466.5,-0.5"/>
<text text-anchor="middle" x="493" y="-8.5" font-family="Verdana" font-size="10.00">stdint.h</text>
</g>
<!-- Node3&#45;&gt;Node6 -->
<g id="edge10" class="edge"><title>Node3&#45;&gt;Node6</title>
<path fill="none" stroke="midnightblue" d="M154.038,-124.701C238.53,-120.311 395.429,-108.5 443,-80 462.022,-68.604 475.91,-46.8982 484.155,-30.8624"/>
<polygon fill="midnightblue" stroke="midnightblue" points="487.357,-32.2804 488.555,-21.7534 481.053,-29.2358 487.357,-32.2804"/>
</g>
<!-- Node4&#45;&gt;Node5 -->
<g id="edge8" class="edge"><title>Node4&#45;&gt;Node5</title>
<path fill="none" stroke="midnightblue" d="M151.645,-58.4966C169.37,-49.4786 195.145,-36.3649 215.123,-26.2006"/>
<polygon fill="midnightblue" stroke="midnightblue" points="216.798,-29.2753 224.124,-21.6212 213.624,-23.0364 216.798,-29.2753"/>
</g>
<!-- Node7&#45;&gt;Node5 -->
<g id="edge54" class="edge"><title>Node7&#45;&gt;Node5</title>
<path fill="none" stroke="midnightblue" d="M305.768,-290.452C268.002,-281.693 220.886,-268.38 207,-254 184.905,-231.119 188,-216.808 188,-185 188,-185 188,-185 188,-127 188,-89.5289 212.254,-51.5841 229.12,-29.7281"/>
<polygon fill="midnightblue" stroke="midnightblue" points="232.067,-31.6467 235.588,-21.6538 226.604,-27.2705 232.067,-31.6467"/>
</g>
<!-- Node8 -->
<g id="node16" class="node"><title>Node8</title>
<a xlink:href="ConfigurableElementWithMapping_8h.html" target="_top" xlink:title="ConfigurableElementWithMapping.h">
<polygon fill="white" stroke="black" points="216,-232.5 216,-253.5 402,-253.5 402,-232.5 216,-232.5"/>
<text text-anchor="middle" x="309" y="-240.5" font-family="Verdana" font-size="10.00">ConfigurableElementWithMapping.h</text>
</a>
</g>
<!-- Node7&#45;&gt;Node8 -->
<g id="edge16" class="edge"><title>Node7&#45;&gt;Node8</title>
<path fill="none" stroke="midnightblue" d="M348.196,-290.362C341.498,-282.268 332.116,-270.932 324.211,-261.38"/>
<polygon fill="midnightblue" stroke="midnightblue" points="326.82,-259.043 317.748,-253.571 321.427,-263.506 326.82,-259.043"/>
</g>
<!-- Node12 -->
<g id="node26" class="node"><title>Node12</title>
<polygon fill="white" stroke="#bfbfbf" points="852,-58.5 852,-79.5 882,-79.5 882,-58.5 852,-58.5"/>
<text text-anchor="middle" x="867" y="-66.5" font-family="Verdana" font-size="10.00">list</text>
</g>
<!-- Node7&#45;&gt;Node12 -->
<g id="edge52" class="edge"><title>Node7&#45;&gt;Node12</title>
<path fill="none" stroke="midnightblue" d="M411.853,-290.478C481.543,-275.727 604.26,-245.069 700,-196 759.259,-165.628 819.045,-113.87 848.386,-86.7579"/>
<polygon fill="midnightblue" stroke="midnightblue" points="850.913,-89.1878 855.829,-79.8028 846.133,-84.0733 850.913,-89.1878"/>
</g>
<!-- Node16 -->
<g id="node39" class="node"><title>Node16</title>
<a xlink:href="TypeElement_8h.html" target="_top" xlink:title="TypeElement.h">
<polygon fill="white" stroke="black" points="354,-174.5 354,-195.5 440,-195.5 440,-174.5 354,-174.5"/>
<text text-anchor="middle" x="397" y="-182.5" font-family="Verdana" font-size="10.00">TypeElement.h</text>
</a>
</g>
<!-- Node7&#45;&gt;Node16 -->
<g id="edge46" class="edge"><title>Node7&#45;&gt;Node16</title>
<path fill="none" stroke="midnightblue" d="M376.042,-290.374C388.536,-282.228 403.841,-269.723 411,-254 418.092,-238.424 413.239,-219.246 407.385,-205.065"/>
<polygon fill="midnightblue" stroke="midnightblue" points="410.458,-203.37 403.102,-195.745 404.097,-206.293 410.458,-203.37"/>
</g>
<!-- Node8&#45;&gt;Node5 -->
<g id="edge44" class="edge"><title>Node8&#45;&gt;Node5</title>
<path fill="none" stroke="midnightblue" d="M306.084,-232.429C296.192,-196.573 263.805,-79.1689 250.64,-31.4458"/>
<polygon fill="midnightblue" stroke="midnightblue" points="253.967,-30.3427 247.933,-21.6335 247.219,-32.2042 253.967,-30.3427"/>
</g>
<!-- Node9 -->
<g id="node18" class="node"><title>Node9</title>
<a xlink:href="ConfigurableElement_8h.html" target="_top" xlink:title="ConfigurableElement.h">
<polygon fill="white" stroke="black" points="566.5,-174.5 566.5,-195.5 691.5,-195.5 691.5,-174.5 566.5,-174.5"/>
<text text-anchor="middle" x="629" y="-182.5" font-family="Verdana" font-size="10.00">ConfigurableElement.h</text>
</a>
</g>
<!-- Node8&#45;&gt;Node9 -->
<g id="edge18" class="edge"><title>Node8&#45;&gt;Node9</title>
<path fill="none" stroke="midnightblue" d="M366.95,-232.497C421.49,-222.611 503.181,-207.805 560.829,-197.356"/>
<polygon fill="midnightblue" stroke="midnightblue" points="561.726,-200.75 570.942,-195.523 560.478,-193.863 561.726,-200.75"/>
</g>
<!-- Node10 -->
<g id="node20" class="node"><title>Node10</title>
<a xlink:href="Element_8h.html" target="_top" xlink:title="Element.h">
<polygon fill="white" stroke="black" points="596.5,-116.5 596.5,-137.5 661.5,-137.5 661.5,-116.5 596.5,-116.5"/>
<text text-anchor="middle" x="629" y="-124.5" font-family="Verdana" font-size="10.00">Element.h</text>
</a>
</g>
<!-- Node9&#45;&gt;Node10 -->
<g id="edge20" class="edge"><title>Node9&#45;&gt;Node10</title>
<path fill="none" stroke="midnightblue" d="M629,-174.362C629,-166.922 629,-156.743 629,-147.728"/>
<polygon fill="midnightblue" stroke="midnightblue" points="632.5,-147.571 629,-137.571 625.5,-147.571 632.5,-147.571"/>
</g>
<!-- Node9&#45;&gt;Node12 -->
<g id="edge42" class="edge"><title>Node9&#45;&gt;Node12</title>
<path fill="none" stroke="midnightblue" d="M650.964,-174.295C695.549,-152.564 796.365,-103.427 842.779,-80.805"/>
<polygon fill="midnightblue" stroke="midnightblue" points="844.362,-83.9271 851.818,-76.3996 841.296,-77.6347 844.362,-83.9271"/>
</g>
<!-- Node10&#45;&gt;Node5 -->
<g id="edge22" class="edge"><title>Node10&#45;&gt;Node5</title>
<path fill="none" stroke="midnightblue" d="M596.441,-124.422C527.555,-118.584 369.412,-103.046 321,-80 296.199,-68.1936 273.712,-45.5914 259.743,-29.4731"/>
<polygon fill="midnightblue" stroke="midnightblue" points="262.355,-27.1407 253.248,-21.7269 256.991,-31.6384 262.355,-27.1407"/>
</g>
<!-- Node10&#45;&gt;Node6 -->
<g id="edge26" class="edge"><title>Node10&#45;&gt;Node6</title>
<path fill="none" stroke="midnightblue" d="M625.493,-116.344C620.151,-101.549 608.69,-74.7224 591,-58 573.56,-41.5134 549.259,-29.8074 529.22,-22.2013"/>
<polygon fill="midnightblue" stroke="midnightblue" points="530.368,-18.8947 519.773,-18.7938 527.992,-25.4794 530.368,-18.8947"/>
</g>
<!-- Node11 -->
<g id="node23" class="node"><title>Node11</title>
<polygon fill="white" stroke="#bfbfbf" points="568.5,-0.5 568.5,-21.5 615.5,-21.5 615.5,-0.5 568.5,-0.5"/>
<text text-anchor="middle" x="592" y="-8.5" font-family="Verdana" font-size="10.00">vector</text>
</g>
<!-- Node10&#45;&gt;Node11 -->
<g id="edge24" class="edge"><title>Node10&#45;&gt;Node11</title>
<path fill="none" stroke="midnightblue" d="M629.905,-116.372C630.712,-102.52 630.872,-77.7363 624,-58 620.472,-47.8676 614.172,-37.867 608.089,-29.7127"/>
<polygon fill="midnightblue" stroke="midnightblue" points="610.67,-27.3337 601.716,-21.6701 605.183,-31.6813 610.67,-27.3337"/>
</g>
<!-- Node10&#45;&gt;Node12 -->
<g id="edge28" class="edge"><title>Node10&#45;&gt;Node12</title>
<path fill="none" stroke="midnightblue" d="M661.851,-122.029C702.457,-115.401 773.651,-102.203 842.297,-79.7181"/>
<polygon fill="midnightblue" stroke="midnightblue" points="843.59,-82.9761 851.962,-76.4834 841.369,-76.3379 843.59,-82.9761"/>
</g>
<!-- Node13 -->
<g id="node28" class="node"><title>Node13</title>
<polygon fill="white" stroke="#bfbfbf" points="676,-58.5 676,-79.5 740,-79.5 740,-58.5 676,-58.5"/>
<text text-anchor="middle" x="708" y="-66.5" font-family="Verdana" font-size="10.00">XmlSink.h</text>
</g>
<!-- Node10&#45;&gt;Node13 -->
<g id="edge30" class="edge"><title>Node10&#45;&gt;Node13</title>
<path fill="none" stroke="midnightblue" d="M643.49,-116.362C655.183,-107.777 671.843,-95.5459 685.303,-85.6636"/>
<polygon fill="midnightblue" stroke="midnightblue" points="687.613,-88.31 693.602,-79.5707 683.47,-82.6675 687.613,-88.31"/>
</g>
<!-- Node14 -->
<g id="node30" class="node"><title>Node14</title>
<polygon fill="white" stroke="#bfbfbf" points="757.5,-58.5 757.5,-79.5 834.5,-79.5 834.5,-58.5 757.5,-58.5"/>
<text text-anchor="middle" x="796" y="-66.5" font-family="Verdana" font-size="10.00">XmlSource.h</text>
</g>
<!-- Node10&#45;&gt;Node14 -->
<g id="edge32" class="edge"><title>Node10&#45;&gt;Node14</title>
<path fill="none" stroke="midnightblue" d="M659.242,-116.497C686.35,-107.082 726.31,-93.2036 756.043,-82.8773"/>
<polygon fill="midnightblue" stroke="midnightblue" points="757.403,-86.1102 765.701,-79.5231 755.106,-79.4977 757.403,-86.1102"/>
</g>
<!-- Node15 -->
<g id="node32" class="node"><title>Node15</title>
<a xlink:href="PathNavigator_8h.html" target="_top" xlink:title="PathNavigator.h">
<polygon fill="white" stroke="black" points="490,-58.5 490,-79.5 582,-79.5 582,-58.5 490,-58.5"/>
<text text-anchor="middle" x="536" y="-66.5" font-family="Verdana" font-size="10.00">PathNavigator.h</text>
</a>
</g>
<!-- Node10&#45;&gt;Node15 -->
<g id="edge34" class="edge"><title>Node10&#45;&gt;Node15</title>
<path fill="none" stroke="midnightblue" d="M611.942,-116.362C597.915,-107.614 577.816,-95.0786 561.818,-85.1015"/>
<polygon fill="midnightblue" stroke="midnightblue" points="563.287,-81.8927 552.949,-79.5707 559.582,-87.8323 563.287,-81.8927"/>
</g>
<!-- Node15&#45;&gt;Node5 -->
<g id="edge38" class="edge"><title>Node15&#45;&gt;Node5</title>
<path fill="none" stroke="midnightblue" d="M489.89,-59.8097C430.517,-47.9759 328.848,-27.712 277.179,-17.4137"/>
<polygon fill="midnightblue" stroke="midnightblue" points="277.733,-13.9554 267.242,-15.4332 276.365,-20.8204 277.733,-13.9554"/>
</g>
<!-- Node15&#45;&gt;Node6 -->
<g id="edge40" class="edge"><title>Node15&#45;&gt;Node6</title>
<path fill="none" stroke="midnightblue" d="M528.113,-58.3619C522.173,-50.3496 513.878,-39.1605 506.841,-29.6696"/>
<polygon fill="midnightblue" stroke="midnightblue" points="509.604,-27.5193 500.837,-21.5707 503.981,-31.6883 509.604,-27.5193"/>
</g>
<!-- Node15&#45;&gt;Node11 -->
<g id="edge36" class="edge"><title>Node15&#45;&gt;Node11</title>
<path fill="none" stroke="midnightblue" d="M546.271,-58.3619C554.244,-50.1043 565.475,-38.4725 574.811,-28.8029"/>
<polygon fill="midnightblue" stroke="midnightblue" points="577.366,-31.1958 581.794,-21.5707 572.33,-26.3336 577.366,-31.1958"/>
</g>
<!-- Node16&#45;&gt;Node5 -->
<g id="edge50" class="edge"><title>Node16&#45;&gt;Node5</title>
<path fill="none" stroke="midnightblue" d="M382.829,-174.224C360.04,-156.404 314.698,-118.886 284,-80 272.062,-64.8778 261.516,-45.6567 254.411,-31.3441"/>
<polygon fill="midnightblue" stroke="midnightblue" points="257.365,-29.4114 249.874,-21.9186 251.058,-32.4472 257.365,-29.4114"/>
</g>
<!-- Node16&#45;&gt;Node10 -->
<g id="edge48" class="edge"><title>Node16&#45;&gt;Node10</title>
<path fill="none" stroke="midnightblue" d="M439.013,-174.497C480.752,-164.062 544.424,-148.144 586.375,-137.656"/>
<polygon fill="midnightblue" stroke="midnightblue" points="587.432,-141 596.285,-135.179 585.734,-134.209 587.432,-141"/>
</g>
<!-- Node17&#45;&gt;Node5 -->
<g id="edge60" class="edge"><title>Node17&#45;&gt;Node5</title>
<path fill="none" stroke="midnightblue" d="M357.19,-58.4966C334.59,-48.9287 301.1,-34.7506 276.595,-24.3758"/>
<polygon fill="midnightblue" stroke="midnightblue" points="277.93,-21.1406 267.357,-20.465 275.201,-27.5867 277.93,-21.1406"/>
</g>
<!-- Node17&#45;&gt;Node6 -->
<g id="edge58" class="edge"><title>Node17&#45;&gt;Node6</title>
<path fill="none" stroke="midnightblue" d="M402.101,-58.4966C419.282,-49.5194 444.23,-36.4835 463.645,-26.3387"/>
<polygon fill="midnightblue" stroke="midnightblue" points="465.431,-29.3544 472.673,-21.6212 462.189,-23.1503 465.431,-29.3544"/>
</g>
</g>
</svg>
