<?xml version="1.0" encoding="UTF-8" standalone="no"?>
<!DOCTYPE svg PUBLIC "-//W3C//DTD SVG 1.1//EN"
 "http://www.w3.org/Graphics/SVG/1.1/DTD/svg11.dtd">
<!-- Generated by graphviz version 2.26.3 (20100126.1600)
 -->
<!-- Title: parameter/FrameworkConfigurationLocation.cpp Pages: 1 -->
<svg width="561pt" height="334pt"
 viewBox="0.00 0.00 561.00 334.00" xmlns="http://www.w3.org/2000/svg" xmlns:xlink="http://www.w3.org/1999/xlink">
<g id="graph1" class="graph" transform="scale(1 1) rotate(0) translate(4 330)">
<title>parameter/FrameworkConfigurationLocation.cpp</title>
<polygon fill="white" stroke="white" points="-4,5 -4,-330 558,-330 558,5 -4,5"/>
<!-- Node1 -->
<g id="node1" class="node"><title>Node1</title>
<polygon fill="#bfbfbf" stroke="black" points="66,-291 66,-325 252,-325 252,-291 66,-291"/>
<text text-anchor="start" x="74" y="-312" font-family="Verdana" font-size="10.00">parameter/FrameworkConfiguration</text>
<text text-anchor="middle" x="159" y="-299" font-family="Verdana" font-size="10.00">Location.cpp</text>
</g>
<!-- Node2 -->
<g id="node3" class="node"><title>Node2</title>
<a xlink:href="FrameworkConfigurationLocation_8h.html" target="_top" xlink:title="FrameworkConfigurationLocation.h">
<polygon fill="white" stroke="black" points="0,-232.5 0,-253.5 182,-253.5 182,-232.5 0,-232.5"/>
<text text-anchor="middle" x="91" y="-240.5" font-family="Verdana" font-size="10.00">FrameworkConfigurationLocation.h</text>
</a>
</g>
<!-- Node1&#45;&gt;Node2 -->
<g id="edge2" class="edge"><title>Node1&#45;&gt;Node2</title>
<path fill="none" stroke="midnightblue" d="M141.134,-290.922C131.446,-281.662 119.484,-270.227 109.674,-260.85"/>
<polygon fill="midnightblue" stroke="midnightblue" points="112,-258.232 102.353,-253.852 107.163,-263.292 112,-258.232"/>
</g>
<!-- Node12 -->
<g id="node28" class="node"><title>Node12</title>
<polygon fill="white" stroke="#bfbfbf" points="200,-232.5 200,-253.5 256,-253.5 256,-232.5 200,-232.5"/>
<text text-anchor="middle" x="228" y="-240.5" font-family="Verdana" font-size="10.00">assert.h</text>
</g>
<!-- Node1&#45;&gt;Node12 -->
<g id="edge32" class="edge"><title>Node1&#45;&gt;Node12</title>
<path fill="none" stroke="midnightblue" d="M177.129,-290.922C186.959,-281.662 199.097,-270.227 209.051,-260.85"/>
<polygon fill="midnightblue" stroke="midnightblue" points="211.601,-263.257 216.48,-253.852 206.801,-258.161 211.601,-263.257"/>
</g>
<!-- Node3 -->
<g id="node5" class="node"><title>Node3</title>
<a xlink:href="KindElement_8h.html" target="_top" xlink:title="KindElement.h">
<polygon fill="white" stroke="black" points="84,-174.5 84,-195.5 170,-195.5 170,-174.5 84,-174.5"/>
<text text-anchor="middle" x="127" y="-182.5" font-family="Verdana" font-size="10.00">KindElement.h</text>
</a>
</g>
<!-- Node2&#45;&gt;Node3 -->
<g id="edge4" class="edge"><title>Node2&#45;&gt;Node3</title>
<path fill="none" stroke="midnightblue" d="M97.603,-232.362C102.475,-224.513 109.238,-213.616 115.05,-204.253"/>
<polygon fill="midnightblue" stroke="midnightblue" points="118.139,-205.913 120.439,-195.571 112.191,-202.221 118.139,-205.913"/>
</g>
<!-- Node5 -->
<g id="node9" class="node"><title>Node5</title>
<polygon fill="white" stroke="#bfbfbf" points="91,-0.5 91,-21.5 135,-21.5 135,-0.5 91,-0.5"/>
<text text-anchor="middle" x="113" y="-8.5" font-family="Verdana" font-size="10.00">string</text>
</g>
<!-- Node2&#45;&gt;Node5 -->
<g id="edge30" class="edge"><title>Node2&#45;&gt;Node5</title>
<path fill="none" stroke="midnightblue" d="M86.2831,-232.432C82.3792,-223.072 77.1398,-208.926 75,-196 73.403,-186.354 73.8827,-183.714 75,-174 81.0031,-121.809 97.4803,-62.0368 106.643,-31.423"/>
<polygon fill="midnightblue" stroke="midnightblue" points="110.09,-32.1174 109.655,-21.5315 103.394,-30.0783 110.09,-32.1174"/>
</g>
<!-- Node4 -->
<g id="node7" class="node"><title>Node4</title>
<a xlink:href="Element_8h.html" target="_top" xlink:title="Element.h">
<polygon fill="white" stroke="black" points="251.5,-116.5 251.5,-137.5 316.5,-137.5 316.5,-116.5 251.5,-116.5"/>
<text text-anchor="middle" x="284" y="-124.5" font-family="Verdana" font-size="10.00">Element.h</text>
</a>
</g>
<!-- Node3&#45;&gt;Node4 -->
<g id="edge6" class="edge"><title>Node3&#45;&gt;Node4</title>
<path fill="none" stroke="midnightblue" d="M155.432,-174.497C180.805,-165.123 218.157,-151.324 246.07,-141.012"/>
<polygon fill="midnightblue" stroke="midnightblue" points="247.348,-144.272 255.515,-137.523 244.922,-137.705 247.348,-144.272"/>
</g>
<!-- Node3&#45;&gt;Node5 -->
<g id="edge28" class="edge"><title>Node3&#45;&gt;Node5</title>
<path fill="none" stroke="midnightblue" d="M126.145,-174.377C123.886,-146.293 117.721,-69.6735 114.706,-32.2027"/>
<polygon fill="midnightblue" stroke="midnightblue" points="118.17,-31.6148 113.879,-21.9277 111.193,-32.1762 118.17,-31.6148"/>
</g>
<!-- Node4&#45;&gt;Node5 -->
<g id="edge8" class="edge"><title>Node4&#45;&gt;Node5</title>
<path fill="none" stroke="midnightblue" d="M251.463,-122.237C222.322,-116.529 179.852,-104.477 151,-80 135.833,-67.133 125.635,-46.6158 119.654,-31.2937"/>
<polygon fill="midnightblue" stroke="midnightblue" points="122.869,-29.8897 116.179,-21.6739 116.285,-32.2682 122.869,-29.8897"/>
</g>
<!-- Node6 -->
<g id="node11" class="node"><title>Node6</title>
<polygon fill="white" stroke="#bfbfbf" points="506.5,-0.5 506.5,-21.5 553.5,-21.5 553.5,-0.5 506.5,-0.5"/>
<text text-anchor="middle" x="530" y="-8.5" font-family="Verdana" font-size="10.00">vector</text>
</g>
<!-- Node4&#45;&gt;Node6 -->
<g id="edge10" class="edge"><title>Node4&#45;&gt;Node6</title>
<path fill="none" stroke="midnightblue" d="M316.753,-123.616C370.266,-117.492 473.275,-103.028 501,-80 515.479,-67.9745 522.857,-47.4683 526.535,-31.9278"/>
<polygon fill="midnightblue" stroke="midnightblue" points="530.055,-32.1772 528.607,-21.6818 523.194,-30.7893 530.055,-32.1772"/>
</g>
<!-- Node7 -->
<g id="node13" class="node"><title>Node7</title>
<polygon fill="white" stroke="#bfbfbf" points="414.5,-0.5 414.5,-21.5 467.5,-21.5 467.5,-0.5 414.5,-0.5"/>
<text text-anchor="middle" x="441" y="-8.5" font-family="Verdana" font-size="10.00">stdint.h</text>
</g>
<!-- Node4&#45;&gt;Node7 -->
<g id="edge12" class="edge"><title>Node4&#45;&gt;Node7</title>
<path fill="none" stroke="midnightblue" d="M316.636,-124.195C368.087,-119.021 464.345,-106.042 485,-80 498.278,-63.2595 480.77,-42.3751 464.065,-27.9929"/>
<polygon fill="midnightblue" stroke="midnightblue" points="466.038,-25.086 456.068,-21.5015 461.626,-30.5211 466.038,-25.086"/>
</g>
<!-- Node8 -->
<g id="node15" class="node"><title>Node8</title>
<polygon fill="white" stroke="#bfbfbf" points="160,-58.5 160,-79.5 190,-79.5 190,-58.5 160,-58.5"/>
<text text-anchor="middle" x="175" y="-66.5" font-family="Verdana" font-size="10.00">list</text>
</g>
<!-- Node4&#45;&gt;Node8 -->
<g id="edge14" class="edge"><title>Node4&#45;&gt;Node8</title>
<path fill="none" stroke="midnightblue" d="M264.261,-116.497C245.914,-106.734 218.546,-92.1712 198.955,-81.7468"/>
<polygon fill="midnightblue" stroke="midnightblue" points="200.508,-78.6086 190.036,-77.0009 197.22,-84.7882 200.508,-78.6086"/>
</g>
<!-- Node9 -->
<g id="node17" class="node"><title>Node9</title>
<polygon fill="white" stroke="#bfbfbf" points="208,-58.5 208,-79.5 272,-79.5 272,-58.5 208,-58.5"/>
<text text-anchor="middle" x="240" y="-66.5" font-family="Verdana" font-size="10.00">XmlSink.h</text>
</g>
<!-- Node4&#45;&gt;Node9 -->
<g id="edge16" class="edge"><title>Node4&#45;&gt;Node9</title>
<path fill="none" stroke="midnightblue" d="M275.93,-116.362C269.851,-108.35 261.363,-97.1605 254.163,-87.6696"/>
<polygon fill="midnightblue" stroke="midnightblue" points="256.851,-85.4222 248.019,-79.5707 251.275,-89.653 256.851,-85.4222"/>
</g>
<!-- Node10 -->
<g id="node19" class="node"><title>Node10</title>
<polygon fill="white" stroke="#bfbfbf" points="289.5,-58.5 289.5,-79.5 366.5,-79.5 366.5,-58.5 289.5,-58.5"/>
<text text-anchor="middle" x="328" y="-66.5" font-family="Verdana" font-size="10.00">XmlSource.h</text>
</g>
<!-- Node4&#45;&gt;Node10 -->
<g id="edge18" class="edge"><title>Node4&#45;&gt;Node10</title>
<path fill="none" stroke="midnightblue" d="M292.07,-116.362C298.149,-108.35 306.637,-97.1605 313.837,-87.6696"/>
<polygon fill="midnightblue" stroke="midnightblue" points="316.725,-89.653 319.981,-79.5707 311.149,-85.4222 316.725,-89.653"/>
</g>
<!-- Node11 -->
<g id="node21" class="node"><title>Node11</title>
<a xlink:href="PathNavigator_8h.html" target="_top" xlink:title="PathNavigator.h">
<polygon fill="white" stroke="black" points="384,-58.5 384,-79.5 476,-79.5 476,-58.5 384,-58.5"/>
<text text-anchor="middle" x="430" y="-66.5" font-family="Verdana" font-size="10.00">PathNavigator.h</text>
</a>
</g>
<!-- Node4&#45;&gt;Node11 -->
<g id="edge20" class="edge"><title>Node4&#45;&gt;Node11</title>
<path fill="none" stroke="midnightblue" d="M310.439,-116.497C333.756,-107.234 367.95,-93.6499 393.804,-83.3793"/>
<polygon fill="midnightblue" stroke="midnightblue" points="395.263,-86.566 403.264,-79.6212 392.678,-80.0605 395.263,-86.566"/>
</g>
<!-- Node11&#45;&gt;Node5 -->
<g id="edge24" class="edge"><title>Node11&#45;&gt;Node5</title>
<path fill="none" stroke="midnightblue" d="M383.8,-59.6906C380.823,-59.1123 377.87,-58.5444 375,-58 292.305,-42.3149 194.659,-25.1579 145.195,-16.563"/>
<polygon fill="midnightblue" stroke="midnightblue" points="145.561,-13.0743 135.11,-14.8133 144.365,-19.9713 145.561,-13.0743"/>
</g>
<!-- Node11&#45;&gt;Node6 -->
<g id="edge22" class="edge"><title>Node11&#45;&gt;Node6</title>
<path fill="none" stroke="midnightblue" d="M448.342,-58.3619C463.566,-49.532 485.441,-36.844 502.72,-26.8224"/>
<polygon fill="midnightblue" stroke="midnightblue" points="504.88,-29.6155 511.775,-21.5707 501.368,-23.5603 504.88,-29.6155"/>
</g>
<!-- Node11&#45;&gt;Node7 -->
<g id="edge26" class="edge"><title>Node11&#45;&gt;Node7</title>
<path fill="none" stroke="midnightblue" d="M432.018,-58.3619C433.444,-50.8401 435.402,-40.5187 437.125,-31.4308"/>
<polygon fill="midnightblue" stroke="midnightblue" points="440.571,-32.0477 438.995,-21.5707 433.693,-30.7433 440.571,-32.0477"/>
</g>
</g>
</svg>
