<?xml version="1.0" encoding="UTF-8" standalone="no"?>
<!DOCTYPE svg PUBLIC "-//W3C//DTD SVG 1.1//EN"
 "http://www.w3.org/Graphics/SVG/1.1/DTD/svg11.dtd">
<!-- Generated by graphviz version 2.26.3 (20100126.1600)
 -->
<!-- Title: parameter/HardwareBackSynchronizer.h Pages: 1 -->
<svg width="404pt" height="88pt"
 viewBox="0.00 0.00 404.00 88.00" xmlns="http://www.w3.org/2000/svg" xmlns:xlink="http://www.w3.org/1999/xlink">
<g id="graph1" class="graph" transform="scale(1 1) rotate(0) translate(4 84)">
<title>parameter/HardwareBackSynchronizer.h</title>
<polygon fill="white" stroke="white" points="-4,5 -4,-84 401,-84 401,5 -4,5"/>
<!-- Node1 -->
<g id="node1" class="node"><title>Node1</title>
<polygon fill="#bfbfbf" stroke="black" points="108,-58.5 108,-79.5 318,-79.5 318,-58.5 108,-58.5"/>
<text text-anchor="middle" x="213" y="-66.5" font-family="Verdana" font-size="10.00">parameter/HardwareBackSynchronizer.h</text>
</g>
<!-- Node2 -->
<g id="node3" class="node"><title>Node2</title>
<a xlink:href="HardwareBackSynchronizer_8cpp.html" target="_top" xlink:title="parameter/HardwareBackSynchronizer.cpp">
<polygon fill="white" stroke="black" points="-0.5,-0.5 -0.5,-21.5 220.5,-21.5 220.5,-0.5 -0.5,-0.5"/>
<text text-anchor="middle" x="110" y="-8.5" font-family="Verdana" font-size="10.00">parameter/HardwareBackSynchronizer.cpp</text>
</a>
</g>
<!-- Node1&#45;&gt;Node2 -->
<g id="edge2" class="edge"><title>Node1&#45;&gt;Node2</title>
<path fill="none" stroke="midnightblue" d="M185.259,-53.379C167.362,-43.3011 144.563,-30.4624 128.772,-21.5707"/>
<polygon fill="midnightblue" stroke="midnightblue" points="183.677,-56.505 194.108,-58.3619 187.112,-50.4055 183.677,-56.505"/>
</g>
<!-- Node3 -->
<g id="node5" class="node"><title>Node3</title>
<a xlink:href="ParameterMgr_8cpp.html" target="_top" xlink:title="parameter/ParameterMgr.cpp">
<polygon fill="white" stroke="black" points="238,-0.5 238,-21.5 396,-21.5 396,-0.5 238,-0.5"/>
<text text-anchor="middle" x="317" y="-8.5" font-family="Verdana" font-size="10.00">parameter/ParameterMgr.cpp</text>
</a>
</g>
<!-- Node1&#45;&gt;Node3 -->
<g id="edge4" class="edge"><title>Node1&#45;&gt;Node3</title>
<path fill="none" stroke="midnightblue" d="M241.01,-53.379C259.081,-43.3011 282.102,-30.4624 298.046,-21.5707"/>
<polygon fill="midnightblue" stroke="midnightblue" points="239.104,-50.4344 232.075,-58.3619 242.514,-56.548 239.104,-50.4344"/>
</g>
</g>
</svg>
