<?xml version="1.0" encoding="UTF-8" standalone="no"?>
<!DOCTYPE svg PUBLIC "-//W3C//DTD SVG 1.1//EN"
 "http://www.w3.org/Graphics/SVG/1.1/DTD/svg11.dtd">
<!-- Generated by graphviz version 2.26.3 (20100126.1600)
 -->
<!-- Title: parameter/HardwareBackSynchronizer.cpp Pages: 1 -->
<svg width="604pt" height="378pt"
 viewBox="0.00 0.00 603.90 378.00" xmlns="http://www.w3.org/2000/svg" xmlns:xlink="http://www.w3.org/1999/xlink">
<g id="graph1" class="graph" transform="scale(1 1) rotate(0) translate(4 374)">
<title>parameter/HardwareBackSynchronizer.cpp</title>
<polygon fill="white" stroke="white" points="-4,5 -4,-374 600.896,-374 600.896,5 -4,5"/>
<!-- Node1 -->
<g id="node1" class="node"><title>Node1</title>
<polygon fill="#bfbfbf" stroke="black" points="224.5,-348.5 224.5,-369.5 445.5,-369.5 445.5,-348.5 224.5,-348.5"/>
<text text-anchor="middle" x="335" y="-356.5" font-family="Verdana" font-size="10.00">parameter/HardwareBackSynchronizer.cpp</text>
</g>
<!-- Node2 -->
<g id="node3" class="node"><title>Node2</title>
<a xlink:href="HardwareBackSynchronizer_8h.html" target="_top" xlink:title="HardwareBackSynchronizer.h">
<polygon fill="white" stroke="black" points="204,-290.5 204,-311.5 360,-311.5 360,-290.5 204,-290.5"/>
<text text-anchor="middle" x="282" y="-298.5" font-family="Verdana" font-size="10.00">HardwareBackSynchronizer.h</text>
</a>
</g>
<!-- Node1&#45;&gt;Node2 -->
<g id="edge2" class="edge"><title>Node1&#45;&gt;Node2</title>
<path fill="none" stroke="midnightblue" d="M325.279,-348.362C317.808,-340.186 307.314,-328.702 298.531,-319.091"/>
<polygon fill="midnightblue" stroke="midnightblue" points="300.989,-316.592 291.659,-311.571 295.821,-321.314 300.989,-316.592"/>
</g>
<!-- Node7 -->
<g id="node13" class="node"><title>Node7</title>
<a xlink:href="ConfigurableElement_8h.html" target="_top" xlink:title="ConfigurableElement.h">
<polygon fill="white" stroke="black" points="325.5,-174.5 325.5,-195.5 450.5,-195.5 450.5,-174.5 325.5,-174.5"/>
<text text-anchor="middle" x="388" y="-182.5" font-family="Verdana" font-size="10.00">ConfigurableElement.h</text>
</a>
</g>
<!-- Node1&#45;&gt;Node7 -->
<g id="edge48" class="edge"><title>Node1&#45;&gt;Node7</title>
<path fill="none" stroke="midnightblue" d="M345.042,-348.332C352.885,-339.353 363.369,-325.801 369,-312 383.452,-276.577 387.067,-231.577 387.879,-205.757"/>
<polygon fill="midnightblue" stroke="midnightblue" points="391.38,-205.716 388.081,-195.648 384.382,-205.576 391.38,-205.716"/>
</g>
<!-- Node3 -->
<g id="node5" class="node"><title>Node3</title>
<a xlink:href="BackSynchronizer_8h.html" target="_top" xlink:title="BackSynchronizer.h">
<polygon fill="white" stroke="black" points="235,-232.5 235,-253.5 345,-253.5 345,-232.5 235,-232.5"/>
<text text-anchor="middle" x="290" y="-240.5" font-family="Verdana" font-size="10.00">BackSynchronizer.h</text>
</a>
</g>
<!-- Node2&#45;&gt;Node3 -->
<g id="edge4" class="edge"><title>Node2&#45;&gt;Node3</title>
<path fill="none" stroke="midnightblue" d="M283.467,-290.362C284.494,-282.922 285.898,-272.743 287.141,-263.728"/>
<polygon fill="midnightblue" stroke="midnightblue" points="290.643,-263.955 288.542,-253.571 283.708,-262.999 290.643,-263.955"/>
</g>
<!-- Node14 -->
<g id="node34" class="node"><title>Node14</title>
<a xlink:href="SyncerSet_8h.html" target="_top" xlink:title="SyncerSet.h">
<polygon fill="white" stroke="black" points="-0.5,-116.5 -0.5,-137.5 74.5,-137.5 74.5,-116.5 -0.5,-116.5"/>
<text text-anchor="middle" x="37" y="-124.5" font-family="Verdana" font-size="10.00">SyncerSet.h</text>
</a>
</g>
<!-- Node2&#45;&gt;Node14 -->
<g id="edge40" class="edge"><title>Node2&#45;&gt;Node14</title>
<path fill="none" stroke="midnightblue" d="M267.043,-290.377C225.781,-261.073 110.116,-178.927 60.3026,-143.55"/>
<polygon fill="midnightblue" stroke="midnightblue" points="62.2523,-140.641 52.0726,-137.705 58.199,-146.349 62.2523,-140.641"/>
</g>
<!-- Node4 -->
<g id="node7" class="node"><title>Node4</title>
<a xlink:href="ConfigurableElementAggregator_8h.html" target="_top" xlink:title="ConfigurableElementAggregator.h">
<polygon fill="white" stroke="black" points="91.5,-116.5 91.5,-137.5 270.5,-137.5 270.5,-116.5 91.5,-116.5"/>
<text text-anchor="middle" x="181" y="-124.5" font-family="Verdana" font-size="10.00">ConfigurableElementAggregator.h</text>
</a>
</g>
<!-- Node3&#45;&gt;Node4 -->
<g id="edge6" class="edge"><title>Node3&#45;&gt;Node4</title>
<path fill="none" stroke="midnightblue" d="M279.941,-232.295C261.285,-212.441 221.132,-169.709 198.124,-145.224"/>
<polygon fill="midnightblue" stroke="midnightblue" points="200.433,-142.57 191.035,-137.679 195.332,-147.363 200.433,-142.57"/>
</g>
<!-- Node5 -->
<g id="node9" class="node"><title>Node5</title>
<polygon fill="white" stroke="#bfbfbf" points="190,-58.5 190,-79.5 220,-79.5 220,-58.5 190,-58.5"/>
<text text-anchor="middle" x="205" y="-66.5" font-family="Verdana" font-size="10.00">list</text>
</g>
<!-- Node3&#45;&gt;Node5 -->
<g id="edge38" class="edge"><title>Node3&#45;&gt;Node5</title>
<path fill="none" stroke="midnightblue" d="M292.064,-232.165C295.885,-208.944 301.742,-153.456 279,-116 267.841,-97.6213 246.463,-85.2139 229.542,-77.7843"/>
<polygon fill="midnightblue" stroke="midnightblue" points="230.787,-74.5121 220.205,-73.9775 228.144,-80.9941 230.787,-74.5121"/>
</g>
<!-- Node3&#45;&gt;Node7 -->
<g id="edge12" class="edge"><title>Node3&#45;&gt;Node7</title>
<path fill="none" stroke="midnightblue" d="M307.975,-232.362C322.894,-223.532 344.333,-210.844 361.266,-200.822"/>
<polygon fill="midnightblue" stroke="midnightblue" points="363.316,-203.676 370.139,-195.571 359.751,-197.652 363.316,-203.676"/>
</g>
<!-- Node4&#45;&gt;Node5 -->
<g id="edge8" class="edge"><title>Node4&#45;&gt;Node5</title>
<path fill="none" stroke="midnightblue" d="M185.402,-116.362C188.582,-108.677 192.972,-98.0686 196.79,-88.8399"/>
<polygon fill="midnightblue" stroke="midnightblue" points="200.036,-90.1491 200.626,-79.5707 193.568,-87.4726 200.036,-90.1491"/>
</g>
<!-- Node6 -->
<g id="node11" class="node"><title>Node6</title>
<polygon fill="white" stroke="#bfbfbf" points="183,-0.5 183,-21.5 227,-21.5 227,-0.5 183,-0.5"/>
<text text-anchor="middle" x="205" y="-8.5" font-family="Verdana" font-size="10.00">string</text>
</g>
<!-- Node4&#45;&gt;Node6 -->
<g id="edge10" class="edge"><title>Node4&#45;&gt;Node6</title>
<path fill="none" stroke="midnightblue" d="M179.444,-116.059C177.838,-102.294 176.181,-78.0327 181,-58 183.31,-48.3962 187.931,-38.5455 192.507,-30.3593"/>
<polygon fill="midnightblue" stroke="midnightblue" points="195.598,-32.0094 197.716,-21.6285 189.587,-28.4225 195.598,-32.0094"/>
</g>
<!-- Node7&#45;&gt;Node5 -->
<g id="edge36" class="edge"><title>Node7&#45;&gt;Node5</title>
<path fill="none" stroke="midnightblue" d="M378.545,-174.495C364.959,-159.88 338.612,-133.265 312,-116 297.813,-106.796 256.73,-89.6487 229.796,-78.8065"/>
<polygon fill="midnightblue" stroke="midnightblue" points="230.836,-75.4531 220.251,-74.9896 228.237,-81.9526 230.836,-75.4531"/>
</g>
<!-- Node8 -->
<g id="node15" class="node"><title>Node8</title>
<a xlink:href="Element_8h.html" target="_top" xlink:title="Element.h">
<polygon fill="white" stroke="black" points="363.5,-116.5 363.5,-137.5 428.5,-137.5 428.5,-116.5 363.5,-116.5"/>
<text text-anchor="middle" x="396" y="-124.5" font-family="Verdana" font-size="10.00">Element.h</text>
</a>
</g>
<!-- Node7&#45;&gt;Node8 -->
<g id="edge14" class="edge"><title>Node7&#45;&gt;Node8</title>
<path fill="none" stroke="midnightblue" d="M389.467,-174.362C390.494,-166.922 391.898,-156.743 393.141,-147.728"/>
<polygon fill="midnightblue" stroke="midnightblue" points="396.643,-147.955 394.542,-137.571 389.708,-146.999 396.643,-147.955"/>
</g>
<!-- Node8&#45;&gt;Node5 -->
<g id="edge22" class="edge"><title>Node8&#45;&gt;Node5</title>
<path fill="none" stroke="midnightblue" d="M363.491,-118.393C330.612,-109.496 278.441,-94.8485 234,-80 232.596,-79.5307 231.158,-79.0354 229.711,-78.5249"/>
<polygon fill="midnightblue" stroke="midnightblue" points="230.863,-75.2192 220.269,-75.0541 228.447,-81.7894 230.863,-75.2192"/>
</g>
<!-- Node8&#45;&gt;Node6 -->
<g id="edge16" class="edge"><title>Node8&#45;&gt;Node6</title>
<path fill="none" stroke="midnightblue" d="M363.477,-119.863C336.086,-112.794 296.727,-100.08 267,-80 247.031,-66.5111 229.224,-45.2174 217.874,-29.8511"/>
<polygon fill="midnightblue" stroke="midnightblue" points="220.633,-27.6919 211.97,-21.5925 214.938,-31.7629 220.633,-27.6919"/>
</g>
<!-- Node9 -->
<g id="node18" class="node"><title>Node9</title>
<polygon fill="white" stroke="#bfbfbf" points="512.5,-0.5 512.5,-21.5 559.5,-21.5 559.5,-0.5 512.5,-0.5"/>
<text text-anchor="middle" x="536" y="-8.5" font-family="Verdana" font-size="10.00">vector</text>
</g>
<!-- Node8&#45;&gt;Node9 -->
<g id="edge18" class="edge"><title>Node8&#45;&gt;Node9</title>
<path fill="none" stroke="midnightblue" d="M428.894,-123.911C479.112,-118.438 571.177,-105.169 591,-80 605.265,-61.8879 583.749,-41.2242 563.592,-27.2688"/>
<polygon fill="midnightblue" stroke="midnightblue" points="565.426,-24.2859 555.145,-21.7257 561.585,-30.1383 565.426,-24.2859"/>
</g>
<!-- Node10 -->
<g id="node20" class="node"><title>Node10</title>
<polygon fill="white" stroke="#bfbfbf" points="332.5,-0.5 332.5,-21.5 385.5,-21.5 385.5,-0.5 332.5,-0.5"/>
<text text-anchor="middle" x="359" y="-8.5" font-family="Verdana" font-size="10.00">stdint.h</text>
</g>
<!-- Node8&#45;&gt;Node10 -->
<g id="edge20" class="edge"><title>Node8&#45;&gt;Node10</title>
<path fill="none" stroke="midnightblue" d="M393.359,-116.147C389.952,-102.473 383.666,-78.3047 377,-58 374.087,-49.1276 370.469,-39.4716 367.242,-31.2328"/>
<polygon fill="midnightblue" stroke="midnightblue" points="370.404,-29.7114 363.447,-21.7204 363.902,-32.3055 370.404,-29.7114"/>
</g>
<!-- Node11 -->
<g id="node23" class="node"><title>Node11</title>
<polygon fill="white" stroke="#bfbfbf" points="424,-58.5 424,-79.5 488,-79.5 488,-58.5 424,-58.5"/>
<text text-anchor="middle" x="456" y="-66.5" font-family="Verdana" font-size="10.00">XmlSink.h</text>
</g>
<!-- Node8&#45;&gt;Node11 -->
<g id="edge24" class="edge"><title>Node8&#45;&gt;Node11</title>
<path fill="none" stroke="midnightblue" d="M407.005,-116.362C415.547,-108.104 427.58,-96.4725 437.583,-86.8029"/>
<polygon fill="midnightblue" stroke="midnightblue" points="440.308,-89.0374 445.065,-79.5707 435.442,-84.0044 440.308,-89.0374"/>
</g>
<!-- Node12 -->
<g id="node25" class="node"><title>Node12</title>
<polygon fill="white" stroke="#bfbfbf" points="505.5,-58.5 505.5,-79.5 582.5,-79.5 582.5,-58.5 505.5,-58.5"/>
<text text-anchor="middle" x="544" y="-66.5" font-family="Verdana" font-size="10.00">XmlSource.h</text>
</g>
<!-- Node8&#45;&gt;Node12 -->
<g id="edge26" class="edge"><title>Node8&#45;&gt;Node12</title>
<path fill="none" stroke="midnightblue" d="M422.802,-116.497C446.438,-107.234 481.1,-93.6499 507.308,-83.3793"/>
<polygon fill="midnightblue" stroke="midnightblue" points="508.864,-86.5287 516.898,-79.6212 506.31,-80.0113 508.864,-86.5287"/>
</g>
<!-- Node13 -->
<g id="node27" class="node"><title>Node13</title>
<a xlink:href="PathNavigator_8h.html" target="_top" xlink:title="PathNavigator.h">
<polygon fill="white" stroke="black" points="276,-58.5 276,-79.5 368,-79.5 368,-58.5 276,-58.5"/>
<text text-anchor="middle" x="322" y="-66.5" font-family="Verdana" font-size="10.00">PathNavigator.h</text>
</a>
</g>
<!-- Node8&#45;&gt;Node13 -->
<g id="edge28" class="edge"><title>Node8&#45;&gt;Node13</title>
<path fill="none" stroke="midnightblue" d="M382.427,-116.362C371.579,-107.859 356.166,-95.7785 343.621,-85.9466"/>
<polygon fill="midnightblue" stroke="midnightblue" points="345.516,-82.9848 335.487,-79.5707 341.198,-88.4942 345.516,-82.9848"/>
</g>
<!-- Node13&#45;&gt;Node6 -->
<g id="edge32" class="edge"><title>Node13&#45;&gt;Node6</title>
<path fill="none" stroke="midnightblue" d="M300.812,-58.4966C282.538,-49.4378 255.928,-36.2462 235.385,-26.0628"/>
<polygon fill="midnightblue" stroke="midnightblue" points="236.94,-22.9269 226.426,-21.6212 233.831,-29.1986 236.94,-22.9269"/>
</g>
<!-- Node13&#45;&gt;Node9 -->
<g id="edge30" class="edge"><title>Node13&#45;&gt;Node9</title>
<path fill="none" stroke="midnightblue" d="M360.754,-58.4966C401.332,-47.4989 464.384,-30.4099 502.766,-20.0074"/>
<polygon fill="midnightblue" stroke="midnightblue" points="503.695,-23.382 512.431,-17.3879 501.863,-16.6258 503.695,-23.382"/>
</g>
<!-- Node13&#45;&gt;Node10 -->
<g id="edge34" class="edge"><title>Node13&#45;&gt;Node10</title>
<path fill="none" stroke="midnightblue" d="M328.786,-58.3619C333.793,-50.5131 340.745,-39.6159 346.718,-30.2527"/>
<polygon fill="midnightblue" stroke="midnightblue" points="349.829,-31.8837 352.257,-21.5707 343.928,-28.1189 349.829,-31.8837"/>
</g>
<!-- Node14&#45;&gt;Node5 -->
<g id="edge46" class="edge"><title>Node14&#45;&gt;Node5</title>
<path fill="none" stroke="midnightblue" d="M67.4235,-116.497C99.7346,-105.342 150.197,-87.9201 180.19,-77.5654"/>
<polygon fill="midnightblue" stroke="midnightblue" points="181.572,-80.7912 189.882,-74.2194 179.287,-74.1744 181.572,-80.7912"/>
</g>
<!-- Node14&#45;&gt;Node6 -->
<g id="edge44" class="edge"><title>Node14&#45;&gt;Node6</title>
<path fill="none" stroke="midnightblue" d="M52.5039,-116.295C81.8832,-96.0092 145.852,-51.8403 180.881,-27.6534"/>
<polygon fill="midnightblue" stroke="midnightblue" points="183.293,-30.2413 189.534,-21.6792 179.316,-24.481 183.293,-30.2413"/>
</g>
<!-- Node15 -->
<g id="node36" class="node"><title>Node15</title>
<polygon fill="white" stroke="#bfbfbf" points="21,-58.5 21,-79.5 53,-79.5 53,-58.5 21,-58.5"/>
<text text-anchor="middle" x="37" y="-66.5" font-family="Verdana" font-size="10.00">set</text>
</g>
<!-- Node14&#45;&gt;Node15 -->
<g id="edge42" class="edge"><title>Node14&#45;&gt;Node15</title>
<path fill="none" stroke="midnightblue" d="M37,-116.362C37,-108.922 37,-98.7427 37,-89.7276"/>
<polygon fill="midnightblue" stroke="midnightblue" points="40.5001,-89.5706 37,-79.5707 33.5001,-89.5707 40.5001,-89.5706"/>
</g>
</g>
</svg>
