<?xml version="1.0" encoding="UTF-8" standalone="no"?>
<!DOCTYPE svg PUBLIC "-//W3C//DTD SVG 1.1//EN"
 "http://www.w3.org/Graphics/SVG/1.1/DTD/svg11.dtd">
<!-- Generated by graphviz version 2.26.3 (20100126.1600)
 -->
<!-- Title: Graphical Class Hierarchy Pages: 1 -->
<svg width="1366pt" height="942pt"
 viewBox="0.00 0.00 1366.00 942.00" xmlns="http://www.w3.org/2000/svg" xmlns:xlink="http://www.w3.org/1999/xlink">
<g id="graph1" class="graph" transform="scale(1 1) rotate(0) translate(4 938)">
<title>Graphical Class Hierarchy</title>
<polygon fill="white" stroke="white" points="-4,5 -4,-938 1363,-938 1363,5 -4,5"/>
<!-- Node1 -->
<g id="node1" class="node"><title>Node1</title>
<a xlink:href="classIMapper.html" target="_top" xlink:title="IMapper">
<polygon fill="white" stroke="black" points="600.5,-732.5 600.5,-753.5 655.5,-753.5 655.5,-732.5 600.5,-732.5"/>
<text text-anchor="middle" x="628" y="-740.5" font-family="Verdana" font-size="10.00">IMapper</text>
</a>
</g>
<!-- Node2 -->
<g id="node3" class="node"><title>Node2</title>
<a xlink:href="classCSubsystem.html" target="_top" xlink:title="CSubsystem">
<polygon fill="white" stroke="black" points="806.5,-659.5 806.5,-680.5 883.5,-680.5 883.5,-659.5 806.5,-659.5"/>
<text text-anchor="middle" x="845" y="-667.5" font-family="Verdana" font-size="10.00">CSubsystem</text>
</a>
</g>
<!-- Node1&#45;&gt;Node2 -->
<g id="edge2" class="edge"><title>Node1&#45;&gt;Node2</title>
<path fill="none" stroke="#8b1a1a" d="M665.726,-736.164C681.983,-732.822 701.103,-728.357 718,-723 755.806,-711.014 797.982,-692.288 822.964,-680.602"/>
<polygon fill="#8b1a1a" stroke="#8b1a1a" points="664.632,-732.813 655.507,-738.196 665.998,-739.678 664.632,-732.813"/>
</g>
<!-- Node3 -->
<g id="node5" class="node"><title>Node3</title>
<a xlink:href="classCVirtualSubsystem.html" target="_top" xlink:title="CVirtualSubsystem">
<polygon fill="white" stroke="black" points="974,-659.5 974,-680.5 1082,-680.5 1082,-659.5 974,-659.5"/>
<text text-anchor="middle" x="1028" y="-667.5" font-family="Verdana" font-size="10.00">CVirtualSubsystem</text>
</a>
</g>
<!-- Node2&#45;&gt;Node3 -->
<g id="edge4" class="edge"><title>Node2&#45;&gt;Node3</title>
<path fill="none" stroke="midnightblue" d="M894.027,-670C918.693,-670 948.65,-670 973.976,-670"/>
<polygon fill="midnightblue" stroke="midnightblue" points="893.81,-666.5 883.81,-670 893.81,-673.5 893.81,-666.5"/>
</g>
<!-- Node4 -->
<g id="node6" class="node"><title>Node4</title>
<polygon fill="white" stroke="#bfbfbf" points="119,-752.5 119,-773.5 265,-773.5 265,-752.5 119,-752.5"/>
<text text-anchor="middle" x="192" y="-760.5" font-family="Verdana" font-size="10.00">ISelectionCriterionInterface</text>
</g>
<!-- Node5 -->
<g id="node8" class="node"><title>Node5</title>
<a xlink:href="classCSelectionCriterion.html" target="_top" xlink:title="CSelectionCriterion">
<polygon fill="white" stroke="black" points="353,-752.5 353,-773.5 461,-773.5 461,-752.5 353,-752.5"/>
<text text-anchor="middle" x="407" y="-760.5" font-family="Verdana" font-size="10.00">CSelectionCriterion</text>
</a>
</g>
<!-- Node4&#45;&gt;Node5 -->
<g id="edge6" class="edge"><title>Node4&#45;&gt;Node5</title>
<path fill="none" stroke="midnightblue" d="M275.325,-763C301.332,-763 329.329,-763 352.792,-763"/>
<polygon fill="midnightblue" stroke="midnightblue" points="275.089,-759.5 265.089,-763 275.089,-766.5 275.089,-759.5"/>
</g>
<!-- Node6 -->
<g id="node9" class="node"><title>Node6</title>
<polygon fill="white" stroke="#bfbfbf" points="108.5,-712.5 108.5,-733.5 275.5,-733.5 275.5,-712.5 108.5,-712.5"/>
<text text-anchor="middle" x="192" y="-720.5" font-family="Verdana" font-size="10.00">ISelectionCriterionTypeInterface</text>
</g>
<!-- Node7 -->
<g id="node11" class="node"><title>Node7</title>
<a xlink:href="classCSelectionCriterionType.html" target="_top" xlink:title="CSelectionCriterionType">
<polygon fill="white" stroke="black" points="342.5,-712.5 342.5,-733.5 471.5,-733.5 471.5,-712.5 342.5,-712.5"/>
<text text-anchor="middle" x="407" y="-720.5" font-family="Verdana" font-size="10.00">CSelectionCriterionType</text>
</a>
</g>
<!-- Node6&#45;&gt;Node7 -->
<g id="edge8" class="edge"><title>Node6&#45;&gt;Node7</title>
<path fill="none" stroke="midnightblue" d="M285.956,-723C305.032,-723 324.687,-723 342.466,-723"/>
<polygon fill="midnightblue" stroke="midnightblue" points="285.74,-719.5 275.74,-723 285.74,-726.5 285.74,-719.5"/>
</g>
<!-- Node8 -->
<g id="node12" class="node"><title>Node8</title>
<polygon fill="white" stroke="#bfbfbf" points="7.5,-360.5 7.5,-381.5 64.5,-381.5 64.5,-360.5 7.5,-360.5"/>
<text text-anchor="middle" x="36" y="-368.5" font-family="Verdana" font-size="10.00">IXmlSink</text>
</g>
<!-- Node9 -->
<g id="node14" class="node"><title>Node9</title>
<a xlink:href="classCElement.html" target="_top" xlink:title="CElement">
<polygon fill="white" stroke="black" points="160.5,-400.5 160.5,-421.5 223.5,-421.5 223.5,-400.5 160.5,-400.5"/>
<text text-anchor="middle" x="192" y="-408.5" font-family="Verdana" font-size="10.00">CElement</text>
</a>
</g>
<!-- Node8&#45;&gt;Node9 -->
<g id="edge10" class="edge"><title>Node8&#45;&gt;Node9</title>
<path fill="none" stroke="midnightblue" d="M74.3111,-381.927C85.1779,-384.949 97.0354,-388.173 108,-391 125.274,-395.454 144.64,-400.089 160.419,-403.774"/>
<polygon fill="midnightblue" stroke="midnightblue" points="75.2371,-378.552 64.6638,-379.226 73.3498,-385.292 75.2371,-378.552"/>
</g>
<!-- Node58 -->
<g id="node115" class="node"><title>Node58</title>
<a xlink:href="classCMappingData.html" target="_top" xlink:title="CMappingData">
<polygon fill="white" stroke="black" points="148.5,-360.5 148.5,-381.5 235.5,-381.5 235.5,-360.5 148.5,-360.5"/>
<text text-anchor="middle" x="192" y="-368.5" font-family="Verdana" font-size="10.00">CMappingData</text>
</a>
</g>
<!-- Node8&#45;&gt;Node58 -->
<g id="edge114" class="edge"><title>Node8&#45;&gt;Node58</title>
<path fill="none" stroke="midnightblue" d="M74.7314,-371C97.0368,-371 125.139,-371 148.241,-371"/>
<polygon fill="midnightblue" stroke="midnightblue" points="74.6128,-367.5 64.6128,-371 74.6128,-374.5 74.6128,-367.5"/>
</g>
<!-- Node9&#45;&gt;Node5 -->
<g id="edge82" class="edge"><title>Node9&#45;&gt;Node5</title>
<path fill="none" stroke="midnightblue" d="M196.711,-431.733C212.077,-497.563 262.596,-700.042 312,-743 323.32,-752.843 338.251,-758.259 352.914,-761.137"/>
<polygon fill="midnightblue" stroke="midnightblue" points="200.064,-430.694 194.404,-421.737 193.243,-432.268 200.064,-430.694"/>
</g>
<!-- Node9&#45;&gt;Node7 -->
<g id="edge86" class="edge"><title>Node9&#45;&gt;Node7</title>
<path fill="none" stroke="midnightblue" d="M193.984,-431.545C200.323,-485.251 225.087,-630.654 312,-703 320.679,-710.225 331.323,-715.037 342.307,-718.206"/>
<polygon fill="midnightblue" stroke="midnightblue" points="197.456,-431.099 192.895,-421.536 190.497,-431.856 197.456,-431.099"/>
</g>
<!-- Node10 -->
<g id="node16" class="node"><title>Node10</title>
<a xlink:href="classCBinarySerializableElement.html" target="_top" xlink:title="CBinarySerializableElement">
<polygon fill="white" stroke="black" points="333,-400.5 333,-421.5 481,-421.5 481,-400.5 333,-400.5"/>
<text text-anchor="middle" x="407" y="-408.5" font-family="Verdana" font-size="10.00">CBinarySerializableElement</text>
</a>
</g>
<!-- Node9&#45;&gt;Node10 -->
<g id="edge12" class="edge"><title>Node9&#45;&gt;Node10</title>
<path fill="none" stroke="midnightblue" d="M233.981,-411C262.053,-411 299.76,-411 332.807,-411"/>
<polygon fill="midnightblue" stroke="midnightblue" points="233.724,-407.5 223.724,-411 233.724,-414.5 233.724,-407.5"/>
</g>
<!-- Node14 -->
<g id="node24" class="node"><title>Node14</title>
<a xlink:href="classCComponentLibrary.html" target="_top" xlink:title="CComponentLibrary">
<polygon fill="white" stroke="black" points="351,-360.5 351,-381.5 463,-381.5 463,-360.5 351,-360.5"/>
<text text-anchor="middle" x="407" y="-368.5" font-family="Verdana" font-size="10.00">CComponentLibrary</text>
</a>
</g>
<!-- Node9&#45;&gt;Node14 -->
<g id="edge20" class="edge"><title>Node9&#45;&gt;Node14</title>
<path fill="none" stroke="midnightblue" d="M233.617,-403.257C267.008,-397.045 314.202,-388.265 350.924,-381.433"/>
<polygon fill="midnightblue" stroke="midnightblue" points="232.915,-399.828 223.724,-405.098 234.195,-406.71 232.915,-399.828"/>
</g>
<!-- Node15 -->
<g id="node26" class="node"><title>Node15</title>
<a xlink:href="classCConfigurableElement.html" target="_top" xlink:title="CConfigurableElement">
<polygon fill="white" stroke="black" points="345.5,-440.5 345.5,-461.5 468.5,-461.5 468.5,-440.5 345.5,-440.5"/>
<text text-anchor="middle" x="407" y="-448.5" font-family="Verdana" font-size="10.00">CConfigurableElement</text>
</a>
</g>
<!-- Node9&#45;&gt;Node15 -->
<g id="edge22" class="edge"><title>Node9&#45;&gt;Node15</title>
<path fill="none" stroke="midnightblue" d="M233.58,-418.736C266.845,-424.925 313.825,-433.665 350.498,-440.488"/>
<polygon fill="midnightblue" stroke="midnightblue" points="234.195,-415.29 223.724,-416.902 232.915,-422.172 234.195,-415.29"/>
</g>
<!-- Node27 -->
<g id="node51" class="node"><title>Node27</title>
<a xlink:href="classCEnumValuePair.html" target="_top" xlink:title="CEnumValuePair">
<polygon fill="white" stroke="black" points="359.5,-320.5 359.5,-341.5 454.5,-341.5 454.5,-320.5 359.5,-320.5"/>
<text text-anchor="middle" x="407" y="-328.5" font-family="Verdana" font-size="10.00">CEnumValuePair</text>
</a>
</g>
<!-- Node9&#45;&gt;Node27 -->
<g id="edge48" class="edge"><title>Node9&#45;&gt;Node27</title>
<path fill="none" stroke="midnightblue" d="M233.641,-406.208C247.793,-403.283 263.242,-398.576 276,-391 296.565,-378.788 291.277,-362.941 312,-351 326.312,-342.754 343.588,-337.89 359.461,-335.028"/>
<polygon fill="midnightblue" stroke="midnightblue" points="232.83,-402.798 223.622,-408.038 234.088,-409.684 232.83,-402.798"/>
</g>
<!-- Node28 -->
<g id="node53" class="node"><title>Node28</title>
<a xlink:href="classCKindElement.html" target="_top" xlink:title="CKindElement">
<polygon fill="white" stroke="black" points="365.5,-260.5 365.5,-281.5 448.5,-281.5 448.5,-260.5 365.5,-260.5"/>
<text text-anchor="middle" x="407" y="-268.5" font-family="Verdana" font-size="10.00">CKindElement</text>
</a>
</g>
<!-- Node9&#45;&gt;Node28 -->
<g id="edge50" class="edge"><title>Node9&#45;&gt;Node28</title>
<path fill="none" stroke="midnightblue" d="M233.665,-408.602C248.371,-405.935 264.172,-400.779 276,-391 306.05,-366.156 284.097,-338.232 312,-311 326.6,-296.751 347.036,-287.26 365.214,-281.116"/>
<polygon fill="midnightblue" stroke="midnightblue" points="233.1,-405.147 223.722,-410.077 234.128,-412.072 233.1,-405.147"/>
</g>
<!-- Node34 -->
<g id="node65" class="node"><title>Node34</title>
<a xlink:href="classCParameterAdaptation.html" target="_top" xlink:title="CParameterAdaptation">
<polygon fill="white" stroke="black" points="344,-220.5 344,-241.5 470,-241.5 470,-220.5 344,-220.5"/>
<text text-anchor="middle" x="407" y="-228.5" font-family="Verdana" font-size="10.00">CParameterAdaptation</text>
</a>
</g>
<!-- Node9&#45;&gt;Node34 -->
<g id="edge62" class="edge"><title>Node9&#45;&gt;Node34</title>
<path fill="none" stroke="midnightblue" d="M233.91,-409.775C248.928,-407.274 264.877,-401.925 276,-391 321.835,-345.98 265.578,-295.414 312,-251 320.768,-242.611 332.119,-237.358 343.906,-234.142"/>
<polygon fill="midnightblue" stroke="midnightblue" points="233.204,-406.337 223.733,-411.085 234.098,-413.279 233.204,-406.337"/>
</g>
<!-- Node37 -->
<g id="node71" class="node"><title>Node37</title>
<a xlink:href="classCParameterFrameworkConfiguration.html" target="_top" xlink:title="CParameterFrameworkConfiguration">
<polygon fill="white" stroke="black" points="312.5,-180.5 312.5,-201.5 501.5,-201.5 501.5,-180.5 312.5,-180.5"/>
<text text-anchor="middle" x="407" y="-188.5" font-family="Verdana" font-size="10.00">CParameterFrameworkConfiguration</text>
</a>
</g>
<!-- Node9&#45;&gt;Node37 -->
<g id="edge68" class="edge"><title>Node9&#45;&gt;Node37</title>
<path fill="none" stroke="midnightblue" d="M233.876,-410.147C249.037,-407.712 265.093,-402.31 276,-391 332.631,-332.272 254.603,-268.979 312,-211 315.676,-207.287 319.855,-204.18 324.36,-201.586"/>
<polygon fill="midnightblue" stroke="midnightblue" points="233.102,-406.715 223.597,-411.395 233.946,-413.664 233.102,-406.715"/>
</g>
<!-- Node38 -->
<g id="node73" class="node"><title>Node38</title>
<a xlink:href="classCParameterMgr.html" target="_top" xlink:title="CParameterMgr">
<polygon fill="white" stroke="black" points="361,-140.5 361,-161.5 453,-161.5 453,-140.5 361,-140.5"/>
<text text-anchor="middle" x="407" y="-148.5" font-family="Verdana" font-size="10.00">CParameterMgr</text>
</a>
</g>
<!-- Node9&#45;&gt;Node38 -->
<g id="edge70" class="edge"><title>Node9&#45;&gt;Node38</title>
<path fill="none" stroke="#8b1a1a" d="M234.086,-410.346C249.274,-407.937 265.294,-402.501 276,-391 343.508,-318.48 243.546,-242.628 312,-171 324.46,-157.962 343.101,-152.329 360.578,-150.189"/>
<polygon fill="#8b1a1a" stroke="#8b1a1a" points="233.298,-406.915 223.779,-411.568 234.122,-413.866 233.298,-406.915"/>
</g>
<!-- Node39 -->
<g id="node75" class="node"><title>Node39</title>
<a xlink:href="classCRule.html" target="_top" xlink:title="CRule">
<polygon fill="white" stroke="black" points="385.5,-40.5 385.5,-61.5 428.5,-61.5 428.5,-40.5 385.5,-40.5"/>
<text text-anchor="middle" x="407" y="-48.5" font-family="Verdana" font-size="10.00">CRule</text>
</a>
</g>
<!-- Node9&#45;&gt;Node39 -->
<g id="edge72" class="edge"><title>Node9&#45;&gt;Node39</title>
<path fill="none" stroke="midnightblue" d="M234.235,-410.483C249.442,-408.091 265.436,-402.631 276,-391 354.43,-304.641 255.637,-233.139 312,-131 329.502,-99.2842 364.945,-74.7423 387.245,-61.6174"/>
<polygon fill="midnightblue" stroke="midnightblue" points="233.436,-407.052 223.909,-411.687 234.247,-414.005 233.436,-407.052"/>
</g>
<!-- Node42 -->
<g id="node81" class="node"><title>Node42</title>
<a xlink:href="classCSelectionCriteria.html" target="_top" xlink:title="CSelectionCriteria">
<polygon fill="white" stroke="black" points="356,-672.5 356,-693.5 458,-693.5 458,-672.5 356,-672.5"/>
<text text-anchor="middle" x="407" y="-680.5" font-family="Verdana" font-size="10.00">CSelectionCriteria</text>
</a>
</g>
<!-- Node9&#45;&gt;Node42 -->
<g id="edge78" class="edge"><title>Node9&#45;&gt;Node42</title>
<path fill="none" stroke="midnightblue" d="M195.465,-431.648C204.766,-480.259 234.997,-602.377 312,-663 324.448,-672.8 340.564,-678.1 355.974,-680.883"/>
<polygon fill="midnightblue" stroke="midnightblue" points="198.888,-430.905 193.661,-421.69 192,-432.154 198.888,-430.905"/>
</g>
<!-- Node43 -->
<g id="node83" class="node"><title>Node43</title>
<a xlink:href="classCSelectionCriteriaDefinition.html" target="_top" xlink:title="CSelectionCriteriaDefinition">
<polygon fill="white" stroke="black" points="333.5,-632.5 333.5,-653.5 480.5,-653.5 480.5,-632.5 333.5,-632.5"/>
<text text-anchor="middle" x="407" y="-640.5" font-family="Verdana" font-size="10.00">CSelectionCriteriaDefinition</text>
</a>
</g>
<!-- Node9&#45;&gt;Node43 -->
<g id="edge80" class="edge"><title>Node9&#45;&gt;Node43</title>
<path fill="none" stroke="midnightblue" d="M197.415,-431.568C209.844,-474.5 244.661,-573.736 312,-623 318.393,-627.677 325.641,-631.311 333.215,-634.127"/>
<polygon fill="midnightblue" stroke="midnightblue" points="200.786,-430.626 194.732,-421.931 194.043,-432.504 200.786,-430.626"/>
</g>
<!-- Node44 -->
<g id="node86" class="node"><title>Node44</title>
<a xlink:href="classCSelectionCriterionLibrary.html" target="_top" xlink:title="CSelectionCriterionLibrary">
<polygon fill="white" stroke="black" points="337,-592.5 337,-613.5 477,-613.5 477,-592.5 337,-592.5"/>
<text text-anchor="middle" x="407" y="-600.5" font-family="Verdana" font-size="10.00">CSelectionCriterionLibrary</text>
</a>
</g>
<!-- Node9&#45;&gt;Node44 -->
<g id="edge84" class="edge"><title>Node9&#45;&gt;Node44</title>
<path fill="none" stroke="midnightblue" d="M200.031,-431.136C215.697,-467.66 253.963,-544.597 312,-583 319.45,-587.93 327.887,-591.675 336.583,-594.516"/>
<polygon fill="midnightblue" stroke="midnightblue" points="203.127,-429.466 196.055,-421.578 196.664,-432.155 203.127,-429.466"/>
</g>
<!-- Node45 -->
<g id="node89" class="node"><title>Node45</title>
<a xlink:href="classCTypeElement.html" target="_top" xlink:title="CTypeElement">
<polygon fill="white" stroke="black" points="365,-552.5 365,-573.5 449,-573.5 449,-552.5 365,-552.5"/>
<text text-anchor="middle" x="407" y="-560.5" font-family="Verdana" font-size="10.00">CTypeElement</text>
</a>
</g>
<!-- Node9&#45;&gt;Node45 -->
<g id="edge88" class="edge"><title>Node9&#45;&gt;Node45</title>
<path fill="none" stroke="midnightblue" d="M215.543,-427.644C259.963,-459.048 354.984,-526.226 391.898,-552.323"/>
<polygon fill="midnightblue" stroke="midnightblue" points="217.304,-424.603 207.118,-421.688 213.263,-430.319 217.304,-424.603"/>
</g>
<!-- Node11 -->
<g id="node18" class="node"><title>Node11</title>
<a xlink:href="classCConfigurableDomain.html" target="_top" xlink:title="CConfigurableDomain">
<polygon fill="white" stroke="black" points="567.5,-400.5 567.5,-421.5 688.5,-421.5 688.5,-400.5 567.5,-400.5"/>
<text text-anchor="middle" x="628" y="-408.5" font-family="Verdana" font-size="10.00">CConfigurableDomain</text>
</a>
</g>
<!-- Node10&#45;&gt;Node11 -->
<g id="edge14" class="edge"><title>Node10&#45;&gt;Node11</title>
<path fill="none" stroke="midnightblue" d="M491.502,-411C516.714,-411 543.841,-411 567.217,-411"/>
<polygon fill="midnightblue" stroke="midnightblue" points="491.205,-407.5 481.205,-411 491.205,-414.5 491.205,-407.5"/>
</g>
<!-- Node12 -->
<g id="node20" class="node"><title>Node12</title>
<a xlink:href="classCConfigurableDomains.html" target="_top" xlink:title="CConfigurableDomains">
<polygon fill="white" stroke="black" points="565,-360.5 565,-381.5 691,-381.5 691,-360.5 565,-360.5"/>
<text text-anchor="middle" x="628" y="-368.5" font-family="Verdana" font-size="10.00">CConfigurableDomains</text>
</a>
</g>
<!-- Node10&#45;&gt;Node12 -->
<g id="edge16" class="edge"><title>Node10&#45;&gt;Node12</title>
<path fill="none" stroke="midnightblue" d="M475.149,-398.665C505.498,-393.172 540.871,-386.77 569.939,-381.509"/>
<polygon fill="midnightblue" stroke="midnightblue" points="474.282,-395.265 465.065,-400.49 475.529,-402.153 474.282,-395.265"/>
</g>
<!-- Node13 -->
<g id="node22" class="node"><title>Node13</title>
<a xlink:href="classCDomainConfiguration.html" target="_top" xlink:title="CDomainConfiguration">
<polygon fill="white" stroke="black" points="565.5,-320.5 565.5,-341.5 690.5,-341.5 690.5,-320.5 565.5,-320.5"/>
<text text-anchor="middle" x="628" y="-328.5" font-family="Verdana" font-size="10.00">CDomainConfiguration</text>
</a>
</g>
<!-- Node10&#45;&gt;Node13 -->
<g id="edge18" class="edge"><title>Node10&#45;&gt;Node13</title>
<path fill="none" stroke="midnightblue" d="M490.392,-396.737C494.409,-395.034 498.303,-393.13 502,-391 522.723,-379.059 517.344,-363.057 538,-351 546.294,-346.159 555.644,-342.488 565.1,-339.706"/>
<polygon fill="midnightblue" stroke="midnightblue" points="488.947,-393.541 480.833,-400.354 491.424,-400.088 488.947,-393.541"/>
</g>
<!-- Node16 -->
<g id="node28" class="node"><title>Node16</title>
<a xlink:href="classCConfigurableElementWithMapping.html" target="_top" xlink:title="Base class for all Configurable Elements that can have a Mapping attribute. ">
<polygon fill="white" stroke="black" points="556.5,-480 556.5,-514 699.5,-514 699.5,-480 556.5,-480"/>
<text text-anchor="start" x="564.5" y="-501" font-family="Verdana" font-size="10.00">CConfigurableElementWith</text>
<text text-anchor="middle" x="628" y="-488" font-family="Verdana" font-size="10.00">Mapping</text>
</a>
</g>
<!-- Node15&#45;&gt;Node16 -->
<g id="edge24" class="edge"><title>Node15&#45;&gt;Node16</title>
<path fill="none" stroke="midnightblue" d="M467.546,-463.602C494.95,-469.306 527.546,-476.091 556.177,-482.05"/>
<polygon fill="midnightblue" stroke="midnightblue" points="468.205,-460.165 457.702,-461.553 466.779,-467.018 468.205,-460.165"/>
</g>
<!-- Node26 -->
<g id="node49" class="node"><title>Node26</title>
<a xlink:href="classCSystemClass.html" target="_top" xlink:title="CSystemClass">
<polygon fill="white" stroke="black" points="585,-440.5 585,-461.5 671,-461.5 671,-440.5 585,-440.5"/>
<text text-anchor="middle" x="628" y="-448.5" font-family="Verdana" font-size="10.00">CSystemClass</text>
</a>
</g>
<!-- Node15&#45;&gt;Node26 -->
<g id="edge46" class="edge"><title>Node15&#45;&gt;Node26</title>
<path fill="none" stroke="midnightblue" d="M478.75,-451C513.801,-451 554.807,-451 584.959,-451"/>
<polygon fill="midnightblue" stroke="midnightblue" points="478.561,-447.5 468.561,-451 478.561,-454.5 478.561,-447.5"/>
</g>
<!-- Node16&#45;&gt;Node2 -->
<g id="edge44" class="edge"><title>Node16&#45;&gt;Node2</title>
<path fill="none" stroke="midnightblue" d="M709.234,-517.961C712.258,-519.524 715.193,-521.202 718,-523 776.217,-560.295 822.635,-632.123 838.819,-659.263"/>
<polygon fill="midnightblue" stroke="midnightblue" points="710.473,-514.676 699.933,-513.602 707.502,-521.015 710.473,-514.676"/>
</g>
<!-- Node17 -->
<g id="node30" class="node"><title>Node17</title>
<a xlink:href="classCInstanceConfigurableElement.html" target="_top" xlink:title="CInstanceConfigurableElement">
<polygon fill="white" stroke="black" points="763,-486.5 763,-507.5 927,-507.5 927,-486.5 763,-486.5"/>
<text text-anchor="middle" x="845" y="-494.5" font-family="Verdana" font-size="10.00">CInstanceConfigurableElement</text>
</a>
</g>
<!-- Node16&#45;&gt;Node17 -->
<g id="edge26" class="edge"><title>Node16&#45;&gt;Node17</title>
<path fill="none" stroke="midnightblue" d="M709.762,-497C727.145,-497 745.504,-497 762.899,-497"/>
<polygon fill="midnightblue" stroke="midnightblue" points="709.655,-493.5 699.655,-497 709.655,-500.5 709.655,-493.5"/>
</g>
<!-- Node18 -->
<g id="node32" class="node"><title>Node18</title>
<a xlink:href="classCBaseParameter.html" target="_top" xlink:title="CBaseParameter">
<polygon fill="white" stroke="black" points="979,-466.5 979,-487.5 1077,-487.5 1077,-466.5 979,-466.5"/>
<text text-anchor="middle" x="1028" y="-474.5" font-family="Verdana" font-size="10.00">CBaseParameter</text>
</a>
</g>
<!-- Node17&#45;&gt;Node18 -->
<g id="edge28" class="edge"><title>Node17&#45;&gt;Node18</title>
<path fill="none" stroke="midnightblue" d="M937.106,-486.934C951.532,-485.357 965.939,-483.783 978.891,-482.367"/>
<polygon fill="midnightblue" stroke="midnightblue" points="936.693,-483.458 927.132,-488.024 937.453,-490.417 936.693,-483.458"/>
</g>
<!-- Node23 -->
<g id="node42" class="node"><title>Node23</title>
<a xlink:href="classCBitParameterBlock.html" target="_top" xlink:title="CBitParameterBlock">
<polygon fill="white" stroke="black" points="972,-426.5 972,-447.5 1084,-447.5 1084,-426.5 972,-426.5"/>
<text text-anchor="middle" x="1028" y="-434.5" font-family="Verdana" font-size="10.00">CBitParameterBlock</text>
</a>
</g>
<!-- Node17&#45;&gt;Node23 -->
<g id="edge38" class="edge"><title>Node17&#45;&gt;Node23</title>
<path fill="none" stroke="midnightblue" d="M887.129,-483.187C920.182,-472.35 965.504,-457.491 995.72,-447.584"/>
<polygon fill="midnightblue" stroke="midnightblue" points="885.707,-479.97 877.295,-486.411 887.888,-486.622 885.707,-479.97"/>
</g>
<!-- Node24 -->
<g id="node44" class="node"><title>Node24</title>
<a xlink:href="classCComponent.html" target="_top" xlink:title="CComponent">
<polygon fill="white" stroke="black" points="988,-546.5 988,-567.5 1068,-567.5 1068,-546.5 988,-546.5"/>
<text text-anchor="middle" x="1028" y="-554.5" font-family="Verdana" font-size="10.00">CComponent</text>
</a>
</g>
<!-- Node17&#45;&gt;Node24 -->
<g id="edge40" class="edge"><title>Node17&#45;&gt;Node24</title>
<path fill="none" stroke="midnightblue" d="M887.129,-510.813C920.182,-521.65 965.504,-536.509 995.72,-546.416"/>
<polygon fill="midnightblue" stroke="midnightblue" points="887.888,-507.378 877.295,-507.589 885.707,-514.03 887.888,-507.378"/>
</g>
<!-- Node25 -->
<g id="node46" class="node"><title>Node25</title>
<a xlink:href="classCParameterBlock.html" target="_top" xlink:title="CParameterBlock">
<polygon fill="white" stroke="black" points="978.5,-506.5 978.5,-527.5 1077.5,-527.5 1077.5,-506.5 978.5,-506.5"/>
<text text-anchor="middle" x="1028" y="-514.5" font-family="Verdana" font-size="10.00">CParameterBlock</text>
</a>
</g>
<!-- Node17&#45;&gt;Node25 -->
<g id="edge42" class="edge"><title>Node17&#45;&gt;Node25</title>
<path fill="none" stroke="midnightblue" d="M937.41,-507.099C951.544,-508.644 965.649,-510.186 978.376,-511.577"/>
<polygon fill="midnightblue" stroke="midnightblue" points="937.453,-503.583 927.132,-505.976 936.693,-510.542 937.453,-503.583"/>
</g>
<!-- Node19 -->
<g id="node34" class="node"><title>Node19</title>
<a xlink:href="classCBitParameter.html" target="_top" xlink:title="CBitParameter">
<polygon fill="white" stroke="black" points="1128,-506.5 1128,-527.5 1214,-527.5 1214,-506.5 1128,-506.5"/>
<text text-anchor="middle" x="1171" y="-514.5" font-family="Verdana" font-size="10.00">CBitParameter</text>
</a>
</g>
<!-- Node18&#45;&gt;Node19 -->
<g id="edge30" class="edge"><title>Node18&#45;&gt;Node19</title>
<path fill="none" stroke="midnightblue" d="M1075.42,-490.263C1094.19,-495.515 1115.47,-501.468 1133.18,-506.422"/>
<polygon fill="midnightblue" stroke="midnightblue" points="1076.14,-486.833 1065.57,-487.51 1074.26,-493.574 1076.14,-486.833"/>
</g>
<!-- Node20 -->
<g id="node36" class="node"><title>Node20</title>
<a xlink:href="classCParameter.html" target="_top" xlink:title="CParameter">
<polygon fill="white" stroke="black" points="1134,-466.5 1134,-487.5 1208,-487.5 1208,-466.5 1134,-466.5"/>
<text text-anchor="middle" x="1171" y="-474.5" font-family="Verdana" font-size="10.00">CParameter</text>
</a>
</g>
<!-- Node18&#45;&gt;Node20 -->
<g id="edge32" class="edge"><title>Node18&#45;&gt;Node20</title>
<path fill="none" stroke="midnightblue" d="M1087.41,-477C1103.16,-477 1119.71,-477 1133.9,-477"/>
<polygon fill="midnightblue" stroke="midnightblue" points="1087.21,-473.5 1077.21,-477 1087.21,-480.5 1087.21,-473.5"/>
</g>
<!-- Node22 -->
<g id="node40" class="node"><title>Node22</title>
<a xlink:href="classCStringParameter.html" target="_top" xlink:title="CStringParameter">
<polygon fill="white" stroke="black" points="1120,-426.5 1120,-447.5 1222,-447.5 1222,-426.5 1120,-426.5"/>
<text text-anchor="middle" x="1171" y="-434.5" font-family="Verdana" font-size="10.00">CStringParameter</text>
</a>
</g>
<!-- Node18&#45;&gt;Node22 -->
<g id="edge36" class="edge"><title>Node18&#45;&gt;Node22</title>
<path fill="none" stroke="midnightblue" d="M1075.42,-463.737C1094.19,-458.485 1115.47,-452.532 1133.18,-447.578"/>
<polygon fill="midnightblue" stroke="midnightblue" points="1074.26,-460.426 1065.57,-466.49 1076.14,-467.167 1074.26,-460.426"/>
</g>
<!-- Node21 -->
<g id="node38" class="node"><title>Node21</title>
<a xlink:href="classCArrayParameter.html" target="_top" xlink:title="CArrayParameter">
<polygon fill="white" stroke="black" points="1258.5,-466.5 1258.5,-487.5 1357.5,-487.5 1357.5,-466.5 1258.5,-466.5"/>
<text text-anchor="middle" x="1308" y="-474.5" font-family="Verdana" font-size="10.00">CArrayParameter</text>
</a>
</g>
<!-- Node20&#45;&gt;Node21 -->
<g id="edge34" class="edge"><title>Node20&#45;&gt;Node21</title>
<path fill="none" stroke="midnightblue" d="M1218.18,-477C1231.12,-477 1245.2,-477 1258.29,-477"/>
<polygon fill="midnightblue" stroke="midnightblue" points="1218.07,-473.5 1208.07,-477 1218.07,-480.5 1218.07,-473.5"/>
</g>
<!-- Node29 -->
<g id="node55" class="node"><title>Node29</title>
<a xlink:href="classCFrameworkConfigurationGroup.html" target="_top" xlink:title="CFrameworkConfigurationGroup">
<polygon fill="white" stroke="black" points="544,-240.5 544,-261.5 712,-261.5 712,-240.5 544,-240.5"/>
<text text-anchor="middle" x="628" y="-248.5" font-family="Verdana" font-size="10.00">CFrameworkConfigurationGroup</text>
</a>
</g>
<!-- Node28&#45;&gt;Node29 -->
<g id="edge52" class="edge"><title>Node28&#45;&gt;Node29</title>
<path fill="none" stroke="midnightblue" d="M458.662,-266.325C483.934,-264.038 515.002,-261.226 543.597,-258.638"/>
<polygon fill="midnightblue" stroke="midnightblue" points="458.212,-262.851 448.568,-267.238 458.843,-269.823 458.212,-262.851"/>
</g>
<!-- Node30 -->
<g id="node57" class="node"><title>Node30</title>
<a xlink:href="classCFrameworkConfigurationLocation.html" target="_top" xlink:title="CFrameworkConfigurationLocation">
<polygon fill="white" stroke="black" points="538.5,-200.5 538.5,-221.5 717.5,-221.5 717.5,-200.5 538.5,-200.5"/>
<text text-anchor="middle" x="628" y="-208.5" font-family="Verdana" font-size="10.00">CFrameworkConfigurationLocation</text>
</a>
</g>
<!-- Node28&#45;&gt;Node30 -->
<g id="edge54" class="edge"><title>Node28&#45;&gt;Node30</title>
<path fill="none" stroke="midnightblue" d="M459.025,-262.972C473.208,-259.999 488.404,-256.076 502,-251 519.147,-244.599 520.889,-237.497 538,-231 547.876,-227.25 558.642,-224.104 569.182,-221.501"/>
<polygon fill="midnightblue" stroke="midnightblue" points="458.045,-259.598 448.914,-264.971 459.403,-266.465 458.045,-259.598"/>
</g>
<!-- Node31 -->
<g id="node59" class="node"><title>Node31</title>
<a xlink:href="classCPluginLocation.html" target="_top" xlink:title="CPluginLocation">
<polygon fill="white" stroke="black" points="582,-160.5 582,-181.5 674,-181.5 674,-160.5 582,-160.5"/>
<text text-anchor="middle" x="628" y="-168.5" font-family="Verdana" font-size="10.00">CPluginLocation</text>
</a>
</g>
<!-- Node28&#45;&gt;Node31 -->
<g id="edge56" class="edge"><title>Node28&#45;&gt;Node31</title>
<path fill="none" stroke="midnightblue" d="M458.953,-267.875C473.892,-264.998 489.508,-259.898 502,-251 527.33,-232.958 512.772,-209.184 538,-191 550.595,-181.922 566.567,-176.852 581.548,-174.056"/>
<polygon fill="midnightblue" stroke="midnightblue" points="458.074,-264.471 448.765,-269.531 459.197,-271.381 458.074,-264.471"/>
</g>
<!-- Node32 -->
<g id="node61" class="node"><title>Node32</title>
<a xlink:href="classCSubsystemPlugins.html" target="_top" xlink:title="CSubsystemPlugins">
<polygon fill="white" stroke="black" points="572.5,-120.5 572.5,-141.5 683.5,-141.5 683.5,-120.5 572.5,-120.5"/>
<text text-anchor="middle" x="628" y="-128.5" font-family="Verdana" font-size="10.00">CSubsystemPlugins</text>
</a>
</g>
<!-- Node28&#45;&gt;Node32 -->
<g id="edge58" class="edge"><title>Node28&#45;&gt;Node32</title>
<path fill="none" stroke="midnightblue" d="M458.865,-269.565C474.233,-266.807 490.113,-261.35 502,-251 537.626,-219.982 502.548,-182.217 538,-151 547.49,-142.644 559.694,-137.54 572.032,-134.478"/>
<polygon fill="midnightblue" stroke="midnightblue" points="458.28,-266.113 448.886,-271.012 459.285,-273.041 458.28,-266.113"/>
</g>
<!-- Node33 -->
<g id="node63" class="node"><title>Node33</title>
<a xlink:href="classCXmlFileIncluderElement.html" target="_top" xlink:title="CXmlFileIncluderElement">
<polygon fill="white" stroke="black" points="561,-280.5 561,-301.5 695,-301.5 695,-280.5 561,-280.5"/>
<text text-anchor="middle" x="628" y="-288.5" font-family="Verdana" font-size="10.00">CXmlFileIncluderElement</text>
</a>
</g>
<!-- Node28&#45;&gt;Node33 -->
<g id="edge60" class="edge"><title>Node28&#45;&gt;Node33</title>
<path fill="none" stroke="midnightblue" d="M458.574,-275.667C489.099,-278.43 528.104,-281.96 560.992,-284.936"/>
<polygon fill="midnightblue" stroke="midnightblue" points="458.843,-272.177 448.568,-274.762 458.212,-279.149 458.843,-272.177"/>
</g>
<!-- Node35 -->
<g id="node67" class="node"><title>Node35</title>
<a xlink:href="classCLinearParameterAdaptation.html" target="_top" xlink:title="CLinearParameterAdaptation">
<polygon fill="white" stroke="black" points="550.5,-80.5 550.5,-101.5 705.5,-101.5 705.5,-80.5 550.5,-80.5"/>
<text text-anchor="middle" x="628" y="-88.5" font-family="Verdana" font-size="10.00">CLinearParameterAdaptation</text>
</a>
</g>
<!-- Node34&#45;&gt;Node35 -->
<g id="edge64" class="edge"><title>Node34&#45;&gt;Node35</title>
<path fill="none" stroke="midnightblue" d="M480.048,-223.798C488.053,-220.721 495.604,-216.568 502,-211 537.626,-179.982 502.548,-142.217 538,-111 542.205,-107.298 546.942,-104.234 551.987,-101.703"/>
<polygon fill="midnightblue" stroke="midnightblue" points="478.893,-220.493 470.484,-226.938 481.077,-227.144 478.893,-220.493"/>
</g>
<!-- Node36 -->
<g id="node69" class="node"><title>Node36</title>
<a xlink:href="classCLogarithmicParameterAdaptation.html" target="_top" xlink:title="This class is used to perform a logarithmic adapation of type: (slopeNumerator / slopeDenominator) * ...">
<polygon fill="white" stroke="black" points="754,-80.5 754,-101.5 936,-101.5 936,-80.5 754,-80.5"/>
<text text-anchor="middle" x="845" y="-88.5" font-family="Verdana" font-size="10.00">CLogarithmicParameterAdaptation</text>
</a>
</g>
<!-- Node35&#45;&gt;Node36 -->
<g id="edge66" class="edge"><title>Node35&#45;&gt;Node36</title>
<path fill="none" stroke="midnightblue" d="M716.062,-91C728.484,-91 741.278,-91 753.759,-91"/>
<polygon fill="midnightblue" stroke="midnightblue" points="715.729,-87.5001 705.729,-91 715.729,-94.5001 715.729,-87.5001"/>
</g>
<!-- Node40 -->
<g id="node77" class="node"><title>Node40</title>
<a xlink:href="classCCompoundRule.html" target="_top" xlink:title="CCompoundRule">
<polygon fill="white" stroke="black" points="580.5,-40.5 580.5,-61.5 675.5,-61.5 675.5,-40.5 580.5,-40.5"/>
<text text-anchor="middle" x="628" y="-48.5" font-family="Verdana" font-size="10.00">CCompoundRule</text>
</a>
</g>
<!-- Node39&#45;&gt;Node40 -->
<g id="edge74" class="edge"><title>Node39&#45;&gt;Node40</title>
<path fill="none" stroke="midnightblue" d="M438.822,-51C475.933,-51 537.645,-51 580.448,-51"/>
<polygon fill="midnightblue" stroke="midnightblue" points="438.593,-47.5001 428.593,-51 438.593,-54.5001 438.593,-47.5001"/>
</g>
<!-- Node41 -->
<g id="node79" class="node"><title>Node41</title>
<a xlink:href="classCSelectionCriterionRule.html" target="_top" xlink:title="CSelectionCriterionRule">
<polygon fill="white" stroke="black" points="564,-0.5 564,-21.5 692,-21.5 692,-0.5 564,-0.5"/>
<text text-anchor="middle" x="628" y="-8.5" font-family="Verdana" font-size="10.00">CSelectionCriterionRule</text>
</a>
</g>
<!-- Node39&#45;&gt;Node41 -->
<g id="edge76" class="edge"><title>Node39&#45;&gt;Node41</title>
<path fill="none" stroke="midnightblue" d="M438.446,-45.3084C472.49,-39.1466 527.548,-29.1814 569.576,-21.5745"/>
<polygon fill="midnightblue" stroke="midnightblue" points="437.81,-41.8667 428.593,-47.0918 439.056,-48.7547 437.81,-41.8667"/>
</g>
<!-- Node46 -->
<g id="node91" class="node"><title>Node46</title>
<a xlink:href="classCBitParameterBlockType.html" target="_top" xlink:title="CBitParameterBlockType">
<polygon fill="white" stroke="black" points="561.5,-652.5 561.5,-673.5 694.5,-673.5 694.5,-652.5 561.5,-652.5"/>
<text text-anchor="middle" x="628" y="-660.5" font-family="Verdana" font-size="10.00">CBitParameterBlockType</text>
</a>
</g>
<!-- Node45&#45;&gt;Node46 -->
<g id="edge90" class="edge"><title>Node45&#45;&gt;Node46</title>
<path fill="none" stroke="midnightblue" d="M459.353,-566.203C474.171,-569.094 489.619,-574.181 502,-583 527.33,-601.042 512.772,-624.816 538,-643 545.012,-648.054 553.07,-651.865 561.421,-654.734"/>
<polygon fill="midnightblue" stroke="midnightblue" points="459.678,-562.709 449.241,-564.534 458.538,-569.616 459.678,-562.709"/>
</g>
<!-- Node47 -->
<g id="node93" class="node"><title>Node47</title>
<a xlink:href="classCBitParameterType.html" target="_top" xlink:title="CBitParameterType">
<polygon fill="white" stroke="black" points="574.5,-612.5 574.5,-633.5 681.5,-633.5 681.5,-612.5 574.5,-612.5"/>
<text text-anchor="middle" x="628" y="-620.5" font-family="Verdana" font-size="10.00">CBitParameterType</text>
</a>
</g>
<!-- Node45&#45;&gt;Node47 -->
<g id="edge92" class="edge"><title>Node45&#45;&gt;Node47</title>
<path fill="none" stroke="midnightblue" d="M459.423,-571.112C473.492,-574.074 488.531,-577.972 502,-583 519.147,-589.401 520.889,-596.503 538,-603 549.522,-607.375 562.255,-610.927 574.428,-613.757"/>
<polygon fill="midnightblue" stroke="midnightblue" points="459.877,-567.634 449.386,-569.117 458.512,-574.499 459.877,-567.634"/>
</g>
<!-- Node48 -->
<g id="node95" class="node"><title>Node48</title>
<a xlink:href="classCComponentInstance.html" target="_top" xlink:title="CComponentInstance">
<polygon fill="white" stroke="black" points="568,-572.5 568,-593.5 688,-593.5 688,-572.5 568,-572.5"/>
<text text-anchor="middle" x="628" y="-580.5" font-family="Verdana" font-size="10.00">CComponentInstance</text>
</a>
</g>
<!-- Node45&#45;&gt;Node48 -->
<g id="edge94" class="edge"><title>Node45&#45;&gt;Node48</title>
<path fill="none" stroke="midnightblue" d="M459.297,-567.733C491.825,-570.676 533.77,-574.472 567.697,-577.543"/>
<polygon fill="midnightblue" stroke="midnightblue" points="459.363,-564.225 449.089,-566.809 458.732,-571.196 459.363,-564.225"/>
</g>
<!-- Node49 -->
<g id="node97" class="node"><title>Node49</title>
<a xlink:href="classCComponentType.html" target="_top" xlink:title="CComponentType">
<polygon fill="white" stroke="black" points="577.5,-532.5 577.5,-553.5 678.5,-553.5 678.5,-532.5 577.5,-532.5"/>
<text text-anchor="middle" x="628" y="-540.5" font-family="Verdana" font-size="10.00">CComponentType</text>
</a>
</g>
<!-- Node45&#45;&gt;Node49 -->
<g id="edge96" class="edge"><title>Node45&#45;&gt;Node49</title>
<path fill="none" stroke="midnightblue" d="M459.286,-558.268C494.909,-555.044 541.83,-550.798 577.145,-547.602"/>
<polygon fill="midnightblue" stroke="midnightblue" points="458.732,-554.804 449.089,-559.191 459.363,-561.775 458.732,-554.804"/>
</g>
<!-- Node50 -->
<g id="node99" class="node"><title>Node50</title>
<a xlink:href="classCInstanceDefinition.html" target="_top" xlink:title="CInstanceDefinition">
<polygon fill="white" stroke="black" points="573.5,-812.5 573.5,-833.5 682.5,-833.5 682.5,-812.5 573.5,-812.5"/>
<text text-anchor="middle" x="628" y="-820.5" font-family="Verdana" font-size="10.00">CInstanceDefinition</text>
</a>
</g>
<!-- Node45&#45;&gt;Node50 -->
<g id="edge98" class="edge"><title>Node45&#45;&gt;Node50</title>
<path fill="none" stroke="midnightblue" d="M459.258,-563.033C474.95,-565.667 490.919,-571.405 502,-583 570.454,-654.628 469.947,-730.991 538,-803 547.235,-812.772 560.099,-818.284 573.217,-821.28"/>
<polygon fill="midnightblue" stroke="midnightblue" points="459.405,-559.523 449.04,-561.72 458.513,-566.466 459.405,-559.523"/>
</g>
<!-- Node51 -->
<g id="node101" class="node"><title>Node51</title>
<a xlink:href="classCParameterBlockType.html" target="_top" xlink:title="CParameterBlockType">
<polygon fill="white" stroke="black" points="568,-772.5 568,-793.5 688,-793.5 688,-772.5 568,-772.5"/>
<text text-anchor="middle" x="628" y="-780.5" font-family="Verdana" font-size="10.00">CParameterBlockType</text>
</a>
</g>
<!-- Node45&#45;&gt;Node51 -->
<g id="edge100" class="edge"><title>Node45&#45;&gt;Node51</title>
<path fill="none" stroke="midnightblue" d="M459.424,-563.335C474.972,-566.013 490.814,-571.7 502,-583 559.397,-640.979 480.928,-704.701 538,-763 546.062,-771.235 556.708,-776.42 567.847,-779.619"/>
<polygon fill="midnightblue" stroke="midnightblue" points="459.677,-559.838 449.301,-561.982 458.749,-566.776 459.677,-559.838"/>
</g>
<!-- Node52 -->
<g id="node103" class="node"><title>Node52</title>
<a xlink:href="classCParameterType.html" target="_top" xlink:title="CParameterType">
<polygon fill="white" stroke="black" points="580.5,-852.5 580.5,-873.5 675.5,-873.5 675.5,-852.5 580.5,-852.5"/>
<text text-anchor="middle" x="628" y="-860.5" font-family="Verdana" font-size="10.00">CParameterType</text>
</a>
</g>
<!-- Node45&#45;&gt;Node52 -->
<g id="edge102" class="edge"><title>Node45&#45;&gt;Node52</title>
<path fill="none" stroke="midnightblue" d="M459.428,-562.873C475.131,-565.497 491.063,-571.27 502,-583 581.556,-668.322 458.921,-757.235 538,-843 548.742,-854.65 564.635,-860.28 580.089,-862.805"/>
<polygon fill="midnightblue" stroke="midnightblue" points="459.559,-559.361 449.197,-561.572 458.676,-566.305 459.559,-559.361"/>
</g>
<!-- Node57 -->
<g id="node113" class="node"><title>Node57</title>
<a xlink:href="classCStringParameterType.html" target="_top" xlink:title="CStringParameterType">
<polygon fill="white" stroke="black" points="566.5,-692.5 566.5,-713.5 689.5,-713.5 689.5,-692.5 566.5,-692.5"/>
<text text-anchor="middle" x="628" y="-700.5" font-family="Verdana" font-size="10.00">CStringParameterType</text>
</a>
</g>
<!-- Node45&#45;&gt;Node57 -->
<g id="edge112" class="edge"><title>Node45&#45;&gt;Node57</title>
<path fill="none" stroke="midnightblue" d="M459.269,-564.508C474.511,-567.289 490.217,-572.741 502,-583 537.626,-614.018 502.548,-651.783 538,-683 546.049,-690.087 556.049,-694.834 566.428,-697.981"/>
<polygon fill="midnightblue" stroke="midnightblue" points="459.77,-561.044 449.365,-563.043 458.745,-567.969 459.77,-561.044"/>
</g>
<!-- Node53 -->
<g id="node105" class="node"><title>Node53</title>
<a xlink:href="classCBooleanParameterType.html" target="_top" xlink:title="CBooleanParameterType">
<polygon fill="white" stroke="black" points="778,-832.5 778,-853.5 912,-853.5 912,-832.5 778,-832.5"/>
<text text-anchor="middle" x="845" y="-840.5" font-family="Verdana" font-size="10.00">CBooleanParameterType</text>
</a>
</g>
<!-- Node52&#45;&gt;Node53 -->
<g id="edge104" class="edge"><title>Node52&#45;&gt;Node53</title>
<path fill="none" stroke="midnightblue" d="M685.755,-857.677C714.043,-855.07 748.271,-851.915 777.733,-849.2"/>
<polygon fill="midnightblue" stroke="midnightblue" points="685.258,-854.208 675.622,-858.611 685.901,-861.178 685.258,-854.208"/>
</g>
<!-- Node54 -->
<g id="node107" class="node"><title>Node54</title>
<a xlink:href="classCEnumParameterType.html" target="_top" xlink:title="CEnumParameterType">
<polygon fill="white" stroke="black" points="784,-792.5 784,-813.5 906,-813.5 906,-792.5 784,-792.5"/>
<text text-anchor="middle" x="845" y="-800.5" font-family="Verdana" font-size="10.00">CEnumParameterType</text>
</a>
</g>
<!-- Node52&#45;&gt;Node54 -->
<g id="edge106" class="edge"><title>Node52&#45;&gt;Node54</title>
<path fill="none" stroke="midnightblue" d="M685.793,-852.751C696.659,-850.099 707.804,-846.872 718,-843 735.111,-836.503 736.881,-829.477 754,-823 763.834,-819.279 774.541,-816.159 785.043,-813.573"/>
<polygon fill="midnightblue" stroke="midnightblue" points="684.885,-849.369 675.928,-855.027 686.459,-856.189 684.885,-849.369"/>
</g>
<!-- Node55 -->
<g id="node109" class="node"><title>Node55</title>
<a xlink:href="classCFixedPointParameterType.html" target="_top" xlink:title="CFixedPointParameterType">
<polygon fill="white" stroke="black" points="773.5,-912.5 773.5,-933.5 916.5,-933.5 916.5,-912.5 773.5,-912.5"/>
<text text-anchor="middle" x="845" y="-920.5" font-family="Verdana" font-size="10.00">CFixedPointParameterType</text>
</a>
</g>
<!-- Node52&#45;&gt;Node55 -->
<g id="edge108" class="edge"><title>Node52&#45;&gt;Node55</title>
<path fill="none" stroke="midnightblue" d="M668.287,-876.82C692.884,-885 725.066,-895.245 754,-903 766.656,-906.392 780.413,-909.64 793.308,-912.495"/>
<polygon fill="midnightblue" stroke="midnightblue" points="669.174,-873.426 658.58,-873.569 666.95,-880.064 669.174,-873.426"/>
</g>
<!-- Node56 -->
<g id="node111" class="node"><title>Node56</title>
<a xlink:href="classCIntegerParameterType.html" target="_top" xlink:title="CIntegerParameterType">
<polygon fill="white" stroke="black" points="781,-872.5 781,-893.5 909,-893.5 909,-872.5 781,-872.5"/>
<text text-anchor="middle" x="845" y="-880.5" font-family="Verdana" font-size="10.00">CIntegerParameterType</text>
</a>
</g>
<!-- Node52&#45;&gt;Node56 -->
<g id="edge110" class="edge"><title>Node52&#45;&gt;Node56</title>
<path fill="none" stroke="midnightblue" d="M685.676,-868.316C714.905,-871.01 750.492,-874.29 780.612,-877.066"/>
<polygon fill="midnightblue" stroke="midnightblue" points="685.901,-864.822 675.622,-867.389 685.258,-871.792 685.901,-864.822"/>
</g>
<!-- Node59 -->
<g id="node116" class="node"><title>Node59</title>
<polygon fill="white" stroke="#bfbfbf" points="0.5,-400.5 0.5,-421.5 71.5,-421.5 71.5,-400.5 0.5,-400.5"/>
<text text-anchor="middle" x="36" y="-408.5" font-family="Verdana" font-size="10.00">IXmlSource</text>
</g>
<!-- Node59&#45;&gt;Node9 -->
<g id="edge116" class="edge"><title>Node59&#45;&gt;Node9</title>
<path fill="none" stroke="midnightblue" d="M81.8756,-411C107.112,-411 137.785,-411 160.344,-411"/>
<polygon fill="midnightblue" stroke="midnightblue" points="81.7896,-407.5 71.7896,-411 81.7895,-414.5 81.7896,-407.5"/>
</g>
</g>
</svg>
