<?xml version="1.0" encoding="UTF-8" standalone="no"?>
<!DOCTYPE svg PUBLIC "-//W3C//DTD SVG 1.1//EN"
 "http://www.w3.org/Graphics/SVG/1.1/DTD/svg11.dtd">
<!-- Generated by graphviz version 2.26.3 (20100126.1600)
 -->
<!-- Title: Graphical Class Hierarchy Pages: 1 -->
<svg width="472pt" height="108pt"
 viewBox="0.00 0.00 472.00 108.00" xmlns="http://www.w3.org/2000/svg" xmlns:xlink="http://www.w3.org/1999/xlink">
<g id="graph1" class="graph" transform="scale(1 1) rotate(0) translate(4 104)">
<title>Graphical Class Hierarchy</title>
<polygon fill="white" stroke="white" points="-4,5 -4,-104 469,-104 469,5 -4,5"/>
<!-- Node1 -->
<g id="node1" class="node"><title>Node1</title>
<a xlink:href="classCElementLibrary.html" target="_top" xlink:title="CElementLibrary">
<polygon fill="white" stroke="black" points="0.5,-42.5 0.5,-63.5 95.5,-63.5 95.5,-42.5 0.5,-42.5"/>
<text text-anchor="middle" x="48" y="-50.5" font-family="Verdana" font-size="10.00">CElementLibrary</text>
</a>
</g>
<!-- Node2 -->
<g id="node3" class="node"><title>Node2</title>
<a xlink:href="classCDefaultElementLibrary.html" target="_top" xlink:title="Factory that creates an element given an xml element. ">
<polygon fill="white" stroke="black" points="148.5,-66 148.5,-100 301.5,-100 301.5,-66 148.5,-66"/>
<text text-anchor="start" x="156.5" y="-87" font-family="Verdana" font-size="10.00">CDefaultElementLibrary</text>
<text text-anchor="middle" x="225" y="-74" font-family="Verdana" font-size="10.00">&lt; CDefaultElementBuilder &gt;</text>
</a>
</g>
<!-- Node1&#45;&gt;Node2 -->
<g id="edge2" class="edge"><title>Node1&#45;&gt;Node2</title>
<path fill="none" stroke="midnightblue" d="M106.017,-62.8334C119.558,-65.1285 134.184,-67.6074 148.393,-70.0157"/>
<polygon fill="midnightblue" stroke="midnightblue" points="106.343,-59.3388 95.8987,-61.1184 105.173,-66.2404 106.343,-59.3388"/>
</g>
<!-- Node3 -->
<g id="node5" class="node"><title>Node3</title>
<a xlink:href="classCDefaultElementLibrary.html" target="_top" xlink:title="CDefaultElementLibrary\l\&lt; TNamedElementBuilderTemplate\l\&lt; CVirtualSubsystem \&gt; \&gt;">
<polygon fill="white" stroke="black" points="132.5,-0.5 132.5,-47.5 317.5,-47.5 317.5,-0.5 132.5,-0.5"/>
<text text-anchor="start" x="140.5" y="-34.5" font-family="Verdana" font-size="10.00">CDefaultElementLibrary</text>
<text text-anchor="start" x="140.5" y="-21.5" font-family="Verdana" font-size="10.00">&lt; TNamedElementBuilderTemplate</text>
<text text-anchor="middle" x="225" y="-8.5" font-family="Verdana" font-size="10.00">&lt; CVirtualSubsystem &gt; &gt;</text>
</a>
</g>
<!-- Node1&#45;&gt;Node3 -->
<g id="edge4" class="edge"><title>Node1&#45;&gt;Node3</title>
<path fill="none" stroke="midnightblue" d="M106.015,-43.4948C114.502,-42.1042 123.415,-40.6439 132.384,-39.1743"/>
<polygon fill="midnightblue" stroke="midnightblue" points="105.201,-40.0813 95.8987,-45.1522 106.333,-46.9892 105.201,-40.0813"/>
</g>
<!-- Node4 -->
<g id="node7" class="node"><title>Node4</title>
<a xlink:href="classCSubsystemLibrary.html" target="_top" xlink:title="CSubsystemLibrary">
<polygon fill="white" stroke="black" points="354,-13.5 354,-34.5 464,-34.5 464,-13.5 354,-13.5"/>
<text text-anchor="middle" x="409" y="-21.5" font-family="Verdana" font-size="10.00">CSubsystemLibrary</text>
</a>
</g>
<!-- Node3&#45;&gt;Node4 -->
<g id="edge6" class="edge"><title>Node3&#45;&gt;Node4</title>
<path fill="none" stroke="midnightblue" d="M327.649,-24C336.568,-24 345.352,-24 353.659,-24"/>
<polygon fill="midnightblue" stroke="midnightblue" points="327.539,-20.5001 317.539,-24 327.539,-27.5001 327.539,-20.5001"/>
</g>
</g>
</svg>
