<?xml version="1.0" encoding="UTF-8" standalone="no"?>
<!DOCTYPE svg PUBLIC "-//W3C//DTD SVG 1.1//EN"
 "http://www.w3.org/Graphics/SVG/1.1/DTD/svg11.dtd">
<!-- Generated by graphviz version 2.26.3 (20100126.1600)
 -->
<!-- Title: Graphical Class Hierarchy Pages: 1 -->
<svg width="468pt" height="30pt"
 viewBox="0.00 0.00 468.00 30.00" xmlns="http://www.w3.org/2000/svg" xmlns:xlink="http://www.w3.org/1999/xlink">
<g id="graph1" class="graph" transform="scale(1 1) rotate(0) translate(4 26)">
<title>Graphical Class Hierarchy</title>
<polygon fill="white" stroke="white" points="-4,5 -4,-26 465,-26 465,5 -4,5"/>
<!-- Node1 -->
<g id="node1" class="node"><title>Node1</title>
<a xlink:href="classCErrorContext.html" target="_top" xlink:title="CErrorContext">
<polygon fill="white" stroke="black" points="0,-0.5 0,-21.5 84,-21.5 84,-0.5 0,-0.5"/>
<text text-anchor="middle" x="42" y="-8.5" font-family="Verdana" font-size="10.00">CErrorContext</text>
</a>
</g>
<!-- Node2 -->
<g id="node3" class="node"><title>Node2</title>
<a xlink:href="classCParameterAccessContext.html" target="_top" xlink:title="CParameterAccessContext">
<polygon fill="white" stroke="black" points="120.5,-0.5 120.5,-21.5 265.5,-21.5 265.5,-0.5 120.5,-0.5"/>
<text text-anchor="middle" x="193" y="-8.5" font-family="Verdana" font-size="10.00">CParameterAccessContext</text>
</a>
</g>
<!-- Node1&#45;&gt;Node2 -->
<g id="edge2" class="edge"><title>Node1&#45;&gt;Node2</title>
<path fill="none" stroke="midnightblue" d="M94.1032,-11C102.538,-11 111.404,-11 120.221,-11"/>
<polygon fill="midnightblue" stroke="midnightblue" points="94.062,-7.5001 84.0619,-11 94.0619,-14.5001 94.062,-7.5001"/>
</g>
<!-- Node3 -->
<g id="node5" class="node"><title>Node3</title>
<a xlink:href="classCConfigurationAccessContext.html" target="_top" xlink:title="CConfigurationAccessContext">
<polygon fill="white" stroke="black" points="302,-0.5 302,-21.5 460,-21.5 460,-0.5 302,-0.5"/>
<text text-anchor="middle" x="381" y="-8.5" font-family="Verdana" font-size="10.00">CConfigurationAccessContext</text>
</a>
</g>
<!-- Node2&#45;&gt;Node3 -->
<g id="edge4" class="edge"><title>Node2&#45;&gt;Node3</title>
<path fill="none" stroke="midnightblue" d="M275.807,-11C284.495,-11 293.313,-11 301.957,-11"/>
<polygon fill="midnightblue" stroke="midnightblue" points="275.686,-7.5001 265.686,-11 275.686,-14.5001 275.686,-7.5001"/>
</g>
</g>
</svg>
