<?xml version="1.0" encoding="UTF-8" standalone="no"?>
<!DOCTYPE svg PUBLIC "-//W3C//DTD SVG 1.1//EN"
 "http://www.w3.org/Graphics/SVG/1.1/DTD/svg11.dtd">
<!-- Generated by graphviz version 2.26.3 (20100126.1600)
 -->
<!-- Title: Graphical Class Hierarchy Pages: 1 -->
<svg width="314pt" height="278pt"
 viewBox="0.00 0.00 314.00 278.00" xmlns="http://www.w3.org/2000/svg" xmlns:xlink="http://www.w3.org/1999/xlink">
<g id="graph1" class="graph" transform="scale(1 1) rotate(0) translate(4 274)">
<title>Graphical Class Hierarchy</title>
<polygon fill="white" stroke="white" points="-4,5 -4,-274 311,-274 311,5 -4,5"/>
<!-- Node1 -->
<g id="node1" class="node"><title>Node1</title>
<a xlink:href="classCElementBuilder.html" target="_top" xlink:title="CElementBuilder">
<polygon fill="white" stroke="black" points="0,-136.5 0,-157.5 96,-157.5 96,-136.5 0,-136.5"/>
<text text-anchor="middle" x="48" y="-144.5" font-family="Verdana" font-size="10.00">CElementBuilder</text>
</a>
</g>
<!-- Node2 -->
<g id="node3" class="node"><title>Node2</title>
<a xlink:href="classCFileIncluderElementBuilder.html" target="_top" xlink:title="This is the XmlFileIncluderElement builder class. ">
<polygon fill="white" stroke="black" points="144.5,-248.5 144.5,-269.5 293.5,-269.5 293.5,-248.5 144.5,-248.5"/>
<text text-anchor="middle" x="219" y="-256.5" font-family="Verdana" font-size="10.00">CFileIncluderElementBuilder</text>
</a>
</g>
<!-- Node1&#45;&gt;Node2 -->
<g id="edge2" class="edge"><title>Node1&#45;&gt;Node2</title>
<path fill="none" stroke="midnightblue" d="M60.2501,-166.261C74.7597,-187.438 100.923,-220.858 132,-239 138.558,-242.829 145.794,-245.924 153.206,-248.427"/>
<polygon fill="midnightblue" stroke="midnightblue" points="63.0461,-164.145 54.5961,-157.753 57.2161,-168.019 63.0461,-164.145"/>
</g>
<!-- Node3 -->
<g id="node5" class="node"><title>Node3</title>
<a xlink:href="classCSubsystemElementBuilder.html" target="_top" xlink:title="CSubsystemElementBuilder">
<polygon fill="white" stroke="black" points="144,-208.5 144,-229.5 294,-229.5 294,-208.5 144,-208.5"/>
<text text-anchor="middle" x="219" y="-216.5" font-family="Verdana" font-size="10.00">CSubsystemElementBuilder</text>
</a>
</g>
<!-- Node1&#45;&gt;Node3 -->
<g id="edge4" class="edge"><title>Node1&#45;&gt;Node3</title>
<path fill="none" stroke="midnightblue" d="M70.1157,-163.508C86.4538,-174.982 109.648,-189.809 132,-199 141.173,-202.772 151.198,-205.908 161.074,-208.491"/>
<polygon fill="midnightblue" stroke="midnightblue" points="71.9584,-160.522 61.7933,-157.535 67.877,-166.209 71.9584,-160.522"/>
</g>
<!-- Node4 -->
<g id="node7" class="node"><title>Node4</title>
<a xlink:href="classTElementBuilderTemplate.html" target="_top" xlink:title="TElementBuilderTemplate\l\&lt; ElementType \&gt;">
<polygon fill="white" stroke="black" points="150,-156 150,-190 288,-190 288,-156 150,-156"/>
<text text-anchor="start" x="158" y="-177" font-family="Verdana" font-size="10.00">TElementBuilderTemplate</text>
<text text-anchor="middle" x="219" y="-164" font-family="Verdana" font-size="10.00">&lt; ElementType &gt;</text>
</a>
</g>
<!-- Node1&#45;&gt;Node4 -->
<g id="edge6" class="edge"><title>Node1&#45;&gt;Node4</title>
<path fill="none" stroke="midnightblue" d="M106.116,-155.836C120.191,-157.976 135.373,-160.285 149.899,-162.493"/>
<polygon fill="midnightblue" stroke="midnightblue" points="106.501,-152.355 96.0881,-154.312 105.448,-159.275 106.501,-152.355"/>
</g>
<!-- Node5 -->
<g id="node9" class="node"><title>Node5</title>
<a xlink:href="classTKindElementBuilderTemplate.html" target="_top" xlink:title="TKindElementBuilderTemplate\l\&lt; ElementType \&gt;">
<polygon fill="white" stroke="black" points="140,-104 140,-138 298,-138 298,-104 140,-104"/>
<text text-anchor="start" x="148" y="-125" font-family="Verdana" font-size="10.00">TKindElementBuilderTemplate</text>
<text text-anchor="middle" x="219" y="-112" font-family="Verdana" font-size="10.00">&lt; ElementType &gt;</text>
</a>
</g>
<!-- Node1&#45;&gt;Node5 -->
<g id="edge8" class="edge"><title>Node1&#45;&gt;Node5</title>
<path fill="none" stroke="midnightblue" d="M106.245,-138.144C117.074,-136.498 128.554,-134.752 139.884,-133.029"/>
<polygon fill="midnightblue" stroke="midnightblue" points="105.448,-134.725 96.0881,-139.688 106.501,-141.645 105.448,-134.725"/>
</g>
<!-- Node6 -->
<g id="node11" class="node"><title>Node6</title>
<a xlink:href="classTNamedElementBuilderTemplate.html" target="_top" xlink:title="TNamedElementBuilderTemplate\l\&lt; ElementType \&gt;">
<polygon fill="white" stroke="black" points="132.5,-52 132.5,-86 305.5,-86 305.5,-52 132.5,-52"/>
<text text-anchor="start" x="140.5" y="-73" font-family="Verdana" font-size="10.00">TNamedElementBuilderTemplate</text>
<text text-anchor="middle" x="219" y="-60" font-family="Verdana" font-size="10.00">&lt; ElementType &gt;</text>
</a>
</g>
<!-- Node1&#45;&gt;Node6 -->
<g id="edge10" class="edge"><title>Node1&#45;&gt;Node6</title>
<path fill="none" stroke="midnightblue" d="M70.8954,-130.52C87.2866,-119.309 110.22,-104.788 132,-95 139.189,-91.769 146.889,-88.8084 154.626,-86.1356"/>
<polygon fill="midnightblue" stroke="midnightblue" points="68.7185,-127.771 62.5112,-136.357 72.718,-133.516 68.7185,-127.771"/>
</g>
<!-- Node7 -->
<g id="node13" class="node"><title>Node7</title>
<a xlink:href="classTNamedElementBuilderTemplate.html" target="_top" xlink:title="TNamedElementBuilderTemplate\l\&lt; CVirtualSubsystem \&gt;">
<polygon fill="white" stroke="black" points="132.5,-0 132.5,-34 305.5,-34 305.5,-0 132.5,-0"/>
<text text-anchor="start" x="140.5" y="-21" font-family="Verdana" font-size="10.00">TNamedElementBuilderTemplate</text>
<text text-anchor="middle" x="219" y="-8" font-family="Verdana" font-size="10.00">&lt; CVirtualSubsystem &gt;</text>
</a>
</g>
<!-- Node1&#45;&gt;Node7 -->
<g id="edge12" class="edge"><title>Node1&#45;&gt;Node7</title>
<path fill="none" stroke="midnightblue" d="M58.6374,-127.689C72.5146,-104.262 98.9667,-65.1603 132,-43 136.975,-39.6627 142.389,-36.7433 148.004,-34.1913"/>
<polygon fill="midnightblue" stroke="midnightblue" points="55.5826,-125.98 53.6332,-136.394 61.6514,-129.469 55.5826,-125.98"/>
</g>
</g>
</svg>
