<?xml version="1.0" encoding="UTF-8" standalone="no"?>
<!DOCTYPE svg PUBLIC "-//W3C//DTD SVG 1.1//EN"
 "http://www.w3.org/Graphics/SVG/1.1/DTD/svg11.dtd">
<!-- Generated by graphviz version 2.26.3 (20100126.1600)
 -->
<!-- Title: parameter/InstanceConfigurableElement.h Pages: 1 -->
<svg width="2855pt" height="318pt"
 viewBox="0.00 0.00 2855.00 318.00" xmlns="http://www.w3.org/2000/svg" xmlns:xlink="http://www.w3.org/1999/xlink">
<g id="graph1" class="graph" transform="scale(1 1) rotate(0) translate(4 314)">
<title>parameter/InstanceConfigurableElement.h</title>
<polygon fill="white" stroke="white" points="-4,5 -4,-314 2852,-314 2852,5 -4,5"/>
<!-- Node1 -->
<g id="node1" class="node"><title>Node1</title>
<polygon fill="#bfbfbf" stroke="black" points="2045.5,-275 2045.5,-309 2216.5,-309 2216.5,-275 2045.5,-275"/>
<text text-anchor="start" x="2053.5" y="-296" font-family="Verdana" font-size="10.00">parameter/InstanceConfigurable</text>
<text text-anchor="middle" x="2131" y="-283" font-family="Verdana" font-size="10.00">Element.h</text>
</g>
<!-- Node2 -->
<g id="node3" class="node"><title>Node2</title>
<a xlink:href="BaseParameter_8h.html" target="_top" xlink:title="parameter/BaseParameter.h">
<polygon fill="white" stroke="black" points="1027.5,-209.5 1027.5,-230.5 1180.5,-230.5 1180.5,-209.5 1027.5,-209.5"/>
<text text-anchor="middle" x="1104" y="-217.5" font-family="Verdana" font-size="10.00">parameter/BaseParameter.h</text>
</a>
</g>
<!-- Node1&#45;&gt;Node2 -->
<g id="edge2" class="edge"><title>Node1&#45;&gt;Node2</title>
<path fill="none" stroke="midnightblue" d="M2035.18,-285.283C1832.76,-271.091 1365.1,-238.305 1180.72,-225.379"/>
<polygon fill="midnightblue" stroke="midnightblue" points="2034.98,-288.777 2045.2,-285.985 2035.47,-281.794 2034.98,-288.777"/>
</g>
<!-- Node19 -->
<g id="node38" class="node"><title>Node19</title>
<a xlink:href="BitParameterBlock_8h.html" target="_top" xlink:title="parameter/BitParameterBlock.h">
<polygon fill="white" stroke="black" points="1548,-209.5 1548,-230.5 1716,-230.5 1716,-209.5 1548,-209.5"/>
<text text-anchor="middle" x="1632" y="-217.5" font-family="Verdana" font-size="10.00">parameter/BitParameterBlock.h</text>
</a>
</g>
<!-- Node1&#45;&gt;Node19 -->
<g id="edge38" class="edge"><title>Node1&#45;&gt;Node19</title>
<path fill="none" stroke="midnightblue" d="M2035.18,-278.174C1938.78,-264.264 1792.24,-243.121 1704.92,-230.521"/>
<polygon fill="midnightblue" stroke="midnightblue" points="2034.82,-281.659 2045.22,-279.623 2035.82,-274.73 2034.82,-281.659"/>
</g>
<!-- Node22 -->
<g id="node45" class="node"><title>Node22</title>
<a xlink:href="Component_8h.html" target="_top" xlink:title="parameter/Component.h">
<polygon fill="white" stroke="black" points="1795,-209.5 1795,-230.5 1931,-230.5 1931,-209.5 1795,-209.5"/>
<text text-anchor="middle" x="1863" y="-217.5" font-family="Verdana" font-size="10.00">parameter/Component.h</text>
</a>
</g>
<!-- Node1&#45;&gt;Node22 -->
<g id="edge46" class="edge"><title>Node1&#45;&gt;Node22</title>
<path fill="none" stroke="midnightblue" d="M2057.67,-272.299C2007.55,-258.835 1943.09,-241.516 1902.39,-230.582"/>
<polygon fill="midnightblue" stroke="midnightblue" points="2056.92,-275.723 2067.49,-274.937 2058.74,-268.962 2056.92,-275.723"/>
</g>
<!-- Node28 -->
<g id="node58" class="node"><title>Node28</title>
<a xlink:href="FormattedSubsystemObject_8cpp.html" target="_top" xlink:title="parameter/FormattedSubsystem\lObject.cpp">
<polygon fill="white" stroke="black" points="1948.5,-203 1948.5,-237 2123.5,-237 2123.5,-203 1948.5,-203"/>
<text text-anchor="start" x="1956.5" y="-224" font-family="Verdana" font-size="10.00">parameter/FormattedSubsystem</text>
<text text-anchor="middle" x="2036" y="-211" font-family="Verdana" font-size="10.00">Object.cpp</text>
</a>
</g>
<!-- Node1&#45;&gt;Node28 -->
<g id="edge60" class="edge"><title>Node1&#45;&gt;Node28</title>
<path fill="none" stroke="midnightblue" d="M2100.37,-268.784C2086.82,-258.514 2071.16,-246.648 2058.68,-237.19"/>
<polygon fill="midnightblue" stroke="midnightblue" points="2098.4,-271.686 2108.49,-274.937 2102.63,-266.107 2098.4,-271.686"/>
</g>
<!-- Node29 -->
<g id="node60" class="node"><title>Node29</title>
<a xlink:href="InstanceConfigurableElement_8cpp.html" target="_top" xlink:title="parameter/InstanceConfigurable\lElement.cpp">
<polygon fill="white" stroke="black" points="2140.5,-203 2140.5,-237 2311.5,-237 2311.5,-203 2140.5,-203"/>
<text text-anchor="start" x="2148.5" y="-224" font-family="Verdana" font-size="10.00">parameter/InstanceConfigurable</text>
<text text-anchor="middle" x="2226" y="-211" font-family="Verdana" font-size="10.00">Element.cpp</text>
</a>
</g>
<!-- Node1&#45;&gt;Node29 -->
<g id="edge62" class="edge"><title>Node1&#45;&gt;Node29</title>
<path fill="none" stroke="midnightblue" d="M2161.63,-268.784C2175.18,-258.514 2190.84,-246.648 2203.32,-237.19"/>
<polygon fill="midnightblue" stroke="midnightblue" points="2159.37,-266.107 2153.51,-274.937 2163.6,-271.686 2159.37,-266.107"/>
</g>
<!-- Node30 -->
<g id="node62" class="node"><title>Node30</title>
<a xlink:href="ParameterBlock_8h.html" target="_top" xlink:title="parameter/ParameterBlock.h">
<polygon fill="white" stroke="black" points="2328.5,-209.5 2328.5,-230.5 2483.5,-230.5 2483.5,-209.5 2328.5,-209.5"/>
<text text-anchor="middle" x="2406" y="-217.5" font-family="Verdana" font-size="10.00">parameter/ParameterBlock.h</text>
</a>
</g>
<!-- Node1&#45;&gt;Node30 -->
<g id="edge64" class="edge"><title>Node1&#45;&gt;Node30</title>
<path fill="none" stroke="midnightblue" d="M2205.93,-272.383C2257.4,-258.907 2323.74,-241.538 2365.58,-230.582"/>
<polygon fill="midnightblue" stroke="midnightblue" points="2204.96,-269.018 2196.17,-274.937 2206.73,-275.79 2204.96,-269.018"/>
</g>
<!-- Node32 -->
<g id="node66" class="node"><title>Node32</title>
<a xlink:href="SubsystemObject_8cpp.html" target="_top" xlink:title="parameter/SubsystemObject.cpp">
<polygon fill="white" stroke="black" points="2501,-209.5 2501,-230.5 2677,-230.5 2677,-209.5 2501,-209.5"/>
<text text-anchor="middle" x="2589" y="-217.5" font-family="Verdana" font-size="10.00">parameter/SubsystemObject.cpp</text>
</a>
</g>
<!-- Node1&#45;&gt;Node32 -->
<g id="edge68" class="edge"><title>Node1&#45;&gt;Node32</title>
<path fill="none" stroke="midnightblue" d="M2226.91,-278.585C2299.74,-268.173 2402.31,-253.025 2492,-238 2505.68,-235.708 2520.42,-233.064 2534.17,-230.521"/>
<polygon fill="midnightblue" stroke="midnightblue" points="2226.24,-275.145 2216.84,-280.022 2227.23,-282.075 2226.24,-275.145"/>
</g>
<!-- Node33 -->
<g id="node68" class="node"><title>Node33</title>
<a xlink:href="TypeElement_8cpp.html" target="_top" xlink:title="parameter/TypeElement.cpp">
<polygon fill="white" stroke="black" points="2695,-209.5 2695,-230.5 2847,-230.5 2847,-209.5 2695,-209.5"/>
<text text-anchor="middle" x="2771" y="-217.5" font-family="Verdana" font-size="10.00">parameter/TypeElement.cpp</text>
</a>
</g>
<!-- Node1&#45;&gt;Node33 -->
<g id="edge70" class="edge"><title>Node1&#45;&gt;Node33</title>
<path fill="none" stroke="midnightblue" d="M2227.11,-285.921C2338.09,-278.145 2525.95,-262.654 2686,-238 2698.97,-236.002 2712.94,-233.283 2725.74,-230.564"/>
<polygon fill="midnightblue" stroke="midnightblue" points="2226.67,-282.443 2216.94,-286.627 2227.16,-289.426 2226.67,-282.443"/>
</g>
<!-- Node3 -->
<g id="node5" class="node"><title>Node3</title>
<a xlink:href="Parameter_8h.html" target="_top" xlink:title="parameter/Parameter.h">
<polygon fill="white" stroke="black" points="399.5,-137.5 399.5,-158.5 528.5,-158.5 528.5,-137.5 399.5,-137.5"/>
<text text-anchor="middle" x="464" y="-145.5" font-family="Verdana" font-size="10.00">parameter/Parameter.h</text>
</a>
</g>
<!-- Node2&#45;&gt;Node3 -->
<g id="edge4" class="edge"><title>Node2&#45;&gt;Node3</title>
<path fill="none" stroke="midnightblue" d="M1017.11,-210.225C886.96,-195.583 644.325,-168.287 528.612,-155.269"/>
<polygon fill="midnightblue" stroke="midnightblue" points="1017.11,-213.747 1027.44,-211.387 1017.89,-206.791 1017.11,-213.747"/>
</g>
<!-- Node10 -->
<g id="node20" class="node"><title>Node10</title>
<a xlink:href="BaseParameter_8cpp.html" target="_top" xlink:title="parameter/BaseParameter.cpp">
<polygon fill="white" stroke="black" points="1116,-137.5 1116,-158.5 1280,-158.5 1280,-137.5 1116,-137.5"/>
<text text-anchor="middle" x="1198" y="-145.5" font-family="Verdana" font-size="10.00">parameter/BaseParameter.cpp</text>
</a>
</g>
<!-- Node2&#45;&gt;Node10 -->
<g id="edge20" class="edge"><title>Node2&#45;&gt;Node10</title>
<path fill="none" stroke="midnightblue" d="M1126.06,-203.104C1144,-189.359 1168.78,-170.384 1184.07,-158.667"/>
<polygon fill="midnightblue" stroke="midnightblue" points="1123.68,-200.517 1117.87,-209.376 1127.94,-206.074 1123.68,-200.517"/>
</g>
<!-- Node11 -->
<g id="node22" class="node"><title>Node11</title>
<a xlink:href="BitParameter_8h.html" target="_top" xlink:title="parameter/BitParameter.h">
<polygon fill="white" stroke="black" points="764,-137.5 764,-158.5 906,-158.5 906,-137.5 764,-137.5"/>
<text text-anchor="middle" x="835" y="-145.5" font-family="Verdana" font-size="10.00">parameter/BitParameter.h</text>
</a>
</g>
<!-- Node2&#45;&gt;Node11 -->
<g id="edge22" class="edge"><title>Node2&#45;&gt;Node11</title>
<path fill="none" stroke="midnightblue" d="M1054.63,-206.786C1002.79,-192.91 922.304,-171.368 874.508,-158.575"/>
<polygon fill="midnightblue" stroke="midnightblue" points="1054.03,-210.249 1064.6,-209.453 1055.84,-203.487 1054.03,-210.249"/>
</g>
<!-- Node15 -->
<g id="node30" class="node"><title>Node15</title>
<a xlink:href="ParameterHandle_8cpp.html" target="_top" xlink:title="parameter/ParameterHandle.cpp">
<polygon fill="white" stroke="black" points="923.5,-137.5 923.5,-158.5 1098.5,-158.5 1098.5,-137.5 923.5,-137.5"/>
<text text-anchor="middle" x="1011" y="-145.5" font-family="Verdana" font-size="10.00">parameter/ParameterHandle.cpp</text>
</a>
</g>
<!-- Node2&#45;&gt;Node15 -->
<g id="edge30" class="edge"><title>Node2&#45;&gt;Node15</title>
<path fill="none" stroke="midnightblue" d="M1082.18,-203.104C1064.42,-189.359 1039.91,-170.384 1024.78,-158.667"/>
<polygon fill="midnightblue" stroke="midnightblue" points="1080.23,-206.022 1090.28,-209.376 1084.51,-200.487 1080.23,-206.022"/>
</g>
<!-- Node16 -->
<g id="node32" class="node"><title>Node16</title>
<a xlink:href="StringParameter_8h.html" target="_top" xlink:title="parameter/StringParameter.h">
<polygon fill="white" stroke="black" points="1336,-137.5 1336,-158.5 1494,-158.5 1494,-137.5 1336,-137.5"/>
<text text-anchor="middle" x="1415" y="-145.5" font-family="Verdana" font-size="10.00">parameter/StringParameter.h</text>
</a>
</g>
<!-- Node2&#45;&gt;Node16 -->
<g id="edge32" class="edge"><title>Node2&#45;&gt;Node16</title>
<path fill="none" stroke="midnightblue" d="M1159.6,-207.127C1219.57,-193.245 1313.89,-171.407 1369.58,-158.516"/>
<polygon fill="midnightblue" stroke="midnightblue" points="1158.51,-203.788 1149.56,-209.453 1160.09,-210.608 1158.51,-203.788"/>
</g>
<!-- Node4 -->
<g id="node7" class="node"><title>Node4</title>
<a xlink:href="ArrayParameter_8h.html" target="_top" xlink:title="parameter/ArrayParameter.h">
<polygon fill="white" stroke="black" points="333.5,-65.5 333.5,-86.5 488.5,-86.5 488.5,-65.5 333.5,-65.5"/>
<text text-anchor="middle" x="411" y="-73.5" font-family="Verdana" font-size="10.00">parameter/ArrayParameter.h</text>
</a>
</g>
<!-- Node3&#45;&gt;Node4 -->
<g id="edge6" class="edge"><title>Node3&#45;&gt;Node4</title>
<path fill="none" stroke="midnightblue" d="M450.16,-129.198C440.186,-115.649 427.085,-97.8514 418.852,-86.6674"/>
<polygon fill="midnightblue" stroke="midnightblue" points="447.433,-131.398 456.18,-137.376 453.07,-127.248 447.433,-131.398"/>
</g>
<!-- Node6 -->
<g id="node11" class="node"><title>Node6</title>
<a xlink:href="ParameterType_8cpp.html" target="_top" xlink:title="parameter/ParameterType.cpp">
<polygon fill="white" stroke="black" points="435,-0.5 435,-21.5 597,-21.5 597,-0.5 435,-0.5"/>
<text text-anchor="middle" x="516" y="-8.5" font-family="Verdana" font-size="10.00">parameter/ParameterType.cpp</text>
</a>
</g>
<!-- Node3&#45;&gt;Node6 -->
<g id="edge18" class="edge"><title>Node3&#45;&gt;Node6</title>
<path fill="none" stroke="midnightblue" d="M477.674,-129.051C484.342,-119.043 491.986,-106.309 497,-94 507.149,-69.0835 512.47,-37.6443 514.699,-21.5504"/>
<polygon fill="midnightblue" stroke="midnightblue" points="474.722,-127.167 471.927,-137.386 480.484,-131.14 474.722,-127.167"/>
</g>
<!-- Node7 -->
<g id="node13" class="node"><title>Node7</title>
<a xlink:href="FixedPointParameterType_8cpp.html" target="_top" xlink:title="parameter/FixedPointParameter\lType.cpp">
<polygon fill="white" stroke="black" points="543.5,-59 543.5,-93 712.5,-93 712.5,-59 543.5,-59"/>
<text text-anchor="start" x="551.5" y="-80" font-family="Verdana" font-size="10.00">parameter/FixedPointParameter</text>
<text text-anchor="middle" x="628" y="-67" font-family="Verdana" font-size="10.00">Type.cpp</text>
</a>
</g>
<!-- Node3&#45;&gt;Node7 -->
<g id="edge12" class="edge"><title>Node3&#45;&gt;Node7</title>
<path fill="none" stroke="midnightblue" d="M497.465,-133.308C524.018,-121.651 561.178,-105.336 589.063,-93.0944"/>
<polygon fill="midnightblue" stroke="midnightblue" points="495.948,-130.151 488.199,-137.376 498.762,-136.561 495.948,-130.151"/>
</g>
<!-- Node8 -->
<g id="node15" class="node"><title>Node8</title>
<a xlink:href="Parameter_8cpp.html" target="_top" xlink:title="parameter/Parameter.cpp">
<polygon fill="white" stroke="black" points="0,-65.5 0,-86.5 140,-86.5 140,-65.5 0,-65.5"/>
<text text-anchor="middle" x="70" y="-73.5" font-family="Verdana" font-size="10.00">parameter/Parameter.cpp</text>
</a>
</g>
<!-- Node3&#45;&gt;Node8 -->
<g id="edge14" class="edge"><title>Node3&#45;&gt;Node8</title>
<path fill="none" stroke="midnightblue" d="M389.262,-136.359C325.304,-126.118 230.865,-110.331 149,-94 137.688,-91.7434 125.517,-89.0857 114.199,-86.5153"/>
<polygon fill="midnightblue" stroke="midnightblue" points="388.832,-139.835 399.259,-137.955 389.936,-132.922 388.832,-139.835"/>
</g>
<!-- Node9 -->
<g id="node17" class="node"><title>Node9</title>
<a xlink:href="ParameterMgr_8cpp.html" target="_top" xlink:title="parameter/ParameterMgr.cpp">
<polygon fill="white" stroke="black" points="158,-65.5 158,-86.5 316,-86.5 316,-65.5 158,-65.5"/>
<text text-anchor="middle" x="237" y="-73.5" font-family="Verdana" font-size="10.00">parameter/ParameterMgr.cpp</text>
</a>
</g>
<!-- Node3&#45;&gt;Node9 -->
<g id="edge16" class="edge"><title>Node3&#45;&gt;Node9</title>
<path fill="none" stroke="midnightblue" d="M420.708,-134.269C376.893,-120.371 310.089,-99.1823 270.262,-86.5501"/>
<polygon fill="midnightblue" stroke="midnightblue" points="419.915,-137.689 430.505,-137.376 422.032,-131.017 419.915,-137.689"/>
</g>
<!-- Node5 -->
<g id="node9" class="node"><title>Node5</title>
<a xlink:href="ArrayParameter_8cpp.html" target="_top" xlink:title="parameter/ArrayParameter.cpp">
<polygon fill="white" stroke="black" points="251,-0.5 251,-21.5 417,-21.5 417,-0.5 251,-0.5"/>
<text text-anchor="middle" x="334" y="-8.5" font-family="Verdana" font-size="10.00">parameter/ArrayParameter.cpp</text>
</a>
</g>
<!-- Node4&#45;&gt;Node5 -->
<g id="edge8" class="edge"><title>Node4&#45;&gt;Node5</title>
<path fill="none" stroke="midnightblue" d="M390.585,-58.7667C376.561,-46.9281 358.394,-31.5923 346.478,-21.5337"/>
<polygon fill="midnightblue" stroke="midnightblue" points="388.386,-61.4905 398.285,-65.2666 392.901,-56.1415 388.386,-61.4905"/>
</g>
<!-- Node4&#45;&gt;Node6 -->
<g id="edge10" class="edge"><title>Node4&#45;&gt;Node6</title>
<path fill="none" stroke="midnightblue" d="M436.98,-59.9169C456.333,-47.937 482.204,-31.9214 498.984,-21.5337"/>
<polygon fill="midnightblue" stroke="midnightblue" points="434.999,-57.027 428.339,-65.2666 438.684,-62.9789 434.999,-57.027"/>
</g>
<!-- Node12 -->
<g id="node24" class="node"><title>Node12</title>
<a xlink:href="BitParameter_8cpp.html" target="_top" xlink:title="parameter/BitParameter.cpp">
<polygon fill="white" stroke="black" points="1159.5,-65.5 1159.5,-86.5 1312.5,-86.5 1312.5,-65.5 1159.5,-65.5"/>
<text text-anchor="middle" x="1236" y="-73.5" font-family="Verdana" font-size="10.00">parameter/BitParameter.cpp</text>
</a>
</g>
<!-- Node11&#45;&gt;Node12 -->
<g id="edge24" class="edge"><title>Node11&#45;&gt;Node12</title>
<path fill="none" stroke="midnightblue" d="M889.584,-135.234C898.074,-133.389 906.76,-131.582 915,-130 1014.89,-110.827 1040.8,-111.469 1141,-94 1154.23,-91.6935 1168.47,-89.0707 1181.79,-86.5546"/>
<polygon fill="midnightblue" stroke="midnightblue" points="888.756,-131.833 879.746,-137.407 890.265,-138.668 888.756,-131.833"/>
</g>
<!-- Node13 -->
<g id="node26" class="node"><title>Node13</title>
<a xlink:href="BitParameterType_8cpp.html" target="_top" xlink:title="parameter/BitParameterType.cpp">
<polygon fill="white" stroke="black" points="957.5,-65.5 957.5,-86.5 1132.5,-86.5 1132.5,-65.5 957.5,-65.5"/>
<text text-anchor="middle" x="1045" y="-73.5" font-family="Verdana" font-size="10.00">parameter/BitParameterType.cpp</text>
</a>
</g>
<!-- Node11&#45;&gt;Node13 -->
<g id="edge26" class="edge"><title>Node11&#45;&gt;Node13</title>
<path fill="none" stroke="midnightblue" d="M875.563,-134.093C916.104,-120.193 977.54,-99.1291 1014.23,-86.5501"/>
<polygon fill="midnightblue" stroke="midnightblue" points="874.311,-130.822 865.986,-137.376 876.581,-137.444 874.311,-130.822"/>
</g>
<!-- Node14 -->
<g id="node28" class="node"><title>Node14</title>
<a xlink:href="BitwiseAreaConfiguration_8cpp.html" target="_top" xlink:title="parameter/BitwiseAreaConfiguration.cpp">
<polygon fill="white" stroke="black" points="730,-65.5 730,-86.5 940,-86.5 940,-65.5 730,-65.5"/>
<text text-anchor="middle" x="835" y="-73.5" font-family="Verdana" font-size="10.00">parameter/BitwiseAreaConfiguration.cpp</text>
</a>
</g>
<!-- Node11&#45;&gt;Node14 -->
<g id="edge28" class="edge"><title>Node11&#45;&gt;Node14</title>
<path fill="none" stroke="midnightblue" d="M835,-127.235C835,-113.969 835,-97.3188 835,-86.6674"/>
<polygon fill="midnightblue" stroke="midnightblue" points="831.5,-127.376 835,-137.376 838.5,-127.376 831.5,-127.376"/>
</g>
<!-- Node17 -->
<g id="node34" class="node"><title>Node17</title>
<a xlink:href="StringParameter_8cpp.html" target="_top" xlink:title="parameter/StringParameter.cpp">
<polygon fill="white" stroke="black" points="1500.5,-65.5 1500.5,-86.5 1669.5,-86.5 1669.5,-65.5 1500.5,-65.5"/>
<text text-anchor="middle" x="1585" y="-73.5" font-family="Verdana" font-size="10.00">parameter/StringParameter.cpp</text>
</a>
</g>
<!-- Node16&#45;&gt;Node17 -->
<g id="edge34" class="edge"><title>Node16&#45;&gt;Node17</title>
<path fill="none" stroke="midnightblue" d="M1449.3,-133.471C1482.12,-119.571 1530.83,-98.943 1560.09,-86.5501"/>
<polygon fill="midnightblue" stroke="midnightblue" points="1447.93,-130.253 1440.08,-137.376 1450.66,-136.699 1447.93,-130.253"/>
</g>
<!-- Node18 -->
<g id="node36" class="node"><title>Node18</title>
<a xlink:href="StringParameterType_8cpp.html" target="_top" xlink:title="parameter/StringParameter\lType.cpp">
<polygon fill="white" stroke="black" points="1334.5,-59 1334.5,-93 1483.5,-93 1483.5,-59 1334.5,-59"/>
<text text-anchor="start" x="1342.5" y="-80" font-family="Verdana" font-size="10.00">parameter/StringParameter</text>
<text text-anchor="middle" x="1409" y="-67" font-family="Verdana" font-size="10.00">Type.cpp</text>
</a>
</g>
<!-- Node16&#45;&gt;Node18 -->
<g id="edge36" class="edge"><title>Node16&#45;&gt;Node18</title>
<path fill="none" stroke="midnightblue" d="M1413.26,-127.132C1412.36,-116.326 1411.27,-103.296 1410.42,-93.0944"/>
<polygon fill="midnightblue" stroke="midnightblue" points="1409.8,-127.701 1414.11,-137.376 1416.77,-127.12 1409.8,-127.701"/>
</g>
<!-- Node19&#45;&gt;Node12 -->
<g id="edge40" class="edge"><title>Node19&#45;&gt;Node12</title>
<path fill="none" stroke="midnightblue" d="M1537.96,-209.566C1462.34,-200.04 1362.99,-184.627 1327,-166 1322.07,-163.447 1269.3,-109.951 1246.45,-86.6693"/>
<polygon fill="midnightblue" stroke="midnightblue" points="1537.63,-213.053 1547.99,-210.813 1538.5,-206.106 1537.63,-213.053"/>
</g>
<!-- Node20 -->
<g id="node41" class="node"><title>Node20</title>
<a xlink:href="BitParameterBlock_8cpp.html" target="_top" xlink:title="parameter/BitParameterBlock.cpp">
<polygon fill="white" stroke="black" points="1511.5,-137.5 1511.5,-158.5 1690.5,-158.5 1690.5,-137.5 1511.5,-137.5"/>
<text text-anchor="middle" x="1601" y="-145.5" font-family="Verdana" font-size="10.00">parameter/BitParameterBlock.cpp</text>
</a>
</g>
<!-- Node19&#45;&gt;Node20 -->
<g id="edge42" class="edge"><title>Node19&#45;&gt;Node20</title>
<path fill="none" stroke="midnightblue" d="M1623.4,-200.027C1617.64,-186.637 1610.27,-169.532 1605.59,-158.667"/>
<polygon fill="midnightblue" stroke="midnightblue" points="1620.26,-201.575 1627.43,-209.376 1626.69,-198.807 1620.26,-201.575"/>
</g>
<!-- Node21 -->
<g id="node43" class="node"><title>Node21</title>
<a xlink:href="BitParameterBlockType_8cpp.html" target="_top" xlink:title="parameter/BitParameterBlock\lType.cpp">
<polygon fill="white" stroke="black" points="1707.5,-131 1707.5,-165 1866.5,-165 1866.5,-131 1707.5,-131"/>
<text text-anchor="start" x="1715.5" y="-152" font-family="Verdana" font-size="10.00">parameter/BitParameterBlock</text>
<text text-anchor="middle" x="1787" y="-139" font-family="Verdana" font-size="10.00">Type.cpp</text>
</a>
</g>
<!-- Node19&#45;&gt;Node21 -->
<g id="edge44" class="edge"><title>Node19&#45;&gt;Node21</title>
<path fill="none" stroke="midnightblue" d="M1663.96,-205.155C1689.03,-193.508 1723.96,-177.283 1750.2,-165.094"/>
<polygon fill="midnightblue" stroke="midnightblue" points="1662.47,-201.989 1654.87,-209.376 1665.41,-208.338 1662.47,-201.989"/>
</g>
<!-- Node23 -->
<g id="node47" class="node"><title>Node23</title>
<a xlink:href="ComponentLibrary_8h.html" target="_top" xlink:title="parameter/ComponentLibrary.h">
<polygon fill="white" stroke="black" points="1966.5,-137.5 1966.5,-158.5 2133.5,-158.5 2133.5,-137.5 1966.5,-137.5"/>
<text text-anchor="middle" x="2050" y="-145.5" font-family="Verdana" font-size="10.00">parameter/ComponentLibrary.h</text>
</a>
</g>
<!-- Node22&#45;&gt;Node23 -->
<g id="edge48" class="edge"><title>Node22&#45;&gt;Node23</title>
<path fill="none" stroke="midnightblue" d="M1900.27,-205.65C1936.38,-191.749 1990.27,-170.996 2022.6,-158.55"/>
<polygon fill="midnightblue" stroke="midnightblue" points="1898.67,-202.517 1890.59,-209.376 1901.18,-209.049 1898.67,-202.517"/>
</g>
<!-- Node24 -->
<g id="node49" class="node"><title>Node24</title>
<a xlink:href="ComponentInstance_8cpp.html" target="_top" xlink:title="parameter/ComponentInstance.cpp">
<polygon fill="white" stroke="black" points="1755,-65.5 1755,-86.5 1943,-86.5 1943,-65.5 1755,-65.5"/>
<text text-anchor="middle" x="1849" y="-73.5" font-family="Verdana" font-size="10.00">parameter/ComponentInstance.cpp</text>
</a>
</g>
<!-- Node22&#45;&gt;Node24 -->
<g id="edge58" class="edge"><title>Node22&#45;&gt;Node24</title>
<path fill="none" stroke="midnightblue" d="M1869.79,-199.727C1874.97,-181.361 1880.39,-153.638 1875,-130 1871.34,-113.972 1862.3,-97.1589 1855.91,-86.6351"/>
<polygon fill="midnightblue" stroke="midnightblue" points="1866.42,-198.771 1866.85,-209.357 1873.11,-200.817 1866.42,-198.771"/>
</g>
<!-- Node23&#45;&gt;Node24 -->
<g id="edge50" class="edge"><title>Node23&#45;&gt;Node24</title>
<path fill="none" stroke="midnightblue" d="M2010.44,-133.827C1971.63,-119.926 1913.35,-99.0493 1878.45,-86.5501"/>
<polygon fill="midnightblue" stroke="midnightblue" points="2009.75,-137.299 2020.34,-137.376 2012.11,-130.709 2009.75,-137.299"/>
</g>
<!-- Node25 -->
<g id="node51" class="node"><title>Node25</title>
<a xlink:href="ComponentLibrary_8cpp.html" target="_top" xlink:title="parameter/ComponentLibrary.cpp">
<polygon fill="white" stroke="black" points="1961,-65.5 1961,-86.5 2139,-86.5 2139,-65.5 1961,-65.5"/>
<text text-anchor="middle" x="2050" y="-73.5" font-family="Verdana" font-size="10.00">parameter/ComponentLibrary.cpp</text>
</a>
</g>
<!-- Node23&#45;&gt;Node25 -->
<g id="edge52" class="edge"><title>Node23&#45;&gt;Node25</title>
<path fill="none" stroke="midnightblue" d="M2050,-127.235C2050,-113.969 2050,-97.3188 2050,-86.6674"/>
<polygon fill="midnightblue" stroke="midnightblue" points="2046.5,-127.376 2050,-137.376 2053.5,-127.376 2046.5,-127.376"/>
</g>
<!-- Node26 -->
<g id="node53" class="node"><title>Node26</title>
<a xlink:href="ComponentType_8cpp.html" target="_top" xlink:title="parameter/ComponentType.cpp">
<polygon fill="white" stroke="black" points="2157,-65.5 2157,-86.5 2325,-86.5 2325,-65.5 2157,-65.5"/>
<text text-anchor="middle" x="2241" y="-73.5" font-family="Verdana" font-size="10.00">parameter/ComponentType.cpp</text>
</a>
</g>
<!-- Node23&#45;&gt;Node26 -->
<g id="edge54" class="edge"><title>Node23&#45;&gt;Node26</title>
<path fill="none" stroke="midnightblue" d="M2087.6,-133.827C2124.47,-119.926 2179.86,-99.0493 2213.01,-86.5501"/>
<polygon fill="midnightblue" stroke="midnightblue" points="2086.31,-130.574 2078.18,-137.376 2088.77,-137.124 2086.31,-130.574"/>
</g>
<!-- Node27 -->
<g id="node55" class="node"><title>Node27</title>
<a xlink:href="Subsystem_8cpp.html" target="_top" xlink:title="parameter/Subsystem.cpp">
<polygon fill="white" stroke="black" points="2342.5,-65.5 2342.5,-86.5 2487.5,-86.5 2487.5,-65.5 2342.5,-65.5"/>
<text text-anchor="middle" x="2415" y="-73.5" font-family="Verdana" font-size="10.00">parameter/Subsystem.cpp</text>
</a>
</g>
<!-- Node23&#45;&gt;Node27 -->
<g id="edge56" class="edge"><title>Node23&#45;&gt;Node27</title>
<path fill="none" stroke="midnightblue" d="M2118.38,-135.608C2175.98,-125.024 2260.5,-109.15 2334,-94 2345.29,-91.6734 2357.43,-89.0431 2368.79,-86.5261"/>
<polygon fill="midnightblue" stroke="midnightblue" points="2117.51,-132.21 2108.3,-137.456 2118.77,-139.095 2117.51,-132.21"/>
</g>
<!-- Node31 -->
<g id="node64" class="node"><title>Node31</title>
<a xlink:href="ParameterBlockType_8cpp.html" target="_top" xlink:title="parameter/ParameterBlock\lType.cpp">
<polygon fill="white" stroke="black" points="2333,-131 2333,-165 2479,-165 2479,-131 2333,-131"/>
<text text-anchor="start" x="2341" y="-152" font-family="Verdana" font-size="10.00">parameter/ParameterBlock</text>
<text text-anchor="middle" x="2406" y="-139" font-family="Verdana" font-size="10.00">Type.cpp</text>
</a>
</g>
<!-- Node30&#45;&gt;Node31 -->
<g id="edge66" class="edge"><title>Node30&#45;&gt;Node31</title>
<path fill="none" stroke="midnightblue" d="M2406,-199.132C2406,-188.326 2406,-175.296 2406,-165.094"/>
<polygon fill="midnightblue" stroke="midnightblue" points="2402.5,-199.376 2406,-209.376 2409.5,-199.376 2402.5,-199.376"/>
</g>
</g>
</svg>
