<?xml version="1.0" encoding="UTF-8" standalone="no"?>
<!DOCTYPE svg PUBLIC "-//W3C//DTD SVG 1.1//EN"
 "http://www.w3.org/Graphics/SVG/1.1/DTD/svg11.dtd">
<!-- Generated by graphviz version 2.26.3 (20100126.1600)
 -->
<!-- Title: parameter/InstanceDefinition.cpp Pages: 1 -->
<svg width="525pt" height="320pt"
 viewBox="0.00 0.00 525.00 320.00" xmlns="http://www.w3.org/2000/svg" xmlns:xlink="http://www.w3.org/1999/xlink">
<g id="graph1" class="graph" transform="scale(1 1) rotate(0) translate(4 316)">
<title>parameter/InstanceDefinition.cpp</title>
<polygon fill="white" stroke="white" points="-4,5 -4,-316 522,-316 522,5 -4,5"/>
<!-- Node1 -->
<g id="node1" class="node"><title>Node1</title>
<polygon fill="#bfbfbf" stroke="black" points="17,-290.5 17,-311.5 193,-311.5 193,-290.5 17,-290.5"/>
<text text-anchor="middle" x="105" y="-298.5" font-family="Verdana" font-size="10.00">parameter/InstanceDefinition.cpp</text>
</g>
<!-- Node2 -->
<g id="node3" class="node"><title>Node2</title>
<a xlink:href="InstanceDefinition_8h.html" target="_top" xlink:title="InstanceDefinition.h">
<polygon fill="white" stroke="black" points="-0.5,-232.5 -0.5,-253.5 110.5,-253.5 110.5,-232.5 -0.5,-232.5"/>
<text text-anchor="middle" x="55" y="-240.5" font-family="Verdana" font-size="10.00">InstanceDefinition.h</text>
</a>
</g>
<!-- Node1&#45;&gt;Node2 -->
<g id="edge2" class="edge"><title>Node1&#45;&gt;Node2</title>
<path fill="none" stroke="midnightblue" d="M95.8292,-290.362C88.8516,-282.268 79.0792,-270.932 70.8445,-261.38"/>
<polygon fill="midnightblue" stroke="midnightblue" points="73.293,-258.859 64.1126,-253.571 67.9911,-263.43 73.293,-258.859"/>
</g>
<!-- Node12 -->
<g id="node28" class="node"><title>Node12</title>
<polygon fill="white" stroke="#bfbfbf" points="128,-232.5 128,-253.5 184,-253.5 184,-232.5 128,-232.5"/>
<text text-anchor="middle" x="156" y="-240.5" font-family="Verdana" font-size="10.00">assert.h</text>
</g>
<!-- Node1&#45;&gt;Node12 -->
<g id="edge32" class="edge"><title>Node1&#45;&gt;Node12</title>
<path fill="none" stroke="midnightblue" d="M114.354,-290.362C121.543,-282.186 131.641,-270.702 140.093,-261.091"/>
<polygon fill="midnightblue" stroke="midnightblue" points="142.73,-263.392 146.705,-253.571 137.473,-258.769 142.73,-263.392"/>
</g>
<!-- Node3 -->
<g id="node5" class="node"><title>Node3</title>
<a xlink:href="TypeElement_8h.html" target="_top" xlink:title="TypeElement.h">
<polygon fill="white" stroke="black" points="48,-174.5 48,-195.5 134,-195.5 134,-174.5 48,-174.5"/>
<text text-anchor="middle" x="91" y="-182.5" font-family="Verdana" font-size="10.00">TypeElement.h</text>
</a>
</g>
<!-- Node2&#45;&gt;Node3 -->
<g id="edge4" class="edge"><title>Node2&#45;&gt;Node3</title>
<path fill="none" stroke="midnightblue" d="M61.603,-232.362C66.4746,-224.513 73.2384,-213.616 79.05,-204.253"/>
<polygon fill="midnightblue" stroke="midnightblue" points="82.139,-205.913 84.4389,-195.571 76.1915,-202.221 82.139,-205.913"/>
</g>
<!-- Node5 -->
<g id="node9" class="node"><title>Node5</title>
<polygon fill="white" stroke="#bfbfbf" points="55,-0.5 55,-21.5 99,-21.5 99,-0.5 55,-0.5"/>
<text text-anchor="middle" x="77" y="-8.5" font-family="Verdana" font-size="10.00">string</text>
</g>
<!-- Node2&#45;&gt;Node5 -->
<g id="edge30" class="edge"><title>Node2&#45;&gt;Node5</title>
<path fill="none" stroke="midnightblue" d="M50.2831,-232.432C46.3792,-223.072 41.1398,-208.926 39,-196 37.403,-186.354 37.8827,-183.714 39,-174 45.0031,-121.809 61.4803,-62.0368 70.643,-31.423"/>
<polygon fill="midnightblue" stroke="midnightblue" points="74.0902,-32.1174 73.6549,-21.5315 67.3937,-30.0783 74.0902,-32.1174"/>
</g>
<!-- Node4 -->
<g id="node7" class="node"><title>Node4</title>
<a xlink:href="Element_8h.html" target="_top" xlink:title="Element.h">
<polygon fill="white" stroke="black" points="215.5,-116.5 215.5,-137.5 280.5,-137.5 280.5,-116.5 215.5,-116.5"/>
<text text-anchor="middle" x="248" y="-124.5" font-family="Verdana" font-size="10.00">Element.h</text>
</a>
</g>
<!-- Node3&#45;&gt;Node4 -->
<g id="edge6" class="edge"><title>Node3&#45;&gt;Node4</title>
<path fill="none" stroke="midnightblue" d="M119.432,-174.497C144.805,-165.123 182.157,-151.324 210.07,-141.012"/>
<polygon fill="midnightblue" stroke="midnightblue" points="211.348,-144.272 219.515,-137.523 208.922,-137.705 211.348,-144.272"/>
</g>
<!-- Node3&#45;&gt;Node5 -->
<g id="edge28" class="edge"><title>Node3&#45;&gt;Node5</title>
<path fill="none" stroke="midnightblue" d="M90.1453,-174.377C87.8856,-146.293 81.7209,-69.6735 78.706,-32.2027"/>
<polygon fill="midnightblue" stroke="midnightblue" points="82.1701,-31.6148 77.8792,-21.9277 75.1926,-32.1762 82.1701,-31.6148"/>
</g>
<!-- Node4&#45;&gt;Node5 -->
<g id="edge8" class="edge"><title>Node4&#45;&gt;Node5</title>
<path fill="none" stroke="midnightblue" d="M215.463,-122.237C186.322,-116.529 143.852,-104.477 115,-80 99.8331,-67.133 89.6346,-46.6158 83.6545,-31.2937"/>
<polygon fill="midnightblue" stroke="midnightblue" points="86.8687,-29.8897 80.1791,-21.6739 80.2852,-32.2682 86.8687,-29.8897"/>
</g>
<!-- Node6 -->
<g id="node11" class="node"><title>Node6</title>
<polygon fill="white" stroke="#bfbfbf" points="470.5,-0.5 470.5,-21.5 517.5,-21.5 517.5,-0.5 470.5,-0.5"/>
<text text-anchor="middle" x="494" y="-8.5" font-family="Verdana" font-size="10.00">vector</text>
</g>
<!-- Node4&#45;&gt;Node6 -->
<g id="edge10" class="edge"><title>Node4&#45;&gt;Node6</title>
<path fill="none" stroke="midnightblue" d="M280.753,-123.616C334.266,-117.492 437.275,-103.028 465,-80 479.479,-67.9745 486.857,-47.4683 490.535,-31.9278"/>
<polygon fill="midnightblue" stroke="midnightblue" points="494.055,-32.1772 492.607,-21.6818 487.194,-30.7893 494.055,-32.1772"/>
</g>
<!-- Node7 -->
<g id="node13" class="node"><title>Node7</title>
<polygon fill="white" stroke="#bfbfbf" points="378.5,-0.5 378.5,-21.5 431.5,-21.5 431.5,-0.5 378.5,-0.5"/>
<text text-anchor="middle" x="405" y="-8.5" font-family="Verdana" font-size="10.00">stdint.h</text>
</g>
<!-- Node4&#45;&gt;Node7 -->
<g id="edge12" class="edge"><title>Node4&#45;&gt;Node7</title>
<path fill="none" stroke="midnightblue" d="M280.636,-124.195C332.087,-119.021 428.345,-106.042 449,-80 462.278,-63.2595 444.77,-42.3751 428.065,-27.9929"/>
<polygon fill="midnightblue" stroke="midnightblue" points="430.038,-25.086 420.068,-21.5015 425.626,-30.5211 430.038,-25.086"/>
</g>
<!-- Node8 -->
<g id="node15" class="node"><title>Node8</title>
<polygon fill="white" stroke="#bfbfbf" points="124,-58.5 124,-79.5 154,-79.5 154,-58.5 124,-58.5"/>
<text text-anchor="middle" x="139" y="-66.5" font-family="Verdana" font-size="10.00">list</text>
</g>
<!-- Node4&#45;&gt;Node8 -->
<g id="edge14" class="edge"><title>Node4&#45;&gt;Node8</title>
<path fill="none" stroke="midnightblue" d="M228.261,-116.497C209.914,-106.734 182.546,-92.1712 162.955,-81.7468"/>
<polygon fill="midnightblue" stroke="midnightblue" points="164.508,-78.6086 154.036,-77.0009 161.22,-84.7882 164.508,-78.6086"/>
</g>
<!-- Node9 -->
<g id="node17" class="node"><title>Node9</title>
<polygon fill="white" stroke="#bfbfbf" points="172,-58.5 172,-79.5 236,-79.5 236,-58.5 172,-58.5"/>
<text text-anchor="middle" x="204" y="-66.5" font-family="Verdana" font-size="10.00">XmlSink.h</text>
</g>
<!-- Node4&#45;&gt;Node9 -->
<g id="edge16" class="edge"><title>Node4&#45;&gt;Node9</title>
<path fill="none" stroke="midnightblue" d="M239.93,-116.362C233.851,-108.35 225.363,-97.1605 218.163,-87.6696"/>
<polygon fill="midnightblue" stroke="midnightblue" points="220.851,-85.4222 212.019,-79.5707 215.275,-89.653 220.851,-85.4222"/>
</g>
<!-- Node10 -->
<g id="node19" class="node"><title>Node10</title>
<polygon fill="white" stroke="#bfbfbf" points="253.5,-58.5 253.5,-79.5 330.5,-79.5 330.5,-58.5 253.5,-58.5"/>
<text text-anchor="middle" x="292" y="-66.5" font-family="Verdana" font-size="10.00">XmlSource.h</text>
</g>
<!-- Node4&#45;&gt;Node10 -->
<g id="edge18" class="edge"><title>Node4&#45;&gt;Node10</title>
<path fill="none" stroke="midnightblue" d="M256.07,-116.362C262.149,-108.35 270.637,-97.1605 277.837,-87.6696"/>
<polygon fill="midnightblue" stroke="midnightblue" points="280.725,-89.653 283.981,-79.5707 275.149,-85.4222 280.725,-89.653"/>
</g>
<!-- Node11 -->
<g id="node21" class="node"><title>Node11</title>
<a xlink:href="PathNavigator_8h.html" target="_top" xlink:title="PathNavigator.h">
<polygon fill="white" stroke="black" points="348,-58.5 348,-79.5 440,-79.5 440,-58.5 348,-58.5"/>
<text text-anchor="middle" x="394" y="-66.5" font-family="Verdana" font-size="10.00">PathNavigator.h</text>
</a>
</g>
<!-- Node4&#45;&gt;Node11 -->
<g id="edge20" class="edge"><title>Node4&#45;&gt;Node11</title>
<path fill="none" stroke="midnightblue" d="M274.439,-116.497C297.756,-107.234 331.95,-93.6499 357.804,-83.3793"/>
<polygon fill="midnightblue" stroke="midnightblue" points="359.263,-86.566 367.264,-79.6212 356.678,-80.0605 359.263,-86.566"/>
</g>
<!-- Node11&#45;&gt;Node5 -->
<g id="edge24" class="edge"><title>Node11&#45;&gt;Node5</title>
<path fill="none" stroke="midnightblue" d="M347.8,-59.6906C344.823,-59.1123 341.87,-58.5444 339,-58 256.305,-42.3149 158.659,-25.1579 109.195,-16.563"/>
<polygon fill="midnightblue" stroke="midnightblue" points="109.561,-13.0743 99.1101,-14.8133 108.365,-19.9713 109.561,-13.0743"/>
</g>
<!-- Node11&#45;&gt;Node6 -->
<g id="edge22" class="edge"><title>Node11&#45;&gt;Node6</title>
<path fill="none" stroke="midnightblue" d="M412.342,-58.3619C427.566,-49.532 449.441,-36.844 466.72,-26.8224"/>
<polygon fill="midnightblue" stroke="midnightblue" points="468.88,-29.6155 475.775,-21.5707 465.368,-23.5603 468.88,-29.6155"/>
</g>
<!-- Node11&#45;&gt;Node7 -->
<g id="edge26" class="edge"><title>Node11&#45;&gt;Node7</title>
<path fill="none" stroke="midnightblue" d="M396.018,-58.3619C397.444,-50.8401 399.402,-40.5187 401.125,-31.4308"/>
<polygon fill="midnightblue" stroke="midnightblue" points="404.571,-32.0477 402.995,-21.5707 397.693,-30.7433 404.571,-32.0477"/>
</g>
</g>
</svg>
