<?xml version="1.0" encoding="UTF-8" standalone="no"?>
<!DOCTYPE svg PUBLIC "-//W3C//DTD SVG 1.1//EN"
 "http://www.w3.org/Graphics/SVG/1.1/DTD/svg11.dtd">
<!-- Generated by graphviz version 2.26.3 (20100126.1600)
 -->
<!-- Title: parameter/InstanceConfigurableElement.cpp Pages: 1 -->
<svg width="930pt" height="392pt"
 viewBox="0.00 0.00 930.00 392.00" xmlns="http://www.w3.org/2000/svg" xmlns:xlink="http://www.w3.org/1999/xlink">
<g id="graph1" class="graph" transform="scale(1 1) rotate(0) translate(4 388)">
<title>parameter/InstanceConfigurableElement.cpp</title>
<polygon fill="white" stroke="white" points="-4,5 -4,-388 927,-388 927,5 -4,5"/>
<!-- Node1 -->
<g id="node1" class="node"><title>Node1</title>
<polygon fill="#bfbfbf" stroke="black" points="672.5,-349 672.5,-383 843.5,-383 843.5,-349 672.5,-349"/>
<text text-anchor="start" x="680.5" y="-370" font-family="Verdana" font-size="10.00">parameter/InstanceConfigurable</text>
<text text-anchor="middle" x="758" y="-357" font-family="Verdana" font-size="10.00">Element.cpp</text>
</g>
<!-- Node2 -->
<g id="node3" class="node"><title>Node2</title>
<a xlink:href="InstanceConfigurableElement_8h.html" target="_top" xlink:title="InstanceConfigurableElement.h">
<polygon fill="white" stroke="black" points="564,-290.5 564,-311.5 730,-311.5 730,-290.5 564,-290.5"/>
<text text-anchor="middle" x="647" y="-298.5" font-family="Verdana" font-size="10.00">InstanceConfigurableElement.h</text>
</a>
</g>
<!-- Node1&#45;&gt;Node2 -->
<g id="edge2" class="edge"><title>Node1&#45;&gt;Node2</title>
<path fill="none" stroke="midnightblue" d="M728.836,-348.922C711.818,-338.957 690.5,-326.473 673.888,-316.745"/>
<polygon fill="midnightblue" stroke="midnightblue" points="675.599,-313.691 665.201,-311.658 672.062,-319.732 675.599,-313.691"/>
</g>
<!-- Node13 -->
<g id="node30" class="node"><title>Node13</title>
<a xlink:href="TypeElement_8h.html" target="_top" xlink:title="TypeElement.h">
<polygon fill="white" stroke="black" points="388,-174.5 388,-195.5 474,-195.5 474,-174.5 388,-174.5"/>
<text text-anchor="middle" x="431" y="-182.5" font-family="Verdana" font-size="10.00">TypeElement.h</text>
</a>
</g>
<!-- Node1&#45;&gt;Node13 -->
<g id="edge60" class="edge"><title>Node1&#45;&gt;Node13</title>
<path fill="none" stroke="midnightblue" d="M678.525,-348.99C593.843,-329.066 468.139,-293.693 440,-254 430.201,-240.178 428.438,-220.791 428.846,-206.085"/>
<polygon fill="midnightblue" stroke="midnightblue" points="432.351,-206.122 429.485,-195.922 425.365,-205.683 432.351,-206.122"/>
</g>
<!-- Node14 -->
<g id="node36" class="node"><title>Node14</title>
<a xlink:href="Mapper_8h.html" target="_top" xlink:title="Mapper.h">
<polygon fill="white" stroke="black" points="785.5,-232.5 785.5,-253.5 846.5,-253.5 846.5,-232.5 785.5,-232.5"/>
<text text-anchor="middle" x="816" y="-240.5" font-family="Verdana" font-size="10.00">Mapper.h</text>
</a>
</g>
<!-- Node1&#45;&gt;Node14 -->
<g id="edge44" class="edge"><title>Node1&#45;&gt;Node14</title>
<path fill="none" stroke="midnightblue" d="M766.065,-348.897C776.687,-326.372 795.332,-286.83 806.587,-262.962"/>
<polygon fill="midnightblue" stroke="midnightblue" points="809.814,-264.325 810.913,-253.787 803.482,-261.34 809.814,-264.325"/>
</g>
<!-- Node15 -->
<g id="node39" class="node"><title>Node15</title>
<a xlink:href="SyncerSet_8h.html" target="_top" xlink:title="SyncerSet.h">
<polygon fill="white" stroke="black" points="747.5,-116.5 747.5,-137.5 822.5,-137.5 822.5,-116.5 747.5,-116.5"/>
<text text-anchor="middle" x="785" y="-124.5" font-family="Verdana" font-size="10.00">SyncerSet.h</text>
</a>
</g>
<!-- Node1&#45;&gt;Node15 -->
<g id="edge48" class="edge"><title>Node1&#45;&gt;Node15</title>
<path fill="none" stroke="midnightblue" d="M759.942,-348.812C764.79,-305.898 777.411,-194.174 782.659,-147.724"/>
<polygon fill="midnightblue" stroke="midnightblue" points="786.153,-147.971 783.798,-137.641 779.197,-147.185 786.153,-147.971"/>
</g>
<!-- Node17 -->
<g id="node45" class="node"><title>Node17</title>
<a xlink:href="Syncer_8h.html" target="_top" xlink:title="Syncer.h">
<polygon fill="white" stroke="black" points="864,-232.5 864,-253.5 922,-253.5 922,-232.5 864,-232.5"/>
<text text-anchor="middle" x="893" y="-240.5" font-family="Verdana" font-size="10.00">Syncer.h</text>
</a>
</g>
<!-- Node1&#45;&gt;Node17 -->
<g id="edge56" class="edge"><title>Node1&#45;&gt;Node17</title>
<path fill="none" stroke="midnightblue" d="M776.771,-348.897C802.267,-325.668 847.624,-284.342 873.495,-260.771"/>
<polygon fill="midnightblue" stroke="midnightblue" points="876.125,-263.11 881.16,-253.787 871.411,-257.935 876.125,-263.11"/>
</g>
<!-- Node18 -->
<g id="node49" class="node"><title>Node18</title>
<a xlink:href="ParameterAccessContext_8h.html" target="_top" xlink:title="ParameterAccessContext.h">
<polygon fill="white" stroke="black" points="203.5,-116.5 203.5,-137.5 350.5,-137.5 350.5,-116.5 203.5,-116.5"/>
<text text-anchor="middle" x="277" y="-124.5" font-family="Verdana" font-size="10.00">ParameterAccessContext.h</text>
</a>
</g>
<!-- Node1&#45;&gt;Node18 -->
<g id="edge62" class="edge"><title>Node1&#45;&gt;Node18</title>
<path fill="none" stroke="midnightblue" d="M672.338,-359.882C618.116,-353.354 547.785,-339.866 491,-312 404.514,-269.559 324.918,-183.535 292.434,-145.64"/>
<polygon fill="midnightblue" stroke="midnightblue" points="295.021,-143.28 285.889,-137.908 289.678,-147.802 295.021,-143.28"/>
</g>
<!-- Node20 -->
<g id="node56" class="node"><title>Node20</title>
<polygon fill="white" stroke="#bfbfbf" points="862,-290.5 862,-311.5 918,-311.5 918,-290.5 862,-290.5"/>
<text text-anchor="middle" x="890" y="-298.5" font-family="Verdana" font-size="10.00">assert.h</text>
</g>
<!-- Node1&#45;&gt;Node20 -->
<g id="edge72" class="edge"><title>Node1&#45;&gt;Node20</title>
<path fill="none" stroke="midnightblue" d="M792.681,-348.922C813.294,-338.772 839.211,-326.01 859.116,-316.208"/>
<polygon fill="midnightblue" stroke="midnightblue" points="860.93,-319.216 868.355,-311.658 857.838,-312.936 860.93,-319.216"/>
</g>
<!-- Node3 -->
<g id="node5" class="node"><title>Node3</title>
<a xlink:href="ConfigurableElementWithMapping_8h.html" target="_top" xlink:title="ConfigurableElementWithMapping.h">
<polygon fill="white" stroke="black" points="468,-232.5 468,-253.5 654,-253.5 654,-232.5 468,-232.5"/>
<text text-anchor="middle" x="561" y="-240.5" font-family="Verdana" font-size="10.00">ConfigurableElementWithMapping.h</text>
</a>
</g>
<!-- Node2&#45;&gt;Node3 -->
<g id="edge4" class="edge"><title>Node2&#45;&gt;Node3</title>
<path fill="none" stroke="midnightblue" d="M631.226,-290.362C618.376,-281.696 600.015,-269.313 585.29,-259.382"/>
<polygon fill="midnightblue" stroke="midnightblue" points="586.921,-256.26 576.674,-253.571 583.007,-262.064 586.921,-256.26"/>
</g>
<!-- Node6 -->
<g id="node11" class="node"><title>Node6</title>
<polygon fill="white" stroke="#bfbfbf" points="565,-0.5 565,-21.5 609,-21.5 609,-0.5 565,-0.5"/>
<text text-anchor="middle" x="587" y="-8.5" font-family="Verdana" font-size="10.00">string</text>
</g>
<!-- Node2&#45;&gt;Node6 -->
<g id="edge42" class="edge"><title>Node2&#45;&gt;Node6</title>
<path fill="none" stroke="midnightblue" d="M659.716,-290.263C680.631,-271.325 720,-229.734 720,-185 720,-185 720,-185 720,-127 720,-93.0065 711.118,-81.9558 687,-58 668.084,-39.2107 640.231,-26.9697 618.721,-19.705"/>
<polygon fill="midnightblue" stroke="midnightblue" points="619.63,-16.3214 609.04,-16.6216 617.506,-22.9913 619.63,-16.3214"/>
</g>
<!-- Node9 -->
<g id="node17" class="node"><title>Node9</title>
<polygon fill="white" stroke="#bfbfbf" points="648,-58.5 648,-79.5 678,-79.5 678,-58.5 648,-58.5"/>
<text text-anchor="middle" x="663" y="-66.5" font-family="Verdana" font-size="10.00">list</text>
</g>
<!-- Node2&#45;&gt;Node9 -->
<g id="edge40" class="edge"><title>Node2&#45;&gt;Node9</title>
<path fill="none" stroke="midnightblue" d="M651.717,-290.432C655.621,-281.072 660.86,-266.926 663,-254 672.756,-195.07 668.337,-124.126 665.19,-89.7249"/>
<polygon fill="midnightblue" stroke="midnightblue" points="668.649,-89.1416 664.193,-79.5295 661.683,-89.8225 668.649,-89.1416"/>
</g>
<!-- Node2&#45;&gt;Node13 -->
<g id="edge34" class="edge"><title>Node2&#45;&gt;Node13</title>
<path fill="none" stroke="midnightblue" d="M578.112,-290.483C532.121,-282.231 476.908,-269.553 459,-254 444.862,-241.721 437.759,-221.249 434.256,-205.785"/>
<polygon fill="midnightblue" stroke="midnightblue" points="437.622,-204.755 432.293,-195.599 430.749,-206.08 437.622,-204.755"/>
</g>
<!-- Node4 -->
<g id="node7" class="node"><title>Node4</title>
<a xlink:href="ConfigurableElement_8h.html" target="_top" xlink:title="ConfigurableElement.h">
<polygon fill="white" stroke="black" points="529.5,-174.5 529.5,-195.5 654.5,-195.5 654.5,-174.5 529.5,-174.5"/>
<text text-anchor="middle" x="592" y="-182.5" font-family="Verdana" font-size="10.00">ConfigurableElement.h</text>
</a>
</g>
<!-- Node3&#45;&gt;Node4 -->
<g id="edge6" class="edge"><title>Node3&#45;&gt;Node4</title>
<path fill="none" stroke="midnightblue" d="M566.686,-232.362C570.837,-224.595 576.584,-213.843 581.553,-204.546"/>
<polygon fill="midnightblue" stroke="midnightblue" points="584.723,-206.04 586.35,-195.571 578.55,-202.74 584.723,-206.04"/>
</g>
<!-- Node3&#45;&gt;Node6 -->
<g id="edge32" class="edge"><title>Node3&#45;&gt;Node6</title>
<path fill="none" stroke="midnightblue" d="M547.79,-232.198C538.318,-223.541 526.328,-210.48 521,-196 517.624,-186.824 519.09,-183.589 521,-174 529.837,-129.641 543.091,-121.951 560,-80 566.591,-63.6471 573.864,-45.0258 579.199,-31.2527"/>
<polygon fill="midnightblue" stroke="midnightblue" points="582.519,-32.3727 582.858,-21.7833 575.989,-29.8497 582.519,-32.3727"/>
</g>
<!-- Node5 -->
<g id="node9" class="node"><title>Node5</title>
<a xlink:href="Element_8h.html" target="_top" xlink:title="Element.h">
<polygon fill="white" stroke="black" points="398.5,-116.5 398.5,-137.5 463.5,-137.5 463.5,-116.5 398.5,-116.5"/>
<text text-anchor="middle" x="431" y="-124.5" font-family="Verdana" font-size="10.00">Element.h</text>
</a>
</g>
<!-- Node4&#45;&gt;Node5 -->
<g id="edge8" class="edge"><title>Node4&#45;&gt;Node5</title>
<path fill="none" stroke="midnightblue" d="M562.844,-174.497C536.824,-165.123 498.521,-151.324 469.896,-141.012"/>
<polygon fill="midnightblue" stroke="midnightblue" points="470.805,-137.62 460.211,-137.523 468.432,-144.205 470.805,-137.62"/>
</g>
<!-- Node4&#45;&gt;Node9 -->
<g id="edge30" class="edge"><title>Node4&#45;&gt;Node9</title>
<path fill="none" stroke="midnightblue" d="M598.552,-174.295C610.493,-154.786 635.954,-113.188 651.054,-88.5177"/>
<polygon fill="midnightblue" stroke="midnightblue" points="654.228,-90.0356 656.464,-79.6792 648.258,-86.3812 654.228,-90.0356"/>
</g>
<!-- Node5&#45;&gt;Node6 -->
<g id="edge10" class="edge"><title>Node5&#45;&gt;Node6</title>
<path fill="none" stroke="midnightblue" d="M451.785,-116.325C468.378,-107.445 491.925,-94.0303 511,-80 532.319,-64.3196 554.478,-43.6131 569.329,-28.9878"/>
<polygon fill="midnightblue" stroke="midnightblue" points="572.168,-31.0993 576.775,-21.5588 567.224,-26.1436 572.168,-31.0993"/>
</g>
<!-- Node7 -->
<g id="node13" class="node"><title>Node7</title>
<polygon fill="white" stroke="#bfbfbf" points="92.5,-0.5 92.5,-21.5 139.5,-21.5 139.5,-0.5 92.5,-0.5"/>
<text text-anchor="middle" x="116" y="-8.5" font-family="Verdana" font-size="10.00">vector</text>
</g>
<!-- Node5&#45;&gt;Node7 -->
<g id="edge12" class="edge"><title>Node5&#45;&gt;Node7</title>
<path fill="none" stroke="midnightblue" d="M398.406,-121.866C386.07,-119.963 371.896,-117.826 359,-116 297.758,-107.329 123.81,-126.479 83,-80 69.9896,-65.1824 83.1775,-44.3376 96.5474,-29.4442"/>
<polygon fill="midnightblue" stroke="midnightblue" points="99.4289,-31.4965 103.829,-21.8584 94.3788,-26.6491 99.4289,-31.4965"/>
</g>
<!-- Node8 -->
<g id="node15" class="node"><title>Node8</title>
<polygon fill="white" stroke="#bfbfbf" points="-0.5,-0.5 -0.5,-21.5 52.5,-21.5 52.5,-0.5 -0.5,-0.5"/>
<text text-anchor="middle" x="26" y="-8.5" font-family="Verdana" font-size="10.00">stdint.h</text>
</g>
<!-- Node5&#45;&gt;Node8 -->
<g id="edge14" class="edge"><title>Node5&#45;&gt;Node8</title>
<path fill="none" stroke="midnightblue" d="M398.41,-121.838C386.074,-119.932 371.899,-117.8 359,-116 295.776,-107.179 128.611,-113.057 74,-80 55.1848,-68.6107 41.8865,-46.7154 34.1307,-30.6325"/>
<polygon fill="midnightblue" stroke="midnightblue" points="37.3206,-29.192 30.0182,-21.5157 30.9398,-32.0704 37.3206,-29.192"/>
</g>
<!-- Node5&#45;&gt;Node9 -->
<g id="edge16" class="edge"><title>Node5&#45;&gt;Node9</title>
<path fill="none" stroke="midnightblue" d="M463.748,-118.813C510.727,-107.068 596.212,-85.6969 638.276,-75.1811"/>
<polygon fill="midnightblue" stroke="midnightblue" points="639.132,-78.5748 647.984,-72.7539 637.434,-71.7838 639.132,-78.5748"/>
</g>
<!-- Node10 -->
<g id="node19" class="node"><title>Node10</title>
<polygon fill="white" stroke="#bfbfbf" points="344,-58.5 344,-79.5 408,-79.5 408,-58.5 344,-58.5"/>
<text text-anchor="middle" x="376" y="-66.5" font-family="Verdana" font-size="10.00">XmlSink.h</text>
</g>
<!-- Node5&#45;&gt;Node10 -->
<g id="edge18" class="edge"><title>Node5&#45;&gt;Node10</title>
<path fill="none" stroke="midnightblue" d="M420.912,-116.362C413.159,-108.186 402.27,-96.7025 393.155,-87.0907"/>
<polygon fill="midnightblue" stroke="midnightblue" points="395.445,-84.4186 386.024,-79.5707 390.365,-89.2352 395.445,-84.4186"/>
</g>
<!-- Node11 -->
<g id="node21" class="node"><title>Node11</title>
<polygon fill="white" stroke="#bfbfbf" points="425.5,-58.5 425.5,-79.5 502.5,-79.5 502.5,-58.5 425.5,-58.5"/>
<text text-anchor="middle" x="464" y="-66.5" font-family="Verdana" font-size="10.00">XmlSource.h</text>
</g>
<!-- Node5&#45;&gt;Node11 -->
<g id="edge20" class="edge"><title>Node5&#45;&gt;Node11</title>
<path fill="none" stroke="midnightblue" d="M437.053,-116.362C441.472,-108.595 447.59,-97.8426 452.879,-88.5458"/>
<polygon fill="midnightblue" stroke="midnightblue" points="456.082,-89.9932 457.986,-79.5707 449.998,-86.5315 456.082,-89.9932"/>
</g>
<!-- Node12 -->
<g id="node23" class="node"><title>Node12</title>
<a xlink:href="PathNavigator_8h.html" target="_top" xlink:title="PathNavigator.h">
<polygon fill="white" stroke="black" points="92,-58.5 92,-79.5 184,-79.5 184,-58.5 92,-58.5"/>
<text text-anchor="middle" x="138" y="-66.5" font-family="Verdana" font-size="10.00">PathNavigator.h</text>
</a>
</g>
<!-- Node5&#45;&gt;Node12 -->
<g id="edge22" class="edge"><title>Node5&#45;&gt;Node12</title>
<path fill="none" stroke="midnightblue" d="M398.272,-120.563C354.268,-111.903 273.317,-95.9503 194.332,-80.2618"/>
<polygon fill="midnightblue" stroke="midnightblue" points="194.702,-76.7669 184.212,-78.2508 193.338,-83.6327 194.702,-76.7669"/>
</g>
<!-- Node12&#45;&gt;Node6 -->
<g id="edge26" class="edge"><title>Node12&#45;&gt;Node6</title>
<path fill="none" stroke="midnightblue" d="M184.166,-59.4929C187.151,-58.9629 190.115,-58.4598 193,-58 326.669,-36.6943 487.255,-20.4062 554.694,-13.9847"/>
<polygon fill="midnightblue" stroke="midnightblue" points="555.073,-17.4646 564.699,-13.0396 554.414,-10.4957 555.073,-17.4646"/>
</g>
<!-- Node12&#45;&gt;Node7 -->
<g id="edge24" class="edge"><title>Node12&#45;&gt;Node7</title>
<path fill="none" stroke="midnightblue" d="M133.965,-58.3619C131.081,-50.7584 127.112,-40.294 123.637,-31.1349"/>
<polygon fill="midnightblue" stroke="midnightblue" points="126.829,-29.6793 120.01,-21.5707 120.284,-32.1619 126.829,-29.6793"/>
</g>
<!-- Node12&#45;&gt;Node8 -->
<g id="edge28" class="edge"><title>Node12&#45;&gt;Node8</title>
<path fill="none" stroke="midnightblue" d="M117.718,-58.4966C100.382,-49.5194 75.2096,-36.4835 55.6196,-26.3387"/>
<polygon fill="midnightblue" stroke="midnightblue" points="56.9994,-23.1118 46.5099,-21.6212 53.7804,-29.3278 56.9994,-23.1118"/>
</g>
<!-- Node13&#45;&gt;Node5 -->
<g id="edge36" class="edge"><title>Node13&#45;&gt;Node5</title>
<path fill="none" stroke="midnightblue" d="M431,-174.362C431,-166.922 431,-156.743 431,-147.728"/>
<polygon fill="midnightblue" stroke="midnightblue" points="434.5,-147.571 431,-137.571 427.5,-147.571 434.5,-147.571"/>
</g>
<!-- Node13&#45;&gt;Node6 -->
<g id="edge38" class="edge"><title>Node13&#45;&gt;Node6</title>
<path fill="none" stroke="midnightblue" d="M443.246,-174.299C463.881,-155.988 506.417,-117.031 538,-80 551.609,-64.044 565.275,-44.4307 574.704,-30.1988"/>
<polygon fill="midnightblue" stroke="midnightblue" points="577.706,-32.0021 580.245,-21.7159 571.846,-28.174 577.706,-32.0021"/>
</g>
<!-- Node14&#45;&gt;Node6 -->
<g id="edge46" class="edge"><title>Node14&#45;&gt;Node6</title>
<path fill="none" stroke="midnightblue" d="M819.885,-232.319C830.972,-199.749 858.694,-101.28 806,-58 777.758,-34.8036 672.92,-20.3322 619.195,-14.279"/>
<polygon fill="midnightblue" stroke="midnightblue" points="619.491,-10.7906 609.169,-13.1805 618.728,-17.7489 619.491,-10.7906"/>
</g>
<!-- Node15&#45;&gt;Node6 -->
<g id="edge52" class="edge"><title>Node15&#45;&gt;Node6</title>
<path fill="none" stroke="midnightblue" d="M789.587,-116.345C795.16,-101.552 802.282,-74.7269 789,-58 768.158,-31.7514 670.796,-18.8236 619.235,-13.724"/>
<polygon fill="midnightblue" stroke="midnightblue" points="619.556,-10.2389 609.27,-12.7797 618.895,-17.2077 619.556,-10.2389"/>
</g>
<!-- Node15&#45;&gt;Node9 -->
<g id="edge54" class="edge"><title>Node15&#45;&gt;Node9</title>
<path fill="none" stroke="midnightblue" d="M762.907,-116.497C741.493,-106.316 709.101,-90.9169 687.048,-80.4328"/>
<polygon fill="midnightblue" stroke="midnightblue" points="688.541,-77.2669 678.006,-76.1342 685.535,-83.5888 688.541,-77.2669"/>
</g>
<!-- Node16 -->
<g id="node41" class="node"><title>Node16</title>
<polygon fill="white" stroke="#bfbfbf" points="748,-58.5 748,-79.5 780,-79.5 780,-58.5 748,-58.5"/>
<text text-anchor="middle" x="764" y="-66.5" font-family="Verdana" font-size="10.00">set</text>
</g>
<!-- Node15&#45;&gt;Node16 -->
<g id="edge50" class="edge"><title>Node15&#45;&gt;Node16</title>
<path fill="none" stroke="midnightblue" d="M781.148,-116.362C778.395,-108.758 774.606,-98.294 771.29,-89.1349"/>
<polygon fill="midnightblue" stroke="midnightblue" points="774.523,-87.7818 767.827,-79.5707 767.941,-90.1649 774.523,-87.7818"/>
</g>
<!-- Node17&#45;&gt;Node6 -->
<g id="edge58" class="edge"><title>Node17&#45;&gt;Node6</title>
<path fill="none" stroke="midnightblue" d="M892.772,-232.152C891.464,-199.954 882.919,-104.298 828,-58 796.78,-31.6813 677.322,-18.4326 619.175,-13.4311"/>
<polygon fill="midnightblue" stroke="midnightblue" points="619.321,-9.93136 609.066,-12.592 618.742,-16.9074 619.321,-9.93136"/>
</g>
<!-- Node18&#45;&gt;Node6 -->
<g id="edge70" class="edge"><title>Node18&#45;&gt;Node6</title>
<path fill="none" stroke="midnightblue" d="M282.718,-116.378C291.671,-100.855 310.534,-72.2725 335,-58 371.913,-36.4665 495.262,-20.7907 554.588,-14.3025"/>
<polygon fill="midnightblue" stroke="midnightblue" points="555.315,-17.7446 564.885,-13.1985 554.569,-10.7845 555.315,-17.7446"/>
</g>
<!-- Node18&#45;&gt;Node8 -->
<g id="edge64" class="edge"><title>Node18&#45;&gt;Node8</title>
<path fill="none" stroke="midnightblue" d="M203.283,-124.214C133.525,-119.844 36.013,-108.647 12,-80 0.534452,-66.322 6.70276,-45.7997 14.1192,-30.6904"/>
<polygon fill="midnightblue" stroke="midnightblue" points="17.3196,-32.1302 19.0003,-21.6695 11.1631,-28.799 17.3196,-32.1302"/>
</g>
<!-- Node19 -->
<g id="node52" class="node"><title>Node19</title>
<a xlink:href="ErrorContext_8h.html" target="_top" xlink:title="ErrorContext.h">
<polygon fill="white" stroke="black" points="202,-58.5 202,-79.5 288,-79.5 288,-58.5 202,-58.5"/>
<text text-anchor="middle" x="245" y="-66.5" font-family="Verdana" font-size="10.00">ErrorContext.h</text>
</a>
</g>
<!-- Node18&#45;&gt;Node19 -->
<g id="edge66" class="edge"><title>Node18&#45;&gt;Node19</title>
<path fill="none" stroke="midnightblue" d="M271.131,-116.362C266.845,-108.595 260.913,-97.8426 255.784,-88.5458"/>
<polygon fill="midnightblue" stroke="midnightblue" points="258.727,-86.6357 250.832,-79.5707 252.598,-90.0172 258.727,-86.6357"/>
</g>
<!-- Node19&#45;&gt;Node6 -->
<g id="edge68" class="edge"><title>Node19&#45;&gt;Node6</title>
<path fill="none" stroke="midnightblue" d="M288.237,-60.528C292.879,-59.6566 297.536,-58.7987 302,-58 393.44,-41.6401 501.77,-24.3477 554.672,-16.0379"/>
<polygon fill="midnightblue" stroke="midnightblue" points="555.455,-19.4579 564.792,-14.4516 554.371,-12.5424 555.455,-19.4579"/>
</g>
</g>
</svg>
