<?xml version="1.0" encoding="UTF-8" standalone="no"?>
<!DOCTYPE svg PUBLIC "-//W3C//DTD SVG 1.1//EN"
 "http://www.w3.org/Graphics/SVG/1.1/DTD/svg11.dtd">
<!-- Generated by graphviz version 2.26.3 (20100126.1600)
 -->
<!-- Title: parameter/IntegerParameterType.h Pages: 1 -->
<svg width="338pt" height="116pt"
 viewBox="0.00 0.00 338.00 116.00" xmlns="http://www.w3.org/2000/svg" xmlns:xlink="http://www.w3.org/1999/xlink">
<g id="graph1" class="graph" transform="scale(1 1) rotate(0) translate(4 112)">
<title>parameter/IntegerParameterType.h</title>
<polygon fill="white" stroke="white" points="-4,5 -4,-112 335,-112 335,5 -4,5"/>
<!-- Node1 -->
<g id="node1" class="node"><title>Node1</title>
<polygon fill="#bfbfbf" stroke="black" points="86.5,-73 86.5,-107 241.5,-107 241.5,-73 86.5,-73"/>
<text text-anchor="start" x="94.5" y="-94" font-family="Verdana" font-size="10.00">parameter/IntegerParameter</text>
<text text-anchor="middle" x="164" y="-81" font-family="Verdana" font-size="10.00">Type.h</text>
</g>
<!-- Node2 -->
<g id="node3" class="node"><title>Node2</title>
<a xlink:href="IntegerParameterType_8cpp.html" target="_top" xlink:title="parameter/IntegerParameter\lType.cpp">
<polygon fill="white" stroke="black" points="-0.5,-1 -0.5,-35 154.5,-35 154.5,-1 -0.5,-1"/>
<text text-anchor="start" x="7.5" y="-22" font-family="Verdana" font-size="10.00">parameter/IntegerParameter</text>
<text text-anchor="middle" x="77" y="-9" font-family="Verdana" font-size="10.00">Type.cpp</text>
</a>
</g>
<!-- Node1&#45;&gt;Node2 -->
<g id="edge2" class="edge"><title>Node1&#45;&gt;Node2</title>
<path fill="none" stroke="midnightblue" d="M135.596,-66.493C123.267,-56.2899 109.091,-44.5583 97.7713,-35.19"/>
<polygon fill="midnightblue" stroke="midnightblue" points="133.447,-69.2577 143.382,-72.937 137.91,-63.8649 133.447,-69.2577"/>
</g>
<!-- Node3 -->
<g id="node5" class="node"><title>Node3</title>
<a xlink:href="ParameterMgr_8cpp.html" target="_top" xlink:title="parameter/ParameterMgr.cpp">
<polygon fill="white" stroke="black" points="172,-7.5 172,-28.5 330,-28.5 330,-7.5 172,-7.5"/>
<text text-anchor="middle" x="251" y="-15.5" font-family="Verdana" font-size="10.00">parameter/ParameterMgr.cpp</text>
</a>
</g>
<!-- Node1&#45;&gt;Node3 -->
<g id="edge4" class="edge"><title>Node1&#45;&gt;Node3</title>
<path fill="none" stroke="midnightblue" d="M192.363,-66.527C207.772,-53.7747 226.076,-38.6265 238.085,-28.688"/>
<polygon fill="midnightblue" stroke="midnightblue" points="190.09,-63.8649 184.618,-72.937 194.553,-69.2577 190.09,-63.8649"/>
</g>
</g>
</svg>
