<?xml version="1.0" encoding="UTF-8" standalone="no"?>
<!DOCTYPE svg PUBLIC "-//W3C//DTD SVG 1.1//EN"
 "http://www.w3.org/Graphics/SVG/1.1/DTD/svg11.dtd">
<!-- Generated by graphviz version 2.26.3 (20100126.1600)
 -->
<!-- Title: parameter/IntegerParameterType.cpp Pages: 1 -->
<svg width="1077pt" height="392pt"
 viewBox="0.00 0.00 1077.00 392.00" xmlns="http://www.w3.org/2000/svg" xmlns:xlink="http://www.w3.org/1999/xlink">
<g id="graph1" class="graph" transform="scale(1 1) rotate(0) translate(4 388)">
<title>parameter/IntegerParameterType.cpp</title>
<polygon fill="white" stroke="white" points="-4,5 -4,-388 1074,-388 1074,5 -4,5"/>
<!-- Node1 -->
<g id="node1" class="node"><title>Node1</title>
<polygon fill="#bfbfbf" stroke="black" points="713.5,-349 713.5,-383 868.5,-383 868.5,-349 713.5,-349"/>
<text text-anchor="start" x="721.5" y="-370" font-family="Verdana" font-size="10.00">parameter/IntegerParameter</text>
<text text-anchor="middle" x="791" y="-357" font-family="Verdana" font-size="10.00">Type.cpp</text>
</g>
<!-- Node2 -->
<g id="node3" class="node"><title>Node2</title>
<a xlink:href="IntegerParameterType_8h.html" target="_top" xlink:title="IntegerParameterType.h">
<polygon fill="white" stroke="black" points="544.5,-290.5 544.5,-311.5 675.5,-311.5 675.5,-290.5 544.5,-290.5"/>
<text text-anchor="middle" x="610" y="-298.5" font-family="Verdana" font-size="10.00">IntegerParameterType.h</text>
</a>
</g>
<!-- Node1&#45;&gt;Node2 -->
<g id="edge2" class="edge"><title>Node1&#45;&gt;Node2</title>
<path fill="none" stroke="midnightblue" d="M743.444,-348.922C714.06,-338.37 676.812,-324.993 649.14,-315.056"/>
<polygon fill="midnightblue" stroke="midnightblue" points="650.006,-311.648 639.411,-311.562 647.64,-318.236 650.006,-311.648"/>
</g>
<!-- Node14 -->
<g id="node34" class="node"><title>Node14</title>
<polygon fill="white" stroke="#bfbfbf" points="730.5,-290.5 730.5,-311.5 781.5,-311.5 781.5,-290.5 730.5,-290.5"/>
<text text-anchor="middle" x="756" y="-298.5" font-family="Verdana" font-size="10.00">stdlib.h</text>
</g>
<!-- Node1&#45;&gt;Node14 -->
<g id="edge40" class="edge"><title>Node1&#45;&gt;Node14</title>
<path fill="none" stroke="midnightblue" d="M781.804,-348.922C777.164,-340.304 771.509,-329.802 766.677,-320.828"/>
<polygon fill="midnightblue" stroke="midnightblue" points="769.666,-318.997 761.843,-311.852 763.503,-322.316 769.666,-318.997"/>
</g>
<!-- Node15 -->
<g id="node36" class="node"><title>Node15</title>
<polygon fill="white" stroke="#bfbfbf" points="799,-290.5 799,-311.5 855,-311.5 855,-290.5 799,-290.5"/>
<text text-anchor="middle" x="827" y="-298.5" font-family="Verdana" font-size="10.00">sstream</text>
</g>
<!-- Node1&#45;&gt;Node15 -->
<g id="edge42" class="edge"><title>Node1&#45;&gt;Node15</title>
<path fill="none" stroke="midnightblue" d="M800.459,-348.922C805.232,-340.304 811.048,-329.802 816.018,-320.828"/>
<polygon fill="midnightblue" stroke="midnightblue" points="819.206,-322.296 820.99,-311.852 813.083,-318.904 819.206,-322.296"/>
</g>
<!-- Node16 -->
<g id="node38" class="node"><title>Node16</title>
<polygon fill="white" stroke="#bfbfbf" points="872.5,-290.5 872.5,-311.5 927.5,-311.5 927.5,-290.5 872.5,-290.5"/>
<text text-anchor="middle" x="900" y="-298.5" font-family="Verdana" font-size="10.00">iomanip</text>
</g>
<!-- Node1&#45;&gt;Node16 -->
<g id="edge44" class="edge"><title>Node1&#45;&gt;Node16</title>
<path fill="none" stroke="midnightblue" d="M819.638,-348.922C836.195,-339.049 856.897,-326.704 873.142,-317.016"/>
<polygon fill="midnightblue" stroke="midnightblue" points="875.331,-319.786 882.127,-311.658 871.745,-313.774 875.331,-319.786"/>
</g>
<!-- Node17 -->
<g id="node40" class="node"><title>Node17</title>
<a xlink:href="ParameterAccessContext_8h.html" target="_top" xlink:title="ParameterAccessContext.h">
<polygon fill="white" stroke="black" points="647.5,-116.5 647.5,-137.5 794.5,-137.5 794.5,-116.5 647.5,-116.5"/>
<text text-anchor="middle" x="721" y="-124.5" font-family="Verdana" font-size="10.00">ParameterAccessContext.h</text>
</a>
</g>
<!-- Node1&#45;&gt;Node17 -->
<g id="edge46" class="edge"><title>Node1&#45;&gt;Node17</title>
<path fill="none" stroke="midnightblue" d="M757.912,-348.958C744.156,-339.98 729.638,-327.569 722,-312 695.335,-257.645 707.396,-183.033 715.61,-147.466"/>
<polygon fill="midnightblue" stroke="midnightblue" points="719.011,-148.292 717.989,-137.747 712.212,-146.628 719.011,-148.292"/>
</g>
<!-- Node19 -->
<g id="node47" class="node"><title>Node19</title>
<polygon fill="white" stroke="#bfbfbf" points="945,-290.5 945,-311.5 1001,-311.5 1001,-290.5 945,-290.5"/>
<text text-anchor="middle" x="973" y="-298.5" font-family="Verdana" font-size="10.00">assert.h</text>
</g>
<!-- Node1&#45;&gt;Node19 -->
<g id="edge56" class="edge"><title>Node1&#45;&gt;Node19</title>
<path fill="none" stroke="midnightblue" d="M838.818,-348.922C868.966,-338.155 907.345,-324.448 935.328,-314.454"/>
<polygon fill="midnightblue" stroke="midnightblue" points="936.522,-317.744 944.762,-311.085 934.168,-311.152 936.522,-317.744"/>
</g>
<!-- Node20 -->
<g id="node49" class="node"><title>Node20</title>
<a xlink:href="ParameterAdaptation_8h.html" target="_top" xlink:title="ParameterAdaptation.h">
<polygon fill="white" stroke="black" points="280,-174.5 280,-195.5 408,-195.5 408,-174.5 280,-174.5"/>
<text text-anchor="middle" x="344" y="-182.5" font-family="Verdana" font-size="10.00">ParameterAdaptation.h</text>
</a>
</g>
<!-- Node1&#45;&gt;Node20 -->
<g id="edge58" class="edge"><title>Node1&#45;&gt;Node20</title>
<path fill="none" stroke="midnightblue" d="M713.427,-357.281C661.691,-349.625 592.977,-335.857 536,-312 467.691,-283.398 397.678,-229.665 364.215,-202.166"/>
<polygon fill="midnightblue" stroke="midnightblue" points="366.447,-199.47 356.518,-195.771 361.973,-204.854 366.447,-199.47"/>
</g>
<!-- Node21 -->
<g id="node53" class="node"><title>Node21</title>
<polygon fill="white" stroke="#bfbfbf" points="1018.5,-290.5 1018.5,-311.5 1069.5,-311.5 1069.5,-290.5 1018.5,-290.5"/>
<text text-anchor="middle" x="1044" y="-298.5" font-family="Verdana" font-size="10.00">errno.h</text>
</g>
<!-- Node1&#45;&gt;Node21 -->
<g id="edge64" class="edge"><title>Node1&#45;&gt;Node21</title>
<path fill="none" stroke="midnightblue" d="M865.598,-348.997C905.619,-339.548 955.956,-327.145 1008.59,-312.287"/>
<polygon fill="midnightblue" stroke="midnightblue" points="1009.78,-315.587 1018.44,-309.485 1007.86,-308.855 1009.78,-315.587"/>
</g>
<!-- Node3 -->
<g id="node5" class="node"><title>Node3</title>
<a xlink:href="ParameterType_8h.html" target="_top" xlink:title="ParameterType.h">
<polygon fill="white" stroke="black" points="491.5,-232.5 491.5,-253.5 588.5,-253.5 588.5,-232.5 491.5,-232.5"/>
<text text-anchor="middle" x="540" y="-240.5" font-family="Verdana" font-size="10.00">ParameterType.h</text>
</a>
</g>
<!-- Node2&#45;&gt;Node3 -->
<g id="edge4" class="edge"><title>Node2&#45;&gt;Node3</title>
<path fill="none" stroke="midnightblue" d="M597.161,-290.362C586.998,-281.941 572.599,-270.011 560.796,-260.231"/>
<polygon fill="midnightblue" stroke="midnightblue" points="562.691,-257.256 552.758,-253.571 558.225,-262.646 562.691,-257.256"/>
</g>
<!-- Node8 -->
<g id="node15" class="node"><title>Node8</title>
<polygon fill="white" stroke="#bfbfbf" points="522,-0.5 522,-21.5 566,-21.5 566,-0.5 522,-0.5"/>
<text text-anchor="middle" x="544" y="-8.5" font-family="Verdana" font-size="10.00">string</text>
</g>
<!-- Node2&#45;&gt;Node8 -->
<g id="edge38" class="edge"><title>Node2&#45;&gt;Node8</title>
<path fill="none" stroke="midnightblue" d="M612.779,-290.315C618.069,-268.283 628.269,-216.32 619,-174 606.912,-118.81 574.306,-60.0052 556.323,-30.4098"/>
<polygon fill="midnightblue" stroke="midnightblue" points="559.279,-28.5342 551.043,-21.8689 553.325,-32.2152 559.279,-28.5342"/>
</g>
<!-- Node4 -->
<g id="node7" class="node"><title>Node4</title>
<polygon fill="white" stroke="#bfbfbf" points="104.5,-0.5 104.5,-21.5 157.5,-21.5 157.5,-0.5 104.5,-0.5"/>
<text text-anchor="middle" x="131" y="-8.5" font-family="Verdana" font-size="10.00">stdint.h</text>
</g>
<!-- Node3&#45;&gt;Node4 -->
<g id="edge6" class="edge"><title>Node3&#45;&gt;Node4</title>
<path fill="none" stroke="midnightblue" d="M491.35,-238.79C436.662,-233.08 345.745,-220.63 271,-196 161.509,-159.921 99.6072,-178.064 39,-80 22.2583,-52.9113 62.0916,-32.7928 94.501,-21.4744"/>
<polygon fill="midnightblue" stroke="midnightblue" points="95.857,-24.7123 104.25,-18.2463 93.6566,-18.0671 95.857,-24.7123"/>
</g>
<!-- Node5 -->
<g id="node9" class="node"><title>Node5</title>
<polygon fill="white" stroke="#bfbfbf" points="568,-174.5 568,-195.5 610,-195.5 610,-174.5 568,-174.5"/>
<text text-anchor="middle" x="589" y="-182.5" font-family="Verdana" font-size="10.00">limits</text>
</g>
<!-- Node3&#45;&gt;Node5 -->
<g id="edge8" class="edge"><title>Node3&#45;&gt;Node5</title>
<path fill="none" stroke="midnightblue" d="M548.987,-232.362C555.825,-224.268 565.402,-212.932 573.472,-203.38"/>
<polygon fill="midnightblue" stroke="midnightblue" points="576.29,-205.468 580.07,-195.571 570.942,-200.951 576.29,-205.468"/>
</g>
<!-- Node6 -->
<g id="node11" class="node"><title>Node6</title>
<a xlink:href="TypeElement_8h.html" target="_top" xlink:title="TypeElement.h">
<polygon fill="white" stroke="black" points="426,-174.5 426,-195.5 512,-195.5 512,-174.5 426,-174.5"/>
<text text-anchor="middle" x="469" y="-182.5" font-family="Verdana" font-size="10.00">TypeElement.h</text>
</a>
</g>
<!-- Node3&#45;&gt;Node6 -->
<g id="edge10" class="edge"><title>Node3&#45;&gt;Node6</title>
<path fill="none" stroke="midnightblue" d="M526.978,-232.362C516.569,-223.859 501.781,-211.779 489.745,-201.947"/>
<polygon fill="midnightblue" stroke="midnightblue" points="491.899,-199.187 481.94,-195.571 487.47,-204.608 491.899,-199.187"/>
</g>
<!-- Node3&#45;&gt;Node8 -->
<g id="edge36" class="edge"><title>Node3&#45;&gt;Node8</title>
<path fill="none" stroke="midnightblue" d="M540.182,-232.429C540.799,-196.648 542.816,-79.6628 543.642,-31.7481"/>
<polygon fill="midnightblue" stroke="midnightblue" points="547.144,-31.6924 543.817,-21.6335 540.145,-31.5717 547.144,-31.6924"/>
</g>
<!-- Node7 -->
<g id="node13" class="node"><title>Node7</title>
<a xlink:href="Element_8h.html" target="_top" xlink:title="Element.h">
<polygon fill="white" stroke="black" points="243.5,-116.5 243.5,-137.5 308.5,-137.5 308.5,-116.5 243.5,-116.5"/>
<text text-anchor="middle" x="276" y="-124.5" font-family="Verdana" font-size="10.00">Element.h</text>
</a>
</g>
<!-- Node6&#45;&gt;Node7 -->
<g id="edge12" class="edge"><title>Node6&#45;&gt;Node7</title>
<path fill="none" stroke="midnightblue" d="M434.049,-174.497C401.62,-164.751 353.276,-150.223 318.601,-139.802"/>
<polygon fill="midnightblue" stroke="midnightblue" points="319.345,-136.371 308.76,-136.845 317.33,-143.075 319.345,-136.371"/>
</g>
<!-- Node6&#45;&gt;Node8 -->
<g id="edge34" class="edge"><title>Node6&#45;&gt;Node8</title>
<path fill="none" stroke="midnightblue" d="M473.579,-174.377C485.788,-146.051 519.281,-68.3488 535.275,-31.2424"/>
<polygon fill="midnightblue" stroke="midnightblue" points="538.546,-32.4964 539.29,-21.9277 532.117,-29.7255 538.546,-32.4964"/>
</g>
<!-- Node7&#45;&gt;Node4 -->
<g id="edge18" class="edge"><title>Node7&#45;&gt;Node4</title>
<path fill="none" stroke="midnightblue" d="M249.385,-116.357C230.752,-108.124 205.907,-95.5234 187,-80 169.621,-65.731 153.879,-45.3438 143.543,-30.4303"/>
<polygon fill="midnightblue" stroke="midnightblue" points="146.327,-28.2977 137.84,-21.9554 140.519,-32.2059 146.327,-28.2977"/>
</g>
<!-- Node7&#45;&gt;Node8 -->
<g id="edge14" class="edge"><title>Node7&#45;&gt;Node8</title>
<path fill="none" stroke="midnightblue" d="M308.685,-117.075C336.339,-108.334 376.812,-94.7292 411,-80 416.258,-77.7347 477.202,-45.9433 514.743,-26.3139"/>
<polygon fill="midnightblue" stroke="midnightblue" points="516.495,-29.347 523.734,-21.6108 513.251,-23.1442 516.495,-29.347"/>
</g>
<!-- Node9 -->
<g id="node17" class="node"><title>Node9</title>
<polygon fill="white" stroke="#bfbfbf" points="-0.5,-0.5 -0.5,-21.5 46.5,-21.5 46.5,-0.5 -0.5,-0.5"/>
<text text-anchor="middle" x="23" y="-8.5" font-family="Verdana" font-size="10.00">vector</text>
</g>
<!-- Node7&#45;&gt;Node9 -->
<g id="edge16" class="edge"><title>Node7&#45;&gt;Node9</title>
<path fill="none" stroke="midnightblue" d="M243.487,-124.839C185.541,-120.315 67.7771,-107.868 39,-80 26.205,-67.6091 22.7667,-47.151 22.1932,-31.7211"/>
<polygon fill="midnightblue" stroke="midnightblue" points="25.6932,-31.5602 22.189,-21.5617 18.6932,-31.5632 25.6932,-31.5602"/>
</g>
<!-- Node10 -->
<g id="node20" class="node"><title>Node10</title>
<polygon fill="white" stroke="#bfbfbf" points="196,-58.5 196,-79.5 226,-79.5 226,-58.5 196,-58.5"/>
<text text-anchor="middle" x="211" y="-66.5" font-family="Verdana" font-size="10.00">list</text>
</g>
<!-- Node7&#45;&gt;Node10 -->
<g id="edge20" class="edge"><title>Node7&#45;&gt;Node10</title>
<path fill="none" stroke="midnightblue" d="M264.078,-116.362C254.641,-107.941 241.27,-96.0105 230.31,-86.2308"/>
<polygon fill="midnightblue" stroke="midnightblue" points="232.638,-83.6171 222.846,-79.5707 227.978,-88.8401 232.638,-83.6171"/>
</g>
<!-- Node11 -->
<g id="node22" class="node"><title>Node11</title>
<polygon fill="white" stroke="#bfbfbf" points="244,-58.5 244,-79.5 308,-79.5 308,-58.5 244,-58.5"/>
<text text-anchor="middle" x="276" y="-66.5" font-family="Verdana" font-size="10.00">XmlSink.h</text>
</g>
<!-- Node7&#45;&gt;Node11 -->
<g id="edge22" class="edge"><title>Node7&#45;&gt;Node11</title>
<path fill="none" stroke="midnightblue" d="M276,-116.362C276,-108.922 276,-98.7427 276,-89.7276"/>
<polygon fill="midnightblue" stroke="midnightblue" points="279.5,-89.5706 276,-79.5707 272.5,-89.5707 279.5,-89.5706"/>
</g>
<!-- Node12 -->
<g id="node24" class="node"><title>Node12</title>
<polygon fill="white" stroke="#bfbfbf" points="325.5,-58.5 325.5,-79.5 402.5,-79.5 402.5,-58.5 325.5,-58.5"/>
<text text-anchor="middle" x="364" y="-66.5" font-family="Verdana" font-size="10.00">XmlSource.h</text>
</g>
<!-- Node7&#45;&gt;Node12 -->
<g id="edge24" class="edge"><title>Node7&#45;&gt;Node12</title>
<path fill="none" stroke="midnightblue" d="M292.141,-116.362C305.414,-107.614 324.432,-95.0786 339.57,-85.1015"/>
<polygon fill="midnightblue" stroke="midnightblue" points="341.538,-87.9962 347.962,-79.5707 337.686,-82.1515 341.538,-87.9962"/>
</g>
<!-- Node13 -->
<g id="node26" class="node"><title>Node13</title>
<a xlink:href="PathNavigator_8h.html" target="_top" xlink:title="PathNavigator.h">
<polygon fill="white" stroke="black" points="48,-58.5 48,-79.5 140,-79.5 140,-58.5 48,-58.5"/>
<text text-anchor="middle" x="94" y="-66.5" font-family="Verdana" font-size="10.00">PathNavigator.h</text>
</a>
</g>
<!-- Node7&#45;&gt;Node13 -->
<g id="edge26" class="edge"><title>Node7&#45;&gt;Node13</title>
<path fill="none" stroke="midnightblue" d="M243.462,-116.631C213.718,-107.152 169.524,-93.0681 136.902,-82.6721"/>
<polygon fill="midnightblue" stroke="midnightblue" points="137.769,-79.275 127.178,-79.5733 135.643,-85.9445 137.769,-79.275"/>
</g>
<!-- Node13&#45;&gt;Node4 -->
<g id="edge32" class="edge"><title>Node13&#45;&gt;Node4</title>
<path fill="none" stroke="midnightblue" d="M100.786,-58.3619C105.793,-50.5131 112.745,-39.6159 118.718,-30.2527"/>
<polygon fill="midnightblue" stroke="midnightblue" points="121.829,-31.8837 124.257,-21.5707 115.928,-28.1189 121.829,-31.8837"/>
</g>
<!-- Node13&#45;&gt;Node8 -->
<g id="edge30" class="edge"><title>Node13&#45;&gt;Node8</title>
<path fill="none" stroke="midnightblue" d="M140.043,-63.0656C231.182,-51.3188 432.562,-25.3631 511.424,-15.1987"/>
<polygon fill="midnightblue" stroke="midnightblue" points="512.244,-18.622 521.714,-13.8724 511.349,-11.6795 512.244,-18.622"/>
</g>
<!-- Node13&#45;&gt;Node9 -->
<g id="edge28" class="edge"><title>Node13&#45;&gt;Node9</title>
<path fill="none" stroke="midnightblue" d="M80.9775,-58.3619C70.5688,-49.859 55.7806,-37.7785 43.7449,-27.9466"/>
<polygon fill="midnightblue" stroke="midnightblue" points="45.8987,-25.1866 35.9399,-21.5707 41.4701,-30.6077 45.8987,-25.1866"/>
</g>
<!-- Node17&#45;&gt;Node4 -->
<g id="edge48" class="edge"><title>Node17&#45;&gt;Node4</title>
<path fill="none" stroke="midnightblue" d="M677.004,-116.44C617.051,-102.226 506.245,-76.5802 411,-58 324.144,-41.0563 221.404,-24.7624 167.775,-16.5401"/>
<polygon fill="midnightblue" stroke="midnightblue" points="168.137,-13.0549 157.723,-15.0054 167.08,-19.9747 168.137,-13.0549"/>
</g>
<!-- Node17&#45;&gt;Node8 -->
<g id="edge54" class="edge"><title>Node17&#45;&gt;Node8</title>
<path fill="none" stroke="midnightblue" d="M709.159,-116.41C692.906,-102.162 662.456,-76.4773 634,-58 615.289,-45.8506 593.081,-34.2265 575.408,-25.578"/>
<polygon fill="midnightblue" stroke="midnightblue" points="576.634,-22.2839 566.107,-21.0949 573.595,-28.5897 576.634,-22.2839"/>
</g>
<!-- Node18 -->
<g id="node43" class="node"><title>Node18</title>
<a xlink:href="ErrorContext_8h.html" target="_top" xlink:title="ErrorContext.h">
<polygon fill="white" stroke="black" points="686,-58.5 686,-79.5 772,-79.5 772,-58.5 686,-58.5"/>
<text text-anchor="middle" x="729" y="-66.5" font-family="Verdana" font-size="10.00">ErrorContext.h</text>
</a>
</g>
<!-- Node17&#45;&gt;Node18 -->
<g id="edge50" class="edge"><title>Node17&#45;&gt;Node18</title>
<path fill="none" stroke="midnightblue" d="M722.467,-116.362C723.494,-108.922 724.898,-98.7427 726.141,-89.7276"/>
<polygon fill="midnightblue" stroke="midnightblue" points="729.643,-89.9551 727.542,-79.5707 722.708,-88.9986 729.643,-89.9551"/>
</g>
<!-- Node18&#45;&gt;Node8 -->
<g id="edge52" class="edge"><title>Node18&#45;&gt;Node8</title>
<path fill="none" stroke="midnightblue" d="M695.498,-58.4966C661.527,-47.8464 609.336,-31.4837 575.938,-21.013"/>
<polygon fill="midnightblue" stroke="midnightblue" points="576.807,-17.6174 566.218,-17.9655 574.713,-24.2969 576.807,-17.6174"/>
</g>
<!-- Node20&#45;&gt;Node7 -->
<g id="edge60" class="edge"><title>Node20&#45;&gt;Node7</title>
<path fill="none" stroke="midnightblue" d="M331.528,-174.362C321.655,-165.941 307.667,-154.011 296.202,-144.231"/>
<polygon fill="midnightblue" stroke="midnightblue" points="298.273,-141.397 288.393,-137.571 293.73,-146.723 298.273,-141.397"/>
</g>
<!-- Node20&#45;&gt;Node8 -->
<g id="edge62" class="edge"><title>Node20&#45;&gt;Node8</title>
<path fill="none" stroke="midnightblue" d="M356.21,-174.377C389.614,-145.316 482.754,-64.2843 523.956,-28.4381"/>
<polygon fill="midnightblue" stroke="midnightblue" points="526.449,-30.9089 531.696,-21.7046 521.854,-25.6277 526.449,-30.9089"/>
</g>
</g>
</svg>
