<?xml version="1.0" encoding="UTF-8" standalone="no"?>
<!DOCTYPE svg PUBLIC "-//W3C//DTD SVG 1.1//EN"
 "http://www.w3.org/Graphics/SVG/1.1/DTD/svg11.dtd">
<!-- Generated by graphviz version 2.26.3 (20100126.1600)
 -->
<!-- Title: parameter/KindElement.h Pages: 1 -->
<svg width="1712pt" height="376pt"
 viewBox="0.00 0.00 1712.00 376.00" xmlns="http://www.w3.org/2000/svg" xmlns:xlink="http://www.w3.org/1999/xlink">
<g id="graph1" class="graph" transform="scale(1 1) rotate(0) translate(4 372)">
<title>parameter/KindElement.h</title>
<polygon fill="white" stroke="white" points="-4,5 -4,-372 1709,-372 1709,5 -4,5"/>
<!-- Node1 -->
<g id="node1" class="node"><title>Node1</title>
<polygon fill="#bfbfbf" stroke="black" points="1165,-346.5 1165,-367.5 1305,-367.5 1305,-346.5 1165,-346.5"/>
<text text-anchor="middle" x="1235" y="-354.5" font-family="Verdana" font-size="10.00">parameter/KindElement.h</text>
</g>
<!-- Node2 -->
<g id="node3" class="node"><title>Node2</title>
<a xlink:href="SubsystemPlugins_8h.html" target="_top" xlink:title="parameter/SubsystemPlugins.h">
<polygon fill="white" stroke="black" points="919.5,-281.5 919.5,-302.5 1086.5,-302.5 1086.5,-281.5 919.5,-281.5"/>
<text text-anchor="middle" x="1003" y="-289.5" font-family="Verdana" font-size="10.00">parameter/SubsystemPlugins.h</text>
</a>
</g>
<!-- Node1&#45;&gt;Node2 -->
<g id="edge2" class="edge"><title>Node1&#45;&gt;Node2</title>
<path fill="none" stroke="midnightblue" d="M1187.69,-343.745C1144.19,-331.558 1080.55,-313.728 1040.48,-302.501"/>
<polygon fill="midnightblue" stroke="midnightblue" points="1186.89,-347.157 1197.47,-346.484 1188.78,-340.416 1186.89,-347.157"/>
</g>
<!-- Node13 -->
<g id="node29" class="node"><title>Node13</title>
<a xlink:href="XmlFileIncluderElement_8h.html" target="_top" xlink:title="parameter/XmlFileIncluder\lElement.h">
<polygon fill="white" stroke="black" points="1040.5,-131 1040.5,-165 1181.5,-165 1181.5,-131 1040.5,-131"/>
<text text-anchor="start" x="1048.5" y="-152" font-family="Verdana" font-size="10.00">parameter/XmlFileIncluder</text>
<text text-anchor="middle" x="1111" y="-139" font-family="Verdana" font-size="10.00">Element.h</text>
</a>
</g>
<!-- Node1&#45;&gt;Node13 -->
<g id="edge32" class="edge"><title>Node1&#45;&gt;Node13</title>
<path fill="none" stroke="midnightblue" d="M1179.09,-342.824C1161.78,-335.731 1144.3,-325.275 1133,-310 1100.59,-266.192 1104.42,-196.971 1108.36,-165.098"/>
<polygon fill="midnightblue" stroke="midnightblue" points="1178.06,-346.176 1188.66,-346.428 1180.53,-339.626 1178.06,-346.176"/>
</g>
<!-- Node16 -->
<g id="node37" class="node"><title>Node16</title>
<a xlink:href="FrameworkConfigurationGroup_8h.html" target="_top" xlink:title="parameter/FrameworkConfiguration\lGroup.h">
<polygon fill="white" stroke="black" points="1142,-275 1142,-309 1328,-309 1328,-275 1142,-275"/>
<text text-anchor="start" x="1150" y="-296" font-family="Verdana" font-size="10.00">parameter/FrameworkConfiguration</text>
<text text-anchor="middle" x="1235" y="-283" font-family="Verdana" font-size="10.00">Group.h</text>
</a>
</g>
<!-- Node1&#45;&gt;Node16 -->
<g id="edge42" class="edge"><title>Node1&#45;&gt;Node16</title>
<path fill="none" stroke="midnightblue" d="M1235,-336.131C1235,-327.405 1235,-317.391 1235,-309.11"/>
<polygon fill="midnightblue" stroke="midnightblue" points="1231.5,-336.267 1235,-346.267 1238.5,-336.267 1231.5,-336.267"/>
</g>
<!-- Node17 -->
<g id="node40" class="node"><title>Node17</title>
<a xlink:href="FrameworkConfigurationLocation_8h.html" target="_top" xlink:title="parameter/FrameworkConfiguration\lLocation.h">
<polygon fill="white" stroke="black" points="1346,-275 1346,-309 1532,-309 1532,-275 1346,-275"/>
<text text-anchor="start" x="1354" y="-296" font-family="Verdana" font-size="10.00">parameter/FrameworkConfiguration</text>
<text text-anchor="middle" x="1439" y="-283" font-family="Verdana" font-size="10.00">Location.h</text>
</a>
</g>
<!-- Node1&#45;&gt;Node17 -->
<g id="edge46" class="edge"><title>Node1&#45;&gt;Node17</title>
<path fill="none" stroke="midnightblue" d="M1277.97,-343.307C1309.29,-333.329 1351.92,-319.745 1385.46,-309.06"/>
<polygon fill="midnightblue" stroke="midnightblue" points="1276.7,-340.041 1268.23,-346.412 1278.82,-346.711 1276.7,-340.041"/>
</g>
<!-- Node19 -->
<g id="node45" class="node"><title>Node19</title>
<a xlink:href="PluginLocation_8h.html" target="_top" xlink:title="parameter/PluginLocation.h">
<polygon fill="white" stroke="black" points="1549.5,-209.5 1549.5,-230.5 1698.5,-230.5 1698.5,-209.5 1549.5,-209.5"/>
<text text-anchor="middle" x="1624" y="-217.5" font-family="Verdana" font-size="10.00">parameter/PluginLocation.h</text>
</a>
</g>
<!-- Node1&#45;&gt;Node19 -->
<g id="edge52" class="edge"><title>Node1&#45;&gt;Node19</title>
<path fill="none" stroke="midnightblue" d="M1315.37,-350.692C1392.58,-343.562 1502.97,-330.241 1541,-310 1576.84,-290.925 1605.4,-250.215 1617.6,-230.771"/>
<polygon fill="midnightblue" stroke="midnightblue" points="1314.82,-347.228 1305.18,-351.616 1315.45,-354.199 1314.82,-347.228"/>
</g>
<!-- Node3 -->
<g id="node5" class="node"><title>Node3</title>
<a xlink:href="SystemClass_8h.html" target="_top" xlink:title="parameter/SystemClass.h">
<polygon fill="white" stroke="black" points="782,-209.5 782,-230.5 924,-230.5 924,-209.5 782,-209.5"/>
<text text-anchor="middle" x="853" y="-217.5" font-family="Verdana" font-size="10.00">parameter/SystemClass.h</text>
</a>
</g>
<!-- Node2&#45;&gt;Node3 -->
<g id="edge4" class="edge"><title>Node2&#45;&gt;Node3</title>
<path fill="none" stroke="midnightblue" d="M971.634,-276.944C942.79,-263.099 900.743,-242.917 875.224,-230.667"/>
<polygon fill="midnightblue" stroke="midnightblue" points="970.337,-280.204 980.867,-281.376 973.366,-273.893 970.337,-280.204"/>
</g>
<!-- Node9 -->
<g id="node17" class="node"><title>Node9</title>
<a xlink:href="ParameterMgr_8cpp.html" target="_top" xlink:title="parameter/ParameterMgr.cpp">
<polygon fill="white" stroke="black" points="825,-0.5 825,-21.5 983,-21.5 983,-0.5 825,-0.5"/>
<text text-anchor="middle" x="904" y="-8.5" font-family="Verdana" font-size="10.00">parameter/ParameterMgr.cpp</text>
</a>
</g>
<!-- Node2&#45;&gt;Node9 -->
<g id="edge30" class="edge"><title>Node2&#45;&gt;Node9</title>
<path fill="none" stroke="midnightblue" d="M1007.64,-271.309C1013.82,-238.065 1020.73,-172.218 990,-130 965.371,-96.169 926.255,-128.79 903,-94 888.265,-71.9556 895.228,-38.7221 900.31,-21.772"/>
<polygon fill="midnightblue" stroke="midnightblue" points="1004.18,-270.756 1005.62,-281.252 1011.04,-272.147 1004.18,-270.756"/>
</g>
<!-- Node4 -->
<g id="node7" class="node"><title>Node4</title>
<a xlink:href="XmlDomainImportContext_8h.html" target="_top" xlink:title="parameter/XmlDomainImport\lContext.h">
<polygon fill="white" stroke="black" points="378,-131 378,-165 536,-165 536,-131 378,-131"/>
<text text-anchor="start" x="386" y="-152" font-family="Verdana" font-size="10.00">parameter/XmlDomainImport</text>
<text text-anchor="middle" x="457" y="-139" font-family="Verdana" font-size="10.00">Context.h</text>
</a>
</g>
<!-- Node3&#45;&gt;Node4 -->
<g id="edge6" class="edge"><title>Node3&#45;&gt;Node4</title>
<path fill="none" stroke="midnightblue" d="M785.08,-207.651C715.958,-195.083 608.897,-175.618 536.019,-162.367"/>
<polygon fill="midnightblue" stroke="midnightblue" points="784.529,-211.108 794.994,-209.453 785.782,-204.221 784.529,-211.108"/>
</g>
<!-- Node3&#45;&gt;Node9 -->
<g id="edge26" class="edge"><title>Node3&#45;&gt;Node9</title>
<path fill="none" stroke="midnightblue" d="M837.881,-201.079C830.975,-191.231 823.554,-178.632 820,-166 815.666,-150.598 816.679,-145.651 820,-130 827.269,-95.7447 831.453,-86.3565 852,-58 862.425,-43.6132 877.872,-30.3493 889.222,-21.6069"/>
<polygon fill="midnightblue" stroke="midnightblue" points="835.186,-203.321 843.953,-209.271 840.81,-199.153 835.186,-203.321"/>
</g>
<!-- Node12 -->
<g id="node26" class="node"><title>Node12</title>
<a xlink:href="SystemClass_8cpp.html" target="_top" xlink:title="parameter/SystemClass.cpp">
<polygon fill="white" stroke="black" points="828.5,-137.5 828.5,-158.5 981.5,-158.5 981.5,-137.5 828.5,-137.5"/>
<text text-anchor="middle" x="905" y="-145.5" font-family="Verdana" font-size="10.00">parameter/SystemClass.cpp</text>
</a>
</g>
<!-- Node3&#45;&gt;Node12 -->
<g id="edge28" class="edge"><title>Node3&#45;&gt;Node12</title>
<path fill="none" stroke="midnightblue" d="M866.579,-201.198C876.365,-187.649 889.218,-169.851 897.296,-158.667"/>
<polygon fill="midnightblue" stroke="midnightblue" points="863.69,-199.22 860.673,-209.376 869.365,-203.319 863.69,-199.22"/>
</g>
<!-- Node5 -->
<g id="node9" class="node"><title>Node5</title>
<a xlink:href="ConfigurableDomain_8h.html" target="_top" xlink:title="parameter/ConfigurableDomain.h">
<polygon fill="white" stroke="black" points="190.5,-65.5 190.5,-86.5 367.5,-86.5 367.5,-65.5 190.5,-65.5"/>
<text text-anchor="middle" x="279" y="-73.5" font-family="Verdana" font-size="10.00">parameter/ConfigurableDomain.h</text>
</a>
</g>
<!-- Node4&#45;&gt;Node5 -->
<g id="edge8" class="edge"><title>Node4&#45;&gt;Node5</title>
<path fill="none" stroke="midnightblue" d="M405.358,-127.111C372.524,-113.83 331.403,-97.1968 305.161,-86.5821"/>
<polygon fill="midnightblue" stroke="midnightblue" points="404.234,-130.432 414.816,-130.937 406.859,-123.943 404.234,-130.432"/>
</g>
<!-- Node6 -->
<g id="node11" class="node"><title>Node6</title>
<a xlink:href="ConfigurableDomain_8cpp.html" target="_top" xlink:title="parameter/ConfigurableDomain.cpp">
<polygon fill="white" stroke="black" points="0,-0.5 0,-21.5 188,-21.5 188,-0.5 0,-0.5"/>
<text text-anchor="middle" x="94" y="-8.5" font-family="Verdana" font-size="10.00">parameter/ConfigurableDomain.cpp</text>
</a>
</g>
<!-- Node4&#45;&gt;Node6 -->
<g id="edge18" class="edge"><title>Node4&#45;&gt;Node6</title>
<path fill="none" stroke="midnightblue" d="M367.453,-135.903C299.983,-125.774 213.844,-110.378 182,-94 146.889,-75.9421 115.888,-39.6443 101.897,-21.6352"/>
<polygon fill="midnightblue" stroke="midnightblue" points="367.281,-139.416 377.686,-137.421 368.308,-132.492 367.281,-139.416"/>
</g>
<!-- Node4&#45;&gt;Node9 -->
<g id="edge22" class="edge"><title>Node4&#45;&gt;Node9</title>
<path fill="none" stroke="midnightblue" d="M431.094,-123.363C413.698,-103.876 396.831,-76.8947 414,-58 441.048,-28.2337 693.28,-16.8299 824.891,-12.8787"/>
<polygon fill="midnightblue" stroke="midnightblue" points="428.575,-125.794 437.97,-130.691 433.679,-121.004 428.575,-125.794"/>
</g>
<!-- Node10 -->
<g id="node20" class="node"><title>Node10</title>
<a xlink:href="DomainConfiguration_8cpp.html" target="_top" xlink:title="parameter/DomainConfiguration.cpp">
<polygon fill="white" stroke="black" points="423,-65.5 423,-86.5 615,-86.5 615,-65.5 423,-65.5"/>
<text text-anchor="middle" x="519" y="-73.5" font-family="Verdana" font-size="10.00">parameter/DomainConfiguration.cpp</text>
</a>
</g>
<!-- Node4&#45;&gt;Node10 -->
<g id="edge20" class="edge"><title>Node4&#45;&gt;Node10</title>
<path fill="none" stroke="midnightblue" d="M478.387,-123.163C489.033,-110.8 501.358,-96.4874 509.613,-86.901"/>
<polygon fill="midnightblue" stroke="midnightblue" points="475.566,-121.075 471.693,-130.937 480.871,-125.643 475.566,-121.075"/>
</g>
<!-- Node11 -->
<g id="node23" class="node"><title>Node11</title>
<a xlink:href="SelectionCriterionRule_8cpp.html" target="_top" xlink:title="parameter/SelectionCriterion\lRule.cpp">
<polygon fill="white" stroke="black" points="632.5,-59 632.5,-93 787.5,-93 787.5,-59 632.5,-59"/>
<text text-anchor="start" x="640.5" y="-80" font-family="Verdana" font-size="10.00">parameter/SelectionCriterion</text>
<text text-anchor="middle" x="710" y="-67" font-family="Verdana" font-size="10.00">Rule.cpp</text>
</a>
</g>
<!-- Node4&#45;&gt;Node11 -->
<g id="edge24" class="edge"><title>Node4&#45;&gt;Node11</title>
<path fill="none" stroke="midnightblue" d="M526.593,-128.195C565.301,-117.179 612.989,-103.608 650.035,-93.0651"/>
<polygon fill="midnightblue" stroke="midnightblue" points="525.618,-124.833 516.957,-130.937 527.534,-131.566 525.618,-124.833"/>
</g>
<!-- Node5&#45;&gt;Node6 -->
<g id="edge10" class="edge"><title>Node5&#45;&gt;Node6</title>
<path fill="none" stroke="midnightblue" d="M239.102,-61.9818C204.584,-49.854 155.428,-32.583 124.122,-21.5835"/>
<polygon fill="midnightblue" stroke="midnightblue" points="238.27,-65.3991 248.865,-65.412 240.59,-58.7949 238.27,-65.3991"/>
</g>
<!-- Node7 -->
<g id="node13" class="node"><title>Node7</title>
<a xlink:href="ConfigurableDomains_8cpp.html" target="_top" xlink:title="parameter/ConfigurableDomains.cpp">
<polygon fill="white" stroke="black" points="206,-0.5 206,-21.5 400,-21.5 400,-0.5 206,-0.5"/>
<text text-anchor="middle" x="303" y="-8.5" font-family="Verdana" font-size="10.00">parameter/ConfigurableDomains.cpp</text>
</a>
</g>
<!-- Node5&#45;&gt;Node7 -->
<g id="edge12" class="edge"><title>Node5&#45;&gt;Node7</title>
<path fill="none" stroke="midnightblue" d="M286.492,-55.7103C290.673,-44.3856 295.709,-30.7463 299.111,-21.5337"/>
<polygon fill="midnightblue" stroke="midnightblue" points="283.144,-54.6733 282.963,-65.2666 289.71,-57.0979 283.144,-54.6733"/>
</g>
<!-- Node8 -->
<g id="node15" class="node"><title>Node8</title>
<a xlink:href="ConfigurableElement_8cpp.html" target="_top" xlink:title="parameter/ConfigurableElement.cpp">
<polygon fill="white" stroke="black" points="417.5,-0.5 417.5,-21.5 608.5,-21.5 608.5,-0.5 417.5,-0.5"/>
<text text-anchor="middle" x="513" y="-8.5" font-family="Verdana" font-size="10.00">parameter/ConfigurableElement.cpp</text>
</a>
</g>
<!-- Node5&#45;&gt;Node8 -->
<g id="edge14" class="edge"><title>Node5&#45;&gt;Node8</title>
<path fill="none" stroke="midnightblue" d="M326.718,-62.745C370.591,-50.558 434.779,-32.7281 475.198,-21.5005"/>
<polygon fill="midnightblue" stroke="midnightblue" points="325.555,-59.4356 316.856,-65.4844 327.428,-66.1802 325.555,-59.4356"/>
</g>
<!-- Node5&#45;&gt;Node9 -->
<g id="edge16" class="edge"><title>Node5&#45;&gt;Node9</title>
<path fill="none" stroke="midnightblue" d="M343.852,-63.7029C356.16,-61.6113 368.954,-59.6012 381,-58 537.791,-37.1587 722.283,-22.9789 824.911,-16.0041"/>
<polygon fill="midnightblue" stroke="midnightblue" points="342.91,-60.3141 333.655,-65.4719 344.107,-67.2111 342.91,-60.3141"/>
</g>
<!-- Node13&#45;&gt;Node9 -->
<g id="edge38" class="edge"><title>Node13&#45;&gt;Node9</title>
<path fill="none" stroke="midnightblue" d="M1030.67,-128.963C983.234,-117.026 930.918,-102.363 923,-94 904.096,-74.0338 902.632,-39.2658 903.245,-21.745"/>
<polygon fill="midnightblue" stroke="midnightblue" points="1029.84,-132.363 1040.39,-131.389 1031.54,-125.572 1029.84,-132.363"/>
</g>
<!-- Node14 -->
<g id="node31" class="node"><title>Node14</title>
<a xlink:href="FileIncluderElementBuilder_8h.html" target="_top" xlink:title="parameter/FileIncluderElement\lBuilder.h">
<polygon fill="white" stroke="black" points="931.5,-59 931.5,-93 1094.5,-93 1094.5,-59 931.5,-59"/>
<text text-anchor="start" x="939.5" y="-80" font-family="Verdana" font-size="10.00">parameter/FileIncluderElement</text>
<text text-anchor="middle" x="1013" y="-67" font-family="Verdana" font-size="10.00">Builder.h</text>
</a>
</g>
<!-- Node13&#45;&gt;Node14 -->
<g id="edge34" class="edge"><title>Node13&#45;&gt;Node14</title>
<path fill="none" stroke="midnightblue" d="M1079.4,-124.784C1065.42,-114.514 1049.27,-102.648 1036.4,-93.19"/>
<polygon fill="midnightblue" stroke="midnightblue" points="1077.64,-127.837 1087.78,-130.937 1081.79,-122.196 1077.64,-127.837"/>
</g>
<!-- Node15 -->
<g id="node35" class="node"><title>Node15</title>
<a xlink:href="XmlFileIncluderElement_8cpp.html" target="_top" xlink:title="parameter/XmlFileIncluder\lElement.cpp">
<polygon fill="white" stroke="black" points="1111.5,-59 1111.5,-93 1252.5,-93 1252.5,-59 1111.5,-59"/>
<text text-anchor="start" x="1119.5" y="-80" font-family="Verdana" font-size="10.00">parameter/XmlFileIncluder</text>
<text text-anchor="middle" x="1182" y="-67" font-family="Verdana" font-size="10.00">Element.cpp</text>
</a>
</g>
<!-- Node13&#45;&gt;Node15 -->
<g id="edge40" class="edge"><title>Node13&#45;&gt;Node15</title>
<path fill="none" stroke="midnightblue" d="M1134.99,-123.671C1144.77,-113.755 1155.85,-102.515 1164.8,-93.4407"/>
<polygon fill="midnightblue" stroke="midnightblue" points="1132.36,-121.359 1127.83,-130.937 1137.34,-126.274 1132.36,-121.359"/>
</g>
<!-- Node14&#45;&gt;Node9 -->
<g id="edge36" class="edge"><title>Node14&#45;&gt;Node9</title>
<path fill="none" stroke="midnightblue" d="M975.695,-53.7539C957.491,-42.8982 936.435,-30.342 921.873,-21.6584"/>
<polygon fill="midnightblue" stroke="midnightblue" points="973.98,-56.8063 984.362,-58.922 977.565,-50.7941 973.98,-56.8063"/>
</g>
<!-- Node16&#45;&gt;Node9 -->
<g id="edge44" class="edge"><title>Node16&#45;&gt;Node9</title>
<path fill="none" stroke="midnightblue" d="M1249.19,-265.645C1272.73,-217.907 1312.44,-116.651 1261,-58 1242.97,-37.4373 1082.76,-23.0245 983.188,-15.9626"/>
<polygon fill="midnightblue" stroke="midnightblue" points="1245.99,-264.216 1244.59,-274.718 1252.23,-267.382 1245.99,-264.216"/>
</g>
<!-- Node17&#45;&gt;Node9 -->
<g id="edge50" class="edge"><title>Node17&#45;&gt;Node9</title>
<path fill="none" stroke="midnightblue" d="M1379.39,-270.449C1363.76,-262.347 1348.18,-251.683 1337,-238 1284.23,-173.423 1347.58,-111.964 1284,-58 1261.54,-38.9391 1088.01,-23.7416 983.378,-16.1952"/>
<polygon fill="midnightblue" stroke="midnightblue" points="1378.04,-273.684 1388.56,-274.926 1381.11,-267.394 1378.04,-273.684"/>
</g>
<!-- Node18 -->
<g id="node42" class="node"><title>Node18</title>
<a xlink:href="FrameworkConfigurationLocation_8cpp.html" target="_top" xlink:title="parameter/FrameworkConfiguration\lLocation.cpp">
<polygon fill="white" stroke="black" points="1346,-203 1346,-237 1532,-237 1532,-203 1346,-203"/>
<text text-anchor="start" x="1354" y="-224" font-family="Verdana" font-size="10.00">parameter/FrameworkConfiguration</text>
<text text-anchor="middle" x="1439" y="-211" font-family="Verdana" font-size="10.00">Location.cpp</text>
</a>
</g>
<!-- Node17&#45;&gt;Node18 -->
<g id="edge48" class="edge"><title>Node17&#45;&gt;Node18</title>
<path fill="none" stroke="midnightblue" d="M1439,-264.719C1439,-255.572 1439,-245.625 1439,-237.441"/>
<polygon fill="midnightblue" stroke="midnightblue" points="1435.5,-264.937 1439,-274.937 1442.5,-264.937 1435.5,-264.937"/>
</g>
<!-- Node19&#45;&gt;Node9 -->
<g id="edge54" class="edge"><title>Node19&#45;&gt;Node9</title>
<path fill="none" stroke="midnightblue" d="M1597.09,-204.268C1530.3,-165.34 1360.3,-66.9996 1332,-58 1268.96,-37.9481 1088.49,-23.1562 983.109,-15.9364"/>
<polygon fill="midnightblue" stroke="midnightblue" points="1595.4,-207.336 1605.8,-209.351 1598.93,-201.289 1595.4,-207.336"/>
</g>
<!-- Node19&#45;&gt;Node12 -->
<g id="edge58" class="edge"><title>Node19&#45;&gt;Node12</title>
<path fill="none" stroke="midnightblue" d="M1571.29,-207.387C1561.28,-205.327 1550.85,-203.409 1541,-202 1316.5,-169.885 1257.52,-189.927 1032,-166 1012.73,-163.956 991.895,-161.222 972.778,-158.504"/>
<polygon fill="midnightblue" stroke="midnightblue" points="1570.62,-210.822 1581.13,-209.48 1572.08,-203.976 1570.62,-210.822"/>
</g>
<!-- Node20 -->
<g id="node48" class="node"><title>Node20</title>
<a xlink:href="PluginLocation_8cpp.html" target="_top" xlink:title="parameter/PluginLocation.cpp">
<polygon fill="white" stroke="black" points="1544,-137.5 1544,-158.5 1704,-158.5 1704,-137.5 1544,-137.5"/>
<text text-anchor="middle" x="1624" y="-145.5" font-family="Verdana" font-size="10.00">parameter/PluginLocation.cpp</text>
</a>
</g>
<!-- Node19&#45;&gt;Node20 -->
<g id="edge56" class="edge"><title>Node19&#45;&gt;Node20</title>
<path fill="none" stroke="midnightblue" d="M1624,-199.235C1624,-185.969 1624,-169.319 1624,-158.667"/>
<polygon fill="midnightblue" stroke="midnightblue" points="1620.5,-199.376 1624,-209.376 1627.5,-199.376 1620.5,-199.376"/>
</g>
</g>
</svg>
