<?xml version="1.0" encoding="UTF-8" standalone="no"?>
<!DOCTYPE svg PUBLIC "-//W3C//DTD SVG 1.1//EN"
 "http://www.w3.org/Graphics/SVG/1.1/DTD/svg11.dtd">
<!-- Generated by graphviz version 2.26.3 (20100126.1600)
 -->
<!-- Title: parameter/LinearParameterAdaptation.h Pages: 1 -->
<svg width="534pt" height="276pt"
 viewBox="0.00 0.00 534.00 276.00" xmlns="http://www.w3.org/2000/svg" xmlns:xlink="http://www.w3.org/1999/xlink">
<g id="graph1" class="graph" transform="scale(1 1) rotate(0) translate(4 272)">
<title>parameter/LinearParameterAdaptation.h</title>
<polygon fill="white" stroke="white" points="-4,5 -4,-272 531,-272 531,5 -4,5"/>
<!-- Node1 -->
<g id="node1" class="node"><title>Node1</title>
<polygon fill="#bfbfbf" stroke="black" points="0,-233 0,-267 150,-267 150,-233 0,-233"/>
<text text-anchor="start" x="8" y="-254" font-family="Verdana" font-size="10.00">parameter/LinearParameter</text>
<text text-anchor="middle" x="75" y="-241" font-family="Verdana" font-size="10.00">Adaptation.h</text>
</g>
<!-- Node2 -->
<g id="node3" class="node"><title>Node2</title>
<a xlink:href="ParameterAdaptation_8h.html" target="_top" xlink:title="ParameterAdaptation.h">
<polygon fill="white" stroke="black" points="57,-174.5 57,-195.5 185,-195.5 185,-174.5 57,-174.5"/>
<text text-anchor="middle" x="121" y="-182.5" font-family="Verdana" font-size="10.00">ParameterAdaptation.h</text>
</a>
</g>
<!-- Node1&#45;&gt;Node2 -->
<g id="edge2" class="edge"><title>Node1&#45;&gt;Node2</title>
<path fill="none" stroke="midnightblue" d="M87.086,-232.922C93.3148,-224.12 100.934,-213.354 107.372,-204.258"/>
<polygon fill="midnightblue" stroke="midnightblue" points="110.4,-206.037 113.32,-195.852 104.686,-201.993 110.4,-206.037"/>
</g>
<!-- Node4 -->
<g id="node7" class="node"><title>Node4</title>
<polygon fill="white" stroke="#bfbfbf" points="64,-0.5 64,-21.5 108,-21.5 108,-0.5 64,-0.5"/>
<text text-anchor="middle" x="86" y="-8.5" font-family="Verdana" font-size="10.00">string</text>
</g>
<!-- Node1&#45;&gt;Node4 -->
<g id="edge28" class="edge"><title>Node1&#45;&gt;Node4</title>
<path fill="none" stroke="midnightblue" d="M63.8118,-232.793C57.8325,-222.558 51.0825,-209.058 48,-196 33.9363,-136.425 60.593,-65.3565 76.0586,-31.2398"/>
<polygon fill="midnightblue" stroke="midnightblue" points="79.3653,-32.4318 80.4415,-21.8918 73.0273,-29.4602 79.3653,-32.4318"/>
</g>
<!-- Node3 -->
<g id="node5" class="node"><title>Node3</title>
<a xlink:href="Element_8h.html" target="_top" xlink:title="Element.h">
<polygon fill="white" stroke="black" points="224.5,-116.5 224.5,-137.5 289.5,-137.5 289.5,-116.5 224.5,-116.5"/>
<text text-anchor="middle" x="257" y="-124.5" font-family="Verdana" font-size="10.00">Element.h</text>
</a>
</g>
<!-- Node2&#45;&gt;Node3 -->
<g id="edge4" class="edge"><title>Node2&#45;&gt;Node3</title>
<path fill="none" stroke="midnightblue" d="M145.629,-174.497C167.157,-165.315 198.64,-151.889 222.645,-141.652"/>
<polygon fill="midnightblue" stroke="midnightblue" points="224.27,-144.764 232.095,-137.621 221.524,-138.325 224.27,-144.764"/>
</g>
<!-- Node2&#45;&gt;Node4 -->
<g id="edge26" class="edge"><title>Node2&#45;&gt;Node4</title>
<path fill="none" stroke="midnightblue" d="M118.863,-174.377C113.214,-146.293 97.8021,-69.6735 90.2649,-32.2027"/>
<polygon fill="midnightblue" stroke="midnightblue" points="93.6014,-31.0411 88.1981,-21.9277 86.7389,-32.4216 93.6014,-31.0411"/>
</g>
<!-- Node3&#45;&gt;Node4 -->
<g id="edge6" class="edge"><title>Node3&#45;&gt;Node4</title>
<path fill="none" stroke="midnightblue" d="M224.463,-122.237C195.322,-116.529 152.852,-104.477 124,-80 108.833,-67.133 98.6346,-46.6158 92.6545,-31.2937"/>
<polygon fill="midnightblue" stroke="midnightblue" points="95.8687,-29.8897 89.1791,-21.6739 89.2852,-32.2682 95.8687,-29.8897"/>
</g>
<!-- Node5 -->
<g id="node9" class="node"><title>Node5</title>
<polygon fill="white" stroke="#bfbfbf" points="479.5,-0.5 479.5,-21.5 526.5,-21.5 526.5,-0.5 479.5,-0.5"/>
<text text-anchor="middle" x="503" y="-8.5" font-family="Verdana" font-size="10.00">vector</text>
</g>
<!-- Node3&#45;&gt;Node5 -->
<g id="edge8" class="edge"><title>Node3&#45;&gt;Node5</title>
<path fill="none" stroke="midnightblue" d="M289.753,-123.616C343.266,-117.492 446.275,-103.028 474,-80 488.479,-67.9745 495.857,-47.4683 499.535,-31.9278"/>
<polygon fill="midnightblue" stroke="midnightblue" points="503.055,-32.1772 501.607,-21.6818 496.194,-30.7893 503.055,-32.1772"/>
</g>
<!-- Node6 -->
<g id="node11" class="node"><title>Node6</title>
<polygon fill="white" stroke="#bfbfbf" points="387.5,-0.5 387.5,-21.5 440.5,-21.5 440.5,-0.5 387.5,-0.5"/>
<text text-anchor="middle" x="414" y="-8.5" font-family="Verdana" font-size="10.00">stdint.h</text>
</g>
<!-- Node3&#45;&gt;Node6 -->
<g id="edge10" class="edge"><title>Node3&#45;&gt;Node6</title>
<path fill="none" stroke="midnightblue" d="M289.636,-124.195C341.087,-119.021 437.345,-106.042 458,-80 471.278,-63.2595 453.77,-42.3751 437.065,-27.9929"/>
<polygon fill="midnightblue" stroke="midnightblue" points="439.038,-25.086 429.068,-21.5015 434.626,-30.5211 439.038,-25.086"/>
</g>
<!-- Node7 -->
<g id="node13" class="node"><title>Node7</title>
<polygon fill="white" stroke="#bfbfbf" points="133,-58.5 133,-79.5 163,-79.5 163,-58.5 133,-58.5"/>
<text text-anchor="middle" x="148" y="-66.5" font-family="Verdana" font-size="10.00">list</text>
</g>
<!-- Node3&#45;&gt;Node7 -->
<g id="edge12" class="edge"><title>Node3&#45;&gt;Node7</title>
<path fill="none" stroke="midnightblue" d="M237.261,-116.497C218.914,-106.734 191.546,-92.1712 171.955,-81.7468"/>
<polygon fill="midnightblue" stroke="midnightblue" points="173.508,-78.6086 163.036,-77.0009 170.22,-84.7882 173.508,-78.6086"/>
</g>
<!-- Node8 -->
<g id="node15" class="node"><title>Node8</title>
<polygon fill="white" stroke="#bfbfbf" points="181,-58.5 181,-79.5 245,-79.5 245,-58.5 181,-58.5"/>
<text text-anchor="middle" x="213" y="-66.5" font-family="Verdana" font-size="10.00">XmlSink.h</text>
</g>
<!-- Node3&#45;&gt;Node8 -->
<g id="edge14" class="edge"><title>Node3&#45;&gt;Node8</title>
<path fill="none" stroke="midnightblue" d="M248.93,-116.362C242.851,-108.35 234.363,-97.1605 227.163,-87.6696"/>
<polygon fill="midnightblue" stroke="midnightblue" points="229.851,-85.4222 221.019,-79.5707 224.275,-89.653 229.851,-85.4222"/>
</g>
<!-- Node9 -->
<g id="node17" class="node"><title>Node9</title>
<polygon fill="white" stroke="#bfbfbf" points="262.5,-58.5 262.5,-79.5 339.5,-79.5 339.5,-58.5 262.5,-58.5"/>
<text text-anchor="middle" x="301" y="-66.5" font-family="Verdana" font-size="10.00">XmlSource.h</text>
</g>
<!-- Node3&#45;&gt;Node9 -->
<g id="edge16" class="edge"><title>Node3&#45;&gt;Node9</title>
<path fill="none" stroke="midnightblue" d="M265.07,-116.362C271.149,-108.35 279.637,-97.1605 286.837,-87.6696"/>
<polygon fill="midnightblue" stroke="midnightblue" points="289.725,-89.653 292.981,-79.5707 284.149,-85.4222 289.725,-89.653"/>
</g>
<!-- Node10 -->
<g id="node19" class="node"><title>Node10</title>
<a xlink:href="PathNavigator_8h.html" target="_top" xlink:title="PathNavigator.h">
<polygon fill="white" stroke="black" points="357,-58.5 357,-79.5 449,-79.5 449,-58.5 357,-58.5"/>
<text text-anchor="middle" x="403" y="-66.5" font-family="Verdana" font-size="10.00">PathNavigator.h</text>
</a>
</g>
<!-- Node3&#45;&gt;Node10 -->
<g id="edge18" class="edge"><title>Node3&#45;&gt;Node10</title>
<path fill="none" stroke="midnightblue" d="M283.439,-116.497C306.756,-107.234 340.95,-93.6499 366.804,-83.3793"/>
<polygon fill="midnightblue" stroke="midnightblue" points="368.263,-86.566 376.264,-79.6212 365.678,-80.0605 368.263,-86.566"/>
</g>
<!-- Node10&#45;&gt;Node4 -->
<g id="edge22" class="edge"><title>Node10&#45;&gt;Node4</title>
<path fill="none" stroke="midnightblue" d="M356.8,-59.6906C353.823,-59.1123 350.87,-58.5444 348,-58 265.305,-42.3149 167.659,-25.1579 118.195,-16.563"/>
<polygon fill="midnightblue" stroke="midnightblue" points="118.561,-13.0743 108.11,-14.8133 117.365,-19.9713 118.561,-13.0743"/>
</g>
<!-- Node10&#45;&gt;Node5 -->
<g id="edge20" class="edge"><title>Node10&#45;&gt;Node5</title>
<path fill="none" stroke="midnightblue" d="M421.342,-58.3619C436.566,-49.532 458.441,-36.844 475.72,-26.8224"/>
<polygon fill="midnightblue" stroke="midnightblue" points="477.88,-29.6155 484.775,-21.5707 474.368,-23.5603 477.88,-29.6155"/>
</g>
<!-- Node10&#45;&gt;Node6 -->
<g id="edge24" class="edge"><title>Node10&#45;&gt;Node6</title>
<path fill="none" stroke="midnightblue" d="M405.018,-58.3619C406.444,-50.8401 408.402,-40.5187 410.125,-31.4308"/>
<polygon fill="midnightblue" stroke="midnightblue" points="413.571,-32.0477 411.995,-21.5707 406.693,-30.7433 413.571,-32.0477"/>
</g>
</g>
</svg>
