<?xml version="1.0" encoding="UTF-8" standalone="no"?>
<!DOCTYPE svg PUBLIC "-//W3C//DTD SVG 1.1//EN"
 "http://www.w3.org/Graphics/SVG/1.1/DTD/svg11.dtd">
<!-- Generated by graphviz version 2.26.3 (20100126.1600)
 -->
<!-- Title: parameter/LinearParameterAdaptation.cpp Pages: 1 -->
<svg width="538pt" height="334pt"
 viewBox="0.00 0.00 538.00 334.00" xmlns="http://www.w3.org/2000/svg" xmlns:xlink="http://www.w3.org/1999/xlink">
<g id="graph1" class="graph" transform="scale(1 1) rotate(0) translate(4 330)">
<title>parameter/LinearParameterAdaptation.cpp</title>
<polygon fill="white" stroke="white" points="-4,5 -4,-330 535,-330 535,5 -4,5"/>
<!-- Node1 -->
<g id="node1" class="node"><title>Node1</title>
<polygon fill="#bfbfbf" stroke="black" points="4,-291 4,-325 154,-325 154,-291 4,-291"/>
<text text-anchor="start" x="12" y="-312" font-family="Verdana" font-size="10.00">parameter/LinearParameter</text>
<text text-anchor="middle" x="79" y="-299" font-family="Verdana" font-size="10.00">Adaptation.cpp</text>
</g>
<!-- Node2 -->
<g id="node3" class="node"><title>Node2</title>
<a xlink:href="LinearParameterAdaptation_8h.html" target="_top" xlink:title="LinearParameterAdaptation.h">
<polygon fill="white" stroke="black" points="0,-232.5 0,-253.5 158,-253.5 158,-232.5 0,-232.5"/>
<text text-anchor="middle" x="79" y="-240.5" font-family="Verdana" font-size="10.00">LinearParameterAdaptation.h</text>
</a>
</g>
<!-- Node1&#45;&gt;Node2 -->
<g id="edge2" class="edge"><title>Node1&#45;&gt;Node2</title>
<path fill="none" stroke="midnightblue" d="M79,-290.922C79,-282.67 79,-272.692 79,-263.982"/>
<polygon fill="midnightblue" stroke="midnightblue" points="82.5001,-263.852 79,-253.852 75.5001,-263.852 82.5001,-263.852"/>
</g>
<!-- Node3 -->
<g id="node5" class="node"><title>Node3</title>
<a xlink:href="ParameterAdaptation_8h.html" target="_top" xlink:title="ParameterAdaptation.h">
<polygon fill="white" stroke="black" points="61,-174.5 61,-195.5 189,-195.5 189,-174.5 61,-174.5"/>
<text text-anchor="middle" x="125" y="-182.5" font-family="Verdana" font-size="10.00">ParameterAdaptation.h</text>
</a>
</g>
<!-- Node2&#45;&gt;Node3 -->
<g id="edge4" class="edge"><title>Node2&#45;&gt;Node3</title>
<path fill="none" stroke="midnightblue" d="M87.4371,-232.362C93.7917,-224.35 102.666,-213.161 110.193,-203.67"/>
<polygon fill="midnightblue" stroke="midnightblue" points="113.145,-205.581 116.616,-195.571 107.66,-201.231 113.145,-205.581"/>
</g>
<!-- Node5 -->
<g id="node9" class="node"><title>Node5</title>
<polygon fill="white" stroke="#bfbfbf" points="68,-0.5 68,-21.5 112,-21.5 112,-0.5 68,-0.5"/>
<text text-anchor="middle" x="90" y="-8.5" font-family="Verdana" font-size="10.00">string</text>
</g>
<!-- Node2&#45;&gt;Node5 -->
<g id="edge30" class="edge"><title>Node2&#45;&gt;Node5</title>
<path fill="none" stroke="midnightblue" d="M70.5552,-232.148C64.0533,-223.063 55.5901,-209.457 52,-196 36.1445,-136.569 63.9316,-64.8978 79.9138,-30.8384"/>
<polygon fill="midnightblue" stroke="midnightblue" points="83.2137,-32.0553 84.4335,-21.5309 76.9168,-28.9975 83.2137,-32.0553"/>
</g>
<!-- Node4 -->
<g id="node7" class="node"><title>Node4</title>
<a xlink:href="Element_8h.html" target="_top" xlink:title="Element.h">
<polygon fill="white" stroke="black" points="228.5,-116.5 228.5,-137.5 293.5,-137.5 293.5,-116.5 228.5,-116.5"/>
<text text-anchor="middle" x="261" y="-124.5" font-family="Verdana" font-size="10.00">Element.h</text>
</a>
</g>
<!-- Node3&#45;&gt;Node4 -->
<g id="edge6" class="edge"><title>Node3&#45;&gt;Node4</title>
<path fill="none" stroke="midnightblue" d="M149.629,-174.497C171.157,-165.315 202.64,-151.889 226.645,-141.652"/>
<polygon fill="midnightblue" stroke="midnightblue" points="228.27,-144.764 236.095,-137.621 225.524,-138.325 228.27,-144.764"/>
</g>
<!-- Node3&#45;&gt;Node5 -->
<g id="edge28" class="edge"><title>Node3&#45;&gt;Node5</title>
<path fill="none" stroke="midnightblue" d="M122.863,-174.377C117.214,-146.293 101.802,-69.6735 94.2649,-32.2027"/>
<polygon fill="midnightblue" stroke="midnightblue" points="97.6014,-31.0411 92.1981,-21.9277 90.7389,-32.4216 97.6014,-31.0411"/>
</g>
<!-- Node4&#45;&gt;Node5 -->
<g id="edge8" class="edge"><title>Node4&#45;&gt;Node5</title>
<path fill="none" stroke="midnightblue" d="M228.463,-122.237C199.322,-116.529 156.852,-104.477 128,-80 112.833,-67.133 102.635,-46.6158 96.6545,-31.2937"/>
<polygon fill="midnightblue" stroke="midnightblue" points="99.8687,-29.8897 93.1791,-21.6739 93.2852,-32.2682 99.8687,-29.8897"/>
</g>
<!-- Node6 -->
<g id="node11" class="node"><title>Node6</title>
<polygon fill="white" stroke="#bfbfbf" points="483.5,-0.5 483.5,-21.5 530.5,-21.5 530.5,-0.5 483.5,-0.5"/>
<text text-anchor="middle" x="507" y="-8.5" font-family="Verdana" font-size="10.00">vector</text>
</g>
<!-- Node4&#45;&gt;Node6 -->
<g id="edge10" class="edge"><title>Node4&#45;&gt;Node6</title>
<path fill="none" stroke="midnightblue" d="M293.753,-123.616C347.266,-117.492 450.275,-103.028 478,-80 492.479,-67.9745 499.857,-47.4683 503.535,-31.9278"/>
<polygon fill="midnightblue" stroke="midnightblue" points="507.055,-32.1772 505.607,-21.6818 500.194,-30.7893 507.055,-32.1772"/>
</g>
<!-- Node7 -->
<g id="node13" class="node"><title>Node7</title>
<polygon fill="white" stroke="#bfbfbf" points="391.5,-0.5 391.5,-21.5 444.5,-21.5 444.5,-0.5 391.5,-0.5"/>
<text text-anchor="middle" x="418" y="-8.5" font-family="Verdana" font-size="10.00">stdint.h</text>
</g>
<!-- Node4&#45;&gt;Node7 -->
<g id="edge12" class="edge"><title>Node4&#45;&gt;Node7</title>
<path fill="none" stroke="midnightblue" d="M293.636,-124.195C345.087,-119.021 441.345,-106.042 462,-80 475.278,-63.2595 457.77,-42.3751 441.065,-27.9929"/>
<polygon fill="midnightblue" stroke="midnightblue" points="443.038,-25.086 433.068,-21.5015 438.626,-30.5211 443.038,-25.086"/>
</g>
<!-- Node8 -->
<g id="node15" class="node"><title>Node8</title>
<polygon fill="white" stroke="#bfbfbf" points="137,-58.5 137,-79.5 167,-79.5 167,-58.5 137,-58.5"/>
<text text-anchor="middle" x="152" y="-66.5" font-family="Verdana" font-size="10.00">list</text>
</g>
<!-- Node4&#45;&gt;Node8 -->
<g id="edge14" class="edge"><title>Node4&#45;&gt;Node8</title>
<path fill="none" stroke="midnightblue" d="M241.261,-116.497C222.914,-106.734 195.546,-92.1712 175.955,-81.7468"/>
<polygon fill="midnightblue" stroke="midnightblue" points="177.508,-78.6086 167.036,-77.0009 174.22,-84.7882 177.508,-78.6086"/>
</g>
<!-- Node9 -->
<g id="node17" class="node"><title>Node9</title>
<polygon fill="white" stroke="#bfbfbf" points="185,-58.5 185,-79.5 249,-79.5 249,-58.5 185,-58.5"/>
<text text-anchor="middle" x="217" y="-66.5" font-family="Verdana" font-size="10.00">XmlSink.h</text>
</g>
<!-- Node4&#45;&gt;Node9 -->
<g id="edge16" class="edge"><title>Node4&#45;&gt;Node9</title>
<path fill="none" stroke="midnightblue" d="M252.93,-116.362C246.851,-108.35 238.363,-97.1605 231.163,-87.6696"/>
<polygon fill="midnightblue" stroke="midnightblue" points="233.851,-85.4222 225.019,-79.5707 228.275,-89.653 233.851,-85.4222"/>
</g>
<!-- Node10 -->
<g id="node19" class="node"><title>Node10</title>
<polygon fill="white" stroke="#bfbfbf" points="266.5,-58.5 266.5,-79.5 343.5,-79.5 343.5,-58.5 266.5,-58.5"/>
<text text-anchor="middle" x="305" y="-66.5" font-family="Verdana" font-size="10.00">XmlSource.h</text>
</g>
<!-- Node4&#45;&gt;Node10 -->
<g id="edge18" class="edge"><title>Node4&#45;&gt;Node10</title>
<path fill="none" stroke="midnightblue" d="M269.07,-116.362C275.149,-108.35 283.637,-97.1605 290.837,-87.6696"/>
<polygon fill="midnightblue" stroke="midnightblue" points="293.725,-89.653 296.981,-79.5707 288.149,-85.4222 293.725,-89.653"/>
</g>
<!-- Node11 -->
<g id="node21" class="node"><title>Node11</title>
<a xlink:href="PathNavigator_8h.html" target="_top" xlink:title="PathNavigator.h">
<polygon fill="white" stroke="black" points="361,-58.5 361,-79.5 453,-79.5 453,-58.5 361,-58.5"/>
<text text-anchor="middle" x="407" y="-66.5" font-family="Verdana" font-size="10.00">PathNavigator.h</text>
</a>
</g>
<!-- Node4&#45;&gt;Node11 -->
<g id="edge20" class="edge"><title>Node4&#45;&gt;Node11</title>
<path fill="none" stroke="midnightblue" d="M287.439,-116.497C310.756,-107.234 344.95,-93.6499 370.804,-83.3793"/>
<polygon fill="midnightblue" stroke="midnightblue" points="372.263,-86.566 380.264,-79.6212 369.678,-80.0605 372.263,-86.566"/>
</g>
<!-- Node11&#45;&gt;Node5 -->
<g id="edge24" class="edge"><title>Node11&#45;&gt;Node5</title>
<path fill="none" stroke="midnightblue" d="M360.8,-59.6906C357.823,-59.1123 354.87,-58.5444 352,-58 269.305,-42.3149 171.659,-25.1579 122.195,-16.563"/>
<polygon fill="midnightblue" stroke="midnightblue" points="122.561,-13.0743 112.11,-14.8133 121.365,-19.9713 122.561,-13.0743"/>
</g>
<!-- Node11&#45;&gt;Node6 -->
<g id="edge22" class="edge"><title>Node11&#45;&gt;Node6</title>
<path fill="none" stroke="midnightblue" d="M425.342,-58.3619C440.566,-49.532 462.441,-36.844 479.72,-26.8224"/>
<polygon fill="midnightblue" stroke="midnightblue" points="481.88,-29.6155 488.775,-21.5707 478.368,-23.5603 481.88,-29.6155"/>
</g>
<!-- Node11&#45;&gt;Node7 -->
<g id="edge26" class="edge"><title>Node11&#45;&gt;Node7</title>
<path fill="none" stroke="midnightblue" d="M409.018,-58.3619C410.444,-50.8401 412.402,-40.5187 414.125,-31.4308"/>
<polygon fill="midnightblue" stroke="midnightblue" points="417.571,-32.0477 415.995,-21.5707 410.693,-30.7433 417.571,-32.0477"/>
</g>
</g>
</svg>
