<?xml version="1.0" encoding="UTF-8" standalone="no"?>
<!DOCTYPE svg PUBLIC "-//W3C//DTD SVG 1.1//EN"
 "http://www.w3.org/Graphics/SVG/1.1/DTD/svg11.dtd">
<!-- Generated by graphviz version 2.26.3 (20100126.1600)
 -->
<!-- Title: remote&#45;processor/ListeningSocket.h Pages: 1 -->
<svg width="364pt" height="116pt"
 viewBox="0.00 0.00 364.00 116.00" xmlns="http://www.w3.org/2000/svg" xmlns:xlink="http://www.w3.org/1999/xlink">
<g id="graph1" class="graph" transform="scale(1 1) rotate(0) translate(4 112)">
<title>remote&#45;processor/ListeningSocket.h</title>
<polygon fill="white" stroke="white" points="-4,5 -4,-112 361,-112 361,5 -4,5"/>
<!-- Node1 -->
<g id="node1" class="node"><title>Node1</title>
<polygon fill="#bfbfbf" stroke="black" points="92.5,-73 92.5,-107 241.5,-107 241.5,-73 92.5,-73"/>
<text text-anchor="start" x="100.5" y="-94" font-family="Verdana" font-size="10.00">remote&#45;processor/Listening</text>
<text text-anchor="middle" x="167" y="-81" font-family="Verdana" font-size="10.00">Socket.h</text>
</g>
<!-- Node2 -->
<g id="node3" class="node"><title>Node2</title>
<a xlink:href="ListeningSocket_8cpp.html" target="_top" xlink:title="remote&#45;processor/Listening\lSocket.cpp">
<polygon fill="white" stroke="black" points="-0.5,-1 -0.5,-35 148.5,-35 148.5,-1 -0.5,-1"/>
<text text-anchor="start" x="7.5" y="-22" font-family="Verdana" font-size="10.00">remote&#45;processor/Listening</text>
<text text-anchor="middle" x="74" y="-9" font-family="Verdana" font-size="10.00">Socket.cpp</text>
</a>
</g>
<!-- Node1&#45;&gt;Node2 -->
<g id="edge2" class="edge"><title>Node1&#45;&gt;Node2</title>
<path fill="none" stroke="midnightblue" d="M137.013,-66.7841C123.747,-56.5135 108.42,-44.6475 96.2038,-35.19"/>
<polygon fill="midnightblue" stroke="midnightblue" points="134.91,-69.5828 144.96,-72.937 139.196,-64.0477 134.91,-69.5828"/>
</g>
<!-- Node3 -->
<g id="node5" class="node"><title>Node3</title>
<a xlink:href="RemoteProcessorServer_8cpp.html" target="_top" xlink:title="remote&#45;processor/RemoteProcessor\lServer.cpp">
<polygon fill="white" stroke="black" points="166,-1 166,-35 356,-35 356,-1 166,-1"/>
<text text-anchor="start" x="174" y="-22" font-family="Verdana" font-size="10.00">remote&#45;processor/RemoteProcessor</text>
<text text-anchor="middle" x="261" y="-9" font-family="Verdana" font-size="10.00">Server.cpp</text>
</a>
</g>
<!-- Node1&#45;&gt;Node3 -->
<g id="edge4" class="edge"><title>Node1&#45;&gt;Node3</title>
<path fill="none" stroke="midnightblue" d="M197.31,-66.7841C210.718,-56.5135 226.21,-44.6475 238.557,-35.19"/>
<polygon fill="midnightblue" stroke="midnightblue" points="195.087,-64.0776 189.277,-72.937 199.344,-69.6348 195.087,-64.0776"/>
</g>
</g>
</svg>
