<?xml version="1.0" encoding="UTF-8" standalone="no"?>
<!DOCTYPE svg PUBLIC "-//W3C//DTD SVG 1.1//EN"
 "http://www.w3.org/Graphics/SVG/1.1/DTD/svg11.dtd">
<!-- Generated by graphviz version 2.26.3 (20100126.1600)
 -->
<!-- Title: remote&#45;processor/ListeningSocket.h Pages: 1 -->
<svg width="156pt" height="160pt"
 viewBox="0.00 0.00 156.00 160.00" xmlns="http://www.w3.org/2000/svg" xmlns:xlink="http://www.w3.org/1999/xlink">
<g id="graph1" class="graph" transform="scale(1 1) rotate(0) translate(4 156)">
<title>remote&#45;processor/ListeningSocket.h</title>
<polygon fill="white" stroke="white" points="-4,5 -4,-156 153,-156 153,5 -4,5"/>
<!-- Node1 -->
<g id="node1" class="node"><title>Node1</title>
<polygon fill="#bfbfbf" stroke="black" points="-0.5,-117 -0.5,-151 148.5,-151 148.5,-117 -0.5,-117"/>
<text text-anchor="start" x="7.5" y="-138" font-family="Verdana" font-size="10.00">remote&#45;processor/Listening</text>
<text text-anchor="middle" x="74" y="-125" font-family="Verdana" font-size="10.00">Socket.h</text>
</g>
<!-- Node2 -->
<g id="node3" class="node"><title>Node2</title>
<a xlink:href="Socket_8h.html" target="_top" xlink:title="Socket.h">
<polygon fill="white" stroke="black" points="44.5,-58.5 44.5,-79.5 103.5,-79.5 103.5,-58.5 44.5,-58.5"/>
<text text-anchor="middle" x="74" y="-66.5" font-family="Verdana" font-size="10.00">Socket.h</text>
</a>
</g>
<!-- Node1&#45;&gt;Node2 -->
<g id="edge2" class="edge"><title>Node1&#45;&gt;Node2</title>
<path fill="none" stroke="midnightblue" d="M74,-116.922C74,-108.67 74,-98.6922 74,-89.9818"/>
<polygon fill="midnightblue" stroke="midnightblue" points="77.5001,-89.8521 74,-79.8521 70.5001,-89.8521 77.5001,-89.8521"/>
</g>
<!-- Node3 -->
<g id="node5" class="node"><title>Node3</title>
<polygon fill="white" stroke="#bfbfbf" points="19,-0.5 19,-21.5 63,-21.5 63,-0.5 19,-0.5"/>
<text text-anchor="middle" x="41" y="-8.5" font-family="Verdana" font-size="10.00">string</text>
</g>
<!-- Node2&#45;&gt;Node3 -->
<g id="edge4" class="edge"><title>Node2&#45;&gt;Node3</title>
<path fill="none" stroke="midnightblue" d="M67.9473,-58.3619C63.5281,-50.5949 57.4104,-39.8426 52.1209,-30.5458"/>
<polygon fill="midnightblue" stroke="midnightblue" points="55.0017,-28.5315 47.0143,-21.5707 48.9176,-31.9932 55.0017,-28.5315"/>
</g>
<!-- Node4 -->
<g id="node7" class="node"><title>Node4</title>
<polygon fill="white" stroke="#bfbfbf" points="80.5,-0.5 80.5,-21.5 133.5,-21.5 133.5,-0.5 80.5,-0.5"/>
<text text-anchor="middle" x="107" y="-8.5" font-family="Verdana" font-size="10.00">stdint.h</text>
</g>
<!-- Node2&#45;&gt;Node4 -->
<g id="edge6" class="edge"><title>Node2&#45;&gt;Node4</title>
<path fill="none" stroke="midnightblue" d="M80.0527,-58.3619C84.4719,-50.5949 90.5896,-39.8426 95.8791,-30.5458"/>
<polygon fill="midnightblue" stroke="midnightblue" points="99.0824,-31.9932 100.986,-21.5707 92.9983,-28.5315 99.0824,-31.9932"/>
</g>
</g>
</svg>
