<?xml version="1.0" encoding="UTF-8" standalone="no"?>
<!DOCTYPE svg PUBLIC "-//W3C//DTD SVG 1.1//EN"
 "http://www.w3.org/Graphics/SVG/1.1/DTD/svg11.dtd">
<!-- Generated by graphviz version 2.26.3 (20100126.1600)
 -->
<!-- Title: remote&#45;processor/ListeningSocket.cpp Pages: 1 -->
<svg width="883pt" height="218pt"
 viewBox="0.00 0.00 883.00 218.00" xmlns="http://www.w3.org/2000/svg" xmlns:xlink="http://www.w3.org/1999/xlink">
<g id="graph1" class="graph" transform="scale(1 1) rotate(0) translate(4 214)">
<title>remote&#45;processor/ListeningSocket.cpp</title>
<polygon fill="white" stroke="white" points="-4,5 -4,-214 880,-214 880,5 -4,5"/>
<!-- Node1 -->
<g id="node1" class="node"><title>Node1</title>
<polygon fill="#bfbfbf" stroke="black" points="418.5,-175 418.5,-209 567.5,-209 567.5,-175 418.5,-175"/>
<text text-anchor="start" x="426.5" y="-196" font-family="Verdana" font-size="10.00">remote&#45;processor/Listening</text>
<text text-anchor="middle" x="493" y="-183" font-family="Verdana" font-size="10.00">Socket.cpp</text>
</g>
<!-- Node2 -->
<g id="node3" class="node"><title>Node2</title>
<a xlink:href="ListeningSocket_8h.html" target="_top" xlink:title="ListeningSocket.h">
<polygon fill="white" stroke="black" points="4.5,-116.5 4.5,-137.5 105.5,-137.5 105.5,-116.5 4.5,-116.5"/>
<text text-anchor="middle" x="55" y="-124.5" font-family="Verdana" font-size="10.00">ListeningSocket.h</text>
</a>
</g>
<!-- Node1&#45;&gt;Node2 -->
<g id="edge2" class="edge"><title>Node1&#45;&gt;Node2</title>
<path fill="none" stroke="midnightblue" d="M418.425,-182.333C344.131,-172.485 226.561,-156.312 115.539,-138.208"/>
<polygon fill="midnightblue" stroke="midnightblue" points="115.94,-134.727 105.506,-136.563 114.808,-141.635 115.94,-134.727"/>
</g>
<!-- Node6 -->
<g id="node11" class="node"><title>Node6</title>
<polygon fill="white" stroke="#bfbfbf" points="122.5,-116.5 122.5,-137.5 193.5,-137.5 193.5,-116.5 122.5,-116.5"/>
<text text-anchor="middle" x="158" y="-124.5" font-family="Verdana" font-size="10.00">sys/types.h</text>
</g>
<!-- Node1&#45;&gt;Node6 -->
<g id="edge10" class="edge"><title>Node1&#45;&gt;Node6</title>
<path fill="none" stroke="midnightblue" d="M418.289,-179.439C361.774,-169.637 282.042,-155.168 203.981,-138.355"/>
<polygon fill="midnightblue" stroke="midnightblue" points="204.491,-134.885 193.976,-136.185 203.007,-141.726 204.491,-134.885"/>
</g>
<!-- Node7 -->
<g id="node13" class="node"><title>Node7</title>
<polygon fill="white" stroke="#bfbfbf" points="211,-116.5 211,-137.5 287,-137.5 287,-116.5 211,-116.5"/>
<text text-anchor="middle" x="249" y="-124.5" font-family="Verdana" font-size="10.00">sys/socket.h</text>
</g>
<!-- Node1&#45;&gt;Node7 -->
<g id="edge12" class="edge"><title>Node1&#45;&gt;Node7</title>
<path fill="none" stroke="midnightblue" d="M428.892,-174.922C387.545,-163.907 334.649,-149.816 296.939,-139.771"/>
<polygon fill="midnightblue" stroke="midnightblue" points="297.777,-136.372 287.213,-137.18 295.975,-143.136 297.777,-136.372"/>
</g>
<!-- Node8 -->
<g id="node15" class="node"><title>Node8</title>
<polygon fill="white" stroke="#bfbfbf" points="304.5,-116.5 304.5,-137.5 375.5,-137.5 375.5,-116.5 304.5,-116.5"/>
<text text-anchor="middle" x="340" y="-124.5" font-family="Verdana" font-size="10.00">netinet/in.h</text>
</g>
<!-- Node1&#45;&gt;Node8 -->
<g id="edge14" class="edge"><title>Node1&#45;&gt;Node8</title>
<path fill="none" stroke="midnightblue" d="M452.801,-174.922C428.475,-164.588 397.775,-151.545 374.546,-141.676"/>
<polygon fill="midnightblue" stroke="midnightblue" points="375.661,-138.347 365.088,-137.658 372.923,-144.79 375.661,-138.347"/>
</g>
<!-- Node9 -->
<g id="node17" class="node"><title>Node9</title>
<polygon fill="white" stroke="#bfbfbf" points="392.5,-116.5 392.5,-137.5 447.5,-137.5 447.5,-116.5 392.5,-116.5"/>
<text text-anchor="middle" x="420" y="-124.5" font-family="Verdana" font-size="10.00">unistd.h</text>
</g>
<!-- Node1&#45;&gt;Node9 -->
<g id="edge16" class="edge"><title>Node1&#45;&gt;Node9</title>
<path fill="none" stroke="midnightblue" d="M473.82,-174.922C463.317,-165.57 450.324,-154.001 439.735,-144.572"/>
<polygon fill="midnightblue" stroke="midnightblue" points="441.984,-141.888 432.188,-137.852 437.329,-147.116 441.984,-141.888"/>
</g>
<!-- Node10 -->
<g id="node19" class="node"><title>Node10</title>
<polygon fill="white" stroke="#bfbfbf" points="465,-116.5 465,-137.5 521,-137.5 521,-116.5 465,-116.5"/>
<text text-anchor="middle" x="493" y="-124.5" font-family="Verdana" font-size="10.00">assert.h</text>
</g>
<!-- Node1&#45;&gt;Node10 -->
<g id="edge18" class="edge"><title>Node1&#45;&gt;Node10</title>
<path fill="none" stroke="midnightblue" d="M493,-174.922C493,-166.67 493,-156.692 493,-147.982"/>
<polygon fill="midnightblue" stroke="midnightblue" points="496.5,-147.852 493,-137.852 489.5,-147.852 496.5,-147.852"/>
</g>
<!-- Node11 -->
<g id="node21" class="node"><title>Node11</title>
<polygon fill="white" stroke="#bfbfbf" points="538.5,-116.5 538.5,-137.5 591.5,-137.5 591.5,-116.5 538.5,-116.5"/>
<text text-anchor="middle" x="565" y="-124.5" font-family="Verdana" font-size="10.00">netdb.h</text>
</g>
<!-- Node1&#45;&gt;Node11 -->
<g id="edge20" class="edge"><title>Node1&#45;&gt;Node11</title>
<path fill="none" stroke="midnightblue" d="M511.917,-174.922C522.276,-165.57 535.092,-154.001 545.535,-144.572"/>
<polygon fill="midnightblue" stroke="midnightblue" points="547.902,-147.151 552.979,-137.852 543.211,-141.955 547.902,-147.151"/>
</g>
<!-- Node12 -->
<g id="node23" class="node"><title>Node12</title>
<polygon fill="white" stroke="#bfbfbf" points="609,-116.5 609,-137.5 667,-137.5 667,-116.5 609,-116.5"/>
<text text-anchor="middle" x="638" y="-124.5" font-family="Verdana" font-size="10.00">strings.h</text>
</g>
<!-- Node1&#45;&gt;Node12 -->
<g id="edge22" class="edge"><title>Node1&#45;&gt;Node12</title>
<path fill="none" stroke="midnightblue" d="M531.097,-174.922C554.048,-164.634 582.987,-151.661 604.965,-141.809"/>
<polygon fill="midnightblue" stroke="midnightblue" points="606.53,-144.943 614.224,-137.658 603.667,-138.555 606.53,-144.943"/>
</g>
<!-- Node13 -->
<g id="node25" class="node"><title>Node13</title>
<polygon fill="white" stroke="#bfbfbf" points="685,-116.5 685,-137.5 741,-137.5 741,-116.5 685,-116.5"/>
<text text-anchor="middle" x="713" y="-124.5" font-family="Verdana" font-size="10.00">sstream</text>
</g>
<!-- Node1&#45;&gt;Node13 -->
<g id="edge24" class="edge"><title>Node1&#45;&gt;Node13</title>
<path fill="none" stroke="midnightblue" d="M551.113,-174.885C584.771,-164.964 628.203,-152.15 675.002,-138.292"/>
<polygon fill="midnightblue" stroke="midnightblue" points="676.126,-141.61 684.72,-135.414 674.138,-134.898 676.126,-141.61"/>
</g>
<!-- Node14 -->
<g id="node27" class="node"><title>Node14</title>
<polygon fill="white" stroke="#bfbfbf" points="758.5,-116.5 758.5,-137.5 807.5,-137.5 807.5,-116.5 758.5,-116.5"/>
<text text-anchor="middle" x="783" y="-124.5" font-family="Verdana" font-size="10.00">stdio.h</text>
</g>
<!-- Node1&#45;&gt;Node14 -->
<g id="edge26" class="edge"><title>Node1&#45;&gt;Node14</title>
<path fill="none" stroke="midnightblue" d="M567.763,-178.639C616.915,-169.31 682.753,-155.784 748.525,-138.218"/>
<polygon fill="midnightblue" stroke="midnightblue" points="749.486,-141.584 758.227,-135.596 747.66,-134.826 749.486,-141.584"/>
</g>
<!-- Node15 -->
<g id="node29" class="node"><title>Node15</title>
<polygon fill="white" stroke="#bfbfbf" points="824.5,-116.5 824.5,-137.5 875.5,-137.5 875.5,-116.5 824.5,-116.5"/>
<text text-anchor="middle" x="850" y="-124.5" font-family="Verdana" font-size="10.00">errno.h</text>
</g>
<!-- Node1&#45;&gt;Node15 -->
<g id="edge28" class="edge"><title>Node1&#45;&gt;Node15</title>
<path fill="none" stroke="midnightblue" d="M567.717,-182.69C631.276,-174.043 725.032,-159.577 814.711,-138.075"/>
<polygon fill="midnightblue" stroke="midnightblue" points="815.606,-141.46 824.496,-135.697 813.952,-134.658 815.606,-141.46"/>
</g>
<!-- Node3 -->
<g id="node5" class="node"><title>Node3</title>
<a xlink:href="Socket_8h.html" target="_top" xlink:title="Socket.h">
<polygon fill="white" stroke="black" points="25.5,-58.5 25.5,-79.5 84.5,-79.5 84.5,-58.5 25.5,-58.5"/>
<text text-anchor="middle" x="55" y="-66.5" font-family="Verdana" font-size="10.00">Socket.h</text>
</a>
</g>
<!-- Node2&#45;&gt;Node3 -->
<g id="edge4" class="edge"><title>Node2&#45;&gt;Node3</title>
<path fill="none" stroke="midnightblue" d="M55,-116.362C55,-108.922 55,-98.7427 55,-89.7276"/>
<polygon fill="midnightblue" stroke="midnightblue" points="58.5001,-89.5706 55,-79.5707 51.5001,-89.5707 58.5001,-89.5706"/>
</g>
<!-- Node4 -->
<g id="node7" class="node"><title>Node4</title>
<polygon fill="white" stroke="#bfbfbf" points="0,-0.5 0,-21.5 44,-21.5 44,-0.5 0,-0.5"/>
<text text-anchor="middle" x="22" y="-8.5" font-family="Verdana" font-size="10.00">string</text>
</g>
<!-- Node3&#45;&gt;Node4 -->
<g id="edge6" class="edge"><title>Node3&#45;&gt;Node4</title>
<path fill="none" stroke="midnightblue" d="M48.9473,-58.3619C44.5281,-50.5949 38.4104,-39.8426 33.1209,-30.5458"/>
<polygon fill="midnightblue" stroke="midnightblue" points="36.0017,-28.5315 28.0143,-21.5707 29.9176,-31.9932 36.0017,-28.5315"/>
</g>
<!-- Node5 -->
<g id="node9" class="node"><title>Node5</title>
<polygon fill="white" stroke="#bfbfbf" points="61.5,-0.5 61.5,-21.5 114.5,-21.5 114.5,-0.5 61.5,-0.5"/>
<text text-anchor="middle" x="88" y="-8.5" font-family="Verdana" font-size="10.00">stdint.h</text>
</g>
<!-- Node3&#45;&gt;Node5 -->
<g id="edge8" class="edge"><title>Node3&#45;&gt;Node5</title>
<path fill="none" stroke="midnightblue" d="M61.0527,-58.3619C65.4719,-50.5949 71.5896,-39.8426 76.8791,-30.5458"/>
<polygon fill="midnightblue" stroke="midnightblue" points="80.0824,-31.9932 81.9857,-21.5707 73.9983,-28.5315 80.0824,-31.9932"/>
</g>
</g>
</svg>
