<?xml version="1.0" encoding="UTF-8" standalone="no"?>
<!DOCTYPE svg PUBLIC "-//W3C//DTD SVG 1.1//EN"
 "http://www.w3.org/Graphics/SVG/1.1/DTD/svg11.dtd">
<!-- Generated by graphviz version 2.26.3 (20100126.1600)
 -->
<!-- Title: parameter/LogarithmicParameterAdaptation.h Pages: 1 -->
<svg width="547pt" height="334pt"
 viewBox="0.00 0.00 547.00 334.00" xmlns="http://www.w3.org/2000/svg" xmlns:xlink="http://www.w3.org/1999/xlink">
<g id="graph1" class="graph" transform="scale(1 1) rotate(0) translate(4 330)">
<title>parameter/LogarithmicParameterAdaptation.h</title>
<polygon fill="white" stroke="white" points="-4,5 -4,-330 544,-330 544,5 -4,5"/>
<!-- Node1 -->
<g id="node1" class="node"><title>Node1</title>
<polygon fill="#bfbfbf" stroke="black" points="-0.5,-291 -0.5,-325 176.5,-325 176.5,-291 -0.5,-291"/>
<text text-anchor="start" x="7.5" y="-312" font-family="Verdana" font-size="10.00">parameter/LogarithmicParameter</text>
<text text-anchor="middle" x="88" y="-299" font-family="Verdana" font-size="10.00">Adaptation.h</text>
</g>
<!-- Node2 -->
<g id="node3" class="node"><title>Node2</title>
<a xlink:href="LinearParameterAdaptation_8h.html" target="_top" xlink:title="LinearParameterAdaptation.h">
<polygon fill="white" stroke="black" points="9,-232.5 9,-253.5 167,-253.5 167,-232.5 9,-232.5"/>
<text text-anchor="middle" x="88" y="-240.5" font-family="Verdana" font-size="10.00">LinearParameterAdaptation.h</text>
</a>
</g>
<!-- Node1&#45;&gt;Node2 -->
<g id="edge2" class="edge"><title>Node1&#45;&gt;Node2</title>
<path fill="none" stroke="midnightblue" d="M88,-290.922C88,-282.67 88,-272.692 88,-263.982"/>
<polygon fill="midnightblue" stroke="midnightblue" points="91.5001,-263.852 88,-253.852 84.5001,-263.852 91.5001,-263.852"/>
</g>
<!-- Node3 -->
<g id="node5" class="node"><title>Node3</title>
<a xlink:href="ParameterAdaptation_8h.html" target="_top" xlink:title="ParameterAdaptation.h">
<polygon fill="white" stroke="black" points="70,-174.5 70,-195.5 198,-195.5 198,-174.5 70,-174.5"/>
<text text-anchor="middle" x="134" y="-182.5" font-family="Verdana" font-size="10.00">ParameterAdaptation.h</text>
</a>
</g>
<!-- Node2&#45;&gt;Node3 -->
<g id="edge4" class="edge"><title>Node2&#45;&gt;Node3</title>
<path fill="none" stroke="midnightblue" d="M96.4371,-232.362C102.792,-224.35 111.666,-213.161 119.193,-203.67"/>
<polygon fill="midnightblue" stroke="midnightblue" points="122.145,-205.581 125.616,-195.571 116.66,-201.231 122.145,-205.581"/>
</g>
<!-- Node5 -->
<g id="node9" class="node"><title>Node5</title>
<polygon fill="white" stroke="#bfbfbf" points="77,-0.5 77,-21.5 121,-21.5 121,-0.5 77,-0.5"/>
<text text-anchor="middle" x="99" y="-8.5" font-family="Verdana" font-size="10.00">string</text>
</g>
<!-- Node2&#45;&gt;Node5 -->
<g id="edge30" class="edge"><title>Node2&#45;&gt;Node5</title>
<path fill="none" stroke="midnightblue" d="M79.5552,-232.148C73.0533,-223.063 64.5901,-209.457 61,-196 45.1445,-136.569 72.9316,-64.8978 88.9138,-30.8384"/>
<polygon fill="midnightblue" stroke="midnightblue" points="92.2137,-32.0553 93.4335,-21.5309 85.9168,-28.9975 92.2137,-32.0553"/>
</g>
<!-- Node4 -->
<g id="node7" class="node"><title>Node4</title>
<a xlink:href="Element_8h.html" target="_top" xlink:title="Element.h">
<polygon fill="white" stroke="black" points="237.5,-116.5 237.5,-137.5 302.5,-137.5 302.5,-116.5 237.5,-116.5"/>
<text text-anchor="middle" x="270" y="-124.5" font-family="Verdana" font-size="10.00">Element.h</text>
</a>
</g>
<!-- Node3&#45;&gt;Node4 -->
<g id="edge6" class="edge"><title>Node3&#45;&gt;Node4</title>
<path fill="none" stroke="midnightblue" d="M158.629,-174.497C180.157,-165.315 211.64,-151.889 235.645,-141.652"/>
<polygon fill="midnightblue" stroke="midnightblue" points="237.27,-144.764 245.095,-137.621 234.524,-138.325 237.27,-144.764"/>
</g>
<!-- Node3&#45;&gt;Node5 -->
<g id="edge28" class="edge"><title>Node3&#45;&gt;Node5</title>
<path fill="none" stroke="midnightblue" d="M131.863,-174.377C126.214,-146.293 110.802,-69.6735 103.265,-32.2027"/>
<polygon fill="midnightblue" stroke="midnightblue" points="106.601,-31.0411 101.198,-21.9277 99.7389,-32.4216 106.601,-31.0411"/>
</g>
<!-- Node4&#45;&gt;Node5 -->
<g id="edge8" class="edge"><title>Node4&#45;&gt;Node5</title>
<path fill="none" stroke="midnightblue" d="M237.463,-122.237C208.322,-116.529 165.852,-104.477 137,-80 121.833,-67.133 111.635,-46.6158 105.654,-31.2937"/>
<polygon fill="midnightblue" stroke="midnightblue" points="108.869,-29.8897 102.179,-21.6739 102.285,-32.2682 108.869,-29.8897"/>
</g>
<!-- Node6 -->
<g id="node11" class="node"><title>Node6</title>
<polygon fill="white" stroke="#bfbfbf" points="492.5,-0.5 492.5,-21.5 539.5,-21.5 539.5,-0.5 492.5,-0.5"/>
<text text-anchor="middle" x="516" y="-8.5" font-family="Verdana" font-size="10.00">vector</text>
</g>
<!-- Node4&#45;&gt;Node6 -->
<g id="edge10" class="edge"><title>Node4&#45;&gt;Node6</title>
<path fill="none" stroke="midnightblue" d="M302.753,-123.616C356.266,-117.492 459.275,-103.028 487,-80 501.479,-67.9745 508.857,-47.4683 512.535,-31.9278"/>
<polygon fill="midnightblue" stroke="midnightblue" points="516.055,-32.1772 514.607,-21.6818 509.194,-30.7893 516.055,-32.1772"/>
</g>
<!-- Node7 -->
<g id="node13" class="node"><title>Node7</title>
<polygon fill="white" stroke="#bfbfbf" points="400.5,-0.5 400.5,-21.5 453.5,-21.5 453.5,-0.5 400.5,-0.5"/>
<text text-anchor="middle" x="427" y="-8.5" font-family="Verdana" font-size="10.00">stdint.h</text>
</g>
<!-- Node4&#45;&gt;Node7 -->
<g id="edge12" class="edge"><title>Node4&#45;&gt;Node7</title>
<path fill="none" stroke="midnightblue" d="M302.636,-124.195C354.087,-119.021 450.345,-106.042 471,-80 484.278,-63.2595 466.77,-42.3751 450.065,-27.9929"/>
<polygon fill="midnightblue" stroke="midnightblue" points="452.038,-25.086 442.068,-21.5015 447.626,-30.5211 452.038,-25.086"/>
</g>
<!-- Node8 -->
<g id="node15" class="node"><title>Node8</title>
<polygon fill="white" stroke="#bfbfbf" points="146,-58.5 146,-79.5 176,-79.5 176,-58.5 146,-58.5"/>
<text text-anchor="middle" x="161" y="-66.5" font-family="Verdana" font-size="10.00">list</text>
</g>
<!-- Node4&#45;&gt;Node8 -->
<g id="edge14" class="edge"><title>Node4&#45;&gt;Node8</title>
<path fill="none" stroke="midnightblue" d="M250.261,-116.497C231.914,-106.734 204.546,-92.1712 184.955,-81.7468"/>
<polygon fill="midnightblue" stroke="midnightblue" points="186.508,-78.6086 176.036,-77.0009 183.22,-84.7882 186.508,-78.6086"/>
</g>
<!-- Node9 -->
<g id="node17" class="node"><title>Node9</title>
<polygon fill="white" stroke="#bfbfbf" points="194,-58.5 194,-79.5 258,-79.5 258,-58.5 194,-58.5"/>
<text text-anchor="middle" x="226" y="-66.5" font-family="Verdana" font-size="10.00">XmlSink.h</text>
</g>
<!-- Node4&#45;&gt;Node9 -->
<g id="edge16" class="edge"><title>Node4&#45;&gt;Node9</title>
<path fill="none" stroke="midnightblue" d="M261.93,-116.362C255.851,-108.35 247.363,-97.1605 240.163,-87.6696"/>
<polygon fill="midnightblue" stroke="midnightblue" points="242.851,-85.4222 234.019,-79.5707 237.275,-89.653 242.851,-85.4222"/>
</g>
<!-- Node10 -->
<g id="node19" class="node"><title>Node10</title>
<polygon fill="white" stroke="#bfbfbf" points="275.5,-58.5 275.5,-79.5 352.5,-79.5 352.5,-58.5 275.5,-58.5"/>
<text text-anchor="middle" x="314" y="-66.5" font-family="Verdana" font-size="10.00">XmlSource.h</text>
</g>
<!-- Node4&#45;&gt;Node10 -->
<g id="edge18" class="edge"><title>Node4&#45;&gt;Node10</title>
<path fill="none" stroke="midnightblue" d="M278.07,-116.362C284.149,-108.35 292.637,-97.1605 299.837,-87.6696"/>
<polygon fill="midnightblue" stroke="midnightblue" points="302.725,-89.653 305.981,-79.5707 297.149,-85.4222 302.725,-89.653"/>
</g>
<!-- Node11 -->
<g id="node21" class="node"><title>Node11</title>
<a xlink:href="PathNavigator_8h.html" target="_top" xlink:title="PathNavigator.h">
<polygon fill="white" stroke="black" points="370,-58.5 370,-79.5 462,-79.5 462,-58.5 370,-58.5"/>
<text text-anchor="middle" x="416" y="-66.5" font-family="Verdana" font-size="10.00">PathNavigator.h</text>
</a>
</g>
<!-- Node4&#45;&gt;Node11 -->
<g id="edge20" class="edge"><title>Node4&#45;&gt;Node11</title>
<path fill="none" stroke="midnightblue" d="M296.439,-116.497C319.756,-107.234 353.95,-93.6499 379.804,-83.3793"/>
<polygon fill="midnightblue" stroke="midnightblue" points="381.263,-86.566 389.264,-79.6212 378.678,-80.0605 381.263,-86.566"/>
</g>
<!-- Node11&#45;&gt;Node5 -->
<g id="edge24" class="edge"><title>Node11&#45;&gt;Node5</title>
<path fill="none" stroke="midnightblue" d="M369.8,-59.6906C366.823,-59.1123 363.87,-58.5444 361,-58 278.305,-42.3149 180.659,-25.1579 131.195,-16.563"/>
<polygon fill="midnightblue" stroke="midnightblue" points="131.561,-13.0743 121.11,-14.8133 130.365,-19.9713 131.561,-13.0743"/>
</g>
<!-- Node11&#45;&gt;Node6 -->
<g id="edge22" class="edge"><title>Node11&#45;&gt;Node6</title>
<path fill="none" stroke="midnightblue" d="M434.342,-58.3619C449.566,-49.532 471.441,-36.844 488.72,-26.8224"/>
<polygon fill="midnightblue" stroke="midnightblue" points="490.88,-29.6155 497.775,-21.5707 487.368,-23.5603 490.88,-29.6155"/>
</g>
<!-- Node11&#45;&gt;Node7 -->
<g id="edge26" class="edge"><title>Node11&#45;&gt;Node7</title>
<path fill="none" stroke="midnightblue" d="M418.018,-58.3619C419.444,-50.8401 421.402,-40.5187 423.125,-31.4308"/>
<polygon fill="midnightblue" stroke="midnightblue" points="426.571,-32.0477 424.995,-21.5707 419.693,-30.7433 426.571,-32.0477"/>
</g>
</g>
</svg>
