<?xml version="1.0" encoding="UTF-8" standalone="no"?>
<!DOCTYPE svg PUBLIC "-//W3C//DTD SVG 1.1//EN"
 "http://www.w3.org/Graphics/SVG/1.1/DTD/svg11.dtd">
<!-- Generated by graphviz version 2.26.3 (20100126.1600)
 -->
<!-- Title: parameter/LogarithmicParameterAdaptation.h Pages: 1 -->
<svg width="360pt" height="116pt"
 viewBox="0.00 0.00 360.00 116.00" xmlns="http://www.w3.org/2000/svg" xmlns:xlink="http://www.w3.org/1999/xlink">
<g id="graph1" class="graph" transform="scale(1 1) rotate(0) translate(4 112)">
<title>parameter/LogarithmicParameterAdaptation.h</title>
<polygon fill="white" stroke="white" points="-4,5 -4,-112 357,-112 357,5 -4,5"/>
<!-- Node1 -->
<g id="node1" class="node"><title>Node1</title>
<polygon fill="#bfbfbf" stroke="black" points="91.5,-73 91.5,-107 268.5,-107 268.5,-73 91.5,-73"/>
<text text-anchor="start" x="99.5" y="-94" font-family="Verdana" font-size="10.00">parameter/LogarithmicParameter</text>
<text text-anchor="middle" x="180" y="-81" font-family="Verdana" font-size="10.00">Adaptation.h</text>
</g>
<!-- Node2 -->
<g id="node3" class="node"><title>Node2</title>
<a xlink:href="LogarithmicParameterAdaptation_8cpp.html" target="_top" xlink:title="parameter/LogarithmicParameter\lAdaptation.cpp">
<polygon fill="white" stroke="black" points="-0.5,-1 -0.5,-35 176.5,-35 176.5,-1 -0.5,-1"/>
<text text-anchor="start" x="7.5" y="-22" font-family="Verdana" font-size="10.00">parameter/LogarithmicParameter</text>
<text text-anchor="middle" x="88" y="-9" font-family="Verdana" font-size="10.00">Adaptation.cpp</text>
</a>
</g>
<!-- Node1&#45;&gt;Node2 -->
<g id="edge2" class="edge"><title>Node1&#45;&gt;Node2</title>
<path fill="none" stroke="midnightblue" d="M149.963,-66.493C136.926,-56.2899 121.936,-44.5583 109.965,-35.19"/>
<polygon fill="midnightblue" stroke="midnightblue" points="148.165,-69.5302 158.197,-72.937 152.479,-64.0176 148.165,-69.5302"/>
</g>
<!-- Node3 -->
<g id="node5" class="node"><title>Node3</title>
<a xlink:href="ParameterMgr_8cpp.html" target="_top" xlink:title="parameter/ParameterMgr.cpp">
<polygon fill="white" stroke="black" points="194,-7.5 194,-28.5 352,-28.5 352,-7.5 194,-7.5"/>
<text text-anchor="middle" x="273" y="-15.5" font-family="Verdana" font-size="10.00">parameter/ParameterMgr.cpp</text>
</a>
</g>
<!-- Node1&#45;&gt;Node3 -->
<g id="edge4" class="edge"><title>Node1&#45;&gt;Node3</title>
<path fill="none" stroke="midnightblue" d="M210.319,-66.527C226.791,-53.7747 246.357,-38.6265 259.195,-28.688"/>
<polygon fill="midnightblue" stroke="midnightblue" points="207.804,-64.0477 202.04,-72.937 212.09,-69.5828 207.804,-64.0477"/>
</g>
</g>
</svg>
