<?xml version="1.0" encoding="UTF-8" standalone="no"?>
<!DOCTYPE svg PUBLIC "-//W3C//DTD SVG 1.1//EN"
 "http://www.w3.org/Graphics/SVG/1.1/DTD/svg11.dtd">
<!-- Generated by graphviz version 2.26.3 (20100126.1600)
 -->
<!-- Title: sendAndDisplayCommand Pages: 1 -->
<svg width="550pt" height="180pt"
 viewBox="0.00 0.00 550.00 180.00" xmlns="http://www.w3.org/2000/svg" xmlns:xlink="http://www.w3.org/1999/xlink">
<g id="graph1" class="graph" transform="scale(1 1) rotate(0) translate(4 176)">
<title>sendAndDisplayCommand</title>
<polygon fill="white" stroke="white" points="-4,5 -4,-176 547,-176 547,5 -4,5"/>
<!-- Node1 -->
<g id="node1" class="node"><title>Node1</title>
<polygon fill="#bfbfbf" stroke="black" points="0.5,-40.5 0.5,-61.5 143.5,-61.5 143.5,-40.5 0.5,-40.5"/>
<text text-anchor="middle" x="72" y="-48.5" font-family="Verdana" font-size="10.00">sendAndDisplayCommand</text>
</g>
<!-- Node2 -->
<g id="node3" class="node"><title>Node2</title>
<a xlink:href="classCMessage.html#a934d70aff67a456a92124664d6e78e84" target="_top" xlink:title="Write or read the message on pSocket. ">
<polygon fill="white" stroke="black" points="203.5,-90.5 203.5,-111.5 314.5,-111.5 314.5,-90.5 203.5,-90.5"/>
<text text-anchor="middle" x="259" y="-98.5" font-family="Verdana" font-size="10.00">CMessage::serialize</text>
</a>
</g>
<!-- Node1&#45;&gt;Node2 -->
<g id="edge2" class="edge"><title>Node1&#45;&gt;Node2</title>
<path fill="none" stroke="midnightblue" d="M111.658,-61.6037C140.266,-69.2529 179.075,-79.6296 209.682,-87.8133"/>
<polygon fill="midnightblue" stroke="midnightblue" points="209.156,-91.2955 219.72,-90.4974 210.964,-84.5331 209.156,-91.2955"/>
</g>
<!-- Node6 -->
<g id="node11" class="node"><title>Node6</title>
<a xlink:href="classCAnswerMessage.html#af22d01ea3de76ad0e82513eab0d7e7ce" target="_top" xlink:title="CAnswerMessage::success">
<polygon fill="white" stroke="black" points="186.5,-40.5 186.5,-61.5 331.5,-61.5 331.5,-40.5 186.5,-40.5"/>
<text text-anchor="middle" x="259" y="-48.5" font-family="Verdana" font-size="10.00">CAnswerMessage::success</text>
</a>
</g>
<!-- Node1&#45;&gt;Node6 -->
<g id="edge10" class="edge"><title>Node1&#45;&gt;Node6</title>
<path fill="none" stroke="midnightblue" d="M143.764,-51C154.301,-51 165.229,-51 175.969,-51"/>
<polygon fill="midnightblue" stroke="midnightblue" points="176.191,-54.5001 186.191,-51 176.191,-47.5001 176.191,-54.5001"/>
</g>
<!-- Node8 -->
<g id="node15" class="node"><title>Node8</title>
<a xlink:href="classCAnswerMessage.html#ad5b737b114cde75702c2233d723b970c" target="_top" xlink:title="CAnswerMessage::getAnswer">
<polygon fill="white" stroke="black" points="180.5,-0.5 180.5,-21.5 337.5,-21.5 337.5,-0.5 180.5,-0.5"/>
<text text-anchor="middle" x="259" y="-8.5" font-family="Verdana" font-size="10.00">CAnswerMessage::getAnswer</text>
</a>
</g>
<!-- Node1&#45;&gt;Node8 -->
<g id="edge14" class="edge"><title>Node1&#45;&gt;Node8</title>
<path fill="none" stroke="midnightblue" d="M121.132,-40.4905C145.302,-35.3205 174.62,-29.0492 199.996,-23.6212"/>
<polygon fill="midnightblue" stroke="midnightblue" points="200.825,-27.0231 209.872,-21.5087 199.361,-20.1779 200.825,-27.0231"/>
</g>
<!-- Node3 -->
<g id="node5" class="node"><title>Node3</title>
<a xlink:href="classCSocket.html#a56781c4ee49b861a1177cf72bca4b058" target="_top" xlink:title="CSocket::write">
<polygon fill="white" stroke="black" points="415.5,-150.5 415.5,-171.5 500.5,-171.5 500.5,-150.5 415.5,-150.5"/>
<text text-anchor="middle" x="458" y="-158.5" font-family="Verdana" font-size="10.00">CSocket::write</text>
</a>
</g>
<!-- Node2&#45;&gt;Node3 -->
<g id="edge4" class="edge"><title>Node2&#45;&gt;Node3</title>
<path fill="none" stroke="midnightblue" d="M287.099,-111.666C310.226,-120.228 343.97,-132.227 374,-141 384.141,-143.963 395.065,-146.81 405.572,-149.381"/>
<polygon fill="midnightblue" stroke="midnightblue" points="404.938,-152.828 415.479,-151.756 406.57,-146.021 404.938,-152.828"/>
</g>
<!-- Node4 -->
<g id="node7" class="node"><title>Node4</title>
<a xlink:href="classCSocket.html#a33d4c0e9b69e048b3ca73e435e890af2" target="_top" xlink:title="CSocket::hasPeerDisconnected">
<polygon fill="white" stroke="black" points="374.5,-110.5 374.5,-131.5 541.5,-131.5 541.5,-110.5 374.5,-110.5"/>
<text text-anchor="middle" x="458" y="-118.5" font-family="Verdana" font-size="10.00">CSocket::hasPeerDisconnected</text>
</a>
</g>
<!-- Node2&#45;&gt;Node4 -->
<g id="edge6" class="edge"><title>Node2&#45;&gt;Node4</title>
<path fill="none" stroke="midnightblue" d="M314.697,-106.598C330.172,-108.153 347.414,-109.886 364.423,-111.595"/>
<polygon fill="midnightblue" stroke="midnightblue" points="364.096,-115.08 374.396,-112.598 364.796,-108.115 364.096,-115.08"/>
</g>
<!-- Node5 -->
<g id="node9" class="node"><title>Node5</title>
<a xlink:href="classCSocket.html#a476a64ffeb8843cbce048dd89a62e38c" target="_top" xlink:title="CSocket::read">
<polygon fill="white" stroke="black" points="416,-70.5 416,-91.5 500,-91.5 500,-70.5 416,-70.5"/>
<text text-anchor="middle" x="458" y="-78.5" font-family="Verdana" font-size="10.00">CSocket::read</text>
</a>
</g>
<!-- Node2&#45;&gt;Node5 -->
<g id="edge8" class="edge"><title>Node2&#45;&gt;Node5</title>
<path fill="none" stroke="midnightblue" d="M314.697,-95.4023C343.269,-92.5308 377.86,-89.0542 405.899,-86.2362"/>
<polygon fill="midnightblue" stroke="midnightblue" points="406.31,-89.7127 415.91,-85.2302 405.61,-82.7478 406.31,-89.7127"/>
</g>
<!-- Node7 -->
<g id="node13" class="node"><title>Node7</title>
<a xlink:href="classCMessage.html#a060b5a2b0874bf080b36b9e406e4d2e1" target="_top" xlink:title="CMessage::getMsgId">
<polygon fill="white" stroke="black" points="400,-30.5 400,-51.5 516,-51.5 516,-30.5 400,-30.5"/>
<text text-anchor="middle" x="458" y="-38.5" font-family="Verdana" font-size="10.00">CMessage::getMsgId</text>
</a>
</g>
<!-- Node6&#45;&gt;Node7 -->
<g id="edge12" class="edge"><title>Node6&#45;&gt;Node7</title>
<path fill="none" stroke="midnightblue" d="M331.688,-47.3473C350.612,-46.3964 370.934,-45.3752 389.626,-44.4359"/>
<polygon fill="midnightblue" stroke="midnightblue" points="390.012,-47.921 399.823,-43.9234 389.66,-40.9298 390.012,-47.921"/>
</g>
</g>
</svg>
