<?xml version="1.0" encoding="UTF-8" standalone="no"?>
<!DOCTYPE svg PUBLIC "-//W3C//DTD SVG 1.1//EN"
 "http://www.w3.org/Graphics/SVG/1.1/DTD/svg11.dtd">
<!-- Generated by graphviz version 2.26.3 (20100126.1600)
 -->
<!-- Title: parameter/Mapper.h Pages: 1 -->
<svg width="1196pt" height="290pt"
 viewBox="0.00 0.00 1196.00 290.00" xmlns="http://www.w3.org/2000/svg" xmlns:xlink="http://www.w3.org/1999/xlink">
<g id="graph1" class="graph" transform="scale(1 1) rotate(0) translate(4 286)">
<title>parameter/Mapper.h</title>
<polygon fill="white" stroke="white" points="-4,5 -4,-286 1193,-286 1193,5 -4,5"/>
<!-- Node1 -->
<g id="node1" class="node"><title>Node1</title>
<polygon fill="#bfbfbf" stroke="black" points="739.5,-260.5 739.5,-281.5 854.5,-281.5 854.5,-260.5 739.5,-260.5"/>
<text text-anchor="middle" x="797" y="-268.5" font-family="Verdana" font-size="10.00">parameter/Mapper.h</text>
</g>
<!-- Node2 -->
<g id="node3" class="node"><title>Node2</title>
<a xlink:href="Subsystem_8h.html" target="_top" xlink:title="parameter/Subsystem.h">
<polygon fill="white" stroke="black" points="645,-195.5 645,-216.5 779,-216.5 779,-195.5 645,-195.5"/>
<text text-anchor="middle" x="712" y="-203.5" font-family="Verdana" font-size="10.00">parameter/Subsystem.h</text>
</a>
</g>
<!-- Node1&#45;&gt;Node2 -->
<g id="edge2" class="edge"><title>Node1&#45;&gt;Node2</title>
<path fill="none" stroke="midnightblue" d="M774.897,-254.098C759.358,-242.215 739.051,-226.686 725.775,-216.534"/>
<polygon fill="midnightblue" stroke="midnightblue" points="772.894,-256.972 782.964,-260.267 777.146,-251.412 772.894,-256.972"/>
</g>
<!-- Node14 -->
<g id="node29" class="node"><title>Node14</title>
<a xlink:href="InstanceConfigurableElement_8cpp.html" target="_top" xlink:title="parameter/InstanceConfigurable\lElement.cpp">
<polygon fill="white" stroke="black" points="796.5,-189 796.5,-223 967.5,-223 967.5,-189 796.5,-189"/>
<text text-anchor="start" x="804.5" y="-210" font-family="Verdana" font-size="10.00">parameter/InstanceConfigurable</text>
<text text-anchor="middle" x="882" y="-197" font-family="Verdana" font-size="10.00">Element.cpp</text>
</a>
</g>
<!-- Node1&#45;&gt;Node14 -->
<g id="edge30" class="edge"><title>Node1&#45;&gt;Node14</title>
<path fill="none" stroke="midnightblue" d="M819.103,-254.098C831.572,-244.562 847.112,-232.679 859.626,-223.11"/>
<polygon fill="midnightblue" stroke="midnightblue" points="816.854,-251.412 811.036,-260.267 821.106,-256.972 816.854,-251.412"/>
</g>
<!-- Node3 -->
<g id="node5" class="node"><title>Node3</title>
<a xlink:href="BitwiseAreaConfiguration_8cpp.html" target="_top" xlink:title="parameter/BitwiseAreaConfiguration.cpp">
<polygon fill="white" stroke="black" points="0,-130.5 0,-151.5 210,-151.5 210,-130.5 0,-130.5"/>
<text text-anchor="middle" x="105" y="-138.5" font-family="Verdana" font-size="10.00">parameter/BitwiseAreaConfiguration.cpp</text>
</a>
</g>
<!-- Node2&#45;&gt;Node3 -->
<g id="edge4" class="edge"><title>Node2&#45;&gt;Node3</title>
<path fill="none" stroke="midnightblue" d="M634.701,-197.723C524.805,-185.954 323.419,-164.389 203.123,-151.507"/>
<polygon fill="midnightblue" stroke="midnightblue" points="634.405,-201.211 644.721,-198.796 635.151,-194.251 634.405,-201.211"/>
</g>
<!-- Node4 -->
<g id="node7" class="node"><title>Node4</title>
<a xlink:href="DomainConfiguration_8cpp.html" target="_top" xlink:title="parameter/DomainConfiguration.cpp">
<polygon fill="white" stroke="black" points="228,-130.5 228,-151.5 420,-151.5 420,-130.5 228,-130.5"/>
<text text-anchor="middle" x="324" y="-138.5" font-family="Verdana" font-size="10.00">parameter/DomainConfiguration.cpp</text>
</a>
</g>
<!-- Node2&#45;&gt;Node4 -->
<g id="edge6" class="edge"><title>Node2&#45;&gt;Node4</title>
<path fill="none" stroke="midnightblue" d="M639.22,-193.808C566.439,-181.615 455.676,-163.059 386.68,-151.501"/>
<polygon fill="midnightblue" stroke="midnightblue" points="638.789,-197.284 649.23,-195.484 639.946,-190.38 638.789,-197.284"/>
</g>
<!-- Node5 -->
<g id="node9" class="node"><title>Node5</title>
<a xlink:href="ParameterHandle_8cpp.html" target="_top" xlink:title="parameter/ParameterHandle.cpp">
<polygon fill="white" stroke="black" points="437.5,-130.5 437.5,-151.5 612.5,-151.5 612.5,-130.5 437.5,-130.5"/>
<text text-anchor="middle" x="525" y="-138.5" font-family="Verdana" font-size="10.00">parameter/ParameterHandle.cpp</text>
</a>
</g>
<!-- Node2&#45;&gt;Node5 -->
<g id="edge8" class="edge"><title>Node2&#45;&gt;Node5</title>
<path fill="none" stroke="midnightblue" d="M671.671,-191.982C636.78,-179.854 587.093,-162.583 555.448,-151.584"/>
<polygon fill="midnightblue" stroke="midnightblue" points="670.944,-195.435 681.539,-195.412 673.243,-188.823 670.944,-195.435"/>
</g>
<!-- Node6 -->
<g id="node11" class="node"><title>Node6</title>
<a xlink:href="VirtualSubsystem_8h.html" target="_top" xlink:title="parameter/VirtualSubsystem.h">
<polygon fill="white" stroke="black" points="630,-130.5 630,-151.5 794,-151.5 794,-130.5 630,-130.5"/>
<text text-anchor="middle" x="712" y="-138.5" font-family="Verdana" font-size="10.00">parameter/VirtualSubsystem.h</text>
</a>
</g>
<!-- Node2&#45;&gt;Node6 -->
<g id="edge10" class="edge"><title>Node2&#45;&gt;Node6</title>
<path fill="none" stroke="midnightblue" d="M712,-185.014C712,-173.831 712,-160.558 712,-151.534"/>
<polygon fill="midnightblue" stroke="midnightblue" points="708.5,-185.267 712,-195.267 715.5,-185.267 708.5,-185.267"/>
</g>
<!-- Node8 -->
<g id="node15" class="node"><title>Node8</title>
<a xlink:href="ParameterMgr_8cpp.html" target="_top" xlink:title="parameter/ParameterMgr.cpp">
<polygon fill="white" stroke="black" points="743,-7.5 743,-28.5 901,-28.5 901,-7.5 743,-7.5"/>
<text text-anchor="middle" x="822" y="-15.5" font-family="Verdana" font-size="10.00">parameter/ParameterMgr.cpp</text>
</a>
</g>
<!-- Node2&#45;&gt;Node8 -->
<g id="edge24" class="edge"><title>Node2&#45;&gt;Node8</title>
<path fill="none" stroke="midnightblue" d="M752.962,-191.27C771.159,-182.626 791.111,-169.832 803,-152 829.069,-112.9 826.002,-53.1068 823.413,-28.8181"/>
<polygon fill="midnightblue" stroke="midnightblue" points="751.367,-188.149 743.659,-195.417 754.217,-194.543 751.367,-188.149"/>
</g>
<!-- Node12 -->
<g id="node25" class="node"><title>Node12</title>
<a xlink:href="Subsystem_8cpp.html" target="_top" xlink:title="parameter/Subsystem.cpp">
<polygon fill="white" stroke="black" points="849.5,-130.5 849.5,-151.5 994.5,-151.5 994.5,-130.5 849.5,-130.5"/>
<text text-anchor="middle" x="922" y="-138.5" font-family="Verdana" font-size="10.00">parameter/Subsystem.cpp</text>
</a>
</g>
<!-- Node2&#45;&gt;Node12 -->
<g id="edge26" class="edge"><title>Node2&#45;&gt;Node12</title>
<path fill="none" stroke="midnightblue" d="M755.784,-192.448C795.032,-180.3 851.813,-162.725 887.807,-151.584"/>
<polygon fill="midnightblue" stroke="midnightblue" points="754.725,-189.112 746.208,-195.412 756.795,-195.799 754.725,-189.112"/>
</g>
<!-- Node13 -->
<g id="node27" class="node"><title>Node13</title>
<a xlink:href="SubsystemObject_8cpp.html" target="_top" xlink:title="parameter/SubsystemObject.cpp">
<polygon fill="white" stroke="black" points="1012,-130.5 1012,-151.5 1188,-151.5 1188,-130.5 1012,-130.5"/>
<text text-anchor="middle" x="1100" y="-138.5" font-family="Verdana" font-size="10.00">parameter/SubsystemObject.cpp</text>
</a>
</g>
<!-- Node2&#45;&gt;Node13 -->
<g id="edge28" class="edge"><title>Node2&#45;&gt;Node13</title>
<path fill="none" stroke="midnightblue" d="M763.501,-193.193C771.673,-191.337 780.05,-189.538 788,-188 865.445,-173.022 954.483,-160.024 1017.57,-151.516"/>
<polygon fill="midnightblue" stroke="midnightblue" points="762.629,-189.803 753.678,-195.471 764.21,-196.622 762.629,-189.803"/>
</g>
<!-- Node7 -->
<g id="node13" class="node"><title>Node7</title>
<a xlink:href="SubsystemLibrary_8h.html" target="_top" xlink:title="parameter/SubsystemLibrary.h">
<polygon fill="white" stroke="black" points="630,-72.5 630,-93.5 794,-93.5 794,-72.5 630,-72.5"/>
<text text-anchor="middle" x="712" y="-80.5" font-family="Verdana" font-size="10.00">parameter/SubsystemLibrary.h</text>
</a>
</g>
<!-- Node6&#45;&gt;Node7 -->
<g id="edge12" class="edge"><title>Node6&#45;&gt;Node7</title>
<path fill="none" stroke="midnightblue" d="M712,-120.191C712,-111.168 712,-100.994 712,-93.5707"/>
<polygon fill="midnightblue" stroke="midnightblue" points="708.5,-120.362 712,-130.362 715.5,-120.362 708.5,-120.362"/>
</g>
<!-- Node10 -->
<g id="node19" class="node"><title>Node10</title>
<a xlink:href="SystemClass_8cpp.html" target="_top" xlink:title="parameter/SystemClass.cpp">
<polygon fill="white" stroke="black" points="361.5,-7.5 361.5,-28.5 514.5,-28.5 514.5,-7.5 361.5,-7.5"/>
<text text-anchor="middle" x="438" y="-15.5" font-family="Verdana" font-size="10.00">parameter/SystemClass.cpp</text>
</a>
</g>
<!-- Node6&#45;&gt;Node10 -->
<g id="edge20" class="edge"><title>Node6&#45;&gt;Node10</title>
<path fill="none" stroke="midnightblue" d="M622.591,-129.082C541.435,-117.83 433.437,-101.586 427,-94 411.3,-75.4994 423.483,-44.8915 431.839,-28.7422"/>
<polygon fill="midnightblue" stroke="midnightblue" points="622.462,-132.597 632.847,-130.497 623.419,-125.663 622.462,-132.597"/>
</g>
<!-- Node11 -->
<g id="node22" class="node"><title>Node11</title>
<a xlink:href="VirtualSubsystem_8cpp.html" target="_top" xlink:title="parameter/VirtualSubsystem.cpp">
<polygon fill="white" stroke="black" points="436,-72.5 436,-93.5 612,-93.5 612,-72.5 436,-72.5"/>
<text text-anchor="middle" x="524" y="-80.5" font-family="Verdana" font-size="10.00">parameter/VirtualSubsystem.cpp</text>
</a>
</g>
<!-- Node6&#45;&gt;Node11 -->
<g id="edge22" class="edge"><title>Node6&#45;&gt;Node11</title>
<path fill="none" stroke="midnightblue" d="M668.392,-127.546C634.809,-117.186 589.044,-103.067 558.109,-93.5231"/>
<polygon fill="midnightblue" stroke="midnightblue" points="667.367,-130.893 677.955,-130.497 669.431,-124.204 667.367,-130.893"/>
</g>
<!-- Node7&#45;&gt;Node8 -->
<g id="edge14" class="edge"><title>Node7&#45;&gt;Node8</title>
<path fill="none" stroke="midnightblue" d="M738.943,-67.0792C759.246,-55.0821 786.515,-38.9684 804.174,-28.5337"/>
<polygon fill="midnightblue" stroke="midnightblue" points="736.993,-64.166 730.164,-72.2666 740.554,-70.1925 736.993,-64.166"/>
</g>
<!-- Node9 -->
<g id="node17" class="node"><title>Node9</title>
<a xlink:href="SubsystemElementBuilder_8cpp.html" target="_top" xlink:title="parameter/SubsystemElement\lBuilder.cpp">
<polygon fill="white" stroke="black" points="561,-1 561,-35 725,-35 725,-1 561,-1"/>
<text text-anchor="start" x="569" y="-22" font-family="Verdana" font-size="10.00">parameter/SubsystemElement</text>
<text text-anchor="middle" x="643" y="-9" font-family="Verdana" font-size="10.00">Builder.cpp</text>
</a>
</g>
<!-- Node7&#45;&gt;Node9 -->
<g id="edge16" class="edge"><title>Node7&#45;&gt;Node9</title>
<path fill="none" stroke="midnightblue" d="M693.175,-65.2667C683.21,-55.8787 671.028,-44.4029 661.163,-35.1099"/>
<polygon fill="midnightblue" stroke="midnightblue" points="690.927,-67.9572 700.606,-72.2666 695.727,-62.862 690.927,-67.9572"/>
</g>
<!-- Node7&#45;&gt;Node10 -->
<g id="edge18" class="edge"><title>Node7&#45;&gt;Node10</title>
<path fill="none" stroke="midnightblue" d="M657.739,-70.128C606.338,-57.9341 530.091,-39.8463 482.264,-28.5005"/>
<polygon fill="midnightblue" stroke="midnightblue" points="657.135,-73.5816 667.673,-72.4844 658.751,-66.7706 657.135,-73.5816"/>
</g>
</g>
</svg>
