<?xml version="1.0" encoding="UTF-8" standalone="no"?>
<!DOCTYPE svg PUBLIC "-//W3C//DTD SVG 1.1//EN"
 "http://www.w3.org/Graphics/SVG/1.1/DTD/svg11.dtd">
<!-- Generated by graphviz version 2.26.3 (20100126.1600)
 -->
<!-- Title: parameter/MappingContext.h Pages: 1 -->
<svg width="1585pt" height="304pt"
 viewBox="0.00 0.00 1585.00 304.00" xmlns="http://www.w3.org/2000/svg" xmlns:xlink="http://www.w3.org/1999/xlink">
<g id="graph1" class="graph" transform="scale(1 1) rotate(0) translate(4 300)">
<title>parameter/MappingContext.h</title>
<polygon fill="white" stroke="white" points="-4,5 -4,-300 1582,-300 1582,5 -4,5"/>
<!-- Node1 -->
<g id="node1" class="node"><title>Node1</title>
<polygon fill="#bfbfbf" stroke="black" points="1043,-274.5 1043,-295.5 1201,-295.5 1201,-274.5 1043,-274.5"/>
<text text-anchor="middle" x="1122" y="-282.5" font-family="Verdana" font-size="10.00">parameter/MappingContext.h</text>
</g>
<!-- Node2 -->
<g id="node3" class="node"><title>Node2</title>
<a xlink:href="Subsystem_8h.html" target="_top" xlink:title="parameter/Subsystem.h">
<polygon fill="white" stroke="black" points="565,-209.5 565,-230.5 699,-230.5 699,-209.5 565,-209.5"/>
<text text-anchor="middle" x="632" y="-217.5" font-family="Verdana" font-size="10.00">parameter/Subsystem.h</text>
</a>
</g>
<!-- Node1&#45;&gt;Node2 -->
<g id="edge2" class="edge"><title>Node1&#45;&gt;Node2</title>
<path fill="none" stroke="midnightblue" d="M1032.74,-273.159C936.639,-260.411 785.941,-240.421 699.329,-228.931"/>
<polygon fill="midnightblue" stroke="midnightblue" points="1032.35,-276.639 1042.73,-274.484 1033.28,-269.7 1032.35,-276.639"/>
</g>
<!-- Node13 -->
<g id="node27" class="node"><title>Node13</title>
<a xlink:href="SubsystemObject_8cpp.html" target="_top" xlink:title="parameter/SubsystemObject.cpp">
<polygon fill="white" stroke="black" points="856,-137.5 856,-158.5 1032,-158.5 1032,-137.5 856,-137.5"/>
<text text-anchor="middle" x="944" y="-145.5" font-family="Verdana" font-size="10.00">parameter/SubsystemObject.cpp</text>
</a>
</g>
<!-- Node1&#45;&gt;Node13 -->
<g id="edge42" class="edge"><title>Node1&#45;&gt;Node13</title>
<path fill="none" stroke="midnightblue" d="M1089.37,-269.838C1072.73,-261.459 1052.58,-250.271 1036,-238 1002.42,-213.138 968.808,-176.575 953.129,-158.672"/>
<polygon fill="midnightblue" stroke="midnightblue" points="1088.18,-273.156 1098.7,-274.434 1091.27,-266.876 1088.18,-273.156"/>
</g>
<!-- Node14 -->
<g id="node29" class="node"><title>Node14</title>
<a xlink:href="FormattedSubsystemObject_8cpp.html" target="_top" xlink:title="parameter/FormattedSubsystem\lObject.cpp">
<polygon fill="white" stroke="black" points="1216.5,-203 1216.5,-237 1391.5,-237 1391.5,-203 1216.5,-203"/>
<text text-anchor="start" x="1224.5" y="-224" font-family="Verdana" font-size="10.00">parameter/FormattedSubsystem</text>
<text text-anchor="middle" x="1304" y="-211" font-family="Verdana" font-size="10.00">Object.cpp</text>
</a>
</g>
<!-- Node1&#45;&gt;Node14 -->
<g id="edge30" class="edge"><title>Node1&#45;&gt;Node14</title>
<path fill="none" stroke="midnightblue" d="M1161.07,-271.047C1188.94,-261.094 1226.57,-247.652 1256.23,-237.06"/>
<polygon fill="midnightblue" stroke="midnightblue" points="1159.89,-267.752 1151.65,-274.412 1162.24,-274.345 1159.89,-267.752"/>
</g>
<!-- Node15 -->
<g id="node31" class="node"><title>Node15</title>
<a xlink:href="MappingContext_8cpp.html" target="_top" xlink:title="parameter/MappingContext.cpp">
<polygon fill="white" stroke="black" points="1408.5,-209.5 1408.5,-230.5 1577.5,-230.5 1577.5,-209.5 1408.5,-209.5"/>
<text text-anchor="middle" x="1493" y="-217.5" font-family="Verdana" font-size="10.00">parameter/MappingContext.cpp</text>
</a>
</g>
<!-- Node1&#45;&gt;Node15 -->
<g id="edge32" class="edge"><title>Node1&#45;&gt;Node15</title>
<path fill="none" stroke="midnightblue" d="M1197.14,-272.791C1253.13,-263.575 1331.42,-250.432 1400,-238 1412.78,-235.683 1426.53,-233.081 1439.44,-230.592"/>
<polygon fill="midnightblue" stroke="midnightblue" points="1196.25,-269.39 1186.95,-274.466 1197.39,-276.297 1196.25,-269.39"/>
</g>
<!-- Node16 -->
<g id="node33" class="node"><title>Node16</title>
<a xlink:href="SubsystemObjectCreator_8h.html" target="_top" xlink:title="parameter/SubsystemObject\lCreator.h">
<polygon fill="white" stroke="black" points="1044.5,-203 1044.5,-237 1199.5,-237 1199.5,-203 1044.5,-203"/>
<text text-anchor="start" x="1052.5" y="-224" font-family="Verdana" font-size="10.00">parameter/SubsystemObject</text>
<text text-anchor="middle" x="1122" y="-211" font-family="Verdana" font-size="10.00">Creator.h</text>
</a>
</g>
<!-- Node1&#45;&gt;Node16 -->
<g id="edge34" class="edge"><title>Node1&#45;&gt;Node16</title>
<path fill="none" stroke="midnightblue" d="M1122,-264.131C1122,-255.405 1122,-245.391 1122,-237.11"/>
<polygon fill="midnightblue" stroke="midnightblue" points="1118.5,-264.267 1122,-274.267 1125.5,-264.267 1118.5,-264.267"/>
</g>
<!-- Node3 -->
<g id="node5" class="node"><title>Node3</title>
<a xlink:href="BitwiseAreaConfiguration_8cpp.html" target="_top" xlink:title="parameter/BitwiseAreaConfiguration.cpp">
<polygon fill="white" stroke="black" points="418,-137.5 418,-158.5 628,-158.5 628,-137.5 418,-137.5"/>
<text text-anchor="middle" x="523" y="-145.5" font-family="Verdana" font-size="10.00">parameter/BitwiseAreaConfiguration.cpp</text>
</a>
</g>
<!-- Node2&#45;&gt;Node3 -->
<g id="edge4" class="edge"><title>Node2&#45;&gt;Node3</title>
<path fill="none" stroke="midnightblue" d="M607.548,-203.848C586.661,-190.051 557.209,-170.597 539.149,-158.667"/>
<polygon fill="midnightblue" stroke="midnightblue" points="605.644,-206.785 615.917,-209.376 609.502,-200.944 605.644,-206.785"/>
</g>
<!-- Node4 -->
<g id="node7" class="node"><title>Node4</title>
<a xlink:href="DomainConfiguration_8cpp.html" target="_top" xlink:title="parameter/DomainConfiguration.cpp">
<polygon fill="white" stroke="black" points="646,-137.5 646,-158.5 838,-158.5 838,-137.5 646,-137.5"/>
<text text-anchor="middle" x="742" y="-145.5" font-family="Verdana" font-size="10.00">parameter/DomainConfiguration.cpp</text>
</a>
</g>
<!-- Node2&#45;&gt;Node4 -->
<g id="edge6" class="edge"><title>Node2&#45;&gt;Node4</title>
<path fill="none" stroke="midnightblue" d="M656.677,-203.848C677.755,-190.051 707.477,-170.597 725.703,-158.667"/>
<polygon fill="midnightblue" stroke="midnightblue" points="654.681,-200.971 648.231,-209.376 658.515,-206.828 654.681,-200.971"/>
</g>
<!-- Node5 -->
<g id="node9" class="node"><title>Node5</title>
<a xlink:href="ParameterHandle_8cpp.html" target="_top" xlink:title="parameter/ParameterHandle.cpp">
<polygon fill="white" stroke="black" points="-0.5,-137.5 -0.5,-158.5 174.5,-158.5 174.5,-137.5 -0.5,-137.5"/>
<text text-anchor="middle" x="87" y="-145.5" font-family="Verdana" font-size="10.00">parameter/ParameterHandle.cpp</text>
</a>
</g>
<!-- Node2&#45;&gt;Node5 -->
<g id="edge8" class="edge"><title>Node2&#45;&gt;Node5</title>
<path fill="none" stroke="midnightblue" d="M554.921,-211.935C466.227,-202.351 316.294,-185.219 188,-166 173.292,-163.797 157.433,-161.116 142.74,-158.503"/>
<polygon fill="midnightblue" stroke="midnightblue" points="554.581,-215.418 564.898,-213.009 555.33,-208.458 554.581,-215.418"/>
</g>
<!-- Node6 -->
<g id="node11" class="node"><title>Node6</title>
<a xlink:href="VirtualSubsystem_8h.html" target="_top" xlink:title="parameter/VirtualSubsystem.h">
<polygon fill="white" stroke="black" points="236,-137.5 236,-158.5 400,-158.5 400,-137.5 236,-137.5"/>
<text text-anchor="middle" x="318" y="-145.5" font-family="Verdana" font-size="10.00">parameter/VirtualSubsystem.h</text>
</a>
</g>
<!-- Node2&#45;&gt;Node6 -->
<g id="edge10" class="edge"><title>Node2&#45;&gt;Node6</title>
<path fill="none" stroke="midnightblue" d="M576.236,-207.213C515.714,-193.336 420.197,-171.434 363.862,-158.516"/>
<polygon fill="midnightblue" stroke="midnightblue" points="575.476,-210.63 586.005,-209.453 577.041,-203.807 575.476,-210.63"/>
</g>
<!-- Node8 -->
<g id="node15" class="node"><title>Node8</title>
<a xlink:href="ParameterMgr_8cpp.html" target="_top" xlink:title="parameter/ParameterMgr.cpp">
<polygon fill="white" stroke="black" points="153,-7.5 153,-28.5 311,-28.5 311,-7.5 153,-7.5"/>
<text text-anchor="middle" x="232" y="-15.5" font-family="Verdana" font-size="10.00">parameter/ParameterMgr.cpp</text>
</a>
</g>
<!-- Node2&#45;&gt;Node8 -->
<g id="edge24" class="edge"><title>Node2&#45;&gt;Node8</title>
<path fill="none" stroke="midnightblue" d="M554.406,-214.844C443.147,-206.683 249.171,-189.294 227,-166 190.665,-127.824 215.729,-55.884 227.158,-28.7357"/>
<polygon fill="midnightblue" stroke="midnightblue" points="554.35,-218.349 564.577,-215.581 554.856,-211.367 554.35,-218.349"/>
</g>
<!-- Node12 -->
<g id="node25" class="node"><title>Node12</title>
<a xlink:href="Subsystem_8cpp.html" target="_top" xlink:title="parameter/Subsystem.cpp">
<polygon fill="white" stroke="black" points="1049.5,-137.5 1049.5,-158.5 1194.5,-158.5 1194.5,-137.5 1049.5,-137.5"/>
<text text-anchor="middle" x="1122" y="-145.5" font-family="Verdana" font-size="10.00">parameter/Subsystem.cpp</text>
</a>
</g>
<!-- Node2&#45;&gt;Node12 -->
<g id="edge26" class="edge"><title>Node2&#45;&gt;Node12</title>
<path fill="none" stroke="midnightblue" d="M709.268,-211.837C791.736,-202.649 926.07,-186.317 1041,-166 1053.06,-163.868 1066.04,-161.168 1078,-158.511"/>
<polygon fill="midnightblue" stroke="midnightblue" points="708.779,-208.369 699.225,-212.949 709.549,-215.327 708.779,-208.369"/>
</g>
<!-- Node2&#45;&gt;Node13 -->
<g id="edge28" class="edge"><title>Node2&#45;&gt;Node13</title>
<path fill="none" stroke="midnightblue" d="M687.781,-207.127C747.937,-193.245 842.57,-171.407 898.43,-158.516"/>
<polygon fill="midnightblue" stroke="midnightblue" points="686.658,-203.794 677.702,-209.453 688.233,-210.615 686.658,-203.794"/>
</g>
<!-- Node7 -->
<g id="node13" class="node"><title>Node7</title>
<a xlink:href="SubsystemLibrary_8h.html" target="_top" xlink:title="parameter/SubsystemLibrary.h">
<polygon fill="white" stroke="black" points="424,-72.5 424,-93.5 588,-93.5 588,-72.5 424,-72.5"/>
<text text-anchor="middle" x="506" y="-80.5" font-family="Verdana" font-size="10.00">parameter/SubsystemLibrary.h</text>
</a>
</g>
<!-- Node6&#45;&gt;Node7 -->
<g id="edge12" class="edge"><title>Node6&#45;&gt;Node7</title>
<path fill="none" stroke="midnightblue" d="M358.094,-134.138C393.193,-122.002 443.439,-104.63 475.389,-93.5835"/>
<polygon fill="midnightblue" stroke="midnightblue" points="356.931,-130.836 348.624,-137.412 359.219,-137.452 356.931,-130.836"/>
</g>
<!-- Node10 -->
<g id="node19" class="node"><title>Node10</title>
<a xlink:href="SystemClass_8cpp.html" target="_top" xlink:title="parameter/SystemClass.cpp">
<polygon fill="white" stroke="black" points="539.5,-7.5 539.5,-28.5 692.5,-28.5 692.5,-7.5 539.5,-7.5"/>
<text text-anchor="middle" x="616" y="-15.5" font-family="Verdana" font-size="10.00">parameter/SystemClass.cpp</text>
</a>
</g>
<!-- Node6&#45;&gt;Node10 -->
<g id="edge20" class="edge"><title>Node6&#45;&gt;Node10</title>
<path fill="none" stroke="midnightblue" d="M381.002,-135.486C390.386,-133.637 399.945,-131.763 409,-130 492.507,-113.746 535.19,-152.455 597,-94 615.182,-76.805 617.043,-45.0661 616.651,-28.5731"/>
<polygon fill="midnightblue" stroke="midnightblue" points="380.054,-132.106 370.921,-137.476 381.409,-138.973 380.054,-132.106"/>
</g>
<!-- Node11 -->
<g id="node22" class="node"><title>Node11</title>
<a xlink:href="VirtualSubsystem_8cpp.html" target="_top" xlink:title="parameter/VirtualSubsystem.cpp">
<polygon fill="white" stroke="black" points="230,-72.5 230,-93.5 406,-93.5 406,-72.5 230,-72.5"/>
<text text-anchor="middle" x="318" y="-80.5" font-family="Verdana" font-size="10.00">parameter/VirtualSubsystem.cpp</text>
</a>
</g>
<!-- Node6&#45;&gt;Node11 -->
<g id="edge22" class="edge"><title>Node6&#45;&gt;Node11</title>
<path fill="none" stroke="midnightblue" d="M318,-127.014C318,-115.831 318,-102.558 318,-93.5337"/>
<polygon fill="midnightblue" stroke="midnightblue" points="314.5,-127.267 318,-137.267 321.5,-127.267 314.5,-127.267"/>
</g>
<!-- Node7&#45;&gt;Node8 -->
<g id="edge14" class="edge"><title>Node7&#45;&gt;Node8</title>
<path fill="none" stroke="midnightblue" d="M451.739,-70.128C400.338,-57.9341 324.091,-39.8463 276.264,-28.5005"/>
<polygon fill="midnightblue" stroke="midnightblue" points="451.135,-73.5816 461.673,-72.4844 452.751,-66.7706 451.135,-73.5816"/>
</g>
<!-- Node9 -->
<g id="node17" class="node"><title>Node9</title>
<a xlink:href="SubsystemElementBuilder_8cpp.html" target="_top" xlink:title="parameter/SubsystemElement\lBuilder.cpp">
<polygon fill="white" stroke="black" points="358,-1 358,-35 522,-35 522,-1 358,-1"/>
<text text-anchor="start" x="366" y="-22" font-family="Verdana" font-size="10.00">parameter/SubsystemElement</text>
<text text-anchor="middle" x="440" y="-9" font-family="Verdana" font-size="10.00">Builder.cpp</text>
</a>
</g>
<!-- Node7&#45;&gt;Node9 -->
<g id="edge16" class="edge"><title>Node7&#45;&gt;Node9</title>
<path fill="none" stroke="midnightblue" d="M487.71,-64.9873C478.231,-55.6517 466.716,-44.3109 457.373,-35.1099"/>
<polygon fill="midnightblue" stroke="midnightblue" points="485.521,-67.7434 495.101,-72.2666 490.432,-62.756 485.521,-67.7434"/>
</g>
<!-- Node7&#45;&gt;Node10 -->
<g id="edge18" class="edge"><title>Node7&#45;&gt;Node10</title>
<path fill="none" stroke="midnightblue" d="M532.943,-67.0792C553.246,-55.0821 580.515,-38.9684 598.174,-28.5337"/>
<polygon fill="midnightblue" stroke="midnightblue" points="530.993,-64.166 524.164,-72.2666 534.554,-70.1925 530.993,-64.166"/>
</g>
<!-- Node16&#45;&gt;Node12 -->
<g id="edge36" class="edge"><title>Node16&#45;&gt;Node12</title>
<path fill="none" stroke="midnightblue" d="M1122,-192.667C1122,-180.913 1122,-167.848 1122,-158.901"/>
<polygon fill="midnightblue" stroke="midnightblue" points="1118.5,-192.937 1122,-202.937 1125.5,-192.937 1118.5,-192.937"/>
</g>
<!-- Node17 -->
<g id="node36" class="node"><title>Node17</title>
<a xlink:href="SubsystemObjectCreator_8cpp.html" target="_top" xlink:title="parameter/SubsystemObject\lCreator.cpp">
<polygon fill="white" stroke="black" points="1211.5,-131 1211.5,-165 1366.5,-165 1366.5,-131 1211.5,-131"/>
<text text-anchor="start" x="1219.5" y="-152" font-family="Verdana" font-size="10.00">parameter/SubsystemObject</text>
<text text-anchor="middle" x="1289" y="-139" font-family="Verdana" font-size="10.00">Creator.cpp</text>
</a>
</g>
<!-- Node16&#45;&gt;Node17 -->
<g id="edge38" class="edge"><title>Node16&#45;&gt;Node17</title>
<path fill="none" stroke="midnightblue" d="M1170.89,-198.924C1195.88,-188.149 1225.9,-175.206 1249.42,-165.065"/>
<polygon fill="midnightblue" stroke="midnightblue" points="1169.37,-195.764 1161.58,-202.937 1172.15,-202.192 1169.37,-195.764"/>
</g>
<!-- Node18 -->
<g id="node38" class="node"><title>Node18</title>
<a xlink:href="SubsystemObjectFactory_8h.html" target="_top" xlink:title="parameter/SubsystemObject\lFactory.h">
<polygon fill="white" stroke="black" points="1383.5,-131 1383.5,-165 1538.5,-165 1538.5,-131 1383.5,-131"/>
<text text-anchor="start" x="1391.5" y="-152" font-family="Verdana" font-size="10.00">parameter/SubsystemObject</text>
<text text-anchor="middle" x="1461" y="-139" font-family="Verdana" font-size="10.00">Factory.h</text>
</a>
</g>
<!-- Node16&#45;&gt;Node18 -->
<g id="edge40" class="edge"><title>Node16&#45;&gt;Node18</title>
<path fill="none" stroke="midnightblue" d="M1209.63,-201.389C1263.35,-189.979 1331.51,-175.503 1383.3,-164.504"/>
<polygon fill="midnightblue" stroke="midnightblue" points="1208.83,-197.98 1199.77,-203.482 1210.28,-204.828 1208.83,-197.98"/>
</g>
</g>
</svg>
