<?xml version="1.0" encoding="UTF-8" standalone="no"?>
<!DOCTYPE svg PUBLIC "-//W3C//DTD SVG 1.1//EN"
 "http://www.w3.org/Graphics/SVG/1.1/DTD/svg11.dtd">
<!-- Generated by graphviz version 2.26.3 (20100126.1600)
 -->
<!-- Title: parameter/MappingData.cpp Pages: 1 -->
<svg width="384pt" height="146pt"
 viewBox="0.00 0.00 384.00 146.00" xmlns="http://www.w3.org/2000/svg" xmlns:xlink="http://www.w3.org/1999/xlink">
<g id="graph1" class="graph" transform="scale(1 1) rotate(0) translate(4 142)">
<title>parameter/MappingData.cpp</title>
<polygon fill="white" stroke="white" points="-4,5 -4,-142 381,-142 381,5 -4,5"/>
<!-- Node1 -->
<g id="node1" class="node"><title>Node1</title>
<polygon fill="#bfbfbf" stroke="black" points="160.5,-116.5 160.5,-137.5 315.5,-137.5 315.5,-116.5 160.5,-116.5"/>
<text text-anchor="middle" x="238" y="-124.5" font-family="Verdana" font-size="10.00">parameter/MappingData.cpp</text>
</g>
<!-- Node2 -->
<g id="node3" class="node"><title>Node2</title>
<a xlink:href="MappingData_8h.html" target="_top" xlink:title="MappingData.h">
<polygon fill="white" stroke="black" points="59.5,-58.5 59.5,-79.5 148.5,-79.5 148.5,-58.5 59.5,-58.5"/>
<text text-anchor="middle" x="104" y="-66.5" font-family="Verdana" font-size="10.00">MappingData.h</text>
</a>
</g>
<!-- Node1&#45;&gt;Node2 -->
<g id="edge2" class="edge"><title>Node1&#45;&gt;Node2</title>
<path fill="none" stroke="midnightblue" d="M213.734,-116.497C192.522,-107.315 161.502,-93.8889 137.85,-83.6516"/>
<polygon fill="midnightblue" stroke="midnightblue" points="139.106,-80.3815 128.539,-79.6212 136.326,-86.8055 139.106,-80.3815"/>
</g>
<!-- Node6 -->
<g id="node11" class="node"><title>Node6</title>
<polygon fill="white" stroke="#bfbfbf" points="165.5,-58.5 165.5,-79.5 234.5,-79.5 234.5,-58.5 165.5,-58.5"/>
<text text-anchor="middle" x="200" y="-66.5" font-family="Verdana" font-size="10.00">Tokenizer.h</text>
</g>
<!-- Node1&#45;&gt;Node6 -->
<g id="edge10" class="edge"><title>Node1&#45;&gt;Node6</title>
<path fill="none" stroke="midnightblue" d="M231.03,-116.362C225.834,-108.431 218.599,-97.3885 212.422,-87.9606"/>
<polygon fill="midnightblue" stroke="midnightblue" points="215.334,-86.0172 206.926,-79.5707 209.478,-89.8534 215.334,-86.0172"/>
</g>
<!-- Node7 -->
<g id="node13" class="node"><title>Node7</title>
<polygon fill="white" stroke="#bfbfbf" points="251.5,-58.5 251.5,-79.5 302.5,-79.5 302.5,-58.5 251.5,-58.5"/>
<text text-anchor="middle" x="277" y="-66.5" font-family="Verdana" font-size="10.00">Utility.h</text>
</g>
<!-- Node1&#45;&gt;Node7 -->
<g id="edge12" class="edge"><title>Node1&#45;&gt;Node7</title>
<path fill="none" stroke="midnightblue" d="M245.153,-116.362C250.486,-108.431 257.911,-97.3885 264.251,-87.9606"/>
<polygon fill="midnightblue" stroke="midnightblue" points="267.217,-89.8221 269.892,-79.5707 261.408,-85.9161 267.217,-89.8221"/>
</g>
<!-- Node8 -->
<g id="node15" class="node"><title>Node8</title>
<polygon fill="white" stroke="#bfbfbf" points="320,-58.5 320,-79.5 376,-79.5 376,-58.5 320,-58.5"/>
<text text-anchor="middle" x="348" y="-66.5" font-family="Verdana" font-size="10.00">assert.h</text>
</g>
<!-- Node1&#45;&gt;Node8 -->
<g id="edge14" class="edge"><title>Node1&#45;&gt;Node8</title>
<path fill="none" stroke="midnightblue" d="M257.92,-116.497C274.946,-107.519 299.669,-94.4835 318.909,-84.3387"/>
<polygon fill="midnightblue" stroke="midnightblue" points="320.643,-87.3814 327.856,-79.6212 317.378,-81.1894 320.643,-87.3814"/>
</g>
<!-- Node3 -->
<g id="node5" class="node"><title>Node3</title>
<polygon fill="white" stroke="#bfbfbf" points="0,-0.5 0,-21.5 64,-21.5 64,-0.5 0,-0.5"/>
<text text-anchor="middle" x="32" y="-8.5" font-family="Verdana" font-size="10.00">XmlSink.h</text>
</g>
<!-- Node2&#45;&gt;Node3 -->
<g id="edge4" class="edge"><title>Node2&#45;&gt;Node3</title>
<path fill="none" stroke="midnightblue" d="M90.7941,-58.3619C80.2388,-49.859 65.2423,-37.7785 53.0371,-27.9466"/>
<polygon fill="midnightblue" stroke="midnightblue" points="55.1054,-25.1183 45.1222,-21.5707 50.7141,-30.5696 55.1054,-25.1183"/>
</g>
<!-- Node4 -->
<g id="node7" class="node"><title>Node4</title>
<polygon fill="white" stroke="#bfbfbf" points="82,-0.5 82,-21.5 126,-21.5 126,-0.5 82,-0.5"/>
<text text-anchor="middle" x="104" y="-8.5" font-family="Verdana" font-size="10.00">string</text>
</g>
<!-- Node2&#45;&gt;Node4 -->
<g id="edge6" class="edge"><title>Node2&#45;&gt;Node4</title>
<path fill="none" stroke="midnightblue" d="M104,-58.3619C104,-50.9219 104,-40.7427 104,-31.7276"/>
<polygon fill="midnightblue" stroke="midnightblue" points="107.5,-31.5706 104,-21.5707 100.5,-31.5707 107.5,-31.5706"/>
</g>
<!-- Node5 -->
<g id="node9" class="node"><title>Node5</title>
<polygon fill="white" stroke="#bfbfbf" points="144,-0.5 144,-21.5 182,-21.5 182,-0.5 144,-0.5"/>
<text text-anchor="middle" x="163" y="-8.5" font-family="Verdana" font-size="10.00">map</text>
</g>
<!-- Node2&#45;&gt;Node5 -->
<g id="edge8" class="edge"><title>Node2&#45;&gt;Node5</title>
<path fill="none" stroke="midnightblue" d="M114.822,-58.3619C123.221,-50.1043 135.054,-38.4725 144.89,-28.8029"/>
<polygon fill="midnightblue" stroke="midnightblue" points="147.569,-31.077 152.247,-21.5707 142.662,-26.0851 147.569,-31.077"/>
</g>
</g>
</svg>
