<?xml version="1.0" encoding="UTF-8" standalone="no"?>
<!DOCTYPE svg PUBLIC "-//W3C//DTD SVG 1.1//EN"
 "http://www.w3.org/Graphics/SVG/1.1/DTD/svg11.dtd">
<!-- Generated by graphviz version 2.26.3 (20100126.1600)
 -->
<!-- Title: parameter/MappingData.h Pages: 1 -->
<svg width="190pt" height="88pt"
 viewBox="0.00 0.00 190.00 88.00" xmlns="http://www.w3.org/2000/svg" xmlns:xlink="http://www.w3.org/1999/xlink">
<g id="graph1" class="graph" transform="scale(1 1) rotate(0) translate(4 84)">
<title>parameter/MappingData.h</title>
<polygon fill="white" stroke="white" points="-4,5 -4,-84 187,-84 187,5 -4,5"/>
<!-- Node1 -->
<g id="node1" class="node"><title>Node1</title>
<polygon fill="#bfbfbf" stroke="black" points="32.5,-58.5 32.5,-79.5 175.5,-79.5 175.5,-58.5 32.5,-58.5"/>
<text text-anchor="middle" x="104" y="-66.5" font-family="Verdana" font-size="10.00">parameter/MappingData.h</text>
</g>
<!-- Node2 -->
<g id="node3" class="node"><title>Node2</title>
<polygon fill="white" stroke="#bfbfbf" points="0,-0.5 0,-21.5 64,-21.5 64,-0.5 0,-0.5"/>
<text text-anchor="middle" x="32" y="-8.5" font-family="Verdana" font-size="10.00">XmlSink.h</text>
</g>
<!-- Node1&#45;&gt;Node2 -->
<g id="edge2" class="edge"><title>Node1&#45;&gt;Node2</title>
<path fill="none" stroke="midnightblue" d="M90.7941,-58.3619C80.2388,-49.859 65.2423,-37.7785 53.0371,-27.9466"/>
<polygon fill="midnightblue" stroke="midnightblue" points="55.1054,-25.1183 45.1222,-21.5707 50.7141,-30.5696 55.1054,-25.1183"/>
</g>
<!-- Node3 -->
<g id="node5" class="node"><title>Node3</title>
<polygon fill="white" stroke="#bfbfbf" points="82,-0.5 82,-21.5 126,-21.5 126,-0.5 82,-0.5"/>
<text text-anchor="middle" x="104" y="-8.5" font-family="Verdana" font-size="10.00">string</text>
</g>
<!-- Node1&#45;&gt;Node3 -->
<g id="edge4" class="edge"><title>Node1&#45;&gt;Node3</title>
<path fill="none" stroke="midnightblue" d="M104,-58.3619C104,-50.9219 104,-40.7427 104,-31.7276"/>
<polygon fill="midnightblue" stroke="midnightblue" points="107.5,-31.5706 104,-21.5707 100.5,-31.5707 107.5,-31.5706"/>
</g>
<!-- Node4 -->
<g id="node7" class="node"><title>Node4</title>
<polygon fill="white" stroke="#bfbfbf" points="144,-0.5 144,-21.5 182,-21.5 182,-0.5 144,-0.5"/>
<text text-anchor="middle" x="163" y="-8.5" font-family="Verdana" font-size="10.00">map</text>
</g>
<!-- Node1&#45;&gt;Node4 -->
<g id="edge6" class="edge"><title>Node1&#45;&gt;Node4</title>
<path fill="none" stroke="midnightblue" d="M114.822,-58.3619C123.221,-50.1043 135.054,-38.4725 144.89,-28.8029"/>
<polygon fill="midnightblue" stroke="midnightblue" points="147.569,-31.077 152.247,-21.5707 142.662,-26.0851 147.569,-31.077"/>
</g>
</g>
</svg>
