<?xml version="1.0" encoding="UTF-8" standalone="no"?>
<!DOCTYPE svg PUBLIC "-//W3C//DTD SVG 1.1//EN"
 "http://www.w3.org/Graphics/SVG/1.1/DTD/svg11.dtd">
<!-- Generated by graphviz version 2.26.3 (20100126.1600)
 -->
<!-- Title: remote&#45;processor/Message.h Pages: 1 -->
<svg width="828pt" height="318pt"
 viewBox="0.00 0.00 828.00 318.00" xmlns="http://www.w3.org/2000/svg" xmlns:xlink="http://www.w3.org/1999/xlink">
<g id="graph1" class="graph" transform="scale(1 1) rotate(0) translate(4 314)">
<title>remote&#45;processor/Message.h</title>
<polygon fill="white" stroke="white" points="-4,5 -4,-314 825,-314 825,5 -4,5"/>
<!-- Node1 -->
<g id="node1" class="node"><title>Node1</title>
<polygon fill="#bfbfbf" stroke="black" points="296,-288.5 296,-309.5 454,-309.5 454,-288.5 296,-288.5"/>
<text text-anchor="middle" x="375" y="-296.5" font-family="Verdana" font-size="10.00">remote&#45;processor/Message.h</text>
</g>
<!-- Node2 -->
<g id="node3" class="node"><title>Node2</title>
<a xlink:href="AnswerMessage_8h.html" target="_top" xlink:title="remote&#45;processor/AnswerMessage.h">
<polygon fill="white" stroke="black" points="81,-223.5 81,-244.5 273,-244.5 273,-223.5 81,-223.5"/>
<text text-anchor="middle" x="177" y="-231.5" font-family="Verdana" font-size="10.00">remote&#45;processor/AnswerMessage.h</text>
</a>
</g>
<!-- Node1&#45;&gt;Node2 -->
<g id="edge2" class="edge"><title>Node1&#45;&gt;Node2</title>
<path fill="none" stroke="midnightblue" d="M332.773,-285.138C295.807,-273.002 242.889,-255.63 209.239,-244.584"/>
<polygon fill="midnightblue" stroke="midnightblue" points="332.154,-288.618 342.747,-288.412 334.338,-281.967 332.154,-288.618"/>
</g>
<!-- Node6 -->
<g id="node11" class="node"><title>Node6</title>
<a xlink:href="Message_8cpp.html" target="_top" xlink:title="remote&#45;processor/Message.cpp">
<polygon fill="white" stroke="black" points="290.5,-223.5 290.5,-244.5 459.5,-244.5 459.5,-223.5 290.5,-223.5"/>
<text text-anchor="middle" x="375" y="-231.5" font-family="Verdana" font-size="10.00">remote&#45;processor/Message.cpp</text>
</a>
</g>
<!-- Node1&#45;&gt;Node6 -->
<g id="edge10" class="edge"><title>Node1&#45;&gt;Node6</title>
<path fill="none" stroke="midnightblue" d="M375,-278.014C375,-266.831 375,-253.558 375,-244.534"/>
<polygon fill="midnightblue" stroke="midnightblue" points="371.5,-278.267 375,-288.267 378.5,-278.267 371.5,-278.267"/>
</g>
<!-- Node7 -->
<g id="node13" class="node"><title>Node7</title>
<a xlink:href="RequestMessage_8h.html" target="_top" xlink:title="remote&#45;processor/Request\lMessage.h">
<polygon fill="white" stroke="black" points="477,-217 477,-251 621,-251 621,-217 477,-217"/>
<text text-anchor="start" x="485" y="-238" font-family="Verdana" font-size="10.00">remote&#45;processor/Request</text>
<text text-anchor="middle" x="549" y="-225" font-family="Verdana" font-size="10.00">Message.h</text>
</a>
</g>
<!-- Node1&#45;&gt;Node7 -->
<g id="edge12" class="edge"><title>Node1&#45;&gt;Node7</title>
<path fill="none" stroke="midnightblue" d="M413.051,-284.786C439.622,-274.859 475.225,-261.56 503.331,-251.06"/>
<polygon fill="midnightblue" stroke="midnightblue" points="411.486,-281.634 403.343,-288.412 413.936,-288.191 411.486,-281.634"/>
</g>
<!-- Node3 -->
<g id="node5" class="node"><title>Node3</title>
<a xlink:href="main_8cpp.html" target="_top" xlink:title="remote&#45;process/main.cpp">
<polygon fill="white" stroke="black" points="258,-151.5 258,-172.5 398,-172.5 398,-151.5 258,-151.5"/>
<text text-anchor="middle" x="328" y="-159.5" font-family="Verdana" font-size="10.00">remote&#45;process/main.cpp</text>
</a>
</g>
<!-- Node2&#45;&gt;Node3 -->
<g id="edge4" class="edge"><title>Node2&#45;&gt;Node3</title>
<path fill="none" stroke="midnightblue" d="M208.575,-218.944C237.612,-205.099 279.939,-184.917 305.628,-172.667"/>
<polygon fill="midnightblue" stroke="midnightblue" points="206.801,-215.913 199.281,-223.376 209.813,-222.231 206.801,-215.913"/>
</g>
<!-- Node4 -->
<g id="node7" class="node"><title>Node4</title>
<a xlink:href="AnswerMessage_8cpp.html" target="_top" xlink:title="remote&#45;processor/AnswerMessage.cpp">
<polygon fill="white" stroke="black" points="-0.5,-151.5 -0.5,-172.5 202.5,-172.5 202.5,-151.5 -0.5,-151.5"/>
<text text-anchor="middle" x="101" y="-159.5" font-family="Verdana" font-size="10.00">remote&#45;processor/AnswerMessage.cpp</text>
</a>
</g>
<!-- Node2&#45;&gt;Node4 -->
<g id="edge6" class="edge"><title>Node2&#45;&gt;Node4</title>
<path fill="none" stroke="midnightblue" d="M158.368,-216.349C143.931,-202.671 124.403,-184.171 112.26,-172.667"/>
<polygon fill="midnightblue" stroke="midnightblue" points="156.119,-219.04 165.786,-223.376 160.934,-213.958 156.119,-219.04"/>
</g>
<!-- Node5 -->
<g id="node9" class="node"><title>Node5</title>
<a xlink:href="RemoteProcessorServer_8cpp.html" target="_top" xlink:title="remote&#45;processor/RemoteProcessor\lServer.cpp">
<polygon fill="white" stroke="black" points="331,-1 331,-35 521,-35 521,-1 331,-1"/>
<text text-anchor="start" x="339" y="-22" font-family="Verdana" font-size="10.00">remote&#45;processor/RemoteProcessor</text>
<text text-anchor="middle" x="426" y="-9" font-family="Verdana" font-size="10.00">Server.cpp</text>
</a>
</g>
<!-- Node2&#45;&gt;Node5 -->
<g id="edge8" class="edge"><title>Node2&#45;&gt;Node5</title>
<path fill="none" stroke="midnightblue" d="M190.006,-214.746C203.47,-195.594 225.758,-165.973 249,-144 296.419,-99.1695 360.58,-57.3885 397.201,-35.0086"/>
<polygon fill="midnightblue" stroke="midnightblue" points="186.95,-213.012 184.14,-223.228 192.707,-216.994 186.95,-213.012"/>
</g>
<!-- Node7&#45;&gt;Node3 -->
<g id="edge14" class="edge"><title>Node7&#45;&gt;Node3</title>
<path fill="none" stroke="midnightblue" d="M486.973,-213.792C445.875,-200.403 393.622,-183.379 360.481,-172.582"/>
<polygon fill="midnightblue" stroke="midnightblue" points="486.034,-217.167 496.626,-216.937 488.202,-210.511 486.034,-217.167"/>
</g>
<!-- Node7&#45;&gt;Node5 -->
<g id="edge26" class="edge"><title>Node7&#45;&gt;Node5</title>
<path fill="none" stroke="midnightblue" d="M483.751,-212.332C468.835,-204.409 454.573,-193.864 445,-180 414.187,-135.376 418.841,-66.8626 423.143,-35.1711"/>
<polygon fill="midnightblue" stroke="midnightblue" points="482.57,-215.651 493.087,-216.932 485.664,-209.372 482.57,-215.651"/>
</g>
<!-- Node8 -->
<g id="node16" class="node"><title>Node8</title>
<a xlink:href="RemoteProcessorServerInterface_8h.html" target="_top" xlink:title="remote&#45;processor/RemoteProcessor\lServerInterface.h">
<polygon fill="white" stroke="black" points="454,-145 454,-179 644,-179 644,-145 454,-145"/>
<text text-anchor="start" x="462" y="-166" font-family="Verdana" font-size="10.00">remote&#45;processor/RemoteProcessor</text>
<text text-anchor="middle" x="549" y="-153" font-family="Verdana" font-size="10.00">ServerInterface.h</text>
</a>
</g>
<!-- Node7&#45;&gt;Node8 -->
<g id="edge16" class="edge"><title>Node7&#45;&gt;Node8</title>
<path fill="none" stroke="midnightblue" d="M549,-206.719C549,-197.572 549,-187.625 549,-179.441"/>
<polygon fill="midnightblue" stroke="midnightblue" points="545.5,-206.937 549,-216.937 552.5,-206.937 545.5,-206.937"/>
</g>
<!-- Node12 -->
<g id="node26" class="node"><title>Node12</title>
<a xlink:href="RequestMessage_8cpp.html" target="_top" xlink:title="remote&#45;processor/Request\lMessage.cpp">
<polygon fill="white" stroke="black" points="662,-145 662,-179 806,-179 806,-145 662,-145"/>
<text text-anchor="start" x="670" y="-166" font-family="Verdana" font-size="10.00">remote&#45;processor/Request</text>
<text text-anchor="middle" x="734" y="-153" font-family="Verdana" font-size="10.00">Message.cpp</text>
</a>
</g>
<!-- Node7&#45;&gt;Node12 -->
<g id="edge28" class="edge"><title>Node7&#45;&gt;Node12</title>
<path fill="none" stroke="midnightblue" d="M602.424,-213.208C630.254,-202.377 663.866,-189.295 690.152,-179.065"/>
<polygon fill="midnightblue" stroke="midnightblue" points="600.892,-210.048 592.842,-216.937 603.431,-216.572 600.892,-210.048"/>
</g>
<!-- Node9 -->
<g id="node18" class="node"><title>Node9</title>
<a xlink:href="ParameterMgr_8cpp.html" target="_top" xlink:title="parameter/ParameterMgr.cpp">
<polygon fill="white" stroke="black" points="454,-79.5 454,-100.5 612,-100.5 612,-79.5 454,-79.5"/>
<text text-anchor="middle" x="533" y="-87.5" font-family="Verdana" font-size="10.00">parameter/ParameterMgr.cpp</text>
</a>
</g>
<!-- Node8&#45;&gt;Node9 -->
<g id="edge18" class="edge"><title>Node8&#45;&gt;Node9</title>
<path fill="none" stroke="midnightblue" d="M543.006,-135.026C540.373,-123.18 537.431,-109.94 535.422,-100.901"/>
<polygon fill="midnightblue" stroke="midnightblue" points="539.622,-135.934 545.208,-144.937 546.455,-134.416 539.622,-135.934"/>
</g>
<!-- Node10 -->
<g id="node20" class="node"><title>Node10</title>
<a xlink:href="RemoteProcessorServer_8h.html" target="_top" xlink:title="remote&#45;processor/RemoteProcessor\lServer.h">
<polygon fill="white" stroke="black" points="630,-73 630,-107 820,-107 820,-73 630,-73"/>
<text text-anchor="start" x="638" y="-94" font-family="Verdana" font-size="10.00">remote&#45;processor/RemoteProcessor</text>
<text text-anchor="middle" x="725" y="-81" font-family="Verdana" font-size="10.00">Server.h</text>
</a>
</g>
<!-- Node8&#45;&gt;Node10 -->
<g id="edge20" class="edge"><title>Node8&#45;&gt;Node10</title>
<path fill="none" stroke="midnightblue" d="M600.172,-141.066C626.58,-130.263 658.388,-117.251 683.285,-107.065"/>
<polygon fill="midnightblue" stroke="midnightblue" points="598.64,-137.911 590.71,-144.937 601.29,-144.39 598.64,-137.911"/>
</g>
<!-- Node10&#45;&gt;Node5 -->
<g id="edge22" class="edge"><title>Node10&#45;&gt;Node5</title>
<path fill="none" stroke="midnightblue" d="M644.186,-70.5397C598.099,-59.4418 540.885,-45.6645 496.609,-35.0028"/>
<polygon fill="midnightblue" stroke="midnightblue" points="643.6,-73.9986 654.141,-72.937 645.238,-67.1931 643.6,-73.9986"/>
</g>
<!-- Node11 -->
<g id="node23" class="node"><title>Node11</title>
<a xlink:href="RemoteProcessorServerBuilder_8cpp.html" target="_top" xlink:title="remote&#45;processor/RemoteProcessor\lServerBuilder.cpp">
<polygon fill="white" stroke="black" points="630,-1 630,-35 820,-35 820,-1 630,-1"/>
<text text-anchor="start" x="638" y="-22" font-family="Verdana" font-size="10.00">remote&#45;processor/RemoteProcessor</text>
<text text-anchor="middle" x="725" y="-9" font-family="Verdana" font-size="10.00">ServerBuilder.cpp</text>
</a>
</g>
<!-- Node10&#45;&gt;Node11 -->
<g id="edge24" class="edge"><title>Node10&#45;&gt;Node11</title>
<path fill="none" stroke="midnightblue" d="M725,-62.7193C725,-53.572 725,-43.6255 725,-35.4407"/>
<polygon fill="midnightblue" stroke="midnightblue" points="721.5,-62.937 725,-72.937 728.5,-62.937 721.5,-62.937"/>
</g>
</g>
</svg>
