<?xml version="1.0" encoding="UTF-8" standalone="no"?>
<!DOCTYPE svg PUBLIC "-//W3C//DTD SVG 1.1//EN"
 "http://www.w3.org/Graphics/SVG/1.1/DTD/svg11.dtd">
<!-- Generated by graphviz version 2.26.3 (20100126.1600)
 -->
<!-- Title: remote&#45;processor/Message.cpp Pages: 1 -->
<svg width="530pt" height="146pt"
 viewBox="0.00 0.00 530.00 146.00" xmlns="http://www.w3.org/2000/svg" xmlns:xlink="http://www.w3.org/1999/xlink">
<g id="graph1" class="graph" transform="scale(1 1) rotate(0) translate(4 142)">
<title>remote&#45;processor/Message.cpp</title>
<polygon fill="white" stroke="white" points="-4,5 -4,-142 527,-142 527,5 -4,5"/>
<!-- Node1 -->
<g id="node1" class="node"><title>Node1</title>
<polygon fill="#bfbfbf" stroke="black" points="165.5,-116.5 165.5,-137.5 334.5,-137.5 334.5,-116.5 165.5,-116.5"/>
<text text-anchor="middle" x="250" y="-124.5" font-family="Verdana" font-size="10.00">remote&#45;processor/Message.cpp</text>
</g>
<!-- Node2 -->
<g id="node3" class="node"><title>Node2</title>
<a xlink:href="Message_8h.html" target="_top" xlink:title="Message.h">
<polygon fill="white" stroke="black" points="0,-58.5 0,-79.5 68,-79.5 68,-58.5 0,-58.5"/>
<text text-anchor="middle" x="34" y="-66.5" font-family="Verdana" font-size="10.00">Message.h</text>
</a>
</g>
<!-- Node1&#45;&gt;Node2 -->
<g id="edge2" class="edge"><title>Node1&#45;&gt;Node2</title>
<path fill="none" stroke="midnightblue" d="M210.884,-116.497C173.498,-106.458 117.211,-91.3437 78.2149,-80.8725"/>
<polygon fill="midnightblue" stroke="midnightblue" points="78.7663,-77.3966 68.2007,-78.1835 76.9509,-84.1572 78.7663,-77.3966"/>
</g>
<!-- Node5 -->
<g id="node9" class="node"><title>Node5</title>
<polygon fill="white" stroke="#bfbfbf" points="162,-58.5 162,-79.5 218,-79.5 218,-58.5 162,-58.5"/>
<text text-anchor="middle" x="190" y="-66.5" font-family="Verdana" font-size="10.00">assert.h</text>
</g>
<!-- Node1&#45;&gt;Node5 -->
<g id="edge8" class="edge"><title>Node1&#45;&gt;Node5</title>
<path fill="none" stroke="midnightblue" d="M238.995,-116.362C230.453,-108.104 218.42,-96.4725 208.417,-86.8029"/>
<polygon fill="midnightblue" stroke="midnightblue" points="210.558,-84.0044 200.935,-79.5707 205.692,-89.0374 210.558,-84.0044"/>
</g>
<!-- Node6 -->
<g id="node11" class="node"><title>Node6</title>
<a xlink:href="Socket_8h.html" target="_top" xlink:title="Socket.h">
<polygon fill="white" stroke="black" points="85.5,-58.5 85.5,-79.5 144.5,-79.5 144.5,-58.5 85.5,-58.5"/>
<text text-anchor="middle" x="115" y="-66.5" font-family="Verdana" font-size="10.00">Socket.h</text>
</a>
</g>
<!-- Node1&#45;&gt;Node6 -->
<g id="edge10" class="edge"><title>Node1&#45;&gt;Node6</title>
<path fill="none" stroke="midnightblue" d="M225.553,-116.497C204.182,-107.315 172.931,-93.8889 149.103,-83.6516"/>
<polygon fill="midnightblue" stroke="midnightblue" points="150.291,-80.3529 139.722,-79.6212 147.528,-86.7845 150.291,-80.3529"/>
</g>
<!-- Node7 -->
<g id="node15" class="node"><title>Node7</title>
<a xlink:href="RemoteProcessorProtocol_8h.html" target="_top" xlink:title="RemoteProcessorProtocol.h">
<polygon fill="white" stroke="black" points="235.5,-58.5 235.5,-79.5 384.5,-79.5 384.5,-58.5 235.5,-58.5"/>
<text text-anchor="middle" x="310" y="-66.5" font-family="Verdana" font-size="10.00">RemoteProcessorProtocol.h</text>
</a>
</g>
<!-- Node1&#45;&gt;Node7 -->
<g id="edge16" class="edge"><title>Node1&#45;&gt;Node7</title>
<path fill="none" stroke="midnightblue" d="M261.005,-116.362C269.547,-108.104 281.58,-96.4725 291.583,-86.8029"/>
<polygon fill="midnightblue" stroke="midnightblue" points="294.308,-89.0374 299.065,-79.5707 289.442,-84.0044 294.308,-89.0374"/>
</g>
<!-- Node8 -->
<g id="node17" class="node"><title>Node8</title>
<polygon fill="white" stroke="#bfbfbf" points="401.5,-58.5 401.5,-79.5 454.5,-79.5 454.5,-58.5 401.5,-58.5"/>
<text text-anchor="middle" x="428" y="-66.5" font-family="Verdana" font-size="10.00">string.h</text>
</g>
<!-- Node1&#45;&gt;Node8 -->
<g id="edge18" class="edge"><title>Node1&#45;&gt;Node8</title>
<path fill="none" stroke="midnightblue" d="M282.234,-116.497C312.971,-106.481 359.21,-91.4147 391.337,-80.9464"/>
<polygon fill="midnightblue" stroke="midnightblue" points="392.811,-84.1474 401.234,-77.7214 390.642,-77.4918 392.811,-84.1474"/>
</g>
<!-- Node9 -->
<g id="node19" class="node"><title>Node9</title>
<polygon fill="white" stroke="#bfbfbf" points="471.5,-58.5 471.5,-79.5 522.5,-79.5 522.5,-58.5 471.5,-58.5"/>
<text text-anchor="middle" x="497" y="-66.5" font-family="Verdana" font-size="10.00">errno.h</text>
</g>
<!-- Node1&#45;&gt;Node9 -->
<g id="edge20" class="edge"><title>Node1&#45;&gt;Node9</title>
<path fill="none" stroke="midnightblue" d="M304.629,-116.446C345.586,-108.193 403.178,-95.8675 461.682,-80.2005"/>
<polygon fill="midnightblue" stroke="midnightblue" points="462.721,-83.5453 471.459,-77.553 460.892,-76.7886 462.721,-83.5453"/>
</g>
<!-- Node3 -->
<g id="node5" class="node"><title>Node3</title>
<polygon fill="white" stroke="#bfbfbf" points="11.5,-0.5 11.5,-21.5 64.5,-21.5 64.5,-0.5 11.5,-0.5"/>
<text text-anchor="middle" x="38" y="-8.5" font-family="Verdana" font-size="10.00">stdint.h</text>
</g>
<!-- Node2&#45;&gt;Node3 -->
<g id="edge4" class="edge"><title>Node2&#45;&gt;Node3</title>
<path fill="none" stroke="midnightblue" d="M34.7337,-58.3619C35.2468,-50.9219 35.9488,-40.7427 36.5705,-31.7276"/>
<polygon fill="midnightblue" stroke="midnightblue" points="40.0746,-31.7878 37.271,-21.5707 33.0912,-31.3061 40.0746,-31.7878"/>
</g>
<!-- Node4 -->
<g id="node7" class="node"><title>Node4</title>
<polygon fill="white" stroke="#bfbfbf" points="89,-0.5 89,-21.5 133,-21.5 133,-0.5 89,-0.5"/>
<text text-anchor="middle" x="111" y="-8.5" font-family="Verdana" font-size="10.00">string</text>
</g>
<!-- Node2&#45;&gt;Node4 -->
<g id="edge6" class="edge"><title>Node2&#45;&gt;Node4</title>
<path fill="none" stroke="midnightblue" d="M48.123,-58.3619C59.5198,-49.7773 75.7581,-37.5459 88.8777,-27.6636"/>
<polygon fill="midnightblue" stroke="midnightblue" points="91.0848,-30.3829 96.9665,-21.5707 86.8732,-24.7916 91.0848,-30.3829"/>
</g>
<!-- Node6&#45;&gt;Node3 -->
<g id="edge14" class="edge"><title>Node6&#45;&gt;Node3</title>
<path fill="none" stroke="midnightblue" d="M100.877,-58.3619C89.4802,-49.7773 73.2419,-37.5459 60.1223,-27.6636"/>
<polygon fill="midnightblue" stroke="midnightblue" points="62.1268,-24.7916 52.0335,-21.5707 57.9152,-30.3829 62.1268,-24.7916"/>
</g>
<!-- Node6&#45;&gt;Node4 -->
<g id="edge12" class="edge"><title>Node6&#45;&gt;Node4</title>
<path fill="none" stroke="midnightblue" d="M114.266,-58.3619C113.753,-50.9219 113.051,-40.7427 112.429,-31.7276"/>
<polygon fill="midnightblue" stroke="midnightblue" points="115.909,-31.3061 111.729,-21.5707 108.925,-31.7878 115.909,-31.3061"/>
</g>
</g>
</svg>
