<?xml version="1.0" encoding="UTF-8" standalone="no"?>
<!DOCTYPE svg PUBLIC "-//W3C//DTD SVG 1.1//EN"
 "http://www.w3.org/Graphics/SVG/1.1/DTD/svg11.dtd">
<!-- Generated by graphviz version 2.26.3 (20100126.1600)
 -->
<!-- Title: remote&#45;processor/Message.h Pages: 1 -->
<svg width="166pt" height="88pt"
 viewBox="0.00 0.00 166.00 88.00" xmlns="http://www.w3.org/2000/svg" xmlns:xlink="http://www.w3.org/1999/xlink">
<g id="graph1" class="graph" transform="scale(1 1) rotate(0) translate(4 84)">
<title>remote&#45;processor/Message.h</title>
<polygon fill="white" stroke="white" points="-4,5 -4,-84 163,-84 163,5 -4,5"/>
<!-- Node1 -->
<g id="node1" class="node"><title>Node1</title>
<polygon fill="#bfbfbf" stroke="black" points="0,-58.5 0,-79.5 158,-79.5 158,-58.5 0,-58.5"/>
<text text-anchor="middle" x="79" y="-66.5" font-family="Verdana" font-size="10.00">remote&#45;processor/Message.h</text>
</g>
<!-- Node2 -->
<g id="node3" class="node"><title>Node2</title>
<polygon fill="white" stroke="#bfbfbf" points="19.5,-0.5 19.5,-21.5 72.5,-21.5 72.5,-0.5 19.5,-0.5"/>
<text text-anchor="middle" x="46" y="-8.5" font-family="Verdana" font-size="10.00">stdint.h</text>
</g>
<!-- Node1&#45;&gt;Node2 -->
<g id="edge2" class="edge"><title>Node1&#45;&gt;Node2</title>
<path fill="none" stroke="midnightblue" d="M72.9473,-58.3619C68.5281,-50.5949 62.4104,-39.8426 57.1209,-30.5458"/>
<polygon fill="midnightblue" stroke="midnightblue" points="60.0017,-28.5315 52.0143,-21.5707 53.9176,-31.9932 60.0017,-28.5315"/>
</g>
<!-- Node3 -->
<g id="node5" class="node"><title>Node3</title>
<polygon fill="white" stroke="#bfbfbf" points="90,-0.5 90,-21.5 134,-21.5 134,-0.5 90,-0.5"/>
<text text-anchor="middle" x="112" y="-8.5" font-family="Verdana" font-size="10.00">string</text>
</g>
<!-- Node1&#45;&gt;Node3 -->
<g id="edge4" class="edge"><title>Node1&#45;&gt;Node3</title>
<path fill="none" stroke="midnightblue" d="M85.0527,-58.3619C89.4719,-50.5949 95.5896,-39.8426 100.879,-30.5458"/>
<polygon fill="midnightblue" stroke="midnightblue" points="104.082,-31.9932 105.986,-21.5707 97.9983,-28.5315 104.082,-31.9932"/>
</g>
</g>
</svg>
