<?xml version="1.0" encoding="UTF-8" standalone="no"?>
<!DOCTYPE svg PUBLIC "-//W3C//DTD SVG 1.1//EN"
 "http://www.w3.org/Graphics/SVG/1.1/DTD/svg11.dtd">
<!-- Generated by graphviz version 2.26.3 (20100126.1600)
 -->
<!-- Title: parameter/ParameterFrameworkConfiguration.h Pages: 1 -->
<svg width="461pt" height="218pt"
 viewBox="0.00 0.00 461.00 218.00" xmlns="http://www.w3.org/2000/svg" xmlns:xlink="http://www.w3.org/1999/xlink">
<g id="graph1" class="graph" transform="scale(1 1) rotate(0) translate(4 214)">
<title>parameter/ParameterFrameworkConfiguration.h</title>
<polygon fill="white" stroke="white" points="-4,5 -4,-214 458,-214 458,5 -4,5"/>
<!-- Node1 -->
<g id="node1" class="node"><title>Node1</title>
<polygon fill="#bfbfbf" stroke="black" points="-0.5,-175 -0.5,-209 172.5,-209 172.5,-175 -0.5,-175"/>
<text text-anchor="start" x="7.5" y="-196" font-family="Verdana" font-size="10.00">parameter/ParameterFramework</text>
<text text-anchor="middle" x="86" y="-183" font-family="Verdana" font-size="10.00">Configuration.h</text>
</g>
<!-- Node2 -->
<g id="node3" class="node"><title>Node2</title>
<a xlink:href="Element_8h.html" target="_top" xlink:title="Element.h">
<polygon fill="white" stroke="black" points="148.5,-116.5 148.5,-137.5 213.5,-137.5 213.5,-116.5 148.5,-116.5"/>
<text text-anchor="middle" x="181" y="-124.5" font-family="Verdana" font-size="10.00">Element.h</text>
</a>
</g>
<!-- Node1&#45;&gt;Node2 -->
<g id="edge2" class="edge"><title>Node1&#45;&gt;Node2</title>
<path fill="none" stroke="midnightblue" d="M110.96,-174.922C125.12,-165.233 142.76,-153.165 156.793,-143.562"/>
<polygon fill="midnightblue" stroke="midnightblue" points="159.146,-146.194 165.422,-137.658 155.193,-140.417 159.146,-146.194"/>
</g>
<!-- Node3 -->
<g id="node5" class="node"><title>Node3</title>
<polygon fill="white" stroke="#bfbfbf" points="7,-0.5 7,-21.5 51,-21.5 51,-0.5 7,-0.5"/>
<text text-anchor="middle" x="29" y="-8.5" font-family="Verdana" font-size="10.00">string</text>
</g>
<!-- Node1&#45;&gt;Node3 -->
<g id="edge24" class="edge"><title>Node1&#45;&gt;Node3</title>
<path fill="none" stroke="midnightblue" d="M75.0709,-174.997C62.0717,-153.745 41.002,-115.798 32,-80 28.0707,-64.3743 27.4398,-46.1414 27.7273,-32.3437"/>
<polygon fill="midnightblue" stroke="midnightblue" points="31.2401,-32.0801 28.1325,-21.9513 24.2455,-31.8074 31.2401,-32.0801"/>
</g>
<!-- Node2&#45;&gt;Node3 -->
<g id="edge4" class="edge"><title>Node2&#45;&gt;Node3</title>
<path fill="none" stroke="midnightblue" d="M148.47,-123.973C118.291,-119.438 74.2055,-108.135 48,-80 35.802,-66.9039 31.3155,-46.701 29.7243,-31.5346"/>
<polygon fill="midnightblue" stroke="midnightblue" points="33.2151,-31.2788 29.0085,-21.5549 26.233,-31.7797 33.2151,-31.2788"/>
</g>
<!-- Node4 -->
<g id="node7" class="node"><title>Node4</title>
<polygon fill="white" stroke="#bfbfbf" points="314.5,-0.5 314.5,-21.5 361.5,-21.5 361.5,-0.5 314.5,-0.5"/>
<text text-anchor="middle" x="338" y="-8.5" font-family="Verdana" font-size="10.00">vector</text>
</g>
<!-- Node2&#45;&gt;Node4 -->
<g id="edge6" class="edge"><title>Node2&#45;&gt;Node4</title>
<path fill="none" stroke="midnightblue" d="M213.636,-124.195C265.087,-119.021 361.345,-106.042 382,-80 395.278,-63.2595 377.77,-42.3751 361.065,-27.9929"/>
<polygon fill="midnightblue" stroke="midnightblue" points="363.038,-25.086 353.068,-21.5015 358.626,-30.5211 363.038,-25.086"/>
</g>
<!-- Node5 -->
<g id="node9" class="node"><title>Node5</title>
<polygon fill="white" stroke="#bfbfbf" points="400.5,-0.5 400.5,-21.5 453.5,-21.5 453.5,-0.5 400.5,-0.5"/>
<text text-anchor="middle" x="427" y="-8.5" font-family="Verdana" font-size="10.00">stdint.h</text>
</g>
<!-- Node2&#45;&gt;Node5 -->
<g id="edge8" class="edge"><title>Node2&#45;&gt;Node5</title>
<path fill="none" stroke="midnightblue" d="M213.753,-123.616C267.266,-117.492 370.275,-103.028 398,-80 412.479,-67.9745 419.857,-47.4683 423.535,-31.9278"/>
<polygon fill="midnightblue" stroke="midnightblue" points="427.055,-32.1772 425.607,-21.6818 420.194,-30.7893 427.055,-32.1772"/>
</g>
<!-- Node6 -->
<g id="node11" class="node"><title>Node6</title>
<polygon fill="white" stroke="#bfbfbf" points="57,-58.5 57,-79.5 87,-79.5 87,-58.5 57,-58.5"/>
<text text-anchor="middle" x="72" y="-66.5" font-family="Verdana" font-size="10.00">list</text>
</g>
<!-- Node2&#45;&gt;Node6 -->
<g id="edge10" class="edge"><title>Node2&#45;&gt;Node6</title>
<path fill="none" stroke="midnightblue" d="M161.261,-116.497C142.914,-106.734 115.546,-92.1712 95.9551,-81.7468"/>
<polygon fill="midnightblue" stroke="midnightblue" points="97.5083,-78.6086 87.0362,-77.0009 94.2201,-84.7882 97.5083,-78.6086"/>
</g>
<!-- Node7 -->
<g id="node13" class="node"><title>Node7</title>
<polygon fill="white" stroke="#bfbfbf" points="105,-58.5 105,-79.5 169,-79.5 169,-58.5 105,-58.5"/>
<text text-anchor="middle" x="137" y="-66.5" font-family="Verdana" font-size="10.00">XmlSink.h</text>
</g>
<!-- Node2&#45;&gt;Node7 -->
<g id="edge12" class="edge"><title>Node2&#45;&gt;Node7</title>
<path fill="none" stroke="midnightblue" d="M172.93,-116.362C166.851,-108.35 158.363,-97.1605 151.163,-87.6696"/>
<polygon fill="midnightblue" stroke="midnightblue" points="153.851,-85.4222 145.019,-79.5707 148.275,-89.653 153.851,-85.4222"/>
</g>
<!-- Node8 -->
<g id="node15" class="node"><title>Node8</title>
<polygon fill="white" stroke="#bfbfbf" points="186.5,-58.5 186.5,-79.5 263.5,-79.5 263.5,-58.5 186.5,-58.5"/>
<text text-anchor="middle" x="225" y="-66.5" font-family="Verdana" font-size="10.00">XmlSource.h</text>
</g>
<!-- Node2&#45;&gt;Node8 -->
<g id="edge14" class="edge"><title>Node2&#45;&gt;Node8</title>
<path fill="none" stroke="midnightblue" d="M189.07,-116.362C195.149,-108.35 203.637,-97.1605 210.837,-87.6696"/>
<polygon fill="midnightblue" stroke="midnightblue" points="213.725,-89.653 216.981,-79.5707 208.149,-85.4222 213.725,-89.653"/>
</g>
<!-- Node9 -->
<g id="node17" class="node"><title>Node9</title>
<a xlink:href="PathNavigator_8h.html" target="_top" xlink:title="PathNavigator.h">
<polygon fill="white" stroke="black" points="281,-58.5 281,-79.5 373,-79.5 373,-58.5 281,-58.5"/>
<text text-anchor="middle" x="327" y="-66.5" font-family="Verdana" font-size="10.00">PathNavigator.h</text>
</a>
</g>
<!-- Node2&#45;&gt;Node9 -->
<g id="edge16" class="edge"><title>Node2&#45;&gt;Node9</title>
<path fill="none" stroke="midnightblue" d="M207.439,-116.497C230.756,-107.234 264.95,-93.6499 290.804,-83.3793"/>
<polygon fill="midnightblue" stroke="midnightblue" points="292.263,-86.566 300.264,-79.6212 289.678,-80.0605 292.263,-86.566"/>
</g>
<!-- Node9&#45;&gt;Node3 -->
<g id="edge20" class="edge"><title>Node9&#45;&gt;Node3</title>
<path fill="none" stroke="midnightblue" d="M280.791,-59.7361C277.816,-59.1466 274.866,-58.5638 272,-58 196.509,-43.1504 107.744,-26.081 61.2034,-17.1613"/>
<polygon fill="midnightblue" stroke="midnightblue" points="61.6023,-13.6742 51.1224,-15.2302 60.2853,-20.5492 61.6023,-13.6742"/>
</g>
<!-- Node9&#45;&gt;Node4 -->
<g id="edge18" class="edge"><title>Node9&#45;&gt;Node4</title>
<path fill="none" stroke="midnightblue" d="M329.018,-58.3619C330.444,-50.8401 332.402,-40.5187 334.125,-31.4308"/>
<polygon fill="midnightblue" stroke="midnightblue" points="337.571,-32.0477 335.995,-21.5707 330.693,-30.7433 337.571,-32.0477"/>
</g>
<!-- Node9&#45;&gt;Node5 -->
<g id="edge22" class="edge"><title>Node9&#45;&gt;Node5</title>
<path fill="none" stroke="midnightblue" d="M345.342,-58.3619C360.566,-49.532 382.441,-36.844 399.72,-26.8224"/>
<polygon fill="midnightblue" stroke="midnightblue" points="401.88,-29.6155 408.775,-21.5707 398.368,-23.5603 401.88,-29.6155"/>
</g>
</g>
</svg>
