<?xml version="1.0" encoding="UTF-8" standalone="no"?>
<!DOCTYPE svg PUBLIC "-//W3C//DTD SVG 1.1//EN"
 "http://www.w3.org/Graphics/SVG/1.1/DTD/svg11.dtd">
<!-- Generated by graphviz version 2.26.3 (20100126.1600)
 -->
<!-- Title: parameter/ParameterHandle.cpp Pages: 1 -->
<svg width="1820pt" height="436pt"
 viewBox="0.00 0.00 1820.00 436.00" xmlns="http://www.w3.org/2000/svg" xmlns:xlink="http://www.w3.org/1999/xlink">
<g id="graph1" class="graph" transform="scale(1 1) rotate(0) translate(4 432)">
<title>parameter/ParameterHandle.cpp</title>
<polygon fill="white" stroke="white" points="-4,5 -4,-432 1817,-432 1817,5 -4,5"/>
<!-- Node1 -->
<g id="node1" class="node"><title>Node1</title>
<polygon fill="#bfbfbf" stroke="black" points="700.5,-406.5 700.5,-427.5 875.5,-427.5 875.5,-406.5 700.5,-406.5"/>
<text text-anchor="middle" x="788" y="-414.5" font-family="Verdana" font-size="10.00">parameter/ParameterHandle.cpp</text>
</g>
<!-- Node2 -->
<g id="node3" class="node"><title>Node2</title>
<polygon fill="white" stroke="#bfbfbf" points="0,-348.5 0,-369.5 110,-369.5 110,-348.5 0,-348.5"/>
<text text-anchor="middle" x="55" y="-356.5" font-family="Verdana" font-size="10.00">ParameterHandle.h</text>
</g>
<!-- Node1&#45;&gt;Node2 -->
<g id="edge2" class="edge"><title>Node1&#45;&gt;Node2</title>
<path fill="none" stroke="midnightblue" d="M700.499,-413.247C573.28,-407.238 329.942,-393.658 124,-370 122.885,-369.872 121.761,-369.739 120.629,-369.601"/>
<polygon fill="midnightblue" stroke="midnightblue" points="120.672,-366.077 110.303,-368.252 119.766,-373.018 120.672,-366.077"/>
</g>
<!-- Node3 -->
<g id="node5" class="node"><title>Node3</title>
<a xlink:href="ParameterAccessContext_8h.html" target="_top" xlink:title="ParameterAccessContext.h">
<polygon fill="white" stroke="black" points="221.5,-116.5 221.5,-137.5 368.5,-137.5 368.5,-116.5 221.5,-116.5"/>
<text text-anchor="middle" x="295" y="-124.5" font-family="Verdana" font-size="10.00">ParameterAccessContext.h</text>
</a>
</g>
<!-- Node1&#45;&gt;Node3 -->
<g id="edge4" class="edge"><title>Node1&#45;&gt;Node3</title>
<path fill="none" stroke="midnightblue" d="M700.437,-409.553C600.105,-398.473 432.591,-372.079 301,-312 225.449,-277.506 128.191,-242.605 175,-174 183.441,-161.629 215.867,-149.344 244.886,-140.438"/>
<polygon fill="midnightblue" stroke="midnightblue" points="245.975,-143.766 254.557,-137.552 243.974,-137.058 245.975,-143.766"/>
</g>
<!-- Node7 -->
<g id="node14" class="node"><title>Node7</title>
<a xlink:href="BaseParameter_8h.html" target="_top" xlink:title="BaseParameter.h">
<polygon fill="white" stroke="black" points="738.5,-348.5 738.5,-369.5 837.5,-369.5 837.5,-348.5 738.5,-348.5"/>
<text text-anchor="middle" x="788" y="-356.5" font-family="Verdana" font-size="10.00">BaseParameter.h</text>
</a>
</g>
<!-- Node1&#45;&gt;Node7 -->
<g id="edge14" class="edge"><title>Node1&#45;&gt;Node7</title>
<path fill="none" stroke="midnightblue" d="M788,-406.362C788,-398.922 788,-388.743 788,-379.728"/>
<polygon fill="midnightblue" stroke="midnightblue" points="791.5,-379.571 788,-369.571 784.5,-379.571 791.5,-379.571"/>
</g>
<!-- Node18 -->
<g id="node49" class="node"><title>Node18</title>
<a xlink:href="Subsystem_8h.html" target="_top" xlink:title="Subsystem.h">
<polygon fill="white" stroke="black" points="310,-290.5 310,-311.5 390,-311.5 390,-290.5 310,-290.5"/>
<text text-anchor="middle" x="350" y="-298.5" font-family="Verdana" font-size="10.00">Subsystem.h</text>
</a>
</g>
<!-- Node1&#45;&gt;Node18 -->
<g id="edge62" class="edge"><title>Node1&#45;&gt;Node18</title>
<path fill="none" stroke="midnightblue" d="M747.969,-406.398C667.648,-385.126 487.048,-337.296 399.478,-314.104"/>
<polygon fill="midnightblue" stroke="midnightblue" points="400.342,-310.712 389.779,-311.535 398.55,-317.479 400.342,-310.712"/>
</g>
<!-- Node22 -->
<g id="node65" class="node"><title>Node22</title>
<polygon fill="white" stroke="#bfbfbf" points="981,-348.5 981,-369.5 1037,-369.5 1037,-348.5 981,-348.5"/>
<text text-anchor="middle" x="1009" y="-356.5" font-family="Verdana" font-size="10.00">assert.h</text>
</g>
<!-- Node1&#45;&gt;Node22 -->
<g id="edge86" class="edge"><title>Node1&#45;&gt;Node22</title>
<path fill="none" stroke="midnightblue" d="M831.251,-406.456C866.429,-397.767 917.583,-384.878 970.794,-370.269"/>
<polygon fill="midnightblue" stroke="midnightblue" points="972.042,-373.555 980.751,-367.521 970.18,-366.807 972.042,-373.555"/>
</g>
<!-- Node23 -->
<g id="node67" class="node"><title>Node23</title>
<a xlink:href="ParameterMgr_8h.html" target="_top" xlink:title="ParameterMgr.h">
<polygon fill="white" stroke="black" points="1338.5,-290.5 1338.5,-311.5 1431.5,-311.5 1431.5,-290.5 1338.5,-290.5"/>
<text text-anchor="middle" x="1385" y="-298.5" font-family="Verdana" font-size="10.00">ParameterMgr.h</text>
</a>
</g>
<!-- Node1&#45;&gt;Node23 -->
<g id="edge88" class="edge"><title>Node1&#45;&gt;Node23</title>
<path fill="none" stroke="midnightblue" d="M800.898,-406.414C822.628,-388.807 865.932,-354.767 884,-348 964.029,-318.026 1214.34,-306.416 1327.93,-302.607"/>
<polygon fill="midnightblue" stroke="midnightblue" points="1328.28,-306.098 1338.16,-302.273 1328.05,-299.102 1328.28,-306.098"/>
</g>
<!-- Node35 -->
<g id="node106" class="node"><title>Node35</title>
<a xlink:href="AutoLock_8h.html" target="_top" xlink:title="AutoLock.h">
<polygon fill="white" stroke="black" points="893,-348.5 893,-369.5 963,-369.5 963,-348.5 893,-348.5"/>
<text text-anchor="middle" x="928" y="-356.5" font-family="Verdana" font-size="10.00">AutoLock.h</text>
</a>
</g>
<!-- Node1&#45;&gt;Node35 -->
<g id="edge142" class="edge"><title>Node1&#45;&gt;Node35</title>
<path fill="none" stroke="midnightblue" d="M813.353,-406.497C835.613,-397.275 868.212,-383.769 892.963,-373.515"/>
<polygon fill="midnightblue" stroke="midnightblue" points="894.464,-376.682 902.363,-369.621 891.784,-370.215 894.464,-376.682"/>
</g>
<!-- Node4 -->
<g id="node7" class="node"><title>Node4</title>
<polygon fill="white" stroke="#bfbfbf" points="931.5,-0.5 931.5,-21.5 984.5,-21.5 984.5,-0.5 931.5,-0.5"/>
<text text-anchor="middle" x="958" y="-8.5" font-family="Verdana" font-size="10.00">stdint.h</text>
</g>
<!-- Node3&#45;&gt;Node4 -->
<g id="edge6" class="edge"><title>Node3&#45;&gt;Node4</title>
<path fill="none" stroke="midnightblue" d="M322.499,-116.404C368.192,-98.9536 457.991,-65.3607 491,-58 648.237,-22.9381 841.134,-13.9999 920.837,-11.7472"/>
<polygon fill="midnightblue" stroke="midnightblue" points="921.412,-15.2334 931.317,-11.4717 921.228,-8.2358 921.412,-15.2334"/>
</g>
<!-- Node5 -->
<g id="node9" class="node"><title>Node5</title>
<a xlink:href="ErrorContext_8h.html" target="_top" xlink:title="ErrorContext.h">
<polygon fill="white" stroke="black" points="320,-58.5 320,-79.5 406,-79.5 406,-58.5 320,-58.5"/>
<text text-anchor="middle" x="363" y="-66.5" font-family="Verdana" font-size="10.00">ErrorContext.h</text>
</a>
</g>
<!-- Node3&#45;&gt;Node5 -->
<g id="edge8" class="edge"><title>Node3&#45;&gt;Node5</title>
<path fill="none" stroke="midnightblue" d="M307.472,-116.362C317.345,-107.941 331.333,-96.0105 342.798,-86.2308"/>
<polygon fill="midnightblue" stroke="midnightblue" points="345.27,-88.7231 350.607,-79.5707 340.727,-83.3972 345.27,-88.7231"/>
</g>
<!-- Node6 -->
<g id="node11" class="node"><title>Node6</title>
<polygon fill="white" stroke="#bfbfbf" points="658,-0.5 658,-21.5 702,-21.5 702,-0.5 658,-0.5"/>
<text text-anchor="middle" x="680" y="-8.5" font-family="Verdana" font-size="10.00">string</text>
</g>
<!-- Node3&#45;&gt;Node6 -->
<g id="edge12" class="edge"><title>Node3&#45;&gt;Node6</title>
<path fill="none" stroke="midnightblue" d="M294.051,-116.291C293.339,-100.924 294.577,-72.8401 311,-58 335.842,-35.5523 562.584,-18.6307 647.814,-13.0128"/>
<polygon fill="midnightblue" stroke="midnightblue" points="648.195,-16.4956 657.947,-12.3545 647.741,-9.51034 648.195,-16.4956"/>
</g>
<!-- Node5&#45;&gt;Node6 -->
<g id="edge10" class="edge"><title>Node5&#45;&gt;Node6</title>
<path fill="none" stroke="midnightblue" d="M406.25,-60.598C410.89,-59.7132 415.542,-58.8331 420,-58 501.915,-42.6926 598.504,-25.4417 647.689,-16.7145"/>
<polygon fill="midnightblue" stroke="midnightblue" points="648.49,-20.1272 657.725,-14.9353 647.268,-13.2347 648.49,-20.1272"/>
</g>
<!-- Node7&#45;&gt;Node4 -->
<g id="edge16" class="edge"><title>Node7&#45;&gt;Node4</title>
<path fill="none" stroke="midnightblue" d="M799.248,-348.272C837.561,-311.429 961.675,-189.509 981,-138 993.49,-104.71 989.021,-92.639 981,-58 978.791,-48.4584 974.363,-38.6176 969.977,-30.4219"/>
<polygon fill="midnightblue" stroke="midnightblue" points="972.98,-28.6228 964.983,-21.673 966.901,-32.0929 972.98,-28.6228"/>
</g>
<!-- Node8 -->
<g id="node17" class="node"><title>Node8</title>
<polygon fill="white" stroke="#bfbfbf" points="1433.5,-0.5 1433.5,-21.5 1480.5,-21.5 1480.5,-0.5 1433.5,-0.5"/>
<text text-anchor="middle" x="1457" y="-8.5" font-family="Verdana" font-size="10.00">vector</text>
</g>
<!-- Node7&#45;&gt;Node8 -->
<g id="edge18" class="edge"><title>Node7&#45;&gt;Node8</title>
<path fill="none" stroke="midnightblue" d="M805.373,-348.375C820.331,-339.095 842.384,-325.096 861,-312 943.448,-253.999 948.564,-214.217 1041,-174 1129.44,-135.522 1161.3,-160.85 1255,-138 1295.83,-128.044 1405.33,-109.762 1435,-80 1447.79,-67.1743 1453.15,-46.9376 1455.39,-31.6898"/>
<polygon fill="midnightblue" stroke="midnightblue" points="1458.88,-31.9782 1456.54,-21.6461 1451.93,-31.1852 1458.88,-31.9782"/>
</g>
<!-- Node9 -->
<g id="node19" class="node"><title>Node9</title>
<a xlink:href="InstanceConfigurableElement_8h.html" target="_top" xlink:title="InstanceConfigurableElement.h">
<polygon fill="white" stroke="black" points="623,-290.5 623,-311.5 789,-311.5 789,-290.5 623,-290.5"/>
<text text-anchor="middle" x="706" y="-298.5" font-family="Verdana" font-size="10.00">InstanceConfigurableElement.h</text>
</a>
</g>
<!-- Node7&#45;&gt;Node9 -->
<g id="edge20" class="edge"><title>Node7&#45;&gt;Node9</title>
<path fill="none" stroke="midnightblue" d="M772.96,-348.362C760.707,-339.696 743.201,-327.313 729.161,-317.382"/>
<polygon fill="midnightblue" stroke="midnightblue" points="731.13,-314.488 720.945,-311.571 727.088,-320.203 731.13,-314.488"/>
</g>
<!-- Node9&#45;&gt;Node6 -->
<g id="edge60" class="edge"><title>Node9&#45;&gt;Node6</title>
<path fill="none" stroke="midnightblue" d="M686.373,-290.308C660.601,-276.387 613.832,-251.53 573,-232 537.094,-214.826 512.764,-229.324 491,-196 457.462,-144.648 453.225,-106.32 491,-58 510.11,-33.5555 598.962,-20.0036 647.734,-14.29"/>
<polygon fill="midnightblue" stroke="midnightblue" points="648.234,-17.7558 657.779,-13.1576 647.45,-10.7999 648.234,-17.7558"/>
</g>
<!-- Node10 -->
<g id="node21" class="node"><title>Node10</title>
<a xlink:href="ConfigurableElementWithMapping_8h.html" target="_top" xlink:title="ConfigurableElementWithMapping.h">
<polygon fill="white" stroke="black" points="378,-232.5 378,-253.5 564,-253.5 564,-232.5 378,-232.5"/>
<text text-anchor="middle" x="471" y="-240.5" font-family="Verdana" font-size="10.00">ConfigurableElementWithMapping.h</text>
</a>
</g>
<!-- Node9&#45;&gt;Node10 -->
<g id="edge22" class="edge"><title>Node9&#45;&gt;Node10</title>
<path fill="none" stroke="midnightblue" d="M663.443,-290.497C624.137,-280.795 565.627,-266.355 523.448,-255.945"/>
<polygon fill="midnightblue" stroke="midnightblue" points="524.184,-252.521 513.637,-253.523 522.507,-259.317 524.184,-252.521"/>
</g>
<!-- Node13 -->
<g id="node30" class="node"><title>Node13</title>
<polygon fill="white" stroke="#bfbfbf" points="622,-58.5 622,-79.5 652,-79.5 652,-58.5 622,-58.5"/>
<text text-anchor="middle" x="637" y="-66.5" font-family="Verdana" font-size="10.00">list</text>
</g>
<!-- Node9&#45;&gt;Node13 -->
<g id="edge58" class="edge"><title>Node9&#45;&gt;Node13</title>
<path fill="none" stroke="midnightblue" d="M702.856,-290.429C692.192,-254.573 657.274,-137.169 643.081,-89.4458"/>
<polygon fill="midnightblue" stroke="midnightblue" points="646.368,-88.2208 640.163,-79.6335 639.659,-90.2163 646.368,-88.2208"/>
</g>
<!-- Node17 -->
<g id="node43" class="node"><title>Node17</title>
<a xlink:href="TypeElement_8h.html" target="_top" xlink:title="TypeElement.h">
<polygon fill="white" stroke="black" points="718,-174.5 718,-195.5 804,-195.5 804,-174.5 718,-174.5"/>
<text text-anchor="middle" x="761" y="-182.5" font-family="Verdana" font-size="10.00">TypeElement.h</text>
</a>
</g>
<!-- Node9&#45;&gt;Node17 -->
<g id="edge52" class="edge"><title>Node9&#45;&gt;Node17</title>
<path fill="none" stroke="midnightblue" d="M711.076,-290.295C720.285,-270.872 739.874,-229.556 751.59,-204.846"/>
<polygon fill="midnightblue" stroke="midnightblue" points="754.815,-206.214 755.937,-195.679 748.49,-203.216 754.815,-206.214"/>
</g>
<!-- Node10&#45;&gt;Node6 -->
<g id="edge50" class="edge"><title>Node10&#45;&gt;Node6</title>
<path fill="none" stroke="midnightblue" d="M430.64,-232.477C364.606,-214.354 238.271,-175.568 213,-138 207.543,-129.887 208.506,-124.684 213,-116 233.518,-76.3553 253.358,-74.0819 295,-58 359.324,-33.1585 567.139,-17.9829 647.684,-12.9067"/>
<polygon fill="midnightblue" stroke="midnightblue" points="647.975,-16.3956 657.739,-12.2841 647.542,-9.40894 647.975,-16.3956"/>
</g>
<!-- Node11 -->
<g id="node23" class="node"><title>Node11</title>
<a xlink:href="ConfigurableElement_8h.html" target="_top" xlink:title="ConfigurableElement.h">
<polygon fill="white" stroke="black" points="499.5,-174.5 499.5,-195.5 624.5,-195.5 624.5,-174.5 499.5,-174.5"/>
<text text-anchor="middle" x="562" y="-182.5" font-family="Verdana" font-size="10.00">ConfigurableElement.h</text>
</a>
</g>
<!-- Node10&#45;&gt;Node11 -->
<g id="edge24" class="edge"><title>Node10&#45;&gt;Node11</title>
<path fill="none" stroke="midnightblue" d="M487.691,-232.362C501.416,-223.614 521.084,-211.079 536.737,-201.101"/>
<polygon fill="midnightblue" stroke="midnightblue" points="538.863,-203.897 545.415,-195.571 535.101,-197.994 538.863,-203.897"/>
</g>
<!-- Node12 -->
<g id="node25" class="node"><title>Node12</title>
<a xlink:href="Element_8h.html" target="_top" xlink:title="Element.h">
<polygon fill="white" stroke="black" points="1071.5,-116.5 1071.5,-137.5 1136.5,-137.5 1136.5,-116.5 1071.5,-116.5"/>
<text text-anchor="middle" x="1104" y="-124.5" font-family="Verdana" font-size="10.00">Element.h</text>
</a>
</g>
<!-- Node11&#45;&gt;Node12 -->
<g id="edge26" class="edge"><title>Node11&#45;&gt;Node12</title>
<path fill="none" stroke="midnightblue" d="M624.704,-178.29C736.167,-166.362 966.013,-141.766 1061.23,-131.577"/>
<polygon fill="midnightblue" stroke="midnightblue" points="1061.79,-135.037 1071.36,-130.493 1061.05,-128.077 1061.79,-135.037"/>
</g>
<!-- Node11&#45;&gt;Node13 -->
<g id="edge48" class="edge"><title>Node11&#45;&gt;Node13</title>
<path fill="none" stroke="midnightblue" d="M568.921,-174.295C581.591,-154.7 608.668,-112.82 624.592,-88.1913"/>
<polygon fill="midnightblue" stroke="midnightblue" points="627.605,-89.9772 630.095,-79.6792 621.727,-86.1765 627.605,-89.9772"/>
</g>
<!-- Node12&#45;&gt;Node4 -->
<g id="edge32" class="edge"><title>Node12&#45;&gt;Node4</title>
<path fill="none" stroke="midnightblue" d="M1136.66,-117.165C1170.61,-105.284 1216.08,-83.6653 1195,-58 1170.14,-27.7241 1055.39,-16.6077 995.154,-12.8098"/>
<polygon fill="midnightblue" stroke="midnightblue" points="995.115,-9.3014 984.925,-12.2023 994.7,-16.2891 995.115,-9.3014"/>
</g>
<!-- Node12&#45;&gt;Node6 -->
<g id="edge28" class="edge"><title>Node12&#45;&gt;Node6</title>
<path fill="none" stroke="midnightblue" d="M1071.43,-123.548C1022.64,-117.801 928.088,-104.415 851,-80 828.628,-72.9144 824.639,-67.0819 803,-58 772.432,-45.1703 737.025,-31.7938 712.071,-22.6071"/>
<polygon fill="midnightblue" stroke="midnightblue" points="712.986,-19.2148 702.393,-19.0609 710.578,-25.7875 712.986,-19.2148"/>
</g>
<!-- Node12&#45;&gt;Node8 -->
<g id="edge30" class="edge"><title>Node12&#45;&gt;Node8</title>
<path fill="none" stroke="midnightblue" d="M1136.89,-123.758C1200.61,-117.098 1338.34,-100.745 1381,-80 1405.7,-67.9876 1428.21,-45.4274 1442.21,-29.3753"/>
<polygon fill="midnightblue" stroke="midnightblue" points="1444.94,-31.5627 1448.72,-21.6646 1439.6,-27.0459 1444.94,-31.5627"/>
</g>
<!-- Node12&#45;&gt;Node13 -->
<g id="edge34" class="edge"><title>Node12&#45;&gt;Node13</title>
<path fill="none" stroke="midnightblue" d="M1071.16,-122.922C982.725,-111.938 740.93,-81.9078 662.166,-72.1256"/>
<polygon fill="midnightblue" stroke="midnightblue" points="662.522,-68.643 652.167,-70.8837 661.66,-75.5896 662.522,-68.643"/>
</g>
<!-- Node14 -->
<g id="node32" class="node"><title>Node14</title>
<polygon fill="white" stroke="#bfbfbf" points="1028,-58.5 1028,-79.5 1092,-79.5 1092,-58.5 1028,-58.5"/>
<text text-anchor="middle" x="1060" y="-66.5" font-family="Verdana" font-size="10.00">XmlSink.h</text>
</g>
<!-- Node12&#45;&gt;Node14 -->
<g id="edge36" class="edge"><title>Node12&#45;&gt;Node14</title>
<path fill="none" stroke="midnightblue" d="M1095.93,-116.362C1089.85,-108.35 1081.36,-97.1605 1074.16,-87.6696"/>
<polygon fill="midnightblue" stroke="midnightblue" points="1076.85,-85.4222 1068.02,-79.5707 1071.27,-89.653 1076.85,-85.4222"/>
</g>
<!-- Node15 -->
<g id="node34" class="node"><title>Node15</title>
<polygon fill="white" stroke="#bfbfbf" points="1109.5,-58.5 1109.5,-79.5 1186.5,-79.5 1186.5,-58.5 1109.5,-58.5"/>
<text text-anchor="middle" x="1148" y="-66.5" font-family="Verdana" font-size="10.00">XmlSource.h</text>
</g>
<!-- Node12&#45;&gt;Node15 -->
<g id="edge38" class="edge"><title>Node12&#45;&gt;Node15</title>
<path fill="none" stroke="midnightblue" d="M1112.07,-116.362C1118.15,-108.35 1126.64,-97.1605 1133.84,-87.6696"/>
<polygon fill="midnightblue" stroke="midnightblue" points="1136.73,-89.653 1139.98,-79.5707 1131.15,-85.4222 1136.73,-89.653"/>
</g>
<!-- Node16 -->
<g id="node36" class="node"><title>Node16</title>
<a xlink:href="PathNavigator_8h.html" target="_top" xlink:title="PathNavigator.h">
<polygon fill="white" stroke="black" points="1280,-58.5 1280,-79.5 1372,-79.5 1372,-58.5 1280,-58.5"/>
<text text-anchor="middle" x="1326" y="-66.5" font-family="Verdana" font-size="10.00">PathNavigator.h</text>
</a>
</g>
<!-- Node12&#45;&gt;Node16 -->
<g id="edge40" class="edge"><title>Node12&#45;&gt;Node16</title>
<path fill="none" stroke="midnightblue" d="M1136.76,-118.442C1173.38,-108.873 1233.13,-93.2638 1275.69,-82.1445"/>
<polygon fill="midnightblue" stroke="midnightblue" points="1276.78,-85.4764 1285.57,-79.5622 1275.01,-78.7037 1276.78,-85.4764"/>
</g>
<!-- Node16&#45;&gt;Node4 -->
<g id="edge46" class="edge"><title>Node16&#45;&gt;Node4</title>
<path fill="none" stroke="midnightblue" d="M1279.84,-60.393C1275.17,-59.5653 1270.49,-58.7541 1266,-58 1168.32,-41.5977 1052.81,-24.6146 994.939,-16.2726"/>
<polygon fill="midnightblue" stroke="midnightblue" points="995.218,-12.7768 984.822,-14.8176 994.222,-19.7055 995.218,-12.7768"/>
</g>
<!-- Node16&#45;&gt;Node6 -->
<g id="edge44" class="edge"><title>Node16&#45;&gt;Node6</title>
<path fill="none" stroke="midnightblue" d="M1279.89,-60.0591C1275.21,-59.2978 1270.51,-58.5934 1266,-58 1055.93,-30.3918 801.221,-16.6532 712.402,-12.4446"/>
<polygon fill="midnightblue" stroke="midnightblue" points="712.322,-8.93714 702.17,-11.9674 711.996,-15.9295 712.322,-8.93714"/>
</g>
<!-- Node16&#45;&gt;Node8 -->
<g id="edge42" class="edge"><title>Node16&#45;&gt;Node8</title>
<path fill="none" stroke="midnightblue" d="M1349.72,-58.4966C1370.5,-49.299 1400.89,-35.8411 1424.03,-25.597"/>
<polygon fill="midnightblue" stroke="midnightblue" points="1425.73,-28.6741 1433.45,-21.4252 1422.89,-22.2734 1425.73,-28.6741"/>
</g>
<!-- Node17&#45;&gt;Node6 -->
<g id="edge56" class="edge"><title>Node17&#45;&gt;Node6</title>
<path fill="none" stroke="midnightblue" d="M754.407,-174.26C743.113,-155.576 719.759,-115.669 704,-80 696.974,-64.0991 690.592,-45.4458 686.178,-31.5454"/>
<polygon fill="midnightblue" stroke="midnightblue" points="689.513,-30.4815 683.209,-21.9665 682.827,-32.5544 689.513,-30.4815"/>
</g>
<!-- Node17&#45;&gt;Node12 -->
<g id="edge54" class="edge"><title>Node17&#45;&gt;Node12</title>
<path fill="none" stroke="midnightblue" d="M804.094,-177.713C870.019,-166.565 995.176,-145.402 1061.03,-134.266"/>
<polygon fill="midnightblue" stroke="midnightblue" points="1061.79,-137.687 1071.07,-132.568 1060.63,-130.785 1061.79,-137.687"/>
</g>
<!-- Node18&#45;&gt;Node6 -->
<g id="edge82" class="edge"><title>Node18&#45;&gt;Node6</title>
<path fill="none" stroke="midnightblue" d="M309.74,-293.439C281.664,-286.659 244.462,-274.527 217,-254 144.72,-199.974 103.154,-124.64 164,-58 196.655,-22.2354 539.523,-13.3829 647.577,-11.4735"/>
<polygon fill="midnightblue" stroke="midnightblue" points="647.917,-14.9683 657.857,-11.3005 647.799,-7.96932 647.917,-14.9683"/>
</g>
<!-- Node18&#45;&gt;Node8 -->
<g id="edge84" class="edge"><title>Node18&#45;&gt;Node8</title>
<path fill="none" stroke="midnightblue" d="M390.121,-293.372C437.984,-284.226 520.398,-268.335 591,-254 759.714,-219.745 801.465,-209.122 970,-174 1047.74,-157.8 1067.32,-154.459 1145,-138 1263.37,-112.92 1311.05,-148.196 1411,-80 1428.66,-67.9522 1441.31,-46.669 1448.82,-30.9159"/>
<polygon fill="midnightblue" stroke="midnightblue" points="1452.13,-32.0735 1453.01,-21.5151 1445.74,-29.2213 1452.13,-32.0735"/>
</g>
<!-- Node18&#45;&gt;Node10 -->
<g id="edge66" class="edge"><title>Node18&#45;&gt;Node10</title>
<path fill="none" stroke="midnightblue" d="M371.912,-290.497C390.811,-281.438 418.331,-268.246 439.576,-258.063"/>
<polygon fill="midnightblue" stroke="midnightblue" points="441.337,-261.1 448.842,-253.621 438.311,-254.788 441.337,-261.1"/>
</g>
<!-- Node18&#45;&gt;Node11 -->
<g id="edge64" class="edge"><title>Node18&#45;&gt;Node11</title>
<path fill="none" stroke="midnightblue" d="M390.397,-298.422C448.306,-293.789 550.442,-281.808 573,-254 584.052,-240.376 579.106,-220.123 572.71,-205.08"/>
<polygon fill="midnightblue" stroke="midnightblue" points="575.681,-203.175 568.23,-195.643 569.357,-206.178 575.681,-203.175"/>
</g>
<!-- Node18&#45;&gt;Node13 -->
<g id="edge78" class="edge"><title>Node18&#45;&gt;Node13</title>
<path fill="none" stroke="midnightblue" d="M348.067,-290.23C346.072,-275.778 344.652,-249.863 356,-232 371.713,-207.266 547.116,-115.261 612.567,-81.5138"/>
<polygon fill="midnightblue" stroke="midnightblue" points="614.45,-84.4812 621.741,-76.7942 611.248,-78.2566 614.45,-84.4812"/>
</g>
<!-- Node19 -->
<g id="node53" class="node"><title>Node19</title>
<a xlink:href="Mapper_8h.html" target="_top" xlink:title="Mapper.h">
<polygon fill="white" stroke="black" points="183.5,-174.5 183.5,-195.5 244.5,-195.5 244.5,-174.5 183.5,-174.5"/>
<text text-anchor="middle" x="214" y="-182.5" font-family="Verdana" font-size="10.00">Mapper.h</text>
</a>
</g>
<!-- Node18&#45;&gt;Node19 -->
<g id="edge68" class="edge"><title>Node18&#45;&gt;Node19</title>
<path fill="none" stroke="midnightblue" d="M309.765,-294.271C284.373,-287.998 252.753,-276.127 233,-254 221.263,-240.852 216.7,-221.091 214.963,-206.082"/>
<polygon fill="midnightblue" stroke="midnightblue" points="218.419,-205.399 214.115,-195.718 211.443,-205.971 218.419,-205.399"/>
</g>
<!-- Node20 -->
<g id="node56" class="node"><title>Node20</title>
<a xlink:href="MappingContext_8h.html" target="_top" xlink:title="MappingContext.h">
<polygon fill="white" stroke="black" points="500,-58.5 500,-79.5 604,-79.5 604,-58.5 500,-58.5"/>
<text text-anchor="middle" x="552" y="-66.5" font-family="Verdana" font-size="10.00">MappingContext.h</text>
</a>
</g>
<!-- Node18&#45;&gt;Node20 -->
<g id="edge72" class="edge"><title>Node18&#45;&gt;Node20</title>
<path fill="none" stroke="midnightblue" d="M351.026,-290.438C352.807,-276.223 357.46,-250.575 369,-232 410.036,-165.95 485.751,-111.131 525.714,-85.1709"/>
<polygon fill="midnightblue" stroke="midnightblue" points="527.828,-87.9734 534.368,-79.6382 524.057,-82.0756 527.828,-87.9734"/>
</g>
<!-- Node21 -->
<g id="node61" class="node"><title>Node21</title>
<polygon fill="white" stroke="#bfbfbf" points="242,-232.5 242,-253.5 284,-253.5 284,-232.5 242,-232.5"/>
<text text-anchor="middle" x="263" y="-240.5" font-family="Verdana" font-size="10.00">stack</text>
</g>
<!-- Node18&#45;&gt;Node21 -->
<g id="edge80" class="edge"><title>Node18&#45;&gt;Node21</title>
<path fill="none" stroke="midnightblue" d="M334.043,-290.362C321.043,-281.696 302.469,-269.313 287.573,-259.382"/>
<polygon fill="midnightblue" stroke="midnightblue" points="289.118,-256.206 278.856,-253.571 285.235,-262.03 289.118,-256.206"/>
</g>
<!-- Node19&#45;&gt;Node6 -->
<g id="edge70" class="edge"><title>Node19&#45;&gt;Node6</title>
<path fill="none" stroke="midnightblue" d="M203.071,-174.173C194.951,-165.308 184.529,-151.989 180,-138 169.048,-104.173 156.064,-84.2917 180,-58 211.53,-23.3673 542.376,-13.7607 647.87,-11.5679"/>
<polygon fill="midnightblue" stroke="midnightblue" points="647.993,-15.0662 657.921,-11.3674 647.853,-8.06761 647.993,-15.0662"/>
</g>
<!-- Node20&#45;&gt;Node4 -->
<g id="edge74" class="edge"><title>Node20&#45;&gt;Node4</title>
<path fill="none" stroke="midnightblue" d="M604.218,-59.4312C607.187,-58.9346 610.13,-58.454 613,-58 724.754,-40.32 857.517,-23.3685 920.829,-15.5314"/>
<polygon fill="midnightblue" stroke="midnightblue" points="921.606,-18.9622 931.102,-14.2644 920.749,-12.0148 921.606,-18.9622"/>
</g>
<!-- Node20&#45;&gt;Node6 -->
<g id="edge76" class="edge"><title>Node20&#45;&gt;Node6</title>
<path fill="none" stroke="midnightblue" d="M575.18,-58.4966C595.73,-49.1848 625.918,-35.5061 648.625,-25.2167"/>
<polygon fill="midnightblue" stroke="midnightblue" points="650.185,-28.3525 657.849,-21.0371 647.296,-21.9765 650.185,-28.3525"/>
</g>
<!-- Node23&#45;&gt;Node6 -->
<g id="edge140" class="edge"><title>Node23&#45;&gt;Node6</title>
<path fill="none" stroke="midnightblue" d="M1338.28,-295.979C1279.72,-289.133 1176.5,-275.236 1090,-254 947.135,-218.927 897.997,-225.848 780,-138 739.728,-108.018 706.905,-57.9158 690.788,-30.4586"/>
<polygon fill="midnightblue" stroke="midnightblue" points="693.811,-28.694 685.799,-21.7611 687.739,-32.1769 693.811,-28.694"/>
</g>
<!-- Node23&#45;&gt;Node8 -->
<g id="edge94" class="edge"><title>Node23&#45;&gt;Node8</title>
<path fill="none" stroke="midnightblue" d="M1431.67,-290.835C1433.13,-290.549 1434.58,-290.27 1436,-290 1533.35,-271.549 1568.34,-300.183 1656,-254 1693.54,-234.219 1722,-227.437 1722,-185 1722,-185 1722,-185 1722,-127 1722,-76.9785 1561.54,-34.5664 1490.34,-18.2094"/>
<polygon fill="midnightblue" stroke="midnightblue" points="1491.04,-14.779 1480.52,-15.9873 1489.5,-21.6066 1491.04,-14.779"/>
</g>
<!-- Node23&#45;&gt;Node12 -->
<g id="edge134" class="edge"><title>Node23&#45;&gt;Node12</title>
<path fill="none" stroke="midnightblue" d="M1338.35,-293.92C1252.58,-279.818 1075.4,-245.279 1041,-196 1027.21,-176.244 1050.63,-156.185 1072.72,-142.825"/>
<polygon fill="midnightblue" stroke="midnightblue" points="1074.74,-145.706 1081.68,-137.703 1071.26,-139.629 1074.74,-145.706"/>
</g>
<!-- Node23&#45;&gt;Node13 -->
<g id="edge96" class="edge"><title>Node23&#45;&gt;Node13</title>
<path fill="none" stroke="midnightblue" d="M1338.33,-299.568C1201.93,-294.504 807.39,-273.346 709,-196 677.59,-171.308 688.14,-150.505 668,-116 662.5,-106.577 655.902,-96.4352 650.21,-87.9935"/>
<polygon fill="midnightblue" stroke="midnightblue" points="653.016,-85.8958 644.483,-79.6148 647.237,-89.8457 653.016,-85.8958"/>
</g>
<!-- Node23&#45;&gt;Node16 -->
<g id="edge112" class="edge"><title>Node23&#45;&gt;Node16</title>
<path fill="none" stroke="midnightblue" d="M1384.65,-290.345C1384.78,-275.047 1387.45,-247.047 1404,-232 1472.44,-169.764 1549.51,-266.843 1609,-196 1631.86,-168.771 1631.99,-143.123 1609,-116 1594.51,-98.9106 1460.6,-82.6268 1382.29,-74.4577"/>
<polygon fill="midnightblue" stroke="midnightblue" points="1382.4,-70.9505 1372.09,-73.4071 1381.68,-77.9137 1382.4,-70.9505"/>
</g>
<!-- Node24 -->
<g id="node69" class="node"><title>Node24</title>
<polygon fill="white" stroke="#bfbfbf" points="1749.5,-232.5 1749.5,-253.5 1812.5,-253.5 1812.5,-232.5 1749.5,-232.5"/>
<text text-anchor="middle" x="1781" y="-240.5" font-family="Verdana" font-size="10.00">pthread.h</text>
</g>
<!-- Node23&#45;&gt;Node24 -->
<g id="edge90" class="edge"><title>Node23&#45;&gt;Node24</title>
<path fill="none" stroke="midnightblue" d="M1431.53,-296.368C1498.98,-289.291 1627.7,-274.426 1736,-254 1737.07,-253.799 1738.15,-253.588 1739.23,-253.37"/>
<polygon fill="midnightblue" stroke="midnightblue" points="1740.1,-256.764 1749.13,-251.235 1738.62,-249.922 1740.1,-256.764"/>
</g>
<!-- Node25 -->
<g id="node71" class="node"><title>Node25</title>
<polygon fill="white" stroke="#bfbfbf" points="1656,-116.5 1656,-137.5 1694,-137.5 1694,-116.5 1656,-116.5"/>
<text text-anchor="middle" x="1675" y="-124.5" font-family="Verdana" font-size="10.00">map</text>
</g>
<!-- Node23&#45;&gt;Node25 -->
<g id="edge92" class="edge"><title>Node23&#45;&gt;Node25</title>
<path fill="none" stroke="midnightblue" d="M1431.68,-290.868C1433.14,-290.573 1434.58,-290.282 1436,-290 1523.73,-272.569 1566.71,-312.923 1634,-254 1664.93,-226.916 1672.68,-176.361 1674.52,-147.885"/>
<polygon fill="midnightblue" stroke="midnightblue" points="1678.02,-147.969 1674.99,-137.819 1671.03,-147.648 1678.02,-147.969"/>
</g>
<!-- Node26 -->
<g id="node75" class="node"><title>Node26</title>
<a xlink:href="RemoteCommandHandlerTemplate_8h.html" target="_top" xlink:title="RemoteCommandHandlerTemplate.h">
<polygon fill="white" stroke="black" points="1050,-174.5 1050,-195.5 1244,-195.5 1244,-174.5 1050,-174.5"/>
<text text-anchor="middle" x="1147" y="-182.5" font-family="Verdana" font-size="10.00">RemoteCommandHandlerTemplate.h</text>
</a>
</g>
<!-- Node23&#45;&gt;Node26 -->
<g id="edge98" class="edge"><title>Node23&#45;&gt;Node26</title>
<path fill="none" stroke="midnightblue" d="M1338.37,-290.428C1308.64,-282.652 1269.86,-270.551 1238,-254 1210.93,-239.94 1183.54,-217.864 1165.98,-202.481"/>
<polygon fill="midnightblue" stroke="midnightblue" points="1167.99,-199.581 1158.2,-195.532 1163.33,-204.802 1167.99,-199.581"/>
</g>
<!-- Node29 -->
<g id="node86" class="node"><title>Node29</title>
<a xlink:href="SelectionCriterionType_8h.html" target="_top" xlink:title="SelectionCriterionType.h">
<polygon fill="white" stroke="black" points="1469.5,-174.5 1469.5,-195.5 1600.5,-195.5 1600.5,-174.5 1469.5,-174.5"/>
<text text-anchor="middle" x="1535" y="-182.5" font-family="Verdana" font-size="10.00">SelectionCriterionType.h</text>
</a>
</g>
<!-- Node23&#45;&gt;Node29 -->
<g id="edge114" class="edge"><title>Node23&#45;&gt;Node29</title>
<path fill="none" stroke="midnightblue" d="M1431.52,-298.39C1492.63,-293.878 1594.9,-282.222 1618,-254 1635.83,-232.213 1604.15,-212.234 1574.92,-199.444"/>
<polygon fill="midnightblue" stroke="midnightblue" points="1576.16,-196.169 1565.59,-195.551 1573.47,-202.63 1576.16,-196.169"/>
</g>
<!-- Node31 -->
<g id="node93" class="node"><title>Node31</title>
<a xlink:href="SelectionCriterion_8h.html" target="_top" xlink:title="SelectionCriterion.h">
<polygon fill="white" stroke="black" points="1247,-232.5 1247,-253.5 1357,-253.5 1357,-232.5 1247,-232.5"/>
<text text-anchor="middle" x="1302" y="-240.5" font-family="Verdana" font-size="10.00">SelectionCriterion.h</text>
</a>
</g>
<!-- Node23&#45;&gt;Node31 -->
<g id="edge124" class="edge"><title>Node23&#45;&gt;Node31</title>
<path fill="none" stroke="midnightblue" d="M1369.78,-290.362C1357.37,-281.696 1339.65,-269.313 1325.44,-259.382"/>
<polygon fill="midnightblue" stroke="midnightblue" points="1327.33,-256.43 1317.13,-253.571 1323.32,-262.168 1327.33,-256.43"/>
</g>
<!-- Node33 -->
<g id="node101" class="node"><title>Node33</title>
<polygon fill="white" stroke="#bfbfbf" points="1412.5,-232.5 1412.5,-253.5 1495.5,-253.5 1495.5,-232.5 1412.5,-232.5"/>
<text text-anchor="middle" x="1454" y="-240.5" font-family="Verdana" font-size="10.00">XmlDocSink.h</text>
</g>
<!-- Node23&#45;&gt;Node33 -->
<g id="edge136" class="edge"><title>Node23&#45;&gt;Node33</title>
<path fill="none" stroke="midnightblue" d="M1397.66,-290.362C1407.67,-281.941 1421.87,-270.011 1433.5,-260.231"/>
<polygon fill="midnightblue" stroke="midnightblue" points="1436.02,-262.684 1441.42,-253.571 1431.52,-257.326 1436.02,-262.684"/>
</g>
<!-- Node34 -->
<g id="node103" class="node"><title>Node34</title>
<polygon fill="white" stroke="#bfbfbf" points="1513,-232.5 1513,-253.5 1609,-253.5 1609,-232.5 1513,-232.5"/>
<text text-anchor="middle" x="1561" y="-240.5" font-family="Verdana" font-size="10.00">XmlDocSource.h</text>
</g>
<!-- Node23&#45;&gt;Node34 -->
<g id="edge138" class="edge"><title>Node23&#45;&gt;Node34</title>
<path fill="none" stroke="midnightblue" d="M1416.87,-290.497C1445.57,-281.041 1487.92,-267.083 1519.3,-256.743"/>
<polygon fill="midnightblue" stroke="midnightblue" points="1520.67,-259.977 1529.07,-253.523 1518.47,-253.329 1520.67,-259.977"/>
</g>
<!-- Node26&#45;&gt;Node8 -->
<g id="edge100" class="edge"><title>Node26&#45;&gt;Node8</title>
<path fill="none" stroke="midnightblue" d="M1216.81,-174.47C1260.87,-166.773 1318.59,-154.741 1368,-138 1375.11,-135.592 1485.99,-86.3444 1490,-80 1500.32,-63.672 1488.26,-43.6235 1475.92,-29.3533"/>
<polygon fill="midnightblue" stroke="midnightblue" points="1478.16,-26.6272 1468.79,-21.6908 1473.04,-31.3958 1478.16,-26.6272"/>
</g>
<!-- Node27 -->
<g id="node78" class="node"><title>Node27</title>
<a xlink:href="RemoteCommandHandler_8h.html" target="_top" xlink:title="RemoteCommandHandler.h">
<polygon fill="white" stroke="black" points="823.5,-116.5 823.5,-137.5 972.5,-137.5 972.5,-116.5 823.5,-116.5"/>
<text text-anchor="middle" x="898" y="-124.5" font-family="Verdana" font-size="10.00">RemoteCommandHandler.h</text>
</a>
</g>
<!-- Node26&#45;&gt;Node27 -->
<g id="edge102" class="edge"><title>Node26&#45;&gt;Node27</title>
<path fill="none" stroke="midnightblue" d="M1101.91,-174.497C1060.08,-164.755 997.741,-150.233 953.007,-139.813"/>
<polygon fill="midnightblue" stroke="midnightblue" points="953.71,-136.383 943.177,-137.523 952.122,-143.2 953.71,-136.383"/>
</g>
<!-- Node27&#45;&gt;Node6 -->
<g id="edge110" class="edge"><title>Node27&#45;&gt;Node6</title>
<path fill="none" stroke="midnightblue" d="M878.526,-116.399C853.472,-102.785 808.58,-78.4709 770,-58 749.899,-47.334 727.184,-35.4735 709.604,-26.3354"/>
<polygon fill="midnightblue" stroke="midnightblue" points="710.902,-23.0659 700.414,-21.5637 707.676,-29.2783 710.902,-23.0659"/>
</g>
<!-- Node28 -->
<g id="node80" class="node"><title>Node28</title>
<a xlink:href="RemoteCommand_8h.html" target="_top" xlink:title="RemoteCommand.h">
<polygon fill="white" stroke="black" points="859.5,-58.5 859.5,-79.5 972.5,-79.5 972.5,-58.5 859.5,-58.5"/>
<text text-anchor="middle" x="916" y="-66.5" font-family="Verdana" font-size="10.00">RemoteCommand.h</text>
</a>
</g>
<!-- Node27&#45;&gt;Node28 -->
<g id="edge104" class="edge"><title>Node27&#45;&gt;Node28</title>
<path fill="none" stroke="midnightblue" d="M901.301,-116.362C903.661,-108.758 906.909,-98.294 909.751,-89.1349"/>
<polygon fill="midnightblue" stroke="midnightblue" points="913.098,-90.1587 912.719,-79.5707 906.413,-88.0839 913.098,-90.1587"/>
</g>
<!-- Node28&#45;&gt;Node4 -->
<g id="edge106" class="edge"><title>Node28&#45;&gt;Node4</title>
<path fill="none" stroke="midnightblue" d="M923.703,-58.3619C929.446,-50.4313 937.443,-39.3885 944.27,-29.9606"/>
<polygon fill="midnightblue" stroke="midnightblue" points="947.315,-31.7229 950.345,-21.5707 941.645,-27.6173 947.315,-31.7229"/>
</g>
<!-- Node28&#45;&gt;Node6 -->
<g id="edge108" class="edge"><title>Node28&#45;&gt;Node6</title>
<path fill="none" stroke="midnightblue" d="M873.262,-58.4966C826.853,-47.0909 753.786,-29.1338 712.056,-18.8781"/>
<polygon fill="midnightblue" stroke="midnightblue" points="712.703,-15.4331 702.157,-16.4453 711.032,-22.2308 712.703,-15.4331"/>
</g>
<!-- Node29&#45;&gt;Node6 -->
<g id="edge120" class="edge"><title>Node29&#45;&gt;Node6</title>
<path fill="none" stroke="midnightblue" d="M1508.07,-174.47C1433.4,-145.336 1227.1,-65.3212 1195,-58 1102.3,-36.8564 810.447,-18.5261 712.452,-12.8278"/>
<polygon fill="midnightblue" stroke="midnightblue" points="712.454,-9.32224 702.269,-12.2408 712.051,-16.3106 712.454,-9.32224"/>
</g>
<!-- Node29&#45;&gt;Node12 -->
<g id="edge116" class="edge"><title>Node29&#45;&gt;Node12</title>
<path fill="none" stroke="midnightblue" d="M1469.24,-175.167C1466.46,-174.769 1463.7,-174.379 1461,-174 1347.58,-158.106 1213.67,-140.891 1146.68,-132.385"/>
<polygon fill="midnightblue" stroke="midnightblue" points="1146.87,-128.882 1136.51,-131.096 1145.99,-135.826 1146.87,-128.882"/>
</g>
<!-- Node29&#45;&gt;Node25 -->
<g id="edge118" class="edge"><title>Node29&#45;&gt;Node25</title>
<path fill="none" stroke="midnightblue" d="M1560.35,-174.497C1584.56,-164.468 1621,-149.373 1646.27,-138.903"/>
<polygon fill="midnightblue" stroke="midnightblue" points="1647.79,-142.062 1655.69,-135.001 1645.11,-135.595 1647.79,-142.062"/>
</g>
<!-- Node30 -->
<g id="node91" class="node"><title>Node30</title>
<polygon fill="white" stroke="#bfbfbf" points="1427.5,-116.5 1427.5,-137.5 1600.5,-137.5 1600.5,-116.5 1427.5,-116.5"/>
<text text-anchor="middle" x="1514" y="-124.5" font-family="Verdana" font-size="10.00">SelectionCriterionTypeInterface.h</text>
</g>
<!-- Node29&#45;&gt;Node30 -->
<g id="edge122" class="edge"><title>Node29&#45;&gt;Node30</title>
<path fill="none" stroke="midnightblue" d="M1531.15,-174.362C1528.4,-166.758 1524.61,-156.294 1521.29,-147.135"/>
<polygon fill="midnightblue" stroke="midnightblue" points="1524.52,-145.782 1517.83,-137.571 1517.94,-148.165 1524.52,-145.782"/>
</g>
<!-- Node31&#45;&gt;Node6 -->
<g id="edge132" class="edge"><title>Node31&#45;&gt;Node6</title>
<path fill="none" stroke="midnightblue" d="M1246.91,-235.271C1135.79,-219.015 889.107,-179.365 815,-138 770.263,-113.028 769.454,-92.9597 732,-58 721.436,-48.1397 709.484,-37.3141 699.704,-28.5403"/>
<polygon fill="midnightblue" stroke="midnightblue" points="701.865,-25.7774 692.078,-21.7191 697.198,-30.9948 701.865,-25.7774"/>
</g>
<!-- Node31&#45;&gt;Node12 -->
<g id="edge126" class="edge"><title>Node31&#45;&gt;Node12</title>
<path fill="none" stroke="midnightblue" d="M1297.26,-232.483C1289.92,-217.356 1274.38,-189.569 1253,-174 1221.44,-151.019 1178.27,-139.022 1146.52,-132.923"/>
<polygon fill="midnightblue" stroke="midnightblue" points="1147.11,-129.472 1136.65,-131.144 1145.87,-136.361 1147.11,-129.472"/>
</g>
<!-- Node31&#45;&gt;Node29 -->
<g id="edge128" class="edge"><title>Node31&#45;&gt;Node29</title>
<path fill="none" stroke="midnightblue" d="M1344.19,-232.497C1383.17,-222.795 1441.18,-208.355 1483,-197.945"/>
<polygon fill="midnightblue" stroke="midnightblue" points="1483.87,-201.335 1492.73,-195.523 1482.18,-194.542 1483.87,-201.335"/>
</g>
<!-- Node32 -->
<g id="node97" class="node"><title>Node32</title>
<polygon fill="white" stroke="#bfbfbf" points="1300,-174.5 1300,-195.5 1452,-195.5 1452,-174.5 1300,-174.5"/>
<text text-anchor="middle" x="1376" y="-182.5" font-family="Verdana" font-size="10.00">SelectionCriterionInterface.h</text>
</g>
<!-- Node31&#45;&gt;Node32 -->
<g id="edge130" class="edge"><title>Node31&#45;&gt;Node32</title>
<path fill="none" stroke="midnightblue" d="M1315.57,-232.362C1326.42,-223.859 1341.83,-211.779 1354.38,-201.947"/>
<polygon fill="midnightblue" stroke="midnightblue" points="1356.8,-204.494 1362.51,-195.571 1352.48,-198.985 1356.8,-204.494"/>
</g>
<!-- Node35&#45;&gt;Node24 -->
<g id="edge144" class="edge"><title>Node35&#45;&gt;Node24</title>
<path fill="none" stroke="midnightblue" d="M963.435,-349.597C966.321,-348.998 969.202,-348.454 972,-348 1177.92,-314.584 1233.29,-340.105 1440,-312 1548.85,-297.2 1675.15,-268.602 1739.17,-253.282"/>
<polygon fill="midnightblue" stroke="midnightblue" points="1740.36,-256.595 1749.26,-250.852 1738.72,-249.789 1740.36,-256.595"/>
</g>
</g>
</svg>
