<?xml version="1.0" encoding="UTF-8" standalone="no"?>
<!DOCTYPE svg PUBLIC "-//W3C//DTD SVG 1.1//EN"
 "http://www.w3.org/Graphics/SVG/1.1/DTD/svg11.dtd">
<!-- Generated by graphviz version 2.26.3 (20100126.1600)
 -->
<!-- Title: parameter/ParameterBlockType.h Pages: 1 -->
<svg width="543pt" height="276pt"
 viewBox="0.00 0.00 543.00 276.00" xmlns="http://www.w3.org/2000/svg" xmlns:xlink="http://www.w3.org/1999/xlink">
<g id="graph1" class="graph" transform="scale(1 1) rotate(0) translate(4 272)">
<title>parameter/ParameterBlockType.h</title>
<polygon fill="white" stroke="white" points="-4,5 -4,-272 540,-272 540,5 -4,5"/>
<!-- Node1 -->
<g id="node1" class="node"><title>Node1</title>
<polygon fill="#bfbfbf" stroke="black" points="0,-233 0,-267 146,-267 146,-233 0,-233"/>
<text text-anchor="start" x="8" y="-254" font-family="Verdana" font-size="10.00">parameter/ParameterBlock</text>
<text text-anchor="middle" x="73" y="-241" font-family="Verdana" font-size="10.00">Type.h</text>
</g>
<!-- Node2 -->
<g id="node3" class="node"><title>Node2</title>
<a xlink:href="TypeElement_8h.html" target="_top" xlink:title="TypeElement.h">
<polygon fill="white" stroke="black" points="66,-174.5 66,-195.5 152,-195.5 152,-174.5 66,-174.5"/>
<text text-anchor="middle" x="109" y="-182.5" font-family="Verdana" font-size="10.00">TypeElement.h</text>
</a>
</g>
<!-- Node1&#45;&gt;Node2 -->
<g id="edge2" class="edge"><title>Node1&#45;&gt;Node2</title>
<path fill="none" stroke="midnightblue" d="M82.4586,-232.922C87.2318,-224.304 93.0482,-213.802 98.0182,-204.828"/>
<polygon fill="midnightblue" stroke="midnightblue" points="101.206,-206.296 102.99,-195.852 95.0828,-202.904 101.206,-206.296"/>
</g>
<!-- Node4 -->
<g id="node7" class="node"><title>Node4</title>
<polygon fill="white" stroke="#bfbfbf" points="73,-0.5 73,-21.5 117,-21.5 117,-0.5 73,-0.5"/>
<text text-anchor="middle" x="95" y="-8.5" font-family="Verdana" font-size="10.00">string</text>
</g>
<!-- Node1&#45;&gt;Node4 -->
<g id="edge28" class="edge"><title>Node1&#45;&gt;Node4</title>
<path fill="none" stroke="midnightblue" d="M66.5134,-232.775C62.9219,-222.308 58.8244,-208.58 57,-196 48.2142,-135.422 72.451,-64.813 86.2193,-31.019"/>
<polygon fill="midnightblue" stroke="midnightblue" points="89.4606,-32.3401 90.108,-21.765 83.0072,-29.6282 89.4606,-32.3401"/>
</g>
<!-- Node3 -->
<g id="node5" class="node"><title>Node3</title>
<a xlink:href="Element_8h.html" target="_top" xlink:title="Element.h">
<polygon fill="white" stroke="black" points="233.5,-116.5 233.5,-137.5 298.5,-137.5 298.5,-116.5 233.5,-116.5"/>
<text text-anchor="middle" x="266" y="-124.5" font-family="Verdana" font-size="10.00">Element.h</text>
</a>
</g>
<!-- Node2&#45;&gt;Node3 -->
<g id="edge4" class="edge"><title>Node2&#45;&gt;Node3</title>
<path fill="none" stroke="midnightblue" d="M137.432,-174.497C162.805,-165.123 200.157,-151.324 228.07,-141.012"/>
<polygon fill="midnightblue" stroke="midnightblue" points="229.348,-144.272 237.515,-137.523 226.922,-137.705 229.348,-144.272"/>
</g>
<!-- Node2&#45;&gt;Node4 -->
<g id="edge26" class="edge"><title>Node2&#45;&gt;Node4</title>
<path fill="none" stroke="midnightblue" d="M108.145,-174.377C105.886,-146.293 99.7209,-69.6735 96.706,-32.2027"/>
<polygon fill="midnightblue" stroke="midnightblue" points="100.17,-31.6148 95.8792,-21.9277 93.1926,-32.1762 100.17,-31.6148"/>
</g>
<!-- Node3&#45;&gt;Node4 -->
<g id="edge6" class="edge"><title>Node3&#45;&gt;Node4</title>
<path fill="none" stroke="midnightblue" d="M233.463,-122.237C204.322,-116.529 161.852,-104.477 133,-80 117.833,-67.133 107.635,-46.6158 101.654,-31.2937"/>
<polygon fill="midnightblue" stroke="midnightblue" points="104.869,-29.8897 98.1791,-21.6739 98.2852,-32.2682 104.869,-29.8897"/>
</g>
<!-- Node5 -->
<g id="node9" class="node"><title>Node5</title>
<polygon fill="white" stroke="#bfbfbf" points="488.5,-0.5 488.5,-21.5 535.5,-21.5 535.5,-0.5 488.5,-0.5"/>
<text text-anchor="middle" x="512" y="-8.5" font-family="Verdana" font-size="10.00">vector</text>
</g>
<!-- Node3&#45;&gt;Node5 -->
<g id="edge8" class="edge"><title>Node3&#45;&gt;Node5</title>
<path fill="none" stroke="midnightblue" d="M298.753,-123.616C352.266,-117.492 455.275,-103.028 483,-80 497.479,-67.9745 504.857,-47.4683 508.535,-31.9278"/>
<polygon fill="midnightblue" stroke="midnightblue" points="512.055,-32.1772 510.607,-21.6818 505.194,-30.7893 512.055,-32.1772"/>
</g>
<!-- Node6 -->
<g id="node11" class="node"><title>Node6</title>
<polygon fill="white" stroke="#bfbfbf" points="396.5,-0.5 396.5,-21.5 449.5,-21.5 449.5,-0.5 396.5,-0.5"/>
<text text-anchor="middle" x="423" y="-8.5" font-family="Verdana" font-size="10.00">stdint.h</text>
</g>
<!-- Node3&#45;&gt;Node6 -->
<g id="edge10" class="edge"><title>Node3&#45;&gt;Node6</title>
<path fill="none" stroke="midnightblue" d="M298.636,-124.195C350.087,-119.021 446.345,-106.042 467,-80 480.278,-63.2595 462.77,-42.3751 446.065,-27.9929"/>
<polygon fill="midnightblue" stroke="midnightblue" points="448.038,-25.086 438.068,-21.5015 443.626,-30.5211 448.038,-25.086"/>
</g>
<!-- Node7 -->
<g id="node13" class="node"><title>Node7</title>
<polygon fill="white" stroke="#bfbfbf" points="142,-58.5 142,-79.5 172,-79.5 172,-58.5 142,-58.5"/>
<text text-anchor="middle" x="157" y="-66.5" font-family="Verdana" font-size="10.00">list</text>
</g>
<!-- Node3&#45;&gt;Node7 -->
<g id="edge12" class="edge"><title>Node3&#45;&gt;Node7</title>
<path fill="none" stroke="midnightblue" d="M246.261,-116.497C227.914,-106.734 200.546,-92.1712 180.955,-81.7468"/>
<polygon fill="midnightblue" stroke="midnightblue" points="182.508,-78.6086 172.036,-77.0009 179.22,-84.7882 182.508,-78.6086"/>
</g>
<!-- Node8 -->
<g id="node15" class="node"><title>Node8</title>
<polygon fill="white" stroke="#bfbfbf" points="190,-58.5 190,-79.5 254,-79.5 254,-58.5 190,-58.5"/>
<text text-anchor="middle" x="222" y="-66.5" font-family="Verdana" font-size="10.00">XmlSink.h</text>
</g>
<!-- Node3&#45;&gt;Node8 -->
<g id="edge14" class="edge"><title>Node3&#45;&gt;Node8</title>
<path fill="none" stroke="midnightblue" d="M257.93,-116.362C251.851,-108.35 243.363,-97.1605 236.163,-87.6696"/>
<polygon fill="midnightblue" stroke="midnightblue" points="238.851,-85.4222 230.019,-79.5707 233.275,-89.653 238.851,-85.4222"/>
</g>
<!-- Node9 -->
<g id="node17" class="node"><title>Node9</title>
<polygon fill="white" stroke="#bfbfbf" points="271.5,-58.5 271.5,-79.5 348.5,-79.5 348.5,-58.5 271.5,-58.5"/>
<text text-anchor="middle" x="310" y="-66.5" font-family="Verdana" font-size="10.00">XmlSource.h</text>
</g>
<!-- Node3&#45;&gt;Node9 -->
<g id="edge16" class="edge"><title>Node3&#45;&gt;Node9</title>
<path fill="none" stroke="midnightblue" d="M274.07,-116.362C280.149,-108.35 288.637,-97.1605 295.837,-87.6696"/>
<polygon fill="midnightblue" stroke="midnightblue" points="298.725,-89.653 301.981,-79.5707 293.149,-85.4222 298.725,-89.653"/>
</g>
<!-- Node10 -->
<g id="node19" class="node"><title>Node10</title>
<a xlink:href="PathNavigator_8h.html" target="_top" xlink:title="PathNavigator.h">
<polygon fill="white" stroke="black" points="366,-58.5 366,-79.5 458,-79.5 458,-58.5 366,-58.5"/>
<text text-anchor="middle" x="412" y="-66.5" font-family="Verdana" font-size="10.00">PathNavigator.h</text>
</a>
</g>
<!-- Node3&#45;&gt;Node10 -->
<g id="edge18" class="edge"><title>Node3&#45;&gt;Node10</title>
<path fill="none" stroke="midnightblue" d="M292.439,-116.497C315.756,-107.234 349.95,-93.6499 375.804,-83.3793"/>
<polygon fill="midnightblue" stroke="midnightblue" points="377.263,-86.566 385.264,-79.6212 374.678,-80.0605 377.263,-86.566"/>
</g>
<!-- Node10&#45;&gt;Node4 -->
<g id="edge22" class="edge"><title>Node10&#45;&gt;Node4</title>
<path fill="none" stroke="midnightblue" d="M365.8,-59.6906C362.823,-59.1123 359.87,-58.5444 357,-58 274.305,-42.3149 176.659,-25.1579 127.195,-16.563"/>
<polygon fill="midnightblue" stroke="midnightblue" points="127.561,-13.0743 117.11,-14.8133 126.365,-19.9713 127.561,-13.0743"/>
</g>
<!-- Node10&#45;&gt;Node5 -->
<g id="edge20" class="edge"><title>Node10&#45;&gt;Node5</title>
<path fill="none" stroke="midnightblue" d="M430.342,-58.3619C445.566,-49.532 467.441,-36.844 484.72,-26.8224"/>
<polygon fill="midnightblue" stroke="midnightblue" points="486.88,-29.6155 493.775,-21.5707 483.368,-23.5603 486.88,-29.6155"/>
</g>
<!-- Node10&#45;&gt;Node6 -->
<g id="edge24" class="edge"><title>Node10&#45;&gt;Node6</title>
<path fill="none" stroke="midnightblue" d="M414.018,-58.3619C415.444,-50.8401 417.402,-40.5187 419.125,-31.4308"/>
<polygon fill="midnightblue" stroke="midnightblue" points="422.571,-32.0477 420.995,-21.5707 415.693,-30.7433 422.571,-32.0477"/>
</g>
</g>
</svg>
