<?xml version="1.0" encoding="UTF-8" standalone="no"?>
<!DOCTYPE svg PUBLIC "-//W3C//DTD SVG 1.1//EN"
 "http://www.w3.org/Graphics/SVG/1.1/DTD/svg11.dtd">
<!-- Generated by graphviz version 2.26.3 (20100126.1600)
 -->
<!-- Title: parameter/ParameterBlockType.cpp Pages: 1 -->
<svg width="720pt" height="450pt"
 viewBox="0.00 0.00 720.00 450.00" xmlns="http://www.w3.org/2000/svg" xmlns:xlink="http://www.w3.org/1999/xlink">
<g id="graph1" class="graph" transform="scale(1 1) rotate(0) translate(4 446)">
<title>parameter/ParameterBlockType.cpp</title>
<polygon fill="white" stroke="white" points="-4,5 -4,-446 717,-446 717,5 -4,5"/>
<!-- Node1 -->
<g id="node1" class="node"><title>Node1</title>
<polygon fill="#bfbfbf" stroke="black" points="55,-407 55,-441 201,-441 201,-407 55,-407"/>
<text text-anchor="start" x="63" y="-428" font-family="Verdana" font-size="10.00">parameter/ParameterBlock</text>
<text text-anchor="middle" x="128" y="-415" font-family="Verdana" font-size="10.00">Type.cpp</text>
</g>
<!-- Node2 -->
<g id="node3" class="node"><title>Node2</title>
<a xlink:href="ParameterBlockType_8h.html" target="_top" xlink:title="ParameterBlockType.h">
<polygon fill="white" stroke="black" points="28,-232.5 28,-253.5 150,-253.5 150,-232.5 28,-232.5"/>
<text text-anchor="middle" x="89" y="-240.5" font-family="Verdana" font-size="10.00">ParameterBlockType.h</text>
</a>
</g>
<!-- Node1&#45;&gt;Node2 -->
<g id="edge2" class="edge"><title>Node1&#45;&gt;Node2</title>
<path fill="none" stroke="midnightblue" d="M120.586,-406.781C116.343,-396.316 111.236,-382.587 108,-370 98.5662,-333.3 93.2839,-289.35 90.7989,-263.954"/>
<polygon fill="midnightblue" stroke="midnightblue" points="94.2552,-263.32 89.8491,-253.685 87.285,-263.964 94.2552,-263.32"/>
</g>
<!-- Node12 -->
<g id="node28" class="node"><title>Node12</title>
<a xlink:href="ParameterBlock_8h.html" target="_top" xlink:title="ParameterBlock.h">
<polygon fill="white" stroke="black" points="116.5,-348.5 116.5,-369.5 217.5,-369.5 217.5,-348.5 116.5,-348.5"/>
<text text-anchor="middle" x="167" y="-356.5" font-family="Verdana" font-size="10.00">ParameterBlock.h</text>
</a>
</g>
<!-- Node1&#45;&gt;Node12 -->
<g id="edge32" class="edge"><title>Node1&#45;&gt;Node12</title>
<path fill="none" stroke="midnightblue" d="M138.247,-406.922C143.473,-398.212 149.853,-387.578 155.275,-378.542"/>
<polygon fill="midnightblue" stroke="midnightblue" points="158.345,-380.228 160.489,-369.852 152.343,-376.626 158.345,-380.228"/>
</g>
<!-- Node3 -->
<g id="node5" class="node"><title>Node3</title>
<a xlink:href="TypeElement_8h.html" target="_top" xlink:title="TypeElement.h">
<polygon fill="white" stroke="black" points="102,-174.5 102,-195.5 188,-195.5 188,-174.5 102,-174.5"/>
<text text-anchor="middle" x="145" y="-182.5" font-family="Verdana" font-size="10.00">TypeElement.h</text>
</a>
</g>
<!-- Node2&#45;&gt;Node3 -->
<g id="edge4" class="edge"><title>Node2&#45;&gt;Node3</title>
<path fill="none" stroke="midnightblue" d="M99.2713,-232.362C107.244,-224.104 118.475,-212.472 127.811,-202.803"/>
<polygon fill="midnightblue" stroke="midnightblue" points="130.366,-205.196 134.794,-195.571 125.33,-200.334 130.366,-205.196"/>
</g>
<!-- Node5 -->
<g id="node9" class="node"><title>Node5</title>
<polygon fill="white" stroke="#bfbfbf" points="194,-0.5 194,-21.5 238,-21.5 238,-0.5 194,-0.5"/>
<text text-anchor="middle" x="216" y="-8.5" font-family="Verdana" font-size="10.00">string</text>
</g>
<!-- Node2&#45;&gt;Node5 -->
<g id="edge30" class="edge"><title>Node2&#45;&gt;Node5</title>
<path fill="none" stroke="midnightblue" d="M87.7515,-232.329C86.5384,-218.431 85.7981,-193.597 93,-174 115.244,-113.472 167.976,-56.6657 196.64,-28.8509"/>
<polygon fill="midnightblue" stroke="midnightblue" points="199.218,-31.2289 204.041,-21.7955 194.388,-26.1622 199.218,-31.2289"/>
</g>
<!-- Node4 -->
<g id="node7" class="node"><title>Node4</title>
<a xlink:href="Element_8h.html" target="_top" xlink:title="Element.h">
<polygon fill="white" stroke="black" points="427.5,-116.5 427.5,-137.5 492.5,-137.5 492.5,-116.5 427.5,-116.5"/>
<text text-anchor="middle" x="460" y="-124.5" font-family="Verdana" font-size="10.00">Element.h</text>
</a>
</g>
<!-- Node3&#45;&gt;Node4 -->
<g id="edge6" class="edge"><title>Node3&#45;&gt;Node4</title>
<path fill="none" stroke="midnightblue" d="M188.139,-177.057C248.507,-165.942 357.507,-145.872 417.52,-134.822"/>
<polygon fill="midnightblue" stroke="midnightblue" points="418.223,-138.251 427.424,-132.998 416.956,-131.367 418.223,-138.251"/>
</g>
<!-- Node3&#45;&gt;Node5 -->
<g id="edge28" class="edge"><title>Node3&#45;&gt;Node5</title>
<path fill="none" stroke="midnightblue" d="M149.334,-174.377C160.893,-146.051 192.599,-68.3488 207.74,-31.2424"/>
<polygon fill="midnightblue" stroke="midnightblue" points="211.003,-32.5089 211.541,-21.9277 204.522,-29.8642 211.003,-32.5089"/>
</g>
<!-- Node4&#45;&gt;Node5 -->
<g id="edge8" class="edge"><title>Node4&#45;&gt;Node5</title>
<path fill="none" stroke="midnightblue" d="M427.447,-119.949C396.453,-112.502 349.028,-99.1672 311,-80 282.744,-65.7584 253.826,-43.4188 235.438,-28.0379"/>
<polygon fill="midnightblue" stroke="midnightblue" points="237.655,-25.3287 227.77,-21.5147 233.119,-30.6603 237.655,-25.3287"/>
</g>
<!-- Node6 -->
<g id="node11" class="node"><title>Node6</title>
<polygon fill="white" stroke="#bfbfbf" points="504.5,-0.5 504.5,-21.5 551.5,-21.5 551.5,-0.5 504.5,-0.5"/>
<text text-anchor="middle" x="528" y="-8.5" font-family="Verdana" font-size="10.00">vector</text>
</g>
<!-- Node4&#45;&gt;Node6 -->
<g id="edge10" class="edge"><title>Node4&#45;&gt;Node6</title>
<path fill="none" stroke="midnightblue" d="M466.275,-116.295C477.712,-96.7861 502.096,-55.1884 516.559,-30.5177"/>
<polygon fill="midnightblue" stroke="midnightblue" points="519.702,-32.0762 521.74,-21.6792 513.663,-28.5362 519.702,-32.0762"/>
</g>
<!-- Node7 -->
<g id="node13" class="node"><title>Node7</title>
<polygon fill="white" stroke="#bfbfbf" points="590.5,-0.5 590.5,-21.5 643.5,-21.5 643.5,-0.5 590.5,-0.5"/>
<text text-anchor="middle" x="617" y="-8.5" font-family="Verdana" font-size="10.00">stdint.h</text>
</g>
<!-- Node4&#45;&gt;Node7 -->
<g id="edge12" class="edge"><title>Node4&#45;&gt;Node7</title>
<path fill="none" stroke="midnightblue" d="M492.558,-122.973C538.253,-116.576 617.771,-102.467 635,-80 645.877,-65.8167 638.76,-45.6852 630.486,-30.8259"/>
<polygon fill="midnightblue" stroke="midnightblue" points="633.258,-28.6488 625.059,-21.9379 627.283,-32.2967 633.258,-28.6488"/>
</g>
<!-- Node8 -->
<g id="node15" class="node"><title>Node8</title>
<polygon fill="white" stroke="#bfbfbf" points="682,-58.5 682,-79.5 712,-79.5 712,-58.5 682,-58.5"/>
<text text-anchor="middle" x="697" y="-66.5" font-family="Verdana" font-size="10.00">list</text>
</g>
<!-- Node4&#45;&gt;Node8 -->
<g id="edge14" class="edge"><title>Node4&#45;&gt;Node8</title>
<path fill="none" stroke="midnightblue" d="M492.793,-121.068C534.091,-113.261 607.026,-98.3542 668,-80 669.418,-79.5732 670.866,-79.1111 672.321,-78.6263"/>
<polygon fill="midnightblue" stroke="midnightblue" points="673.557,-81.9016 681.787,-75.2295 671.192,-75.3129 673.557,-81.9016"/>
</g>
<!-- Node9 -->
<g id="node17" class="node"><title>Node9</title>
<polygon fill="white" stroke="#bfbfbf" points="320,-58.5 320,-79.5 384,-79.5 384,-58.5 320,-58.5"/>
<text text-anchor="middle" x="352" y="-66.5" font-family="Verdana" font-size="10.00">XmlSink.h</text>
</g>
<!-- Node4&#45;&gt;Node9 -->
<g id="edge16" class="edge"><title>Node4&#45;&gt;Node9</title>
<path fill="none" stroke="midnightblue" d="M440.442,-116.497C423.802,-107.56 399.673,-94.602 380.82,-84.4772"/>
<polygon fill="midnightblue" stroke="midnightblue" points="382.243,-81.2691 371.777,-79.6212 378.931,-87.436 382.243,-81.2691"/>
</g>
<!-- Node10 -->
<g id="node19" class="node"><title>Node10</title>
<polygon fill="white" stroke="#bfbfbf" points="401.5,-58.5 401.5,-79.5 478.5,-79.5 478.5,-58.5 401.5,-58.5"/>
<text text-anchor="middle" x="440" y="-66.5" font-family="Verdana" font-size="10.00">XmlSource.h</text>
</g>
<!-- Node4&#45;&gt;Node10 -->
<g id="edge18" class="edge"><title>Node4&#45;&gt;Node10</title>
<path fill="none" stroke="midnightblue" d="M456.332,-116.362C453.71,-108.758 450.101,-98.294 446.943,-89.1349"/>
<polygon fill="midnightblue" stroke="midnightblue" points="450.214,-87.8834 443.645,-79.5707 443.596,-90.1654 450.214,-87.8834"/>
</g>
<!-- Node11 -->
<g id="node21" class="node"><title>Node11</title>
<a xlink:href="PathNavigator_8h.html" target="_top" xlink:title="PathNavigator.h">
<polygon fill="white" stroke="black" points="534,-58.5 534,-79.5 626,-79.5 626,-58.5 534,-58.5"/>
<text text-anchor="middle" x="580" y="-66.5" font-family="Verdana" font-size="10.00">PathNavigator.h</text>
</a>
</g>
<!-- Node4&#45;&gt;Node11 -->
<g id="edge20" class="edge"><title>Node4&#45;&gt;Node11</title>
<path fill="none" stroke="midnightblue" d="M481.731,-116.497C500.474,-107.438 527.767,-94.2462 548.836,-84.0628"/>
<polygon fill="midnightblue" stroke="midnightblue" points="550.545,-87.1242 558.025,-79.6212 547.498,-80.8217 550.545,-87.1242"/>
</g>
<!-- Node11&#45;&gt;Node5 -->
<g id="edge24" class="edge"><title>Node11&#45;&gt;Node5</title>
<path fill="none" stroke="midnightblue" d="M533.899,-61.6543C459.057,-49.7289 312.983,-26.4533 248.23,-16.1356"/>
<polygon fill="midnightblue" stroke="midnightblue" points="248.625,-12.6544 238.198,-14.5371 247.523,-19.5672 248.625,-12.6544"/>
</g>
<!-- Node11&#45;&gt;Node6 -->
<g id="edge22" class="edge"><title>Node11&#45;&gt;Node6</title>
<path fill="none" stroke="midnightblue" d="M570.462,-58.3619C563.132,-50.1861 552.837,-38.7025 544.219,-29.0907"/>
<polygon fill="midnightblue" stroke="midnightblue" points="546.759,-26.68 537.477,-21.5707 541.547,-31.3528 546.759,-26.68"/>
</g>
<!-- Node11&#45;&gt;Node7 -->
<g id="edge26" class="edge"><title>Node11&#45;&gt;Node7</title>
<path fill="none" stroke="midnightblue" d="M586.786,-58.3619C591.793,-50.5131 598.745,-39.6159 604.718,-30.2527"/>
<polygon fill="midnightblue" stroke="midnightblue" points="607.829,-31.8837 610.257,-21.5707 601.928,-28.1189 607.829,-31.8837"/>
</g>
<!-- Node12&#45;&gt;Node5 -->
<g id="edge52" class="edge"><title>Node12&#45;&gt;Node5</title>
<path fill="none" stroke="midnightblue" d="M121.807,-348.456C72.3496,-333.917 0,-302.482 0,-243 0,-243 0,-243 0,-127 0,-44.6831 123.264,-20.5373 183.559,-13.6504"/>
<polygon fill="midnightblue" stroke="midnightblue" points="184.117,-17.1111 193.698,-12.5877 183.387,-10.1492 184.117,-17.1111"/>
</g>
<!-- Node13 -->
<g id="node30" class="node"><title>Node13</title>
<a xlink:href="InstanceConfigurableElement_8h.html" target="_top" xlink:title="InstanceConfigurableElement.h">
<polygon fill="white" stroke="black" points="133,-290.5 133,-311.5 299,-311.5 299,-290.5 133,-290.5"/>
<text text-anchor="middle" x="216" y="-298.5" font-family="Verdana" font-size="10.00">InstanceConfigurableElement.h</text>
</a>
</g>
<!-- Node12&#45;&gt;Node13 -->
<g id="edge34" class="edge"><title>Node12&#45;&gt;Node13</title>
<path fill="none" stroke="midnightblue" d="M175.987,-348.362C182.825,-340.268 192.402,-328.932 200.472,-319.38"/>
<polygon fill="midnightblue" stroke="midnightblue" points="203.29,-321.468 207.07,-311.571 197.942,-316.951 203.29,-321.468"/>
</g>
<!-- Node13&#45;&gt;Node3 -->
<g id="edge46" class="edge"><title>Node13&#45;&gt;Node3</title>
<path fill="none" stroke="midnightblue" d="M209.448,-290.295C197.507,-270.786 172.046,-229.188 156.946,-204.518"/>
<polygon fill="midnightblue" stroke="midnightblue" points="159.742,-202.381 151.536,-195.679 153.772,-206.036 159.742,-202.381"/>
</g>
<!-- Node13&#45;&gt;Node5 -->
<g id="edge50" class="edge"><title>Node13&#45;&gt;Node5</title>
<path fill="none" stroke="midnightblue" d="M216,-290.444C216,-270.062 216,-223.868 216,-185 216,-185 216,-185 216,-127 216,-93.5978 216,-54.7853 216,-31.5939"/>
<polygon fill="midnightblue" stroke="midnightblue" points="219.5,-31.5561 216,-21.5561 212.5,-31.5561 219.5,-31.5561"/>
</g>
<!-- Node13&#45;&gt;Node8 -->
<g id="edge48" class="edge"><title>Node13&#45;&gt;Node8</title>
<path fill="none" stroke="midnightblue" d="M299.093,-290.666C341.954,-283.563 394.449,-272.059 439,-254 540.31,-212.934 639.501,-124.456 679.047,-86.68"/>
<polygon fill="midnightblue" stroke="midnightblue" points="681.589,-89.0905 686.352,-79.6265 676.727,-84.0547 681.589,-89.0905"/>
</g>
<!-- Node14 -->
<g id="node32" class="node"><title>Node14</title>
<a xlink:href="ConfigurableElementWithMapping_8h.html" target="_top" xlink:title="ConfigurableElementWithMapping.h">
<polygon fill="white" stroke="black" points="244,-232.5 244,-253.5 430,-253.5 430,-232.5 244,-232.5"/>
<text text-anchor="middle" x="337" y="-240.5" font-family="Verdana" font-size="10.00">ConfigurableElementWithMapping.h</text>
</a>
</g>
<!-- Node13&#45;&gt;Node14 -->
<g id="edge36" class="edge"><title>Node13&#45;&gt;Node14</title>
<path fill="none" stroke="midnightblue" d="M237.912,-290.497C256.811,-281.438 284.331,-268.246 305.576,-258.063"/>
<polygon fill="midnightblue" stroke="midnightblue" points="307.337,-261.1 314.842,-253.621 304.311,-254.788 307.337,-261.1"/>
</g>
<!-- Node14&#45;&gt;Node5 -->
<g id="edge44" class="edge"><title>Node14&#45;&gt;Node5</title>
<path fill="none" stroke="midnightblue" d="M331.486,-232.429C312.668,-196.346 250.778,-77.6826 226.196,-30.5499"/>
<polygon fill="midnightblue" stroke="midnightblue" points="229.274,-28.8815 221.546,-21.6335 223.067,-32.1186 229.274,-28.8815"/>
</g>
<!-- Node15 -->
<g id="node34" class="node"><title>Node15</title>
<a xlink:href="ConfigurableElement_8h.html" target="_top" xlink:title="ConfigurableElement.h">
<polygon fill="white" stroke="black" points="397.5,-174.5 397.5,-195.5 522.5,-195.5 522.5,-174.5 397.5,-174.5"/>
<text text-anchor="middle" x="460" y="-182.5" font-family="Verdana" font-size="10.00">ConfigurableElement.h</text>
</a>
</g>
<!-- Node14&#45;&gt;Node15 -->
<g id="edge38" class="edge"><title>Node14&#45;&gt;Node15</title>
<path fill="none" stroke="midnightblue" d="M359.274,-232.497C378.572,-223.397 406.713,-210.127 428.348,-199.925"/>
<polygon fill="midnightblue" stroke="midnightblue" points="429.924,-203.052 437.476,-195.621 426.938,-196.721 429.924,-203.052"/>
</g>
<!-- Node15&#45;&gt;Node4 -->
<g id="edge40" class="edge"><title>Node15&#45;&gt;Node4</title>
<path fill="none" stroke="midnightblue" d="M460,-174.362C460,-166.922 460,-156.743 460,-147.728"/>
<polygon fill="midnightblue" stroke="midnightblue" points="463.5,-147.571 460,-137.571 456.5,-147.571 463.5,-147.571"/>
</g>
<!-- Node15&#45;&gt;Node8 -->
<g id="edge42" class="edge"><title>Node15&#45;&gt;Node8</title>
<path fill="none" stroke="midnightblue" d="M481.872,-174.295C526.269,-152.564 626.662,-103.427 672.881,-80.805"/>
<polygon fill="midnightblue" stroke="midnightblue" points="674.439,-83.9394 681.882,-76.3996 671.361,-77.6521 674.439,-83.9394"/>
</g>
</g>
</svg>
