<?xml version="1.0" encoding="UTF-8" standalone="no"?>
<!DOCTYPE svg PUBLIC "-//W3C//DTD SVG 1.1//EN"
 "http://www.w3.org/Graphics/SVG/1.1/DTD/svg11.dtd">
<!-- Generated by graphviz version 2.26.3 (20100126.1600)
 -->
<!-- Title: parameter/ParameterBlackboard.h Pages: 1 -->
<svg width="2344pt" height="204pt"
 viewBox="0.00 0.00 2344.00 204.00" xmlns="http://www.w3.org/2000/svg" xmlns:xlink="http://www.w3.org/1999/xlink">
<g id="graph1" class="graph" transform="scale(1 1) rotate(0) translate(4 200)">
<title>parameter/ParameterBlackboard.h</title>
<polygon fill="white" stroke="white" points="-4,5 -4,-200 2341,-200 2341,5 -4,5"/>
<!-- Node1 -->
<g id="node1" class="node"><title>Node1</title>
<polygon fill="#bfbfbf" stroke="black" points="1317.5,-174.5 1317.5,-195.5 1500.5,-195.5 1500.5,-174.5 1317.5,-174.5"/>
<text text-anchor="middle" x="1409" y="-182.5" font-family="Verdana" font-size="10.00">parameter/ParameterBlackboard.h</text>
</g>
<!-- Node2 -->
<g id="node3" class="node"><title>Node2</title>
<a xlink:href="AreaConfiguration_8h.html" target="_top" xlink:title="parameter/AreaConfiguration.h">
<polygon fill="white" stroke="black" points="422,-116.5 422,-137.5 588,-137.5 588,-116.5 422,-116.5"/>
<text text-anchor="middle" x="505" y="-124.5" font-family="Verdana" font-size="10.00">parameter/AreaConfiguration.h</text>
</a>
</g>
<!-- Node1&#45;&gt;Node2 -->
<g id="edge2" class="edge"><title>Node1&#45;&gt;Node2</title>
<path fill="none" stroke="midnightblue" d="M1307.33,-178.477C1127.01,-166.907 754.563,-143.012 588.308,-132.345"/>
<polygon fill="midnightblue" stroke="midnightblue" points="1307.14,-181.972 1317.34,-179.119 1307.59,-174.986 1307.14,-181.972"/>
</g>
<!-- Node5 -->
<g id="node9" class="node"><title>Node5</title>
<a xlink:href="BitParameter_8cpp.html" target="_top" xlink:title="parameter/BitParameter.cpp">
<polygon fill="white" stroke="black" points="588.5,-0.5 588.5,-21.5 741.5,-21.5 741.5,-0.5 588.5,-0.5"/>
<text text-anchor="middle" x="665" y="-8.5" font-family="Verdana" font-size="10.00">parameter/BitParameter.cpp</text>
</a>
</g>
<!-- Node1&#45;&gt;Node5 -->
<g id="edge20" class="edge"><title>Node1&#45;&gt;Node5</title>
<path fill="none" stroke="midnightblue" d="M1307.38,-181.778C1158.05,-176.232 893.051,-162.991 857,-138 824.65,-115.575 848.805,-83.7112 819,-58 797.41,-39.376 768.577,-28.1317 741.7,-21.3429"/>
<polygon fill="midnightblue" stroke="midnightblue" points="1307.36,-185.28 1317.48,-182.148 1307.62,-178.284 1307.36,-185.28"/>
</g>
<!-- Node9 -->
<g id="node17" class="node"><title>Node9</title>
<a xlink:href="ArrayParameter_8cpp.html" target="_top" xlink:title="parameter/ArrayParameter.cpp">
<polygon fill="white" stroke="black" points="866,-116.5 866,-137.5 1032,-137.5 1032,-116.5 866,-116.5"/>
<text text-anchor="middle" x="949" y="-124.5" font-family="Verdana" font-size="10.00">parameter/ArrayParameter.cpp</text>
</a>
</g>
<!-- Node1&#45;&gt;Node9 -->
<g id="edge16" class="edge"><title>Node1&#45;&gt;Node9</title>
<path fill="none" stroke="midnightblue" d="M1315.75,-173.242C1232.59,-162.757 1111.98,-147.549 1032.07,-137.474"/>
<polygon fill="midnightblue" stroke="midnightblue" points="1315.34,-176.718 1325.7,-174.497 1316.21,-169.773 1315.34,-176.718"/>
</g>
<!-- Node10 -->
<g id="node19" class="node"><title>Node10</title>
<a xlink:href="BaseParameter_8cpp.html" target="_top" xlink:title="parameter/BaseParameter.cpp">
<polygon fill="white" stroke="black" points="1050,-116.5 1050,-137.5 1214,-137.5 1214,-116.5 1050,-116.5"/>
<text text-anchor="middle" x="1132" y="-124.5" font-family="Verdana" font-size="10.00">parameter/BaseParameter.cpp</text>
</a>
</g>
<!-- Node1&#45;&gt;Node10 -->
<g id="edge18" class="edge"><title>Node1&#45;&gt;Node10</title>
<path fill="none" stroke="midnightblue" d="M1348.85,-172.404C1299.05,-161.977 1229.11,-147.333 1182.26,-137.523"/>
<polygon fill="midnightblue" stroke="midnightblue" points="1348.33,-175.873 1358.84,-174.497 1349.77,-169.021 1348.33,-175.873"/>
</g>
<!-- Node11 -->
<g id="node22" class="node"><title>Node11</title>
<a xlink:href="BitParameterBlock_8cpp.html" target="_top" xlink:title="parameter/BitParameterBlock.cpp">
<polygon fill="white" stroke="black" points="1231.5,-116.5 1231.5,-137.5 1410.5,-137.5 1410.5,-116.5 1231.5,-116.5"/>
<text text-anchor="middle" x="1321" y="-124.5" font-family="Verdana" font-size="10.00">parameter/BitParameterBlock.cpp</text>
</a>
</g>
<!-- Node1&#45;&gt;Node11 -->
<g id="edge22" class="edge"><title>Node1&#45;&gt;Node11</title>
<path fill="none" stroke="midnightblue" d="M1384.45,-168.821C1369.3,-158.831 1350.28,-146.299 1337.04,-137.571"/>
<polygon fill="midnightblue" stroke="midnightblue" points="1382.58,-171.781 1392.86,-174.362 1386.44,-165.936 1382.58,-171.781"/>
</g>
<!-- Node12 -->
<g id="node24" class="node"><title>Node12</title>
<a xlink:href="Parameter_8cpp.html" target="_top" xlink:title="parameter/Parameter.cpp">
<polygon fill="white" stroke="black" points="1428,-116.5 1428,-137.5 1568,-137.5 1568,-116.5 1428,-116.5"/>
<text text-anchor="middle" x="1498" y="-124.5" font-family="Verdana" font-size="10.00">parameter/Parameter.cpp</text>
</a>
</g>
<!-- Node1&#45;&gt;Node12 -->
<g id="edge24" class="edge"><title>Node1&#45;&gt;Node12</title>
<path fill="none" stroke="midnightblue" d="M1433.83,-168.821C1449.16,-158.831 1468.39,-146.299 1481.78,-137.571"/>
<polygon fill="midnightblue" stroke="midnightblue" points="1431.79,-165.97 1425.32,-174.362 1435.61,-171.834 1431.79,-165.97"/>
</g>
<!-- Node13 -->
<g id="node26" class="node"><title>Node13</title>
<a xlink:href="ParameterBlackboard_8cpp.html" target="_top" xlink:title="parameter/ParameterBlackboard.cpp">
<polygon fill="white" stroke="black" points="1586,-116.5 1586,-137.5 1780,-137.5 1780,-116.5 1586,-116.5"/>
<text text-anchor="middle" x="1683" y="-124.5" font-family="Verdana" font-size="10.00">parameter/ParameterBlackboard.cpp</text>
</a>
</g>
<!-- Node1&#45;&gt;Node13 -->
<g id="edge26" class="edge"><title>Node1&#45;&gt;Node13</title>
<path fill="none" stroke="midnightblue" d="M1468.5,-172.404C1517.76,-161.977 1586.94,-147.333 1633.29,-137.523"/>
<polygon fill="midnightblue" stroke="midnightblue" points="1467.68,-169.002 1458.62,-174.497 1469.13,-175.85 1467.68,-169.002"/>
</g>
<!-- Node14 -->
<g id="node28" class="node"><title>Node14</title>
<a xlink:href="ParameterMgr_8cpp.html" target="_top" xlink:title="parameter/ParameterMgr.cpp">
<polygon fill="white" stroke="black" points="1798,-116.5 1798,-137.5 1956,-137.5 1956,-116.5 1798,-116.5"/>
<text text-anchor="middle" x="1877" y="-124.5" font-family="Verdana" font-size="10.00">parameter/ParameterMgr.cpp</text>
</a>
</g>
<!-- Node1&#45;&gt;Node14 -->
<g id="edge28" class="edge"><title>Node1&#45;&gt;Node14</title>
<path fill="none" stroke="midnightblue" d="M1504.42,-173.233C1581.27,-163.747 1692.09,-150.05 1789,-138 1791.9,-137.639 1794.86,-137.271 1797.85,-136.899"/>
<polygon fill="midnightblue" stroke="midnightblue" points="1503.77,-169.786 1494.27,-174.485 1504.63,-176.734 1503.77,-169.786"/>
</g>
<!-- Node15 -->
<g id="node30" class="node"><title>Node15</title>
<a xlink:href="StringParameter_8cpp.html" target="_top" xlink:title="parameter/StringParameter.cpp">
<polygon fill="white" stroke="black" points="1973.5,-116.5 1973.5,-137.5 2142.5,-137.5 2142.5,-116.5 1973.5,-116.5"/>
<text text-anchor="middle" x="2058" y="-124.5" font-family="Verdana" font-size="10.00">parameter/StringParameter.cpp</text>
</a>
</g>
<!-- Node1&#45;&gt;Node15 -->
<g id="edge30" class="edge"><title>Node1&#45;&gt;Node15</title>
<path fill="none" stroke="midnightblue" d="M1510.82,-177.419C1622.39,-168.872 1806.58,-154.06 1965,-138 1967.75,-137.721 1970.54,-137.431 1973.37,-137.132"/>
<polygon fill="midnightblue" stroke="midnightblue" points="1510.29,-173.949 1500.59,-178.201 1510.82,-180.928 1510.29,-173.949"/>
</g>
<!-- Node16 -->
<g id="node32" class="node"><title>Node16</title>
<a xlink:href="SubsystemObject_8cpp.html" target="_top" xlink:title="parameter/SubsystemObject.cpp">
<polygon fill="white" stroke="black" points="2160,-116.5 2160,-137.5 2336,-137.5 2336,-116.5 2160,-116.5"/>
<text text-anchor="middle" x="2248" y="-124.5" font-family="Verdana" font-size="10.00">parameter/SubsystemObject.cpp</text>
</a>
</g>
<!-- Node1&#45;&gt;Node16 -->
<g id="edge32" class="edge"><title>Node1&#45;&gt;Node16</title>
<path fill="none" stroke="midnightblue" d="M1510.87,-180.152C1653.98,-172.975 1922.63,-158.169 2151,-138 2153.95,-137.739 2156.96,-137.462 2159.99,-137.173"/>
<polygon fill="midnightblue" stroke="midnightblue" points="1510.6,-176.661 1500.78,-180.655 1510.95,-183.652 1510.6,-176.661"/>
</g>
<!-- Node3 -->
<g id="node5" class="node"><title>Node3</title>
<a xlink:href="AreaConfiguration_8cpp.html" target="_top" xlink:title="parameter/AreaConfiguration.cpp">
<polygon fill="white" stroke="black" points="-0.5,-58.5 -0.5,-79.5 176.5,-79.5 176.5,-58.5 -0.5,-58.5"/>
<text text-anchor="middle" x="88" y="-66.5" font-family="Verdana" font-size="10.00">parameter/AreaConfiguration.cpp</text>
</a>
</g>
<!-- Node2&#45;&gt;Node3 -->
<g id="edge4" class="edge"><title>Node2&#45;&gt;Node3</title>
<path fill="none" stroke="midnightblue" d="M419.559,-115.116C344.327,-104.652 235.807,-89.5583 163.657,-79.5231"/>
<polygon fill="midnightblue" stroke="midnightblue" points="419.098,-118.586 429.484,-116.497 420.062,-111.652 419.098,-118.586"/>
</g>
<!-- Node4 -->
<g id="node7" class="node"><title>Node4</title>
<a xlink:href="BitwiseAreaConfiguration_8h.html" target="_top" xlink:title="parameter/BitwiseAreaConfiguration.h">
<polygon fill="white" stroke="black" points="193.5,-58.5 193.5,-79.5 392.5,-79.5 392.5,-58.5 193.5,-58.5"/>
<text text-anchor="middle" x="293" y="-66.5" font-family="Verdana" font-size="10.00">parameter/BitwiseAreaConfiguration.h</text>
</a>
</g>
<!-- Node2&#45;&gt;Node4 -->
<g id="edge6" class="edge"><title>Node2&#45;&gt;Node4</title>
<path fill="none" stroke="midnightblue" d="M456.797,-113.812C418.842,-103.428 366.647,-89.1487 331.464,-79.5231"/>
<polygon fill="midnightblue" stroke="midnightblue" points="456.039,-117.234 466.608,-116.497 457.886,-110.482 456.039,-117.234"/>
</g>
<!-- Node7 -->
<g id="node13" class="node"><title>Node7</title>
<a xlink:href="ConfigurableElement_8cpp.html" target="_top" xlink:title="parameter/ConfigurableElement.cpp">
<polygon fill="white" stroke="black" points="409.5,-58.5 409.5,-79.5 600.5,-79.5 600.5,-58.5 409.5,-58.5"/>
<text text-anchor="middle" x="505" y="-66.5" font-family="Verdana" font-size="10.00">parameter/ConfigurableElement.cpp</text>
</a>
</g>
<!-- Node2&#45;&gt;Node7 -->
<g id="edge12" class="edge"><title>Node2&#45;&gt;Node7</title>
<path fill="none" stroke="midnightblue" d="M505,-106.191C505,-97.1684 505,-86.9941 505,-79.5707"/>
<polygon fill="midnightblue" stroke="midnightblue" points="501.5,-106.362 505,-116.362 508.5,-106.362 501.5,-106.362"/>
</g>
<!-- Node8 -->
<g id="node15" class="node"><title>Node8</title>
<a xlink:href="DomainConfiguration_8cpp.html" target="_top" xlink:title="parameter/DomainConfiguration.cpp">
<polygon fill="white" stroke="black" points="618,-58.5 618,-79.5 810,-79.5 810,-58.5 618,-58.5"/>
<text text-anchor="middle" x="714" y="-66.5" font-family="Verdana" font-size="10.00">parameter/DomainConfiguration.cpp</text>
</a>
</g>
<!-- Node2&#45;&gt;Node8 -->
<g id="edge14" class="edge"><title>Node2&#45;&gt;Node8</title>
<path fill="none" stroke="midnightblue" d="M552.521,-113.812C589.939,-103.428 641.395,-89.1487 676.081,-79.5231"/>
<polygon fill="midnightblue" stroke="midnightblue" points="551.548,-110.45 542.848,-116.497 553.42,-117.195 551.548,-110.45"/>
</g>
<!-- Node4&#45;&gt;Node5 -->
<g id="edge8" class="edge"><title>Node4&#45;&gt;Node5</title>
<path fill="none" stroke="midnightblue" d="M370.457,-56.9234C437.519,-46.4675 533.537,-31.4969 597.507,-21.5231"/>
<polygon fill="midnightblue" stroke="midnightblue" points="369.708,-53.4978 360.366,-58.4966 370.786,-60.4142 369.708,-53.4978"/>
</g>
<!-- Node6 -->
<g id="node11" class="node"><title>Node6</title>
<a xlink:href="BitwiseAreaConfiguration_8cpp.html" target="_top" xlink:title="parameter/BitwiseAreaConfiguration.cpp">
<polygon fill="white" stroke="black" points="188,-0.5 188,-21.5 398,-21.5 398,-0.5 188,-0.5"/>
<text text-anchor="middle" x="293" y="-8.5" font-family="Verdana" font-size="10.00">parameter/BitwiseAreaConfiguration.cpp</text>
</a>
</g>
<!-- Node4&#45;&gt;Node6 -->
<g id="edge10" class="edge"><title>Node4&#45;&gt;Node6</title>
<path fill="none" stroke="midnightblue" d="M293,-48.1906C293,-39.1684 293,-28.9941 293,-21.5707"/>
<polygon fill="midnightblue" stroke="midnightblue" points="289.5,-48.3619 293,-58.3619 296.5,-48.3619 289.5,-48.3619"/>
</g>
</g>
</svg>
