<?xml version="1.0" encoding="UTF-8" standalone="no"?>
<!DOCTYPE svg PUBLIC "-//W3C//DTD SVG 1.1//EN"
 "http://www.w3.org/Graphics/SVG/1.1/DTD/svg11.dtd">
<!-- Generated by graphviz version 2.26.3 (20100126.1600)
 -->
<!-- Title: parameter/ParameterMgrPlatformConnector.cpp Pages: 1 -->
<svg width="1134pt" height="450pt"
 viewBox="0.00 0.00 1134.31 450.00" xmlns="http://www.w3.org/2000/svg" xmlns:xlink="http://www.w3.org/1999/xlink">
<g id="graph1" class="graph" transform="scale(1 1) rotate(0) translate(4 446)">
<title>parameter/ParameterMgrPlatformConnector.cpp</title>
<polygon fill="white" stroke="white" points="-4,5 -4,-446 1131.31,-446 1131.31,5 -4,5"/>
<!-- Node1 -->
<g id="node1" class="node"><title>Node1</title>
<polygon fill="#bfbfbf" stroke="black" points="503.5,-407 503.5,-441 682.5,-441 682.5,-407 503.5,-407"/>
<text text-anchor="start" x="511.5" y="-428" font-family="Verdana" font-size="10.00">parameter/ParameterMgrPlatform</text>
<text text-anchor="middle" x="593" y="-415" font-family="Verdana" font-size="10.00">Connector.cpp</text>
</g>
<!-- Node2 -->
<g id="node3" class="node"><title>Node2</title>
<polygon fill="white" stroke="#bfbfbf" points="284.5,-348.5 284.5,-369.5 467.5,-369.5 467.5,-348.5 284.5,-348.5"/>
<text text-anchor="middle" x="376" y="-356.5" font-family="Verdana" font-size="10.00">ParameterMgrPlatformConnector.h</text>
</g>
<!-- Node1&#45;&gt;Node2 -->
<g id="edge2" class="edge"><title>Node1&#45;&gt;Node2</title>
<path fill="none" stroke="midnightblue" d="M535.986,-406.922C500.139,-396.184 454.53,-382.523 421.19,-372.536"/>
<polygon fill="midnightblue" stroke="midnightblue" points="421.845,-369.079 411.261,-369.562 419.836,-375.784 421.845,-369.079"/>
</g>
<!-- Node3 -->
<g id="node5" class="node"><title>Node3</title>
<a xlink:href="ParameterMgr_8h.html" target="_top" xlink:title="ParameterMgr.h">
<polygon fill="white" stroke="black" points="619.5,-290.5 619.5,-311.5 712.5,-311.5 712.5,-290.5 619.5,-290.5"/>
<text text-anchor="middle" x="666" y="-298.5" font-family="Verdana" font-size="10.00">ParameterMgr.h</text>
</a>
</g>
<!-- Node1&#45;&gt;Node3 -->
<g id="edge4" class="edge"><title>Node1&#45;&gt;Node3</title>
<path fill="none" stroke="midnightblue" d="M603.15,-406.897C616.579,-384.271 640.197,-344.477 654.342,-320.643"/>
<polygon fill="midnightblue" stroke="midnightblue" points="657.504,-322.173 659.598,-311.787 651.484,-318.601 657.504,-322.173"/>
</g>
<!-- Node23 -->
<g id="node62" class="node"><title>Node23</title>
<a xlink:href="ParameterMgrLogger_8h.html" target="_top" xlink:title="ParameterMgrLogger.h">
<polygon fill="white" stroke="black" points="485,-348.5 485,-369.5 611,-369.5 611,-348.5 485,-348.5"/>
<text text-anchor="middle" x="548" y="-356.5" font-family="Verdana" font-size="10.00">ParameterMgrLogger.h</text>
</a>
</g>
<!-- Node1&#45;&gt;Node23 -->
<g id="edge78" class="edge"><title>Node1&#45;&gt;Node23</title>
<path fill="none" stroke="midnightblue" d="M581.177,-406.922C575.083,-398.12 567.63,-387.354 561.332,-378.258"/>
<polygon fill="midnightblue" stroke="midnightblue" points="564.083,-376.082 555.513,-369.852 558.327,-380.066 564.083,-376.082"/>
</g>
<!-- Node25 -->
<g id="node68" class="node"><title>Node25</title>
<polygon fill="white" stroke="#bfbfbf" points="667,-348.5 667,-369.5 723,-369.5 723,-348.5 667,-348.5"/>
<text text-anchor="middle" x="695" y="-356.5" font-family="Verdana" font-size="10.00">assert.h</text>
</g>
<!-- Node1&#45;&gt;Node25 -->
<g id="edge86" class="edge"><title>Node1&#45;&gt;Node25</title>
<path fill="none" stroke="midnightblue" d="M619.799,-406.922C635.148,-397.141 654.303,-384.934 669.439,-375.289"/>
<polygon fill="midnightblue" stroke="midnightblue" points="671.722,-377.984 678.275,-369.658 667.96,-372.081 671.722,-377.984"/>
</g>
<!-- Node4 -->
<g id="node7" class="node"><title>Node4</title>
<polygon fill="white" stroke="#bfbfbf" points="693.5,-232.5 693.5,-253.5 756.5,-253.5 756.5,-232.5 693.5,-232.5"/>
<text text-anchor="middle" x="725" y="-240.5" font-family="Verdana" font-size="10.00">pthread.h</text>
</g>
<!-- Node3&#45;&gt;Node4 -->
<g id="edge6" class="edge"><title>Node3&#45;&gt;Node4</title>
<path fill="none" stroke="midnightblue" d="M676.822,-290.362C685.221,-282.104 697.054,-270.472 706.89,-260.803"/>
<polygon fill="midnightblue" stroke="midnightblue" points="709.569,-263.077 714.247,-253.571 704.662,-258.085 709.569,-263.077"/>
</g>
<!-- Node5 -->
<g id="node9" class="node"><title>Node5</title>
<polygon fill="white" stroke="#bfbfbf" points="66,-116.5 66,-137.5 104,-137.5 104,-116.5 66,-116.5"/>
<text text-anchor="middle" x="85" y="-124.5" font-family="Verdana" font-size="10.00">map</text>
</g>
<!-- Node3&#45;&gt;Node5 -->
<g id="edge8" class="edge"><title>Node3&#45;&gt;Node5</title>
<path fill="none" stroke="midnightblue" d="M619.243,-291.353C616.458,-290.87 613.695,-290.415 611,-290 464.307,-267.424 420.687,-298.197 279,-254 206.729,-231.456 135.946,-173.497 103.467,-144.322"/>
<polygon fill="midnightblue" stroke="midnightblue" points="105.805,-141.717 96.0576,-137.564 101.087,-146.889 105.805,-141.717"/>
</g>
<!-- Node6 -->
<g id="node11" class="node"><title>Node6</title>
<polygon fill="white" stroke="#bfbfbf" points="803.5,-0.5 803.5,-21.5 850.5,-21.5 850.5,-0.5 803.5,-0.5"/>
<text text-anchor="middle" x="827" y="-8.5" font-family="Verdana" font-size="10.00">vector</text>
</g>
<!-- Node3&#45;&gt;Node6 -->
<g id="edge10" class="edge"><title>Node3&#45;&gt;Node6</title>
<path fill="none" stroke="midnightblue" d="M712.527,-298.961C819.574,-293.86 1076.43,-279.119 1106,-254 1130.24,-233.405 1125,-216.808 1125,-185 1125,-185 1125,-185 1125,-127 1125,-70.8613 939.022,-31.0267 860.908,-16.7715"/>
<polygon fill="midnightblue" stroke="midnightblue" points="861.093,-13.2489 850.633,-14.9307 859.859,-20.1393 861.093,-13.2489"/>
</g>
<!-- Node7 -->
<g id="node13" class="node"><title>Node7</title>
<polygon fill="white" stroke="#bfbfbf" points="812,-58.5 812,-79.5 842,-79.5 842,-58.5 812,-58.5"/>
<text text-anchor="middle" x="827" y="-66.5" font-family="Verdana" font-size="10.00">list</text>
</g>
<!-- Node3&#45;&gt;Node7 -->
<g id="edge12" class="edge"><title>Node3&#45;&gt;Node7</title>
<path fill="none" stroke="midnightblue" d="M712.598,-291.662C738.639,-284.651 770.482,-272.918 794,-254 817.825,-234.835 822.435,-225.352 831,-196 841.55,-159.845 836.249,-115.426 831.547,-89.8485"/>
<polygon fill="midnightblue" stroke="midnightblue" points="834.936,-88.944 829.552,-79.8189 828.07,-90.3095 834.936,-88.944"/>
</g>
<!-- Node8 -->
<g id="node15" class="node"><title>Node8</title>
<a xlink:href="RemoteCommandHandlerTemplate_8h.html" target="_top" xlink:title="RemoteCommandHandlerTemplate.h">
<polygon fill="white" stroke="black" points="613,-174.5 613,-195.5 807,-195.5 807,-174.5 613,-174.5"/>
<text text-anchor="middle" x="710" y="-182.5" font-family="Verdana" font-size="10.00">RemoteCommandHandlerTemplate.h</text>
</a>
</g>
<!-- Node3&#45;&gt;Node8 -->
<g id="edge14" class="edge"><title>Node3&#45;&gt;Node8</title>
<path fill="none" stroke="midnightblue" d="M668.139,-290.48C671.101,-276.745 677.005,-252.087 685,-232 688.734,-222.619 693.834,-212.685 698.454,-204.378"/>
<polygon fill="midnightblue" stroke="midnightblue" points="701.604,-205.921 703.546,-195.506 695.533,-202.436 701.604,-205.921"/>
</g>
<!-- Node12 -->
<g id="node24" class="node"><title>Node12</title>
<polygon fill="white" stroke="#bfbfbf" points="213,-0.5 213,-21.5 257,-21.5 257,-0.5 213,-0.5"/>
<text text-anchor="middle" x="235" y="-8.5" font-family="Verdana" font-size="10.00">string</text>
</g>
<!-- Node3&#45;&gt;Node12 -->
<g id="edge76" class="edge"><title>Node3&#45;&gt;Node12</title>
<path fill="none" stroke="midnightblue" d="M619.25,-291.305C616.464,-290.834 613.698,-290.394 611,-290 440.513,-265.071 393.024,-292.146 225,-254 138.61,-234.387 38,-273.588 38,-185 38,-185 38,-185 38,-127 38,-51.4937 146.789,-24.1495 202.681,-15.0836"/>
<polygon fill="midnightblue" stroke="midnightblue" points="203.423,-18.5111 212.785,-13.5505 202.373,-11.5903 203.423,-18.5111"/>
</g>
<!-- Node13 -->
<g id="node27" class="node"><title>Node13</title>
<a xlink:href="PathNavigator_8h.html" target="_top" xlink:title="PathNavigator.h">
<polygon fill="white" stroke="black" points="664,-58.5 664,-79.5 756,-79.5 756,-58.5 664,-58.5"/>
<text text-anchor="middle" x="710" y="-66.5" font-family="Verdana" font-size="10.00">PathNavigator.h</text>
</a>
</g>
<!-- Node3&#45;&gt;Node13 -->
<g id="edge28" class="edge"><title>Node3&#45;&gt;Node13</title>
<path fill="none" stroke="midnightblue" d="M699.291,-290.405C737.393,-276.1 796.987,-246.415 816,-196 833.797,-148.808 777.293,-106.597 740.054,-84.7423"/>
<polygon fill="midnightblue" stroke="midnightblue" points="741.482,-81.5286 731.058,-79.6339 738.025,-87.6156 741.482,-81.5286"/>
</g>
<!-- Node14 -->
<g id="node32" class="node"><title>Node14</title>
<a xlink:href="SelectionCriterionType_8h.html" target="_top" xlink:title="SelectionCriterionType.h">
<polygon fill="white" stroke="black" points="180.5,-174.5 180.5,-195.5 311.5,-195.5 311.5,-174.5 180.5,-174.5"/>
<text text-anchor="middle" x="246" y="-182.5" font-family="Verdana" font-size="10.00">SelectionCriterionType.h</text>
</a>
</g>
<!-- Node3&#45;&gt;Node14 -->
<g id="edge36" class="edge"><title>Node3&#45;&gt;Node14</title>
<path fill="none" stroke="midnightblue" d="M619.237,-291.392C616.454,-290.9 613.692,-290.431 611,-290 479.271,-268.903 432.53,-313.245 313,-254 290.026,-242.613 270.506,-220.059 258.563,-203.833"/>
<polygon fill="midnightblue" stroke="midnightblue" points="261.361,-201.729 252.733,-195.58 255.644,-205.767 261.361,-201.729"/>
</g>
<!-- Node15 -->
<g id="node34" class="node"><title>Node15</title>
<a xlink:href="Element_8h.html" target="_top" xlink:title="Element.h">
<polygon fill="white" stroke="black" points="433.5,-116.5 433.5,-137.5 498.5,-137.5 498.5,-116.5 433.5,-116.5"/>
<text text-anchor="middle" x="466" y="-124.5" font-family="Verdana" font-size="10.00">Element.h</text>
</a>
</g>
<!-- Node3&#45;&gt;Node15 -->
<g id="edge70" class="edge"><title>Node3&#45;&gt;Node15</title>
<path fill="none" stroke="midnightblue" d="M660.046,-290.441C646.258,-266.793 609.938,-208.923 566,-174 548.528,-160.113 526.283,-149.141 507.212,-141.303"/>
<polygon fill="midnightblue" stroke="midnightblue" points="508.442,-138.026 497.856,-137.599 505.866,-144.534 508.442,-138.026"/>
</g>
<!-- Node19 -->
<g id="node49" class="node"><title>Node19</title>
<a xlink:href="SelectionCriterion_8h.html" target="_top" xlink:title="SelectionCriterion.h">
<polygon fill="white" stroke="black" points="322,-232.5 322,-253.5 432,-253.5 432,-232.5 322,-232.5"/>
<text text-anchor="middle" x="377" y="-240.5" font-family="Verdana" font-size="10.00">SelectionCriterion.h</text>
</a>
</g>
<!-- Node3&#45;&gt;Node19 -->
<g id="edge60" class="edge"><title>Node3&#45;&gt;Node19</title>
<path fill="none" stroke="midnightblue" d="M619.246,-291.617C570.369,-281.808 493.402,-266.361 439.371,-255.517"/>
<polygon fill="midnightblue" stroke="midnightblue" points="440.055,-252.085 429.562,-253.549 438.677,-258.948 440.055,-252.085"/>
</g>
<!-- Node21 -->
<g id="node57" class="node"><title>Node21</title>
<polygon fill="white" stroke="#bfbfbf" points="900.5,-232.5 900.5,-253.5 983.5,-253.5 983.5,-232.5 900.5,-232.5"/>
<text text-anchor="middle" x="942" y="-240.5" font-family="Verdana" font-size="10.00">XmlDocSink.h</text>
</g>
<!-- Node3&#45;&gt;Node21 -->
<g id="edge72" class="edge"><title>Node3&#45;&gt;Node21</title>
<path fill="none" stroke="midnightblue" d="M712.508,-291.227C761.765,-280.876 839.326,-264.576 890.426,-253.838"/>
<polygon fill="midnightblue" stroke="midnightblue" points="891.211,-257.25 900.277,-251.768 889.771,-250.399 891.211,-257.25"/>
</g>
<!-- Node22 -->
<g id="node59" class="node"><title>Node22</title>
<polygon fill="white" stroke="#bfbfbf" points="1001,-232.5 1001,-253.5 1097,-253.5 1097,-232.5 1001,-232.5"/>
<text text-anchor="middle" x="1049" y="-240.5" font-family="Verdana" font-size="10.00">XmlDocSource.h</text>
</g>
<!-- Node3&#45;&gt;Node22 -->
<g id="edge74" class="edge"><title>Node3&#45;&gt;Node22</title>
<path fill="none" stroke="midnightblue" d="M712.535,-294.998C773.908,-286.925 885.506,-271.709 990.672,-254.168"/>
<polygon fill="midnightblue" stroke="midnightblue" points="991.544,-257.57 1000.83,-252.463 990.386,-250.667 991.544,-257.57"/>
</g>
<!-- Node8&#45;&gt;Node6 -->
<g id="edge16" class="edge"><title>Node8&#45;&gt;Node6</title>
<path fill="none" stroke="midnightblue" d="M736.217,-174.452C769.943,-159.272 827.032,-127.732 851,-80 859.124,-63.8219 850.728,-44.2342 841.708,-30.0683"/>
<polygon fill="midnightblue" stroke="midnightblue" points="844.433,-27.8555 835.858,-21.6326 838.68,-31.8445 844.433,-27.8555"/>
</g>
<!-- Node9 -->
<g id="node18" class="node"><title>Node9</title>
<a xlink:href="RemoteCommandHandler_8h.html" target="_top" xlink:title="RemoteCommandHandler.h">
<polygon fill="white" stroke="black" points="515.5,-116.5 515.5,-137.5 664.5,-137.5 664.5,-116.5 515.5,-116.5"/>
<text text-anchor="middle" x="590" y="-124.5" font-family="Verdana" font-size="10.00">RemoteCommandHandler.h</text>
</a>
</g>
<!-- Node8&#45;&gt;Node9 -->
<g id="edge18" class="edge"><title>Node8&#45;&gt;Node9</title>
<path fill="none" stroke="midnightblue" d="M688.269,-174.497C669.526,-165.438 642.233,-152.246 621.164,-142.063"/>
<polygon fill="midnightblue" stroke="midnightblue" points="622.502,-138.822 611.975,-137.621 619.455,-145.124 622.502,-138.822"/>
</g>
<!-- Node10 -->
<g id="node20" class="node"><title>Node10</title>
<a xlink:href="RemoteCommand_8h.html" target="_top" xlink:title="RemoteCommand.h">
<polygon fill="white" stroke="black" points="533.5,-58.5 533.5,-79.5 646.5,-79.5 646.5,-58.5 533.5,-58.5"/>
<text text-anchor="middle" x="590" y="-66.5" font-family="Verdana" font-size="10.00">RemoteCommand.h</text>
</a>
</g>
<!-- Node9&#45;&gt;Node10 -->
<g id="edge20" class="edge"><title>Node9&#45;&gt;Node10</title>
<path fill="none" stroke="midnightblue" d="M590,-116.362C590,-108.922 590,-98.7427 590,-89.7276"/>
<polygon fill="midnightblue" stroke="midnightblue" points="593.5,-89.5706 590,-79.5707 586.5,-89.5707 593.5,-89.5706"/>
</g>
<!-- Node9&#45;&gt;Node12 -->
<g id="edge26" class="edge"><title>Node9&#45;&gt;Node12</title>
<path fill="none" stroke="midnightblue" d="M571.906,-116.389C545.644,-101.401 495.061,-74.0682 449,-58 386.257,-36.1123 309.492,-22.2104 267.06,-15.5877"/>
<polygon fill="midnightblue" stroke="midnightblue" points="267.454,-12.1075 257.041,-14.0604 266.399,-19.0276 267.454,-12.1075"/>
</g>
<!-- Node11 -->
<g id="node22" class="node"><title>Node11</title>
<polygon fill="white" stroke="#bfbfbf" points="563.5,-0.5 563.5,-21.5 616.5,-21.5 616.5,-0.5 563.5,-0.5"/>
<text text-anchor="middle" x="590" y="-8.5" font-family="Verdana" font-size="10.00">stdint.h</text>
</g>
<!-- Node10&#45;&gt;Node11 -->
<g id="edge22" class="edge"><title>Node10&#45;&gt;Node11</title>
<path fill="none" stroke="midnightblue" d="M590,-58.3619C590,-50.9219 590,-40.7427 590,-31.7276"/>
<polygon fill="midnightblue" stroke="midnightblue" points="593.5,-31.5706 590,-21.5707 586.5,-31.5707 593.5,-31.5706"/>
</g>
<!-- Node10&#45;&gt;Node12 -->
<g id="edge24" class="edge"><title>Node10&#45;&gt;Node12</title>
<path fill="none" stroke="midnightblue" d="M533.357,-59.7456C458.013,-47.4359 327.342,-26.0868 267.105,-16.2453"/>
<polygon fill="midnightblue" stroke="midnightblue" points="267.477,-12.7598 257.043,-14.6015 266.348,-19.6682 267.477,-12.7598"/>
</g>
<!-- Node13&#45;&gt;Node6 -->
<g id="edge30" class="edge"><title>Node13&#45;&gt;Node6</title>
<path fill="none" stroke="midnightblue" d="M731.188,-58.4966C749.462,-49.4378 776.072,-36.2462 796.615,-26.0628"/>
<polygon fill="midnightblue" stroke="midnightblue" points="798.169,-29.1986 805.574,-21.6212 795.06,-22.9269 798.169,-29.1986"/>
</g>
<!-- Node13&#45;&gt;Node11 -->
<g id="edge34" class="edge"><title>Node13&#45;&gt;Node11</title>
<path fill="none" stroke="midnightblue" d="M688.269,-58.4966C669.526,-49.4378 642.233,-36.2462 621.164,-26.0628"/>
<polygon fill="midnightblue" stroke="midnightblue" points="622.502,-22.8217 611.975,-21.6212 619.455,-29.1242 622.502,-22.8217"/>
</g>
<!-- Node13&#45;&gt;Node12 -->
<g id="edge32" class="edge"><title>Node13&#45;&gt;Node12</title>
<path fill="none" stroke="midnightblue" d="M663.838,-59.4683C660.852,-58.9444 657.887,-58.4493 655,-58 511.221,-35.6197 338.151,-19.7083 267.46,-13.6744"/>
<polygon fill="midnightblue" stroke="midnightblue" points="267.66,-10.1789 257.401,-12.8237 267.07,-17.154 267.66,-10.1789"/>
</g>
<!-- Node14&#45;&gt;Node5 -->
<g id="edge54" class="edge"><title>Node14&#45;&gt;Node5</title>
<path fill="none" stroke="midnightblue" d="M216.844,-174.497C187.663,-163.984 143.032,-147.906 113.931,-137.422"/>
<polygon fill="midnightblue" stroke="midnightblue" points="114.93,-134.062 104.335,-133.966 112.557,-140.648 114.93,-134.062"/>
</g>
<!-- Node14&#45;&gt;Node12 -->
<g id="edge56" class="edge"><title>Node14&#45;&gt;Node12</title>
<path fill="none" stroke="midnightblue" d="M201.943,-174.475C182.821,-167.484 162.26,-156.134 151,-138 126.038,-97.7999 177.054,-51.7245 210.001,-27.6451"/>
<polygon fill="midnightblue" stroke="midnightblue" points="212.2,-30.3761 218.333,-21.7367 208.151,-24.666 212.2,-30.3761"/>
</g>
<!-- Node14&#45;&gt;Node15 -->
<g id="edge38" class="edge"><title>Node14&#45;&gt;Node15</title>
<path fill="none" stroke="midnightblue" d="M285.84,-174.497C324.766,-164.235 383.808,-148.669 423.59,-138.181"/>
<polygon fill="midnightblue" stroke="midnightblue" points="424.488,-141.564 433.265,-135.63 422.703,-134.795 424.488,-141.564"/>
</g>
<!-- Node18 -->
<g id="node47" class="node"><title>Node18</title>
<polygon fill="white" stroke="#bfbfbf" points="159.5,-116.5 159.5,-137.5 332.5,-137.5 332.5,-116.5 159.5,-116.5"/>
<text text-anchor="middle" x="246" y="-124.5" font-family="Verdana" font-size="10.00">SelectionCriterionTypeInterface.h</text>
</g>
<!-- Node14&#45;&gt;Node18 -->
<g id="edge58" class="edge"><title>Node14&#45;&gt;Node18</title>
<path fill="none" stroke="midnightblue" d="M246,-174.362C246,-166.922 246,-156.743 246,-147.728"/>
<polygon fill="midnightblue" stroke="midnightblue" points="249.5,-147.571 246,-137.571 242.5,-147.571 249.5,-147.571"/>
</g>
<!-- Node15&#45;&gt;Node6 -->
<g id="edge42" class="edge"><title>Node15&#45;&gt;Node6</title>
<path fill="none" stroke="midnightblue" d="M498.587,-117.868C501.422,-117.192 504.256,-116.557 507,-116 620.461,-92.9555 662.776,-134.356 765,-80 786.634,-68.4967 804.451,-46.296 815.348,-30.1756"/>
<polygon fill="midnightblue" stroke="midnightblue" points="818.457,-31.8133 820.941,-21.5137 812.576,-28.0164 818.457,-31.8133"/>
</g>
<!-- Node15&#45;&gt;Node7 -->
<g id="edge46" class="edge"><title>Node15&#45;&gt;Node7</title>
<path fill="none" stroke="midnightblue" d="M498.578,-117.821C501.415,-117.155 504.251,-116.536 507,-116 634.91,-91.055 671.504,-111.333 798,-80 799.437,-79.644 800.901,-79.2375 802.367,-78.7955"/>
<polygon fill="midnightblue" stroke="midnightblue" points="803.553,-82.0891 811.867,-75.5222 801.272,-75.471 803.553,-82.0891"/>
</g>
<!-- Node15&#45;&gt;Node11 -->
<g id="edge44" class="edge"><title>Node15&#45;&gt;Node11</title>
<path fill="none" stroke="midnightblue" d="M474.075,-116.018C484.825,-101.784 504.835,-76.5873 525,-58 537.195,-46.7596 552.11,-35.8058 564.576,-27.3045"/>
<polygon fill="midnightblue" stroke="midnightblue" points="566.776,-30.0442 573.147,-21.5787 562.887,-24.2237 566.776,-30.0442"/>
</g>
<!-- Node15&#45;&gt;Node12 -->
<g id="edge40" class="edge"><title>Node15&#45;&gt;Node12</title>
<path fill="none" stroke="midnightblue" d="M433.191,-122.269C384.957,-114.78 297.923,-99.0705 273,-80 257.116,-67.846 246.978,-47.0593 241.206,-31.4701"/>
<polygon fill="midnightblue" stroke="midnightblue" points="244.412,-30.0269 237.89,-21.678 237.782,-32.2723 244.412,-30.0269"/>
</g>
<!-- Node15&#45;&gt;Node13 -->
<g id="edge52" class="edge"><title>Node15&#45;&gt;Node13</title>
<path fill="none" stroke="midnightblue" d="M498.647,-118.132C501.469,-117.398 504.283,-116.679 507,-116 556.608,-103.607 613.32,-90.5708 654.168,-81.3802"/>
<polygon fill="midnightblue" stroke="midnightblue" points="654.945,-84.7929 663.936,-79.1877 653.412,-77.9628 654.945,-84.7929"/>
</g>
<!-- Node16 -->
<g id="node40" class="node"><title>Node16</title>
<polygon fill="white" stroke="#bfbfbf" points="282,-58.5 282,-79.5 346,-79.5 346,-58.5 282,-58.5"/>
<text text-anchor="middle" x="314" y="-66.5" font-family="Verdana" font-size="10.00">XmlSink.h</text>
</g>
<!-- Node15&#45;&gt;Node16 -->
<g id="edge48" class="edge"><title>Node15&#45;&gt;Node16</title>
<path fill="none" stroke="midnightblue" d="M438.474,-116.497C414.016,-107.164 378.062,-93.4447 351.076,-83.1475"/>
<polygon fill="midnightblue" stroke="midnightblue" points="352.168,-79.8182 341.578,-79.5231 349.673,-86.3582 352.168,-79.8182"/>
</g>
<!-- Node17 -->
<g id="node42" class="node"><title>Node17</title>
<polygon fill="white" stroke="#bfbfbf" points="363.5,-58.5 363.5,-79.5 440.5,-79.5 440.5,-58.5 363.5,-58.5"/>
<text text-anchor="middle" x="402" y="-66.5" font-family="Verdana" font-size="10.00">XmlSource.h</text>
</g>
<!-- Node15&#45;&gt;Node17 -->
<g id="edge50" class="edge"><title>Node15&#45;&gt;Node17</title>
<path fill="none" stroke="midnightblue" d="M454.261,-116.362C445.059,-108.023 432.06,-96.2418 421.328,-86.5162"/>
<polygon fill="midnightblue" stroke="midnightblue" points="423.424,-83.6924 413.664,-79.5707 418.724,-88.8793 423.424,-83.6924"/>
</g>
<!-- Node19&#45;&gt;Node12 -->
<g id="edge68" class="edge"><title>Node19&#45;&gt;Node12</title>
<path fill="none" stroke="midnightblue" d="M376.999,-232.308C376.422,-208.388 371.741,-149.997 341,-116 311.828,-83.739 278.155,-113.152 250,-80 238.744,-66.7462 235.356,-46.9966 234.573,-32.0184"/>
<polygon fill="midnightblue" stroke="midnightblue" points="238.067,-31.6194 234.395,-21.6812 231.068,-31.7401 238.067,-31.6194"/>
</g>
<!-- Node19&#45;&gt;Node14 -->
<g id="edge64" class="edge"><title>Node19&#45;&gt;Node14</title>
<path fill="none" stroke="midnightblue" d="M353.277,-232.497C332.632,-223.356 302.484,-210.008 279.401,-199.788"/>
<polygon fill="midnightblue" stroke="midnightblue" points="280.55,-196.469 269.989,-195.621 277.716,-202.87 280.55,-196.469"/>
</g>
<!-- Node19&#45;&gt;Node15 -->
<g id="edge62" class="edge"><title>Node19&#45;&gt;Node15</title>
<path fill="none" stroke="midnightblue" d="M377.663,-232.196C379.033,-217.704 383.221,-191.746 396,-174 405.452,-160.874 419.786,-150.323 433.027,-142.569"/>
<polygon fill="midnightblue" stroke="midnightblue" points="434.879,-145.545 441.946,-137.651 431.499,-139.415 434.879,-145.545"/>
</g>
<!-- Node20 -->
<g id="node53" class="node"><title>Node20</title>
<polygon fill="white" stroke="#bfbfbf" points="405,-174.5 405,-195.5 557,-195.5 557,-174.5 405,-174.5"/>
<text text-anchor="middle" x="481" y="-182.5" font-family="Verdana" font-size="10.00">SelectionCriterionInterface.h</text>
</g>
<!-- Node19&#45;&gt;Node20 -->
<g id="edge66" class="edge"><title>Node19&#45;&gt;Node20</title>
<path fill="none" stroke="midnightblue" d="M396.075,-232.362C412.055,-223.45 435.081,-210.609 453.127,-200.545"/>
<polygon fill="midnightblue" stroke="midnightblue" points="455.017,-203.498 462.046,-195.571 451.607,-197.385 455.017,-203.498"/>
</g>
<!-- Node23&#45;&gt;Node3 -->
<g id="edge82" class="edge"><title>Node23&#45;&gt;Node3</title>
<path fill="none" stroke="midnightblue" d="M569.369,-348.497C587.799,-339.438 614.637,-326.246 635.355,-316.063"/>
<polygon fill="midnightblue" stroke="midnightblue" points="636.961,-319.174 644.391,-311.621 633.873,-312.891 636.961,-319.174"/>
</g>
<!-- Node23&#45;&gt;Node12 -->
<g id="edge84" class="edge"><title>Node23&#45;&gt;Node12</title>
<path fill="none" stroke="midnightblue" d="M484.87,-348.928C340.773,-325.511 0,-267.54 0,-243 0,-243 0,-243 0,-127 0,-87.783 22.1239,-79.3808 55,-58 100.909,-28.1434 164.968,-17.2186 202.994,-13.245"/>
<polygon fill="midnightblue" stroke="midnightblue" points="203.367,-16.7254 212.992,-12.2986 202.707,-9.75657 203.367,-16.7254"/>
</g>
<!-- Node24 -->
<g id="node64" class="node"><title>Node24</title>
<polygon fill="white" stroke="#bfbfbf" points="438,-290.5 438,-311.5 602,-311.5 602,-290.5 438,-290.5"/>
<text text-anchor="middle" x="520" y="-298.5" font-family="Verdana" font-size="10.00">ParameterMgrLoggerForward.h</text>
</g>
<!-- Node23&#45;&gt;Node24 -->
<g id="edge80" class="edge"><title>Node23&#45;&gt;Node24</title>
<path fill="none" stroke="midnightblue" d="M542.864,-348.362C539.154,-340.677 534.033,-330.069 529.578,-320.84"/>
<polygon fill="midnightblue" stroke="midnightblue" points="532.603,-319.055 525.103,-311.571 526.299,-322.098 532.603,-319.055"/>
</g>
</g>
</svg>
