<?xml version="1.0" encoding="UTF-8" standalone="no"?>
<!DOCTYPE svg PUBLIC "-//W3C//DTD SVG 1.1//EN"
 "http://www.w3.org/Graphics/SVG/1.1/DTD/svg11.dtd">
<!-- Generated by graphviz version 2.26.3 (20100126.1600)
 -->
<!-- Title: parameter/ParameterFrameworkConfiguration.cpp Pages: 1 -->
<svg width="470pt" height="276pt"
 viewBox="0.00 0.00 470.00 276.00" xmlns="http://www.w3.org/2000/svg" xmlns:xlink="http://www.w3.org/1999/xlink">
<g id="graph1" class="graph" transform="scale(1 1) rotate(0) translate(4 272)">
<title>parameter/ParameterFrameworkConfiguration.cpp</title>
<polygon fill="white" stroke="white" points="-4,5 -4,-272 467,-272 467,5 -4,5"/>
<!-- Node1 -->
<g id="node1" class="node"><title>Node1</title>
<polygon fill="#bfbfbf" stroke="black" points="8.5,-233 8.5,-267 181.5,-267 181.5,-233 8.5,-233"/>
<text text-anchor="start" x="16.5" y="-254" font-family="Verdana" font-size="10.00">parameter/ParameterFramework</text>
<text text-anchor="middle" x="95" y="-241" font-family="Verdana" font-size="10.00">Configuration.cpp</text>
</g>
<!-- Node2 -->
<g id="node3" class="node"><title>Node2</title>
<a xlink:href="ParameterFrameworkConfiguration_8h.html" target="_top" xlink:title="ParameterFrameworkConfiguration.h">
<polygon fill="white" stroke="black" points="-0.5,-174.5 -0.5,-195.5 190.5,-195.5 190.5,-174.5 -0.5,-174.5"/>
<text text-anchor="middle" x="95" y="-182.5" font-family="Verdana" font-size="10.00">ParameterFrameworkConfiguration.h</text>
</a>
</g>
<!-- Node1&#45;&gt;Node2 -->
<g id="edge2" class="edge"><title>Node1&#45;&gt;Node2</title>
<path fill="none" stroke="midnightblue" d="M95,-232.922C95,-224.67 95,-214.692 95,-205.982"/>
<polygon fill="midnightblue" stroke="midnightblue" points="98.5001,-205.852 95,-195.852 91.5001,-205.852 98.5001,-205.852"/>
</g>
<!-- Node3 -->
<g id="node5" class="node"><title>Node3</title>
<a xlink:href="Element_8h.html" target="_top" xlink:title="Element.h">
<polygon fill="white" stroke="black" points="157.5,-116.5 157.5,-137.5 222.5,-137.5 222.5,-116.5 157.5,-116.5"/>
<text text-anchor="middle" x="190" y="-124.5" font-family="Verdana" font-size="10.00">Element.h</text>
</a>
</g>
<!-- Node2&#45;&gt;Node3 -->
<g id="edge4" class="edge"><title>Node2&#45;&gt;Node3</title>
<path fill="none" stroke="midnightblue" d="M112.424,-174.362C126.887,-165.532 147.669,-152.844 164.084,-142.822"/>
<polygon fill="midnightblue" stroke="midnightblue" points="165.975,-145.769 172.686,-137.571 162.327,-139.794 165.975,-145.769"/>
</g>
<!-- Node4 -->
<g id="node7" class="node"><title>Node4</title>
<polygon fill="white" stroke="#bfbfbf" points="16,-0.5 16,-21.5 60,-21.5 60,-0.5 16,-0.5"/>
<text text-anchor="middle" x="38" y="-8.5" font-family="Verdana" font-size="10.00">string</text>
</g>
<!-- Node2&#45;&gt;Node4 -->
<g id="edge26" class="edge"><title>Node2&#45;&gt;Node4</title>
<path fill="none" stroke="midnightblue" d="M87.4874,-174.303C75.1104,-156 50.826,-117.052 41,-80 36.8285,-64.2704 36.2369,-45.8258 36.6018,-31.9658"/>
<polygon fill="midnightblue" stroke="midnightblue" points="40.0984,-32.1194 37.0495,-21.9728 33.1054,-31.8061 40.0984,-32.1194"/>
</g>
<!-- Node3&#45;&gt;Node4 -->
<g id="edge6" class="edge"><title>Node3&#45;&gt;Node4</title>
<path fill="none" stroke="midnightblue" d="M157.47,-123.973C127.291,-119.438 83.2055,-108.135 57,-80 44.802,-66.9039 40.3155,-46.701 38.7243,-31.5346"/>
<polygon fill="midnightblue" stroke="midnightblue" points="42.2151,-31.2788 38.0085,-21.5549 35.233,-31.7797 42.2151,-31.2788"/>
</g>
<!-- Node5 -->
<g id="node9" class="node"><title>Node5</title>
<polygon fill="white" stroke="#bfbfbf" points="323.5,-0.5 323.5,-21.5 370.5,-21.5 370.5,-0.5 323.5,-0.5"/>
<text text-anchor="middle" x="347" y="-8.5" font-family="Verdana" font-size="10.00">vector</text>
</g>
<!-- Node3&#45;&gt;Node5 -->
<g id="edge8" class="edge"><title>Node3&#45;&gt;Node5</title>
<path fill="none" stroke="midnightblue" d="M222.636,-124.195C274.087,-119.021 370.345,-106.042 391,-80 404.278,-63.2595 386.77,-42.3751 370.065,-27.9929"/>
<polygon fill="midnightblue" stroke="midnightblue" points="372.038,-25.086 362.068,-21.5015 367.626,-30.5211 372.038,-25.086"/>
</g>
<!-- Node6 -->
<g id="node11" class="node"><title>Node6</title>
<polygon fill="white" stroke="#bfbfbf" points="409.5,-0.5 409.5,-21.5 462.5,-21.5 462.5,-0.5 409.5,-0.5"/>
<text text-anchor="middle" x="436" y="-8.5" font-family="Verdana" font-size="10.00">stdint.h</text>
</g>
<!-- Node3&#45;&gt;Node6 -->
<g id="edge10" class="edge"><title>Node3&#45;&gt;Node6</title>
<path fill="none" stroke="midnightblue" d="M222.753,-123.616C276.266,-117.492 379.275,-103.028 407,-80 421.479,-67.9745 428.857,-47.4683 432.535,-31.9278"/>
<polygon fill="midnightblue" stroke="midnightblue" points="436.055,-32.1772 434.607,-21.6818 429.194,-30.7893 436.055,-32.1772"/>
</g>
<!-- Node7 -->
<g id="node13" class="node"><title>Node7</title>
<polygon fill="white" stroke="#bfbfbf" points="66,-58.5 66,-79.5 96,-79.5 96,-58.5 66,-58.5"/>
<text text-anchor="middle" x="81" y="-66.5" font-family="Verdana" font-size="10.00">list</text>
</g>
<!-- Node3&#45;&gt;Node7 -->
<g id="edge12" class="edge"><title>Node3&#45;&gt;Node7</title>
<path fill="none" stroke="midnightblue" d="M170.261,-116.497C151.914,-106.734 124.546,-92.1712 104.955,-81.7468"/>
<polygon fill="midnightblue" stroke="midnightblue" points="106.508,-78.6086 96.0362,-77.0009 103.22,-84.7882 106.508,-78.6086"/>
</g>
<!-- Node8 -->
<g id="node15" class="node"><title>Node8</title>
<polygon fill="white" stroke="#bfbfbf" points="114,-58.5 114,-79.5 178,-79.5 178,-58.5 114,-58.5"/>
<text text-anchor="middle" x="146" y="-66.5" font-family="Verdana" font-size="10.00">XmlSink.h</text>
</g>
<!-- Node3&#45;&gt;Node8 -->
<g id="edge14" class="edge"><title>Node3&#45;&gt;Node8</title>
<path fill="none" stroke="midnightblue" d="M181.93,-116.362C175.851,-108.35 167.363,-97.1605 160.163,-87.6696"/>
<polygon fill="midnightblue" stroke="midnightblue" points="162.851,-85.4222 154.019,-79.5707 157.275,-89.653 162.851,-85.4222"/>
</g>
<!-- Node9 -->
<g id="node17" class="node"><title>Node9</title>
<polygon fill="white" stroke="#bfbfbf" points="195.5,-58.5 195.5,-79.5 272.5,-79.5 272.5,-58.5 195.5,-58.5"/>
<text text-anchor="middle" x="234" y="-66.5" font-family="Verdana" font-size="10.00">XmlSource.h</text>
</g>
<!-- Node3&#45;&gt;Node9 -->
<g id="edge16" class="edge"><title>Node3&#45;&gt;Node9</title>
<path fill="none" stroke="midnightblue" d="M198.07,-116.362C204.149,-108.35 212.637,-97.1605 219.837,-87.6696"/>
<polygon fill="midnightblue" stroke="midnightblue" points="222.725,-89.653 225.981,-79.5707 217.149,-85.4222 222.725,-89.653"/>
</g>
<!-- Node10 -->
<g id="node19" class="node"><title>Node10</title>
<a xlink:href="PathNavigator_8h.html" target="_top" xlink:title="PathNavigator.h">
<polygon fill="white" stroke="black" points="290,-58.5 290,-79.5 382,-79.5 382,-58.5 290,-58.5"/>
<text text-anchor="middle" x="336" y="-66.5" font-family="Verdana" font-size="10.00">PathNavigator.h</text>
</a>
</g>
<!-- Node3&#45;&gt;Node10 -->
<g id="edge18" class="edge"><title>Node3&#45;&gt;Node10</title>
<path fill="none" stroke="midnightblue" d="M216.439,-116.497C239.756,-107.234 273.95,-93.6499 299.804,-83.3793"/>
<polygon fill="midnightblue" stroke="midnightblue" points="301.263,-86.566 309.264,-79.6212 298.678,-80.0605 301.263,-86.566"/>
</g>
<!-- Node10&#45;&gt;Node4 -->
<g id="edge22" class="edge"><title>Node10&#45;&gt;Node4</title>
<path fill="none" stroke="midnightblue" d="M289.791,-59.7361C286.816,-59.1466 283.866,-58.5638 281,-58 205.509,-43.1504 116.744,-26.081 70.2034,-17.1613"/>
<polygon fill="midnightblue" stroke="midnightblue" points="70.6023,-13.6742 60.1224,-15.2302 69.2853,-20.5492 70.6023,-13.6742"/>
</g>
<!-- Node10&#45;&gt;Node5 -->
<g id="edge20" class="edge"><title>Node10&#45;&gt;Node5</title>
<path fill="none" stroke="midnightblue" d="M338.018,-58.3619C339.444,-50.8401 341.402,-40.5187 343.125,-31.4308"/>
<polygon fill="midnightblue" stroke="midnightblue" points="346.571,-32.0477 344.995,-21.5707 339.693,-30.7433 346.571,-32.0477"/>
</g>
<!-- Node10&#45;&gt;Node6 -->
<g id="edge24" class="edge"><title>Node10&#45;&gt;Node6</title>
<path fill="none" stroke="midnightblue" d="M354.342,-58.3619C369.566,-49.532 391.441,-36.844 408.72,-26.8224"/>
<polygon fill="midnightblue" stroke="midnightblue" points="410.88,-29.6155 417.775,-21.5707 407.368,-23.5603 410.88,-29.6155"/>
</g>
</g>
</svg>
