<?xml version="1.0" encoding="UTF-8" standalone="no"?>
<!DOCTYPE svg PUBLIC "-//W3C//DTD SVG 1.1//EN"
 "http://www.w3.org/Graphics/SVG/1.1/DTD/svg11.dtd">
<!-- Generated by graphviz version 2.26.3 (20100126.1600)
 -->
<!-- Title: parameter/ParameterType.cpp Pages: 1 -->
<svg width="972pt" height="552pt"
 viewBox="0.00 0.00 972.00 552.00" xmlns="http://www.w3.org/2000/svg" xmlns:xlink="http://www.w3.org/1999/xlink">
<g id="graph1" class="graph" transform="scale(1 1) rotate(0) translate(4 548)">
<title>parameter/ParameterType.cpp</title>
<polygon fill="white" stroke="white" points="-4,5 -4,-548 969,-548 969,5 -4,5"/>
<!-- Node1 -->
<g id="node1" class="node"><title>Node1</title>
<polygon fill="#bfbfbf" stroke="black" points="652,-522.5 652,-543.5 814,-543.5 814,-522.5 652,-522.5"/>
<text text-anchor="middle" x="733" y="-530.5" font-family="Verdana" font-size="10.00">parameter/ParameterType.cpp</text>
</g>
<!-- Node2 -->
<g id="node3" class="node"><title>Node2</title>
<a xlink:href="ParameterType_8h.html" target="_top" xlink:title="ParameterType.h">
<polygon fill="white" stroke="black" points="654.5,-232.5 654.5,-253.5 751.5,-253.5 751.5,-232.5 654.5,-232.5"/>
<text text-anchor="middle" x="703" y="-240.5" font-family="Verdana" font-size="10.00">ParameterType.h</text>
</a>
</g>
<!-- Node1&#45;&gt;Node2 -->
<g id="edge2" class="edge"><title>Node1&#45;&gt;Node2</title>
<path fill="none" stroke="midnightblue" d="M735.969,-522.222C741.312,-501.841 752,-456.182 752,-417 752,-417 752,-417 752,-359 752,-322.463 731.117,-284.193 716.617,-262.025"/>
<polygon fill="midnightblue" stroke="midnightblue" points="719.385,-259.87 710.873,-253.562 713.593,-263.801 719.385,-259.87"/>
</g>
<!-- Node13 -->
<g id="node31" class="node"><title>Node13</title>
<a xlink:href="Parameter_8h.html" target="_top" xlink:title="Parameter.h">
<polygon fill="white" stroke="black" points="598.5,-406.5 598.5,-427.5 673.5,-427.5 673.5,-406.5 598.5,-406.5"/>
<text text-anchor="middle" x="636" y="-414.5" font-family="Verdana" font-size="10.00">Parameter.h</text>
</a>
</g>
<!-- Node1&#45;&gt;Node13 -->
<g id="edge36" class="edge"><title>Node1&#45;&gt;Node13</title>
<path fill="none" stroke="midnightblue" d="M728.733,-522.386C722.661,-508.112 710.52,-482.397 695,-464 685.243,-452.434 672.274,-441.734 660.981,-433.474"/>
<polygon fill="midnightblue" stroke="midnightblue" points="662.939,-430.572 652.752,-427.66 658.899,-436.289 662.939,-430.572"/>
</g>
<!-- Node18 -->
<g id="node51" class="node"><title>Node18</title>
<a xlink:href="ArrayParameter_8h.html" target="_top" xlink:title="ArrayParameter.h">
<polygon fill="white" stroke="black" points="585.5,-464.5 585.5,-485.5 686.5,-485.5 686.5,-464.5 585.5,-464.5"/>
<text text-anchor="middle" x="636" y="-472.5" font-family="Verdana" font-size="10.00">ArrayParameter.h</text>
</a>
</g>
<!-- Node1&#45;&gt;Node18 -->
<g id="edge66" class="edge"><title>Node1&#45;&gt;Node18</title>
<path fill="none" stroke="midnightblue" d="M715.209,-522.362C700.441,-513.532 679.222,-500.844 662.462,-490.822"/>
<polygon fill="midnightblue" stroke="midnightblue" points="664.057,-487.699 653.679,-485.571 660.465,-493.707 664.057,-487.699"/>
</g>
<!-- Node19 -->
<g id="node54" class="node"><title>Node19</title>
<a xlink:href="ParameterAccessContext_8h.html" target="_top" xlink:title="ParameterAccessContext.h">
<polygon fill="white" stroke="black" points="817.5,-116.5 817.5,-137.5 964.5,-137.5 964.5,-116.5 817.5,-116.5"/>
<text text-anchor="middle" x="891" y="-124.5" font-family="Verdana" font-size="10.00">ParameterAccessContext.h</text>
</a>
</g>
<!-- Node1&#45;&gt;Node19 -->
<g id="edge70" class="edge"><title>Node1&#45;&gt;Node19</title>
<path fill="none" stroke="midnightblue" d="M760.03,-522.413C797.053,-505.929 859,-470.372 859,-417 859,-417 859,-417 859,-243 859,-208.216 872.536,-169.61 882.001,-146.867"/>
<polygon fill="midnightblue" stroke="midnightblue" points="885.25,-148.172 886,-137.604 878.823,-145.398 885.25,-148.172"/>
</g>
<!-- Node3 -->
<g id="node5" class="node"><title>Node3</title>
<polygon fill="white" stroke="#bfbfbf" points="352.5,-0.5 352.5,-21.5 405.5,-21.5 405.5,-0.5 352.5,-0.5"/>
<text text-anchor="middle" x="379" y="-8.5" font-family="Verdana" font-size="10.00">stdint.h</text>
</g>
<!-- Node2&#45;&gt;Node3 -->
<g id="edge4" class="edge"><title>Node2&#45;&gt;Node3</title>
<path fill="none" stroke="midnightblue" d="M694.011,-232.215C667.463,-200.996 585.877,-109.497 500,-58 473.33,-42.0074 440.256,-29.6 415.431,-21.5593"/>
<polygon fill="midnightblue" stroke="midnightblue" points="416.267,-18.1533 405.677,-18.4866 414.163,-24.8298 416.267,-18.1533"/>
</g>
<!-- Node4 -->
<g id="node7" class="node"><title>Node4</title>
<polygon fill="white" stroke="#bfbfbf" points="682,-174.5 682,-195.5 724,-195.5 724,-174.5 682,-174.5"/>
<text text-anchor="middle" x="703" y="-182.5" font-family="Verdana" font-size="10.00">limits</text>
</g>
<!-- Node2&#45;&gt;Node4 -->
<g id="edge6" class="edge"><title>Node2&#45;&gt;Node4</title>
<path fill="none" stroke="midnightblue" d="M703,-232.362C703,-224.922 703,-214.743 703,-205.728"/>
<polygon fill="midnightblue" stroke="midnightblue" points="706.5,-205.571 703,-195.571 699.5,-205.571 706.5,-205.571"/>
</g>
<!-- Node5 -->
<g id="node9" class="node"><title>Node5</title>
<a xlink:href="TypeElement_8h.html" target="_top" xlink:title="TypeElement.h">
<polygon fill="white" stroke="black" points="540,-174.5 540,-195.5 626,-195.5 626,-174.5 540,-174.5"/>
<text text-anchor="middle" x="583" y="-182.5" font-family="Verdana" font-size="10.00">TypeElement.h</text>
</a>
</g>
<!-- Node2&#45;&gt;Node5 -->
<g id="edge8" class="edge"><title>Node2&#45;&gt;Node5</title>
<path fill="none" stroke="midnightblue" d="M681.269,-232.497C662.526,-223.438 635.233,-210.246 614.164,-200.063"/>
<polygon fill="midnightblue" stroke="midnightblue" points="615.502,-196.822 604.975,-195.621 612.455,-203.124 615.502,-196.822"/>
</g>
<!-- Node7 -->
<g id="node13" class="node"><title>Node7</title>
<polygon fill="white" stroke="#bfbfbf" points="692,-0.5 692,-21.5 736,-21.5 736,-0.5 692,-0.5"/>
<text text-anchor="middle" x="714" y="-8.5" font-family="Verdana" font-size="10.00">string</text>
</g>
<!-- Node2&#45;&gt;Node7 -->
<g id="edge34" class="edge"><title>Node2&#45;&gt;Node7</title>
<path fill="none" stroke="midnightblue" d="M712.369,-232.306C719.585,-223.313 728.985,-209.753 733,-196 749.901,-138.109 732.024,-66.2097 721.122,-31.5624"/>
<polygon fill="midnightblue" stroke="midnightblue" points="724.325,-30.0968 717.88,-21.6873 717.674,-32.2801 724.325,-30.0968"/>
</g>
<!-- Node6 -->
<g id="node11" class="node"><title>Node6</title>
<a xlink:href="Element_8h.html" target="_top" xlink:title="Element.h">
<polygon fill="white" stroke="black" points="317.5,-116.5 317.5,-137.5 382.5,-137.5 382.5,-116.5 317.5,-116.5"/>
<text text-anchor="middle" x="350" y="-124.5" font-family="Verdana" font-size="10.00">Element.h</text>
</a>
</g>
<!-- Node5&#45;&gt;Node6 -->
<g id="edge10" class="edge"><title>Node5&#45;&gt;Node6</title>
<path fill="none" stroke="midnightblue" d="M540.805,-174.497C498.887,-164.062 434.94,-148.144 392.808,-137.656"/>
<polygon fill="midnightblue" stroke="midnightblue" points="393.406,-134.198 382.856,-135.179 391.715,-140.991 393.406,-134.198"/>
</g>
<!-- Node5&#45;&gt;Node7 -->
<g id="edge32" class="edge"><title>Node5&#45;&gt;Node7</title>
<path fill="none" stroke="midnightblue" d="M597.635,-174.409C620.513,-157.127 664.736,-120.683 690,-80 699.278,-65.0604 705.546,-46.0624 709.343,-31.7849"/>
<polygon fill="midnightblue" stroke="midnightblue" points="712.776,-32.4797 711.774,-21.9324 705.98,-30.8028 712.776,-32.4797"/>
</g>
<!-- Node6&#45;&gt;Node3 -->
<g id="edge16" class="edge"><title>Node6&#45;&gt;Node3</title>
<path fill="none" stroke="midnightblue" d="M329.443,-116.425C307.402,-103.598 277.302,-80.8448 291,-58 302.225,-39.2785 323.726,-27.5992 342.665,-20.5658"/>
<polygon fill="midnightblue" stroke="midnightblue" points="343.927,-23.8333 352.267,-17.2985 341.673,-17.2064 343.927,-23.8333"/>
</g>
<!-- Node6&#45;&gt;Node7 -->
<g id="edge12" class="edge"><title>Node6&#45;&gt;Node7</title>
<path fill="none" stroke="midnightblue" d="M382.623,-116.604C452.002,-94.4937 613.456,-43.0414 682.148,-21.1507"/>
<polygon fill="midnightblue" stroke="midnightblue" points="683.503,-24.3923 691.968,-18.0211 681.378,-17.7228 683.503,-24.3923"/>
</g>
<!-- Node8 -->
<g id="node15" class="node"><title>Node8</title>
<polygon fill="white" stroke="#bfbfbf" points="100.5,-0.5 100.5,-21.5 147.5,-21.5 147.5,-0.5 100.5,-0.5"/>
<text text-anchor="middle" x="124" y="-8.5" font-family="Verdana" font-size="10.00">vector</text>
</g>
<!-- Node6&#45;&gt;Node8 -->
<g id="edge14" class="edge"><title>Node6&#45;&gt;Node8</title>
<path fill="none" stroke="midnightblue" d="M317.346,-119.129C312.864,-118.067 308.32,-116.999 304,-116 232.564,-99.4731 196.094,-130.569 143,-80 129.968,-67.588 125.601,-47.1327 124.265,-31.7092"/>
<polygon fill="midnightblue" stroke="midnightblue" points="127.752,-31.3637 123.747,-21.5548 120.761,-31.72 127.752,-31.3637"/>
</g>
<!-- Node9 -->
<g id="node18" class="node"><title>Node9</title>
<polygon fill="white" stroke="#bfbfbf" points="66,-58.5 66,-79.5 96,-79.5 96,-58.5 66,-58.5"/>
<text text-anchor="middle" x="81" y="-66.5" font-family="Verdana" font-size="10.00">list</text>
</g>
<!-- Node6&#45;&gt;Node9 -->
<g id="edge18" class="edge"><title>Node6&#45;&gt;Node9</title>
<path fill="none" stroke="midnightblue" d="M317.379,-118.981C312.892,-117.942 308.338,-116.92 304,-116 218.216,-97.7964 194.446,-103.645 110,-80 108.574,-79.6007 107.12,-79.1603 105.66,-78.6922"/>
<polygon fill="midnightblue" stroke="midnightblue" points="106.775,-75.3742 96.1802,-75.3435 104.443,-81.9745 106.775,-75.3742"/>
</g>
<!-- Node10 -->
<g id="node20" class="node"><title>Node10</title>
<polygon fill="white" stroke="#bfbfbf" points="300,-58.5 300,-79.5 364,-79.5 364,-58.5 300,-58.5"/>
<text text-anchor="middle" x="332" y="-66.5" font-family="Verdana" font-size="10.00">XmlSink.h</text>
</g>
<!-- Node6&#45;&gt;Node10 -->
<g id="edge20" class="edge"><title>Node6&#45;&gt;Node10</title>
<path fill="none" stroke="midnightblue" d="M346.699,-116.362C344.339,-108.758 341.091,-98.294 338.249,-89.1349"/>
<polygon fill="midnightblue" stroke="midnightblue" points="341.587,-88.0839 335.281,-79.5707 334.902,-90.1587 341.587,-88.0839"/>
</g>
<!-- Node11 -->
<g id="node22" class="node"><title>Node11</title>
<polygon fill="white" stroke="#bfbfbf" points="381.5,-58.5 381.5,-79.5 458.5,-79.5 458.5,-58.5 381.5,-58.5"/>
<text text-anchor="middle" x="420" y="-66.5" font-family="Verdana" font-size="10.00">XmlSource.h</text>
</g>
<!-- Node6&#45;&gt;Node11 -->
<g id="edge22" class="edge"><title>Node6&#45;&gt;Node11</title>
<path fill="none" stroke="midnightblue" d="M362.839,-116.362C373.002,-107.941 387.401,-96.0105 399.204,-86.2308"/>
<polygon fill="midnightblue" stroke="midnightblue" points="401.775,-88.6459 407.242,-79.5707 397.309,-83.2558 401.775,-88.6459"/>
</g>
<!-- Node12 -->
<g id="node24" class="node"><title>Node12</title>
<a xlink:href="PathNavigator_8h.html" target="_top" xlink:title="PathNavigator.h">
<polygon fill="white" stroke="black" points="152,-58.5 152,-79.5 244,-79.5 244,-58.5 152,-58.5"/>
<text text-anchor="middle" x="198" y="-66.5" font-family="Verdana" font-size="10.00">PathNavigator.h</text>
</a>
</g>
<!-- Node6&#45;&gt;Node12 -->
<g id="edge24" class="edge"><title>Node6&#45;&gt;Node12</title>
<path fill="none" stroke="midnightblue" d="M322.474,-116.497C298.016,-107.164 262.062,-93.4447 235.076,-83.1475"/>
<polygon fill="midnightblue" stroke="midnightblue" points="236.168,-79.8182 225.578,-79.5231 233.673,-86.3582 236.168,-79.8182"/>
</g>
<!-- Node12&#45;&gt;Node3 -->
<g id="edge30" class="edge"><title>Node12&#45;&gt;Node3</title>
<path fill="none" stroke="midnightblue" d="M230.778,-58.4966C262.352,-48.3789 310.015,-33.1057 342.718,-22.6264"/>
<polygon fill="midnightblue" stroke="midnightblue" points="343.897,-25.9238 352.352,-19.5391 341.761,-19.2577 343.897,-25.9238"/>
</g>
<!-- Node12&#45;&gt;Node7 -->
<g id="edge28" class="edge"><title>Node12&#45;&gt;Node7</title>
<path fill="none" stroke="midnightblue" d="M244.351,-63.4522C259.245,-61.6871 275.817,-59.7414 291,-58 436.932,-41.2625 611.296,-22.1779 681.935,-14.4845"/>
<polygon fill="midnightblue" stroke="midnightblue" points="682.413,-17.9532 691.976,-13.3916 681.656,-10.9943 682.413,-17.9532"/>
</g>
<!-- Node12&#45;&gt;Node8 -->
<g id="edge26" class="edge"><title>Node12&#45;&gt;Node8</title>
<path fill="none" stroke="midnightblue" d="M184.427,-58.3619C173.579,-49.859 158.166,-37.7785 145.621,-27.9466"/>
<polygon fill="midnightblue" stroke="midnightblue" points="147.516,-24.9848 137.487,-21.5707 143.198,-30.4942 147.516,-24.9848"/>
</g>
<!-- Node13&#45;&gt;Node3 -->
<g id="edge38" class="edge"><title>Node13&#45;&gt;Node3</title>
<path fill="none" stroke="midnightblue" d="M598.402,-410.354C519.171,-395.579 339.043,-357.678 299,-312 275.38,-285.055 267.363,-260.562 289,-232 324.685,-184.894 372.532,-234.922 417,-196 459.244,-159.024 455.655,-134.983 467,-80 468.976,-70.424 472.028,-66.3859 467,-58 455.775,-39.2785 434.274,-27.5992 415.335,-20.5658"/>
<polygon fill="midnightblue" stroke="midnightblue" points="416.327,-17.2064 405.733,-17.2985 414.073,-23.8333 416.327,-17.2064"/>
</g>
<!-- Node13&#45;&gt;Node7 -->
<g id="edge64" class="edge"><title>Node13&#45;&gt;Node7</title>
<path fill="none" stroke="midnightblue" d="M656.45,-406.376C698.341,-382.976 790,-322.673 790,-243 790,-243 790,-243 790,-127 790,-86.5104 757.203,-49.1585 734.698,-28.2949"/>
<polygon fill="midnightblue" stroke="midnightblue" points="737.026,-25.681 727.238,-21.6247 732.36,-30.8993 737.026,-25.681"/>
</g>
<!-- Node14 -->
<g id="node34" class="node"><title>Node14</title>
<a xlink:href="BaseParameter_8h.html" target="_top" xlink:title="BaseParameter.h">
<polygon fill="white" stroke="black" points="46.5,-348.5 46.5,-369.5 145.5,-369.5 145.5,-348.5 46.5,-348.5"/>
<text text-anchor="middle" x="96" y="-356.5" font-family="Verdana" font-size="10.00">BaseParameter.h</text>
</a>
</g>
<!-- Node13&#45;&gt;Node14 -->
<g id="edge40" class="edge"><title>Node13&#45;&gt;Node14</title>
<path fill="none" stroke="midnightblue" d="M598.457,-412.968C506.261,-403.065 268.093,-377.484 156.003,-365.445"/>
<polygon fill="midnightblue" stroke="midnightblue" points="156.199,-361.946 145.882,-364.358 155.451,-368.906 156.199,-361.946"/>
</g>
<!-- Node14&#45;&gt;Node3 -->
<g id="edge42" class="edge"><title>Node14&#45;&gt;Node3</title>
<path fill="none" stroke="midnightblue" d="M86.4225,-348.375C69.9489,-328.956 38,-285.78 38,-243 38,-243 38,-243 38,-127 38,-95.1919 33.1604,-79.0577 57,-58 78.1478,-39.32 262.39,-21.1719 342.292,-14.1019"/>
<polygon fill="midnightblue" stroke="midnightblue" points="342.743,-17.5759 352.4,-13.2175 342.133,-10.6026 342.743,-17.5759"/>
</g>
<!-- Node14&#45;&gt;Node8 -->
<g id="edge44" class="edge"><title>Node14&#45;&gt;Node8</title>
<path fill="none" stroke="midnightblue" d="M71.9564,-348.418C56.3313,-340.438 36.5968,-328.111 24,-312 4.00053,-286.422 0,-275.469 0,-243 0,-243 0,-243 0,-127 0,-94.5312 2.27299,-82.128 24,-58 41.509,-38.5562 68.7484,-26.4895 90.3789,-19.4585"/>
<polygon fill="midnightblue" stroke="midnightblue" points="91.6195,-22.7397 100.173,-16.4876 89.5875,-16.0411 91.6195,-22.7397"/>
</g>
<!-- Node15 -->
<g id="node38" class="node"><title>Node15</title>
<a xlink:href="InstanceConfigurableElement_8h.html" target="_top" xlink:title="InstanceConfigurableElement.h">
<polygon fill="white" stroke="black" points="308,-290.5 308,-311.5 474,-311.5 474,-290.5 308,-290.5"/>
<text text-anchor="middle" x="391" y="-298.5" font-family="Verdana" font-size="10.00">InstanceConfigurableElement.h</text>
</a>
</g>
<!-- Node14&#45;&gt;Node15 -->
<g id="edge46" class="edge"><title>Node14&#45;&gt;Node15</title>
<path fill="none" stroke="midnightblue" d="M145.709,-349.227C195.794,-339.379 273.258,-324.149 327.704,-313.445"/>
<polygon fill="midnightblue" stroke="midnightblue" points="328.454,-316.864 337.591,-311.501 327.104,-309.996 328.454,-316.864"/>
</g>
<!-- Node15&#45;&gt;Node5 -->
<g id="edge58" class="edge"><title>Node15&#45;&gt;Node5</title>
<path fill="none" stroke="midnightblue" d="M441.512,-290.413C468.273,-283.147 500.736,-271.571 526,-254 544.909,-240.849 561.031,-219.793 571.254,-204.396"/>
<polygon fill="midnightblue" stroke="midnightblue" points="574.399,-205.974 576.829,-195.662 568.498,-202.208 574.399,-205.974"/>
</g>
<!-- Node15&#45;&gt;Node7 -->
<g id="edge62" class="edge"><title>Node15&#45;&gt;Node7</title>
<path fill="none" stroke="midnightblue" d="M429.182,-290.485C450.148,-283.11 475.389,-271.407 493,-254 520.996,-226.329 506.661,-204.936 531,-174 551.515,-147.924 622.511,-102.386 647,-80 664.926,-63.6136 684.111,-43.5731 697.337,-29.3207"/>
<polygon fill="midnightblue" stroke="midnightblue" points="700.183,-31.3969 704.382,-21.6694 695.033,-26.6556 700.183,-31.3969"/>
</g>
<!-- Node15&#45;&gt;Node9 -->
<g id="edge60" class="edge"><title>Node15&#45;&gt;Node9</title>
<path fill="none" stroke="midnightblue" d="M362.117,-290.358C341.018,-281.961 312.169,-269.158 289,-254 210.751,-202.805 131.964,-123.316 98.153,-87.5479"/>
<polygon fill="midnightblue" stroke="midnightblue" points="100.305,-84.7262 90.9117,-79.8256 95.1988,-89.5144 100.305,-84.7262"/>
</g>
<!-- Node16 -->
<g id="node40" class="node"><title>Node16</title>
<a xlink:href="ConfigurableElementWithMapping_8h.html" target="_top" xlink:title="ConfigurableElementWithMapping.h">
<polygon fill="white" stroke="black" points="298,-232.5 298,-253.5 484,-253.5 484,-232.5 298,-232.5"/>
<text text-anchor="middle" x="391" y="-240.5" font-family="Verdana" font-size="10.00">ConfigurableElementWithMapping.h</text>
</a>
</g>
<!-- Node15&#45;&gt;Node16 -->
<g id="edge48" class="edge"><title>Node15&#45;&gt;Node16</title>
<path fill="none" stroke="midnightblue" d="M391,-290.362C391,-282.922 391,-272.743 391,-263.728"/>
<polygon fill="midnightblue" stroke="midnightblue" points="394.5,-263.571 391,-253.571 387.5,-263.571 394.5,-263.571"/>
</g>
<!-- Node16&#45;&gt;Node7 -->
<g id="edge56" class="edge"><title>Node16&#45;&gt;Node7</title>
<path fill="none" stroke="midnightblue" d="M405.718,-232.429C457.004,-195.591 628.125,-72.6815 690.767,-27.6871"/>
<polygon fill="midnightblue" stroke="midnightblue" points="693.115,-30.31 699.196,-21.6335 689.032,-24.6246 693.115,-30.31"/>
</g>
<!-- Node17 -->
<g id="node42" class="node"><title>Node17</title>
<a xlink:href="ConfigurableElement_8h.html" target="_top" xlink:title="ConfigurableElement.h">
<polygon fill="white" stroke="black" points="283.5,-174.5 283.5,-195.5 408.5,-195.5 408.5,-174.5 283.5,-174.5"/>
<text text-anchor="middle" x="346" y="-182.5" font-family="Verdana" font-size="10.00">ConfigurableElement.h</text>
</a>
</g>
<!-- Node16&#45;&gt;Node17 -->
<g id="edge50" class="edge"><title>Node16&#45;&gt;Node17</title>
<path fill="none" stroke="midnightblue" d="M382.746,-232.362C376.53,-224.35 367.849,-213.161 360.485,-203.67"/>
<polygon fill="midnightblue" stroke="midnightblue" points="363.097,-201.326 354.201,-195.571 357.566,-205.617 363.097,-201.326"/>
</g>
<!-- Node17&#45;&gt;Node6 -->
<g id="edge52" class="edge"><title>Node17&#45;&gt;Node6</title>
<path fill="none" stroke="midnightblue" d="M346.734,-174.362C347.247,-166.922 347.949,-156.743 348.571,-147.728"/>
<polygon fill="midnightblue" stroke="midnightblue" points="352.075,-147.788 349.271,-137.571 345.091,-147.306 352.075,-147.788"/>
</g>
<!-- Node17&#45;&gt;Node9 -->
<g id="edge54" class="edge"><title>Node17&#45;&gt;Node9</title>
<path fill="none" stroke="midnightblue" d="M336.776,-174.4C322.936,-159.169 295.28,-131.253 266,-116 262.398,-114.123 155.749,-87.5404 106.046,-75.2052"/>
<polygon fill="midnightblue" stroke="midnightblue" points="106.637,-71.7458 96.0884,-72.7355 104.952,-78.5399 106.637,-71.7458"/>
</g>
<!-- Node18&#45;&gt;Node13 -->
<g id="edge68" class="edge"><title>Node18&#45;&gt;Node13</title>
<path fill="none" stroke="midnightblue" d="M636,-464.362C636,-456.922 636,-446.743 636,-437.728"/>
<polygon fill="midnightblue" stroke="midnightblue" points="639.5,-437.571 636,-427.571 632.5,-437.571 639.5,-437.571"/>
</g>
<!-- Node19&#45;&gt;Node3 -->
<g id="edge72" class="edge"><title>Node19&#45;&gt;Node3</title>
<path fill="none" stroke="midnightblue" d="M844.206,-116.398C743.183,-93.5103 506.458,-39.8773 415.495,-19.2684"/>
<polygon fill="midnightblue" stroke="midnightblue" points="416.17,-15.8327 405.644,-17.0364 414.623,-22.6596 416.17,-15.8327"/>
</g>
<!-- Node19&#45;&gt;Node7 -->
<g id="edge78" class="edge"><title>Node19&#45;&gt;Node7</title>
<path fill="none" stroke="midnightblue" d="M879.159,-116.41C862.906,-102.162 832.456,-76.4773 804,-58 785.289,-45.8506 763.081,-34.2265 745.408,-25.578"/>
<polygon fill="midnightblue" stroke="midnightblue" points="746.634,-22.2839 736.107,-21.0949 743.595,-28.5897 746.634,-22.2839"/>
</g>
<!-- Node20 -->
<g id="node57" class="node"><title>Node20</title>
<a xlink:href="ErrorContext_8h.html" target="_top" xlink:title="ErrorContext.h">
<polygon fill="white" stroke="black" points="856,-58.5 856,-79.5 942,-79.5 942,-58.5 856,-58.5"/>
<text text-anchor="middle" x="899" y="-66.5" font-family="Verdana" font-size="10.00">ErrorContext.h</text>
</a>
</g>
<!-- Node19&#45;&gt;Node20 -->
<g id="edge74" class="edge"><title>Node19&#45;&gt;Node20</title>
<path fill="none" stroke="midnightblue" d="M892.467,-116.362C893.494,-108.922 894.898,-98.7427 896.141,-89.7276"/>
<polygon fill="midnightblue" stroke="midnightblue" points="899.643,-89.9551 897.542,-79.5707 892.708,-88.9986 899.643,-89.9551"/>
</g>
<!-- Node20&#45;&gt;Node7 -->
<g id="edge76" class="edge"><title>Node20&#45;&gt;Node7</title>
<path fill="none" stroke="midnightblue" d="M865.498,-58.4966C831.527,-47.8464 779.336,-31.4837 745.938,-21.013"/>
<polygon fill="midnightblue" stroke="midnightblue" points="746.807,-17.6174 736.218,-17.9655 744.713,-24.2969 746.807,-17.6174"/>
</g>
</g>
</svg>
