<?xml version="1.0" encoding="UTF-8" standalone="no"?>
<!DOCTYPE svg PUBLIC "-//W3C//DTD SVG 1.1//EN"
 "http://www.w3.org/Graphics/SVG/1.1/DTD/svg11.dtd">
<!-- Generated by graphviz version 2.26.3 (20100126.1600)
 -->
<!-- Title: parameter/ParameterBlockType.h Pages: 1 -->
<svg width="330pt" height="116pt"
 viewBox="0.00 0.00 330.00 116.00" xmlns="http://www.w3.org/2000/svg" xmlns:xlink="http://www.w3.org/1999/xlink">
<g id="graph1" class="graph" transform="scale(1 1) rotate(0) translate(4 112)">
<title>parameter/ParameterBlockType.h</title>
<polygon fill="white" stroke="white" points="-4,5 -4,-112 327,-112 327,5 -4,5"/>
<!-- Node1 -->
<g id="node1" class="node"><title>Node1</title>
<polygon fill="#bfbfbf" stroke="black" points="85,-73 85,-107 231,-107 231,-73 85,-73"/>
<text text-anchor="start" x="93" y="-94" font-family="Verdana" font-size="10.00">parameter/ParameterBlock</text>
<text text-anchor="middle" x="158" y="-81" font-family="Verdana" font-size="10.00">Type.h</text>
</g>
<!-- Node2 -->
<g id="node3" class="node"><title>Node2</title>
<a xlink:href="ParameterBlockType_8cpp.html" target="_top" xlink:title="parameter/ParameterBlock\lType.cpp">
<polygon fill="white" stroke="black" points="0,-1 0,-35 146,-35 146,-1 0,-1"/>
<text text-anchor="start" x="8" y="-22" font-family="Verdana" font-size="10.00">parameter/ParameterBlock</text>
<text text-anchor="middle" x="73" y="-9" font-family="Verdana" font-size="10.00">Type.cpp</text>
</a>
</g>
<!-- Node1&#45;&gt;Node2 -->
<g id="edge2" class="edge"><title>Node1&#45;&gt;Node2</title>
<path fill="none" stroke="midnightblue" d="M129.904,-66.2011C117.94,-56.0666 104.248,-44.4691 93.2938,-35.19"/>
<polygon fill="midnightblue" stroke="midnightblue" points="127.963,-69.1442 137.856,-72.937 132.488,-63.8029 127.963,-69.1442"/>
</g>
<!-- Node3 -->
<g id="node5" class="node"><title>Node3</title>
<a xlink:href="ParameterMgr_8cpp.html" target="_top" xlink:title="parameter/ParameterMgr.cpp">
<polygon fill="white" stroke="black" points="164,-7.5 164,-28.5 322,-28.5 322,-7.5 164,-7.5"/>
<text text-anchor="middle" x="243" y="-15.5" font-family="Verdana" font-size="10.00">parameter/ParameterMgr.cpp</text>
</a>
</g>
<!-- Node1&#45;&gt;Node3 -->
<g id="edge4" class="edge"><title>Node1&#45;&gt;Node3</title>
<path fill="none" stroke="midnightblue" d="M186.126,-66.1755C201.094,-53.4972 218.757,-38.5353 230.382,-28.688"/>
<polygon fill="midnightblue" stroke="midnightblue" points="183.512,-63.8029 178.144,-72.937 188.037,-69.1442 183.512,-63.8029"/>
</g>
</g>
</svg>
