<?xml version="1.0" encoding="UTF-8" standalone="no"?>
<!DOCTYPE svg PUBLIC "-//W3C//DTD SVG 1.1//EN"
 "http://www.w3.org/Graphics/SVG/1.1/DTD/svg11.dtd">
<!-- Generated by graphviz version 2.26.3 (20100126.1600)
 -->
<!-- Title: parameter/ParameterBlackboard.cpp Pages: 1 -->
<svg width="280pt" height="204pt"
 viewBox="0.00 0.00 280.00 204.00" xmlns="http://www.w3.org/2000/svg" xmlns:xlink="http://www.w3.org/1999/xlink">
<g id="graph1" class="graph" transform="scale(1 1) rotate(0) translate(4 200)">
<title>parameter/ParameterBlackboard.cpp</title>
<polygon fill="white" stroke="white" points="-4,5 -4,-200 277,-200 277,5 -4,5"/>
<!-- Node1 -->
<g id="node1" class="node"><title>Node1</title>
<polygon fill="#bfbfbf" stroke="black" points="75,-174.5 75,-195.5 269,-195.5 269,-174.5 75,-174.5"/>
<text text-anchor="middle" x="172" y="-182.5" font-family="Verdana" font-size="10.00">parameter/ParameterBlackboard.cpp</text>
</g>
<!-- Node2 -->
<g id="node3" class="node"><title>Node2</title>
<a xlink:href="ParameterBlackboard_8h.html" target="_top" xlink:title="ParameterBlackboard.h">
<polygon fill="white" stroke="black" points="-0.5,-116.5 -0.5,-137.5 128.5,-137.5 128.5,-116.5 -0.5,-116.5"/>
<text text-anchor="middle" x="64" y="-124.5" font-family="Verdana" font-size="10.00">ParameterBlackboard.h</text>
</a>
</g>
<!-- Node1&#45;&gt;Node2 -->
<g id="edge2" class="edge"><title>Node1&#45;&gt;Node2</title>
<path fill="none" stroke="midnightblue" d="M152.442,-174.497C135.802,-165.56 111.673,-152.602 92.8197,-142.477"/>
<polygon fill="midnightblue" stroke="midnightblue" points="94.2434,-139.269 83.7774,-137.621 90.9314,-145.436 94.2434,-139.269"/>
</g>
<!-- Node7 -->
<g id="node14" class="node"><title>Node7</title>
<polygon fill="white" stroke="#bfbfbf" points="145.5,-116.5 145.5,-137.5 198.5,-137.5 198.5,-116.5 145.5,-116.5"/>
<text text-anchor="middle" x="172" y="-124.5" font-family="Verdana" font-size="10.00">string.h</text>
</g>
<!-- Node1&#45;&gt;Node7 -->
<g id="edge14" class="edge"><title>Node1&#45;&gt;Node7</title>
<path fill="none" stroke="midnightblue" d="M172,-174.362C172,-166.922 172,-156.743 172,-147.728"/>
<polygon fill="midnightblue" stroke="midnightblue" points="175.5,-147.571 172,-137.571 168.5,-147.571 175.5,-147.571"/>
</g>
<!-- Node8 -->
<g id="node16" class="node"><title>Node8</title>
<polygon fill="white" stroke="#bfbfbf" points="216,-116.5 216,-137.5 272,-137.5 272,-116.5 216,-116.5"/>
<text text-anchor="middle" x="244" y="-124.5" font-family="Verdana" font-size="10.00">assert.h</text>
</g>
<!-- Node1&#45;&gt;Node8 -->
<g id="edge16" class="edge"><title>Node1&#45;&gt;Node8</title>
<path fill="none" stroke="midnightblue" d="M185.206,-174.362C195.761,-165.859 210.758,-153.779 222.963,-143.947"/>
<polygon fill="midnightblue" stroke="midnightblue" points="225.286,-146.57 230.878,-137.571 220.895,-141.118 225.286,-146.57"/>
</g>
<!-- Node3 -->
<g id="node5" class="node"><title>Node3</title>
<polygon fill="white" stroke="#bfbfbf" points="4.5,-0.5 4.5,-21.5 57.5,-21.5 57.5,-0.5 4.5,-0.5"/>
<text text-anchor="middle" x="31" y="-8.5" font-family="Verdana" font-size="10.00">stdint.h</text>
</g>
<!-- Node2&#45;&gt;Node3 -->
<g id="edge4" class="edge"><title>Node2&#45;&gt;Node3</title>
<path fill="none" stroke="midnightblue" d="M59.3813,-116.333C55.4304,-106.91 49.7966,-92.727 46,-80 41.2439,-64.0566 37.3148,-45.6248 34.6726,-31.8242"/>
<polygon fill="midnightblue" stroke="midnightblue" points="38.0952,-31.0839 32.8383,-21.8853 31.2114,-32.3544 38.0952,-31.0839"/>
</g>
<!-- Node4 -->
<g id="node7" class="node"><title>Node4</title>
<a xlink:href="BinaryStream_8h.html" target="_top" xlink:title="BinaryStream.h">
<polygon fill="white" stroke="black" points="55,-58.5 55,-79.5 147,-79.5 147,-58.5 55,-58.5"/>
<text text-anchor="middle" x="101" y="-66.5" font-family="Verdana" font-size="10.00">BinaryStream.h</text>
</a>
</g>
<!-- Node2&#45;&gt;Node4 -->
<g id="edge6" class="edge"><title>Node2&#45;&gt;Node4</title>
<path fill="none" stroke="midnightblue" d="M70.7864,-116.362C75.7934,-108.513 82.745,-97.6159 88.7181,-88.2527"/>
<polygon fill="midnightblue" stroke="midnightblue" points="91.8292,-89.8837 94.2567,-79.5707 85.9277,-86.1189 91.8292,-89.8837"/>
</g>
<!-- Node4&#45;&gt;Node3 -->
<g id="edge8" class="edge"><title>Node4&#45;&gt;Node3</title>
<path fill="none" stroke="midnightblue" d="M88.1609,-58.3619C77.9975,-49.9408 63.5989,-38.0105 51.7958,-28.2308"/>
<polygon fill="midnightblue" stroke="midnightblue" points="53.691,-25.2558 43.7577,-21.5707 49.2248,-30.6459 53.691,-25.2558"/>
</g>
<!-- Node5 -->
<g id="node10" class="node"><title>Node5</title>
<polygon fill="white" stroke="#bfbfbf" points="77,-0.5 77,-21.5 121,-21.5 121,-0.5 77,-0.5"/>
<text text-anchor="middle" x="99" y="-8.5" font-family="Verdana" font-size="10.00">string</text>
</g>
<!-- Node4&#45;&gt;Node5 -->
<g id="edge10" class="edge"><title>Node4&#45;&gt;Node5</title>
<path fill="none" stroke="midnightblue" d="M100.633,-58.3619C100.377,-50.9219 100.026,-40.7427 99.7147,-31.7276"/>
<polygon fill="midnightblue" stroke="midnightblue" points="103.207,-31.4441 99.3645,-21.5707 96.2113,-31.6854 103.207,-31.4441"/>
</g>
<!-- Node6 -->
<g id="node12" class="node"><title>Node6</title>
<polygon fill="white" stroke="#bfbfbf" points="139,-0.5 139,-21.5 193,-21.5 193,-0.5 139,-0.5"/>
<text text-anchor="middle" x="166" y="-8.5" font-family="Verdana" font-size="10.00">fstream</text>
</g>
<!-- Node4&#45;&gt;Node6 -->
<g id="edge12" class="edge"><title>Node4&#45;&gt;Node6</title>
<path fill="none" stroke="midnightblue" d="M112.922,-58.3619C122.359,-49.9408 135.73,-38.0105 146.69,-28.2308"/>
<polygon fill="midnightblue" stroke="midnightblue" points="149.022,-30.8401 154.154,-21.5707 144.362,-25.6171 149.022,-30.8401"/>
</g>
</g>
</svg>
