<?xml version="1.0" encoding="UTF-8" standalone="no"?>
<!DOCTYPE svg PUBLIC "-//W3C//DTD SVG 1.1//EN"
 "http://www.w3.org/Graphics/SVG/1.1/DTD/svg11.dtd">
<!-- Generated by graphviz version 2.26.3 (20100126.1600)
 -->
<!-- Title: parameter/ParameterFrameworkConfiguration.h Pages: 1 -->
<svg width="356pt" height="116pt"
 viewBox="0.00 0.00 356.00 116.00" xmlns="http://www.w3.org/2000/svg" xmlns:xlink="http://www.w3.org/1999/xlink">
<g id="graph1" class="graph" transform="scale(1 1) rotate(0) translate(4 112)">
<title>parameter/ParameterFrameworkConfiguration.h</title>
<polygon fill="white" stroke="white" points="-4,5 -4,-112 353,-112 353,5 -4,5"/>
<!-- Node1 -->
<g id="node1" class="node"><title>Node1</title>
<polygon fill="#bfbfbf" stroke="black" points="90.5,-73 90.5,-107 263.5,-107 263.5,-73 90.5,-73"/>
<text text-anchor="start" x="98.5" y="-94" font-family="Verdana" font-size="10.00">parameter/ParameterFramework</text>
<text text-anchor="middle" x="177" y="-81" font-family="Verdana" font-size="10.00">Configuration.h</text>
</g>
<!-- Node2 -->
<g id="node3" class="node"><title>Node2</title>
<a xlink:href="ParameterFrameworkConfiguration_8cpp.html" target="_top" xlink:title="parameter/ParameterFramework\lConfiguration.cpp">
<polygon fill="white" stroke="black" points="-0.5,-1 -0.5,-35 172.5,-35 172.5,-1 -0.5,-1"/>
<text text-anchor="start" x="7.5" y="-22" font-family="Verdana" font-size="10.00">parameter/ParameterFramework</text>
<text text-anchor="middle" x="86" y="-9" font-family="Verdana" font-size="10.00">Configuration.cpp</text>
</a>
</g>
<!-- Node1&#45;&gt;Node2 -->
<g id="edge2" class="edge"><title>Node1&#45;&gt;Node2</title>
<path fill="none" stroke="midnightblue" d="M147.29,-66.493C134.394,-56.2899 119.567,-44.5583 107.726,-35.19"/>
<polygon fill="midnightblue" stroke="midnightblue" points="145.42,-69.4769 155.434,-72.937 149.764,-63.9874 145.42,-69.4769"/>
</g>
<!-- Node3 -->
<g id="node5" class="node"><title>Node3</title>
<a xlink:href="ParameterMgr_8cpp.html" target="_top" xlink:title="parameter/ParameterMgr.cpp">
<polygon fill="white" stroke="black" points="190,-7.5 190,-28.5 348,-28.5 348,-7.5 190,-7.5"/>
<text text-anchor="middle" x="269" y="-15.5" font-family="Verdana" font-size="10.00">parameter/ParameterMgr.cpp</text>
</a>
</g>
<!-- Node1&#45;&gt;Node3 -->
<g id="edge4" class="edge"><title>Node1&#45;&gt;Node3</title>
<path fill="none" stroke="midnightblue" d="M206.993,-66.527C223.288,-53.7747 242.644,-38.6265 255.343,-28.688"/>
<polygon fill="midnightblue" stroke="midnightblue" points="204.521,-64.0176 198.803,-72.937 208.835,-69.5302 204.521,-64.0176"/>
</g>
</g>
</svg>
