<?xml version="1.0" encoding="UTF-8" standalone="no"?>
<!DOCTYPE svg PUBLIC "-//W3C//DTD SVG 1.1//EN"
 "http://www.w3.org/Graphics/SVG/1.1/DTD/svg11.dtd">
<!-- Generated by graphviz version 2.26.3 (20100126.1600)
 -->
<!-- Title: parameter/ParameterAdaptation.cpp Pages: 1 -->
<svg width="472pt" height="262pt"
 viewBox="0.00 0.00 472.00 262.00" xmlns="http://www.w3.org/2000/svg" xmlns:xlink="http://www.w3.org/1999/xlink">
<g id="graph1" class="graph" transform="scale(1 1) rotate(0) translate(4 258)">
<title>parameter/ParameterAdaptation.cpp</title>
<polygon fill="white" stroke="white" points="-4,5 -4,-258 469,-258 469,5 -4,5"/>
<!-- Node1 -->
<g id="node1" class="node"><title>Node1</title>
<polygon fill="#bfbfbf" stroke="black" points="0,-232.5 0,-253.5 194,-253.5 194,-232.5 0,-232.5"/>
<text text-anchor="middle" x="97" y="-240.5" font-family="Verdana" font-size="10.00">parameter/ParameterAdaptation.cpp</text>
</g>
<!-- Node2 -->
<g id="node3" class="node"><title>Node2</title>
<a xlink:href="ParameterAdaptation_8h.html" target="_top" xlink:title="ParameterAdaptation.h">
<polygon fill="white" stroke="black" points="33,-174.5 33,-195.5 161,-195.5 161,-174.5 33,-174.5"/>
<text text-anchor="middle" x="97" y="-182.5" font-family="Verdana" font-size="10.00">ParameterAdaptation.h</text>
</a>
</g>
<!-- Node1&#45;&gt;Node2 -->
<g id="edge2" class="edge"><title>Node1&#45;&gt;Node2</title>
<path fill="none" stroke="midnightblue" d="M97,-232.362C97,-224.922 97,-214.743 97,-205.728"/>
<polygon fill="midnightblue" stroke="midnightblue" points="100.5,-205.571 97,-195.571 93.5001,-205.571 100.5,-205.571"/>
</g>
<!-- Node3 -->
<g id="node5" class="node"><title>Node3</title>
<a xlink:href="Element_8h.html" target="_top" xlink:title="Element.h">
<polygon fill="white" stroke="black" points="159.5,-116.5 159.5,-137.5 224.5,-137.5 224.5,-116.5 159.5,-116.5"/>
<text text-anchor="middle" x="192" y="-124.5" font-family="Verdana" font-size="10.00">Element.h</text>
</a>
</g>
<!-- Node2&#45;&gt;Node3 -->
<g id="edge4" class="edge"><title>Node2&#45;&gt;Node3</title>
<path fill="none" stroke="midnightblue" d="M114.424,-174.362C128.887,-165.532 149.669,-152.844 166.084,-142.822"/>
<polygon fill="midnightblue" stroke="midnightblue" points="167.975,-145.769 174.686,-137.571 164.327,-139.794 167.975,-145.769"/>
</g>
<!-- Node4 -->
<g id="node7" class="node"><title>Node4</title>
<polygon fill="white" stroke="#bfbfbf" points="18,-0.5 18,-21.5 62,-21.5 62,-0.5 18,-0.5"/>
<text text-anchor="middle" x="40" y="-8.5" font-family="Verdana" font-size="10.00">string</text>
</g>
<!-- Node2&#45;&gt;Node4 -->
<g id="edge26" class="edge"><title>Node2&#45;&gt;Node4</title>
<path fill="none" stroke="midnightblue" d="M89.4874,-174.303C77.1104,-156 52.826,-117.052 43,-80 38.8285,-64.2704 38.2369,-45.8258 38.6018,-31.9658"/>
<polygon fill="midnightblue" stroke="midnightblue" points="42.0984,-32.1194 39.0495,-21.9728 35.1054,-31.8061 42.0984,-32.1194"/>
</g>
<!-- Node3&#45;&gt;Node4 -->
<g id="edge6" class="edge"><title>Node3&#45;&gt;Node4</title>
<path fill="none" stroke="midnightblue" d="M159.47,-123.973C129.291,-119.438 85.2055,-108.135 59,-80 46.802,-66.9039 42.3155,-46.701 40.7243,-31.5346"/>
<polygon fill="midnightblue" stroke="midnightblue" points="44.2151,-31.2788 40.0085,-21.5549 37.233,-31.7797 44.2151,-31.2788"/>
</g>
<!-- Node5 -->
<g id="node9" class="node"><title>Node5</title>
<polygon fill="white" stroke="#bfbfbf" points="325.5,-0.5 325.5,-21.5 372.5,-21.5 372.5,-0.5 325.5,-0.5"/>
<text text-anchor="middle" x="349" y="-8.5" font-family="Verdana" font-size="10.00">vector</text>
</g>
<!-- Node3&#45;&gt;Node5 -->
<g id="edge8" class="edge"><title>Node3&#45;&gt;Node5</title>
<path fill="none" stroke="midnightblue" d="M224.636,-124.195C276.087,-119.021 372.345,-106.042 393,-80 406.278,-63.2595 388.77,-42.3751 372.065,-27.9929"/>
<polygon fill="midnightblue" stroke="midnightblue" points="374.038,-25.086 364.068,-21.5015 369.626,-30.5211 374.038,-25.086"/>
</g>
<!-- Node6 -->
<g id="node11" class="node"><title>Node6</title>
<polygon fill="white" stroke="#bfbfbf" points="411.5,-0.5 411.5,-21.5 464.5,-21.5 464.5,-0.5 411.5,-0.5"/>
<text text-anchor="middle" x="438" y="-8.5" font-family="Verdana" font-size="10.00">stdint.h</text>
</g>
<!-- Node3&#45;&gt;Node6 -->
<g id="edge10" class="edge"><title>Node3&#45;&gt;Node6</title>
<path fill="none" stroke="midnightblue" d="M224.753,-123.616C278.266,-117.492 381.275,-103.028 409,-80 423.479,-67.9745 430.857,-47.4683 434.535,-31.9278"/>
<polygon fill="midnightblue" stroke="midnightblue" points="438.055,-32.1772 436.607,-21.6818 431.194,-30.7893 438.055,-32.1772"/>
</g>
<!-- Node7 -->
<g id="node13" class="node"><title>Node7</title>
<polygon fill="white" stroke="#bfbfbf" points="68,-58.5 68,-79.5 98,-79.5 98,-58.5 68,-58.5"/>
<text text-anchor="middle" x="83" y="-66.5" font-family="Verdana" font-size="10.00">list</text>
</g>
<!-- Node3&#45;&gt;Node7 -->
<g id="edge12" class="edge"><title>Node3&#45;&gt;Node7</title>
<path fill="none" stroke="midnightblue" d="M172.261,-116.497C153.914,-106.734 126.546,-92.1712 106.955,-81.7468"/>
<polygon fill="midnightblue" stroke="midnightblue" points="108.508,-78.6086 98.0362,-77.0009 105.22,-84.7882 108.508,-78.6086"/>
</g>
<!-- Node8 -->
<g id="node15" class="node"><title>Node8</title>
<polygon fill="white" stroke="#bfbfbf" points="116,-58.5 116,-79.5 180,-79.5 180,-58.5 116,-58.5"/>
<text text-anchor="middle" x="148" y="-66.5" font-family="Verdana" font-size="10.00">XmlSink.h</text>
</g>
<!-- Node3&#45;&gt;Node8 -->
<g id="edge14" class="edge"><title>Node3&#45;&gt;Node8</title>
<path fill="none" stroke="midnightblue" d="M183.93,-116.362C177.851,-108.35 169.363,-97.1605 162.163,-87.6696"/>
<polygon fill="midnightblue" stroke="midnightblue" points="164.851,-85.4222 156.019,-79.5707 159.275,-89.653 164.851,-85.4222"/>
</g>
<!-- Node9 -->
<g id="node17" class="node"><title>Node9</title>
<polygon fill="white" stroke="#bfbfbf" points="197.5,-58.5 197.5,-79.5 274.5,-79.5 274.5,-58.5 197.5,-58.5"/>
<text text-anchor="middle" x="236" y="-66.5" font-family="Verdana" font-size="10.00">XmlSource.h</text>
</g>
<!-- Node3&#45;&gt;Node9 -->
<g id="edge16" class="edge"><title>Node3&#45;&gt;Node9</title>
<path fill="none" stroke="midnightblue" d="M200.07,-116.362C206.149,-108.35 214.637,-97.1605 221.837,-87.6696"/>
<polygon fill="midnightblue" stroke="midnightblue" points="224.725,-89.653 227.981,-79.5707 219.149,-85.4222 224.725,-89.653"/>
</g>
<!-- Node10 -->
<g id="node19" class="node"><title>Node10</title>
<a xlink:href="PathNavigator_8h.html" target="_top" xlink:title="PathNavigator.h">
<polygon fill="white" stroke="black" points="292,-58.5 292,-79.5 384,-79.5 384,-58.5 292,-58.5"/>
<text text-anchor="middle" x="338" y="-66.5" font-family="Verdana" font-size="10.00">PathNavigator.h</text>
</a>
</g>
<!-- Node3&#45;&gt;Node10 -->
<g id="edge18" class="edge"><title>Node3&#45;&gt;Node10</title>
<path fill="none" stroke="midnightblue" d="M218.439,-116.497C241.756,-107.234 275.95,-93.6499 301.804,-83.3793"/>
<polygon fill="midnightblue" stroke="midnightblue" points="303.263,-86.566 311.264,-79.6212 300.678,-80.0605 303.263,-86.566"/>
</g>
<!-- Node10&#45;&gt;Node4 -->
<g id="edge22" class="edge"><title>Node10&#45;&gt;Node4</title>
<path fill="none" stroke="midnightblue" d="M291.791,-59.7361C288.816,-59.1466 285.866,-58.5638 283,-58 207.509,-43.1504 118.744,-26.081 72.2034,-17.1613"/>
<polygon fill="midnightblue" stroke="midnightblue" points="72.6023,-13.6742 62.1224,-15.2302 71.2853,-20.5492 72.6023,-13.6742"/>
</g>
<!-- Node10&#45;&gt;Node5 -->
<g id="edge20" class="edge"><title>Node10&#45;&gt;Node5</title>
<path fill="none" stroke="midnightblue" d="M340.018,-58.3619C341.444,-50.8401 343.402,-40.5187 345.125,-31.4308"/>
<polygon fill="midnightblue" stroke="midnightblue" points="348.571,-32.0477 346.995,-21.5707 341.693,-30.7433 348.571,-32.0477"/>
</g>
<!-- Node10&#45;&gt;Node6 -->
<g id="edge24" class="edge"><title>Node10&#45;&gt;Node6</title>
<path fill="none" stroke="midnightblue" d="M356.342,-58.3619C371.566,-49.532 393.441,-36.844 410.72,-26.8224"/>
<polygon fill="midnightblue" stroke="midnightblue" points="412.88,-29.6155 419.775,-21.5707 409.368,-23.5603 412.88,-29.6155"/>
</g>
</g>
</svg>
