<?xml version="1.0" encoding="UTF-8" standalone="no"?>
<!DOCTYPE svg PUBLIC "-//W3C//DTD SVG 1.1//EN"
 "http://www.w3.org/Graphics/SVG/1.1/DTD/svg11.dtd">
<!-- Generated by graphviz version 2.26.3 (20100126.1600)
 -->
<!-- Title: parameter/ParameterMgrFullConnector.cpp Pages: 1 -->
<svg width="918pt" height="450pt"
 viewBox="0.00 0.00 918.00 450.00" xmlns="http://www.w3.org/2000/svg" xmlns:xlink="http://www.w3.org/1999/xlink">
<g id="graph1" class="graph" transform="scale(1 1) rotate(0) translate(4 446)">
<title>parameter/ParameterMgrFullConnector.cpp</title>
<polygon fill="white" stroke="white" points="-4,5 -4,-446 915,-446 915,5 -4,5"/>
<!-- Node1 -->
<g id="node1" class="node"><title>Node1</title>
<polygon fill="#bfbfbf" stroke="black" points="366,-407 366,-441 520,-441 520,-407 366,-407"/>
<text text-anchor="start" x="374" y="-428" font-family="Verdana" font-size="10.00">parameter/ParameterMgrFull</text>
<text text-anchor="middle" x="443" y="-415" font-family="Verdana" font-size="10.00">Connector.cpp</text>
</g>
<!-- Node2 -->
<g id="node3" class="node"><title>Node2</title>
<polygon fill="white" stroke="#bfbfbf" points="159,-348.5 159,-369.5 317,-369.5 317,-348.5 159,-348.5"/>
<text text-anchor="middle" x="238" y="-356.5" font-family="Verdana" font-size="10.00">ParameterMgrFullConnector.h</text>
</g>
<!-- Node1&#45;&gt;Node2 -->
<g id="edge2" class="edge"><title>Node1&#45;&gt;Node2</title>
<path fill="none" stroke="midnightblue" d="M389.139,-406.922C355.42,-396.231 312.559,-382.641 281.099,-372.665"/>
<polygon fill="midnightblue" stroke="midnightblue" points="281.901,-369.248 271.311,-369.562 279.785,-375.921 281.901,-369.248"/>
</g>
<!-- Node3 -->
<g id="node5" class="node"><title>Node3</title>
<a xlink:href="ParameterMgr_8h.html" target="_top" xlink:title="ParameterMgr.h">
<polygon fill="white" stroke="black" points="442.5,-290.5 442.5,-311.5 535.5,-311.5 535.5,-290.5 442.5,-290.5"/>
<text text-anchor="middle" x="489" y="-298.5" font-family="Verdana" font-size="10.00">ParameterMgr.h</text>
</a>
</g>
<!-- Node1&#45;&gt;Node3 -->
<g id="edge4" class="edge"><title>Node1&#45;&gt;Node3</title>
<path fill="none" stroke="midnightblue" d="M452.638,-406.879C458.235,-396.449 465.121,-382.723 470,-370 476.038,-354.255 481.014,-335.811 484.357,-321.956"/>
<polygon fill="midnightblue" stroke="midnightblue" points="487.824,-322.499 486.677,-311.966 481.005,-320.915 487.824,-322.499"/>
</g>
<!-- Node7 -->
<g id="node13" class="node"><title>Node7</title>
<polygon fill="white" stroke="#bfbfbf" points="824,-58.5 824,-79.5 854,-79.5 854,-58.5 824,-58.5"/>
<text text-anchor="middle" x="839" y="-66.5" font-family="Verdana" font-size="10.00">list</text>
</g>
<!-- Node1&#45;&gt;Node7 -->
<g id="edge86" class="edge"><title>Node1&#45;&gt;Node7</title>
<path fill="none" stroke="midnightblue" d="M520.116,-419.571C652.757,-409.823 910,-380.649 910,-301 910,-301 910,-301 910,-243 910,-182.978 873.334,-119.365 852.7,-88.3187"/>
<polygon fill="midnightblue" stroke="midnightblue" points="855.395,-86.059 846.87,-79.7694 849.612,-90.0031 855.395,-86.059"/>
</g>
<!-- Node23 -->
<g id="node62" class="node"><title>Node23</title>
<a xlink:href="ParameterMgrLogger_8h.html" target="_top" xlink:title="ParameterMgrLogger.h">
<polygon fill="white" stroke="black" points="335,-348.5 335,-369.5 461,-369.5 461,-348.5 335,-348.5"/>
<text text-anchor="middle" x="398" y="-356.5" font-family="Verdana" font-size="10.00">ParameterMgrLogger.h</text>
</a>
</g>
<!-- Node1&#45;&gt;Node23 -->
<g id="edge78" class="edge"><title>Node1&#45;&gt;Node23</title>
<path fill="none" stroke="midnightblue" d="M431.177,-406.922C425.083,-398.12 417.63,-387.354 411.332,-378.258"/>
<polygon fill="midnightblue" stroke="midnightblue" points="414.083,-376.082 405.513,-369.852 408.327,-380.066 414.083,-376.082"/>
</g>
<!-- Node4 -->
<g id="node7" class="node"><title>Node4</title>
<polygon fill="white" stroke="#bfbfbf" points="743.5,-232.5 743.5,-253.5 806.5,-253.5 806.5,-232.5 743.5,-232.5"/>
<text text-anchor="middle" x="775" y="-240.5" font-family="Verdana" font-size="10.00">pthread.h</text>
</g>
<!-- Node3&#45;&gt;Node4 -->
<g id="edge6" class="edge"><title>Node3&#45;&gt;Node4</title>
<path fill="none" stroke="midnightblue" d="M535.786,-292.552C584.442,-283.607 662.757,-268.767 730,-254 731.06,-253.767 732.134,-253.528 733.217,-253.285"/>
<polygon fill="midnightblue" stroke="midnightblue" points="734.133,-256.665 743.085,-250.998 732.553,-249.846 734.133,-256.665"/>
</g>
<!-- Node5 -->
<g id="node9" class="node"><title>Node5</title>
<polygon fill="white" stroke="#bfbfbf" points="395,-116.5 395,-137.5 433,-137.5 433,-116.5 395,-116.5"/>
<text text-anchor="middle" x="414" y="-124.5" font-family="Verdana" font-size="10.00">map</text>
</g>
<!-- Node3&#45;&gt;Node5 -->
<g id="edge8" class="edge"><title>Node3&#45;&gt;Node5</title>
<path fill="none" stroke="midnightblue" d="M484.421,-290.377C472.212,-262.051 438.719,-184.349 422.725,-147.242"/>
<polygon fill="midnightblue" stroke="midnightblue" points="425.883,-145.726 418.71,-137.928 419.454,-148.496 425.883,-145.726"/>
</g>
<!-- Node6 -->
<g id="node11" class="node"><title>Node6</title>
<polygon fill="white" stroke="#bfbfbf" points="753.5,-0.5 753.5,-21.5 800.5,-21.5 800.5,-0.5 753.5,-0.5"/>
<text text-anchor="middle" x="777" y="-8.5" font-family="Verdana" font-size="10.00">vector</text>
</g>
<!-- Node3&#45;&gt;Node6 -->
<g id="edge10" class="edge"><title>Node3&#45;&gt;Node6</title>
<path fill="none" stroke="midnightblue" d="M535.607,-297.388C625.034,-290.073 813.928,-272.613 837,-254 905.393,-198.825 907.826,-133.581 863,-58 851.618,-38.8082 829.329,-26.9454 810.295,-19.9391"/>
<polygon fill="midnightblue" stroke="midnightblue" points="811.307,-16.5868 800.713,-16.7048 809.068,-23.2192 811.307,-16.5868"/>
</g>
<!-- Node3&#45;&gt;Node7 -->
<g id="edge12" class="edge"><title>Node3&#45;&gt;Node7</title>
<path fill="none" stroke="midnightblue" d="M535.657,-297.376C621.084,-290.297 795.68,-273.596 815,-254 858.667,-209.709 850.325,-127.76 843.431,-89.578"/>
<polygon fill="midnightblue" stroke="midnightblue" points="846.839,-88.7697 841.483,-79.6284 839.97,-90.1146 846.839,-88.7697"/>
</g>
<!-- Node8 -->
<g id="node15" class="node"><title>Node8</title>
<a xlink:href="RemoteCommandHandlerTemplate_8h.html" target="_top" xlink:title="RemoteCommandHandlerTemplate.h">
<polygon fill="white" stroke="black" points="536,-174.5 536,-195.5 730,-195.5 730,-174.5 536,-174.5"/>
<text text-anchor="middle" x="633" y="-182.5" font-family="Verdana" font-size="10.00">RemoteCommandHandlerTemplate.h</text>
</a>
</g>
<!-- Node3&#45;&gt;Node8 -->
<g id="edge14" class="edge"><title>Node3&#45;&gt;Node8</title>
<path fill="none" stroke="midnightblue" d="M502.289,-290.295C527.364,-270.096 581.836,-226.216 611.942,-201.963"/>
<polygon fill="midnightblue" stroke="midnightblue" points="614.151,-204.678 619.743,-195.679 609.76,-199.227 614.151,-204.678"/>
</g>
<!-- Node12 -->
<g id="node24" class="node"><title>Node12</title>
<polygon fill="white" stroke="#bfbfbf" points="268,-0.5 268,-21.5 312,-21.5 312,-0.5 268,-0.5"/>
<text text-anchor="middle" x="290" y="-8.5" font-family="Verdana" font-size="10.00">string</text>
</g>
<!-- Node3&#45;&gt;Node12 -->
<g id="edge76" class="edge"><title>Node3&#45;&gt;Node12</title>
<path fill="none" stroke="midnightblue" d="M442.247,-291.324C439.461,-290.848 436.697,-290.402 434,-290 353.825,-278.037 137.36,-300.556 71,-254 43.1718,-234.477 38,-218.993 38,-185 38,-185 38,-185 38,-127 38,-79.1276 189.961,-35.655 257.874,-18.6168"/>
<polygon fill="midnightblue" stroke="midnightblue" points="258.768,-22.0013 267.637,-16.2049 257.089,-15.2056 258.768,-22.0013"/>
</g>
<!-- Node13 -->
<g id="node27" class="node"><title>Node13</title>
<a xlink:href="PathNavigator_8h.html" target="_top" xlink:title="PathNavigator.h">
<polygon fill="white" stroke="black" points="638,-58.5 638,-79.5 730,-79.5 730,-58.5 638,-58.5"/>
<text text-anchor="middle" x="684" y="-66.5" font-family="Verdana" font-size="10.00">PathNavigator.h</text>
</a>
</g>
<!-- Node3&#45;&gt;Node13 -->
<g id="edge28" class="edge"><title>Node3&#45;&gt;Node13</title>
<path fill="none" stroke="midnightblue" d="M535.563,-296.58C594.461,-288.21 693.66,-264.219 739,-196 762.762,-160.248 726.567,-112.541 702.531,-86.9793"/>
<polygon fill="midnightblue" stroke="midnightblue" points="704.731,-84.2217 695.245,-79.5016 699.717,-89.1066 704.731,-84.2217"/>
</g>
<!-- Node14 -->
<g id="node32" class="node"><title>Node14</title>
<a xlink:href="SelectionCriterionType_8h.html" target="_top" xlink:title="SelectionCriterionType.h">
<polygon fill="white" stroke="black" points="273.5,-174.5 273.5,-195.5 404.5,-195.5 404.5,-174.5 273.5,-174.5"/>
<text text-anchor="middle" x="339" y="-182.5" font-family="Verdana" font-size="10.00">SelectionCriterionType.h</text>
</a>
</g>
<!-- Node3&#45;&gt;Node14 -->
<g id="edge36" class="edge"><title>Node3&#45;&gt;Node14</title>
<path fill="none" stroke="midnightblue" d="M478.192,-290.085C463.906,-275.922 437.657,-250.803 413,-232 398.208,-220.72 380.672,-209.497 366.384,-200.848"/>
<polygon fill="midnightblue" stroke="midnightblue" points="367.906,-197.681 357.526,-195.562 364.319,-203.692 367.906,-197.681"/>
</g>
<!-- Node15 -->
<g id="node34" class="node"><title>Node15</title>
<a xlink:href="Element_8h.html" target="_top" xlink:title="Element.h">
<polygon fill="white" stroke="black" points="450.5,-116.5 450.5,-137.5 515.5,-137.5 515.5,-116.5 450.5,-116.5"/>
<text text-anchor="middle" x="483" y="-124.5" font-family="Verdana" font-size="10.00">Element.h</text>
</a>
</g>
<!-- Node3&#45;&gt;Node15 -->
<g id="edge70" class="edge"><title>Node3&#45;&gt;Node15</title>
<path fill="none" stroke="midnightblue" d="M488.634,-290.377C487.665,-262.293 485.023,-185.673 483.731,-148.203"/>
<polygon fill="midnightblue" stroke="midnightblue" points="487.219,-147.801 483.377,-137.928 480.224,-148.042 487.219,-147.801"/>
</g>
<!-- Node19 -->
<g id="node49" class="node"><title>Node19</title>
<a xlink:href="SelectionCriterion_8h.html" target="_top" xlink:title="SelectionCriterion.h">
<polygon fill="white" stroke="black" points="80,-232.5 80,-253.5 190,-253.5 190,-232.5 80,-232.5"/>
<text text-anchor="middle" x="135" y="-240.5" font-family="Verdana" font-size="10.00">SelectionCriterion.h</text>
</a>
</g>
<!-- Node3&#45;&gt;Node19 -->
<g id="edge60" class="edge"><title>Node3&#45;&gt;Node19</title>
<path fill="none" stroke="midnightblue" d="M442.219,-291.494C439.441,-290.976 436.685,-290.474 434,-290 333.096,-272.19 304.979,-271.008 200.19,-254.168"/>
<polygon fill="midnightblue" stroke="midnightblue" points="200.578,-250.685 190.147,-252.544 199.46,-257.595 200.578,-250.685"/>
</g>
<!-- Node21 -->
<g id="node57" class="node"><title>Node21</title>
<polygon fill="white" stroke="#bfbfbf" points="207.5,-232.5 207.5,-253.5 290.5,-253.5 290.5,-232.5 207.5,-232.5"/>
<text text-anchor="middle" x="249" y="-240.5" font-family="Verdana" font-size="10.00">XmlDocSink.h</text>
</g>
<!-- Node3&#45;&gt;Node21 -->
<g id="edge72" class="edge"><title>Node3&#45;&gt;Node21</title>
<path fill="none" stroke="midnightblue" d="M445.538,-290.497C404.684,-280.624 343.517,-265.842 300.29,-255.395"/>
<polygon fill="midnightblue" stroke="midnightblue" points="301.075,-251.984 290.533,-253.037 299.431,-258.788 301.075,-251.984"/>
</g>
<!-- Node22 -->
<g id="node59" class="node"><title>Node22</title>
<polygon fill="white" stroke="#bfbfbf" points="308,-232.5 308,-253.5 404,-253.5 404,-232.5 308,-232.5"/>
<text text-anchor="middle" x="356" y="-240.5" font-family="Verdana" font-size="10.00">XmlDocSource.h</text>
</g>
<!-- Node3&#45;&gt;Node22 -->
<g id="edge74" class="edge"><title>Node3&#45;&gt;Node22</title>
<path fill="none" stroke="midnightblue" d="M464.915,-290.497C443.861,-281.315 413.073,-267.889 389.598,-257.652"/>
<polygon fill="midnightblue" stroke="midnightblue" points="390.921,-254.41 380.356,-253.621 388.123,-260.827 390.921,-254.41"/>
</g>
<!-- Node8&#45;&gt;Node6 -->
<g id="edge16" class="edge"><title>Node8&#45;&gt;Node6</title>
<path fill="none" stroke="midnightblue" d="M653.164,-174.443C682.071,-158.208 734.795,-124.29 762,-80 770.911,-65.4935 774.568,-46.4203 776.049,-32.0042"/>
<polygon fill="midnightblue" stroke="midnightblue" points="779.57,-31.8515 776.829,-21.6173 772.59,-31.327 779.57,-31.8515"/>
</g>
<!-- Node9 -->
<g id="node18" class="node"><title>Node9</title>
<a xlink:href="RemoteCommandHandler_8h.html" target="_top" xlink:title="RemoteCommandHandler.h">
<polygon fill="white" stroke="black" points="532.5,-116.5 532.5,-137.5 681.5,-137.5 681.5,-116.5 532.5,-116.5"/>
<text text-anchor="middle" x="607" y="-124.5" font-family="Verdana" font-size="10.00">RemoteCommandHandler.h</text>
</a>
</g>
<!-- Node8&#45;&gt;Node9 -->
<g id="edge18" class="edge"><title>Node8&#45;&gt;Node9</title>
<path fill="none" stroke="midnightblue" d="M628.231,-174.362C624.786,-166.677 620.031,-156.069 615.894,-146.84"/>
<polygon fill="midnightblue" stroke="midnightblue" points="619.023,-145.264 611.739,-137.571 612.635,-148.127 619.023,-145.264"/>
</g>
<!-- Node10 -->
<g id="node20" class="node"><title>Node10</title>
<a xlink:href="RemoteCommand_8h.html" target="_top" xlink:title="RemoteCommand.h">
<polygon fill="white" stroke="black" points="507.5,-58.5 507.5,-79.5 620.5,-79.5 620.5,-58.5 507.5,-58.5"/>
<text text-anchor="middle" x="564" y="-66.5" font-family="Verdana" font-size="10.00">RemoteCommand.h</text>
</a>
</g>
<!-- Node9&#45;&gt;Node10 -->
<g id="edge20" class="edge"><title>Node9&#45;&gt;Node10</title>
<path fill="none" stroke="midnightblue" d="M599.113,-116.362C593.173,-108.35 584.878,-97.1605 577.841,-87.6696"/>
<polygon fill="midnightblue" stroke="midnightblue" points="580.604,-85.5193 571.837,-79.5707 574.981,-89.6883 580.604,-85.5193"/>
</g>
<!-- Node9&#45;&gt;Node12 -->
<g id="edge26" class="edge"><title>Node9&#45;&gt;Node12</title>
<path fill="none" stroke="midnightblue" d="M578.028,-116.398C518.667,-94.6764 383.631,-45.2625 321.883,-22.6671"/>
<polygon fill="midnightblue" stroke="midnightblue" points="322.872,-19.3019 312.278,-19.1522 320.466,-25.8756 322.872,-19.3019"/>
</g>
<!-- Node11 -->
<g id="node22" class="node"><title>Node11</title>
<polygon fill="white" stroke="#bfbfbf" points="537.5,-0.5 537.5,-21.5 590.5,-21.5 590.5,-0.5 537.5,-0.5"/>
<text text-anchor="middle" x="564" y="-8.5" font-family="Verdana" font-size="10.00">stdint.h</text>
</g>
<!-- Node10&#45;&gt;Node11 -->
<g id="edge22" class="edge"><title>Node10&#45;&gt;Node11</title>
<path fill="none" stroke="midnightblue" d="M564,-58.3619C564,-50.9219 564,-40.7427 564,-31.7276"/>
<polygon fill="midnightblue" stroke="midnightblue" points="567.5,-31.5706 564,-21.5707 560.5,-31.5707 567.5,-31.5706"/>
</g>
<!-- Node10&#45;&gt;Node12 -->
<g id="edge24" class="edge"><title>Node10&#45;&gt;Node12</title>
<path fill="none" stroke="midnightblue" d="M514.381,-58.4966C458.608,-46.6908 369.676,-27.8658 322.255,-17.8277"/>
<polygon fill="midnightblue" stroke="midnightblue" points="322.748,-14.3546 312.24,-15.7078 321.299,-21.2029 322.748,-14.3546"/>
</g>
<!-- Node13&#45;&gt;Node6 -->
<g id="edge30" class="edge"><title>Node13&#45;&gt;Node6</title>
<path fill="none" stroke="midnightblue" d="M701.058,-58.3619C715.085,-49.6138 735.184,-37.0786 751.182,-27.1015"/>
<polygon fill="midnightblue" stroke="midnightblue" points="753.418,-29.8323 760.051,-21.5707 749.713,-23.8927 753.418,-29.8323"/>
</g>
<!-- Node13&#45;&gt;Node11 -->
<g id="edge34" class="edge"><title>Node13&#45;&gt;Node11</title>
<path fill="none" stroke="midnightblue" d="M662.269,-58.4966C643.526,-49.4378 616.233,-36.2462 595.164,-26.0628"/>
<polygon fill="midnightblue" stroke="midnightblue" points="596.502,-22.8217 585.975,-21.6212 593.455,-29.1242 596.502,-22.8217"/>
</g>
<!-- Node13&#45;&gt;Node12 -->
<g id="edge32" class="edge"><title>Node13&#45;&gt;Node12</title>
<path fill="none" stroke="midnightblue" d="M637.823,-59.557C634.841,-59.0114 631.88,-58.4873 629,-58 516.809,-39.021 382.768,-22.1361 322.348,-14.8327"/>
<polygon fill="midnightblue" stroke="midnightblue" points="322.628,-11.3413 312.282,-13.6224 321.793,-18.2912 322.628,-11.3413"/>
</g>
<!-- Node14&#45;&gt;Node5 -->
<g id="edge54" class="edge"><title>Node14&#45;&gt;Node5</title>
<path fill="none" stroke="midnightblue" d="M352.756,-174.362C363.751,-165.859 379.373,-153.779 392.086,-143.947"/>
<polygon fill="midnightblue" stroke="midnightblue" points="394.562,-146.457 400.331,-137.571 390.279,-140.919 394.562,-146.457"/>
</g>
<!-- Node14&#45;&gt;Node12 -->
<g id="edge56" class="edge"><title>Node14&#45;&gt;Node12</title>
<path fill="none" stroke="midnightblue" d="M286.415,-174.459C250.293,-166.027 206.957,-153.135 196,-138 183.823,-121.18 195.573,-76.3087 209,-58 221.217,-41.3412 241.261,-29.6407 258.352,-22.0804"/>
<polygon fill="midnightblue" stroke="midnightblue" points="260.085,-25.1518 267.993,-18.1012 257.414,-18.6813 260.085,-25.1518"/>
</g>
<!-- Node14&#45;&gt;Node15 -->
<g id="edge38" class="edge"><title>Node14&#45;&gt;Node15</title>
<path fill="none" stroke="midnightblue" d="M365.077,-174.497C388.075,-165.234 421.8,-151.65 447.3,-141.379"/>
<polygon fill="midnightblue" stroke="midnightblue" points="448.662,-144.604 456.63,-137.621 446.047,-138.111 448.662,-144.604"/>
</g>
<!-- Node18 -->
<g id="node47" class="node"><title>Node18</title>
<polygon fill="white" stroke="#bfbfbf" points="204.5,-116.5 204.5,-137.5 377.5,-137.5 377.5,-116.5 204.5,-116.5"/>
<text text-anchor="middle" x="291" y="-124.5" font-family="Verdana" font-size="10.00">SelectionCriterionTypeInterface.h</text>
</g>
<!-- Node14&#45;&gt;Node18 -->
<g id="edge58" class="edge"><title>Node14&#45;&gt;Node18</title>
<path fill="none" stroke="midnightblue" d="M330.196,-174.362C323.498,-166.268 314.116,-154.932 306.211,-145.38"/>
<polygon fill="midnightblue" stroke="midnightblue" points="308.82,-143.043 299.748,-137.571 303.427,-147.506 308.82,-143.043"/>
</g>
<!-- Node15&#45;&gt;Node6 -->
<g id="edge42" class="edge"><title>Node15&#45;&gt;Node6</title>
<path fill="none" stroke="midnightblue" d="M515.605,-117.949C518.436,-117.255 521.263,-116.595 524,-116 618.676,-95.4232 659.959,-136.03 739,-80 755.408,-68.3693 765.504,-47.3308 771.126,-31.5317"/>
<polygon fill="midnightblue" stroke="midnightblue" points="774.587,-32.2025 774.326,-21.6109 767.925,-30.0537 774.587,-32.2025"/>
</g>
<!-- Node15&#45;&gt;Node7 -->
<g id="edge46" class="edge"><title>Node15&#45;&gt;Node7</title>
<path fill="none" stroke="midnightblue" d="M515.591,-117.884C518.425,-117.205 521.257,-116.565 524,-116 633.087,-93.5304 661.931,-97.0229 772,-80 785.785,-77.868 801.142,-75.3566 813.672,-73.2722"/>
<polygon fill="midnightblue" stroke="midnightblue" points="814.56,-76.6724 823.845,-71.5705 813.405,-69.7683 814.56,-76.6724"/>
</g>
<!-- Node15&#45;&gt;Node11 -->
<g id="edge44" class="edge"><title>Node15&#45;&gt;Node11</title>
<path fill="none" stroke="midnightblue" d="M483.203,-116.278C483.953,-101.881 487.025,-76.0282 499,-58 507.556,-45.1185 520.92,-34.5688 533.31,-26.7517"/>
<polygon fill="midnightblue" stroke="midnightblue" points="535.265,-29.6619 542.078,-21.5483 531.692,-23.6422 535.265,-29.6619"/>
</g>
<!-- Node15&#45;&gt;Node12 -->
<g id="edge40" class="edge"><title>Node15&#45;&gt;Node12</title>
<path fill="none" stroke="midnightblue" d="M469.493,-116.48C450.994,-102.311 416.478,-76.7169 385,-58 364.393,-45.747 340.154,-33.7921 321.319,-25.0056"/>
<polygon fill="midnightblue" stroke="midnightblue" points="322.556,-21.7221 312.009,-20.7149 319.626,-28.0793 322.556,-21.7221"/>
</g>
<!-- Node15&#45;&gt;Node13 -->
<g id="edge52" class="edge"><title>Node15&#45;&gt;Node13</title>
<path fill="none" stroke="midnightblue" d="M515.741,-117.552C548.929,-107.976 600.57,-93.0744 637.89,-82.3054"/>
<polygon fill="midnightblue" stroke="midnightblue" points="638.891,-85.6594 647.529,-79.5241 636.95,-78.9338 638.891,-85.6594"/>
</g>
<!-- Node16 -->
<g id="node40" class="node"><title>Node16</title>
<polygon fill="white" stroke="#bfbfbf" points="218,-58.5 218,-79.5 282,-79.5 282,-58.5 218,-58.5"/>
<text text-anchor="middle" x="250" y="-66.5" font-family="Verdana" font-size="10.00">XmlSink.h</text>
</g>
<!-- Node15&#45;&gt;Node16 -->
<g id="edge48" class="edge"><title>Node15&#45;&gt;Node16</title>
<path fill="none" stroke="midnightblue" d="M450.348,-118.151C447.527,-117.414 444.715,-116.688 442,-116 378.124,-99.8204 359.529,-97.1608 292.061,-80.2204"/>
<polygon fill="midnightblue" stroke="midnightblue" points="292.759,-76.7869 282.207,-77.7323 291.046,-83.5739 292.759,-76.7869"/>
</g>
<!-- Node17 -->
<g id="node42" class="node"><title>Node17</title>
<polygon fill="white" stroke="#bfbfbf" points="299.5,-58.5 299.5,-79.5 376.5,-79.5 376.5,-58.5 299.5,-58.5"/>
<text text-anchor="middle" x="338" y="-66.5" font-family="Verdana" font-size="10.00">XmlSource.h</text>
</g>
<!-- Node15&#45;&gt;Node17 -->
<g id="edge50" class="edge"><title>Node15&#45;&gt;Node17</title>
<path fill="none" stroke="midnightblue" d="M456.742,-116.497C433.584,-107.234 399.625,-93.6499 373.948,-83.3793"/>
<polygon fill="midnightblue" stroke="midnightblue" points="375.138,-80.0855 364.553,-79.6212 372.538,-86.5849 375.138,-80.0855"/>
</g>
<!-- Node19&#45;&gt;Node12 -->
<g id="edge68" class="edge"><title>Node19&#45;&gt;Node12</title>
<path fill="none" stroke="midnightblue" d="M121.79,-232.198C112.318,-223.541 100.328,-210.48 95,-196 91.6238,-186.824 91.6174,-183.174 95,-174 118.448,-110.406 140.447,-99.5452 194,-58 213.567,-42.8204 238.822,-30.6946 258.517,-22.5638"/>
<polygon fill="midnightblue" stroke="midnightblue" points="259.98,-25.7484 267.969,-18.7894 257.384,-19.2475 259.98,-25.7484"/>
</g>
<!-- Node19&#45;&gt;Node14 -->
<g id="edge64" class="edge"><title>Node19&#45;&gt;Node14</title>
<path fill="none" stroke="midnightblue" d="M171.943,-232.497C205.632,-222.918 255.573,-208.72 292.074,-198.342"/>
<polygon fill="midnightblue" stroke="midnightblue" points="293.326,-201.624 301.988,-195.523 291.412,-194.891 293.326,-201.624"/>
</g>
<!-- Node19&#45;&gt;Node15 -->
<g id="edge62" class="edge"><title>Node19&#45;&gt;Node15</title>
<path fill="none" stroke="midnightblue" d="M190.156,-233.507C193.147,-232.996 196.11,-232.491 199,-232 294.083,-215.831 327.117,-239.889 413,-196 436.206,-184.141 456.636,-161.875 469.344,-145.84"/>
<polygon fill="midnightblue" stroke="midnightblue" points="472.289,-147.749 475.578,-137.678 466.726,-143.501 472.289,-147.749"/>
</g>
<!-- Node20 -->
<g id="node53" class="node"><title>Node20</title>
<polygon fill="white" stroke="#bfbfbf" points="104,-174.5 104,-195.5 256,-195.5 256,-174.5 104,-174.5"/>
<text text-anchor="middle" x="180" y="-182.5" font-family="Verdana" font-size="10.00">SelectionCriterionInterface.h</text>
</g>
<!-- Node19&#45;&gt;Node20 -->
<g id="edge66" class="edge"><title>Node19&#45;&gt;Node20</title>
<path fill="none" stroke="midnightblue" d="M143.254,-232.362C149.47,-224.35 158.151,-213.161 165.515,-203.67"/>
<polygon fill="midnightblue" stroke="midnightblue" points="168.434,-205.617 171.799,-195.571 162.903,-201.326 168.434,-205.617"/>
</g>
<!-- Node23&#45;&gt;Node3 -->
<g id="edge82" class="edge"><title>Node23&#45;&gt;Node3</title>
<path fill="none" stroke="midnightblue" d="M414.691,-348.362C428.416,-339.614 448.084,-327.079 463.737,-317.101"/>
<polygon fill="midnightblue" stroke="midnightblue" points="465.863,-319.897 472.415,-311.571 462.101,-313.994 465.863,-319.897"/>
</g>
<!-- Node23&#45;&gt;Node12 -->
<g id="edge84" class="edge"><title>Node23&#45;&gt;Node12</title>
<path fill="none" stroke="midnightblue" d="M341.399,-348.438C231.518,-327.151 0,-278.131 0,-243 0,-243 0,-243 0,-127 2.66454e-15,-79.3697 39.3393,-79.1826 82,-58 139.927,-29.2371 215.655,-17.8433 257.914,-13.5073"/>
<polygon fill="midnightblue" stroke="midnightblue" points="258.285,-16.9879 267.906,-12.5507 257.618,-10.0198 258.285,-16.9879"/>
</g>
<!-- Node24 -->
<g id="node64" class="node"><title>Node24</title>
<polygon fill="white" stroke="#bfbfbf" points="261,-290.5 261,-311.5 425,-311.5 425,-290.5 261,-290.5"/>
<text text-anchor="middle" x="343" y="-298.5" font-family="Verdana" font-size="10.00">ParameterMgrLoggerForward.h</text>
</g>
<!-- Node23&#45;&gt;Node24 -->
<g id="edge80" class="edge"><title>Node23&#45;&gt;Node24</title>
<path fill="none" stroke="midnightblue" d="M387.912,-348.362C380.159,-340.186 369.27,-328.702 360.155,-319.091"/>
<polygon fill="midnightblue" stroke="midnightblue" points="362.445,-316.419 353.024,-311.571 357.365,-321.235 362.445,-316.419"/>
</g>
</g>
</svg>
