<?xml version="1.0" encoding="UTF-8" standalone="no"?>
<!DOCTYPE svg PUBLIC "-//W3C//DTD SVG 1.1//EN"
 "http://www.w3.org/Graphics/SVG/1.1/DTD/svg11.dtd">
<!-- Generated by graphviz version 2.26.3 (20100126.1600)
 -->
<!-- Title: parameter/ParameterBlackboard.h Pages: 1 -->
<svg width="228pt" height="146pt"
 viewBox="0.00 0.00 228.00 146.00" xmlns="http://www.w3.org/2000/svg" xmlns:xlink="http://www.w3.org/1999/xlink">
<g id="graph1" class="graph" transform="scale(1 1) rotate(0) translate(4 142)">
<title>parameter/ParameterBlackboard.h</title>
<polygon fill="white" stroke="white" points="-4,5 -4,-142 225,-142 225,5 -4,5"/>
<!-- Node1 -->
<g id="node1" class="node"><title>Node1</title>
<polygon fill="#bfbfbf" stroke="black" points="-0.5,-116.5 -0.5,-137.5 182.5,-137.5 182.5,-116.5 -0.5,-116.5"/>
<text text-anchor="middle" x="91" y="-124.5" font-family="Verdana" font-size="10.00">parameter/ParameterBlackboard.h</text>
</g>
<!-- Node2 -->
<g id="node3" class="node"><title>Node2</title>
<polygon fill="white" stroke="#bfbfbf" points="31.5,-0.5 31.5,-21.5 84.5,-21.5 84.5,-0.5 31.5,-0.5"/>
<text text-anchor="middle" x="58" y="-8.5" font-family="Verdana" font-size="10.00">stdint.h</text>
</g>
<!-- Node1&#45;&gt;Node2 -->
<g id="edge2" class="edge"><title>Node1&#45;&gt;Node2</title>
<path fill="none" stroke="midnightblue" d="M86.3813,-116.333C82.4304,-106.91 76.7966,-92.727 73,-80 68.2439,-64.0566 64.3148,-45.6248 61.6726,-31.8242"/>
<polygon fill="midnightblue" stroke="midnightblue" points="65.0952,-31.0839 59.8383,-21.8853 58.2114,-32.3544 65.0952,-31.0839"/>
</g>
<!-- Node3 -->
<g id="node5" class="node"><title>Node3</title>
<a xlink:href="BinaryStream_8h.html" target="_top" xlink:title="BinaryStream.h">
<polygon fill="white" stroke="black" points="82,-58.5 82,-79.5 174,-79.5 174,-58.5 82,-58.5"/>
<text text-anchor="middle" x="128" y="-66.5" font-family="Verdana" font-size="10.00">BinaryStream.h</text>
</a>
</g>
<!-- Node1&#45;&gt;Node3 -->
<g id="edge4" class="edge"><title>Node1&#45;&gt;Node3</title>
<path fill="none" stroke="midnightblue" d="M97.7864,-116.362C102.793,-108.513 109.745,-97.6159 115.718,-88.2527"/>
<polygon fill="midnightblue" stroke="midnightblue" points="118.829,-89.8837 121.257,-79.5707 112.928,-86.1189 118.829,-89.8837"/>
</g>
<!-- Node3&#45;&gt;Node2 -->
<g id="edge6" class="edge"><title>Node3&#45;&gt;Node2</title>
<path fill="none" stroke="midnightblue" d="M115.161,-58.3619C104.998,-49.9408 90.5989,-38.0105 78.7958,-28.2308"/>
<polygon fill="midnightblue" stroke="midnightblue" points="80.691,-25.2558 70.7577,-21.5707 76.2248,-30.6459 80.691,-25.2558"/>
</g>
<!-- Node4 -->
<g id="node8" class="node"><title>Node4</title>
<polygon fill="white" stroke="#bfbfbf" points="104,-0.5 104,-21.5 148,-21.5 148,-0.5 104,-0.5"/>
<text text-anchor="middle" x="126" y="-8.5" font-family="Verdana" font-size="10.00">string</text>
</g>
<!-- Node3&#45;&gt;Node4 -->
<g id="edge8" class="edge"><title>Node3&#45;&gt;Node4</title>
<path fill="none" stroke="midnightblue" d="M127.633,-58.3619C127.377,-50.9219 127.026,-40.7427 126.715,-31.7276"/>
<polygon fill="midnightblue" stroke="midnightblue" points="130.207,-31.4441 126.365,-21.5707 123.211,-31.6854 130.207,-31.4441"/>
</g>
<!-- Node5 -->
<g id="node10" class="node"><title>Node5</title>
<polygon fill="white" stroke="#bfbfbf" points="166,-0.5 166,-21.5 220,-21.5 220,-0.5 166,-0.5"/>
<text text-anchor="middle" x="193" y="-8.5" font-family="Verdana" font-size="10.00">fstream</text>
</g>
<!-- Node3&#45;&gt;Node5 -->
<g id="edge10" class="edge"><title>Node3&#45;&gt;Node5</title>
<path fill="none" stroke="midnightblue" d="M139.922,-58.3619C149.359,-49.9408 162.73,-38.0105 173.69,-28.2308"/>
<polygon fill="midnightblue" stroke="midnightblue" points="176.022,-30.8401 181.154,-21.5707 171.362,-25.6171 176.022,-30.8401"/>
</g>
</g>
</svg>
