<?xml version="1.0" encoding="UTF-8" standalone="no"?>
<!DOCTYPE svg PUBLIC "-//W3C//DTD SVG 1.1//EN"
 "http://www.w3.org/Graphics/SVG/1.1/DTD/svg11.dtd">
<!-- Generated by graphviz version 2.26.3 (20100126.1600)
 -->
<!-- Title: parameter/ParameterMgrLogger.h Pages: 1 -->
<svg width="1426pt" height="378pt"
 viewBox="0.00 0.00 1426.33 378.00" xmlns="http://www.w3.org/2000/svg" xmlns:xlink="http://www.w3.org/1999/xlink">
<g id="graph1" class="graph" transform="scale(1 1) rotate(0) translate(4 374)">
<title>parameter/ParameterMgrLogger.h</title>
<polygon fill="white" stroke="white" points="-4,5 -4,-374 1423.33,-374 1423.33,5 -4,5"/>
<!-- Node1 -->
<g id="node1" class="node"><title>Node1</title>
<polygon fill="#bfbfbf" stroke="black" points="102,-348.5 102,-369.5 282,-369.5 282,-348.5 102,-348.5"/>
<text text-anchor="middle" x="192" y="-356.5" font-family="Verdana" font-size="10.00">parameter/ParameterMgrLogger.h</text>
</g>
<!-- Node2 -->
<g id="node3" class="node"><title>Node2</title>
<polygon fill="white" stroke="#bfbfbf" points="0,-290.5 0,-311.5 164,-311.5 164,-290.5 0,-290.5"/>
<text text-anchor="middle" x="82" y="-298.5" font-family="Verdana" font-size="10.00">ParameterMgrLoggerForward.h</text>
</g>
<!-- Node1&#45;&gt;Node2 -->
<g id="edge2" class="edge"><title>Node1&#45;&gt;Node2</title>
<path fill="none" stroke="midnightblue" d="M172.08,-348.497C155.054,-339.519 130.331,-326.484 111.091,-316.339"/>
<polygon fill="midnightblue" stroke="midnightblue" points="112.622,-313.189 102.144,-311.621 109.357,-319.381 112.622,-313.189"/>
</g>
<!-- Node3 -->
<g id="node5" class="node"><title>Node3</title>
<a xlink:href="ParameterMgr_8h.html" target="_top" xlink:title="ParameterMgr.h">
<polygon fill="white" stroke="black" points="875.5,-290.5 875.5,-311.5 968.5,-311.5 968.5,-290.5 875.5,-290.5"/>
<text text-anchor="middle" x="922" y="-298.5" font-family="Verdana" font-size="10.00">ParameterMgr.h</text>
</a>
</g>
<!-- Node1&#45;&gt;Node3 -->
<g id="edge4" class="edge"><title>Node1&#45;&gt;Node3</title>
<path fill="none" stroke="midnightblue" d="M282.244,-351.83C434.741,-339.714 739.114,-315.531 865.233,-305.51"/>
<polygon fill="midnightblue" stroke="midnightblue" points="865.748,-308.98 875.439,-304.699 865.193,-302.002 865.748,-308.98"/>
</g>
<!-- Node12 -->
<g id="node24" class="node"><title>Node12</title>
<polygon fill="white" stroke="#bfbfbf" points="549,-0.5 549,-21.5 593,-21.5 593,-0.5 549,-0.5"/>
<text text-anchor="middle" x="571" y="-8.5" font-family="Verdana" font-size="10.00">string</text>
</g>
<!-- Node1&#45;&gt;Node12 -->
<g id="edge78" class="edge"><title>Node1&#45;&gt;Node12</title>
<path fill="none" stroke="midnightblue" d="M192,-348.444C192,-328.062 192,-281.868 192,-243 192,-243 192,-243 192,-127 192,-54.6865 447.467,-22.9226 538.92,-13.8685"/>
<polygon fill="midnightblue" stroke="midnightblue" points="539.367,-17.3417 548.985,-12.8987 538.696,-10.3739 539.367,-17.3417"/>
</g>
<!-- Node4 -->
<g id="node7" class="node"><title>Node4</title>
<polygon fill="white" stroke="#bfbfbf" points="1326.5,-232.5 1326.5,-253.5 1389.5,-253.5 1389.5,-232.5 1326.5,-232.5"/>
<text text-anchor="middle" x="1358" y="-240.5" font-family="Verdana" font-size="10.00">pthread.h</text>
</g>
<!-- Node3&#45;&gt;Node4 -->
<g id="edge6" class="edge"><title>Node3&#45;&gt;Node4</title>
<path fill="none" stroke="midnightblue" d="M968.686,-297.744C1041.21,-292.186 1185.42,-279.149 1316.05,-254.177"/>
<polygon fill="midnightblue" stroke="midnightblue" points="1317.08,-257.543 1326.23,-252.201 1315.74,-250.671 1317.08,-257.543"/>
</g>
<!-- Node5 -->
<g id="node9" class="node"><title>Node5</title>
<polygon fill="white" stroke="#bfbfbf" points="220,-116.5 220,-137.5 258,-137.5 258,-116.5 220,-116.5"/>
<text text-anchor="middle" x="239" y="-124.5" font-family="Verdana" font-size="10.00">map</text>
</g>
<!-- Node3&#45;&gt;Node5 -->
<g id="edge8" class="edge"><title>Node3&#45;&gt;Node5</title>
<path fill="none" stroke="midnightblue" d="M875.422,-298.41C774.373,-292.441 537.929,-276.485 461,-254 380.904,-230.589 298.766,-173.107 260.75,-144.195"/>
<polygon fill="midnightblue" stroke="midnightblue" points="262.539,-141.155 252.481,-137.825 258.267,-146.701 262.539,-141.155"/>
</g>
<!-- Node6 -->
<g id="node11" class="node"><title>Node6</title>
<polygon fill="white" stroke="#bfbfbf" points="1139.5,-0.5 1139.5,-21.5 1186.5,-21.5 1186.5,-0.5 1139.5,-0.5"/>
<text text-anchor="middle" x="1163" y="-8.5" font-family="Verdana" font-size="10.00">vector</text>
</g>
<!-- Node3&#45;&gt;Node6 -->
<g id="edge10" class="edge"><title>Node3&#45;&gt;Node6</title>
<path fill="none" stroke="midnightblue" d="M968.515,-299.364C1081.88,-294.966 1365.58,-281.325 1398,-254 1422.32,-233.502 1417,-216.808 1417,-185 1417,-185 1417,-185 1417,-127 1417,-79.1597 1266.02,-36.1365 1196.87,-18.9388"/>
<polygon fill="midnightblue" stroke="midnightblue" points="1197.44,-15.4758 1186.9,-16.4972 1195.78,-22.275 1197.44,-15.4758"/>
</g>
<!-- Node7 -->
<g id="node13" class="node"><title>Node7</title>
<polygon fill="white" stroke="#bfbfbf" points="1148,-58.5 1148,-79.5 1178,-79.5 1178,-58.5 1148,-58.5"/>
<text text-anchor="middle" x="1163" y="-66.5" font-family="Verdana" font-size="10.00">list</text>
</g>
<!-- Node3&#45;&gt;Node7 -->
<g id="edge12" class="edge"><title>Node3&#45;&gt;Node7</title>
<path fill="none" stroke="midnightblue" d="M947.556,-290.35C965.779,-282.033 990.269,-269.332 1009,-254 1071.04,-203.216 1126.59,-124.645 1150.53,-88.4587"/>
<polygon fill="midnightblue" stroke="midnightblue" points="1153.63,-90.1091 1156.17,-79.8233 1147.77,-86.28 1153.63,-90.1091"/>
</g>
<!-- Node8 -->
<g id="node15" class="node"><title>Node8</title>
<a xlink:href="RemoteCommandHandlerTemplate_8h.html" target="_top" xlink:title="RemoteCommandHandlerTemplate.h">
<polygon fill="white" stroke="black" points="825,-174.5 825,-195.5 1019,-195.5 1019,-174.5 825,-174.5"/>
<text text-anchor="middle" x="922" y="-182.5" font-family="Verdana" font-size="10.00">RemoteCommandHandlerTemplate.h</text>
</a>
</g>
<!-- Node3&#45;&gt;Node8 -->
<g id="edge14" class="edge"><title>Node3&#45;&gt;Node8</title>
<path fill="none" stroke="midnightblue" d="M922,-290.295C922,-271.131 922,-230.654 922,-205.843"/>
<polygon fill="midnightblue" stroke="midnightblue" points="925.5,-205.679 922,-195.679 918.5,-205.679 925.5,-205.679"/>
</g>
<!-- Node3&#45;&gt;Node12 -->
<g id="edge76" class="edge"><title>Node3&#45;&gt;Node12</title>
<path fill="none" stroke="midnightblue" d="M875.348,-296.655C800.882,-289.265 658.781,-273.169 612,-254 571.362,-237.349 551.958,-235.12 532,-196 503.64,-140.41 538.916,-65.3506 558.948,-30.4025"/>
<polygon fill="midnightblue" stroke="midnightblue" points="562.043,-32.0459 564.129,-21.6585 556.02,-28.4779 562.043,-32.0459"/>
</g>
<!-- Node13 -->
<g id="node27" class="node"><title>Node13</title>
<a xlink:href="PathNavigator_8h.html" target="_top" xlink:title="PathNavigator.h">
<polygon fill="white" stroke="black" points="786,-58.5 786,-79.5 878,-79.5 878,-58.5 786,-58.5"/>
<text text-anchor="middle" x="832" y="-66.5" font-family="Verdana" font-size="10.00">PathNavigator.h</text>
</a>
</g>
<!-- Node3&#45;&gt;Node13 -->
<g id="edge28" class="edge"><title>Node3&#45;&gt;Node13</title>
<path fill="none" stroke="midnightblue" d="M904.683,-290.386C879.562,-273.844 834.044,-239.273 816,-196 801.191,-160.486 813.733,-114.916 823.403,-89.1386"/>
<polygon fill="midnightblue" stroke="midnightblue" points="826.718,-90.2748 827.157,-79.6891 820.212,-87.6902 826.718,-90.2748"/>
</g>
<!-- Node14 -->
<g id="node32" class="node"><title>Node14</title>
<a xlink:href="SelectionCriterionType_8h.html" target="_top" xlink:title="SelectionCriterionType.h">
<polygon fill="white" stroke="black" points="354.5,-174.5 354.5,-195.5 485.5,-195.5 485.5,-174.5 354.5,-174.5"/>
<text text-anchor="middle" x="420" y="-182.5" font-family="Verdana" font-size="10.00">SelectionCriterionType.h</text>
</a>
</g>
<!-- Node3&#45;&gt;Node14 -->
<g id="edge36" class="edge"><title>Node3&#45;&gt;Node14</title>
<path fill="none" stroke="midnightblue" d="M875.205,-299.315C779.656,-295.306 565.539,-283.26 499,-254 473.165,-242.639 449.656,-219.744 435.126,-203.445"/>
<polygon fill="midnightblue" stroke="midnightblue" points="437.561,-200.909 428.382,-195.619 432.259,-205.479 437.561,-200.909"/>
</g>
<!-- Node15 -->
<g id="node34" class="node"><title>Node15</title>
<a xlink:href="Element_8h.html" target="_top" xlink:title="Element.h">
<polygon fill="white" stroke="black" points="948.5,-116.5 948.5,-137.5 1013.5,-137.5 1013.5,-116.5 948.5,-116.5"/>
<text text-anchor="middle" x="981" y="-124.5" font-family="Verdana" font-size="10.00">Element.h</text>
</a>
</g>
<!-- Node3&#45;&gt;Node15 -->
<g id="edge70" class="edge"><title>Node3&#45;&gt;Node15</title>
<path fill="none" stroke="midnightblue" d="M939.317,-290.386C964.438,-273.844 1009.96,-239.273 1028,-196 1036.03,-176.748 1020.18,-157.335 1004.76,-144.027"/>
<polygon fill="midnightblue" stroke="midnightblue" points="1006.84,-141.212 996.862,-137.657 1002.45,-146.66 1006.84,-141.212"/>
</g>
<!-- Node19 -->
<g id="node49" class="node"><title>Node19</title>
<a xlink:href="SelectionCriterion_8h.html" target="_top" xlink:title="SelectionCriterion.h">
<polygon fill="white" stroke="black" points="621,-232.5 621,-253.5 731,-253.5 731,-232.5 621,-232.5"/>
<text text-anchor="middle" x="676" y="-240.5" font-family="Verdana" font-size="10.00">SelectionCriterion.h</text>
</a>
</g>
<!-- Node3&#45;&gt;Node19 -->
<g id="edge60" class="edge"><title>Node3&#45;&gt;Node19</title>
<path fill="none" stroke="midnightblue" d="M877.451,-290.497C836.218,-280.775 774.798,-266.294 730.624,-255.879"/>
<polygon fill="midnightblue" stroke="midnightblue" points="731.169,-252.411 720.632,-253.523 729.562,-259.225 731.169,-252.411"/>
</g>
<!-- Node21 -->
<g id="node57" class="node"><title>Node21</title>
<polygon fill="white" stroke="#bfbfbf" points="1112.5,-232.5 1112.5,-253.5 1195.5,-253.5 1195.5,-232.5 1112.5,-232.5"/>
<text text-anchor="middle" x="1154" y="-240.5" font-family="Verdana" font-size="10.00">XmlDocSink.h</text>
</g>
<!-- Node3&#45;&gt;Node21 -->
<g id="edge72" class="edge"><title>Node3&#45;&gt;Node21</title>
<path fill="none" stroke="midnightblue" d="M964.013,-290.497C1002.86,-280.786 1060.7,-266.326 1102.35,-255.913"/>
<polygon fill="midnightblue" stroke="midnightblue" points="1103.45,-259.246 1112.3,-253.425 1101.75,-252.455 1103.45,-259.246"/>
</g>
<!-- Node22 -->
<g id="node59" class="node"><title>Node22</title>
<polygon fill="white" stroke="#bfbfbf" points="1213,-232.5 1213,-253.5 1309,-253.5 1309,-232.5 1213,-232.5"/>
<text text-anchor="middle" x="1261" y="-240.5" font-family="Verdana" font-size="10.00">XmlDocSource.h</text>
</g>
<!-- Node3&#45;&gt;Node22 -->
<g id="edge74" class="edge"><title>Node3&#45;&gt;Node22</title>
<path fill="none" stroke="midnightblue" d="M968.966,-293.548C1022.97,-284.896 1114.53,-269.971 1202.89,-254.169"/>
<polygon fill="midnightblue" stroke="midnightblue" points="1203.59,-257.6 1212.81,-252.389 1202.35,-250.71 1203.59,-257.6"/>
</g>
<!-- Node8&#45;&gt;Node6 -->
<g id="edge16" class="edge"><title>Node8&#45;&gt;Node6</title>
<path fill="none" stroke="midnightblue" d="M1015.52,-174.447C1075.42,-162.302 1148.83,-136.181 1187,-80 1197.39,-64.7095 1188.17,-44.464 1178.3,-29.8619"/>
<polygon fill="midnightblue" stroke="midnightblue" points="1180.98,-27.5914 1172.24,-21.5941 1175.33,-31.729 1180.98,-27.5914"/>
</g>
<!-- Node9 -->
<g id="node18" class="node"><title>Node9</title>
<a xlink:href="RemoteCommandHandler_8h.html" target="_top" xlink:title="RemoteCommandHandler.h">
<polygon fill="white" stroke="black" points="582.5,-116.5 582.5,-137.5 731.5,-137.5 731.5,-116.5 582.5,-116.5"/>
<text text-anchor="middle" x="657" y="-124.5" font-family="Verdana" font-size="10.00">RemoteCommandHandler.h</text>
</a>
</g>
<!-- Node8&#45;&gt;Node9 -->
<g id="edge18" class="edge"><title>Node8&#45;&gt;Node9</title>
<path fill="none" stroke="midnightblue" d="M874.01,-174.497C829.312,-164.714 762.592,-150.111 714.943,-139.682"/>
<polygon fill="midnightblue" stroke="midnightblue" points="715.597,-136.242 705.08,-137.523 714.1,-143.08 715.597,-136.242"/>
</g>
<!-- Node10 -->
<g id="node20" class="node"><title>Node10</title>
<a xlink:href="RemoteCommand_8h.html" target="_top" xlink:title="RemoteCommand.h">
<polygon fill="white" stroke="black" points="655.5,-58.5 655.5,-79.5 768.5,-79.5 768.5,-58.5 655.5,-58.5"/>
<text text-anchor="middle" x="712" y="-66.5" font-family="Verdana" font-size="10.00">RemoteCommand.h</text>
</a>
</g>
<!-- Node9&#45;&gt;Node10 -->
<g id="edge20" class="edge"><title>Node9&#45;&gt;Node10</title>
<path fill="none" stroke="midnightblue" d="M667.088,-116.362C674.841,-108.186 685.73,-96.7025 694.845,-87.0907"/>
<polygon fill="midnightblue" stroke="midnightblue" points="697.635,-89.2352 701.976,-79.5707 692.555,-84.4186 697.635,-89.2352"/>
</g>
<!-- Node9&#45;&gt;Node12 -->
<g id="edge26" class="edge"><title>Node9&#45;&gt;Node12</title>
<path fill="none" stroke="midnightblue" d="M646.146,-116.296C637.067,-107.08 624.028,-93.215 614,-80 601.937,-64.1038 590.084,-44.7215 581.887,-30.5514"/>
<polygon fill="midnightblue" stroke="midnightblue" points="584.827,-28.6412 576.839,-21.681 578.743,-32.1034 584.827,-28.6412"/>
</g>
<!-- Node11 -->
<g id="node22" class="node"><title>Node11</title>
<polygon fill="white" stroke="#bfbfbf" points="805.5,-0.5 805.5,-21.5 858.5,-21.5 858.5,-0.5 805.5,-0.5"/>
<text text-anchor="middle" x="832" y="-8.5" font-family="Verdana" font-size="10.00">stdint.h</text>
</g>
<!-- Node10&#45;&gt;Node11 -->
<g id="edge22" class="edge"><title>Node10&#45;&gt;Node11</title>
<path fill="none" stroke="midnightblue" d="M733.731,-58.4966C752.474,-49.4378 779.767,-36.2462 800.836,-26.0628"/>
<polygon fill="midnightblue" stroke="midnightblue" points="802.545,-29.1242 810.025,-21.6212 799.498,-22.8217 802.545,-29.1242"/>
</g>
<!-- Node10&#45;&gt;Node12 -->
<g id="edge24" class="edge"><title>Node10&#45;&gt;Node12</title>
<path fill="none" stroke="midnightblue" d="M686.466,-58.4966C662.926,-48.8134 627.906,-34.4082 602.609,-24.0025"/>
<polygon fill="midnightblue" stroke="midnightblue" points="603.679,-20.6578 593.099,-20.0904 601.016,-27.1315 603.679,-20.6578"/>
</g>
<!-- Node13&#45;&gt;Node6 -->
<g id="edge30" class="edge"><title>Node13&#45;&gt;Node6</title>
<path fill="none" stroke="midnightblue" d="M878.195,-59.661C881.173,-59.0899 884.127,-58.5317 887,-58 974.192,-41.8602 1077.28,-24.8555 1129.32,-16.4149"/>
<polygon fill="midnightblue" stroke="midnightblue" points="1130.02,-19.8479 1139.33,-14.7954 1128.9,-12.9378 1130.02,-19.8479"/>
</g>
<!-- Node13&#45;&gt;Node11 -->
<g id="edge34" class="edge"><title>Node13&#45;&gt;Node11</title>
<path fill="none" stroke="midnightblue" d="M832,-58.3619C832,-50.9219 832,-40.7427 832,-31.7276"/>
<polygon fill="midnightblue" stroke="midnightblue" points="835.5,-31.5706 832,-21.5707 828.5,-31.5707 835.5,-31.5706"/>
</g>
<!-- Node13&#45;&gt;Node12 -->
<g id="edge32" class="edge"><title>Node13&#45;&gt;Node12</title>
<path fill="none" stroke="midnightblue" d="M785.939,-58.7643C733.397,-47.0882 648.851,-28.3003 603.023,-18.1161"/>
<polygon fill="midnightblue" stroke="midnightblue" points="603.573,-14.653 593.051,-15.9003 602.054,-21.4864 603.573,-14.653"/>
</g>
<!-- Node14&#45;&gt;Node5 -->
<g id="edge54" class="edge"><title>Node14&#45;&gt;Node5</title>
<path fill="none" stroke="midnightblue" d="M382.955,-174.481C353.877,-166.032 312.208,-153.507 267.736,-138.1"/>
<polygon fill="midnightblue" stroke="midnightblue" points="268.802,-134.765 258.208,-134.769 266.492,-141.373 268.802,-134.765"/>
</g>
<!-- Node14&#45;&gt;Node12 -->
<g id="edge56" class="edge"><title>Node14&#45;&gt;Node12</title>
<path fill="none" stroke="midnightblue" d="M429.386,-174.2C437.227,-164.926 448.463,-151.029 457,-138 479.123,-104.236 472.793,-87.8194 500,-58 511.414,-45.4896 526.832,-34.7638 540.383,-26.7308"/>
<polygon fill="midnightblue" stroke="midnightblue" points="542.429,-29.5939 549.394,-21.6108 538.971,-23.5076 542.429,-29.5939"/>
</g>
<!-- Node14&#45;&gt;Node15 -->
<g id="edge38" class="edge"><title>Node14&#45;&gt;Node15</title>
<path fill="none" stroke="midnightblue" d="M485.727,-178.205C602,-166.184 840.857,-141.489 938.244,-131.42"/>
<polygon fill="midnightblue" stroke="midnightblue" points="938.726,-134.889 948.313,-130.379 938.006,-127.926 938.726,-134.889"/>
</g>
<!-- Node18 -->
<g id="node47" class="node"><title>Node18</title>
<polygon fill="white" stroke="#bfbfbf" points="275.5,-116.5 275.5,-137.5 448.5,-137.5 448.5,-116.5 275.5,-116.5"/>
<text text-anchor="middle" x="362" y="-124.5" font-family="Verdana" font-size="10.00">SelectionCriterionTypeInterface.h</text>
</g>
<!-- Node14&#45;&gt;Node18 -->
<g id="edge58" class="edge"><title>Node14&#45;&gt;Node18</title>
<path fill="none" stroke="midnightblue" d="M409.362,-174.362C401.104,-166.104 389.472,-154.472 379.803,-144.803"/>
<polygon fill="midnightblue" stroke="midnightblue" points="382.117,-142.167 372.571,-137.571 377.167,-147.117 382.117,-142.167"/>
</g>
<!-- Node15&#45;&gt;Node6 -->
<g id="edge42" class="edge"><title>Node15&#45;&gt;Node6</title>
<path fill="none" stroke="midnightblue" d="M1007.28,-116.448C1027.55,-107.831 1055.93,-94.7054 1079,-80 1102.99,-64.7112 1127.85,-43.5065 1144.24,-28.652"/>
<polygon fill="midnightblue" stroke="midnightblue" points="1146.99,-30.8725 1151.99,-21.5279 1142.26,-25.7193 1146.99,-30.8725"/>
</g>
<!-- Node15&#45;&gt;Node7 -->
<g id="edge46" class="edge"><title>Node15&#45;&gt;Node7</title>
<path fill="none" stroke="midnightblue" d="M1013.73,-117.611C1044.84,-108.528 1092.86,-94.1038 1134,-80 1135.4,-79.5197 1136.84,-79.0157 1138.28,-78.4986"/>
<polygon fill="midnightblue" stroke="midnightblue" points="1139.55,-81.7604 1147.72,-75.0087 1137.12,-75.1951 1139.55,-81.7604"/>
</g>
<!-- Node15&#45;&gt;Node11 -->
<g id="edge44" class="edge"><title>Node15&#45;&gt;Node11</title>
<path fill="none" stroke="midnightblue" d="M1011.25,-116.392C1042.02,-103.961 1082.6,-81.9895 1063,-58 1038.88,-28.476 927.513,-17.0317 868.67,-12.9888"/>
<polygon fill="midnightblue" stroke="midnightblue" points="868.875,-9.4949 858.669,-12.3384 868.421,-16.4801 868.875,-9.4949"/>
</g>
<!-- Node15&#45;&gt;Node12 -->
<g id="edge40" class="edge"><title>Node15&#45;&gt;Node12</title>
<path fill="none" stroke="midnightblue" d="M948.48,-124.864C875.36,-119.673 700.217,-104.955 647,-80 621.993,-68.2735 599.409,-45.4559 585.48,-29.2744"/>
<polygon fill="midnightblue" stroke="midnightblue" points="588.106,-26.9579 579.018,-21.5113 582.726,-31.4362 588.106,-26.9579"/>
</g>
<!-- Node15&#45;&gt;Node13 -->
<g id="edge52" class="edge"><title>Node15&#45;&gt;Node13</title>
<path fill="none" stroke="midnightblue" d="M954.017,-116.497C930.147,-107.205 895.106,-93.5649 868.693,-83.2832"/>
<polygon fill="midnightblue" stroke="midnightblue" points="869.622,-79.889 859.033,-79.5231 867.083,-86.4122 869.622,-79.889"/>
</g>
<!-- Node16 -->
<g id="node40" class="node"><title>Node16</title>
<polygon fill="white" stroke="#bfbfbf" points="990,-58.5 990,-79.5 1054,-79.5 1054,-58.5 990,-58.5"/>
<text text-anchor="middle" x="1022" y="-66.5" font-family="Verdana" font-size="10.00">XmlSink.h</text>
</g>
<!-- Node15&#45;&gt;Node16 -->
<g id="edge48" class="edge"><title>Node15&#45;&gt;Node16</title>
<path fill="none" stroke="midnightblue" d="M988.52,-116.362C994.126,-108.431 1001.93,-97.3885 1008.6,-87.9606"/>
<polygon fill="midnightblue" stroke="midnightblue" points="1011.61,-89.7568 1014.53,-79.5707 1005.9,-85.7161 1011.61,-89.7568"/>
</g>
<!-- Node17 -->
<g id="node42" class="node"><title>Node17</title>
<polygon fill="white" stroke="#bfbfbf" points="895.5,-58.5 895.5,-79.5 972.5,-79.5 972.5,-58.5 895.5,-58.5"/>
<text text-anchor="middle" x="934" y="-66.5" font-family="Verdana" font-size="10.00">XmlSource.h</text>
</g>
<!-- Node15&#45;&gt;Node17 -->
<g id="edge50" class="edge"><title>Node15&#45;&gt;Node17</title>
<path fill="none" stroke="midnightblue" d="M972.379,-116.362C965.82,-108.268 956.634,-96.9318 948.894,-87.3796"/>
<polygon fill="midnightblue" stroke="midnightblue" points="951.581,-85.1364 942.566,-79.5707 946.142,-89.5436 951.581,-85.1364"/>
</g>
<!-- Node19&#45;&gt;Node12 -->
<g id="edge68" class="edge"><title>Node19&#45;&gt;Node12</title>
<path fill="none" stroke="midnightblue" d="M686.016,-232.258C698.214,-217.838 715.605,-191.959 702,-174 666.315,-126.894 610.239,-184.681 574,-138 550.121,-107.24 557.754,-58.4987 564.79,-31.2112"/>
<polygon fill="midnightblue" stroke="midnightblue" points="568.163,-32.144 567.485,-21.5708 561.421,-30.2591 568.163,-32.144"/>
</g>
<!-- Node19&#45;&gt;Node14 -->
<g id="edge64" class="edge"><title>Node19&#45;&gt;Node14</title>
<path fill="none" stroke="midnightblue" d="M629.64,-232.497C586.55,-222.734 522.275,-208.172 476.264,-197.747"/>
<polygon fill="midnightblue" stroke="midnightblue" points="476.973,-194.319 466.447,-195.523 475.426,-201.146 476.973,-194.319"/>
</g>
<!-- Node19&#45;&gt;Node15 -->
<g id="edge62" class="edge"><title>Node19&#45;&gt;Node15</title>
<path fill="none" stroke="midnightblue" d="M694.982,-232.269C721.451,-217.626 771.244,-191.241 816,-174 856.68,-158.329 904.777,-145.214 938.513,-136.855"/>
<polygon fill="midnightblue" stroke="midnightblue" points="939.614,-140.189 948.498,-134.416 937.953,-133.389 939.614,-140.189"/>
</g>
<!-- Node20 -->
<g id="node53" class="node"><title>Node20</title>
<polygon fill="white" stroke="#bfbfbf" points="541,-174.5 541,-195.5 693,-195.5 693,-174.5 541,-174.5"/>
<text text-anchor="middle" x="617" y="-182.5" font-family="Verdana" font-size="10.00">SelectionCriterionInterface.h</text>
</g>
<!-- Node19&#45;&gt;Node20 -->
<g id="edge66" class="edge"><title>Node19&#45;&gt;Node20</title>
<path fill="none" stroke="midnightblue" d="M665.178,-232.362C656.779,-224.104 644.946,-212.472 635.11,-202.803"/>
<polygon fill="midnightblue" stroke="midnightblue" points="637.338,-200.085 627.753,-195.571 632.431,-205.077 637.338,-200.085"/>
</g>
</g>
</svg>
