<?xml version="1.0" encoding="UTF-8" standalone="no"?>
<!DOCTYPE svg PUBLIC "-//W3C//DTD SVG 1.1//EN"
 "http://www.w3.org/Graphics/SVG/1.1/DTD/svg11.dtd">
<!-- Generated by graphviz version 2.26.3 (20100126.1600)
 -->
<!-- Title: parameter/ParameterAccessContext.cpp Pages: 1 -->
<svg width="198pt" height="218pt"
 viewBox="0.00 0.00 198.00 218.00" xmlns="http://www.w3.org/2000/svg" xmlns:xlink="http://www.w3.org/1999/xlink">
<g id="graph1" class="graph" transform="scale(1 1) rotate(0) translate(4 214)">
<title>parameter/ParameterAccessContext.cpp</title>
<polygon fill="white" stroke="white" points="-4,5 -4,-214 195,-214 195,5 -4,5"/>
<!-- Node1 -->
<g id="node1" class="node"><title>Node1</title>
<polygon fill="#bfbfbf" stroke="black" points="35.5,-175 35.5,-209 190.5,-209 190.5,-175 35.5,-175"/>
<text text-anchor="start" x="43.5" y="-196" font-family="Verdana" font-size="10.00">parameter/ParameterAccess</text>
<text text-anchor="middle" x="113" y="-183" font-family="Verdana" font-size="10.00">Context.cpp</text>
</g>
<!-- Node2 -->
<g id="node3" class="node"><title>Node2</title>
<a xlink:href="ParameterAccessContext_8h.html" target="_top" xlink:title="ParameterAccessContext.h">
<polygon fill="white" stroke="black" points="39.5,-116.5 39.5,-137.5 186.5,-137.5 186.5,-116.5 39.5,-116.5"/>
<text text-anchor="middle" x="113" y="-124.5" font-family="Verdana" font-size="10.00">ParameterAccessContext.h</text>
</a>
</g>
<!-- Node1&#45;&gt;Node2 -->
<g id="edge2" class="edge"><title>Node1&#45;&gt;Node2</title>
<path fill="none" stroke="midnightblue" d="M113,-174.922C113,-166.67 113,-156.692 113,-147.982"/>
<polygon fill="midnightblue" stroke="midnightblue" points="116.5,-147.852 113,-137.852 109.5,-147.852 116.5,-147.852"/>
</g>
<!-- Node3 -->
<g id="node5" class="node"><title>Node3</title>
<polygon fill="white" stroke="#bfbfbf" points="-0.5,-58.5 -0.5,-79.5 52.5,-79.5 52.5,-58.5 -0.5,-58.5"/>
<text text-anchor="middle" x="26" y="-66.5" font-family="Verdana" font-size="10.00">stdint.h</text>
</g>
<!-- Node2&#45;&gt;Node3 -->
<g id="edge4" class="edge"><title>Node2&#45;&gt;Node3</title>
<path fill="none" stroke="midnightblue" d="M97.0429,-116.362C84.0433,-107.696 65.4688,-95.3126 50.5728,-85.3819"/>
<polygon fill="midnightblue" stroke="midnightblue" points="52.118,-82.2055 41.856,-79.5707 48.235,-88.0299 52.118,-82.2055"/>
</g>
<!-- Node4 -->
<g id="node7" class="node"><title>Node4</title>
<a xlink:href="ErrorContext_8h.html" target="_top" xlink:title="ErrorContext.h">
<polygon fill="white" stroke="black" points="70,-58.5 70,-79.5 156,-79.5 156,-58.5 70,-58.5"/>
<text text-anchor="middle" x="113" y="-66.5" font-family="Verdana" font-size="10.00">ErrorContext.h</text>
</a>
</g>
<!-- Node2&#45;&gt;Node4 -->
<g id="edge6" class="edge"><title>Node2&#45;&gt;Node4</title>
<path fill="none" stroke="midnightblue" d="M113,-116.362C113,-108.922 113,-98.7427 113,-89.7276"/>
<polygon fill="midnightblue" stroke="midnightblue" points="116.5,-89.5706 113,-79.5707 109.5,-89.5707 116.5,-89.5706"/>
</g>
<!-- Node5 -->
<g id="node9" class="node"><title>Node5</title>
<polygon fill="white" stroke="#bfbfbf" points="126,-0.5 126,-21.5 170,-21.5 170,-0.5 126,-0.5"/>
<text text-anchor="middle" x="148" y="-8.5" font-family="Verdana" font-size="10.00">string</text>
</g>
<!-- Node2&#45;&gt;Node5 -->
<g id="edge10" class="edge"><title>Node2&#45;&gt;Node5</title>
<path fill="none" stroke="midnightblue" d="M131.095,-116.386C143.182,-108.167 158.085,-95.5701 165,-80 172.011,-64.2125 166.268,-45.0539 159.624,-30.9344"/>
<polygon fill="midnightblue" stroke="midnightblue" points="162.52,-28.9173 154.797,-21.6641 156.311,-32.1502 162.52,-28.9173"/>
</g>
<!-- Node4&#45;&gt;Node5 -->
<g id="edge8" class="edge"><title>Node4&#45;&gt;Node5</title>
<path fill="none" stroke="midnightblue" d="M119.42,-58.3619C124.156,-50.5131 130.732,-39.6159 136.382,-30.2527"/>
<polygon fill="midnightblue" stroke="midnightblue" points="139.451,-31.9409 141.621,-21.5707 133.458,-28.3242 139.451,-31.9409"/>
</g>
</g>
</svg>
