<?xml version="1.0" encoding="UTF-8" standalone="no"?>
<!DOCTYPE svg PUBLIC "-//W3C//DTD SVG 1.1//EN"
 "http://www.w3.org/Graphics/SVG/1.1/DTD/svg11.dtd">
<!-- Generated by graphviz version 2.26.3 (20100126.1600)
 -->
<!-- Title: parameter/Parameter.cpp Pages: 1 -->
<svg width="1154pt" height="494pt"
 viewBox="0.00 0.00 1154.00 494.00" xmlns="http://www.w3.org/2000/svg" xmlns:xlink="http://www.w3.org/1999/xlink">
<g id="graph1" class="graph" transform="scale(1 1) rotate(0) translate(4 490)">
<title>parameter/Parameter.cpp</title>
<polygon fill="white" stroke="white" points="-4,5 -4,-490 1151,-490 1151,5 -4,5"/>
<!-- Node1 -->
<g id="node1" class="node"><title>Node1</title>
<polygon fill="#bfbfbf" stroke="black" points="678,-464.5 678,-485.5 818,-485.5 818,-464.5 678,-464.5"/>
<text text-anchor="middle" x="748" y="-472.5" font-family="Verdana" font-size="10.00">parameter/Parameter.cpp</text>
</g>
<!-- Node2 -->
<g id="node3" class="node"><title>Node2</title>
<a xlink:href="Parameter_8h.html" target="_top" xlink:title="Parameter.h">
<polygon fill="white" stroke="black" points="531.5,-406.5 531.5,-427.5 606.5,-427.5 606.5,-406.5 531.5,-406.5"/>
<text text-anchor="middle" x="569" y="-414.5" font-family="Verdana" font-size="10.00">Parameter.h</text>
</a>
</g>
<!-- Node1&#45;&gt;Node2 -->
<g id="edge2" class="edge"><title>Node1&#45;&gt;Node2</title>
<path fill="none" stroke="midnightblue" d="M715.584,-464.497C686.276,-455 642.952,-440.962 610.999,-430.609"/>
<polygon fill="midnightblue" stroke="midnightblue" points="612.068,-427.276 601.476,-427.523 609.911,-433.935 612.068,-427.276"/>
</g>
<!-- Node16 -->
<g id="node44" class="node"><title>Node16</title>
<a xlink:href="ParameterType_8h.html" target="_top" xlink:title="ParameterType.h">
<polygon fill="white" stroke="black" points="959.5,-232.5 959.5,-253.5 1056.5,-253.5 1056.5,-232.5 959.5,-232.5"/>
<text text-anchor="middle" x="1008" y="-240.5" font-family="Verdana" font-size="10.00">ParameterType.h</text>
</a>
</g>
<!-- Node1&#45;&gt;Node16 -->
<g id="edge56" class="edge"><title>Node1&#45;&gt;Node16</title>
<path fill="none" stroke="midnightblue" d="M781.814,-464.433C824.806,-449.506 899.07,-418.527 946,-370 975.983,-338.997 994.022,-290.692 1002.38,-263.463"/>
<polygon fill="midnightblue" stroke="midnightblue" points="1005.85,-264.089 1005.29,-253.509 999.129,-262.125 1005.85,-264.089"/>
</g>
<!-- Node18 -->
<g id="node51" class="node"><title>Node18</title>
<a xlink:href="ParameterAccessContext_8h.html" target="_top" xlink:title="ParameterAccessContext.h">
<polygon fill="white" stroke="black" points="605.5,-116.5 605.5,-137.5 752.5,-137.5 752.5,-116.5 605.5,-116.5"/>
<text text-anchor="middle" x="679" y="-124.5" font-family="Verdana" font-size="10.00">ParameterAccessContext.h</text>
</a>
</g>
<!-- Node1&#45;&gt;Node18 -->
<g id="edge66" class="edge"><title>Node1&#45;&gt;Node18</title>
<path fill="none" stroke="midnightblue" d="M726.663,-464.366C695.188,-446.994 640,-409.355 640,-359 640,-359 640,-359 640,-243 640,-207.65 656.473,-169.252 668.007,-146.699"/>
<polygon fill="midnightblue" stroke="midnightblue" points="671.14,-148.263 672.734,-137.789 664.956,-144.983 671.14,-148.263"/>
</g>
<!-- Node20 -->
<g id="node58" class="node"><title>Node20</title>
<a xlink:href="ConfigurationAccessContext_8h.html" target="_top" xlink:title="ConfigurationAccessContext.h">
<polygon fill="white" stroke="black" points="667.5,-174.5 667.5,-195.5 828.5,-195.5 828.5,-174.5 667.5,-174.5"/>
<text text-anchor="middle" x="748" y="-182.5" font-family="Verdana" font-size="10.00">ConfigurationAccessContext.h</text>
</a>
</g>
<!-- Node1&#45;&gt;Node20 -->
<g id="edge76" class="edge"><title>Node1&#45;&gt;Node20</title>
<path fill="none" stroke="midnightblue" d="M748,-464.444C748,-444.062 748,-397.868 748,-359 748,-359 748,-359 748,-301 748,-267.598 748,-228.785 748,-205.594"/>
<polygon fill="midnightblue" stroke="midnightblue" points="751.5,-205.556 748,-195.556 744.5,-205.556 751.5,-205.556"/>
</g>
<!-- Node21 -->
<g id="node62" class="node"><title>Node21</title>
<a xlink:href="ParameterBlackboard_8h.html" target="_top" xlink:title="ParameterBlackboard.h">
<polygon fill="white" stroke="black" points="1017.5,-116.5 1017.5,-137.5 1146.5,-137.5 1146.5,-116.5 1017.5,-116.5"/>
<text text-anchor="middle" x="1082" y="-124.5" font-family="Verdana" font-size="10.00">ParameterBlackboard.h</text>
</a>
</g>
<!-- Node1&#45;&gt;Node21 -->
<g id="edge82" class="edge"><title>Node1&#45;&gt;Node21</title>
<path fill="none" stroke="midnightblue" d="M818.028,-465.281C916.5,-449.615 1084,-414.772 1084,-359 1084,-359 1084,-359 1084,-243 1084,-209.593 1083.16,-170.782 1082.57,-147.592"/>
<polygon fill="midnightblue" stroke="midnightblue" points="1086.07,-147.459 1082.3,-137.555 1079.07,-147.644 1086.07,-147.459"/>
</g>
<!-- Node3 -->
<g id="node5" class="node"><title>Node3</title>
<polygon fill="white" stroke="#bfbfbf" points="886.5,-0.5 886.5,-21.5 939.5,-21.5 939.5,-0.5 886.5,-0.5"/>
<text text-anchor="middle" x="913" y="-8.5" font-family="Verdana" font-size="10.00">stdint.h</text>
</g>
<!-- Node2&#45;&gt;Node3 -->
<g id="edge4" class="edge"><title>Node2&#45;&gt;Node3</title>
<path fill="none" stroke="midnightblue" d="M606.82,-413.058C699.793,-402.323 932,-368.732 932,-301 932,-301 932,-301 932,-127 932,-93.175 924.035,-54.5229 918.419,-31.474"/>
<polygon fill="midnightblue" stroke="midnightblue" points="921.812,-30.6159 915.969,-21.7784 915.026,-32.3312 921.812,-30.6159"/>
</g>
<!-- Node4 -->
<g id="node7" class="node"><title>Node4</title>
<a xlink:href="BaseParameter_8h.html" target="_top" xlink:title="BaseParameter.h">
<polygon fill="white" stroke="black" points="481.5,-348.5 481.5,-369.5 580.5,-369.5 580.5,-348.5 481.5,-348.5"/>
<text text-anchor="middle" x="531" y="-356.5" font-family="Verdana" font-size="10.00">BaseParameter.h</text>
</a>
</g>
<!-- Node2&#45;&gt;Node4 -->
<g id="edge6" class="edge"><title>Node2&#45;&gt;Node4</title>
<path fill="none" stroke="midnightblue" d="M562.03,-406.362C556.834,-398.431 549.599,-387.389 543.422,-377.961"/>
<polygon fill="midnightblue" stroke="midnightblue" points="546.334,-376.017 537.926,-369.571 540.478,-379.853 546.334,-376.017"/>
</g>
<!-- Node10 -->
<g id="node20" class="node"><title>Node10</title>
<polygon fill="white" stroke="#bfbfbf" points="578,-0.5 578,-21.5 622,-21.5 622,-0.5 578,-0.5"/>
<text text-anchor="middle" x="600" y="-8.5" font-family="Verdana" font-size="10.00">string</text>
</g>
<!-- Node2&#45;&gt;Node10 -->
<g id="edge54" class="edge"><title>Node2&#45;&gt;Node10</title>
<path fill="none" stroke="midnightblue" d="M531.237,-412.783C409.926,-398.735 38,-351.542 38,-301 38,-301 38,-301 38,-127 38,-91.328 48.8205,-77.0182 79,-58 120.32,-31.9611 460.064,-16.4968 567.536,-12.2211"/>
<polygon fill="midnightblue" stroke="midnightblue" points="567.91,-15.7093 577.766,-11.8202 567.636,-8.71463 567.91,-15.7093"/>
</g>
<!-- Node4&#45;&gt;Node3 -->
<g id="edge8" class="edge"><title>Node4&#45;&gt;Node3</title>
<path fill="none" stroke="midnightblue" d="M580.712,-353.648C680.129,-341.56 894,-308.003 894,-243 894,-243 894,-243 894,-127 894,-93.175 901.965,-54.5229 907.581,-31.474"/>
<polygon fill="midnightblue" stroke="midnightblue" points="910.974,-32.3312 910.031,-21.7784 904.188,-30.6159 910.974,-32.3312"/>
</g>
<!-- Node5 -->
<g id="node10" class="node"><title>Node5</title>
<polygon fill="white" stroke="#bfbfbf" points="138.5,-0.5 138.5,-21.5 185.5,-21.5 185.5,-0.5 138.5,-0.5"/>
<text text-anchor="middle" x="162" y="-8.5" font-family="Verdana" font-size="10.00">vector</text>
</g>
<!-- Node4&#45;&gt;Node5 -->
<g id="edge10" class="edge"><title>Node4&#45;&gt;Node5</title>
<path fill="none" stroke="midnightblue" d="M481.045,-353.358C348.86,-337.758 0,-291.95 0,-243 0,-243 0,-243 0,-127 0,-94.5312 0.966847,-80.8844 24,-58 52.0263,-30.1547 97.1821,-18.7924 128.158,-14.1648"/>
<polygon fill="midnightblue" stroke="midnightblue" points="129.021,-17.5809 138.472,-12.7928 128.098,-10.6421 129.021,-17.5809"/>
</g>
<!-- Node6 -->
<g id="node12" class="node"><title>Node6</title>
<a xlink:href="InstanceConfigurableElement_8h.html" target="_top" xlink:title="InstanceConfigurableElement.h">
<polygon fill="white" stroke="black" points="415,-290.5 415,-311.5 581,-311.5 581,-290.5 415,-290.5"/>
<text text-anchor="middle" x="498" y="-298.5" font-family="Verdana" font-size="10.00">InstanceConfigurableElement.h</text>
</a>
</g>
<!-- Node4&#45;&gt;Node6 -->
<g id="edge12" class="edge"><title>Node4&#45;&gt;Node6</title>
<path fill="none" stroke="midnightblue" d="M524.947,-348.362C520.528,-340.595 514.41,-329.843 509.121,-320.546"/>
<polygon fill="midnightblue" stroke="midnightblue" points="512.002,-318.531 504.014,-311.571 505.918,-321.993 512.002,-318.531"/>
</g>
<!-- Node7 -->
<g id="node14" class="node"><title>Node7</title>
<a xlink:href="ConfigurableElementWithMapping_8h.html" target="_top" xlink:title="ConfigurableElementWithMapping.h">
<polygon fill="white" stroke="black" points="158,-232.5 158,-253.5 344,-253.5 344,-232.5 158,-232.5"/>
<text text-anchor="middle" x="251" y="-240.5" font-family="Verdana" font-size="10.00">ConfigurableElementWithMapping.h</text>
</a>
</g>
<!-- Node6&#45;&gt;Node7 -->
<g id="edge14" class="edge"><title>Node6&#45;&gt;Node7</title>
<path fill="none" stroke="midnightblue" d="M453.27,-290.497C411.782,-280.755 349.94,-266.233 305.566,-255.813"/>
<polygon fill="midnightblue" stroke="midnightblue" points="306.349,-252.402 295.814,-253.523 304.749,-259.216 306.349,-252.402"/>
</g>
<!-- Node6&#45;&gt;Node10 -->
<g id="edge52" class="edge"><title>Node6&#45;&gt;Node10</title>
<path fill="none" stroke="midnightblue" d="M498.447,-290.199C499.619,-267.953 503.681,-215.617 517,-174 534.644,-118.872 569.24,-59.6135 587.703,-30.0539"/>
<polygon fill="midnightblue" stroke="midnightblue" points="590.699,-31.8648 593.089,-21.543 584.784,-28.1216 590.699,-31.8648"/>
</g>
<!-- Node11 -->
<g id="node24" class="node"><title>Node11</title>
<polygon fill="white" stroke="#bfbfbf" points="104,-58.5 104,-79.5 134,-79.5 134,-58.5 104,-58.5"/>
<text text-anchor="middle" x="119" y="-66.5" font-family="Verdana" font-size="10.00">list</text>
</g>
<!-- Node6&#45;&gt;Node11 -->
<g id="edge50" class="edge"><title>Node6&#45;&gt;Node11</title>
<path fill="none" stroke="midnightblue" d="M414.744,-294.96C317.591,-287.12 167.755,-272.258 149,-254 104.225,-210.414 109.745,-128.112 115.298,-89.7099"/>
<polygon fill="midnightblue" stroke="midnightblue" points="118.776,-90.1267 116.895,-79.7002 111.863,-89.0238 118.776,-90.1267"/>
</g>
<!-- Node15 -->
<g id="node37" class="node"><title>Node15</title>
<a xlink:href="TypeElement_8h.html" target="_top" xlink:title="TypeElement.h">
<polygon fill="white" stroke="black" points="526,-174.5 526,-195.5 612,-195.5 612,-174.5 526,-174.5"/>
<text text-anchor="middle" x="569" y="-182.5" font-family="Verdana" font-size="10.00">TypeElement.h</text>
</a>
</g>
<!-- Node6&#45;&gt;Node15 -->
<g id="edge44" class="edge"><title>Node6&#45;&gt;Node15</title>
<path fill="none" stroke="midnightblue" d="M504.552,-290.295C516.493,-270.786 541.954,-229.188 557.054,-204.518"/>
<polygon fill="midnightblue" stroke="midnightblue" points="560.228,-206.036 562.464,-195.679 554.258,-202.381 560.228,-206.036"/>
</g>
<!-- Node8 -->
<g id="node16" class="node"><title>Node8</title>
<a xlink:href="ConfigurableElement_8h.html" target="_top" xlink:title="ConfigurableElement.h">
<polygon fill="white" stroke="black" points="188.5,-174.5 188.5,-195.5 313.5,-195.5 313.5,-174.5 188.5,-174.5"/>
<text text-anchor="middle" x="251" y="-182.5" font-family="Verdana" font-size="10.00">ConfigurableElement.h</text>
</a>
</g>
<!-- Node7&#45;&gt;Node8 -->
<g id="edge16" class="edge"><title>Node7&#45;&gt;Node8</title>
<path fill="none" stroke="midnightblue" d="M251,-232.362C251,-224.922 251,-214.743 251,-205.728"/>
<polygon fill="midnightblue" stroke="midnightblue" points="254.5,-205.571 251,-195.571 247.5,-205.571 254.5,-205.571"/>
</g>
<!-- Node7&#45;&gt;Node10 -->
<g id="edge42" class="edge"><title>Node7&#45;&gt;Node10</title>
<path fill="none" stroke="midnightblue" d="M229.604,-232.326C174.573,-203.565 36.424,-122.281 95,-58 126.859,-23.0387 461.004,-13.6551 567.55,-11.5424"/>
<polygon fill="midnightblue" stroke="midnightblue" points="567.769,-15.039 577.701,-11.3497 567.636,-8.04024 567.769,-15.039"/>
</g>
<!-- Node9 -->
<g id="node18" class="node"><title>Node9</title>
<a xlink:href="Element_8h.html" target="_top" xlink:title="Element.h">
<polygon fill="white" stroke="black" points="227.5,-116.5 227.5,-137.5 292.5,-137.5 292.5,-116.5 227.5,-116.5"/>
<text text-anchor="middle" x="260" y="-124.5" font-family="Verdana" font-size="10.00">Element.h</text>
</a>
</g>
<!-- Node8&#45;&gt;Node9 -->
<g id="edge18" class="edge"><title>Node8&#45;&gt;Node9</title>
<path fill="none" stroke="midnightblue" d="M252.651,-174.362C253.805,-166.922 255.385,-156.743 256.784,-147.728"/>
<polygon fill="midnightblue" stroke="midnightblue" points="260.285,-147.989 258.36,-137.571 253.368,-146.916 260.285,-147.989"/>
</g>
<!-- Node8&#45;&gt;Node11 -->
<g id="edge40" class="edge"><title>Node8&#45;&gt;Node11</title>
<path fill="none" stroke="midnightblue" d="M238.818,-174.295C216.029,-154.268 166.752,-110.964 139.015,-86.5893"/>
<polygon fill="midnightblue" stroke="midnightblue" points="140.974,-83.6513 131.152,-79.6792 136.353,-88.9095 140.974,-83.6513"/>
</g>
<!-- Node9&#45;&gt;Node3 -->
<g id="edge24" class="edge"><title>Node9&#45;&gt;Node3</title>
<path fill="none" stroke="midnightblue" d="M292.894,-120.702C339.921,-111.695 429.084,-94.607 505,-80 555.672,-70.2502 568.183,-66.9629 619,-58 711.296,-41.7211 820.333,-24.9249 876.098,-16.5102"/>
<polygon fill="midnightblue" stroke="midnightblue" points="876.83,-19.9395 886.197,-14.99 875.788,-13.0175 876.83,-19.9395"/>
</g>
<!-- Node9&#45;&gt;Node5 -->
<g id="edge22" class="edge"><title>Node9&#45;&gt;Node5</title>
<path fill="none" stroke="midnightblue" d="M234.935,-116.396C218.932,-108.477 198.851,-96.226 186,-80 174.956,-66.0555 168.81,-46.6803 165.509,-32.0101"/>
<polygon fill="midnightblue" stroke="midnightblue" points="168.879,-31.0082 163.506,-21.8768 162.012,-32.3657 168.879,-31.0082"/>
</g>
<!-- Node9&#45;&gt;Node10 -->
<g id="edge20" class="edge"><title>Node9&#45;&gt;Node10</title>
<path fill="none" stroke="midnightblue" d="M245.731,-116.379C228.226,-102.096 202.755,-76.3724 219,-58 241.991,-31.9984 479.839,-17.1923 567.656,-12.5784"/>
<polygon fill="midnightblue" stroke="midnightblue" points="568.028,-16.064 577.834,-12.0542 567.667,-9.07322 568.028,-16.064"/>
</g>
<!-- Node9&#45;&gt;Node11 -->
<g id="edge26" class="edge"><title>Node9&#45;&gt;Node11</title>
<path fill="none" stroke="midnightblue" d="M234.466,-116.497C208.684,-105.891 169.132,-89.6216 143.665,-79.1458"/>
<polygon fill="midnightblue" stroke="midnightblue" points="144.912,-75.8745 134.333,-75.307 142.249,-82.3482 144.912,-75.8745"/>
</g>
<!-- Node12 -->
<g id="node26" class="node"><title>Node12</title>
<polygon fill="white" stroke="#bfbfbf" points="228,-58.5 228,-79.5 292,-79.5 292,-58.5 228,-58.5"/>
<text text-anchor="middle" x="260" y="-66.5" font-family="Verdana" font-size="10.00">XmlSink.h</text>
</g>
<!-- Node9&#45;&gt;Node12 -->
<g id="edge28" class="edge"><title>Node9&#45;&gt;Node12</title>
<path fill="none" stroke="midnightblue" d="M260,-116.362C260,-108.922 260,-98.7427 260,-89.7276"/>
<polygon fill="midnightblue" stroke="midnightblue" points="263.5,-89.5706 260,-79.5707 256.5,-89.5707 263.5,-89.5706"/>
</g>
<!-- Node13 -->
<g id="node28" class="node"><title>Node13</title>
<polygon fill="white" stroke="#bfbfbf" points="309.5,-58.5 309.5,-79.5 386.5,-79.5 386.5,-58.5 309.5,-58.5"/>
<text text-anchor="middle" x="348" y="-66.5" font-family="Verdana" font-size="10.00">XmlSource.h</text>
</g>
<!-- Node9&#45;&gt;Node13 -->
<g id="edge30" class="edge"><title>Node9&#45;&gt;Node13</title>
<path fill="none" stroke="midnightblue" d="M276.141,-116.362C289.414,-107.614 308.432,-95.0786 323.57,-85.1015"/>
<polygon fill="midnightblue" stroke="midnightblue" points="325.538,-87.9962 331.962,-79.5707 321.686,-82.1515 325.538,-87.9962"/>
</g>
<!-- Node14 -->
<g id="node30" class="node"><title>Node14</title>
<a xlink:href="PathNavigator_8h.html" target="_top" xlink:title="PathNavigator.h">
<polygon fill="white" stroke="black" points="404,-58.5 404,-79.5 496,-79.5 496,-58.5 404,-58.5"/>
<text text-anchor="middle" x="450" y="-66.5" font-family="Verdana" font-size="10.00">PathNavigator.h</text>
</a>
</g>
<!-- Node9&#45;&gt;Node14 -->
<g id="edge32" class="edge"><title>Node9&#45;&gt;Node14</title>
<path fill="none" stroke="midnightblue" d="M292.662,-117.029C323.854,-107.508 371.098,-93.0859 405.677,-82.5302"/>
<polygon fill="midnightblue" stroke="midnightblue" points="406.977,-85.7929 415.519,-79.5257 404.933,-79.0979 406.977,-85.7929"/>
</g>
<!-- Node14&#45;&gt;Node3 -->
<g id="edge38" class="edge"><title>Node14&#45;&gt;Node3</title>
<path fill="none" stroke="midnightblue" d="M496.087,-63.2267C588.104,-51.6997 792.91,-26.0436 876.453,-15.5782"/>
<polygon fill="midnightblue" stroke="midnightblue" points="877.002,-19.037 886.489,-14.321 876.131,-12.0913 877.002,-19.037"/>
</g>
<!-- Node14&#45;&gt;Node5 -->
<g id="edge34" class="edge"><title>Node14&#45;&gt;Node5</title>
<path fill="none" stroke="midnightblue" d="M403.728,-59.6813C345.564,-47.9677 247.123,-28.1428 195.646,-17.7759"/>
<polygon fill="midnightblue" stroke="midnightblue" points="196.198,-14.3169 185.704,-15.7737 194.816,-21.1792 196.198,-14.3169"/>
</g>
<!-- Node14&#45;&gt;Node10 -->
<g id="edge36" class="edge"><title>Node14&#45;&gt;Node10</title>
<path fill="none" stroke="midnightblue" d="M477.164,-58.4966C502.879,-48.5533 541.472,-33.6309 568.519,-23.1727"/>
<polygon fill="midnightblue" stroke="midnightblue" points="569.851,-26.4101 577.916,-19.5391 567.327,-19.8812 569.851,-26.4101"/>
</g>
<!-- Node15&#45;&gt;Node9 -->
<g id="edge46" class="edge"><title>Node15&#45;&gt;Node9</title>
<path fill="none" stroke="midnightblue" d="M525.71,-176.874C466.638,-165.786 361.426,-146.038 302.677,-135.011"/>
<polygon fill="midnightblue" stroke="midnightblue" points="303.091,-131.527 292.617,-133.122 301.8,-138.407 303.091,-131.527"/>
</g>
<!-- Node15&#45;&gt;Node10 -->
<g id="edge48" class="edge"><title>Node15&#45;&gt;Node10</title>
<path fill="none" stroke="midnightblue" d="M570.893,-174.377C575.896,-146.293 589.547,-69.6735 596.223,-32.2027"/>
<polygon fill="midnightblue" stroke="midnightblue" points="599.745,-32.3866 598.053,-21.9277 592.853,-31.1588 599.745,-32.3866"/>
</g>
<!-- Node16&#45;&gt;Node3 -->
<g id="edge58" class="edge"><title>Node16&#45;&gt;Node3</title>
<path fill="none" stroke="midnightblue" d="M1003.37,-232.269C999.355,-222.805 993.501,-208.598 989,-196 967.388,-135.503 974.353,-115.646 946,-58 941.101,-48.0399 934.222,-37.8542 928.012,-29.5226"/>
<polygon fill="midnightblue" stroke="midnightblue" points="930.775,-27.3744 921.893,-21.5987 925.235,-31.6527 930.775,-27.3744"/>
</g>
<!-- Node16&#45;&gt;Node10 -->
<g id="edge64" class="edge"><title>Node16&#45;&gt;Node10</title>
<path fill="none" stroke="midnightblue" d="M996.808,-232.076C963.839,-200.481 863.106,-108.065 763,-58 720.216,-36.6031 666.108,-23.4378 632.267,-16.6719"/>
<polygon fill="midnightblue" stroke="midnightblue" points="632.514,-13.1551 622.032,-14.6978 631.188,-20.0284 632.514,-13.1551"/>
</g>
<!-- Node16&#45;&gt;Node15 -->
<g id="edge62" class="edge"><title>Node16&#45;&gt;Node15</title>
<path fill="none" stroke="midnightblue" d="M959.342,-236.571C876.43,-225.617 708.409,-203.418 622.382,-192.053"/>
<polygon fill="midnightblue" stroke="midnightblue" points="622.681,-188.562 612.309,-190.722 621.764,-195.502 622.681,-188.562"/>
</g>
<!-- Node17 -->
<g id="node47" class="node"><title>Node17</title>
<polygon fill="white" stroke="#bfbfbf" points="998,-174.5 998,-195.5 1040,-195.5 1040,-174.5 998,-174.5"/>
<text text-anchor="middle" x="1019" y="-182.5" font-family="Verdana" font-size="10.00">limits</text>
</g>
<!-- Node16&#45;&gt;Node17 -->
<g id="edge60" class="edge"><title>Node16&#45;&gt;Node17</title>
<path fill="none" stroke="midnightblue" d="M1010.02,-232.362C1011.44,-224.84 1013.4,-214.519 1015.13,-205.431"/>
<polygon fill="midnightblue" stroke="midnightblue" points="1018.57,-206.048 1017,-195.571 1011.69,-204.743 1018.57,-206.048"/>
</g>
<!-- Node18&#45;&gt;Node3 -->
<g id="edge68" class="edge"><title>Node18&#45;&gt;Node3</title>
<path fill="none" stroke="midnightblue" d="M700.595,-116.295C742.493,-95.525 834.896,-49.7182 882.83,-25.9562"/>
<polygon fill="midnightblue" stroke="midnightblue" points="884.39,-29.089 891.795,-21.5117 881.281,-22.8174 884.39,-29.089"/>
</g>
<!-- Node18&#45;&gt;Node10 -->
<g id="edge74" class="edge"><title>Node18&#45;&gt;Node10</title>
<path fill="none" stroke="midnightblue" d="M694.272,-116.328C711.943,-102.639 736.937,-78.2455 723,-58 712.385,-42.5808 665.011,-27.6544 632.255,-18.9009"/>
<polygon fill="midnightblue" stroke="midnightblue" points="632.758,-15.4153 622.199,-16.283 630.995,-22.1895 632.758,-15.4153"/>
</g>
<!-- Node19 -->
<g id="node54" class="node"><title>Node19</title>
<a xlink:href="ErrorContext_8h.html" target="_top" xlink:title="ErrorContext.h">
<polygon fill="white" stroke="black" points="628,-58.5 628,-79.5 714,-79.5 714,-58.5 628,-58.5"/>
<text text-anchor="middle" x="671" y="-66.5" font-family="Verdana" font-size="10.00">ErrorContext.h</text>
</a>
</g>
<!-- Node18&#45;&gt;Node19 -->
<g id="edge70" class="edge"><title>Node18&#45;&gt;Node19</title>
<path fill="none" stroke="midnightblue" d="M677.533,-116.362C676.506,-108.922 675.102,-98.7427 673.859,-89.7276"/>
<polygon fill="midnightblue" stroke="midnightblue" points="677.292,-88.9986 672.458,-79.5707 670.357,-89.9551 677.292,-88.9986"/>
</g>
<!-- Node19&#45;&gt;Node10 -->
<g id="edge72" class="edge"><title>Node19&#45;&gt;Node10</title>
<path fill="none" stroke="midnightblue" d="M657.978,-58.3619C647.569,-49.859 632.781,-37.7785 620.745,-27.9466"/>
<polygon fill="midnightblue" stroke="midnightblue" points="622.899,-25.1866 612.94,-21.5707 618.47,-30.6077 622.899,-25.1866"/>
</g>
<!-- Node20&#45;&gt;Node10 -->
<g id="edge80" class="edge"><title>Node20&#45;&gt;Node10</title>
<path fill="none" stroke="midnightblue" d="M751.836,-174.345C755.011,-164.93 759.269,-150.752 761,-138 765.945,-101.574 766.297,-83.6862 740,-58 710.751,-29.4304 663.615,-18.2165 632.228,-13.8218"/>
<polygon fill="midnightblue" stroke="midnightblue" points="632.591,-10.3401 622.235,-12.5776 631.726,-17.2865 632.591,-10.3401"/>
</g>
<!-- Node20&#45;&gt;Node18 -->
<g id="edge78" class="edge"><title>Node20&#45;&gt;Node18</title>
<path fill="none" stroke="midnightblue" d="M735.344,-174.362C725.326,-165.941 711.133,-154.011 699.499,-144.231"/>
<polygon fill="midnightblue" stroke="midnightblue" points="701.482,-141.326 691.575,-137.571 696.978,-146.684 701.482,-141.326"/>
</g>
<!-- Node21&#45;&gt;Node3 -->
<g id="edge84" class="edge"><title>Node21&#45;&gt;Node3</title>
<path fill="none" stroke="midnightblue" d="M1067.15,-116.345C1048.03,-102.674 1013.73,-78.2992 984,-58 968.678,-47.5379 951.314,-36.0373 937.593,-27.0311"/>
<polygon fill="midnightblue" stroke="midnightblue" points="939.444,-24.0595 929.161,-21.509 935.609,-29.9155 939.444,-24.0595"/>
</g>
<!-- Node22 -->
<g id="node65" class="node"><title>Node22</title>
<a xlink:href="BinaryStream_8h.html" target="_top" xlink:title="BinaryStream.h">
<polygon fill="white" stroke="black" points="1036,-58.5 1036,-79.5 1128,-79.5 1128,-58.5 1036,-58.5"/>
<text text-anchor="middle" x="1082" y="-66.5" font-family="Verdana" font-size="10.00">BinaryStream.h</text>
</a>
</g>
<!-- Node21&#45;&gt;Node22 -->
<g id="edge86" class="edge"><title>Node21&#45;&gt;Node22</title>
<path fill="none" stroke="midnightblue" d="M1082,-116.362C1082,-108.922 1082,-98.7427 1082,-89.7276"/>
<polygon fill="midnightblue" stroke="midnightblue" points="1085.5,-89.5706 1082,-79.5707 1078.5,-89.5707 1085.5,-89.5706"/>
</g>
<!-- Node22&#45;&gt;Node3 -->
<g id="edge88" class="edge"><title>Node22&#45;&gt;Node3</title>
<path fill="none" stroke="midnightblue" d="M1051.4,-58.4966C1022.77,-48.6714 979.972,-33.9846 949.56,-23.5471"/>
<polygon fill="midnightblue" stroke="midnightblue" points="950.354,-20.1192 939.759,-20.1835 948.081,-26.7402 950.354,-20.1192"/>
</g>
<!-- Node22&#45;&gt;Node10 -->
<g id="edge90" class="edge"><title>Node22&#45;&gt;Node10</title>
<path fill="none" stroke="midnightblue" d="M1035.78,-63.4387C938.719,-51.7587 715.744,-24.9278 632.303,-14.887"/>
<polygon fill="midnightblue" stroke="midnightblue" points="632.503,-11.386 622.157,-13.6662 631.667,-18.3359 632.503,-11.386"/>
</g>
<!-- Node23 -->
<g id="node69" class="node"><title>Node23</title>
<polygon fill="white" stroke="#bfbfbf" points="1055,-0.5 1055,-21.5 1109,-21.5 1109,-0.5 1055,-0.5"/>
<text text-anchor="middle" x="1082" y="-8.5" font-family="Verdana" font-size="10.00">fstream</text>
</g>
<!-- Node22&#45;&gt;Node23 -->
<g id="edge92" class="edge"><title>Node22&#45;&gt;Node23</title>
<path fill="none" stroke="midnightblue" d="M1082,-58.3619C1082,-50.9219 1082,-40.7427 1082,-31.7276"/>
<polygon fill="midnightblue" stroke="midnightblue" points="1085.5,-31.5706 1082,-21.5707 1078.5,-31.5707 1085.5,-31.5706"/>
</g>
</g>
</svg>
