<?xml version="1.0" encoding="UTF-8" standalone="no"?>
<!DOCTYPE svg PUBLIC "-//W3C//DTD SVG 1.1//EN"
 "http://www.w3.org/Graphics/SVG/1.1/DTD/svg11.dtd">
<!-- Generated by graphviz version 2.26.3 (20100126.1600)
 -->
<!-- Title: parameter/ParameterAccessContext.h Pages: 1 -->
<svg width="198pt" height="160pt"
 viewBox="0.00 0.00 198.00 160.00" xmlns="http://www.w3.org/2000/svg" xmlns:xlink="http://www.w3.org/1999/xlink">
<g id="graph1" class="graph" transform="scale(1 1) rotate(0) translate(4 156)">
<title>parameter/ParameterAccessContext.h</title>
<polygon fill="white" stroke="white" points="-4,5 -4,-156 195,-156 195,5 -4,5"/>
<!-- Node1 -->
<g id="node1" class="node"><title>Node1</title>
<polygon fill="#bfbfbf" stroke="black" points="35.5,-117 35.5,-151 190.5,-151 190.5,-117 35.5,-117"/>
<text text-anchor="start" x="43.5" y="-138" font-family="Verdana" font-size="10.00">parameter/ParameterAccess</text>
<text text-anchor="middle" x="113" y="-125" font-family="Verdana" font-size="10.00">Context.h</text>
</g>
<!-- Node2 -->
<g id="node3" class="node"><title>Node2</title>
<polygon fill="white" stroke="#bfbfbf" points="-0.5,-58.5 -0.5,-79.5 52.5,-79.5 52.5,-58.5 -0.5,-58.5"/>
<text text-anchor="middle" x="26" y="-66.5" font-family="Verdana" font-size="10.00">stdint.h</text>
</g>
<!-- Node1&#45;&gt;Node2 -->
<g id="edge2" class="edge"><title>Node1&#45;&gt;Node2</title>
<path fill="none" stroke="midnightblue" d="M90.1418,-116.922C77.2975,-107.326 61.3276,-95.3942 48.5362,-85.8374"/>
<polygon fill="midnightblue" stroke="midnightblue" points="50.3717,-82.8398 40.2658,-79.6584 46.182,-88.4475 50.3717,-82.8398"/>
</g>
<!-- Node3 -->
<g id="node5" class="node"><title>Node3</title>
<a xlink:href="ErrorContext_8h.html" target="_top" xlink:title="ErrorContext.h">
<polygon fill="white" stroke="black" points="70,-58.5 70,-79.5 156,-79.5 156,-58.5 70,-58.5"/>
<text text-anchor="middle" x="113" y="-66.5" font-family="Verdana" font-size="10.00">ErrorContext.h</text>
</a>
</g>
<!-- Node1&#45;&gt;Node3 -->
<g id="edge4" class="edge"><title>Node1&#45;&gt;Node3</title>
<path fill="none" stroke="midnightblue" d="M113,-116.922C113,-108.67 113,-98.6922 113,-89.9818"/>
<polygon fill="midnightblue" stroke="midnightblue" points="116.5,-89.8521 113,-79.8521 109.5,-89.8521 116.5,-89.8521"/>
</g>
<!-- Node4 -->
<g id="node7" class="node"><title>Node4</title>
<polygon fill="white" stroke="#bfbfbf" points="126,-0.5 126,-21.5 170,-21.5 170,-0.5 126,-0.5"/>
<text text-anchor="middle" x="148" y="-8.5" font-family="Verdana" font-size="10.00">string</text>
</g>
<!-- Node1&#45;&gt;Node4 -->
<g id="edge8" class="edge"><title>Node1&#45;&gt;Node4</title>
<path fill="none" stroke="midnightblue" d="M136.218,-116.972C147.172,-107.468 159.111,-94.6056 165,-80 171.46,-63.979 165.768,-44.8423 159.285,-30.7906"/>
<polygon fill="midnightblue" stroke="midnightblue" points="162.246,-28.8941 154.586,-21.5748 156.01,-32.0735 162.246,-28.8941"/>
</g>
<!-- Node3&#45;&gt;Node4 -->
<g id="edge6" class="edge"><title>Node3&#45;&gt;Node4</title>
<path fill="none" stroke="midnightblue" d="M119.42,-58.3619C124.156,-50.5131 130.732,-39.6159 136.382,-30.2527"/>
<polygon fill="midnightblue" stroke="midnightblue" points="139.451,-31.9409 141.621,-21.5707 133.458,-28.3242 139.451,-31.9409"/>
</g>
</g>
</svg>
