<?xml version="1.0" encoding="UTF-8" standalone="no"?>
<!DOCTYPE svg PUBLIC "-//W3C//DTD SVG 1.1//EN"
 "http://www.w3.org/Graphics/SVG/1.1/DTD/svg11.dtd">
<!-- Generated by graphviz version 2.26.3 (20100126.1600)
 -->
<!-- Title: parameter/PathNavigator.cpp Pages: 1 -->
<svg width="226pt" height="146pt"
 viewBox="0.00 0.00 226.00 146.00" xmlns="http://www.w3.org/2000/svg" xmlns:xlink="http://www.w3.org/1999/xlink">
<g id="graph1" class="graph" transform="scale(1 1) rotate(0) translate(4 142)">
<title>parameter/PathNavigator.cpp</title>
<polygon fill="white" stroke="white" points="-4,5 -4,-142 223,-142 223,5 -4,5"/>
<!-- Node1 -->
<g id="node1" class="node"><title>Node1</title>
<polygon fill="#bfbfbf" stroke="black" points="56,-116.5 56,-137.5 214,-137.5 214,-116.5 56,-116.5"/>
<text text-anchor="middle" x="135" y="-124.5" font-family="Verdana" font-size="10.00">parameter/PathNavigator.cpp</text>
</g>
<!-- Node2 -->
<g id="node3" class="node"><title>Node2</title>
<a xlink:href="PathNavigator_8h.html" target="_top" xlink:title="PathNavigator.h">
<polygon fill="white" stroke="black" points="40,-58.5 40,-79.5 132,-79.5 132,-58.5 40,-58.5"/>
<text text-anchor="middle" x="86" y="-66.5" font-family="Verdana" font-size="10.00">PathNavigator.h</text>
</a>
</g>
<!-- Node1&#45;&gt;Node2 -->
<g id="edge2" class="edge"><title>Node1&#45;&gt;Node2</title>
<path fill="none" stroke="midnightblue" d="M126.013,-116.362C119.175,-108.268 109.598,-96.9318 101.528,-87.3796"/>
<polygon fill="midnightblue" stroke="midnightblue" points="104.058,-84.9508 94.9304,-79.5707 98.7103,-89.4683 104.058,-84.9508"/>
</g>
<!-- Node6 -->
<g id="node11" class="node"><title>Node6</title>
<polygon fill="white" stroke="#bfbfbf" points="149.5,-58.5 149.5,-79.5 218.5,-79.5 218.5,-58.5 149.5,-58.5"/>
<text text-anchor="middle" x="184" y="-66.5" font-family="Verdana" font-size="10.00">Tokenizer.h</text>
</g>
<!-- Node1&#45;&gt;Node6 -->
<g id="edge10" class="edge"><title>Node1&#45;&gt;Node6</title>
<path fill="none" stroke="midnightblue" d="M143.987,-116.362C150.825,-108.268 160.402,-96.9318 168.472,-87.3796"/>
<polygon fill="midnightblue" stroke="midnightblue" points="171.29,-89.4683 175.07,-79.5707 165.942,-84.9508 171.29,-89.4683"/>
</g>
<!-- Node3 -->
<g id="node5" class="node"><title>Node3</title>
<polygon fill="white" stroke="#bfbfbf" points="-0.5,-0.5 -0.5,-21.5 46.5,-21.5 46.5,-0.5 -0.5,-0.5"/>
<text text-anchor="middle" x="23" y="-8.5" font-family="Verdana" font-size="10.00">vector</text>
</g>
<!-- Node2&#45;&gt;Node3 -->
<g id="edge4" class="edge"><title>Node2&#45;&gt;Node3</title>
<path fill="none" stroke="midnightblue" d="M74.4448,-58.3619C65.3866,-50.0226 52.5903,-38.2418 42.0263,-28.5162"/>
<polygon fill="midnightblue" stroke="midnightblue" points="44.2095,-25.7688 34.4819,-21.5707 39.4683,-30.9187 44.2095,-25.7688"/>
</g>
<!-- Node4 -->
<g id="node7" class="node"><title>Node4</title>
<polygon fill="white" stroke="#bfbfbf" points="64,-0.5 64,-21.5 108,-21.5 108,-0.5 64,-0.5"/>
<text text-anchor="middle" x="86" y="-8.5" font-family="Verdana" font-size="10.00">string</text>
</g>
<!-- Node2&#45;&gt;Node4 -->
<g id="edge6" class="edge"><title>Node2&#45;&gt;Node4</title>
<path fill="none" stroke="midnightblue" d="M86,-58.3619C86,-50.9219 86,-40.7427 86,-31.7276"/>
<polygon fill="midnightblue" stroke="midnightblue" points="89.5001,-31.5706 86,-21.5707 82.5001,-31.5707 89.5001,-31.5706"/>
</g>
<!-- Node5 -->
<g id="node9" class="node"><title>Node5</title>
<polygon fill="white" stroke="#bfbfbf" points="125.5,-0.5 125.5,-21.5 178.5,-21.5 178.5,-0.5 125.5,-0.5"/>
<text text-anchor="middle" x="152" y="-8.5" font-family="Verdana" font-size="10.00">stdint.h</text>
</g>
<!-- Node2&#45;&gt;Node5 -->
<g id="edge8" class="edge"><title>Node2&#45;&gt;Node5</title>
<path fill="none" stroke="midnightblue" d="M98.1054,-58.3619C107.688,-49.9408 121.264,-38.0105 132.393,-28.2308"/>
<polygon fill="midnightblue" stroke="midnightblue" points="134.77,-30.8009 139.971,-21.5707 130.149,-25.5427 134.77,-30.8009"/>
</g>
</g>
</svg>
