<?xml version="1.0" encoding="UTF-8" standalone="no"?>
<!DOCTYPE svg PUBLIC "-//W3C//DTD SVG 1.1//EN"
 "http://www.w3.org/Graphics/SVG/1.1/DTD/svg11.dtd">
<!-- Generated by graphviz version 2.26.3 (20100126.1600)
 -->
<!-- Title: parameter/PathNavigator.h Pages: 1 -->
<svg width="186pt" height="88pt"
 viewBox="0.00 0.00 186.00 88.00" xmlns="http://www.w3.org/2000/svg" xmlns:xlink="http://www.w3.org/1999/xlink">
<g id="graph1" class="graph" transform="scale(1 1) rotate(0) translate(4 84)">
<title>parameter/PathNavigator.h</title>
<polygon fill="white" stroke="white" points="-4,5 -4,-84 183,-84 183,5 -4,5"/>
<!-- Node1 -->
<g id="node1" class="node"><title>Node1</title>
<polygon fill="#bfbfbf" stroke="black" points="13,-58.5 13,-79.5 159,-79.5 159,-58.5 13,-58.5"/>
<text text-anchor="middle" x="86" y="-66.5" font-family="Verdana" font-size="10.00">parameter/PathNavigator.h</text>
</g>
<!-- Node2 -->
<g id="node3" class="node"><title>Node2</title>
<polygon fill="white" stroke="#bfbfbf" points="-0.5,-0.5 -0.5,-21.5 46.5,-21.5 46.5,-0.5 -0.5,-0.5"/>
<text text-anchor="middle" x="23" y="-8.5" font-family="Verdana" font-size="10.00">vector</text>
</g>
<!-- Node1&#45;&gt;Node2 -->
<g id="edge2" class="edge"><title>Node1&#45;&gt;Node2</title>
<path fill="none" stroke="midnightblue" d="M74.4448,-58.3619C65.3866,-50.0226 52.5903,-38.2418 42.0263,-28.5162"/>
<polygon fill="midnightblue" stroke="midnightblue" points="44.2095,-25.7688 34.4819,-21.5707 39.4683,-30.9187 44.2095,-25.7688"/>
</g>
<!-- Node3 -->
<g id="node5" class="node"><title>Node3</title>
<polygon fill="white" stroke="#bfbfbf" points="64,-0.5 64,-21.5 108,-21.5 108,-0.5 64,-0.5"/>
<text text-anchor="middle" x="86" y="-8.5" font-family="Verdana" font-size="10.00">string</text>
</g>
<!-- Node1&#45;&gt;Node3 -->
<g id="edge4" class="edge"><title>Node1&#45;&gt;Node3</title>
<path fill="none" stroke="midnightblue" d="M86,-58.3619C86,-50.9219 86,-40.7427 86,-31.7276"/>
<polygon fill="midnightblue" stroke="midnightblue" points="89.5001,-31.5706 86,-21.5707 82.5001,-31.5707 89.5001,-31.5706"/>
</g>
<!-- Node4 -->
<g id="node7" class="node"><title>Node4</title>
<polygon fill="white" stroke="#bfbfbf" points="125.5,-0.5 125.5,-21.5 178.5,-21.5 178.5,-0.5 125.5,-0.5"/>
<text text-anchor="middle" x="152" y="-8.5" font-family="Verdana" font-size="10.00">stdint.h</text>
</g>
<!-- Node1&#45;&gt;Node4 -->
<g id="edge6" class="edge"><title>Node1&#45;&gt;Node4</title>
<path fill="none" stroke="midnightblue" d="M98.1054,-58.3619C107.688,-49.9408 121.264,-38.0105 132.393,-28.2308"/>
<polygon fill="midnightblue" stroke="midnightblue" points="134.77,-30.8009 139.971,-21.5707 130.149,-25.5427 134.77,-30.8009"/>
</g>
</g>
</svg>
