<?xml version="1.0" encoding="UTF-8" standalone="no"?>
<!DOCTYPE svg PUBLIC "-//W3C//DTD SVG 1.1//EN"
 "http://www.w3.org/Graphics/SVG/1.1/DTD/svg11.dtd">
<!-- Generated by graphviz version 2.26.3 (20100126.1600)
 -->
<!-- Title: parameter/PluginLocation.h Pages: 1 -->
<svg width="514pt" height="88pt"
 viewBox="0.00 0.00 514.00 88.00" xmlns="http://www.w3.org/2000/svg" xmlns:xlink="http://www.w3.org/1999/xlink">
<g id="graph1" class="graph" transform="scale(1 1) rotate(0) translate(4 84)">
<title>parameter/PluginLocation.h</title>
<polygon fill="white" stroke="white" points="-4,5 -4,-84 511,-84 511,5 -4,5"/>
<!-- Node1 -->
<g id="node1" class="node"><title>Node1</title>
<polygon fill="#bfbfbf" stroke="black" points="181.5,-58.5 181.5,-79.5 330.5,-79.5 330.5,-58.5 181.5,-58.5"/>
<text text-anchor="middle" x="256" y="-66.5" font-family="Verdana" font-size="10.00">parameter/PluginLocation.h</text>
</g>
<!-- Node2 -->
<g id="node3" class="node"><title>Node2</title>
<a xlink:href="ParameterMgr_8cpp.html" target="_top" xlink:title="parameter/ParameterMgr.cpp">
<polygon fill="white" stroke="black" points="0,-0.5 0,-21.5 158,-21.5 158,-0.5 0,-0.5"/>
<text text-anchor="middle" x="79" y="-8.5" font-family="Verdana" font-size="10.00">parameter/ParameterMgr.cpp</text>
</a>
</g>
<!-- Node1&#45;&gt;Node2 -->
<g id="edge2" class="edge"><title>Node1&#45;&gt;Node2</title>
<path fill="none" stroke="midnightblue" d="M214.126,-55.2787C182.587,-44.9437 139.988,-30.9849 111.113,-21.5231"/>
<polygon fill="midnightblue" stroke="midnightblue" points="213.354,-58.7086 223.947,-58.4966 215.534,-52.0567 213.354,-58.7086"/>
</g>
<!-- Node3 -->
<g id="node5" class="node"><title>Node3</title>
<a xlink:href="PluginLocation_8cpp.html" target="_top" xlink:title="parameter/PluginLocation.cpp">
<polygon fill="white" stroke="black" points="176,-0.5 176,-21.5 336,-21.5 336,-0.5 176,-0.5"/>
<text text-anchor="middle" x="256" y="-8.5" font-family="Verdana" font-size="10.00">parameter/PluginLocation.cpp</text>
</a>
</g>
<!-- Node1&#45;&gt;Node3 -->
<g id="edge4" class="edge"><title>Node1&#45;&gt;Node3</title>
<path fill="none" stroke="midnightblue" d="M256,-48.1906C256,-39.1684 256,-28.9941 256,-21.5707"/>
<polygon fill="midnightblue" stroke="midnightblue" points="252.5,-48.3619 256,-58.3619 259.5,-48.3619 252.5,-48.3619"/>
</g>
<!-- Node4 -->
<g id="node7" class="node"><title>Node4</title>
<a xlink:href="SystemClass_8cpp.html" target="_top" xlink:title="parameter/SystemClass.cpp">
<polygon fill="white" stroke="black" points="353.5,-0.5 353.5,-21.5 506.5,-21.5 506.5,-0.5 353.5,-0.5"/>
<text text-anchor="middle" x="430" y="-8.5" font-family="Verdana" font-size="10.00">parameter/SystemClass.cpp</text>
</a>
</g>
<!-- Node1&#45;&gt;Node4 -->
<g id="edge6" class="edge"><title>Node1&#45;&gt;Node4</title>
<path fill="none" stroke="midnightblue" d="M297.164,-55.2787C328.169,-44.9437 370.045,-30.9849 398.431,-21.5231"/>
<polygon fill="midnightblue" stroke="midnightblue" points="295.89,-52.0139 287.51,-58.4966 298.104,-58.6547 295.89,-52.0139"/>
</g>
</g>
</svg>
