<?xml version="1.0" encoding="UTF-8" standalone="no"?>
<!DOCTYPE svg PUBLIC "-//W3C//DTD SVG 1.1//EN"
 "http://www.w3.org/Graphics/SVG/1.1/DTD/svg11.dtd">
<!-- Generated by graphviz version 2.26.3 (20100126.1600)
 -->
<!-- Title: remote&#45;processor/RemoteProcessorServer.cpp Pages: 1 -->
<svg width="792pt" height="334pt"
 viewBox="0.00 0.00 792.00 334.00" xmlns="http://www.w3.org/2000/svg" xmlns:xlink="http://www.w3.org/1999/xlink">
<g id="graph1" class="graph" transform="scale(1 1) rotate(0) translate(4 330)">
<title>remote&#45;processor/RemoteProcessorServer.cpp</title>
<polygon fill="white" stroke="white" points="-4,5 -4,-330 789,-330 789,5 -4,5"/>
<!-- Node1 -->
<g id="node1" class="node"><title>Node1</title>
<polygon fill="#bfbfbf" stroke="black" points="304,-291 304,-325 494,-325 494,-291 304,-291"/>
<text text-anchor="start" x="312" y="-312" font-family="Verdana" font-size="10.00">remote&#45;processor/RemoteProcessor</text>
<text text-anchor="middle" x="399" y="-299" font-family="Verdana" font-size="10.00">Server.cpp</text>
</g>
<!-- Node2 -->
<g id="node3" class="node"><title>Node2</title>
<a xlink:href="RemoteProcessorServer_8h.html" target="_top" xlink:title="RemoteProcessorServer.h">
<polygon fill="white" stroke="black" points="174,-232.5 174,-253.5 314,-253.5 314,-232.5 174,-232.5"/>
<text text-anchor="middle" x="244" y="-240.5" font-family="Verdana" font-size="10.00">RemoteProcessorServer.h</text>
</a>
</g>
<!-- Node1&#45;&gt;Node2 -->
<g id="edge2" class="edge"><title>Node1&#45;&gt;Node2</title>
<path fill="none" stroke="midnightblue" d="M358.276,-290.922C333.522,-280.541 302.252,-267.428 278.682,-257.544"/>
<polygon fill="midnightblue" stroke="midnightblue" points="279.992,-254.298 269.416,-253.658 277.285,-260.753 279.992,-254.298"/>
</g>
<!-- Node6 -->
<g id="node11" class="node"><title>Node6</title>
<a xlink:href="RequestMessage_8h.html" target="_top" xlink:title="RequestMessage.h">
<polygon fill="white" stroke="black" points="188.5,-116.5 188.5,-137.5 295.5,-137.5 295.5,-116.5 188.5,-116.5"/>
<text text-anchor="middle" x="242" y="-124.5" font-family="Verdana" font-size="10.00">RequestMessage.h</text>
</a>
</g>
<!-- Node1&#45;&gt;Node6 -->
<g id="edge48" class="edge"><title>Node1&#45;&gt;Node6</title>
<path fill="none" stroke="midnightblue" d="M303.835,-298.993C241.147,-291.026 166.764,-277.008 145,-254 120.412,-228.007 116.49,-203.993 136,-174 146.049,-158.552 162.466,-148.142 179.412,-141.142"/>
<polygon fill="midnightblue" stroke="midnightblue" points="180.716,-144.391 188.844,-137.594 178.252,-137.84 180.716,-144.391"/>
</g>
<!-- Node11 -->
<g id="node25" class="node"><title>Node11</title>
<a xlink:href="ListeningSocket_8h.html" target="_top" xlink:title="ListeningSocket.h">
<polygon fill="white" stroke="black" points="470.5,-174.5 470.5,-195.5 571.5,-195.5 571.5,-174.5 470.5,-174.5"/>
<text text-anchor="middle" x="521" y="-182.5" font-family="Verdana" font-size="10.00">ListeningSocket.h</text>
</a>
</g>
<!-- Node1&#45;&gt;Node11 -->
<g id="edge28" class="edge"><title>Node1&#45;&gt;Node11</title>
<path fill="none" stroke="midnightblue" d="M379.822,-290.703C364.337,-274.615 347.21,-250.424 361,-232 367.518,-223.291 421.53,-208.609 465.023,-197.968"/>
<polygon fill="midnightblue" stroke="midnightblue" points="466.072,-201.315 474.967,-195.56 464.424,-194.512 466.072,-201.315"/>
</g>
<!-- Node13 -->
<g id="node31" class="node"><title>Node13</title>
<polygon fill="white" stroke="#bfbfbf" points="369.5,-232.5 369.5,-253.5 428.5,-253.5 428.5,-232.5 369.5,-232.5"/>
<text text-anchor="middle" x="399" y="-240.5" font-family="Verdana" font-size="10.00">iostream</text>
</g>
<!-- Node1&#45;&gt;Node13 -->
<g id="edge36" class="edge"><title>Node1&#45;&gt;Node13</title>
<path fill="none" stroke="midnightblue" d="M399,-290.922C399,-282.67 399,-272.692 399,-263.982"/>
<polygon fill="midnightblue" stroke="midnightblue" points="402.5,-263.852 399,-253.852 395.5,-263.852 402.5,-263.852"/>
</g>
<!-- Node14 -->
<g id="node33" class="node"><title>Node14</title>
<polygon fill="white" stroke="#bfbfbf" points="445.5,-232.5 445.5,-253.5 502.5,-253.5 502.5,-232.5 445.5,-232.5"/>
<text text-anchor="middle" x="474" y="-240.5" font-family="Verdana" font-size="10.00">memory</text>
</g>
<!-- Node1&#45;&gt;Node14 -->
<g id="edge38" class="edge"><title>Node1&#45;&gt;Node14</title>
<path fill="none" stroke="midnightblue" d="M418.705,-290.922C429.496,-281.57 442.845,-270.001 453.724,-260.572"/>
<polygon fill="midnightblue" stroke="midnightblue" points="456.214,-263.046 461.478,-253.852 451.629,-257.757 456.214,-263.046"/>
</g>
<!-- Node15 -->
<g id="node35" class="node"><title>Node15</title>
<polygon fill="white" stroke="#bfbfbf" points="520,-232.5 520,-253.5 576,-253.5 576,-232.5 520,-232.5"/>
<text text-anchor="middle" x="548" y="-240.5" font-family="Verdana" font-size="10.00">assert.h</text>
</g>
<!-- Node1&#45;&gt;Node15 -->
<g id="edge40" class="edge"><title>Node1&#45;&gt;Node15</title>
<path fill="none" stroke="midnightblue" d="M438.148,-290.922C461.838,-280.588 491.736,-267.545 514.358,-257.676"/>
<polygon fill="midnightblue" stroke="midnightblue" points="515.801,-260.865 523.568,-253.658 513.002,-254.449 515.801,-260.865"/>
</g>
<!-- Node16 -->
<g id="node37" class="node"><title>Node16</title>
<polygon fill="white" stroke="#bfbfbf" points="594,-232.5 594,-253.5 636,-253.5 636,-232.5 594,-232.5"/>
<text text-anchor="middle" x="615" y="-240.5" font-family="Verdana" font-size="10.00">poll.h</text>
</g>
<!-- Node1&#45;&gt;Node16 -->
<g id="edge42" class="edge"><title>Node1&#45;&gt;Node16</title>
<path fill="none" stroke="midnightblue" d="M461.754,-290.943C495.634,-281.464 538.338,-269.084 584.23,-254.123"/>
<polygon fill="midnightblue" stroke="midnightblue" points="585.349,-257.439 593.758,-250.994 583.165,-250.788 585.349,-257.439"/>
</g>
<!-- Node17 -->
<g id="node39" class="node"><title>Node17</title>
<polygon fill="white" stroke="#bfbfbf" points="653.5,-232.5 653.5,-253.5 708.5,-253.5 708.5,-232.5 653.5,-232.5"/>
<text text-anchor="middle" x="681" y="-240.5" font-family="Verdana" font-size="10.00">unistd.h</text>
</g>
<!-- Node1&#45;&gt;Node17 -->
<g id="edge44" class="edge"><title>Node1&#45;&gt;Node17</title>
<path fill="none" stroke="midnightblue" d="M484.505,-290.995C529.402,-281.649 585.496,-269.321 643.138,-254.371"/>
<polygon fill="midnightblue" stroke="midnightblue" points="644.367,-257.667 653.155,-251.75 642.595,-250.895 644.367,-257.667"/>
</g>
<!-- Node18 -->
<g id="node41" class="node"><title>Node18</title>
<polygon fill="white" stroke="#bfbfbf" points="726,-232.5 726,-253.5 784,-253.5 784,-232.5 726,-232.5"/>
<text text-anchor="middle" x="755" y="-240.5" font-family="Verdana" font-size="10.00">strings.h</text>
</g>
<!-- Node1&#45;&gt;Node18 -->
<g id="edge46" class="edge"><title>Node1&#45;&gt;Node18</title>
<path fill="none" stroke="midnightblue" d="M494.176,-294.728C555.05,-285.561 635.816,-272.146 715.422,-254.189"/>
<polygon fill="midnightblue" stroke="midnightblue" points="716.657,-257.497 725.628,-251.86 715.1,-250.672 716.657,-257.497"/>
</g>
<!-- Node19 -->
<g id="node44" class="node"><title>Node19</title>
<a xlink:href="AnswerMessage_8h.html" target="_top" xlink:title="AnswerMessage.h">
<polygon fill="white" stroke="black" points="312.5,-116.5 312.5,-137.5 415.5,-137.5 415.5,-116.5 312.5,-116.5"/>
<text text-anchor="middle" x="364" y="-124.5" font-family="Verdana" font-size="10.00">AnswerMessage.h</text>
</a>
</g>
<!-- Node1&#45;&gt;Node19 -->
<g id="edge50" class="edge"><title>Node1&#45;&gt;Node19</title>
<path fill="none" stroke="midnightblue" d="M303.844,-295.418C248.569,-286.349 185.829,-272.457 165,-254 144.481,-235.818 148.738,-223.003 144,-196 142.31,-186.369 137.851,-181.602 144,-174 146.547,-170.852 238.158,-152.051 302.346,-139.203"/>
<polygon fill="midnightblue" stroke="midnightblue" points="303.274,-142.587 312.395,-137.196 301.903,-135.723 303.274,-142.587"/>
</g>
<!-- Node20 -->
<g id="node47" class="node"><title>Node20</title>
<a xlink:href="RemoteCommandHandler_8h.html" target="_top" xlink:title="RemoteCommandHandler.h">
<polygon fill="white" stroke="black" points="-0.5,-116.5 -0.5,-137.5 148.5,-137.5 148.5,-116.5 -0.5,-116.5"/>
<text text-anchor="middle" x="74" y="-124.5" font-family="Verdana" font-size="10.00">RemoteCommandHandler.h</text>
</a>
</g>
<!-- Node1&#45;&gt;Node20 -->
<g id="edge54" class="edge"><title>Node1&#45;&gt;Node20</title>
<path fill="none" stroke="midnightblue" d="M303.696,-298.909C235.798,-290.67 151.977,-276.345 125,-254 92.5308,-227.106 80.5704,-176.478 76.2874,-147.939"/>
<polygon fill="midnightblue" stroke="midnightblue" points="79.7344,-147.306 74.9577,-137.849 72.7944,-148.22 79.7344,-147.306"/>
</g>
<!-- Node3 -->
<g id="node5" class="node"><title>Node3</title>
<polygon fill="white" stroke="#bfbfbf" points="378.5,-0.5 378.5,-21.5 431.5,-21.5 431.5,-0.5 378.5,-0.5"/>
<text text-anchor="middle" x="405" y="-8.5" font-family="Verdana" font-size="10.00">stdint.h</text>
</g>
<!-- Node2&#45;&gt;Node3 -->
<g id="edge4" class="edge"><title>Node2&#45;&gt;Node3</title>
<path fill="none" stroke="midnightblue" d="M314.31,-233.572C358.764,-226.005 410.328,-213.701 424,-196 461.885,-146.952 432.274,-67.4464 415.087,-30.7344"/>
<polygon fill="midnightblue" stroke="midnightblue" points="418.154,-29.0391 410.635,-21.5754 411.859,-32.0993 418.154,-29.0391"/>
</g>
<!-- Node4 -->
<g id="node7" class="node"><title>Node4</title>
<polygon fill="white" stroke="#bfbfbf" points="352.5,-174.5 352.5,-195.5 415.5,-195.5 415.5,-174.5 352.5,-174.5"/>
<text text-anchor="middle" x="384" y="-182.5" font-family="Verdana" font-size="10.00">pthread.h</text>
</g>
<!-- Node2&#45;&gt;Node4 -->
<g id="edge6" class="edge"><title>Node2&#45;&gt;Node4</title>
<path fill="none" stroke="midnightblue" d="M269.353,-232.497C291.613,-223.275 324.212,-209.769 348.963,-199.515"/>
<polygon fill="midnightblue" stroke="midnightblue" points="350.464,-202.682 358.363,-195.621 347.784,-196.215 350.464,-202.682"/>
</g>
<!-- Node5 -->
<g id="node9" class="node"><title>Node5</title>
<a xlink:href="RemoteProcessorServerInterface_8h.html" target="_top" xlink:title="RemoteProcessorServerInterface.h">
<polygon fill="white" stroke="black" points="152.5,-174.5 152.5,-195.5 335.5,-195.5 335.5,-174.5 152.5,-174.5"/>
<text text-anchor="middle" x="244" y="-182.5" font-family="Verdana" font-size="10.00">RemoteProcessorServerInterface.h</text>
</a>
</g>
<!-- Node2&#45;&gt;Node5 -->
<g id="edge8" class="edge"><title>Node2&#45;&gt;Node5</title>
<path fill="none" stroke="midnightblue" d="M244,-232.362C244,-224.922 244,-214.743 244,-205.728"/>
<polygon fill="midnightblue" stroke="midnightblue" points="247.5,-205.571 244,-195.571 240.5,-205.571 247.5,-205.571"/>
</g>
<!-- Node5&#45;&gt;Node6 -->
<g id="edge10" class="edge"><title>Node5&#45;&gt;Node6</title>
<path fill="none" stroke="midnightblue" d="M243.633,-174.362C243.377,-166.922 243.026,-156.743 242.715,-147.728"/>
<polygon fill="midnightblue" stroke="midnightblue" points="246.207,-147.444 242.365,-137.571 239.211,-147.685 246.207,-147.444"/>
</g>
<!-- Node7 -->
<g id="node13" class="node"><title>Node7</title>
<a xlink:href="Message_8h.html" target="_top" xlink:title="Message.h">
<polygon fill="white" stroke="black" points="334,-58.5 334,-79.5 402,-79.5 402,-58.5 334,-58.5"/>
<text text-anchor="middle" x="368" y="-66.5" font-family="Verdana" font-size="10.00">Message.h</text>
</a>
</g>
<!-- Node6&#45;&gt;Node7 -->
<g id="edge12" class="edge"><title>Node6&#45;&gt;Node7</title>
<path fill="none" stroke="midnightblue" d="M264.818,-116.497C284.586,-107.397 313.413,-94.1273 335.576,-83.9253"/>
<polygon fill="midnightblue" stroke="midnightblue" points="337.306,-86.982 344.926,-79.6212 334.379,-80.6234 337.306,-86.982"/>
</g>
<!-- Node8 -->
<g id="node16" class="node"><title>Node8</title>
<polygon fill="white" stroke="#bfbfbf" points="220,-0.5 220,-21.5 264,-21.5 264,-0.5 220,-0.5"/>
<text text-anchor="middle" x="242" y="-8.5" font-family="Verdana" font-size="10.00">string</text>
</g>
<!-- Node6&#45;&gt;Node8 -->
<g id="edge26" class="edge"><title>Node6&#45;&gt;Node8</title>
<path fill="none" stroke="midnightblue" d="M242,-116.295C242,-97.1314 242,-56.654 242,-31.8434"/>
<polygon fill="midnightblue" stroke="midnightblue" points="245.5,-31.6792 242,-21.6792 238.5,-31.6792 245.5,-31.6792"/>
</g>
<!-- Node9 -->
<g id="node18" class="node"><title>Node9</title>
<a xlink:href="RemoteCommand_8h.html" target="_top" xlink:title="RemoteCommand.h">
<polygon fill="white" stroke="black" points="101.5,-58.5 101.5,-79.5 214.5,-79.5 214.5,-58.5 101.5,-58.5"/>
<text text-anchor="middle" x="158" y="-66.5" font-family="Verdana" font-size="10.00">RemoteCommand.h</text>
</a>
</g>
<!-- Node6&#45;&gt;Node9 -->
<g id="edge18" class="edge"><title>Node6&#45;&gt;Node9</title>
<path fill="none" stroke="midnightblue" d="M226.593,-116.362C214.042,-107.696 196.108,-95.3126 181.725,-85.3819"/>
<polygon fill="midnightblue" stroke="midnightblue" points="183.527,-82.3725 173.309,-79.5707 179.55,-88.1327 183.527,-82.3725"/>
</g>
<!-- Node10 -->
<g id="node22" class="node"><title>Node10</title>
<polygon fill="white" stroke="#bfbfbf" points="269.5,-58.5 269.5,-79.5 316.5,-79.5 316.5,-58.5 269.5,-58.5"/>
<text text-anchor="middle" x="293" y="-66.5" font-family="Verdana" font-size="10.00">vector</text>
</g>
<!-- Node6&#45;&gt;Node10 -->
<g id="edge24" class="edge"><title>Node6&#45;&gt;Node10</title>
<path fill="none" stroke="midnightblue" d="M251.354,-116.362C258.543,-108.186 268.641,-96.7025 277.093,-87.0907"/>
<polygon fill="midnightblue" stroke="midnightblue" points="279.73,-89.3916 283.705,-79.5707 274.473,-84.7692 279.73,-89.3916"/>
</g>
<!-- Node7&#45;&gt;Node3 -->
<g id="edge14" class="edge"><title>Node7&#45;&gt;Node3</title>
<path fill="none" stroke="midnightblue" d="M374.786,-58.3619C379.793,-50.5131 386.745,-39.6159 392.718,-30.2527"/>
<polygon fill="midnightblue" stroke="midnightblue" points="395.829,-31.8837 398.257,-21.5707 389.928,-28.1189 395.829,-31.8837"/>
</g>
<!-- Node7&#45;&gt;Node8 -->
<g id="edge16" class="edge"><title>Node7&#45;&gt;Node8</title>
<path fill="none" stroke="midnightblue" d="M345.182,-58.4966C325.167,-49.2832 295.865,-35.7949 273.596,-25.5442"/>
<polygon fill="midnightblue" stroke="midnightblue" points="274.772,-22.2327 264.225,-21.2305 271.845,-28.5914 274.772,-22.2327"/>
</g>
<!-- Node9&#45;&gt;Node3 -->
<g id="edge20" class="edge"><title>Node9&#45;&gt;Node3</title>
<path fill="none" stroke="midnightblue" d="M202.73,-58.4966C250.221,-47.3448 324.384,-29.93 368.486,-19.5742"/>
<polygon fill="midnightblue" stroke="midnightblue" points="369.548,-22.92 378.483,-17.2266 367.948,-16.1053 369.548,-22.92"/>
</g>
<!-- Node9&#45;&gt;Node8 -->
<g id="edge22" class="edge"><title>Node9&#45;&gt;Node8</title>
<path fill="none" stroke="midnightblue" d="M173.407,-58.3619C185.958,-49.6955 203.892,-37.3126 218.275,-27.3819"/>
<polygon fill="midnightblue" stroke="midnightblue" points="220.45,-30.1327 226.691,-21.5707 216.473,-24.3725 220.45,-30.1327"/>
</g>
<!-- Node12 -->
<g id="node27" class="node"><title>Node12</title>
<a xlink:href="Socket_8h.html" target="_top" xlink:title="Socket.h">
<polygon fill="white" stroke="black" points="470.5,-58.5 470.5,-79.5 529.5,-79.5 529.5,-58.5 470.5,-58.5"/>
<text text-anchor="middle" x="500" y="-66.5" font-family="Verdana" font-size="10.00">Socket.h</text>
</a>
</g>
<!-- Node11&#45;&gt;Node12 -->
<g id="edge30" class="edge"><title>Node11&#45;&gt;Node12</title>
<path fill="none" stroke="midnightblue" d="M519.062,-174.295C515.593,-155.131 508.265,-114.654 503.773,-89.8434"/>
<polygon fill="midnightblue" stroke="midnightblue" points="507.159,-88.8957 501.933,-79.6792 500.271,-90.1428 507.159,-88.8957"/>
</g>
<!-- Node12&#45;&gt;Node3 -->
<g id="edge34" class="edge"><title>Node12&#45;&gt;Node3</title>
<path fill="none" stroke="midnightblue" d="M482.576,-58.3619C468.113,-49.532 447.331,-36.844 430.916,-26.8224"/>
<polygon fill="midnightblue" stroke="midnightblue" points="432.673,-23.7943 422.314,-21.5707 429.025,-29.7688 432.673,-23.7943"/>
</g>
<!-- Node12&#45;&gt;Node8 -->
<g id="edge32" class="edge"><title>Node12&#45;&gt;Node8</title>
<path fill="none" stroke="midnightblue" d="M470.404,-62.3467C421.594,-51.3738 324.607,-29.5706 274.163,-18.2305"/>
<polygon fill="midnightblue" stroke="midnightblue" points="274.664,-14.7558 264.14,-15.9772 273.129,-21.5854 274.664,-14.7558"/>
</g>
<!-- Node19&#45;&gt;Node7 -->
<g id="edge52" class="edge"><title>Node19&#45;&gt;Node7</title>
<path fill="none" stroke="midnightblue" d="M364.734,-116.362C365.247,-108.922 365.949,-98.7427 366.571,-89.7276"/>
<polygon fill="midnightblue" stroke="midnightblue" points="370.075,-89.7878 367.271,-79.5707 363.091,-89.3061 370.075,-89.7878"/>
</g>
<!-- Node20&#45;&gt;Node8 -->
<g id="edge58" class="edge"><title>Node20&#45;&gt;Node8</title>
<path fill="none" stroke="midnightblue" d="M73.9338,-116.374C74.4262,-101.368 77.5658,-74.0137 93,-58 109.173,-41.2194 170.772,-25.7892 209.524,-17.4578"/>
<polygon fill="midnightblue" stroke="midnightblue" points="210.725,-20.782 219.791,-15.3009 209.285,-13.9316 210.725,-20.782"/>
</g>
<!-- Node20&#45;&gt;Node9 -->
<g id="edge56" class="edge"><title>Node20&#45;&gt;Node9</title>
<path fill="none" stroke="midnightblue" d="M89.4069,-116.362C101.958,-107.696 119.892,-95.3126 134.275,-85.3819"/>
<polygon fill="midnightblue" stroke="midnightblue" points="136.45,-88.1327 142.691,-79.5707 132.473,-82.3725 136.45,-88.1327"/>
</g>
</g>
</svg>
