<?xml version="1.0" encoding="UTF-8" standalone="no"?>
<!DOCTYPE svg PUBLIC "-//W3C//DTD SVG 1.1//EN"
 "http://www.w3.org/Graphics/SVG/1.1/DTD/svg11.dtd">
<!-- Generated by graphviz version 2.26.3 (20100126.1600)
 -->
<!-- Title: remote&#45;processor/RemoteProcessorServer.h Pages: 1 -->
<svg width="406pt" height="116pt"
 viewBox="0.00 0.00 406.00 116.00" xmlns="http://www.w3.org/2000/svg" xmlns:xlink="http://www.w3.org/1999/xlink">
<g id="graph1" class="graph" transform="scale(1 1) rotate(0) translate(4 112)">
<title>remote&#45;processor/RemoteProcessorServer.h</title>
<polygon fill="white" stroke="white" points="-4,5 -4,-112 403,-112 403,5 -4,5"/>
<!-- Node1 -->
<g id="node1" class="node"><title>Node1</title>
<polygon fill="#bfbfbf" stroke="black" points="104,-73 104,-107 294,-107 294,-73 104,-73"/>
<text text-anchor="start" x="112" y="-94" font-family="Verdana" font-size="10.00">remote&#45;processor/RemoteProcessor</text>
<text text-anchor="middle" x="199" y="-81" font-family="Verdana" font-size="10.00">Server.h</text>
</g>
<!-- Node2 -->
<g id="node3" class="node"><title>Node2</title>
<a xlink:href="RemoteProcessorServer_8cpp.html" target="_top" xlink:title="remote&#45;processor/RemoteProcessor\lServer.cpp">
<polygon fill="white" stroke="black" points="0,-1 0,-35 190,-35 190,-1 0,-1"/>
<text text-anchor="start" x="8" y="-22" font-family="Verdana" font-size="10.00">remote&#45;processor/RemoteProcessor</text>
<text text-anchor="middle" x="95" y="-9" font-family="Verdana" font-size="10.00">Server.cpp</text>
</a>
</g>
<!-- Node1&#45;&gt;Node2 -->
<g id="edge2" class="edge"><title>Node1&#45;&gt;Node2</title>
<path fill="none" stroke="midnightblue" d="M165.885,-67.0743C150.954,-56.7376 133.62,-44.7368 119.83,-35.19"/>
<polygon fill="midnightblue" stroke="midnightblue" points="164.139,-70.1225 174.353,-72.937 168.124,-64.3672 164.139,-70.1225"/>
</g>
<!-- Node3 -->
<g id="node5" class="node"><title>Node3</title>
<a xlink:href="RemoteProcessorServerBuilder_8cpp.html" target="_top" xlink:title="remote&#45;processor/RemoteProcessor\lServerBuilder.cpp">
<polygon fill="white" stroke="black" points="208,-1 208,-35 398,-35 398,-1 208,-1"/>
<text text-anchor="start" x="216" y="-22" font-family="Verdana" font-size="10.00">remote&#45;processor/RemoteProcessor</text>
<text text-anchor="middle" x="303" y="-9" font-family="Verdana" font-size="10.00">ServerBuilder.cpp</text>
</a>
</g>
<!-- Node1&#45;&gt;Node3 -->
<g id="edge4" class="edge"><title>Node1&#45;&gt;Node3</title>
<path fill="none" stroke="midnightblue" d="M232.115,-67.0743C247.046,-56.7376 264.38,-44.7368 278.17,-35.19"/>
<polygon fill="midnightblue" stroke="midnightblue" points="229.876,-64.3672 223.647,-72.937 233.861,-70.1225 229.876,-64.3672"/>
</g>
</g>
</svg>
