<?xml version="1.0" encoding="UTF-8" standalone="no"?>
<!DOCTYPE svg PUBLIC "-//W3C//DTD SVG 1.1//EN"
 "http://www.w3.org/Graphics/SVG/1.1/DTD/svg11.dtd">
<!-- Generated by graphviz version 2.26.3 (20100126.1600)
 -->
<!-- Title: remote&#45;processor/RemoteProcessorServerInterface.h Pages: 1 -->
<svg width="478pt" height="188pt"
 viewBox="0.00 0.00 478.00 188.00" xmlns="http://www.w3.org/2000/svg" xmlns:xlink="http://www.w3.org/1999/xlink">
<g id="graph1" class="graph" transform="scale(1 1) rotate(0) translate(4 184)">
<title>remote&#45;processor/RemoteProcessorServerInterface.h</title>
<polygon fill="white" stroke="white" points="-4,5 -4,-184 475,-184 475,5 -4,5"/>
<!-- Node1 -->
<g id="node1" class="node"><title>Node1</title>
<polygon fill="#bfbfbf" stroke="black" points="80,-145 80,-179 270,-179 270,-145 80,-145"/>
<text text-anchor="start" x="88" y="-166" font-family="Verdana" font-size="10.00">remote&#45;processor/RemoteProcessor</text>
<text text-anchor="middle" x="175" y="-153" font-family="Verdana" font-size="10.00">ServerInterface.h</text>
</g>
<!-- Node2 -->
<g id="node3" class="node"><title>Node2</title>
<a xlink:href="ParameterMgr_8cpp.html" target="_top" xlink:title="parameter/ParameterMgr.cpp">
<polygon fill="white" stroke="black" points="0,-79.5 0,-100.5 158,-100.5 158,-79.5 0,-79.5"/>
<text text-anchor="middle" x="79" y="-87.5" font-family="Verdana" font-size="10.00">parameter/ParameterMgr.cpp</text>
</a>
</g>
<!-- Node1&#45;&gt;Node2 -->
<g id="edge2" class="edge"><title>Node1&#45;&gt;Node2</title>
<path fill="none" stroke="midnightblue" d="M144.17,-138.877C127.071,-126.053 106.624,-110.718 93.2507,-100.688"/>
<polygon fill="midnightblue" stroke="midnightblue" points="142.149,-141.737 152.249,-144.937 146.349,-136.137 142.149,-141.737"/>
</g>
<!-- Node3 -->
<g id="node5" class="node"><title>Node3</title>
<a xlink:href="RemoteProcessorServer_8h.html" target="_top" xlink:title="remote&#45;processor/RemoteProcessor\lServer.h">
<polygon fill="white" stroke="black" points="176,-73 176,-107 366,-107 366,-73 176,-73"/>
<text text-anchor="start" x="184" y="-94" font-family="Verdana" font-size="10.00">remote&#45;processor/RemoteProcessor</text>
<text text-anchor="middle" x="271" y="-81" font-family="Verdana" font-size="10.00">Server.h</text>
</a>
</g>
<!-- Node1&#45;&gt;Node3 -->
<g id="edge4" class="edge"><title>Node1&#45;&gt;Node3</title>
<path fill="none" stroke="midnightblue" d="M205.955,-138.784C219.649,-128.514 235.47,-116.648 248.08,-107.19"/>
<polygon fill="midnightblue" stroke="midnightblue" points="203.651,-136.137 197.751,-144.937 207.851,-141.737 203.651,-136.137"/>
</g>
<!-- Node4 -->
<g id="node7" class="node"><title>Node4</title>
<a xlink:href="RemoteProcessorServer_8cpp.html" target="_top" xlink:title="remote&#45;processor/RemoteProcessor\lServer.cpp">
<polygon fill="white" stroke="black" points="72,-1 72,-35 262,-35 262,-1 72,-1"/>
<text text-anchor="start" x="80" y="-22" font-family="Verdana" font-size="10.00">remote&#45;processor/RemoteProcessor</text>
<text text-anchor="middle" x="167" y="-9" font-family="Verdana" font-size="10.00">Server.cpp</text>
</a>
</g>
<!-- Node3&#45;&gt;Node4 -->
<g id="edge6" class="edge"><title>Node3&#45;&gt;Node4</title>
<path fill="none" stroke="midnightblue" d="M237.885,-67.0743C222.954,-56.7376 205.62,-44.7368 191.83,-35.19"/>
<polygon fill="midnightblue" stroke="midnightblue" points="236.139,-70.1225 246.353,-72.937 240.124,-64.3672 236.139,-70.1225"/>
</g>
<!-- Node5 -->
<g id="node9" class="node"><title>Node5</title>
<a xlink:href="RemoteProcessorServerBuilder_8cpp.html" target="_top" xlink:title="remote&#45;processor/RemoteProcessor\lServerBuilder.cpp">
<polygon fill="white" stroke="black" points="280,-1 280,-35 470,-35 470,-1 280,-1"/>
<text text-anchor="start" x="288" y="-22" font-family="Verdana" font-size="10.00">remote&#45;processor/RemoteProcessor</text>
<text text-anchor="middle" x="375" y="-9" font-family="Verdana" font-size="10.00">ServerBuilder.cpp</text>
</a>
</g>
<!-- Node3&#45;&gt;Node5 -->
<g id="edge8" class="edge"><title>Node3&#45;&gt;Node5</title>
<path fill="none" stroke="midnightblue" d="M304.115,-67.0743C319.046,-56.7376 336.38,-44.7368 350.17,-35.19"/>
<polygon fill="midnightblue" stroke="midnightblue" points="301.876,-64.3672 295.647,-72.937 305.861,-70.1225 301.876,-64.3672"/>
</g>
</g>
</svg>
