<?xml version="1.0" encoding="UTF-8" standalone="no"?>
<!DOCTYPE svg PUBLIC "-//W3C//DTD SVG 1.1//EN"
 "http://www.w3.org/Graphics/SVG/1.1/DTD/svg11.dtd">
<!-- Generated by graphviz version 2.26.3 (20100126.1600)
 -->
<!-- Title: remote&#45;processor/RemoteCommandHandlerTemplate.h Pages: 1 -->
<svg width="236pt" height="218pt"
 viewBox="0.00 0.00 236.00 218.00" xmlns="http://www.w3.org/2000/svg" xmlns:xlink="http://www.w3.org/1999/xlink">
<g id="graph1" class="graph" transform="scale(1 1) rotate(0) translate(4 214)">
<title>remote&#45;processor/RemoteCommandHandlerTemplate.h</title>
<polygon fill="white" stroke="white" points="-4,5 -4,-214 233,-214 233,5 -4,5"/>
<!-- Node1 -->
<g id="node1" class="node"><title>Node1</title>
<polygon fill="#bfbfbf" stroke="black" points="-0.5,-175 -0.5,-209 192.5,-209 192.5,-175 -0.5,-175"/>
<text text-anchor="start" x="7.5" y="-196" font-family="Verdana" font-size="10.00">remote&#45;processor/RemoteCommand</text>
<text text-anchor="middle" x="96" y="-183" font-family="Verdana" font-size="10.00">HandlerTemplate.h</text>
</g>
<!-- Node2 -->
<g id="node3" class="node"><title>Node2</title>
<polygon fill="white" stroke="#bfbfbf" points="15.5,-116.5 15.5,-137.5 62.5,-137.5 62.5,-116.5 15.5,-116.5"/>
<text text-anchor="middle" x="39" y="-124.5" font-family="Verdana" font-size="10.00">vector</text>
</g>
<!-- Node1&#45;&gt;Node2 -->
<g id="edge2" class="edge"><title>Node1&#45;&gt;Node2</title>
<path fill="none" stroke="midnightblue" d="M81.0239,-174.922C73.0643,-165.845 63.2726,-154.679 55.1439,-145.41"/>
<polygon fill="midnightblue" stroke="midnightblue" points="57.7412,-143.063 48.5164,-137.852 52.4782,-147.678 57.7412,-143.063"/>
</g>
<!-- Node3 -->
<g id="node5" class="node"><title>Node3</title>
<a xlink:href="RemoteCommandHandler_8h.html" target="_top" xlink:title="RemoteCommandHandler.h">
<polygon fill="white" stroke="black" points="79.5,-116.5 79.5,-137.5 228.5,-137.5 228.5,-116.5 79.5,-116.5"/>
<text text-anchor="middle" x="154" y="-124.5" font-family="Verdana" font-size="10.00">RemoteCommandHandler.h</text>
</a>
</g>
<!-- Node1&#45;&gt;Node3 -->
<g id="edge4" class="edge"><title>Node1&#45;&gt;Node3</title>
<path fill="none" stroke="midnightblue" d="M111.239,-174.922C119.338,-165.845 129.302,-154.679 137.573,-145.41"/>
<polygon fill="midnightblue" stroke="midnightblue" points="140.27,-147.644 144.317,-137.852 135.047,-142.983 140.27,-147.644"/>
</g>
<!-- Node4 -->
<g id="node7" class="node"><title>Node4</title>
<a xlink:href="RemoteCommand_8h.html" target="_top" xlink:title="RemoteCommand.h">
<polygon fill="white" stroke="black" points="55.5,-58.5 55.5,-79.5 168.5,-79.5 168.5,-58.5 55.5,-58.5"/>
<text text-anchor="middle" x="112" y="-66.5" font-family="Verdana" font-size="10.00">RemoteCommand.h</text>
</a>
</g>
<!-- Node3&#45;&gt;Node4 -->
<g id="edge6" class="edge"><title>Node3&#45;&gt;Node4</title>
<path fill="none" stroke="midnightblue" d="M146.297,-116.362C140.554,-108.431 132.557,-97.3885 125.73,-87.9606"/>
<polygon fill="midnightblue" stroke="midnightblue" points="128.355,-85.6173 119.655,-79.5707 122.685,-89.7229 128.355,-85.6173"/>
</g>
<!-- Node6 -->
<g id="node11" class="node"><title>Node6</title>
<polygon fill="white" stroke="#bfbfbf" points="165,-0.5 165,-21.5 209,-21.5 209,-0.5 165,-0.5"/>
<text text-anchor="middle" x="187" y="-8.5" font-family="Verdana" font-size="10.00">string</text>
</g>
<!-- Node3&#45;&gt;Node6 -->
<g id="edge12" class="edge"><title>Node3&#45;&gt;Node6</title>
<path fill="none" stroke="midnightblue" d="M160.496,-116.196C165.774,-106.918 172.979,-93.0199 177,-80 181.903,-64.121 184.424,-45.4275 185.707,-31.5058"/>
<polygon fill="midnightblue" stroke="midnightblue" points="189.198,-31.7523 186.492,-21.5088 182.219,-31.2039 189.198,-31.7523"/>
</g>
<!-- Node5 -->
<g id="node9" class="node"><title>Node5</title>
<polygon fill="white" stroke="#bfbfbf" points="85.5,-0.5 85.5,-21.5 138.5,-21.5 138.5,-0.5 85.5,-0.5"/>
<text text-anchor="middle" x="112" y="-8.5" font-family="Verdana" font-size="10.00">stdint.h</text>
</g>
<!-- Node4&#45;&gt;Node5 -->
<g id="edge8" class="edge"><title>Node4&#45;&gt;Node5</title>
<path fill="none" stroke="midnightblue" d="M112,-58.3619C112,-50.9219 112,-40.7427 112,-31.7276"/>
<polygon fill="midnightblue" stroke="midnightblue" points="115.5,-31.5706 112,-21.5707 108.5,-31.5707 115.5,-31.5706"/>
</g>
<!-- Node4&#45;&gt;Node6 -->
<g id="edge10" class="edge"><title>Node4&#45;&gt;Node6</title>
<path fill="none" stroke="midnightblue" d="M125.756,-58.3619C136.751,-49.859 152.373,-37.7785 165.086,-27.9466"/>
<polygon fill="midnightblue" stroke="midnightblue" points="167.562,-30.4569 173.331,-21.5707 163.279,-24.9195 167.562,-30.4569"/>
</g>
</g>
</svg>
