<?xml version="1.0" encoding="UTF-8" standalone="no"?>
<!DOCTYPE svg PUBLIC "-//W3C//DTD SVG 1.1//EN"
 "http://www.w3.org/Graphics/SVG/1.1/DTD/svg11.dtd">
<!-- Generated by graphviz version 2.26.3 (20100126.1600)
 -->
<!-- Title: remote&#45;processor/RemoteProcessorServerBuilder.cpp Pages: 1 -->
<svg width="314pt" height="334pt"
 viewBox="0.00 0.00 313.94 334.00" xmlns="http://www.w3.org/2000/svg" xmlns:xlink="http://www.w3.org/1999/xlink">
<g id="graph1" class="graph" transform="scale(1 1) rotate(0) translate(4 330)">
<title>remote&#45;processor/RemoteProcessorServerBuilder.cpp</title>
<polygon fill="white" stroke="white" points="-4,5 -4,-330 310.942,-330 310.942,5 -4,5"/>
<!-- Node1 -->
<g id="node1" class="node"><title>Node1</title>
<polygon fill="#bfbfbf" stroke="black" points="39.942,-291 39.942,-325 229.942,-325 229.942,-291 39.942,-291"/>
<text text-anchor="start" x="47.942" y="-312" font-family="Verdana" font-size="10.00">remote&#45;processor/RemoteProcessor</text>
<text text-anchor="middle" x="134.942" y="-299" font-family="Verdana" font-size="10.00">ServerBuilder.cpp</text>
</g>
<!-- Node2 -->
<g id="node3" class="node"><title>Node2</title>
<a xlink:href="RemoteProcessorServer_8h.html" target="_top" xlink:title="RemoteProcessorServer.h">
<polygon fill="white" stroke="black" points="64.942,-232.5 64.942,-253.5 204.942,-253.5 204.942,-232.5 64.942,-232.5"/>
<text text-anchor="middle" x="134.942" y="-240.5" font-family="Verdana" font-size="10.00">RemoteProcessorServer.h</text>
</a>
</g>
<!-- Node1&#45;&gt;Node2 -->
<g id="edge2" class="edge"><title>Node1&#45;&gt;Node2</title>
<path fill="none" stroke="midnightblue" d="M134.942,-290.922C134.942,-282.67 134.942,-272.692 134.942,-263.982"/>
<polygon fill="midnightblue" stroke="midnightblue" points="138.442,-263.852 134.942,-253.852 131.442,-263.852 138.442,-263.852"/>
</g>
<!-- Node3 -->
<g id="node5" class="node"><title>Node3</title>
<polygon fill="white" stroke="#bfbfbf" points="123.442,-0.5 123.442,-21.5 176.442,-21.5 176.442,-0.5 123.442,-0.5"/>
<text text-anchor="middle" x="149.942" y="-8.5" font-family="Verdana" font-size="10.00">stdint.h</text>
</g>
<!-- Node2&#45;&gt;Node3 -->
<g id="edge4" class="edge"><title>Node2&#45;&gt;Node3</title>
<path fill="none" stroke="midnightblue" d="M89.8826,-232.477C69.9176,-225.474 48.0319,-214.114 34.942,-196 -1.1667,-146.033 -14.4096,-108.505 20.942,-58 31.8118,-42.471 78.9673,-28.0963 113.126,-19.4356"/>
<polygon fill="midnightblue" stroke="midnightblue" points="114.385,-22.7301 123.255,-16.9363 112.708,-15.9339 114.385,-22.7301"/>
</g>
<!-- Node4 -->
<g id="node7" class="node"><title>Node4</title>
<polygon fill="white" stroke="#bfbfbf" points="243.442,-174.5 243.442,-195.5 306.442,-195.5 306.442,-174.5 243.442,-174.5"/>
<text text-anchor="middle" x="274.942" y="-182.5" font-family="Verdana" font-size="10.00">pthread.h</text>
</g>
<!-- Node2&#45;&gt;Node4 -->
<g id="edge6" class="edge"><title>Node2&#45;&gt;Node4</title>
<path fill="none" stroke="midnightblue" d="M160.295,-232.497C182.555,-223.275 215.154,-209.769 239.905,-199.515"/>
<polygon fill="midnightblue" stroke="midnightblue" points="241.406,-202.682 249.305,-195.621 238.726,-196.215 241.406,-202.682"/>
</g>
<!-- Node5 -->
<g id="node9" class="node"><title>Node5</title>
<a xlink:href="RemoteProcessorServerInterface_8h.html" target="_top" xlink:title="RemoteProcessorServerInterface.h">
<polygon fill="white" stroke="black" points="43.442,-174.5 43.442,-195.5 226.442,-195.5 226.442,-174.5 43.442,-174.5"/>
<text text-anchor="middle" x="134.942" y="-182.5" font-family="Verdana" font-size="10.00">RemoteProcessorServerInterface.h</text>
</a>
</g>
<!-- Node2&#45;&gt;Node5 -->
<g id="edge8" class="edge"><title>Node2&#45;&gt;Node5</title>
<path fill="none" stroke="midnightblue" d="M134.942,-232.362C134.942,-224.922 134.942,-214.743 134.942,-205.728"/>
<polygon fill="midnightblue" stroke="midnightblue" points="138.442,-205.571 134.942,-195.571 131.442,-205.571 138.442,-205.571"/>
</g>
<!-- Node6 -->
<g id="node11" class="node"><title>Node6</title>
<a xlink:href="RequestMessage_8h.html" target="_top" xlink:title="RequestMessage.h">
<polygon fill="white" stroke="black" points="96.442,-116.5 96.442,-137.5 203.442,-137.5 203.442,-116.5 96.442,-116.5"/>
<text text-anchor="middle" x="149.942" y="-124.5" font-family="Verdana" font-size="10.00">RequestMessage.h</text>
</a>
</g>
<!-- Node5&#45;&gt;Node6 -->
<g id="edge10" class="edge"><title>Node5&#45;&gt;Node6</title>
<path fill="none" stroke="midnightblue" d="M137.693,-174.362C139.639,-166.84 142.308,-156.519 144.658,-147.431"/>
<polygon fill="midnightblue" stroke="midnightblue" points="148.093,-148.128 147.208,-137.571 141.316,-146.376 148.093,-148.128"/>
</g>
<!-- Node7 -->
<g id="node13" class="node"><title>Node7</title>
<a xlink:href="Message_8h.html" target="_top" xlink:title="Message.h">
<polygon fill="white" stroke="black" points="223.942,-58.5 223.942,-79.5 291.942,-79.5 291.942,-58.5 223.942,-58.5"/>
<text text-anchor="middle" x="257.942" y="-66.5" font-family="Verdana" font-size="10.00">Message.h</text>
</a>
</g>
<!-- Node6&#45;&gt;Node7 -->
<g id="edge12" class="edge"><title>Node6&#45;&gt;Node7</title>
<path fill="none" stroke="midnightblue" d="M169.5,-116.497C186.14,-107.56 210.269,-94.602 229.122,-84.4772"/>
<polygon fill="midnightblue" stroke="midnightblue" points="231.011,-87.436 238.165,-79.6212 227.699,-81.2691 231.011,-87.436"/>
</g>
<!-- Node8 -->
<g id="node16" class="node"><title>Node8</title>
<polygon fill="white" stroke="#bfbfbf" points="235.942,-0.5 235.942,-21.5 279.942,-21.5 279.942,-0.5 235.942,-0.5"/>
<text text-anchor="middle" x="257.942" y="-8.5" font-family="Verdana" font-size="10.00">string</text>
</g>
<!-- Node6&#45;&gt;Node8 -->
<g id="edge26" class="edge"><title>Node6&#45;&gt;Node8</title>
<path fill="none" stroke="midnightblue" d="M203.834,-117.196C242.266,-108.98 289.142,-96.031 300.942,-80 313.454,-63.002 296.678,-42.3198 280.561,-28.0568"/>
<polygon fill="midnightblue" stroke="midnightblue" points="282.755,-25.3293 272.832,-21.6148 278.273,-30.7062 282.755,-25.3293"/>
</g>
<!-- Node9 -->
<g id="node18" class="node"><title>Node9</title>
<a xlink:href="RemoteCommand_8h.html" target="_top" xlink:title="RemoteCommand.h">
<polygon fill="white" stroke="black" points="93.442,-58.5 93.442,-79.5 206.442,-79.5 206.442,-58.5 93.442,-58.5"/>
<text text-anchor="middle" x="149.942" y="-66.5" font-family="Verdana" font-size="10.00">RemoteCommand.h</text>
</a>
</g>
<!-- Node6&#45;&gt;Node9 -->
<g id="edge18" class="edge"><title>Node6&#45;&gt;Node9</title>
<path fill="none" stroke="midnightblue" d="M149.942,-116.362C149.942,-108.922 149.942,-98.7427 149.942,-89.7276"/>
<polygon fill="midnightblue" stroke="midnightblue" points="153.442,-89.5706 149.942,-79.5707 146.442,-89.5707 153.442,-89.5706"/>
</g>
<!-- Node10 -->
<g id="node22" class="node"><title>Node10</title>
<polygon fill="white" stroke="#bfbfbf" points="29.442,-58.5 29.442,-79.5 76.442,-79.5 76.442,-58.5 29.442,-58.5"/>
<text text-anchor="middle" x="52.942" y="-66.5" font-family="Verdana" font-size="10.00">vector</text>
</g>
<!-- Node6&#45;&gt;Node10 -->
<g id="edge24" class="edge"><title>Node6&#45;&gt;Node10</title>
<path fill="none" stroke="midnightblue" d="M132.151,-116.362C117.384,-107.532 96.1638,-94.844 79.4037,-84.8224"/>
<polygon fill="midnightblue" stroke="midnightblue" points="80.9995,-81.6987 70.6206,-79.5707 77.4071,-87.7066 80.9995,-81.6987"/>
</g>
<!-- Node7&#45;&gt;Node3 -->
<g id="edge14" class="edge"><title>Node7&#45;&gt;Node3</title>
<path fill="none" stroke="midnightblue" d="M238.384,-58.4966C221.744,-49.5602 197.615,-36.602 178.762,-26.4772"/>
<polygon fill="midnightblue" stroke="midnightblue" points="180.185,-23.2691 169.719,-21.6212 176.873,-29.436 180.185,-23.2691"/>
</g>
<!-- Node7&#45;&gt;Node8 -->
<g id="edge16" class="edge"><title>Node7&#45;&gt;Node8</title>
<path fill="none" stroke="midnightblue" d="M257.942,-58.3619C257.942,-50.9219 257.942,-40.7427 257.942,-31.7276"/>
<polygon fill="midnightblue" stroke="midnightblue" points="261.442,-31.5706 257.942,-21.5707 254.442,-31.5707 261.442,-31.5706"/>
</g>
<!-- Node9&#45;&gt;Node3 -->
<g id="edge20" class="edge"><title>Node9&#45;&gt;Node3</title>
<path fill="none" stroke="midnightblue" d="M149.942,-58.3619C149.942,-50.9219 149.942,-40.7427 149.942,-31.7276"/>
<polygon fill="midnightblue" stroke="midnightblue" points="153.442,-31.5706 149.942,-21.5707 146.442,-31.5707 153.442,-31.5706"/>
</g>
<!-- Node9&#45;&gt;Node8 -->
<g id="edge22" class="edge"><title>Node9&#45;&gt;Node8</title>
<path fill="none" stroke="midnightblue" d="M169.5,-58.4966C186.14,-49.5602 210.269,-36.602 229.122,-26.4772"/>
<polygon fill="midnightblue" stroke="midnightblue" points="231.011,-29.436 238.165,-21.6212 227.699,-23.2691 231.011,-29.436"/>
</g>
</g>
</svg>
