<?xml version="1.0" encoding="UTF-8" standalone="no"?>
<!DOCTYPE svg PUBLIC "-//W3C//DTD SVG 1.1//EN"
 "http://www.w3.org/Graphics/SVG/1.1/DTD/svg11.dtd">
<!-- Generated by graphviz version 2.26.3 (20100126.1600)
 -->
<!-- Title: remote&#45;processor/RemoteProcessorProtocol.h Pages: 1 -->
<svg width="558pt" height="116pt"
 viewBox="0.00 0.00 558.00 116.00" xmlns="http://www.w3.org/2000/svg" xmlns:xlink="http://www.w3.org/1999/xlink">
<g id="graph1" class="graph" transform="scale(1 1) rotate(0) translate(4 112)">
<title>remote&#45;processor/RemoteProcessorProtocol.h</title>
<polygon fill="white" stroke="white" points="-4,5 -4,-112 555,-112 555,5 -4,5"/>
<!-- Node1 -->
<g id="node1" class="node"><title>Node1</title>
<polygon fill="#bfbfbf" stroke="black" points="209,-73 209,-107 399,-107 399,-73 209,-73"/>
<text text-anchor="start" x="217" y="-94" font-family="Verdana" font-size="10.00">remote&#45;processor/RemoteProcessor</text>
<text text-anchor="middle" x="304" y="-81" font-family="Verdana" font-size="10.00">Protocol.h</text>
</g>
<!-- Node2 -->
<g id="node3" class="node"><title>Node2</title>
<a xlink:href="AnswerMessage_8cpp.html" target="_top" xlink:title="remote&#45;processor/AnswerMessage.cpp">
<polygon fill="white" stroke="black" points="-0.5,-7.5 -0.5,-28.5 202.5,-28.5 202.5,-7.5 -0.5,-7.5"/>
<text text-anchor="middle" x="101" y="-15.5" font-family="Verdana" font-size="10.00">remote&#45;processor/AnswerMessage.cpp</text>
</a>
</g>
<!-- Node1&#45;&gt;Node2 -->
<g id="edge2" class="edge"><title>Node1&#45;&gt;Node2</title>
<path fill="none" stroke="midnightblue" d="M246.067,-69.4523C208.466,-56.116 161.02,-39.2879 130.836,-28.5821"/>
<polygon fill="midnightblue" stroke="midnightblue" points="245.297,-72.8928 255.892,-72.937 247.637,-66.2955 245.297,-72.8928"/>
</g>
<!-- Node3 -->
<g id="node5" class="node"><title>Node3</title>
<a xlink:href="Message_8cpp.html" target="_top" xlink:title="remote&#45;processor/Message.cpp">
<polygon fill="white" stroke="black" points="219.5,-7.5 219.5,-28.5 388.5,-28.5 388.5,-7.5 219.5,-7.5"/>
<text text-anchor="middle" x="304" y="-15.5" font-family="Verdana" font-size="10.00">remote&#45;processor/Message.cpp</text>
</a>
</g>
<!-- Node1&#45;&gt;Node3 -->
<g id="edge4" class="edge"><title>Node1&#45;&gt;Node3</title>
<path fill="none" stroke="midnightblue" d="M304,-62.6667C304,-50.9127 304,-37.8483 304,-28.901"/>
<polygon fill="midnightblue" stroke="midnightblue" points="300.5,-62.937 304,-72.937 307.5,-62.937 300.5,-62.937"/>
</g>
<!-- Node4 -->
<g id="node7" class="node"><title>Node4</title>
<a xlink:href="RequestMessage_8cpp.html" target="_top" xlink:title="remote&#45;processor/Request\lMessage.cpp">
<polygon fill="white" stroke="black" points="406,-1 406,-35 550,-35 550,-1 406,-1"/>
<text text-anchor="start" x="414" y="-22" font-family="Verdana" font-size="10.00">remote&#45;processor/Request</text>
<text text-anchor="middle" x="478" y="-9" font-family="Verdana" font-size="10.00">Message.cpp</text>
</a>
</g>
<!-- Node1&#45;&gt;Node4 -->
<g id="edge6" class="edge"><title>Node1&#45;&gt;Node4</title>
<path fill="none" stroke="midnightblue" d="M354.59,-69.0661C380.699,-58.2626 412.145,-45.2505 436.759,-35.0651"/>
<polygon fill="midnightblue" stroke="midnightblue" points="353.137,-65.8794 345.236,-72.937 355.814,-72.3475 353.137,-65.8794"/>
</g>
</g>
</svg>
