<?xml version="1.0" encoding="UTF-8" standalone="no"?>
<!DOCTYPE svg PUBLIC "-//W3C//DTD SVG 1.1//EN"
 "http://www.w3.org/Graphics/SVG/1.1/DTD/svg11.dtd">
<!-- Generated by graphviz version 2.26.3 (20100126.1600)
 -->
<!-- Title: remote&#45;processor/RemoteCommand.h Pages: 1 -->
<svg width="1216pt" height="390pt"
 viewBox="0.00 0.00 1215.98 390.00" xmlns="http://www.w3.org/2000/svg" xmlns:xlink="http://www.w3.org/1999/xlink">
<g id="graph1" class="graph" transform="scale(1 1) rotate(0) translate(4 386)">
<title>remote&#45;processor/RemoteCommand.h</title>
<polygon fill="white" stroke="white" points="-4,5 -4,-386 1212.98,-386 1212.98,5 -4,5"/>
<!-- Node1 -->
<g id="node1" class="node"><title>Node1</title>
<polygon fill="#bfbfbf" stroke="black" points="810,-360.5 810,-381.5 1012,-381.5 1012,-360.5 810,-360.5"/>
<text text-anchor="middle" x="911" y="-368.5" font-family="Verdana" font-size="10.00">remote&#45;processor/RemoteCommand.h</text>
</g>
<!-- Node2 -->
<g id="node3" class="node"><title>Node2</title>
<a xlink:href="RemoteCommandHandler_8h.html" target="_top" xlink:title="remote&#45;processor/RemoteCommand\lHandler.h">
<polygon fill="white" stroke="black" points="721.5,-289 721.5,-323 914.5,-323 914.5,-289 721.5,-289"/>
<text text-anchor="start" x="729.5" y="-310" font-family="Verdana" font-size="10.00">remote&#45;processor/RemoteCommand</text>
<text text-anchor="middle" x="818" y="-297" font-family="Verdana" font-size="10.00">Handler.h</text>
</a>
</g>
<!-- Node1&#45;&gt;Node2 -->
<g id="edge2" class="edge"><title>Node1&#45;&gt;Node2</title>
<path fill="none" stroke="midnightblue" d="M887.209,-354.372C873.501,-344.791 856.303,-332.771 842.48,-323.11"/>
<polygon fill="midnightblue" stroke="midnightblue" points="885.441,-357.407 895.643,-360.267 889.452,-351.669 885.441,-357.407"/>
</g>
<!-- Node11 -->
<g id="node23" class="node"><title>Node11</title>
<a xlink:href="RequestMessage_8h.html" target="_top" xlink:title="remote&#45;processor/Request\lMessage.h">
<polygon fill="white" stroke="black" points="932,-289 932,-323 1076,-323 1076,-289 932,-289"/>
<text text-anchor="start" x="940" y="-310" font-family="Verdana" font-size="10.00">remote&#45;processor/Request</text>
<text text-anchor="middle" x="1004" y="-297" font-family="Verdana" font-size="10.00">Message.h</text>
</a>
</g>
<!-- Node1&#45;&gt;Node11 -->
<g id="edge24" class="edge"><title>Node1&#45;&gt;Node11</title>
<path fill="none" stroke="midnightblue" d="M934.791,-354.372C948.499,-344.791 965.697,-332.771 979.52,-323.11"/>
<polygon fill="midnightblue" stroke="midnightblue" points="932.548,-351.669 926.357,-360.267 936.559,-357.407 932.548,-351.669"/>
</g>
<!-- Node3 -->
<g id="node5" class="node"><title>Node3</title>
<a xlink:href="RemoteCommandHandlerTemplate_8h.html" target="_top" xlink:title="remote&#45;processor/RemoteCommand\lHandlerTemplate.h">
<polygon fill="white" stroke="black" points="340.5,-217 340.5,-251 533.5,-251 533.5,-217 340.5,-217"/>
<text text-anchor="start" x="348.5" y="-238" font-family="Verdana" font-size="10.00">remote&#45;processor/RemoteCommand</text>
<text text-anchor="middle" x="437" y="-225" font-family="Verdana" font-size="10.00">HandlerTemplate.h</text>
</a>
</g>
<!-- Node2&#45;&gt;Node3 -->
<g id="edge4" class="edge"><title>Node2&#45;&gt;Node3</title>
<path fill="none" stroke="midnightblue" d="M717.598,-287.026C658.44,-275.847 584.219,-261.821 526.973,-251.003"/>
<polygon fill="midnightblue" stroke="midnightblue" points="717.232,-290.519 727.708,-288.937 718.532,-283.641 717.232,-290.519"/>
</g>
<!-- Node10 -->
<g id="node21" class="node"><title>Node10</title>
<a xlink:href="RemoteProcessorServer_8cpp.html" target="_top" xlink:title="remote&#45;processor/RemoteProcessor\lServer.cpp">
<polygon fill="white" stroke="black" points="870,-73 870,-107 1060,-107 1060,-73 870,-73"/>
<text text-anchor="start" x="878" y="-94" font-family="Verdana" font-size="10.00">remote&#45;processor/RemoteProcessor</text>
<text text-anchor="middle" x="965" y="-81" font-family="Verdana" font-size="10.00">Server.cpp</text>
</a>
</g>
<!-- Node2&#45;&gt;Node10 -->
<g id="edge22" class="edge"><title>Node2&#45;&gt;Node10</title>
<path fill="none" stroke="midnightblue" d="M835.415,-280.411C865.782,-235.79 927.637,-144.901 953.367,-107.094"/>
<polygon fill="midnightblue" stroke="midnightblue" points="832.514,-278.453 829.781,-288.689 838.301,-282.391 832.514,-278.453"/>
</g>
<!-- Node4 -->
<g id="node7" class="node"><title>Node4</title>
<a xlink:href="ParameterMgr_8h.html" target="_top" xlink:title="parameter/ParameterMgr.h">
<polygon fill="white" stroke="black" points="316.5,-151.5 316.5,-172.5 463.5,-172.5 463.5,-151.5 316.5,-151.5"/>
<text text-anchor="middle" x="390" y="-159.5" font-family="Verdana" font-size="10.00">parameter/ParameterMgr.h</text>
</a>
</g>
<!-- Node3&#45;&gt;Node4 -->
<g id="edge6" class="edge"><title>Node3&#45;&gt;Node4</title>
<path fill="none" stroke="midnightblue" d="M420.325,-208.455C412.362,-196.257 403.255,-182.305 397.116,-172.901"/>
<polygon fill="midnightblue" stroke="midnightblue" points="417.465,-210.476 425.862,-216.937 423.326,-206.65 417.465,-210.476"/>
</g>
<!-- Node5 -->
<g id="node9" class="node"><title>Node5</title>
<a xlink:href="ParameterHandle_8cpp.html" target="_top" xlink:title="parameter/ParameterHandle.cpp">
<polygon fill="white" stroke="black" points="255.5,-79.5 255.5,-100.5 430.5,-100.5 430.5,-79.5 255.5,-79.5"/>
<text text-anchor="middle" x="343" y="-87.5" font-family="Verdana" font-size="10.00">parameter/ParameterHandle.cpp</text>
</a>
</g>
<!-- Node4&#45;&gt;Node5 -->
<g id="edge8" class="edge"><title>Node4&#45;&gt;Node5</title>
<path fill="none" stroke="midnightblue" d="M377.473,-142.81C368.661,-129.311 357.195,-111.745 349.963,-100.667"/>
<polygon fill="midnightblue" stroke="midnightblue" points="374.668,-144.916 383.065,-151.376 380.53,-141.089 374.668,-144.916"/>
</g>
<!-- Node6 -->
<g id="node11" class="node"><title>Node6</title>
<a xlink:href="ParameterMgr_8cpp.html" target="_top" xlink:title="parameter/ParameterMgr.cpp">
<polygon fill="white" stroke="black" points="486,-79.5 486,-100.5 644,-100.5 644,-79.5 486,-79.5"/>
<text text-anchor="middle" x="565" y="-87.5" font-family="Verdana" font-size="10.00">parameter/ParameterMgr.cpp</text>
</a>
</g>
<!-- Node4&#45;&gt;Node6 -->
<g id="edge10" class="edge"><title>Node4&#45;&gt;Node6</title>
<path fill="none" stroke="midnightblue" d="M425.313,-147.471C459.097,-133.571 509.236,-112.943 539.357,-100.55"/>
<polygon fill="midnightblue" stroke="midnightblue" points="423.738,-144.334 415.822,-151.376 426.401,-150.808 423.738,-144.334"/>
</g>
<!-- Node7 -->
<g id="node13" class="node"><title>Node7</title>
<a xlink:href="ParameterMgrFullConnector_8cpp.html" target="_top" xlink:title="parameter/ParameterMgrFull\lConnector.cpp">
<polygon fill="white" stroke="black" points="288,-1 288,-35 442,-35 442,-1 288,-1"/>
<text text-anchor="start" x="296" y="-22" font-family="Verdana" font-size="10.00">parameter/ParameterMgrFull</text>
<text text-anchor="middle" x="365" y="-9" font-family="Verdana" font-size="10.00">Connector.cpp</text>
</a>
</g>
<!-- Node4&#45;&gt;Node7 -->
<g id="edge12" class="edge"><title>Node4&#45;&gt;Node7</title>
<path fill="none" stroke="midnightblue" d="M411.873,-144.739C422.211,-135.162 433.477,-122.305 439,-108 444.763,-93.0738 446.249,-86.2637 439,-72 431.002,-56.2622 416.027,-44.0198 401.63,-35.2005"/>
<polygon fill="midnightblue" stroke="midnightblue" points="409.486,-142.177 404.259,-151.393 414.092,-147.448 409.486,-142.177"/>
</g>
<!-- Node8 -->
<g id="node15" class="node"><title>Node8</title>
<a xlink:href="ParameterMgrLogger_8h.html" target="_top" xlink:title="parameter/ParameterMgrLogger.h">
<polygon fill="white" stroke="black" points="58,-79.5 58,-100.5 238,-100.5 238,-79.5 58,-79.5"/>
<text text-anchor="middle" x="148" y="-87.5" font-family="Verdana" font-size="10.00">parameter/ParameterMgrLogger.h</text>
</a>
</g>
<!-- Node4&#45;&gt;Node8 -->
<g id="edge14" class="edge"><title>Node4&#45;&gt;Node8</title>
<path fill="none" stroke="midnightblue" d="M344.707,-148.524C298.045,-134.641 226.272,-113.288 183.543,-100.575"/>
<polygon fill="midnightblue" stroke="midnightblue" points="343.969,-151.956 354.552,-151.453 345.965,-145.247 343.969,-151.956"/>
</g>
<!-- Node9 -->
<g id="node18" class="node"><title>Node9</title>
<a xlink:href="ParameterMgrPlatformConnector_8cpp.html" target="_top" xlink:title="parameter/ParameterMgrPlatform\lConnector.cpp">
<polygon fill="white" stroke="black" points="-0.5,-1 -0.5,-35 178.5,-35 178.5,-1 -0.5,-1"/>
<text text-anchor="start" x="7.5" y="-22" font-family="Verdana" font-size="10.00">parameter/ParameterMgrPlatform</text>
<text text-anchor="middle" x="89" y="-9" font-family="Verdana" font-size="10.00">Connector.cpp</text>
</a>
</g>
<!-- Node4&#45;&gt;Node9 -->
<g id="edge20" class="edge"><title>Node4&#45;&gt;Node9</title>
<path fill="none" stroke="midnightblue" d="M306.098,-154.379C210.581,-144.838 65.5496,-127.377 49,-108 30.4548,-86.287 53.1274,-54.6029 71.1334,-35.197"/>
<polygon fill="midnightblue" stroke="midnightblue" points="306.038,-157.89 316.333,-155.39 306.726,-150.924 306.038,-157.89"/>
</g>
<!-- Node8&#45;&gt;Node7 -->
<g id="edge16" class="edge"><title>Node8&#45;&gt;Node7</title>
<path fill="none" stroke="midnightblue" d="M189.535,-76.2187C224.817,-64.5123 275.612,-47.6586 313.479,-35.0944"/>
<polygon fill="midnightblue" stroke="midnightblue" points="188.408,-72.905 180.019,-79.3762 190.613,-79.5489 188.408,-72.905"/>
</g>
<!-- Node8&#45;&gt;Node9 -->
<g id="edge18" class="edge"><title>Node8&#45;&gt;Node9</title>
<path fill="none" stroke="midnightblue" d="M132.826,-71.4823C123.631,-60.2613 111.984,-46.0478 103.008,-35.0944"/>
<polygon fill="midnightblue" stroke="midnightblue" points="130.249,-73.8597 139.294,-79.3762 135.663,-69.423 130.249,-73.8597"/>
</g>
<!-- Node11&#45;&gt;Node10 -->
<g id="edge38" class="edge"><title>Node11&#45;&gt;Node10</title>
<path fill="none" stroke="midnightblue" d="M1086.35,-298.284C1152.87,-288.307 1230.89,-265.843 1201,-216 1165.77,-157.247 1092.79,-124.369 1037.26,-107.054"/>
<polygon fill="midnightblue" stroke="midnightblue" points="1085.63,-294.852 1076.22,-299.723 1086.61,-301.782 1085.63,-294.852"/>
</g>
<!-- Node12 -->
<g id="node25" class="node"><title>Node12</title>
<a xlink:href="main_8cpp.html" target="_top" xlink:title="remote&#45;process/main.cpp">
<polygon fill="white" stroke="black" points="890,-223.5 890,-244.5 1030,-244.5 1030,-223.5 890,-223.5"/>
<text text-anchor="middle" x="960" y="-231.5" font-family="Verdana" font-size="10.00">remote&#45;process/main.cpp</text>
</a>
</g>
<!-- Node11&#45;&gt;Node12 -->
<g id="edge26" class="edge"><title>Node11&#45;&gt;Node12</title>
<path fill="none" stroke="midnightblue" d="M988.172,-280.099C980.769,-267.986 972.353,-254.213 966.662,-244.901"/>
<polygon fill="midnightblue" stroke="midnightblue" points="985.372,-282.229 993.573,-288.937 991.345,-278.579 985.372,-282.229"/>
</g>
<!-- Node13 -->
<g id="node27" class="node"><title>Node13</title>
<a xlink:href="RemoteProcessorServerInterface_8h.html" target="_top" xlink:title="remote&#45;processor/RemoteProcessor\lServerInterface.h">
<polygon fill="white" stroke="black" points="644,-217 644,-251 834,-251 834,-217 644,-217"/>
<text text-anchor="start" x="652" y="-238" font-family="Verdana" font-size="10.00">remote&#45;processor/RemoteProcessor</text>
<text text-anchor="middle" x="739" y="-225" font-family="Verdana" font-size="10.00">ServerInterface.h</text>
</a>
</g>
<!-- Node11&#45;&gt;Node13 -->
<g id="edge28" class="edge"><title>Node11&#45;&gt;Node13</title>
<path fill="none" stroke="midnightblue" d="M931.364,-286.265C890.774,-275.237 840.695,-261.63 801.809,-251.065"/>
<polygon fill="midnightblue" stroke="midnightblue" points="930.631,-289.693 941.199,-288.937 932.466,-282.937 930.631,-289.693"/>
</g>
<!-- Node16 -->
<g id="node36" class="node"><title>Node16</title>
<a xlink:href="RequestMessage_8cpp.html" target="_top" xlink:title="remote&#45;processor/Request\lMessage.cpp">
<polygon fill="white" stroke="black" points="1048,-217 1048,-251 1192,-251 1192,-217 1048,-217"/>
<text text-anchor="start" x="1056" y="-238" font-family="Verdana" font-size="10.00">remote&#45;processor/Request</text>
<text text-anchor="middle" x="1120" y="-225" font-family="Verdana" font-size="10.00">Message.cpp</text>
</a>
</g>
<!-- Node11&#45;&gt;Node16 -->
<g id="edge40" class="edge"><title>Node11&#45;&gt;Node16</title>
<path fill="none" stroke="midnightblue" d="M1040,-283.652C1056.87,-273.187 1076.64,-260.915 1092.3,-251.19"/>
<polygon fill="midnightblue" stroke="midnightblue" points="1038.14,-280.69 1031.49,-288.937 1041.83,-286.637 1038.14,-280.69"/>
</g>
<!-- Node13&#45;&gt;Node6 -->
<g id="edge30" class="edge"><title>Node13&#45;&gt;Node6</title>
<path fill="none" stroke="midnightblue" d="M687.431,-212.688C669.782,-204.024 650.577,-192.97 635,-180 606.402,-156.188 582.056,-118.812 571.14,-100.636"/>
<polygon fill="midnightblue" stroke="midnightblue" points="685.958,-215.863 696.492,-216.999 688.965,-209.542 685.958,-215.863"/>
</g>
<!-- Node14 -->
<g id="node30" class="node"><title>Node14</title>
<a xlink:href="RemoteProcessorServer_8h.html" target="_top" xlink:title="remote&#45;processor/RemoteProcessor\lServer.h">
<polygon fill="white" stroke="black" points="644,-145 644,-179 834,-179 834,-145 644,-145"/>
<text text-anchor="start" x="652" y="-166" font-family="Verdana" font-size="10.00">remote&#45;processor/RemoteProcessor</text>
<text text-anchor="middle" x="739" y="-153" font-family="Verdana" font-size="10.00">Server.h</text>
</a>
</g>
<!-- Node13&#45;&gt;Node14 -->
<g id="edge32" class="edge"><title>Node13&#45;&gt;Node14</title>
<path fill="none" stroke="midnightblue" d="M739,-206.719C739,-197.572 739,-187.625 739,-179.441"/>
<polygon fill="midnightblue" stroke="midnightblue" points="735.5,-206.937 739,-216.937 742.5,-206.937 735.5,-206.937"/>
</g>
<!-- Node14&#45;&gt;Node10 -->
<g id="edge34" class="edge"><title>Node14&#45;&gt;Node10</title>
<path fill="none" stroke="midnightblue" d="M802.489,-141.774C836.824,-130.835 878.762,-117.474 911.434,-107.065"/>
<polygon fill="midnightblue" stroke="midnightblue" points="801.025,-138.567 792.559,-144.937 803.149,-145.236 801.025,-138.567"/>
</g>
<!-- Node15 -->
<g id="node33" class="node"><title>Node15</title>
<a xlink:href="RemoteProcessorServerBuilder_8cpp.html" target="_top" xlink:title="remote&#45;processor/RemoteProcessor\lServerBuilder.cpp">
<polygon fill="white" stroke="black" points="662,-73 662,-107 852,-107 852,-73 662,-73"/>
<text text-anchor="start" x="670" y="-94" font-family="Verdana" font-size="10.00">remote&#45;processor/RemoteProcessor</text>
<text text-anchor="middle" x="757" y="-81" font-family="Verdana" font-size="10.00">ServerBuilder.cpp</text>
</a>
</g>
<!-- Node14&#45;&gt;Node15 -->
<g id="edge36" class="edge"><title>Node14&#45;&gt;Node15</title>
<path fill="none" stroke="midnightblue" d="M745.746,-135.017C748.053,-125.788 750.571,-115.714 752.64,-107.441"/>
<polygon fill="midnightblue" stroke="midnightblue" points="742.296,-134.387 743.266,-144.937 749.087,-136.084 742.296,-134.387"/>
</g>
</g>
</svg>
