<?xml version="1.0" encoding="UTF-8" standalone="no"?>
<!DOCTYPE svg PUBLIC "-//W3C//DTD SVG 1.1//EN"
 "http://www.w3.org/Graphics/SVG/1.1/DTD/svg11.dtd">
<!-- Generated by graphviz version 2.26.3 (20100126.1600)
 -->
<!-- Title: remote&#45;processor/RequestMessage.h Pages: 1 -->
<svg width="308pt" height="160pt"
 viewBox="0.00 0.00 308.00 160.00" xmlns="http://www.w3.org/2000/svg" xmlns:xlink="http://www.w3.org/1999/xlink">
<g id="graph1" class="graph" transform="scale(1 1) rotate(0) translate(4 156)">
<title>remote&#45;processor/RequestMessage.h</title>
<polygon fill="white" stroke="white" points="-4,5 -4,-156 305,-156 305,5 -4,5"/>
<!-- Node1 -->
<g id="node1" class="node"><title>Node1</title>
<polygon fill="#bfbfbf" stroke="black" points="112,-117 112,-151 256,-151 256,-117 112,-117"/>
<text text-anchor="start" x="120" y="-138" font-family="Verdana" font-size="10.00">remote&#45;processor/Request</text>
<text text-anchor="middle" x="184" y="-125" font-family="Verdana" font-size="10.00">Message.h</text>
</g>
<!-- Node2 -->
<g id="node3" class="node"><title>Node2</title>
<a xlink:href="Message_8h.html" target="_top" xlink:title="Message.h">
<polygon fill="white" stroke="black" points="0,-58.5 0,-79.5 68,-79.5 68,-58.5 0,-58.5"/>
<text text-anchor="middle" x="34" y="-66.5" font-family="Verdana" font-size="10.00">Message.h</text>
</a>
</g>
<!-- Node1&#45;&gt;Node2 -->
<g id="edge2" class="edge"><title>Node1&#45;&gt;Node2</title>
<path fill="none" stroke="midnightblue" d="M144.589,-116.922C120.741,-106.588 90.6417,-93.5448 67.8682,-83.6762"/>
<polygon fill="midnightblue" stroke="midnightblue" points="69.1635,-80.4231 58.5962,-79.6584 66.3802,-86.846 69.1635,-80.4231"/>
</g>
<!-- Node4 -->
<g id="node7" class="node"><title>Node4</title>
<polygon fill="white" stroke="#bfbfbf" points="120,-0.5 120,-21.5 164,-21.5 164,-0.5 120,-0.5"/>
<text text-anchor="middle" x="142" y="-8.5" font-family="Verdana" font-size="10.00">string</text>
</g>
<!-- Node1&#45;&gt;Node4 -->
<g id="edge16" class="edge"><title>Node1&#45;&gt;Node4</title>
<path fill="none" stroke="midnightblue" d="M196.455,-116.73C206.24,-100.875 216.722,-77.0275 207,-58 199.741,-43.7934 185.962,-32.8895 172.952,-25.1775"/>
<polygon fill="midnightblue" stroke="midnightblue" points="174.607,-22.0936 164.157,-20.3469 171.237,-28.229 174.607,-22.0936"/>
</g>
<!-- Node5 -->
<g id="node9" class="node"><title>Node5</title>
<a xlink:href="RemoteCommand_8h.html" target="_top" xlink:title="RemoteCommand.h">
<polygon fill="white" stroke="black" points="85.5,-58.5 85.5,-79.5 198.5,-79.5 198.5,-58.5 85.5,-58.5"/>
<text text-anchor="middle" x="142" y="-66.5" font-family="Verdana" font-size="10.00">RemoteCommand.h</text>
</a>
</g>
<!-- Node1&#45;&gt;Node5 -->
<g id="edge8" class="edge"><title>Node1&#45;&gt;Node5</title>
<path fill="none" stroke="midnightblue" d="M172.965,-116.922C167.278,-108.12 160.321,-97.3541 154.443,-88.2575"/>
<polygon fill="midnightblue" stroke="midnightblue" points="157.379,-86.3518 149.012,-79.8521 151.5,-90.1508 157.379,-86.3518"/>
</g>
<!-- Node6 -->
<g id="node13" class="node"><title>Node6</title>
<polygon fill="white" stroke="#bfbfbf" points="253.5,-58.5 253.5,-79.5 300.5,-79.5 300.5,-58.5 253.5,-58.5"/>
<text text-anchor="middle" x="277" y="-66.5" font-family="Verdana" font-size="10.00">vector</text>
</g>
<!-- Node1&#45;&gt;Node6 -->
<g id="edge14" class="edge"><title>Node1&#45;&gt;Node6</title>
<path fill="none" stroke="midnightblue" d="M208.435,-116.922C222.297,-107.233 239.565,-95.1645 253.303,-85.5623"/>
<polygon fill="midnightblue" stroke="midnightblue" points="255.559,-88.2559 261.75,-79.6584 251.549,-82.5184 255.559,-88.2559"/>
</g>
<!-- Node3 -->
<g id="node5" class="node"><title>Node3</title>
<polygon fill="white" stroke="#bfbfbf" points="28.5,-0.5 28.5,-21.5 81.5,-21.5 81.5,-0.5 28.5,-0.5"/>
<text text-anchor="middle" x="55" y="-8.5" font-family="Verdana" font-size="10.00">stdint.h</text>
</g>
<!-- Node2&#45;&gt;Node3 -->
<g id="edge4" class="edge"><title>Node2&#45;&gt;Node3</title>
<path fill="none" stroke="midnightblue" d="M37.8517,-58.3619C40.6047,-50.7584 44.3936,-40.294 47.7098,-31.1349"/>
<polygon fill="midnightblue" stroke="midnightblue" points="51.0592,-32.1649 51.1727,-21.5707 44.4773,-29.7818 51.0592,-32.1649"/>
</g>
<!-- Node2&#45;&gt;Node4 -->
<g id="edge6" class="edge"><title>Node2&#45;&gt;Node4</title>
<path fill="none" stroke="midnightblue" d="M53.558,-58.4966C70.1983,-49.5602 94.3274,-36.602 113.18,-26.4772"/>
<polygon fill="midnightblue" stroke="midnightblue" points="115.069,-29.436 122.223,-21.6212 111.757,-23.2691 115.069,-29.436"/>
</g>
<!-- Node5&#45;&gt;Node3 -->
<g id="edge10" class="edge"><title>Node5&#45;&gt;Node3</title>
<path fill="none" stroke="midnightblue" d="M126.043,-58.3619C113.043,-49.6955 94.4688,-37.3126 79.5728,-27.3819"/>
<polygon fill="midnightblue" stroke="midnightblue" points="81.118,-24.2055 70.856,-21.5707 77.235,-30.0299 81.118,-24.2055"/>
</g>
<!-- Node5&#45;&gt;Node4 -->
<g id="edge12" class="edge"><title>Node5&#45;&gt;Node4</title>
<path fill="none" stroke="midnightblue" d="M142,-58.3619C142,-50.9219 142,-40.7427 142,-31.7276"/>
<polygon fill="midnightblue" stroke="midnightblue" points="145.5,-31.5706 142,-21.5707 138.5,-31.5707 145.5,-31.5706"/>
</g>
</g>
</svg>
