<?xml version="1.0" encoding="UTF-8" standalone="no"?>
<!DOCTYPE svg PUBLIC "-//W3C//DTD SVG 1.1//EN"
 "http://www.w3.org/Graphics/SVG/1.1/DTD/svg11.dtd">
<!-- Generated by graphviz version 2.26.3 (20100126.1600)
 -->
<!-- Title: remote&#45;processor/RequestMessage.h Pages: 1 -->
<svg width="574pt" height="260pt"
 viewBox="0.00 0.00 574.00 260.00" xmlns="http://www.w3.org/2000/svg" xmlns:xlink="http://www.w3.org/1999/xlink">
<g id="graph1" class="graph" transform="scale(1 1) rotate(0) translate(4 256)">
<title>remote&#45;processor/RequestMessage.h</title>
<polygon fill="white" stroke="white" points="-4,5 -4,-256 571,-256 571,5 -4,5"/>
<!-- Node1 -->
<g id="node1" class="node"><title>Node1</title>
<polygon fill="#bfbfbf" stroke="black" points="260,-217 260,-251 404,-251 404,-217 260,-217"/>
<text text-anchor="start" x="268" y="-238" font-family="Verdana" font-size="10.00">remote&#45;processor/Request</text>
<text text-anchor="middle" x="332" y="-225" font-family="Verdana" font-size="10.00">Message.h</text>
</g>
<!-- Node2 -->
<g id="node3" class="node"><title>Node2</title>
<a xlink:href="main_8cpp.html" target="_top" xlink:title="remote&#45;process/main.cpp">
<polygon fill="white" stroke="black" points="18,-151.5 18,-172.5 158,-172.5 158,-151.5 18,-151.5"/>
<text text-anchor="middle" x="88" y="-159.5" font-family="Verdana" font-size="10.00">remote&#45;process/main.cpp</text>
</a>
</g>
<!-- Node1&#45;&gt;Node2 -->
<g id="edge2" class="edge"><title>Node1&#45;&gt;Node2</title>
<path fill="none" stroke="midnightblue" d="M264.377,-214.046C218.874,-200.619 160.683,-183.447 123.862,-172.582"/>
<polygon fill="midnightblue" stroke="midnightblue" points="263.594,-217.464 274.175,-216.937 265.575,-210.75 263.594,-217.464"/>
</g>
<!-- Node3 -->
<g id="node5" class="node"><title>Node3</title>
<a xlink:href="RemoteProcessorServerInterface_8h.html" target="_top" xlink:title="remote&#45;processor/RemoteProcessor\lServerInterface.h">
<polygon fill="white" stroke="black" points="176,-145 176,-179 366,-179 366,-145 176,-145"/>
<text text-anchor="start" x="184" y="-166" font-family="Verdana" font-size="10.00">remote&#45;processor/RemoteProcessor</text>
<text text-anchor="middle" x="271" y="-153" font-family="Verdana" font-size="10.00">ServerInterface.h</text>
</a>
</g>
<!-- Node1&#45;&gt;Node3 -->
<g id="edge4" class="edge"><title>Node1&#45;&gt;Node3</title>
<path fill="none" stroke="midnightblue" d="M310.892,-209.086C302.614,-199.315 293.313,-188.337 285.776,-179.441"/>
<polygon fill="midnightblue" stroke="midnightblue" points="308.409,-211.57 317.544,-216.937 313.75,-207.045 308.409,-211.57"/>
</g>
<!-- Node6 -->
<g id="node11" class="node"><title>Node6</title>
<a xlink:href="RemoteProcessorServer_8cpp.html" target="_top" xlink:title="remote&#45;processor/RemoteProcessor\lServer.cpp">
<polygon fill="white" stroke="black" points="299,-1 299,-35 489,-35 489,-1 299,-1"/>
<text text-anchor="start" x="307" y="-22" font-family="Verdana" font-size="10.00">remote&#45;processor/RemoteProcessor</text>
<text text-anchor="middle" x="394" y="-9" font-family="Verdana" font-size="10.00">Server.cpp</text>
</a>
</g>
<!-- Node1&#45;&gt;Node6 -->
<g id="edge14" class="edge"><title>Node1&#45;&gt;Node6</title>
<path fill="none" stroke="midnightblue" d="M356.669,-208.98C363.726,-200.436 370.671,-190.396 375,-180 395.576,-130.593 396.126,-65.8388 395.005,-35.3284"/>
<polygon fill="midnightblue" stroke="midnightblue" points="353.89,-206.841 349.951,-216.677 359.164,-211.445 353.89,-206.841"/>
</g>
<!-- Node8 -->
<g id="node16" class="node"><title>Node8</title>
<a xlink:href="RequestMessage_8cpp.html" target="_top" xlink:title="remote&#45;processor/Request\lMessage.cpp">
<polygon fill="white" stroke="black" points="422,-145 422,-179 566,-179 566,-145 422,-145"/>
<text text-anchor="start" x="430" y="-166" font-family="Verdana" font-size="10.00">remote&#45;processor/Request</text>
<text text-anchor="middle" x="494" y="-153" font-family="Verdana" font-size="10.00">Message.cpp</text>
</a>
</g>
<!-- Node1&#45;&gt;Node8 -->
<g id="edge16" class="edge"><title>Node1&#45;&gt;Node8</title>
<path fill="none" stroke="midnightblue" d="M379.742,-212.781C403.922,-202.035 432.887,-189.161 455.603,-179.065"/>
<polygon fill="midnightblue" stroke="midnightblue" points="378.108,-209.677 370.392,-216.937 380.951,-216.074 378.108,-209.677"/>
</g>
<!-- Node4 -->
<g id="node7" class="node"><title>Node4</title>
<a xlink:href="ParameterMgr_8cpp.html" target="_top" xlink:title="parameter/ParameterMgr.cpp">
<polygon fill="white" stroke="black" points="0,-79.5 0,-100.5 158,-100.5 158,-79.5 0,-79.5"/>
<text text-anchor="middle" x="79" y="-87.5" font-family="Verdana" font-size="10.00">parameter/ParameterMgr.cpp</text>
</a>
</g>
<!-- Node3&#45;&gt;Node4 -->
<g id="edge6" class="edge"><title>Node3&#45;&gt;Node4</title>
<path fill="none" stroke="midnightblue" d="M215.752,-141.282C180.261,-127.973 135.646,-111.242 107.219,-100.582"/>
<polygon fill="midnightblue" stroke="midnightblue" points="214.906,-144.703 225.499,-144.937 217.364,-138.149 214.906,-144.703"/>
</g>
<!-- Node5 -->
<g id="node9" class="node"><title>Node5</title>
<a xlink:href="RemoteProcessorServer_8h.html" target="_top" xlink:title="remote&#45;processor/RemoteProcessor\lServer.h">
<polygon fill="white" stroke="black" points="176,-73 176,-107 366,-107 366,-73 176,-73"/>
<text text-anchor="start" x="184" y="-94" font-family="Verdana" font-size="10.00">remote&#45;processor/RemoteProcessor</text>
<text text-anchor="middle" x="271" y="-81" font-family="Verdana" font-size="10.00">Server.h</text>
</a>
</g>
<!-- Node3&#45;&gt;Node5 -->
<g id="edge8" class="edge"><title>Node3&#45;&gt;Node5</title>
<path fill="none" stroke="midnightblue" d="M271,-134.719C271,-125.572 271,-115.625 271,-107.441"/>
<polygon fill="midnightblue" stroke="midnightblue" points="267.5,-134.937 271,-144.937 274.5,-134.937 267.5,-134.937"/>
</g>
<!-- Node5&#45;&gt;Node6 -->
<g id="edge10" class="edge"><title>Node5&#45;&gt;Node6</title>
<path fill="none" stroke="midnightblue" d="M309.177,-67.6522C327.055,-57.1871 348.02,-44.9152 364.634,-35.19"/>
<polygon fill="midnightblue" stroke="midnightblue" points="307.011,-64.8646 300.149,-72.937 310.548,-70.9057 307.011,-64.8646"/>
</g>
<!-- Node7 -->
<g id="node13" class="node"><title>Node7</title>
<a xlink:href="RemoteProcessorServerBuilder_8cpp.html" target="_top" xlink:title="remote&#45;processor/RemoteProcessor\lServerBuilder.cpp">
<polygon fill="white" stroke="black" points="91,-1 91,-35 281,-35 281,-1 91,-1"/>
<text text-anchor="start" x="99" y="-22" font-family="Verdana" font-size="10.00">remote&#45;processor/RemoteProcessor</text>
<text text-anchor="middle" x="186" y="-9" font-family="Verdana" font-size="10.00">ServerBuilder.cpp</text>
</a>
</g>
<!-- Node5&#45;&gt;Node7 -->
<g id="edge12" class="edge"><title>Node5&#45;&gt;Node7</title>
<path fill="none" stroke="midnightblue" d="M242.904,-66.2011C230.94,-56.0666 217.248,-44.4691 206.294,-35.19"/>
<polygon fill="midnightblue" stroke="midnightblue" points="240.963,-69.1442 250.856,-72.937 245.488,-63.8029 240.963,-69.1442"/>
</g>
</g>
</svg>
