<?xml version="1.0" encoding="UTF-8" standalone="no"?>
<!DOCTYPE svg PUBLIC "-//W3C//DTD SVG 1.1//EN"
 "http://www.w3.org/Graphics/SVG/1.1/DTD/svg11.dtd">
<!-- Generated by graphviz version 2.26.3 (20100126.1600)
 -->
<!-- Title: remote&#45;processor/RequestMessage.cpp Pages: 1 -->
<svg width="635pt" height="218pt"
 viewBox="0.00 0.00 635.00 218.00" xmlns="http://www.w3.org/2000/svg" xmlns:xlink="http://www.w3.org/1999/xlink">
<g id="graph1" class="graph" transform="scale(1 1) rotate(0) translate(4 214)">
<title>remote&#45;processor/RequestMessage.cpp</title>
<polygon fill="white" stroke="white" points="-4,5 -4,-214 632,-214 632,5 -4,5"/>
<!-- Node1 -->
<g id="node1" class="node"><title>Node1</title>
<polygon fill="#bfbfbf" stroke="black" points="377,-175 377,-209 521,-209 521,-175 377,-175"/>
<text text-anchor="start" x="385" y="-196" font-family="Verdana" font-size="10.00">remote&#45;processor/Request</text>
<text text-anchor="middle" x="449" y="-183" font-family="Verdana" font-size="10.00">Message.cpp</text>
</g>
<!-- Node2 -->
<g id="node3" class="node"><title>Node2</title>
<a xlink:href="RequestMessage_8h.html" target="_top" xlink:title="RequestMessage.h">
<polygon fill="white" stroke="black" points="130.5,-116.5 130.5,-137.5 237.5,-137.5 237.5,-116.5 130.5,-116.5"/>
<text text-anchor="middle" x="184" y="-124.5" font-family="Verdana" font-size="10.00">RequestMessage.h</text>
</a>
</g>
<!-- Node1&#45;&gt;Node2 -->
<g id="edge2" class="edge"><title>Node1&#45;&gt;Node2</title>
<path fill="none" stroke="midnightblue" d="M379.374,-174.922C334.749,-163.976 277.736,-149.992 236.833,-139.959"/>
<polygon fill="midnightblue" stroke="midnightblue" points="237.606,-136.545 227.06,-137.562 235.939,-143.344 237.606,-136.545"/>
</g>
<!-- Node8 -->
<g id="node18" class="node"><title>Node8</title>
<a xlink:href="RemoteProcessorProtocol_8h.html" target="_top" xlink:title="RemoteProcessorProtocol.h">
<polygon fill="white" stroke="black" points="254.5,-116.5 254.5,-137.5 403.5,-137.5 403.5,-116.5 254.5,-116.5"/>
<text text-anchor="middle" x="329" y="-124.5" font-family="Verdana" font-size="10.00">RemoteProcessorProtocol.h</text>
</a>
</g>
<!-- Node1&#45;&gt;Node8 -->
<g id="edge20" class="edge"><title>Node1&#45;&gt;Node8</title>
<path fill="none" stroke="midnightblue" d="M417.471,-174.922C398.903,-164.864 375.6,-152.242 357.571,-142.476"/>
<polygon fill="midnightblue" stroke="midnightblue" points="359.137,-139.344 348.677,-137.658 355.803,-145.499 359.137,-139.344"/>
</g>
<!-- Node9 -->
<g id="node20" class="node"><title>Node9</title>
<polygon fill="white" stroke="#bfbfbf" points="421,-116.5 421,-137.5 477,-137.5 477,-116.5 421,-116.5"/>
<text text-anchor="middle" x="449" y="-124.5" font-family="Verdana" font-size="10.00">assert.h</text>
</g>
<!-- Node1&#45;&gt;Node9 -->
<g id="edge22" class="edge"><title>Node1&#45;&gt;Node9</title>
<path fill="none" stroke="midnightblue" d="M449,-174.922C449,-166.67 449,-156.692 449,-147.982"/>
<polygon fill="midnightblue" stroke="midnightblue" points="452.5,-147.852 449,-137.852 445.5,-147.852 452.5,-147.852"/>
</g>
<!-- Node10 -->
<g id="node22" class="node"><title>Node10</title>
<polygon fill="white" stroke="#bfbfbf" points="495,-116.5 495,-137.5 557,-137.5 557,-116.5 495,-116.5"/>
<text text-anchor="middle" x="526" y="-124.5" font-family="Verdana" font-size="10.00">algorithm</text>
</g>
<!-- Node1&#45;&gt;Node10 -->
<g id="edge24" class="edge"><title>Node1&#45;&gt;Node10</title>
<path fill="none" stroke="midnightblue" d="M469.231,-174.922C480.309,-165.57 494.015,-154.001 505.184,-144.572"/>
<polygon fill="midnightblue" stroke="midnightblue" points="507.761,-146.977 513.144,-137.852 503.245,-141.628 507.761,-146.977"/>
</g>
<!-- Node11 -->
<g id="node24" class="node"><title>Node11</title>
<polygon fill="white" stroke="#bfbfbf" points="575,-116.5 575,-137.5 627,-137.5 627,-116.5 575,-116.5"/>
<text text-anchor="middle" x="601" y="-124.5" font-family="Verdana" font-size="10.00">ctype.h</text>
</g>
<!-- Node1&#45;&gt;Node11 -->
<g id="edge26" class="edge"><title>Node1&#45;&gt;Node11</title>
<path fill="none" stroke="midnightblue" d="M488.936,-174.922C513.103,-164.588 543.603,-151.545 566.68,-141.676"/>
<polygon fill="midnightblue" stroke="midnightblue" points="568.257,-144.808 576.076,-137.658 565.505,-138.372 568.257,-144.808"/>
</g>
<!-- Node3 -->
<g id="node5" class="node"><title>Node3</title>
<a xlink:href="Message_8h.html" target="_top" xlink:title="Message.h">
<polygon fill="white" stroke="black" points="0,-58.5 0,-79.5 68,-79.5 68,-58.5 0,-58.5"/>
<text text-anchor="middle" x="34" y="-66.5" font-family="Verdana" font-size="10.00">Message.h</text>
</a>
</g>
<!-- Node2&#45;&gt;Node3 -->
<g id="edge4" class="edge"><title>Node2&#45;&gt;Node3</title>
<path fill="none" stroke="midnightblue" d="M156.836,-116.497C132.7,-107.164 97.219,-93.4447 70.5883,-83.1475"/>
<polygon fill="midnightblue" stroke="midnightblue" points="71.8041,-79.8651 61.2148,-79.5231 69.2796,-86.394 71.8041,-79.8651"/>
</g>
<!-- Node5 -->
<g id="node9" class="node"><title>Node5</title>
<polygon fill="white" stroke="#bfbfbf" points="120,-0.5 120,-21.5 164,-21.5 164,-0.5 120,-0.5"/>
<text text-anchor="middle" x="142" y="-8.5" font-family="Verdana" font-size="10.00">string</text>
</g>
<!-- Node2&#45;&gt;Node5 -->
<g id="edge18" class="edge"><title>Node2&#45;&gt;Node5</title>
<path fill="none" stroke="midnightblue" d="M192.645,-116.319C202.779,-102.41 216.997,-77.5652 207,-58 199.741,-43.7934 185.962,-32.8895 172.952,-25.1775"/>
<polygon fill="midnightblue" stroke="midnightblue" points="174.607,-22.0936 164.157,-20.3469 171.237,-28.229 174.607,-22.0936"/>
</g>
<!-- Node6 -->
<g id="node11" class="node"><title>Node6</title>
<a xlink:href="RemoteCommand_8h.html" target="_top" xlink:title="RemoteCommand.h">
<polygon fill="white" stroke="black" points="85.5,-58.5 85.5,-79.5 198.5,-79.5 198.5,-58.5 85.5,-58.5"/>
<text text-anchor="middle" x="142" y="-66.5" font-family="Verdana" font-size="10.00">RemoteCommand.h</text>
</a>
</g>
<!-- Node2&#45;&gt;Node6 -->
<g id="edge10" class="edge"><title>Node2&#45;&gt;Node6</title>
<path fill="none" stroke="midnightblue" d="M176.297,-116.362C170.554,-108.431 162.557,-97.3885 155.73,-87.9606"/>
<polygon fill="midnightblue" stroke="midnightblue" points="158.355,-85.6173 149.655,-79.5707 152.685,-89.7229 158.355,-85.6173"/>
</g>
<!-- Node7 -->
<g id="node15" class="node"><title>Node7</title>
<polygon fill="white" stroke="#bfbfbf" points="253.5,-58.5 253.5,-79.5 300.5,-79.5 300.5,-58.5 253.5,-58.5"/>
<text text-anchor="middle" x="277" y="-66.5" font-family="Verdana" font-size="10.00">vector</text>
</g>
<!-- Node2&#45;&gt;Node7 -->
<g id="edge16" class="edge"><title>Node2&#45;&gt;Node7</title>
<path fill="none" stroke="midnightblue" d="M201.058,-116.362C215.085,-107.614 235.184,-95.0786 251.182,-85.1015"/>
<polygon fill="midnightblue" stroke="midnightblue" points="253.418,-87.8323 260.051,-79.5707 249.713,-81.8927 253.418,-87.8323"/>
</g>
<!-- Node4 -->
<g id="node7" class="node"><title>Node4</title>
<polygon fill="white" stroke="#bfbfbf" points="28.5,-0.5 28.5,-21.5 81.5,-21.5 81.5,-0.5 28.5,-0.5"/>
<text text-anchor="middle" x="55" y="-8.5" font-family="Verdana" font-size="10.00">stdint.h</text>
</g>
<!-- Node3&#45;&gt;Node4 -->
<g id="edge6" class="edge"><title>Node3&#45;&gt;Node4</title>
<path fill="none" stroke="midnightblue" d="M37.8517,-58.3619C40.6047,-50.7584 44.3936,-40.294 47.7098,-31.1349"/>
<polygon fill="midnightblue" stroke="midnightblue" points="51.0592,-32.1649 51.1727,-21.5707 44.4773,-29.7818 51.0592,-32.1649"/>
</g>
<!-- Node3&#45;&gt;Node5 -->
<g id="edge8" class="edge"><title>Node3&#45;&gt;Node5</title>
<path fill="none" stroke="midnightblue" d="M53.558,-58.4966C70.1983,-49.5602 94.3274,-36.602 113.18,-26.4772"/>
<polygon fill="midnightblue" stroke="midnightblue" points="115.069,-29.436 122.223,-21.6212 111.757,-23.2691 115.069,-29.436"/>
</g>
<!-- Node6&#45;&gt;Node4 -->
<g id="edge12" class="edge"><title>Node6&#45;&gt;Node4</title>
<path fill="none" stroke="midnightblue" d="M126.043,-58.3619C113.043,-49.6955 94.4688,-37.3126 79.5728,-27.3819"/>
<polygon fill="midnightblue" stroke="midnightblue" points="81.118,-24.2055 70.856,-21.5707 77.235,-30.0299 81.118,-24.2055"/>
</g>
<!-- Node6&#45;&gt;Node5 -->
<g id="edge14" class="edge"><title>Node6&#45;&gt;Node5</title>
<path fill="none" stroke="midnightblue" d="M142,-58.3619C142,-50.9219 142,-40.7427 142,-31.7276"/>
<polygon fill="midnightblue" stroke="midnightblue" points="145.5,-31.5706 142,-21.5707 138.5,-31.5707 145.5,-31.5706"/>
</g>
</g>
</svg>
