<?xml version="1.0" encoding="UTF-8" standalone="no"?>
<!DOCTYPE svg PUBLIC "-//W3C//DTD SVG 1.1//EN"
 "http://www.w3.org/Graphics/SVG/1.1/DTD/svg11.dtd">
<!-- Generated by graphviz version 2.26.3 (20100126.1600)
 -->
<!-- Title: parameter/RuleParser.cpp Pages: 1 -->
<svg width="662pt" height="320pt"
 viewBox="0.00 0.00 662.15 320.00" xmlns="http://www.w3.org/2000/svg" xmlns:xlink="http://www.w3.org/1999/xlink">
<g id="graph1" class="graph" transform="scale(1 1) rotate(0) translate(4 316)">
<title>parameter/RuleParser.cpp</title>
<polygon fill="white" stroke="white" points="-4,5 -4,-316 659.147,-316 659.147,5 -4,5"/>
<!-- Node1 -->
<g id="node1" class="node"><title>Node1</title>
<polygon fill="#bfbfbf" stroke="black" points="195,-290.5 195,-311.5 335,-311.5 335,-290.5 195,-290.5"/>
<text text-anchor="middle" x="265" y="-298.5" font-family="Verdana" font-size="10.00">parameter/RuleParser.cpp</text>
</g>
<!-- Node2 -->
<g id="node3" class="node"><title>Node2</title>
<a xlink:href="RuleParser_8h.html" target="_top" xlink:title="RuleParser.h">
<polygon fill="white" stroke="black" points="566,-58.5 566,-79.5 640,-79.5 640,-58.5 566,-58.5"/>
<text text-anchor="middle" x="603" y="-66.5" font-family="Verdana" font-size="10.00">RuleParser.h</text>
</a>
</g>
<!-- Node1&#45;&gt;Node2 -->
<g id="edge2" class="edge"><title>Node1&#45;&gt;Node2</title>
<path fill="none" stroke="midnightblue" d="M277.848,-290.35C294.751,-276.474 325.534,-251.665 353,-232 432.614,-174.998 530.922,-113.328 576.938,-84.9449"/>
<polygon fill="midnightblue" stroke="midnightblue" points="578.999,-87.7866 585.681,-79.5651 575.33,-81.8249 578.999,-87.7866"/>
</g>
<!-- Node5 -->
<g id="node9" class="node"><title>Node5</title>
<a xlink:href="CompoundRule_8h.html" target="_top" xlink:title="CompoundRule.h">
<polygon fill="white" stroke="black" points="148,-232.5 148,-253.5 246,-253.5 246,-232.5 148,-232.5"/>
<text text-anchor="middle" x="197" y="-240.5" font-family="Verdana" font-size="10.00">CompoundRule.h</text>
</a>
</g>
<!-- Node1&#45;&gt;Node5 -->
<g id="edge8" class="edge"><title>Node1&#45;&gt;Node5</title>
<path fill="none" stroke="midnightblue" d="M252.528,-290.362C242.655,-281.941 228.667,-270.011 217.202,-260.231"/>
<polygon fill="midnightblue" stroke="midnightblue" points="219.273,-257.397 209.393,-253.571 214.73,-262.723 219.273,-257.397"/>
</g>
<!-- Node13 -->
<g id="node32" class="node"><title>Node13</title>
<a xlink:href="SelectionCriterionRule_8h.html" target="_top" xlink:title="SelectionCriterionRule.h">
<polygon fill="white" stroke="black" points="0,-232.5 0,-253.5 130,-253.5 130,-232.5 0,-232.5"/>
<text text-anchor="middle" x="65" y="-240.5" font-family="Verdana" font-size="10.00">SelectionCriterionRule.h</text>
</a>
</g>
<!-- Node1&#45;&gt;Node13 -->
<g id="edge38" class="edge"><title>Node1&#45;&gt;Node13</title>
<path fill="none" stroke="midnightblue" d="M228.782,-290.497C195.753,-280.918 146.792,-266.72 111.006,-256.342"/>
<polygon fill="midnightblue" stroke="midnightblue" points="111.866,-252.947 101.286,-253.523 109.916,-259.67 111.866,-252.947"/>
</g>
<!-- Node14 -->
<g id="node36" class="node"><title>Node14</title>
<polygon fill="white" stroke="#bfbfbf" points="362,-232.5 362,-253.5 418,-253.5 418,-232.5 362,-232.5"/>
<text text-anchor="middle" x="390" y="-240.5" font-family="Verdana" font-size="10.00">assert.h</text>
</g>
<!-- Node1&#45;&gt;Node14 -->
<g id="edge44" class="edge"><title>Node1&#45;&gt;Node14</title>
<path fill="none" stroke="midnightblue" d="M287.637,-290.497C307.248,-281.397 335.846,-268.127 357.833,-257.925"/>
<polygon fill="midnightblue" stroke="midnightblue" points="359.512,-261.005 367.109,-253.621 356.565,-254.655 359.512,-261.005"/>
</g>
<!-- Node3 -->
<g id="node5" class="node"><title>Node3</title>
<polygon fill="white" stroke="#bfbfbf" points="125,-0.5 125,-21.5 169,-21.5 169,-0.5 125,-0.5"/>
<text text-anchor="middle" x="147" y="-8.5" font-family="Verdana" font-size="10.00">string</text>
</g>
<!-- Node2&#45;&gt;Node3 -->
<g id="edge4" class="edge"><title>Node2&#45;&gt;Node3</title>
<path fill="none" stroke="midnightblue" d="M565.789,-64.0902C551.2,-62.1751 534.317,-59.9705 519,-58 393.316,-41.8311 243.678,-23.076 179.187,-15.0168"/>
<polygon fill="midnightblue" stroke="midnightblue" points="179.584,-11.5393 169.227,-13.7726 178.716,-18.4853 179.584,-11.5393"/>
</g>
<!-- Node4 -->
<g id="node7" class="node"><title>Node4</title>
<polygon fill="white" stroke="#bfbfbf" points="576.5,-0.5 576.5,-21.5 629.5,-21.5 629.5,-0.5 576.5,-0.5"/>
<text text-anchor="middle" x="603" y="-8.5" font-family="Verdana" font-size="10.00">stdint.h</text>
</g>
<!-- Node2&#45;&gt;Node4 -->
<g id="edge6" class="edge"><title>Node2&#45;&gt;Node4</title>
<path fill="none" stroke="midnightblue" d="M603,-58.3619C603,-50.9219 603,-40.7427 603,-31.7276"/>
<polygon fill="midnightblue" stroke="midnightblue" points="606.5,-31.5706 603,-21.5707 599.5,-31.5707 606.5,-31.5706"/>
</g>
<!-- Node5&#45;&gt;Node3 -->
<g id="edge36" class="edge"><title>Node5&#45;&gt;Node3</title>
<path fill="none" stroke="midnightblue" d="M194.722,-232.429C186.994,-196.573 161.692,-79.1689 151.406,-31.4458"/>
<polygon fill="midnightblue" stroke="midnightblue" points="154.82,-30.6717 149.292,-21.6335 147.977,-32.1465 154.82,-30.6717"/>
</g>
<!-- Node6 -->
<g id="node11" class="node"><title>Node6</title>
<a xlink:href="Rule_8h.html" target="_top" xlink:title="Rule.h">
<polygon fill="white" stroke="black" points="67.5,-174.5 67.5,-195.5 112.5,-195.5 112.5,-174.5 67.5,-174.5"/>
<text text-anchor="middle" x="90" y="-182.5" font-family="Verdana" font-size="10.00">Rule.h</text>
</a>
</g>
<!-- Node5&#45;&gt;Node6 -->
<g id="edge10" class="edge"><title>Node5&#45;&gt;Node6</title>
<path fill="none" stroke="midnightblue" d="M177.375,-232.362C160.859,-223.409 137.026,-210.491 118.422,-200.406"/>
<polygon fill="midnightblue" stroke="midnightblue" points="119.96,-197.259 109.501,-195.571 116.625,-203.413 119.96,-197.259"/>
</g>
<!-- Node6&#45;&gt;Node3 -->
<g id="edge34" class="edge"><title>Node6&#45;&gt;Node3</title>
<path fill="none" stroke="midnightblue" d="M90.4972,-174.362C91.8632,-151.978 96.8078,-98.7243 114,-58 118.215,-48.0168 124.799,-38.0387 130.981,-29.8609"/>
<polygon fill="midnightblue" stroke="midnightblue" points="133.921,-31.7861 137.4,-21.7786 128.44,-27.4325 133.921,-31.7861"/>
</g>
<!-- Node7 -->
<g id="node13" class="node"><title>Node7</title>
<a xlink:href="Element_8h.html" target="_top" xlink:title="Element.h">
<polygon fill="white" stroke="black" points="241.5,-116.5 241.5,-137.5 306.5,-137.5 306.5,-116.5 241.5,-116.5"/>
<text text-anchor="middle" x="274" y="-124.5" font-family="Verdana" font-size="10.00">Element.h</text>
</a>
</g>
<!-- Node6&#45;&gt;Node7 -->
<g id="edge12" class="edge"><title>Node6&#45;&gt;Node7</title>
<path fill="none" stroke="midnightblue" d="M112.562,-177.888C142.161,-168.558 194.685,-152.002 231.771,-140.311"/>
<polygon fill="midnightblue" stroke="midnightblue" points="232.831,-143.647 241.317,-137.302 230.727,-136.971 232.831,-143.647"/>
</g>
<!-- Node7&#45;&gt;Node3 -->
<g id="edge14" class="edge"><title>Node7&#45;&gt;Node3</title>
<path fill="none" stroke="midnightblue" d="M250.473,-116.46C227.648,-105.907 195.033,-89.8588 185,-80 170.892,-66.1377 160.597,-45.9162 154.309,-30.9449"/>
<polygon fill="midnightblue" stroke="midnightblue" points="157.53,-29.5738 150.598,-21.5617 151.021,-32.1481 157.53,-29.5738"/>
</g>
<!-- Node7&#45;&gt;Node4 -->
<g id="edge18" class="edge"><title>Node7&#45;&gt;Node4</title>
<path fill="none" stroke="midnightblue" d="M306.539,-125.344C393.536,-120.584 626.451,-105.551 649,-80 663.457,-63.618 644.608,-42.4109 626.861,-27.8563"/>
<polygon fill="midnightblue" stroke="midnightblue" points="628.953,-25.049 618.908,-21.6784 624.658,-30.5771 628.953,-25.049"/>
</g>
<!-- Node8 -->
<g id="node16" class="node"><title>Node8</title>
<polygon fill="white" stroke="#bfbfbf" points="476.5,-0.5 476.5,-21.5 523.5,-21.5 523.5,-0.5 476.5,-0.5"/>
<text text-anchor="middle" x="500" y="-8.5" font-family="Verdana" font-size="10.00">vector</text>
</g>
<!-- Node7&#45;&gt;Node8 -->
<g id="edge16" class="edge"><title>Node7&#45;&gt;Node8</title>
<path fill="none" stroke="midnightblue" d="M306.618,-118.963C311.105,-117.927 315.66,-116.911 320,-116 363.982,-106.77 490.19,-114.49 519,-80 530.742,-65.9436 522.662,-45.1976 513.695,-30.1263"/>
<polygon fill="midnightblue" stroke="midnightblue" points="516.538,-28.0783 508.166,-21.5861 510.662,-31.8826 516.538,-28.0783"/>
</g>
<!-- Node9 -->
<g id="node19" class="node"><title>Node9</title>
<polygon fill="white" stroke="#bfbfbf" points="194,-58.5 194,-79.5 224,-79.5 224,-58.5 194,-58.5"/>
<text text-anchor="middle" x="209" y="-66.5" font-family="Verdana" font-size="10.00">list</text>
</g>
<!-- Node7&#45;&gt;Node9 -->
<g id="edge20" class="edge"><title>Node7&#45;&gt;Node9</title>
<path fill="none" stroke="midnightblue" d="M262.078,-116.362C252.641,-107.941 239.27,-96.0105 228.31,-86.2308"/>
<polygon fill="midnightblue" stroke="midnightblue" points="230.638,-83.6171 220.846,-79.5707 225.978,-88.8401 230.638,-83.6171"/>
</g>
<!-- Node10 -->
<g id="node21" class="node"><title>Node10</title>
<polygon fill="white" stroke="#bfbfbf" points="242,-58.5 242,-79.5 306,-79.5 306,-58.5 242,-58.5"/>
<text text-anchor="middle" x="274" y="-66.5" font-family="Verdana" font-size="10.00">XmlSink.h</text>
</g>
<!-- Node7&#45;&gt;Node10 -->
<g id="edge22" class="edge"><title>Node7&#45;&gt;Node10</title>
<path fill="none" stroke="midnightblue" d="M274,-116.362C274,-108.922 274,-98.7427 274,-89.7276"/>
<polygon fill="midnightblue" stroke="midnightblue" points="277.5,-89.5706 274,-79.5707 270.5,-89.5707 277.5,-89.5706"/>
</g>
<!-- Node11 -->
<g id="node23" class="node"><title>Node11</title>
<polygon fill="white" stroke="#bfbfbf" points="323.5,-58.5 323.5,-79.5 400.5,-79.5 400.5,-58.5 323.5,-58.5"/>
<text text-anchor="middle" x="362" y="-66.5" font-family="Verdana" font-size="10.00">XmlSource.h</text>
</g>
<!-- Node7&#45;&gt;Node11 -->
<g id="edge24" class="edge"><title>Node7&#45;&gt;Node11</title>
<path fill="none" stroke="midnightblue" d="M290.141,-116.362C303.414,-107.614 322.432,-95.0786 337.57,-85.1015"/>
<polygon fill="midnightblue" stroke="midnightblue" points="339.538,-87.9962 345.962,-79.5707 335.686,-82.1515 339.538,-87.9962"/>
</g>
<!-- Node12 -->
<g id="node25" class="node"><title>Node12</title>
<a xlink:href="PathNavigator_8h.html" target="_top" xlink:title="PathNavigator.h">
<polygon fill="white" stroke="black" points="418,-58.5 418,-79.5 510,-79.5 510,-58.5 418,-58.5"/>
<text text-anchor="middle" x="464" y="-66.5" font-family="Verdana" font-size="10.00">PathNavigator.h</text>
</a>
</g>
<!-- Node7&#45;&gt;Node12 -->
<g id="edge26" class="edge"><title>Node7&#45;&gt;Node12</title>
<path fill="none" stroke="midnightblue" d="M306.662,-117.029C337.854,-107.508 385.098,-93.0859 419.677,-82.5302"/>
<polygon fill="midnightblue" stroke="midnightblue" points="420.977,-85.7929 429.519,-79.5257 418.933,-79.0979 420.977,-85.7929"/>
</g>
<!-- Node12&#45;&gt;Node3 -->
<g id="edge30" class="edge"><title>Node12&#45;&gt;Node3</title>
<path fill="none" stroke="midnightblue" d="M417.8,-59.6906C414.823,-59.1123 411.87,-58.5444 409,-58 326.305,-42.3149 228.659,-25.1579 179.195,-16.563"/>
<polygon fill="midnightblue" stroke="midnightblue" points="179.561,-13.0743 169.11,-14.8133 178.365,-19.9713 179.561,-13.0743"/>
</g>
<!-- Node12&#45;&gt;Node4 -->
<g id="edge32" class="edge"><title>Node12&#45;&gt;Node4</title>
<path fill="none" stroke="midnightblue" d="M489.172,-58.4966C511.273,-49.2746 543.639,-35.7695 568.213,-25.5153"/>
<polygon fill="midnightblue" stroke="midnightblue" points="569.665,-28.7022 577.546,-21.6212 566.969,-22.2421 569.665,-28.7022"/>
</g>
<!-- Node12&#45;&gt;Node8 -->
<g id="edge28" class="edge"><title>Node12&#45;&gt;Node8</title>
<path fill="none" stroke="midnightblue" d="M470.603,-58.3619C475.475,-50.5131 482.238,-39.6159 488.05,-30.2527"/>
<polygon fill="midnightblue" stroke="midnightblue" points="491.139,-31.9129 493.439,-21.5707 485.191,-28.2213 491.139,-31.9129"/>
</g>
<!-- Node13&#45;&gt;Node3 -->
<g id="edge42" class="edge"><title>Node13&#45;&gt;Node3</title>
<path fill="none" stroke="midnightblue" d="M62.3065,-232.164C59.3121,-218.507 55.3483,-194.357 59,-174 68.7081,-119.88 72.8249,-104.605 102,-58 108.7,-47.2966 118.129,-36.9794 126.626,-28.7519"/>
<polygon fill="midnightblue" stroke="midnightblue" points="129.126,-31.2068 134.062,-21.8323 124.357,-26.0822 129.126,-31.2068"/>
</g>
<!-- Node13&#45;&gt;Node6 -->
<g id="edge40" class="edge"><title>Node13&#45;&gt;Node6</title>
<path fill="none" stroke="midnightblue" d="M69.5854,-232.362C72.898,-224.677 77.4704,-214.069 81.4483,-204.84"/>
<polygon fill="midnightblue" stroke="midnightblue" points="84.6995,-206.139 85.4437,-195.571 78.2712,-203.368 84.6995,-206.139"/>
</g>
</g>
</svg>
