<?xml version="1.0" encoding="UTF-8" standalone="no"?>
<!DOCTYPE svg PUBLIC "-//W3C//DTD SVG 1.1//EN"
 "http://www.w3.org/Graphics/SVG/1.1/DTD/svg11.dtd">
<!-- Generated by graphviz version 2.26.3 (20100126.1600)
 -->
<!-- Title: parameter/RuleParser.h Pages: 1 -->
<svg width="710pt" height="102pt"
 viewBox="0.00 0.00 710.00 102.00" xmlns="http://www.w3.org/2000/svg" xmlns:xlink="http://www.w3.org/1999/xlink">
<g id="graph1" class="graph" transform="scale(1 1) rotate(0) translate(4 98)">
<title>parameter/RuleParser.h</title>
<polygon fill="white" stroke="white" points="-4,5 -4,-98 707,-98 707,5 -4,5"/>
<!-- Node1 -->
<g id="node1" class="node"><title>Node1</title>
<polygon fill="#bfbfbf" stroke="black" points="304,-72.5 304,-93.5 432,-93.5 432,-72.5 304,-72.5"/>
<text text-anchor="middle" x="368" y="-80.5" font-family="Verdana" font-size="10.00">parameter/RuleParser.h</text>
</g>
<!-- Node2 -->
<g id="node3" class="node"><title>Node2</title>
<a xlink:href="CompoundRule_8cpp.html" target="_top" xlink:title="parameter/CompoundRule.cpp">
<polygon fill="white" stroke="black" points="-0.5,-7.5 -0.5,-28.5 162.5,-28.5 162.5,-7.5 -0.5,-7.5"/>
<text text-anchor="middle" x="81" y="-15.5" font-family="Verdana" font-size="10.00">parameter/CompoundRule.cpp</text>
</a>
</g>
<!-- Node1&#45;&gt;Node2 -->
<g id="edge2" class="edge"><title>Node1&#45;&gt;Node2</title>
<path fill="none" stroke="midnightblue" d="M311.501,-70.2041C257.657,-58.0095 177.564,-39.8699 127.364,-28.5005"/>
<polygon fill="midnightblue" stroke="midnightblue" points="311.043,-73.689 321.57,-72.4844 312.59,-66.8619 311.043,-73.689"/>
</g>
<!-- Node3 -->
<g id="node5" class="node"><title>Node3</title>
<a xlink:href="DomainConfiguration_8cpp.html" target="_top" xlink:title="parameter/DomainConfiguration.cpp">
<polygon fill="white" stroke="black" points="180,-7.5 180,-28.5 372,-28.5 372,-7.5 180,-7.5"/>
<text text-anchor="middle" x="276" y="-15.5" font-family="Verdana" font-size="10.00">parameter/DomainConfiguration.cpp</text>
</a>
</g>
<!-- Node1&#45;&gt;Node3 -->
<g id="edge4" class="edge"><title>Node1&#45;&gt;Node3</title>
<path fill="none" stroke="midnightblue" d="M344.543,-66.4268C327.666,-54.5032 305.412,-38.7803 290.909,-28.5337"/>
<polygon fill="midnightblue" stroke="midnightblue" points="342.621,-69.3547 352.808,-72.2666 346.66,-63.6377 342.621,-69.3547"/>
</g>
<!-- Node4 -->
<g id="node7" class="node"><title>Node4</title>
<a xlink:href="RuleParser_8cpp.html" target="_top" xlink:title="parameter/RuleParser.cpp">
<polygon fill="white" stroke="black" points="390,-7.5 390,-28.5 530,-28.5 530,-7.5 390,-7.5"/>
<text text-anchor="middle" x="460" y="-15.5" font-family="Verdana" font-size="10.00">parameter/RuleParser.cpp</text>
</a>
</g>
<!-- Node1&#45;&gt;Node4 -->
<g id="edge6" class="edge"><title>Node1&#45;&gt;Node4</title>
<path fill="none" stroke="midnightblue" d="M391.457,-66.4268C408.334,-54.5032 430.588,-38.7803 445.091,-28.5337"/>
<polygon fill="midnightblue" stroke="midnightblue" points="389.34,-63.6377 383.192,-72.2666 393.379,-69.3547 389.34,-63.6377"/>
</g>
<!-- Node5 -->
<g id="node9" class="node"><title>Node5</title>
<a xlink:href="SelectionCriterionRule_8cpp.html" target="_top" xlink:title="parameter/SelectionCriterion\lRule.cpp">
<polygon fill="white" stroke="black" points="547.5,-1 547.5,-35 702.5,-35 702.5,-1 547.5,-1"/>
<text text-anchor="start" x="555.5" y="-22" font-family="Verdana" font-size="10.00">parameter/SelectionCriterion</text>
<text text-anchor="middle" x="625" y="-9" font-family="Verdana" font-size="10.00">Rule.cpp</text>
</a>
</g>
<!-- Node1&#45;&gt;Node5 -->
<g id="edge8" class="edge"><title>Node1&#45;&gt;Node5</title>
<path fill="none" stroke="midnightblue" d="M419.32,-70.0202C459.034,-59.9759 514.371,-45.9801 557.645,-35.0354"/>
<polygon fill="midnightblue" stroke="midnightblue" points="418.414,-66.6392 409.577,-72.4844 420.13,-73.4255 418.414,-66.6392"/>
</g>
</g>
</svg>
