<?xml version="1.0" encoding="UTF-8" standalone="no"?>
<!DOCTYPE svg PUBLIC "-//W3C//DTD SVG 1.1//EN"
 "http://www.w3.org/Graphics/SVG/1.1/DTD/svg11.dtd">
<!-- Generated by graphviz version 2.26.3 (20100126.1600)
 -->
<!-- Title: parameter/SelectionCriterion.h Pages: 1 -->
<svg width="744pt" height="262pt"
 viewBox="0.00 0.00 743.63 262.00" xmlns="http://www.w3.org/2000/svg" xmlns:xlink="http://www.w3.org/1999/xlink">
<g id="graph1" class="graph" transform="scale(1 1) rotate(0) translate(4 258)">
<title>parameter/SelectionCriterion.h</title>
<polygon fill="white" stroke="white" points="-4,5 -4,-258 740.633,-258 740.633,5 -4,5"/>
<!-- Node1 -->
<g id="node1" class="node"><title>Node1</title>
<polygon fill="#bfbfbf" stroke="black" points="371.633,-232.5 371.633,-253.5 535.633,-253.5 535.633,-232.5 371.633,-232.5"/>
<text text-anchor="middle" x="453.633" y="-240.5" font-family="Verdana" font-size="10.00">parameter/SelectionCriterion.h</text>
</g>
<!-- Node2 -->
<g id="node3" class="node"><title>Node2</title>
<a xlink:href="Element_8h.html" target="_top" xlink:title="Element.h">
<polygon fill="white" stroke="black" points="161.133,-116.5 161.133,-137.5 226.133,-137.5 226.133,-116.5 161.133,-116.5"/>
<text text-anchor="middle" x="193.633" y="-124.5" font-family="Verdana" font-size="10.00">Element.h</text>
</a>
</g>
<!-- Node1&#45;&gt;Node2 -->
<g id="edge2" class="edge"><title>Node1&#45;&gt;Node2</title>
<path fill="none" stroke="midnightblue" d="M429.639,-232.295C382.891,-211.438 279.558,-165.336 226.492,-141.66"/>
<polygon fill="midnightblue" stroke="midnightblue" points="227.752,-138.39 217.193,-137.512 224.9,-144.782 227.752,-138.39"/>
</g>
<!-- Node3 -->
<g id="node5" class="node"><title>Node3</title>
<polygon fill="white" stroke="#bfbfbf" points="366.633,-0.5 366.633,-21.5 410.633,-21.5 410.633,-0.5 366.633,-0.5"/>
<text text-anchor="middle" x="388.633" y="-8.5" font-family="Verdana" font-size="10.00">string</text>
</g>
<!-- Node1&#45;&gt;Node3 -->
<g id="edge36" class="edge"><title>Node1&#45;&gt;Node3</title>
<path fill="none" stroke="midnightblue" d="M446.15,-232.289C440.042,-223.068 431.632,-209.201 426.633,-196 405.037,-138.973 394.764,-67.1674 390.759,-32.1521"/>
<polygon fill="midnightblue" stroke="midnightblue" points="394.191,-31.3274 389.634,-21.7623 387.231,-32.081 394.191,-31.3274"/>
</g>
<!-- Node10 -->
<g id="node22" class="node"><title>Node10</title>
<a xlink:href="SelectionCriterionType_8h.html" target="_top" xlink:title="SelectionCriterionType.h">
<polygon fill="white" stroke="black" points="435.133,-174.5 435.133,-195.5 566.133,-195.5 566.133,-174.5 435.133,-174.5"/>
<text text-anchor="middle" x="500.633" y="-182.5" font-family="Verdana" font-size="10.00">SelectionCriterionType.h</text>
</a>
</g>
<!-- Node1&#45;&gt;Node10 -->
<g id="edge24" class="edge"><title>Node1&#45;&gt;Node10</title>
<path fill="none" stroke="midnightblue" d="M462.253,-232.362C468.812,-224.268 477.998,-212.932 485.739,-203.38"/>
<polygon fill="midnightblue" stroke="midnightblue" points="488.49,-205.544 492.067,-195.571 483.052,-201.136 488.49,-205.544"/>
</g>
<!-- Node13 -->
<g id="node30" class="node"><title>Node13</title>
<polygon fill="white" stroke="#bfbfbf" points="583.633,-174.5 583.633,-195.5 735.633,-195.5 735.633,-174.5 583.633,-174.5"/>
<text text-anchor="middle" x="659.633" y="-182.5" font-family="Verdana" font-size="10.00">SelectionCriterionInterface.h</text>
</g>
<!-- Node1&#45;&gt;Node13 -->
<g id="edge34" class="edge"><title>Node1&#45;&gt;Node13</title>
<path fill="none" stroke="midnightblue" d="M490.938,-232.497C524.958,-222.918 575.387,-208.72 612.246,-198.342"/>
<polygon fill="midnightblue" stroke="midnightblue" points="613.581,-201.602 622.258,-195.523 611.683,-194.864 613.581,-201.602"/>
</g>
<!-- Node2&#45;&gt;Node3 -->
<g id="edge4" class="edge"><title>Node2&#45;&gt;Node3</title>
<path fill="none" stroke="midnightblue" d="M226.135,-124.47C260.434,-120.287 314.435,-109.22 350.633,-80 366.196,-67.4372 376.379,-46.7088 382.25,-31.2447"/>
<polygon fill="midnightblue" stroke="midnightblue" points="385.644,-32.1398 385.638,-21.5449 379.036,-29.8311 385.644,-32.1398"/>
</g>
<!-- Node4 -->
<g id="node7" class="node"><title>Node4</title>
<polygon fill="white" stroke="#bfbfbf" points="205.133,-0.5 205.133,-21.5 252.133,-21.5 252.133,-0.5 205.133,-0.5"/>
<text text-anchor="middle" x="228.633" y="-8.5" font-family="Verdana" font-size="10.00">vector</text>
</g>
<!-- Node2&#45;&gt;Node4 -->
<g id="edge6" class="edge"><title>Node2&#45;&gt;Node4</title>
<path fill="none" stroke="midnightblue" d="M160.944,-125.629C99.513,-121.867 -23.5196,-108.029 16.6328,-58 38.5888,-30.6432 140.65,-18.2233 194.753,-13.4802"/>
<polygon fill="midnightblue" stroke="midnightblue" points="195.223,-16.9532 204.896,-12.6318 194.639,-9.97759 195.223,-16.9532"/>
</g>
<!-- Node5 -->
<g id="node9" class="node"><title>Node5</title>
<polygon fill="white" stroke="#bfbfbf" points="1.13275,-0.5 1.13275,-21.5 54.1328,-21.5 54.1328,-0.5 1.13275,-0.5"/>
<text text-anchor="middle" x="27.6328" y="-8.5" font-family="Verdana" font-size="10.00">stdint.h</text>
</g>
<!-- Node2&#45;&gt;Node5 -->
<g id="edge8" class="edge"><title>Node2&#45;&gt;Node5</title>
<path fill="none" stroke="midnightblue" d="M161.111,-123.633C112.505,-117.855 24.5774,-104.264 5.63275,-80 -5.64506,-65.5556 3.05001,-45.1928 12.631,-30.3327"/>
<polygon fill="midnightblue" stroke="midnightblue" points="15.6715,-32.0924 18.5404,-21.8934 9.93751,-28.0773 15.6715,-32.0924"/>
</g>
<!-- Node6 -->
<g id="node11" class="node"><title>Node6</title>
<polygon fill="white" stroke="#bfbfbf" points="25.6328,-58.5 25.6328,-79.5 55.6328,-79.5 55.6328,-58.5 25.6328,-58.5"/>
<text text-anchor="middle" x="40.6328" y="-66.5" font-family="Verdana" font-size="10.00">list</text>
</g>
<!-- Node2&#45;&gt;Node6 -->
<g id="edge10" class="edge"><title>Node2&#45;&gt;Node6</title>
<path fill="none" stroke="midnightblue" d="M162.61,-116.483C138.263,-108.057 103.37,-95.6022 65.0628,-79.9852"/>
<polygon fill="midnightblue" stroke="midnightblue" points="66.367,-76.7372 55.7875,-76.1688 63.7034,-83.2107 66.367,-76.7372"/>
</g>
<!-- Node7 -->
<g id="node13" class="node"><title>Node7</title>
<polygon fill="white" stroke="#bfbfbf" points="73.6328,-58.5 73.6328,-79.5 137.633,-79.5 137.633,-58.5 73.6328,-58.5"/>
<text text-anchor="middle" x="105.633" y="-66.5" font-family="Verdana" font-size="10.00">XmlSink.h</text>
</g>
<!-- Node2&#45;&gt;Node7 -->
<g id="edge12" class="edge"><title>Node2&#45;&gt;Node7</title>
<path fill="none" stroke="midnightblue" d="M177.492,-116.362C164.219,-107.614 145.2,-95.0786 130.063,-85.1015"/>
<polygon fill="midnightblue" stroke="midnightblue" points="131.947,-82.1515 121.671,-79.5707 128.094,-87.9962 131.947,-82.1515"/>
</g>
<!-- Node8 -->
<g id="node15" class="node"><title>Node8</title>
<polygon fill="white" stroke="#bfbfbf" points="155.133,-58.5 155.133,-79.5 232.133,-79.5 232.133,-58.5 155.133,-58.5"/>
<text text-anchor="middle" x="193.633" y="-66.5" font-family="Verdana" font-size="10.00">XmlSource.h</text>
</g>
<!-- Node2&#45;&gt;Node8 -->
<g id="edge14" class="edge"><title>Node2&#45;&gt;Node8</title>
<path fill="none" stroke="midnightblue" d="M193.633,-116.362C193.633,-108.922 193.633,-98.7427 193.633,-89.7276"/>
<polygon fill="midnightblue" stroke="midnightblue" points="197.133,-89.5706 193.633,-79.5707 190.133,-89.5707 197.133,-89.5706"/>
</g>
<!-- Node9 -->
<g id="node17" class="node"><title>Node9</title>
<a xlink:href="PathNavigator_8h.html" target="_top" xlink:title="PathNavigator.h">
<polygon fill="white" stroke="black" points="249.633,-58.5 249.633,-79.5 341.633,-79.5 341.633,-58.5 249.633,-58.5"/>
<text text-anchor="middle" x="295.633" y="-66.5" font-family="Verdana" font-size="10.00">PathNavigator.h</text>
</a>
</g>
<!-- Node2&#45;&gt;Node9 -->
<g id="edge16" class="edge"><title>Node2&#45;&gt;Node9</title>
<path fill="none" stroke="midnightblue" d="M212.341,-116.362C228.013,-107.45 250.597,-94.6087 268.295,-84.5447"/>
<polygon fill="midnightblue" stroke="midnightblue" points="270.08,-87.5562 277.043,-79.5707 266.62,-81.4712 270.08,-87.5562"/>
</g>
<!-- Node9&#45;&gt;Node3 -->
<g id="edge20" class="edge"><title>Node9&#45;&gt;Node3</title>
<path fill="none" stroke="midnightblue" d="M312.69,-58.3619C326.718,-49.6138 346.817,-37.0786 362.815,-27.1015"/>
<polygon fill="midnightblue" stroke="midnightblue" points="365.05,-29.8323 371.683,-21.5707 361.346,-23.8927 365.05,-29.8323"/>
</g>
<!-- Node9&#45;&gt;Node4 -->
<g id="edge18" class="edge"><title>Node9&#45;&gt;Node4</title>
<path fill="none" stroke="midnightblue" d="M283.344,-58.3619C273.616,-49.9408 259.835,-38.0105 248.537,-28.2308"/>
<polygon fill="midnightblue" stroke="midnightblue" points="250.695,-25.4695 240.844,-21.5707 246.114,-30.7619 250.695,-25.4695"/>
</g>
<!-- Node9&#45;&gt;Node5 -->
<g id="edge22" class="edge"><title>Node9&#45;&gt;Node5</title>
<path fill="none" stroke="midnightblue" d="M249.562,-59.0294C197.137,-47.6838 112.564,-29.3806 64.3724,-18.9511"/>
<polygon fill="midnightblue" stroke="midnightblue" points="64.8929,-15.4828 54.3789,-16.7883 63.4122,-22.3244 64.8929,-15.4828"/>
</g>
<!-- Node10&#45;&gt;Node2 -->
<g id="edge26" class="edge"><title>Node10&#45;&gt;Node2</title>
<path fill="none" stroke="midnightblue" d="M445.037,-174.497C384.976,-163.149 290.592,-145.318 236.171,-135.037"/>
<polygon fill="midnightblue" stroke="midnightblue" points="236.643,-131.564 226.167,-133.147 235.343,-138.442 236.643,-131.564"/>
</g>
<!-- Node10&#45;&gt;Node3 -->
<g id="edge30" class="edge"><title>Node10&#45;&gt;Node3</title>
<path fill="none" stroke="midnightblue" d="M566.475,-175.404C609.276,-167.665 659.484,-155.224 672.633,-138 678.566,-130.228 678.221,-124.024 672.633,-116 642.833,-73.211 488.665,-33.6833 420.783,-18.059"/>
<polygon fill="midnightblue" stroke="midnightblue" points="421.188,-14.5619 410.661,-15.7597 419.638,-21.388 421.188,-14.5619"/>
</g>
<!-- Node11 -->
<g id="node25" class="node"><title>Node11</title>
<polygon fill="white" stroke="#bfbfbf" points="435.633,-116.5 435.633,-137.5 473.633,-137.5 473.633,-116.5 435.633,-116.5"/>
<text text-anchor="middle" x="454.633" y="-124.5" font-family="Verdana" font-size="10.00">map</text>
</g>
<!-- Node10&#45;&gt;Node11 -->
<g id="edge28" class="edge"><title>Node10&#45;&gt;Node11</title>
<path fill="none" stroke="midnightblue" d="M492.196,-174.362C485.841,-166.35 476.967,-155.161 469.44,-145.67"/>
<polygon fill="midnightblue" stroke="midnightblue" points="471.973,-143.231 463.016,-137.571 466.488,-147.581 471.973,-143.231"/>
</g>
<!-- Node12 -->
<g id="node28" class="node"><title>Node12</title>
<polygon fill="white" stroke="#bfbfbf" points="491.133,-116.5 491.133,-137.5 664.133,-137.5 664.133,-116.5 491.133,-116.5"/>
<text text-anchor="middle" x="577.633" y="-124.5" font-family="Verdana" font-size="10.00">SelectionCriterionTypeInterface.h</text>
</g>
<!-- Node10&#45;&gt;Node12 -->
<g id="edge32" class="edge"><title>Node10&#45;&gt;Node12</title>
<path fill="none" stroke="midnightblue" d="M514.756,-174.362C526.153,-165.777 542.391,-153.546 555.51,-143.664"/>
<polygon fill="midnightblue" stroke="midnightblue" points="557.718,-146.383 563.599,-137.571 553.506,-140.792 557.718,-146.383"/>
</g>
</g>
</svg>
