<?xml version="1.0" encoding="UTF-8" standalone="no"?>
<!DOCTYPE svg PUBLIC "-//W3C//DTD SVG 1.1//EN"
 "http://www.w3.org/Graphics/SVG/1.1/DTD/svg11.dtd">
<!-- Generated by graphviz version 2.26.3 (20100126.1600)
 -->
<!-- Title: parameter/SelectionCriterion.cpp Pages: 1 -->
<svg width="601pt" height="320pt"
 viewBox="0.00 0.00 601.24 320.00" xmlns="http://www.w3.org/2000/svg" xmlns:xlink="http://www.w3.org/1999/xlink">
<g id="graph1" class="graph" transform="scale(1 1) rotate(0) translate(4 316)">
<title>parameter/SelectionCriterion.cpp</title>
<polygon fill="white" stroke="white" points="-4,5 -4,-316 598.236,-316 598.236,5 -4,5"/>
<!-- Node1 -->
<g id="node1" class="node"><title>Node1</title>
<polygon fill="#bfbfbf" stroke="black" points="379.236,-290.5 379.236,-311.5 555.236,-311.5 555.236,-290.5 379.236,-290.5"/>
<text text-anchor="middle" x="467.236" y="-298.5" font-family="Verdana" font-size="10.00">parameter/SelectionCriterion.cpp</text>
</g>
<!-- Node2 -->
<g id="node3" class="node"><title>Node2</title>
<a xlink:href="SelectionCriterion_8h.html" target="_top" xlink:title="SelectionCriterion.h">
<polygon fill="white" stroke="black" points="353.236,-232.5 353.236,-253.5 463.236,-253.5 463.236,-232.5 353.236,-232.5"/>
<text text-anchor="middle" x="408.236" y="-240.5" font-family="Verdana" font-size="10.00">SelectionCriterion.h</text>
</a>
</g>
<!-- Node1&#45;&gt;Node2 -->
<g id="edge2" class="edge"><title>Node1&#45;&gt;Node2</title>
<path fill="none" stroke="midnightblue" d="M456.414,-290.362C448.014,-282.104 436.182,-270.472 426.346,-260.803"/>
<polygon fill="midnightblue" stroke="midnightblue" points="428.574,-258.085 418.989,-253.571 423.666,-263.077 428.574,-258.085"/>
</g>
<!-- Node15 -->
<g id="node35" class="node"><title>Node15</title>
<a xlink:href="AutoLog_8h.html" target="_top" xlink:title="AutoLog.h">
<polygon fill="white" stroke="black" points="528.736,-174.5 528.736,-195.5 593.736,-195.5 593.736,-174.5 528.736,-174.5"/>
<text text-anchor="middle" x="561.236" y="-182.5" font-family="Verdana" font-size="10.00">AutoLog.h</text>
</a>
</g>
<!-- Node1&#45;&gt;Node15 -->
<g id="edge40" class="edge"><title>Node1&#45;&gt;Node15</title>
<path fill="none" stroke="midnightblue" d="M475.911,-290.295C491.929,-270.527 526.326,-228.08 546.208,-203.544"/>
<polygon fill="midnightblue" stroke="midnightblue" points="549.005,-205.652 552.582,-195.679 543.567,-201.245 549.005,-205.652"/>
</g>
<!-- Node3 -->
<g id="node5" class="node"><title>Node3</title>
<a xlink:href="Element_8h.html" target="_top" xlink:title="Element.h">
<polygon fill="white" stroke="black" points="260.736,-116.5 260.736,-137.5 325.736,-137.5 325.736,-116.5 260.736,-116.5"/>
<text text-anchor="middle" x="293.236" y="-124.5" font-family="Verdana" font-size="10.00">Element.h</text>
</a>
</g>
<!-- Node2&#45;&gt;Node3 -->
<g id="edge4" class="edge"><title>Node2&#45;&gt;Node3</title>
<path fill="none" stroke="midnightblue" d="M353.167,-240.303C288.7,-235.857 187.721,-224.441 164.236,-196 158.01,-188.46 158.629,-182.01 164.236,-174 169.514,-166.459 215.394,-150.905 250.953,-139.754"/>
<polygon fill="midnightblue" stroke="midnightblue" points="252.156,-143.046 260.667,-136.737 250.079,-136.361 252.156,-143.046"/>
</g>
<!-- Node4 -->
<g id="node7" class="node"><title>Node4</title>
<polygon fill="white" stroke="#bfbfbf" points="413.236,-0.5 413.236,-21.5 457.236,-21.5 457.236,-0.5 413.236,-0.5"/>
<text text-anchor="middle" x="435.236" y="-8.5" font-family="Verdana" font-size="10.00">string</text>
</g>
<!-- Node2&#45;&gt;Node4 -->
<g id="edge38" class="edge"><title>Node2&#45;&gt;Node4</title>
<path fill="none" stroke="midnightblue" d="M437.821,-232.479C454.064,-225.006 472.781,-213.206 482.236,-196 512.708,-140.547 471.579,-64.8994 448.705,-30.0293"/>
<polygon fill="midnightblue" stroke="midnightblue" points="451.575,-28.0253 443.074,-21.7016 445.776,-31.9462 451.575,-28.0253"/>
</g>
<!-- Node11 -->
<g id="node24" class="node"><title>Node11</title>
<a xlink:href="SelectionCriterionType_8h.html" target="_top" xlink:title="SelectionCriterionType.h">
<polygon fill="white" stroke="black" points="342.736,-174.5 342.736,-195.5 473.736,-195.5 473.736,-174.5 342.736,-174.5"/>
<text text-anchor="middle" x="408.236" y="-182.5" font-family="Verdana" font-size="10.00">SelectionCriterionType.h</text>
</a>
</g>
<!-- Node2&#45;&gt;Node11 -->
<g id="edge26" class="edge"><title>Node2&#45;&gt;Node11</title>
<path fill="none" stroke="midnightblue" d="M408.236,-232.362C408.236,-224.922 408.236,-214.743 408.236,-205.728"/>
<polygon fill="midnightblue" stroke="midnightblue" points="411.736,-205.571 408.236,-195.571 404.736,-205.571 411.736,-205.571"/>
</g>
<!-- Node14 -->
<g id="node32" class="node"><title>Node14</title>
<polygon fill="white" stroke="#bfbfbf" points="173.236,-174.5 173.236,-195.5 325.236,-195.5 325.236,-174.5 173.236,-174.5"/>
<text text-anchor="middle" x="249.236" y="-182.5" font-family="Verdana" font-size="10.00">SelectionCriterionInterface.h</text>
</g>
<!-- Node2&#45;&gt;Node14 -->
<g id="edge36" class="edge"><title>Node2&#45;&gt;Node14</title>
<path fill="none" stroke="midnightblue" d="M379.442,-232.497C353.745,-223.123 315.918,-209.324 287.648,-199.012"/>
<polygon fill="midnightblue" stroke="midnightblue" points="288.677,-195.662 278.083,-195.523 286.278,-202.238 288.677,-195.662"/>
</g>
<!-- Node3&#45;&gt;Node4 -->
<g id="edge6" class="edge"><title>Node3&#45;&gt;Node4</title>
<path fill="none" stroke="midnightblue" d="M315.112,-116.489C331.884,-107.893 355.147,-94.7771 373.236,-80 391.585,-65.0098 409.321,-44.4596 421.089,-29.6913"/>
<polygon fill="midnightblue" stroke="midnightblue" points="423.893,-31.7865 427.287,-21.7498 418.375,-27.4796 423.893,-31.7865"/>
</g>
<!-- Node5 -->
<g id="node9" class="node"><title>Node5</title>
<polygon fill="white" stroke="#bfbfbf" points="2.73571,-0.5 2.73571,-21.5 49.7357,-21.5 49.7357,-0.5 2.73571,-0.5"/>
<text text-anchor="middle" x="26.2357" y="-8.5" font-family="Verdana" font-size="10.00">vector</text>
</g>
<!-- Node3&#45;&gt;Node5 -->
<g id="edge8" class="edge"><title>Node3&#45;&gt;Node5</title>
<path fill="none" stroke="midnightblue" d="M260.644,-117.888C257.81,-117.207 254.978,-116.567 252.236,-116 198.129,-104.823 42.3636,-121.8 6.23571,-80 -5.78637,-66.0905 2.66736,-45.3223 12.0027,-30.2056"/>
<polygon fill="midnightblue" stroke="midnightblue" points="15.0878,-31.8894 17.754,-21.6355 9.27528,-27.9887 15.0878,-31.8894"/>
</g>
<!-- Node6 -->
<g id="node11" class="node"><title>Node6</title>
<polygon fill="white" stroke="#bfbfbf" points="69.7357,-0.5 69.7357,-21.5 122.736,-21.5 122.736,-0.5 69.7357,-0.5"/>
<text text-anchor="middle" x="96.2357" y="-8.5" font-family="Verdana" font-size="10.00">stdint.h</text>
</g>
<!-- Node3&#45;&gt;Node6 -->
<g id="edge10" class="edge"><title>Node3&#45;&gt;Node6</title>
<path fill="none" stroke="midnightblue" d="M309.556,-116.283C328.81,-102.334 356.294,-77.4467 340.236,-58 314.399,-26.7119 194.779,-16.0278 133.157,-12.5617"/>
<polygon fill="midnightblue" stroke="midnightblue" points="133.244,-9.0615 123.074,-12.03 132.875,-16.0518 133.244,-9.0615"/>
</g>
<!-- Node7 -->
<g id="node13" class="node"><title>Node7</title>
<polygon fill="white" stroke="#bfbfbf" points="125.236,-58.5 125.236,-79.5 155.236,-79.5 155.236,-58.5 125.236,-58.5"/>
<text text-anchor="middle" x="140.236" y="-66.5" font-family="Verdana" font-size="10.00">list</text>
</g>
<!-- Node3&#45;&gt;Node7 -->
<g id="edge12" class="edge"><title>Node3&#45;&gt;Node7</title>
<path fill="none" stroke="midnightblue" d="M262.213,-116.483C237.866,-108.057 202.973,-95.6022 164.666,-79.9852"/>
<polygon fill="midnightblue" stroke="midnightblue" points="165.97,-76.7372 155.39,-76.1688 163.306,-83.2107 165.97,-76.7372"/>
</g>
<!-- Node8 -->
<g id="node15" class="node"><title>Node8</title>
<polygon fill="white" stroke="#bfbfbf" points="173.236,-58.5 173.236,-79.5 237.236,-79.5 237.236,-58.5 173.236,-58.5"/>
<text text-anchor="middle" x="205.236" y="-66.5" font-family="Verdana" font-size="10.00">XmlSink.h</text>
</g>
<!-- Node3&#45;&gt;Node8 -->
<g id="edge14" class="edge"><title>Node3&#45;&gt;Node8</title>
<path fill="none" stroke="midnightblue" d="M277.095,-116.362C263.822,-107.614 244.803,-95.0786 229.666,-85.1015"/>
<polygon fill="midnightblue" stroke="midnightblue" points="231.55,-82.1515 221.274,-79.5707 227.697,-87.9962 231.55,-82.1515"/>
</g>
<!-- Node9 -->
<g id="node17" class="node"><title>Node9</title>
<polygon fill="white" stroke="#bfbfbf" points="254.736,-58.5 254.736,-79.5 331.736,-79.5 331.736,-58.5 254.736,-58.5"/>
<text text-anchor="middle" x="293.236" y="-66.5" font-family="Verdana" font-size="10.00">XmlSource.h</text>
</g>
<!-- Node3&#45;&gt;Node9 -->
<g id="edge16" class="edge"><title>Node3&#45;&gt;Node9</title>
<path fill="none" stroke="midnightblue" d="M293.236,-116.362C293.236,-108.922 293.236,-98.7427 293.236,-89.7276"/>
<polygon fill="midnightblue" stroke="midnightblue" points="296.736,-89.5706 293.236,-79.5707 289.736,-89.5707 296.736,-89.5706"/>
</g>
<!-- Node10 -->
<g id="node19" class="node"><title>Node10</title>
<a xlink:href="PathNavigator_8h.html" target="_top" xlink:title="PathNavigator.h">
<polygon fill="white" stroke="black" points="15.2357,-58.5 15.2357,-79.5 107.236,-79.5 107.236,-58.5 15.2357,-58.5"/>
<text text-anchor="middle" x="61.2357" y="-66.5" font-family="Verdana" font-size="10.00">PathNavigator.h</text>
</a>
</g>
<!-- Node3&#45;&gt;Node10 -->
<g id="edge18" class="edge"><title>Node3&#45;&gt;Node10</title>
<path fill="none" stroke="midnightblue" d="M260.578,-118.172C257.758,-117.43 254.948,-116.697 252.236,-116 206.089,-104.133 153.505,-91.2398 115.21,-81.9642"/>
<polygon fill="midnightblue" stroke="midnightblue" points="115.844,-78.5166 105.301,-79.5676 114.198,-85.3204 115.844,-78.5166"/>
</g>
<!-- Node10&#45;&gt;Node4 -->
<g id="edge22" class="edge"><title>Node10&#45;&gt;Node4</title>
<path fill="none" stroke="midnightblue" d="M107.417,-59.5857C110.398,-59.033 113.357,-58.4995 116.236,-58 220.862,-39.8421 345.586,-22.7877 403.177,-15.1714"/>
<polygon fill="midnightblue" stroke="midnightblue" points="403.672,-18.6365 413.129,-13.8609 402.758,-11.6964 403.672,-18.6365"/>
</g>
<!-- Node10&#45;&gt;Node5 -->
<g id="edge20" class="edge"><title>Node10&#45;&gt;Node5</title>
<path fill="none" stroke="midnightblue" d="M54.8162,-58.3619C50.0798,-50.5131 43.5039,-39.6159 37.8537,-30.2527"/>
<polygon fill="midnightblue" stroke="midnightblue" points="40.7779,-28.3242 32.6145,-21.5707 34.7846,-31.9409 40.7779,-28.3242"/>
</g>
<!-- Node10&#45;&gt;Node6 -->
<g id="edge24" class="edge"><title>Node10&#45;&gt;Node6</title>
<path fill="none" stroke="midnightblue" d="M67.6552,-58.3619C72.3916,-50.5131 78.9675,-39.6159 84.6177,-30.2527"/>
<polygon fill="midnightblue" stroke="midnightblue" points="87.6868,-31.9409 89.8569,-21.5707 81.6935,-28.3242 87.6868,-31.9409"/>
</g>
<!-- Node11&#45;&gt;Node3 -->
<g id="edge28" class="edge"><title>Node11&#45;&gt;Node3</title>
<path fill="none" stroke="midnightblue" d="M387.41,-174.497C369.529,-165.479 343.528,-152.365 323.375,-142.201"/>
<polygon fill="midnightblue" stroke="midnightblue" points="324.8,-138.999 314.295,-137.621 321.648,-145.249 324.8,-138.999"/>
</g>
<!-- Node11&#45;&gt;Node4 -->
<g id="edge32" class="edge"><title>Node11&#45;&gt;Node4</title>
<path fill="none" stroke="midnightblue" d="M409.884,-174.377C414.242,-146.293 426.131,-69.6735 431.946,-32.2027"/>
<polygon fill="midnightblue" stroke="midnightblue" points="435.465,-32.3462 433.54,-21.9277 428.548,-31.2727 435.465,-32.3462"/>
</g>
<!-- Node12 -->
<g id="node27" class="node"><title>Node12</title>
<polygon fill="white" stroke="#bfbfbf" points="435.236,-116.5 435.236,-137.5 473.236,-137.5 473.236,-116.5 435.236,-116.5"/>
<text text-anchor="middle" x="454.236" y="-124.5" font-family="Verdana" font-size="10.00">map</text>
</g>
<!-- Node11&#45;&gt;Node12 -->
<g id="edge30" class="edge"><title>Node11&#45;&gt;Node12</title>
<path fill="none" stroke="midnightblue" d="M416.673,-174.362C423.027,-166.35 431.902,-155.161 439.429,-145.67"/>
<polygon fill="midnightblue" stroke="midnightblue" points="442.38,-147.581 445.852,-137.571 436.896,-143.231 442.38,-147.581"/>
</g>
<!-- Node13 -->
<g id="node30" class="node"><title>Node13</title>
<polygon fill="white" stroke="#bfbfbf" points="70.7357,-116.5 70.7357,-137.5 243.736,-137.5 243.736,-116.5 70.7357,-116.5"/>
<text text-anchor="middle" x="157.236" y="-124.5" font-family="Verdana" font-size="10.00">SelectionCriterionTypeInterface.h</text>
</g>
<!-- Node11&#45;&gt;Node13 -->
<g id="edge34" class="edge"><title>Node11&#45;&gt;Node13</title>
<path fill="none" stroke="midnightblue" d="M362.781,-174.497C320.622,-164.755 257.778,-150.233 212.685,-139.813"/>
<polygon fill="midnightblue" stroke="midnightblue" points="213.306,-136.364 202.775,-137.523 211.73,-143.185 213.306,-136.364"/>
</g>
<!-- Node15&#45;&gt;Node3 -->
<g id="edge42" class="edge"><title>Node15&#45;&gt;Node3</title>
<path fill="none" stroke="midnightblue" d="M528.642,-177.946C480.284,-167.481 389.494,-147.832 335.899,-136.233"/>
<polygon fill="midnightblue" stroke="midnightblue" points="336.536,-132.79 326.022,-134.095 335.055,-139.632 336.536,-132.79"/>
</g>
<!-- Node15&#45;&gt;Node4 -->
<g id="edge44" class="edge"><title>Node15&#45;&gt;Node4</title>
<path fill="none" stroke="midnightblue" d="M559.847,-174.252C556.317,-150.722 545.069,-93.8851 515.236,-58 502.409,-42.5714 483.126,-31.0302 466.706,-23.2459"/>
<polygon fill="midnightblue" stroke="midnightblue" points="467.996,-19.9887 457.439,-19.0957 465.135,-26.3773 467.996,-19.9887"/>
</g>
</g>
</svg>
