<?xml version="1.0" encoding="UTF-8" standalone="no"?>
<!DOCTYPE svg PUBLIC "-//W3C//DTD SVG 1.1//EN"
 "http://www.w3.org/Graphics/SVG/1.1/DTD/svg11.dtd">
<!-- Generated by graphviz version 2.26.3 (20100126.1600)
 -->
<!-- Title: parameter/SelectionCriterionLibrary.h Pages: 1 -->
<svg width="350pt" height="116pt"
 viewBox="0.00 0.00 350.00 116.00" xmlns="http://www.w3.org/2000/svg" xmlns:xlink="http://www.w3.org/1999/xlink">
<g id="graph1" class="graph" transform="scale(1 1) rotate(0) translate(4 112)">
<title>parameter/SelectionCriterionLibrary.h</title>
<polygon fill="white" stroke="white" points="-4,5 -4,-112 347,-112 347,5 -4,5"/>
<!-- Node1 -->
<g id="node1" class="node"><title>Node1</title>
<polygon fill="#bfbfbf" stroke="black" points="97.5,-73 97.5,-107 252.5,-107 252.5,-73 97.5,-73"/>
<text text-anchor="start" x="105.5" y="-94" font-family="Verdana" font-size="10.00">parameter/SelectionCriterion</text>
<text text-anchor="middle" x="175" y="-81" font-family="Verdana" font-size="10.00">Library.h</text>
</g>
<!-- Node2 -->
<g id="node3" class="node"><title>Node2</title>
<a xlink:href="SelectionCriteria_8cpp.html" target="_top" xlink:title="parameter/SelectionCriteria.cpp">
<polygon fill="white" stroke="black" points="0,-7.5 0,-28.5 170,-28.5 170,-7.5 0,-7.5"/>
<text text-anchor="middle" x="85" y="-15.5" font-family="Verdana" font-size="10.00">parameter/SelectionCriteria.cpp</text>
</a>
</g>
<!-- Node1&#45;&gt;Node2 -->
<g id="edge2" class="edge"><title>Node1&#45;&gt;Node2</title>
<path fill="none" stroke="midnightblue" d="M145.659,-66.527C129.718,-53.7747 110.783,-38.6265 98.3601,-28.688"/>
<polygon fill="midnightblue" stroke="midnightblue" points="143.676,-69.4231 153.671,-72.937 148.049,-63.957 143.676,-69.4231"/>
</g>
<!-- Node3 -->
<g id="node5" class="node"><title>Node3</title>
<a xlink:href="SelectionCriterionLibrary_8cpp.html" target="_top" xlink:title="parameter/SelectionCriterion\lLibrary.cpp">
<polygon fill="white" stroke="black" points="187.5,-1 187.5,-35 342.5,-35 342.5,-1 187.5,-1"/>
<text text-anchor="start" x="195.5" y="-22" font-family="Verdana" font-size="10.00">parameter/SelectionCriterion</text>
<text text-anchor="middle" x="265" y="-9" font-family="Verdana" font-size="10.00">Library.cpp</text>
</a>
</g>
<!-- Node1&#45;&gt;Node3 -->
<g id="edge4" class="edge"><title>Node1&#45;&gt;Node3</title>
<path fill="none" stroke="midnightblue" d="M204.384,-66.493C217.138,-56.2899 231.802,-44.5583 243.512,-35.19"/>
<polygon fill="midnightblue" stroke="midnightblue" points="201.951,-63.957 196.329,-72.937 206.324,-69.4231 201.951,-63.957"/>
</g>
</g>
</svg>
