<?xml version="1.0" encoding="UTF-8" standalone="no"?>
<!DOCTYPE svg PUBLIC "-//W3C//DTD SVG 1.1//EN"
 "http://www.w3.org/Graphics/SVG/1.1/DTD/svg11.dtd">
<!-- Generated by graphviz version 2.26.3 (20100126.1600)
 -->
<!-- Title: parameter/SelectionCriterionRule.h Pages: 1 -->
<svg width="557pt" height="276pt"
 viewBox="0.00 0.00 557.00 276.00" xmlns="http://www.w3.org/2000/svg" xmlns:xlink="http://www.w3.org/1999/xlink">
<g id="graph1" class="graph" transform="scale(1 1) rotate(0) translate(4 272)">
<title>parameter/SelectionCriterionRule.h</title>
<polygon fill="white" stroke="white" points="-4,5 -4,-272 554,-272 554,5 -4,5"/>
<!-- Node1 -->
<g id="node1" class="node"><title>Node1</title>
<polygon fill="#bfbfbf" stroke="black" points="-0.5,-233 -0.5,-267 154.5,-267 154.5,-233 -0.5,-233"/>
<text text-anchor="start" x="7.5" y="-254" font-family="Verdana" font-size="10.00">parameter/SelectionCriterion</text>
<text text-anchor="middle" x="77" y="-241" font-family="Verdana" font-size="10.00">Rule.h</text>
</g>
<!-- Node2 -->
<g id="node3" class="node"><title>Node2</title>
<a xlink:href="Rule_8h.html" target="_top" xlink:title="Rule.h">
<polygon fill="white" stroke="black" points="79.5,-174.5 79.5,-195.5 124.5,-195.5 124.5,-174.5 79.5,-174.5"/>
<text text-anchor="middle" x="102" y="-182.5" font-family="Verdana" font-size="10.00">Rule.h</text>
</a>
</g>
<!-- Node1&#45;&gt;Node2 -->
<g id="edge2" class="edge"><title>Node1&#45;&gt;Node2</title>
<path fill="none" stroke="midnightblue" d="M83.5685,-232.922C86.8127,-224.487 90.7508,-214.248 94.1527,-205.403"/>
<polygon fill="midnightblue" stroke="midnightblue" points="97.503,-206.442 97.8261,-195.852 90.9696,-203.929 97.503,-206.442"/>
</g>
<!-- Node4 -->
<g id="node7" class="node"><title>Node4</title>
<polygon fill="white" stroke="#bfbfbf" points="87,-0.5 87,-21.5 131,-21.5 131,-0.5 87,-0.5"/>
<text text-anchor="middle" x="109" y="-8.5" font-family="Verdana" font-size="10.00">string</text>
</g>
<!-- Node1&#45;&gt;Node4 -->
<g id="edge28" class="edge"><title>Node1&#45;&gt;Node4</title>
<path fill="none" stroke="midnightblue" d="M74.5631,-232.531C73.2148,-221.978 71.6781,-208.244 71,-196 67.6295,-135.145 89.1884,-65.1269 101.251,-31.3371"/>
<polygon fill="midnightblue" stroke="midnightblue" points="104.629,-32.2904 104.79,-21.6968 98.0581,-29.878 104.629,-32.2904"/>
</g>
<!-- Node3 -->
<g id="node5" class="node"><title>Node3</title>
<a xlink:href="Element_8h.html" target="_top" xlink:title="Element.h">
<polygon fill="white" stroke="black" points="247.5,-116.5 247.5,-137.5 312.5,-137.5 312.5,-116.5 247.5,-116.5"/>
<text text-anchor="middle" x="280" y="-124.5" font-family="Verdana" font-size="10.00">Element.h</text>
</a>
</g>
<!-- Node2&#45;&gt;Node3 -->
<g id="edge4" class="edge"><title>Node2&#45;&gt;Node3</title>
<path fill="none" stroke="midnightblue" d="M124.544,-177.654C153.019,-168.376 202.58,-152.227 238.091,-140.656"/>
<polygon fill="midnightblue" stroke="midnightblue" points="239.282,-143.949 247.706,-137.523 237.114,-137.293 239.282,-143.949"/>
</g>
<!-- Node2&#45;&gt;Node4 -->
<g id="edge26" class="edge"><title>Node2&#45;&gt;Node4</title>
<path fill="none" stroke="midnightblue" d="M102.427,-174.377C103.557,-146.293 106.64,-69.6735 108.147,-32.2027"/>
<polygon fill="midnightblue" stroke="midnightblue" points="111.655,-32.0604 108.56,-21.9277 104.661,-31.7789 111.655,-32.0604"/>
</g>
<!-- Node3&#45;&gt;Node4 -->
<g id="edge6" class="edge"><title>Node3&#45;&gt;Node4</title>
<path fill="none" stroke="midnightblue" d="M247.463,-122.237C218.322,-116.529 175.852,-104.477 147,-80 131.833,-67.133 121.635,-46.6158 115.654,-31.2937"/>
<polygon fill="midnightblue" stroke="midnightblue" points="118.869,-29.8897 112.179,-21.6739 112.285,-32.2682 118.869,-29.8897"/>
</g>
<!-- Node5 -->
<g id="node9" class="node"><title>Node5</title>
<polygon fill="white" stroke="#bfbfbf" points="502.5,-0.5 502.5,-21.5 549.5,-21.5 549.5,-0.5 502.5,-0.5"/>
<text text-anchor="middle" x="526" y="-8.5" font-family="Verdana" font-size="10.00">vector</text>
</g>
<!-- Node3&#45;&gt;Node5 -->
<g id="edge8" class="edge"><title>Node3&#45;&gt;Node5</title>
<path fill="none" stroke="midnightblue" d="M312.753,-123.616C366.266,-117.492 469.275,-103.028 497,-80 511.479,-67.9745 518.857,-47.4683 522.535,-31.9278"/>
<polygon fill="midnightblue" stroke="midnightblue" points="526.055,-32.1772 524.607,-21.6818 519.194,-30.7893 526.055,-32.1772"/>
</g>
<!-- Node6 -->
<g id="node11" class="node"><title>Node6</title>
<polygon fill="white" stroke="#bfbfbf" points="410.5,-0.5 410.5,-21.5 463.5,-21.5 463.5,-0.5 410.5,-0.5"/>
<text text-anchor="middle" x="437" y="-8.5" font-family="Verdana" font-size="10.00">stdint.h</text>
</g>
<!-- Node3&#45;&gt;Node6 -->
<g id="edge10" class="edge"><title>Node3&#45;&gt;Node6</title>
<path fill="none" stroke="midnightblue" d="M312.636,-124.195C364.087,-119.021 460.345,-106.042 481,-80 494.278,-63.2595 476.77,-42.3751 460.065,-27.9929"/>
<polygon fill="midnightblue" stroke="midnightblue" points="462.038,-25.086 452.068,-21.5015 457.626,-30.5211 462.038,-25.086"/>
</g>
<!-- Node7 -->
<g id="node13" class="node"><title>Node7</title>
<polygon fill="white" stroke="#bfbfbf" points="156,-58.5 156,-79.5 186,-79.5 186,-58.5 156,-58.5"/>
<text text-anchor="middle" x="171" y="-66.5" font-family="Verdana" font-size="10.00">list</text>
</g>
<!-- Node3&#45;&gt;Node7 -->
<g id="edge12" class="edge"><title>Node3&#45;&gt;Node7</title>
<path fill="none" stroke="midnightblue" d="M260.261,-116.497C241.914,-106.734 214.546,-92.1712 194.955,-81.7468"/>
<polygon fill="midnightblue" stroke="midnightblue" points="196.508,-78.6086 186.036,-77.0009 193.22,-84.7882 196.508,-78.6086"/>
</g>
<!-- Node8 -->
<g id="node15" class="node"><title>Node8</title>
<polygon fill="white" stroke="#bfbfbf" points="204,-58.5 204,-79.5 268,-79.5 268,-58.5 204,-58.5"/>
<text text-anchor="middle" x="236" y="-66.5" font-family="Verdana" font-size="10.00">XmlSink.h</text>
</g>
<!-- Node3&#45;&gt;Node8 -->
<g id="edge14" class="edge"><title>Node3&#45;&gt;Node8</title>
<path fill="none" stroke="midnightblue" d="M271.93,-116.362C265.851,-108.35 257.363,-97.1605 250.163,-87.6696"/>
<polygon fill="midnightblue" stroke="midnightblue" points="252.851,-85.4222 244.019,-79.5707 247.275,-89.653 252.851,-85.4222"/>
</g>
<!-- Node9 -->
<g id="node17" class="node"><title>Node9</title>
<polygon fill="white" stroke="#bfbfbf" points="285.5,-58.5 285.5,-79.5 362.5,-79.5 362.5,-58.5 285.5,-58.5"/>
<text text-anchor="middle" x="324" y="-66.5" font-family="Verdana" font-size="10.00">XmlSource.h</text>
</g>
<!-- Node3&#45;&gt;Node9 -->
<g id="edge16" class="edge"><title>Node3&#45;&gt;Node9</title>
<path fill="none" stroke="midnightblue" d="M288.07,-116.362C294.149,-108.35 302.637,-97.1605 309.837,-87.6696"/>
<polygon fill="midnightblue" stroke="midnightblue" points="312.725,-89.653 315.981,-79.5707 307.149,-85.4222 312.725,-89.653"/>
</g>
<!-- Node10 -->
<g id="node19" class="node"><title>Node10</title>
<a xlink:href="PathNavigator_8h.html" target="_top" xlink:title="PathNavigator.h">
<polygon fill="white" stroke="black" points="380,-58.5 380,-79.5 472,-79.5 472,-58.5 380,-58.5"/>
<text text-anchor="middle" x="426" y="-66.5" font-family="Verdana" font-size="10.00">PathNavigator.h</text>
</a>
</g>
<!-- Node3&#45;&gt;Node10 -->
<g id="edge18" class="edge"><title>Node3&#45;&gt;Node10</title>
<path fill="none" stroke="midnightblue" d="M306.439,-116.497C329.756,-107.234 363.95,-93.6499 389.804,-83.3793"/>
<polygon fill="midnightblue" stroke="midnightblue" points="391.263,-86.566 399.264,-79.6212 388.678,-80.0605 391.263,-86.566"/>
</g>
<!-- Node10&#45;&gt;Node4 -->
<g id="edge22" class="edge"><title>Node10&#45;&gt;Node4</title>
<path fill="none" stroke="midnightblue" d="M379.8,-59.6906C376.823,-59.1123 373.87,-58.5444 371,-58 288.305,-42.3149 190.659,-25.1579 141.195,-16.563"/>
<polygon fill="midnightblue" stroke="midnightblue" points="141.561,-13.0743 131.11,-14.8133 140.365,-19.9713 141.561,-13.0743"/>
</g>
<!-- Node10&#45;&gt;Node5 -->
<g id="edge20" class="edge"><title>Node10&#45;&gt;Node5</title>
<path fill="none" stroke="midnightblue" d="M444.342,-58.3619C459.566,-49.532 481.441,-36.844 498.72,-26.8224"/>
<polygon fill="midnightblue" stroke="midnightblue" points="500.88,-29.6155 507.775,-21.5707 497.368,-23.5603 500.88,-29.6155"/>
</g>
<!-- Node10&#45;&gt;Node6 -->
<g id="edge24" class="edge"><title>Node10&#45;&gt;Node6</title>
<path fill="none" stroke="midnightblue" d="M428.018,-58.3619C429.444,-50.8401 431.402,-40.5187 433.125,-31.4308"/>
<polygon fill="midnightblue" stroke="midnightblue" points="436.571,-32.0477 434.995,-21.5707 429.693,-30.7433 436.571,-32.0477"/>
</g>
</g>
</svg>
