<?xml version="1.0" encoding="UTF-8" standalone="no"?>
<!DOCTYPE svg PUBLIC "-//W3C//DTD SVG 1.1//EN"
 "http://www.w3.org/Graphics/SVG/1.1/DTD/svg11.dtd">
<!-- Generated by graphviz version 2.26.3 (20100126.1600)
 -->
<!-- Title: parameter/SelectionCriterionRule.cpp Pages: 1 -->
<svg width="1286pt" height="450pt"
 viewBox="0.00 0.00 1286.31 450.00" xmlns="http://www.w3.org/2000/svg" xmlns:xlink="http://www.w3.org/1999/xlink">
<g id="graph1" class="graph" transform="scale(1 1) rotate(0) translate(4 446)">
<title>parameter/SelectionCriterionRule.cpp</title>
<polygon fill="white" stroke="white" points="-4,5 -4,-446 1283.31,-446 1283.31,5 -4,5"/>
<!-- Node1 -->
<g id="node1" class="node"><title>Node1</title>
<polygon fill="#bfbfbf" stroke="black" points="714.812,-407 714.812,-441 869.812,-441 869.812,-407 714.812,-407"/>
<text text-anchor="start" x="722.812" y="-428" font-family="Verdana" font-size="10.00">parameter/SelectionCriterion</text>
<text text-anchor="middle" x="792.312" y="-415" font-family="Verdana" font-size="10.00">Rule.cpp</text>
</g>
<!-- Node2 -->
<g id="node3" class="node"><title>Node2</title>
<a xlink:href="SelectionCriterionRule_8h.html" target="_top" xlink:title="SelectionCriterionRule.h">
<polygon fill="white" stroke="black" points="559.312,-232.5 559.312,-253.5 689.312,-253.5 689.312,-232.5 559.312,-232.5"/>
<text text-anchor="middle" x="624.312" y="-240.5" font-family="Verdana" font-size="10.00">SelectionCriterionRule.h</text>
</a>
</g>
<!-- Node1&#45;&gt;Node2 -->
<g id="edge2" class="edge"><title>Node1&#45;&gt;Node2</title>
<path fill="none" stroke="midnightblue" d="M757.42,-406.938C723,-388.313 671.433,-355.277 642.312,-312 632.619,-297.595 628.144,-278.264 626.079,-263.727"/>
<polygon fill="midnightblue" stroke="midnightblue" points="629.546,-263.24 624.923,-253.707 622.592,-264.043 629.546,-263.24"/>
</g>
<!-- Node12 -->
<g id="node28" class="node"><title>Node12</title>
<a xlink:href="SelectionCriterion_8h.html" target="_top" xlink:title="SelectionCriterion.h">
<polygon fill="white" stroke="black" points="763.312,-232.5 763.312,-253.5 873.312,-253.5 873.312,-232.5 763.312,-232.5"/>
<text text-anchor="middle" x="818.312" y="-240.5" font-family="Verdana" font-size="10.00">SelectionCriterion.h</text>
</a>
</g>
<!-- Node1&#45;&gt;Node12 -->
<g id="edge32" class="edge"><title>Node1&#45;&gt;Node12</title>
<path fill="none" stroke="midnightblue" d="M794.758,-406.972C799.547,-373.635 810.143,-299.869 815.332,-263.747"/>
<polygon fill="midnightblue" stroke="midnightblue" points="818.799,-264.228 816.756,-253.832 811.87,-263.232 818.799,-264.228"/>
</g>
<!-- Node15 -->
<g id="node37" class="node"><title>Node15</title>
<polygon fill="white" stroke="#bfbfbf" points="961.812,-116.5 961.812,-137.5 1134.81,-137.5 1134.81,-116.5 961.812,-116.5"/>
<text text-anchor="middle" x="1048.31" y="-124.5" font-family="Verdana" font-size="10.00">SelectionCriterionTypeInterface.h</text>
</g>
<!-- Node1&#45;&gt;Node15 -->
<g id="edge96" class="edge"><title>Node1&#45;&gt;Node15</title>
<path fill="none" stroke="midnightblue" d="M869.953,-413.72C976.855,-397.354 1156.31,-360.951 1156.31,-301 1156.31,-301 1156.31,-301 1156.31,-243 1156.31,-211.192 1157.23,-198.797 1137.31,-174 1125.69,-159.538 1108.41,-148.988 1092.15,-141.593"/>
<polygon fill="midnightblue" stroke="midnightblue" points="1093.32,-138.287 1082.75,-137.597 1090.58,-144.729 1093.32,-138.287"/>
</g>
<!-- Node17 -->
<g id="node42" class="node"><title>Node17</title>
<a xlink:href="XmlDomainSerializingContext_8h.html" target="_top" xlink:title="XmlDomainSerializingContext.h">
<polygon fill="white" stroke="black" points="30.812,-290.5 30.812,-311.5 197.812,-311.5 197.812,-290.5 30.812,-290.5"/>
<text text-anchor="middle" x="114.312" y="-298.5" font-family="Verdana" font-size="10.00">XmlDomainSerializingContext.h</text>
</a>
</g>
<!-- Node1&#45;&gt;Node17 -->
<g id="edge50" class="edge"><title>Node1&#45;&gt;Node17</title>
<path fill="none" stroke="midnightblue" d="M714.714,-420.231C620.143,-414.479 455.927,-400.744 318.312,-370 257.467,-356.407 189.334,-331.247 149.222,-315.355"/>
<polygon fill="midnightblue" stroke="midnightblue" points="150.476,-312.087 139.891,-311.625 147.878,-318.587 150.476,-312.087"/>
</g>
<!-- Node20 -->
<g id="node50" class="node"><title>Node20</title>
<a xlink:href="XmlDomainImportContext_8h.html" target="_top" xlink:title="XmlDomainImportContext.h">
<polygon fill="white" stroke="black" points="327.312,-348.5 327.312,-369.5 477.312,-369.5 477.312,-348.5 327.312,-348.5"/>
<text text-anchor="middle" x="402.312" y="-356.5" font-family="Verdana" font-size="10.00">XmlDomainImportContext.h</text>
</a>
</g>
<!-- Node1&#45;&gt;Node20 -->
<g id="edge60" class="edge"><title>Node1&#45;&gt;Node20</title>
<path fill="none" stroke="midnightblue" d="M714.794,-411.08C645.279,-399.494 544.006,-382.616 475.765,-371.242"/>
<polygon fill="midnightblue" stroke="midnightblue" points="475.965,-367.727 465.525,-369.536 474.814,-374.632 475.965,-367.727"/>
</g>
<!-- Node21 -->
<g id="node53" class="node"><title>Node21</title>
<a xlink:href="SelectionCriteriaDefinition_8h.html" target="_top" xlink:title="SelectionCriteriaDefinition.h">
<polygon fill="white" stroke="black" points="650.812,-290.5 650.812,-311.5 799.812,-311.5 799.812,-290.5 650.812,-290.5"/>
<text text-anchor="middle" x="725.312" y="-298.5" font-family="Verdana" font-size="10.00">SelectionCriteriaDefinition.h</text>
</a>
</g>
<!-- Node1&#45;&gt;Node21 -->
<g id="edge94" class="edge"><title>Node1&#45;&gt;Node21</title>
<path fill="none" stroke="midnightblue" d="M782.996,-406.897C770.671,-384.271 748.995,-344.477 736.012,-320.643"/>
<polygon fill="midnightblue" stroke="midnightblue" points="739.045,-318.895 731.188,-311.787 732.898,-322.243 739.045,-318.895"/>
</g>
<!-- Node26 -->
<g id="node75" class="node"><title>Node26</title>
<a xlink:href="RuleParser_8h.html" target="_top" xlink:title="RuleParser.h">
<polygon fill="white" stroke="black" points="1014.31,-58.5 1014.31,-79.5 1088.31,-79.5 1088.31,-58.5 1014.31,-58.5"/>
<text text-anchor="middle" x="1051.31" y="-66.5" font-family="Verdana" font-size="10.00">RuleParser.h</text>
</a>
</g>
<!-- Node1&#45;&gt;Node26 -->
<g id="edge98" class="edge"><title>Node1&#45;&gt;Node26</title>
<path fill="none" stroke="midnightblue" d="M869.822,-416.219C986.638,-402.312 1194.31,-368.147 1194.31,-301 1194.31,-301 1194.31,-301 1194.31,-185 1194.31,-132.951 1136.47,-100.187 1094.36,-83.2306"/>
<polygon fill="midnightblue" stroke="midnightblue" points="1095.43,-79.892 1084.84,-79.5543 1092.91,-86.422 1095.43,-79.892"/>
</g>
<!-- Node27 -->
<g id="node79" class="node"><title>Node27</title>
<polygon fill="white" stroke="#bfbfbf" points="1222.31,-348.5 1222.31,-369.5 1278.31,-369.5 1278.31,-348.5 1222.31,-348.5"/>
<text text-anchor="middle" x="1250.31" y="-356.5" font-family="Verdana" font-size="10.00">assert.h</text>
</g>
<!-- Node1&#45;&gt;Node27 -->
<g id="edge104" class="edge"><title>Node1&#45;&gt;Node27</title>
<path fill="none" stroke="midnightblue" d="M869.839,-416.911C953.747,-408.547 1091.26,-392.829 1208.31,-370 1209.56,-369.757 1210.83,-369.497 1212.1,-369.226"/>
<polygon fill="midnightblue" stroke="midnightblue" points="1213,-372.61 1221.96,-366.948 1211.43,-365.79 1213,-372.61"/>
</g>
<!-- Node3 -->
<g id="node5" class="node"><title>Node3</title>
<a xlink:href="Rule_8h.html" target="_top" xlink:title="Rule.h">
<polygon fill="white" stroke="black" points="651.812,-174.5 651.812,-195.5 696.812,-195.5 696.812,-174.5 651.812,-174.5"/>
<text text-anchor="middle" x="674.312" y="-182.5" font-family="Verdana" font-size="10.00">Rule.h</text>
</a>
</g>
<!-- Node2&#45;&gt;Node3 -->
<g id="edge4" class="edge"><title>Node2&#45;&gt;Node3</title>
<path fill="none" stroke="midnightblue" d="M633.483,-232.362C640.46,-224.268 650.233,-212.932 658.468,-203.38"/>
<polygon fill="midnightblue" stroke="midnightblue" points="661.321,-205.43 665.199,-195.571 656.019,-200.859 661.321,-205.43"/>
</g>
<!-- Node5 -->
<g id="node9" class="node"><title>Node5</title>
<polygon fill="white" stroke="#bfbfbf" points="488.312,-0.5 488.312,-21.5 532.312,-21.5 532.312,-0.5 488.312,-0.5"/>
<text text-anchor="middle" x="510.312" y="-8.5" font-family="Verdana" font-size="10.00">string</text>
</g>
<!-- Node2&#45;&gt;Node5 -->
<g id="edge30" class="edge"><title>Node2&#45;&gt;Node5</title>
<path fill="none" stroke="midnightblue" d="M622.416,-232.378C619.717,-218.532 614.096,-193.755 605.312,-174 585.174,-128.712 569.886,-123.042 545.312,-80 536.094,-63.855 526.613,-44.9988 519.848,-31.0821"/>
<polygon fill="midnightblue" stroke="midnightblue" points="522.934,-29.4243 515.444,-21.9311 516.627,-32.4597 522.934,-29.4243"/>
</g>
<!-- Node4 -->
<g id="node7" class="node"><title>Node4</title>
<a xlink:href="Element_8h.html" target="_top" xlink:title="Element.h">
<polygon fill="white" stroke="black" points="691.812,-116.5 691.812,-137.5 756.812,-137.5 756.812,-116.5 691.812,-116.5"/>
<text text-anchor="middle" x="724.312" y="-124.5" font-family="Verdana" font-size="10.00">Element.h</text>
</a>
</g>
<!-- Node3&#45;&gt;Node4 -->
<g id="edge6" class="edge"><title>Node3&#45;&gt;Node4</title>
<path fill="none" stroke="midnightblue" d="M683.483,-174.362C690.46,-166.268 700.233,-154.932 708.468,-145.38"/>
<polygon fill="midnightblue" stroke="midnightblue" points="711.321,-147.43 715.199,-137.571 706.019,-142.859 711.321,-147.43"/>
</g>
<!-- Node3&#45;&gt;Node5 -->
<g id="edge28" class="edge"><title>Node3&#45;&gt;Node5</title>
<path fill="none" stroke="midnightblue" d="M662.833,-174.291C643.01,-155.652 601.312,-115.811 568.312,-80 553.031,-63.4176 536.577,-43.6421 525.112,-29.5217"/>
<polygon fill="midnightblue" stroke="midnightblue" points="527.675,-27.1253 518.673,-21.5396 522.227,-31.5204 527.675,-27.1253"/>
</g>
<!-- Node4&#45;&gt;Node5 -->
<g id="edge8" class="edge"><title>Node4&#45;&gt;Node5</title>
<path fill="none" stroke="midnightblue" d="M691.754,-116.636C667.26,-108.252 633.252,-95.3422 605.312,-80 577.886,-64.9402 549.196,-43.1344 530.618,-28.0859"/>
<polygon fill="midnightblue" stroke="midnightblue" points="532.784,-25.3358 522.834,-21.6958 528.342,-30.7462 532.784,-25.3358"/>
</g>
<!-- Node6 -->
<g id="node11" class="node"><title>Node6</title>
<polygon fill="white" stroke="#bfbfbf" points="889.812,-0.5 889.812,-21.5 936.812,-21.5 936.812,-0.5 889.812,-0.5"/>
<text text-anchor="middle" x="913.312" y="-8.5" font-family="Verdana" font-size="10.00">vector</text>
</g>
<!-- Node4&#45;&gt;Node6 -->
<g id="edge10" class="edge"><title>Node4&#45;&gt;Node6</title>
<path fill="none" stroke="midnightblue" d="M741.754,-116.295C775.171,-95.7846 848.369,-50.8594 887.475,-26.8575"/>
<polygon fill="midnightblue" stroke="midnightblue" points="889.493,-29.7256 896.185,-21.5117 885.832,-23.7596 889.493,-29.7256"/>
</g>
<!-- Node7 -->
<g id="node13" class="node"><title>Node7</title>
<polygon fill="white" stroke="#bfbfbf" points="1024.81,-0.5 1024.81,-21.5 1077.81,-21.5 1077.81,-0.5 1024.81,-0.5"/>
<text text-anchor="middle" x="1051.31" y="-8.5" font-family="Verdana" font-size="10.00">stdint.h</text>
</g>
<!-- Node4&#45;&gt;Node7 -->
<g id="edge12" class="edge"><title>Node4&#45;&gt;Node7</title>
<path fill="none" stroke="midnightblue" d="M756.909,-124.064C845.713,-115.911 1086.06,-92.7581 1097.31,-80 1111.76,-63.6133 1092.92,-42.407 1075.17,-27.8539"/>
<polygon fill="midnightblue" stroke="midnightblue" points="1077.26,-25.0473 1067.22,-21.6767 1072.97,-30.5754 1077.26,-25.0473"/>
</g>
<!-- Node8 -->
<g id="node15" class="node"><title>Node8</title>
<polygon fill="white" stroke="#bfbfbf" points="452.312,-58.5 452.312,-79.5 482.312,-79.5 482.312,-58.5 452.312,-58.5"/>
<text text-anchor="middle" x="467.312" y="-66.5" font-family="Verdana" font-size="10.00">list</text>
</g>
<!-- Node4&#45;&gt;Node8 -->
<g id="edge14" class="edge"><title>Node4&#45;&gt;Node8</title>
<path fill="none" stroke="midnightblue" d="M691.763,-119.654C639.76,-107.918 539.048,-85.1895 492.288,-74.6367"/>
<polygon fill="midnightblue" stroke="midnightblue" points="492.917,-71.1907 482.392,-72.4033 491.376,-78.0189 492.917,-71.1907"/>
</g>
<!-- Node9 -->
<g id="node17" class="node"><title>Node9</title>
<polygon fill="white" stroke="#bfbfbf" points="708.312,-58.5 708.312,-79.5 772.312,-79.5 772.312,-58.5 708.312,-58.5"/>
<text text-anchor="middle" x="740.312" y="-66.5" font-family="Verdana" font-size="10.00">XmlSink.h</text>
</g>
<!-- Node4&#45;&gt;Node9 -->
<g id="edge16" class="edge"><title>Node4&#45;&gt;Node9</title>
<path fill="none" stroke="midnightblue" d="M727.247,-116.362C729.322,-108.84 732.169,-98.5187 734.676,-89.4308"/>
<polygon fill="midnightblue" stroke="midnightblue" points="738.111,-90.1414 737.396,-79.5707 731.363,-88.2798 738.111,-90.1414"/>
</g>
<!-- Node10 -->
<g id="node19" class="node"><title>Node10</title>
<polygon fill="white" stroke="#bfbfbf" points="613.812,-58.5 613.812,-79.5 690.812,-79.5 690.812,-58.5 613.812,-58.5"/>
<text text-anchor="middle" x="652.312" y="-66.5" font-family="Verdana" font-size="10.00">XmlSource.h</text>
</g>
<!-- Node4&#45;&gt;Node10 -->
<g id="edge18" class="edge"><title>Node4&#45;&gt;Node10</title>
<path fill="none" stroke="midnightblue" d="M711.106,-116.362C700.551,-107.859 685.554,-95.7785 673.349,-85.9466"/>
<polygon fill="midnightblue" stroke="midnightblue" points="675.417,-83.1183 665.434,-79.5707 671.026,-88.5696 675.417,-83.1183"/>
</g>
<!-- Node11 -->
<g id="node21" class="node"><title>Node11</title>
<a xlink:href="PathNavigator_8h.html" target="_top" xlink:title="PathNavigator.h">
<polygon fill="white" stroke="black" points="904.312,-58.5 904.312,-79.5 996.312,-79.5 996.312,-58.5 904.312,-58.5"/>
<text text-anchor="middle" x="950.312" y="-66.5" font-family="Verdana" font-size="10.00">PathNavigator.h</text>
</a>
</g>
<!-- Node4&#45;&gt;Node11 -->
<g id="edge20" class="edge"><title>Node4&#45;&gt;Node11</title>
<path fill="none" stroke="midnightblue" d="M757.174,-118.566C794.541,-108.977 855.994,-93.2055 899.536,-82.0309"/>
<polygon fill="midnightblue" stroke="midnightblue" points="900.55,-85.3844 909.366,-79.5084 898.809,-78.6041 900.55,-85.3844"/>
</g>
<!-- Node11&#45;&gt;Node5 -->
<g id="edge24" class="edge"><title>Node11&#45;&gt;Node5</title>
<path fill="none" stroke="midnightblue" d="M904.056,-62.9026C814.496,-51.097 619.466,-25.3885 542.487,-15.2413"/>
<polygon fill="midnightblue" stroke="midnightblue" points="542.804,-11.7528 532.432,-13.9158 541.889,-18.6928 542.804,-11.7528"/>
</g>
<!-- Node11&#45;&gt;Node6 -->
<g id="edge22" class="edge"><title>Node11&#45;&gt;Node6</title>
<path fill="none" stroke="midnightblue" d="M943.526,-58.3619C938.519,-50.5131 931.567,-39.6159 925.594,-30.2527"/>
<polygon fill="midnightblue" stroke="midnightblue" points="928.384,-28.1189 920.055,-21.5707 922.483,-31.8837 928.384,-28.1189"/>
</g>
<!-- Node11&#45;&gt;Node7 -->
<g id="edge26" class="edge"><title>Node11&#45;&gt;Node7</title>
<path fill="none" stroke="midnightblue" d="M968.837,-58.3619C984.213,-49.532 1006.31,-36.844 1023.76,-26.8224"/>
<polygon fill="midnightblue" stroke="midnightblue" points="1025.98,-29.5857 1032.9,-21.5707 1022.49,-23.5154 1025.98,-29.5857"/>
</g>
<!-- Node12&#45;&gt;Node4 -->
<g id="edge34" class="edge"><title>Node12&#45;&gt;Node4</title>
<path fill="none" stroke="midnightblue" d="M809.637,-232.295C793.618,-212.527 759.222,-170.08 739.339,-145.544"/>
<polygon fill="midnightblue" stroke="midnightblue" points="741.981,-143.245 732.966,-137.679 736.542,-147.652 741.981,-143.245"/>
</g>
<!-- Node12&#45;&gt;Node5 -->
<g id="edge48" class="edge"><title>Node12&#45;&gt;Node5</title>
<path fill="none" stroke="midnightblue" d="M817.725,-232.424C815.528,-196.889 806.586,-82.6332 781.312,-58 747.855,-25.3911 607.209,-15.1724 542.787,-12.1673"/>
<polygon fill="midnightblue" stroke="midnightblue" points="542.549,-8.65372 532.407,-11.7152 542.245,-15.6471 542.549,-8.65372"/>
</g>
<!-- Node13 -->
<g id="node31" class="node"><title>Node13</title>
<a xlink:href="SelectionCriterionType_8h.html" target="_top" xlink:title="SelectionCriterionType.h">
<polygon fill="white" stroke="black" points="827.812,-174.5 827.812,-195.5 958.812,-195.5 958.812,-174.5 827.812,-174.5"/>
<text text-anchor="middle" x="893.312" y="-182.5" font-family="Verdana" font-size="10.00">SelectionCriterionType.h</text>
</a>
</g>
<!-- Node12&#45;&gt;Node13 -->
<g id="edge36" class="edge"><title>Node12&#45;&gt;Node13</title>
<path fill="none" stroke="midnightblue" d="M832.068,-232.362C843.063,-223.859 858.685,-211.779 871.398,-201.947"/>
<polygon fill="midnightblue" stroke="midnightblue" points="873.874,-204.457 879.643,-195.571 869.591,-198.919 873.874,-204.457"/>
</g>
<!-- Node16 -->
<g id="node39" class="node"><title>Node16</title>
<polygon fill="white" stroke="#bfbfbf" points="976.312,-174.5 976.312,-195.5 1128.31,-195.5 1128.31,-174.5 976.312,-174.5"/>
<text text-anchor="middle" x="1052.31" y="-182.5" font-family="Verdana" font-size="10.00">SelectionCriterionInterface.h</text>
</g>
<!-- Node12&#45;&gt;Node16 -->
<g id="edge46" class="edge"><title>Node12&#45;&gt;Node16</title>
<path fill="none" stroke="midnightblue" d="M860.688,-232.497C899.827,-222.795 958.088,-208.355 1000.09,-197.945"/>
<polygon fill="midnightblue" stroke="midnightblue" points="1000.99,-201.326 1009.86,-195.523 999.309,-194.532 1000.99,-201.326"/>
</g>
<!-- Node13&#45;&gt;Node4 -->
<g id="edge38" class="edge"><title>Node13&#45;&gt;Node4</title>
<path fill="none" stroke="midnightblue" d="M862.707,-174.497C835.275,-165.082 794.836,-151.204 764.748,-140.877"/>
<polygon fill="midnightblue" stroke="midnightblue" points="765.569,-137.459 754.974,-137.523 763.296,-144.08 765.569,-137.459"/>
</g>
<!-- Node13&#45;&gt;Node5 -->
<g id="edge42" class="edge"><title>Node13&#45;&gt;Node5</title>
<path fill="none" stroke="midnightblue" d="M886.874,-174.108C869.045,-144.021 819.972,-61.7395 814.312,-58 770.113,-28.7983 611.853,-16.6306 542.857,-12.6329"/>
<polygon fill="midnightblue" stroke="midnightblue" points="542.761,-9.12218 532.581,-12.0601 542.371,-16.1113 542.761,-9.12218"/>
</g>
<!-- Node14 -->
<g id="node34" class="node"><title>Node14</title>
<polygon fill="white" stroke="#bfbfbf" points="874.312,-116.5 874.312,-137.5 912.312,-137.5 912.312,-116.5 874.312,-116.5"/>
<text text-anchor="middle" x="893.312" y="-124.5" font-family="Verdana" font-size="10.00">map</text>
</g>
<!-- Node13&#45;&gt;Node14 -->
<g id="edge40" class="edge"><title>Node13&#45;&gt;Node14</title>
<path fill="none" stroke="midnightblue" d="M893.312,-174.362C893.312,-166.922 893.312,-156.743 893.312,-147.728"/>
<polygon fill="midnightblue" stroke="midnightblue" points="896.812,-147.571 893.312,-137.571 889.812,-147.571 896.812,-147.571"/>
</g>
<!-- Node13&#45;&gt;Node15 -->
<g id="edge44" class="edge"><title>Node13&#45;&gt;Node15</title>
<path fill="none" stroke="midnightblue" d="M921.381,-174.497C946.322,-165.164 982.986,-151.445 1010.5,-141.147"/>
<polygon fill="midnightblue" stroke="midnightblue" points="1012.05,-144.306 1020.19,-137.523 1009.6,-137.75 1012.05,-144.306"/>
</g>
<!-- Node17&#45;&gt;Node5 -->
<g id="edge58" class="edge"><title>Node17&#45;&gt;Node5</title>
<path fill="none" stroke="midnightblue" d="M76.1712,-290.435C56.5794,-283.174 33.8367,-271.597 19.312,-254 -0.935917,-229.469 0.311972,-216.808 0.311972,-185 0.311972,-185 0.311972,-185 0.311972,-127 0.311972,-51.1874 83.3319,-78.5296 156.312,-58 271.686,-25.5449 414.677,-15.305 477.785,-12.2362"/>
<polygon fill="midnightblue" stroke="midnightblue" points="478.085,-15.7262 487.915,-11.7727 477.765,-8.73351 478.085,-15.7262"/>
</g>
<!-- Node18 -->
<g id="node44" class="node"><title>Node18</title>
<a xlink:href="XmlElementSerializingContext_8h.html" target="_top" xlink:title="XmlElementSerializingContext.h">
<polygon fill="white" stroke="black" points="28.312,-232.5 28.312,-253.5 198.312,-253.5 198.312,-232.5 28.312,-232.5"/>
<text text-anchor="middle" x="113.312" y="-240.5" font-family="Verdana" font-size="10.00">XmlElementSerializingContext.h</text>
</a>
</g>
<!-- Node17&#45;&gt;Node18 -->
<g id="edge52" class="edge"><title>Node17&#45;&gt;Node18</title>
<path fill="none" stroke="midnightblue" d="M114.129,-290.362C114,-282.922 113.825,-272.743 113.669,-263.728"/>
<polygon fill="midnightblue" stroke="midnightblue" points="117.166,-263.509 113.494,-253.571 110.167,-263.63 117.166,-263.509"/>
</g>
<!-- Node18&#45;&gt;Node5 -->
<g id="edge56" class="edge"><title>Node18&#45;&gt;Node5</title>
<path fill="none" stroke="midnightblue" d="M94.8783,-232.486C75.072,-219.719 47.8751,-197.023 59.312,-174 97.2758,-97.5754 133.799,-91.4327 212.312,-58 259.883,-37.743 411.331,-20.7759 478.131,-14.0732"/>
<polygon fill="midnightblue" stroke="midnightblue" points="478.49,-17.5548 488.097,-13.0866 477.8,-10.5889 478.49,-17.5548"/>
</g>
<!-- Node19 -->
<g id="node46" class="node"><title>Node19</title>
<polygon fill="white" stroke="#bfbfbf" points="68.312,-174.5 68.312,-195.5 198.312,-195.5 198.312,-174.5 68.312,-174.5"/>
<text text-anchor="middle" x="133.312" y="-182.5" font-family="Verdana" font-size="10.00">XmlSerializingContext.h</text>
</g>
<!-- Node18&#45;&gt;Node19 -->
<g id="edge54" class="edge"><title>Node18&#45;&gt;Node19</title>
<path fill="none" stroke="midnightblue" d="M116.98,-232.362C119.602,-224.758 123.211,-214.294 126.369,-205.135"/>
<polygon fill="midnightblue" stroke="midnightblue" points="129.716,-206.165 129.667,-195.571 123.098,-203.883 129.716,-206.165"/>
</g>
<!-- Node20&#45;&gt;Node5 -->
<g id="edge92" class="edge"><title>Node20&#45;&gt;Node5</title>
<path fill="none" stroke="midnightblue" d="M351.877,-348.466C299.87,-334.303 226.312,-303.565 226.312,-243 226.312,-243 226.312,-243 226.312,-127 226.312,-79.3697 265.719,-79.3185 308.312,-58 364.145,-30.0544 437.022,-18.4028 478.235,-13.7934"/>
<polygon fill="midnightblue" stroke="midnightblue" points="478.665,-17.2675 488.246,-12.7436 477.935,-10.3057 478.665,-17.2675"/>
</g>
<!-- Node20&#45;&gt;Node17 -->
<g id="edge62" class="edge"><title>Node20&#45;&gt;Node17</title>
<path fill="none" stroke="midnightblue" d="M350.157,-348.497C301.376,-338.673 228.461,-323.988 176.635,-313.551"/>
<polygon fill="midnightblue" stroke="midnightblue" points="177.059,-310.066 166.564,-311.523 175.677,-316.929 177.059,-310.066"/>
</g>
<!-- Node20&#45;&gt;Node21 -->
<g id="edge64" class="edge"><title>Node20&#45;&gt;Node21</title>
<path fill="none" stroke="midnightblue" d="M460.805,-348.497C515.97,-338.591 598.655,-323.743 656.863,-313.291"/>
<polygon fill="midnightblue" stroke="midnightblue" points="657.485,-316.735 666.709,-311.523 656.248,-309.846 657.485,-316.735"/>
</g>
<!-- Node22 -->
<g id="node57" class="node"><title>Node22</title>
<a xlink:href="SystemClass_8h.html" target="_top" xlink:title="SystemClass.h">
<polygon fill="white" stroke="black" points="358.312,-290.5 358.312,-311.5 446.312,-311.5 446.312,-290.5 358.312,-290.5"/>
<text text-anchor="middle" x="402.312" y="-298.5" font-family="Verdana" font-size="10.00">SystemClass.h</text>
</a>
</g>
<!-- Node20&#45;&gt;Node22 -->
<g id="edge70" class="edge"><title>Node20&#45;&gt;Node22</title>
<path fill="none" stroke="midnightblue" d="M402.312,-348.362C402.312,-340.922 402.312,-330.743 402.312,-321.728"/>
<polygon fill="midnightblue" stroke="midnightblue" points="405.812,-321.571 402.312,-311.571 398.812,-321.571 405.812,-321.571"/>
</g>
<!-- Node21&#45;&gt;Node4 -->
<g id="edge66" class="edge"><title>Node21&#45;&gt;Node4</title>
<path fill="none" stroke="midnightblue" d="M725.251,-290.377C725.09,-262.293 724.649,-185.673 724.434,-148.203"/>
<polygon fill="midnightblue" stroke="midnightblue" points="727.932,-147.907 724.375,-137.928 720.932,-147.948 727.932,-147.907"/>
</g>
<!-- Node21&#45;&gt;Node12 -->
<g id="edge68" class="edge"><title>Node21&#45;&gt;Node12</title>
<path fill="none" stroke="midnightblue" d="M742.37,-290.362C756.397,-281.614 776.496,-269.079 792.494,-259.101"/>
<polygon fill="midnightblue" stroke="midnightblue" points="794.729,-261.832 801.362,-253.571 791.025,-255.893 794.729,-261.832"/>
</g>
<!-- Node22&#45;&gt;Node5 -->
<g id="edge90" class="edge"><title>Node22&#45;&gt;Node5</title>
<path fill="none" stroke="midnightblue" d="M360.291,-290.441C338.632,-283.203 313.104,-271.644 295.312,-254 271.44,-230.327 264.312,-218.62 264.312,-185 264.312,-185 264.312,-185 264.312,-127 264.312,-80.2745 411.34,-36.4652 478.063,-18.9897"/>
<polygon fill="midnightblue" stroke="midnightblue" points="479.238,-22.3012 488.047,-16.4147 477.49,-15.523 479.238,-22.3012"/>
</g>
<!-- Node22&#45;&gt;Node8 -->
<g id="edge88" class="edge"><title>Node22&#45;&gt;Node8</title>
<path fill="none" stroke="midnightblue" d="M408.341,-290.479C413.471,-281.149 420.718,-267.022 425.312,-254 445.691,-196.237 458.626,-124.765 464.178,-89.987"/>
<polygon fill="midnightblue" stroke="midnightblue" points="467.704,-90.0906 465.778,-79.6723 460.786,-89.0177 467.704,-90.0906"/>
</g>
<!-- Node23 -->
<g id="node59" class="node"><title>Node23</title>
<a xlink:href="ConfigurableElement_8h.html" target="_top" xlink:title="ConfigurableElement.h">
<polygon fill="white" stroke="black" points="471.812,-174.5 471.812,-195.5 596.812,-195.5 596.812,-174.5 471.812,-174.5"/>
<text text-anchor="middle" x="534.312" y="-182.5" font-family="Verdana" font-size="10.00">ConfigurableElement.h</text>
</a>
</g>
<!-- Node22&#45;&gt;Node23 -->
<g id="edge72" class="edge"><title>Node22&#45;&gt;Node23</title>
<path fill="none" stroke="midnightblue" d="M415.333,-290.314C426.761,-280.878 443.778,-266.688 458.312,-254 477.908,-236.892 499.866,-216.861 515.122,-202.802"/>
<polygon fill="midnightblue" stroke="midnightblue" points="517.88,-205.019 522.85,-195.662 513.129,-199.877 517.88,-205.019"/>
</g>
<!-- Node24 -->
<g id="node63" class="node"><title>Node24</title>
<a xlink:href="SubsystemPlugins_8h.html" target="_top" xlink:title="SubsystemPlugins.h">
<polygon fill="white" stroke="black" points="303.812,-232.5 303.812,-253.5 416.812,-253.5 416.812,-232.5 303.812,-232.5"/>
<text text-anchor="middle" x="360.312" y="-240.5" font-family="Verdana" font-size="10.00">SubsystemPlugins.h</text>
</a>
</g>
<!-- Node22&#45;&gt;Node24 -->
<g id="edge78" class="edge"><title>Node22&#45;&gt;Node24</title>
<path fill="none" stroke="midnightblue" d="M394.609,-290.362C388.866,-282.431 380.869,-271.389 374.042,-261.961"/>
<polygon fill="midnightblue" stroke="midnightblue" points="376.667,-259.617 367.967,-253.571 370.997,-263.723 376.667,-259.617"/>
</g>
<!-- Node23&#45;&gt;Node4 -->
<g id="edge74" class="edge"><title>Node23&#45;&gt;Node4</title>
<path fill="none" stroke="midnightblue" d="M568.72,-174.497C600.547,-164.781 647.947,-150.311 682.061,-139.898"/>
<polygon fill="midnightblue" stroke="midnightblue" points="683.204,-143.208 691.747,-136.941 681.161,-136.513 683.204,-143.208"/>
</g>
<!-- Node23&#45;&gt;Node8 -->
<g id="edge76" class="edge"><title>Node23&#45;&gt;Node8</title>
<path fill="none" stroke="midnightblue" d="M527.791,-174.214C522.071,-164.714 513.559,-150.486 506.312,-138 496.752,-121.528 486.129,-102.698 478.388,-88.8752"/>
<polygon fill="midnightblue" stroke="midnightblue" points="481.25,-86.8218 473.316,-79.7999 475.139,-90.2367 481.25,-86.8218"/>
</g>
<!-- Node24&#45;&gt;Node5 -->
<g id="edge86" class="edge"><title>Node24&#45;&gt;Node5</title>
<path fill="none" stroke="midnightblue" d="M347.271,-232.281C332.964,-219.133 313.058,-195.888 321.312,-174 345.537,-109.764 369.604,-100.762 423.312,-58 440.31,-44.4664 461.765,-32.8269 479.115,-24.5164"/>
<polygon fill="midnightblue" stroke="midnightblue" points="480.689,-27.6445 488.278,-20.2511 477.735,-21.2984 480.689,-27.6445"/>
</g>
<!-- Node25 -->
<g id="node65" class="node"><title>Node25</title>
<a xlink:href="KindElement_8h.html" target="_top" xlink:title="KindElement.h">
<polygon fill="white" stroke="black" points="330.312,-174.5 330.312,-195.5 416.312,-195.5 416.312,-174.5 330.312,-174.5"/>
<text text-anchor="middle" x="373.312" y="-182.5" font-family="Verdana" font-size="10.00">KindElement.h</text>
</a>
</g>
<!-- Node24&#45;&gt;Node25 -->
<g id="edge80" class="edge"><title>Node24&#45;&gt;Node25</title>
<path fill="none" stroke="midnightblue" d="M362.696,-232.362C364.382,-224.84 366.696,-214.519 368.733,-205.431"/>
<polygon fill="midnightblue" stroke="midnightblue" points="372.171,-206.094 370.943,-195.571 365.34,-204.563 372.171,-206.094"/>
</g>
<!-- Node25&#45;&gt;Node4 -->
<g id="edge82" class="edge"><title>Node25&#45;&gt;Node4</title>
<path fill="none" stroke="midnightblue" d="M416.351,-177.888C483.911,-166.724 614.081,-145.215 681.5,-134.074"/>
<polygon fill="midnightblue" stroke="midnightblue" points="682.074,-137.527 691.37,-132.443 680.933,-130.621 682.074,-137.527"/>
</g>
<!-- Node25&#45;&gt;Node5 -->
<g id="edge84" class="edge"><title>Node25&#45;&gt;Node5</title>
<path fill="none" stroke="midnightblue" d="M377.201,-174.461C386.112,-151.345 409.849,-95.2863 443.312,-58 454.338,-45.7138 469.157,-34.8986 482.054,-26.7499"/>
<polygon fill="midnightblue" stroke="midnightblue" points="483.881,-29.7357 490.606,-21.5492 480.243,-23.7549 483.881,-29.7357"/>
</g>
<!-- Node26&#45;&gt;Node5 -->
<g id="edge100" class="edge"><title>Node26&#45;&gt;Node5</title>
<path fill="none" stroke="midnightblue" d="M1014.25,-59.6652C1011.23,-59.0505 1008.23,-58.4846 1005.31,-58 832.485,-29.2762 622.574,-16.556 543.003,-12.5178"/>
<polygon fill="midnightblue" stroke="midnightblue" points="542.818,-9.00448 532.657,-12.0049 542.472,-15.9959 542.818,-9.00448"/>
</g>
<!-- Node26&#45;&gt;Node7 -->
<g id="edge102" class="edge"><title>Node26&#45;&gt;Node7</title>
<path fill="none" stroke="midnightblue" d="M1051.31,-58.3619C1051.31,-50.9219 1051.31,-40.7427 1051.31,-31.7276"/>
<polygon fill="midnightblue" stroke="midnightblue" points="1054.81,-31.5706 1051.31,-21.5707 1047.81,-31.5707 1054.81,-31.5706"/>
</g>
</g>
</svg>
