<?xml version="1.0" encoding="UTF-8" standalone="no"?>
<!DOCTYPE svg PUBLIC "-//W3C//DTD SVG 1.1//EN"
 "http://www.w3.org/Graphics/SVG/1.1/DTD/svg11.dtd">
<!-- Generated by graphviz version 2.26.3 (20100126.1600)
 -->
<!-- Title: parameter/SelectionCriterionLibrary.cpp Pages: 1 -->
<svg width="670pt" height="334pt"
 viewBox="0.00 0.00 670.00 334.00" xmlns="http://www.w3.org/2000/svg" xmlns:xlink="http://www.w3.org/1999/xlink">
<g id="graph1" class="graph" transform="scale(1 1) rotate(0) translate(4 330)">
<title>parameter/SelectionCriterionLibrary.cpp</title>
<polygon fill="white" stroke="white" points="-4,5 -4,-330 667,-330 667,5 -4,5"/>
<!-- Node1 -->
<g id="node1" class="node"><title>Node1</title>
<polygon fill="#bfbfbf" stroke="black" points="218.5,-291 218.5,-325 373.5,-325 373.5,-291 218.5,-291"/>
<text text-anchor="start" x="226.5" y="-312" font-family="Verdana" font-size="10.00">parameter/SelectionCriterion</text>
<text text-anchor="middle" x="296" y="-299" font-family="Verdana" font-size="10.00">Library.cpp</text>
</g>
<!-- Node2 -->
<g id="node3" class="node"><title>Node2</title>
<a xlink:href="SelectionCriterionLibrary_8h.html" target="_top" xlink:title="SelectionCriterionLibrary.h">
<polygon fill="white" stroke="black" points="225.5,-232.5 225.5,-253.5 366.5,-253.5 366.5,-232.5 225.5,-232.5"/>
<text text-anchor="middle" x="296" y="-240.5" font-family="Verdana" font-size="10.00">SelectionCriterionLibrary.h</text>
</a>
</g>
<!-- Node1&#45;&gt;Node2 -->
<g id="edge2" class="edge"><title>Node1&#45;&gt;Node2</title>
<path fill="none" stroke="midnightblue" d="M296,-290.922C296,-282.67 296,-272.692 296,-263.982"/>
<polygon fill="midnightblue" stroke="midnightblue" points="299.5,-263.852 296,-253.852 292.5,-263.852 299.5,-263.852"/>
</g>
<!-- Node3 -->
<g id="node5" class="node"><title>Node3</title>
<a xlink:href="Element_8h.html" target="_top" xlink:title="Element.h">
<polygon fill="white" stroke="black" points="313.5,-116.5 313.5,-137.5 378.5,-137.5 378.5,-116.5 313.5,-116.5"/>
<text text-anchor="middle" x="346" y="-124.5" font-family="Verdana" font-size="10.00">Element.h</text>
</a>
</g>
<!-- Node2&#45;&gt;Node3 -->
<g id="edge4" class="edge"><title>Node2&#45;&gt;Node3</title>
<path fill="none" stroke="midnightblue" d="M302.525,-232.44C308.138,-223.085 316.22,-208.942 322,-196 329.171,-179.943 335.615,-161.038 340.015,-147.08"/>
<polygon fill="midnightblue" stroke="midnightblue" points="343.367,-148.088 342.96,-137.501 336.676,-146.031 343.367,-148.088"/>
</g>
<!-- Node11 -->
<g id="node24" class="node"><title>Node11</title>
<a xlink:href="SelectionCriterionType_8h.html" target="_top" xlink:title="SelectionCriterionType.h">
<polygon fill="white" stroke="black" points="182.5,-174.5 182.5,-195.5 313.5,-195.5 313.5,-174.5 182.5,-174.5"/>
<text text-anchor="middle" x="248" y="-182.5" font-family="Verdana" font-size="10.00">SelectionCriterionType.h</text>
</a>
</g>
<!-- Node2&#45;&gt;Node11 -->
<g id="edge26" class="edge"><title>Node2&#45;&gt;Node11</title>
<path fill="none" stroke="midnightblue" d="M287.196,-232.362C280.498,-224.268 271.116,-212.932 263.211,-203.38"/>
<polygon fill="midnightblue" stroke="midnightblue" points="265.82,-201.043 256.748,-195.571 260.427,-205.506 265.82,-201.043"/>
</g>
<!-- Node4 -->
<g id="node7" class="node"><title>Node4</title>
<polygon fill="white" stroke="#bfbfbf" points="216,-0.5 216,-21.5 260,-21.5 260,-0.5 216,-0.5"/>
<text text-anchor="middle" x="238" y="-8.5" font-family="Verdana" font-size="10.00">string</text>
</g>
<!-- Node3&#45;&gt;Node4 -->
<g id="edge6" class="edge"><title>Node3&#45;&gt;Node4</title>
<path fill="none" stroke="midnightblue" d="M313.318,-117.09C294.306,-109.734 271.337,-97.8447 257,-80 245.962,-66.2608 241.323,-46.5636 239.38,-31.7288"/>
<polygon fill="midnightblue" stroke="midnightblue" points="242.836,-31.1139 238.359,-21.5115 235.871,-31.8101 242.836,-31.1139"/>
</g>
<!-- Node5 -->
<g id="node9" class="node"><title>Node5</title>
<polygon fill="white" stroke="#bfbfbf" points="523.5,-0.5 523.5,-21.5 570.5,-21.5 570.5,-0.5 523.5,-0.5"/>
<text text-anchor="middle" x="547" y="-8.5" font-family="Verdana" font-size="10.00">vector</text>
</g>
<!-- Node3&#45;&gt;Node5 -->
<g id="edge8" class="edge"><title>Node3&#45;&gt;Node5</title>
<path fill="none" stroke="midnightblue" d="M378.843,-125.691C439.295,-122.517 564.445,-112.134 591,-80 604.611,-63.5296 587.045,-42.5979 570.236,-28.1307"/>
<polygon fill="midnightblue" stroke="midnightblue" points="572.154,-25.1803 562.184,-21.5959 567.743,-30.6154 572.154,-25.1803"/>
</g>
<!-- Node6 -->
<g id="node11" class="node"><title>Node6</title>
<polygon fill="white" stroke="#bfbfbf" points="609.5,-0.5 609.5,-21.5 662.5,-21.5 662.5,-0.5 609.5,-0.5"/>
<text text-anchor="middle" x="636" y="-8.5" font-family="Verdana" font-size="10.00">stdint.h</text>
</g>
<!-- Node3&#45;&gt;Node6 -->
<g id="edge10" class="edge"><title>Node3&#45;&gt;Node6</title>
<path fill="none" stroke="midnightblue" d="M378.859,-124.944C440.911,-120.453 572.239,-107.855 607,-80 621.912,-68.0504 629.262,-47.0594 632.816,-31.3585"/>
<polygon fill="midnightblue" stroke="midnightblue" points="636.259,-31.9919 634.717,-21.5098 629.385,-30.6653 636.259,-31.9919"/>
</g>
<!-- Node7 -->
<g id="node13" class="node"><title>Node7</title>
<polygon fill="white" stroke="#bfbfbf" points="266,-58.5 266,-79.5 296,-79.5 296,-58.5 266,-58.5"/>
<text text-anchor="middle" x="281" y="-66.5" font-family="Verdana" font-size="10.00">list</text>
</g>
<!-- Node3&#45;&gt;Node7 -->
<g id="edge12" class="edge"><title>Node3&#45;&gt;Node7</title>
<path fill="none" stroke="midnightblue" d="M334.078,-116.362C324.641,-107.941 311.27,-96.0105 300.31,-86.2308"/>
<polygon fill="midnightblue" stroke="midnightblue" points="302.638,-83.6171 292.846,-79.5707 297.978,-88.8401 302.638,-83.6171"/>
</g>
<!-- Node8 -->
<g id="node15" class="node"><title>Node8</title>
<polygon fill="white" stroke="#bfbfbf" points="314,-58.5 314,-79.5 378,-79.5 378,-58.5 314,-58.5"/>
<text text-anchor="middle" x="346" y="-66.5" font-family="Verdana" font-size="10.00">XmlSink.h</text>
</g>
<!-- Node3&#45;&gt;Node8 -->
<g id="edge14" class="edge"><title>Node3&#45;&gt;Node8</title>
<path fill="none" stroke="midnightblue" d="M346,-116.362C346,-108.922 346,-98.7427 346,-89.7276"/>
<polygon fill="midnightblue" stroke="midnightblue" points="349.5,-89.5706 346,-79.5707 342.5,-89.5707 349.5,-89.5706"/>
</g>
<!-- Node9 -->
<g id="node17" class="node"><title>Node9</title>
<polygon fill="white" stroke="#bfbfbf" points="395.5,-58.5 395.5,-79.5 472.5,-79.5 472.5,-58.5 395.5,-58.5"/>
<text text-anchor="middle" x="434" y="-66.5" font-family="Verdana" font-size="10.00">XmlSource.h</text>
</g>
<!-- Node3&#45;&gt;Node9 -->
<g id="edge16" class="edge"><title>Node3&#45;&gt;Node9</title>
<path fill="none" stroke="midnightblue" d="M362.141,-116.362C375.414,-107.614 394.432,-95.0786 409.57,-85.1015"/>
<polygon fill="midnightblue" stroke="midnightblue" points="411.538,-87.9962 417.962,-79.5707 407.686,-82.1515 411.538,-87.9962"/>
</g>
<!-- Node10 -->
<g id="node19" class="node"><title>Node10</title>
<a xlink:href="PathNavigator_8h.html" target="_top" xlink:title="PathNavigator.h">
<polygon fill="white" stroke="black" points="490,-58.5 490,-79.5 582,-79.5 582,-58.5 490,-58.5"/>
<text text-anchor="middle" x="536" y="-66.5" font-family="Verdana" font-size="10.00">PathNavigator.h</text>
</a>
</g>
<!-- Node3&#45;&gt;Node10 -->
<g id="edge18" class="edge"><title>Node3&#45;&gt;Node10</title>
<path fill="none" stroke="midnightblue" d="M378.662,-117.029C409.854,-107.508 457.098,-93.0859 491.677,-82.5302"/>
<polygon fill="midnightblue" stroke="midnightblue" points="492.977,-85.7929 501.519,-79.5257 490.933,-79.0979 492.977,-85.7929"/>
</g>
<!-- Node10&#45;&gt;Node4 -->
<g id="edge22" class="edge"><title>Node10&#45;&gt;Node4</title>
<path fill="none" stroke="midnightblue" d="M489.791,-59.7361C486.816,-59.1466 483.866,-58.5638 481,-58 405.509,-43.1504 316.744,-26.081 270.203,-17.1613"/>
<polygon fill="midnightblue" stroke="midnightblue" points="270.602,-13.6742 260.122,-15.2302 269.285,-20.5492 270.602,-13.6742"/>
</g>
<!-- Node10&#45;&gt;Node5 -->
<g id="edge20" class="edge"><title>Node10&#45;&gt;Node5</title>
<path fill="none" stroke="midnightblue" d="M538.018,-58.3619C539.444,-50.8401 541.402,-40.5187 543.125,-31.4308"/>
<polygon fill="midnightblue" stroke="midnightblue" points="546.571,-32.0477 544.995,-21.5707 539.693,-30.7433 546.571,-32.0477"/>
</g>
<!-- Node10&#45;&gt;Node6 -->
<g id="edge24" class="edge"><title>Node10&#45;&gt;Node6</title>
<path fill="none" stroke="midnightblue" d="M554.342,-58.3619C569.566,-49.532 591.441,-36.844 608.72,-26.8224"/>
<polygon fill="midnightblue" stroke="midnightblue" points="610.88,-29.6155 617.775,-21.5707 607.368,-23.5603 610.88,-29.6155"/>
</g>
<!-- Node11&#45;&gt;Node3 -->
<g id="edge28" class="edge"><title>Node11&#45;&gt;Node3</title>
<path fill="none" stroke="midnightblue" d="M265.975,-174.362C280.894,-165.532 302.333,-152.844 319.266,-142.822"/>
<polygon fill="midnightblue" stroke="midnightblue" points="321.316,-145.676 328.139,-137.571 317.751,-139.652 321.316,-145.676"/>
</g>
<!-- Node11&#45;&gt;Node4 -->
<g id="edge32" class="edge"><title>Node11&#45;&gt;Node4</title>
<path fill="none" stroke="midnightblue" d="M239.247,-174.199C232.506,-165.144 223.731,-151.553 220,-138 209.863,-101.179 221.386,-56.6951 230.098,-31.3408"/>
<polygon fill="midnightblue" stroke="midnightblue" points="233.467,-32.3181 233.588,-21.724 226.887,-29.9301 233.467,-32.3181"/>
</g>
<!-- Node12 -->
<g id="node27" class="node"><title>Node12</title>
<polygon fill="white" stroke="#bfbfbf" points="229,-116.5 229,-137.5 267,-137.5 267,-116.5 229,-116.5"/>
<text text-anchor="middle" x="248" y="-124.5" font-family="Verdana" font-size="10.00">map</text>
</g>
<!-- Node11&#45;&gt;Node12 -->
<g id="edge30" class="edge"><title>Node11&#45;&gt;Node12</title>
<path fill="none" stroke="midnightblue" d="M248,-174.362C248,-166.922 248,-156.743 248,-147.728"/>
<polygon fill="midnightblue" stroke="midnightblue" points="251.5,-147.571 248,-137.571 244.5,-147.571 251.5,-147.571"/>
</g>
<!-- Node13 -->
<g id="node30" class="node"><title>Node13</title>
<polygon fill="white" stroke="#bfbfbf" points="-0.5,-116.5 -0.5,-137.5 172.5,-137.5 172.5,-116.5 -0.5,-116.5"/>
<text text-anchor="middle" x="86" y="-124.5" font-family="Verdana" font-size="10.00">SelectionCriterionTypeInterface.h</text>
</g>
<!-- Node11&#45;&gt;Node13 -->
<g id="edge34" class="edge"><title>Node11&#45;&gt;Node13</title>
<path fill="none" stroke="midnightblue" d="M218.663,-174.497C192.481,-165.123 153.94,-151.324 125.137,-141.012"/>
<polygon fill="midnightblue" stroke="midnightblue" points="125.987,-137.599 115.392,-137.523 123.627,-144.189 125.987,-137.599"/>
</g>
</g>
</svg>
