<?xml version="1.0" encoding="UTF-8" standalone="no"?>
<!DOCTYPE svg PUBLIC "-//W3C//DTD SVG 1.1//EN"
 "http://www.w3.org/Graphics/SVG/1.1/DTD/svg11.dtd">
<!-- Generated by graphviz version 2.26.3 (20100126.1600)
 -->
<!-- Title: parameter/SelectionCriteriaDefinition.h Pages: 1 -->
<svg width="684pt" height="334pt"
 viewBox="0.00 0.00 683.93 334.00" xmlns="http://www.w3.org/2000/svg" xmlns:xlink="http://www.w3.org/1999/xlink">
<g id="graph1" class="graph" transform="scale(1 1) rotate(0) translate(4 330)">
<title>parameter/SelectionCriteriaDefinition.h</title>
<polygon fill="white" stroke="white" points="-4,5 -4,-330 680.933,-330 680.933,5 -4,5"/>
<!-- Node1 -->
<g id="node1" class="node"><title>Node1</title>
<polygon fill="#bfbfbf" stroke="black" points="268.433,-291 268.433,-325 417.433,-325 417.433,-291 268.433,-291"/>
<text text-anchor="start" x="276.433" y="-312" font-family="Verdana" font-size="10.00">parameter/SelectionCriteria</text>
<text text-anchor="middle" x="342.933" y="-299" font-family="Verdana" font-size="10.00">Definition.h</text>
</g>
<!-- Node2 -->
<g id="node3" class="node"><title>Node2</title>
<a xlink:href="Element_8h.html" target="_top" xlink:title="Element.h">
<polygon fill="white" stroke="black" points="381.433,-116.5 381.433,-137.5 446.433,-137.5 446.433,-116.5 381.433,-116.5"/>
<text text-anchor="middle" x="413.933" y="-124.5" font-family="Verdana" font-size="10.00">Element.h</text>
</a>
</g>
<!-- Node1&#45;&gt;Node2 -->
<g id="edge2" class="edge"><title>Node1&#45;&gt;Node2</title>
<path fill="none" stroke="midnightblue" d="M349.613,-290.972C362.746,-257.492 391.875,-183.232 405.977,-147.282"/>
<polygon fill="midnightblue" stroke="midnightblue" points="409.291,-148.419 409.684,-137.832 402.774,-145.863 409.291,-148.419"/>
</g>
<!-- Node10 -->
<g id="node22" class="node"><title>Node10</title>
<a xlink:href="SelectionCriterion_8h.html" target="_top" xlink:title="SelectionCriterion.h">
<polygon fill="white" stroke="black" points="220.933,-232.5 220.933,-253.5 330.933,-253.5 330.933,-232.5 220.933,-232.5"/>
<text text-anchor="middle" x="275.933" y="-240.5" font-family="Verdana" font-size="10.00">SelectionCriterion.h</text>
</a>
</g>
<!-- Node1&#45;&gt;Node10 -->
<g id="edge24" class="edge"><title>Node1&#45;&gt;Node10</title>
<path fill="none" stroke="midnightblue" d="M325.33,-290.922C315.785,-281.662 303.998,-270.227 294.333,-260.85"/>
<polygon fill="midnightblue" stroke="midnightblue" points="296.734,-258.303 287.119,-253.852 291.86,-263.327 296.734,-258.303"/>
</g>
<!-- Node3 -->
<g id="node5" class="node"><title>Node3</title>
<polygon fill="white" stroke="#bfbfbf" points="302.933,-0.5 302.933,-21.5 346.933,-21.5 346.933,-0.5 302.933,-0.5"/>
<text text-anchor="middle" x="324.933" y="-8.5" font-family="Verdana" font-size="10.00">string</text>
</g>
<!-- Node2&#45;&gt;Node3 -->
<g id="edge4" class="edge"><title>Node2&#45;&gt;Node3</title>
<path fill="none" stroke="midnightblue" d="M416.916,-116.271C420.265,-101.866 423.907,-76.0049 412.933,-58 400.672,-37.8831 376.597,-25.875 356.724,-19.0381"/>
<polygon fill="midnightblue" stroke="midnightblue" points="357.678,-15.669 347.088,-16.0014 355.574,-22.3454 357.678,-15.669"/>
</g>
<!-- Node4 -->
<g id="node7" class="node"><title>Node4</title>
<polygon fill="white" stroke="#bfbfbf" points="493.433,-0.5 493.433,-21.5 540.433,-21.5 540.433,-0.5 493.433,-0.5"/>
<text text-anchor="middle" x="516.933" y="-8.5" font-family="Verdana" font-size="10.00">vector</text>
</g>
<!-- Node2&#45;&gt;Node4 -->
<g id="edge6" class="edge"><title>Node2&#45;&gt;Node4</title>
<path fill="none" stroke="midnightblue" d="M446.639,-121.151C485.658,-113.429 547.346,-98.6098 560.933,-80 573.461,-62.8421 556.342,-42.1869 539.935,-27.9738"/>
<polygon fill="midnightblue" stroke="midnightblue" points="542.032,-25.1676 532.072,-21.5576 537.607,-30.5914 542.032,-25.1676"/>
</g>
<!-- Node5 -->
<g id="node9" class="node"><title>Node5</title>
<polygon fill="white" stroke="#bfbfbf" points="579.433,-0.5 579.433,-21.5 632.433,-21.5 632.433,-0.5 579.433,-0.5"/>
<text text-anchor="middle" x="605.933" y="-8.5" font-family="Verdana" font-size="10.00">stdint.h</text>
</g>
<!-- Node2&#45;&gt;Node5 -->
<g id="edge8" class="edge"><title>Node2&#45;&gt;Node5</title>
<path fill="none" stroke="midnightblue" d="M446.778,-121.005C488.577,-112.8 557.676,-97.1242 576.933,-80 590.998,-67.4933 598.431,-47.0504 602.234,-31.6556"/>
<polygon fill="midnightblue" stroke="midnightblue" points="605.732,-32.035 604.405,-21.5237 598.887,-30.5686 605.732,-32.035"/>
</g>
<!-- Node6 -->
<g id="node11" class="node"><title>Node6</title>
<polygon fill="white" stroke="#bfbfbf" points="645.933,-58.5 645.933,-79.5 675.933,-79.5 675.933,-58.5 645.933,-58.5"/>
<text text-anchor="middle" x="660.933" y="-66.5" font-family="Verdana" font-size="10.00">list</text>
</g>
<!-- Node2&#45;&gt;Node6 -->
<g id="edge10" class="edge"><title>Node2&#45;&gt;Node6</title>
<path fill="none" stroke="midnightblue" d="M446.45,-121.566C489.391,-114.033 567.144,-99.1537 631.933,-80 633.353,-79.5802 634.803,-79.1236 636.259,-78.6431"/>
<polygon fill="midnightblue" stroke="midnightblue" points="637.49,-81.9201 645.729,-75.2585 635.134,-75.3285 637.49,-81.9201"/>
</g>
<!-- Node7 -->
<g id="node13" class="node"><title>Node7</title>
<polygon fill="white" stroke="#bfbfbf" points="245.933,-58.5 245.933,-79.5 309.933,-79.5 309.933,-58.5 245.933,-58.5"/>
<text text-anchor="middle" x="277.933" y="-66.5" font-family="Verdana" font-size="10.00">XmlSink.h</text>
</g>
<!-- Node2&#45;&gt;Node7 -->
<g id="edge12" class="edge"><title>Node2&#45;&gt;Node7</title>
<path fill="none" stroke="midnightblue" d="M389.305,-116.497C367.776,-107.315 336.293,-93.8889 312.289,-83.6516"/>
<polygon fill="midnightblue" stroke="midnightblue" points="313.41,-80.3247 302.838,-79.6212 310.664,-86.7636 313.41,-80.3247"/>
</g>
<!-- Node8 -->
<g id="node15" class="node"><title>Node8</title>
<polygon fill="white" stroke="#bfbfbf" points="327.433,-58.5 327.433,-79.5 404.433,-79.5 404.433,-58.5 327.433,-58.5"/>
<text text-anchor="middle" x="365.933" y="-66.5" font-family="Verdana" font-size="10.00">XmlSource.h</text>
</g>
<!-- Node2&#45;&gt;Node8 -->
<g id="edge14" class="edge"><title>Node2&#45;&gt;Node8</title>
<path fill="none" stroke="midnightblue" d="M405.129,-116.362C398.431,-108.268 389.049,-96.9318 381.144,-87.3796"/>
<polygon fill="midnightblue" stroke="midnightblue" points="383.754,-85.0431 374.681,-79.5707 378.361,-89.5061 383.754,-85.0431"/>
</g>
<!-- Node9 -->
<g id="node17" class="node"><title>Node9</title>
<a xlink:href="PathNavigator_8h.html" target="_top" xlink:title="PathNavigator.h">
<polygon fill="white" stroke="black" points="459.933,-58.5 459.933,-79.5 551.933,-79.5 551.933,-58.5 459.933,-58.5"/>
<text text-anchor="middle" x="505.933" y="-66.5" font-family="Verdana" font-size="10.00">PathNavigator.h</text>
</a>
</g>
<!-- Node2&#45;&gt;Node9 -->
<g id="edge16" class="edge"><title>Node2&#45;&gt;Node9</title>
<path fill="none" stroke="midnightblue" d="M430.808,-116.362C444.684,-107.614 464.567,-95.0786 480.393,-85.1015"/>
<polygon fill="midnightblue" stroke="midnightblue" points="482.573,-87.8645 489.166,-79.5707 478.84,-81.943 482.573,-87.8645"/>
</g>
<!-- Node9&#45;&gt;Node3 -->
<g id="edge20" class="edge"><title>Node9&#45;&gt;Node3</title>
<path fill="none" stroke="midnightblue" d="M473.156,-58.4966C440.104,-47.9055 389.424,-31.6654 356.727,-21.1881"/>
<polygon fill="midnightblue" stroke="midnightblue" points="357.788,-17.8528 347.197,-18.1342 355.652,-24.5189 357.788,-17.8528"/>
</g>
<!-- Node9&#45;&gt;Node4 -->
<g id="edge18" class="edge"><title>Node9&#45;&gt;Node4</title>
<path fill="none" stroke="midnightblue" d="M507.951,-58.3619C509.377,-50.8401 511.335,-40.5187 513.059,-31.4308"/>
<polygon fill="midnightblue" stroke="midnightblue" points="516.504,-32.0477 514.929,-21.5707 509.626,-30.7433 516.504,-32.0477"/>
</g>
<!-- Node9&#45;&gt;Node5 -->
<g id="edge22" class="edge"><title>Node9&#45;&gt;Node5</title>
<path fill="none" stroke="midnightblue" d="M524.275,-58.3619C539.499,-49.532 561.375,-36.844 578.653,-26.8224"/>
<polygon fill="midnightblue" stroke="midnightblue" points="580.814,-29.6155 587.708,-21.5707 577.302,-23.5603 580.814,-29.6155"/>
</g>
<!-- Node10&#45;&gt;Node2 -->
<g id="edge26" class="edge"><title>Node10&#45;&gt;Node2</title>
<path fill="none" stroke="midnightblue" d="M295.405,-232.481C310.894,-223.689 332.742,-210.317 349.933,-196 368.405,-180.617 386.784,-160.125 399.075,-145.478"/>
<polygon fill="midnightblue" stroke="midnightblue" points="401.9,-147.554 405.563,-137.612 396.5,-143.099 401.9,-147.554"/>
</g>
<!-- Node10&#45;&gt;Node3 -->
<g id="edge40" class="edge"><title>Node10&#45;&gt;Node3</title>
<path fill="none" stroke="midnightblue" d="M220.709,-238.661C157.688,-232.65 59.7347,-219.744 31.9333,-196 3.98052,-172.126 -10.5465,-145.832 10.9333,-116 44.7071,-69.0942 219.199,-31.0854 292.474,-16.9424"/>
<polygon fill="midnightblue" stroke="midnightblue" points="293.353,-20.3382 302.522,-15.0307 292.044,-13.4616 293.353,-20.3382"/>
</g>
<!-- Node11 -->
<g id="node25" class="node"><title>Node11</title>
<a xlink:href="SelectionCriterionType_8h.html" target="_top" xlink:title="SelectionCriterionType.h">
<polygon fill="white" stroke="black" points="210.433,-174.5 210.433,-195.5 341.433,-195.5 341.433,-174.5 210.433,-174.5"/>
<text text-anchor="middle" x="275.933" y="-182.5" font-family="Verdana" font-size="10.00">SelectionCriterionType.h</text>
</a>
</g>
<!-- Node10&#45;&gt;Node11 -->
<g id="edge28" class="edge"><title>Node10&#45;&gt;Node11</title>
<path fill="none" stroke="midnightblue" d="M275.933,-232.362C275.933,-224.922 275.933,-214.743 275.933,-205.728"/>
<polygon fill="midnightblue" stroke="midnightblue" points="279.433,-205.571 275.933,-195.571 272.433,-205.571 279.433,-205.571"/>
</g>
<!-- Node14 -->
<g id="node33" class="node"><title>Node14</title>
<polygon fill="white" stroke="#bfbfbf" points="40.9333,-174.5 40.9333,-195.5 192.933,-195.5 192.933,-174.5 40.9333,-174.5"/>
<text text-anchor="middle" x="116.933" y="-182.5" font-family="Verdana" font-size="10.00">SelectionCriterionInterface.h</text>
</g>
<!-- Node10&#45;&gt;Node14 -->
<g id="edge38" class="edge"><title>Node10&#45;&gt;Node14</title>
<path fill="none" stroke="midnightblue" d="M247.14,-232.497C221.443,-223.123 183.615,-209.324 155.346,-199.012"/>
<polygon fill="midnightblue" stroke="midnightblue" points="156.375,-195.662 145.781,-195.523 153.976,-202.238 156.375,-195.662"/>
</g>
<!-- Node11&#45;&gt;Node2 -->
<g id="edge30" class="edge"><title>Node11&#45;&gt;Node2</title>
<path fill="none" stroke="midnightblue" d="M300.924,-174.497C322.866,-165.275 354.999,-151.769 379.397,-141.515"/>
<polygon fill="midnightblue" stroke="midnightblue" points="380.799,-144.722 388.662,-137.621 378.087,-138.269 380.799,-144.722"/>
</g>
<!-- Node11&#45;&gt;Node3 -->
<g id="edge34" class="edge"><title>Node11&#45;&gt;Node3</title>
<path fill="none" stroke="midnightblue" d="M267.218,-174.428C249.622,-151.72 213.449,-97.1672 236.933,-58 249.048,-37.7948 273.132,-25.7923 293.046,-18.9799"/>
<polygon fill="midnightblue" stroke="midnightblue" points="294.207,-22.2842 302.705,-15.9569 292.116,-15.6037 294.207,-22.2842"/>
</g>
<!-- Node12 -->
<g id="node28" class="node"><title>Node12</title>
<polygon fill="white" stroke="#bfbfbf" points="256.933,-116.5 256.933,-137.5 294.933,-137.5 294.933,-116.5 256.933,-116.5"/>
<text text-anchor="middle" x="275.933" y="-124.5" font-family="Verdana" font-size="10.00">map</text>
</g>
<!-- Node11&#45;&gt;Node12 -->
<g id="edge32" class="edge"><title>Node11&#45;&gt;Node12</title>
<path fill="none" stroke="midnightblue" d="M275.933,-174.362C275.933,-166.922 275.933,-156.743 275.933,-147.728"/>
<polygon fill="midnightblue" stroke="midnightblue" points="279.433,-147.571 275.933,-137.571 272.433,-147.571 279.433,-147.571"/>
</g>
<!-- Node13 -->
<g id="node31" class="node"><title>Node13</title>
<polygon fill="white" stroke="#bfbfbf" points="19.4333,-116.5 19.4333,-137.5 192.433,-137.5 192.433,-116.5 19.4333,-116.5"/>
<text text-anchor="middle" x="105.933" y="-124.5" font-family="Verdana" font-size="10.00">SelectionCriterionTypeInterface.h</text>
</g>
<!-- Node11&#45;&gt;Node13 -->
<g id="edge36" class="edge"><title>Node11&#45;&gt;Node13</title>
<path fill="none" stroke="midnightblue" d="M245.148,-174.497C217.553,-165.082 176.875,-151.204 146.608,-140.877"/>
<polygon fill="midnightblue" stroke="midnightblue" points="147.371,-137.44 136.777,-137.523 145.111,-144.065 147.371,-137.44"/>
</g>
</g>
</svg>
