<?xml version="1.0" encoding="UTF-8" standalone="no"?>
<!DOCTYPE svg PUBLIC "-//W3C//DTD SVG 1.1//EN"
 "http://www.w3.org/Graphics/SVG/1.1/DTD/svg11.dtd">
<!-- Generated by graphviz version 2.26.3 (20100126.1600)
 -->
<!-- Title: parameter/SelectionCriteria.h Pages: 1 -->
<svg width="354pt" height="88pt"
 viewBox="0.00 0.00 354.00 88.00" xmlns="http://www.w3.org/2000/svg" xmlns:xlink="http://www.w3.org/1999/xlink">
<g id="graph1" class="graph" transform="scale(1 1) rotate(0) translate(4 84)">
<title>parameter/SelectionCriteria.h</title>
<polygon fill="white" stroke="white" points="-4,5 -4,-84 351,-84 351,5 -4,5"/>
<!-- Node1 -->
<g id="node1" class="node"><title>Node1</title>
<polygon fill="#bfbfbf" stroke="black" points="91,-58.5 91,-79.5 249,-79.5 249,-58.5 91,-58.5"/>
<text text-anchor="middle" x="170" y="-66.5" font-family="Verdana" font-size="10.00">parameter/SelectionCriteria.h</text>
</g>
<!-- Node2 -->
<g id="node3" class="node"><title>Node2</title>
<a xlink:href="ParameterMgr_8cpp.html" target="_top" xlink:title="parameter/ParameterMgr.cpp">
<polygon fill="white" stroke="black" points="0,-0.5 0,-21.5 158,-21.5 158,-0.5 0,-0.5"/>
<text text-anchor="middle" x="79" y="-8.5" font-family="Verdana" font-size="10.00">parameter/ParameterMgr.cpp</text>
</a>
</g>
<!-- Node1&#45;&gt;Node2 -->
<g id="edge2" class="edge"><title>Node1&#45;&gt;Node2</title>
<path fill="none" stroke="midnightblue" d="M144.616,-52.8215C128.942,-42.8312 109.28,-30.2993 95.585,-21.5707"/>
<polygon fill="midnightblue" stroke="midnightblue" points="142.995,-55.9386 153.309,-58.3619 146.758,-50.0356 142.995,-55.9386"/>
</g>
<!-- Node3 -->
<g id="node5" class="node"><title>Node3</title>
<a xlink:href="SelectionCriteria_8cpp.html" target="_top" xlink:title="parameter/SelectionCriteria.cpp">
<polygon fill="white" stroke="black" points="176,-0.5 176,-21.5 346,-21.5 346,-0.5 176,-0.5"/>
<text text-anchor="middle" x="261" y="-8.5" font-family="Verdana" font-size="10.00">parameter/SelectionCriteria.cpp</text>
</a>
</g>
<!-- Node1&#45;&gt;Node3 -->
<g id="edge4" class="edge"><title>Node1&#45;&gt;Node3</title>
<path fill="none" stroke="midnightblue" d="M195.384,-52.8215C211.058,-42.8312 230.72,-30.2993 244.415,-21.5707"/>
<polygon fill="midnightblue" stroke="midnightblue" points="193.242,-50.0356 186.691,-58.3619 197.005,-55.9386 193.242,-50.0356"/>
</g>
</g>
</svg>
