<?xml version="1.0" encoding="UTF-8" standalone="no"?>
<!DOCTYPE svg PUBLIC "-//W3C//DTD SVG 1.1//EN"
 "http://www.w3.org/Graphics/SVG/1.1/DTD/svg11.dtd">
<!-- Generated by graphviz version 2.26.3 (20100126.1600)
 -->
<!-- Title: parameter/SelectionCriterionRule.h Pages: 1 -->
<svg width="496pt" height="116pt"
 viewBox="0.00 0.00 496.00 116.00" xmlns="http://www.w3.org/2000/svg" xmlns:xlink="http://www.w3.org/1999/xlink">
<g id="graph1" class="graph" transform="scale(1 1) rotate(0) translate(4 112)">
<title>parameter/SelectionCriterionRule.h</title>
<polygon fill="white" stroke="white" points="-4,5 -4,-112 493,-112 493,5 -4,5"/>
<!-- Node1 -->
<g id="node1" class="node"><title>Node1</title>
<polygon fill="#bfbfbf" stroke="black" points="168.5,-73 168.5,-107 323.5,-107 323.5,-73 168.5,-73"/>
<text text-anchor="start" x="176.5" y="-94" font-family="Verdana" font-size="10.00">parameter/SelectionCriterion</text>
<text text-anchor="middle" x="246" y="-81" font-family="Verdana" font-size="10.00">Rule.h</text>
</g>
<!-- Node2 -->
<g id="node3" class="node"><title>Node2</title>
<a xlink:href="ParameterMgr_8cpp.html" target="_top" xlink:title="parameter/ParameterMgr.cpp">
<polygon fill="white" stroke="black" points="0,-7.5 0,-28.5 158,-28.5 158,-7.5 0,-7.5"/>
<text text-anchor="middle" x="79" y="-15.5" font-family="Verdana" font-size="10.00">parameter/ParameterMgr.cpp</text>
</a>
</g>
<!-- Node1&#45;&gt;Node2 -->
<g id="edge2" class="edge"><title>Node1&#45;&gt;Node2</title>
<path fill="none" stroke="midnightblue" d="M197.181,-68.9523C166.54,-55.7418 128.322,-39.2647 103.79,-28.688"/>
<polygon fill="midnightblue" stroke="midnightblue" points="195.855,-72.1919 206.423,-72.937 198.626,-65.7638 195.855,-72.1919"/>
</g>
<!-- Node3 -->
<g id="node5" class="node"><title>Node3</title>
<a xlink:href="RuleParser_8cpp.html" target="_top" xlink:title="parameter/RuleParser.cpp">
<polygon fill="white" stroke="black" points="176,-7.5 176,-28.5 316,-28.5 316,-7.5 176,-7.5"/>
<text text-anchor="middle" x="246" y="-15.5" font-family="Verdana" font-size="10.00">parameter/RuleParser.cpp</text>
</a>
</g>
<!-- Node1&#45;&gt;Node3 -->
<g id="edge4" class="edge"><title>Node1&#45;&gt;Node3</title>
<path fill="none" stroke="midnightblue" d="M246,-62.6667C246,-50.9127 246,-37.8483 246,-28.901"/>
<polygon fill="midnightblue" stroke="midnightblue" points="242.5,-62.937 246,-72.937 249.5,-62.937 242.5,-62.937"/>
</g>
<!-- Node4 -->
<g id="node7" class="node"><title>Node4</title>
<a xlink:href="SelectionCriterionRule_8cpp.html" target="_top" xlink:title="parameter/SelectionCriterion\lRule.cpp">
<polygon fill="white" stroke="black" points="333.5,-1 333.5,-35 488.5,-35 488.5,-1 333.5,-1"/>
<text text-anchor="start" x="341.5" y="-22" font-family="Verdana" font-size="10.00">parameter/SelectionCriterion</text>
<text text-anchor="middle" x="411" y="-9" font-family="Verdana" font-size="10.00">Rule.cpp</text>
</a>
</g>
<!-- Node1&#45;&gt;Node4 -->
<g id="edge6" class="edge"><title>Node1&#45;&gt;Node4</title>
<path fill="none" stroke="midnightblue" d="M294.3,-68.9238C318.993,-58.1485 348.653,-45.2059 371.892,-35.0651"/>
<polygon fill="midnightblue" stroke="midnightblue" points="292.868,-65.7296 285.103,-72.937 295.668,-72.1454 292.868,-65.7296"/>
</g>
</g>
</svg>
