<?xml version="1.0" encoding="UTF-8" standalone="no"?>
<!DOCTYPE svg PUBLIC "-//W3C//DTD SVG 1.1//EN"
 "http://www.w3.org/Graphics/SVG/1.1/DTD/svg11.dtd">
<!-- Generated by graphviz version 2.26.3 (20100126.1600)
 -->
<!-- Title: parameter/SelectionCriterion.h Pages: 1 -->
<svg width="1377pt" height="304pt"
 viewBox="0.00 0.00 1377.00 304.00" xmlns="http://www.w3.org/2000/svg" xmlns:xlink="http://www.w3.org/1999/xlink">
<g id="graph1" class="graph" transform="scale(1 1) rotate(0) translate(4 300)">
<title>parameter/SelectionCriterion.h</title>
<polygon fill="white" stroke="white" points="-4,5 -4,-300 1374,-300 1374,5 -4,5"/>
<!-- Node1 -->
<g id="node1" class="node"><title>Node1</title>
<polygon fill="#bfbfbf" stroke="black" points="876,-274.5 876,-295.5 1040,-295.5 1040,-274.5 876,-274.5"/>
<text text-anchor="middle" x="958" y="-282.5" font-family="Verdana" font-size="10.00">parameter/SelectionCriterion.h</text>
</g>
<!-- Node2 -->
<g id="node3" class="node"><title>Node2</title>
<a xlink:href="SelectionCriteriaDefinition_8h.html" target="_top" xlink:title="parameter/SelectionCriteria\lDefinition.h">
<polygon fill="white" stroke="black" points="806.5,-203 806.5,-237 955.5,-237 955.5,-203 806.5,-203"/>
<text text-anchor="start" x="814.5" y="-224" font-family="Verdana" font-size="10.00">parameter/SelectionCriteria</text>
<text text-anchor="middle" x="881" y="-211" font-family="Verdana" font-size="10.00">Definition.h</text>
</a>
</g>
<!-- Node1&#45;&gt;Node2 -->
<g id="edge2" class="edge"><title>Node1&#45;&gt;Node2</title>
<path fill="none" stroke="midnightblue" d="M937.323,-267.545C926.141,-258.106 912.386,-246.495 901.269,-237.11"/>
<polygon fill="midnightblue" stroke="midnightblue" points="935.386,-270.491 945.285,-274.267 939.901,-265.142 935.386,-270.491"/>
</g>
<!-- Node10 -->
<g id="node21" class="node"><title>Node10</title>
<a xlink:href="SelectionCriterionRule_8cpp.html" target="_top" xlink:title="parameter/SelectionCriterion\lRule.cpp">
<polygon fill="white" stroke="black" points="1087.5,-59 1087.5,-93 1242.5,-93 1242.5,-59 1087.5,-59"/>
<text text-anchor="start" x="1095.5" y="-80" font-family="Verdana" font-size="10.00">parameter/SelectionCriterion</text>
<text text-anchor="middle" x="1165" y="-67" font-family="Verdana" font-size="10.00">Rule.cpp</text>
</a>
</g>
<!-- Node1&#45;&gt;Node10 -->
<g id="edge58" class="edge"><title>Node1&#45;&gt;Node10</title>
<path fill="none" stroke="midnightblue" d="M997.843,-270.726C1041.27,-253.04 1109.42,-218.642 1146,-166 1161.22,-144.099 1164.67,-112.472 1165.23,-93.1289"/>
<polygon fill="midnightblue" stroke="midnightblue" points="996.447,-267.515 988.44,-274.453 999.026,-274.023 996.447,-267.515"/>
</g>
<!-- Node12 -->
<g id="node26" class="node"><title>Node12</title>
<a xlink:href="SelectionCriteriaDefinition_8cpp.html" target="_top" xlink:title="parameter/SelectionCriteria\lDefinition.cpp">
<polygon fill="white" stroke="black" points="988.5,-131 988.5,-165 1137.5,-165 1137.5,-131 988.5,-131"/>
<text text-anchor="start" x="996.5" y="-152" font-family="Verdana" font-size="10.00">parameter/SelectionCriteria</text>
<text text-anchor="middle" x="1063" y="-139" font-family="Verdana" font-size="10.00">Definition.cpp</text>
</a>
</g>
<!-- Node1&#45;&gt;Node12 -->
<g id="edge54" class="edge"><title>Node1&#45;&gt;Node12</title>
<path fill="none" stroke="midnightblue" d="M972.48,-266.107C992.895,-239.47 1029.85,-191.249 1049.64,-165.429"/>
<polygon fill="midnightblue" stroke="midnightblue" points="969.544,-264.184 966.239,-274.25 975.1,-268.442 969.544,-264.184"/>
</g>
<!-- Node13 -->
<g id="node29" class="node"><title>Node13</title>
<a xlink:href="ParameterMgr_8h.html" target="_top" xlink:title="parameter/ParameterMgr.h">
<polygon fill="white" stroke="black" points="305.5,-209.5 305.5,-230.5 452.5,-230.5 452.5,-209.5 305.5,-209.5"/>
<text text-anchor="middle" x="379" y="-217.5" font-family="Verdana" font-size="10.00">parameter/ParameterMgr.h</text>
</a>
</g>
<!-- Node1&#45;&gt;Node13 -->
<g id="edge32" class="edge"><title>Node1&#45;&gt;Node13</title>
<path fill="none" stroke="midnightblue" d="M865.816,-274.651C751.297,-261.795 558.187,-240.116 452.892,-228.295"/>
<polygon fill="midnightblue" stroke="midnightblue" points="865.637,-278.153 875.965,-275.791 866.418,-271.197 865.637,-278.153"/>
</g>
<!-- Node18 -->
<g id="node42" class="node"><title>Node18</title>
<a xlink:href="SelectionCriteria_8h.html" target="_top" xlink:title="parameter/SelectionCriteria.h">
<polygon fill="white" stroke="black" points="555,-209.5 555,-230.5 713,-230.5 713,-209.5 555,-209.5"/>
<text text-anchor="middle" x="634" y="-217.5" font-family="Verdana" font-size="10.00">parameter/SelectionCriteria.h</text>
</a>
</g>
<!-- Node1&#45;&gt;Node18 -->
<g id="edge48" class="edge"><title>Node1&#45;&gt;Node18</title>
<path fill="none" stroke="midnightblue" d="M895.728,-272.507C834.938,-260.312 743.485,-241.964 686.341,-230.501"/>
<polygon fill="midnightblue" stroke="midnightblue" points="895.091,-275.949 905.584,-274.484 896.468,-269.086 895.091,-275.949"/>
</g>
<!-- Node19 -->
<g id="node47" class="node"><title>Node19</title>
<a xlink:href="SelectionCriterion_8cpp.html" target="_top" xlink:title="parameter/SelectionCriterion.cpp">
<polygon fill="white" stroke="black" points="1193,-209.5 1193,-230.5 1369,-230.5 1369,-209.5 1193,-209.5"/>
<text text-anchor="middle" x="1281" y="-217.5" font-family="Verdana" font-size="10.00">parameter/SelectionCriterion.cpp</text>
</a>
</g>
<!-- Node1&#45;&gt;Node19 -->
<g id="edge56" class="edge"><title>Node1&#45;&gt;Node19</title>
<path fill="none" stroke="midnightblue" d="M1020.08,-272.507C1080.68,-260.312 1171.85,-241.964 1228.82,-230.501"/>
<polygon fill="midnightblue" stroke="midnightblue" points="1019.37,-269.08 1010.25,-274.484 1020.75,-275.943 1019.37,-269.08"/>
</g>
<!-- Node3 -->
<g id="node5" class="node"><title>Node3</title>
<a xlink:href="XmlDomainImportContext_8h.html" target="_top" xlink:title="parameter/XmlDomainImport\lContext.h">
<polygon fill="white" stroke="black" points="775,-131 775,-165 933,-165 933,-131 775,-131"/>
<text text-anchor="start" x="783" y="-152" font-family="Verdana" font-size="10.00">parameter/XmlDomainImport</text>
<text text-anchor="middle" x="854" y="-139" font-family="Verdana" font-size="10.00">Context.h</text>
</a>
</g>
<!-- Node2&#45;&gt;Node3 -->
<g id="edge4" class="edge"><title>Node2&#45;&gt;Node3</title>
<path fill="none" stroke="midnightblue" d="M870.993,-193.315C867.502,-184.005 863.676,-173.803 860.54,-165.441"/>
<polygon fill="midnightblue" stroke="midnightblue" points="867.813,-194.803 874.601,-202.937 874.367,-192.345 867.813,-194.803"/>
</g>
<!-- Node8 -->
<g id="node15" class="node"><title>Node8</title>
<a xlink:href="ParameterMgr_8cpp.html" target="_top" xlink:title="parameter/ParameterMgr.cpp">
<polygon fill="white" stroke="black" points="463,-0.5 463,-21.5 621,-21.5 621,-0.5 463,-0.5"/>
<text text-anchor="middle" x="542" y="-8.5" font-family="Verdana" font-size="10.00">parameter/ParameterMgr.cpp</text>
</a>
</g>
<!-- Node2&#45;&gt;Node8 -->
<g id="edge24" class="edge"><title>Node2&#45;&gt;Node8</title>
<path fill="none" stroke="midnightblue" d="M827.073,-198.952C807.119,-190.081 784.797,-178.823 766,-166 746.782,-152.889 748.299,-141.366 728,-130 674.193,-99.8729 643.581,-130.668 594,-94 568.434,-75.0926 552.472,-39.5202 545.725,-21.718"/>
<polygon fill="midnightblue" stroke="midnightblue" points="825.785,-202.209 836.352,-202.984 828.575,-195.789 825.785,-202.209"/>
</g>
<!-- Node2&#45;&gt;Node10 -->
<g id="edge30" class="edge"><title>Node2&#45;&gt;Node10</title>
<path fill="none" stroke="midnightblue" d="M908.386,-196.107C918.96,-186.79 931.112,-175.972 942,-166 959.157,-150.287 959.824,-141.584 980,-130 999.731,-118.672 1050.71,-104.139 1094.17,-93.0046"/>
<polygon fill="midnightblue" stroke="midnightblue" points="905.857,-193.67 900.655,-202.9 910.477,-198.929 905.857,-193.67"/>
</g>
<!-- Node11 -->
<g id="node24" class="node"><title>Node11</title>
<a xlink:href="SelectionCriteria_8cpp.html" target="_top" xlink:title="parameter/SelectionCriteria.cpp">
<polygon fill="white" stroke="black" points="549,-137.5 549,-158.5 719,-158.5 719,-137.5 549,-137.5"/>
<text text-anchor="middle" x="634" y="-145.5" font-family="Verdana" font-size="10.00">parameter/SelectionCriteria.cpp</text>
</a>
</g>
<!-- Node2&#45;&gt;Node11 -->
<g id="edge26" class="edge"><title>Node2&#45;&gt;Node11</title>
<path fill="none" stroke="midnightblue" d="M812.835,-200.13C766.73,-186.691 707.654,-169.47 670.303,-158.582"/>
<polygon fill="midnightblue" stroke="midnightblue" points="811.885,-203.499 822.464,-202.937 813.844,-196.778 811.885,-203.499"/>
</g>
<!-- Node2&#45;&gt;Node12 -->
<g id="edge28" class="edge"><title>Node2&#45;&gt;Node12</title>
<path fill="none" stroke="midnightblue" d="M933.557,-199.208C960.936,-188.377 994.004,-175.295 1019.86,-165.065"/>
<polygon fill="midnightblue" stroke="midnightblue" points="932.143,-196.004 924.131,-202.937 934.718,-202.513 932.143,-196.004"/>
</g>
<!-- Node4 -->
<g id="node7" class="node"><title>Node4</title>
<a xlink:href="ConfigurableDomain_8h.html" target="_top" xlink:title="parameter/ConfigurableDomain.h">
<polygon fill="white" stroke="black" points="855.5,-65.5 855.5,-86.5 1032.5,-86.5 1032.5,-65.5 855.5,-65.5"/>
<text text-anchor="middle" x="944" y="-73.5" font-family="Verdana" font-size="10.00">parameter/ConfigurableDomain.h</text>
</a>
</g>
<!-- Node3&#45;&gt;Node4 -->
<g id="edge6" class="edge"><title>Node3&#45;&gt;Node4</title>
<path fill="none" stroke="midnightblue" d="M883.341,-124.527C899.282,-111.775 918.217,-96.6265 930.64,-86.688"/>
<polygon fill="midnightblue" stroke="midnightblue" points="880.951,-121.957 875.329,-130.937 885.324,-127.423 880.951,-121.957"/>
</g>
<!-- Node5 -->
<g id="node9" class="node"><title>Node5</title>
<a xlink:href="ConfigurableDomain_8cpp.html" target="_top" xlink:title="parameter/ConfigurableDomain.cpp">
<polygon fill="white" stroke="black" points="1059,-0.5 1059,-21.5 1247,-21.5 1247,-0.5 1059,-0.5"/>
<text text-anchor="middle" x="1153" y="-8.5" font-family="Verdana" font-size="10.00">parameter/ConfigurableDomain.cpp</text>
</a>
</g>
<!-- Node3&#45;&gt;Node5 -->
<g id="edge16" class="edge"><title>Node3&#45;&gt;Node5</title>
<path fill="none" stroke="midnightblue" d="M935.947,-128.405C977.336,-117.703 1022.6,-104.527 1041,-94 1061.19,-82.4454 1060.65,-72.3027 1079,-58 1096.77,-44.152 1118.72,-30.607 1134.09,-21.6431"/>
<polygon fill="midnightblue" stroke="midnightblue" points="934.904,-125.059 926.084,-130.928 936.639,-131.84 934.904,-125.059"/>
</g>
<!-- Node3&#45;&gt;Node8 -->
<g id="edge20" class="edge"><title>Node3&#45;&gt;Node8</title>
<path fill="none" stroke="midnightblue" d="M765.19,-130.31C715.65,-119.583 659.506,-105.745 637,-94 632.219,-91.5048 578.539,-43.6991 554.05,-21.7961"/>
<polygon fill="midnightblue" stroke="midnightblue" points="764.486,-133.739 774.998,-132.412 765.953,-126.894 764.486,-133.739"/>
</g>
<!-- Node9 -->
<g id="node18" class="node"><title>Node9</title>
<a xlink:href="DomainConfiguration_8cpp.html" target="_top" xlink:title="parameter/DomainConfiguration.cpp">
<polygon fill="white" stroke="black" points="646,-65.5 646,-86.5 838,-86.5 838,-65.5 646,-65.5"/>
<text text-anchor="middle" x="742" y="-73.5" font-family="Verdana" font-size="10.00">parameter/DomainConfiguration.cpp</text>
</a>
</g>
<!-- Node3&#45;&gt;Node9 -->
<g id="edge18" class="edge"><title>Node3&#45;&gt;Node9</title>
<path fill="none" stroke="midnightblue" d="M818.845,-125.401C798.735,-112.472 774.44,-96.8544 758.626,-86.688"/>
<polygon fill="midnightblue" stroke="midnightblue" points="817.153,-128.474 827.458,-130.937 820.938,-122.585 817.153,-128.474"/>
</g>
<!-- Node3&#45;&gt;Node10 -->
<g id="edge22" class="edge"><title>Node3&#45;&gt;Node10</title>
<path fill="none" stroke="midnightblue" d="M937.456,-128.679C985.495,-117.557 1045.31,-103.709 1091.56,-93.0028"/>
<polygon fill="midnightblue" stroke="midnightblue" points="936.656,-125.272 927.703,-130.937 938.234,-132.091 936.656,-125.272"/>
</g>
<!-- Node4&#45;&gt;Node5 -->
<g id="edge8" class="edge"><title>Node4&#45;&gt;Node5</title>
<path fill="none" stroke="midnightblue" d="M988.073,-62.293C1027.11,-50.1509 1083.3,-32.6774 1118.97,-21.5835"/>
<polygon fill="midnightblue" stroke="midnightblue" points="986.554,-59.1001 978.045,-65.412 988.633,-65.7843 986.554,-59.1001"/>
</g>
<!-- Node6 -->
<g id="node11" class="node"><title>Node6</title>
<a xlink:href="ConfigurableDomains_8cpp.html" target="_top" xlink:title="parameter/ConfigurableDomains.cpp">
<polygon fill="white" stroke="black" points="847,-0.5 847,-21.5 1041,-21.5 1041,-0.5 847,-0.5"/>
<text text-anchor="middle" x="944" y="-8.5" font-family="Verdana" font-size="10.00">parameter/ConfigurableDomains.cpp</text>
</a>
</g>
<!-- Node4&#45;&gt;Node6 -->
<g id="edge10" class="edge"><title>Node4&#45;&gt;Node6</title>
<path fill="none" stroke="midnightblue" d="M944,-55.0142C944,-43.8307 944,-30.5583 944,-21.5337"/>
<polygon fill="midnightblue" stroke="midnightblue" points="940.5,-55.2665 944,-65.2666 947.5,-55.2666 940.5,-55.2665"/>
</g>
<!-- Node7 -->
<g id="node13" class="node"><title>Node7</title>
<a xlink:href="ConfigurableElement_8cpp.html" target="_top" xlink:title="parameter/ConfigurableElement.cpp">
<polygon fill="white" stroke="black" points="638.5,-0.5 638.5,-21.5 829.5,-21.5 829.5,-0.5 638.5,-0.5"/>
<text text-anchor="middle" x="734" y="-8.5" font-family="Verdana" font-size="10.00">parameter/ConfigurableElement.cpp</text>
</a>
</g>
<!-- Node4&#45;&gt;Node7 -->
<g id="edge12" class="edge"><title>Node4&#45;&gt;Node7</title>
<path fill="none" stroke="midnightblue" d="M900.216,-62.4477C860.968,-50.2998 804.187,-32.7246 768.193,-21.5835"/>
<polygon fill="midnightblue" stroke="midnightblue" points="899.205,-65.7986 909.792,-65.412 901.275,-59.1116 899.205,-65.7986"/>
</g>
<!-- Node4&#45;&gt;Node8 -->
<g id="edge14" class="edge"><title>Node4&#45;&gt;Node8</title>
<path fill="none" stroke="midnightblue" d="M878.829,-63.6236C868.201,-61.6867 857.301,-59.7491 847,-58 767.637,-44.5249 676.37,-30.6772 614.51,-21.5361"/>
<polygon fill="midnightblue" stroke="midnightblue" points="878.44,-67.1106 888.908,-65.4743 879.704,-60.2257 878.44,-67.1106"/>
</g>
<!-- Node13&#45;&gt;Node8 -->
<g id="edge36" class="edge"><title>Node13&#45;&gt;Node8</title>
<path fill="none" stroke="midnightblue" d="M398.835,-202.678C409.999,-192.498 423.887,-179.09 435,-166 477.959,-115.397 520.069,-47.5835 535.664,-21.6732"/>
<polygon fill="midnightblue" stroke="midnightblue" points="396.371,-200.187 391.265,-209.47 401.045,-205.397 396.371,-200.187"/>
</g>
<!-- Node14 -->
<g id="node31" class="node"><title>Node14</title>
<a xlink:href="ParameterHandle_8cpp.html" target="_top" xlink:title="parameter/ParameterHandle.cpp">
<polygon fill="white" stroke="black" points="-0.5,-137.5 -0.5,-158.5 174.5,-158.5 174.5,-137.5 -0.5,-137.5"/>
<text text-anchor="middle" x="87" y="-145.5" font-family="Verdana" font-size="10.00">parameter/ParameterHandle.cpp</text>
</a>
</g>
<!-- Node13&#45;&gt;Node14 -->
<g id="edge34" class="edge"><title>Node13&#45;&gt;Node14</title>
<path fill="none" stroke="midnightblue" d="M326.459,-207.045C270.23,-193.18 182.093,-171.448 129.886,-158.575"/>
<polygon fill="midnightblue" stroke="midnightblue" points="325.681,-210.458 336.228,-209.453 327.357,-203.661 325.681,-210.458"/>
</g>
<!-- Node15 -->
<g id="node34" class="node"><title>Node15</title>
<a xlink:href="ParameterMgrFullConnector_8cpp.html" target="_top" xlink:title="parameter/ParameterMgrFull\lConnector.cpp">
<polygon fill="white" stroke="black" points="301,-59 301,-93 455,-93 455,-59 301,-59"/>
<text text-anchor="start" x="309" y="-80" font-family="Verdana" font-size="10.00">parameter/ParameterMgrFull</text>
<text text-anchor="middle" x="378" y="-67" font-family="Verdana" font-size="10.00">Connector.cpp</text>
</a>
</g>
<!-- Node13&#45;&gt;Node15 -->
<g id="edge38" class="edge"><title>Node13&#45;&gt;Node15</title>
<path fill="none" stroke="midnightblue" d="M397.092,-201.805C405.502,-192.057 414.601,-179.33 419,-166 424.014,-150.806 424.104,-145.164 419,-130 414.343,-116.167 404.579,-103.065 395.747,-93.2316"/>
<polygon fill="midnightblue" stroke="midnightblue" points="394.463,-199.493 390.308,-209.239 399.634,-204.211 394.463,-199.493"/>
</g>
<!-- Node16 -->
<g id="node36" class="node"><title>Node16</title>
<a xlink:href="ParameterMgrLogger_8h.html" target="_top" xlink:title="parameter/ParameterMgrLogger.h">
<polygon fill="white" stroke="black" points="230,-137.5 230,-158.5 410,-158.5 410,-137.5 230,-137.5"/>
<text text-anchor="middle" x="320" y="-145.5" font-family="Verdana" font-size="10.00">parameter/ParameterMgrLogger.h</text>
</a>
</g>
<!-- Node13&#45;&gt;Node16 -->
<g id="edge40" class="edge"><title>Node13&#45;&gt;Node16</title>
<path fill="none" stroke="midnightblue" d="M363.909,-201.584C352.768,-187.989 337.993,-169.958 328.741,-158.667"/>
<polygon fill="midnightblue" stroke="midnightblue" points="361.249,-203.86 370.294,-209.376 366.663,-199.423 361.249,-203.86"/>
</g>
<!-- Node17 -->
<g id="node39" class="node"><title>Node17</title>
<a xlink:href="ParameterMgrPlatformConnector_8cpp.html" target="_top" xlink:title="parameter/ParameterMgrPlatform\lConnector.cpp">
<polygon fill="white" stroke="black" points="104.5,-59 104.5,-93 283.5,-93 283.5,-59 104.5,-59"/>
<text text-anchor="start" x="112.5" y="-80" font-family="Verdana" font-size="10.00">parameter/ParameterMgrPlatform</text>
<text text-anchor="middle" x="194" y="-67" font-family="Verdana" font-size="10.00">Connector.cpp</text>
</a>
</g>
<!-- Node13&#45;&gt;Node17 -->
<g id="edge46" class="edge"><title>Node13&#45;&gt;Node17</title>
<path fill="none" stroke="midnightblue" d="M295.591,-207.168C268.711,-199.282 240.787,-186.551 221,-166 201.878,-146.14 196.237,-113.279 194.61,-93.2373"/>
<polygon fill="midnightblue" stroke="midnightblue" points="294.861,-210.596 305.43,-209.859 296.708,-203.845 294.861,-210.596"/>
</g>
<!-- Node16&#45;&gt;Node15 -->
<g id="edge42" class="edge"><title>Node16&#45;&gt;Node15</title>
<path fill="none" stroke="midnightblue" d="M334.917,-129.482C343.956,-118.261 355.406,-104.048 364.23,-93.0944"/>
<polygon fill="midnightblue" stroke="midnightblue" points="332.106,-127.393 328.558,-137.376 337.557,-131.784 332.106,-127.393"/>
</g>
<!-- Node16&#45;&gt;Node17 -->
<g id="edge44" class="edge"><title>Node16&#45;&gt;Node17</title>
<path fill="none" stroke="midnightblue" d="M292.662,-132.378C272.391,-120.795 244.775,-105.014 223.915,-93.0944"/>
<polygon fill="midnightblue" stroke="midnightblue" points="290.989,-135.454 301.408,-137.376 294.462,-129.376 290.989,-135.454"/>
</g>
<!-- Node18&#45;&gt;Node8 -->
<g id="edge50" class="edge"><title>Node18&#45;&gt;Node8</title>
<path fill="none" stroke="midnightblue" d="M588.71,-205.488C570.19,-197.067 550.646,-184.394 540,-166 512.498,-118.485 530.097,-48.2704 538.382,-21.7063"/>
<polygon fill="midnightblue" stroke="midnightblue" points="587.388,-208.729 597.962,-209.399 590.114,-202.282 587.388,-208.729"/>
</g>
<!-- Node18&#45;&gt;Node11 -->
<g id="edge52" class="edge"><title>Node18&#45;&gt;Node11</title>
<path fill="none" stroke="midnightblue" d="M634,-199.235C634,-185.969 634,-169.319 634,-158.667"/>
<polygon fill="midnightblue" stroke="midnightblue" points="630.5,-199.376 634,-209.376 637.5,-199.376 630.5,-199.376"/>
</g>
</g>
</svg>
