<?xml version="1.0" encoding="UTF-8" standalone="no"?>
<!DOCTYPE svg PUBLIC "-//W3C//DTD SVG 1.1//EN"
 "http://www.w3.org/Graphics/SVG/1.1/DTD/svg11.dtd">
<!-- Generated by graphviz version 2.26.3 (20100126.1600)
 -->
<!-- Title: parameter/SelectionCriteria.cpp Pages: 1 -->
<svg width="705pt" height="378pt"
 viewBox="0.00 0.00 705.00 378.00" xmlns="http://www.w3.org/2000/svg" xmlns:xlink="http://www.w3.org/1999/xlink">
<g id="graph1" class="graph" transform="scale(1 1) rotate(0) translate(4 374)">
<title>parameter/SelectionCriteria.cpp</title>
<polygon fill="white" stroke="white" points="-4,5 -4,-374 702,-374 702,5 -4,5"/>
<!-- Node1 -->
<g id="node1" class="node"><title>Node1</title>
<polygon fill="#bfbfbf" stroke="black" points="304,-348.5 304,-369.5 474,-369.5 474,-348.5 304,-348.5"/>
<text text-anchor="middle" x="389" y="-356.5" font-family="Verdana" font-size="10.00">parameter/SelectionCriteria.cpp</text>
</g>
<!-- Node2 -->
<g id="node3" class="node"><title>Node2</title>
<a xlink:href="SelectionCriteria_8h.html" target="_top" xlink:title="SelectionCriteria.h">
<polygon fill="white" stroke="black" points="160,-290.5 160,-311.5 264,-311.5 264,-290.5 160,-290.5"/>
<text text-anchor="middle" x="212" y="-298.5" font-family="Verdana" font-size="10.00">SelectionCriteria.h</text>
</a>
</g>
<!-- Node1&#45;&gt;Node2 -->
<g id="edge2" class="edge"><title>Node1&#45;&gt;Node2</title>
<path fill="none" stroke="midnightblue" d="M356.947,-348.497C328.091,-339.041 285.494,-325.083 253.939,-314.743"/>
<polygon fill="midnightblue" stroke="midnightblue" points="254.706,-311.311 244.113,-311.523 252.526,-317.963 254.706,-311.311"/>
</g>
<!-- Node16 -->
<g id="node41" class="node"><title>Node16</title>
<a xlink:href="SelectionCriterionLibrary_8h.html" target="_top" xlink:title="SelectionCriterionLibrary.h">
<polygon fill="white" stroke="black" points="397.5,-232.5 397.5,-253.5 538.5,-253.5 538.5,-232.5 397.5,-232.5"/>
<text text-anchor="middle" x="468" y="-240.5" font-family="Verdana" font-size="10.00">SelectionCriterionLibrary.h</text>
</a>
</g>
<!-- Node1&#45;&gt;Node16 -->
<g id="edge50" class="edge"><title>Node1&#45;&gt;Node16</title>
<path fill="none" stroke="midnightblue" d="M389.856,-348.329C391.444,-333.989 395.879,-308.201 408,-290 416.241,-277.625 428.806,-267.059 440.312,-259.098"/>
<polygon fill="midnightblue" stroke="midnightblue" points="442.366,-261.937 448.815,-253.531 438.532,-256.08 442.366,-261.937"/>
</g>
<!-- Node17 -->
<g id="node45" class="node"><title>Node17</title>
<a xlink:href="SelectionCriteriaDefinition_8h.html" target="_top" xlink:title="SelectionCriteriaDefinition.h">
<polygon fill="white" stroke="black" points="416.5,-290.5 416.5,-311.5 565.5,-311.5 565.5,-290.5 416.5,-290.5"/>
<text text-anchor="middle" x="491" y="-298.5" font-family="Verdana" font-size="10.00">SelectionCriteriaDefinition.h</text>
</a>
</g>
<!-- Node1&#45;&gt;Node17 -->
<g id="edge56" class="edge"><title>Node1&#45;&gt;Node17</title>
<path fill="none" stroke="midnightblue" d="M407.708,-348.362C423.381,-339.45 445.964,-326.609 463.663,-316.545"/>
<polygon fill="midnightblue" stroke="midnightblue" points="465.447,-319.556 472.41,-311.571 461.987,-313.471 465.447,-319.556"/>
</g>
<!-- Node3 -->
<g id="node5" class="node"><title>Node3</title>
<polygon fill="white" stroke="#bfbfbf" points="288,-58.5 288,-79.5 318,-79.5 318,-58.5 288,-58.5"/>
<text text-anchor="middle" x="303" y="-66.5" font-family="Verdana" font-size="10.00">list</text>
</g>
<!-- Node2&#45;&gt;Node3 -->
<g id="edge4" class="edge"><title>Node2&#45;&gt;Node3</title>
<path fill="none" stroke="midnightblue" d="M192.016,-290.325C164.178,-274.173 114.907,-240.614 95,-196 80.5116,-163.53 72.8013,-143.774 95,-116 117.664,-87.6429 227.668,-75.1505 277.896,-70.8574"/>
<polygon fill="midnightblue" stroke="midnightblue" points="278.246,-74.3406 287.929,-70.0418 277.679,-67.3637 278.246,-74.3406"/>
</g>
<!-- Node4 -->
<g id="node7" class="node"><title>Node4</title>
<a xlink:href="Element_8h.html" target="_top" xlink:title="Element.h">
<polygon fill="white" stroke="black" points="456.5,-116.5 456.5,-137.5 521.5,-137.5 521.5,-116.5 456.5,-116.5"/>
<text text-anchor="middle" x="489" y="-124.5" font-family="Verdana" font-size="10.00">Element.h</text>
</a>
</g>
<!-- Node2&#45;&gt;Node4 -->
<g id="edge6" class="edge"><title>Node2&#45;&gt;Node4</title>
<path fill="none" stroke="midnightblue" d="M214.616,-290.146C221.18,-265.367 240.777,-204.43 281,-174 306.603,-154.63 392.985,-139.934 446.04,-132.468"/>
<polygon fill="midnightblue" stroke="midnightblue" points="446.75,-135.904 456.179,-131.073 445.795,-128.969 446.75,-135.904"/>
</g>
<!-- Node5 -->
<g id="node9" class="node"><title>Node5</title>
<polygon fill="white" stroke="#bfbfbf" points="238,-0.5 238,-21.5 282,-21.5 282,-0.5 238,-0.5"/>
<text text-anchor="middle" x="260" y="-8.5" font-family="Verdana" font-size="10.00">string</text>
</g>
<!-- Node2&#45;&gt;Node5 -->
<g id="edge48" class="edge"><title>Node2&#45;&gt;Node5</title>
<path fill="none" stroke="midnightblue" d="M159.867,-295.259C97.0962,-285.119 0,-257.687 0,-185 0,-185 0,-185 0,-127 0,-77.6351 158.289,-34.6838 227.854,-18.1911"/>
<polygon fill="midnightblue" stroke="midnightblue" points="228.889,-21.5436 237.833,-15.863 227.299,-14.7267 228.889,-21.5436"/>
</g>
<!-- Node11 -->
<g id="node25" class="node"><title>Node11</title>
<a xlink:href="SelectionCriterionType_8h.html" target="_top" xlink:title="SelectionCriterionType.h">
<polygon fill="white" stroke="black" points="103.5,-174.5 103.5,-195.5 234.5,-195.5 234.5,-174.5 103.5,-174.5"/>
<text text-anchor="middle" x="169" y="-182.5" font-family="Verdana" font-size="10.00">SelectionCriterionType.h</text>
</a>
</g>
<!-- Node2&#45;&gt;Node11 -->
<g id="edge28" class="edge"><title>Node2&#45;&gt;Node11</title>
<path fill="none" stroke="midnightblue" d="M208.032,-290.295C200.864,-270.959 185.652,-229.923 176.479,-205.177"/>
<polygon fill="midnightblue" stroke="midnightblue" points="179.716,-203.839 172.959,-195.679 173.153,-206.272 179.716,-203.839"/>
</g>
<!-- Node14 -->
<g id="node33" class="node"><title>Node14</title>
<a xlink:href="SelectionCriterion_8h.html" target="_top" xlink:title="SelectionCriterion.h">
<polygon fill="white" stroke="black" points="270,-232.5 270,-253.5 380,-253.5 380,-232.5 270,-232.5"/>
<text text-anchor="middle" x="325" y="-240.5" font-family="Verdana" font-size="10.00">SelectionCriterion.h</text>
</a>
</g>
<!-- Node2&#45;&gt;Node14 -->
<g id="edge38" class="edge"><title>Node2&#45;&gt;Node14</title>
<path fill="none" stroke="midnightblue" d="M232.463,-290.497C250.033,-281.479 275.582,-268.365 295.385,-258.201"/>
<polygon fill="midnightblue" stroke="midnightblue" points="297.009,-261.301 304.307,-253.621 293.812,-255.074 297.009,-261.301"/>
</g>
<!-- Node4&#45;&gt;Node3 -->
<g id="edge14" class="edge"><title>Node4&#45;&gt;Node3</title>
<path fill="none" stroke="midnightblue" d="M456.269,-119.02C425.22,-111.119 377.179,-98.0406 327.678,-79.8972"/>
<polygon fill="midnightblue" stroke="midnightblue" points="328.686,-76.5377 318.093,-76.3261 326.242,-83.0972 328.686,-76.5377"/>
</g>
<!-- Node4&#45;&gt;Node5 -->
<g id="edge8" class="edge"><title>Node4&#45;&gt;Node5</title>
<path fill="none" stroke="midnightblue" d="M495.964,-116.361C504.67,-101.585 516.847,-74.7821 503,-58 476.621,-26.0303 352.003,-15.5535 292.189,-12.3315"/>
<polygon fill="midnightblue" stroke="midnightblue" points="292.314,-8.83345 282.151,-11.8265 291.963,-15.8246 292.314,-8.83345"/>
</g>
<!-- Node6 -->
<g id="node11" class="node"><title>Node6</title>
<polygon fill="white" stroke="#bfbfbf" points="558.5,-0.5 558.5,-21.5 605.5,-21.5 605.5,-0.5 558.5,-0.5"/>
<text text-anchor="middle" x="582" y="-8.5" font-family="Verdana" font-size="10.00">vector</text>
</g>
<!-- Node4&#45;&gt;Node6 -->
<g id="edge10" class="edge"><title>Node4&#45;&gt;Node6</title>
<path fill="none" stroke="midnightblue" d="M500.857,-116.384C510.776,-107.222 525.026,-93.3861 536,-80 548.904,-64.2594 561.585,-44.8608 570.353,-30.645"/>
<polygon fill="midnightblue" stroke="midnightblue" points="573.561,-32.1055 575.753,-21.7399 567.575,-28.4758 573.561,-32.1055"/>
</g>
<!-- Node7 -->
<g id="node13" class="node"><title>Node7</title>
<polygon fill="white" stroke="#bfbfbf" points="644.5,-0.5 644.5,-21.5 697.5,-21.5 697.5,-0.5 644.5,-0.5"/>
<text text-anchor="middle" x="671" y="-8.5" font-family="Verdana" font-size="10.00">stdint.h</text>
</g>
<!-- Node4&#45;&gt;Node7 -->
<g id="edge12" class="edge"><title>Node4&#45;&gt;Node7</title>
<path fill="none" stroke="midnightblue" d="M521.891,-124.127C573.189,-118.89 668.512,-105.861 689,-80 700.225,-65.8309 692.79,-45.3777 684.328,-30.4185"/>
<polygon fill="midnightblue" stroke="midnightblue" points="687.047,-28.1611 678.806,-21.5028 681.096,-31.8471 687.047,-28.1611"/>
</g>
<!-- Node8 -->
<g id="node16" class="node"><title>Node8</title>
<polygon fill="white" stroke="#bfbfbf" points="336,-58.5 336,-79.5 400,-79.5 400,-58.5 336,-58.5"/>
<text text-anchor="middle" x="368" y="-66.5" font-family="Verdana" font-size="10.00">XmlSink.h</text>
</g>
<!-- Node4&#45;&gt;Node8 -->
<g id="edge16" class="edge"><title>Node4&#45;&gt;Node8</title>
<path fill="none" stroke="midnightblue" d="M467.088,-116.497C448.189,-107.438 420.669,-94.2462 399.424,-84.0628"/>
<polygon fill="midnightblue" stroke="midnightblue" points="400.689,-80.7876 390.158,-79.6212 397.663,-87.0999 400.689,-80.7876"/>
</g>
<!-- Node9 -->
<g id="node18" class="node"><title>Node9</title>
<polygon fill="white" stroke="#bfbfbf" points="417.5,-58.5 417.5,-79.5 494.5,-79.5 494.5,-58.5 417.5,-58.5"/>
<text text-anchor="middle" x="456" y="-66.5" font-family="Verdana" font-size="10.00">XmlSource.h</text>
</g>
<!-- Node4&#45;&gt;Node9 -->
<g id="edge18" class="edge"><title>Node4&#45;&gt;Node9</title>
<path fill="none" stroke="midnightblue" d="M482.947,-116.362C478.528,-108.595 472.41,-97.8426 467.121,-88.5458"/>
<polygon fill="midnightblue" stroke="midnightblue" points="470.002,-86.5315 462.014,-79.5707 463.918,-89.9932 470.002,-86.5315"/>
</g>
<!-- Node10 -->
<g id="node20" class="node"><title>Node10</title>
<a xlink:href="PathNavigator_8h.html" target="_top" xlink:title="PathNavigator.h">
<polygon fill="white" stroke="black" points="588,-58.5 588,-79.5 680,-79.5 680,-58.5 588,-58.5"/>
<text text-anchor="middle" x="634" y="-66.5" font-family="Verdana" font-size="10.00">PathNavigator.h</text>
</a>
</g>
<!-- Node4&#45;&gt;Node10 -->
<g id="edge20" class="edge"><title>Node4&#45;&gt;Node10</title>
<path fill="none" stroke="midnightblue" d="M515.258,-116.497C538.416,-107.234 572.375,-93.6499 598.052,-83.3793"/>
<polygon fill="midnightblue" stroke="midnightblue" points="599.462,-86.5849 607.447,-79.6212 596.862,-80.0855 599.462,-86.5849"/>
</g>
<!-- Node10&#45;&gt;Node5 -->
<g id="edge24" class="edge"><title>Node10&#45;&gt;Node5</title>
<path fill="none" stroke="midnightblue" d="M587.765,-61.8299C510.936,-49.9152 358.861,-26.3314 292.381,-16.0217"/>
<polygon fill="midnightblue" stroke="midnightblue" points="292.52,-12.5015 282.102,-14.4276 291.447,-19.4188 292.52,-12.5015"/>
</g>
<!-- Node10&#45;&gt;Node6 -->
<g id="edge22" class="edge"><title>Node10&#45;&gt;Node6</title>
<path fill="none" stroke="midnightblue" d="M624.462,-58.3619C617.132,-50.1861 606.837,-38.7025 598.219,-29.0907"/>
<polygon fill="midnightblue" stroke="midnightblue" points="600.759,-26.68 591.477,-21.5707 595.547,-31.3528 600.759,-26.68"/>
</g>
<!-- Node10&#45;&gt;Node7 -->
<g id="edge26" class="edge"><title>Node10&#45;&gt;Node7</title>
<path fill="none" stroke="midnightblue" d="M640.786,-58.3619C645.793,-50.5131 652.745,-39.6159 658.718,-30.2527"/>
<polygon fill="midnightblue" stroke="midnightblue" points="661.829,-31.8837 664.257,-21.5707 655.928,-28.1189 661.829,-31.8837"/>
</g>
<!-- Node11&#45;&gt;Node4 -->
<g id="edge30" class="edge"><title>Node11&#45;&gt;Node4</title>
<path fill="none" stroke="midnightblue" d="M226.95,-174.497C290.193,-163.034 389.947,-144.953 446.384,-134.724"/>
<polygon fill="midnightblue" stroke="midnightblue" points="447.184,-138.136 456.399,-132.909 445.935,-131.249 447.184,-138.136"/>
</g>
<!-- Node11&#45;&gt;Node5 -->
<g id="edge34" class="edge"><title>Node11&#45;&gt;Node5</title>
<path fill="none" stroke="midnightblue" d="M234.842,-175.404C277.643,-167.665 327.851,-155.224 341,-138 372.158,-97.1852 289.416,-93.5128 279,-80 268.361,-66.1985 263.677,-46.8096 261.615,-32.0978"/>
<polygon fill="midnightblue" stroke="midnightblue" points="265.069,-31.486 260.495,-21.9293 258.111,-32.2524 265.069,-31.486"/>
</g>
<!-- Node12 -->
<g id="node28" class="node"><title>Node12</title>
<polygon fill="white" stroke="#bfbfbf" points="104,-116.5 104,-137.5 142,-137.5 142,-116.5 104,-116.5"/>
<text text-anchor="middle" x="123" y="-124.5" font-family="Verdana" font-size="10.00">map</text>
</g>
<!-- Node11&#45;&gt;Node12 -->
<g id="edge32" class="edge"><title>Node11&#45;&gt;Node12</title>
<path fill="none" stroke="midnightblue" d="M160.563,-174.362C154.208,-166.35 145.334,-155.161 137.807,-145.67"/>
<polygon fill="midnightblue" stroke="midnightblue" points="140.34,-143.231 131.384,-137.571 134.855,-147.581 140.34,-143.231"/>
</g>
<!-- Node13 -->
<g id="node31" class="node"><title>Node13</title>
<polygon fill="white" stroke="#bfbfbf" points="159.5,-116.5 159.5,-137.5 332.5,-137.5 332.5,-116.5 159.5,-116.5"/>
<text text-anchor="middle" x="246" y="-124.5" font-family="Verdana" font-size="10.00">SelectionCriterionTypeInterface.h</text>
</g>
<!-- Node11&#45;&gt;Node13 -->
<g id="edge36" class="edge"><title>Node11&#45;&gt;Node13</title>
<path fill="none" stroke="midnightblue" d="M183.123,-174.362C194.52,-165.777 210.758,-153.546 223.878,-143.664"/>
<polygon fill="midnightblue" stroke="midnightblue" points="226.085,-146.383 231.967,-137.571 221.873,-140.792 226.085,-146.383"/>
</g>
<!-- Node14&#45;&gt;Node4 -->
<g id="edge40" class="edge"><title>Node14&#45;&gt;Node4</title>
<path fill="none" stroke="midnightblue" d="M377.189,-232.447C401.748,-225.396 430.147,-214.004 451,-196 466.055,-183.002 476.269,-162.503 482.283,-147.22"/>
<polygon fill="midnightblue" stroke="midnightblue" points="485.642,-148.224 485.783,-137.63 479.067,-145.824 485.642,-148.224"/>
</g>
<!-- Node14&#45;&gt;Node5 -->
<g id="edge46" class="edge"><title>Node14&#45;&gt;Node5</title>
<path fill="none" stroke="midnightblue" d="M269.826,-239.558C208.937,-234.474 116.649,-222.521 95,-196 72.5156,-168.456 77.8903,-147.168 95,-116 123.258,-64.5238 188.64,-34.6778 228.09,-20.73"/>
<polygon fill="midnightblue" stroke="midnightblue" points="229.418,-23.9753 237.761,-17.4452 227.167,-17.3472 229.418,-23.9753"/>
</g>
<!-- Node14&#45;&gt;Node11 -->
<g id="edge42" class="edge"><title>Node14&#45;&gt;Node11</title>
<path fill="none" stroke="midnightblue" d="M296.75,-232.497C271.538,-223.123 234.424,-209.324 206.688,-199.012"/>
<polygon fill="midnightblue" stroke="midnightblue" points="207.896,-195.727 197.303,-195.523 205.457,-202.289 207.896,-195.727"/>
</g>
<!-- Node15 -->
<g id="node37" class="node"><title>Node15</title>
<polygon fill="white" stroke="#bfbfbf" points="290,-174.5 290,-195.5 442,-195.5 442,-174.5 290,-174.5"/>
<text text-anchor="middle" x="366" y="-182.5" font-family="Verdana" font-size="10.00">SelectionCriterionInterface.h</text>
</g>
<!-- Node14&#45;&gt;Node15 -->
<g id="edge44" class="edge"><title>Node14&#45;&gt;Node15</title>
<path fill="none" stroke="midnightblue" d="M332.52,-232.362C338.126,-224.431 345.932,-213.389 352.597,-203.961"/>
<polygon fill="midnightblue" stroke="midnightblue" points="355.613,-205.757 358.528,-195.571 349.897,-201.716 355.613,-205.757"/>
</g>
<!-- Node16&#45;&gt;Node4 -->
<g id="edge52" class="edge"><title>Node16&#45;&gt;Node4</title>
<path fill="none" stroke="midnightblue" d="M472.486,-232.389C476.242,-223.002 481.394,-208.84 484,-196 487.21,-180.183 488.428,-161.96 488.86,-148.214"/>
<polygon fill="midnightblue" stroke="midnightblue" points="492.366,-147.94 489.065,-137.872 485.368,-147.801 492.366,-147.94"/>
</g>
<!-- Node16&#45;&gt;Node11 -->
<g id="edge54" class="edge"><title>Node16&#45;&gt;Node11</title>
<path fill="none" stroke="midnightblue" d="M413.853,-232.497C363.104,-222.652 287.194,-207.927 233.367,-197.486"/>
<polygon fill="midnightblue" stroke="midnightblue" points="233.732,-193.991 223.248,-195.523 232.399,-200.863 233.732,-193.991"/>
</g>
<!-- Node17&#45;&gt;Node4 -->
<g id="edge58" class="edge"><title>Node17&#45;&gt;Node4</title>
<path fill="none" stroke="midnightblue" d="M511.008,-290.367C523.904,-282.293 539.598,-269.875 547,-254 551.132,-245.138 549.441,-241.468 547,-232 538.568,-199.298 517.546,-165.894 503.267,-145.799"/>
<polygon fill="midnightblue" stroke="midnightblue" points="505.972,-143.569 497.25,-137.553 500.317,-147.695 505.972,-143.569"/>
</g>
<!-- Node17&#45;&gt;Node14 -->
<g id="edge60" class="edge"><title>Node17&#45;&gt;Node14</title>
<path fill="none" stroke="midnightblue" d="M460.939,-290.497C433.993,-281.082 394.272,-267.204 364.718,-256.877"/>
<polygon fill="midnightblue" stroke="midnightblue" points="365.713,-253.517 355.118,-253.523 363.404,-260.126 365.713,-253.517"/>
</g>
</g>
</svg>
