<?xml version="1.0" encoding="UTF-8" standalone="no"?>
<!DOCTYPE svg PUBLIC "-//W3C//DTD SVG 1.1//EN"
 "http://www.w3.org/Graphics/SVG/1.1/DTD/svg11.dtd">
<!-- Generated by graphviz version 2.26.3 (20100126.1600)
 -->
<!-- Title: parameter/SelectionCriteriaDefinition.cpp Pages: 1 -->
<svg width="685pt" height="392pt"
 viewBox="0.00 0.00 684.76 392.00" xmlns="http://www.w3.org/2000/svg" xmlns:xlink="http://www.w3.org/1999/xlink">
<g id="graph1" class="graph" transform="scale(1 1) rotate(0) translate(4 388)">
<title>parameter/SelectionCriteriaDefinition.cpp</title>
<polygon fill="white" stroke="white" points="-4,5 -4,-388 681.757,-388 681.757,5 -4,5"/>
<!-- Node1 -->
<g id="node1" class="node"><title>Node1</title>
<polygon fill="#bfbfbf" stroke="black" points="248.257,-349 248.257,-383 397.257,-383 397.257,-349 248.257,-349"/>
<text text-anchor="start" x="256.257" y="-370" font-family="Verdana" font-size="10.00">parameter/SelectionCriteria</text>
<text text-anchor="middle" x="322.757" y="-357" font-family="Verdana" font-size="10.00">Definition.cpp</text>
</g>
<!-- Node2 -->
<g id="node3" class="node"><title>Node2</title>
<a xlink:href="SelectionCriteriaDefinition_8h.html" target="_top" xlink:title="SelectionCriteriaDefinition.h">
<polygon fill="white" stroke="black" points="299.257,-290.5 299.257,-311.5 448.257,-311.5 448.257,-290.5 299.257,-290.5"/>
<text text-anchor="middle" x="373.757" y="-298.5" font-family="Verdana" font-size="10.00">SelectionCriteriaDefinition.h</text>
</a>
</g>
<!-- Node1&#45;&gt;Node2 -->
<g id="edge2" class="edge"><title>Node1&#45;&gt;Node2</title>
<path fill="none" stroke="midnightblue" d="M336.157,-348.922C343.135,-340.029 351.686,-329.13 358.87,-319.974"/>
<polygon fill="midnightblue" stroke="midnightblue" points="361.823,-321.88 365.242,-311.852 356.316,-317.559 361.823,-321.88"/>
</g>
<!-- Node11 -->
<g id="node24" class="node"><title>Node11</title>
<a xlink:href="SelectionCriterion_8h.html" target="_top" xlink:title="SelectionCriterion.h">
<polygon fill="white" stroke="black" points="216.757,-232.5 216.757,-253.5 326.757,-253.5 326.757,-232.5 216.757,-232.5"/>
<text text-anchor="middle" x="271.757" y="-240.5" font-family="Verdana" font-size="10.00">SelectionCriterion.h</text>
</a>
</g>
<!-- Node1&#45;&gt;Node11 -->
<g id="edge44" class="edge"><title>Node1&#45;&gt;Node11</title>
<path fill="none" stroke="midnightblue" d="M310.849,-348.628C304.212,-338.338 296.212,-324.838 290.757,-312 284.085,-296.3 279.105,-277.593 275.92,-263.621"/>
<polygon fill="midnightblue" stroke="midnightblue" points="279.284,-262.615 273.754,-253.579 272.441,-264.092 279.284,-262.615"/>
</g>
<!-- Node3 -->
<g id="node5" class="node"><title>Node3</title>
<a xlink:href="Element_8h.html" target="_top" xlink:title="Element.h">
<polygon fill="white" stroke="black" points="399.257,-116.5 399.257,-137.5 464.257,-137.5 464.257,-116.5 399.257,-116.5"/>
<text text-anchor="middle" x="431.757" y="-124.5" font-family="Verdana" font-size="10.00">Element.h</text>
</a>
</g>
<!-- Node2&#45;&gt;Node3 -->
<g id="edge4" class="edge"><title>Node2&#45;&gt;Node3</title>
<path fill="none" stroke="midnightblue" d="M377.298,-290.377C386.7,-262.172 412.42,-185.012 424.85,-147.72"/>
<polygon fill="midnightblue" stroke="midnightblue" points="428.272,-148.521 428.114,-137.928 421.632,-146.308 428.272,-148.521"/>
</g>
<!-- Node2&#45;&gt;Node11 -->
<g id="edge26" class="edge"><title>Node2&#45;&gt;Node11</title>
<path fill="none" stroke="midnightblue" d="M355.049,-290.362C339.376,-281.45 316.793,-268.609 299.094,-258.545"/>
<polygon fill="midnightblue" stroke="midnightblue" points="300.77,-255.471 290.347,-253.571 297.31,-261.556 300.77,-255.471"/>
</g>
<!-- Node4 -->
<g id="node7" class="node"><title>Node4</title>
<polygon fill="white" stroke="#bfbfbf" points="303.757,-0.5 303.757,-21.5 347.757,-21.5 347.757,-0.5 303.757,-0.5"/>
<text text-anchor="middle" x="325.757" y="-8.5" font-family="Verdana" font-size="10.00">string</text>
</g>
<!-- Node3&#45;&gt;Node4 -->
<g id="edge6" class="edge"><title>Node3&#45;&gt;Node4</title>
<path fill="none" stroke="midnightblue" d="M431.535,-116.009C430.697,-101.307 427.249,-75.1095 413.757,-58 399.51,-39.9325 376.353,-27.9601 357.369,-20.6223"/>
<polygon fill="midnightblue" stroke="midnightblue" points="358.486,-17.3044 347.891,-17.1998 356.108,-23.8883 358.486,-17.3044"/>
</g>
<!-- Node5 -->
<g id="node9" class="node"><title>Node5</title>
<polygon fill="white" stroke="#bfbfbf" points="494.257,-0.5 494.257,-21.5 541.257,-21.5 541.257,-0.5 494.257,-0.5"/>
<text text-anchor="middle" x="517.757" y="-8.5" font-family="Verdana" font-size="10.00">vector</text>
</g>
<!-- Node3&#45;&gt;Node5 -->
<g id="edge8" class="edge"><title>Node3&#45;&gt;Node5</title>
<path fill="none" stroke="midnightblue" d="M464.419,-119.703C499.05,-111.226 550.314,-96.3047 561.757,-80 573.891,-62.7104 557.091,-42.2311 540.872,-28.0981"/>
<polygon fill="midnightblue" stroke="midnightblue" points="543.038,-25.3474 533.086,-21.7117 538.598,-30.7597 543.038,-25.3474"/>
</g>
<!-- Node6 -->
<g id="node11" class="node"><title>Node6</title>
<polygon fill="white" stroke="#bfbfbf" points="580.257,-0.5 580.257,-21.5 633.257,-21.5 633.257,-0.5 580.257,-0.5"/>
<text text-anchor="middle" x="606.757" y="-8.5" font-family="Verdana" font-size="10.00">stdint.h</text>
</g>
<!-- Node3&#45;&gt;Node6 -->
<g id="edge10" class="edge"><title>Node3&#45;&gt;Node6</title>
<path fill="none" stroke="midnightblue" d="M464.402,-124.318C496.868,-120.027 546.259,-108.887 577.757,-80 591.551,-67.3494 599.003,-47.0907 602.883,-31.7903"/>
<polygon fill="midnightblue" stroke="midnightblue" points="606.372,-32.2254 605.117,-21.7051 599.537,-30.7117 606.372,-32.2254"/>
</g>
<!-- Node7 -->
<g id="node13" class="node"><title>Node7</title>
<polygon fill="white" stroke="#bfbfbf" points="646.757,-58.5 646.757,-79.5 676.757,-79.5 676.757,-58.5 646.757,-58.5"/>
<text text-anchor="middle" x="661.757" y="-66.5" font-family="Verdana" font-size="10.00">list</text>
</g>
<!-- Node3&#45;&gt;Node7 -->
<g id="edge12" class="edge"><title>Node3&#45;&gt;Node7</title>
<path fill="none" stroke="midnightblue" d="M464.486,-120.741C504.56,-112.758 574.314,-97.8306 632.757,-80 634.173,-79.5679 635.62,-79.1017 637.074,-78.6137"/>
<polygon fill="midnightblue" stroke="midnightblue" points="638.313,-81.8875 646.537,-75.2077 635.943,-75.3012 638.313,-81.8875"/>
</g>
<!-- Node8 -->
<g id="node15" class="node"><title>Node8</title>
<polygon fill="white" stroke="#bfbfbf" points="246.757,-58.5 246.757,-79.5 310.757,-79.5 310.757,-58.5 246.757,-58.5"/>
<text text-anchor="middle" x="278.757" y="-66.5" font-family="Verdana" font-size="10.00">XmlSink.h</text>
</g>
<!-- Node3&#45;&gt;Node8 -->
<g id="edge14" class="edge"><title>Node3&#45;&gt;Node8</title>
<path fill="none" stroke="midnightblue" d="M404.05,-116.497C379.431,-107.164 343.24,-93.4447 316.077,-83.1475"/>
<polygon fill="midnightblue" stroke="midnightblue" points="317.107,-79.7951 306.516,-79.5231 314.626,-86.3406 317.107,-79.7951"/>
</g>
<!-- Node9 -->
<g id="node17" class="node"><title>Node9</title>
<polygon fill="white" stroke="#bfbfbf" points="328.257,-58.5 328.257,-79.5 405.257,-79.5 405.257,-58.5 328.257,-58.5"/>
<text text-anchor="middle" x="366.757" y="-66.5" font-family="Verdana" font-size="10.00">XmlSource.h</text>
</g>
<!-- Node3&#45;&gt;Node9 -->
<g id="edge16" class="edge"><title>Node3&#45;&gt;Node9</title>
<path fill="none" stroke="midnightblue" d="M419.835,-116.362C410.398,-107.941 397.027,-96.0105 386.067,-86.2308"/>
<polygon fill="midnightblue" stroke="midnightblue" points="388.395,-83.6171 378.603,-79.5707 383.735,-88.8401 388.395,-83.6171"/>
</g>
<!-- Node10 -->
<g id="node19" class="node"><title>Node10</title>
<a xlink:href="PathNavigator_8h.html" target="_top" xlink:title="PathNavigator.h">
<polygon fill="white" stroke="black" points="460.757,-58.5 460.757,-79.5 552.757,-79.5 552.757,-58.5 460.757,-58.5"/>
<text text-anchor="middle" x="506.757" y="-66.5" font-family="Verdana" font-size="10.00">PathNavigator.h</text>
</a>
</g>
<!-- Node3&#45;&gt;Node10 -->
<g id="edge18" class="edge"><title>Node3&#45;&gt;Node10</title>
<path fill="none" stroke="midnightblue" d="M445.513,-116.362C456.508,-107.859 472.13,-95.7785 484.843,-85.9466"/>
<polygon fill="midnightblue" stroke="midnightblue" points="487.319,-88.4569 493.088,-79.5707 483.036,-82.9195 487.319,-88.4569"/>
</g>
<!-- Node10&#45;&gt;Node4 -->
<g id="edge22" class="edge"><title>Node10&#45;&gt;Node4</title>
<path fill="none" stroke="midnightblue" d="M473.979,-58.4966C440.928,-47.9055 390.247,-31.6654 357.551,-21.1881"/>
<polygon fill="midnightblue" stroke="midnightblue" points="358.612,-17.8528 348.021,-18.1342 356.476,-24.5189 358.612,-17.8528"/>
</g>
<!-- Node10&#45;&gt;Node5 -->
<g id="edge20" class="edge"><title>Node10&#45;&gt;Node5</title>
<path fill="none" stroke="midnightblue" d="M508.775,-58.3619C510.201,-50.8401 512.159,-40.5187 513.882,-31.4308"/>
<polygon fill="midnightblue" stroke="midnightblue" points="517.327,-32.0477 515.752,-21.5707 510.45,-30.7433 517.327,-32.0477"/>
</g>
<!-- Node10&#45;&gt;Node6 -->
<g id="edge24" class="edge"><title>Node10&#45;&gt;Node6</title>
<path fill="none" stroke="midnightblue" d="M525.099,-58.3619C540.322,-49.532 562.198,-36.844 579.477,-26.8224"/>
<polygon fill="midnightblue" stroke="midnightblue" points="581.637,-29.6155 588.532,-21.5707 578.125,-23.5603 581.637,-29.6155"/>
</g>
<!-- Node11&#45;&gt;Node3 -->
<g id="edge28" class="edge"><title>Node11&#45;&gt;Node3</title>
<path fill="none" stroke="midnightblue" d="M289.762,-232.331C304.975,-223.136 327.19,-209.283 345.757,-196 369.036,-179.345 394.462,-158.605 411.584,-144.235"/>
<polygon fill="midnightblue" stroke="midnightblue" points="413.895,-146.864 419.277,-137.738 409.379,-141.516 413.895,-146.864"/>
</g>
<!-- Node11&#45;&gt;Node4 -->
<g id="edge42" class="edge"><title>Node11&#45;&gt;Node4</title>
<path fill="none" stroke="midnightblue" d="M216.487,-239.052C153.16,-233.41 54.6483,-220.85 27.757,-196 1.12655,-171.391 -9.43038,-145.426 11.757,-116 45.5308,-69.0942 220.023,-31.0854 293.298,-16.9424"/>
<polygon fill="midnightblue" stroke="midnightblue" points="294.176,-20.3382 303.346,-15.0307 292.868,-13.4616 294.176,-20.3382"/>
</g>
<!-- Node12 -->
<g id="node27" class="node"><title>Node12</title>
<a xlink:href="SelectionCriterionType_8h.html" target="_top" xlink:title="SelectionCriterionType.h">
<polygon fill="white" stroke="black" points="206.257,-174.5 206.257,-195.5 337.257,-195.5 337.257,-174.5 206.257,-174.5"/>
<text text-anchor="middle" x="271.757" y="-182.5" font-family="Verdana" font-size="10.00">SelectionCriterionType.h</text>
</a>
</g>
<!-- Node11&#45;&gt;Node12 -->
<g id="edge30" class="edge"><title>Node11&#45;&gt;Node12</title>
<path fill="none" stroke="midnightblue" d="M271.757,-232.362C271.757,-224.922 271.757,-214.743 271.757,-205.728"/>
<polygon fill="midnightblue" stroke="midnightblue" points="275.257,-205.571 271.757,-195.571 268.257,-205.571 275.257,-205.571"/>
</g>
<!-- Node15 -->
<g id="node35" class="node"><title>Node15</title>
<polygon fill="white" stroke="#bfbfbf" points="36.757,-174.5 36.757,-195.5 188.757,-195.5 188.757,-174.5 36.757,-174.5"/>
<text text-anchor="middle" x="112.757" y="-182.5" font-family="Verdana" font-size="10.00">SelectionCriterionInterface.h</text>
</g>
<!-- Node11&#45;&gt;Node15 -->
<g id="edge40" class="edge"><title>Node11&#45;&gt;Node15</title>
<path fill="none" stroke="midnightblue" d="M242.963,-232.497C217.266,-223.123 179.439,-209.324 151.17,-199.012"/>
<polygon fill="midnightblue" stroke="midnightblue" points="152.199,-195.662 141.605,-195.523 149.8,-202.238 152.199,-195.662"/>
</g>
<!-- Node12&#45;&gt;Node3 -->
<g id="edge32" class="edge"><title>Node12&#45;&gt;Node3</title>
<path fill="none" stroke="midnightblue" d="M300.732,-174.497C326.59,-165.123 364.656,-151.324 393.103,-141.012"/>
<polygon fill="midnightblue" stroke="midnightblue" points="394.519,-144.222 402.728,-137.523 392.134,-137.641 394.519,-144.222"/>
</g>
<!-- Node12&#45;&gt;Node4 -->
<g id="edge36" class="edge"><title>Node12&#45;&gt;Node4</title>
<path fill="none" stroke="midnightblue" d="M263.733,-174.366C247.565,-151.535 214.516,-96.7601 237.757,-58 249.872,-37.7948 273.956,-25.7923 293.87,-18.9799"/>
<polygon fill="midnightblue" stroke="midnightblue" points="295.03,-22.2842 303.528,-15.9569 292.94,-15.6037 295.03,-22.2842"/>
</g>
<!-- Node13 -->
<g id="node30" class="node"><title>Node13</title>
<polygon fill="white" stroke="#bfbfbf" points="252.757,-116.5 252.757,-137.5 290.757,-137.5 290.757,-116.5 252.757,-116.5"/>
<text text-anchor="middle" x="271.757" y="-124.5" font-family="Verdana" font-size="10.00">map</text>
</g>
<!-- Node12&#45;&gt;Node13 -->
<g id="edge34" class="edge"><title>Node12&#45;&gt;Node13</title>
<path fill="none" stroke="midnightblue" d="M271.757,-174.362C271.757,-166.922 271.757,-156.743 271.757,-147.728"/>
<polygon fill="midnightblue" stroke="midnightblue" points="275.257,-147.571 271.757,-137.571 268.257,-147.571 275.257,-147.571"/>
</g>
<!-- Node14 -->
<g id="node33" class="node"><title>Node14</title>
<polygon fill="white" stroke="#bfbfbf" points="20.257,-116.5 20.257,-137.5 193.257,-137.5 193.257,-116.5 20.257,-116.5"/>
<text text-anchor="middle" x="106.757" y="-124.5" font-family="Verdana" font-size="10.00">SelectionCriterionTypeInterface.h</text>
</g>
<!-- Node12&#45;&gt;Node14 -->
<g id="edge38" class="edge"><title>Node12&#45;&gt;Node14</title>
<path fill="none" stroke="midnightblue" d="M241.877,-174.497C215.094,-165.082 175.612,-151.204 146.235,-140.877"/>
<polygon fill="midnightblue" stroke="midnightblue" points="147.288,-137.537 136.693,-137.523 144.967,-144.141 147.288,-137.537"/>
</g>
</g>
</svg>
