<?xml version="1.0" encoding="UTF-8" standalone="no"?>
<!DOCTYPE svg PUBLIC "-//W3C//DTD SVG 1.1//EN"
 "http://www.w3.org/Graphics/SVG/1.1/DTD/svg11.dtd">
<!-- Generated by graphviz version 2.26.3 (20100126.1600)
 -->
<!-- Title: parameter/SelectionCriterionType.cpp Pages: 1 -->
<svg width="460pt" height="276pt"
 viewBox="0.00 0.00 460.00 276.00" xmlns="http://www.w3.org/2000/svg" xmlns:xlink="http://www.w3.org/1999/xlink">
<g id="graph1" class="graph" transform="scale(1 1) rotate(0) translate(4 272)">
<title>parameter/SelectionCriterionType.cpp</title>
<polygon fill="white" stroke="white" points="-4,5 -4,-272 457,-272 457,5 -4,5"/>
<!-- Node1 -->
<g id="node1" class="node"><title>Node1</title>
<polygon fill="#bfbfbf" stroke="black" points="188.5,-233 188.5,-267 343.5,-267 343.5,-233 188.5,-233"/>
<text text-anchor="start" x="196.5" y="-254" font-family="Verdana" font-size="10.00">parameter/SelectionCriterion</text>
<text text-anchor="middle" x="266" y="-241" font-family="Verdana" font-size="10.00">Type.cpp</text>
</g>
<!-- Node2 -->
<g id="node3" class="node"><title>Node2</title>
<a xlink:href="SelectionCriterionType_8h.html" target="_top" xlink:title="SelectionCriterionType.h">
<polygon fill="white" stroke="black" points="142.5,-174.5 142.5,-195.5 273.5,-195.5 273.5,-174.5 142.5,-174.5"/>
<text text-anchor="middle" x="208" y="-182.5" font-family="Verdana" font-size="10.00">SelectionCriterionType.h</text>
</a>
</g>
<!-- Node1&#45;&gt;Node2 -->
<g id="edge2" class="edge"><title>Node1&#45;&gt;Node2</title>
<path fill="none" stroke="midnightblue" d="M250.761,-232.922C242.662,-223.845 232.698,-212.679 224.427,-203.41"/>
<polygon fill="midnightblue" stroke="midnightblue" points="226.953,-200.983 217.683,-195.852 221.73,-205.644 226.953,-200.983"/>
</g>
<!-- Node13 -->
<g id="node29" class="node"><title>Node13</title>
<polygon fill="white" stroke="#bfbfbf" points="290.5,-174.5 290.5,-195.5 359.5,-195.5 359.5,-174.5 290.5,-174.5"/>
<text text-anchor="middle" x="325" y="-182.5" font-family="Verdana" font-size="10.00">Tokenizer.h</text>
</g>
<!-- Node1&#45;&gt;Node13 -->
<g id="edge32" class="edge"><title>Node1&#45;&gt;Node13</title>
<path fill="none" stroke="midnightblue" d="M281.502,-232.922C289.74,-223.845 299.876,-212.679 308.29,-203.41"/>
<polygon fill="midnightblue" stroke="midnightblue" points="311.02,-205.609 315.15,-195.852 305.837,-200.904 311.02,-205.609"/>
</g>
<!-- Node3 -->
<g id="node5" class="node"><title>Node3</title>
<a xlink:href="Element_8h.html" target="_top" xlink:title="Element.h">
<polygon fill="white" stroke="black" points="141.5,-116.5 141.5,-137.5 206.5,-137.5 206.5,-116.5 141.5,-116.5"/>
<text text-anchor="middle" x="174" y="-124.5" font-family="Verdana" font-size="10.00">Element.h</text>
</a>
</g>
<!-- Node2&#45;&gt;Node3 -->
<g id="edge4" class="edge"><title>Node2&#45;&gt;Node3</title>
<path fill="none" stroke="midnightblue" d="M201.764,-174.362C197.163,-166.513 190.775,-155.616 185.286,-146.253"/>
<polygon fill="midnightblue" stroke="midnightblue" points="188.273,-144.428 180.197,-137.571 182.234,-147.968 188.273,-144.428"/>
</g>
<!-- Node4 -->
<g id="node7" class="node"><title>Node4</title>
<polygon fill="white" stroke="#bfbfbf" points="0,-0.5 0,-21.5 44,-21.5 44,-0.5 0,-0.5"/>
<text text-anchor="middle" x="22" y="-8.5" font-family="Verdana" font-size="10.00">string</text>
</g>
<!-- Node2&#45;&gt;Node4 -->
<g id="edge28" class="edge"><title>Node2&#45;&gt;Node4</title>
<path fill="none" stroke="midnightblue" d="M167.769,-174.452C124.171,-160.672 56.6087,-131.943 25,-80 16.258,-65.6342 16.1942,-46.2993 17.9237,-31.7517"/>
<polygon fill="midnightblue" stroke="midnightblue" points="21.4052,-32.1406 19.4818,-21.7219 14.4882,-31.066 21.4052,-32.1406"/>
</g>
<!-- Node11 -->
<g id="node24" class="node"><title>Node11</title>
<polygon fill="white" stroke="#bfbfbf" points="224,-116.5 224,-137.5 262,-137.5 262,-116.5 224,-116.5"/>
<text text-anchor="middle" x="243" y="-124.5" font-family="Verdana" font-size="10.00">map</text>
</g>
<!-- Node2&#45;&gt;Node11 -->
<g id="edge26" class="edge"><title>Node2&#45;&gt;Node11</title>
<path fill="none" stroke="midnightblue" d="M214.42,-174.362C219.156,-166.513 225.732,-155.616 231.382,-146.253"/>
<polygon fill="midnightblue" stroke="midnightblue" points="234.451,-147.941 236.621,-137.571 228.458,-144.324 234.451,-147.941"/>
</g>
<!-- Node12 -->
<g id="node27" class="node"><title>Node12</title>
<polygon fill="white" stroke="#bfbfbf" points="279.5,-116.5 279.5,-137.5 452.5,-137.5 452.5,-116.5 279.5,-116.5"/>
<text text-anchor="middle" x="366" y="-124.5" font-family="Verdana" font-size="10.00">SelectionCriterionTypeInterface.h</text>
</g>
<!-- Node2&#45;&gt;Node12 -->
<g id="edge30" class="edge"><title>Node2&#45;&gt;Node12</title>
<path fill="none" stroke="midnightblue" d="M236.613,-174.497C262.148,-165.123 299.737,-151.324 327.829,-141.012"/>
<polygon fill="midnightblue" stroke="midnightblue" points="329.152,-144.255 337.334,-137.523 326.74,-137.684 329.152,-144.255"/>
</g>
<!-- Node3&#45;&gt;Node4 -->
<g id="edge6" class="edge"><title>Node3&#45;&gt;Node4</title>
<path fill="none" stroke="midnightblue" d="M141.47,-123.973C111.291,-119.438 67.2055,-108.135 41,-80 28.802,-66.9039 24.3155,-46.701 22.7243,-31.5346"/>
<polygon fill="midnightblue" stroke="midnightblue" points="26.2151,-31.2788 22.0085,-21.5549 19.233,-31.7797 26.2151,-31.2788"/>
</g>
<!-- Node5 -->
<g id="node9" class="node"><title>Node5</title>
<polygon fill="white" stroke="#bfbfbf" points="307.5,-0.5 307.5,-21.5 354.5,-21.5 354.5,-0.5 307.5,-0.5"/>
<text text-anchor="middle" x="331" y="-8.5" font-family="Verdana" font-size="10.00">vector</text>
</g>
<!-- Node3&#45;&gt;Node5 -->
<g id="edge8" class="edge"><title>Node3&#45;&gt;Node5</title>
<path fill="none" stroke="midnightblue" d="M206.643,-118.114C209.466,-117.384 212.281,-116.67 215,-116 285.77,-98.5526 329.467,-136.917 375,-80 388.348,-63.3154 370.828,-42.4211 354.101,-28.0214"/>
<polygon fill="midnightblue" stroke="midnightblue" points="356.062,-25.1054 346.092,-21.521 351.651,-30.5405 356.062,-25.1054"/>
</g>
<!-- Node6 -->
<g id="node11" class="node"><title>Node6</title>
<polygon fill="white" stroke="#bfbfbf" points="393.5,-0.5 393.5,-21.5 446.5,-21.5 446.5,-0.5 393.5,-0.5"/>
<text text-anchor="middle" x="420" y="-8.5" font-family="Verdana" font-size="10.00">stdint.h</text>
</g>
<!-- Node3&#45;&gt;Node6 -->
<g id="edge10" class="edge"><title>Node3&#45;&gt;Node6</title>
<path fill="none" stroke="midnightblue" d="M206.629,-118.056C209.455,-117.339 212.274,-116.644 215,-116 292.704,-97.647 329.287,-130.658 391,-80 405.689,-67.9422 413.059,-47.1418 416.679,-31.5232"/>
<polygon fill="midnightblue" stroke="midnightblue" points="420.113,-32.1998 418.63,-21.7093 413.247,-30.835 420.113,-32.1998"/>
</g>
<!-- Node7 -->
<g id="node13" class="node"><title>Node7</title>
<polygon fill="white" stroke="#bfbfbf" points="50,-58.5 50,-79.5 80,-79.5 80,-58.5 50,-58.5"/>
<text text-anchor="middle" x="65" y="-66.5" font-family="Verdana" font-size="10.00">list</text>
</g>
<!-- Node3&#45;&gt;Node7 -->
<g id="edge12" class="edge"><title>Node3&#45;&gt;Node7</title>
<path fill="none" stroke="midnightblue" d="M154.261,-116.497C135.914,-106.734 108.546,-92.1712 88.9551,-81.7468"/>
<polygon fill="midnightblue" stroke="midnightblue" points="90.5083,-78.6086 80.0362,-77.0009 87.2201,-84.7882 90.5083,-78.6086"/>
</g>
<!-- Node8 -->
<g id="node15" class="node"><title>Node8</title>
<polygon fill="white" stroke="#bfbfbf" points="98,-58.5 98,-79.5 162,-79.5 162,-58.5 98,-58.5"/>
<text text-anchor="middle" x="130" y="-66.5" font-family="Verdana" font-size="10.00">XmlSink.h</text>
</g>
<!-- Node3&#45;&gt;Node8 -->
<g id="edge14" class="edge"><title>Node3&#45;&gt;Node8</title>
<path fill="none" stroke="midnightblue" d="M165.93,-116.362C159.851,-108.35 151.363,-97.1605 144.163,-87.6696"/>
<polygon fill="midnightblue" stroke="midnightblue" points="146.851,-85.4222 138.019,-79.5707 141.275,-89.653 146.851,-85.4222"/>
</g>
<!-- Node9 -->
<g id="node17" class="node"><title>Node9</title>
<polygon fill="white" stroke="#bfbfbf" points="179.5,-58.5 179.5,-79.5 256.5,-79.5 256.5,-58.5 179.5,-58.5"/>
<text text-anchor="middle" x="218" y="-66.5" font-family="Verdana" font-size="10.00">XmlSource.h</text>
</g>
<!-- Node3&#45;&gt;Node9 -->
<g id="edge16" class="edge"><title>Node3&#45;&gt;Node9</title>
<path fill="none" stroke="midnightblue" d="M182.07,-116.362C188.149,-108.35 196.637,-97.1605 203.837,-87.6696"/>
<polygon fill="midnightblue" stroke="midnightblue" points="206.725,-89.653 209.981,-79.5707 201.149,-85.4222 206.725,-89.653"/>
</g>
<!-- Node10 -->
<g id="node19" class="node"><title>Node10</title>
<a xlink:href="PathNavigator_8h.html" target="_top" xlink:title="PathNavigator.h">
<polygon fill="white" stroke="black" points="274,-58.5 274,-79.5 366,-79.5 366,-58.5 274,-58.5"/>
<text text-anchor="middle" x="320" y="-66.5" font-family="Verdana" font-size="10.00">PathNavigator.h</text>
</a>
</g>
<!-- Node3&#45;&gt;Node10 -->
<g id="edge18" class="edge"><title>Node3&#45;&gt;Node10</title>
<path fill="none" stroke="midnightblue" d="M200.439,-116.497C223.756,-107.234 257.95,-93.6499 283.804,-83.3793"/>
<polygon fill="midnightblue" stroke="midnightblue" points="285.263,-86.566 293.264,-79.6212 282.678,-80.0605 285.263,-86.566"/>
</g>
<!-- Node10&#45;&gt;Node4 -->
<g id="edge22" class="edge"><title>Node10&#45;&gt;Node4</title>
<path fill="none" stroke="midnightblue" d="M273.791,-59.7361C270.816,-59.1466 267.866,-58.5638 265,-58 189.509,-43.1504 100.744,-26.081 54.2034,-17.1613"/>
<polygon fill="midnightblue" stroke="midnightblue" points="54.6023,-13.6742 44.1224,-15.2302 53.2853,-20.5492 54.6023,-13.6742"/>
</g>
<!-- Node10&#45;&gt;Node5 -->
<g id="edge20" class="edge"><title>Node10&#45;&gt;Node5</title>
<path fill="none" stroke="midnightblue" d="M322.018,-58.3619C323.444,-50.8401 325.402,-40.5187 327.125,-31.4308"/>
<polygon fill="midnightblue" stroke="midnightblue" points="330.571,-32.0477 328.995,-21.5707 323.693,-30.7433 330.571,-32.0477"/>
</g>
<!-- Node10&#45;&gt;Node6 -->
<g id="edge24" class="edge"><title>Node10&#45;&gt;Node6</title>
<path fill="none" stroke="midnightblue" d="M338.342,-58.3619C353.566,-49.532 375.441,-36.844 392.72,-26.8224"/>
<polygon fill="midnightblue" stroke="midnightblue" points="394.88,-29.6155 401.775,-21.5707 391.368,-23.5603 394.88,-29.6155"/>
</g>
</g>
</svg>
