<?xml version="1.0" encoding="UTF-8" standalone="no"?>
<!DOCTYPE svg PUBLIC "-//W3C//DTD SVG 1.1//EN"
 "http://www.w3.org/Graphics/SVG/1.1/DTD/svg11.dtd">
<!-- Generated by graphviz version 2.26.3 (20100126.1600)
 -->
<!-- Title: parameter/SelectionCriterionType.h Pages: 1 -->
<svg width="1625pt" height="390pt"
 viewBox="0.00 0.00 1625.00 390.00" xmlns="http://www.w3.org/2000/svg" xmlns:xlink="http://www.w3.org/1999/xlink">
<g id="graph1" class="graph" transform="scale(1 1) rotate(0) translate(4 386)">
<title>parameter/SelectionCriterionType.h</title>
<polygon fill="white" stroke="white" points="-4,5 -4,-386 1622,-386 1622,5 -4,5"/>
<!-- Node1 -->
<g id="node1" class="node"><title>Node1</title>
<polygon fill="#bfbfbf" stroke="black" points="1101.5,-347 1101.5,-381 1256.5,-381 1256.5,-347 1101.5,-347"/>
<text text-anchor="start" x="1109.5" y="-368" font-family="Verdana" font-size="10.00">parameter/SelectionCriterion</text>
<text text-anchor="middle" x="1179" y="-355" font-family="Verdana" font-size="10.00">Type.h</text>
</g>
<!-- Node2 -->
<g id="node3" class="node"><title>Node2</title>
<a xlink:href="SelectionCriterion_8h.html" target="_top" xlink:title="parameter/SelectionCriterion.h">
<polygon fill="white" stroke="black" points="451,-281.5 451,-302.5 615,-302.5 615,-281.5 451,-281.5"/>
<text text-anchor="middle" x="533" y="-289.5" font-family="Verdana" font-size="10.00">parameter/SelectionCriterion.h</text>
</a>
</g>
<!-- Node1&#45;&gt;Node2 -->
<g id="edge2" class="edge"><title>Node1&#45;&gt;Node2</title>
<path fill="none" stroke="midnightblue" d="M1091.45,-354.242C966.145,-340.276 737.335,-314.774 615.109,-301.151"/>
<polygon fill="midnightblue" stroke="midnightblue" points="1091.07,-357.722 1101.4,-355.351 1091.85,-350.765 1091.07,-357.722"/>
</g>
<!-- Node9 -->
<g id="node17" class="node"><title>Node9</title>
<a xlink:href="ParameterMgr_8cpp.html" target="_top" xlink:title="parameter/ParameterMgr.cpp">
<polygon fill="white" stroke="black" points="626,-0.5 626,-21.5 784,-21.5 784,-0.5 626,-0.5"/>
<text text-anchor="middle" x="705" y="-8.5" font-family="Verdana" font-size="10.00">parameter/ParameterMgr.cpp</text>
</a>
</g>
<!-- Node1&#45;&gt;Node9 -->
<g id="edge64" class="edge"><title>Node1&#45;&gt;Node9</title>
<path fill="none" stroke="midnightblue" d="M1266.36,-351.514C1340.52,-335.397 1435,-299.303 1435,-220 1435,-220 1435,-220 1435,-148 1435,-67.1844 1354.21,-81.8736 1277,-58 1187.16,-30.2212 918.85,-17.8552 784.081,-13.2752"/>
<polygon fill="midnightblue" stroke="midnightblue" points="1265.58,-348.101 1256.5,-353.566 1267.01,-354.954 1265.58,-348.101"/>
</g>
<!-- Node14 -->
<g id="node31" class="node"><title>Node14</title>
<a xlink:href="ParameterMgr_8h.html" target="_top" xlink:title="parameter/ParameterMgr.h">
<polygon fill="white" stroke="black" points="787.5,-209.5 787.5,-230.5 934.5,-230.5 934.5,-209.5 787.5,-209.5"/>
<text text-anchor="middle" x="861" y="-217.5" font-family="Verdana" font-size="10.00">parameter/ParameterMgr.h</text>
</a>
</g>
<!-- Node1&#45;&gt;Node14 -->
<g id="edge62" class="edge"><title>Node1&#45;&gt;Node14</title>
<path fill="none" stroke="midnightblue" d="M1131.91,-342.675C1062.74,-311.356 936.283,-254.09 884.279,-230.541"/>
<polygon fill="midnightblue" stroke="midnightblue" points="1130.72,-345.979 1141.27,-346.916 1133.61,-339.602 1130.72,-345.979"/>
</g>
<!-- Node19 -->
<g id="node44" class="node"><title>Node19</title>
<a xlink:href="SelectionCriteria_8h.html" target="_top" xlink:title="parameter/SelectionCriteria.h">
<polygon fill="white" stroke="black" points="996,-209.5 996,-230.5 1154,-230.5 1154,-209.5 996,-209.5"/>
<text text-anchor="middle" x="1075" y="-217.5" font-family="Verdana" font-size="10.00">parameter/SelectionCriteria.h</text>
</a>
</g>
<!-- Node1&#45;&gt;Node19 -->
<g id="edge66" class="edge"><title>Node1&#45;&gt;Node19</title>
<path fill="none" stroke="midnightblue" d="M1160.58,-338.501C1137.47,-306.5 1098.89,-253.079 1082.61,-230.541"/>
<polygon fill="midnightblue" stroke="midnightblue" points="1157.97,-340.858 1166.66,-346.916 1163.64,-336.76 1157.97,-340.858"/>
</g>
<!-- Node21 -->
<g id="node55" class="node"><title>Node21</title>
<a xlink:href="SelectionCriterionLibrary_8h.html" target="_top" xlink:title="parameter/SelectionCriterion\lLibrary.h">
<polygon fill="white" stroke="black" points="1171.5,-275 1171.5,-309 1326.5,-309 1326.5,-275 1171.5,-275"/>
<text text-anchor="start" x="1179.5" y="-296" font-family="Verdana" font-size="10.00">parameter/SelectionCriterion</text>
<text text-anchor="middle" x="1249" y="-283" font-family="Verdana" font-size="10.00">Library.h</text>
</a>
</g>
<!-- Node1&#45;&gt;Node21 -->
<g id="edge68" class="edge"><title>Node1&#45;&gt;Node21</title>
<path fill="none" stroke="midnightblue" d="M1202.65,-339.671C1212.29,-329.755 1223.22,-318.515 1232.04,-309.441"/>
<polygon fill="midnightblue" stroke="midnightblue" points="1200.05,-337.327 1195.59,-346.937 1205.07,-342.207 1200.05,-337.327"/>
</g>
<!-- Node23 -->
<g id="node60" class="node"><title>Node23</title>
<a xlink:href="SelectionCriterionType_8cpp.html" target="_top" xlink:title="parameter/SelectionCriterion\lType.cpp">
<polygon fill="white" stroke="black" points="1462.5,-275 1462.5,-309 1617.5,-309 1617.5,-275 1462.5,-275"/>
<text text-anchor="start" x="1470.5" y="-296" font-family="Verdana" font-size="10.00">parameter/SelectionCriterion</text>
<text text-anchor="middle" x="1540" y="-283" font-family="Verdana" font-size="10.00">Type.cpp</text>
</a>
</g>
<!-- Node1&#45;&gt;Node23 -->
<g id="edge74" class="edge"><title>Node1&#45;&gt;Node23</title>
<path fill="none" stroke="midnightblue" d="M1267.05,-346.438C1326.73,-334.536 1404.88,-318.95 1462.25,-307.506"/>
<polygon fill="midnightblue" stroke="midnightblue" points="1266.01,-343.077 1256.89,-348.466 1267.38,-349.942 1266.01,-343.077"/>
</g>
<!-- Node3 -->
<g id="node5" class="node"><title>Node3</title>
<a xlink:href="SelectionCriteriaDefinition_8h.html" target="_top" xlink:title="parameter/SelectionCriteria\lDefinition.h">
<polygon fill="white" stroke="black" points="458.5,-203 458.5,-237 607.5,-237 607.5,-203 458.5,-203"/>
<text text-anchor="start" x="466.5" y="-224" font-family="Verdana" font-size="10.00">parameter/SelectionCriteria</text>
<text text-anchor="middle" x="533" y="-211" font-family="Verdana" font-size="10.00">Definition.h</text>
</a>
</g>
<!-- Node2&#45;&gt;Node3 -->
<g id="edge4" class="edge"><title>Node2&#45;&gt;Node3</title>
<path fill="none" stroke="midnightblue" d="M533,-271.132C533,-260.326 533,-247.296 533,-237.094"/>
<polygon fill="midnightblue" stroke="midnightblue" points="529.5,-271.376 533,-281.376 536.5,-271.376 529.5,-271.376"/>
</g>
<!-- Node11 -->
<g id="node23" class="node"><title>Node11</title>
<a xlink:href="SelectionCriterionRule_8cpp.html" target="_top" xlink:title="parameter/SelectionCriterion\lRule.cpp">
<polygon fill="white" stroke="black" points="4.5,-59 4.5,-93 159.5,-93 159.5,-59 4.5,-59"/>
<text text-anchor="start" x="12.5" y="-80" font-family="Verdana" font-size="10.00">parameter/SelectionCriterion</text>
<text text-anchor="middle" x="82" y="-67" font-family="Verdana" font-size="10.00">Rule.cpp</text>
</a>
</g>
<!-- Node2&#45;&gt;Node11 -->
<g id="edge60" class="edge"><title>Node2&#45;&gt;Node11</title>
<path fill="none" stroke="midnightblue" d="M495.608,-277.784C468.161,-267.197 430.062,-252.181 397,-238 326.821,-207.899 308.952,-200.838 241,-166 194.568,-142.195 142.156,-111.822 110.622,-93.1504"/>
<polygon fill="midnightblue" stroke="midnightblue" points="494.619,-281.154 505.209,-281.475 497.131,-274.62 494.619,-281.154"/>
</g>
<!-- Node13 -->
<g id="node28" class="node"><title>Node13</title>
<a xlink:href="SelectionCriteriaDefinition_8cpp.html" target="_top" xlink:title="parameter/SelectionCriteria\lDefinition.cpp">
<polygon fill="white" stroke="black" points="249.5,-131 249.5,-165 398.5,-165 398.5,-131 249.5,-131"/>
<text text-anchor="start" x="257.5" y="-152" font-family="Verdana" font-size="10.00">parameter/SelectionCriteria</text>
<text text-anchor="middle" x="324" y="-139" font-family="Verdana" font-size="10.00">Definition.cpp</text>
</a>
</g>
<!-- Node2&#45;&gt;Node13 -->
<g id="edge56" class="edge"><title>Node2&#45;&gt;Node13</title>
<path fill="none" stroke="midnightblue" d="M507.751,-275.976C491.207,-265.378 469.174,-251.076 450,-238 413.799,-213.312 372.616,-183.576 347.471,-165.228"/>
<polygon fill="midnightblue" stroke="midnightblue" points="506.013,-279.019 516.325,-281.452 509.781,-273.12 506.013,-279.019"/>
</g>
<!-- Node2&#45;&gt;Node14 -->
<g id="edge34" class="edge"><title>Node2&#45;&gt;Node14</title>
<path fill="none" stroke="midnightblue" d="M590.86,-279.299C654.059,-265.426 754.125,-243.46 813.093,-230.516"/>
<polygon fill="midnightblue" stroke="midnightblue" points="590.062,-275.891 581.045,-281.453 591.563,-282.728 590.062,-275.891"/>
</g>
<!-- Node2&#45;&gt;Node19 -->
<g id="edge50" class="edge"><title>Node2&#45;&gt;Node19</title>
<path fill="none" stroke="midnightblue" d="M624.088,-280.124C707.184,-269.262 833.363,-252.695 943,-238 960.881,-235.603 980.119,-232.996 998.229,-230.529"/>
<polygon fill="midnightblue" stroke="midnightblue" points="623.382,-276.687 613.92,-281.453 624.289,-283.628 623.382,-276.687"/>
</g>
<!-- Node20 -->
<g id="node49" class="node"><title>Node20</title>
<a xlink:href="SelectionCriterion_8cpp.html" target="_top" xlink:title="parameter/SelectionCriterion.cpp">
<polygon fill="white" stroke="black" points="18,-209.5 18,-230.5 194,-230.5 194,-209.5 18,-209.5"/>
<text text-anchor="middle" x="106" y="-217.5" font-family="Verdana" font-size="10.00">parameter/SelectionCriterion.cpp</text>
</a>
</g>
<!-- Node2&#45;&gt;Node20 -->
<g id="edge58" class="edge"><title>Node2&#45;&gt;Node20</title>
<path fill="none" stroke="midnightblue" d="M458.647,-279.863C392.751,-269.055 293.931,-252.721 208,-238 194.087,-235.617 179.115,-233.002 165.043,-230.523"/>
<polygon fill="midnightblue" stroke="midnightblue" points="458.095,-283.32 468.529,-281.483 459.227,-276.412 458.095,-283.32"/>
</g>
<!-- Node4 -->
<g id="node7" class="node"><title>Node4</title>
<a xlink:href="XmlDomainImportContext_8h.html" target="_top" xlink:title="parameter/XmlDomainImport\lContext.h">
<polygon fill="white" stroke="black" points="454,-131 454,-165 612,-165 612,-131 454,-131"/>
<text text-anchor="start" x="462" y="-152" font-family="Verdana" font-size="10.00">parameter/XmlDomainImport</text>
<text text-anchor="middle" x="533" y="-139" font-family="Verdana" font-size="10.00">Context.h</text>
</a>
</g>
<!-- Node3&#45;&gt;Node4 -->
<g id="edge6" class="edge"><title>Node3&#45;&gt;Node4</title>
<path fill="none" stroke="midnightblue" d="M533,-192.719C533,-183.572 533,-173.625 533,-165.441"/>
<polygon fill="midnightblue" stroke="midnightblue" points="529.5,-192.937 533,-202.937 536.5,-192.937 529.5,-192.937"/>
</g>
<!-- Node3&#45;&gt;Node9 -->
<g id="edge26" class="edge"><title>Node3&#45;&gt;Node9</title>
<path fill="none" stroke="midnightblue" d="M578.881,-197.96C593.545,-189.405 609.054,-178.606 621,-166 664.159,-120.456 692.061,-48.4598 701.466,-21.5813"/>
<polygon fill="midnightblue" stroke="midnightblue" points="576.913,-195.05 569.899,-202.992 580.334,-201.157 576.913,-195.05"/>
</g>
<!-- Node3&#45;&gt;Node11 -->
<g id="edge32" class="edge"><title>Node3&#45;&gt;Node11</title>
<path fill="none" stroke="midnightblue" d="M492.631,-197.625C477.251,-188.491 459.861,-177.4 445,-166 426.541,-151.84 427.921,-140.176 407,-130 308.82,-82.243 271.384,-113.716 164,-94 162.28,-93.6842 160.541,-93.3584 158.788,-93.0243"/>
<polygon fill="midnightblue" stroke="midnightblue" points="491.02,-200.737 501.419,-202.764 494.554,-194.695 491.02,-200.737"/>
</g>
<!-- Node12 -->
<g id="node26" class="node"><title>Node12</title>
<a xlink:href="SelectionCriteria_8cpp.html" target="_top" xlink:title="parameter/SelectionCriteria.cpp">
<polygon fill="white" stroke="black" points="1199,-137.5 1199,-158.5 1369,-158.5 1369,-137.5 1199,-137.5"/>
<text text-anchor="middle" x="1284" y="-145.5" font-family="Verdana" font-size="10.00">parameter/SelectionCriteria.cpp</text>
</a>
</g>
<!-- Node3&#45;&gt;Node12 -->
<g id="edge28" class="edge"><title>Node3&#45;&gt;Node12</title>
<path fill="none" stroke="midnightblue" d="M618.087,-213.89C737.528,-205.015 961.629,-187.271 1152,-166 1171.31,-163.843 1192.16,-161.163 1211.46,-158.536"/>
<polygon fill="midnightblue" stroke="midnightblue" points="617.628,-210.415 607.914,-214.644 618.145,-217.395 617.628,-210.415"/>
</g>
<!-- Node3&#45;&gt;Node13 -->
<g id="edge30" class="edge"><title>Node3&#45;&gt;Node13</title>
<path fill="none" stroke="midnightblue" d="M473.878,-199.633C442.201,-188.72 403.621,-175.429 373.536,-165.065"/>
<polygon fill="midnightblue" stroke="midnightblue" points="472.875,-202.989 483.47,-202.937 475.155,-196.371 472.875,-202.989"/>
</g>
<!-- Node5 -->
<g id="node9" class="node"><title>Node5</title>
<a xlink:href="ConfigurableDomain_8h.html" target="_top" xlink:title="parameter/ConfigurableDomain.h">
<polygon fill="white" stroke="black" points="214.5,-65.5 214.5,-86.5 391.5,-86.5 391.5,-65.5 214.5,-65.5"/>
<text text-anchor="middle" x="303" y="-73.5" font-family="Verdana" font-size="10.00">parameter/ConfigurableDomain.h</text>
</a>
</g>
<!-- Node4&#45;&gt;Node5 -->
<g id="edge8" class="edge"><title>Node4&#45;&gt;Node5</title>
<path fill="none" stroke="midnightblue" d="M468.717,-127.877C425.905,-114.475 371.367,-97.4018 336.804,-86.5821"/>
<polygon fill="midnightblue" stroke="midnightblue" points="467.904,-131.29 478.493,-130.937 469.996,-124.609 467.904,-131.29"/>
</g>
<!-- Node6 -->
<g id="node11" class="node"><title>Node6</title>
<a xlink:href="ConfigurableDomain_8cpp.html" target="_top" xlink:title="parameter/ConfigurableDomain.cpp">
<polygon fill="white" stroke="black" points="0,-0.5 0,-21.5 188,-21.5 188,-0.5 0,-0.5"/>
<text text-anchor="middle" x="94" y="-8.5" font-family="Verdana" font-size="10.00">parameter/ConfigurableDomain.cpp</text>
</a>
</g>
<!-- Node4&#45;&gt;Node6 -->
<g id="edge18" class="edge"><title>Node4&#45;&gt;Node6</title>
<path fill="none" stroke="midnightblue" d="M443.855,-130.674C442.561,-130.447 441.276,-130.222 440,-130 336.328,-111.999 300.494,-140.29 206,-94 185.108,-83.7654 186.349,-72.3027 168,-58 150.235,-44.152 128.278,-30.607 112.913,-21.6431"/>
<polygon fill="midnightblue" stroke="midnightblue" points="443.43,-134.154 453.89,-132.473 444.665,-127.264 443.43,-134.154"/>
</g>
<!-- Node4&#45;&gt;Node9 -->
<g id="edge22" class="edge"><title>Node4&#45;&gt;Node9</title>
<path fill="none" stroke="midnightblue" d="M567.368,-125.058C580.889,-115.733 596.402,-104.659 610,-94 626.547,-81.0289 671.711,-40.8269 693.259,-21.5367"/>
<polygon fill="midnightblue" stroke="midnightblue" points="565.088,-122.376 558.81,-130.91 569.04,-128.154 565.088,-122.376"/>
</g>
<!-- Node10 -->
<g id="node20" class="node"><title>Node10</title>
<a xlink:href="DomainConfiguration_8cpp.html" target="_top" xlink:title="parameter/DomainConfiguration.cpp">
<polygon fill="white" stroke="black" points="409,-65.5 409,-86.5 601,-86.5 601,-65.5 409,-65.5"/>
<text text-anchor="middle" x="505" y="-73.5" font-family="Verdana" font-size="10.00">parameter/DomainConfiguration.cpp</text>
</a>
</g>
<!-- Node4&#45;&gt;Node10 -->
<g id="edge20" class="edge"><title>Node4&#45;&gt;Node10</title>
<path fill="none" stroke="midnightblue" d="M522.65,-121.385C518.007,-109.448 512.79,-96.0309 509.239,-86.901"/>
<polygon fill="midnightblue" stroke="midnightblue" points="519.478,-122.886 526.364,-130.937 526.002,-120.348 519.478,-122.886"/>
</g>
<!-- Node4&#45;&gt;Node11 -->
<g id="edge24" class="edge"><title>Node4&#45;&gt;Node11</title>
<path fill="none" stroke="midnightblue" d="M443.86,-130.641C442.565,-130.423 441.278,-130.21 440,-130 321.839,-110.615 291.121,-113.627 173,-94 168.711,-93.2873 164.314,-92.5247 159.88,-91.7306"/>
<polygon fill="midnightblue" stroke="midnightblue" points="443.458,-134.123 453.907,-132.373 444.647,-127.225 443.458,-134.123"/>
</g>
<!-- Node5&#45;&gt;Node6 -->
<g id="edge10" class="edge"><title>Node5&#45;&gt;Node6</title>
<path fill="none" stroke="midnightblue" d="M258.927,-62.293C219.885,-50.1509 163.701,-32.6774 128.03,-21.5835"/>
<polygon fill="midnightblue" stroke="midnightblue" points="258.367,-65.7843 268.955,-65.412 260.446,-59.1001 258.367,-65.7843"/>
</g>
<!-- Node7 -->
<g id="node13" class="node"><title>Node7</title>
<a xlink:href="ConfigurableDomains_8cpp.html" target="_top" xlink:title="parameter/ConfigurableDomains.cpp">
<polygon fill="white" stroke="black" points="206,-0.5 206,-21.5 400,-21.5 400,-0.5 206,-0.5"/>
<text text-anchor="middle" x="303" y="-8.5" font-family="Verdana" font-size="10.00">parameter/ConfigurableDomains.cpp</text>
</a>
</g>
<!-- Node5&#45;&gt;Node7 -->
<g id="edge12" class="edge"><title>Node5&#45;&gt;Node7</title>
<path fill="none" stroke="midnightblue" d="M303,-55.0142C303,-43.8307 303,-30.5583 303,-21.5337"/>
<polygon fill="midnightblue" stroke="midnightblue" points="299.5,-55.2665 303,-65.2666 306.5,-55.2666 299.5,-55.2665"/>
</g>
<!-- Node8 -->
<g id="node15" class="node"><title>Node8</title>
<a xlink:href="ConfigurableElement_8cpp.html" target="_top" xlink:title="parameter/ConfigurableElement.cpp">
<polygon fill="white" stroke="black" points="417.5,-0.5 417.5,-21.5 608.5,-21.5 608.5,-0.5 417.5,-0.5"/>
<text text-anchor="middle" x="513" y="-8.5" font-family="Verdana" font-size="10.00">parameter/ConfigurableElement.cpp</text>
</a>
</g>
<!-- Node5&#45;&gt;Node8 -->
<g id="edge14" class="edge"><title>Node5&#45;&gt;Node8</title>
<path fill="none" stroke="midnightblue" d="M346.784,-62.4477C386.032,-50.2998 442.813,-32.7246 478.807,-21.5835"/>
<polygon fill="midnightblue" stroke="midnightblue" points="345.725,-59.1116 337.208,-65.412 347.795,-65.7986 345.725,-59.1116"/>
</g>
<!-- Node5&#45;&gt;Node9 -->
<g id="edge16" class="edge"><title>Node5&#45;&gt;Node9</title>
<path fill="none" stroke="midnightblue" d="M368.171,-63.6236C378.799,-61.6867 389.699,-59.7491 400,-58 479.363,-44.5249 570.63,-30.6772 632.49,-21.5361"/>
<polygon fill="midnightblue" stroke="midnightblue" points="367.296,-60.2257 358.092,-65.4743 368.56,-67.1106 367.296,-60.2257"/>
</g>
<!-- Node14&#45;&gt;Node9 -->
<g id="edge38" class="edge"><title>Node14&#45;&gt;Node9</title>
<path fill="none" stroke="midnightblue" d="M812.695,-205.842C791.422,-197.388 767.74,-184.588 752,-166 714.749,-122.008 707.019,-49.0781 705.417,-21.766"/>
<polygon fill="midnightblue" stroke="midnightblue" points="811.67,-209.196 822.262,-209.426 814.125,-202.641 811.67,-209.196"/>
</g>
<!-- Node15 -->
<g id="node33" class="node"><title>Node15</title>
<a xlink:href="ParameterHandle_8cpp.html" target="_top" xlink:title="parameter/ParameterHandle.cpp">
<polygon fill="white" stroke="black" points="968.5,-137.5 968.5,-158.5 1143.5,-158.5 1143.5,-137.5 968.5,-137.5"/>
<text text-anchor="middle" x="1056" y="-145.5" font-family="Verdana" font-size="10.00">parameter/ParameterHandle.cpp</text>
</a>
</g>
<!-- Node14&#45;&gt;Node15 -->
<g id="edge36" class="edge"><title>Node14&#45;&gt;Node15</title>
<path fill="none" stroke="midnightblue" d="M899.384,-205.827C937.033,-191.926 993.575,-171.049 1027.43,-158.55"/>
<polygon fill="midnightblue" stroke="midnightblue" points="897.942,-202.629 889.773,-209.376 900.366,-209.196 897.942,-202.629"/>
</g>
<!-- Node16 -->
<g id="node36" class="node"><title>Node16</title>
<a xlink:href="ParameterMgrFullConnector_8cpp.html" target="_top" xlink:title="parameter/ParameterMgrFull\lConnector.cpp">
<polygon fill="white" stroke="black" points="1021,-59 1021,-93 1175,-93 1175,-59 1021,-59"/>
<text text-anchor="start" x="1029" y="-80" font-family="Verdana" font-size="10.00">parameter/ParameterMgrFull</text>
<text text-anchor="middle" x="1098" y="-67" font-family="Verdana" font-size="10.00">Connector.cpp</text>
</a>
</g>
<!-- Node14&#45;&gt;Node16 -->
<g id="edge40" class="edge"><title>Node14&#45;&gt;Node16</title>
<path fill="none" stroke="midnightblue" d="M939.991,-207.883C1023.8,-194.647 1145.15,-174.234 1152,-166 1171.22,-142.882 1143.23,-112.177 1120.91,-93.2683"/>
<polygon fill="midnightblue" stroke="midnightblue" points="939.301,-204.448 929.967,-209.46 940.389,-211.363 939.301,-204.448"/>
</g>
<!-- Node17 -->
<g id="node38" class="node"><title>Node17</title>
<a xlink:href="ParameterMgrLogger_8h.html" target="_top" xlink:title="parameter/ParameterMgrLogger.h">
<polygon fill="white" stroke="black" points="771,-137.5 771,-158.5 951,-158.5 951,-137.5 771,-137.5"/>
<text text-anchor="middle" x="861" y="-145.5" font-family="Verdana" font-size="10.00">parameter/ParameterMgrLogger.h</text>
</a>
</g>
<!-- Node14&#45;&gt;Node17 -->
<g id="edge42" class="edge"><title>Node14&#45;&gt;Node17</title>
<path fill="none" stroke="midnightblue" d="M861,-199.235C861,-185.969 861,-169.319 861,-158.667"/>
<polygon fill="midnightblue" stroke="midnightblue" points="857.5,-199.376 861,-209.376 864.5,-199.376 857.5,-199.376"/>
</g>
<!-- Node18 -->
<g id="node41" class="node"><title>Node18</title>
<a xlink:href="ParameterMgrPlatformConnector_8cpp.html" target="_top" xlink:title="parameter/ParameterMgrPlatform\lConnector.cpp">
<polygon fill="white" stroke="black" points="751.5,-59 751.5,-93 930.5,-93 930.5,-59 751.5,-59"/>
<text text-anchor="start" x="759.5" y="-80" font-family="Verdana" font-size="10.00">parameter/ParameterMgrPlatform</text>
<text text-anchor="middle" x="841" y="-67" font-family="Verdana" font-size="10.00">Connector.cpp</text>
</a>
</g>
<!-- Node14&#45;&gt;Node18 -->
<g id="edge48" class="edge"><title>Node14&#45;&gt;Node18</title>
<path fill="none" stroke="midnightblue" d="M812.523,-205.703C793.284,-197.387 773.122,-184.736 762,-166 753.833,-152.242 754.532,-144.15 762,-130 770.452,-113.985 786.028,-101.818 801.13,-93.1258"/>
<polygon fill="midnightblue" stroke="midnightblue" points="811.266,-208.97 821.85,-209.445 813.873,-202.473 811.266,-208.97"/>
</g>
<!-- Node17&#45;&gt;Node16 -->
<g id="edge44" class="edge"><title>Node17&#45;&gt;Node16</title>
<path fill="none" stroke="midnightblue" d="M905.605,-134.449C944.128,-122.746 999.989,-105.775 1041.61,-93.1325"/>
<polygon fill="midnightblue" stroke="midnightblue" points="904.266,-131.198 895.716,-137.453 906.301,-137.895 904.266,-131.198"/>
</g>
<!-- Node17&#45;&gt;Node18 -->
<g id="edge46" class="edge"><title>Node17&#45;&gt;Node18</title>
<path fill="none" stroke="midnightblue" d="M855.298,-127.472C852.278,-116.6 848.612,-103.404 845.748,-93.0944"/>
<polygon fill="midnightblue" stroke="midnightblue" points="852,-128.678 858.049,-137.376 858.745,-126.804 852,-128.678"/>
</g>
<!-- Node19&#45;&gt;Node9 -->
<g id="edge52" class="edge"><title>Node19&#45;&gt;Node9</title>
<path fill="none" stroke="midnightblue" d="M1135.18,-207.392C1144.49,-205.529 1153.99,-203.675 1163,-202 1262.07,-183.579 1435.54,-212.729 1378,-130 1325.49,-54.4974 1273.62,-78.6616 1184,-58 1110.11,-40.9642 900.219,-24.4597 784.315,-16.2963"/>
<polygon fill="midnightblue" stroke="midnightblue" points="1134.31,-203.997 1125.2,-209.408 1135.69,-210.859 1134.31,-203.997"/>
</g>
<!-- Node19&#45;&gt;Node12 -->
<g id="edge54" class="edge"><title>Node19&#45;&gt;Node12</title>
<path fill="none" stroke="midnightblue" d="M1115.37,-206.093C1155.72,-192.193 1216.86,-171.129 1253.38,-158.55"/>
<polygon fill="midnightblue" stroke="midnightblue" points="1114.15,-202.81 1105.84,-209.376 1116.43,-209.428 1114.15,-202.81"/>
</g>
<!-- Node21&#45;&gt;Node12 -->
<g id="edge70" class="edge"><title>Node21&#45;&gt;Node12</title>
<path fill="none" stroke="midnightblue" d="M1302.64,-269.777C1315.52,-261.747 1327.65,-251.288 1335,-238 1342.74,-223.998 1340.91,-216.868 1335,-202 1327.85,-184.026 1311.57,-168.576 1299.31,-158.863"/>
<polygon fill="midnightblue" stroke="midnightblue" points="1300.58,-266.926 1293.66,-274.952 1304.08,-272.991 1300.58,-266.926"/>
</g>
<!-- Node22 -->
<g id="node58" class="node"><title>Node22</title>
<a xlink:href="SelectionCriterionLibrary_8cpp.html" target="_top" xlink:title="parameter/SelectionCriterion\lLibrary.cpp">
<polygon fill="white" stroke="black" points="1171.5,-203 1171.5,-237 1326.5,-237 1326.5,-203 1171.5,-203"/>
<text text-anchor="start" x="1179.5" y="-224" font-family="Verdana" font-size="10.00">parameter/SelectionCriterion</text>
<text text-anchor="middle" x="1249" y="-211" font-family="Verdana" font-size="10.00">Library.cpp</text>
</a>
</g>
<!-- Node21&#45;&gt;Node22 -->
<g id="edge72" class="edge"><title>Node21&#45;&gt;Node22</title>
<path fill="none" stroke="midnightblue" d="M1249,-264.719C1249,-255.572 1249,-245.625 1249,-237.441"/>
<polygon fill="midnightblue" stroke="midnightblue" points="1245.5,-264.937 1249,-274.937 1252.5,-264.937 1245.5,-264.937"/>
</g>
</g>
</svg>
