<?xml version="1.0" encoding="UTF-8" standalone="no"?>
<!DOCTYPE svg PUBLIC "-//W3C//DTD SVG 1.1//EN"
 "http://www.w3.org/Graphics/SVG/1.1/DTD/svg11.dtd">
<!-- Generated by graphviz version 2.26.3 (20100126.1600)
 -->
<!-- Title: parameter/SimulatedBackSynchronizer.cpp Pages: 1 -->
<svg width="690pt" height="378pt"
 viewBox="0.00 0.00 690.36 378.00" xmlns="http://www.w3.org/2000/svg" xmlns:xlink="http://www.w3.org/1999/xlink">
<g id="graph1" class="graph" transform="scale(1 1) rotate(0) translate(4 374)">
<title>parameter/SimulatedBackSynchronizer.cpp</title>
<polygon fill="white" stroke="white" points="-4,5 -4,-374 687.361,-374 687.361,5 -4,5"/>
<!-- Node1 -->
<g id="node1" class="node"><title>Node1</title>
<polygon fill="#bfbfbf" stroke="black" points="275,-348.5 275,-369.5 499,-369.5 499,-348.5 275,-348.5"/>
<text text-anchor="middle" x="387" y="-356.5" font-family="Verdana" font-size="10.00">parameter/SimulatedBackSynchronizer.cpp</text>
</g>
<!-- Node2 -->
<g id="node3" class="node"><title>Node2</title>
<a xlink:href="SimulatedBackSynchronizer_8h.html" target="_top" xlink:title="SimulatedBackSynchronizer.h">
<polygon fill="white" stroke="black" points="188.5,-290.5 188.5,-311.5 347.5,-311.5 347.5,-290.5 188.5,-290.5"/>
<text text-anchor="middle" x="268" y="-298.5" font-family="Verdana" font-size="10.00">SimulatedBackSynchronizer.h</text>
</a>
</g>
<!-- Node1&#45;&gt;Node2 -->
<g id="edge2" class="edge"><title>Node1&#45;&gt;Node2</title>
<path fill="none" stroke="midnightblue" d="M365.45,-348.497C346.864,-339.438 319.798,-326.246 298.905,-316.063"/>
<polygon fill="midnightblue" stroke="midnightblue" points="300.314,-312.856 289.792,-311.621 297.247,-319.149 300.314,-312.856"/>
</g>
<!-- Node7 -->
<g id="node13" class="node"><title>Node7</title>
<a xlink:href="ConfigurableElement_8h.html" target="_top" xlink:title="ConfigurableElement.h">
<polygon fill="white" stroke="black" points="425.5,-174.5 425.5,-195.5 550.5,-195.5 550.5,-174.5 425.5,-174.5"/>
<text text-anchor="middle" x="488" y="-182.5" font-family="Verdana" font-size="10.00">ConfigurableElement.h</text>
</a>
</g>
<!-- Node1&#45;&gt;Node7 -->
<g id="edge52" class="edge"><title>Node1&#45;&gt;Node7</title>
<path fill="none" stroke="midnightblue" d="M393.166,-348.377C409.679,-319.93 455.097,-241.684 476.525,-204.769"/>
<polygon fill="midnightblue" stroke="midnightblue" points="479.664,-206.333 481.657,-195.928 473.61,-202.819 479.664,-206.333"/>
</g>
<!-- Node3 -->
<g id="node5" class="node"><title>Node3</title>
<a xlink:href="BackSynchronizer_8h.html" target="_top" xlink:title="BackSynchronizer.h">
<polygon fill="white" stroke="black" points="304,-232.5 304,-253.5 414,-253.5 414,-232.5 304,-232.5"/>
<text text-anchor="middle" x="359" y="-240.5" font-family="Verdana" font-size="10.00">BackSynchronizer.h</text>
</a>
</g>
<!-- Node2&#45;&gt;Node3 -->
<g id="edge4" class="edge"><title>Node2&#45;&gt;Node3</title>
<path fill="none" stroke="midnightblue" d="M284.691,-290.362C298.416,-281.614 318.084,-269.079 333.737,-259.101"/>
<polygon fill="midnightblue" stroke="midnightblue" points="335.863,-261.897 342.415,-253.571 332.101,-255.994 335.863,-261.897"/>
</g>
<!-- Node6 -->
<g id="node11" class="node"><title>Node6</title>
<polygon fill="white" stroke="#bfbfbf" points="188,-0.5 188,-21.5 232,-21.5 232,-0.5 188,-0.5"/>
<text text-anchor="middle" x="210" y="-8.5" font-family="Verdana" font-size="10.00">string</text>
</g>
<!-- Node2&#45;&gt;Node6 -->
<g id="edge50" class="edge"><title>Node2&#45;&gt;Node6</title>
<path fill="none" stroke="midnightblue" d="M219.467,-290.447C142.237,-272.235 0,-232.277 0,-185 0,-185 0,-185 0,-127 0,-46.815 118.763,-21.6295 177.664,-14.0694"/>
<polygon fill="midnightblue" stroke="midnightblue" points="178.405,-17.5062 187.923,-12.8536 177.581,-10.5548 178.405,-17.5062"/>
</g>
<!-- Node14 -->
<g id="node34" class="node"><title>Node14</title>
<a xlink:href="ParameterAccessContext_8h.html" target="_top" xlink:title="ParameterAccessContext.h">
<polygon fill="white" stroke="black" points="27.5,-116.5 27.5,-137.5 174.5,-137.5 174.5,-116.5 27.5,-116.5"/>
<text text-anchor="middle" x="101" y="-124.5" font-family="Verdana" font-size="10.00">ParameterAccessContext.h</text>
</a>
</g>
<!-- Node2&#45;&gt;Node14 -->
<g id="edge40" class="edge"><title>Node2&#45;&gt;Node14</title>
<path fill="none" stroke="midnightblue" d="M257.805,-290.377C230.153,-261.567 153.478,-181.678 118.636,-145.376"/>
<polygon fill="midnightblue" stroke="midnightblue" points="120.938,-142.719 111.488,-137.928 115.887,-147.566 120.938,-142.719"/>
</g>
<!-- Node4 -->
<g id="node7" class="node"><title>Node4</title>
<a xlink:href="ConfigurableElementAggregator_8h.html" target="_top" xlink:title="ConfigurableElementAggregator.h">
<polygon fill="white" stroke="black" points="191.5,-116.5 191.5,-137.5 370.5,-137.5 370.5,-116.5 191.5,-116.5"/>
<text text-anchor="middle" x="281" y="-124.5" font-family="Verdana" font-size="10.00">ConfigurableElementAggregator.h</text>
</a>
</g>
<!-- Node3&#45;&gt;Node4 -->
<g id="edge6" class="edge"><title>Node3&#45;&gt;Node4</title>
<path fill="none" stroke="midnightblue" d="M351.802,-232.295C338.626,-212.7 310.465,-170.82 293.904,-146.191"/>
<polygon fill="midnightblue" stroke="midnightblue" points="296.665,-144.025 288.181,-137.679 290.856,-147.931 296.665,-144.025"/>
</g>
<!-- Node5 -->
<g id="node9" class="node"><title>Node5</title>
<polygon fill="white" stroke="#bfbfbf" points="276,-58.5 276,-79.5 306,-79.5 306,-58.5 276,-58.5"/>
<text text-anchor="middle" x="291" y="-66.5" font-family="Verdana" font-size="10.00">list</text>
</g>
<!-- Node3&#45;&gt;Node5 -->
<g id="edge38" class="edge"><title>Node3&#45;&gt;Node5</title>
<path fill="none" stroke="midnightblue" d="M365.125,-232.227C377.365,-209.128 401.796,-153.861 379,-116 362.946,-89.336 344.714,-94.8403 315.315,-81.8647"/>
<polygon fill="midnightblue" stroke="midnightblue" points="316.794,-78.6916 306.274,-77.4332 313.713,-84.9772 316.794,-78.6916"/>
</g>
<!-- Node3&#45;&gt;Node7 -->
<g id="edge12" class="edge"><title>Node3&#45;&gt;Node7</title>
<path fill="none" stroke="midnightblue" d="M382.361,-232.497C402.691,-223.356 432.378,-210.008 455.109,-199.788"/>
<polygon fill="midnightblue" stroke="midnightblue" points="456.692,-202.914 464.377,-195.621 453.821,-196.53 456.692,-202.914"/>
</g>
<!-- Node4&#45;&gt;Node5 -->
<g id="edge8" class="edge"><title>Node4&#45;&gt;Node5</title>
<path fill="none" stroke="midnightblue" d="M282.834,-116.362C284.131,-108.84 285.911,-98.5187 287.477,-89.4308"/>
<polygon fill="midnightblue" stroke="midnightblue" points="290.927,-90.02 289.177,-79.5707 284.029,-88.8306 290.927,-90.02"/>
</g>
<!-- Node4&#45;&gt;Node6 -->
<g id="edge10" class="edge"><title>Node4&#45;&gt;Node6</title>
<path fill="none" stroke="midnightblue" d="M274.448,-116.295C262.507,-96.7861 237.046,-55.1884 221.946,-30.5177"/>
<polygon fill="midnightblue" stroke="midnightblue" points="224.742,-28.3812 216.536,-21.6792 218.772,-32.0356 224.742,-28.3812"/>
</g>
<!-- Node7&#45;&gt;Node5 -->
<g id="edge36" class="edge"><title>Node7&#45;&gt;Node5</title>
<path fill="none" stroke="midnightblue" d="M478.647,-174.333C465.184,-159.525 438.98,-132.684 412,-116 409.841,-114.665 350.761,-91.919 315.969,-78.568"/>
<polygon fill="midnightblue" stroke="midnightblue" points="317.044,-75.2318 306.453,-74.9186 314.537,-81.7675 317.044,-75.2318"/>
</g>
<!-- Node8 -->
<g id="node15" class="node"><title>Node8</title>
<a xlink:href="Element_8h.html" target="_top" xlink:title="Element.h">
<polygon fill="white" stroke="black" points="463.5,-116.5 463.5,-137.5 528.5,-137.5 528.5,-116.5 463.5,-116.5"/>
<text text-anchor="middle" x="496" y="-124.5" font-family="Verdana" font-size="10.00">Element.h</text>
</a>
</g>
<!-- Node7&#45;&gt;Node8 -->
<g id="edge14" class="edge"><title>Node7&#45;&gt;Node8</title>
<path fill="none" stroke="midnightblue" d="M489.467,-174.362C490.494,-166.922 491.898,-156.743 493.141,-147.728"/>
<polygon fill="midnightblue" stroke="midnightblue" points="496.643,-147.955 494.542,-137.571 489.708,-146.999 496.643,-147.955"/>
</g>
<!-- Node8&#45;&gt;Node5 -->
<g id="edge22" class="edge"><title>Node8&#45;&gt;Node5</title>
<path fill="none" stroke="midnightblue" d="M463.308,-118.694C420.16,-107.658 346.565,-88.5608 320,-80 318.591,-79.5458 317.149,-79.0622 315.699,-78.5609"/>
<polygon fill="midnightblue" stroke="midnightblue" points="316.842,-75.2524 306.249,-75.1164 314.445,-81.8292 316.842,-75.2524"/>
</g>
<!-- Node8&#45;&gt;Node6 -->
<g id="edge16" class="edge"><title>Node8&#45;&gt;Node6</title>
<path fill="none" stroke="midnightblue" d="M463.477,-118.398C434.016,-110.119 389.728,-96.4533 353,-80 335.19,-72.0216 332.374,-66.8874 315,-58 290.747,-45.5939 262.531,-33.0654 241.46,-24.0668"/>
<polygon fill="midnightblue" stroke="midnightblue" points="242.603,-20.7502 232.03,-20.0716 239.872,-27.1955 242.603,-20.7502"/>
</g>
<!-- Node9 -->
<g id="node18" class="node"><title>Node9</title>
<polygon fill="white" stroke="#bfbfbf" points="561.5,-0.5 561.5,-21.5 608.5,-21.5 608.5,-0.5 561.5,-0.5"/>
<text text-anchor="middle" x="585" y="-8.5" font-family="Verdana" font-size="10.00">vector</text>
</g>
<!-- Node8&#45;&gt;Node9 -->
<g id="edge18" class="edge"><title>Node8&#45;&gt;Node9</title>
<path fill="none" stroke="midnightblue" d="M528.875,-123.246C575.986,-117.112 659.024,-103.24 677,-80 697.346,-53.6965 652.273,-32.412 618.294,-20.7501"/>
<polygon fill="midnightblue" stroke="midnightblue" points="619.222,-17.3712 608.629,-17.5822 617.042,-24.023 619.222,-17.3712"/>
</g>
<!-- Node10 -->
<g id="node20" class="node"><title>Node10</title>
<polygon fill="white" stroke="#bfbfbf" points="381.5,-0.5 381.5,-21.5 434.5,-21.5 434.5,-0.5 381.5,-0.5"/>
<text text-anchor="middle" x="408" y="-8.5" font-family="Verdana" font-size="10.00">stdint.h</text>
</g>
<!-- Node8&#45;&gt;Node10 -->
<g id="edge20" class="edge"><title>Node8&#45;&gt;Node10</title>
<path fill="none" stroke="midnightblue" d="M492.516,-116.427C487.494,-102.198 477.234,-76.5355 463,-58 454.187,-46.5239 442.168,-35.8585 431.613,-27.5983"/>
<polygon fill="midnightblue" stroke="midnightblue" points="433.643,-24.7455 423.551,-21.5198 429.429,-30.3348 433.643,-24.7455"/>
</g>
<!-- Node11 -->
<g id="node23" class="node"><title>Node11</title>
<polygon fill="white" stroke="#bfbfbf" points="510,-58.5 510,-79.5 574,-79.5 574,-58.5 510,-58.5"/>
<text text-anchor="middle" x="542" y="-66.5" font-family="Verdana" font-size="10.00">XmlSink.h</text>
</g>
<!-- Node8&#45;&gt;Node11 -->
<g id="edge24" class="edge"><title>Node8&#45;&gt;Node11</title>
<path fill="none" stroke="midnightblue" d="M504.437,-116.362C510.792,-108.35 519.666,-97.1605 527.193,-87.6696"/>
<polygon fill="midnightblue" stroke="midnightblue" points="530.145,-89.5805 533.616,-79.5707 524.66,-85.2308 530.145,-89.5805"/>
</g>
<!-- Node12 -->
<g id="node25" class="node"><title>Node12</title>
<polygon fill="white" stroke="#bfbfbf" points="591.5,-58.5 591.5,-79.5 668.5,-79.5 668.5,-58.5 591.5,-58.5"/>
<text text-anchor="middle" x="630" y="-66.5" font-family="Verdana" font-size="10.00">XmlSource.h</text>
</g>
<!-- Node8&#45;&gt;Node12 -->
<g id="edge26" class="edge"><title>Node8&#45;&gt;Node12</title>
<path fill="none" stroke="midnightblue" d="M520.266,-116.497C541.478,-107.315 572.498,-93.8889 596.15,-83.6516"/>
<polygon fill="midnightblue" stroke="midnightblue" points="597.674,-86.8055 605.461,-79.6212 594.894,-80.3815 597.674,-86.8055"/>
</g>
<!-- Node13 -->
<g id="node27" class="node"><title>Node13</title>
<a xlink:href="PathNavigator_8h.html" target="_top" xlink:title="PathNavigator.h">
<polygon fill="white" stroke="black" points="362,-58.5 362,-79.5 454,-79.5 454,-58.5 362,-58.5"/>
<text text-anchor="middle" x="408" y="-66.5" font-family="Verdana" font-size="10.00">PathNavigator.h</text>
</a>
</g>
<!-- Node8&#45;&gt;Node13 -->
<g id="edge28" class="edge"><title>Node8&#45;&gt;Node13</title>
<path fill="none" stroke="midnightblue" d="M479.859,-116.362C466.586,-107.614 447.568,-95.0786 432.43,-85.1015"/>
<polygon fill="midnightblue" stroke="midnightblue" points="434.314,-82.1515 424.038,-79.5707 430.462,-87.9962 434.314,-82.1515"/>
</g>
<!-- Node13&#45;&gt;Node6 -->
<g id="edge32" class="edge"><title>Node13&#45;&gt;Node6</title>
<path fill="none" stroke="midnightblue" d="M372.144,-58.4966C335.021,-47.6222 277.567,-30.7924 241.952,-20.3598"/>
<polygon fill="midnightblue" stroke="midnightblue" points="242.665,-16.9216 232.085,-17.4692 240.697,-23.6393 242.665,-16.9216"/>
</g>
<!-- Node13&#45;&gt;Node9 -->
<g id="edge30" class="edge"><title>Node13&#45;&gt;Node9</title>
<path fill="none" stroke="midnightblue" d="M440.053,-58.4966C471.606,-48.1574 519.588,-32.4345 551.598,-21.9451"/>
<polygon fill="midnightblue" stroke="midnightblue" points="552.976,-25.1768 561.389,-18.7369 550.797,-18.5249 552.976,-25.1768"/>
</g>
<!-- Node13&#45;&gt;Node10 -->
<g id="edge34" class="edge"><title>Node13&#45;&gt;Node10</title>
<path fill="none" stroke="midnightblue" d="M408,-58.3619C408,-50.9219 408,-40.7427 408,-31.7276"/>
<polygon fill="midnightblue" stroke="midnightblue" points="411.5,-31.5706 408,-21.5707 404.5,-31.5707 411.5,-31.5706"/>
</g>
<!-- Node14&#45;&gt;Node6 -->
<g id="edge48" class="edge"><title>Node14&#45;&gt;Node6</title>
<path fill="none" stroke="midnightblue" d="M113.874,-116.284C124.699,-107.06 140.383,-93.191 153,-80 168.476,-63.8202 184.588,-43.9941 195.718,-29.7524"/>
<polygon fill="midnightblue" stroke="midnightblue" points="198.605,-31.7409 201.954,-21.6892 193.068,-27.4586 198.605,-31.7409"/>
</g>
<!-- Node14&#45;&gt;Node10 -->
<g id="edge42" class="edge"><title>Node14&#45;&gt;Node10</title>
<path fill="none" stroke="midnightblue" d="M124.975,-116.393C157.055,-102.349 215.842,-77.13 267,-58 302.24,-44.8222 343.078,-31.4086 371.705,-22.3028"/>
<polygon fill="midnightblue" stroke="midnightblue" points="372.815,-25.6229 381.293,-19.2691 370.703,-18.9491 372.815,-25.6229"/>
</g>
<!-- Node15 -->
<g id="node37" class="node"><title>Node15</title>
<a xlink:href="ErrorContext_8h.html" target="_top" xlink:title="ErrorContext.h">
<polygon fill="white" stroke="black" points="58,-58.5 58,-79.5 144,-79.5 144,-58.5 58,-58.5"/>
<text text-anchor="middle" x="101" y="-66.5" font-family="Verdana" font-size="10.00">ErrorContext.h</text>
</a>
</g>
<!-- Node14&#45;&gt;Node15 -->
<g id="edge44" class="edge"><title>Node14&#45;&gt;Node15</title>
<path fill="none" stroke="midnightblue" d="M101,-116.362C101,-108.922 101,-98.7427 101,-89.7276"/>
<polygon fill="midnightblue" stroke="midnightblue" points="104.5,-89.5706 101,-79.5707 97.5001,-89.5707 104.5,-89.5706"/>
</g>
<!-- Node15&#45;&gt;Node6 -->
<g id="edge46" class="edge"><title>Node15&#45;&gt;Node6</title>
<path fill="none" stroke="midnightblue" d="M120.739,-58.4966C137.61,-49.5194 162.109,-36.4835 181.174,-26.3387"/>
<polygon fill="midnightblue" stroke="midnightblue" points="182.856,-29.4086 190.039,-21.6212 179.567,-23.2289 182.856,-29.4086"/>
</g>
</g>
</svg>
