<?xml version="1.0" encoding="UTF-8" standalone="no"?>
<!DOCTYPE svg PUBLIC "-//W3C//DTD SVG 1.1//EN"
 "http://www.w3.org/Graphics/SVG/1.1/DTD/svg11.dtd">
<!-- Generated by graphviz version 2.26.3 (20100126.1600)
 -->
<!-- Title: parameter/SimulatedBackSynchronizer.h Pages: 1 -->
<svg width="706pt" height="320pt"
 viewBox="0.00 0.00 706.00 320.00" xmlns="http://www.w3.org/2000/svg" xmlns:xlink="http://www.w3.org/1999/xlink">
<g id="graph1" class="graph" transform="scale(1 1) rotate(0) translate(4 316)">
<title>parameter/SimulatedBackSynchronizer.h</title>
<polygon fill="white" stroke="white" points="-4,5 -4,-316 703,-316 703,5 -4,5"/>
<!-- Node1 -->
<g id="node1" class="node"><title>Node1</title>
<polygon fill="#bfbfbf" stroke="black" points="417.5,-290.5 417.5,-311.5 630.5,-311.5 630.5,-290.5 417.5,-290.5"/>
<text text-anchor="middle" x="524" y="-298.5" font-family="Verdana" font-size="10.00">parameter/SimulatedBackSynchronizer.h</text>
</g>
<!-- Node2 -->
<g id="node3" class="node"><title>Node2</title>
<a xlink:href="BackSynchronizer_8h.html" target="_top" xlink:title="BackSynchronizer.h">
<polygon fill="white" stroke="black" points="274,-232.5 274,-253.5 384,-253.5 384,-232.5 274,-232.5"/>
<text text-anchor="middle" x="329" y="-240.5" font-family="Verdana" font-size="10.00">BackSynchronizer.h</text>
</a>
</g>
<!-- Node1&#45;&gt;Node2 -->
<g id="edge2" class="edge"><title>Node1&#45;&gt;Node2</title>
<path fill="none" stroke="midnightblue" d="M488.687,-290.497C456.621,-280.959 409.155,-266.841 374.304,-256.475"/>
<polygon fill="midnightblue" stroke="midnightblue" points="374.962,-253.019 364.379,-253.523 372.966,-259.729 374.962,-253.019"/>
</g>
<!-- Node5 -->
<g id="node9" class="node"><title>Node5</title>
<polygon fill="white" stroke="#bfbfbf" points="483,-0.5 483,-21.5 527,-21.5 527,-0.5 483,-0.5"/>
<text text-anchor="middle" x="505" y="-8.5" font-family="Verdana" font-size="10.00">string</text>
</g>
<!-- Node1&#45;&gt;Node5 -->
<g id="edge48" class="edge"><title>Node1&#45;&gt;Node5</title>
<path fill="none" stroke="midnightblue" d="M524,-290.444C524,-270.062 524,-223.868 524,-185 524,-185 524,-185 524,-127 524,-93.175 516.035,-54.5229 510.419,-31.474"/>
<polygon fill="midnightblue" stroke="midnightblue" points="513.812,-30.6159 507.969,-21.7784 507.026,-32.3312 513.812,-30.6159"/>
</g>
<!-- Node13 -->
<g id="node32" class="node"><title>Node13</title>
<a xlink:href="ParameterAccessContext_8h.html" target="_top" xlink:title="ParameterAccessContext.h">
<polygon fill="white" stroke="black" points="551.5,-116.5 551.5,-137.5 698.5,-137.5 698.5,-116.5 551.5,-116.5"/>
<text text-anchor="middle" x="625" y="-124.5" font-family="Verdana" font-size="10.00">ParameterAccessContext.h</text>
</a>
</g>
<!-- Node1&#45;&gt;Node13 -->
<g id="edge38" class="edge"><title>Node1&#45;&gt;Node13</title>
<path fill="none" stroke="midnightblue" d="M530.166,-290.377C546.679,-261.93 592.097,-183.684 613.525,-146.769"/>
<polygon fill="midnightblue" stroke="midnightblue" points="616.664,-148.333 618.657,-137.928 610.61,-144.819 616.664,-148.333"/>
</g>
<!-- Node3 -->
<g id="node5" class="node"><title>Node3</title>
<a xlink:href="ConfigurableElementAggregator_8h.html" target="_top" xlink:title="ConfigurableElementAggregator.h">
<polygon fill="white" stroke="black" points="317.5,-116.5 317.5,-137.5 496.5,-137.5 496.5,-116.5 317.5,-116.5"/>
<text text-anchor="middle" x="407" y="-124.5" font-family="Verdana" font-size="10.00">ConfigurableElementAggregator.h</text>
</a>
</g>
<!-- Node2&#45;&gt;Node3 -->
<g id="edge4" class="edge"><title>Node2&#45;&gt;Node3</title>
<path fill="none" stroke="midnightblue" d="M336.198,-232.295C349.374,-212.7 377.535,-170.82 394.096,-146.191"/>
<polygon fill="midnightblue" stroke="midnightblue" points="397.144,-147.931 399.819,-137.679 391.335,-144.025 397.144,-147.931"/>
</g>
<!-- Node4 -->
<g id="node7" class="node"><title>Node4</title>
<polygon fill="white" stroke="#bfbfbf" points="390,-58.5 390,-79.5 420,-79.5 420,-58.5 390,-58.5"/>
<text text-anchor="middle" x="405" y="-66.5" font-family="Verdana" font-size="10.00">list</text>
</g>
<!-- Node2&#45;&gt;Node4 -->
<g id="edge36" class="edge"><title>Node2&#45;&gt;Node4</title>
<path fill="none" stroke="midnightblue" d="M322.783,-232.171C310.365,-208.963 285.609,-153.496 309,-116 313.133,-109.374 353.336,-91.1415 380.388,-79.4302"/>
<polygon fill="midnightblue" stroke="midnightblue" points="381.862,-82.6067 389.669,-75.4442 379.099,-76.1749 381.862,-82.6067"/>
</g>
<!-- Node6 -->
<g id="node11" class="node"><title>Node6</title>
<a xlink:href="ConfigurableElement_8h.html" target="_top" xlink:title="ConfigurableElement.h">
<polygon fill="white" stroke="black" points="137.5,-174.5 137.5,-195.5 262.5,-195.5 262.5,-174.5 137.5,-174.5"/>
<text text-anchor="middle" x="200" y="-182.5" font-family="Verdana" font-size="10.00">ConfigurableElement.h</text>
</a>
</g>
<!-- Node2&#45;&gt;Node6 -->
<g id="edge10" class="edge"><title>Node2&#45;&gt;Node6</title>
<path fill="none" stroke="midnightblue" d="M305.639,-232.497C285.309,-223.356 255.622,-210.008 232.891,-199.788"/>
<polygon fill="midnightblue" stroke="midnightblue" points="234.179,-196.53 223.623,-195.621 231.308,-202.914 234.179,-196.53"/>
</g>
<!-- Node3&#45;&gt;Node4 -->
<g id="edge6" class="edge"><title>Node3&#45;&gt;Node4</title>
<path fill="none" stroke="midnightblue" d="M406.633,-116.362C406.377,-108.922 406.026,-98.7427 405.715,-89.7276"/>
<polygon fill="midnightblue" stroke="midnightblue" points="409.207,-89.4441 405.365,-79.5707 402.211,-89.6854 409.207,-89.4441"/>
</g>
<!-- Node3&#45;&gt;Node5 -->
<g id="edge8" class="edge"><title>Node3&#45;&gt;Node5</title>
<path fill="none" stroke="midnightblue" d="M416.044,-116.295C432.744,-96.5271 468.605,-54.0801 489.333,-29.5443"/>
<polygon fill="midnightblue" stroke="midnightblue" points="492.198,-31.5768 495.978,-21.6792 486.851,-27.0593 492.198,-31.5768"/>
</g>
<!-- Node6&#45;&gt;Node4 -->
<g id="edge34" class="edge"><title>Node6&#45;&gt;Node4</title>
<path fill="none" stroke="midnightblue" d="M209.296,-174.239C222.691,-159.32 248.814,-132.346 276,-116 316.482,-91.6589 331.693,-96.3769 376,-80 377.421,-79.4749 378.879,-78.9325 380.35,-78.3828"/>
<polygon fill="midnightblue" stroke="midnightblue" points="381.844,-81.5601 389.967,-74.7578 379.375,-75.01 381.844,-81.5601"/>
</g>
<!-- Node7 -->
<g id="node13" class="node"><title>Node7</title>
<a xlink:href="Element_8h.html" target="_top" xlink:title="Element.h">
<polygon fill="white" stroke="black" points="159.5,-116.5 159.5,-137.5 224.5,-137.5 224.5,-116.5 159.5,-116.5"/>
<text text-anchor="middle" x="192" y="-124.5" font-family="Verdana" font-size="10.00">Element.h</text>
</a>
</g>
<!-- Node6&#45;&gt;Node7 -->
<g id="edge12" class="edge"><title>Node6&#45;&gt;Node7</title>
<path fill="none" stroke="midnightblue" d="M198.533,-174.362C197.506,-166.922 196.102,-156.743 194.859,-147.728"/>
<polygon fill="midnightblue" stroke="midnightblue" points="198.292,-146.999 193.458,-137.571 191.357,-147.955 198.292,-146.999"/>
</g>
<!-- Node7&#45;&gt;Node4 -->
<g id="edge20" class="edge"><title>Node7&#45;&gt;Node4</title>
<path fill="none" stroke="midnightblue" d="M224.666,-119.125C269.556,-108.223 347.944,-88.8733 376,-80 377.412,-79.5535 378.855,-79.0759 380.307,-78.5792"/>
<polygon fill="midnightblue" stroke="midnightblue" points="381.555,-81.8494 389.762,-75.1481 379.167,-75.2693 381.555,-81.8494"/>
</g>
<!-- Node7&#45;&gt;Node5 -->
<g id="edge14" class="edge"><title>Node7&#45;&gt;Node5</title>
<path fill="none" stroke="midnightblue" d="M224.569,-119.117C255.674,-111.067 303.523,-97.3117 343,-80 360.872,-72.1625 363.373,-66.3749 381,-58 411.474,-43.5212 447.693,-30.2174 473.093,-21.488"/>
<polygon fill="midnightblue" stroke="midnightblue" points="474.253,-24.7903 482.597,-18.2614 472.003,-18.1618 474.253,-24.7903"/>
</g>
<!-- Node8 -->
<g id="node16" class="node"><title>Node8</title>
<polygon fill="white" stroke="#bfbfbf" points="-0.5,-0.5 -0.5,-21.5 46.5,-21.5 46.5,-0.5 -0.5,-0.5"/>
<text text-anchor="middle" x="23" y="-8.5" font-family="Verdana" font-size="10.00">vector</text>
</g>
<!-- Node7&#45;&gt;Node8 -->
<g id="edge16" class="edge"><title>Node7&#45;&gt;Node8</title>
<path fill="none" stroke="midnightblue" d="M159.491,-124.332C127.503,-120.054 79.1921,-108.926 49,-80 35.6856,-67.2437 29.1229,-46.9983 25.9293,-31.7296"/>
<polygon fill="midnightblue" stroke="midnightblue" points="29.3383,-30.9075 24.1509,-21.6695 22.4452,-32.1261 29.3383,-30.9075"/>
</g>
<!-- Node9 -->
<g id="node18" class="node"><title>Node9</title>
<polygon fill="white" stroke="#bfbfbf" points="85.5,-0.5 85.5,-21.5 138.5,-21.5 138.5,-0.5 85.5,-0.5"/>
<text text-anchor="middle" x="112" y="-8.5" font-family="Verdana" font-size="10.00">stdint.h</text>
</g>
<!-- Node7&#45;&gt;Node9 -->
<g id="edge18" class="edge"><title>Node7&#45;&gt;Node9</title>
<path fill="none" stroke="midnightblue" d="M159.392,-120.181C123.442,-111.923 69.0767,-96.9921 57,-80 43.7807,-61.4002 64.5661,-41.0845 84.2597,-27.347"/>
<polygon fill="midnightblue" stroke="midnightblue" points="86.3933,-30.1326 92.8171,-21.7073 82.5413,-24.2877 86.3933,-30.1326"/>
</g>
<!-- Node10 -->
<g id="node21" class="node"><title>Node10</title>
<polygon fill="white" stroke="#bfbfbf" points="176,-58.5 176,-79.5 240,-79.5 240,-58.5 176,-58.5"/>
<text text-anchor="middle" x="208" y="-66.5" font-family="Verdana" font-size="10.00">XmlSink.h</text>
</g>
<!-- Node7&#45;&gt;Node10 -->
<g id="edge22" class="edge"><title>Node7&#45;&gt;Node10</title>
<path fill="none" stroke="midnightblue" d="M194.935,-116.362C197.01,-108.84 199.857,-98.5187 202.364,-89.4308"/>
<polygon fill="midnightblue" stroke="midnightblue" points="205.799,-90.1414 205.084,-79.5707 199.051,-88.2798 205.799,-90.1414"/>
</g>
<!-- Node11 -->
<g id="node23" class="node"><title>Node11</title>
<polygon fill="white" stroke="#bfbfbf" points="257.5,-58.5 257.5,-79.5 334.5,-79.5 334.5,-58.5 257.5,-58.5"/>
<text text-anchor="middle" x="296" y="-66.5" font-family="Verdana" font-size="10.00">XmlSource.h</text>
</g>
<!-- Node7&#45;&gt;Node11 -->
<g id="edge24" class="edge"><title>Node7&#45;&gt;Node11</title>
<path fill="none" stroke="midnightblue" d="M211.075,-116.362C227.055,-107.45 250.081,-94.6087 268.127,-84.5447"/>
<polygon fill="midnightblue" stroke="midnightblue" points="270.017,-87.4982 277.046,-79.5707 266.607,-81.3846 270.017,-87.4982"/>
</g>
<!-- Node12 -->
<g id="node25" class="node"><title>Node12</title>
<a xlink:href="PathNavigator_8h.html" target="_top" xlink:title="PathNavigator.h">
<polygon fill="white" stroke="black" points="66,-58.5 66,-79.5 158,-79.5 158,-58.5 66,-58.5"/>
<text text-anchor="middle" x="112" y="-66.5" font-family="Verdana" font-size="10.00">PathNavigator.h</text>
</a>
</g>
<!-- Node7&#45;&gt;Node12 -->
<g id="edge26" class="edge"><title>Node7&#45;&gt;Node12</title>
<path fill="none" stroke="midnightblue" d="M177.327,-116.362C165.486,-107.777 148.615,-95.5459 134.984,-85.6636"/>
<polygon fill="midnightblue" stroke="midnightblue" points="136.731,-82.6067 126.58,-79.5707 132.622,-88.274 136.731,-82.6067"/>
</g>
<!-- Node12&#45;&gt;Node5 -->
<g id="edge30" class="edge"><title>Node12&#45;&gt;Node5</title>
<path fill="none" stroke="midnightblue" d="M158.177,-59.5584C161.159,-59.0124 164.12,-58.4878 167,-58 278.862,-39.0534 412.506,-22.1525 472.748,-14.8389"/>
<polygon fill="midnightblue" stroke="midnightblue" points="473.276,-18.3006 482.784,-13.6269 472.437,-11.3511 473.276,-18.3006"/>
</g>
<!-- Node12&#45;&gt;Node8 -->
<g id="edge28" class="edge"><title>Node12&#45;&gt;Node8</title>
<path fill="none" stroke="midnightblue" d="M95.676,-58.3619C82.2522,-49.6138 63.0171,-37.0786 47.7074,-27.1015"/>
<polygon fill="midnightblue" stroke="midnightblue" points="49.5094,-24.0982 39.2205,-21.5707 45.6875,-29.9628 49.5094,-24.0982"/>
</g>
<!-- Node12&#45;&gt;Node9 -->
<g id="edge32" class="edge"><title>Node12&#45;&gt;Node9</title>
<path fill="none" stroke="midnightblue" d="M112,-58.3619C112,-50.9219 112,-40.7427 112,-31.7276"/>
<polygon fill="midnightblue" stroke="midnightblue" points="115.5,-31.5706 112,-21.5707 108.5,-31.5707 115.5,-31.5706"/>
</g>
<!-- Node13&#45;&gt;Node5 -->
<g id="edge46" class="edge"><title>Node13&#45;&gt;Node5</title>
<path fill="none" stroke="midnightblue" d="M613.926,-116.295C593.298,-96.3545 548.797,-53.337 523.523,-28.9056"/>
<polygon fill="midnightblue" stroke="midnightblue" points="525.67,-26.113 516.047,-21.6792 520.805,-31.1459 525.67,-26.113"/>
</g>
<!-- Node13&#45;&gt;Node9 -->
<g id="edge40" class="edge"><title>Node13&#45;&gt;Node9</title>
<path fill="none" stroke="midnightblue" d="M600.099,-116.495C563.323,-101.384 492.029,-73.6143 429,-58 329.148,-33.2635 208.168,-19.7414 148.669,-14.1383"/>
<polygon fill="midnightblue" stroke="midnightblue" points="148.913,-10.646 138.634,-13.2139 148.271,-17.6165 148.913,-10.646"/>
</g>
<!-- Node14 -->
<g id="node35" class="node"><title>Node14</title>
<a xlink:href="ErrorContext_8h.html" target="_top" xlink:title="ErrorContext.h">
<polygon fill="white" stroke="black" points="590,-58.5 590,-79.5 676,-79.5 676,-58.5 590,-58.5"/>
<text text-anchor="middle" x="633" y="-66.5" font-family="Verdana" font-size="10.00">ErrorContext.h</text>
</a>
</g>
<!-- Node13&#45;&gt;Node14 -->
<g id="edge42" class="edge"><title>Node13&#45;&gt;Node14</title>
<path fill="none" stroke="midnightblue" d="M626.467,-116.362C627.494,-108.922 628.898,-98.7427 630.141,-89.7276"/>
<polygon fill="midnightblue" stroke="midnightblue" points="633.643,-89.9551 631.542,-79.5707 626.708,-88.9986 633.643,-89.9551"/>
</g>
<!-- Node14&#45;&gt;Node5 -->
<g id="edge44" class="edge"><title>Node14&#45;&gt;Node5</title>
<path fill="none" stroke="midnightblue" d="M609.82,-58.4966C589.27,-49.1848 559.082,-35.5061 536.375,-25.2167"/>
<polygon fill="midnightblue" stroke="midnightblue" points="537.704,-21.9765 527.151,-21.0371 534.815,-28.3525 537.704,-21.9765"/>
</g>
</g>
</svg>
