<?xml version="1.0" encoding="UTF-8" standalone="no"?>
<!DOCTYPE svg PUBLIC "-//W3C//DTD SVG 1.1//EN"
 "http://www.w3.org/Graphics/SVG/1.1/DTD/svg11.dtd">
<!-- Generated by graphviz version 2.26.3 (20100126.1600)
 -->
<!-- Title: parameter/SimulatedBackSynchronizer.h Pages: 1 -->
<svg width="408pt" height="88pt"
 viewBox="0.00 0.00 408.00 88.00" xmlns="http://www.w3.org/2000/svg" xmlns:xlink="http://www.w3.org/1999/xlink">
<g id="graph1" class="graph" transform="scale(1 1) rotate(0) translate(4 84)">
<title>parameter/SimulatedBackSynchronizer.h</title>
<polygon fill="white" stroke="white" points="-4,5 -4,-84 405,-84 405,5 -4,5"/>
<!-- Node1 -->
<g id="node1" class="node"><title>Node1</title>
<polygon fill="#bfbfbf" stroke="black" points="76.5,-58.5 76.5,-79.5 289.5,-79.5 289.5,-58.5 76.5,-58.5"/>
<text text-anchor="middle" x="183" y="-66.5" font-family="Verdana" font-size="10.00">parameter/SimulatedBackSynchronizer.h</text>
</g>
<!-- Node2 -->
<g id="node3" class="node"><title>Node2</title>
<a xlink:href="ParameterMgr_8cpp.html" target="_top" xlink:title="parameter/ParameterMgr.cpp">
<polygon fill="white" stroke="black" points="0,-0.5 0,-21.5 158,-21.5 158,-0.5 0,-0.5"/>
<text text-anchor="middle" x="79" y="-8.5" font-family="Verdana" font-size="10.00">parameter/ParameterMgr.cpp</text>
</a>
</g>
<!-- Node1&#45;&gt;Node2 -->
<g id="edge2" class="edge"><title>Node1&#45;&gt;Node2</title>
<path fill="none" stroke="midnightblue" d="M154.99,-53.379C136.919,-43.3011 113.898,-30.4624 97.9543,-21.5707"/>
<polygon fill="midnightblue" stroke="midnightblue" points="153.486,-56.548 163.925,-58.3619 156.896,-50.4344 153.486,-56.548"/>
</g>
<!-- Node3 -->
<g id="node5" class="node"><title>Node3</title>
<a xlink:href="SimulatedBackSynchronizer_8cpp.html" target="_top" xlink:title="parameter/SimulatedBackSynchronizer.cpp">
<polygon fill="white" stroke="black" points="176,-0.5 176,-21.5 400,-21.5 400,-0.5 176,-0.5"/>
<text text-anchor="middle" x="288" y="-8.5" font-family="Verdana" font-size="10.00">parameter/SimulatedBackSynchronizer.cpp</text>
</a>
</g>
<!-- Node1&#45;&gt;Node3 -->
<g id="edge4" class="edge"><title>Node1&#45;&gt;Node3</title>
<path fill="none" stroke="midnightblue" d="M211.029,-53.5175C229.311,-43.4189 252.692,-30.5032 268.863,-21.5707"/>
<polygon fill="midnightblue" stroke="midnightblue" points="209.32,-50.463 202.259,-58.3619 212.704,-56.5903 209.32,-50.463"/>
</g>
</g>
</svg>
