<?xml version="1.0" encoding="UTF-8" standalone="no"?>
<!DOCTYPE svg PUBLIC "-//W3C//DTD SVG 1.1//EN"
 "http://www.w3.org/Graphics/SVG/1.1/DTD/svg11.dtd">
<!-- Generated by graphviz version 2.26.3 (20100126.1600)
 -->
<!-- Title: remote&#45;processor/Socket.h Pages: 1 -->
<svg width="854pt" height="174pt"
 viewBox="0.00 0.00 854.00 174.00" xmlns="http://www.w3.org/2000/svg" xmlns:xlink="http://www.w3.org/1999/xlink">
<g id="graph1" class="graph" transform="scale(1 1) rotate(0) translate(4 170)">
<title>remote&#45;processor/Socket.h</title>
<polygon fill="white" stroke="white" points="-4,5 -4,-170 851,-170 851,5 -4,5"/>
<!-- Node1 -->
<g id="node1" class="node"><title>Node1</title>
<polygon fill="#bfbfbf" stroke="black" points="424,-144.5 424,-165.5 572,-165.5 572,-144.5 424,-144.5"/>
<text text-anchor="middle" x="498" y="-152.5" font-family="Verdana" font-size="10.00">remote&#45;processor/Socket.h</text>
</g>
<!-- Node2 -->
<g id="node3" class="node"><title>Node2</title>
<a xlink:href="ConnectionSocket_8h.html" target="_top" xlink:title="remote&#45;processor/Connection\lSocket.h">
<polygon fill="white" stroke="black" points="158,-73 158,-107 318,-107 318,-73 158,-73"/>
<text text-anchor="start" x="166" y="-94" font-family="Verdana" font-size="10.00">remote&#45;processor/Connection</text>
<text text-anchor="middle" x="238" y="-81" font-family="Verdana" font-size="10.00">Socket.h</text>
</a>
</g>
<!-- Node1&#45;&gt;Node2 -->
<g id="edge2" class="edge"><title>Node1&#45;&gt;Node2</title>
<path fill="none" stroke="midnightblue" d="M446.081,-142.02C405.904,-131.976 349.92,-117.98 306.142,-107.035"/>
<polygon fill="midnightblue" stroke="midnightblue" points="445.387,-145.454 455.938,-144.484 447.085,-138.663 445.387,-145.454"/>
</g>
<!-- Node5 -->
<g id="node9" class="node"><title>Node5</title>
<a xlink:href="ListeningSocket_8h.html" target="_top" xlink:title="remote&#45;processor/Listening\lSocket.h">
<polygon fill="white" stroke="black" points="335.5,-73 335.5,-107 484.5,-107 484.5,-73 335.5,-73"/>
<text text-anchor="start" x="343.5" y="-94" font-family="Verdana" font-size="10.00">remote&#45;processor/Listening</text>
<text text-anchor="middle" x="410" y="-81" font-family="Verdana" font-size="10.00">Socket.h</text>
</a>
</g>
<!-- Node1&#45;&gt;Node5 -->
<g id="edge8" class="edge"><title>Node1&#45;&gt;Node5</title>
<path fill="none" stroke="midnightblue" d="M475.117,-138.098C462.207,-128.562 446.119,-116.679 433.164,-107.11"/>
<polygon fill="midnightblue" stroke="midnightblue" points="473.345,-141.14 483.469,-144.267 477.504,-135.51 473.345,-141.14"/>
</g>
<!-- Node8 -->
<g id="node15" class="node"><title>Node8</title>
<a xlink:href="Message_8cpp.html" target="_top" xlink:title="remote&#45;processor/Message.cpp">
<polygon fill="white" stroke="black" points="501.5,-79.5 501.5,-100.5 670.5,-100.5 670.5,-79.5 501.5,-79.5"/>
<text text-anchor="middle" x="586" y="-87.5" font-family="Verdana" font-size="10.00">remote&#45;processor/Message.cpp</text>
</a>
</g>
<!-- Node1&#45;&gt;Node8 -->
<g id="edge14" class="edge"><title>Node1&#45;&gt;Node8</title>
<path fill="none" stroke="midnightblue" d="M520.883,-138.098C536.97,-126.215 557.994,-110.686 571.739,-100.534"/>
<polygon fill="midnightblue" stroke="midnightblue" points="518.496,-135.51 512.531,-144.267 522.655,-141.14 518.496,-135.51"/>
</g>
<!-- Node9 -->
<g id="node17" class="node"><title>Node9</title>
<a xlink:href="Socket_8cpp.html" target="_top" xlink:title="remote&#45;processor/Socket.cpp">
<polygon fill="white" stroke="black" points="687.5,-79.5 687.5,-100.5 846.5,-100.5 846.5,-79.5 687.5,-79.5"/>
<text text-anchor="middle" x="767" y="-87.5" font-family="Verdana" font-size="10.00">remote&#45;processor/Socket.cpp</text>
</a>
</g>
<!-- Node1&#45;&gt;Node9 -->
<g id="edge16" class="edge"><title>Node1&#45;&gt;Node9</title>
<path fill="none" stroke="midnightblue" d="M551.27,-142.128C601.734,-129.934 676.59,-111.846 723.544,-100.501"/>
<polygon fill="midnightblue" stroke="midnightblue" points="550.417,-138.733 541.518,-144.484 552.061,-145.538 550.417,-138.733"/>
</g>
<!-- Node3 -->
<g id="node5" class="node"><title>Node3</title>
<a xlink:href="main_8cpp.html" target="_top" xlink:title="remote&#45;process/main.cpp">
<polygon fill="white" stroke="black" points="0,-7.5 0,-28.5 140,-28.5 140,-7.5 0,-7.5"/>
<text text-anchor="middle" x="70" y="-15.5" font-family="Verdana" font-size="10.00">remote&#45;process/main.cpp</text>
</a>
</g>
<!-- Node2&#45;&gt;Node3 -->
<g id="edge4" class="edge"><title>Node2&#45;&gt;Node3</title>
<path fill="none" stroke="midnightblue" d="M188.889,-68.9523C158.064,-55.7418 119.618,-39.2647 94.9388,-28.688"/>
<polygon fill="midnightblue" stroke="midnightblue" points="187.616,-72.2148 198.186,-72.937 190.374,-65.7807 187.616,-72.2148"/>
</g>
<!-- Node4 -->
<g id="node7" class="node"><title>Node4</title>
<a xlink:href="ConnectionSocket_8cpp.html" target="_top" xlink:title="remote&#45;processor/Connection\lSocket.cpp">
<polygon fill="white" stroke="black" points="158,-1 158,-35 318,-35 318,-1 158,-1"/>
<text text-anchor="start" x="166" y="-22" font-family="Verdana" font-size="10.00">remote&#45;processor/Connection</text>
<text text-anchor="middle" x="238" y="-9" font-family="Verdana" font-size="10.00">Socket.cpp</text>
</a>
</g>
<!-- Node2&#45;&gt;Node4 -->
<g id="edge6" class="edge"><title>Node2&#45;&gt;Node4</title>
<path fill="none" stroke="midnightblue" d="M238,-62.7193C238,-53.572 238,-43.6255 238,-35.4407"/>
<polygon fill="midnightblue" stroke="midnightblue" points="234.5,-62.937 238,-72.937 241.5,-62.937 234.5,-62.937"/>
</g>
<!-- Node6 -->
<g id="node11" class="node"><title>Node6</title>
<a xlink:href="ListeningSocket_8cpp.html" target="_top" xlink:title="remote&#45;processor/Listening\lSocket.cpp">
<polygon fill="white" stroke="black" points="335.5,-1 335.5,-35 484.5,-35 484.5,-1 335.5,-1"/>
<text text-anchor="start" x="343.5" y="-22" font-family="Verdana" font-size="10.00">remote&#45;processor/Listening</text>
<text text-anchor="middle" x="410" y="-9" font-family="Verdana" font-size="10.00">Socket.cpp</text>
</a>
</g>
<!-- Node5&#45;&gt;Node6 -->
<g id="edge10" class="edge"><title>Node5&#45;&gt;Node6</title>
<path fill="none" stroke="midnightblue" d="M410,-62.7193C410,-53.572 410,-43.6255 410,-35.4407"/>
<polygon fill="midnightblue" stroke="midnightblue" points="406.5,-62.937 410,-72.937 413.5,-62.937 406.5,-62.937"/>
</g>
<!-- Node7 -->
<g id="node13" class="node"><title>Node7</title>
<a xlink:href="RemoteProcessorServer_8cpp.html" target="_top" xlink:title="remote&#45;processor/RemoteProcessor\lServer.cpp">
<polygon fill="white" stroke="black" points="502,-1 502,-35 692,-35 692,-1 502,-1"/>
<text text-anchor="start" x="510" y="-22" font-family="Verdana" font-size="10.00">remote&#45;processor/RemoteProcessor</text>
<text text-anchor="middle" x="597" y="-9" font-family="Verdana" font-size="10.00">Server.cpp</text>
</a>
</g>
<!-- Node5&#45;&gt;Node7 -->
<g id="edge12" class="edge"><title>Node5&#45;&gt;Node7</title>
<path fill="none" stroke="midnightblue" d="M464.001,-69.2081C492.132,-58.3768 526.108,-45.2952 552.678,-35.0651"/>
<polygon fill="midnightblue" stroke="midnightblue" points="462.391,-66.0775 454.316,-72.937 464.906,-72.6101 462.391,-66.0775"/>
</g>
</g>
</svg>
