<?xml version="1.0" encoding="UTF-8" standalone="no"?>
<!DOCTYPE svg PUBLIC "-//W3C//DTD SVG 1.1//EN"
 "http://www.w3.org/Graphics/SVG/1.1/DTD/svg11.dtd">
<!-- Generated by graphviz version 2.26.3 (20100126.1600)
 -->
<!-- Title: parameter/StringParameterType.cpp Pages: 1 -->
<svg width="784pt" height="508pt"
 viewBox="0.00 0.00 783.98 508.00" xmlns="http://www.w3.org/2000/svg" xmlns:xlink="http://www.w3.org/1999/xlink">
<g id="graph1" class="graph" transform="scale(1 1) rotate(0) translate(4 504)">
<title>parameter/StringParameterType.cpp</title>
<polygon fill="white" stroke="white" points="-4,5 -4,-504 780.975,-504 780.975,5 -4,5"/>
<!-- Node1 -->
<g id="node1" class="node"><title>Node1</title>
<polygon fill="#bfbfbf" stroke="black" points="320.5,-465 320.5,-499 469.5,-499 469.5,-465 320.5,-465"/>
<text text-anchor="start" x="328.5" y="-486" font-family="Verdana" font-size="10.00">parameter/StringParameter</text>
<text text-anchor="middle" x="395" y="-473" font-family="Verdana" font-size="10.00">Type.cpp</text>
</g>
<!-- Node2 -->
<g id="node3" class="node"><title>Node2</title>
<a xlink:href="StringParameterType_8h.html" target="_top" xlink:title="StringParameterType.h">
<polygon fill="white" stroke="black" points="622.5,-232.5 622.5,-253.5 747.5,-253.5 747.5,-232.5 622.5,-232.5"/>
<text text-anchor="middle" x="685" y="-240.5" font-family="Verdana" font-size="10.00">StringParameterType.h</text>
</a>
</g>
<!-- Node1&#45;&gt;Node2 -->
<g id="edge2" class="edge"><title>Node1&#45;&gt;Node2</title>
<path fill="none" stroke="midnightblue" d="M431.563,-464.97C485.014,-438.576 585.062,-383.312 649,-312 661.774,-297.752 671.433,-278.151 677.513,-263.48"/>
<polygon fill="midnightblue" stroke="midnightblue" points="680.91,-264.404 681.301,-253.816 674.393,-261.849 680.91,-264.404"/>
</g>
<!-- Node12 -->
<g id="node29" class="node"><title>Node12</title>
<a xlink:href="StringParameter_8h.html" target="_top" xlink:title="StringParameter.h">
<polygon fill="white" stroke="black" points="62,-406.5 62,-427.5 166,-427.5 166,-406.5 62,-406.5"/>
<text text-anchor="middle" x="114" y="-414.5" font-family="Verdana" font-size="10.00">StringParameter.h</text>
</a>
</g>
<!-- Node1&#45;&gt;Node12 -->
<g id="edge34" class="edge"><title>Node1&#45;&gt;Node12</title>
<path fill="none" stroke="midnightblue" d="M321.171,-464.922C273.651,-453.93 212.884,-439.874 169.474,-429.832"/>
<polygon fill="midnightblue" stroke="midnightblue" points="170.192,-426.406 159.66,-427.562 168.614,-433.226 170.192,-426.406"/>
</g>
<!-- Node3 -->
<g id="node5" class="node"><title>Node3</title>
<polygon fill="white" stroke="#bfbfbf" points="49.5,-0.5 49.5,-21.5 102.5,-21.5 102.5,-0.5 49.5,-0.5"/>
<text text-anchor="middle" x="76" y="-8.5" font-family="Verdana" font-size="10.00">stdint.h</text>
</g>
<!-- Node2&#45;&gt;Node3 -->
<g id="edge4" class="edge"><title>Node2&#45;&gt;Node3</title>
<path fill="none" stroke="midnightblue" d="M622.434,-239.221C555.799,-233.998 447.778,-222.073 358,-196 237.265,-160.936 184.913,-172.716 100,-80 87.7304,-66.6029 81.6775,-46.5969 78.7257,-31.5715"/>
<polygon fill="midnightblue" stroke="midnightblue" points="82.1733,-30.9668 77.0798,-21.6766 75.2681,-32.1154 82.1733,-30.9668"/>
</g>
<!-- Node4 -->
<g id="node7" class="node"><title>Node4</title>
<a xlink:href="TypeElement_8h.html" target="_top" xlink:title="TypeElement.h">
<polygon fill="white" stroke="black" points="585,-174.5 585,-195.5 671,-195.5 671,-174.5 585,-174.5"/>
<text text-anchor="middle" x="628" y="-182.5" font-family="Verdana" font-size="10.00">TypeElement.h</text>
</a>
</g>
<!-- Node2&#45;&gt;Node4 -->
<g id="edge6" class="edge"><title>Node2&#45;&gt;Node4</title>
<path fill="none" stroke="midnightblue" d="M674.545,-232.362C666.43,-224.104 654.999,-212.472 645.496,-202.803"/>
<polygon fill="midnightblue" stroke="midnightblue" points="647.894,-200.25 638.388,-195.571 642.901,-205.156 647.894,-200.25"/>
</g>
<!-- Node6 -->
<g id="node11" class="node"><title>Node6</title>
<polygon fill="white" stroke="#bfbfbf" points="597,-0.5 597,-21.5 641,-21.5 641,-0.5 597,-0.5"/>
<text text-anchor="middle" x="619" y="-8.5" font-family="Verdana" font-size="10.00">string</text>
</g>
<!-- Node2&#45;&gt;Node6 -->
<g id="edge32" class="edge"><title>Node2&#45;&gt;Node6</title>
<path fill="none" stroke="midnightblue" d="M685.163,-232.107C685.152,-218.392 684.412,-194.182 680,-174 668.34,-120.662 642.749,-61.4118 628.703,-31.1691"/>
<polygon fill="midnightblue" stroke="midnightblue" points="631.687,-29.292 624.258,-21.7389 625.356,-32.2767 631.687,-29.292"/>
</g>
<!-- Node5 -->
<g id="node9" class="node"><title>Node5</title>
<a xlink:href="Element_8h.html" target="_top" xlink:title="Element.h">
<polygon fill="white" stroke="black" points="388.5,-116.5 388.5,-137.5 453.5,-137.5 453.5,-116.5 388.5,-116.5"/>
<text text-anchor="middle" x="421" y="-124.5" font-family="Verdana" font-size="10.00">Element.h</text>
</a>
</g>
<!-- Node4&#45;&gt;Node5 -->
<g id="edge8" class="edge"><title>Node4&#45;&gt;Node5</title>
<path fill="none" stroke="midnightblue" d="M590.514,-174.497C554.838,-164.501 501.203,-149.472 463.851,-139.006"/>
<polygon fill="midnightblue" stroke="midnightblue" points="464.349,-135.511 453.776,-136.184 462.46,-142.252 464.349,-135.511"/>
</g>
<!-- Node4&#45;&gt;Node6 -->
<g id="edge30" class="edge"><title>Node4&#45;&gt;Node6</title>
<path fill="none" stroke="midnightblue" d="M627.451,-174.377C625.998,-146.293 622.035,-69.6735 620.097,-32.2027"/>
<polygon fill="midnightblue" stroke="midnightblue" points="623.577,-31.7335 619.565,-21.9277 616.587,-32.0952 623.577,-31.7335"/>
</g>
<!-- Node5&#45;&gt;Node3 -->
<g id="edge14" class="edge"><title>Node5&#45;&gt;Node3</title>
<path fill="none" stroke="midnightblue" d="M388.402,-123.851C342.919,-118.68 258.42,-106.227 191,-80 156.518,-66.5864 120.534,-43.2393 98.199,-27.459"/>
<polygon fill="midnightblue" stroke="midnightblue" points="100.226,-24.6053 90.0613,-21.6157 96.1427,-30.2914 100.226,-24.6053"/>
</g>
<!-- Node5&#45;&gt;Node6 -->
<g id="edge10" class="edge"><title>Node5&#45;&gt;Node6</title>
<path fill="none" stroke="midnightblue" d="M437.535,-116.44C459.245,-102.661 498.636,-77.9573 533,-58 551.695,-47.1424 573.018,-35.4844 589.755,-26.4953"/>
<polygon fill="midnightblue" stroke="midnightblue" points="591.858,-29.3399 599.025,-21.5373 588.556,-23.1673 591.858,-29.3399"/>
</g>
<!-- Node7 -->
<g id="node13" class="node"><title>Node7</title>
<polygon fill="white" stroke="#bfbfbf" points="166.5,-0.5 166.5,-21.5 213.5,-21.5 213.5,-0.5 166.5,-0.5"/>
<text text-anchor="middle" x="190" y="-8.5" font-family="Verdana" font-size="10.00">vector</text>
</g>
<!-- Node5&#45;&gt;Node7 -->
<g id="edge12" class="edge"><title>Node5&#45;&gt;Node7</title>
<path fill="none" stroke="midnightblue" d="M388.242,-123.844C335.35,-118.096 234.478,-104.222 209,-80 195.957,-67.5999 191.591,-47.143 190.258,-31.7159"/>
<polygon fill="midnightblue" stroke="midnightblue" points="193.745,-31.3687 189.744,-21.5587 186.754,-31.723 193.745,-31.3687"/>
</g>
<!-- Node8 -->
<g id="node16" class="node"><title>Node8</title>
<polygon fill="white" stroke="#bfbfbf" points="542,-58.5 542,-79.5 572,-79.5 572,-58.5 542,-58.5"/>
<text text-anchor="middle" x="557" y="-66.5" font-family="Verdana" font-size="10.00">list</text>
</g>
<!-- Node5&#45;&gt;Node8 -->
<g id="edge16" class="edge"><title>Node5&#45;&gt;Node8</title>
<path fill="none" stroke="midnightblue" d="M445.629,-116.497C470.252,-105.996 507.897,-89.9411 532.481,-79.4565"/>
<polygon fill="midnightblue" stroke="midnightblue" points="534.005,-82.6116 541.831,-75.4692 531.259,-76.1727 534.005,-82.6116"/>
</g>
<!-- Node9 -->
<g id="node18" class="node"><title>Node9</title>
<polygon fill="white" stroke="#bfbfbf" points="218,-58.5 218,-79.5 282,-79.5 282,-58.5 218,-58.5"/>
<text text-anchor="middle" x="250" y="-66.5" font-family="Verdana" font-size="10.00">XmlSink.h</text>
</g>
<!-- Node5&#45;&gt;Node9 -->
<g id="edge18" class="edge"><title>Node5&#45;&gt;Node9</title>
<path fill="none" stroke="midnightblue" d="M390.033,-116.497C362.156,-107.041 321.003,-93.0829 290.518,-82.7428"/>
<polygon fill="midnightblue" stroke="midnightblue" points="291.619,-79.4207 281.025,-79.5231 289.371,-86.0497 291.619,-79.4207"/>
</g>
<!-- Node10 -->
<g id="node20" class="node"><title>Node10</title>
<polygon fill="white" stroke="#bfbfbf" points="299.5,-58.5 299.5,-79.5 376.5,-79.5 376.5,-58.5 299.5,-58.5"/>
<text text-anchor="middle" x="338" y="-66.5" font-family="Verdana" font-size="10.00">XmlSource.h</text>
</g>
<!-- Node5&#45;&gt;Node10 -->
<g id="edge20" class="edge"><title>Node5&#45;&gt;Node10</title>
<path fill="none" stroke="midnightblue" d="M405.777,-116.362C393.375,-107.696 375.654,-95.3126 361.443,-85.3819"/>
<polygon fill="midnightblue" stroke="midnightblue" points="363.329,-82.4297 353.127,-79.5707 359.319,-88.1676 363.329,-82.4297"/>
</g>
<!-- Node11 -->
<g id="node22" class="node"><title>Node11</title>
<a xlink:href="PathNavigator_8h.html" target="_top" xlink:title="PathNavigator.h">
<polygon fill="white" stroke="black" points="394,-58.5 394,-79.5 486,-79.5 486,-58.5 394,-58.5"/>
<text text-anchor="middle" x="440" y="-66.5" font-family="Verdana" font-size="10.00">PathNavigator.h</text>
</a>
</g>
<!-- Node5&#45;&gt;Node11 -->
<g id="edge22" class="edge"><title>Node5&#45;&gt;Node11</title>
<path fill="none" stroke="midnightblue" d="M424.485,-116.362C426.976,-108.758 430.404,-98.294 433.404,-89.1349"/>
<polygon fill="midnightblue" stroke="midnightblue" points="436.75,-90.1634 436.537,-79.5707 430.098,-87.9841 436.75,-90.1634"/>
</g>
<!-- Node11&#45;&gt;Node3 -->
<g id="edge28" class="edge"><title>Node11&#45;&gt;Node3</title>
<path fill="none" stroke="midnightblue" d="M393.816,-59.6014C390.835,-59.0449 387.877,-58.5062 385,-58 286.894,-40.738 170.597,-24.0646 112.646,-16.0121"/>
<polygon fill="midnightblue" stroke="midnightblue" points="112.907,-12.515 102.521,-14.6106 111.947,-19.4488 112.907,-12.515"/>
</g>
<!-- Node11&#45;&gt;Node6 -->
<g id="edge26" class="edge"><title>Node11&#45;&gt;Node6</title>
<path fill="none" stroke="midnightblue" d="M472.416,-58.4966C504.961,-47.9512 554.791,-31.8053 587.138,-21.3239"/>
<polygon fill="midnightblue" stroke="midnightblue" points="588.548,-24.5463 596.982,-18.1342 586.39,-17.8871 588.548,-24.5463"/>
</g>
<!-- Node11&#45;&gt;Node7 -->
<g id="edge24" class="edge"><title>Node11&#45;&gt;Node7</title>
<path fill="none" stroke="midnightblue" d="M394.727,-58.4966C345.486,-47.0728 267.917,-29.0768 223.747,-18.8293"/>
<polygon fill="midnightblue" stroke="midnightblue" points="224.332,-15.3721 213.799,-16.5215 222.75,-22.191 224.332,-15.3721"/>
</g>
<!-- Node12&#45;&gt;Node3 -->
<g id="edge36" class="edge"><title>Node12&#45;&gt;Node3</title>
<path fill="none" stroke="midnightblue" d="M90.9304,-406.408C57.6193,-389.34 0,-352.39 0,-301 0,-301 0,-301 0,-127 0,-86.5104 32.7975,-49.1585 55.3017,-28.2949"/>
<polygon fill="midnightblue" stroke="midnightblue" points="57.6399,-30.8993 62.7618,-21.6247 52.9742,-25.681 57.6399,-30.8993"/>
</g>
<!-- Node13 -->
<g id="node32" class="node"><title>Node13</title>
<a xlink:href="BaseParameter_8h.html" target="_top" xlink:title="BaseParameter.h">
<polygon fill="white" stroke="black" points="64.5,-348.5 64.5,-369.5 163.5,-369.5 163.5,-348.5 64.5,-348.5"/>
<text text-anchor="middle" x="114" y="-356.5" font-family="Verdana" font-size="10.00">BaseParameter.h</text>
</a>
</g>
<!-- Node12&#45;&gt;Node13 -->
<g id="edge38" class="edge"><title>Node12&#45;&gt;Node13</title>
<path fill="none" stroke="midnightblue" d="M114,-406.362C114,-398.922 114,-388.743 114,-379.728"/>
<polygon fill="midnightblue" stroke="midnightblue" points="117.5,-379.571 114,-369.571 110.5,-379.571 117.5,-379.571"/>
</g>
<!-- Node13&#45;&gt;Node3 -->
<g id="edge40" class="edge"><title>Node13&#45;&gt;Node3</title>
<path fill="none" stroke="midnightblue" d="M100.762,-348.375C78.9873,-329.606 38,-288.263 38,-243 38,-243 38,-243 38,-127 38,-91.7411 54.0509,-53.3154 65.2892,-30.7323"/>
<polygon fill="midnightblue" stroke="midnightblue" points="68.4185,-32.3005 69.8946,-21.809 62.1981,-29.0901 68.4185,-32.3005"/>
</g>
<!-- Node13&#45;&gt;Node7 -->
<g id="edge42" class="edge"><title>Node13&#45;&gt;Node7</title>
<path fill="none" stroke="midnightblue" d="M114,-348.444C114,-328.062 114,-281.868 114,-243 114,-243 114,-243 114,-127 114,-86.5104 146.797,-49.1585 169.302,-28.2949"/>
<polygon fill="midnightblue" stroke="midnightblue" points="171.64,-30.8993 176.762,-21.6247 166.974,-25.681 171.64,-30.8993"/>
</g>
<!-- Node14 -->
<g id="node36" class="node"><title>Node14</title>
<a xlink:href="InstanceConfigurableElement_8h.html" target="_top" xlink:title="InstanceConfigurableElement.h">
<polygon fill="white" stroke="black" points="474,-290.5 474,-311.5 640,-311.5 640,-290.5 474,-290.5"/>
<text text-anchor="middle" x="557" y="-298.5" font-family="Verdana" font-size="10.00">InstanceConfigurableElement.h</text>
</a>
</g>
<!-- Node13&#45;&gt;Node14 -->
<g id="edge44" class="edge"><title>Node13&#45;&gt;Node14</title>
<path fill="none" stroke="midnightblue" d="M163.528,-352.515C236.758,-342.928 375.107,-324.814 466.686,-312.824"/>
<polygon fill="midnightblue" stroke="midnightblue" points="467.321,-316.271 476.782,-311.503 466.412,-309.331 467.321,-316.271"/>
</g>
<!-- Node14&#45;&gt;Node4 -->
<g id="edge56" class="edge"><title>Node14&#45;&gt;Node4</title>
<path fill="none" stroke="midnightblue" d="M563.552,-290.295C575.493,-270.786 600.954,-229.188 616.054,-204.518"/>
<polygon fill="midnightblue" stroke="midnightblue" points="619.228,-206.036 621.464,-195.679 613.258,-202.381 619.228,-206.036"/>
</g>
<!-- Node14&#45;&gt;Node6 -->
<g id="edge60" class="edge"><title>Node14&#45;&gt;Node6</title>
<path fill="none" stroke="midnightblue" d="M637.312,-290.484C684.753,-282.7 738.812,-270.568 756,-254 778.901,-231.926 775,-216.808 775,-185 775,-185 775,-185 775,-127 775,-65.6575 696.366,-32.9468 650.754,-19.1327"/>
<polygon fill="midnightblue" stroke="midnightblue" points="651.599,-15.7337 641.02,-16.3185 649.655,-22.4583 651.599,-15.7337"/>
</g>
<!-- Node14&#45;&gt;Node8 -->
<g id="edge58" class="edge"><title>Node14&#45;&gt;Node8</title>
<path fill="none" stroke="midnightblue" d="M557,-290.429C557,-254.648 557,-137.663 557,-89.7481"/>
<polygon fill="midnightblue" stroke="midnightblue" points="560.5,-89.6335 557,-79.6335 553.5,-89.6335 560.5,-89.6335"/>
</g>
<!-- Node15 -->
<g id="node38" class="node"><title>Node15</title>
<a xlink:href="ConfigurableElementWithMapping_8h.html" target="_top" xlink:title="ConfigurableElementWithMapping.h">
<polygon fill="white" stroke="black" points="343,-232.5 343,-253.5 529,-253.5 529,-232.5 343,-232.5"/>
<text text-anchor="middle" x="436" y="-240.5" font-family="Verdana" font-size="10.00">ConfigurableElementWithMapping.h</text>
</a>
</g>
<!-- Node14&#45;&gt;Node15 -->
<g id="edge46" class="edge"><title>Node14&#45;&gt;Node15</title>
<path fill="none" stroke="midnightblue" d="M535.088,-290.497C516.189,-281.438 488.669,-268.246 467.424,-258.063"/>
<polygon fill="midnightblue" stroke="midnightblue" points="468.689,-254.788 458.158,-253.621 465.663,-261.1 468.689,-254.788"/>
</g>
<!-- Node15&#45;&gt;Node6 -->
<g id="edge54" class="edge"><title>Node15&#45;&gt;Node6</title>
<path fill="none" stroke="midnightblue" d="M453.506,-232.401C467.1,-223.662 485.939,-210.4 500,-196 550.751,-144.024 591.784,-67.1454 609.52,-31.0701"/>
<polygon fill="midnightblue" stroke="midnightblue" points="612.876,-32.1693 614.078,-21.6429 606.574,-29.1222 612.876,-32.1693"/>
</g>
<!-- Node16 -->
<g id="node40" class="node"><title>Node16</title>
<a xlink:href="ConfigurableElement_8h.html" target="_top" xlink:title="ConfigurableElement.h">
<polygon fill="white" stroke="black" points="366.5,-174.5 366.5,-195.5 491.5,-195.5 491.5,-174.5 366.5,-174.5"/>
<text text-anchor="middle" x="429" y="-182.5" font-family="Verdana" font-size="10.00">ConfigurableElement.h</text>
</a>
</g>
<!-- Node15&#45;&gt;Node16 -->
<g id="edge48" class="edge"><title>Node15&#45;&gt;Node16</title>
<path fill="none" stroke="midnightblue" d="M434.716,-232.362C433.818,-224.922 432.59,-214.743 431.502,-205.728"/>
<polygon fill="midnightblue" stroke="midnightblue" points="434.949,-205.079 430.276,-195.571 427.999,-205.918 434.949,-205.079"/>
</g>
<!-- Node16&#45;&gt;Node5 -->
<g id="edge50" class="edge"><title>Node16&#45;&gt;Node5</title>
<path fill="none" stroke="midnightblue" d="M427.533,-174.362C426.506,-166.922 425.102,-156.743 423.859,-147.728"/>
<polygon fill="midnightblue" stroke="midnightblue" points="427.292,-146.999 422.458,-137.571 420.357,-147.955 427.292,-146.999"/>
</g>
<!-- Node16&#45;&gt;Node8 -->
<g id="edge52" class="edge"><title>Node16&#45;&gt;Node8</title>
<path fill="none" stroke="midnightblue" d="M440.581,-174.471C455.476,-160.933 482.151,-136.699 505,-116 515.71,-106.298 527.673,-95.4842 537.422,-86.6771"/>
<polygon fill="midnightblue" stroke="midnightblue" points="539.939,-89.1199 545.014,-79.8197 535.247,-83.9251 539.939,-89.1199"/>
</g>
</g>
</svg>
