<?xml version="1.0" encoding="UTF-8" standalone="no"?>
<!DOCTYPE svg PUBLIC "-//W3C//DTD SVG 1.1//EN"
 "http://www.w3.org/Graphics/SVG/1.1/DTD/svg11.dtd">
<!-- Generated by graphviz version 2.26.3 (20100126.1600)
 -->
<!-- Title: parameter/StringParameter.h Pages: 1 -->
<svg width="342pt" height="102pt"
 viewBox="0.00 0.00 342.00 102.00" xmlns="http://www.w3.org/2000/svg" xmlns:xlink="http://www.w3.org/1999/xlink">
<g id="graph1" class="graph" transform="scale(1 1) rotate(0) translate(4 98)">
<title>parameter/StringParameter.h</title>
<polygon fill="white" stroke="white" points="-4,5 -4,-98 339,-98 339,5 -4,5"/>
<!-- Node1 -->
<g id="node1" class="node"><title>Node1</title>
<polygon fill="#bfbfbf" stroke="black" points="93,-72.5 93,-93.5 251,-93.5 251,-72.5 93,-72.5"/>
<text text-anchor="middle" x="172" y="-80.5" font-family="Verdana" font-size="10.00">parameter/StringParameter.h</text>
</g>
<!-- Node2 -->
<g id="node3" class="node"><title>Node2</title>
<a xlink:href="StringParameter_8cpp.html" target="_top" xlink:title="parameter/StringParameter.cpp">
<polygon fill="white" stroke="black" points="-0.5,-7.5 -0.5,-28.5 168.5,-28.5 168.5,-7.5 -0.5,-7.5"/>
<text text-anchor="middle" x="84" y="-15.5" font-family="Verdana" font-size="10.00">parameter/StringParameter.cpp</text>
</a>
</g>
<!-- Node1&#45;&gt;Node2 -->
<g id="edge2" class="edge"><title>Node1&#45;&gt;Node2</title>
<path fill="none" stroke="midnightblue" d="M149.117,-66.0977C133.03,-54.2152 112.006,-38.6863 98.261,-28.5337"/>
<polygon fill="midnightblue" stroke="midnightblue" points="147.345,-69.1405 157.469,-72.2666 151.504,-63.5099 147.345,-69.1405"/>
</g>
<!-- Node3 -->
<g id="node5" class="node"><title>Node3</title>
<a xlink:href="StringParameterType_8cpp.html" target="_top" xlink:title="parameter/StringParameter\lType.cpp">
<polygon fill="white" stroke="black" points="185.5,-1 185.5,-35 334.5,-35 334.5,-1 185.5,-1"/>
<text text-anchor="start" x="193.5" y="-22" font-family="Verdana" font-size="10.00">parameter/StringParameter</text>
<text text-anchor="middle" x="260" y="-9" font-family="Verdana" font-size="10.00">Type.cpp</text>
</a>
</g>
<!-- Node1&#45;&gt;Node3 -->
<g id="edge4" class="edge"><title>Node1&#45;&gt;Node3</title>
<path fill="none" stroke="midnightblue" d="M194.883,-66.0977C207.793,-56.5624 223.881,-44.6789 236.836,-35.1099"/>
<polygon fill="midnightblue" stroke="midnightblue" points="192.496,-63.5099 186.531,-72.2666 196.655,-69.1405 192.496,-63.5099"/>
</g>
</g>
</svg>
