<?xml version="1.0" encoding="UTF-8" standalone="no"?>
<!DOCTYPE svg PUBLIC "-//W3C//DTD SVG 1.1//EN"
 "http://www.w3.org/Graphics/SVG/1.1/DTD/svg11.dtd">
<!-- Generated by graphviz version 2.26.3 (20100126.1600)
 -->
<!-- Title: parameter/SubsystemObjectCreator.h Pages: 1 -->
<svg width="265pt" height="218pt"
 viewBox="0.00 0.00 265.00 218.00" xmlns="http://www.w3.org/2000/svg" xmlns:xlink="http://www.w3.org/1999/xlink">
<g id="graph1" class="graph" transform="scale(1 1) rotate(0) translate(4 214)">
<title>parameter/SubsystemObjectCreator.h</title>
<polygon fill="white" stroke="white" points="-4,5 -4,-214 262,-214 262,5 -4,5"/>
<!-- Node1 -->
<g id="node1" class="node"><title>Node1</title>
<polygon fill="#bfbfbf" stroke="black" points="-0.5,-175 -0.5,-209 154.5,-209 154.5,-175 -0.5,-175"/>
<text text-anchor="start" x="7.5" y="-196" font-family="Verdana" font-size="10.00">parameter/SubsystemObject</text>
<text text-anchor="middle" x="77" y="-183" font-family="Verdana" font-size="10.00">Creator.h</text>
</g>
<!-- Node2 -->
<g id="node3" class="node"><title>Node2</title>
<a xlink:href="SubsystemObject_8h.html" target="_top" xlink:title="SubsystemObject.h">
<polygon fill="white" stroke="black" points="147,-116.5 147,-137.5 257,-137.5 257,-116.5 147,-116.5"/>
<text text-anchor="middle" x="202" y="-124.5" font-family="Verdana" font-size="10.00">SubsystemObject.h</text>
</a>
</g>
<!-- Node1&#45;&gt;Node2 -->
<g id="edge2" class="edge"><title>Node1&#45;&gt;Node2</title>
<path fill="none" stroke="midnightblue" d="M109.842,-174.922C129.273,-164.818 153.681,-152.126 172.497,-142.342"/>
<polygon fill="midnightblue" stroke="midnightblue" points="174.246,-145.377 181.503,-137.658 171.016,-139.167 174.246,-145.377"/>
</g>
<!-- Node4 -->
<g id="node7" class="node"><title>Node4</title>
<polygon fill="white" stroke="#bfbfbf" points="96,-0.5 96,-21.5 140,-21.5 140,-0.5 96,-0.5"/>
<text text-anchor="middle" x="118" y="-8.5" font-family="Verdana" font-size="10.00">string</text>
</g>
<!-- Node1&#45;&gt;Node4 -->
<g id="edge18" class="edge"><title>Node1&#45;&gt;Node4</title>
<path fill="none" stroke="midnightblue" d="M48.5873,-174.873C36.1199,-165.665 22.7944,-153.089 16,-138 11.9854,-129.084 12.6404,-125.182 16,-116 30.1384,-77.3568 67.1936,-45.5935 92.5221,-27.4651"/>
<polygon fill="midnightblue" stroke="midnightblue" points="94.7111,-30.2064 100.935,-21.6326 90.7229,-24.4536 94.7111,-30.2064"/>
</g>
<!-- Node6 -->
<g id="node12" class="node"><title>Node6</title>
<a xlink:href="MappingContext_8h.html" target="_top" xlink:title="MappingContext.h">
<polygon fill="white" stroke="black" points="25,-116.5 25,-137.5 129,-137.5 129,-116.5 25,-116.5"/>
<text text-anchor="middle" x="77" y="-124.5" font-family="Verdana" font-size="10.00">MappingContext.h</text>
</a>
</g>
<!-- Node1&#45;&gt;Node6 -->
<g id="edge12" class="edge"><title>Node1&#45;&gt;Node6</title>
<path fill="none" stroke="midnightblue" d="M77,-174.922C77,-166.67 77,-156.692 77,-147.982"/>
<polygon fill="midnightblue" stroke="midnightblue" points="80.5001,-147.852 77,-137.852 73.5001,-147.852 80.5001,-147.852"/>
</g>
<!-- Node3 -->
<g id="node5" class="node"><title>Node3</title>
<a xlink:href="Syncer_8h.html" target="_top" xlink:title="Syncer.h">
<polygon fill="white" stroke="black" points="153,-58.5 153,-79.5 211,-79.5 211,-58.5 153,-58.5"/>
<text text-anchor="middle" x="182" y="-66.5" font-family="Verdana" font-size="10.00">Syncer.h</text>
</a>
</g>
<!-- Node2&#45;&gt;Node3 -->
<g id="edge4" class="edge"><title>Node2&#45;&gt;Node3</title>
<path fill="none" stroke="midnightblue" d="M198.332,-116.362C195.71,-108.758 192.101,-98.294 188.943,-89.1349"/>
<polygon fill="midnightblue" stroke="midnightblue" points="192.214,-87.8834 185.645,-79.5707 185.596,-90.1654 192.214,-87.8834"/>
</g>
<!-- Node2&#45;&gt;Node4 -->
<g id="edge10" class="edge"><title>Node2&#45;&gt;Node4</title>
<path fill="none" stroke="midnightblue" d="M209.617,-116.373C218.835,-102.082 231.749,-76.3499 220,-58 204.706,-34.1127 173.857,-22.1966 150.069,-16.3599"/>
<polygon fill="midnightblue" stroke="midnightblue" points="150.566,-12.8853 140.046,-14.149 149.058,-19.721 150.566,-12.8853"/>
</g>
<!-- Node5 -->
<g id="node9" class="node"><title>Node5</title>
<polygon fill="white" stroke="#bfbfbf" points="82.5,-58.5 82.5,-79.5 135.5,-79.5 135.5,-58.5 82.5,-58.5"/>
<text text-anchor="middle" x="109" y="-66.5" font-family="Verdana" font-size="10.00">stdint.h</text>
</g>
<!-- Node2&#45;&gt;Node5 -->
<g id="edge8" class="edge"><title>Node2&#45;&gt;Node5</title>
<path fill="none" stroke="midnightblue" d="M184.942,-116.362C170.915,-107.614 150.816,-95.0786 134.818,-85.1015"/>
<polygon fill="midnightblue" stroke="midnightblue" points="136.287,-81.8927 125.949,-79.5707 132.582,-87.8323 136.287,-81.8927"/>
</g>
<!-- Node3&#45;&gt;Node4 -->
<g id="edge6" class="edge"><title>Node3&#45;&gt;Node4</title>
<path fill="none" stroke="midnightblue" d="M170.261,-58.3619C161.059,-50.0226 148.06,-38.2418 137.328,-28.5162"/>
<polygon fill="midnightblue" stroke="midnightblue" points="139.424,-25.6924 129.664,-21.5707 134.724,-30.8793 139.424,-25.6924"/>
</g>
<!-- Node6&#45;&gt;Node4 -->
<g id="edge16" class="edge"><title>Node6&#45;&gt;Node4</title>
<path fill="none" stroke="midnightblue" d="M73.9144,-116.27C70.4753,-102.307 66.3346,-77.4042 74,-58 78.5276,-46.5388 87.3162,-36.2323 95.8559,-28.2117"/>
<polygon fill="midnightblue" stroke="midnightblue" points="98.2802,-30.7411 103.499,-21.5208 93.6695,-25.474 98.2802,-30.7411"/>
</g>
<!-- Node6&#45;&gt;Node5 -->
<g id="edge14" class="edge"><title>Node6&#45;&gt;Node5</title>
<path fill="none" stroke="midnightblue" d="M82.8693,-116.362C87.1546,-108.595 93.0869,-97.8426 98.2161,-88.5458"/>
<polygon fill="midnightblue" stroke="midnightblue" points="101.402,-90.0172 103.168,-79.5707 95.2726,-86.6357 101.402,-90.0172"/>
</g>
</g>
</svg>
