<?xml version="1.0" encoding="UTF-8" standalone="no"?>
<!DOCTYPE svg PUBLIC "-//W3C//DTD SVG 1.1//EN"
 "http://www.w3.org/Graphics/SVG/1.1/DTD/svg11.dtd">
<!-- Generated by graphviz version 2.26.3 (20100126.1600)
 -->
<!-- Title: parameter/Subsystem.h Pages: 1 -->
<svg width="1196pt" height="218pt"
 viewBox="0.00 0.00 1196.00 218.00" xmlns="http://www.w3.org/2000/svg" xmlns:xlink="http://www.w3.org/1999/xlink">
<g id="graph1" class="graph" transform="scale(1 1) rotate(0) translate(4 214)">
<title>parameter/Subsystem.h</title>
<polygon fill="white" stroke="white" points="-4,5 -4,-214 1193,-214 1193,5 -4,5"/>
<!-- Node1 -->
<g id="node1" class="node"><title>Node1</title>
<polygon fill="#bfbfbf" stroke="black" points="645,-188.5 645,-209.5 779,-209.5 779,-188.5 645,-188.5"/>
<text text-anchor="middle" x="712" y="-196.5" font-family="Verdana" font-size="10.00">parameter/Subsystem.h</text>
</g>
<!-- Node2 -->
<g id="node3" class="node"><title>Node2</title>
<a xlink:href="BitwiseAreaConfiguration_8cpp.html" target="_top" xlink:title="parameter/BitwiseAreaConfiguration.cpp">
<polygon fill="white" stroke="black" points="0,-130.5 0,-151.5 210,-151.5 210,-130.5 0,-130.5"/>
<text text-anchor="middle" x="105" y="-138.5" font-family="Verdana" font-size="10.00">parameter/BitwiseAreaConfiguration.cpp</text>
</a>
</g>
<!-- Node1&#45;&gt;Node2 -->
<g id="edge2" class="edge"><title>Node1&#45;&gt;Node2</title>
<path fill="none" stroke="midnightblue" d="M634.592,-191.648C537.502,-182.42 365.929,-166.092 219,-152 216.13,-151.725 213.219,-151.445 210.282,-151.163"/>
<polygon fill="midnightblue" stroke="midnightblue" points="634.329,-195.139 644.615,-192.601 634.991,-188.17 634.329,-195.139"/>
</g>
<!-- Node3 -->
<g id="node5" class="node"><title>Node3</title>
<a xlink:href="DomainConfiguration_8cpp.html" target="_top" xlink:title="parameter/DomainConfiguration.cpp">
<polygon fill="white" stroke="black" points="228,-130.5 228,-151.5 420,-151.5 420,-130.5 228,-130.5"/>
<text text-anchor="middle" x="324" y="-138.5" font-family="Verdana" font-size="10.00">parameter/DomainConfiguration.cpp</text>
</a>
</g>
<!-- Node1&#45;&gt;Node3 -->
<g id="edge4" class="edge"><title>Node1&#45;&gt;Node3</title>
<path fill="none" stroke="midnightblue" d="M634.756,-187.453C564.632,-176.971 462.103,-161.644 394.247,-151.501"/>
<polygon fill="midnightblue" stroke="midnightblue" points="634.451,-190.946 644.859,-188.963 635.486,-184.023 634.451,-190.946"/>
</g>
<!-- Node4 -->
<g id="node7" class="node"><title>Node4</title>
<a xlink:href="ParameterHandle_8cpp.html" target="_top" xlink:title="parameter/ParameterHandle.cpp">
<polygon fill="white" stroke="black" points="437.5,-130.5 437.5,-151.5 612.5,-151.5 612.5,-130.5 437.5,-130.5"/>
<text text-anchor="middle" x="525" y="-138.5" font-family="Verdana" font-size="10.00">parameter/ParameterHandle.cpp</text>
</a>
</g>
<!-- Node1&#45;&gt;Node4 -->
<g id="edge6" class="edge"><title>Node1&#45;&gt;Node4</title>
<path fill="none" stroke="midnightblue" d="M668.193,-185.413C634.829,-175.065 589.566,-161.026 558.928,-151.523"/>
<polygon fill="midnightblue" stroke="midnightblue" points="667.548,-188.877 678.136,-188.497 669.621,-182.191 667.548,-188.877"/>
</g>
<!-- Node5 -->
<g id="node9" class="node"><title>Node5</title>
<a xlink:href="VirtualSubsystem_8h.html" target="_top" xlink:title="parameter/VirtualSubsystem.h">
<polygon fill="white" stroke="black" points="630,-130.5 630,-151.5 794,-151.5 794,-130.5 630,-130.5"/>
<text text-anchor="middle" x="712" y="-138.5" font-family="Verdana" font-size="10.00">parameter/VirtualSubsystem.h</text>
</a>
</g>
<!-- Node1&#45;&gt;Node5 -->
<g id="edge8" class="edge"><title>Node1&#45;&gt;Node5</title>
<path fill="none" stroke="midnightblue" d="M712,-178.191C712,-169.168 712,-158.994 712,-151.571"/>
<polygon fill="midnightblue" stroke="midnightblue" points="708.5,-178.362 712,-188.362 715.5,-178.362 708.5,-178.362"/>
</g>
<!-- Node7 -->
<g id="node13" class="node"><title>Node7</title>
<a xlink:href="ParameterMgr_8cpp.html" target="_top" xlink:title="parameter/ParameterMgr.cpp">
<polygon fill="white" stroke="black" points="743,-7.5 743,-28.5 901,-28.5 901,-7.5 743,-7.5"/>
<text text-anchor="middle" x="822" y="-15.5" font-family="Verdana" font-size="10.00">parameter/ParameterMgr.cpp</text>
</a>
</g>
<!-- Node1&#45;&gt;Node7 -->
<g id="edge22" class="edge"><title>Node1&#45;&gt;Node7</title>
<path fill="none" stroke="midnightblue" d="M759.78,-184.489C775.925,-177.25 792.501,-166.786 803,-152 830.343,-113.492 826.462,-52.8467 823.532,-28.5655"/>
<polygon fill="midnightblue" stroke="midnightblue" points="758.272,-181.326 750.373,-188.388 760.952,-187.793 758.272,-181.326"/>
</g>
<!-- Node11 -->
<g id="node23" class="node"><title>Node11</title>
<a xlink:href="Subsystem_8cpp.html" target="_top" xlink:title="parameter/Subsystem.cpp">
<polygon fill="white" stroke="black" points="849.5,-130.5 849.5,-151.5 994.5,-151.5 994.5,-130.5 849.5,-130.5"/>
<text text-anchor="middle" x="922" y="-138.5" font-family="Verdana" font-size="10.00">parameter/Subsystem.cpp</text>
</a>
</g>
<!-- Node1&#45;&gt;Node11 -->
<g id="edge24" class="edge"><title>Node1&#45;&gt;Node11</title>
<path fill="none" stroke="midnightblue" d="M759.749,-185.812C797.345,-175.428 849.048,-161.149 883.899,-151.523"/>
<polygon fill="midnightblue" stroke="midnightblue" points="758.737,-182.461 750.029,-188.497 760.6,-189.208 758.737,-182.461"/>
</g>
<!-- Node12 -->
<g id="node25" class="node"><title>Node12</title>
<a xlink:href="SubsystemObject_8cpp.html" target="_top" xlink:title="parameter/SubsystemObject.cpp">
<polygon fill="white" stroke="black" points="1012,-130.5 1012,-151.5 1188,-151.5 1188,-130.5 1012,-130.5"/>
<text text-anchor="middle" x="1100" y="-138.5" font-family="Verdana" font-size="10.00">parameter/SubsystemObject.cpp</text>
</a>
</g>
<!-- Node1&#45;&gt;Node12 -->
<g id="edge26" class="edge"><title>Node1&#45;&gt;Node12</title>
<path fill="none" stroke="midnightblue" d="M789.244,-187.453C859.368,-176.971 961.897,-161.644 1029.75,-151.501"/>
<polygon fill="midnightblue" stroke="midnightblue" points="788.514,-184.023 779.141,-188.963 789.549,-190.946 788.514,-184.023"/>
</g>
<!-- Node6 -->
<g id="node11" class="node"><title>Node6</title>
<a xlink:href="SubsystemLibrary_8h.html" target="_top" xlink:title="parameter/SubsystemLibrary.h">
<polygon fill="white" stroke="black" points="630,-72.5 630,-93.5 794,-93.5 794,-72.5 630,-72.5"/>
<text text-anchor="middle" x="712" y="-80.5" font-family="Verdana" font-size="10.00">parameter/SubsystemLibrary.h</text>
</a>
</g>
<!-- Node5&#45;&gt;Node6 -->
<g id="edge10" class="edge"><title>Node5&#45;&gt;Node6</title>
<path fill="none" stroke="midnightblue" d="M712,-120.191C712,-111.168 712,-100.994 712,-93.5707"/>
<polygon fill="midnightblue" stroke="midnightblue" points="708.5,-120.362 712,-130.362 715.5,-120.362 708.5,-120.362"/>
</g>
<!-- Node9 -->
<g id="node17" class="node"><title>Node9</title>
<a xlink:href="SystemClass_8cpp.html" target="_top" xlink:title="parameter/SystemClass.cpp">
<polygon fill="white" stroke="black" points="361.5,-7.5 361.5,-28.5 514.5,-28.5 514.5,-7.5 361.5,-7.5"/>
<text text-anchor="middle" x="438" y="-15.5" font-family="Verdana" font-size="10.00">parameter/SystemClass.cpp</text>
</a>
</g>
<!-- Node5&#45;&gt;Node9 -->
<g id="edge18" class="edge"><title>Node5&#45;&gt;Node9</title>
<path fill="none" stroke="midnightblue" d="M622.591,-129.082C541.435,-117.83 433.437,-101.586 427,-94 411.3,-75.4994 423.483,-44.8915 431.839,-28.7422"/>
<polygon fill="midnightblue" stroke="midnightblue" points="622.462,-132.597 632.847,-130.497 623.419,-125.663 622.462,-132.597"/>
</g>
<!-- Node10 -->
<g id="node20" class="node"><title>Node10</title>
<a xlink:href="VirtualSubsystem_8cpp.html" target="_top" xlink:title="parameter/VirtualSubsystem.cpp">
<polygon fill="white" stroke="black" points="436,-72.5 436,-93.5 612,-93.5 612,-72.5 436,-72.5"/>
<text text-anchor="middle" x="524" y="-80.5" font-family="Verdana" font-size="10.00">parameter/VirtualSubsystem.cpp</text>
</a>
</g>
<!-- Node5&#45;&gt;Node10 -->
<g id="edge20" class="edge"><title>Node5&#45;&gt;Node10</title>
<path fill="none" stroke="midnightblue" d="M668.392,-127.546C634.809,-117.186 589.044,-103.067 558.109,-93.5231"/>
<polygon fill="midnightblue" stroke="midnightblue" points="667.367,-130.893 677.955,-130.497 669.431,-124.204 667.367,-130.893"/>
</g>
<!-- Node6&#45;&gt;Node7 -->
<g id="edge12" class="edge"><title>Node6&#45;&gt;Node7</title>
<path fill="none" stroke="midnightblue" d="M738.943,-67.0792C759.246,-55.0821 786.515,-38.9684 804.174,-28.5337"/>
<polygon fill="midnightblue" stroke="midnightblue" points="736.993,-64.166 730.164,-72.2666 740.554,-70.1925 736.993,-64.166"/>
</g>
<!-- Node8 -->
<g id="node15" class="node"><title>Node8</title>
<a xlink:href="SubsystemElementBuilder_8cpp.html" target="_top" xlink:title="parameter/SubsystemElement\lBuilder.cpp">
<polygon fill="white" stroke="black" points="561,-1 561,-35 725,-35 725,-1 561,-1"/>
<text text-anchor="start" x="569" y="-22" font-family="Verdana" font-size="10.00">parameter/SubsystemElement</text>
<text text-anchor="middle" x="643" y="-9" font-family="Verdana" font-size="10.00">Builder.cpp</text>
</a>
</g>
<!-- Node6&#45;&gt;Node8 -->
<g id="edge14" class="edge"><title>Node6&#45;&gt;Node8</title>
<path fill="none" stroke="midnightblue" d="M693.175,-65.2667C683.21,-55.8787 671.028,-44.4029 661.163,-35.1099"/>
<polygon fill="midnightblue" stroke="midnightblue" points="690.927,-67.9572 700.606,-72.2666 695.727,-62.862 690.927,-67.9572"/>
</g>
<!-- Node6&#45;&gt;Node9 -->
<g id="edge16" class="edge"><title>Node6&#45;&gt;Node9</title>
<path fill="none" stroke="midnightblue" d="M657.739,-70.128C606.338,-57.9341 530.091,-39.8463 482.264,-28.5005"/>
<polygon fill="midnightblue" stroke="midnightblue" points="657.135,-73.5816 667.673,-72.4844 658.751,-66.7706 657.135,-73.5816"/>
</g>
</g>
</svg>
