<?xml version="1.0" encoding="UTF-8" standalone="no"?>
<!DOCTYPE svg PUBLIC "-//W3C//DTD SVG 1.1//EN"
 "http://www.w3.org/Graphics/SVG/1.1/DTD/svg11.dtd">
<!-- Generated by graphviz version 2.26.3 (20100126.1600)
 -->
<!-- Title: parameter/SubsystemObject.h Pages: 1 -->
<svg width="176pt" height="146pt"
 viewBox="0.00 0.00 176.00 146.00" xmlns="http://www.w3.org/2000/svg" xmlns:xlink="http://www.w3.org/1999/xlink">
<g id="graph1" class="graph" transform="scale(1 1) rotate(0) translate(4 142)">
<title>parameter/SubsystemObject.h</title>
<polygon fill="white" stroke="white" points="-4,5 -4,-142 173,-142 173,5 -4,5"/>
<!-- Node1 -->
<g id="node1" class="node"><title>Node1</title>
<polygon fill="#bfbfbf" stroke="black" points="4,-116.5 4,-137.5 168,-137.5 168,-116.5 4,-116.5"/>
<text text-anchor="middle" x="86" y="-124.5" font-family="Verdana" font-size="10.00">parameter/SubsystemObject.h</text>
</g>
<!-- Node2 -->
<g id="node3" class="node"><title>Node2</title>
<a xlink:href="Syncer_8h.html" target="_top" xlink:title="Syncer.h">
<polygon fill="white" stroke="black" points="0,-58.5 0,-79.5 58,-79.5 58,-58.5 0,-58.5"/>
<text text-anchor="middle" x="29" y="-66.5" font-family="Verdana" font-size="10.00">Syncer.h</text>
</a>
</g>
<!-- Node1&#45;&gt;Node2 -->
<g id="edge2" class="edge"><title>Node1&#45;&gt;Node2</title>
<path fill="none" stroke="midnightblue" d="M75.5453,-116.362C67.4301,-108.104 55.9988,-96.4725 46.4959,-86.8029"/>
<polygon fill="midnightblue" stroke="midnightblue" points="48.8941,-84.2497 39.3884,-79.5707 43.9014,-89.1562 48.8941,-84.2497"/>
</g>
<!-- Node3 -->
<g id="node5" class="node"><title>Node3</title>
<polygon fill="white" stroke="#bfbfbf" points="35,-0.5 35,-21.5 79,-21.5 79,-0.5 35,-0.5"/>
<text text-anchor="middle" x="57" y="-8.5" font-family="Verdana" font-size="10.00">string</text>
</g>
<!-- Node1&#45;&gt;Node3 -->
<g id="edge8" class="edge"><title>Node1&#45;&gt;Node3</title>
<path fill="none" stroke="midnightblue" d="M83.3237,-116.295C78.5113,-97.0451 68.3222,-56.2889 62.1273,-31.5091"/>
<polygon fill="midnightblue" stroke="midnightblue" points="65.4907,-30.5317 59.6698,-21.6792 58.6997,-32.2295 65.4907,-30.5317"/>
</g>
<!-- Node4 -->
<g id="node7" class="node"><title>Node4</title>
<polygon fill="white" stroke="#bfbfbf" points="113.5,-58.5 113.5,-79.5 166.5,-79.5 166.5,-58.5 113.5,-58.5"/>
<text text-anchor="middle" x="140" y="-66.5" font-family="Verdana" font-size="10.00">stdint.h</text>
</g>
<!-- Node1&#45;&gt;Node4 -->
<g id="edge6" class="edge"><title>Node1&#45;&gt;Node4</title>
<path fill="none" stroke="midnightblue" d="M95.9044,-116.362C103.516,-108.186 114.208,-96.7025 123.157,-87.0907"/>
<polygon fill="midnightblue" stroke="midnightblue" points="125.906,-89.2746 130.158,-79.5707 120.783,-84.5046 125.906,-89.2746"/>
</g>
<!-- Node2&#45;&gt;Node3 -->
<g id="edge4" class="edge"><title>Node2&#45;&gt;Node3</title>
<path fill="none" stroke="midnightblue" d="M34.1356,-58.3619C37.8458,-50.6766 42.9669,-40.0686 47.4221,-30.8399"/>
<polygon fill="midnightblue" stroke="midnightblue" points="50.7013,-32.0978 51.8969,-21.5707 44.3974,-29.0545 50.7013,-32.0978"/>
</g>
</g>
</svg>
