<?xml version="1.0" encoding="UTF-8" standalone="no"?>
<!DOCTYPE svg PUBLIC "-//W3C//DTD SVG 1.1//EN"
 "http://www.w3.org/Graphics/SVG/1.1/DTD/svg11.dtd">
<!-- Generated by graphviz version 2.26.3 (20100126.1600)
 -->
<!-- Title: parameter/SubsystemPlugins.h Pages: 1 -->
<svg width="1062pt" height="290pt"
 viewBox="0.00 0.00 1062.00 290.00" xmlns="http://www.w3.org/2000/svg" xmlns:xlink="http://www.w3.org/1999/xlink">
<g id="graph1" class="graph" transform="scale(1 1) rotate(0) translate(4 286)">
<title>parameter/SubsystemPlugins.h</title>
<polygon fill="white" stroke="white" points="-4,5 -4,-286 1059,-286 1059,5 -4,5"/>
<!-- Node1 -->
<g id="node1" class="node"><title>Node1</title>
<polygon fill="#bfbfbf" stroke="black" points="887.5,-260.5 887.5,-281.5 1054.5,-281.5 1054.5,-260.5 887.5,-260.5"/>
<text text-anchor="middle" x="971" y="-268.5" font-family="Verdana" font-size="10.00">parameter/SubsystemPlugins.h</text>
</g>
<!-- Node2 -->
<g id="node3" class="node"><title>Node2</title>
<a xlink:href="SystemClass_8h.html" target="_top" xlink:title="parameter/SystemClass.h">
<polygon fill="white" stroke="black" points="796,-202.5 796,-223.5 938,-223.5 938,-202.5 796,-202.5"/>
<text text-anchor="middle" x="867" y="-210.5" font-family="Verdana" font-size="10.00">parameter/SystemClass.h</text>
</a>
</g>
<!-- Node1&#45;&gt;Node2 -->
<g id="edge2" class="edge"><title>Node1&#45;&gt;Node2</title>
<path fill="none" stroke="midnightblue" d="M942.99,-255.379C924.919,-245.301 901.898,-232.462 885.954,-223.571"/>
<polygon fill="midnightblue" stroke="midnightblue" points="941.486,-258.548 951.925,-260.362 944.896,-252.434 941.486,-258.548"/>
</g>
<!-- Node8 -->
<g id="node15" class="node"><title>Node8</title>
<a xlink:href="ParameterMgr_8cpp.html" target="_top" xlink:title="parameter/ParameterMgr.cpp">
<polygon fill="white" stroke="black" points="681,-0.5 681,-21.5 839,-21.5 839,-0.5 681,-0.5"/>
<text text-anchor="middle" x="760" y="-8.5" font-family="Verdana" font-size="10.00">parameter/ParameterMgr.cpp</text>
</a>
</g>
<!-- Node1&#45;&gt;Node8 -->
<g id="edge28" class="edge"><title>Node1&#45;&gt;Node8</title>
<path fill="none" stroke="midnightblue" d="M984.168,-251.524C1001.75,-222.847 1028.06,-168.502 1004,-130 963.914,-65.8503 878.183,-35.3629 819.798,-21.5438"/>
<polygon fill="midnightblue" stroke="midnightblue" points="981.056,-249.894 978.623,-260.206 986.956,-253.662 981.056,-249.894"/>
</g>
<!-- Node3 -->
<g id="node5" class="node"><title>Node3</title>
<a xlink:href="XmlDomainImportContext_8h.html" target="_top" xlink:title="parameter/XmlDomainImport\lContext.h">
<polygon fill="white" stroke="black" points="378,-131 378,-165 536,-165 536,-131 378,-131"/>
<text text-anchor="start" x="386" y="-152" font-family="Verdana" font-size="10.00">parameter/XmlDomainImport</text>
<text text-anchor="middle" x="457" y="-139" font-family="Verdana" font-size="10.00">Context.h</text>
</a>
</g>
<!-- Node2&#45;&gt;Node3 -->
<g id="edge4" class="edge"><title>Node2&#45;&gt;Node3</title>
<path fill="none" stroke="midnightblue" d="M790.689,-200.902C718.199,-189.41 609.665,-172.203 536.227,-160.56"/>
<polygon fill="midnightblue" stroke="midnightblue" points="790.246,-204.375 800.671,-202.484 791.342,-197.462 790.246,-204.375"/>
</g>
<!-- Node2&#45;&gt;Node8 -->
<g id="edge24" class="edge"><title>Node2&#45;&gt;Node8</title>
<path fill="none" stroke="midnightblue" d="M852.16,-194.391C845.981,-186.044 839.079,-175.87 834,-166 810.718,-120.754 820.216,-102.753 796,-58 788.663,-44.4403 777.564,-30.6347 769.631,-21.5267"/>
<polygon fill="midnightblue" stroke="midnightblue" points="849.38,-196.516 858.232,-202.339 854.943,-192.267 849.38,-196.516"/>
</g>
<!-- Node11 -->
<g id="node24" class="node"><title>Node11</title>
<a xlink:href="SystemClass_8cpp.html" target="_top" xlink:title="parameter/SystemClass.cpp">
<polygon fill="white" stroke="black" points="842.5,-137.5 842.5,-158.5 995.5,-158.5 995.5,-137.5 842.5,-137.5"/>
<text text-anchor="middle" x="919" y="-145.5" font-family="Verdana" font-size="10.00">parameter/SystemClass.cpp</text>
</a>
</g>
<!-- Node2&#45;&gt;Node11 -->
<g id="edge26" class="edge"><title>Node2&#45;&gt;Node11</title>
<path fill="none" stroke="midnightblue" d="M881.86,-194.425C891.169,-182.789 902.827,-168.216 910.573,-158.534"/>
<polygon fill="midnightblue" stroke="midnightblue" points="879.101,-192.271 875.587,-202.267 884.567,-196.644 879.101,-192.271"/>
</g>
<!-- Node4 -->
<g id="node7" class="node"><title>Node4</title>
<a xlink:href="ConfigurableDomain_8h.html" target="_top" xlink:title="parameter/ConfigurableDomain.h">
<polygon fill="white" stroke="black" points="190.5,-65.5 190.5,-86.5 367.5,-86.5 367.5,-65.5 190.5,-65.5"/>
<text text-anchor="middle" x="279" y="-73.5" font-family="Verdana" font-size="10.00">parameter/ConfigurableDomain.h</text>
</a>
</g>
<!-- Node3&#45;&gt;Node4 -->
<g id="edge6" class="edge"><title>Node3&#45;&gt;Node4</title>
<path fill="none" stroke="midnightblue" d="M405.358,-127.111C372.524,-113.83 331.403,-97.1968 305.161,-86.5821"/>
<polygon fill="midnightblue" stroke="midnightblue" points="404.234,-130.432 414.816,-130.937 406.859,-123.943 404.234,-130.432"/>
</g>
<!-- Node5 -->
<g id="node9" class="node"><title>Node5</title>
<a xlink:href="ConfigurableDomain_8cpp.html" target="_top" xlink:title="parameter/ConfigurableDomain.cpp">
<polygon fill="white" stroke="black" points="0,-0.5 0,-21.5 188,-21.5 188,-0.5 0,-0.5"/>
<text text-anchor="middle" x="94" y="-8.5" font-family="Verdana" font-size="10.00">parameter/ConfigurableDomain.cpp</text>
</a>
</g>
<!-- Node3&#45;&gt;Node5 -->
<g id="edge16" class="edge"><title>Node3&#45;&gt;Node5</title>
<path fill="none" stroke="midnightblue" d="M367.453,-135.903C299.983,-125.774 213.844,-110.378 182,-94 146.889,-75.9421 115.888,-39.6443 101.897,-21.6352"/>
<polygon fill="midnightblue" stroke="midnightblue" points="367.281,-139.416 377.686,-137.421 368.308,-132.492 367.281,-139.416"/>
</g>
<!-- Node3&#45;&gt;Node8 -->
<g id="edge20" class="edge"><title>Node3&#45;&gt;Node8</title>
<path fill="none" stroke="midnightblue" d="M431.067,-123.285C413.869,-103.921 397.281,-77.144 414,-58 422.723,-48.012 581.206,-29.7163 680.623,-19.1386"/>
<polygon fill="midnightblue" stroke="midnightblue" points="428.736,-125.918 438.125,-130.828 433.848,-121.135 428.736,-125.918"/>
</g>
<!-- Node9 -->
<g id="node18" class="node"><title>Node9</title>
<a xlink:href="DomainConfiguration_8cpp.html" target="_top" xlink:title="parameter/DomainConfiguration.cpp">
<polygon fill="white" stroke="black" points="423,-65.5 423,-86.5 615,-86.5 615,-65.5 423,-65.5"/>
<text text-anchor="middle" x="519" y="-73.5" font-family="Verdana" font-size="10.00">parameter/DomainConfiguration.cpp</text>
</a>
</g>
<!-- Node3&#45;&gt;Node9 -->
<g id="edge18" class="edge"><title>Node3&#45;&gt;Node9</title>
<path fill="none" stroke="midnightblue" d="M478.387,-123.163C489.033,-110.8 501.358,-96.4874 509.613,-86.901"/>
<polygon fill="midnightblue" stroke="midnightblue" points="475.566,-121.075 471.693,-130.937 480.871,-125.643 475.566,-121.075"/>
</g>
<!-- Node10 -->
<g id="node21" class="node"><title>Node10</title>
<a xlink:href="SelectionCriterionRule_8cpp.html" target="_top" xlink:title="parameter/SelectionCriterion\lRule.cpp">
<polygon fill="white" stroke="black" points="632.5,-59 632.5,-93 787.5,-93 787.5,-59 632.5,-59"/>
<text text-anchor="start" x="640.5" y="-80" font-family="Verdana" font-size="10.00">parameter/SelectionCriterion</text>
<text text-anchor="middle" x="710" y="-67" font-family="Verdana" font-size="10.00">Rule.cpp</text>
</a>
</g>
<!-- Node3&#45;&gt;Node10 -->
<g id="edge22" class="edge"><title>Node3&#45;&gt;Node10</title>
<path fill="none" stroke="midnightblue" d="M526.593,-128.195C565.301,-117.179 612.989,-103.608 650.035,-93.0651"/>
<polygon fill="midnightblue" stroke="midnightblue" points="525.618,-124.833 516.957,-130.937 527.534,-131.566 525.618,-124.833"/>
</g>
<!-- Node4&#45;&gt;Node5 -->
<g id="edge8" class="edge"><title>Node4&#45;&gt;Node5</title>
<path fill="none" stroke="midnightblue" d="M239.102,-61.9818C204.584,-49.854 155.428,-32.583 124.122,-21.5835"/>
<polygon fill="midnightblue" stroke="midnightblue" points="238.27,-65.3991 248.865,-65.412 240.59,-58.7949 238.27,-65.3991"/>
</g>
<!-- Node6 -->
<g id="node11" class="node"><title>Node6</title>
<a xlink:href="ConfigurableDomains_8cpp.html" target="_top" xlink:title="parameter/ConfigurableDomains.cpp">
<polygon fill="white" stroke="black" points="206,-0.5 206,-21.5 400,-21.5 400,-0.5 206,-0.5"/>
<text text-anchor="middle" x="303" y="-8.5" font-family="Verdana" font-size="10.00">parameter/ConfigurableDomains.cpp</text>
</a>
</g>
<!-- Node4&#45;&gt;Node6 -->
<g id="edge10" class="edge"><title>Node4&#45;&gt;Node6</title>
<path fill="none" stroke="midnightblue" d="M286.492,-55.7103C290.673,-44.3856 295.709,-30.7463 299.111,-21.5337"/>
<polygon fill="midnightblue" stroke="midnightblue" points="283.144,-54.6733 282.963,-65.2666 289.71,-57.0979 283.144,-54.6733"/>
</g>
<!-- Node7 -->
<g id="node13" class="node"><title>Node7</title>
<a xlink:href="ConfigurableElement_8cpp.html" target="_top" xlink:title="parameter/ConfigurableElement.cpp">
<polygon fill="white" stroke="black" points="417.5,-0.5 417.5,-21.5 608.5,-21.5 608.5,-0.5 417.5,-0.5"/>
<text text-anchor="middle" x="513" y="-8.5" font-family="Verdana" font-size="10.00">parameter/ConfigurableElement.cpp</text>
</a>
</g>
<!-- Node4&#45;&gt;Node7 -->
<g id="edge12" class="edge"><title>Node4&#45;&gt;Node7</title>
<path fill="none" stroke="midnightblue" d="M326.718,-62.745C370.591,-50.558 434.779,-32.7281 475.198,-21.5005"/>
<polygon fill="midnightblue" stroke="midnightblue" points="325.555,-59.4356 316.856,-65.4844 327.428,-66.1802 325.555,-59.4356"/>
</g>
<!-- Node4&#45;&gt;Node8 -->
<g id="edge14" class="edge"><title>Node4&#45;&gt;Node8</title>
<path fill="none" stroke="midnightblue" d="M345.75,-63.7144C357.48,-61.7002 369.584,-59.7139 381,-58 484.269,-42.4952 603.925,-28.2785 680.716,-19.6336"/>
<polygon fill="midnightblue" stroke="midnightblue" points="344.818,-60.3239 335.565,-65.4854 346.017,-67.2204 344.818,-60.3239"/>
</g>
</g>
</svg>
