<?xml version="1.0" encoding="UTF-8" standalone="no"?>
<!DOCTYPE svg PUBLIC "-//W3C//DTD SVG 1.1//EN"
 "http://www.w3.org/Graphics/SVG/1.1/DTD/svg11.dtd">
<!-- Generated by graphviz version 2.26.3 (20100126.1600)
 -->
<!-- Title: parameter/SubsystemObject.h Pages: 1 -->
<svg width="688pt" height="174pt"
 viewBox="0.00 0.00 688.00 174.00" xmlns="http://www.w3.org/2000/svg" xmlns:xlink="http://www.w3.org/1999/xlink">
<g id="graph1" class="graph" transform="scale(1 1) rotate(0) translate(4 170)">
<title>parameter/SubsystemObject.h</title>
<polygon fill="white" stroke="white" points="-4,5 -4,-170 685,-170 685,5 -4,5"/>
<!-- Node1 -->
<g id="node1" class="node"><title>Node1</title>
<polygon fill="#bfbfbf" stroke="black" points="308,-144.5 308,-165.5 472,-165.5 472,-144.5 308,-144.5"/>
<text text-anchor="middle" x="390" y="-152.5" font-family="Verdana" font-size="10.00">parameter/SubsystemObject.h</text>
</g>
<!-- Node2 -->
<g id="node3" class="node"><title>Node2</title>
<a xlink:href="FormattedSubsystemObject_8h.html" target="_top" xlink:title="parameter/FormattedSubsystem\lObject.h">
<polygon fill="white" stroke="black" points="39.5,-73 39.5,-107 214.5,-107 214.5,-73 39.5,-73"/>
<text text-anchor="start" x="47.5" y="-94" font-family="Verdana" font-size="10.00">parameter/FormattedSubsystem</text>
<text text-anchor="middle" x="127" y="-81" font-family="Verdana" font-size="10.00">Object.h</text>
</a>
</g>
<!-- Node1&#45;&gt;Node2 -->
<g id="edge2" class="edge"><title>Node1&#45;&gt;Node2</title>
<path fill="none" stroke="midnightblue" d="M337.74,-142.084C297.081,-132.035 240.306,-118.003 195.928,-107.035"/>
<polygon fill="midnightblue" stroke="midnightblue" points="336.905,-145.483 347.452,-144.484 338.584,-138.687 336.905,-145.483"/>
</g>
<!-- Node4 -->
<g id="node7" class="node"><title>Node4</title>
<a xlink:href="SubsystemObjectCreator_8h.html" target="_top" xlink:title="parameter/SubsystemObject\lCreator.h">
<polygon fill="white" stroke="black" points="312.5,-73 312.5,-107 467.5,-107 467.5,-73 312.5,-73"/>
<text text-anchor="start" x="320.5" y="-94" font-family="Verdana" font-size="10.00">parameter/SubsystemObject</text>
<text text-anchor="middle" x="390" y="-81" font-family="Verdana" font-size="10.00">Creator.h</text>
</a>
</g>
<!-- Node1&#45;&gt;Node4 -->
<g id="edge6" class="edge"><title>Node1&#45;&gt;Node4</title>
<path fill="none" stroke="midnightblue" d="M390,-134.131C390,-125.405 390,-115.391 390,-107.11"/>
<polygon fill="midnightblue" stroke="midnightblue" points="386.5,-134.267 390,-144.267 393.5,-134.267 386.5,-134.267"/>
</g>
<!-- Node8 -->
<g id="node15" class="node"><title>Node8</title>
<a xlink:href="SubsystemObject_8cpp.html" target="_top" xlink:title="parameter/SubsystemObject.cpp">
<polygon fill="white" stroke="black" points="485,-79.5 485,-100.5 661,-100.5 661,-79.5 485,-79.5"/>
<text text-anchor="middle" x="573" y="-87.5" font-family="Verdana" font-size="10.00">parameter/SubsystemObject.cpp</text>
</a>
</g>
<!-- Node1&#45;&gt;Node8 -->
<g id="edge14" class="edge"><title>Node1&#45;&gt;Node8</title>
<path fill="none" stroke="midnightblue" d="M429.467,-140.982C463.611,-128.854 512.236,-111.583 543.203,-100.584"/>
<polygon fill="midnightblue" stroke="midnightblue" points="428.061,-137.767 419.809,-144.412 430.404,-144.363 428.061,-137.767"/>
</g>
<!-- Node3 -->
<g id="node5" class="node"><title>Node3</title>
<a xlink:href="FormattedSubsystemObject_8cpp.html" target="_top" xlink:title="parameter/FormattedSubsystem\lObject.cpp">
<polygon fill="white" stroke="black" points="-0.5,-1 -0.5,-35 174.5,-35 174.5,-1 -0.5,-1"/>
<text text-anchor="start" x="7.5" y="-22" font-family="Verdana" font-size="10.00">parameter/FormattedSubsystem</text>
<text text-anchor="middle" x="87" y="-9" font-family="Verdana" font-size="10.00">Object.cpp</text>
</a>
</g>
<!-- Node2&#45;&gt;Node3 -->
<g id="edge4" class="edge"><title>Node2&#45;&gt;Node3</title>
<path fill="none" stroke="midnightblue" d="M112.504,-63.9077C107.245,-54.4402 101.434,-43.9813 96.6893,-35.4407"/>
<polygon fill="midnightblue" stroke="midnightblue" points="109.605,-65.8952 117.521,-72.937 115.724,-62.4957 109.605,-65.8952"/>
</g>
<!-- Node5 -->
<g id="node9" class="node"><title>Node5</title>
<a xlink:href="Subsystem_8cpp.html" target="_top" xlink:title="parameter/Subsystem.cpp">
<polygon fill="white" stroke="black" points="191.5,-7.5 191.5,-28.5 336.5,-28.5 336.5,-7.5 191.5,-7.5"/>
<text text-anchor="middle" x="264" y="-15.5" font-family="Verdana" font-size="10.00">parameter/Subsystem.cpp</text>
</a>
</g>
<!-- Node4&#45;&gt;Node5 -->
<g id="edge8" class="edge"><title>Node4&#45;&gt;Node5</title>
<path fill="none" stroke="midnightblue" d="M351.362,-67.9209C328.564,-54.8935 300.735,-38.9912 282.704,-28.688"/>
<polygon fill="midnightblue" stroke="midnightblue" points="349.721,-71.0144 360.14,-72.937 353.194,-64.9367 349.721,-71.0144"/>
</g>
<!-- Node6 -->
<g id="node11" class="node"><title>Node6</title>
<a xlink:href="SubsystemObjectCreator_8cpp.html" target="_top" xlink:title="parameter/SubsystemObject\lCreator.cpp">
<polygon fill="white" stroke="black" points="353.5,-1 353.5,-35 508.5,-35 508.5,-1 353.5,-1"/>
<text text-anchor="start" x="361.5" y="-22" font-family="Verdana" font-size="10.00">parameter/SubsystemObject</text>
<text text-anchor="middle" x="431" y="-9" font-family="Verdana" font-size="10.00">Creator.cpp</text>
</a>
</g>
<!-- Node4&#45;&gt;Node6 -->
<g id="edge10" class="edge"><title>Node4&#45;&gt;Node6</title>
<path fill="none" stroke="midnightblue" d="M404.69,-64.2033C410.125,-54.6583 416.154,-44.0703 421.069,-35.4407"/>
<polygon fill="midnightblue" stroke="midnightblue" points="401.623,-62.5152 399.716,-72.937 407.706,-65.9791 401.623,-62.5152"/>
</g>
<!-- Node7 -->
<g id="node13" class="node"><title>Node7</title>
<a xlink:href="SubsystemObjectFactory_8h.html" target="_top" xlink:title="parameter/SubsystemObject\lFactory.h">
<polygon fill="white" stroke="black" points="525.5,-1 525.5,-35 680.5,-35 680.5,-1 525.5,-1"/>
<text text-anchor="start" x="533.5" y="-22" font-family="Verdana" font-size="10.00">parameter/SubsystemObject</text>
<text text-anchor="middle" x="603" y="-9" font-family="Verdana" font-size="10.00">Factory.h</text>
</a>
</g>
<!-- Node4&#45;&gt;Node7 -->
<g id="edge12" class="edge"><title>Node4&#45;&gt;Node7</title>
<path fill="none" stroke="midnightblue" d="M450.254,-69.6326C482.536,-58.7201 521.855,-45.4292 552.516,-35.0651"/>
<polygon fill="midnightblue" stroke="midnightblue" points="448.831,-66.419 440.478,-72.937 451.072,-73.0504 448.831,-66.419"/>
</g>
</g>
</svg>
