<?xml version="1.0" encoding="UTF-8" standalone="no"?>
<!DOCTYPE svg PUBLIC "-//W3C//DTD SVG 1.1//EN"
 "http://www.w3.org/Graphics/SVG/1.1/DTD/svg11.dtd">
<!-- Generated by graphviz version 2.26.3 (20100126.1600)
 -->
<!-- Title: parameter/SubsystemObject.cpp Pages: 1 -->
<svg width="1413pt" height="378pt"
 viewBox="0.00 0.00 1413.00 378.00" xmlns="http://www.w3.org/2000/svg" xmlns:xlink="http://www.w3.org/1999/xlink">
<g id="graph1" class="graph" transform="scale(1 1) rotate(0) translate(4 374)">
<title>parameter/SubsystemObject.cpp</title>
<polygon fill="white" stroke="white" points="-4,5 -4,-374 1410,-374 1410,5 -4,5"/>
<!-- Node1 -->
<g id="node1" class="node"><title>Node1</title>
<polygon fill="#bfbfbf" stroke="black" points="928,-348.5 928,-369.5 1104,-369.5 1104,-348.5 928,-348.5"/>
<text text-anchor="middle" x="1016" y="-356.5" font-family="Verdana" font-size="10.00">parameter/SubsystemObject.cpp</text>
</g>
<!-- Node2 -->
<g id="node3" class="node"><title>Node2</title>
<a xlink:href="SubsystemObject_8h.html" target="_top" xlink:title="SubsystemObject.h">
<polygon fill="white" stroke="black" points="28,-116.5 28,-137.5 138,-137.5 138,-116.5 28,-116.5"/>
<text text-anchor="middle" x="83" y="-124.5" font-family="Verdana" font-size="10.00">SubsystemObject.h</text>
</a>
</g>
<!-- Node1&#45;&gt;Node2 -->
<g id="edge2" class="edge"><title>Node1&#45;&gt;Node2</title>
<path fill="none" stroke="midnightblue" d="M927.922,-357.228C752.05,-353.114 363.103,-340.964 233,-312 164.847,-296.828 127.117,-311.146 87,-254 64.8318,-222.422 71.0877,-174.712 77.2759,-147.653"/>
<polygon fill="midnightblue" stroke="midnightblue" points="80.724,-148.291 79.7553,-137.741 73.9332,-146.593 80.724,-148.291"/>
</g>
<!-- Node6 -->
<g id="node12" class="node"><title>Node6</title>
<a xlink:href="Subsystem_8h.html" target="_top" xlink:title="Subsystem.h">
<polygon fill="white" stroke="black" points="242,-290.5 242,-311.5 322,-311.5 322,-290.5 242,-290.5"/>
<text text-anchor="middle" x="282" y="-298.5" font-family="Verdana" font-size="10.00">Subsystem.h</text>
</a>
</g>
<!-- Node1&#45;&gt;Node6 -->
<g id="edge12" class="edge"><title>Node1&#45;&gt;Node6</title>
<path fill="none" stroke="midnightblue" d="M927.827,-352.033C772.747,-339.778 455.934,-314.744 332.662,-305.003"/>
<polygon fill="midnightblue" stroke="midnightblue" points="332.631,-301.49 322.386,-304.191 332.079,-308.468 332.631,-301.49"/>
</g>
<!-- Node16 -->
<g id="node41" class="node"><title>Node16</title>
<a xlink:href="MappingContext_8h.html" target="_top" xlink:title="MappingContext.h">
<polygon fill="white" stroke="black" points="760,-174.5 760,-195.5 864,-195.5 864,-174.5 760,-174.5"/>
<text text-anchor="middle" x="812" y="-182.5" font-family="Verdana" font-size="10.00">MappingContext.h</text>
</a>
</g>
<!-- Node1&#45;&gt;Node16 -->
<g id="edge100" class="edge"><title>Node1&#45;&gt;Node16</title>
<path fill="none" stroke="midnightblue" d="M996.798,-348.451C966.476,-331.226 906.582,-294.859 864,-254 848.374,-239.006 833.834,-218.978 824.125,-204.364"/>
<polygon fill="midnightblue" stroke="midnightblue" points="826.854,-202.139 818.48,-195.648 820.979,-205.944 826.854,-202.139"/>
</g>
<!-- Node18 -->
<g id="node50" class="node"><title>Node18</title>
<a xlink:href="InstanceConfigurableElement_8h.html" target="_top" xlink:title="InstanceConfigurableElement.h">
<polygon fill="white" stroke="black" points="545,-290.5 545,-311.5 711,-311.5 711,-290.5 545,-290.5"/>
<text text-anchor="middle" x="628" y="-298.5" font-family="Verdana" font-size="10.00">InstanceConfigurableElement.h</text>
</a>
</g>
<!-- Node1&#45;&gt;Node18 -->
<g id="edge64" class="edge"><title>Node1&#45;&gt;Node18</title>
<path fill="none" stroke="midnightblue" d="M945.736,-348.497C878.922,-338.509 778.501,-323.498 708.496,-313.033"/>
<polygon fill="midnightblue" stroke="midnightblue" points="708.803,-309.54 698.396,-311.523 707.768,-316.463 708.803,-309.54"/>
</g>
<!-- Node20 -->
<g id="node59" class="node"><title>Node20</title>
<a xlink:href="ParameterBlackboard_8h.html" target="_top" xlink:title="ParameterBlackboard.h">
<polygon fill="white" stroke="black" points="1163.5,-116.5 1163.5,-137.5 1292.5,-137.5 1292.5,-116.5 1163.5,-116.5"/>
<text text-anchor="middle" x="1228" y="-124.5" font-family="Verdana" font-size="10.00">ParameterBlackboard.h</text>
</a>
</g>
<!-- Node1&#45;&gt;Node20 -->
<g id="edge78" class="edge"><title>Node1&#45;&gt;Node20</title>
<path fill="none" stroke="midnightblue" d="M1020.7,-348.08C1027.09,-333.912 1039.4,-308.788 1054,-290 1100.83,-229.743 1170.46,-171.732 1205.76,-143.988"/>
<polygon fill="midnightblue" stroke="midnightblue" points="1208.22,-146.509 1213.96,-137.604 1203.92,-140.986 1208.22,-146.509"/>
</g>
<!-- Node23 -->
<g id="node68" class="node"><title>Node23</title>
<a xlink:href="ParameterAccessContext_8h.html" target="_top" xlink:title="ParameterAccessContext.h">
<polygon fill="white" stroke="black" points="923.5,-116.5 923.5,-137.5 1070.5,-137.5 1070.5,-116.5 923.5,-116.5"/>
<text text-anchor="middle" x="997" y="-124.5" font-family="Verdana" font-size="10.00">ParameterAccessContext.h</text>
</a>
</g>
<!-- Node1&#45;&gt;Node23 -->
<g id="edge90" class="edge"><title>Node1&#45;&gt;Node23</title>
<path fill="none" stroke="midnightblue" d="M1015.13,-348.429C1012.2,-312.648 1002.62,-195.663 998.699,-147.748"/>
<polygon fill="midnightblue" stroke="midnightblue" points="1002.18,-147.314 997.871,-137.634 995.199,-147.886 1002.18,-147.314"/>
</g>
<!-- Node25 -->
<g id="node76" class="node"><title>Node25</title>
<a xlink:href="ParameterType_8h.html" target="_top" xlink:title="ParameterType.h">
<polygon fill="white" stroke="black" points="872.5,-232.5 872.5,-253.5 969.5,-253.5 969.5,-232.5 872.5,-232.5"/>
<text text-anchor="middle" x="921" y="-240.5" font-family="Verdana" font-size="10.00">ParameterType.h</text>
</a>
</g>
<!-- Node1&#45;&gt;Node25 -->
<g id="edge102" class="edge"><title>Node1&#45;&gt;Node25</title>
<path fill="none" stroke="midnightblue" d="M1007.23,-348.295C991.044,-328.527 956.281,-286.08 936.187,-261.544"/>
<polygon fill="midnightblue" stroke="midnightblue" points="938.79,-259.198 929.746,-253.679 933.374,-263.633 938.79,-259.198"/>
</g>
<!-- Node27 -->
<g id="node83" class="node"><title>Node27</title>
<polygon fill="white" stroke="#bfbfbf" points="1063,-290.5 1063,-311.5 1119,-311.5 1119,-290.5 1063,-290.5"/>
<text text-anchor="middle" x="1091" y="-298.5" font-family="Verdana" font-size="10.00">assert.h</text>
</g>
<!-- Node1&#45;&gt;Node27 -->
<g id="edge112" class="edge"><title>Node1&#45;&gt;Node27</title>
<path fill="none" stroke="midnightblue" d="M1029.76,-348.362C1040.75,-339.859 1056.37,-327.779 1069.09,-317.947"/>
<polygon fill="midnightblue" stroke="midnightblue" points="1071.56,-320.457 1077.33,-311.571 1067.28,-314.919 1071.56,-320.457"/>
</g>
<!-- Node28 -->
<g id="node85" class="node"><title>Node28</title>
<polygon fill="white" stroke="#bfbfbf" points="1136.5,-290.5 1136.5,-311.5 1187.5,-311.5 1187.5,-290.5 1136.5,-290.5"/>
<text text-anchor="middle" x="1162" y="-298.5" font-family="Verdana" font-size="10.00">stdlib.h</text>
</g>
<!-- Node1&#45;&gt;Node28 -->
<g id="edge114" class="edge"><title>Node1&#45;&gt;Node28</title>
<path fill="none" stroke="midnightblue" d="M1042.44,-348.497C1066.05,-339.118 1100.81,-325.31 1126.77,-314.996"/>
<polygon fill="midnightblue" stroke="midnightblue" points="1128.25,-318.175 1136.25,-311.231 1125.66,-311.67 1128.25,-318.175"/>
</g>
<!-- Node29 -->
<g id="node87" class="node"><title>Node29</title>
<polygon fill="white" stroke="#bfbfbf" points="1204.5,-290.5 1204.5,-311.5 1257.5,-311.5 1257.5,-290.5 1204.5,-290.5"/>
<text text-anchor="middle" x="1231" y="-298.5" font-family="Verdana" font-size="10.00">string.h</text>
</g>
<!-- Node1&#45;&gt;Node29 -->
<g id="edge116" class="edge"><title>Node1&#45;&gt;Node29</title>
<path fill="none" stroke="midnightblue" d="M1058.71,-348.476C1093.14,-339.851 1143.02,-327.042 1194.63,-312.315"/>
<polygon fill="midnightblue" stroke="midnightblue" points="1195.64,-315.667 1204.29,-309.544 1193.71,-308.939 1195.64,-315.667"/>
</g>
<!-- Node30 -->
<g id="node89" class="node"><title>Node30</title>
<polygon fill="white" stroke="#bfbfbf" points="1275,-290.5 1275,-311.5 1331,-311.5 1331,-290.5 1275,-290.5"/>
<text text-anchor="middle" x="1303" y="-298.5" font-family="Verdana" font-size="10.00">sstream</text>
</g>
<!-- Node1&#45;&gt;Node30 -->
<g id="edge118" class="edge"><title>Node1&#45;&gt;Node30</title>
<path fill="none" stroke="midnightblue" d="M1082.19,-348.471C1130.44,-340.357 1197.54,-328.165 1264.87,-312.107"/>
<polygon fill="midnightblue" stroke="midnightblue" points="1265.9,-315.459 1274.8,-309.71 1264.26,-308.654 1265.9,-315.459"/>
</g>
<!-- Node31 -->
<g id="node91" class="node"><title>Node31</title>
<polygon fill="white" stroke="#bfbfbf" points="1349,-290.5 1349,-311.5 1405,-311.5 1405,-290.5 1349,-290.5"/>
<text text-anchor="middle" x="1377" y="-298.5" font-family="Verdana" font-size="10.00">stdarg.h</text>
</g>
<!-- Node1&#45;&gt;Node31 -->
<g id="edge120" class="edge"><title>Node1&#45;&gt;Node31</title>
<path fill="none" stroke="midnightblue" d="M1104.29,-349.696C1167.36,-342.235 1254.3,-330.296 1339.04,-311.98"/>
<polygon fill="midnightblue" stroke="midnightblue" points="1339.81,-315.395 1348.83,-309.834 1338.31,-308.557 1339.81,-315.395"/>
</g>
<!-- Node3 -->
<g id="node5" class="node"><title>Node3</title>
<a xlink:href="Syncer_8h.html" target="_top" xlink:title="Syncer.h">
<polygon fill="white" stroke="black" points="80,-58.5 80,-79.5 138,-79.5 138,-58.5 80,-58.5"/>
<text text-anchor="middle" x="109" y="-66.5" font-family="Verdana" font-size="10.00">Syncer.h</text>
</a>
</g>
<!-- Node2&#45;&gt;Node3 -->
<g id="edge4" class="edge"><title>Node2&#45;&gt;Node3</title>
<path fill="none" stroke="midnightblue" d="M87.7688,-116.362C91.2139,-108.677 95.9692,-98.0686 100.106,-88.8399"/>
<polygon fill="midnightblue" stroke="midnightblue" points="103.365,-90.1275 104.261,-79.5707 96.977,-87.264 103.365,-90.1275"/>
</g>
<!-- Node4 -->
<g id="node7" class="node"><title>Node4</title>
<polygon fill="white" stroke="#bfbfbf" points="669,-0.5 669,-21.5 713,-21.5 713,-0.5 669,-0.5"/>
<text text-anchor="middle" x="691" y="-8.5" font-family="Verdana" font-size="10.00">string</text>
</g>
<!-- Node2&#45;&gt;Node4 -->
<g id="edge10" class="edge"><title>Node2&#45;&gt;Node4</title>
<path fill="none" stroke="midnightblue" d="M76.3802,-116.36C67.9657,-101.336 56.2032,-73.9609 71,-58 91.1675,-36.2458 533.927,-17.1938 658.596,-12.246"/>
<polygon fill="midnightblue" stroke="midnightblue" points="658.813,-15.7403 668.668,-11.8496 658.538,-8.74569 658.813,-15.7403"/>
</g>
<!-- Node5 -->
<g id="node9" class="node"><title>Node5</title>
<polygon fill="white" stroke="#bfbfbf" points="1052.5,-0.5 1052.5,-21.5 1105.5,-21.5 1105.5,-0.5 1052.5,-0.5"/>
<text text-anchor="middle" x="1079" y="-8.5" font-family="Verdana" font-size="10.00">stdint.h</text>
</g>
<!-- Node2&#45;&gt;Node5 -->
<g id="edge8" class="edge"><title>Node2&#45;&gt;Node5</title>
<path fill="none" stroke="midnightblue" d="M108.727,-116.465C148.673,-100.643 228.377,-71.1938 299,-58 444.42,-30.8327 908.175,-15.8428 1042.32,-11.9993"/>
<polygon fill="midnightblue" stroke="midnightblue" points="1042.59,-15.4934 1052.49,-11.7116 1042.39,-8.49616 1042.59,-15.4934"/>
</g>
<!-- Node3&#45;&gt;Node4 -->
<g id="edge6" class="edge"><title>Node3&#45;&gt;Node4</title>
<path fill="none" stroke="midnightblue" d="M138.006,-60.8947C142.659,-59.793 147.442,-58.7763 152,-58 342.282,-25.5893 574.38,-14.9273 658.557,-11.9818"/>
<polygon fill="midnightblue" stroke="midnightblue" points="658.881,-15.4729 668.758,-11.6377 658.645,-8.47691 658.881,-15.4729"/>
</g>
<!-- Node6&#45;&gt;Node4 -->
<g id="edge60" class="edge"><title>Node6&#45;&gt;Node4</title>
<path fill="none" stroke="midnightblue" d="M242.583,-290.449C222.692,-283.232 199.725,-271.691 185,-254 164.651,-229.552 166,-216.808 166,-185 166,-185 166,-185 166,-127 166,-75.5326 211.078,-76.7718 259,-58 331.996,-29.4062 571.195,-16.2626 658.626,-12.3288"/>
<polygon fill="midnightblue" stroke="midnightblue" points="658.914,-15.8196 668.75,-11.8841 658.606,-8.82632 658.914,-15.8196"/>
</g>
<!-- Node7 -->
<g id="node14" class="node"><title>Node7</title>
<a xlink:href="ConfigurableElement_8h.html" target="_top" xlink:title="ConfigurableElement.h">
<polygon fill="white" stroke="black" points="381.5,-174.5 381.5,-195.5 506.5,-195.5 506.5,-174.5 381.5,-174.5"/>
<text text-anchor="middle" x="444" y="-182.5" font-family="Verdana" font-size="10.00">ConfigurableElement.h</text>
</a>
</g>
<!-- Node6&#45;&gt;Node7 -->
<g id="edge14" class="edge"><title>Node6&#45;&gt;Node7</title>
<path fill="none" stroke="midnightblue" d="M322.397,-298.422C380.306,-293.789 482.442,-281.808 505,-254 520.295,-235.145 495.985,-214.382 473.672,-200.608"/>
<polygon fill="midnightblue" stroke="midnightblue" points="475.385,-197.555 464.989,-195.513 471.843,-203.593 475.385,-197.555"/>
</g>
<!-- Node9 -->
<g id="node19" class="node"><title>Node9</title>
<polygon fill="white" stroke="#bfbfbf" points="342.5,-0.5 342.5,-21.5 389.5,-21.5 389.5,-0.5 342.5,-0.5"/>
<text text-anchor="middle" x="366" y="-8.5" font-family="Verdana" font-size="10.00">vector</text>
</g>
<!-- Node6&#45;&gt;Node9 -->
<g id="edge62" class="edge"><title>Node6&#45;&gt;Node9</title>
<path fill="none" stroke="midnightblue" d="M241.811,-296.481C201.134,-290.745 137.242,-278.488 87,-254 42.6375,-232.378 0,-234.351 0,-185 0,-185 0,-185 0,-127 0,-86.3607 24.4085,-77.6164 60,-58 106.357,-32.4501 262.519,-18.3938 332.08,-13.2694"/>
<polygon fill="midnightblue" stroke="midnightblue" points="332.747,-16.7307 342.471,-12.5233 332.246,-9.74864 332.747,-16.7307"/>
</g>
<!-- Node10 -->
<g id="node22" class="node"><title>Node10</title>
<polygon fill="white" stroke="#bfbfbf" points="308,-58.5 308,-79.5 338,-79.5 338,-58.5 308,-58.5"/>
<text text-anchor="middle" x="323" y="-66.5" font-family="Verdana" font-size="10.00">list</text>
</g>
<!-- Node6&#45;&gt;Node10 -->
<g id="edge56" class="edge"><title>Node6&#45;&gt;Node10</title>
<path fill="none" stroke="midnightblue" d="M283.868,-290.429C290.192,-254.648 310.866,-137.663 319.333,-89.7481"/>
<polygon fill="midnightblue" stroke="midnightblue" points="322.827,-90.09 321.121,-79.6335 315.934,-88.8718 322.827,-90.09"/>
</g>
<!-- Node14 -->
<g id="node34" class="node"><title>Node14</title>
<a xlink:href="ConfigurableElementWithMapping_8h.html" target="_top" xlink:title="ConfigurableElementWithMapping.h">
<polygon fill="white" stroke="black" points="310,-232.5 310,-253.5 496,-253.5 496,-232.5 310,-232.5"/>
<text text-anchor="middle" x="403" y="-240.5" font-family="Verdana" font-size="10.00">ConfigurableElementWithMapping.h</text>
</a>
</g>
<!-- Node6&#45;&gt;Node14 -->
<g id="edge40" class="edge"><title>Node6&#45;&gt;Node14</title>
<path fill="none" stroke="midnightblue" d="M303.912,-290.497C322.811,-281.438 350.331,-268.246 371.576,-258.063"/>
<polygon fill="midnightblue" stroke="midnightblue" points="373.337,-261.1 380.842,-253.621 370.311,-254.788 373.337,-261.1"/>
</g>
<!-- Node15 -->
<g id="node38" class="node"><title>Node15</title>
<a xlink:href="Mapper_8h.html" target="_top" xlink:title="Mapper.h">
<polygon fill="white" stroke="black" points="193.5,-232.5 193.5,-253.5 254.5,-253.5 254.5,-232.5 193.5,-232.5"/>
<text text-anchor="middle" x="224" y="-240.5" font-family="Verdana" font-size="10.00">Mapper.h</text>
</a>
</g>
<!-- Node6&#45;&gt;Node15 -->
<g id="edge46" class="edge"><title>Node6&#45;&gt;Node15</title>
<path fill="none" stroke="midnightblue" d="M271.362,-290.362C263.104,-282.104 251.472,-270.472 241.803,-260.803"/>
<polygon fill="midnightblue" stroke="midnightblue" points="244.117,-258.167 234.571,-253.571 239.167,-263.117 244.117,-258.167"/>
</g>
<!-- Node6&#45;&gt;Node16 -->
<g id="edge50" class="edge"><title>Node6&#45;&gt;Node16</title>
<path fill="none" stroke="midnightblue" d="M322.271,-293.572C369.854,-284.682 451.363,-269.097 521,-254 604.77,-235.839 701.514,-212.406 759.662,-198.054"/>
<polygon fill="midnightblue" stroke="midnightblue" points="760.84,-201.368 769.707,-195.57 759.159,-194.573 760.84,-201.368"/>
</g>
<!-- Node17 -->
<g id="node46" class="node"><title>Node17</title>
<polygon fill="white" stroke="#bfbfbf" points="96,-232.5 96,-253.5 138,-253.5 138,-232.5 96,-232.5"/>
<text text-anchor="middle" x="117" y="-240.5" font-family="Verdana" font-size="10.00">stack</text>
</g>
<!-- Node6&#45;&gt;Node17 -->
<g id="edge58" class="edge"><title>Node6&#45;&gt;Node17</title>
<path fill="none" stroke="midnightblue" d="M252.12,-290.497C222.583,-280.114 177.603,-264.303 147.764,-253.814"/>
<polygon fill="midnightblue" stroke="midnightblue" points="148.863,-250.491 138.269,-250.476 146.542,-257.094 148.863,-250.491"/>
</g>
<!-- Node8 -->
<g id="node16" class="node"><title>Node8</title>
<a xlink:href="Element_8h.html" target="_top" xlink:title="Element.h">
<polygon fill="white" stroke="black" points="530.5,-116.5 530.5,-137.5 595.5,-137.5 595.5,-116.5 530.5,-116.5"/>
<text text-anchor="middle" x="563" y="-124.5" font-family="Verdana" font-size="10.00">Element.h</text>
</a>
</g>
<!-- Node7&#45;&gt;Node8 -->
<g id="edge16" class="edge"><title>Node7&#45;&gt;Node8</title>
<path fill="none" stroke="midnightblue" d="M465.55,-174.497C484.136,-165.438 511.202,-152.246 532.095,-142.063"/>
<polygon fill="midnightblue" stroke="midnightblue" points="533.753,-145.149 541.208,-137.621 530.686,-138.856 533.753,-145.149"/>
</g>
<!-- Node7&#45;&gt;Node10 -->
<g id="edge38" class="edge"><title>Node7&#45;&gt;Node10</title>
<path fill="none" stroke="midnightblue" d="M432.833,-174.295C412.034,-154.355 367.162,-111.337 341.677,-86.9056"/>
<polygon fill="midnightblue" stroke="midnightblue" points="343.78,-84.073 334.14,-79.6792 338.936,-89.1261 343.78,-84.073"/>
</g>
<!-- Node8&#45;&gt;Node4 -->
<g id="edge18" class="edge"><title>Node8&#45;&gt;Node4</title>
<path fill="none" stroke="midnightblue" d="M547.177,-116.419C528.494,-102.618 501.77,-77.8897 517,-58 534.164,-35.5852 613.579,-21.4181 658.962,-15.008"/>
<polygon fill="midnightblue" stroke="midnightblue" points="659.467,-18.4716 668.902,-13.6511 658.521,-11.5359 659.467,-18.4716"/>
</g>
<!-- Node8&#45;&gt;Node5 -->
<g id="edge22" class="edge"><title>Node8&#45;&gt;Node5</title>
<path fill="none" stroke="midnightblue" d="M595.67,-119.656C687.261,-99.0653 946.086,-40.8799 1042.34,-19.2406"/>
<polygon fill="midnightblue" stroke="midnightblue" points="1043.21,-22.6325 1052.2,-17.0244 1041.68,-15.803 1043.21,-22.6325"/>
</g>
<!-- Node8&#45;&gt;Node9 -->
<g id="edge20" class="edge"><title>Node8&#45;&gt;Node9</title>
<path fill="none" stroke="midnightblue" d="M530.126,-118.759C479.414,-105.987 387.627,-82.5994 385,-80 372.278,-67.4119 367.858,-47.1454 366.424,-31.8261"/>
<polygon fill="midnightblue" stroke="midnightblue" points="369.911,-31.5043 365.832,-21.7262 362.923,-31.9139 369.911,-31.5043"/>
</g>
<!-- Node8&#45;&gt;Node10 -->
<g id="edge24" class="edge"><title>Node8&#45;&gt;Node10</title>
<path fill="none" stroke="midnightblue" d="M530.351,-119.108C525.868,-118.049 521.323,-116.988 517,-116 443.83,-99.2709 423.953,-101.368 352,-80 350.58,-79.5784 349.131,-79.1205 347.675,-78.6389"/>
<polygon fill="midnightblue" stroke="midnightblue" points="348.801,-75.3246 338.207,-75.2513 346.443,-81.9155 348.801,-75.3246"/>
</g>
<!-- Node11 -->
<g id="node24" class="node"><title>Node11</title>
<polygon fill="white" stroke="#bfbfbf" points="526,-58.5 526,-79.5 590,-79.5 590,-58.5 526,-58.5"/>
<text text-anchor="middle" x="558" y="-66.5" font-family="Verdana" font-size="10.00">XmlSink.h</text>
</g>
<!-- Node8&#45;&gt;Node11 -->
<g id="edge26" class="edge"><title>Node8&#45;&gt;Node11</title>
<path fill="none" stroke="midnightblue" d="M562.083,-116.362C561.442,-108.922 560.564,-98.7427 559.787,-89.7276"/>
<polygon fill="midnightblue" stroke="midnightblue" points="563.257,-89.2331 558.911,-79.5707 556.283,-89.8343 563.257,-89.2331"/>
</g>
<!-- Node12 -->
<g id="node26" class="node"><title>Node12</title>
<polygon fill="white" stroke="#bfbfbf" points="393.5,-58.5 393.5,-79.5 470.5,-79.5 470.5,-58.5 393.5,-58.5"/>
<text text-anchor="middle" x="432" y="-66.5" font-family="Verdana" font-size="10.00">XmlSource.h</text>
</g>
<!-- Node8&#45;&gt;Node12 -->
<g id="edge28" class="edge"><title>Node8&#45;&gt;Node12</title>
<path fill="none" stroke="midnightblue" d="M539.277,-116.497C518.632,-107.356 488.484,-94.0082 465.401,-83.7883"/>
<polygon fill="midnightblue" stroke="midnightblue" points="466.55,-80.4694 455.989,-79.6212 463.716,-86.8701 466.55,-80.4694"/>
</g>
<!-- Node13 -->
<g id="node28" class="node"><title>Node13</title>
<a xlink:href="PathNavigator_8h.html" target="_top" xlink:title="PathNavigator.h">
<polygon fill="white" stroke="black" points="608,-58.5 608,-79.5 700,-79.5 700,-58.5 608,-58.5"/>
<text text-anchor="middle" x="654" y="-66.5" font-family="Verdana" font-size="10.00">PathNavigator.h</text>
</a>
</g>
<!-- Node8&#45;&gt;Node13 -->
<g id="edge30" class="edge"><title>Node8&#45;&gt;Node13</title>
<path fill="none" stroke="midnightblue" d="M579.691,-116.362C593.416,-107.614 613.084,-95.0786 628.737,-85.1015"/>
<polygon fill="midnightblue" stroke="midnightblue" points="630.863,-87.8969 637.415,-79.5707 627.101,-81.994 630.863,-87.8969"/>
</g>
<!-- Node13&#45;&gt;Node4 -->
<g id="edge34" class="edge"><title>Node13&#45;&gt;Node4</title>
<path fill="none" stroke="midnightblue" d="M660.786,-58.3619C665.793,-50.5131 672.745,-39.6159 678.718,-30.2527"/>
<polygon fill="midnightblue" stroke="midnightblue" points="681.829,-31.8837 684.257,-21.5707 675.928,-28.1189 681.829,-31.8837"/>
</g>
<!-- Node13&#45;&gt;Node5 -->
<g id="edge36" class="edge"><title>Node13&#45;&gt;Node5</title>
<path fill="none" stroke="midnightblue" d="M700.291,-62.6826C785.358,-51.0736 964.898,-26.5716 1042.26,-16.014"/>
<polygon fill="midnightblue" stroke="midnightblue" points="1043.04,-19.4397 1052.48,-14.6196 1042.1,-12.504 1043.04,-19.4397"/>
</g>
<!-- Node13&#45;&gt;Node9 -->
<g id="edge32" class="edge"><title>Node13&#45;&gt;Node9</title>
<path fill="none" stroke="midnightblue" d="M607.728,-59.6813C549.564,-47.9677 451.123,-28.1428 399.646,-17.7759"/>
<polygon fill="midnightblue" stroke="midnightblue" points="400.198,-14.3169 389.704,-15.7737 398.816,-21.1792 400.198,-14.3169"/>
</g>
<!-- Node14&#45;&gt;Node4 -->
<g id="edge44" class="edge"><title>Node14&#45;&gt;Node4</title>
<path fill="none" stroke="midnightblue" d="M388.603,-232.407C349.552,-202.457 247.892,-115.602 299,-58 322.769,-31.2104 569.012,-16.8364 658.621,-12.4618"/>
<polygon fill="midnightblue" stroke="midnightblue" points="658.926,-15.9513 668.747,-11.9777 658.591,-8.9593 658.926,-15.9513"/>
</g>
<!-- Node14&#45;&gt;Node7 -->
<g id="edge42" class="edge"><title>Node14&#45;&gt;Node7</title>
<path fill="none" stroke="midnightblue" d="M410.52,-232.362C416.126,-224.431 423.932,-213.389 430.597,-203.961"/>
<polygon fill="midnightblue" stroke="midnightblue" points="433.613,-205.757 436.528,-195.571 427.897,-201.716 433.613,-205.757"/>
</g>
<!-- Node15&#45;&gt;Node4 -->
<g id="edge48" class="edge"><title>Node15&#45;&gt;Node4</title>
<path fill="none" stroke="midnightblue" d="M223.736,-232.05C223.607,-199.564 228.067,-103.189 283,-58 311.9,-34.226 567.786,-17.8365 658.933,-12.7083"/>
<polygon fill="midnightblue" stroke="midnightblue" points="659.17,-16.2006 668.961,-12.1523 658.782,-9.21134 659.17,-16.2006"/>
</g>
<!-- Node16&#45;&gt;Node4 -->
<g id="edge54" class="edge"><title>Node16&#45;&gt;Node4</title>
<path fill="none" stroke="midnightblue" d="M809.623,-174.427C803.99,-151.243 788,-95.0568 758,-58 747.856,-45.4702 733.543,-34.8147 720.749,-26.8333"/>
<polygon fill="midnightblue" stroke="midnightblue" points="722.167,-23.6049 711.783,-21.5057 718.592,-29.6228 722.167,-23.6049"/>
</g>
<!-- Node16&#45;&gt;Node5 -->
<g id="edge52" class="edge"><title>Node16&#45;&gt;Node5</title>
<path fill="none" stroke="midnightblue" d="M864.103,-179.427C937.859,-171.007 1065.33,-154.291 1079,-138 1104.03,-108.182 1094.53,-59.083 1086.23,-31.4832"/>
<polygon fill="midnightblue" stroke="midnightblue" points="1089.48,-30.1596 1083.07,-21.7239 1082.82,-32.3158 1089.48,-30.1596"/>
</g>
<!-- Node18&#45;&gt;Node4 -->
<g id="edge76" class="edge"><title>Node18&#45;&gt;Node4</title>
<path fill="none" stroke="midnightblue" d="M628.059,-290.408C628.508,-268.111 631.291,-215.014 647,-174 664.901,-127.264 694.615,-127.935 709,-80 713.925,-63.5883 708.263,-44.7537 702.022,-30.9133"/>
<polygon fill="midnightblue" stroke="midnightblue" points="705.095,-29.2306 697.519,-21.824 698.823,-32.3384 705.095,-29.2306"/>
</g>
<!-- Node18&#45;&gt;Node10 -->
<g id="edge74" class="edge"><title>Node18&#45;&gt;Node10</title>
<path fill="none" stroke="midnightblue" d="M620.524,-290.354C603.748,-267.024 560.959,-210.565 515,-174 460.416,-130.573 385.373,-95.4307 347.29,-79.0255"/>
<polygon fill="midnightblue" stroke="midnightblue" points="348.58,-75.7706 338.007,-75.0838 345.844,-82.2138 348.58,-75.7706"/>
</g>
<!-- Node18&#45;&gt;Node14 -->
<g id="edge66" class="edge"><title>Node18&#45;&gt;Node14</title>
<path fill="none" stroke="midnightblue" d="M587.254,-290.497C549.779,-280.836 494.073,-266.477 453.728,-256.077"/>
<polygon fill="midnightblue" stroke="midnightblue" points="454.379,-252.63 443.822,-253.523 452.632,-259.409 454.379,-252.63"/>
</g>
<!-- Node19 -->
<g id="node53" class="node"><title>Node19</title>
<a xlink:href="TypeElement_8h.html" target="_top" xlink:title="TypeElement.h">
<polygon fill="white" stroke="black" points="656,-174.5 656,-195.5 742,-195.5 742,-174.5 656,-174.5"/>
<text text-anchor="middle" x="699" y="-182.5" font-family="Verdana" font-size="10.00">TypeElement.h</text>
</a>
</g>
<!-- Node18&#45;&gt;Node19 -->
<g id="edge68" class="edge"><title>Node18&#45;&gt;Node19</title>
<path fill="none" stroke="midnightblue" d="M634.552,-290.295C646.493,-270.786 671.954,-229.188 687.054,-204.518"/>
<polygon fill="midnightblue" stroke="midnightblue" points="690.228,-206.036 692.464,-195.679 684.258,-202.381 690.228,-206.036"/>
</g>
<!-- Node19&#45;&gt;Node4 -->
<g id="edge72" class="edge"><title>Node19&#45;&gt;Node4</title>
<path fill="none" stroke="midnightblue" d="M707.997,-174.228C725.38,-152.033 760.316,-99.7873 742,-58 736.675,-45.8522 726.49,-35.4564 716.613,-27.554"/>
<polygon fill="midnightblue" stroke="midnightblue" points="718.615,-24.6807 708.503,-21.5188 714.436,-30.2965 718.615,-24.6807"/>
</g>
<!-- Node19&#45;&gt;Node8 -->
<g id="edge70" class="edge"><title>Node19&#45;&gt;Node8</title>
<path fill="none" stroke="midnightblue" d="M674.371,-174.497C652.843,-165.315 621.36,-151.889 597.355,-141.652"/>
<polygon fill="midnightblue" stroke="midnightblue" points="598.476,-138.325 587.905,-137.621 595.73,-144.764 598.476,-138.325"/>
</g>
<!-- Node20&#45;&gt;Node5 -->
<g id="edge80" class="edge"><title>Node20&#45;&gt;Node5</title>
<path fill="none" stroke="midnightblue" d="M1217.05,-116.433C1202.33,-102.432 1175.1,-77.2609 1150,-58 1135.57,-46.927 1118.61,-35.6403 1104.88,-26.9035"/>
<polygon fill="midnightblue" stroke="midnightblue" points="1106.72,-23.9226 1096.39,-21.5582 1102.99,-29.847 1106.72,-23.9226"/>
</g>
<!-- Node21 -->
<g id="node62" class="node"><title>Node21</title>
<a xlink:href="BinaryStream_8h.html" target="_top" xlink:title="BinaryStream.h">
<polygon fill="white" stroke="black" points="1202,-58.5 1202,-79.5 1294,-79.5 1294,-58.5 1202,-58.5"/>
<text text-anchor="middle" x="1248" y="-66.5" font-family="Verdana" font-size="10.00">BinaryStream.h</text>
</a>
</g>
<!-- Node20&#45;&gt;Node21 -->
<g id="edge82" class="edge"><title>Node20&#45;&gt;Node21</title>
<path fill="none" stroke="midnightblue" d="M1231.67,-116.362C1234.29,-108.758 1237.9,-98.294 1241.06,-89.1349"/>
<polygon fill="midnightblue" stroke="midnightblue" points="1244.4,-90.1654 1244.35,-79.5707 1237.79,-87.8834 1244.4,-90.1654"/>
</g>
<!-- Node21&#45;&gt;Node4 -->
<g id="edge86" class="edge"><title>Node21&#45;&gt;Node4</title>
<path fill="none" stroke="midnightblue" d="M1201.94,-64.2043C1092.14,-52.7708 817.133,-24.1341 723.108,-14.3433"/>
<polygon fill="midnightblue" stroke="midnightblue" points="723.371,-10.852 713.063,-13.2974 722.646,-17.8143 723.371,-10.852"/>
</g>
<!-- Node21&#45;&gt;Node5 -->
<g id="edge84" class="edge"><title>Node21&#45;&gt;Node5</title>
<path fill="none" stroke="midnightblue" d="M1217.4,-58.4966C1188.77,-48.6714 1145.97,-33.9846 1115.56,-23.5471"/>
<polygon fill="midnightblue" stroke="midnightblue" points="1116.35,-20.1192 1105.76,-20.1835 1114.08,-26.7402 1116.35,-20.1192"/>
</g>
<!-- Node22 -->
<g id="node66" class="node"><title>Node22</title>
<polygon fill="white" stroke="#bfbfbf" points="1221,-0.5 1221,-21.5 1275,-21.5 1275,-0.5 1221,-0.5"/>
<text text-anchor="middle" x="1248" y="-8.5" font-family="Verdana" font-size="10.00">fstream</text>
</g>
<!-- Node21&#45;&gt;Node22 -->
<g id="edge88" class="edge"><title>Node21&#45;&gt;Node22</title>
<path fill="none" stroke="midnightblue" d="M1248,-58.3619C1248,-50.9219 1248,-40.7427 1248,-31.7276"/>
<polygon fill="midnightblue" stroke="midnightblue" points="1251.5,-31.5706 1248,-21.5707 1244.5,-31.5707 1251.5,-31.5706"/>
</g>
<!-- Node23&#45;&gt;Node4 -->
<g id="edge98" class="edge"><title>Node23&#45;&gt;Node4</title>
<path fill="none" stroke="midnightblue" d="M1002.22,-116.205C1008.61,-101.244 1016.96,-74.2226 1003,-58 984.87,-36.9341 799.39,-19.7296 723.301,-13.5042"/>
<polygon fill="midnightblue" stroke="midnightblue" points="723.569,-10.0145 713.32,-12.6994 723.006,-16.9919 723.569,-10.0145"/>
</g>
<!-- Node23&#45;&gt;Node5 -->
<g id="edge92" class="edge"><title>Node23&#45;&gt;Node5</title>
<path fill="none" stroke="midnightblue" d="M1006.74,-116.133C1014.9,-106.818 1026.69,-92.8983 1036,-80 1047.68,-63.8169 1059.57,-44.4646 1067.88,-30.3789"/>
<polygon fill="midnightblue" stroke="midnightblue" points="1071,-31.9742 1073.01,-21.5723 1064.95,-28.4486 1071,-31.9742"/>
</g>
<!-- Node24 -->
<g id="node71" class="node"><title>Node24</title>
<a xlink:href="ErrorContext_8h.html" target="_top" xlink:title="ErrorContext.h">
<polygon fill="white" stroke="black" points="908,-58.5 908,-79.5 994,-79.5 994,-58.5 908,-58.5"/>
<text text-anchor="middle" x="951" y="-66.5" font-family="Verdana" font-size="10.00">ErrorContext.h</text>
</a>
</g>
<!-- Node23&#45;&gt;Node24 -->
<g id="edge94" class="edge"><title>Node23&#45;&gt;Node24</title>
<path fill="none" stroke="midnightblue" d="M988.563,-116.362C982.208,-108.35 973.334,-97.1605 965.807,-87.6696"/>
<polygon fill="midnightblue" stroke="midnightblue" points="968.34,-85.2308 959.384,-79.5707 962.855,-89.5805 968.34,-85.2308"/>
</g>
<!-- Node24&#45;&gt;Node4 -->
<g id="edge96" class="edge"><title>Node24&#45;&gt;Node4</title>
<path fill="none" stroke="midnightblue" d="M907.774,-59.3574C855.687,-47.7379 769.396,-28.4882 722.95,-18.1272"/>
<polygon fill="midnightblue" stroke="midnightblue" points="723.649,-14.6973 713.127,-15.936 722.125,-21.5294 723.649,-14.6973"/>
</g>
<!-- Node25&#45;&gt;Node4 -->
<g id="edge110" class="edge"><title>Node25&#45;&gt;Node4</title>
<path fill="none" stroke="midnightblue" d="M915.177,-232.483C897.855,-201.989 843.75,-112.261 778,-58 761.242,-44.1705 739.79,-32.5276 722.381,-24.2894"/>
<polygon fill="midnightblue" stroke="midnightblue" points="723.729,-21.0574 713.18,-20.0707 720.811,-27.4203 723.729,-21.0574"/>
</g>
<!-- Node25&#45;&gt;Node5 -->
<g id="edge104" class="edge"><title>Node25&#45;&gt;Node5</title>
<path fill="none" stroke="midnightblue" d="M955.984,-232.447C997.084,-218.107 1063.97,-188.313 1098,-138 1118.04,-108.362 1116.5,-92.4965 1107,-58 1104.29,-48.153 1098.92,-38.2859 1093.59,-30.1528"/>
<polygon fill="midnightblue" stroke="midnightblue" points="1096.35,-27.9898 1087.75,-21.8007 1090.62,-32.0015 1096.35,-27.9898"/>
</g>
<!-- Node25&#45;&gt;Node19 -->
<g id="edge108" class="edge"><title>Node25&#45;&gt;Node19</title>
<path fill="none" stroke="midnightblue" d="M880.797,-232.497C843.822,-222.836 788.858,-208.477 749.052,-198.077"/>
<polygon fill="midnightblue" stroke="midnightblue" points="749.838,-194.665 739.278,-195.523 748.068,-201.437 749.838,-194.665"/>
</g>
<!-- Node26 -->
<g id="node79" class="node"><title>Node26</title>
<polygon fill="white" stroke="#bfbfbf" points="920,-174.5 920,-195.5 962,-195.5 962,-174.5 920,-174.5"/>
<text text-anchor="middle" x="941" y="-182.5" font-family="Verdana" font-size="10.00">limits</text>
</g>
<!-- Node25&#45;&gt;Node26 -->
<g id="edge106" class="edge"><title>Node25&#45;&gt;Node26</title>
<path fill="none" stroke="midnightblue" d="M924.668,-232.362C927.29,-224.758 930.899,-214.294 934.057,-205.135"/>
<polygon fill="midnightblue" stroke="midnightblue" points="937.404,-206.165 937.355,-195.571 930.786,-203.883 937.404,-206.165"/>
</g>
</g>
</svg>
