<?xml version="1.0" encoding="UTF-8" standalone="no"?>
<!DOCTYPE svg PUBLIC "-//W3C//DTD SVG 1.1//EN"
 "http://www.w3.org/Graphics/SVG/1.1/DTD/svg11.dtd">
<!-- Generated by graphviz version 2.26.3 (20100126.1600)
 -->
<!-- Title: parameter/SubsystemLibrary.h Pages: 1 -->
<svg width="518pt" height="102pt"
 viewBox="0.00 0.00 518.00 102.00" xmlns="http://www.w3.org/2000/svg" xmlns:xlink="http://www.w3.org/1999/xlink">
<g id="graph1" class="graph" transform="scale(1 1) rotate(0) translate(4 98)">
<title>parameter/SubsystemLibrary.h</title>
<polygon fill="white" stroke="white" points="-4,5 -4,-98 515,-98 515,5 -4,5"/>
<!-- Node1 -->
<g id="node1" class="node"><title>Node1</title>
<polygon fill="#bfbfbf" stroke="black" points="176,-72.5 176,-93.5 340,-93.5 340,-72.5 176,-72.5"/>
<text text-anchor="middle" x="258" y="-80.5" font-family="Verdana" font-size="10.00">parameter/SubsystemLibrary.h</text>
</g>
<!-- Node2 -->
<g id="node3" class="node"><title>Node2</title>
<a xlink:href="ParameterMgr_8cpp.html" target="_top" xlink:title="parameter/ParameterMgr.cpp">
<polygon fill="white" stroke="black" points="0,-7.5 0,-28.5 158,-28.5 158,-7.5 0,-7.5"/>
<text text-anchor="middle" x="79" y="-15.5" font-family="Verdana" font-size="10.00">parameter/ParameterMgr.cpp</text>
</a>
</g>
<!-- Node1&#45;&gt;Node2 -->
<g id="edge2" class="edge"><title>Node1&#45;&gt;Node2</title>
<path fill="none" stroke="midnightblue" d="M219.396,-68.9818C185.998,-56.854 138.436,-39.583 108.145,-28.5835"/>
<polygon fill="midnightblue" stroke="midnightblue" points="218.248,-72.2885 228.842,-72.412 220.637,-65.7089 218.248,-72.2885"/>
</g>
<!-- Node3 -->
<g id="node5" class="node"><title>Node3</title>
<a xlink:href="SubsystemElementBuilder_8cpp.html" target="_top" xlink:title="parameter/SubsystemElement\lBuilder.cpp">
<polygon fill="white" stroke="black" points="176,-1 176,-35 340,-35 340,-1 176,-1"/>
<text text-anchor="start" x="184" y="-22" font-family="Verdana" font-size="10.00">parameter/SubsystemElement</text>
<text text-anchor="middle" x="258" y="-9" font-family="Verdana" font-size="10.00">Builder.cpp</text>
</a>
</g>
<!-- Node1&#45;&gt;Node3 -->
<g id="edge4" class="edge"><title>Node1&#45;&gt;Node3</title>
<path fill="none" stroke="midnightblue" d="M258,-62.1306C258,-53.4049 258,-43.3908 258,-35.1099"/>
<polygon fill="midnightblue" stroke="midnightblue" points="254.5,-62.2665 258,-72.2666 261.5,-62.2666 254.5,-62.2665"/>
</g>
<!-- Node4 -->
<g id="node7" class="node"><title>Node4</title>
<a xlink:href="SystemClass_8cpp.html" target="_top" xlink:title="parameter/SystemClass.cpp">
<polygon fill="white" stroke="black" points="357.5,-7.5 357.5,-28.5 510.5,-28.5 510.5,-7.5 357.5,-7.5"/>
<text text-anchor="middle" x="434" y="-15.5" font-family="Verdana" font-size="10.00">parameter/SystemClass.cpp</text>
</a>
</g>
<!-- Node1&#45;&gt;Node4 -->
<g id="edge6" class="edge"><title>Node1&#45;&gt;Node4</title>
<path fill="none" stroke="midnightblue" d="M296.381,-68.8254C329.196,-56.7058 375.688,-39.5358 405.343,-28.5835"/>
<polygon fill="midnightblue" stroke="midnightblue" points="294.837,-65.6642 286.669,-72.412 297.262,-72.2307 294.837,-65.6642"/>
</g>
</g>
</svg>
