<?xml version="1.0" encoding="UTF-8" standalone="no"?>
<!DOCTYPE svg PUBLIC "-//W3C//DTD SVG 1.1//EN"
 "http://www.w3.org/Graphics/SVG/1.1/DTD/svg11.dtd">
<!-- Generated by graphviz version 2.26.3 (20100126.1600)
 -->
<!-- Title: parameter/Subsystem.cpp Pages: 1 -->
<svg width="1648pt" height="494pt"
 viewBox="0.00 0.00 1648.00 494.00" xmlns="http://www.w3.org/2000/svg" xmlns:xlink="http://www.w3.org/1999/xlink">
<g id="graph1" class="graph" transform="scale(1 1) rotate(0) translate(4 490)">
<title>parameter/Subsystem.cpp</title>
<polygon fill="white" stroke="white" points="-4,5 -4,-490 1645,-490 1645,5 -4,5"/>
<!-- Node1 -->
<g id="node1" class="node"><title>Node1</title>
<polygon fill="#bfbfbf" stroke="black" points="1108.5,-464.5 1108.5,-485.5 1253.5,-485.5 1253.5,-464.5 1108.5,-464.5"/>
<text text-anchor="middle" x="1181" y="-472.5" font-family="Verdana" font-size="10.00">parameter/Subsystem.cpp</text>
</g>
<!-- Node2 -->
<g id="node3" class="node"><title>Node2</title>
<a xlink:href="Subsystem_8h.html" target="_top" xlink:title="Subsystem.h">
<polygon fill="white" stroke="black" points="526,-290.5 526,-311.5 606,-311.5 606,-290.5 526,-290.5"/>
<text text-anchor="middle" x="566" y="-298.5" font-family="Verdana" font-size="10.00">Subsystem.h</text>
</a>
</g>
<!-- Node1&#45;&gt;Node2 -->
<g id="edge2" class="edge"><title>Node1&#45;&gt;Node2</title>
<path fill="none" stroke="midnightblue" d="M1108.3,-469.106C1044.58,-462.743 949.931,-450.368 870,-428 765.513,-398.761 648.958,-343.122 595.589,-316.262"/>
<polygon fill="midnightblue" stroke="midnightblue" points="596.879,-312.992 586.377,-311.594 593.715,-319.236 596.879,-312.992"/>
</g>
<!-- Node16 -->
<g id="node43" class="node"><title>Node16</title>
<a xlink:href="ComponentLibrary_8h.html" target="_top" xlink:title="ComponentLibrary.h">
<polygon fill="white" stroke="black" points="1178.5,-406.5 1178.5,-427.5 1291.5,-427.5 1291.5,-406.5 1178.5,-406.5"/>
<text text-anchor="middle" x="1235" y="-414.5" font-family="Verdana" font-size="10.00">ComponentLibrary.h</text>
</a>
</g>
<!-- Node1&#45;&gt;Node16 -->
<g id="edge54" class="edge"><title>Node1&#45;&gt;Node16</title>
<path fill="none" stroke="midnightblue" d="M1190.9,-464.362C1198.52,-456.186 1209.21,-444.702 1218.16,-435.091"/>
<polygon fill="midnightblue" stroke="midnightblue" points="1220.91,-437.275 1225.16,-427.571 1215.78,-432.505 1220.91,-437.275"/>
</g>
<!-- Node21 -->
<g id="node61" class="node"><title>Node21</title>
<a xlink:href="InstanceDefinition_8h.html" target="_top" xlink:title="InstanceDefinition.h">
<polygon fill="white" stroke="black" points="1025.5,-232.5 1025.5,-253.5 1136.5,-253.5 1136.5,-232.5 1025.5,-232.5"/>
<text text-anchor="middle" x="1081" y="-240.5" font-family="Verdana" font-size="10.00">InstanceDefinition.h</text>
</a>
</g>
<!-- Node1&#45;&gt;Node21 -->
<g id="edge80" class="edge"><title>Node1&#45;&gt;Node21</title>
<path fill="none" stroke="midnightblue" d="M1155.5,-464.488C1140.46,-456.797 1122.72,-444.766 1114,-428 1097.6,-396.455 1108.75,-383.165 1114,-348 1116.47,-331.453 1122.53,-328.547 1125,-312 1126.44,-302.33 1128.59,-299.094 1125,-290 1120.47,-278.539 1111.68,-268.232 1103.14,-260.212"/>
<polygon fill="midnightblue" stroke="midnightblue" points="1105.33,-257.474 1095.5,-253.521 1100.72,-262.741 1105.33,-257.474"/>
</g>
<!-- Node22 -->
<g id="node65" class="node"><title>Node22</title>
<a xlink:href="XmlParameterSerializingContext_8h.html" target="_top" xlink:title="XmlParameterSerializingContext.h">
<polygon fill="white" stroke="black" points="1432,-116.5 1432,-137.5 1612,-137.5 1612,-116.5 1432,-116.5"/>
<text text-anchor="middle" x="1522" y="-124.5" font-family="Verdana" font-size="10.00">XmlParameterSerializingContext.h</text>
</a>
</g>
<!-- Node1&#45;&gt;Node22 -->
<g id="edge86" class="edge"><title>Node1&#45;&gt;Node22</title>
<path fill="none" stroke="midnightblue" d="M1240.43,-464.44C1327.63,-447.23 1480,-409.877 1480,-359 1480,-359 1480,-359 1480,-243 1480,-207.364 1497.74,-169.052 1510.16,-146.594"/>
<polygon fill="midnightblue" stroke="midnightblue" points="1513.31,-148.141 1515.25,-137.725 1507.24,-144.656 1513.31,-148.141"/>
</g>
<!-- Node25 -->
<g id="node73" class="node"><title>Node25</title>
<a xlink:href="ParameterAccessContext_8h.html" target="_top" xlink:title="ParameterAccessContext.h">
<polygon fill="white" stroke="black" points="1139.5,-116.5 1139.5,-137.5 1286.5,-137.5 1286.5,-116.5 1139.5,-116.5"/>
<text text-anchor="middle" x="1213" y="-124.5" font-family="Verdana" font-size="10.00">ParameterAccessContext.h</text>
</a>
</g>
<!-- Node1&#45;&gt;Node25 -->
<g id="edge96" class="edge"><title>Node1&#45;&gt;Node25</title>
<path fill="none" stroke="midnightblue" d="M1237.26,-464.481C1287.02,-451.742 1356.07,-424.768 1385,-370 1433.57,-278.061 1299.59,-180.559 1239.97,-143.013"/>
<polygon fill="midnightblue" stroke="midnightblue" points="1241.76,-140.002 1231.41,-137.713 1238.07,-145.953 1241.76,-140.002"/>
</g>
<!-- Node27 -->
<g id="node80" class="node"><title>Node27</title>
<a xlink:href="ConfigurationAccessContext_8h.html" target="_top" xlink:title="ConfigurationAccessContext.h">
<polygon fill="white" stroke="black" points="1101.5,-174.5 1101.5,-195.5 1262.5,-195.5 1262.5,-174.5 1101.5,-174.5"/>
<text text-anchor="middle" x="1182" y="-182.5" font-family="Verdana" font-size="10.00">ConfigurationAccessContext.h</text>
</a>
</g>
<!-- Node1&#45;&gt;Node27 -->
<g id="edge106" class="edge"><title>Node1&#45;&gt;Node27</title>
<path fill="none" stroke="midnightblue" d="M1177.75,-464.297C1175.07,-454.851 1171.46,-440.654 1170,-428 1168.88,-418.287 1169.73,-415.774 1170,-406 1172,-332.235 1177.75,-244.774 1180.5,-205.677"/>
<polygon fill="midnightblue" stroke="midnightblue" points="1184,-205.796 1181.22,-195.573 1177.02,-205.299 1184,-205.796"/>
</g>
<!-- Node28 -->
<g id="node84" class="node"><title>Node28</title>
<a xlink:href="SubsystemObjectCreator_8h.html" target="_top" xlink:title="SubsystemObjectCreator.h">
<polygon fill="white" stroke="black" points="299,-174.5 299,-195.5 445,-195.5 445,-174.5 299,-174.5"/>
<text text-anchor="middle" x="372" y="-182.5" font-family="Verdana" font-size="10.00">SubsystemObjectCreator.h</text>
</a>
</g>
<!-- Node1&#45;&gt;Node28 -->
<g id="edge112" class="edge"><title>Node1&#45;&gt;Node28</title>
<path fill="none" stroke="midnightblue" d="M1108.46,-471.698C851.509,-459.529 0,-414.98 0,-359 0,-359 0,-359 0,-301 0,-240.892 179.246,-208.338 288.891,-194.047"/>
<polygon fill="midnightblue" stroke="midnightblue" points="289.473,-197.502 298.949,-192.762 288.586,-190.558 289.473,-197.502"/>
</g>
<!-- Node31 -->
<g id="node95" class="node"><title>Node31</title>
<a xlink:href="MappingData_8h.html" target="_top" xlink:title="MappingData.h">
<polygon fill="white" stroke="black" points="881.5,-116.5 881.5,-137.5 970.5,-137.5 970.5,-116.5 881.5,-116.5"/>
<text text-anchor="middle" x="926" y="-124.5" font-family="Verdana" font-size="10.00">MappingData.h</text>
</a>
</g>
<!-- Node1&#45;&gt;Node31 -->
<g id="edge128" class="edge"><title>Node1&#45;&gt;Node31</title>
<path fill="none" stroke="midnightblue" d="M1122.32,-464.438C1035.77,-447.163 884,-409.651 884,-359 884,-359 884,-359 884,-301 884,-244.044 905.528,-179.454 917.759,-147.356"/>
<polygon fill="midnightblue" stroke="midnightblue" points="921.123,-148.362 921.505,-137.774 914.604,-145.813 921.123,-148.362"/>
</g>
<!-- Node33 -->
<g id="node101" class="node"><title>Node33</title>
<polygon fill="white" stroke="#bfbfbf" points="1508,-406.5 1508,-427.5 1564,-427.5 1564,-406.5 1508,-406.5"/>
<text text-anchor="middle" x="1536" y="-414.5" font-family="Verdana" font-size="10.00">assert.h</text>
</g>
<!-- Node1&#45;&gt;Node33 -->
<g id="edge136" class="edge"><title>Node1&#45;&gt;Node33</title>
<path fill="none" stroke="midnightblue" d="M1253.81,-466.313C1317.49,-458.18 1412.32,-444.779 1494,-428 1495.25,-427.744 1496.51,-427.474 1497.78,-427.193"/>
<polygon fill="midnightblue" stroke="midnightblue" points="1498.7,-430.573 1507.63,-424.87 1497.09,-423.76 1498.7,-430.573"/>
</g>
<!-- Node34 -->
<g id="node103" class="node"><title>Node34</title>
<polygon fill="white" stroke="#bfbfbf" points="1582,-406.5 1582,-427.5 1638,-427.5 1638,-406.5 1582,-406.5"/>
<text text-anchor="middle" x="1610" y="-414.5" font-family="Verdana" font-size="10.00">sstream</text>
</g>
<!-- Node1&#45;&gt;Node34 -->
<g id="edge138" class="edge"><title>Node1&#45;&gt;Node34</title>
<path fill="none" stroke="midnightblue" d="M1253.84,-469.983C1330.76,-463.848 1455.61,-451.514 1571.72,-427.992"/>
<polygon fill="midnightblue" stroke="midnightblue" points="1572.76,-431.352 1581.84,-425.907 1571.34,-424.495 1572.76,-431.352"/>
</g>
<!-- Node3 -->
<g id="node5" class="node"><title>Node3</title>
<a xlink:href="ConfigurableElement_8h.html" target="_top" xlink:title="ConfigurableElement.h">
<polygon fill="white" stroke="black" points="631.5,-174.5 631.5,-195.5 756.5,-195.5 756.5,-174.5 631.5,-174.5"/>
<text text-anchor="middle" x="694" y="-182.5" font-family="Verdana" font-size="10.00">ConfigurableElement.h</text>
</a>
</g>
<!-- Node2&#45;&gt;Node3 -->
<g id="edge4" class="edge"><title>Node2&#45;&gt;Node3</title>
<path fill="none" stroke="midnightblue" d="M577.986,-290.18C588.53,-280.659 604.292,-266.418 618,-254 637.279,-236.536 659.282,-216.554 674.634,-202.604"/>
<polygon fill="midnightblue" stroke="midnightblue" points="677.373,-204.845 682.419,-195.529 672.665,-199.664 677.373,-204.845"/>
</g>
<!-- Node5 -->
<g id="node9" class="node"><title>Node5</title>
<polygon fill="white" stroke="#bfbfbf" points="957,-0.5 957,-21.5 1001,-21.5 1001,-0.5 957,-0.5"/>
<text text-anchor="middle" x="979" y="-8.5" font-family="Verdana" font-size="10.00">string</text>
</g>
<!-- Node2&#45;&gt;Node5 -->
<g id="edge50" class="edge"><title>Node2&#45;&gt;Node5</title>
<path fill="none" stroke="midnightblue" d="M566,-290.444C566,-270.062 566,-223.868 566,-185 566,-185 566,-185 566,-127 566,-95.1919 560.886,-78.7435 585,-58 612.287,-34.5263 857.637,-18.0539 946.799,-12.797"/>
<polygon fill="midnightblue" stroke="midnightblue" points="947.093,-16.286 956.873,-12.2118 946.687,-9.29774 947.093,-16.286"/>
</g>
<!-- Node6 -->
<g id="node11" class="node"><title>Node6</title>
<polygon fill="white" stroke="#bfbfbf" points="90.5,-0.5 90.5,-21.5 137.5,-21.5 137.5,-0.5 90.5,-0.5"/>
<text text-anchor="middle" x="114" y="-8.5" font-family="Verdana" font-size="10.00">vector</text>
</g>
<!-- Node2&#45;&gt;Node6 -->
<g id="edge52" class="edge"><title>Node2&#45;&gt;Node6</title>
<path fill="none" stroke="midnightblue" d="M525.881,-296.46C402.664,-281.982 38,-234.918 38,-185 38,-185 38,-185 38,-127 38,-86.5104 70.7975,-49.1585 93.3017,-28.2949"/>
<polygon fill="midnightblue" stroke="midnightblue" points="95.6399,-30.8993 100.762,-21.6247 90.9742,-25.681 95.6399,-30.8993"/>
</g>
<!-- Node8 -->
<g id="node15" class="node"><title>Node8</title>
<polygon fill="white" stroke="#bfbfbf" points="594,-58.5 594,-79.5 624,-79.5 624,-58.5 594,-58.5"/>
<text text-anchor="middle" x="609" y="-66.5" font-family="Verdana" font-size="10.00">list</text>
</g>
<!-- Node2&#45;&gt;Node8 -->
<g id="edge46" class="edge"><title>Node2&#45;&gt;Node8</title>
<path fill="none" stroke="midnightblue" d="M569.64,-290.281C572.744,-280.825 577.144,-266.622 580,-254 593.342,-195.029 602.604,-124.104 606.672,-89.7157"/>
<polygon fill="midnightblue" stroke="midnightblue" points="610.179,-89.8605 607.852,-79.5244 603.225,-89.0559 610.179,-89.8605"/>
</g>
<!-- Node12 -->
<g id="node27" class="node"><title>Node12</title>
<a xlink:href="ConfigurableElementWithMapping_8h.html" target="_top" xlink:title="ConfigurableElementWithMapping.h">
<polygon fill="white" stroke="black" points="670,-232.5 670,-253.5 856,-253.5 856,-232.5 670,-232.5"/>
<text text-anchor="middle" x="763" y="-240.5" font-family="Verdana" font-size="10.00">ConfigurableElementWithMapping.h</text>
</a>
</g>
<!-- Node2&#45;&gt;Node12 -->
<g id="edge30" class="edge"><title>Node2&#45;&gt;Node12</title>
<path fill="none" stroke="midnightblue" d="M601.675,-290.497C634.07,-280.959 682.023,-266.841 717.231,-256.475"/>
<polygon fill="midnightblue" stroke="midnightblue" points="718.654,-259.705 727.258,-253.523 716.676,-252.99 718.654,-259.705"/>
</g>
<!-- Node13 -->
<g id="node31" class="node"><title>Node13</title>
<a xlink:href="Mapper_8h.html" target="_top" xlink:title="Mapper.h">
<polygon fill="white" stroke="black" points="417.5,-232.5 417.5,-253.5 478.5,-253.5 478.5,-232.5 417.5,-232.5"/>
<text text-anchor="middle" x="448" y="-240.5" font-family="Verdana" font-size="10.00">Mapper.h</text>
</a>
</g>
<!-- Node2&#45;&gt;Node13 -->
<g id="edge36" class="edge"><title>Node2&#45;&gt;Node13</title>
<path fill="none" stroke="midnightblue" d="M544.631,-290.497C526.201,-281.438 499.363,-268.246 478.645,-258.063"/>
<polygon fill="midnightblue" stroke="midnightblue" points="480.127,-254.891 469.609,-253.621 477.039,-261.174 480.127,-254.891"/>
</g>
<!-- Node14 -->
<g id="node34" class="node"><title>Node14</title>
<a xlink:href="MappingContext_8h.html" target="_top" xlink:title="MappingContext.h">
<polygon fill="white" stroke="black" points="224,-116.5 224,-137.5 328,-137.5 328,-116.5 224,-116.5"/>
<text text-anchor="middle" x="276" y="-124.5" font-family="Verdana" font-size="10.00">MappingContext.h</text>
</a>
</g>
<!-- Node2&#45;&gt;Node14 -->
<g id="edge40" class="edge"><title>Node2&#45;&gt;Node14</title>
<path fill="none" stroke="midnightblue" d="M525.985,-298.405C464.425,-292.085 347.585,-270.392 290,-196 279.387,-182.29 276.237,-162.589 275.538,-147.746"/>
<polygon fill="midnightblue" stroke="midnightblue" points="279.035,-147.473 275.398,-137.522 272.035,-147.569 279.035,-147.473"/>
</g>
<!-- Node15 -->
<g id="node39" class="node"><title>Node15</title>
<polygon fill="white" stroke="#bfbfbf" points="496,-232.5 496,-253.5 538,-253.5 538,-232.5 496,-232.5"/>
<text text-anchor="middle" x="517" y="-240.5" font-family="Verdana" font-size="10.00">stack</text>
</g>
<!-- Node2&#45;&gt;Node15 -->
<g id="edge48" class="edge"><title>Node2&#45;&gt;Node15</title>
<path fill="none" stroke="midnightblue" d="M557.013,-290.362C550.175,-282.268 540.598,-270.932 532.528,-261.38"/>
<polygon fill="midnightblue" stroke="midnightblue" points="535.058,-258.951 525.93,-253.571 529.71,-263.468 535.058,-258.951"/>
</g>
<!-- Node4 -->
<g id="node7" class="node"><title>Node4</title>
<a xlink:href="Element_8h.html" target="_top" xlink:title="Element.h">
<polygon fill="white" stroke="black" points="669.5,-116.5 669.5,-137.5 734.5,-137.5 734.5,-116.5 669.5,-116.5"/>
<text text-anchor="middle" x="702" y="-124.5" font-family="Verdana" font-size="10.00">Element.h</text>
</a>
</g>
<!-- Node3&#45;&gt;Node4 -->
<g id="edge6" class="edge"><title>Node3&#45;&gt;Node4</title>
<path fill="none" stroke="midnightblue" d="M695.467,-174.362C696.494,-166.922 697.898,-156.743 699.141,-147.728"/>
<polygon fill="midnightblue" stroke="midnightblue" points="702.643,-147.955 700.542,-137.571 695.708,-146.999 702.643,-147.955"/>
</g>
<!-- Node3&#45;&gt;Node8 -->
<g id="edge28" class="edge"><title>Node3&#45;&gt;Node8</title>
<path fill="none" stroke="midnightblue" d="M686.156,-174.295C671.734,-154.613 640.839,-112.45 622.825,-87.8668"/>
<polygon fill="midnightblue" stroke="midnightblue" points="625.559,-85.6768 616.825,-79.6792 619.913,-89.8142 625.559,-85.6768"/>
</g>
<!-- Node4&#45;&gt;Node5 -->
<g id="edge8" class="edge"><title>Node4&#45;&gt;Node5</title>
<path fill="none" stroke="midnightblue" d="M709.423,-116.253C720.667,-100.84 743.534,-72.6983 770,-58 826.949,-26.3727 903.809,-16.0221 946.674,-12.6388"/>
<polygon fill="midnightblue" stroke="midnightblue" points="947.079,-16.119 956.806,-11.9201 946.583,-9.13652 947.079,-16.119"/>
</g>
<!-- Node4&#45;&gt;Node6 -->
<g id="edge10" class="edge"><title>Node4&#45;&gt;Node6</title>
<path fill="none" stroke="midnightblue" d="M669.17,-124.795C556.777,-117.155 193.14,-91.6479 171,-80 150.079,-68.9934 133.893,-46.699 124.203,-30.4209"/>
<polygon fill="midnightblue" stroke="midnightblue" points="127.224,-28.6522 119.261,-21.6626 121.127,-32.0919 127.224,-28.6522"/>
</g>
<!-- Node7 -->
<g id="node13" class="node"><title>Node7</title>
<polygon fill="white" stroke="#bfbfbf" points="199.5,-0.5 199.5,-21.5 252.5,-21.5 252.5,-0.5 199.5,-0.5"/>
<text text-anchor="middle" x="226" y="-8.5" font-family="Verdana" font-size="10.00">stdint.h</text>
</g>
<!-- Node4&#45;&gt;Node7 -->
<g id="edge12" class="edge"><title>Node4&#45;&gt;Node7</title>
<path fill="none" stroke="midnightblue" d="M669.374,-122.896C618.433,-116.132 517.117,-101.243 433,-80 372.094,-64.6192 303.237,-40.2125 262.286,-24.9269"/>
<polygon fill="midnightblue" stroke="midnightblue" points="263.337,-21.5832 252.745,-21.3421 260.875,-28.1359 263.337,-21.5832"/>
</g>
<!-- Node4&#45;&gt;Node8 -->
<g id="edge14" class="edge"><title>Node4&#45;&gt;Node8</title>
<path fill="none" stroke="midnightblue" d="M684.942,-116.362C670.389,-107.286 649.3,-94.1331 633.036,-83.9902"/>
<polygon fill="midnightblue" stroke="midnightblue" points="634.441,-80.7415 624.104,-78.4195 630.737,-86.6811 634.441,-80.7415"/>
</g>
<!-- Node9 -->
<g id="node17" class="node"><title>Node9</title>
<polygon fill="white" stroke="#bfbfbf" points="812,-58.5 812,-79.5 876,-79.5 876,-58.5 812,-58.5"/>
<text text-anchor="middle" x="844" y="-66.5" font-family="Verdana" font-size="10.00">XmlSink.h</text>
</g>
<!-- Node4&#45;&gt;Node9 -->
<g id="edge16" class="edge"><title>Node4&#45;&gt;Node9</title>
<path fill="none" stroke="midnightblue" d="M727.715,-116.497C750.293,-107.275 783.358,-93.7695 808.463,-83.5153"/>
<polygon fill="midnightblue" stroke="midnightblue" points="810.062,-86.6427 817.996,-79.6212 807.415,-80.1624 810.062,-86.6427"/>
</g>
<!-- Node10 -->
<g id="node19" class="node"><title>Node10</title>
<polygon fill="white" stroke="#bfbfbf" points="641.5,-58.5 641.5,-79.5 718.5,-79.5 718.5,-58.5 641.5,-58.5"/>
<text text-anchor="middle" x="680" y="-66.5" font-family="Verdana" font-size="10.00">XmlSource.h</text>
</g>
<!-- Node4&#45;&gt;Node10 -->
<g id="edge18" class="edge"><title>Node4&#45;&gt;Node10</title>
<path fill="none" stroke="midnightblue" d="M697.965,-116.362C695.081,-108.758 691.112,-98.294 687.637,-89.1349"/>
<polygon fill="midnightblue" stroke="midnightblue" points="690.829,-87.6793 684.01,-79.5707 684.284,-90.1619 690.829,-87.6793"/>
</g>
<!-- Node11 -->
<g id="node21" class="node"><title>Node11</title>
<a xlink:href="PathNavigator_8h.html" target="_top" xlink:title="PathNavigator.h">
<polygon fill="white" stroke="black" points="180,-58.5 180,-79.5 272,-79.5 272,-58.5 180,-58.5"/>
<text text-anchor="middle" x="226" y="-66.5" font-family="Verdana" font-size="10.00">PathNavigator.h</text>
</a>
</g>
<!-- Node4&#45;&gt;Node11 -->
<g id="edge20" class="edge"><title>Node4&#45;&gt;Node11</title>
<path fill="none" stroke="midnightblue" d="M669.283,-123.013C589.172,-113.252 382.431,-88.0609 282.174,-75.8448"/>
<polygon fill="midnightblue" stroke="midnightblue" points="282.581,-72.3685 272.231,-74.6332 281.734,-79.3171 282.581,-72.3685"/>
</g>
<!-- Node11&#45;&gt;Node5 -->
<g id="edge24" class="edge"><title>Node11&#45;&gt;Node5</title>
<path fill="none" stroke="midnightblue" d="M272.106,-60.0014C276.788,-59.2515 281.481,-58.5656 286,-58 539.153,-26.3138 847.196,-14.8999 946.498,-11.8924"/>
<polygon fill="midnightblue" stroke="midnightblue" points="946.879,-15.3828 956.772,-11.589 946.673,-8.38585 946.879,-15.3828"/>
</g>
<!-- Node11&#45;&gt;Node6 -->
<g id="edge22" class="edge"><title>Node11&#45;&gt;Node6</title>
<path fill="none" stroke="midnightblue" d="M205.718,-58.4966C188.382,-49.5194 163.21,-36.4835 143.62,-26.3387"/>
<polygon fill="midnightblue" stroke="midnightblue" points="144.999,-23.1118 134.51,-21.6212 141.78,-29.3278 144.999,-23.1118"/>
</g>
<!-- Node11&#45;&gt;Node7 -->
<g id="edge26" class="edge"><title>Node11&#45;&gt;Node7</title>
<path fill="none" stroke="midnightblue" d="M226,-58.3619C226,-50.9219 226,-40.7427 226,-31.7276"/>
<polygon fill="midnightblue" stroke="midnightblue" points="229.5,-31.5706 226,-21.5707 222.5,-31.5707 229.5,-31.5706"/>
</g>
<!-- Node12&#45;&gt;Node3 -->
<g id="edge32" class="edge"><title>Node12&#45;&gt;Node3</title>
<path fill="none" stroke="midnightblue" d="M750.344,-232.362C740.326,-223.941 726.133,-212.011 714.499,-202.231"/>
<polygon fill="midnightblue" stroke="midnightblue" points="716.482,-199.326 706.575,-195.571 711.978,-204.684 716.482,-199.326"/>
</g>
<!-- Node12&#45;&gt;Node5 -->
<g id="edge34" class="edge"><title>Node12&#45;&gt;Node5</title>
<path fill="none" stroke="midnightblue" d="M763.852,-232.499C766.926,-197.205 778.572,-83.6303 803,-58 822.636,-37.398 901.655,-22.5334 946.853,-15.5219"/>
<polygon fill="midnightblue" stroke="midnightblue" points="947.389,-18.9807 956.755,-14.0274 946.345,-12.059 947.389,-18.9807"/>
</g>
<!-- Node13&#45;&gt;Node5 -->
<g id="edge38" class="edge"><title>Node13&#45;&gt;Node5</title>
<path fill="none" stroke="midnightblue" d="M454.353,-232.335C465.574,-213.436 489.557,-172.78 509,-138 528.697,-102.766 518.539,-80.5793 552,-58 584.591,-36.0075 853.218,-18.3561 946.911,-12.8163"/>
<polygon fill="midnightblue" stroke="midnightblue" points="947.162,-16.3077 956.94,-12.2303 946.753,-9.31966 947.162,-16.3077"/>
</g>
<!-- Node14&#45;&gt;Node5 -->
<g id="edge44" class="edge"><title>Node14&#45;&gt;Node5</title>
<path fill="none" stroke="midnightblue" d="M285.281,-116.244C299.799,-100.272 329.596,-70.7959 362,-58 416.564,-36.4533 827.208,-17.4585 946.561,-12.3474"/>
<polygon fill="midnightblue" stroke="midnightblue" points="947.025,-15.831 956.868,-11.9097 946.728,-8.83729 947.025,-15.831"/>
</g>
<!-- Node14&#45;&gt;Node7 -->
<g id="edge42" class="edge"><title>Node14&#45;&gt;Node7</title>
<path fill="none" stroke="midnightblue" d="M226.325,-116.481C191.24,-107.927 148.644,-94.8693 138,-80 120.027,-54.8921 158.353,-34.3492 189.961,-22.3902"/>
<polygon fill="midnightblue" stroke="midnightblue" points="191.263,-25.6414 199.485,-18.9589 188.89,-19.0558 191.263,-25.6414"/>
</g>
<!-- Node16&#45;&gt;Node4 -->
<g id="edge58" class="edge"><title>Node16&#45;&gt;Node4</title>
<path fill="none" stroke="midnightblue" d="M1184.17,-406.494C1122.84,-392.162 1018.33,-362.339 941,-312 899.898,-285.246 902.772,-263.28 865,-232 821.159,-195.694 764.114,-161.538 730.439,-142.532"/>
<polygon fill="midnightblue" stroke="midnightblue" points="732.027,-139.41 721.591,-137.584 728.611,-145.52 732.027,-139.41"/>
</g>
<!-- Node16&#45;&gt;Node5 -->
<g id="edge78" class="edge"><title>Node16&#45;&gt;Node5</title>
<path fill="none" stroke="midnightblue" d="M1286.23,-406.452C1324,-397.693 1371.11,-384.38 1385,-370 1407.1,-347.119 1404,-332.808 1404,-301 1404,-301 1404,-301 1404,-127 1404,-45.6412 1110.48,-19.3942 1011.3,-12.8476"/>
<polygon fill="midnightblue" stroke="midnightblue" points="1011.45,-9.35068 1001.25,-12.2088 1011.01,-16.3366 1011.45,-9.35068"/>
</g>
<!-- Node17 -->
<g id="node45" class="node"><title>Node17</title>
<polygon fill="white" stroke="#bfbfbf" points="1293.5,-348.5 1293.5,-369.5 1376.5,-369.5 1376.5,-348.5 1293.5,-348.5"/>
<text text-anchor="middle" x="1335" y="-356.5" font-family="Verdana" font-size="10.00">XmlElement.h</text>
</g>
<!-- Node16&#45;&gt;Node17 -->
<g id="edge56" class="edge"><title>Node16&#45;&gt;Node17</title>
<path fill="none" stroke="midnightblue" d="M1253.34,-406.362C1268.57,-397.532 1290.44,-384.844 1307.72,-374.822"/>
<polygon fill="midnightblue" stroke="midnightblue" points="1309.88,-377.615 1316.77,-369.571 1306.37,-371.56 1309.88,-377.615"/>
</g>
<!-- Node18 -->
<g id="node48" class="node"><title>Node18</title>
<a xlink:href="Component_8h.html" target="_top" xlink:title="Component.h">
<polygon fill="white" stroke="black" points="1194,-348.5 1194,-369.5 1276,-369.5 1276,-348.5 1194,-348.5"/>
<text text-anchor="middle" x="1235" y="-356.5" font-family="Verdana" font-size="10.00">Component.h</text>
</a>
</g>
<!-- Node16&#45;&gt;Node18 -->
<g id="edge60" class="edge"><title>Node16&#45;&gt;Node18</title>
<path fill="none" stroke="midnightblue" d="M1235,-406.362C1235,-398.922 1235,-388.743 1235,-379.728"/>
<polygon fill="midnightblue" stroke="midnightblue" points="1238.5,-379.571 1235,-369.571 1231.5,-379.571 1238.5,-379.571"/>
</g>
<!-- Node18&#45;&gt;Node5 -->
<g id="edge76" class="edge"><title>Node18&#45;&gt;Node5</title>
<path fill="none" stroke="midnightblue" d="M1241.98,-348.316C1270.81,-302.853 1374.62,-124.774 1278,-58 1235.22,-28.4375 1079.88,-16.4935 1011.59,-12.5952"/>
<polygon fill="midnightblue" stroke="midnightblue" points="1011.58,-9.08973 1001.41,-12.0372 1011.2,-16.0792 1011.58,-9.08973"/>
</g>
<!-- Node19 -->
<g id="node50" class="node"><title>Node19</title>
<a xlink:href="InstanceConfigurableElement_8h.html" target="_top" xlink:title="InstanceConfigurableElement.h">
<polygon fill="white" stroke="black" points="950,-290.5 950,-311.5 1116,-311.5 1116,-290.5 950,-290.5"/>
<text text-anchor="middle" x="1033" y="-298.5" font-family="Verdana" font-size="10.00">InstanceConfigurableElement.h</text>
</a>
</g>
<!-- Node18&#45;&gt;Node19 -->
<g id="edge62" class="edge"><title>Node18&#45;&gt;Node19</title>
<path fill="none" stroke="midnightblue" d="M1198.42,-348.497C1165.06,-338.918 1115.61,-324.72 1079.47,-314.342"/>
<polygon fill="midnightblue" stroke="midnightblue" points="1080.23,-310.919 1069.65,-311.523 1078.29,-317.647 1080.23,-310.919"/>
</g>
<!-- Node19&#45;&gt;Node5 -->
<g id="edge74" class="edge"><title>Node19&#45;&gt;Node5</title>
<path fill="none" stroke="midnightblue" d="M1082.99,-290.446C1168.07,-269.61 1328.73,-216.276 1295,-116 1284.68,-85.3326 1278.64,-74.8141 1251,-58 1211.13,-33.7525 1074.53,-19.1984 1011.43,-13.6209"/>
<polygon fill="midnightblue" stroke="midnightblue" points="1011.51,-10.1152 1001.25,-12.7429 1010.91,-17.0893 1011.51,-10.1152"/>
</g>
<!-- Node19&#45;&gt;Node8 -->
<g id="edge72" class="edge"><title>Node19&#45;&gt;Node8</title>
<path fill="none" stroke="midnightblue" d="M1020.28,-290.253C992.644,-267.205 924.568,-212.031 862,-174 811.723,-143.44 797.532,-138.091 743,-116 698.117,-97.8175 682.707,-98.5785 633.683,-79.9576"/>
<polygon fill="midnightblue" stroke="midnightblue" points="634.712,-76.6027 624.124,-76.2462 632.179,-83.1282 634.712,-76.6027"/>
</g>
<!-- Node19&#45;&gt;Node12 -->
<g id="edge64" class="edge"><title>Node19&#45;&gt;Node12</title>
<path fill="none" stroke="midnightblue" d="M984.105,-290.497C938.563,-280.714 870.584,-266.111 822.036,-255.682"/>
<polygon fill="midnightblue" stroke="midnightblue" points="822.499,-252.201 811.987,-253.523 821.029,-259.045 822.499,-252.201"/>
</g>
<!-- Node20 -->
<g id="node53" class="node"><title>Node20</title>
<a xlink:href="TypeElement_8h.html" target="_top" xlink:title="TypeElement.h">
<polygon fill="white" stroke="black" points="955,-174.5 955,-195.5 1041,-195.5 1041,-174.5 955,-174.5"/>
<text text-anchor="middle" x="998" y="-182.5" font-family="Verdana" font-size="10.00">TypeElement.h</text>
</a>
</g>
<!-- Node19&#45;&gt;Node20 -->
<g id="edge66" class="edge"><title>Node19&#45;&gt;Node20</title>
<path fill="none" stroke="midnightblue" d="M1029.13,-290.232C1025.77,-280.744 1020.85,-266.523 1017,-254 1012.04,-237.882 1007,-219.461 1003.36,-205.709"/>
<polygon fill="midnightblue" stroke="midnightblue" points="1006.69,-204.6 1000.77,-195.814 999.915,-206.375 1006.69,-204.6"/>
</g>
<!-- Node20&#45;&gt;Node4 -->
<g id="edge68" class="edge"><title>Node20&#45;&gt;Node4</title>
<path fill="none" stroke="midnightblue" d="M954.959,-176.566C898.656,-165.534 800.599,-146.32 744.543,-135.336"/>
<polygon fill="midnightblue" stroke="midnightblue" points="745.071,-131.873 734.585,-133.385 743.725,-138.743 745.071,-131.873"/>
</g>
<!-- Node20&#45;&gt;Node5 -->
<g id="edge70" class="edge"><title>Node20&#45;&gt;Node5</title>
<path fill="none" stroke="midnightblue" d="M996.84,-174.377C993.773,-146.293 985.407,-69.6735 981.315,-32.2027"/>
<polygon fill="midnightblue" stroke="midnightblue" points="984.758,-31.4887 980.193,-21.9277 977.8,-32.2486 984.758,-31.4887"/>
</g>
<!-- Node21&#45;&gt;Node5 -->
<g id="edge84" class="edge"><title>Node21&#45;&gt;Node5</title>
<path fill="none" stroke="midnightblue" d="M1076.35,-232.429C1060.52,-196.422 1008.54,-78.1788 987.726,-30.8467"/>
<polygon fill="midnightblue" stroke="midnightblue" points="990.904,-29.3791 983.675,-21.6335 984.496,-32.1965 990.904,-29.3791"/>
</g>
<!-- Node21&#45;&gt;Node20 -->
<g id="edge82" class="edge"><title>Node21&#45;&gt;Node20</title>
<path fill="none" stroke="midnightblue" d="M1065.78,-232.362C1053.37,-223.696 1035.65,-211.313 1021.44,-201.382"/>
<polygon fill="midnightblue" stroke="midnightblue" points="1023.33,-198.43 1013.13,-195.571 1019.32,-204.168 1023.33,-198.43"/>
</g>
<!-- Node22&#45;&gt;Node5 -->
<g id="edge94" class="edge"><title>Node22&#45;&gt;Node5</title>
<path fill="none" stroke="midnightblue" d="M1507.94,-116.444C1484.27,-98.884 1437.16,-64.9117 1418,-58 1342.9,-30.9082 1099.34,-16.7861 1011.21,-12.4649"/>
<polygon fill="midnightblue" stroke="midnightblue" points="1011.17,-8.95916 1001.01,-11.9751 1010.83,-15.9511 1011.17,-8.95916"/>
</g>
<!-- Node23 -->
<g id="node67" class="node"><title>Node23</title>
<a xlink:href="XmlElementSerializingContext_8h.html" target="_top" xlink:title="XmlElementSerializingContext.h">
<polygon fill="white" stroke="black" points="1470,-58.5 1470,-79.5 1640,-79.5 1640,-58.5 1470,-58.5"/>
<text text-anchor="middle" x="1555" y="-66.5" font-family="Verdana" font-size="10.00">XmlElementSerializingContext.h</text>
</a>
</g>
<!-- Node22&#45;&gt;Node23 -->
<g id="edge88" class="edge"><title>Node22&#45;&gt;Node23</title>
<path fill="none" stroke="midnightblue" d="M1528.05,-116.362C1532.47,-108.595 1538.59,-97.8426 1543.88,-88.5458"/>
<polygon fill="midnightblue" stroke="midnightblue" points="1547.08,-89.9932 1548.99,-79.5707 1541,-86.5315 1547.08,-89.9932"/>
</g>
<!-- Node23&#45;&gt;Node5 -->
<g id="edge92" class="edge"><title>Node23&#45;&gt;Node5</title>
<path fill="none" stroke="midnightblue" d="M1469.95,-59.481C1465.23,-58.9744 1460.56,-58.4777 1456,-58 1288.83,-40.4771 1088.49,-21.3446 1011.4,-14.0526"/>
<polygon fill="midnightblue" stroke="midnightblue" points="1011.65,-10.56 1001.36,-13.1036 1010.99,-17.529 1011.65,-10.56"/>
</g>
<!-- Node24 -->
<g id="node69" class="node"><title>Node24</title>
<polygon fill="white" stroke="#bfbfbf" points="1490,-0.5 1490,-21.5 1620,-21.5 1620,-0.5 1490,-0.5"/>
<text text-anchor="middle" x="1555" y="-8.5" font-family="Verdana" font-size="10.00">XmlSerializingContext.h</text>
</g>
<!-- Node23&#45;&gt;Node24 -->
<g id="edge90" class="edge"><title>Node23&#45;&gt;Node24</title>
<path fill="none" stroke="midnightblue" d="M1555,-58.3619C1555,-50.9219 1555,-40.7427 1555,-31.7276"/>
<polygon fill="midnightblue" stroke="midnightblue" points="1558.5,-31.5706 1555,-21.5707 1551.5,-31.5707 1558.5,-31.5706"/>
</g>
<!-- Node25&#45;&gt;Node5 -->
<g id="edge104" class="edge"><title>Node25&#45;&gt;Node5</title>
<path fill="none" stroke="midnightblue" d="M1221.87,-116.476C1233.09,-101.837 1249.33,-75.195 1235,-58 1206.84,-24.1966 1073.39,-14.6245 1011.13,-11.979"/>
<polygon fill="midnightblue" stroke="midnightblue" points="1011.2,-8.47927 1001.07,-11.5861 1010.93,-15.4739 1011.2,-8.47927"/>
</g>
<!-- Node25&#45;&gt;Node7 -->
<g id="edge98" class="edge"><title>Node25&#45;&gt;Node7</title>
<path fill="none" stroke="midnightblue" d="M1179.49,-116.384C1128.55,-100.732 1028.34,-71.8288 941,-58 808.179,-36.969 389.744,-17.9389 262.843,-12.5299"/>
<polygon fill="midnightblue" stroke="midnightblue" points="262.644,-9.01841 252.505,-12.092 262.348,-16.0121 262.644,-9.01841"/>
</g>
<!-- Node26 -->
<g id="node76" class="node"><title>Node26</title>
<a xlink:href="ErrorContext_8h.html" target="_top" xlink:title="ErrorContext.h">
<polygon fill="white" stroke="black" points="1140,-58.5 1140,-79.5 1226,-79.5 1226,-58.5 1140,-58.5"/>
<text text-anchor="middle" x="1183" y="-66.5" font-family="Verdana" font-size="10.00">ErrorContext.h</text>
</a>
</g>
<!-- Node25&#45;&gt;Node26 -->
<g id="edge100" class="edge"><title>Node25&#45;&gt;Node26</title>
<path fill="none" stroke="midnightblue" d="M1207.5,-116.362C1203.48,-108.595 1197.92,-97.8426 1193.11,-88.5458"/>
<polygon fill="midnightblue" stroke="midnightblue" points="1196.17,-86.8448 1188.47,-79.5707 1189.95,-90.0608 1196.17,-86.8448"/>
</g>
<!-- Node26&#45;&gt;Node5 -->
<g id="edge102" class="edge"><title>Node26&#45;&gt;Node5</title>
<path fill="none" stroke="midnightblue" d="M1146.06,-58.4966C1107.43,-47.5158 1047.45,-30.4626 1010.85,-20.0556"/>
<polygon fill="midnightblue" stroke="midnightblue" points="1011.76,-16.6753 1001.18,-17.307 1009.84,-23.4084 1011.76,-16.6753"/>
</g>
<!-- Node27&#45;&gt;Node5 -->
<g id="edge110" class="edge"><title>Node27&#45;&gt;Node5</title>
<path fill="none" stroke="midnightblue" d="M1168.26,-174.481C1157.26,-165.59 1141.92,-152.081 1131,-138 1106.26,-106.103 1117.75,-85.2885 1088,-58 1066.17,-37.9763 1034.5,-25.6217 1010.91,-18.6364"/>
<polygon fill="midnightblue" stroke="midnightblue" points="1011.6,-15.1957 1001.03,-15.8806 1009.72,-21.9384 1011.6,-15.1957"/>
</g>
<!-- Node27&#45;&gt;Node25 -->
<g id="edge108" class="edge"><title>Node27&#45;&gt;Node25</title>
<path fill="none" stroke="midnightblue" d="M1187.69,-174.362C1191.84,-166.595 1197.58,-155.843 1202.55,-146.546"/>
<polygon fill="midnightblue" stroke="midnightblue" points="1205.72,-148.04 1207.35,-137.571 1199.55,-144.74 1205.72,-148.04"/>
</g>
<!-- Node28&#45;&gt;Node5 -->
<g id="edge126" class="edge"><title>Node28&#45;&gt;Node5</title>
<path fill="none" stroke="midnightblue" d="M371.824,-174.323C371.941,-160.419 373.349,-135.579 381,-116 392.49,-86.5971 394.602,-73.6806 422,-58 467.596,-31.9046 834.575,-16.3279 946.627,-12.1458"/>
<polygon fill="midnightblue" stroke="midnightblue" points="947.087,-15.6314 956.951,-11.766 946.829,-8.63609 947.087,-15.6314"/>
</g>
<!-- Node28&#45;&gt;Node14 -->
<g id="edge124" class="edge"><title>Node28&#45;&gt;Node14</title>
<path fill="none" stroke="midnightblue" d="M354.392,-174.362C339.777,-165.532 318.776,-152.844 302.189,-142.822"/>
<polygon fill="midnightblue" stroke="midnightblue" points="303.865,-139.746 293.496,-137.571 300.246,-145.738 303.865,-139.746"/>
</g>
<!-- Node29 -->
<g id="node86" class="node"><title>Node29</title>
<a xlink:href="SubsystemObject_8h.html" target="_top" xlink:title="SubsystemObject.h">
<polygon fill="white" stroke="black" points="390,-116.5 390,-137.5 500,-137.5 500,-116.5 390,-116.5"/>
<text text-anchor="middle" x="445" y="-124.5" font-family="Verdana" font-size="10.00">SubsystemObject.h</text>
</a>
</g>
<!-- Node28&#45;&gt;Node29 -->
<g id="edge114" class="edge"><title>Node28&#45;&gt;Node29</title>
<path fill="none" stroke="midnightblue" d="M385.389,-174.362C396.091,-165.859 411.296,-153.779 423.671,-143.947"/>
<polygon fill="midnightblue" stroke="midnightblue" points="426.043,-146.532 431.696,-137.571 421.689,-141.051 426.043,-146.532"/>
</g>
<!-- Node29&#45;&gt;Node5 -->
<g id="edge122" class="edge"><title>Node29&#45;&gt;Node5</title>
<path fill="none" stroke="midnightblue" d="M438.402,-116.38C430.015,-101.381 418.285,-74.0362 433,-58 467.858,-20.0125 835.124,-12.6587 946.901,-11.2967"/>
<polygon fill="midnightblue" stroke="midnightblue" points="946.942,-14.7966 956.901,-11.1828 946.862,-7.79706 946.942,-14.7966"/>
</g>
<!-- Node29&#45;&gt;Node7 -->
<g id="edge120" class="edge"><title>Node29&#45;&gt;Node7</title>
<path fill="none" stroke="midnightblue" d="M389.96,-121.353C314.053,-113.004 184.96,-96.559 171,-80 156.053,-62.2706 178.013,-41.3828 198.459,-27.2707"/>
<polygon fill="midnightblue" stroke="midnightblue" points="200.569,-30.0729 207.017,-21.6665 196.734,-24.2168 200.569,-30.0729"/>
</g>
<!-- Node30 -->
<g id="node88" class="node"><title>Node30</title>
<a xlink:href="Syncer_8h.html" target="_top" xlink:title="Syncer.h">
<polygon fill="white" stroke="black" points="442,-58.5 442,-79.5 500,-79.5 500,-58.5 442,-58.5"/>
<text text-anchor="middle" x="471" y="-66.5" font-family="Verdana" font-size="10.00">Syncer.h</text>
</a>
</g>
<!-- Node29&#45;&gt;Node30 -->
<g id="edge116" class="edge"><title>Node29&#45;&gt;Node30</title>
<path fill="none" stroke="midnightblue" d="M449.769,-116.362C453.214,-108.677 457.969,-98.0686 462.106,-88.8399"/>
<polygon fill="midnightblue" stroke="midnightblue" points="465.365,-90.1275 466.261,-79.5707 458.977,-87.264 465.365,-90.1275"/>
</g>
<!-- Node30&#45;&gt;Node5 -->
<g id="edge118" class="edge"><title>Node30&#45;&gt;Node5</title>
<path fill="none" stroke="midnightblue" d="M500.016,-60.9498C504.667,-59.841 509.448,-58.8076 514,-58 674.672,-29.4943 869.872,-16.7702 946.194,-12.6242"/>
<polygon fill="midnightblue" stroke="midnightblue" points="946.773,-16.0985 956.573,-12.0739 946.402,-9.1083 946.773,-16.0985"/>
</g>
<!-- Node31&#45;&gt;Node5 -->
<g id="edge132" class="edge"><title>Node31&#45;&gt;Node5</title>
<path fill="none" stroke="midnightblue" d="M930.891,-116.295C939.765,-96.8724 958.642,-55.5561 969.932,-30.8462"/>
<polygon fill="midnightblue" stroke="midnightblue" points="973.148,-32.2293 974.121,-21.6792 966.781,-29.3203 973.148,-32.2293"/>
</g>
<!-- Node31&#45;&gt;Node9 -->
<g id="edge130" class="edge"><title>Node31&#45;&gt;Node9</title>
<path fill="none" stroke="midnightblue" d="M910.96,-116.362C898.707,-107.696 881.201,-95.3126 867.161,-85.3819"/>
<polygon fill="midnightblue" stroke="midnightblue" points="869.13,-82.4879 858.945,-79.5707 865.088,-88.2028 869.13,-82.4879"/>
</g>
<!-- Node32 -->
<g id="node99" class="node"><title>Node32</title>
<polygon fill="white" stroke="#bfbfbf" points="894,-58.5 894,-79.5 932,-79.5 932,-58.5 894,-58.5"/>
<text text-anchor="middle" x="913" y="-66.5" font-family="Verdana" font-size="10.00">map</text>
</g>
<!-- Node31&#45;&gt;Node32 -->
<g id="edge134" class="edge"><title>Node31&#45;&gt;Node32</title>
<path fill="none" stroke="midnightblue" d="M923.616,-116.362C921.93,-108.84 919.616,-98.5187 917.579,-89.4308"/>
<polygon fill="midnightblue" stroke="midnightblue" points="920.972,-88.563 915.369,-79.5707 914.141,-90.0941 920.972,-88.563"/>
</g>
</g>
</svg>
