<?xml version="1.0" encoding="UTF-8" standalone="no"?>
<!DOCTYPE svg PUBLIC "-//W3C//DTD SVG 1.1//EN"
 "http://www.w3.org/Graphics/SVG/1.1/DTD/svg11.dtd">
<!-- Generated by graphviz version 2.26.3 (20100126.1600)
 -->
<!-- Title: parameter/Subsystem.h Pages: 1 -->
<svg width="812pt" height="320pt"
 viewBox="0.00 0.00 812.00 320.00" xmlns="http://www.w3.org/2000/svg" xmlns:xlink="http://www.w3.org/1999/xlink">
<g id="graph1" class="graph" transform="scale(1 1) rotate(0) translate(4 316)">
<title>parameter/Subsystem.h</title>
<polygon fill="white" stroke="white" points="-4,5 -4,-316 809,-316 809,5 -4,5"/>
<!-- Node1 -->
<g id="node1" class="node"><title>Node1</title>
<polygon fill="#bfbfbf" stroke="black" points="364,-290.5 364,-311.5 498,-311.5 498,-290.5 364,-290.5"/>
<text text-anchor="middle" x="431" y="-298.5" font-family="Verdana" font-size="10.00">parameter/Subsystem.h</text>
</g>
<!-- Node2 -->
<g id="node3" class="node"><title>Node2</title>
<a xlink:href="ConfigurableElement_8h.html" target="_top" xlink:title="ConfigurableElement.h">
<polygon fill="white" stroke="black" points="429.5,-174.5 429.5,-195.5 554.5,-195.5 554.5,-174.5 429.5,-174.5"/>
<text text-anchor="middle" x="492" y="-182.5" font-family="Verdana" font-size="10.00">ConfigurableElement.h</text>
</a>
</g>
<!-- Node1&#45;&gt;Node2 -->
<g id="edge2" class="edge"><title>Node1&#45;&gt;Node2</title>
<path fill="none" stroke="midnightblue" d="M443.365,-290.195C452.769,-281.343 465.354,-268.029 473,-254 481.163,-239.021 486.036,-220.262 488.799,-206.086"/>
<polygon fill="midnightblue" stroke="midnightblue" points="492.312,-206.313 490.585,-195.86 485.416,-205.108 492.312,-206.313"/>
</g>
<!-- Node4 -->
<g id="node7" class="node"><title>Node4</title>
<polygon fill="white" stroke="#bfbfbf" points="144,-0.5 144,-21.5 188,-21.5 188,-0.5 144,-0.5"/>
<text text-anchor="middle" x="166" y="-8.5" font-family="Verdana" font-size="10.00">string</text>
</g>
<!-- Node1&#45;&gt;Node4 -->
<g id="edge48" class="edge"><title>Node1&#45;&gt;Node4</title>
<path fill="none" stroke="midnightblue" d="M363.643,-292.175C263.753,-277.174 88,-242.597 88,-185 88,-185 88,-185 88,-127 88,-86.1875 121.661,-48.9369 144.757,-28.1809"/>
<polygon fill="midnightblue" stroke="midnightblue" points="147.147,-30.7414 152.413,-21.5483 142.563,-25.4505 147.147,-30.7414"/>
</g>
<!-- Node5 -->
<g id="node9" class="node"><title>Node5</title>
<polygon fill="white" stroke="#bfbfbf" points="624.5,-0.5 624.5,-21.5 671.5,-21.5 671.5,-0.5 624.5,-0.5"/>
<text text-anchor="middle" x="648" y="-8.5" font-family="Verdana" font-size="10.00">vector</text>
</g>
<!-- Node1&#45;&gt;Node5 -->
<g id="edge50" class="edge"><title>Node1&#45;&gt;Node5</title>
<path fill="none" stroke="midnightblue" d="M491.952,-290.445C580.433,-273.365 734,-236.328 734,-185 734,-185 734,-185 734,-127 734,-95.1919 733.323,-84.0004 715,-58 705.911,-45.1027 692.1,-34.5509 679.374,-26.7365"/>
<polygon fill="midnightblue" stroke="midnightblue" points="680.792,-23.5129 670.383,-21.5358 677.287,-29.5723 680.792,-23.5129"/>
</g>
<!-- Node7 -->
<g id="node13" class="node"><title>Node7</title>
<polygon fill="white" stroke="#bfbfbf" points="676,-58.5 676,-79.5 706,-79.5 706,-58.5 676,-58.5"/>
<text text-anchor="middle" x="691" y="-66.5" font-family="Verdana" font-size="10.00">list</text>
</g>
<!-- Node1&#45;&gt;Node7 -->
<g id="edge44" class="edge"><title>Node1&#45;&gt;Node7</title>
<path fill="none" stroke="midnightblue" d="M444.864,-290.226C457.052,-280.734 475.252,-266.51 491,-254 523.175,-228.441 532.374,-223.396 563,-196 604.474,-158.899 650.068,-112.087 674.063,-86.9398"/>
<polygon fill="midnightblue" stroke="midnightblue" points="676.709,-89.2356 681.061,-79.576 671.635,-84.4132 676.709,-89.2356"/>
</g>
<!-- Node11 -->
<g id="node25" class="node"><title>Node11</title>
<a xlink:href="ConfigurableElementWithMapping_8h.html" target="_top" xlink:title="ConfigurableElementWithMapping.h">
<polygon fill="white" stroke="black" points="278,-232.5 278,-253.5 464,-253.5 464,-232.5 278,-232.5"/>
<text text-anchor="middle" x="371" y="-240.5" font-family="Verdana" font-size="10.00">ConfigurableElementWithMapping.h</text>
</a>
</g>
<!-- Node1&#45;&gt;Node11 -->
<g id="edge28" class="edge"><title>Node1&#45;&gt;Node11</title>
<path fill="none" stroke="midnightblue" d="M419.995,-290.362C411.453,-282.104 399.42,-270.472 389.417,-260.803"/>
<polygon fill="midnightblue" stroke="midnightblue" points="391.558,-258.004 381.935,-253.571 386.692,-263.037 391.558,-258.004"/>
</g>
<!-- Node12 -->
<g id="node29" class="node"><title>Node12</title>
<a xlink:href="Mapper_8h.html" target="_top" xlink:title="Mapper.h">
<polygon fill="white" stroke="black" points="-0.5,-174.5 -0.5,-195.5 60.5,-195.5 60.5,-174.5 -0.5,-174.5"/>
<text text-anchor="middle" x="30" y="-182.5" font-family="Verdana" font-size="10.00">Mapper.h</text>
</a>
</g>
<!-- Node1&#45;&gt;Node12 -->
<g id="edge34" class="edge"><title>Node1&#45;&gt;Node12</title>
<path fill="none" stroke="midnightblue" d="M363.704,-298.841C273.895,-294.84 120.733,-283.758 74,-254 56.2064,-242.67 44.2519,-221.272 37.3489,-205.296"/>
<polygon fill="midnightblue" stroke="midnightblue" points="40.4918,-203.728 33.5315,-195.74 33.9913,-206.325 40.4918,-203.728"/>
</g>
<!-- Node13 -->
<g id="node32" class="node"><title>Node13</title>
<a xlink:href="MappingContext_8h.html" target="_top" xlink:title="MappingContext.h">
<polygon fill="white" stroke="black" points="154,-58.5 154,-79.5 258,-79.5 258,-58.5 154,-58.5"/>
<text text-anchor="middle" x="206" y="-66.5" font-family="Verdana" font-size="10.00">MappingContext.h</text>
</a>
</g>
<!-- Node1&#45;&gt;Node13 -->
<g id="edge38" class="edge"><title>Node1&#45;&gt;Node13</title>
<path fill="none" stroke="midnightblue" d="M374.701,-290.425C334.286,-281.795 284.353,-268.665 269,-254 222.084,-209.187 210.106,-128.103 207.048,-89.9352"/>
<polygon fill="midnightblue" stroke="midnightblue" points="210.514,-89.3008 206.357,-79.5556 203.529,-89.7661 210.514,-89.3008"/>
</g>
<!-- Node14 -->
<g id="node37" class="node"><title>Node14</title>
<polygon fill="white" stroke="#bfbfbf" points="762,-232.5 762,-253.5 804,-253.5 804,-232.5 762,-232.5"/>
<text text-anchor="middle" x="783" y="-240.5" font-family="Verdana" font-size="10.00">stack</text>
</g>
<!-- Node1&#45;&gt;Node14 -->
<g id="edge46" class="edge"><title>Node1&#45;&gt;Node14</title>
<path fill="none" stroke="midnightblue" d="M498.054,-294.161C562.61,-286.848 662.734,-273.592 748,-254 749.257,-253.711 750.534,-253.399 751.82,-253.07"/>
<polygon fill="midnightblue" stroke="midnightblue" points="753.002,-256.373 761.675,-250.287 751.1,-249.636 753.002,-256.373"/>
</g>
<!-- Node3 -->
<g id="node5" class="node"><title>Node3</title>
<a xlink:href="Element_8h.html" target="_top" xlink:title="Element.h">
<polygon fill="white" stroke="black" points="459.5,-116.5 459.5,-137.5 524.5,-137.5 524.5,-116.5 459.5,-116.5"/>
<text text-anchor="middle" x="492" y="-124.5" font-family="Verdana" font-size="10.00">Element.h</text>
</a>
</g>
<!-- Node2&#45;&gt;Node3 -->
<g id="edge4" class="edge"><title>Node2&#45;&gt;Node3</title>
<path fill="none" stroke="midnightblue" d="M492,-174.362C492,-166.922 492,-156.743 492,-147.728"/>
<polygon fill="midnightblue" stroke="midnightblue" points="495.5,-147.571 492,-137.571 488.5,-147.571 495.5,-147.571"/>
</g>
<!-- Node2&#45;&gt;Node7 -->
<g id="edge26" class="edge"><title>Node2&#45;&gt;Node7</title>
<path fill="none" stroke="midnightblue" d="M510.365,-174.295C546.441,-153.265 626.55,-106.569 666.853,-83.0755"/>
<polygon fill="midnightblue" stroke="midnightblue" points="668.859,-85.9576 675.736,-77.8977 665.334,-79.91 668.859,-85.9576"/>
</g>
<!-- Node3&#45;&gt;Node4 -->
<g id="edge6" class="edge"><title>Node3&#45;&gt;Node4</title>
<path fill="none" stroke="midnightblue" d="M459.374,-121.654C421.36,-114.78 357.11,-101.148 305,-80 286.917,-72.6616 284.308,-67.0146 267,-58 244.151,-46.0998 217.736,-33.8589 197.651,-24.8536"/>
<polygon fill="midnightblue" stroke="midnightblue" points="198.902,-21.5795 188.343,-20.7085 196.054,-27.974 198.902,-21.5795"/>
</g>
<!-- Node3&#45;&gt;Node5 -->
<g id="edge8" class="edge"><title>Node3&#45;&gt;Node5</title>
<path fill="none" stroke="midnightblue" d="M524.627,-119.534C560.377,-110.73 614.576,-95.344 629,-80 641.258,-66.9602 645.737,-46.7502 647.31,-31.5669"/>
<polygon fill="midnightblue" stroke="midnightblue" points="650.803,-31.7944 648.012,-21.5738 643.82,-31.3041 650.803,-31.7944"/>
</g>
<!-- Node6 -->
<g id="node11" class="node"><title>Node6</title>
<polygon fill="white" stroke="#bfbfbf" points="391.5,-0.5 391.5,-21.5 444.5,-21.5 444.5,-0.5 391.5,-0.5"/>
<text text-anchor="middle" x="418" y="-8.5" font-family="Verdana" font-size="10.00">stdint.h</text>
</g>
<!-- Node3&#45;&gt;Node6 -->
<g id="edge10" class="edge"><title>Node3&#45;&gt;Node6</title>
<path fill="none" stroke="midnightblue" d="M474.943,-116.472C462.667,-108.047 446.635,-95.1582 437,-80 427.652,-65.2932 422.844,-45.9909 420.407,-31.5426"/>
<polygon fill="midnightblue" stroke="midnightblue" points="423.864,-30.9931 418.97,-21.5965 416.936,-31.9943 423.864,-30.9931"/>
</g>
<!-- Node3&#45;&gt;Node7 -->
<g id="edge12" class="edge"><title>Node3&#45;&gt;Node7</title>
<path fill="none" stroke="midnightblue" d="M524.541,-118.962C558.956,-110.238 614.707,-95.4701 662,-80 663.407,-79.5396 664.847,-79.0512 666.296,-78.5461"/>
<polygon fill="midnightblue" stroke="midnightblue" points="667.554,-81.8128 675.743,-75.0908 665.149,-75.2388 667.554,-81.8128"/>
</g>
<!-- Node8 -->
<g id="node15" class="node"><title>Node8</title>
<polygon fill="white" stroke="#bfbfbf" points="556,-58.5 556,-79.5 620,-79.5 620,-58.5 556,-58.5"/>
<text text-anchor="middle" x="588" y="-66.5" font-family="Verdana" font-size="10.00">XmlSink.h</text>
</g>
<!-- Node3&#45;&gt;Node8 -->
<g id="edge14" class="edge"><title>Node3&#45;&gt;Node8</title>
<path fill="none" stroke="midnightblue" d="M509.608,-116.362C524.223,-107.532 545.224,-94.844 561.811,-84.8224"/>
<polygon fill="midnightblue" stroke="midnightblue" points="563.754,-87.7376 570.504,-79.5707 560.135,-81.7461 563.754,-87.7376"/>
</g>
<!-- Node9 -->
<g id="node17" class="node"><title>Node9</title>
<polygon fill="white" stroke="#bfbfbf" points="313.5,-58.5 313.5,-79.5 390.5,-79.5 390.5,-58.5 313.5,-58.5"/>
<text text-anchor="middle" x="352" y="-66.5" font-family="Verdana" font-size="10.00">XmlSource.h</text>
</g>
<!-- Node3&#45;&gt;Node9 -->
<g id="edge16" class="edge"><title>Node3&#45;&gt;Node9</title>
<path fill="none" stroke="midnightblue" d="M466.647,-116.497C444.387,-107.275 411.788,-93.7695 387.037,-83.5153"/>
<polygon fill="midnightblue" stroke="midnightblue" points="388.216,-80.2152 377.637,-79.6212 385.536,-86.6822 388.216,-80.2152"/>
</g>
<!-- Node10 -->
<g id="node19" class="node"><title>Node10</title>
<a xlink:href="PathNavigator_8h.html" target="_top" xlink:title="PathNavigator.h">
<polygon fill="white" stroke="black" points="446,-58.5 446,-79.5 538,-79.5 538,-58.5 446,-58.5"/>
<text text-anchor="middle" x="492" y="-66.5" font-family="Verdana" font-size="10.00">PathNavigator.h</text>
</a>
</g>
<!-- Node3&#45;&gt;Node10 -->
<g id="edge18" class="edge"><title>Node3&#45;&gt;Node10</title>
<path fill="none" stroke="midnightblue" d="M492,-116.362C492,-108.922 492,-98.7427 492,-89.7276"/>
<polygon fill="midnightblue" stroke="midnightblue" points="495.5,-89.5706 492,-79.5707 488.5,-89.5707 495.5,-89.5706"/>
</g>
<!-- Node10&#45;&gt;Node4 -->
<g id="edge22" class="edge"><title>Node10&#45;&gt;Node4</title>
<path fill="none" stroke="midnightblue" d="M445.984,-60.813C379.066,-48.9075 256.552,-27.1105 198.351,-16.7557"/>
<polygon fill="midnightblue" stroke="midnightblue" points="198.718,-13.2662 188.26,-14.9604 197.492,-20.158 198.718,-13.2662"/>
</g>
<!-- Node10&#45;&gt;Node5 -->
<g id="edge20" class="edge"><title>Node10&#45;&gt;Node5</title>
<path fill="none" stroke="midnightblue" d="M520.25,-58.4966C546.798,-48.6265 586.541,-33.8503 614.637,-23.4043"/>
<polygon fill="midnightblue" stroke="midnightblue" points="615.895,-26.6707 624.048,-19.9052 613.455,-20.1096 615.895,-26.6707"/>
</g>
<!-- Node10&#45;&gt;Node6 -->
<g id="edge24" class="edge"><title>Node10&#45;&gt;Node6</title>
<path fill="none" stroke="midnightblue" d="M478.427,-58.3619C467.579,-49.859 452.166,-37.7785 439.621,-27.9466"/>
<polygon fill="midnightblue" stroke="midnightblue" points="441.516,-24.9848 431.487,-21.5707 437.198,-30.4942 441.516,-24.9848"/>
</g>
<!-- Node11&#45;&gt;Node2 -->
<g id="edge30" class="edge"><title>Node11&#45;&gt;Node2</title>
<path fill="none" stroke="midnightblue" d="M392.912,-232.497C411.811,-223.438 439.331,-210.246 460.576,-200.063"/>
<polygon fill="midnightblue" stroke="midnightblue" points="462.337,-203.1 469.842,-195.621 459.311,-196.788 462.337,-203.1"/>
</g>
<!-- Node11&#45;&gt;Node4 -->
<g id="edge32" class="edge"><title>Node11&#45;&gt;Node4</title>
<path fill="none" stroke="midnightblue" d="M342.03,-232.4C291.08,-211.978 186.871,-161.824 145,-80 136.858,-64.0894 144.324,-44.471 152.524,-30.2254"/>
<polygon fill="midnightblue" stroke="midnightblue" points="155.503,-32.062 157.862,-21.733 149.577,-28.3369 155.503,-32.062"/>
</g>
<!-- Node12&#45;&gt;Node4 -->
<g id="edge36" class="edge"><title>Node12&#45;&gt;Node4</title>
<path fill="none" stroke="midnightblue" d="M30.9979,-174.482C33.7429,-150.918 43.3678,-93.2086 74,-58 89.8116,-39.8262 114.355,-27.7851 134.117,-20.4442"/>
<polygon fill="midnightblue" stroke="midnightblue" points="135.367,-23.715 143.658,-17.119 133.063,-17.1049 135.367,-23.715"/>
</g>
<!-- Node13&#45;&gt;Node4 -->
<g id="edge42" class="edge"><title>Node13&#45;&gt;Node4</title>
<path fill="none" stroke="midnightblue" d="M198.663,-58.3619C193.194,-50.4313 185.578,-39.3885 179.076,-29.9606"/>
<polygon fill="midnightblue" stroke="midnightblue" points="181.849,-27.8157 173.29,-21.5707 176.086,-31.7899 181.849,-27.8157"/>
</g>
<!-- Node13&#45;&gt;Node6 -->
<g id="edge40" class="edge"><title>Node13&#45;&gt;Node6</title>
<path fill="none" stroke="midnightblue" d="M244.392,-58.4966C283.385,-47.8285 343.329,-31.4289 381.593,-20.9604"/>
<polygon fill="midnightblue" stroke="midnightblue" points="382.579,-24.3193 391.301,-18.3044 380.732,-17.5674 382.579,-24.3193"/>
</g>
</g>
</svg>
