<?xml version="1.0" encoding="UTF-8" standalone="no"?>
<!DOCTYPE svg PUBLIC "-//W3C//DTD SVG 1.1//EN"
 "http://www.w3.org/Graphics/SVG/1.1/DTD/svg11.dtd">
<!-- Generated by graphviz version 2.26.3 (20100126.1600)
 -->
<!-- Title: parameter/SubsystemElementBuilder.h Pages: 1 -->
<svg width="348pt" height="116pt"
 viewBox="0.00 0.00 348.00 116.00" xmlns="http://www.w3.org/2000/svg" xmlns:xlink="http://www.w3.org/1999/xlink">
<g id="graph1" class="graph" transform="scale(1 1) rotate(0) translate(4 112)">
<title>parameter/SubsystemElementBuilder.h</title>
<polygon fill="white" stroke="white" points="-4,5 -4,-112 345,-112 345,5 -4,5"/>
<!-- Node1 -->
<g id="node1" class="node"><title>Node1</title>
<polygon fill="#bfbfbf" stroke="black" points="86,-73 86,-107 250,-107 250,-73 86,-73"/>
<text text-anchor="start" x="94" y="-94" font-family="Verdana" font-size="10.00">parameter/SubsystemElement</text>
<text text-anchor="middle" x="168" y="-81" font-family="Verdana" font-size="10.00">Builder.h</text>
</g>
<!-- Node2 -->
<g id="node3" class="node"><title>Node2</title>
<a xlink:href="ParameterMgr_8cpp.html" target="_top" xlink:title="parameter/ParameterMgr.cpp">
<polygon fill="white" stroke="black" points="0,-7.5 0,-28.5 158,-28.5 158,-7.5 0,-7.5"/>
<text text-anchor="middle" x="79" y="-15.5" font-family="Verdana" font-size="10.00">parameter/ParameterMgr.cpp</text>
</a>
</g>
<!-- Node1&#45;&gt;Node2 -->
<g id="edge2" class="edge"><title>Node1&#45;&gt;Node2</title>
<path fill="none" stroke="midnightblue" d="M138.985,-66.527C123.222,-53.7747 104.497,-38.6265 92.2116,-28.688"/>
<polygon fill="midnightblue" stroke="midnightblue" points="136.932,-69.3686 146.908,-72.937 141.335,-63.9264 136.932,-69.3686"/>
</g>
<!-- Node3 -->
<g id="node5" class="node"><title>Node3</title>
<a xlink:href="SubsystemElementBuilder_8cpp.html" target="_top" xlink:title="parameter/SubsystemElement\lBuilder.cpp">
<polygon fill="white" stroke="black" points="176,-1 176,-35 340,-35 340,-1 176,-1"/>
<text text-anchor="start" x="184" y="-22" font-family="Verdana" font-size="10.00">parameter/SubsystemElement</text>
<text text-anchor="middle" x="258" y="-9" font-family="Verdana" font-size="10.00">Builder.cpp</text>
</a>
</g>
<!-- Node1&#45;&gt;Node3 -->
<g id="edge4" class="edge"><title>Node1&#45;&gt;Node3</title>
<path fill="none" stroke="midnightblue" d="M197.384,-66.493C210.138,-56.2899 224.802,-44.5583 236.512,-35.19"/>
<polygon fill="midnightblue" stroke="midnightblue" points="194.951,-63.957 189.329,-72.937 199.324,-69.4231 194.951,-63.957"/>
</g>
</g>
</svg>
