<?xml version="1.0" encoding="UTF-8" standalone="no"?>
<!DOCTYPE svg PUBLIC "-//W3C//DTD SVG 1.1//EN"
 "http://www.w3.org/Graphics/SVG/1.1/DTD/svg11.dtd">
<!-- Generated by graphviz version 2.26.3 (20100126.1600)
 -->
<!-- Title: parameter/SubsystemObjectFactory.h Pages: 1 -->
<svg width="304pt" height="276pt"
 viewBox="0.00 0.00 304.35 276.00" xmlns="http://www.w3.org/2000/svg" xmlns:xlink="http://www.w3.org/1999/xlink">
<g id="graph1" class="graph" transform="scale(1 1) rotate(0) translate(4 272)">
<title>parameter/SubsystemObjectFactory.h</title>
<polygon fill="white" stroke="white" points="-4,5 -4,-272 301.351,-272 301.351,5 -4,5"/>
<!-- Node1 -->
<g id="node1" class="node"><title>Node1</title>
<polygon fill="#bfbfbf" stroke="black" points="141.851,-233 141.851,-267 296.851,-267 296.851,-233 141.851,-233"/>
<text text-anchor="start" x="149.851" y="-254" font-family="Verdana" font-size="10.00">parameter/SubsystemObject</text>
<text text-anchor="middle" x="219.351" y="-241" font-family="Verdana" font-size="10.00">Factory.h</text>
</g>
<!-- Node2 -->
<g id="node3" class="node"><title>Node2</title>
<a xlink:href="SubsystemObjectCreator_8h.html" target="_top" xlink:title="SubsystemObjectCreator.h">
<polygon fill="white" stroke="black" points="42.3509,-174.5 42.3509,-195.5 188.351,-195.5 188.351,-174.5 42.3509,-174.5"/>
<text text-anchor="middle" x="115.351" y="-182.5" font-family="Verdana" font-size="10.00">SubsystemObjectCreator.h</text>
</a>
</g>
<!-- Node1&#45;&gt;Node2 -->
<g id="edge2" class="edge"><title>Node1&#45;&gt;Node2</title>
<path fill="none" stroke="midnightblue" d="M192.026,-232.922C176.229,-223.049 156.477,-210.704 140.977,-201.016"/>
<polygon fill="midnightblue" stroke="midnightblue" points="142.739,-197.99 132.404,-195.658 139.029,-203.926 142.739,-197.99"/>
</g>
<!-- Node5 -->
<g id="node9" class="node"><title>Node5</title>
<polygon fill="white" stroke="#bfbfbf" points="154.351,-0.5 154.351,-21.5 198.351,-21.5 198.351,-0.5 154.351,-0.5"/>
<text text-anchor="middle" x="176.351" y="-8.5" font-family="Verdana" font-size="10.00">string</text>
</g>
<!-- Node1&#45;&gt;Node5 -->
<g id="edge22" class="edge"><title>Node1&#45;&gt;Node5</title>
<path fill="none" stroke="midnightblue" d="M228.489,-232.782C240.841,-207.399 260.443,-158.36 252.351,-116 247.147,-88.762 245.269,-80.7066 229.351,-58 221.409,-46.6711 210.212,-36.2226 200.154,-28.0686"/>
<polygon fill="midnightblue" stroke="midnightblue" points="202.115,-25.1599 192.071,-21.7899 197.821,-30.6883 202.115,-25.1599"/>
</g>
<!-- Node3 -->
<g id="node5" class="node"><title>Node3</title>
<a xlink:href="SubsystemObject_8h.html" target="_top" xlink:title="SubsystemObject.h">
<polygon fill="white" stroke="black" points="133.351,-116.5 133.351,-137.5 243.351,-137.5 243.351,-116.5 133.351,-116.5"/>
<text text-anchor="middle" x="188.351" y="-124.5" font-family="Verdana" font-size="10.00">SubsystemObject.h</text>
</a>
</g>
<!-- Node2&#45;&gt;Node3 -->
<g id="edge4" class="edge"><title>Node2&#45;&gt;Node3</title>
<path fill="none" stroke="midnightblue" d="M128.74,-174.362C139.442,-165.859 154.647,-153.779 167.022,-143.947"/>
<polygon fill="midnightblue" stroke="midnightblue" points="169.394,-146.532 175.046,-137.571 165.04,-141.051 169.394,-146.532"/>
</g>
<!-- Node2&#45;&gt;Node5 -->
<g id="edge20" class="edge"><title>Node2&#45;&gt;Node5</title>
<path fill="none" stroke="midnightblue" d="M61.7858,-174.448C27.1113,-164.582 -9.54137,-146.644 2.35093,-116 25.0997,-57.3817 100.499,-29.4922 144.22,-17.9556"/>
<polygon fill="midnightblue" stroke="midnightblue" points="145.229,-21.3111 154.08,-15.4889 143.53,-14.5203 145.229,-21.3111"/>
</g>
<!-- Node7 -->
<g id="node14" class="node"><title>Node7</title>
<a xlink:href="MappingContext_8h.html" target="_top" xlink:title="MappingContext.h">
<polygon fill="white" stroke="black" points="11.3509,-116.5 11.3509,-137.5 115.351,-137.5 115.351,-116.5 11.3509,-116.5"/>
<text text-anchor="middle" x="63.3509" y="-124.5" font-family="Verdana" font-size="10.00">MappingContext.h</text>
</a>
</g>
<!-- Node2&#45;&gt;Node7 -->
<g id="edge14" class="edge"><title>Node2&#45;&gt;Node7</title>
<path fill="none" stroke="midnightblue" d="M105.813,-174.362C98.4833,-166.186 88.1877,-154.702 79.5701,-145.091"/>
<polygon fill="midnightblue" stroke="midnightblue" points="82.1096,-142.68 72.8281,-137.571 76.8976,-147.353 82.1096,-142.68"/>
</g>
<!-- Node4 -->
<g id="node7" class="node"><title>Node4</title>
<a xlink:href="Syncer_8h.html" target="_top" xlink:title="Syncer.h">
<polygon fill="white" stroke="black" points="147.351,-58.5 147.351,-79.5 205.351,-79.5 205.351,-58.5 147.351,-58.5"/>
<text text-anchor="middle" x="176.351" y="-66.5" font-family="Verdana" font-size="10.00">Syncer.h</text>
</a>
</g>
<!-- Node3&#45;&gt;Node4 -->
<g id="edge6" class="edge"><title>Node3&#45;&gt;Node4</title>
<path fill="none" stroke="midnightblue" d="M186.15,-116.362C184.594,-108.84 182.458,-98.5187 180.578,-89.4308"/>
<polygon fill="midnightblue" stroke="midnightblue" points="183.992,-88.6541 178.538,-79.5707 177.137,-90.0724 183.992,-88.6541"/>
</g>
<!-- Node3&#45;&gt;Node5 -->
<g id="edge12" class="edge"><title>Node3&#45;&gt;Node5</title>
<path fill="none" stroke="midnightblue" d="M197.283,-116.293C207.432,-102.77 221.693,-78.7583 214.351,-58 210.52,-47.1677 203.014,-37.0031 195.677,-28.9169"/>
<polygon fill="midnightblue" stroke="midnightblue" points="198.02,-26.3059 188.54,-21.5757 193.001,-31.1854 198.02,-26.3059"/>
</g>
<!-- Node6 -->
<g id="node11" class="node"><title>Node6</title>
<polygon fill="white" stroke="#bfbfbf" points="76.8509,-58.5 76.8509,-79.5 129.851,-79.5 129.851,-58.5 76.8509,-58.5"/>
<text text-anchor="middle" x="103.351" y="-66.5" font-family="Verdana" font-size="10.00">stdint.h</text>
</g>
<!-- Node3&#45;&gt;Node6 -->
<g id="edge10" class="edge"><title>Node3&#45;&gt;Node6</title>
<path fill="none" stroke="midnightblue" d="M172.761,-116.362C160.06,-107.696 141.912,-95.3126 127.359,-85.3819"/>
<polygon fill="midnightblue" stroke="midnightblue" points="129.075,-82.316 118.842,-79.5707 125.13,-88.0982 129.075,-82.316"/>
</g>
<!-- Node4&#45;&gt;Node5 -->
<g id="edge8" class="edge"><title>Node4&#45;&gt;Node5</title>
<path fill="none" stroke="midnightblue" d="M176.351,-58.3619C176.351,-50.9219 176.351,-40.7427 176.351,-31.7276"/>
<polygon fill="midnightblue" stroke="midnightblue" points="179.851,-31.5706 176.351,-21.5707 172.851,-31.5707 179.851,-31.5706"/>
</g>
<!-- Node7&#45;&gt;Node5 -->
<g id="edge18" class="edge"><title>Node7&#45;&gt;Node5</title>
<path fill="none" stroke="midnightblue" d="M60.9308,-116.05C58.3507,-101.394 56.1318,-75.2492 68.3509,-58 85.9081,-33.2153 119.45,-21.369 144.516,-15.7907"/>
<polygon fill="midnightblue" stroke="midnightblue" points="145.213,-19.2208 154.33,-13.8245 143.838,-12.3572 145.213,-19.2208"/>
</g>
<!-- Node7&#45;&gt;Node6 -->
<g id="edge16" class="edge"><title>Node7&#45;&gt;Node6</title>
<path fill="none" stroke="midnightblue" d="M70.6875,-116.362C76.1569,-108.431 83.7726,-97.3885 90.2746,-87.9606"/>
<polygon fill="midnightblue" stroke="midnightblue" points="93.2647,-89.7899 96.0608,-79.5707 87.5022,-85.8157 93.2647,-89.7899"/>
</g>
</g>
</svg>
