<?xml version="1.0" encoding="UTF-8" standalone="no"?>
<!DOCTYPE svg PUBLIC "-//W3C//DTD SVG 1.1//EN"
 "http://www.w3.org/Graphics/SVG/1.1/DTD/svg11.dtd">
<!-- Generated by graphviz version 2.26.3 (20100126.1600)
 -->
<!-- Title: parameter/SyncerSet.h Pages: 1 -->
<svg width="150pt" height="88pt"
 viewBox="0.00 0.00 150.00 88.00" xmlns="http://www.w3.org/2000/svg" xmlns:xlink="http://www.w3.org/1999/xlink">
<g id="graph1" class="graph" transform="scale(1 1) rotate(0) translate(4 84)">
<title>parameter/SyncerSet.h</title>
<polygon fill="white" stroke="white" points="-4,5 -4,-84 147,-84 147,5 -4,5"/>
<!-- Node1 -->
<g id="node1" class="node"><title>Node1</title>
<polygon fill="#bfbfbf" stroke="black" points="7.5,-58.5 7.5,-79.5 136.5,-79.5 136.5,-58.5 7.5,-58.5"/>
<text text-anchor="middle" x="72" y="-66.5" font-family="Verdana" font-size="10.00">parameter/SyncerSet.h</text>
</g>
<!-- Node2 -->
<g id="node3" class="node"><title>Node2</title>
<polygon fill="white" stroke="#bfbfbf" points="0,-0.5 0,-21.5 32,-21.5 32,-0.5 0,-0.5"/>
<text text-anchor="middle" x="16" y="-8.5" font-family="Verdana" font-size="10.00">set</text>
</g>
<!-- Node1&#45;&gt;Node2 -->
<g id="edge2" class="edge"><title>Node1&#45;&gt;Node2</title>
<path fill="none" stroke="midnightblue" d="M61.7287,-58.3619C53.7559,-50.1043 42.5252,-38.4725 33.189,-28.8029"/>
<polygon fill="midnightblue" stroke="midnightblue" points="35.67,-26.3336 26.2061,-21.5707 30.6342,-31.1958 35.67,-26.3336"/>
</g>
<!-- Node3 -->
<g id="node5" class="node"><title>Node3</title>
<polygon fill="white" stroke="#bfbfbf" points="50,-0.5 50,-21.5 94,-21.5 94,-0.5 50,-0.5"/>
<text text-anchor="middle" x="72" y="-8.5" font-family="Verdana" font-size="10.00">string</text>
</g>
<!-- Node1&#45;&gt;Node3 -->
<g id="edge4" class="edge"><title>Node1&#45;&gt;Node3</title>
<path fill="none" stroke="midnightblue" d="M72,-58.3619C72,-50.9219 72,-40.7427 72,-31.7276"/>
<polygon fill="midnightblue" stroke="midnightblue" points="75.5001,-31.5706 72,-21.5707 68.5001,-31.5707 75.5001,-31.5706"/>
</g>
<!-- Node4 -->
<g id="node7" class="node"><title>Node4</title>
<polygon fill="white" stroke="#bfbfbf" points="112,-0.5 112,-21.5 142,-21.5 142,-0.5 112,-0.5"/>
<text text-anchor="middle" x="127" y="-8.5" font-family="Verdana" font-size="10.00">list</text>
</g>
<!-- Node1&#45;&gt;Node4 -->
<g id="edge6" class="edge"><title>Node1&#45;&gt;Node4</title>
<path fill="none" stroke="midnightblue" d="M82.0878,-58.3619C89.8408,-50.1861 100.73,-38.7025 109.845,-29.0907"/>
<polygon fill="midnightblue" stroke="midnightblue" points="112.635,-31.2352 116.976,-21.5707 107.555,-26.4186 112.635,-31.2352"/>
</g>
</g>
</svg>
