<?xml version="1.0" encoding="UTF-8" standalone="no"?>
<!DOCTYPE svg PUBLIC "-//W3C//DTD SVG 1.1//EN"
 "http://www.w3.org/Graphics/SVG/1.1/DTD/svg11.dtd">
<!-- Generated by graphviz version 2.26.3 (20100126.1600)
 -->
<!-- Title: parameter/SyncerSet.h Pages: 1 -->
<svg width="1688pt" height="218pt"
 viewBox="0.00 0.00 1688.00 218.00" xmlns="http://www.w3.org/2000/svg" xmlns:xlink="http://www.w3.org/1999/xlink">
<g id="graph1" class="graph" transform="scale(1 1) rotate(0) translate(4 214)">
<title>parameter/SyncerSet.h</title>
<polygon fill="white" stroke="white" points="-4,5 -4,-214 1685,-214 1685,5 -4,5"/>
<!-- Node1 -->
<g id="node1" class="node"><title>Node1</title>
<polygon fill="#bfbfbf" stroke="black" points="1058.5,-188.5 1058.5,-209.5 1187.5,-209.5 1187.5,-188.5 1058.5,-188.5"/>
<text text-anchor="middle" x="1123" y="-196.5" font-family="Verdana" font-size="10.00">parameter/SyncerSet.h</text>
</g>
<!-- Node2 -->
<g id="node3" class="node"><title>Node2</title>
<a xlink:href="AreaConfiguration_8h.html" target="_top" xlink:title="parameter/AreaConfiguration.h">
<polygon fill="white" stroke="black" points="423,-123.5 423,-144.5 589,-144.5 589,-123.5 423,-123.5"/>
<text text-anchor="middle" x="506" y="-131.5" font-family="Verdana" font-size="10.00">parameter/AreaConfiguration.h</text>
</a>
</g>
<!-- Node1&#45;&gt;Node2 -->
<g id="edge2" class="edge"><title>Node1&#45;&gt;Node2</title>
<path fill="none" stroke="midnightblue" d="M1048.22,-191.122C932.271,-178.907 709.899,-155.48 589.082,-142.753"/>
<polygon fill="midnightblue" stroke="midnightblue" points="1048.11,-194.63 1058.43,-192.197 1048.85,-187.669 1048.11,-194.63"/>
</g>
<!-- Node7 -->
<g id="node13" class="node"><title>Node7</title>
<a xlink:href="ConfigurableElement_8cpp.html" target="_top" xlink:title="parameter/ConfigurableElement.cpp">
<polygon fill="white" stroke="black" points="619.5,-58.5 619.5,-79.5 810.5,-79.5 810.5,-58.5 619.5,-58.5"/>
<text text-anchor="middle" x="715" y="-66.5" font-family="Verdana" font-size="10.00">parameter/ConfigurableElement.cpp</text>
</a>
</g>
<!-- Node1&#45;&gt;Node7 -->
<g id="edge26" class="edge"><title>Node1&#45;&gt;Node7</title>
<path fill="none" stroke="midnightblue" d="M1057.64,-186.465C1017.75,-178.158 965.947,-166.191 921,-152 852.794,-130.466 775.271,-96.5598 737.746,-79.5178"/>
<polygon fill="midnightblue" stroke="midnightblue" points="1057.01,-189.91 1067.51,-188.498 1058.42,-183.053 1057.01,-189.91"/>
</g>
<!-- Node9 -->
<g id="node17" class="node"><title>Node9</title>
<a xlink:href="ConfigurableDomain_8h.html" target="_top" xlink:title="parameter/ConfigurableDomain.h">
<polygon fill="white" stroke="black" points="929.5,-123.5 929.5,-144.5 1106.5,-144.5 1106.5,-123.5 929.5,-123.5"/>
<text text-anchor="middle" x="1018" y="-131.5" font-family="Verdana" font-size="10.00">parameter/ConfigurableDomain.h</text>
</a>
</g>
<!-- Node1&#45;&gt;Node9 -->
<g id="edge16" class="edge"><title>Node1&#45;&gt;Node9</title>
<path fill="none" stroke="midnightblue" d="M1097.02,-182.917C1077.67,-170.937 1051.8,-154.921 1035.02,-144.534"/>
<polygon fill="midnightblue" stroke="midnightblue" points="1095.32,-185.979 1105.66,-188.267 1099,-180.027 1095.32,-185.979"/>
</g>
<!-- Node13 -->
<g id="node27" class="node"><title>Node13</title>
<a xlink:href="HardwareBackSynchronizer_8h.html" target="_top" xlink:title="parameter/HardwareBackSynchronizer.h">
<polygon fill="white" stroke="black" points="1124,-123.5 1124,-144.5 1334,-144.5 1334,-123.5 1124,-123.5"/>
<text text-anchor="middle" x="1229" y="-131.5" font-family="Verdana" font-size="10.00">parameter/HardwareBackSynchronizer.h</text>
</a>
</g>
<!-- Node1&#45;&gt;Node13 -->
<g id="edge28" class="edge"><title>Node1&#45;&gt;Node13</title>
<path fill="none" stroke="midnightblue" d="M1149.23,-182.917C1168.76,-170.937 1194.88,-154.921 1211.82,-144.534"/>
<polygon fill="midnightblue" stroke="midnightblue" points="1147.2,-180.055 1140.5,-188.267 1150.86,-186.023 1147.2,-180.055"/>
</g>
<!-- Node15 -->
<g id="node32" class="node"><title>Node15</title>
<a xlink:href="InstanceConfigurableElement_8cpp.html" target="_top" xlink:title="parameter/InstanceConfigurable\lElement.cpp">
<polygon fill="white" stroke="black" points="1351.5,-117 1351.5,-151 1522.5,-151 1522.5,-117 1351.5,-117"/>
<text text-anchor="start" x="1359.5" y="-138" font-family="Verdana" font-size="10.00">parameter/InstanceConfigurable</text>
<text text-anchor="middle" x="1437" y="-125" font-family="Verdana" font-size="10.00">Element.cpp</text>
</a>
</g>
<!-- Node1&#45;&gt;Node15 -->
<g id="edge34" class="edge"><title>Node1&#45;&gt;Node15</title>
<path fill="none" stroke="midnightblue" d="M1183.86,-186.401C1232.5,-176.332 1301.16,-162.119 1354.71,-151.035"/>
<polygon fill="midnightblue" stroke="midnightblue" points="1182.88,-183.03 1173.8,-188.484 1184.3,-189.885 1182.88,-183.03"/>
</g>
<!-- Node16 -->
<g id="node34" class="node"><title>Node16</title>
<a xlink:href="SyncerSet_8cpp.html" target="_top" xlink:title="parameter/SyncerSet.cpp">
<polygon fill="white" stroke="black" points="1540,-123.5 1540,-144.5 1680,-144.5 1680,-123.5 1540,-123.5"/>
<text text-anchor="middle" x="1610" y="-131.5" font-family="Verdana" font-size="10.00">parameter/SyncerSet.cpp</text>
</a>
</g>
<!-- Node1&#45;&gt;Node16 -->
<g id="edge36" class="edge"><title>Node1&#45;&gt;Node16</title>
<path fill="none" stroke="midnightblue" d="M1197.6,-192.874C1279.67,-185.561 1415.29,-171.785 1531,-152 1542.92,-149.961 1555.75,-147.261 1567.53,-144.573"/>
<polygon fill="midnightblue" stroke="midnightblue" points="1197.27,-189.389 1187.61,-193.755 1197.88,-196.362 1197.27,-189.389"/>
</g>
<!-- Node3 -->
<g id="node5" class="node"><title>Node3</title>
<a xlink:href="AreaConfiguration_8cpp.html" target="_top" xlink:title="parameter/AreaConfiguration.cpp">
<polygon fill="white" stroke="black" points="-0.5,-58.5 -0.5,-79.5 176.5,-79.5 176.5,-58.5 -0.5,-58.5"/>
<text text-anchor="middle" x="88" y="-66.5" font-family="Verdana" font-size="10.00">parameter/AreaConfiguration.cpp</text>
</a>
</g>
<!-- Node2&#45;&gt;Node3 -->
<g id="edge4" class="edge"><title>Node2&#45;&gt;Node3</title>
<path fill="none" stroke="midnightblue" d="M428.074,-121.882C349.673,-109.691 230.009,-91.0827 155.526,-79.5005"/>
<polygon fill="midnightblue" stroke="midnightblue" points="427.957,-125.406 438.377,-123.484 429.033,-118.489 427.957,-125.406"/>
</g>
<!-- Node4 -->
<g id="node7" class="node"><title>Node4</title>
<a xlink:href="BitwiseAreaConfiguration_8h.html" target="_top" xlink:title="parameter/BitwiseAreaConfiguration.h">
<polygon fill="white" stroke="black" points="193.5,-58.5 193.5,-79.5 392.5,-79.5 392.5,-58.5 193.5,-58.5"/>
<text text-anchor="middle" x="293" y="-66.5" font-family="Verdana" font-size="10.00">parameter/BitwiseAreaConfiguration.h</text>
</a>
</g>
<!-- Node2&#45;&gt;Node4 -->
<g id="edge6" class="edge"><title>Node2&#45;&gt;Node4</title>
<path fill="none" stroke="midnightblue" d="M461.59,-120.448C421.782,-108.3 364.19,-90.7246 327.681,-79.5835"/>
<polygon fill="midnightblue" stroke="midnightblue" points="460.718,-123.841 471.304,-123.412 462.761,-117.146 460.718,-123.841"/>
</g>
<!-- Node2&#45;&gt;Node7 -->
<g id="edge12" class="edge"><title>Node2&#45;&gt;Node7</title>
<path fill="none" stroke="midnightblue" d="M550.073,-120.293C589.115,-108.151 645.299,-90.6774 680.97,-79.5835"/>
<polygon fill="midnightblue" stroke="midnightblue" points="548.554,-117.1 540.045,-123.412 550.633,-123.784 548.554,-117.1"/>
</g>
<!-- Node8 -->
<g id="node15" class="node"><title>Node8</title>
<a xlink:href="DomainConfiguration_8cpp.html" target="_top" xlink:title="parameter/DomainConfiguration.cpp">
<polygon fill="white" stroke="black" points="410,-58.5 410,-79.5 602,-79.5 602,-58.5 410,-58.5"/>
<text text-anchor="middle" x="506" y="-66.5" font-family="Verdana" font-size="10.00">parameter/DomainConfiguration.cpp</text>
</a>
</g>
<!-- Node2&#45;&gt;Node8 -->
<g id="edge14" class="edge"><title>Node2&#45;&gt;Node8</title>
<path fill="none" stroke="midnightblue" d="M506,-113.014C506,-101.831 506,-88.5583 506,-79.5337"/>
<polygon fill="midnightblue" stroke="midnightblue" points="502.5,-113.267 506,-123.267 509.5,-113.267 502.5,-113.267"/>
</g>
<!-- Node5 -->
<g id="node9" class="node"><title>Node5</title>
<a xlink:href="BitParameter_8cpp.html" target="_top" xlink:title="parameter/BitParameter.cpp">
<polygon fill="white" stroke="black" points="116.5,-0.5 116.5,-21.5 269.5,-21.5 269.5,-0.5 116.5,-0.5"/>
<text text-anchor="middle" x="193" y="-8.5" font-family="Verdana" font-size="10.00">parameter/BitParameter.cpp</text>
</a>
</g>
<!-- Node4&#45;&gt;Node5 -->
<g id="edge8" class="edge"><title>Node4&#45;&gt;Node5</title>
<path fill="none" stroke="midnightblue" d="M265.588,-53.1009C248.286,-43.0658 226.415,-30.3808 211.225,-21.5707"/>
<polygon fill="midnightblue" stroke="midnightblue" points="264.252,-56.3723 274.658,-58.3619 267.764,-50.3171 264.252,-56.3723"/>
</g>
<!-- Node6 -->
<g id="node11" class="node"><title>Node6</title>
<a xlink:href="BitwiseAreaConfiguration_8cpp.html" target="_top" xlink:title="parameter/BitwiseAreaConfiguration.cpp">
<polygon fill="white" stroke="black" points="287,-0.5 287,-21.5 497,-21.5 497,-0.5 287,-0.5"/>
<text text-anchor="middle" x="392" y="-8.5" font-family="Verdana" font-size="10.00">parameter/BitwiseAreaConfiguration.cpp</text>
</a>
</g>
<!-- Node4&#45;&gt;Node6 -->
<g id="edge10" class="edge"><title>Node4&#45;&gt;Node6</title>
<path fill="none" stroke="midnightblue" d="M320.138,-53.1009C337.267,-43.0658 358.919,-30.3808 373.957,-21.5707"/>
<polygon fill="midnightblue" stroke="midnightblue" points="318.017,-50.287 311.158,-58.3619 321.556,-56.3268 318.017,-50.287"/>
</g>
<!-- Node9&#45;&gt;Node7 -->
<g id="edge22" class="edge"><title>Node9&#45;&gt;Node7</title>
<path fill="none" stroke="midnightblue" d="M959.059,-121.356C902.21,-109.16 817.168,-90.9172 763.948,-79.5005"/>
<polygon fill="midnightblue" stroke="midnightblue" points="958.469,-124.809 968.981,-123.484 959.938,-117.965 958.469,-124.809"/>
</g>
<!-- Node10 -->
<g id="node19" class="node"><title>Node10</title>
<a xlink:href="ConfigurableDomain_8cpp.html" target="_top" xlink:title="parameter/ConfigurableDomain.cpp">
<polygon fill="white" stroke="black" points="828,-58.5 828,-79.5 1016,-79.5 1016,-58.5 828,-58.5"/>
<text text-anchor="middle" x="922" y="-66.5" font-family="Verdana" font-size="10.00">parameter/ConfigurableDomain.cpp</text>
</a>
</g>
<!-- Node9&#45;&gt;Node10 -->
<g id="edge18" class="edge"><title>Node9&#45;&gt;Node10</title>
<path fill="none" stroke="midnightblue" d="M993.523,-117.427C975.912,-105.503 952.691,-89.7803 937.557,-79.5337"/>
<polygon fill="midnightblue" stroke="midnightblue" points="991.905,-120.558 1002.15,-123.267 995.829,-114.762 991.905,-120.558"/>
</g>
<!-- Node11 -->
<g id="node21" class="node"><title>Node11</title>
<a xlink:href="ConfigurableDomains_8cpp.html" target="_top" xlink:title="parameter/ConfigurableDomains.cpp">
<polygon fill="white" stroke="black" points="1034,-58.5 1034,-79.5 1228,-79.5 1228,-58.5 1034,-58.5"/>
<text text-anchor="middle" x="1131" y="-66.5" font-family="Verdana" font-size="10.00">parameter/ConfigurableDomains.cpp</text>
</a>
</g>
<!-- Node9&#45;&gt;Node11 -->
<g id="edge20" class="edge"><title>Node9&#45;&gt;Node11</title>
<path fill="none" stroke="midnightblue" d="M1045.13,-118.393C1066.01,-106.383 1094.3,-90.1109 1112.6,-79.5835"/>
<polygon fill="midnightblue" stroke="midnightblue" points="1043.33,-115.392 1036.41,-123.412 1046.82,-121.46 1043.33,-115.392"/>
</g>
<!-- Node12 -->
<g id="node24" class="node"><title>Node12</title>
<a xlink:href="ParameterMgr_8cpp.html" target="_top" xlink:title="parameter/ParameterMgr.cpp">
<polygon fill="white" stroke="black" points="1246,-58.5 1246,-79.5 1404,-79.5 1404,-58.5 1246,-58.5"/>
<text text-anchor="middle" x="1325" y="-66.5" font-family="Verdana" font-size="10.00">parameter/ParameterMgr.cpp</text>
</a>
</g>
<!-- Node9&#45;&gt;Node12 -->
<g id="edge24" class="edge"><title>Node9&#45;&gt;Node12</title>
<path fill="none" stroke="midnightblue" d="M1077.72,-121.356C1135.32,-109.16 1221.48,-90.9172 1275.41,-79.5005"/>
<polygon fill="midnightblue" stroke="midnightblue" points="1076.72,-117.989 1067.67,-123.484 1078.17,-124.837 1076.72,-117.989"/>
</g>
<!-- Node13&#45;&gt;Node12 -->
<g id="edge32" class="edge"><title>Node13&#45;&gt;Node12</title>
<path fill="none" stroke="midnightblue" d="M1253.48,-117.427C1271.09,-105.503 1294.31,-89.7803 1309.44,-79.5337"/>
<polygon fill="midnightblue" stroke="midnightblue" points="1251.17,-114.762 1244.85,-123.267 1255.1,-120.558 1251.17,-114.762"/>
</g>
<!-- Node14 -->
<g id="node29" class="node"><title>Node14</title>
<a xlink:href="HardwareBackSynchronizer_8cpp.html" target="_top" xlink:title="parameter/HardwareBackSynchronizer.cpp">
<polygon fill="white" stroke="black" points="1421.5,-58.5 1421.5,-79.5 1642.5,-79.5 1642.5,-58.5 1421.5,-58.5"/>
<text text-anchor="middle" x="1532" y="-66.5" font-family="Verdana" font-size="10.00">parameter/HardwareBackSynchronizer.cpp</text>
</a>
</g>
<!-- Node13&#45;&gt;Node14 -->
<g id="edge30" class="edge"><title>Node13&#45;&gt;Node14</title>
<path fill="none" stroke="midnightblue" d="M1287.94,-121.356C1344.79,-109.16 1429.83,-90.9172 1483.05,-79.5005"/>
<polygon fill="midnightblue" stroke="midnightblue" points="1287.06,-117.965 1278.02,-123.484 1288.53,-124.809 1287.06,-117.965"/>
</g>
</g>
</svg>
