<?xml version="1.0" encoding="UTF-8" standalone="no"?>
<!DOCTYPE svg PUBLIC "-//W3C//DTD SVG 1.1//EN"
 "http://www.w3.org/Graphics/SVG/1.1/DTD/svg11.dtd">
<!-- Generated by graphviz version 2.26.3 (20100126.1600)
 -->
<!-- Title: parameter/Syncer.h Pages: 1 -->
<svg width="1105pt" height="246pt"
 viewBox="0.00 0.00 1105.00 246.00" xmlns="http://www.w3.org/2000/svg" xmlns:xlink="http://www.w3.org/1999/xlink">
<g id="graph1" class="graph" transform="scale(1 1) rotate(0) translate(4 242)">
<title>parameter/Syncer.h</title>
<polygon fill="white" stroke="white" points="-4,5 -4,-242 1102,-242 1102,5 -4,5"/>
<!-- Node1 -->
<g id="node1" class="node"><title>Node1</title>
<polygon fill="#bfbfbf" stroke="black" points="605,-216.5 605,-237.5 717,-237.5 717,-216.5 605,-216.5"/>
<text text-anchor="middle" x="661" y="-224.5" font-family="Verdana" font-size="10.00">parameter/Syncer.h</text>
</g>
<!-- Node2 -->
<g id="node3" class="node"><title>Node2</title>
<a xlink:href="SubsystemObject_8h.html" target="_top" xlink:title="parameter/SubsystemObject.h">
<polygon fill="white" stroke="black" points="308,-151.5 308,-172.5 472,-172.5 472,-151.5 308,-151.5"/>
<text text-anchor="middle" x="390" y="-159.5" font-family="Verdana" font-size="10.00">parameter/SubsystemObject.h</text>
</a>
</g>
<!-- Node1&#45;&gt;Node2 -->
<g id="edge2" class="edge"><title>Node1&#45;&gt;Node2</title>
<path fill="none" stroke="midnightblue" d="M607.333,-214.128C556.495,-201.934 481.082,-183.846 433.779,-172.501"/>
<polygon fill="midnightblue" stroke="midnightblue" points="606.617,-217.555 617.158,-216.484 608.25,-210.748 606.617,-217.555"/>
</g>
<!-- Node10 -->
<g id="node19" class="node"><title>Node10</title>
<a xlink:href="InstanceConfigurableElement_8cpp.html" target="_top" xlink:title="parameter/InstanceConfigurable\lElement.cpp">
<polygon fill="white" stroke="black" points="489.5,-145 489.5,-179 660.5,-179 660.5,-145 489.5,-145"/>
<text text-anchor="start" x="497.5" y="-166" font-family="Verdana" font-size="10.00">parameter/InstanceConfigurable</text>
<text text-anchor="middle" x="575" y="-153" font-family="Verdana" font-size="10.00">Element.cpp</text>
</a>
</g>
<!-- Node1&#45;&gt;Node10 -->
<g id="edge18" class="edge"><title>Node1&#45;&gt;Node10</title>
<path fill="none" stroke="midnightblue" d="M638.637,-210.098C626.021,-200.562 610.298,-188.679 597.638,-179.11"/>
<polygon fill="midnightblue" stroke="midnightblue" points="636.711,-213.029 646.799,-216.267 640.932,-207.445 636.711,-213.029"/>
</g>
<!-- Node11 -->
<g id="node21" class="node"><title>Node11</title>
<a xlink:href="SyncerSet_8cpp.html" target="_top" xlink:title="parameter/SyncerSet.cpp">
<polygon fill="white" stroke="black" points="678,-151.5 678,-172.5 818,-172.5 818,-151.5 678,-151.5"/>
<text text-anchor="middle" x="748" y="-159.5" font-family="Verdana" font-size="10.00">parameter/SyncerSet.cpp</text>
</a>
</g>
<!-- Node1&#45;&gt;Node11 -->
<g id="edge20" class="edge"><title>Node1&#45;&gt;Node11</title>
<path fill="none" stroke="midnightblue" d="M683.623,-210.098C699.527,-198.215 720.312,-182.686 733.901,-172.534"/>
<polygon fill="midnightblue" stroke="midnightblue" points="681.282,-207.477 675.366,-216.267 685.472,-213.085 681.282,-207.477"/>
</g>
<!-- Node12 -->
<g id="node23" class="node"><title>Node12</title>
<a xlink:href="VirtualSyncer_8h.html" target="_top" xlink:title="parameter/VirtualSyncer.h">
<polygon fill="white" stroke="black" points="835.5,-151.5 835.5,-172.5 978.5,-172.5 978.5,-151.5 835.5,-151.5"/>
<text text-anchor="middle" x="907" y="-159.5" font-family="Verdana" font-size="10.00">parameter/VirtualSyncer.h</text>
</a>
</g>
<!-- Node1&#45;&gt;Node12 -->
<g id="edge22" class="edge"><title>Node1&#45;&gt;Node12</title>
<path fill="none" stroke="midnightblue" d="M710.584,-213.899C756.719,-201.708 824.588,-183.775 867.26,-172.501"/>
<polygon fill="midnightblue" stroke="midnightblue" points="709.572,-210.546 700.798,-216.484 711.36,-217.314 709.572,-210.546"/>
</g>
<!-- Node3 -->
<g id="node5" class="node"><title>Node3</title>
<a xlink:href="FormattedSubsystemObject_8h.html" target="_top" xlink:title="parameter/FormattedSubsystem\lObject.h">
<polygon fill="white" stroke="black" points="39.5,-73 39.5,-107 214.5,-107 214.5,-73 39.5,-73"/>
<text text-anchor="start" x="47.5" y="-94" font-family="Verdana" font-size="10.00">parameter/FormattedSubsystem</text>
<text text-anchor="middle" x="127" y="-81" font-family="Verdana" font-size="10.00">Object.h</text>
</a>
</g>
<!-- Node2&#45;&gt;Node3 -->
<g id="edge4" class="edge"><title>Node2&#45;&gt;Node3</title>
<path fill="none" stroke="midnightblue" d="M341.572,-148.742C298.715,-137.009 235.923,-119.819 189.328,-107.063"/>
<polygon fill="midnightblue" stroke="midnightblue" points="340.907,-152.189 351.476,-151.453 342.755,-145.437 340.907,-152.189"/>
</g>
<!-- Node5 -->
<g id="node9" class="node"><title>Node5</title>
<a xlink:href="SubsystemObjectCreator_8h.html" target="_top" xlink:title="parameter/SubsystemObject\lCreator.h">
<polygon fill="white" stroke="black" points="312.5,-73 312.5,-107 467.5,-107 467.5,-73 312.5,-73"/>
<text text-anchor="start" x="320.5" y="-94" font-family="Verdana" font-size="10.00">parameter/SubsystemObject</text>
<text text-anchor="middle" x="390" y="-81" font-family="Verdana" font-size="10.00">Creator.h</text>
</a>
</g>
<!-- Node2&#45;&gt;Node5 -->
<g id="edge8" class="edge"><title>Node2&#45;&gt;Node5</title>
<path fill="none" stroke="midnightblue" d="M390,-141.132C390,-130.326 390,-117.296 390,-107.094"/>
<polygon fill="midnightblue" stroke="midnightblue" points="386.5,-141.376 390,-151.376 393.5,-141.376 386.5,-141.376"/>
</g>
<!-- Node9 -->
<g id="node17" class="node"><title>Node9</title>
<a xlink:href="SubsystemObject_8cpp.html" target="_top" xlink:title="parameter/SubsystemObject.cpp">
<polygon fill="white" stroke="black" points="485,-79.5 485,-100.5 661,-100.5 661,-79.5 485,-79.5"/>
<text text-anchor="middle" x="573" y="-87.5" font-family="Verdana" font-size="10.00">parameter/SubsystemObject.cpp</text>
</a>
</g>
<!-- Node2&#45;&gt;Node9 -->
<g id="edge16" class="edge"><title>Node2&#45;&gt;Node9</title>
<path fill="none" stroke="midnightblue" d="M426.474,-147.65C461.806,-133.749 514.551,-112.996 546.185,-100.55"/>
<polygon fill="midnightblue" stroke="midnightblue" points="425.026,-144.458 417.002,-151.376 427.589,-150.972 425.026,-144.458"/>
</g>
<!-- Node4 -->
<g id="node7" class="node"><title>Node4</title>
<a xlink:href="FormattedSubsystemObject_8cpp.html" target="_top" xlink:title="parameter/FormattedSubsystem\lObject.cpp">
<polygon fill="white" stroke="black" points="-0.5,-1 -0.5,-35 174.5,-35 174.5,-1 -0.5,-1"/>
<text text-anchor="start" x="7.5" y="-22" font-family="Verdana" font-size="10.00">parameter/FormattedSubsystem</text>
<text text-anchor="middle" x="87" y="-9" font-family="Verdana" font-size="10.00">Object.cpp</text>
</a>
</g>
<!-- Node3&#45;&gt;Node4 -->
<g id="edge6" class="edge"><title>Node3&#45;&gt;Node4</title>
<path fill="none" stroke="midnightblue" d="M112.504,-63.9077C107.245,-54.4402 101.434,-43.9813 96.6893,-35.4407"/>
<polygon fill="midnightblue" stroke="midnightblue" points="109.605,-65.8952 117.521,-72.937 115.724,-62.4957 109.605,-65.8952"/>
</g>
<!-- Node6 -->
<g id="node11" class="node"><title>Node6</title>
<a xlink:href="Subsystem_8cpp.html" target="_top" xlink:title="parameter/Subsystem.cpp">
<polygon fill="white" stroke="black" points="191.5,-7.5 191.5,-28.5 336.5,-28.5 336.5,-7.5 191.5,-7.5"/>
<text text-anchor="middle" x="264" y="-15.5" font-family="Verdana" font-size="10.00">parameter/Subsystem.cpp</text>
</a>
</g>
<!-- Node5&#45;&gt;Node6 -->
<g id="edge10" class="edge"><title>Node5&#45;&gt;Node6</title>
<path fill="none" stroke="midnightblue" d="M351.362,-67.9209C328.564,-54.8935 300.735,-38.9912 282.704,-28.688"/>
<polygon fill="midnightblue" stroke="midnightblue" points="349.721,-71.0144 360.14,-72.937 353.194,-64.9367 349.721,-71.0144"/>
</g>
<!-- Node7 -->
<g id="node13" class="node"><title>Node7</title>
<a xlink:href="SubsystemObjectCreator_8cpp.html" target="_top" xlink:title="parameter/SubsystemObject\lCreator.cpp">
<polygon fill="white" stroke="black" points="353.5,-1 353.5,-35 508.5,-35 508.5,-1 353.5,-1"/>
<text text-anchor="start" x="361.5" y="-22" font-family="Verdana" font-size="10.00">parameter/SubsystemObject</text>
<text text-anchor="middle" x="431" y="-9" font-family="Verdana" font-size="10.00">Creator.cpp</text>
</a>
</g>
<!-- Node5&#45;&gt;Node7 -->
<g id="edge12" class="edge"><title>Node5&#45;&gt;Node7</title>
<path fill="none" stroke="midnightblue" d="M404.69,-64.2033C410.125,-54.6583 416.154,-44.0703 421.069,-35.4407"/>
<polygon fill="midnightblue" stroke="midnightblue" points="401.623,-62.5152 399.716,-72.937 407.706,-65.9791 401.623,-62.5152"/>
</g>
<!-- Node8 -->
<g id="node15" class="node"><title>Node8</title>
<a xlink:href="SubsystemObjectFactory_8h.html" target="_top" xlink:title="parameter/SubsystemObject\lFactory.h">
<polygon fill="white" stroke="black" points="525.5,-1 525.5,-35 680.5,-35 680.5,-1 525.5,-1"/>
<text text-anchor="start" x="533.5" y="-22" font-family="Verdana" font-size="10.00">parameter/SubsystemObject</text>
<text text-anchor="middle" x="603" y="-9" font-family="Verdana" font-size="10.00">Factory.h</text>
</a>
</g>
<!-- Node5&#45;&gt;Node8 -->
<g id="edge14" class="edge"><title>Node5&#45;&gt;Node8</title>
<path fill="none" stroke="midnightblue" d="M450.254,-69.6326C482.536,-58.7201 521.855,-45.4292 552.516,-35.0651"/>
<polygon fill="midnightblue" stroke="midnightblue" points="448.831,-66.419 440.478,-72.937 451.072,-73.0504 448.831,-66.419"/>
</g>
<!-- Node13 -->
<g id="node25" class="node"><title>Node13</title>
<a xlink:href="VirtualSubsystem_8cpp.html" target="_top" xlink:title="parameter/VirtualSubsystem.cpp">
<polygon fill="white" stroke="black" points="749,-79.5 749,-100.5 925,-100.5 925,-79.5 749,-79.5"/>
<text text-anchor="middle" x="837" y="-87.5" font-family="Verdana" font-size="10.00">parameter/VirtualSubsystem.cpp</text>
</a>
</g>
<!-- Node12&#45;&gt;Node13 -->
<g id="edge24" class="edge"><title>Node12&#45;&gt;Node13</title>
<path fill="none" stroke="midnightblue" d="M889.469,-143.968C876.209,-130.329 858.452,-112.064 847.371,-100.667"/>
<polygon fill="midnightblue" stroke="midnightblue" points="887.191,-146.646 896.671,-151.376 892.21,-141.766 887.191,-146.646"/>
</g>
<!-- Node14 -->
<g id="node27" class="node"><title>Node14</title>
<a xlink:href="VirtualSyncer_8cpp.html" target="_top" xlink:title="parameter/VirtualSyncer.cpp">
<polygon fill="white" stroke="black" points="943,-79.5 943,-100.5 1097,-100.5 1097,-79.5 943,-79.5"/>
<text text-anchor="middle" x="1020" y="-87.5" font-family="Verdana" font-size="10.00">parameter/VirtualSyncer.cpp</text>
</a>
</g>
<!-- Node12&#45;&gt;Node14 -->
<g id="edge26" class="edge"><title>Node12&#45;&gt;Node14</title>
<path fill="none" stroke="midnightblue" d="M932.35,-145.848C954.003,-132.051 984.535,-112.597 1003.26,-100.667"/>
<polygon fill="midnightblue" stroke="midnightblue" points="930.226,-143.051 923.674,-151.376 933.988,-148.954 930.226,-143.051"/>
</g>
</g>
</svg>
