<?xml version="1.0" encoding="UTF-8" standalone="no"?>
<!DOCTYPE svg PUBLIC "-//W3C//DTD SVG 1.1//EN"
 "http://www.w3.org/Graphics/SVG/1.1/DTD/svg11.dtd">
<!-- Generated by graphviz version 2.26.3 (20100126.1600)
 -->
<!-- Title: parameter/SystemClass.cpp Pages: 1 -->
<svg width="1334pt" height="494pt"
 viewBox="0.00 0.00 1333.57 494.00" xmlns="http://www.w3.org/2000/svg" xmlns:xlink="http://www.w3.org/1999/xlink">
<g id="graph1" class="graph" transform="scale(1 1) rotate(0) translate(4 490)">
<title>parameter/SystemClass.cpp</title>
<polygon fill="white" stroke="white" points="-4,5 -4,-490 1330.57,-490 1330.57,5 -4,5"/>
<!-- Node1 -->
<g id="node1" class="node"><title>Node1</title>
<polygon fill="#bfbfbf" stroke="black" points="596.074,-464.5 596.074,-485.5 749.074,-485.5 749.074,-464.5 596.074,-464.5"/>
<text text-anchor="middle" x="672.574" y="-472.5" font-family="Verdana" font-size="10.00">parameter/SystemClass.cpp</text>
</g>
<!-- Node2 -->
<g id="node3" class="node"><title>Node2</title>
<polygon fill="white" stroke="#bfbfbf" points="308.574,-406.5 308.574,-427.5 356.574,-427.5 356.574,-406.5 308.574,-406.5"/>
<text text-anchor="middle" x="332.574" y="-414.5" font-family="Verdana" font-size="10.00">dlfcn.h</text>
</g>
<!-- Node1&#45;&gt;Node2 -->
<g id="edge2" class="edge"><title>Node1&#45;&gt;Node2</title>
<path fill="none" stroke="midnightblue" d="M595.86,-466.922C535.711,-459.747 449.855,-447.657 366.478,-427.911"/>
<polygon fill="midnightblue" stroke="midnightblue" points="367.129,-424.467 356.587,-425.529 365.49,-431.273 367.129,-424.467"/>
</g>
<!-- Node3 -->
<g id="node5" class="node"><title>Node3</title>
<polygon fill="white" stroke="#bfbfbf" points="374.074,-406.5 374.074,-427.5 427.074,-427.5 427.074,-406.5 374.074,-406.5"/>
<text text-anchor="middle" x="400.574" y="-414.5" font-family="Verdana" font-size="10.00">dirent.h</text>
</g>
<!-- Node1&#45;&gt;Node3 -->
<g id="edge4" class="edge"><title>Node1&#45;&gt;Node3</title>
<path fill="none" stroke="midnightblue" d="M609.783,-464.469C564.115,-456.37 500.66,-444.211 437.038,-428.205"/>
<polygon fill="midnightblue" stroke="midnightblue" points="437.796,-424.786 427.241,-425.71 436.068,-431.57 437.796,-424.786"/>
</g>
<!-- Node4 -->
<g id="node7" class="node"><title>Node4</title>
<polygon fill="white" stroke="#bfbfbf" points="444.574,-406.5 444.574,-427.5 506.574,-427.5 506.574,-406.5 444.574,-406.5"/>
<text text-anchor="middle" x="475.574" y="-414.5" font-family="Verdana" font-size="10.00">algorithm</text>
</g>
<!-- Node1&#45;&gt;Node4 -->
<g id="edge6" class="edge"><title>Node1&#45;&gt;Node4</title>
<path fill="none" stroke="midnightblue" d="M636.899,-464.497C603.092,-454.543 552.338,-439.601 516.811,-429.141"/>
<polygon fill="midnightblue" stroke="midnightblue" points="517.348,-425.65 506.766,-426.184 515.371,-432.365 517.348,-425.65"/>
</g>
<!-- Node5 -->
<g id="node9" class="node"><title>Node5</title>
<polygon fill="white" stroke="#bfbfbf" points="524.574,-406.5 524.574,-427.5 576.574,-427.5 576.574,-406.5 524.574,-406.5"/>
<text text-anchor="middle" x="550.574" y="-414.5" font-family="Verdana" font-size="10.00">ctype.h</text>
</g>
<!-- Node1&#45;&gt;Node5 -->
<g id="edge8" class="edge"><title>Node1&#45;&gt;Node5</title>
<path fill="none" stroke="midnightblue" d="M650.481,-464.497C631.34,-455.397 603.428,-442.127 581.969,-431.925"/>
<polygon fill="midnightblue" stroke="midnightblue" points="583.449,-428.754 572.915,-427.621 580.444,-435.076 583.449,-428.754"/>
</g>
<!-- Node6 -->
<g id="node11" class="node"><title>Node6</title>
<a xlink:href="SystemClass_8h.html" target="_top" xlink:title="SystemClass.h">
<polygon fill="white" stroke="black" points="179.574,-290.5 179.574,-311.5 267.574,-311.5 267.574,-290.5 179.574,-290.5"/>
<text text-anchor="middle" x="223.574" y="-298.5" font-family="Verdana" font-size="10.00">SystemClass.h</text>
</a>
</g>
<!-- Node1&#45;&gt;Node6 -->
<g id="edge10" class="edge"><title>Node1&#45;&gt;Node6</title>
<path fill="none" stroke="midnightblue" d="M662.019,-464.323C646.556,-449.254 616.239,-421.825 585.574,-406 483.244,-353.191 350.547,-323.37 277.583,-309.886"/>
<polygon fill="midnightblue" stroke="midnightblue" points="278.158,-306.433 267.694,-308.091 276.908,-313.32 278.158,-306.433"/>
</g>
<!-- Node18 -->
<g id="node44" class="node"><title>Node18</title>
<a xlink:href="SubsystemLibrary_8h.html" target="_top" xlink:title="SubsystemLibrary.h">
<polygon fill="white" stroke="black" points="813.574,-406.5 813.574,-427.5 923.574,-427.5 923.574,-406.5 813.574,-406.5"/>
<text text-anchor="middle" x="868.574" y="-414.5" font-family="Verdana" font-size="10.00">SubsystemLibrary.h</text>
</a>
</g>
<!-- Node1&#45;&gt;Node18 -->
<g id="edge52" class="edge"><title>Node1&#45;&gt;Node18</title>
<path fill="none" stroke="midnightblue" d="M708.068,-464.497C740.298,-454.959 788.008,-440.841 823.038,-430.475"/>
<polygon fill="midnightblue" stroke="midnightblue" points="824.417,-433.717 833.013,-427.523 822.431,-427.005 824.417,-433.717"/>
</g>
<!-- Node23 -->
<g id="node59" class="node"><title>Node23</title>
<a xlink:href="VirtualSubsystem_8h.html" target="_top" xlink:title="VirtualSubsystem.h">
<polygon fill="white" stroke="black" points="670.574,-348.5 670.574,-369.5 780.574,-369.5 780.574,-348.5 670.574,-348.5"/>
<text text-anchor="middle" x="725.574" y="-356.5" font-family="Verdana" font-size="10.00">VirtualSubsystem.h</text>
</a>
</g>
<!-- Node1&#45;&gt;Node23 -->
<g id="edge116" class="edge"><title>Node1&#45;&gt;Node23</title>
<path fill="none" stroke="midnightblue" d="M677.465,-464.295C686.339,-444.872 705.216,-403.556 716.506,-378.846"/>
<polygon fill="midnightblue" stroke="midnightblue" points="719.722,-380.229 720.695,-369.679 713.355,-377.32 719.722,-380.229"/>
</g>
<!-- Node29 -->
<g id="node81" class="node"><title>Node29</title>
<a xlink:href="NamedElementBuilderTemplate_8h.html" target="_top" xlink:title="NamedElementBuilderTemplate.h">
<polygon fill="white" stroke="black" points="931.074,-348.5 931.074,-369.5 1108.07,-369.5 1108.07,-348.5 931.074,-348.5"/>
<text text-anchor="middle" x="1019.57" y="-356.5" font-family="Verdana" font-size="10.00">NamedElementBuilderTemplate.h</text>
</a>
</g>
<!-- Node1&#45;&gt;Node29 -->
<g id="edge118" class="edge"><title>Node1&#45;&gt;Node29</title>
<path fill="none" stroke="midnightblue" d="M749.128,-465.362C813.692,-456.468 900.548,-442.482 932.574,-428 959.896,-415.645 986.135,-392.83 1002.52,-376.828"/>
<polygon fill="midnightblue" stroke="midnightblue" points="1005.15,-379.147 1009.73,-369.595 1000.19,-374.204 1005.15,-379.147"/>
</g>
<!-- Node30 -->
<g id="node85" class="node"><title>Node30</title>
<a xlink:href="AutoLog_8h.html" target="_top" xlink:title="AutoLog.h">
<polygon fill="white" stroke="black" points="733.074,-174.5 733.074,-195.5 798.074,-195.5 798.074,-174.5 733.074,-174.5"/>
<text text-anchor="middle" x="765.574" y="-182.5" font-family="Verdana" font-size="10.00">AutoLog.h</text>
</a>
</g>
<!-- Node1&#45;&gt;Node30 -->
<g id="edge110" class="edge"><title>Node1&#45;&gt;Node30</title>
<path fill="none" stroke="midnightblue" d="M692.558,-464.325C720.396,-448.173 769.667,-414.614 789.574,-370 814.451,-314.249 789.68,-240.297 774.888,-205.175"/>
<polygon fill="midnightblue" stroke="midnightblue" points="777.905,-203.338 770.684,-195.584 771.494,-206.148 777.905,-203.338"/>
</g>
<!-- Node31 -->
<g id="node91" class="node"><title>Node31</title>
<polygon fill="white" stroke="#bfbfbf" points="979.574,-406.5 979.574,-427.5 1035.57,-427.5 1035.57,-406.5 979.574,-406.5"/>
<text text-anchor="middle" x="1007.57" y="-414.5" font-family="Verdana" font-size="10.00">assert.h</text>
</g>
<!-- Node1&#45;&gt;Node31 -->
<g id="edge120" class="edge"><title>Node1&#45;&gt;Node31</title>
<path fill="none" stroke="midnightblue" d="M749.139,-464.795C808.476,-456.386 892.602,-443.371 965.574,-428 966.819,-427.738 968.082,-427.462 969.355,-427.177"/>
<polygon fill="midnightblue" stroke="midnightblue" points="970.28,-430.554 979.196,-424.831 968.657,-423.745 970.28,-430.554"/>
</g>
<!-- Node32 -->
<g id="node93" class="node"><title>Node32</title>
<a xlink:href="PluginLocation_8h.html" target="_top" xlink:title="PluginLocation.h">
<polygon fill="white" stroke="black" points="251.074,-232.5 251.074,-253.5 346.074,-253.5 346.074,-232.5 251.074,-232.5"/>
<text text-anchor="middle" x="298.574" y="-240.5" font-family="Verdana" font-size="10.00">PluginLocation.h</text>
</a>
</g>
<!-- Node1&#45;&gt;Node32 -->
<g id="edge122" class="edge"><title>Node1&#45;&gt;Node32</title>
<path fill="none" stroke="midnightblue" d="M665.595,-464.02C655.831,-449.329 636.879,-423.145 615.574,-406 526.566,-334.368 401.066,-281.279 338.003,-257.243"/>
<polygon fill="midnightblue" stroke="midnightblue" points="339.025,-253.887 328.433,-253.636 336.557,-260.438 339.025,-253.887"/>
</g>
<!-- Node33 -->
<g id="node98" class="node"><title>Node33</title>
<polygon fill="white" stroke="#bfbfbf" points="1053.07,-406.5 1053.07,-427.5 1104.07,-427.5 1104.07,-406.5 1053.07,-406.5"/>
<text text-anchor="middle" x="1078.57" y="-414.5" font-family="Verdana" font-size="10.00">Utility.h</text>
</g>
<!-- Node1&#45;&gt;Node33 -->
<g id="edge130" class="edge"><title>Node1&#45;&gt;Node33</title>
<path fill="none" stroke="midnightblue" d="M749.17,-469.538C822.596,-463.347 936.553,-451.242 1042.8,-428.114"/>
<polygon fill="midnightblue" stroke="midnightblue" points="1043.72,-431.495 1052.72,-425.915 1042.2,-424.66 1043.72,-431.495"/>
</g>
<!-- Node7 -->
<g id="node13" class="node"><title>Node7</title>
<a xlink:href="ConfigurableElement_8h.html" target="_top" xlink:title="ConfigurableElement.h">
<polygon fill="white" stroke="black" points="515.074,-174.5 515.074,-195.5 640.074,-195.5 640.074,-174.5 515.074,-174.5"/>
<text text-anchor="middle" x="577.574" y="-182.5" font-family="Verdana" font-size="10.00">ConfigurableElement.h</text>
</a>
</g>
<!-- Node6&#45;&gt;Node7 -->
<g id="edge12" class="edge"><title>Node6&#45;&gt;Node7</title>
<path fill="none" stroke="midnightblue" d="M255.928,-290.398C320.318,-269.299 464.446,-222.07 535.847,-198.673"/>
<polygon fill="midnightblue" stroke="midnightblue" points="537.011,-201.975 545.424,-195.535 534.831,-195.323 537.011,-201.975"/>
</g>
<!-- Node9 -->
<g id="node17" class="node"><title>Node9</title>
<polygon fill="white" stroke="#bfbfbf" points="561.574,-0.5 561.574,-21.5 605.574,-21.5 605.574,-0.5 561.574,-0.5"/>
<text text-anchor="middle" x="583.574" y="-8.5" font-family="Verdana" font-size="10.00">string</text>
</g>
<!-- Node6&#45;&gt;Node9 -->
<g id="edge50" class="edge"><title>Node6&#45;&gt;Node9</title>
<path fill="none" stroke="midnightblue" d="M179.48,-291.977C141.04,-283.263 89.209,-269.185 74.574,-254 52.5005,-231.098 55.574,-216.808 55.574,-185 55.574,-185 55.574,-185 55.574,-127 55.574,-94.5312 54.0142,-78.023 79.574,-58 116.694,-28.9211 445.836,-15.5648 551.249,-12.0074"/>
<polygon fill="midnightblue" stroke="midnightblue" points="551.418,-15.5038 561.297,-11.6753 551.187,-8.5076 551.418,-15.5038"/>
</g>
<!-- Node12 -->
<g id="node23" class="node"><title>Node12</title>
<polygon fill="white" stroke="#bfbfbf" points="372.574,-58.5 372.574,-79.5 402.574,-79.5 402.574,-58.5 372.574,-58.5"/>
<text text-anchor="middle" x="387.574" y="-66.5" font-family="Verdana" font-size="10.00">list</text>
</g>
<!-- Node6&#45;&gt;Node12 -->
<g id="edge48" class="edge"><title>Node6&#45;&gt;Node12</title>
<path fill="none" stroke="midnightblue" d="M224.322,-290.256C225.789,-275.834 230.087,-249.952 242.574,-232 258.21,-209.52 273.101,-215.252 292.574,-196 323.991,-164.94 325.03,-151.316 351.574,-116 358.541,-106.731 366.358,-96.5042 372.924,-87.9637"/>
<polygon fill="midnightblue" stroke="midnightblue" points="375.895,-89.8426 379.225,-79.7847 370.349,-85.5707 375.895,-89.8426"/>
</g>
<!-- Node16 -->
<g id="node35" class="node"><title>Node16</title>
<a xlink:href="SubsystemPlugins_8h.html" target="_top" xlink:title="SubsystemPlugins.h">
<polygon fill="white" stroke="black" points="83.074,-232.5 83.074,-253.5 196.074,-253.5 196.074,-232.5 83.074,-232.5"/>
<text text-anchor="middle" x="139.574" y="-240.5" font-family="Verdana" font-size="10.00">SubsystemPlugins.h</text>
</a>
</g>
<!-- Node6&#45;&gt;Node16 -->
<g id="edge38" class="edge"><title>Node6&#45;&gt;Node16</title>
<path fill="none" stroke="midnightblue" d="M208.167,-290.362C195.616,-281.696 177.682,-269.313 163.299,-259.382"/>
<polygon fill="midnightblue" stroke="midnightblue" points="165.101,-256.372 154.883,-253.571 161.123,-262.133 165.101,-256.372"/>
</g>
<!-- Node8 -->
<g id="node15" class="node"><title>Node8</title>
<a xlink:href="Element_8h.html" target="_top" xlink:title="Element.h">
<polygon fill="white" stroke="black" points="845.074,-116.5 845.074,-137.5 910.074,-137.5 910.074,-116.5 845.074,-116.5"/>
<text text-anchor="middle" x="877.574" y="-124.5" font-family="Verdana" font-size="10.00">Element.h</text>
</a>
</g>
<!-- Node7&#45;&gt;Node8 -->
<g id="edge14" class="edge"><title>Node7&#45;&gt;Node8</title>
<path fill="none" stroke="midnightblue" d="M631.902,-174.497C690.155,-163.234 781.449,-145.584 834.807,-135.268"/>
<polygon fill="midnightblue" stroke="midnightblue" points="835.798,-138.642 844.951,-133.307 834.469,-131.769 835.798,-138.642"/>
</g>
<!-- Node7&#45;&gt;Node12 -->
<g id="edge36" class="edge"><title>Node7&#45;&gt;Node12</title>
<path fill="none" stroke="midnightblue" d="M560.04,-174.295C525.765,-153.369 449.864,-107.03 411.202,-83.4253"/>
<polygon fill="midnightblue" stroke="midnightblue" points="413.021,-80.4351 402.662,-78.2114 409.373,-86.4096 413.021,-80.4351"/>
</g>
<!-- Node8&#45;&gt;Node9 -->
<g id="edge16" class="edge"><title>Node8&#45;&gt;Node9</title>
<path fill="none" stroke="midnightblue" d="M864.062,-116.317C844.368,-101.241 806.132,-73.8031 769.574,-58 718.015,-35.7124 653.668,-22.3927 615.756,-15.8976"/>
<polygon fill="midnightblue" stroke="midnightblue" points="616.235,-12.4293 605.797,-14.2449 615.089,-19.3348 616.235,-12.4293"/>
</g>
<!-- Node10 -->
<g id="node19" class="node"><title>Node10</title>
<polygon fill="white" stroke="#bfbfbf" points="1058.07,-0.5 1058.07,-21.5 1105.07,-21.5 1105.07,-0.5 1058.07,-0.5"/>
<text text-anchor="middle" x="1081.57" y="-8.5" font-family="Verdana" font-size="10.00">vector</text>
</g>
<!-- Node8&#45;&gt;Node10 -->
<g id="edge18" class="edge"><title>Node8&#45;&gt;Node10</title>
<path fill="none" stroke="midnightblue" d="M907.7,-116.473C930.563,-107.96 962.414,-94.9586 988.574,-80 1015.12,-64.8202 1042.95,-43.3192 1061.17,-28.368"/>
<polygon fill="midnightblue" stroke="midnightblue" points="1063.85,-30.6966 1069.3,-21.6108 1059.37,-25.3149 1063.85,-30.6966"/>
</g>
<!-- Node11 -->
<g id="node21" class="node"><title>Node11</title>
<polygon fill="white" stroke="#bfbfbf" points="1167.07,-0.5 1167.07,-21.5 1220.07,-21.5 1220.07,-0.5 1167.07,-0.5"/>
<text text-anchor="middle" x="1193.57" y="-8.5" font-family="Verdana" font-size="10.00">stdint.h</text>
</g>
<!-- Node8&#45;&gt;Node11 -->
<g id="edge20" class="edge"><title>Node8&#45;&gt;Node11</title>
<path fill="none" stroke="midnightblue" d="M910.47,-123.863C971.299,-117.605 1098.62,-102.234 1136.57,-80 1156.67,-68.2275 1172.77,-46.5861 1182.67,-30.6684"/>
<polygon fill="midnightblue" stroke="midnightblue" points="1185.93,-32.0256 1188.01,-21.6364 1179.91,-28.4627 1185.93,-32.0256"/>
</g>
<!-- Node8&#45;&gt;Node12 -->
<g id="edge22" class="edge"><title>Node8&#45;&gt;Node12</title>
<path fill="none" stroke="midnightblue" d="M845.044,-123.15C753.493,-112.313 494.972,-81.7125 412.907,-71.9986"/>
<polygon fill="midnightblue" stroke="midnightblue" points="413.084,-68.4952 402.742,-70.7954 412.261,-75.4467 413.084,-68.4952"/>
</g>
<!-- Node13 -->
<g id="node25" class="node"><title>Node13</title>
<polygon fill="white" stroke="#bfbfbf" points="821.574,-58.5 821.574,-79.5 885.574,-79.5 885.574,-58.5 821.574,-58.5"/>
<text text-anchor="middle" x="853.574" y="-66.5" font-family="Verdana" font-size="10.00">XmlSink.h</text>
</g>
<!-- Node8&#45;&gt;Node13 -->
<g id="edge24" class="edge"><title>Node8&#45;&gt;Node13</title>
<path fill="none" stroke="midnightblue" d="M873.172,-116.362C869.992,-108.677 865.602,-98.0686 861.784,-88.8399"/>
<polygon fill="midnightblue" stroke="midnightblue" points="865.006,-87.4726 857.948,-79.5707 858.538,-90.1491 865.006,-87.4726"/>
</g>
<!-- Node14 -->
<g id="node27" class="node"><title>Node14</title>
<polygon fill="white" stroke="#bfbfbf" points="903.074,-58.5 903.074,-79.5 980.074,-79.5 980.074,-58.5 903.074,-58.5"/>
<text text-anchor="middle" x="941.574" y="-66.5" font-family="Verdana" font-size="10.00">XmlSource.h</text>
</g>
<!-- Node8&#45;&gt;Node14 -->
<g id="edge26" class="edge"><title>Node8&#45;&gt;Node14</title>
<path fill="none" stroke="midnightblue" d="M889.313,-116.362C898.515,-108.023 911.514,-96.2418 922.246,-86.5162"/>
<polygon fill="midnightblue" stroke="midnightblue" points="924.85,-88.8793 929.91,-79.5707 920.15,-83.6924 924.85,-88.8793"/>
</g>
<!-- Node15 -->
<g id="node29" class="node"><title>Node15</title>
<a xlink:href="PathNavigator_8h.html" target="_top" xlink:title="PathNavigator.h">
<polygon fill="white" stroke="black" points="1035.57,-58.5 1035.57,-79.5 1127.57,-79.5 1127.57,-58.5 1035.57,-58.5"/>
<text text-anchor="middle" x="1081.57" y="-66.5" font-family="Verdana" font-size="10.00">PathNavigator.h</text>
</a>
</g>
<!-- Node8&#45;&gt;Node15 -->
<g id="edge28" class="edge"><title>Node8&#45;&gt;Node15</title>
<path fill="none" stroke="midnightblue" d="M910.35,-117.681C943.952,-108.128 996.531,-93.179 1034.56,-82.3662"/>
<polygon fill="midnightblue" stroke="midnightblue" points="1035.72,-85.6747 1044.39,-79.5733 1033.81,-78.9415 1035.72,-85.6747"/>
</g>
<!-- Node15&#45;&gt;Node9 -->
<g id="edge32" class="edge"><title>Node15&#45;&gt;Node9</title>
<path fill="none" stroke="midnightblue" d="M1035.22,-63.4967C1020.32,-61.7339 1003.75,-59.7784 988.574,-58 850.102,-41.776 684.965,-22.6952 616.164,-14.7574"/>
<polygon fill="midnightblue" stroke="midnightblue" points="616.303,-11.2503 605.967,-13.5812 615.5,-18.2042 616.303,-11.2503"/>
</g>
<!-- Node15&#45;&gt;Node10 -->
<g id="edge30" class="edge"><title>Node15&#45;&gt;Node10</title>
<path fill="none" stroke="midnightblue" d="M1081.57,-58.3619C1081.57,-50.9219 1081.57,-40.7427 1081.57,-31.7276"/>
<polygon fill="midnightblue" stroke="midnightblue" points="1085.07,-31.5706 1081.57,-21.5707 1078.07,-31.5707 1085.07,-31.5706"/>
</g>
<!-- Node15&#45;&gt;Node11 -->
<g id="edge34" class="edge"><title>Node15&#45;&gt;Node11</title>
<path fill="none" stroke="midnightblue" d="M1101.86,-58.4966C1119.19,-49.5194 1144.36,-36.4835 1163.95,-26.3387"/>
<polygon fill="midnightblue" stroke="midnightblue" points="1165.79,-29.3278 1173.06,-21.6212 1162.57,-23.1118 1165.79,-29.3278"/>
</g>
<!-- Node16&#45;&gt;Node9 -->
<g id="edge46" class="edge"><title>Node16&#45;&gt;Node9</title>
<path fill="none" stroke="midnightblue" d="M143.384,-232.243C151.913,-209.175 174.282,-153.966 205.574,-116 231.93,-84.0234 240.606,-74.5991 278.574,-58 327.152,-36.7627 482.91,-20.2716 551.094,-13.8811"/>
<polygon fill="midnightblue" stroke="midnightblue" points="551.619,-17.3476 561.255,-12.943 550.976,-10.3772 551.619,-17.3476"/>
</g>
<!-- Node17 -->
<g id="node37" class="node"><title>Node17</title>
<a xlink:href="KindElement_8h.html" target="_top" xlink:title="KindElement.h">
<polygon fill="white" stroke="black" points="197.574,-174.5 197.574,-195.5 283.574,-195.5 283.574,-174.5 197.574,-174.5"/>
<text text-anchor="middle" x="240.574" y="-182.5" font-family="Verdana" font-size="10.00">KindElement.h</text>
</a>
</g>
<!-- Node16&#45;&gt;Node17 -->
<g id="edge40" class="edge"><title>Node16&#45;&gt;Node17</title>
<path fill="none" stroke="midnightblue" d="M158.099,-232.362C173.475,-223.532 195.57,-210.844 213.021,-200.822"/>
<polygon fill="midnightblue" stroke="midnightblue" points="215.238,-203.586 222.166,-195.571 211.752,-197.515 215.238,-203.586"/>
</g>
<!-- Node17&#45;&gt;Node8 -->
<g id="edge42" class="edge"><title>Node17&#45;&gt;Node8</title>
<path fill="none" stroke="midnightblue" d="M283.857,-181.059C400.214,-170.464 718.762,-141.46 834.674,-130.906"/>
<polygon fill="midnightblue" stroke="midnightblue" points="835.284,-134.365 844.925,-129.973 834.649,-127.394 835.284,-134.365"/>
</g>
<!-- Node17&#45;&gt;Node9 -->
<g id="edge44" class="edge"><title>Node17&#45;&gt;Node9</title>
<path fill="none" stroke="midnightblue" d="M247.289,-174.148C263.62,-148.819 308.175,-85.8434 363.574,-58 425.311,-26.9713 506.785,-16.3825 551.233,-12.8014"/>
<polygon fill="midnightblue" stroke="midnightblue" points="551.725,-16.2748 561.441,-12.0509 551.211,-9.29362 551.725,-16.2748"/>
</g>
<!-- Node18&#45;&gt;Node9 -->
<g id="edge108" class="edge"><title>Node18&#45;&gt;Node9</title>
<path fill="none" stroke="midnightblue" d="M864.028,-406.237C851.191,-376.565 812.468,-291.829 764.574,-232 749.627,-213.328 740.783,-213.588 724.574,-196 672.542,-139.541 620.025,-64.9034 596.442,-30.2299"/>
<polygon fill="midnightblue" stroke="midnightblue" points="599.081,-27.8842 590.583,-21.5582 593.282,-31.8035 599.081,-27.8842"/>
</g>
<!-- Node19 -->
<g id="node46" class="node"><title>Node19</title>
<a xlink:href="DefaultElementLibrary_8h.html" target="_top" xlink:title="DefaultElementLibrary.h">
<polygon fill="white" stroke="black" points="893.074,-232.5 893.074,-253.5 1024.07,-253.5 1024.07,-232.5 893.074,-232.5"/>
<text text-anchor="middle" x="958.574" y="-240.5" font-family="Verdana" font-size="10.00">DefaultElementLibrary.h</text>
</a>
</g>
<!-- Node18&#45;&gt;Node19 -->
<g id="edge54" class="edge"><title>Node18&#45;&gt;Node19</title>
<path fill="none" stroke="midnightblue" d="M874.068,-406.377C888.72,-378.051 928.911,-300.349 948.104,-263.242"/>
<polygon fill="midnightblue" stroke="midnightblue" points="951.436,-264.418 952.922,-253.928 945.219,-261.202 951.436,-264.418"/>
</g>
<!-- Node18&#45;&gt;Node23 -->
<g id="edge72" class="edge"><title>Node18&#45;&gt;Node23</title>
<path fill="none" stroke="midnightblue" d="M842.678,-406.497C819.941,-397.275 786.644,-383.769 761.362,-373.515"/>
<polygon fill="midnightblue" stroke="midnightblue" points="762.343,-370.136 751.761,-369.621 759.712,-376.623 762.343,-370.136"/>
</g>
<!-- Node18&#45;&gt;Node29 -->
<g id="edge104" class="edge"><title>Node18&#45;&gt;Node29</title>
<path fill="none" stroke="midnightblue" d="M895.919,-406.497C920.216,-397.164 955.934,-383.445 982.742,-373.147"/>
<polygon fill="midnightblue" stroke="midnightblue" points="984.098,-376.376 992.178,-369.523 981.588,-369.842 984.098,-376.376"/>
</g>
<!-- Node19&#45;&gt;Node9 -->
<g id="edge70" class="edge"><title>Node19&#45;&gt;Node9</title>
<path fill="none" stroke="midnightblue" d="M925.893,-232.476C902.406,-224.22 870.451,-211.54 844.574,-196 762.031,-146.429 758.264,-110.534 677.574,-58 657.652,-45.0295 633.66,-33.0875 614.902,-24.4866"/>
<polygon fill="midnightblue" stroke="midnightblue" points="616.173,-21.2209 605.618,-20.3058 613.299,-27.6035 616.173,-21.2209"/>
</g>
<!-- Node20 -->
<g id="node48" class="node"><title>Node20</title>
<a xlink:href="ElementLibrary_8h.html" target="_top" xlink:title="ElementLibrary.h">
<polygon fill="white" stroke="black" points="853.574,-174.5 853.574,-195.5 949.574,-195.5 949.574,-174.5 853.574,-174.5"/>
<text text-anchor="middle" x="901.574" y="-182.5" font-family="Verdana" font-size="10.00">ElementLibrary.h</text>
</a>
</g>
<!-- Node19&#45;&gt;Node20 -->
<g id="edge56" class="edge"><title>Node19&#45;&gt;Node20</title>
<path fill="none" stroke="midnightblue" d="M948.119,-232.362C940.004,-224.104 928.573,-212.472 919.07,-202.803"/>
<polygon fill="midnightblue" stroke="midnightblue" points="921.468,-200.25 911.962,-195.571 916.475,-205.156 921.468,-200.25"/>
</g>
<!-- Node21 -->
<g id="node50" class="node"><title>Node21</title>
<polygon fill="white" stroke="#bfbfbf" points="1000.57,-116.5 1000.57,-137.5 1038.57,-137.5 1038.57,-116.5 1000.57,-116.5"/>
<text text-anchor="middle" x="1019.57" y="-124.5" font-family="Verdana" font-size="10.00">map</text>
</g>
<!-- Node19&#45;&gt;Node21 -->
<g id="edge68" class="edge"><title>Node19&#45;&gt;Node21</title>
<path fill="none" stroke="midnightblue" d="M1020.25,-232.493C1041.05,-225.685 1062.13,-214.471 1074.57,-196 1087.32,-177.076 1066.62,-156.813 1047.07,-143.177"/>
<polygon fill="midnightblue" stroke="midnightblue" points="1048.86,-140.163 1038.58,-137.584 1045,-146.008 1048.86,-140.163"/>
</g>
<!-- Node22 -->
<g id="node54" class="node"><title>Node22</title>
<a xlink:href="ElementBuilder_8h.html" target="_top" xlink:title="ElementBuilder.h">
<polygon fill="white" stroke="black" points="967.574,-174.5 967.574,-195.5 1065.57,-195.5 1065.57,-174.5 967.574,-174.5"/>
<text text-anchor="middle" x="1016.57" y="-182.5" font-family="Verdana" font-size="10.00">ElementBuilder.h</text>
</a>
</g>
<!-- Node19&#45;&gt;Node22 -->
<g id="edge64" class="edge"><title>Node19&#45;&gt;Node22</title>
<path fill="none" stroke="midnightblue" d="M969.212,-232.362C977.47,-224.104 989.101,-212.472 998.771,-202.803"/>
<polygon fill="midnightblue" stroke="midnightblue" points="1001.41,-205.117 1006,-195.571 996.457,-200.167 1001.41,-205.117"/>
</g>
<!-- Node20&#45;&gt;Node8 -->
<g id="edge62" class="edge"><title>Node20&#45;&gt;Node8</title>
<path fill="none" stroke="midnightblue" d="M897.172,-174.362C893.992,-166.677 889.602,-156.069 885.784,-146.84"/>
<polygon fill="midnightblue" stroke="midnightblue" points="889.006,-145.473 881.948,-137.571 882.538,-148.149 889.006,-145.473"/>
</g>
<!-- Node20&#45;&gt;Node9 -->
<g id="edge60" class="edge"><title>Node20&#45;&gt;Node9</title>
<path fill="none" stroke="midnightblue" d="M886.783,-174.465C873.558,-165.007 853.682,-150.699 836.574,-138 789.466,-103.031 783.632,-85.0547 731.574,-58 693.856,-38.3977 646.455,-25.1125 615.608,-17.799"/>
<polygon fill="midnightblue" stroke="midnightblue" points="616.35,-14.3782 605.82,-15.5472 614.781,-21.2001 616.35,-14.3782"/>
</g>
<!-- Node20&#45;&gt;Node21 -->
<g id="edge58" class="edge"><title>Node20&#45;&gt;Node21</title>
<path fill="none" stroke="midnightblue" d="M922.943,-174.497C942.064,-165.098 970.236,-151.251 991.233,-140.93"/>
<polygon fill="midnightblue" stroke="midnightblue" points="992.887,-144.017 1000.32,-136.465 989.799,-137.735 992.887,-144.017"/>
</g>
<!-- Node22&#45;&gt;Node8 -->
<g id="edge66" class="edge"><title>Node22&#45;&gt;Node8</title>
<path fill="none" stroke="midnightblue" d="M991.402,-174.497C969.301,-165.275 936.935,-151.769 912.361,-141.515"/>
<polygon fill="midnightblue" stroke="midnightblue" points="913.605,-138.242 903.028,-137.621 910.909,-144.702 913.605,-138.242"/>
</g>
<!-- Node23&#45;&gt;Node9 -->
<g id="edge102" class="edge"><title>Node23&#45;&gt;Node9</title>
<path fill="none" stroke="midnightblue" d="M670.268,-357.51C548.839,-353.723 262.431,-341.828 170.574,-312 123.162,-296.604 99.0682,-297.416 74.574,-254 20.6379,-158.398 -123.614,-244.54 236.574,-58 291.114,-29.754 475.739,-16.8163 551.117,-12.6184"/>
<polygon fill="midnightblue" stroke="midnightblue" points="551.62,-16.0964 561.417,-12.0617 551.242,-9.10657 551.62,-16.0964"/>
</g>
<!-- Node24 -->
<g id="node61" class="node"><title>Node24</title>
<a xlink:href="Subsystem_8h.html" target="_top" xlink:title="Subsystem.h">
<polygon fill="white" stroke="black" points="685.574,-290.5 685.574,-311.5 765.574,-311.5 765.574,-290.5 685.574,-290.5"/>
<text text-anchor="middle" x="725.574" y="-298.5" font-family="Verdana" font-size="10.00">Subsystem.h</text>
</a>
</g>
<!-- Node23&#45;&gt;Node24 -->
<g id="edge74" class="edge"><title>Node23&#45;&gt;Node24</title>
<path fill="none" stroke="midnightblue" d="M725.574,-348.362C725.574,-340.922 725.574,-330.743 725.574,-321.728"/>
<polygon fill="midnightblue" stroke="midnightblue" points="729.074,-321.571 725.574,-311.571 722.074,-321.571 729.074,-321.571"/>
</g>
<!-- Node24&#45;&gt;Node7 -->
<g id="edge76" class="edge"><title>Node24&#45;&gt;Node7</title>
<path fill="none" stroke="midnightblue" d="M730.683,-290.481C736.97,-275.848 745.342,-249.214 732.574,-232 721.894,-217.601 683.398,-205.885 647.446,-197.752"/>
<polygon fill="midnightblue" stroke="midnightblue" points="647.915,-194.272 637.398,-195.554 646.419,-201.111 647.915,-194.272"/>
</g>
<!-- Node24&#45;&gt;Node9 -->
<g id="edge98" class="edge"><title>Node24&#45;&gt;Node9</title>
<path fill="none" stroke="midnightblue" d="M685.414,-298.77C621.255,-294.391 499.682,-282.49 468.574,-254 445.117,-232.517 449.574,-216.808 449.574,-185 449.574,-185 449.574,-185 449.574,-127 449.574,-73.1047 512.304,-38.6565 551.924,-22.2741"/>
<polygon fill="midnightblue" stroke="midnightblue" points="553.441,-25.4376 561.447,-18.4975 550.861,-18.9306 553.441,-25.4376"/>
</g>
<!-- Node24&#45;&gt;Node10 -->
<g id="edge100" class="edge"><title>Node24&#45;&gt;Node10</title>
<path fill="none" stroke="midnightblue" d="M765.641,-298.751C872.389,-291.67 1155.57,-265.318 1155.57,-185 1155.57,-185 1155.57,-185 1155.57,-127 1155.57,-95.1919 1153.64,-84.8445 1136.57,-58 1128.97,-46.0392 1117.39,-35.4913 1106.81,-27.4345"/>
<polygon fill="midnightblue" stroke="midnightblue" points="1108.79,-24.5476 1098.63,-21.5278 1104.69,-30.2215 1108.79,-24.5476"/>
</g>
<!-- Node24&#45;&gt;Node12 -->
<g id="edge94" class="edge"><title>Node24&#45;&gt;Node12</title>
<path fill="none" stroke="midnightblue" d="M685.346,-294.552C605.837,-281.797 436.151,-254.526 435.574,-254 388.465,-211.089 385.023,-128.45 386.244,-89.8363"/>
<polygon fill="midnightblue" stroke="midnightblue" points="389.744,-89.9184 386.704,-79.7689 382.751,-89.5986 389.744,-89.9184"/>
</g>
<!-- Node25 -->
<g id="node64" class="node"><title>Node25</title>
<a xlink:href="ConfigurableElementWithMapping_8h.html" target="_top" xlink:title="ConfigurableElementWithMapping.h">
<polygon fill="white" stroke="black" points="477.574,-232.5 477.574,-253.5 663.574,-253.5 663.574,-232.5 477.574,-232.5"/>
<text text-anchor="middle" x="570.574" y="-240.5" font-family="Verdana" font-size="10.00">ConfigurableElementWithMapping.h</text>
</a>
</g>
<!-- Node24&#45;&gt;Node25 -->
<g id="edge78" class="edge"><title>Node24&#45;&gt;Node25</title>
<path fill="none" stroke="midnightblue" d="M697.505,-290.497C672.564,-281.164 635.9,-267.445 608.382,-257.147"/>
<polygon fill="midnightblue" stroke="midnightblue" points="609.288,-253.75 598.696,-253.523 606.835,-260.306 609.288,-253.75"/>
</g>
<!-- Node26 -->
<g id="node68" class="node"><title>Node26</title>
<a xlink:href="Mapper_8h.html" target="_top" xlink:title="Mapper.h">
<polygon fill="white" stroke="black" points="553.074,-116.5 553.074,-137.5 614.074,-137.5 614.074,-116.5 553.074,-116.5"/>
<text text-anchor="middle" x="583.574" y="-124.5" font-family="Verdana" font-size="10.00">Mapper.h</text>
</a>
</g>
<!-- Node24&#45;&gt;Node26 -->
<g id="edge84" class="edge"><title>Node24&#45;&gt;Node26</title>
<path fill="none" stroke="midnightblue" d="M734.686,-290.233C745.359,-276.231 760.302,-251.286 749.574,-232 734.825,-205.487 717.247,-212.168 691.574,-196 663.074,-178.052 630.517,-157.204 608.665,-143.161"/>
<polygon fill="midnightblue" stroke="midnightblue" points="610.303,-140.053 599.999,-137.588 606.517,-145.941 610.303,-140.053"/>
</g>
<!-- Node27 -->
<g id="node71" class="node"><title>Node27</title>
<a xlink:href="MappingContext_8h.html" target="_top" xlink:title="MappingContext.h">
<polygon fill="white" stroke="black" points="1221.57,-58.5 1221.57,-79.5 1325.57,-79.5 1325.57,-58.5 1221.57,-58.5"/>
<text text-anchor="middle" x="1273.57" y="-66.5" font-family="Verdana" font-size="10.00">MappingContext.h</text>
</a>
</g>
<!-- Node24&#45;&gt;Node27 -->
<g id="edge88" class="edge"><title>Node24&#45;&gt;Node27</title>
<path fill="none" stroke="midnightblue" d="M765.579,-298.854C868.4,-293.048 1136.19,-275.972 1169.57,-254 1229.22,-214.748 1258.16,-128.918 1268.7,-89.516"/>
<polygon fill="midnightblue" stroke="midnightblue" points="1272.12,-90.2654 1271.2,-79.711 1265.34,-88.5382 1272.12,-90.2654"/>
</g>
<!-- Node28 -->
<g id="node76" class="node"><title>Node28</title>
<polygon fill="white" stroke="#bfbfbf" points="681.574,-232.5 681.574,-253.5 723.574,-253.5 723.574,-232.5 681.574,-232.5"/>
<text text-anchor="middle" x="702.574" y="-240.5" font-family="Verdana" font-size="10.00">stack</text>
</g>
<!-- Node24&#45;&gt;Node28 -->
<g id="edge96" class="edge"><title>Node24&#45;&gt;Node28</title>
<path fill="none" stroke="midnightblue" d="M721.355,-290.362C718.34,-282.758 714.191,-272.294 710.558,-263.135"/>
<polygon fill="midnightblue" stroke="midnightblue" points="713.706,-261.576 706.766,-253.571 707.199,-264.157 713.706,-261.576"/>
</g>
<!-- Node25&#45;&gt;Node7 -->
<g id="edge80" class="edge"><title>Node25&#45;&gt;Node7</title>
<path fill="none" stroke="midnightblue" d="M571.858,-232.362C572.756,-224.922 573.984,-214.743 575.072,-205.728"/>
<polygon fill="midnightblue" stroke="midnightblue" points="578.575,-205.918 576.298,-195.571 571.625,-205.079 578.575,-205.918"/>
</g>
<!-- Node25&#45;&gt;Node9 -->
<g id="edge82" class="edge"><title>Node25&#45;&gt;Node9</title>
<path fill="none" stroke="midnightblue" d="M546.508,-232.38C532.062,-224.585 514.918,-212.48 506.574,-196 502.157,-187.277 504.434,-183.541 506.574,-174 518.998,-118.612 552.467,-59.8898 570.926,-30.3593"/>
<polygon fill="midnightblue" stroke="midnightblue" points="573.932,-32.1548 576.345,-21.8385 568.025,-28.3979 573.932,-32.1548"/>
</g>
<!-- Node26&#45;&gt;Node9 -->
<g id="edge86" class="edge"><title>Node26&#45;&gt;Node9</title>
<path fill="none" stroke="midnightblue" d="M583.574,-116.295C583.574,-97.1314 583.574,-56.654 583.574,-31.8434"/>
<polygon fill="midnightblue" stroke="midnightblue" points="587.074,-31.6792 583.574,-21.6792 580.074,-31.6792 587.074,-31.6792"/>
</g>
<!-- Node27&#45;&gt;Node9 -->
<g id="edge92" class="edge"><title>Node27&#45;&gt;Node9</title>
<path fill="none" stroke="midnightblue" d="M1221.43,-64.6168C1085.92,-53.226 725.57,-22.9359 615.776,-13.7068"/>
<polygon fill="midnightblue" stroke="midnightblue" points="615.917,-10.2064 605.658,-12.8564 615.33,-17.1818 615.917,-10.2064"/>
</g>
<!-- Node27&#45;&gt;Node11 -->
<g id="edge90" class="edge"><title>Node27&#45;&gt;Node11</title>
<path fill="none" stroke="midnightblue" d="M1258.9,-58.3619C1247.06,-49.7773 1230.19,-37.5459 1216.56,-27.6636"/>
<polygon fill="midnightblue" stroke="midnightblue" points="1218.3,-24.6067 1208.15,-21.5707 1214.2,-30.274 1218.3,-24.6067"/>
</g>
<!-- Node29&#45;&gt;Node22 -->
<g id="edge106" class="edge"><title>Node29&#45;&gt;Node22</title>
<path fill="none" stroke="midnightblue" d="M1022.55,-348.404C1028.28,-326.535 1039.67,-274.858 1032.57,-232 1031.07,-222.912 1028.03,-213.22 1025,-205.013"/>
<polygon fill="midnightblue" stroke="midnightblue" points="1028.21,-203.594 1021.29,-195.568 1021.69,-206.155 1028.21,-203.594"/>
</g>
<!-- Node30&#45;&gt;Node8 -->
<g id="edge112" class="edge"><title>Node30&#45;&gt;Node8</title>
<path fill="none" stroke="midnightblue" d="M785.856,-174.497C803.192,-165.519 828.364,-152.484 847.954,-142.339"/>
<polygon fill="midnightblue" stroke="midnightblue" points="849.794,-145.328 857.064,-137.621 846.575,-139.112 849.794,-145.328"/>
</g>
<!-- Node30&#45;&gt;Node9 -->
<g id="edge114" class="edge"><title>Node30&#45;&gt;Node9</title>
<path fill="none" stroke="midnightblue" d="M748.09,-174.376C734.807,-165.72 716.654,-152.578 703.574,-138 675.883,-107.137 684.333,-87.8703 655.574,-58 643.514,-45.4738 627.522,-34.616 613.673,-26.5017"/>
<polygon fill="midnightblue" stroke="midnightblue" points="615.374,-23.4427 604.945,-21.5756 611.933,-29.5388 615.374,-23.4427"/>
</g>
<!-- Node32&#45;&gt;Node9 -->
<g id="edge128" class="edge"><title>Node32&#45;&gt;Node9</title>
<path fill="none" stroke="midnightblue" d="M250.93,-233.246C214.965,-223.277 174.092,-204.806 188.574,-174 222.951,-100.871 255.365,-92.2058 328.574,-58 367.818,-39.6639 492.163,-22.3355 551.484,-14.8616"/>
<polygon fill="midnightblue" stroke="midnightblue" points="551.942,-18.3317 561.434,-13.6239 551.078,-11.3853 551.942,-18.3317"/>
</g>
<!-- Node32&#45;&gt;Node12 -->
<g id="edge126" class="edge"><title>Node32&#45;&gt;Node12</title>
<path fill="none" stroke="midnightblue" d="M305.002,-232.288C310.609,-222.836 318.87,-208.635 325.574,-196 345.383,-158.663 366.607,-114.068 378.372,-88.8897"/>
<polygon fill="midnightblue" stroke="midnightblue" points="381.622,-90.2012 382.667,-79.6581 375.275,-87.248 381.622,-90.2012"/>
</g>
<!-- Node32&#45;&gt;Node17 -->
<g id="edge124" class="edge"><title>Node32&#45;&gt;Node17</title>
<path fill="none" stroke="midnightblue" d="M287.936,-232.362C279.678,-224.104 268.046,-212.472 258.377,-202.803"/>
<polygon fill="midnightblue" stroke="midnightblue" points="260.691,-200.167 251.145,-195.571 255.741,-205.117 260.691,-200.167"/>
</g>
</g>
</svg>
