<?xml version="1.0" encoding="UTF-8" standalone="no"?>
<!DOCTYPE svg PUBLIC "-//W3C//DTD SVG 1.1//EN"
 "http://www.w3.org/Graphics/SVG/1.1/DTD/svg11.dtd">
<!-- Generated by graphviz version 2.26.3 (20100126.1600)
 -->
<!-- Title: parameter/SystemClass.h Pages: 1 -->
<svg width="542pt" height="320pt"
 viewBox="0.00 0.00 542.00 320.00" xmlns="http://www.w3.org/2000/svg" xmlns:xlink="http://www.w3.org/1999/xlink">
<g id="graph1" class="graph" transform="scale(1 1) rotate(0) translate(4 316)">
<title>parameter/SystemClass.h</title>
<polygon fill="white" stroke="white" points="-4,5 -4,-316 539,-316 539,5 -4,5"/>
<!-- Node1 -->
<g id="node1" class="node"><title>Node1</title>
<polygon fill="#bfbfbf" stroke="black" points="98,-290.5 98,-311.5 240,-311.5 240,-290.5 98,-290.5"/>
<text text-anchor="middle" x="169" y="-298.5" font-family="Verdana" font-size="10.00">parameter/SystemClass.h</text>
</g>
<!-- Node2 -->
<g id="node3" class="node"><title>Node2</title>
<a xlink:href="ConfigurableElement_8h.html" target="_top" xlink:title="ConfigurableElement.h">
<polygon fill="white" stroke="black" points="205.5,-174.5 205.5,-195.5 330.5,-195.5 330.5,-174.5 205.5,-174.5"/>
<text text-anchor="middle" x="268" y="-182.5" font-family="Verdana" font-size="10.00">ConfigurableElement.h</text>
</a>
</g>
<!-- Node1&#45;&gt;Node2 -->
<g id="edge2" class="edge"><title>Node1&#45;&gt;Node2</title>
<path fill="none" stroke="midnightblue" d="M178.136,-290.295C195.007,-270.527 231.233,-228.08 252.173,-203.544"/>
<polygon fill="midnightblue" stroke="midnightblue" points="255.056,-205.558 258.886,-195.679 249.732,-201.014 255.056,-205.558"/>
</g>
<!-- Node4 -->
<g id="node7" class="node"><title>Node4</title>
<polygon fill="white" stroke="#bfbfbf" points="54,-0.5 54,-21.5 98,-21.5 98,-0.5 54,-0.5"/>
<text text-anchor="middle" x="76" y="-8.5" font-family="Verdana" font-size="10.00">string</text>
</g>
<!-- Node1&#45;&gt;Node4 -->
<g id="edge40" class="edge"><title>Node1&#45;&gt;Node4</title>
<path fill="none" stroke="midnightblue" d="M122.82,-290.496C72.7822,-276.06 0,-244.786 0,-185 0,-185 0,-185 0,-127 0,-86.5104 32.7975,-49.1585 55.3017,-28.2949"/>
<polygon fill="midnightblue" stroke="midnightblue" points="57.6399,-30.8993 62.7618,-21.6247 52.9742,-25.681 57.6399,-30.8993"/>
</g>
<!-- Node7 -->
<g id="node13" class="node"><title>Node7</title>
<polygon fill="white" stroke="#bfbfbf" points="504,-58.5 504,-79.5 534,-79.5 534,-58.5 504,-58.5"/>
<text text-anchor="middle" x="519" y="-66.5" font-family="Verdana" font-size="10.00">list</text>
</g>
<!-- Node1&#45;&gt;Node7 -->
<g id="edge38" class="edge"><title>Node1&#45;&gt;Node7</title>
<path fill="none" stroke="midnightblue" d="M187.094,-290.32C218.411,-271.726 284.587,-231.951 339,-196 396.705,-157.874 462.705,-110.238 496.486,-85.5541"/>
<polygon fill="midnightblue" stroke="midnightblue" points="498.741,-88.2412 504.741,-79.5095 494.605,-82.5933 498.741,-88.2412"/>
</g>
<!-- Node11 -->
<g id="node25" class="node"><title>Node11</title>
<a xlink:href="SubsystemPlugins_8h.html" target="_top" xlink:title="SubsystemPlugins.h">
<polygon fill="white" stroke="black" points="59.5,-232.5 59.5,-253.5 172.5,-253.5 172.5,-232.5 59.5,-232.5"/>
<text text-anchor="middle" x="116" y="-240.5" font-family="Verdana" font-size="10.00">SubsystemPlugins.h</text>
</a>
</g>
<!-- Node1&#45;&gt;Node11 -->
<g id="edge28" class="edge"><title>Node1&#45;&gt;Node11</title>
<path fill="none" stroke="midnightblue" d="M159.279,-290.362C151.808,-282.186 141.314,-270.702 132.531,-261.091"/>
<polygon fill="midnightblue" stroke="midnightblue" points="134.989,-258.592 125.659,-253.571 129.821,-263.314 134.989,-258.592"/>
</g>
<!-- Node3 -->
<g id="node5" class="node"><title>Node3</title>
<a xlink:href="Element_8h.html" target="_top" xlink:title="Element.h">
<polygon fill="white" stroke="black" points="235.5,-116.5 235.5,-137.5 300.5,-137.5 300.5,-116.5 235.5,-116.5"/>
<text text-anchor="middle" x="268" y="-124.5" font-family="Verdana" font-size="10.00">Element.h</text>
</a>
</g>
<!-- Node2&#45;&gt;Node3 -->
<g id="edge4" class="edge"><title>Node2&#45;&gt;Node3</title>
<path fill="none" stroke="midnightblue" d="M268,-174.362C268,-166.922 268,-156.743 268,-147.728"/>
<polygon fill="midnightblue" stroke="midnightblue" points="271.5,-147.571 268,-137.571 264.5,-147.571 271.5,-147.571"/>
</g>
<!-- Node2&#45;&gt;Node7 -->
<g id="edge26" class="edge"><title>Node2&#45;&gt;Node7</title>
<path fill="none" stroke="midnightblue" d="M291.164,-174.295C338.623,-152.361 446.498,-102.507 494.812,-80.1784"/>
<polygon fill="midnightblue" stroke="midnightblue" points="496.302,-83.3459 503.911,-75.9735 493.365,-76.9916 496.302,-83.3459"/>
</g>
<!-- Node3&#45;&gt;Node4 -->
<g id="edge6" class="edge"><title>Node3&#45;&gt;Node4</title>
<path fill="none" stroke="midnightblue" d="M235.445,-120.89C206.581,-114.316 164.274,-101.751 133,-80 114.091,-66.8491 97.9687,-45.7931 87.7459,-30.3962"/>
<polygon fill="midnightblue" stroke="midnightblue" points="90.5015,-28.2081 82.1709,-21.6619 84.601,-31.9743 90.5015,-28.2081"/>
</g>
<!-- Node5 -->
<g id="node9" class="node"><title>Node5</title>
<polygon fill="white" stroke="#bfbfbf" points="333.5,-0.5 333.5,-21.5 380.5,-21.5 380.5,-0.5 333.5,-0.5"/>
<text text-anchor="middle" x="357" y="-8.5" font-family="Verdana" font-size="10.00">vector</text>
</g>
<!-- Node3&#45;&gt;Node5 -->
<g id="edge8" class="edge"><title>Node3&#45;&gt;Node5</title>
<path fill="none" stroke="midnightblue" d="M300.552,-122.332C325.609,-116.843 358.638,-105.058 375,-80 384.772,-65.0342 377.797,-45.0029 369.856,-30.3796"/>
<polygon fill="midnightblue" stroke="midnightblue" points="372.787,-28.4611 364.665,-21.6585 366.772,-32.0416 372.787,-28.4611"/>
</g>
<!-- Node6 -->
<g id="node11" class="node"><title>Node6</title>
<polygon fill="white" stroke="#bfbfbf" points="241.5,-0.5 241.5,-21.5 294.5,-21.5 294.5,-0.5 241.5,-0.5"/>
<text text-anchor="middle" x="268" y="-8.5" font-family="Verdana" font-size="10.00">stdint.h</text>
</g>
<!-- Node3&#45;&gt;Node6 -->
<g id="edge10" class="edge"><title>Node3&#45;&gt;Node6</title>
<path fill="none" stroke="midnightblue" d="M267.113,-116.182C266.379,-106.662 265.396,-92.4217 265,-80 264.688,-70.2272 264.688,-67.7728 265,-58 265.272,-49.4601 265.822,-40.0606 266.378,-31.9263"/>
<polygon fill="midnightblue" stroke="midnightblue" points="269.878,-32.0455 267.113,-21.8179 262.897,-31.5375 269.878,-32.0455"/>
</g>
<!-- Node3&#45;&gt;Node7 -->
<g id="edge12" class="edge"><title>Node3&#45;&gt;Node7</title>
<path fill="none" stroke="midnightblue" d="M300.551,-122.623C343.258,-116.373 420.499,-103.325 494.086,-79.7515"/>
<polygon fill="midnightblue" stroke="midnightblue" points="495.559,-82.952 503.972,-76.5122 493.379,-76.3 495.559,-82.952"/>
</g>
<!-- Node8 -->
<g id="node15" class="node"><title>Node8</title>
<polygon fill="white" stroke="#bfbfbf" points="422,-58.5 422,-79.5 486,-79.5 486,-58.5 422,-58.5"/>
<text text-anchor="middle" x="454" y="-66.5" font-family="Verdana" font-size="10.00">XmlSink.h</text>
</g>
<!-- Node3&#45;&gt;Node8 -->
<g id="edge14" class="edge"><title>Node3&#45;&gt;Node8</title>
<path fill="none" stroke="midnightblue" d="M300.825,-116.764C331.864,-107.085 378.575,-92.5195 412.251,-82.0186"/>
<polygon fill="midnightblue" stroke="midnightblue" points="413.31,-85.3547 421.814,-79.0364 411.226,-78.672 413.31,-85.3547"/>
</g>
<!-- Node9 -->
<g id="node17" class="node"><title>Node9</title>
<polygon fill="white" stroke="#bfbfbf" points="141.5,-58.5 141.5,-79.5 218.5,-79.5 218.5,-58.5 141.5,-58.5"/>
<text text-anchor="middle" x="180" y="-66.5" font-family="Verdana" font-size="10.00">XmlSource.h</text>
</g>
<!-- Node3&#45;&gt;Node9 -->
<g id="edge16" class="edge"><title>Node3&#45;&gt;Node9</title>
<path fill="none" stroke="midnightblue" d="M251.859,-116.362C238.586,-107.614 219.568,-95.0786 204.43,-85.1015"/>
<polygon fill="midnightblue" stroke="midnightblue" points="206.314,-82.1515 196.038,-79.5707 202.462,-87.9962 206.314,-82.1515"/>
</g>
<!-- Node10 -->
<g id="node19" class="node"><title>Node10</title>
<a xlink:href="PathNavigator_8h.html" target="_top" xlink:title="PathNavigator.h">
<polygon fill="white" stroke="black" points="274,-58.5 274,-79.5 366,-79.5 366,-58.5 274,-58.5"/>
<text text-anchor="middle" x="320" y="-66.5" font-family="Verdana" font-size="10.00">PathNavigator.h</text>
</a>
</g>
<!-- Node3&#45;&gt;Node10 -->
<g id="edge18" class="edge"><title>Node3&#45;&gt;Node10</title>
<path fill="none" stroke="midnightblue" d="M277.538,-116.362C284.868,-108.186 295.163,-96.7025 303.781,-87.0907"/>
<polygon fill="midnightblue" stroke="midnightblue" points="306.453,-89.3528 310.523,-79.5707 301.241,-84.68 306.453,-89.3528"/>
</g>
<!-- Node10&#45;&gt;Node4 -->
<g id="edge22" class="edge"><title>Node10&#45;&gt;Node4</title>
<path fill="none" stroke="midnightblue" d="M275.813,-58.4966C227.475,-47.0065 151.167,-28.8675 108.189,-18.6515"/>
<polygon fill="midnightblue" stroke="midnightblue" points="108.811,-15.2018 98.2723,-16.2942 107.192,-22.012 108.811,-15.2018"/>
</g>
<!-- Node10&#45;&gt;Node5 -->
<g id="edge20" class="edge"><title>Node10&#45;&gt;Node5</title>
<path fill="none" stroke="midnightblue" d="M326.786,-58.3619C331.793,-50.5131 338.745,-39.6159 344.718,-30.2527"/>
<polygon fill="midnightblue" stroke="midnightblue" points="347.829,-31.8837 350.257,-21.5707 341.928,-28.1189 347.829,-31.8837"/>
</g>
<!-- Node10&#45;&gt;Node6 -->
<g id="edge24" class="edge"><title>Node10&#45;&gt;Node6</title>
<path fill="none" stroke="midnightblue" d="M310.462,-58.3619C303.132,-50.1861 292.837,-38.7025 284.219,-29.0907"/>
<polygon fill="midnightblue" stroke="midnightblue" points="286.759,-26.68 277.477,-21.5707 281.547,-31.3528 286.759,-26.68"/>
</g>
<!-- Node11&#45;&gt;Node4 -->
<g id="edge36" class="edge"><title>Node11&#45;&gt;Node4</title>
<path fill="none" stroke="midnightblue" d="M97.9047,-232.386C85.8181,-224.167 70.9146,-211.57 64,-196 39.376,-140.552 57.5208,-66.4567 68.8013,-31.2379"/>
<polygon fill="midnightblue" stroke="midnightblue" points="72.1656,-32.2137 72.0269,-21.6198 65.5289,-29.988 72.1656,-32.2137"/>
</g>
<!-- Node12 -->
<g id="node27" class="node"><title>Node12</title>
<a xlink:href="KindElement_8h.html" target="_top" xlink:title="KindElement.h">
<polygon fill="white" stroke="black" points="73,-174.5 73,-195.5 159,-195.5 159,-174.5 73,-174.5"/>
<text text-anchor="middle" x="116" y="-182.5" font-family="Verdana" font-size="10.00">KindElement.h</text>
</a>
</g>
<!-- Node11&#45;&gt;Node12 -->
<g id="edge30" class="edge"><title>Node11&#45;&gt;Node12</title>
<path fill="none" stroke="midnightblue" d="M116,-232.362C116,-224.922 116,-214.743 116,-205.728"/>
<polygon fill="midnightblue" stroke="midnightblue" points="119.5,-205.571 116,-195.571 112.5,-205.571 119.5,-205.571"/>
</g>
<!-- Node12&#45;&gt;Node3 -->
<g id="edge32" class="edge"><title>Node12&#45;&gt;Node3</title>
<path fill="none" stroke="midnightblue" d="M143.526,-174.497C167.984,-165.164 203.938,-151.445 230.924,-141.147"/>
<polygon fill="midnightblue" stroke="midnightblue" points="232.327,-144.358 240.422,-137.523 229.832,-137.818 232.327,-144.358"/>
</g>
<!-- Node12&#45;&gt;Node4 -->
<g id="edge34" class="edge"><title>Node12&#45;&gt;Node4</title>
<path fill="none" stroke="midnightblue" d="M113.558,-174.377C107.074,-146.172 89.3361,-69.0121 80.7633,-31.7203"/>
<polygon fill="midnightblue" stroke="midnightblue" points="84.1636,-30.8893 78.5121,-21.9277 77.3416,-32.4577 84.1636,-30.8893"/>
</g>
</g>
</svg>
