<?xml version="1.0" encoding="UTF-8" standalone="no"?>
<!DOCTYPE svg PUBLIC "-//W3C//DTD SVG 1.1//EN"
 "http://www.w3.org/Graphics/SVG/1.1/DTD/svg11.dtd">
<!-- Generated by graphviz version 2.26.3 (20100126.1600)
 -->
<!-- Title: parameter/VirtualSyncer.h Pages: 1 -->
<svg width="356pt" height="88pt"
 viewBox="0.00 0.00 356.00 88.00" xmlns="http://www.w3.org/2000/svg" xmlns:xlink="http://www.w3.org/1999/xlink">
<g id="graph1" class="graph" transform="scale(1 1) rotate(0) translate(4 84)">
<title>parameter/VirtualSyncer.h</title>
<polygon fill="white" stroke="white" points="-4,5 -4,-84 353,-84 353,5 -4,5"/>
<!-- Node1 -->
<g id="node1" class="node"><title>Node1</title>
<polygon fill="#bfbfbf" stroke="black" points="107.5,-58.5 107.5,-79.5 250.5,-79.5 250.5,-58.5 107.5,-58.5"/>
<text text-anchor="middle" x="179" y="-66.5" font-family="Verdana" font-size="10.00">parameter/VirtualSyncer.h</text>
</g>
<!-- Node2 -->
<g id="node3" class="node"><title>Node2</title>
<a xlink:href="VirtualSubsystem_8cpp.html" target="_top" xlink:title="parameter/VirtualSubsystem.cpp">
<polygon fill="white" stroke="black" points="0,-0.5 0,-21.5 176,-21.5 176,-0.5 0,-0.5"/>
<text text-anchor="middle" x="88" y="-8.5" font-family="Verdana" font-size="10.00">parameter/VirtualSubsystem.cpp</text>
</a>
</g>
<!-- Node1&#45;&gt;Node2 -->
<g id="edge2" class="edge"><title>Node1&#45;&gt;Node2</title>
<path fill="none" stroke="midnightblue" d="M153.616,-52.8215C137.942,-42.8312 118.28,-30.2993 104.585,-21.5707"/>
<polygon fill="midnightblue" stroke="midnightblue" points="151.995,-55.9386 162.309,-58.3619 155.758,-50.0356 151.995,-55.9386"/>
</g>
<!-- Node3 -->
<g id="node5" class="node"><title>Node3</title>
<a xlink:href="VirtualSyncer_8cpp.html" target="_top" xlink:title="parameter/VirtualSyncer.cpp">
<polygon fill="white" stroke="black" points="194,-0.5 194,-21.5 348,-21.5 348,-0.5 194,-0.5"/>
<text text-anchor="middle" x="271" y="-8.5" font-family="Verdana" font-size="10.00">parameter/VirtualSyncer.cpp</text>
</a>
</g>
<!-- Node1&#45;&gt;Node3 -->
<g id="edge4" class="edge"><title>Node1&#45;&gt;Node3</title>
<path fill="none" stroke="midnightblue" d="M204.662,-52.8215C220.509,-42.8312 240.387,-30.2993 254.233,-21.5707"/>
<polygon fill="midnightblue" stroke="midnightblue" points="202.467,-50.0681 195.874,-58.3619 206.2,-55.9896 202.467,-50.0681"/>
</g>
</g>
</svg>
