<?xml version="1.0" encoding="UTF-8" standalone="no"?>
<!DOCTYPE svg PUBLIC "-//W3C//DTD SVG 1.1//EN"
 "http://www.w3.org/Graphics/SVG/1.1/DTD/svg11.dtd">
<!-- Generated by graphviz version 2.26.3 (20100126.1600)
 -->
<!-- Title: parameter/VirtualSubsystem.h Pages: 1 -->
<svg width="738pt" height="378pt"
 viewBox="0.00 0.00 738.00 378.00" xmlns="http://www.w3.org/2000/svg" xmlns:xlink="http://www.w3.org/1999/xlink">
<g id="graph1" class="graph" transform="scale(1 1) rotate(0) translate(4 374)">
<title>parameter/VirtualSubsystem.h</title>
<polygon fill="white" stroke="white" points="-4,5 -4,-374 735,-374 735,5 -4,5"/>
<!-- Node1 -->
<g id="node1" class="node"><title>Node1</title>
<polygon fill="#bfbfbf" stroke="black" points="87,-348.5 87,-369.5 251,-369.5 251,-348.5 87,-348.5"/>
<text text-anchor="middle" x="169" y="-356.5" font-family="Verdana" font-size="10.00">parameter/VirtualSubsystem.h</text>
</g>
<!-- Node2 -->
<g id="node3" class="node"><title>Node2</title>
<a xlink:href="Subsystem_8h.html" target="_top" xlink:title="Subsystem.h">
<polygon fill="white" stroke="black" points="298,-290.5 298,-311.5 378,-311.5 378,-290.5 298,-290.5"/>
<text text-anchor="middle" x="338" y="-298.5" font-family="Verdana" font-size="10.00">Subsystem.h</text>
</a>
</g>
<!-- Node1&#45;&gt;Node2 -->
<g id="edge2" class="edge"><title>Node1&#45;&gt;Node2</title>
<path fill="none" stroke="midnightblue" d="M199.605,-348.497C227.037,-339.082 267.476,-325.204 297.564,-314.877"/>
<polygon fill="midnightblue" stroke="midnightblue" points="299.016,-318.08 307.338,-311.523 296.743,-311.459 299.016,-318.08"/>
</g>
<!-- Node5 -->
<g id="node9" class="node"><title>Node5</title>
<polygon fill="white" stroke="#bfbfbf" points="100,-0.5 100,-21.5 144,-21.5 144,-0.5 100,-0.5"/>
<text text-anchor="middle" x="122" y="-8.5" font-family="Verdana" font-size="10.00">string</text>
</g>
<!-- Node1&#45;&gt;Node5 -->
<g id="edge54" class="edge"><title>Node1&#45;&gt;Node5</title>
<path fill="none" stroke="midnightblue" d="M122.82,-348.496C72.7822,-334.06 0,-302.786 0,-243 0,-243 0,-243 0,-127 0,-76.9638 54.5624,-41.9725 90.7095,-24.2812"/>
<polygon fill="midnightblue" stroke="midnightblue" points="92.3479,-27.3784 99.9067,-19.9545 89.3681,-21.0443 92.3479,-27.3784"/>
</g>
<!-- Node3 -->
<g id="node5" class="node"><title>Node3</title>
<a xlink:href="ConfigurableElement_8h.html" target="_top" xlink:title="ConfigurableElement.h">
<polygon fill="white" stroke="black" points="372.5,-174.5 372.5,-195.5 497.5,-195.5 497.5,-174.5 372.5,-174.5"/>
<text text-anchor="middle" x="435" y="-182.5" font-family="Verdana" font-size="10.00">ConfigurableElement.h</text>
</a>
</g>
<!-- Node2&#45;&gt;Node3 -->
<g id="edge4" class="edge"><title>Node2&#45;&gt;Node3</title>
<path fill="none" stroke="midnightblue" d="M346.837,-290.203C358.001,-276.587 377.829,-252.479 395,-232 402.93,-222.543 411.822,-212.081 419.205,-203.433"/>
<polygon fill="midnightblue" stroke="midnightblue" points="421.902,-205.664 425.74,-195.789 416.581,-201.115 421.902,-205.664"/>
</g>
<!-- Node2&#45;&gt;Node5 -->
<g id="edge50" class="edge"><title>Node2&#45;&gt;Node5</title>
<path fill="none" stroke="midnightblue" d="M297.817,-296.337C238.641,-288.936 131.449,-273.339 98,-254 62.8179,-233.658 38,-225.639 38,-185 38,-185 38,-185 38,-127 38,-85.2255 74.1791,-48.3209 99.0501,-27.8866"/>
<polygon fill="midnightblue" stroke="midnightblue" points="101.316,-30.557 106.982,-21.6049 96.97,-25.0693 101.316,-30.557"/>
</g>
<!-- Node6 -->
<g id="node11" class="node"><title>Node6</title>
<polygon fill="white" stroke="#bfbfbf" points="620.5,-0.5 620.5,-21.5 667.5,-21.5 667.5,-0.5 620.5,-0.5"/>
<text text-anchor="middle" x="644" y="-8.5" font-family="Verdana" font-size="10.00">vector</text>
</g>
<!-- Node2&#45;&gt;Node6 -->
<g id="edge52" class="edge"><title>Node2&#45;&gt;Node6</title>
<path fill="none" stroke="midnightblue" d="M378.109,-297.718C478.016,-288.445 730,-257.836 730,-185 730,-185 730,-185 730,-127 730,-95.1919 729.323,-84.0004 711,-58 701.911,-45.1027 688.1,-34.5509 675.374,-26.7365"/>
<polygon fill="midnightblue" stroke="midnightblue" points="676.792,-23.5129 666.383,-21.5358 673.287,-29.5723 676.792,-23.5129"/>
</g>
<!-- Node8 -->
<g id="node15" class="node"><title>Node8</title>
<polygon fill="white" stroke="#bfbfbf" points="672,-58.5 672,-79.5 702,-79.5 702,-58.5 672,-58.5"/>
<text text-anchor="middle" x="687" y="-66.5" font-family="Verdana" font-size="10.00">list</text>
</g>
<!-- Node2&#45;&gt;Node8 -->
<g id="edge46" class="edge"><title>Node2&#45;&gt;Node8</title>
<path fill="none" stroke="midnightblue" d="M371.474,-290.475C395.547,-282.218 428.332,-269.539 455,-254 541.487,-203.607 630.338,-123.135 668.141,-87.275"/>
<polygon fill="midnightblue" stroke="midnightblue" points="671.008,-89.3761 675.819,-79.9364 666.171,-84.3158 671.008,-89.3761"/>
</g>
<!-- Node12 -->
<g id="node27" class="node"><title>Node12</title>
<a xlink:href="ConfigurableElementWithMapping_8h.html" target="_top" xlink:title="ConfigurableElementWithMapping.h">
<polygon fill="white" stroke="black" points="124,-232.5 124,-253.5 310,-253.5 310,-232.5 124,-232.5"/>
<text text-anchor="middle" x="217" y="-240.5" font-family="Verdana" font-size="10.00">ConfigurableElementWithMapping.h</text>
</a>
</g>
<!-- Node2&#45;&gt;Node12 -->
<g id="edge30" class="edge"><title>Node2&#45;&gt;Node12</title>
<path fill="none" stroke="midnightblue" d="M316.088,-290.497C297.189,-281.438 269.669,-268.246 248.424,-258.063"/>
<polygon fill="midnightblue" stroke="midnightblue" points="249.689,-254.788 239.158,-253.621 246.663,-261.1 249.689,-254.788"/>
</g>
<!-- Node13 -->
<g id="node31" class="node"><title>Node13</title>
<a xlink:href="Mapper_8h.html" target="_top" xlink:title="Mapper.h">
<polygon fill="white" stroke="black" points="65.5,-174.5 65.5,-195.5 126.5,-195.5 126.5,-174.5 65.5,-174.5"/>
<text text-anchor="middle" x="96" y="-182.5" font-family="Verdana" font-size="10.00">Mapper.h</text>
</a>
</g>
<!-- Node2&#45;&gt;Node13 -->
<g id="edge36" class="edge"><title>Node2&#45;&gt;Node13</title>
<path fill="none" stroke="midnightblue" d="M297.565,-297.484C240.647,-291.724 140.935,-278.4 115,-254 101.892,-241.668 97.5347,-221.202 96.2219,-205.755"/>
<polygon fill="midnightblue" stroke="midnightblue" points="99.7087,-205.397 95.7225,-195.581 92.7171,-205.741 99.7087,-205.397"/>
</g>
<!-- Node14 -->
<g id="node34" class="node"><title>Node14</title>
<a xlink:href="MappingContext_8h.html" target="_top" xlink:title="MappingContext.h">
<polygon fill="white" stroke="black" points="150,-58.5 150,-79.5 254,-79.5 254,-58.5 150,-58.5"/>
<text text-anchor="middle" x="202" y="-66.5" font-family="Verdana" font-size="10.00">MappingContext.h</text>
</a>
</g>
<!-- Node2&#45;&gt;Node14 -->
<g id="edge40" class="edge"><title>Node2&#45;&gt;Node14</title>
<path fill="none" stroke="midnightblue" d="M336.269,-290.302C333.747,-276.374 328.319,-251.508 319,-232 291.532,-174.498 243.573,-115.94 218.437,-87.1995"/>
<polygon fill="midnightblue" stroke="midnightblue" points="220.95,-84.7585 211.702,-79.5898 215.709,-89.3978 220.95,-84.7585"/>
</g>
<!-- Node15 -->
<g id="node39" class="node"><title>Node15</title>
<polygon fill="white" stroke="#bfbfbf" points="404,-232.5 404,-253.5 446,-253.5 446,-232.5 404,-232.5"/>
<text text-anchor="middle" x="425" y="-240.5" font-family="Verdana" font-size="10.00">stack</text>
</g>
<!-- Node2&#45;&gt;Node15 -->
<g id="edge48" class="edge"><title>Node2&#45;&gt;Node15</title>
<path fill="none" stroke="midnightblue" d="M353.957,-290.362C366.957,-281.696 385.531,-269.313 400.427,-259.382"/>
<polygon fill="midnightblue" stroke="midnightblue" points="402.765,-262.03 409.144,-253.571 398.882,-256.206 402.765,-262.03"/>
</g>
<!-- Node4 -->
<g id="node7" class="node"><title>Node4</title>
<a xlink:href="Element_8h.html" target="_top" xlink:title="Element.h">
<polygon fill="white" stroke="black" points="405.5,-116.5 405.5,-137.5 470.5,-137.5 470.5,-116.5 405.5,-116.5"/>
<text text-anchor="middle" x="438" y="-124.5" font-family="Verdana" font-size="10.00">Element.h</text>
</a>
</g>
<!-- Node3&#45;&gt;Node4 -->
<g id="edge6" class="edge"><title>Node3&#45;&gt;Node4</title>
<path fill="none" stroke="midnightblue" d="M435.55,-174.362C435.935,-166.922 436.462,-156.743 436.928,-147.728"/>
<polygon fill="midnightblue" stroke="midnightblue" points="440.432,-147.738 437.453,-137.571 433.441,-147.376 440.432,-147.738"/>
</g>
<!-- Node3&#45;&gt;Node8 -->
<g id="edge28" class="edge"><title>Node3&#45;&gt;Node8</title>
<path fill="none" stroke="midnightblue" d="M458.256,-174.295C505.904,-152.361 614.209,-102.507 662.716,-80.1784"/>
<polygon fill="midnightblue" stroke="midnightblue" points="664.23,-83.3343 671.851,-75.9735 661.303,-76.9757 664.23,-83.3343"/>
</g>
<!-- Node4&#45;&gt;Node5 -->
<g id="edge8" class="edge"><title>Node4&#45;&gt;Node5</title>
<path fill="none" stroke="midnightblue" d="M405.481,-117.797C377.281,-109.359 335.665,-95.7991 301,-80 283.242,-71.9066 280.793,-66.0158 263,-58 226.751,-41.6698 183.06,-27.9714 154.016,-19.6522"/>
<polygon fill="midnightblue" stroke="midnightblue" points="154.593,-16.1788 144.019,-16.8358 152.695,-22.9165 154.593,-16.1788"/>
</g>
<!-- Node4&#45;&gt;Node6 -->
<g id="edge10" class="edge"><title>Node4&#45;&gt;Node6</title>
<path fill="none" stroke="midnightblue" d="M470.638,-124.806C506.422,-120.904 563.939,-110.07 603,-80 619.148,-67.5686 630.227,-46.8214 636.758,-31.3171"/>
<polygon fill="midnightblue" stroke="midnightblue" points="640.181,-32.1757 640.56,-21.5877 633.661,-29.6282 640.181,-32.1757"/>
</g>
<!-- Node7 -->
<g id="node13" class="node"><title>Node7</title>
<polygon fill="white" stroke="#bfbfbf" points="505.5,-0.5 505.5,-21.5 558.5,-21.5 558.5,-0.5 505.5,-0.5"/>
<text text-anchor="middle" x="532" y="-8.5" font-family="Verdana" font-size="10.00">stdint.h</text>
</g>
<!-- Node4&#45;&gt;Node7 -->
<g id="edge12" class="edge"><title>Node4&#45;&gt;Node7</title>
<path fill="none" stroke="midnightblue" d="M470.8,-121.283C510.324,-113.648 573.168,-98.8675 587,-80 600.571,-61.4893 579.417,-41.011 559.536,-27.2088"/>
<polygon fill="midnightblue" stroke="midnightblue" points="561.192,-24.1086 550.911,-21.5479 557.351,-29.9608 561.192,-24.1086"/>
</g>
<!-- Node4&#45;&gt;Node8 -->
<g id="edge14" class="edge"><title>Node4&#45;&gt;Node8</title>
<path fill="none" stroke="midnightblue" d="M470.818,-121.599C514.155,-114.101 592.625,-99.2604 658,-80 659.42,-79.5815 660.87,-79.126 662.327,-78.6463"/>
<polygon fill="midnightblue" stroke="midnightblue" points="663.557,-81.9236 671.797,-75.264 661.202,-75.3314 663.557,-81.9236"/>
</g>
<!-- Node9 -->
<g id="node17" class="node"><title>Node9</title>
<polygon fill="white" stroke="#bfbfbf" points="310,-58.5 310,-79.5 374,-79.5 374,-58.5 310,-58.5"/>
<text text-anchor="middle" x="342" y="-66.5" font-family="Verdana" font-size="10.00">XmlSink.h</text>
</g>
<!-- Node4&#45;&gt;Node9 -->
<g id="edge16" class="edge"><title>Node4&#45;&gt;Node9</title>
<path fill="none" stroke="midnightblue" d="M420.392,-116.362C405.777,-107.532 384.776,-94.844 368.189,-84.8224"/>
<polygon fill="midnightblue" stroke="midnightblue" points="369.865,-81.7461 359.496,-79.5707 366.246,-87.7376 369.865,-81.7461"/>
</g>
<!-- Node10 -->
<g id="node19" class="node"><title>Node10</title>
<polygon fill="white" stroke="#bfbfbf" points="391.5,-58.5 391.5,-79.5 468.5,-79.5 468.5,-58.5 391.5,-58.5"/>
<text text-anchor="middle" x="430" y="-66.5" font-family="Verdana" font-size="10.00">XmlSource.h</text>
</g>
<!-- Node4&#45;&gt;Node10 -->
<g id="edge18" class="edge"><title>Node4&#45;&gt;Node10</title>
<path fill="none" stroke="midnightblue" d="M436.533,-116.362C435.506,-108.922 434.102,-98.7427 432.859,-89.7276"/>
<polygon fill="midnightblue" stroke="midnightblue" points="436.292,-88.9986 431.458,-79.5707 429.357,-89.9551 436.292,-88.9986"/>
</g>
<!-- Node11 -->
<g id="node21" class="node"><title>Node11</title>
<a xlink:href="PathNavigator_8h.html" target="_top" xlink:title="PathNavigator.h">
<polygon fill="white" stroke="black" points="486,-58.5 486,-79.5 578,-79.5 578,-58.5 486,-58.5"/>
<text text-anchor="middle" x="532" y="-66.5" font-family="Verdana" font-size="10.00">PathNavigator.h</text>
</a>
</g>
<!-- Node4&#45;&gt;Node11 -->
<g id="edge20" class="edge"><title>Node4&#45;&gt;Node11</title>
<path fill="none" stroke="midnightblue" d="M455.241,-116.362C469.552,-107.532 490.115,-94.844 506.357,-84.8224"/>
<polygon fill="midnightblue" stroke="midnightblue" points="508.196,-87.8004 514.868,-79.5707 504.52,-81.8431 508.196,-87.8004"/>
</g>
<!-- Node11&#45;&gt;Node5 -->
<g id="edge24" class="edge"><title>Node11&#45;&gt;Node5</title>
<path fill="none" stroke="midnightblue" d="M485.827,-59.5364C482.844,-58.9958 479.882,-58.4784 477,-58 358.438,-38.3173 216.503,-21.5598 154.104,-14.5335"/>
<polygon fill="midnightblue" stroke="midnightblue" points="154.42,-11.0471 144.093,-13.4131 153.642,-18.0037 154.42,-11.0471"/>
</g>
<!-- Node11&#45;&gt;Node6 -->
<g id="edge22" class="edge"><title>Node11&#45;&gt;Node6</title>
<path fill="none" stroke="midnightblue" d="M552.282,-58.4966C569.618,-49.5194 594.79,-36.4835 614.38,-26.3387"/>
<polygon fill="midnightblue" stroke="midnightblue" points="616.22,-29.3278 623.49,-21.6212 613.001,-23.1118 616.22,-29.3278"/>
</g>
<!-- Node11&#45;&gt;Node7 -->
<g id="edge26" class="edge"><title>Node11&#45;&gt;Node7</title>
<path fill="none" stroke="midnightblue" d="M532,-58.3619C532,-50.9219 532,-40.7427 532,-31.7276"/>
<polygon fill="midnightblue" stroke="midnightblue" points="535.5,-31.5706 532,-21.5707 528.5,-31.5707 535.5,-31.5706"/>
</g>
<!-- Node12&#45;&gt;Node3 -->
<g id="edge32" class="edge"><title>Node12&#45;&gt;Node3</title>
<path fill="none" stroke="midnightblue" d="M256.478,-232.497C292.633,-222.877 346.304,-208.598 385.353,-198.209"/>
<polygon fill="midnightblue" stroke="midnightblue" points="386.684,-201.477 395.448,-195.523 384.884,-194.712 386.684,-201.477"/>
</g>
<!-- Node12&#45;&gt;Node5 -->
<g id="edge34" class="edge"><title>Node12&#45;&gt;Node5</title>
<path fill="none" stroke="midnightblue" d="M211.188,-232.203C197.505,-206.459 162.775,-139.193 141,-80 135.178,-64.1738 130.189,-45.735 126.786,-31.9018"/>
<polygon fill="midnightblue" stroke="midnightblue" points="130.134,-30.8499 124.411,-21.9332 123.324,-32.4721 130.134,-30.8499"/>
</g>
<!-- Node13&#45;&gt;Node5 -->
<g id="edge38" class="edge"><title>Node13&#45;&gt;Node5</title>
<path fill="none" stroke="midnightblue" d="M96.3045,-174.363C97.086,-152.419 99.723,-100.611 108,-58 109.716,-49.1668 112.401,-39.6165 114.963,-31.4466"/>
<polygon fill="midnightblue" stroke="midnightblue" points="118.376,-32.271 118.167,-21.6782 111.725,-30.0889 118.376,-32.271"/>
</g>
<!-- Node14&#45;&gt;Node5 -->
<g id="edge44" class="edge"><title>Node14&#45;&gt;Node5</title>
<path fill="none" stroke="midnightblue" d="M187.327,-58.3619C175.486,-49.7773 158.615,-37.5459 144.984,-27.6636"/>
<polygon fill="midnightblue" stroke="midnightblue" points="146.731,-24.6067 136.58,-21.5707 142.622,-30.274 146.731,-24.6067"/>
</g>
<!-- Node14&#45;&gt;Node7 -->
<g id="edge42" class="edge"><title>Node14&#45;&gt;Node7</title>
<path fill="none" stroke="midnightblue" d="M254.289,-59.8097C321.496,-47.9976 436.492,-27.7863 495.185,-17.4705"/>
<polygon fill="midnightblue" stroke="midnightblue" points="495.883,-20.9016 505.126,-15.7233 494.671,-14.0073 495.883,-20.9016"/>
</g>
</g>
</svg>
