<?xml version="1.0" encoding="UTF-8" standalone="no"?>
<!DOCTYPE svg PUBLIC "-//W3C//DTD SVG 1.1//EN"
 "http://www.w3.org/Graphics/SVG/1.1/DTD/svg11.dtd">
<!-- Generated by graphviz version 2.26.3 (20100126.1600)
 -->
<!-- Title: parameter/VirtualSyncer.cpp Pages: 1 -->
<svg width="664pt" height="262pt"
 viewBox="0.00 0.00 664.00 262.00" xmlns="http://www.w3.org/2000/svg" xmlns:xlink="http://www.w3.org/1999/xlink">
<g id="graph1" class="graph" transform="scale(1 1) rotate(0) translate(4 258)">
<title>parameter/VirtualSyncer.cpp</title>
<polygon fill="white" stroke="white" points="-4,5 -4,-258 661,-258 661,5 -4,5"/>
<!-- Node1 -->
<g id="node1" class="node"><title>Node1</title>
<polygon fill="#bfbfbf" stroke="black" points="83,-232.5 83,-253.5 237,-253.5 237,-232.5 83,-232.5"/>
<text text-anchor="middle" x="160" y="-240.5" font-family="Verdana" font-size="10.00">parameter/VirtualSyncer.cpp</text>
</g>
<!-- Node2 -->
<g id="node3" class="node"><title>Node2</title>
<a xlink:href="VirtualSyncer_8h.html" target="_top" xlink:title="VirtualSyncer.h">
<polygon fill="white" stroke="black" points="19.5,-174.5 19.5,-195.5 108.5,-195.5 108.5,-174.5 19.5,-174.5"/>
<text text-anchor="middle" x="64" y="-182.5" font-family="Verdana" font-size="10.00">VirtualSyncer.h</text>
</a>
</g>
<!-- Node1&#45;&gt;Node2 -->
<g id="edge2" class="edge"><title>Node1&#45;&gt;Node2</title>
<path fill="none" stroke="midnightblue" d="M142.392,-232.362C127.777,-223.532 106.776,-210.844 90.1888,-200.822"/>
<polygon fill="midnightblue" stroke="midnightblue" points="91.8653,-197.746 81.4963,-195.571 88.2455,-203.738 91.8653,-197.746"/>
</g>
<!-- Node5 -->
<g id="node9" class="node"><title>Node5</title>
<a xlink:href="ConfigurableElement_8h.html" target="_top" xlink:title="ConfigurableElement.h">
<polygon fill="white" stroke="black" points="431.5,-174.5 431.5,-195.5 556.5,-195.5 556.5,-174.5 431.5,-174.5"/>
<text text-anchor="middle" x="494" y="-182.5" font-family="Verdana" font-size="10.00">ConfigurableElement.h</text>
</a>
</g>
<!-- Node1&#45;&gt;Node5 -->
<g id="edge8" class="edge"><title>Node1&#45;&gt;Node5</title>
<path fill="none" stroke="midnightblue" d="M220.485,-232.497C277.529,-222.591 363.03,-207.743 423.22,-197.291"/>
<polygon fill="midnightblue" stroke="midnightblue" points="424.148,-200.682 433.402,-195.523 422.95,-193.786 424.148,-200.682"/>
</g>
<!-- Node13 -->
<g id="node30" class="node"><title>Node13</title>
<a xlink:href="ParameterAccessContext_8h.html" target="_top" xlink:title="ParameterAccessContext.h">
<polygon fill="white" stroke="black" points="86.5,-116.5 86.5,-137.5 233.5,-137.5 233.5,-116.5 86.5,-116.5"/>
<text text-anchor="middle" x="160" y="-124.5" font-family="Verdana" font-size="10.00">ParameterAccessContext.h</text>
</a>
</g>
<!-- Node1&#45;&gt;Node13 -->
<g id="edge34" class="edge"><title>Node1&#45;&gt;Node13</title>
<path fill="none" stroke="midnightblue" d="M160,-232.295C160,-213.131 160,-172.654 160,-147.843"/>
<polygon fill="midnightblue" stroke="midnightblue" points="163.5,-147.679 160,-137.679 156.5,-147.679 163.5,-147.679"/>
</g>
<!-- Node3 -->
<g id="node5" class="node"><title>Node3</title>
<a xlink:href="Syncer_8h.html" target="_top" xlink:title="Syncer.h">
<polygon fill="white" stroke="black" points="0,-116.5 0,-137.5 58,-137.5 58,-116.5 0,-116.5"/>
<text text-anchor="middle" x="29" y="-124.5" font-family="Verdana" font-size="10.00">Syncer.h</text>
</a>
</g>
<!-- Node2&#45;&gt;Node3 -->
<g id="edge4" class="edge"><title>Node2&#45;&gt;Node3</title>
<path fill="none" stroke="midnightblue" d="M57.5805,-174.362C52.8441,-166.513 46.2682,-155.616 40.618,-146.253"/>
<polygon fill="midnightblue" stroke="midnightblue" points="43.5422,-144.324 35.3788,-137.571 37.5489,-147.941 43.5422,-144.324"/>
</g>
<!-- Node4 -->
<g id="node7" class="node"><title>Node4</title>
<polygon fill="white" stroke="#bfbfbf" points="138,-0.5 138,-21.5 182,-21.5 182,-0.5 138,-0.5"/>
<text text-anchor="middle" x="160" y="-8.5" font-family="Verdana" font-size="10.00">string</text>
</g>
<!-- Node3&#45;&gt;Node4 -->
<g id="edge6" class="edge"><title>Node3&#45;&gt;Node4</title>
<path fill="none" stroke="midnightblue" d="M27.1072,-116.407C25.106,-101.687 23.8286,-74.9497 37,-58 58.7374,-30.0272 99.2302,-18.698 127.806,-14.1125"/>
<polygon fill="midnightblue" stroke="midnightblue" points="128.325,-17.574 137.738,-12.71 127.346,-10.6428 128.325,-17.574"/>
</g>
<!-- Node6 -->
<g id="node11" class="node"><title>Node6</title>
<a xlink:href="Element_8h.html" target="_top" xlink:title="Element.h">
<polygon fill="white" stroke="black" points="461.5,-116.5 461.5,-137.5 526.5,-137.5 526.5,-116.5 461.5,-116.5"/>
<text text-anchor="middle" x="494" y="-124.5" font-family="Verdana" font-size="10.00">Element.h</text>
</a>
</g>
<!-- Node5&#45;&gt;Node6 -->
<g id="edge10" class="edge"><title>Node5&#45;&gt;Node6</title>
<path fill="none" stroke="midnightblue" d="M494,-174.362C494,-166.922 494,-156.743 494,-147.728"/>
<polygon fill="midnightblue" stroke="midnightblue" points="497.5,-147.571 494,-137.571 490.5,-147.571 497.5,-147.571"/>
</g>
<!-- Node9 -->
<g id="node18" class="node"><title>Node9</title>
<polygon fill="white" stroke="#bfbfbf" points="626,-58.5 626,-79.5 656,-79.5 656,-58.5 626,-58.5"/>
<text text-anchor="middle" x="641" y="-66.5" font-family="Verdana" font-size="10.00">list</text>
</g>
<!-- Node5&#45;&gt;Node9 -->
<g id="edge32" class="edge"><title>Node5&#45;&gt;Node9</title>
<path fill="none" stroke="midnightblue" d="M507.566,-174.295C533.163,-154.096 588.77,-110.216 619.504,-85.9632"/>
<polygon fill="midnightblue" stroke="midnightblue" points="621.785,-88.6215 627.467,-79.6792 617.448,-83.1264 621.785,-88.6215"/>
</g>
<!-- Node6&#45;&gt;Node4 -->
<g id="edge12" class="edge"><title>Node6&#45;&gt;Node4</title>
<path fill="none" stroke="midnightblue" d="M461.369,-125.045C414.087,-121.239 324.58,-110.339 255,-80 225.833,-67.2826 196.915,-44.4207 178.787,-28.5135"/>
<polygon fill="midnightblue" stroke="midnightblue" points="181.035,-25.8285 171.254,-21.7556 176.36,-31.0389 181.035,-25.8285"/>
</g>
<!-- Node7 -->
<g id="node14" class="node"><title>Node7</title>
<polygon fill="white" stroke="#bfbfbf" points="504.5,-0.5 504.5,-21.5 551.5,-21.5 551.5,-0.5 504.5,-0.5"/>
<text text-anchor="middle" x="528" y="-8.5" font-family="Verdana" font-size="10.00">vector</text>
</g>
<!-- Node6&#45;&gt;Node7 -->
<g id="edge14" class="edge"><title>Node6&#45;&gt;Node7</title>
<path fill="none" stroke="midnightblue" d="M526.728,-116.75C544.07,-109.461 563.838,-97.7556 574,-80 584.413,-61.8044 568.097,-41.9836 552.09,-28.2737"/>
<polygon fill="midnightblue" stroke="midnightblue" points="553.883,-25.2252 543.891,-21.7023 549.505,-30.6874 553.883,-25.2252"/>
</g>
<!-- Node8 -->
<g id="node16" class="node"><title>Node8</title>
<polygon fill="white" stroke="#bfbfbf" points="365.5,-0.5 365.5,-21.5 418.5,-21.5 418.5,-0.5 365.5,-0.5"/>
<text text-anchor="middle" x="392" y="-8.5" font-family="Verdana" font-size="10.00">stdint.h</text>
</g>
<!-- Node6&#45;&gt;Node8 -->
<g id="edge16" class="edge"><title>Node6&#45;&gt;Node8</title>
<path fill="none" stroke="midnightblue" d="M510.293,-116.321C529.15,-102.624 555.826,-78.2225 541,-58 527.611,-39.7378 468.306,-25.3044 428.673,-17.4738"/>
<polygon fill="midnightblue" stroke="midnightblue" points="429.295,-14.0292 418.814,-15.5808 427.975,-20.9037 429.295,-14.0292"/>
</g>
<!-- Node6&#45;&gt;Node9 -->
<g id="edge18" class="edge"><title>Node6&#45;&gt;Node9</title>
<path fill="none" stroke="midnightblue" d="M520.621,-116.497C547.912,-105.729 590.004,-89.121 616.497,-78.6677"/>
<polygon fill="midnightblue" stroke="midnightblue" points="617.807,-81.9137 625.824,-74.9877 615.238,-75.4023 617.807,-81.9137"/>
</g>
<!-- Node10 -->
<g id="node20" class="node"><title>Node10</title>
<polygon fill="white" stroke="#bfbfbf" points="264,-58.5 264,-79.5 328,-79.5 328,-58.5 264,-58.5"/>
<text text-anchor="middle" x="296" y="-66.5" font-family="Verdana" font-size="10.00">XmlSink.h</text>
</g>
<!-- Node6&#45;&gt;Node10 -->
<g id="edge20" class="edge"><title>Node6&#45;&gt;Node10</title>
<path fill="none" stroke="midnightblue" d="M461.304,-117.422C427.57,-107.541 374.827,-92.0906 338.018,-81.3082"/>
<polygon fill="midnightblue" stroke="midnightblue" points="338.668,-77.8517 328.087,-78.3993 336.7,-84.5694 338.668,-77.8517"/>
</g>
<!-- Node11 -->
<g id="node22" class="node"><title>Node11</title>
<polygon fill="white" stroke="#bfbfbf" points="455.5,-58.5 455.5,-79.5 532.5,-79.5 532.5,-58.5 455.5,-58.5"/>
<text text-anchor="middle" x="494" y="-66.5" font-family="Verdana" font-size="10.00">XmlSource.h</text>
</g>
<!-- Node6&#45;&gt;Node11 -->
<g id="edge22" class="edge"><title>Node6&#45;&gt;Node11</title>
<path fill="none" stroke="midnightblue" d="M494,-116.362C494,-108.922 494,-98.7427 494,-89.7276"/>
<polygon fill="midnightblue" stroke="midnightblue" points="497.5,-89.5706 494,-79.5707 490.5,-89.5707 497.5,-89.5706"/>
</g>
<!-- Node12 -->
<g id="node24" class="node"><title>Node12</title>
<a xlink:href="PathNavigator_8h.html" target="_top" xlink:title="PathNavigator.h">
<polygon fill="white" stroke="black" points="346,-58.5 346,-79.5 438,-79.5 438,-58.5 346,-58.5"/>
<text text-anchor="middle" x="392" y="-66.5" font-family="Verdana" font-size="10.00">PathNavigator.h</text>
</a>
</g>
<!-- Node6&#45;&gt;Node12 -->
<g id="edge24" class="edge"><title>Node6&#45;&gt;Node12</title>
<path fill="none" stroke="midnightblue" d="M475.292,-116.362C459.619,-107.45 437.036,-94.6087 419.337,-84.5447"/>
<polygon fill="midnightblue" stroke="midnightblue" points="421.013,-81.4712 410.59,-79.5707 417.553,-87.5562 421.013,-81.4712"/>
</g>
<!-- Node12&#45;&gt;Node4 -->
<g id="edge28" class="edge"><title>Node12&#45;&gt;Node4</title>
<path fill="none" stroke="midnightblue" d="M349.987,-58.4966C304.484,-47.121 232.914,-29.2286 191.838,-18.9594"/>
<polygon fill="midnightblue" stroke="midnightblue" points="192.636,-15.5514 182.086,-16.5215 190.938,-22.3424 192.636,-15.5514"/>
</g>
<!-- Node12&#45;&gt;Node7 -->
<g id="edge26" class="edge"><title>Node12&#45;&gt;Node7</title>
<path fill="none" stroke="midnightblue" d="M416.629,-58.4966C438.561,-49.1432 470.824,-35.3839 494.987,-25.0791"/>
<polygon fill="midnightblue" stroke="midnightblue" points="496.639,-28.1795 504.465,-21.0371 493.893,-21.7406 496.639,-28.1795"/>
</g>
<!-- Node12&#45;&gt;Node8 -->
<g id="edge30" class="edge"><title>Node12&#45;&gt;Node8</title>
<path fill="none" stroke="midnightblue" d="M392,-58.3619C392,-50.9219 392,-40.7427 392,-31.7276"/>
<polygon fill="midnightblue" stroke="midnightblue" points="395.5,-31.5706 392,-21.5707 388.5,-31.5707 395.5,-31.5706"/>
</g>
<!-- Node13&#45;&gt;Node4 -->
<g id="edge42" class="edge"><title>Node13&#45;&gt;Node4</title>
<path fill="none" stroke="midnightblue" d="M160,-116.295C160,-97.1314 160,-56.654 160,-31.8434"/>
<polygon fill="midnightblue" stroke="midnightblue" points="163.5,-31.6792 160,-21.6792 156.5,-31.6792 163.5,-31.6792"/>
</g>
<!-- Node13&#45;&gt;Node8 -->
<g id="edge36" class="edge"><title>Node13&#45;&gt;Node8</title>
<path fill="none" stroke="midnightblue" d="M172.117,-116.347C189.452,-101.556 222.805,-74.7336 255,-58 287.39,-41.1649 327.101,-28.3093 355.414,-20.3336"/>
<polygon fill="midnightblue" stroke="midnightblue" points="356.58,-23.643 365.294,-17.6177 354.724,-16.8934 356.58,-23.643"/>
</g>
<!-- Node14 -->
<g id="node33" class="node"><title>Node14</title>
<a xlink:href="ErrorContext_8h.html" target="_top" xlink:title="ErrorContext.h">
<polygon fill="white" stroke="black" points="46,-58.5 46,-79.5 132,-79.5 132,-58.5 46,-58.5"/>
<text text-anchor="middle" x="89" y="-66.5" font-family="Verdana" font-size="10.00">ErrorContext.h</text>
</a>
</g>
<!-- Node13&#45;&gt;Node14 -->
<g id="edge38" class="edge"><title>Node13&#45;&gt;Node14</title>
<path fill="none" stroke="midnightblue" d="M146.978,-116.362C136.569,-107.859 121.781,-95.7785 109.745,-85.9466"/>
<polygon fill="midnightblue" stroke="midnightblue" points="111.899,-83.1866 101.94,-79.5707 107.47,-88.6077 111.899,-83.1866"/>
</g>
<!-- Node14&#45;&gt;Node4 -->
<g id="edge40" class="edge"><title>Node14&#45;&gt;Node4</title>
<path fill="none" stroke="midnightblue" d="M102.022,-58.3619C112.431,-49.859 127.219,-37.7785 139.255,-27.9466"/>
<polygon fill="midnightblue" stroke="midnightblue" points="141.53,-30.6077 147.06,-21.5707 137.101,-25.1866 141.53,-30.6077"/>
</g>
</g>
</svg>
