<?xml version="1.0" encoding="UTF-8" standalone="no"?>
<!DOCTYPE svg PUBLIC "-//W3C//DTD SVG 1.1//EN"
 "http://www.w3.org/Graphics/SVG/1.1/DTD/svg11.dtd">
<!-- Generated by graphviz version 2.26.3 (20100126.1600)
 -->
<!-- Title: parameter/VirtualSubsystem.cpp Pages: 1 -->
<svg width="862pt" height="436pt"
 viewBox="0.00 0.00 862.00 436.00" xmlns="http://www.w3.org/2000/svg" xmlns:xlink="http://www.w3.org/1999/xlink">
<g id="graph1" class="graph" transform="scale(1 1) rotate(0) translate(4 432)">
<title>parameter/VirtualSubsystem.cpp</title>
<polygon fill="white" stroke="white" points="-4,5 -4,-432 859,-432 859,5 -4,5"/>
<!-- Node1 -->
<g id="node1" class="node"><title>Node1</title>
<polygon fill="#bfbfbf" stroke="black" points="678,-406.5 678,-427.5 854,-427.5 854,-406.5 678,-406.5"/>
<text text-anchor="middle" x="766" y="-414.5" font-family="Verdana" font-size="10.00">parameter/VirtualSubsystem.cpp</text>
</g>
<!-- Node2 -->
<g id="node3" class="node"><title>Node2</title>
<a xlink:href="VirtualSubsystem_8h.html" target="_top" xlink:title="VirtualSubsystem.h">
<polygon fill="white" stroke="black" points="670,-348.5 670,-369.5 780,-369.5 780,-348.5 670,-348.5"/>
<text text-anchor="middle" x="725" y="-356.5" font-family="Verdana" font-size="10.00">VirtualSubsystem.h</text>
</a>
</g>
<!-- Node1&#45;&gt;Node2 -->
<g id="edge2" class="edge"><title>Node1&#45;&gt;Node2</title>
<path fill="none" stroke="midnightblue" d="M758.48,-406.362C752.874,-398.431 745.068,-387.389 738.403,-377.961"/>
<polygon fill="midnightblue" stroke="midnightblue" points="741.103,-375.716 732.472,-369.571 735.387,-379.757 741.103,-375.716"/>
</g>
<!-- Node17 -->
<g id="node46" class="node"><title>Node17</title>
<a xlink:href="VirtualSyncer_8h.html" target="_top" xlink:title="VirtualSyncer.h">
<polygon fill="white" stroke="black" points="763.5,-290.5 763.5,-311.5 852.5,-311.5 852.5,-290.5 763.5,-290.5"/>
<text text-anchor="middle" x="808" y="-298.5" font-family="Verdana" font-size="10.00">VirtualSyncer.h</text>
</a>
</g>
<!-- Node1&#45;&gt;Node17 -->
<g id="edge58" class="edge"><title>Node1&#45;&gt;Node17</title>
<path fill="none" stroke="midnightblue" d="M771.883,-406.426C776.919,-397.062 784.111,-382.914 789,-370 794.97,-354.229 799.951,-335.787 803.312,-321.939"/>
<polygon fill="midnightblue" stroke="midnightblue" points="806.778,-322.491 805.649,-311.956 799.962,-320.895 806.778,-322.491"/>
</g>
<!-- Node3 -->
<g id="node5" class="node"><title>Node3</title>
<a xlink:href="Subsystem_8h.html" target="_top" xlink:title="Subsystem.h">
<polygon fill="white" stroke="black" points="522,-290.5 522,-311.5 602,-311.5 602,-290.5 522,-290.5"/>
<text text-anchor="middle" x="562" y="-298.5" font-family="Verdana" font-size="10.00">Subsystem.h</text>
</a>
</g>
<!-- Node2&#45;&gt;Node3 -->
<g id="edge4" class="edge"><title>Node2&#45;&gt;Node3</title>
<path fill="none" stroke="midnightblue" d="M695.482,-348.497C669.024,-339.082 630.021,-325.204 601,-314.877"/>
<polygon fill="midnightblue" stroke="midnightblue" points="602.168,-311.578 591.573,-311.523 599.821,-318.173 602.168,-311.578"/>
</g>
<!-- Node6 -->
<g id="node11" class="node"><title>Node6</title>
<polygon fill="white" stroke="#bfbfbf" points="584,-0.5 584,-21.5 628,-21.5 628,-0.5 584,-0.5"/>
<text text-anchor="middle" x="606" y="-8.5" font-family="Verdana" font-size="10.00">string</text>
</g>
<!-- Node2&#45;&gt;Node6 -->
<g id="edge56" class="edge"><title>Node2&#45;&gt;Node6</title>
<path fill="none" stroke="midnightblue" d="M726.671,-348.476C729.748,-328.148 736,-282.042 736,-243 736,-243 736,-243 736,-127 736,-74.2972 675.781,-39.6002 637.314,-22.8124"/>
<polygon fill="midnightblue" stroke="midnightblue" points="638.628,-19.5683 628.053,-18.9301 635.922,-26.0241 638.628,-19.5683"/>
</g>
<!-- Node4 -->
<g id="node7" class="node"><title>Node4</title>
<a xlink:href="ConfigurableElement_8h.html" target="_top" xlink:title="ConfigurableElement.h">
<polygon fill="white" stroke="black" points="220.5,-174.5 220.5,-195.5 345.5,-195.5 345.5,-174.5 220.5,-174.5"/>
<text text-anchor="middle" x="283" y="-182.5" font-family="Verdana" font-size="10.00">ConfigurableElement.h</text>
</a>
</g>
<!-- Node3&#45;&gt;Node4 -->
<g id="edge6" class="edge"><title>Node3&#45;&gt;Node4</title>
<path fill="none" stroke="midnightblue" d="M521.962,-298.955C456.961,-294.813 332.547,-283.206 301,-254 287.842,-241.818 283.811,-221.332 282.791,-205.839"/>
<polygon fill="midnightblue" stroke="midnightblue" points="286.284,-205.524 282.494,-195.63 279.287,-205.728 286.284,-205.524"/>
</g>
<!-- Node3&#45;&gt;Node6 -->
<g id="edge52" class="edge"><title>Node3&#45;&gt;Node6</title>
<path fill="none" stroke="midnightblue" d="M602.235,-294.271C627.627,-287.998 659.247,-276.127 679,-254 700.182,-230.271 698,-216.808 698,-185 698,-185 698,-185 698,-127 698,-83.8597 658.456,-47.4263 631.219,-27.4482"/>
<polygon fill="midnightblue" stroke="midnightblue" points="633.061,-24.4641 622.874,-21.5524 629.022,-30.1812 633.061,-24.4641"/>
</g>
<!-- Node7 -->
<g id="node13" class="node"><title>Node7</title>
<polygon fill="white" stroke="#bfbfbf" points="14.5,-0.5 14.5,-21.5 61.5,-21.5 61.5,-0.5 14.5,-0.5"/>
<text text-anchor="middle" x="38" y="-8.5" font-family="Verdana" font-size="10.00">vector</text>
</g>
<!-- Node3&#45;&gt;Node7 -->
<g id="edge54" class="edge"><title>Node3&#45;&gt;Node7</title>
<path fill="none" stroke="midnightblue" d="M521.582,-296.962C392.721,-283.549 0,-238.3 0,-185 0,-185 0,-185 0,-127 0,-91.7411 16.0509,-53.3154 27.2892,-30.7323"/>
<polygon fill="midnightblue" stroke="midnightblue" points="30.4185,-32.3005 31.8946,-21.809 24.1981,-29.0901 30.4185,-32.3005"/>
</g>
<!-- Node9 -->
<g id="node17" class="node"><title>Node9</title>
<polygon fill="white" stroke="#bfbfbf" points="428,-58.5 428,-79.5 458,-79.5 458,-58.5 428,-58.5"/>
<text text-anchor="middle" x="443" y="-66.5" font-family="Verdana" font-size="10.00">list</text>
</g>
<!-- Node3&#45;&gt;Node9 -->
<g id="edge48" class="edge"><title>Node3&#45;&gt;Node9</title>
<path fill="none" stroke="midnightblue" d="M556.578,-290.429C538.07,-254.346 477.204,-135.683 453.028,-88.5499"/>
<polygon fill="midnightblue" stroke="midnightblue" points="456.132,-86.9339 448.454,-79.6335 449.904,-90.1287 456.132,-86.9339"/>
</g>
<!-- Node13 -->
<g id="node29" class="node"><title>Node13</title>
<a xlink:href="ConfigurableElementWithMapping_8h.html" target="_top" xlink:title="ConfigurableElementWithMapping.h">
<polygon fill="white" stroke="black" points="310,-232.5 310,-253.5 496,-253.5 496,-232.5 310,-232.5"/>
<text text-anchor="middle" x="403" y="-240.5" font-family="Verdana" font-size="10.00">ConfigurableElementWithMapping.h</text>
</a>
</g>
<!-- Node3&#45;&gt;Node13 -->
<g id="edge32" class="edge"><title>Node3&#45;&gt;Node13</title>
<path fill="none" stroke="midnightblue" d="M533.206,-290.497C507.509,-281.123 469.682,-267.324 441.413,-257.012"/>
<polygon fill="midnightblue" stroke="midnightblue" points="442.442,-253.662 431.848,-253.523 440.043,-260.238 442.442,-253.662"/>
</g>
<!-- Node14 -->
<g id="node33" class="node"><title>Node14</title>
<a xlink:href="Mapper_8h.html" target="_top" xlink:title="Mapper.h">
<polygon fill="white" stroke="black" points="599.5,-174.5 599.5,-195.5 660.5,-195.5 660.5,-174.5 599.5,-174.5"/>
<text text-anchor="middle" x="630" y="-182.5" font-family="Verdana" font-size="10.00">Mapper.h</text>
</a>
</g>
<!-- Node3&#45;&gt;Node14 -->
<g id="edge38" class="edge"><title>Node3&#45;&gt;Node14</title>
<path fill="none" stroke="midnightblue" d="M568.275,-290.295C579.712,-270.786 604.096,-229.188 618.559,-204.518"/>
<polygon fill="midnightblue" stroke="midnightblue" points="621.702,-206.076 623.74,-195.679 615.663,-202.536 621.702,-206.076"/>
</g>
<!-- Node15 -->
<g id="node36" class="node"><title>Node15</title>
<a xlink:href="MappingContext_8h.html" target="_top" xlink:title="MappingContext.h">
<polygon fill="white" stroke="black" points="514,-58.5 514,-79.5 618,-79.5 618,-58.5 514,-58.5"/>
<text text-anchor="middle" x="566" y="-66.5" font-family="Verdana" font-size="10.00">MappingContext.h</text>
</a>
</g>
<!-- Node3&#45;&gt;Node15 -->
<g id="edge42" class="edge"><title>Node3&#45;&gt;Node15</title>
<path fill="none" stroke="midnightblue" d="M562.182,-290.429C562.799,-254.648 564.816,-137.663 565.642,-89.7481"/>
<polygon fill="midnightblue" stroke="midnightblue" points="569.144,-89.6924 565.817,-79.6335 562.145,-89.5717 569.144,-89.6924"/>
</g>
<!-- Node16 -->
<g id="node41" class="node"><title>Node16</title>
<polygon fill="white" stroke="#bfbfbf" points="628,-232.5 628,-253.5 670,-253.5 670,-232.5 628,-232.5"/>
<text text-anchor="middle" x="649" y="-240.5" font-family="Verdana" font-size="10.00">stack</text>
</g>
<!-- Node3&#45;&gt;Node16 -->
<g id="edge50" class="edge"><title>Node3&#45;&gt;Node16</title>
<path fill="none" stroke="midnightblue" d="M577.957,-290.362C590.957,-281.696 609.531,-269.313 624.427,-259.382"/>
<polygon fill="midnightblue" stroke="midnightblue" points="626.765,-262.03 633.144,-253.571 622.882,-256.206 626.765,-262.03"/>
</g>
<!-- Node5 -->
<g id="node9" class="node"><title>Node5</title>
<a xlink:href="Element_8h.html" target="_top" xlink:title="Element.h">
<polygon fill="white" stroke="black" points="220.5,-116.5 220.5,-137.5 285.5,-137.5 285.5,-116.5 220.5,-116.5"/>
<text text-anchor="middle" x="253" y="-124.5" font-family="Verdana" font-size="10.00">Element.h</text>
</a>
</g>
<!-- Node4&#45;&gt;Node5 -->
<g id="edge8" class="edge"><title>Node4&#45;&gt;Node5</title>
<path fill="none" stroke="midnightblue" d="M277.498,-174.362C273.48,-166.595 267.919,-155.843 263.11,-146.546"/>
<polygon fill="midnightblue" stroke="midnightblue" points="266.171,-144.845 258.468,-137.571 259.953,-148.061 266.171,-144.845"/>
</g>
<!-- Node4&#45;&gt;Node9 -->
<g id="edge30" class="edge"><title>Node4&#45;&gt;Node9</title>
<path fill="none" stroke="midnightblue" d="M297.766,-174.295C325.746,-154.009 386.669,-109.84 420.03,-85.6534"/>
<polygon fill="midnightblue" stroke="midnightblue" points="422.228,-88.3826 428.27,-79.6792 418.12,-82.7153 422.228,-88.3826"/>
</g>
<!-- Node5&#45;&gt;Node6 -->
<g id="edge10" class="edge"><title>Node5&#45;&gt;Node6</title>
<path fill="none" stroke="midnightblue" d="M285.718,-116.727C311.963,-108.075 349.491,-94.7704 381,-80 398.67,-71.7169 400.917,-65.3384 419,-58 471.31,-36.7713 535.853,-23.1153 573.811,-16.2675"/>
<polygon fill="midnightblue" stroke="midnightblue" points="574.536,-19.6938 583.779,-14.5159 573.324,-12.7994 574.536,-19.6938"/>
</g>
<!-- Node5&#45;&gt;Node7 -->
<g id="edge12" class="edge"><title>Node5&#45;&gt;Node7</title>
<path fill="none" stroke="midnightblue" d="M220.202,-124.656C183.843,-120.618 124.937,-109.661 84,-80 66.7855,-67.527 54.1258,-46.4876 46.4936,-30.9133"/>
<polygon fill="midnightblue" stroke="midnightblue" points="49.5715,-29.2294 42.2068,-21.6128 43.2143,-32.1596 49.5715,-29.2294"/>
</g>
<!-- Node8 -->
<g id="node15" class="node"><title>Node8</title>
<polygon fill="white" stroke="#bfbfbf" points="299.5,-0.5 299.5,-21.5 352.5,-21.5 352.5,-0.5 299.5,-0.5"/>
<text text-anchor="middle" x="326" y="-8.5" font-family="Verdana" font-size="10.00">stdint.h</text>
</g>
<!-- Node5&#45;&gt;Node8 -->
<g id="edge14" class="edge"><title>Node5&#45;&gt;Node8</title>
<path fill="none" stroke="midnightblue" d="M220.178,-124.432C164.03,-118.804 58.9229,-102.157 95,-58 119.122,-28.476 230.487,-17.0317 289.33,-12.9888"/>
<polygon fill="midnightblue" stroke="midnightblue" points="289.579,-16.4801 299.331,-12.3384 289.125,-9.4949 289.579,-16.4801"/>
</g>
<!-- Node5&#45;&gt;Node9 -->
<g id="edge16" class="edge"><title>Node5&#45;&gt;Node9</title>
<path fill="none" stroke="midnightblue" d="M285.612,-118.289C318.302,-109.368 369.963,-94.7544 414,-80 415.404,-79.5296 416.841,-79.0333 418.288,-78.5221"/>
<polygon fill="midnightblue" stroke="midnightblue" points="419.552,-81.7863 427.729,-75.0493 417.136,-75.2166 419.552,-81.7863"/>
</g>
<!-- Node10 -->
<g id="node19" class="node"><title>Node10</title>
<polygon fill="white" stroke="#bfbfbf" points="104,-58.5 104,-79.5 168,-79.5 168,-58.5 104,-58.5"/>
<text text-anchor="middle" x="136" y="-66.5" font-family="Verdana" font-size="10.00">XmlSink.h</text>
</g>
<!-- Node5&#45;&gt;Node10 -->
<g id="edge18" class="edge"><title>Node5&#45;&gt;Node10</title>
<path fill="none" stroke="midnightblue" d="M231.812,-116.497C213.538,-107.438 186.928,-94.2462 166.385,-84.0628"/>
<polygon fill="midnightblue" stroke="midnightblue" points="167.94,-80.9269 157.426,-79.6212 164.831,-87.1986 167.94,-80.9269"/>
</g>
<!-- Node11 -->
<g id="node21" class="node"><title>Node11</title>
<polygon fill="white" stroke="#bfbfbf" points="185.5,-58.5 185.5,-79.5 262.5,-79.5 262.5,-58.5 185.5,-58.5"/>
<text text-anchor="middle" x="224" y="-66.5" font-family="Verdana" font-size="10.00">XmlSource.h</text>
</g>
<!-- Node5&#45;&gt;Node11 -->
<g id="edge20" class="edge"><title>Node5&#45;&gt;Node11</title>
<path fill="none" stroke="midnightblue" d="M247.681,-116.362C243.797,-108.595 238.421,-97.8426 233.773,-88.5458"/>
<polygon fill="midnightblue" stroke="midnightblue" points="236.888,-86.9497 229.285,-79.5707 230.627,-90.0802 236.888,-86.9497"/>
</g>
<!-- Node12 -->
<g id="node23" class="node"><title>Node12</title>
<a xlink:href="PathNavigator_8h.html" target="_top" xlink:title="PathNavigator.h">
<polygon fill="white" stroke="black" points="280,-58.5 280,-79.5 372,-79.5 372,-58.5 280,-58.5"/>
<text text-anchor="middle" x="326" y="-66.5" font-family="Verdana" font-size="10.00">PathNavigator.h</text>
</a>
</g>
<!-- Node5&#45;&gt;Node12 -->
<g id="edge22" class="edge"><title>Node5&#45;&gt;Node12</title>
<path fill="none" stroke="midnightblue" d="M266.389,-116.362C277.091,-107.859 292.296,-95.7785 304.671,-85.9466"/>
<polygon fill="midnightblue" stroke="midnightblue" points="307.043,-88.5318 312.696,-79.5707 302.689,-83.0511 307.043,-88.5318"/>
</g>
<!-- Node12&#45;&gt;Node6 -->
<g id="edge26" class="edge"><title>Node12&#45;&gt;Node6</title>
<path fill="none" stroke="midnightblue" d="M372.236,-59.4225C429.226,-47.6174 524.581,-27.8654 574.05,-17.6183"/>
<polygon fill="midnightblue" stroke="midnightblue" points="574.797,-21.0379 583.879,-15.5822 573.377,-14.1834 574.797,-21.0379"/>
</g>
<!-- Node12&#45;&gt;Node7 -->
<g id="edge24" class="edge"><title>Node12&#45;&gt;Node7</title>
<path fill="none" stroke="midnightblue" d="M279.728,-59.6813C221.564,-47.9677 123.123,-28.1428 71.646,-17.7759"/>
<polygon fill="midnightblue" stroke="midnightblue" points="72.1982,-14.3169 61.704,-15.7737 70.8162,-21.1792 72.1982,-14.3169"/>
</g>
<!-- Node12&#45;&gt;Node8 -->
<g id="edge28" class="edge"><title>Node12&#45;&gt;Node8</title>
<path fill="none" stroke="midnightblue" d="M326,-58.3619C326,-50.9219 326,-40.7427 326,-31.7276"/>
<polygon fill="midnightblue" stroke="midnightblue" points="329.5,-31.5706 326,-21.5707 322.5,-31.5707 329.5,-31.5706"/>
</g>
<!-- Node13&#45;&gt;Node4 -->
<g id="edge34" class="edge"><title>Node13&#45;&gt;Node4</title>
<path fill="none" stroke="midnightblue" d="M381.269,-232.497C362.526,-223.438 335.233,-210.246 314.164,-200.063"/>
<polygon fill="midnightblue" stroke="midnightblue" points="315.502,-196.822 304.975,-195.621 312.455,-203.124 315.502,-196.822"/>
</g>
<!-- Node13&#45;&gt;Node6 -->
<g id="edge36" class="edge"><title>Node13&#45;&gt;Node6</title>
<path fill="none" stroke="midnightblue" d="M406.244,-232.319C416.134,-201.381 448.71,-110.569 505,-58 524.646,-39.6529 552.731,-27.3739 574.3,-19.9821"/>
<polygon fill="midnightblue" stroke="midnightblue" points="575.568,-23.2504 583.998,-16.8333 573.406,-16.5926 575.568,-23.2504"/>
</g>
<!-- Node14&#45;&gt;Node6 -->
<g id="edge40" class="edge"><title>Node14&#45;&gt;Node6</title>
<path fill="none" stroke="midnightblue" d="M631.151,-174.29C633.218,-152.211 636.514,-100.167 627,-58 624.902,-48.703 620.908,-38.9959 616.962,-30.8336"/>
<polygon fill="midnightblue" stroke="midnightblue" points="619.989,-29.0665 612.302,-21.775 613.764,-32.2685 619.989,-29.0665"/>
</g>
<!-- Node15&#45;&gt;Node6 -->
<g id="edge46" class="edge"><title>Node15&#45;&gt;Node6</title>
<path fill="none" stroke="midnightblue" d="M573.337,-58.3619C578.806,-50.4313 586.422,-39.3885 592.924,-29.9606"/>
<polygon fill="midnightblue" stroke="midnightblue" points="595.914,-31.7899 598.71,-21.5707 590.151,-27.8157 595.914,-31.7899"/>
</g>
<!-- Node15&#45;&gt;Node8 -->
<g id="edge44" class="edge"><title>Node15&#45;&gt;Node8</title>
<path fill="none" stroke="midnightblue" d="M522.538,-58.4966C476.768,-47.4355 405.501,-30.2128 362.531,-19.8282"/>
<polygon fill="midnightblue" stroke="midnightblue" points="363.312,-16.4163 352.769,-17.4692 361.667,-23.2204 363.312,-16.4163"/>
</g>
<!-- Node18 -->
<g id="node48" class="node"><title>Node18</title>
<a xlink:href="Syncer_8h.html" target="_top" xlink:title="Syncer.h">
<polygon fill="white" stroke="black" points="768,-116.5 768,-137.5 826,-137.5 826,-116.5 768,-116.5"/>
<text text-anchor="middle" x="797" y="-124.5" font-family="Verdana" font-size="10.00">Syncer.h</text>
</a>
</g>
<!-- Node17&#45;&gt;Node18 -->
<g id="edge60" class="edge"><title>Node17&#45;&gt;Node18</title>
<path fill="none" stroke="midnightblue" d="M807.328,-290.377C805.553,-262.293 800.709,-185.673 798.34,-148.203"/>
<polygon fill="midnightblue" stroke="midnightblue" points="801.815,-147.687 797.691,-137.928 794.829,-148.129 801.815,-147.687"/>
</g>
<!-- Node18&#45;&gt;Node6 -->
<g id="edge62" class="edge"><title>Node18&#45;&gt;Node6</title>
<path fill="none" stroke="midnightblue" d="M792.432,-116.257C785.458,-101.107 770.745,-73.5804 750,-58 716.561,-32.8861 669.1,-20.837 637.941,-15.3122"/>
<polygon fill="midnightblue" stroke="midnightblue" points="638.479,-11.8537 628.043,-13.6792 637.339,-18.7604 638.479,-11.8537"/>
</g>
</g>
</svg>
