<?xml version="1.0" encoding="UTF-8" standalone="no"?>
<!DOCTYPE svg PUBLIC "-//W3C//DTD SVG 1.1//EN"
 "http://www.w3.org/Graphics/SVG/1.1/DTD/svg11.dtd">
<!-- Generated by graphviz version 2.26.3 (20100126.1600)
 -->
<!-- Title: parameter/XmlDomainExportContext.h Pages: 1 -->
<svg width="266pt" height="218pt"
 viewBox="0.00 0.00 266.00 218.00" xmlns="http://www.w3.org/2000/svg" xmlns:xlink="http://www.w3.org/1999/xlink">
<g id="graph1" class="graph" transform="scale(1 1) rotate(0) translate(4 214)">
<title>parameter/XmlDomainExportContext.h</title>
<polygon fill="white" stroke="white" points="-4,5 -4,-214 263,-214 263,5 -4,5"/>
<!-- Node1 -->
<g id="node1" class="node"><title>Node1</title>
<polygon fill="#bfbfbf" stroke="black" points="101.5,-175 101.5,-209 258.5,-209 258.5,-175 101.5,-175"/>
<text text-anchor="start" x="109.5" y="-196" font-family="Verdana" font-size="10.00">parameter/XmlDomainExport</text>
<text text-anchor="middle" x="180" y="-183" font-family="Verdana" font-size="10.00">Context.h</text>
</g>
<!-- Node2 -->
<g id="node3" class="node"><title>Node2</title>
<a xlink:href="XmlDomainSerializingContext_8h.html" target="_top" xlink:title="XmlDomainSerializingContext.h">
<polygon fill="white" stroke="black" points="41.5,-116.5 41.5,-137.5 208.5,-137.5 208.5,-116.5 41.5,-116.5"/>
<text text-anchor="middle" x="125" y="-124.5" font-family="Verdana" font-size="10.00">XmlDomainSerializingContext.h</text>
</a>
</g>
<!-- Node1&#45;&gt;Node2 -->
<g id="edge2" class="edge"><title>Node1&#45;&gt;Node2</title>
<path fill="none" stroke="midnightblue" d="M165.549,-174.922C157.947,-165.937 148.612,-154.905 140.816,-145.691"/>
<polygon fill="midnightblue" stroke="midnightblue" points="143.314,-143.225 134.183,-137.852 137.97,-147.747 143.314,-143.225"/>
</g>
<!-- Node5 -->
<g id="node9" class="node"><title>Node5</title>
<polygon fill="white" stroke="#bfbfbf" points="176,-0.5 176,-21.5 220,-21.5 220,-0.5 176,-0.5"/>
<text text-anchor="middle" x="198" y="-8.5" font-family="Verdana" font-size="10.00">string</text>
</g>
<!-- Node1&#45;&gt;Node5 -->
<g id="edge12" class="edge"><title>Node1&#45;&gt;Node5</title>
<path fill="none" stroke="midnightblue" d="M195.656,-174.949C203.734,-164.973 212.763,-151.678 217,-138 228.363,-101.314 215.83,-56.4942 206.415,-31.0988"/>
<polygon fill="midnightblue" stroke="midnightblue" points="209.673,-29.8194 202.772,-21.7803 203.154,-32.3682 209.673,-29.8194"/>
</g>
<!-- Node3 -->
<g id="node5" class="node"><title>Node3</title>
<a xlink:href="XmlElementSerializingContext_8h.html" target="_top" xlink:title="XmlElementSerializingContext.h">
<polygon fill="white" stroke="black" points="0,-58.5 0,-79.5 170,-79.5 170,-58.5 0,-58.5"/>
<text text-anchor="middle" x="85" y="-66.5" font-family="Verdana" font-size="10.00">XmlElementSerializingContext.h</text>
</a>
</g>
<!-- Node2&#45;&gt;Node3 -->
<g id="edge4" class="edge"><title>Node2&#45;&gt;Node3</title>
<path fill="none" stroke="midnightblue" d="M117.663,-116.362C112.194,-108.431 104.578,-97.3885 98.0763,-87.9606"/>
<polygon fill="midnightblue" stroke="midnightblue" points="100.849,-85.8157 92.2901,-79.5707 95.0862,-89.7899 100.849,-85.8157"/>
</g>
<!-- Node2&#45;&gt;Node5 -->
<g id="edge10" class="edge"><title>Node2&#45;&gt;Node5</title>
<path fill="none" stroke="midnightblue" d="M141.743,-116.405C153.794,-107.945 169.534,-95.0427 179,-80 188.281,-65.2509 193.095,-45.9527 195.552,-31.5167"/>
<polygon fill="midnightblue" stroke="midnightblue" points="199.021,-31.9823 197.005,-21.581 192.094,-30.9689 199.021,-31.9823"/>
</g>
<!-- Node4 -->
<g id="node7" class="node"><title>Node4</title>
<polygon fill="white" stroke="#bfbfbf" points="20,-0.5 20,-21.5 150,-21.5 150,-0.5 20,-0.5"/>
<text text-anchor="middle" x="85" y="-8.5" font-family="Verdana" font-size="10.00">XmlSerializingContext.h</text>
</g>
<!-- Node3&#45;&gt;Node4 -->
<g id="edge6" class="edge"><title>Node3&#45;&gt;Node4</title>
<path fill="none" stroke="midnightblue" d="M85,-58.3619C85,-50.9219 85,-40.7427 85,-31.7276"/>
<polygon fill="midnightblue" stroke="midnightblue" points="88.5001,-31.5706 85,-21.5707 81.5001,-31.5707 88.5001,-31.5706"/>
</g>
<!-- Node3&#45;&gt;Node5 -->
<g id="edge8" class="edge"><title>Node3&#45;&gt;Node5</title>
<path fill="none" stroke="midnightblue" d="M105.463,-58.4966C123.033,-49.4786 148.582,-36.3649 168.385,-26.2006"/>
<polygon fill="midnightblue" stroke="midnightblue" points="170.009,-29.3014 177.307,-21.6212 166.812,-23.0738 170.009,-29.3014"/>
</g>
</g>
</svg>
