<?xml version="1.0" encoding="UTF-8" standalone="no"?>
<!DOCTYPE svg PUBLIC "-//W3C//DTD SVG 1.1//EN"
 "http://www.w3.org/Graphics/SVG/1.1/DTD/svg11.dtd">
<!-- Generated by graphviz version 2.26.3 (20100126.1600)
 -->
<!-- Title: parameter/XmlDomainSerializingContext.h Pages: 1 -->
<svg width="236pt" height="160pt"
 viewBox="0.00 0.00 236.00 160.00" xmlns="http://www.w3.org/2000/svg" xmlns:xlink="http://www.w3.org/1999/xlink">
<g id="graph1" class="graph" transform="scale(1 1) rotate(0) translate(4 156)">
<title>parameter/XmlDomainSerializingContext.h</title>
<polygon fill="white" stroke="white" points="-4,5 -4,-156 233,-156 233,5 -4,5"/>
<!-- Node1 -->
<g id="node1" class="node"><title>Node1</title>
<polygon fill="#bfbfbf" stroke="black" points="53.5,-117 53.5,-151 228.5,-151 228.5,-117 53.5,-117"/>
<text text-anchor="start" x="61.5" y="-138" font-family="Verdana" font-size="10.00">parameter/XmlDomainSerializing</text>
<text text-anchor="middle" x="141" y="-125" font-family="Verdana" font-size="10.00">Context.h</text>
</g>
<!-- Node2 -->
<g id="node3" class="node"><title>Node2</title>
<a xlink:href="XmlElementSerializingContext_8h.html" target="_top" xlink:title="XmlElementSerializingContext.h">
<polygon fill="white" stroke="black" points="0,-58.5 0,-79.5 170,-79.5 170,-58.5 0,-58.5"/>
<text text-anchor="middle" x="85" y="-66.5" font-family="Verdana" font-size="10.00">XmlElementSerializingContext.h</text>
</a>
</g>
<!-- Node1&#45;&gt;Node2 -->
<g id="edge2" class="edge"><title>Node1&#45;&gt;Node2</title>
<path fill="none" stroke="midnightblue" d="M126.287,-116.922C118.546,-107.937 109.041,-96.9047 101.103,-87.6912"/>
<polygon fill="midnightblue" stroke="midnightblue" points="103.528,-85.1437 94.3495,-79.8521 98.225,-89.7127 103.528,-85.1437"/>
</g>
<!-- Node4 -->
<g id="node7" class="node"><title>Node4</title>
<polygon fill="white" stroke="#bfbfbf" points="172,-0.5 172,-21.5 216,-21.5 216,-0.5 172,-0.5"/>
<text text-anchor="middle" x="194" y="-8.5" font-family="Verdana" font-size="10.00">string</text>
</g>
<!-- Node1&#45;&gt;Node4 -->
<g id="edge8" class="edge"><title>Node1&#45;&gt;Node4</title>
<path fill="none" stroke="midnightblue" d="M155.954,-116.599C163.898,-106.514 173.194,-93.226 179,-80 185.765,-64.5883 189.588,-45.8609 191.679,-31.8072"/>
<polygon fill="midnightblue" stroke="midnightblue" points="195.176,-32.0618 193.008,-21.6911 188.235,-31.1502 195.176,-32.0618"/>
</g>
<!-- Node3 -->
<g id="node5" class="node"><title>Node3</title>
<polygon fill="white" stroke="#bfbfbf" points="20,-0.5 20,-21.5 150,-21.5 150,-0.5 20,-0.5"/>
<text text-anchor="middle" x="85" y="-8.5" font-family="Verdana" font-size="10.00">XmlSerializingContext.h</text>
</g>
<!-- Node2&#45;&gt;Node3 -->
<g id="edge4" class="edge"><title>Node2&#45;&gt;Node3</title>
<path fill="none" stroke="midnightblue" d="M85,-58.3619C85,-50.9219 85,-40.7427 85,-31.7276"/>
<polygon fill="midnightblue" stroke="midnightblue" points="88.5001,-31.5706 85,-21.5707 81.5001,-31.5707 88.5001,-31.5706"/>
</g>
<!-- Node2&#45;&gt;Node4 -->
<g id="edge6" class="edge"><title>Node2&#45;&gt;Node4</title>
<path fill="none" stroke="midnightblue" d="M104.739,-58.4966C121.61,-49.5194 146.109,-36.4835 165.174,-26.3387"/>
<polygon fill="midnightblue" stroke="midnightblue" points="166.856,-29.4086 174.039,-21.6212 163.567,-23.2289 166.856,-29.4086"/>
</g>
</g>
</svg>
