<?xml version="1.0" encoding="UTF-8" standalone="no"?>
<!DOCTYPE svg PUBLIC "-//W3C//DTD SVG 1.1//EN"
 "http://www.w3.org/Graphics/SVG/1.1/DTD/svg11.dtd">
<!-- Generated by graphviz version 2.26.3 (20100126.1600)
 -->
<!-- Title: parameter/XmlDomainSerializingContext.h Pages: 1 -->
<svg width="836pt" height="246pt"
 viewBox="0.00 0.00 836.00 246.00" xmlns="http://www.w3.org/2000/svg" xmlns:xlink="http://www.w3.org/1999/xlink">
<g id="graph1" class="graph" transform="scale(1 1) rotate(0) translate(4 242)">
<title>parameter/XmlDomainSerializingContext.h</title>
<polygon fill="white" stroke="white" points="-4,5 -4,-242 833,-242 833,5 -4,5"/>
<!-- Node1 -->
<g id="node1" class="node"><title>Node1</title>
<polygon fill="#bfbfbf" stroke="black" points="445.5,-203 445.5,-237 620.5,-237 620.5,-203 445.5,-203"/>
<text text-anchor="start" x="453.5" y="-224" font-family="Verdana" font-size="10.00">parameter/XmlDomainSerializing</text>
<text text-anchor="middle" x="533" y="-211" font-family="Verdana" font-size="10.00">Context.h</text>
</g>
<!-- Node2 -->
<g id="node3" class="node"><title>Node2</title>
<a xlink:href="XmlDomainImportContext_8h.html" target="_top" xlink:title="parameter/XmlDomainImport\lContext.h">
<polygon fill="white" stroke="black" points="395,-131 395,-165 553,-165 553,-131 395,-131"/>
<text text-anchor="start" x="403" y="-152" font-family="Verdana" font-size="10.00">parameter/XmlDomainImport</text>
<text text-anchor="middle" x="474" y="-139" font-family="Verdana" font-size="10.00">Context.h</text>
</a>
</g>
<!-- Node1&#45;&gt;Node2 -->
<g id="edge2" class="edge"><title>Node1&#45;&gt;Node2</title>
<path fill="none" stroke="midnightblue" d="M512.584,-195.086C504.578,-185.315 495.582,-174.337 488.292,-165.441"/>
<polygon fill="midnightblue" stroke="midnightblue" points="509.972,-197.421 519.018,-202.937 515.387,-192.984 509.972,-197.421"/>
</g>
<!-- Node4 -->
<g id="node7" class="node"><title>Node4</title>
<a xlink:href="ConfigurableDomain_8cpp.html" target="_top" xlink:title="parameter/ConfigurableDomain.cpp">
<polygon fill="white" stroke="black" points="420,-0.5 420,-21.5 608,-21.5 608,-0.5 420,-0.5"/>
<text text-anchor="middle" x="514" y="-8.5" font-family="Verdana" font-size="10.00">parameter/ConfigurableDomain.cpp</text>
</a>
</g>
<!-- Node1&#45;&gt;Node4 -->
<g id="edge22" class="edge"><title>Node1&#45;&gt;Node4</title>
<path fill="none" stroke="midnightblue" d="M434.972,-216.46C273.544,-207.288 -20.4793,-174.521 84,-58 84.6991,-57.2203 293.48,-34.6775 419.827,-21.1"/>
<polygon fill="midnightblue" stroke="midnightblue" points="435.231,-219.979 445.407,-217.031 435.613,-212.99 435.231,-219.979"/>
</g>
<!-- Node7 -->
<g id="node13" class="node"><title>Node7</title>
<a xlink:href="ParameterMgr_8cpp.html" target="_top" xlink:title="parameter/ParameterMgr.cpp">
<polygon fill="white" stroke="black" points="670,-0.5 670,-21.5 828,-21.5 828,-0.5 670,-0.5"/>
<text text-anchor="middle" x="749" y="-8.5" font-family="Verdana" font-size="10.00">parameter/ParameterMgr.cpp</text>
</a>
</g>
<!-- Node1&#45;&gt;Node7 -->
<g id="edge34" class="edge"><title>Node1&#45;&gt;Node7</title>
<path fill="none" stroke="midnightblue" d="M630.787,-213.527C699.836,-206.68 783.856,-192.953 806,-166 843.312,-120.585 784.315,-48.5111 759.328,-21.5966"/>
<polygon fill="midnightblue" stroke="midnightblue" points="630.34,-210.054 620.718,-214.488 631.005,-217.022 630.34,-210.054"/>
</g>
<!-- Node8 -->
<g id="node16" class="node"><title>Node8</title>
<a xlink:href="DomainConfiguration_8cpp.html" target="_top" xlink:title="parameter/DomainConfiguration.cpp">
<polygon fill="white" stroke="black" points="535,-65.5 535,-86.5 727,-86.5 727,-65.5 535,-65.5"/>
<text text-anchor="middle" x="631" y="-73.5" font-family="Verdana" font-size="10.00">parameter/DomainConfiguration.cpp</text>
</a>
</g>
<!-- Node1&#45;&gt;Node8 -->
<g id="edge32" class="edge"><title>Node1&#45;&gt;Node8</title>
<path fill="none" stroke="midnightblue" d="M550.353,-194.501C572.132,-162.5 608.488,-109.079 623.826,-86.5413"/>
<polygon fill="midnightblue" stroke="midnightblue" points="547.36,-192.679 544.627,-202.916 553.147,-196.618 547.36,-192.679"/>
</g>
<!-- Node9 -->
<g id="node19" class="node"><title>Node9</title>
<a xlink:href="SelectionCriterionRule_8cpp.html" target="_top" xlink:title="parameter/SelectionCriterion\lRule.cpp">
<polygon fill="white" stroke="black" points="92.5,-59 92.5,-93 247.5,-93 247.5,-59 92.5,-59"/>
<text text-anchor="start" x="100.5" y="-80" font-family="Verdana" font-size="10.00">parameter/SelectionCriterion</text>
<text text-anchor="middle" x="170" y="-67" font-family="Verdana" font-size="10.00">Rule.cpp</text>
</a>
</g>
<!-- Node1&#45;&gt;Node9 -->
<g id="edge36" class="edge"><title>Node1&#45;&gt;Node9</title>
<path fill="none" stroke="midnightblue" d="M475.073,-199.367C447.923,-189.532 415.197,-177.439 386,-166 323.966,-141.695 252.767,-111.595 209.604,-93.0993"/>
<polygon fill="midnightblue" stroke="midnightblue" points="474.212,-202.777 484.806,-202.883 476.59,-196.194 474.212,-202.777"/>
</g>
<!-- Node10 -->
<g id="node22" class="node"><title>Node10</title>
<a xlink:href="XmlDomainExportContext_8h.html" target="_top" xlink:title="parameter/XmlDomainExport\lContext.h">
<polygon fill="white" stroke="black" points="640.5,-131 640.5,-165 797.5,-165 797.5,-131 640.5,-131"/>
<text text-anchor="start" x="648.5" y="-152" font-family="Verdana" font-size="10.00">parameter/XmlDomainExport</text>
<text text-anchor="middle" x="719" y="-139" font-family="Verdana" font-size="10.00">Context.h</text>
</a>
</g>
<!-- Node1&#45;&gt;Node10 -->
<g id="edge24" class="edge"><title>Node1&#45;&gt;Node10</title>
<path fill="none" stroke="midnightblue" d="M586.712,-199.208C614.693,-188.377 648.487,-175.295 674.915,-165.065"/>
<polygon fill="midnightblue" stroke="midnightblue" points="585.142,-196.063 577.079,-202.937 587.669,-202.591 585.142,-196.063"/>
</g>
<!-- Node3 -->
<g id="node5" class="node"><title>Node3</title>
<a xlink:href="ConfigurableDomain_8h.html" target="_top" xlink:title="parameter/ConfigurableDomain.h">
<polygon fill="white" stroke="black" points="264.5,-65.5 264.5,-86.5 441.5,-86.5 441.5,-65.5 264.5,-65.5"/>
<text text-anchor="middle" x="353" y="-73.5" font-family="Verdana" font-size="10.00">parameter/ConfigurableDomain.h</text>
</a>
</g>
<!-- Node2&#45;&gt;Node3 -->
<g id="edge4" class="edge"><title>Node2&#45;&gt;Node3</title>
<path fill="none" stroke="midnightblue" d="M436.604,-125.748C414.765,-112.753 388.2,-96.9456 370.962,-86.688"/>
<polygon fill="midnightblue" stroke="midnightblue" points="434.941,-128.831 445.325,-130.937 438.521,-122.816 434.941,-128.831"/>
</g>
<!-- Node2&#45;&gt;Node4 -->
<g id="edge14" class="edge"><title>Node2&#45;&gt;Node4</title>
<path fill="none" stroke="midnightblue" d="M478.169,-120.932C481.328,-102.856 486.277,-78.6948 493,-58 497.197,-45.0802 503.814,-30.9333 508.497,-21.5713"/>
<polygon fill="midnightblue" stroke="midnightblue" points="474.717,-120.358 476.516,-130.799 481.62,-121.514 474.717,-120.358"/>
</g>
<!-- Node2&#45;&gt;Node7 -->
<g id="edge18" class="edge"><title>Node2&#45;&gt;Node7</title>
<path fill="none" stroke="midnightblue" d="M482.581,-121.395C490.574,-100.917 504.53,-73.5653 526,-58 548.824,-41.4532 615.334,-28.7648 669.824,-20.7662"/>
<polygon fill="midnightblue" stroke="midnightblue" points="479.284,-120.219 479.129,-130.813 485.856,-122.628 479.284,-120.219"/>
</g>
<!-- Node2&#45;&gt;Node8 -->
<g id="edge16" class="edge"><title>Node2&#45;&gt;Node8</title>
<path fill="none" stroke="midnightblue" d="M520.642,-126.61C549.32,-113.458 584.83,-97.1736 607.694,-86.688"/>
<polygon fill="midnightblue" stroke="midnightblue" points="518.838,-123.587 511.207,-130.937 521.756,-129.95 518.838,-123.587"/>
</g>
<!-- Node2&#45;&gt;Node9 -->
<g id="edge20" class="edge"><title>Node2&#45;&gt;Node9</title>
<path fill="none" stroke="midnightblue" d="M392.129,-128.609C345.221,-117.5 286.9,-103.687 241.79,-93.0028"/>
<polygon fill="midnightblue" stroke="midnightblue" points="391.419,-132.038 401.956,-130.937 393.032,-125.226 391.419,-132.038"/>
</g>
<!-- Node3&#45;&gt;Node4 -->
<g id="edge6" class="edge"><title>Node3&#45;&gt;Node4</title>
<path fill="none" stroke="midnightblue" d="M388.889,-61.5108C418.861,-49.4103 460.891,-32.4414 487.785,-21.5835"/>
<polygon fill="midnightblue" stroke="midnightblue" points="387.188,-58.4227 379.226,-65.412 389.809,-64.9137 387.188,-58.4227"/>
</g>
<!-- Node5 -->
<g id="node9" class="node"><title>Node5</title>
<a xlink:href="ConfigurableDomains_8cpp.html" target="_top" xlink:title="parameter/ConfigurableDomains.cpp">
<polygon fill="white" stroke="black" points="0,-0.5 0,-21.5 194,-21.5 194,-0.5 0,-0.5"/>
<text text-anchor="middle" x="97" y="-8.5" font-family="Verdana" font-size="10.00">parameter/ConfigurableDomains.cpp</text>
</a>
</g>
<!-- Node3&#45;&gt;Node5 -->
<g id="edge8" class="edge"><title>Node3&#45;&gt;Node5</title>
<path fill="none" stroke="midnightblue" d="M301.702,-62.9752C253.686,-50.7835 182.855,-32.799 138.356,-21.5005"/>
<polygon fill="midnightblue" stroke="midnightblue" points="301.031,-66.4157 311.585,-65.4844 302.754,-59.631 301.031,-66.4157"/>
</g>
<!-- Node6 -->
<g id="node11" class="node"><title>Node6</title>
<a xlink:href="ConfigurableElement_8cpp.html" target="_top" xlink:title="parameter/ConfigurableElement.cpp">
<polygon fill="white" stroke="black" points="211.5,-0.5 211.5,-21.5 402.5,-21.5 402.5,-0.5 211.5,-0.5"/>
<text text-anchor="middle" x="307" y="-8.5" font-family="Verdana" font-size="10.00">parameter/ConfigurableElement.cpp</text>
</a>
</g>
<!-- Node3&#45;&gt;Node6 -->
<g id="edge10" class="edge"><title>Node3&#45;&gt;Node6</title>
<path fill="none" stroke="midnightblue" d="M339.614,-57.085C331.42,-45.5064 321.24,-31.1223 314.455,-21.5337"/>
<polygon fill="midnightblue" stroke="midnightblue" points="336.77,-59.1257 345.404,-65.2666 342.484,-55.082 336.77,-59.1257"/>
</g>
<!-- Node3&#45;&gt;Node7 -->
<g id="edge12" class="edge"><title>Node3&#45;&gt;Node7</title>
<path fill="none" stroke="midnightblue" d="M427.28,-63.8076C501.562,-51.6148 614.61,-33.059 685.028,-21.5005"/>
<polygon fill="midnightblue" stroke="midnightblue" points="426.365,-60.4108 417.064,-65.4844 427.499,-67.3183 426.365,-60.4108"/>
</g>
<!-- Node10&#45;&gt;Node4 -->
<g id="edge26" class="edge"><title>Node10&#45;&gt;Node4</title>
<path fill="none" stroke="midnightblue" d="M734.123,-121.761C743.199,-102.179 750.455,-75.8355 736,-58 719.629,-37.7998 661.117,-25.9352 608.275,-19.1807"/>
<polygon fill="midnightblue" stroke="midnightblue" points="730.962,-120.256 729.608,-130.764 737.219,-123.394 730.962,-120.256"/>
</g>
<!-- Node10&#45;&gt;Node7 -->
<g id="edge30" class="edge"><title>Node10&#45;&gt;Node7</title>
<path fill="none" stroke="midnightblue" d="M748.571,-123.817C756.782,-115.343 764.637,-105.133 769,-94 778.842,-68.8833 764.582,-37.5285 755.515,-21.5003"/>
<polygon fill="midnightblue" stroke="midnightblue" points="746.106,-121.332 741.343,-130.796 750.968,-126.368 746.106,-121.332"/>
</g>
<!-- Node10&#45;&gt;Node8 -->
<g id="edge28" class="edge"><title>Node10&#45;&gt;Node8</title>
<path fill="none" stroke="midnightblue" d="M690.311,-124.527C674.725,-111.775 656.21,-96.6265 644.063,-86.688"/>
<polygon fill="midnightblue" stroke="midnightblue" points="688.189,-127.313 698.145,-130.937 692.622,-121.896 688.189,-127.313"/>
</g>
</g>
</svg>
