<?xml version="1.0" encoding="UTF-8" standalone="no"?>
<!DOCTYPE svg PUBLIC "-//W3C//DTD SVG 1.1//EN"
 "http://www.w3.org/Graphics/SVG/1.1/DTD/svg11.dtd">
<!-- Generated by graphviz version 2.26.3 (20100126.1600)
 -->
<!-- Title: parameter/XmlDomainImportContext.h Pages: 1 -->
<svg width="1142pt" height="392pt"
 viewBox="0.00 0.00 1142.00 392.00" xmlns="http://www.w3.org/2000/svg" xmlns:xlink="http://www.w3.org/1999/xlink">
<g id="graph1" class="graph" transform="scale(1 1) rotate(0) translate(4 388)">
<title>parameter/XmlDomainImportContext.h</title>
<polygon fill="white" stroke="white" points="-4,5 -4,-388 1139,-388 1139,5 -4,5"/>
<!-- Node1 -->
<g id="node1" class="node"><title>Node1</title>
<polygon fill="#bfbfbf" stroke="black" points="300,-349 300,-383 458,-383 458,-349 300,-349"/>
<text text-anchor="start" x="308" y="-370" font-family="Verdana" font-size="10.00">parameter/XmlDomainImport</text>
<text text-anchor="middle" x="379" y="-357" font-family="Verdana" font-size="10.00">Context.h</text>
</g>
<!-- Node2 -->
<g id="node3" class="node"><title>Node2</title>
<a xlink:href="XmlDomainSerializingContext_8h.html" target="_top" xlink:title="XmlDomainSerializingContext.h">
<polygon fill="white" stroke="black" points="41.5,-116.5 41.5,-137.5 208.5,-137.5 208.5,-116.5 41.5,-116.5"/>
<text text-anchor="middle" x="125" y="-124.5" font-family="Verdana" font-size="10.00">XmlDomainSerializingContext.h</text>
</a>
</g>
<!-- Node1&#45;&gt;Node2 -->
<g id="edge2" class="edge"><title>Node1&#45;&gt;Node2</title>
<path fill="none" stroke="midnightblue" d="M299.801,-352.507C271.487,-344.519 240.943,-331.893 218,-312 165.84,-266.776 139.602,-185.294 129.747,-147.403"/>
<polygon fill="midnightblue" stroke="midnightblue" points="133.103,-146.396 127.298,-137.533 126.309,-148.082 133.103,-146.396"/>
</g>
<!-- Node5 -->
<g id="node9" class="node"><title>Node5</title>
<polygon fill="white" stroke="#bfbfbf" points="559,-0.5 559,-21.5 603,-21.5 603,-0.5 559,-0.5"/>
<text text-anchor="middle" x="581" y="-8.5" font-family="Verdana" font-size="10.00">string</text>
</g>
<!-- Node1&#45;&gt;Node5 -->
<g id="edge76" class="edge"><title>Node1&#45;&gt;Node5</title>
<path fill="none" stroke="midnightblue" d="M353.612,-348.865C310.514,-317.438 229.678,-247.07 251,-174 269.667,-110.029 287.247,-89.4439 346,-58 380.807,-39.3718 493.144,-22.5345 548.941,-15.0693"/>
<polygon fill="midnightblue" stroke="midnightblue" points="549.531,-18.5217 558.988,-13.7447 548.616,-11.5818 549.531,-18.5217"/>
</g>
<!-- Node6 -->
<g id="node12" class="node"><title>Node6</title>
<a xlink:href="SelectionCriteriaDefinition_8h.html" target="_top" xlink:title="SelectionCriteriaDefinition.h">
<polygon fill="white" stroke="black" points="452.5,-290.5 452.5,-311.5 601.5,-311.5 601.5,-290.5 452.5,-290.5"/>
<text text-anchor="middle" x="527" y="-298.5" font-family="Verdana" font-size="10.00">SelectionCriteriaDefinition.h</text>
</a>
</g>
<!-- Node1&#45;&gt;Node6 -->
<g id="edge12" class="edge"><title>Node1&#45;&gt;Node6</title>
<path fill="none" stroke="midnightblue" d="M417.885,-348.922C441.311,-338.634 470.848,-325.661 493.282,-315.809"/>
<polygon fill="midnightblue" stroke="midnightblue" points="494.983,-318.884 502.732,-311.658 492.168,-312.475 494.983,-318.884"/>
</g>
<!-- Node19 -->
<g id="node46" class="node"><title>Node19</title>
<a xlink:href="SystemClass_8h.html" target="_top" xlink:title="SystemClass.h">
<polygon fill="white" stroke="black" points="846,-290.5 846,-311.5 934,-311.5 934,-290.5 846,-290.5"/>
<text text-anchor="middle" x="890" y="-298.5" font-family="Verdana" font-size="10.00">SystemClass.h</text>
</a>
</g>
<!-- Node1&#45;&gt;Node19 -->
<g id="edge54" class="edge"><title>Node1&#45;&gt;Node19</title>
<path fill="none" stroke="midnightblue" d="M458.003,-355.951C562.802,-342.62 745.071,-319.435 835.663,-307.912"/>
<polygon fill="midnightblue" stroke="midnightblue" points="836.24,-311.367 845.719,-306.633 835.357,-304.423 836.24,-311.367"/>
</g>
<!-- Node3 -->
<g id="node5" class="node"><title>Node3</title>
<a xlink:href="XmlElementSerializingContext_8h.html" target="_top" xlink:title="XmlElementSerializingContext.h">
<polygon fill="white" stroke="black" points="0,-58.5 0,-79.5 170,-79.5 170,-58.5 0,-58.5"/>
<text text-anchor="middle" x="85" y="-66.5" font-family="Verdana" font-size="10.00">XmlElementSerializingContext.h</text>
</a>
</g>
<!-- Node2&#45;&gt;Node3 -->
<g id="edge4" class="edge"><title>Node2&#45;&gt;Node3</title>
<path fill="none" stroke="midnightblue" d="M117.663,-116.362C112.194,-108.431 104.578,-97.3885 98.0763,-87.9606"/>
<polygon fill="midnightblue" stroke="midnightblue" points="100.849,-85.8157 92.2901,-79.5707 95.0862,-89.7899 100.849,-85.8157"/>
</g>
<!-- Node2&#45;&gt;Node5 -->
<g id="edge10" class="edge"><title>Node2&#45;&gt;Node5</title>
<path fill="none" stroke="midnightblue" d="M135.854,-116.483C152.733,-100.824 186.991,-71.7498 222,-58 281.372,-34.6819 472.242,-18.7963 548.793,-13.2141"/>
<polygon fill="midnightblue" stroke="midnightblue" points="549.087,-16.7022 558.811,-12.4952 548.586,-9.72012 549.087,-16.7022"/>
</g>
<!-- Node4 -->
<g id="node7" class="node"><title>Node4</title>
<polygon fill="white" stroke="#bfbfbf" points="20,-0.5 20,-21.5 150,-21.5 150,-0.5 20,-0.5"/>
<text text-anchor="middle" x="85" y="-8.5" font-family="Verdana" font-size="10.00">XmlSerializingContext.h</text>
</g>
<!-- Node3&#45;&gt;Node4 -->
<g id="edge6" class="edge"><title>Node3&#45;&gt;Node4</title>
<path fill="none" stroke="midnightblue" d="M85,-58.3619C85,-50.9219 85,-40.7427 85,-31.7276"/>
<polygon fill="midnightblue" stroke="midnightblue" points="88.5001,-31.5706 85,-21.5707 81.5001,-31.5707 88.5001,-31.5706"/>
</g>
<!-- Node3&#45;&gt;Node5 -->
<g id="edge8" class="edge"><title>Node3&#45;&gt;Node5</title>
<path fill="none" stroke="midnightblue" d="M170.265,-59.0294C281.936,-45.9712 472.422,-23.6967 548.354,-14.8175"/>
<polygon fill="midnightblue" stroke="midnightblue" points="549.177,-18.2452 558.703,-13.6073 548.364,-11.2925 549.177,-18.2452"/>
</g>
<!-- Node7 -->
<g id="node14" class="node"><title>Node7</title>
<a xlink:href="Element_8h.html" target="_top" xlink:title="Element.h">
<polygon fill="white" stroke="black" points="782.5,-116.5 782.5,-137.5 847.5,-137.5 847.5,-116.5 782.5,-116.5"/>
<text text-anchor="middle" x="815" y="-124.5" font-family="Verdana" font-size="10.00">Element.h</text>
</a>
</g>
<!-- Node6&#45;&gt;Node7 -->
<g id="edge14" class="edge"><title>Node6&#45;&gt;Node7</title>
<path fill="none" stroke="midnightblue" d="M601.601,-293.969C661.546,-286.936 739.622,-274.217 764,-254 796.453,-227.087 808.42,-176.466 812.708,-147.933"/>
<polygon fill="midnightblue" stroke="midnightblue" points="816.201,-148.218 814.04,-137.846 809.261,-147.302 816.201,-148.218"/>
</g>
<!-- Node14 -->
<g id="node32" class="node"><title>Node14</title>
<a xlink:href="SelectionCriterion_8h.html" target="_top" xlink:title="SelectionCriterion.h">
<polygon fill="white" stroke="black" points="472,-232.5 472,-253.5 582,-253.5 582,-232.5 472,-232.5"/>
<text text-anchor="middle" x="527" y="-240.5" font-family="Verdana" font-size="10.00">SelectionCriterion.h</text>
</a>
</g>
<!-- Node6&#45;&gt;Node14 -->
<g id="edge36" class="edge"><title>Node6&#45;&gt;Node14</title>
<path fill="none" stroke="midnightblue" d="M527,-290.362C527,-282.922 527,-272.743 527,-263.728"/>
<polygon fill="midnightblue" stroke="midnightblue" points="530.5,-263.571 527,-253.571 523.5,-263.571 530.5,-263.571"/>
</g>
<!-- Node7&#45;&gt;Node5 -->
<g id="edge16" class="edge"><title>Node7&#45;&gt;Node5</title>
<path fill="none" stroke="midnightblue" d="M783.795,-116.437C759.2,-107.719 724.288,-94.4668 695,-80 662.914,-64.1515 627.981,-42.2629 605.356,-27.4201"/>
<polygon fill="midnightblue" stroke="midnightblue" points="607.016,-24.3214 596.745,-21.7206 603.152,-30.1586 607.016,-24.3214"/>
</g>
<!-- Node8 -->
<g id="node17" class="node"><title>Node8</title>
<polygon fill="white" stroke="#bfbfbf" points="926.5,-0.5 926.5,-21.5 973.5,-21.5 973.5,-0.5 926.5,-0.5"/>
<text text-anchor="middle" x="950" y="-8.5" font-family="Verdana" font-size="10.00">vector</text>
</g>
<!-- Node7&#45;&gt;Node8 -->
<g id="edge18" class="edge"><title>Node7&#45;&gt;Node8</title>
<path fill="none" stroke="midnightblue" d="M827.961,-116.244C839.351,-106.764 856.345,-92.5477 871,-80 891.378,-62.5521 914.464,-42.3352 930.393,-28.3145"/>
<polygon fill="midnightblue" stroke="midnightblue" points="932.83,-30.8323 938.018,-21.5948 928.202,-25.5805 932.83,-30.8323"/>
</g>
<!-- Node9 -->
<g id="node19" class="node"><title>Node9</title>
<polygon fill="white" stroke="#bfbfbf" points="1012.5,-0.5 1012.5,-21.5 1065.5,-21.5 1065.5,-0.5 1012.5,-0.5"/>
<text text-anchor="middle" x="1039" y="-8.5" font-family="Verdana" font-size="10.00">stdint.h</text>
</g>
<!-- Node7&#45;&gt;Node9 -->
<g id="edge20" class="edge"><title>Node7&#45;&gt;Node9</title>
<path fill="none" stroke="midnightblue" d="M847.912,-125.6C907.806,-122.288 1030.86,-111.702 1057,-80 1068.61,-65.9196 1060.88,-45.1772 1052.24,-30.1133"/>
<polygon fill="midnightblue" stroke="midnightblue" points="1055.17,-28.2015 1046.9,-21.578 1049.23,-31.9126 1055.17,-28.2015"/>
</g>
<!-- Node10 -->
<g id="node21" class="node"><title>Node10</title>
<polygon fill="white" stroke="#bfbfbf" points="1104,-58.5 1104,-79.5 1134,-79.5 1134,-58.5 1104,-58.5"/>
<text text-anchor="middle" x="1119" y="-66.5" font-family="Verdana" font-size="10.00">list</text>
</g>
<!-- Node7&#45;&gt;Node10 -->
<g id="edge22" class="edge"><title>Node7&#45;&gt;Node10</title>
<path fill="none" stroke="midnightblue" d="M847.617,-123.496C899.566,-117.454 1004.01,-103.42 1090,-80 1091.43,-79.6109 1092.89,-79.1784 1094.35,-78.7164"/>
<polygon fill="midnightblue" stroke="midnightblue" points="1095.56,-82.0014 1103.83,-75.3854 1093.24,-75.3968 1095.56,-82.0014"/>
</g>
<!-- Node11 -->
<g id="node23" class="node"><title>Node11</title>
<polygon fill="white" stroke="#bfbfbf" points="704,-58.5 704,-79.5 768,-79.5 768,-58.5 704,-58.5"/>
<text text-anchor="middle" x="736" y="-66.5" font-family="Verdana" font-size="10.00">XmlSink.h</text>
</g>
<!-- Node7&#45;&gt;Node11 -->
<g id="edge24" class="edge"><title>Node7&#45;&gt;Node11</title>
<path fill="none" stroke="midnightblue" d="M800.51,-116.362C788.817,-107.777 772.157,-95.5459 758.697,-85.6636"/>
<polygon fill="midnightblue" stroke="midnightblue" points="760.53,-82.6675 750.398,-79.5707 756.387,-88.31 760.53,-82.6675"/>
</g>
<!-- Node12 -->
<g id="node25" class="node"><title>Node12</title>
<polygon fill="white" stroke="#bfbfbf" points="785.5,-58.5 785.5,-79.5 862.5,-79.5 862.5,-58.5 785.5,-58.5"/>
<text text-anchor="middle" x="824" y="-66.5" font-family="Verdana" font-size="10.00">XmlSource.h</text>
</g>
<!-- Node7&#45;&gt;Node12 -->
<g id="edge26" class="edge"><title>Node7&#45;&gt;Node12</title>
<path fill="none" stroke="midnightblue" d="M816.651,-116.362C817.805,-108.922 819.385,-98.7427 820.784,-89.7276"/>
<polygon fill="midnightblue" stroke="midnightblue" points="824.285,-89.9891 822.36,-79.5707 817.368,-88.9157 824.285,-89.9891"/>
</g>
<!-- Node13 -->
<g id="node27" class="node"><title>Node13</title>
<a xlink:href="PathNavigator_8h.html" target="_top" xlink:title="PathNavigator.h">
<polygon fill="white" stroke="black" points="956,-58.5 956,-79.5 1048,-79.5 1048,-58.5 956,-58.5"/>
<text text-anchor="middle" x="1002" y="-66.5" font-family="Verdana" font-size="10.00">PathNavigator.h</text>
</a>
</g>
<!-- Node7&#45;&gt;Node13 -->
<g id="edge28" class="edge"><title>Node7&#45;&gt;Node13</title>
<path fill="none" stroke="midnightblue" d="M847.573,-116.897C878.24,-107.385 924.397,-93.0694 958.262,-82.5657"/>
<polygon fill="midnightblue" stroke="midnightblue" points="959.391,-85.8802 967.905,-79.5749 957.317,-79.1944 959.391,-85.8802"/>
</g>
<!-- Node13&#45;&gt;Node5 -->
<g id="edge32" class="edge"><title>Node13&#45;&gt;Node5</title>
<path fill="none" stroke="midnightblue" d="M955.741,-62.6271C869.827,-50.7908 687.63,-25.6901 613.448,-15.4702"/>
<polygon fill="midnightblue" stroke="midnightblue" points="613.695,-11.9713 603.311,-14.0737 612.74,-18.9058 613.695,-11.9713"/>
</g>
<!-- Node13&#45;&gt;Node8 -->
<g id="edge30" class="edge"><title>Node13&#45;&gt;Node8</title>
<path fill="none" stroke="midnightblue" d="M992.462,-58.3619C985.132,-50.1861 974.837,-38.7025 966.219,-29.0907"/>
<polygon fill="midnightblue" stroke="midnightblue" points="968.759,-26.68 959.477,-21.5707 963.547,-31.3528 968.759,-26.68"/>
</g>
<!-- Node13&#45;&gt;Node9 -->
<g id="edge34" class="edge"><title>Node13&#45;&gt;Node9</title>
<path fill="none" stroke="midnightblue" d="M1008.79,-58.3619C1013.79,-50.5131 1020.75,-39.6159 1026.72,-30.2527"/>
<polygon fill="midnightblue" stroke="midnightblue" points="1029.83,-31.8837 1032.26,-21.5707 1023.93,-28.1189 1029.83,-31.8837"/>
</g>
<!-- Node14&#45;&gt;Node5 -->
<g id="edge52" class="edge"><title>Node14&#45;&gt;Node5</title>
<path fill="none" stroke="midnightblue" d="M540.584,-232.228C550.379,-223.587 562.907,-210.532 569,-196 581.198,-166.908 581.751,-73.8953 581.341,-31.9123"/>
<polygon fill="midnightblue" stroke="midnightblue" points="584.839,-31.695 581.212,-21.7402 577.839,-31.7837 584.839,-31.695"/>
</g>
<!-- Node14&#45;&gt;Node7 -->
<g id="edge38" class="edge"><title>Node14&#45;&gt;Node7</title>
<path fill="none" stroke="midnightblue" d="M582.008,-235.37C638.688,-226.822 722.641,-212.046 751,-196 772.516,-183.826 790.955,-161.939 802.439,-146.074"/>
<polygon fill="midnightblue" stroke="midnightblue" points="805.532,-147.756 808.367,-137.547 799.785,-143.76 805.532,-147.756"/>
</g>
<!-- Node15 -->
<g id="node35" class="node"><title>Node15</title>
<a xlink:href="SelectionCriterionType_8h.html" target="_top" xlink:title="SelectionCriterionType.h">
<polygon fill="white" stroke="black" points="259.5,-174.5 259.5,-195.5 390.5,-195.5 390.5,-174.5 259.5,-174.5"/>
<text text-anchor="middle" x="325" y="-182.5" font-family="Verdana" font-size="10.00">SelectionCriterionType.h</text>
</a>
</g>
<!-- Node14&#45;&gt;Node15 -->
<g id="edge40" class="edge"><title>Node14&#45;&gt;Node15</title>
<path fill="none" stroke="midnightblue" d="M490.419,-232.497C457.06,-222.918 407.61,-208.72 371.466,-198.342"/>
<polygon fill="midnightblue" stroke="midnightblue" points="372.227,-194.919 361.649,-195.523 370.295,-201.647 372.227,-194.919"/>
</g>
<!-- Node18 -->
<g id="node43" class="node"><title>Node18</title>
<polygon fill="white" stroke="#bfbfbf" points="408,-174.5 408,-195.5 560,-195.5 560,-174.5 408,-174.5"/>
<text text-anchor="middle" x="484" y="-182.5" font-family="Verdana" font-size="10.00">SelectionCriterionInterface.h</text>
</g>
<!-- Node14&#45;&gt;Node18 -->
<g id="edge50" class="edge"><title>Node14&#45;&gt;Node18</title>
<path fill="none" stroke="midnightblue" d="M519.113,-232.362C513.173,-224.35 504.878,-213.161 497.841,-203.67"/>
<polygon fill="midnightblue" stroke="midnightblue" points="500.604,-201.519 491.837,-195.571 494.981,-205.688 500.604,-201.519"/>
</g>
<!-- Node15&#45;&gt;Node5 -->
<g id="edge46" class="edge"><title>Node15&#45;&gt;Node5</title>
<path fill="none" stroke="midnightblue" d="M314.696,-174.467C302.107,-160.283 283.997,-134.671 297,-116 326.8,-73.211 480.968,-33.6833 548.85,-18.059"/>
<polygon fill="midnightblue" stroke="midnightblue" points="549.995,-21.388 558.971,-15.7597 548.445,-14.5619 549.995,-21.388"/>
</g>
<!-- Node15&#45;&gt;Node7 -->
<g id="edge42" class="edge"><title>Node15&#45;&gt;Node7</title>
<path fill="none" stroke="midnightblue" d="M390.751,-175.104C393.537,-174.723 396.295,-174.354 399,-174 535.113,-156.2 696.813,-139.083 772.261,-131.329"/>
<polygon fill="midnightblue" stroke="midnightblue" points="772.732,-134.799 782.323,-130.298 772.018,-127.836 772.732,-134.799"/>
</g>
<!-- Node16 -->
<g id="node38" class="node"><title>Node16</title>
<polygon fill="white" stroke="#bfbfbf" points="306,-116.5 306,-137.5 344,-137.5 344,-116.5 306,-116.5"/>
<text text-anchor="middle" x="325" y="-124.5" font-family="Verdana" font-size="10.00">map</text>
</g>
<!-- Node15&#45;&gt;Node16 -->
<g id="edge44" class="edge"><title>Node15&#45;&gt;Node16</title>
<path fill="none" stroke="midnightblue" d="M325,-174.362C325,-166.922 325,-156.743 325,-147.728"/>
<polygon fill="midnightblue" stroke="midnightblue" points="328.5,-147.571 325,-137.571 321.5,-147.571 328.5,-147.571"/>
</g>
<!-- Node17 -->
<g id="node41" class="node"><title>Node17</title>
<polygon fill="white" stroke="#bfbfbf" points="361.5,-116.5 361.5,-137.5 534.5,-137.5 534.5,-116.5 361.5,-116.5"/>
<text text-anchor="middle" x="448" y="-124.5" font-family="Verdana" font-size="10.00">SelectionCriterionTypeInterface.h</text>
</g>
<!-- Node15&#45;&gt;Node17 -->
<g id="edge48" class="edge"><title>Node15&#45;&gt;Node17</title>
<path fill="none" stroke="midnightblue" d="M347.274,-174.497C366.572,-165.397 394.713,-152.127 416.348,-141.925"/>
<polygon fill="midnightblue" stroke="midnightblue" points="417.924,-145.052 425.476,-137.621 414.938,-138.721 417.924,-145.052"/>
</g>
<!-- Node19&#45;&gt;Node5 -->
<g id="edge74" class="edge"><title>Node19&#45;&gt;Node5</title>
<path fill="none" stroke="midnightblue" d="M890,-290.444C890,-270.062 890,-223.868 890,-185 890,-185 890,-185 890,-127 890,-95.1919 894.673,-79.2446 871,-58 833.436,-24.29 680.628,-14.6113 613.215,-11.9546"/>
<polygon fill="midnightblue" stroke="midnightblue" points="613.281,-8.45477 603.16,-11.5859 613.025,-15.4501 613.281,-8.45477"/>
</g>
<!-- Node19&#45;&gt;Node10 -->
<g id="edge72" class="edge"><title>Node19&#45;&gt;Node10</title>
<path fill="none" stroke="midnightblue" d="M913.409,-290.436C947.297,-274.194 1010.4,-240.266 1051,-196 1080.7,-163.62 1101.66,-115.872 1111.89,-89.0981"/>
<polygon fill="midnightblue" stroke="midnightblue" points="1115.21,-90.2227 1115.39,-79.6295 1108.64,-87.7947 1115.21,-90.2227"/>
</g>
<!-- Node20 -->
<g id="node48" class="node"><title>Node20</title>
<a xlink:href="ConfigurableElement_8h.html" target="_top" xlink:title="ConfigurableElement.h">
<polygon fill="white" stroke="black" points="917.5,-174.5 917.5,-195.5 1042.5,-195.5 1042.5,-174.5 917.5,-174.5"/>
<text text-anchor="middle" x="980" y="-182.5" font-family="Verdana" font-size="10.00">ConfigurableElement.h</text>
</a>
</g>
<!-- Node19&#45;&gt;Node20 -->
<g id="edge56" class="edge"><title>Node19&#45;&gt;Node20</title>
<path fill="none" stroke="midnightblue" d="M898.306,-290.295C913.576,-270.613 946.288,-228.45 965.362,-203.867"/>
<polygon fill="midnightblue" stroke="midnightblue" points="968.35,-205.726 971.714,-195.679 962.819,-201.435 968.35,-205.726"/>
</g>
<!-- Node21 -->
<g id="node52" class="node"><title>Node21</title>
<a xlink:href="SubsystemPlugins_8h.html" target="_top" xlink:title="SubsystemPlugins.h">
<polygon fill="white" stroke="black" points="642.5,-232.5 642.5,-253.5 755.5,-253.5 755.5,-232.5 642.5,-232.5"/>
<text text-anchor="middle" x="699" y="-240.5" font-family="Verdana" font-size="10.00">SubsystemPlugins.h</text>
</a>
</g>
<!-- Node19&#45;&gt;Node21 -->
<g id="edge62" class="edge"><title>Node19&#45;&gt;Node21</title>
<path fill="none" stroke="midnightblue" d="M855.411,-290.497C824.004,-280.959 777.51,-266.841 743.375,-256.475"/>
<polygon fill="midnightblue" stroke="midnightblue" points="744.239,-253.08 733.654,-253.523 742.205,-259.778 744.239,-253.08"/>
</g>
<!-- Node20&#45;&gt;Node7 -->
<g id="edge58" class="edge"><title>Node20&#45;&gt;Node7</title>
<path fill="none" stroke="midnightblue" d="M950.12,-174.497C923.337,-165.082 883.855,-151.204 854.478,-140.877"/>
<polygon fill="midnightblue" stroke="midnightblue" points="855.531,-137.537 844.936,-137.523 853.21,-144.141 855.531,-137.537"/>
</g>
<!-- Node20&#45;&gt;Node10 -->
<g id="edge60" class="edge"><title>Node20&#45;&gt;Node10</title>
<path fill="none" stroke="midnightblue" d="M992.828,-174.295C1016.93,-154.182 1069.16,-110.59 1098.3,-86.2752"/>
<polygon fill="midnightblue" stroke="midnightblue" points="1100.77,-88.7737 1106.2,-79.6792 1096.28,-83.3993 1100.77,-88.7737"/>
</g>
<!-- Node21&#45;&gt;Node5 -->
<g id="edge70" class="edge"><title>Node21&#45;&gt;Node5</title>
<path fill="none" stroke="midnightblue" d="M683.442,-232.248C671.974,-223.618 656.739,-210.568 647,-196 611.43,-142.791 592.541,-68.1627 584.992,-32.1228"/>
<polygon fill="midnightblue" stroke="midnightblue" points="588.331,-30.9703 582.933,-21.8536 581.468,-32.3465 588.331,-30.9703"/>
</g>
<!-- Node22 -->
<g id="node54" class="node"><title>Node22</title>
<a xlink:href="KindElement_8h.html" target="_top" xlink:title="KindElement.h">
<polygon fill="white" stroke="black" points="656,-174.5 656,-195.5 742,-195.5 742,-174.5 656,-174.5"/>
<text text-anchor="middle" x="699" y="-182.5" font-family="Verdana" font-size="10.00">KindElement.h</text>
</a>
</g>
<!-- Node21&#45;&gt;Node22 -->
<g id="edge64" class="edge"><title>Node21&#45;&gt;Node22</title>
<path fill="none" stroke="midnightblue" d="M699,-232.362C699,-224.922 699,-214.743 699,-205.728"/>
<polygon fill="midnightblue" stroke="midnightblue" points="702.5,-205.571 699,-195.571 695.5,-205.571 702.5,-205.571"/>
</g>
<!-- Node22&#45;&gt;Node5 -->
<g id="edge68" class="edge"><title>Node22&#45;&gt;Node5</title>
<path fill="none" stroke="midnightblue" d="M692.027,-174.409C677.609,-152.55 643.404,-100.89 614,-58 607.64,-48.7232 600.477,-38.4954 594.454,-29.9563"/>
<polygon fill="midnightblue" stroke="midnightblue" points="597.303,-27.9231 588.671,-21.7795 591.588,-31.965 597.303,-27.9231"/>
</g>
<!-- Node22&#45;&gt;Node7 -->
<g id="edge66" class="edge"><title>Node22&#45;&gt;Node7</title>
<path fill="none" stroke="midnightblue" d="M720.007,-174.497C738.043,-165.479 764.27,-152.365 784.599,-142.201"/>
<polygon fill="midnightblue" stroke="midnightblue" points="786.379,-145.224 793.758,-137.621 783.248,-138.963 786.379,-145.224"/>
</g>
</g>
</svg>
