<?xml version="1.0" encoding="UTF-8" standalone="no"?>
<!DOCTYPE svg PUBLIC "-//W3C//DTD SVG 1.1//EN"
 "http://www.w3.org/Graphics/SVG/1.1/DTD/svg11.dtd">
<!-- Generated by graphviz version 2.26.3 (20100126.1600)
 -->
<!-- Title: parameter/XmlDomainExportContext.h Pages: 1 -->
<svg width="582pt" height="102pt"
 viewBox="0.00 0.00 582.00 102.00" xmlns="http://www.w3.org/2000/svg" xmlns:xlink="http://www.w3.org/1999/xlink">
<g id="graph1" class="graph" transform="scale(1 1) rotate(0) translate(4 98)">
<title>parameter/XmlDomainExportContext.h</title>
<polygon fill="white" stroke="white" points="-4,5 -4,-98 579,-98 579,5 -4,5"/>
<!-- Node1 -->
<g id="node1" class="node"><title>Node1</title>
<polygon fill="#bfbfbf" stroke="black" points="223.5,-59 223.5,-93 380.5,-93 380.5,-59 223.5,-59"/>
<text text-anchor="start" x="231.5" y="-80" font-family="Verdana" font-size="10.00">parameter/XmlDomainExport</text>
<text text-anchor="middle" x="302" y="-67" font-family="Verdana" font-size="10.00">Context.h</text>
</g>
<!-- Node2 -->
<g id="node3" class="node"><title>Node2</title>
<a xlink:href="ConfigurableDomain_8cpp.html" target="_top" xlink:title="parameter/ConfigurableDomain.cpp">
<polygon fill="white" stroke="black" points="0,-0.5 0,-21.5 188,-21.5 188,-0.5 0,-0.5"/>
<text text-anchor="middle" x="94" y="-8.5" font-family="Verdana" font-size="10.00">parameter/ConfigurableDomain.cpp</text>
</a>
</g>
<!-- Node1&#45;&gt;Node2 -->
<g id="edge2" class="edge"><title>Node1&#45;&gt;Node2</title>
<path fill="none" stroke="midnightblue" d="M237.806,-55.9392C201.46,-44.5814 157.476,-30.8364 127.798,-21.562"/>
<polygon fill="midnightblue" stroke="midnightblue" points="236.762,-59.2799 247.35,-58.922 238.85,-52.5985 236.762,-59.2799"/>
</g>
<!-- Node3 -->
<g id="node5" class="node"><title>Node3</title>
<a xlink:href="DomainConfiguration_8cpp.html" target="_top" xlink:title="parameter/DomainConfiguration.cpp">
<polygon fill="white" stroke="black" points="206,-0.5 206,-21.5 398,-21.5 398,-0.5 206,-0.5"/>
<text text-anchor="middle" x="302" y="-8.5" font-family="Verdana" font-size="10.00">parameter/DomainConfiguration.cpp</text>
</a>
</g>
<!-- Node1&#45;&gt;Node3 -->
<g id="edge4" class="edge"><title>Node1&#45;&gt;Node3</title>
<path fill="none" stroke="midnightblue" d="M302,-48.6879C302,-39.2415 302,-29.1949 302,-21.8521"/>
<polygon fill="midnightblue" stroke="midnightblue" points="298.5,-48.922 302,-58.922 305.5,-48.922 298.5,-48.922"/>
</g>
<!-- Node4 -->
<g id="node7" class="node"><title>Node4</title>
<a xlink:href="ParameterMgr_8cpp.html" target="_top" xlink:title="parameter/ParameterMgr.cpp">
<polygon fill="white" stroke="black" points="416,-0.5 416,-21.5 574,-21.5 574,-0.5 416,-0.5"/>
<text text-anchor="middle" x="495" y="-8.5" font-family="Verdana" font-size="10.00">parameter/ParameterMgr.cpp</text>
</a>
</g>
<!-- Node1&#45;&gt;Node4 -->
<g id="edge6" class="edge"><title>Node1&#45;&gt;Node4</title>
<path fill="none" stroke="midnightblue" d="M362.428,-55.6487C395.983,-44.3477 436.336,-30.7575 463.639,-21.562"/>
<polygon fill="midnightblue" stroke="midnightblue" points="361.068,-52.4133 352.708,-58.922 363.303,-59.0472 361.068,-52.4133"/>
</g>
</g>
</svg>
