<?xml version="1.0" encoding="UTF-8" standalone="no"?>
<!DOCTYPE svg PUBLIC "-//W3C//DTD SVG 1.1//EN"
 "http://www.w3.org/Graphics/SVG/1.1/DTD/svg11.dtd">
<!-- Generated by graphviz version 2.26.3 (20100126.1600)
 -->
<!-- Title: parameter/XmlElementSerializingContext.h Pages: 1 -->
<svg width="1661pt" height="318pt"
 viewBox="0.00 0.00 1661.00 318.00" xmlns="http://www.w3.org/2000/svg" xmlns:xlink="http://www.w3.org/1999/xlink">
<g id="graph1" class="graph" transform="scale(1 1) rotate(0) translate(4 314)">
<title>parameter/XmlElementSerializingContext.h</title>
<polygon fill="white" stroke="white" points="-4,5 -4,-314 1658,-314 1658,5 -4,5"/>
<!-- Node1 -->
<g id="node1" class="node"><title>Node1</title>
<polygon fill="#bfbfbf" stroke="black" points="1062.5,-275 1062.5,-309 1239.5,-309 1239.5,-275 1062.5,-275"/>
<text text-anchor="start" x="1070.5" y="-296" font-family="Verdana" font-size="10.00">parameter/XmlElementSerializing</text>
<text text-anchor="middle" x="1151" y="-283" font-family="Verdana" font-size="10.00">Context.h</text>
</g>
<!-- Node2 -->
<g id="node3" class="node"><title>Node2</title>
<a xlink:href="XmlParameterSerializingContext_8h.html" target="_top" xlink:title="parameter/XmlParameterSerializing\lContext.h">
<polygon fill="white" stroke="black" points="462,-203 462,-237 650,-237 650,-203 462,-203"/>
<text text-anchor="start" x="470" y="-224" font-family="Verdana" font-size="10.00">parameter/XmlParameterSerializing</text>
<text text-anchor="middle" x="556" y="-211" font-family="Verdana" font-size="10.00">Context.h</text>
</a>
</g>
<!-- Node1&#45;&gt;Node2 -->
<g id="edge2" class="edge"><title>Node1&#45;&gt;Node2</title>
<path fill="none" stroke="midnightblue" d="M1051.99,-280.019C940.282,-266.501 759.92,-244.676 650.223,-231.402"/>
<polygon fill="midnightblue" stroke="midnightblue" points="1051.9,-283.533 1062.24,-281.26 1052.74,-276.584 1051.9,-283.533"/>
</g>
<!-- Node5 -->
<g id="node9" class="node"><title>Node5</title>
<a xlink:href="ParameterMgr_8cpp.html" target="_top" xlink:title="parameter/ParameterMgr.cpp">
<polygon fill="white" stroke="black" points="782,-0.5 782,-21.5 940,-21.5 940,-0.5 782,-0.5"/>
<text text-anchor="middle" x="861" y="-8.5" font-family="Verdana" font-size="10.00">parameter/ParameterMgr.cpp</text>
</a>
</g>
<!-- Node1&#45;&gt;Node5 -->
<g id="edge54" class="edge"><title>Node1&#45;&gt;Node5</title>
<path fill="none" stroke="midnightblue" d="M1055.31,-272.208C1026.76,-264.027 996.127,-252.879 970,-238 929.004,-214.653 921.353,-202.935 892,-166 869.089,-137.171 860.425,-129.598 851,-94 844.276,-68.6048 852.059,-37.6289 857.197,-21.6586"/>
<polygon fill="midnightblue" stroke="midnightblue" points="1054.75,-275.682 1065.32,-274.979 1056.61,-268.936 1054.75,-275.682"/>
</g>
<!-- Node8 -->
<g id="node15" class="node"><title>Node8</title>
<a xlink:href="XmlDomainSerializingContext_8h.html" target="_top" xlink:title="parameter/XmlDomainSerializing\lContext.h">
<polygon fill="white" stroke="black" points="978.5,-203 978.5,-237 1153.5,-237 1153.5,-203 978.5,-203"/>
<text text-anchor="start" x="986.5" y="-224" font-family="Verdana" font-size="10.00">parameter/XmlDomainSerializing</text>
<text text-anchor="middle" x="1066" y="-211" font-family="Verdana" font-size="10.00">Context.h</text>
</a>
</g>
<!-- Node1&#45;&gt;Node8 -->
<g id="edge14" class="edge"><title>Node1&#45;&gt;Node8</title>
<path fill="none" stroke="midnightblue" d="M1122.9,-268.201C1110.94,-258.067 1097.25,-246.469 1086.29,-237.19"/>
<polygon fill="midnightblue" stroke="midnightblue" points="1120.96,-271.144 1130.86,-274.937 1125.49,-265.803 1120.96,-271.144"/>
</g>
<!-- Node17 -->
<g id="node43" class="node"><title>Node17</title>
<a xlink:href="Element_8cpp.html" target="_top" xlink:title="parameter/Element.cpp">
<polygon fill="white" stroke="black" points="1170.5,-209.5 1170.5,-230.5 1301.5,-230.5 1301.5,-209.5 1170.5,-209.5"/>
<text text-anchor="middle" x="1236" y="-217.5" font-family="Verdana" font-size="10.00">parameter/Element.cpp</text>
</a>
</g>
<!-- Node1&#45;&gt;Node17 -->
<g id="edge52" class="edge"><title>Node1&#45;&gt;Node17</title>
<path fill="none" stroke="midnightblue" d="M1179.13,-268.175C1194.09,-255.497 1211.76,-240.535 1223.38,-230.688"/>
<polygon fill="midnightblue" stroke="midnightblue" points="1176.51,-265.803 1171.14,-274.937 1181.04,-271.144 1176.51,-265.803"/>
</g>
<!-- Node18 -->
<g id="node46" class="node"><title>Node18</title>
<a xlink:href="XmlElementSerializingContext_8cpp.html" target="_top" xlink:title="parameter/XmlElementSerializing\lContext.cpp">
<polygon fill="white" stroke="black" points="1318.5,-203 1318.5,-237 1495.5,-237 1495.5,-203 1318.5,-203"/>
<text text-anchor="start" x="1326.5" y="-224" font-family="Verdana" font-size="10.00">parameter/XmlElementSerializing</text>
<text text-anchor="middle" x="1407" y="-211" font-family="Verdana" font-size="10.00">Context.cpp</text>
</a>
</g>
<!-- Node1&#45;&gt;Node18 -->
<g id="edge56" class="edge"><title>Node1&#45;&gt;Node18</title>
<path fill="none" stroke="midnightblue" d="M1221.42,-272.195C1260.58,-261.179 1308.84,-247.608 1346.32,-237.065"/>
<polygon fill="midnightblue" stroke="midnightblue" points="1220.35,-268.86 1211.67,-274.937 1222.24,-275.599 1220.35,-268.86"/>
</g>
<!-- Node19 -->
<g id="node48" class="node"><title>Node19</title>
<a xlink:href="XmlFileIncluderElement_8cpp.html" target="_top" xlink:title="parameter/XmlFileIncluder\lElement.cpp">
<polygon fill="white" stroke="black" points="1512.5,-203 1512.5,-237 1653.5,-237 1653.5,-203 1512.5,-203"/>
<text text-anchor="start" x="1520.5" y="-224" font-family="Verdana" font-size="10.00">parameter/XmlFileIncluder</text>
<text text-anchor="middle" x="1583" y="-211" font-family="Verdana" font-size="10.00">Element.cpp</text>
</a>
</g>
<!-- Node1&#45;&gt;Node19 -->
<g id="edge58" class="edge"><title>Node1&#45;&gt;Node19</title>
<path fill="none" stroke="midnightblue" d="M1250.06,-278.796C1321,-268.867 1418.66,-254.227 1504,-238 1506.76,-237.474 1509.58,-236.921 1512.42,-236.348"/>
<polygon fill="midnightblue" stroke="midnightblue" points="1249.22,-275.38 1239.8,-280.227 1250.18,-282.313 1249.22,-275.38"/>
</g>
<!-- Node3 -->
<g id="node5" class="node"><title>Node3</title>
<a xlink:href="ComponentInstance_8cpp.html" target="_top" xlink:title="parameter/ComponentInstance.cpp">
<polygon fill="white" stroke="black" points="0,-137.5 0,-158.5 188,-158.5 188,-137.5 0,-137.5"/>
<text text-anchor="middle" x="94" y="-145.5" font-family="Verdana" font-size="10.00">parameter/ComponentInstance.cpp</text>
</a>
</g>
<!-- Node2&#45;&gt;Node3 -->
<g id="edge4" class="edge"><title>Node2&#45;&gt;Node3</title>
<path fill="none" stroke="midnightblue" d="M451.854,-205.001C380.14,-194.509 282.708,-179.933 197,-166 182.666,-163.67 167.232,-161.038 152.785,-158.521"/>
<polygon fill="midnightblue" stroke="midnightblue" points="451.398,-208.471 461.799,-206.454 452.41,-201.545 451.398,-208.471"/>
</g>
<!-- Node4 -->
<g id="node7" class="node"><title>Node4</title>
<a xlink:href="ComponentType_8cpp.html" target="_top" xlink:title="parameter/ComponentType.cpp">
<polygon fill="white" stroke="black" points="206,-137.5 206,-158.5 374,-158.5 374,-137.5 206,-137.5"/>
<text text-anchor="middle" x="290" y="-145.5" font-family="Verdana" font-size="10.00">parameter/ComponentType.cpp</text>
</a>
</g>
<!-- Node2&#45;&gt;Node4 -->
<g id="edge6" class="edge"><title>Node2&#45;&gt;Node4</title>
<path fill="none" stroke="midnightblue" d="M483.215,-200.299C433.473,-186.835 369.488,-169.516 329.095,-158.582"/>
<polygon fill="midnightblue" stroke="midnightblue" points="482.395,-203.703 492.962,-202.937 484.224,-196.946 482.395,-203.703"/>
</g>
<!-- Node2&#45;&gt;Node5 -->
<g id="edge8" class="edge"><title>Node2&#45;&gt;Node5</title>
<path fill="none" stroke="midnightblue" d="M656.55,-200.721C696.38,-191.361 736.202,-179.271 751,-166 789.464,-131.507 761.958,-98.5283 794,-58 806.337,-42.3958 825.218,-29.8023 839.796,-21.5933"/>
<polygon fill="midnightblue" stroke="midnightblue" points="655.675,-197.331 646.712,-202.98 657.241,-204.154 655.675,-197.331"/>
</g>
<!-- Node6 -->
<g id="node11" class="node"><title>Node6</title>
<a xlink:href="Subsystem_8cpp.html" target="_top" xlink:title="parameter/Subsystem.cpp">
<polygon fill="white" stroke="black" points="391.5,-137.5 391.5,-158.5 536.5,-158.5 536.5,-137.5 391.5,-137.5"/>
<text text-anchor="middle" x="464" y="-145.5" font-family="Verdana" font-size="10.00">parameter/Subsystem.cpp</text>
</a>
</g>
<!-- Node2&#45;&gt;Node6 -->
<g id="edge10" class="edge"><title>Node2&#45;&gt;Node6</title>
<path fill="none" stroke="midnightblue" d="M526.007,-196.527C509.712,-183.775 490.356,-168.626 477.657,-158.688"/>
<polygon fill="midnightblue" stroke="midnightblue" points="524.165,-199.53 534.197,-202.937 528.479,-194.018 524.165,-199.53"/>
</g>
<!-- Node7 -->
<g id="node13" class="node"><title>Node7</title>
<a xlink:href="XmlParameterSerializingContext_8cpp.html" target="_top" xlink:title="parameter/XmlParameterSerializing\lContext.cpp">
<polygon fill="white" stroke="black" points="554,-131 554,-165 742,-165 742,-131 554,-131"/>
<text text-anchor="start" x="562" y="-152" font-family="Verdana" font-size="10.00">parameter/XmlParameterSerializing</text>
<text text-anchor="middle" x="648" y="-139" font-family="Verdana" font-size="10.00">Context.cpp</text>
</a>
</g>
<!-- Node2&#45;&gt;Node7 -->
<g id="edge12" class="edge"><title>Node2&#45;&gt;Node7</title>
<path fill="none" stroke="midnightblue" d="M586.037,-196.493C599.074,-186.29 614.064,-174.558 626.035,-165.19"/>
<polygon fill="midnightblue" stroke="midnightblue" points="583.521,-194.018 577.803,-202.937 587.835,-199.53 583.521,-194.018"/>
</g>
<!-- Node8&#45;&gt;Node5 -->
<g id="edge48" class="edge"><title>Node8&#45;&gt;Node5</title>
<path fill="none" stroke="midnightblue" d="M1003.78,-199.11C956.824,-179.771 895.458,-146.043 865,-94 851.592,-71.0905 855.392,-38.2355 858.589,-21.5667"/>
<polygon fill="midnightblue" stroke="midnightblue" points="1002.68,-202.44 1013.27,-202.904 1005.28,-195.941 1002.68,-202.44"/>
</g>
<!-- Node9 -->
<g id="node17" class="node"><title>Node9</title>
<a xlink:href="XmlDomainImportContext_8h.html" target="_top" xlink:title="parameter/XmlDomainImport\lContext.h">
<polygon fill="white" stroke="black" points="1048,-131 1048,-165 1206,-165 1206,-131 1048,-131"/>
<text text-anchor="start" x="1056" y="-152" font-family="Verdana" font-size="10.00">parameter/XmlDomainImport</text>
<text text-anchor="middle" x="1127" y="-139" font-family="Verdana" font-size="10.00">Context.h</text>
</a>
</g>
<!-- Node8&#45;&gt;Node9 -->
<g id="edge16" class="edge"><title>Node8&#45;&gt;Node9</title>
<path fill="none" stroke="midnightblue" d="M1087.11,-195.086C1095.39,-185.315 1104.69,-174.337 1112.22,-165.441"/>
<polygon fill="midnightblue" stroke="midnightblue" points="1084.25,-193.045 1080.46,-202.937 1089.59,-197.57 1084.25,-193.045"/>
</g>
<!-- Node11 -->
<g id="node21" class="node"><title>Node11</title>
<a xlink:href="ConfigurableDomain_8cpp.html" target="_top" xlink:title="parameter/ConfigurableDomain.cpp">
<polygon fill="white" stroke="black" points="1465,-0.5 1465,-21.5 1653,-21.5 1653,-0.5 1465,-0.5"/>
<text text-anchor="middle" x="1559" y="-8.5" font-family="Verdana" font-size="10.00">parameter/ConfigurableDomain.cpp</text>
</a>
</g>
<!-- Node8&#45;&gt;Node11 -->
<g id="edge36" class="edge"><title>Node8&#45;&gt;Node11</title>
<path fill="none" stroke="midnightblue" d="M1163.64,-201.809C1280.36,-184.013 1315.14,-199.153 1425,-166 1495.41,-144.751 1534.91,-156.301 1574,-94 1588.32,-71.1768 1574.31,-38.284 1565.29,-21.5872"/>
<polygon fill="midnightblue" stroke="midnightblue" points="1162.94,-198.377 1153.6,-203.39 1164.03,-205.292 1162.94,-198.377"/>
</g>
<!-- Node14 -->
<g id="node29" class="node"><title>Node14</title>
<a xlink:href="DomainConfiguration_8cpp.html" target="_top" xlink:title="parameter/DomainConfiguration.cpp">
<polygon fill="white" stroke="black" points="1354,-65.5 1354,-86.5 1546,-86.5 1546,-65.5 1354,-65.5"/>
<text text-anchor="middle" x="1450" y="-73.5" font-family="Verdana" font-size="10.00">parameter/DomainConfiguration.cpp</text>
</a>
</g>
<!-- Node8&#45;&gt;Node14 -->
<g id="edge46" class="edge"><title>Node8&#45;&gt;Node14</title>
<path fill="none" stroke="midnightblue" d="M1163.61,-201.871C1268.36,-186.656 1311.3,-222.898 1396,-166 1424.89,-146.593 1440.73,-106.046 1446.91,-86.7066"/>
<polygon fill="midnightblue" stroke="midnightblue" points="1162.94,-198.432 1153.61,-203.45 1164.04,-205.346 1162.94,-198.432"/>
</g>
<!-- Node15 -->
<g id="node32" class="node"><title>Node15</title>
<a xlink:href="SelectionCriterionRule_8cpp.html" target="_top" xlink:title="parameter/SelectionCriterion\lRule.cpp">
<polygon fill="white" stroke="black" points="873.5,-59 873.5,-93 1028.5,-93 1028.5,-59 873.5,-59"/>
<text text-anchor="start" x="881.5" y="-80" font-family="Verdana" font-size="10.00">parameter/SelectionCriterion</text>
<text text-anchor="middle" x="951" y="-67" font-family="Verdana" font-size="10.00">Rule.cpp</text>
</a>
</g>
<!-- Node8&#45;&gt;Node15 -->
<g id="edge50" class="edge"><title>Node8&#45;&gt;Node15</title>
<path fill="none" stroke="midnightblue" d="M1045.91,-194.838C1022.58,-165.635 984.76,-118.273 964.626,-93.0619"/>
<polygon fill="midnightblue" stroke="midnightblue" points="1043.38,-197.286 1052.36,-202.916 1048.85,-192.918 1043.38,-197.286"/>
</g>
<!-- Node16 -->
<g id="node35" class="node"><title>Node16</title>
<a xlink:href="XmlDomainExportContext_8h.html" target="_top" xlink:title="parameter/XmlDomainExport\lContext.h">
<polygon fill="white" stroke="black" points="1230.5,-131 1230.5,-165 1387.5,-165 1387.5,-131 1230.5,-131"/>
<text text-anchor="start" x="1238.5" y="-152" font-family="Verdana" font-size="10.00">parameter/XmlDomainExport</text>
<text text-anchor="middle" x="1309" y="-139" font-family="Verdana" font-size="10.00">Context.h</text>
</a>
</g>
<!-- Node8&#45;&gt;Node16 -->
<g id="edge38" class="edge"><title>Node8&#45;&gt;Node16</title>
<path fill="none" stroke="midnightblue" d="M1133.32,-200.055C1170.41,-189.064 1215.97,-175.563 1251.41,-165.065"/>
<polygon fill="midnightblue" stroke="midnightblue" points="1132.18,-196.74 1123.59,-202.937 1134.17,-203.452 1132.18,-196.74"/>
</g>
<!-- Node9&#45;&gt;Node5 -->
<g id="edge32" class="edge"><title>Node9&#45;&gt;Node5</title>
<path fill="none" stroke="midnightblue" d="M1104.95,-123.215C1083.61,-99.7484 1052.31,-66.8281 1037,-58 1005.49,-39.8282 966.779,-28.4981 933.688,-21.5299"/>
<polygon fill="midnightblue" stroke="midnightblue" points="1102.47,-125.688 1111.77,-130.763 1107.66,-120.996 1102.47,-125.688"/>
</g>
<!-- Node10 -->
<g id="node19" class="node"><title>Node10</title>
<a xlink:href="ConfigurableDomain_8h.html" target="_top" xlink:title="parameter/ConfigurableDomain.h">
<polygon fill="white" stroke="black" points="1121.5,-65.5 1121.5,-86.5 1298.5,-86.5 1298.5,-65.5 1121.5,-65.5"/>
<text text-anchor="middle" x="1210" y="-73.5" font-family="Verdana" font-size="10.00">parameter/ConfigurableDomain.h</text>
</a>
</g>
<!-- Node9&#45;&gt;Node10 -->
<g id="edge18" class="edge"><title>Node9&#45;&gt;Node10</title>
<path fill="none" stroke="midnightblue" d="M1154.42,-124.218C1168.94,-111.622 1186.07,-96.7613 1197.43,-86.901"/>
<polygon fill="midnightblue" stroke="midnightblue" points="1151.93,-121.74 1146.67,-130.937 1156.52,-127.028 1151.93,-121.74"/>
</g>
<!-- Node9&#45;&gt;Node11 -->
<g id="edge28" class="edge"><title>Node9&#45;&gt;Node11</title>
<path fill="none" stroke="midnightblue" d="M1215.7,-130.197C1245.93,-121.884 1279.1,-110.155 1307,-94 1327.13,-82.3412 1324.44,-68.8931 1345,-58 1381.72,-38.5419 1426.07,-27.1318 1464.86,-20.4444"/>
<polygon fill="midnightblue" stroke="midnightblue" points="1214.77,-126.824 1206,-132.777 1216.57,-133.588 1214.77,-126.824"/>
</g>
<!-- Node9&#45;&gt;Node14 -->
<g id="edge30" class="edge"><title>Node9&#45;&gt;Node14</title>
<path fill="none" stroke="midnightblue" d="M1213.5,-128.718C1274.16,-115.196 1352.97,-97.6295 1402.53,-86.5821"/>
<polygon fill="midnightblue" stroke="midnightblue" points="1212.55,-125.345 1203.55,-130.937 1214.07,-132.177 1212.55,-125.345"/>
</g>
<!-- Node9&#45;&gt;Node15 -->
<g id="edge34" class="edge"><title>Node9&#45;&gt;Node15</title>
<path fill="none" stroke="midnightblue" d="M1075.83,-127.066C1049.42,-116.263 1017.61,-103.251 992.715,-93.0651"/>
<polygon fill="midnightblue" stroke="midnightblue" points="1074.71,-130.39 1085.29,-130.937 1077.36,-123.911 1074.71,-130.39"/>
</g>
<!-- Node10&#45;&gt;Node5 -->
<g id="edge26" class="edge"><title>Node10&#45;&gt;Node5</title>
<path fill="none" stroke="midnightblue" d="M1143.33,-63.5824C1077.85,-51.3874 979.059,-32.9881 917.38,-21.5005"/>
<polygon fill="midnightblue" stroke="midnightblue" points="1143.07,-67.0942 1153.54,-65.4844 1144.35,-60.2125 1143.07,-67.0942"/>
</g>
<!-- Node10&#45;&gt;Node11 -->
<g id="edge20" class="edge"><title>Node10&#45;&gt;Node11</title>
<path fill="none" stroke="midnightblue" d="M1276.67,-63.5824C1342.15,-51.3874 1440.94,-32.9881 1502.62,-21.5005"/>
<polygon fill="midnightblue" stroke="midnightblue" points="1275.65,-60.2125 1266.46,-65.4844 1276.93,-67.0942 1275.65,-60.2125"/>
</g>
<!-- Node12 -->
<g id="node23" class="node"><title>Node12</title>
<a xlink:href="ConfigurableDomains_8cpp.html" target="_top" xlink:title="parameter/ConfigurableDomains.cpp">
<polygon fill="white" stroke="black" points="1016,-0.5 1016,-21.5 1210,-21.5 1210,-0.5 1016,-0.5"/>
<text text-anchor="middle" x="1113" y="-8.5" font-family="Verdana" font-size="10.00">parameter/ConfigurableDomains.cpp</text>
</a>
</g>
<!-- Node10&#45;&gt;Node12 -->
<g id="edge22" class="edge"><title>Node10&#45;&gt;Node12</title>
<path fill="none" stroke="midnightblue" d="M1185.27,-59.4268C1167.47,-47.5032 1144.01,-31.7803 1128.72,-21.5337"/>
<polygon fill="midnightblue" stroke="midnightblue" points="1183.73,-62.6073 1193.98,-65.2666 1187.62,-56.7922 1183.73,-62.6073"/>
</g>
<!-- Node13 -->
<g id="node25" class="node"><title>Node13</title>
<a xlink:href="ConfigurableElement_8cpp.html" target="_top" xlink:title="parameter/ConfigurableElement.cpp">
<polygon fill="white" stroke="black" points="1227.5,-0.5 1227.5,-21.5 1418.5,-21.5 1418.5,-0.5 1227.5,-0.5"/>
<text text-anchor="middle" x="1323" y="-8.5" font-family="Verdana" font-size="10.00">parameter/ConfigurableElement.cpp</text>
</a>
</g>
<!-- Node10&#45;&gt;Node13 -->
<g id="edge24" class="edge"><title>Node10&#45;&gt;Node13</title>
<path fill="none" stroke="midnightblue" d="M1237.13,-60.3927C1258.01,-48.383 1286.3,-32.1109 1304.6,-21.5835"/>
<polygon fill="midnightblue" stroke="midnightblue" points="1235.33,-57.3919 1228.41,-65.412 1238.82,-63.4596 1235.33,-57.3919"/>
</g>
<!-- Node16&#45;&gt;Node5 -->
<g id="edge44" class="edge"><title>Node16&#45;&gt;Node5</title>
<path fill="none" stroke="midnightblue" d="M1224.87,-128.587C1181.17,-117.759 1132.83,-104.4 1113,-94 1090.93,-82.4256 1092.34,-69.0454 1070,-58 1029.66,-38.0578 980.761,-26.4672 940.408,-19.7885"/>
<polygon fill="midnightblue" stroke="midnightblue" points="1224.15,-132.013 1234.69,-130.998 1225.82,-125.215 1224.15,-132.013"/>
</g>
<!-- Node16&#45;&gt;Node11 -->
<g id="edge40" class="edge"><title>Node16&#45;&gt;Node11</title>
<path fill="none" stroke="midnightblue" d="M1397.72,-139.805C1459.65,-132.08 1534.72,-118.008 1555,-94 1572.32,-73.5016 1566.58,-38.9748 1562.15,-21.6256"/>
<polygon fill="midnightblue" stroke="midnightblue" points="1397.02,-136.364 1387.51,-141.037 1397.86,-143.314 1397.02,-136.364"/>
</g>
<!-- Node16&#45;&gt;Node14 -->
<g id="edge42" class="edge"><title>Node16&#45;&gt;Node14</title>
<path fill="none" stroke="midnightblue" d="M1351.56,-126.266C1377.2,-113.175 1408.71,-97.0824 1429.07,-86.688"/>
<polygon fill="midnightblue" stroke="midnightblue" points="1349.73,-123.272 1342.42,-130.937 1352.91,-129.506 1349.73,-123.272"/>
</g>
</g>
</svg>
