<?xml version="1.0" encoding="UTF-8" standalone="no"?>
<!DOCTYPE svg PUBLIC "-//W3C//DTD SVG 1.1//EN"
 "http://www.w3.org/Graphics/SVG/1.1/DTD/svg11.dtd">
<!-- Generated by graphviz version 2.26.3 (20100126.1600)
 -->
<!-- Title: parameter/XmlFileIncluderElement.cpp Pages: 1 -->
<svg width="899pt" height="334pt"
 viewBox="0.00 0.00 899.00 334.00" xmlns="http://www.w3.org/2000/svg" xmlns:xlink="http://www.w3.org/1999/xlink">
<g id="graph1" class="graph" transform="scale(1 1) rotate(0) translate(4 330)">
<title>parameter/XmlFileIncluderElement.cpp</title>
<polygon fill="white" stroke="white" points="-4,5 -4,-330 896,-330 896,5 -4,5"/>
<!-- Node1 -->
<g id="node1" class="node"><title>Node1</title>
<polygon fill="#bfbfbf" stroke="black" points="453.5,-291 453.5,-325 594.5,-325 594.5,-291 453.5,-291"/>
<text text-anchor="start" x="461.5" y="-312" font-family="Verdana" font-size="10.00">parameter/XmlFileIncluder</text>
<text text-anchor="middle" x="524" y="-299" font-family="Verdana" font-size="10.00">Element.cpp</text>
</g>
<!-- Node2 -->
<g id="node3" class="node"><title>Node2</title>
<a xlink:href="XmlFileIncluderElement_8h.html" target="_top" xlink:title="XmlFileIncluderElement.h">
<polygon fill="white" stroke="black" points="456,-232.5 456,-253.5 592,-253.5 592,-232.5 456,-232.5"/>
<text text-anchor="middle" x="524" y="-240.5" font-family="Verdana" font-size="10.00">XmlFileIncluderElement.h</text>
</a>
</g>
<!-- Node1&#45;&gt;Node2 -->
<g id="edge2" class="edge"><title>Node1&#45;&gt;Node2</title>
<path fill="none" stroke="midnightblue" d="M524,-290.922C524,-282.67 524,-272.692 524,-263.982"/>
<polygon fill="midnightblue" stroke="midnightblue" points="527.5,-263.852 524,-253.852 520.5,-263.852 527.5,-263.852"/>
</g>
<!-- Node12 -->
<g id="node28" class="node"><title>Node12</title>
<polygon fill="white" stroke="#bfbfbf" points="187.5,-232.5 187.5,-253.5 298.5,-253.5 298.5,-232.5 187.5,-232.5"/>
<text text-anchor="middle" x="243" y="-240.5" font-family="Verdana" font-size="10.00">XmlFileDocSource.h</text>
</g>
<!-- Node1&#45;&gt;Node12 -->
<g id="edge32" class="edge"><title>Node1&#45;&gt;Node12</title>
<path fill="none" stroke="midnightblue" d="M453.455,-291.682C405.391,-280.564 342.664,-266.054 298.233,-255.776"/>
<polygon fill="midnightblue" stroke="midnightblue" points="299.012,-252.364 288.481,-253.52 297.435,-259.184 299.012,-252.364"/>
</g>
<!-- Node13 -->
<g id="node30" class="node"><title>Node13</title>
<polygon fill="white" stroke="#bfbfbf" points="316,-232.5 316,-253.5 438,-253.5 438,-232.5 316,-232.5"/>
<text text-anchor="middle" x="377" y="-240.5" font-family="Verdana" font-size="10.00">XmlMemoryDocSink.h</text>
</g>
<!-- Node1&#45;&gt;Node13 -->
<g id="edge34" class="edge"><title>Node1&#45;&gt;Node13</title>
<path fill="none" stroke="midnightblue" d="M485.377,-290.922C462.11,-280.634 432.772,-267.661 410.49,-257.809"/>
<polygon fill="midnightblue" stroke="midnightblue" points="411.666,-254.501 401.104,-253.658 408.835,-260.904 411.666,-254.501"/>
</g>
<!-- Node14 -->
<g id="node32" class="node"><title>Node14</title>
<a xlink:href="XmlElementSerializingContext_8h.html" target="_top" xlink:title="XmlElementSerializingContext.h">
<polygon fill="white" stroke="black" points="0,-232.5 0,-253.5 170,-253.5 170,-232.5 0,-232.5"/>
<text text-anchor="middle" x="85" y="-240.5" font-family="Verdana" font-size="10.00">XmlElementSerializingContext.h</text>
</a>
</g>
<!-- Node1&#45;&gt;Node14 -->
<g id="edge36" class="edge"><title>Node1&#45;&gt;Node14</title>
<path fill="none" stroke="midnightblue" d="M453.467,-297.557C375.058,-285.947 248.63,-267.228 166.168,-255.018"/>
<polygon fill="midnightblue" stroke="midnightblue" points="166.491,-251.528 156.086,-253.525 165.465,-258.452 166.491,-251.528"/>
</g>
<!-- Node16 -->
<g id="node37" class="node"><title>Node16</title>
<a xlink:href="ElementLibrary_8h.html" target="_top" xlink:title="ElementLibrary.h">
<polygon fill="white" stroke="black" points="668,-174.5 668,-195.5 764,-195.5 764,-174.5 668,-174.5"/>
<text text-anchor="middle" x="716" y="-182.5" font-family="Verdana" font-size="10.00">ElementLibrary.h</text>
</a>
</g>
<!-- Node1&#45;&gt;Node16 -->
<g id="edge42" class="edge"><title>Node1&#45;&gt;Node16</title>
<path fill="none" stroke="midnightblue" d="M556.143,-290.791C574.774,-280.555 598.524,-267.055 619,-254 645.445,-237.139 674.624,-216.021 694.002,-201.618"/>
<polygon fill="midnightblue" stroke="midnightblue" points="696.257,-204.303 702.171,-195.513 692.066,-198.696 696.257,-204.303"/>
</g>
<!-- Node18 -->
<g id="node43" class="node"><title>Node18</title>
<a xlink:href="AutoLog_8h.html" target="_top" xlink:title="AutoLog.h">
<polygon fill="white" stroke="black" points="585.5,-174.5 585.5,-195.5 650.5,-195.5 650.5,-174.5 585.5,-174.5"/>
<text text-anchor="middle" x="618" y="-182.5" font-family="Verdana" font-size="10.00">AutoLog.h</text>
</a>
</g>
<!-- Node1&#45;&gt;Node18 -->
<g id="edge50" class="edge"><title>Node1&#45;&gt;Node18</title>
<path fill="none" stroke="midnightblue" d="M559.085,-290.764C574.065,-281.747 590.484,-269.358 601,-254 610.776,-239.723 614.942,-220.379 616.712,-205.806"/>
<polygon fill="midnightblue" stroke="midnightblue" points="620.206,-206.037 617.651,-195.754 613.236,-205.385 620.206,-206.037"/>
</g>
<!-- Node19 -->
<g id="node47" class="node"><title>Node19</title>
<polygon fill="white" stroke="#bfbfbf" points="686,-232.5 686,-253.5 742,-253.5 742,-232.5 686,-232.5"/>
<text text-anchor="middle" x="714" y="-240.5" font-family="Verdana" font-size="10.00">assert.h</text>
</g>
<!-- Node1&#45;&gt;Node19 -->
<g id="edge56" class="edge"><title>Node1&#45;&gt;Node19</title>
<path fill="none" stroke="midnightblue" d="M573.92,-290.922C606.024,-279.939 647.07,-265.897 676.417,-255.857"/>
<polygon fill="midnightblue" stroke="midnightblue" points="677.563,-259.165 685.891,-252.616 675.297,-252.541 677.563,-259.165"/>
</g>
<!-- Node3 -->
<g id="node5" class="node"><title>Node3</title>
<a xlink:href="KindElement_8h.html" target="_top" xlink:title="KindElement.h">
<polygon fill="white" stroke="black" points="481,-174.5 481,-195.5 567,-195.5 567,-174.5 481,-174.5"/>
<text text-anchor="middle" x="524" y="-182.5" font-family="Verdana" font-size="10.00">KindElement.h</text>
</a>
</g>
<!-- Node2&#45;&gt;Node3 -->
<g id="edge4" class="edge"><title>Node2&#45;&gt;Node3</title>
<path fill="none" stroke="midnightblue" d="M524,-232.362C524,-224.922 524,-214.743 524,-205.728"/>
<polygon fill="midnightblue" stroke="midnightblue" points="527.5,-205.571 524,-195.571 520.5,-205.571 527.5,-205.571"/>
</g>
<!-- Node5 -->
<g id="node9" class="node"><title>Node5</title>
<polygon fill="white" stroke="#bfbfbf" points="394,-0.5 394,-21.5 438,-21.5 438,-0.5 394,-0.5"/>
<text text-anchor="middle" x="416" y="-8.5" font-family="Verdana" font-size="10.00">string</text>
</g>
<!-- Node2&#45;&gt;Node5 -->
<g id="edge30" class="edge"><title>Node2&#45;&gt;Node5</title>
<path fill="none" stroke="midnightblue" d="M499.239,-232.452C466.75,-217.079 411.15,-185.12 388,-138 372.322,-106.088 378.563,-92.2803 388,-58 390.711,-48.153 396.085,-38.2859 401.406,-30.1528"/>
<polygon fill="midnightblue" stroke="midnightblue" points="404.384,-32.0015 407.247,-21.8007 398.648,-27.9898 404.384,-32.0015"/>
</g>
<!-- Node4 -->
<g id="node7" class="node"><title>Node4</title>
<a xlink:href="Element_8h.html" target="_top" xlink:title="Element.h">
<polygon fill="white" stroke="black" points="601.5,-116.5 601.5,-137.5 666.5,-137.5 666.5,-116.5 601.5,-116.5"/>
<text text-anchor="middle" x="634" y="-124.5" font-family="Verdana" font-size="10.00">Element.h</text>
</a>
</g>
<!-- Node3&#45;&gt;Node4 -->
<g id="edge6" class="edge"><title>Node3&#45;&gt;Node4</title>
<path fill="none" stroke="midnightblue" d="M543.92,-174.497C560.946,-165.519 585.669,-152.484 604.909,-142.339"/>
<polygon fill="midnightblue" stroke="midnightblue" points="606.643,-145.381 613.856,-137.621 603.378,-139.189 606.643,-145.381"/>
</g>
<!-- Node3&#45;&gt;Node5 -->
<g id="edge28" class="edge"><title>Node3&#45;&gt;Node5</title>
<path fill="none" stroke="midnightblue" d="M482.574,-174.448C451.062,-165.485 411.537,-151.895 402,-138 379.849,-105.729 394.886,-57.6062 406.37,-30.817"/>
<polygon fill="midnightblue" stroke="midnightblue" points="409.574,-32.2251 410.512,-21.6718 403.198,-29.337 409.574,-32.2251"/>
</g>
<!-- Node4&#45;&gt;Node5 -->
<g id="edge8" class="edge"><title>Node4&#45;&gt;Node5</title>
<path fill="none" stroke="midnightblue" d="M604.518,-116.477C581.304,-107.781 548.403,-94.5383 521,-80 491.326,-64.2569 459.356,-42.4852 438.591,-27.6351"/>
<polygon fill="midnightblue" stroke="midnightblue" points="440.574,-24.7494 430.417,-21.7323 436.475,-30.4243 440.574,-24.7494"/>
</g>
<!-- Node6 -->
<g id="node11" class="node"><title>Node6</title>
<polygon fill="white" stroke="#bfbfbf" points="752.5,-0.5 752.5,-21.5 799.5,-21.5 799.5,-0.5 752.5,-0.5"/>
<text text-anchor="middle" x="776" y="-8.5" font-family="Verdana" font-size="10.00">vector</text>
</g>
<!-- Node4&#45;&gt;Node6 -->
<g id="edge10" class="edge"><title>Node4&#45;&gt;Node6</title>
<path fill="none" stroke="midnightblue" d="M648.756,-116.485C661.68,-107.159 680.865,-93.0333 697,-80 717.99,-63.0454 741.148,-42.6019 756.932,-28.3882"/>
<polygon fill="midnightblue" stroke="midnightblue" points="759.396,-30.879 764.463,-21.5747 754.699,-25.688 759.396,-30.879"/>
</g>
<!-- Node7 -->
<g id="node13" class="node"><title>Node7</title>
<polygon fill="white" stroke="#bfbfbf" points="838.5,-0.5 838.5,-21.5 891.5,-21.5 891.5,-0.5 838.5,-0.5"/>
<text text-anchor="middle" x="865" y="-8.5" font-family="Verdana" font-size="10.00">stdint.h</text>
</g>
<!-- Node4&#45;&gt;Node7 -->
<g id="edge12" class="edge"><title>Node4&#45;&gt;Node7</title>
<path fill="none" stroke="midnightblue" d="M666.848,-123.139C731.299,-115.234 869.279,-96.5538 883,-80 894.646,-65.9502 886.912,-45.2032 878.256,-30.1298"/>
<polygon fill="midnightblue" stroke="midnightblue" points="881.183,-28.2092 872.911,-21.5883 875.248,-31.9222 881.183,-28.2092"/>
</g>
<!-- Node8 -->
<g id="node15" class="node"><title>Node8</title>
<polygon fill="white" stroke="#bfbfbf" points="444,-58.5 444,-79.5 474,-79.5 474,-58.5 444,-58.5"/>
<text text-anchor="middle" x="459" y="-66.5" font-family="Verdana" font-size="10.00">list</text>
</g>
<!-- Node4&#45;&gt;Node8 -->
<g id="edge14" class="edge"><title>Node4&#45;&gt;Node8</title>
<path fill="none" stroke="midnightblue" d="M601.368,-117.019C571.674,-107.813 526.701,-93.5591 488,-80 486.602,-79.5104 485.171,-78.999 483.728,-78.4762"/>
<polygon fill="midnightblue" stroke="midnightblue" points="484.891,-75.1745 474.298,-74.9699 482.451,-81.7357 484.891,-75.1745"/>
</g>
<!-- Node9 -->
<g id="node17" class="node"><title>Node9</title>
<polygon fill="white" stroke="#bfbfbf" points="530,-58.5 530,-79.5 594,-79.5 594,-58.5 530,-58.5"/>
<text text-anchor="middle" x="562" y="-66.5" font-family="Verdana" font-size="10.00">XmlSink.h</text>
</g>
<!-- Node4&#45;&gt;Node9 -->
<g id="edge16" class="edge"><title>Node4&#45;&gt;Node9</title>
<path fill="none" stroke="midnightblue" d="M620.794,-116.362C610.239,-107.859 595.242,-95.7785 583.037,-85.9466"/>
<polygon fill="midnightblue" stroke="midnightblue" points="585.105,-83.1183 575.122,-79.5707 580.714,-88.5696 585.105,-83.1183"/>
</g>
<!-- Node10 -->
<g id="node19" class="node"><title>Node10</title>
<polygon fill="white" stroke="#bfbfbf" points="611.5,-58.5 611.5,-79.5 688.5,-79.5 688.5,-58.5 611.5,-58.5"/>
<text text-anchor="middle" x="650" y="-66.5" font-family="Verdana" font-size="10.00">XmlSource.h</text>
</g>
<!-- Node4&#45;&gt;Node10 -->
<g id="edge18" class="edge"><title>Node4&#45;&gt;Node10</title>
<path fill="none" stroke="midnightblue" d="M636.935,-116.362C639.01,-108.84 641.857,-98.5187 644.364,-89.4308"/>
<polygon fill="midnightblue" stroke="midnightblue" points="647.799,-90.1414 647.084,-79.5707 641.051,-88.2798 647.799,-90.1414"/>
</g>
<!-- Node11 -->
<g id="node21" class="node"><title>Node11</title>
<a xlink:href="PathNavigator_8h.html" target="_top" xlink:title="PathNavigator.h">
<polygon fill="white" stroke="black" points="782,-58.5 782,-79.5 874,-79.5 874,-58.5 782,-58.5"/>
<text text-anchor="middle" x="828" y="-66.5" font-family="Verdana" font-size="10.00">PathNavigator.h</text>
</a>
</g>
<!-- Node4&#45;&gt;Node11 -->
<g id="edge20" class="edge"><title>Node4&#45;&gt;Node11</title>
<path fill="none" stroke="midnightblue" d="M666.909,-117.161C698.826,-107.619 747.499,-93.0672 782.991,-82.4563"/>
<polygon fill="midnightblue" stroke="midnightblue" points="784.049,-85.7932 792.627,-79.5754 782.044,-79.0865 784.049,-85.7932"/>
</g>
<!-- Node11&#45;&gt;Node5 -->
<g id="edge24" class="edge"><title>Node11&#45;&gt;Node5</title>
<path fill="none" stroke="midnightblue" d="M781.938,-62.5155C697.68,-50.6539 520.725,-25.7429 448.124,-15.5223"/>
<polygon fill="midnightblue" stroke="midnightblue" points="448.583,-12.0525 438.193,-14.1242 447.607,-18.9841 448.583,-12.0525"/>
</g>
<!-- Node11&#45;&gt;Node6 -->
<g id="edge22" class="edge"><title>Node11&#45;&gt;Node6</title>
<path fill="none" stroke="midnightblue" d="M818.462,-58.3619C811.132,-50.1861 800.837,-38.7025 792.219,-29.0907"/>
<polygon fill="midnightblue" stroke="midnightblue" points="794.759,-26.68 785.477,-21.5707 789.547,-31.3528 794.759,-26.68"/>
</g>
<!-- Node11&#45;&gt;Node7 -->
<g id="edge26" class="edge"><title>Node11&#45;&gt;Node7</title>
<path fill="none" stroke="midnightblue" d="M834.786,-58.3619C839.793,-50.5131 846.745,-39.6159 852.718,-30.2527"/>
<polygon fill="midnightblue" stroke="midnightblue" points="855.829,-31.8837 858.257,-21.5707 849.928,-28.1189 855.829,-31.8837"/>
</g>
<!-- Node14&#45;&gt;Node5 -->
<g id="edge40" class="edge"><title>Node14&#45;&gt;Node5</title>
<path fill="none" stroke="midnightblue" d="M102.229,-232.451C117.345,-223.103 139.84,-208.964 159,-196 247.573,-136.066 349.934,-60.3939 393.984,-27.5096"/>
<polygon fill="midnightblue" stroke="midnightblue" points="396.082,-30.3115 401.995,-21.5206 391.89,-24.705 396.082,-30.3115"/>
</g>
<!-- Node15 -->
<g id="node34" class="node"><title>Node15</title>
<polygon fill="white" stroke="#bfbfbf" points="20,-174.5 20,-195.5 150,-195.5 150,-174.5 20,-174.5"/>
<text text-anchor="middle" x="85" y="-182.5" font-family="Verdana" font-size="10.00">XmlSerializingContext.h</text>
</g>
<!-- Node14&#45;&gt;Node15 -->
<g id="edge38" class="edge"><title>Node14&#45;&gt;Node15</title>
<path fill="none" stroke="midnightblue" d="M85,-232.362C85,-224.922 85,-214.743 85,-205.728"/>
<polygon fill="midnightblue" stroke="midnightblue" points="88.5001,-205.571 85,-195.571 81.5001,-205.571 88.5001,-205.571"/>
</g>
<!-- Node16&#45;&gt;Node4 -->
<g id="edge48" class="edge"><title>Node16&#45;&gt;Node4</title>
<path fill="none" stroke="midnightblue" d="M700.96,-174.362C688.707,-165.696 671.201,-153.313 657.161,-143.382"/>
<polygon fill="midnightblue" stroke="midnightblue" points="659.13,-140.488 648.945,-137.571 655.088,-146.203 659.13,-140.488"/>
</g>
<!-- Node16&#45;&gt;Node5 -->
<g id="edge46" class="edge"><title>Node16&#45;&gt;Node5</title>
<path fill="none" stroke="midnightblue" d="M718.096,-174.358C722.21,-150.024 728.412,-89.9578 697,-58 662.842,-23.2486 514.809,-14.149 448.423,-11.8008"/>
<polygon fill="midnightblue" stroke="midnightblue" points="448.237,-8.29308 438.129,-11.4682 448.011,-15.2894 448.237,-8.29308"/>
</g>
<!-- Node17 -->
<g id="node39" class="node"><title>Node17</title>
<polygon fill="white" stroke="#bfbfbf" points="744,-116.5 744,-137.5 782,-137.5 782,-116.5 744,-116.5"/>
<text text-anchor="middle" x="763" y="-124.5" font-family="Verdana" font-size="10.00">map</text>
</g>
<!-- Node16&#45;&gt;Node17 -->
<g id="edge44" class="edge"><title>Node16&#45;&gt;Node17</title>
<path fill="none" stroke="midnightblue" d="M724.621,-174.362C731.18,-166.268 740.366,-154.932 748.106,-145.38"/>
<polygon fill="midnightblue" stroke="midnightblue" points="750.858,-147.544 754.434,-137.571 745.419,-143.136 750.858,-147.544"/>
</g>
<!-- Node18&#45;&gt;Node4 -->
<g id="edge52" class="edge"><title>Node18&#45;&gt;Node4</title>
<path fill="none" stroke="midnightblue" d="M620.935,-174.362C623.01,-166.84 625.857,-156.519 628.364,-147.431"/>
<polygon fill="midnightblue" stroke="midnightblue" points="631.799,-148.141 631.084,-137.571 625.051,-146.28 631.799,-148.141"/>
</g>
<!-- Node18&#45;&gt;Node5 -->
<g id="edge54" class="edge"><title>Node18&#45;&gt;Node5</title>
<path fill="none" stroke="midnightblue" d="M585.362,-174.965C544.147,-160.605 473.929,-130.233 435,-80 424.325,-66.226 419.644,-46.8345 417.594,-32.1147"/>
<polygon fill="midnightblue" stroke="midnightblue" points="421.047,-31.5003 416.482,-21.9394 414.089,-32.2604 421.047,-31.5003"/>
</g>
</g>
</svg>
