<?xml version="1.0" encoding="UTF-8" standalone="no"?>
<!DOCTYPE svg PUBLIC "-//W3C//DTD SVG 1.1//EN"
 "http://www.w3.org/Graphics/SVG/1.1/DTD/svg11.dtd">
<!-- Generated by graphviz version 2.26.3 (20100126.1600)
 -->
<!-- Title: parameter/XmlParameterSerializingContext.cpp Pages: 1 -->
<svg width="243pt" height="218pt"
 viewBox="0.00 0.00 243.00 218.00" xmlns="http://www.w3.org/2000/svg" xmlns:xlink="http://www.w3.org/1999/xlink">
<g id="graph1" class="graph" transform="scale(1 1) rotate(0) translate(4 214)">
<title>parameter/XmlParameterSerializingContext.cpp</title>
<polygon fill="white" stroke="white" points="-4,5 -4,-214 240,-214 240,5 -4,5"/>
<!-- Node1 -->
<g id="node1" class="node"><title>Node1</title>
<polygon fill="#bfbfbf" stroke="black" points="47,-175 47,-209 235,-209 235,-175 47,-175"/>
<text text-anchor="start" x="55" y="-196" font-family="Verdana" font-size="10.00">parameter/XmlParameterSerializing</text>
<text text-anchor="middle" x="141" y="-183" font-family="Verdana" font-size="10.00">Context.cpp</text>
</g>
<!-- Node2 -->
<g id="node3" class="node"><title>Node2</title>
<a xlink:href="XmlParameterSerializingContext_8h.html" target="_top" xlink:title="XmlParameterSerializingContext.h">
<polygon fill="white" stroke="black" points="51,-116.5 51,-137.5 231,-137.5 231,-116.5 51,-116.5"/>
<text text-anchor="middle" x="141" y="-124.5" font-family="Verdana" font-size="10.00">XmlParameterSerializingContext.h</text>
</a>
</g>
<!-- Node1&#45;&gt;Node2 -->
<g id="edge2" class="edge"><title>Node1&#45;&gt;Node2</title>
<path fill="none" stroke="midnightblue" d="M141,-174.922C141,-166.67 141,-156.692 141,-147.982"/>
<polygon fill="midnightblue" stroke="midnightblue" points="144.5,-147.852 141,-137.852 137.5,-147.852 144.5,-147.852"/>
</g>
<!-- Node3 -->
<g id="node5" class="node"><title>Node3</title>
<a xlink:href="XmlElementSerializingContext_8h.html" target="_top" xlink:title="XmlElementSerializingContext.h">
<polygon fill="white" stroke="black" points="0,-58.5 0,-79.5 170,-79.5 170,-58.5 0,-58.5"/>
<text text-anchor="middle" x="85" y="-66.5" font-family="Verdana" font-size="10.00">XmlElementSerializingContext.h</text>
</a>
</g>
<!-- Node2&#45;&gt;Node3 -->
<g id="edge4" class="edge"><title>Node2&#45;&gt;Node3</title>
<path fill="none" stroke="midnightblue" d="M130.729,-116.362C122.756,-108.104 111.525,-96.4725 102.189,-86.8029"/>
<polygon fill="midnightblue" stroke="midnightblue" points="104.67,-84.3336 95.2061,-79.5707 99.6342,-89.1958 104.67,-84.3336"/>
</g>
<!-- Node5 -->
<g id="node9" class="node"><title>Node5</title>
<polygon fill="white" stroke="#bfbfbf" points="172,-0.5 172,-21.5 216,-21.5 216,-0.5 172,-0.5"/>
<text text-anchor="middle" x="194" y="-8.5" font-family="Verdana" font-size="10.00">string</text>
</g>
<!-- Node2&#45;&gt;Node5 -->
<g id="edge10" class="edge"><title>Node2&#45;&gt;Node5</title>
<path fill="none" stroke="midnightblue" d="M151.999,-116.44C160.635,-107.525 172.287,-94.004 179,-80 186.275,-64.8224 190.061,-46.078 192.008,-31.9582"/>
<polygon fill="midnightblue" stroke="midnightblue" points="195.513,-32.1233 193.207,-21.7824 188.561,-31.3043 195.513,-32.1233"/>
</g>
<!-- Node4 -->
<g id="node7" class="node"><title>Node4</title>
<polygon fill="white" stroke="#bfbfbf" points="20,-0.5 20,-21.5 150,-21.5 150,-0.5 20,-0.5"/>
<text text-anchor="middle" x="85" y="-8.5" font-family="Verdana" font-size="10.00">XmlSerializingContext.h</text>
</g>
<!-- Node3&#45;&gt;Node4 -->
<g id="edge6" class="edge"><title>Node3&#45;&gt;Node4</title>
<path fill="none" stroke="midnightblue" d="M85,-58.3619C85,-50.9219 85,-40.7427 85,-31.7276"/>
<polygon fill="midnightblue" stroke="midnightblue" points="88.5001,-31.5706 85,-21.5707 81.5001,-31.5707 88.5001,-31.5706"/>
</g>
<!-- Node3&#45;&gt;Node5 -->
<g id="edge8" class="edge"><title>Node3&#45;&gt;Node5</title>
<path fill="none" stroke="midnightblue" d="M104.739,-58.4966C121.61,-49.5194 146.109,-36.4835 165.174,-26.3387"/>
<polygon fill="midnightblue" stroke="midnightblue" points="166.856,-29.4086 174.039,-21.6212 163.567,-23.2289 166.856,-29.4086"/>
</g>
</g>
</svg>
