<?xml version="1.0" encoding="UTF-8" standalone="no"?>
<!DOCTYPE svg PUBLIC "-//W3C//DTD SVG 1.1//EN"
 "http://www.w3.org/Graphics/SVG/1.1/DTD/svg11.dtd">
<!-- Generated by graphviz version 2.38.0 (20140413.2041)
 -->
<!-- Title: /home/dawagner/dev/parameter&#45;framework/parameter/BackSynchronizer.h Pages: 1 -->
<svg width="531pt" height="274pt"
 viewBox="0.00 0.00 530.93 274.00" xmlns="http://www.w3.org/2000/svg" xmlns:xlink="http://www.w3.org/1999/xlink">
<g id="graph0" class="graph" transform="scale(1 1) rotate(0) translate(4 270)">
<title>/home/dawagner/dev/parameter&#45;framework/parameter/BackSynchronizer.h</title>
<polygon fill="white" stroke="none" points="-4,4 -4,-270 526.927,-270 526.927,4 -4,4"/>
<!-- Node1 -->
<g id="node1" class="node"><title>Node1</title>
<polygon fill="#bfbfbf" stroke="black" points="22.9267,-224.5 22.9267,-265.5 189.927,-265.5 189.927,-224.5 22.9267,-224.5"/>
<text text-anchor="start" x="30.9267" y="-253.5" font-family="Verdana" font-size="10.00">/home/dawagner/dev</text>
<text text-anchor="start" x="30.9267" y="-242.5" font-family="Verdana" font-size="10.00">/parameter&#45;framework</text>
<text text-anchor="middle" x="106.427" y="-231.5" font-family="Verdana" font-size="10.00">/parameter/BackSynchronizer.h</text>
</g>
<!-- Node2 -->
<g id="node2" class="node"><title>Node2</title>
<g id="a_node2"><a xlink:href="ConfigurableElementAggregator_8h.html" target="_top" xlink:title="ConfigurableElementAggregator.h">
<polygon fill="white" stroke="black" points="16.9267,-112.5 16.9267,-131.5 195.927,-131.5 195.927,-112.5 16.9267,-112.5"/>
<text text-anchor="middle" x="106.427" y="-119.5" font-family="Verdana" font-size="10.00">ConfigurableElementAggregator.h</text>
</a>
</g>
</g>
<!-- Node1&#45;&gt;Node2 -->
<g id="edge1" class="edge"><title>Node1&#45;&gt;Node2</title>
<path fill="none" stroke="midnightblue" d="M106.427,-224.29C106.427,-201.48 106.427,-164.189 106.427,-141.781"/>
<polygon fill="midnightblue" stroke="midnightblue" points="109.927,-141.575 106.427,-131.575 102.927,-141.575 109.927,-141.575"/>
</g>
<!-- Node3 -->
<g id="node3" class="node"><title>Node3</title>
<polygon fill="white" stroke="#bfbfbf" points="91.4267,-56.5 91.4267,-75.5 121.427,-75.5 121.427,-56.5 91.4267,-56.5"/>
<text text-anchor="middle" x="106.427" y="-63.5" font-family="Verdana" font-size="10.00">list</text>
</g>
<!-- Node1&#45;&gt;Node3 -->
<g id="edge17" class="edge"><title>Node1&#45;&gt;Node3</title>
<path fill="none" stroke="midnightblue" d="M73.1618,-224.291C34.9255,-199.036 -19.3254,-153.546 7.42665,-112 23.5586,-86.947 57.4285,-75.681 81.0332,-70.7246"/>
<polygon fill="midnightblue" stroke="midnightblue" points="81.8623,-74.1306 91.0557,-68.8645 80.5849,-67.2481 81.8623,-74.1306"/>
</g>
<!-- Node5 -->
<g id="node5" class="node"><title>Node5</title>
<g id="a_node5"><a xlink:href="ConfigurableElement_8h.html" target="_top" xlink:title="ConfigurableElement.h">
<polygon fill="white" stroke="black" points="161.927,-168.5 161.927,-187.5 286.927,-187.5 286.927,-168.5 161.927,-168.5"/>
<text text-anchor="middle" x="224.427" y="-175.5" font-family="Verdana" font-size="10.00">ConfigurableElement.h</text>
</a>
</g>
</g>
<!-- Node1&#45;&gt;Node5 -->
<g id="edge4" class="edge"><title>Node1&#45;&gt;Node5</title>
<path fill="none" stroke="midnightblue" d="M141.831,-224.498C160.444,-214.245 182.809,-201.925 199.569,-192.693"/>
<polygon fill="midnightblue" stroke="midnightblue" points="201.649,-195.543 208.719,-187.652 198.271,-189.412 201.649,-195.543"/>
</g>
<!-- Node2&#45;&gt;Node3 -->
<g id="edge2" class="edge"><title>Node2&#45;&gt;Node3</title>
<path fill="none" stroke="midnightblue" d="M106.427,-112.083C106.427,-105.006 106.427,-94.8611 106.427,-85.9865"/>
<polygon fill="midnightblue" stroke="midnightblue" points="109.927,-85.751 106.427,-75.7511 102.927,-85.7511 109.927,-85.751"/>
</g>
<!-- Node4 -->
<g id="node4" class="node"><title>Node4</title>
<polygon fill="white" stroke="#bfbfbf" points="127.427,-0.5 127.427,-19.5 171.427,-19.5 171.427,-0.5 127.427,-0.5"/>
<text text-anchor="middle" x="149.427" y="-7.5" font-family="Verdana" font-size="10.00">string</text>
</g>
<!-- Node2&#45;&gt;Node4 -->
<g id="edge3" class="edge"><title>Node2&#45;&gt;Node4</title>
<path fill="none" stroke="midnightblue" d="M98.6441,-112.267C88.245,-99.4806 72.2424,-75.1083 82.4267,-56 90.0839,-41.6329 104.592,-31.0377 118.154,-23.7499"/>
<polygon fill="midnightblue" stroke="midnightblue" points="119.886,-26.7984 127.297,-19.2273 116.782,-20.5241 119.886,-26.7984"/>
</g>
<!-- Node5&#45;&gt;Node3 -->
<g id="edge16" class="edge"><title>Node5&#45;&gt;Node3</title>
<path fill="none" stroke="midnightblue" d="M223.968,-168.345C222.811,-154.771 218.742,-128.341 204.427,-112 194.244,-100.376 156.44,-85.0304 130.874,-75.597"/>
<polygon fill="midnightblue" stroke="midnightblue" points="132.027,-72.2922 121.433,-72.1755 129.642,-78.8734 132.027,-72.2922"/>
</g>
<!-- Node6 -->
<g id="node6" class="node"><title>Node6</title>
<g id="a_node6"><a xlink:href="Element_8h.html" target="_top" xlink:title="Element.h">
<polygon fill="white" stroke="black" points="258.927,-112.5 258.927,-131.5 323.927,-131.5 323.927,-112.5 258.927,-112.5"/>
<text text-anchor="middle" x="291.427" y="-119.5" font-family="Verdana" font-size="10.00">Element.h</text>
</a>
</g>
</g>
<!-- Node5&#45;&gt;Node6 -->
<g id="edge5" class="edge"><title>Node5&#45;&gt;Node6</title>
<path fill="none" stroke="midnightblue" d="M235.191,-168.324C245.193,-160.263 260.313,-148.077 272.357,-138.369"/>
<polygon fill="midnightblue" stroke="midnightblue" points="274.876,-140.834 280.466,-131.834 270.484,-135.384 274.876,-140.834"/>
</g>
<!-- Node6&#45;&gt;Node3 -->
<g id="edge9" class="edge"><title>Node6&#45;&gt;Node3</title>
<path fill="none" stroke="midnightblue" d="M261.176,-112.468C229.709,-103.548 179.037,-89.0557 135.427,-76 134.006,-75.5748 132.548,-75.1344 131.077,-74.6872"/>
<polygon fill="midnightblue" stroke="midnightblue" points="132.048,-71.324 121.461,-71.7287 129.989,-78.0145 132.048,-71.324"/>
</g>
<!-- Node6&#45;&gt;Node4 -->
<g id="edge6" class="edge"><title>Node6&#45;&gt;Node4</title>
<path fill="none" stroke="midnightblue" d="M258.713,-117.249C230.976,-112.369 192.042,-101.236 168.427,-76 156.764,-63.5363 152.218,-44.3029 150.469,-29.9874"/>
<polygon fill="midnightblue" stroke="midnightblue" points="153.935,-29.4438 149.582,-19.7843 146.961,-30.0497 153.935,-29.4438"/>
</g>
<!-- Node7 -->
<g id="node7" class="node"><title>Node7</title>
<polygon fill="white" stroke="#bfbfbf" points="210.927,-0.5 210.927,-19.5 257.927,-19.5 257.927,-0.5 210.927,-0.5"/>
<text text-anchor="middle" x="234.427" y="-7.5" font-family="Verdana" font-size="10.00">vector</text>
</g>
<!-- Node6&#45;&gt;Node7 -->
<g id="edge7" class="edge"><title>Node6&#45;&gt;Node7</title>
<path fill="none" stroke="midnightblue" d="M291.247,-112.489C290.651,-99.561 288.206,-74.5218 278.427,-56 272.412,-44.6074 262.604,-34.1634 253.773,-26.2108"/>
<polygon fill="midnightblue" stroke="midnightblue" points="255.956,-23.4728 246.074,-19.6521 251.416,-28.8014 255.956,-23.4728"/>
</g>
<!-- Node8 -->
<g id="node8" class="node"><title>Node8</title>
<polygon fill="white" stroke="#bfbfbf" points="297.927,-0.5 297.927,-19.5 350.927,-19.5 350.927,-0.5 297.927,-0.5"/>
<text text-anchor="middle" x="324.427" y="-7.5" font-family="Verdana" font-size="10.00">stdint.h</text>
</g>
<!-- Node6&#45;&gt;Node8 -->
<g id="edge8" class="edge"><title>Node6&#45;&gt;Node8</title>
<path fill="none" stroke="midnightblue" d="M296.006,-112.261C300.506,-103.355 307.282,-89.036 311.427,-76 316.281,-60.7314 319.7,-42.8463 321.809,-29.7061"/>
<polygon fill="midnightblue" stroke="midnightblue" points="325.308,-29.9735 323.329,-19.5652 318.386,-28.936 325.308,-29.9735"/>
</g>
<!-- Node9 -->
<g id="node9" class="node"><title>Node9</title>
<polygon fill="white" stroke="#bfbfbf" points="363.427,-56.5 363.427,-75.5 427.427,-75.5 427.427,-56.5 363.427,-56.5"/>
<text text-anchor="middle" x="395.427" y="-63.5" font-family="Verdana" font-size="10.00">XmlSink.h</text>
</g>
<!-- Node6&#45;&gt;Node9 -->
<g id="edge10" class="edge"><title>Node6&#45;&gt;Node9</title>
<path fill="none" stroke="midnightblue" d="M308.136,-112.324C324.739,-103.703 350.429,-90.3643 369.647,-80.3855"/>
<polygon fill="midnightblue" stroke="midnightblue" points="371.497,-83.3689 378.759,-75.6545 368.271,-77.1565 371.497,-83.3689"/>
</g>
<!-- Node10 -->
<g id="node10" class="node"><title>Node10</title>
<polygon fill="white" stroke="#bfbfbf" points="445.927,-56.5 445.927,-75.5 522.927,-75.5 522.927,-56.5 445.927,-56.5"/>
<text text-anchor="middle" x="484.427" y="-63.5" font-family="Verdana" font-size="10.00">XmlSource.h</text>
</g>
<!-- Node6&#45;&gt;Node10 -->
<g id="edge11" class="edge"><title>Node6&#45;&gt;Node10</title>
<path fill="none" stroke="midnightblue" d="M322.008,-112.444C355.041,-103.201 407.814,-88.4356 444.193,-78.2572"/>
<polygon fill="midnightblue" stroke="midnightblue" points="445.301,-81.5815 453.988,-75.5164 443.415,-74.8404 445.301,-81.5815"/>
</g>
<!-- Node11 -->
<g id="node11" class="node"><title>Node11</title>
<g id="a_node11"><a xlink:href="PathNavigator_8h.html" target="_top" xlink:title="PathNavigator.h">
<polygon fill="white" stroke="black" points="177.427,-56.5 177.427,-75.5 269.427,-75.5 269.427,-56.5 177.427,-56.5"/>
<text text-anchor="middle" x="223.427" y="-63.5" font-family="Verdana" font-size="10.00">PathNavigator.h</text>
</a>
</g>
</g>
<!-- Node6&#45;&gt;Node11 -->
<g id="edge12" class="edge"><title>Node6&#45;&gt;Node11</title>
<path fill="none" stroke="midnightblue" d="M280.501,-112.324C270.252,-104.185 254.706,-91.8395 242.426,-82.0874"/>
<polygon fill="midnightblue" stroke="midnightblue" points="244.559,-79.3119 234.551,-75.8339 240.205,-84.7937 244.559,-79.3119"/>
</g>
<!-- Node11&#45;&gt;Node4 -->
<g id="edge14" class="edge"><title>Node11&#45;&gt;Node4</title>
<path fill="none" stroke="midnightblue" d="M211.537,-56.324C200.276,-48.1066 183.14,-35.6017 169.718,-25.8069"/>
<polygon fill="midnightblue" stroke="midnightblue" points="171.673,-22.9014 161.532,-19.8339 167.547,-28.5559 171.673,-22.9014"/>
</g>
<!-- Node11&#45;&gt;Node7 -->
<g id="edge13" class="edge"><title>Node11&#45;&gt;Node7</title>
<path fill="none" stroke="midnightblue" d="M225.243,-56.083C226.701,-48.9272 228.797,-38.6353 230.619,-29.6911"/>
<polygon fill="midnightblue" stroke="midnightblue" points="234.077,-30.2485 232.644,-19.7511 227.218,-28.8512 234.077,-30.2485"/>
</g>
<!-- Node11&#45;&gt;Node8 -->
<g id="edge15" class="edge"><title>Node11&#45;&gt;Node8</title>
<path fill="none" stroke="midnightblue" d="M239.654,-56.324C255.778,-47.7034 280.727,-34.3643 299.391,-24.3855"/>
<polygon fill="midnightblue" stroke="midnightblue" points="301.071,-27.456 308.24,-19.6545 297.771,-21.283 301.071,-27.456"/>
</g>
</g>
</svg>
