<?xml version="1.0" encoding="UTF-8" standalone="no"?>
<!DOCTYPE svg PUBLIC "-//W3C//DTD SVG 1.1//EN"
 "http://www.w3.org/Graphics/SVG/1.1/DTD/svg11.dtd">
<!-- Generated by graphviz version 2.38.0 (20140413.2041)
 -->
<!-- Title: /home/dawagner/dev/parameter&#45;framework/parameter/BitParameterBlock.cpp Pages: 1 -->
<svg width="905pt" height="442pt"
 viewBox="0.00 0.00 904.80 442.00" xmlns="http://www.w3.org/2000/svg" xmlns:xlink="http://www.w3.org/1999/xlink">
<g id="graph0" class="graph" transform="scale(1 1) rotate(0) translate(4 438)">
<title>/home/dawagner/dev/parameter&#45;framework/parameter/BitParameterBlock.cpp</title>
<polygon fill="white" stroke="none" points="-4,4 -4,-438 900.796,-438 900.796,4 -4,4"/>
<!-- Node1 -->
<g id="node1" class="node"><title>Node1</title>
<polygon fill="#bfbfbf" stroke="black" points="532.796,-392.5 532.796,-433.5 714.796,-433.5 714.796,-392.5 532.796,-392.5"/>
<text text-anchor="start" x="540.796" y="-421.5" font-family="Verdana" font-size="10.00">/home/dawagner/dev</text>
<text text-anchor="start" x="540.796" y="-410.5" font-family="Verdana" font-size="10.00">/parameter&#45;framework</text>
<text text-anchor="middle" x="623.796" y="-399.5" font-family="Verdana" font-size="10.00">/parameter/BitParameterBlock.cpp</text>
</g>
<!-- Node2 -->
<g id="node2" class="node"><title>Node2</title>
<g id="a_node2"><a xlink:href="BitParameterBlock_8h.html" target="_top" xlink:title="BitParameterBlock.h">
<polygon fill="white" stroke="black" points="404.796,-336.5 404.796,-355.5 518.796,-355.5 518.796,-336.5 404.796,-336.5"/>
<text text-anchor="middle" x="461.796" y="-343.5" font-family="Verdana" font-size="10.00">BitParameterBlock.h</text>
</a>
</g>
</g>
<!-- Node1&#45;&gt;Node2 -->
<g id="edge1" class="edge"><title>Node1&#45;&gt;Node2</title>
<path fill="none" stroke="midnightblue" d="M575.191,-392.498C548.443,-381.766 516.052,-368.769 492.749,-359.419"/>
<polygon fill="midnightblue" stroke="midnightblue" points="493.945,-356.128 483.361,-355.652 491.338,-362.625 493.945,-356.128"/>
</g>
<!-- Node15 -->
<g id="node15" class="node"><title>Node15</title>
<g id="a_node15"><a xlink:href="BitParameterBlockType_8h.html" target="_top" xlink:title="BitParameterBlockType.h">
<polygon fill="white" stroke="black" points="491.296,-224.5 491.296,-243.5 626.296,-243.5 626.296,-224.5 491.296,-224.5"/>
<text text-anchor="middle" x="558.796" y="-231.5" font-family="Verdana" font-size="10.00">BitParameterBlockType.h</text>
</a>
</g>
</g>
<!-- Node1&#45;&gt;Node15 -->
<g id="edge23" class="edge"><title>Node1&#45;&gt;Node15</title>
<path fill="none" stroke="midnightblue" d="M616.592,-392.382C603.886,-357.783 577.681,-286.425 565.409,-253.006"/>
<polygon fill="midnightblue" stroke="midnightblue" points="568.681,-251.764 561.949,-243.584 562.11,-254.177 568.681,-251.764"/>
</g>
<!-- Node16 -->
<g id="node16" class="node"><title>Node16</title>
<g id="a_node16"><a xlink:href="ParameterAccessContext_8h.html" target="_top" xlink:title="ParameterAccessContext.h">
<polygon fill="white" stroke="black" points="587.296,-112.5 587.296,-131.5 734.296,-131.5 734.296,-112.5 587.296,-112.5"/>
<text text-anchor="middle" x="660.796" y="-119.5" font-family="Verdana" font-size="10.00">ParameterAccessContext.h</text>
</a>
</g>
</g>
<!-- Node1&#45;&gt;Node16 -->
<g id="edge26" class="edge"><title>Node1&#45;&gt;Node16</title>
<path fill="none" stroke="midnightblue" d="M632.908,-392.351C642.979,-368.797 657.796,-327.877 657.796,-291 657.796,-291 657.796,-291 657.796,-233 657.796,-200.936 659.086,-163.634 659.974,-141.745"/>
<polygon fill="midnightblue" stroke="midnightblue" points="663.479,-141.694 660.404,-131.556 656.485,-141.399 663.479,-141.694"/>
</g>
<!-- Node18 -->
<g id="node18" class="node"><title>Node18</title>
<g id="a_node18"><a xlink:href="ParameterBlackboard_8h.html" target="_top" xlink:title="ParameterBlackboard.h">
<polygon fill="white" stroke="black" points="752.296,-112.5 752.296,-131.5 881.296,-131.5 881.296,-112.5 752.296,-112.5"/>
<text text-anchor="middle" x="816.796" y="-119.5" font-family="Verdana" font-size="10.00">ParameterBlackboard.h</text>
</a>
</g>
</g>
<!-- Node1&#45;&gt;Node18 -->
<g id="edge31" class="edge"><title>Node1&#45;&gt;Node18</title>
<path fill="none" stroke="midnightblue" d="M669.963,-392.481C708.028,-372.938 755.796,-338.876 755.796,-291 755.796,-291 755.796,-291 755.796,-233 755.796,-195.574 783.137,-158.958 801.21,-138.841"/>
<polygon fill="midnightblue" stroke="midnightblue" points="803.791,-141.205 808.056,-131.507 798.674,-136.429 803.791,-141.205"/>
</g>
<!-- Node3 -->
<g id="node3" class="node"><title>Node3</title>
<g id="a_node3"><a xlink:href="InstanceConfigurableElement_8h.html" target="_top" xlink:title="InstanceConfigurableElement.h">
<polygon fill="white" stroke="black" points="333.796,-280.5 333.796,-299.5 499.796,-299.5 499.796,-280.5 333.796,-280.5"/>
<text text-anchor="middle" x="416.796" y="-287.5" font-family="Verdana" font-size="10.00">InstanceConfigurableElement.h</text>
</a>
</g>
</g>
<!-- Node2&#45;&gt;Node3 -->
<g id="edge2" class="edge"><title>Node2&#45;&gt;Node3</title>
<path fill="none" stroke="midnightblue" d="M454.365,-336.083C447.944,-328.377 438.491,-317.033 430.674,-307.653"/>
<polygon fill="midnightblue" stroke="midnightblue" points="433.18,-305.193 424.089,-299.751 427.802,-309.674 433.18,-305.193"/>
</g>
<!-- Node4 -->
<g id="node4" class="node"><title>Node4</title>
<g id="a_node4"><a xlink:href="ConfigurableElementWithMapping_8h.html" target="_top" xlink:title="ConfigurableElementWithMapping.h">
<polygon fill="white" stroke="black" points="76.7963,-224.5 76.7963,-243.5 262.796,-243.5 262.796,-224.5 76.7963,-224.5"/>
<text text-anchor="middle" x="169.796" y="-231.5" font-family="Verdana" font-size="10.00">ConfigurableElementWithMapping.h</text>
</a>
</g>
</g>
<!-- Node3&#45;&gt;Node4 -->
<g id="edge3" class="edge"><title>Node3&#45;&gt;Node4</title>
<path fill="none" stroke="midnightblue" d="M377.658,-280.444C334.57,-271.023 265.237,-255.866 218.625,-245.675"/>
<polygon fill="midnightblue" stroke="midnightblue" points="219.268,-242.233 208.751,-243.516 217.773,-249.072 219.268,-242.233"/>
</g>
<!-- Node7 -->
<g id="node7" class="node"><title>Node7</title>
<polygon fill="white" stroke="#bfbfbf" points="460.796,-0.5 460.796,-19.5 504.796,-19.5 504.796,-0.5 460.796,-0.5"/>
<text text-anchor="middle" x="482.796" y="-7.5" font-family="Verdana" font-size="10.00">string</text>
</g>
<!-- Node3&#45;&gt;Node7 -->
<g id="edge22" class="edge"><title>Node3&#45;&gt;Node7</title>
<path fill="none" stroke="midnightblue" d="M417.74,-280.416C420.016,-260.502 426.331,-209.68 435.796,-168 447.362,-117.073 466.504,-58.4638 476.413,-29.3694"/>
<polygon fill="midnightblue" stroke="midnightblue" points="479.782,-30.336 479.723,-19.7414 473.162,-28.06 479.782,-30.336"/>
</g>
<!-- Node10 -->
<g id="node10" class="node"><title>Node10</title>
<polygon fill="white" stroke="#bfbfbf" points="22.7963,-56.5 22.7963,-75.5 52.7963,-75.5 52.7963,-56.5 22.7963,-56.5"/>
<text text-anchor="middle" x="37.7963" y="-63.5" font-family="Verdana" font-size="10.00">list</text>
</g>
<!-- Node3&#45;&gt;Node10 -->
<g id="edge21" class="edge"><title>Node3&#45;&gt;Node10</title>
<path fill="none" stroke="midnightblue" d="M333.733,-289.296C242.71,-287.778 104.685,-279.454 67.7963,-244 24.2009,-202.1 29.452,-122.055 34.5521,-85.7421"/>
<polygon fill="midnightblue" stroke="midnightblue" points="38.0521,-86.0138 36.1406,-75.5928 31.1363,-84.9313 38.0521,-86.0138"/>
</g>
<!-- Node14 -->
<g id="node14" class="node"><title>Node14</title>
<g id="a_node14"><a xlink:href="TypeElement_8h.html" target="_top" xlink:title="TypeElement.h">
<polygon fill="white" stroke="black" points="444.796,-168.5 444.796,-187.5 530.796,-187.5 530.796,-168.5 444.796,-168.5"/>
<text text-anchor="middle" x="487.796" y="-175.5" font-family="Verdana" font-size="10.00">TypeElement.h</text>
</a>
</g>
</g>
<!-- Node3&#45;&gt;Node14 -->
<g id="edge18" class="edge"><title>Node3&#45;&gt;Node14</title>
<path fill="none" stroke="midnightblue" d="M422.368,-280.368C434.033,-262.296 461.219,-220.176 476.625,-196.307"/>
<polygon fill="midnightblue" stroke="midnightblue" points="479.769,-197.891 482.251,-187.591 473.887,-194.095 479.769,-197.891"/>
</g>
<!-- Node5 -->
<g id="node5" class="node"><title>Node5</title>
<g id="a_node5"><a xlink:href="ConfigurableElement_8h.html" target="_top" xlink:title="ConfigurableElement.h">
<polygon fill="white" stroke="black" points="107.296,-168.5 107.296,-187.5 232.296,-187.5 232.296,-168.5 107.296,-168.5"/>
<text text-anchor="middle" x="169.796" y="-175.5" font-family="Verdana" font-size="10.00">ConfigurableElement.h</text>
</a>
</g>
</g>
<!-- Node4&#45;&gt;Node5 -->
<g id="edge4" class="edge"><title>Node4&#45;&gt;Node5</title>
<path fill="none" stroke="midnightblue" d="M169.796,-224.083C169.796,-217.006 169.796,-206.861 169.796,-197.986"/>
<polygon fill="midnightblue" stroke="midnightblue" points="173.296,-197.751 169.796,-187.751 166.296,-197.751 173.296,-197.751"/>
</g>
<!-- Node4&#45;&gt;Node7 -->
<g id="edge17" class="edge"><title>Node4&#45;&gt;Node7</title>
<path fill="none" stroke="midnightblue" d="M151.642,-224.445C99.3394,-198.73 -44.3254,-119.965 13.7963,-56 28.5227,-39.793 346.865,-19.2079 450.503,-12.9135"/>
<polygon fill="midnightblue" stroke="midnightblue" points="450.906,-16.3957 460.677,-12.2998 450.484,-9.40844 450.906,-16.3957"/>
</g>
<!-- Node6 -->
<g id="node6" class="node"><title>Node6</title>
<g id="a_node6"><a xlink:href="Element_8h.html" target="_top" xlink:title="Element.h">
<polygon fill="white" stroke="black" points="146.296,-112.5 146.296,-131.5 211.296,-131.5 211.296,-112.5 146.296,-112.5"/>
<text text-anchor="middle" x="178.796" y="-119.5" font-family="Verdana" font-size="10.00">Element.h</text>
</a>
</g>
</g>
<!-- Node5&#45;&gt;Node6 -->
<g id="edge5" class="edge"><title>Node5&#45;&gt;Node6</title>
<path fill="none" stroke="midnightblue" d="M171.282,-168.083C172.475,-160.927 174.19,-150.635 175.681,-141.691"/>
<polygon fill="midnightblue" stroke="midnightblue" points="179.146,-142.19 177.338,-131.751 172.241,-141.04 179.146,-142.19"/>
</g>
<!-- Node5&#45;&gt;Node10 -->
<g id="edge16" class="edge"><title>Node5&#45;&gt;Node10</title>
<path fill="none" stroke="midnightblue" d="M159.438,-168.368C137.076,-149.733 84.0351,-105.532 55.9569,-82.1338"/>
<polygon fill="midnightblue" stroke="midnightblue" points="58.0289,-79.3045 48.106,-75.5914 53.5476,-84.6821 58.0289,-79.3045"/>
</g>
<!-- Node6&#45;&gt;Node7 -->
<g id="edge6" class="edge"><title>Node6&#45;&gt;Node7</title>
<path fill="none" stroke="midnightblue" d="M166.483,-112.42C149.257,-99.4022 121.775,-74.2471 137.796,-56 158.297,-32.6514 368.721,-17.7649 450.52,-12.8213"/>
<polygon fill="midnightblue" stroke="midnightblue" points="450.956,-16.3017 460.731,-12.2157 450.542,-9.31396 450.956,-16.3017"/>
</g>
<!-- Node8 -->
<g id="node8" class="node"><title>Node8</title>
<polygon fill="white" stroke="#bfbfbf" points="202.296,-0.5 202.296,-19.5 249.296,-19.5 249.296,-0.5 202.296,-0.5"/>
<text text-anchor="middle" x="225.796" y="-7.5" font-family="Verdana" font-size="10.00">vector</text>
</g>
<!-- Node6&#45;&gt;Node8 -->
<g id="edge7" class="edge"><title>Node6&#45;&gt;Node8</title>
<path fill="none" stroke="midnightblue" d="M154.701,-112.399C127.186,-101.191 88.0109,-80.1511 104.796,-56 124.334,-27.8891 163.632,-17.3033 192.155,-13.3372"/>
<polygon fill="midnightblue" stroke="midnightblue" points="192.602,-16.8089 202.12,-12.1553 191.777,-9.85758 192.602,-16.8089"/>
</g>
<!-- Node9 -->
<g id="node9" class="node"><title>Node9</title>
<polygon fill="white" stroke="#bfbfbf" points="712.296,-0.5 712.296,-19.5 765.296,-19.5 765.296,-0.5 712.296,-0.5"/>
<text text-anchor="middle" x="738.796" y="-7.5" font-family="Verdana" font-size="10.00">stdint.h</text>
</g>
<!-- Node6&#45;&gt;Node9 -->
<g id="edge8" class="edge"><title>Node6&#45;&gt;Node9</title>
<path fill="none" stroke="midnightblue" d="M211.607,-115.287C258.968,-106.979 349.215,-90.9254 425.796,-76 526.005,-56.4696 643.816,-31.4446 702.19,-18.9061"/>
<polygon fill="midnightblue" stroke="midnightblue" points="703.004,-22.311 712.045,-16.7865 701.532,-15.4675 703.004,-22.311"/>
</g>
<!-- Node6&#45;&gt;Node10 -->
<g id="edge9" class="edge"><title>Node6&#45;&gt;Node10</title>
<path fill="none" stroke="midnightblue" d="M156.454,-112.444C130.84,-102.634 88.979,-86.6019 62.4371,-76.4369"/>
<polygon fill="midnightblue" stroke="midnightblue" points="63.6709,-73.1616 53.0806,-72.8536 61.1674,-79.6986 63.6709,-73.1616"/>
</g>
<!-- Node11 -->
<g id="node11" class="node"><title>Node11</title>
<polygon fill="white" stroke="#bfbfbf" points="146.796,-56.5 146.796,-75.5 210.796,-75.5 210.796,-56.5 146.796,-56.5"/>
<text text-anchor="middle" x="178.796" y="-63.5" font-family="Verdana" font-size="10.00">XmlSink.h</text>
</g>
<!-- Node6&#45;&gt;Node11 -->
<g id="edge10" class="edge"><title>Node6&#45;&gt;Node11</title>
<path fill="none" stroke="midnightblue" d="M178.796,-112.083C178.796,-105.006 178.796,-94.8611 178.796,-85.9865"/>
<polygon fill="midnightblue" stroke="midnightblue" points="182.296,-85.751 178.796,-75.7511 175.296,-85.7511 182.296,-85.751"/>
</g>
<!-- Node12 -->
<g id="node12" class="node"><title>Node12</title>
<polygon fill="white" stroke="#bfbfbf" points="229.296,-56.5 229.296,-75.5 306.296,-75.5 306.296,-56.5 229.296,-56.5"/>
<text text-anchor="middle" x="267.796" y="-63.5" font-family="Verdana" font-size="10.00">XmlSource.h</text>
</g>
<!-- Node6&#45;&gt;Node12 -->
<g id="edge11" class="edge"><title>Node6&#45;&gt;Node12</title>
<path fill="none" stroke="midnightblue" d="M193.096,-112.324C206.979,-103.9 228.289,-90.9709 244.6,-81.0741"/>
<polygon fill="midnightblue" stroke="midnightblue" points="246.799,-83.8341 253.532,-75.6545 243.167,-77.8495 246.799,-83.8341"/>
</g>
<!-- Node13 -->
<g id="node13" class="node"><title>Node13</title>
<g id="a_node13"><a xlink:href="PathNavigator_8h.html" target="_top" xlink:title="PathNavigator.h">
<polygon fill="white" stroke="black" points="324.796,-56.5 324.796,-75.5 416.796,-75.5 416.796,-56.5 324.796,-56.5"/>
<text text-anchor="middle" x="370.796" y="-63.5" font-family="Verdana" font-size="10.00">PathNavigator.h</text>
</a>
</g>
</g>
<!-- Node6&#45;&gt;Node13 -->
<g id="edge12" class="edge"><title>Node6&#45;&gt;Node13</title>
<path fill="none" stroke="midnightblue" d="M209.219,-112.444C242.081,-103.201 294.581,-88.4356 330.771,-78.2572"/>
<polygon fill="midnightblue" stroke="midnightblue" points="331.837,-81.5932 340.516,-75.5164 329.941,-74.8547 331.837,-81.5932"/>
</g>
<!-- Node13&#45;&gt;Node7 -->
<g id="edge14" class="edge"><title>Node13&#45;&gt;Node7</title>
<path fill="none" stroke="midnightblue" d="M388.791,-56.324C406.834,-47.6247 434.843,-34.1202 455.599,-24.113"/>
<polygon fill="midnightblue" stroke="midnightblue" points="457.359,-27.1502 464.846,-19.6545 454.318,-20.8449 457.359,-27.1502"/>
</g>
<!-- Node13&#45;&gt;Node8 -->
<g id="edge13" class="edge"><title>Node13&#45;&gt;Node8</title>
<path fill="none" stroke="midnightblue" d="M347.821,-56.4435C323.639,-47.4381 285.378,-33.1891 258.15,-23.049"/>
<polygon fill="midnightblue" stroke="midnightblue" points="259.257,-19.7265 248.664,-19.5164 256.814,-26.2864 259.257,-19.7265"/>
</g>
<!-- Node13&#45;&gt;Node9 -->
<g id="edge15" class="edge"><title>Node13&#45;&gt;Node9</title>
<path fill="none" stroke="midnightblue" d="M417.031,-58.2155C491.059,-47.3527 634.702,-26.2748 702.148,-16.3778"/>
<polygon fill="midnightblue" stroke="midnightblue" points="702.91,-19.8035 712.296,-14.8886 701.894,-12.8776 702.91,-19.8035"/>
</g>
<!-- Node14&#45;&gt;Node6 -->
<g id="edge19" class="edge"><title>Node14&#45;&gt;Node6</title>
<path fill="none" stroke="midnightblue" d="M444.506,-169.435C385.434,-159.112 280.223,-140.725 221.473,-130.458"/>
<polygon fill="midnightblue" stroke="midnightblue" points="221.866,-126.974 211.413,-128.7 220.661,-133.869 221.866,-126.974"/>
</g>
<!-- Node14&#45;&gt;Node7 -->
<g id="edge20" class="edge"><title>Node14&#45;&gt;Node7</title>
<path fill="none" stroke="midnightblue" d="M487.527,-168.075C486.74,-141.945 484.429,-65.2106 483.356,-29.577"/>
<polygon fill="midnightblue" stroke="midnightblue" points="486.854,-29.4582 483.054,-19.5681 479.857,-29.669 486.854,-29.4582"/>
</g>
<!-- Node15&#45;&gt;Node7 -->
<g id="edge25" class="edge"><title>Node15&#45;&gt;Node7</title>
<path fill="none" stroke="midnightblue" d="M556.393,-224.114C552.949,-211.545 546.306,-187.889 539.796,-168 523.239,-117.415 501.122,-58.6576 489.93,-29.4517"/>
<polygon fill="midnightblue" stroke="midnightblue" points="493.067,-27.8596 486.209,-19.7838 486.534,-30.3737 493.067,-27.8596"/>
</g>
<!-- Node15&#45;&gt;Node14 -->
<g id="edge24" class="edge"><title>Node15&#45;&gt;Node14</title>
<path fill="none" stroke="midnightblue" d="M547.389,-224.324C536.687,-216.185 520.456,-203.839 507.633,-194.087"/>
<polygon fill="midnightblue" stroke="midnightblue" points="509.49,-191.102 499.411,-187.834 505.252,-196.673 509.49,-191.102"/>
</g>
<!-- Node16&#45;&gt;Node7 -->
<g id="edge30" class="edge"><title>Node16&#45;&gt;Node7</title>
<path fill="none" stroke="midnightblue" d="M650.376,-112.375C634.313,-99.2975 602.268,-74.066 572.796,-56 553.067,-43.9059 529.657,-32.2789 511.659,-23.8739"/>
<polygon fill="midnightblue" stroke="midnightblue" points="512.821,-20.5561 502.274,-19.5535 509.894,-26.9147 512.821,-20.5561"/>
</g>
<!-- Node16&#45;&gt;Node9 -->
<g id="edge27" class="edge"><title>Node16&#45;&gt;Node9</title>
<path fill="none" stroke="midnightblue" d="M677.139,-112.437C690.481,-104.641 708.857,-91.9288 719.796,-76 729.26,-62.2199 734.072,-43.6954 736.481,-29.9477"/>
<polygon fill="midnightblue" stroke="midnightblue" points="739.991,-30.136 737.988,-19.7323 733.066,-29.1144 739.991,-30.136"/>
</g>
<!-- Node17 -->
<g id="node17" class="node"><title>Node17</title>
<g id="a_node17"><a xlink:href="ErrorContext_8h.html" target="_top" xlink:title="ErrorContext.h">
<polygon fill="white" stroke="black" points="624.796,-56.5 624.796,-75.5 710.796,-75.5 710.796,-56.5 624.796,-56.5"/>
<text text-anchor="middle" x="667.796" y="-63.5" font-family="Verdana" font-size="10.00">ErrorContext.h</text>
</a>
</g>
</g>
<!-- Node16&#45;&gt;Node17 -->
<g id="edge28" class="edge"><title>Node16&#45;&gt;Node17</title>
<path fill="none" stroke="midnightblue" d="M661.952,-112.083C662.88,-104.927 664.214,-94.6353 665.373,-85.6911"/>
<polygon fill="midnightblue" stroke="midnightblue" points="668.847,-86.1181 666.662,-75.7511 661.905,-85.2181 668.847,-86.1181"/>
</g>
<!-- Node17&#45;&gt;Node7 -->
<g id="edge29" class="edge"><title>Node17&#45;&gt;Node7</title>
<path fill="none" stroke="midnightblue" d="M638.482,-56.4435C604.728,-46.591 549.472,-30.4621 514.672,-20.3044"/>
<polygon fill="midnightblue" stroke="midnightblue" points="515.585,-16.9249 505.005,-17.4826 513.624,-23.6445 515.585,-16.9249"/>
</g>
<!-- Node18&#45;&gt;Node9 -->
<g id="edge32" class="edge"><title>Node18&#45;&gt;Node9</title>
<path fill="none" stroke="midnightblue" d="M810.676,-112.368C797.804,-94.2153 767.728,-51.8015 750.844,-27.9902"/>
<polygon fill="midnightblue" stroke="midnightblue" points="753.528,-25.7243 744.888,-19.5914 747.818,-29.7733 753.528,-25.7243"/>
</g>
<!-- Node19 -->
<g id="node19" class="node"><title>Node19</title>
<g id="a_node19"><a xlink:href="BinaryStream_8h.html" target="_top" xlink:title="BinaryStream.h">
<polygon fill="white" stroke="black" points="804.796,-56.5 804.796,-75.5 896.796,-75.5 896.796,-56.5 804.796,-56.5"/>
<text text-anchor="middle" x="850.796" y="-63.5" font-family="Verdana" font-size="10.00">BinaryStream.h</text>
</a>
</g>
</g>
<!-- Node18&#45;&gt;Node19 -->
<g id="edge33" class="edge"><title>Node18&#45;&gt;Node19</title>
<path fill="none" stroke="midnightblue" d="M822.411,-112.083C827.164,-104.534 834.114,-93.4948 839.948,-84.2298"/>
<polygon fill="midnightblue" stroke="midnightblue" points="842.92,-86.0783 845.286,-75.7511 836.996,-82.3486 842.92,-86.0783"/>
</g>
<!-- Node19&#45;&gt;Node7 -->
<g id="edge35" class="edge"><title>Node19&#45;&gt;Node7</title>
<path fill="none" stroke="midnightblue" d="M804.561,-58.2155C728.857,-47.1067 580.35,-25.315 514.982,-15.7229"/>
<polygon fill="midnightblue" stroke="midnightblue" points="515.267,-12.2273 504.865,-14.2383 514.251,-19.1531 515.267,-12.2273"/>
</g>
<!-- Node19&#45;&gt;Node9 -->
<g id="edge34" class="edge"><title>Node19&#45;&gt;Node9</title>
<path fill="none" stroke="midnightblue" d="M832.802,-56.324C814.759,-47.6247 786.749,-34.1202 765.994,-24.113"/>
<polygon fill="midnightblue" stroke="midnightblue" points="767.274,-20.8449 756.746,-19.6545 764.234,-27.1502 767.274,-20.8449"/>
</g>
<!-- Node20 -->
<g id="node20" class="node"><title>Node20</title>
<polygon fill="white" stroke="#bfbfbf" points="823.796,-0.5 823.796,-19.5 877.796,-19.5 877.796,-0.5 823.796,-0.5"/>
<text text-anchor="middle" x="850.796" y="-7.5" font-family="Verdana" font-size="10.00">fstream</text>
</g>
<!-- Node19&#45;&gt;Node20 -->
<g id="edge36" class="edge"><title>Node19&#45;&gt;Node20</title>
<path fill="none" stroke="midnightblue" d="M850.796,-56.083C850.796,-49.0059 850.796,-38.8611 850.796,-29.9865"/>
<polygon fill="midnightblue" stroke="midnightblue" points="854.296,-29.751 850.796,-19.7511 847.296,-29.7511 854.296,-29.751"/>
</g>
</g>
</svg>
