<?xml version="1.0" encoding="UTF-8" standalone="no"?>
<!DOCTYPE svg PUBLIC "-//W3C//DTD SVG 1.1//EN"
 "http://www.w3.org/Graphics/SVG/1.1/DTD/svg11.dtd">
<!-- Generated by graphviz version 2.38.0 (20140413.2041)
 -->
<!-- Title: /home/dawagner/dev/parameter&#45;framework/parameter/BitwiseAreaConfiguration.cpp Pages: 1 -->
<svg width="1207pt" height="498pt"
 viewBox="0.00 0.00 1206.59 498.00" xmlns="http://www.w3.org/2000/svg" xmlns:xlink="http://www.w3.org/1999/xlink">
<g id="graph0" class="graph" transform="scale(1 1) rotate(0) translate(4 494)">
<title>/home/dawagner/dev/parameter&#45;framework/parameter/BitwiseAreaConfiguration.cpp</title>
<polygon fill="white" stroke="none" points="-4,4 -4,-494 1202.59,-494 1202.59,4 -4,4"/>
<!-- Node1 -->
<g id="node1" class="node"><title>Node1</title>
<polygon fill="#bfbfbf" stroke="black" points="254.093,-448.5 254.093,-489.5 467.093,-489.5 467.093,-448.5 254.093,-448.5"/>
<text text-anchor="start" x="262.093" y="-477.5" font-family="Verdana" font-size="10.00">/home/dawagner/dev</text>
<text text-anchor="start" x="262.093" y="-466.5" font-family="Verdana" font-size="10.00">/parameter&#45;framework</text>
<text text-anchor="middle" x="360.593" y="-455.5" font-family="Verdana" font-size="10.00">/parameter/BitwiseAreaConfiguration.cpp</text>
</g>
<!-- Node2 -->
<g id="node2" class="node"><title>Node2</title>
<g id="a_node2"><a xlink:href="BitwiseAreaConfiguration_8h.html" target="_top" xlink:title="BitwiseAreaConfiguration.h">
<polygon fill="white" stroke="black" points="119.093,-392.5 119.093,-411.5 264.093,-411.5 264.093,-392.5 119.093,-392.5"/>
<text text-anchor="middle" x="191.593" y="-399.5" font-family="Verdana" font-size="10.00">BitwiseAreaConfiguration.h</text>
</a>
</g>
</g>
<!-- Node1&#45;&gt;Node2 -->
<g id="edge1" class="edge"><title>Node1&#45;&gt;Node2</title>
<path fill="none" stroke="midnightblue" d="M309.888,-448.498C281.859,-437.718 247.891,-424.653 223.558,-415.294"/>
<polygon fill="midnightblue" stroke="midnightblue" points="224.68,-411.976 214.09,-411.652 222.167,-418.509 224.68,-411.976"/>
</g>
<!-- Node12 -->
<g id="node12" class="node"><title>Node12</title>
<g id="a_node12"><a xlink:href="BitParameter_8h.html" target="_top" xlink:title="BitParameter.h">
<polygon fill="white" stroke="black" points="316.593,-392.5 316.593,-411.5 404.593,-411.5 404.593,-392.5 316.593,-392.5"/>
<text text-anchor="middle" x="360.593" y="-399.5" font-family="Verdana" font-size="10.00">BitParameter.h</text>
</a>
</g>
</g>
<!-- Node1&#45;&gt;Node12 -->
<g id="edge14" class="edge"><title>Node1&#45;&gt;Node12</title>
<path fill="none" stroke="midnightblue" d="M360.593,-448.498C360.593,-440.065 360.593,-430.235 360.593,-421.874"/>
<polygon fill="midnightblue" stroke="midnightblue" points="364.093,-421.652 360.593,-411.652 357.093,-421.653 364.093,-421.652"/>
</g>
<!-- Node23 -->
<g id="node23" class="node"><title>Node23</title>
<g id="a_node23"><a xlink:href="Subsystem_8h.html" target="_top" xlink:title="Subsystem.h">
<polygon fill="white" stroke="black" points="904.593,-280.5 904.593,-299.5 984.593,-299.5 984.593,-280.5 904.593,-280.5"/>
<text text-anchor="middle" x="944.593" y="-287.5" font-family="Verdana" font-size="10.00">Subsystem.h</text>
</a>
</g>
</g>
<!-- Node1&#45;&gt;Node23 -->
<g id="edge40" class="edge"><title>Node1&#45;&gt;Node23</title>
<path fill="none" stroke="midnightblue" d="M425.042,-448.467C547.092,-411.476 808.491,-332.25 906.464,-302.556"/>
<polygon fill="midnightblue" stroke="midnightblue" points="907.684,-305.844 916.238,-299.594 905.653,-299.145 907.684,-305.844"/>
</g>
<!-- Node3 -->
<g id="node3" class="node"><title>Node3</title>
<g id="a_node3"><a xlink:href="AreaConfiguration_8h.html" target="_top" xlink:title="AreaConfiguration.h">
<polygon fill="white" stroke="black" points="26.5933,-168.5 26.5933,-187.5 138.593,-187.5 138.593,-168.5 26.5933,-168.5"/>
<text text-anchor="middle" x="82.5933" y="-175.5" font-family="Verdana" font-size="10.00">AreaConfiguration.h</text>
</a>
</g>
</g>
<!-- Node2&#45;&gt;Node3 -->
<g id="edge2" class="edge"><title>Node2&#45;&gt;Node3</title>
<path fill="none" stroke="midnightblue" d="M183.6,-392.202C175.963,-383.481 164.479,-369.504 156.593,-356 124.755,-301.476 99.4915,-230.644 88.5242,-197.555"/>
<polygon fill="midnightblue" stroke="midnightblue" points="91.7905,-196.282 85.364,-187.859 85.1351,-198.451 91.7905,-196.282"/>
</g>
<!-- Node4 -->
<g id="node4" class="node"><title>Node4</title>
<g id="a_node4"><a xlink:href="ParameterBlackboard_8h.html" target="_top" xlink:title="ParameterBlackboard.h">
<polygon fill="white" stroke="black" points="13.0933,-112.5 13.0933,-131.5 142.093,-131.5 142.093,-112.5 13.0933,-112.5"/>
<text text-anchor="middle" x="77.5933" y="-119.5" font-family="Verdana" font-size="10.00">ParameterBlackboard.h</text>
</a>
</g>
</g>
<!-- Node3&#45;&gt;Node4 -->
<g id="edge3" class="edge"><title>Node3&#45;&gt;Node4</title>
<path fill="none" stroke="midnightblue" d="M81.7676,-168.083C81.1123,-161.006 80.173,-150.861 79.3513,-141.986"/>
<polygon fill="midnightblue" stroke="midnightblue" points="82.8107,-141.386 78.4036,-131.751 75.8405,-142.031 82.8107,-141.386"/>
</g>
<!-- Node6 -->
<g id="node6" class="node"><title>Node6</title>
<g id="a_node6"><a xlink:href="BinaryStream_8h.html" target="_top" xlink:title="BinaryStream.h">
<polygon fill="white" stroke="black" points="12.5933,-56.5 12.5933,-75.5 104.593,-75.5 104.593,-56.5 12.5933,-56.5"/>
<text text-anchor="middle" x="58.5933" y="-63.5" font-family="Verdana" font-size="10.00">BinaryStream.h</text>
</a>
</g>
</g>
<!-- Node3&#45;&gt;Node6 -->
<g id="edge9" class="edge"><title>Node3&#45;&gt;Node6</title>
<path fill="none" stroke="midnightblue" d="M52.7125,-168.387C35.0537,-161.587 14.1427,-150.15 3.59327,-132 -7.67996,-112.605 13.7404,-93.3625 33.0541,-80.9078"/>
<polygon fill="midnightblue" stroke="midnightblue" points="34.9227,-83.8679 41.6547,-75.6868 31.2902,-77.8842 34.9227,-83.8679"/>
</g>
<!-- Node9 -->
<g id="node9" class="node"><title>Node9</title>
<g id="a_node9"><a xlink:href="SyncerSet_8h.html" target="_top" xlink:title="SyncerSet.h">
<polygon fill="white" stroke="black" points="386.093,-112.5 386.093,-131.5 461.093,-131.5 461.093,-112.5 386.093,-112.5"/>
<text text-anchor="middle" x="423.593" y="-119.5" font-family="Verdana" font-size="10.00">SyncerSet.h</text>
</a>
</g>
</g>
<!-- Node3&#45;&gt;Node9 -->
<g id="edge10" class="edge"><title>Node3&#45;&gt;Node9</title>
<path fill="none" stroke="midnightblue" d="M136.626,-168.444C202.447,-158.02 312.627,-140.572 375.59,-130.602"/>
<polygon fill="midnightblue" stroke="midnightblue" points="376.322,-134.03 385.651,-129.008 375.227,-127.116 376.322,-134.03"/>
</g>
<!-- Node5 -->
<g id="node5" class="node"><title>Node5</title>
<polygon fill="white" stroke="#bfbfbf" points="182.093,-0.5 182.093,-19.5 235.093,-19.5 235.093,-0.5 182.093,-0.5"/>
<text text-anchor="middle" x="208.593" y="-7.5" font-family="Verdana" font-size="10.00">stdint.h</text>
</g>
<!-- Node4&#45;&gt;Node5 -->
<g id="edge4" class="edge"><title>Node4&#45;&gt;Node5</title>
<path fill="none" stroke="midnightblue" d="M87.8726,-112.368C110.065,-93.7334 162.705,-49.5324 190.57,-26.1338"/>
<polygon fill="midnightblue" stroke="midnightblue" points="192.954,-28.7024 198.362,-19.5914 188.453,-23.3416 192.954,-28.7024"/>
</g>
<!-- Node4&#45;&gt;Node6 -->
<g id="edge5" class="edge"><title>Node4&#45;&gt;Node6</title>
<path fill="none" stroke="midnightblue" d="M74.4558,-112.083C71.9104,-104.849 68.2371,-94.4087 65.0662,-85.3968"/>
<polygon fill="midnightblue" stroke="midnightblue" points="68.2931,-84.0225 61.6723,-75.7511 61.6899,-86.3459 68.2931,-84.0225"/>
</g>
<!-- Node6&#45;&gt;Node5 -->
<g id="edge6" class="edge"><title>Node6&#45;&gt;Node5</title>
<path fill="none" stroke="midnightblue" d="M82.3612,-56.4435C107.486,-47.3986 147.304,-33.064 175.494,-22.9158"/>
<polygon fill="midnightblue" stroke="midnightblue" points="176.713,-26.1968 184.937,-19.5164 174.342,-19.6106 176.713,-26.1968"/>
</g>
<!-- Node7 -->
<g id="node7" class="node"><title>Node7</title>
<polygon fill="white" stroke="#bfbfbf" points="529.593,-0.5 529.593,-19.5 573.593,-19.5 573.593,-0.5 529.593,-0.5"/>
<text text-anchor="middle" x="551.593" y="-7.5" font-family="Verdana" font-size="10.00">string</text>
</g>
<!-- Node6&#45;&gt;Node7 -->
<g id="edge7" class="edge"><title>Node6&#45;&gt;Node7</title>
<path fill="none" stroke="midnightblue" d="M104.974,-59.9198C204.046,-49.068 434.217,-23.8566 519.259,-14.5417"/>
<polygon fill="midnightblue" stroke="midnightblue" points="519.793,-18.0042 529.353,-13.4361 519.031,-11.0458 519.793,-18.0042"/>
</g>
<!-- Node8 -->
<g id="node8" class="node"><title>Node8</title>
<polygon fill="white" stroke="#bfbfbf" points="31.5933,-0.5 31.5933,-19.5 85.5933,-19.5 85.5933,-0.5 31.5933,-0.5"/>
<text text-anchor="middle" x="58.5933" y="-7.5" font-family="Verdana" font-size="10.00">fstream</text>
</g>
<!-- Node6&#45;&gt;Node8 -->
<g id="edge8" class="edge"><title>Node6&#45;&gt;Node8</title>
<path fill="none" stroke="midnightblue" d="M58.5933,-56.083C58.5933,-49.0059 58.5933,-38.8611 58.5933,-29.9865"/>
<polygon fill="midnightblue" stroke="midnightblue" points="62.0934,-29.751 58.5933,-19.7511 55.0934,-29.7511 62.0934,-29.751"/>
</g>
<!-- Node9&#45;&gt;Node7 -->
<g id="edge12" class="edge"><title>Node9&#45;&gt;Node7</title>
<path fill="none" stroke="midnightblue" d="M429.926,-112.299C439.786,-99.1218 459.84,-73.7621 480.593,-56 494.691,-43.9345 512.299,-32.7534 526.453,-24.5546"/>
<polygon fill="midnightblue" stroke="midnightblue" points="528.202,-27.5867 535.184,-19.6181 524.756,-21.4933 528.202,-27.5867"/>
</g>
<!-- Node10 -->
<g id="node10" class="node"><title>Node10</title>
<polygon fill="white" stroke="#bfbfbf" points="358.593,-56.5 358.593,-75.5 390.593,-75.5 390.593,-56.5 358.593,-56.5"/>
<text text-anchor="middle" x="374.593" y="-63.5" font-family="Verdana" font-size="10.00">set</text>
</g>
<!-- Node9&#45;&gt;Node10 -->
<g id="edge11" class="edge"><title>Node9&#45;&gt;Node10</title>
<path fill="none" stroke="midnightblue" d="M415.502,-112.083C408.438,-104.298 398.006,-92.8015 389.444,-83.3665"/>
<polygon fill="midnightblue" stroke="midnightblue" points="391.846,-80.8047 382.534,-75.7511 386.662,-85.5087 391.846,-80.8047"/>
</g>
<!-- Node11 -->
<g id="node11" class="node"><title>Node11</title>
<polygon fill="white" stroke="#bfbfbf" points="924.593,-56.5 924.593,-75.5 954.593,-75.5 954.593,-56.5 924.593,-56.5"/>
<text text-anchor="middle" x="939.593" y="-63.5" font-family="Verdana" font-size="10.00">list</text>
</g>
<!-- Node9&#45;&gt;Node11 -->
<g id="edge13" class="edge"><title>Node9&#45;&gt;Node11</title>
<path fill="none" stroke="midnightblue" d="M461.325,-117.843C539.233,-111.196 723.494,-94.8119 877.593,-76 889.784,-74.5118 903.283,-72.5855 914.564,-70.8971"/>
<polygon fill="midnightblue" stroke="midnightblue" points="915.225,-74.3369 924.585,-69.3733 914.172,-67.4165 915.225,-74.3369"/>
</g>
<!-- Node12&#45;&gt;Node5 -->
<g id="edge15" class="edge"><title>Node12&#45;&gt;Node5</title>
<path fill="none" stroke="midnightblue" d="M316.526,-395.141C260.398,-384.919 170.593,-358.083 170.593,-291 170.593,-291 170.593,-291 170.593,-121 170.593,-86.8131 187.194,-49.7639 198.451,-28.5707"/>
<polygon fill="midnightblue" stroke="midnightblue" points="201.541,-30.2151 203.31,-19.769 195.412,-26.832 201.541,-30.2151"/>
</g>
<!-- Node13 -->
<g id="node13" class="node"><title>Node13</title>
<g id="a_node13"><a xlink:href="BaseParameter_8h.html" target="_top" xlink:title="BaseParameter.h">
<polygon fill="white" stroke="black" points="448.093,-336.5 448.093,-355.5 547.093,-355.5 547.093,-336.5 448.093,-336.5"/>
<text text-anchor="middle" x="497.593" y="-343.5" font-family="Verdana" font-size="10.00">BaseParameter.h</text>
</a>
</g>
</g>
<!-- Node12&#45;&gt;Node13 -->
<g id="edge16" class="edge"><title>Node12&#45;&gt;Node13</title>
<path fill="none" stroke="midnightblue" d="M382.301,-392.444C404.948,-383.517 440.665,-369.439 466.345,-359.317"/>
<polygon fill="midnightblue" stroke="midnightblue" points="467.967,-362.44 475.987,-355.516 465.4,-355.927 467.967,-362.44"/>
</g>
<!-- Node13&#45;&gt;Node5 -->
<g id="edge17" class="edge"><title>Node13&#45;&gt;Node5</title>
<path fill="none" stroke="midnightblue" d="M447.912,-336.644C365.283,-321.322 208.593,-285.598 208.593,-235 208.593,-235 208.593,-235 208.593,-121 208.593,-88.948 208.593,-51.6426 208.593,-29.7489"/>
<polygon fill="midnightblue" stroke="midnightblue" points="212.093,-29.5577 208.593,-19.5578 205.093,-29.5578 212.093,-29.5577"/>
</g>
<!-- Node14 -->
<g id="node14" class="node"><title>Node14</title>
<polygon fill="white" stroke="#bfbfbf" points="1005.09,-0.5 1005.09,-19.5 1052.09,-19.5 1052.09,-0.5 1005.09,-0.5"/>
<text text-anchor="middle" x="1028.59" y="-7.5" font-family="Verdana" font-size="10.00">vector</text>
</g>
<!-- Node13&#45;&gt;Node14 -->
<g id="edge18" class="edge"><title>Node13&#45;&gt;Node14</title>
<path fill="none" stroke="midnightblue" d="M547.166,-342.458C707.022,-333.607 1198.59,-301.022 1198.59,-235 1198.59,-235 1198.59,-235 1198.59,-121 1198.59,-56.6745 1111.74,-28.1059 1062.19,-17.0422"/>
<polygon fill="midnightblue" stroke="midnightblue" points="1062.74,-13.5804 1052.23,-14.9405 1061.29,-20.4296 1062.74,-13.5804"/>
</g>
<!-- Node15 -->
<g id="node15" class="node"><title>Node15</title>
<g id="a_node15"><a xlink:href="InstanceConfigurableElement_8h.html" target="_top" xlink:title="InstanceConfigurableElement.h">
<polygon fill="white" stroke="black" points="449.593,-280.5 449.593,-299.5 615.593,-299.5 615.593,-280.5 449.593,-280.5"/>
<text text-anchor="middle" x="532.593" y="-287.5" font-family="Verdana" font-size="10.00">InstanceConfigurableElement.h</text>
</a>
</g>
</g>
<!-- Node13&#45;&gt;Node15 -->
<g id="edge19" class="edge"><title>Node13&#45;&gt;Node15</title>
<path fill="none" stroke="midnightblue" d="M503.373,-336.083C508.266,-328.534 515.421,-317.495 521.426,-308.23"/>
<polygon fill="midnightblue" stroke="midnightblue" points="524.419,-310.046 526.921,-299.751 518.545,-306.239 524.419,-310.046"/>
</g>
<!-- Node15&#45;&gt;Node7 -->
<g id="edge39" class="edge"><title>Node15&#45;&gt;Node7</title>
<path fill="none" stroke="midnightblue" d="M532.593,-280.442C532.593,-261.936 532.593,-216.812 532.593,-179 532.593,-179 532.593,-179 532.593,-121 532.593,-88.4885 540.752,-51.3503 546.377,-29.6103"/>
<polygon fill="midnightblue" stroke="midnightblue" points="549.811,-30.3175 549.031,-19.7514 543.052,-28.498 549.811,-30.3175"/>
</g>
<!-- Node15&#45;&gt;Node11 -->
<g id="edge38" class="edge"><title>Node15&#45;&gt;Node11</title>
<path fill="none" stroke="midnightblue" d="M547.712,-280.365C582.831,-260.343 672.713,-209.308 748.593,-168 808.171,-135.567 878.887,-98.5556 915.276,-79.6188"/>
<polygon fill="midnightblue" stroke="midnightblue" points="916.918,-82.7097 924.176,-74.9913 913.689,-76.499 916.918,-82.7097"/>
</g>
<!-- Node16 -->
<g id="node16" class="node"><title>Node16</title>
<g id="a_node16"><a xlink:href="ConfigurableElementWithMapping_8h.html" target="_top" xlink:title="ConfigurableElementWithMapping.h">
<polygon fill="white" stroke="black" points="692.593,-224.5 692.593,-243.5 878.593,-243.5 878.593,-224.5 692.593,-224.5"/>
<text text-anchor="middle" x="785.593" y="-231.5" font-family="Verdana" font-size="10.00">ConfigurableElementWithMapping.h</text>
</a>
</g>
</g>
<!-- Node15&#45;&gt;Node16 -->
<g id="edge20" class="edge"><title>Node15&#45;&gt;Node16</title>
<path fill="none" stroke="midnightblue" d="M572.682,-280.444C616.91,-271.004 688.132,-255.802 735.878,-245.611"/>
<polygon fill="midnightblue" stroke="midnightblue" points="736.643,-249.027 745.692,-243.516 735.182,-242.181 736.643,-249.027"/>
</g>
<!-- Node22 -->
<g id="node22" class="node"><title>Node22</title>
<g id="a_node22"><a xlink:href="TypeElement_8h.html" target="_top" xlink:title="TypeElement.h">
<polygon fill="white" stroke="black" points="418.593,-168.5 418.593,-187.5 504.593,-187.5 504.593,-168.5 418.593,-168.5"/>
<text text-anchor="middle" x="461.593" y="-175.5" font-family="Verdana" font-size="10.00">TypeElement.h</text>
</a>
</g>
</g>
<!-- Node15&#45;&gt;Node22 -->
<g id="edge35" class="edge"><title>Node15&#45;&gt;Node22</title>
<path fill="none" stroke="midnightblue" d="M527.022,-280.368C515.357,-262.296 488.171,-220.176 472.764,-196.307"/>
<polygon fill="midnightblue" stroke="midnightblue" points="475.502,-194.095 467.139,-187.591 469.621,-197.891 475.502,-194.095"/>
</g>
<!-- Node16&#45;&gt;Node7 -->
<g id="edge34" class="edge"><title>Node16&#45;&gt;Node7</title>
<path fill="none" stroke="midnightblue" d="M818.95,-224.466C841.345,-217.471 870.5,-205.783 891.593,-188 942.685,-144.925 1008.21,-105.753 963.593,-56 938.352,-27.8521 676.847,-15.5911 584.041,-12.1036"/>
<polygon fill="midnightblue" stroke="midnightblue" points="583.957,-8.5983 573.836,-11.7302 583.701,-15.5936 583.957,-8.5983"/>
</g>
<!-- Node17 -->
<g id="node17" class="node"><title>Node17</title>
<g id="a_node17"><a xlink:href="ConfigurableElement_8h.html" target="_top" xlink:title="ConfigurableElement.h">
<polygon fill="white" stroke="black" points="757.093,-168.5 757.093,-187.5 882.093,-187.5 882.093,-168.5 757.093,-168.5"/>
<text text-anchor="middle" x="819.593" y="-175.5" font-family="Verdana" font-size="10.00">ConfigurableElement.h</text>
</a>
</g>
</g>
<!-- Node16&#45;&gt;Node17 -->
<g id="edge21" class="edge"><title>Node16&#45;&gt;Node17</title>
<path fill="none" stroke="midnightblue" d="M791.208,-224.083C795.961,-216.534 802.911,-205.495 808.745,-196.23"/>
<polygon fill="midnightblue" stroke="midnightblue" points="811.717,-198.078 814.083,-187.751 805.793,-194.349 811.717,-198.078"/>
</g>
<!-- Node17&#45;&gt;Node11 -->
<g id="edge33" class="edge"><title>Node17&#45;&gt;Node11</title>
<path fill="none" stroke="midnightblue" d="M829.009,-168.368C849.251,-149.814 897.143,-105.913 922.752,-82.4376"/>
<polygon fill="midnightblue" stroke="midnightblue" points="925.214,-84.9287 930.221,-75.5914 920.484,-79.7686 925.214,-84.9287"/>
</g>
<!-- Node18 -->
<g id="node18" class="node"><title>Node18</title>
<g id="a_node18"><a xlink:href="Element_8h.html" target="_top" xlink:title="Element.h">
<polygon fill="white" stroke="black" points="591.093,-112.5 591.093,-131.5 656.093,-131.5 656.093,-112.5 591.093,-112.5"/>
<text text-anchor="middle" x="623.593" y="-119.5" font-family="Verdana" font-size="10.00">Element.h</text>
</a>
</g>
</g>
<!-- Node17&#45;&gt;Node18 -->
<g id="edge22" class="edge"><title>Node17&#45;&gt;Node18</title>
<path fill="none" stroke="midnightblue" d="M788.536,-168.444C754.99,-159.201 701.396,-144.436 664.453,-134.257"/>
<polygon fill="midnightblue" stroke="midnightblue" points="665.075,-130.798 654.505,-131.516 663.216,-137.547 665.075,-130.798"/>
</g>
<!-- Node18&#45;&gt;Node5 -->
<g id="edge25" class="edge"><title>Node18&#45;&gt;Node5</title>
<path fill="none" stroke="midnightblue" d="M595.783,-112.434C553.561,-99.5417 470.676,-74.674 399.593,-56 346.284,-41.9954 284.07,-27.7189 245.498,-19.1077"/>
<polygon fill="midnightblue" stroke="midnightblue" points="245.794,-15.5881 235.272,-16.8341 244.274,-22.4212 245.794,-15.5881"/>
</g>
<!-- Node18&#45;&gt;Node7 -->
<g id="edge23" class="edge"><title>Node18&#45;&gt;Node7</title>
<path fill="none" stroke="midnightblue" d="M616.502,-112.261C609.393,-103.355 598.284,-89.0352 589.593,-76 579.192,-60.3997 568.517,-41.8751 561.14,-28.6008"/>
<polygon fill="midnightblue" stroke="midnightblue" points="564.083,-26.6885 556.201,-19.6086 557.948,-30.0585 564.083,-26.6885"/>
</g>
<!-- Node18&#45;&gt;Node11 -->
<g id="edge26" class="edge"><title>Node18&#45;&gt;Node11</title>
<path fill="none" stroke="midnightblue" d="M656.178,-114.584C661.006,-113.685 665.925,-112.797 670.593,-112 776.916,-93.8536 805.45,-100.054 910.593,-76 911.865,-75.709 913.162,-75.3902 914.468,-75.0516"/>
<polygon fill="midnightblue" stroke="midnightblue" points="915.719,-78.3337 924.36,-72.2041 913.782,-71.6068 915.719,-78.3337"/>
</g>
<!-- Node18&#45;&gt;Node14 -->
<g id="edge24" class="edge"><title>Node18&#45;&gt;Node14</title>
<path fill="none" stroke="midnightblue" d="M656.196,-114.683C661.021,-113.769 665.935,-112.851 670.593,-112 762.454,-95.2182 789.201,-106.112 877.593,-76 895.659,-69.8456 898.259,-63.9861 915.593,-56 941.99,-43.8388 972.665,-31.747 995.389,-23.1651"/>
<polygon fill="midnightblue" stroke="midnightblue" points="996.778,-26.3823 1004.91,-19.597 994.323,-19.8271 996.778,-26.3823"/>
</g>
<!-- Node19 -->
<g id="node19" class="node"><title>Node19</title>
<polygon fill="white" stroke="#bfbfbf" points="598.593,-56.5 598.593,-75.5 662.593,-75.5 662.593,-56.5 598.593,-56.5"/>
<text text-anchor="middle" x="630.593" y="-63.5" font-family="Verdana" font-size="10.00">XmlSink.h</text>
</g>
<!-- Node18&#45;&gt;Node19 -->
<g id="edge27" class="edge"><title>Node18&#45;&gt;Node19</title>
<path fill="none" stroke="midnightblue" d="M624.749,-112.083C625.677,-104.927 627.011,-94.6353 628.17,-85.6911"/>
<polygon fill="midnightblue" stroke="midnightblue" points="631.644,-86.1181 629.459,-75.7511 624.702,-85.2181 631.644,-86.1181"/>
</g>
<!-- Node20 -->
<g id="node20" class="node"><title>Node20</title>
<polygon fill="white" stroke="#bfbfbf" points="681.093,-56.5 681.093,-75.5 758.093,-75.5 758.093,-56.5 681.093,-56.5"/>
<text text-anchor="middle" x="719.593" y="-63.5" font-family="Verdana" font-size="10.00">XmlSource.h</text>
</g>
<!-- Node18&#45;&gt;Node20 -->
<g id="edge28" class="edge"><title>Node18&#45;&gt;Node20</title>
<path fill="none" stroke="midnightblue" d="M639.017,-112.324C654.133,-103.822 677.409,-90.7288 695.064,-80.7975"/>
<polygon fill="midnightblue" stroke="midnightblue" points="697.208,-83.6077 704.207,-75.6545 693.776,-77.5066 697.208,-83.6077"/>
</g>
<!-- Node21 -->
<g id="node21" class="node"><title>Node21</title>
<g id="a_node21"><a xlink:href="PathNavigator_8h.html" target="_top" xlink:title="PathNavigator.h">
<polygon fill="white" stroke="black" points="776.593,-56.5 776.593,-75.5 868.593,-75.5 868.593,-56.5 776.593,-56.5"/>
<text text-anchor="middle" x="822.593" y="-63.5" font-family="Verdana" font-size="10.00">PathNavigator.h</text>
</a>
</g>
</g>
<!-- Node18&#45;&gt;Node21 -->
<g id="edge29" class="edge"><title>Node18&#45;&gt;Node21</title>
<path fill="none" stroke="midnightblue" d="M655.125,-112.444C689.185,-103.201 743.599,-88.4356 781.108,-78.2572"/>
<polygon fill="midnightblue" stroke="midnightblue" points="782.474,-81.5132 791.209,-75.5164 780.641,-74.7575 782.474,-81.5132"/>
</g>
<!-- Node21&#45;&gt;Node5 -->
<g id="edge32" class="edge"><title>Node21&#45;&gt;Node5</title>
<path fill="none" stroke="midnightblue" d="M776.489,-57.295C773.144,-56.8268 769.819,-56.3887 766.593,-56 570.717,-32.399 334.622,-17.9319 245.256,-12.9531"/>
<polygon fill="midnightblue" stroke="midnightblue" points="245.276,-9.44892 235.098,-12.393 244.89,-16.4383 245.276,-9.44892"/>
</g>
<!-- Node21&#45;&gt;Node7 -->
<g id="edge31" class="edge"><title>Node21&#45;&gt;Node7</title>
<path fill="none" stroke="midnightblue" d="M779.653,-56.4435C725.147,-45.5826 632.366,-27.0949 583.644,-17.3864"/>
<polygon fill="midnightblue" stroke="midnightblue" points="584.154,-13.9193 573.663,-15.3976 582.786,-20.7844 584.154,-13.9193"/>
</g>
<!-- Node21&#45;&gt;Node14 -->
<g id="edge30" class="edge"><title>Node21&#45;&gt;Node14</title>
<path fill="none" stroke="midnightblue" d="M855.235,-56.4435C893.559,-46.3972 956.779,-29.8252 995.358,-19.7121"/>
<polygon fill="midnightblue" stroke="midnightblue" points="996.29,-23.0863 1005.08,-17.1649 994.515,-16.315 996.29,-23.0863"/>
</g>
<!-- Node22&#45;&gt;Node7 -->
<g id="edge37" class="edge"><title>Node22&#45;&gt;Node7</title>
<path fill="none" stroke="midnightblue" d="M465.052,-168.2C473.204,-147.831 494.737,-96.1169 518.593,-56 524.412,-46.2158 531.841,-35.9332 538.177,-27.6709"/>
<polygon fill="midnightblue" stroke="midnightblue" points="541.076,-29.6458 544.494,-19.6176 535.568,-25.3252 541.076,-29.6458"/>
</g>
<!-- Node22&#45;&gt;Node18 -->
<g id="edge36" class="edge"><title>Node22&#45;&gt;Node18</title>
<path fill="none" stroke="midnightblue" d="M487.263,-168.444C514.516,-159.359 557.777,-144.939 588.244,-134.783"/>
<polygon fill="midnightblue" stroke="midnightblue" points="589.664,-137.999 598.044,-131.516 587.45,-131.358 589.664,-137.999"/>
</g>
<!-- Node23&#45;&gt;Node7 -->
<g id="edge50" class="edge"><title>Node23&#45;&gt;Node7</title>
<path fill="none" stroke="midnightblue" d="M950.274,-280.449C971.78,-246.928 1044,-123.027 983.593,-56 956.919,-26.403 679.829,-15.0038 583.993,-11.928"/>
<polygon fill="midnightblue" stroke="midnightblue" points="583.849,-8.42195 573.745,-11.6089 583.632,-15.4186 583.849,-8.42195"/>
</g>
<!-- Node23&#45;&gt;Node11 -->
<g id="edge48" class="edge"><title>Node23&#45;&gt;Node11</title>
<path fill="none" stroke="midnightblue" d="M944.397,-280.297C943.662,-247.633 941.054,-131.866 940.02,-85.9573"/>
<polygon fill="midnightblue" stroke="midnightblue" points="943.518,-85.8024 939.793,-75.8837 936.52,-85.9601 943.518,-85.8024"/>
</g>
<!-- Node23&#45;&gt;Node14 -->
<g id="edge51" class="edge"><title>Node23&#45;&gt;Node14</title>
<path fill="none" stroke="midnightblue" d="M985.005,-284.603C1035.87,-278.271 1119.31,-264.987 1141.59,-244 1163.5,-223.364 1160.59,-209.098 1160.59,-179 1160.59,-179 1160.59,-179 1160.59,-121 1160.59,-69.5745 1100.74,-37.5274 1061.64,-22.0797"/>
<polygon fill="midnightblue" stroke="midnightblue" points="1062.78,-18.7717 1052.19,-18.5082 1060.31,-25.3192 1062.78,-18.7717"/>
</g>
<!-- Node23&#45;&gt;Node16 -->
<g id="edge42" class="edge"><title>Node23&#45;&gt;Node16</title>
<path fill="none" stroke="midnightblue" d="M919.399,-280.444C892.651,-271.359 850.191,-256.939 820.288,-246.783"/>
<polygon fill="midnightblue" stroke="midnightblue" points="821.264,-243.418 810.669,-243.516 819.013,-250.046 821.264,-243.418"/>
</g>
<!-- Node23&#45;&gt;Node17 -->
<g id="edge41" class="edge"><title>Node23&#45;&gt;Node17</title>
<path fill="none" stroke="midnightblue" d="M938.217,-280.35C928.299,-267.239 908.171,-241.966 887.593,-224 874.077,-212.199 857.275,-201.052 843.755,-192.805"/>
<polygon fill="midnightblue" stroke="midnightblue" points="845.382,-189.7 835,-187.586 841.797,-195.713 845.382,-189.7"/>
</g>
<!-- Node24 -->
<g id="node24" class="node"><title>Node24</title>
<g id="a_node24"><a xlink:href="Mapper_8h.html" target="_top" xlink:title="Mapper.h">
<polygon fill="white" stroke="black" points="1011.09,-224.5 1011.09,-243.5 1072.09,-243.5 1072.09,-224.5 1011.09,-224.5"/>
<text text-anchor="middle" x="1041.59" y="-231.5" font-family="Verdana" font-size="10.00">Mapper.h</text>
</a>
</g>
</g>
<!-- Node23&#45;&gt;Node24 -->
<g id="edge43" class="edge"><title>Node23&#45;&gt;Node24</title>
<path fill="none" stroke="midnightblue" d="M960.178,-280.324C975.592,-271.743 999.405,-258.486 1017.3,-248.522"/>
<polygon fill="midnightblue" stroke="midnightblue" points="1019.01,-251.577 1026.05,-243.655 1015.61,-245.461 1019.01,-251.577"/>
</g>
<!-- Node25 -->
<g id="node25" class="node"><title>Node25</title>
<g id="a_node25"><a xlink:href="MappingContext_8h.html" target="_top" xlink:title="MappingContext.h">
<polygon fill="white" stroke="black" points="236.593,-56.5 236.593,-75.5 340.593,-75.5 340.593,-56.5 236.593,-56.5"/>
<text text-anchor="middle" x="288.593" y="-63.5" font-family="Verdana" font-size="10.00">MappingContext.h</text>
</a>
</g>
</g>
<!-- Node23&#45;&gt;Node25 -->
<g id="edge45" class="edge"><title>Node23&#45;&gt;Node25</title>
<path fill="none" stroke="midnightblue" d="M904.29,-289.48C811.301,-288.936 576.914,-278.001 409.593,-188 361.381,-162.067 319.882,-110.773 300.412,-84.066"/>
<polygon fill="midnightblue" stroke="midnightblue" points="303.123,-81.8392 294.47,-75.7266 297.423,-85.9016 303.123,-81.8392"/>
</g>
<!-- Node26 -->
<g id="node26" class="node"><title>Node26</title>
<polygon fill="white" stroke="#bfbfbf" points="1090.59,-224.5 1090.59,-243.5 1132.59,-243.5 1132.59,-224.5 1090.59,-224.5"/>
<text text-anchor="middle" x="1111.59" y="-231.5" font-family="Verdana" font-size="10.00">stack</text>
</g>
<!-- Node23&#45;&gt;Node26 -->
<g id="edge49" class="edge"><title>Node23&#45;&gt;Node26</title>
<path fill="none" stroke="midnightblue" d="M971.055,-280.444C1000.93,-270.783 1049.47,-255.088 1080.96,-244.905"/>
<polygon fill="midnightblue" stroke="midnightblue" points="1082.1,-248.214 1090.54,-241.807 1079.95,-241.553 1082.1,-248.214"/>
</g>
<!-- Node24&#45;&gt;Node7 -->
<g id="edge44" class="edge"><title>Node24&#45;&gt;Node7</title>
<path fill="none" stroke="midnightblue" d="M1044.75,-224.127C1054.34,-195.358 1079.87,-103.761 1034.59,-56 1003.61,-23.3125 687.115,-13.8315 583.929,-11.5981"/>
<polygon fill="midnightblue" stroke="midnightblue" points="583.868,-8.0962 573.797,-11.3875 583.722,-15.0947 583.868,-8.0962"/>
</g>
<!-- Node25&#45;&gt;Node5 -->
<g id="edge46" class="edge"><title>Node25&#45;&gt;Node5</title>
<path fill="none" stroke="midnightblue" d="M275.74,-56.324C263.377,-47.979 244.463,-35.2122 229.856,-25.3524"/>
<polygon fill="midnightblue" stroke="midnightblue" points="231.661,-22.3483 221.415,-19.6545 227.745,-28.1503 231.661,-22.3483"/>
</g>
<!-- Node25&#45;&gt;Node7 -->
<g id="edge47" class="edge"><title>Node25&#45;&gt;Node7</title>
<path fill="none" stroke="midnightblue" d="M330.266,-56.4435C382.783,-45.6607 471.913,-27.3603 519.463,-17.5971"/>
<polygon fill="midnightblue" stroke="midnightblue" points="520.413,-20.9752 529.504,-15.5354 519.005,-14.1182 520.413,-20.9752"/>
</g>
</g>
</svg>
