<?xml version="1.0" encoding="UTF-8" standalone="no"?>
<!DOCTYPE svg PUBLIC "-//W3C//DTD SVG 1.1//EN"
 "http://www.w3.org/Graphics/SVG/1.1/DTD/svg11.dtd">
<!-- Generated by graphviz version 2.38.0 (20140413.2041)
 -->
<!-- Title: /home/dawagner/dev/parameter&#45;framework/parameter/BitwiseAreaConfiguration.h Pages: 1 -->
<svg width="313pt" height="274pt"
 viewBox="0.00 0.00 312.50 274.00" xmlns="http://www.w3.org/2000/svg" xmlns:xlink="http://www.w3.org/1999/xlink">
<g id="graph0" class="graph" transform="scale(1 1) rotate(0) translate(4 270)">
<title>/home/dawagner/dev/parameter&#45;framework/parameter/BitwiseAreaConfiguration.h</title>
<polygon fill="white" stroke="none" points="-4,4 -4,-270 308.5,-270 308.5,4 -4,4"/>
<!-- Node1 -->
<g id="node1" class="node"><title>Node1</title>
<polygon fill="#bfbfbf" stroke="black" points="56.5,-224.5 56.5,-265.5 258.5,-265.5 258.5,-224.5 56.5,-224.5"/>
<text text-anchor="start" x="64.5" y="-253.5" font-family="Verdana" font-size="10.00">/home/dawagner/dev</text>
<text text-anchor="start" x="64.5" y="-242.5" font-family="Verdana" font-size="10.00">/parameter&#45;framework</text>
<text text-anchor="middle" x="157.5" y="-231.5" font-family="Verdana" font-size="10.00">/parameter/BitwiseAreaConfiguration.h</text>
</g>
<!-- Node2 -->
<g id="node2" class="node"><title>Node2</title>
<g id="a_node2"><a xlink:href="AreaConfiguration_8h.html" target="_top" xlink:title="AreaConfiguration.h">
<polygon fill="white" stroke="black" points="101.5,-168.5 101.5,-187.5 213.5,-187.5 213.5,-168.5 101.5,-168.5"/>
<text text-anchor="middle" x="157.5" y="-175.5" font-family="Verdana" font-size="10.00">AreaConfiguration.h</text>
</a>
</g>
</g>
<!-- Node1&#45;&gt;Node2 -->
<g id="edge1" class="edge"><title>Node1&#45;&gt;Node2</title>
<path fill="none" stroke="midnightblue" d="M157.5,-224.498C157.5,-216.065 157.5,-206.235 157.5,-197.874"/>
<polygon fill="midnightblue" stroke="midnightblue" points="161,-197.652 157.5,-187.652 154,-197.653 161,-197.652"/>
</g>
<!-- Node3 -->
<g id="node3" class="node"><title>Node3</title>
<g id="a_node3"><a xlink:href="ParameterBlackboard_8h.html" target="_top" xlink:title="ParameterBlackboard.h">
<polygon fill="white" stroke="black" points="0,-112.5 0,-131.5 129,-131.5 129,-112.5 0,-112.5"/>
<text text-anchor="middle" x="64.5" y="-119.5" font-family="Verdana" font-size="10.00">ParameterBlackboard.h</text>
</a>
</g>
</g>
<!-- Node2&#45;&gt;Node3 -->
<g id="edge2" class="edge"><title>Node2&#45;&gt;Node3</title>
<path fill="none" stroke="midnightblue" d="M142.558,-168.324C127.915,-159.822 105.366,-146.729 88.2623,-136.797"/>
<polygon fill="midnightblue" stroke="midnightblue" points="89.8104,-133.649 79.405,-131.655 86.2954,-139.703 89.8104,-133.649"/>
</g>
<!-- Node5 -->
<g id="node5" class="node"><title>Node5</title>
<g id="a_node5"><a xlink:href="BinaryStream_8h.html" target="_top" xlink:title="BinaryStream.h">
<polygon fill="white" stroke="black" points="76.5,-56.5 76.5,-75.5 168.5,-75.5 168.5,-56.5 76.5,-56.5"/>
<text text-anchor="middle" x="122.5" y="-63.5" font-family="Verdana" font-size="10.00">BinaryStream.h</text>
</a>
</g>
</g>
<!-- Node2&#45;&gt;Node5 -->
<g id="edge8" class="edge"><title>Node2&#45;&gt;Node5</title>
<path fill="none" stroke="midnightblue" d="M154.848,-168.148C151.078,-155.621 143.914,-132.014 137.5,-112 134.669,-103.166 131.425,-93.3944 128.68,-85.2199"/>
<polygon fill="midnightblue" stroke="midnightblue" points="131.95,-83.9625 125.435,-75.6073 125.318,-86.2015 131.95,-83.9625"/>
</g>
<!-- Node8 -->
<g id="node8" class="node"><title>Node8</title>
<g id="a_node8"><a xlink:href="SyncerSet_8h.html" target="_top" xlink:title="SyncerSet.h">
<polygon fill="white" stroke="black" points="194,-112.5 194,-131.5 269,-131.5 269,-112.5 194,-112.5"/>
<text text-anchor="middle" x="231.5" y="-119.5" font-family="Verdana" font-size="10.00">SyncerSet.h</text>
</a>
</g>
</g>
<!-- Node2&#45;&gt;Node8 -->
<g id="edge9" class="edge"><title>Node2&#45;&gt;Node8</title>
<path fill="none" stroke="midnightblue" d="M169.389,-168.324C180.65,-160.107 197.787,-147.602 211.209,-137.807"/>
<polygon fill="midnightblue" stroke="midnightblue" points="213.38,-140.556 219.394,-131.834 209.253,-134.901 213.38,-140.556"/>
</g>
<!-- Node4 -->
<g id="node4" class="node"><title>Node4</title>
<polygon fill="white" stroke="#bfbfbf" points="23,-0.5 23,-19.5 76,-19.5 76,-0.5 23,-0.5"/>
<text text-anchor="middle" x="49.5" y="-7.5" font-family="Verdana" font-size="10.00">stdint.h</text>
</g>
<!-- Node3&#45;&gt;Node4 -->
<g id="edge3" class="edge"><title>Node3&#45;&gt;Node4</title>
<path fill="none" stroke="midnightblue" d="M63.323,-112.368C60.9023,-94.617 55.3181,-53.6664 52.036,-29.5974"/>
<polygon fill="midnightblue" stroke="midnightblue" points="55.4907,-29.0268 50.6716,-19.5914 48.5549,-29.9726 55.4907,-29.0268"/>
</g>
<!-- Node3&#45;&gt;Node5 -->
<g id="edge4" class="edge"><title>Node3&#45;&gt;Node5</title>
<path fill="none" stroke="midnightblue" d="M73.8187,-112.324C82.3926,-104.341 95.3122,-92.3128 105.688,-82.6529"/>
<polygon fill="midnightblue" stroke="midnightblue" points="108.078,-85.2098 113.012,-75.8339 103.308,-80.0865 108.078,-85.2098"/>
</g>
<!-- Node5&#45;&gt;Node4 -->
<g id="edge5" class="edge"><title>Node5&#45;&gt;Node4</title>
<path fill="none" stroke="midnightblue" d="M110.771,-56.324C99.6626,-48.1066 82.7578,-35.6017 69.5167,-25.8069"/>
<polygon fill="midnightblue" stroke="midnightblue" points="71.5631,-22.9671 61.4421,-19.8339 67.4001,-28.5948 71.5631,-22.9671"/>
</g>
<!-- Node6 -->
<g id="node6" class="node"><title>Node6</title>
<polygon fill="white" stroke="#bfbfbf" points="170.5,-0.5 170.5,-19.5 214.5,-19.5 214.5,-0.5 170.5,-0.5"/>
<text text-anchor="middle" x="192.5" y="-7.5" font-family="Verdana" font-size="10.00">string</text>
</g>
<!-- Node5&#45;&gt;Node6 -->
<g id="edge6" class="edge"><title>Node5&#45;&gt;Node6</title>
<path fill="none" stroke="midnightblue" d="M133.747,-56.324C144.297,-48.1849 160.301,-35.8395 172.942,-26.0874"/>
<polygon fill="midnightblue" stroke="midnightblue" points="175.269,-28.7132 181.049,-19.8339 170.993,-23.1707 175.269,-28.7132"/>
</g>
<!-- Node7 -->
<g id="node7" class="node"><title>Node7</title>
<polygon fill="white" stroke="#bfbfbf" points="95.5,-0.5 95.5,-19.5 149.5,-19.5 149.5,-0.5 95.5,-0.5"/>
<text text-anchor="middle" x="122.5" y="-7.5" font-family="Verdana" font-size="10.00">fstream</text>
</g>
<!-- Node5&#45;&gt;Node7 -->
<g id="edge7" class="edge"><title>Node5&#45;&gt;Node7</title>
<path fill="none" stroke="midnightblue" d="M122.5,-56.083C122.5,-49.0059 122.5,-38.8611 122.5,-29.9865"/>
<polygon fill="midnightblue" stroke="midnightblue" points="126,-29.751 122.5,-19.7511 119,-29.7511 126,-29.751"/>
</g>
<!-- Node8&#45;&gt;Node6 -->
<g id="edge11" class="edge"><title>Node8&#45;&gt;Node6</title>
<path fill="none" stroke="midnightblue" d="M228.429,-112.375C225.205,-103.317 219.99,-88.6597 215.5,-76 209.935,-60.3114 203.629,-42.4871 199.03,-29.4767"/>
<polygon fill="midnightblue" stroke="midnightblue" points="202.253,-28.0948 195.621,-19.8329 195.653,-30.4277 202.253,-28.0948"/>
</g>
<!-- Node9 -->
<g id="node9" class="node"><title>Node9</title>
<polygon fill="white" stroke="#bfbfbf" points="224.5,-56.5 224.5,-75.5 256.5,-75.5 256.5,-56.5 224.5,-56.5"/>
<text text-anchor="middle" x="240.5" y="-63.5" font-family="Verdana" font-size="10.00">set</text>
</g>
<!-- Node8&#45;&gt;Node9 -->
<g id="edge10" class="edge"><title>Node8&#45;&gt;Node9</title>
<path fill="none" stroke="midnightblue" d="M232.986,-112.083C234.179,-104.927 235.894,-94.6353 237.385,-85.6911"/>
<polygon fill="midnightblue" stroke="midnightblue" points="240.85,-86.1904 239.041,-75.7511 233.945,-85.0396 240.85,-86.1904"/>
</g>
<!-- Node10 -->
<g id="node10" class="node"><title>Node10</title>
<polygon fill="white" stroke="#bfbfbf" points="274.5,-56.5 274.5,-75.5 304.5,-75.5 304.5,-56.5 274.5,-56.5"/>
<text text-anchor="middle" x="289.5" y="-63.5" font-family="Verdana" font-size="10.00">list</text>
</g>
<!-- Node8&#45;&gt;Node10 -->
<g id="edge12" class="edge"><title>Node8&#45;&gt;Node10</title>
<path fill="none" stroke="midnightblue" d="M240.819,-112.324C249.393,-104.341 262.312,-92.3128 272.688,-82.6529"/>
<polygon fill="midnightblue" stroke="midnightblue" points="275.078,-85.2098 280.012,-75.8339 270.308,-80.0865 275.078,-85.2098"/>
</g>
</g>
</svg>
