<?xml version="1.0" encoding="UTF-8" standalone="no"?>
<!DOCTYPE svg PUBLIC "-//W3C//DTD SVG 1.1//EN"
 "http://www.w3.org/Graphics/SVG/1.1/DTD/svg11.dtd">
<!-- Generated by graphviz version 2.38.0 (20140413.2041)
 -->
<!-- Title: CInstanceConfigurableElement::getTypeElement Pages: 1 -->
<svg width="599pt" height="704pt"
 viewBox="0.00 0.00 599.00 703.50" xmlns="http://www.w3.org/2000/svg" xmlns:xlink="http://www.w3.org/1999/xlink">
<g id="graph0" class="graph" transform="scale(1 1) rotate(0) translate(4 699.5)">
<title>CInstanceConfigurableElement::getTypeElement</title>
<polygon fill="white" stroke="none" points="-4,4 -4,-699.5 595,-699.5 595,4 -4,4"/>
<!-- Node1 -->
<g id="node1" class="node"><title>Node1</title>
<polygon fill="#bfbfbf" stroke="black" points="0,-351 0,-381 164,-381 164,-351 0,-351"/>
<text text-anchor="start" x="8" y="-369" font-family="Verdana" font-size="10.00">CInstanceConfigurableElement</text>
<text text-anchor="middle" x="82" y="-358" font-family="Verdana" font-size="10.00">::getTypeElement</text>
</g>
<!-- Node2 -->
<g id="node2" class="node"><title>Node2</title>
<g id="a_node2"><a xlink:href="classCArrayParameter.html#a92c36813ec9f475880d47409c01e52db" target="_top" xlink:title="CArrayParameter::setDefault\lValues">
<polygon fill="white" stroke="black" points="431.5,-665 431.5,-695 586.5,-695 586.5,-665 431.5,-665"/>
<text text-anchor="start" x="439.5" y="-683" font-family="Verdana" font-size="10.00">CArrayParameter::setDefault</text>
<text text-anchor="middle" x="509" y="-672" font-family="Verdana" font-size="10.00">Values</text>
</a>
</g>
</g>
<!-- Node1&#45;&gt;Node2 -->
<g id="edge1" class="edge"><title>Node1&#45;&gt;Node2</title>
<path fill="none" stroke="midnightblue" d="M87.8051,-390.964C98.6161,-440.102 129.62,-549.493 200,-606 265.932,-658.936 363.765,-674.979 431.399,-679.349"/>
<polygon fill="midnightblue" stroke="midnightblue" points="91.2275,-390.23 85.7439,-381.165 84.3774,-391.671 91.2275,-390.23"/>
</g>
<!-- Node3 -->
<g id="node3" class="node"><title>Node3</title>
<g id="a_node3"><a xlink:href="classCBaseParameter.html#a0fe540f46e1b69858e68b72fd7d383a8" target="_top" xlink:title="CBaseParameter::toXml">
<polygon fill="white" stroke="black" points="230,-501.5 230,-520.5 361,-520.5 361,-501.5 230,-501.5"/>
<text text-anchor="middle" x="295.5" y="-508.5" font-family="Verdana" font-size="10.00">CBaseParameter::toXml</text>
</a>
</g>
</g>
<!-- Node1&#45;&gt;Node3 -->
<g id="edge2" class="edge"><title>Node1&#45;&gt;Node3</title>
<path fill="none" stroke="midnightblue" d="M98.2451,-389.974C118.026,-418.971 155.344,-466.997 200,-492 209.053,-497.069 219.264,-500.797 229.541,-503.536"/>
<polygon fill="midnightblue" stroke="midnightblue" points="100.91,-387.662 92.452,-381.281 95.0851,-391.544 100.91,-387.662"/>
</g>
<!-- Node4 -->
<g id="node4" class="node"><title>Node4</title>
<g id="a_node4"><a xlink:href="classCBitParameter.html#a2e0ed93baec3479a9b92314818433a31" target="_top" xlink:title="Value access. ">
<polygon fill="white" stroke="black" points="207.5,-463.5 207.5,-482.5 383.5,-482.5 383.5,-463.5 207.5,-463.5"/>
<text text-anchor="middle" x="295.5" y="-470.5" font-family="Verdana" font-size="10.00">CBitParameter::accessAsBoolean</text>
</a>
</g>
</g>
<!-- Node1&#45;&gt;Node4 -->
<g id="edge3" class="edge"><title>Node1&#45;&gt;Node4</title>
<path fill="none" stroke="midnightblue" d="M105.73,-388.073C127.948,-408.364 163.649,-437.695 200,-454 208.703,-457.904 218.216,-461.011 227.746,-463.483"/>
<polygon fill="midnightblue" stroke="midnightblue" points="107.884,-385.296 98.1785,-381.047 103.116,-390.421 107.884,-385.296"/>
</g>
<!-- Node5 -->
<g id="node5" class="node"><title>Node5</title>
<g id="a_node5"><a xlink:href="classCBitParameter.html#a0527dce697f0e4bda7daec7055f5f9de" target="_top" xlink:title="CBitParameter::merge">
<polygon fill="white" stroke="black" points="233.5,-425.5 233.5,-444.5 357.5,-444.5 357.5,-425.5 233.5,-425.5"/>
<text text-anchor="middle" x="295.5" y="-432.5" font-family="Verdana" font-size="10.00">CBitParameter::merge</text>
</a>
</g>
</g>
<!-- Node1&#45;&gt;Node5 -->
<g id="edge4" class="edge"><title>Node1&#45;&gt;Node5</title>
<path fill="none" stroke="midnightblue" d="M123.787,-385.308C145.953,-395.23 174.065,-406.904 200,-415 212.966,-419.048 227.188,-422.536 240.573,-425.414"/>
<polygon fill="midnightblue" stroke="midnightblue" points="125.228,-382.119 114.675,-381.179 122.338,-388.495 125.228,-382.119"/>
</g>
<!-- Node6 -->
<g id="node6" class="node"><title>Node6</title>
<g id="a_node6"><a xlink:href="classCBitParameterBlock.html#aad6b4447beb278e093a1c6eedab9f87a" target="_top" xlink:title="CBitParameterBlock\l::getSize">
<polygon fill="white" stroke="black" points="239.5,-376 239.5,-406 351.5,-406 351.5,-376 239.5,-376"/>
<text text-anchor="start" x="247.5" y="-394" font-family="Verdana" font-size="10.00">CBitParameterBlock</text>
<text text-anchor="middle" x="295.5" y="-383" font-family="Verdana" font-size="10.00">::getSize</text>
</a>
</g>
</g>
<!-- Node1&#45;&gt;Node6 -->
<g id="edge5" class="edge"><title>Node1&#45;&gt;Node6</title>
<path fill="none" stroke="midnightblue" d="M174.282,-376.79C196.461,-379.411 219.506,-382.135 239.414,-384.489"/>
<polygon fill="midnightblue" stroke="midnightblue" points="174.508,-373.292 164.167,-375.594 173.687,-380.244 174.508,-373.292"/>
</g>
<!-- Node9 -->
<g id="node9" class="node"><title>Node9</title>
<g id="a_node9"><a xlink:href="classCInstanceConfigurableElement.html#a73aace151a51fbd2a2c02bfd83b24f59" target="_top" xlink:title="Get the value associated to a mapping key in the object&#39;s mapping. ">
<polygon fill="white" stroke="black" points="213.5,-327 213.5,-357 377.5,-357 377.5,-327 213.5,-327"/>
<text text-anchor="start" x="221.5" y="-345" font-family="Verdana" font-size="10.00">CInstanceConfigurableElement</text>
<text text-anchor="middle" x="295.5" y="-334" font-family="Verdana" font-size="10.00">::getMappingData</text>
</a>
</g>
</g>
<!-- Node1&#45;&gt;Node9 -->
<g id="edge8" class="edge"><title>Node1&#45;&gt;Node9</title>
<path fill="none" stroke="midnightblue" d="M174.432,-355.625C187.328,-354.161 200.513,-352.665 213.201,-351.225"/>
<polygon fill="midnightblue" stroke="midnightblue" points="173.708,-352.184 164.167,-356.79 174.497,-359.14 173.708,-352.184"/>
</g>
<!-- Node10 -->
<g id="node10" class="node"><title>Node10</title>
<g id="a_node10"><a xlink:href="classCInstanceConfigurableElement.html#ab64a2df11be985c8f1deecbf26681594" target="_top" xlink:title="Returns the mapping data associated to the type element of the current InstanceConfigurableElement, as a formatted std::string. ">
<polygon fill="white" stroke="black" points="213.5,-278 213.5,-308 377.5,-308 377.5,-278 213.5,-278"/>
<text text-anchor="start" x="221.5" y="-296" font-family="Verdana" font-size="10.00">CInstanceConfigurableElement</text>
<text text-anchor="middle" x="295.5" y="-285" font-family="Verdana" font-size="10.00">::getFormattedMapping</text>
</a>
</g>
</g>
<!-- Node1&#45;&gt;Node10 -->
<g id="edge9" class="edge"><title>Node1&#45;&gt;Node10</title>
<path fill="none" stroke="midnightblue" d="M124.692,-346.77C146.775,-337.038 174.529,-325.516 200,-317 209.552,-313.806 219.768,-310.801 229.825,-308.068"/>
<polygon fill="midnightblue" stroke="midnightblue" points="122.999,-343.692 115.287,-350.957 125.846,-350.087 122.999,-343.692"/>
</g>
<!-- Node11 -->
<g id="node11" class="node"><title>Node11</title>
<g id="a_node11"><a xlink:href="classCInstanceConfigurableElement.html#a43d2ce5dbc487aa8de02d39af1b1c2d3" target="_top" xlink:title="CInstanceConfigurableElement::map">
<polygon fill="white" stroke="black" points="200,-221.5 200,-240.5 391,-240.5 391,-221.5 200,-221.5"/>
<text text-anchor="middle" x="295.5" y="-228.5" font-family="Verdana" font-size="10.00">CInstanceConfigurableElement::map</text>
</a>
</g>
</g>
<!-- Node1&#45;&gt;Node11 -->
<g id="edge10" class="edge"><title>Node1&#45;&gt;Node11</title>
<path fill="none" stroke="midnightblue" d="M104.96,-343.8C127.301,-322.181 163.71,-289.518 200,-268 219.702,-256.318 243.763,-246.959 262.675,-240.577"/>
<polygon fill="midnightblue" stroke="midnightblue" points="102.358,-341.45 97.6677,-350.95 107.258,-346.448 102.358,-341.45"/>
</g>
<!-- Node12 -->
<g id="node12" class="node"><title>Node12</title>
<g id="a_node12"><a xlink:href="classCInstanceConfigurableElement.html#abc77a2dd814b6696ce9c0a9a6e8af7a7" target="_top" xlink:title="Get the list of all the ancestors that have a mapping. ">
<polygon fill="white" stroke="black" points="210,-172 210,-202 381,-202 381,-172 210,-172"/>
<text text-anchor="start" x="218" y="-190" font-family="Verdana" font-size="10.00">CInstanceConfigurableElement</text>
<text text-anchor="middle" x="295.5" y="-179" font-family="Verdana" font-size="10.00">::getListOfElementsWithMapping</text>
</a>
</g>
</g>
<!-- Node1&#45;&gt;Node12 -->
<g id="edge12" class="edge"><title>Node1&#45;&gt;Node12</title>
<path fill="none" stroke="midnightblue" d="M95.015,-341.307C113.006,-306.981 150.223,-245.318 200,-212 205.782,-208.13 212.136,-204.858 218.731,-202.092"/>
<polygon fill="midnightblue" stroke="midnightblue" points="91.69,-340.122 90.2557,-350.62 97.9231,-343.308 91.69,-340.122"/>
</g>
<!-- Node13 -->
<g id="node13" class="node"><title>Node13</title>
<g id="a_node13"><a xlink:href="classCParameter.html#a7e66c668b2fabb20c8659c21423f4a29" target="_top" xlink:title="CParameter::handleValueSpace\lAttribute">
<polygon fill="white" stroke="black" points="211.5,-123 211.5,-153 379.5,-153 379.5,-123 211.5,-123"/>
<text text-anchor="start" x="219.5" y="-141" font-family="Verdana" font-size="10.00">CParameter::handleValueSpace</text>
<text text-anchor="middle" x="295.5" y="-130" font-family="Verdana" font-size="10.00">Attribute</text>
</a>
</g>
</g>
<!-- Node1&#45;&gt;Node13 -->
<g id="edge13" class="edge"><title>Node1&#45;&gt;Node13</title>
<path fill="none" stroke="midnightblue" d="M90.1341,-341.247C103.918,-297.979 138.416,-208.757 200,-162 204.449,-158.622 209.321,-155.716 214.434,-153.217"/>
<polygon fill="midnightblue" stroke="midnightblue" points="86.7403,-340.376 87.1434,-350.963 93.4305,-342.435 86.7403,-340.376"/>
</g>
<!-- Node16 -->
<g id="node16" class="node"><title>Node16</title>
<g id="a_node16"><a xlink:href="classCParameter.html#a3658a7f1281f902fe3b271fa01037398" target="_top" xlink:title="CParameter::getSize">
<polygon fill="white" stroke="black" points="237.5,-577.5 237.5,-596.5 353.5,-596.5 353.5,-577.5 237.5,-577.5"/>
<text text-anchor="middle" x="295.5" y="-584.5" font-family="Verdana" font-size="10.00">CParameter::getSize</text>
</a>
</g>
</g>
<!-- Node1&#45;&gt;Node16 -->
<g id="edge16" class="edge"><title>Node1&#45;&gt;Node16</title>
<path fill="none" stroke="midnightblue" d="M90.6857,-390.797C105.054,-432.917 140.076,-518.217 200,-563 210.847,-571.106 224.143,-576.49 237.299,-580.061"/>
<polygon fill="midnightblue" stroke="midnightblue" points="93.9331,-389.469 87.4752,-381.07 87.2858,-391.663 93.9331,-389.469"/>
</g>
<!-- Node20 -->
<g id="node20" class="node"><title>Node20</title>
<g id="a_node20"><a xlink:href="classCParameter.html#a26fa5e3c97be1577ad15d04295ada708" target="_top" xlink:title="CParameter::setDefaultValues">
<polygon fill="white" stroke="black" points="428.5,-501.5 428.5,-520.5 589.5,-520.5 589.5,-501.5 428.5,-501.5"/>
<text text-anchor="middle" x="509" y="-508.5" font-family="Verdana" font-size="10.00">CParameter::setDefaultValues</text>
</a>
</g>
</g>
<!-- Node1&#45;&gt;Node20 -->
<g id="edge22" class="edge"><title>Node1&#45;&gt;Node20</title>
<path fill="none" stroke="midnightblue" d="M92.0505,-390.799C107.48,-428.917 142.872,-500.58 200,-530 243.223,-552.259 379.976,-533.405 455.91,-520.546"/>
<polygon fill="midnightblue" stroke="midnightblue" points="95.1225,-389.043 88.2264,-381 88.6015,-391.588 95.1225,-389.043"/>
</g>
<!-- Node21 -->
<g id="node21" class="node"><title>Node21</title>
<g id="a_node21"><a xlink:href="classCStringParameter.html#af2990a24d1de91c5cfd760eb8b7ecffd" target="_top" xlink:title="CStringParameter::getSize">
<polygon fill="white" stroke="black" points="223.5,-82.5 223.5,-101.5 367.5,-101.5 367.5,-82.5 223.5,-82.5"/>
<text text-anchor="middle" x="295.5" y="-89.5" font-family="Verdana" font-size="10.00">CStringParameter::getSize</text>
</a>
</g>
</g>
<!-- Node1&#45;&gt;Node21 -->
<g id="edge23" class="edge"><title>Node1&#45;&gt;Node21</title>
<path fill="none" stroke="midnightblue" d="M87.0191,-341.037C96.6376,-289.818 125.94,-172.663 200,-113 206.806,-107.517 214.746,-103.396 223.078,-100.308"/>
<polygon fill="midnightblue" stroke="midnightblue" points="83.5665,-340.462 85.2564,-350.921 90.4578,-341.691 83.5665,-340.462"/>
</g>
<!-- Node25 -->
<g id="node25" class="node"><title>Node25</title>
<g id="a_node25"><a xlink:href="classCSubsystemObject.html#a754574ad36ea1f8ef4bb9f41be6030a6" target="_top" xlink:title="Conversion of int8, int16, int32 to int (taking care of sign extension) ">
<polygon fill="white" stroke="black" points="222.5,-33 222.5,-63 368.5,-63 368.5,-33 222.5,-33"/>
<text text-anchor="start" x="230.5" y="-51" font-family="Verdana" font-size="10.00">CSubsystemObject::toPlain</text>
<text text-anchor="middle" x="295.5" y="-40" font-family="Verdana" font-size="10.00">Integer</text>
</a>
</g>
</g>
<!-- Node1&#45;&gt;Node25 -->
<g id="edge27" class="edge"><title>Node1&#45;&gt;Node25</title>
<path fill="none" stroke="midnightblue" d="M85.5563,-340.631C92.6682,-283.822 117.922,-145.681 200,-73 206.48,-67.2621 214.128,-62.8183 222.223,-59.3805"/>
<polygon fill="midnightblue" stroke="midnightblue" points="82.0448,-340.527 84.3643,-350.865 88.9978,-341.337 82.0448,-340.527"/>
</g>
<!-- Node7 -->
<g id="node7" class="node"><title>Node7</title>
<g id="a_node7"><a xlink:href="classCBitParameterBlock.html#a95ebf43ee26531c6f4b9b33b4af6709e" target="_top" xlink:title="CBitParameterBlock\l::getFootPrint">
<polygon fill="white" stroke="black" points="453,-400 453,-430 565,-430 565,-400 453,-400"/>
<text text-anchor="start" x="461" y="-418" font-family="Verdana" font-size="10.00">CBitParameterBlock</text>
<text text-anchor="middle" x="509" y="-407" font-family="Verdana" font-size="10.00">::getFootPrint</text>
</a>
</g>
</g>
<!-- Node6&#45;&gt;Node7 -->
<g id="edge6" class="edge"><title>Node6&#45;&gt;Node7</title>
<path fill="none" stroke="midnightblue" d="M361.632,-398.391C390.855,-401.707 424.959,-405.577 452.891,-408.747"/>
<polygon fill="midnightblue" stroke="midnightblue" points="361.848,-394.893 351.517,-397.243 361.059,-401.848 361.848,-394.893"/>
</g>
<!-- Node8 -->
<g id="node8" class="node"><title>Node8</title>
<g id="a_node8"><a xlink:href="classCBitParameterBlock.html#a74485c7734eb44648b1182cf8e884d40" target="_top" xlink:title="CBitParameterBlock\l::setDefaultValues">
<polygon fill="white" stroke="black" points="453,-351 453,-381 565,-381 565,-351 453,-351"/>
<text text-anchor="start" x="461" y="-369" font-family="Verdana" font-size="10.00">CBitParameterBlock</text>
<text text-anchor="middle" x="509" y="-358" font-family="Verdana" font-size="10.00">::setDefaultValues</text>
</a>
</g>
</g>
<!-- Node6&#45;&gt;Node8 -->
<g id="edge7" class="edge"><title>Node6&#45;&gt;Node8</title>
<path fill="none" stroke="midnightblue" d="M361.632,-383.301C390.855,-379.847 424.959,-375.816 452.891,-372.514"/>
<polygon fill="midnightblue" stroke="midnightblue" points="361.037,-379.847 351.517,-384.497 361.859,-386.799 361.037,-379.847"/>
</g>
<!-- Node11&#45;&gt;Node11 -->
<g id="edge11" class="edge"><title>Node11&#45;&gt;Node11</title>
<path fill="none" stroke="midnightblue" d="M255.849,-247.618C254.46,-253.856 267.677,-259 295.5,-259 333.387,-259 344.19,-249.461 327.911,-240.612"/>
<polygon fill="midnightblue" stroke="midnightblue" points="258.337,-250.081 263.089,-240.612 253.469,-245.051 258.337,-250.081"/>
</g>
<!-- Node14 -->
<g id="node14" class="node"><title>Node14</title>
<g id="a_node14"><a xlink:href="classCArrayParameter.html#a192ed81d047795b1823cab20337ad283" target="_top" xlink:title="CArrayParameter::serialize\lXmlSettings">
<polygon fill="white" stroke="black" points="437,-175 437,-205 581,-205 581,-175 437,-175"/>
<text text-anchor="start" x="445" y="-193" font-family="Verdana" font-size="10.00">CArrayParameter::serialize</text>
<text text-anchor="middle" x="509" y="-182" font-family="Verdana" font-size="10.00">XmlSettings</text>
</a>
</g>
</g>
<!-- Node13&#45;&gt;Node14 -->
<g id="edge14" class="edge"><title>Node13&#45;&gt;Node14</title>
<path fill="none" stroke="midnightblue" d="M367.393,-155.43C393.187,-161.772 422.096,-168.88 446.963,-174.993"/>
<polygon fill="midnightblue" stroke="midnightblue" points="368.221,-152.029 357.675,-153.041 366.55,-158.827 368.221,-152.029"/>
</g>
<!-- Node15 -->
<g id="node15" class="node"><title>Node15</title>
<g id="a_node15"><a xlink:href="classCParameter.html#a74e2c5c9292fcd85c6a78181ab865cfe" target="_top" xlink:title="CParameter::serializeXml\lSettings">
<polygon fill="white" stroke="black" points="440.5,-126 440.5,-156 577.5,-156 577.5,-126 440.5,-126"/>
<text text-anchor="start" x="448.5" y="-144" font-family="Verdana" font-size="10.00">CParameter::serializeXml</text>
<text text-anchor="middle" x="509" y="-133" font-family="Verdana" font-size="10.00">Settings</text>
</a>
</g>
</g>
<!-- Node13&#45;&gt;Node15 -->
<g id="edge15" class="edge"><title>Node13&#45;&gt;Node15</title>
<path fill="none" stroke="midnightblue" d="M390.243,-139.33C407.148,-139.569 424.467,-139.815 440.443,-140.042"/>
<polygon fill="midnightblue" stroke="midnightblue" points="389.835,-135.824 379.787,-139.181 389.736,-142.823 389.835,-135.824"/>
</g>
<!-- Node16&#45;&gt;Node2 -->
<g id="edge19" class="edge"><title>Node16&#45;&gt;Node2</title>
<path fill="none" stroke="midnightblue" d="M323.461,-601.622C358.52,-620.579 416.534,-651.732 427,-656 434.877,-659.212 443.342,-662.201 451.725,-664.902"/>
<polygon fill="midnightblue" stroke="midnightblue" points="324.7,-598.313 314.24,-596.631 321.368,-604.469 324.7,-598.313"/>
</g>
<!-- Node17 -->
<g id="node17" class="node"><title>Node17</title>
<g id="a_node17"><a xlink:href="classCArrayParameter.html#a4608f98d60cb8e8b009aa73438c7b2a1" target="_top" xlink:title="CArrayParameter::getFoot\lPrint">
<polygon fill="white" stroke="black" points="438,-616 438,-646 580,-646 580,-616 438,-616"/>
<text text-anchor="start" x="446" y="-634" font-family="Verdana" font-size="10.00">CArrayParameter::getFoot</text>
<text text-anchor="middle" x="509" y="-623" font-family="Verdana" font-size="10.00">Print</text>
</a>
</g>
</g>
<!-- Node16&#45;&gt;Node17 -->
<g id="edge17" class="edge"><title>Node16&#45;&gt;Node17</title>
<path fill="none" stroke="midnightblue" d="M352.492,-598.648C378.602,-604.08 409.953,-610.603 437.645,-616.363"/>
<polygon fill="midnightblue" stroke="midnightblue" points="352.896,-595.158 342.392,-596.547 351.47,-602.011 352.896,-595.158"/>
</g>
<!-- Node18 -->
<g id="node18" class="node"><title>Node18</title>
<g id="a_node18"><a xlink:href="classCArrayParameter.html#a07b3af958a03b2295be159f69b22d42d" target="_top" xlink:title="CArrayParameter::accessValue">
<polygon fill="white" stroke="black" points="427,-577.5 427,-596.5 591,-596.5 591,-577.5 427,-577.5"/>
<text text-anchor="middle" x="509" y="-584.5" font-family="Verdana" font-size="10.00">CArrayParameter::accessValue</text>
</a>
</g>
</g>
<!-- Node16&#45;&gt;Node18 -->
<g id="edge18" class="edge"><title>Node16&#45;&gt;Node18</title>
<path fill="none" stroke="midnightblue" d="M363.988,-587C383.998,-587 406.121,-587 426.9,-587"/>
<polygon fill="midnightblue" stroke="midnightblue" points="363.735,-583.5 353.735,-587 363.735,-590.5 363.735,-583.5"/>
</g>
<!-- Node19 -->
<g id="node19" class="node"><title>Node19</title>
<g id="a_node19"><a xlink:href="classCParameter.html#ae38b6b62b0f40be758d0ac53ba3caceb" target="_top" xlink:title="CParameter::getFootPrint">
<polygon fill="white" stroke="black" points="440,-539.5 440,-558.5 578,-558.5 578,-539.5 440,-539.5"/>
<text text-anchor="middle" x="509" y="-546.5" font-family="Verdana" font-size="10.00">CParameter::getFootPrint</text>
</a>
</g>
</g>
<!-- Node16&#45;&gt;Node19 -->
<g id="edge20" class="edge"><title>Node16&#45;&gt;Node19</title>
<path fill="none" stroke="midnightblue" d="M359.655,-575.653C390,-570.201 425.964,-563.739 454.881,-558.544"/>
<polygon fill="midnightblue" stroke="midnightblue" points="358.821,-572.247 349.597,-577.46 360.059,-579.136 358.821,-572.247"/>
</g>
<!-- Node16&#45;&gt;Node20 -->
<g id="edge21" class="edge"><title>Node16&#45;&gt;Node20</title>
<path fill="none" stroke="midnightblue" d="M362.895,-574.591C372.623,-571.516 382.288,-567.707 391,-563 410.096,-552.683 407.81,-540.142 427,-530 434.279,-526.153 442.332,-523.077 450.454,-520.62"/>
<polygon fill="midnightblue" stroke="midnightblue" points="361.797,-571.266 353.179,-577.429 363.76,-577.985 361.797,-571.266"/>
</g>
<!-- Node22 -->
<g id="node22" class="node"><title>Node22</title>
<g id="a_node22"><a xlink:href="classCStringParameter.html#a9cdd05f362999b935a820c544069638e" target="_top" xlink:title="CStringParameter::getFoot\lPrint">
<polygon fill="white" stroke="black" points="436.5,-77 436.5,-107 581.5,-107 581.5,-77 436.5,-77"/>
<text text-anchor="start" x="444.5" y="-95" font-family="Verdana" font-size="10.00">CStringParameter::getFoot</text>
<text text-anchor="middle" x="509" y="-84" font-family="Verdana" font-size="10.00">Print</text>
</a>
</g>
</g>
<!-- Node21&#45;&gt;Node22 -->
<g id="edge24" class="edge"><title>Node21&#45;&gt;Node22</title>
<path fill="none" stroke="midnightblue" d="M377.538,-92C396.939,-92 417.516,-92 436.452,-92"/>
<polygon fill="midnightblue" stroke="midnightblue" points="377.515,-88.5001 367.515,-92 377.515,-95.5001 377.515,-88.5001"/>
</g>
<!-- Node23 -->
<g id="node23" class="node"><title>Node23</title>
<g id="a_node23"><a xlink:href="classCStringParameter.html#a6a9db60ee5c1b4c620441d6e0d82bd08" target="_top" xlink:title="CStringParameter::doSetValue">
<polygon fill="white" stroke="black" points="427.5,-38.5 427.5,-57.5 590.5,-57.5 590.5,-38.5 427.5,-38.5"/>
<text text-anchor="middle" x="509" y="-45.5" font-family="Verdana" font-size="10.00">CStringParameter::doSetValue</text>
</a>
</g>
</g>
<!-- Node21&#45;&gt;Node23 -->
<g id="edge25" class="edge"><title>Node21&#45;&gt;Node23</title>
<path fill="none" stroke="midnightblue" d="M352.259,-80.4C386.542,-73.2678 429.929,-64.2416 462.197,-57.5287"/>
<polygon fill="midnightblue" stroke="midnightblue" points="351.47,-76.9892 342.392,-82.4527 352.896,-83.8424 351.47,-76.9892"/>
</g>
<!-- Node24 -->
<g id="node24" class="node"><title>Node24</title>
<g id="a_node24"><a xlink:href="classCStringParameter.html#a4e52ebcdfe2da9b4e9089545d539e9fb" target="_top" xlink:title="CStringParameter::doGetValue">
<polygon fill="white" stroke="black" points="427,-0.5 427,-19.5 591,-19.5 591,-0.5 427,-0.5"/>
<text text-anchor="middle" x="509" y="-7.5" font-family="Verdana" font-size="10.00">CStringParameter::doGetValue</text>
</a>
</g>
</g>
<!-- Node21&#45;&gt;Node24 -->
<g id="edge26" class="edge"><title>Node21&#45;&gt;Node24</title>
<path fill="none" stroke="midnightblue" d="M377.106,-78.911C381.945,-76.921 386.621,-74.6321 391,-72 412.363,-59.1604 405.778,-42.0721 427,-29 433.272,-25.1365 440.26,-22.0583 447.429,-19.6058"/>
<polygon fill="midnightblue" stroke="midnightblue" points="375.819,-75.655 367.633,-82.3814 378.227,-82.2279 375.819,-75.655"/>
</g>
</g>
</svg>
