<?xml version="1.0" encoding="UTF-8" standalone="no"?>
<!DOCTYPE svg PUBLIC "-//W3C//DTD SVG 1.1//EN"
 "http://www.w3.org/Graphics/SVG/1.1/DTD/svg11.dtd">
<!-- Generated by graphviz version 2.38.0 (20140413.2041)
 -->
<!-- Title: CInstanceConfigurableElement::getTypeElement Pages: 1 -->
<svg width="599pt" height="671pt"
 viewBox="0.00 0.00 599.00 671.00" xmlns="http://www.w3.org/2000/svg" xmlns:xlink="http://www.w3.org/1999/xlink">
<g id="graph0" class="graph" transform="scale(1 1) rotate(0) translate(4 667)">
<title>CInstanceConfigurableElement::getTypeElement</title>
<polygon fill="white" stroke="none" points="-4,4 -4,-667 595,-667 595,4 -4,4"/>
<!-- Node1 -->
<g id="node1" class="node"><title>Node1</title>
<polygon fill="#bfbfbf" stroke="black" points="0,-318.5 0,-348.5 164,-348.5 164,-318.5 0,-318.5"/>
<text text-anchor="start" x="8" y="-336.5" font-family="Verdana" font-size="10.00">CInstanceConfigurableElement</text>
<text text-anchor="middle" x="82" y="-325.5" font-family="Verdana" font-size="10.00">::getTypeElement</text>
</g>
<!-- Node2 -->
<g id="node2" class="node"><title>Node2</title>
<g id="a_node2"><a xlink:href="classCArrayParameter.html#a92c36813ec9f475880d47409c01e52db" target="_top" xlink:title="CArrayParameter::setDefault\lValues">
<polygon fill="white" stroke="black" points="431.5,-632.5 431.5,-662.5 586.5,-662.5 586.5,-632.5 431.5,-632.5"/>
<text text-anchor="start" x="439.5" y="-650.5" font-family="Verdana" font-size="10.00">CArrayParameter::setDefault</text>
<text text-anchor="middle" x="509" y="-639.5" font-family="Verdana" font-size="10.00">Values</text>
</a>
</g>
</g>
<!-- Node1&#45;&gt;Node2 -->
<g id="edge1" class="edge"><title>Node1&#45;&gt;Node2</title>
<path fill="none" stroke="midnightblue" d="M87.8051,-358.464C98.6161,-407.602 129.62,-516.993 200,-573.5 265.932,-626.436 363.765,-642.479 431.399,-646.849"/>
<polygon fill="midnightblue" stroke="midnightblue" points="91.2275,-357.73 85.7439,-348.665 84.3774,-359.171 91.2275,-357.73"/>
</g>
<!-- Node3 -->
<g id="node3" class="node"><title>Node3</title>
<g id="a_node3"><a xlink:href="classCBaseParameter.html#a0fe540f46e1b69858e68b72fd7d383a8" target="_top" xlink:title="CBaseParameter::toXml">
<polygon fill="white" stroke="black" points="230,-469 230,-488 361,-488 361,-469 230,-469"/>
<text text-anchor="middle" x="295.5" y="-476" font-family="Verdana" font-size="10.00">CBaseParameter::toXml</text>
</a>
</g>
</g>
<!-- Node1&#45;&gt;Node3 -->
<g id="edge2" class="edge"><title>Node1&#45;&gt;Node3</title>
<path fill="none" stroke="midnightblue" d="M98.2451,-357.474C118.026,-386.471 155.344,-434.497 200,-459.5 209.053,-464.569 219.264,-468.297 229.541,-471.036"/>
<polygon fill="midnightblue" stroke="midnightblue" points="100.91,-355.162 92.452,-348.781 95.0851,-359.044 100.91,-355.162"/>
</g>
<!-- Node4 -->
<g id="node4" class="node"><title>Node4</title>
<g id="a_node4"><a xlink:href="classCBitParameter.html#a2e0ed93baec3479a9b92314818433a31" target="_top" xlink:title="Value access. ">
<polygon fill="white" stroke="black" points="207.5,-431 207.5,-450 383.5,-450 383.5,-431 207.5,-431"/>
<text text-anchor="middle" x="295.5" y="-438" font-family="Verdana" font-size="10.00">CBitParameter::accessAsBoolean</text>
</a>
</g>
</g>
<!-- Node1&#45;&gt;Node4 -->
<g id="edge3" class="edge"><title>Node1&#45;&gt;Node4</title>
<path fill="none" stroke="midnightblue" d="M105.73,-355.573C127.948,-375.864 163.649,-405.195 200,-421.5 208.703,-425.404 218.216,-428.511 227.746,-430.983"/>
<polygon fill="midnightblue" stroke="midnightblue" points="107.884,-352.796 98.1785,-348.547 103.116,-357.921 107.884,-352.796"/>
</g>
<!-- Node5 -->
<g id="node5" class="node"><title>Node5</title>
<g id="a_node5"><a xlink:href="classCBitParameter.html#a0527dce697f0e4bda7daec7055f5f9de" target="_top" xlink:title="CBitParameter::merge">
<polygon fill="white" stroke="black" points="233.5,-393 233.5,-412 357.5,-412 357.5,-393 233.5,-393"/>
<text text-anchor="middle" x="295.5" y="-400" font-family="Verdana" font-size="10.00">CBitParameter::merge</text>
</a>
</g>
</g>
<!-- Node1&#45;&gt;Node5 -->
<g id="edge4" class="edge"><title>Node1&#45;&gt;Node5</title>
<path fill="none" stroke="midnightblue" d="M123.787,-352.808C145.953,-362.73 174.065,-374.404 200,-382.5 212.966,-386.548 227.188,-390.036 240.573,-392.914"/>
<polygon fill="midnightblue" stroke="midnightblue" points="125.228,-349.619 114.675,-348.679 122.338,-355.995 125.228,-349.619"/>
</g>
<!-- Node6 -->
<g id="node6" class="node"><title>Node6</title>
<g id="a_node6"><a xlink:href="classCBitParameterBlock.html#aad6b4447beb278e093a1c6eedab9f87a" target="_top" xlink:title="CBitParameterBlock\l::getSize">
<polygon fill="white" stroke="black" points="239.5,-343.5 239.5,-373.5 351.5,-373.5 351.5,-343.5 239.5,-343.5"/>
<text text-anchor="start" x="247.5" y="-361.5" font-family="Verdana" font-size="10.00">CBitParameterBlock</text>
<text text-anchor="middle" x="295.5" y="-350.5" font-family="Verdana" font-size="10.00">::getSize</text>
</a>
</g>
</g>
<!-- Node1&#45;&gt;Node6 -->
<g id="edge5" class="edge"><title>Node1&#45;&gt;Node6</title>
<path fill="none" stroke="midnightblue" d="M174.282,-344.29C196.461,-346.911 219.506,-349.635 239.414,-351.989"/>
<polygon fill="midnightblue" stroke="midnightblue" points="174.508,-340.792 164.167,-343.094 173.687,-347.744 174.508,-340.792"/>
</g>
<!-- Node9 -->
<g id="node9" class="node"><title>Node9</title>
<g id="a_node9"><a xlink:href="classCInstanceConfigurableElement.html#a73aace151a51fbd2a2c02bfd83b24f59" target="_top" xlink:title="Get the value associated to a mapping key in the object&#39;s mapping. ">
<polygon fill="white" stroke="black" points="213.5,-294.5 213.5,-324.5 377.5,-324.5 377.5,-294.5 213.5,-294.5"/>
<text text-anchor="start" x="221.5" y="-312.5" font-family="Verdana" font-size="10.00">CInstanceConfigurableElement</text>
<text text-anchor="middle" x="295.5" y="-301.5" font-family="Verdana" font-size="10.00">::getMappingData</text>
</a>
</g>
</g>
<!-- Node1&#45;&gt;Node9 -->
<g id="edge8" class="edge"><title>Node1&#45;&gt;Node9</title>
<path fill="none" stroke="midnightblue" d="M174.432,-323.125C187.328,-321.661 200.513,-320.165 213.201,-318.725"/>
<polygon fill="midnightblue" stroke="midnightblue" points="173.708,-319.684 164.167,-324.29 174.497,-326.64 173.708,-319.684"/>
</g>
<!-- Node10 -->
<g id="node10" class="node"><title>Node10</title>
<g id="a_node10"><a xlink:href="classCInstanceConfigurableElement.html#ab64a2df11be985c8f1deecbf26681594" target="_top" xlink:title="Returns the mapping data associated to the type element of the current InstanceConfigurableElement, as a formatted std::string. ">
<polygon fill="white" stroke="black" points="213.5,-245.5 213.5,-275.5 377.5,-275.5 377.5,-245.5 213.5,-245.5"/>
<text text-anchor="start" x="221.5" y="-263.5" font-family="Verdana" font-size="10.00">CInstanceConfigurableElement</text>
<text text-anchor="middle" x="295.5" y="-252.5" font-family="Verdana" font-size="10.00">::getFormattedMapping</text>
</a>
</g>
</g>
<!-- Node1&#45;&gt;Node10 -->
<g id="edge9" class="edge"><title>Node1&#45;&gt;Node10</title>
<path fill="none" stroke="midnightblue" d="M124.692,-314.27C146.775,-304.538 174.529,-293.016 200,-284.5 209.552,-281.306 219.768,-278.301 229.825,-275.568"/>
<polygon fill="midnightblue" stroke="midnightblue" points="122.999,-311.192 115.287,-318.457 125.846,-317.587 122.999,-311.192"/>
</g>
<!-- Node11 -->
<g id="node11" class="node"><title>Node11</title>
<g id="a_node11"><a xlink:href="classCInstanceConfigurableElement.html#a43d2ce5dbc487aa8de02d39af1b1c2d3" target="_top" xlink:title="CInstanceConfigurableElement::map">
<polygon fill="white" stroke="black" points="200,-189 200,-208 391,-208 391,-189 200,-189"/>
<text text-anchor="middle" x="295.5" y="-196" font-family="Verdana" font-size="10.00">CInstanceConfigurableElement::map</text>
</a>
</g>
</g>
<!-- Node1&#45;&gt;Node11 -->
<g id="edge10" class="edge"><title>Node1&#45;&gt;Node11</title>
<path fill="none" stroke="midnightblue" d="M104.96,-311.3C127.301,-289.681 163.71,-257.018 200,-235.5 219.702,-223.818 243.763,-214.459 262.675,-208.077"/>
<polygon fill="midnightblue" stroke="midnightblue" points="102.358,-308.95 97.6677,-318.45 107.258,-313.948 102.358,-308.95"/>
</g>
<!-- Node12 -->
<g id="node12" class="node"><title>Node12</title>
<g id="a_node12"><a xlink:href="classCInstanceConfigurableElement.html#abc77a2dd814b6696ce9c0a9a6e8af7a7" target="_top" xlink:title="Get the list of all the ancestors that have a mapping. ">
<polygon fill="white" stroke="black" points="210,-139.5 210,-169.5 381,-169.5 381,-139.5 210,-139.5"/>
<text text-anchor="start" x="218" y="-157.5" font-family="Verdana" font-size="10.00">CInstanceConfigurableElement</text>
<text text-anchor="middle" x="295.5" y="-146.5" font-family="Verdana" font-size="10.00">::getListOfElementsWithMapping</text>
</a>
</g>
</g>
<!-- Node1&#45;&gt;Node12 -->
<g id="edge12" class="edge"><title>Node1&#45;&gt;Node12</title>
<path fill="none" stroke="midnightblue" d="M95.015,-308.807C113.006,-274.481 150.223,-212.818 200,-179.5 205.782,-175.63 212.136,-172.358 218.731,-169.592"/>
<polygon fill="midnightblue" stroke="midnightblue" points="91.69,-307.622 90.2557,-318.12 97.9231,-310.808 91.69,-307.622"/>
</g>
<!-- Node13 -->
<g id="node13" class="node"><title>Node13</title>
<g id="a_node13"><a xlink:href="classCParameter.html#a7e66c668b2fabb20c8659c21423f4a29" target="_top" xlink:title="CParameter::handleValueSpace\lAttribute">
<polygon fill="white" stroke="black" points="211.5,-90.5 211.5,-120.5 379.5,-120.5 379.5,-90.5 211.5,-90.5"/>
<text text-anchor="start" x="219.5" y="-108.5" font-family="Verdana" font-size="10.00">CParameter::handleValueSpace</text>
<text text-anchor="middle" x="295.5" y="-97.5" font-family="Verdana" font-size="10.00">Attribute</text>
</a>
</g>
</g>
<!-- Node1&#45;&gt;Node13 -->
<g id="edge13" class="edge"><title>Node1&#45;&gt;Node13</title>
<path fill="none" stroke="midnightblue" d="M90.1341,-308.747C103.918,-265.479 138.416,-176.257 200,-129.5 204.449,-126.122 209.321,-123.216 214.434,-120.717"/>
<polygon fill="midnightblue" stroke="midnightblue" points="86.7403,-307.876 87.1434,-318.463 93.4305,-309.935 86.7403,-307.876"/>
</g>
<!-- Node16 -->
<g id="node16" class="node"><title>Node16</title>
<g id="a_node16"><a xlink:href="classCParameter.html#a3658a7f1281f902fe3b271fa01037398" target="_top" xlink:title="CParameter::getSize">
<polygon fill="white" stroke="black" points="237.5,-545 237.5,-564 353.5,-564 353.5,-545 237.5,-545"/>
<text text-anchor="middle" x="295.5" y="-552" font-family="Verdana" font-size="10.00">CParameter::getSize</text>
</a>
</g>
</g>
<!-- Node1&#45;&gt;Node16 -->
<g id="edge16" class="edge"><title>Node1&#45;&gt;Node16</title>
<path fill="none" stroke="midnightblue" d="M90.6857,-358.297C105.054,-400.417 140.076,-485.717 200,-530.5 210.847,-538.606 224.143,-543.99 237.299,-547.561"/>
<polygon fill="midnightblue" stroke="midnightblue" points="93.9331,-356.969 87.4752,-348.57 87.2858,-359.163 93.9331,-356.969"/>
</g>
<!-- Node20 -->
<g id="node20" class="node"><title>Node20</title>
<g id="a_node20"><a xlink:href="classCParameter.html#a26fa5e3c97be1577ad15d04295ada708" target="_top" xlink:title="CParameter::setDefaultValues">
<polygon fill="white" stroke="black" points="428.5,-469 428.5,-488 589.5,-488 589.5,-469 428.5,-469"/>
<text text-anchor="middle" x="509" y="-476" font-family="Verdana" font-size="10.00">CParameter::setDefaultValues</text>
</a>
</g>
</g>
<!-- Node1&#45;&gt;Node20 -->
<g id="edge22" class="edge"><title>Node1&#45;&gt;Node20</title>
<path fill="none" stroke="midnightblue" d="M92.0505,-358.299C107.48,-396.417 142.872,-468.08 200,-497.5 243.223,-519.759 379.976,-500.905 455.91,-488.046"/>
<polygon fill="midnightblue" stroke="midnightblue" points="95.1225,-356.543 88.2264,-348.5 88.6015,-359.088 95.1225,-356.543"/>
</g>
<!-- Node21 -->
<g id="node21" class="node"><title>Node21</title>
<g id="a_node21"><a xlink:href="classCStringParameter.html#af2990a24d1de91c5cfd760eb8b7ecffd" target="_top" xlink:title="CStringParameter::getSize">
<polygon fill="white" stroke="black" points="223.5,-50 223.5,-69 367.5,-69 367.5,-50 223.5,-50"/>
<text text-anchor="middle" x="295.5" y="-57" font-family="Verdana" font-size="10.00">CStringParameter::getSize</text>
</a>
</g>
</g>
<!-- Node1&#45;&gt;Node21 -->
<g id="edge23" class="edge"><title>Node1&#45;&gt;Node21</title>
<path fill="none" stroke="midnightblue" d="M87.0191,-308.537C96.6376,-257.318 125.94,-140.163 200,-80.5 206.806,-75.0173 214.746,-70.8955 223.078,-67.808"/>
<polygon fill="midnightblue" stroke="midnightblue" points="83.5665,-307.962 85.2564,-318.421 90.4578,-309.191 83.5665,-307.962"/>
</g>
<!-- Node24 -->
<g id="node24" class="node"><title>Node24</title>
<g id="a_node24"><a xlink:href="classCSubsystemObject.html#a754574ad36ea1f8ef4bb9f41be6030a6" target="_top" xlink:title="Conversion of int8, int16, int32 to int (taking care of sign extension) ">
<polygon fill="white" stroke="black" points="222.5,-0.5 222.5,-30.5 368.5,-30.5 368.5,-0.5 222.5,-0.5"/>
<text text-anchor="start" x="230.5" y="-18.5" font-family="Verdana" font-size="10.00">CSubsystemObject::toPlain</text>
<text text-anchor="middle" x="295.5" y="-7.5" font-family="Verdana" font-size="10.00">Integer</text>
</a>
</g>
</g>
<!-- Node1&#45;&gt;Node24 -->
<g id="edge26" class="edge"><title>Node1&#45;&gt;Node24</title>
<path fill="none" stroke="midnightblue" d="M85.5563,-308.131C92.6682,-251.322 117.922,-113.181 200,-40.5 206.48,-34.7621 214.128,-30.3183 222.223,-26.8805"/>
<polygon fill="midnightblue" stroke="midnightblue" points="82.0448,-308.027 84.3643,-318.365 88.9978,-308.837 82.0448,-308.027"/>
</g>
<!-- Node7 -->
<g id="node7" class="node"><title>Node7</title>
<g id="a_node7"><a xlink:href="classCBitParameterBlock.html#a95ebf43ee26531c6f4b9b33b4af6709e" target="_top" xlink:title="CBitParameterBlock\l::getFootPrint">
<polygon fill="white" stroke="black" points="453,-367.5 453,-397.5 565,-397.5 565,-367.5 453,-367.5"/>
<text text-anchor="start" x="461" y="-385.5" font-family="Verdana" font-size="10.00">CBitParameterBlock</text>
<text text-anchor="middle" x="509" y="-374.5" font-family="Verdana" font-size="10.00">::getFootPrint</text>
</a>
</g>
</g>
<!-- Node6&#45;&gt;Node7 -->
<g id="edge6" class="edge"><title>Node6&#45;&gt;Node7</title>
<path fill="none" stroke="midnightblue" d="M361.632,-365.891C390.855,-369.207 424.959,-373.077 452.891,-376.247"/>
<polygon fill="midnightblue" stroke="midnightblue" points="361.848,-362.393 351.517,-364.743 361.059,-369.348 361.848,-362.393"/>
</g>
<!-- Node8 -->
<g id="node8" class="node"><title>Node8</title>
<g id="a_node8"><a xlink:href="classCBitParameterBlock.html#a74485c7734eb44648b1182cf8e884d40" target="_top" xlink:title="CBitParameterBlock\l::setDefaultValues">
<polygon fill="white" stroke="black" points="453,-318.5 453,-348.5 565,-348.5 565,-318.5 453,-318.5"/>
<text text-anchor="start" x="461" y="-336.5" font-family="Verdana" font-size="10.00">CBitParameterBlock</text>
<text text-anchor="middle" x="509" y="-325.5" font-family="Verdana" font-size="10.00">::setDefaultValues</text>
</a>
</g>
</g>
<!-- Node6&#45;&gt;Node8 -->
<g id="edge7" class="edge"><title>Node6&#45;&gt;Node8</title>
<path fill="none" stroke="midnightblue" d="M361.632,-350.801C390.855,-347.347 424.959,-343.316 452.891,-340.014"/>
<polygon fill="midnightblue" stroke="midnightblue" points="361.037,-347.347 351.517,-351.997 361.859,-354.299 361.037,-347.347"/>
</g>
<!-- Node11&#45;&gt;Node11 -->
<g id="edge11" class="edge"><title>Node11&#45;&gt;Node11</title>
<path fill="none" stroke="midnightblue" d="M255.849,-215.118C254.46,-221.356 267.677,-226.5 295.5,-226.5 333.387,-226.5 344.19,-216.961 327.911,-208.112"/>
<polygon fill="midnightblue" stroke="midnightblue" points="258.337,-217.581 263.089,-208.112 253.469,-212.551 258.337,-217.581"/>
</g>
<!-- Node14 -->
<g id="node14" class="node"><title>Node14</title>
<g id="a_node14"><a xlink:href="classCArrayParameter.html#a192ed81d047795b1823cab20337ad283" target="_top" xlink:title="CArrayParameter::serialize\lXmlSettings">
<polygon fill="white" stroke="black" points="437,-141.5 437,-171.5 581,-171.5 581,-141.5 437,-141.5"/>
<text text-anchor="start" x="445" y="-159.5" font-family="Verdana" font-size="10.00">CArrayParameter::serialize</text>
<text text-anchor="middle" x="509" y="-148.5" font-family="Verdana" font-size="10.00">XmlSettings</text>
</a>
</g>
</g>
<!-- Node13&#45;&gt;Node14 -->
<g id="edge14" class="edge"><title>Node13&#45;&gt;Node14</title>
<path fill="none" stroke="midnightblue" d="M368.631,-122.893C393.695,-128.937 421.572,-135.659 445.767,-141.494"/>
<polygon fill="midnightblue" stroke="midnightblue" points="369.355,-119.468 358.813,-120.526 367.714,-126.273 369.355,-119.468"/>
</g>
<!-- Node15 -->
<g id="node15" class="node"><title>Node15</title>
<g id="a_node15"><a xlink:href="classCParameter.html#a74e2c5c9292fcd85c6a78181ab865cfe" target="_top" xlink:title="CParameter::serializeXml\lSettings">
<polygon fill="white" stroke="black" points="440.5,-92.5 440.5,-122.5 577.5,-122.5 577.5,-92.5 440.5,-92.5"/>
<text text-anchor="start" x="448.5" y="-110.5" font-family="Verdana" font-size="10.00">CParameter::serializeXml</text>
<text text-anchor="middle" x="509" y="-99.5" font-family="Verdana" font-size="10.00">Settings</text>
</a>
</g>
</g>
<!-- Node13&#45;&gt;Node15 -->
<g id="edge15" class="edge"><title>Node13&#45;&gt;Node15</title>
<path fill="none" stroke="midnightblue" d="M390.243,-106.386C407.148,-106.546 424.467,-106.71 440.443,-106.861"/>
<polygon fill="midnightblue" stroke="midnightblue" points="389.819,-102.882 379.787,-106.288 389.753,-109.882 389.819,-102.882"/>
</g>
<!-- Node16&#45;&gt;Node2 -->
<g id="edge19" class="edge"><title>Node16&#45;&gt;Node2</title>
<path fill="none" stroke="midnightblue" d="M322.324,-568.938C354.135,-586.584 406.481,-615.132 427,-623.5 434.877,-626.712 443.342,-629.701 451.725,-632.402"/>
<polygon fill="midnightblue" stroke="midnightblue" points="323.995,-565.862 313.554,-564.061 320.592,-571.98 323.995,-565.862"/>
</g>
<!-- Node17 -->
<g id="node17" class="node"><title>Node17</title>
<g id="a_node17"><a xlink:href="classCArrayParameter.html#a4608f98d60cb8e8b009aa73438c7b2a1" target="_top" xlink:title="CArrayParameter::getFoot\lPrint">
<polygon fill="white" stroke="black" points="438,-583.5 438,-613.5 580,-613.5 580,-583.5 438,-583.5"/>
<text text-anchor="start" x="446" y="-601.5" font-family="Verdana" font-size="10.00">CArrayParameter::getFoot</text>
<text text-anchor="middle" x="509" y="-590.5" font-family="Verdana" font-size="10.00">Print</text>
</a>
</g>
</g>
<!-- Node16&#45;&gt;Node17 -->
<g id="edge17" class="edge"><title>Node16&#45;&gt;Node17</title>
<path fill="none" stroke="midnightblue" d="M352.492,-566.148C378.602,-571.58 409.953,-578.103 437.645,-583.863"/>
<polygon fill="midnightblue" stroke="midnightblue" points="352.896,-562.658 342.392,-564.047 351.47,-569.511 352.896,-562.658"/>
</g>
<!-- Node18 -->
<g id="node18" class="node"><title>Node18</title>
<g id="a_node18"><a xlink:href="classCArrayParameter.html#a07b3af958a03b2295be159f69b22d42d" target="_top" xlink:title="CArrayParameter::accessValue">
<polygon fill="white" stroke="black" points="427,-545 427,-564 591,-564 591,-545 427,-545"/>
<text text-anchor="middle" x="509" y="-552" font-family="Verdana" font-size="10.00">CArrayParameter::accessValue</text>
</a>
</g>
</g>
<!-- Node16&#45;&gt;Node18 -->
<g id="edge18" class="edge"><title>Node16&#45;&gt;Node18</title>
<path fill="none" stroke="midnightblue" d="M363.988,-554.5C383.998,-554.5 406.121,-554.5 426.9,-554.5"/>
<polygon fill="midnightblue" stroke="midnightblue" points="363.735,-551 353.735,-554.5 363.735,-558 363.735,-551"/>
</g>
<!-- Node19 -->
<g id="node19" class="node"><title>Node19</title>
<g id="a_node19"><a xlink:href="classCParameter.html#ae38b6b62b0f40be758d0ac53ba3caceb" target="_top" xlink:title="CParameter::getFootPrint">
<polygon fill="white" stroke="black" points="440,-507 440,-526 578,-526 578,-507 440,-507"/>
<text text-anchor="middle" x="509" y="-514" font-family="Verdana" font-size="10.00">CParameter::getFootPrint</text>
</a>
</g>
</g>
<!-- Node16&#45;&gt;Node19 -->
<g id="edge20" class="edge"><title>Node16&#45;&gt;Node19</title>
<path fill="none" stroke="midnightblue" d="M359.655,-543.153C390,-537.701 425.964,-531.239 454.881,-526.044"/>
<polygon fill="midnightblue" stroke="midnightblue" points="358.821,-539.747 349.597,-544.96 360.059,-546.636 358.821,-539.747"/>
</g>
<!-- Node16&#45;&gt;Node20 -->
<g id="edge21" class="edge"><title>Node16&#45;&gt;Node20</title>
<path fill="none" stroke="midnightblue" d="M362.895,-542.091C372.623,-539.016 382.288,-535.207 391,-530.5 410.096,-520.183 407.81,-507.642 427,-497.5 434.279,-493.653 442.332,-490.577 450.454,-488.12"/>
<polygon fill="midnightblue" stroke="midnightblue" points="361.797,-538.766 353.179,-544.929 363.76,-545.485 361.797,-538.766"/>
</g>
<!-- Node22 -->
<g id="node22" class="node"><title>Node22</title>
<g id="a_node22"><a xlink:href="classCStringParameter.html#a9cdd05f362999b935a820c544069638e" target="_top" xlink:title="CStringParameter::getFoot\lPrint">
<polygon fill="white" stroke="black" points="436.5,-43.5 436.5,-73.5 581.5,-73.5 581.5,-43.5 436.5,-43.5"/>
<text text-anchor="start" x="444.5" y="-61.5" font-family="Verdana" font-size="10.00">CStringParameter::getFoot</text>
<text text-anchor="middle" x="509" y="-50.5" font-family="Verdana" font-size="10.00">Print</text>
</a>
</g>
</g>
<!-- Node21&#45;&gt;Node22 -->
<g id="edge24" class="edge"><title>Node21&#45;&gt;Node22</title>
<path fill="none" stroke="midnightblue" d="M377.538,-59.1168C396.939,-59.0251 417.516,-58.9278 436.452,-58.8383"/>
<polygon fill="midnightblue" stroke="midnightblue" points="377.498,-55.6169 367.515,-59.1642 377.531,-62.6168 377.498,-55.6169"/>
</g>
<!-- Node23 -->
<g id="node23" class="node"><title>Node23</title>
<g id="a_node23"><a xlink:href="classCStringParameter.html#a6a9db60ee5c1b4c620441d6e0d82bd08" target="_top" xlink:title="CStringParameter::doSetValue">
<polygon fill="white" stroke="black" points="427.5,-5 427.5,-24 590.5,-24 590.5,-5 427.5,-5"/>
<text text-anchor="middle" x="509" y="-12" font-family="Verdana" font-size="10.00">CStringParameter::doSetValue</text>
</a>
</g>
</g>
<!-- Node21&#45;&gt;Node23 -->
<g id="edge25" class="edge"><title>Node21&#45;&gt;Node23</title>
<path fill="none" stroke="midnightblue" d="M351.806,-47.8139C364.672,-45.09 378.316,-42.1974 391,-39.5 414.974,-34.4018 441.705,-28.6919 463.558,-24.0174"/>
<polygon fill="midnightblue" stroke="midnightblue" points="350.746,-44.4606 341.688,-49.9552 352.195,-51.3089 350.746,-44.4606"/>
</g>
</g>
</svg>
