<?xml version="1.0" encoding="UTF-8" standalone="no"?>
<!DOCTYPE svg PUBLIC "-//W3C//DTD SVG 1.1//EN"
 "http://www.w3.org/Graphics/SVG/1.1/DTD/svg11.dtd">
<!-- Generated by graphviz version 2.38.0 (20140413.2041)
 -->
<!-- Title: CElement::findAscendantOfKind Pages: 1 -->
<svg width="317pt" height="46pt"
 viewBox="0.00 0.00 317.00 46.00" xmlns="http://www.w3.org/2000/svg" xmlns:xlink="http://www.w3.org/1999/xlink">
<g id="graph0" class="graph" transform="scale(1 1) rotate(0) translate(4 42)">
<title>CElement::findAscendantOfKind</title>
<polygon fill="white" stroke="none" points="-4,4 -4,-42 313,-42 313,4 -4,4"/>
<!-- Node1 -->
<g id="node1" class="node"><title>Node1</title>
<polygon fill="#bfbfbf" stroke="black" points="0,-0.5 0,-19.5 168,-19.5 168,-0.5 0,-0.5"/>
<text text-anchor="middle" x="84" y="-7.5" font-family="Verdana" font-size="10.00">CElement::findAscendantOfKind</text>
</g>
<!-- Node1&#45;&gt;Node1 -->
<g id="edge2" class="edge"><title>Node1&#45;&gt;Node1</title>
<path fill="none" stroke="midnightblue" d="M57.4898,-19.7571C44.593,-28.5653 53.4297,-38 84,-38 104.539,-38 115.268,-33.741 116.186,-28.2746"/>
<polygon fill="midnightblue" stroke="midnightblue" points="118.968,-26.1381 110.51,-19.7571 113.143,-30.0197 118.968,-26.1381"/>
</g>
<!-- Node2 -->
<g id="node2" class="node"><title>Node2</title>
<g id="a_node2"><a xlink:href="classCElement.html#aed2ca7f2a56dbf2edcd82167859535ee" target="_top" xlink:title="CElement::getKind">
<polygon fill="white" stroke="black" points="204,-0.5 204,-19.5 309,-19.5 309,-0.5 204,-0.5"/>
<text text-anchor="middle" x="256.5" y="-7.5" font-family="Verdana" font-size="10.00">CElement::getKind</text>
</a>
</g>
</g>
<!-- Node1&#45;&gt;Node2 -->
<g id="edge1" class="edge"><title>Node1&#45;&gt;Node2</title>
<path fill="none" stroke="midnightblue" d="M168.252,-10C176.906,-10 185.588,-10 193.939,-10"/>
<polygon fill="midnightblue" stroke="midnightblue" points="193.94,-13.5001 203.94,-10 193.94,-6.5001 193.94,-13.5001"/>
</g>
</g>
</svg>
