<?xml version="1.0" encoding="UTF-8" standalone="no"?>
<!DOCTYPE svg PUBLIC "-//W3C//DTD SVG 1.1//EN"
 "http://www.w3.org/Graphics/SVG/1.1/DTD/svg11.dtd">
<!-- Generated by graphviz version 2.38.0 (20140413.2041)
 -->
<!-- Title: CStringParameter::getSize Pages: 1 -->
<svg width="352pt" height="116pt"
 viewBox="0.00 0.00 352.00 115.50" xmlns="http://www.w3.org/2000/svg" xmlns:xlink="http://www.w3.org/1999/xlink">
<g id="graph0" class="graph" transform="scale(1 1) rotate(0) translate(4 111.5)">
<title>CStringParameter::getSize</title>
<polygon fill="white" stroke="none" points="-4,4 -4,-111.5 348,-111.5 348,4 -4,4"/>
<!-- Node1 -->
<g id="node1" class="node"><title>Node1</title>
<polygon fill="#bfbfbf" stroke="black" points="0,-38.5 0,-57.5 144,-57.5 144,-38.5 0,-38.5"/>
<text text-anchor="middle" x="72" y="-45.5" font-family="Verdana" font-size="10.00">CStringParameter::getSize</text>
</g>
<!-- Node2 -->
<g id="node2" class="node"><title>Node2</title>
<g id="a_node2"><a xlink:href="classCStringParameter.html#a9cdd05f362999b935a820c544069638e" target="_top" xlink:title="CStringParameter::getFoot\lPrint">
<polygon fill="white" stroke="black" points="189.5,-77 189.5,-107 334.5,-107 334.5,-77 189.5,-77"/>
<text text-anchor="start" x="197.5" y="-95" font-family="Verdana" font-size="10.00">CStringParameter::getFoot</text>
<text text-anchor="middle" x="262" y="-84" font-family="Verdana" font-size="10.00">Print</text>
</a>
</g>
</g>
<!-- Node1&#45;&gt;Node2 -->
<g id="edge1" class="edge"><title>Node1&#45;&gt;Node2</title>
<path fill="none" stroke="midnightblue" d="M123.777,-59.884C146.205,-65.1331 172.829,-71.3642 196.63,-76.9346"/>
<polygon fill="midnightblue" stroke="midnightblue" points="124.328,-56.4184 113.793,-57.5473 122.732,-63.2342 124.328,-56.4184"/>
</g>
<!-- Node3 -->
<g id="node3" class="node"><title>Node3</title>
<g id="a_node3"><a xlink:href="classCStringParameter.html#a6a9db60ee5c1b4c620441d6e0d82bd08" target="_top" xlink:title="CStringParameter::doSetValue">
<polygon fill="white" stroke="black" points="180.5,-38.5 180.5,-57.5 343.5,-57.5 343.5,-38.5 180.5,-38.5"/>
<text text-anchor="middle" x="262" y="-45.5" font-family="Verdana" font-size="10.00">CStringParameter::doSetValue</text>
</a>
</g>
</g>
<!-- Node1&#45;&gt;Node3 -->
<g id="edge2" class="edge"><title>Node1&#45;&gt;Node3</title>
<path fill="none" stroke="midnightblue" d="M154.181,-48C162.864,-48 171.696,-48 180.372,-48"/>
<polygon fill="midnightblue" stroke="midnightblue" points="154.075,-44.5001 144.075,-48 154.075,-51.5001 154.075,-44.5001"/>
</g>
<!-- Node4 -->
<g id="node4" class="node"><title>Node4</title>
<g id="a_node4"><a xlink:href="classCStringParameter.html#a4e52ebcdfe2da9b4e9089545d539e9fb" target="_top" xlink:title="CStringParameter::doGetValue">
<polygon fill="white" stroke="black" points="180,-0.5 180,-19.5 344,-19.5 344,-0.5 180,-0.5"/>
<text text-anchor="middle" x="262" y="-7.5" font-family="Verdana" font-size="10.00">CStringParameter::doGetValue</text>
</a>
</g>
</g>
<!-- Node1&#45;&gt;Node4 -->
<g id="edge3" class="edge"><title>Node1&#45;&gt;Node4</title>
<path fill="none" stroke="midnightblue" d="M130.437,-36.3905C157.174,-30.986 188.588,-24.6365 213.901,-19.5201"/>
<polygon fill="midnightblue" stroke="midnightblue" points="129.549,-32.9991 120.44,-38.411 130.936,-39.8603 129.549,-32.9991"/>
</g>
</g>
</svg>
