<?xml version="1.0" encoding="UTF-8" standalone="no"?>
<!DOCTYPE svg PUBLIC "-//W3C//DTD SVG 1.1//EN"
 "http://www.w3.org/Graphics/SVG/1.1/DTD/svg11.dtd">
<!-- Generated by graphviz version 2.38.0 (20140413.2041)
 -->
<!-- Title: CParameterMgr::exportDomainsXml Pages: 1 -->
<svg width="380pt" height="88pt"
 viewBox="0.00 0.00 380.00 88.00" xmlns="http://www.w3.org/2000/svg" xmlns:xlink="http://www.w3.org/1999/xlink">
<g id="graph0" class="graph" transform="scale(1 1) rotate(0) translate(4 84)">
<title>CParameterMgr::exportDomainsXml</title>
<polygon fill="white" stroke="none" points="-4,4 -4,-84 376,-84 376,4 -4,4"/>
<!-- Node1 -->
<g id="node1" class="node"><title>Node1</title>
<polygon fill="#bfbfbf" stroke="black" points="0,-30 0,-49 189,-49 189,-30 0,-30"/>
<text text-anchor="middle" x="94.5" y="-37" font-family="Verdana" font-size="10.00">CParameterMgr::exportDomainsXml</text>
</g>
<!-- Node2 -->
<g id="node2" class="node"><title>Node2</title>
<g id="a_node2"><a xlink:href="classCXmlDomainExportContext.html#af96234ea49123b30efa51a7023f07c8f" target="_top" xlink:title="CXmlDomainExportContext\l::setValueSpaceRaw">
<polygon fill="white" stroke="black" points="225,-49.5 225,-79.5 372,-79.5 372,-49.5 225,-49.5"/>
<text text-anchor="start" x="233" y="-67.5" font-family="Verdana" font-size="10.00">CXmlDomainExportContext</text>
<text text-anchor="middle" x="298.5" y="-56.5" font-family="Verdana" font-size="10.00">::setValueSpaceRaw</text>
</a>
</g>
</g>
<!-- Node1&#45;&gt;Node2 -->
<g id="edge1" class="edge"><title>Node1&#45;&gt;Node2</title>
<path fill="none" stroke="midnightblue" d="M172.444,-49.0227C186.26,-50.7327 200.715,-52.5216 214.689,-54.2511"/>
<polygon fill="midnightblue" stroke="midnightblue" points="214.409,-57.743 224.763,-55.4979 215.269,-50.796 214.409,-57.743"/>
</g>
<!-- Node3 -->
<g id="node3" class="node"><title>Node3</title>
<g id="a_node3"><a xlink:href="classCXmlDomainExportContext.html#a76304ae01cb688634fb64dab8717fb7d" target="_top" xlink:title="CXmlDomainExportContext\l::setOutputRawFormat">
<polygon fill="white" stroke="black" points="225,-0.5 225,-30.5 372,-30.5 372,-0.5 225,-0.5"/>
<text text-anchor="start" x="233" y="-18.5" font-family="Verdana" font-size="10.00">CXmlDomainExportContext</text>
<text text-anchor="middle" x="298.5" y="-7.5" font-family="Verdana" font-size="10.00">::setOutputRawFormat</text>
</a>
</g>
</g>
<!-- Node1&#45;&gt;Node3 -->
<g id="edge2" class="edge"><title>Node1&#45;&gt;Node3</title>
<path fill="none" stroke="midnightblue" d="M175.626,-29.9801C188.402,-28.4621 201.645,-26.8887 214.487,-25.3629"/>
<polygon fill="midnightblue" stroke="midnightblue" points="215.166,-28.807 224.683,-24.1515 214.34,-21.8559 215.166,-28.807"/>
</g>
</g>
</svg>
