<?xml version="1.0" encoding="UTF-8" standalone="no"?>
<!DOCTYPE svg PUBLIC "-//W3C//DTD SVG 1.1//EN"
 "http://www.w3.org/Graphics/SVG/1.1/DTD/svg11.dtd">
<!-- Generated by graphviz version 2.38.0 (20140413.2041)
 -->
<!-- Title: CElement::getRoot Pages: 1 -->
<svg width="256pt" height="46pt"
 viewBox="0.00 0.00 256.00 46.00" xmlns="http://www.w3.org/2000/svg" xmlns:xlink="http://www.w3.org/1999/xlink">
<g id="graph0" class="graph" transform="scale(1 1) rotate(0) translate(4 42)">
<title>CElement::getRoot</title>
<polygon fill="white" stroke="none" points="-4,4 -4,-42 252,-42 252,4 -4,4"/>
<!-- Node1 -->
<g id="node1" class="node"><title>Node1</title>
<polygon fill="#bfbfbf" stroke="black" points="0,-0.5 0,-19.5 106,-19.5 106,-0.5 0,-0.5"/>
<text text-anchor="middle" x="53" y="-7.5" font-family="Verdana" font-size="10.00">CElement::getRoot</text>
</g>
<!-- Node2 -->
<g id="node2" class="node"><title>Node2</title>
<g id="a_node2"><a xlink:href="classCElement.html#a5bc2403aa568f9916c53f9e86154a49e" target="_top" xlink:title="CElement::getRoot">
<polygon fill="white" stroke="black" points="142,-0.5 142,-19.5 248,-19.5 248,-0.5 142,-0.5"/>
<text text-anchor="middle" x="195" y="-7.5" font-family="Verdana" font-size="10.00">CElement::getRoot</text>
</a>
</g>
</g>
<!-- Node1&#45;&gt;Node2 -->
<g id="edge1" class="edge"><title>Node1&#45;&gt;Node2</title>
<path fill="none" stroke="midnightblue" d="M106.131,-10C114.421,-10 123.07,-10 131.568,-10"/>
<polygon fill="midnightblue" stroke="midnightblue" points="131.826,-13.5001 141.826,-10 131.826,-6.5001 131.826,-13.5001"/>
</g>
<!-- Node2&#45;&gt;Node2 -->
<g id="edge2" class="edge"><title>Node2&#45;&gt;Node2</title>
<path fill="none" stroke="midnightblue" d="M173.114,-19.7571C162.466,-28.5653 169.762,-38 195,-38 211.563,-38 220.398,-33.9368 221.506,-28.6539"/>
<polygon fill="midnightblue" stroke="midnightblue" points="224.601,-27.0192 216.886,-19.7571 218.388,-30.2449 224.601,-27.0192"/>
</g>
</g>
</svg>
