<?xml version="1.0" encoding="UTF-8" standalone="no"?>
<!DOCTYPE svg PUBLIC "-//W3C//DTD SVG 1.1//EN"
 "http://www.w3.org/Graphics/SVG/1.1/DTD/svg11.dtd">
<!-- Generated by graphviz version 2.38.0 (20140413.2041)
 -->
<!-- Title: CXmlDomainExportContext::setValueSpaceRaw Pages: 1 -->
<svg width="380pt" height="78pt"
 viewBox="0.00 0.00 380.00 77.50" xmlns="http://www.w3.org/2000/svg" xmlns:xlink="http://www.w3.org/1999/xlink">
<g id="graph0" class="graph" transform="scale(1 1) rotate(0) translate(4 73.5)">
<title>CXmlDomainExportContext::setValueSpaceRaw</title>
<polygon fill="white" stroke="none" points="-4,4 -4,-73.5 376,-73.5 376,4 -4,4"/>
<!-- Node1 -->
<g id="node1" class="node"><title>Node1</title>
<polygon fill="#bfbfbf" stroke="black" points="0,-22.5 0,-52.5 147,-52.5 147,-22.5 0,-22.5"/>
<text text-anchor="start" x="8" y="-40.5" font-family="Verdana" font-size="10.00">CXmlDomainExportContext</text>
<text text-anchor="middle" x="73.5" y="-29.5" font-family="Verdana" font-size="10.00">::setValueSpaceRaw</text>
</g>
<!-- Node2 -->
<g id="node2" class="node"><title>Node2</title>
<g id="a_node2"><a xlink:href="classCParameterMgr.html#a32d7ccfeb5faad330c03f733c6875e7c" target="_top" xlink:title="Method that exports Configurable Domains to an Xml destination. ">
<polygon fill="white" stroke="black" points="183,-50 183,-69 372,-69 372,-50 183,-50"/>
<text text-anchor="middle" x="277.5" y="-57" font-family="Verdana" font-size="10.00">CParameterMgr::exportDomainsXml</text>
</a>
</g>
</g>
<!-- Node1&#45;&gt;Node2 -->
<g id="edge1" class="edge"><title>Node1&#45;&gt;Node2</title>
<path fill="none" stroke="midnightblue" d="M157.118,-46.498C167.628,-47.6427 178.413,-48.8173 188.997,-49.9699"/>
<polygon fill="midnightblue" stroke="midnightblue" points="157.461,-43.0148 147.141,-45.4114 156.703,-49.9736 157.461,-43.0148"/>
</g>
<!-- Node3 -->
<g id="node3" class="node"><title>Node3</title>
<g id="a_node3"><a xlink:href="classCParameterMgr.html#a8e67dde1f6a678bad4002f31480107be" target="_top" xlink:title="Method that exports a given Configurable Domain to an Xml destination. ">
<polygon fill="white" stroke="black" points="198.5,-0.5 198.5,-30.5 356.5,-30.5 356.5,-0.5 198.5,-0.5"/>
<text text-anchor="start" x="206.5" y="-18.5" font-family="Verdana" font-size="10.00">CParameterMgr::exportSingle</text>
<text text-anchor="middle" x="277.5" y="-7.5" font-family="Verdana" font-size="10.00">DomainXml</text>
</a>
</g>
</g>
<!-- Node1&#45;&gt;Node3 -->
<g id="edge2" class="edge"><title>Node1&#45;&gt;Node3</title>
<path fill="none" stroke="midnightblue" d="M157.395,-28.4719C170.939,-26.9967 184.933,-25.4726 198.358,-24.0105"/>
<polygon fill="midnightblue" stroke="midnightblue" points="156.703,-25.0264 147.141,-29.5886 157.461,-31.9852 156.703,-25.0264"/>
</g>
</g>
</svg>
