<?xml version="1.0" encoding="UTF-8" standalone="no"?>
<!DOCTYPE svg PUBLIC "-//W3C//DTD SVG 1.1//EN"
 "http://www.w3.org/Graphics/SVG/1.1/DTD/svg11.dtd">
<!-- Generated by graphviz version 2.38.0 (20140413.2041)
 -->
<!-- Title: CSubsystem::fromXml Pages: 1 -->
<svg width="922pt" height="306pt"
 viewBox="0.00 0.00 922.00 305.50" xmlns="http://www.w3.org/2000/svg" xmlns:xlink="http://www.w3.org/1999/xlink">
<g id="graph0" class="graph" transform="scale(1 1) rotate(0) translate(4 301.5)">
<title>CSubsystem::fromXml</title>
<polygon fill="white" stroke="none" points="-4,4 -4,-301.5 918,-301.5 918,4 -4,4"/>
<!-- Node1 -->
<g id="node1" class="node"><title>Node1</title>
<polygon fill="#bfbfbf" stroke="black" points="0,-166.5 0,-185.5 124,-185.5 124,-166.5 0,-166.5"/>
<text text-anchor="middle" x="62" y="-173.5" font-family="Verdana" font-size="10.00">CSubsystem::fromXml</text>
</g>
<!-- Node2 -->
<g id="node2" class="node"><title>Node2</title>
<g id="a_node2"><a xlink:href="classCXmlParameterSerializingContext.html#a6aa9745f2951dc85c1a5d44f5e5e785c" target="_top" xlink:title="CXmlParameterSerializing\lContext::setComponentLibrary">
<polygon fill="white" stroke="black" points="160,-249 160,-279 324,-279 324,-249 160,-249"/>
<text text-anchor="start" x="168" y="-267" font-family="Verdana" font-size="10.00">CXmlParameterSerializing</text>
<text text-anchor="middle" x="242" y="-256" font-family="Verdana" font-size="10.00">Context::setComponentLibrary</text>
</a>
</g>
</g>
<!-- Node1&#45;&gt;Node2 -->
<g id="edge1" class="edge"><title>Node1&#45;&gt;Node2</title>
<path fill="none" stroke="midnightblue" d="M75.2117,-185.535C92.9918,-199.034 127.444,-223.765 160,-239 164.915,-241.3 170.095,-243.456 175.362,-245.462"/>
<polygon fill="midnightblue" stroke="midnightblue" points="174.301,-248.801 184.896,-248.91 176.682,-242.218 174.301,-248.801"/>
</g>
<!-- Node3 -->
<g id="node3" class="node"><title>Node3</title>
<g id="a_node3"><a xlink:href="classCMappingData.html#af6c3dc0a3f49fa81435761978f842bc8" target="_top" xlink:title="CMappingData::fromXml">
<polygon fill="white" stroke="black" points="175,-210.5 175,-229.5 309,-229.5 309,-210.5 175,-210.5"/>
<text text-anchor="middle" x="242" y="-217.5" font-family="Verdana" font-size="10.00">CMappingData::fromXml</text>
</a>
</g>
</g>
<!-- Node1&#45;&gt;Node3 -->
<g id="edge2" class="edge"><title>Node1&#45;&gt;Node3</title>
<path fill="none" stroke="midnightblue" d="M101.704,-185.581C119.466,-189.976 140.801,-195.255 160,-200 170.443,-202.581 181.644,-205.348 192.284,-207.975"/>
<polygon fill="midnightblue" stroke="midnightblue" points="191.723,-211.442 202.27,-210.441 193.401,-204.646 191.723,-211.442"/>
</g>
<!-- Node4 -->
<g id="node4" class="node"><title>Node4</title>
<g id="a_node4"><a xlink:href="classCComponentLibrary.html#ad4cc928cda43371fb31f20394e8e04e5" target="_top" xlink:title="CComponentLibrary::\lfromXml">
<polygon fill="white" stroke="black" points="183.5,-161 183.5,-191 300.5,-191 300.5,-161 183.5,-161"/>
<text text-anchor="start" x="191.5" y="-179" font-family="Verdana" font-size="10.00">CComponentLibrary::</text>
<text text-anchor="middle" x="242" y="-168" font-family="Verdana" font-size="10.00">fromXml</text>
</a>
</g>
</g>
<!-- Node1&#45;&gt;Node4 -->
<g id="edge3" class="edge"><title>Node1&#45;&gt;Node4</title>
<path fill="none" stroke="midnightblue" d="M124.258,-176C139.931,-176 156.881,-176 172.877,-176"/>
<polygon fill="midnightblue" stroke="midnightblue" points="173.228,-179.5 183.228,-176 173.228,-172.5 173.228,-179.5"/>
</g>
<!-- Node12 -->
<g id="node12" class="node"><title>Node12</title>
<g id="a_node12"><a xlink:href="classCTypeElement.html#a8f3a08cd11a7db4fde3bd69dde5c8b66" target="_top" xlink:title="CTypeElement::fromXml">
<polygon fill="white" stroke="black" points="176.5,-42.5 176.5,-61.5 307.5,-61.5 307.5,-42.5 176.5,-42.5"/>
<text text-anchor="middle" x="242" y="-49.5" font-family="Verdana" font-size="10.00">CTypeElement::fromXml</text>
</a>
</g>
</g>
<!-- Node1&#45;&gt;Node12 -->
<g id="edge13" class="edge"><title>Node1&#45;&gt;Node12</title>
<path fill="none" stroke="midnightblue" d="M72.2005,-166.377C88.6508,-149.546 124.698,-114.338 160,-91 174.739,-81.2562 192.281,-72.5037 207.266,-65.7712"/>
<polygon fill="midnightblue" stroke="midnightblue" points="208.93,-68.8635 216.689,-61.6485 206.124,-62.4505 208.93,-68.8635"/>
</g>
<!-- Node15 -->
<g id="node15" class="node"><title>Node15</title>
<g id="a_node15"><a xlink:href="classCInstanceDefinition.html#aa29d3b10a23894522cfaa937cf385d10" target="_top" xlink:title="CInstanceDefinition\l::createInstances">
<polygon fill="white" stroke="black" points="187.5,-101 187.5,-131 296.5,-131 296.5,-101 187.5,-101"/>
<text text-anchor="start" x="195.5" y="-119" font-family="Verdana" font-size="10.00">CInstanceDefinition</text>
<text text-anchor="middle" x="242" y="-108" font-family="Verdana" font-size="10.00">::createInstances</text>
</a>
</g>
</g>
<!-- Node1&#45;&gt;Node15 -->
<g id="edge17" class="edge"><title>Node1&#45;&gt;Node15</title>
<path fill="none" stroke="midnightblue" d="M91.2046,-166.493C116.79,-157.868 155.217,-144.916 186.743,-134.289"/>
<polygon fill="midnightblue" stroke="midnightblue" points="187.926,-137.584 196.284,-131.073 185.69,-130.95 187.926,-137.584"/>
</g>
<!-- Node5 -->
<g id="node5" class="node"><title>Node5</title>
<g id="a_node5"><a xlink:href="classCElement.html#a0b4cdc10e6df8fd3740255c5faf3b596" target="_top" xlink:title="Creates a child CElement from a child XML Element. ">
<polygon fill="white" stroke="black" points="575,-228.5 575,-247.5 698,-247.5 698,-228.5 575,-228.5"/>
<text text-anchor="middle" x="636.5" y="-235.5" font-family="Verdana" font-size="10.00">CElement::createChild</text>
</a>
</g>
</g>
<!-- Node4&#45;&gt;Node5 -->
<g id="edge4" class="edge"><title>Node4&#45;&gt;Node5</title>
<path fill="none" stroke="midnightblue" d="M296.159,-191.035C305.53,-194.074 315.122,-197.438 324,-201 340.602,-207.66 342.742,-214.293 360,-219 427.82,-237.496 508.328,-241.038 564.742,-240.688"/>
<polygon fill="midnightblue" stroke="midnightblue" points="565.024,-244.185 574.987,-240.58 564.95,-237.186 565.024,-244.185"/>
</g>
<!-- Node9 -->
<g id="node9" class="node"><title>Node9</title>
<g id="a_node9"><a xlink:href="classCElement.html#a1978d50e2db432e7b8f0928f33d3f01a" target="_top" xlink:title="CElement::fromXml">
<polygon fill="white" stroke="black" points="390,-172.5 390,-191.5 500,-191.5 500,-172.5 390,-172.5"/>
<text text-anchor="middle" x="445" y="-179.5" font-family="Verdana" font-size="10.00">CElement::fromXml</text>
</a>
</g>
</g>
<!-- Node4&#45;&gt;Node9 -->
<g id="edge8" class="edge"><title>Node4&#45;&gt;Node9</title>
<path fill="none" stroke="midnightblue" d="M300.599,-177.719C325.272,-178.456 354.194,-179.319 379.575,-180.077"/>
<polygon fill="midnightblue" stroke="midnightblue" points="379.744,-183.583 389.844,-180.383 379.953,-176.587 379.744,-183.583"/>
</g>
<!-- Node6 -->
<g id="node6" class="node"><title>Node6</title>
<g id="a_node6"><a xlink:href="classCXmlElementSerializingContext.html#a6c36b7e23b9968c6ea898612d2a55ee9" target="_top" xlink:title="CXmlElementSerializingContext\l::getElementLibrary">
<polygon fill="white" stroke="black" points="745,-267 745,-297 912,-297 912,-267 745,-267"/>
<text text-anchor="start" x="753" y="-285" font-family="Verdana" font-size="10.00">CXmlElementSerializingContext</text>
<text text-anchor="middle" x="828.5" y="-274" font-family="Verdana" font-size="10.00">::getElementLibrary</text>
</a>
</g>
</g>
<!-- Node5&#45;&gt;Node6 -->
<g id="edge5" class="edge"><title>Node5&#45;&gt;Node6</title>
<path fill="none" stroke="midnightblue" d="M678.727,-247.547C700.31,-252.545 727.414,-258.822 752.555,-264.644"/>
<polygon fill="midnightblue" stroke="midnightblue" points="751.913,-268.088 762.445,-266.935 753.492,-261.269 751.913,-268.088"/>
</g>
<!-- Node7 -->
<g id="node7" class="node"><title>Node7</title>
<g id="a_node7"><a xlink:href="classCElementLibrary.html#a5ad95964216e50fc59f0c803370fb4de" target="_top" xlink:title="CElementLibrary::createElement">
<polygon fill="white" stroke="black" points="743,-228.5 743,-247.5 914,-247.5 914,-228.5 743,-228.5"/>
<text text-anchor="middle" x="828.5" y="-235.5" font-family="Verdana" font-size="10.00">CElementLibrary::createElement</text>
</a>
</g>
</g>
<!-- Node5&#45;&gt;Node7 -->
<g id="edge6" class="edge"><title>Node5&#45;&gt;Node7</title>
<path fill="none" stroke="midnightblue" d="M698.14,-238C709.143,-238 720.858,-238 732.571,-238"/>
<polygon fill="midnightblue" stroke="midnightblue" points="732.846,-241.5 742.846,-238 732.846,-234.5 732.846,-241.5"/>
</g>
<!-- Node8 -->
<g id="node8" class="node"><title>Node8</title>
<g id="a_node8"><a xlink:href="classCElement.html#ac2ad66ee438a4a0c1390b7388874fe72" target="_top" xlink:title="CElement::addChild">
<polygon fill="white" stroke="black" points="773.5,-190.5 773.5,-209.5 883.5,-209.5 883.5,-190.5 773.5,-190.5"/>
<text text-anchor="middle" x="828.5" y="-197.5" font-family="Verdana" font-size="10.00">CElement::addChild</text>
</a>
</g>
</g>
<!-- Node5&#45;&gt;Node8 -->
<g id="edge7" class="edge"><title>Node5&#45;&gt;Node8</title>
<path fill="none" stroke="midnightblue" d="M685.445,-228.411C711.082,-223.284 742.836,-216.933 769.816,-211.537"/>
<polygon fill="midnightblue" stroke="midnightblue" points="770.78,-214.913 779.9,-209.52 769.408,-208.049 770.78,-214.913"/>
</g>
<!-- Node9&#45;&gt;Node5 -->
<g id="edge11" class="edge"><title>Node9&#45;&gt;Node5</title>
<path fill="none" stroke="midnightblue" d="M476.002,-191.545C500.227,-199.18 535.227,-210.052 566,-219 573.685,-221.235 581.871,-223.539 589.826,-225.739"/>
<polygon fill="midnightblue" stroke="midnightblue" points="589.154,-229.184 599.724,-228.457 591.008,-222.434 589.154,-229.184"/>
</g>
<!-- Node9&#45;&gt;Node9 -->
<g id="edge12" class="edge"><title>Node9&#45;&gt;Node9</title>
<path fill="none" stroke="midnightblue" d="M415.715,-191.757C401.469,-200.565 411.23,-210 445,-210 468.744,-210 480.619,-205.336 480.625,-199.504"/>
<polygon fill="midnightblue" stroke="midnightblue" points="483.327,-197.279 474.285,-191.757 477.909,-201.712 483.327,-197.279"/>
</g>
<!-- Node10 -->
<g id="node10" class="node"><title>Node10</title>
<g id="a_node10"><a xlink:href="classCElement.html#acee1af3e8516a211731a59b85727c6b9" target="_top" xlink:title="CElement::findChildOfKind">
<polygon fill="white" stroke="black" points="566.5,-190.5 566.5,-209.5 706.5,-209.5 706.5,-190.5 566.5,-190.5"/>
<text text-anchor="middle" x="636.5" y="-197.5" font-family="Verdana" font-size="10.00">CElement::findChildOfKind</text>
</a>
</g>
</g>
<!-- Node9&#45;&gt;Node10 -->
<g id="edge9" class="edge"><title>Node9&#45;&gt;Node10</title>
<path fill="none" stroke="midnightblue" d="M500.049,-187.134C517.576,-188.799 537.396,-190.681 556.358,-192.483"/>
<polygon fill="midnightblue" stroke="midnightblue" points="556.194,-195.983 566.48,-193.444 556.856,-189.014 556.194,-195.983"/>
</g>
<!-- Node11 -->
<g id="node11" class="node"><title>Node11</title>
<g id="a_node11"><a xlink:href="classCElement.html#aed2ca7f2a56dbf2edcd82167859535ee" target="_top" xlink:title="CElement::getKind">
<polygon fill="white" stroke="black" points="776,-152.5 776,-171.5 881,-171.5 881,-152.5 776,-152.5"/>
<text text-anchor="middle" x="828.5" y="-159.5" font-family="Verdana" font-size="10.00">CElement::getKind</text>
</a>
</g>
</g>
<!-- Node10&#45;&gt;Node11 -->
<g id="edge10" class="edge"><title>Node10&#45;&gt;Node11</title>
<path fill="none" stroke="midnightblue" d="M685.445,-190.411C711.082,-185.284 742.836,-178.933 769.816,-173.537"/>
<polygon fill="midnightblue" stroke="midnightblue" points="770.78,-176.913 779.9,-171.52 769.408,-170.049 770.78,-176.913"/>
</g>
<!-- Node13 -->
<g id="node13" class="node"><title>Node13</title>
<g id="a_node13"><a xlink:href="classCTypeElement.html#aa8d910c6cf51c03d03f183a6a81a8372" target="_top" xlink:title="CTypeElement::getMappingData">
<polygon fill="white" stroke="black" points="360,-15.5 360,-34.5 530,-34.5 530,-15.5 360,-15.5"/>
<text text-anchor="middle" x="445" y="-22.5" font-family="Verdana" font-size="10.00">CTypeElement::getMappingData</text>
</a>
</g>
</g>
<!-- Node12&#45;&gt;Node13 -->
<g id="edge14" class="edge"><title>Node12&#45;&gt;Node13</title>
<path fill="none" stroke="midnightblue" d="M307.704,-43.3084C325.327,-40.9411 344.64,-38.3469 363.043,-35.8748"/>
<polygon fill="midnightblue" stroke="midnightblue" points="363.712,-39.3165 373.157,-34.5162 362.78,-32.3788 363.712,-39.3165"/>
</g>
<!-- Node13&#45;&gt;Node13 -->
<g id="edge15" class="edge"><title>Node13&#45;&gt;Node13</title>
<path fill="none" stroke="midnightblue" d="M415.715,-34.7571C401.469,-43.5653 411.23,-53 445,-53 468.744,-53 480.619,-48.3356 480.625,-42.5043"/>
<polygon fill="midnightblue" stroke="midnightblue" points="483.327,-40.279 474.285,-34.7571 477.909,-44.7125 483.327,-40.279"/>
</g>
<!-- Node14 -->
<g id="node14" class="node"><title>Node14</title>
<g id="a_node14"><a xlink:href="classCMappingData.html#a7a2d5172201c72ab434175fadc1f3053" target="_top" xlink:title="CMappingData::getValue">
<polygon fill="white" stroke="black" points="569,-0.5 569,-19.5 704,-19.5 704,-0.5 569,-0.5"/>
<text text-anchor="middle" x="636.5" y="-7.5" font-family="Verdana" font-size="10.00">CMappingData::getValue</text>
</a>
</g>
</g>
<!-- Node13&#45;&gt;Node14 -->
<g id="edge16" class="edge"><title>Node13&#45;&gt;Node14</title>
<path fill="none" stroke="midnightblue" d="M530.221,-18.3334C539.731,-17.5807 549.383,-16.8166 558.79,-16.072"/>
<polygon fill="midnightblue" stroke="midnightblue" points="559.189,-19.5515 568.882,-15.2732 558.637,-12.5733 559.189,-19.5515"/>
</g>
<!-- Node16 -->
<g id="node16" class="node"><title>Node16</title>
<g id="a_node16"><a xlink:href="classCTypeElement.html#a7cdfd91a35b67d17fb2c92f8a2883854" target="_top" xlink:title="CTypeElement::populate">
<polygon fill="white" stroke="black" points="379,-100.5 379,-119.5 511,-119.5 511,-100.5 379,-100.5"/>
<text text-anchor="middle" x="445" y="-107.5" font-family="Verdana" font-size="10.00">CTypeElement::populate</text>
</a>
</g>
</g>
<!-- Node15&#45;&gt;Node16 -->
<g id="edge18" class="edge"><title>Node15&#45;&gt;Node16</title>
<path fill="none" stroke="midnightblue" d="M296.6,-114.4C318.682,-113.741 344.657,-112.965 368.602,-112.251"/>
<polygon fill="midnightblue" stroke="midnightblue" points="368.831,-115.746 378.722,-111.949 368.622,-108.749 368.831,-115.746"/>
</g>
<!-- Node16&#45;&gt;Node8 -->
<g id="edge23" class="edge"><title>Node16&#45;&gt;Node8</title>
<path fill="none" stroke="midnightblue" d="M478.727,-119.511C502.783,-126.377 536.314,-135.688 566,-143 635.936,-160.225 717.054,-177.489 770.172,-188.429"/>
<polygon fill="midnightblue" stroke="midnightblue" points="769.583,-191.881 780.083,-190.464 770.991,-185.024 769.583,-191.881"/>
</g>
<!-- Node17 -->
<g id="node17" class="node"><title>Node17</title>
<g id="a_node17"><a xlink:href="classCElement.html#a58b6cdb5715497442fde6afa1e65f8e5" target="_top" xlink:title="CElement::getNbChildren">
<polygon fill="white" stroke="black" points="568,-114.5 568,-133.5 705,-133.5 705,-114.5 568,-114.5"/>
<text text-anchor="middle" x="636.5" y="-121.5" font-family="Verdana" font-size="10.00">CElement::getNbChildren</text>
</a>
</g>
</g>
<!-- Node16&#45;&gt;Node17 -->
<g id="edge19" class="edge"><title>Node16&#45;&gt;Node17</title>
<path fill="none" stroke="midnightblue" d="M511.215,-114.818C526.233,-115.928 542.351,-117.118 557.839,-118.262"/>
<polygon fill="midnightblue" stroke="midnightblue" points="557.677,-121.76 567.908,-119.006 558.193,-114.779 557.677,-121.76"/>
</g>
<!-- Node18 -->
<g id="node18" class="node"><title>Node18</title>
<g id="a_node18"><a xlink:href="classCElement.html#a9bba10d2dc72821589a898e16ace9ae5" target="_top" xlink:title="Get a child element (const) ">
<polygon fill="white" stroke="black" points="582.5,-76.5 582.5,-95.5 690.5,-95.5 690.5,-76.5 582.5,-76.5"/>
<text text-anchor="middle" x="636.5" y="-83.5" font-family="Verdana" font-size="10.00">CElement::getChild</text>
</a>
</g>
</g>
<!-- Node16&#45;&gt;Node18 -->
<g id="edge20" class="edge"><title>Node16&#45;&gt;Node18</title>
<path fill="none" stroke="midnightblue" d="M511.215,-101.741C530.999,-99.235 552.692,-96.4876 572.338,-93.9994"/>
<polygon fill="midnightblue" stroke="midnightblue" points="572.924,-97.4533 582.405,-92.7245 572.044,-90.5088 572.924,-97.4533"/>
</g>
<!-- Node19 -->
<g id="node19" class="node"><title>Node19</title>
<g id="a_node19"><a xlink:href="classCTypeElement.html#a0fd0b5dfb3e3515ff5b54eda3d7e0a45" target="_top" xlink:title="CTypeElement::instantiate">
<polygon fill="white" stroke="black" points="566,-38.5 566,-57.5 707,-57.5 707,-38.5 566,-38.5"/>
<text text-anchor="middle" x="636.5" y="-45.5" font-family="Verdana" font-size="10.00">CTypeElement::instantiate</text>
</a>
</g>
</g>
<!-- Node16&#45;&gt;Node19 -->
<g id="edge21" class="edge"><title>Node16&#45;&gt;Node19</title>
<path fill="none" stroke="midnightblue" d="M457.152,-100.474C476.591,-89.5063 518.255,-73.5236 557.521,-60.7282"/>
<polygon fill="midnightblue" stroke="midnightblue" points="558.984,-63.9349 567.438,-57.5488 556.846,-57.2692 558.984,-63.9349"/>
</g>
<!-- Node19&#45;&gt;Node16 -->
<g id="edge22" class="edge"><title>Node19&#45;&gt;Node16</title>
<path fill="none" stroke="midnightblue" d="M623.364,-57.5161C609.428,-63.5463 585.923,-69.7176 566,-76 545.051,-82.6062 522.307,-90.5538 502.309,-97.285"/>
<polygon fill="midnightblue" stroke="midnightblue" points="501.111,-93.9951 492.733,-100.48 503.327,-100.635 501.111,-93.9951"/>
</g>
</g>
</svg>
