<?xml version="1.0" encoding="UTF-8" standalone="no"?>
<!DOCTYPE svg PUBLIC "-//W3C//DTD SVG 1.1//EN"
 "http://www.w3.org/Graphics/SVG/1.1/DTD/svg11.dtd">
<!-- Generated by graphviz version 2.38.0 (20140413.2041)
 -->
<!-- Title: CElement::childrenToXml Pages: 1 -->
<svg width="315pt" height="104pt"
 viewBox="0.00 0.00 315.00 104.00" xmlns="http://www.w3.org/2000/svg" xmlns:xlink="http://www.w3.org/1999/xlink">
<g id="graph0" class="graph" transform="scale(1 1) rotate(0) translate(4 100)">
<title>CElement::childrenToXml</title>
<polygon fill="white" stroke="none" points="-4,4 -4,-100 311,-100 311,4 -4,4"/>
<!-- Node1 -->
<g id="node1" class="node"><title>Node1</title>
<polygon fill="#bfbfbf" stroke="black" points="0,-19.5 0,-38.5 134,-38.5 134,-19.5 0,-19.5"/>
<text text-anchor="middle" x="67" y="-26.5" font-family="Verdana" font-size="10.00">CElement::childrenToXml</text>
</g>
<!-- Node2 -->
<g id="node2" class="node"><title>Node2</title>
<g id="a_node2"><a xlink:href="classCElement.html#a25f58d9d8b35e770806d669fb2a378e4" target="_top" xlink:title="CElement::getNbChildren">
<polygon fill="white" stroke="black" points="170,-76.5 170,-95.5 307,-95.5 307,-76.5 170,-76.5"/>
<text text-anchor="middle" x="238.5" y="-83.5" font-family="Verdana" font-size="10.00">CElement::getNbChildren</text>
</a>
</g>
</g>
<!-- Node1&#45;&gt;Node2 -->
<g id="edge1" class="edge"><title>Node1&#45;&gt;Node2</title>
<path fill="none" stroke="midnightblue" d="M92.1211,-38.6259C112.666,-46.6699 143.053,-58.2044 170,-67 177.002,-69.2854 184.464,-71.5518 191.778,-73.6805"/>
<polygon fill="midnightblue" stroke="midnightblue" points="191.026,-77.1056 201.603,-76.4867 192.949,-70.3748 191.026,-77.1056"/>
</g>
<!-- Node3 -->
<g id="node3" class="node"><title>Node3</title>
<g id="a_node3"><a xlink:href="classCElement.html#aed2ca7f2a56dbf2edcd82167859535ee" target="_top" xlink:title="CElement::getKind">
<polygon fill="white" stroke="black" points="186,-38.5 186,-57.5 291,-57.5 291,-38.5 186,-38.5"/>
<text text-anchor="middle" x="238.5" y="-45.5" font-family="Verdana" font-size="10.00">CElement::getKind</text>
</a>
</g>
</g>
<!-- Node1&#45;&gt;Node3 -->
<g id="edge2" class="edge"><title>Node1&#45;&gt;Node3</title>
<path fill="none" stroke="midnightblue" d="M134.018,-36.4003C147.722,-37.9364 162.113,-39.5496 175.66,-41.0681"/>
<polygon fill="midnightblue" stroke="midnightblue" points="175.502,-44.5722 185.83,-42.2081 176.282,-37.6158 175.502,-44.5722"/>
</g>
<!-- Node4 -->
<g id="node4" class="node"><title>Node4</title>
<g id="a_node4"><a xlink:href="classCElement.html#a7ce1bde0fda5cf412b652000cab473e4" target="_top" xlink:title="CElement::toXml">
<polygon fill="white" stroke="black" points="190,-0.5 190,-19.5 287,-19.5 287,-0.5 190,-0.5"/>
<text text-anchor="middle" x="238.5" y="-7.5" font-family="Verdana" font-size="10.00">CElement::toXml</text>
</a>
</g>
</g>
<!-- Node1&#45;&gt;Node4 -->
<g id="edge3" class="edge"><title>Node1&#45;&gt;Node4</title>
<path fill="none" stroke="midnightblue" d="M103.121,-19.4705C125.194,-15.8247 154.203,-12.2909 179.616,-10.0494"/>
<polygon fill="midnightblue" stroke="midnightblue" points="180.211,-13.5122 189.888,-9.19958 179.634,-6.53607 180.211,-13.5122"/>
</g>
<!-- Node4&#45;&gt;Node1 -->
<g id="edge4" class="edge"><title>Node4&#45;&gt;Node1</title>
<path fill="none" stroke="midnightblue" d="M202.196,-19.5598C185.324,-22.3411 164.432,-25.0554 144.196,-27.1782"/>
<polygon fill="midnightblue" stroke="midnightblue" points="143.618,-23.7185 134.018,-28.201 144.318,-30.6834 143.618,-23.7185"/>
</g>
</g>
</svg>
