<?xml version="1.0" encoding="UTF-8" standalone="no"?>
<!DOCTYPE svg PUBLIC "-//W3C//DTD SVG 1.1//EN"
 "http://www.w3.org/Graphics/SVG/1.1/DTD/svg11.dtd">
<!-- Generated by graphviz version 2.38.0 (20140413.2041)
 -->
<!-- Title: CElement::clean Pages: 1 -->
<svg width="504pt" height="116pt"
 viewBox="0.00 0.00 504.00 115.50" xmlns="http://www.w3.org/2000/svg" xmlns:xlink="http://www.w3.org/1999/xlink">
<g id="graph0" class="graph" transform="scale(1 1) rotate(0) translate(4 111.5)">
<title>CElement::clean</title>
<polygon fill="white" stroke="none" points="-4,4 -4,-111.5 500,-111.5 500,4 -4,4"/>
<!-- Node1 -->
<g id="node1" class="node"><title>Node1</title>
<polygon fill="#bfbfbf" stroke="black" points="0,-38.5 0,-57.5 95,-57.5 95,-38.5 0,-38.5"/>
<text text-anchor="middle" x="47.5" y="-45.5" font-family="Verdana" font-size="10.00">CElement::clean</text>
</g>
<!-- Node2 -->
<g id="node2" class="node"><title>Node2</title>
<g id="a_node2"><a xlink:href="classCConfigurableDomains.html#a4fc3d6b09acd45d1d94f9191b01bf4c0" target="_top" xlink:title="CConfigurableDomains\l::deleteAllDomains">
<polygon fill="white" stroke="black" points="163,-77 163,-107 289,-107 289,-77 163,-77"/>
<text text-anchor="start" x="171" y="-95" font-family="Verdana" font-size="10.00">CConfigurableDomains</text>
<text text-anchor="middle" x="226" y="-84" font-family="Verdana" font-size="10.00">::deleteAllDomains</text>
</a>
</g>
</g>
<!-- Node1&#45;&gt;Node2 -->
<g id="edge1" class="edge"><title>Node1&#45;&gt;Node2</title>
<path fill="none" stroke="midnightblue" d="M96.7412,-60.0261C117.677,-65.2453 142.424,-71.4144 164.567,-76.9346"/>
<polygon fill="midnightblue" stroke="midnightblue" points="97.3476,-56.5702 86.7979,-57.5473 95.6543,-63.3624 97.3476,-56.5702"/>
</g>
<!-- Node4 -->
<g id="node4" class="node"><title>Node4</title>
<g id="a_node4"><a xlink:href="classCParameterMgr.html#ab17dc57a1b642c10df433c2c971f93c0" target="_top" xlink:title="Method that imports Configurable Domains from an Xml source. ">
<polygon fill="white" stroke="black" points="131,-38.5 131,-57.5 321,-57.5 321,-38.5 131,-38.5"/>
<text text-anchor="middle" x="226" y="-45.5" font-family="Verdana" font-size="10.00">CParameterMgr::importDomainsXml</text>
</a>
</g>
</g>
<!-- Node1&#45;&gt;Node4 -->
<g id="edge3" class="edge"><title>Node1&#45;&gt;Node4</title>
<path fill="none" stroke="midnightblue" d="M105.429,-48C113.59,-48 122.163,-48 130.811,-48"/>
<polygon fill="midnightblue" stroke="midnightblue" points="105.335,-44.5001 95.3354,-48 105.335,-51.5001 105.335,-44.5001"/>
</g>
<!-- Node5 -->
<g id="node5" class="node"><title>Node5</title>
<g id="a_node5"><a xlink:href="classCSystemClass.html#a83e967c796ffbb738fe8147109329ab2" target="_top" xlink:title="CSystemClass::~CSystemClass">
<polygon fill="white" stroke="black" points="141.5,-0.5 141.5,-19.5 310.5,-19.5 310.5,-0.5 141.5,-0.5"/>
<text text-anchor="middle" x="226" y="-7.5" font-family="Verdana" font-size="10.00">CSystemClass::~CSystemClass</text>
</a>
</g>
</g>
<!-- Node1&#45;&gt;Node5 -->
<g id="edge4" class="edge"><title>Node1&#45;&gt;Node5</title>
<path fill="none" stroke="midnightblue" d="M99.0662,-36.128C109.608,-33.7166 120.658,-31.2358 131,-29 145.809,-25.7987 161.967,-22.4725 176.645,-19.5147"/>
<polygon fill="midnightblue" stroke="midnightblue" points="98.1154,-32.7552 89.1548,-38.4083 99.6849,-39.577 98.1154,-32.7552"/>
</g>
<!-- Node3 -->
<g id="node3" class="node"><title>Node3</title>
<g id="a_node3"><a xlink:href="classCParameterMgr.html#a927c41273e23d3303f456d3c01907391" target="_top" xlink:title="CParameterMgr::deleteAll\lDomains">
<polygon fill="white" stroke="black" points="357,-77 357,-107 496,-107 496,-77 357,-77"/>
<text text-anchor="start" x="365" y="-95" font-family="Verdana" font-size="10.00">CParameterMgr::deleteAll</text>
<text text-anchor="middle" x="426.5" y="-84" font-family="Verdana" font-size="10.00">Domains</text>
</a>
</g>
</g>
<!-- Node2&#45;&gt;Node3 -->
<g id="edge2" class="edge"><title>Node2&#45;&gt;Node3</title>
<path fill="none" stroke="midnightblue" d="M299.514,-92C318.256,-92 338.372,-92 356.906,-92"/>
<polygon fill="midnightblue" stroke="midnightblue" points="299.262,-88.5001 289.262,-92 299.262,-95.5001 299.262,-88.5001"/>
</g>
</g>
</svg>
