<?xml version="1.0" encoding="UTF-8" standalone="no"?>
<!DOCTYPE svg PUBLIC "-//W3C//DTD SVG 1.1//EN"
 "http://www.w3.org/Graphics/SVG/1.1/DTD/svg11.dtd">
<!-- Generated by graphviz version 2.38.0 (20140413.2041)
 -->
<!-- Title: CElement::getKind Pages: 1 -->
<svg width="816pt" height="420pt"
 viewBox="0.00 0.00 816.00 420.00" xmlns="http://www.w3.org/2000/svg" xmlns:xlink="http://www.w3.org/1999/xlink">
<g id="graph0" class="graph" transform="scale(1 1) rotate(0) translate(4 416)">
<title>CElement::getKind</title>
<polygon fill="white" stroke="none" points="-4,4 -4,-416 812,-416 812,4 -4,4"/>
<!-- Node1 -->
<g id="node1" class="node"><title>Node1</title>
<polygon fill="#bfbfbf" stroke="black" points="0,-193 0,-212 105,-212 105,-193 0,-193"/>
<text text-anchor="middle" x="52.5" y="-200" font-family="Verdana" font-size="10.00">CElement::getKind</text>
</g>
<!-- Node2 -->
<g id="node2" class="node"><title>Node2</title>
<g id="a_node2"><a xlink:href="classCConfigurableElement.html#a0e3feb8a7b18a3291ec960c9726b4eaf" target="_top" xlink:title="CConfigurableElement\l::serializeXmlSettings">
<polygon fill="white" stroke="black" points="163.5,-363.5 163.5,-393.5 286.5,-393.5 286.5,-363.5 163.5,-363.5"/>
<text text-anchor="start" x="171.5" y="-381.5" font-family="Verdana" font-size="10.00">CConfigurableElement</text>
<text text-anchor="middle" x="225" y="-370.5" font-family="Verdana" font-size="10.00">::serializeXmlSettings</text>
</a>
</g>
</g>
<!-- Node1&#45;&gt;Node2 -->
<g id="edge1" class="edge"><title>Node1&#45;&gt;Node2</title>
<path fill="none" stroke="midnightblue" d="M59.4793,-221.901C70.3892,-254.07 96.5874,-318.38 141,-353.5 147.61,-358.727 155.301,-362.864 163.282,-366.137"/>
<polygon fill="midnightblue" stroke="midnightblue" points="62.7822,-220.74 56.3613,-212.312 56.1253,-222.904 62.7822,-220.74"/>
</g>
<!-- Node4 -->
<g id="node4" class="node"><title>Node4</title>
<g id="a_node4"><a xlink:href="classCElement.html#a49563131c5e78cc693b5c7e9b08dc787" target="_top" xlink:title="CElement::dumpContent">
<polygon fill="white" stroke="black" points="157.5,-325 157.5,-344 292.5,-344 292.5,-325 157.5,-325"/>
<text text-anchor="middle" x="225" y="-332" font-family="Verdana" font-size="10.00">CElement::dumpContent</text>
</a>
</g>
</g>
<!-- Node1&#45;&gt;Node4 -->
<g id="edge4" class="edge"><title>Node1&#45;&gt;Node4</title>
<path fill="none" stroke="midnightblue" d="M62.6797,-221.195C76.19,-246.663 103.897,-291.798 141,-315.5 147.104,-319.399 153.912,-322.502 160.932,-324.97"/>
<polygon fill="midnightblue" stroke="midnightblue" points="65.7387,-219.49 58.0612,-212.189 59.5099,-222.684 65.7387,-219.49"/>
</g>
<!-- Node5 -->
<g id="node5" class="node"><title>Node5</title>
<g id="a_node5"><a xlink:href="classCElement.html#a8c87fea54766f49f45346713d9d09880" target="_top" xlink:title="CElement::showProperties">
<polygon fill="white" stroke="black" points="154,-287 154,-306 296,-306 296,-287 154,-287"/>
<text text-anchor="middle" x="225" y="-294" font-family="Verdana" font-size="10.00">CElement::showProperties</text>
</a>
</g>
</g>
<!-- Node1&#45;&gt;Node5 -->
<g id="edge5" class="edge"><title>Node1&#45;&gt;Node5</title>
<path fill="none" stroke="midnightblue" d="M68.9118,-219.925C85.1425,-237.171 112.287,-263.029 141,-277.5 148.656,-281.359 157.104,-284.444 165.591,-286.909"/>
<polygon fill="midnightblue" stroke="midnightblue" points="71.2003,-217.243 61.8616,-212.239 66.0415,-221.974 71.2003,-217.243"/>
</g>
<!-- Node6 -->
<g id="node6" class="node"><title>Node6</title>
<g id="a_node6"><a xlink:href="classCElement.html#aee22d6b038603b6481a8f029bf59ff3d" target="_top" xlink:title="Serialize the children to XML. ">
<polygon fill="white" stroke="black" points="158,-249 158,-268 292,-268 292,-249 158,-249"/>
<text text-anchor="middle" x="225" y="-256" font-family="Verdana" font-size="10.00">CElement::childrenToXml</text>
</a>
</g>
</g>
<!-- Node1&#45;&gt;Node6 -->
<g id="edge6" class="edge"><title>Node1&#45;&gt;Node6</title>
<path fill="none" stroke="midnightblue" d="M82.5546,-216.299C99.3567,-223.894 121.058,-233.056 141,-239.5 152.112,-243.091 164.27,-246.275 175.771,-248.961"/>
<polygon fill="midnightblue" stroke="midnightblue" points="83.8268,-213.032 73.2784,-212.041 80.9065,-219.394 83.8268,-213.032"/>
</g>
<!-- Node8 -->
<g id="node8" class="node"><title>Node8</title>
<g id="a_node8"><a xlink:href="classCElement.html#a3ff0037c4b4a11d37cf53d7a818e4f81" target="_top" xlink:title="CElement::findAscendantOfKind">
<polygon fill="white" stroke="black" points="141,-193 141,-212 309,-212 309,-193 141,-193"/>
<text text-anchor="middle" x="225" y="-200" font-family="Verdana" font-size="10.00">CElement::findAscendantOfKind</text>
</a>
</g>
</g>
<!-- Node1&#45;&gt;Node8 -->
<g id="edge9" class="edge"><title>Node1&#45;&gt;Node8</title>
<path fill="none" stroke="midnightblue" d="M115.378,-202.5C123.632,-202.5 132.203,-202.5 140.747,-202.5"/>
<polygon fill="midnightblue" stroke="midnightblue" points="115.118,-199 105.118,-202.5 115.118,-206 115.118,-199"/>
</g>
<!-- Node9 -->
<g id="node9" class="node"><title>Node9</title>
<g id="a_node9"><a xlink:href="classCElement.html#acee1af3e8516a211731a59b85727c6b9" target="_top" xlink:title="CElement::findChildOfKind">
<polygon fill="white" stroke="black" points="155,-155 155,-174 295,-174 295,-155 155,-155"/>
<text text-anchor="middle" x="225" y="-162" font-family="Verdana" font-size="10.00">CElement::findChildOfKind</text>
</a>
</g>
</g>
<!-- Node1&#45;&gt;Node9 -->
<g id="edge11" class="edge"><title>Node1&#45;&gt;Node9</title>
<path fill="none" stroke="midnightblue" d="M106.554,-190.676C130.591,-185.318 158.632,-179.069 181.285,-174.02"/>
<polygon fill="midnightblue" stroke="midnightblue" points="105.523,-187.319 96.5243,-192.911 107.046,-194.152 105.523,-187.319"/>
</g>
<!-- Node13 -->
<g id="node13" class="node"><title>Node13</title>
<g id="a_node13"><a xlink:href="classCElement.html#a893e7d2d24391fd0279245c7bda1e468" target="_top" xlink:title="CElement::getQualifiedPath">
<polygon fill="white" stroke="black" points="151.5,-117 151.5,-136 298.5,-136 298.5,-117 151.5,-117"/>
<text text-anchor="middle" x="225" y="-124" font-family="Verdana" font-size="10.00">CElement::getQualifiedPath</text>
</a>
</g>
</g>
<!-- Node1&#45;&gt;Node13 -->
<g id="edge16" class="edge"><title>Node1&#45;&gt;Node13</title>
<path fill="none" stroke="midnightblue" d="M73.2476,-186.706C90.2698,-173.835 115.986,-156.112 141,-145.5 149.982,-141.69 159.849,-138.581 169.548,-136.066"/>
<polygon fill="midnightblue" stroke="midnightblue" points="70.963,-184.048 65.1883,-192.931 75.242,-189.588 70.963,-184.048"/>
</g>
<!-- Node15 -->
<g id="node15" class="node"><title>Node15</title>
<g id="a_node15"><a xlink:href="classCElement.html#af07c1b866509eb33bd8019d6ff8fef21" target="_top" xlink:title="CElement::computeStructure\lChecksum">
<polygon fill="white" stroke="black" points="146.5,-49.5 146.5,-79.5 303.5,-79.5 303.5,-49.5 146.5,-49.5"/>
<text text-anchor="start" x="154.5" y="-67.5" font-family="Verdana" font-size="10.00">CElement::computeStructure</text>
<text text-anchor="middle" x="225" y="-56.5" font-family="Verdana" font-size="10.00">Checksum</text>
</a>
</g>
</g>
<!-- Node1&#45;&gt;Node15 -->
<g id="edge19" class="edge"><title>Node1&#45;&gt;Node15</title>
<path fill="none" stroke="midnightblue" d="M66.7626,-184.691C82.6938,-164.181 111.041,-130.381 141,-107.5 155.445,-96.4677 173.137,-86.8582 188.471,-79.5382"/>
<polygon fill="midnightblue" stroke="midnightblue" points="63.8248,-182.771 60.5407,-192.844 69.3896,-187.017 63.8248,-182.771"/>
</g>
<!-- Node16 -->
<g id="node16" class="node"><title>Node16</title>
<g id="a_node16"><a xlink:href="classCInstanceConfigurableElement.html#aa5e8dc0766c8bb045e61c577e114af10" target="_top" xlink:title="CInstanceConfigurableElement\l::getKind">
<polygon fill="white" stroke="black" points="143,-0.5 143,-30.5 307,-30.5 307,-0.5 143,-0.5"/>
<text text-anchor="start" x="151" y="-18.5" font-family="Verdana" font-size="10.00">CInstanceConfigurableElement</text>
<text text-anchor="middle" x="225" y="-7.5" font-family="Verdana" font-size="10.00">::getKind</text>
</a>
</g>
</g>
<!-- Node1&#45;&gt;Node16 -->
<g id="edge21" class="edge"><title>Node1&#45;&gt;Node16</title>
<path fill="none" stroke="midnightblue" d="M58.6433,-183.13C68.667,-149.149 94.0562,-78.7782 141,-40.5 145.782,-36.6008 151.161,-33.3093 156.824,-30.5308"/>
<polygon fill="midnightblue" stroke="midnightblue" points="55.2627,-182.223 55.921,-192.797 62.0007,-184.12 55.2627,-182.223"/>
</g>
<!-- Node2&#45;&gt;Node2 -->
<g id="edge3" class="edge"><title>Node2&#45;&gt;Node2</title>
<path fill="none" stroke="midnightblue" d="M194.438,-403.958C198.231,-408.679 208.418,-412 225,-412 252.211,-412 262.202,-403.057 254.975,-393.659"/>
<polygon fill="midnightblue" stroke="midnightblue" points="197.95,-403.842 195.025,-393.659 190.961,-403.443 197.95,-403.842"/>
</g>
<!-- Node3 -->
<g id="node3" class="node"><title>Node3</title>
<g id="a_node3"><a xlink:href="classCAreaConfiguration.html#a6b8c95a79343ee9823b026d74184e798" target="_top" xlink:title="CAreaConfiguration\l::serializeXmlSettings">
<polygon fill="white" stroke="black" points="360.5,-363.5 360.5,-393.5 479.5,-393.5 479.5,-363.5 360.5,-363.5"/>
<text text-anchor="start" x="368.5" y="-381.5" font-family="Verdana" font-size="10.00">CAreaConfiguration</text>
<text text-anchor="middle" x="420" y="-370.5" font-family="Verdana" font-size="10.00">::serializeXmlSettings</text>
</a>
</g>
</g>
<!-- Node2&#45;&gt;Node3 -->
<g id="edge2" class="edge"><title>Node2&#45;&gt;Node3</title>
<path fill="none" stroke="midnightblue" d="M296.649,-378.5C317.574,-378.5 340.25,-378.5 360.329,-378.5"/>
<polygon fill="midnightblue" stroke="midnightblue" points="296.537,-375 286.537,-378.5 296.537,-382 296.537,-375"/>
</g>
<!-- Node7 -->
<g id="node7" class="node"><title>Node7</title>
<g id="a_node7"><a xlink:href="classCElement.html#a7ce1bde0fda5cf412b652000cab473e4" target="_top" xlink:title="CElement::toXml">
<polygon fill="white" stroke="black" points="371.5,-249 371.5,-268 468.5,-268 468.5,-249 371.5,-249"/>
<text text-anchor="middle" x="420" y="-256" font-family="Verdana" font-size="10.00">CElement::toXml</text>
</a>
</g>
</g>
<!-- Node6&#45;&gt;Node7 -->
<g id="edge7" class="edge"><title>Node6&#45;&gt;Node7</title>
<path fill="none" stroke="midnightblue" d="M302.337,-251.883C325.568,-251.573 350.431,-251.806 371.21,-252.581"/>
<polygon fill="midnightblue" stroke="midnightblue" points="302.089,-248.386 292.15,-252.056 302.208,-255.385 302.089,-248.386"/>
</g>
<!-- Node7&#45;&gt;Node6 -->
<g id="edge8" class="edge"><title>Node7&#45;&gt;Node6</title>
<path fill="none" stroke="midnightblue" d="M361.146,-264.744C339.423,-265.344 314.57,-265.41 292.15,-264.944"/>
<polygon fill="midnightblue" stroke="midnightblue" points="361.328,-268.24 371.21,-264.419 361.102,-261.244 361.328,-268.24"/>
</g>
<!-- Node8&#45;&gt;Node8 -->
<g id="edge10" class="edge"><title>Node8&#45;&gt;Node8</title>
<path fill="none" stroke="midnightblue" d="M192.814,-220.775C193.732,-226.241 204.461,-230.5 225,-230.5 255.57,-230.5 264.407,-221.065 251.51,-212.257"/>
<polygon fill="midnightblue" stroke="midnightblue" points="195.857,-222.52 198.49,-212.257 190.032,-218.638 195.857,-222.52"/>
</g>
<!-- Node10 -->
<g id="node10" class="node"><title>Node10</title>
<g id="a_node10"><a xlink:href="classCElement.html#a1978d50e2db432e7b8f0928f33d3f01a" target="_top" xlink:title="CElement::fromXml">
<polygon fill="white" stroke="black" points="365,-164 365,-183 475,-183 475,-164 365,-164"/>
<text text-anchor="middle" x="420" y="-171" font-family="Verdana" font-size="10.00">CElement::fromXml</text>
</a>
</g>
</g>
<!-- Node9&#45;&gt;Node10 -->
<g id="edge12" class="edge"><title>Node9&#45;&gt;Node10</title>
<path fill="none" stroke="midnightblue" d="M305.198,-168.193C325.267,-169.129 346.367,-170.113 364.874,-170.976"/>
<polygon fill="midnightblue" stroke="midnightblue" points="305.285,-164.693 295.132,-167.724 304.958,-171.686 305.285,-164.693"/>
</g>
<!-- Node10&#45;&gt;Node10 -->
<g id="edge15" class="edge"><title>Node10&#45;&gt;Node10</title>
<path fill="none" stroke="midnightblue" d="M388.563,-191.775C389.459,-197.241 399.938,-201.5 420,-201.5 449.859,-201.5 458.491,-192.065 445.894,-183.257"/>
<polygon fill="midnightblue" stroke="midnightblue" points="391.585,-193.548 394.106,-183.257 385.718,-189.729 391.585,-193.548"/>
</g>
<!-- Node11 -->
<g id="node11" class="node"><title>Node11</title>
<g id="a_node11"><a xlink:href="classCComponentLibrary.html#ad4cc928cda43371fb31f20394e8e04e5" target="_top" xlink:title="CComponentLibrary::\lfromXml">
<polygon fill="white" stroke="black" points="531,-158.5 531,-188.5 648,-188.5 648,-158.5 531,-158.5"/>
<text text-anchor="start" x="539" y="-176.5" font-family="Verdana" font-size="10.00">CComponentLibrary::</text>
<text text-anchor="middle" x="589.5" y="-165.5" font-family="Verdana" font-size="10.00">fromXml</text>
</a>
</g>
</g>
<!-- Node10&#45;&gt;Node11 -->
<g id="edge13" class="edge"><title>Node10&#45;&gt;Node11</title>
<path fill="none" stroke="midnightblue" d="M485.565,-173.5C500.507,-173.5 516.311,-173.5 530.931,-173.5"/>
<polygon fill="midnightblue" stroke="midnightblue" points="485.382,-170 475.382,-173.5 485.382,-177 485.382,-170"/>
</g>
<!-- Node12 -->
<g id="node12" class="node"><title>Node12</title>
<g id="a_node12"><a xlink:href="classCSubsystem.html#aa114a31f4aa4b0f47b3c616b721854d4" target="_top" xlink:title="CSubsystem::fromXml">
<polygon fill="white" stroke="black" points="684,-164 684,-183 808,-183 808,-164 684,-164"/>
<text text-anchor="middle" x="746" y="-171" font-family="Verdana" font-size="10.00">CSubsystem::fromXml</text>
</a>
</g>
</g>
<!-- Node11&#45;&gt;Node12 -->
<g id="edge14" class="edge"><title>Node11&#45;&gt;Node12</title>
<path fill="none" stroke="midnightblue" d="M658.282,-173.5C666.772,-173.5 675.417,-173.5 683.799,-173.5"/>
<polygon fill="midnightblue" stroke="midnightblue" points="658.03,-170 648.03,-173.5 658.03,-177 658.03,-170"/>
</g>
<!-- Node14 -->
<g id="node14" class="node"><title>Node14</title>
<g id="a_node14"><a xlink:href="classCElement.html#a740c0b65f45d681c3d87196d72dd578c" target="_top" xlink:title="CElement::listQualifiedPaths">
<polygon fill="white" stroke="black" points="345,-108 345,-127 495,-127 495,-108 345,-108"/>
<text text-anchor="middle" x="420" y="-115" font-family="Verdana" font-size="10.00">CElement::listQualifiedPaths</text>
</a>
</g>
</g>
<!-- Node13&#45;&gt;Node14 -->
<g id="edge17" class="edge"><title>Node13&#45;&gt;Node14</title>
<path fill="none" stroke="midnightblue" d="M308.679,-122.644C320.673,-122.085 332.957,-121.512 344.77,-120.962"/>
<polygon fill="midnightblue" stroke="midnightblue" points="308.516,-119.148 298.69,-123.11 308.842,-126.141 308.516,-119.148"/>
</g>
<!-- Node14&#45;&gt;Node14 -->
<g id="edge18" class="edge"><title>Node14&#45;&gt;Node14</title>
<path fill="none" stroke="midnightblue" d="M388.563,-135.775C389.459,-141.241 399.938,-145.5 420,-145.5 449.859,-145.5 458.491,-136.065 445.894,-127.257"/>
<polygon fill="midnightblue" stroke="midnightblue" points="391.585,-137.548 394.106,-127.257 385.718,-133.729 391.585,-137.548"/>
</g>
<!-- Node15&#45;&gt;Node15 -->
<g id="edge20" class="edge"><title>Node15&#45;&gt;Node15</title>
<path fill="none" stroke="midnightblue" d="M194.438,-89.9579C198.231,-94.679 208.418,-98 225,-98 252.211,-98 262.202,-89.0566 254.975,-79.659"/>
<polygon fill="midnightblue" stroke="midnightblue" points="197.95,-89.8422 195.025,-79.659 190.961,-89.4433 197.95,-89.8422"/>
</g>
</g>
</svg>
