<?xml version="1.0" encoding="UTF-8" standalone="no"?>
<!DOCTYPE svg PUBLIC "-//W3C//DTD SVG 1.1//EN"
 "http://www.w3.org/Graphics/SVG/1.1/DTD/svg11.dtd">
<!-- Generated by graphviz version 2.38.0 (20140413.2041)
 -->
<!-- Title: CElement::fromXml Pages: 1 -->
<svg width="501pt" height="154pt"
 viewBox="0.00 0.00 501.00 154.00" xmlns="http://www.w3.org/2000/svg" xmlns:xlink="http://www.w3.org/1999/xlink">
<g id="graph0" class="graph" transform="scale(1 1) rotate(0) translate(4 150)">
<title>CElement::fromXml</title>
<polygon fill="white" stroke="none" points="-4,4 -4,-150 497,-150 497,4 -4,4"/>
<!-- Node1 -->
<g id="node1" class="node"><title>Node1</title>
<polygon fill="#bfbfbf" stroke="black" points="0,-81.5 0,-100.5 110,-100.5 110,-81.5 0,-81.5"/>
<text text-anchor="middle" x="55" y="-88.5" font-family="Verdana" font-size="10.00">CElement::fromXml</text>
</g>
<!-- Node1&#45;&gt;Node1 -->
<g id="edge7" class="edge"><title>Node1&#45;&gt;Node1</title>
<path fill="none" stroke="midnightblue" d="M30.3394,-100.757C18.3423,-109.565 26.5625,-119 55,-119 74.1064,-119 84.0865,-114.741 84.9401,-109.275"/>
<polygon fill="midnightblue" stroke="midnightblue" points="87.904,-107.413 79.6606,-100.757 81.9542,-111.101 87.904,-107.413"/>
</g>
<!-- Node2 -->
<g id="node2" class="node"><title>Node2</title>
<g id="a_node2"><a xlink:href="classCElement.html#acee1af3e8516a211731a59b85727c6b9" target="_top" xlink:title="CElement::findChildOfKind">
<polygon fill="white" stroke="black" points="146,-113.5 146,-132.5 286,-132.5 286,-113.5 146,-113.5"/>
<text text-anchor="middle" x="216" y="-120.5" font-family="Verdana" font-size="10.00">CElement::findChildOfKind</text>
</a>
</g>
</g>
<!-- Node1&#45;&gt;Node2 -->
<g id="edge1" class="edge"><title>Node1&#45;&gt;Node2</title>
<path fill="none" stroke="midnightblue" d="M103.275,-100.514C120.263,-103.933 139.614,-107.828 157.383,-111.404"/>
<polygon fill="midnightblue" stroke="midnightblue" points="157.139,-114.925 167.633,-113.467 158.52,-108.063 157.139,-114.925"/>
</g>
<!-- Node4 -->
<g id="node4" class="node"><title>Node4</title>
<g id="a_node4"><a xlink:href="classCElement.html#a0b4cdc10e6df8fd3740255c5faf3b596" target="_top" xlink:title="Creates a child CElement from a child XML Element. ">
<polygon fill="white" stroke="black" points="154.5,-50.5 154.5,-69.5 277.5,-69.5 277.5,-50.5 154.5,-50.5"/>
<text text-anchor="middle" x="216" y="-57.5" font-family="Verdana" font-size="10.00">CElement::createChild</text>
</a>
</g>
</g>
<!-- Node1&#45;&gt;Node4 -->
<g id="edge3" class="edge"><title>Node1&#45;&gt;Node4</title>
<path fill="none" stroke="midnightblue" d="M105.003,-81.446C121.098,-78.308 139.158,-74.7868 155.92,-71.5188"/>
<polygon fill="midnightblue" stroke="midnightblue" points="157.014,-74.8715 166.159,-69.5224 155.674,-68.0008 157.014,-74.8715"/>
</g>
<!-- Node3 -->
<g id="node3" class="node"><title>Node3</title>
<g id="a_node3"><a xlink:href="classCElement.html#aed2ca7f2a56dbf2edcd82167859535ee" target="_top" xlink:title="CElement::getKind">
<polygon fill="white" stroke="black" points="355,-126.5 355,-145.5 460,-145.5 460,-126.5 355,-126.5"/>
<text text-anchor="middle" x="407.5" y="-133.5" font-family="Verdana" font-size="10.00">CElement::getKind</text>
</a>
</g>
</g>
<!-- Node2&#45;&gt;Node3 -->
<g id="edge2" class="edge"><title>Node2&#45;&gt;Node3</title>
<path fill="none" stroke="midnightblue" d="M286.218,-127.748C305.398,-129.064 326.086,-130.483 344.806,-131.768"/>
<polygon fill="midnightblue" stroke="midnightblue" points="344.766,-135.273 354.982,-132.466 345.245,-128.289 344.766,-135.273"/>
</g>
<!-- Node5 -->
<g id="node5" class="node"><title>Node5</title>
<g id="a_node5"><a xlink:href="classCXmlElementSerializingContext.html#a6c36b7e23b9968c6ea898612d2a55ee9" target="_top" xlink:title="CXmlElementSerializingContext\l::getElementLibrary">
<polygon fill="white" stroke="black" points="324,-77 324,-107 491,-107 491,-77 324,-77"/>
<text text-anchor="start" x="332" y="-95" font-family="Verdana" font-size="10.00">CXmlElementSerializingContext</text>
<text text-anchor="middle" x="407.5" y="-84" font-family="Verdana" font-size="10.00">::getElementLibrary</text>
</a>
</g>
</g>
<!-- Node4&#45;&gt;Node5 -->
<g id="edge4" class="edge"><title>Node4&#45;&gt;Node5</title>
<path fill="none" stroke="midnightblue" d="M273.343,-69.5144C286.073,-71.664 299.916,-74.0017 313.704,-76.33"/>
<polygon fill="midnightblue" stroke="midnightblue" points="313.274,-79.8069 323.717,-78.0209 314.44,-72.9046 313.274,-79.8069"/>
</g>
<!-- Node6 -->
<g id="node6" class="node"><title>Node6</title>
<g id="a_node6"><a xlink:href="classCElementLibrary.html#a5ad95964216e50fc59f0c803370fb4de" target="_top" xlink:title="CElementLibrary::createElement">
<polygon fill="white" stroke="black" points="322,-38.5 322,-57.5 493,-57.5 493,-38.5 322,-38.5"/>
<text text-anchor="middle" x="407.5" y="-45.5" font-family="Verdana" font-size="10.00">CElementLibrary::createElement</text>
</a>
</g>
</g>
<!-- Node4&#45;&gt;Node6 -->
<g id="edge5" class="edge"><title>Node4&#45;&gt;Node6</title>
<path fill="none" stroke="midnightblue" d="M277.741,-56.1536C288.626,-55.4643 300.201,-54.7313 311.776,-53.9983"/>
<polygon fill="midnightblue" stroke="midnightblue" points="312.172,-57.4804 321.931,-53.3553 311.729,-50.4944 312.172,-57.4804"/>
</g>
<!-- Node7 -->
<g id="node7" class="node"><title>Node7</title>
<g id="a_node7"><a xlink:href="classCElement.html#ac2ad66ee438a4a0c1390b7388874fe72" target="_top" xlink:title="CElement::addChild">
<polygon fill="white" stroke="black" points="352.5,-0.5 352.5,-19.5 462.5,-19.5 462.5,-0.5 352.5,-0.5"/>
<text text-anchor="middle" x="407.5" y="-7.5" font-family="Verdana" font-size="10.00">CElement::addChild</text>
</a>
</g>
</g>
<!-- Node4&#45;&gt;Node7 -->
<g id="edge6" class="edge"><title>Node4&#45;&gt;Node7</title>
<path fill="none" stroke="midnightblue" d="M247.634,-50.3757C268.498,-43.9643 296.797,-35.5464 322,-29 331.605,-26.5051 341.874,-24.0337 351.826,-21.7396"/>
<polygon fill="midnightblue" stroke="midnightblue" points="352.661,-25.1393 361.637,-19.5103 351.11,-18.3134 352.661,-25.1393"/>
</g>
</g>
</svg>
