<?xml version="1.0" encoding="UTF-8" standalone="no"?>
<!DOCTYPE svg PUBLIC "-//W3C//DTD SVG 1.1//EN"
 "http://www.w3.org/Graphics/SVG/1.1/DTD/svg11.dtd">
<!-- Generated by graphviz version 2.38.0 (20140413.2041)
 -->
<!-- Title: CComponentLibrary::fromXml Pages: 1 -->
<svg width="654pt" height="154pt"
 viewBox="0.00 0.00 654.00 153.50" xmlns="http://www.w3.org/2000/svg" xmlns:xlink="http://www.w3.org/1999/xlink">
<g id="graph0" class="graph" transform="scale(1 1) rotate(0) translate(4 149.5)">
<title>CComponentLibrary::fromXml</title>
<polygon fill="white" stroke="none" points="-4,4 -4,-149.5 650,-149.5 650,4 -4,4"/>
<!-- Node1 -->
<g id="node1" class="node"><title>Node1</title>
<polygon fill="#bfbfbf" stroke="black" points="0,-38 0,-68 117,-68 117,-38 0,-38"/>
<text text-anchor="start" x="8" y="-56" font-family="Verdana" font-size="10.00">CComponentLibrary::</text>
<text text-anchor="middle" x="58.5" y="-45" font-family="Verdana" font-size="10.00">fromXml</text>
</g>
<!-- Node2 -->
<g id="node2" class="node"><title>Node2</title>
<g id="a_node2"><a xlink:href="classCElement.html#a0b4cdc10e6df8fd3740255c5faf3b596" target="_top" xlink:title="Creates a child CElement from a child XML Element. ">
<polygon fill="white" stroke="black" points="307.5,-71.5 307.5,-90.5 430.5,-90.5 430.5,-71.5 307.5,-71.5"/>
<text text-anchor="middle" x="369" y="-78.5" font-family="Verdana" font-size="10.00">CElement::createChild</text>
</a>
</g>
</g>
<!-- Node1&#45;&gt;Node2 -->
<g id="edge1" class="edge"><title>Node1&#45;&gt;Node2</title>
<path fill="none" stroke="midnightblue" d="M117.35,-58.6397C129.144,-59.7695 141.471,-60.9357 153,-62 201.087,-66.4391 255.245,-71.2238 297.175,-74.8813"/>
<polygon fill="midnightblue" stroke="midnightblue" points="297.022,-78.381 307.288,-75.7622 297.629,-71.4074 297.022,-78.381"/>
</g>
<!-- Node6 -->
<g id="node6" class="node"><title>Node6</title>
<g id="a_node6"><a xlink:href="classCElement.html#a1978d50e2db432e7b8f0928f33d3f01a" target="_top" xlink:title="CElement::fromXml">
<polygon fill="white" stroke="black" points="153,-15.5 153,-34.5 263,-34.5 263,-15.5 153,-15.5"/>
<text text-anchor="middle" x="208" y="-22.5" font-family="Verdana" font-size="10.00">CElement::fromXml</text>
</a>
</g>
</g>
<!-- Node1&#45;&gt;Node6 -->
<g id="edge5" class="edge"><title>Node1&#45;&gt;Node6</title>
<path fill="none" stroke="midnightblue" d="M117.373,-42.014C127.077,-40.1719 137.166,-38.2567 146.924,-36.4043"/>
<polygon fill="midnightblue" stroke="midnightblue" points="147.771,-39.8061 156.943,-34.5024 146.465,-32.9289 147.771,-39.8061"/>
</g>
<!-- Node3 -->
<g id="node3" class="node"><title>Node3</title>
<g id="a_node3"><a xlink:href="classCXmlElementSerializingContext.html#a6c36b7e23b9968c6ea898612d2a55ee9" target="_top" xlink:title="CXmlElementSerializingContext\l::getElementLibrary">
<polygon fill="white" stroke="black" points="477,-115 477,-145 644,-145 644,-115 477,-115"/>
<text text-anchor="start" x="485" y="-133" font-family="Verdana" font-size="10.00">CXmlElementSerializingContext</text>
<text text-anchor="middle" x="560.5" y="-122" font-family="Verdana" font-size="10.00">::getElementLibrary</text>
</a>
</g>
</g>
<!-- Node2&#45;&gt;Node3 -->
<g id="edge2" class="edge"><title>Node2&#45;&gt;Node3</title>
<path fill="none" stroke="midnightblue" d="M406.987,-90.564C430.979,-96.7676 462.96,-105.037 491.438,-112.401"/>
<polygon fill="midnightblue" stroke="midnightblue" points="490.789,-115.848 501.347,-114.963 492.541,-109.071 490.789,-115.848"/>
</g>
<!-- Node4 -->
<g id="node4" class="node"><title>Node4</title>
<g id="a_node4"><a xlink:href="classCElementLibrary.html#a5ad95964216e50fc59f0c803370fb4de" target="_top" xlink:title="CElementLibrary::createElement">
<polygon fill="white" stroke="black" points="475,-76.5 475,-95.5 646,-95.5 646,-76.5 475,-76.5"/>
<text text-anchor="middle" x="560.5" y="-83.5" font-family="Verdana" font-size="10.00">CElementLibrary::createElement</text>
</a>
</g>
</g>
<!-- Node2&#45;&gt;Node4 -->
<g id="edge3" class="edge"><title>Node2&#45;&gt;Node4</title>
<path fill="none" stroke="midnightblue" d="M430.741,-82.6027C441.626,-82.8899 453.201,-83.1953 464.776,-83.5007"/>
<polygon fill="midnightblue" stroke="midnightblue" points="464.842,-87.0035 474.931,-83.7686 465.026,-80.006 464.842,-87.0035"/>
</g>
<!-- Node5 -->
<g id="node5" class="node"><title>Node5</title>
<g id="a_node5"><a xlink:href="classCElement.html#ac2ad66ee438a4a0c1390b7388874fe72" target="_top" xlink:title="CElement::addChild">
<polygon fill="white" stroke="black" points="505.5,-38.5 505.5,-57.5 615.5,-57.5 615.5,-38.5 505.5,-38.5"/>
<text text-anchor="middle" x="560.5" y="-45.5" font-family="Verdana" font-size="10.00">CElement::addChild</text>
</a>
</g>
</g>
<!-- Node2&#45;&gt;Node5 -->
<g id="edge4" class="edge"><title>Node2&#45;&gt;Node5</title>
<path fill="none" stroke="midnightblue" d="M424.557,-71.4993C446.654,-67.6513 472.331,-63.1798 495.319,-59.1766"/>
<polygon fill="midnightblue" stroke="midnightblue" points="496.076,-62.5975 505.328,-57.4337 494.875,-55.7013 496.076,-62.5975"/>
</g>
<!-- Node6&#45;&gt;Node2 -->
<g id="edge8" class="edge"><title>Node6&#45;&gt;Node2</title>
<path fill="none" stroke="midnightblue" d="M236.333,-34.6267C262.543,-43.8581 302.298,-57.8598 331.267,-68.0625"/>
<polygon fill="midnightblue" stroke="midnightblue" points="330.429,-71.4781 341.024,-71.4989 332.754,-64.8756 330.429,-71.4781"/>
</g>
<!-- Node6&#45;&gt;Node6 -->
<g id="edge9" class="edge"><title>Node6&#45;&gt;Node6</title>
<path fill="none" stroke="midnightblue" d="M185.189,-34.7571C174.092,-43.5653 181.695,-53 208,-53 225.262,-53 234.471,-48.9368 235.626,-43.6539"/>
<polygon fill="midnightblue" stroke="midnightblue" points="238.649,-41.886 230.811,-34.7571 232.492,-45.2176 238.649,-41.886"/>
</g>
<!-- Node7 -->
<g id="node7" class="node"><title>Node7</title>
<g id="a_node7"><a xlink:href="classCElement.html#acee1af3e8516a211731a59b85727c6b9" target="_top" xlink:title="CElement::findChildOfKind">
<polygon fill="white" stroke="black" points="299,-10.5 299,-29.5 439,-29.5 439,-10.5 299,-10.5"/>
<text text-anchor="middle" x="369" y="-17.5" font-family="Verdana" font-size="10.00">CElement::findChildOfKind</text>
</a>
</g>
</g>
<!-- Node6&#45;&gt;Node7 -->
<g id="edge6" class="edge"><title>Node6&#45;&gt;Node7</title>
<path fill="none" stroke="midnightblue" d="M263.274,-23.2933C271.486,-23.035 280.099,-22.7642 288.708,-22.4935"/>
<polygon fill="midnightblue" stroke="midnightblue" points="288.904,-25.9891 298.789,-22.1765 288.684,-18.9926 288.904,-25.9891"/>
</g>
<!-- Node8 -->
<g id="node8" class="node"><title>Node8</title>
<g id="a_node8"><a xlink:href="classCElement.html#aed2ca7f2a56dbf2edcd82167859535ee" target="_top" xlink:title="CElement::getKind">
<polygon fill="white" stroke="black" points="508,-0.5 508,-19.5 613,-19.5 613,-0.5 508,-0.5"/>
<text text-anchor="middle" x="560.5" y="-7.5" font-family="Verdana" font-size="10.00">CElement::getKind</text>
</a>
</g>
</g>
<!-- Node7&#45;&gt;Node8 -->
<g id="edge7" class="edge"><title>Node7&#45;&gt;Node8</title>
<path fill="none" stroke="midnightblue" d="M439.218,-16.3473C458.398,-15.3352 479.086,-14.2435 497.806,-13.2556"/>
<polygon fill="midnightblue" stroke="midnightblue" points="498.18,-16.7408 507.982,-12.7186 497.811,-9.75057 498.18,-16.7408"/>
</g>
</g>
</svg>
