<?xml version="1.0" encoding="UTF-8" standalone="no"?>
<!DOCTYPE svg PUBLIC "-//W3C//DTD SVG 1.1//EN"
 "http://www.w3.org/Graphics/SVG/1.1/DTD/svg11.dtd">
<!-- Generated by graphviz version 2.38.0 (20140413.2041)
 -->
<!-- Title: CParameterMgr::load Pages: 1 -->
<svg width="1179pt" height="288pt"
 viewBox="0.00 0.00 1179.00 288.00" xmlns="http://www.w3.org/2000/svg" xmlns:xlink="http://www.w3.org/1999/xlink">
<g id="graph0" class="graph" transform="scale(1 1) rotate(0) translate(4 284)">
<title>CParameterMgr::load</title>
<polygon fill="white" stroke="none" points="-4,4 -4,-284 1175,-284 1175,4 -4,4"/>
<!-- Node1 -->
<g id="node1" class="node"><title>Node1</title>
<polygon fill="#bfbfbf" stroke="black" points="0,-165 0,-184 118,-184 118,-165 0,-165"/>
<text text-anchor="middle" x="59" y="-172" font-family="Verdana" font-size="10.00">CParameterMgr::load</text>
</g>
<!-- Node2 -->
<g id="node2" class="node"><title>Node2</title>
<g id="a_node2"><a xlink:href="classCBackSynchronizer.html#aee2e5654fab65e762bb294bc1d3cbc05" target="_top" xlink:title="CBackSynchronizer::sync">
<polygon fill="white" stroke="black" points="154,-253 154,-272 291,-272 291,-253 154,-253"/>
<text text-anchor="middle" x="222.5" y="-260" font-family="Verdana" font-size="10.00">CBackSynchronizer::sync</text>
</a>
</g>
</g>
<!-- Node1&#45;&gt;Node2 -->
<g id="edge1" class="edge"><title>Node1&#45;&gt;Node2</title>
<path fill="none" stroke="midnightblue" d="M70.7768,-184.205C87.4726,-198.776 121.106,-226.319 154,-242.5 159.41,-245.161 165.241,-247.539 171.131,-249.645"/>
<polygon fill="midnightblue" stroke="midnightblue" points="170.439,-253.103 181.033,-252.933 172.645,-246.46 170.439,-253.103"/>
</g>
<!-- Node3 -->
<g id="node3" class="node"><title>Node3</title>
<g id="a_node3"><a xlink:href="classCConfigurableDomains.html#a6fd812eea1fd18c0d4fa14ec33b57fd5" target="_top" xlink:title="CConfigurableDomains\l::validate">
<polygon fill="white" stroke="black" points="159.5,-203.5 159.5,-233.5 285.5,-233.5 285.5,-203.5 159.5,-203.5"/>
<text text-anchor="start" x="167.5" y="-221.5" font-family="Verdana" font-size="10.00">CConfigurableDomains</text>
<text text-anchor="middle" x="222.5" y="-210.5" font-family="Verdana" font-size="10.00">::validate</text>
</a>
</g>
</g>
<!-- Node1&#45;&gt;Node3 -->
<g id="edge2" class="edge"><title>Node1&#45;&gt;Node3</title>
<path fill="none" stroke="midnightblue" d="M95.0431,-184.047C112.983,-188.935 135.41,-195.045 156.376,-200.757"/>
<polygon fill="midnightblue" stroke="midnightblue" points="155.635,-204.183 166.203,-203.435 157.475,-197.429 155.635,-204.183"/>
</g>
<!-- Node11 -->
<g id="node11" class="node"><title>Node11</title>
<g id="a_node11"><a xlink:href="classCSelectionCriteria.html#a25ca6671e46d02c906f512f6b33a44e4" target="_top" xlink:title="CSelectionCriteria\l::listSelectionCriteria">
<polygon fill="white" stroke="black" points="165,-93.5 165,-123.5 280,-123.5 280,-93.5 165,-93.5"/>
<text text-anchor="start" x="173" y="-111.5" font-family="Verdana" font-size="10.00">CSelectionCriteria</text>
<text text-anchor="middle" x="222.5" y="-100.5" font-family="Verdana" font-size="10.00">::listSelectionCriteria</text>
</a>
</g>
</g>
<!-- Node1&#45;&gt;Node11 -->
<g id="edge12" class="edge"><title>Node1&#45;&gt;Node11</title>
<path fill="none" stroke="midnightblue" d="M83.4835,-164.903C107.402,-155.128 145.133,-139.709 175.103,-127.461"/>
<polygon fill="midnightblue" stroke="midnightblue" points="176.601,-130.63 184.533,-123.607 173.952,-124.15 176.601,-130.63"/>
</g>
<!-- Node21 -->
<g id="node21" class="node"><title>Node21</title>
<g id="a_node21"><a xlink:href="classCElement.html#a6fadaf69d17a61c431422ed6d8a1f8f0" target="_top" xlink:title="CElement::log_table">
<polygon fill="white" stroke="black" points="166,-55 166,-74 279,-74 279,-55 166,-55"/>
<text text-anchor="middle" x="222.5" y="-62" font-family="Verdana" font-size="10.00">CElement::log_table</text>
</a>
</g>
</g>
<!-- Node1&#45;&gt;Node21 -->
<g id="edge25" class="edge"><title>Node1&#45;&gt;Node21</title>
<path fill="none" stroke="midnightblue" d="M67.148,-164.937C81.5139,-146.398 115.799,-105.463 154,-83.5 157.844,-81.29 161.961,-79.3242 166.194,-77.5779"/>
<polygon fill="midnightblue" stroke="midnightblue" points="167.429,-80.853 175.589,-74.096 164.996,-74.2893 167.429,-80.853"/>
</g>
<!-- Node22 -->
<g id="node22" class="node"><title>Node22</title>
<g id="a_node22"><a xlink:href="classCSystemClass.html#ae6f4699f2c40ce3a72bde018aa4453ad" target="_top" xlink:title="Reset subsystems need to resync flag. ">
<polygon fill="white" stroke="black" points="327,-170.5 327,-200.5 503,-200.5 503,-170.5 327,-170.5"/>
<text text-anchor="start" x="335" y="-188.5" font-family="Verdana" font-size="10.00">CSystemClass::cleanSubsystems</text>
<text text-anchor="middle" x="415" y="-177.5" font-family="Verdana" font-size="10.00">NeedToResync</text>
</a>
</g>
</g>
<!-- Node1&#45;&gt;Node22 -->
<g id="edge26" class="edge"><title>Node1&#45;&gt;Node22</title>
<path fill="none" stroke="midnightblue" d="M118.059,-176.304C171.868,-177.976 252.972,-180.496 316.676,-182.476"/>
<polygon fill="midnightblue" stroke="midnightblue" points="316.64,-185.976 326.744,-182.789 316.857,-178.98 316.64,-185.976"/>
</g>
<!-- Node4 -->
<g id="node4" class="node"><title>Node4</title>
<g id="a_node4"><a xlink:href="classCElement.html#a25f58d9d8b35e770806d669fb2a378e4" target="_top" xlink:title="CElement::getNbChildren">
<polygon fill="white" stroke="black" points="542,-211 542,-230 679,-230 679,-211 542,-211"/>
<text text-anchor="middle" x="610.5" y="-218" font-family="Verdana" font-size="10.00">CElement::getNbChildren</text>
</a>
</g>
</g>
<!-- Node3&#45;&gt;Node4 -->
<g id="edge3" class="edge"><title>Node3&#45;&gt;Node4</title>
<path fill="none" stroke="midnightblue" d="M265.428,-233.558C273.93,-236.744 282.782,-240.156 291,-243.5 307.218,-250.099 309.872,-255.865 327,-259.5 403.518,-275.738 427.072,-278.307 503,-259.5 520.561,-255.15 522.206,-247.228 539,-240.5 545.82,-237.768 553.151,-235.25 560.415,-232.99"/>
<polygon fill="midnightblue" stroke="midnightblue" points="561.639,-236.278 570.225,-230.071 559.642,-229.569 561.639,-236.278"/>
</g>
<!-- Node5 -->
<g id="node5" class="node"><title>Node5</title>
<g id="a_node5"><a xlink:href="classCElement.html#a41bf126c3fdbb5bec0c2c3dcf35e9079" target="_top" xlink:title="CElement::getChild">
<polygon fill="white" stroke="black" points="556.5,-132 556.5,-151 664.5,-151 664.5,-132 556.5,-132"/>
<text text-anchor="middle" x="610.5" y="-139" font-family="Verdana" font-size="10.00">CElement::getChild</text>
</a>
</g>
</g>
<!-- Node3&#45;&gt;Node5 -->
<g id="edge4" class="edge"><title>Node3&#45;&gt;Node5</title>
<path fill="none" stroke="midnightblue" d="M244.057,-203.321C264.097,-189.442 296.002,-169.715 327,-160.5 400.008,-138.796 488.129,-136.404 546.323,-137.898"/>
<polygon fill="midnightblue" stroke="midnightblue" points="546.37,-141.401 556.472,-138.206 546.583,-134.405 546.37,-141.401"/>
</g>
<!-- Node6 -->
<g id="node6" class="node"><title>Node6</title>
<g id="a_node6"><a xlink:href="classCConfigurableDomain.html#a2df6f85b21fa2ccbecc4a1c6d01ae2ed" target="_top" xlink:title="CConfigurableDomain\l::validate">
<polygon fill="white" stroke="black" points="354.5,-219.5 354.5,-249.5 475.5,-249.5 475.5,-219.5 354.5,-219.5"/>
<text text-anchor="start" x="362.5" y="-237.5" font-family="Verdana" font-size="10.00">CConfigurableDomain</text>
<text text-anchor="middle" x="415" y="-226.5" font-family="Verdana" font-size="10.00">::validate</text>
</a>
</g>
</g>
<!-- Node3&#45;&gt;Node6 -->
<g id="edge5" class="edge"><title>Node3&#45;&gt;Node6</title>
<path fill="none" stroke="midnightblue" d="M285.613,-223.717C304.297,-225.286 324.923,-227.018 344.076,-228.627"/>
<polygon fill="midnightblue" stroke="midnightblue" points="343.983,-232.132 354.241,-229.481 344.569,-225.156 343.983,-232.132"/>
</g>
<!-- Node6&#45;&gt;Node4 -->
<g id="edge6" class="edge"><title>Node6&#45;&gt;Node4</title>
<path fill="none" stroke="midnightblue" d="M475.635,-230.185C493.425,-228.898 513.189,-227.468 531.949,-226.111"/>
<polygon fill="midnightblue" stroke="midnightblue" points="532.228,-229.6 541.949,-225.387 531.723,-222.618 532.228,-229.6"/>
</g>
<!-- Node6&#45;&gt;Node5 -->
<g id="edge7" class="edge"><title>Node6&#45;&gt;Node5</title>
<path fill="none" stroke="midnightblue" d="M475.79,-222.735C485.354,-219.36 494.791,-215.035 503,-209.5 524.525,-194.986 517.641,-178.257 539,-163.5 543.866,-160.138 549.266,-157.274 554.852,-154.836"/>
<polygon fill="midnightblue" stroke="midnightblue" points="556.32,-158.021 564.364,-151.125 553.776,-151.499 556.32,-158.021"/>
</g>
<!-- Node7 -->
<g id="node7" class="node"><title>Node7</title>
<g id="a_node7"><a xlink:href="classCDomainConfiguration.html#a10c3a1e0899400ecd23a90fb7dc4e4e6" target="_top" xlink:title="CDomainConfiguration\l::validate">
<polygon fill="white" stroke="black" points="548,-249.5 548,-279.5 673,-279.5 673,-249.5 548,-249.5"/>
<text text-anchor="start" x="556" y="-267.5" font-family="Verdana" font-size="10.00">CDomainConfiguration</text>
<text text-anchor="middle" x="610.5" y="-256.5" font-family="Verdana" font-size="10.00">::validate</text>
</a>
</g>
</g>
<!-- Node6&#45;&gt;Node7 -->
<g id="edge8" class="edge"><title>Node6&#45;&gt;Node7</title>
<path fill="none" stroke="midnightblue" d="M475.635,-243.746C495.294,-246.794 517.362,-250.215 537.823,-253.387"/>
<polygon fill="midnightblue" stroke="midnightblue" points="537.302,-256.848 547.72,-254.922 538.375,-249.931 537.302,-256.848"/>
</g>
<!-- Node8 -->
<g id="node8" class="node"><title>Node8</title>
<g id="a_node8"><a xlink:href="classCAreaConfiguration.html#a9c0ddade93f42f2ed315dd3a0719933c" target="_top" xlink:title="CAreaConfiguration\l::validate">
<polygon fill="white" stroke="black" points="727.5,-249.5 727.5,-279.5 837.5,-279.5 837.5,-249.5 727.5,-249.5"/>
<text text-anchor="start" x="735.5" y="-267.5" font-family="Verdana" font-size="10.00">CAreaConfiguration</text>
<text text-anchor="middle" x="782.5" y="-256.5" font-family="Verdana" font-size="10.00">::validate</text>
</a>
</g>
</g>
<!-- Node7&#45;&gt;Node8 -->
<g id="edge9" class="edge"><title>Node7&#45;&gt;Node8</title>
<path fill="none" stroke="midnightblue" d="M673.355,-264.5C687.564,-264.5 702.707,-264.5 717.024,-264.5"/>
<polygon fill="midnightblue" stroke="midnightblue" points="717.278,-268 727.278,-264.5 717.278,-261 717.278,-268"/>
</g>
<!-- Node9 -->
<g id="node9" class="node"><title>Node9</title>
<g id="a_node9"><a xlink:href="classCAreaConfiguration.html#a0ab61255d58c402f059aceb6668b943d" target="_top" xlink:title="CAreaConfiguration\l::save">
<polygon fill="white" stroke="black" points="892.5,-249.5 892.5,-279.5 1002.5,-279.5 1002.5,-249.5 892.5,-249.5"/>
<text text-anchor="start" x="900.5" y="-267.5" font-family="Verdana" font-size="10.00">CAreaConfiguration</text>
<text text-anchor="middle" x="947.5" y="-256.5" font-family="Verdana" font-size="10.00">::save</text>
</a>
</g>
</g>
<!-- Node8&#45;&gt;Node9 -->
<g id="edge10" class="edge"><title>Node8&#45;&gt;Node9</title>
<path fill="none" stroke="midnightblue" d="M837.777,-264.5C852.073,-264.5 867.633,-264.5 882.394,-264.5"/>
<polygon fill="midnightblue" stroke="midnightblue" points="882.46,-268 892.46,-264.5 882.46,-261 882.46,-268"/>
</g>
<!-- Node10 -->
<g id="node10" class="node"><title>Node10</title>
<g id="a_node10"><a xlink:href="classCConfigurableElement.html#a29d61e6d09ff508ebb87aea802f2704e" target="_top" xlink:title="CConfigurableElement\l::getOffset">
<polygon fill="white" stroke="black" points="1048,-249.5 1048,-279.5 1171,-279.5 1171,-249.5 1048,-249.5"/>
<text text-anchor="start" x="1056" y="-267.5" font-family="Verdana" font-size="10.00">CConfigurableElement</text>
<text text-anchor="middle" x="1109.5" y="-256.5" font-family="Verdana" font-size="10.00">::getOffset</text>
</a>
</g>
</g>
<!-- Node9&#45;&gt;Node10 -->
<g id="edge11" class="edge"><title>Node9&#45;&gt;Node10</title>
<path fill="none" stroke="midnightblue" d="M1002.67,-264.5C1013.89,-264.5 1025.87,-264.5 1037.58,-264.5"/>
<polygon fill="midnightblue" stroke="midnightblue" points="1037.78,-268 1047.78,-264.5 1037.78,-261 1037.78,-268"/>
</g>
<!-- Node12 -->
<g id="node12" class="node"><title>Node12</title>
<g id="a_node12"><a xlink:href="classCSelectionCriteria.html#aa87e3488047e305e72d84d5aa0ed3e08" target="_top" xlink:title="CSelectionCriteria\l::getSelectionCriteriaDefinition">
<polygon fill="white" stroke="black" points="334,-33.5 334,-63.5 496,-63.5 496,-33.5 334,-33.5"/>
<text text-anchor="start" x="342" y="-51.5" font-family="Verdana" font-size="10.00">CSelectionCriteria</text>
<text text-anchor="middle" x="415" y="-40.5" font-family="Verdana" font-size="10.00">::getSelectionCriteriaDefinition</text>
</a>
</g>
</g>
<!-- Node11&#45;&gt;Node12 -->
<g id="edge13" class="edge"><title>Node11&#45;&gt;Node12</title>
<path fill="none" stroke="midnightblue" d="M265.092,-93.3349C283.904,-86.6566 306.475,-78.8931 327,-72.5 333.533,-70.4651 340.369,-68.426 347.214,-66.4434"/>
<polygon fill="midnightblue" stroke="midnightblue" points="348.562,-69.6985 357.216,-63.5862 346.639,-62.9677 348.562,-69.6985"/>
</g>
<!-- Node13 -->
<g id="node13" class="node"><title>Node13</title>
<g id="a_node13"><a xlink:href="classCSelectionCriteriaDefinition.html#a24f1eb22f90ddb42ee971bdfc5f99aa5" target="_top" xlink:title="CSelectionCriteriaDefinition\l::listSelectionCriteria">
<polygon fill="white" stroke="black" points="341.5,-82.5 341.5,-112.5 488.5,-112.5 488.5,-82.5 341.5,-82.5"/>
<text text-anchor="start" x="349.5" y="-100.5" font-family="Verdana" font-size="10.00">CSelectionCriteriaDefinition</text>
<text text-anchor="middle" x="415" y="-89.5" font-family="Verdana" font-size="10.00">::listSelectionCriteria</text>
</a>
</g>
</g>
<!-- Node11&#45;&gt;Node13 -->
<g id="edge15" class="edge"><title>Node11&#45;&gt;Node13</title>
<path fill="none" stroke="midnightblue" d="M280.141,-105.229C296.185,-104.303 313.989,-103.275 331.237,-102.279"/>
<polygon fill="midnightblue" stroke="midnightblue" points="331.529,-105.768 341.31,-101.697 331.125,-98.7797 331.529,-105.768"/>
</g>
<!-- Node12&#45;&gt;Node5 -->
<g id="edge14" class="edge"><title>Node12&#45;&gt;Node5</title>
<path fill="none" stroke="midnightblue" d="M486.71,-63.5269C492.449,-66.0666 497.968,-69.0337 503,-72.5 525.255,-87.8292 516.801,-106.09 539,-121.5 542.527,-123.949 546.35,-126.099 550.329,-127.988"/>
<polygon fill="midnightblue" stroke="midnightblue" points="549.253,-131.331 559.83,-131.936 551.939,-124.866 549.253,-131.331"/>
</g>
<!-- Node13&#45;&gt;Node4 -->
<g id="edge16" class="edge"><title>Node13&#45;&gt;Node4</title>
<path fill="none" stroke="midnightblue" d="M439.983,-112.744C458.097,-124.749 483.142,-142.423 503,-160.5 520.932,-176.824 518.412,-188.686 539,-201.5 542.414,-203.625 546.063,-205.515 549.839,-207.195"/>
<polygon fill="midnightblue" stroke="midnightblue" points="548.831,-210.56 559.418,-210.956 551.389,-204.044 548.831,-210.56"/>
</g>
<!-- Node13&#45;&gt;Node5 -->
<g id="edge17" class="edge"><title>Node13&#45;&gt;Node5</title>
<path fill="none" stroke="midnightblue" d="M482.051,-112.519C506.751,-118.136 534.431,-124.43 557.667,-129.714"/>
<polygon fill="midnightblue" stroke="midnightblue" points="557.14,-133.183 567.667,-131.988 558.692,-126.357 557.14,-133.183"/>
</g>
<!-- Node14 -->
<g id="node14" class="node"><title>Node14</title>
<g id="a_node14"><a xlink:href="classCSelectionCriterion.html#a10a460a1ee7b1a38b34ab8eb90ea74f9" target="_top" xlink:title="User request. ">
<polygon fill="white" stroke="black" points="539,-82.5 539,-112.5 682,-112.5 682,-82.5 539,-82.5"/>
<text text-anchor="start" x="547" y="-100.5" font-family="Verdana" font-size="10.00">CSelectionCriterion</text>
<text text-anchor="middle" x="610.5" y="-89.5" font-family="Verdana" font-size="10.00">::getFormattedDescription</text>
</a>
</g>
</g>
<!-- Node13&#45;&gt;Node14 -->
<g id="edge18" class="edge"><title>Node13&#45;&gt;Node14</title>
<path fill="none" stroke="midnightblue" d="M488.603,-97.5C501.678,-97.5 515.381,-97.5 528.672,-97.5"/>
<polygon fill="midnightblue" stroke="midnightblue" points="528.738,-101 538.738,-97.5 528.738,-94.0001 528.738,-101"/>
</g>
<!-- Node15 -->
<g id="node15" class="node"><title>Node15</title>
<g id="a_node15"><a xlink:href="classCElement.html#a834a32898950ca2ce9b629aa3367101e" target="_top" xlink:title="CElement::appendTitle">
<polygon fill="white" stroke="black" points="720,-88 720,-107 845,-107 845,-88 720,-88"/>
<text text-anchor="middle" x="782.5" y="-95" font-family="Verdana" font-size="10.00">CElement::appendTitle</text>
</a>
</g>
</g>
<!-- Node14&#45;&gt;Node15 -->
<g id="edge19" class="edge"><title>Node14&#45;&gt;Node15</title>
<path fill="none" stroke="midnightblue" d="M682.118,-97.5C691.199,-97.5 700.505,-97.5 709.606,-97.5"/>
<polygon fill="midnightblue" stroke="midnightblue" points="709.77,-101 719.77,-97.5 709.77,-94.0001 709.77,-101"/>
</g>
<!-- Node16 -->
<g id="node16" class="node"><title>Node16</title>
<g id="a_node16"><a xlink:href="classCElement.html#a49581fb6412e29e932962acd82d52d6a" target="_top" xlink:title="CElement::getName">
<polygon fill="white" stroke="black" points="725.5,-50 725.5,-69 839.5,-69 839.5,-50 725.5,-50"/>
<text text-anchor="middle" x="782.5" y="-57" font-family="Verdana" font-size="10.00">CElement::getName</text>
</a>
</g>
</g>
<!-- Node14&#45;&gt;Node16 -->
<g id="edge20" class="edge"><title>Node14&#45;&gt;Node16</title>
<path fill="none" stroke="midnightblue" d="M678.689,-82.4814C695.285,-78.7715 712.831,-74.8496 728.637,-71.3164"/>
<polygon fill="midnightblue" stroke="midnightblue" points="729.75,-74.6541 738.746,-69.0568 728.223,-67.8226 729.75,-74.6541"/>
</g>
<!-- Node17 -->
<g id="node17" class="node"><title>Node17</title>
<g id="a_node17"><a xlink:href="classCSelectionCriterionType.html#ae88c284c1f002d7237f25e9c21dcf44f" target="_top" xlink:title="CSelectionCriterionType\l::isTypeInclusive">
<polygon fill="white" stroke="black" points="718,-0.5 718,-30.5 847,-30.5 847,-0.5 718,-0.5"/>
<text text-anchor="start" x="726" y="-18.5" font-family="Verdana" font-size="10.00">CSelectionCriterionType</text>
<text text-anchor="middle" x="782.5" y="-7.5" font-family="Verdana" font-size="10.00">::isTypeInclusive</text>
</a>
</g>
</g>
<!-- Node14&#45;&gt;Node17 -->
<g id="edge21" class="edge"><title>Node14&#45;&gt;Node17</title>
<path fill="none" stroke="midnightblue" d="M637.763,-82.3378C659.058,-70.3153 690.02,-53.4419 718,-40.5 722.405,-38.4622 727.027,-36.4364 731.683,-34.4709"/>
<polygon fill="midnightblue" stroke="midnightblue" points="733.318,-37.583 741.23,-30.5367 730.65,-31.111 733.318,-37.583"/>
</g>
<!-- Node18 -->
<g id="node18" class="node"><title>Node18</title>
<g id="a_node18"><a xlink:href="classCSelectionCriterionType.html#a31f9a40404c9564b2c54658a679db628" target="_top" xlink:title="CSelectionCriterionType\l::listPossibleValues">
<polygon fill="white" stroke="black" points="718,-175.5 718,-205.5 847,-205.5 847,-175.5 718,-175.5"/>
<text text-anchor="start" x="726" y="-193.5" font-family="Verdana" font-size="10.00">CSelectionCriterionType</text>
<text text-anchor="middle" x="782.5" y="-182.5" font-family="Verdana" font-size="10.00">::listPossibleValues</text>
</a>
</g>
</g>
<!-- Node14&#45;&gt;Node18 -->
<g id="edge22" class="edge"><title>Node14&#45;&gt;Node18</title>
<path fill="none" stroke="midnightblue" d="M664.258,-112.648C670.491,-115.455 676.561,-118.721 682,-122.5 702.468,-136.723 697.779,-150.928 718,-165.5 720.514,-167.312 723.178,-169.014 725.933,-170.611"/>
<polygon fill="midnightblue" stroke="midnightblue" points="724.498,-173.81 734.98,-175.354 727.749,-167.611 724.498,-173.81"/>
</g>
<!-- Node19 -->
<g id="node19" class="node"><title>Node19</title>
<g id="a_node19"><a xlink:href="classCSelectionCriterionType.html#acf1d7bbd1dc0b21897cdf7cf3d362bb3" target="_top" xlink:title="CSelectionCriterionType\l::getFormattedState">
<polygon fill="white" stroke="black" points="718,-126.5 718,-156.5 847,-156.5 847,-126.5 718,-126.5"/>
<text text-anchor="start" x="726" y="-144.5" font-family="Verdana" font-size="10.00">CSelectionCriterionType</text>
<text text-anchor="middle" x="782.5" y="-133.5" font-family="Verdana" font-size="10.00">::getFormattedState</text>
</a>
</g>
</g>
<!-- Node14&#45;&gt;Node19 -->
<g id="edge23" class="edge"><title>Node14&#45;&gt;Node19</title>
<path fill="none" stroke="midnightblue" d="M669.529,-112.519C683.674,-116.18 698.932,-120.129 713.495,-123.899"/>
<polygon fill="midnightblue" stroke="midnightblue" points="712.886,-127.356 723.444,-126.474 714.64,-120.58 712.886,-127.356"/>
</g>
<!-- Node20 -->
<g id="node20" class="node"><title>Node20</title>
<g id="a_node20"><a xlink:href="classCSelectionCriterionType.html#ae526e3679a02dd85be47abe8a548f1ee" target="_top" xlink:title="CSelectionCriterionType\l::getLiteralValue">
<polygon fill="white" stroke="black" points="883,-126.5 883,-156.5 1012,-156.5 1012,-126.5 883,-126.5"/>
<text text-anchor="start" x="891" y="-144.5" font-family="Verdana" font-size="10.00">CSelectionCriterionType</text>
<text text-anchor="middle" x="947.5" y="-133.5" font-family="Verdana" font-size="10.00">::getLiteralValue</text>
</a>
</g>
</g>
<!-- Node19&#45;&gt;Node20 -->
<g id="edge24" class="edge"><title>Node19&#45;&gt;Node20</title>
<path fill="none" stroke="midnightblue" d="M847.454,-141.5C855.761,-141.5 864.322,-141.5 872.772,-141.5"/>
<polygon fill="midnightblue" stroke="midnightblue" points="872.998,-145 882.998,-141.5 872.998,-138 872.998,-145"/>
</g>
<!-- Node22&#45;&gt;Node4 -->
<g id="edge27" class="edge"><title>Node22&#45;&gt;Node4</title>
<path fill="none" stroke="midnightblue" d="M499.184,-200.546C515.081,-203.422 531.475,-206.387 546.606,-209.124"/>
<polygon fill="midnightblue" stroke="midnightblue" points="546.394,-212.642 556.857,-210.978 547.64,-205.754 546.394,-212.642"/>
</g>
<!-- Node22&#45;&gt;Node5 -->
<g id="edge28" class="edge"><title>Node22&#45;&gt;Node5</title>
<path fill="none" stroke="midnightblue" d="M482.051,-170.481C506.751,-164.864 534.431,-158.57 557.667,-153.286"/>
<polygon fill="midnightblue" stroke="midnightblue" points="558.692,-156.643 567.667,-151.012 557.14,-149.817 558.692,-156.643"/>
</g>
<!-- Node23 -->
<g id="node23" class="node"><title>Node23</title>
<g id="a_node23"><a xlink:href="classCSubsystem.html#a4cb6e87e55f40b52408e42285e504be4" target="_top" xlink:title="CSubsystem::needResync">
<polygon fill="white" stroke="black" points="540.5,-173 540.5,-192 680.5,-192 680.5,-173 540.5,-173"/>
<text text-anchor="middle" x="610.5" y="-180" font-family="Verdana" font-size="10.00">CSubsystem::needResync</text>
</a>
</g>
</g>
<!-- Node22&#45;&gt;Node23 -->
<g id="edge29" class="edge"><title>Node22&#45;&gt;Node23</title>
<path fill="none" stroke="midnightblue" d="M503.127,-184.149C512.067,-184.011 521.118,-183.87 529.971,-183.733"/>
<polygon fill="midnightblue" stroke="midnightblue" points="530.308,-187.228 540.253,-183.574 530.2,-180.229 530.308,-187.228"/>
</g>
</g>
</svg>
