<?xml version="1.0" encoding="UTF-8" standalone="no"?>
<!DOCTYPE svg PUBLIC "-//W3C//DTD SVG 1.1//EN"
 "http://www.w3.org/Graphics/SVG/1.1/DTD/svg11.dtd">
<!-- Generated by graphviz version 2.38.0 (20140413.2041)
 -->
<!-- Title: CParameterMgr::exportSingleDomainXml Pages: 1 -->
<svg width="495pt" height="137pt"
 viewBox="0.00 0.00 495.00 137.00" xmlns="http://www.w3.org/2000/svg" xmlns:xlink="http://www.w3.org/1999/xlink">
<g id="graph0" class="graph" transform="scale(1 1) rotate(0) translate(4 133)">
<title>CParameterMgr::exportSingleDomainXml</title>
<polygon fill="white" stroke="none" points="-4,4 -4,-133 491,-133 491,4 -4,4"/>
<!-- Node1 -->
<g id="node1" class="node"><title>Node1</title>
<polygon fill="#bfbfbf" stroke="black" points="0,-49.5 0,-79.5 158,-79.5 158,-49.5 0,-49.5"/>
<text text-anchor="start" x="8" y="-67.5" font-family="Verdana" font-size="10.00">CParameterMgr::exportSingle</text>
<text text-anchor="middle" x="79" y="-56.5" font-family="Verdana" font-size="10.00">DomainXml</text>
</g>
<!-- Node2 -->
<g id="node2" class="node"><title>Node2</title>
<g id="a_node2"><a xlink:href="classCConfigurableDomains.html#a4dce38a1560b6e33871d3fa2d85cc449" target="_top" xlink:title="CConfigurableDomains\l::findConfigurableDomain">
<polygon fill="white" stroke="black" points="199,-98.5 199,-128.5 336,-128.5 336,-98.5 199,-98.5"/>
<text text-anchor="start" x="207" y="-116.5" font-family="Verdana" font-size="10.00">CConfigurableDomains</text>
<text text-anchor="middle" x="267.5" y="-105.5" font-family="Verdana" font-size="10.00">::findConfigurableDomain</text>
</a>
</g>
</g>
<!-- Node1&#45;&gt;Node2 -->
<g id="edge1" class="edge"><title>Node1&#45;&gt;Node2</title>
<path fill="none" stroke="midnightblue" d="M137.224,-79.5346C156.915,-84.7083 179.14,-90.5475 199.537,-95.9066"/>
<polygon fill="midnightblue" stroke="midnightblue" points="198.823,-99.3378 209.385,-98.4938 200.602,-92.5675 198.823,-99.3378"/>
</g>
<!-- Node4 -->
<g id="node4" class="node"><title>Node4</title>
<g id="a_node4"><a xlink:href="classCXmlDomainExportContext.html#af96234ea49123b30efa51a7023f07c8f" target="_top" xlink:title="CXmlDomainExportContext\l::setValueSpaceRaw">
<polygon fill="white" stroke="black" points="194,-49.5 194,-79.5 341,-79.5 341,-49.5 194,-49.5"/>
<text text-anchor="start" x="202" y="-67.5" font-family="Verdana" font-size="10.00">CXmlDomainExportContext</text>
<text text-anchor="middle" x="267.5" y="-56.5" font-family="Verdana" font-size="10.00">::setValueSpaceRaw</text>
</a>
</g>
</g>
<!-- Node1&#45;&gt;Node4 -->
<g id="edge3" class="edge"><title>Node1&#45;&gt;Node4</title>
<path fill="none" stroke="midnightblue" d="M158.012,-64.5C166.55,-64.5 175.262,-64.5 183.853,-64.5"/>
<polygon fill="midnightblue" stroke="midnightblue" points="183.864,-68.0001 193.864,-64.5 183.864,-61.0001 183.864,-68.0001"/>
</g>
<!-- Node5 -->
<g id="node5" class="node"><title>Node5</title>
<g id="a_node5"><a xlink:href="classCXmlDomainExportContext.html#a76304ae01cb688634fb64dab8717fb7d" target="_top" xlink:title="CXmlDomainExportContext\l::setOutputRawFormat">
<polygon fill="white" stroke="black" points="194,-0.5 194,-30.5 341,-30.5 341,-0.5 194,-0.5"/>
<text text-anchor="start" x="202" y="-18.5" font-family="Verdana" font-size="10.00">CXmlDomainExportContext</text>
<text text-anchor="middle" x="267.5" y="-7.5" font-family="Verdana" font-size="10.00">::setOutputRawFormat</text>
</a>
</g>
</g>
<!-- Node1&#45;&gt;Node5 -->
<g id="edge4" class="edge"><title>Node1&#45;&gt;Node5</title>
<path fill="none" stroke="midnightblue" d="M137.224,-49.4654C156.915,-44.2917 179.14,-38.4525 199.537,-33.0934"/>
<polygon fill="midnightblue" stroke="midnightblue" points="200.602,-36.4325 209.385,-30.5062 198.823,-29.6622 200.602,-36.4325"/>
</g>
<!-- Node3 -->
<g id="node3" class="node"><title>Node3</title>
<g id="a_node3"><a xlink:href="classCElement.html#a8595814a3159f32f874269907e70b260" target="_top" xlink:title="CElement::findChild">
<polygon fill="white" stroke="black" points="377,-104 377,-123 487,-123 487,-104 377,-104"/>
<text text-anchor="middle" x="432" y="-111" font-family="Verdana" font-size="10.00">CElement::findChild</text>
</a>
</g>
</g>
<!-- Node2&#45;&gt;Node3 -->
<g id="edge2" class="edge"><title>Node2&#45;&gt;Node3</title>
<path fill="none" stroke="midnightblue" d="M336.003,-113.5C346.099,-113.5 356.487,-113.5 366.518,-113.5"/>
<polygon fill="midnightblue" stroke="midnightblue" points="366.816,-117 376.816,-113.5 366.816,-110 366.816,-117"/>
</g>
</g>
</svg>
