<?xml version="1.0" encoding="UTF-8" standalone="no"?>
<!DOCTYPE svg PUBLIC "-//W3C//DTD SVG 1.1//EN"
 "http://www.w3.org/Graphics/SVG/1.1/DTD/svg11.dtd">
<!-- Generated by graphviz version 2.38.0 (20140413.2041)
 -->
<!-- Title: /home/dawagner/dev/parameter&#45;framework/parameter/ConfigurableElementAggregator.cpp Pages: 1 -->
<svg width="536pt" height="285pt"
 viewBox="0.00 0.00 536.00 285.00" xmlns="http://www.w3.org/2000/svg" xmlns:xlink="http://www.w3.org/1999/xlink">
<g id="graph0" class="graph" transform="scale(1 1) rotate(0) translate(4 281)">
<title>/home/dawagner/dev/parameter&#45;framework/parameter/ConfigurableElementAggregator.cpp</title>
<polygon fill="white" stroke="none" points="-4,4 -4,-281 532,-281 532,4 -4,4"/>
<!-- Node1 -->
<g id="node1" class="node"><title>Node1</title>
<polygon fill="#bfbfbf" stroke="black" points="69,-224.5 69,-276.5 242,-276.5 242,-224.5 69,-224.5"/>
<text text-anchor="start" x="77" y="-264.5" font-family="Verdana" font-size="10.00">/home/dawagner/dev</text>
<text text-anchor="start" x="77" y="-253.5" font-family="Verdana" font-size="10.00">/parameter&#45;framework</text>
<text text-anchor="start" x="77" y="-242.5" font-family="Verdana" font-size="10.00">/parameter/ConfigurableElement</text>
<text text-anchor="middle" x="155.5" y="-231.5" font-family="Verdana" font-size="10.00">Aggregator.cpp</text>
</g>
<!-- Node2 -->
<g id="node2" class="node"><title>Node2</title>
<g id="a_node2"><a xlink:href="ConfigurableElementAggregator_8h.html" target="_top" xlink:title="ConfigurableElementAggregator.h">
<polygon fill="white" stroke="black" points="0,-112.5 0,-131.5 179,-131.5 179,-112.5 0,-112.5"/>
<text text-anchor="middle" x="89.5" y="-119.5" font-family="Verdana" font-size="10.00">ConfigurableElementAggregator.h</text>
</a>
</g>
</g>
<!-- Node1&#45;&gt;Node2 -->
<g id="edge1" class="edge"><title>Node1&#45;&gt;Node2</title>
<path fill="none" stroke="midnightblue" d="M142.303,-224.205C129.377,-199.432 110.021,-162.332 98.6855,-140.605"/>
<polygon fill="midnightblue" stroke="midnightblue" points="101.689,-138.797 93.9607,-131.55 95.4834,-142.035 101.689,-138.797"/>
</g>
<!-- Node5 -->
<g id="node5" class="node"><title>Node5</title>
<g id="a_node5"><a xlink:href="ConfigurableElement_8h.html" target="_top" xlink:title="ConfigurableElement.h">
<polygon fill="white" stroke="black" points="145,-168.5 145,-187.5 270,-187.5 270,-168.5 145,-168.5"/>
<text text-anchor="middle" x="207.5" y="-175.5" font-family="Verdana" font-size="10.00">ConfigurableElement.h</text>
</a>
</g>
</g>
<!-- Node1&#45;&gt;Node5 -->
<g id="edge4" class="edge"><title>Node1&#45;&gt;Node5</title>
<path fill="none" stroke="midnightblue" d="M173.98,-224.446C180.999,-214.929 188.819,-204.327 195.139,-195.758"/>
<polygon fill="midnightblue" stroke="midnightblue" points="197.967,-197.821 201.086,-187.695 192.334,-193.666 197.967,-197.821"/>
</g>
<!-- Node3 -->
<g id="node3" class="node"><title>Node3</title>
<polygon fill="white" stroke="#bfbfbf" points="96.5,-56.5 96.5,-75.5 126.5,-75.5 126.5,-56.5 96.5,-56.5"/>
<text text-anchor="middle" x="111.5" y="-63.5" font-family="Verdana" font-size="10.00">list</text>
</g>
<!-- Node2&#45;&gt;Node3 -->
<g id="edge2" class="edge"><title>Node2&#45;&gt;Node3</title>
<path fill="none" stroke="midnightblue" d="M93.1329,-112.083C96.1122,-104.77 100.426,-94.1814 104.125,-85.1034"/>
<polygon fill="midnightblue" stroke="midnightblue" points="107.403,-86.3326 107.935,-75.7511 100.92,-83.6914 107.403,-86.3326"/>
</g>
<!-- Node4 -->
<g id="node4" class="node"><title>Node4</title>
<polygon fill="white" stroke="#bfbfbf" points="132.5,-0.5 132.5,-19.5 176.5,-19.5 176.5,-0.5 132.5,-0.5"/>
<text text-anchor="middle" x="154.5" y="-7.5" font-family="Verdana" font-size="10.00">string</text>
</g>
<!-- Node2&#45;&gt;Node4 -->
<g id="edge3" class="edge"><title>Node2&#45;&gt;Node4</title>
<path fill="none" stroke="midnightblue" d="M86.6726,-112.392C82.9235,-99.3363 77.8354,-74.1332 87.5,-56 95.1573,-41.6329 109.665,-31.0377 123.228,-23.7499"/>
<polygon fill="midnightblue" stroke="midnightblue" points="124.959,-26.7984 132.37,-19.2273 121.855,-20.5241 124.959,-26.7984"/>
</g>
<!-- Node5&#45;&gt;Node3 -->
<g id="edge16" class="edge"><title>Node5&#45;&gt;Node3</title>
<path fill="none" stroke="midnightblue" d="M206.786,-168.077C205.297,-154.611 200.799,-128.878 187.5,-112 174.297,-95.2435 152.998,-83.4093 136.302,-76.0963"/>
<polygon fill="midnightblue" stroke="midnightblue" points="137.196,-72.6797 126.615,-72.1235 134.54,-79.1563 137.196,-72.6797"/>
</g>
<!-- Node6 -->
<g id="node6" class="node"><title>Node6</title>
<g id="a_node6"><a xlink:href="Element_8h.html" target="_top" xlink:title="Element.h">
<polygon fill="white" stroke="black" points="253,-112.5 253,-131.5 318,-131.5 318,-112.5 253,-112.5"/>
<text text-anchor="middle" x="285.5" y="-119.5" font-family="Verdana" font-size="10.00">Element.h</text>
</a>
</g>
</g>
<!-- Node5&#45;&gt;Node6 -->
<g id="edge5" class="edge"><title>Node5&#45;&gt;Node6</title>
<path fill="none" stroke="midnightblue" d="M220.032,-168.324C232.086,-159.979 250.527,-147.212 264.769,-137.352"/>
<polygon fill="midnightblue" stroke="midnightblue" points="266.769,-140.224 272.999,-131.655 262.785,-134.469 266.769,-140.224"/>
</g>
<!-- Node6&#45;&gt;Node3 -->
<g id="edge9" class="edge"><title>Node6&#45;&gt;Node3</title>
<path fill="none" stroke="midnightblue" d="M257.929,-112.444C224.525,-102.077 168.729,-84.7608 136.517,-74.764"/>
<polygon fill="midnightblue" stroke="midnightblue" points="137.152,-71.2963 126.564,-71.6749 135.077,-77.9817 137.152,-71.2963"/>
</g>
<!-- Node6&#45;&gt;Node4 -->
<g id="edge6" class="edge"><title>Node6&#45;&gt;Node4</title>
<path fill="none" stroke="midnightblue" d="M252.875,-115.826C227.82,-110.192 194.122,-98.7415 173.5,-76 162.033,-63.3552 157.462,-44.1461 155.653,-29.8856"/>
<polygon fill="midnightblue" stroke="midnightblue" points="159.12,-29.3656 154.715,-19.7298 152.149,-30.0093 159.12,-29.3656"/>
</g>
<!-- Node7 -->
<g id="node7" class="node"><title>Node7</title>
<polygon fill="white" stroke="#bfbfbf" points="216,-0.5 216,-19.5 263,-19.5 263,-0.5 216,-0.5"/>
<text text-anchor="middle" x="239.5" y="-7.5" font-family="Verdana" font-size="10.00">vector</text>
</g>
<!-- Node6&#45;&gt;Node7 -->
<g id="edge7" class="edge"><title>Node6&#45;&gt;Node7</title>
<path fill="none" stroke="midnightblue" d="M287.18,-112.159C289.215,-99.2372 291.46,-74.6984 283.5,-56 278.519,-44.3003 268.974,-33.9384 260.044,-26.1158"/>
<polygon fill="midnightblue" stroke="midnightblue" points="262.123,-23.2949 252.164,-19.68 257.695,-28.7165 262.123,-23.2949"/>
</g>
<!-- Node8 -->
<g id="node8" class="node"><title>Node8</title>
<polygon fill="white" stroke="#bfbfbf" points="303,-0.5 303,-19.5 356,-19.5 356,-0.5 303,-0.5"/>
<text text-anchor="middle" x="329.5" y="-7.5" font-family="Verdana" font-size="10.00">stdint.h</text>
</g>
<!-- Node6&#45;&gt;Node8 -->
<g id="edge8" class="edge"><title>Node6&#45;&gt;Node8</title>
<path fill="none" stroke="midnightblue" d="M293.082,-112.334C300.219,-103.71 310.659,-89.8042 316.5,-76 322.744,-61.2451 326.041,-43.315 327.75,-30.0268"/>
<polygon fill="midnightblue" stroke="midnightblue" points="331.267,-30.0626 328.877,-19.7408 324.309,-29.3 331.267,-30.0626"/>
</g>
<!-- Node9 -->
<g id="node9" class="node"><title>Node9</title>
<polygon fill="white" stroke="#bfbfbf" points="368.5,-56.5 368.5,-75.5 432.5,-75.5 432.5,-56.5 368.5,-56.5"/>
<text text-anchor="middle" x="400.5" y="-63.5" font-family="Verdana" font-size="10.00">XmlSink.h</text>
</g>
<!-- Node6&#45;&gt;Node9 -->
<g id="edge10" class="edge"><title>Node6&#45;&gt;Node9</title>
<path fill="none" stroke="midnightblue" d="M303.722,-112.444C322.396,-103.675 351.656,-89.9355 373.117,-79.8579"/>
<polygon fill="midnightblue" stroke="midnightblue" points="374.799,-82.935 382.363,-75.5164 371.824,-76.5988 374.799,-82.935"/>
</g>
<!-- Node10 -->
<g id="node10" class="node"><title>Node10</title>
<polygon fill="white" stroke="#bfbfbf" points="451,-56.5 451,-75.5 528,-75.5 528,-56.5 451,-56.5"/>
<text text-anchor="middle" x="489.5" y="-63.5" font-family="Verdana" font-size="10.00">XmlSource.h</text>
</g>
<!-- Node6&#45;&gt;Node10 -->
<g id="edge11" class="edge"><title>Node6&#45;&gt;Node10</title>
<path fill="none" stroke="midnightblue" d="M317.824,-112.444C352.889,-103.162 408.998,-88.3093 447.465,-78.127"/>
<polygon fill="midnightblue" stroke="midnightblue" points="448.555,-81.4589 457.327,-75.5164 446.764,-74.692 448.555,-81.4589"/>
</g>
<!-- Node11 -->
<g id="node11" class="node"><title>Node11</title>
<g id="a_node11"><a xlink:href="PathNavigator_8h.html" target="_top" xlink:title="PathNavigator.h">
<polygon fill="white" stroke="black" points="182.5,-56.5 182.5,-75.5 274.5,-75.5 274.5,-56.5 182.5,-56.5"/>
<text text-anchor="middle" x="228.5" y="-63.5" font-family="Verdana" font-size="10.00">PathNavigator.h</text>
</a>
</g>
</g>
<!-- Node6&#45;&gt;Node11 -->
<g id="edge12" class="edge"><title>Node6&#45;&gt;Node11</title>
<path fill="none" stroke="midnightblue" d="M276.342,-112.324C267.999,-104.42 255.468,-92.5482 245.323,-82.9377"/>
<polygon fill="midnightblue" stroke="midnightblue" points="247.491,-80.1705 237.825,-75.8339 242.677,-85.2522 247.491,-80.1705"/>
</g>
<!-- Node11&#45;&gt;Node4 -->
<g id="edge14" class="edge"><title>Node11&#45;&gt;Node4</title>
<path fill="none" stroke="midnightblue" d="M216.611,-56.324C205.35,-48.1066 188.213,-35.6017 174.791,-25.8069"/>
<polygon fill="midnightblue" stroke="midnightblue" points="176.747,-22.9014 166.606,-19.8339 172.62,-28.5559 176.747,-22.9014"/>
</g>
<!-- Node11&#45;&gt;Node7 -->
<g id="edge13" class="edge"><title>Node11&#45;&gt;Node7</title>
<path fill="none" stroke="midnightblue" d="M230.316,-56.083C231.774,-48.9272 233.871,-38.6353 235.693,-29.6911"/>
<polygon fill="midnightblue" stroke="midnightblue" points="239.151,-30.2485 237.717,-19.7511 232.292,-28.8512 239.151,-30.2485"/>
</g>
<!-- Node11&#45;&gt;Node8 -->
<g id="edge15" class="edge"><title>Node11&#45;&gt;Node8</title>
<path fill="none" stroke="midnightblue" d="M244.727,-56.324C260.851,-47.7034 285.8,-34.3643 304.464,-24.3855"/>
<polygon fill="midnightblue" stroke="midnightblue" points="306.144,-27.456 313.313,-19.6545 302.844,-21.283 306.144,-27.456"/>
</g>
</g>
</svg>
