<?xml version="1.0" encoding="UTF-8" standalone="no"?>
<!DOCTYPE svg PUBLIC "-//W3C//DTD SVG 1.1//EN"
 "http://www.w3.org/Graphics/SVG/1.1/DTD/svg11.dtd">
<!-- Generated by graphviz version 2.38.0 (20140413.2041)
 -->
<!-- Title: /home/dawagner/dev/parameter&#45;framework/parameter/ConfigurableElementAggregator.h Pages: 1 -->
<svg width="181pt" height="117pt"
 viewBox="0.00 0.00 181.00 117.00" xmlns="http://www.w3.org/2000/svg" xmlns:xlink="http://www.w3.org/1999/xlink">
<g id="graph0" class="graph" transform="scale(1 1) rotate(0) translate(4 113)">
<title>/home/dawagner/dev/parameter&#45;framework/parameter/ConfigurableElementAggregator.h</title>
<polygon fill="white" stroke="none" points="-4,4 -4,-113 177,-113 177,4 -4,4"/>
<!-- Node1 -->
<g id="node1" class="node"><title>Node1</title>
<polygon fill="#bfbfbf" stroke="black" points="0,-56.5 0,-108.5 173,-108.5 173,-56.5 0,-56.5"/>
<text text-anchor="start" x="8" y="-96.5" font-family="Verdana" font-size="10.00">/home/dawagner/dev</text>
<text text-anchor="start" x="8" y="-85.5" font-family="Verdana" font-size="10.00">/parameter&#45;framework</text>
<text text-anchor="start" x="8" y="-74.5" font-family="Verdana" font-size="10.00">/parameter/ConfigurableElement</text>
<text text-anchor="middle" x="86.5" y="-63.5" font-family="Verdana" font-size="10.00">Aggregator.h</text>
</g>
<!-- Node2 -->
<g id="node2" class="node"><title>Node2</title>
<polygon fill="white" stroke="#bfbfbf" points="44.5,-0.5 44.5,-19.5 74.5,-19.5 74.5,-0.5 44.5,-0.5"/>
<text text-anchor="middle" x="59.5" y="-7.5" font-family="Verdana" font-size="10.00">list</text>
</g>
<!-- Node1&#45;&gt;Node2 -->
<g id="edge1" class="edge"><title>Node1&#45;&gt;Node2</title>
<path fill="none" stroke="midnightblue" d="M76.9048,-56.4458C73.4517,-47.4296 69.6258,-37.4396 66.4424,-29.1274"/>
<polygon fill="midnightblue" stroke="midnightblue" points="69.6752,-27.7823 62.8302,-19.6955 63.1382,-30.2858 69.6752,-27.7823"/>
</g>
<!-- Node3 -->
<g id="node3" class="node"><title>Node3</title>
<polygon fill="white" stroke="#bfbfbf" points="92.5,-0.5 92.5,-19.5 136.5,-19.5 136.5,-0.5 92.5,-0.5"/>
<text text-anchor="middle" x="114.5" y="-7.5" font-family="Verdana" font-size="10.00">string</text>
</g>
<!-- Node1&#45;&gt;Node3 -->
<g id="edge2" class="edge"><title>Node1&#45;&gt;Node3</title>
<path fill="none" stroke="midnightblue" d="M96.4506,-56.4458C100.032,-47.4296 103.999,-37.4396 107.3,-29.1274"/>
<polygon fill="midnightblue" stroke="midnightblue" points="110.608,-30.2813 111.046,-19.6955 104.102,-27.6974 110.608,-30.2813"/>
</g>
</g>
</svg>
