<?xml version="1.0" encoding="UTF-8" standalone="no"?>
<!DOCTYPE svg PUBLIC "-//W3C//DTD SVG 1.1//EN"
 "http://www.w3.org/Graphics/SVG/1.1/DTD/svg11.dtd">
<!-- Generated by graphviz version 2.38.0 (20140413.2041)
 -->
<!-- Title: /home/dawagner/dev/parameter&#45;framework/parameter/HardwareBackSynchronizer.cpp Pages: 1 -->
<svg width="608pt" height="386pt"
 viewBox="0.00 0.00 608.05 386.00" xmlns="http://www.w3.org/2000/svg" xmlns:xlink="http://www.w3.org/1999/xlink">
<g id="graph0" class="graph" transform="scale(1 1) rotate(0) translate(4 382)">
<title>/home/dawagner/dev/parameter&#45;framework/parameter/HardwareBackSynchronizer.cpp</title>
<polygon fill="white" stroke="none" points="-4,4 -4,-382 604.047,-382 604.047,4 -4,4"/>
<!-- Node1 -->
<g id="node1" class="node"><title>Node1</title>
<polygon fill="#bfbfbf" stroke="black" points="226.5,-336.5 226.5,-377.5 450.5,-377.5 450.5,-336.5 226.5,-336.5"/>
<text text-anchor="start" x="234.5" y="-365.5" font-family="Verdana" font-size="10.00">/home/dawagner/dev</text>
<text text-anchor="start" x="234.5" y="-354.5" font-family="Verdana" font-size="10.00">/parameter&#45;framework</text>
<text text-anchor="middle" x="338.5" y="-343.5" font-family="Verdana" font-size="10.00">/parameter/HardwareBackSynchronizer.cpp</text>
</g>
<!-- Node2 -->
<g id="node2" class="node"><title>Node2</title>
<g id="a_node2"><a xlink:href="HardwareBackSynchronizer_8h.html" target="_top" xlink:title="HardwareBackSynchronizer.h">
<polygon fill="white" stroke="black" points="207.5,-280.5 207.5,-299.5 363.5,-299.5 363.5,-280.5 207.5,-280.5"/>
<text text-anchor="middle" x="285.5" y="-287.5" font-family="Verdana" font-size="10.00">HardwareBackSynchronizer.h</text>
</a>
</g>
</g>
<!-- Node1&#45;&gt;Node2 -->
<g id="edge1" class="edge"><title>Node1&#45;&gt;Node2</title>
<path fill="none" stroke="midnightblue" d="M322.598,-336.498C315.097,-327.299 306.24,-316.436 299.062,-307.632"/>
<polygon fill="midnightblue" stroke="midnightblue" points="301.587,-305.191 292.555,-299.652 296.162,-309.614 301.587,-305.191"/>
</g>
<!-- Node7 -->
<g id="node7" class="node"><title>Node7</title>
<g id="a_node7"><a xlink:href="ConfigurableElement_8h.html" target="_top" xlink:title="ConfigurableElement.h">
<polygon fill="white" stroke="black" points="329,-168.5 329,-187.5 454,-187.5 454,-168.5 329,-168.5"/>
<text text-anchor="middle" x="391.5" y="-175.5" font-family="Verdana" font-size="10.00">ConfigurableElement.h</text>
</a>
</g>
</g>
<!-- Node1&#45;&gt;Node7 -->
<g id="edge24" class="edge"><title>Node1&#45;&gt;Node7</title>
<path fill="none" stroke="midnightblue" d="M352.949,-336.488C359.918,-326.142 367.772,-312.925 372.5,-300 385.177,-265.348 389.398,-222.08 390.802,-197.797"/>
<polygon fill="midnightblue" stroke="midnightblue" points="394.298,-197.953 391.279,-187.797 387.306,-197.619 394.298,-197.953"/>
</g>
<!-- Node3 -->
<g id="node3" class="node"><title>Node3</title>
<g id="a_node3"><a xlink:href="BackSynchronizer_8h.html" target="_top" xlink:title="BackSynchronizer.h">
<polygon fill="white" stroke="black" points="238.5,-224.5 238.5,-243.5 348.5,-243.5 348.5,-224.5 238.5,-224.5"/>
<text text-anchor="middle" x="293.5" y="-231.5" font-family="Verdana" font-size="10.00">BackSynchronizer.h</text>
</a>
</g>
</g>
<!-- Node2&#45;&gt;Node3 -->
<g id="edge2" class="edge"><title>Node2&#45;&gt;Node3</title>
<path fill="none" stroke="midnightblue" d="M286.821,-280.083C287.881,-272.927 289.406,-262.635 290.731,-253.691"/>
<polygon fill="midnightblue" stroke="midnightblue" points="294.2,-254.156 292.204,-243.751 287.276,-253.13 294.2,-254.156"/>
</g>
<!-- Node14 -->
<g id="node14" class="node"><title>Node14</title>
<g id="a_node14"><a xlink:href="SyncerSet_8h.html" target="_top" xlink:title="SyncerSet.h">
<polygon fill="white" stroke="black" points="0,-112.5 0,-131.5 75,-131.5 75,-112.5 0,-112.5"/>
<text text-anchor="middle" x="37.5" y="-119.5" font-family="Verdana" font-size="10.00">SyncerSet.h</text>
</a>
</g>
</g>
<!-- Node2&#45;&gt;Node14 -->
<g id="edge20" class="edge"><title>Node2&#45;&gt;Node14</title>
<path fill="none" stroke="midnightblue" d="M272.516,-280.309C232.171,-253.304 108.713,-170.667 58.786,-137.248"/>
<polygon fill="midnightblue" stroke="midnightblue" points="60.6129,-134.259 50.3558,-131.605 56.7192,-140.076 60.6129,-134.259"/>
</g>
<!-- Node4 -->
<g id="node4" class="node"><title>Node4</title>
<g id="a_node4"><a xlink:href="ConfigurableElementAggregator_8h.html" target="_top" xlink:title="ConfigurableElementAggregator.h">
<polygon fill="white" stroke="black" points="93,-112.5 93,-131.5 272,-131.5 272,-112.5 93,-112.5"/>
<text text-anchor="middle" x="182.5" y="-119.5" font-family="Verdana" font-size="10.00">ConfigurableElementAggregator.h</text>
</a>
</g>
</g>
<!-- Node3&#45;&gt;Node4 -->
<g id="edge3" class="edge"><title>Node3&#45;&gt;Node4</title>
<path fill="none" stroke="midnightblue" d="M284.79,-224.368C266.148,-205.894 222.15,-162.293 198.387,-138.744"/>
<polygon fill="midnightblue" stroke="midnightblue" points="200.736,-136.144 191.17,-131.591 195.809,-141.117 200.736,-136.144"/>
</g>
<!-- Node5 -->
<g id="node5" class="node"><title>Node5</title>
<polygon fill="white" stroke="#bfbfbf" points="193.5,-56.5 193.5,-75.5 223.5,-75.5 223.5,-56.5 193.5,-56.5"/>
<text text-anchor="middle" x="208.5" y="-63.5" font-family="Verdana" font-size="10.00">list</text>
</g>
<!-- Node3&#45;&gt;Node5 -->
<g id="edge19" class="edge"><title>Node3&#45;&gt;Node5</title>
<path fill="none" stroke="midnightblue" d="M294.987,-224.262C298.102,-203.135 303.268,-148.347 280.5,-112 269.613,-94.6204 249.295,-82.8404 233.011,-75.7067"/>
<polygon fill="midnightblue" stroke="midnightblue" points="234.096,-72.3701 223.514,-71.8568 231.467,-78.8573 234.096,-72.3701"/>
</g>
<!-- Node3&#45;&gt;Node7 -->
<g id="edge6" class="edge"><title>Node3&#45;&gt;Node7</title>
<path fill="none" stroke="midnightblue" d="M309.245,-224.324C324.819,-215.743 348.877,-202.486 366.959,-192.522"/>
<polygon fill="midnightblue" stroke="midnightblue" points="368.724,-195.546 375.794,-187.655 365.346,-189.415 368.724,-195.546"/>
</g>
<!-- Node4&#45;&gt;Node5 -->
<g id="edge4" class="edge"><title>Node4&#45;&gt;Node5</title>
<path fill="none" stroke="midnightblue" d="M186.793,-112.083C190.352,-104.691 195.522,-93.9533 199.924,-84.8111"/>
<polygon fill="midnightblue" stroke="midnightblue" points="203.102,-86.2795 204.287,-75.7511 196.795,-83.2427 203.102,-86.2795"/>
</g>
<!-- Node6 -->
<g id="node6" class="node"><title>Node6</title>
<polygon fill="white" stroke="#bfbfbf" points="186.5,-0.5 186.5,-19.5 230.5,-19.5 230.5,-0.5 186.5,-0.5"/>
<text text-anchor="middle" x="208.5" y="-7.5" font-family="Verdana" font-size="10.00">string</text>
</g>
<!-- Node4&#45;&gt;Node6 -->
<g id="edge5" class="edge"><title>Node4&#45;&gt;Node6</title>
<path fill="none" stroke="midnightblue" d="M181.541,-112.407C180.405,-99.7946 179.269,-75.6372 184.5,-56 187.088,-46.2839 192.103,-36.3327 196.882,-28.2669"/>
<polygon fill="midnightblue" stroke="midnightblue" points="199.853,-30.1176 202.225,-19.7916 193.931,-26.3848 199.853,-30.1176"/>
</g>
<!-- Node7&#45;&gt;Node5 -->
<g id="edge18" class="edge"><title>Node7&#45;&gt;Node5</title>
<path fill="none" stroke="midnightblue" d="M383.161,-168.468C369.702,-155.063 341.921,-128.86 314.5,-112 288.33,-95.9089 255.385,-82.9216 233.228,-75.1097"/>
<polygon fill="midnightblue" stroke="midnightblue" points="234.177,-71.735 223.582,-71.7958 231.902,-78.3552 234.177,-71.735"/>
</g>
<!-- Node8 -->
<g id="node8" class="node"><title>Node8</title>
<g id="a_node8"><a xlink:href="Element_8h.html" target="_top" xlink:title="Element.h">
<polygon fill="white" stroke="black" points="367,-112.5 367,-131.5 432,-131.5 432,-112.5 367,-112.5"/>
<text text-anchor="middle" x="399.5" y="-119.5" font-family="Verdana" font-size="10.00">Element.h</text>
</a>
</g>
</g>
<!-- Node7&#45;&gt;Node8 -->
<g id="edge7" class="edge"><title>Node7&#45;&gt;Node8</title>
<path fill="none" stroke="midnightblue" d="M392.821,-168.083C393.881,-160.927 395.406,-150.635 396.731,-141.691"/>
<polygon fill="midnightblue" stroke="midnightblue" points="400.2,-142.156 398.204,-131.751 393.276,-141.13 400.2,-142.156"/>
</g>
<!-- Node8&#45;&gt;Node5 -->
<g id="edge11" class="edge"><title>Node8&#45;&gt;Node5</title>
<path fill="none" stroke="midnightblue" d="M367.757,-112.485C335.038,-103.636 282.588,-89.2553 237.5,-76 236.078,-75.5818 234.618,-75.1469 233.146,-74.7039"/>
<polygon fill="midnightblue" stroke="midnightblue" points="234.112,-71.3396 223.526,-71.757 232.062,-78.0326 234.112,-71.3396"/>
</g>
<!-- Node8&#45;&gt;Node6 -->
<g id="edge8" class="edge"><title>Node8&#45;&gt;Node6</title>
<path fill="none" stroke="midnightblue" d="M366.849,-114.155C339.557,-107.407 300.409,-95.2693 270.5,-76 250.524,-63.1302 232.362,-42.5528 220.933,-28.0026"/>
<polygon fill="midnightblue" stroke="midnightblue" points="223.569,-25.6866 214.73,-19.8447 217.996,-29.9235 223.569,-25.6866"/>
</g>
<!-- Node9 -->
<g id="node9" class="node"><title>Node9</title>
<polygon fill="white" stroke="#bfbfbf" points="518,-0.5 518,-19.5 565,-19.5 565,-0.5 518,-0.5"/>
<text text-anchor="middle" x="541.5" y="-7.5" font-family="Verdana" font-size="10.00">vector</text>
</g>
<!-- Node8&#45;&gt;Node9 -->
<g id="edge9" class="edge"><title>Node8&#45;&gt;Node9</title>
<path fill="none" stroke="midnightblue" d="M432.132,-118.326C482.487,-113.447 575.435,-101.194 595.5,-76 609.751,-58.1059 586.609,-37.8959 566.338,-24.8295"/>
<polygon fill="midnightblue" stroke="midnightblue" points="568.016,-21.7535 557.658,-19.5287 564.368,-27.7276 568.016,-21.7535"/>
</g>
<!-- Node10 -->
<g id="node10" class="node"><title>Node10</title>
<polygon fill="white" stroke="#bfbfbf" points="336,-0.5 336,-19.5 389,-19.5 389,-0.5 336,-0.5"/>
<text text-anchor="middle" x="362.5" y="-7.5" font-family="Verdana" font-size="10.00">stdint.h</text>
</g>
<!-- Node8&#45;&gt;Node10 -->
<g id="edge10" class="edge"><title>Node8&#45;&gt;Node10</title>
<path fill="none" stroke="midnightblue" d="M397.185,-112.084C393.848,-99.4792 387.33,-75.7815 380.5,-56 377.372,-46.9403 373.464,-37.0338 370.089,-28.8277"/>
<polygon fill="midnightblue" stroke="midnightblue" points="373.289,-27.4071 366.199,-19.5343 366.832,-30.1102 373.289,-27.4071"/>
</g>
<!-- Node11 -->
<g id="node11" class="node"><title>Node11</title>
<polygon fill="white" stroke="#bfbfbf" points="427.5,-56.5 427.5,-75.5 491.5,-75.5 491.5,-56.5 427.5,-56.5"/>
<text text-anchor="middle" x="459.5" y="-63.5" font-family="Verdana" font-size="10.00">XmlSink.h</text>
</g>
<!-- Node8&#45;&gt;Node11 -->
<g id="edge12" class="edge"><title>Node8&#45;&gt;Node11</title>
<path fill="none" stroke="midnightblue" d="M409.14,-112.324C418.01,-104.341 431.375,-92.3128 442.108,-82.6529"/>
<polygon fill="midnightblue" stroke="midnightblue" points="444.593,-85.1251 449.685,-75.8339 439.91,-79.922 444.593,-85.1251"/>
</g>
<!-- Node12 -->
<g id="node12" class="node"><title>Node12</title>
<polygon fill="white" stroke="#bfbfbf" points="510,-56.5 510,-75.5 587,-75.5 587,-56.5 510,-56.5"/>
<text text-anchor="middle" x="548.5" y="-63.5" font-family="Verdana" font-size="10.00">XmlSource.h</text>
</g>
<!-- Node8&#45;&gt;Node12 -->
<g id="edge13" class="edge"><title>Node8&#45;&gt;Node12</title>
<path fill="none" stroke="midnightblue" d="M423.109,-112.444C447.958,-103.438 487.274,-89.1891 515.254,-79.049"/>
<polygon fill="midnightblue" stroke="midnightblue" points="516.792,-82.2144 525.001,-75.5164 514.407,-75.6332 516.792,-82.2144"/>
</g>
<!-- Node13 -->
<g id="node13" class="node"><title>Node13</title>
<g id="a_node13"><a xlink:href="PathNavigator_8h.html" target="_top" xlink:title="PathNavigator.h">
<polygon fill="white" stroke="black" points="279.5,-56.5 279.5,-75.5 371.5,-75.5 371.5,-56.5 279.5,-56.5"/>
<text text-anchor="middle" x="325.5" y="-63.5" font-family="Verdana" font-size="10.00">PathNavigator.h</text>
</a>
</g>
</g>
<!-- Node8&#45;&gt;Node13 -->
<g id="edge14" class="edge"><title>Node8&#45;&gt;Node13</title>
<path fill="none" stroke="midnightblue" d="M387.611,-112.324C376.35,-104.107 359.213,-91.6017 345.791,-81.8069"/>
<polygon fill="midnightblue" stroke="midnightblue" points="347.747,-78.9014 337.606,-75.8339 343.62,-84.5559 347.747,-78.9014"/>
</g>
<!-- Node13&#45;&gt;Node6 -->
<g id="edge16" class="edge"><title>Node13&#45;&gt;Node6</title>
<path fill="none" stroke="midnightblue" d="M306.961,-56.4435C287.877,-47.6356 257.925,-33.8116 236.064,-23.722"/>
<polygon fill="midnightblue" stroke="midnightblue" points="237.499,-20.5292 226.952,-19.5164 234.565,-26.8849 237.499,-20.5292"/>
</g>
<!-- Node13&#45;&gt;Node9 -->
<g id="edge15" class="edge"><title>Node13&#45;&gt;Node9</title>
<path fill="none" stroke="midnightblue" d="M359.726,-56.4435C400.325,-46.2938 467.567,-29.4832 507.893,-19.4017"/>
<polygon fill="midnightblue" stroke="midnightblue" points="508.924,-22.7517 517.777,-16.9308 507.227,-15.9607 508.924,-22.7517"/>
</g>
<!-- Node13&#45;&gt;Node10 -->
<g id="edge17" class="edge"><title>Node13&#45;&gt;Node10</title>
<path fill="none" stroke="midnightblue" d="M331.61,-56.083C336.782,-48.5341 344.346,-37.4948 350.694,-28.2298"/>
<polygon fill="midnightblue" stroke="midnightblue" points="353.739,-29.9787 356.504,-19.7511 347.964,-26.0221 353.739,-29.9787"/>
</g>
<!-- Node14&#45;&gt;Node5 -->
<g id="edge23" class="edge"><title>Node14&#45;&gt;Node5</title>
<path fill="none" stroke="midnightblue" d="M64.5955,-112.444C97.2549,-102.13 151.693,-84.9391 183.423,-74.9191"/>
<polygon fill="midnightblue" stroke="midnightblue" points="184.767,-78.1652 193.249,-71.8162 182.659,-71.4901 184.767,-78.1652"/>
</g>
<!-- Node14&#45;&gt;Node6 -->
<g id="edge22" class="edge"><title>Node14&#45;&gt;Node6</title>
<path fill="none" stroke="midnightblue" d="M50.9181,-112.368C80.2618,-93.4924 150.383,-48.385 186.368,-25.2367"/>
<polygon fill="midnightblue" stroke="midnightblue" points="188.628,-27.9451 195.144,-19.5914 184.841,-22.058 188.628,-27.9451"/>
</g>
<!-- Node15 -->
<g id="node15" class="node"><title>Node15</title>
<polygon fill="white" stroke="#bfbfbf" points="21.5,-56.5 21.5,-75.5 53.5,-75.5 53.5,-56.5 21.5,-56.5"/>
<text text-anchor="middle" x="37.5" y="-63.5" font-family="Verdana" font-size="10.00">set</text>
</g>
<!-- Node14&#45;&gt;Node15 -->
<g id="edge21" class="edge"><title>Node14&#45;&gt;Node15</title>
<path fill="none" stroke="midnightblue" d="M37.5,-112.083C37.5,-105.006 37.5,-94.8611 37.5,-85.9865"/>
<polygon fill="midnightblue" stroke="midnightblue" points="41.0001,-85.751 37.5,-75.7511 34.0001,-85.7511 41.0001,-85.751"/>
</g>
</g>
</svg>
