<?xml version="1.0" encoding="UTF-8" standalone="no"?>
<!DOCTYPE svg PUBLIC "-//W3C//DTD SVG 1.1//EN"
 "http://www.w3.org/Graphics/SVG/1.1/DTD/svg11.dtd">
<!-- Generated by graphviz version 2.38.0 (20140413.2041)
 -->
<!-- Title: /home/dawagner/dev/parameter&#45;framework/remote&#45;processor/ListeningSocket.cpp Pages: 1 -->
<svg width="893pt" height="229pt"
 viewBox="0.00 0.00 892.50 229.00" xmlns="http://www.w3.org/2000/svg" xmlns:xlink="http://www.w3.org/1999/xlink">
<g id="graph0" class="graph" transform="scale(1 1) rotate(0) translate(4 225)">
<title>/home/dawagner/dev/parameter&#45;framework/remote&#45;processor/ListeningSocket.cpp</title>
<polygon fill="white" stroke="none" points="-4,4 -4,-225 888.5,-225 888.5,4 -4,4"/>
<!-- Node1 -->
<g id="node1" class="node"><title>Node1</title>
<polygon fill="#bfbfbf" stroke="black" points="422,-168.5 422,-220.5 574,-220.5 574,-168.5 422,-168.5"/>
<text text-anchor="start" x="430" y="-208.5" font-family="Verdana" font-size="10.00">/home/dawagner/dev</text>
<text text-anchor="start" x="430" y="-197.5" font-family="Verdana" font-size="10.00">/parameter&#45;framework</text>
<text text-anchor="start" x="430" y="-186.5" font-family="Verdana" font-size="10.00">/remote&#45;processor/Listening</text>
<text text-anchor="middle" x="498" y="-175.5" font-family="Verdana" font-size="10.00">Socket.cpp</text>
</g>
<!-- Node2 -->
<g id="node2" class="node"><title>Node2</title>
<g id="a_node2"><a xlink:href="ListeningSocket_8h.html" target="_top" xlink:title="ListeningSocket.h">
<polygon fill="white" stroke="black" points="4.5,-112.5 4.5,-131.5 105.5,-131.5 105.5,-112.5 4.5,-112.5"/>
<text text-anchor="middle" x="55" y="-119.5" font-family="Verdana" font-size="10.00">ListeningSocket.h</text>
</a>
</g>
</g>
<!-- Node1&#45;&gt;Node2 -->
<g id="edge1" class="edge"><title>Node1&#45;&gt;Node2</title>
<path fill="none" stroke="midnightblue" d="M421.846,-181.381C335.136,-167.581 195.221,-145.315 115.586,-132.642"/>
<polygon fill="midnightblue" stroke="midnightblue" points="116.133,-129.185 105.707,-131.07 115.033,-136.098 116.133,-129.185"/>
</g>
<!-- Node6 -->
<g id="node6" class="node"><title>Node6</title>
<polygon fill="white" stroke="#bfbfbf" points="123.5,-112.5 123.5,-131.5 194.5,-131.5 194.5,-112.5 123.5,-112.5"/>
<text text-anchor="middle" x="159" y="-119.5" font-family="Verdana" font-size="10.00">sys/types.h</text>
</g>
<!-- Node1&#45;&gt;Node6 -->
<g id="edge5" class="edge"><title>Node1&#45;&gt;Node6</title>
<path fill="none" stroke="midnightblue" d="M421.922,-177.678C355.212,-163.805 260.426,-144.093 204.76,-132.516"/>
<polygon fill="midnightblue" stroke="midnightblue" points="205.34,-129.062 194.837,-130.453 203.915,-135.916 205.34,-129.062"/>
</g>
<!-- Node7 -->
<g id="node7" class="node"><title>Node7</title>
<polygon fill="white" stroke="#bfbfbf" points="213,-112.5 213,-131.5 289,-131.5 289,-112.5 213,-112.5"/>
<text text-anchor="middle" x="251" y="-119.5" font-family="Verdana" font-size="10.00">sys/socket.h</text>
</g>
<!-- Node1&#45;&gt;Node7 -->
<g id="edge6" class="edge"><title>Node1&#45;&gt;Node7</title>
<path fill="none" stroke="midnightblue" d="M421.876,-171.772C378.528,-159.4 326.002,-144.407 290.726,-134.339"/>
<polygon fill="midnightblue" stroke="midnightblue" points="291.386,-130.887 280.809,-131.508 289.465,-137.619 291.386,-130.887"/>
</g>
<!-- Node8 -->
<g id="node8" class="node"><title>Node8</title>
<polygon fill="white" stroke="#bfbfbf" points="307.5,-112.5 307.5,-131.5 378.5,-131.5 378.5,-112.5 307.5,-112.5"/>
<text text-anchor="middle" x="343" y="-119.5" font-family="Verdana" font-size="10.00">netinet/in.h</text>
</g>
<!-- Node1&#45;&gt;Node8 -->
<g id="edge7" class="edge"><title>Node1&#45;&gt;Node8</title>
<path fill="none" stroke="midnightblue" d="M442.916,-168.446C418.539,-157.358 390.923,-144.797 370.912,-135.696"/>
<polygon fill="midnightblue" stroke="midnightblue" points="372.299,-132.481 361.747,-131.527 369.401,-138.853 372.299,-132.481"/>
</g>
<!-- Node9 -->
<g id="node9" class="node"><title>Node9</title>
<polygon fill="white" stroke="#bfbfbf" points="396.5,-112.5 396.5,-131.5 451.5,-131.5 451.5,-112.5 396.5,-112.5"/>
<text text-anchor="middle" x="424" y="-119.5" font-family="Verdana" font-size="10.00">unistd.h</text>
</g>
<!-- Node1&#45;&gt;Node9 -->
<g id="edge8" class="edge"><title>Node1&#45;&gt;Node9</title>
<path fill="none" stroke="midnightblue" d="M471.702,-168.446C461.292,-158.528 449.645,-147.432 440.465,-138.687"/>
<polygon fill="midnightblue" stroke="midnightblue" points="442.782,-136.059 433.127,-131.695 437.953,-141.127 442.782,-136.059"/>
</g>
<!-- Node10 -->
<g id="node10" class="node"><title>Node10</title>
<polygon fill="white" stroke="#bfbfbf" points="470,-112.5 470,-131.5 526,-131.5 526,-112.5 470,-112.5"/>
<text text-anchor="middle" x="498" y="-119.5" font-family="Verdana" font-size="10.00">assert.h</text>
</g>
<!-- Node1&#45;&gt;Node10 -->
<g id="edge9" class="edge"><title>Node1&#45;&gt;Node10</title>
<path fill="none" stroke="midnightblue" d="M498,-168.446C498,-159.73 498,-150.104 498,-141.964"/>
<polygon fill="midnightblue" stroke="midnightblue" points="501.5,-141.695 498,-131.695 494.5,-141.696 501.5,-141.695"/>
</g>
<!-- Node11 -->
<g id="node11" class="node"><title>Node11</title>
<polygon fill="white" stroke="#bfbfbf" points="544.5,-112.5 544.5,-131.5 597.5,-131.5 597.5,-112.5 544.5,-112.5"/>
<text text-anchor="middle" x="571" y="-119.5" font-family="Verdana" font-size="10.00">netdb.h</text>
</g>
<!-- Node1&#45;&gt;Node11 -->
<g id="edge10" class="edge"><title>Node1&#45;&gt;Node11</title>
<path fill="none" stroke="midnightblue" d="M523.943,-168.446C534.212,-158.528 545.702,-147.432 554.757,-138.687"/>
<polygon fill="midnightblue" stroke="midnightblue" points="557.234,-141.16 561.996,-131.695 552.372,-136.125 557.234,-141.16"/>
</g>
<!-- Node12 -->
<g id="node12" class="node"><title>Node12</title>
<polygon fill="white" stroke="#bfbfbf" points="616,-112.5 616,-131.5 674,-131.5 674,-112.5 616,-112.5"/>
<text text-anchor="middle" x="645" y="-119.5" font-family="Verdana" font-size="10.00">strings.h</text>
</g>
<!-- Node1&#45;&gt;Node12 -->
<g id="edge11" class="edge"><title>Node1&#45;&gt;Node12</title>
<path fill="none" stroke="midnightblue" d="M550.241,-168.446C573.15,-157.459 599.074,-145.026 618.009,-135.945"/>
<polygon fill="midnightblue" stroke="midnightblue" points="619.717,-139.007 627.22,-131.527 616.69,-132.696 619.717,-139.007"/>
</g>
<!-- Node13 -->
<g id="node13" class="node"><title>Node13</title>
<polygon fill="white" stroke="#bfbfbf" points="692,-112.5 692,-131.5 748,-131.5 748,-112.5 692,-112.5"/>
<text text-anchor="middle" x="720" y="-119.5" font-family="Verdana" font-size="10.00">sstream</text>
</g>
<!-- Node1&#45;&gt;Node13 -->
<g id="edge12" class="edge"><title>Node1&#45;&gt;Node13</title>
<path fill="none" stroke="midnightblue" d="M574.089,-169.337C611.029,-157.606 653.711,-144.051 683.33,-134.645"/>
<polygon fill="midnightblue" stroke="midnightblue" points="684.759,-137.864 693.231,-131.501 682.64,-131.192 684.759,-137.864"/>
</g>
<!-- Node14 -->
<g id="node14" class="node"><title>Node14</title>
<polygon fill="white" stroke="#bfbfbf" points="766.5,-112.5 766.5,-131.5 815.5,-131.5 815.5,-112.5 766.5,-112.5"/>
<text text-anchor="middle" x="791" y="-119.5" font-family="Verdana" font-size="10.00">stdio.h</text>
</g>
<!-- Node1&#45;&gt;Node14 -->
<g id="edge13" class="edge"><title>Node1&#45;&gt;Node14</title>
<path fill="none" stroke="midnightblue" d="M574.056,-175.981C623.31,-164.509 689.081,-148.956 756.222,-132.149"/>
<polygon fill="midnightblue" stroke="midnightblue" points="757.29,-135.489 766.137,-129.66 755.585,-128.7 757.29,-135.489"/>
</g>
<!-- Node15 -->
<g id="node15" class="node"><title>Node15</title>
<polygon fill="white" stroke="#bfbfbf" points="833.5,-112.5 833.5,-131.5 884.5,-131.5 884.5,-112.5 833.5,-112.5"/>
<text text-anchor="middle" x="859" y="-119.5" font-family="Verdana" font-size="10.00">errno.h</text>
</g>
<!-- Node1&#45;&gt;Node15 -->
<g id="edge14" class="edge"><title>Node1&#45;&gt;Node15</title>
<path fill="none" stroke="midnightblue" d="M574.308,-180.77C638.45,-169.697 732.728,-152.555 823.52,-132.218"/>
<polygon fill="midnightblue" stroke="midnightblue" points="824.445,-135.597 833.429,-129.982 822.904,-128.769 824.445,-135.597"/>
</g>
<!-- Node3 -->
<g id="node3" class="node"><title>Node3</title>
<g id="a_node3"><a xlink:href="Socket_8h.html" target="_top" xlink:title="Socket.h">
<polygon fill="white" stroke="black" points="25.5,-56.5 25.5,-75.5 84.5,-75.5 84.5,-56.5 25.5,-56.5"/>
<text text-anchor="middle" x="55" y="-63.5" font-family="Verdana" font-size="10.00">Socket.h</text>
</a>
</g>
</g>
<!-- Node2&#45;&gt;Node3 -->
<g id="edge2" class="edge"><title>Node2&#45;&gt;Node3</title>
<path fill="none" stroke="midnightblue" d="M55,-112.083C55,-105.006 55,-94.8611 55,-85.9865"/>
<polygon fill="midnightblue" stroke="midnightblue" points="58.5001,-85.751 55,-75.7511 51.5001,-85.7511 58.5001,-85.751"/>
</g>
<!-- Node4 -->
<g id="node4" class="node"><title>Node4</title>
<polygon fill="white" stroke="#bfbfbf" points="0,-0.5 0,-19.5 44,-19.5 44,-0.5 0,-0.5"/>
<text text-anchor="middle" x="22" y="-7.5" font-family="Verdana" font-size="10.00">string</text>
</g>
<!-- Node3&#45;&gt;Node4 -->
<g id="edge3" class="edge"><title>Node3&#45;&gt;Node4</title>
<path fill="none" stroke="midnightblue" d="M49.5507,-56.083C44.9855,-48.6127 38.3316,-37.7244 32.7066,-28.5199"/>
<polygon fill="midnightblue" stroke="midnightblue" points="35.5489,-26.4588 27.3479,-19.7511 29.5759,-30.109 35.5489,-26.4588"/>
</g>
<!-- Node5 -->
<g id="node5" class="node"><title>Node5</title>
<polygon fill="white" stroke="#bfbfbf" points="62.5,-0.5 62.5,-19.5 115.5,-19.5 115.5,-0.5 62.5,-0.5"/>
<text text-anchor="middle" x="89" y="-7.5" font-family="Verdana" font-size="10.00">stdint.h</text>
</g>
<!-- Node3&#45;&gt;Node5 -->
<g id="edge4" class="edge"><title>Node3&#45;&gt;Node5</title>
<path fill="none" stroke="midnightblue" d="M60.6144,-56.083C65.3674,-48.5341 72.3181,-37.4948 78.1516,-28.2298"/>
<polygon fill="midnightblue" stroke="midnightblue" points="81.1237,-30.0783 83.4901,-19.7511 75.2001,-26.3486 81.1237,-30.0783"/>
</g>
</g>
</svg>
