<?xml version="1.0" encoding="UTF-8" standalone="no"?>
<!DOCTYPE svg PUBLIC "-//W3C//DTD SVG 1.1//EN"
 "http://www.w3.org/Graphics/SVG/1.1/DTD/svg11.dtd">
<!-- Generated by graphviz version 2.38.0 (20140413.2041)
 -->
<!-- Title: /home/dawagner/dev/parameter&#45;framework/parameter/ParameterBlackboard.h Pages: 1 -->
<svg width="230pt" height="162pt"
 viewBox="0.00 0.00 230.00 162.00" xmlns="http://www.w3.org/2000/svg" xmlns:xlink="http://www.w3.org/1999/xlink">
<g id="graph0" class="graph" transform="scale(1 1) rotate(0) translate(4 158)">
<title>/home/dawagner/dev/parameter&#45;framework/parameter/ParameterBlackboard.h</title>
<polygon fill="white" stroke="none" points="-4,4 -4,-158 226,-158 226,4 -4,4"/>
<!-- Node1 -->
<g id="node1" class="node"><title>Node1</title>
<polygon fill="#bfbfbf" stroke="black" points="0,-112.5 0,-153.5 186,-153.5 186,-112.5 0,-112.5"/>
<text text-anchor="start" x="8" y="-141.5" font-family="Verdana" font-size="10.00">/home/dawagner/dev</text>
<text text-anchor="start" x="8" y="-130.5" font-family="Verdana" font-size="10.00">/parameter&#45;framework</text>
<text text-anchor="middle" x="93" y="-119.5" font-family="Verdana" font-size="10.00">/parameter/ParameterBlackboard.h</text>
</g>
<!-- Node2 -->
<g id="node2" class="node"><title>Node2</title>
<polygon fill="white" stroke="#bfbfbf" points="32.5,-0.5 32.5,-19.5 85.5,-19.5 85.5,-0.5 32.5,-0.5"/>
<text text-anchor="middle" x="59" y="-7.5" font-family="Verdana" font-size="10.00">stdint.h</text>
</g>
<!-- Node1&#45;&gt;Node2 -->
<g id="edge1" class="edge"><title>Node1&#45;&gt;Node2</title>
<path fill="none" stroke="midnightblue" d="M86.3324,-112.405C82.784,-101.703 78.4529,-88.1832 75,-76 70.6372,-60.6067 66.3396,-42.9713 63.2987,-29.9572"/>
<polygon fill="midnightblue" stroke="midnightblue" points="66.6338,-28.8428 60.9799,-19.8827 59.8122,-30.413 66.6338,-28.8428"/>
</g>
<!-- Node3 -->
<g id="node3" class="node"><title>Node3</title>
<g id="a_node3"><a xlink:href="BinaryStream_8h.html" target="_top" xlink:title="BinaryStream.h">
<polygon fill="white" stroke="black" points="84,-56.5 84,-75.5 176,-75.5 176,-56.5 84,-56.5"/>
<text text-anchor="middle" x="130" y="-63.5" font-family="Verdana" font-size="10.00">BinaryStream.h</text>
</a>
</g>
</g>
<!-- Node1&#45;&gt;Node3 -->
<g id="edge2" class="edge"><title>Node1&#45;&gt;Node3</title>
<path fill="none" stroke="midnightblue" d="M104.101,-112.498C109.174,-103.586 115.135,-93.1135 120.059,-84.4636"/>
<polygon fill="midnightblue" stroke="midnightblue" points="123.169,-86.0746 125.075,-75.6525 117.086,-82.6117 123.169,-86.0746"/>
</g>
<!-- Node3&#45;&gt;Node2 -->
<g id="edge3" class="edge"><title>Node3&#45;&gt;Node2</title>
<path fill="none" stroke="midnightblue" d="M118.593,-56.324C107.891,-48.1849 91.6593,-35.8395 78.8372,-26.0874"/>
<polygon fill="midnightblue" stroke="midnightblue" points="80.6932,-23.1018 70.6149,-19.8339 76.4556,-28.6734 80.6932,-23.1018"/>
</g>
<!-- Node4 -->
<g id="node4" class="node"><title>Node4</title>
<polygon fill="white" stroke="#bfbfbf" points="106,-0.5 106,-19.5 150,-19.5 150,-0.5 106,-0.5"/>
<text text-anchor="middle" x="128" y="-7.5" font-family="Verdana" font-size="10.00">string</text>
</g>
<!-- Node3&#45;&gt;Node4 -->
<g id="edge4" class="edge"><title>Node3&#45;&gt;Node4</title>
<path fill="none" stroke="midnightblue" d="M129.67,-56.083C129.408,-49.0059 129.032,-38.8611 128.703,-29.9865"/>
<polygon fill="midnightblue" stroke="midnightblue" points="132.192,-29.6147 128.324,-19.7511 125.197,-29.8738 132.192,-29.6147"/>
</g>
<!-- Node5 -->
<g id="node5" class="node"><title>Node5</title>
<polygon fill="white" stroke="#bfbfbf" points="168,-0.5 168,-19.5 222,-19.5 222,-0.5 168,-0.5"/>
<text text-anchor="middle" x="195" y="-7.5" font-family="Verdana" font-size="10.00">fstream</text>
</g>
<!-- Node3&#45;&gt;Node5 -->
<g id="edge5" class="edge"><title>Node3&#45;&gt;Node5</title>
<path fill="none" stroke="midnightblue" d="M140.443,-56.324C150.146,-48.2631 164.815,-36.0765 176.5,-26.3695"/>
<polygon fill="midnightblue" stroke="midnightblue" points="178.911,-28.9163 184.367,-19.8339 174.438,-23.532 178.911,-28.9163"/>
</g>
</g>
</svg>
