<?xml version="1.0" encoding="UTF-8" standalone="no"?>
<!DOCTYPE svg PUBLIC "-//W3C//DTD SVG 1.1//EN"
 "http://www.w3.org/Graphics/SVG/1.1/DTD/svg11.dtd">
<!-- Generated by graphviz version 2.38.0 (20140413.2041)
 -->
<!-- Title: /home/dawagner/dev/parameter&#45;framework/parameter/ParameterBlackboard.cpp Pages: 1 -->
<svg width="283pt" height="218pt"
 viewBox="0.00 0.00 282.50 218.00" xmlns="http://www.w3.org/2000/svg" xmlns:xlink="http://www.w3.org/1999/xlink">
<g id="graph0" class="graph" transform="scale(1 1) rotate(0) translate(4 214)">
<title>/home/dawagner/dev/parameter&#45;framework/parameter/ParameterBlackboard.cpp</title>
<polygon fill="white" stroke="none" points="-4,4 -4,-214 278.5,-214 278.5,4 -4,4"/>
<!-- Node1 -->
<g id="node1" class="node"><title>Node1</title>
<polygon fill="#bfbfbf" stroke="black" points="75,-168.5 75,-209.5 272,-209.5 272,-168.5 75,-168.5"/>
<text text-anchor="start" x="83" y="-197.5" font-family="Verdana" font-size="10.00">/home/dawagner/dev</text>
<text text-anchor="start" x="83" y="-186.5" font-family="Verdana" font-size="10.00">/parameter&#45;framework</text>
<text text-anchor="middle" x="173.5" y="-175.5" font-family="Verdana" font-size="10.00">/parameter/ParameterBlackboard.cpp</text>
</g>
<!-- Node2 -->
<g id="node2" class="node"><title>Node2</title>
<g id="a_node2"><a xlink:href="ParameterBlackboard_8h.html" target="_top" xlink:title="ParameterBlackboard.h">
<polygon fill="white" stroke="black" points="0,-112.5 0,-131.5 129,-131.5 129,-112.5 0,-112.5"/>
<text text-anchor="middle" x="64.5" y="-119.5" font-family="Verdana" font-size="10.00">ParameterBlackboard.h</text>
</a>
</g>
</g>
<!-- Node1&#45;&gt;Node2 -->
<g id="edge1" class="edge"><title>Node1&#45;&gt;Node2</title>
<path fill="none" stroke="midnightblue" d="M140.796,-168.498C123.763,-158.34 103.329,-146.155 87.897,-136.952"/>
<polygon fill="midnightblue" stroke="midnightblue" points="89.391,-133.768 79.0096,-131.652 85.8057,-139.78 89.391,-133.768"/>
</g>
<!-- Node7 -->
<g id="node7" class="node"><title>Node7</title>
<polygon fill="white" stroke="#bfbfbf" points="147,-112.5 147,-131.5 200,-131.5 200,-112.5 147,-112.5"/>
<text text-anchor="middle" x="173.5" y="-119.5" font-family="Verdana" font-size="10.00">string.h</text>
</g>
<!-- Node1&#45;&gt;Node7 -->
<g id="edge7" class="edge"><title>Node1&#45;&gt;Node7</title>
<path fill="none" stroke="midnightblue" d="M173.5,-168.498C173.5,-160.065 173.5,-150.235 173.5,-141.874"/>
<polygon fill="midnightblue" stroke="midnightblue" points="177,-141.652 173.5,-131.652 170,-141.653 177,-141.652"/>
</g>
<!-- Node8 -->
<g id="node8" class="node"><title>Node8</title>
<polygon fill="white" stroke="#bfbfbf" points="218.5,-112.5 218.5,-131.5 274.5,-131.5 274.5,-112.5 218.5,-112.5"/>
<text text-anchor="middle" x="246.5" y="-119.5" font-family="Verdana" font-size="10.00">assert.h</text>
</g>
<!-- Node1&#45;&gt;Node8 -->
<g id="edge8" class="edge"><title>Node1&#45;&gt;Node8</title>
<path fill="none" stroke="midnightblue" d="M195.402,-168.498C206.164,-158.915 218.953,-147.528 229.044,-138.543"/>
<polygon fill="midnightblue" stroke="midnightblue" points="231.642,-140.916 236.783,-131.652 226.987,-135.689 231.642,-140.916"/>
</g>
<!-- Node3 -->
<g id="node3" class="node"><title>Node3</title>
<polygon fill="white" stroke="#bfbfbf" points="4,-0.5 4,-19.5 57,-19.5 57,-0.5 4,-0.5"/>
<text text-anchor="middle" x="30.5" y="-7.5" font-family="Verdana" font-size="10.00">stdint.h</text>
</g>
<!-- Node2&#45;&gt;Node3 -->
<g id="edge2" class="edge"><title>Node2&#45;&gt;Node3</title>
<path fill="none" stroke="midnightblue" d="M60.5424,-112.169C56.6204,-103.191 50.6189,-88.8174 46.5,-76 41.55,-60.5964 37.2519,-42.7231 34.3607,-29.6218"/>
<polygon fill="midnightblue" stroke="midnightblue" points="37.7142,-28.5664 32.201,-19.519 30.8689,-30.0298 37.7142,-28.5664"/>
</g>
<!-- Node4 -->
<g id="node4" class="node"><title>Node4</title>
<g id="a_node4"><a xlink:href="BinaryStream_8h.html" target="_top" xlink:title="BinaryStream.h">
<polygon fill="white" stroke="black" points="55.5,-56.5 55.5,-75.5 147.5,-75.5 147.5,-56.5 55.5,-56.5"/>
<text text-anchor="middle" x="101.5" y="-63.5" font-family="Verdana" font-size="10.00">BinaryStream.h</text>
</a>
</g>
</g>
<!-- Node2&#45;&gt;Node4 -->
<g id="edge3" class="edge"><title>Node2&#45;&gt;Node4</title>
<path fill="none" stroke="midnightblue" d="M70.6098,-112.083C75.7822,-104.534 83.3461,-93.4948 89.6944,-84.2298"/>
<polygon fill="midnightblue" stroke="midnightblue" points="92.7388,-85.9787 95.5039,-75.7511 86.9643,-82.0221 92.7388,-85.9787"/>
</g>
<!-- Node4&#45;&gt;Node3 -->
<g id="edge4" class="edge"><title>Node4&#45;&gt;Node3</title>
<path fill="none" stroke="midnightblue" d="M90.0926,-56.324C79.3912,-48.1849 63.1593,-35.8395 50.3372,-26.0874"/>
<polygon fill="midnightblue" stroke="midnightblue" points="52.1932,-23.1018 42.1149,-19.8339 47.9556,-28.6734 52.1932,-23.1018"/>
</g>
<!-- Node5 -->
<g id="node5" class="node"><title>Node5</title>
<polygon fill="white" stroke="#bfbfbf" points="77.5,-0.5 77.5,-19.5 121.5,-19.5 121.5,-0.5 77.5,-0.5"/>
<text text-anchor="middle" x="99.5" y="-7.5" font-family="Verdana" font-size="10.00">string</text>
</g>
<!-- Node4&#45;&gt;Node5 -->
<g id="edge5" class="edge"><title>Node4&#45;&gt;Node5</title>
<path fill="none" stroke="midnightblue" d="M101.17,-56.083C100.908,-49.0059 100.532,-38.8611 100.203,-29.9865"/>
<polygon fill="midnightblue" stroke="midnightblue" points="103.692,-29.6147 99.8241,-19.7511 96.6967,-29.8738 103.692,-29.6147"/>
</g>
<!-- Node6 -->
<g id="node6" class="node"><title>Node6</title>
<polygon fill="white" stroke="#bfbfbf" points="139.5,-0.5 139.5,-19.5 193.5,-19.5 193.5,-0.5 139.5,-0.5"/>
<text text-anchor="middle" x="166.5" y="-7.5" font-family="Verdana" font-size="10.00">fstream</text>
</g>
<!-- Node4&#45;&gt;Node6 -->
<g id="edge6" class="edge"><title>Node4&#45;&gt;Node6</title>
<path fill="none" stroke="midnightblue" d="M111.943,-56.324C121.646,-48.2631 136.315,-36.0765 148,-26.3695"/>
<polygon fill="midnightblue" stroke="midnightblue" points="150.411,-28.9163 155.867,-19.8339 145.938,-23.532 150.411,-28.9163"/>
</g>
</g>
</svg>
