<?xml version="1.0" encoding="UTF-8" standalone="no"?>
<!DOCTYPE svg PUBLIC "-//W3C//DTD SVG 1.1//EN"
 "http://www.w3.org/Graphics/SVG/1.1/DTD/svg11.dtd">
<!-- Generated by graphviz version 2.38.0 (20140413.2041)
 -->
<!-- Title: /home/dawagner/dev/parameter&#45;framework/parameter/ParameterMgr.h Pages: 1 -->
<svg width="1162pt" height="330pt"
 viewBox="0.00 0.00 1161.50 330.00" xmlns="http://www.w3.org/2000/svg" xmlns:xlink="http://www.w3.org/1999/xlink">
<g id="graph0" class="graph" transform="scale(1 1) rotate(0) translate(4 326)">
<title>/home/dawagner/dev/parameter&#45;framework/parameter/ParameterMgr.h</title>
<polygon fill="white" stroke="none" points="-4,4 -4,-326 1157.5,-326 1157.5,4 -4,4"/>
<!-- Node1 -->
<g id="node1" class="node"><title>Node1</title>
<polygon fill="#bfbfbf" stroke="black" points="399.5,-280.5 399.5,-321.5 549.5,-321.5 549.5,-280.5 399.5,-280.5"/>
<text text-anchor="start" x="407.5" y="-309.5" font-family="Verdana" font-size="10.00">/home/dawagner/dev</text>
<text text-anchor="start" x="407.5" y="-298.5" font-family="Verdana" font-size="10.00">/parameter&#45;framework</text>
<text text-anchor="middle" x="474.5" y="-287.5" font-family="Verdana" font-size="10.00">/parameter/ParameterMgr.h</text>
</g>
<!-- Node2 -->
<g id="node2" class="node"><title>Node2</title>
<polygon fill="white" stroke="#bfbfbf" points="0,-224.5 0,-243.5 63,-243.5 63,-224.5 0,-224.5"/>
<text text-anchor="middle" x="31.5" y="-231.5" font-family="Verdana" font-size="10.00">pthread.h</text>
</g>
<!-- Node1&#45;&gt;Node2 -->
<g id="edge1" class="edge"><title>Node1&#45;&gt;Node2</title>
<path fill="none" stroke="midnightblue" d="M399.316,-290.603C319.34,-280.325 189.214,-262.794 77.5,-244 76.0455,-243.755 74.5664,-243.5 73.0734,-243.237"/>
<polygon fill="midnightblue" stroke="midnightblue" points="73.6002,-239.776 63.1335,-241.418 72.3401,-246.661 73.6002,-239.776"/>
</g>
<!-- Node3 -->
<g id="node3" class="node"><title>Node3</title>
<polygon fill="white" stroke="#bfbfbf" points="587.5,-112.5 587.5,-131.5 625.5,-131.5 625.5,-112.5 587.5,-112.5"/>
<text text-anchor="middle" x="606.5" y="-119.5" font-family="Verdana" font-size="10.00">map</text>
</g>
<!-- Node1&#45;&gt;Node3 -->
<g id="edge2" class="edge"><title>Node1&#45;&gt;Node3</title>
<path fill="none" stroke="midnightblue" d="M483.263,-280.251C495.874,-253.146 521.013,-203.717 551.5,-168 561.36,-156.449 574.454,-145.602 585.392,-137.453"/>
<polygon fill="midnightblue" stroke="midnightblue" points="587.536,-140.222 593.599,-131.534 583.441,-134.545 587.536,-140.222"/>
</g>
<!-- Node4 -->
<g id="node4" class="node"><title>Node4</title>
<polygon fill="white" stroke="#bfbfbf" points="125,-0.5 125,-19.5 172,-19.5 172,-0.5 125,-0.5"/>
<text text-anchor="middle" x="148.5" y="-7.5" font-family="Verdana" font-size="10.00">vector</text>
</g>
<!-- Node1&#45;&gt;Node4 -->
<g id="edge3" class="edge"><title>Node1&#45;&gt;Node4</title>
<path fill="none" stroke="midnightblue" d="M399.289,-291.718C287.749,-277.314 91.5,-242.892 91.5,-179 91.5,-179 91.5,-179 91.5,-121 91.5,-84.3005 116.821,-47.6567 133.71,-27.2973"/>
<polygon fill="midnightblue" stroke="midnightblue" points="136.454,-29.475 140.333,-19.6161 131.152,-24.9037 136.454,-29.475"/>
</g>
<!-- Node5 -->
<g id="node5" class="node"><title>Node5</title>
<polygon fill="white" stroke="#bfbfbf" points="305.5,-56.5 305.5,-75.5 335.5,-75.5 335.5,-56.5 305.5,-56.5"/>
<text text-anchor="middle" x="320.5" y="-63.5" font-family="Verdana" font-size="10.00">list</text>
</g>
<!-- Node1&#45;&gt;Node5 -->
<g id="edge4" class="edge"><title>Node1&#45;&gt;Node5</title>
<path fill="none" stroke="midnightblue" d="M399.288,-288.628C340.608,-275.374 262.832,-247.176 224.5,-188 197.534,-146.37 259.654,-101.729 296.202,-80.1614"/>
<polygon fill="midnightblue" stroke="midnightblue" points="298.365,-82.9561 305.305,-74.9509 294.888,-76.8809 298.365,-82.9561"/>
</g>
<!-- Node6 -->
<g id="node6" class="node"><title>Node6</title>
<g id="a_node6"><a xlink:href="RemoteCommandHandlerTemplate_8h.html" target="_top" xlink:title="RemoteCommandHandlerTemplate.h">
<polygon fill="white" stroke="black" points="233.5,-168.5 233.5,-187.5 427.5,-187.5 427.5,-168.5 233.5,-168.5"/>
<text text-anchor="middle" x="330.5" y="-175.5" font-family="Verdana" font-size="10.00">RemoteCommandHandlerTemplate.h</text>
</a>
</g>
</g>
<!-- Node1&#45;&gt;Node6 -->
<g id="edge5" class="edge"><title>Node1&#45;&gt;Node6</title>
<path fill="none" stroke="midnightblue" d="M451.043,-280.29C422.403,-256.224 374.58,-216.04 348.614,-194.22"/>
<polygon fill="midnightblue" stroke="midnightblue" points="350.612,-191.328 340.705,-187.575 346.109,-196.688 350.612,-191.328"/>
</g>
<!-- Node10 -->
<g id="node10" class="node"><title>Node10</title>
<polygon fill="white" stroke="#bfbfbf" points="726.5,-0.5 726.5,-19.5 770.5,-19.5 770.5,-0.5 726.5,-0.5"/>
<text text-anchor="middle" x="748.5" y="-7.5" font-family="Verdana" font-size="10.00">string</text>
</g>
<!-- Node1&#45;&gt;Node10 -->
<g id="edge36" class="edge"><title>Node1&#45;&gt;Node10</title>
<path fill="none" stroke="midnightblue" d="M549.558,-295.42C678.297,-285.488 927.5,-256.282 927.5,-179 927.5,-179 927.5,-179 927.5,-121 927.5,-52.922 832.354,-25.6415 780.798,-15.8565"/>
<polygon fill="midnightblue" stroke="midnightblue" points="781.268,-12.3851 770.809,-14.0756 780.039,-19.2764 781.268,-12.3851"/>
</g>
<!-- Node11 -->
<g id="node11" class="node"><title>Node11</title>
<g id="a_node11"><a xlink:href="PathNavigator_8h.html" target="_top" xlink:title="PathNavigator.h">
<polygon fill="white" stroke="black" points="195.5,-56.5 195.5,-75.5 287.5,-75.5 287.5,-56.5 195.5,-56.5"/>
<text text-anchor="middle" x="241.5" y="-63.5" font-family="Verdana" font-size="10.00">PathNavigator.h</text>
</a>
</g>
</g>
<!-- Node1&#45;&gt;Node11 -->
<g id="edge12" class="edge"><title>Node1&#45;&gt;Node11</title>
<path fill="none" stroke="midnightblue" d="M399.418,-294.237C353.878,-287.689 296.463,-273.73 253.5,-244 228.559,-226.742 223.584,-216.938 214.5,-188 203.163,-151.883 220.147,-108.281 231.889,-84.5259"/>
<polygon fill="midnightblue" stroke="midnightblue" points="235.001,-86.1276 236.503,-75.6397 228.788,-82.9021 235.001,-86.1276"/>
</g>
<!-- Node12 -->
<g id="node12" class="node"><title>Node12</title>
<g id="a_node12"><a xlink:href="SelectionCriterionType_8h.html" target="_top" xlink:title="SelectionCriterionType.h">
<polygon fill="white" stroke="black" points="560,-168.5 560,-187.5 691,-187.5 691,-168.5 560,-168.5"/>
<text text-anchor="middle" x="625.5" y="-175.5" font-family="Verdana" font-size="10.00">SelectionCriterionType.h</text>
</a>
</g>
</g>
<!-- Node1&#45;&gt;Node12 -->
<g id="edge16" class="edge"><title>Node1&#45;&gt;Node12</title>
<path fill="none" stroke="midnightblue" d="M495.772,-280.298C513.064,-264.559 538.308,-242.202 561.5,-224 575.257,-213.203 591.364,-201.884 603.978,-193.299"/>
<polygon fill="midnightblue" stroke="midnightblue" points="606.128,-196.071 612.462,-187.578 602.215,-190.267 606.128,-196.071"/>
</g>
<!-- Node13 -->
<g id="node13" class="node"><title>Node13</title>
<g id="a_node13"><a xlink:href="Element_8h.html" target="_top" xlink:title="Element.h">
<polygon fill="white" stroke="black" points="338,-112.5 338,-131.5 403,-131.5 403,-112.5 338,-112.5"/>
<text text-anchor="middle" x="370.5" y="-119.5" font-family="Verdana" font-size="10.00">Element.h</text>
</a>
</g>
</g>
<!-- Node1&#45;&gt;Node13 -->
<g id="edge33" class="edge"><title>Node1&#45;&gt;Node13</title>
<path fill="none" stroke="midnightblue" d="M472.996,-280.283C470.034,-252.774 461.382,-202.391 436.5,-168 426.791,-154.58 411.775,-143.887 398.517,-136.298"/>
<polygon fill="midnightblue" stroke="midnightblue" points="400.17,-133.213 389.707,-131.544 396.846,-139.373 400.17,-133.213"/>
</g>
<!-- Node17 -->
<g id="node17" class="node"><title>Node17</title>
<g id="a_node17"><a xlink:href="SelectionCriterion_8h.html" target="_top" xlink:title="SelectionCriterion.h">
<polygon fill="white" stroke="black" points="570.5,-224.5 570.5,-243.5 680.5,-243.5 680.5,-224.5 570.5,-224.5"/>
<text text-anchor="middle" x="625.5" y="-231.5" font-family="Verdana" font-size="10.00">SelectionCriterion.h</text>
</a>
</g>
</g>
<!-- Node1&#45;&gt;Node17 -->
<g id="edge28" class="edge"><title>Node1&#45;&gt;Node17</title>
<path fill="none" stroke="midnightblue" d="M519.805,-280.498C544.514,-269.861 574.39,-257.001 596.066,-247.67"/>
<polygon fill="midnightblue" stroke="midnightblue" points="597.598,-250.821 605.4,-243.652 594.831,-244.392 597.598,-250.821"/>
</g>
<!-- Node19 -->
<g id="node19" class="node"><title>Node19</title>
<polygon fill="white" stroke="#bfbfbf" points="956,-224.5 956,-243.5 1039,-243.5 1039,-224.5 956,-224.5"/>
<text text-anchor="middle" x="997.5" y="-231.5" font-family="Verdana" font-size="10.00">XmlDocSink.h</text>
</g>
<!-- Node1&#45;&gt;Node19 -->
<g id="edge34" class="edge"><title>Node1&#45;&gt;Node19</title>
<path fill="none" stroke="midnightblue" d="M549.841,-291.904C642.253,-281.758 803.624,-263.338 941.5,-244 942.963,-243.795 944.446,-243.583 945.943,-243.365"/>
<polygon fill="midnightblue" stroke="midnightblue" points="946.566,-246.811 955.938,-241.869 945.53,-239.888 946.566,-246.811"/>
</g>
<!-- Node20 -->
<g id="node20" class="node"><title>Node20</title>
<polygon fill="white" stroke="#bfbfbf" points="1057.5,-224.5 1057.5,-243.5 1153.5,-243.5 1153.5,-224.5 1057.5,-224.5"/>
<text text-anchor="middle" x="1105.5" y="-231.5" font-family="Verdana" font-size="10.00">XmlDocSource.h</text>
</g>
<!-- Node1&#45;&gt;Node20 -->
<g id="edge35" class="edge"><title>Node1&#45;&gt;Node20</title>
<path fill="none" stroke="midnightblue" d="M549.877,-294.081C657.762,-285.291 862.648,-267.412 1047.16,-244.104"/>
<polygon fill="midnightblue" stroke="midnightblue" points="1047.85,-247.545 1057.33,-242.812 1046.97,-240.601 1047.85,-247.545"/>
</g>
<!-- Node6&#45;&gt;Node4 -->
<g id="edge6" class="edge"><title>Node6&#45;&gt;Node4</title>
<path fill="none" stroke="midnightblue" d="M305.037,-168.415C268.472,-154.753 201.539,-124.54 165.5,-76 155.613,-62.6839 151.465,-44.1079 149.73,-30.2228"/>
<polygon fill="midnightblue" stroke="midnightblue" points="153.179,-29.5138 148.768,-19.8811 146.21,-30.1624 153.179,-29.5138"/>
</g>
<!-- Node7 -->
<g id="node7" class="node"><title>Node7</title>
<g id="a_node7"><a xlink:href="RemoteCommandHandler_8h.html" target="_top" xlink:title="RemoteCommandHandler.h">
<polygon fill="white" stroke="black" points="421,-112.5 421,-131.5 570,-131.5 570,-112.5 421,-112.5"/>
<text text-anchor="middle" x="495.5" y="-119.5" font-family="Verdana" font-size="10.00">RemoteCommandHandler.h</text>
</a>
</g>
</g>
<!-- Node6&#45;&gt;Node7 -->
<g id="edge7" class="edge"><title>Node6&#45;&gt;Node7</title>
<path fill="none" stroke="midnightblue" d="M356.645,-168.444C384.523,-159.32 428.848,-144.813 459.9,-134.651"/>
<polygon fill="midnightblue" stroke="midnightblue" points="461.062,-137.953 469.478,-131.516 458.885,-131.3 461.062,-137.953"/>
</g>
<!-- Node8 -->
<g id="node8" class="node"><title>Node8</title>
<g id="a_node8"><a xlink:href="RemoteCommand_8h.html" target="_top" xlink:title="RemoteCommand.h">
<polygon fill="white" stroke="black" points="569,-56.5 569,-75.5 682,-75.5 682,-56.5 569,-56.5"/>
<text text-anchor="middle" x="625.5" y="-63.5" font-family="Verdana" font-size="10.00">RemoteCommand.h</text>
</a>
</g>
</g>
<!-- Node7&#45;&gt;Node8 -->
<g id="edge8" class="edge"><title>Node7&#45;&gt;Node8</title>
<path fill="none" stroke="midnightblue" d="M516.099,-112.444C537.493,-103.557 571.181,-89.5632 595.524,-79.4514"/>
<polygon fill="midnightblue" stroke="midnightblue" points="597.105,-82.5848 604.997,-75.5164 594.42,-76.1203 597.105,-82.5848"/>
</g>
<!-- Node7&#45;&gt;Node10 -->
<g id="edge11" class="edge"><title>Node7&#45;&gt;Node10</title>
<path fill="none" stroke="midnightblue" d="M554.335,-112.486C617.815,-102.824 711.604,-86.9858 724.5,-76 738.073,-64.438 743.974,-44.4752 746.537,-29.7152"/>
<polygon fill="midnightblue" stroke="midnightblue" points="750.024,-30.0511 747.919,-19.6675 743.089,-29.0977 750.024,-30.0511"/>
</g>
<!-- Node9 -->
<g id="node9" class="node"><title>Node9</title>
<polygon fill="white" stroke="#bfbfbf" points="337,-0.5 337,-19.5 390,-19.5 390,-0.5 337,-0.5"/>
<text text-anchor="middle" x="363.5" y="-7.5" font-family="Verdana" font-size="10.00">stdint.h</text>
</g>
<!-- Node8&#45;&gt;Node9 -->
<g id="edge9" class="edge"><title>Node8&#45;&gt;Node9</title>
<path fill="none" stroke="midnightblue" d="M583.985,-56.4435C533.306,-45.9982 448.401,-28.4986 400.076,-18.5385"/>
<polygon fill="midnightblue" stroke="midnightblue" points="400.558,-15.0644 390.057,-16.4736 399.145,-21.9203 400.558,-15.0644"/>
</g>
<!-- Node8&#45;&gt;Node10 -->
<g id="edge10" class="edge"><title>Node8&#45;&gt;Node10</title>
<path fill="none" stroke="midnightblue" d="M644.99,-56.4435C665.142,-47.5961 696.823,-33.6875 719.831,-23.5865"/>
<polygon fill="midnightblue" stroke="midnightblue" points="721.352,-26.7411 729.101,-19.5164 718.538,-20.3316 721.352,-26.7411"/>
</g>
<!-- Node11&#45;&gt;Node4 -->
<g id="edge13" class="edge"><title>Node11&#45;&gt;Node4</title>
<path fill="none" stroke="midnightblue" d="M226.558,-56.324C211.915,-47.8215 189.366,-34.7288 172.262,-24.7975"/>
<polygon fill="midnightblue" stroke="midnightblue" points="173.81,-21.6491 163.405,-19.6545 170.295,-27.7027 173.81,-21.6491"/>
</g>
<!-- Node11&#45;&gt;Node9 -->
<g id="edge15" class="edge"><title>Node11&#45;&gt;Node9</title>
<path fill="none" stroke="midnightblue" d="M260.831,-56.4435C280.82,-47.5961 312.243,-33.6875 335.064,-23.5865"/>
<polygon fill="midnightblue" stroke="midnightblue" points="336.532,-26.7645 344.259,-19.5164 333.698,-20.3635 336.532,-26.7645"/>
</g>
<!-- Node11&#45;&gt;Node10 -->
<g id="edge14" class="edge"><title>Node11&#45;&gt;Node10</title>
<path fill="none" stroke="midnightblue" d="M287.682,-57.2264C290.663,-56.7916 293.622,-56.3783 296.5,-56 453.37,-35.3773 641.982,-19.4396 716.23,-13.5103"/>
<polygon fill="midnightblue" stroke="midnightblue" points="716.646,-16.9885 726.338,-12.7088 716.092,-10.0104 716.646,-16.9885"/>
</g>
<!-- Node12&#45;&gt;Node3 -->
<g id="edge25" class="edge"><title>Node12&#45;&gt;Node3</title>
<path fill="none" stroke="midnightblue" d="M622.363,-168.083C619.817,-160.849 616.144,-150.409 612.973,-141.397"/>
<polygon fill="midnightblue" stroke="midnightblue" points="616.2,-140.023 609.579,-131.751 609.597,-142.346 616.2,-140.023"/>
</g>
<!-- Node12&#45;&gt;Node10 -->
<g id="edge26" class="edge"><title>Node12&#45;&gt;Node10</title>
<path fill="none" stroke="midnightblue" d="M679.376,-168.477C735.709,-159.019 817.237,-143.566 826.5,-132 855.348,-95.9799 802.006,-48.9742 770.027,-25.5675"/>
<polygon fill="midnightblue" stroke="midnightblue" points="771.839,-22.5609 761.66,-19.6201 767.783,-28.2664 771.839,-22.5609"/>
</g>
<!-- Node12&#45;&gt;Node13 -->
<g id="edge17" class="edge"><title>Node12&#45;&gt;Node13</title>
<path fill="none" stroke="midnightblue" d="M585.055,-168.492C544.297,-159.909 479.309,-146.203 413.238,-132.152"/>
<polygon fill="midnightblue" stroke="midnightblue" points="413.567,-128.644 403.057,-129.986 412.11,-135.491 413.567,-128.644"/>
</g>
<!-- Node16 -->
<g id="node16" class="node"><title>Node16</title>
<polygon fill="white" stroke="#bfbfbf" points="644,-112.5 644,-131.5 817,-131.5 817,-112.5 644,-112.5"/>
<text text-anchor="middle" x="730.5" y="-119.5" font-family="Verdana" font-size="10.00">SelectionCriterionTypeInterface.h</text>
</g>
<!-- Node12&#45;&gt;Node16 -->
<g id="edge27" class="edge"><title>Node12&#45;&gt;Node16</title>
<path fill="none" stroke="midnightblue" d="M642.37,-168.324C659.209,-159.664 685.307,-146.242 704.738,-136.249"/>
<polygon fill="midnightblue" stroke="midnightblue" points="706.38,-139.341 713.672,-131.655 703.178,-133.116 706.38,-139.341"/>
</g>
<!-- Node13&#45;&gt;Node4 -->
<g id="edge19" class="edge"><title>Node13&#45;&gt;Node4</title>
<path fill="none" stroke="midnightblue" d="M337.677,-120.512C298.141,-118.352 231.447,-109.522 186.5,-76 170.817,-64.3034 160.483,-44.0653 154.604,-29.2716"/>
<polygon fill="midnightblue" stroke="midnightblue" points="157.814,-27.8563 151.098,-19.6616 151.238,-30.2555 157.814,-27.8563"/>
</g>
<!-- Node13&#45;&gt;Node5 -->
<g id="edge21" class="edge"><title>Node13&#45;&gt;Node5</title>
<path fill="none" stroke="midnightblue" d="M362.244,-112.083C355.035,-104.298 344.39,-92.8015 335.654,-83.3665"/>
<polygon fill="midnightblue" stroke="midnightblue" points="337.965,-80.7108 328.603,-75.7511 332.829,-85.4666 337.965,-80.7108"/>
</g>
<!-- Node13&#45;&gt;Node9 -->
<g id="edge20" class="edge"><title>Node13&#45;&gt;Node9</title>
<path fill="none" stroke="midnightblue" d="M369.951,-112.368C368.821,-94.617 366.215,-53.6664 364.683,-29.5974"/>
<polygon fill="midnightblue" stroke="midnightblue" points="368.175,-29.3489 364.047,-19.5914 361.189,-29.7935 368.175,-29.3489"/>
</g>
<!-- Node13&#45;&gt;Node10 -->
<g id="edge18" class="edge"><title>Node13&#45;&gt;Node10</title>
<path fill="none" stroke="midnightblue" d="M403.008,-113.756C406.208,-113.127 409.413,-112.529 412.5,-112 535.732,-90.8834 581.16,-134.797 691.5,-76 712.122,-65.011 728.743,-43.3477 738.602,-28.0576"/>
<polygon fill="midnightblue" stroke="midnightblue" points="741.598,-29.8677 743.842,-19.5133 735.631,-26.2079 741.598,-29.8677"/>
</g>
<!-- Node13&#45;&gt;Node11 -->
<g id="edge24" class="edge"><title>Node13&#45;&gt;Node11</title>
<path fill="none" stroke="midnightblue" d="M350.06,-112.444C328.83,-103.557 295.401,-89.5632 271.245,-79.4514"/>
<polygon fill="midnightblue" stroke="midnightblue" points="272.421,-76.1493 261.845,-75.5164 269.718,-82.6064 272.421,-76.1493"/>
</g>
<!-- Node14 -->
<g id="node14" class="node"><title>Node14</title>
<polygon fill="white" stroke="#bfbfbf" points="391.5,-56.5 391.5,-75.5 455.5,-75.5 455.5,-56.5 391.5,-56.5"/>
<text text-anchor="middle" x="423.5" y="-63.5" font-family="Verdana" font-size="10.00">XmlSink.h</text>
</g>
<!-- Node13&#45;&gt;Node14 -->
<g id="edge22" class="edge"><title>Node13&#45;&gt;Node14</title>
<path fill="none" stroke="midnightblue" d="M379.252,-112.083C386.97,-104.22 398.405,-92.5688 407.717,-83.0813"/>
<polygon fill="midnightblue" stroke="midnightblue" points="410.404,-85.3396 414.911,-75.7511 405.408,-80.4363 410.404,-85.3396"/>
</g>
<!-- Node15 -->
<g id="node15" class="node"><title>Node15</title>
<polygon fill="white" stroke="#bfbfbf" points="474,-56.5 474,-75.5 551,-75.5 551,-56.5 474,-56.5"/>
<text text-anchor="middle" x="512.5" y="-63.5" font-family="Verdana" font-size="10.00">XmlSource.h</text>
</g>
<!-- Node13&#45;&gt;Node15 -->
<g id="edge23" class="edge"><title>Node13&#45;&gt;Node15</title>
<path fill="none" stroke="midnightblue" d="M393,-112.444C416.577,-103.478 453.822,-89.314 480.464,-79.1827"/>
<polygon fill="midnightblue" stroke="midnightblue" points="482.002,-82.3424 490.105,-75.5164 479.514,-75.7995 482.002,-82.3424"/>
</g>
<!-- Node17&#45;&gt;Node10 -->
<g id="edge32" class="edge"><title>Node17&#45;&gt;Node10</title>
<path fill="none" stroke="midnightblue" d="M680.766,-230.807C745.469,-226.944 846.834,-216.409 870.5,-188 898.183,-154.769 933.039,-178.838 827.5,-56 814.893,-41.3264 796.25,-30.3886 780.24,-22.9728"/>
<polygon fill="midnightblue" stroke="midnightblue" points="781.255,-19.5971 770.689,-18.8087 778.457,-26.0137 781.255,-19.5971"/>
</g>
<!-- Node17&#45;&gt;Node12 -->
<g id="edge30" class="edge"><title>Node17&#45;&gt;Node12</title>
<path fill="none" stroke="midnightblue" d="M625.5,-224.083C625.5,-217.006 625.5,-206.861 625.5,-197.986"/>
<polygon fill="midnightblue" stroke="midnightblue" points="629,-197.751 625.5,-187.751 622,-197.751 629,-197.751"/>
</g>
<!-- Node17&#45;&gt;Node13 -->
<g id="edge29" class="edge"><title>Node17&#45;&gt;Node13</title>
<path fill="none" stroke="midnightblue" d="M605.491,-224.368C560.708,-205.051 452.237,-158.259 399.821,-135.648"/>
<polygon fill="midnightblue" stroke="midnightblue" points="400.985,-132.339 390.416,-131.591 398.212,-138.766 400.985,-132.339"/>
</g>
<!-- Node18 -->
<g id="node18" class="node"><title>Node18</title>
<polygon fill="white" stroke="#bfbfbf" points="709.5,-168.5 709.5,-187.5 861.5,-187.5 861.5,-168.5 709.5,-168.5"/>
<text text-anchor="middle" x="785.5" y="-175.5" font-family="Verdana" font-size="10.00">SelectionCriterionInterface.h</text>
</g>
<!-- Node17&#45;&gt;Node18 -->
<g id="edge31" class="edge"><title>Node17&#45;&gt;Node18</title>
<path fill="none" stroke="midnightblue" d="M650.852,-224.444C677.769,-215.359 720.496,-200.939 750.587,-190.783"/>
<polygon fill="midnightblue" stroke="midnightblue" points="751.91,-194.031 760.266,-187.516 749.672,-187.398 751.91,-194.031"/>
</g>
</g>
</svg>
