<?xml version="1.0" encoding="UTF-8" standalone="no"?>
<!DOCTYPE svg PUBLIC "-//W3C//DTD SVG 1.1//EN"
 "http://www.w3.org/Graphics/SVG/1.1/DTD/svg11.dtd">
<!-- Generated by graphviz version 2.38.0 (20140413.2041)
 -->
<!-- Title: /home/dawagner/dev/parameter&#45;framework/parameter/ParameterMgrLogger.h Pages: 1 -->
<svg width="1432pt" height="386pt"
 viewBox="0.00 0.00 1432.05 386.00" xmlns="http://www.w3.org/2000/svg" xmlns:xlink="http://www.w3.org/1999/xlink">
<g id="graph0" class="graph" transform="scale(1 1) rotate(0) translate(4 382)">
<title>/home/dawagner/dev/parameter&#45;framework/parameter/ParameterMgrLogger.h</title>
<polygon fill="white" stroke="none" points="-4,4 -4,-382 1428.05,-382 1428.05,4 -4,4"/>
<!-- Node1 -->
<g id="node1" class="node"><title>Node1</title>
<polygon fill="#bfbfbf" stroke="black" points="100.5,-336.5 100.5,-377.5 283.5,-377.5 283.5,-336.5 100.5,-336.5"/>
<text text-anchor="start" x="108.5" y="-365.5" font-family="Verdana" font-size="10.00">/home/dawagner/dev</text>
<text text-anchor="start" x="108.5" y="-354.5" font-family="Verdana" font-size="10.00">/parameter&#45;framework</text>
<text text-anchor="middle" x="192" y="-343.5" font-family="Verdana" font-size="10.00">/parameter/ParameterMgrLogger.h</text>
</g>
<!-- Node2 -->
<g id="node2" class="node"><title>Node2</title>
<polygon fill="white" stroke="#bfbfbf" points="0,-280.5 0,-299.5 164,-299.5 164,-280.5 0,-280.5"/>
<text text-anchor="middle" x="82" y="-287.5" font-family="Verdana" font-size="10.00">ParameterMgrLoggerForward.h</text>
</g>
<!-- Node1&#45;&gt;Node2 -->
<g id="edge1" class="edge"><title>Node1&#45;&gt;Node2</title>
<path fill="none" stroke="midnightblue" d="M158.996,-336.498C141.807,-326.34 121.186,-314.155 105.612,-304.952"/>
<polygon fill="midnightblue" stroke="midnightblue" points="107.033,-301.727 96.6427,-299.652 103.471,-307.753 107.033,-301.727"/>
</g>
<!-- Node3 -->
<g id="node3" class="node"><title>Node3</title>
<g id="a_node3"><a xlink:href="ParameterMgr_8h.html" target="_top" xlink:title="ParameterMgr.h">
<polygon fill="white" stroke="black" points="877.5,-280.5 877.5,-299.5 970.5,-299.5 970.5,-280.5 877.5,-280.5"/>
<text text-anchor="middle" x="924" y="-287.5" font-family="Verdana" font-size="10.00">ParameterMgr.h</text>
</a>
</g>
</g>
<!-- Node1&#45;&gt;Node3 -->
<g id="edge2" class="edge"><title>Node1&#45;&gt;Node3</title>
<path fill="none" stroke="midnightblue" d="M283.597,-347.866C436.954,-334.249 741.239,-307.229 867.277,-296.037"/>
<polygon fill="midnightblue" stroke="midnightblue" points="867.826,-299.502 877.477,-295.131 867.206,-292.529 867.826,-299.502"/>
</g>
<!-- Node12 -->
<g id="node12" class="node"><title>Node12</title>
<polygon fill="white" stroke="#bfbfbf" points="551,-0.5 551,-19.5 595,-19.5 595,-0.5 551,-0.5"/>
<text text-anchor="middle" x="573" y="-7.5" font-family="Verdana" font-size="10.00">string</text>
</g>
<!-- Node1&#45;&gt;Node12 -->
<g id="edge39" class="edge"><title>Node1&#45;&gt;Node12</title>
<path fill="none" stroke="midnightblue" d="M192,-336.299C192,-312.352 192,-270.712 192,-235 192,-235 192,-235 192,-121 192,-48.6488 448.815,-20.9534 540.75,-13.357"/>
<polygon fill="midnightblue" stroke="midnightblue" points="541.18,-16.8339 550.869,-12.5477 540.622,-9.85617 541.18,-16.8339"/>
</g>
<!-- Node4 -->
<g id="node4" class="node"><title>Node4</title>
<polygon fill="white" stroke="#bfbfbf" points="1331.5,-224.5 1331.5,-243.5 1394.5,-243.5 1394.5,-224.5 1331.5,-224.5"/>
<text text-anchor="middle" x="1363" y="-231.5" font-family="Verdana" font-size="10.00">pthread.h</text>
</g>
<!-- Node3&#45;&gt;Node4 -->
<g id="edge3" class="edge"><title>Node3&#45;&gt;Node4</title>
<path fill="none" stroke="midnightblue" d="M970.785,-285.291C1043.57,-279.174 1188.48,-265.615 1321.33,-243.945"/>
<polygon fill="midnightblue" stroke="midnightblue" points="1321.98,-247.385 1331.28,-242.303 1320.84,-240.478 1321.98,-247.385"/>
</g>
<!-- Node5 -->
<g id="node5" class="node"><title>Node5</title>
<polygon fill="white" stroke="#bfbfbf" points="220,-112.5 220,-131.5 258,-131.5 258,-112.5 220,-112.5"/>
<text text-anchor="middle" x="239" y="-119.5" font-family="Verdana" font-size="10.00">map</text>
</g>
<!-- Node3&#45;&gt;Node5 -->
<g id="edge4" class="edge"><title>Node3&#45;&gt;Node5</title>
<path fill="none" stroke="midnightblue" d="M877.235,-289.563C793.303,-289.447 612.221,-284.04 466,-244 383.057,-221.287 296.456,-164.282 258.63,-137.424"/>
<polygon fill="midnightblue" stroke="midnightblue" points="260.662,-134.575 250.5,-131.579 256.576,-140.258 260.662,-134.575"/>
</g>
<!-- Node6 -->
<g id="node6" class="node"><title>Node6</title>
<polygon fill="white" stroke="#bfbfbf" points="1145.5,-0.5 1145.5,-19.5 1192.5,-19.5 1192.5,-0.5 1145.5,-0.5"/>
<text text-anchor="middle" x="1169" y="-7.5" font-family="Verdana" font-size="10.00">vector</text>
</g>
<!-- Node3&#45;&gt;Node6 -->
<g id="edge5" class="edge"><title>Node3&#45;&gt;Node6</title>
<path fill="none" stroke="midnightblue" d="M970.873,-287.562C1085.12,-283.644 1371.04,-271.203 1404,-244 1427.21,-224.843 1423,-209.098 1423,-179 1423,-179 1423,-179 1423,-121 1423,-26.3498 1272.64,-12.2296 1203.29,-10.7508"/>
<polygon fill="midnightblue" stroke="midnightblue" points="1202.94,-7.24586 1192.9,-10.6116 1202.85,-14.2452 1202.94,-7.24586"/>
</g>
<!-- Node7 -->
<g id="node7" class="node"><title>Node7</title>
<polygon fill="white" stroke="#bfbfbf" points="1154,-56.5 1154,-75.5 1184,-75.5 1184,-56.5 1154,-56.5"/>
<text text-anchor="middle" x="1169" y="-63.5" font-family="Verdana" font-size="10.00">list</text>
</g>
<!-- Node3&#45;&gt;Node7 -->
<g id="edge6" class="edge"><title>Node3&#45;&gt;Node7</title>
<path fill="none" stroke="midnightblue" d="M945.394,-280.378C963.596,-272.462 989.906,-259.611 1010,-244 1073.51,-194.66 1132.38,-117.991 1156.94,-84.1011"/>
<polygon fill="midnightblue" stroke="midnightblue" points="1159.95,-85.903 1162.93,-75.7349 1154.26,-81.8274 1159.95,-85.903"/>
</g>
<!-- Node8 -->
<g id="node8" class="node"><title>Node8</title>
<g id="a_node8"><a xlink:href="RemoteCommandHandlerTemplate_8h.html" target="_top" xlink:title="RemoteCommandHandlerTemplate.h">
<polygon fill="white" stroke="black" points="827,-168.5 827,-187.5 1021,-187.5 1021,-168.5 827,-168.5"/>
<text text-anchor="middle" x="924" y="-175.5" font-family="Verdana" font-size="10.00">RemoteCommandHandlerTemplate.h</text>
</a>
</g>
</g>
<!-- Node3&#45;&gt;Node8 -->
<g id="edge7" class="edge"><title>Node3&#45;&gt;Node8</title>
<path fill="none" stroke="midnightblue" d="M924,-280.368C924,-262.617 924,-221.666 924,-197.597"/>
<polygon fill="midnightblue" stroke="midnightblue" points="927.5,-197.591 924,-187.591 920.5,-197.591 927.5,-197.591"/>
</g>
<!-- Node3&#45;&gt;Node12 -->
<g id="edge38" class="edge"><title>Node3&#45;&gt;Node12</title>
<path fill="none" stroke="midnightblue" d="M877.372,-288.877C815.171,-287.247 702.599,-279.125 614,-244 573.654,-228.005 554.043,-226.496 534,-188 506.081,-134.378 542.034,-61.5492 561.713,-28.5442"/>
<polygon fill="midnightblue" stroke="midnightblue" points="564.933,-29.9924 567.21,-19.6452 558.977,-26.3141 564.933,-29.9924"/>
</g>
<!-- Node13 -->
<g id="node13" class="node"><title>Node13</title>
<g id="a_node13"><a xlink:href="PathNavigator_8h.html" target="_top" xlink:title="PathNavigator.h">
<polygon fill="white" stroke="black" points="790,-56.5 790,-75.5 882,-75.5 882,-56.5 790,-56.5"/>
<text text-anchor="middle" x="836" y="-63.5" font-family="Verdana" font-size="10.00">PathNavigator.h</text>
</a>
</g>
</g>
<!-- Node3&#45;&gt;Node13 -->
<g id="edge14" class="edge"><title>Node3&#45;&gt;Node13</title>
<path fill="none" stroke="midnightblue" d="M909.129,-280.466C884.651,-265.445 836.719,-231.693 818,-188 803.283,-153.649 817.301,-109.354 827.506,-85.0142"/>
<polygon fill="midnightblue" stroke="midnightblue" points="830.819,-86.1762 831.68,-75.6164 824.422,-83.3347 830.819,-86.1762"/>
</g>
<!-- Node14 -->
<g id="node14" class="node"><title>Node14</title>
<g id="a_node14"><a xlink:href="SelectionCriterionType_8h.html" target="_top" xlink:title="SelectionCriterionType.h">
<polygon fill="white" stroke="black" points="355.5,-168.5 355.5,-187.5 486.5,-187.5 486.5,-168.5 355.5,-168.5"/>
<text text-anchor="middle" x="421" y="-175.5" font-family="Verdana" font-size="10.00">SelectionCriterionType.h</text>
</a>
</g>
</g>
<!-- Node3&#45;&gt;Node14 -->
<g id="edge18" class="edge"><title>Node3&#45;&gt;Node14</title>
<path fill="none" stroke="midnightblue" d="M877.292,-287.368C781.907,-283.495 568.081,-271.9 501,-244 474.79,-233.099 450.346,-210.751 435.542,-195.327"/>
<polygon fill="midnightblue" stroke="midnightblue" points="437.727,-192.537 428.36,-187.587 432.596,-197.298 437.727,-192.537"/>
</g>
<!-- Node15 -->
<g id="node15" class="node"><title>Node15</title>
<g id="a_node15"><a xlink:href="Element_8h.html" target="_top" xlink:title="Element.h">
<polygon fill="white" stroke="black" points="950.5,-112.5 950.5,-131.5 1015.5,-131.5 1015.5,-112.5 950.5,-112.5"/>
<text text-anchor="middle" x="983" y="-119.5" font-family="Verdana" font-size="10.00">Element.h</text>
</a>
</g>
</g>
<!-- Node3&#45;&gt;Node15 -->
<g id="edge35" class="edge"><title>Node3&#45;&gt;Node15</title>
<path fill="none" stroke="midnightblue" d="M938.871,-280.466C963.349,-265.445 1011.28,-231.693 1030,-188 1038.1,-169.099 1021.22,-150.378 1005.48,-137.917"/>
<polygon fill="midnightblue" stroke="midnightblue" points="1007.15,-134.796 997.021,-131.676 1002.99,-140.429 1007.15,-134.796"/>
</g>
<!-- Node19 -->
<g id="node19" class="node"><title>Node19</title>
<g id="a_node19"><a xlink:href="SelectionCriterion_8h.html" target="_top" xlink:title="SelectionCriterion.h">
<polygon fill="white" stroke="black" points="623,-224.5 623,-243.5 733,-243.5 733,-224.5 623,-224.5"/>
<text text-anchor="middle" x="678" y="-231.5" font-family="Verdana" font-size="10.00">SelectionCriterion.h</text>
</a>
</g>
</g>
<!-- Node3&#45;&gt;Node19 -->
<g id="edge30" class="edge"><title>Node3&#45;&gt;Node19</title>
<path fill="none" stroke="midnightblue" d="M885.021,-280.444C842.106,-271.023 773.054,-255.866 726.631,-245.675"/>
<polygon fill="midnightblue" stroke="midnightblue" points="727.315,-242.242 716.797,-243.516 725.814,-249.079 727.315,-242.242"/>
</g>
<!-- Node21 -->
<g id="node21" class="node"><title>Node21</title>
<polygon fill="white" stroke="#bfbfbf" points="1115.5,-224.5 1115.5,-243.5 1198.5,-243.5 1198.5,-224.5 1115.5,-224.5"/>
<text text-anchor="middle" x="1157" y="-231.5" font-family="Verdana" font-size="10.00">XmlDocSink.h</text>
</g>
<!-- Node3&#45;&gt;Node21 -->
<g id="edge36" class="edge"><title>Node3&#45;&gt;Node21</title>
<path fill="none" stroke="midnightblue" d="M960.92,-280.444C1001.4,-271.063 1066.42,-255.993 1110.38,-245.804"/>
<polygon fill="midnightblue" stroke="midnightblue" points="1111.3,-249.184 1120.25,-243.516 1109.72,-242.365 1111.3,-249.184"/>
</g>
<!-- Node22 -->
<g id="node22" class="node"><title>Node22</title>
<polygon fill="white" stroke="#bfbfbf" points="1217,-224.5 1217,-243.5 1313,-243.5 1313,-224.5 1217,-224.5"/>
<text text-anchor="middle" x="1265" y="-231.5" font-family="Verdana" font-size="10.00">XmlDocSource.h</text>
</g>
<!-- Node3&#45;&gt;Node22 -->
<g id="edge37" class="edge"><title>Node3&#45;&gt;Node22</title>
<path fill="none" stroke="midnightblue" d="M970.7,-281.605C1032.2,-271.865 1140.34,-254.74 1207.01,-244.182"/>
<polygon fill="midnightblue" stroke="midnightblue" points="1207.61,-247.631 1216.94,-242.61 1206.52,-240.717 1207.61,-247.631"/>
</g>
<!-- Node8&#45;&gt;Node6 -->
<g id="edge8" class="edge"><title>Node8&#45;&gt;Node6</title>
<path fill="none" stroke="midnightblue" d="M1017.78,-168.476C1078.69,-157.518 1153.8,-132.59 1193,-76 1203.23,-61.2365 1193.36,-41.5857 1183.36,-27.7692"/>
<polygon fill="midnightblue" stroke="midnightblue" points="1185.91,-25.3461 1176.98,-19.6423 1180.4,-29.6691 1185.91,-25.3461"/>
</g>
<!-- Node9 -->
<g id="node9" class="node"><title>Node9</title>
<g id="a_node9"><a xlink:href="RemoteCommandHandler_8h.html" target="_top" xlink:title="RemoteCommandHandler.h">
<polygon fill="white" stroke="black" points="584.5,-112.5 584.5,-131.5 733.5,-131.5 733.5,-112.5 584.5,-112.5"/>
<text text-anchor="middle" x="659" y="-119.5" font-family="Verdana" font-size="10.00">RemoteCommandHandler.h</text>
</a>
</g>
</g>
<!-- Node8&#45;&gt;Node9 -->
<g id="edge9" class="edge"><title>Node8&#45;&gt;Node9</title>
<path fill="none" stroke="midnightblue" d="M882.01,-168.444C835.588,-158.984 760.772,-143.738 710.76,-133.547"/>
<polygon fill="midnightblue" stroke="midnightblue" points="711.291,-130.084 700.794,-131.516 709.893,-136.943 711.291,-130.084"/>
</g>
<!-- Node10 -->
<g id="node10" class="node"><title>Node10</title>
<g id="a_node10"><a xlink:href="RemoteCommand_8h.html" target="_top" xlink:title="RemoteCommand.h">
<polygon fill="white" stroke="black" points="658.5,-56.5 658.5,-75.5 771.5,-75.5 771.5,-56.5 658.5,-56.5"/>
<text text-anchor="middle" x="715" y="-63.5" font-family="Verdana" font-size="10.00">RemoteCommand.h</text>
</a>
</g>
</g>
<!-- Node9&#45;&gt;Node10 -->
<g id="edge10" class="edge"><title>Node9&#45;&gt;Node10</title>
<path fill="none" stroke="midnightblue" d="M667.997,-112.324C676.194,-104.42 688.506,-92.5482 698.472,-82.9377"/>
<polygon fill="midnightblue" stroke="midnightblue" points="701.07,-85.2947 705.839,-75.8339 696.211,-80.2558 701.07,-85.2947"/>
</g>
<!-- Node9&#45;&gt;Node12 -->
<g id="edge13" class="edge"><title>Node9&#45;&gt;Node12</title>
<path fill="none" stroke="midnightblue" d="M649.944,-112.463C640.885,-103.713 626.785,-89.5134 616,-76 603.775,-60.682 591.619,-41.8896 583.366,-28.4581"/>
<polygon fill="midnightblue" stroke="midnightblue" points="586.271,-26.4983 578.102,-19.7516 580.281,-30.12 586.271,-26.4983"/>
</g>
<!-- Node11 -->
<g id="node11" class="node"><title>Node11</title>
<polygon fill="white" stroke="#bfbfbf" points="809.5,-0.5 809.5,-19.5 862.5,-19.5 862.5,-0.5 809.5,-0.5"/>
<text text-anchor="middle" x="836" y="-7.5" font-family="Verdana" font-size="10.00">stdint.h</text>
</g>
<!-- Node10&#45;&gt;Node11 -->
<g id="edge11" class="edge"><title>Node10&#45;&gt;Node11</title>
<path fill="none" stroke="midnightblue" d="M734.173,-56.4435C753.909,-47.6356 784.885,-33.8116 807.493,-23.722"/>
<polygon fill="midnightblue" stroke="midnightblue" points="809.211,-26.788 816.917,-19.5164 806.359,-20.3957 809.211,-26.788"/>
</g>
<!-- Node10&#45;&gt;Node12 -->
<g id="edge12" class="edge"><title>Node10&#45;&gt;Node12</title>
<path fill="none" stroke="midnightblue" d="M692.5,-56.4435C668.923,-47.4776 631.678,-33.314 605.036,-23.1827"/>
<polygon fill="midnightblue" stroke="midnightblue" points="605.986,-19.7995 595.395,-19.5164 603.498,-26.3424 605.986,-19.7995"/>
</g>
<!-- Node13&#45;&gt;Node6 -->
<g id="edge15" class="edge"><title>Node13&#45;&gt;Node6</title>
<path fill="none" stroke="midnightblue" d="M882.302,-57.4915C950.243,-46.4741 1075.36,-26.1852 1135.28,-16.4679"/>
<polygon fill="midnightblue" stroke="midnightblue" points="1136.03,-19.8919 1145.34,-14.8362 1134.91,-12.9821 1136.03,-19.8919"/>
</g>
<!-- Node13&#45;&gt;Node11 -->
<g id="edge17" class="edge"><title>Node13&#45;&gt;Node11</title>
<path fill="none" stroke="midnightblue" d="M836,-56.083C836,-49.0059 836,-38.8611 836,-29.9865"/>
<polygon fill="midnightblue" stroke="midnightblue" points="839.5,-29.751 836,-19.7511 832.5,-29.7511 839.5,-29.751"/>
</g>
<!-- Node13&#45;&gt;Node12 -->
<g id="edge16" class="edge"><title>Node13&#45;&gt;Node12</title>
<path fill="none" stroke="midnightblue" d="M794.327,-56.4435C741.81,-45.6607 652.681,-27.3603 605.13,-17.5971"/>
<polygon fill="midnightblue" stroke="midnightblue" points="605.589,-14.1182 595.089,-15.5354 604.181,-20.9752 605.589,-14.1182"/>
</g>
<!-- Node14&#45;&gt;Node5 -->
<g id="edge27" class="edge"><title>Node14&#45;&gt;Node5</title>
<path fill="none" stroke="midnightblue" d="M390.83,-168.442C361.674,-160.115 316.032,-146.931 267.911,-132.225"/>
<polygon fill="midnightblue" stroke="midnightblue" points="268.845,-128.851 258.258,-129.265 266.793,-135.543 268.845,-128.851"/>
</g>
<!-- Node14&#45;&gt;Node12 -->
<g id="edge28" class="edge"><title>Node14&#45;&gt;Node12</title>
<path fill="none" stroke="midnightblue" d="M428.816,-168.371C436.629,-159.551 448.776,-145.297 458,-132 480.246,-99.9302 474.96,-84.1464 502,-56 514.44,-43.0504 531.325,-32.1531 545.507,-24.3269"/>
<polygon fill="midnightblue" stroke="midnightblue" points="547.163,-27.4102 554.362,-19.6368 543.887,-21.2242 547.163,-27.4102"/>
</g>
<!-- Node14&#45;&gt;Node15 -->
<g id="edge19" class="edge"><title>Node14&#45;&gt;Node15</title>
<path fill="none" stroke="midnightblue" d="M486.568,-170.7C602.926,-159.52 842.449,-136.505 940.118,-127.12"/>
<polygon fill="midnightblue" stroke="midnightblue" points="940.597,-130.591 950.216,-126.15 939.927,-123.623 940.597,-130.591"/>
</g>
<!-- Node18 -->
<g id="node18" class="node"><title>Node18</title>
<polygon fill="white" stroke="#bfbfbf" points="276.5,-112.5 276.5,-131.5 449.5,-131.5 449.5,-112.5 276.5,-112.5"/>
<text text-anchor="middle" x="363" y="-119.5" font-family="Verdana" font-size="10.00">SelectionCriterionTypeInterface.h</text>
</g>
<!-- Node14&#45;&gt;Node18 -->
<g id="edge29" class="edge"><title>Node14&#45;&gt;Node18</title>
<path fill="none" stroke="midnightblue" d="M411.681,-168.324C403.107,-160.341 390.188,-148.313 379.812,-138.653"/>
<polygon fill="midnightblue" stroke="midnightblue" points="382.192,-136.086 372.488,-131.834 377.422,-141.21 382.192,-136.086"/>
</g>
<!-- Node15&#45;&gt;Node6 -->
<g id="edge21" class="edge"><title>Node15&#45;&gt;Node6</title>
<path fill="none" stroke="midnightblue" d="M1006.89,-112.365C1028.09,-104.264 1059.56,-91.1497 1085,-76 1109.69,-61.2993 1135.45,-40.41 1151.82,-26.314"/>
<polygon fill="midnightblue" stroke="midnightblue" points="1154.25,-28.8447 1159.48,-19.6307 1149.64,-23.5721 1154.25,-28.8447"/>
</g>
<!-- Node15&#45;&gt;Node7 -->
<g id="edge23" class="edge"><title>Node15&#45;&gt;Node7</title>
<path fill="none" stroke="midnightblue" d="M1013.45,-112.485C1045.12,-103.578 1096.12,-89.0958 1140,-76 1141.42,-75.576 1142.88,-75.1365 1144.35,-74.6901"/>
<polygon fill="midnightblue" stroke="midnightblue" points="1145.44,-78.0176 1153.97,-71.7335 1143.38,-71.3267 1145.44,-78.0176"/>
</g>
<!-- Node15&#45;&gt;Node11 -->
<g id="edge22" class="edge"><title>Node15&#45;&gt;Node11</title>
<path fill="none" stroke="midnightblue" d="M1011.88,-112.424C1044.16,-101.392 1089.37,-80.6823 1069,-56 1044.57,-26.4001 932.286,-16.0497 872.965,-12.608"/>
<polygon fill="midnightblue" stroke="midnightblue" points="873.059,-9.10805 862.884,-12.0602 872.679,-16.0977 873.059,-9.10805"/>
</g>
<!-- Node15&#45;&gt;Node12 -->
<g id="edge20" class="edge"><title>Node15&#45;&gt;Node12</title>
<path fill="none" stroke="midnightblue" d="M950.261,-118.95C877.093,-113.991 702.541,-99.957 649,-76 623.861,-64.7517 600.697,-42.4868 586.711,-27.1764"/>
<polygon fill="midnightblue" stroke="midnightblue" points="589.175,-24.6787 579.932,-19.5003 583.928,-29.3125 589.175,-24.6787"/>
</g>
<!-- Node15&#45;&gt;Node13 -->
<g id="edge26" class="edge"><title>Node15&#45;&gt;Node13</title>
<path fill="none" stroke="midnightblue" d="M959.707,-112.444C935.193,-103.438 896.404,-89.1891 868.8,-79.049"/>
<polygon fill="midnightblue" stroke="midnightblue" points="869.777,-75.6793 859.184,-75.5164 867.363,-82.25 869.777,-75.6793"/>
</g>
<!-- Node16 -->
<g id="node16" class="node"><title>Node16</title>
<polygon fill="white" stroke="#bfbfbf" points="996,-56.5 996,-75.5 1060,-75.5 1060,-56.5 996,-56.5"/>
<text text-anchor="middle" x="1028" y="-63.5" font-family="Verdana" font-size="10.00">XmlSink.h</text>
</g>
<!-- Node15&#45;&gt;Node16 -->
<g id="edge24" class="edge"><title>Node15&#45;&gt;Node16</title>
<path fill="none" stroke="midnightblue" d="M990.431,-112.083C996.853,-104.377 1006.31,-93.0333 1014.12,-83.6531"/>
<polygon fill="midnightblue" stroke="midnightblue" points="1016.99,-85.674 1020.71,-75.7511 1011.62,-81.1927 1016.99,-85.674"/>
</g>
<!-- Node17 -->
<g id="node17" class="node"><title>Node17</title>
<polygon fill="white" stroke="#bfbfbf" points="900.5,-56.5 900.5,-75.5 977.5,-75.5 977.5,-56.5 900.5,-56.5"/>
<text text-anchor="middle" x="939" y="-63.5" font-family="Verdana" font-size="10.00">XmlSource.h</text>
</g>
<!-- Node15&#45;&gt;Node17 -->
<g id="edge25" class="edge"><title>Node15&#45;&gt;Node17</title>
<path fill="none" stroke="midnightblue" d="M975.734,-112.083C969.455,-104.377 960.212,-93.0333 952.569,-83.6531"/>
<polygon fill="midnightblue" stroke="midnightblue" points="955.161,-81.2926 946.131,-75.7511 949.734,-85.7143 955.161,-81.2926"/>
</g>
<!-- Node19&#45;&gt;Node12 -->
<g id="edge34" class="edge"><title>Node19&#45;&gt;Node12</title>
<path fill="none" stroke="midnightblue" d="M686.614,-224.263C698.591,-211.039 717.375,-185.619 704,-168 668.009,-120.59 611.382,-179.111 575,-132 552.078,-102.318 560.149,-55.2007 567.137,-29.3931"/>
<polygon fill="midnightblue" stroke="midnightblue" points="570.509,-30.3314 569.971,-19.7502 563.793,-28.3571 570.509,-30.3314"/>
</g>
<!-- Node19&#45;&gt;Node14 -->
<g id="edge32" class="edge"><title>Node19&#45;&gt;Node14</title>
<path fill="none" stroke="midnightblue" d="M637.278,-224.444C592.351,-215.004 520.002,-199.802 471.501,-189.611"/>
<polygon fill="midnightblue" stroke="midnightblue" points="472.038,-186.148 461.532,-187.516 470.598,-192.998 472.038,-186.148"/>
</g>
<!-- Node19&#45;&gt;Node15 -->
<g id="edge31" class="edge"><title>Node19&#45;&gt;Node15</title>
<path fill="none" stroke="midnightblue" d="M694.004,-224.485C719.626,-211.102 771.69,-184.929 818,-168 858.689,-153.126 906.595,-140.589 940.275,-132.557"/>
<polygon fill="midnightblue" stroke="midnightblue" points="941.314,-135.908 950.246,-130.211 939.711,-129.094 941.314,-135.908"/>
</g>
<!-- Node20 -->
<g id="node20" class="node"><title>Node20</title>
<polygon fill="white" stroke="#bfbfbf" points="543,-168.5 543,-187.5 695,-187.5 695,-168.5 543,-168.5"/>
<text text-anchor="middle" x="619" y="-175.5" font-family="Verdana" font-size="10.00">SelectionCriterionInterface.h</text>
</g>
<!-- Node19&#45;&gt;Node20 -->
<g id="edge33" class="edge"><title>Node19&#45;&gt;Node20</title>
<path fill="none" stroke="midnightblue" d="M668.521,-224.324C659.799,-216.341 646.657,-204.313 636.102,-194.653"/>
<polygon fill="midnightblue" stroke="midnightblue" points="638.392,-192.004 628.652,-187.834 633.666,-197.167 638.392,-192.004"/>
</g>
</g>
</svg>
