<?xml version="1.0" encoding="UTF-8" standalone="no"?>
<!DOCTYPE svg PUBLIC "-//W3C//DTD SVG 1.1//EN"
 "http://www.w3.org/Graphics/SVG/1.1/DTD/svg11.dtd">
<!-- Generated by graphviz version 2.38.0 (20140413.2041)
 -->
<!-- Title: /home/dawagner/dev/parameter&#45;framework/parameter/Parameter.cpp Pages: 1 -->
<svg width="1157pt" height="498pt"
 viewBox="0.00 0.00 1156.50 498.00" xmlns="http://www.w3.org/2000/svg" xmlns:xlink="http://www.w3.org/1999/xlink">
<g id="graph0" class="graph" transform="scale(1 1) rotate(0) translate(4 494)">
<title>/home/dawagner/dev/parameter&#45;framework/parameter/Parameter.cpp</title>
<polygon fill="white" stroke="none" points="-4,4 -4,-494 1152.5,-494 1152.5,4 -4,4"/>
<!-- Node1 -->
<g id="node1" class="node"><title>Node1</title>
<polygon fill="#bfbfbf" stroke="black" points="677.5,-448.5 677.5,-489.5 820.5,-489.5 820.5,-448.5 677.5,-448.5"/>
<text text-anchor="start" x="685.5" y="-477.5" font-family="Verdana" font-size="10.00">/home/dawagner/dev</text>
<text text-anchor="start" x="685.5" y="-466.5" font-family="Verdana" font-size="10.00">/parameter&#45;framework</text>
<text text-anchor="middle" x="749" y="-455.5" font-family="Verdana" font-size="10.00">/parameter/Parameter.cpp</text>
</g>
<!-- Node2 -->
<g id="node2" class="node"><title>Node2</title>
<g id="a_node2"><a xlink:href="Parameter_8h.html" target="_top" xlink:title="Parameter.h">
<polygon fill="white" stroke="black" points="530.5,-392.5 530.5,-411.5 605.5,-411.5 605.5,-392.5 530.5,-392.5"/>
<text text-anchor="middle" x="568" y="-399.5" font-family="Verdana" font-size="10.00">Parameter.h</text>
</a>
</g>
</g>
<!-- Node1&#45;&gt;Node2 -->
<g id="edge1" class="edge"><title>Node1&#45;&gt;Node2</title>
<path fill="none" stroke="midnightblue" d="M694.694,-448.498C664.408,-437.622 627.648,-424.421 601.542,-415.045"/>
<polygon fill="midnightblue" stroke="midnightblue" points="602.688,-411.738 592.094,-411.652 600.322,-418.326 602.688,-411.738"/>
</g>
<!-- Node16 -->
<g id="node16" class="node"><title>Node16</title>
<g id="a_node16"><a xlink:href="ParameterType_8h.html" target="_top" xlink:title="ParameterType.h">
<polygon fill="white" stroke="black" points="962.5,-224.5 962.5,-243.5 1059.5,-243.5 1059.5,-224.5 962.5,-224.5"/>
<text text-anchor="middle" x="1011" y="-231.5" font-family="Verdana" font-size="10.00">ParameterType.h</text>
</a>
</g>
</g>
<!-- Node1&#45;&gt;Node16 -->
<g id="edge28" class="edge"><title>Node1&#45;&gt;Node16</title>
<path fill="none" stroke="midnightblue" d="M801.392,-448.457C845.02,-430.044 906.503,-398.871 948,-356 977.402,-325.624 996.431,-278.78 1005.26,-253.202"/>
<polygon fill="midnightblue" stroke="midnightblue" points="1008.6,-254.245 1008.42,-243.652 1001.95,-252.047 1008.6,-254.245"/>
</g>
<!-- Node18 -->
<g id="node18" class="node"><title>Node18</title>
<g id="a_node18"><a xlink:href="ParameterAccessContext_8h.html" target="_top" xlink:title="ParameterAccessContext.h">
<polygon fill="white" stroke="black" points="606.5,-112.5 606.5,-131.5 753.5,-131.5 753.5,-112.5 606.5,-112.5"/>
<text text-anchor="middle" x="680" y="-119.5" font-family="Verdana" font-size="10.00">ParameterAccessContext.h</text>
</a>
</g>
</g>
<!-- Node1&#45;&gt;Node18 -->
<g id="edge33" class="edge"><title>Node1&#45;&gt;Node18</title>
<path fill="none" stroke="midnightblue" d="M713.912,-448.411C682.048,-427.744 640,-391.955 640,-347 640,-347 640,-347 640,-233 640,-198.617 657.474,-161.631 669.323,-140.503"/>
<polygon fill="midnightblue" stroke="midnightblue" points="672.424,-142.133 674.438,-131.731 666.377,-138.607 672.424,-142.133"/>
</g>
<!-- Node20 -->
<g id="node20" class="node"><title>Node20</title>
<g id="a_node20"><a xlink:href="ConfigurationAccessContext_8h.html" target="_top" xlink:title="ConfigurationAccessContext.h">
<polygon fill="white" stroke="black" points="668.5,-168.5 668.5,-187.5 829.5,-187.5 829.5,-168.5 668.5,-168.5"/>
<text text-anchor="middle" x="749" y="-175.5" font-family="Verdana" font-size="10.00">ConfigurationAccessContext.h</text>
</a>
</g>
</g>
<!-- Node1&#45;&gt;Node20 -->
<g id="edge38" class="edge"><title>Node1&#45;&gt;Node20</title>
<path fill="none" stroke="midnightblue" d="M749,-448.299C749,-424.352 749,-382.712 749,-347 749,-347 749,-347 749,-289 749,-256.948 749,-219.643 749,-197.749"/>
<polygon fill="midnightblue" stroke="midnightblue" points="752.5,-197.558 749,-187.558 745.5,-197.558 752.5,-197.558"/>
</g>
<!-- Node21 -->
<g id="node21" class="node"><title>Node21</title>
<g id="a_node21"><a xlink:href="ParameterBlackboard_8h.html" target="_top" xlink:title="ParameterBlackboard.h">
<polygon fill="white" stroke="black" points="1019.5,-112.5 1019.5,-131.5 1148.5,-131.5 1148.5,-112.5 1019.5,-112.5"/>
<text text-anchor="middle" x="1084" y="-119.5" font-family="Verdana" font-size="10.00">ParameterBlackboard.h</text>
</a>
</g>
</g>
<!-- Node1&#45;&gt;Node21 -->
<g id="edge41" class="edge"><title>Node1&#45;&gt;Node21</title>
<path fill="none" stroke="midnightblue" d="M820.893,-457.21C920.404,-440.214 1088,-403.242 1088,-347 1088,-347 1088,-347 1088,-233 1088,-200.927 1086.28,-163.628 1085.1,-141.741"/>
<polygon fill="midnightblue" stroke="midnightblue" points="1088.58,-141.341 1084.52,-131.554 1081.59,-141.735 1088.58,-141.341"/>
</g>
<!-- Node3 -->
<g id="node3" class="node"><title>Node3</title>
<polygon fill="white" stroke="#bfbfbf" points="888.5,-0.5 888.5,-19.5 941.5,-19.5 941.5,-0.5 888.5,-0.5"/>
<text text-anchor="middle" x="915" y="-7.5" font-family="Verdana" font-size="10.00">stdint.h</text>
</g>
<!-- Node2&#45;&gt;Node3 -->
<g id="edge2" class="edge"><title>Node2&#45;&gt;Node3</title>
<path fill="none" stroke="midnightblue" d="M605.79,-397.74C699.302,-388.635 934,-359.008 934,-291 934,-291 934,-291 934,-121 934,-88.4885 925.841,-51.3503 920.216,-29.6103"/>
<polygon fill="midnightblue" stroke="midnightblue" points="923.541,-28.498 917.562,-19.7514 916.782,-30.3175 923.541,-28.498"/>
</g>
<!-- Node4 -->
<g id="node4" class="node"><title>Node4</title>
<g id="a_node4"><a xlink:href="BaseParameter_8h.html" target="_top" xlink:title="BaseParameter.h">
<polygon fill="white" stroke="black" points="480.5,-336.5 480.5,-355.5 579.5,-355.5 579.5,-336.5 480.5,-336.5"/>
<text text-anchor="middle" x="530" y="-343.5" font-family="Verdana" font-size="10.00">BaseParameter.h</text>
</a>
</g>
</g>
<!-- Node2&#45;&gt;Node4 -->
<g id="edge3" class="edge"><title>Node2&#45;&gt;Node4</title>
<path fill="none" stroke="midnightblue" d="M561.725,-392.083C556.358,-384.455 548.482,-373.264 541.921,-363.941"/>
<polygon fill="midnightblue" stroke="midnightblue" points="544.775,-361.915 536.158,-355.751 539.051,-365.943 544.775,-361.915"/>
</g>
<!-- Node10 -->
<g id="node10" class="node"><title>Node10</title>
<polygon fill="white" stroke="#bfbfbf" points="580,-0.5 580,-19.5 624,-19.5 624,-0.5 580,-0.5"/>
<text text-anchor="middle" x="602" y="-7.5" font-family="Verdana" font-size="10.00">string</text>
</g>
<!-- Node2&#45;&gt;Node10 -->
<g id="edge27" class="edge"><title>Node2&#45;&gt;Node10</title>
<path fill="none" stroke="midnightblue" d="M530.309,-401.21C409.225,-400.883 38,-391.67 38,-291 38,-291 38,-291 38,-121 38,-86.6051 50.5268,-73.7297 80,-56 121.917,-30.7844 461.961,-16.1719 569.513,-12.1474"/>
<polygon fill="midnightblue" stroke="midnightblue" points="569.886,-15.6361 579.75,-11.7702 569.628,-8.64088 569.886,-15.6361"/>
</g>
<!-- Node4&#45;&gt;Node3 -->
<g id="edge4" class="edge"><title>Node4&#45;&gt;Node3</title>
<path fill="none" stroke="midnightblue" d="M579.741,-340.54C679.812,-330.188 896,-300.271 896,-235 896,-235 896,-235 896,-121 896,-88.4885 904.159,-51.3503 909.784,-29.6103"/>
<polygon fill="midnightblue" stroke="midnightblue" points="913.218,-30.3175 912.438,-19.7514 906.459,-28.498 913.218,-30.3175"/>
</g>
<!-- Node5 -->
<g id="node5" class="node"><title>Node5</title>
<polygon fill="white" stroke="#bfbfbf" points="138.5,-0.5 138.5,-19.5 185.5,-19.5 185.5,-0.5 138.5,-0.5"/>
<text text-anchor="middle" x="162" y="-7.5" font-family="Verdana" font-size="10.00">vector</text>
</g>
<!-- Node4&#45;&gt;Node5 -->
<g id="edge5" class="edge"><title>Node4&#45;&gt;Node5</title>
<path fill="none" stroke="midnightblue" d="M480.139,-345.15C348.203,-344.211 0,-332.499 0,-235 0,-235 0,-235 0,-121 0,-90.2048 1.8095,-77.3525 24,-56 52.2636,-28.8038 97.1725,-18.0433 128.038,-13.7861"/>
<polygon fill="midnightblue" stroke="midnightblue" points="128.815,-17.2174 138.319,-12.5353 127.97,-10.2687 128.815,-17.2174"/>
</g>
<!-- Node6 -->
<g id="node6" class="node"><title>Node6</title>
<g id="a_node6"><a xlink:href="InstanceConfigurableElement_8h.html" target="_top" xlink:title="InstanceConfigurableElement.h">
<polygon fill="white" stroke="black" points="415,-280.5 415,-299.5 581,-299.5 581,-280.5 415,-280.5"/>
<text text-anchor="middle" x="498" y="-287.5" font-family="Verdana" font-size="10.00">InstanceConfigurableElement.h</text>
</a>
</g>
</g>
<!-- Node4&#45;&gt;Node6 -->
<g id="edge6" class="edge"><title>Node4&#45;&gt;Node6</title>
<path fill="none" stroke="midnightblue" d="M524.716,-336.083C520.289,-328.613 513.837,-317.724 508.382,-308.52"/>
<polygon fill="midnightblue" stroke="midnightblue" points="511.295,-306.57 503.186,-299.751 505.273,-310.138 511.295,-306.57"/>
</g>
<!-- Node7 -->
<g id="node7" class="node"><title>Node7</title>
<g id="a_node7"><a xlink:href="ConfigurableElementWithMapping_8h.html" target="_top" xlink:title="ConfigurableElementWithMapping.h">
<polygon fill="white" stroke="black" points="158,-224.5 158,-243.5 344,-243.5 344,-224.5 158,-224.5"/>
<text text-anchor="middle" x="251" y="-231.5" font-family="Verdana" font-size="10.00">ConfigurableElementWithMapping.h</text>
</a>
</g>
</g>
<!-- Node6&#45;&gt;Node7 -->
<g id="edge7" class="edge"><title>Node6&#45;&gt;Node7</title>
<path fill="none" stroke="midnightblue" d="M458.862,-280.444C415.774,-271.023 346.441,-255.866 299.829,-245.675"/>
<polygon fill="midnightblue" stroke="midnightblue" points="300.472,-242.233 289.955,-243.516 298.976,-249.072 300.472,-242.233"/>
</g>
<!-- Node6&#45;&gt;Node10 -->
<g id="edge26" class="edge"><title>Node6&#45;&gt;Node10</title>
<path fill="none" stroke="midnightblue" d="M498.359,-280.251C499.406,-259.991 503.312,-208.49 517,-168 535.291,-113.892 571.291,-56.3321 590.029,-28.3253"/>
<polygon fill="midnightblue" stroke="midnightblue" points="593.159,-29.9452 595.879,-19.7055 587.367,-26.0141 593.159,-29.9452"/>
</g>
<!-- Node11 -->
<g id="node11" class="node"><title>Node11</title>
<polygon fill="white" stroke="#bfbfbf" points="104,-56.5 104,-75.5 134,-75.5 134,-56.5 104,-56.5"/>
<text text-anchor="middle" x="119" y="-63.5" font-family="Verdana" font-size="10.00">list</text>
</g>
<!-- Node6&#45;&gt;Node11 -->
<g id="edge25" class="edge"><title>Node6&#45;&gt;Node11</title>
<path fill="none" stroke="midnightblue" d="M414.936,-289.296C323.914,-287.778 185.889,-279.454 149,-244 105.405,-202.1 110.656,-122.055 115.756,-85.7421"/>
<polygon fill="midnightblue" stroke="midnightblue" points="119.256,-86.0138 117.344,-75.5928 112.34,-84.9313 119.256,-86.0138"/>
</g>
<!-- Node15 -->
<g id="node15" class="node"><title>Node15</title>
<g id="a_node15"><a xlink:href="TypeElement_8h.html" target="_top" xlink:title="TypeElement.h">
<polygon fill="white" stroke="black" points="526,-168.5 526,-187.5 612,-187.5 612,-168.5 526,-168.5"/>
<text text-anchor="middle" x="569" y="-175.5" font-family="Verdana" font-size="10.00">TypeElement.h</text>
</a>
</g>
</g>
<!-- Node6&#45;&gt;Node15 -->
<g id="edge22" class="edge"><title>Node6&#45;&gt;Node15</title>
<path fill="none" stroke="midnightblue" d="M503.571,-280.368C515.236,-262.296 542.423,-220.176 557.829,-196.307"/>
<polygon fill="midnightblue" stroke="midnightblue" points="560.972,-197.891 563.455,-187.591 555.091,-194.095 560.972,-197.891"/>
</g>
<!-- Node8 -->
<g id="node8" class="node"><title>Node8</title>
<g id="a_node8"><a xlink:href="ConfigurableElement_8h.html" target="_top" xlink:title="ConfigurableElement.h">
<polygon fill="white" stroke="black" points="188.5,-168.5 188.5,-187.5 313.5,-187.5 313.5,-168.5 188.5,-168.5"/>
<text text-anchor="middle" x="251" y="-175.5" font-family="Verdana" font-size="10.00">ConfigurableElement.h</text>
</a>
</g>
</g>
<!-- Node7&#45;&gt;Node8 -->
<g id="edge8" class="edge"><title>Node7&#45;&gt;Node8</title>
<path fill="none" stroke="midnightblue" d="M251,-224.083C251,-217.006 251,-206.861 251,-197.986"/>
<polygon fill="midnightblue" stroke="midnightblue" points="254.5,-197.751 251,-187.751 247.5,-197.751 254.5,-197.751"/>
</g>
<!-- Node7&#45;&gt;Node10 -->
<g id="edge21" class="edge"><title>Node7&#45;&gt;Node10</title>
<path fill="none" stroke="midnightblue" d="M232.825,-224.425C180.463,-198.657 36.6507,-119.758 95,-56 127.083,-20.9429 463.228,-13.0282 569.786,-11.3942"/>
<polygon fill="midnightblue" stroke="midnightblue" points="569.983,-14.8918 579.931,-11.2473 569.881,-7.89258 569.983,-14.8918"/>
</g>
<!-- Node9 -->
<g id="node9" class="node"><title>Node9</title>
<g id="a_node9"><a xlink:href="Element_8h.html" target="_top" xlink:title="Element.h">
<polygon fill="white" stroke="black" points="227.5,-112.5 227.5,-131.5 292.5,-131.5 292.5,-112.5 227.5,-112.5"/>
<text text-anchor="middle" x="260" y="-119.5" font-family="Verdana" font-size="10.00">Element.h</text>
</a>
</g>
</g>
<!-- Node8&#45;&gt;Node9 -->
<g id="edge9" class="edge"><title>Node8&#45;&gt;Node9</title>
<path fill="none" stroke="midnightblue" d="M252.486,-168.083C253.679,-160.927 255.394,-150.635 256.885,-141.691"/>
<polygon fill="midnightblue" stroke="midnightblue" points="260.35,-142.19 258.541,-131.751 253.445,-141.04 260.35,-142.19"/>
</g>
<!-- Node8&#45;&gt;Node11 -->
<g id="edge20" class="edge"><title>Node8&#45;&gt;Node11</title>
<path fill="none" stroke="midnightblue" d="M240.642,-168.368C218.28,-149.733 165.239,-105.532 137.161,-82.1338"/>
<polygon fill="midnightblue" stroke="midnightblue" points="139.233,-79.3045 129.31,-75.5914 134.751,-84.6821 139.233,-79.3045"/>
</g>
<!-- Node9&#45;&gt;Node3 -->
<g id="edge12" class="edge"><title>Node9&#45;&gt;Node3</title>
<path fill="none" stroke="midnightblue" d="M292.659,-115.006C369.003,-101.013 557.477,-66.5784 621,-56 713.352,-40.6207 822.365,-24.4531 878.112,-16.3285"/>
<polygon fill="midnightblue" stroke="midnightblue" points="878.816,-19.7631 888.208,-14.8602 877.809,-12.8359 878.816,-19.7631"/>
</g>
<!-- Node9&#45;&gt;Node5 -->
<g id="edge11" class="edge"><title>Node9&#45;&gt;Node5</title>
<path fill="none" stroke="midnightblue" d="M238.146,-112.447C221.762,-105.03 199.862,-92.8279 186,-76 175.016,-62.6663 168.803,-43.8373 165.465,-29.8745"/>
<polygon fill="midnightblue" stroke="midnightblue" points="168.853,-28.9817 163.367,-19.9178 162.004,-30.4245 168.853,-28.9817"/>
</g>
<!-- Node9&#45;&gt;Node10 -->
<g id="edge10" class="edge"><title>Node9&#45;&gt;Node10</title>
<path fill="none" stroke="midnightblue" d="M247.658,-112.395C230.393,-99.3429 202.862,-74.1446 219,-56 242.198,-29.917 481.782,-16.4665 569.796,-12.3765"/>
<polygon fill="midnightblue" stroke="midnightblue" points="570.161,-15.8637 579.992,-11.9134 569.843,-8.87088 570.161,-15.8637"/>
</g>
<!-- Node9&#45;&gt;Node11 -->
<g id="edge13" class="edge"><title>Node9&#45;&gt;Node11</title>
<path fill="none" stroke="midnightblue" d="M237.658,-112.444C212.044,-102.634 170.183,-86.6019 143.641,-76.4369"/>
<polygon fill="midnightblue" stroke="midnightblue" points="144.875,-73.1616 134.284,-72.8536 142.371,-79.6986 144.875,-73.1616"/>
</g>
<!-- Node12 -->
<g id="node12" class="node"><title>Node12</title>
<polygon fill="white" stroke="#bfbfbf" points="228,-56.5 228,-75.5 292,-75.5 292,-56.5 228,-56.5"/>
<text text-anchor="middle" x="260" y="-63.5" font-family="Verdana" font-size="10.00">XmlSink.h</text>
</g>
<!-- Node9&#45;&gt;Node12 -->
<g id="edge14" class="edge"><title>Node9&#45;&gt;Node12</title>
<path fill="none" stroke="midnightblue" d="M260,-112.083C260,-105.006 260,-94.8611 260,-85.9865"/>
<polygon fill="midnightblue" stroke="midnightblue" points="263.5,-85.751 260,-75.7511 256.5,-85.7511 263.5,-85.751"/>
</g>
<!-- Node13 -->
<g id="node13" class="node"><title>Node13</title>
<polygon fill="white" stroke="#bfbfbf" points="310.5,-56.5 310.5,-75.5 387.5,-75.5 387.5,-56.5 310.5,-56.5"/>
<text text-anchor="middle" x="349" y="-63.5" font-family="Verdana" font-size="10.00">XmlSource.h</text>
</g>
<!-- Node9&#45;&gt;Node13 -->
<g id="edge15" class="edge"><title>Node9&#45;&gt;Node13</title>
<path fill="none" stroke="midnightblue" d="M274.299,-112.324C288.183,-103.9 309.492,-90.9709 325.804,-81.0741"/>
<polygon fill="midnightblue" stroke="midnightblue" points="328.002,-83.8341 334.736,-75.6545 324.371,-77.8495 328.002,-83.8341"/>
</g>
<!-- Node14 -->
<g id="node14" class="node"><title>Node14</title>
<g id="a_node14"><a xlink:href="PathNavigator_8h.html" target="_top" xlink:title="PathNavigator.h">
<polygon fill="white" stroke="black" points="406,-56.5 406,-75.5 498,-75.5 498,-56.5 406,-56.5"/>
<text text-anchor="middle" x="452" y="-63.5" font-family="Verdana" font-size="10.00">PathNavigator.h</text>
</a>
</g>
</g>
<!-- Node9&#45;&gt;Node14 -->
<g id="edge16" class="edge"><title>Node9&#45;&gt;Node14</title>
<path fill="none" stroke="midnightblue" d="M290.423,-112.444C323.285,-103.201 375.785,-88.4356 411.974,-78.2572"/>
<polygon fill="midnightblue" stroke="midnightblue" points="413.04,-81.5932 421.719,-75.5164 411.145,-74.8547 413.04,-81.5932"/>
</g>
<!-- Node14&#45;&gt;Node3 -->
<g id="edge19" class="edge"><title>Node14&#45;&gt;Node3</title>
<path fill="none" stroke="midnightblue" d="M498.087,-59.6249C590.104,-48.8928 794.91,-25.0061 878.453,-15.2625"/>
<polygon fill="midnightblue" stroke="midnightblue" points="878.962,-18.727 888.489,-14.092 878.151,-11.7741 878.962,-18.727"/>
</g>
<!-- Node14&#45;&gt;Node5 -->
<g id="edge17" class="edge"><title>Node14&#45;&gt;Node5</title>
<path fill="none" stroke="midnightblue" d="M406.049,-56.4435C347.477,-45.5371 247.602,-26.9397 195.644,-17.2647"/>
<polygon fill="midnightblue" stroke="midnightblue" points="196.088,-13.7874 185.617,-15.3976 194.807,-20.6691 196.088,-13.7874"/>
</g>
<!-- Node14&#45;&gt;Node10 -->
<g id="edge18" class="edge"><title>Node14&#45;&gt;Node10</title>
<path fill="none" stroke="midnightblue" d="M475.768,-56.4435C501.336,-47.239 542.121,-32.5565 570.382,-22.3826"/>
<polygon fill="midnightblue" stroke="midnightblue" points="571.587,-25.6687 579.81,-18.9883 569.216,-19.0825 571.587,-25.6687"/>
</g>
<!-- Node15&#45;&gt;Node9 -->
<g id="edge23" class="edge"><title>Node15&#45;&gt;Node9</title>
<path fill="none" stroke="midnightblue" d="M525.71,-169.435C466.638,-159.112 361.426,-140.725 302.677,-130.458"/>
<polygon fill="midnightblue" stroke="midnightblue" points="303.07,-126.974 292.617,-128.7 301.865,-133.869 303.07,-126.974"/>
</g>
<!-- Node15&#45;&gt;Node10 -->
<g id="edge24" class="edge"><title>Node15&#45;&gt;Node10</title>
<path fill="none" stroke="midnightblue" d="M570.774,-168.075C575.969,-141.945 591.223,-65.2106 598.307,-29.577"/>
<polygon fill="midnightblue" stroke="midnightblue" points="601.78,-30.0586 600.297,-19.5681 594.914,-28.6937 601.78,-30.0586"/>
</g>
<!-- Node16&#45;&gt;Node3 -->
<g id="edge29" class="edge"><title>Node16&#45;&gt;Node3</title>
<path fill="none" stroke="midnightblue" d="M1006.9,-224.484C1002.65,-215.516 995.964,-200.93 991,-188 968.885,-130.398 976.154,-110.903 948,-56 942.871,-45.9973 935.612,-35.8175 929.207,-27.676"/>
<polygon fill="midnightblue" stroke="midnightblue" points="931.77,-25.2801 922.735,-19.7465 926.347,-29.7066 931.77,-25.2801"/>
</g>
<!-- Node16&#45;&gt;Node10 -->
<g id="edge32" class="edge"><title>Node16&#45;&gt;Node10</title>
<path fill="none" stroke="midnightblue" d="M1001.46,-224.206C970.016,-195.678 865.835,-104.736 764,-56 721.353,-35.5902 667.822,-22.9931 634.251,-16.4927"/>
<polygon fill="midnightblue" stroke="midnightblue" points="634.565,-12.9908 624.092,-14.5942 633.279,-19.8717 634.565,-12.9908"/>
</g>
<!-- Node16&#45;&gt;Node15 -->
<g id="edge31" class="edge"><title>Node16&#45;&gt;Node15</title>
<path fill="none" stroke="midnightblue" d="M962.434,-227.067C878.929,-216.865 708.789,-196.078 622.196,-185.499"/>
<polygon fill="midnightblue" stroke="midnightblue" points="622.412,-182 612.061,-184.261 621.563,-188.948 622.412,-182"/>
</g>
<!-- Node17 -->
<g id="node17" class="node"><title>Node17</title>
<polygon fill="white" stroke="#bfbfbf" points="1000,-168.5 1000,-187.5 1042,-187.5 1042,-168.5 1000,-168.5"/>
<text text-anchor="middle" x="1021" y="-175.5" font-family="Verdana" font-size="10.00">limits</text>
</g>
<!-- Node16&#45;&gt;Node17 -->
<g id="edge30" class="edge"><title>Node16&#45;&gt;Node17</title>
<path fill="none" stroke="midnightblue" d="M1012.65,-224.083C1013.98,-216.927 1015.88,-206.635 1017.54,-197.691"/>
<polygon fill="midnightblue" stroke="midnightblue" points="1021,-198.221 1019.38,-187.751 1014.12,-196.947 1021,-198.221"/>
</g>
<!-- Node18&#45;&gt;Node3 -->
<g id="edge34" class="edge"><title>Node18&#45;&gt;Node3</title>
<path fill="none" stroke="midnightblue" d="M698.44,-112.368C739.538,-93.131 838.843,-46.6478 887.374,-23.9314"/>
<polygon fill="midnightblue" stroke="midnightblue" points="889.073,-27.0008 896.646,-19.5914 886.105,-20.661 889.073,-27.0008"/>
</g>
<!-- Node18&#45;&gt;Node10 -->
<g id="edge37" class="edge"><title>Node18&#45;&gt;Node10</title>
<path fill="none" stroke="midnightblue" d="M693.584,-112.361C711.466,-99.8924 739.075,-76.1367 725,-56 704.697,-26.9524 663.523,-16.5946 634.418,-12.9359"/>
<polygon fill="midnightblue" stroke="midnightblue" points="634.615,-9.43726 624.303,-11.8689 633.88,-16.3986 634.615,-9.43726"/>
</g>
<!-- Node19 -->
<g id="node19" class="node"><title>Node19</title>
<g id="a_node19"><a xlink:href="ErrorContext_8h.html" target="_top" xlink:title="ErrorContext.h">
<polygon fill="white" stroke="black" points="630,-56.5 630,-75.5 716,-75.5 716,-56.5 630,-56.5"/>
<text text-anchor="middle" x="673" y="-63.5" font-family="Verdana" font-size="10.00">ErrorContext.h</text>
</a>
</g>
</g>
<!-- Node18&#45;&gt;Node19 -->
<g id="edge35" class="edge"><title>Node18&#45;&gt;Node19</title>
<path fill="none" stroke="midnightblue" d="M678.844,-112.083C677.916,-104.927 676.582,-94.6353 675.423,-85.6911"/>
<polygon fill="midnightblue" stroke="midnightblue" points="678.891,-85.2181 674.134,-75.7511 671.949,-86.1181 678.891,-85.2181"/>
</g>
<!-- Node19&#45;&gt;Node10 -->
<g id="edge36" class="edge"><title>Node19&#45;&gt;Node10</title>
<path fill="none" stroke="midnightblue" d="M661.593,-56.324C650.891,-48.1849 634.659,-35.8395 621.837,-26.0874"/>
<polygon fill="midnightblue" stroke="midnightblue" points="623.693,-23.1018 613.615,-19.8339 619.456,-28.6734 623.693,-23.1018"/>
</g>
<!-- Node20&#45;&gt;Node10 -->
<g id="edge40" class="edge"><title>Node20&#45;&gt;Node10</title>
<path fill="none" stroke="midnightblue" d="M752.344,-168.197C755.554,-159.24 760.176,-144.883 762,-132 766.911,-97.3023 766.339,-80.2072 741,-56 711.879,-28.1794 665.41,-17.5583 634.315,-13.5036"/>
<polygon fill="midnightblue" stroke="midnightblue" points="634.344,-9.98422 624.011,-12.3258 633.549,-16.9389 634.344,-9.98422"/>
</g>
<!-- Node20&#45;&gt;Node18 -->
<g id="edge39" class="edge"><title>Node20&#45;&gt;Node18</title>
<path fill="none" stroke="midnightblue" d="M737.914,-168.324C727.514,-160.185 711.739,-147.839 699.278,-138.087"/>
<polygon fill="midnightblue" stroke="midnightblue" points="701.32,-135.241 691.288,-131.834 697.006,-140.753 701.32,-135.241"/>
</g>
<!-- Node21&#45;&gt;Node3 -->
<g id="edge42" class="edge"><title>Node21&#45;&gt;Node3</title>
<path fill="none" stroke="midnightblue" d="M1071.06,-112.292C1052.36,-99.7397 1016.66,-75.8828 986,-56 969.728,-45.4486 951.217,-33.7257 937.177,-24.8907"/>
<polygon fill="midnightblue" stroke="midnightblue" points="938.994,-21.899 928.665,-19.5433 935.271,-27.8265 938.994,-21.899"/>
</g>
<!-- Node22 -->
<g id="node22" class="node"><title>Node22</title>
<g id="a_node22"><a xlink:href="BinaryStream_8h.html" target="_top" xlink:title="BinaryStream.h">
<polygon fill="white" stroke="black" points="1038,-56.5 1038,-75.5 1130,-75.5 1130,-56.5 1038,-56.5"/>
<text text-anchor="middle" x="1084" y="-63.5" font-family="Verdana" font-size="10.00">BinaryStream.h</text>
</a>
</g>
</g>
<!-- Node21&#45;&gt;Node22 -->
<g id="edge43" class="edge"><title>Node21&#45;&gt;Node22</title>
<path fill="none" stroke="midnightblue" d="M1084,-112.083C1084,-105.006 1084,-94.8611 1084,-85.9865"/>
<polygon fill="midnightblue" stroke="midnightblue" points="1087.5,-85.751 1084,-75.7511 1080.5,-85.7511 1087.5,-85.751"/>
</g>
<!-- Node22&#45;&gt;Node3 -->
<g id="edge44" class="edge"><title>Node22&#45;&gt;Node3</title>
<path fill="none" stroke="midnightblue" d="M1057.22,-56.4435C1028.67,-47.3196 983.267,-32.8133 951.463,-22.6509"/>
<polygon fill="midnightblue" stroke="midnightblue" points="952.244,-19.2262 941.653,-19.5164 950.114,-25.8941 952.244,-19.2262"/>
</g>
<!-- Node22&#45;&gt;Node10 -->
<g id="edge45" class="edge"><title>Node22&#45;&gt;Node10</title>
<path fill="none" stroke="midnightblue" d="M1037.78,-59.8223C940.719,-48.9478 717.744,-23.9672 634.303,-14.619"/>
<polygon fill="midnightblue" stroke="midnightblue" points="634.484,-11.1175 624.157,-13.4823 633.705,-18.074 634.484,-11.1175"/>
</g>
<!-- Node23 -->
<g id="node23" class="node"><title>Node23</title>
<polygon fill="white" stroke="#bfbfbf" points="1057,-0.5 1057,-19.5 1111,-19.5 1111,-0.5 1057,-0.5"/>
<text text-anchor="middle" x="1084" y="-7.5" font-family="Verdana" font-size="10.00">fstream</text>
</g>
<!-- Node22&#45;&gt;Node23 -->
<g id="edge46" class="edge"><title>Node22&#45;&gt;Node23</title>
<path fill="none" stroke="midnightblue" d="M1084,-56.083C1084,-49.0059 1084,-38.8611 1084,-29.9865"/>
<polygon fill="midnightblue" stroke="midnightblue" points="1087.5,-29.751 1084,-19.7511 1080.5,-29.7511 1087.5,-29.751"/>
</g>
</g>
</svg>
