<?xml version="1.0" encoding="UTF-8" standalone="no"?>
<!DOCTYPE svg PUBLIC "-//W3C//DTD SVG 1.1//EN"
 "http://www.w3.org/Graphics/SVG/1.1/DTD/svg11.dtd">
<!-- Generated by graphviz version 2.38.0 (20140413.2041)
 -->
<!-- Title: /home/dawagner/dev/parameter&#45;framework/parameter/ParameterMgrFullConnector.cpp Pages: 1 -->
<svg width="920pt" height="453pt"
 viewBox="0.00 0.00 920.00 453.00" xmlns="http://www.w3.org/2000/svg" xmlns:xlink="http://www.w3.org/1999/xlink">
<g id="graph0" class="graph" transform="scale(1 1) rotate(0) translate(4 449)">
<title>/home/dawagner/dev/parameter&#45;framework/parameter/ParameterMgrFullConnector.cpp</title>
<polygon fill="white" stroke="none" points="-4,4 -4,-449 916,-449 916,4 -4,4"/>
<!-- Node1 -->
<g id="node1" class="node"><title>Node1</title>
<polygon fill="#bfbfbf" stroke="black" points="366.5,-392.5 366.5,-444.5 523.5,-444.5 523.5,-392.5 366.5,-392.5"/>
<text text-anchor="start" x="374.5" y="-432.5" font-family="Verdana" font-size="10.00">/home/dawagner/dev</text>
<text text-anchor="start" x="374.5" y="-421.5" font-family="Verdana" font-size="10.00">/parameter&#45;framework</text>
<text text-anchor="start" x="374.5" y="-410.5" font-family="Verdana" font-size="10.00">/parameter/ParameterMgrFull</text>
<text text-anchor="middle" x="445" y="-399.5" font-family="Verdana" font-size="10.00">Connector.cpp</text>
</g>
<!-- Node2 -->
<g id="node2" class="node"><title>Node2</title>
<polygon fill="white" stroke="#bfbfbf" points="161,-336.5 161,-355.5 319,-355.5 319,-336.5 161,-336.5"/>
<text text-anchor="middle" x="240" y="-343.5" font-family="Verdana" font-size="10.00">ParameterMgrFullConnector.h</text>
</g>
<!-- Node1&#45;&gt;Node2 -->
<g id="edge1" class="edge"><title>Node1&#45;&gt;Node2</title>
<path fill="none" stroke="midnightblue" d="M372.147,-392.446C338.88,-381.005 301.054,-367.997 274.421,-358.838"/>
<polygon fill="midnightblue" stroke="midnightblue" points="275.389,-355.469 264.795,-355.527 273.113,-362.089 275.389,-355.469"/>
</g>
<!-- Node3 -->
<g id="node3" class="node"><title>Node3</title>
<g id="a_node3"><a xlink:href="ParameterMgr_8h.html" target="_top" xlink:title="ParameterMgr.h">
<polygon fill="white" stroke="black" points="444.5,-280.5 444.5,-299.5 537.5,-299.5 537.5,-280.5 444.5,-280.5"/>
<text text-anchor="middle" x="491" y="-287.5" font-family="Verdana" font-size="10.00">ParameterMgr.h</text>
</a>
</g>
</g>
<!-- Node1&#45;&gt;Node3 -->
<g id="edge2" class="edge"><title>Node1&#45;&gt;Node3</title>
<path fill="none" stroke="midnightblue" d="M456.913,-392.366C461.909,-381.341 467.573,-368.163 472,-356 477.654,-340.464 482.83,-322.382 486.346,-309.24"/>
<polygon fill="midnightblue" stroke="midnightblue" points="489.743,-310.087 488.884,-299.527 482.97,-308.317 489.743,-310.087"/>
</g>
<!-- Node7 -->
<g id="node7" class="node"><title>Node7</title>
<polygon fill="white" stroke="#bfbfbf" points="826,-56.5 826,-75.5 856,-75.5 856,-56.5 826,-56.5"/>
<text text-anchor="middle" x="841" y="-63.5" font-family="Verdana" font-size="10.00">list</text>
</g>
<!-- Node1&#45;&gt;Node7 -->
<g id="edge43" class="edge"><title>Node1&#45;&gt;Node7</title>
<path fill="none" stroke="midnightblue" d="M523.692,-412.395C656.784,-401.582 912,-370.483 912,-291 912,-291 912,-291 912,-233 912,-174.452 874.202,-112.969 853.764,-84.0027"/>
<polygon fill="midnightblue" stroke="midnightblue" points="856.51,-81.8282 847.808,-75.7855 850.843,-85.9363 856.51,-81.8282"/>
</g>
<!-- Node23 -->
<g id="node23" class="node"><title>Node23</title>
<g id="a_node23"><a xlink:href="ParameterMgrLogger_8h.html" target="_top" xlink:title="ParameterMgrLogger.h">
<polygon fill="white" stroke="black" points="337,-336.5 337,-355.5 463,-355.5 463,-336.5 337,-336.5"/>
<text text-anchor="middle" x="400" y="-343.5" font-family="Verdana" font-size="10.00">ParameterMgrLogger.h</text>
</a>
</g>
</g>
<!-- Node1&#45;&gt;Node23 -->
<g id="edge39" class="edge"><title>Node1&#45;&gt;Node23</title>
<path fill="none" stroke="midnightblue" d="M429.008,-392.446C423.061,-383.129 416.451,-372.772 411.044,-364.302"/>
<polygon fill="midnightblue" stroke="midnightblue" points="413.881,-362.242 405.55,-355.695 407.98,-366.008 413.881,-362.242"/>
</g>
<!-- Node4 -->
<g id="node4" class="node"><title>Node4</title>
<polygon fill="white" stroke="#bfbfbf" points="744.5,-224.5 744.5,-243.5 807.5,-243.5 807.5,-224.5 744.5,-224.5"/>
<text text-anchor="middle" x="776" y="-231.5" font-family="Verdana" font-size="10.00">pthread.h</text>
</g>
<!-- Node3&#45;&gt;Node4 -->
<g id="edge3" class="edge"><title>Node3&#45;&gt;Node4</title>
<path fill="none" stroke="midnightblue" d="M536.836,-280.47C584.962,-271.49 662.827,-256.895 730,-244 731.448,-243.722 732.922,-243.438 734.411,-243.151"/>
<polygon fill="midnightblue" stroke="midnightblue" points="735.181,-246.567 744.332,-241.227 733.848,-239.695 735.181,-246.567"/>
</g>
<!-- Node5 -->
<g id="node5" class="node"><title>Node5</title>
<polygon fill="white" stroke="#bfbfbf" points="396,-112.5 396,-131.5 434,-131.5 434,-112.5 396,-112.5"/>
<text text-anchor="middle" x="415" y="-119.5" font-family="Verdana" font-size="10.00">map</text>
</g>
<!-- Node3&#45;&gt;Node5 -->
<g id="edge4" class="edge"><title>Node3&#45;&gt;Node5</title>
<path fill="none" stroke="midnightblue" d="M486.914,-280.075C474.847,-253.719 439.209,-175.878 423.086,-140.661"/>
<polygon fill="midnightblue" stroke="midnightblue" points="426.268,-139.204 418.923,-131.568 419.903,-142.117 426.268,-139.204"/>
</g>
<!-- Node6 -->
<g id="node6" class="node"><title>Node6</title>
<polygon fill="white" stroke="#bfbfbf" points="755.5,-0.5 755.5,-19.5 802.5,-19.5 802.5,-0.5 755.5,-0.5"/>
<text text-anchor="middle" x="779" y="-7.5" font-family="Verdana" font-size="10.00">vector</text>
</g>
<!-- Node3&#45;&gt;Node6 -->
<g id="edge5" class="edge"><title>Node3&#45;&gt;Node6</title>
<path fill="none" stroke="midnightblue" d="M537.578,-288.679C621.169,-287.195 792.206,-279.74 838,-244 904.545,-192.064 908.715,-128.212 865,-56 853.556,-37.0956 831.269,-25.7506 812.251,-19.181"/>
<polygon fill="midnightblue" stroke="midnightblue" points="813.268,-15.8319 802.678,-16.1661 811.165,-22.5086 813.268,-15.8319"/>
</g>
<!-- Node3&#45;&gt;Node7 -->
<g id="edge6" class="edge"><title>Node3&#45;&gt;Node7</title>
<path fill="none" stroke="midnightblue" d="M537.507,-289.229C618.083,-288.585 778.717,-282.375 817,-244 859.489,-201.409 851.363,-121.719 844.935,-85.6203"/>
<polygon fill="midnightblue" stroke="midnightblue" points="848.318,-84.682 842.974,-75.5338 841.447,-86.018 848.318,-84.682"/>
</g>
<!-- Node8 -->
<g id="node8" class="node"><title>Node8</title>
<g id="a_node8"><a xlink:href="RemoteCommandHandlerTemplate_8h.html" target="_top" xlink:title="RemoteCommandHandlerTemplate.h">
<polygon fill="white" stroke="black" points="538,-168.5 538,-187.5 732,-187.5 732,-168.5 538,-168.5"/>
<text text-anchor="middle" x="635" y="-175.5" font-family="Verdana" font-size="10.00">RemoteCommandHandlerTemplate.h</text>
</a>
</g>
</g>
<!-- Node3&#45;&gt;Node8 -->
<g id="edge7" class="edge"><title>Node3&#45;&gt;Node8</title>
<path fill="none" stroke="midnightblue" d="M502.299,-280.368C526.8,-261.653 585.057,-217.151 615.583,-193.832"/>
<polygon fill="midnightblue" stroke="midnightblue" points="617.931,-196.443 623.753,-187.591 613.682,-190.881 617.931,-196.443"/>
</g>
<!-- Node12 -->
<g id="node12" class="node"><title>Node12</title>
<polygon fill="white" stroke="#bfbfbf" points="268,-0.5 268,-19.5 312,-19.5 312,-0.5 268,-0.5"/>
<text text-anchor="middle" x="290" y="-7.5" font-family="Verdana" font-size="10.00">string</text>
</g>
<!-- Node3&#45;&gt;Node12 -->
<g id="edge38" class="edge"><title>Node3&#45;&gt;Node12</title>
<path fill="none" stroke="midnightblue" d="M444.28,-281.274C441.142,-280.822 438.027,-280.393 435,-280 354.391,-269.546 138.096,-289.883 71,-244 44.2564,-225.712 38,-211.399 38,-179 38,-179 38,-179 38,-121 38,-26.2973 189.337,-12.314 257.455,-10.8167"/>
<polygon fill="midnightblue" stroke="midnightblue" points="257.687,-14.3138 267.637,-10.6731 257.588,-7.31454 257.687,-14.3138"/>
</g>
<!-- Node13 -->
<g id="node13" class="node"><title>Node13</title>
<g id="a_node13"><a xlink:href="PathNavigator_8h.html" target="_top" xlink:title="PathNavigator.h">
<polygon fill="white" stroke="black" points="640,-56.5 640,-75.5 732,-75.5 732,-56.5 640,-56.5"/>
<text text-anchor="middle" x="686" y="-63.5" font-family="Verdana" font-size="10.00">PathNavigator.h</text>
</a>
</g>
</g>
<!-- Node3&#45;&gt;Node13 -->
<g id="edge14" class="edge"><title>Node3&#45;&gt;Node13</title>
<path fill="none" stroke="midnightblue" d="M537.752,-285.303C596.612,-277.854 695.518,-255.428 741,-188 764.418,-153.282 726.992,-106.977 703.219,-82.9627"/>
<polygon fill="midnightblue" stroke="midnightblue" points="705.393,-80.1942 695.789,-75.722 700.508,-85.2077 705.393,-80.1942"/>
</g>
<!-- Node14 -->
<g id="node14" class="node"><title>Node14</title>
<g id="a_node14"><a xlink:href="SelectionCriterionType_8h.html" target="_top" xlink:title="SelectionCriterionType.h">
<polygon fill="white" stroke="black" points="274.5,-168.5 274.5,-187.5 405.5,-187.5 405.5,-168.5 274.5,-168.5"/>
<text text-anchor="middle" x="340" y="-175.5" font-family="Verdana" font-size="10.00">SelectionCriterionType.h</text>
</a>
</g>
</g>
<!-- Node3&#45;&gt;Node14 -->
<g id="edge18" class="edge"><title>Node3&#45;&gt;Node14</title>
<path fill="none" stroke="midnightblue" d="M482.049,-280.474C468.238,-267.527 440.644,-242.462 415,-224 399.028,-212.501 380.004,-201.111 365.113,-192.667"/>
<polygon fill="midnightblue" stroke="midnightblue" points="366.434,-189.396 355.998,-187.572 363.019,-195.506 366.434,-189.396"/>
</g>
<!-- Node15 -->
<g id="node15" class="node"><title>Node15</title>
<g id="a_node15"><a xlink:href="Element_8h.html" target="_top" xlink:title="Element.h">
<polygon fill="white" stroke="black" points="452.5,-112.5 452.5,-131.5 517.5,-131.5 517.5,-112.5 452.5,-112.5"/>
<text text-anchor="middle" x="485" y="-119.5" font-family="Verdana" font-size="10.00">Element.h</text>
</a>
</g>
</g>
<!-- Node3&#45;&gt;Node15 -->
<g id="edge35" class="edge"><title>Node3&#45;&gt;Node15</title>
<path fill="none" stroke="midnightblue" d="M490.677,-280.075C489.733,-253.945 486.959,-177.211 485.671,-141.577"/>
<polygon fill="midnightblue" stroke="midnightblue" points="489.169,-141.435 485.31,-131.568 482.173,-141.688 489.169,-141.435"/>
</g>
<!-- Node19 -->
<g id="node19" class="node"><title>Node19</title>
<g id="a_node19"><a xlink:href="SelectionCriterion_8h.html" target="_top" xlink:title="SelectionCriterion.h">
<polygon fill="white" stroke="black" points="80,-224.5 80,-243.5 190,-243.5 190,-224.5 80,-224.5"/>
<text text-anchor="middle" x="135" y="-231.5" font-family="Verdana" font-size="10.00">SelectionCriterion.h</text>
</a>
</g>
</g>
<!-- Node3&#45;&gt;Node19 -->
<g id="edge30" class="edge"><title>Node3&#45;&gt;Node19</title>
<path fill="none" stroke="midnightblue" d="M444.255,-281.45C441.123,-280.956 438.016,-280.469 435,-280 354.196,-267.447 261.052,-253.567 200.261,-244.588"/>
<polygon fill="midnightblue" stroke="midnightblue" points="200.448,-241.078 190.044,-243.08 199.426,-248.003 200.448,-241.078"/>
</g>
<!-- Node21 -->
<g id="node21" class="node"><title>Node21</title>
<polygon fill="white" stroke="#bfbfbf" points="208.5,-224.5 208.5,-243.5 291.5,-243.5 291.5,-224.5 208.5,-224.5"/>
<text text-anchor="middle" x="250" y="-231.5" font-family="Verdana" font-size="10.00">XmlDocSink.h</text>
</g>
<!-- Node3&#45;&gt;Node21 -->
<g id="edge36" class="edge"><title>Node3&#45;&gt;Node21</title>
<path fill="none" stroke="midnightblue" d="M452.813,-280.444C410.859,-271.043 343.406,-255.929 297.929,-245.739"/>
<polygon fill="midnightblue" stroke="midnightblue" points="298.532,-242.288 288.009,-243.516 297.001,-249.118 298.532,-242.288"/>
</g>
<!-- Node22 -->
<g id="node22" class="node"><title>Node22</title>
<polygon fill="white" stroke="#bfbfbf" points="310,-224.5 310,-243.5 406,-243.5 406,-224.5 310,-224.5"/>
<text text-anchor="middle" x="358" y="-231.5" font-family="Verdana" font-size="10.00">XmlDocSource.h</text>
</g>
<!-- Node3&#45;&gt;Node22 -->
<g id="edge37" class="edge"><title>Node3&#45;&gt;Node22</title>
<path fill="none" stroke="midnightblue" d="M469.926,-280.444C447.94,-271.517 413.266,-257.439 388.336,-247.317"/>
<polygon fill="midnightblue" stroke="midnightblue" points="389.558,-244.035 378.976,-243.516 386.924,-250.521 389.558,-244.035"/>
</g>
<!-- Node8&#45;&gt;Node6 -->
<g id="edge8" class="edge"><title>Node8&#45;&gt;Node6</title>
<path fill="none" stroke="midnightblue" d="M652.799,-168.281C681.092,-153.453 735.985,-120.543 764,-76 772.767,-62.0606 776.423,-43.5537 777.94,-29.8533"/>
<polygon fill="midnightblue" stroke="midnightblue" points="781.445,-29.9346 778.778,-19.6811 774.469,-29.3603 781.445,-29.9346"/>
</g>
<!-- Node9 -->
<g id="node9" class="node"><title>Node9</title>
<g id="a_node9"><a xlink:href="RemoteCommandHandler_8h.html" target="_top" xlink:title="RemoteCommandHandler.h">
<polygon fill="white" stroke="black" points="535.5,-112.5 535.5,-131.5 684.5,-131.5 684.5,-112.5 535.5,-112.5"/>
<text text-anchor="middle" x="610" y="-119.5" font-family="Verdana" font-size="10.00">RemoteCommandHandler.h</text>
</a>
</g>
</g>
<!-- Node8&#45;&gt;Node9 -->
<g id="edge9" class="edge"><title>Node8&#45;&gt;Node9</title>
<path fill="none" stroke="midnightblue" d="M630.872,-168.083C627.486,-160.77 622.584,-150.181 618.381,-141.103"/>
<polygon fill="midnightblue" stroke="midnightblue" points="621.429,-139.355 614.051,-131.751 615.077,-142.296 621.429,-139.355"/>
</g>
<!-- Node10 -->
<g id="node10" class="node"><title>Node10</title>
<g id="a_node10"><a xlink:href="RemoteCommand_8h.html" target="_top" xlink:title="RemoteCommand.h">
<polygon fill="white" stroke="black" points="508.5,-56.5 508.5,-75.5 621.5,-75.5 621.5,-56.5 508.5,-56.5"/>
<text text-anchor="middle" x="565" y="-63.5" font-family="Verdana" font-size="10.00">RemoteCommand.h</text>
</a>
</g>
</g>
<!-- Node9&#45;&gt;Node10 -->
<g id="edge10" class="edge"><title>Node9&#45;&gt;Node10</title>
<path fill="none" stroke="midnightblue" d="M602.569,-112.083C596.147,-104.377 586.694,-93.0333 578.878,-83.6531"/>
<polygon fill="midnightblue" stroke="midnightblue" points="581.383,-81.1927 572.293,-75.7511 576.006,-85.674 581.383,-81.1927"/>
</g>
<!-- Node9&#45;&gt;Node12 -->
<g id="edge13" class="edge"><title>Node9&#45;&gt;Node12</title>
<path fill="none" stroke="midnightblue" d="M585.156,-112.46C527.589,-92.6711 385.138,-43.7038 321.541,-21.8421"/>
<polygon fill="midnightblue" stroke="midnightblue" points="322.63,-18.5158 312.036,-18.5748 320.355,-25.1356 322.63,-18.5158"/>
</g>
<!-- Node11 -->
<g id="node11" class="node"><title>Node11</title>
<polygon fill="white" stroke="#bfbfbf" points="538.5,-0.5 538.5,-19.5 591.5,-19.5 591.5,-0.5 538.5,-0.5"/>
<text text-anchor="middle" x="565" y="-7.5" font-family="Verdana" font-size="10.00">stdint.h</text>
</g>
<!-- Node10&#45;&gt;Node11 -->
<g id="edge11" class="edge"><title>Node10&#45;&gt;Node11</title>
<path fill="none" stroke="midnightblue" d="M565,-56.083C565,-49.0059 565,-38.8611 565,-29.9865"/>
<polygon fill="midnightblue" stroke="midnightblue" points="568.5,-29.751 565,-19.7511 561.5,-29.7511 568.5,-29.751"/>
</g>
<!-- Node10&#45;&gt;Node12 -->
<g id="edge12" class="edge"><title>Node10&#45;&gt;Node12</title>
<path fill="none" stroke="midnightblue" d="M521.425,-56.4435C465.974,-45.5549 371.484,-27.0005 322.146,-17.3123"/>
<polygon fill="midnightblue" stroke="midnightblue" points="322.535,-13.8219 312.048,-15.3294 321.186,-20.6907 322.535,-13.8219"/>
</g>
<!-- Node13&#45;&gt;Node6 -->
<g id="edge15" class="edge"><title>Node13&#45;&gt;Node6</title>
<path fill="none" stroke="midnightblue" d="M700.942,-56.324C715.585,-47.8215 738.134,-34.7288 755.238,-24.7975"/>
<polygon fill="midnightblue" stroke="midnightblue" points="757.205,-27.7027 764.095,-19.6545 753.69,-21.6491 757.205,-27.7027"/>
</g>
<!-- Node13&#45;&gt;Node11 -->
<g id="edge17" class="edge"><title>Node13&#45;&gt;Node11</title>
<path fill="none" stroke="midnightblue" d="M666.827,-56.4435C647.091,-47.6356 616.115,-33.8116 593.507,-23.722"/>
<polygon fill="midnightblue" stroke="midnightblue" points="594.641,-20.3957 584.083,-19.5164 591.789,-26.788 594.641,-20.3957"/>
</g>
<!-- Node13&#45;&gt;Node12 -->
<g id="edge16" class="edge"><title>Node13&#45;&gt;Node12</title>
<path fill="none" stroke="midnightblue" d="M639.803,-57.3339C636.825,-56.8728 633.872,-56.4243 631,-56 517.874,-39.284 383.178,-22.3956 322.487,-14.9468"/>
<polygon fill="midnightblue" stroke="midnightblue" points="322.727,-11.4501 312.376,-13.7092 321.877,-18.3983 322.727,-11.4501"/>
</g>
<!-- Node14&#45;&gt;Node5 -->
<g id="edge27" class="edge"><title>Node14&#45;&gt;Node5</title>
<path fill="none" stroke="midnightblue" d="M352.05,-168.324C363.463,-160.107 380.831,-147.602 394.435,-137.807"/>
<polygon fill="midnightblue" stroke="midnightblue" points="396.66,-140.517 402.731,-131.834 392.57,-134.837 396.66,-140.517"/>
</g>
<!-- Node14&#45;&gt;Node12 -->
<g id="edge28" class="edge"><title>Node14&#45;&gt;Node12</title>
<path fill="none" stroke="midnightblue" d="M292.737,-168.462C255.391,-160.641 207.675,-147.88 196,-132 184.746,-116.692 191.266,-77.4009 207,-56 219.534,-38.9517 240.533,-27.6543 258.273,-20.6429"/>
<polygon fill="midnightblue" stroke="midnightblue" points="259.534,-23.9083 267.718,-17.1794 257.124,-17.3362 259.534,-23.9083"/>
</g>
<!-- Node14&#45;&gt;Node15 -->
<g id="edge19" class="edge"><title>Node14&#45;&gt;Node15</title>
<path fill="none" stroke="midnightblue" d="M362.976,-168.444C387.157,-159.438 425.418,-145.189 452.646,-135.049"/>
<polygon fill="midnightblue" stroke="midnightblue" points="453.982,-138.286 462.132,-131.516 451.539,-131.727 453.982,-138.286"/>
</g>
<!-- Node18 -->
<g id="node18" class="node"><title>Node18</title>
<polygon fill="white" stroke="#bfbfbf" points="204.5,-112.5 204.5,-131.5 377.5,-131.5 377.5,-112.5 204.5,-112.5"/>
<text text-anchor="middle" x="291" y="-119.5" font-family="Verdana" font-size="10.00">SelectionCriterionTypeInterface.h</text>
</g>
<!-- Node14&#45;&gt;Node18 -->
<g id="edge29" class="edge"><title>Node14&#45;&gt;Node18</title>
<path fill="none" stroke="midnightblue" d="M331.909,-168.083C324.845,-160.298 314.412,-148.801 305.851,-139.367"/>
<polygon fill="midnightblue" stroke="midnightblue" points="308.253,-136.805 298.941,-131.751 303.069,-141.509 308.253,-136.805"/>
</g>
<!-- Node15&#45;&gt;Node6 -->
<g id="edge21" class="edge"><title>Node15&#45;&gt;Node6</title>
<path fill="none" stroke="midnightblue" d="M517.53,-113.88C520.726,-113.225 523.924,-112.588 527,-112 621.732,-93.8913 661.629,-130.793 741,-76 757.101,-64.885 767.364,-44.5485 773.112,-29.5726"/>
<polygon fill="midnightblue" stroke="midnightblue" points="776.524,-30.4186 776.518,-19.8237 769.916,-28.1096 776.524,-30.4186"/>
</g>
<!-- Node15&#45;&gt;Node7 -->
<g id="edge23" class="edge"><title>Node15&#45;&gt;Node7</title>
<path fill="none" stroke="midnightblue" d="M517.516,-113.802C520.715,-113.163 523.917,-112.551 527,-112 582.733,-102.047 751.486,-79.0545 815.766,-70.3878"/>
<polygon fill="midnightblue" stroke="midnightblue" points="816.387,-73.8358 825.831,-69.0328 815.453,-66.8984 816.387,-73.8358"/>
</g>
<!-- Node15&#45;&gt;Node11 -->
<g id="edge22" class="edge"><title>Node15&#45;&gt;Node11</title>
<path fill="none" stroke="midnightblue" d="M485.069,-112.219C485.578,-98.9377 488.168,-73.4436 500,-56 509.052,-42.6554 523.485,-32.0817 536.454,-24.546"/>
<polygon fill="midnightblue" stroke="midnightblue" points="538.431,-27.4548 545.541,-19.5997 535.085,-21.3067 538.431,-27.4548"/>
</g>
<!-- Node15&#45;&gt;Node12 -->
<g id="edge20" class="edge"><title>Node15&#45;&gt;Node12</title>
<path fill="none" stroke="midnightblue" d="M473.011,-112.453C454.564,-99.4771 417.901,-74.3767 385,-56 363.563,-44.0264 338.417,-32.2086 319.384,-23.6902"/>
<polygon fill="midnightblue" stroke="midnightblue" points="320.6,-20.4011 310.039,-19.5531 317.766,-26.8019 320.6,-20.4011"/>
</g>
<!-- Node15&#45;&gt;Node13 -->
<g id="edge26" class="edge"><title>Node15&#45;&gt;Node13</title>
<path fill="none" stroke="midnightblue" d="M516.849,-112.444C551.398,-103.162 606.682,-88.3093 644.583,-78.127"/>
<polygon fill="midnightblue" stroke="midnightblue" points="645.551,-81.4912 654.3,-75.5164 643.734,-74.7309 645.551,-81.4912"/>
</g>
<!-- Node16 -->
<g id="node16" class="node"><title>Node16</title>
<polygon fill="white" stroke="#bfbfbf" points="216,-56.5 216,-75.5 280,-75.5 280,-56.5 216,-56.5"/>
<text text-anchor="middle" x="248" y="-63.5" font-family="Verdana" font-size="10.00">XmlSink.h</text>
</g>
<!-- Node15&#45;&gt;Node16 -->
<g id="edge24" class="edge"><title>Node15&#45;&gt;Node16</title>
<path fill="none" stroke="midnightblue" d="M452.046,-113.492C409.832,-103.873 336.605,-87.1884 290.311,-76.6404"/>
<polygon fill="midnightblue" stroke="midnightblue" points="290.822,-73.1673 280.294,-74.3582 289.267,-79.9924 290.822,-73.1673"/>
</g>
<!-- Node17 -->
<g id="node17" class="node"><title>Node17</title>
<polygon fill="white" stroke="#bfbfbf" points="298.5,-56.5 298.5,-75.5 375.5,-75.5 375.5,-56.5 298.5,-56.5"/>
<text text-anchor="middle" x="337" y="-63.5" font-family="Verdana" font-size="10.00">XmlSource.h</text>
</g>
<!-- Node15&#45;&gt;Node17 -->
<g id="edge25" class="edge"><title>Node15&#45;&gt;Node17</title>
<path fill="none" stroke="midnightblue" d="M461.549,-112.444C436.867,-103.438 397.815,-89.1891 370.023,-79.049"/>
<polygon fill="midnightblue" stroke="midnightblue" points="370.935,-75.6561 360.341,-75.5164 368.536,-82.2321 370.935,-75.6561"/>
</g>
<!-- Node19&#45;&gt;Node12 -->
<g id="edge34" class="edge"><title>Node19&#45;&gt;Node12</title>
<path fill="none" stroke="midnightblue" d="M123.336,-224.326C108.814,-212.38 86.853,-189.851 95,-168 118.005,-106.298 139.329,-95.5242 192,-56 212.112,-40.9079 238.095,-29.2654 258.254,-21.6071"/>
<polygon fill="midnightblue" stroke="midnightblue" points="259.729,-24.7943 267.915,-18.0692 257.322,-18.2211 259.729,-24.7943"/>
</g>
<!-- Node19&#45;&gt;Node14 -->
<g id="edge32" class="edge"><title>Node19&#45;&gt;Node14</title>
<path fill="none" stroke="midnightblue" d="M167.483,-224.444C202.72,-215.162 259.104,-200.309 297.759,-190.127"/>
<polygon fill="midnightblue" stroke="midnightblue" points="298.891,-193.448 307.669,-187.516 297.107,-186.679 298.891,-193.448"/>
</g>
<!-- Node19&#45;&gt;Node15 -->
<g id="edge31" class="edge"><title>Node19&#45;&gt;Node15</title>
<path fill="none" stroke="midnightblue" d="M190.112,-224.981C268.788,-213.413 404.975,-192.891 415,-188 438.175,-176.694 459.021,-155.144 471.818,-139.964"/>
<polygon fill="midnightblue" stroke="midnightblue" points="474.79,-141.857 478.379,-131.888 469.357,-137.443 474.79,-141.857"/>
</g>
<!-- Node20 -->
<g id="node20" class="node"><title>Node20</title>
<polygon fill="white" stroke="#bfbfbf" points="104,-168.5 104,-187.5 256,-187.5 256,-168.5 104,-168.5"/>
<text text-anchor="middle" x="180" y="-175.5" font-family="Verdana" font-size="10.00">SelectionCriterionInterface.h</text>
</g>
<!-- Node19&#45;&gt;Node20 -->
<g id="edge33" class="edge"><title>Node19&#45;&gt;Node20</title>
<path fill="none" stroke="midnightblue" d="M142.431,-224.083C148.853,-216.377 158.306,-205.033 166.122,-195.653"/>
<polygon fill="midnightblue" stroke="midnightblue" points="168.994,-197.674 172.707,-187.751 163.617,-193.193 168.994,-197.674"/>
</g>
<!-- Node23&#45;&gt;Node3 -->
<g id="edge41" class="edge"><title>Node23&#45;&gt;Node3</title>
<path fill="none" stroke="midnightblue" d="M414.621,-336.324C428.949,-327.822 451.013,-314.729 467.749,-304.797"/>
<polygon fill="midnightblue" stroke="midnightblue" points="469.602,-307.768 476.416,-299.655 466.03,-301.748 469.602,-307.768"/>
</g>
<!-- Node23&#45;&gt;Node12 -->
<g id="edge42" class="edge"><title>Node23&#45;&gt;Node12</title>
<path fill="none" stroke="midnightblue" d="M349.745,-336.469C242.313,-317.542 0,-270.876 0,-235 0,-235 0,-235 0,-121 0,-84.0042 20.2962,-75.0673 52,-56 117.33,-16.7093 209.487,-10.4998 257.712,-10.2218"/>
<polygon fill="midnightblue" stroke="midnightblue" points="257.861,-13.7221 267.87,-10.2487 257.879,-6.72208 257.861,-13.7221"/>
</g>
<!-- Node24 -->
<g id="node24" class="node"><title>Node24</title>
<polygon fill="white" stroke="#bfbfbf" points="262,-280.5 262,-299.5 426,-299.5 426,-280.5 262,-280.5"/>
<text text-anchor="middle" x="344" y="-287.5" font-family="Verdana" font-size="10.00">ParameterMgrLoggerForward.h</text>
</g>
<!-- Node23&#45;&gt;Node24 -->
<g id="edge40" class="edge"><title>Node23&#45;&gt;Node24</title>
<path fill="none" stroke="midnightblue" d="M391.003,-336.324C382.806,-328.42 370.494,-316.548 360.528,-306.938"/>
<polygon fill="midnightblue" stroke="midnightblue" points="362.789,-304.256 353.161,-299.834 357.93,-309.295 362.789,-304.256"/>
</g>
</g>
</svg>
