<?xml version="1.0" encoding="UTF-8" standalone="no"?>
<!DOCTYPE svg PUBLIC "-//W3C//DTD SVG 1.1//EN"
 "http://www.w3.org/Graphics/SVG/1.1/DTD/svg11.dtd">
<!-- Generated by graphviz version 2.38.0 (20140413.2041)
 -->
<!-- Title: /home/dawagner/dev/parameter&#45;framework/parameter/ParameterMgrPlatformConnector.cpp Pages: 1 -->
<svg width="1138pt" height="453pt"
 viewBox="0.00 0.00 1138.03 453.00" xmlns="http://www.w3.org/2000/svg" xmlns:xlink="http://www.w3.org/1999/xlink">
<g id="graph0" class="graph" transform="scale(1 1) rotate(0) translate(4 449)">
<title>/home/dawagner/dev/parameter&#45;framework/parameter/ParameterMgrPlatformConnector.cpp</title>
<polygon fill="white" stroke="none" points="-4,4 -4,-449 1134.03,-449 1134.03,4 -4,4"/>
<!-- Node1 -->
<g id="node1" class="node"><title>Node1</title>
<polygon fill="#bfbfbf" stroke="black" points="503,-392.5 503,-444.5 685,-444.5 685,-392.5 503,-392.5"/>
<text text-anchor="start" x="511" y="-432.5" font-family="Verdana" font-size="10.00">/home/dawagner/dev</text>
<text text-anchor="start" x="511" y="-421.5" font-family="Verdana" font-size="10.00">/parameter&#45;framework</text>
<text text-anchor="start" x="511" y="-410.5" font-family="Verdana" font-size="10.00">/parameter/ParameterMgrPlatform</text>
<text text-anchor="middle" x="594" y="-399.5" font-family="Verdana" font-size="10.00">Connector.cpp</text>
</g>
<!-- Node2 -->
<g id="node2" class="node"><title>Node2</title>
<polygon fill="white" stroke="#bfbfbf" points="284.5,-336.5 284.5,-355.5 467.5,-355.5 467.5,-336.5 284.5,-336.5"/>
<text text-anchor="middle" x="376" y="-343.5" font-family="Verdana" font-size="10.00">ParameterMgrPlatformConnector.h</text>
</g>
<!-- Node1&#45;&gt;Node2 -->
<g id="edge1" class="edge"><title>Node1&#45;&gt;Node2</title>
<path fill="none" stroke="midnightblue" d="M516.528,-392.446C480.995,-380.955 440.571,-367.882 412.23,-358.717"/>
<polygon fill="midnightblue" stroke="midnightblue" points="412.959,-355.274 402.367,-355.527 410.805,-361.934 412.959,-355.274"/>
</g>
<!-- Node3 -->
<g id="node3" class="node"><title>Node3</title>
<g id="a_node3"><a xlink:href="ParameterMgr_8h.html" target="_top" xlink:title="ParameterMgr.h">
<polygon fill="white" stroke="black" points="621.5,-280.5 621.5,-299.5 714.5,-299.5 714.5,-280.5 621.5,-280.5"/>
<text text-anchor="middle" x="668" y="-287.5" font-family="Verdana" font-size="10.00">ParameterMgr.h</text>
</a>
</g>
</g>
<!-- Node1&#45;&gt;Node3 -->
<g id="edge2" class="edge"><title>Node1&#45;&gt;Node3</title>
<path fill="none" stroke="midnightblue" d="M608.797,-392.205C623.354,-367.32 645.188,-329.996 657.873,-308.311"/>
<polygon fill="midnightblue" stroke="midnightblue" points="660.97,-309.949 662.999,-299.55 654.928,-306.414 660.97,-309.949"/>
</g>
<!-- Node23 -->
<g id="node23" class="node"><title>Node23</title>
<g id="a_node23"><a xlink:href="ParameterMgrLogger_8h.html" target="_top" xlink:title="ParameterMgrLogger.h">
<polygon fill="white" stroke="black" points="486,-336.5 486,-355.5 612,-355.5 612,-336.5 486,-336.5"/>
<text text-anchor="middle" x="549" y="-343.5" font-family="Verdana" font-size="10.00">ParameterMgrLogger.h</text>
</a>
</g>
</g>
<!-- Node1&#45;&gt;Node23 -->
<g id="edge39" class="edge"><title>Node1&#45;&gt;Node23</title>
<path fill="none" stroke="midnightblue" d="M578.008,-392.446C572.061,-383.129 565.451,-372.772 560.044,-364.302"/>
<polygon fill="midnightblue" stroke="midnightblue" points="562.881,-362.242 554.55,-355.695 556.98,-366.008 562.881,-362.242"/>
</g>
<!-- Node25 -->
<g id="node25" class="node"><title>Node25</title>
<polygon fill="white" stroke="#bfbfbf" points="668,-336.5 668,-355.5 724,-355.5 724,-336.5 668,-336.5"/>
<text text-anchor="middle" x="696" y="-343.5" font-family="Verdana" font-size="10.00">assert.h</text>
</g>
<!-- Node1&#45;&gt;Node25 -->
<g id="edge43" class="edge"><title>Node1&#45;&gt;Node25</title>
<path fill="none" stroke="midnightblue" d="M630.249,-392.446C645.178,-382.127 661.952,-370.533 674.821,-361.638"/>
<polygon fill="midnightblue" stroke="midnightblue" points="677.183,-364.261 683.419,-355.695 673.203,-358.502 677.183,-364.261"/>
</g>
<!-- Node4 -->
<g id="node4" class="node"><title>Node4</title>
<polygon fill="white" stroke="#bfbfbf" points="696.5,-224.5 696.5,-243.5 759.5,-243.5 759.5,-224.5 696.5,-224.5"/>
<text text-anchor="middle" x="728" y="-231.5" font-family="Verdana" font-size="10.00">pthread.h</text>
</g>
<!-- Node3&#45;&gt;Node4 -->
<g id="edge3" class="edge"><title>Node3&#45;&gt;Node4</title>
<path fill="none" stroke="midnightblue" d="M677.64,-280.324C686.51,-272.341 699.875,-260.313 710.608,-250.653"/>
<polygon fill="midnightblue" stroke="midnightblue" points="713.093,-253.125 718.185,-243.834 708.41,-247.922 713.093,-253.125"/>
</g>
<!-- Node5 -->
<g id="node5" class="node"><title>Node5</title>
<polygon fill="white" stroke="#bfbfbf" points="66,-112.5 66,-131.5 104,-131.5 104,-112.5 66,-112.5"/>
<text text-anchor="middle" x="85" y="-119.5" font-family="Verdana" font-size="10.00">map</text>
</g>
<!-- Node3&#45;&gt;Node5 -->
<g id="edge4" class="edge"><title>Node3&#45;&gt;Node5</title>
<path fill="none" stroke="midnightblue" d="M621.275,-281.31C618.139,-280.85 615.025,-280.408 612,-280 466.227,-260.323 424.032,-285.797 283,-244 209.25,-222.143 135.367,-165.579 102.576,-138.239"/>
<polygon fill="midnightblue" stroke="midnightblue" points="104.693,-135.445 94.7991,-131.655 100.17,-140.788 104.693,-135.445"/>
</g>
<!-- Node6 -->
<g id="node6" class="node"><title>Node6</title>
<polygon fill="white" stroke="#bfbfbf" points="828.5,-0.5 828.5,-19.5 875.5,-19.5 875.5,-0.5 828.5,-0.5"/>
<text text-anchor="middle" x="852" y="-7.5" font-family="Verdana" font-size="10.00">vector</text>
</g>
<!-- Node3&#45;&gt;Node6 -->
<g id="edge5" class="edge"><title>Node3&#45;&gt;Node6</title>
<path fill="none" stroke="midnightblue" d="M714.706,-287.163C822.17,-282.528 1080.06,-268.912 1110,-244 1133.14,-224.75 1129,-209.098 1129,-179 1129,-179 1129,-179 1129,-121 1129,-69.2162 959.668,-31.1642 885.792,-17.027"/>
<polygon fill="midnightblue" stroke="midnightblue" points="886.091,-13.522 875.617,-15.1159 884.799,-20.4017 886.091,-13.522"/>
</g>
<!-- Node7 -->
<g id="node7" class="node"><title>Node7</title>
<polygon fill="white" stroke="#bfbfbf" points="837,-56.5 837,-75.5 867,-75.5 867,-56.5 837,-56.5"/>
<text text-anchor="middle" x="852" y="-63.5" font-family="Verdana" font-size="10.00">list</text>
</g>
<!-- Node3&#45;&gt;Node7 -->
<g id="edge6" class="edge"><title>Node3&#45;&gt;Node7</title>
<path fill="none" stroke="midnightblue" d="M714.617,-280.596C740.906,-274.045 773.156,-262.795 797,-244 846.027,-205.353 852.333,-123.63 852.511,-86.3144"/>
<polygon fill="midnightblue" stroke="midnightblue" points="856.007,-85.8325 852.401,-75.8702 849.007,-85.9068 856.007,-85.8325"/>
</g>
<!-- Node8 -->
<g id="node8" class="node"><title>Node8</title>
<g id="a_node8"><a xlink:href="RemoteCommandHandlerTemplate_8h.html" target="_top" xlink:title="RemoteCommandHandlerTemplate.h">
<polygon fill="white" stroke="black" points="615,-168.5 615,-187.5 809,-187.5 809,-168.5 615,-168.5"/>
<text text-anchor="middle" x="712" y="-175.5" font-family="Verdana" font-size="10.00">RemoteCommandHandlerTemplate.h</text>
</a>
</g>
</g>
<!-- Node3&#45;&gt;Node8 -->
<g id="edge7" class="edge"><title>Node3&#45;&gt;Node8</title>
<path fill="none" stroke="midnightblue" d="M670.083,-280.403C673.266,-267.786 679.837,-243.622 688,-224 691.868,-214.701 697.038,-204.781 701.588,-196.628"/>
<polygon fill="midnightblue" stroke="midnightblue" points="704.758,-198.135 706.702,-187.72 698.688,-194.65 704.758,-198.135"/>
</g>
<!-- Node12 -->
<g id="node12" class="node"><title>Node12</title>
<polygon fill="white" stroke="#bfbfbf" points="234,-0.5 234,-19.5 278,-19.5 278,-0.5 234,-0.5"/>
<text text-anchor="middle" x="256" y="-7.5" font-family="Verdana" font-size="10.00">string</text>
</g>
<!-- Node3&#45;&gt;Node12 -->
<g id="edge38" class="edge"><title>Node3&#45;&gt;Node12</title>
<path fill="none" stroke="midnightblue" d="M621.282,-281.256C618.144,-280.808 615.028,-280.385 612,-280 441.953,-258.388 395.594,-279.993 228,-244 140.74,-225.26 38,-268.249 38,-179 38,-179 38,-179 38,-121 38,-38.8179 163.013,-18.0235 223.702,-12.7707"/>
<polygon fill="midnightblue" stroke="midnightblue" points="224.197,-16.243 233.897,-11.9827 223.657,-9.2638 224.197,-16.243"/>
</g>
<!-- Node13 -->
<g id="node13" class="node"><title>Node13</title>
<g id="a_node13"><a xlink:href="PathNavigator_8h.html" target="_top" xlink:title="PathNavigator.h">
<polygon fill="white" stroke="black" points="689,-56.5 689,-75.5 781,-75.5 781,-56.5 689,-56.5"/>
<text text-anchor="middle" x="735" y="-63.5" font-family="Verdana" font-size="10.00">PathNavigator.h</text>
</a>
</g>
</g>
<!-- Node3&#45;&gt;Node13 -->
<g id="edge14" class="edge"><title>Node3&#45;&gt;Node13</title>
<path fill="none" stroke="midnightblue" d="M698.07,-280.401C736.036,-267.581 798.731,-239.283 818,-188 834.077,-145.211 786.839,-102.958 757.145,-81.5129"/>
<polygon fill="midnightblue" stroke="midnightblue" points="758.789,-78.3922 748.583,-75.5478 754.787,-84.1358 758.789,-78.3922"/>
</g>
<!-- Node14 -->
<g id="node14" class="node"><title>Node14</title>
<g id="a_node14"><a xlink:href="SelectionCriterionType_8h.html" target="_top" xlink:title="SelectionCriterionType.h">
<polygon fill="white" stroke="black" points="181.5,-168.5 181.5,-187.5 312.5,-187.5 312.5,-168.5 181.5,-168.5"/>
<text text-anchor="middle" x="247" y="-175.5" font-family="Verdana" font-size="10.00">SelectionCriterionType.h</text>
</a>
</g>
</g>
<!-- Node3&#45;&gt;Node14 -->
<g id="edge18" class="edge"><title>Node3&#45;&gt;Node14</title>
<path fill="none" stroke="midnightblue" d="M621.27,-281.351C618.135,-280.881 615.023,-280.426 612,-280 480.335,-261.447 435.203,-300.844 315,-244 291.798,-233.028 271.456,-211.031 259.207,-195.68"/>
<polygon fill="midnightblue" stroke="midnightblue" points="261.831,-193.351 252.97,-187.544 256.276,-197.61 261.831,-193.351"/>
</g>
<!-- Node15 -->
<g id="node15" class="node"><title>Node15</title>
<g id="a_node15"><a xlink:href="Element_8h.html" target="_top" xlink:title="Element.h">
<polygon fill="white" stroke="black" points="434.5,-112.5 434.5,-131.5 499.5,-131.5 499.5,-112.5 434.5,-112.5"/>
<text text-anchor="middle" x="467" y="-119.5" font-family="Verdana" font-size="10.00">Element.h</text>
</a>
</g>
</g>
<!-- Node3&#45;&gt;Node15 -->
<g id="edge35" class="edge"><title>Node3&#45;&gt;Node15</title>
<path fill="none" stroke="midnightblue" d="M662.778,-280.214C649.486,-258.498 612.271,-201.629 568,-168 548.952,-153.53 524.517,-142.485 504.453,-134.959"/>
<polygon fill="midnightblue" stroke="midnightblue" points="505.592,-131.649 494.997,-131.548 503.216,-138.234 505.592,-131.649"/>
</g>
<!-- Node19 -->
<g id="node19" class="node"><title>Node19</title>
<g id="a_node19"><a xlink:href="SelectionCriterion_8h.html" target="_top" xlink:title="SelectionCriterion.h">
<polygon fill="white" stroke="black" points="324,-224.5 324,-243.5 434,-243.5 434,-224.5 324,-224.5"/>
<text text-anchor="middle" x="379" y="-231.5" font-family="Verdana" font-size="10.00">SelectionCriterion.h</text>
</a>
</g>
</g>
<!-- Node3&#45;&gt;Node19 -->
<g id="edge30" class="edge"><title>Node3&#45;&gt;Node19</title>
<path fill="none" stroke="midnightblue" d="M622.207,-280.444C571.263,-270.925 488.966,-255.547 434.426,-245.356"/>
<polygon fill="midnightblue" stroke="midnightblue" points="435.051,-241.913 424.579,-243.516 433.766,-248.794 435.051,-241.913"/>
</g>
<!-- Node21 -->
<g id="node21" class="node"><title>Node21</title>
<polygon fill="white" stroke="#bfbfbf" points="903.5,-224.5 903.5,-243.5 986.5,-243.5 986.5,-224.5 903.5,-224.5"/>
<text text-anchor="middle" x="945" y="-231.5" font-family="Verdana" font-size="10.00">XmlDocSink.h</text>
</g>
<!-- Node3&#45;&gt;Node21 -->
<g id="edge36" class="edge"><title>Node3&#45;&gt;Node21</title>
<path fill="none" stroke="midnightblue" d="M711.891,-280.444C761.089,-270.853 840.796,-255.314 893.058,-245.126"/>
<polygon fill="midnightblue" stroke="midnightblue" points="893.982,-248.512 903.127,-243.163 892.642,-241.641 893.982,-248.512"/>
</g>
<!-- Node22 -->
<g id="node22" class="node"><title>Node22</title>
<polygon fill="white" stroke="#bfbfbf" points="1005,-224.5 1005,-243.5 1101,-243.5 1101,-224.5 1005,-224.5"/>
<text text-anchor="middle" x="1053" y="-231.5" font-family="Verdana" font-size="10.00">XmlDocSource.h</text>
</g>
<!-- Node3&#45;&gt;Node22 -->
<g id="edge37" class="edge"><title>Node3&#45;&gt;Node22</title>
<path fill="none" stroke="midnightblue" d="M714.755,-282.889C776.493,-274.751 888.857,-259.71 994.897,-244.139"/>
<polygon fill="midnightblue" stroke="midnightblue" points="995.425,-247.599 1004.81,-242.679 994.405,-240.674 995.425,-247.599"/>
</g>
<!-- Node8&#45;&gt;Node6 -->
<g id="edge8" class="edge"><title>Node8&#45;&gt;Node6</title>
<path fill="none" stroke="midnightblue" d="M742.295,-168.408C781.305,-155.526 847.464,-127.088 876,-76 884.579,-60.6407 875.523,-41.6165 866.181,-28.1276"/>
<polygon fill="midnightblue" stroke="midnightblue" points="868.702,-25.6569 859.882,-19.7866 863.116,-29.8758 868.702,-25.6569"/>
</g>
<!-- Node9 -->
<g id="node9" class="node"><title>Node9</title>
<g id="a_node9"><a xlink:href="RemoteCommandHandler_8h.html" target="_top" xlink:title="RemoteCommandHandler.h">
<polygon fill="white" stroke="black" points="539.5,-112.5 539.5,-131.5 688.5,-131.5 688.5,-112.5 539.5,-112.5"/>
<text text-anchor="middle" x="614" y="-119.5" font-family="Verdana" font-size="10.00">RemoteCommandHandler.h</text>
</a>
</g>
</g>
<!-- Node8&#45;&gt;Node9 -->
<g id="edge9" class="edge"><title>Node8&#45;&gt;Node9</title>
<path fill="none" stroke="midnightblue" d="M696.255,-168.324C680.681,-159.743 656.623,-146.486 638.541,-136.522"/>
<polygon fill="midnightblue" stroke="midnightblue" points="640.154,-133.415 629.706,-131.655 636.776,-139.546 640.154,-133.415"/>
</g>
<!-- Node10 -->
<g id="node10" class="node"><title>Node10</title>
<g id="a_node10"><a xlink:href="RemoteCommand_8h.html" target="_top" xlink:title="RemoteCommand.h">
<polygon fill="white" stroke="black" points="557.5,-56.5 557.5,-75.5 670.5,-75.5 670.5,-56.5 557.5,-56.5"/>
<text text-anchor="middle" x="614" y="-63.5" font-family="Verdana" font-size="10.00">RemoteCommand.h</text>
</a>
</g>
</g>
<!-- Node9&#45;&gt;Node10 -->
<g id="edge10" class="edge"><title>Node9&#45;&gt;Node10</title>
<path fill="none" stroke="midnightblue" d="M614,-112.083C614,-105.006 614,-94.8611 614,-85.9865"/>
<polygon fill="midnightblue" stroke="midnightblue" points="617.5,-85.751 614,-75.7511 610.5,-85.7511 617.5,-85.751"/>
</g>
<!-- Node9&#45;&gt;Node12 -->
<g id="edge13" class="edge"><title>Node9&#45;&gt;Node12</title>
<path fill="none" stroke="midnightblue" d="M598.288,-112.386C572.59,-98.6267 519.654,-71.6514 472,-56 408.424,-35.1193 331.031,-21.7814 288.285,-15.4154"/>
<polygon fill="midnightblue" stroke="midnightblue" points="288.593,-11.9234 278.193,-13.9468 287.585,-18.8505 288.593,-11.9234"/>
</g>
<!-- Node11 -->
<g id="node11" class="node"><title>Node11</title>
<polygon fill="white" stroke="#bfbfbf" points="587.5,-0.5 587.5,-19.5 640.5,-19.5 640.5,-0.5 587.5,-0.5"/>
<text text-anchor="middle" x="614" y="-7.5" font-family="Verdana" font-size="10.00">stdint.h</text>
</g>
<!-- Node10&#45;&gt;Node11 -->
<g id="edge11" class="edge"><title>Node10&#45;&gt;Node11</title>
<path fill="none" stroke="midnightblue" d="M614,-56.083C614,-49.0059 614,-38.8611 614,-29.9865"/>
<polygon fill="midnightblue" stroke="midnightblue" points="617.5,-29.751 614,-19.7511 610.5,-29.7511 617.5,-29.751"/>
</g>
<!-- Node10&#45;&gt;Node12 -->
<g id="edge12" class="edge"><title>Node10&#45;&gt;Node12</title>
<path fill="none" stroke="midnightblue" d="M557.274,-56.4435C481.389,-44.9972 349.342,-25.0795 288.455,-15.8954"/>
<polygon fill="midnightblue" stroke="midnightblue" points="288.695,-12.3921 278.285,-14.3614 287.651,-19.3138 288.695,-12.3921"/>
</g>
<!-- Node13&#45;&gt;Node6 -->
<g id="edge15" class="edge"><title>Node13&#45;&gt;Node6</title>
<path fill="none" stroke="midnightblue" d="M753.539,-56.4435C772.623,-47.6356 802.575,-33.8116 824.436,-23.722"/>
<polygon fill="midnightblue" stroke="midnightblue" points="825.935,-26.8849 833.548,-19.5164 823.001,-20.5292 825.935,-26.8849"/>
</g>
<!-- Node13&#45;&gt;Node11 -->
<g id="edge17" class="edge"><title>Node13&#45;&gt;Node11</title>
<path fill="none" stroke="midnightblue" d="M715.827,-56.4435C696.091,-47.6356 665.115,-33.8116 642.507,-23.722"/>
<polygon fill="midnightblue" stroke="midnightblue" points="643.641,-20.3957 633.083,-19.5164 640.789,-26.788 643.641,-20.3957"/>
</g>
<!-- Node13&#45;&gt;Node12 -->
<g id="edge16" class="edge"><title>Node13&#45;&gt;Node12</title>
<path fill="none" stroke="midnightblue" d="M688.815,-57.2483C685.834,-56.8081 682.877,-56.3877 680,-56 534.162,-36.3447 359.143,-20.0799 288.207,-13.7924"/>
<polygon fill="midnightblue" stroke="midnightblue" points="288.392,-10.2952 278.123,-12.9039 287.777,-17.2682 288.392,-10.2952"/>
</g>
<!-- Node14&#45;&gt;Node5 -->
<g id="edge27" class="edge"><title>Node14&#45;&gt;Node5</title>
<path fill="none" stroke="midnightblue" d="M221.331,-168.444C192.154,-158.718 144.629,-142.876 114.099,-132.7"/>
<polygon fill="midnightblue" stroke="midnightblue" points="115.042,-129.325 104.448,-129.483 112.828,-135.965 115.042,-129.325"/>
</g>
<!-- Node14&#45;&gt;Node12 -->
<g id="edge28" class="edge"><title>Node14&#45;&gt;Node12</title>
<path fill="none" stroke="midnightblue" d="M209.786,-168.491C177.783,-159.05 138.585,-141.169 151,-112 167.498,-73.2392 206.97,-42.164 232.542,-25.1797"/>
<polygon fill="midnightblue" stroke="midnightblue" points="234.746,-27.9235 241.265,-19.5718 230.961,-22.0352 234.746,-27.9235"/>
</g>
<!-- Node14&#45;&gt;Node15 -->
<g id="edge19" class="edge"><title>Node14&#45;&gt;Node15</title>
<path fill="none" stroke="midnightblue" d="M281.86,-168.444C320.588,-158.938 383.119,-143.589 424.639,-133.398"/>
<polygon fill="midnightblue" stroke="midnightblue" points="425.578,-136.771 434.455,-130.988 423.909,-129.973 425.578,-136.771"/>
</g>
<!-- Node18 -->
<g id="node18" class="node"><title>Node18</title>
<polygon fill="white" stroke="#bfbfbf" points="160.5,-112.5 160.5,-131.5 333.5,-131.5 333.5,-112.5 160.5,-112.5"/>
<text text-anchor="middle" x="247" y="-119.5" font-family="Verdana" font-size="10.00">SelectionCriterionTypeInterface.h</text>
</g>
<!-- Node14&#45;&gt;Node18 -->
<g id="edge29" class="edge"><title>Node14&#45;&gt;Node18</title>
<path fill="none" stroke="midnightblue" d="M247,-168.083C247,-161.006 247,-150.861 247,-141.986"/>
<polygon fill="midnightblue" stroke="midnightblue" points="250.5,-141.751 247,-131.751 243.5,-141.751 250.5,-141.751"/>
</g>
<!-- Node15&#45;&gt;Node6 -->
<g id="edge21" class="edge"><title>Node15&#45;&gt;Node6</title>
<path fill="none" stroke="midnightblue" d="M499.557,-116.411C509.636,-114.994 520.777,-113.429 531,-112 646.098,-95.9081 686.572,-129.002 790,-76 811.378,-65.0448 829.476,-43.7412 840.501,-28.5082"/>
<polygon fill="midnightblue" stroke="midnightblue" points="843.608,-30.1699 846.419,-19.9547 837.851,-26.1874 843.608,-30.1699"/>
</g>
<!-- Node15&#45;&gt;Node7 -->
<g id="edge23" class="edge"><title>Node15&#45;&gt;Node7</title>
<path fill="none" stroke="midnightblue" d="M499.544,-116.314C509.622,-114.892 520.766,-113.35 531,-112 660.637,-94.8949 695.161,-103.488 823,-76 824.276,-75.7257 825.576,-75.4204 826.883,-75.0925"/>
<polygon fill="midnightblue" stroke="midnightblue" points="828.121,-78.3796 836.784,-72.2808 826.208,-71.6459 828.121,-78.3796"/>
</g>
<!-- Node15&#45;&gt;Node11 -->
<g id="edge22" class="edge"><title>Node15&#45;&gt;Node11</title>
<path fill="none" stroke="midnightblue" d="M477.445,-112.364C492.863,-99.697 522.731,-75.4728 549,-56 563.196,-45.4766 579.554,-34.156 592.308,-25.5019"/>
<polygon fill="midnightblue" stroke="midnightblue" points="594.544,-28.2156 600.876,-19.7212 590.629,-22.4128 594.544,-28.2156"/>
</g>
<!-- Node15&#45;&gt;Node12 -->
<g id="edge20" class="edge"><title>Node15&#45;&gt;Node12</title>
<path fill="none" stroke="midnightblue" d="M434.461,-119.861C397.081,-117.019 335.565,-107.475 294,-76 278.403,-64.1891 268.054,-43.9703 262.149,-29.2124"/>
<polygon fill="midnightblue" stroke="midnightblue" points="265.36,-27.8056 258.622,-19.6297 258.791,-30.2232 265.36,-27.8056"/>
</g>
<!-- Node15&#45;&gt;Node13 -->
<g id="edge26" class="edge"><title>Node15&#45;&gt;Node13</title>
<path fill="none" stroke="midnightblue" d="M499.594,-114.433C545.069,-105.27 628.066,-88.5463 682.37,-77.6045"/>
<polygon fill="midnightblue" stroke="midnightblue" points="683.383,-80.9708 692.495,-75.5645 682,-74.1088 683.383,-80.9708"/>
</g>
<!-- Node16 -->
<g id="node16" class="node"><title>Node16</title>
<polygon fill="white" stroke="#bfbfbf" points="303,-56.5 303,-75.5 367,-75.5 367,-56.5 303,-56.5"/>
<text text-anchor="middle" x="335" y="-63.5" font-family="Verdana" font-size="10.00">XmlSink.h</text>
</g>
<!-- Node15&#45;&gt;Node16 -->
<g id="edge24" class="edge"><title>Node15&#45;&gt;Node16</title>
<path fill="none" stroke="midnightblue" d="M446.084,-112.444C424.264,-103.517 389.85,-89.4387 365.108,-79.3168"/>
<polygon fill="midnightblue" stroke="midnightblue" points="366.399,-76.0634 355.818,-75.5164 363.748,-82.5422 366.399,-76.0634"/>
</g>
<!-- Node17 -->
<g id="node17" class="node"><title>Node17</title>
<polygon fill="white" stroke="#bfbfbf" points="385.5,-56.5 385.5,-75.5 462.5,-75.5 462.5,-56.5 385.5,-56.5"/>
<text text-anchor="middle" x="424" y="-63.5" font-family="Verdana" font-size="10.00">XmlSource.h</text>
</g>
<!-- Node15&#45;&gt;Node17 -->
<g id="edge25" class="edge"><title>Node15&#45;&gt;Node17</title>
<path fill="none" stroke="midnightblue" d="M459.899,-112.083C453.763,-104.377 444.73,-93.0333 437.261,-83.6531"/>
<polygon fill="midnightblue" stroke="midnightblue" points="439.936,-81.3936 430.968,-75.7511 434.46,-85.7542 439.936,-81.3936"/>
</g>
<!-- Node19&#45;&gt;Node12 -->
<g id="edge34" class="edge"><title>Node19&#45;&gt;Node12</title>
<path fill="none" stroke="midnightblue" d="M378.693,-224.3C377.497,-202.783 371.644,-146.33 343,-112 320.333,-84.8342 294.011,-103.7 272,-76 261.503,-62.7897 257.766,-43.6565 256.498,-29.5677"/>
<polygon fill="midnightblue" stroke="midnightblue" points="259.991,-29.3446 255.928,-19.5597 253.002,-29.7426 259.991,-29.3446"/>
</g>
<!-- Node19&#45;&gt;Node14 -->
<g id="edge32" class="edge"><title>Node19&#45;&gt;Node14</title>
<path fill="none" stroke="midnightblue" d="M358.084,-224.444C336.264,-215.517 301.85,-201.439 277.108,-191.317"/>
<polygon fill="midnightblue" stroke="midnightblue" points="278.399,-188.063 267.818,-187.516 275.748,-194.542 278.399,-188.063"/>
</g>
<!-- Node19&#45;&gt;Node15 -->
<g id="edge31" class="edge"><title>Node19&#45;&gt;Node15</title>
<path fill="none" stroke="midnightblue" d="M379.648,-224.153C381.023,-210.785 385.245,-185.18 398,-168 408.044,-154.472 423.457,-143.865 437.17,-136.355"/>
<polygon fill="midnightblue" stroke="midnightblue" points="439.015,-139.342 446.305,-131.653 435.812,-133.118 439.015,-139.342"/>
</g>
<!-- Node20 -->
<g id="node20" class="node"><title>Node20</title>
<polygon fill="white" stroke="#bfbfbf" points="407,-168.5 407,-187.5 559,-187.5 559,-168.5 407,-168.5"/>
<text text-anchor="middle" x="483" y="-175.5" font-family="Verdana" font-size="10.00">SelectionCriterionInterface.h</text>
</g>
<!-- Node19&#45;&gt;Node20 -->
<g id="edge33" class="edge"><title>Node19&#45;&gt;Node20</title>
<path fill="none" stroke="midnightblue" d="M395.709,-224.324C412.312,-215.703 438.002,-202.364 457.22,-192.386"/>
<polygon fill="midnightblue" stroke="midnightblue" points="459.07,-195.369 466.332,-187.655 455.844,-189.156 459.07,-195.369"/>
</g>
<!-- Node23&#45;&gt;Node3 -->
<g id="edge41" class="edge"><title>Node23&#45;&gt;Node3</title>
<path fill="none" stroke="midnightblue" d="M567.856,-336.444C587.266,-327.636 617.73,-313.812 639.965,-303.722"/>
<polygon fill="midnightblue" stroke="midnightblue" points="641.572,-306.836 649.232,-299.516 638.68,-300.462 641.572,-306.836"/>
</g>
<!-- Node23&#45;&gt;Node12 -->
<g id="edge42" class="edge"><title>Node23&#45;&gt;Node12</title>
<path fill="none" stroke="midnightblue" d="M491.543,-336.492C350.76,-315.259 0,-259.864 0,-235 0,-235 0,-235 0,-121 0,-24.8035 154.476,-11.6819 223.433,-10.6167"/>
<polygon fill="midnightblue" stroke="midnightblue" points="223.756,-14.1145 233.73,-10.5384 223.703,-7.11469 223.756,-14.1145"/>
</g>
<!-- Node24 -->
<g id="node24" class="node"><title>Node24</title>
<polygon fill="white" stroke="#bfbfbf" points="439,-280.5 439,-299.5 603,-299.5 603,-280.5 439,-280.5"/>
<text text-anchor="middle" x="521" y="-287.5" font-family="Verdana" font-size="10.00">ParameterMgrLoggerForward.h</text>
</g>
<!-- Node23&#45;&gt;Node24 -->
<g id="edge40" class="edge"><title>Node23&#45;&gt;Node24</title>
<path fill="none" stroke="midnightblue" d="M544.376,-336.083C540.544,-328.691 534.976,-317.953 530.235,-308.811"/>
<polygon fill="midnightblue" stroke="midnightblue" points="533.248,-307.018 525.538,-299.751 527.034,-310.24 533.248,-307.018"/>
</g>
</g>
</svg>
