<?xml version="1.0" encoding="UTF-8" standalone="no"?>
<!DOCTYPE svg PUBLIC "-//W3C//DTD SVG 1.1//EN"
 "http://www.w3.org/Graphics/SVG/1.1/DTD/svg11.dtd">
<!-- Generated by graphviz version 2.38.0 (20140413.2041)
 -->
<!-- Title: /home/dawagner/dev/parameter&#45;framework/remote&#45;processor/RemoteProcessorServerBuilder.cpp Pages: 1 -->
<svg width="316pt" height="341pt"
 viewBox="0.00 0.00 316.39 341.00" xmlns="http://www.w3.org/2000/svg" xmlns:xlink="http://www.w3.org/1999/xlink">
<g id="graph0" class="graph" transform="scale(1 1) rotate(0) translate(4 337)">
<title>/home/dawagner/dev/parameter&#45;framework/remote&#45;processor/RemoteProcessorServerBuilder.cpp</title>
<polygon fill="white" stroke="none" points="-4,4 -4,-337 312.393,-337 312.393,4 -4,4"/>
<!-- Node1 -->
<g id="node1" class="node"><title>Node1</title>
<polygon fill="#bfbfbf" stroke="black" points="39.3934,-280.5 39.3934,-332.5 232.393,-332.5 232.393,-280.5 39.3934,-280.5"/>
<text text-anchor="start" x="47.3934" y="-320.5" font-family="Verdana" font-size="10.00">/home/dawagner/dev</text>
<text text-anchor="start" x="47.3934" y="-309.5" font-family="Verdana" font-size="10.00">/parameter&#45;framework</text>
<text text-anchor="start" x="47.3934" y="-298.5" font-family="Verdana" font-size="10.00">/remote&#45;processor/RemoteProcessor</text>
<text text-anchor="middle" x="135.893" y="-287.5" font-family="Verdana" font-size="10.00">ServerBuilder.cpp</text>
</g>
<!-- Node2 -->
<g id="node2" class="node"><title>Node2</title>
<g id="a_node2"><a xlink:href="RemoteProcessorServer_8h.html" target="_top" xlink:title="RemoteProcessorServer.h">
<polygon fill="white" stroke="black" points="65.8934,-224.5 65.8934,-243.5 205.893,-243.5 205.893,-224.5 65.8934,-224.5"/>
<text text-anchor="middle" x="135.893" y="-231.5" font-family="Verdana" font-size="10.00">RemoteProcessorServer.h</text>
</a>
</g>
</g>
<!-- Node1&#45;&gt;Node2 -->
<g id="edge1" class="edge"><title>Node1&#45;&gt;Node2</title>
<path fill="none" stroke="midnightblue" d="M135.893,-280.446C135.893,-271.73 135.893,-262.104 135.893,-253.964"/>
<polygon fill="midnightblue" stroke="midnightblue" points="139.393,-253.695 135.893,-243.695 132.393,-253.696 139.393,-253.695"/>
</g>
<!-- Node3 -->
<g id="node3" class="node"><title>Node3</title>
<polygon fill="white" stroke="#bfbfbf" points="124.393,-0.5 124.393,-19.5 177.393,-19.5 177.393,-0.5 124.393,-0.5"/>
<text text-anchor="middle" x="150.893" y="-7.5" font-family="Verdana" font-size="10.00">stdint.h</text>
</g>
<!-- Node2&#45;&gt;Node3 -->
<g id="edge2" class="edge"><title>Node2&#45;&gt;Node3</title>
<path fill="none" stroke="midnightblue" d="M93.8905,-224.49C72.9079,-218.032 49.0394,-206.905 34.8934,-188 -0.480874,-140.725 -14.4113,-104.056 19.8934,-56 41.0776,-26.3238 83.1218,-16.015 113.885,-12.5421"/>
<polygon fill="midnightblue" stroke="midnightblue" points="114.61,-15.9898 124.243,-11.5782 113.962,-9.01991 114.61,-15.9898"/>
</g>
<!-- Node4 -->
<g id="node4" class="node"><title>Node4</title>
<polygon fill="white" stroke="#bfbfbf" points="245.393,-168.5 245.393,-187.5 308.393,-187.5 308.393,-168.5 245.393,-168.5"/>
<text text-anchor="middle" x="276.893" y="-175.5" font-family="Verdana" font-size="10.00">pthread.h</text>
</g>
<!-- Node2&#45;&gt;Node4 -->
<g id="edge3" class="edge"><title>Node2&#45;&gt;Node4</title>
<path fill="none" stroke="midnightblue" d="M158.235,-224.444C181.646,-215.478 218.629,-201.314 245.083,-191.183"/>
<polygon fill="midnightblue" stroke="midnightblue" points="246.569,-194.361 254.656,-187.516 244.066,-187.824 246.569,-194.361"/>
</g>
<!-- Node5 -->
<g id="node5" class="node"><title>Node5</title>
<g id="a_node5"><a xlink:href="RemoteProcessorServerInterface_8h.html" target="_top" xlink:title="RemoteProcessorServerInterface.h">
<polygon fill="white" stroke="black" points="44.3934,-168.5 44.3934,-187.5 227.393,-187.5 227.393,-168.5 44.3934,-168.5"/>
<text text-anchor="middle" x="135.893" y="-175.5" font-family="Verdana" font-size="10.00">RemoteProcessorServerInterface.h</text>
</a>
</g>
</g>
<!-- Node2&#45;&gt;Node5 -->
<g id="edge4" class="edge"><title>Node2&#45;&gt;Node5</title>
<path fill="none" stroke="midnightblue" d="M135.893,-224.083C135.893,-217.006 135.893,-206.861 135.893,-197.986"/>
<polygon fill="midnightblue" stroke="midnightblue" points="139.393,-197.751 135.893,-187.751 132.393,-197.751 139.393,-197.751"/>
</g>
<!-- Node6 -->
<g id="node6" class="node"><title>Node6</title>
<g id="a_node6"><a xlink:href="RequestMessage_8h.html" target="_top" xlink:title="RequestMessage.h">
<polygon fill="white" stroke="black" points="97.3934,-112.5 97.3934,-131.5 204.393,-131.5 204.393,-112.5 97.3934,-112.5"/>
<text text-anchor="middle" x="150.893" y="-119.5" font-family="Verdana" font-size="10.00">RequestMessage.h</text>
</a>
</g>
</g>
<!-- Node5&#45;&gt;Node6 -->
<g id="edge5" class="edge"><title>Node5&#45;&gt;Node6</title>
<path fill="none" stroke="midnightblue" d="M138.37,-168.083C140.38,-160.849 143.28,-150.409 145.783,-141.397"/>
<polygon fill="midnightblue" stroke="midnightblue" points="149.158,-142.323 148.463,-131.751 142.414,-140.449 149.158,-142.323"/>
</g>
<!-- Node7 -->
<g id="node7" class="node"><title>Node7</title>
<g id="a_node7"><a xlink:href="Message_8h.html" target="_top" xlink:title="Message.h">
<polygon fill="white" stroke="black" points="225.893,-56.5 225.893,-75.5 293.893,-75.5 293.893,-56.5 225.893,-56.5"/>
<text text-anchor="middle" x="259.893" y="-63.5" font-family="Verdana" font-size="10.00">Message.h</text>
</a>
</g>
</g>
<!-- Node6&#45;&gt;Node7 -->
<g id="edge6" class="edge"><title>Node6&#45;&gt;Node7</title>
<path fill="none" stroke="midnightblue" d="M168.406,-112.324C185.966,-103.625 213.225,-90.1202 233.425,-80.113"/>
<polygon fill="midnightblue" stroke="midnightblue" points="235.017,-83.23 242.424,-75.6545 231.91,-76.9575 235.017,-83.23"/>
</g>
<!-- Node8 -->
<g id="node8" class="node"><title>Node8</title>
<polygon fill="white" stroke="#bfbfbf" points="237.893,-0.5 237.893,-19.5 281.893,-19.5 281.893,-0.5 237.893,-0.5"/>
<text text-anchor="middle" x="259.893" y="-7.5" font-family="Verdana" font-size="10.00">string</text>
</g>
<!-- Node6&#45;&gt;Node8 -->
<g id="edge13" class="edge"><title>Node6&#45;&gt;Node8</title>
<path fill="none" stroke="midnightblue" d="M204.64,-120.413C238.693,-116.893 280.414,-106.098 302.893,-76 315.304,-59.3831 297.437,-39.3621 281.101,-25.9708"/>
<polygon fill="midnightblue" stroke="midnightblue" points="282.923,-22.9568 272.866,-19.6254 278.651,-28.5016 282.923,-22.9568"/>
</g>
<!-- Node9 -->
<g id="node9" class="node"><title>Node9</title>
<g id="a_node9"><a xlink:href="RemoteCommand_8h.html" target="_top" xlink:title="RemoteCommand.h">
<polygon fill="white" stroke="black" points="94.3934,-56.5 94.3934,-75.5 207.393,-75.5 207.393,-56.5 94.3934,-56.5"/>
<text text-anchor="middle" x="150.893" y="-63.5" font-family="Verdana" font-size="10.00">RemoteCommand.h</text>
</a>
</g>
</g>
<!-- Node6&#45;&gt;Node9 -->
<g id="edge9" class="edge"><title>Node6&#45;&gt;Node9</title>
<path fill="none" stroke="midnightblue" d="M150.893,-112.083C150.893,-105.006 150.893,-94.8611 150.893,-85.9865"/>
<polygon fill="midnightblue" stroke="midnightblue" points="154.393,-85.751 150.893,-75.7511 147.393,-85.7511 154.393,-85.751"/>
</g>
<!-- Node10 -->
<g id="node10" class="node"><title>Node10</title>
<polygon fill="white" stroke="#bfbfbf" points="29.3934,-56.5 29.3934,-75.5 76.3934,-75.5 76.3934,-56.5 29.3934,-56.5"/>
<text text-anchor="middle" x="52.8934" y="-63.5" font-family="Verdana" font-size="10.00">vector</text>
</g>
<!-- Node6&#45;&gt;Node10 -->
<g id="edge12" class="edge"><title>Node6&#45;&gt;Node10</title>
<path fill="none" stroke="midnightblue" d="M135.148,-112.324C119.575,-103.743 95.5161,-90.486 77.4341,-80.5224"/>
<polygon fill="midnightblue" stroke="midnightblue" points="79.0473,-77.4152 68.5997,-75.6545 75.669,-83.546 79.0473,-77.4152"/>
</g>
<!-- Node7&#45;&gt;Node3 -->
<g id="edge7" class="edge"><title>Node7&#45;&gt;Node3</title>
<path fill="none" stroke="midnightblue" d="M242.381,-56.324C224.821,-47.6247 197.562,-34.1202 177.362,-24.113"/>
<polygon fill="midnightblue" stroke="midnightblue" points="178.877,-20.9575 168.363,-19.6545 175.77,-27.23 178.877,-20.9575"/>
</g>
<!-- Node7&#45;&gt;Node8 -->
<g id="edge8" class="edge"><title>Node7&#45;&gt;Node8</title>
<path fill="none" stroke="midnightblue" d="M259.893,-56.083C259.893,-49.0059 259.893,-38.8611 259.893,-29.9865"/>
<polygon fill="midnightblue" stroke="midnightblue" points="263.393,-29.751 259.893,-19.7511 256.393,-29.7511 263.393,-29.751"/>
</g>
<!-- Node9&#45;&gt;Node3 -->
<g id="edge10" class="edge"><title>Node9&#45;&gt;Node3</title>
<path fill="none" stroke="midnightblue" d="M150.893,-56.083C150.893,-49.0059 150.893,-38.8611 150.893,-29.9865"/>
<polygon fill="midnightblue" stroke="midnightblue" points="154.393,-29.751 150.893,-19.7511 147.393,-29.7511 154.393,-29.751"/>
</g>
<!-- Node9&#45;&gt;Node8 -->
<g id="edge11" class="edge"><title>Node9&#45;&gt;Node8</title>
<path fill="none" stroke="midnightblue" d="M168.406,-56.324C185.966,-47.6247 213.225,-34.1202 233.425,-24.113"/>
<polygon fill="midnightblue" stroke="midnightblue" points="235.017,-27.23 242.424,-19.6545 231.91,-20.9575 235.017,-27.23"/>
</g>
</g>
</svg>
