<?xml version="1.0" encoding="UTF-8" standalone="no"?>
<!DOCTYPE svg PUBLIC "-//W3C//DTD SVG 1.1//EN"
 "http://www.w3.org/Graphics/SVG/1.1/DTD/svg11.dtd">
<!-- Generated by graphviz version 2.38.0 (20140413.2041)
 -->
<!-- Title: /home/dawagner/dev/parameter&#45;framework/parameter/SimulatedBackSynchronizer.cpp Pages: 1 -->
<svg width="692pt" height="386pt"
 viewBox="0.00 0.00 692.20 386.00" xmlns="http://www.w3.org/2000/svg" xmlns:xlink="http://www.w3.org/1999/xlink">
<g id="graph0" class="graph" transform="scale(1 1) rotate(0) translate(4 382)">
<title>/home/dawagner/dev/parameter&#45;framework/parameter/SimulatedBackSynchronizer.cpp</title>
<polygon fill="white" stroke="none" points="-4,4 -4,-382 688.2,-382 688.2,4 -4,4"/>
<!-- Node1 -->
<g id="node1" class="node"><title>Node1</title>
<polygon fill="#bfbfbf" stroke="black" points="270.5,-336.5 270.5,-377.5 497.5,-377.5 497.5,-336.5 270.5,-336.5"/>
<text text-anchor="start" x="278.5" y="-365.5" font-family="Verdana" font-size="10.00">/home/dawagner/dev</text>
<text text-anchor="start" x="278.5" y="-354.5" font-family="Verdana" font-size="10.00">/parameter&#45;framework</text>
<text text-anchor="middle" x="384" y="-343.5" font-family="Verdana" font-size="10.00">/parameter/SimulatedBackSynchronizer.cpp</text>
</g>
<!-- Node2 -->
<g id="node2" class="node"><title>Node2</title>
<g id="a_node2"><a xlink:href="SimulatedBackSynchronizer_8h.html" target="_top" xlink:title="SimulatedBackSynchronizer.h">
<polygon fill="white" stroke="black" points="172.5,-280.5 172.5,-299.5 331.5,-299.5 331.5,-280.5 172.5,-280.5"/>
<text text-anchor="middle" x="252" y="-287.5" font-family="Verdana" font-size="10.00">SimulatedBackSynchronizer.h</text>
</a>
</g>
</g>
<!-- Node1&#45;&gt;Node2 -->
<g id="edge1" class="edge"><title>Node1&#45;&gt;Node2</title>
<path fill="none" stroke="midnightblue" d="M344.396,-336.498C323.185,-326.053 297.619,-313.464 278.762,-304.178"/>
<polygon fill="midnightblue" stroke="midnightblue" points="280.089,-300.93 269.571,-299.652 276.996,-307.21 280.089,-300.93"/>
</g>
<!-- Node7 -->
<g id="node7" class="node"><title>Node7</title>
<g id="a_node7"><a xlink:href="ConfigurableElement_8h.html" target="_top" xlink:title="ConfigurableElement.h">
<polygon fill="white" stroke="black" points="429.5,-168.5 429.5,-187.5 554.5,-187.5 554.5,-168.5 429.5,-168.5"/>
<text text-anchor="middle" x="492" y="-175.5" font-family="Verdana" font-size="10.00">ConfigurableElement.h</text>
</a>
</g>
</g>
<!-- Node1&#45;&gt;Node7 -->
<g id="edge26" class="edge"><title>Node1&#45;&gt;Node7</title>
<path fill="none" stroke="midnightblue" d="M395.971,-336.382C417.265,-301.483 461.378,-229.187 481.538,-196.147"/>
<polygon fill="midnightblue" stroke="midnightblue" points="484.541,-197.943 486.762,-187.584 478.566,-194.297 484.541,-197.943"/>
</g>
<!-- Node3 -->
<g id="node3" class="node"><title>Node3</title>
<g id="a_node3"><a xlink:href="BackSynchronizer_8h.html" target="_top" xlink:title="BackSynchronizer.h">
<polygon fill="white" stroke="black" points="275,-224.5 275,-243.5 385,-243.5 385,-224.5 275,-224.5"/>
<text text-anchor="middle" x="330" y="-231.5" font-family="Verdana" font-size="10.00">BackSynchronizer.h</text>
</a>
</g>
</g>
<!-- Node2&#45;&gt;Node3 -->
<g id="edge2" class="edge"><title>Node2&#45;&gt;Node3</title>
<path fill="none" stroke="midnightblue" d="M264.532,-280.324C276.586,-271.979 295.027,-259.212 309.269,-249.352"/>
<polygon fill="midnightblue" stroke="midnightblue" points="311.269,-252.224 317.499,-243.655 307.285,-246.469 311.269,-252.224"/>
</g>
<!-- Node6 -->
<g id="node6" class="node"><title>Node6</title>
<polygon fill="white" stroke="#bfbfbf" points="189,-0.5 189,-19.5 233,-19.5 233,-0.5 189,-0.5"/>
<text text-anchor="middle" x="211" y="-7.5" font-family="Verdana" font-size="10.00">string</text>
</g>
<!-- Node2&#45;&gt;Node6 -->
<g id="edge25" class="edge"><title>Node2&#45;&gt;Node6</title>
<path fill="none" stroke="midnightblue" d="M172.266,-286.417C98.4375,-279.252 0,-255.378 0,-179 0,-179 0,-179 0,-121 0,-41.469 119.328,-19.347 178.51,-13.2661"/>
<polygon fill="midnightblue" stroke="midnightblue" points="179.185,-16.7185 188.818,-12.3071 178.537,-9.74859 179.185,-16.7185"/>
</g>
<!-- Node14 -->
<g id="node14" class="node"><title>Node14</title>
<g id="a_node14"><a xlink:href="ParameterAccessContext_8h.html" target="_top" xlink:title="ParameterAccessContext.h">
<polygon fill="white" stroke="black" points="28.5,-112.5 28.5,-131.5 175.5,-131.5 175.5,-112.5 28.5,-112.5"/>
<text text-anchor="middle" x="102" y="-119.5" font-family="Verdana" font-size="10.00">ParameterAccessContext.h</text>
</a>
</g>
</g>
<!-- Node2&#45;&gt;Node14 -->
<g id="edge20" class="edge"><title>Node2&#45;&gt;Node14</title>
<path fill="none" stroke="midnightblue" d="M243.935,-280.075C219.813,-253.38 147.962,-173.865 116.749,-139.322"/>
<polygon fill="midnightblue" stroke="midnightblue" points="119.044,-136.641 109.742,-131.568 113.85,-141.334 119.044,-136.641"/>
</g>
<!-- Node4 -->
<g id="node4" class="node"><title>Node4</title>
<g id="a_node4"><a xlink:href="ConfigurableElementAggregator_8h.html" target="_top" xlink:title="ConfigurableElementAggregator.h">
<polygon fill="white" stroke="black" points="193.5,-112.5 193.5,-131.5 372.5,-131.5 372.5,-112.5 193.5,-112.5"/>
<text text-anchor="middle" x="283" y="-119.5" font-family="Verdana" font-size="10.00">ConfigurableElementAggregator.h</text>
</a>
</g>
</g>
<!-- Node3&#45;&gt;Node4 -->
<g id="edge3" class="edge"><title>Node3&#45;&gt;Node4</title>
<path fill="none" stroke="midnightblue" d="M326.312,-224.368C318.659,-206.456 300.913,-164.923 290.669,-140.948"/>
<polygon fill="midnightblue" stroke="midnightblue" points="293.819,-139.412 286.671,-131.591 287.382,-142.162 293.819,-139.412"/>
</g>
<!-- Node5 -->
<g id="node5" class="node"><title>Node5</title>
<polygon fill="white" stroke="#bfbfbf" points="277,-56.5 277,-75.5 307,-75.5 307,-56.5 277,-56.5"/>
<text text-anchor="middle" x="292" y="-63.5" font-family="Verdana" font-size="10.00">list</text>
</g>
<!-- Node3&#45;&gt;Node5 -->
<g id="edge19" class="edge"><title>Node3&#45;&gt;Node5</title>
<path fill="none" stroke="midnightblue" d="M339.07,-224.356C359.423,-203.885 405.122,-151.226 381,-112 379.11,-108.927 341.942,-90.7741 316.242,-78.4843"/>
<polygon fill="midnightblue" stroke="midnightblue" points="317.585,-75.2469 307.051,-74.1048 314.573,-81.5662 317.585,-75.2469"/>
</g>
<!-- Node3&#45;&gt;Node7 -->
<g id="edge6" class="edge"><title>Node3&#45;&gt;Node7</title>
<path fill="none" stroke="midnightblue" d="M355.669,-224.444C382.923,-215.359 426.184,-200.939 456.651,-190.783"/>
<polygon fill="midnightblue" stroke="midnightblue" points="458.071,-193.999 466.451,-187.516 455.857,-187.358 458.071,-193.999"/>
</g>
<!-- Node4&#45;&gt;Node5 -->
<g id="edge4" class="edge"><title>Node4&#45;&gt;Node5</title>
<path fill="none" stroke="midnightblue" d="M284.486,-112.083C285.679,-104.927 287.394,-94.6353 288.885,-85.6911"/>
<polygon fill="midnightblue" stroke="midnightblue" points="292.35,-86.1904 290.541,-75.7511 285.445,-85.0396 292.35,-86.1904"/>
</g>
<!-- Node4&#45;&gt;Node6 -->
<g id="edge5" class="edge"><title>Node4&#45;&gt;Node6</title>
<path fill="none" stroke="midnightblue" d="M277.35,-112.368C265.468,-94.2153 237.706,-51.8015 222.121,-27.9902"/>
<polygon fill="midnightblue" stroke="midnightblue" points="225.029,-26.0416 216.623,-19.5914 219.172,-29.8753 225.029,-26.0416"/>
</g>
<!-- Node7&#45;&gt;Node5 -->
<g id="edge18" class="edge"><title>Node7&#45;&gt;Node5</title>
<path fill="none" stroke="midnightblue" d="M483.76,-168.302C470.438,-154.669 442.84,-128.159 415,-112 397.95,-102.104 347.566,-84.9682 316.828,-74.9407"/>
<polygon fill="midnightblue" stroke="midnightblue" points="317.825,-71.5847 307.233,-71.8332 315.668,-78.2441 317.825,-71.5847"/>
</g>
<!-- Node8 -->
<g id="node8" class="node"><title>Node8</title>
<g id="a_node8"><a xlink:href="Element_8h.html" target="_top" xlink:title="Element.h">
<polygon fill="white" stroke="black" points="467.5,-112.5 467.5,-131.5 532.5,-131.5 532.5,-112.5 467.5,-112.5"/>
<text text-anchor="middle" x="500" y="-119.5" font-family="Verdana" font-size="10.00">Element.h</text>
</a>
</g>
</g>
<!-- Node7&#45;&gt;Node8 -->
<g id="edge7" class="edge"><title>Node7&#45;&gt;Node8</title>
<path fill="none" stroke="midnightblue" d="M493.321,-168.083C494.381,-160.927 495.906,-150.635 497.231,-141.691"/>
<polygon fill="midnightblue" stroke="midnightblue" points="500.7,-142.156 498.704,-131.751 493.776,-141.13 500.7,-142.156"/>
</g>
<!-- Node8&#45;&gt;Node5 -->
<g id="edge11" class="edge"><title>Node8&#45;&gt;Node5</title>
<path fill="none" stroke="midnightblue" d="M467.195,-113.322C431.189,-104.762 371.751,-90.2429 321,-76 319.573,-75.5994 318.109,-75.1782 316.634,-74.7457"/>
<polygon fill="midnightblue" stroke="midnightblue" points="317.591,-71.3786 307.005,-71.8279 315.56,-78.0777 317.591,-71.3786"/>
</g>
<!-- Node8&#45;&gt;Node6 -->
<g id="edge8" class="edge"><title>Node8&#45;&gt;Node6</title>
<path fill="none" stroke="midnightblue" d="M467.499,-112.843C437.505,-104.882 391.998,-91.696 354,-76 336.36,-68.7135 333.229,-64.21 316,-56 291.425,-44.2895 263.017,-32.1999 241.951,-23.5044"/>
<polygon fill="midnightblue" stroke="midnightblue" points="243.12,-20.2007 232.54,-19.6434 240.463,-26.6769 243.12,-20.2007"/>
</g>
<!-- Node9 -->
<g id="node9" class="node"><title>Node9</title>
<polygon fill="white" stroke="#bfbfbf" points="564.5,-0.5 564.5,-19.5 611.5,-19.5 611.5,-0.5 564.5,-0.5"/>
<text text-anchor="middle" x="588" y="-7.5" font-family="Verdana" font-size="10.00">vector</text>
</g>
<!-- Node8&#45;&gt;Node9 -->
<g id="edge9" class="edge"><title>Node8&#45;&gt;Node9</title>
<path fill="none" stroke="midnightblue" d="M532.884,-117.517C579.524,-111.823 661.218,-98.8059 679,-76 698.745,-50.6773 654.994,-30.9441 621.551,-20.1475"/>
<polygon fill="midnightblue" stroke="midnightblue" points="622.171,-16.6768 611.584,-17.0875 620.117,-23.3685 622.171,-16.6768"/>
</g>
<!-- Node10 -->
<g id="node10" class="node"><title>Node10</title>
<polygon fill="white" stroke="#bfbfbf" points="382.5,-0.5 382.5,-19.5 435.5,-19.5 435.5,-0.5 382.5,-0.5"/>
<text text-anchor="middle" x="409" y="-7.5" font-family="Verdana" font-size="10.00">stdint.h</text>
</g>
<!-- Node8&#45;&gt;Node10 -->
<g id="edge10" class="edge"><title>Node8&#45;&gt;Node10</title>
<path fill="none" stroke="midnightblue" d="M496.486,-112.365C490.892,-99.2742 479.043,-74.0258 464,-56 454.394,-44.4896 441.516,-33.7674 430.635,-25.6786"/>
<polygon fill="midnightblue" stroke="midnightblue" points="432.603,-22.7824 422.439,-19.7914 428.519,-28.4679 432.603,-22.7824"/>
</g>
<!-- Node11 -->
<g id="node11" class="node"><title>Node11</title>
<polygon fill="white" stroke="#bfbfbf" points="511,-56.5 511,-75.5 575,-75.5 575,-56.5 511,-56.5"/>
<text text-anchor="middle" x="543" y="-63.5" font-family="Verdana" font-size="10.00">XmlSink.h</text>
</g>
<!-- Node8&#45;&gt;Node11 -->
<g id="edge12" class="edge"><title>Node8&#45;&gt;Node11</title>
<path fill="none" stroke="midnightblue" d="M507.101,-112.083C513.237,-104.377 522.27,-93.0333 529.739,-83.6531"/>
<polygon fill="midnightblue" stroke="midnightblue" points="532.54,-85.7542 536.032,-75.7511 527.064,-81.3936 532.54,-85.7542"/>
</g>
<!-- Node12 -->
<g id="node12" class="node"><title>Node12</title>
<polygon fill="white" stroke="#bfbfbf" points="593.5,-56.5 593.5,-75.5 670.5,-75.5 670.5,-56.5 593.5,-56.5"/>
<text text-anchor="middle" x="632" y="-63.5" font-family="Verdana" font-size="10.00">XmlSource.h</text>
</g>
<!-- Node8&#45;&gt;Node12 -->
<g id="edge13" class="edge"><title>Node8&#45;&gt;Node12</title>
<path fill="none" stroke="midnightblue" d="M520.916,-112.444C542.736,-103.517 577.15,-89.4387 601.892,-79.3168"/>
<polygon fill="midnightblue" stroke="midnightblue" points="603.252,-82.5422 611.182,-75.5164 600.601,-76.0634 603.252,-82.5422"/>
</g>
<!-- Node13 -->
<g id="node13" class="node"><title>Node13</title>
<g id="a_node13"><a xlink:href="PathNavigator_8h.html" target="_top" xlink:title="PathNavigator.h">
<polygon fill="white" stroke="black" points="363,-56.5 363,-75.5 455,-75.5 455,-56.5 363,-56.5"/>
<text text-anchor="middle" x="409" y="-63.5" font-family="Verdana" font-size="10.00">PathNavigator.h</text>
</a>
</g>
</g>
<!-- Node8&#45;&gt;Node13 -->
<g id="edge14" class="edge"><title>Node8&#45;&gt;Node13</title>
<path fill="none" stroke="midnightblue" d="M485.379,-112.324C471.051,-103.822 448.987,-90.7288 432.251,-80.7975"/>
<polygon fill="midnightblue" stroke="midnightblue" points="433.97,-77.7478 423.584,-75.6545 430.398,-83.7677 433.97,-77.7478"/>
</g>
<!-- Node13&#45;&gt;Node6 -->
<g id="edge16" class="edge"><title>Node13&#45;&gt;Node6</title>
<path fill="none" stroke="midnightblue" d="M377.626,-56.4435C340.747,-46.3856 279.885,-29.7869 242.816,-19.677"/>
<polygon fill="midnightblue" stroke="midnightblue" points="243.599,-16.263 233.031,-17.0084 241.758,-23.0163 243.599,-16.263"/>
</g>
<!-- Node13&#45;&gt;Node9 -->
<g id="edge15" class="edge"><title>Node13&#45;&gt;Node9</title>
<path fill="none" stroke="midnightblue" d="M437.363,-56.4435C469.168,-46.8489 520.702,-31.3021 554.474,-21.1141"/>
<polygon fill="midnightblue" stroke="midnightblue" points="555.78,-24.3759 564.343,-18.1368 553.758,-17.6742 555.78,-24.3759"/>
</g>
<!-- Node13&#45;&gt;Node10 -->
<g id="edge17" class="edge"><title>Node13&#45;&gt;Node10</title>
<path fill="none" stroke="midnightblue" d="M409,-56.083C409,-49.0059 409,-38.8611 409,-29.9865"/>
<polygon fill="midnightblue" stroke="midnightblue" points="412.5,-29.751 409,-19.7511 405.5,-29.7511 412.5,-29.751"/>
</g>
<!-- Node14&#45;&gt;Node6 -->
<g id="edge24" class="edge"><title>Node14&#45;&gt;Node6</title>
<path fill="none" stroke="midnightblue" d="M112.736,-112.441C123.524,-103.675 140.449,-89.4629 154,-76 169.722,-60.3807 186.27,-41.1552 197.461,-27.6797"/>
<polygon fill="midnightblue" stroke="midnightblue" points="200.333,-29.698 203.979,-19.7504 194.925,-25.253 200.333,-29.698"/>
</g>
<!-- Node14&#45;&gt;Node10 -->
<g id="edge21" class="edge"><title>Node14&#45;&gt;Node10</title>
<path fill="none" stroke="midnightblue" d="M122.543,-112.463C153.747,-99.6093 215.062,-74.7902 268,-56 303.308,-43.4675 344.137,-30.613 372.743,-21.8688"/>
<polygon fill="midnightblue" stroke="midnightblue" points="373.774,-25.2136 382.323,-18.9546 371.737,-18.5166 373.774,-25.2136"/>
</g>
<!-- Node15 -->
<g id="node15" class="node"><title>Node15</title>
<g id="a_node15"><a xlink:href="ErrorContext_8h.html" target="_top" xlink:title="ErrorContext.h">
<polygon fill="white" stroke="black" points="59,-56.5 59,-75.5 145,-75.5 145,-56.5 59,-56.5"/>
<text text-anchor="middle" x="102" y="-63.5" font-family="Verdana" font-size="10.00">ErrorContext.h</text>
</a>
</g>
</g>
<!-- Node14&#45;&gt;Node15 -->
<g id="edge22" class="edge"><title>Node14&#45;&gt;Node15</title>
<path fill="none" stroke="midnightblue" d="M102,-112.083C102,-105.006 102,-94.8611 102,-85.9865"/>
<polygon fill="midnightblue" stroke="midnightblue" points="105.5,-85.751 102,-75.7511 98.5001,-85.7511 105.5,-85.751"/>
</g>
<!-- Node15&#45;&gt;Node6 -->
<g id="edge23" class="edge"><title>Node15&#45;&gt;Node6</title>
<path fill="none" stroke="midnightblue" d="M119.513,-56.324C137.072,-47.6247 164.331,-34.1202 184.531,-24.113"/>
<polygon fill="midnightblue" stroke="midnightblue" points="186.124,-27.23 193.531,-19.6545 183.016,-20.9575 186.124,-27.23"/>
</g>
</g>
</svg>
