<?xml version="1.0" encoding="UTF-8" standalone="no"?>
<!DOCTYPE svg PUBLIC "-//W3C//DTD SVG 1.1//EN"
 "http://www.w3.org/Graphics/SVG/1.1/DTD/svg11.dtd">
<!-- Generated by graphviz version 2.38.0 (20140413.2041)
 -->
<!-- Title: /home/dawagner/dev/parameter&#45;framework/parameter/SimulatedBackSynchronizer.h Pages: 1 -->
<svg width="711pt" height="330pt"
 viewBox="0.00 0.00 711.00 330.00" xmlns="http://www.w3.org/2000/svg" xmlns:xlink="http://www.w3.org/1999/xlink">
<g id="graph0" class="graph" transform="scale(1 1) rotate(0) translate(4 326)">
<title>/home/dawagner/dev/parameter&#45;framework/parameter/SimulatedBackSynchronizer.h</title>
<polygon fill="white" stroke="none" points="-4,4 -4,-326 707,-326 707,4 -4,4"/>
<!-- Node1 -->
<g id="node1" class="node"><title>Node1</title>
<polygon fill="#bfbfbf" stroke="black" points="419.5,-280.5 419.5,-321.5 635.5,-321.5 635.5,-280.5 419.5,-280.5"/>
<text text-anchor="start" x="427.5" y="-309.5" font-family="Verdana" font-size="10.00">/home/dawagner/dev</text>
<text text-anchor="start" x="427.5" y="-298.5" font-family="Verdana" font-size="10.00">/parameter&#45;framework</text>
<text text-anchor="middle" x="527.5" y="-287.5" font-family="Verdana" font-size="10.00">/parameter/SimulatedBackSynchronizer.h</text>
</g>
<!-- Node2 -->
<g id="node2" class="node"><title>Node2</title>
<g id="a_node2"><a xlink:href="BackSynchronizer_8h.html" target="_top" xlink:title="BackSynchronizer.h">
<polygon fill="white" stroke="black" points="275.5,-224.5 275.5,-243.5 385.5,-243.5 385.5,-224.5 275.5,-224.5"/>
<text text-anchor="middle" x="330.5" y="-231.5" font-family="Verdana" font-size="10.00">BackSynchronizer.h</text>
</a>
</g>
</g>
<!-- Node1&#45;&gt;Node2 -->
<g id="edge1" class="edge"><title>Node1&#45;&gt;Node2</title>
<path fill="none" stroke="midnightblue" d="M468.394,-280.498C435.039,-269.493 394.469,-256.106 365.999,-246.713"/>
<polygon fill="midnightblue" stroke="midnightblue" points="367.058,-243.377 356.465,-243.567 364.865,-250.024 367.058,-243.377"/>
</g>
<!-- Node5 -->
<g id="node5" class="node"><title>Node5</title>
<polygon fill="white" stroke="#bfbfbf" points="486.5,-0.5 486.5,-19.5 530.5,-19.5 530.5,-0.5 486.5,-0.5"/>
<text text-anchor="middle" x="508.5" y="-7.5" font-family="Verdana" font-size="10.00">string</text>
</g>
<!-- Node1&#45;&gt;Node5 -->
<g id="edge24" class="edge"><title>Node1&#45;&gt;Node5</title>
<path fill="none" stroke="midnightblue" d="M527.5,-280.299C527.5,-256.352 527.5,-214.712 527.5,-179 527.5,-179 527.5,-179 527.5,-121 527.5,-88.4885 519.341,-51.3503 513.716,-29.6103"/>
<polygon fill="midnightblue" stroke="midnightblue" points="517.041,-28.498 511.062,-19.7514 510.282,-30.3175 517.041,-28.498"/>
</g>
<!-- Node13 -->
<g id="node13" class="node"><title>Node13</title>
<g id="a_node13"><a xlink:href="ParameterAccessContext_8h.html" target="_top" xlink:title="ParameterAccessContext.h">
<polygon fill="white" stroke="black" points="556,-112.5 556,-131.5 703,-131.5 703,-112.5 556,-112.5"/>
<text text-anchor="middle" x="629.5" y="-119.5" font-family="Verdana" font-size="10.00">ParameterAccessContext.h</text>
</a>
</g>
</g>
<!-- Node1&#45;&gt;Node13 -->
<g id="edge19" class="edge"><title>Node1&#45;&gt;Node13</title>
<path fill="none" stroke="midnightblue" d="M538.806,-280.382C558.83,-245.633 600.222,-173.807 619.372,-140.574"/>
<polygon fill="midnightblue" stroke="midnightblue" points="622.593,-141.996 624.553,-131.584 616.528,-138.501 622.593,-141.996"/>
</g>
<!-- Node3 -->
<g id="node3" class="node"><title>Node3</title>
<g id="a_node3"><a xlink:href="ConfigurableElementAggregator_8h.html" target="_top" xlink:title="ConfigurableElementAggregator.h">
<polygon fill="white" stroke="black" points="320,-112.5 320,-131.5 499,-131.5 499,-112.5 320,-112.5"/>
<text text-anchor="middle" x="409.5" y="-119.5" font-family="Verdana" font-size="10.00">ConfigurableElementAggregator.h</text>
</a>
</g>
</g>
<!-- Node2&#45;&gt;Node3 -->
<g id="edge2" class="edge"><title>Node2&#45;&gt;Node3</title>
<path fill="none" stroke="midnightblue" d="M336.699,-224.368C349.736,-206.215 380.197,-163.802 397.298,-139.99"/>
<polygon fill="midnightblue" stroke="midnightblue" points="400.339,-141.755 403.33,-131.591 394.654,-137.672 400.339,-141.755"/>
</g>
<!-- Node4 -->
<g id="node4" class="node"><title>Node4</title>
<polygon fill="white" stroke="#bfbfbf" points="393.5,-56.5 393.5,-75.5 423.5,-75.5 423.5,-56.5 393.5,-56.5"/>
<text text-anchor="middle" x="408.5" y="-63.5" font-family="Verdana" font-size="10.00">list</text>
</g>
<!-- Node2&#45;&gt;Node4 -->
<g id="edge18" class="edge"><title>Node2&#45;&gt;Node4</title>
<path fill="none" stroke="midnightblue" d="M325.283,-224.267C313.416,-203.151 287.17,-148.385 310.5,-112 318.886,-98.9214 357.589,-83.8869 383.774,-74.9296"/>
<polygon fill="midnightblue" stroke="midnightblue" points="385.063,-78.1893 393.44,-71.7026 382.847,-71.5495 385.063,-78.1893"/>
</g>
<!-- Node6 -->
<g id="node6" class="node"><title>Node6</title>
<g id="a_node6"><a xlink:href="ConfigurableElement_8h.html" target="_top" xlink:title="ConfigurableElement.h">
<polygon fill="white" stroke="black" points="138,-168.5 138,-187.5 263,-187.5 263,-168.5 138,-168.5"/>
<text text-anchor="middle" x="200.5" y="-175.5" font-family="Verdana" font-size="10.00">ConfigurableElement.h</text>
</a>
</g>
</g>
<!-- Node2&#45;&gt;Node6 -->
<g id="edge5" class="edge"><title>Node2&#45;&gt;Node6</title>
<path fill="none" stroke="midnightblue" d="M309.901,-224.444C288.507,-215.557 254.819,-201.563 230.476,-191.451"/>
<polygon fill="midnightblue" stroke="midnightblue" points="231.58,-188.12 221.003,-187.516 228.895,-194.585 231.58,-188.12"/>
</g>
<!-- Node3&#45;&gt;Node4 -->
<g id="edge3" class="edge"><title>Node3&#45;&gt;Node4</title>
<path fill="none" stroke="midnightblue" d="M409.335,-112.083C409.204,-105.006 409.016,-94.8611 408.852,-85.9865"/>
<polygon fill="midnightblue" stroke="midnightblue" points="412.347,-85.6845 408.662,-75.7511 405.348,-85.8142 412.347,-85.6845"/>
</g>
<!-- Node3&#45;&gt;Node5 -->
<g id="edge4" class="edge"><title>Node3&#45;&gt;Node5</title>
<path fill="none" stroke="midnightblue" d="M417.268,-112.368C433.823,-93.9744 472.796,-50.6712 494.053,-27.0519"/>
<polygon fill="midnightblue" stroke="midnightblue" points="496.68,-29.3658 500.768,-19.5914 491.477,-24.683 496.68,-29.3658"/>
</g>
<!-- Node6&#45;&gt;Node4 -->
<g id="edge17" class="edge"><title>Node6&#45;&gt;Node4</title>
<path fill="none" stroke="midnightblue" d="M208.702,-168.236C221.972,-154.513 249.501,-127.882 277.5,-112 286.971,-106.628 348.614,-86.3319 383.865,-74.9187"/>
<polygon fill="midnightblue" stroke="midnightblue" points="385.016,-78.225 393.456,-71.8214 382.865,-71.5637 385.016,-78.225"/>
</g>
<!-- Node7 -->
<g id="node7" class="node"><title>Node7</title>
<g id="a_node7"><a xlink:href="Element_8h.html" target="_top" xlink:title="Element.h">
<polygon fill="white" stroke="black" points="160,-112.5 160,-131.5 225,-131.5 225,-112.5 160,-112.5"/>
<text text-anchor="middle" x="192.5" y="-119.5" font-family="Verdana" font-size="10.00">Element.h</text>
</a>
</g>
</g>
<!-- Node6&#45;&gt;Node7 -->
<g id="edge6" class="edge"><title>Node6&#45;&gt;Node7</title>
<path fill="none" stroke="midnightblue" d="M199.179,-168.083C198.119,-160.927 196.594,-150.635 195.269,-141.691"/>
<polygon fill="midnightblue" stroke="midnightblue" points="198.724,-141.13 193.796,-131.751 191.8,-142.156 198.724,-141.13"/>
</g>
<!-- Node7&#45;&gt;Node4 -->
<g id="edge10" class="edge"><title>Node7&#45;&gt;Node4</title>
<path fill="none" stroke="midnightblue" d="M225.095,-113.83C262.537,-105.437 325.734,-90.7955 379.5,-76 380.758,-75.6538 382.044,-75.2905 383.34,-74.9165"/>
<polygon fill="midnightblue" stroke="midnightblue" points="384.635,-78.1821 393.203,-71.9505 382.619,-71.4787 384.635,-78.1821"/>
</g>
<!-- Node7&#45;&gt;Node5 -->
<g id="edge7" class="edge"><title>Node7&#45;&gt;Node5</title>
<path fill="none" stroke="midnightblue" d="M225.035,-113.324C256.423,-105.479 305.002,-92.1731 345.5,-76 363.59,-68.7755 366.642,-63.7824 384.5,-56 415.131,-42.651 451.123,-29.9015 476.417,-21.4039"/>
<polygon fill="midnightblue" stroke="midnightblue" points="477.836,-24.6204 486.221,-18.1432 475.627,-17.9782 477.836,-24.6204"/>
</g>
<!-- Node8 -->
<g id="node8" class="node"><title>Node8</title>
<polygon fill="white" stroke="#bfbfbf" points="0,-0.5 0,-19.5 47,-19.5 47,-0.5 0,-0.5"/>
<text text-anchor="middle" x="23.5" y="-7.5" font-family="Verdana" font-size="10.00">vector</text>
</g>
<!-- Node7&#45;&gt;Node8 -->
<g id="edge8" class="edge"><title>Node7&#45;&gt;Node8</title>
<path fill="none" stroke="midnightblue" d="M159.851,-118.294C128.533,-114.088 81.6722,-103.356 51.5,-76 38.1531,-63.8987 30.9099,-44.3365 27.1569,-29.8297"/>
<polygon fill="midnightblue" stroke="midnightblue" points="30.5384,-28.9139 24.9241,-19.929 23.7099,-30.454 30.5384,-28.9139"/>
</g>
<!-- Node9 -->
<g id="node9" class="node"><title>Node9</title>
<polygon fill="white" stroke="#bfbfbf" points="87,-0.5 87,-19.5 140,-19.5 140,-0.5 87,-0.5"/>
<text text-anchor="middle" x="113.5" y="-7.5" font-family="Verdana" font-size="10.00">stdint.h</text>
</g>
<!-- Node7&#45;&gt;Node9 -->
<g id="edge9" class="edge"><title>Node7&#45;&gt;Node9</title>
<path fill="none" stroke="midnightblue" d="M159.772,-120.211C128.036,-117.487 81.423,-107.879 58.5,-76 45.1939,-57.4952 67.8665,-37.7024 88.006,-24.8855"/>
<polygon fill="midnightblue" stroke="midnightblue" points="89.892,-27.8355 96.6557,-19.6805 86.2828,-21.8377 89.892,-27.8355"/>
</g>
<!-- Node10 -->
<g id="node10" class="node"><title>Node10</title>
<polygon fill="white" stroke="#bfbfbf" points="177.5,-56.5 177.5,-75.5 241.5,-75.5 241.5,-56.5 177.5,-56.5"/>
<text text-anchor="middle" x="209.5" y="-63.5" font-family="Verdana" font-size="10.00">XmlSink.h</text>
</g>
<!-- Node7&#45;&gt;Node10 -->
<g id="edge11" class="edge"><title>Node7&#45;&gt;Node10</title>
<path fill="none" stroke="midnightblue" d="M195.307,-112.083C197.585,-104.849 200.871,-94.4087 203.708,-85.3968"/>
<polygon fill="midnightblue" stroke="midnightblue" points="207.081,-86.3406 206.745,-75.7511 200.404,-84.2385 207.081,-86.3406"/>
</g>
<!-- Node11 -->
<g id="node11" class="node"><title>Node11</title>
<polygon fill="white" stroke="#bfbfbf" points="260,-56.5 260,-75.5 337,-75.5 337,-56.5 260,-56.5"/>
<text text-anchor="middle" x="298.5" y="-63.5" font-family="Verdana" font-size="10.00">XmlSource.h</text>
</g>
<!-- Node7&#45;&gt;Node11 -->
<g id="edge12" class="edge"><title>Node7&#45;&gt;Node11</title>
<path fill="none" stroke="midnightblue" d="M209.531,-112.324C226.53,-103.664 252.876,-90.2424 272.493,-80.249"/>
<polygon fill="midnightblue" stroke="midnightblue" points="274.19,-83.3125 281.512,-75.6545 271.012,-77.0752 274.19,-83.3125"/>
</g>
<!-- Node12 -->
<g id="node12" class="node"><title>Node12</title>
<g id="a_node12"><a xlink:href="PathNavigator_8h.html" target="_top" xlink:title="PathNavigator.h">
<polygon fill="white" stroke="black" points="67.5,-56.5 67.5,-75.5 159.5,-75.5 159.5,-56.5 67.5,-56.5"/>
<text text-anchor="middle" x="113.5" y="-63.5" font-family="Verdana" font-size="10.00">PathNavigator.h</text>
</a>
</g>
</g>
<!-- Node7&#45;&gt;Node12 -->
<g id="edge13" class="edge"><title>Node7&#45;&gt;Node12</title>
<path fill="none" stroke="midnightblue" d="M179.807,-112.324C167.599,-103.979 148.922,-91.2122 134.497,-81.3524"/>
<polygon fill="midnightblue" stroke="midnightblue" points="136.392,-78.4082 126.161,-75.6545 132.442,-84.1871 136.392,-78.4082"/>
</g>
<!-- Node12&#45;&gt;Node5 -->
<g id="edge15" class="edge"><title>Node12&#45;&gt;Node5</title>
<path fill="none" stroke="midnightblue" d="M159.697,-57.3352C162.675,-56.8737 165.629,-56.4249 168.5,-56 281.297,-39.3106 415.597,-22.409 476.109,-14.9518"/>
<polygon fill="midnightblue" stroke="midnightblue" points="476.692,-18.4066 486.19,-13.7129 475.838,-11.4589 476.692,-18.4066"/>
</g>
<!-- Node12&#45;&gt;Node8 -->
<g id="edge14" class="edge"><title>Node12&#45;&gt;Node8</title>
<path fill="none" stroke="midnightblue" d="M99.0399,-56.324C85.0004,-47.9002 63.4515,-34.9709 46.9569,-25.0741"/>
<polygon fill="midnightblue" stroke="midnightblue" points="48.2999,-21.7983 37.9242,-19.6545 44.6984,-27.8007 48.2999,-21.7983"/>
</g>
<!-- Node12&#45;&gt;Node9 -->
<g id="edge16" class="edge"><title>Node12&#45;&gt;Node9</title>
<path fill="none" stroke="midnightblue" d="M113.5,-56.083C113.5,-49.0059 113.5,-38.8611 113.5,-29.9865"/>
<polygon fill="midnightblue" stroke="midnightblue" points="117,-29.751 113.5,-19.7511 110,-29.7511 117,-29.751"/>
</g>
<!-- Node13&#45;&gt;Node5 -->
<g id="edge23" class="edge"><title>Node13&#45;&gt;Node5</title>
<path fill="none" stroke="midnightblue" d="M620.005,-112.368C599.595,-93.8137 551.304,-49.9129 525.481,-26.4376"/>
<polygon fill="midnightblue" stroke="midnightblue" points="527.704,-23.7284 517.951,-19.5914 522.996,-28.908 527.704,-23.7284"/>
</g>
<!-- Node13&#45;&gt;Node9 -->
<g id="edge20" class="edge"><title>Node13&#45;&gt;Node9</title>
<path fill="none" stroke="midnightblue" d="M607.999,-112.495C572.169,-98.6441 497.733,-71.234 432.5,-56 331.795,-32.4821 210.151,-19.4616 150.349,-14.0431"/>
<polygon fill="midnightblue" stroke="midnightblue" points="150.534,-10.5459 140.264,-13.1487 149.915,-17.5185 150.534,-10.5459"/>
</g>
<!-- Node14 -->
<g id="node14" class="node"><title>Node14</title>
<g id="a_node14"><a xlink:href="ErrorContext_8h.html" target="_top" xlink:title="ErrorContext.h">
<polygon fill="white" stroke="black" points="593.5,-56.5 593.5,-75.5 679.5,-75.5 679.5,-56.5 593.5,-56.5"/>
<text text-anchor="middle" x="636.5" y="-63.5" font-family="Verdana" font-size="10.00">ErrorContext.h</text>
</a>
</g>
</g>
<!-- Node13&#45;&gt;Node14 -->
<g id="edge21" class="edge"><title>Node13&#45;&gt;Node14</title>
<path fill="none" stroke="midnightblue" d="M630.656,-112.083C631.584,-104.927 632.918,-94.6353 634.077,-85.6911"/>
<polygon fill="midnightblue" stroke="midnightblue" points="637.551,-86.1181 635.366,-75.7511 630.609,-85.2181 637.551,-86.1181"/>
</g>
<!-- Node14&#45;&gt;Node5 -->
<g id="edge22" class="edge"><title>Node14&#45;&gt;Node5</title>
<path fill="none" stroke="midnightblue" d="M616.218,-56.4435C595.153,-47.5566 561.983,-33.5632 538.014,-23.4514"/>
<polygon fill="midnightblue" stroke="midnightblue" points="539.261,-20.1787 528.687,-19.5164 536.54,-26.6283 539.261,-20.1787"/>
</g>
</g>
</svg>
