<?xml version="1.0" encoding="UTF-8" standalone="no"?>
<!DOCTYPE svg PUBLIC "-//W3C//DTD SVG 1.1//EN"
 "http://www.w3.org/Graphics/SVG/1.1/DTD/svg11.dtd">
<!-- Generated by graphviz version 2.38.0 (20140413.2041)
 -->
<!-- Title: /home/dawagner/dev/parameter&#45;framework/parameter/SubsystemObject.cpp Pages: 1 -->
<svg width="1417pt" height="386pt"
 viewBox="0.00 0.00 1417.00 386.00" xmlns="http://www.w3.org/2000/svg" xmlns:xlink="http://www.w3.org/1999/xlink">
<g id="graph0" class="graph" transform="scale(1 1) rotate(0) translate(4 382)">
<title>/home/dawagner/dev/parameter&#45;framework/parameter/SubsystemObject.cpp</title>
<polygon fill="white" stroke="none" points="-4,4 -4,-382 1413,-382 1413,4 -4,4"/>
<!-- Node1 -->
<g id="node1" class="node"><title>Node1</title>
<polygon fill="#bfbfbf" stroke="black" points="927.5,-336.5 927.5,-377.5 1106.5,-377.5 1106.5,-336.5 927.5,-336.5"/>
<text text-anchor="start" x="935.5" y="-365.5" font-family="Verdana" font-size="10.00">/home/dawagner/dev</text>
<text text-anchor="start" x="935.5" y="-354.5" font-family="Verdana" font-size="10.00">/parameter&#45;framework</text>
<text text-anchor="middle" x="1017" y="-343.5" font-family="Verdana" font-size="10.00">/parameter/SubsystemObject.cpp</text>
</g>
<!-- Node2 -->
<g id="node2" class="node"><title>Node2</title>
<g id="a_node2"><a xlink:href="SubsystemObject_8h.html" target="_top" xlink:title="SubsystemObject.h">
<polygon fill="white" stroke="black" points="28,-112.5 28,-131.5 138,-131.5 138,-112.5 28,-112.5"/>
<text text-anchor="middle" x="83" y="-119.5" font-family="Verdana" font-size="10.00">SubsystemObject.h</text>
</a>
</g>
</g>
<!-- Node1&#45;&gt;Node2 -->
<g id="edge1" class="edge"><title>Node1&#45;&gt;Node2</title>
<path fill="none" stroke="midnightblue" d="M927.374,-352.848C750.989,-346.107 364.691,-328.54 235,-300 166.314,-284.885 127.924,-301.196 87,-244 65.266,-213.624 71.778,-167.116 77.7945,-141.508"/>
<polygon fill="midnightblue" stroke="midnightblue" points="81.2331,-142.19 80.3397,-131.633 74.4546,-140.443 81.2331,-142.19"/>
</g>
<!-- Node6 -->
<g id="node6" class="node"><title>Node6</title>
<g id="a_node6"><a xlink:href="Subsystem_8h.html" target="_top" xlink:title="Subsystem.h">
<polygon fill="white" stroke="black" points="244,-280.5 244,-299.5 324,-299.5 324,-280.5 244,-280.5"/>
<text text-anchor="middle" x="284" y="-287.5" font-family="Verdana" font-size="10.00">Subsystem.h</text>
</a>
</g>
</g>
<!-- Node1&#45;&gt;Node6 -->
<g id="edge6" class="edge"><title>Node1&#45;&gt;Node6</title>
<path fill="none" stroke="midnightblue" d="M927.487,-348.062C771.997,-334.274 456.906,-306.333 334.357,-295.465"/>
<polygon fill="midnightblue" stroke="midnightblue" points="334.411,-291.957 324.141,-294.56 333.792,-298.929 334.411,-291.957"/>
</g>
<!-- Node16 -->
<g id="node16" class="node"><title>Node16</title>
<g id="a_node16"><a xlink:href="MappingContext_8h.html" target="_top" xlink:title="MappingContext.h">
<polygon fill="white" stroke="black" points="763,-168.5 763,-187.5 867,-187.5 867,-168.5 763,-168.5"/>
<text text-anchor="middle" x="815" y="-175.5" font-family="Verdana" font-size="10.00">MappingContext.h</text>
</a>
</g>
</g>
<!-- Node1&#45;&gt;Node16 -->
<g id="edge50" class="edge"><title>Node1&#45;&gt;Node16</title>
<path fill="none" stroke="midnightblue" d="M984.417,-336.477C951.627,-315.915 900.655,-281.382 863,-244 848.278,-229.385 834.548,-209.966 825.576,-196.17"/>
<polygon fill="midnightblue" stroke="midnightblue" points="828.482,-194.216 820.172,-187.645 822.57,-197.965 828.482,-194.216"/>
</g>
<!-- Node18 -->
<g id="node18" class="node"><title>Node18</title>
<g id="a_node18"><a xlink:href="InstanceConfigurableElement_8h.html" target="_top" xlink:title="InstanceConfigurableElement.h">
<polygon fill="white" stroke="black" points="548,-280.5 548,-299.5 714,-299.5 714,-280.5 548,-280.5"/>
<text text-anchor="middle" x="631" y="-287.5" font-family="Verdana" font-size="10.00">InstanceConfigurableElement.h</text>
</a>
</g>
</g>
<!-- Node1&#45;&gt;Node18 -->
<g id="edge32" class="edge"><title>Node1&#45;&gt;Node18</title>
<path fill="none" stroke="midnightblue" d="M927.474,-340.924C855.112,-328.739 755.198,-311.914 691.842,-301.245"/>
<polygon fill="midnightblue" stroke="midnightblue" points="692.054,-297.732 681.611,-299.523 690.891,-304.635 692.054,-297.732"/>
</g>
<!-- Node20 -->
<g id="node20" class="node"><title>Node20</title>
<g id="a_node20"><a xlink:href="ParameterBlackboard_8h.html" target="_top" xlink:title="ParameterBlackboard.h">
<polygon fill="white" stroke="black" points="1166.5,-112.5 1166.5,-131.5 1295.5,-131.5 1295.5,-112.5 1166.5,-112.5"/>
<text text-anchor="middle" x="1231" y="-119.5" font-family="Verdana" font-size="10.00">ParameterBlackboard.h</text>
</a>
</g>
</g>
<!-- Node1&#45;&gt;Node20 -->
<g id="edge39" class="edge"><title>Node1&#45;&gt;Node20</title>
<path fill="none" stroke="midnightblue" d="M1024.37,-336.417C1030.96,-320.339 1041.65,-297.458 1055,-280 1101.79,-218.839 1174.81,-162.811 1210.28,-137.38"/>
<polygon fill="midnightblue" stroke="midnightblue" points="1212.31,-140.228 1218.45,-131.59 1208.26,-134.518 1212.31,-140.228"/>
</g>
<!-- Node23 -->
<g id="node23" class="node"><title>Node23</title>
<g id="a_node23"><a xlink:href="ParameterAccessContext_8h.html" target="_top" xlink:title="ParameterAccessContext.h">
<polygon fill="white" stroke="black" points="924.5,-112.5 924.5,-131.5 1071.5,-131.5 1071.5,-112.5 924.5,-112.5"/>
<text text-anchor="middle" x="998" y="-119.5" font-family="Verdana" font-size="10.00">ParameterAccessContext.h</text>
</a>
</g>
</g>
<!-- Node1&#45;&gt;Node23 -->
<g id="edge45" class="edge"><title>Node1&#45;&gt;Node23</title>
<path fill="none" stroke="midnightblue" d="M1015.38,-336.135C1011.76,-291.779 1003.07,-185.181 999.535,-141.821"/>
<polygon fill="midnightblue" stroke="midnightblue" points="1003,-141.269 998.7,-131.586 996.025,-141.838 1003,-141.269"/>
</g>
<!-- Node25 -->
<g id="node25" class="node"><title>Node25</title>
<g id="a_node25"><a xlink:href="ParameterType_8h.html" target="_top" xlink:title="ParameterType.h">
<polygon fill="white" stroke="black" points="872.5,-224.5 872.5,-243.5 969.5,-243.5 969.5,-224.5 872.5,-224.5"/>
<text text-anchor="middle" x="921" y="-231.5" font-family="Verdana" font-size="10.00">ParameterType.h</text>
</a>
</g>
</g>
<!-- Node1&#45;&gt;Node25 -->
<g id="edge51" class="edge"><title>Node1&#45;&gt;Node25</title>
<path fill="none" stroke="midnightblue" d="M1001.36,-336.29C982.684,-312.747 951.767,-273.779 934.225,-251.669"/>
<polygon fill="midnightblue" stroke="midnightblue" points="936.76,-249.233 927.803,-243.575 931.277,-253.584 936.76,-249.233"/>
</g>
<!-- Node27 -->
<g id="node27" class="node"><title>Node27</title>
<polygon fill="white" stroke="#bfbfbf" points="1064,-280.5 1064,-299.5 1120,-299.5 1120,-280.5 1064,-280.5"/>
<text text-anchor="middle" x="1092" y="-287.5" font-family="Verdana" font-size="10.00">assert.h</text>
</g>
<!-- Node1&#45;&gt;Node27 -->
<g id="edge56" class="edge"><title>Node1&#45;&gt;Node27</title>
<path fill="none" stroke="midnightblue" d="M1039.5,-336.498C1050.67,-326.82 1063.96,-315.3 1074.38,-306.274"/>
<polygon fill="midnightblue" stroke="midnightblue" points="1076.75,-308.847 1082.02,-299.652 1072.17,-303.557 1076.75,-308.847"/>
</g>
<!-- Node28 -->
<g id="node28" class="node"><title>Node28</title>
<polygon fill="white" stroke="#bfbfbf" points="1138.5,-280.5 1138.5,-299.5 1189.5,-299.5 1189.5,-280.5 1138.5,-280.5"/>
<text text-anchor="middle" x="1164" y="-287.5" font-family="Verdana" font-size="10.00">stdlib.h</text>
</g>
<!-- Node1&#45;&gt;Node28 -->
<g id="edge57" class="edge"><title>Node1&#45;&gt;Node28</title>
<path fill="none" stroke="midnightblue" d="M1061.1,-336.498C1085.05,-325.909 1113.98,-313.117 1135.06,-303.797"/>
<polygon fill="midnightblue" stroke="midnightblue" points="1136.7,-306.898 1144.43,-299.652 1133.87,-300.496 1136.7,-306.898"/>
</g>
<!-- Node29 -->
<g id="node29" class="node"><title>Node29</title>
<polygon fill="white" stroke="#bfbfbf" points="1207.5,-280.5 1207.5,-299.5 1260.5,-299.5 1260.5,-280.5 1207.5,-280.5"/>
<text text-anchor="middle" x="1234" y="-287.5" font-family="Verdana" font-size="10.00">string.h</text>
</g>
<!-- Node1&#45;&gt;Node29 -->
<g id="edge58" class="edge"><title>Node1&#45;&gt;Node29</title>
<path fill="none" stroke="midnightblue" d="M1082.11,-336.498C1119.96,-325.16 1166.24,-311.296 1197.7,-301.873"/>
<polygon fill="midnightblue" stroke="midnightblue" points="1198.79,-305.201 1207.36,-298.978 1196.78,-298.495 1198.79,-305.201"/>
</g>
<!-- Node30 -->
<g id="node30" class="node"><title>Node30</title>
<polygon fill="white" stroke="#bfbfbf" points="1279,-280.5 1279,-299.5 1335,-299.5 1335,-280.5 1279,-280.5"/>
<text text-anchor="middle" x="1307" y="-287.5" font-family="Verdana" font-size="10.00">sstream</text>
</g>
<!-- Node1&#45;&gt;Node30 -->
<g id="edge59" class="edge"><title>Node1&#45;&gt;Node30</title>
<path fill="none" stroke="midnightblue" d="M1106.68,-336.626C1152.54,-326.603 1209.51,-313.983 1268.81,-300.244"/>
<polygon fill="midnightblue" stroke="midnightblue" points="1269.78,-303.611 1278.73,-297.94 1268.2,-296.793 1269.78,-303.611"/>
</g>
<!-- Node31 -->
<g id="node31" class="node"><title>Node31</title>
<polygon fill="white" stroke="#bfbfbf" points="1353,-280.5 1353,-299.5 1409,-299.5 1409,-280.5 1353,-280.5"/>
<text text-anchor="middle" x="1381" y="-287.5" font-family="Verdana" font-size="10.00">stdarg.h</text>
</g>
<!-- Node1&#45;&gt;Node31 -->
<g id="edge60" class="edge"><title>Node1&#45;&gt;Node31</title>
<path fill="none" stroke="midnightblue" d="M1106.83,-342.327C1170.26,-332.274 1257.44,-317.653 1342.89,-300.121"/>
<polygon fill="midnightblue" stroke="midnightblue" points="1343.68,-303.532 1352.76,-298.081 1342.26,-296.677 1343.68,-303.532"/>
</g>
<!-- Node3 -->
<g id="node3" class="node"><title>Node3</title>
<g id="a_node3"><a xlink:href="Syncer_8h.html" target="_top" xlink:title="Syncer.h">
<polygon fill="white" stroke="black" points="80,-56.5 80,-75.5 138,-75.5 138,-56.5 80,-56.5"/>
<text text-anchor="middle" x="109" y="-63.5" font-family="Verdana" font-size="10.00">Syncer.h</text>
</a>
</g>
</g>
<!-- Node2&#45;&gt;Node3 -->
<g id="edge2" class="edge"><title>Node2&#45;&gt;Node3</title>
<path fill="none" stroke="midnightblue" d="M87.2934,-112.083C90.8523,-104.691 96.0225,-93.9533 100.424,-84.8111"/>
<polygon fill="midnightblue" stroke="midnightblue" points="103.602,-86.2795 104.787,-75.7511 97.2948,-83.2427 103.602,-86.2795"/>
</g>
<!-- Node4 -->
<g id="node4" class="node"><title>Node4</title>
<polygon fill="white" stroke="#bfbfbf" points="671,-0.5 671,-19.5 715,-19.5 715,-0.5 671,-0.5"/>
<text text-anchor="middle" x="693" y="-7.5" font-family="Verdana" font-size="10.00">string</text>
</g>
<!-- Node2&#45;&gt;Node4 -->
<g id="edge5" class="edge"><title>Node2&#45;&gt;Node4</title>
<path fill="none" stroke="midnightblue" d="M77.2735,-112.136C69.1095,-98.2752 56.6184,-71.4597 71,-56 91.2873,-34.1919 536.412,-16.6216 660.907,-12.1209"/>
<polygon fill="midnightblue" stroke="midnightblue" points="661.088,-15.6167 670.957,-11.7609 660.838,-8.62118 661.088,-15.6167"/>
</g>
<!-- Node5 -->
<g id="node5" class="node"><title>Node5</title>
<polygon fill="white" stroke="#bfbfbf" points="1054.5,-0.5 1054.5,-19.5 1107.5,-19.5 1107.5,-0.5 1054.5,-0.5"/>
<text text-anchor="middle" x="1081" y="-7.5" font-family="Verdana" font-size="10.00">stdint.h</text>
</g>
<!-- Node2&#45;&gt;Node5 -->
<g id="edge4" class="edge"><title>Node2&#45;&gt;Node5</title>
<path fill="none" stroke="midnightblue" d="M105.278,-112.389C143.994,-97.8606 226.5,-68.8106 299,-56 445.029,-30.1968 909.807,-15.6984 1044.25,-11.9705"/>
<polygon fill="midnightblue" stroke="midnightblue" points="1044.53,-15.4642 1054.43,-11.6913 1044.34,-8.46679 1044.53,-15.4642"/>
</g>
<!-- Node3&#45;&gt;Node4 -->
<g id="edge3" class="edge"><title>Node3&#45;&gt;Node4</title>
<path fill="none" stroke="midnightblue" d="M138.058,-58.4115C142.704,-57.5045 147.472,-56.6597 152,-56 343.873,-28.0491 576.751,-15.9604 660.808,-12.2907"/>
<polygon fill="midnightblue" stroke="midnightblue" points="661.146,-15.7795 670.988,-11.856 660.848,-8.78591 661.146,-15.7795"/>
</g>
<!-- Node6&#45;&gt;Node4 -->
<g id="edge30" class="edge"><title>Node6&#45;&gt;Node4</title>
<path fill="none" stroke="midnightblue" d="M246.859,-280.35C225.968,-273.684 200.954,-262.402 185,-244 165.284,-221.259 166,-209.098 166,-179 166,-179 166,-179 166,-121 166,-19.4774 545.506,-11.0456 660.419,-10.8195"/>
<polygon fill="midnightblue" stroke="midnightblue" points="660.692,-14.3194 670.692,-10.8204 660.692,-7.31942 660.692,-14.3194"/>
</g>
<!-- Node7 -->
<g id="node7" class="node"><title>Node7</title>
<g id="a_node7"><a xlink:href="ConfigurableElement_8h.html" target="_top" xlink:title="ConfigurableElement.h">
<polygon fill="white" stroke="black" points="365.5,-168.5 365.5,-187.5 490.5,-187.5 490.5,-168.5 365.5,-168.5"/>
<text text-anchor="middle" x="428" y="-175.5" font-family="Verdana" font-size="10.00">ConfigurableElement.h</text>
</a>
</g>
</g>
<!-- Node6&#45;&gt;Node7 -->
<g id="edge7" class="edge"><title>Node6&#45;&gt;Node7</title>
<path fill="none" stroke="midnightblue" d="M324.377,-286.799C382.26,-282.703 484.363,-271.662 507,-244 524.483,-222.636 491.615,-203.253 463.092,-191.322"/>
<polygon fill="midnightblue" stroke="midnightblue" points="464.25,-188.015 453.665,-187.569 461.661,-194.519 464.25,-188.015"/>
</g>
<!-- Node9 -->
<g id="node9" class="node"><title>Node9</title>
<polygon fill="white" stroke="#bfbfbf" points="342.5,-0.5 342.5,-19.5 389.5,-19.5 389.5,-0.5 342.5,-0.5"/>
<text text-anchor="middle" x="366" y="-7.5" font-family="Verdana" font-size="10.00">vector</text>
</g>
<!-- Node6&#45;&gt;Node9 -->
<g id="edge31" class="edge"><title>Node6&#45;&gt;Node9</title>
<path fill="none" stroke="midnightblue" d="M243.928,-284.802C202.968,-279.393 138.267,-267.706 87,-244 43.1901,-223.742 0,-227.267 0,-179 0,-179 0,-179 0,-121 0,-81.3821 25.8922,-74.3583 61,-56 107.598,-31.6331 262.343,-18.1612 331.77,-13.2145"/>
<polygon fill="midnightblue" stroke="midnightblue" points="332.418,-16.678 342.151,-12.4934 331.932,-9.69486 332.418,-16.678"/>
</g>
<!-- Node10 -->
<g id="node10" class="node"><title>Node10</title>
<polygon fill="white" stroke="#bfbfbf" points="308,-56.5 308,-75.5 338,-75.5 338,-56.5 308,-56.5"/>
<text text-anchor="middle" x="323" y="-63.5" font-family="Verdana" font-size="10.00">list</text>
</g>
<!-- Node6&#45;&gt;Node10 -->
<g id="edge28" class="edge"><title>Node6&#45;&gt;Node10</title>
<path fill="none" stroke="midnightblue" d="M285.529,-280.297C291.267,-247.633 311.605,-131.866 319.67,-85.9573"/>
<polygon fill="midnightblue" stroke="midnightblue" points="323.156,-86.3385 321.439,-75.8837 316.262,-85.1273 323.156,-86.3385"/>
</g>
<!-- Node14 -->
<g id="node14" class="node"><title>Node14</title>
<g id="a_node14"><a xlink:href="ConfigurableElementWithMapping_8h.html" target="_top" xlink:title="ConfigurableElementWithMapping.h">
<polygon fill="white" stroke="black" points="312,-224.5 312,-243.5 498,-243.5 498,-224.5 312,-224.5"/>
<text text-anchor="middle" x="405" y="-231.5" font-family="Verdana" font-size="10.00">ConfigurableElementWithMapping.h</text>
</a>
</g>
</g>
<!-- Node6&#45;&gt;Node14 -->
<g id="edge20" class="edge"><title>Node6&#45;&gt;Node14</title>
<path fill="none" stroke="midnightblue" d="M303.173,-280.444C322.909,-271.636 353.885,-257.812 376.493,-247.722"/>
<polygon fill="midnightblue" stroke="midnightblue" points="378.211,-250.788 385.917,-243.516 375.359,-244.396 378.211,-250.788"/>
</g>
<!-- Node15 -->
<g id="node15" class="node"><title>Node15</title>
<g id="a_node15"><a xlink:href="Mapper_8h.html" target="_top" xlink:title="Mapper.h">
<polygon fill="white" stroke="black" points="194.5,-224.5 194.5,-243.5 255.5,-243.5 255.5,-224.5 194.5,-224.5"/>
<text text-anchor="middle" x="225" y="-231.5" font-family="Verdana" font-size="10.00">Mapper.h</text>
</a>
</g>
</g>
<!-- Node6&#45;&gt;Node15 -->
<g id="edge23" class="edge"><title>Node6&#45;&gt;Node15</title>
<path fill="none" stroke="midnightblue" d="M274.521,-280.324C265.799,-272.341 252.657,-260.313 242.102,-250.653"/>
<polygon fill="midnightblue" stroke="midnightblue" points="244.392,-248.004 234.652,-243.834 239.666,-253.167 244.392,-248.004"/>
</g>
<!-- Node6&#45;&gt;Node16 -->
<g id="edge25" class="edge"><title>Node6&#45;&gt;Node16</title>
<path fill="none" stroke="midnightblue" d="M324.424,-281.859C372.192,-273.319 454.029,-258.37 524,-244 610.821,-226.169 711.679,-203.114 768.959,-189.798"/>
<polygon fill="midnightblue" stroke="midnightblue" points="769.847,-193.185 778.793,-187.508 768.26,-186.368 769.847,-193.185"/>
</g>
<!-- Node17 -->
<g id="node17" class="node"><title>Node17</title>
<polygon fill="white" stroke="#bfbfbf" points="96,-224.5 96,-243.5 138,-243.5 138,-224.5 96,-224.5"/>
<text text-anchor="middle" x="117" y="-231.5" font-family="Verdana" font-size="10.00">stack</text>
</g>
<!-- Node6&#45;&gt;Node17 -->
<g id="edge29" class="edge"><title>Node6&#45;&gt;Node17</title>
<path fill="none" stroke="midnightblue" d="M257.538,-280.444C227.662,-270.783 179.124,-255.088 147.631,-244.905"/>
<polygon fill="midnightblue" stroke="midnightblue" points="148.642,-241.553 138.05,-241.807 146.488,-248.214 148.642,-241.553"/>
</g>
<!-- Node8 -->
<g id="node8" class="node"><title>Node8</title>
<g id="a_node8"><a xlink:href="Element_8h.html" target="_top" xlink:title="Element.h">
<polygon fill="white" stroke="black" points="544.5,-112.5 544.5,-131.5 609.5,-131.5 609.5,-112.5 544.5,-112.5"/>
<text text-anchor="middle" x="577" y="-119.5" font-family="Verdana" font-size="10.00">Element.h</text>
</a>
</g>
</g>
<!-- Node7&#45;&gt;Node8 -->
<g id="edge8" class="edge"><title>Node7&#45;&gt;Node8</title>
<path fill="none" stroke="midnightblue" d="M451.609,-168.444C476.458,-159.438 515.774,-145.189 543.754,-135.049"/>
<polygon fill="midnightblue" stroke="midnightblue" points="545.292,-138.214 553.501,-131.516 542.907,-131.633 545.292,-138.214"/>
</g>
<!-- Node7&#45;&gt;Node10 -->
<g id="edge19" class="edge"><title>Node7&#45;&gt;Node10</title>
<path fill="none" stroke="midnightblue" d="M419.761,-168.368C402.203,-149.974 360.868,-106.671 338.322,-83.0519"/>
<polygon fill="midnightblue" stroke="midnightblue" points="340.637,-80.4083 331.201,-75.5914 335.574,-85.2417 340.637,-80.4083"/>
</g>
<!-- Node8&#45;&gt;Node4 -->
<g id="edge9" class="edge"><title>Node8&#45;&gt;Node4</title>
<path fill="none" stroke="midnightblue" d="M559.157,-112.298C536.611,-100.136 502.611,-77.1665 519,-56 536.235,-33.741 615.621,-20.5037 660.98,-14.6289"/>
<polygon fill="midnightblue" stroke="midnightblue" points="661.426,-18.1006 670.915,-13.3893 660.559,-11.1545 661.426,-18.1006"/>
</g>
<!-- Node8&#45;&gt;Node5 -->
<g id="edge11" class="edge"><title>Node8&#45;&gt;Node5</title>
<path fill="none" stroke="midnightblue" d="M609.681,-113.867C699.563,-94.2502 950.041,-39.5824 1044.41,-18.9867"/>
<polygon fill="midnightblue" stroke="midnightblue" points="1045.32,-22.3697 1054.34,-16.8177 1043.83,-15.5307 1045.32,-22.3697"/>
</g>
<!-- Node8&#45;&gt;Node9 -->
<g id="edge10" class="edge"><title>Node8&#45;&gt;Node9</title>
<path fill="none" stroke="midnightblue" d="M544.368,-114.244C491.114,-103.093 390.826,-81.5182 385,-76 372.473,-64.1336 368.065,-44.5093 366.583,-29.9226"/>
<polygon fill="midnightblue" stroke="midnightblue" points="370.051,-29.3065 365.924,-19.5488 363.065,-29.7507 370.051,-29.3065"/>
</g>
<!-- Node8&#45;&gt;Node10 -->
<g id="edge12" class="edge"><title>Node8&#45;&gt;Node10</title>
<path fill="none" stroke="midnightblue" d="M544.415,-114.677C486.609,-103.431 370.434,-80.6905 352,-76 350.736,-75.6783 349.445,-75.3346 348.144,-74.9763"/>
<polygon fill="midnightblue" stroke="midnightblue" points="348.849,-71.5352 338.267,-72.0628 346.868,-78.2492 348.849,-71.5352"/>
</g>
<!-- Node11 -->
<g id="node11" class="node"><title>Node11</title>
<polygon fill="white" stroke="#bfbfbf" points="528,-56.5 528,-75.5 592,-75.5 592,-56.5 528,-56.5"/>
<text text-anchor="middle" x="560" y="-63.5" font-family="Verdana" font-size="10.00">XmlSink.h</text>
</g>
<!-- Node8&#45;&gt;Node11 -->
<g id="edge13" class="edge"><title>Node8&#45;&gt;Node11</title>
<path fill="none" stroke="midnightblue" d="M574.193,-112.083C571.915,-104.849 568.629,-94.4087 565.792,-85.3968"/>
<polygon fill="midnightblue" stroke="midnightblue" points="569.096,-84.2385 562.755,-75.7511 562.419,-86.3406 569.096,-84.2385"/>
</g>
<!-- Node12 -->
<g id="node12" class="node"><title>Node12</title>
<polygon fill="white" stroke="#bfbfbf" points="394.5,-56.5 394.5,-75.5 471.5,-75.5 471.5,-56.5 394.5,-56.5"/>
<text text-anchor="middle" x="433" y="-63.5" font-family="Verdana" font-size="10.00">XmlSource.h</text>
</g>
<!-- Node8&#45;&gt;Node12 -->
<g id="edge14" class="edge"><title>Node8&#45;&gt;Node12</title>
<path fill="none" stroke="midnightblue" d="M554.183,-112.444C530.168,-103.438 492.171,-89.1891 465.131,-79.049"/>
<polygon fill="midnightblue" stroke="midnightblue" points="466.303,-75.7506 455.71,-75.5164 463.845,-82.3049 466.303,-75.7506"/>
</g>
<!-- Node13 -->
<g id="node13" class="node"><title>Node13</title>
<g id="a_node13"><a xlink:href="PathNavigator_8h.html" target="_top" xlink:title="PathNavigator.h">
<polygon fill="white" stroke="black" points="610,-56.5 610,-75.5 702,-75.5 702,-56.5 610,-56.5"/>
<text text-anchor="middle" x="656" y="-63.5" font-family="Verdana" font-size="10.00">PathNavigator.h</text>
</a>
</g>
</g>
<!-- Node8&#45;&gt;Node13 -->
<g id="edge15" class="edge"><title>Node8&#45;&gt;Node13</title>
<path fill="none" stroke="midnightblue" d="M589.693,-112.324C601.901,-103.979 620.578,-91.2122 635.003,-81.3524"/>
<polygon fill="midnightblue" stroke="midnightblue" points="637.058,-84.1871 643.339,-75.6545 633.108,-78.4082 637.058,-84.1871"/>
</g>
<!-- Node13&#45;&gt;Node4 -->
<g id="edge17" class="edge"><title>Node13&#45;&gt;Node4</title>
<path fill="none" stroke="midnightblue" d="M662.11,-56.083C667.282,-48.5341 674.846,-37.4948 681.194,-28.2298"/>
<polygon fill="midnightblue" stroke="midnightblue" points="684.239,-29.9787 687.004,-19.7511 678.464,-26.0221 684.239,-29.9787"/>
</g>
<!-- Node13&#45;&gt;Node5 -->
<g id="edge18" class="edge"><title>Node13&#45;&gt;Node5</title>
<path fill="none" stroke="midnightblue" d="M702.291,-59.1183C787.358,-48.3099 966.898,-25.4977 1044.26,-15.6682"/>
<polygon fill="midnightblue" stroke="midnightblue" points="1045,-19.1026 1054.48,-14.37 1044.12,-12.1584 1045,-19.1026"/>
</g>
<!-- Node13&#45;&gt;Node9 -->
<g id="edge16" class="edge"><title>Node13&#45;&gt;Node9</title>
<path fill="none" stroke="midnightblue" d="M610.049,-56.4435C551.477,-45.5371 451.602,-26.9397 399.644,-17.2647"/>
<polygon fill="midnightblue" stroke="midnightblue" points="400.088,-13.7874 389.617,-15.3976 398.807,-20.6691 400.088,-13.7874"/>
</g>
<!-- Node14&#45;&gt;Node4 -->
<g id="edge22" class="edge"><title>Node14&#45;&gt;Node4</title>
<path fill="none" stroke="midnightblue" d="M392.469,-224.324C354.816,-197.259 248.325,-112.792 299,-56 322.978,-29.1276 570.981,-16.1206 660.772,-12.2658"/>
<polygon fill="midnightblue" stroke="midnightblue" points="661.067,-15.7565 670.912,-11.8407 660.774,-8.76268 661.067,-15.7565"/>
</g>
<!-- Node14&#45;&gt;Node7 -->
<g id="edge21" class="edge"><title>Node14&#45;&gt;Node7</title>
<path fill="none" stroke="midnightblue" d="M408.798,-224.083C411.913,-216.77 416.423,-206.181 420.289,-197.103"/>
<polygon fill="midnightblue" stroke="midnightblue" points="423.574,-198.323 424.273,-187.751 417.134,-195.58 423.574,-198.323"/>
</g>
<!-- Node15&#45;&gt;Node4 -->
<g id="edge24" class="edge"><title>Node15&#45;&gt;Node4</title>
<path fill="none" stroke="midnightblue" d="M224.886,-224.201C225.03,-194.859 229.819,-99.753 284,-56 313.169,-32.445 569.555,-17.2603 660.874,-12.5586"/>
<polygon fill="midnightblue" stroke="midnightblue" points="661.11,-16.0512 670.92,-12.0495 660.756,-9.06015 661.11,-16.0512"/>
</g>
<!-- Node16&#45;&gt;Node4 -->
<g id="edge27" class="edge"><title>Node16&#45;&gt;Node4</title>
<path fill="none" stroke="midnightblue" d="M812.976,-168.482C807.616,-147.381 791.339,-91.8025 761,-56 749.92,-42.9249 734.113,-32.1527 720.527,-24.4293"/>
<polygon fill="midnightblue" stroke="midnightblue" points="722.022,-21.2589 711.561,-19.5786 718.691,-27.4156 722.022,-21.2589"/>
</g>
<!-- Node16&#45;&gt;Node5 -->
<g id="edge26" class="edge"><title>Node16&#45;&gt;Node5</title>
<path fill="none" stroke="midnightblue" d="M867.203,-171.779C940.716,-163.893 1067.36,-148.143 1081,-132 1105.32,-103.219 1095.56,-55.3648 1087.54,-29.2963"/>
<polygon fill="midnightblue" stroke="midnightblue" points="1090.78,-27.9645 1084.31,-19.577 1084.14,-30.1705 1090.78,-27.9645"/>
</g>
<!-- Node18&#45;&gt;Node4 -->
<g id="edge38" class="edge"><title>Node18&#45;&gt;Node4</title>
<path fill="none" stroke="midnightblue" d="M631.103,-280.464C631.607,-260.228 634.442,-208.038 650,-168 667.769,-122.271 696.842,-122.973 711,-76 715.793,-60.0975 709.749,-41.8624 703.405,-28.7616"/>
<polygon fill="midnightblue" stroke="midnightblue" points="706.459,-27.05 698.67,-19.8678 700.28,-30.3396 706.459,-27.05"/>
</g>
<!-- Node18&#45;&gt;Node10 -->
<g id="edge37" class="edge"><title>Node18&#45;&gt;Node10</title>
<path fill="none" stroke="midnightblue" d="M622.919,-280.379C603.093,-259.511 549.939,-205.255 499,-168 448.055,-130.741 382.218,-96.1661 347.283,-78.7664"/>
<polygon fill="midnightblue" stroke="midnightblue" points="348.804,-75.6138 338.287,-74.3263 345.705,-81.8908 348.804,-75.6138"/>
</g>
<!-- Node18&#45;&gt;Node14 -->
<g id="edge33" class="edge"><title>Node18&#45;&gt;Node14</title>
<path fill="none" stroke="midnightblue" d="M595.19,-280.444C556.012,-271.083 493.123,-256.056 450.485,-245.868"/>
<polygon fill="midnightblue" stroke="midnightblue" points="451.182,-242.436 440.643,-243.516 449.556,-249.245 451.182,-242.436"/>
</g>
<!-- Node19 -->
<g id="node19" class="node"><title>Node19</title>
<g id="a_node19"><a xlink:href="TypeElement_8h.html" target="_top" xlink:title="TypeElement.h">
<polygon fill="white" stroke="black" points="659,-168.5 659,-187.5 745,-187.5 745,-168.5 659,-168.5"/>
<text text-anchor="middle" x="702" y="-175.5" font-family="Verdana" font-size="10.00">TypeElement.h</text>
</a>
</g>
</g>
<!-- Node18&#45;&gt;Node19 -->
<g id="edge34" class="edge"><title>Node18&#45;&gt;Node19</title>
<path fill="none" stroke="midnightblue" d="M636.571,-280.368C648.236,-262.296 675.423,-220.176 690.829,-196.307"/>
<polygon fill="midnightblue" stroke="midnightblue" points="693.972,-197.891 696.455,-187.591 688.091,-194.095 693.972,-197.891"/>
</g>
<!-- Node19&#45;&gt;Node4 -->
<g id="edge36" class="edge"><title>Node19&#45;&gt;Node4</title>
<path fill="none" stroke="midnightblue" d="M709.529,-168.286C726.008,-148.098 762.384,-96.7392 744,-56 738.384,-43.5553 727.437,-33.1723 717.121,-25.5273"/>
<polygon fill="midnightblue" stroke="midnightblue" points="718.958,-22.5431 708.734,-19.7643 714.994,-28.3123 718.958,-22.5431"/>
</g>
<!-- Node19&#45;&gt;Node8 -->
<g id="edge35" class="edge"><title>Node19&#45;&gt;Node8</title>
<path fill="none" stroke="midnightblue" d="M682.193,-168.444C661.713,-159.596 629.517,-145.687 606.135,-135.586"/>
<polygon fill="midnightblue" stroke="midnightblue" points="607.282,-132.269 596.714,-131.516 604.506,-138.695 607.282,-132.269"/>
</g>
<!-- Node20&#45;&gt;Node5 -->
<g id="edge40" class="edge"><title>Node20&#45;&gt;Node5</title>
<path fill="none" stroke="midnightblue" d="M1221.09,-112.173C1206.43,-99.2674 1177.89,-74.7493 1152,-56 1136.58,-44.8369 1118.45,-33.3676 1104.36,-24.8019"/>
<polygon fill="midnightblue" stroke="midnightblue" points="1106.13,-21.7835 1095.76,-19.6247 1102.52,-27.7808 1106.13,-21.7835"/>
</g>
<!-- Node21 -->
<g id="node21" class="node"><title>Node21</title>
<g id="a_node21"><a xlink:href="BinaryStream_8h.html" target="_top" xlink:title="BinaryStream.h">
<polygon fill="white" stroke="black" points="1204,-56.5 1204,-75.5 1296,-75.5 1296,-56.5 1204,-56.5"/>
<text text-anchor="middle" x="1250" y="-63.5" font-family="Verdana" font-size="10.00">BinaryStream.h</text>
</a>
</g>
</g>
<!-- Node20&#45;&gt;Node21 -->
<g id="edge41" class="edge"><title>Node20&#45;&gt;Node21</title>
<path fill="none" stroke="midnightblue" d="M1234.14,-112.083C1236.68,-104.849 1240.36,-94.4087 1243.53,-85.3968"/>
<polygon fill="midnightblue" stroke="midnightblue" points="1246.9,-86.3459 1246.92,-75.7511 1240.3,-84.0225 1246.9,-86.3459"/>
</g>
<!-- Node21&#45;&gt;Node4 -->
<g id="edge43" class="edge"><title>Node21&#45;&gt;Node4</title>
<path fill="none" stroke="midnightblue" d="M1203.94,-60.535C1094.14,-49.8901 819.133,-23.2283 725.108,-14.1128"/>
<polygon fill="midnightblue" stroke="midnightblue" points="725.354,-10.6203 715.063,-13.1389 724.678,-17.5876 725.354,-10.6203"/>
</g>
<!-- Node21&#45;&gt;Node5 -->
<g id="edge42" class="edge"><title>Node21&#45;&gt;Node5</title>
<path fill="none" stroke="midnightblue" d="M1223.22,-56.4435C1194.67,-47.3196 1149.27,-32.8133 1117.46,-22.6509"/>
<polygon fill="midnightblue" stroke="midnightblue" points="1118.24,-19.2262 1107.65,-19.5164 1116.11,-25.8941 1118.24,-19.2262"/>
</g>
<!-- Node22 -->
<g id="node22" class="node"><title>Node22</title>
<polygon fill="white" stroke="#bfbfbf" points="1223,-0.5 1223,-19.5 1277,-19.5 1277,-0.5 1223,-0.5"/>
<text text-anchor="middle" x="1250" y="-7.5" font-family="Verdana" font-size="10.00">fstream</text>
</g>
<!-- Node21&#45;&gt;Node22 -->
<g id="edge44" class="edge"><title>Node21&#45;&gt;Node22</title>
<path fill="none" stroke="midnightblue" d="M1250,-56.083C1250,-49.0059 1250,-38.8611 1250,-29.9865"/>
<polygon fill="midnightblue" stroke="midnightblue" points="1253.5,-29.751 1250,-19.7511 1246.5,-29.7511 1253.5,-29.751"/>
</g>
<!-- Node23&#45;&gt;Node4 -->
<g id="edge49" class="edge"><title>Node23&#45;&gt;Node4</title>
<path fill="none" stroke="midnightblue" d="M1002.59,-112.213C1009.07,-98.4588 1018.67,-71.7861 1005,-56 969.046,-14.4878 797.706,-10.4069 725.356,-10.581"/>
<polygon fill="midnightblue" stroke="midnightblue" points="725.009,-7.08271 715.028,-10.6369 725.047,-14.0826 725.009,-7.08271"/>
</g>
<!-- Node23&#45;&gt;Node5 -->
<g id="edge46" class="edge"><title>Node23&#45;&gt;Node5</title>
<path fill="none" stroke="midnightblue" d="M1006.36,-112.355C1014.73,-103.521 1027.8,-89.2577 1038,-76 1049.95,-60.4642 1062.14,-41.7005 1070.48,-28.3349"/>
<polygon fill="midnightblue" stroke="midnightblue" points="1073.54,-30.0303 1075.81,-19.6801 1067.58,-26.3597 1073.54,-30.0303"/>
</g>
<!-- Node24 -->
<g id="node24" class="node"><title>Node24</title>
<g id="a_node24"><a xlink:href="ErrorContext_8h.html" target="_top" xlink:title="ErrorContext.h">
<polygon fill="white" stroke="black" points="910,-56.5 910,-75.5 996,-75.5 996,-56.5 910,-56.5"/>
<text text-anchor="middle" x="953" y="-63.5" font-family="Verdana" font-size="10.00">ErrorContext.h</text>
</a>
</g>
</g>
<!-- Node23&#45;&gt;Node24 -->
<g id="edge47" class="edge"><title>Node23&#45;&gt;Node24</title>
<path fill="none" stroke="midnightblue" d="M990.569,-112.083C984.147,-104.377 974.694,-93.0333 966.878,-83.6531"/>
<polygon fill="midnightblue" stroke="midnightblue" points="969.383,-81.1927 960.293,-75.7511 964.006,-85.674 969.383,-81.1927"/>
</g>
<!-- Node24&#45;&gt;Node4 -->
<g id="edge48" class="edge"><title>Node24&#45;&gt;Node4</title>
<path fill="none" stroke="midnightblue" d="M911.802,-56.4435C860.018,-45.6884 772.223,-27.4541 725.126,-17.6724"/>
<polygon fill="midnightblue" stroke="midnightblue" points="725.675,-14.2117 715.172,-15.6049 724.251,-21.0654 725.675,-14.2117"/>
</g>
<!-- Node25&#45;&gt;Node4 -->
<g id="edge55" class="edge"><title>Node25&#45;&gt;Node4</title>
<path fill="none" stroke="midnightblue" d="M916.294,-224.465C900.631,-196.731 847.521,-107.946 782,-56 764.714,-42.2955 742.59,-31.0861 724.725,-23.2826"/>
<polygon fill="midnightblue" stroke="midnightblue" points="725.87,-19.9669 715.295,-19.3036 723.148,-26.4162 725.87,-19.9669"/>
</g>
<!-- Node25&#45;&gt;Node5 -->
<g id="edge52" class="edge"><title>Node25&#45;&gt;Node5</title>
<path fill="none" stroke="midnightblue" d="M952.704,-224.455C993.774,-211.626 1064.32,-183.245 1100,-132 1119.44,-104.086 1118.34,-88.7051 1109,-56 1106.1,-45.8435 1100.17,-35.747 1094.51,-27.6991"/>
<polygon fill="midnightblue" stroke="midnightblue" points="1097.22,-25.4786 1088.41,-19.5891 1091.62,-29.6853 1097.22,-25.4786"/>
</g>
<!-- Node25&#45;&gt;Node19 -->
<g id="edge54" class="edge"><title>Node25&#45;&gt;Node19</title>
<path fill="none" stroke="midnightblue" d="M886.299,-224.444C848.415,-215.102 787.651,-200.119 746.338,-189.933"/>
<polygon fill="midnightblue" stroke="midnightblue" points="747.086,-186.512 736.539,-187.516 745.41,-193.309 747.086,-186.512"/>
</g>
<!-- Node26 -->
<g id="node26" class="node"><title>Node26</title>
<polygon fill="white" stroke="#bfbfbf" points="923,-168.5 923,-187.5 965,-187.5 965,-168.5 923,-168.5"/>
<text text-anchor="middle" x="944" y="-175.5" font-family="Verdana" font-size="10.00">limits</text>
</g>
<!-- Node25&#45;&gt;Node26 -->
<g id="edge53" class="edge"><title>Node25&#45;&gt;Node26</title>
<path fill="none" stroke="midnightblue" d="M924.798,-224.083C927.913,-216.77 932.423,-206.181 936.289,-197.103"/>
<polygon fill="midnightblue" stroke="midnightblue" points="939.574,-198.323 940.273,-187.751 933.134,-195.58 939.574,-198.323"/>
</g>
</g>
</svg>
