<?xml version="1.0" encoding="UTF-8" standalone="no"?>
<!DOCTYPE svg PUBLIC "-//W3C//DTD SVG 1.1//EN"
 "http://www.w3.org/Graphics/SVG/1.1/DTD/svg11.dtd">
<!-- Generated by graphviz version 2.38.0 (20140413.2041)
 -->
<!-- Title: /home/dawagner/dev/parameter&#45;framework/parameter/XmlElementSerializingContext.h Pages: 1 -->
<svg width="1713pt" height="406pt"
 viewBox="0.00 0.00 1712.50 406.00" xmlns="http://www.w3.org/2000/svg" xmlns:xlink="http://www.w3.org/1999/xlink">
<g id="graph0" class="graph" transform="scale(1 1) rotate(0) translate(4 402)">
<title>/home/dawagner/dev/parameter&#45;framework/parameter/XmlElementSerializingContext.h</title>
<polygon fill="white" stroke="none" points="-4,4 -4,-402 1708.5,-402 1708.5,4 -4,4"/>
<!-- Node1 -->
<g id="node1" class="node"><title>Node1</title>
<polygon fill="#bfbfbf" stroke="black" points="1040.5,-345.5 1040.5,-397.5 1220.5,-397.5 1220.5,-345.5 1040.5,-345.5"/>
<text text-anchor="start" x="1048.5" y="-385.5" font-family="Verdana" font-size="10.00">/home/dawagner/dev</text>
<text text-anchor="start" x="1048.5" y="-374.5" font-family="Verdana" font-size="10.00">/parameter&#45;framework</text>
<text text-anchor="start" x="1048.5" y="-363.5" font-family="Verdana" font-size="10.00">/parameter/XmlElementSerializing</text>
<text text-anchor="middle" x="1130.5" y="-352.5" font-family="Verdana" font-size="10.00">Context.h</text>
</g>
<!-- Node2 -->
<g id="node2" class="node"><title>Node2</title>
<g id="a_node2"><a xlink:href="XmlParameterSerializingContext_8h.html" target="_top" xlink:title="/home/dawagner/dev\l/parameter&#45;framework\l/parameter/XmlParameterSerializing\lContext.h">
<polygon fill="white" stroke="black" points="471,-256.5 471,-308.5 662,-308.5 662,-256.5 471,-256.5"/>
<text text-anchor="start" x="479" y="-296.5" font-family="Verdana" font-size="10.00">/home/dawagner/dev</text>
<text text-anchor="start" x="479" y="-285.5" font-family="Verdana" font-size="10.00">/parameter&#45;framework</text>
<text text-anchor="start" x="479" y="-274.5" font-family="Verdana" font-size="10.00">/parameter/XmlParameterSerializing</text>
<text text-anchor="middle" x="566.5" y="-263.5" font-family="Verdana" font-size="10.00">Context.h</text>
</a>
</g>
</g>
<!-- Node1&#45;&gt;Node2 -->
<g id="edge1" class="edge"><title>Node1&#45;&gt;Node2</title>
<path fill="none" stroke="midnightblue" d="M1030.31,-355.045C926.233,-338.991 764.566,-314.053 662.19,-298.261"/>
<polygon fill="midnightblue" stroke="midnightblue" points="1029.78,-358.505 1040.2,-356.57 1030.85,-351.587 1029.78,-358.505"/>
</g>
<!-- Node5 -->
<g id="node5" class="node"><title>Node5</title>
<g id="a_node5"><a xlink:href="ParameterMgr_8cpp.html" target="_top" xlink:title="/home/dawagner/dev\l/parameter&#45;framework\l/parameter/ParameterMgr.cpp">
<polygon fill="white" stroke="black" points="794,-0.5 794,-41.5 955,-41.5 955,-0.5 794,-0.5"/>
<text text-anchor="start" x="802" y="-29.5" font-family="Verdana" font-size="10.00">/home/dawagner/dev</text>
<text text-anchor="start" x="802" y="-18.5" font-family="Verdana" font-size="10.00">/parameter&#45;framework</text>
<text text-anchor="middle" x="874.5" y="-7.5" font-family="Verdana" font-size="10.00">/parameter/ParameterMgr.cpp</text>
</a>
</g>
</g>
<!-- Node1&#45;&gt;Node5 -->
<g id="edge27" class="edge"><title>Node1&#45;&gt;Node5</title>
<path fill="none" stroke="midnightblue" d="M1030.7,-352.189C1000.87,-343.01 969.706,-329.329 945.5,-309 878.942,-253.102 879.85,-216.551 864.5,-131 858.963,-100.138 864.717,-63.778 869.508,-41.8282"/>
<polygon fill="midnightblue" stroke="midnightblue" points="1029.74,-355.556 1040.32,-355.013 1031.71,-348.839 1029.74,-355.556"/>
</g>
<!-- Node8 -->
<g id="node8" class="node"><title>Node8</title>
<g id="a_node8"><a xlink:href="XmlDomainSerializingContext_8h.html" target="_top" xlink:title="/home/dawagner/dev\l/parameter&#45;framework\l/parameter/XmlDomainSerializing\lContext.h">
<polygon fill="white" stroke="black" points="954.5,-256.5 954.5,-308.5 1132.5,-308.5 1132.5,-256.5 954.5,-256.5"/>
<text text-anchor="start" x="962.5" y="-296.5" font-family="Verdana" font-size="10.00">/home/dawagner/dev</text>
<text text-anchor="start" x="962.5" y="-285.5" font-family="Verdana" font-size="10.00">/parameter&#45;framework</text>
<text text-anchor="start" x="962.5" y="-274.5" font-family="Verdana" font-size="10.00">/parameter/XmlDomainSerializing</text>
<text text-anchor="middle" x="1043.5" y="-263.5" font-family="Verdana" font-size="10.00">Context.h</text>
</a>
</g>
</g>
<!-- Node1&#45;&gt;Node8 -->
<g id="edge7" class="edge"><title>Node1&#45;&gt;Node8</title>
<path fill="none" stroke="midnightblue" d="M1098.08,-338.077C1088.34,-328.335 1077.8,-317.8 1068.61,-308.607"/>
<polygon fill="midnightblue" stroke="midnightblue" points="1095.79,-340.74 1105.34,-345.336 1100.74,-335.79 1095.79,-340.74"/>
</g>
<!-- Node17 -->
<g id="node17" class="node"><title>Node17</title>
<g id="a_node17"><a xlink:href="Element_8cpp.html" target="_top" xlink:title="/home/dawagner/dev\l/parameter&#45;framework\l/parameter/Element.cpp">
<polygon fill="white" stroke="black" points="1150.5,-262 1150.5,-303 1284.5,-303 1284.5,-262 1150.5,-262"/>
<text text-anchor="start" x="1158.5" y="-291" font-family="Verdana" font-size="10.00">/home/dawagner/dev</text>
<text text-anchor="start" x="1158.5" y="-280" font-family="Verdana" font-size="10.00">/parameter&#45;framework</text>
<text text-anchor="middle" x="1217.5" y="-269" font-family="Verdana" font-size="10.00">/parameter/Element.cpp</text>
</a>
</g>
</g>
<!-- Node1&#45;&gt;Node17 -->
<g id="edge26" class="edge"><title>Node1&#45;&gt;Node17</title>
<path fill="none" stroke="midnightblue" d="M1162.82,-338.181C1174.61,-326.392 1187.57,-313.428 1197.92,-303.082"/>
<polygon fill="midnightblue" stroke="midnightblue" points="1160.26,-335.79 1155.66,-345.336 1165.21,-340.74 1160.26,-335.79"/>
</g>
<!-- Node18 -->
<g id="node18" class="node"><title>Node18</title>
<g id="a_node18"><a xlink:href="XmlElementSerializingContext_8cpp.html" target="_top" xlink:title="/home/dawagner/dev\l/parameter&#45;framework\l/parameter/XmlElementSerializing\lContext.cpp">
<polygon fill="white" stroke="black" points="1302.5,-256.5 1302.5,-308.5 1482.5,-308.5 1482.5,-256.5 1302.5,-256.5"/>
<text text-anchor="start" x="1310.5" y="-296.5" font-family="Verdana" font-size="10.00">/home/dawagner/dev</text>
<text text-anchor="start" x="1310.5" y="-285.5" font-family="Verdana" font-size="10.00">/parameter&#45;framework</text>
<text text-anchor="start" x="1310.5" y="-274.5" font-family="Verdana" font-size="10.00">/parameter/XmlElementSerializing</text>
<text text-anchor="middle" x="1392.5" y="-263.5" font-family="Verdana" font-size="10.00">Context.cpp</text>
</a>
</g>
</g>
<!-- Node1&#45;&gt;Node18 -->
<g id="edge28" class="edge"><title>Node1&#45;&gt;Node18</title>
<path fill="none" stroke="midnightblue" d="M1215.49,-342.278C1248.24,-331.405 1285.37,-319.072 1317.15,-308.521"/>
<polygon fill="midnightblue" stroke="midnightblue" points="1214.32,-338.98 1205.93,-345.453 1216.52,-345.623 1214.32,-338.98"/>
</g>
<!-- Node19 -->
<g id="node19" class="node"><title>Node19</title>
<g id="a_node19"><a xlink:href="XmlFileIncluderElement_8cpp.html" target="_top" xlink:title="/home/dawagner/dev\l/parameter&#45;framework\l/parameter/XmlFileIncluderElement.cpp">
<polygon fill="white" stroke="black" points="1500.5,-262 1500.5,-303 1704.5,-303 1704.5,-262 1500.5,-262"/>
<text text-anchor="start" x="1508.5" y="-291" font-family="Verdana" font-size="10.00">/home/dawagner/dev</text>
<text text-anchor="start" x="1508.5" y="-280" font-family="Verdana" font-size="10.00">/parameter&#45;framework</text>
<text text-anchor="middle" x="1602.5" y="-269" font-family="Verdana" font-size="10.00">/parameter/XmlFileIncluderElement.cpp</text>
</a>
</g>
</g>
<!-- Node1&#45;&gt;Node19 -->
<g id="edge29" class="edge"><title>Node1&#45;&gt;Node19</title>
<path fill="none" stroke="midnightblue" d="M1230.57,-355.024C1303.19,-343.412 1403.67,-326.554 1491.5,-309 1500.71,-307.159 1510.32,-305.124 1519.87,-303.029"/>
<polygon fill="midnightblue" stroke="midnightblue" points="1229.84,-351.597 1220.52,-356.627 1230.94,-358.509 1229.84,-351.597"/>
</g>
<!-- Node3 -->
<g id="node3" class="node"><title>Node3</title>
<g id="a_node3"><a xlink:href="ComponentInstance_8cpp.html" target="_top" xlink:title="/home/dawagner/dev\l/parameter&#45;framework\l/parameter/ComponentInstance.cpp">
<polygon fill="white" stroke="black" points="0,-173 0,-214 191,-214 191,-173 0,-173"/>
<text text-anchor="start" x="8" y="-202" font-family="Verdana" font-size="10.00">/home/dawagner/dev</text>
<text text-anchor="start" x="8" y="-191" font-family="Verdana" font-size="10.00">/parameter&#45;framework</text>
<text text-anchor="middle" x="95.5" y="-180" font-family="Verdana" font-size="10.00">/parameter/ComponentInstance.cpp</text>
</a>
</g>
</g>
<!-- Node2&#45;&gt;Node3 -->
<g id="edge2" class="edge"><title>Node2&#45;&gt;Node3</title>
<path fill="none" stroke="midnightblue" d="M460.511,-265.877C387.001,-254.519 286.975,-238.027 199.5,-220 190.669,-218.18 181.452,-216.135 172.311,-214.014"/>
<polygon fill="midnightblue" stroke="midnightblue" points="460.288,-269.384 470.704,-267.445 461.352,-262.465 460.288,-269.384"/>
</g>
<!-- Node4 -->
<g id="node4" class="node"><title>Node4</title>
<g id="a_node4"><a xlink:href="ComponentType_8cpp.html" target="_top" xlink:title="/home/dawagner/dev\l/parameter&#45;framework\l/parameter/ComponentType.cpp">
<polygon fill="white" stroke="black" points="209,-173 209,-214 380,-214 380,-173 209,-173"/>
<text text-anchor="start" x="217" y="-202" font-family="Verdana" font-size="10.00">/home/dawagner/dev</text>
<text text-anchor="start" x="217" y="-191" font-family="Verdana" font-size="10.00">/parameter&#45;framework</text>
<text text-anchor="middle" x="294.5" y="-180" font-family="Verdana" font-size="10.00">/parameter/ComponentType.cpp</text>
</a>
</g>
</g>
<!-- Node2&#45;&gt;Node4 -->
<g id="edge3" class="edge"><title>Node2&#45;&gt;Node4</title>
<path fill="none" stroke="midnightblue" d="M478.432,-253.331C438.416,-240.532 392.051,-225.702 355.884,-214.134"/>
<polygon fill="midnightblue" stroke="midnightblue" points="477.6,-256.74 488.191,-256.453 479.733,-250.073 477.6,-256.74"/>
</g>
<!-- Node2&#45;&gt;Node5 -->
<g id="edge4" class="edge"><title>Node2&#45;&gt;Node5</title>
<path fill="none" stroke="midnightblue" d="M672.036,-268.422C705.303,-259.557 739.779,-244.738 764.5,-220 811.204,-173.265 772.08,-133.127 808.5,-78 817.86,-63.832 831.816,-51.2607 844.488,-41.637"/>
<polygon fill="midnightblue" stroke="midnightblue" points="671.081,-265.053 662.231,-270.878 672.782,-271.844 671.081,-265.053"/>
</g>
<!-- Node6 -->
<g id="node6" class="node"><title>Node6</title>
<g id="a_node6"><a xlink:href="Subsystem_8cpp.html" target="_top" xlink:title="/home/dawagner/dev\l/parameter&#45;framework\l/parameter/Subsystem.cpp">
<polygon fill="white" stroke="black" points="398.5,-173 398.5,-214 546.5,-214 546.5,-173 398.5,-173"/>
<text text-anchor="start" x="406.5" y="-202" font-family="Verdana" font-size="10.00">/home/dawagner/dev</text>
<text text-anchor="start" x="406.5" y="-191" font-family="Verdana" font-size="10.00">/parameter&#45;framework</text>
<text text-anchor="middle" x="472.5" y="-180" font-family="Verdana" font-size="10.00">/parameter/Subsystem.cpp</text>
</a>
</g>
</g>
<!-- Node2&#45;&gt;Node6 -->
<g id="edge5" class="edge"><title>Node2&#45;&gt;Node6</title>
<path fill="none" stroke="midnightblue" d="M531.941,-249.515C519.108,-237.637 504.941,-224.525 493.658,-214.082"/>
<polygon fill="midnightblue" stroke="midnightblue" points="529.595,-252.112 539.311,-256.336 534.35,-246.975 529.595,-252.112"/>
</g>
<!-- Node7 -->
<g id="node7" class="node"><title>Node7</title>
<g id="a_node7"><a xlink:href="XmlParameterSerializingContext_8cpp.html" target="_top" xlink:title="/home/dawagner/dev\l/parameter&#45;framework\l/parameter/XmlParameterSerializing\lContext.cpp">
<polygon fill="white" stroke="black" points="565,-167.5 565,-219.5 756,-219.5 756,-167.5 565,-167.5"/>
<text text-anchor="start" x="573" y="-207.5" font-family="Verdana" font-size="10.00">/home/dawagner/dev</text>
<text text-anchor="start" x="573" y="-196.5" font-family="Verdana" font-size="10.00">/parameter&#45;framework</text>
<text text-anchor="start" x="573" y="-185.5" font-family="Verdana" font-size="10.00">/parameter/XmlParameterSerializing</text>
<text text-anchor="middle" x="660.5" y="-174.5" font-family="Verdana" font-size="10.00">Context.cpp</text>
</a>
</g>
</g>
<!-- Node2&#45;&gt;Node7 -->
<g id="edge6" class="edge"><title>Node2&#45;&gt;Node7</title>
<path fill="none" stroke="midnightblue" d="M601.223,-249.363C611.834,-239.542 623.343,-228.89 633.372,-219.607"/>
<polygon fill="midnightblue" stroke="midnightblue" points="598.65,-246.975 593.689,-256.336 603.405,-252.112 598.65,-246.975"/>
</g>
<!-- Node8&#45;&gt;Node5 -->
<g id="edge24" class="edge"><title>Node8&#45;&gt;Node5</title>
<path fill="none" stroke="midnightblue" d="M992.176,-250.596C953.546,-224.175 903.321,-182.326 879.5,-131 866.102,-102.132 868.136,-64.2112 871.117,-41.5514"/>
<polygon fill="midnightblue" stroke="midnightblue" points="990.47,-253.666 1000.73,-256.323 994.366,-247.85 990.47,-253.666"/>
</g>
<!-- Node9 -->
<g id="node9" class="node"><title>Node9</title>
<g id="a_node9"><a xlink:href="XmlDomainImportContext_8h.html" target="_top" xlink:title="/home/dawagner/dev\l/parameter&#45;framework\l/parameter/XmlDomainImportContext.h">
<polygon fill="white" stroke="black" points="1007,-173 1007,-214 1214,-214 1214,-173 1007,-173"/>
<text text-anchor="start" x="1015" y="-202" font-family="Verdana" font-size="10.00">/home/dawagner/dev</text>
<text text-anchor="start" x="1015" y="-191" font-family="Verdana" font-size="10.00">/parameter&#45;framework</text>
<text text-anchor="middle" x="1110.5" y="-180" font-family="Verdana" font-size="10.00">/parameter/XmlDomainImportContext.h</text>
</a>
</g>
</g>
<!-- Node8&#45;&gt;Node9 -->
<g id="edge8" class="edge"><title>Node8&#45;&gt;Node9</title>
<path fill="none" stroke="midnightblue" d="M1069.16,-248.178C1078.03,-236.66 1087.68,-224.135 1095.42,-214.082"/>
<polygon fill="midnightblue" stroke="midnightblue" points="1066.21,-246.278 1062.88,-256.336 1071.75,-250.549 1066.21,-246.278"/>
</g>
<!-- Node11 -->
<g id="node11" class="node"><title>Node11</title>
<g id="a_node11"><a xlink:href="ConfigurableDomain_8cpp.html" target="_top" xlink:title="/home/dawagner/dev\l/parameter&#45;framework\l/parameter/ConfigurableDomain.cpp">
<polygon fill="white" stroke="black" points="1488,-0.5 1488,-41.5 1679,-41.5 1679,-0.5 1488,-0.5"/>
<text text-anchor="start" x="1496" y="-29.5" font-family="Verdana" font-size="10.00">/home/dawagner/dev</text>
<text text-anchor="start" x="1496" y="-18.5" font-family="Verdana" font-size="10.00">/parameter&#45;framework</text>
<text text-anchor="middle" x="1583.5" y="-7.5" font-family="Verdana" font-size="10.00">/parameter/ConfigurableDomain.cpp</text>
</a>
</g>
</g>
<!-- Node8&#45;&gt;Node11 -->
<g id="edge18" class="edge"><title>Node8&#45;&gt;Node11</title>
<path fill="none" stroke="midnightblue" d="M1142.47,-255.984C1290.45,-230.959 1338.83,-271.626 1475.5,-220 1539.64,-195.772 1569.97,-191.879 1601.5,-131 1616.32,-102.388 1603.94,-64.3869 1593.67,-41.642"/>
<polygon fill="midnightblue" stroke="midnightblue" points="1141.81,-252.545 1132.57,-257.729 1143.03,-259.439 1141.81,-252.545"/>
</g>
<!-- Node14 -->
<g id="node14" class="node"><title>Node14</title>
<g id="a_node14"><a xlink:href="DomainConfiguration_8cpp.html" target="_top" xlink:title="/home/dawagner/dev\l/parameter&#45;framework\l/parameter/DomainConfiguration.cpp">
<polygon fill="white" stroke="black" points="1376,-84 1376,-125 1571,-125 1571,-84 1376,-84"/>
<text text-anchor="start" x="1384" y="-113" font-family="Verdana" font-size="10.00">/home/dawagner/dev</text>
<text text-anchor="start" x="1384" y="-102" font-family="Verdana" font-size="10.00">/parameter&#45;framework</text>
<text text-anchor="middle" x="1473.5" y="-91" font-family="Verdana" font-size="10.00">/parameter/DomainConfiguration.cpp</text>
</a>
</g>
</g>
<!-- Node8&#45;&gt;Node14 -->
<g id="edge23" class="edge"><title>Node8&#45;&gt;Node14</title>
<path fill="none" stroke="midnightblue" d="M1142.56,-256.166C1224.53,-245.078 1400.71,-264.573 1449.5,-220 1475.74,-196.027 1477.32,-151.323 1475.69,-125.435"/>
<polygon fill="midnightblue" stroke="midnightblue" points="1141.9,-252.727 1132.58,-257.763 1143.01,-259.639 1141.9,-252.727"/>
</g>
<!-- Node15 -->
<g id="node15" class="node"><title>Node15</title>
<g id="a_node15"><a xlink:href="SelectionCriterionRule_8cpp.html" target="_top" xlink:title="/home/dawagner/dev\l/parameter&#45;framework\l/parameter/SelectionCriterion\lRule.cpp">
<polygon fill="white" stroke="black" points="888.5,-78.5 888.5,-130.5 1046.5,-130.5 1046.5,-78.5 888.5,-78.5"/>
<text text-anchor="start" x="896.5" y="-118.5" font-family="Verdana" font-size="10.00">/home/dawagner/dev</text>
<text text-anchor="start" x="896.5" y="-107.5" font-family="Verdana" font-size="10.00">/parameter&#45;framework</text>
<text text-anchor="start" x="896.5" y="-96.5" font-family="Verdana" font-size="10.00">/parameter/SelectionCriterion</text>
<text text-anchor="middle" x="967.5" y="-85.5" font-family="Verdana" font-size="10.00">Rule.cpp</text>
</a>
</g>
</g>
<!-- Node8&#45;&gt;Node15 -->
<g id="edge25" class="edge"><title>Node8&#45;&gt;Node15</title>
<path fill="none" stroke="midnightblue" d="M1015.69,-248.143C1009.37,-239.383 1003.15,-229.669 998.5,-220 984.493,-190.859 976.007,-154.396 971.538,-130.552"/>
<polygon fill="midnightblue" stroke="midnightblue" points="1012.95,-250.315 1021.74,-256.217 1018.55,-246.116 1012.95,-250.315"/>
</g>
<!-- Node16 -->
<g id="node16" class="node"><title>Node16</title>
<g id="a_node16"><a xlink:href="XmlDomainExportContext_8h.html" target="_top" xlink:title="/home/dawagner/dev\l/parameter&#45;framework\l/parameter/XmlDomainExportContext.h">
<polygon fill="white" stroke="black" points="1234.5,-173 1234.5,-214 1440.5,-214 1440.5,-173 1234.5,-173"/>
<text text-anchor="start" x="1242.5" y="-202" font-family="Verdana" font-size="10.00">/home/dawagner/dev</text>
<text text-anchor="start" x="1242.5" y="-191" font-family="Verdana" font-size="10.00">/parameter&#45;framework</text>
<text text-anchor="middle" x="1337.5" y="-180" font-family="Verdana" font-size="10.00">/parameter/XmlDomainExportContext.h</text>
</a>
</g>
</g>
<!-- Node8&#45;&gt;Node16 -->
<g id="edge19" class="edge"><title>Node8&#45;&gt;Node16</title>
<path fill="none" stroke="midnightblue" d="M1137.87,-253.574C1181.31,-240.72 1231.81,-225.775 1271.15,-214.134"/>
<polygon fill="midnightblue" stroke="midnightblue" points="1136.74,-250.259 1128.14,-256.453 1138.72,-256.971 1136.74,-250.259"/>
</g>
<!-- Node9&#45;&gt;Node5 -->
<g id="edge16" class="edge"><title>Node9&#45;&gt;Node5</title>
<path fill="none" stroke="midnightblue" d="M1103.59,-163.263C1095.99,-137.343 1081.3,-100.247 1055.5,-78 1027.6,-53.9437 989.466,-40.2179 955.395,-32.3879"/>
<polygon fill="midnightblue" stroke="midnightblue" points="1100.22,-164.219 1106.24,-172.934 1106.97,-162.364 1100.22,-164.219"/>
</g>
<!-- Node10 -->
<g id="node10" class="node"><title>Node10</title>
<g id="a_node10"><a xlink:href="ConfigurableDomain_8h.html" target="_top" xlink:title="/home/dawagner/dev\l/parameter&#45;framework\l/parameter/ConfigurableDomain.h">
<polygon fill="white" stroke="black" points="1140.5,-84 1140.5,-125 1320.5,-125 1320.5,-84 1140.5,-84"/>
<text text-anchor="start" x="1148.5" y="-113" font-family="Verdana" font-size="10.00">/home/dawagner/dev</text>
<text text-anchor="start" x="1148.5" y="-102" font-family="Verdana" font-size="10.00">/parameter&#45;framework</text>
<text text-anchor="middle" x="1230.5" y="-91" font-family="Verdana" font-size="10.00">/parameter/ConfigurableDomain.h</text>
</a>
</g>
</g>
<!-- Node9&#45;&gt;Node10 -->
<g id="edge9" class="edge"><title>Node9&#45;&gt;Node10</title>
<path fill="none" stroke="midnightblue" d="M1145.58,-167.066C1163.97,-153.733 1186.16,-137.646 1203.24,-125.26"/>
<polygon fill="midnightblue" stroke="midnightblue" points="1143.47,-164.272 1137.43,-172.976 1147.58,-169.939 1143.47,-164.272"/>
</g>
<!-- Node9&#45;&gt;Node11 -->
<g id="edge14" class="edge"><title>Node9&#45;&gt;Node11</title>
<path fill="none" stroke="midnightblue" d="M1199.84,-170.393C1255.39,-156.13 1318.33,-138.831 1329.5,-131 1353.24,-114.366 1343.6,-94.395 1367.5,-78 1387.55,-64.2495 1439.85,-50.5225 1487.96,-40.1006"/>
<polygon fill="midnightblue" stroke="midnightblue" points="1198.75,-167.059 1189.92,-172.926 1200.48,-173.841 1198.75,-167.059"/>
</g>
<!-- Node9&#45;&gt;Node14 -->
<g id="edge15" class="edge"><title>Node9&#45;&gt;Node14</title>
<path fill="none" stroke="midnightblue" d="M1201.94,-170.585C1260.4,-156.573 1335.57,-138.558 1391.99,-125.034"/>
<polygon fill="midnightblue" stroke="midnightblue" points="1200.87,-167.241 1191.96,-172.976 1202.5,-174.048 1200.87,-167.241"/>
</g>
<!-- Node9&#45;&gt;Node15 -->
<g id="edge17" class="edge"><title>Node9&#45;&gt;Node15</title>
<path fill="none" stroke="midnightblue" d="M1069.64,-167.639C1050.55,-156.026 1027.87,-142.226 1008.73,-130.585"/>
<polygon fill="midnightblue" stroke="midnightblue" points="1068.05,-170.768 1078.41,-172.976 1071.68,-164.788 1068.05,-170.768"/>
</g>
<!-- Node10&#45;&gt;Node5 -->
<g id="edge13" class="edge"><title>Node10&#45;&gt;Node5</title>
<path fill="none" stroke="midnightblue" d="M1141.7,-81.5895C1136.56,-80.3641 1131.46,-79.16 1126.5,-78 1069.33,-64.6405 1004.68,-50.2897 955.18,-39.4604"/>
<polygon fill="midnightblue" stroke="midnightblue" points="1141.07,-85.0388 1151.61,-83.9663 1142.7,-78.2317 1141.07,-85.0388"/>
</g>
<!-- Node10&#45;&gt;Node11 -->
<g id="edge10" class="edge"><title>Node10&#45;&gt;Node11</title>
<path fill="none" stroke="midnightblue" d="M1319.31,-81.6046C1324.44,-80.3754 1329.54,-79.1663 1334.5,-78 1387.55,-65.531 1447.11,-52.1163 1494.67,-41.5432"/>
<polygon fill="midnightblue" stroke="midnightblue" points="1318.3,-78.2474 1309.39,-83.9875 1319.93,-85.0536 1318.3,-78.2474"/>
</g>
<!-- Node12 -->
<g id="node12" class="node"><title>Node12</title>
<g id="a_node12"><a xlink:href="ConfigurableDomains_8cpp.html" target="_top" xlink:title="/home/dawagner/dev\l/parameter&#45;framework\l/parameter/ConfigurableDomains.cpp">
<polygon fill="white" stroke="black" points="1031,-0.5 1031,-41.5 1228,-41.5 1228,-0.5 1031,-0.5"/>
<text text-anchor="start" x="1039" y="-29.5" font-family="Verdana" font-size="10.00">/home/dawagner/dev</text>
<text text-anchor="start" x="1039" y="-18.5" font-family="Verdana" font-size="10.00">/parameter&#45;framework</text>
<text text-anchor="middle" x="1129.5" y="-7.5" font-family="Verdana" font-size="10.00">/parameter/ConfigurableDomains.cpp</text>
</a>
</g>
</g>
<!-- Node10&#45;&gt;Node12 -->
<g id="edge11" class="edge"><title>Node10&#45;&gt;Node12</title>
<path fill="none" stroke="midnightblue" d="M1198.15,-77.395C1183.78,-65.7967 1167.14,-52.3727 1153.84,-41.6445"/>
<polygon fill="midnightblue" stroke="midnightblue" points="1196.33,-80.4227 1206.31,-83.9787 1200.72,-74.9751 1196.33,-80.4227"/>
</g>
<!-- Node13 -->
<g id="node13" class="node"><title>Node13</title>
<g id="a_node13"><a xlink:href="ConfigurableElement_8cpp.html" target="_top" xlink:title="/home/dawagner/dev\l/parameter&#45;framework\l/parameter/ConfigurableElement.cpp">
<polygon fill="white" stroke="black" points="1246.5,-0.5 1246.5,-41.5 1440.5,-41.5 1440.5,-0.5 1246.5,-0.5"/>
<text text-anchor="start" x="1254.5" y="-29.5" font-family="Verdana" font-size="10.00">/home/dawagner/dev</text>
<text text-anchor="start" x="1254.5" y="-18.5" font-family="Verdana" font-size="10.00">/parameter&#45;framework</text>
<text text-anchor="middle" x="1343.5" y="-7.5" font-family="Verdana" font-size="10.00">/parameter/ConfigurableElement.cpp</text>
</a>
</g>
</g>
<!-- Node10&#45;&gt;Node13 -->
<g id="edge12" class="edge"><title>Node10&#45;&gt;Node13</title>
<path fill="none" stroke="midnightblue" d="M1265.8,-78.0434C1282.08,-66.2994 1301.11,-52.5732 1316.26,-41.6445"/>
<polygon fill="midnightblue" stroke="midnightblue" points="1263.63,-75.2903 1257.57,-83.9787 1267.72,-80.9677 1263.63,-75.2903"/>
</g>
<!-- Node16&#45;&gt;Node5 -->
<g id="edge22" class="edge"><title>Node16&#45;&gt;Node5</title>
<path fill="none" stroke="midnightblue" d="M1245.03,-170.374C1199.74,-158.455 1150.86,-143.643 1131.5,-131 1105.63,-114.105 1112.64,-94.4809 1086.5,-78 1047.05,-53.1283 996.815,-39.2369 955.146,-31.5123"/>
<polygon fill="midnightblue" stroke="midnightblue" points="1244.37,-173.819 1254.92,-172.949 1246.13,-167.044 1244.37,-173.819"/>
</g>
<!-- Node16&#45;&gt;Node11 -->
<g id="edge20" class="edge"><title>Node16&#45;&gt;Node11</title>
<path fill="none" stroke="midnightblue" d="M1450.55,-177.233C1505.61,-167.275 1563.56,-152.149 1580.5,-131 1600.73,-105.732 1595.28,-65.5863 1589.42,-41.7131"/>
<polygon fill="midnightblue" stroke="midnightblue" points="1449.91,-173.791 1440.67,-178.971 1451.13,-180.685 1449.91,-173.791"/>
</g>
<!-- Node16&#45;&gt;Node14 -->
<g id="edge21" class="edge"><title>Node16&#45;&gt;Node14</title>
<path fill="none" stroke="midnightblue" d="M1376.7,-167.426C1397.65,-154.023 1423.07,-137.758 1442.61,-125.26"/>
<polygon fill="midnightblue" stroke="midnightblue" points="1374.56,-164.638 1368.02,-172.976 1378.33,-170.535 1374.56,-164.638"/>
</g>
</g>
</svg>
